ply
format ascii 1.0
element vertex 1262
property float32 x
property float32 y
property float32 z
property float32 I
end_header
-39.3315 -21.4767 7.9018 0.8336
-34.9503 -22.4612 7.3256 0.8447
-31.1465 -23.3160 6.8603 0.8538
-29.4097 -23.6999 6.6600 0.8578
-24.7474 -24.7474 6.1711 0.8675
-23.4703 -25.2088 6.0733 0.8694
-23.2148 -26.7913 6.2508 0.8659
-22.5008 -27.9219 6.3230 0.8645
-21.7693 -29.0804 6.4052 0.8628
-20.5925 -32.0425 6.7161 0.8567
-21.9768 -37.0400 7.5942 0.8395
-22.7524 -41.6680 8.3712 0.8246
3.8286 -15.0003 2.7298 0.9391
16.2703 -43.6222 8.2094 0.8277
17.2374 -37.7447 7.3166 0.8449
17.7501 -35.4603 6.9922 0.8512
20.9345 -35.2832 7.2341 0.8465
27.4696 -36.6950 8.0824 0.8301
-41.7997 -20.9235 7.1609 0.8277
-37.0596 -21.9886 6.6014 0.8400
-15.3696 -10.6713 2.8664 0.9271
-29.5440 -23.8081 5.8127 0.8577
-21.8559 -29.1960 5.5871 0.8628
-20.7598 -29.8998 5.5763 0.8630
-20.6936 -32.2000 5.8637 0.8565
3.8293 -15.0030 2.3721 0.9393
15.3917 -46.2445 7.4665 0.8210
16.2698 -43.6208 7.1322 0.8283
17.2369 -37.7436 6.3565 0.8454
18.8150 -34.4570 6.0143 0.8531
22.7052 -35.3299 6.4337 0.8437
25.0459 -36.0730 6.7276 0.8372
27.4689 -36.6942 7.0219 0.8307
-44.4937 -20.3196 6.3696 0.8209
-41.8017 -20.9245 6.0873 0.8281
-37.2286 -22.0888 5.6370 0.8398
-34.9532 -22.4631 5.4105 0.8457
-15.3891 -10.6848 2.4396 0.9272
-30.6859 -24.7283 5.1320 0.8530
-27.7771 -24.0690 4.7862 0.8622
-26.7430 -24.8986 4.7582 0.8630
-28.8429 -28.8429 5.3117 0.8483
-23.4719 -25.2106 4.4855 0.8703
-25.7223 -29.6852 5.1150 0.8535
-25.7076 -31.9013 5.3352 0.8477
-26.2842 -35.1117 5.7115 0.8378
-20.7605 -29.9008 4.7402 0.8634
-21.7766 -36.7025 5.5574 0.8419
-22.7553 -41.6733 6.1830 0.8257
15.3922 -46.2461 6.3470 0.8215
17.2364 -37.7425 5.4031 0.8459
17.7491 -35.4583 5.1636 0.8522
20.9363 -35.2862 5.3429 0.8475
25.0453 -36.0721 5.7186 0.8377
29.9302 -37.1411 6.2115 0.8250
-43.3257 -17.9461 5.0357 0.8281
-42.6662 -19.4849 5.0367 0.8280
-41.8037 -20.9254 5.0199 0.8286
-15.4084 -10.6983 2.0143 0.9273
-14.9083 -11.1602 1.9997 0.9278
-30.6867 -24.7290 4.2320 0.8534
-27.7781 -24.0699 3.9469 0.8625
-23.4727 -25.2115 3.6990 0.8706
-25.7327 -29.6971 4.2196 0.8538
-26.5033 -35.4043 4.7490 0.8370
-20.7612 -29.9018 3.9090 0.8638
-21.4072 -33.3103 4.2519 0.8527
-22.0285 -37.1271 4.6357 0.8406
3.8306 -15.0082 1.6633 0.9396
15.3927 -46.2477 5.2340 0.8219
16.2687 -43.6181 4.9990 0.8292
16.6726 -40.2511 4.6784 0.8392
17.2359 -37.7414 4.4554 0.8463
27.4677 -36.6925 4.9218 0.8316
29.9295 -37.1402 5.1220 0.8254
-45.2296 -20.6557 4.2092 0.8191
-38.0979 -22.6046 3.7500 0.8371
-20.6080 -17.8570 2.3083 0.8963
-28.8670 -28.8670 3.4559 0.8488
-23.4735 -25.2124 2.9161 0.8709
-25.7429 -29.7090 3.3277 0.8540
-26.5253 -35.4337 3.7469 0.8372
-21.4079 -33.3114 3.3520 0.8530
-22.0292 -37.1282 3.6546 0.8409
-22.7582 -41.6786 4.0199 0.8264
-14.0249 -47.7645 4.2141 0.8189
-1.5696 -21.9465 1.8626 0.9155
3.8313 -15.0108 1.3114 0.9397
8.0473 -24.1781 2.1571 0.9028
17.2354 -37.7403 3.5122 0.8466
17.7482 -35.4563 3.3565 0.8529
18.8172 -34.4611 3.3238 0.8542
22.7081 -35.3344 3.5556 0.8448
27.4670 -36.6917 3.8799 0.8319
29.9289 -37.1394 4.0377 0.8257
32.5272 -37.5384 4.2047 0.8192
-45.3063 -0.0000 2.8095 0.8340
-45.7395 -18.9460 3.0700 0.8200
-45.2306 -20.6561 3.0834 0.8193
-30.6478 -15.3412 2.1253 0.8717
-38.0989 -22.6051 2.7471 0.8373
-34.9576 -22.4659 2.5768 0.8466
-15.4471 -10.7251 1.1661 0.9274
-14.8744 -11.1349 1.1522 0.9282
-27.7801 -24.0717 2.2794 0.8630
-26.7455 -24.9010 2.2660 0.8638
-28.8513 -28.8513 2.5302 0.8491
-23.4743 -25.2132 2.1362 0.8710
-26.1274 -34.9022 2.7035 0.8397
-21.4086 -33.3124 2.4555 0.8533
-11.0051 -18.5482 1.3374 0.9172
-22.7596 -41.6812 2.9449 0.8267
-12.2909 -48.1553 3.0819 0.8194
-8.8284 -48.9328 3.0833 0.8193
-7.0915 -49.3228 3.0900 0.8190
-2.3806 -22.1426 1.3810 0.9146
-1.5696 -21.9464 1.3644 0.9156
16.1094 -43.1909 2.8585 0.8313
16.6716 -40.2487 2.7015 0.8398
17.4709 -38.2559 2.6079 0.8449
17.7477 -35.4554 2.4587 0.8531
18.8179 -34.4624 2.4349 0.8544
24.9521 -35.9378 2.7130 0.8392
27.2967 -36.4641 2.8245 0.8331
29.8458 -37.0364 2.9495 0.8264
13.9734 -16.1262 1.3232 0.9180
-45.2315 -20.6566 1.9607 0.8195
-30.6703 -15.3525 1.3520 0.8717
-38.0998 -22.6057 1.7468 0.8375
-34.9590 -22.4669 1.6386 0.8467
-15.4664 -10.7385 0.7424 0.9274
-27.7811 -24.0725 1.4495 0.8632
-25.6476 -29.5989 1.5443 0.8549
-25.5666 -31.7263 1.6066 0.8495
-26.1283 -34.9033 1.7192 0.8398
-22.7611 -41.6838 1.8727 0.8269
-12.4498 -30.0564 1.2828 0.8779
-14.0257 -47.7673 1.9630 0.8193
8.0476 -44.6048 1.7872 0.8341
3.8326 -15.0160 0.6111 0.9398
10.2325 -34.8487 1.4321 0.8647
16.2672 -43.6139 1.8355 0.8300
16.8993 -40.7984 1.7413 0.8380
17.4704 -38.2548 1.6583 0.8451
18.8187 -34.4638 1.5483 0.8545
16.9737 -26.4116 1.2380 0.8819
13.0020 -17.3687 0.8555 0.9168
13.1306 -16.2941 0.8251 0.9196
16.4133 -17.6292 0.9498 0.9081
-45.2325 -20.6570 0.8400 0.8196
-30.6712 -15.3529 0.5792 0.8718
-34.9605 -22.4678 0.7020 0.8468
-28.7965 -28.7966 0.6879 0.8497
-20.5514 -27.4535 0.5793 0.8718
-22.0312 -37.1317 0.7293 0.8414
-14.0261 -47.7687 0.8410 0.8194
-1.1358 -31.8026 0.5375 0.8805
3.8332 -15.0185 0.2618 0.9399
17.4699 -38.2537 0.7104 0.8452
18.8194 -34.4651 0.6633 0.8546
20.9405 -35.2933 0.6932 0.8486
22.7110 -35.3389 0.7096 0.8453
25.0424 -36.0679 0.7417 0.8389
27.4652 -36.6891 0.7742 0.8325
24.0789 -19.4040 0.5224 0.8836
-39.2592 -5.6446 -0.2233 0.8533
-45.2335 -20.6575 -0.2800 0.8196
-30.6720 -15.3533 -0.1931 0.8718
-38.1016 -22.6067 -0.2494 0.8376
-15.5050 -10.7653 -0.1063 0.9273
-14.8242 -11.0973 -0.1043 0.9286
-30.6910 -24.7324 -0.2219 0.8541
-27.7832 -24.0743 -0.2070 0.8632
-26.7479 -24.9032 -0.2058 0.8640
-28.8542 -28.8543 -0.2297 0.8494
-23.4767 -25.2158 -0.1940 0.8713
-25.6760 -29.6318 -0.2207 0.8548
-25.6198 -31.7922 -0.2299 0.8493
-20.7647 -29.9069 -0.2050 0.8645
-21.4106 -33.3155 -0.2230 0.8535
-1.1359 -31.8036 -0.1792 0.8805
3.8339 -15.0211 -0.0873 0.9399
14.6183 -43.9209 -0.2606 0.8310
16.2661 -43.6111 -0.2621 0.8301
16.8983 -40.7960 -0.2486 0.8381
17.4694 -38.2526 -0.2368 0.8452
17.7462 -35.4525 -0.2232 0.8533
22.7119 -35.3404 -0.2365 0.8453
25.0418 -36.0671 -0.2472 0.8389
27.4532 -36.6732 -0.2579 0.8326
14.3578 -16.5698 -0.1234 0.9160
34.0138 -36.5334 -0.2810 0.8190
24.0401 -19.3727 -0.1738 0.8838
-30.6728 -15.3537 -0.9660 0.8717
-38.1025 -22.6073 -1.2475 0.8375
-34.9634 -22.4696 -1.1703 0.8468
-34.4537 -23.9217 -1.1810 0.8455
-27.2622 -23.6228 -1.0157 0.8656
-23.4775 -25.2167 -0.9702 0.8712
-25.6769 -29.6328 -1.1041 0.8548
-21.4112 -33.3166 -1.1151 0.8534
-22.0326 -37.1340 -1.2158 0.8413
-22.7653 -41.6916 -1.3376 0.8269
3.8346 -15.0237 -0.4366 0.9398
14.3179 -43.0183 -1.2766 0.8341
16.2656 -43.6097 -1.3106 0.8301
17.4689 -38.2515 -1.1841 0.8451
18.8209 -34.4678 -1.1058 0.8546
20.9422 -35.2962 -1.1556 0.8485
22.7129 -35.3419 -1.1829 0.8453
27.4545 -36.6748 -1.2900 0.8325
13.7668 -17.0836 -0.6178 0.9159
14.3580 -16.5700 -0.6174 0.9160
24.0014 -19.3415 -0.8680 0.8840
-48.3384 -0.0000 -2.4514 0.8240
-38.0818 -5.4754 -1.9511 0.8572
-38.4929 -6.9449 -1.9837 0.8550
-25.1253 -7.3775 -1.3280 0.9004
-23.6797 -7.8814 -1.2657 0.9049
-42.7213 -15.9343 -2.3124 0.8331
-42.2003 -17.4800 -2.3165 0.8328
-30.6736 -15.3541 -1.7397 0.8716
-16.5826 -9.0548 -0.9582 0.9271
-34.4546 -23.9223 -2.1272 0.8454
-14.7909 -11.0724 -0.9370 0.9287
-30.6927 -24.7338 -1.9991 0.8540
-26.7496 -24.9047 -1.8535 0.8638
-28.8521 -28.8521 -2.0693 0.8492
-23.4783 -25.2175 -1.7474 0.8711
-25.5156 -31.6630 -2.0623 0.8497
-20.2577 -27.0611 -1.7143 0.8734
-22.0333 -37.1351 -2.1898 0.8412
-21.0430 -42.0385 -2.3841 0.8284
-19.5475 -42.8031 -2.3864 0.8282
-18.0237 -43.5131 -2.3885 0.8281
-16.4729 -44.1657 -2.3905 0.8280
-14.8974 -44.7597 -2.3924 0.8278
-7.8194 -35.9454 -1.8656 0.8630
-4.1321 -28.7394 -1.4725 0.8902
-1.0866 -30.4247 -1.5439 0.8852
0.0000 -30.8139 -1.5627 0.8839
1.0369 -29.0307 -1.4732 0.8902
3.3561 -31.2164 -1.5922 0.8818
6.7421 -46.8920 -2.4026 0.8272
5.1719 -28.6660 -1.4772 0.8899
10.0666 -46.2756 -2.4017 0.8272
3.8352 -15.0262 -0.7865 0.9398
4.4199 -15.0528 -0.7956 0.9391
14.3185 -43.0201 -2.2994 0.8339
20.9082 -35.2388 -2.0780 0.8486
25.0021 -36.0099 -2.2232 0.8390
27.4241 -36.6343 -2.3208 0.8325
31.9298 -34.2950 -2.3764 0.8289
23.0053 -23.0052 -1.6500 0.8778
34.2138 -31.8542 -2.3707 0.8293
35.2846 -30.5742 -2.3678 0.8294
23.9628 -19.3104 -1.5607 0.8840
37.2770 -27.9052 -2.3615 0.8299
38.2129 -26.5316 -2.3592 0.8300
40.0927 -23.7881 -2.3642 0.8297
43.1208 -21.5847 -2.4455 0.8244
45.2934 -20.6848 -2.5252 0.8192
46.7477 -17.4360 -2.5303 0.8189
-33.6407 -0.0000 -2.4666 0.8738
-33.6018 -1.2001 -2.4653 0.8738
-33.5206 -2.3975 -2.4641 0.8739
-33.3976 -3.5906 -2.4629 0.8740
-30.5134 -7.7881 -2.3090 0.8813
-24.9031 -7.3122 -1.9030 0.9011
-23.6234 -7.8626 -1.8255 0.9050
-29.4744 -10.9934 -2.3066 0.8815
-29.0542 -12.0342 -2.3058 0.8815
-27.4265 -12.5253 -2.2107 0.8861
-28.1870 -14.1094 -2.3112 0.8812
-16.5833 -9.0552 -1.3854 0.9270
-24.7103 -19.9129 -2.3269 0.8805
-20.8862 -24.1040 -2.3385 0.8799
-18.2377 -26.2673 -2.3447 0.8796
-16.3428 -27.5443 -2.3483 0.8795
-14.3569 -28.6814 -2.3517 0.8793
-13.3329 -29.1949 -2.3533 0.8792
-12.2897 -29.6700 -2.3547 0.8791
-11.2294 -30.1072 -2.3561 0.8791
-10.1532 -30.5054 -2.3574 0.8790
-6.8433 -31.4583 -2.3605 0.8789
2.0879 -29.1923 -2.1459 0.8892
4.5893 -31.9194 -2.3645 0.8787
10.1744 -30.5691 -2.3623 0.8788
12.3209 -29.7452 -2.3607 0.8789
9.3993 -20.5816 -1.6590 0.9132
16.3979 -27.6372 -2.3563 0.8791
18.1314 -26.1142 -2.3310 0.8803
21.8106 -23.4262 -2.3469 0.8795
23.4495 -21.8323 -2.3492 0.8794
22.8200 -19.7736 -2.2140 0.8859
21.5452 -17.3622 -2.0288 0.8950
26.3954 -18.3266 -2.3561 0.8791
28.4313 -18.2717 -2.4780 0.8732
30.0958 -16.4335 -2.5142 0.8715
30.6851 -15.3598 -2.5160 0.8714
31.2358 -14.2649 -2.5178 0.8713
31.7472 -13.1501 -2.5196 0.8713
32.6491 -10.8667 -2.5230 0.8711
33.3854 -8.5211 -2.5264 0.8709
33.6901 -7.3288 -2.5280 0.8709
33.9517 -6.1256 -2.5296 0.8708
34.4743 -2.4656 -2.5342 0.8706
34.5601 -1.2343 -2.5356 0.8705
-25.7771 -0.0000 -2.4747 0.9016
-25.6912 -1.8375 -2.4728 0.9017
-25.4762 -3.6629 -2.4710 0.9017
-25.3206 -4.5683 -2.4701 0.9018
-24.8872 -6.3521 -2.4659 0.9019
-22.8998 -7.6218 -2.3171 0.9076
-22.6074 -8.4322 -2.3165 0.9076
-22.2867 -9.2315 -2.3159 0.9076
-21.9382 -10.0189 -2.3154 0.9076
-21.5623 -10.7933 -2.3149 0.9077
-16.0873 -9.5450 -1.7959 0.9276
-15.4400 -9.9227 -1.7620 0.9289
-14.7576 -11.0474 -1.7698 0.9286
-18.7851 -15.1380 -2.3162 0.9076
-17.6852 -16.4655 -2.3198 0.9075
-14.8501 -14.8501 -2.0162 0.9191
-15.8588 -18.3020 -2.3250 0.9073
-15.2059 -18.8694 -2.3266 0.9072
-13.8391 -19.9322 -2.3296 0.9071
-13.1270 -20.4260 -2.3310 0.9070
-11.6498 -21.3350 -2.3337 0.9069
-5.4511 -11.9363 -1.2598 0.9486
-8.5114 -22.8200 -2.3383 0.9068
-7.6947 -23.1188 -2.3392 0.9067
-5.1847 -23.8336 -2.3417 0.9066
-2.4798 -17.2473 -1.6729 0.9324
-1.8755 -17.4444 -1.6844 0.9319
-1.5671 -21.9115 -2.1090 0.9155
-0.8715 -24.4023 -2.3442 0.9065
0.8717 -24.4071 -2.3447 0.9065
1.7424 -24.3615 -2.3448 0.9065
3.4758 -24.1746 -2.3447 0.9065
4.3361 -24.0335 -2.3446 0.9065
4.0556 -18.6430 -1.8317 0.9262
3.8365 -15.0314 -1.4894 0.9396
10.1304 -22.1825 -2.3412 0.9067
10.2220 -20.4210 -2.1924 0.9123
12.4309 -20.9511 -2.3388 0.9067
13.1778 -20.5051 -2.3401 0.9067
13.9089 -20.0326 -2.3413 0.9066
14.6231 -19.5341 -2.3426 0.9066
13.9248 -17.2796 -2.1305 0.9147
15.9972 -18.4617 -2.3452 0.9065
17.2928 -17.2928 -2.3479 0.9064
17.9091 -16.6739 -2.3492 0.9064
20.2619 -16.3280 -2.4982 0.9007
20.8931 -15.6404 -2.5056 0.9004
21.4501 -14.8930 -2.5070 0.9004
21.9802 -14.1258 -2.5084 0.9003
22.4828 -13.3397 -2.5098 0.9003
22.9572 -12.5356 -2.5112 0.9002
23.4027 -11.7146 -2.5125 0.9002
24.2047 -10.0259 -2.5152 0.9001
24.8843 -8.2823 -2.5179 0.9000
25.1769 -7.3926 -2.5191 0.8999
25.4374 -6.4925 -2.5204 0.8999
25.8610 -4.6658 -2.5229 0.8998
26.3094 -0.9396 -2.5274 0.8996
-20.8761 -0.0000 -2.4798 0.9193
-20.7370 -2.2295 -2.4775 0.9194
-20.6383 -2.9674 -2.4768 0.9194
-20.5136 -3.7011 -2.4761 0.9195
-20.1870 -5.1524 -2.4748 0.9195
-19.5076 -7.2760 -2.4732 0.9196
-19.0593 -7.8946 -2.4505 0.9203
-16.0877 -9.5453 -2.2220 0.9274
-13.7999 -10.3305 -2.0477 0.9329
-14.0795 -11.3460 -2.1479 0.9298
-13.3064 -14.2921 -2.3196 0.9244
-11.1408 -16.0459 -2.3204 0.9243
-8.3353 -16.6518 -2.2120 0.9277
-5.4516 -11.9374 -1.5589 0.9485
-7.4952 -18.0950 -2.3265 0.9241
-6.1895 -18.5964 -2.3281 0.9241
-5.5235 -18.8113 -2.3289 0.9241
-4.8499 -19.0017 -2.3295 0.9240
-4.1697 -19.1677 -2.3301 0.9240
-2.0981 -19.5157 -2.3316 0.9240
-1.4005 -19.5812 -2.3319 0.9240
0.0000 -19.6355 -2.3324 0.9240
0.7009 -19.6244 -2.3326 0.9239
1.4009 -19.5875 -2.3327 0.9239
2.8571 -15.8361 -1.9115 0.9372
3.1489 -14.4755 -1.7597 0.9421
4.3936 -14.9634 -1.8525 0.9391
5.3782 -14.4194 -1.8281 0.9399
7.5283 -18.1750 -2.3368 0.9238
8.8131 -17.6063 -2.3388 0.9238
9.4399 -17.2879 -2.3398 0.9237
10.0553 -16.9473 -2.3408 0.9237
11.2486 -16.2010 -2.3428 0.9236
13.9919 -15.0284 -2.4391 0.9206
15.9217 -13.7962 -2.5025 0.9186
16.8807 -12.6367 -2.5048 0.9186
17.3288 -12.0316 -2.5059 0.9185
18.5404 -10.1238 -2.5093 0.9184
19.8267 -7.3950 -2.5136 0.9183
20.9959 -3.0187 -2.5197 0.9181
21.0981 -2.2683 -2.5206 0.9181
21.2213 -0.7579 -2.5224 0.9180
-17.5260 -0.0000 -2.4832 0.9316
-17.5101 -0.6254 -2.4826 0.9317
-17.4119 -1.8720 -2.4813 0.9317
-17.3298 -2.4916 -2.4807 0.9317
-16.9529 -4.3270 -2.4791 0.9318
-16.7844 -4.9284 -2.4786 0.9318
-16.1529 -6.6908 -2.4773 0.9318
-15.9014 -7.2619 -2.4769 0.9318
-15.6300 -7.8238 -2.4766 0.9318
-15.3248 -8.3680 -2.4740 0.9319
-14.8313 -8.7998 -2.4435 0.9327
-11.1782 -12.0063 -2.3243 0.9359
-10.7427 -12.3977 -2.3243 0.9359
-9.8314 -13.1332 -2.3245 0.9359
-9.3568 -13.4764 -2.3246 0.9359
-8.8704 -13.8026 -2.3247 0.9359
-8.3727 -14.1115 -2.3249 0.9359
-7.3461 -14.6756 -2.3253 0.9358
-5.7374 -15.3825 -2.3262 0.9358
-4.6268 -15.7576 -2.3269 0.9358
-3.4922 -16.0533 -2.3278 0.9358
-2.9176 -16.1710 -2.3282 0.9358
-1.7573 -16.3450 -2.3293 0.9357
-1.1730 -16.4011 -2.3298 0.9357
-0.5870 -16.4365 -2.3304 0.9357
1.7600 -16.3703 -2.3329 0.9356
2.3438 -16.3018 -2.3335 0.9356
3.5809 -14.0300 -2.0516 0.9432
4.1562 -14.1548 -2.0902 0.9421
6.8594 -15.0201 -2.3396 0.9355
7.9191 -14.5028 -2.3413 0.9354
9.7769 -14.0814 -2.4289 0.9331
10.5388 -14.0782 -2.4917 0.9314
11.0605 -13.7252 -2.4976 0.9313
11.5477 -13.3267 -2.4985 0.9312
12.4785 -12.4785 -2.5004 0.9312
13.3470 -11.5652 -2.5023 0.9311
14.1488 -10.5917 -2.5042 0.9311
14.8796 -9.5625 -2.5061 0.9310
15.5355 -8.4830 -2.5080 0.9310
15.8342 -7.9260 -2.5089 0.9310
16.1129 -7.3585 -2.5098 0.9309
16.3711 -6.7811 -2.5107 0.9309
16.6087 -6.1947 -2.5116 0.9309
16.8251 -5.5999 -2.5125 0.9309
17.0201 -4.9976 -2.5134 0.9308
17.4742 -3.1527 -2.5159 0.9308
17.5812 -2.5278 -2.5167 0.9308
17.7276 -1.2679 -2.5182 0.9307
17.7668 -0.6345 -2.5190 0.9307
-15.0891 -0.0000 -2.4858 0.9407
-15.0759 -0.5385 -2.4852 0.9407
-15.0437 -1.0760 -2.4846 0.9407
-14.9925 -1.6119 -2.4841 0.9407
-14.7255 -3.2033 -2.4826 0.9407
-14.5991 -3.7262 -2.4821 0.9407
-14.4543 -4.2442 -2.4817 0.9408
-14.2913 -4.7566 -2.4813 0.9408
-14.1104 -5.2629 -2.4810 0.9408
-13.9116 -5.7624 -2.4806 0.9408
-13.6953 -6.2544 -2.4803 0.9408
-12.9440 -7.6801 -2.4795 0.9408
-12.6606 -8.1365 -2.4793 0.9408
-11.6844 -9.4159 -2.4721 0.9410
-10.4705 -9.7484 -2.3568 0.9437
-9.9915 -9.9915 -2.3278 0.9443
-8.8663 -11.0025 -2.3278 0.9443
-8.4682 -11.3123 -2.3279 0.9443
-8.0594 -11.6078 -2.3280 0.9443
-7.2116 -12.1546 -2.3283 0.9443
-6.7737 -12.4051 -2.3284 0.9443
-5.4104 -13.0620 -2.3291 0.9443
-4.4659 -13.4180 -2.3297 0.9443
-3.9847 -13.5708 -2.3300 0.9443
-3.0074 -13.8248 -2.3307 0.9443
-1.5132 -14.0747 -2.3320 0.9442
-1.0101 -14.1226 -2.3325 0.9442
-0.5055 -14.1526 -2.3330 0.9442
0.0000 -14.1647 -2.3335 0.9442
1.0110 -14.1351 -2.3346 0.9442
2.0178 -14.0339 -2.3357 0.9441
3.0154 -13.8614 -2.3369 0.9441
3.5091 -13.7487 -2.3376 0.9441
4.9629 -13.3061 -2.3395 0.9441
6.0523 -13.2527 -2.4001 0.9426
6.6983 -13.3815 -2.4652 0.9411
8.6428 -12.4480 -2.4965 0.9404
9.0845 -12.1355 -2.4973 0.9404
9.9335 -11.4639 -2.4989 0.9404
11.1129 -10.3465 -2.5014 0.9403
11.4789 -9.9465 -2.5022 0.9403
13.0838 -7.7630 -2.5063 0.9402
13.6129 -6.8142 -2.5079 0.9402
14.0731 -5.8293 -2.5094 0.9401
14.4619 -4.8134 -2.5109 0.9401
14.6288 -4.2954 -2.5117 0.9401
14.7771 -3.7716 -2.5124 0.9400
14.9066 -3.2427 -2.5131 0.9400
15.1083 -2.1722 -2.5145 0.9400
15.1803 -1.6320 -2.5152 0.9400
-13.2351 -0.0000 -2.4877 0.9476
-13.1514 -1.4139 -2.4862 0.9476
-13.0902 -1.8821 -2.4857 0.9476
-12.6809 -3.7234 -2.4841 0.9476
-12.5381 -4.1731 -2.4838 0.9476
-12.3795 -4.6173 -2.4835 0.9476
-12.2054 -5.0556 -2.4831 0.9477
-12.0158 -5.4874 -2.4829 0.9477
-11.5914 -6.3294 -2.4824 0.9477
-11.3571 -6.7385 -2.4822 0.9477
-10.2801 -8.2842 -2.4816 0.9477
-9.9775 -8.6456 -2.4815 0.9477
-9.6623 -8.9959 -2.4814 0.9477
-9.3349 -9.3349 -2.4814 0.9477
-8.9913 -9.6574 -2.4801 0.9477
-8.2261 -10.2080 -2.4642 0.9480
-7.7272 -10.3223 -2.4236 0.9489
-5.5515 -11.0905 -2.3311 0.9508
-5.1525 -11.2825 -2.3313 0.9508
-3.4960 -11.9061 -2.3324 0.9507
-0.8860 -12.3886 -2.3345 0.9507
-0.4434 -12.4146 -2.3350 0.9507
0.0000 -12.4249 -2.3354 0.9507
1.7742 -12.3401 -2.3433 0.9505
3.7238 -12.6821 -2.4844 0.9476
5.0757 -12.2539 -2.4930 0.9474
5.5113 -12.0681 -2.4937 0.9474
5.9401 -11.8669 -2.4943 0.9474
6.3616 -11.6504 -2.4950 0.9474
7.5768 -10.9127 -2.4971 0.9474
8.7073 -10.0488 -2.4992 0.9473
9.7400 -9.0682 -2.5014 0.9473
10.3680 -8.3551 -2.5028 0.9472
10.6627 -7.9820 -2.5035 0.9472
11.4646 -6.8023 -2.5056 0.9472
11.7033 -6.3905 -2.5063 0.9472
12.3296 -5.1071 -2.5084 0.9471
12.8150 -3.7628 -2.5104 0.9471
12.9444 -3.3039 -2.5110 0.9471
13.0573 -2.8405 -2.5117 0.9471
13.2331 -1.9026 -2.5129 0.9470
13.3698 -0.4775 -2.5146 0.9470
-11.7662 -0.4202 -2.4887 0.9530
-11.7416 -0.8398 -2.4883 0.9530
-11.7022 -1.2581 -2.4879 0.9530
-11.6479 -1.6747 -2.4875 0.9530
-11.4953 -2.5007 -2.4867 0.9530
-11.0167 -4.1090 -2.4854 0.9531
-10.8619 -4.4991 -2.4851 0.9531
-9.4068 -7.0419 -2.4838 0.9531
-8.3080 -8.3080 -2.4836 0.9531
-8.0062 -8.5993 -2.4836 0.9531
-7.6942 -8.8796 -2.4836 0.9531
-7.0414 -9.4062 -2.4837 0.9531
-6.7014 -9.6518 -2.4837 0.9531
-6.3529 -9.8853 -2.4838 0.9531
-5.2565 -10.5012 -2.4823 0.9531
-4.8757 -10.6763 -2.4810 0.9531
-4.4895 -10.8387 -2.4798 0.9532
-4.0984 -10.9882 -2.4790 0.9532
-3.7026 -11.1247 -2.4784 0.9532
-3.3027 -11.2481 -2.4780 0.9532
-2.4860 -11.4277 -2.4721 0.9533
-1.2541 -11.6644 -2.4798 0.9532
0.0000 -11.7510 -2.4839 0.9531
0.4197 -11.7523 -2.4858 0.9531
3.7242 -11.1895 -2.4928 0.9529
4.1222 -11.0520 -2.4934 0.9529
6.3864 -9.9374 -2.4969 0.9529
6.7386 -9.7055 -2.4976 0.9528
8.0594 -8.6564 -2.5001 0.9528
8.3654 -8.3654 -2.5007 0.9528
8.9454 -7.7512 -2.5020 0.9528
9.2187 -7.4289 -2.5026 0.9527
9.4804 -7.0970 -2.5033 0.9527
9.9676 -6.4058 -2.5045 0.9527
10.1924 -6.0475 -2.5052 0.9527
10.4044 -5.6812 -2.5058 0.9527
10.6032 -5.3076 -2.5064 0.9527
10.7885 -4.9269 -2.5070 0.9527
11.5053 -2.9366 -2.5100 0.9526
11.6054 -2.5246 -2.5105 0.9526
11.6906 -2.1092 -2.5111 0.9526
11.7610 -1.6910 -2.5116 0.9526
11.8163 -1.2704 -2.5121 0.9526
11.8565 -0.8480 -2.5126 0.9526
11.8816 -0.4244 -2.5131 0.9526
-10.5879 -0.3782 -2.4900 0.9574
-10.4820 -1.5071 -2.4888 0.9574
-10.4201 -1.8800 -2.4885 0.9574
-10.3450 -2.2504 -2.4882 0.9574
-10.1556 -2.9819 -2.4876 0.9574
-9.7755 -4.0492 -2.4868 0.9575
-9.4601 -4.7354 -2.4863 0.9575
-9.0969 -5.3974 -2.4860 0.9575
-8.8979 -5.7183 -2.4858 0.9575
-7.9922 -6.9253 -2.4854 0.9575
-7.2059 -7.7397 -2.4853 0.9575
-5.3968 -9.0959 -2.4857 0.9575
-3.3415 -10.0396 -2.4868 0.9575
-2.6173 -10.2545 -2.4873 0.9574
-2.2499 -10.3425 -2.4876 0.9574
-1.5067 -10.4793 -2.4882 0.9574
-0.7555 -10.5630 -2.4889 0.9574
-0.3780 -10.5847 -2.4892 0.9574
0.3782 -10.5880 -2.4900 0.9574
0.7560 -10.5695 -2.4904 0.9574
1.5086 -10.4923 -2.4913 0.9574
2.9887 -10.1785 -2.4932 0.9573
3.3507 -10.0673 -2.4937 0.9573
3.7087 -9.9433 -2.4942 0.9573
4.4104 -9.6575 -2.4952 0.9573
4.7533 -9.4959 -2.4957 0.9573
6.6721 -8.2795 -2.4991 0.9572
7.5240 -7.5240 -2.5008 0.9572
7.7896 -7.2523 -2.5014 0.9572
8.0453 -6.9713 -2.5019 0.9572
8.2909 -6.6812 -2.5025 0.9572
8.5260 -6.3825 -2.5031 0.9572
8.7504 -6.0755 -2.5036 0.9572
8.9637 -5.7606 -2.5042 0.9572
9.3560 -5.1088 -2.5053 0.9571
9.9966 -3.7285 -2.5075 0.9571
10.1254 -3.3701 -2.5081 0.9571
10.4340 -2.2698 -2.5096 0.9571
10.6230 -1.1421 -2.5110 0.9570
10.6812 -0.3815 -2.5119 0.9570
-9.6224 -0.0000 -2.4914 0.9610
-9.6148 -0.3434 -2.4910 0.9610
-9.5190 -1.3686 -2.4900 0.9610
-9.4629 -1.7073 -2.4897 0.9610
-9.3148 -2.3775 -2.4891 0.9611
-9.1195 -3.0353 -2.4886 0.9611
-9.0045 -3.3585 -2.4883 0.9611
-8.5918 -4.3008 -2.4877 0.9611
-8.2620 -4.9021 -2.4874 0.9611
-7.6896 -5.7564 -2.4870 0.9611
-7.4790 -6.0270 -2.4870 0.9611
-7.2589 -6.2899 -2.4869 0.9611
-6.7915 -6.7915 -2.4868 0.9611
-6.5448 -7.0296 -2.4868 0.9611
-6.2897 -7.2587 -2.4868 0.9611
-6.0267 -7.4787 -2.4868 0.9611
-5.7560 -7.6892 -2.4869 0.9611
-5.4781 -7.8899 -2.4870 0.9611
-4.9016 -8.2612 -2.4871 0.9611
-3.9911 -8.7393 -2.4876 0.9611
-2.3770 -9.3129 -2.4886 0.9611
-2.0433 -9.3928 -2.4888 0.9611
-0.6861 -9.5925 -2.4900 0.9610
1.0288 -9.5688 -2.4918 0.9610
1.7093 -9.4741 -2.4926 0.9610
2.0467 -9.4087 -2.4930 0.9610
3.0424 -9.1408 -2.4944 0.9610
4.0043 -8.7682 -2.4958 0.9610
4.3155 -8.6213 -2.4963 0.9609
4.6214 -8.4635 -2.4967 0.9609
5.5029 -7.9257 -2.4983 0.9609
5.7835 -7.7259 -2.4988 0.9609
6.0568 -7.5160 -2.4993 0.9609
6.3225 -7.2966 -2.4998 0.9609
6.5803 -7.0677 -2.5003 0.9609
6.8298 -6.8298 -2.5008 0.9609
7.0707 -6.5830 -2.5014 0.9609
7.7387 -5.7931 -2.5029 0.9608
8.1356 -5.2284 -2.5039 0.9608
8.3188 -4.9357 -2.5045 0.9608
8.6532 -4.3315 -2.5055 0.9608
8.8040 -4.0207 -2.5060 0.9608
8.9437 -3.7046 -2.5065 0.9608
9.0720 -3.3837 -2.5070 0.9608
9.1887 -3.0583 -2.5074 0.9608
9.3870 -2.3959 -2.5084 0.9608
9.5374 -1.7207 -2.5093 0.9607
9.6392 -1.0363 -2.5101 0.9607
-8.8036 -0.0000 -2.4922 0.9641
-8.7095 -1.2522 -2.4910 0.9641
-8.6583 -1.5621 -2.4907 0.9641
-8.5229 -2.1753 -2.4901 0.9641
-8.4390 -2.4779 -2.4899 0.9641
-8.1236 -3.3649 -2.4892 0.9641
-7.8618 -3.9353 -2.4889 0.9641
-7.3948 -4.7524 -2.4884 0.9641
-7.2202 -5.0130 -2.4883 0.9641
-7.0364 -5.2674 -2.4882 0.9641
-6.8437 -5.5150 -2.4882 0.9641
-6.6423 -5.7556 -2.4881 0.9641
-5.9888 -6.4325 -2.4880 0.9641
-5.5148 -6.8434 -2.4881 0.9641
-5.0127 -7.2197 -2.4882 0.9641
-4.4852 -7.5594 -2.4883 0.9641
-4.2127 -7.7150 -2.4885 0.9641
-2.7768 -8.3431 -2.4892 0.9641
-2.4775 -8.4375 -2.4894 0.9641
-2.1749 -8.5214 -2.4897 0.9641
-1.8696 -8.5944 -2.4899 0.9641
-0.9405 -8.7477 -2.4907 0.9641
-0.6277 -8.7768 -2.4910 0.9641
0.0000 -8.8014 -2.4916 0.9641
0.3142 -8.7969 -2.4919 0.9641
1.2533 -8.7166 -2.4930 0.9641
2.1789 -8.5367 -2.4941 0.9640
2.4826 -8.4548 -2.4945 0.9640
2.7832 -8.3622 -2.4950 0.9640
3.3738 -8.1451 -2.4958 0.9640
3.9477 -7.8865 -2.4967 0.9640
4.5019 -7.5875 -2.4976 0.9640
6.0186 -6.4644 -2.5004 0.9639
6.4669 -6.0209 -2.5014 0.9639
6.6789 -5.7873 -2.5018 0.9639
7.2634 -5.0431 -2.5033 0.9639
7.4402 -4.7815 -2.5037 0.9639
7.6076 -4.5138 -2.5042 0.9639
7.7652 -4.2402 -2.5047 0.9639
8.0509 -3.6767 -2.5056 0.9639
8.1785 -3.3876 -2.5060 0.9639
8.2956 -3.0941 -2.5065 0.9639
8.6575 -1.8833 -2.5082 0.9638
8.7726 -1.2613 -2.5090 0.9638
8.8429 -0.6325 -2.5098 0.9638
8.8611 -0.3165 -2.5101 0.9638
-8.0990 -0.2893 -2.4927 0.9667
-8.0825 -0.5781 -2.4924 0.9667
-8.0558 -0.8661 -2.4921 0.9667
-7.9717 -1.4383 -2.4915 0.9667
-7.8472 -2.0029 -2.4910 0.9667
-7.5862 -2.8295 -2.4904 0.9667
-7.4798 -3.0982 -2.4902 0.9667
-7.3640 -3.3630 -2.4900 0.9667
-7.2388 -3.6235 -2.4899 0.9667
-6.9611 -4.1302 -2.4896 0.9667
-6.6481 -4.6159 -2.4894 0.9667
-6.4789 -4.8501 -2.4893 0.9667
-5.2995 -6.1160 -2.4891 0.9667
-5.0779 -6.3013 -2.4891 0.9667
-4.3755 -6.8084 -2.4893 0.9667
-3.8789 -7.1038 -2.4895 0.9667
-3.6231 -7.2380 -2.4896 0.9667
-3.3626 -7.3631 -2.4897 0.9667
-2.8291 -7.5852 -2.4900 0.9667
-2.5568 -7.6818 -2.4902 0.9667
-2.0025 -7.8459 -2.4906 0.9667
-0.5779 -8.0807 -2.4918 0.9667
0.0000 -8.1032 -2.4924 0.9667
0.2893 -8.0990 -2.4927 0.9667
0.8665 -8.0598 -2.4933 0.9666
1.4397 -7.9797 -2.4940 0.9666
2.2854 -7.7834 -2.4951 0.9666
3.3720 -7.3836 -2.4967 0.9666
3.8914 -7.1266 -2.4975 0.9666
4.8693 -6.5046 -2.4992 0.9666
5.0993 -6.3278 -2.4996 0.9666
5.3228 -6.1428 -2.5000 0.9666
5.7495 -5.7495 -2.5009 0.9665
5.9521 -5.5416 -2.5013 0.9665
6.5137 -4.8761 -2.5027 0.9665
7.0013 -4.1541 -2.5040 0.9665
7.4090 -3.3836 -2.5052 0.9665
7.5263 -3.1175 -2.5057 0.9665
7.6340 -2.8473 -2.5061 0.9665
8.0722 -1.1606 -2.5084 0.9664
8.1535 -0.2912 -2.5094 0.9664
-7.4960 -0.2677 -2.4933 0.9689
-7.4808 -0.5350 -2.4930 0.9689
-7.4562 -0.8016 -2.4927 0.9689
-7.1114 -2.3669 -2.4914 0.9689
-7.0219 -2.6190 -2.4912 0.9689
-6.9235 -2.8678 -2.4910 0.9689
-6.8163 -3.1129 -2.4909 0.9689
-6.7004 -3.3540 -2.4907 0.9689
-6.5761 -3.5908 -2.4906 0.9689
-6.4434 -3.8231 -2.4905 0.9689
-6.3026 -4.0504 -2.4903 0.9689
-6.1538 -4.2727 -2.4903 0.9689
-5.8330 -4.7005 -2.4901 0.9689
-5.6614 -4.9056 -2.4901 0.9689
-4.9055 -5.6612 -2.4900 0.9689
-4.4892 -5.9969 -2.4901 0.9689
-3.8228 -6.4429 -2.4903 0.9689
-2.8675 -6.9227 -2.4907 0.9689
-2.1114 -7.1909 -2.4912 0.9689
-1.5933 -7.3244 -2.4916 0.9689
-0.8015 -7.4547 -2.4923 0.9689
-0.5349 -7.4793 -2.4925 0.9689
0.0000 -7.5000 -2.4930 0.9689
0.2677 -7.4961 -2.4933 0.9689
0.5352 -7.4826 -2.4936 0.9689
1.0679 -7.4272 -2.4942 0.9689
1.3324 -7.3853 -2.4945 0.9689
1.8564 -7.2733 -2.4952 0.9689
2.1151 -7.2034 -2.4956 0.9688
2.3712 -7.1244 -2.4959 0.9688
2.6244 -7.0362 -2.4963 0.9688
3.1206 -6.8331 -2.4970 0.9688
3.3630 -6.7184 -2.4974 0.9688
3.6012 -6.5951 -2.4978 0.9688
3.8349 -6.4633 -2.4981 0.9688
4.2875 -6.1752 -2.4989 0.9688
4.7186 -5.8555 -2.4997 0.9688
4.9254 -5.6842 -2.5001 0.9688
5.1260 -5.5057 -2.5005 0.9688
6.4779 -3.8435 -2.5038 0.9687
6.6120 -3.6104 -2.5042 0.9687
6.7377 -3.3726 -2.5046 0.9687
6.8548 -3.1305 -2.5049 0.9687
7.1534 -2.3809 -2.5061 0.9687
7.2349 -2.1244 -2.5065 0.9687
7.4237 -1.3394 -2.5075 0.9687
7.4678 -1.0737 -2.5079 0.9687
7.5273 -0.5384 -2.5085 0.9687
7.5427 -0.2694 -2.5088 0.9687
-6.9553 -0.4975 -2.4936 0.9708
-6.9007 -0.9922 -2.4931 0.9708
-6.8602 -1.2377 -2.4929 0.9708
-6.8111 -1.4817 -2.4927 0.9708
-6.7533 -1.7237 -2.4925 0.9708
-6.6870 -1.9635 -2.4923 0.9708
-6.6121 -2.2007 -2.4921 0.9708
-6.5289 -2.4352 -2.4919 0.9708
-6.3378 -2.8944 -2.4916 0.9708
-6.1145 -3.3388 -2.4913 0.9708
-5.9912 -3.5547 -2.4912 0.9708
-5.8602 -3.7662 -2.4911 0.9708
-5.7219 -3.9728 -2.4910 0.9708
-5.4236 -4.3706 -2.4909 0.9708
-5.2641 -4.5613 -2.4909 0.9708
-4.9251 -4.9251 -2.4908 0.9708
-4.5612 -5.2640 -2.4908 0.9708
-4.3705 -5.4234 -2.4908 0.9708
-3.9726 -5.7216 -2.4909 0.9708
-3.5545 -5.9907 -2.4910 0.9708
-3.3385 -6.1140 -2.4911 0.9708
-3.1183 -6.2295 -2.4912 0.9708
-2.8941 -6.3371 -2.4913 0.9708
-2.6662 -6.4367 -2.4915 0.9708
-2.4349 -6.5281 -2.4916 0.9708
-2.2004 -6.6113 -2.4918 0.9708
-1.7234 -6.7523 -2.4921 0.9708
-0.9920 -6.8995 -2.4927 0.9708
-0.7452 -6.9311 -2.4929 0.9708
-0.4974 -6.9539 -2.4931 0.9708
-0.2489 -6.9679 -2.4934 0.9708
0.2489 -6.9694 -2.4939 0.9708
0.7456 -6.9354 -2.4944 0.9708
0.9928 -6.9052 -2.4947 0.9708
1.4832 -6.8184 -2.4953 0.9708
1.7259 -6.7619 -2.4956 0.9708
1.9664 -6.6969 -2.4960 0.9708
2.2044 -6.6233 -2.4963 0.9708
2.4398 -6.5413 -2.4966 0.9708
3.5649 -6.0084 -2.4984 0.9708
4.5785 -5.2838 -2.5002 0.9707
4.7649 -5.1178 -2.5006 0.9707
4.9452 -4.9452 -2.5010 0.9707
5.2870 -4.5812 -2.5017 0.9707
5.4480 -4.3903 -2.5021 0.9707
5.6021 -4.1937 -2.5025 0.9707
6.2623 -3.1347 -2.5043 0.9707
6.3711 -2.9096 -2.5047 0.9707
6.4718 -2.6807 -2.5050 0.9707
6.5643 -2.4483 -2.5054 0.9707
6.6484 -2.2128 -2.5057 0.9707
6.7241 -1.9744 -2.5061 0.9707
6.7912 -1.7333 -2.5064 0.9707
6.8496 -1.4900 -2.5068 0.9707
6.8993 -1.2448 -2.5071 0.9707
6.9402 -0.9979 -2.5074 0.9707
6.9723 -0.7496 -2.5077 0.9706
6.9954 -0.5003 -2.5080 0.9706
7.0096 -0.2503 -2.5083 0.9706
-6.5097 -0.0000 -2.4946 0.9725
-6.4032 -1.1553 -2.4934 0.9725
-6.3574 -1.3830 -2.4932 0.9725
-6.2416 -1.8327 -2.4929 0.9725
-6.1718 -2.0542 -2.4927 0.9725
-6.0087 -2.4889 -2.4924 0.9725
-5.7074 -3.1165 -2.4920 0.9725
-5.5923 -3.3181 -2.4919 0.9725
-5.3410 -3.7083 -2.4917 0.9725
-4.9136 -4.2577 -2.4916 0.9725
-4.7585 -4.4303 -2.4915 0.9725
-4.4302 -4.7584 -2.4915 0.9725
-4.2576 -4.9135 -2.4915 0.9725
-4.0795 -5.0624 -2.4915 0.9725
-3.8963 -5.2049 -2.4916 0.9725
-3.7081 -5.3407 -2.4916 0.9725
-3.3178 -5.5919 -2.4917 0.9725
-3.1162 -5.7070 -2.4918 0.9725
-2.7014 -5.9152 -2.4920 0.9725
-2.4886 -6.0081 -2.4921 0.9725
-2.2727 -6.0934 -2.4923 0.9725
-2.0539 -6.1710 -2.4924 0.9725
-1.6086 -6.3026 -2.4927 0.9725
-1.3828 -6.3565 -2.4929 0.9725
-1.1551 -6.4022 -2.4931 0.9725
-0.9259 -6.4399 -2.4933 0.9725
-0.6955 -6.4694 -2.4935 0.9725
-0.2323 -6.5036 -2.4939 0.9725
0.0000 -6.5084 -2.4941 0.9725
0.2323 -6.5049 -2.4944 0.9725
0.4644 -6.4931 -2.4946 0.9725
0.6959 -6.4731 -2.4949 0.9725
1.1562 -6.4083 -2.4954 0.9725
1.3843 -6.3637 -2.4957 0.9725
1.6108 -6.3110 -2.4960 0.9725
1.8352 -6.2502 -2.4963 0.9725
2.0574 -6.1815 -2.4966 0.9725
2.2770 -6.1049 -2.4969 0.9725
2.4938 -6.0205 -2.4973 0.9725
2.7074 -5.9284 -2.4976 0.9725
3.3269 -5.6073 -2.4986 0.9725
4.4465 -4.7759 -2.5006 0.9724
4.6148 -4.6148 -2.5010 0.9724
5.0838 -4.0968 -2.5021 0.9724
5.6182 -3.3334 -2.5034 0.9724
5.7344 -3.1312 -2.5038 0.9724
6.0387 -2.5013 -2.5048 0.9724
6.3909 -1.3903 -2.5064 0.9724
6.4372 -1.1614 -2.5067 0.9724
-6.0918 -0.2176 -2.4948 0.9740
-6.0320 -0.8673 -2.4941 0.9740
-5.9539 -1.2952 -2.4938 0.9740
-5.9034 -1.5068 -2.4936 0.9740
-5.8455 -1.7164 -2.4934 0.9740
-5.6275 -2.3310 -2.4929 0.9740
-5.4463 -2.7262 -2.4927 0.9740
-5.3453 -2.9188 -2.4926 0.9740
-5.2375 -3.1075 -2.4925 0.9740
-5.1231 -3.2924 -2.4924 0.9740
-5.0021 -3.4731 -2.4923 0.9740
-4.7414 -3.8209 -2.4922 0.9740
-4.4566 -4.1493 -2.4921 0.9740
-3.9875 -4.6019 -2.4921 0.9740
-3.8208 -4.7413 -2.4921 0.9740
-3.6491 -4.8747 -2.4922 0.9740
-3.4729 -5.0019 -2.4922 0.9740
-2.9185 -5.3449 -2.4924 0.9740
-2.7260 -5.4459 -2.4925 0.9740
-0.8671 -6.0311 -2.4938 0.9740
-0.6514 -6.0587 -2.4940 0.9740
0.2176 -6.0918 -2.4948 0.9740
0.4349 -6.0808 -2.4951 0.9740
0.6517 -6.0620 -2.4953 0.9740
1.2964 -5.9594 -2.4961 0.9740
1.5084 -5.9100 -2.4964 0.9740
2.1323 -5.7168 -2.4972 0.9740
2.5353 -5.5515 -2.4978 0.9740
3.3012 -5.1368 -2.4991 0.9740
3.6602 -4.8894 -2.4997 0.9739
3.8329 -4.7563 -2.5000 0.9739
4.0007 -4.6171 -2.5004 0.9739
4.1635 -4.4719 -2.5007 0.9739
4.3210 -4.3210 -2.5010 0.9739
4.4731 -4.1646 -2.5013 0.9739
4.7600 -3.8359 -2.5020 0.9739
4.8946 -3.6640 -2.5023 0.9739
5.1448 -3.3064 -2.5030 0.9739
5.2602 -3.1210 -2.5033 0.9739
5.3690 -2.9317 -2.5036 0.9739
5.5658 -2.5418 -2.5043 0.9739
5.6537 -2.3419 -2.5046 0.9739
5.7344 -2.1388 -2.5049 0.9739
5.9323 -1.5141 -2.5058 0.9739
5.9833 -1.3016 -2.5061 0.9739
6.1102 -0.4370 -2.5072 0.9739
6.1226 -0.2187 -2.5074 0.9739
-5.7217 -0.2044 -2.4952 0.9753
-5.7103 -0.4084 -2.4950 0.9753
-5.6326 -1.0162 -2.4944 0.9753
-5.5923 -1.2165 -2.4942 0.9753
-5.5449 -1.4153 -2.4940 0.9753
-5.4905 -1.6122 -2.4939 0.9753
-5.4292 -1.8070 -2.4937 0.9753
-5.3609 -1.9995 -2.4936 0.9753
-5.2041 -2.3766 -2.4933 0.9753
-4.8121 -3.0926 -2.4929 0.9753
-4.6985 -3.2623 -2.4929 0.9754
-4.5790 -3.4278 -2.4928 0.9754
-4.4536 -3.5890 -2.4928 0.9754
-4.3226 -3.7456 -2.4927 0.9754
-4.0444 -4.0444 -2.4927 0.9754
-3.8974 -4.1861 -2.4927 0.9754
-3.4277 -4.5788 -2.4927 0.9754
-2.5605 -5.1153 -2.4930 0.9753
-2.1893 -5.2854 -2.4932 0.9753
-1.8068 -5.4286 -2.4935 0.9753
-1.4151 -5.5443 -2.4937 0.9753
-1.2164 -5.5916 -2.4939 0.9753
-1.0161 -5.6318 -2.4941 0.9753
-0.8145 -5.6649 -2.4942 0.9753
-0.6118 -5.6907 -2.4944 0.9753
-0.4083 -5.7094 -2.4946 0.9753
-0.2043 -5.7208 -2.4948 0.9753
0.4085 -5.7113 -2.4954 0.9753
0.8150 -5.6687 -2.4959 0.9753
1.4167 -5.5507 -2.4967 0.9753
2.7476 -5.0319 -2.4986 0.9753
3.1003 -4.8242 -2.4992 0.9753
3.5995 -4.4668 -2.5001 0.9753
3.7571 -4.3360 -2.5004 0.9753
4.0579 -4.0579 -2.5010 0.9753
4.2007 -3.9110 -2.5013 0.9753
4.5964 -3.4408 -2.5023 0.9753
4.7168 -3.2750 -2.5026 0.9753
5.1374 -2.5716 -2.5038 0.9752
5.2265 -2.3869 -2.5041 0.9752
5.3847 -2.0084 -2.5047 0.9752
5.4536 -1.8151 -2.5050 0.9752
5.5155 -1.6195 -2.5052 0.9752
5.6923 -0.8184 -2.5063 0.9752
5.7184 -0.6148 -2.5066 0.9752
5.7488 -0.2053 -2.5070 0.9752
-5.3918 -0.0000 -2.4958 0.9765
-5.3879 -0.1924 -2.4956 0.9765
-5.3596 -0.5762 -2.4952 0.9765
-5.3352 -0.7671 -2.4950 0.9765
-5.2216 -1.3327 -2.4945 0.9765
-5.0483 -1.8829 -2.4940 0.9765
-4.9776 -2.0618 -2.4939 0.9765
-4.6328 -2.7488 -2.4935 0.9765
-4.5316 -2.9123 -2.4934 0.9765
-3.9422 -3.6703 -2.4932 0.9765
-3.8086 -3.8086 -2.4932 0.9765
-3.5272 -4.0706 -2.4932 0.9765
-3.3797 -4.1940 -2.4932 0.9765
-3.2279 -4.3120 -2.4932 0.9765
-3.0720 -4.4245 -2.4933 0.9765
-2.4113 -4.8171 -2.4935 0.9765
-2.2379 -4.9003 -2.4936 0.9765
-1.8828 -5.0479 -2.4938 0.9765
-1.7015 -5.1121 -2.4939 0.9765
-1.3326 -5.2210 -2.4942 0.9765
-0.7670 -5.3345 -2.4946 0.9765
-0.1924 -5.3871 -2.4952 0.9765
0.0000 -5.3909 -2.4954 0.9765
0.3846 -5.3781 -2.4958 0.9765
0.7675 -5.3379 -2.4962 0.9765
1.1465 -5.2705 -2.4967 0.9765
1.3340 -5.2267 -2.4969 0.9765
1.5199 -5.1763 -2.4972 0.9765
1.7039 -5.1193 -2.4974 0.9765
2.0651 -4.9857 -2.4980 0.9765
2.4161 -4.8267 -2.4985 0.9765
2.7549 -4.6431 -2.4990 0.9765
3.0798 -4.4357 -2.4996 0.9765
3.3892 -4.2057 -2.5002 0.9765
3.6814 -3.9541 -2.5008 0.9765
3.8206 -3.8206 -2.5011 0.9765
4.2086 -3.3915 -2.5019 0.9765
4.3275 -3.2395 -2.5022 0.9765
4.4409 -3.0834 -2.5025 0.9765
4.5486 -2.9232 -2.5028 0.9764
4.7466 -2.5919 -2.5034 0.9764
4.8367 -2.4211 -2.5036 0.9764
4.9982 -2.0703 -2.5042 0.9764
5.2891 -1.1506 -2.5055 0.9764
5.3274 -0.9612 -2.5058 0.9764
5.3588 -0.7705 -2.5060 0.9764
5.4011 -0.3863 -2.5065 0.9764
5.4119 -0.1933 -2.5067 0.9764
-5.0749 -0.3630 -2.4957 0.9776
-5.0583 -0.5438 -2.4955 0.9776
-5.0353 -0.7240 -2.4953 0.9776
-4.9702 -1.0812 -2.4950 0.9776
-4.8798 -1.4328 -2.4947 0.9776
-4.8253 -1.6060 -2.4946 0.9776
-4.7647 -1.7771 -2.4944 0.9776
-4.6980 -1.9460 -2.4943 0.9776
-4.6253 -2.1123 -2.4942 0.9776
-4.5468 -2.2760 -2.4941 0.9776
-4.3725 -2.5944 -2.4940 0.9776
-4.1761 -2.8995 -2.4938 0.9776
-3.8420 -3.3291 -2.4937 0.9776
-3.3291 -3.8420 -2.4936 0.9776
-3.1898 -3.9584 -2.4937 0.9776
-3.0466 -4.0697 -2.4937 0.9776
-2.4366 -4.4622 -2.4939 0.9776
-1.9458 -4.6976 -2.4941 0.9776
-1.6059 -4.8248 -2.4943 0.9776
-1.2577 -4.9276 -2.4946 0.9776
-1.0811 -4.9696 -2.4947 0.9776
-0.5438 -5.0576 -2.4952 0.9776
-0.3629 -5.0742 -2.4953 0.9776
-0.1816 -5.0842 -2.4955 0.9776
0.0000 -5.0878 -2.4957 0.9776
0.1816 -5.0850 -2.4959 0.9776
0.3630 -5.0757 -2.4961 0.9776
0.5440 -5.0599 -2.4963 0.9776
0.7243 -5.0377 -2.4965 0.9776
1.9489 -4.7051 -2.4981 0.9776
2.2801 -4.5550 -2.4987 0.9776
2.9064 -4.1860 -2.4997 0.9776
3.1983 -3.9688 -2.5002 0.9775
3.4740 -3.7314 -2.5008 0.9775
3.8542 -3.3397 -2.5016 0.9775
4.3884 -2.6037 -2.5030 0.9775
4.5639 -2.2845 -2.5035 0.9775
4.6430 -2.1204 -2.5038 0.9775
4.8446 -1.6124 -2.5045 0.9775
4.9906 -1.0856 -2.5053 0.9775
5.0267 -0.9069 -2.5055 0.9775
5.0795 -0.5461 -2.5060 0.9775
5.1064 -0.1824 -2.5064 0.9775
-4.8120 -0.0000 -2.4964 0.9785
-4.7834 -0.5143 -2.4958 0.9786
-4.7617 -0.6846 -2.4957 0.9786
-4.7001 -1.0224 -2.4954 0.9786
-4.5632 -1.5188 -2.4949 0.9786
-4.5058 -1.6806 -2.4948 0.9786
-4.3741 -1.9976 -2.4946 0.9786
-4.2998 -2.1523 -2.4945 0.9786
-4.2201 -2.3044 -2.4944 0.9786
-4.1350 -2.4534 -2.4944 0.9786
-4.0447 -2.5994 -2.4943 0.9786
-3.9493 -2.7420 -2.4942 0.9786
-3.7435 -3.0167 -2.4941 0.9786
-3.3995 -3.3995 -2.4941 0.9786
-3.1483 -3.6333 -2.4941 0.9786
-2.7419 -3.9492 -2.4941 0.9786
-2.5993 -4.0446 -2.4942 0.9786
-2.1522 -4.2996 -2.4944 0.9786
-1.9974 -4.3738 -2.4944 0.9786
-1.6804 -4.5054 -2.4946 0.9786
-1.5186 -4.5627 -2.4947 0.9786
-1.0223 -4.6996 -2.4951 0.9786
-0.8540 -4.7334 -2.4952 0.9786
-0.5142 -4.7828 -2.4955 0.9786
-0.1717 -4.8079 -2.4958 0.9786
0.0000 -4.8113 -2.4960 0.9786
0.8546 -4.7367 -2.4970 0.9785
1.0232 -4.7036 -2.4972 0.9785
1.3564 -4.6194 -2.4976 0.9785
1.5205 -4.5685 -2.4979 0.9785
1.8429 -4.4492 -2.4983 0.9785
2.0007 -4.3810 -2.4986 0.9785
2.1560 -4.3072 -2.4988 0.9785
2.3086 -4.2279 -2.4990 0.9785
2.4583 -4.1432 -2.4993 0.9785
2.7482 -3.9581 -2.4998 0.9785
2.8880 -3.8579 -2.5000 0.9785
3.0241 -3.7527 -2.5003 0.9785
3.1565 -3.6428 -2.5006 0.9785
3.2848 -3.5282 -2.5008 0.9785
3.5289 -3.2855 -2.5013 0.9785
3.6443 -3.1578 -2.5016 0.9785
3.8611 -2.8904 -2.5021 0.9785
4.0583 -2.6081 -2.5026 0.9785
4.3151 -2.1600 -2.5034 0.9785
4.3899 -2.0048 -2.5036 0.9785
4.6784 -1.1941 -2.5048 0.9785
4.8023 -0.5163 -2.5057 0.9785
4.8181 -0.3446 -2.5059 0.9785
4.8277 -0.1724 -2.5061 0.9785
-4.5584 0.0000 -2.4966 0.9794
-4.5551 -0.1627 -2.4965 0.9794
-4.5313 -0.4872 -2.4961 0.9794
-4.5107 -0.6485 -2.4960 0.9794
-4.4845 -0.8091 -2.4958 0.9794
-4.3716 -1.2836 -2.4954 0.9794
-4.3227 -1.4388 -2.4953 0.9794
-4.2685 -1.5921 -2.4952 0.9794
-4.2087 -1.7433 -2.4951 0.9794
-4.1437 -1.8923 -2.4950 0.9794
-4.0733 -2.0390 -2.4949 0.9794
-3.9978 -2.1830 -2.4948 0.9794
-3.7413 -2.5976 -2.4946 0.9794
-3.5463 -2.8578 -2.4945 0.9794
-3.4420 -2.9825 -2.4945 0.9794
-3.3333 -3.1034 -2.4945 0.9794
-3.2204 -3.2204 -2.4944 0.9794
-3.1034 -3.3333 -2.4944 0.9794
-2.9825 -3.4420 -2.4944 0.9794
-2.7294 -3.6460 -2.4945 0.9794
-2.5975 -3.7412 -2.4945 0.9794
-2.4624 -3.8316 -2.4946 0.9794
-2.3241 -3.9171 -2.4946 0.9794
-2.1829 -3.9976 -2.4947 0.9794
-1.8922 -4.1434 -2.4948 0.9794
-1.7432 -4.2084 -2.4949 0.9794
-1.4386 -4.3224 -2.4951 0.9794
-1.2835 -4.3712 -2.4952 0.9794
-1.1267 -4.4144 -2.4953 0.9794
-0.9685 -4.4520 -2.4954 0.9794
-0.6485 -4.5102 -2.4957 0.9794
-0.4871 -4.5308 -2.4958 0.9794
0.1627 -4.5552 -2.4965 0.9794
0.6488 -4.5127 -2.4970 0.9794
1.5940 -4.2737 -2.4983 0.9794
1.8952 -4.1499 -2.4987 0.9794
2.0423 -4.0800 -2.4989 0.9794
2.3286 -3.9246 -2.4994 0.9794
2.4674 -3.8394 -2.4996 0.9794
2.7355 -3.6543 -2.5001 0.9794
3.1114 -3.3419 -2.5008 0.9794
3.2290 -3.2290 -2.5011 0.9794
3.3425 -3.1120 -2.5013 0.9794
3.4518 -2.9910 -2.5016 0.9794
3.8439 -2.4703 -2.5026 0.9794
4.0111 -2.1902 -2.5031 0.9794
4.0871 -2.0458 -2.5033 0.9794
4.1579 -1.8988 -2.5035 0.9794
4.3382 -1.4439 -2.5042 0.9794
4.3874 -1.2883 -2.5044 0.9794
4.4689 -0.9721 -2.5049 0.9794
4.5011 -0.8121 -2.5051 0.9794
4.5483 -0.4890 -2.5055 0.9794
4.5723 -0.1633 -2.5059 0.9794
-4.3217 -0.1544 -2.4967 0.9802
-4.2796 -0.6153 -2.4962 0.9802
-4.1886 -1.0691 -2.4958 0.9802
-4.1013 -1.3650 -2.4956 0.9802
-4.0498 -1.5105 -2.4955 0.9802
-3.9931 -1.6540 -2.4954 0.9802
-3.7931 -2.0712 -2.4951 0.9802
-3.7166 -2.2052 -2.4951 0.9802
-3.3647 -2.7114 -2.4949 0.9802
-3.2657 -2.8298 -2.4948 0.9802
-3.0555 -3.0555 -2.4948 0.9802
-2.7114 -3.3646 -2.4948 0.9802
-2.5896 -3.4593 -2.4948 0.9802
-2.3363 -3.6353 -2.4949 0.9802
-1.7953 -3.9312 -2.4951 0.9802
-1.6539 -3.9929 -2.4952 0.9802
-1.5104 -4.0495 -2.4953 0.9802
-1.3649 -4.1010 -2.4954 0.9802
-1.2177 -4.1472 -2.4955 0.9802
-1.0690 -4.1882 -2.4956 0.9802
-0.6152 -4.2791 -2.4960 0.9802
-0.3084 -4.3126 -2.4962 0.9802
-0.1543 -4.3211 -2.4964 0.9802
0.3085 -4.3137 -2.4969 0.9802
0.6156 -4.2813 -2.4972 0.9802
0.7680 -4.2569 -2.4974 0.9802
1.3665 -4.1056 -2.4982 0.9802
1.6562 -3.9983 -2.4986 0.9802
1.7980 -3.9370 -2.4988 0.9802
1.9375 -3.8706 -2.4991 0.9802
2.0746 -3.7994 -2.4993 0.9802
2.5951 -3.4667 -2.5002 0.9802
2.8364 -3.2733 -2.5006 0.9802
3.0632 -3.0632 -2.5011 0.9802
3.1709 -2.9522 -2.5013 0.9802
3.2746 -2.8374 -2.5016 0.9802
3.4693 -2.5971 -2.5020 0.9802
3.5601 -2.4718 -2.5023 0.9802
3.6464 -2.3434 -2.5025 0.9802
3.9442 -1.8013 -2.5034 0.9802
4.0063 -1.6595 -2.5036 0.9802
4.0634 -1.5156 -2.5039 0.9802
4.1152 -1.3697 -2.5041 0.9802
4.1618 -1.2220 -2.5043 0.9802
4.2031 -1.0728 -2.5045 0.9802
4.2948 -0.6175 -2.5051 0.9802
4.3371 -0.1549 -2.5056 0.9802
