ply
format ascii 1.0
element vertex 1246
property float32 x
property float32 y
property float32 z
property float32 I
end_header
-48.1746 -8.6917 8.6316 0.8197
-45.9442 -9.9946 8.2907 0.8262
-22.1497 -5.6534 4.0308 0.9113
-40.3500 -13.4298 7.4985 0.8414
-36.8865 -15.2789 7.0400 0.8503
-34.8134 -17.4263 6.8646 0.8537
-34.3866 -20.4025 7.0502 0.8501
-35.3854 -26.4892 7.7940 0.8357
-5.7451 -15.4033 2.8988 0.9354
-3.3977 -47.5067 8.3981 0.8241
0.0000 -42.2491 7.4497 0.8423
1.3991 -39.1744 6.9119 0.8528
11.1425 -43.6560 7.9445 0.8328
15.1563 -45.5374 8.4625 0.8229
11.9358 -26.1357 5.0663 0.8899
29.1171 -36.1321 8.1823 0.8282
38.0559 -14.1941 7.1618 0.8479
47.1639 -8.5093 8.4506 0.8231
16.9605 -1.2130 2.9982 0.9333
-48.1740 -8.6916 7.4991 0.8203
-46.5288 -10.1217 7.2946 0.8247
-22.1314 -5.6487 3.4991 0.9117
-40.1596 -13.3664 6.4840 0.8426
-38.4751 -14.3505 6.2908 0.8469
-35.3810 -16.1580 5.9586 0.8544
-34.3859 -20.4021 6.1252 0.8506
-33.4953 -23.2562 6.2468 0.8479
-38.1278 -30.7254 7.5015 0.8202
-5.7465 -15.4071 2.5191 0.9356
0.0000 -42.2505 6.4725 0.8428
1.3992 -39.1757 6.0053 0.8533
2.7429 -38.3500 5.8900 0.8559
5.8305 -40.5518 6.2762 0.8472
7.4112 -41.0777 6.3945 0.8446
13.1655 -44.8376 7.1589 0.8277
38.0816 -14.2037 6.2265 0.8483
33.1126 -1.1826 5.0759 0.8745
-48.1734 -8.6914 6.3745 0.8208
-42.1370 -12.3726 5.7188 0.8377
-37.8212 -15.6661 5.3309 0.8478
-39.4120 -17.9989 5.6421 0.8396
-37.5914 -20.5265 5.5774 0.8413
-38.2693 -22.7062 5.7946 0.8357
-37.6200 -30.3161 6.2916 0.8229
-5.7480 -15.4109 2.1419 0.9358
-3.3977 -47.5058 6.2020 0.8252
4.2155 -39.2101 5.1354 0.8529
13.1654 -44.8371 6.0852 0.8282
29.0117 -36.0013 6.0210 0.8299
38.0916 -14.2074 5.2941 0.8487
33.2838 -1.1887 4.3370 0.8743
-48.1728 -8.6913 5.2564 0.8212
-22.1374 -5.6502 2.4534 0.9122
-41.1733 -13.7038 4.6597 0.8398
-38.4743 -14.3502 4.4095 0.8477
-37.8202 -15.6657 4.3958 0.8482
-40.8300 -18.6465 4.8200 0.8348
-33.8022 -21.7234 4.3147 0.8507
-35.7078 -24.7924 4.6680 0.8396
-37.6085 -28.1534 5.0447 0.8278
-5.7494 -15.4146 1.7666 0.9360
-3.3977 -47.5054 5.1143 0.8256
-1.5814 -44.2791 4.7578 0.8367
0.0000 -42.2517 4.5371 0.8437
5.8303 -40.5510 4.3992 0.8481
7.4111 -41.0768 4.4821 0.8454
9.2569 -42.5530 4.6763 0.8393
15.1558 -45.5357 5.1534 0.8244
28.9622 -35.9399 4.9564 0.8305
38.1016 -14.2112 4.3667 0.8491
16.8909 -1.2081 1.8184 0.9341
-41.1723 -13.7034 3.6733 0.8401
-37.8192 -15.6652 3.4653 0.8485
-37.5978 -20.5299 3.6263 0.8420
-39.1630 -23.2365 3.8549 0.8329
-33.8018 -21.7231 3.4014 0.8510
-20.8632 -14.4856 2.1501 0.9031
-37.6082 -28.1531 3.9769 0.8281
-5.1514 -15.4776 1.3809 0.9366
-1.5815 -44.2806 3.7509 0.8371
2.7428 -38.3489 3.2546 0.8570
5.7853 -40.2377 3.4413 0.8494
9.1854 -42.2243 3.6580 0.8407
15.1555 -45.5352 4.0626 0.8248
28.9401 -35.9124 3.9043 0.8310
38.1116 -14.2149 3.4434 0.8493
47.1683 -8.5101 4.0574 0.8250
33.2849 -1.1888 2.8195 0.8749
-41.1712 -13.7031 2.6907 0.8404
-37.8181 -15.6648 2.5383 0.8487
-39.1166 -23.2089 2.8205 0.8334
-35.7072 -24.7920 2.6956 0.8401
-37.6078 -28.1529 2.9131 0.8284
-5.7522 -15.4222 1.0207 0.9362
-1.5816 -44.2822 2.7477 0.8373
0.0000 -42.2510 2.6200 0.8442
1.3994 -39.1805 2.4311 0.8546
2.7428 -38.3485 2.3841 0.8572
5.8302 -40.5502 2.5404 0.8486
3.5821 -19.8540 1.2510 0.9223
4.1630 -19.1368 1.2144 0.9245
4.9251 -19.2963 1.2349 0.9233
15.1554 -45.5346 2.9759 0.8250
28.9180 -35.8850 2.8579 0.8314
48.2357 -8.7027 3.0394 0.8217
38.2979 -4.1175 2.3886 0.8570
-47.1503 -0.0000 1.8592 0.8280
-48.1711 -8.6910 1.9301 0.8221
-22.1462 -5.6525 0.9012 0.9126
-29.3203 -10.9359 1.2339 0.8823
-37.8171 -15.6644 1.6140 0.8489
-37.5851 -20.5230 1.6886 0.8425
-39.1839 -23.2489 1.7966 0.8333
-35.7069 -24.7918 1.7141 0.8403
-37.6075 -28.1527 1.8524 0.8286
-5.7536 -15.4259 0.6492 0.9362
-11.4321 -44.7908 1.8228 0.8311
-3.4439 -48.1516 1.9035 0.8243
0.0000 -42.2506 1.6660 0.8444
1.3994 -39.1817 1.5460 0.8547
4.0590 -22.4977 0.9014 0.9125
9.2566 -42.5517 1.7171 0.8400
5.5005 -21.5506 0.8770 0.9148
15.1552 -45.5341 1.8923 0.8252
13.2016 -35.3948 1.4896 0.8597
47.1705 -8.5105 1.8900 0.8254
33.2860 -1.1888 1.3133 0.8752
-22.1491 -5.6532 0.3861 0.9126
-41.1692 -13.7024 0.7329 0.8406
-38.4727 -14.3496 0.6936 0.8485
-37.8161 -15.6640 0.6914 0.8490
-40.8155 -18.6398 0.7579 0.8357
-35.7066 -24.7916 0.7343 0.8404
-37.6072 -28.1524 0.7935 0.8287
0.0000 -42.2502 0.7137 0.8445
2.7896 -19.4023 0.3311 0.9246
11.1417 -43.6526 0.7610 0.8351
13.0237 -44.3545 0.7809 0.8312
15.1550 -45.5335 0.8106 0.8253
47.1715 -8.5107 0.8097 0.8255
38.2994 -4.1176 0.6507 0.8572
33.2866 -1.1888 0.5626 0.8752
-22.1521 -5.6540 -0.1287 0.9126
-41.1682 -13.7021 -0.2443 0.8407
-38.4723 -14.3495 -0.2312 0.8485
-37.8151 -15.6635 -0.2304 0.8490
-37.0382 -20.2244 -0.2376 0.8447
-32.5644 -19.3214 -0.2132 0.8595
-33.8001 -21.7220 -0.2262 0.8515
-37.6069 -28.1522 -0.2645 0.8287
-5.1359 -15.4310 -0.0916 0.9370
-5.1392 -47.8012 -0.2707 0.8251
-3.3317 -46.5835 -0.2629 0.8296
-1.5817 -44.2868 -0.2495 0.8376
0.0000 -42.2498 -0.2379 0.8445
2.7427 -38.3474 -0.2165 0.8575
4.2153 -39.2078 -0.2220 0.8541
4.3337 -19.9219 -0.1148 0.9217
11.1415 -43.6522 -0.2536 0.8351
13.2017 -35.3952 -0.2127 0.8598
42.2542 -6.0752 -0.2403 0.8430
38.3001 -4.1177 -0.2169 0.8572
-48.1693 -8.6907 -1.3782 0.8221
-37.8140 -15.6631 -1.1525 0.8489
-40.8578 -18.6591 -1.2648 0.8355
-37.0298 -20.2198 -1.1880 0.8447
-32.5936 -19.3387 -1.0672 0.8593
-35.7059 -24.7911 -1.2240 0.8403
-37.6066 -28.1519 -1.3228 0.8286
-3.3317 -46.5831 -1.3150 0.8295
-1.5818 -44.2883 -1.2479 0.8375
0.0000 -42.2494 -1.1897 0.8445
1.2935 -36.2174 -1.0205 0.8650
2.7427 -38.3471 -1.0825 0.8574
5.8300 -40.5485 -1.1535 0.8488
13.0234 -44.3535 -1.3016 0.8311
15.1546 -45.5325 -1.3512 0.8253
13.2018 -35.3954 -1.0637 0.8597
28.8305 -35.7764 -1.2938 0.8321
33.2877 -1.1889 -0.9379 0.8752
-29.5125 -0.0000 -1.4967 0.8885
-47.4146 -1.6934 -2.4061 0.8269
-33.8404 -3.6382 -1.7261 0.8726
-23.3657 -3.3595 -1.1972 0.9098
-46.8550 -10.1927 -2.4318 0.8253
-22.1579 -5.6555 -1.1598 0.9125
-46.1766 -13.5587 -2.4407 0.8247
-41.1661 -13.7014 -2.2003 0.8405
-37.6179 -14.0308 -2.0361 0.8515
-37.8130 -15.6627 -2.0756 0.8488
-34.8054 -17.4223 -1.9739 0.8557
-32.4172 -19.2341 -1.9116 0.8599
-37.6063 -28.1517 -2.3824 0.8285
-31.9809 -36.9079 -2.4767 0.8223
-29.2621 -39.0896 -2.4763 0.8224
-18.3662 -26.4524 -1.6332 0.8790
-13.3607 -26.6912 -1.5137 0.8873
-5.1282 -15.4078 -0.8235 0.9370
-8.4304 -28.7112 -1.5175 0.8871
-8.5682 -47.4906 -2.4473 0.8243
-3.4250 -47.8879 -2.4348 0.8251
0.0000 -42.1644 -2.1383 0.8446
5.8209 -40.4853 -2.0743 0.8489
4.3338 -19.9220 -1.0340 0.9216
11.0583 -29.6483 -1.6048 0.8810
17.8292 -43.0435 -2.3628 0.8298
15.9499 -31.8639 -1.8071 0.8670
22.0328 -40.3501 -2.3315 0.8318
21.0802 -35.5287 -2.0951 0.8475
26.1598 -37.6772 -2.3262 0.8322
28.2612 -35.0700 -2.2842 0.8349
30.0003 -34.6222 -2.3233 0.8324
32.6887 -35.1101 -2.4328 0.8252
37.9144 -30.5534 -2.4694 0.8228
40.9277 -26.3027 -2.4673 0.8230
41.8300 -24.8189 -2.4667 0.8230
42.6792 -23.3046 -2.4661 0.8230
42.1677 -17.4664 -2.3147 0.8329
36.9929 -13.7976 -2.0023 0.8537
37.6629 -12.5354 -2.0131 0.8530
43.7746 -12.8534 -2.3137 0.8330
44.2011 -11.2817 -2.3135 0.8330
44.5720 -9.6959 -2.3133 0.8330
44.8867 -8.0986 -2.3131 0.8330
38.3016 -4.1179 -1.9536 0.8570
-29.4577 -0.0000 -2.1599 0.8886
-32.3157 -2.3113 -2.3755 0.8781
-32.2104 -3.4630 -2.3753 0.8782
-23.3654 -3.3594 -1.7308 0.9097
-22.9281 -4.1367 -1.7083 0.9108
-29.9791 -9.9780 -2.3167 0.8810
-22.8637 -9.4705 -1.8145 0.9055
-29.2574 -14.6452 -2.3990 0.8770
-24.8300 -21.5154 -2.4090 0.8765
-24.0530 -22.3942 -2.4097 0.8765
-22.4026 -24.0621 -2.4106 0.8765
-21.5311 -24.8482 -2.4108 0.8765
-18.3666 -26.4530 -2.3613 0.8788
-16.6213 -25.8632 -2.2542 0.8840
-15.3332 -25.8427 -2.2033 0.8865
-11.6538 -28.1348 -2.2329 0.8850
-5.1244 -15.3963 -1.1898 0.9370
-9.2165 -31.3885 -2.3986 0.8770
-8.0830 -31.6690 -2.3965 0.8771
-5.7916 -32.1006 -2.3917 0.8774
-3.4790 -32.3591 -2.3863 0.8776
-0.7850 -21.9801 -1.6127 0.9156
1.1556 -32.3557 -2.3739 0.8782
3.4507 -32.0966 -2.3670 0.8786
3.6160 -20.0423 -1.4933 0.9216
4.3338 -19.9221 -1.4949 0.9215
7.9322 -31.0782 -2.3518 0.8793
10.0941 -30.3279 -2.3436 0.8797
10.5335 -23.0651 -1.8592 0.9033
15.2658 -27.9573 -2.3356 0.8801
17.2105 -26.7801 -2.3341 0.8801
18.7059 -26.9416 -2.4049 0.8767
23.9273 -23.9273 -2.4811 0.8731
24.7600 -23.0524 -2.4805 0.8731
25.5611 -22.1488 -2.4799 0.8731
26.3294 -21.2176 -2.4794 0.8732
28.4296 -18.2706 -2.4779 0.8732
29.0585 -17.2412 -2.4774 0.8733
30.2049 -15.1195 -2.4767 0.8733
31.1984 -12.9228 -2.4760 0.8733
31.3763 -4.5112 -2.3242 0.8806
31.5168 -3.3884 -2.3242 0.8806
-26.2801 -0.0000 -2.5230 0.8998
-24.9217 -1.7825 -2.3987 0.9045
-24.5369 -2.6380 -2.3692 0.9056
-23.3651 -3.3594 -2.2662 0.9095
-22.9276 -4.1366 -2.2367 0.9106
-22.1199 -4.8119 -2.1733 0.9130
-21.4643 -6.3025 -2.1477 0.9140
-22.0602 -11.0426 -2.3684 0.9056
-21.6653 -11.8302 -2.3699 0.9056
-21.2412 -12.6030 -2.3712 0.9055
-20.7883 -13.3599 -2.3724 0.9055
-17.2206 -12.8912 -2.0652 0.9172
-19.2639 -15.5239 -2.3752 0.9054
-18.7029 -16.2061 -2.3759 0.9053
-18.1167 -16.8672 -2.3764 0.9053
-16.8721 -18.1219 -2.3771 0.9053
-16.2152 -18.7134 -2.3772 0.9053
-15.5371 -19.2804 -2.3772 0.9053
-13.3828 -20.8240 -2.3765 0.9053
-12.6282 -21.2837 -2.3759 0.9053
-11.8570 -21.7146 -2.3752 0.9054
-11.0706 -22.1163 -2.3744 0.9054
-10.2701 -22.4884 -2.3735 0.9054
-9.4566 -22.8303 -2.3724 0.9055
-5.7619 -15.4484 -1.5829 0.9359
-6.9501 -23.6700 -2.3684 0.9056
-5.2365 -24.0717 -2.3651 0.9058
-4.3706 -24.2244 -2.3632 0.9058
-3.5003 -24.3449 -2.3613 0.9059
-1.6064 -22.4602 -2.1618 0.9135
0.0000 -24.5028 -2.3524 0.9062
1.7443 -24.3882 -2.3474 0.9064
3.4766 -24.1803 -2.3453 0.9065
6.8746 -23.4127 -2.3426 0.9066
7.7037 -23.1460 -2.3420 0.9066
9.3303 -22.5253 -2.3407 0.9067
10.1257 -22.1721 -2.3401 0.9067
12.4298 -22.7635 -2.4900 0.9010
14.0177 -21.8119 -2.4892 0.9011
14.7838 -21.2927 -2.4886 0.9011
15.5308 -20.7468 -2.4881 0.9011
16.9640 -19.5775 -2.4870 0.9011
18.3101 -18.3101 -2.4860 0.9012
19.5625 -16.9510 -2.4851 0.9012
20.1516 -16.2392 -2.4847 0.9012
21.2521 -14.7556 -2.4839 0.9013
22.2443 -13.1982 -2.4832 0.9013
23.1237 -11.5749 -2.4826 0.9013
23.8857 -9.8938 -2.4821 0.9013
24.2216 -9.0342 -2.4819 0.9013
23.2922 -6.8392 -2.3306 0.9071
19.8536 -5.0673 -1.9672 0.9210
23.7184 -5.1596 -2.3303 0.9071
23.8866 -4.3096 -2.3303 0.9071
24.0247 -3.4542 -2.3302 0.9071
16.8161 -1.2027 -1.6186 0.9345
-21.2057 0.0000 -2.5189 0.9181
-21.1917 -0.7569 -2.5189 0.9181
-21.1505 -1.5127 -2.5188 0.9181
-21.0821 -2.2666 -2.5187 0.9181
-20.8408 -3.7601 -2.5156 0.9182
-19.1006 -5.6085 -2.3647 0.9229
-18.8866 -6.2861 -2.3645 0.9229
-18.3862 -7.6158 -2.3640 0.9230
-17.1065 -10.1498 -2.3628 0.9230
-16.7309 -10.7523 -2.3624 0.9230
-13.6400 -9.4705 -1.9725 0.9353
-15.4783 -12.4732 -2.3613 0.9230
-14.5440 -13.5410 -2.3605 0.9231
-14.0489 -14.0489 -2.3601 0.9231
-12.4594 -15.4611 -2.3587 0.9231
-10.7286 -16.6940 -2.3572 0.9232
-6.4885 -12.9623 -1.7219 0.9433
-6.0992 -14.7248 -1.8932 0.9378
-4.8787 -14.6582 -1.8351 0.9397
-4.3870 -14.9407 -1.8497 0.9392
-3.8867 -15.2281 -1.8669 0.9387
-4.2085 -19.3461 -2.3518 0.9233
-2.1148 -19.6709 -2.3501 0.9234
-1.4110 -19.7291 -2.3495 0.9234
0.0000 -19.7699 -2.3484 0.9235
1.4097 -19.7101 -2.3473 0.9235
2.1118 -19.6425 -2.3467 0.9235
2.8109 -19.5500 -2.3461 0.9235
4.8812 -19.1242 -2.3445 0.9236
5.6746 -19.3260 -2.3926 0.9221
8.7207 -19.0956 -2.4936 0.9189
9.3947 -18.7683 -2.4931 0.9189
10.0566 -18.4172 -2.4926 0.9189
10.7054 -18.0430 -2.4921 0.9190
11.3404 -17.6459 -2.4916 0.9190
11.9607 -17.2267 -2.4912 0.9190
15.3337 -14.2762 -2.4887 0.9191
15.8312 -13.7178 -2.4883 0.9191
16.3085 -13.1422 -2.4879 0.9191
17.2001 -11.9423 -2.4873 0.9191
17.6133 -11.3194 -2.4870 0.9191
18.0042 -10.6824 -2.4868 0.9191
19.6064 -7.3128 -2.4857 0.9192
20.0237 -5.8795 -2.4790 0.9194
19.0394 -4.8595 -2.3341 0.9239
19.3363 -3.4887 -2.3340 0.9239
16.8566 -2.4236 -2.0229 0.9337
15.7299 -1.6911 -1.8793 0.9383
16.3745 -0.5848 -1.9463 0.9361
-17.7123 -1.2668 -2.5161 0.9308
-17.6552 -1.8981 -2.5160 0.9308
-17.5754 -2.5270 -2.5159 0.9308
-17.4732 -3.1525 -2.5157 0.9308
-17.3485 -3.7739 -2.5156 0.9308
-17.0329 -5.0013 -2.5153 0.9308
-16.8422 -5.6056 -2.5151 0.9308
-16.6091 -6.1949 -2.5117 0.9309
-16.2263 -6.7212 -2.4885 0.9315
-15.5684 -7.1099 -2.4250 0.9332
-14.9429 -7.4799 -2.3677 0.9347
-14.6245 -7.9856 -2.3609 0.9349
-13.3325 -9.9806 -2.3598 0.9349
-11.3402 -12.1802 -2.3580 0.9350
-10.8965 -12.5752 -2.3576 0.9350
-10.4390 -12.9539 -2.3572 0.9350
-9.9682 -13.3160 -2.3568 0.9350
-9.4850 -13.6609 -2.3564 0.9350
-8.4832 -14.2976 -2.3556 0.9350
-6.9023 -15.1140 -2.3542 0.9351
-5.9395 -14.3392 -2.1991 0.9392
-4.3701 -14.8831 -2.1978 0.9393
-3.5277 -16.2166 -2.3515 0.9352
-2.9461 -16.3289 -2.3510 0.9352
-2.3609 -16.4203 -2.3505 0.9352
0.5915 -16.5618 -2.3481 0.9352
1.1952 -16.7113 -2.3739 0.9346
1.8355 -17.0729 -2.4330 0.9330
2.5028 -17.4070 -2.4918 0.9314
3.1297 -17.3465 -2.4975 0.9313
4.3588 -17.0775 -2.4973 0.9313
4.9646 -16.9078 -2.4968 0.9313
5.5639 -16.7167 -2.4963 0.9313
6.7398 -16.2713 -2.4954 0.9313
8.4361 -15.4495 -2.4941 0.9314
9.5136 -14.8034 -2.4933 0.9314
10.5421 -14.0826 -2.4925 0.9314
11.0364 -13.6953 -2.4921 0.9314
11.9819 -12.8695 -2.4914 0.9314
12.4320 -12.4320 -2.4911 0.9314
13.6847 -11.0278 -2.4902 0.9315
14.0680 -10.5312 -2.4899 0.9315
14.4334 -10.0213 -2.4897 0.9315
14.7805 -9.4988 -2.4894 0.9315
15.1087 -8.9644 -2.4892 0.9315
15.4177 -8.4187 -2.4890 0.9315
15.9766 -7.2963 -2.4886 0.9315
16.4544 -6.1372 -2.4883 0.9315
16.6621 -5.5457 -2.4882 0.9315
16.3222 -2.3468 -2.3365 0.9356
12.3444 -0.4409 -1.7502 0.9513
-15.2616 -0.0000 -2.5142 0.9400
-15.2220 -1.0887 -2.5141 0.9400
-15.1730 -1.6313 -2.5140 0.9400
-15.0168 -2.7093 -2.5138 0.9400
-14.7837 -3.7733 -2.5135 0.9400
-14.0924 -5.8373 -2.5128 0.9400
-13.8739 -6.3360 -2.5126 0.9400
-13.3841 -7.3083 -2.5122 0.9401
-13.1134 -7.7806 -2.5119 0.9401
-12.8188 -8.2382 -2.5103 0.9401
-12.4965 -8.6765 -2.5062 0.9402
-12.1110 -9.0662 -2.4923 0.9405
-11.6118 -9.3574 -2.4567 0.9413
-11.1253 -9.6401 -2.4251 0.9421
-10.6493 -9.9148 -2.3970 0.9427
-10.1832 -10.1832 -2.3725 0.9433
-9.3675 -10.8106 -2.3565 0.9437
-8.1546 -11.7449 -2.3555 0.9437
-7.7290 -12.0266 -2.3551 0.9437
-7.2937 -12.2929 -2.3547 0.9437
-6.3961 -12.7778 -2.3540 0.9437
-5.9350 -12.9958 -2.3536 0.9437
-5.4665 -13.1972 -2.3532 0.9437
-4.9911 -13.3816 -2.3528 0.9437
-3.5591 -13.9444 -2.3708 0.9433
-3.0907 -14.2079 -2.3953 0.9428
-2.6119 -14.4766 -2.4234 0.9421
0.0000 -15.1810 -2.5009 0.9403
1.0826 -15.1370 -2.5000 0.9403
1.6219 -15.0862 -2.4996 0.9403
3.7499 -14.6919 -2.4979 0.9404
5.2963 -14.2000 -2.4967 0.9404
5.7989 -13.9997 -2.4963 0.9404
6.2939 -13.7817 -2.4959 0.9404
6.7808 -13.5463 -2.4956 0.9404
9.9108 -11.4377 -2.4932 0.9405
10.3115 -11.0753 -2.4929 0.9405
11.0728 -10.3092 -2.4923 0.9405
11.7776 -9.4910 -2.4918 0.9405
13.9661 -5.7849 -2.4903 0.9406
14.1629 -5.2825 -2.4902 0.9406
14.3418 -4.7734 -2.4901 0.9406
14.6252 -2.6387 -2.4483 0.9415
14.0495 -2.0200 -2.3383 0.9441
14.1126 -1.5173 -2.3383 0.9441
14.1577 -1.0126 -2.3383 0.9441
12.2859 -0.4388 -2.0253 0.9514
-13.3592 -0.4771 -2.5126 0.9470
-13.3334 -0.9536 -2.5126 0.9470
-13.2306 -1.9023 -2.5124 0.9471
-13.0602 -2.8411 -2.5122 0.9471
-12.9499 -3.3052 -2.5121 0.9471
-12.6797 -4.2202 -2.5118 0.9471
-12.5202 -4.6698 -2.5117 0.9471
-12.1534 -5.5503 -2.5113 0.9471
-11.9466 -5.9800 -2.5111 0.9471
-11.7246 -6.4021 -2.5109 0.9471
-11.2360 -7.2210 -2.5105 0.9471
-10.6901 -8.0025 -2.5100 0.9471
-9.7703 -9.0965 -2.5092 0.9471
-9.0943 -9.7680 -2.5086 0.9471
-7.6078 -10.9573 -2.5073 0.9472
-6.8049 -11.4690 -2.5066 0.9472
-6.3903 -11.7029 -2.5063 0.9472
-4.6571 -12.4860 -2.5048 0.9472
-3.7533 -12.7827 -2.5041 0.9472
-2.3643 -13.1047 -2.5029 0.9472
-1.8948 -13.1787 -2.5026 0.9473
-0.4750 -13.2996 -2.5014 0.9473
0.0000 -13.3061 -2.5010 0.9473
0.4749 -13.2956 -2.5006 0.9473
1.4217 -13.2239 -2.4999 0.9473
1.8925 -13.1627 -2.4995 0.9473
2.8259 -12.9903 -2.4988 0.9473
3.2872 -12.8793 -2.4984 0.9473
4.1965 -12.6084 -2.4977 0.9474
4.6432 -12.4489 -2.4974 0.9474
5.5179 -12.0826 -2.4967 0.9474
5.9449 -11.8764 -2.4964 0.9474
6.3642 -11.6551 -2.4960 0.9474
8.6901 -10.0289 -2.4943 0.9474
9.0416 -9.7113 -2.4940 0.9474
10.0250 -8.6867 -2.4933 0.9474
10.3277 -8.3226 -2.4931 0.9474
10.6173 -7.9480 -2.4929 0.9475
10.8934 -7.5634 -2.4927 0.9475
11.6371 -6.3543 -2.4922 0.9475
12.0594 -5.5073 -2.4919 0.9475
12.9517 -2.8175 -2.4913 0.9475
13.0896 -1.8820 -2.4856 0.9476
12.4357 -1.3370 -2.3509 0.9504
12.1910 -0.4354 -2.2929 0.9516
-11.8506 -0.8476 -2.5114 0.9526
-11.8125 -1.2700 -2.5113 0.9526
-11.7593 -1.6907 -2.5113 0.9526
-11.6079 -2.5252 -2.5111 0.9526
-11.5099 -2.9377 -2.5110 0.9526
-11.3972 -3.3465 -2.5108 0.9526
-11.2699 -3.7510 -2.5107 0.9526
-11.1282 -4.1506 -2.5106 0.9526
-10.8024 -4.9333 -2.5103 0.9526
-9.2416 -7.4473 -2.5088 0.9526
-8.9690 -7.7717 -2.5086 0.9526
-8.3901 -8.3901 -2.5081 0.9526
-7.4427 -9.2358 -2.5073 0.9527
-7.1075 -9.4945 -2.5070 0.9527
-6.7633 -9.7410 -2.5067 0.9527
-6.4105 -9.9750 -2.5064 0.9527
-6.0497 -10.1962 -2.5061 0.9527
-5.6812 -10.4044 -2.5058 0.9527
-5.3056 -10.5992 -2.5055 0.9527
-4.9232 -10.7804 -2.5051 0.9527
-1.6848 -11.7183 -2.5025 0.9528
-1.2653 -11.7694 -2.5021 0.9528
-0.8443 -11.8054 -2.5018 0.9528
0.0000 -11.8324 -2.5011 0.9528
0.4223 -11.8232 -2.5008 0.9528
1.2643 -11.7598 -2.5001 0.9528
2.5131 -11.5527 -2.4991 0.9528
3.3300 -11.3411 -2.4985 0.9528
3.7322 -11.2136 -2.4982 0.9528
4.5216 -10.9161 -2.4976 0.9528
5.2876 -10.5632 -2.4970 0.9529
6.3843 -9.9341 -2.4961 0.9529
7.0752 -9.4514 -2.4956 0.9529
7.4073 -9.1919 -2.4954 0.9529
8.3451 -8.3451 -2.4947 0.9529
8.6369 -8.0413 -2.4944 0.9529
9.1871 -7.4034 -2.4941 0.9529
9.9238 -6.3776 -2.4935 0.9529
10.3523 -5.6528 -2.4932 0.9529
10.5469 -5.2794 -2.4931 0.9529
10.8956 -4.5131 -2.4929 0.9529
11.1890 -3.7240 -2.4927 0.9529
11.5221 -2.5065 -2.4925 0.9529
11.6041 -2.0936 -2.4925 0.9529
11.7098 -1.2589 -2.4895 0.9530
11.5258 -0.8243 -2.4425 0.9539
-10.6819 0.0000 -2.5105 0.9571
-10.6750 -0.3813 -2.5105 0.9571
-10.5724 -1.5201 -2.5103 0.9571
-10.5111 -1.8964 -2.5102 0.9571
-10.4364 -2.2703 -2.5101 0.9571
-10.3483 -2.6412 -2.5101 0.9571
-10.2470 -3.0088 -2.5099 0.9571
-10.1326 -3.3725 -2.5098 0.9571
-10.0053 -3.7318 -2.5097 0.9571
-9.7125 -4.4355 -2.5094 0.9571
-9.3701 -5.1165 -2.5091 0.9571
-8.9799 -5.7710 -2.5087 0.9571
-8.7675 -6.0874 -2.5086 0.9571
-8.0646 -6.9880 -2.5079 0.9571
-7.5442 -7.5442 -2.5075 0.9571
-7.2694 -7.8079 -2.5072 0.9571
-6.6925 -8.3049 -2.5067 0.9571
-6.3912 -8.5376 -2.5065 0.9571
-6.0817 -8.7594 -2.5062 0.9571
-5.7646 -8.9699 -2.5059 0.9571
-5.1089 -9.3562 -2.5054 0.9571
-4.7711 -9.5315 -2.5051 0.9571
-4.0781 -9.8454 -2.5045 0.9572
-3.3645 -10.1088 -2.5039 0.9572
-3.0012 -10.2212 -2.5036 0.9572
-2.6342 -10.3206 -2.5033 0.9572
-1.5153 -10.5392 -2.5024 0.9572
-1.1380 -10.5853 -2.5021 0.9572
-0.7594 -10.6179 -2.5018 0.9572
-0.3799 -10.6369 -2.5015 0.9572
0.0000 -10.6424 -2.5012 0.9572
0.7590 -10.6127 -2.5006 0.9572
1.1372 -10.5776 -2.5003 0.9572
1.8885 -10.4670 -2.4997 0.9572
2.2606 -10.3917 -2.4994 0.9572
3.7148 -9.9597 -2.4983 0.9573
4.0674 -9.8197 -2.4980 0.9573
4.4149 -9.6672 -2.4977 0.9573
5.0922 -9.3257 -2.4972 0.9573
6.0581 -8.7253 -2.4965 0.9573
6.3651 -8.5028 -2.4962 0.9573
6.9542 -8.0256 -2.4958 0.9573
7.2356 -7.7716 -2.4956 0.9573
7.5078 -7.5078 -2.4954 0.9573
8.0231 -6.9520 -2.4950 0.9573
8.2655 -6.6608 -2.4948 0.9573
8.7185 -6.0534 -2.4945 0.9573
9.4892 -4.7500 -2.4940 0.9573
3.2912 -1.0954 -0.8152 0.9858
3.3692 -0.8599 -0.8172 0.9858
10.3669 -2.2552 -2.4935 0.9573
10.4407 -1.8837 -2.4934 0.9573
10.5483 -1.1341 -2.4934 0.9573
10.5793 -0.7566 -2.4927 0.9574
10.5763 -0.3777 -2.4872 0.9574
-9.6931 -0.0000 -2.5097 0.9607
-9.6371 -1.0361 -2.5096 0.9607
-9.5381 -1.7209 -2.5095 0.9607
-9.2986 -2.7303 -2.5092 0.9607
-9.1948 -3.0603 -2.5091 0.9607
-9.0793 -3.3864 -2.5090 0.9608
-8.6639 -4.3368 -2.5086 0.9608
-8.1491 -5.2371 -2.5081 0.9608
-7.9565 -5.5243 -2.5079 0.9608
-7.5410 -6.0769 -2.5076 0.9608
-7.3187 -6.3417 -2.5074 0.9608
-7.0871 -6.5983 -2.5072 0.9608
-6.8465 -6.8465 -2.5070 0.9608
-6.3395 -7.3162 -2.5065 0.9608
-6.0738 -7.5371 -2.5063 0.9608
-5.8004 -7.7484 -2.5061 0.9608
-5.2318 -8.1409 -2.5056 0.9608
-4.9374 -8.3216 -2.5053 0.9608
-4.6368 -8.4917 -2.5051 0.9608
-3.7014 -8.9359 -2.5043 0.9608
-2.7241 -9.2774 -2.5035 0.9608
-2.3910 -9.3677 -2.5032 0.9608
-1.7162 -9.5123 -2.5027 0.9608
-1.0330 -9.6083 -2.5021 0.9609
-0.6893 -9.6380 -2.5018 0.9609
-0.3448 -9.6554 -2.5015 0.9609
0.3448 -9.6533 -2.5010 0.9609
0.6890 -9.6338 -2.5007 0.9609
1.0323 -9.6020 -2.5004 0.9609
1.7143 -9.5018 -2.4999 0.9609
3.0478 -9.1573 -2.4989 0.9609
3.3724 -9.0417 -2.4986 0.9609
4.3183 -8.6269 -2.4979 0.9609
4.9219 -8.2953 -2.4974 0.9609
5.5001 -7.9217 -2.4970 0.9609
5.7789 -7.7197 -2.4968 0.9609
6.3139 -7.2866 -2.4964 0.9609
6.8166 -6.8166 -2.4960 0.9610
7.0550 -6.5685 -2.4958 0.9610
7.2845 -6.3121 -2.4957 0.9610
7.7153 -5.7756 -2.4953 0.9610
7.9161 -5.4962 -2.4952 0.9610
8.4570 -4.6178 -2.4948 0.9610
8.7641 -4.0024 -2.4946 0.9610
3.4944 -0.7602 -0.9259 0.9853
9.4801 -1.7104 -2.4942 0.9610
9.5350 -1.3709 -2.4942 0.9610
9.6269 -0.3438 -2.4942 0.9610
-8.8629 -0.0000 -2.5090 0.9638
-8.8572 -0.3163 -2.5090 0.9638
-8.8402 -0.6323 -2.5090 0.9638
-8.8118 -0.9474 -2.5089 0.9638
-8.6594 -1.8837 -2.5087 0.9638
-8.5864 -2.1915 -2.5087 0.9638
-8.5024 -2.4965 -2.5086 0.9638
-8.4075 -2.7983 -2.5085 0.9638
-8.3020 -3.0965 -2.5084 0.9638
-8.1858 -3.3907 -2.5083 0.9638
-8.0592 -3.6805 -2.5081 0.9638
-7.7752 -4.2456 -2.5079 0.9638
-7.6183 -4.5202 -2.5077 0.9638
-7.4517 -4.7889 -2.5076 0.9638
-6.6925 -5.7991 -2.5069 0.9639
-6.2608 -6.2608 -2.5065 0.9639
-6.0329 -6.4797 -2.5063 0.9639
-5.7973 -6.6904 -2.5061 0.9639
-5.0476 -7.2699 -2.5055 0.9639
-4.2404 -7.7657 -2.5048 0.9639
-3.9601 -7.9114 -2.5046 0.9639
-3.6749 -8.0469 -2.5043 0.9639
-3.0909 -8.2870 -2.5038 0.9639
-2.7928 -8.3912 -2.5036 0.9639
-2.4913 -8.4847 -2.5034 0.9639
-1.8793 -8.6390 -2.5028 0.9639
-1.5696 -8.6997 -2.5026 0.9639
-0.3154 -8.8310 -2.5016 0.9639
1.2569 -8.7423 -2.5003 0.9639
1.5680 -8.6910 -2.5001 0.9640
2.1836 -8.5553 -2.4996 0.9640
2.4873 -8.4711 -2.4994 0.9640
2.7878 -8.3762 -2.4991 0.9640
3.0848 -8.2706 -2.4989 0.9640
3.6662 -8.0280 -2.4984 0.9640
3.9501 -7.8913 -2.4982 0.9640
4.2289 -7.7446 -2.4980 0.9640
4.5022 -7.5881 -2.4978 0.9640
5.0313 -7.2464 -2.4974 0.9640
5.2863 -7.0617 -2.4972 0.9640
5.5346 -6.8680 -2.4970 0.9640
5.7758 -6.6656 -2.4968 0.9640
6.0096 -6.4548 -2.4967 0.9640
6.2357 -6.2357 -2.4965 0.9640
6.6639 -5.7743 -2.4962 0.9640
6.8653 -5.5324 -2.4960 0.9640
7.5812 -4.4982 -2.4955 0.9640
7.7366 -4.2245 -2.4954 0.9640
3.2026 -1.3265 -0.9813 0.9857
3.1979 -1.0643 -0.9541 0.9861
3.2692 -0.9599 -0.9646 0.9859
3.3486 -0.8547 -0.9784 0.9857
3.4365 -0.7476 -0.9956 0.9855
8.7231 -1.2542 -2.4948 0.9640
8.7903 -0.6287 -2.4948 0.9640
-8.1503 -0.2911 -2.5084 0.9664
-8.0253 -1.4479 -2.5083 0.9664
-7.7366 -2.5750 -2.5080 0.9665
-7.6395 -2.8494 -2.5079 0.9665
-7.2902 -3.6492 -2.5075 0.9665
-7.1549 -3.9069 -2.5074 0.9665
-7.0105 -4.1595 -2.5073 0.9665
-6.6952 -4.6485 -2.5070 0.9665
-6.5246 -4.8842 -2.5068 0.9665
-6.1587 -5.3366 -2.5065 0.9665
-5.9639 -5.5526 -2.5063 0.9665
-5.7615 -5.7615 -2.5062 0.9665
-5.3350 -6.1570 -2.5058 0.9665
-5.1115 -6.3430 -2.5056 0.9665
-4.8815 -6.5209 -2.5054 0.9665
-4.4031 -6.8514 -2.5050 0.9665
-3.6446 -7.2809 -2.5044 0.9665
-3.1153 -7.5211 -2.5039 0.9665
-2.5704 -7.7228 -2.5035 0.9665
-1.7297 -7.9511 -2.5028 0.9665
-0.8696 -8.0881 -2.5021 0.9665
-0.5803 -8.1133 -2.5018 0.9665
0.5801 -8.1103 -2.5009 0.9665
0.8691 -8.0836 -2.5007 0.9665
1.4433 -7.9996 -2.5002 0.9666
2.0099 -7.8748 -2.4998 0.9666
2.8395 -7.6129 -2.4991 0.9666
3.6361 -7.2640 -2.4985 0.9666
3.8927 -7.1290 -2.4983 0.9666
4.3907 -6.8321 -2.4979 0.9666
4.6314 -6.6705 -2.4978 0.9666
6.1345 -5.3156 -2.4966 0.9666
6.3200 -5.0929 -2.4965 0.9666
6.4974 -4.8639 -2.4964 0.9666
6.9791 -4.1409 -2.4960 0.9666
7.2562 -3.6322 -2.4959 0.9666
7.3810 -3.3708 -2.4958 0.9666
3.1628 -1.3101 -1.0530 0.9858
3.1216 -1.1643 -1.0248 0.9862
3.1275 -1.0409 -1.0138 0.9863
3.3326 -0.8506 -1.0579 0.9857
8.1079 -0.2896 -2.4954 0.9666
-7.5401 -0.2693 -2.5080 0.9687
-7.4245 -1.3395 -2.5078 0.9687
-7.3718 -1.6036 -2.5077 0.9687
-7.2382 -2.1253 -2.5076 0.9687
-7.0677 -2.6361 -2.5074 0.9687
-6.8610 -3.1333 -2.5072 0.9687
-6.4859 -3.8482 -2.5069 0.9687
-6.0364 -4.5188 -2.5065 0.9687
-5.6980 -4.9373 -2.5062 0.9687
-5.3305 -5.3305 -2.5058 0.9687
-4.9360 -5.6965 -2.5055 0.9687
-4.2979 -6.1901 -2.5050 0.9687
-3.8447 -6.4799 -2.5046 0.9687
-3.3721 -6.7366 -2.5042 0.9687
-2.8825 -6.9589 -2.5038 0.9687
-2.3783 -7.1456 -2.5034 0.9688
-1.6004 -7.3570 -2.5027 0.9688
-1.0713 -7.4512 -2.5023 0.9688
-0.5369 -7.5073 -2.5018 0.9688
-0.2686 -7.5210 -2.5016 0.9688
0.0000 -7.5252 -2.5014 0.9688
0.2686 -7.5198 -2.5012 0.9688
0.8042 -7.4802 -2.5008 0.9688
1.5988 -7.3495 -2.5001 0.9688
1.8599 -7.2871 -2.4999 0.9688
2.8772 -6.9461 -2.4991 0.9688
3.3648 -6.7221 -2.4988 0.9688
3.6024 -6.5972 -2.4986 0.9688
4.0633 -6.3225 -2.4982 0.9688
4.2860 -6.1731 -2.4981 0.9688
4.5033 -6.0158 -2.4979 0.9688
4.7149 -5.8508 -2.4977 0.9688
4.9204 -5.6785 -2.4976 0.9688
5.1197 -5.4989 -2.4974 0.9688
5.3124 -5.3124 -2.4973 0.9688
5.4983 -5.1191 -2.4972 0.9688
5.6772 -4.9193 -2.4970 0.9688
5.8489 -4.7133 -2.4969 0.9688
6.0131 -4.5013 -2.4968 0.9688
6.3184 -4.0606 -2.4966 0.9688
6.4590 -3.8323 -2.4965 0.9688
6.5914 -3.5992 -2.4964 0.9688
6.8310 -3.1196 -2.4962 0.9688
6.9378 -2.8737 -2.4962 0.9688
3.1084 -1.1594 -1.1028 0.9861
3.3049 -0.8435 -1.1338 0.9857
3.5094 -0.6332 -1.1854 0.9851
7.4655 -0.8026 -2.4959 0.9688
7.5038 -0.2680 -2.4959 0.9688
-7.0075 -0.2503 -2.5075 0.9707
-6.9940 -0.5002 -2.5075 0.9707
-6.9716 -0.7495 -2.5075 0.9707
-6.9001 -1.2449 -2.5074 0.9707
-6.8512 -1.4904 -2.5073 0.9707
-6.7934 -1.7339 -2.5073 0.9707
-6.7270 -1.9752 -2.5072 0.9707
-6.6520 -2.2140 -2.5071 0.9707
-6.5686 -2.4500 -2.5070 0.9707
-6.3766 -2.9121 -2.5068 0.9707
-6.2683 -3.1377 -2.5067 0.9707
-6.0280 -3.5766 -2.5065 0.9707
-5.8962 -3.7893 -2.5064 0.9707
-5.7569 -3.9971 -2.5063 0.9707
-5.2958 -4.5888 -2.5059 0.9707
-5.1283 -4.7746 -2.5057 0.9707
-4.9543 -4.9543 -2.5056 0.9707
-4.7740 -5.1277 -2.5054 0.9707
-4.1977 -5.6075 -2.5049 0.9707
-3.9946 -5.7534 -2.5047 0.9707
-3.7865 -5.8919 -2.5046 0.9707
-3.1343 -6.2615 -2.5040 0.9707
-2.6792 -6.4682 -2.5036 0.9707
-2.4464 -6.5592 -2.5034 0.9707
-2.2106 -6.6418 -2.5033 0.9707
-1.9720 -6.7159 -2.5031 0.9707
-1.7309 -6.7815 -2.5029 0.9707
-1.4876 -6.8384 -2.5027 0.9707
-1.2425 -6.8866 -2.5025 0.9707
-0.9958 -6.9260 -2.5023 0.9707
-0.7479 -6.9566 -2.5021 0.9707
-0.4991 -6.9783 -2.5019 0.9707
-0.2497 -6.9911 -2.5017 0.9707
0.0000 -6.9950 -2.5015 0.9707
0.4989 -6.9760 -2.5011 0.9707
0.7475 -6.9532 -2.5009 0.9707
1.4862 -6.8319 -2.5003 0.9707
1.9695 -6.7074 -2.4999 0.9707
2.2075 -6.6324 -2.4997 0.9707
2.9032 -6.3570 -2.4992 0.9707
3.1280 -6.2489 -2.4990 0.9708
3.7773 -5.8776 -2.4985 0.9708
4.3831 -5.4391 -2.4980 0.9708
5.1115 -4.7590 -2.4975 0.9708
5.2778 -4.5733 -2.4974 0.9708
5.4375 -4.3818 -2.4973 0.9708
5.7357 -3.9824 -2.4971 0.9708
5.8740 -3.7750 -2.4970 0.9708
6.1279 -3.3461 -2.4968 0.9708
3.2708 -0.9604 -1.2191 0.9856
3.3372 -0.7260 -1.2213 0.9856
3.5065 -0.6326 -1.2742 0.9850
6.9095 -0.9934 -2.4963 0.9708
-6.5424 0.0000 -2.5072 0.9724
-6.5382 -0.2335 -2.5072 0.9724
-6.5256 -0.4667 -2.5071 0.9724
-6.4381 -1.1616 -2.5070 0.9724
-6.3924 -1.3906 -2.5070 0.9724
-6.3385 -1.6178 -2.5069 0.9724
-6.2066 -2.0658 -2.5068 0.9724
-5.9496 -2.7171 -2.5065 0.9724
-5.8486 -2.9276 -2.5064 0.9724
-5.5015 -3.5356 -2.5061 0.9724
-5.3715 -3.7295 -2.5060 0.9724
-5.2347 -3.9187 -2.5059 0.9724
-4.9413 -4.2817 -2.5056 0.9724
-4.2807 -4.9402 -2.5050 0.9724
-4.1014 -5.0895 -2.5049 0.9724
-3.5332 -5.4977 -2.5044 0.9724
-3.3345 -5.6200 -2.5042 0.9724
-2.7141 -5.9429 -2.5037 0.9724
-2.5000 -6.0356 -2.5035 0.9724
-1.3882 -6.3813 -2.5026 0.9724
-0.9293 -6.4631 -2.5022 0.9724
-0.6979 -6.4916 -2.5020 0.9724
-0.4657 -6.5119 -2.5019 0.9724
-0.2330 -6.5239 -2.5017 0.9724
0.0000 -6.5276 -2.5015 0.9724
0.9287 -6.4592 -2.5007 0.9724
1.3869 -6.3756 -2.5004 0.9724
1.8380 -6.2595 -2.5000 0.9724
2.0601 -6.1895 -2.4999 0.9724
2.2795 -6.1116 -2.4997 0.9724
2.4960 -6.0259 -2.4995 0.9724
2.7093 -5.9326 -2.4993 0.9724
2.9192 -5.8318 -2.4992 0.9725
3.1253 -5.7235 -2.4990 0.9725
3.3273 -5.6079 -2.4989 0.9725
3.7185 -5.3557 -2.4986 0.9725
4.2690 -4.9267 -2.4982 0.9725
4.4419 -4.7709 -2.4980 0.9725
4.6091 -4.6091 -2.4979 0.9725
4.9257 -4.2682 -2.4977 0.9725
5.2172 -3.9056 -2.4975 0.9725
5.3531 -3.7167 -2.4974 0.9725
5.8268 -2.9167 -2.4971 0.9725
5.9270 -2.7068 -2.4970 0.9725
6.0197 -2.4934 -2.4969 0.9725
3.2578 -0.8315 -1.2885 0.9857
-6.1211 -0.2186 -2.5068 0.9739
-6.1094 -0.4370 -2.5068 0.9739
-6.0898 -0.6547 -2.5068 0.9739
-5.9846 -1.3019 -2.5066 0.9739
-5.8107 -1.9340 -2.5065 0.9739
-5.7378 -2.1401 -2.5064 0.9739
-5.5702 -2.5438 -2.5062 0.9739
-5.4757 -2.7409 -2.5061 0.9739
-5.3741 -2.9345 -2.5060 0.9739
-5.2658 -3.1243 -2.5059 0.9739
-5.1507 -3.3101 -2.5058 0.9739
-5.0290 -3.4917 -2.5057 0.9739
-4.7667 -3.8412 -2.5055 0.9739
-4.1706 -4.4796 -2.5050 0.9739
-4.0079 -4.6253 -2.5048 0.9739
-3.8400 -4.7651 -2.5047 0.9739
-3.4899 -5.0263 -2.5044 0.9739
-3.1220 -5.2618 -2.5041 0.9739
-2.9320 -5.3696 -2.5039 0.9739
-2.7383 -5.4705 -2.5038 0.9739
-2.5411 -5.5643 -2.5036 0.9739
-2.1374 -5.7307 -2.5033 0.9739
-1.9314 -5.8029 -2.5031 0.9739
-1.7229 -5.8678 -2.5029 0.9739
-1.5123 -5.9251 -2.5027 0.9739
-1.2998 -5.9749 -2.5026 0.9739
-0.8701 -6.0515 -2.5022 0.9739
-0.4361 -6.0973 -2.5019 0.9739
0.0000 -6.1121 -2.5015 0.9739
0.6532 -6.0758 -2.5010 0.9739
0.8696 -6.0482 -2.5008 0.9739
1.0848 -6.0129 -2.5006 0.9739
1.5108 -5.9194 -2.5003 0.9739
2.5370 -5.5553 -2.4995 0.9739
2.7335 -5.4609 -2.4994 0.9740
2.9265 -5.3595 -2.4992 0.9740
3.3010 -5.1365 -2.4989 0.9740
3.4821 -5.0151 -2.4988 0.9740
3.8306 -4.7534 -2.4985 0.9740
3.9976 -4.6134 -2.4984 0.9740
4.1595 -4.4676 -2.4983 0.9740
4.6126 -3.9969 -2.4980 0.9740
5.2480 -3.1138 -2.4975 0.9740
5.3557 -2.9244 -2.4974 0.9740
5.5504 -2.5348 -2.4973 0.9740
5.6372 -2.3350 -2.4972 0.9740
3.1559 -1.1771 -1.3786 0.9855
3.1681 -1.0544 -1.3665 0.9857
3.1625 -0.9286 -1.3490 0.9859
3.2181 -0.8214 -1.3593 0.9857
6.0661 -0.6522 -2.4970 0.9740
6.0972 -0.2178 -2.4970 0.9740
-5.7514 0.0000 -2.5065 0.9752
-5.7477 -0.2053 -2.5065 0.9752
-5.7183 -0.6148 -2.5065 0.9752
-5.6195 -1.2225 -2.5064 0.9752
-5.5177 -1.6202 -2.5062 0.9752
-5.4563 -1.8160 -2.5062 0.9752
-5.3878 -2.0096 -2.5061 0.9752
-5.2304 -2.3887 -2.5060 0.9752
-5.0463 -2.7555 -2.5058 0.9752
-4.8365 -3.1083 -2.5056 0.9752
-3.9163 -4.2064 -2.5048 0.9752
-3.7635 -4.3433 -2.5047 0.9752
-3.6059 -4.4746 -2.5045 0.9752
-3.2771 -4.7199 -2.5042 0.9752
-3.1064 -4.8336 -2.5041 0.9752
-2.9317 -4.9411 -2.5039 0.9752
-2.7533 -5.0423 -2.5038 0.9752
-2.5714 -5.1371 -2.5036 0.9752
-2.3863 -5.2253 -2.5035 0.9752
-1.6180 -5.5103 -2.5029 0.9753
-1.2206 -5.6109 -2.5025 0.9753
-0.6137 -5.7081 -2.5020 0.9753
-0.4095 -5.7260 -2.5019 0.9753
-0.2049 -5.7366 -2.5017 0.9753
0.0000 -5.7399 -2.5015 0.9753
0.2049 -5.7358 -2.5014 0.9753
0.6134 -5.7059 -2.5010 0.9753
0.8167 -5.6800 -2.5009 0.9753
1.0188 -5.6469 -2.5007 0.9753
1.2196 -5.6065 -2.5006 0.9753
1.4189 -5.5591 -2.5004 0.9753
1.8116 -5.4430 -2.5001 0.9753
2.1950 -5.2993 -2.4998 0.9753
2.3826 -5.2173 -2.4997 0.9753
3.1002 -4.8240 -2.4991 0.9753
3.7544 -4.3329 -2.4986 0.9753
4.1955 -3.9062 -2.4983 0.9753
4.5885 -3.4349 -2.4980 0.9753
4.7080 -3.2689 -2.4979 0.9753
4.8216 -3.0986 -2.4978 0.9753
4.9289 -2.9245 -2.4978 0.9753
5.0300 -2.7466 -2.4977 0.9753
5.1247 -2.5653 -2.4976 0.9753
5.2129 -2.3807 -2.4976 0.9753
3.1845 -1.1878 -1.4812 0.9853
3.2107 -0.8195 -1.4441 0.9856
5.6719 -0.8155 -2.4973 0.9753
5.7265 -0.2045 -2.4973 0.9753
-5.4110 -0.1933 -2.5063 0.9764
-5.4006 -0.3863 -2.5062 0.9764
-5.3591 -0.7705 -2.5062 0.9764
-5.3281 -0.9613 -2.5061 0.9764
-5.2903 -1.1508 -2.5061 0.9764
-5.2458 -1.3389 -2.5060 0.9764
-5.1367 -1.7097 -2.5059 0.9764
-5.0723 -1.8919 -2.5059 0.9764
-4.9241 -2.2488 -2.5057 0.9764
-4.3326 -3.2434 -2.5052 0.9764
-4.0899 -3.5439 -2.5050 0.9764
-3.8263 -3.8263 -2.5047 0.9764
-2.9246 -4.5507 -2.5040 0.9764
-2.5922 -4.7473 -2.5037 0.9764
-2.4210 -4.8365 -2.5035 0.9764
-2.2467 -4.9195 -2.5034 0.9764
-1.7076 -5.1306 -2.5029 0.9764
-1.5233 -5.1879 -2.5028 0.9764
-1.1492 -5.2827 -2.5025 0.9765
-0.9598 -5.3201 -2.5023 0.9765
-0.1929 -5.4012 -2.5017 0.9765
0.1929 -5.4005 -2.5014 0.9765
0.5776 -5.3723 -2.5011 0.9765
0.7689 -5.3480 -2.5009 0.9765
0.9593 -5.3168 -2.5008 0.9765
1.1483 -5.2788 -2.5006 0.9765
1.3359 -5.2342 -2.5005 0.9765
1.5218 -5.1829 -2.5004 0.9765
1.7057 -5.1250 -2.5002 0.9765
3.0792 -4.4349 -2.4992 0.9765
3.5352 -4.0798 -2.4988 0.9765
3.8169 -3.8169 -2.4986 0.9765
4.0791 -3.5346 -2.4984 0.9765
4.2026 -3.3866 -2.4983 0.9765
4.4332 -3.0780 -2.4982 0.9765
4.6412 -2.7537 -2.4980 0.9765
4.7364 -2.5863 -2.4979 0.9765
4.8255 -2.4155 -2.4979 0.9765
4.9086 -2.2417 -2.4978 0.9765
3.2345 -1.2064 -1.5980 0.9849
3.2321 -1.0757 -1.5768 0.9851
3.1839 -0.9349 -1.5360 0.9855
3.2714 -0.8350 -1.5628 0.9852
5.3408 -0.7679 -2.4976 0.9765
-5.1056 -0.1823 -2.5060 0.9775
-5.0795 -0.5461 -2.5060 0.9775
-4.9918 -1.0859 -2.5059 0.9775
-4.9014 -1.4392 -2.5058 0.9775
-4.7192 -1.9547 -2.5056 0.9775
-4.5674 -2.2863 -2.5054 0.9775
-4.4828 -2.4478 -2.5054 0.9775
-4.2964 -2.7611 -2.5052 0.9775
-4.0882 -3.0604 -2.5050 0.9775
-3.9762 -3.2042 -2.5049 0.9775
-3.7372 -3.4794 -2.5047 0.9775
-3.4791 -3.7368 -2.5045 0.9775
-3.2034 -3.9751 -2.5042 0.9775
-3.0593 -4.0867 -2.5041 0.9775
-2.4460 -4.4796 -2.5036 0.9775
-2.2845 -4.5638 -2.5035 0.9775
-1.9529 -4.7146 -2.5032 0.9775
-1.6114 -4.8414 -2.5029 0.9775
-1.4375 -4.8955 -2.5027 0.9775
-1.0844 -4.9850 -2.5025 0.9775
-0.7260 -5.0491 -2.5022 0.9775
-0.5452 -5.0715 -2.5020 0.9775
-0.3639 -5.0874 -2.5019 0.9775
0.5450 -5.0697 -2.5011 0.9775
0.7256 -5.0467 -2.5010 0.9775
0.9052 -5.0173 -2.5009 0.9775
1.6097 -4.8364 -2.5003 0.9775
1.7812 -4.7756 -2.5002 0.9775
2.1171 -4.6359 -2.4999 0.9775
2.4422 -4.4726 -2.4997 0.9776
2.7548 -4.2865 -2.4994 0.9776
2.9059 -4.1853 -2.4993 0.9776
3.3362 -3.8502 -2.4990 0.9776
3.4714 -3.7285 -2.4989 0.9776
3.8496 -3.3357 -2.4986 0.9776
3.9661 -3.1961 -2.4985 0.9776
4.0775 -3.0524 -2.4984 0.9776
4.2846 -2.7536 -2.4983 0.9776
4.6324 -2.1156 -2.4981 0.9776
3.2321 -1.2055 -1.6921 0.9847
3.2220 -1.0724 -1.6657 0.9850
3.3668 -0.8593 -1.7045 0.9846
5.0113 -0.9041 -2.4978 0.9776
5.0403 -0.7247 -2.4978 0.9776
-4.8178 -0.3446 -2.5058 0.9785
-4.7809 -0.6874 -2.5057 0.9785
-4.7532 -0.8576 -2.5057 0.9785
-4.7195 -1.0267 -2.5056 0.9785
-4.6798 -1.1944 -2.5056 0.9785
-4.5825 -1.5252 -2.5055 0.9785
-4.4618 -1.8481 -2.5054 0.9785
-4.3183 -2.1616 -2.5052 0.9785
-4.2383 -2.3143 -2.5052 0.9785
-4.0621 -2.6106 -2.5050 0.9785
-3.9662 -2.7538 -2.5049 0.9785
-3.7594 -3.0295 -2.5047 0.9785
-3.6487 -3.1616 -2.5046 0.9785
-3.1611 -3.6481 -2.5042 0.9785
-3.0287 -3.7584 -2.5041 0.9785
-2.8925 -3.8640 -2.5040 0.9785
-2.7526 -3.9646 -2.5039 0.9785
-2.6093 -4.0601 -2.5037 0.9785
-2.4626 -4.1504 -2.5036 0.9785
-2.3127 -4.2355 -2.5035 0.9785
-2.1600 -4.3151 -2.5034 0.9785
-1.8464 -4.4577 -2.5031 0.9785
-1.6861 -4.5205 -2.5030 0.9785
-1.5236 -4.5776 -2.5028 0.9785
-1.1930 -4.6741 -2.5026 0.9785
-1.0253 -4.7135 -2.5024 0.9785
-0.8564 -4.7468 -2.5023 0.9785
-0.6864 -4.7741 -2.5022 0.9785
-0.5155 -4.7953 -2.5020 0.9785
-0.1721 -4.8193 -2.5017 0.9785
0.1721 -4.8187 -2.5015 0.9785
0.3440 -4.8093 -2.5013 0.9785
0.5154 -4.7937 -2.5012 0.9785
0.6861 -4.7720 -2.5011 0.9785
0.8559 -4.7442 -2.5009 0.9785
1.0247 -4.7103 -2.5008 0.9785
1.1921 -4.6705 -2.5007 0.9785
1.6843 -4.5156 -2.5003 0.9785
2.0019 -4.3836 -2.5000 0.9785
2.1570 -4.3091 -2.4999 0.9785
2.3093 -4.2292 -2.4998 0.9785
2.4587 -4.1439 -2.4997 0.9785
2.7478 -3.9576 -2.4995 0.9785
3.0229 -3.7511 -2.4992 0.9785
3.1547 -3.6407 -2.4991 0.9785
3.4061 -3.4061 -2.4990 0.9785
3.6402 -3.1543 -2.4988 0.9785
3.7503 -3.0222 -2.4987 0.9785
3.8557 -2.8863 -2.4986 0.9785
4.0516 -2.6038 -2.4985 0.9785
4.1418 -2.4575 -2.4984 0.9785
4.2268 -2.3080 -2.4984 0.9785
4.3805 -2.0005 -2.4983 0.9785
3.3724 -0.8608 -1.8056 0.9844
3.4457 -0.7496 -1.8294 0.9842
4.7876 -0.5147 -2.4980 0.9785
4.8122 -0.1719 -2.4981 0.9785
-4.4699 -0.9724 -2.5054 0.9794
-4.3890 -1.2887 -2.5054 0.9794
-4.3401 -1.4445 -2.5053 0.9794
-4.0142 -2.1919 -2.5050 0.9794
-3.9333 -2.3337 -2.5049 0.9794
-3.8474 -2.4725 -2.5048 0.9794
-3.7565 -2.6082 -2.5048 0.9794
-3.5606 -2.8694 -2.5046 0.9794
-2.1905 -4.0117 -2.5034 0.9794
-1.7489 -4.2222 -2.5030 0.9794
-1.2873 -4.3843 -2.5027 0.9794
-0.1630 -4.5648 -2.5017 0.9794
0.1630 -4.5643 -2.5015 0.9794
0.3258 -4.5554 -2.5014 0.9794
0.4882 -4.5406 -2.5012 0.9794
0.6499 -4.5200 -2.5011 0.9794
2.0432 -4.0817 -2.5000 0.9794
2.1875 -4.0060 -2.4999 0.9794
2.4674 -3.8394 -2.4997 0.9794
2.6028 -3.7488 -2.4996 0.9794
2.8634 -3.5533 -2.4994 0.9794
2.9883 -3.4487 -2.4993 0.9794
3.1093 -3.3397 -2.4992 0.9794
3.3395 -3.1091 -2.4990 0.9794
3.5525 -2.8628 -2.4989 0.9794
3.7475 -2.6019 -2.4987 0.9794
3.9234 -2.3278 -2.4986 0.9794
4.0039 -2.1863 -2.4986 0.9794
4.0793 -2.0419 -2.4985 0.9794
4.1495 -1.8950 -2.4985 0.9794
4.2144 -1.7457 -2.4984 0.9794
3.2618 -1.2166 -1.9067 0.9842
3.2861 -0.9649 -1.8758 0.9845
3.4641 -0.7536 -1.9417 0.9840
4.5352 -0.4876 -2.4983 0.9794
4.5497 -0.3254 -2.4983 0.9794
4.5584 -0.1628 -2.4983 0.9794
-4.3145 -0.4639 -2.5054 0.9802
-4.2704 -0.7705 -2.5053 0.9802
-4.2401 -0.9224 -2.5053 0.9802
-4.1633 -1.2225 -2.5052 0.9802
-4.1170 -1.3703 -2.5051 0.9802
-4.0654 -1.5163 -2.5051 0.9802
-3.8078 -2.0792 -2.5048 0.9802
-3.7311 -2.2137 -2.5048 0.9802
-3.6496 -2.3454 -2.5047 0.9802
-3.5634 -2.4741 -2.5046 0.9802
-3.4727 -2.5997 -2.5045 0.9802
-3.3776 -2.7219 -2.5045 0.9802
-3.2782 -2.8406 -2.5044 0.9802
-3.0670 -3.0670 -2.5042 0.9802
-2.8402 -3.2777 -2.5040 0.9802
-2.7212 -3.3768 -2.5039 0.9802
-2.4732 -3.5621 -2.5037 0.9802
-2.0780 -3.8055 -2.5033 0.9802
-1.9407 -3.8771 -2.5032 0.9802
-1.8010 -3.9437 -2.5031 0.9802
-1.6591 -4.0053 -2.5030 0.9802
-1.5150 -4.0618 -2.5029 0.9802
-1.0719 -4.1998 -2.5025 0.9802
-0.9213 -4.2352 -2.5024 0.9802
-0.7695 -4.2652 -2.5023 0.9802
-0.4632 -4.3088 -2.5020 0.9802
-0.1547 -4.3304 -2.5018 0.9802
0.1546 -4.3300 -2.5015 0.9802
0.3091 -4.3215 -2.5014 0.9802
0.6165 -4.2880 -2.5011 0.9802
1.0712 -4.1969 -2.5008 0.9802
1.3677 -4.1094 -2.5005 0.9802
1.5135 -4.0578 -2.5004 0.9802
1.7990 -3.9392 -2.5002 0.9802
1.9383 -3.8723 -2.5001 0.9802
2.0752 -3.8005 -2.5000 0.9802
2.2094 -3.7238 -2.4999 0.9802
2.3409 -3.6424 -2.4998 0.9802
2.4693 -3.5564 -2.4997 0.9802
2.7165 -3.3710 -2.4995 0.9802
2.9499 -3.1684 -2.4993 0.9802
3.0610 -3.0610 -2.4993 0.9802
3.1682 -2.9497 -2.4992 0.9802
3.2713 -2.8346 -2.4991 0.9802
3.3703 -2.7160 -2.4990 0.9802
3.7985 -2.0742 -2.4987 0.9802
3.8701 -1.9372 -2.4987 0.9802
3.2806 -1.2236 -2.0215 0.9840
3.2402 -1.0784 -1.9716 0.9844
3.2872 -0.9652 -1.9780 0.9843
3.3864 -0.8643 -2.0178 0.9840
4.2587 -0.7684 -2.4985 0.9802
4.2834 -0.6159 -2.4984 0.9802
4.3026 -0.4626 -2.4984 0.9802
4.3247 -0.1545 -2.4984 0.9802
