ply
format ascii 1.0
element vertex 1224
property float32 x
property float32 y
property float32 z
property float32 I
end_header
-26.0585 -26.0585 6.4981 0.8610
-20.1297 -40.2139 7.9295 0.8331
-16.2124 -39.1402 7.4701 0.8419
-14.4258 -38.6771 7.2787 0.8456
-12.5107 -37.5888 6.9854 0.8514
-7.8258 -35.9747 6.4917 0.8611
-6.4021 -35.4843 6.3579 0.8638
-3.7154 -34.5588 6.1288 0.8683
0.0000 -33.2791 5.8680 0.8736
2.3252 -32.5106 5.7471 0.8760
3.4648 -32.2271 5.7152 0.8766
4.5591 -31.7089 5.6486 0.8780
7.8062 -30.5843 5.5657 0.8797
12.2147 -29.4890 5.6281 0.8784
14.1716 -31.0315 6.0153 0.8706
11.6304 -12.4919 3.0096 0.9330
27.2877 -4.9233 4.8892 0.8935
-24.8170 -41.8268 7.4506 0.8213
-20.1284 -40.2114 6.8888 0.8336
-18.0345 -39.4900 6.6506 0.8389
-14.2416 -38.1832 6.2431 0.8480
-12.5100 -37.5867 6.0686 0.8519
-10.8706 -37.0220 5.9110 0.8554
-7.8587 -36.1257 5.6637 0.8610
-5.0552 -35.1600 5.4417 0.8661
-2.4401 -34.1180 5.2400 0.8707
0.0000 -34.7214 5.3191 0.8689
2.6107 -36.5026 5.6063 0.8624
3.9605 -36.8379 5.6759 0.8608
6.4961 -36.0054 5.6049 0.8624
7.7785 -35.7570 5.6059 0.8624
11.4787 -34.4879 5.5683 0.8632
12.7057 -34.0654 5.5698 0.8632
14.4160 -31.5667 5.3163 0.8690
17.4035 -31.8720 5.5631 0.8633
11.6326 -12.4943 2.6151 0.9333
29.8890 -6.5020 4.6859 0.8836
-20.1115 -17.4267 3.4653 0.8982
-26.0215 -26.0215 4.7921 0.8620
-11.5328 -21.1208 3.1337 0.9075
-16.5328 -36.2019 5.1826 0.8517
-13.4248 -35.9934 5.0025 0.8565
-12.2567 -36.8255 5.0541 0.8551
-11.0047 -37.4787 5.0865 0.8542
-4.2921 -39.9224 5.2287 0.8505
-1.3902 -38.9253 5.0721 0.8546
1.1740 -32.8717 4.2833 0.8757
2.6838 -37.5249 4.8990 0.8592
6.5315 -36.2015 4.7903 0.8621
12.7091 -34.0743 4.7358 0.8636
12.2134 -29.4858 4.1560 0.8792
17.4027 -31.8706 4.7286 0.8637
-44.1583 -9.6060 4.8527 0.8338
-20.6803 -16.6652 2.8520 0.8987
-26.0033 -26.0033 3.9489 0.8625
-27.8380 -40.0944 5.2414 0.8217
-18.0322 -39.4850 4.6612 0.8398
-16.2029 -39.1173 4.5466 0.8434
-12.7089 -38.1842 4.3214 0.8505
-12.5597 -42.7744 4.7871 0.8358
-9.3112 -36.4810 4.0430 0.8594
-9.0415 -41.5633 4.5675 0.8427
-6.4011 -35.4790 3.8713 0.8650
-5.2406 -36.4490 3.9542 0.8623
-4.2934 -39.9348 4.3130 0.8508
-2.4399 -34.1148 3.6727 0.8715
4.0021 -37.2254 4.0204 0.8602
4.5585 -31.7048 3.4395 0.8791
6.5333 -36.2118 3.9513 0.8624
7.8127 -35.9143 3.9467 0.8625
7.8052 -30.5803 3.3890 0.8808
8.8714 -30.2132 3.3813 0.8810
11.5278 -34.6355 3.9198 0.8634
12.7126 -34.0839 3.9063 0.8639
12.2128 -29.4842 3.4269 0.8795
20.4615 -44.8044 5.2891 0.8202
15.9480 -31.8599 3.8258 0.8665
17.4018 -31.8691 3.8991 0.8641
11.6371 -12.4991 1.8339 0.9336
29.8965 -6.5036 3.2854 0.8842
-36.3148 -12.0867 3.2400 0.8576
-19.9715 -18.5941 2.3099 0.8962
-25.9852 -25.9851 3.1109 0.8628
-24.8119 -41.8182 4.1162 0.8227
-11.5048 -21.0695 2.0322 0.9081
-20.1864 -40.3273 3.8176 0.8344
-17.2190 -37.7045 3.5087 0.8467
-16.2029 -39.1173 3.5842 0.8437
-16.5198 -44.2914 4.0017 0.8272
-12.7089 -38.1842 3.4067 0.8508
-9.3108 -36.4792 3.1871 0.8597
-9.0447 -41.5779 3.6020 0.8430
-6.4008 -35.4773 3.0517 0.8653
-4.2947 -39.9472 3.4011 0.8511
0.0000 -38.6131 3.2687 0.8564
4.0033 -37.2361 3.1703 0.8604
7.7858 -35.7908 3.1006 0.8633
7.8048 -30.5790 2.6716 0.8810
8.8710 -30.2119 2.6655 0.8813
11.4882 -34.5163 3.0795 0.8641
12.7162 -34.0935 3.0803 0.8641
12.2121 -29.4826 2.7014 0.8798
15.9472 -31.8585 3.0159 0.8667
17.4011 -31.8676 3.0737 0.8644
29.9002 -6.5044 2.5903 0.8844
-25.9671 -25.9670 2.2772 0.8631
-20.1864 -40.3273 2.7965 0.8347
-10.0642 -34.2757 2.2152 0.8666
-5.2405 -36.4489 2.2834 0.8628
-1.3897 -38.9119 2.4145 0.8555
0.0000 -25.4721 1.5795 0.9030
1.7797 -24.8835 1.5470 0.9049
7.8045 -30.5777 1.9569 0.8812
8.8706 -30.2106 1.9525 0.8815
12.7169 -34.0955 2.2565 0.8643
12.2114 -29.4810 1.9788 0.8800
17.4002 -31.8661 2.2514 0.8646
11.3766 -13.1293 1.0773 0.9327
11.6415 -12.5038 1.0594 0.9338
-25.9491 -25.9491 1.4470 0.8634
-24.8087 -41.8127 1.9171 0.8231
-20.1864 -40.3272 1.7782 0.8348
-16.2029 -39.1172 1.6695 0.8441
-16.4641 -44.1419 1.8577 0.8281
-10.0334 -34.1705 1.4043 0.8671
-9.3098 -36.4755 1.4844 0.8601
-6.4002 -35.4739 1.4214 0.8656
0.0000 -25.4657 1.0041 0.9031
1.1738 -32.8659 1.2968 0.8766
4.5579 -31.7006 1.2628 0.8797
6.5352 -36.2223 1.4513 0.8630
7.7860 -35.7916 1.4443 0.8636
7.8042 -30.5764 1.2443 0.8813
11.4883 -34.5169 1.4344 0.8645
12.7164 -34.0940 1.4348 0.8644
17.3994 -31.8647 1.4316 0.8647
11.3693 -13.1209 0.6846 0.9329
18.9341 -18.9341 1.0558 0.8984
30.0587 -15.0463 1.3254 0.8741
-38.2516 -5.4997 0.6528 0.8568
-25.9506 -25.9506 0.6199 0.8634
-11.4634 -20.9936 0.4040 0.9087
-18.0280 -39.4758 0.7331 0.8406
-16.4456 -44.0925 0.7949 0.8284
-12.5400 -42.7073 0.7519 0.8369
-9.0368 -41.5415 0.7181 0.8436
-6.3999 -35.4721 0.6089 0.8657
-2.4395 -34.1085 0.5776 0.8721
0.0000 -38.4299 0.6492 0.8575
1.1738 -32.8644 0.5555 0.8767
2.6825 -37.5063 0.6352 0.8603
3.8507 -35.8169 0.6085 0.8658
4.5577 -31.6993 0.5410 0.8797
6.5280 -36.1822 0.6211 0.8632
11.4756 -34.4787 0.6138 0.8647
12.7023 -34.0563 0.6140 0.8647
17.3987 -31.8632 0.6132 0.8648
34.8402 -24.1900 0.7165 0.8439
29.9113 -6.5068 0.5171 0.8847
38.4150 -2.7475 0.6506 0.8572
-25.9600 -25.9600 -0.2067 0.8634
-20.1863 -40.3272 -0.2539 0.8349
-18.0269 -39.4735 -0.2443 0.8406
-16.4785 -44.1807 -0.2655 0.8281
-12.7089 -38.1841 -0.2266 0.8513
-12.5395 -42.7056 -0.2502 0.8369
-9.0549 -41.6248 -0.2398 0.8433
-2.4394 -34.1069 -0.1925 0.8722
2.6852 -37.5446 -0.2119 0.8602
3.9897 -37.1099 -0.2101 0.8613
4.5575 -31.6979 -0.1803 0.8798
6.5347 -36.2192 -0.2072 0.8631
8.8695 -30.2068 -0.1772 0.8817
12.7279 -34.1249 -0.2051 0.8644
12.2095 -29.4764 -0.1796 0.8802
15.9444 -31.8527 -0.2005 0.8672
17.3978 -31.8618 -0.2044 0.8648
11.6480 -12.5109 -0.0962 0.9339
29.9149 -6.5076 -0.1724 0.8847
-47.5723 -1.6990 -1.3404 0.8266
-25.9694 -25.9694 -1.0341 0.8633
-24.8038 -41.8046 -1.3687 0.8232
-11.4360 -20.9435 -0.6719 0.9089
-18.0259 -39.4712 -1.2218 0.8406
-9.0545 -41.6227 -1.1994 0.8433
-4.2946 -39.9459 -1.1313 0.8515
1.1736 -32.8615 -0.9259 0.8767
4.5573 -31.6966 -0.9017 0.8797
6.5344 -36.2177 -1.0363 0.8631
7.8032 -30.5725 -0.8885 0.8814
12.7274 -34.1234 -1.0255 0.8644
15.9436 -31.8513 -1.0030 0.8672
17.3971 -31.8603 -1.0221 0.8648
11.6502 -12.5132 -0.4814 0.9339
34.8402 -24.1900 -1.1943 0.8439
45.8911 -4.9338 -1.2996 0.8314
39.5851 -2.8312 -1.1175 0.8532
-45.8256 -1.6366 -2.3255 0.8322
-45.7957 -3.2754 -2.3284 0.8320
-38.1591 -5.4864 -1.9551 0.8569
-45.3577 -8.1834 -2.3374 0.8314
-47.2731 -13.8806 -2.4986 0.8209
-46.2844 -17.2632 -2.5052 0.8205
-45.0536 -20.5753 -2.5118 0.8201
-44.3489 -22.1995 -2.5152 0.8198
-40.9501 -28.4322 -2.5282 0.8190
-36.5482 -29.4524 -2.3804 0.8286
-27.6249 -25.7197 -1.9142 0.8597
-25.3150 -25.3150 -1.8156 0.8664
-24.8242 -26.6631 -1.8475 0.8642
-26.1829 -30.2167 -2.0277 0.8520
-27.6698 -34.3361 -2.2364 0.8381
-27.3717 -39.4228 -2.4339 0.8251
-26.0358 -40.5125 -2.4423 0.8246
-20.1863 -40.3271 -2.2871 0.8348
-18.0248 -39.4689 -2.2005 0.8405
-16.2028 -39.1171 -2.1472 0.8440
-12.7088 -38.1840 -2.0409 0.8511
-9.3079 -36.4681 -1.9088 0.8601
-6.3989 -35.4670 -1.8277 0.8656
-1.3909 -38.9445 -1.9763 0.8555
0.0000 -38.5037 -1.9527 0.8571
1.1736 -32.8601 -1.6675 0.8766
4.5571 -31.6952 -1.6239 0.8796
7.8028 -30.5712 -1.6001 0.8813
8.8688 -30.2042 -1.5965 0.8815
11.6524 -12.5156 -0.8672 0.9338
29.8808 -24.0794 -1.9462 0.8575
35.2342 -19.2393 -2.0359 0.8515
43.5550 -21.8021 -2.4701 0.8228
37.6310 -17.1855 -2.0980 0.8473
44.7216 -18.5243 -2.4549 0.8238
45.2080 -16.8617 -2.4470 0.8243
31.7581 -9.3250 -1.6786 0.8758
46.7676 -6.7242 -2.3962 0.8276
39.5197 -2.8265 -2.0093 0.8533
-33.8482 0.0000 -2.4818 0.8731
-33.8558 -1.2091 -2.4840 0.8730
-33.8207 -2.4189 -2.4861 0.8728
-33.7426 -3.6277 -2.4883 0.8727
-33.4576 -6.0364 -2.4928 0.8725
-33.2508 -7.2333 -2.4950 0.8724
-31.1230 -14.2134 -2.5087 0.8718
-30.6237 -15.3292 -2.5110 0.8717
-30.0842 -16.4272 -2.5133 0.8716
-29.5053 -17.5063 -2.5155 0.8714
-28.2314 -19.6014 -2.5200 0.8712
-26.8078 -21.6031 -2.5244 0.8710
-25.1851 -23.4481 -2.5231 0.8711
-19.4881 -26.0331 -2.3844 0.8777
-18.5605 -26.7321 -2.3862 0.8776
-17.6073 -27.3976 -2.3879 0.8776
-12.6911 -21.3897 -1.8236 0.9051
-11.4087 -20.8935 -1.7455 0.9089
-11.1460 -22.2669 -1.8258 0.9050
-13.6447 -29.8777 -2.4083 0.8766
-12.5944 -30.4056 -2.4131 0.8763
-10.4318 -31.3426 -2.4221 0.8759
-9.3228 -31.7503 -2.4263 0.8757
-7.0567 -32.4393 -2.4341 0.8753
-4.1396 -22.9444 -1.7095 0.9107
-3.5635 -33.1457 -2.4443 0.8748
-1.1926 -33.3930 -2.4500 0.8746
1.1735 -32.8586 -2.4108 0.8765
2.3903 -33.4205 -2.4567 0.8743
4.5569 -31.6938 -2.3478 0.8795
7.1380 -32.8128 -2.4622 0.8740
7.8025 -30.5699 -2.3133 0.8811
8.8684 -30.2029 -2.3080 0.8814
11.7415 -31.4801 -2.4635 0.8739
12.2076 -29.4717 -2.3390 0.8799
15.0289 -30.0239 -2.4618 0.8740
19.1027 -27.5131 -2.4559 0.8743
23.5609 -23.5609 -2.4431 0.8749
25.1129 -21.7605 -2.4364 0.8752
25.8349 -20.8190 -2.4328 0.8754
26.5191 -19.8519 -2.4289 0.8756
19.8179 -13.7598 -1.7690 0.9078
27.7727 -17.8485 -2.4206 0.8760
28.3405 -16.8152 -2.4162 0.8762
28.8679 -15.7630 -2.4117 0.8764
29.3542 -14.6937 -2.4069 0.8766
25.7975 -11.7813 -2.0794 0.8925
30.2020 -12.5101 -2.3969 0.8771
30.5628 -11.3993 -2.3917 0.8774
30.8810 -10.2782 -2.3864 0.8776
29.1737 -6.3464 -2.1891 0.8871
29.7629 -5.3698 -2.2175 0.8858
32.2004 -3.4619 -2.3746 0.8782
-25.8997 0.0000 -2.4865 0.9012
-25.8681 -1.8501 -2.4898 0.9010
-25.8030 -2.7741 -2.4915 0.9010
-25.7050 -3.6958 -2.4932 0.9009
-25.5743 -4.6141 -2.4949 0.9008
-25.2148 -6.4357 -2.4983 0.9007
-23.7540 -10.8481 -2.5071 0.9004
-22.5048 -13.3527 -2.5123 0.9002
-22.0289 -14.1571 -2.5140 0.9001
-17.9249 -19.2527 -2.5254 0.8997
-17.2368 -19.8924 -2.5270 0.8996
-16.4784 -20.4485 -2.5213 0.8998
-14.9374 -19.9541 -2.3930 0.9047
-14.1232 -20.3412 -2.3774 0.9053
-13.3956 -20.8440 -2.3787 0.9052
-11.9128 -20.0780 -2.2413 0.9105
-10.8281 -19.8303 -2.1691 0.9132
-9.5059 -22.9492 -2.3848 0.9050
-7.8514 -23.5898 -2.3869 0.9049
-7.0095 -23.8721 -2.3886 0.9049
-6.1606 -24.1371 -2.3916 0.9047
-5.3014 -24.3704 -2.3944 0.9046
-4.4332 -24.5715 -2.3971 0.9045
-2.6744 -24.8755 -2.4019 0.9044
3.5777 -24.8834 -2.4135 0.9039
5.3474 -24.5817 -2.4152 0.9039
6.2228 -24.3807 -2.4157 0.9038
7.0901 -24.1466 -2.4161 0.9038
7.9479 -23.8795 -2.4162 0.9038
8.7950 -23.5803 -2.4162 0.9038
9.6302 -23.2493 -2.4160 0.9038
14.3206 -20.6256 -2.4106 0.9040
9.5651 -11.8695 -1.4635 0.9406
11.6568 -12.5203 -1.6423 0.9336
18.2878 -17.0265 -2.3989 0.9045
19.4132 -15.6441 -2.3936 0.9047
20.0148 -13.8965 -2.3393 0.9067
20.9051 -13.4349 -2.3857 0.9050
21.3616 -12.6744 -2.3846 0.9050
21.7900 -11.8982 -2.3835 0.9051
22.5607 -10.3031 -2.3811 0.9051
23.2134 -8.6582 -2.3786 0.9052
23.4945 -7.8197 -2.3772 0.9053
23.9883 -6.1227 -2.3768 0.9053
25.8853 -4.6702 -2.5252 0.8997
26.2194 -0.9364 -2.5188 0.8999
-20.9261 -1.4967 -2.4921 0.9190
-20.8708 -2.2438 -2.4934 0.9189
-20.7888 -2.9890 -2.4948 0.9189
-19.1905 -8.7640 -2.5060 0.9185
-18.5371 -10.1221 -2.5088 0.9184
-16.9450 -12.6849 -2.5143 0.9183
-15.5164 -14.4463 -2.5183 0.9181
-14.9986 -14.9986 -2.5196 0.9181
-12.7362 -17.0136 -2.5245 0.9180
-11.5005 -17.8951 -2.5268 0.9179
-9.9119 -18.1523 -2.4568 0.9201
-8.9537 -17.8873 -2.3761 0.9226
-8.3129 -18.2026 -2.3770 0.9226
-5.6458 -19.2278 -2.3804 0.9225
-4.9575 -19.4232 -2.3812 0.9224
-0.7166 -20.0637 -2.3848 0.9223
0.7168 -20.0709 -2.3857 0.9223
2.8593 -19.8870 -2.3866 0.9223
6.3479 -19.0725 -2.3877 0.9222
7.0246 -18.8336 -2.3877 0.9222
7.6918 -18.5696 -2.3875 0.9222
8.1729 -17.8961 -2.3370 0.9238
10.2508 -17.2768 -2.3863 0.9223
10.8595 -16.8977 -2.3860 0.9223
8.5681 -12.3404 -1.7845 0.9413
9.0243 -12.0551 -1.7888 0.9411
11.7818 -11.7818 -1.9792 0.9351
12.4313 -11.5740 -2.0176 0.9339
15.1536 -13.1307 -2.3818 0.9224
15.6080 -12.5777 -2.3811 0.9224
16.0418 -12.0087 -2.3803 0.9225
17.2155 -10.2144 -2.3778 0.9225
17.5623 -9.5898 -2.3769 0.9226
18.1870 -8.3057 -2.3750 0.9226
18.9904 -7.8661 -2.4417 0.9205
19.8837 -7.4162 -2.5208 0.9181
20.1731 -6.7142 -2.5255 0.9179
21.1339 -1.5115 -2.5168 0.9182
21.1633 -0.7558 -2.5155 0.9182
-17.5801 -0.6279 -2.4925 0.9314
-17.3437 -3.1291 -2.4971 0.9313
-17.2290 -3.7479 -2.4983 0.9312
-16.7533 -5.5760 -2.5018 0.9312
-16.5514 -6.1734 -2.5030 0.9311
-16.0840 -7.3453 -2.5053 0.9311
-15.5336 -8.4820 -2.5077 0.9310
-15.2280 -9.0352 -2.5088 0.9310
-14.1943 -10.6258 -2.5123 0.9309
-13.4121 -11.6216 -2.5145 0.9308
-12.9944 -12.0982 -2.5156 0.9308
-11.1589 -13.8474 -2.5198 0.9307
-10.6617 -14.2425 -2.5208 0.9306
-10.1505 -14.6196 -2.5218 0.9306
-8.5389 -15.6379 -2.5245 0.9305
-7.9781 -15.9382 -2.5254 0.9305
-5.5200 -16.5848 -2.4766 0.9318
-4.7980 -16.3404 -2.4130 0.9335
-4.1471 -16.2481 -2.3760 0.9345
-3.5654 -16.3899 -2.3766 0.9345
-2.3882 -16.6101 -2.3777 0.9345
-1.7942 -16.6882 -2.3782 0.9344
-1.1976 -16.7448 -2.3786 0.9344
0.5995 -16.7848 -2.3797 0.9344
1.5888 -14.7777 -2.1059 0.9417
2.5991 -14.4059 -2.0741 0.9426
4.1557 -16.2819 -2.3809 0.9344
4.7343 -16.1236 -2.3810 0.9344
5.3068 -15.9445 -2.3810 0.9344
5.8725 -15.7448 -2.3810 0.9344
6.4306 -15.5247 -2.3809 0.9344
6.9803 -15.2846 -2.3808 0.9344
8.5721 -14.4476 -2.3803 0.9344
9.0813 -14.1308 -2.3800 0.9344
10.4730 -12.0865 -2.2660 0.9374
13.9332 -9.6740 -2.4034 0.9338
15.2995 -9.0776 -2.5206 0.9307
15.9375 -7.9777 -2.5253 0.9305
16.8863 -5.6203 -2.5216 0.9306
17.0695 -5.0121 -2.5207 0.9307
17.2307 -4.3979 -2.5197 0.9307
17.5803 -2.5277 -2.5165 0.9308
17.6517 -1.8977 -2.5155 0.9308
17.7005 -1.2660 -2.5144 0.9308
17.7266 -0.6331 -2.5133 0.9308
-15.1319 0.0000 -2.4928 0.9405
-15.1281 -0.5403 -2.4938 0.9405
-15.0629 -1.6194 -2.4957 0.9404
-14.8212 -3.2242 -2.4987 0.9404
-14.4092 -4.7958 -2.5018 0.9403
-13.8308 -6.3163 -2.5048 0.9402
-13.3557 -7.2928 -2.5068 0.9402
-13.0921 -7.7679 -2.5078 0.9402
-12.8116 -8.2335 -2.5088 0.9401
-12.5144 -8.6890 -2.5098 0.9401
-12.2011 -9.1336 -2.5108 0.9401
-11.8719 -9.5670 -2.5118 0.9401
-11.5272 -9.9884 -2.5127 0.9400
-10.0030 -11.5440 -2.5164 0.9400
-9.5879 -11.8978 -2.5173 0.9399
-8.2693 -12.8673 -2.5198 0.9399
-7.8072 -13.1584 -2.5205 0.9399
-7.3348 -13.4328 -2.5213 0.9398
-6.8527 -13.6900 -2.5221 0.9398
-5.3544 -14.3559 -2.5241 0.9398
-3.7919 -14.8566 -2.5259 0.9397
-3.2599 -14.9857 -2.5265 0.9397
-2.1799 -15.1616 -2.5234 0.9398
-1.0729 -15.0015 -2.4776 0.9409
-0.5291 -14.8149 -2.4422 0.9417
0.0000 -14.6328 -2.4106 0.9424
0.5163 -14.4549 -2.3828 0.9430
3.5676 -13.9777 -2.3765 0.9432
4.0643 -13.8417 -2.3765 0.9432
5.9924 -13.1216 -2.3764 0.9432
6.9124 -12.6592 -2.3761 0.9432
7.7965 -12.1316 -2.3757 0.9432
8.2237 -11.8443 -2.3754 0.9432
9.6868 -11.1791 -2.4368 0.9418
10.2237 -10.9811 -2.4717 0.9410
12.8892 -8.2834 -2.5240 0.9398
13.4400 -7.3388 -2.5227 0.9398
13.9213 -6.3576 -2.5212 0.9398
14.9252 -3.2468 -2.5163 0.9400
15.0262 -2.7110 -2.5154 0.9400
15.1702 -1.6310 -2.5135 0.9400
-13.2643 -0.4737 -2.4948 0.9474
-13.2435 -0.9472 -2.4956 0.9474
-13.1513 -1.8909 -2.4974 0.9474
-13.0800 -2.3599 -2.4982 0.9473
-12.9921 -2.8262 -2.4991 0.9473
-12.7664 -3.7486 -2.5009 0.9473
-12.6290 -4.2033 -2.5018 0.9473
-12.4753 -4.6531 -2.5027 0.9473
-12.3057 -5.0972 -2.5036 0.9472
-11.2248 -7.2138 -2.5080 0.9471
-10.9640 -7.6124 -2.5088 0.9471
-10.6889 -8.0016 -2.5097 0.9471
-10.4000 -8.3809 -2.5105 0.9471
-10.0976 -8.7496 -2.5114 0.9471
-9.4538 -9.4538 -2.5130 0.9470
-8.3969 -10.4199 -2.5153 0.9470
-7.6366 -10.9989 -2.5168 0.9470
-6.8363 -11.5220 -2.5182 0.9469
-6.4224 -11.7618 -2.5189 0.9469
-6.0001 -11.9866 -2.5195 0.9469
-5.5698 -12.1962 -2.5201 0.9469
-5.1322 -12.3902 -2.5207 0.9469
-4.6877 -12.5684 -2.5213 0.9469
-4.2371 -12.7305 -2.5219 0.9469
-3.3195 -13.0056 -2.5229 0.9468
-2.3841 -13.2141 -2.5238 0.9468
-1.9112 -13.2930 -2.5242 0.9468
-1.4358 -13.3548 -2.5246 0.9468
1.4368 -13.3638 -2.5263 0.9468
1.9130 -13.3049 -2.5265 0.9468
3.3232 -13.0201 -2.5257 0.9468
4.2422 -12.7459 -2.5249 0.9468
5.5817 -12.2223 -2.5255 0.9468
6.4419 -11.7974 -2.5265 0.9468
6.8584 -11.5592 -2.5263 0.9468
7.6642 -11.0385 -2.5259 0.9468
8.0524 -10.7567 -2.5256 0.9468
8.4302 -10.4612 -2.5253 0.9468
8.7970 -10.1523 -2.5250 0.9468
9.1525 -9.8304 -2.5246 0.9468
9.4960 -9.4960 -2.5242 0.9468
10.1458 -8.7913 -2.5233 0.9468
10.4511 -8.4220 -2.5228 0.9468
11.0208 -7.6519 -2.5218 0.9469
11.2843 -7.2520 -2.5213 0.9469
11.5333 -6.8431 -2.5207 0.9469
12.1896 -5.5668 -2.5188 0.9469
12.3772 -5.1268 -2.5181 0.9469
12.5489 -4.6805 -2.5174 0.9469
12.8434 -3.7712 -2.5160 0.9470
13.0719 -2.8436 -2.5145 0.9470
13.2331 -1.9026 -2.5129 0.9470
13.3264 -0.9531 -2.5112 0.9471
-11.8024 0.0000 -2.4948 0.9529
-11.7794 -0.8425 -2.4963 0.9529
-11.6965 -1.6817 -2.4978 0.9528
-11.5540 -2.5134 -2.4994 0.9528
-11.4605 -2.9251 -2.5002 0.9528
-11.3524 -3.3334 -2.5010 0.9528
-11.2297 -3.7376 -2.5018 0.9528
-11.0927 -4.1374 -2.5026 0.9527
-10.1978 -6.0507 -2.5065 0.9527
-9.2442 -7.4494 -2.5095 0.9526
-8.4022 -8.4022 -2.5117 0.9526
-8.0992 -8.6992 -2.5124 0.9526
-7.4621 -9.2599 -2.5138 0.9525
-6.7860 -9.7738 -2.5151 0.9525
-6.4345 -10.0122 -2.5158 0.9525
-5.3311 -10.6502 -2.5175 0.9525
-4.9487 -10.8361 -2.5181 0.9525
-4.1648 -11.1662 -2.5191 0.9524
-3.3588 -11.4392 -2.5201 0.9524
-2.9489 -11.5538 -2.5205 0.9524
-1.6978 -11.8084 -2.5217 0.9524
-1.2754 -11.8631 -2.5221 0.9524
-0.8513 -11.9026 -2.5224 0.9524
-0.4260 -11.9268 -2.5227 0.9524
0.0000 -11.9357 -2.5230 0.9524
1.2762 -11.8703 -2.5236 0.9524
1.6991 -11.8179 -2.5237 0.9524
2.5381 -11.6676 -2.5240 0.9524
2.9530 -11.5699 -2.5240 0.9524
3.3642 -11.4573 -2.5241 0.9524
3.7710 -11.3300 -2.5241 0.9524
5.3445 -10.6770 -2.5239 0.9524
5.7219 -10.4789 -2.5237 0.9524
6.0919 -10.2673 -2.5236 0.9524
6.4540 -10.0426 -2.5234 0.9524
7.1527 -9.5549 -2.5229 0.9524
7.4884 -9.2925 -2.5227 0.9524
8.1302 -8.7324 -2.5220 0.9524
8.4355 -8.4355 -2.5217 0.9524
10.0255 -6.4430 -2.5191 0.9524
10.2469 -6.0798 -2.5186 0.9525
10.4552 -5.7090 -2.5180 0.9525
10.6499 -5.3310 -2.5175 0.9525
11.1508 -4.1590 -2.5157 0.9525
11.2893 -3.7574 -2.5150 0.9525
11.4133 -3.3512 -2.5144 0.9525
11.6171 -2.5271 -2.5130 0.9526
11.7612 -1.6910 -2.5116 0.9526
11.8450 -0.8472 -2.5102 0.9526
-10.6180 0.0000 -2.4955 0.9573
-10.6141 -0.3791 -2.4962 0.9573
-10.5215 -1.5128 -2.4982 0.9573
-10.4637 -1.8879 -2.4989 0.9573
-10.3926 -2.2608 -2.4996 0.9572
-10.3082 -2.6310 -2.5003 0.9572
-9.9764 -3.7210 -2.5025 0.9572
-9.8401 -4.0759 -2.5032 0.9572
-9.5296 -4.7702 -2.5046 0.9572
-9.3559 -5.1087 -2.5053 0.9571
-8.9726 -5.7664 -2.5067 0.9571
-8.7635 -6.0846 -2.5074 0.9571
-8.0694 -6.9922 -2.5094 0.9571
-6.7082 -8.3243 -2.5126 0.9570
-6.4083 -8.5605 -2.5132 0.9570
-5.7839 -8.9999 -2.5143 0.9570
-5.4602 -9.2027 -2.5149 0.9570
-5.1293 -9.3937 -2.5154 0.9570
-4.7918 -9.5727 -2.5159 0.9570
-4.4479 -9.7396 -2.5164 0.9570
-4.0982 -9.8940 -2.5169 0.9570
-3.7432 -10.0359 -2.5174 0.9569
-3.3832 -10.1648 -2.5178 0.9569
-2.6503 -10.3837 -2.5186 0.9569
-1.9033 -10.5494 -2.5194 0.9569
-1.5258 -10.6120 -2.5197 0.9569
-1.1462 -10.6610 -2.5200 0.9569
-0.7650 -10.6963 -2.5203 0.9569
0.3829 -10.7199 -2.5210 0.9569
0.7653 -10.7002 -2.5212 0.9569
2.6536 -10.3966 -2.5218 0.9569
3.0230 -10.2954 -2.5218 0.9569
4.1062 -9.9131 -2.5218 0.9569
5.1417 -9.4164 -2.5215 0.9569
5.4742 -9.2263 -2.5214 0.9569
6.7294 -8.3506 -2.5205 0.9569
7.3063 -7.8476 -2.5200 0.9569
7.5808 -7.5808 -2.5197 0.9569
7.8455 -7.3045 -2.5193 0.9569
8.3442 -6.7242 -2.5186 0.9569
9.2099 -5.4645 -2.5169 0.9570
9.3972 -5.1313 -2.5164 0.9570
9.5725 -4.7917 -2.5159 0.9570
9.7354 -4.4460 -2.5154 0.9570
9.8858 -4.0948 -2.5148 0.9570
10.2599 -3.0126 -2.5131 0.9570
10.3584 -2.6438 -2.5125 0.9570
10.4436 -2.2719 -2.5119 0.9570
10.5738 -1.5203 -2.5106 0.9571
10.6186 -1.1416 -2.5100 0.9571
10.6498 -0.7617 -2.5093 0.9571
10.6673 -0.3810 -2.5087 0.9571
-9.6403 0.0000 -2.4961 0.9610
-9.5517 -1.3733 -2.4985 0.9609
-9.4991 -1.7138 -2.4992 0.9609
-9.4342 -2.0523 -2.4998 0.9609
-9.1679 -3.0514 -2.5018 0.9609
-9.0555 -3.3775 -2.5024 0.9609
-8.4914 -4.6366 -2.5050 0.9608
-8.1431 -5.2332 -2.5062 0.9608
-7.7528 -5.8037 -2.5075 0.9608
-7.5426 -6.0782 -2.5081 0.9608
-6.8545 -6.8545 -2.5099 0.9607
-6.3509 -7.3294 -2.5110 0.9607
-5.2477 -8.1656 -2.5132 0.9607
-4.9539 -8.3493 -2.5137 0.9607
-4.6536 -8.5225 -2.5141 0.9607
-4.3473 -8.6847 -2.5146 0.9607
-4.0352 -8.8360 -2.5151 0.9607
-3.7179 -8.9759 -2.5155 0.9607
-3.0691 -9.2213 -2.5163 0.9606
-2.0667 -9.5006 -2.5174 0.9606
-1.3840 -9.6262 -2.5180 0.9606
0.0000 -9.7291 -2.5190 0.9606
0.6942 -9.7057 -2.5194 0.9606
1.3849 -9.6325 -2.5197 0.9606
1.7279 -9.5773 -2.5198 0.9606
2.0687 -9.5099 -2.5199 0.9606
2.7420 -9.3384 -2.5199 0.9606
3.0736 -9.2346 -2.5200 0.9606
3.4012 -9.1190 -2.5199 0.9606
3.7245 -8.9916 -2.5199 0.9606
4.0429 -8.8527 -2.5198 0.9606
4.3562 -8.7025 -2.5198 0.9606
4.6638 -8.5411 -2.5197 0.9606
5.2607 -8.1857 -2.5194 0.9606
5.5491 -7.9922 -2.5192 0.9606
5.8304 -7.7884 -2.5190 0.9606
7.3479 -6.3670 -2.5174 0.9606
8.5254 -4.6552 -2.5150 0.9607
8.8325 -4.0337 -2.5141 0.9607
8.9691 -3.7151 -2.5136 0.9607
9.0942 -3.3920 -2.5131 0.9607
9.2076 -3.0646 -2.5126 0.9607
9.3091 -2.7334 -2.5121 0.9607
9.3987 -2.3989 -2.5115 0.9607
9.4763 -2.0614 -2.5110 0.9607
9.5416 -1.7215 -2.5104 0.9607
9.6357 -1.0359 -2.5092 0.9607
9.6804 -0.3457 -2.5080 0.9608
-8.8188 0.0000 -2.4965 0.9640
-8.8003 -0.6294 -2.4977 0.9640
-8.5587 -2.1845 -2.5006 0.9639
-8.2820 -3.0890 -2.5023 0.9639
-8.0443 -3.6737 -2.5035 0.9639
-7.9099 -3.9594 -2.5041 0.9639
-7.6108 -4.5157 -2.5053 0.9639
-7.4465 -4.7856 -2.5059 0.9639
-7.2726 -5.0495 -2.5064 0.9639
-6.6957 -5.8018 -2.5081 0.9638
-5.8068 -6.7014 -2.5102 0.9638
-5.5650 -6.9057 -2.5107 0.9638
-4.7977 -7.4653 -2.5122 0.9638
-3.1043 -8.3229 -2.5147 0.9637
-2.5033 -8.5256 -2.5154 0.9637
-2.1977 -8.6106 -2.5157 0.9637
-1.8892 -8.6846 -2.5161 0.9637
-0.9504 -8.8397 -2.5169 0.9637
-0.6343 -8.8689 -2.5171 0.9637
0.0000 -8.8930 -2.5175 0.9637
0.6345 -8.8715 -2.5179 0.9637
1.2659 -8.8045 -2.5181 0.9637
3.4043 -8.2187 -2.5183 0.9637
3.6954 -8.0917 -2.5183 0.9637
4.2629 -7.8070 -2.5181 0.9637
4.5387 -7.6495 -2.5180 0.9637
4.8085 -7.4822 -2.5179 0.9637
5.0722 -7.3053 -2.5177 0.9637
5.3293 -7.1191 -2.5175 0.9637
5.5796 -6.9238 -2.5173 0.9637
6.5056 -6.0569 -2.5163 0.9637
6.7168 -5.8202 -2.5160 0.9637
6.9194 -5.5760 -2.5157 0.9637
7.1131 -5.3248 -2.5154 0.9637
7.6382 -4.5319 -2.5143 0.9638
8.5932 -2.1933 -2.5107 0.9638
8.6643 -1.8848 -2.5102 0.9638
8.7730 -1.2614 -2.5091 0.9638
8.8106 -0.9472 -2.5086 0.9638
8.8368 -0.6320 -2.5080 0.9638
-8.1008 -0.5794 -2.4980 0.9666
-8.0422 -1.1563 -2.4990 0.9666
-7.9975 -1.4429 -2.4996 0.9666
-7.9427 -1.7278 -2.5001 0.9666
-7.8776 -2.0106 -2.5007 0.9665
-7.7175 -2.5686 -2.5018 0.9665
-7.5178 -3.1140 -2.5028 0.9665
-7.1465 -3.9023 -2.5045 0.9665
-6.8528 -4.4040 -2.5055 0.9665
-6.6927 -4.6468 -2.5061 0.9665
-5.9681 -5.5565 -2.5081 0.9665
-5.7671 -5.7671 -2.5086 0.9664
-5.5587 -5.9704 -2.5091 0.9664
-5.3430 -6.1662 -2.5095 0.9664
-3.6565 -7.3048 -2.5126 0.9664
-3.1270 -7.5493 -2.5133 0.9664
-2.8560 -7.6572 -2.5137 0.9664
-1.7380 -7.9896 -2.5149 0.9664
-0.8743 -8.1321 -2.5157 0.9664
-0.0000 -8.1809 -2.5163 0.9663
0.2920 -8.1762 -2.5164 0.9663
0.8746 -8.1355 -2.5167 0.9663
1.1645 -8.0994 -2.5168 0.9663
1.7395 -7.9962 -2.5170 0.9663
2.0238 -7.9291 -2.5170 0.9663
3.1316 -7.5604 -2.5170 0.9663
3.3994 -7.4437 -2.5170 0.9663
4.1752 -7.0369 -2.5167 0.9663
4.9026 -6.5491 -2.5163 0.9663
5.1329 -6.3695 -2.5161 0.9663
5.3565 -6.1817 -2.5159 0.9663
5.9849 -5.5721 -2.5152 0.9664
6.3657 -5.1298 -2.5146 0.9664
6.5440 -4.8988 -2.5143 0.9664
6.7138 -4.6615 -2.5140 0.9664
7.0273 -4.1695 -2.5133 0.9664
7.1706 -3.9154 -2.5129 0.9664
7.4293 -3.3929 -2.5121 0.9664
7.8312 -2.2995 -2.5104 0.9664
8.0277 -1.4484 -2.5090 0.9664
8.0727 -1.1607 -2.5085 0.9664
8.1317 -0.5816 -2.5075 0.9665
8.1457 -0.2909 -2.5070 0.9665
-7.4966 -0.5362 -2.4983 0.9688
-7.4741 -0.8035 -2.4988 0.9688
-7.4421 -1.0700 -2.4992 0.9688
-7.1411 -2.3768 -2.5017 0.9688
-7.0531 -2.6307 -2.5023 0.9688
-6.9561 -2.8813 -2.5028 0.9688
-6.8502 -3.1284 -2.5033 0.9688
-6.7355 -3.3716 -2.5038 0.9687
-6.6122 -3.6105 -2.5043 0.9687
-6.4804 -3.8450 -2.5048 0.9687
-6.3403 -4.0746 -2.5052 0.9687
-6.0358 -4.5183 -2.5062 0.9687
-5.7002 -4.9393 -2.5072 0.9687
-5.1424 -5.5233 -2.5085 0.9687
-4.9428 -5.7043 -2.5090 0.9687
-4.5248 -6.0445 -2.5098 0.9687
-3.6208 -6.6310 -2.5114 0.9687
-2.8925 -6.9830 -2.5124 0.9686
-2.6417 -7.0827 -2.5128 0.9686
-2.3875 -7.1734 -2.5131 0.9686
-1.8701 -7.3271 -2.5137 0.9686
-1.3429 -7.4434 -2.5142 0.9686
-0.8087 -7.5216 -2.5146 0.9686
-0.5397 -7.5463 -2.5148 0.9686
-0.2700 -7.5613 -2.5150 0.9686
0.2701 -7.5622 -2.5153 0.9686
0.5399 -7.5482 -2.5155 0.9686
1.0771 -7.4911 -2.5157 0.9686
1.3438 -7.4481 -2.5158 0.9686
2.1324 -7.2622 -2.5159 0.9686
2.3902 -7.1814 -2.5159 0.9686
4.0913 -6.3661 -2.5155 0.9686
4.7475 -5.8912 -2.5150 0.9686
5.1548 -5.5367 -2.5146 0.9686
5.3487 -5.3487 -2.5144 0.9686
6.2101 -4.3117 -2.5130 0.9686
6.3592 -4.0868 -2.5127 0.9686
6.5002 -3.8567 -2.5124 0.9686
6.7569 -3.3823 -2.5117 0.9687
7.2445 -2.1272 -2.5098 0.9687
7.3752 -1.6044 -2.5089 0.9687
7.5005 -0.8064 -2.5076 0.9687
7.5361 -0.2692 -2.5066 0.9687
-6.9810 -0.2493 -2.4981 0.9708
-6.9480 -0.7470 -2.4990 0.9708
-6.9182 -0.9947 -2.4994 0.9707
-6.8795 -1.2412 -2.4999 0.9707
-6.7760 -1.7295 -2.5008 0.9707
-6.6378 -2.2093 -2.5017 0.9707
-6.5559 -2.4452 -2.5022 0.9707
-6.3672 -2.9078 -2.5031 0.9707
-6.1458 -3.3559 -2.5041 0.9707
-6.0232 -3.5737 -2.5045 0.9707
-5.4572 -4.3977 -2.5063 0.9707
-5.2977 -4.5905 -2.5068 0.9707
-4.7791 -5.1331 -2.5080 0.9706
-4.4021 -5.4627 -2.5089 0.9706
-4.0024 -5.7646 -2.5096 0.9706
-3.5820 -6.0372 -2.5104 0.9706
-3.1431 -6.2791 -2.5110 0.9706
-2.4548 -6.5815 -2.5120 0.9706
-1.2479 -6.9164 -2.5133 0.9706
-1.0003 -6.9572 -2.5135 0.9706
-0.7514 -6.9890 -2.5137 0.9706
-0.5015 -7.0119 -2.5139 0.9706
-0.2509 -7.0258 -2.5141 0.9706
-0.0000 -7.0307 -2.5142 0.9706
0.2510 -7.0266 -2.5144 0.9706
1.2486 -6.9205 -2.5148 0.9706
1.9813 -6.7477 -2.5149 0.9706
2.2209 -6.6727 -2.5149 0.9706
3.3701 -6.1718 -2.5147 0.9706
3.5881 -6.0474 -2.5146 0.9706
3.8015 -5.9152 -2.5145 0.9706
4.6035 -5.3127 -2.5139 0.9706
4.7898 -5.1446 -2.5137 0.9706
5.1438 -4.7890 -2.5133 0.9706
5.3109 -4.6019 -2.5130 0.9706
5.4712 -4.4090 -2.5128 0.9706
5.7706 -4.0066 -2.5122 0.9706
6.0403 -3.5839 -2.5116 0.9706
6.1636 -3.3656 -2.5113 0.9706
6.2790 -3.1430 -2.5110 0.9706
6.3863 -2.9165 -2.5107 0.9706
6.4854 -2.6863 -2.5103 0.9706
6.6586 -2.2162 -2.5096 0.9706
6.7324 -1.9768 -2.5092 0.9706
6.9407 -0.9979 -2.5076 0.9707
6.9707 -0.7494 -2.5071 0.9707
6.9918 -0.5001 -2.5067 0.9707
-6.5151 -0.2327 -2.4983 0.9725
-6.5037 -0.4652 -2.4987 0.9725
-6.4841 -0.6971 -2.4991 0.9725
-6.4201 -1.1583 -2.5000 0.9724
-6.2627 -1.8389 -2.5013 0.9724
-6.1177 -2.2818 -2.5022 0.9724
-5.9414 -2.7134 -2.5031 0.9724
-5.8418 -2.9242 -2.5035 0.9724
-5.7347 -3.1314 -2.5039 0.9724
-5.6202 -3.3346 -2.5043 0.9724
-5.3698 -3.7284 -2.5052 0.9724
-5.0919 -4.1033 -2.5060 0.9724
-4.9430 -4.2831 -2.5064 0.9724
-4.7877 -4.4575 -2.5068 0.9724
-4.6263 -4.6263 -2.5072 0.9724
-4.2858 -4.9461 -2.5080 0.9724
-4.1071 -5.0966 -2.5084 0.9724
-3.7341 -5.3782 -2.5091 0.9723
-3.1391 -5.7489 -2.5101 0.9723
-2.9323 -5.8580 -2.5104 0.9723
-2.5075 -6.0537 -2.5110 0.9723
-2.2901 -6.1400 -2.5113 0.9723
-1.6211 -6.3516 -2.5121 0.9723
-1.3935 -6.4060 -2.5123 0.9723
-1.1641 -6.4522 -2.5125 0.9723
-0.9331 -6.4901 -2.5127 0.9723
-0.7009 -6.5198 -2.5129 0.9723
-0.2341 -6.5541 -2.5132 0.9723
0.2341 -6.5548 -2.5135 0.9723
0.4679 -6.5426 -2.5136 0.9723
0.7012 -6.5220 -2.5137 0.9723
0.9336 -6.4930 -2.5138 0.9723
1.6224 -6.3564 -2.5140 0.9723
2.7252 -5.9673 -2.5139 0.9723
2.9363 -5.8660 -2.5139 0.9723
3.3471 -5.6413 -2.5137 0.9723
3.5462 -5.5180 -2.5136 0.9723
3.7407 -5.3876 -2.5135 0.9723
4.6364 -4.6364 -2.5127 0.9723
4.9545 -4.2931 -2.5123 0.9723
5.1041 -4.1131 -2.5120 0.9723
5.7502 -3.1398 -2.5107 0.9723
5.8579 -2.9322 -2.5104 0.9723
5.9580 -2.7210 -2.5101 0.9723
6.2123 -2.0676 -2.5090 0.9723
6.2812 -1.8443 -2.5087 0.9723
6.3421 -1.6187 -2.5083 0.9724
6.3949 -1.3911 -2.5080 0.9724
6.4758 -0.9311 -2.5072 0.9724
-6.1038 0.0000 -2.4981 0.9740
-6.0455 -0.8692 -2.4997 0.9739
-5.7998 -1.9304 -2.5017 0.9739
-5.6492 -2.3400 -2.5026 0.9739
-5.4696 -2.7379 -2.5034 0.9739
-5.3693 -2.9319 -2.5038 0.9739
-4.9005 -3.6685 -2.5054 0.9739
-4.4823 -4.1732 -2.5065 0.9739
-4.3312 -4.3311 -2.5069 0.9739
-4.1744 -4.4836 -2.5072 0.9739
-3.8450 -4.7713 -2.5079 0.9739
-3.4958 -5.0348 -2.5086 0.9739
-3.3142 -5.1571 -2.5089 0.9739
-2.9386 -5.3817 -2.5096 0.9738
-2.7450 -5.4838 -2.5099 0.9738
-2.5478 -5.5789 -2.5101 0.9738
-1.9375 -5.8211 -2.5109 0.9738
-1.7286 -5.8871 -2.5112 0.9738
-1.5175 -5.9456 -2.5114 0.9738
-1.3045 -5.9965 -2.5116 0.9738
-1.0897 -6.0397 -2.5118 0.9738
-0.8735 -6.0752 -2.5120 0.9738
-0.6561 -6.1030 -2.5122 0.9738
-0.2191 -6.1350 -2.5125 0.9738
0.0000 -6.1393 -2.5126 0.9738
0.4380 -6.1242 -2.5129 0.9738
1.0902 -6.0428 -2.5131 0.9738
1.3053 -6.0002 -2.5132 0.9738
1.5186 -5.9499 -2.5132 0.9738
2.1459 -5.7535 -2.5132 0.9738
2.5509 -5.5856 -2.5132 0.9738
2.7485 -5.4909 -2.5131 0.9738
3.1331 -5.2805 -2.5130 0.9738
3.3194 -5.1651 -2.5129 0.9738
3.5015 -5.0431 -2.5128 0.9738
3.6791 -4.9147 -2.5126 0.9738
3.8520 -4.7800 -2.5125 0.9738
4.4918 -4.1820 -2.5118 0.9738
4.6378 -4.0187 -2.5116 0.9738
4.7779 -3.8503 -2.5114 0.9738
4.9118 -3.6769 -2.5111 0.9738
5.0394 -3.4989 -2.5109 0.9738
5.2751 -3.1299 -2.5104 0.9738
5.4837 -2.7450 -2.5098 0.9738
5.7436 -2.1423 -2.5089 0.9739
5.8803 -1.7266 -2.5082 0.9739
5.9373 -1.5154 -2.5079 0.9739
6.0627 -0.8717 -2.5068 0.9739
6.0891 -0.6546 -2.5065 0.9739
-5.7326 0.0000 -2.4983 0.9753
-5.6066 -1.2196 -2.5006 0.9753
-5.3792 -2.0064 -2.5021 0.9753
-5.2240 -2.3857 -2.5029 0.9753
-3.9197 -4.2100 -2.5069 0.9752
-3.7674 -4.3478 -2.5072 0.9752
-3.4485 -4.6067 -2.5079 0.9752
-3.2823 -4.7274 -2.5082 0.9752
-2.9374 -4.9507 -2.5088 0.9752
-2.5773 -5.1488 -2.5094 0.9752
-2.3922 -5.2381 -2.5096 0.9752
-2.2039 -5.3207 -2.5099 0.9752
-1.8191 -5.4654 -2.5104 0.9752
-1.6230 -5.5273 -2.5106 0.9752
-1.2247 -5.6300 -2.5110 0.9752
-0.6160 -5.7298 -2.5116 0.9752
-0.4111 -5.7485 -2.5117 0.9752
0.2057 -5.7604 -2.5121 0.9752
0.6162 -5.7315 -2.5123 0.9752
0.8204 -5.7060 -2.5124 0.9752
1.2254 -5.6332 -2.5125 0.9752
1.4257 -5.5860 -2.5125 0.9752
1.6242 -5.5315 -2.5125 0.9752
1.8206 -5.4701 -2.5125 0.9752
2.0147 -5.4016 -2.5125 0.9752
2.2062 -5.3262 -2.5125 0.9752
2.5804 -5.1551 -2.5124 0.9752
2.7627 -5.0595 -2.5123 0.9752
2.9415 -4.9576 -2.5123 0.9752
3.1164 -4.8492 -2.5122 0.9752
3.2874 -4.7347 -2.5121 0.9752
3.4541 -4.6142 -2.5120 0.9752
3.6164 -4.4877 -2.5118 0.9752
3.7741 -4.3555 -2.5117 0.9752
4.2172 -3.9263 -2.5112 0.9752
4.3543 -3.7730 -2.5110 0.9752
4.6116 -3.4522 -2.5106 0.9752
4.7315 -3.2851 -2.5103 0.9752
4.8452 -3.1139 -2.5101 0.9752
5.0540 -2.7597 -2.5096 0.9752
5.3183 -2.2029 -2.5088 0.9752
5.3929 -2.0114 -2.5085 0.9752
5.5213 -1.6212 -2.5078 0.9752
5.5749 -1.4229 -2.5075 0.9752
5.6607 -1.0213 -2.5069 0.9752
5.6928 -0.8185 -2.5065 0.9752
5.7351 -0.4102 -2.5058 0.9752
5.7452 -0.2052 -2.5055 0.9752
-5.3978 0.0000 -2.4985 0.9765
-5.3691 -0.5772 -2.4996 0.9765
-5.3458 -0.7686 -2.4999 0.9765
-5.2789 -1.1483 -2.5007 0.9765
-5.2353 -1.3362 -2.5010 0.9765
-5.1281 -1.7068 -2.5017 0.9765
-5.0646 -1.8890 -2.5021 0.9765
-4.9947 -2.0689 -2.5025 0.9765
-4.7470 -2.5921 -2.5035 0.9764
-4.4446 -3.0859 -2.5046 0.9764
-4.0909 -3.5448 -2.5056 0.9764
-3.9623 -3.6890 -2.5060 0.9764
-3.8286 -3.8286 -2.5063 0.9764
-3.6900 -3.9633 -2.5066 0.9764
-3.5466 -4.0930 -2.5069 0.9764
-3.3987 -4.2175 -2.5072 0.9764
-3.2464 -4.3367 -2.5075 0.9764
-3.0899 -4.4503 -2.5078 0.9764
-2.7652 -4.6604 -2.5084 0.9764
-2.4262 -4.8469 -2.5089 0.9764
-2.2518 -4.9309 -2.5092 0.9764
-1.8947 -5.0799 -2.5096 0.9764
-1.7123 -5.1448 -2.5099 0.9764
-1.5277 -5.2030 -2.5101 0.9764
-1.1529 -5.2996 -2.5105 0.9764
0.1937 -5.4223 -2.5115 0.9764
0.5800 -5.3950 -2.5117 0.9764
0.7722 -5.3710 -2.5117 0.9764
0.9635 -5.3402 -2.5118 0.9764
1.3420 -5.2580 -2.5119 0.9764
1.5288 -5.2068 -2.5119 0.9764
2.0766 -5.0135 -2.5119 0.9764
2.2542 -4.9361 -2.5118 0.9764
2.6005 -4.7625 -2.5117 0.9764
2.9335 -4.5646 -2.5116 0.9764
3.0944 -4.4568 -2.5115 0.9764
3.2514 -4.3433 -2.5114 0.9764
4.0988 -3.5516 -2.5104 0.9764
4.4539 -3.0924 -2.5098 0.9764
4.5610 -2.9312 -2.5096 0.9764
4.6623 -2.7663 -2.5094 0.9764
4.7576 -2.5978 -2.5091 0.9764
4.9298 -2.2514 -2.5086 0.9764
5.0065 -2.0737 -2.5084 0.9764
5.1405 -1.7109 -2.5078 0.9764
5.1977 -1.5262 -2.5075 0.9764
5.2482 -1.3395 -2.5072 0.9764
5.2920 -1.1512 -2.5069 0.9764
5.3290 -0.9615 -2.5066 0.9764
5.3593 -0.7705 -2.5062 0.9764
5.3827 -0.5787 -2.5059 0.9764
5.3992 -0.3862 -2.5056 0.9764
5.4088 -0.1932 -2.5052 0.9764
-5.0823 -0.3635 -2.4994 0.9776
-5.0668 -0.5447 -2.4997 0.9776
-5.0448 -0.7253 -2.5000 0.9775
-4.9404 -1.2610 -2.5011 0.9775
-4.8391 -1.6106 -2.5017 0.9775
-4.7132 -1.9523 -2.5024 0.9775
-4.5632 -2.2842 -2.5031 0.9775
-4.3898 -2.6046 -2.5038 0.9775
-4.1939 -2.9119 -2.5044 0.9775
-4.0878 -3.0601 -2.5048 0.9775
-3.7387 -3.4808 -2.5057 0.9775
-3.0631 -4.0918 -2.5072 0.9775
-2.7640 -4.3008 -2.5077 0.9775
-2.2891 -4.5730 -2.5085 0.9775
-2.1246 -4.6522 -2.5087 0.9775
-1.7876 -4.7928 -2.5092 0.9775
-1.6156 -4.8540 -2.5094 0.9775
-1.4414 -4.9089 -2.5096 0.9775
-0.5471 -5.0886 -2.5105 0.9775
-0.0000 -5.1187 -2.5108 0.9775
0.7286 -5.0673 -2.5112 0.9774
1.0882 -5.0026 -2.5113 0.9774
1.7891 -4.7969 -2.5113 0.9774
1.9592 -4.7299 -2.5113 0.9774
2.1267 -4.6569 -2.5113 0.9774
2.4534 -4.4931 -2.5112 0.9774
2.7676 -4.3064 -2.5110 0.9775
2.9194 -4.2047 -2.5109 0.9775
3.0675 -4.0977 -2.5108 0.9775
3.2116 -3.9854 -2.5107 0.9775
3.3517 -3.8680 -2.5106 0.9775
3.4874 -3.7457 -2.5104 0.9775
3.7453 -3.4870 -2.5101 0.9775
3.8671 -3.3509 -2.5100 0.9775
3.9839 -3.2105 -2.5098 0.9775
4.0957 -3.0660 -2.5096 0.9775
4.2021 -2.9176 -2.5094 0.9775
4.3033 -2.7655 -2.5092 0.9775
4.4888 -2.4511 -2.5087 0.9775
4.5730 -2.2891 -2.5085 0.9775
4.6513 -2.1242 -2.5082 0.9775
4.7237 -1.9566 -2.5080 0.9775
4.7900 -1.7866 -2.5077 0.9775
4.8502 -1.6143 -2.5074 0.9775
4.9042 -1.4400 -2.5072 0.9775
4.9519 -1.2639 -2.5069 0.9775
5.0789 -0.5460 -2.5057 0.9775
5.1036 -0.1823 -2.5050 0.9775
-4.8144 -0.1719 -2.4992 0.9785
-4.8058 -0.3437 -2.4995 0.9785
-4.7910 -0.5151 -2.4998 0.9785
-4.7433 -0.8558 -2.5005 0.9785
-4.6714 -1.1923 -2.5011 0.9785
-4.6264 -1.3584 -2.5014 0.9785
-4.5756 -1.5229 -2.5017 0.9785
-4.3145 -2.1597 -2.5030 0.9785
-4.0604 -2.6095 -2.5040 0.9785
-3.8649 -2.8932 -2.5046 0.9785
-3.6495 -3.1623 -2.5052 0.9785
-3.4154 -3.4154 -2.5058 0.9785
-3.2917 -3.5356 -2.5061 0.9785
-3.0318 -3.7622 -2.5066 0.9785
-2.7563 -3.9698 -2.5072 0.9785
-2.6131 -4.0660 -2.5074 0.9785
-2.4665 -4.1571 -2.5077 0.9785
-2.3168 -4.2429 -2.5079 0.9785
-2.1641 -4.3233 -2.5081 0.9784
-2.0086 -4.3982 -2.5084 0.9784
-1.8505 -4.4675 -2.5086 0.9784
-1.6900 -4.5310 -2.5088 0.9784
-1.5273 -4.5888 -2.5090 0.9784
-1.1962 -4.6868 -2.5094 0.9784
-1.0283 -4.7268 -2.5095 0.9784
-0.6885 -4.7887 -2.5098 0.9784
-0.5172 -4.8105 -2.5100 0.9784
-0.3452 -4.8262 -2.5101 0.9784
-0.0000 -4.8389 -2.5103 0.9784
0.3452 -4.8269 -2.5105 0.9784
0.6887 -4.7903 -2.5106 0.9784
1.0288 -4.7291 -2.5107 0.9784
1.5284 -4.5921 -2.5108 0.9784
1.6913 -4.5346 -2.5108 0.9784
1.8521 -4.4714 -2.5108 0.9784
2.1663 -4.3277 -2.5107 0.9784
2.4694 -4.1619 -2.5106 0.9784
3.2968 -3.5410 -2.5100 0.9784
3.5406 -3.2965 -2.5097 0.9784
3.7663 -3.0351 -2.5093 0.9784
3.9726 -2.7582 -2.5090 0.9784
4.0682 -2.6145 -2.5088 0.9784
4.3233 -2.1641 -2.5081 0.9784
4.3973 -2.0082 -2.5079 0.9785
4.5285 -1.6890 -2.5074 0.9785
4.7208 -1.0269 -2.5063 0.9785
4.7539 -0.8577 -2.5060 0.9785
4.7809 -0.6874 -2.5058 0.9785
4.8019 -0.5163 -2.5055 0.9785
4.8166 -0.3445 -2.5052 0.9785
-4.5628 0.0000 -2.4990 0.9794
-4.5604 -0.1629 -2.4993 0.9794
-4.5382 -0.4879 -2.4999 0.9794
-4.5184 -0.6497 -2.5002 0.9794
-4.4929 -0.8106 -2.5005 0.9794
-4.3339 -1.4425 -2.5017 0.9794
-4.2802 -1.5964 -2.5020 0.9794
-4.1564 -1.8982 -2.5027 0.9794
-4.0865 -2.0456 -2.5030 0.9794
-4.0114 -2.1904 -2.5033 0.9794
-3.9311 -2.3325 -2.5036 0.9794
-3.3478 -3.1169 -2.5053 0.9794
-3.1176 -3.3485 -2.5058 0.9794
-2.9964 -3.4581 -2.5061 0.9793
-2.7427 -3.6638 -2.5066 0.9793
-2.4748 -3.8508 -2.5071 0.9793
-2.3360 -3.9371 -2.5074 0.9793
-2.1942 -4.0183 -2.5076 0.9793
-2.0495 -4.0944 -2.5078 0.9793
-1.2905 -4.3950 -2.5088 0.9793
-0.8134 -4.5086 -2.5093 0.9793
-0.6520 -4.5350 -2.5094 0.9793
-0.3269 -4.5705 -2.5097 0.9793
0.3269 -4.5712 -2.5100 0.9793
0.9742 -4.4785 -2.5103 0.9793
1.2913 -4.3977 -2.5103 0.9793
1.4474 -4.3488 -2.5103 0.9793
1.6017 -4.2943 -2.5103 0.9793
1.7539 -4.2344 -2.5103 0.9793
1.9039 -4.1691 -2.5103 0.9793
2.0515 -4.0984 -2.5102 0.9793
2.1964 -4.0225 -2.5102 0.9793
2.3385 -3.9414 -2.5101 0.9793
2.4777 -3.8553 -2.5100 0.9793
2.6136 -3.7643 -2.5100 0.9793
3.1222 -3.3535 -2.5095 0.9793
3.2397 -3.2397 -2.5094 0.9793
3.4622 -3.0000 -2.5091 0.9793
3.5668 -2.8743 -2.5089 0.9793
3.6669 -2.7450 -2.5088 0.9793
3.8528 -2.4760 -2.5084 0.9793
4.2888 -1.5997 -2.5071 0.9793
4.4339 -1.1317 -2.5063 0.9793
4.5479 -0.4890 -2.5053 0.9794
-4.3287 0.0000 -2.4992 0.9802
-4.3186 -0.3089 -2.4997 0.9802
-4.2623 -0.7690 -2.5006 0.9802
-4.1976 -1.0714 -2.5012 0.9802
-4.1114 -1.3684 -2.5017 0.9802
-4.0042 -1.6586 -2.5023 0.9802
-3.9429 -1.8007 -2.5026 0.9802
-3.6482 -2.3446 -2.5037 0.9802
-3.5626 -2.4735 -2.5040 0.9802
-3.3778 -2.7220 -2.5046 0.9802
-3.2788 -2.8411 -2.5048 0.9802
-3.1757 -2.9567 -2.5051 0.9802
-3.0684 -3.0684 -2.5054 0.9802
-2.9573 -3.1763 -2.5056 0.9802
-2.8423 -3.2802 -2.5059 0.9802
-2.7237 -3.3799 -2.5061 0.9802
-2.6016 -3.4753 -2.5064 0.9801
-2.4761 -3.5663 -2.5066 0.9801
-2.2158 -3.7345 -2.5071 0.9801
-1.8043 -3.9509 -2.5077 0.9801
-1.5181 -4.0702 -2.5081 0.9801
-1.3720 -4.1221 -2.5082 0.9801
-0.9237 -4.2459 -2.5087 0.9801
-0.3100 -4.3351 -2.5092 0.9801
-0.1551 -4.3436 -2.5094 0.9801
-0.0000 -4.3465 -2.5095 0.9801
0.3101 -4.3357 -2.5096 0.9801
0.4647 -4.3220 -2.5097 0.9801
0.6186 -4.3028 -2.5097 0.9801
0.9241 -4.2478 -2.5098 0.9801
1.2248 -4.1711 -2.5099 0.9801
1.5192 -4.0731 -2.5099 0.9801
1.8059 -3.9543 -2.5098 0.9801
2.2181 -3.7384 -2.5097 0.9801
2.3500 -3.6567 -2.5096 0.9801
2.4790 -3.5704 -2.5095 0.9801
2.6047 -3.4795 -2.5094 0.9801
3.2839 -2.8455 -2.5087 0.9801
3.7357 -2.2165 -2.5079 0.9801
3.8121 -2.0816 -2.5077 0.9801
3.9502 -1.8040 -2.5072 0.9801
4.0118 -1.6617 -2.5070 0.9801
4.0682 -1.5173 -2.5068 0.9801
4.2059 -1.0735 -2.5061 0.9802
4.2411 -0.9226 -2.5059 0.9802
4.2709 -0.7706 -2.5056 0.9802
4.2952 -0.6176 -2.5053 0.9802
4.3141 -0.4638 -2.5051 0.9802
