ply
format ascii 1.0
element vertex 1259
property float32 x
property float32 y
property float32 z
property float32 I
end_header
-19.3811 -42.4387 8.2265 0.8274
-15.0927 -40.4653 7.6153 0.8391
-9.6230 -37.7027 6.8611 0.8538
-8.0339 -36.9315 6.6643 0.8577
-6.5316 -36.2023 6.4865 0.8612
-5.1056 -35.5102 6.3258 0.8644
-3.7468 -34.8507 6.1805 0.8673
-1.2005 -33.6148 5.9310 0.8723
1.1597 -32.4692 5.7288 0.8764
3.3904 -31.5348 5.5925 0.8791
6.5273 -30.0057 5.4146 0.8827
7.5845 -29.7159 5.4077 0.8829
10.7173 -28.7340 5.4075 0.8829
16.1537 -29.5832 5.9433 0.8721
-12.3000 -22.5259 3.9318 0.9014
-13.1126 -39.3973 6.3610 0.8453
-11.3114 -38.5231 6.1507 0.8500
-9.6233 -37.7037 5.9612 0.8543
-6.5611 -36.3659 5.6610 0.8611
0.0000 -37.4291 5.7339 0.8594
1.1597 -32.4699 4.9774 0.8768
2.6577 -37.1589 5.7071 0.8601
3.9296 -36.5502 5.6316 0.8618
5.6886 -31.5300 4.9082 0.8784
7.5674 -34.7866 5.4538 0.8658
8.4876 -28.9060 4.6152 0.8852
12.1939 -32.6932 5.3455 0.8683
15.5067 -33.9549 5.7185 0.8598
16.7057 -33.3736 5.7174 0.8598
16.1540 -29.5839 5.1637 0.8725
-20.5732 -23.7427 4.0910 0.8810
-12.2961 -22.5186 3.3411 0.9017
-21.8423 -43.6353 6.3544 0.8213
-19.3823 -42.4414 6.0758 0.8284
-14.0799 -37.7497 5.2466 0.8500
-11.1999 -38.1434 5.1768 0.8518
-8.1640 -37.5294 5.0014 0.8565
-5.1299 -35.6791 4.6939 0.8647
-4.3244 -40.2224 5.2680 0.8494
-2.4475 -34.2216 4.4677 0.8708
0.0000 -38.4685 5.0094 0.8563
4.4397 -30.8785 4.0624 0.8818
7.5716 -34.8062 4.6385 0.8662
8.7716 -34.3669 4.6188 0.8667
11.0268 -33.1303 4.5469 0.8686
12.1982 -32.7046 4.5454 0.8687
11.3891 -27.4958 3.8755 0.8869
18.6638 -40.8680 5.8506 0.8342
20.1068 -40.1683 5.8495 0.8343
-25.1037 -42.3102 5.2829 0.8204
-18.1596 -43.8413 5.0956 0.8262
-15.1802 -40.6997 4.6645 0.8397
-9.6237 -37.7054 4.1787 0.8551
-7.6073 -42.1647 4.6008 0.8417
-5.1299 -35.6793 3.8707 0.8650
-4.3646 -40.5969 4.3845 0.8485
-2.4476 -34.2223 3.6842 0.8711
-1.2454 -34.8699 3.7467 0.8690
0.0000 -38.4832 4.1324 0.8566
1.1597 -32.4713 3.4890 0.8775
3.9324 -36.5763 3.9503 0.8624
5.6888 -31.5309 3.4405 0.8791
7.5743 -34.8186 3.8263 0.8664
8.4879 -28.9071 3.2351 0.8859
11.0301 -33.1400 3.7506 0.8689
12.2024 -32.7159 3.7495 0.8689
16.1547 -29.5852 3.6197 0.8732
8.9799 -11.1434 1.5368 0.9441
26.6595 -2.8662 2.8792 0.8977
-20.7019 -22.2354 2.5718 0.8852
-12.2883 -22.5043 2.1706 0.9022
-22.0799 -44.1099 4.1757 0.8204
-16.3283 -39.4200 3.6121 0.8426
-15.1803 -40.6999 3.6772 0.8400
-11.6565 -39.6983 3.5024 0.8470
-9.6239 -37.7063 3.2943 0.8554
-8.1641 -37.5300 3.2513 0.8571
-4.3664 -40.6133 3.4578 0.8488
-2.4477 -34.2231 2.9045 0.8713
-1.2454 -34.8702 2.9538 0.8693
0.8716 -24.4031 2.0671 0.9066
2.6611 -37.2067 3.1577 0.8609
4.4398 -30.8797 2.6409 0.8823
7.5754 -34.8233 3.0168 0.8667
11.3896 -27.4969 2.5195 0.8874
9.4857 -10.9471 1.2262 0.9435
26.6635 -2.8666 2.2701 0.8979
-12.2844 -22.4972 1.5895 0.9024
-19.3841 -42.4453 2.8935 0.8294
-13.1141 -39.4017 2.5751 0.8467
-11.6566 -39.6986 2.5656 0.8472
-8.1642 -37.5302 2.3817 0.8573
-7.6050 -42.1518 2.6560 0.8423
-4.3625 -40.5777 2.5307 0.8491
-1.2454 -34.8705 2.1637 0.8695
0.0000 -24.3479 1.5098 0.9070
2.6614 -37.2111 2.3134 0.8611
3.9342 -36.5933 2.2822 0.8629
4.4399 -30.8804 1.9346 0.8825
8.7439 -34.2583 2.1925 0.8679
11.3898 -27.4974 1.8456 0.8876
9.9909 -19.9593 1.3841 0.9144
16.1554 -29.5864 2.0904 0.8736
9.4879 -10.9496 0.8984 0.9436
18.0147 -15.6098 1.4781 0.9089
-12.2805 -22.4901 1.0104 0.9025
-22.0801 -44.1104 1.9451 0.8208
-15.7414 -38.0031 1.6221 0.8482
-9.6244 -37.7083 1.5345 0.8557
-8.1642 -37.5305 1.5145 0.8575
-7.6030 -42.1407 1.6885 0.8425
-5.1300 -35.6801 1.4214 0.8656
-1.2454 -34.8708 1.3759 0.8696
1.1598 -32.4734 1.2813 0.8780
2.6615 -37.2119 1.4711 0.8613
3.9343 -36.5940 1.4513 0.8630
4.4400 -30.8810 1.2302 0.8826
5.6891 -31.5324 1.2634 0.8796
7.5760 -34.8261 1.4053 0.8670
12.1595 -32.6009 1.3720 0.8700
16.1558 -29.5871 1.3292 0.8738
8.9911 -11.1573 0.5650 0.9443
9.4902 -10.9522 0.5714 0.9436
21.8178 -23.4339 1.2625 0.8797
26.6715 -2.8675 1.0577 0.8982
44.3920 -1.5854 1.7515 0.8371
-22.0802 -44.1106 0.8332 0.8209
-19.3853 -42.4479 0.7883 0.8297
-15.1805 -40.7006 0.7338 0.8405
-13.1148 -39.4038 0.7015 0.8469
-9.6247 -37.7092 0.6574 0.8558
-1.2454 -34.8711 0.5894 0.8697
3.8229 -35.5576 0.6041 0.8667
8.4430 -33.0794 0.5767 0.8723
11.0206 -33.1116 0.5895 0.8697
12.1462 -32.5651 0.5871 0.8702
11.3903 -27.4985 0.5028 0.8877
14.9436 -27.3671 0.5267 0.8827
8.9948 -11.1619 0.2421 0.9443
26.6815 -2.8686 0.4533 0.8982
-22.0803 -44.1109 -0.2777 0.8209
-13.1152 -39.4049 -0.2338 0.8469
-11.6568 -39.6993 -0.2329 0.8475
-7.6032 -42.1418 -0.2410 0.8426
-4.3723 -40.6681 -0.2303 0.8491
-2.4479 -34.2262 -0.1932 0.8717
-1.2454 -34.8714 -0.1964 0.8697
0.0000 -38.5056 -0.2168 0.8573
2.6616 -37.2134 -0.2101 0.8614
3.8380 -35.6980 -0.2021 0.8662
4.4355 -30.8492 -0.1755 0.8828
8.7554 -34.3035 -0.1993 0.8680
11.0446 -33.1837 -0.1969 0.8694
12.1726 -32.6361 -0.1961 0.8699
14.9313 -27.3446 -0.1754 0.8828
8.9986 -11.1665 -0.0807 0.9442
9.4946 -10.9573 -0.0816 0.9437
-12.2689 -22.4689 -0.7209 0.9026
-15.1807 -40.7011 -1.2232 0.8404
-9.6252 -37.7111 -1.0959 0.8558
-7.6033 -42.1423 -1.2061 0.8425
-5.1301 -35.6809 -1.0150 0.8657
0.0000 -38.5064 -1.0843 0.8572
2.6616 -37.2142 -1.0506 0.8613
3.8381 -35.6989 -1.0110 0.8662
4.4403 -30.8829 -0.8785 0.8826
5.6893 -31.5338 -0.9023 0.8797
7.3750 -33.9021 -0.9770 0.8704
8.7556 -34.3042 -0.9969 0.8679
8.4889 -28.9105 -0.8484 0.8864
11.3907 -27.4995 -0.8381 0.8877
14.9161 -27.3168 -0.8764 0.8829
9.4968 -10.9599 -0.4083 0.9436
48.0563 -8.6703 -1.3750 0.8225
26.7242 -2.8731 -0.7568 0.8980
-46.1773 -4.9646 -2.3553 0.8303
-45.2979 -9.8540 -2.3510 0.8305
-46.1336 -17.2070 -2.4971 0.8210
-45.4621 -18.8310 -2.4955 0.8211
-44.7338 -20.4292 -2.4940 0.8212
-43.9495 -21.9996 -2.4925 0.8213
-41.2724 -26.5242 -2.4881 0.8216
-40.2761 -27.9642 -2.4866 0.8217
-39.2298 -29.3671 -2.4852 0.8218
-38.1352 -30.7313 -2.4838 0.8219
-32.4719 -32.4719 -2.3289 0.8320
-25.9799 -27.9044 -1.9335 0.8584
-25.3150 -29.2150 -1.9605 0.8566
-27.5749 -36.8357 -2.3335 0.8317
-24.9724 -38.8579 -2.3425 0.8311
-12.2651 -22.4618 -1.2979 0.9026
-13.1159 -39.4070 -2.1063 0.8468
-11.6569 -39.6998 -2.0983 0.8473
-9.6254 -37.7121 -1.9738 0.8557
-8.1644 -37.5314 -1.9479 0.8574
-7.6034 -42.1429 -2.1718 0.8424
-5.1302 -35.6812 -1.8281 0.8656
0.0000 -38.5072 -1.9529 0.8571
1.1599 -32.4761 -1.6481 0.8780
2.6617 -37.2150 -1.8921 0.8612
3.8382 -35.6998 -1.8209 0.8661
5.6894 -31.5343 -1.6251 0.8796
7.3757 -33.9056 -1.7597 0.8703
8.7558 -34.3048 -1.7955 0.8678
8.4891 -28.9111 -1.5281 0.8863
11.3909 -27.5001 -1.5095 0.8876
19.8129 -43.3841 -2.4188 0.8261
21.3518 -42.6553 -2.4191 0.8261
14.7336 -26.9825 -1.5591 0.8841
24.3421 -41.0263 -2.4193 0.8261
28.5749 -38.1715 -2.4182 0.8262
9.0060 -11.1758 -0.7279 0.9441
9.4991 -10.9625 -0.7356 0.9436
32.4545 -34.8586 -2.4154 0.8263
34.8188 -32.4174 -2.4127 0.8265
35.9308 -31.1342 -2.4111 0.8266
26.4253 -21.2948 -1.7211 0.8729
29.2004 -21.8591 -1.8498 0.8641
28.7808 -19.9828 -1.7769 0.8691
29.3817 -17.4330 -1.7326 0.8721
32.5879 -14.8824 -1.8168 0.8663
39.5501 -16.3821 -2.1710 0.8424
37.1279 -12.3573 -1.9845 0.8549
45.3931 -11.5859 -2.3759 0.8289
45.9606 -8.2922 -2.3685 0.8294
34.6181 -2.4759 -1.7601 0.8702
46.3593 -1.6557 -2.3526 0.8304
-34.2219 0.0000 -2.5092 0.8717
-33.9828 -3.6535 -2.5061 0.8719
-33.8163 -4.8621 -2.5050 0.8720
-33.6069 -6.0633 -2.5039 0.8720
-33.3548 -7.2559 -2.5028 0.8721
-33.0603 -8.4381 -2.5018 0.8721
-31.4692 -13.0350 -2.4975 0.8723
-29.8579 -16.3037 -2.4944 0.8725
-27.1898 -20.3541 -2.4903 0.8726
-26.4357 -21.3032 -2.4894 0.8727
-23.9799 -23.9799 -2.4866 0.8728
-20.8422 -24.0532 -2.3336 0.8802
-19.4901 -24.1857 -2.2775 0.8829
-19.0602 -25.4615 -2.3320 0.8802
-18.1334 -26.1171 -2.3313 0.8803
-13.9369 -21.6863 -1.8901 0.9018
-11.8328 -21.6702 -1.8104 0.9057
-11.3815 -22.7375 -1.8644 0.9030
-13.2276 -28.9645 -2.3347 0.8801
-10.3691 -25.0333 -1.9867 0.8970
-7.9184 -31.0242 -2.3477 0.8795
-4.8229 -22.1706 -1.6636 0.9130
-1.1490 -32.1719 -2.3604 0.8789
1.1507 -32.2188 -2.3639 0.8787
3.4506 -32.0960 -2.3669 0.8786
5.6895 -31.5347 -2.3495 0.8794
6.8724 -31.5921 -2.3706 0.8784
7.9991 -31.3400 -2.3716 0.8783
10.2215 -30.7105 -2.3732 0.8783
11.3140 -30.3340 -2.3738 0.8782
11.3911 -27.5006 -2.1825 0.8875
13.4545 -29.4612 -2.3748 0.8782
15.2085 -27.8522 -2.3268 0.8805
16.5295 -27.8589 -2.3752 0.8782
24.4265 -21.1656 -2.3698 0.8784
25.1540 -20.2704 -2.3687 0.8785
25.8474 -19.3491 -2.3674 0.8785
26.5054 -18.4030 -2.3659 0.8786
26.8749 -11.1319 -2.1329 0.8899
23.0755 -8.6067 -1.8058 0.9059
30.4253 -10.1265 -2.3512 0.8793
31.0091 -7.9146 -2.3465 0.8795
31.2393 -6.7957 -2.3441 0.8797
31.4279 -5.6702 -2.3416 0.8798
26.4700 -3.8058 -1.9608 0.8983
25.9898 -1.8588 -1.9105 0.9008
31.9199 -1.1400 -2.3419 0.8798
-26.1184 -0.0000 -2.5075 0.9004
-26.0352 -1.8621 -2.5059 0.9004
-25.9437 -2.7892 -2.5051 0.9005
-24.9954 -7.3393 -2.5010 0.9006
-24.3922 -9.0978 -2.4994 0.9007
-22.8198 -12.4606 -2.4961 0.9008
-22.3535 -13.2629 -2.4954 0.9008
-21.3372 -14.8147 -2.4938 0.9009
-16.2620 -20.1800 -2.4882 0.9011
-15.5191 -20.7311 -2.4862 0.9012
-12.4079 -20.9125 -2.3345 0.9069
-10.8797 -21.7348 -2.3335 0.9069
-9.2976 -22.4465 -2.3325 0.9070
-7.6698 -23.0441 -2.3317 0.9070
-6.0062 -23.5322 -2.3316 0.9070
-4.8735 -22.4034 -2.2011 0.9120
-4.3186 -23.9364 -2.3351 0.9069
-1.6219 -15.0862 -1.4567 0.9408
-1.7387 -24.3097 -2.3398 0.9067
-0.5173 -14.4832 -1.3913 0.9434
0.5016 -14.0440 -1.3491 0.9451
1.7426 -24.3637 -2.3450 0.9065
2.6123 -24.2974 -2.3461 0.9065
6.0527 -23.7143 -2.3497 0.9063
7.7331 -23.2341 -2.3509 0.9063
6.8538 -16.5466 -1.7194 0.9306
10.1775 -22.2856 -2.3521 0.9062
12.5031 -21.0729 -2.3524 0.9062
17.9098 -16.6746 -2.3493 0.9063
17.8426 -15.4607 -2.2666 0.9095
19.0400 -15.3434 -2.3476 0.9064
19.5675 -14.6480 -2.3466 0.9064
20.0689 -13.9341 -2.3456 0.9065
21.4103 -11.6909 -2.3420 0.9066
21.8013 -10.9129 -2.3406 0.9067
22.1633 -10.1216 -2.3392 0.9067
22.8134 -8.5089 -2.3376 0.9068
23.8188 -5.1814 -2.3402 0.9067
24.2580 -2.6080 -2.3423 0.9066
25.0832 -0.8958 -2.4096 0.9041
-21.1003 -0.0000 -2.5064 0.9185
-21.0356 -1.5045 -2.5051 0.9186
-20.7380 -3.7415 -2.5032 0.9186
-20.4074 -5.2087 -2.5018 0.9187
-20.2031 -5.9322 -2.5012 0.9187
-19.7181 -7.3545 -2.4998 0.9187
-19.4379 -8.0514 -2.4992 0.9187
-19.1332 -8.7378 -2.4985 0.9188
-18.4515 -10.0753 -2.4973 0.9188
-18.0756 -10.7247 -2.4966 0.9188
-17.6768 -11.3602 -2.4960 0.9188
-15.3604 -14.3010 -2.4930 0.9189
-14.8368 -14.8368 -2.4924 0.9190
-13.1572 -16.3271 -2.4908 0.9190
-11.9540 -17.2170 -2.4898 0.9190
-11.3296 -17.6293 -2.4893 0.9191
-10.6912 -18.0190 -2.4888 0.9191
-10.0127 -18.3369 -2.4817 0.9193
-8.9582 -17.8962 -2.3773 0.9225
-8.1700 -17.8899 -2.3362 0.9238
-6.2080 -18.6521 -2.3351 0.9239
-4.8603 -19.0424 -2.3345 0.9239
-1.6221 -15.0881 -1.8026 0.9407
-1.0510 -14.6951 -1.7500 0.9424
-0.5142 -14.3980 -1.7114 0.9436
0.0000 -19.6399 -2.3329 0.9239
1.4010 -19.5877 -2.3327 0.9239
2.0999 -19.5316 -2.3334 0.9239
3.4902 -19.3449 -2.3350 0.9239
4.1797 -19.2136 -2.3357 0.9239
5.5424 -18.8756 -2.3368 0.9238
6.2138 -18.6695 -2.3373 0.9238
7.5321 -18.1842 -2.3380 0.9238
8.8118 -17.6036 -2.3384 0.9238
10.0456 -16.9309 -2.3385 0.9238
7.2768 -10.4806 -1.5156 0.9499
11.7960 -15.7575 -2.3381 0.9238
9.0173 -11.1898 -1.7071 0.9438
9.5058 -10.9703 -1.7243 0.9432
13.4068 -14.3999 -2.3371 0.9238
13.9093 -13.9093 -2.3366 0.9238
14.3934 -13.4008 -2.3360 0.9238
15.7451 -11.7866 -2.3363 0.9238
16.5515 -10.6370 -2.3371 0.9238
16.9238 -10.0413 -2.3375 0.9238
17.6038 -8.8118 -2.3384 0.9238
17.9107 -8.1796 -2.3389 0.9237
18.4564 -6.8839 -2.3399 0.9237
18.6945 -6.2221 -2.3404 0.9237
18.9089 -5.5522 -2.3409 0.9237
19.2657 -4.1910 -2.3420 0.9237
20.7364 -2.9814 -2.4885 0.9191
20.8883 -2.2457 -2.4955 0.9189
-17.5716 -1.8892 -2.5041 0.9311
-17.3844 -3.1365 -2.5030 0.9311
-17.2576 -3.7542 -2.5024 0.9311
-17.1088 -4.3667 -2.5018 0.9312
-16.7462 -5.5737 -2.5007 0.9312
-16.0439 -7.3270 -2.4991 0.9312
-15.7687 -7.8933 -2.4985 0.9312
-15.4736 -8.4492 -2.4980 0.9313
-15.1589 -8.9942 -2.4975 0.9313
-14.8251 -9.5276 -2.4969 0.9313
-14.4726 -10.0485 -2.4964 0.9313
-14.1018 -10.5565 -2.4959 0.9313
-13.3075 -11.5310 -2.4949 0.9313
-12.8849 -11.9963 -2.4944 0.9313
-12.4461 -12.4461 -2.4939 0.9314
-11.5223 -13.2974 -2.4930 0.9314
-9.5060 -14.7917 -2.4913 0.9314
-8.9706 -15.1192 -2.4909 0.9314
-8.4240 -15.4274 -2.4905 0.9315
-6.7238 -16.2326 -2.4895 0.9315
-6.1223 -16.4147 -2.4823 0.9317
-4.6472 -15.8270 -2.3372 0.9355
-4.0789 -15.9811 -2.3369 0.9355
-3.5055 -16.1148 -2.3367 0.9355
-2.9279 -16.2281 -2.3365 0.9356
-1.6223 -15.0900 -2.1504 0.9405
-1.0511 -14.6957 -2.0876 0.9422
-0.5142 -14.3983 -2.0414 0.9435
0.0000 -16.4842 -2.3356 0.9356
0.4971 -13.9186 -1.9734 0.9453
1.1759 -16.4407 -2.3354 0.9356
1.7619 -16.3877 -2.3353 0.9356
2.3456 -16.3139 -2.3353 0.9356
2.9263 -16.2195 -2.3352 0.9356
4.6433 -15.8136 -2.3352 0.9356
5.7598 -15.4426 -2.3353 0.9356
6.3075 -15.2276 -2.3354 0.9356
6.8472 -14.9934 -2.3354 0.9356
7.3783 -14.7401 -2.3355 0.9356
8.9754 -10.3581 -1.9420 0.9461
9.4438 -10.1434 -1.9637 0.9455
9.9235 -9.9235 -1.9885 0.9449
12.0745 -11.2418 -2.3375 0.9355
12.4696 -10.8050 -2.3378 0.9355
12.8490 -10.3544 -2.3381 0.9355
13.2122 -9.8905 -2.3384 0.9355
15.2648 -6.3229 -2.3411 0.9354
15.4835 -5.7751 -2.3415 0.9354
16.1512 -5.3756 -2.4119 0.9335
17.2069 -3.7431 -2.4950 0.9313
17.5191 -1.8835 -2.4966 0.9313
17.5788 -1.2573 -2.4971 0.9313
17.6162 -0.6292 -2.4976 0.9313
-15.2069 -0.0000 -2.5052 0.9402
-15.1943 -0.5427 -2.5047 0.9402
-15.1112 -1.6246 -2.5038 0.9402
-15.0408 -2.1625 -2.5033 0.9403
-14.9511 -2.6975 -2.5028 0.9403
-14.8425 -3.2288 -2.5023 0.9403
-14.5688 -4.2778 -2.5014 0.9403
-14.4041 -4.7941 -2.5009 0.9403
-14.2211 -5.3042 -2.5004 0.9403
-13.8012 -6.3028 -2.4995 0.9403
-11.7989 -9.5081 -2.4963 0.9404
-11.0867 -10.3221 -2.4955 0.9404
-10.3187 -11.0831 -2.4947 0.9405
-9.9150 -11.4426 -2.4943 0.9405
-9.4988 -11.7873 -2.4939 0.9405
-9.0707 -12.1170 -2.4935 0.9405
-7.7202 -13.0117 -2.4925 0.9405
-7.2499 -13.2772 -2.4921 0.9405
-6.7706 -13.5259 -2.4918 0.9405
-4.2591 -14.5051 -2.4904 0.9406
-3.2082 -14.7477 -2.4863 0.9406
-2.0793 -14.4619 -2.4069 0.9425
-1.0124 -14.1550 -2.3378 0.9441
0.0000 -14.1297 -2.3277 0.9443
1.0122 -14.1524 -2.3374 0.9441
2.0191 -14.0434 -2.3373 0.9441
2.5191 -13.9622 -2.3373 0.9441
3.5086 -13.7467 -2.3372 0.9441
3.9971 -13.6128 -2.3372 0.9441
6.8644 -10.6813 -2.0917 0.9498
7.2771 -10.4810 -2.1020 0.9496
8.9020 -10.2734 -2.2394 0.9464
9.3666 -10.0604 -2.2645 0.9458
9.8423 -9.8423 -2.2930 0.9451
10.3926 -9.6759 -2.3392 0.9441
11.0588 -8.9118 -2.3397 0.9440
11.3712 -8.5124 -2.3400 0.9440
11.6692 -8.1021 -2.3403 0.9440
11.9525 -7.6814 -2.3406 0.9440
12.8539 -7.0187 -2.4127 0.9424
13.7501 -6.2794 -2.4902 0.9406
14.3688 -4.7824 -2.4948 0.9405
14.6781 -3.7464 -2.4956 0.9404
-13.3260 0.0000 -2.5048 0.9472
-13.3153 -0.4756 -2.5044 0.9472
-13.2877 -0.9504 -2.5039 0.9472
-13.2431 -1.4238 -2.5035 0.9472
-13.1817 -1.8952 -2.5031 0.9472
-13.0085 -2.8298 -2.5023 0.9473
-12.7692 -3.7494 -2.5014 0.9473
-12.6252 -4.2021 -2.5010 0.9473
-12.4651 -4.6492 -2.5006 0.9473
-12.2891 -5.0903 -2.5002 0.9473
-12.0976 -5.5248 -2.4998 0.9473
-11.8908 -5.9521 -2.4994 0.9473
-11.4322 -6.7830 -2.4986 0.9473
-11.1810 -7.1856 -2.4982 0.9473
-10.9157 -7.5789 -2.4978 0.9474
-10.0384 -8.6983 -2.4966 0.9474
-9.7201 -9.0498 -2.4963 0.9474
-9.3896 -9.3896 -2.4959 0.9474
-8.3286 -10.3352 -2.4949 0.9474
-7.1734 -11.1620 -2.4939 0.9474
-6.7696 -11.4095 -2.4936 0.9474
-6.3573 -11.6426 -2.4933 0.9474
-5.9371 -11.8607 -2.4931 0.9474
-5.5093 -12.0638 -2.4928 0.9475
-5.0747 -12.2515 -2.4925 0.9475
-3.2783 -12.8444 -2.4916 0.9475
-2.3533 -13.0436 -2.4913 0.9475
-1.8861 -13.1185 -2.4911 0.9475
-1.4166 -13.1766 -2.4910 0.9475
-0.9454 -13.2181 -2.4908 0.9475
0.0000 -13.2251 -2.4858 0.9476
0.4706 -13.1765 -2.4782 0.9478
1.3700 -12.7426 -2.4089 0.9492
1.8020 -12.5332 -2.3800 0.9498
2.2242 -12.3280 -2.3546 0.9503
2.6449 -12.1585 -2.3388 0.9506
3.5056 -11.9388 -2.3388 0.9506
5.1693 -11.3193 -2.3389 0.9506
5.9641 -10.9224 -2.3391 0.9506
6.3504 -10.7031 -2.3392 0.9506
7.0986 -10.2239 -2.3395 0.9506
7.8109 -9.6927 -2.3398 0.9506
8.1524 -9.4084 -2.3399 0.9506
8.9636 -8.9636 -2.3827 0.9497
9.3919 -8.7442 -2.4120 0.9491
11.1597 -7.1719 -2.4934 0.9474
11.4099 -6.7698 -2.4937 0.9474
11.6457 -6.3590 -2.4940 0.9474
11.8667 -5.9400 -2.4943 0.9474
12.0727 -5.5134 -2.4946 0.9474
12.2634 -5.0797 -2.4950 0.9474
12.5980 -4.1930 -2.4956 0.9474
12.7415 -3.7412 -2.4960 0.9474
13.0742 -2.3588 -2.4971 0.9474
13.1521 -1.8910 -2.4975 0.9474
13.2132 -1.4206 -2.4979 0.9473
-11.8481 -0.0000 -2.5044 0.9527
-11.8388 -0.4228 -2.5041 0.9527
-11.8145 -0.8450 -2.5037 0.9527
-11.7750 -1.2660 -2.5034 0.9527
-11.7206 -1.6852 -2.5030 0.9527
-11.6513 -2.1021 -2.5026 0.9527
-11.5671 -2.5163 -2.5022 0.9528
-11.4682 -2.9271 -2.5019 0.9528
-11.3548 -3.3341 -2.5015 0.9528
-11.2269 -3.7367 -2.5011 0.9528
-11.0847 -4.1344 -2.5008 0.9528
-10.7583 -4.9132 -2.5000 0.9528
-10.5746 -5.2933 -2.4997 0.9528
-8.9283 -7.7365 -2.4972 0.9528
-8.6454 -8.0491 -2.4969 0.9529
-8.0471 -8.6432 -2.4963 0.9529
-7.7325 -8.9238 -2.4959 0.9529
-7.4082 -9.1930 -2.4956 0.9529
-7.0745 -9.4505 -2.4954 0.9529
-6.7319 -9.6958 -2.4951 0.9529
-6.3809 -9.9289 -2.4948 0.9529
-4.9009 -10.7316 -2.4938 0.9529
-4.1221 -11.0519 -2.4934 0.9529
-3.7247 -11.1911 -2.4932 0.9529
-3.3227 -11.3160 -2.4930 0.9529
-2.9164 -11.4266 -2.4928 0.9529
-2.5066 -11.5226 -2.4926 0.9529
-1.6780 -11.6706 -2.4923 0.9529
-0.4208 -11.7814 -2.4919 0.9529
0.0000 -11.7885 -2.4918 0.9529
0.4208 -11.7806 -2.4918 0.9529
0.8409 -11.7577 -2.4917 0.9529
1.2600 -11.7199 -2.4916 0.9530
2.0928 -11.5998 -2.4916 0.9530
2.5055 -11.5177 -2.4915 0.9530
2.9150 -11.4209 -2.4915 0.9530
3.3197 -11.3060 -2.4907 0.9530
3.7196 -11.1757 -2.4897 0.9530
4.5051 -10.8762 -2.4884 0.9530
5.2688 -10.5257 -2.4881 0.9530
6.7194 -9.6777 -2.4904 0.9530
7.7223 -8.9120 -2.4927 0.9529
8.3396 -8.3396 -2.4930 0.9529
8.9147 -7.7247 -2.4934 0.9529
9.1856 -7.4022 -2.4936 0.9529
9.9271 -6.3797 -2.4943 0.9529
10.1495 -6.0220 -2.4946 0.9529
10.3591 -5.6565 -2.4949 0.9529
11.0638 -4.1266 -2.4960 0.9529
11.2054 -3.7295 -2.4963 0.9529
11.3328 -3.3276 -2.4967 0.9529
11.7514 -1.2634 -2.4983 0.9528
11.7907 -0.8433 -2.4987 0.9528
11.8149 -0.4220 -2.4990 0.9528
-10.6469 -0.3803 -2.5039 0.9572
-10.5411 -1.5156 -2.5029 0.9572
-10.4789 -1.8906 -2.5025 0.9572
-10.0978 -3.3609 -2.5012 0.9572
-9.9700 -3.7186 -2.5009 0.9572
-9.8297 -4.0716 -2.5005 0.9572
-9.6768 -4.4193 -2.5002 0.9572
-9.5116 -4.7612 -2.4999 0.9572
-9.1454 -5.4262 -2.4992 0.9572
-8.9448 -5.7485 -2.4989 0.9573
-7.7772 -7.2409 -2.4974 0.9573
-7.5130 -7.5130 -2.4971 0.9573
-7.2392 -7.7755 -2.4968 0.9573
-6.0564 -8.7229 -2.4958 0.9573
-5.7406 -8.9326 -2.4955 0.9573
-4.7516 -9.4924 -2.4948 0.9573
-4.4093 -9.6551 -2.4946 0.9573
-4.0616 -9.8056 -2.4944 0.9573
-3.3512 -10.0688 -2.4940 0.9573
-2.9895 -10.1813 -2.4939 0.9573
-2.2553 -10.3673 -2.4935 0.9573
-1.8837 -10.4406 -2.4934 0.9573
-0.7567 -10.5806 -2.4930 0.9573
0.0000 -10.6069 -2.4929 0.9574
0.3786 -10.5998 -2.4928 0.9574
0.7567 -10.5793 -2.4927 0.9574
1.1337 -10.5453 -2.4927 0.9574
1.5094 -10.4979 -2.4926 0.9574
2.2544 -10.3633 -2.4926 0.9574
2.6229 -10.2762 -2.4926 0.9574
3.3493 -10.0630 -2.4926 0.9574
3.7064 -9.9372 -2.4926 0.9574
4.0588 -9.7988 -2.4927 0.9574
4.4060 -9.6479 -2.4927 0.9574
5.4126 -9.1225 -2.4930 0.9574
5.7350 -8.9238 -2.4931 0.9573
6.6570 -8.2609 -2.4934 0.9573
6.9480 -8.0185 -2.4936 0.9573
8.0207 -6.9499 -2.4943 0.9573
8.4974 -6.3611 -2.4947 0.9573
9.1311 -5.4177 -2.4953 0.9573
9.3196 -5.0889 -2.4956 0.9573
9.6608 -4.4120 -2.4961 0.9573
10.1949 -2.9935 -2.4972 0.9573
10.2964 -2.6280 -2.4975 0.9573
10.5708 -1.1365 -2.4987 0.9573
10.6059 -0.7585 -2.4990 0.9572
-9.6440 -0.6898 -2.5034 0.9608
-9.6121 -1.0334 -2.5031 0.9608
-9.4431 -2.0542 -2.5022 0.9609
-9.3627 -2.3897 -2.5019 0.9609
-9.1661 -3.0508 -2.5013 0.9609
-9.0503 -3.3756 -2.5010 0.9609
-8.7843 -4.0117 -2.5004 0.9609
-8.3022 -4.9259 -2.4995 0.9609
-7.9278 -5.5044 -2.4989 0.9609
-7.5133 -6.0546 -2.4984 0.9609
-7.2916 -6.3182 -2.4981 0.9609
-7.0607 -6.5737 -2.4978 0.9609
-6.8208 -6.8208 -2.4975 0.9609
-5.7784 -7.7190 -2.4966 0.9609
-5.4987 -7.9196 -2.4963 0.9609
-4.9188 -8.2903 -2.4959 0.9610
-4.6194 -8.4598 -2.4957 0.9610
-4.3142 -8.6186 -2.4955 0.9610
-4.0035 -8.7664 -2.4953 0.9610
-1.3709 -9.5346 -2.4941 0.9610
-1.0296 -9.5770 -2.4940 0.9610
-0.3438 -9.6254 -2.4938 0.9610
1.0295 -9.5754 -2.4935 0.9610
1.3706 -9.5324 -2.4935 0.9610
1.7099 -9.4773 -2.4935 0.9610
2.0471 -9.4102 -2.4934 0.9610
3.0413 -9.1375 -2.4935 0.9610
3.3655 -9.0232 -2.4935 0.9610
3.6855 -8.8975 -2.4935 0.9610
4.3110 -8.6123 -2.4936 0.9610
4.6158 -8.4532 -2.4937 0.9610
4.9147 -8.2833 -2.4938 0.9610
5.2074 -8.1029 -2.4939 0.9610
5.4936 -7.9122 -2.4940 0.9610
5.7727 -7.7114 -2.4941 0.9610
6.0446 -7.5008 -2.4942 0.9610
6.8129 -6.8129 -2.4946 0.9610
7.5036 -6.0468 -2.4951 0.9610
7.7153 -5.7756 -2.4953 0.9610
7.9171 -5.4969 -2.4955 0.9610
8.4615 -4.6203 -2.4962 0.9609
8.7712 -4.0056 -2.4966 0.9609
8.9094 -3.6904 -2.4969 0.9609
9.0363 -3.3704 -2.4971 0.9609
9.1518 -3.0460 -2.4974 0.9609
9.2556 -2.7177 -2.4976 0.9609
9.4962 -1.7133 -2.4984 0.9609
9.6282 -0.6886 -2.4993 0.9609
9.6477 -0.3446 -2.4996 0.9609
-8.8445 0.0000 -2.5038 0.9639
-8.7909 -0.9451 -2.5030 0.9639
-8.7506 -1.2581 -2.5027 0.9639
-8.6992 -1.5695 -2.5024 0.9639
-8.5631 -2.1856 -2.5019 0.9639
-8.4787 -2.4896 -2.5016 0.9639
-8.3835 -2.7903 -2.5013 0.9639
-8.1613 -3.3805 -2.5008 0.9639
-7.7507 -4.2322 -2.5000 0.9640
-7.5939 -4.5057 -2.4997 0.9640
-7.4274 -4.7733 -2.4994 0.9640
-6.8725 -5.5382 -2.4987 0.9640
-6.6698 -5.7794 -2.4984 0.9640
-6.4586 -6.0132 -2.4982 0.9640
-6.2393 -6.2393 -2.4979 0.9640
-5.7772 -6.6673 -2.4975 0.9640
-5.2859 -7.0612 -2.4970 0.9640
-5.0301 -7.2447 -2.4968 0.9640
-4.7679 -7.4190 -2.4966 0.9640
-3.9466 -7.8844 -2.4960 0.9640
-3.6624 -8.0196 -2.4958 0.9640
-3.3736 -8.1447 -2.4957 0.9640
-3.0806 -8.2594 -2.4955 0.9640
-2.7837 -8.3636 -2.4954 0.9640
-2.4832 -8.4571 -2.4952 0.9640
-2.1797 -8.5399 -2.4951 0.9640
-1.8734 -8.6118 -2.4950 0.9640
-1.5647 -8.6728 -2.4948 0.9640
-1.2541 -8.7227 -2.4947 0.9640
-0.9420 -8.7616 -2.4946 0.9640
0.6286 -8.7884 -2.4943 0.9640
0.9418 -8.7602 -2.4942 0.9640
1.8728 -8.6091 -2.4942 0.9640
2.7823 -8.3596 -2.4942 0.9640
3.3717 -8.1400 -2.4942 0.9640
3.9440 -7.8791 -2.4943 0.9640
4.2228 -7.7335 -2.4944 0.9640
4.4963 -7.5780 -2.4945 0.9640
5.2812 -7.0548 -2.4948 0.9640
5.5298 -6.8621 -2.4949 0.9640
5.7715 -6.6607 -2.4950 0.9640
6.0059 -6.4508 -2.4951 0.9640
6.8644 -5.5317 -2.4957 0.9640
7.4180 -4.7673 -2.4963 0.9640
7.5840 -4.4998 -2.4965 0.9640
8.1500 -3.3758 -2.4973 0.9640
8.2660 -3.0831 -2.4975 0.9640
8.4665 -2.4860 -2.4980 0.9640
8.6239 -1.8760 -2.4985 0.9640
8.6863 -1.5672 -2.4987 0.9640
8.7376 -1.2563 -2.4990 0.9640
8.7777 -0.9437 -2.4992 0.9640
8.8246 -0.3152 -2.4998 0.9640
-8.1175 -0.5806 -2.5032 0.9665
-8.0908 -0.8699 -2.5029 0.9665
-8.0538 -1.1580 -2.5026 0.9665
-8.0065 -1.4445 -2.5024 0.9665
-7.9490 -1.7292 -2.5021 0.9665
-7.8815 -2.0116 -2.5019 0.9665
-7.8038 -2.2914 -2.5016 0.9665
-7.7163 -2.5682 -2.5014 0.9665
-7.6189 -2.8417 -2.5011 0.9665
-7.3953 -3.3773 -2.5006 0.9665
-7.1341 -3.8955 -2.5001 0.9666
-6.9898 -4.1473 -2.4999 0.9666
-6.8367 -4.3937 -2.4996 0.9666
-6.5046 -4.8693 -2.4991 0.9666
-6.3261 -5.0979 -2.4989 0.9666
-5.9452 -5.5352 -2.4985 0.9666
-5.7433 -5.7433 -2.4982 0.9666
-5.3181 -6.1374 -2.4978 0.9666
-4.1422 -6.9814 -2.4968 0.9666
-3.6331 -7.2581 -2.4965 0.9666
-3.3715 -7.3826 -2.4963 0.9666
-2.5626 -7.6994 -2.4959 0.9666
-2.2860 -7.7855 -2.4958 0.9666
-2.0066 -7.8618 -2.4956 0.9666
-1.4405 -7.9842 -2.4954 0.9666
-1.1546 -8.0302 -2.4953 0.9666
-0.5787 -8.0915 -2.4951 0.9666
-0.2895 -8.1068 -2.4951 0.9666
0.5787 -8.0907 -2.4949 0.9666
0.8671 -8.0648 -2.4948 0.9666
1.4401 -7.9822 -2.4948 0.9666
1.7241 -7.9257 -2.4948 0.9666
2.2851 -7.7825 -2.4948 0.9666
2.5615 -7.6960 -2.4948 0.9666
2.8346 -7.5998 -2.4948 0.9666
3.6309 -7.2536 -2.4949 0.9666
4.6268 -6.6638 -2.4952 0.9666
5.0908 -6.3172 -2.4954 0.9666
5.3132 -6.1318 -2.4955 0.9666
5.7377 -5.7377 -2.4958 0.9666
5.9392 -5.5295 -2.4959 0.9666
6.3192 -5.0924 -2.4962 0.9666
6.4974 -4.8639 -2.4964 0.9666
6.9815 -4.1423 -2.4969 0.9666
7.2603 -3.6343 -2.4973 0.9666
7.3860 -3.3731 -2.4975 0.9666
7.5023 -3.1075 -2.4977 0.9666
7.7935 -2.2884 -2.4983 0.9666
7.8709 -2.0089 -2.4985 0.9666
8.0797 -0.8687 -2.4995 0.9666
8.1063 -0.5798 -2.4997 0.9666
-7.5260 -0.2688 -2.5033 0.9688
-7.5110 -0.5372 -2.5031 0.9688
-7.4084 -1.3366 -2.5024 0.9688
-7.3553 -1.6000 -2.5021 0.9688
-7.2928 -1.8614 -2.5019 0.9688
-6.1768 -4.2886 -2.4996 0.9688
-6.0193 -4.5060 -2.4994 0.9688
-5.8541 -4.7175 -2.4991 0.9688
-5.6815 -4.9231 -2.4989 0.9688
-5.5017 -5.1223 -2.4987 0.9688
-5.1214 -5.5008 -2.4983 0.9688
-4.9215 -5.6797 -2.4981 0.9688
-4.5031 -6.0154 -2.4977 0.9688
-4.0619 -6.3204 -2.4974 0.9688
-3.8334 -6.4609 -2.4972 0.9688
-3.6002 -6.5932 -2.4971 0.9688
-3.3623 -6.7171 -2.4969 0.9688
-3.1202 -6.8324 -2.4967 0.9688
-2.8742 -6.9390 -2.4966 0.9688
-2.6246 -7.0368 -2.4965 0.9688
-2.3716 -7.1256 -2.4963 0.9688
-2.1157 -7.2054 -2.4962 0.9688
-1.8571 -7.2759 -2.4961 0.9688
-0.8026 -7.4650 -2.4957 0.9688
-0.5356 -7.4887 -2.4956 0.9688
-0.2680 -7.5028 -2.4956 0.9688
0.8025 -7.4640 -2.4954 0.9689
1.0683 -7.4305 -2.4953 0.9689
1.5957 -7.3353 -2.4953 0.9689
1.8565 -7.2736 -2.4953 0.9689
2.3707 -7.1227 -2.4953 0.9689
2.6234 -7.0336 -2.4953 0.9689
3.1186 -6.8287 -2.4954 0.9689
3.3604 -6.7132 -2.4955 0.9689
3.5979 -6.5891 -2.4955 0.9689
3.8309 -6.4567 -2.4956 0.9688
4.2820 -6.1673 -2.4957 0.9688
4.4996 -6.0108 -2.4958 0.9688
5.1170 -5.4960 -2.4961 0.9688
5.3101 -5.3101 -2.4962 0.9688
5.6760 -4.9183 -2.4965 0.9688
6.0131 -4.5013 -2.4968 0.9688
6.3197 -4.0614 -2.4971 0.9688
6.4610 -3.8335 -2.4973 0.9688
6.5942 -3.6007 -2.4974 0.9688
7.0416 -2.6264 -2.4982 0.9688
7.1314 -2.3736 -2.4984 0.9688
7.2837 -1.8591 -2.4988 0.9688
7.3991 -1.3349 -2.4992 0.9688
7.4426 -1.0701 -2.4994 0.9688
7.5164 -0.2685 -2.5001 0.9688
-6.9954 -0.2498 -2.5032 0.9707
-6.9585 -0.7481 -2.5028 0.9707
-6.9268 -0.9959 -2.5025 0.9707
-6.7789 -1.7302 -2.5019 0.9707
-6.7122 -1.9709 -2.5017 0.9707
-6.5534 -2.4443 -2.5012 0.9707
-6.2529 -3.1300 -2.5006 0.9707
-5.7419 -3.9867 -2.4997 0.9707
-5.5955 -4.1887 -2.4995 0.9707
-4.9409 -4.9409 -2.4988 0.9708
-4.5751 -5.2800 -2.4984 0.9708
-4.3834 -5.4395 -2.4982 0.9708
-4.1862 -5.5921 -2.4980 0.9708
-3.3469 -6.1294 -2.4974 0.9708
-3.1258 -6.2446 -2.4973 0.9708
-2.6721 -6.4510 -2.4970 0.9708
-2.4400 -6.5419 -2.4969 0.9708
-1.4839 -6.8213 -2.4964 0.9708
-1.2394 -6.8697 -2.4963 0.9708
-0.9934 -6.9093 -2.4962 0.9708
-0.2491 -6.9753 -2.4960 0.9708
0.0000 -6.9796 -2.4960 0.9708
0.2491 -6.9750 -2.4959 0.9708
0.4979 -6.9616 -2.4959 0.9708
0.7461 -6.9393 -2.4958 0.9708
0.9932 -6.9081 -2.4958 0.9708
1.4835 -6.8196 -2.4958 0.9708
1.7260 -6.7623 -2.4958 0.9708
2.4390 -6.5392 -2.4958 0.9708
2.8993 -6.3487 -2.4959 0.9708
3.9810 -5.7337 -2.4962 0.9708
4.3802 -5.4354 -2.4963 0.9708
4.5716 -5.2758 -2.4964 0.9708
5.7363 -3.9828 -2.4973 0.9708
5.8751 -3.7757 -2.4974 0.9708
6.0065 -3.5638 -2.4976 0.9708
6.1303 -3.3474 -2.4977 0.9708
6.2462 -3.1266 -2.4979 0.9708
6.6295 -2.2065 -2.4986 0.9708
6.7045 -1.9686 -2.4988 0.9708
6.7710 -1.7282 -2.4990 0.9708
6.9186 -0.9947 -2.4996 0.9707
-6.5277 -0.2331 -2.5031 0.9724
-6.4933 -0.6981 -2.5027 0.9724
-6.4638 -0.9293 -2.5025 0.9724
-6.3800 -1.3879 -2.5021 0.9724
-6.3258 -1.6146 -2.5019 0.9724
-6.2637 -1.8392 -2.5017 0.9724
-6.1935 -2.0614 -2.5015 0.9724
-5.7268 -3.1271 -2.5005 0.9724
-5.2218 -3.9090 -2.4997 0.9724
-5.0786 -4.0926 -2.4995 0.9724
-4.6110 -4.6110 -2.4990 0.9725
-4.0909 -5.0765 -2.4985 0.9725
-3.9068 -5.2189 -2.4983 0.9725
-3.1236 -5.7204 -2.4977 0.9725
-2.9173 -5.8280 -2.4976 0.9725
-2.7073 -5.9281 -2.4974 0.9725
-2.2772 -6.1055 -2.4972 0.9725
-2.0578 -6.1826 -2.4971 0.9725
-1.8357 -6.2519 -2.4970 0.9725
-1.6113 -6.3131 -2.4969 0.9725
-1.3849 -6.3664 -2.4968 0.9725
-1.1568 -6.4115 -2.4967 0.9725
-0.9272 -6.4485 -2.4966 0.9725
-0.6964 -6.4773 -2.4965 0.9725
-0.4647 -6.4979 -2.4965 0.9725
0.0000 -6.5142 -2.4964 0.9725
0.2325 -6.5099 -2.4963 0.9725
0.4647 -6.4974 -2.4963 0.9725
0.6963 -6.4766 -2.4962 0.9725
0.9270 -6.4475 -2.4962 0.9725
1.6109 -6.3114 -2.4962 0.9725
1.8351 -6.2499 -2.4962 0.9725
2.0571 -6.1804 -2.4962 0.9725
2.2764 -6.1031 -2.4962 0.9725
2.9158 -5.8251 -2.4963 0.9725
3.1219 -5.7174 -2.4964 0.9725
3.3241 -5.6024 -2.4964 0.9725
3.5220 -5.4804 -2.4965 0.9725
3.9042 -5.2154 -2.4966 0.9725
4.0880 -5.0729 -2.4967 0.9725
4.4398 -4.7687 -2.4969 0.9725
4.7691 -4.4402 -2.4971 0.9725
4.9248 -4.2674 -2.4972 0.9725
5.3536 -3.7170 -2.4976 0.9725
5.6057 -3.3260 -2.4979 0.9725
5.7212 -3.1240 -2.4980 0.9725
5.8294 -2.9180 -2.4982 0.9725
6.1091 -2.2786 -2.4987 0.9725
6.2570 -1.8372 -2.4990 0.9725
6.3190 -1.6128 -2.4992 0.9725
6.3730 -1.3864 -2.4994 0.9724
6.4189 -1.1581 -2.4996 0.9724
6.4566 -0.9283 -2.4997 0.9724
6.5074 -0.4654 -2.5001 0.9724
-5.9737 -1.2995 -2.5021 0.9739
-5.9231 -1.5118 -2.5019 0.9739
-5.7262 -2.1358 -2.5013 0.9739
-5.5584 -2.5385 -2.5009 0.9739
-5.3624 -2.9281 -2.5006 0.9739
-5.2541 -3.1174 -2.5004 0.9739
-5.1391 -3.3027 -2.5002 0.9739
-5.0176 -3.4838 -2.5000 0.9739
-4.7556 -3.8323 -2.4997 0.9739
-4.6154 -3.9993 -2.4995 0.9740
-4.4695 -4.1612 -2.4993 0.9740
-4.3178 -4.3178 -2.4992 0.9740
-4.1607 -4.4689 -2.4990 0.9740
-3.9983 -4.6142 -2.4988 0.9740
-3.4815 -5.0143 -2.4984 0.9740
-3.1145 -5.2493 -2.4981 0.9740
-2.9250 -5.3568 -2.4980 0.9740
-2.7318 -5.4575 -2.4978 0.9740
-2.3353 -5.6380 -2.4976 0.9740
-1.9270 -5.7897 -2.4974 0.9740
-1.7191 -5.8546 -2.4973 0.9740
-1.2969 -5.9619 -2.4971 0.9740
-1.0833 -6.0041 -2.4970 0.9740
-0.6521 -6.0658 -2.4969 0.9740
-0.4352 -6.0850 -2.4968 0.9740
0.4352 -6.0846 -2.4966 0.9740
0.6521 -6.0651 -2.4966 0.9740
0.8681 -6.0379 -2.4966 0.9740
1.0831 -6.0030 -2.4966 0.9740
1.5086 -5.9104 -2.4965 0.9740
1.9264 -5.7878 -2.4966 0.9740
2.1317 -5.7154 -2.4966 0.9740
2.3344 -5.6357 -2.4966 0.9740
2.5341 -5.5489 -2.4966 0.9740
2.9236 -5.3541 -2.4967 0.9740
3.4794 -5.0113 -2.4969 0.9740
3.6562 -4.8841 -2.4970 0.9740
3.9955 -4.6111 -2.4971 0.9740
4.3146 -4.3146 -2.4973 0.9740
4.4661 -4.1580 -2.4974 0.9740
4.7517 -3.8292 -2.4976 0.9740
4.8856 -3.6573 -2.4978 0.9740
5.0133 -3.4808 -2.4979 0.9740
5.1346 -3.2998 -2.4980 0.9740
5.2494 -3.1146 -2.4981 0.9740
5.3575 -2.9254 -2.4983 0.9740
5.4588 -2.7325 -2.4984 0.9740
5.5532 -2.5360 -2.4986 0.9740
5.6405 -2.3364 -2.4987 0.9740
5.8590 -1.7204 -2.4992 0.9740
5.9171 -1.5102 -2.4994 0.9740
5.9677 -1.2982 -2.4995 0.9739
6.0106 -1.0844 -2.4997 0.9739
6.0735 -0.6530 -2.5001 0.9739
6.0934 -0.4358 -2.5002 0.9739
6.1055 -0.2181 -2.5004 0.9739
-5.7436 -0.0000 -2.5031 0.9753
-5.7395 -0.2050 -2.5030 0.9753
-5.7281 -0.4097 -2.5028 0.9753
-5.7095 -0.6138 -2.5026 0.9753
-5.6503 -1.0194 -2.5023 0.9753
-5.5078 -1.6172 -2.5017 0.9753
-5.3022 -2.1962 -2.5012 0.9753
-5.1313 -2.5685 -2.5008 0.9753
-4.8263 -3.1017 -2.5003 0.9753
-4.4662 -3.5991 -2.4998 0.9753
-4.1975 -3.9080 -2.4995 0.9753
-4.0551 -4.0551 -2.4993 0.9753
-3.5978 -4.4646 -2.4989 0.9753
-3.2697 -4.7093 -2.4986 0.9753
-3.0994 -4.8228 -2.4985 0.9753
-2.5657 -5.1257 -2.4981 0.9753
-1.6145 -5.4986 -2.4976 0.9753
-1.4172 -5.5526 -2.4975 0.9753
-1.2181 -5.5994 -2.4974 0.9753
-0.8155 -5.6717 -2.4972 0.9753
-0.6125 -5.6971 -2.4972 0.9753
-0.4088 -5.7152 -2.4971 0.9753
-0.2045 -5.7260 -2.4971 0.9753
0.0000 -5.7295 -2.4970 0.9753
0.4087 -5.7148 -2.4969 0.9753
0.6124 -5.6965 -2.4969 0.9753
0.8154 -5.6709 -2.4969 0.9753
1.0172 -5.6382 -2.4969 0.9753
1.6141 -5.4971 -2.4969 0.9753
1.8093 -5.4360 -2.4969 0.9753
2.3801 -5.2116 -2.4970 0.9753
2.5646 -5.1234 -2.4970 0.9753
2.9237 -4.9276 -2.4971 0.9753
3.4339 -4.5872 -2.4973 0.9753
4.1945 -3.9052 -2.4977 0.9753
4.3314 -3.7532 -2.4978 0.9753
4.4628 -3.5964 -2.4979 0.9753
4.7084 -3.2691 -2.4981 0.9753
4.8223 -3.0991 -2.4982 0.9753
5.0317 -2.7475 -2.4985 0.9753
5.3727 -2.0039 -2.4991 0.9753
5.5026 -1.6157 -2.4994 0.9753
5.7039 -0.6132 -2.5002 0.9753
-5.3931 -0.3857 -2.5027 0.9764
-5.3755 -0.5779 -2.5026 0.9765
-5.3511 -0.7694 -2.5024 0.9765
-5.3198 -0.9598 -2.5022 0.9765
-5.2818 -1.1490 -2.5021 0.9765
-5.2371 -1.3367 -2.5019 0.9765
-5.1857 -1.5227 -2.5017 0.9765
-5.1277 -1.7067 -2.5016 0.9765
-4.7416 -2.5891 -2.5007 0.9765
-4.5442 -2.9204 -2.5004 0.9765
-4.4368 -3.0806 -2.5002 0.9765
-4.2052 -3.3888 -2.4999 0.9765
-3.8182 -3.8182 -2.4995 0.9765
-3.3876 -4.2038 -2.4991 0.9765
-2.9184 -4.5411 -2.4987 0.9765
-2.7543 -4.6421 -2.4985 0.9765
-2.5868 -4.7373 -2.4984 0.9765
-2.4159 -4.8264 -2.4983 0.9765
-2.0653 -4.9860 -2.4981 0.9765
-1.7042 -5.1202 -2.4979 0.9765
-1.5203 -5.1776 -2.4978 0.9765
-1.3345 -5.2284 -2.4977 0.9765
-0.9580 -5.3100 -2.4976 0.9765
-0.7679 -5.3406 -2.4975 0.9765
-0.5767 -5.3645 -2.4975 0.9765
-0.3849 -5.3816 -2.4974 0.9765
-0.1926 -5.3918 -2.4974 0.9765
0.0000 -5.3951 -2.4973 0.9765
0.5767 -5.3640 -2.4972 0.9765
0.9579 -5.3091 -2.4972 0.9765
1.3342 -5.2272 -2.4972 0.9765
1.5199 -5.1763 -2.4972 0.9765
1.7037 -5.1188 -2.4972 0.9765
1.8853 -5.0547 -2.4972 0.9765
2.0645 -4.9842 -2.4972 0.9765
2.9169 -4.5388 -2.4974 0.9765
3.0772 -4.4319 -2.4975 0.9765
3.2335 -4.3194 -2.4975 0.9765
3.5336 -4.0779 -2.4977 0.9765
3.8157 -3.8157 -2.4978 0.9765
3.9496 -3.6772 -2.4979 0.9765
4.0785 -3.5341 -2.4980 0.9765
4.5407 -2.9181 -2.4985 0.9765
4.6422 -2.7543 -2.4986 0.9765
4.9880 -2.0661 -2.4991 0.9765
5.0588 -1.8868 -2.4992 0.9765
5.1811 -1.5213 -2.4995 0.9765
5.2324 -1.3355 -2.4997 0.9765
5.3150 -0.9589 -2.5000 0.9765
5.3462 -0.7687 -2.5001 0.9765
5.3881 -0.3854 -2.5004 0.9765
-5.1027 -0.0000 -2.5030 0.9775
-5.0725 -0.5454 -2.5025 0.9775
-5.0495 -0.7260 -2.5024 0.9775
-5.0201 -0.9057 -2.5022 0.9775
-4.9420 -1.2614 -2.5019 0.9775
-4.6381 -2.1181 -2.5011 0.9775
-4.5592 -2.2822 -2.5009 0.9775
-4.4746 -2.4433 -2.5008 0.9775
-4.3843 -2.6013 -2.5006 0.9775
-4.1870 -2.9071 -2.5003 0.9775
-4.0803 -3.0545 -2.5002 0.9775
-3.8516 -3.3374 -2.4999 0.9775
-3.7298 -3.4726 -2.4997 0.9776
-3.4722 -3.7294 -2.4995 0.9776
-2.7542 -4.2856 -2.4988 0.9776
-2.5993 -4.3809 -2.4987 0.9776
-1.9491 -4.7055 -2.4983 0.9776
-1.6083 -4.8322 -2.4981 0.9776
-1.2594 -4.9343 -2.4980 0.9776
-1.0824 -4.9759 -2.4979 0.9776
-0.3632 -5.0789 -2.4977 0.9776
-0.1817 -5.0885 -2.4976 0.9776
0.0000 -5.0916 -2.4976 0.9776
0.1817 -5.0883 -2.4975 0.9776
0.3632 -5.0785 -2.4975 0.9776
0.5443 -5.0623 -2.4975 0.9776
0.9040 -5.0105 -2.4974 0.9776
1.2591 -4.9332 -2.4974 0.9776
1.6079 -4.8308 -2.4974 0.9776
1.7793 -4.7704 -2.4975 0.9776
2.1151 -4.6314 -2.4975 0.9776
2.2791 -4.5530 -2.4975 0.9776
3.0516 -4.0764 -2.4978 0.9776
3.4701 -3.7272 -2.4980 0.9776
3.7274 -3.4704 -2.4982 0.9776
3.8491 -3.3352 -2.4982 0.9776
3.9658 -3.1958 -2.4983 0.9776
4.0775 -3.0524 -2.4984 0.9776
4.1840 -2.9050 -2.4985 0.9776
4.2852 -2.7539 -2.4987 0.9776
4.4712 -2.4414 -2.4989 0.9776
4.6344 -2.1165 -2.4991 0.9776
4.7072 -1.9498 -2.4992 0.9776
4.7741 -1.7806 -2.4994 0.9776
4.8895 -1.4357 -2.4996 0.9776
4.9379 -1.2603 -2.4998 0.9776
5.0681 -0.5449 -2.5004 0.9775
5.0847 -0.3637 -2.5005 0.9775
5.0947 -0.1820 -2.5007 0.9775
-4.8213 -0.1722 -2.5028 0.9785
-4.8118 -0.3442 -2.5027 0.9785
-4.6729 -1.1927 -2.5019 0.9785
-4.6270 -1.3586 -2.5017 0.9785
-4.5753 -1.5228 -2.5016 0.9785
-4.4545 -1.8451 -2.5013 0.9785
-4.3110 -2.1579 -2.5010 0.9785
-4.2310 -2.3103 -2.5008 0.9785
-4.1456 -2.4597 -2.5007 0.9785
-3.9591 -2.7488 -2.5004 0.9785
-3.8582 -2.8882 -2.5003 0.9785
-3.7525 -3.0239 -2.5001 0.9785
-3.6420 -3.1558 -2.5000 0.9785
-3.4072 -3.4072 -2.4997 0.9785
-3.2832 -3.5265 -2.4996 0.9785
-2.8870 -3.8566 -2.4992 0.9785
-2.7474 -3.9570 -2.4991 0.9785
-2.6043 -4.0524 -2.4990 0.9785
-2.4579 -4.1426 -2.4989 0.9785
-2.3084 -4.2275 -2.4988 0.9785
-1.8431 -4.4495 -2.4985 0.9785
-1.6830 -4.5123 -2.4984 0.9785
-1.5208 -4.5694 -2.4983 0.9785
-1.1909 -4.6659 -2.4982 0.9785
-0.8550 -4.7387 -2.4981 0.9785
-0.5147 -4.7874 -2.4979 0.9785
-0.1719 -4.8118 -2.4978 0.9785
0.0000 -4.8148 -2.4978 0.9785
0.5147 -4.7870 -2.4977 0.9785
0.8548 -4.7381 -2.4977 0.9785
1.3564 -4.6195 -2.4977 0.9785
1.6825 -4.5110 -2.4977 0.9785
2.6032 -4.0506 -2.4979 0.9785
3.1534 -3.6392 -2.4981 0.9785
3.2814 -3.5245 -2.4982 0.9785
3.6397 -3.1538 -2.4984 0.9785
3.8557 -2.8863 -2.4986 0.9785
4.4511 -1.8437 -2.4994 0.9785
4.5717 -1.5216 -2.4996 0.9785
4.6691 -1.1917 -2.4999 0.9785
4.7089 -1.0244 -2.5000 0.9785
4.7923 -0.5152 -2.5005 0.9785
-4.5698 0.0000 -2.5029 0.9794
-4.5666 -0.1631 -2.5028 0.9794
-4.5576 -0.3260 -2.5026 0.9794
-4.5428 -0.4884 -2.5025 0.9794
-4.5223 -0.6502 -2.5023 0.9794
-4.4959 -0.8112 -2.5022 0.9794
-4.3827 -1.2869 -2.5018 0.9794
-4.3337 -1.4424 -2.5016 0.9794
-4.2193 -1.7477 -2.5013 0.9794
-4.1540 -1.8971 -2.5012 0.9794
-4.0834 -2.0440 -2.5010 0.9794
-4.0076 -2.1883 -2.5009 0.9794
-3.8409 -2.4684 -2.5006 0.9794
-3.6546 -2.7358 -2.5004 0.9794
-3.5544 -2.8644 -2.5002 0.9794
-3.2274 -3.2274 -2.4999 0.9794
-2.3283 -3.9241 -2.4991 0.9794
-2.1866 -4.0045 -2.4990 0.9794
-2.0422 -4.0799 -2.4989 0.9794
-1.5942 -4.2743 -2.4986 0.9794
-1.4406 -4.3284 -2.4985 0.9794
-1.2852 -4.3769 -2.4985 0.9794
-0.9696 -4.4572 -2.4983 0.9794
-0.8099 -4.4889 -2.4983 0.9794
-0.6491 -4.5148 -2.4982 0.9794
-0.3254 -4.5494 -2.4981 0.9794
0.0000 -4.5609 -2.4980 0.9794
0.1628 -4.5579 -2.4980 0.9794
0.4875 -4.5346 -2.4979 0.9794
0.8098 -4.4882 -2.4979 0.9794
1.1279 -4.4190 -2.4979 0.9794
2.1858 -4.0030 -2.4980 0.9794
2.7335 -3.6515 -2.4982 0.9794
2.8621 -3.5517 -2.4983 0.9794
3.1084 -3.3386 -2.4984 0.9794
3.2256 -3.2256 -2.4985 0.9794
3.3388 -3.1085 -2.4985 0.9794
3.5523 -2.8626 -2.4987 0.9794
3.6523 -2.7341 -2.4988 0.9794
3.8384 -2.4668 -2.4990 0.9794
4.1511 -1.8957 -2.4994 0.9794
4.2163 -1.7464 -2.4995 0.9794
4.2761 -1.5949 -2.4996 0.9794
4.3794 -1.2859 -2.4999 0.9794
4.4227 -1.1288 -2.5000 0.9794
4.5188 -0.6497 -2.5004 0.9794
4.5541 -0.3257 -2.5007 0.9794
4.5631 -0.1630 -2.5008 0.9794
-4.3235 -0.3092 -2.5026 0.9802
-4.3095 -0.4633 -2.5024 0.9802
-4.2900 -0.6168 -2.5023 0.9802
-4.2650 -0.7695 -2.5022 0.9802
-4.1988 -1.0717 -2.5019 0.9802
-4.1577 -1.2208 -2.5018 0.9802
-4.0595 -1.5141 -2.5015 0.9802
-3.8738 -1.9391 -2.5011 0.9802
-3.8019 -2.0760 -2.5010 0.9802
-3.7252 -2.2103 -2.5008 0.9802
-3.6437 -2.3417 -2.5007 0.9802
-3.4671 -2.5954 -2.5004 0.9802
-3.3720 -2.7174 -2.5003 0.9802
-3.2727 -2.8359 -2.5002 0.9802
-3.0618 -3.0618 -2.5000 0.9802
-2.8353 -3.2721 -2.4997 0.9802
-2.7166 -3.3711 -2.4996 0.9802
-2.5944 -3.4658 -2.4995 0.9802
-2.4690 -3.5560 -2.4994 0.9802
-2.2088 -3.7228 -2.4992 0.9802
-2.0745 -3.7991 -2.4991 0.9802
-1.7980 -3.9371 -2.4989 0.9802
-1.0703 -4.1932 -2.4986 0.9802
-0.7683 -4.2587 -2.4984 0.9802
-0.4626 -4.3025 -2.4983 0.9802
-0.1544 -4.3244 -2.4983 0.9802
0.1544 -4.3242 -2.4982 0.9802
0.3087 -4.3159 -2.4982 0.9802
0.9197 -4.2280 -2.4981 0.9802
1.5121 -4.0541 -2.4981 0.9802
1.7975 -3.9359 -2.4982 0.9802
2.3395 -3.6403 -2.4983 0.9802
2.4679 -3.5545 -2.4984 0.9802
2.5933 -3.4642 -2.4984 0.9802
2.7153 -3.3695 -2.4985 0.9802
2.8340 -3.2706 -2.4985 0.9802
3.1676 -2.9491 -2.4987 0.9802
3.2709 -2.8343 -2.4988 0.9802
3.4650 -2.5939 -2.4990 0.9802
3.6415 -2.3402 -2.4991 0.9802
3.7228 -2.2089 -2.4992 0.9802
3.7995 -2.0747 -2.4993 0.9802
3.8712 -1.9378 -2.4994 0.9802
4.0567 -1.5131 -2.4998 0.9802
4.1083 -1.3674 -2.4999 0.9802
4.1547 -1.2199 -2.5000 0.9802
4.2619 -0.7689 -2.5004 0.9802
4.2869 -0.6164 -2.5005 0.9802
4.3064 -0.4630 -2.5006 0.9802
4.3289 -0.1546 -2.5009 0.9802
