ply
format ascii 1.0
element vertex 1432
property float32 x
property float32 y
property float32 z
property float32 I
end_header
46.0583 6.6222 8.2048 0.8278
21.2875 8.8176 4.0628 0.9107
35.3245 16.1322 6.8475 0.8541
32.3385 16.1875 6.3766 0.8634
29.6729 16.2027 5.9613 0.8717
28.1995 16.7316 5.7817 0.8753
23.9844 16.6526 5.1485 0.8882
22.8648 17.1164 5.0362 0.8905
19.4912 16.8892 4.5476 0.9005
18.3760 17.1087 4.4271 0.9030
17.5013 17.5013 4.3642 0.9044
15.3534 17.7187 4.1340 0.9092
12.4063 17.8685 3.8357 0.9154
6.7934 18.2137 3.4277 0.9241
6.1645 18.5213 3.4419 0.9238
1.7375 9.6303 1.7255 0.9610
1.9652 18.2791 3.2417 0.9280
0.6737 18.8625 3.3281 0.9262
0.0000 25.2739 4.4565 0.9024
-0.9050 25.3392 4.4708 0.9021
-1.8213 25.4656 4.5018 0.9015
-2.7209 18.9245 3.3712 0.9253
-3.3673 18.6634 3.3440 0.9259
-4.0710 18.7141 3.3770 0.9252
-5.7528 19.5923 3.6005 0.9204
-8.4591 25.4154 4.7231 0.8969
-9.5658 19.1101 3.7682 0.9169
-10.6649 19.5313 3.9239 0.9136
-12.6991 19.7602 4.1417 0.9090
-13.7136 19.7514 4.2399 0.9070
-14.5759 19.4711 4.2887 0.9059
-18.7274 20.1146 4.8460 0.8944
-19.9931 19.9931 4.9856 0.8915
-21.3468 19.8746 5.1428 0.8883
45.8946 6.5987 7.1031 0.8289
46.2471 15.3925 7.4669 0.8210
41.9325 15.6400 6.8561 0.8343
21.2834 8.8159 3.5291 0.9110
32.7677 16.4023 5.6136 0.8622
29.6758 16.2043 5.1798 0.8721
25.5123 16.3957 4.6458 0.8845
22.8015 17.0690 4.3634 0.8911
21.4719 17.3032 4.2245 0.8944
18.3883 17.1201 3.8489 0.9033
17.5744 17.5744 3.8075 0.9043
14.0294 17.4094 3.4252 0.9135
13.0835 17.4776 3.3446 0.9154
12.4228 17.8922 3.3369 0.9156
11.7499 18.2832 3.3294 0.9158
14.2198 23.9662 4.2691 0.8934
9.1734 18.3261 3.1395 0.9204
7.4089 17.8867 2.9659 0.9246
6.8233 18.2941 2.9911 0.9240
6.2074 18.6502 3.0112 0.9235
7.2846 24.8089 3.9610 0.9007
6.3714 24.9629 3.9468 0.9010
5.4743 25.1651 3.9453 0.9010
1.7371 9.6279 1.4988 0.9612
1.3866 9.6439 1.4926 0.9613
1.9652 18.2792 2.8164 0.9283
1.3107 18.3264 2.8147 0.9283
0.0000 25.5592 3.9155 0.9017
-3.1589 8.4693 1.3846 0.9641
-8.0624 19.4644 3.2275 0.9183
-8.6988 19.0478 3.2079 0.9188
-9.2893 18.5576 3.1792 0.9195
-10.7149 19.6229 3.4251 0.9135
-12.8827 20.0459 3.6504 0.9081
-13.7366 19.7844 3.6898 0.9071
-15.7597 19.5566 3.8477 0.9034
-20.0206 20.0206 4.3375 0.8917
-25.5685 20.6044 5.0305 0.8756
-27.1036 20.2895 5.1866 0.8720
-18.0084 10.6848 3.2078 0.9188
21.2793 8.8142 2.9993 0.9113
35.3973 16.1654 5.0674 0.8547
32.7661 16.4016 4.7715 0.8626
26.1676 16.8169 4.0506 0.8821
19.6259 17.0060 3.3817 0.9005
22.1715 23.8139 4.2370 0.8770
13.5841 16.8569 2.8192 0.9164
13.0837 17.4777 2.8430 0.9157
12.4443 17.9232 2.8414 0.9157
13.1699 24.1189 3.5785 0.8951
9.2452 18.4695 2.6896 0.9201
7.4090 17.8869 2.5212 0.9249
6.8297 18.3112 2.5450 0.9242
7.2674 24.7504 3.3591 0.9012
4.8205 18.8865 2.5383 0.9244
5.5734 25.6205 3.4144 0.8996
1.7366 9.6255 1.2737 0.9613
1.9652 18.2794 2.3941 0.9285
0.0000 26.0223 3.3886 0.9004
-2.0783 19.3309 2.5318 0.9246
-4.0711 18.7144 2.4940 0.9257
-4.9280 19.3078 2.5949 0.9228
-7.6177 25.9435 3.5210 0.8967
-6.5079 19.5531 2.6836 0.9202
-8.6989 19.0480 2.7269 0.9190
-15.7029 26.4658 4.0074 0.8833
-13.7854 19.8547 3.1476 0.9071
-14.5762 19.4715 3.1673 0.9065
-15.7598 19.5568 3.2707 0.9036
-20.0722 20.0723 3.6965 0.8918
-23.7195 20.5531 4.0870 0.8811
-25.5667 20.6030 4.2758 0.8759
46.3416 15.4240 5.2446 0.8216
40.9710 15.2814 4.6956 0.8387
35.4869 16.2063 4.1892 0.8547
33.3263 16.6820 4.0019 0.8608
29.8007 16.2724 3.6460 0.8723
28.6926 17.0242 3.5826 0.8744
24.9830 16.0556 3.1889 0.8874
21.9940 17.7239 3.0332 0.8926
18.3927 17.1242 2.6985 0.9038
17.7113 17.7113 2.6897 0.9041
22.7038 24.3856 3.5778 0.8746
13.6026 16.8798 2.3279 0.9165
13.1725 24.1237 2.9515 0.8953
8.9932 17.9662 2.1574 0.9224
6.7636 18.1340 2.0783 0.9251
6.0478 18.1706 2.0564 0.9259
5.5734 25.6207 2.8155 0.8999
1.3107 18.3267 1.9730 0.9287
0.0000 26.0225 2.7943 0.9006
-4.0711 18.7146 2.0566 0.9258
-4.8408 18.9659 2.1019 0.9243
-8.5225 25.6060 2.8979 0.8971
-3.1589 8.4694 0.9707 0.9643
-7.9232 19.1282 2.2233 0.9201
-8.6990 19.0481 2.2486 0.9192
-9.2914 18.5618 2.2290 0.9199
-10.9039 19.9690 2.4431 0.9125
-12.0009 20.2264 2.5255 0.9097
-17.4454 27.1455 3.4650 0.8783
-15.7600 19.5570 2.6971 0.9039
-17.8256 20.5718 2.9230 0.8963
-19.1147 20.5306 3.0122 0.8933
-20.0701 20.0701 3.0478 0.8921
-20.6970 19.2696 3.0366 0.8925
-25.8003 22.3561 3.6659 0.8717
-25.5933 20.6244 3.5295 0.8761
-18.0229 10.6935 2.2503 0.9191
45.8041 6.5857 3.9173 0.8305
21.2712 8.8108 1.9490 0.9117
35.4848 16.2054 3.3023 0.8550
29.8011 16.2726 2.8743 0.8726
24.9891 16.0595 2.5146 0.8876
21.9781 17.7111 2.3894 0.8929
17.4137 18.7037 2.1633 0.9025
13.6063 16.8844 1.8356 0.9166
13.0839 17.4780 1.8482 0.9161
14.2202 23.9668 2.3591 0.8942
13.1751 24.1284 2.3272 0.8955
6.7944 18.2165 1.6458 0.9249
7.2439 24.6703 2.1766 0.9019
6.4423 25.2406 2.2052 0.9007
5.5055 25.3081 2.1925 0.9013
1.3855 9.6367 0.8242 0.9617
1.3314 18.6148 1.5798 0.9278
-0.9204 25.7713 2.1830 0.9017
-1.8104 25.3134 2.1483 0.9031
-2.7177 18.9016 1.6165 0.9262
-3.3674 18.6640 1.6055 0.9267
-4.8626 19.0516 1.6645 0.9241
-7.5384 25.6735 2.2651 0.8982
-8.5226 25.6062 2.2845 0.8973
-3.1583 8.4676 0.7650 0.9644
-7.9832 19.2731 1.7659 0.9197
-10.6295 19.4665 1.8776 0.9148
-13.2297 20.5857 2.0715 0.9064
-13.6024 19.5912 2.0190 0.9087
-14.5764 19.4719 2.0590 0.9070
-19.1454 20.5637 2.3785 0.8933
-20.0679 20.0679 2.4024 0.8923
-25.6741 20.6895 2.7913 0.8760
-27.2246 20.3801 2.8789 0.8724
-18.0301 10.6977 1.7747 0.9193
45.7738 6.5813 2.8676 0.8308
21.2671 8.8091 1.4274 0.9119
34.4580 17.2485 2.3895 0.8569
29.8015 16.2729 2.1055 0.8728
24.9940 16.0627 1.8424 0.8877
23.1421 17.3240 1.7926 0.8906
29.1984 23.5296 2.3253 0.8605
18.3971 17.1283 1.5587 0.9042
17.4341 17.4341 1.5289 0.9059
20.6138 23.7896 1.9520 0.8815
14.2203 23.9670 1.7281 0.8943
9.0333 18.0462 1.2514 0.9223
8.1446 17.8343 1.2158 0.9244
7.4092 17.8873 1.2006 0.9253
6.7940 18.2153 1.2055 0.9250
6.0751 18.2527 1.1929 0.9258
5.5340 25.4396 1.6144 0.9009
1.7353 9.6183 0.6061 0.9616
1.3852 9.6343 0.6036 0.9617
1.3313 18.6136 1.1572 0.9279
0.6660 18.6483 1.1571 0.9279
-0.9252 25.9052 1.6074 0.9013
-1.8166 25.3988 1.5790 0.9030
-2.0252 18.8367 1.1748 0.9269
-4.8623 19.0504 1.2192 0.9242
-8.5226 25.6065 1.6735 0.8975
-7.9826 19.2718 1.2935 0.9198
-10.6288 19.4651 1.3753 0.9150
-15.6143 26.3165 1.8975 0.8846
-14.5766 19.4721 1.5083 0.9071
-15.7603 19.5574 1.5575 0.9042
-25.6462 29.5972 2.4285 0.8547
-19.0497 20.4608 1.7336 0.8940
-20.6799 19.2536 1.7521 0.8929
-24.9049 21.5802 2.0435 0.8763
-25.3606 20.4369 2.0197 0.8776
-18.0373 10.7020 1.3006 0.9194
45.7436 6.5770 1.8222 0.8311
21.2631 8.8075 0.9075 0.9120
29.8019 16.2731 1.3389 0.8729
26.1580 16.8107 1.2261 0.8830
24.0936 16.7285 1.1566 0.8892
23.1459 17.3268 1.1401 0.8907
29.3322 23.6374 1.4854 0.8600
19.6267 17.0067 1.0240 0.9013
18.3993 17.1304 0.9913 0.9043
17.4327 17.4327 0.9721 0.9060
12.3658 17.8102 0.8550 0.9169
14.2204 23.9672 1.0989 0.8944
9.0327 18.0451 0.7957 0.9224
8.1447 17.8344 0.7731 0.9245
6.7935 18.2141 0.7665 0.9251
7.2677 24.7515 1.0172 0.9019
6.4758 25.3719 1.0325 0.9005
1.7349 9.6159 0.3853 0.9616
1.3312 18.6125 0.7358 0.9280
0.6660 18.6472 0.7357 0.9280
-0.9344 26.1637 1.0323 0.9005
-2.7173 18.8994 0.7529 0.9264
-4.0712 18.7150 0.7552 0.9262
-8.5227 25.6067 1.0642 0.8976
-8.6992 19.0486 0.8257 0.9196
-10.6280 19.4637 0.8744 0.9151
-13.2983 20.6926 0.9699 0.9062
-14.5767 19.4722 0.9591 0.9072
-15.7605 19.5576 0.9904 0.9043
-19.0485 20.4595 1.1023 0.8941
-24.9806 21.6457 1.3034 0.8761
-25.4787 20.5320 1.2903 0.8772
-27.2253 20.3806 1.3410 0.8727
21.2591 8.8058 0.3887 0.9121
35.3753 16.1554 0.6569 0.8559
34.5871 17.3131 0.6533 0.8566
29.8023 16.2733 0.5736 0.8730
24.0961 16.7302 0.4955 0.8893
23.1497 17.3296 0.4885 0.8908
19.6269 17.0068 0.4387 0.9013
18.4015 17.1324 0.4247 0.9043
17.4312 17.4312 0.4164 0.9061
22.7686 24.4552 0.5644 0.8749
20.6108 23.7862 0.5317 0.8817
12.3649 17.8089 0.3662 0.9169
11.7845 18.3370 0.3682 0.9165
14.2205 23.9674 0.4708 0.8945
9.0322 18.0440 0.3408 0.9224
8.1448 17.8346 0.3312 0.9246
7.4093 17.8876 0.3270 0.9255
6.0743 18.2504 0.3249 0.9259
7.2672 24.7499 0.4357 0.9020
1.3845 9.6296 0.1643 0.9618
1.3311 18.6113 0.3152 0.9281
0.6659 18.6460 0.3152 0.9281
0.0000 26.0966 0.4408 0.9009
-0.9345 26.1639 0.4422 0.9006
-2.0249 18.8344 0.3200 0.9270
-2.7172 18.8982 0.3225 0.9265
-3.3674 18.6644 0.3204 0.9269
-4.8617 19.0479 0.3321 0.9244
-7.5793 25.8127 0.4544 0.8980
-3.1565 8.4629 0.1526 0.9645
-7.9816 19.2692 0.3523 0.9199
-9.5664 19.1113 0.3610 0.9181
-14.5769 19.4724 0.4109 0.9073
-15.7607 19.5578 0.4243 0.9044
-20.0615 20.0615 0.4792 0.8927
-21.4429 19.9641 0.4949 0.8894
-18.0516 10.7105 0.3546 0.9195
41.3914 15.4382 -0.2487 0.8380
34.5919 17.3155 -0.2178 0.8566
29.8027 16.2735 -0.1911 0.8730
20.6093 23.7845 -0.1772 0.8817
14.0302 17.4105 -0.1259 0.9144
13.0844 17.4787 -0.1229 0.9164
12.3640 17.8076 -0.1221 0.9169
11.7877 18.3420 -0.1228 0.9165
14.2206 23.9676 -0.1569 0.8945
8.1448 17.8347 -0.1104 0.9246
6.0739 18.2492 -0.1083 0.9260
6.4759 25.3723 -0.1474 0.9006
5.5894 25.6939 -0.1480 0.9002
1.3842 9.6272 -0.0548 0.9618
1.9653 18.2802 -0.1035 0.9291
0.6659 18.6448 -0.1050 0.9281
0.0000 26.0968 -0.1469 0.9009
-0.9345 26.1641 -0.1474 0.9006
-2.0248 18.8333 -0.1066 0.9270
-2.7170 18.8971 -0.1075 0.9265
-4.8614 19.0466 -0.1107 0.9244
-3.1562 8.4620 -0.0510 0.9645
-7.9810 19.2679 -0.1174 0.9200
-9.5665 19.1114 -0.1203 0.9181
-10.6264 19.4608 -0.1248 0.9151
-15.6629 26.3984 -0.1728 0.8845
-13.2966 20.6899 -0.1385 0.9063
-19.0461 20.4569 -0.1574 0.8942
-24.9782 21.6437 -0.1861 0.8762
-27.2260 20.3812 -0.1915 0.8728
-18.0588 10.7147 -0.1182 0.9194
41.3921 15.4385 -1.2439 0.8380
34.5966 17.3178 -1.0894 0.8566
29.8031 16.2738 -0.9561 0.8729
28.8779 17.1341 -0.9455 0.8743
26.1504 16.8059 -0.8753 0.8830
23.1574 17.3354 -0.8145 0.8907
29.3471 23.6494 -1.0613 0.8600
19.6274 17.0072 -0.7313 0.9013
22.7690 24.4557 -0.9409 0.8748
11.7909 18.3470 -0.6141 0.9164
13.1879 24.1519 -0.7748 0.8957
6.7922 18.2106 -0.5473 0.9252
5.5894 25.6940 -0.7404 0.9001
1.3838 9.6248 -0.2738 0.9618
1.3309 18.6090 -0.5253 0.9281
0.6659 18.6437 -0.5253 0.9281
-0.9345 26.1643 -0.7372 0.9005
-2.7168 18.8959 -0.5375 0.9265
-3.3675 18.6647 -0.5340 0.9269
-4.0713 18.7155 -0.5393 0.9262
-4.8610 19.0454 -0.5535 0.9244
-7.5783 25.8094 -0.7574 0.8980
-8.5229 25.6073 -0.7599 0.8976
-3.1558 8.4611 -0.2543 0.9645
-8.6994 19.0491 -0.5897 0.9196
-13.2958 20.6887 -0.6925 0.9063
-13.6610 19.6757 -0.6745 0.9086
-14.5772 19.4728 -0.6849 0.9073
-15.7610 19.5582 -0.7073 0.9044
-19.0449 20.4557 -0.7870 0.8942
-25.4705 20.5255 -0.9211 0.8773
-17.7110 11.3821 -0.5928 0.9192
-18.0659 10.7190 -0.5915 0.9194
46.0539 1.6448 -2.3371 0.8315
43.1067 4.6345 -2.1987 0.8406
42.6282 7.6910 -2.1968 0.8407
42.3442 9.2114 -2.1977 0.8407
40.7034 15.1816 -2.2031 0.8403
21.2471 8.8008 -1.1663 0.9120
34.5441 17.2916 -1.9591 0.8567
29.8035 16.2740 -1.7221 0.8728
24.1036 16.7354 -1.4881 0.8891
23.1613 17.3383 -1.4673 0.8906
19.6276 17.0074 -1.3171 0.9012
17.4265 17.4265 -1.2498 0.9060
22.7693 24.4559 -1.6946 0.8747
20.5596 23.7271 -1.5922 0.8818
11.7941 18.3520 -1.1063 0.9163
14.2209 23.9680 -1.4134 0.8944
13.1905 24.1566 -1.3958 0.8956
8.1450 17.8350 -0.9943 0.9245
7.4095 17.8880 -0.9819 0.9254
6.7917 18.2094 -0.9856 0.9251
6.0731 18.2468 -0.9753 0.9259
7.2659 24.7452 -1.3079 0.9019
1.7332 9.6064 -0.4950 0.9617
1.3835 9.6225 -0.4930 0.9618
0.6658 18.6425 -0.9460 0.9280
-0.9345 26.1645 -1.3278 0.9005
-1.8160 25.3912 -1.2910 0.9031
-2.7167 18.8948 -0.9681 0.9264
-3.3675 18.6649 -0.9619 0.9269
-4.0713 18.7156 -0.9713 0.9262
-4.8607 19.0441 -0.9968 0.9243
-7.5778 25.8078 -1.3641 0.8979
-8.5230 25.6075 -1.3687 0.8975
-3.1555 8.4602 -0.4579 0.9645
-7.9799 19.2653 -1.0575 0.9199
-8.6995 19.0493 -1.0620 0.9195
-10.6249 19.4580 -1.1243 0.9150
-15.6605 26.3944 -1.5565 0.8843
-13.2950 20.6874 -1.2471 0.9062
-14.5773 19.4730 -1.2336 0.9072
-15.9972 19.8513 -1.2930 0.9029
-20.0550 20.0551 -1.4384 0.8926
-21.4437 19.9648 -1.4859 0.8893
-24.9758 21.6416 -1.6760 0.8760
-25.4678 20.5233 -1.6588 0.8772
-18.0731 10.7233 -1.0658 0.9193
32.5384 0.0000 -2.3858 0.8777
32.4572 2.3214 -2.3859 0.8776
32.3574 3.4788 -2.3862 0.8776
22.2859 7.4174 -1.7222 0.9101
21.2431 8.7992 -1.6859 0.9119
26.9637 14.7233 -2.2526 0.8841
26.4422 15.6889 -2.2544 0.8840
25.8875 16.6369 -2.2563 0.8839
24.1061 16.7372 -2.1518 0.8890
24.0296 19.3643 -2.2628 0.8836
18.4102 17.1405 -1.8444 0.9040
20.3259 23.4574 -2.2758 0.8829
14.0306 17.4109 -1.6395 0.9142
11.7255 18.2452 -1.5902 0.9167
8.0425 17.6107 -1.4195 0.9253
7.4095 17.8882 -1.4197 0.9253
6.7913 18.2082 -1.4249 0.9250
6.0727 18.2456 -1.4100 0.9258
7.2486 24.6863 -1.8865 0.9020
6.4760 25.3729 -1.9200 0.9003
5.5895 25.6944 -1.9280 0.8999
1.3832 9.6201 -0.7126 0.9618
1.9654 18.2806 -1.3481 0.9289
0.6658 18.6413 -1.3677 0.9279
0.0000 26.0973 -1.9135 0.9006
-0.9345 26.1647 -1.9197 0.9003
-2.0244 18.8299 -1.3886 0.9269
-4.0714 18.7158 -1.4044 0.9261
-4.8604 19.0429 -1.4410 0.9242
-7.5602 25.7477 -1.9676 0.8980
-10.6241 19.4565 -1.6254 0.9149
-15.6240 26.3328 -2.2451 0.8844
-21.6736 25.0126 -2.4267 0.8757
-20.0529 20.0529 -2.0794 0.8925
-21.4439 19.9650 -2.1483 0.8891
-26.6962 19.9845 -2.4451 0.8748
-27.4225 19.0398 -2.4478 0.8747
-18.0803 10.7275 -1.5415 0.9191
-29.3877 16.0469 -2.4551 0.8743
-30.5095 13.9332 -2.4593 0.8741
-33.5098 12.4985 -2.6224 0.8664
-35.0247 7.6192 -2.6282 0.8661
-35.2883 6.3667 -2.6292 0.8660
24.9875 2.6864 -2.4127 0.9039
24.7400 4.4636 -2.4135 0.9039
9.0031 2.6436 -0.9008 0.9630
9.0447 3.0104 -0.9152 0.9624
20.4689 7.6345 -2.0974 0.9160
20.4943 8.4891 -2.1297 0.9147
20.4850 9.3552 -2.1620 0.9135
21.1778 10.6009 -2.2737 0.9092
20.7979 11.3566 -2.2750 0.9092
20.3920 12.0991 -2.2764 0.9091
19.9603 12.8277 -2.2779 0.9091
19.5033 13.5414 -2.2795 0.9090
13.0848 17.4793 -2.0962 0.9160
12.2514 20.6487 -2.3050 0.9080
11.5196 21.0966 -2.3076 0.9079
7.4096 17.8883 -1.8589 0.9251
6.7696 18.1500 -1.8597 0.9251
6.0542 18.1900 -1.8405 0.9259
6.8211 23.2304 -2.3244 0.9073
2.1818 10.0295 -0.9854 0.9596
1.7323 9.6017 -0.9367 0.9616
1.9654 18.2807 -1.7652 0.9288
1.3265 18.5467 -1.7851 0.9280
0.0000 24.4656 -2.3488 0.9064
-0.8744 24.4828 -2.3520 0.9062
-1.7500 24.4687 -2.3551 0.9061
-3.3676 18.6652 -1.8209 0.9266
-3.1548 8.4583 -0.8666 0.9644
-7.9545 19.2039 -1.9956 0.9199
-9.5668 19.1121 -2.0519 0.9177
-10.5912 19.3964 -2.1217 0.9150
-12.7285 21.4527 -2.3948 0.9046
-13.6160 19.6108 -2.2920 0.9085
-16.4271 18.9579 -2.4083 0.9041
-17.1110 18.3786 -2.4108 0.9040
-19.0331 16.4922 -2.4178 0.9038
-16.9507 10.8936 -1.9344 0.9222
-18.3679 10.0296 -2.0092 0.9193
-23.0493 10.5263 -2.4327 0.9032
-23.0284 9.5387 -2.3930 0.9047
-25.9398 7.6167 -2.5955 0.8971
-26.2054 6.6885 -2.5965 0.8970
-26.4367 5.7509 -2.5974 0.8970
-26.7942 3.8524 -2.5988 0.8969
-27.0103 1.9318 -2.5997 0.8969
-27.0648 0.9666 -2.6000 0.8969
20.4506 0.0000 -2.4292 0.9209
20.3356 2.1863 -2.4295 0.9209
20.1330 3.6324 -2.4301 0.9209
19.8306 5.0615 -2.4311 0.9209
8.8543 2.5999 -1.0962 0.9635
8.9382 2.9749 -1.1190 0.9628
17.7807 7.3650 -2.2861 0.9254
17.5135 7.9982 -2.2870 0.9254
16.9136 9.2355 -2.2891 0.9253
16.5815 9.8383 -2.2903 0.9253
15.4611 11.5741 -2.2942 0.9252
15.0477 12.1262 -2.2956 0.9251
13.2059 14.1842 -2.3021 0.9249
12.1795 15.1139 -2.3057 0.9248
9.9387 16.7508 -2.3136 0.9245
8.7345 17.4494 -2.3179 0.9244
7.4096 17.8884 -2.3000 0.9250
6.7691 18.1488 -2.3009 0.9249
6.0538 18.1888 -2.2771 0.9257
5.5247 18.8154 -2.3294 0.9240
1.7319 9.5993 -1.1587 0.9615
1.3840 9.6260 -1.1552 0.9616
1.9654 18.2809 -2.1840 0.9286
1.3264 18.5455 -2.2086 0.9278
0.6637 18.5825 -2.2088 0.9278
-0.0000 19.7764 -2.3492 0.9234
-1.4139 19.7687 -2.3542 0.9233
-2.0181 18.7713 -2.2426 0.9268
-3.3676 18.6653 -2.2530 0.9264
-6.3058 18.9459 -2.3719 0.9227
-8.3204 18.2191 -2.3792 0.9225
-9.6180 17.6140 -2.3839 0.9223
-10.8707 16.9152 -2.3884 0.9222
-5.8246 8.3890 -1.2131 0.9597
-12.0718 16.1261 -2.3928 0.9221
-12.6509 15.6988 -2.3949 0.9220
-13.2145 15.2503 -2.3970 0.9219
-13.7619 14.7813 -2.3990 0.9219
-14.2922 14.2922 -2.4009 0.9218
-15.2989 13.2566 -2.4046 0.9217
-15.7738 12.7113 -2.4064 0.9216
-16.2287 12.1487 -2.4080 0.9216
-16.6631 11.5694 -2.4097 0.9215
-16.8321 10.8173 -2.3767 0.9226
-16.8393 9.9912 -2.3259 0.9242
-18.1824 9.1014 -2.4153 0.9214
-19.2394 8.7864 -2.5124 0.9183
-20.0210 8.2930 -2.5742 0.9164
-20.3129 7.5763 -2.5753 0.9164
-20.5784 6.8492 -2.5763 0.9163
-21.0287 5.3673 -2.5780 0.9163
-21.2127 4.6146 -2.5787 0.9163
-21.5974 2.3220 -2.5803 0.9162
-21.6691 1.5498 -2.5806 0.9162
-21.7124 0.7755 -2.5808 0.9162
17.2267 0.0000 -2.4408 0.9328
17.1295 1.8416 -2.4411 0.9328
16.9582 3.0596 -2.4416 0.9328
16.8408 3.6635 -2.4420 0.9327
16.7024 4.2630 -2.4424 0.9327
8.9259 2.6209 -1.3181 0.9631
8.9642 2.9836 -1.3386 0.9626
15.8826 6.5788 -2.4358 0.9329
14.5025 7.2594 -2.2979 0.9366
14.2398 7.7755 -2.2988 0.9366
13.3451 9.2656 -2.3019 0.9365
13.0124 9.7410 -2.3031 0.9364
12.6632 10.2046 -2.3043 0.9364
12.2977 10.6560 -2.3056 0.9364
11.5198 11.5198 -2.3083 0.9363
11.1083 11.9311 -2.3098 0.9363
10.2424 12.7100 -2.3128 0.9362
9.7890 13.0766 -2.3144 0.9361
9.3227 13.4272 -2.3161 0.9361
8.8439 13.7614 -2.3178 0.9360
7.3391 14.6617 -2.3231 0.9359
6.8166 14.9263 -2.3250 0.9359
6.2846 15.1724 -2.3269 0.9358
5.7438 15.3998 -2.3288 0.9358
5.1949 15.6081 -2.3308 0.9357
4.0752 15.9663 -2.3348 0.9356
1.3851 9.6337 -1.3790 0.9614
1.7677 16.4417 -2.3430 0.9354
0.5913 16.5557 -2.3473 0.9353
0.0000 16.5813 -2.3494 0.9352
-1.1851 16.5644 -2.3536 0.9351
-1.7773 16.5311 -2.3558 0.9350
-3.5437 16.2903 -2.3621 0.9349
-4.1266 16.1679 -2.3643 0.9348
-3.1541 8.4565 -1.2789 0.9642
-6.9618 15.2441 -2.3745 0.9345
-7.5077 14.9984 -2.3765 0.9345
-8.0448 14.7330 -2.3784 0.9344
-8.5725 14.4481 -2.3804 0.9344
-9.0899 14.1441 -2.3822 0.9343
-5.9923 8.6305 -1.4887 0.9584
-10.0912 13.4802 -2.3859 0.9342
-10.5737 13.1211 -2.3876 0.9342
-11.4990 12.3508 -2.3910 0.9341
-11.9406 11.9406 -2.3926 0.9341
-12.3673 11.5143 -2.3942 0.9340
-13.1735 10.6159 -2.3972 0.9339
-13.5519 10.1448 -2.3986 0.9339
-13.9130 9.6600 -2.3999 0.9339
-14.2565 9.1621 -2.4012 0.9338
-15.6785 8.5611 -2.5311 0.9304
-17.3687 5.0999 -2.5649 0.9295
-18.0756 1.2928 -2.5677 0.9294
-18.1115 0.6468 -2.5678 0.9294
14.8679 0.0000 -2.4493 0.9415
14.8583 0.5307 -2.4493 0.9415
14.7838 1.5894 -2.4495 0.9415
14.7188 2.1163 -2.4497 0.9415
14.5339 3.1617 -2.4503 0.9415
14.4141 3.6790 -2.4507 0.9415
8.9837 2.6379 -1.5425 0.9628
9.0071 2.9979 -1.5639 0.9622
13.9471 5.2020 -2.4523 0.9414
13.7562 5.6980 -2.4529 0.9414
13.2923 6.6537 -2.4488 0.9415
11.7842 7.5733 -2.3077 0.9448
11.5112 7.9923 -2.3086 0.9448
11.2235 8.4018 -2.3096 0.9447
10.6054 9.1897 -2.3118 0.9447
10.2758 9.5671 -2.3129 0.9447
8.0347 11.5722 -2.3209 0.9445
7.1979 12.1314 -2.3238 0.9444
6.7648 12.3888 -2.3254 0.9444
6.3226 12.6309 -2.3269 0.9443
4.4733 13.4401 -2.3335 0.9442
3.5083 13.7453 -2.3370 0.9441
1.0159 14.2038 -2.3459 0.9439
-0.0000 14.2623 -2.3496 0.9438
-2.0361 14.1611 -2.3569 0.9437
-2.5422 14.0903 -2.3587 0.9436
-3.5463 13.8944 -2.3623 0.9435
-4.0431 13.7694 -2.3641 0.9435
-6.9078 12.6506 -2.3745 0.9432
-7.3600 12.4046 -2.3761 0.9432
-7.8033 12.1422 -2.3778 0.9432
-5.8251 8.3897 -1.6826 0.9594
-8.6610 11.5698 -2.3809 0.9431
-10.9611 9.4978 -2.3893 0.9429
-11.6225 8.7005 -2.3917 0.9428
-14.0967 6.4378 -2.5530 0.9391
-14.3223 5.9325 -2.5538 0.9391
-14.7176 4.8985 -2.5553 0.9391
-15.1672 3.2994 -2.5571 0.9390
-15.3687 2.2097 -2.5579 0.9390
-15.4396 1.6599 -2.5582 0.9390
-15.4903 1.1079 -2.5584 0.9390
13.0655 0.0000 -2.4558 0.9482
13.0571 0.4663 -2.4558 0.9482
13.0325 0.9321 -2.4558 0.9482
12.9915 1.3967 -2.4560 0.9482
12.9343 1.8597 -2.4561 0.9482
9.0166 3.0010 -1.7862 0.9621
12.0865 5.0064 -2.4590 0.9481
11.7048 5.8590 -2.4603 0.9481
11.4916 6.2749 -2.4610 0.9481
11.2480 6.6737 -2.4583 0.9482
10.1164 7.0239 -2.3149 0.9511
9.8581 7.3797 -2.3146 0.9511
9.5923 7.7299 -2.3155 0.9511
9.0241 8.4018 -2.3175 0.9511
8.7225 8.7225 -2.3186 0.9510
7.0531 10.1584 -2.3245 0.9509
6.3175 10.6476 -2.3271 0.9509
5.1523 11.2820 -2.3312 0.9508
4.7493 11.4658 -2.3327 0.9507
4.3397 11.6352 -2.3341 0.9507
2.9162 8.7616 -1.7357 0.9631
2.5783 8.7810 -1.7202 0.9634
2.8585 11.1993 -2.1725 0.9540
1.3874 9.6493 -1.8323 0.9611
0.8906 12.4521 -2.3465 0.9505
0.0000 12.5009 -2.3497 0.9504
-0.4465 12.5015 -2.3513 0.9504
-0.8930 12.4861 -2.3529 0.9503
-1.3390 12.4547 -2.3545 0.9503
-1.7839 12.4075 -2.3561 0.9503
-2.2272 12.3442 -2.3577 0.9502
-3.9718 11.9335 -2.3640 0.9501
-5.2348 11.4627 -2.3686 0.9500
-5.6441 11.2756 -2.3701 0.9500
-6.4420 10.8574 -2.3730 0.9499
-5.8252 8.3899 -1.9198 0.9593
-7.5789 10.1243 -2.3771 0.9498
-7.9398 9.8527 -2.3784 0.9498
-8.2909 9.5682 -2.3797 0.9498
-8.9616 8.9616 -2.3821 0.9497
-9.2803 8.6403 -2.3833 0.9497
-10.2164 8.2329 -2.4662 0.9480
-10.8023 8.0865 -2.5363 0.9466
-11.3824 7.3150 -2.5432 0.9464
-11.6407 6.9067 -2.5441 0.9464
-12.7018 4.7375 -2.5481 0.9463
-13.1441 3.3548 -2.5498 0.9463
-13.2578 2.8841 -2.5502 0.9463
-13.4952 1.4509 -2.5512 0.9463
-13.5660 0.4845 -2.5515 0.9462
11.6421 0.0000 -2.4609 0.9535
11.6347 0.4155 -2.4609 0.9535
11.5251 1.6571 -2.4612 0.9535
11.2854 2.8804 -2.4620 0.9535
10.9183 4.0723 -2.4632 0.9535
10.7683 4.4604 -2.4637 0.9535
10.6046 4.8430 -2.4643 0.9535
10.4276 5.2197 -2.4649 0.9534
10.2374 5.5900 -2.4656 0.9534
9.8183 6.3098 -2.4670 0.9534
9.5849 6.6549 -2.4665 0.9534
9.3250 6.9806 -2.4622 0.9535
8.8047 7.0953 -2.3902 0.9548
8.0369 7.4826 -2.3211 0.9561
7.7678 7.7678 -2.3221 0.9561
6.2794 9.0441 -2.3273 0.9560
5.9555 9.2670 -2.3285 0.9560
5.6238 9.4784 -2.3297 0.9559
4.5857 10.0412 -2.3334 0.9559
3.8619 10.3542 -2.3359 0.9558
2.9162 8.7617 -1.9519 0.9630
2.5858 8.8063 -1.9401 0.9632
1.5970 8.8516 -1.9013 0.9639
0.0000 11.1164 -2.3498 0.9556
-0.7940 11.1015 -2.3526 0.9555
-1.1905 11.0728 -2.3541 0.9555
-2.3715 10.9018 -2.3583 0.9554
-3.5296 10.6046 -2.3625 0.9553
-3.1199 8.3648 -1.8871 0.9642
-4.2820 10.3377 -2.3652 0.9553
-5.3715 9.8372 -2.3692 0.9552
-5.7223 9.6444 -2.3705 0.9552
-6.0660 9.4390 -2.3717 0.9552
-6.7308 8.9913 -2.3741 0.9551
-7.0509 8.7497 -2.3753 0.9551
-7.3623 8.4965 -2.3764 0.9551
-7.6644 8.2321 -2.3775 0.9551
-8.1094 8.1095 -2.4242 0.9542
-8.7324 8.1301 -2.5220 0.9524
-9.3410 7.5274 -2.5358 0.9521
-9.6074 7.1920 -2.5368 0.9521
-9.8616 6.8471 -2.5377 0.9521
-10.1033 6.4930 -2.5386 0.9521
-10.3320 6.1303 -2.5395 0.9521
-10.5476 5.7594 -2.5403 0.9521
-10.7496 5.3809 -2.5410 0.9520
-11.2719 4.2042 -2.5430 0.9520
-11.4173 3.8000 -2.5435 0.9520
-11.6636 2.9770 -2.5445 0.9520
-11.7642 2.5592 -2.5449 0.9520
-11.8496 2.1379 -2.5452 0.9520
-11.9197 1.7138 -2.5455 0.9520
-12.0135 0.8592 -2.5459 0.9520
-12.0371 0.4299 -2.5460 0.9519
10.4886 0.0000 -2.4651 0.9578
10.3830 1.4929 -2.4653 0.9578
10.3239 1.8626 -2.4655 0.9578
10.2518 2.2301 -2.4658 0.9578
10.1668 2.5949 -2.4660 0.9578
9.0425 2.6551 -2.2149 0.9620
9.7002 4.0180 -2.4676 0.9578
9.0380 5.3625 -2.4699 0.9577
8.8433 5.6832 -2.4706 0.9577
8.6373 5.9970 -2.4713 0.9577
8.4203 6.3034 -2.4720 0.9577
7.9437 6.8833 -2.4703 0.9577
7.1940 7.1940 -2.3911 0.9591
6.7434 7.2429 -2.3258 0.9602
6.4831 7.4819 -2.3267 0.9601
5.9378 7.9319 -2.3287 0.9601
5.6533 8.1423 -2.3297 0.9601
5.0626 8.5326 -2.3318 0.9601
4.4452 8.8803 -2.3340 0.9600
3.8040 9.1838 -2.3362 0.9600
2.9162 8.7617 -2.1703 0.9628
2.5858 8.8063 -2.1571 0.9630
2.2516 8.8216 -2.1398 0.9633
1.5970 8.8516 -2.1139 0.9637
0.3567 9.9866 -2.3486 0.9598
-1.0705 9.9574 -2.3537 0.9597
-2.1323 9.8019 -2.3575 0.9596
-2.4821 9.7247 -2.3588 0.9596
-3.1120 8.3435 -2.0929 0.9641
-3.8488 9.2919 -2.3637 0.9595
-4.1802 9.1533 -2.3649 0.9595
-4.5065 9.0028 -2.3661 0.9595
-4.8273 8.8405 -2.3673 0.9595
-5.1422 8.6668 -2.3684 0.9594
-5.4509 8.4817 -2.3696 0.9594
-5.7528 8.2856 -2.3707 0.9594
-6.0476 8.0787 -2.3717 0.9594
-8.1405 7.0538 -2.5315 0.9567
-8.3901 6.7612 -2.5325 0.9567
-8.8571 6.1496 -2.5342 0.9567
-9.0738 5.8314 -2.5350 0.9566
-9.2790 5.5055 -2.5357 0.9566
-9.4722 5.1722 -2.5365 0.9566
-9.6534 4.8321 -2.5371 0.9566
-9.8221 4.4856 -2.5378 0.9566
-10.1216 3.7752 -2.5389 0.9566
-10.3690 3.0446 -2.5398 0.9566
-10.6394 1.9196 -2.5409 0.9565
-10.7022 1.5388 -2.5411 0.9565
-10.7863 0.7714 -2.5415 0.9565
9.5339 0.0000 -2.4685 0.9614
9.4378 1.3570 -2.4687 0.9614
9.1025 2.6727 -2.4563 0.9616
9.0516 3.0126 -2.4700 0.9613
8.9396 3.3343 -2.4704 0.9613
8.8164 3.6519 -2.4708 0.9613
8.0367 5.1649 -2.4735 0.9613
6.2534 7.2169 -2.4725 0.9613
5.8578 7.2690 -2.4171 0.9622
4.3210 7.9134 -2.3345 0.9634
2.8537 8.5740 -2.3397 0.9634
2.2218 8.7050 -2.3261 0.9636
1.8969 8.7199 -2.3105 0.9638
1.5759 8.7346 -2.2981 0.9640
1.2579 8.7491 -2.2886 0.9641
0.9422 8.7636 -2.2821 0.9642
0.6278 8.7780 -2.2786 0.9643
-0.3241 9.0747 -2.3511 0.9632
-0.9716 9.0374 -2.3534 0.9631
-1.6155 8.9538 -2.3557 0.9631
-2.2523 8.8244 -2.3580 0.9631
-2.5671 8.7426 -2.3592 0.9631
-3.4918 8.4300 -2.3625 0.9630
-3.7922 8.3039 -2.3636 0.9630
-4.0881 8.1669 -2.3647 0.9630
-4.6901 7.9047 -2.3798 0.9627
-5.8288 7.7864 -2.5183 0.9606
-6.1144 7.5875 -2.5230 0.9605
-6.3868 7.3708 -2.5252 0.9605
-7.1460 6.6531 -2.5280 0.9605
-7.6075 6.1305 -2.5297 0.9604
-8.4124 4.9913 -2.5327 0.9604
-8.9042 4.0664 -2.5345 0.9604
-9.0456 3.7468 -2.5350 0.9604
-9.1753 3.4222 -2.5355 0.9603
-9.2932 3.0931 -2.5360 0.9603
-9.3992 2.7599 -2.5364 0.9603
-9.4931 2.4230 -2.5367 0.9603
-9.5747 2.0829 -2.5370 0.9603
-9.7451 1.0477 -2.5377 0.9603
-9.7769 0.6992 -2.5379 0.9603
8.7244 0.3116 -2.4714 0.9644
8.6419 1.2425 -2.4716 0.9644
8.5324 1.8561 -2.4720 0.9644
8.2879 2.7585 -2.4728 0.9643
8.1853 3.0529 -2.4731 0.9643
7.9492 3.6303 -2.4739 0.9643
7.6729 4.1897 -2.4749 0.9643
7.5201 4.4619 -2.4754 0.9643
7.3577 4.7285 -2.4760 0.9643
7.1860 4.9893 -2.4766 0.9643
7.0051 5.2440 -2.4772 0.9643
6.8153 5.4922 -2.4779 0.9643
6.6168 5.7335 -2.4786 0.9643
6.4099 5.9678 -2.4793 0.9642
6.1947 6.1947 -2.4801 0.9642
5.7407 6.6251 -2.4817 0.9642
5.5024 6.8281 -2.4825 0.9642
5.2509 7.0144 -2.4805 0.9642
4.9935 7.1920 -2.4786 0.9643
3.7085 7.4087 -2.3454 0.9661
2.8882 7.7435 -2.3396 0.9662
2.0465 8.0181 -2.3426 0.9662
1.7598 8.0896 -2.3437 0.9662
1.4706 8.1508 -2.3447 0.9662
0.2961 8.2920 -2.3489 0.9661
-0.2964 8.2996 -2.3510 0.9661
-1.1835 8.2315 -2.3542 0.9660
-1.7693 8.1334 -2.3564 0.9660
-2.3471 7.9935 -2.3584 0.9660
-2.9139 7.8125 -2.3605 0.9659
-3.5735 7.8249 -2.4352 0.9649
-5.3376 7.1303 -2.5215 0.9636
-5.8369 6.7362 -2.5233 0.9636
-6.7451 5.8446 -2.5266 0.9636
-7.3375 5.0945 -2.5288 0.9635
-7.5166 4.8307 -2.5295 0.9635
-7.6862 4.5604 -2.5301 0.9635
-7.8459 4.2842 -2.5307 0.9635
-8.1350 3.7151 -2.5318 0.9635
-8.3824 3.1265 -2.5327 0.9635
-8.4900 2.8257 -2.5331 0.9635
-8.5867 2.5213 -2.5335 0.9635
-8.6724 2.2135 -2.5338 0.9635
-8.7468 1.9028 -2.5341 0.9635
-8.9023 0.9571 -2.5347 0.9635
-8.9487 0.3196 -2.5349 0.9635
8.0379 0.2871 -2.4739 0.9669
8.0226 0.5738 -2.4739 0.9669
7.9163 1.4283 -2.4742 0.9669
7.8609 1.7100 -2.4744 0.9669
7.7203 2.2669 -2.4749 0.9669
7.5408 2.8126 -2.4755 0.9669
7.4367 3.0804 -2.4758 0.9669
7.3231 3.3444 -2.4762 0.9669
7.2003 3.6042 -2.4766 0.9669
7.0684 3.8596 -2.4771 0.9669
6.9275 4.1103 -2.4776 0.9669
6.7778 4.3558 -2.4781 0.9668
6.6195 4.5960 -2.4786 0.9668
6.4527 4.8305 -2.4792 0.9668
6.2778 5.0589 -2.4798 0.9668
6.0948 5.2812 -2.4805 0.9668
5.9040 5.4968 -2.4812 0.9668
5.7056 5.7056 -2.4818 0.9668
5.5000 5.9074 -2.4826 0.9668
5.2872 6.1018 -2.4833 0.9668
4.3707 6.8010 -2.4866 0.9667
4.1253 6.9528 -2.4866 0.9667
3.8726 7.0922 -2.4854 0.9667
3.3542 7.3447 -2.4835 0.9668
2.7747 7.4393 -2.4421 0.9673
2.4830 7.4602 -2.4184 0.9676
2.1964 7.4802 -2.3979 0.9679
1.9142 7.4998 -2.3807 0.9681
1.6356 7.5186 -2.3666 0.9683
0.5446 7.6146 -2.3481 0.9686
-0.5472 7.6508 -2.3592 0.9684
-1.1042 7.6801 -2.3865 0.9681
-1.3882 7.6944 -2.4048 0.9678
-1.9709 7.7221 -2.4513 0.9672
-2.5712 7.7252 -2.5043 0.9665
-2.8484 7.6370 -2.5070 0.9665
-3.3941 7.4321 -2.5131 0.9664
-3.6607 7.3131 -2.5154 0.9664
-3.9208 7.1804 -2.5164 0.9663
-4.4263 6.8875 -2.5182 0.9663
-4.6710 6.7275 -2.5191 0.9663
-4.9098 6.5587 -2.5200 0.9663
-5.1425 6.3815 -2.5208 0.9663
-5.5883 6.0022 -2.5224 0.9663
-6.3931 5.1519 -2.5254 0.9662
-6.5746 4.9217 -2.5261 0.9662
-6.7478 4.6851 -2.5267 0.9662
-6.9124 4.4423 -2.5273 0.9662
-7.0682 4.1937 -2.5279 0.9662
-7.2149 3.9396 -2.5284 0.9662
-7.5990 3.1476 -2.5299 0.9662
-7.7078 2.8748 -2.5303 0.9662
-7.8066 2.5983 -2.5307 0.9662
-7.9741 2.0353 -2.5313 0.9661
-8.0425 1.7495 -2.5316 0.9661
-8.1006 1.4615 -2.5318 0.9661
-8.1482 1.1715 -2.5320 0.9661
-8.1853 0.8800 -2.5321 0.9661
-8.2119 0.5873 -2.5323 0.9661
7.4487 0.0000 -2.4760 0.9691
7.4298 0.5314 -2.4760 0.9691
7.4063 0.7963 -2.4761 0.9691
7.3735 1.0602 -2.4762 0.9691
7.3313 1.3227 -2.4763 0.9691
7.2799 1.5837 -2.4765 0.9691
7.2193 1.8426 -2.4767 0.9691
7.0709 2.3534 -2.4772 0.9691
6.9833 2.6046 -2.4775 0.9691
6.6677 3.3376 -2.4786 0.9691
6.5455 3.5741 -2.4790 0.9691
5.6433 4.8900 -2.4821 0.9690
5.4666 5.0895 -2.4828 0.9690
5.2828 5.2828 -2.4834 0.9690
4.8952 5.6493 -2.4848 0.9690
4.4823 5.9877 -2.4862 0.9690
4.2670 6.1457 -2.4870 0.9690
3.5891 6.5730 -2.4894 0.9689
3.3533 6.6991 -2.4902 0.9689
2.8689 6.9261 -2.4920 0.9689
2.6202 7.0249 -2.4923 0.9689
2.3674 7.1129 -2.4919 0.9689
1.5935 7.3251 -2.4918 0.9689
1.3312 7.3781 -2.4921 0.9689
-0.5363 7.4978 -2.4987 0.9688
-0.8040 7.4786 -2.5003 0.9688
-1.0712 7.4503 -2.5020 0.9688
-1.3374 7.4128 -2.5038 0.9687
-1.6024 7.3663 -2.5059 0.9687
-1.8660 7.3107 -2.5080 0.9687
-2.1273 7.2449 -2.5099 0.9687
-2.3854 7.1670 -2.5108 0.9687
-2.6407 7.0799 -2.5118 0.9687
-2.8927 6.9837 -2.5127 0.9686
-3.6265 6.6415 -2.5153 0.9686
-3.8626 6.5100 -2.5162 0.9686
-4.3200 6.2220 -2.5179 0.9686
-4.7559 5.9017 -2.5194 0.9686
-5.1679 5.5507 -2.5210 0.9685
-5.3642 5.3642 -2.5217 0.9685
-5.9116 4.7639 -2.5237 0.9685
-6.2394 4.3321 -2.5249 0.9685
-6.9163 3.1586 -2.5274 0.9685
-7.0258 2.9102 -2.5278 0.9685
-7.1262 2.6579 -2.5282 0.9684
-7.2996 2.1434 -2.5289 0.9684
-7.3723 1.8817 -2.5291 0.9684
-7.4354 1.6175 -2.5294 0.9684
-7.4891 1.3512 -2.5296 0.9684
-7.5330 1.0831 -2.5298 0.9684
-7.5919 0.5430 -2.5300 0.9684
-7.6066 0.2717 -2.5301 0.9684
6.8590 0.9862 -2.4780 0.9710
6.7719 1.4731 -2.4783 0.9710
6.7155 1.7140 -2.4785 0.9710
6.5774 2.1892 -2.4790 0.9710
6.4958 2.4228 -2.4792 0.9710
6.4059 2.6534 -2.4795 0.9710
6.0883 3.3245 -2.4806 0.9710
5.9667 3.5402 -2.4811 0.9710
5.7011 3.9583 -2.4820 0.9709
5.4064 4.3568 -2.4830 0.9709
5.0842 4.7335 -2.4842 0.9709
4.9132 4.9132 -2.4848 0.9709
4.5525 5.2538 -2.4860 0.9709
4.1684 5.5683 -2.4874 0.9709
3.7627 5.8548 -2.4888 0.9709
3.5524 5.9872 -2.4896 0.9709
3.1181 6.2292 -2.4911 0.9708
2.8947 6.3386 -2.4919 0.9708
2.6675 6.4400 -2.4927 0.9708
2.4368 6.5332 -2.4935 0.9708
1.9658 6.6949 -2.4952 0.9708
0.9944 6.9162 -2.4987 0.9708
0.4988 6.9744 -2.5005 0.9707
0.0000 6.9973 -2.5023 0.9707
-0.7488 6.9647 -2.5050 0.9707
-1.2446 6.8984 -2.5068 0.9707
-1.4906 6.8520 -2.5076 0.9707
-1.7348 6.7968 -2.5085 0.9706
-1.9770 6.7329 -2.5094 0.9706
-2.2168 6.6604 -2.5103 0.9706
-2.6881 6.4897 -2.5120 0.9706
-3.3697 6.1712 -2.5144 0.9706
-3.8038 5.9188 -2.5160 0.9706
-4.2189 5.6358 -2.5175 0.9705
-4.6128 5.3235 -2.5190 0.9705
-5.3290 4.6176 -2.5216 0.9705
-5.4917 4.4255 -2.5222 0.9705
-5.7961 4.0243 -2.5233 0.9705
-6.3146 3.1608 -2.5252 0.9704
-6.7040 2.2313 -2.5267 0.9704
-6.7802 1.9909 -2.5270 0.9704
-6.8476 1.7478 -2.5273 0.9704
-6.9560 1.2550 -2.5277 0.9704
-6.9968 1.0060 -2.5279 0.9704
-7.0287 0.7557 -2.5280 0.9704
-7.0651 0.2523 -2.5282 0.9704
6.4702 -0.0000 -2.4795 0.9727
6.4048 0.9209 -2.4797 0.9727
6.3682 1.1489 -2.4798 0.9727
6.3235 1.3756 -2.4799 0.9727
6.2102 1.8235 -2.4803 0.9727
6.0654 2.2623 -2.4808 0.9727
5.7911 2.8988 -2.4817 0.9726
5.6847 3.1041 -2.4821 0.9726
5.3231 3.6959 -2.4834 0.9726
5.1887 3.8842 -2.4838 0.9726
5.0478 4.0678 -2.4843 0.9726
4.9004 4.2462 -2.4848 0.9726
4.7468 4.4194 -2.4854 0.9726
4.5870 4.5870 -2.4860 0.9726
4.2501 4.9049 -2.4871 0.9726
4.0734 5.0548 -2.4878 0.9726
3.8914 5.1983 -2.4884 0.9726
3.7043 5.3353 -2.4891 0.9726
3.3161 5.5890 -2.4904 0.9725
3.1154 5.7055 -2.4912 0.9725
2.9106 5.8147 -2.4919 0.9725
2.7021 5.9167 -2.4926 0.9725
2.4899 6.0112 -2.4934 0.9725
2.2745 6.0981 -2.4942 0.9725
1.8348 6.2487 -2.4957 0.9725
1.1574 6.4153 -2.4982 0.9725
0.9280 6.4546 -2.4990 0.9725
0.2330 6.5234 -2.5015 0.9724
0.0000 6.5297 -2.5023 0.9724
-0.2331 6.5277 -2.5031 0.9724
-0.4661 6.5174 -2.5040 0.9724
-0.6987 6.4988 -2.5048 0.9724
-1.1613 6.4367 -2.5065 0.9724
-1.3908 6.3933 -2.5073 0.9724
-1.8445 6.2819 -2.5090 0.9723
-2.2894 6.1382 -2.5106 0.9723
-2.7232 5.9630 -2.5121 0.9723
-2.9352 5.8638 -2.5129 0.9723
-3.1436 5.7570 -2.5137 0.9723
-3.3480 5.6428 -2.5144 0.9723
-3.5483 5.5213 -2.5151 0.9723
-3.9354 5.2571 -2.5165 0.9723
-4.1216 5.1146 -2.5172 0.9723
-4.3027 4.9656 -2.5179 0.9722
-4.6483 4.6483 -2.5192 0.9722
-5.1221 4.1276 -2.5209 0.9722
-5.2672 3.9430 -2.5214 0.9722
-5.4057 3.7533 -2.5219 0.9722
-5.6618 3.3593 -2.5229 0.9722
-5.7791 3.1556 -2.5233 0.9722
-5.8890 2.9478 -2.5237 0.9722
-6.1730 2.3024 -2.5248 0.9722
-6.2520 2.0809 -2.5251 0.9722
-6.3230 1.8566 -2.5254 0.9722
-6.3858 1.6299 -2.5256 0.9722
-6.4405 1.4010 -2.5258 0.9722
-6.4868 1.1704 -2.5260 0.9722
-6.5545 0.7047 -2.5263 0.9722
-6.5885 0.2353 -2.5264 0.9722
6.0619 0.0000 -2.4810 0.9741
6.0273 0.6480 -2.4811 0.9741
6.0006 0.8627 -2.4811 0.9741
5.9243 1.2888 -2.4814 0.9741
5.8749 1.4995 -2.4815 0.9741
5.8181 1.7083 -2.4817 0.9741
5.7539 1.9151 -2.4819 0.9741
5.6038 2.3212 -2.4825 0.9741
5.4253 2.7157 -2.4831 0.9741
5.2192 3.0967 -2.4838 0.9741
4.9866 3.4623 -2.4846 0.9741
4.8607 3.6387 -2.4850 0.9741
4.5905 3.9777 -2.4860 0.9741
4.2968 4.2968 -2.4870 0.9741
3.6450 4.8691 -2.4893 0.9741
2.5307 5.5414 -2.4933 0.9740
2.3319 5.6298 -2.4940 0.9740
2.1301 5.7111 -2.4947 0.9740
1.9255 5.7852 -2.4954 0.9740
1.7183 5.8520 -2.4962 0.9740
1.5088 5.9113 -2.4969 0.9740
1.2972 5.9632 -2.4977 0.9740
0.6530 6.0733 -2.5000 0.9739
0.4359 6.0947 -2.5008 0.9739
-0.8712 6.0594 -2.5055 0.9739
-1.0873 6.0263 -2.5062 0.9739
-1.5153 5.9371 -2.5078 0.9739
-1.7268 5.8810 -2.5086 0.9739
-2.3477 5.6678 -2.5108 0.9738
-2.5492 5.5820 -2.5115 0.9738
-3.1339 5.2820 -2.5137 0.9738
-3.8578 4.7872 -2.5163 0.9738
-4.3505 4.3505 -2.5181 0.9738
-4.5041 4.1934 -2.5187 0.9738
-4.6519 4.0309 -2.5192 0.9737
-5.0591 3.5126 -2.5207 0.9737
-5.1822 3.3304 -2.5212 0.9737
-5.2987 3.1438 -2.5216 0.9737
-5.4084 2.9532 -2.5220 0.9737
-5.5112 2.7587 -2.5224 0.9737
-5.6069 2.5606 -2.5227 0.9737
-5.6955 2.3592 -2.5231 0.9737
-5.7768 2.1546 -2.5234 0.9737
-5.9758 1.5252 -2.5241 0.9737
-6.0269 1.3111 -2.5243 0.9737
-6.0703 1.0952 -2.5245 0.9737
-6.1058 0.8779 -2.5247 0.9737
-6.1534 0.4401 -2.5249 0.9737
5.6921 0.2033 -2.4823 0.9755
5.6813 0.4063 -2.4823 0.9755
5.5200 1.4089 -2.4828 0.9754
5.4666 1.6051 -2.4830 0.9754
5.4062 1.7994 -2.4832 0.9754
5.3391 1.9914 -2.4834 0.9754
5.2651 2.1809 -2.4837 0.9754
5.1845 2.3677 -2.4840 0.9754
4.7974 3.0831 -2.4853 0.9754
4.6850 3.2529 -2.4857 0.9754
4.5667 3.4186 -2.4861 0.9754
4.4425 3.5800 -2.4865 0.9754
4.1774 3.8893 -2.4875 0.9754
3.8908 4.1791 -2.4885 0.9754
3.0905 4.8090 -2.4913 0.9754
2.9176 4.9174 -2.4919 0.9754
2.7410 5.0197 -2.4926 0.9754
2.3771 5.2051 -2.4939 0.9753
2.1904 5.2881 -2.4945 0.9753
2.0008 5.3643 -2.4952 0.9753
1.6139 5.4964 -2.4966 0.9753
1.2184 5.6008 -2.4980 0.9753
0.6132 5.7039 -2.5002 0.9753
0.2049 5.7364 -2.5016 0.9753
0.0000 5.7418 -2.5024 0.9753
-0.6143 5.7139 -2.5046 0.9752
-0.8181 5.6900 -2.5053 0.9752
-1.0210 5.6588 -2.5060 0.9752
-1.2226 5.6204 -2.5068 0.9752
-1.6214 5.5221 -2.5082 0.9752
-2.0124 5.3954 -2.5096 0.9752
-3.2902 4.7388 -2.5143 0.9751
-3.4581 4.6195 -2.5149 0.9751
-3.6217 4.4942 -2.5155 0.9751
-3.7806 4.3631 -2.5161 0.9751
-4.2281 3.9365 -2.5177 0.9751
-4.3668 3.7839 -2.5182 0.9751
-4.5000 3.6263 -2.5187 0.9751
-4.6274 3.4640 -2.5192 0.9751
-4.8644 3.1262 -2.5200 0.9751
-4.9737 2.9510 -2.5204 0.9751
-5.1731 2.5894 -2.5212 0.9751
-5.4915 1.8278 -2.5224 0.9751
-5.5538 1.6308 -2.5226 0.9751
-5.6089 1.4316 -2.5228 0.9751
-5.6569 1.2306 -2.5230 0.9751
-5.6976 1.0280 -2.5232 0.9751
-5.7569 0.6189 -2.5234 0.9751
-5.7755 0.4131 -2.5235 0.9751
5.3652 0.0000 -2.4835 0.9766
5.3516 0.3828 -2.4835 0.9766
5.3346 0.5735 -2.4836 0.9766
5.3109 0.7636 -2.4836 0.9766
5.2434 1.1406 -2.4838 0.9766
5.1996 1.3271 -2.4840 0.9766
5.1493 1.5120 -2.4841 0.9766
4.8835 2.2302 -2.4851 0.9766
4.7130 2.5735 -2.4856 0.9766
4.6188 2.7405 -2.4860 0.9766
4.4128 3.0639 -2.4867 0.9766
4.1843 3.3719 -2.4875 0.9766
3.9345 3.6631 -2.4884 0.9766
3.8020 3.8020 -2.4888 0.9766
3.6645 3.9360 -2.4893 0.9766
3.0697 4.4212 -2.4914 0.9766
2.7477 4.6310 -2.4926 0.9765
2.5813 4.7273 -2.4932 0.9765
1.7031 5.1169 -2.4963 0.9765
1.3344 5.2281 -2.4976 0.9765
1.1472 5.2738 -2.4983 0.9765
0.9585 5.3129 -2.4989 0.9765
0.5774 5.3706 -2.5003 0.9765
0.3854 5.3893 -2.5010 0.9765
0.1929 5.4011 -2.5017 0.9765
0.0000 5.4061 -2.5024 0.9765
-0.7702 5.3570 -2.5052 0.9764
-1.1510 5.2913 -2.5065 0.9764
-1.3395 5.2482 -2.5072 0.9764
-1.7114 5.1421 -2.5086 0.9764
-2.2531 4.9335 -2.5105 0.9764
-2.4283 4.8512 -2.5112 0.9764
-2.6006 4.7626 -2.5118 0.9764
-3.0970 4.4605 -2.5136 0.9763
-3.4089 4.2301 -2.5147 0.9763
-3.7035 3.9779 -2.5158 0.9763
-3.9795 3.7050 -2.5168 0.9763
-4.2352 3.4130 -2.5178 0.9763
-4.4695 3.1032 -2.5186 0.9763
-4.8685 2.4370 -2.5201 0.9763
-5.1028 1.9033 -2.5210 0.9763
-5.2266 1.5347 -2.5215 0.9763
-5.2785 1.3473 -2.5217 0.9763
-5.3618 0.9674 -2.5220 0.9763
-5.4177 0.5825 -2.5222 0.9763
-5.4352 0.3887 -2.5223 0.9763
-5.4457 0.1945 -2.5223 0.9763
5.0651 0.0000 -2.4846 0.9777
5.0523 0.3613 -2.4846 0.9777
5.0362 0.5415 -2.4846 0.9777
4.9851 0.8994 -2.4848 0.9777
4.9500 1.0768 -2.4849 0.9777
4.9087 1.2529 -2.4850 0.9777
4.8612 1.4274 -2.4852 0.9777
4.8075 1.6001 -2.4854 0.9777
4.7477 1.7708 -2.4856 0.9777
4.6819 1.9393 -2.4858 0.9777
4.6101 2.1054 -2.4860 0.9777
4.5326 2.2688 -2.4863 0.9777
4.4492 2.4294 -2.4866 0.9777
4.1657 2.8923 -2.4876 0.9777
3.9499 3.1830 -2.4883 0.9777
3.8344 3.3225 -2.4887 0.9776
3.7140 3.4579 -2.4892 0.9776
3.5889 3.5889 -2.4896 0.9776
3.3249 3.8372 -2.4905 0.9776
2.8975 4.1731 -2.4921 0.9776
2.4364 4.4619 -2.4937 0.9776
2.1128 4.6265 -2.4948 0.9776
1.9468 4.7000 -2.4954 0.9776
1.4343 4.8848 -2.4973 0.9776
1.2594 4.9341 -2.4979 0.9776
1.0827 4.9772 -2.4985 0.9776
0.9046 5.0139 -2.4992 0.9776
0.0000 5.1015 -2.5024 0.9775
-0.5458 5.0763 -2.5044 0.9775
-0.9070 5.0270 -2.5057 0.9775
-1.0861 4.9927 -2.5063 0.9775
-1.2639 4.9520 -2.5070 0.9775
-1.4402 4.9050 -2.5076 0.9775
-1.9578 4.7265 -2.5095 0.9775
-2.1257 4.6547 -2.5101 0.9775
-2.4536 4.4933 -2.5113 0.9774
-2.7691 4.3088 -2.5124 0.9774
-2.9218 4.2082 -2.5130 0.9774
-3.2159 3.9907 -2.5140 0.9774
-3.3570 3.8742 -2.5146 0.9774
-3.6263 3.6263 -2.5155 0.9774
-3.7541 3.4952 -2.5160 0.9774
-3.8771 3.3595 -2.5165 0.9774
-3.9953 3.2196 -2.5169 0.9774
-4.2161 2.9273 -2.5177 0.9774
-4.3186 2.7754 -2.5181 0.9774
-4.4155 2.6198 -2.5185 0.9774
-4.5924 2.2988 -2.5191 0.9774
-4.7457 1.9658 -2.5197 0.9774
-4.8134 1.7953 -2.5199 0.9774
-4.8748 1.6225 -2.5202 0.9774
-4.9300 1.4476 -2.5204 0.9774
-4.9789 1.2708 -2.5206 0.9774
-5.0215 1.0924 -2.5207 0.9774
-5.0871 0.7314 -2.5210 0.9774
-5.1102 0.5494 -2.5211 0.9774
-5.1267 0.3667 -2.5212 0.9774
-5.1366 0.1835 -2.5212 0.9774
4.7911 0.0000 -2.4855 0.9786
4.7638 0.5122 -2.4856 0.9786
4.7426 0.6819 -2.4857 0.9786
4.7154 0.8508 -2.4858 0.9786
4.4908 1.6750 -2.4865 0.9786
4.2083 2.2979 -2.4875 0.9786
3.8405 2.8749 -2.4888 0.9786
3.7360 3.0106 -2.4891 0.9786
3.3944 3.3944 -2.4903 0.9786
2.1525 4.3002 -2.4947 0.9786
1.8411 4.4448 -2.4958 0.9786
1.3563 4.6193 -2.4976 0.9785
1.1909 4.6659 -2.4982 0.9785
0.8554 4.7412 -2.4994 0.9785
0.6858 4.7699 -2.5000 0.9785
0.5152 4.7925 -2.5006 0.9785
0.1721 4.8194 -2.5018 0.9785
0.0000 4.8237 -2.5024 0.9785
-0.1722 4.8218 -2.5030 0.9785
-0.3443 4.8138 -2.5037 0.9785
-0.6872 4.7793 -2.5049 0.9785
-1.3617 4.6374 -2.5073 0.9785
-1.5267 4.5869 -2.5079 0.9785
-1.6898 4.5306 -2.5085 0.9784
-1.8509 4.4684 -2.5091 0.9784
-2.3195 4.2478 -2.5108 0.9784
-2.4702 4.1632 -2.5114 0.9784
-2.6177 4.0733 -2.5119 0.9784
-2.7620 3.9781 -2.5124 0.9784
-2.9029 3.8778 -2.5129 0.9784
-3.1733 3.6622 -2.5139 0.9784
-3.4278 3.4278 -2.5148 0.9784
-3.5486 3.3038 -2.5153 0.9784
-3.6649 3.1756 -2.5157 0.9784
-3.8833 2.9070 -2.5165 0.9784
-3.9852 2.7670 -2.5169 0.9784
-4.0820 2.6233 -2.5173 0.9784
-4.2599 2.3261 -2.5179 0.9784
-4.3407 2.1728 -2.5182 0.9784
-4.4160 2.0167 -2.5185 0.9784
-4.6076 1.5335 -2.5192 0.9784
-4.7461 1.0325 -2.5198 0.9784
-4.8081 0.6913 -2.5200 0.9783
-4.8455 0.3466 -2.5202 0.9783
4.5369 0.1620 -2.4864 0.9795
4.5282 0.3239 -2.4865 0.9795
4.4938 0.6461 -2.4866 0.9795
4.4366 0.9651 -2.4868 0.9795
4.3995 1.1229 -2.4869 0.9795
4.3569 1.2793 -2.4870 0.9795
4.0621 2.0334 -2.4880 0.9795
3.9874 2.1773 -2.4883 0.9795
3.6387 2.7239 -2.4895 0.9795
3.5397 2.8525 -2.4898 0.9795
3.4361 2.9774 -2.4902 0.9795
3.3282 3.0986 -2.4906 0.9795
3.0996 3.3292 -2.4914 0.9795
2.8552 3.5431 -2.4923 0.9795
2.7274 3.6434 -2.4927 0.9795
2.5961 3.7391 -2.4932 0.9795
2.4615 3.8302 -2.4936 0.9794
2.0392 4.0738 -2.4951 0.9794
1.5931 4.2711 -2.4967 0.9794
1.1281 4.4199 -2.4984 0.9794
0.9699 4.4584 -2.4990 0.9794
0.8103 4.4912 -2.4995 0.9794
0.6496 4.5183 -2.5001 0.9794
0.3258 4.5552 -2.5013 0.9794
0.1630 4.5650 -2.5019 0.9794
0.0000 4.5690 -2.5024 0.9794
-1.2896 4.3920 -2.5071 0.9793
-1.4459 4.3442 -2.5077 0.9793
-1.6004 4.2908 -2.5082 0.9793
-1.7529 4.2319 -2.5088 0.9793
-1.9032 4.1675 -2.5093 0.9793
-2.1966 4.0228 -2.5104 0.9793
-2.3393 3.9427 -2.5109 0.9793
-2.6156 3.7672 -2.5119 0.9793
-2.8788 3.5724 -2.5129 0.9793
-3.1275 3.3592 -2.5138 0.9793
-3.4704 3.0071 -2.5150 0.9793
-3.5760 2.8818 -2.5154 0.9793
-3.6772 2.7527 -2.5158 0.9793
-3.8652 2.4840 -2.5165 0.9793
-4.0336 2.2025 -2.5171 0.9793
-4.1814 1.9096 -2.5177 0.9793
-4.2473 1.7593 -2.5179 0.9793
-4.4121 1.2955 -2.5185 0.9792
-4.4558 1.1373 -2.5187 0.9792
-4.4938 0.9776 -2.5189 0.9792
-4.5261 0.8166 -2.5190 0.9792
-4.5526 0.6546 -2.5191 0.9792
-4.5732 0.4917 -2.5192 0.9792
-4.5879 0.3281 -2.5192 0.9792
4.3054 0.1538 -2.4873 0.9803
4.2972 0.3073 -2.4873 0.9803
4.2644 0.6131 -2.4874 0.9803
4.2400 0.7650 -2.4875 0.9803
4.2101 0.9159 -2.4876 0.9803
4.1750 1.0656 -2.4877 0.9803
4.1345 1.2140 -2.4878 0.9803
4.0888 1.3609 -2.4880 0.9803
4.0379 1.5060 -2.4881 0.9803
3.9208 1.7906 -2.4885 0.9803
3.8547 1.9295 -2.4888 0.9803
3.3588 2.7067 -2.4905 0.9803
3.2605 2.8252 -2.4908 0.9803
2.9411 3.1590 -2.4920 0.9803
2.4633 3.5478 -2.4937 0.9802
2.0711 3.7929 -2.4951 0.9802
1.9348 3.8652 -2.4955 0.9802
1.7959 3.9326 -2.4960 0.9802
1.3661 4.1045 -2.4976 0.9802
1.2190 4.1516 -2.4981 0.9802
1.0703 4.1933 -2.4986 0.9802
0.7687 4.2608 -2.4997 0.9802
0.4630 4.3067 -2.5008 0.9802
0.3091 4.3214 -2.5014 0.9802
0.1547 4.3307 -2.5019 0.9802
-0.3093 4.3253 -2.5036 0.9802
-0.4636 4.3124 -2.5041 0.9802
-0.6174 4.2941 -2.5047 0.9802
-0.7704 4.2703 -2.5052 0.9802
-1.0736 4.2062 -2.5063 0.9801
-1.2233 4.1661 -2.5069 0.9801
-2.4809 3.5731 -2.5114 0.9801
-3.2913 2.8520 -2.5144 0.9801
-3.3915 2.7331 -2.5148 0.9801
-3.4874 2.6107 -2.5151 0.9801
-3.5789 2.4848 -2.5155 0.9801
-3.9654 1.8110 -2.5169 0.9801
-4.0279 1.6684 -2.5171 0.9801
-4.1374 1.3771 -2.5175 0.9801
-4.2923 0.7744 -2.5181 0.9801
-4.3173 0.6207 -2.5182 0.9801
-4.3369 0.4663 -2.5183 0.9801
-4.3509 0.3112 -2.5184 0.9801
-4.3593 0.1557 -2.5184 0.9801
