ply
format ascii 1.0
element vertex 1395
property float32 x
property float32 y
property float32 z
property float32 I
end_header
31.8669 0.0000 5.6190 0.8786
27.8216 1.9899 4.9182 0.8929
26.9212 2.8943 4.7743 0.8959
23.8384 4.3009 4.2712 0.9063
17.9239 8.1856 3.4744 0.9231
17.4381 8.7289 3.4385 0.9238
23.1976 12.6669 4.6604 0.8982
21.8176 12.9450 4.4732 0.9021
15.5764 10.0104 3.2648 0.9276
13.4723 9.3540 2.8920 0.9356
13.6842 10.2439 3.0141 0.9329
15.1777 17.5160 4.0867 0.9102
7.8247 14.3299 2.8789 0.9358
10.2382 20.4533 4.0331 0.9113
8.7629 21.1555 4.0376 0.9112
8.0344 21.5410 4.0539 0.9108
5.2527 15.7819 2.9329 0.9347
4.6554 15.8549 2.9137 0.9351
4.0533 15.8806 2.8899 0.9356
3.5222 16.1914 2.9217 0.9349
-3.8143 21.1414 3.7880 0.9164
-4.6519 21.3846 3.8589 0.9149
-5.4768 21.4580 3.9049 0.9140
-6.4716 22.0402 4.0503 0.9109
-8.8978 23.8560 4.4895 0.9018
-10.0849 24.3471 4.6468 0.8985
-11.2427 24.6181 4.7721 0.8959
-13.2040 26.3783 5.2014 0.8871
-14.9556 27.3891 5.5025 0.8810
-20.6944 29.8055 6.3981 0.8630
31.8671 0.0000 4.8819 0.8790
30.0326 1.0726 4.6038 0.8855
25.8591 3.7180 4.0022 0.8997
23.8385 4.3010 3.7109 0.9066
29.8601 8.7677 4.7675 0.8817
28.5847 9.5139 4.6152 0.8852
19.0482 7.1046 3.1144 0.9210
18.2624 7.5645 3.0282 0.9231
17.9558 8.2001 3.0240 0.9232
23.1962 12.6661 4.0488 0.8986
21.3715 13.7347 3.8918 0.9023
12.9442 11.2162 2.6239 0.9330
17.0458 15.8702 3.5679 0.9101
16.5543 16.5543 3.5865 0.9096
10.4559 12.9750 2.5528 0.9348
8.5242 13.2640 2.4154 0.9382
8.2280 13.8675 2.4702 0.9368
7.8640 14.4019 2.5138 0.9358
9.6875 21.2127 3.5725 0.9099
8.8166 21.2852 3.5294 0.9110
8.0341 21.5403 3.5219 0.9112
5.2617 15.8090 2.5525 0.9348
4.6554 15.8550 2.5314 0.9353
1.9373 18.0197 2.7764 0.9293
0.6690 18.7317 2.8714 0.9270
-0.3002 8.4052 1.2885 0.9665
-2.9654 27.5819 4.2497 0.8938
-3.8906 21.5642 3.3569 0.9151
-6.4716 22.0403 3.5190 0.9112
-7.8918 23.7110 3.8283 0.9038
-8.9648 24.0355 3.9299 0.9014
-10.1736 24.5613 4.0727 0.8980
-11.3763 24.9107 4.1953 0.8951
-16.5023 27.8132 4.9544 0.8773
27.2763 2.9325 3.5724 0.8952
23.1972 3.3353 3.0518 0.9098
23.0855 5.0220 3.0765 0.9091
22.5811 5.7635 3.0348 0.9103
18.2624 7.5646 2.5741 0.9234
17.9766 8.2096 2.5735 0.9234
17.6812 8.8506 2.5748 0.9233
23.2857 12.7150 3.4549 0.8985
13.6843 10.2440 2.2260 0.9334
16.5538 16.5538 3.0485 0.9099
16.0252 17.2123 3.0625 0.9095
10.1155 12.5526 2.0993 0.9370
8.1415 13.7218 2.0777 0.9377
8.8927 21.4690 3.0261 0.9105
4.0533 15.8807 2.1343 0.9360
3.5222 16.1915 2.1578 0.9353
2.4414 16.9805 2.2340 0.9331
1.7743 24.8081 3.2388 0.9045
0.6693 18.7414 2.4421 0.9271
-0.0000 8.4263 1.0973 0.9666
-2.9654 27.5820 3.6125 0.8941
-5.3419 29.6083 3.9179 0.8857
-4.6898 21.5588 2.8731 0.9148
-7.9690 23.9429 3.2860 0.9032
-9.0803 24.3453 3.3836 0.9005
-11.3764 24.9109 3.5662 0.8954
-19.2074 29.8873 4.6264 0.8665
-22.3863 19.3979 3.8573 0.8874
-43.9546 6.3198 5.7827 0.8360
41.4600 1.4808 4.4549 0.8463
27.5047 2.9571 2.9705 0.8947
23.1969 3.3352 2.5165 0.9100
23.8387 4.3010 2.6012 0.9071
23.0858 5.0220 2.5370 0.9093
22.6395 5.7784 2.5090 0.9103
20.0494 6.6731 2.2691 0.9185
17.7355 8.0996 2.0937 0.9246
17.3755 8.6975 2.0865 0.9248
23.4311 12.7944 2.8667 0.8982
15.1236 9.7194 1.9305 0.9302
13.6844 10.2440 1.8356 0.9335
13.1211 10.5737 1.8095 0.9345
12.7200 11.8427 1.8662 0.9325
16.0802 17.2714 2.5340 0.9094
15.5450 17.9399 2.5490 0.9089
10.1691 12.6192 1.7403 0.9369
9.0114 12.9789 1.6967 0.9384
10.4676 20.9116 2.5111 0.9102
9.7435 21.3354 2.5186 0.9100
4.0533 15.8807 1.7600 0.9362
2.6143 24.3166 2.6262 0.9063
1.7743 24.8082 2.6708 0.9048
-0.0000 8.4149 0.9036 0.9667
-0.3000 8.4003 0.9026 0.9667
-1.3625 19.0503 2.0509 0.9260
-2.1197 19.7160 2.1293 0.9233
-5.4227 30.0562 3.2796 0.8844
-5.4769 21.4583 2.3781 0.9148
-6.2116 21.1547 2.3675 0.9151
-7.9158 23.7830 2.6916 0.9041
-9.1392 24.5030 2.8082 0.9001
-10.1734 24.5607 2.8547 0.8986
-11.3765 24.9110 2.9407 0.8957
-14.9101 27.3058 3.3408 0.8824
-19.3072 30.0425 3.8348 0.8662
-17.0385 18.3007 2.6850 0.9043
-22.3849 19.3966 3.1806 0.8877
-43.8930 6.3109 4.7618 0.8366
41.6223 1.4866 3.5257 0.8460
27.1820 2.9224 2.3143 0.8961
23.1866 3.3337 1.9830 0.9103
23.8388 4.3010 2.0506 0.9073
22.7991 6.6944 2.0115 0.9090
20.2219 6.7305 1.8042 0.9180
19.0484 7.1047 1.7210 0.9216
17.8306 8.1430 1.6594 0.9243
17.5258 8.7728 1.6591 0.9243
21.9302 13.0118 2.1586 0.9027
15.1225 9.7187 1.5217 0.9304
13.5013 9.3741 1.3914 0.9361
13.6844 10.2440 1.4470 0.9337
12.7947 11.0867 1.4332 0.9343
15.7062 16.8696 1.9512 0.9116
10.1685 12.6183 1.3718 0.9370
9.6730 12.9216 1.3664 0.9373
8.5243 13.2641 1.3347 0.9387
7.6842 14.0726 1.3573 0.9377
10.3255 20.6277 1.9527 0.9116
9.6112 21.0457 1.9586 0.9113
8.7217 21.0561 1.9293 0.9126
5.1734 15.5436 1.3868 0.9364
3.5222 16.1916 1.4027 0.9356
3.4573 24.0464 2.0565 0.9071
-1.3625 19.0504 1.6168 0.9262
-4.2446 29.5221 2.5248 0.8872
-3.9559 21.9259 1.8861 0.9144
-5.4769 21.4583 1.8747 0.9149
-10.9681 32.9539 2.9401 0.8699
-9.0657 24.3060 2.1960 0.9011
-11.3765 24.9111 2.3183 0.8959
-14.9793 27.4325 2.6459 0.8821
-22.3834 19.3953 2.5072 0.8879
32.1262 0.0000 1.9922 0.8792
29.9051 1.0681 1.8556 0.8870
27.3367 2.9390 1.7049 0.8957
23.0863 5.0221 1.4651 0.9097
22.3293 5.6992 1.4290 0.9118
19.0484 7.1047 1.2607 0.9218
17.5274 8.7736 1.2154 0.9245
23.1323 12.6312 1.6344 0.8998
21.9303 13.0118 1.5812 0.9029
13.6844 10.2441 1.0600 0.9338
15.4226 17.7987 1.4604 0.9099
10.1678 12.6175 1.0048 0.9371
9.6724 12.9208 1.0009 0.9374
7.6837 14.0716 0.9942 0.9378
8.7211 21.0547 1.4132 0.9127
8.0144 21.4875 1.4221 0.9122
4.0533 15.8808 1.0163 0.9364
3.0314 16.8019 1.0587 0.9339
3.4704 24.1369 1.5121 0.9069
1.7743 24.8083 1.5423 0.9051
-4.2112 29.2895 1.8349 0.8882
-3.9560 21.9268 1.3816 0.9146
-4.6290 21.2791 1.3504 0.9164
-5.4769 21.4584 1.3733 0.9151
-6.2082 21.1432 1.3664 0.9155
-10.8403 32.5698 2.1286 0.8715
-10.1628 24.5352 1.6468 0.8990
-11.3766 24.9112 1.6982 0.8961
-14.8816 27.2536 1.9255 0.8830
-16.0129 26.9882 1.9460 0.8818
-19.2864 30.0102 2.2121 0.8668
-17.0291 18.2905 1.5497 0.9047
-43.7710 6.2933 2.7422 0.8376
32.2288 0.0000 1.2708 0.8790
27.9314 1.9977 1.1042 0.8940
35.8977 5.1613 1.4300 0.8649
23.8390 4.3010 0.9552 0.9076
30.5533 8.9713 1.2556 0.8803
19.0485 7.1047 0.8016 0.9218
18.2627 7.5647 0.7794 0.9239
17.8277 8.1416 0.7728 0.9245
17.5290 8.7744 0.7729 0.9245
23.1306 12.6302 1.0392 0.8999
21.9303 13.0119 1.0055 0.9030
15.1203 9.7173 0.7087 0.9306
14.2650 9.9044 0.6848 0.9328
13.1212 10.5738 0.6645 0.9348
12.7256 11.8480 0.6856 0.9328
10.1671 12.6167 0.6389 0.9372
7.6832 14.0707 0.6321 0.9378
10.5005 20.9773 0.9250 0.9104
4.6562 15.8578 0.6517 0.9360
4.0533 15.8808 0.6463 0.9365
3.0312 16.8007 0.6732 0.9339
3.4701 24.1352 0.9615 0.9070
0.6610 18.5087 0.7303 0.9285
-0.0000 8.3814 0.3305 0.9670
-1.3625 19.0505 0.7531 0.9264
-4.2579 29.6147 1.1798 0.8871
-3.9562 21.9277 0.8786 0.9147
-4.6286 21.2772 0.8586 0.9165
-5.4769 21.4585 0.8733 0.9152
-9.1124 24.4311 1.0282 0.9009
-10.1617 24.5324 1.0470 0.8992
-13.8402 27.6492 1.2192 0.8836
-16.5879 27.9575 1.2818 0.8780
-19.3550 30.1170 1.4116 0.8665
29.8981 1.0678 0.5054 0.8872
27.9317 1.9977 0.4730 0.8940
35.8939 5.1608 0.6125 0.8650
23.8391 4.3011 0.4092 0.9076
22.3325 5.7000 0.3893 0.9119
20.2167 6.7288 0.3599 0.9183
19.0486 7.1048 0.3434 0.9219
18.2627 7.5647 0.3339 0.9240
17.8262 8.1410 0.3310 0.9246
13.6845 10.2441 0.2887 0.9339
12.7920 11.0844 0.2859 0.9345
12.7274 11.8496 0.2937 0.9328
9.0115 12.9791 0.2669 0.9387
8.5244 13.2642 0.2663 0.9389
8.1823 13.7906 0.2709 0.9379
7.6827 14.0698 0.2708 0.9379
9.7741 21.4024 0.3974 0.9102
8.7200 21.0519 0.3849 0.9129
8.0133 21.4846 0.3873 0.9123
5.1724 15.5405 0.2767 0.9366
4.6559 15.8567 0.2792 0.9360
4.0533 15.8809 0.2769 0.9365
3.5223 16.1917 0.2799 0.9359
3.0310 16.7996 0.2884 0.9340
2.6143 24.3168 0.4131 0.9068
1.7743 24.8085 0.4201 0.9053
-0.2997 8.3906 0.1418 0.9670
-1.3625 19.0506 0.3226 0.9264
-2.1303 19.8142 0.3366 0.9234
-4.2580 29.6148 0.5054 0.8872
-4.6281 21.2752 0.3678 0.9166
-6.4718 22.0408 0.3880 0.9122
-9.1127 24.4321 0.4405 0.9009
-10.1606 24.5298 0.4485 0.8992
-11.3767 24.9114 0.4626 0.8962
-14.9094 27.3045 0.5255 0.8830
-16.5880 27.9576 0.5491 0.8780
-21.3439 30.7410 0.6322 0.8610
-22.3778 19.3905 0.5002 0.8883
-43.6570 6.2769 0.7450 0.8382
32.2324 0.0000 -0.1815 0.8790
27.9320 1.9978 -0.1577 0.8940
23.8392 4.3011 -0.1364 0.9076
23.0872 5.0223 -0.1330 0.9098
17.8248 8.1403 -0.1103 0.9246
17.5322 8.7760 -0.1104 0.9246
15.1181 9.7159 -0.1012 0.9306
14.2651 9.9044 -0.0978 0.9329
13.6846 10.2442 -0.0963 0.9339
13.1213 10.5738 -0.0949 0.9348
12.7911 11.0836 -0.0953 0.9345
12.7291 11.8513 -0.0979 0.9328
15.5940 17.9964 -0.1341 0.9091
9.6705 12.9183 -0.0909 0.9375
9.0115 12.9791 -0.0890 0.9388
8.5244 13.2642 -0.0888 0.9389
8.1818 13.7897 -0.0903 0.9379
7.6822 14.0689 -0.0902 0.9379
9.7742 21.4025 -0.1325 0.9102
8.0128 21.4832 -0.1291 0.9124
5.1720 15.5394 -0.0922 0.9366
4.6556 15.8556 -0.0930 0.9360
4.0534 15.8809 -0.0923 0.9365
3.5223 16.1917 -0.0933 0.9359
3.0308 16.7984 -0.0961 0.9340
0.3051 8.5438 -0.0481 0.9664
-0.0000 8.3593 -0.0471 0.9671
-1.3625 19.0506 -0.1075 0.9264
-4.2580 29.6149 -0.1684 0.8872
-3.9565 21.9295 -0.1255 0.9147
-4.6277 21.2733 -0.1226 0.9166
-10.8791 32.6865 -0.1939 0.8713
-9.1131 24.4330 -0.1468 0.9009
-13.8411 27.6510 -0.1741 0.8837
-16.5881 27.9578 -0.1830 0.8781
-19.3564 30.1191 -0.2016 0.8666
-21.3440 30.7412 -0.2107 0.8610
-17.0150 18.2754 -0.1406 0.9049
29.8910 1.0676 -0.8422 0.8872
27.9323 1.9978 -0.7885 0.8940
23.8393 4.3011 -0.6821 0.9076
23.0875 5.0224 -0.6653 0.9098
20.2132 6.7276 -0.5999 0.9183
19.0487 7.1048 -0.5725 0.9219
18.2628 7.5647 -0.5566 0.9239
17.8233 8.1397 -0.5517 0.9246
17.5339 8.7768 -0.5521 0.9245
23.1253 12.6274 -0.7419 0.8999
21.9305 13.0120 -0.7180 0.9030
13.1213 10.5738 -0.4745 0.9348
12.7309 11.8529 -0.4898 0.9328
15.5940 17.9964 -0.6705 0.9091
10.1651 12.6142 -0.4562 0.9372
9.6699 12.9174 -0.4544 0.9375
9.0116 12.9791 -0.4449 0.9387
8.1812 13.7888 -0.4515 0.9379
10.5005 20.9774 -0.6605 0.9104
8.7188 21.0491 -0.6415 0.9129
8.0123 21.4818 -0.6456 0.9123
5.1717 15.5384 -0.4611 0.9366
4.6553 15.8546 -0.4653 0.9360
3.5223 16.1918 -0.4666 0.9358
3.0306 16.7973 -0.4806 0.9340
3.4694 24.1300 -0.6864 0.9071
1.7743 24.8086 -0.7003 0.9053
0.3047 8.5323 -0.2404 0.9664
-0.2995 8.3858 -0.2363 0.9670
-4.2580 29.6150 -0.8425 0.8872
-10.8796 32.6879 -0.9701 0.8712
-10.1583 24.5243 -0.7474 0.8992
-11.3768 24.9117 -0.7711 0.8962
-16.5882 27.9579 -0.9154 0.8780
-19.3571 30.1202 -1.0082 0.8665
-21.3442 30.7414 -1.0538 0.8609
-17.0103 18.2703 -0.7029 0.9049
29.8874 1.0675 -1.5167 0.8871
27.3451 2.9399 -1.3948 0.8957
35.7891 5.1457 -1.8337 0.8652
23.0878 5.0225 -1.1983 0.9097
30.5549 8.9717 -1.6149 0.8803
18.2629 7.5648 -1.0025 0.9239
17.8219 8.1390 -0.9936 0.9245
17.5356 8.7777 -0.9945 0.9245
21.9306 13.0120 -1.2932 0.9029
15.1159 9.7144 -0.9112 0.9306
14.2651 9.9045 -0.8807 0.9328
13.6846 10.2442 -0.8669 0.9338
12.7893 11.0820 -0.8582 0.9345
16.5087 16.5087 -1.1840 0.9107
8.5244 13.2643 -0.7996 0.9388
8.7182 21.0477 -1.1554 0.9128
5.1713 15.5374 -0.8305 0.9365
4.6550 15.8535 -0.8379 0.9360
3.5223 16.1918 -0.8404 0.9358
1.7743 24.8087 -1.2614 0.9052
-0.0000 8.3373 -0.4228 0.9672
-2.1297 19.8094 -1.0104 0.9233
-4.2580 29.6151 -1.5174 0.8871
-5.4770 21.4588 -1.1232 0.9151
-9.1138 24.4350 -1.3226 0.9008
-11.3768 24.9118 -1.3889 0.8961
-16.5883 27.9581 -1.6487 0.8779
-21.3443 30.7416 -1.8980 0.8608
-31.1567 38.6631 -2.5182 0.8197
-32.5225 37.5330 -2.5186 0.8196
-17.0056 18.2653 -1.2656 0.9049
-35.1285 35.1285 -2.5194 0.8196
-22.3694 19.3832 -1.5011 0.8882
-38.6984 31.1852 -2.5205 0.8195
-40.8340 28.3516 -2.5211 0.8195
-42.7608 25.3712 -2.5216 0.8194
-43.6426 23.8306 -2.5218 0.8194
-45.9483 19.0324 -2.5222 0.8194
-46.6002 17.3810 -2.5223 0.8194
-47.7237 14.0129 -2.5224 0.8194
-48.1939 12.3007 -2.5225 0.8194
-45.6454 9.9295 -2.3690 0.8294
-44.1339 7.9626 -2.2743 0.8356
-46.5998 3.3328 -2.3693 0.8293
-31.7744 1.1348 -1.6124 0.8804
29.7817 1.0637 -2.1851 0.8873
27.9329 1.9978 -2.0533 0.8938
27.2733 2.9322 -2.0113 0.8958
23.8395 4.3011 -1.7762 0.9074
20.2098 6.7265 -1.5617 0.9181
18.2630 7.5648 -1.4494 0.9238
17.8204 8.1383 -1.4364 0.9244
17.5373 8.7786 -1.4380 0.9244
23.0639 12.5938 -1.9268 0.9000
14.2652 9.9045 -1.2733 0.9327
13.6847 10.2442 -1.2534 0.9337
13.1214 10.5739 -1.2356 0.9346
16.4644 16.4644 -1.7072 0.9108
15.5941 17.9965 -1.7460 0.9089
9.6686 12.9157 -1.1830 0.9373
8.8382 12.7294 -1.1363 0.9397
8.5245 13.2643 -1.1561 0.9387
8.1802 13.7870 -1.1754 0.9377
10.5006 20.9775 -1.7201 0.9102
8.6962 20.9945 -1.6662 0.9129
7.9904 21.4230 -1.6765 0.9124
5.1710 15.5363 -1.2006 0.9364
4.0534 15.8811 -1.2018 0.9364
3.5223 16.1919 -1.2150 0.9357
3.0301 16.7949 -1.2513 0.9338
3.4601 24.0654 -1.7827 0.9071
2.6144 24.3171 -1.7933 0.9066
1.7744 24.8088 -1.8237 0.9051
0.3039 8.5093 -0.6243 0.9664
0.0000 8.3264 -0.6105 0.9672
-1.3625 19.0508 -1.4004 0.9263
-2.1296 19.8078 -1.4607 0.9232
-4.0944 28.4771 -2.1095 0.8910
-4.6265 21.2675 -1.5958 0.9164
-5.4770 21.4589 -1.6239 0.9150
-6.4719 22.0411 -1.6843 0.9120
-10.1504 30.4969 -2.3567 0.8791
-9.0869 24.3629 -1.9066 0.9010
-10.1179 24.4268 -1.9386 0.8994
-11.3769 24.9119 -2.0081 0.8960
-14.8461 27.1885 -2.2714 0.8832
-17.3962 27.0690 -2.3593 0.8789
-18.3539 26.4345 -2.3596 0.8789
-19.2882 25.7660 -2.3599 0.8789
-20.1981 25.0643 -2.3602 0.8789
-17.1240 17.1240 -1.7756 0.9074
-23.5701 21.9445 -2.3613 0.8788
-27.4581 20.5549 -2.5149 0.8715
-28.1764 19.5632 -2.5151 0.8715
-28.8588 18.5464 -2.5153 0.8715
-30.1119 16.4423 -2.5156 0.8714
-30.6811 15.3578 -2.5157 0.8714
-31.2110 14.2536 -2.5158 0.8714
-32.1504 11.9914 -2.5160 0.8714
-32.5585 10.8365 -2.5160 0.8714
-32.9250 9.6676 -2.5160 0.8714
-33.5309 7.2942 -2.5161 0.8714
-32.1429 2.2989 -2.3628 0.8788
24.3111 1.7388 -2.3400 0.9067
24.2348 2.6055 -2.3401 0.9067
23.8396 4.3011 -2.3257 0.9072
23.0515 5.0146 -2.2648 0.9096
22.2598 5.6815 -2.2056 0.9118
17.7543 8.1081 -1.8738 0.9246
20.9829 12.4497 -2.3424 0.9066
15.0612 9.6793 -1.7188 0.9306
13.6847 10.2443 -1.6411 0.9336
13.1214 10.5739 -1.6178 0.9345
16.4633 16.4633 -2.2352 0.9107
10.1631 12.6116 -1.5550 0.9370
9.6680 12.9149 -1.5488 0.9372
8.1796 13.7860 -1.5390 0.9376
7.6801 14.0651 -1.5385 0.9376
10.5006 20.9776 -2.2522 0.9100
8.6956 20.9931 -2.1815 0.9127
6.1162 16.3981 -1.6802 0.9321
4.6544 15.8514 -1.5861 0.9358
2.4519 17.0536 -1.6541 0.9331
2.6144 24.3172 -2.3480 0.9064
1.7472 24.4291 -2.3513 0.9063
0.3035 8.4979 -0.8164 0.9664
-0.0000 8.3154 -0.7983 0.9671
-0.2993 8.3785 -0.8049 0.9669
-1.3626 19.0509 -1.8336 0.9261
-3.4886 24.2638 -2.3534 0.9062
-3.9423 21.8506 -2.1316 0.9146
-5.4771 21.4590 -2.1262 0.9149
-6.4719 22.0412 -2.2054 0.9118
-7.7466 23.2749 -2.3550 0.9061
-8.5735 22.9865 -2.3553 0.9061
-10.1941 22.3219 -2.3559 0.9061
-11.7633 21.5429 -2.3565 0.9061
-7.3338 10.5627 -1.2345 0.9496
-15.4095 19.1220 -2.3577 0.9060
-17.9801 16.7401 -2.3585 0.9060
-19.5730 16.9601 -2.4864 0.9012
-22.9675 12.5412 -2.5123 0.9002
-23.4014 11.7139 -2.5124 0.9002
-23.8054 10.8715 -2.5125 0.9002
-25.5742 5.5633 -2.5127 0.9002
-25.7563 4.6469 -2.5127 0.9002
-25.9054 3.7246 -2.5126 0.9002
-26.0215 2.7976 -2.5126 0.9002
-26.1041 1.8670 -2.5125 0.9002
16.7009 0.0000 -1.9838 0.9349
19.7012 0.7036 -2.3417 0.9237
19.6642 1.4064 -2.3418 0.9237
19.5154 2.8059 -2.3420 0.9237
19.2675 4.1914 -2.3422 0.9236
18.9216 5.5559 -2.3425 0.9236
17.4388 8.7292 -2.3165 0.9245
17.3158 9.4552 -2.3435 0.9236
16.9687 10.0680 -2.3437 0.9236
13.1215 10.5740 -2.0018 0.9344
12.7409 11.0400 -2.0026 0.9343
13.9613 13.9613 -2.3453 0.9235
10.1268 12.5667 -1.9171 0.9371
9.6322 12.8671 -1.9092 0.9373
8.7185 12.5570 -1.8159 0.9403
8.5245 13.2644 -1.8729 0.9385
7.6527 14.0148 -1.8968 0.9377
8.8470 17.6741 -2.3478 0.9235
6.1170 16.4005 -2.0792 0.9319
4.0534 15.8811 -1.9469 0.9361
3.0189 16.7327 -2.0197 0.9338
0.3031 8.4864 -1.0087 0.9664
-0.0000 8.3044 -0.9864 0.9671
-0.2992 8.3761 -0.9956 0.9668
-1.3626 19.0509 -2.2688 0.9259
-2.1169 19.6902 -2.3524 0.9233
-2.8187 19.6043 -2.3527 0.9233
-3.5170 19.4935 -2.3529 0.9233
-4.8998 19.1973 -2.3535 0.9233
-5.5825 19.0122 -2.3537 0.9233
-7.5852 18.3123 -2.3545 0.9233
-8.2348 18.0317 -2.3547 0.9233
-9.5020 17.4016 -2.3551 0.9232
-11.8859 15.8777 -2.3560 0.9232
-12.9903 14.9916 -2.3563 0.9232
-14.0286 14.0286 -2.3566 0.9232
-15.4350 14.3705 -2.5051 0.9186
-16.9149 12.6624 -2.5099 0.9184
-18.8981 9.4597 -2.5104 0.9184
-19.2242 8.7794 -2.5104 0.9184
-19.5257 8.0878 -2.5105 0.9184
-19.8023 7.3858 -2.5105 0.9184
-20.0535 6.6744 -2.5106 0.9184
-20.6523 4.4926 -2.5106 0.9184
-20.9199 3.0078 -2.5105 0.9184
-21.0136 2.2592 -2.5105 0.9184
-21.1203 0.7543 -2.5104 0.9184
16.5356 0.0000 -2.3429 0.9354
16.4944 1.1797 -2.3431 0.9354
16.3694 2.3536 -2.3432 0.9354
16.2756 2.9365 -2.3433 0.9354
15.4996 5.7811 -2.3439 0.9354
15.2843 6.3310 -2.3441 0.9353
15.0495 6.8729 -2.3442 0.9353
14.7956 7.4062 -2.3444 0.9353
14.5229 7.9301 -2.3445 0.9353
13.5950 9.4392 -2.3450 0.9353
12.1173 11.2816 -2.3458 0.9353
11.7079 11.7079 -2.3460 0.9353
11.2836 12.1195 -2.3462 0.9353
10.8449 12.5156 -2.3465 0.9353
10.1262 12.5658 -2.2866 0.9369
8.7188 12.5575 -2.1661 0.9401
8.1487 13.7340 -2.2627 0.9375
7.6522 14.0139 -2.2624 0.9375
7.4179 14.8190 -2.3481 0.9352
6.8849 15.0759 -2.3483 0.9352
6.3431 15.3136 -2.3485 0.9352
5.7931 15.5319 -2.3488 0.9352
4.6366 15.7908 -2.3318 0.9357
4.0534 15.8812 -2.3223 0.9359
2.3606 16.4186 -2.3503 0.9352
1.1836 16.5486 -2.3508 0.9352
-0.0000 8.2933 -1.1751 0.9671
-1.1841 16.5554 -2.3517 0.9351
-2.9478 16.3388 -2.3524 0.9351
-5.2450 15.7587 -2.3533 0.9351
-5.8046 15.5629 -2.3535 0.9351
-6.3570 15.3471 -2.3537 0.9351
-6.9013 15.1117 -2.3539 0.9351
-7.4368 14.8569 -2.3541 0.9351
-8.9844 13.9800 -2.3546 0.9351
-7.3347 10.5640 -1.8222 0.9494
-10.4295 12.9422 -2.3551 0.9351
-10.8854 12.5625 -2.3552 0.9351
-12.5089 12.5089 -2.5065 0.9310
-12.9562 12.0626 -2.5082 0.9310
-13.3791 11.5931 -2.5083 0.9310
-14.8953 9.5726 -2.5088 0.9310
-15.2279 9.0352 -2.5088 0.9310
-16.1077 7.3561 -2.5090 0.9310
-16.8025 5.5924 -2.5091 0.9310
-16.9915 4.9891 -2.5092 0.9310
-17.5284 2.5202 -2.5091 0.9310
-17.6630 1.2633 -2.5091 0.9310
14.2277 0.0000 -2.3439 0.9440
14.1921 1.0150 -2.3440 0.9440
14.0844 2.0250 -2.3441 0.9439
14.0036 2.5265 -2.3442 0.9439
13.9051 3.0249 -2.3443 0.9439
13.7888 3.5194 -2.3444 0.9439
13.6550 4.0095 -2.3445 0.9439
13.5038 4.4945 -2.3446 0.9439
13.3354 4.9739 -2.3447 0.9439
11.6960 8.1207 -2.3457 0.9439
11.3995 8.5335 -2.3458 0.9439
10.4242 9.7053 -2.3463 0.9439
10.0719 10.0719 -2.3465 0.9439
9.3292 10.7664 -2.3469 0.9439
7.7046 11.9886 -2.3477 0.9439
6.8309 12.5098 -2.3481 0.9439
5.9221 12.9675 -2.3485 0.9438
5.4559 13.1718 -2.3487 0.9438
4.0177 13.6832 -2.3493 0.9438
2.5327 14.0381 -2.3500 0.9438
2.0303 14.1208 -2.3502 0.9438
1.0179 14.2322 -2.3506 0.9438
0.3023 8.4633 -1.3951 0.9663
0.0000 8.2823 -1.3644 0.9670
-0.2990 8.3712 -1.3799 0.9666
-1.0183 14.2372 -2.3514 0.9438
-1.5259 14.1930 -2.3516 0.9438
-3.0351 13.9520 -2.3522 0.9438
-3.5314 13.8359 -2.3524 0.9438
-4.9913 13.3822 -2.3529 0.9437
-5.4662 13.1965 -2.3531 0.9437
-5.9341 12.9940 -2.3533 0.9437
-7.7250 12.0204 -2.3539 0.9437
-8.5639 11.4400 -2.3542 0.9437
-8.9673 11.1277 -2.3543 0.9437
-9.9099 11.4367 -2.4930 0.9405
-10.3702 11.1383 -2.5071 0.9402
-10.7616 10.7616 -2.5072 0.9402
-11.8519 9.5508 -2.5075 0.9402
-12.1856 9.1220 -2.5076 0.9402
-13.0921 7.7679 -2.5078 0.9402
-13.3614 7.2959 -2.5079 0.9402
-13.6136 6.8145 -2.5080 0.9401
-13.8484 6.3243 -2.5080 0.9401
-14.0655 5.8261 -2.5081 0.9401
-14.2647 5.3204 -2.5081 0.9401
-14.4456 4.8079 -2.5081 0.9401
-14.8769 3.2363 -2.5081 0.9401
-15.0697 2.1667 -2.5081 0.9401
-15.1373 1.6274 -2.5081 0.9401
-15.1855 1.0861 -2.5080 0.9401
-15.2143 0.5434 -2.5080 0.9401
12.4737 0.0000 -2.3446 0.9505
12.4424 0.8899 -2.3447 0.9505
12.2770 2.2150 -2.3449 0.9505
11.9712 3.5151 -2.3451 0.9505
11.8386 3.9403 -2.3452 0.9505
11.3511 5.1839 -2.3455 0.9505
11.1594 5.5860 -2.3456 0.9505
10.9535 5.9811 -2.3458 0.9505
9.9931 7.4807 -2.3463 0.9505
9.1379 8.5077 -2.3467 0.9505
8.8290 8.8290 -2.3469 0.9505
8.5089 9.1392 -2.3471 0.9504
8.1778 9.4377 -2.3472 0.9504
7.8363 9.7242 -2.3474 0.9504
7.4848 9.9985 -2.3476 0.9504
6.3745 10.7437 -2.3481 0.9504
5.5927 11.1727 -2.3484 0.9504
4.7821 11.5450 -2.3488 0.9504
4.3673 11.7093 -2.3490 0.9504
0.8921 12.4732 -2.3505 0.9504
-3.0947 12.1248 -2.3520 0.9503
-3.5257 12.0074 -2.3522 0.9503
-4.3739 11.7269 -2.3525 0.9503
-4.7900 11.5640 -2.3527 0.9503
-7.5850 10.1324 -2.3790 0.9498
-8.3499 10.3616 -2.5013 0.9473
-8.7321 10.0774 -2.5063 0.9472
-9.0866 9.7597 -2.5064 0.9472
-9.4296 9.4296 -2.5065 0.9472
-10.0790 8.7335 -2.5067 0.9472
-10.6771 7.9928 -2.5069 0.9472
-12.1338 5.5413 -2.5072 0.9472
-12.4985 4.6617 -2.5073 0.9472
-13.0348 2.8355 -2.5073 0.9472
-13.1277 2.3685 -2.5073 0.9472
-13.2630 1.4259 -2.5073 0.9472
-13.3053 0.9516 -2.5073 0.9472
10.9823 1.5790 -2.3453 0.9557
10.7516 2.7442 -2.3455 0.9556
10.5292 3.5044 -2.3457 0.9556
10.3978 3.8782 -2.3458 0.9556
10.2531 4.2470 -2.3459 0.9556
10.0955 4.6104 -2.3460 0.9556
9.7417 5.3194 -2.3462 0.9556
9.3383 6.0014 -2.3464 0.9556
8.8873 6.6530 -2.3467 0.9556
8.6447 6.9663 -2.3468 0.9556
8.1266 7.5661 -2.3471 0.9556
7.5670 8.1276 -2.3473 0.9556
7.2726 8.3930 -2.3475 0.9556
6.9688 8.6478 -2.3476 0.9556
6.3350 9.1241 -2.3479 0.9556
5.3244 9.7509 -2.3484 0.9556
4.6159 10.1073 -2.3487 0.9556
3.8836 10.4123 -2.3491 0.9556
3.5097 10.5450 -2.3492 0.9556
1.6640 9.2232 -1.9811 0.9624
1.1885 11.0547 -2.3502 0.9556
-1.1890 11.0592 -2.3512 0.9555
-1.5831 11.0105 -2.3513 0.9555
-2.7515 10.7802 -2.3518 0.9555
-3.8888 10.4262 -2.3522 0.9555
-4.2587 10.2814 -2.3523 0.9555
-4.6232 10.1234 -2.3525 0.9555
-5.0635 9.2730 -2.2333 0.9577
-6.0181 9.3643 -2.3530 0.9555
-6.6521 9.5808 -2.4655 0.9534
-7.7631 8.9591 -2.5058 0.9527
-9.2321 7.4397 -2.5063 0.9527
-9.4920 7.1056 -2.5063 0.9527
-10.4076 5.6830 -2.5066 0.9527
-11.2519 3.7450 -2.5067 0.9527
-11.3785 3.3410 -2.5067 0.9527
-11.4905 2.9328 -2.5067 0.9527
-11.5879 2.5208 -2.5067 0.9527
-11.8508 0.4233 -2.5066 0.9527
10.1048 0.0000 -2.3749 0.9593
9.9740 0.3562 -2.3456 0.9598
9.9235 1.0669 -2.3457 0.9598
9.8793 1.4204 -2.3457 0.9598
9.4715 3.1524 -2.3461 0.9598
9.0813 4.1473 -2.3463 0.9598
8.7630 4.7849 -2.3465 0.9598
8.5870 5.0949 -2.3466 0.9598
8.4000 5.3984 -2.3467 0.9598
8.2024 5.6950 -2.3468 0.9598
7.9943 5.9844 -2.3470 0.9598
6.8065 7.3107 -2.3476 0.9598
6.2683 7.7785 -2.3478 0.9598
4.7890 8.7704 -2.3485 0.9598
4.4732 8.9363 -2.3487 0.9598
3.8248 9.2338 -2.3490 0.9598
1.6491 9.1403 -2.1829 0.9626
0.6494 9.0799 -2.1394 0.9633
0.3010 8.4282 -1.9821 0.9659
-0.0000 7.3381 -1.7246 0.9703
-0.8399 7.8118 -1.8465 0.9682
-1.1440 7.9568 -1.8893 0.9675
-2.1267 9.7764 -2.3514 0.9597
-2.8191 9.6009 -2.3517 0.9597
-3.4972 9.3763 -2.3519 0.9597
-4.4801 8.9501 -2.3523 0.9597
-4.7969 8.7849 -2.3524 0.9597
-5.2016 8.7668 -2.3958 0.9590
-6.9810 8.0565 -2.5054 0.9571
-7.2644 7.8025 -2.5055 0.9571
-8.3019 6.6901 -2.5058 0.9571
-8.7584 6.0811 -2.5059 0.9571
-8.9701 5.7647 -2.5060 0.9571
-9.3588 5.1103 -2.5061 0.9571
-9.5354 4.7731 -2.5061 0.9571
-9.8518 4.0808 -2.5062 0.9571
-10.1180 3.3676 -2.5062 0.9571
-10.2318 3.0043 -2.5062 0.9571
-10.3325 2.6372 -2.5062 0.9571
-10.4201 2.2667 -2.5062 0.9571
-10.6025 1.1399 -2.5062 0.9571
-10.6566 0.3806 -2.5061 0.9571
9.4949 0.3391 -2.4600 0.9615
8.9690 1.2895 -2.3461 0.9633
8.9174 1.6089 -2.3462 0.9633
8.7804 2.2410 -2.3463 0.9632
8.6950 2.5531 -2.3463 0.9632
8.2442 3.7650 -2.3466 0.9632
8.1049 4.0570 -2.3467 0.9632
7.9552 4.3439 -2.3468 0.9632
7.4462 5.1700 -2.3471 0.9632
7.2573 5.4327 -2.3472 0.9632
7.0590 5.6885 -2.3473 0.9632
6.8518 5.9371 -2.3474 0.9632
6.4114 6.4114 -2.3476 0.9632
5.4348 7.2601 -2.3481 0.9632
4.9036 7.6301 -2.3484 0.9632
4.6284 7.8007 -2.3485 0.9632
4.3472 7.9614 -2.3486 0.9632
4.0605 8.1119 -2.3488 0.9632
3.7686 8.2521 -2.3489 0.9632
3.1707 8.5009 -2.3492 0.9632
2.5564 8.7065 -2.3494 0.9632
2.2442 8.7927 -2.3496 0.9632
1.9290 8.8677 -2.3497 0.9632
1.6114 8.9314 -2.3498 0.9632
1.1999 8.3453 -2.1830 0.9658
0.8366 7.7814 -2.0264 0.9682
0.5147 7.1970 -1.8682 0.9706
0.2574 7.2076 -1.8674 0.9706
-0.0000 7.3269 -1.8971 0.9702
-0.2678 7.4968 -1.9423 0.9695
-0.5472 7.6507 -1.9860 0.9688
-0.8399 7.8118 -2.0343 0.9681
-1.7932 8.2430 -2.1842 0.9657
-2.5587 8.7141 -2.3515 0.9632
-2.8682 8.6177 -2.3516 0.9632
-3.4760 8.3919 -2.3518 0.9632
-4.0716 8.1339 -2.3551 0.9631
-5.5174 7.9465 -2.5048 0.9608
-6.0707 7.5332 -2.5050 0.9608
-6.3359 7.3120 -2.5051 0.9608
-6.5931 7.0814 -2.5052 0.9608
-6.8418 6.8418 -2.5052 0.9608
-7.0819 6.5934 -2.5053 0.9608
-7.9489 5.5190 -2.5056 0.9608
-8.3227 4.9381 -2.5056 0.9608
-8.6540 4.3319 -2.5057 0.9608
-8.8032 4.0203 -2.5057 0.9608
-8.9412 3.7036 -2.5058 0.9608
-9.1827 3.0563 -2.5058 0.9608
-9.2860 2.7266 -2.5058 0.9608
-9.6225 1.0345 -2.5058 0.9608
-9.6532 0.6904 -2.5058 0.9608
8.8248 0.0000 -2.4982 0.9640
8.5221 0.9162 -2.4265 0.9650
8.1569 1.4717 -2.3465 0.9661
8.0315 2.0499 -2.3466 0.9661
7.9534 2.3353 -2.3466 0.9661
7.7670 2.8969 -2.3467 0.9661
7.6589 3.1724 -2.3468 0.9661
7.5410 3.4439 -2.3469 0.9661
7.1304 4.2307 -2.3471 0.9661
6.6381 4.9692 -2.3474 0.9661
5.8643 5.8643 -2.3478 0.9661
5.6515 6.0702 -2.3479 0.9661
5.4315 6.2683 -2.3480 0.9661
4.7310 6.8140 -2.3484 0.9661
4.4850 6.9789 -2.3485 0.9661
3.9761 7.2818 -2.3487 0.9661
2.6207 7.8741 -2.3493 0.9661
2.3381 7.9630 -2.3494 0.9661
2.0525 8.0418 -2.3496 0.9661
1.7643 8.1104 -2.3497 0.9661
1.1788 8.1990 -2.3450 0.9662
0.2574 7.2077 -2.0417 0.9705
-0.2678 7.4968 -2.1237 0.9693
-0.8263 7.6859 -2.1884 0.9684
-2.0540 8.0475 -2.3512 0.9661
-2.6231 7.8812 -2.3514 0.9661
-2.9029 7.7829 -2.3515 0.9661
-3.1789 7.6746 -2.3516 0.9661
-3.5753 7.8288 -2.4364 0.9649
-4.2374 7.7602 -2.5030 0.9639
-4.5141 7.6081 -2.5044 0.9639
-4.7829 7.4424 -2.5045 0.9639
-5.0457 7.2672 -2.5046 0.9639
-5.3021 7.0827 -2.5046 0.9639
-5.7942 6.6869 -2.5048 0.9639
-6.0293 6.4760 -2.5049 0.9639
-6.2568 6.2568 -2.5049 0.9639
-6.4763 6.0297 -2.5050 0.9639
-6.6876 5.7948 -2.5051 0.9639
-7.2692 5.0471 -2.5052 0.9639
-7.6110 4.5158 -2.5053 0.9639
-7.7674 4.2413 -2.5054 0.9639
-8.0504 3.6765 -2.5054 0.9639
-8.4919 2.4934 -2.5055 0.9639
-8.5755 2.1888 -2.5055 0.9639
-8.6481 1.8813 -2.5055 0.9639
-8.7995 0.9460 -2.5054 0.9639
-8.8276 0.6314 -2.5054 0.9639
-8.8445 0.3159 -2.5054 0.9639
8.1181 0.2900 -2.4985 0.9666
8.0186 1.1529 -2.4917 0.9667
7.7155 1.3920 -2.4114 0.9677
7.4554 1.6218 -2.3467 0.9686
7.3929 1.8869 -2.3468 0.9686
7.2398 2.4096 -2.3469 0.9686
7.1494 2.6666 -2.3470 0.9686
7.0498 2.9201 -2.3470 0.9686
6.5633 3.8942 -2.3473 0.9686
6.2692 4.3528 -2.3475 0.9686
6.1101 4.5740 -2.3476 0.9686
5.9432 4.7893 -2.3477 0.9686
5.5868 5.2015 -2.3479 0.9686
5.3978 5.3978 -2.3480 0.9686
4.1281 6.4235 -2.3486 0.9686
3.6597 6.7023 -2.3488 0.9685
3.4183 6.8289 -2.3489 0.9685
2.6691 7.1562 -2.3492 0.9685
2.1520 7.3291 -2.3495 0.9685
1.0873 7.5623 -2.3499 0.9685
0.8093 7.5279 -2.3288 0.9688
-0.0000 7.2148 -2.2191 0.9703
-0.5372 7.5106 -2.3160 0.9690
-0.8170 7.5987 -2.3507 0.9685
-1.0877 7.5651 -2.3508 0.9685
-1.6248 7.4689 -2.3510 0.9685
-1.8904 7.4064 -2.3511 0.9685
-2.1536 7.3346 -2.3512 0.9685
-2.7449 7.3594 -2.4159 0.9677
-3.1066 7.4999 -2.4969 0.9666
-4.1544 7.0019 -2.5042 0.9665
-5.1092 6.3402 -2.5045 0.9665
-5.5488 5.9599 -2.5046 0.9665
-6.1546 5.3330 -2.5048 0.9665
-6.8514 4.4031 -2.5050 0.9665
-7.0043 4.1558 -2.5050 0.9665
-7.2831 3.6456 -2.5051 0.9665
-7.8149 2.2947 -2.5052 0.9665
-7.8919 2.0143 -2.5052 0.9665
-7.9587 1.7313 -2.5052 0.9665
-8.0619 1.1591 -2.5052 0.9665
-8.0981 0.8706 -2.5052 0.9665
-8.1240 0.5810 -2.5051 0.9665
7.5172 0.0000 -2.4988 0.9688
7.4982 0.5363 -2.4988 0.9688
7.4744 0.8036 -2.4989 0.9688
7.3859 1.3326 -2.4948 0.9689
6.7748 1.9893 -2.3471 0.9707
6.5238 2.7023 -2.3472 0.9707
6.3148 3.1610 -2.3474 0.9707
6.1981 3.3844 -2.3474 0.9707
6.0736 3.6036 -2.3475 0.9707
5.9412 3.8182 -2.3476 0.9707
5.6541 4.2326 -2.3477 0.9707
5.4996 4.4319 -2.3478 0.9707
5.3381 4.6255 -2.3479 0.9707
4.9949 4.9949 -2.3481 0.9707
4.8136 5.1702 -2.3482 0.9707
4.4329 5.5009 -2.3484 0.9707
4.2339 5.6558 -2.3484 0.9707
4.0295 5.8036 -2.3485 0.9707
3.8199 5.9440 -2.3486 0.9707
2.9357 6.4282 -2.3490 0.9707
2.4698 6.6218 -2.3493 0.9706
2.2320 6.7061 -2.3494 0.9706
1.7481 6.8488 -2.3496 0.9706
1.5026 6.9072 -2.3497 0.9706
1.2551 6.9567 -2.3498 0.9706
0.7557 7.0291 -2.3500 0.9706
0.4980 6.9624 -2.3203 0.9710
0.2524 7.0658 -2.3502 0.9706
-0.2524 7.0664 -2.3504 0.9706
-1.0064 6.9998 -2.3507 0.9706
-1.2557 6.9597 -2.3508 0.9706
-1.5033 6.9107 -2.3509 0.9706
-2.0439 6.9610 -2.4116 0.9699
-2.3712 7.1244 -2.4959 0.9688
-2.8814 6.9564 -2.5029 0.9688
-3.6100 6.6113 -2.5039 0.9687
-4.0727 6.3373 -2.5041 0.9687
-4.5147 6.0310 -2.5042 0.9687
-4.7272 5.8662 -2.5043 0.9687
-4.9337 5.6938 -2.5044 0.9687
-5.1339 5.5143 -2.5044 0.9687
-5.3276 5.3276 -2.5045 0.9687
-5.5145 5.1342 -2.5045 0.9687
-5.6944 4.9342 -2.5046 0.9687
-5.8670 4.7279 -2.5046 0.9687
-6.0321 4.5156 -2.5047 0.9687
-6.1895 4.2975 -2.5047 0.9687
-6.3391 4.0739 -2.5048 0.9687
-6.6137 3.6114 -2.5048 0.9687
-6.7385 3.3730 -2.5049 0.9687
-6.8546 3.1304 -2.5049 0.9687
-7.0606 2.6335 -2.5049 0.9687
-7.3017 1.8636 -2.5049 0.9687
-7.4160 1.3380 -2.5049 0.9687
-7.4925 0.8055 -2.5049 0.9687
-7.5164 0.5376 -2.5049 0.9687
-7.5308 0.2690 -2.5049 0.9687
6.9173 0.9946 -2.4991 0.9707
6.7593 1.7252 -2.4947 0.9708
6.6859 1.9632 -2.4919 0.9708
6.4290 2.1398 -2.4231 0.9716
6.1733 2.3025 -2.3562 0.9724
6.0645 2.5120 -2.3474 0.9725
5.9711 2.7269 -2.3475 0.9725
5.8702 2.9384 -2.3475 0.9725
5.7617 3.1461 -2.3476 0.9725
5.5229 3.5494 -2.3477 0.9725
5.2559 3.9346 -2.3479 0.9725
5.1123 4.1198 -2.3479 0.9725
4.9622 4.2998 -2.3480 0.9725
4.6431 4.6431 -2.3482 0.9725
4.1206 5.1134 -2.3484 0.9725
3.5508 5.5252 -2.3487 0.9725
3.3515 5.6487 -2.3488 0.9725
2.5139 6.0691 -2.3492 0.9725
2.0747 6.2335 -2.3494 0.9725
1.8510 6.3039 -2.3495 0.9725
1.6249 6.3662 -2.3496 0.9725
1.3967 6.4204 -2.3497 0.9725
0.9352 6.5042 -2.3499 0.9725
0.7024 6.5337 -2.3500 0.9725
-0.7026 6.5353 -2.3505 0.9725
-0.9355 6.5063 -2.3506 0.9725
-1.1693 6.4809 -2.3550 0.9724
-1.9684 6.7038 -2.4985 0.9708
-2.6791 6.4678 -2.5035 0.9707
-2.9083 6.3683 -2.5036 0.9707
-3.1339 6.2607 -2.5037 0.9707
-3.5727 6.0215 -2.5038 0.9707
-3.7855 5.8903 -2.5039 0.9707
-3.9934 5.7516 -2.5040 0.9707
-4.1963 5.6056 -2.5040 0.9707
-4.5857 5.2922 -2.5042 0.9707
-5.4531 4.3944 -2.5044 0.9707
-5.6065 4.1970 -2.5045 0.9707
-5.7528 3.9943 -2.5045 0.9707
-5.8918 3.7865 -2.5046 0.9707
-6.0233 3.5738 -2.5046 0.9707
-6.2630 3.1351 -2.5046 0.9707
-6.3710 2.9095 -2.5047 0.9707
-6.4708 2.6803 -2.5047 0.9707
-6.6456 2.2119 -2.5047 0.9707
-6.7865 1.7322 -2.5047 0.9707
-6.8440 1.4888 -2.5047 0.9707
-6.8928 1.2436 -2.5047 0.9707
-6.9327 0.9968 -2.5047 0.9707
-6.9639 0.7487 -2.5047 0.9707
-6.9861 0.4997 -2.5047 0.9707
-6.9995 0.2500 -2.5046 0.9707
6.5174 0.2328 -2.4992 0.9725
6.4844 0.6971 -2.4992 0.9724
6.4183 1.1580 -2.4993 0.9724
6.3730 1.3864 -2.4994 0.9724
6.3196 1.6130 -2.4994 0.9724
6.0943 2.2731 -2.4926 0.9725
5.6685 2.5887 -2.3881 0.9737
5.2689 3.1262 -2.3478 0.9741
5.0327 3.4943 -2.3479 0.9741
4.6308 4.0126 -2.3481 0.9741
4.4847 4.1754 -2.3482 0.9741
4.1757 4.4850 -2.3484 0.9741
4.0131 4.6314 -2.3484 0.9741
3.8454 4.7718 -2.3485 0.9741
3.4954 5.0344 -2.3487 0.9741
3.1276 5.2713 -2.3489 0.9741
2.7438 5.4814 -2.3490 0.9741
2.1424 5.7439 -2.3493 0.9741
1.9361 5.8170 -2.3494 0.9741
1.5163 5.9407 -2.3496 0.9741
0.8727 6.0695 -2.3498 0.9741
0.6555 6.0970 -2.3499 0.9741
0.0000 6.1328 -2.3502 0.9741
-0.4375 6.1176 -2.3504 0.9741
-0.6651 6.1864 -2.3844 0.9737
-0.9074 6.3108 -2.4433 0.9731
-2.0629 6.1979 -2.5032 0.9724
-2.2828 6.1205 -2.5033 0.9724
-2.9243 5.8420 -2.5036 0.9724
-3.1310 5.7340 -2.5036 0.9724
-3.3338 5.6188 -2.5037 0.9724
-3.5323 5.4964 -2.5038 0.9724
-3.7263 5.3669 -2.5038 0.9724
-4.0999 5.0877 -2.5040 0.9724
-4.2790 4.9382 -2.5040 0.9724
-4.4526 4.7824 -2.5041 0.9724
-4.6206 4.6206 -2.5041 0.9724
-5.0883 4.1004 -2.5043 0.9724
-5.2315 3.9162 -2.5043 0.9724
-5.4977 3.5331 -2.5044 0.9724
-5.6203 3.3347 -2.5044 0.9724
-5.7358 3.1320 -2.5044 0.9724
-5.9448 2.7149 -2.5045 0.9724
-6.0379 2.5010 -2.5045 0.9724
-6.1234 2.2839 -2.5045 0.9724
-6.2707 1.8413 -2.5045 0.9724
-6.5187 0.4662 -2.5045 0.9724
6.0913 0.4357 -2.4994 0.9740
6.0719 0.6528 -2.4994 0.9740
6.0448 0.8691 -2.4994 0.9740
5.7950 1.9287 -2.4996 0.9739
5.7187 2.1330 -2.4980 0.9740
5.0093 2.9722 -2.3839 0.9751
4.8262 3.1016 -2.3480 0.9755
4.7125 3.2720 -2.3480 0.9755
4.5928 3.4382 -2.3481 0.9755
4.4673 3.6000 -2.3481 0.9755
4.1994 3.9098 -2.3483 0.9755
3.9100 4.1996 -2.3484 0.9755
3.7577 4.3367 -2.3485 0.9755
3.6007 4.4682 -2.3486 0.9755
3.1027 4.8279 -2.3488 0.9755
2.7506 5.0373 -2.3490 0.9755
2.5691 5.1325 -2.3491 0.9755
2.3844 5.2211 -2.3492 0.9755
2.0060 5.3783 -2.3493 0.9755
1.6173 5.5081 -2.3495 0.9755
1.4197 5.5625 -2.3496 0.9755
1.0194 5.6500 -2.3497 0.9755
0.8171 5.6830 -2.3498 0.9755
0.4096 5.7272 -2.3500 0.9755
0.2049 5.7384 -2.3501 0.9755
-0.2115 5.9219 -2.4252 0.9747
-1.0850 6.0135 -2.5009 0.9739
-1.7230 5.8681 -2.5031 0.9739
-1.9315 5.8031 -2.5031 0.9739
-2.7380 5.4698 -2.5034 0.9739
-2.9315 5.3687 -2.5035 0.9739
-4.0063 4.6235 -2.5039 0.9739
-4.1689 4.4777 -2.5039 0.9739
-4.6239 4.0066 -2.5041 0.9739
-4.7640 3.8391 -2.5041 0.9739
-4.8981 3.6667 -2.5041 0.9739
-5.1473 3.3080 -2.5042 0.9739
-5.4716 2.7389 -2.5043 0.9739
-5.7331 2.1383 -2.5043 0.9739
-5.8058 1.9324 -2.5043 0.9739
-5.8711 1.7239 -2.5043 0.9739
-5.9791 1.3007 -2.5043 0.9739
-6.0567 0.8708 -2.5043 0.9739
-6.0839 0.6541 -2.5043 0.9739
-6.1149 0.2184 -2.5043 0.9739
5.7352 0.0000 -2.4995 0.9753
5.7025 0.6131 -2.4996 0.9753
5.6770 0.8162 -2.4996 0.9753
5.6444 1.0184 -2.4996 0.9753
5.6045 1.2192 -2.4997 0.9753
5.5034 1.6160 -2.4997 0.9753
5.4423 1.8114 -2.4998 0.9753
5.0252 2.7440 -2.4953 0.9753
4.9208 2.9197 -2.4937 0.9753
4.7893 3.0779 -2.4811 0.9755
4.4168 3.3063 -2.4045 0.9762
3.5290 4.0727 -2.3486 0.9768
3.2297 4.3143 -2.3487 0.9768
2.9138 4.5340 -2.3489 0.9768
2.7502 4.6353 -2.3489 0.9768
2.5831 4.7306 -2.3490 0.9768
2.2392 4.9032 -2.3492 0.9768
1.8838 5.0508 -2.3493 0.9768
1.7024 5.1150 -2.3494 0.9768
1.1460 5.2682 -2.3497 0.9767
-0.0000 5.7264 -2.4956 0.9753
-0.6135 5.7064 -2.5013 0.9753
-1.2207 5.6116 -2.5028 0.9753
-1.4203 5.5647 -2.5029 0.9753
-2.0072 5.3814 -2.5031 0.9753
-2.5711 5.1365 -2.5033 0.9752
-2.7529 5.0415 -2.5034 0.9752
-2.9312 4.9402 -2.5035 0.9752
-3.2763 4.7187 -2.5036 0.9752
-3.6047 4.4732 -2.5037 0.9752
-3.7621 4.3417 -2.5037 0.9752
-3.9148 4.2048 -2.5038 0.9752
-4.3421 3.7624 -2.5039 0.9752
-4.4736 3.6051 -2.5040 0.9752
-4.5995 3.4432 -2.5040 0.9752
-4.7196 3.2768 -2.5040 0.9752
-4.8336 3.1063 -2.5041 0.9752
-4.9414 2.9319 -2.5041 0.9752
-5.0429 2.7537 -2.5041 0.9752
-5.1381 2.5719 -2.5041 0.9752
-5.2266 2.3869 -2.5041 0.9752
-5.3085 2.1989 -2.5042 0.9752
-5.3836 2.0080 -2.5042 0.9752
-5.4519 1.8146 -2.5042 0.9752
-5.5132 1.6188 -2.5042 0.9752
-5.5675 1.4210 -2.5042 0.9752
-5.6146 1.2214 -2.5042 0.9752
-5.6547 1.0202 -2.5042 0.9752
-5.7130 0.6142 -2.5042 0.9752
5.4001 0.0000 -2.4996 0.9765
5.3967 0.1927 -2.4996 0.9765
5.3864 0.3852 -2.4997 0.9765
5.3693 0.5773 -2.4997 0.9765
5.3453 0.7685 -2.4997 0.9765
5.3146 0.9589 -2.4997 0.9765
5.2770 1.1479 -2.4998 0.9765
4.9898 2.0668 -2.5000 0.9765
4.7404 2.5885 -2.5001 0.9765
4.4288 3.0750 -2.4957 0.9765
4.1941 3.3799 -2.4933 0.9765
3.2192 3.9947 -2.3748 0.9776
2.7465 4.2736 -2.3515 0.9779
1.9528 4.7144 -2.3620 0.9778
1.6283 4.8922 -2.3867 0.9775
1.4628 4.9820 -2.4034 0.9774
1.2947 5.0726 -2.4233 0.9772
0.7670 5.3346 -2.4947 0.9765
0.0000 5.4018 -2.5004 0.9765
-0.5779 5.3755 -2.5026 0.9765
-0.9600 5.3209 -2.5027 0.9765
-1.3372 5.2391 -2.5029 0.9764
-1.5234 5.1882 -2.5029 0.9764
-1.7076 5.1307 -2.5030 0.9764
-1.8897 5.0666 -2.5031 0.9764
-2.2465 4.9191 -2.5032 0.9764
-2.4207 4.8359 -2.5033 0.9764
-2.7596 4.6511 -2.5034 0.9764
-3.0846 4.4426 -2.5035 0.9764
-3.3938 4.2114 -2.5036 0.9764
-3.5420 4.0877 -2.5036 0.9764
-3.8247 3.8247 -2.5037 0.9764
-3.9588 3.6858 -2.5038 0.9764
-4.0879 3.5422 -2.5038 0.9764
-4.2118 3.3941 -2.5038 0.9764
-4.3303 3.2417 -2.5039 0.9764
-4.4433 3.0851 -2.5039 0.9764
-4.7478 2.5925 -2.5040 0.9764
-4.9978 2.0702 -2.5040 0.9764
-5.1905 1.5241 -2.5040 0.9764
-5.2416 1.3378 -2.5040 0.9764
-5.3237 0.9605 -2.5040 0.9764
-5.3786 0.5783 -2.5040 0.9764
-5.3958 0.3859 -2.5040 0.9764
-5.4061 0.1931 -2.5040 0.9764
5.0961 0.0000 -2.4997 0.9776
5.0929 0.1819 -2.4998 0.9776
5.0832 0.3636 -2.4998 0.9776
4.9381 1.2604 -2.4999 0.9775
4.8358 1.6095 -2.5000 0.9775
4.7753 1.7811 -2.5000 0.9775
4.7088 1.9505 -2.5001 0.9775
4.2881 2.7558 -2.5003 0.9775
4.0786 3.0532 -2.4991 0.9776
3.7245 3.4676 -2.4962 0.9776
3.5972 3.5972 -2.4954 0.9776
3.4656 3.7223 -2.4947 0.9776
3.0456 4.0684 -2.4929 0.9776
2.8883 4.1599 -2.4841 0.9777
2.7316 4.2504 -2.4783 0.9777
2.1027 4.6042 -2.4828 0.9777
1.9436 4.6922 -2.4913 0.9776
1.6062 4.8258 -2.4948 0.9776
1.0822 4.9746 -2.4972 0.9776
0.9043 5.0121 -2.4982 0.9776
0.0000 5.1013 -2.5023 0.9775
-0.1821 5.0982 -2.5024 0.9775
-0.3639 5.0886 -2.5024 0.9775
-0.5454 5.0725 -2.5025 0.9775
-0.9059 5.0210 -2.5027 0.9775
-1.0845 4.9856 -2.5027 0.9775
-1.2618 4.9438 -2.5028 0.9775
-1.4375 4.8957 -2.5029 0.9775
-1.7832 4.7810 -2.5030 0.9775
-2.1198 4.6418 -2.5031 0.9775
-2.4457 4.4790 -2.5032 0.9775
-2.6041 4.3889 -2.5033 0.9775
-2.9106 4.1921 -2.5034 0.9775
-3.0585 4.0856 -2.5034 0.9775
-3.2024 3.9740 -2.5035 0.9775
-3.3423 3.8572 -2.5035 0.9775
-3.6090 3.6090 -2.5036 0.9775
-3.9743 3.2027 -2.5037 0.9775
-4.0862 3.0589 -2.5037 0.9775
-4.2941 2.7596 -2.5038 0.9775
-4.3899 2.6046 -2.5038 0.9775
-4.4801 2.4463 -2.5038 0.9775
-4.5646 2.2848 -2.5039 0.9775
-4.6432 2.1205 -2.5039 0.9775
-4.7827 1.7839 -2.5039 0.9775
-4.8434 1.6120 -2.5039 0.9775
-5.0235 0.9063 -2.5039 0.9775
-5.0526 0.7265 -2.5039 0.9775
-5.0753 0.5457 -2.5039 0.9775
-5.0915 0.3642 -2.5039 0.9775
-5.1012 0.1822 -2.5039 0.9775
4.8187 0.0000 -2.4999 0.9785
4.8157 0.1720 -2.4999 0.9785
4.8065 0.3438 -2.4999 0.9785
4.7698 0.6858 -2.4999 0.9785
4.5726 1.5219 -2.5001 0.9785
4.5154 1.6842 -2.5001 0.9785
4.4525 1.8443 -2.5002 0.9785
4.3839 2.0021 -2.5002 0.9785
4.1450 2.4594 -2.5004 0.9785
3.2827 3.5259 -2.4992 0.9785
2.8855 3.8546 -2.4979 0.9785
2.7458 3.9547 -2.4976 0.9785
2.6028 4.0500 -2.4975 0.9785
2.4565 4.1402 -2.4975 0.9785
2.3072 4.2253 -2.4975 0.9785
2.1551 4.3053 -2.4977 0.9785
1.5214 4.5711 -2.4993 0.9785
1.1921 4.6707 -2.5007 0.9785
1.0250 4.7119 -2.5016 0.9785
0.8563 4.7461 -2.5019 0.9785
0.5156 4.7954 -2.5021 0.9785
0.3441 4.8108 -2.5021 0.9785
-0.1722 4.8204 -2.5023 0.9785
-0.3441 4.8114 -2.5024 0.9785
-0.5156 4.7961 -2.5025 0.9785
-1.0255 4.7139 -2.5027 0.9785
-1.3592 4.6290 -2.5028 0.9785
-1.6860 4.5204 -2.5029 0.9785
-1.8464 4.4575 -2.5030 0.9785
-2.0043 4.3889 -2.5030 0.9785
-2.1597 4.3146 -2.5031 0.9785
-2.3124 4.2349 -2.5031 0.9785
-2.4621 4.1497 -2.5032 0.9785
-3.2883 3.5319 -2.5035 0.9785
-3.4123 3.4123 -2.5035 0.9785
-3.6472 3.1603 -2.5036 0.9785
-4.0600 2.6092 -2.5037 0.9785
-4.1506 2.4627 -2.5037 0.9785
-4.2359 2.3130 -2.5037 0.9785
-4.4589 1.8469 -2.5038 0.9785
-4.5220 1.6866 -2.5038 0.9785
-4.6764 1.1936 -2.5038 0.9785
-4.7160 1.0259 -2.5038 0.9785
-4.7496 0.8569 -2.5038 0.9785
-4.7986 0.5159 -2.5038 0.9785
-4.8140 0.3443 -2.5038 0.9785
-4.8232 0.1723 -2.5038 0.9785
4.5616 0.1629 -2.5000 0.9794
4.5529 0.3256 -2.5000 0.9794
4.5384 0.4879 -2.5000 0.9794
4.4921 0.8105 -2.5001 0.9794
4.4604 0.9703 -2.5001 0.9794
4.4229 1.1289 -2.5001 0.9794
4.3799 1.2861 -2.5002 0.9794
4.3313 1.4416 -2.5002 0.9794
4.1525 1.8964 -2.5003 0.9794
4.0068 2.1879 -2.5004 0.9794
3.8407 2.4683 -2.5005 0.9794
3.5550 2.8648 -2.5006 0.9794
3.2286 3.2287 -2.5008 0.9794
2.9902 3.4509 -2.5009 0.9794
2.7366 3.6556 -2.5011 0.9794
2.4689 3.8417 -2.5012 0.9794
2.3303 3.9275 -2.5012 0.9794
1.8973 4.1544 -2.5014 0.9794
1.7478 4.2196 -2.5015 0.9794
1.4424 4.3338 -2.5016 0.9794
1.1296 4.4259 -2.5018 0.9794
0.8111 4.4954 -2.5019 0.9794
0.4883 4.5421 -2.5020 0.9794
0.3259 4.5567 -2.5021 0.9794
0.1631 4.5656 -2.5022 0.9794
0.0000 4.5686 -2.5022 0.9794
-0.3259 4.5572 -2.5024 0.9794
-0.9713 4.4649 -2.5026 0.9794
-1.4431 4.3358 -2.5028 0.9794
-1.8984 4.1570 -2.5030 0.9794
-2.4709 3.8448 -2.5032 0.9794
-2.9931 3.4542 -2.5033 0.9794
-3.3454 3.1146 -2.5035 0.9794
-3.4544 2.9933 -2.5035 0.9794
-3.5591 2.8681 -2.5035 0.9794
-3.8454 2.4713 -2.5036 0.9794
-4.0120 2.1907 -2.5036 0.9794
-4.0877 2.0461 -2.5037 0.9794
-4.1581 1.8989 -2.5037 0.9794
-4.2830 1.5975 -2.5037 0.9794
-4.3861 1.2879 -2.5037 0.9794
-4.4668 0.9717 -2.5037 0.9794
-4.5596 0.3261 -2.5037 0.9794
4.3302 0.0000 -2.5001 0.9802
4.3275 0.1546 -2.5001 0.9802
4.3055 0.4629 -2.5001 0.9802
4.2863 0.6163 -2.5001 0.9802
4.2616 0.7689 -2.5002 0.9802
4.1960 1.0710 -2.5002 0.9802
4.1551 1.2201 -2.5002 0.9802
4.1090 1.3676 -2.5003 0.9802
4.0576 1.5134 -2.5003 0.9802
3.9394 1.7991 -2.5004 0.9802
3.8728 1.9386 -2.5004 0.9802
3.8012 2.0756 -2.5005 0.9802
3.7247 2.2100 -2.5005 0.9802
3.5577 2.4702 -2.5006 0.9802
3.4673 2.5956 -2.5007 0.9802
3.3726 2.7178 -2.5007 0.9802
3.2735 2.8365 -2.5008 0.9802
2.9517 3.1704 -2.5009 0.9802
2.7181 3.3730 -2.5010 0.9802
2.4707 3.5585 -2.5012 0.9802
2.2107 3.7259 -2.5013 0.9802
2.0763 3.8025 -2.5013 0.9802
1.9393 3.8743 -2.5014 0.9802
1.6581 4.0030 -2.5015 0.9802
1.3684 4.1112 -2.5017 0.9802
1.0716 4.1986 -2.5018 0.9802
0.9211 4.2343 -2.5018 0.9802
0.6167 4.2894 -2.5020 0.9802
0.4632 4.3088 -2.5020 0.9802
0.3092 4.3227 -2.5021 0.9802
0.1547 4.3311 -2.5022 0.9802
-0.0000 4.3340 -2.5022 0.9802
-1.0720 4.2001 -2.5026 0.9802
-1.2213 4.1592 -2.5027 0.9802
-1.8009 3.9434 -2.5029 0.9802
-1.9405 3.8767 -2.5030 0.9802
-2.2122 3.7285 -2.5031 0.9802
-2.4727 3.5613 -2.5031 0.9802
-2.5983 3.4709 -2.5032 0.9802
-2.7205 3.3760 -2.5032 0.9802
-2.9545 3.1734 -2.5033 0.9802
-3.2769 2.8395 -2.5034 0.9802
-3.4712 2.5985 -2.5035 0.9802
-3.5618 2.4730 -2.5035 0.9802
-3.7292 2.2127 -2.5035 0.9802
-3.8058 2.0781 -2.5035 0.9802
-3.8776 1.9410 -2.5036 0.9802
-3.9445 1.8014 -2.5036 0.9802
-4.1144 1.3694 -2.5036 0.9802
-4.1607 1.2217 -2.5036 0.9802
-4.2017 1.0724 -2.5036 0.9802
-4.2922 0.6171 -2.5036 0.9802
-4.3253 0.3094 -2.5036 0.9802
