ply
format ascii 1.0
element vertex 1251
property float32 x
property float32 y
property float32 z
property float32 I
end_header
-19.8899 -43.5529 8.4425 0.8233
-17.5040 -42.2584 8.0652 0.8305
-15.3631 -41.1901 7.7517 0.8365
-13.5315 -40.6557 7.5553 0.8403
-11.5334 -39.2791 7.2184 0.8468
-6.6468 -36.8406 6.6009 0.8589
-2.4864 -34.7645 6.1456 0.8680
-1.2190 -34.1321 6.0222 0.8705
1.1788 -33.0038 5.8232 0.8745
4.5174 -31.4188 5.5970 0.8790
7.6221 -29.8630 5.4345 0.8823
10.6878 -28.6551 5.3927 0.8832
12.4646 -27.2936 5.2907 0.8853
15.9279 -29.1698 5.8602 0.8737
7.1006 -11.0487 2.3158 0.9481
9.7650 -11.2694 2.6293 0.9412
10.0639 -10.8093 2.6042 0.9418
-13.3801 -40.2010 6.4907 0.8424
-6.1958 -34.3410 5.3458 0.8683
-5.1926 -36.1153 5.5895 0.8627
-1.2190 -34.1324 5.2322 0.8709
0.0000 -37.1561 5.6921 0.8604
2.3151 -32.3688 4.9714 0.8769
3.9709 -36.9349 5.6908 0.8604
7.6493 -35.1633 5.5128 0.8645
8.5838 -29.2337 4.6675 0.8840
13.3810 -32.3045 5.3566 0.8681
18.0064 -32.9762 5.7558 0.8590
7.1003 -11.0482 2.0119 0.9482
9.7553 -11.2581 2.2821 0.9415
-19.8289 -43.4194 6.2158 0.8249
-12.2128 -36.6938 5.0360 0.8556
-11.1850 -38.0925 5.1699 0.8520
-8.1807 -37.6065 5.0117 0.8562
-6.8718 -38.0882 5.0400 0.8555
-5.1926 -36.1156 4.7514 0.8631
-3.8864 -36.1483 4.7344 0.8636
-2.8914 -40.4276 5.2780 0.8492
-1.2190 -34.1327 4.4476 0.8713
1.3681 -38.3065 4.9915 0.8567
3.9786 -37.0061 4.8467 0.8606
5.2512 -36.5227 4.8049 0.8617
5.5489 -30.7553 4.0696 0.8816
9.5667 -28.7434 3.9449 0.8850
13.4375 -32.4409 4.5726 0.8679
20.0920 -40.1386 5.8452 0.8344
21.2244 -38.8695 5.7671 0.8364
17.4204 -29.3605 4.4457 0.8714
10.0686 -10.8145 1.9241 0.9421
-26.0689 -2.8027 2.8155 0.8999
-25.2544 -29.1452 4.1411 0.8563
-22.9668 -42.0605 5.1460 0.8247
-11.3700 -22.7143 2.7276 0.9029
-19.3698 -42.4139 5.0069 0.8290
-17.7116 -42.7596 4.9699 0.8301
-11.5337 -39.2803 4.3961 0.8482
-11.4483 -44.8540 4.9709 0.8301
-6.8720 -38.0889 4.1561 0.8558
-5.1927 -36.1159 3.9181 0.8635
0.0000 -39.1530 4.2043 0.8543
1.3686 -38.3205 4.1175 0.8570
2.3151 -32.3694 3.4848 0.8776
7.6546 -35.1875 3.8669 0.8651
8.8654 -34.7345 3.8494 0.8657
9.5668 -28.7436 3.2530 0.8853
13.4420 -32.4517 3.7718 0.8682
12.4649 -27.2943 3.2221 0.8863
9.7360 -11.2360 1.5965 0.9419
-20.6783 -20.6783 2.4755 0.8892
-20.5865 -45.0783 4.1951 0.8196
-15.3636 -41.1916 3.7216 0.8382
-13.7960 -41.4504 3.6981 0.8391
-11.4533 -44.8736 3.9205 0.8303
-8.1809 -37.6072 3.2580 0.8568
-6.8721 -38.0896 3.2764 0.8561
-5.1927 -36.1163 3.0888 0.8637
-1.2190 -34.1333 2.8913 0.8719
0.0000 -39.1675 3.3156 0.8545
1.7447 -24.3934 2.0702 0.9065
3.9814 -37.0322 3.1529 0.8611
5.5490 -30.7558 2.6456 0.8821
8.5840 -29.2344 2.5792 0.8849
12.2569 -32.8620 2.9691 0.8687
12.4650 -27.2945 2.5401 0.8865
10.0733 -10.8195 1.2514 0.9424
-45.6921 -15.2078 2.9862 0.8245
-37.2368 -17.0055 2.5385 0.8487
-25.2748 -29.1687 2.3933 0.8567
-17.7121 -42.7608 2.8701 0.8307
-14.9780 -40.1576 2.6578 0.8422
-8.7091 -29.6604 1.9169 0.8835
-9.1090 -35.6888 2.2840 0.8628
-5.1928 -36.1166 2.2626 0.8640
-3.8866 -36.1506 2.2546 0.8644
-1.2191 -34.1336 2.1180 0.8721
0.0000 -39.0223 2.4198 0.8552
5.2350 -36.4099 2.2810 0.8629
8.8346 -34.6135 2.2152 0.8666
8.5841 -29.2346 1.8894 0.8851
9.5670 -28.7441 1.8786 0.8857
12.2706 -32.8987 2.1773 0.8687
13.3947 -32.3377 2.1705 0.8691
12.4651 -27.2947 1.8607 0.8867
17.4210 -29.3616 2.1171 0.8721
7.0985 -11.0455 0.8142 0.9487
9.7171 -11.2141 0.9201 0.9423
10.0757 -10.8220 0.9169 0.9425
-45.6897 -15.2070 1.8988 0.8247
-25.2849 -29.1804 1.5225 0.8568
-17.6285 -32.2843 1.4504 0.8631
-15.3640 -41.1926 1.7336 0.8386
-13.7964 -41.4517 1.7226 0.8396
-8.6990 -29.6262 1.2175 0.8837
-6.8724 -38.0910 1.5262 0.8565
-2.8943 -40.4670 1.5997 0.8501
-1.2191 -34.1339 1.3468 0.8722
0.0000 -39.0226 1.5387 0.8554
2.3152 -32.3702 1.2797 0.8782
5.2350 -36.4102 1.4505 0.8631
7.6576 -35.2012 1.4205 0.8657
8.8346 -34.6138 1.4086 0.8668
8.5841 -29.2348 1.2014 0.8852
13.3948 -32.3380 1.3802 0.8693
12.4652 -27.2949 1.1832 0.8868
17.4212 -29.3619 1.3462 0.8723
7.0978 -11.0444 0.5177 0.9488
9.7077 -11.2032 0.5845 0.9424
10.0780 -10.8245 0.5832 0.9425
34.3856 -18.7759 1.5448 0.8548
36.4886 -6.5833 1.4620 0.8621
-40.4052 -10.3128 0.7044 0.8463
-45.6865 -15.2059 0.8134 0.8248
-25.2951 -29.1920 0.6525 0.8568
-15.3642 -41.1930 0.7426 0.8387
-11.4012 -44.6695 0.7787 0.8316
-2.8911 -40.4225 0.6846 0.8503
8.5842 -29.2350 0.5147 0.8852
12.4653 -27.2951 0.5069 0.8869
16.1062 -27.1455 0.5332 0.8814
7.0971 -11.0433 0.2217 0.9488
9.6983 -11.1924 0.2502 0.9425
34.3859 -18.7761 0.6618 0.8549
-45.6817 -15.2043 -0.2711 0.8248
-25.3052 -29.2037 -0.2176 0.8568
-22.3701 -44.6897 -0.2814 0.8188
-20.5877 -45.0808 -0.2790 0.8202
-17.7129 -42.7627 -0.2606 0.8310
-15.3643 -41.1935 -0.2475 0.8387
-13.7969 -41.4530 -0.2460 0.8397
-11.5343 -39.2824 -0.2305 0.8489
-8.1812 -37.6087 -0.2167 0.8573
-6.8726 -38.0924 -0.2179 0.8566
-5.1929 -36.1176 -0.2054 0.8642
-3.8868 -36.1528 -0.2047 0.8646
-2.8943 -40.4678 -0.2284 0.8502
2.3152 -32.3707 -0.1827 0.8783
5.2199 -36.3054 -0.2065 0.8635
9.5672 -28.7447 -0.1706 0.8859
13.4089 -32.3718 -0.1973 0.8692
12.4654 -27.2953 -0.1689 0.8869
10.0827 -10.8295 -0.0833 0.9425
-45.6773 -15.2029 -1.3555 0.8248
-33.9919 -33.9919 -1.3536 0.8250
-25.3153 -29.2154 -1.0885 0.8567
-22.3703 -44.6903 -1.4072 0.8187
-20.5880 -45.0814 -1.3955 0.8201
-15.3645 -41.1939 -1.2380 0.8387
-13.7971 -41.4536 -1.2302 0.8396
-8.1813 -37.6090 -1.0837 0.8573
-6.8727 -38.0931 -1.0899 0.8565
-5.1930 -36.1179 -1.0275 0.8641
-3.8869 -36.1536 -1.0239 0.8646
-2.8943 -40.4681 -1.1424 0.8501
0.0000 -39.0638 -1.1000 0.8553
3.9819 -37.0365 -1.0489 0.8615
5.2200 -36.3058 -1.0328 0.8635
8.8197 -34.5551 -1.0042 0.8670
8.5843 -29.2355 -0.8580 0.8852
12.2836 -32.9336 -0.9897 0.8688
12.4655 -27.2955 -0.8449 0.8869
16.0176 -26.9962 -0.8839 0.8820
7.0956 -11.0410 -0.3696 0.9488
10.0850 -10.8320 -0.4167 0.9425
27.5944 -1.9736 -0.7790 0.8952
-45.9142 -3.2839 -2.3345 0.8316
-45.5319 -6.5465 -2.3329 0.8317
-45.2545 -8.1648 -2.3321 0.8318
-44.9199 -9.7717 -2.3314 0.8318
-40.3009 -10.2862 -2.1093 0.8466
-44.0817 -12.9435 -2.3299 0.8319
-45.8087 -17.0858 -2.4795 0.8222
-43.6867 -21.8680 -2.4776 0.8223
-42.8686 -23.4081 -2.4770 0.8223
-41.9968 -24.9179 -2.4765 0.8224
-41.0723 -26.3956 -2.4760 0.8224
-40.0965 -27.8395 -2.4755 0.8224
-39.0704 -29.2478 -2.4751 0.8224
-37.9954 -30.6187 -2.4747 0.8225
-33.5321 -31.2195 -2.3235 0.8324
-32.3924 -32.3925 -2.3232 0.8324
-24.8021 -28.6232 -1.9207 0.8593
-26.0286 -37.4883 -2.3145 0.8329
-19.6776 -30.6189 -1.8458 0.8644
-23.5980 -39.7723 -2.3453 0.8309
-15.2312 -27.8939 -1.6118 0.8805
-20.7947 -41.5426 -2.3560 0.8302
-19.3415 -42.3520 -2.3612 0.8299
-17.7134 -42.7640 -2.3474 0.8308
-15.3647 -41.1944 -2.2297 0.8385
-13.7973 -41.4543 -2.2157 0.8395
-11.5346 -39.2832 -2.0763 0.8488
-8.1814 -37.6094 -1.9519 0.8571
-3.8870 -36.1543 -1.8441 0.8645
0.0000 -39.0240 -1.9791 0.8553
3.9819 -37.0368 -1.8891 0.8614
5.5492 -30.7573 -1.5850 0.8823
23.1091 -42.3212 -2.4454 0.8244
15.8380 -26.6934 -1.5741 0.8831
7.0949 -11.0399 -0.6655 0.9488
27.5120 -39.6248 -2.4464 0.8243
10.0873 -10.8346 -0.7507 0.9424
35.2492 -32.8182 -2.4425 0.8246
31.6601 -25.5133 -2.0621 0.8497
38.4784 -28.8046 -2.4376 0.8249
29.8349 -20.7147 -1.8420 0.8646
29.6720 -19.0690 -1.7887 0.8683
30.4219 -16.6116 -1.7578 0.8704
31.3081 -15.6717 -1.7756 0.8692
32.5529 -14.8664 -1.8149 0.8665
34.6854 -14.3672 -1.9040 0.8604
44.6280 -16.6453 -2.4156 0.8263
45.0059 -13.2150 -2.3788 0.8287
46.4966 -8.3889 -2.3961 0.8276
46.6818 -6.7118 -2.3918 0.8279
27.5559 -1.9708 -1.4010 0.8953
-33.9848 0.0000 -2.4918 0.8726
-33.9547 -1.2127 -2.4912 0.8726
-33.8815 -2.4233 -2.4906 0.8726
-33.7653 -3.6302 -2.4900 0.8727
-33.6064 -4.8319 -2.4894 0.8727
-33.4049 -6.0269 -2.4889 0.8727
-32.5485 -9.5571 -2.4873 0.8728
-31.3224 -12.9742 -2.4859 0.8729
-30.3067 -15.1705 -2.4850 0.8729
-29.1382 -17.2886 -2.4842 0.8729
-28.4986 -18.3150 -2.4839 0.8730
-27.1126 -20.2963 -2.4833 0.8730
-25.5901 -22.1740 -2.4827 0.8730
-24.7800 -23.0710 -2.4825 0.8730
-23.9387 -23.9388 -2.4823 0.8730
-23.0674 -24.7761 -2.4821 0.8730
-21.5206 -24.8361 -2.4096 0.8765
-19.0495 -25.4472 -2.3307 0.8803
-17.1846 -26.7399 -2.3306 0.8803
-12.9128 -21.7634 -1.8555 0.9035
-12.2188 -22.3770 -1.8694 0.9028
-4.5825 -31.8722 -2.3610 0.8788
-1.1532 -32.2892 -2.3690 0.8785
0.0000 -32.3430 -2.3715 0.8783
3.4670 -32.2478 -2.3781 0.8780
5.5493 -30.7575 -2.2916 0.8822
6.9101 -31.7652 -2.3836 0.8778
8.0448 -31.5192 -2.3851 0.8777
8.5844 -29.2359 -2.2341 0.8850
14.5999 -29.1669 -2.3916 0.8774
16.6499 -28.0618 -2.3925 0.8773
7.8232 -10.4506 -0.9572 0.9490
8.2547 -10.2435 -0.9646 0.9486
9.6922 -11.1854 -1.0852 0.9424
10.0897 -10.8371 -1.0857 0.9423
23.8598 -22.2142 -2.3903 0.8774
26.7275 -18.5573 -2.3858 0.8777
27.3556 -17.5803 -2.3843 0.8777
19.2636 -11.4296 -1.6424 0.9141
29.0150 -14.5239 -2.3791 0.8780
29.4902 -13.4677 -2.3771 0.8781
29.9250 -12.3953 -2.3749 0.8782
30.3197 -11.3086 -2.3727 0.8783
30.9858 -9.0983 -2.3679 0.8785
31.2566 -7.9778 -2.3653 0.8786
31.6724 -5.7143 -2.3598 0.8789
31.8169 -4.5746 -2.3569 0.8790
26.8328 -2.8848 -1.9788 0.8974
24.8015 -1.7738 -1.8231 0.9051
27.8124 -0.9933 -2.0406 0.8944
-25.9582 -0.9271 -2.4937 0.9009
-25.8163 -2.7755 -2.4928 0.9009
-25.6962 -3.6946 -2.4923 0.9009
-25.5435 -4.6086 -2.4919 0.9010
-25.3585 -5.5164 -2.4915 0.9010
-23.5853 -10.7711 -2.4893 0.9011
-23.1829 -11.6046 -2.4889 0.9011
-22.7512 -12.4231 -2.4886 0.9011
-22.2907 -13.2257 -2.4884 0.9011
-21.8021 -14.0114 -2.4881 0.9011
-21.2860 -14.7792 -2.4878 0.9011
-20.7430 -15.5280 -2.4876 0.9011
-20.1738 -16.2571 -2.4874 0.9011
-19.5792 -16.9655 -2.4872 0.9011
-16.2512 -20.1665 -2.4865 0.9012
-15.5206 -20.7331 -2.4864 0.9012
-14.7363 -21.2244 -2.4806 0.9014
-13.2461 -20.6114 -2.3522 0.9062
-11.4921 -21.0463 -2.3021 0.9081
-10.8704 -21.7163 -2.3315 0.9070
-10.1039 -22.1244 -2.3351 0.9069
-8.5002 -22.7900 -2.3352 0.9069
-7.6817 -23.0798 -2.3353 0.9069
-6.8533 -23.3403 -2.3354 0.9069
-5.1742 -23.7854 -2.3369 0.9068
-4.0482 -22.4379 -2.1889 0.9125
-0.8727 -24.4350 -2.3474 0.9064
0.0000 -14.6113 -1.4028 0.9430
1.5119 -14.0627 -1.3579 0.9447
6.0781 -23.8136 -2.3595 0.9060
6.9273 -23.5922 -2.3606 0.9059
8.5992 -23.0555 -2.3624 0.9059
6.9205 -16.7075 -1.7362 0.9299
7.4962 -16.4143 -1.7324 0.9301
11.8047 -21.6186 -2.3648 0.9058
7.0935 -11.0376 -1.2596 0.9486
8.2748 -10.2684 -1.2661 0.9484
9.6961 -11.1899 -1.4215 0.9422
10.0920 -10.8396 -1.4219 0.9422
18.0182 -16.7755 -2.3635 0.9058
18.6001 -16.1171 -2.3628 0.9058
19.6882 -14.7384 -2.3611 0.9059
20.6710 -13.2844 -2.3590 0.9060
21.5430 -11.7634 -2.3565 0.9061
22.2998 -10.1840 -2.3536 0.9062
22.6338 -9.3752 -2.3520 0.9062
22.9519 -8.5606 -2.3518 0.9063
23.5144 -6.9045 -2.3528 0.9062
24.1332 -4.3541 -2.3543 0.9062
24.2784 -3.4907 -2.3548 0.9061
24.3925 -2.6225 -2.3553 0.9061
24.4756 -1.7505 -2.3558 0.9061
25.1673 -0.8988 -2.4177 0.9038
-21.0094 0.0000 -2.4956 0.9189
-20.9928 -0.7498 -2.4952 0.9189
-20.9495 -1.4983 -2.4949 0.9189
-20.8796 -2.2448 -2.4945 0.9189
-20.7831 -2.9882 -2.4941 0.9189
-20.6604 -3.7275 -2.4938 0.9189
-20.3363 -5.1905 -2.4931 0.9189
-19.9092 -6.6264 -2.4925 0.9190
-19.6577 -7.3320 -2.4922 0.9190
-19.3813 -8.0280 -2.4919 0.9190
-18.4064 -10.0507 -2.4911 0.9190
-18.0343 -10.7003 -2.4909 0.9190
-16.3228 -13.1538 -2.4901 0.9190
-14.8206 -14.8206 -2.4897 0.9190
-14.2816 -15.3395 -2.4896 0.9190
-13.1499 -16.3181 -2.4894 0.9190
-11.9517 -17.2138 -2.4893 0.9191
-11.3295 -17.6291 -2.4893 0.9191
-10.6930 -18.0221 -2.4892 0.9191
-9.2922 -18.5634 -2.4659 0.9198
-7.5317 -18.1832 -2.3379 0.9238
-4.8680 -19.0726 -2.3382 0.9238
-4.1843 -19.2351 -2.3383 0.9238
-3.4953 -19.3733 -2.3384 0.9238
-1.0843 -15.1612 -1.8055 0.9406
-0.7028 -19.6791 -2.3391 0.9237
1.0054 -14.0571 -1.6741 0.9448
2.8045 -19.5057 -2.3408 0.9237
3.5006 -19.4023 -2.3419 0.9237
4.1927 -19.2734 -2.3430 0.9236
5.5612 -18.9397 -2.3448 0.9236
6.2357 -18.7353 -2.3455 0.9235
7.0991 -17.1387 -2.2036 0.9280
7.7548 -16.9806 -2.2174 0.9276
9.4735 -17.3495 -2.3481 0.9235
10.0878 -17.0021 -2.3483 0.9235
7.0927 -11.0365 -1.5584 0.9485
7.4243 -10.6930 -1.5463 0.9489
8.2749 -10.2685 -1.5665 0.9483
9.7000 -11.1944 -1.7595 0.9421
14.9333 -12.9398 -2.3472 0.9235
15.8239 -11.8457 -2.3480 0.9235
17.0086 -10.0917 -2.3492 0.9234
17.3611 -9.4799 -2.3497 0.9234
17.6916 -8.8558 -2.3501 0.9234
18.2848 -7.5738 -2.3509 0.9234
18.5468 -6.9176 -2.3514 0.9234
19.1901 -4.8980 -2.3526 0.9233
19.9482 -3.5990 -2.4078 0.9216
21.0523 -1.5057 -2.5071 0.9185
-17.6068 -0.6288 -2.4963 0.9313
-17.5709 -1.2567 -2.4960 0.9313
-17.4322 -2.5064 -2.4954 0.9313
-17.3296 -3.1266 -2.4951 0.9313
-15.7341 -7.8759 -2.4931 0.9314
-15.4417 -8.4318 -2.4929 0.9314
-14.7986 -9.5105 -2.4925 0.9314
-12.8711 -11.9834 -2.4917 0.9314
-12.4346 -12.4346 -2.4916 0.9314
-11.9824 -12.8701 -2.4915 0.9314
-11.5151 -13.2891 -2.4915 0.9314
-10.0279 -14.4429 -2.4913 0.9314
-8.9718 -15.1212 -2.4912 0.9314
-8.4264 -15.4318 -2.4912 0.9314
-7.8702 -15.7227 -2.4913 0.9314
-7.3041 -15.9938 -2.4913 0.9314
-4.0843 -16.0021 -2.3400 0.9355
-2.9326 -16.2541 -2.3402 0.9355
-1.7657 -16.4237 -2.3405 0.9354
-1.0844 -15.1619 -2.1538 0.9404
0.5256 -14.7155 -2.0864 0.9422
1.0045 -14.0441 -1.9950 0.9447
2.3520 -16.3588 -2.3417 0.9354
2.9347 -16.2660 -2.3419 0.9354
3.5137 -16.1524 -2.3422 0.9354
4.0884 -16.0184 -2.3424 0.9354
4.6581 -15.8639 -2.3426 0.9354
5.7792 -15.4946 -2.3432 0.9354
6.3293 -15.2802 -2.3434 0.9354
6.8715 -15.0464 -2.3437 0.9354
7.4050 -14.7933 -2.3440 0.9354
7.9293 -14.5215 -2.3443 0.9353
8.4437 -14.2310 -2.3446 0.9353
7.0549 -10.9777 -1.8489 0.9486
8.2749 -10.2686 -1.8686 0.9481
10.0821 -10.0821 -2.0202 0.9440
10.5777 -9.8482 -2.0478 0.9433
12.5215 -10.8499 -2.3475 0.9353
12.9026 -10.3976 -2.3479 0.9352
13.2675 -9.9319 -2.3482 0.9352
13.6156 -9.4535 -2.3486 0.9352
13.9464 -8.9628 -2.3489 0.9352
14.8313 -7.4240 -2.3500 0.9352
16.3473 -5.4409 -2.4412 0.9328
16.9226 -4.9689 -2.4990 0.9312
17.1267 -4.3713 -2.5045 0.9311
17.2743 -3.7578 -2.5048 0.9311
17.5034 -2.5166 -2.5055 0.9311
17.5845 -1.8905 -2.5059 0.9310
17.6794 -0.6314 -2.5066 0.9310
-15.1351 -0.0000 -2.4933 0.9405
-15.1173 -1.0812 -2.4968 0.9404
-14.9985 -2.1565 -2.4963 0.9404
-14.9105 -2.6902 -2.4960 0.9404
-14.8035 -3.2203 -2.4958 0.9404
-14.6777 -3.7463 -2.4955 0.9404
-14.3705 -4.7830 -2.4951 0.9404
-14.1894 -5.2924 -2.4949 0.9405
-13.7735 -6.2902 -2.4945 0.9405
-13.5392 -6.7773 -2.4943 0.9405
-13.2878 -7.2557 -2.4941 0.9405
-13.0194 -7.7248 -2.4939 0.9405
-12.7346 -8.1841 -2.4938 0.9405
-11.7849 -9.4969 -2.4934 0.9405
-11.4379 -9.9110 -2.4932 0.9405
-11.0764 -10.3125 -2.4931 0.9405
-10.7009 -10.7009 -2.4931 0.9405
-10.3118 -11.0756 -2.4930 0.9405
-8.1806 -12.7293 -2.4927 0.9405
-6.7730 -13.5308 -2.4927 0.9405
-6.2858 -13.7640 -2.4927 0.9405
-4.7787 -14.3579 -2.4929 0.9405
-4.2634 -14.5197 -2.4929 0.9405
-3.7425 -14.6630 -2.4930 0.9405
-2.6838 -14.8754 -2.4901 0.9406
-2.1422 -14.8997 -2.4798 0.9408
-1.5718 -14.6195 -2.4223 0.9421
-1.0264 -14.3511 -2.3702 0.9433
-0.5074 -14.2073 -2.3420 0.9440
0.0000 -14.2172 -2.3421 0.9440
2.0239 -14.0765 -2.3428 0.9440
3.5179 -13.7830 -2.3434 0.9440
4.0080 -13.6499 -2.3436 0.9440
4.4930 -13.4994 -2.3438 0.9440
4.9725 -13.3317 -2.3440 0.9439
5.4457 -13.1471 -2.3443 0.9439
6.3710 -12.7277 -2.3448 0.9439
7.0387 -10.9525 -2.1448 0.9486
7.8469 -10.4823 -2.1571 0.9483
9.0534 -10.4481 -2.2775 0.9455
9.5218 -10.2272 -2.3020 0.9449
10.0011 -10.0011 -2.3300 0.9443
10.4295 -9.7102 -2.3475 0.9439
11.0984 -8.9437 -2.3481 0.9439
11.4120 -8.5429 -2.3484 0.9438
14.0361 -5.8139 -2.5028 0.9403
14.4188 -4.7990 -2.5035 0.9403
14.5827 -4.2819 -2.5038 0.9402
14.7281 -3.7591 -2.5041 0.9402
14.8548 -3.2314 -2.5044 0.9402
15.1708 -1.0850 -2.5056 0.9402
-13.2894 0.0000 -2.4979 0.9473
-13.2529 -0.9479 -2.4974 0.9474
-13.1491 -1.8906 -2.4969 0.9474
-13.0721 -2.3585 -2.4967 0.9474
-12.5993 -4.1934 -2.4959 0.9474
-11.8709 -5.9421 -2.4952 0.9474
-11.6505 -6.3617 -2.4950 0.9474
-11.1657 -7.1758 -2.4948 0.9474
-10.3332 -8.3270 -2.4944 0.9474
-10.0290 -8.6902 -2.4943 0.9474
-9.3829 -9.3829 -2.4941 0.9474
-9.0417 -9.7115 -2.4941 0.9474
-8.6891 -10.0278 -2.4940 0.9474
-8.3255 -10.3313 -2.4939 0.9474
-7.9513 -10.6217 -2.4939 0.9474
-6.7702 -11.4105 -2.4938 0.9474
-5.9389 -11.8644 -2.4938 0.9474
-5.5117 -12.0689 -2.4938 0.9474
-5.0775 -12.2581 -2.4939 0.9474
-4.1902 -12.5895 -2.4940 0.9474
-3.7383 -12.7314 -2.4940 0.9474
-3.2816 -12.8570 -2.4941 0.9474
-2.3561 -13.0592 -2.4943 0.9474
-1.8886 -13.1355 -2.4944 0.9474
-1.4186 -13.1951 -2.4945 0.9474
-0.9468 -13.2379 -2.4946 0.9474
-0.4737 -13.2640 -2.4947 0.9474
0.9447 -13.2092 -2.4892 0.9475
2.2819 -12.6478 -2.4157 0.9490
3.5298 -12.0215 -2.3550 0.9503
4.3594 -11.6880 -2.3447 0.9505
4.7742 -11.5260 -2.3449 0.9505
5.9806 -10.9526 -2.3456 0.9505
6.3741 -10.7429 -2.3479 0.9504
7.4873 -10.0019 -2.3484 0.9504
7.8880 -9.7884 -2.3629 0.9501
9.5684 -8.9085 -2.4573 0.9482
10.0113 -8.6749 -2.4899 0.9475
10.3376 -8.3306 -2.4955 0.9474
10.6429 -7.9672 -2.4989 0.9473
10.9297 -7.5886 -2.5010 0.9473
12.1103 -5.5306 -2.5024 0.9473
12.3014 -5.0954 -2.5027 0.9472
12.4768 -4.6536 -2.5030 0.9472
12.7798 -3.7525 -2.5035 0.9472
13.0178 -2.8319 -2.5041 0.9472
13.2940 -0.9508 -2.5051 0.9472
13.3208 -0.4758 -2.5054 0.9472
-11.8190 0.0000 -2.4983 0.9528
-11.8105 -0.4218 -2.4981 0.9528
-11.7869 -0.8430 -2.4979 0.9528
-11.7483 -1.2631 -2.4977 0.9528
-11.6948 -1.6815 -2.4975 0.9528
-11.6264 -2.0976 -2.4973 0.9528
-11.5432 -2.5111 -2.4971 0.9529
-11.4454 -2.9213 -2.4969 0.9529
-11.3330 -3.3277 -2.4967 0.9529
-10.9102 -4.5192 -2.4962 0.9529
-10.1537 -6.0245 -2.4956 0.9529
-9.4503 -7.0744 -2.4953 0.9529
-8.9208 -7.7299 -2.4951 0.9529
-8.6390 -8.0432 -2.4950 0.9529
-8.3461 -8.3461 -2.4950 0.9529
-7.4057 -9.1899 -2.4948 0.9529
-7.0728 -9.4482 -2.4948 0.9529
-6.7310 -9.6945 -2.4947 0.9529
-6.0222 -10.1499 -2.4947 0.9529
-4.9028 -10.7355 -2.4947 0.9529
-4.5165 -10.9038 -2.4947 0.9529
-2.5090 -11.5337 -2.4950 0.9529
-0.8422 -11.7750 -2.4954 0.9529
0.8423 -11.7773 -2.4959 0.9529
1.2622 -11.7404 -2.4960 0.9529
1.6806 -11.6886 -2.4961 0.9529
2.0968 -11.6219 -2.4963 0.9529
2.5105 -11.5404 -2.4965 0.9529
2.9210 -11.4442 -2.4966 0.9529
3.3278 -11.3335 -2.4968 0.9529
3.7305 -11.2083 -2.4970 0.9529
4.1285 -11.0689 -2.4972 0.9528
5.2893 -10.5667 -2.4978 0.9528
5.6636 -10.3720 -2.4980 0.9528
6.7416 -9.7097 -2.4987 0.9528
7.7431 -8.9360 -2.4993 0.9528
8.0578 -8.6547 -2.4996 0.9528
8.3624 -8.3624 -2.4998 0.9528
9.2111 -7.4228 -2.5006 0.9528
9.7191 -6.7481 -2.5011 0.9528
9.9548 -6.3975 -2.5013 0.9528
10.5848 -5.2984 -2.5021 0.9528
10.9380 -4.5307 -2.5026 0.9527
11.0939 -4.1378 -2.5028 0.9527
11.6580 -2.1033 -2.5041 0.9527
11.7806 -1.2665 -2.5045 0.9527
11.8431 -0.4230 -2.5050 0.9527
-10.5682 -1.1362 -2.4981 0.9573
-10.5201 -1.5126 -2.4979 0.9573
-10.2960 -2.6279 -2.4974 0.9573
-10.0810 -3.3553 -2.4971 0.9573
-9.9543 -3.7127 -2.4969 0.9573
-9.8148 -4.0654 -2.4968 0.9573
-9.4988 -4.7548 -2.4965 0.9573
-9.1345 -5.4198 -2.4963 0.9573
-8.9349 -5.7421 -2.4962 0.9573
-8.5018 -6.3644 -2.4960 0.9573
-7.5086 -7.5086 -2.4956 0.9573
-6.9535 -8.0248 -2.4955 0.9573
-6.6625 -8.2677 -2.4955 0.9573
-5.4179 -9.1314 -2.4954 0.9573
-4.7527 -9.4947 -2.4954 0.9573
-4.4108 -9.6583 -2.4954 0.9573
-4.0633 -9.8097 -2.4955 0.9573
-3.3532 -10.0748 -2.4955 0.9573
-2.9915 -10.1883 -2.4956 0.9573
-2.2572 -10.3762 -2.4957 0.9573
-1.8855 -10.4505 -2.4958 0.9573
-1.1352 -10.5590 -2.4959 0.9573
-0.7576 -10.5932 -2.4960 0.9573
-0.3791 -10.6139 -2.4961 0.9573
0.0000 -10.6211 -2.4962 0.9573
0.3791 -10.6148 -2.4963 0.9573
0.7578 -10.5951 -2.4964 0.9573
2.2584 -10.3817 -2.4970 0.9573
2.9936 -10.1954 -2.4973 0.9573
3.3558 -10.0827 -2.4975 0.9573
3.7138 -9.9572 -2.4976 0.9573
4.0672 -9.8190 -2.4978 0.9573
4.7580 -9.5052 -2.4982 0.9573
5.4248 -9.1429 -2.4986 0.9573
6.9648 -8.0378 -2.4996 0.9572
7.2479 -7.7847 -2.4998 0.9572
7.5217 -7.5217 -2.5000 0.9572
8.2849 -6.6764 -2.5007 0.9572
8.5187 -6.3770 -2.5009 0.9572
8.9535 -5.7541 -2.5014 0.9572
9.3429 -5.1016 -2.5018 0.9572
9.6848 -4.4229 -2.5023 0.9572
9.8374 -4.0748 -2.5025 0.9572
10.1048 -3.3632 -2.5029 0.9572
10.2193 -3.0007 -2.5032 0.9572
10.4092 -2.2644 -2.5036 0.9572
10.4842 -1.8916 -2.5038 0.9572
10.6291 -0.7602 -2.5045 0.9572
10.6503 -0.3804 -2.5047 0.9572
-9.6255 -0.6884 -2.4986 0.9609
-9.4271 -2.0507 -2.4979 0.9609
-9.2557 -2.7177 -2.4976 0.9609
-9.0372 -3.3707 -2.4974 0.9609
-8.9107 -3.6909 -2.4972 0.9609
-8.7728 -4.0064 -2.4971 0.9609
-8.4639 -4.6217 -2.4969 0.9609
-8.2932 -4.9206 -2.4968 0.9609
-8.1120 -5.2132 -2.4967 0.9609
-7.9204 -5.4992 -2.4966 0.9609
-7.7188 -5.7782 -2.4965 0.9609
-7.0563 -6.5697 -2.4963 0.9609
-6.8172 -6.8172 -2.4962 0.9609
-6.3132 -7.2858 -2.4961 0.9609
-6.0491 -7.5064 -2.4961 0.9609
-4.3151 -8.6204 -2.4960 0.9610
-3.6892 -8.9064 -2.4960 0.9610
-3.3689 -9.0325 -2.4961 0.9609
-2.7161 -9.2501 -2.4961 0.9609
-1.7118 -9.4881 -2.4963 0.9609
-1.3721 -9.5434 -2.4964 0.9609
-1.0307 -9.5866 -2.4965 0.9609
-0.3442 -9.6364 -2.4966 0.9609
0.0000 -9.6429 -2.4967 0.9609
1.7125 -9.4919 -2.4973 0.9609
2.3856 -9.3466 -2.4976 0.9609
2.7178 -9.2560 -2.4977 0.9609
4.0084 -8.7772 -2.4983 0.9609
4.9247 -8.3001 -2.4989 0.9609
5.7850 -7.7278 -2.4994 0.9609
6.0576 -7.5170 -2.4996 0.9609
6.3225 -7.2966 -2.4998 0.9609
7.5206 -6.0605 -2.5008 0.9609
7.9351 -5.5094 -2.5012 0.9609
8.1273 -5.2231 -2.5014 0.9609
8.3093 -4.9301 -2.5016 0.9609
8.4806 -4.6308 -2.5018 0.9609
8.6412 -4.3255 -2.5020 0.9609
8.7908 -4.0146 -2.5022 0.9609
9.0563 -3.3778 -2.5026 0.9608
9.1718 -3.0527 -2.5028 0.9608
9.4479 -2.0553 -2.5034 0.9608
9.6664 -0.3452 -2.5044 0.9608
-8.8219 -0.3151 -2.4990 0.9640
-8.8045 -0.6297 -2.4989 0.9640
-8.7759 -0.9435 -2.4987 0.9640
-8.7361 -1.2561 -2.4985 0.9640
-8.6232 -1.8759 -2.4983 0.9640
-8.4665 -2.4860 -2.4980 0.9640
-8.3719 -2.7864 -2.4979 0.9640
-8.1510 -3.3763 -2.4976 0.9640
-7.8887 -3.9488 -2.4974 0.9640
-7.7424 -4.2277 -2.4973 0.9640
-7.5863 -4.5011 -2.4972 0.9640
-7.2453 -5.0305 -2.4970 0.9640
-6.6655 -5.7757 -2.4968 0.9640
-6.4549 -6.0098 -2.4967 0.9640
-6.0095 -6.4547 -2.4966 0.9640
-4.7677 -7.4187 -2.4965 0.9640
-4.2263 -7.7399 -2.4965 0.9640
-3.9474 -7.8858 -2.4965 0.9640
-3.6634 -8.0217 -2.4965 0.9640
-2.7850 -8.3676 -2.4966 0.9640
-2.4846 -8.4618 -2.4966 0.9640
-2.1810 -8.5453 -2.4967 0.9640
-1.8747 -8.6179 -2.4967 0.9640
-1.5659 -8.6795 -2.4968 0.9640
-1.2552 -8.7301 -2.4968 0.9640
-0.9428 -8.7695 -2.4969 0.9640
-0.3148 -8.8150 -2.4971 0.9640
0.3149 -8.8157 -2.4972 0.9640
1.2556 -8.7326 -2.4976 0.9640
1.8755 -8.6216 -2.4978 0.9640
2.1822 -8.5496 -2.4979 0.9640
2.4861 -8.4667 -2.4981 0.9640
3.3774 -8.1539 -2.4985 0.9640
3.9510 -7.8931 -2.4988 0.9640
4.2305 -7.7475 -2.4989 0.9640
4.7730 -7.4270 -2.4993 0.9640
5.0354 -7.2523 -2.4994 0.9640
5.2914 -7.0685 -2.4996 0.9640
5.7830 -6.6739 -2.5000 0.9640
6.0179 -6.4637 -2.5001 0.9640
6.4647 -6.0188 -2.5005 0.9639
6.8786 -5.5431 -2.5009 0.9639
7.0726 -5.2945 -2.5011 0.9639
7.2576 -5.0390 -2.5012 0.9639
7.4334 -4.7771 -2.5014 0.9639
7.9032 -3.9561 -2.5020 0.9639
8.1665 -3.3827 -2.5024 0.9639
8.3883 -2.7919 -2.5027 0.9639
8.5673 -2.1867 -2.5031 0.9639
8.7938 -0.9454 -2.5038 0.9639
-8.1260 0.0000 -2.4994 0.9666
-8.1203 -0.2900 -2.4992 0.9666
-8.1043 -0.5796 -2.4991 0.9666
-7.9946 -1.4424 -2.4987 0.9666
-7.8705 -2.0088 -2.4984 0.9666
-7.7934 -2.2883 -2.4983 0.9666
-7.7064 -2.5649 -2.4982 0.9666
-7.6096 -2.8382 -2.4981 0.9666
-7.3871 -3.3736 -2.4978 0.9666
-7.2617 -3.6349 -2.4977 0.9666
-6.6695 -4.6308 -2.4974 0.9666
-6.3218 -5.0945 -2.4973 0.9666
-6.1358 -5.3167 -2.4972 0.9666
-5.9420 -5.5322 -2.4971 0.9666
-5.7407 -5.7407 -2.4971 0.9666
-5.0939 -6.3211 -2.4970 0.9666
-4.3889 -6.8293 -2.4969 0.9666
-3.6337 -7.2593 -2.4969 0.9666
-3.1066 -7.5001 -2.4969 0.9666
-2.8370 -7.6063 -2.4970 0.9666
-2.0077 -7.8663 -2.4971 0.9666
-1.7257 -7.9331 -2.4971 0.9666
-0.2898 -8.1145 -2.4974 0.9666
0.2898 -8.1150 -2.4976 0.9666
0.5793 -8.0998 -2.4977 0.9666
0.8681 -8.0743 -2.4978 0.9666
1.1558 -8.0385 -2.4979 0.9666
1.7264 -7.9363 -2.4981 0.9666
2.5653 -7.7074 -2.4985 0.9666
3.1089 -7.5055 -2.4987 0.9666
3.3750 -7.3902 -2.4989 0.9666
3.8940 -7.1314 -2.4992 0.9666
4.1463 -6.9883 -2.4993 0.9666
4.3934 -6.8363 -2.4995 0.9666
4.8705 -6.5062 -2.4998 0.9666
5.3229 -6.1430 -2.5001 0.9666
5.7484 -5.7483 -2.5004 0.9666
5.9503 -5.5399 -2.5006 0.9665
6.5097 -4.8731 -2.5011 0.9665
6.8417 -4.3969 -2.5015 0.9665
7.1389 -3.8981 -2.5018 0.9665
7.3998 -3.3794 -2.5021 0.9665
7.7203 -2.5696 -2.5027 0.9665
7.8850 -2.0125 -2.5030 0.9665
8.0095 -1.4451 -2.5033 0.9665
8.0565 -1.1583 -2.5035 0.9665
-7.5196 0.0000 -2.4996 0.9688
-7.4996 -0.5364 -2.4993 0.9688
-7.4753 -0.8037 -2.4992 0.9688
-7.4415 -1.0699 -2.4990 0.9688
-7.2834 -1.8590 -2.4987 0.9688
-7.2121 -2.1177 -2.4985 0.9688
-7.1316 -2.3736 -2.4984 0.9688
-7.0420 -2.6265 -2.4983 0.9688
-6.5955 -3.6015 -2.4979 0.9688
-6.4626 -3.8344 -2.4979 0.9688
-6.3214 -4.0625 -2.4978 0.9688
-6.1722 -4.2854 -2.4977 0.9688
-5.8505 -4.7146 -2.4976 0.9688
-5.6783 -4.9203 -2.4975 0.9688
-5.4990 -5.1197 -2.4975 0.9688
-5.3126 -5.3126 -2.4974 0.9688
-5.1195 -5.4988 -2.4974 0.9688
-4.9200 -5.6779 -2.4974 0.9688
-4.7141 -5.8498 -2.4973 0.9688
-4.5023 -6.0143 -2.4973 0.9688
-4.2847 -6.1711 -2.4973 0.9688
-4.0617 -6.3201 -2.4973 0.9688
-3.3628 -6.7181 -2.4973 0.9688
-3.1209 -6.8338 -2.4973 0.9688
-2.3726 -7.1285 -2.4973 0.9688
-2.1167 -7.2087 -2.4974 0.9688
-0.8032 -7.4707 -2.4976 0.9688
-0.2682 -7.5094 -2.4978 0.9688
0.0000 -7.5144 -2.4978 0.9688
0.2682 -7.5099 -2.4979 0.9688
0.5361 -7.4958 -2.4980 0.9688
1.5977 -7.3443 -2.4984 0.9688
1.8589 -7.2829 -2.4985 0.9688
2.1177 -7.2123 -2.4986 0.9688
2.3739 -7.1324 -2.4987 0.9688
2.6271 -7.0435 -2.4988 0.9688
2.8770 -6.9456 -2.4990 0.9688
3.3655 -6.7233 -2.4992 0.9688
3.6035 -6.5993 -2.4994 0.9688
3.8369 -6.4668 -2.4995 0.9688
4.7193 -5.8563 -2.5001 0.9688
5.1257 -5.5054 -2.5004 0.9688
5.3192 -5.3192 -2.5005 0.9688
5.8584 -4.7210 -2.5010 0.9688
6.0236 -4.5092 -2.5012 0.9688
6.1811 -4.2916 -2.5013 0.9688
6.3307 -4.0685 -2.5015 0.9688
6.4723 -3.8402 -2.5016 0.9688
6.6057 -3.6070 -2.5018 0.9688
6.7307 -3.3691 -2.5020 0.9688
6.9548 -2.8808 -2.5023 0.9688
7.0536 -2.6308 -2.5024 0.9688
7.2242 -2.1212 -2.5028 0.9688
7.2958 -1.8621 -2.5029 0.9688
7.3581 -1.6006 -2.5031 0.9688
7.4544 -1.0718 -2.5034 0.9688
-6.9901 0.0000 -2.4997 0.9707
-6.9853 -0.2495 -2.4996 0.9707
-6.9490 -0.7471 -2.4993 0.9707
-6.9176 -0.9946 -2.4992 0.9707
-6.8773 -1.2408 -2.4991 0.9707
-6.6296 -2.2065 -2.4987 0.9708
-6.4548 -2.6737 -2.4985 0.9708
-6.3550 -2.9023 -2.4984 0.9708
-6.2472 -3.1271 -2.4983 0.9708
-6.0078 -3.5646 -2.4981 0.9708
-5.7379 -3.9839 -2.4980 0.9708
-5.5919 -4.1860 -2.4979 0.9708
-5.4388 -4.3829 -2.4979 0.9708
-5.2788 -4.5741 -2.4978 0.9708
-5.1121 -4.7595 -2.4978 0.9708
-4.9388 -4.9388 -2.4977 0.9708
-4.7593 -5.1119 -2.4977 0.9708
-3.5638 -6.0065 -2.4976 0.9708
-3.1262 -6.2454 -2.4976 0.9708
-2.9013 -6.3530 -2.4976 0.9708
-2.6727 -6.4526 -2.4976 0.9708
-2.4407 -6.5439 -2.4976 0.9708
-2.2056 -6.6269 -2.4977 0.9708
-1.9677 -6.7015 -2.4977 0.9708
-1.7273 -6.7676 -2.4977 0.9708
-1.4847 -6.8250 -2.4978 0.9708
-1.2402 -6.8738 -2.4978 0.9708
-0.9941 -6.9138 -2.4979 0.9708
-0.4983 -6.9674 -2.4980 0.9708
1.4852 -6.8274 -2.4986 0.9708
1.7280 -6.7703 -2.4987 0.9708
1.9686 -6.7046 -2.4988 0.9708
2.2068 -6.6303 -2.4989 0.9708
2.4421 -6.5476 -2.4990 0.9707
3.1285 -6.2500 -2.4994 0.9707
3.3498 -6.1346 -2.4995 0.9707
4.1896 -5.5966 -2.5001 0.9707
4.7646 -5.1176 -2.5005 0.9707
5.2853 -4.5797 -2.5009 0.9707
5.4457 -4.3884 -2.5010 0.9707
5.5992 -4.1915 -2.5012 0.9707
5.7456 -3.9892 -2.5013 0.9707
5.8846 -3.7818 -2.5015 0.9707
6.1402 -3.3528 -2.5018 0.9707
6.6399 -2.2100 -2.5025 0.9707
6.7149 -1.9717 -2.5027 0.9707
6.8393 -1.4878 -2.5030 0.9707
6.8884 -1.2428 -2.5031 0.9707
6.9603 -0.7483 -2.5034 0.9707
6.9829 -0.4994 -2.5035 0.9707
-6.5233 0.0000 -2.4998 0.9724
-6.4850 -0.6972 -2.4995 0.9724
-6.4557 -0.9282 -2.4994 0.9724
-6.3725 -1.3863 -2.4992 0.9725
-6.3187 -1.6127 -2.4991 0.9725
-6.2569 -1.8372 -2.4990 0.9725
-6.1871 -2.0592 -2.4989 0.9725
-6.0240 -2.4952 -2.4987 0.9725
-5.9309 -2.7085 -2.4986 0.9725
-5.4844 -3.5246 -2.4983 0.9725
-5.3550 -3.7180 -2.4983 0.9725
-5.2187 -3.9067 -2.4982 0.9725
-4.9265 -4.2688 -2.4981 0.9725
-4.4418 -4.7708 -2.4980 0.9725
-4.2686 -4.9262 -2.4979 0.9725
-4.0900 -5.0754 -2.4979 0.9725
-3.9062 -5.2181 -2.4979 0.9725
-3.5240 -5.4834 -2.4979 0.9725
-3.3260 -5.6057 -2.4979 0.9725
-2.9176 -5.8287 -2.4979 0.9725
-2.7077 -5.9291 -2.4979 0.9725
-1.8364 -6.2543 -2.4980 0.9725
-1.3856 -6.3696 -2.4980 0.9725
-1.1574 -6.4151 -2.4981 0.9725
-0.4651 -6.5025 -2.4982 0.9725
-0.2327 -6.5151 -2.4983 0.9725
0.4651 -6.5032 -2.4985 0.9725
0.6970 -6.4826 -2.4986 0.9725
0.9279 -6.4538 -2.4987 0.9725
1.8372 -6.2570 -2.4990 0.9725
2.7094 -5.9328 -2.4994 0.9724
2.9196 -5.8326 -2.4996 0.9724
3.3286 -5.6100 -2.4998 0.9724
3.9098 -5.2228 -2.5002 0.9724
4.2728 -4.9311 -2.5004 0.9724
4.7762 -4.4468 -2.5008 0.9724
5.0819 -4.0952 -2.5011 0.9724
5.3616 -3.7227 -2.5014 0.9724
5.4914 -3.5291 -2.5015 0.9724
5.8382 -2.9224 -2.5019 0.9724
6.0324 -2.4987 -2.5022 0.9724
6.1181 -2.2819 -2.5023 0.9724
6.1960 -2.0622 -2.5025 0.9724
6.3280 -1.6151 -2.5028 0.9724
6.3820 -1.3883 -2.5029 0.9724
6.4654 -0.9296 -2.5032 0.9724
6.5288 -0.2332 -2.5035 0.9724
-6.1083 0.0000 -2.5000 0.9739
-6.0725 -0.6529 -2.4996 0.9739
-6.0451 -0.8691 -2.4995 0.9739
-5.9672 -1.2981 -2.4993 0.9740
-5.9168 -1.5102 -2.4992 0.9740
-5.6409 -2.3365 -2.4989 0.9740
-5.5537 -2.5363 -2.4988 0.9740
-5.4595 -2.7328 -2.4987 0.9740
-5.3583 -2.9259 -2.4987 0.9740
-5.2503 -3.1152 -2.4986 0.9740
-5.0145 -3.4816 -2.4985 0.9740
-4.1594 -4.4675 -2.4982 0.9740
-3.9972 -4.6130 -2.4982 0.9740
-3.6579 -4.8863 -2.4981 0.9740
-3.2999 -5.1348 -2.4981 0.9740
-2.9252 -5.3571 -2.4981 0.9740
-2.5356 -5.5522 -2.4981 0.9740
-2.3358 -5.6392 -2.4981 0.9740
-1.7197 -5.8567 -2.4982 0.9740
-0.6525 -6.0695 -2.4984 0.9740
-0.2179 -6.1008 -2.4985 0.9740
0.0000 -6.1049 -2.4986 0.9740
0.2179 -6.1011 -2.4986 0.9740
0.8689 -6.0434 -2.4989 0.9740
1.0841 -6.0087 -2.4989 0.9740
1.9285 -5.7941 -2.4993 0.9740
2.1341 -5.7218 -2.4994 0.9740
2.3371 -5.6422 -2.4995 0.9740
2.7339 -5.4616 -2.4997 0.9739
2.9272 -5.3608 -2.4998 0.9739
3.3025 -5.1388 -2.5000 0.9739
3.6610 -4.8905 -2.5003 0.9739
4.0009 -4.6173 -2.5005 0.9739
4.1634 -4.4718 -2.5006 0.9739
4.3206 -4.3206 -2.5008 0.9739
4.6183 -4.0017 -2.5010 0.9739
4.8925 -3.6625 -2.5013 0.9739
5.1418 -3.3044 -2.5015 0.9739
5.2568 -3.1190 -2.5017 0.9739
5.4664 -2.7363 -2.5019 0.9739
5.5609 -2.5396 -2.5020 0.9739
5.6483 -2.3396 -2.5022 0.9739
5.8014 -1.9309 -2.5024 0.9739
6.0184 -1.0858 -2.5029 0.9739
6.0536 -0.8704 -2.5031 0.9739
-5.7326 -0.2047 -2.5000 0.9753
-5.7030 -0.6131 -2.4998 0.9753
-5.6772 -0.8163 -2.4997 0.9753
-5.6442 -1.0183 -2.4996 0.9753
-5.6041 -1.2191 -2.4995 0.9753
-5.5025 -1.6157 -2.4993 0.9753
-5.4411 -1.8110 -2.4992 0.9753
-5.3728 -2.0040 -2.4991 0.9753
-5.2159 -2.3820 -2.4990 0.9753
-5.1274 -2.5666 -2.4989 0.9753
-4.7095 -3.2698 -2.4987 0.9753
-4.5897 -3.4358 -2.4986 0.9753
-4.4640 -3.5973 -2.4986 0.9753
-4.3327 -3.7543 -2.4985 0.9753
-3.5970 -4.4637 -2.4984 0.9753
-3.2694 -4.7088 -2.4983 0.9753
-3.0993 -4.8225 -2.4983 0.9753
-2.7473 -5.0313 -2.4983 0.9753
-2.5660 -5.1262 -2.4983 0.9753
-2.3814 -5.2145 -2.4983 0.9753
-2.1938 -5.2962 -2.4983 0.9753
-1.8104 -5.4393 -2.4984 0.9753
-1.4178 -5.5547 -2.4984 0.9753
-1.0179 -5.6419 -2.4985 0.9753
-0.2046 -5.7297 -2.4987 0.9753
0.0000 -5.7335 -2.4988 0.9753
0.2047 -5.7300 -2.4988 0.9753
0.8161 -5.6758 -2.4990 0.9753
1.0181 -5.6432 -2.4991 0.9753
1.2190 -5.6034 -2.4992 0.9753
1.4182 -5.5565 -2.4993 0.9753
3.1015 -4.8260 -2.5001 0.9753
3.2719 -4.7124 -2.5002 0.9753
3.4382 -4.5928 -2.5004 0.9753
4.3371 -3.7581 -2.5011 0.9753
4.7146 -3.2734 -2.5014 0.9753
4.8287 -3.1032 -2.5015 0.9753
4.9366 -2.9290 -2.5017 0.9753
5.2222 -2.3849 -2.5020 0.9753
5.3043 -2.1971 -2.5022 0.9753
5.3796 -2.0065 -2.5023 0.9753
5.5095 -1.6177 -2.5025 0.9753
5.5640 -1.4201 -2.5026 0.9753
5.6114 -1.2207 -2.5028 0.9753
5.7291 -0.4098 -2.5032 0.9752
5.7403 -0.2050 -2.5033 0.9752
-5.3871 -0.3853 -2.5000 0.9765
-5.3697 -0.5773 -2.4999 0.9765
-5.2767 -1.1479 -2.4996 0.9765
-4.9882 -2.0662 -2.4992 0.9765
-4.8279 -2.4167 -2.4991 0.9765
-4.4344 -3.0788 -2.4989 0.9765
-4.3216 -3.2351 -2.4988 0.9765
-4.0796 -3.5350 -2.4987 0.9765
-3.8170 -3.8170 -2.4986 0.9765
-3.5349 -4.0794 -2.4986 0.9765
-3.3870 -4.2030 -2.4986 0.9765
-3.0785 -4.4338 -2.4985 0.9765
-2.2423 -4.9100 -2.4985 0.9765
-1.8863 -5.0575 -2.4986 0.9765
-1.5208 -5.1793 -2.4986 0.9765
-1.3349 -5.2303 -2.4986 0.9765
-0.9584 -5.3123 -2.4987 0.9765
-0.7682 -5.3432 -2.4987 0.9765
-0.1927 -5.3951 -2.4989 0.9765
0.3852 -5.3851 -2.4991 0.9765
0.5771 -5.3681 -2.4991 0.9765
0.7684 -5.3442 -2.4992 0.9765
1.7053 -5.1237 -2.4996 0.9765
1.8872 -5.0597 -2.4997 0.9765
2.2435 -4.9125 -2.4998 0.9765
2.4175 -4.8295 -2.4999 0.9765
2.5884 -4.7403 -2.5000 0.9765
2.7561 -4.6451 -2.5001 0.9765
2.9202 -4.5440 -2.5002 0.9765
3.0807 -4.4370 -2.5003 0.9765
3.2372 -4.3244 -2.5004 0.9765
3.5378 -4.0828 -2.5007 0.9765
3.8204 -3.8204 -2.5009 0.9765
4.0835 -3.5384 -2.5011 0.9765
4.4390 -3.0820 -2.5014 0.9765
4.6480 -2.7578 -2.5017 0.9765
4.8333 -2.4194 -2.5019 0.9765
5.0649 -1.8891 -2.5022 0.9765
5.1294 -1.7072 -2.5024 0.9765
5.2832 -1.1493 -2.5027 0.9765
5.3211 -0.9600 -2.5028 0.9764
5.3522 -0.7695 -2.5029 0.9764
-5.0971 0.0000 -2.5003 0.9775
-5.0937 -0.1819 -2.5002 0.9775
-5.0674 -0.5448 -2.5000 0.9775
-5.0445 -0.7253 -2.4999 0.9775
-5.0152 -0.9048 -2.4998 0.9776
-4.9796 -1.0832 -2.4997 0.9776
-4.9376 -1.2602 -2.4997 0.9776
-4.8348 -1.6092 -2.4995 0.9776
-4.7742 -1.7807 -2.4994 0.9776
-4.6347 -2.1166 -2.4993 0.9776
-4.0784 -3.0530 -2.4990 0.9776
-3.9667 -3.1966 -2.4989 0.9776
-3.8500 -3.3361 -2.4989 0.9776
-3.6021 -3.6021 -2.4988 0.9776
-3.3359 -3.8499 -2.4988 0.9776
-3.0527 -4.0780 -2.4987 0.9776
-2.5993 -4.3809 -2.4987 0.9776
-2.4413 -4.4709 -2.4987 0.9776
-2.2801 -4.5552 -2.4987 0.9776
-1.9494 -4.7062 -2.4987 0.9776
-1.4352 -4.8878 -2.4988 0.9776
-1.2598 -4.9359 -2.4988 0.9776
-1.0829 -4.9778 -2.4988 0.9776
-0.9045 -5.0134 -2.4989 0.9776
-0.7250 -5.0425 -2.4989 0.9776
-0.5446 -5.0653 -2.4990 0.9776
-0.1818 -5.0914 -2.4990 0.9776
0.0000 -5.0948 -2.4991 0.9776
0.1818 -5.0916 -2.4991 0.9776
0.3635 -5.0820 -2.4992 0.9776
0.9047 -5.0144 -2.4994 0.9776
1.2602 -4.9374 -2.4995 0.9776
2.4427 -4.4734 -2.5001 0.9775
2.6009 -4.3835 -2.5002 0.9775
2.7558 -4.2881 -2.5003 0.9775
2.9072 -4.1871 -2.5004 0.9775
3.1987 -3.9694 -2.5006 0.9775
3.3385 -3.8529 -2.5007 0.9775
3.4740 -3.7314 -2.5008 0.9775
4.1889 -2.9084 -2.5015 0.9775
4.2902 -2.7571 -2.5016 0.9775
4.3861 -2.6024 -2.5017 0.9775
4.5610 -2.2830 -2.5019 0.9775
4.6397 -2.1189 -2.5020 0.9775
4.7795 -1.7827 -2.5022 0.9775
4.8949 -1.4373 -2.5024 0.9775
4.9433 -1.2617 -2.5025 0.9775
4.9854 -1.0845 -2.5026 0.9775
5.0211 -0.9059 -2.5027 0.9775
5.0505 -0.7261 -2.5028 0.9775
-4.8164 -0.1720 -2.5003 0.9785
-4.7916 -0.5151 -2.5001 0.9785
-4.6689 -1.1917 -2.4998 0.9785
-4.4513 -1.8438 -2.4995 0.9785
-4.3825 -2.0014 -2.4994 0.9785
-4.3082 -2.1565 -2.4994 0.9785
-4.0527 -2.6045 -2.4992 0.9785
-3.9571 -2.7475 -2.4992 0.9785
-3.8565 -2.8869 -2.4991 0.9785
-3.7509 -3.0227 -2.4991 0.9785
-3.6406 -3.1546 -2.4990 0.9785
-3.2824 -3.5255 -2.4990 0.9785
-3.1544 -3.6404 -2.4989 0.9785
-2.6042 -4.0522 -2.4989 0.9785
-2.1561 -4.3073 -2.4989 0.9785
-2.0010 -4.3816 -2.4989 0.9785
-1.8433 -4.4502 -2.4989 0.9785
-1.6833 -4.5132 -2.4989 0.9785
-1.5212 -4.5704 -2.4989 0.9785
-1.1913 -4.6674 -2.4990 0.9785
-1.0239 -4.7070 -2.4990 0.9785
-0.8553 -4.7406 -2.4990 0.9785
-0.3437 -4.8051 -2.4991 0.9785
-0.1719 -4.8144 -2.4992 0.9785
0.1720 -4.8146 -2.4993 0.9785
0.5150 -4.7902 -2.4994 0.9785
0.6857 -4.7689 -2.4995 0.9785
1.0242 -4.7081 -2.4996 0.9785
1.1916 -4.6687 -2.4997 0.9785
2.1572 -4.3095 -2.5001 0.9785
2.3097 -4.2299 -2.5002 0.9785
2.4593 -4.1449 -2.5003 0.9785
2.7489 -3.9592 -2.5005 0.9785
3.1568 -3.6431 -2.5008 0.9785
3.2849 -3.5282 -2.5009 0.9785
3.7542 -3.0253 -2.5013 0.9785
3.8599 -2.8895 -2.5014 0.9785
4.0566 -2.6070 -2.5016 0.9785
4.2325 -2.3111 -2.5018 0.9785
4.3870 -2.0035 -2.5020 0.9785
4.4559 -1.8457 -2.5021 0.9785
4.5191 -1.6855 -2.5022 0.9785
4.6740 -1.1930 -2.5025 0.9785
4.7475 -0.8566 -2.5027 0.9785
4.7753 -0.6866 -2.5028 0.9785
4.7969 -0.5157 -2.5029 0.9785
4.8124 -0.3442 -2.5030 0.9785
-4.5533 -0.3257 -2.5003 0.9794
-4.5387 -0.4880 -2.5002 0.9794
-4.5182 -0.6496 -2.5001 0.9794
-4.4920 -0.8104 -2.5000 0.9794
-4.3793 -1.2859 -2.4998 0.9794
-4.3305 -1.4413 -2.4997 0.9794
-4.2164 -1.7465 -2.4996 0.9794
-4.0809 -2.0427 -2.4995 0.9794
-4.0053 -2.1871 -2.4994 0.9794
-3.9246 -2.3286 -2.4994 0.9794
-3.2265 -3.2265 -2.4991 0.9794
-3.1092 -3.3395 -2.4991 0.9794
-2.9880 -3.4484 -2.4991 0.9794
-2.8630 -3.5528 -2.4991 0.9794
-2.7344 -3.6527 -2.4990 0.9794
-2.6022 -3.7479 -2.4990 0.9794
-2.3282 -3.9240 -2.4990 0.9794
-2.1867 -4.0046 -2.4990 0.9794
-1.8954 -4.1504 -2.4990 0.9794
-0.9699 -4.4587 -2.4991 0.9794
-0.8102 -4.4905 -2.4992 0.9794
-0.6494 -4.5166 -2.4992 0.9794
-0.3255 -4.5516 -2.4993 0.9794
-0.1629 -4.5604 -2.4993 0.9794
0.1629 -4.5605 -2.4994 0.9794
1.1287 -4.4223 -2.4998 0.9794
1.2859 -4.3793 -2.4998 0.9794
1.4414 -4.3308 -2.4999 0.9794
1.7468 -4.2172 -2.5001 0.9794
1.8963 -4.1523 -2.5001 0.9794
2.0433 -4.0821 -2.5002 0.9794
2.1878 -4.0067 -2.5003 0.9794
2.4682 -3.8406 -2.5005 0.9794
2.7361 -3.6550 -2.5006 0.9794
3.2289 -3.2289 -2.5010 0.9794
3.5560 -2.8656 -2.5013 0.9794
3.7516 -2.6048 -2.5015 0.9794
3.9282 -2.3307 -2.5017 0.9794
4.0090 -2.1891 -2.5018 0.9794
4.1553 -1.8977 -2.5020 0.9794
4.2804 -1.5965 -2.5022 0.9794
4.3348 -1.4428 -2.5023 0.9794
4.3838 -1.2872 -2.5024 0.9794
4.4967 -0.8113 -2.5026 0.9794
4.5435 -0.4885 -2.5028 0.9794
4.5671 -0.1631 -2.5030 0.9794
-4.3310 0.0000 -2.5005 0.9802
-4.3281 -0.1546 -2.5004 0.9802
-4.3197 -0.3090 -2.5003 0.9802
-4.3058 -0.4629 -2.5003 0.9802
-4.2615 -0.7689 -2.5001 0.9802
-4.1956 -1.0709 -2.5000 0.9802
-3.9383 -1.7986 -2.4997 0.9802
-3.8715 -1.9379 -2.4996 0.9802
-3.6420 -2.3405 -2.4995 0.9802
-3.2716 -2.8349 -2.4993 0.9802
-3.1683 -2.9498 -2.4993 0.9802
-3.0610 -3.0610 -2.4993 0.9802
-2.7161 -3.3705 -2.4992 0.9802
-2.5941 -3.4653 -2.4992 0.9802
-2.2088 -3.7227 -2.4992 0.9802
-2.0745 -3.7992 -2.4992 0.9802
-1.9376 -3.8708 -2.4992 0.9802
-1.7982 -3.9375 -2.4992 0.9802
-1.5127 -4.0558 -2.4992 0.9802
-1.0705 -4.1944 -2.4993 0.9802
-0.9202 -4.2299 -2.4993 0.9802
-0.7686 -4.2601 -2.4993 0.9802
-0.6161 -4.2849 -2.4993 0.9802
-0.3088 -4.3181 -2.4994 0.9802
0.0000 -4.3292 -2.4995 0.9802
0.3089 -4.3184 -2.4996 0.9802
0.4628 -4.3047 -2.4996 0.9802
0.6162 -4.2855 -2.4997 0.9802
0.9204 -4.2309 -2.4998 0.9802
1.0708 -4.1954 -2.4999 0.9802
1.2199 -4.1546 -2.4999 0.9802
1.5133 -4.0572 -2.5001 0.9802
1.6572 -4.0008 -2.5001 0.9802
2.0755 -3.8010 -2.5004 0.9802
2.2099 -3.7246 -2.5005 0.9802
2.3415 -3.6435 -2.5005 0.9802
2.4702 -3.5577 -2.5006 0.9802
2.5957 -3.4674 -2.5007 0.9802
2.7179 -3.3727 -2.5008 0.9802
2.8366 -3.2736 -2.5009 0.9802
3.3734 -2.7185 -2.5013 0.9802
3.4684 -2.5964 -2.5014 0.9802
3.6451 -2.3425 -2.5016 0.9802
3.7265 -2.2110 -2.5017 0.9802
3.8032 -2.0767 -2.5018 0.9802
4.1122 -1.3687 -2.5022 0.9802
4.1586 -1.2211 -2.5023 0.9802
4.1997 -1.0719 -2.5024 0.9802
4.2657 -0.7696 -2.5026 0.9802
4.2906 -0.6169 -2.5027 0.9802
