ply
format ascii 1.0
element vertex 1276
property float32 x
property float32 y
property float32 z
property float32 I
end_header
-27.5192 -13.7751 5.4263 0.8825
-38.6641 -28.9435 8.5161 0.8219
-35.8914 -28.9231 8.1278 0.8293
-33.3576 -28.9045 7.7828 0.8359
-31.0271 -28.8873 7.4750 0.8418
-28.8714 -28.8714 7.1995 0.8472
-20.0002 -28.8058 6.1835 0.8672
-18.5053 -28.7947 6.0354 0.8702
-17.0784 -28.7841 5.9016 0.8729
-15.7118 -28.7740 5.7807 0.8753
-13.1904 -28.8830 5.5988 0.8790
-9.7076 -29.1667 5.4203 0.8826
-7.5452 -29.5617 5.3796 0.8835
-2.7967 -12.8563 2.3199 0.9480
-5.7650 -31.9534 5.7252 0.8764
-3.5498 -33.0181 5.8555 0.8738
-3.3526 -46.8753 8.2865 0.8262
16.3680 -13.1902 3.7066 0.9182
38.1729 -28.5759 8.4080 0.8239
-33.3592 -28.9059 6.7621 0.8364
-26.8676 -28.8579 6.0403 0.8525
-24.9935 -28.8440 5.8468 0.8569
-18.7835 -29.2278 5.3224 0.8688
-15.7124 -28.7751 5.0225 0.8758
-14.9307 -29.8277 5.1100 0.8737
-11.0474 -29.6193 4.8429 0.8799
-11.1913 -33.6246 5.4289 0.8664
-8.4313 -28.7144 4.5846 0.8859
-7.5453 -29.5621 4.6739 0.8839
-2.7972 -12.8587 2.0159 0.9481
-6.6335 -36.7670 5.7234 0.8597
-4.6912 -32.6279 5.0498 0.8751
-3.5499 -33.0191 5.0875 0.8743
-3.3524 -46.8730 7.1990 0.8268
35.0440 -32.6271 7.3351 0.8239
35.0269 -30.3510 7.1001 0.8290
-38.6683 -28.9467 6.2900 0.8230
-20.0018 -28.8081 4.5670 0.8681
-18.7834 -29.2276 4.5242 0.8692
-19.9929 -33.6962 5.1022 0.8538
-15.7130 -28.7761 4.2695 0.8761
-15.3746 -33.6657 4.8195 0.8613
-11.9051 -28.7415 4.0511 0.8821
-11.0473 -29.6190 4.1166 0.8803
-11.1956 -33.6373 4.6165 0.8668
-7.5454 -29.5625 3.9731 0.8842
-7.9322 -43.9650 5.8176 0.8351
-3.5500 -33.0201 4.3247 0.8746
1.7408 -48.7419 6.3513 0.8214
3.4851 -48.7287 6.3617 0.8211
8.7844 -48.6886 6.4426 0.8191
40.7167 -28.2701 6.4548 0.8188
-27.4110 -13.7210 3.2916 0.8840
-40.9989 -26.3484 5.2333 0.8220
-39.6124 -27.5034 5.1784 0.8237
-38.6218 -28.9119 5.1806 0.8236
-30.0115 -30.0115 4.5576 0.8430
-22.6239 -30.2221 4.0539 0.8591
-20.0026 -28.8093 3.7661 0.8684
-18.7833 -29.2274 3.7307 0.8696
-15.7136 -28.7772 3.5208 0.8764
-14.9304 -29.8272 3.5817 0.8744
-15.3807 -33.6790 3.9758 0.8616
-11.9055 -28.7425 3.3407 0.8824
-11.1998 -33.6500 3.8083 0.8670
-7.5455 -29.5628 3.2763 0.8845
-2.7982 -12.8633 1.4136 0.9484
-8.3801 -46.4474 5.0681 0.8271
-4.6915 -32.6298 3.5399 0.8758
-3.4227 -47.8555 5.1519 0.8245
3.5164 -49.1659 5.2930 0.8201
2.2714 -21.1272 2.2817 0.9181
2.9360 -20.4205 2.2153 0.9204
35.0443 -32.6274 5.1416 0.8248
35.0272 -30.3513 4.9769 0.8299
16.4212 -13.2330 2.2646 0.9187
-27.3755 -13.7032 2.5915 0.8844
-38.6722 -28.9496 4.0894 0.8237
-37.7050 -30.3846 4.0992 0.8233
-34.1038 -29.5511 3.8200 0.8343
-30.0114 -30.0114 3.5929 0.8433
-26.8712 -28.8618 3.3382 0.8536
-29.3942 -33.9227 3.7997 0.8351
-23.2363 -28.8346 3.1349 0.8619
-20.0034 -28.8104 2.9691 0.8687
-15.7141 -28.7783 2.7757 0.8767
-11.9059 -28.7435 2.6337 0.8826
-7.9656 -21.3567 1.9296 0.9126
-6.9568 -20.9017 1.8648 0.9154
-8.4322 -28.7173 2.5336 0.8868
-7.5456 -29.5632 2.5828 0.8847
-2.7987 -12.8656 1.1146 0.9485
-8.3944 -46.5272 4.0022 0.8271
-3.5502 -33.0220 2.8115 0.8752
1.7579 -49.2189 4.1692 0.8206
3.5165 -49.1675 4.1728 0.8205
7.0028 -48.7052 4.1654 0.8208
3.8391 -21.2786 1.8304 0.9169
10.5893 -48.6781 4.2171 0.8187
35.0274 -30.3514 3.9235 0.8302
-42.6451 -14.1937 2.7871 0.8352
-27.3402 -13.6855 1.8959 0.8847
-38.6743 -28.9512 2.9957 0.8240
-37.7048 -30.3845 3.0028 0.8236
-29.2538 -33.7607 2.7701 0.8361
-23.2373 -28.8358 2.2965 0.8621
-22.6237 -30.2217 2.3410 0.8596
-15.7147 -28.7793 2.0333 0.8769
-7.9405 -21.2895 1.4090 0.9130
-6.9571 -20.9029 1.3661 0.9155
-6.2433 -21.2626 1.3742 0.9150
-2.7992 -12.8679 0.8166 0.9486
-8.2409 -45.6762 2.8781 0.8303
-4.6917 -32.6318 2.0443 0.8762
-3.5503 -33.0230 2.0596 0.8754
-1.7702 -49.5656 3.0755 0.8197
1.7410 -48.7466 3.0247 0.8224
3.4855 -48.7334 3.0297 0.8222
2.8596 -19.8887 1.2460 0.9226
10.5896 -48.6797 3.0892 0.8190
34.7171 -34.7171 3.0445 0.8214
34.7785 -30.1357 2.8536 0.8316
40.7236 -28.2749 3.0743 0.8198
-30.6252 -26.5369 1.5979 0.8503
-29.2888 -33.8011 1.7636 0.8361
-22.6235 -30.2215 1.4886 0.8597
-19.9728 -33.6623 1.5433 0.8550
-15.7153 -28.7804 1.2930 0.8770
-14.9300 -29.8265 1.3152 0.8750
-15.3887 -33.6965 1.4607 0.8622
-8.4327 -28.7192 1.1802 0.8871
-7.5458 -29.5639 1.2031 0.8850
-2.7997 -12.8702 0.5194 0.9486
-4.6919 -32.6327 1.3000 0.8764
-3.4230 -47.8602 1.8920 0.8252
2.2491 -31.4458 1.2431 0.8814
7.0032 -48.7084 1.9404 0.8212
10.5900 -48.6813 1.9644 0.8192
15.4431 -30.8515 1.3604 0.8710
35.0633 -35.0633 1.9553 0.8200
16.9303 -12.6739 0.8339 0.9188
32.8494 -19.4905 1.5061 0.8582
26.1685 -11.9508 1.1344 0.8912
-42.6607 -14.1988 0.7595 0.8354
-27.2703 -13.6505 0.5151 0.8851
-38.6785 -28.9543 0.8162 0.8242
-34.1032 -29.5506 0.7622 0.8348
-31.0372 -28.8967 0.7163 0.8440
-29.2563 -33.7636 0.7547 0.8363
-18.7828 -29.2265 0.5868 0.8702
-19.9733 -33.6633 0.6612 0.8551
-15.3715 -33.6589 0.6250 0.8624
-11.9072 -28.7465 0.5256 0.8830
-11.0467 -29.6174 0.5340 0.8812
-11.1923 -33.6273 0.5987 0.8678
-8.4330 -28.7202 0.5056 0.8871
-7.5458 -29.5643 0.5154 0.8851
-2.8002 -12.8725 0.2225 0.9487
-4.3474 -30.2366 0.5160 0.8850
-3.5506 -33.0250 0.5611 0.8756
-3.4231 -47.8617 0.8105 0.8253
16.4915 -13.2897 0.3578 0.9188
27.7151 -15.1336 0.5334 0.8813
-42.6685 -14.2014 -0.2532 0.8354
-37.7043 -30.3840 -0.2726 0.8239
-31.0387 -28.8981 -0.2388 0.8440
-26.8760 -28.8668 -0.2221 0.8540
-23.2402 -28.8394 -0.2085 0.8623
-20.0065 -28.8149 -0.1975 0.8691
-15.6990 -28.7506 -0.1844 0.8772
-14.9298 -29.8260 -0.1878 0.8751
-11.0466 -29.6170 -0.1780 0.8812
-11.2055 -33.6672 -0.1998 0.8677
-8.3121 -46.0707 -0.2636 0.8292
-4.3320 -30.1299 -0.1714 0.8854
-3.5507 -33.0260 -0.1870 0.8756
10.5907 -48.6844 -0.2805 0.8193
15.4434 -30.8520 -0.1942 0.8711
35.0637 -35.0637 -0.2792 0.8201
16.5091 -13.3039 -0.1194 0.9187
26.7357 -12.2098 -0.1655 0.8891
-42.6763 -14.2040 -1.2665 0.8353
-38.6826 -28.9574 -1.3606 0.8242
-37.7041 -30.3839 -1.3635 0.8238
-29.3240 -33.8417 -1.2609 0.8359
-19.9745 -33.6652 -1.1022 0.8550
-14.9297 -29.8257 -0.9392 0.8751
-15.3903 -33.7001 -1.0432 0.8622
-11.7258 -28.3086 -0.8628 0.8846
-7.5460 -29.5651 -0.8592 0.8851
-2.8012 -12.8771 -0.3711 0.9486
-8.3119 -46.0698 -1.3182 0.8292
-4.3376 -30.1691 -0.8582 0.8852
-3.5508 -33.0269 -0.9353 0.8755
-3.4233 -47.8648 -1.3512 0.8253
10.5910 -48.6860 -1.4030 0.8192
15.4435 -30.8523 -0.9715 0.8710
16.8726 -12.6306 -0.5935 0.9191
-49.5088 0.0000 -2.5108 0.8201
-49.4276 -1.7653 -2.5083 0.8203
-49.2836 -3.5249 -2.5058 0.8205
-49.0770 -5.2764 -2.5032 0.8206
-48.0870 -10.4607 -2.4957 0.8211
-43.4944 -12.7711 -2.2989 0.8340
-43.1333 -16.0879 -2.3347 0.8316
-42.4905 -17.6001 -2.3324 0.8318
-41.8833 -19.1275 -2.3351 0.8316
-32.8764 -17.9519 -1.8997 0.8607
-38.0949 -26.4498 -2.3520 0.8305
-36.2066 -29.1771 -2.3582 0.8301
-30.0104 -30.0104 -2.1524 0.8437
-26.8783 -28.8694 -2.0004 0.8539
-22.6230 -30.2207 -1.9145 0.8597
-20.0081 -28.8172 -1.7792 0.8689
-19.9750 -33.6661 -1.9852 0.8549
-15.7176 -28.7846 -1.6632 0.8769
-15.3908 -33.7013 -1.8789 0.8621
-11.0463 -29.6164 -1.6030 0.8811
-11.2063 -33.6695 -1.7996 0.8675
-8.4339 -28.7230 -1.5181 0.8870
-2.8017 -12.8794 -0.6684 0.9486
-8.3847 -46.4734 -2.3949 0.8277
-4.2750 -29.7335 -1.5234 0.8866
-3.3700 -47.1185 -2.3957 0.8276
1.6857 -47.1977 -2.3951 0.8277
3.3685 -47.0982 -2.3946 0.8277
6.7160 -46.7107 -2.3933 0.8278
8.3758 -46.4237 -2.3924 0.8278
10.0230 -46.0747 -2.3913 0.8279
11.6448 -28.1129 -1.5432 0.8853
13.4290 -26.8277 -1.5215 0.8868
14.4428 -26.4500 -1.5283 0.8863
15.6560 -26.3867 -1.5560 0.8844
27.9902 -37.3904 -2.3687 0.8294
29.2742 -36.3272 -2.3660 0.8296
30.5168 -35.2182 -2.3633 0.8297
31.7164 -34.0659 -2.3605 0.8299
32.8714 -32.8715 -2.3576 0.8301
16.5445 -13.3324 -1.0776 0.9184
37.9302 -26.3354 -2.3418 0.8312
39.5976 -23.4943 -2.3350 0.8316
29.7523 -16.2460 -1.7192 0.8730
26.7272 -12.2059 -1.4901 0.8890
36.1171 -12.0209 -1.9304 0.8586
44.4339 -11.3411 -2.3257 0.8322
48.1433 -8.6860 -2.4810 0.8221
48.7338 -5.2394 -2.4857 0.8218
48.9374 -3.5001 -2.4882 0.8216
49.0794 -1.7529 -2.4906 0.8214
-34.1604 -1.2200 -2.5063 0.8719
-34.0714 -2.4368 -2.5046 0.8720
-33.9391 -3.6488 -2.5028 0.8721
-33.7638 -4.8545 -2.5011 0.8721
-33.5457 -6.0523 -2.4994 0.8722
-33.2853 -7.2408 -2.4976 0.8723
-32.9829 -8.4184 -2.4959 0.8724
-32.6390 -9.5837 -2.4942 0.8725
-29.4559 -12.2010 -2.3377 0.8800
-27.4455 -12.5339 -2.2123 0.8860
-26.4992 -13.2646 -2.1728 0.8879
-27.3484 -16.2266 -2.3316 0.8803
-26.1136 -18.1310 -2.3310 0.8803
-20.1730 -17.4800 -1.9572 0.8985
-23.3488 -21.7385 -2.3391 0.8799
-21.7727 -23.3856 -2.3428 0.8797
-14.4320 -16.6554 -1.6159 0.9154
-19.1885 -25.6329 -2.3477 0.8795
-18.2730 -26.3181 -2.3492 0.8794
-5.2737 -11.5478 -0.9308 0.9504
-4.7817 -11.5441 -0.9162 0.9511
-4.3044 -11.5405 -0.9031 0.9518
-10.1559 -30.5136 -2.3580 0.8790
-7.5462 -29.5658 -2.2373 0.8848
-2.8022 -12.8817 -0.9666 0.9485
-5.7153 -31.6776 -2.3602 0.8789
-1.1491 -32.1755 -2.3607 0.8789
0.0000 -32.1945 -2.3606 0.8789
1.1490 -32.1715 -2.3604 0.8789
4.5791 -31.8480 -2.3592 0.8789
6.8358 -31.4237 -2.3579 0.8790
7.9505 -31.1496 -2.3572 0.8790
10.9358 -29.3201 -2.2945 0.8820
13.4294 -26.8285 -2.1998 0.8866
14.4432 -26.4508 -2.2097 0.8861
15.6565 -26.3877 -2.2497 0.8842
18.2377 -26.2673 -2.3447 0.8796
19.1496 -25.5808 -2.3430 0.8797
20.0351 -24.8621 -2.3412 0.8798
20.8932 -24.1121 -2.3393 0.8799
16.5623 -13.3467 -1.5596 0.9182
23.6758 -16.4384 -2.1134 0.8908
27.2346 -16.1590 -2.3219 0.8807
27.8093 -15.1850 -2.3232 0.8807
28.3495 -14.1908 -2.3245 0.8806
29.7567 -11.0987 -2.3287 0.8804
31.3769 -10.4433 -2.4247 0.8758
32.4868 -9.5390 -2.4826 0.8730
33.3850 -6.0233 -2.4874 0.8728
33.9938 -1.2141 -2.4941 0.8725
-25.7885 -3.7078 -2.5013 0.9006
-25.6262 -4.6235 -2.5000 0.9007
-25.2044 -6.4331 -2.4973 0.9007
-24.9457 -7.3247 -2.4960 0.9008
-24.6555 -8.2061 -2.4947 0.9008
-24.3343 -9.0762 -2.4934 0.9009
-23.9825 -9.9339 -2.4921 0.9009
-23.6007 -10.7781 -2.4909 0.9010
-22.5667 -11.2961 -2.4228 0.9036
-20.9249 -12.4153 -2.3359 0.9069
-20.4586 -13.1479 -2.3348 0.9069
-19.4504 -14.5604 -2.3326 0.9070
-14.7163 -11.8591 -1.8145 0.9269
-13.0855 -12.1831 -1.7165 0.9307
-11.9016 -11.9017 -1.6159 0.9346
-16.5307 -17.7552 -2.3290 0.9071
-14.5613 -19.4517 -2.3327 0.9070
-13.8645 -19.9687 -2.3339 0.9069
-12.4156 -20.9254 -2.3359 0.9069
-4.3197 -11.5817 -1.1867 0.9515
-7.6989 -23.1316 -2.3405 0.9067
-6.8699 -23.3969 -2.3410 0.9067
-6.0316 -23.6317 -2.3415 0.9066
-2.8027 -12.8840 -1.2659 0.9484
-3.4723 -24.1502 -2.3424 0.9066
-1.1831 -16.5414 -1.5921 0.9355
-0.8709 -24.3852 -2.3426 0.9066
0.0000 -24.4000 -2.3425 0.9066
0.8708 -24.3831 -2.3424 0.9066
2.9768 -20.7044 -2.0082 0.9194
6.0278 -23.6166 -2.3400 0.9067
4.8013 -16.3517 -1.6361 0.9338
8.5100 -22.8162 -2.3379 0.9068
10.8875 -21.7504 -2.3351 0.9069
11.6518 -21.3386 -2.3341 0.9069
10.7107 -16.6662 -1.9020 0.9235
13.8456 -19.9414 -2.3307 0.9071
14.5407 -19.4241 -2.3294 0.9071
15.2160 -18.8819 -2.3281 0.9072
15.8708 -18.3159 -2.3267 0.9072
16.5043 -17.7269 -2.3253 0.9073
17.6285 -16.4127 -2.3124 0.9077
15.7375 -12.6821 -1.9404 0.9220
15.8283 -11.8489 -1.8982 0.9236
20.8582 -12.3757 -2.3284 0.9071
21.2956 -11.6283 -2.3294 0.9071
21.7064 -10.8655 -2.3304 0.9071
23.9003 -9.8998 -2.4836 0.9013
24.8567 -7.2986 -2.4871 0.9011
25.1136 -6.4099 -2.4883 0.9011
25.3389 -5.5122 -2.4896 0.9010
25.5323 -4.6065 -2.4908 0.9010
25.8221 -2.7762 -2.4933 0.9009
25.9181 -1.8537 -2.4946 0.9009
25.9813 -0.9279 -2.4959 0.9008
-21.0717 -0.7526 -2.5046 0.9186
-20.7146 -3.7373 -2.5003 0.9187
-20.5592 -4.4724 -2.4993 0.9187
-20.1706 -5.9226 -2.4971 0.9188
-19.6802 -7.3403 -2.4950 0.9189
-18.7597 -9.3904 -2.4920 0.9190
-18.0277 -10.6963 -2.4900 0.9190
-17.4223 -11.1967 -2.4600 0.9200
-16.1587 -11.2192 -2.3367 0.9238
-14.7181 -11.8606 -2.2454 0.9267
-13.5885 -11.7745 -2.1358 0.9301
-11.8639 -11.8639 -1.9930 0.9346
-12.8507 -14.8306 -2.3310 0.9240
-11.7528 -15.6999 -2.3296 0.9240
-9.9989 -16.8522 -2.3276 0.9241
-4.7990 -11.5857 -1.4896 0.9507
-4.3199 -11.5821 -1.4684 0.9514
-5.5268 -18.8226 -2.3303 0.9240
-1.2032 -16.8224 -2.0034 0.9343
0.0000 -19.6275 -2.3315 0.9240
2.0976 -19.5108 -2.3310 0.9240
3.4832 -19.3062 -2.3303 0.9240
4.1694 -19.1662 -2.3299 0.9240
4.8830 -16.6300 -2.0588 0.9326
6.1902 -18.5984 -2.3284 0.9241
6.8482 -18.3607 -2.3278 0.9241
8.1357 -17.8147 -2.3264 0.9241
8.7634 -17.5070 -2.3256 0.9242
6.4927 -11.8905 -1.6093 0.9469
9.9836 -16.8265 -2.3241 0.9242
10.5797 -16.4623 -2.3245 0.9242
11.1626 -16.0772 -2.3249 0.9242
11.7318 -15.6718 -2.3254 0.9242
13.3489 -14.3377 -2.3270 0.9241
13.8557 -13.8557 -2.3276 0.9241
14.3452 -13.3559 -2.3282 0.9241
15.7043 -11.7561 -2.3302 0.9240
16.1189 -11.1916 -2.3310 0.9240
16.5134 -10.6125 -2.3317 0.9240
18.3567 -10.0235 -2.4844 0.9192
18.7093 -9.3652 -2.4853 0.9192
19.0385 -8.6946 -2.4862 0.9191
19.6248 -7.3197 -2.4880 0.9191
19.8811 -6.6171 -2.4890 0.9191
20.1124 -5.9055 -2.4899 0.9190
20.4987 -4.4592 -2.4919 0.9190
20.6532 -3.7263 -2.4929 0.9189
20.7816 -2.9879 -2.4939 0.9189
20.8836 -2.2452 -2.4950 0.9189
-17.6801 0.0000 -2.5051 0.9311
-17.6224 -1.2604 -2.5033 0.9311
-17.4750 -2.5125 -2.5015 0.9312
-17.3680 -3.1335 -2.5006 0.9312
-16.9154 -4.9668 -2.4979 0.9313
-15.7374 -7.8776 -2.4936 0.9314
-15.1252 -8.9742 -2.4919 0.9314
-14.7905 -9.5053 -2.4911 0.9314
-14.0657 -10.5295 -2.4895 0.9315
-12.8377 -11.1239 -2.4068 0.9337
-10.7874 -12.4493 -2.3340 0.9356
-10.3334 -12.8230 -2.3334 0.9356
-9.8667 -13.1804 -2.3328 0.9356
-7.8833 -14.4371 -2.3307 0.9357
-7.3615 -14.7063 -2.3302 0.9357
-5.4203 -11.8688 -1.8488 0.9487
-5.1899 -15.5933 -2.3286 0.9358
-3.5800 -12.1924 -1.8005 0.9500
-3.1077 -12.1758 -1.7805 0.9505
-2.9164 -16.1647 -2.3273 0.9358
-1.7577 -12.2249 -1.7499 0.9513
-1.7555 -16.3285 -2.3269 0.9358
-0.5861 -16.4098 -2.3266 0.9358
0.0000 -16.4194 -2.3265 0.9358
2.3366 -16.2511 -2.3263 0.9358
2.9151 -16.1575 -2.3263 0.9358
4.6261 -15.7551 -2.3266 0.9358
5.1858 -15.5809 -2.3267 0.9358
7.3532 -14.6898 -2.3276 0.9358
6.4933 -11.8916 -1.9197 0.9467
8.3846 -14.1315 -2.3282 0.9358
10.7696 -12.4288 -2.3302 0.9357
11.2086 -12.0389 -2.3306 0.9357
12.0442 -11.2136 -2.3317 0.9357
12.4397 -10.7790 -2.3322 0.9357
14.0055 -10.4844 -2.4789 0.9318
14.4073 -10.0032 -2.4852 0.9316
15.0925 -8.9548 -2.4865 0.9316
16.6814 -5.5521 -2.4911 0.9314
16.8744 -4.9548 -2.4919 0.9314
17.0461 -4.3508 -2.4927 0.9314
17.5157 -1.8831 -2.4961 0.9313
17.5779 -1.2572 -2.4970 0.9313
17.6178 -0.6292 -2.4979 0.9313
-15.2036 0.0000 -2.5046 0.9402
-15.1893 -0.5425 -2.5039 0.9402
-15.1556 -1.0840 -2.5031 0.9403
-15.1025 -1.6237 -2.5023 0.9403
-14.8287 -3.2258 -2.5000 0.9403
-14.5519 -4.2728 -2.4985 0.9404
-14.3857 -4.7880 -2.4977 0.9404
-14.2014 -5.2968 -2.4970 0.9404
-13.9991 -5.7986 -2.4962 0.9404
-13.7791 -6.2927 -2.4955 0.9404
-13.5418 -6.7785 -2.4947 0.9405
-13.2873 -7.2554 -2.4940 0.9405
-13.0162 -7.7229 -2.4933 0.9405
-12.7287 -8.1802 -2.4926 0.9405
-12.4252 -8.6270 -2.4919 0.9405
-12.1061 -9.0625 -2.4912 0.9405
-11.7718 -9.4863 -2.4906 0.9406
-11.4227 -9.8979 -2.4899 0.9406
-9.5874 -11.0645 -2.4119 0.9424
-8.9182 -11.0669 -2.3414 0.9440
-8.4947 -11.3476 -2.3352 0.9442
-8.0826 -11.6411 -2.3347 0.9442
-7.6604 -11.9198 -2.3342 0.9442
-6.3388 -12.6634 -2.3329 0.9442
-5.3947 -11.8127 -2.1393 0.9487
-4.7993 -11.5865 -2.0660 0.9504
-2.6553 -12.2062 -2.0579 0.9506
-2.2034 -12.2127 -2.0444 0.9509
-1.7530 -12.1923 -2.0292 0.9513
-1.5119 -14.0629 -2.3301 0.9443
0.0000 -14.1416 -2.3297 0.9443
0.5047 -14.1322 -2.3296 0.9443
1.0088 -14.1048 -2.3296 0.9443
1.5116 -14.0597 -2.3295 0.9443
3.0059 -13.8180 -2.3296 0.9443
3.4973 -13.7023 -2.3297 0.9443
3.9843 -13.5694 -2.3298 0.9443
4.9428 -13.2521 -2.3301 0.9443
5.4130 -13.0682 -2.3302 0.9443
7.6514 -11.9058 -2.3315 0.9442
8.0726 -11.6268 -2.3318 0.9442
8.4837 -11.3329 -2.3321 0.9442
8.8842 -11.0246 -2.3325 0.9442
9.3007 -10.7336 -2.3397 0.9440
11.4040 -9.8817 -2.4859 0.9407
11.7519 -9.4703 -2.4864 0.9406
12.0851 -9.0468 -2.4869 0.9406
12.4031 -8.6116 -2.4875 0.9406
12.9919 -7.7085 -2.4887 0.9406
13.5155 -6.7654 -2.4899 0.9406
13.9710 -5.7870 -2.4912 0.9405
14.1725 -5.2861 -2.4919 0.9405
14.5215 -4.2639 -2.4933 0.9405
14.7972 -3.2189 -2.4947 0.9405
14.9070 -2.6895 -2.4954 0.9404
14.9980 -2.1564 -2.4962 0.9404
15.0699 -1.6202 -2.4969 0.9404
-13.3114 -0.4754 -2.5036 0.9472
-13.2824 -0.9500 -2.5029 0.9472
-13.2364 -1.4231 -2.5023 0.9473
-13.1736 -1.8941 -2.5016 0.9473
-12.9979 -2.8275 -2.5002 0.9473
-12.8852 -3.2888 -2.4996 0.9473
-12.4499 -4.6436 -2.4976 0.9474
-12.2730 -5.0836 -2.4969 0.9474
-11.8729 -5.9432 -2.4956 0.9474
-11.4130 -6.7716 -2.4944 0.9474
-10.3232 -8.3190 -2.4920 0.9475
-9.0263 -9.6949 -2.4898 0.9475
-8.3083 -10.3100 -2.4888 0.9475
-7.9323 -10.5963 -2.4879 0.9476
-7.0760 -11.0105 -2.4601 0.9481
-6.5329 -11.0105 -2.4064 0.9492
-6.0120 -11.0101 -2.3579 0.9502
-5.1598 -11.2984 -2.3346 0.9507
-4.3341 -11.6201 -2.3311 0.9508
-3.4976 -11.9118 -2.3335 0.9507
-2.6320 -12.0990 -2.3273 0.9509
-1.3265 -12.3383 -2.3325 0.9507
-0.4429 -12.4002 -2.3322 0.9508
0.0000 -12.4076 -2.3321 0.9508
0.4428 -12.3993 -2.3321 0.9508
0.8851 -12.3754 -2.3320 0.9508
1.7657 -12.2806 -2.3320 0.9508
2.6373 -12.1237 -2.3321 0.9508
3.4957 -11.9054 -2.3322 0.9508
4.3366 -11.6269 -2.3325 0.9507
5.1557 -11.2895 -2.3328 0.9507
5.5559 -11.0992 -2.3330 0.9507
5.9491 -10.8949 -2.3332 0.9507
6.4001 -10.7868 -2.3575 0.9502
6.9205 -10.7685 -2.4060 0.9492
7.4629 -10.7485 -2.4595 0.9481
7.9095 -10.5659 -2.4808 0.9477
8.2975 -10.2966 -2.4855 0.9476
9.0146 -9.6824 -2.4866 0.9476
9.3560 -9.3560 -2.4870 0.9476
10.0030 -8.6677 -2.4878 0.9476
10.3079 -8.3067 -2.4883 0.9475
10.5999 -7.9350 -2.4888 0.9475
11.1434 -7.1614 -2.4898 0.9475
12.4277 -4.6353 -2.4931 0.9474
12.8614 -3.2827 -2.4949 0.9474
13.0695 -2.3580 -2.4962 0.9474
13.1488 -1.8905 -2.4969 0.9474
13.2860 -0.4745 -2.4988 0.9473
-11.8357 -0.4227 -2.5034 0.9527
-11.6439 -2.1008 -2.5010 0.9528
-11.4588 -2.9247 -2.4998 0.9528
-10.9157 -4.5214 -2.4975 0.9528
-10.7449 -4.9070 -2.4969 0.9529
-10.5605 -5.2862 -2.4963 0.9529
-10.1519 -6.0234 -2.4952 0.9529
-9.9283 -6.3805 -2.4947 0.9529
-9.4438 -7.0695 -2.4936 0.9529
-8.9117 -7.7221 -2.4926 0.9529
-8.0306 -8.6255 -2.4911 0.9530
-7.3921 -9.1731 -2.4902 0.9530
-7.0588 -9.4295 -2.4898 0.9530
-6.7167 -9.6738 -2.4894 0.9530
-5.6416 -10.3317 -2.4883 0.9530
-5.2684 -10.5250 -2.4879 0.9530
-4.8830 -10.6924 -2.4847 0.9531
-4.0858 -10.9546 -2.4714 0.9533
-3.6453 -10.9524 -2.4400 0.9539
-2.7940 -10.9466 -2.3881 0.9549
-2.3805 -10.9430 -2.3672 0.9552
0.3941 -11.0347 -2.3340 0.9559
1.5714 -10.9291 -2.3339 0.9559
1.9621 -10.8752 -2.3359 0.9558
3.1827 -10.8391 -2.3879 0.9549
3.6036 -10.8271 -2.4121 0.9544
4.0335 -10.8143 -2.4397 0.9539
4.4737 -10.8006 -2.4711 0.9533
4.8744 -10.6735 -2.4803 0.9532
5.2584 -10.5050 -2.4832 0.9531
7.3843 -9.1634 -2.4876 0.9530
7.7077 -8.8951 -2.4879 0.9530
8.0213 -8.6155 -2.4883 0.9530
9.1714 -7.3908 -2.4898 0.9530
9.4310 -7.0599 -2.4902 0.9530
9.9141 -6.3714 -2.4911 0.9530
10.1371 -6.0146 -2.4916 0.9530
10.3473 -5.6501 -2.4920 0.9529
10.5445 -5.2782 -2.4925 0.9529
10.7283 -4.8995 -2.4930 0.9529
11.0551 -4.1233 -2.4941 0.9529
11.5396 -2.5103 -2.4963 0.9529
11.6946 -1.6814 -2.4974 0.9528
-10.6535 0.0000 -2.5038 0.9572
-10.5856 -1.1381 -2.5022 0.9572
-10.4729 -1.8895 -2.5011 0.9572
-10.3070 -2.6307 -2.5000 0.9572
-10.2043 -2.9963 -2.4995 0.9572
-10.0887 -3.3578 -2.4990 0.9573
-9.8193 -4.0673 -2.4979 0.9573
-9.6659 -4.4143 -2.4974 0.9573
-9.5002 -4.7555 -2.4969 0.9573
-9.3225 -5.0905 -2.4964 0.9573
-9.1331 -5.4189 -2.4959 0.9573
-8.2626 -6.6584 -2.4940 0.9573
-8.0182 -6.9478 -2.4935 0.9573
-7.7637 -7.2283 -2.4931 0.9573
-7.4995 -7.4995 -2.4926 0.9574
-6.9431 -8.0128 -2.4918 0.9574
-5.7287 -8.9140 -2.4903 0.9574
-5.0768 -9.2974 -2.4897 0.9574
-4.7411 -9.4716 -2.4893 0.9574
-4.3995 -9.6336 -2.4891 0.9574
-3.7003 -9.9208 -2.4885 0.9574
-3.3435 -10.0456 -2.4883 0.9574
-2.9825 -10.1576 -2.4881 0.9574
-2.2500 -10.3429 -2.4877 0.9574
-1.8792 -10.4159 -2.4875 0.9574
-1.5060 -10.4744 -2.4871 0.9574
0.0000 -10.5715 -2.4845 0.9575
0.3773 -10.5645 -2.4845 0.9575
0.7542 -10.5450 -2.4847 0.9575
1.1303 -10.5131 -2.4851 0.9575
1.5052 -10.4687 -2.4857 0.9575
2.6169 -10.2529 -2.4869 0.9575
2.9813 -10.1533 -2.4870 0.9575
3.3419 -10.0408 -2.4871 0.9574
4.7379 -9.4651 -2.4877 0.9574
6.0388 -8.6975 -2.4885 0.9574
6.3460 -8.4773 -2.4888 0.9574
6.6453 -8.2463 -2.4890 0.9574
6.9362 -8.0048 -2.4893 0.9574
7.2184 -7.7530 -2.4896 0.9574
8.0090 -6.9398 -2.4906 0.9574
8.2528 -6.6505 -2.4910 0.9574
8.4862 -6.3527 -2.4914 0.9574
8.9207 -5.7330 -2.4922 0.9574
9.1211 -5.4118 -2.4926 0.9574
9.4873 -4.7490 -2.4935 0.9573
9.8055 -4.0616 -2.4944 0.9573
9.9461 -3.7097 -2.4949 0.9573
10.0741 -3.3530 -2.4953 0.9573
10.1894 -2.9919 -2.4958 0.9573
10.2917 -2.6268 -2.4963 0.9573
10.4572 -1.8867 -2.4974 0.9573
10.5200 -1.5125 -2.4979 0.9573
10.5695 -1.1363 -2.4984 0.9573
-9.6616 -0.3451 -2.5032 0.9608
-9.6412 -0.6896 -2.5027 0.9608
-9.6086 -1.0330 -2.5022 0.9609
-9.5637 -1.3751 -2.5017 0.9609
-9.3564 -2.3881 -2.5002 0.9609
-9.1586 -3.0483 -2.4992 0.9609
-8.6251 -4.3174 -2.4973 0.9609
-8.4639 -4.6217 -2.4969 0.9609
-8.2921 -4.9199 -2.4964 0.9609
-7.5023 -6.0457 -2.4947 0.9610
-7.2805 -6.3086 -2.4943 0.9610
-6.8097 -6.8097 -2.4935 0.9610
-5.7679 -7.7050 -2.4920 0.9610
-5.4885 -7.9050 -2.4917 0.9610
-3.3604 -9.0097 -2.4898 0.9610
-3.0365 -9.1231 -2.4895 0.9610
-2.7087 -9.2249 -2.4893 0.9611
-2.0434 -9.3933 -2.4890 0.9611
-1.7067 -9.4597 -2.4888 0.9611
-1.3679 -9.5140 -2.4887 0.9611
-0.3430 -9.6045 -2.4884 0.9611
0.6856 -9.5856 -2.4882 0.9611
1.0273 -9.5549 -2.4882 0.9611
1.3676 -9.5121 -2.4882 0.9611
2.0428 -9.3905 -2.4882 0.9611
2.7076 -9.2213 -2.4884 0.9611
3.6783 -8.8802 -2.4887 0.9611
3.9931 -8.7437 -2.4888 0.9611
4.3029 -8.5961 -2.4890 0.9611
4.9059 -8.2685 -2.4893 0.9611
5.1983 -8.0887 -2.4895 0.9611
6.2990 -7.2694 -2.4905 0.9610
6.5552 -7.0407 -2.4908 0.9610
6.8031 -6.8031 -2.4911 0.9610
7.0424 -6.5567 -2.4914 0.9610
7.4942 -6.0392 -2.4920 0.9610
7.7060 -5.7687 -2.4924 0.9610
8.2822 -4.9141 -2.4935 0.9610
8.4537 -4.6160 -2.4939 0.9610
8.6144 -4.3121 -2.4943 0.9610
8.9030 -3.6878 -2.4951 0.9610
9.0306 -3.3682 -2.4955 0.9610
9.1466 -3.0443 -2.4960 0.9610
9.2511 -2.7164 -2.4964 0.9609
9.3439 -2.3849 -2.4969 0.9609
9.5953 -1.0316 -2.4987 0.9609
-8.8361 -0.3156 -2.5030 0.9639
-8.7471 -1.2576 -2.5017 0.9639
-8.6319 -1.8778 -2.5008 0.9639
-8.5579 -2.1843 -2.5003 0.9639
-8.3773 -2.7882 -2.4995 0.9640
-7.8897 -3.9493 -2.4977 0.9640
-7.7425 -4.2277 -2.4973 0.9640
-6.6605 -5.7714 -2.4949 0.9640
-6.2300 -6.2300 -2.4942 0.9640
-6.0028 -6.4475 -2.4939 0.9640
-5.5261 -6.8575 -2.4932 0.9640
-5.0216 -7.2324 -2.4926 0.9641
-4.7597 -7.4062 -2.4923 0.9641
-4.2182 -7.7252 -2.4917 0.9641
-3.3673 -8.1294 -2.4910 0.9641
-2.7783 -8.3476 -2.4906 0.9641
-2.4784 -8.4408 -2.4904 0.9641
-2.1754 -8.5233 -2.4902 0.9641
-1.8697 -8.5949 -2.4901 0.9641
-1.2517 -8.7055 -2.4898 0.9641
-0.6274 -8.7719 -2.4896 0.9641
-0.3139 -8.7884 -2.4895 0.9641
1.2514 -8.7039 -2.4894 0.9641
1.5613 -8.6538 -2.4894 0.9641
1.8692 -8.5926 -2.4894 0.9641
2.1748 -8.5206 -2.4895 0.9641
2.7772 -8.3442 -2.4896 0.9641
3.0734 -8.2401 -2.4897 0.9641
3.3657 -8.1255 -2.4898 0.9641
3.6537 -8.0006 -2.4899 0.9641
3.9372 -7.8655 -2.4901 0.9641
4.2157 -7.7205 -2.4902 0.9641
4.4889 -7.5656 -2.4904 0.9641
5.2732 -7.0441 -2.4910 0.9641
5.7633 -6.6512 -2.4915 0.9641
5.9977 -6.4419 -2.4917 0.9641
6.2244 -6.2244 -2.4920 0.9641
6.6541 -5.7658 -2.4925 0.9641
7.0503 -5.2778 -2.4932 0.9641
7.2351 -5.0234 -2.4935 0.9640
7.4108 -4.7626 -2.4938 0.9640
7.7339 -4.2230 -2.4945 0.9640
7.8808 -3.9448 -2.4949 0.9640
8.2612 -3.0813 -2.4961 0.9640
8.6213 -1.8755 -2.4977 0.9640
8.7361 -1.2561 -2.4986 0.9640
8.7769 -0.9436 -2.4990 0.9640
8.8250 -0.3152 -2.4999 0.9640
-8.1324 -0.2905 -2.5030 0.9665
-8.1155 -0.5804 -2.5025 0.9665
-8.0883 -0.8696 -2.5021 0.9665
-8.0508 -1.1575 -2.5017 0.9665
-8.0030 -1.4439 -2.5013 0.9665
-7.9451 -1.7283 -2.5009 0.9665
-7.8770 -2.0105 -2.5005 0.9666
-7.7990 -2.2900 -2.5001 0.9666
-7.7110 -2.5665 -2.4997 0.9666
-7.5058 -3.1090 -2.4989 0.9666
-7.1271 -3.8917 -2.4977 0.9666
-6.9826 -4.1430 -2.4973 0.9666
-6.8293 -4.3889 -2.4969 0.9666
-6.6673 -4.6292 -2.4965 0.9666
-6.4969 -4.8635 -2.4962 0.9666
-5.7354 -5.7354 -2.4948 0.9666
-5.5264 -5.9357 -2.4945 0.9666
-4.6232 -6.6586 -2.4933 0.9666
-4.3821 -6.8187 -2.4930 0.9666
-3.8837 -7.1125 -2.4925 0.9667
-3.1003 -7.4849 -2.4919 0.9667
-2.2820 -7.7717 -2.4913 0.9667
-2.0030 -7.8477 -2.4912 0.9667
-1.7215 -7.9137 -2.4910 0.9667
-1.4379 -7.9697 -2.4909 0.9667
-1.1525 -8.0156 -2.4908 0.9667
-0.8656 -8.0512 -2.4907 0.9667
0.0000 -8.0969 -2.4904 0.9667
0.5776 -8.0761 -2.4904 0.9667
1.4376 -7.9680 -2.4904 0.9667
3.6251 -7.2421 -2.4910 0.9667
4.6201 -6.6542 -2.4917 0.9667
4.8551 -6.4856 -2.4919 0.9667
5.3063 -6.1238 -2.4923 0.9667
5.5220 -5.9310 -2.4925 0.9667
5.7307 -5.7307 -2.4928 0.9667
5.9322 -5.5231 -2.4930 0.9666
6.3125 -5.0869 -2.4936 0.9666
6.4908 -4.8590 -2.4939 0.9666
6.8226 -4.3846 -2.4945 0.9666
6.9756 -4.1388 -2.4948 0.9666
7.2551 -3.6316 -2.4955 0.9666
7.3811 -3.3708 -2.4958 0.9666
7.6049 -2.8365 -2.4965 0.9666
7.7025 -2.5636 -2.4969 0.9666
7.8681 -2.0082 -2.4976 0.9666
7.9938 -1.4422 -2.4984 0.9666
8.0415 -1.1562 -2.4988 0.9666
8.0789 -0.8686 -2.4992 0.9666
8.1061 -0.5798 -2.4996 0.9666
8.1229 -0.2901 -2.5000 0.9666
-7.5093 -0.5371 -2.5025 0.9688
-7.4054 -1.3361 -2.5013 0.9688
-7.3519 -1.5993 -2.5010 0.9688
-7.2169 -2.1191 -2.5002 0.9688
-7.0452 -2.6277 -2.4994 0.9688
-6.8378 -3.1227 -2.4987 0.9688
-6.7210 -3.3643 -2.4983 0.9688
-6.4620 -3.8341 -2.4976 0.9688
-6.3201 -4.0617 -2.4973 0.9688
-6.0127 -4.5010 -2.4966 0.9688
-5.8474 -4.7121 -2.4963 0.9688
-5.6748 -4.9172 -2.4960 0.9688
-4.4967 -6.0069 -2.4942 0.9689
-3.8277 -6.4512 -2.4935 0.9689
-3.3571 -6.7066 -2.4930 0.9689
-3.1153 -6.8216 -2.4928 0.9689
-1.0667 -7.4193 -2.4916 0.9689
-0.8012 -7.4524 -2.4915 0.9689
-0.2675 -7.4901 -2.4913 0.9689
0.0000 -7.4947 -2.4913 0.9689
0.8011 -7.4516 -2.4912 0.9689
1.0666 -7.4182 -2.4912 0.9689
1.5931 -7.3233 -2.4913 0.9689
1.8535 -7.2619 -2.4913 0.9689
2.1116 -7.1913 -2.4913 0.9689
2.3670 -7.1115 -2.4914 0.9689
2.6194 -7.0227 -2.4915 0.9689
2.8684 -6.9251 -2.4916 0.9689
3.3555 -6.7034 -2.4918 0.9689
3.8256 -6.4476 -2.4921 0.9689
4.0535 -6.3074 -2.4922 0.9689
4.2763 -6.1591 -2.4924 0.9689
4.4938 -6.0030 -2.4926 0.9689
5.1110 -5.4896 -2.4932 0.9689
5.3042 -5.3042 -2.4934 0.9689
5.6701 -4.9132 -2.4939 0.9689
5.8425 -4.7082 -2.4942 0.9689
6.0075 -4.4971 -2.4945 0.9689
6.1648 -4.2803 -2.4947 0.9689
6.3144 -4.0580 -2.4950 0.9689
6.4560 -3.8305 -2.4953 0.9689
6.5894 -3.5981 -2.4956 0.9688
6.7145 -3.3610 -2.4959 0.9688
7.0381 -2.6251 -2.4969 0.9688
7.1283 -2.3725 -2.4973 0.9688
7.2814 -1.8585 -2.4980 0.9688
-6.9998 0.0000 -2.5032 0.9707
-6.9943 -0.2498 -2.5028 0.9707
-6.9799 -0.4992 -2.5025 0.9707
-6.9567 -0.7479 -2.5021 0.9707
-6.7756 -1.7294 -2.5007 0.9707
-6.5491 -2.4427 -2.4996 0.9707
-6.4569 -2.6745 -2.4993 0.9707
-6.2479 -3.1275 -2.4986 0.9708
-6.1315 -3.3481 -2.4983 0.9708
-6.0073 -3.5643 -2.4979 0.9708
-5.5898 -4.1844 -2.4970 0.9708
-5.2757 -4.5714 -2.4964 0.9708
-5.1086 -4.7563 -2.4961 0.9708
-4.7552 -5.1075 -2.4955 0.9708
-4.5694 -5.2734 -2.4953 0.9708
-4.3778 -5.4325 -2.4950 0.9708
-3.9783 -5.7299 -2.4945 0.9708
-3.7709 -5.8677 -2.4943 0.9708
-2.8965 -6.3425 -2.4934 0.9708
-1.9639 -6.6884 -2.4928 0.9708
-1.7238 -6.7538 -2.4927 0.9708
-1.2375 -6.8590 -2.4924 0.9708
-0.9919 -6.8985 -2.4923 0.9708
-0.7450 -6.9292 -2.4922 0.9708
-0.2487 -6.9644 -2.4921 0.9708
0.2487 -6.9641 -2.4920 0.9708
0.7449 -6.9285 -2.4920 0.9708
0.9917 -6.8975 -2.4920 0.9708
1.4813 -6.8093 -2.4920 0.9708
1.7234 -6.7522 -2.4920 0.9708
1.9633 -6.6865 -2.4921 0.9708
2.2008 -6.6123 -2.4921 0.9708
2.4355 -6.5298 -2.4922 0.9708
2.8953 -6.3398 -2.4924 0.9708
3.3405 -6.1177 -2.4926 0.9708
3.5569 -5.9949 -2.4928 0.9708
3.9760 -5.7266 -2.4931 0.9708
4.1782 -5.5814 -2.4933 0.9708
4.3751 -5.4291 -2.4934 0.9708
4.5664 -5.2699 -2.4936 0.9708
4.9315 -4.9315 -2.4940 0.9708
5.1049 -4.7528 -2.4943 0.9708
5.2717 -4.5680 -2.4945 0.9708
5.5853 -4.1811 -2.4950 0.9708
6.0021 -3.5612 -2.4958 0.9708
6.1261 -3.3451 -2.4961 0.9708
6.4509 -2.6721 -2.4970 0.9708
6.5430 -2.4404 -2.4973 0.9708
6.6268 -2.2056 -2.4976 0.9708
6.7690 -1.7277 -2.4982 0.9708
6.8273 -1.4852 -2.4986 0.9708
6.8768 -1.2407 -2.4989 0.9708
6.9177 -0.9946 -2.4993 0.9707
-6.5317 0.0000 -2.5031 0.9724
-6.5267 -0.2331 -2.5027 0.9724
-6.4917 -0.6979 -2.5021 0.9724
-6.4618 -0.9291 -2.5017 0.9724
-6.4237 -1.1590 -2.5014 0.9724
-6.2605 -1.8383 -2.5004 0.9724
-6.1901 -2.0603 -2.5001 0.9724
-6.1118 -2.2796 -2.4998 0.9724
-6.0258 -2.4960 -2.4995 0.9724
-5.7223 -3.1246 -2.4985 0.9725
-5.3536 -3.7171 -2.4976 0.9725
-5.2169 -3.9053 -2.4973 0.9725
-5.0736 -4.0886 -2.4970 0.9725
-4.9239 -4.2666 -2.4967 0.9725
-4.7679 -4.4391 -2.4965 0.9725
-4.6060 -4.6060 -2.4962 0.9725
-4.0860 -5.0704 -2.4955 0.9725
-3.9020 -5.2125 -2.4952 0.9725
-3.7132 -5.3480 -2.4950 0.9725
-3.5196 -5.4766 -2.4948 0.9725
-3.3216 -5.5983 -2.4946 0.9725
-3.1194 -5.7128 -2.4944 0.9725
-2.7035 -5.9200 -2.4940 0.9725
-1.8331 -6.2429 -2.4934 0.9725
-1.3829 -6.3572 -2.4932 0.9725
-0.9258 -6.4391 -2.4930 0.9725
-0.6954 -6.4678 -2.4929 0.9725
-0.4641 -6.4883 -2.4928 0.9725
0.4640 -6.4879 -2.4926 0.9725
0.6953 -6.4672 -2.4926 0.9725
1.6086 -6.3026 -2.4927 0.9725
3.1180 -5.7103 -2.4933 0.9725
3.5178 -5.4739 -2.4935 0.9725
3.7112 -5.3451 -2.4937 0.9725
4.0836 -5.0674 -2.4940 0.9725
4.2622 -4.9188 -2.4942 0.9725
4.9204 -4.2635 -2.4950 0.9725
5.0699 -4.0856 -2.4952 0.9725
5.2130 -3.9024 -2.4954 0.9725
5.3495 -3.7142 -2.4957 0.9725
5.4792 -3.5212 -2.4959 0.9725
5.6019 -3.3238 -2.4962 0.9725
5.7176 -3.1220 -2.4965 0.9725
5.9271 -2.7068 -2.4970 0.9725
6.1846 -2.0584 -2.4979 0.9725
6.2549 -1.8366 -2.4982 0.9725
6.3172 -1.6124 -2.4985 0.9725
6.3715 -1.3860 -2.4988 0.9725
6.4178 -1.1579 -2.4991 0.9725
6.4857 -0.6973 -2.4998 0.9724
6.5073 -0.4654 -2.5001 0.9724
-6.0986 -0.4362 -2.5024 0.9739
-6.0784 -0.6535 -2.5021 0.9739
-6.0504 -0.8699 -2.5018 0.9739
-6.0148 -1.0852 -2.5014 0.9739
-5.9715 -1.2990 -2.5011 0.9739
-5.7963 -1.9292 -2.5002 0.9739
-5.7230 -2.1346 -2.4999 0.9739
-5.2500 -3.1150 -2.4984 0.9740
-5.0133 -3.4808 -2.4979 0.9740
-4.7512 -3.8287 -2.4973 0.9740
-4.6110 -3.9954 -2.4971 0.9740
-4.3133 -4.3133 -2.4966 0.9740
-3.9939 -4.6092 -2.4961 0.9740
-3.8265 -4.7484 -2.4959 0.9740
-3.4774 -5.0084 -2.4954 0.9740
-3.2961 -5.1289 -2.4952 0.9740
-2.9214 -5.3502 -2.4949 0.9740
-2.3323 -5.6306 -2.4944 0.9740
-2.1297 -5.7100 -2.4942 0.9740
-1.7168 -5.8467 -2.4939 0.9740
-1.5069 -5.9040 -2.4938 0.9740
-0.6512 -6.0574 -2.4934 0.9740
0.0000 -6.0919 -2.4933 0.9740
0.2174 -6.0880 -2.4932 0.9740
1.0816 -5.9950 -2.4932 0.9740
1.7163 -5.8453 -2.4933 0.9740
1.9239 -5.7804 -2.4934 0.9740
2.1291 -5.7082 -2.4934 0.9740
2.3315 -5.6288 -2.4935 0.9740
4.1538 -4.4615 -2.4948 0.9740
4.3107 -4.3107 -2.4950 0.9740
4.4621 -4.1544 -2.4952 0.9740
4.6079 -3.9928 -2.4954 0.9740
4.7479 -3.8261 -2.4956 0.9740
4.8819 -3.6545 -2.4959 0.9740
5.1311 -3.2976 -2.4963 0.9740
5.2460 -3.1126 -2.4966 0.9740
5.4558 -2.7310 -2.4971 0.9740
5.5504 -2.5348 -2.4973 0.9740
5.7183 -2.1328 -2.4979 0.9740
5.8572 -1.7198 -2.4984 0.9740
5.9664 -1.2979 -2.4990 0.9740
6.0452 -0.8692 -2.4996 0.9739
6.0731 -0.6529 -2.4999 0.9739
6.0933 -0.4358 -2.5002 0.9739
-5.7431 0.0000 -2.5029 0.9753
-5.7082 -0.6137 -2.5021 0.9753
-5.6079 -1.2199 -2.5012 0.9753
-5.5602 -1.4192 -2.5009 0.9753
-5.5053 -1.6165 -2.5006 0.9753
-5.1279 -2.5669 -2.4992 0.9753
-4.3307 -3.7526 -2.4974 0.9753
-4.0512 -4.0512 -2.4969 0.9753
-3.9036 -4.1928 -2.4967 0.9753
-3.4322 -4.5849 -2.4960 0.9753
-3.0959 -4.8173 -2.4956 0.9753
-2.9218 -4.9244 -2.4955 0.9753
-2.7440 -5.0252 -2.4953 0.9753
-2.3782 -5.2075 -2.4950 0.9753
-2.1906 -5.2887 -2.4948 0.9753
-2.0004 -5.3632 -2.4947 0.9753
-1.8076 -5.4309 -2.4945 0.9753
-1.6125 -5.4917 -2.4944 0.9753
-0.8144 -5.6644 -2.4940 0.9753
0.2042 -5.7184 -2.4938 0.9753
0.4082 -5.7074 -2.4938 0.9753
0.8143 -5.6637 -2.4937 0.9753
1.0160 -5.6311 -2.4937 0.9753
1.2163 -5.5913 -2.4938 0.9753
1.6121 -5.4904 -2.4938 0.9753
2.5617 -5.1177 -2.4942 0.9753
3.7492 -4.3268 -2.4951 0.9753
3.9015 -4.1905 -2.4953 0.9753
4.0488 -4.0488 -2.4954 0.9753
4.1911 -3.9020 -2.4956 0.9753
4.3280 -3.7502 -2.4958 0.9753
4.5852 -3.4325 -2.4962 0.9753
5.2951 -2.1933 -2.4978 0.9753
5.3706 -2.0031 -2.4981 0.9753
5.4392 -1.8103 -2.4984 0.9753
5.6440 -1.0183 -2.4994 0.9753
5.7340 -0.2048 -2.5006 0.9753
-5.3497 -0.7692 -2.5018 0.9765
-5.2801 -1.1486 -2.5012 0.9765
-5.1835 -1.5220 -2.5007 0.9765
-4.9895 -2.0667 -2.4999 0.9765
-4.9121 -2.2433 -2.4996 0.9765
-4.7385 -2.5874 -2.4991 0.9765
-4.6427 -2.7546 -2.4988 0.9765
-4.5410 -2.9183 -2.4986 0.9765
-4.4335 -3.0782 -2.4983 0.9765
-4.3204 -3.2342 -2.4981 0.9765
-4.0779 -3.5335 -2.4976 0.9765
-3.9488 -3.6765 -2.4974 0.9765
-3.8147 -3.8147 -2.4972 0.9765
-3.5323 -4.0765 -2.4968 0.9765
-3.2319 -4.3174 -2.4964 0.9765
-3.0756 -4.4296 -2.4962 0.9765
-2.4132 -4.8210 -2.4955 0.9765
-2.2395 -4.9037 -2.4954 0.9765
-1.5185 -5.1715 -2.4949 0.9765
-1.3329 -5.2222 -2.4948 0.9765
-0.3844 -5.3750 -2.4944 0.9765
-0.1923 -5.3852 -2.4943 0.9765
0.0000 -5.3885 -2.4943 0.9765
0.3844 -5.3747 -2.4942 0.9765
0.5760 -5.3575 -2.4942 0.9765
0.9567 -5.3028 -2.4942 0.9765
1.3326 -5.2211 -2.4943 0.9765
1.7018 -5.1130 -2.4944 0.9765
1.8832 -5.0491 -2.4944 0.9765
2.0623 -4.9788 -2.4945 0.9765
2.2387 -4.9022 -2.4946 0.9765
2.4124 -4.8193 -2.4946 0.9765
2.7502 -4.6353 -2.4948 0.9765
3.8126 -3.8126 -2.4958 0.9765
4.0755 -3.5314 -2.4962 0.9765
4.1993 -3.3840 -2.4964 0.9765
4.4307 -3.0763 -2.4968 0.9765
4.5380 -2.9164 -2.4970 0.9765
4.6396 -2.7528 -2.4972 0.9765
4.7353 -2.5857 -2.4974 0.9765
4.8250 -2.4152 -2.4976 0.9765
4.9086 -2.2417 -2.4978 0.9765
5.0570 -1.8862 -2.4983 0.9765
5.1216 -1.7046 -2.4986 0.9765
5.1797 -1.5209 -2.4988 0.9765
5.2312 -1.3352 -2.4991 0.9765
5.3142 -0.9588 -2.4996 0.9765
5.3456 -0.7686 -2.4999 0.9765
5.3702 -0.5774 -2.5001 0.9765
5.3989 -0.1928 -2.5007 0.9765
-5.1023 0.0000 -2.5028 0.9775
-5.0986 -0.1821 -2.5026 0.9775
-5.0715 -0.5452 -2.5020 0.9775
-5.0187 -0.9055 -2.5015 0.9775
-4.8916 -1.4363 -2.5007 0.9775
-4.8367 -1.6098 -2.5005 0.9775
-4.7086 -1.9504 -2.5000 0.9775
-4.6355 -2.1170 -2.4997 0.9776
-4.4718 -2.4418 -2.4993 0.9776
-4.3814 -2.5996 -2.4990 0.9776
-4.1840 -2.9050 -2.4985 0.9776
-4.0773 -3.0522 -2.4983 0.9776
-3.6002 -3.6002 -2.4975 0.9776
-3.3336 -3.8472 -2.4971 0.9776
-3.1939 -3.9635 -2.4969 0.9776
-3.0502 -4.0746 -2.4967 0.9776
-2.5967 -4.3764 -2.4962 0.9776
-2.4386 -4.4661 -2.4960 0.9776
-2.2776 -4.5500 -2.4959 0.9776
-2.1136 -4.6281 -2.4957 0.9776
-1.9469 -4.7004 -2.4956 0.9776
-1.4332 -4.8809 -2.4953 0.9776
-0.9031 -5.0055 -2.4950 0.9776
-0.5437 -5.0569 -2.4948 0.9776
-0.3628 -5.0730 -2.4948 0.9776
0.1815 -5.0825 -2.4947 0.9776
0.3628 -5.0727 -2.4947 0.9776
0.5436 -5.0565 -2.4946 0.9776
0.7238 -5.0339 -2.4946 0.9776
0.9030 -5.0049 -2.4947 0.9776
1.0811 -4.9695 -2.4947 0.9776
1.2578 -4.9278 -2.4947 0.9776
1.4329 -4.8799 -2.4947 0.9776
1.9464 -4.6990 -2.4949 0.9776
2.1129 -4.6267 -2.4950 0.9776
2.4378 -4.4645 -2.4951 0.9776
2.7503 -4.2796 -2.4954 0.9776
3.0489 -4.0728 -2.4956 0.9776
3.1925 -3.9616 -2.4957 0.9776
3.5983 -3.5983 -2.4962 0.9776
3.7247 -3.4678 -2.4963 0.9776
3.9631 -3.1937 -2.4967 0.9776
4.0749 -3.0504 -2.4969 0.9776
4.1815 -2.9033 -2.4970 0.9776
4.3787 -2.5980 -2.4974 0.9776
4.4690 -2.4402 -2.4976 0.9776
4.5536 -2.2794 -2.4979 0.9776
4.6325 -2.1156 -2.4981 0.9776
4.8334 -1.6087 -2.4988 0.9776
4.9368 -1.2600 -2.4992 0.9776
5.0948 -0.1820 -2.5007 0.9775
-4.8243 0.0000 -2.5028 0.9785
-4.8208 -0.1722 -2.5025 0.9785
-4.8111 -0.3441 -2.5023 0.9785
-4.7734 -0.6863 -2.5018 0.9785
-4.5734 -1.5222 -2.5006 0.9785
-4.5158 -1.6843 -2.5003 0.9785
-4.3086 -2.1567 -2.4996 0.9785
-4.2285 -2.3089 -2.4994 0.9785
-4.1430 -2.4582 -2.4992 0.9785
-3.9564 -2.7470 -2.4987 0.9785
-3.8555 -2.8862 -2.4985 0.9785
-3.5240 -3.2810 -2.4979 0.9785
-3.4044 -3.4044 -2.4977 0.9785
-3.2805 -3.5235 -2.4975 0.9785
-3.0203 -3.7480 -2.4971 0.9785
-2.8844 -3.8531 -2.4970 0.9785
-2.7449 -3.9534 -2.4968 0.9785
-2.6018 -4.0486 -2.4966 0.9785
-1.8412 -4.4450 -2.4959 0.9786
-0.6845 -4.7610 -2.4953 0.9786
-0.3431 -4.7975 -2.4952 0.9786
-0.1717 -4.8066 -2.4951 0.9786
0.3431 -4.7972 -2.4951 0.9786
0.5141 -4.7819 -2.4950 0.9786
0.6845 -4.7605 -2.4950 0.9786
1.0223 -4.6996 -2.4951 0.9786
1.1894 -4.6602 -2.4951 0.9786
1.3550 -4.6148 -2.4951 0.9786
1.6809 -4.5065 -2.4952 0.9786
1.8407 -4.4438 -2.4953 0.9786
1.9982 -4.3754 -2.4954 0.9786
2.3054 -4.2219 -2.4955 0.9786
2.8832 -3.8515 -2.4959 0.9786
3.1510 -3.6364 -2.4962 0.9786
3.2789 -3.5218 -2.4963 0.9785
3.4027 -3.4027 -2.4965 0.9785
3.5222 -3.2793 -2.4966 0.9785
3.6373 -3.1517 -2.4968 0.9785
3.8534 -2.8846 -2.4971 0.9785
4.2260 -2.3075 -2.4979 0.9785
4.6222 -1.3572 -2.4992 0.9785
4.6682 -1.1915 -2.4994 0.9785
4.7081 -1.0242 -2.4996 0.9785
4.7421 -0.8556 -2.4998 0.9785
4.7701 -0.6858 -2.5001 0.9785
4.7920 -0.5152 -2.5003 0.9785
4.8078 -0.3439 -2.5006 0.9785
4.8175 -0.1721 -2.5008 0.9785
-4.5695 0.0000 -2.5027 0.9794
-4.5662 -0.1631 -2.5025 0.9794
-4.5420 -0.4883 -2.5020 0.9794
-4.5213 -0.6501 -2.5018 0.9794
-4.4626 -0.9708 -2.5013 0.9794
-4.3811 -1.2864 -2.5009 0.9794
-4.3320 -1.4418 -2.5006 0.9794
-4.2774 -1.5954 -2.5004 0.9794
-4.1520 -1.8961 -2.5000 0.9794
-4.0813 -2.0429 -2.4997 0.9794
-3.9245 -2.3285 -2.4993 0.9794
-3.7477 -2.6021 -2.4989 0.9794
-3.6522 -2.7340 -2.4987 0.9794
-3.5520 -2.8624 -2.4985 0.9794
-3.2249 -3.2249 -2.4979 0.9794
-3.1075 -3.3377 -2.4977 0.9794
-2.7324 -3.6500 -2.4972 0.9794
-2.6002 -3.7450 -2.4971 0.9794
-2.4647 -3.8352 -2.4969 0.9794
-2.3261 -3.9205 -2.4968 0.9794
-2.1846 -4.0008 -2.4966 0.9794
-1.7441 -4.2107 -2.4963 0.9794
-1.4392 -4.3241 -2.4960 0.9794
-0.9686 -4.4527 -2.4958 0.9794
-0.4871 -4.5303 -2.4956 0.9794
-0.3250 -4.5447 -2.4955 0.9794
0.0000 -4.5562 -2.4955 0.9794
0.3250 -4.5445 -2.4954 0.9794
0.6484 -4.5098 -2.4954 0.9794
0.9685 -4.4520 -2.4954 0.9794
1.1268 -4.4147 -2.4955 0.9794
1.2836 -4.3717 -2.4955 0.9794
1.4389 -4.3232 -2.4955 0.9794
1.5923 -4.2692 -2.4956 0.9794
1.7437 -4.2097 -2.4956 0.9794
1.8929 -4.1449 -2.4957 0.9794
2.1839 -3.9995 -2.4959 0.9794
2.4638 -3.8338 -2.4960 0.9794
2.5992 -3.7436 -2.4961 0.9794
3.2234 -3.2234 -2.4968 0.9794
3.5502 -2.8609 -2.4972 0.9794
3.6503 -2.7325 -2.4974 0.9794
3.7457 -2.6007 -2.4976 0.9794
4.0031 -2.1859 -2.4981 0.9794
4.2748 -1.5944 -2.4989 0.9794
4.4219 -1.1286 -2.4995 0.9794
4.4919 -0.8104 -2.5000 0.9794
4.5184 -0.6496 -2.5002 0.9794
4.5391 -0.4880 -2.5004 0.9794
4.5540 -0.3257 -2.5006 0.9794
4.5632 -0.1630 -2.5009 0.9794
-4.3348 0.0000 -2.5027 0.9802
-4.3316 -0.1547 -2.5025 0.9802
-4.2640 -0.7693 -2.5016 0.9802
-4.2335 -0.9209 -2.5014 0.9802
-4.1097 -1.3678 -2.5007 0.9802
-4.0579 -1.5135 -2.5005 0.9802
-3.9389 -1.7988 -2.5001 0.9802
-3.8719 -1.9381 -2.4999 0.9802
-3.3698 -2.7156 -2.4987 0.9802
-3.0596 -3.0596 -2.4981 0.9802
-2.9482 -3.1666 -2.4980 0.9802
-2.7144 -3.3684 -2.4976 0.9802
-2.5923 -3.4629 -2.4975 0.9802
-2.4669 -3.5530 -2.4973 0.9802
-2.3384 -3.6386 -2.4972 0.9802
-2.2069 -3.7196 -2.4970 0.9802
-2.0726 -3.7958 -2.4969 0.9802
-1.9357 -3.8671 -2.4968 0.9802
-1.5111 -4.0513 -2.4964 0.9802
-1.3655 -4.1025 -2.4963 0.9802
-0.7676 -4.2545 -2.4960 0.9802
-0.4621 -4.2983 -2.4959 0.9802
-0.3084 -4.3119 -2.4959 0.9802
-0.1543 -4.3201 -2.4958 0.9802
0.1543 -4.3200 -2.4958 0.9802
0.6152 -4.2787 -2.4957 0.9802
0.9189 -4.2240 -2.4958 0.9802
1.0691 -4.1885 -2.4958 0.9802
1.5107 -4.0504 -2.4959 0.9802
1.7959 -3.9325 -2.4960 0.9802
1.9352 -3.8660 -2.4961 0.9802
2.2062 -3.7184 -2.4962 0.9802
2.3376 -3.6374 -2.4963 0.9802
2.4660 -3.5518 -2.4964 0.9802
2.7134 -3.3671 -2.4967 0.9802
2.8320 -3.2683 -2.4968 0.9802
2.9470 -3.1653 -2.4969 0.9802
3.0582 -3.0582 -2.4970 0.9802
3.1656 -2.9473 -2.4972 0.9802
3.2690 -2.8326 -2.4973 0.9802
3.5537 -2.4674 -2.4978 0.9802
3.6397 -2.3391 -2.4979 0.9802
3.8697 -1.9370 -2.4985 0.9802
3.9987 -1.6563 -2.4988 0.9802
4.1073 -1.3670 -2.4992 0.9802
4.1538 -1.2197 -2.4994 0.9802
4.1950 -1.0707 -2.4996 0.9802
4.3061 -0.4630 -2.5005 0.9802
4.3289 -0.1546 -2.5009 0.9802
