ply
format ascii 1.0
element vertex 1245
property float32 x
property float32 y
property float32 z
property float32 I
end_header
-36.0256 -26.9684 7.9350 0.8329
-33.6264 -27.0979 7.6149 0.8391
-20.8037 -27.7905 6.1211 0.8685
-16.6193 -28.0103 5.7429 0.8761
-14.1547 -28.2776 5.5759 0.8795
-12.9457 -28.3470 5.4949 0.8811
-12.4528 -30.0636 5.7378 0.8762
-11.5250 -30.8998 5.8151 0.8746
-9.4362 -43.3774 7.8275 0.8350
29.1423 -38.9295 8.5746 0.8208
29.3634 -36.4377 8.2515 0.8269
12.1372 -14.0071 3.2681 0.9275
29.4160 -31.5950 7.6118 0.8392
30.4864 -30.4864 7.6022 0.8394
32.9725 -30.6985 7.9437 0.8328
35.4960 -30.7574 8.2817 0.8263
33.0768 -15.1056 6.4117 0.8627
-39.1802 -27.2033 7.3071 0.8245
-33.6260 -27.0976 6.6158 0.8397
-31.4104 -27.2173 6.3671 0.8452
-27.4321 -27.4321 5.9432 0.8547
-25.7493 -27.6568 5.7889 0.8582
-23.9338 -27.6211 5.5989 0.8625
-22.4316 -27.8360 5.4766 0.8653
-16.6191 -28.0100 4.9894 0.8765
-16.4744 -32.9116 5.6383 0.8616
-9.1661 -35.9122 5.6779 0.8607
29.1419 -38.9291 7.4496 0.8214
29.4162 -31.5952 6.6132 0.8397
30.4860 -30.4860 6.6048 0.8399
32.9727 -30.6986 6.9016 0.8333
38.3594 -30.9119 7.5470 0.8193
33.0182 -15.0789 5.5606 0.8634
-41.5022 -26.6719 6.4243 0.8195
-38.6376 -26.8266 6.1253 0.8272
-32.7586 -24.5228 5.3287 0.8478
-27.7655 -27.7655 5.1133 0.8535
-26.1044 -32.3936 5.4175 0.8455
-20.8033 -27.7899 4.5205 0.8693
-20.1238 -28.9838 4.5948 0.8673
-20.9991 -32.6752 5.0579 0.8550
-16.6190 -28.0098 4.2412 0.8769
-6.9395 -12.7088 1.8856 0.9433
-12.9454 -28.3465 4.0580 0.8819
-14.1728 -37.9986 5.2812 0.8491
-9.5507 -32.5265 4.4144 0.8722
-9.4496 -43.4389 5.7889 0.8358
-5.2423 -48.7609 6.3863 0.8205
1.7550 -49.1391 6.4030 0.8201
12.1409 -14.0113 2.4143 0.9279
29.4163 -31.5954 5.6215 0.8402
32.9729 -30.6988 5.8667 0.8338
32.9590 -15.0518 4.7184 0.8640
-40.6152 -24.0981 5.0712 0.8270
-39.1903 -27.2103 5.1232 0.8254
-36.0239 -26.9671 4.8321 0.8344
-35.1941 -28.3612 4.8536 0.8337
-34.4595 -32.0830 5.0558 0.8274
-20.8031 -27.7896 3.7276 0.8697
-21.0067 -32.6871 4.1723 0.8553
-14.1879 -38.0393 4.3596 0.8493
-14.3766 -43.1947 4.8885 0.8326
-9.5506 -32.5262 3.6402 0.8725
-9.5166 -43.7472 4.8075 0.8352
1.7706 -49.5761 5.3270 0.8191
29.3624 -36.4365 5.0249 0.8284
30.4853 -30.4853 4.6295 0.8408
35.4946 -30.7562 5.0432 0.8278
38.3583 -30.9111 5.2900 0.8202
-39.2279 -27.2364 4.0427 0.8255
-31.5980 -27.3798 3.5393 0.8455
-34.4745 -32.0970 3.9874 0.8277
-23.9330 -27.6202 3.0938 0.8635
-26.2295 -32.5489 3.5387 0.8455
-20.8029 -27.7893 2.9386 0.8699
-6.9414 -12.7122 1.2261 0.9435
-16.4910 -32.9448 3.1188 0.8625
-13.7093 -33.0973 3.0326 0.8661
-14.2030 -38.0798 3.4405 0.8495
-14.3765 -43.1943 3.8537 0.8330
-9.5505 -32.5259 2.8696 0.8728
-9.5165 -43.7469 3.7899 0.8355
-7.0590 -49.0965 4.1989 0.8195
-3.4941 -48.8546 4.1462 0.8215
-1.7638 -49.3847 4.1832 0.8201
0.0000 -49.4080 4.1825 0.8201
3.5526 -49.6720 4.2156 0.8188
29.1410 -38.9278 4.1164 0.8227
29.3621 -36.4361 3.9613 0.8287
30.4849 -30.4849 3.6496 0.8411
32.8421 -14.9985 3.0563 0.8651
-35.6556 -24.7561 2.6917 0.8403
-36.0230 -26.9664 2.7904 0.8350
-35.1937 -28.3609 2.8028 0.8343
-34.3127 -31.9463 2.9072 0.8287
-23.9328 -27.6200 2.2663 0.8638
-26.1015 -32.3900 2.5795 0.8464
-20.8026 -27.7891 2.1526 0.8701
-20.1233 -28.9830 2.1880 0.8681
-16.6185 -28.0090 2.0196 0.8776
-16.4583 -32.8795 2.2800 0.8630
-13.7098 -33.0983 2.2215 0.8663
-14.0077 -37.5560 2.4856 0.8516
-14.3000 -42.9647 2.8079 0.8340
-9.5165 -43.7465 2.7761 0.8358
-6.9970 -48.6648 3.0488 0.8212
-5.2422 -48.7597 3.0410 0.8216
-3.4941 -48.8542 3.0372 0.8218
1.7550 -49.1379 3.0490 0.8211
5.3035 -49.3297 3.0766 0.8197
9.1139 -22.0028 1.4768 0.9090
29.2583 -36.3073 2.8915 0.8295
30.4845 -30.4845 2.6734 0.8413
32.9734 -30.6993 2.7937 0.8348
35.4936 -30.7554 2.9123 0.8284
38.3572 -30.9102 3.0547 0.8208
32.7844 -14.9721 2.2349 0.8655
-31.7114 -11.8277 1.3346 0.8733
-29.9959 -32.2179 1.7357 0.8384
-23.9325 -27.6197 1.4410 0.8639
-20.8024 -27.7888 1.3688 0.8703
-12.9448 -28.3453 1.2287 0.8827
-13.7096 -33.0980 1.4126 0.8664
-14.0528 -37.6769 1.5856 0.8513
-14.3461 -43.1030 1.7913 0.8337
-2.1508 -30.0719 1.1888 0.8863
0.0000 -49.5218 1.9527 0.8202
29.4907 -36.5957 1.8532 0.8285
12.7714 -13.7174 0.7390 0.9277
28.0700 -22.6202 1.4215 0.8656
21.7356 -13.9687 1.0188 0.9017
22.4306 -13.3087 1.0284 0.9009
32.7270 -14.9459 1.4186 0.8659
-31.6684 -11.8117 0.5709 0.8735
-39.2272 -27.2360 0.8067 0.8261
-34.3119 -31.9455 0.7919 0.8290
-29.9612 -32.1807 0.7427 0.8387
-26.1009 -32.3893 0.7027 0.8467
-20.8022 -27.7885 0.5864 0.8703
-20.1230 -28.9825 0.5960 0.8684
-16.4580 -32.8789 0.6211 0.8632
-13.4638 -32.5045 0.5943 0.8687
-9.9612 -29.9287 0.5328 0.8814
-9.1990 -36.0412 0.6283 0.8617
0.0000 -49.5261 0.8366 0.8203
29.3497 -39.2067 0.8273 0.8221
29.4909 -36.5959 0.7939 0.8286
30.4838 -30.4838 0.7282 0.8416
38.8136 -31.2780 0.8420 0.8192
22.8670 -14.6957 0.4592 0.8970
-31.6255 -11.7957 -0.1900 0.8737
-36.0216 -26.9654 -0.2533 0.8353
-35.1931 -28.3604 -0.2545 0.8346
-31.5972 -27.3792 -0.2354 0.8460
-34.3509 -31.9818 -0.2644 0.8288
-30.0273 -32.2516 -0.2481 0.8384
-23.9320 -27.6191 -0.2058 0.8640
-26.1585 -32.4607 -0.2347 0.8464
-20.7791 -27.7577 -0.1952 0.8705
-21.0166 -32.7025 -0.2189 0.8560
-16.4579 -32.8787 -0.2070 0.8632
-13.4436 -32.4557 -0.1978 0.8689
-14.0945 -37.7888 -0.2271 0.8510
-3.4940 -48.8530 -0.2758 0.8221
0.0000 -49.5301 -0.2789 0.8203
28.1529 -40.5479 -0.2779 0.8208
12.7445 -13.6885 -0.1053 0.9279
30.4834 -30.4834 -0.2427 0.8416
33.2728 -30.9781 -0.2560 0.8337
24.1532 -15.5223 -0.1616 0.8915
22.9065 -13.5910 -0.1500 0.8989
32.6696 -14.9197 -0.2022 0.8662
-39.2268 -27.2356 -1.3447 0.8261
-31.5970 -27.3790 -1.1772 0.8459
-27.7642 -27.7642 -1.1056 0.8546
-30.0269 -32.2512 -1.2408 0.8383
-23.9318 -27.6188 -1.0290 0.8640
-20.1226 -28.9821 -0.9935 0.8683
-16.6179 -28.0080 -0.9170 0.8778
-6.9461 -12.7208 -0.4081 0.9437
-16.4577 -32.8784 -1.0353 0.8632
-12.9444 -28.3444 -0.8774 0.8828
-13.4461 -32.4617 -0.9894 0.8688
-14.0943 -37.7883 -1.1356 0.8510
-9.8911 -29.7181 -0.8819 0.8822
-9.1988 -36.0406 -1.0474 0.8617
-3.4940 -48.8526 -1.3791 0.8220
10.6349 -31.9527 -0.9483 0.8739
27.3891 -39.4478 -1.3522 0.8252
29.3501 -39.2072 -1.3791 0.8220
29.4912 -36.5964 -1.3234 0.8286
38.8125 -31.2771 -1.4036 0.8192
22.8912 -14.7113 -0.7662 0.8968
32.6441 -14.9081 -1.0105 0.8662
-49.5413 0.0000 -2.5124 0.8200
-49.2927 -5.2995 -2.5142 0.8199
-48.7098 -8.7882 -2.5102 0.8202
-45.5269 -9.9038 -2.3629 0.8298
-44.7224 -13.1317 -2.3638 0.8297
-44.2336 -14.7224 -2.3643 0.8297
-41.4846 -18.9454 -2.3129 0.8331
-40.6914 -24.1433 -2.3995 0.8274
-39.9007 -25.6427 -2.4054 0.8270
-39.0528 -27.1148 -2.4111 0.8266
-35.1927 -28.3601 -2.2922 0.8344
-31.5968 -27.3788 -2.1203 0.8458
-26.1002 -32.3884 -2.1095 0.8465
-20.1224 -28.9818 -1.7893 0.8682
-6.9470 -12.7225 -0.7351 0.9436
-16.4576 -32.8781 -1.8646 0.8631
-14.0247 -37.6016 -2.0353 0.8515
-9.5500 -32.5241 -1.7191 0.8730
-9.1987 -36.0403 -1.8864 0.8616
-9.5161 -43.7447 -2.2704 0.8359
-8.7019 -48.2313 -2.4855 0.8218
-5.2403 -48.7416 -2.4861 0.8217
1.7483 -48.9520 -2.4841 0.8219
3.2232 -29.9801 -1.5292 0.8862
6.3444 -29.1647 -1.5137 0.8873
7.9534 -31.1612 -1.6310 0.8791
21.6490 -43.2493 -2.4528 0.8239
23.1397 -42.3771 -2.4486 0.8242
15.9672 -26.9113 -1.5869 0.8822
26.0086 -40.4702 -2.4397 0.8247
27.3831 -39.4391 -2.4350 0.8251
30.0027 -37.2310 -2.4249 0.8257
12.7177 -13.6598 -0.9465 0.9280
30.4301 -30.4301 -2.1825 0.8417
33.2152 -30.9244 -2.3015 0.8338
36.7126 -29.5849 -2.3912 0.8279
25.4941 -19.0846 -1.6150 0.8803
26.1493 -18.1558 -1.6145 0.8803
40.8421 -22.3014 -2.3599 0.8300
41.4980 -20.7724 -2.3535 0.8304
32.6187 -14.8965 -1.8186 0.8662
33.6776 -13.9497 -1.8487 0.8642
43.3453 -16.1670 -2.3462 0.8309
45.5508 -13.3749 -2.4076 0.8268
47.6888 -12.1719 -2.4960 0.8211
48.4093 -8.7340 -2.4947 0.8212
48.8832 -5.2555 -2.4934 0.8213
-34.2215 0.0000 -2.5092 0.8717
-34.2054 -1.2217 -2.5096 0.8717
-34.1457 -2.4422 -2.5100 0.8717
-33.8952 -4.8734 -2.5108 0.8717
-33.7047 -6.0810 -2.5112 0.8717
-33.4711 -7.2812 -2.5116 0.8716
-33.1947 -8.4724 -2.5119 0.8716
-32.7762 -9.6240 -2.5047 0.8720
-28.2630 -15.4328 -2.3611 0.8788
-18.5638 -11.0144 -1.5827 0.9171
-17.2246 -11.0696 -1.5013 0.9212
-23.0307 -23.0306 -2.3881 0.8775
-22.2231 -23.8693 -2.3913 0.8774
-21.3837 -24.6782 -2.3943 0.8772
-9.0903 -11.2803 -1.0622 0.9436
-8.4695 -11.3139 -1.0362 0.9449
-18.6862 -26.9133 -2.4023 0.8769
-17.7315 -27.5908 -2.4048 0.8767
-6.9480 -12.7243 -1.0630 0.9435
-12.6010 -30.4215 -2.4143 0.8763
-11.5139 -30.8701 -2.4158 0.8762
-9.2910 -31.6421 -2.4180 0.8761
-7.0145 -32.2451 -2.4196 0.8760
-2.2026 -30.7961 -2.2638 0.8835
3.2229 -29.9772 -2.2107 0.8861
4.8726 -27.0071 -2.0122 0.8958
5.7113 -26.2545 -1.9701 0.8978
7.2157 -28.2706 -2.1393 0.8896
8.1330 -27.6983 -2.1166 0.8907
10.1818 -27.2984 -2.1363 0.8897
14.6455 -29.2579 -2.3990 0.8770
15.6624 -28.6836 -2.3963 0.8772
17.6252 -27.4253 -2.3903 0.8774
12.1573 -14.0302 -1.3612 0.9282
24.3446 -21.0947 -2.3619 0.8788
25.6992 -19.2382 -2.3538 0.8792
26.3325 -18.2830 -2.3505 0.8793
28.1192 -15.3543 -2.3491 0.8794
29.1314 -13.3038 -2.3482 0.8795
30.2861 -12.5449 -2.4036 0.8768
31.9372 -11.9120 -2.4993 0.8722
33.0085 -8.4249 -2.4978 0.8723
33.5128 -6.0464 -2.4969 0.8723
34.0077 -1.2146 -2.4951 0.8724
-26.1048 -0.9323 -2.5078 0.9004
-25.9783 -2.7930 -2.5084 0.9003
-25.8651 -3.7189 -2.5087 0.9003
-25.7189 -4.6402 -2.5090 0.9003
-24.8073 -8.2567 -2.5101 0.9003
-24.4992 -9.1377 -2.5103 0.9003
-24.0906 -9.9786 -2.5034 0.9005
-22.3420 -10.2032 -2.3580 0.9060
-18.5653 -11.0153 -2.0725 0.9169
-17.1723 -11.0360 -1.9597 0.9212
-15.9551 -11.0778 -1.8648 0.9249
-19.6710 -14.7255 -2.3590 0.9060
-17.9952 -16.7541 -2.3605 0.9059
-17.4037 -17.4037 -2.3629 0.9058
-16.1490 -18.6370 -2.3675 0.9057
-9.0902 -11.2802 -1.3908 0.9434
-14.1002 -20.3082 -2.3736 0.9054
-6.9489 -12.7260 -1.3920 0.9434
-6.1482 -16.4841 -1.6890 0.9317
-6.9998 -23.8390 -2.3853 0.9050
-2.6580 -24.7232 -2.3872 0.9049
-0.0000 -16.8688 -1.6195 0.9345
4.4077 -24.4304 -2.3833 0.9051
6.9836 -23.7838 -2.3798 0.9052
7.8233 -23.5052 -2.3783 0.9052
6.3737 -17.0886 -1.7510 0.9293
10.2692 -22.4863 -2.3733 0.9054
11.8275 -21.6604 -2.3693 0.9056
12.5817 -21.2052 -2.3672 0.9057
17.3239 -17.3239 -2.3521 0.9062
13.8716 -12.9149 -1.8196 0.9267
18.5101 -16.0391 -2.3514 0.9063
24.0609 -9.9663 -2.5003 0.9006
24.7032 -8.2220 -2.4995 0.9007
24.9772 -7.3340 -2.4992 0.9007
25.2194 -6.4369 -2.4988 0.9007
25.6070 -4.6200 -2.4981 0.9007
-21.1001 0.0000 -2.5064 0.9185
-21.0889 -0.7532 -2.5067 0.9185
-21.0507 -1.5056 -2.5069 0.9185
-20.9856 -2.2562 -2.5072 0.9185
-20.7752 -3.7483 -2.5076 0.9185
-20.6300 -4.4878 -2.5079 0.9185
-20.4585 -5.2217 -2.5081 0.9185
-19.7879 -7.3805 -2.5087 0.9184
-18.8896 -9.4555 -2.5092 0.9184
-17.3882 -10.3169 -2.4017 0.9218
-16.6926 -10.7277 -2.3570 0.9232
-15.8864 -11.8924 -2.3572 0.9232
-14.5258 -13.5240 -2.3575 0.9232
-14.0343 -14.0343 -2.3576 0.9232
-13.5248 -14.5267 -2.3577 0.9232
-9.0901 -11.2801 -1.7208 0.9433
-11.3205 -16.3046 -2.3578 0.9232
-8.8978 -17.7755 -2.3612 0.9231
-7.6134 -18.3804 -2.3632 0.9230
-5.6399 -16.9452 -2.1214 0.9306
-5.6102 -19.1067 -2.3654 0.9229
-4.9258 -19.2991 -2.3660 0.9229
-3.5376 -19.6075 -2.3667 0.9229
-1.4215 -19.8758 -2.3670 0.9229
-0.7112 -19.9127 -2.3669 0.9229
0.0000 -19.9236 -2.3666 0.9229
2.1286 -19.7985 -2.3653 0.9229
2.8331 -19.7045 -2.3647 0.9229
2.6757 -12.3001 -1.4953 0.9506
7.5946 -18.3350 -2.3574 0.9232
8.2392 -18.0414 -2.3560 0.9232
8.8722 -17.7244 -2.3545 0.9233
9.4965 -17.3915 -2.3538 0.9233
10.7106 -16.6660 -2.3533 0.9233
11.3648 -15.1816 -2.2527 0.9265
14.9581 -12.9613 -2.3511 0.9234
15.4093 -12.4176 -2.3508 0.9234
15.8408 -11.8583 -2.3505 0.9234
18.1133 -10.7471 -2.5018 0.9187
18.8292 -9.4252 -2.5012 0.9187
20.1913 -5.9287 -2.4997 0.9187
20.3876 -5.2036 -2.4994 0.9187
20.5579 -4.4721 -2.4991 0.9187
20.9757 -1.5002 -2.4980 0.9188
21.0136 -0.7505 -2.4977 0.9188
-17.6746 -0.6312 -2.5059 0.9310
-17.5875 -1.8909 -2.5063 0.9310
-17.5102 -2.5176 -2.5065 0.9310
-16.7911 -5.5886 -2.5074 0.9310
-16.1005 -7.3529 -2.5079 0.9310
-15.8287 -7.9233 -2.5080 0.9310
-15.5367 -8.4837 -2.5082 0.9310
-14.8933 -9.5714 -2.5084 0.9310
-14.5314 -10.0893 -2.5066 0.9310
-11.3324 -12.1719 -2.3564 0.9350
-9.0900 -11.2800 -2.0526 0.9432
-8.4692 -11.3136 -2.0024 0.9445
-7.6939 -11.9720 -2.0164 0.9441
-7.1289 -12.0151 -1.9795 0.9451
-6.0553 -12.0969 -1.9167 0.9468
-6.3644 -15.3651 -2.3564 0.9350
-5.2519 -15.7793 -2.3563 0.9350
-4.6852 -15.9563 -2.3563 0.9350
-4.1126 -16.1129 -2.3562 0.9350
-3.5347 -16.2489 -2.3561 0.9350
-2.3664 -16.4585 -2.3560 0.9350
-1.1861 -16.5839 -2.3558 0.9350
-0.5934 -16.6149 -2.3556 0.9350
1.1859 -16.5804 -2.3553 0.9351
1.7768 -16.5264 -2.3551 0.9351
2.2466 -12.4520 -1.7928 0.9502
4.1095 -16.1010 -2.3545 0.9351
5.8057 -15.5658 -2.3539 0.9351
6.9002 -15.1094 -2.3535 0.9351
7.4345 -14.8523 -2.3533 0.9351
7.9592 -14.5761 -2.3531 0.9351
8.4736 -14.2815 -2.3529 0.9351
9.9489 -13.2902 -2.3522 0.9351
11.3092 -12.1470 -2.3516 0.9351
11.7344 -11.7344 -2.3513 0.9352
12.4502 -11.5915 -2.4103 0.9336
13.3175 -11.5397 -2.4968 0.9313
14.8557 -9.5472 -2.5021 0.9311
15.4958 -8.4613 -2.5016 0.9312
16.0566 -7.3328 -2.5011 0.9312
16.3064 -6.7543 -2.5008 0.9312
16.9299 -4.9711 -2.5001 0.9312
17.2380 -3.7499 -2.4996 0.9312
17.3592 -3.1319 -2.4993 0.9312
17.4582 -2.5101 -2.4991 0.9312
17.5896 -1.2580 -2.4986 0.9312
-15.2068 0.0000 -2.5051 0.9402
-15.1982 -0.5428 -2.5053 0.9402
-15.1703 -1.0850 -2.5055 0.9402
-15.1229 -1.6259 -2.5057 0.9402
-15.0563 -2.1648 -2.5059 0.9402
-14.9705 -2.7010 -2.5060 0.9402
-14.8655 -3.2338 -2.5062 0.9402
-14.7415 -3.7626 -2.5064 0.9402
-14.4373 -4.8052 -2.5067 0.9402
-14.2574 -5.3177 -2.5068 0.9402
-14.0593 -5.8235 -2.5069 0.9402
-13.6093 -6.8124 -2.5072 0.9402
-12.5034 -8.6813 -2.5076 0.9402
-12.1860 -9.1223 -2.5077 0.9402
-10.6001 -10.6001 -2.4696 0.9410
-9.9098 -10.6439 -2.3958 0.9427
-9.3634 -10.8059 -2.3555 0.9437
-8.9718 -11.1334 -2.3555 0.9437
-8.4956 -11.3488 -2.3354 0.9442
-8.1549 -11.7452 -2.3556 0.9437
-7.6276 -11.8687 -2.3242 0.9444
-7.0674 -11.9114 -2.2817 0.9454
-5.4717 -13.2099 -2.3555 0.9437
-4.9967 -13.3966 -2.3555 0.9437
-4.0281 -13.7184 -2.3554 0.9437
-3.5358 -13.8531 -2.3553 0.9437
-2.5384 -14.0692 -2.3552 0.9437
-1.0198 -14.2584 -2.3549 0.9437
-0.5102 -14.2851 -2.3548 0.9437
0.0000 -14.2936 -2.3547 0.9437
1.0196 -14.2558 -2.3545 0.9437
1.5277 -14.2095 -2.3544 0.9437
4.0252 -13.7084 -2.3537 0.9437
4.5116 -13.5551 -2.3535 0.9437
5.4663 -13.1969 -2.3532 0.9437
6.3929 -12.7714 -2.3528 0.9437
7.7197 -12.0121 -2.3523 0.9438
8.1428 -11.7279 -2.3521 0.9438
9.2245 -11.4469 -2.4218 0.9421
10.3496 -11.1163 -2.5021 0.9403
11.1210 -10.3540 -2.5032 0.9403
11.8292 -9.5326 -2.5027 0.9403
13.8107 -6.3071 -2.5012 0.9403
14.0258 -5.8097 -2.5010 0.9403
14.4020 -4.7934 -2.5005 0.9403
14.5626 -4.2760 -2.5003 0.9403
14.8281 -3.2257 -2.4999 0.9403
14.9325 -2.6941 -2.4997 0.9403
15.1312 -1.0822 -2.4991 0.9404
15.1591 -0.5414 -2.4989 0.9404
-13.3259 0.0000 -2.5047 0.9472
-13.2937 -0.9508 -2.5051 0.9472
-13.2521 -1.4248 -2.5052 0.9472
-13.0262 -2.8337 -2.5057 0.9472
-12.9175 -3.2970 -2.5058 0.9472
-12.7922 -3.7561 -2.5059 0.9472
-12.6507 -4.2106 -2.5061 0.9472
-12.4929 -4.6596 -2.5062 0.9472
-12.3192 -5.1028 -2.5063 0.9472
-12.1298 -5.5395 -2.5064 0.9472
-11.9249 -5.9692 -2.5065 0.9472
-11.7047 -6.3912 -2.5066 0.9472
-11.2197 -7.2105 -2.5068 0.9472
-10.6774 -7.9930 -2.5070 0.9472
-9.4321 -9.4321 -2.5072 0.9472
-9.0896 -9.7629 -2.5073 0.9472
-8.3625 -10.3773 -2.5050 0.9472
-7.9730 -10.6507 -2.5007 0.9473
-6.9227 -10.7720 -2.4068 0.9492
-5.2044 -11.3960 -2.3548 0.9503
-4.7943 -11.5744 -2.3548 0.9503
-4.3780 -11.7380 -2.3547 0.9503
-3.9562 -11.8866 -2.3547 0.9503
-3.0981 -12.1380 -2.3546 0.9503
-1.7827 -12.3987 -2.3544 0.9503
-0.8935 -12.4934 -2.3543 0.9503
0.0000 -12.5244 -2.3541 0.9503
0.4470 -12.5159 -2.3540 0.9503
1.7821 -12.3947 -2.3537 0.9503
2.2232 -12.3225 -2.3536 0.9503
2.6615 -12.2347 -2.3534 0.9503
3.0963 -12.1312 -2.3533 0.9503
3.9534 -11.8781 -2.3530 0.9503
4.3746 -11.7287 -2.3529 0.9503
5.1995 -11.3853 -2.3526 0.9503
6.7292 -11.3415 -2.4787 0.9477
7.1895 -11.1871 -2.4995 0.9473
7.9834 -10.6645 -2.5039 0.9472
8.7225 -10.0664 -2.5036 0.9472
9.0756 -9.7479 -2.5034 0.9472
9.7464 -9.0742 -2.5030 0.9472
10.3673 -8.3545 -2.5026 0.9473
10.6581 -7.9786 -2.5024 0.9473
11.4472 -6.7920 -2.5019 0.9473
11.9008 -5.9571 -2.5015 0.9473
12.1049 -5.5281 -2.5013 0.9473
12.6235 -4.2015 -2.5007 0.9473
12.8892 -3.2898 -2.5003 0.9473
12.9974 -2.8274 -2.5001 0.9473
13.2223 -1.4216 -2.4996 0.9473
13.2637 -0.9486 -2.4994 0.9473
13.2882 -0.4746 -2.4993 0.9473
-11.8480 0.0000 -2.5044 0.9527
-11.8412 -0.4229 -2.5046 0.9527
-11.8192 -0.8453 -2.5047 0.9527
-11.7301 -1.6865 -2.5050 0.9527
-11.6630 -2.1042 -2.5051 0.9527
-11.5811 -2.5193 -2.5053 0.9527
-11.4843 -2.9312 -2.5054 0.9527
-11.3729 -3.3394 -2.5055 0.9527
-11.1067 -4.1426 -2.5057 0.9527
-10.9522 -4.5366 -2.5058 0.9527
-10.7838 -4.9248 -2.5059 0.9527
-10.6015 -5.3068 -2.5060 0.9527
-10.4057 -5.6820 -2.5061 0.9527
-10.1966 -6.0500 -2.5062 0.9527
-9.9745 -6.4102 -2.5063 0.9527
-9.7397 -6.7624 -2.5063 0.9527
-8.6789 -8.0804 -2.5066 0.9527
-8.3852 -8.3852 -2.5066 0.9527
-7.4411 -9.2338 -2.5067 0.9527
-7.1068 -9.4936 -2.5067 0.9527
-6.7635 -9.7412 -2.5068 0.9527
-5.6816 -10.4052 -2.5060 0.9527
-5.3006 -10.5893 -2.5031 0.9527
-3.2103 -10.9334 -2.4087 0.9545
-1.5848 -11.0225 -2.3539 0.9555
-1.1903 -11.0718 -2.3538 0.9555
-0.7944 -11.1069 -2.3538 0.9555
-0.3974 -11.1278 -2.3537 0.9555
0.3974 -11.1270 -2.3535 0.9555
0.7954 -11.1211 -2.3568 0.9554
2.0140 -11.1631 -2.3978 0.9547
2.4315 -11.1775 -2.4180 0.9543
4.5305 -10.9376 -2.5025 0.9528
4.9222 -10.7782 -2.5046 0.9527
5.3035 -10.5950 -2.5045 0.9527
5.6780 -10.3984 -2.5043 0.9527
6.4045 -9.9656 -2.5040 0.9527
7.4317 -9.2221 -2.5036 0.9527
7.7556 -8.9504 -2.5034 0.9527
8.3732 -8.3732 -2.5031 0.9527
8.6662 -8.0685 -2.5029 0.9527
9.4771 -7.0944 -2.5024 0.9528
9.7236 -6.7512 -2.5022 0.9528
10.1790 -6.0395 -2.5019 0.9528
10.5825 -5.2972 -2.5015 0.9528
10.7641 -4.9158 -2.5013 0.9528
11.3510 -3.3330 -2.5007 0.9528
11.4620 -2.9255 -2.5005 0.9528
11.5583 -2.5144 -2.5003 0.9528
11.6399 -2.1001 -2.5002 0.9528
11.7067 -1.6832 -2.5000 0.9528
11.7586 -1.2642 -2.4999 0.9528
11.8174 -0.4221 -2.4996 0.9528
-10.6488 -0.3803 -2.5043 0.9572
-10.5956 -1.1392 -2.5046 0.9572
-10.5487 -1.5167 -2.5047 0.9572
-10.2274 -3.0030 -2.5051 0.9571
-9.9879 -3.7253 -2.5053 0.9571
-9.8489 -4.0796 -2.5054 0.9571
-9.6974 -4.4286 -2.5055 0.9571
-9.5334 -4.7721 -2.5056 0.9571
-9.1693 -5.4404 -2.5058 0.9571
-8.9695 -5.7644 -2.5058 0.9571
-8.7583 -6.0810 -2.5059 0.9571
-8.0586 -6.9828 -2.5061 0.9571
-7.2664 -7.8046 -2.5062 0.9571
-6.9832 -8.0591 -2.5062 0.9571
-6.6912 -8.3033 -2.5062 0.9571
-6.0819 -8.7596 -2.5063 0.9571
-5.7654 -8.9711 -2.5063 0.9571
-5.4415 -9.1712 -2.5063 0.9571
-4.7733 -9.5360 -2.5063 0.9571
-4.0808 -9.8520 -2.5062 0.9571
-3.7266 -9.9913 -2.5062 0.9571
-3.3675 -10.1178 -2.5062 0.9571
-2.2666 -10.4193 -2.5060 0.9571
-1.8932 -10.4933 -2.5060 0.9571
-1.5173 -10.5530 -2.5057 0.9571
-0.7603 -10.6306 -2.5048 0.9572
-0.0000 -10.6576 -2.5048 0.9572
1.1395 -10.5991 -2.5054 0.9571
1.5170 -10.5512 -2.5053 0.9571
2.6359 -10.3273 -2.5050 0.9571
3.0027 -10.2262 -2.5049 0.9572
3.3656 -10.1120 -2.5047 0.9572
3.7242 -9.9850 -2.5046 0.9572
4.0780 -9.8452 -2.5045 0.9572
4.4266 -9.6929 -2.5044 0.9572
4.7695 -9.5282 -2.5042 0.9572
5.4365 -9.1627 -2.5040 0.9572
5.7597 -8.9623 -2.5038 0.9572
6.0756 -8.7505 -2.5037 0.9572
6.3837 -8.5276 -2.5035 0.9572
6.6836 -8.2939 -2.5034 0.9572
6.9750 -8.0495 -2.5032 0.9572
7.5305 -7.5305 -2.5029 0.9572
7.7941 -7.2565 -2.5028 0.9572
8.0476 -6.9733 -2.5026 0.9572
8.2909 -6.6812 -2.5025 0.9572
8.5235 -6.3806 -2.5023 0.9572
8.7453 -6.0720 -2.5022 0.9572
9.8325 -4.0727 -2.5012 0.9572
10.0967 -3.3605 -2.5009 0.9572
10.2096 -2.9978 -2.5008 0.9572
10.4697 -1.8890 -2.5004 0.9572
10.5299 -1.5140 -2.5002 0.9572
10.5766 -1.1371 -2.5001 0.9572
-9.6709 0.0000 -2.5040 0.9608
-9.6168 -1.0339 -2.5043 0.9608
-9.5742 -1.3766 -2.5044 0.9608
-9.5194 -1.7175 -2.5045 0.9608
-9.2824 -2.7256 -2.5048 0.9608
-8.8013 -4.0194 -2.5052 0.9608
-8.6525 -4.3311 -2.5053 0.9608
-8.3219 -4.9376 -2.5054 0.9608
-7.9488 -5.5190 -2.5055 0.9608
-7.5352 -6.0722 -2.5056 0.9608
-6.8433 -6.8433 -2.5058 0.9608
-6.3378 -7.3142 -2.5058 0.9608
-6.0727 -7.5358 -2.5058 0.9608
-5.5197 -7.9499 -2.5059 0.9608
-5.2325 -8.1419 -2.5059 0.9608
-4.6383 -8.4944 -2.5059 0.9608
-4.3321 -8.6545 -2.5059 0.9608
-4.0204 -8.8036 -2.5058 0.9608
-3.7036 -8.9414 -2.5058 0.9608
-3.3821 -9.0678 -2.5058 0.9608
-3.0563 -9.1826 -2.5058 0.9608
-2.7265 -9.2857 -2.5057 0.9608
-2.0571 -9.4563 -2.5057 0.9608
-1.0344 -9.6214 -2.5055 0.9608
-0.6903 -9.6519 -2.5054 0.9608
1.7177 -9.5207 -2.5049 0.9608
2.0564 -9.4530 -2.5048 0.9608
2.3924 -9.3732 -2.5047 0.9608
2.7253 -9.2814 -2.5046 0.9608
3.0547 -9.1779 -2.5045 0.9608
3.7013 -8.9358 -2.5043 0.9608
4.3289 -8.6481 -2.5040 0.9608
4.6346 -8.4877 -2.5039 0.9608
5.5145 -7.9425 -2.5035 0.9608
6.0665 -7.5280 -2.5033 0.9608
6.5873 -7.0753 -2.5030 0.9608
7.7368 -5.7917 -2.5023 0.9609
7.9381 -5.5115 -2.5022 0.9609
8.4804 -4.6306 -2.5017 0.9609
8.6398 -4.3248 -2.5016 0.9609
9.0510 -3.3759 -2.5012 0.9609
9.2678 -2.7213 -2.5009 0.9609
9.5040 -1.7147 -2.5005 0.9609
9.5587 -1.3743 -2.5004 0.9609
9.6012 -1.0322 -2.5002 0.9609
-8.8392 -0.3157 -2.5039 0.9639
-8.7949 -0.9456 -2.5041 0.9639
-8.7057 -1.5707 -2.5043 0.9639
-8.6444 -1.8805 -2.5044 0.9639
-8.5721 -2.1879 -2.5045 0.9639
-8.1746 -3.3860 -2.5048 0.9639
-8.0488 -3.6758 -2.5049 0.9639
-7.2691 -5.0471 -2.5052 0.9639
-7.0845 -5.3034 -2.5053 0.9639
-6.8908 -5.5530 -2.5053 0.9639
-6.4773 -6.0306 -2.5054 0.9639
-6.0308 -6.4775 -2.5055 0.9639
-5.7958 -6.6887 -2.5055 0.9639
-5.5534 -6.8913 -2.5055 0.9639
-5.3039 -7.0852 -2.5055 0.9639
-4.7850 -7.4456 -2.5055 0.9639
-4.2416 -7.7680 -2.5055 0.9639
-3.6766 -8.0507 -2.5055 0.9639
-3.3869 -8.1767 -2.5055 0.9639
-2.7949 -8.3974 -2.5054 0.9639
-2.1887 -8.5751 -2.5054 0.9639
-1.2594 -8.7595 -2.5052 0.9639
-0.6313 -8.8266 -2.5051 0.9639
-0.3158 -8.8433 -2.5051 0.9639
0.3158 -8.8428 -2.5049 0.9639
0.6312 -8.8257 -2.5049 0.9639
2.4923 -8.4881 -2.5044 0.9639
2.7936 -8.3934 -2.5043 0.9639
3.0913 -8.2880 -2.5042 0.9639
4.2386 -7.7624 -2.5037 0.9639
4.5127 -7.6058 -2.5036 0.9639
5.0433 -7.2638 -2.5034 0.9639
5.2991 -7.0788 -2.5033 0.9639
5.5482 -6.8848 -2.5031 0.9639
5.7901 -6.6821 -2.5030 0.9639
6.0246 -6.4709 -2.5029 0.9639
6.2514 -6.2514 -2.5028 0.9639
6.4702 -6.0240 -2.5026 0.9639
7.2602 -5.0408 -2.5021 0.9639
7.9020 -3.9555 -2.5016 0.9639
8.0378 -3.6707 -2.5015 0.9639
8.1632 -3.3813 -2.5014 0.9639
8.2783 -3.0877 -2.5012 0.9639
8.3828 -2.7901 -2.5011 0.9639
8.6928 -1.5684 -2.5006 0.9639
8.7429 -1.2570 -2.5005 0.9639
8.8094 -0.6301 -2.5003 0.9639
8.8259 -0.3152 -2.5001 0.9640
-8.0942 -0.8702 -2.5039 0.9665
-8.0583 -1.1586 -2.5040 0.9665
-8.0121 -1.4455 -2.5041 0.9665
-7.7258 -2.5714 -2.5045 0.9665
-7.6293 -2.8456 -2.5045 0.9665
-7.4073 -3.3828 -2.5047 0.9665
-7.2820 -3.6451 -2.5047 0.9665
-7.1475 -3.9028 -2.5048 0.9665
-7.0038 -4.1555 -2.5049 0.9665
-6.3416 -5.1104 -2.5050 0.9665
-5.7592 -5.7592 -2.5052 0.9665
-5.3338 -6.1555 -2.5052 0.9665
-5.1107 -6.3420 -2.5052 0.9665
-4.8811 -6.5204 -2.5052 0.9665
-4.6453 -6.6905 -2.5052 0.9665
-3.9035 -7.1487 -2.5052 0.9665
-3.6459 -7.2835 -2.5052 0.9665
-3.1169 -7.5249 -2.5052 0.9665
-2.8463 -7.6313 -2.5052 0.9665
-2.5721 -7.7280 -2.5052 0.9665
-2.2946 -7.8148 -2.5051 0.9665
-0.8706 -8.0974 -2.5049 0.9665
-0.5810 -8.1231 -2.5049 0.9665
-0.2907 -8.1385 -2.5048 0.9665
0.0000 -8.1435 -2.5048 0.9665
0.2907 -8.1381 -2.5047 0.9665
0.5809 -8.1223 -2.5046 0.9665
1.1588 -8.0597 -2.5045 0.9665
2.5710 -7.7246 -2.5041 0.9665
2.8450 -7.6277 -2.5040 0.9665
3.1153 -7.5210 -2.5039 0.9665
3.9009 -7.1440 -2.5036 0.9665
4.4003 -6.8469 -2.5034 0.9665
4.8771 -6.5150 -2.5032 0.9665
5.3290 -6.1499 -2.5029 0.9665
5.5448 -5.9556 -2.5028 0.9665
5.9550 -5.5443 -2.5026 0.9665
6.3348 -5.1049 -2.5024 0.9665
6.9955 -4.1506 -2.5019 0.9665
7.2730 -3.6406 -2.5016 0.9665
7.7157 -2.5680 -2.5012 0.9665
7.9449 -1.7283 -2.5008 0.9665
8.0831 -0.8690 -2.5005 0.9666
8.1086 -0.5799 -2.5004 0.9666
8.1238 -0.2901 -2.5003 0.9666
-7.5315 -0.0000 -2.5035 0.9688
-7.4559 -1.0720 -2.5039 0.9687
-6.7376 -3.3726 -2.5045 0.9687
-6.6131 -3.6110 -2.5046 0.9687
-6.3389 -4.0738 -2.5047 0.9687
-6.0323 -4.5157 -2.5048 0.9687
-5.8674 -4.7283 -2.5048 0.9687
-5.5153 -5.1349 -2.5049 0.9687
-4.0743 -6.3397 -2.5050 0.9687
-3.6116 -6.6142 -2.5050 0.9687
-3.1305 -6.8549 -2.5050 0.9687
-2.8838 -6.9622 -2.5050 0.9687
-2.3798 -7.1501 -2.5049 0.9687
-1.0724 -7.4585 -2.5048 0.9687
0.5375 -7.5151 -2.5044 0.9687
0.8054 -7.4909 -2.5044 0.9687
1.3376 -7.4139 -2.5042 0.9687
1.6013 -7.3612 -2.5041 0.9687
1.8630 -7.2992 -2.5041 0.9687
2.1223 -7.2278 -2.5040 0.9687
2.3788 -7.1472 -2.5039 0.9687
2.6323 -7.0575 -2.5038 0.9687
2.8824 -6.9588 -2.5037 0.9687
3.1289 -6.8513 -2.5036 0.9688
3.3713 -6.7350 -2.5036 0.9688
3.6094 -6.6101 -2.5035 0.9688
4.5127 -6.0282 -2.5031 0.9688
5.5101 -5.1301 -2.5025 0.9688
5.8615 -4.7235 -2.5023 0.9688
6.1830 -4.2930 -2.5021 0.9688
6.3321 -4.0694 -2.5020 0.9688
6.4730 -3.8406 -2.5019 0.9688
6.6056 -3.6069 -2.5018 0.9688
7.1396 -2.3763 -2.5012 0.9688
7.3517 -1.5993 -2.5009 0.9688
7.4038 -1.3358 -2.5008 0.9688
7.4465 -1.0706 -2.5007 0.9688
7.4797 -0.8042 -2.5006 0.9688
-7.0004 0.0000 -2.5034 0.9707
-6.9831 -0.4994 -2.5036 0.9707
-6.8903 -1.2432 -2.5038 0.9707
-6.7845 -1.7316 -2.5040 0.9707
-6.6440 -2.2114 -2.5041 0.9707
-6.4697 -2.6798 -2.5042 0.9707
-6.3701 -2.9091 -2.5043 0.9707
-6.2623 -3.1347 -2.5043 0.9707
-6.1466 -3.3563 -2.5044 0.9707
-5.8917 -3.7864 -2.5045 0.9707
-5.7529 -3.9943 -2.5045 0.9707
-5.6068 -4.1972 -2.5046 0.9707
-5.4535 -4.3947 -2.5046 0.9707
-5.2932 -4.5866 -2.5046 0.9707
-5.1262 -4.7726 -2.5047 0.9707
-4.9526 -4.9526 -2.5047 0.9707
-4.7727 -5.1263 -2.5047 0.9707
-4.5868 -5.2934 -2.5047 0.9707
-4.1975 -5.6072 -2.5048 0.9707
-3.9947 -5.7535 -2.5048 0.9707
-3.7868 -5.8924 -2.5048 0.9707
-3.5741 -6.0238 -2.5048 0.9707
-3.3568 -6.1475 -2.5048 0.9707
-3.1352 -6.2634 -2.5048 0.9707
-2.9097 -6.3713 -2.5048 0.9707
-2.6804 -6.4710 -2.5047 0.9707
-2.4477 -6.5625 -2.5047 0.9707
-1.4888 -6.8438 -2.5046 0.9707
-1.2435 -6.8925 -2.5046 0.9707
-0.7486 -6.9634 -2.5045 0.9707
0.0000 -7.0031 -2.5044 0.9707
0.2500 -6.9985 -2.5043 0.9707
0.7485 -6.9625 -2.5042 0.9707
1.7316 -6.7844 -2.5039 0.9707
2.4467 -6.5598 -2.5037 0.9707
2.9082 -6.3681 -2.5035 0.9707
3.3549 -6.1440 -2.5034 0.9707
3.5719 -6.0201 -2.5033 0.9707
3.7844 -5.8886 -2.5032 0.9707
3.9920 -5.7496 -2.5031 0.9707
4.3916 -5.4497 -2.5029 0.9707
4.7689 -5.1221 -2.5027 0.9707
4.9484 -4.9485 -2.5026 0.9707
5.1217 -4.7685 -2.5025 0.9707
5.4484 -4.3906 -2.5023 0.9707
5.7473 -3.9904 -2.5021 0.9707
6.0168 -3.5699 -2.5019 0.9707
6.2557 -3.1314 -2.5017 0.9707
6.3632 -2.9060 -2.5016 0.9707
6.5537 -2.4444 -2.5014 0.9707
6.6365 -2.2089 -2.5013 0.9707
6.7767 -1.7296 -2.5011 0.9707
6.9219 -0.9952 -2.5008 0.9707
6.9528 -0.7475 -2.5007 0.9707
6.9879 -0.2496 -2.5005 0.9707
-6.5284 -0.2332 -2.5034 0.9724
-6.5161 -0.4660 -2.5035 0.9724
-6.4955 -0.6983 -2.5035 0.9724
-6.4666 -0.9298 -2.5036 0.9724
-6.3842 -1.3888 -2.5038 0.9724
-6.2692 -1.8408 -2.5039 0.9724
-6.1996 -2.0634 -2.5040 0.9724
-5.6201 -3.3346 -2.5043 0.9724
-5.4976 -3.5331 -2.5043 0.9724
-4.9391 -4.2797 -2.5045 0.9724
-4.6213 -4.6213 -2.5045 0.9724
-4.1009 -5.0889 -2.5046 0.9724
-3.5335 -5.4982 -2.5046 0.9724
-3.3350 -5.6208 -2.5046 0.9724
-3.1322 -5.7362 -2.5046 0.9724
-2.9255 -5.8444 -2.5046 0.9724
-2.5011 -6.0381 -2.5046 0.9724
-2.2839 -6.1235 -2.5045 0.9724
-2.0639 -6.2010 -2.5045 0.9724
-1.8412 -6.2707 -2.5045 0.9724
-1.1603 -6.4314 -2.5044 0.9724
0.0000 -6.5347 -2.5042 0.9724
0.2332 -6.5304 -2.5041 0.9724
0.4662 -6.5177 -2.5041 0.9724
0.6985 -6.4968 -2.5040 0.9724
1.1601 -6.4301 -2.5039 0.9724
1.8407 -6.2687 -2.5037 0.9724
2.0632 -6.1989 -2.5036 0.9724
2.2831 -6.1211 -2.5036 0.9724
2.7137 -5.9423 -2.5034 0.9724
2.9240 -5.8414 -2.5033 0.9724
3.3331 -5.6176 -2.5032 0.9724
3.7251 -5.3651 -2.5030 0.9724
3.9141 -5.2286 -2.5029 0.9724
4.2768 -4.9357 -2.5027 0.9724
4.7793 -4.4497 -2.5025 0.9724
4.9349 -4.2762 -2.5024 0.9724
5.0842 -4.0971 -2.5023 0.9724
5.3632 -3.7237 -2.5021 0.9724
5.4924 -3.5298 -2.5020 0.9724
5.7298 -3.1287 -2.5018 0.9724
5.8376 -2.9221 -2.5017 0.9724
6.1158 -2.2811 -2.5014 0.9724
6.1931 -2.0613 -2.5013 0.9724
6.2625 -1.8388 -2.5012 0.9724
6.3239 -1.6141 -2.5011 0.9724
6.3773 -1.3873 -2.5010 0.9724
6.4225 -1.1587 -2.5010 0.9724
6.4595 -0.9287 -2.5009 0.9724
6.5211 -0.2329 -2.5006 0.9724
-6.1162 -0.0000 -2.5032 0.9739
-6.1125 -0.2183 -2.5033 0.9739
-6.1010 -0.4364 -2.5034 0.9739
-6.0817 -0.6539 -2.5034 0.9739
-6.0199 -1.0861 -2.5036 0.9739
-5.9775 -1.3003 -2.5036 0.9739
-5.9274 -1.5129 -2.5037 0.9739
-5.8046 -1.9320 -2.5038 0.9739
-5.7321 -2.1380 -2.5039 0.9739
-5.6523 -2.3413 -2.5039 0.9739
-5.4711 -2.7386 -2.5040 0.9739
-5.3699 -2.9322 -2.5041 0.9739
-5.1472 -3.3079 -2.5042 0.9739
-5.0260 -3.4896 -2.5042 0.9739
-4.8983 -3.6668 -2.5042 0.9739
-4.7643 -3.8394 -2.5043 0.9739
-4.6243 -4.0070 -2.5043 0.9739
-4.4784 -4.1696 -2.5043 0.9739
-4.3268 -4.3268 -2.5043 0.9739
-4.1696 -4.4785 -2.5044 0.9739
-3.1224 -5.2626 -2.5044 0.9739
-2.5420 -5.5661 -2.5044 0.9739
-2.1384 -5.7332 -2.5044 0.9739
-0.8708 -6.0564 -2.5042 0.9739
-0.4365 -6.1029 -2.5041 0.9739
0.4365 -6.1024 -2.5040 0.9739
1.0862 -6.0204 -2.5038 0.9739
1.5129 -5.9273 -2.5037 0.9739
1.9317 -5.8040 -2.5035 0.9739
2.3407 -5.6510 -2.5034 0.9739
2.9311 -5.3680 -2.5032 0.9739
3.3064 -5.1449 -2.5030 0.9739
3.4878 -5.0234 -2.5029 0.9739
4.6207 -4.0039 -2.5023 0.9739
4.7605 -3.8362 -2.5022 0.9739
4.8942 -3.6638 -2.5022 0.9739
5.0217 -3.4866 -2.5021 0.9739
5.2572 -3.1193 -2.5019 0.9739
5.3650 -2.9295 -2.5018 0.9739
5.4660 -2.7361 -2.5017 0.9739
5.6468 -2.3390 -2.5015 0.9739
5.7265 -2.1359 -2.5014 0.9739
5.7989 -1.9301 -2.5014 0.9739
5.8639 -1.7218 -2.5013 0.9739
5.9214 -1.5114 -2.5012 0.9739
5.9714 -1.2990 -2.5011 0.9739
6.0754 -0.6532 -2.5009 0.9739
-5.7436 -0.0000 -2.5031 0.9753
-5.6531 -1.0199 -2.5035 0.9752
-5.6132 -1.2211 -2.5035 0.9752
-5.5662 -1.4207 -2.5036 0.9752
-5.3828 -2.0077 -2.5038 0.9752
-5.3078 -2.1986 -2.5038 0.9752
-5.2260 -2.3867 -2.5039 0.9752
-5.1376 -2.5717 -2.5039 0.9752
-4.9412 -2.9318 -2.5040 0.9752
-4.7196 -3.2769 -2.5041 0.9752
-4.5997 -3.4433 -2.5041 0.9752
-4.4739 -3.6053 -2.5041 0.9752
-3.7629 -4.3426 -2.5042 0.9752
-3.4435 -4.6000 -2.5043 0.9752
-3.2771 -4.7200 -2.5043 0.9752
-2.9321 -4.9418 -2.5043 0.9752
-1.8146 -5.4520 -2.5042 0.9752
-1.6188 -5.5132 -2.5042 0.9752
-1.4210 -5.5674 -2.5042 0.9752
-1.2214 -5.6145 -2.5041 0.9752
-0.8177 -5.6872 -2.5041 0.9752
-0.6142 -5.7127 -2.5040 0.9752
-0.2051 -5.7418 -2.5040 0.9752
0.0000 -5.7454 -2.5039 0.9752
0.4099 -5.7305 -2.5038 0.9752
1.0200 -5.6535 -2.5037 0.9752
1.2211 -5.6134 -2.5036 0.9752
1.4207 -5.5661 -2.5036 0.9752
1.6184 -5.5117 -2.5035 0.9752
1.8140 -5.4503 -2.5034 0.9752
2.5709 -5.1361 -2.5032 0.9752
2.7525 -5.0409 -2.5031 0.9753
2.9306 -4.9393 -2.5030 0.9753
3.1050 -4.8314 -2.5029 0.9753
3.9128 -4.2027 -2.5026 0.9753
4.3393 -3.7600 -2.5023 0.9753
4.5961 -3.4406 -2.5021 0.9753
4.7158 -3.2743 -2.5021 0.9753
4.9371 -2.9293 -2.5019 0.9753
5.1331 -2.5695 -2.5017 0.9753
5.3030 -2.1966 -2.5016 0.9753
5.3778 -2.0058 -2.5015 0.9753
5.5609 -1.4193 -2.5012 0.9753
5.6078 -1.2199 -2.5012 0.9753
5.6476 -1.0189 -2.5011 0.9753
5.7237 -0.4094 -2.5008 0.9753
-5.4075 0.0000 -2.5031 0.9764
-5.3940 -0.3858 -2.5032 0.9764
-5.3530 -0.7697 -2.5033 0.9764
-5.2405 -1.3376 -2.5035 0.9764
-5.0678 -1.8902 -2.5037 0.9764
-4.9972 -2.0699 -2.5037 0.9764
-4.9202 -2.2470 -2.5037 0.9764
-4.6520 -2.7602 -2.5039 0.9764
-4.4434 -3.0851 -2.5039 0.9764
-4.3305 -3.2418 -2.5040 0.9764
-4.0883 -3.5425 -2.5040 0.9764
-3.8252 -3.8252 -2.5041 0.9764
-3.6863 -3.9594 -2.5041 0.9764
-3.5426 -4.0884 -2.5041 0.9764
-3.3945 -4.2123 -2.5041 0.9764
-3.0853 -4.4437 -2.5041 0.9764
-2.9248 -4.5510 -2.5041 0.9764
-2.7605 -4.6525 -2.5041 0.9764
-2.4215 -4.8376 -2.5041 0.9764
-2.2473 -4.9209 -2.5041 0.9764
-2.0702 -4.9980 -2.5041 0.9764
-1.7084 -5.1329 -2.5041 0.9764
-1.3378 -5.2416 -2.5040 0.9764
-1.1499 -5.2859 -2.5040 0.9764
-0.9605 -5.3236 -2.5040 0.9764
-0.7698 -5.3544 -2.5040 0.9764
-0.5782 -5.3784 -2.5039 0.9764
-0.3859 -5.3955 -2.5039 0.9764
-0.1931 -5.4058 -2.5038 0.9764
0.0000 -5.4091 -2.5038 0.9764
0.1931 -5.4056 -2.5038 0.9764
0.5782 -5.3779 -2.5037 0.9764
0.7697 -5.3537 -2.5036 0.9764
0.9603 -5.3227 -2.5036 0.9764
1.1497 -5.2849 -2.5035 0.9764
1.7079 -5.1314 -2.5033 0.9764
1.8899 -5.0670 -2.5033 0.9764
2.0695 -4.9962 -2.5032 0.9764
2.2465 -4.9191 -2.5032 0.9764
2.4205 -4.8356 -2.5031 0.9764
2.7592 -4.6503 -2.5030 0.9764
2.9233 -4.5488 -2.5029 0.9764
3.0837 -4.4414 -2.5028 0.9764
3.3925 -4.2099 -2.5027 0.9765
3.6840 -3.9569 -2.5025 0.9765
3.8227 -3.8227 -2.5024 0.9765
4.0855 -3.5401 -2.5023 0.9765
4.2091 -3.3919 -2.5022 0.9765
4.4401 -3.0828 -2.5020 0.9765
4.7437 -2.5903 -2.5018 0.9765
4.9929 -2.0681 -2.5016 0.9765
5.3721 -0.5776 -2.5010 0.9765
5.3891 -0.3854 -2.5009 0.9765
-5.0900 -0.3640 -2.5031 0.9775
-5.0739 -0.5455 -2.5032 0.9775
-5.0222 -0.9061 -2.5033 0.9775
-4.9868 -1.0848 -2.5034 0.9775
-4.8969 -1.4379 -2.5035 0.9775
-4.7154 -1.9532 -2.5036 0.9775
-4.3897 -2.6046 -2.5038 0.9775
-4.1929 -2.9112 -2.5038 0.9775
-4.0863 -3.0590 -2.5039 0.9775
-3.9746 -3.2029 -2.5039 0.9775
-3.7360 -3.4784 -2.5039 0.9775
-3.6095 -3.6095 -2.5039 0.9775
-3.2031 -3.9748 -2.5040 0.9775
-3.0592 -4.0866 -2.5040 0.9775
-2.9114 -4.1932 -2.5040 0.9775
-2.7598 -4.2944 -2.5040 0.9775
-2.6048 -4.3902 -2.5040 0.9775
-2.4464 -4.4803 -2.5040 0.9775
-2.2850 -4.5648 -2.5040 0.9775
-2.1206 -4.6434 -2.5040 0.9775
-1.2624 -4.9460 -2.5039 0.9775
-1.0850 -4.9879 -2.5039 0.9775
-0.7264 -5.0525 -2.5038 0.9775
-0.5456 -5.0751 -2.5038 0.9775
-0.1822 -5.1010 -2.5037 0.9775
0.0000 -5.1041 -2.5037 0.9775
0.5456 -5.0746 -2.5036 0.9775
0.7263 -5.0518 -2.5035 0.9775
0.9062 -5.0226 -2.5035 0.9775
1.0848 -4.9870 -2.5034 0.9775
1.2621 -4.9450 -2.5034 0.9775
1.6116 -4.8421 -2.5033 0.9775
1.9528 -4.7146 -2.5031 0.9775
2.4454 -4.4785 -2.5030 0.9775
2.6037 -4.3882 -2.5029 0.9775
2.7585 -4.2924 -2.5028 0.9775
2.9099 -4.1911 -2.5028 0.9775
3.3410 -3.8557 -2.5026 0.9775
3.4764 -3.7339 -2.5025 0.9775
3.6073 -3.6073 -2.5024 0.9775
3.9719 -3.2008 -2.5022 0.9775
4.0835 -3.0569 -2.5021 0.9775
4.2909 -2.7576 -2.5020 0.9775
4.3865 -2.6026 -2.5019 0.9775
4.4764 -2.4443 -2.5018 0.9775
4.5607 -2.2829 -2.5017 0.9775
4.7782 -1.7822 -2.5015 0.9775
4.8928 -1.4367 -2.5014 0.9775
4.9409 -1.2611 -2.5013 0.9775
4.9826 -1.0839 -2.5012 0.9775
5.0180 -0.9053 -2.5012 0.9775
5.0695 -0.5450 -2.5010 0.9775
5.0952 -0.1820 -2.5009 0.9775
-4.8247 0.0000 -2.5029 0.9785
-4.7974 -0.5158 -2.5031 0.9785
-4.7760 -0.6867 -2.5032 0.9785
-4.6300 -1.3595 -2.5034 0.9785
-4.5214 -1.6864 -2.5035 0.9785
-4.3897 -2.0047 -2.5035 0.9785
-4.1505 -2.4626 -2.5037 0.9785
-4.0600 -2.6092 -2.5037 0.9785
-3.5324 -3.2888 -2.5038 0.9785
-3.2888 -3.5324 -2.5038 0.9785
-3.0285 -3.7581 -2.5039 0.9785
-2.8924 -3.8638 -2.5039 0.9785
-2.6094 -4.0603 -2.5039 0.9785
-2.1604 -4.3160 -2.5039 0.9785
-2.0050 -4.3903 -2.5039 0.9785
-1.6867 -4.5221 -2.5039 0.9785
-1.3597 -4.6309 -2.5038 0.9785
-1.0259 -4.7160 -2.5038 0.9785
-0.8569 -4.7496 -2.5038 0.9785
-0.5159 -4.7985 -2.5037 0.9785
-0.1723 -4.8229 -2.5036 0.9785
0.1722 -4.8228 -2.5036 0.9785
0.3443 -4.8135 -2.5035 0.9785
0.5158 -4.7981 -2.5035 0.9785
0.6868 -4.7765 -2.5034 0.9785
0.8568 -4.7489 -2.5034 0.9785
1.0257 -4.7152 -2.5033 0.9785
1.1933 -4.6755 -2.5033 0.9785
1.5238 -4.5782 -2.5032 0.9785
1.8464 -4.4577 -2.5031 0.9785
2.1596 -4.3144 -2.5030 0.9785
2.3122 -4.2345 -2.5029 0.9785
2.4618 -4.1491 -2.5028 0.9785
3.0269 -3.7562 -2.5026 0.9785
3.1590 -3.6456 -2.5025 0.9785
3.4108 -3.4108 -2.5024 0.9785
3.5303 -3.2868 -2.5023 0.9785
3.6452 -3.1586 -2.5022 0.9785
3.7555 -3.0264 -2.5022 0.9785
3.9617 -2.7506 -2.5020 0.9785
4.3123 -2.1586 -2.5018 0.9785
4.3865 -2.0032 -2.5017 0.9785
4.5751 -1.5227 -2.5015 0.9785
4.6718 -1.1924 -2.5013 0.9785
4.7113 -1.0249 -2.5013 0.9785
4.7447 -0.8560 -2.5012 0.9785
4.7721 -0.6861 -2.5011 0.9785
4.8087 -0.3439 -2.5010 0.9785
4.8178 -0.1721 -2.5010 0.9785
-4.5670 -0.1631 -2.5029 0.9794
-4.5583 -0.3260 -2.5030 0.9794
-4.5237 -0.6504 -2.5031 0.9794
-4.4977 -0.8115 -2.5032 0.9794
-4.4659 -0.9715 -2.5032 0.9794
-4.3367 -1.4434 -2.5033 0.9794
-4.2228 -1.7492 -2.5034 0.9794
-4.1578 -1.8988 -2.5035 0.9794
-3.9311 -2.3325 -2.5036 0.9794
-3.8454 -2.4713 -2.5036 0.9794
-3.7548 -2.6070 -2.5036 0.9794
-3.6594 -2.7394 -2.5037 0.9794
-3.5593 -2.8683 -2.5037 0.9794
-3.4547 -2.9935 -2.5037 0.9794
-3.3457 -3.1150 -2.5037 0.9794
-3.2324 -3.2324 -2.5037 0.9794
-2.7395 -3.6596 -2.5038 0.9794
-2.6072 -3.7551 -2.5038 0.9794
-2.4715 -3.8457 -2.5038 0.9794
-2.3327 -3.9315 -2.5038 0.9794
-2.1908 -4.0122 -2.5038 0.9794
-1.7494 -4.2234 -2.5038 0.9794
-1.4436 -4.3374 -2.5037 0.9794
-1.2879 -4.3861 -2.5037 0.9794
-1.1305 -4.4293 -2.5037 0.9794
-0.8116 -4.4986 -2.5037 0.9794
-0.6505 -4.5246 -2.5036 0.9794
-0.1631 -4.5681 -2.5035 0.9794
0.4886 -4.5445 -2.5034 0.9794
0.8115 -4.4979 -2.5033 0.9794
1.5971 -4.2820 -2.5031 0.9794
1.7489 -4.2222 -2.5030 0.9794
2.0455 -4.0865 -2.5029 0.9794
2.4705 -3.8441 -2.5027 0.9794
2.7383 -3.6579 -2.5026 0.9794
2.8670 -3.5577 -2.5025 0.9794
2.9921 -3.4531 -2.5025 0.9794
3.1134 -3.3440 -2.5024 0.9794
3.3438 -3.1132 -2.5023 0.9794
3.4527 -2.9918 -2.5022 0.9794
3.7524 -2.6054 -2.5020 0.9794
3.9285 -2.3309 -2.5019 0.9794
4.0091 -2.1891 -2.5018 0.9794
4.2794 -1.5961 -2.5016 0.9794
4.5202 -0.6499 -2.5012 0.9794
4.5404 -0.4881 -2.5011 0.9794
4.5548 -0.3258 -2.5011 0.9794
4.5634 -0.1630 -2.5010 0.9794
-4.3242 -0.3093 -2.5029 0.9802
-4.2010 -1.0722 -2.5032 0.9802
-4.1601 -1.2215 -2.5032 0.9802
-4.0625 -1.5152 -2.5033 0.9802
-3.8774 -1.9409 -2.5034 0.9802
-3.4714 -2.5987 -2.5036 0.9802
-3.3765 -2.7209 -2.5036 0.9802
-3.1738 -2.9549 -2.5036 0.9802
-3.0663 -3.0663 -2.5036 0.9802
-2.9549 -3.1738 -2.5037 0.9802
-2.8398 -3.2773 -2.5037 0.9802
-2.5988 -3.4716 -2.5037 0.9802
-2.4732 -3.5621 -2.5037 0.9802
-2.0783 -3.8061 -2.5037 0.9802
-1.9411 -3.8778 -2.5037 0.9802
-1.8014 -3.9446 -2.5037 0.9802
-1.6595 -4.0064 -2.5037 0.9802
-1.2217 -4.1608 -2.5036 0.9802
-1.0724 -4.2017 -2.5036 0.9802
-0.9218 -4.2373 -2.5036 0.9802
-0.7699 -4.2674 -2.5036 0.9802
-0.6171 -4.2921 -2.5035 0.9802
-0.4635 -4.3114 -2.5035 0.9802
0.0000 -4.3361 -2.5034 0.9802
0.1548 -4.3332 -2.5034 0.9802
0.3093 -4.3249 -2.5034 0.9802
0.6171 -4.2917 -2.5033 0.9802
1.5150 -4.0620 -2.5030 0.9802
1.6590 -4.0053 -2.5030 0.9802
2.2120 -3.7281 -2.5027 0.9802
2.4722 -3.5606 -2.5026 0.9802
2.5976 -3.4700 -2.5026 0.9802
2.8384 -3.2757 -2.5025 0.9802
2.9535 -3.1722 -2.5024 0.9802
3.0647 -3.0647 -2.5023 0.9802
3.1721 -2.9533 -2.5023 0.9802
3.4693 -2.5971 -2.5021 0.9802
3.9415 -1.8000 -2.5017 0.9802
4.0031 -1.6582 -2.5016 0.9802
4.0597 -1.5142 -2.5016 0.9802
4.1980 -1.0715 -2.5014 0.9802
4.2334 -0.9209 -2.5013 0.9802
4.2635 -0.7692 -2.5013 0.9802
4.3073 -0.4631 -2.5012 0.9802
4.3210 -0.3090 -2.5011 0.9802
4.3292 -0.1546 -2.5010 0.9802
