ply
format ascii 1.0
element vertex 1448
property float32 x
property float32 y
property float32 z
property float32 I
end_header
22.7601 7.5753 4.2295 0.9072
40.0124 16.5737 7.6366 0.8387
32.5489 16.2928 6.4181 0.8626
30.5189 16.6646 6.1313 0.8683
29.2017 17.3262 5.9872 0.8712
24.7439 17.1800 5.3115 0.8848
23.6125 17.6761 5.2009 0.8871
22.0556 17.7736 4.9946 0.8913
16.8767 18.1269 4.3671 0.9043
14.6929 18.2327 4.1289 0.9093
7.2532 9.6891 2.1341 0.9520
11.8850 18.4935 3.8762 0.9146
11.1373 18.7708 3.8485 0.9152
9.3307 18.6404 3.6756 0.9188
8.3516 18.2875 3.5449 0.9216
7.5946 18.3349 3.4993 0.9226
6.9804 18.7153 3.5221 0.9221
2.8107 8.4449 1.5694 0.9645
6.4617 25.3165 4.6071 0.8993
2.6804 18.6428 3.3210 0.9264
0.0000 25.7201 4.5351 0.9008
-0.9207 25.7784 4.5483 0.9005
-2.0867 19.4089 3.4420 0.9238
-2.7789 19.3276 3.4430 0.9238
-3.4327 19.0259 3.4090 0.9245
-4.9893 19.5479 3.5573 0.9213
-5.8779 20.0183 3.6788 0.9188
-6.6783 20.0651 3.7288 0.9177
-7.3843 19.7982 3.7259 0.9178
-8.8438 19.3652 3.7538 0.9172
-9.7211 19.4203 3.8294 0.9156
-10.8550 19.8793 3.9938 0.9121
-11.8823 20.0265 4.1060 0.9098
-13.9040 20.0255 4.2987 0.9057
-15.8587 19.6794 4.4565 0.9024
-17.5480 20.2515 4.7250 0.8969
-18.9365 20.3392 4.9001 0.8933
-20.1544 20.1544 5.0258 0.8907
-11.8401 11.0235 2.8525 0.9364
-12.1356 10.5155 2.8314 0.9369
38.4426 15.9234 6.3744 0.8450
36.0660 16.4708 6.0740 0.8518
34.0110 17.0247 5.8266 0.8573
30.7711 16.8023 5.3709 0.8677
29.2011 17.3258 5.2016 0.8716
23.6106 17.6746 4.5182 0.8875
22.0988 17.8084 4.3478 0.8915
20.6132 17.8614 4.1784 0.8955
18.9303 17.6247 3.9623 0.9006
17.9676 17.9676 3.8927 0.9023
17.0515 18.3147 3.8335 0.9037
16.0835 18.5613 3.7625 0.9054
7.2508 9.6860 1.8535 0.9522
11.9754 18.6341 3.3933 0.9143
13.3989 24.5382 4.2830 0.8930
9.4066 18.7921 3.2194 0.9185
6.9854 18.7285 3.0622 0.9223
7.4158 25.2558 4.0324 0.8990
5.5620 25.5681 4.0085 0.8995
2.6804 18.6426 2.8853 0.9266
2.0088 18.6847 2.8789 0.9268
-1.8478 25.8355 3.9680 0.9005
-2.0969 19.5041 3.0051 0.9237
-2.7788 19.3267 2.9912 0.9240
-3.4326 19.0257 2.9617 0.9247
-4.1486 19.0706 2.9898 0.9241
-5.0256 19.6903 3.1131 0.9211
-7.6938 26.2026 4.1836 0.8954
-8.6265 25.9185 4.1847 0.8954
-7.4668 20.0192 3.2732 0.9172
-9.7210 19.4200 3.3269 0.9159
-12.9791 20.1958 3.6777 0.9074
-14.7749 19.7370 3.7769 0.9050
-18.9384 20.3412 4.2577 0.8936
-12.1404 10.5197 2.4609 0.9371
-24.5424 11.2081 4.1333 0.8966
22.7580 7.5746 3.1234 0.9078
43.9717 16.4006 6.1113 0.8275
36.0652 16.4704 5.1630 0.8522
34.0102 17.0243 4.9527 0.8578
30.6013 16.7096 4.5403 0.8688
29.1981 17.3241 4.4211 0.8720
23.6267 17.6867 3.8433 0.8878
20.7122 17.9472 3.5689 0.8953
18.0943 18.0943 3.3322 0.9019
22.6652 24.3441 4.3314 0.8744
14.7614 18.3177 3.0635 0.9095
12.7462 18.3580 2.9103 0.9138
12.0563 18.7600 2.9039 0.9140
14.5174 24.4678 3.7048 0.8916
9.4999 18.9784 2.7637 0.9180
7.5944 18.3345 2.5842 0.9231
6.9941 18.7520 2.6062 0.9224
2.8104 8.4439 1.1589 0.9647
7.4155 25.2547 3.4275 0.8993
5.6674 26.0525 3.4719 0.8980
3.4491 19.1173 2.5297 0.9246
2.6804 18.6424 2.4526 0.9268
0.6960 19.4889 2.5395 0.9244
-0.7014 19.6398 2.5591 0.9238
-1.8540 25.9224 3.3843 0.9005
-2.7701 19.2666 2.5347 0.9245
-4.1485 19.0704 2.5414 0.9243
-5.0771 19.8921 2.6734 0.9205
-8.6264 25.9182 3.5571 0.8957
-7.5623 20.2754 2.8180 0.9164
-8.1764 19.7396 2.7823 0.9174
-8.8436 19.3647 2.7722 0.9177
-9.7208 19.4198 2.8280 0.9161
-18.7818 31.6550 4.7931 0.8620
-13.1620 20.4804 3.1702 0.9065
-13.9254 20.0564 3.1796 0.9062
-20.0473 23.1358 3.9865 0.8838
-11.8314 11.0154 2.1051 0.9369
-12.1452 10.5239 2.0927 0.9372
42.7290 6.1435 4.6355 0.8406
22.7569 7.5742 2.5757 0.9080
36.2203 16.5413 4.2759 0.8520
30.9029 16.8743 3.7809 0.8679
35.8708 23.0528 4.5787 0.8424
18.9297 17.6242 2.7773 0.9012
18.1256 18.1256 2.7526 0.9020
12.0772 18.7925 2.3988 0.9141
13.3985 24.5376 3.0021 0.8936
6.9287 18.5765 2.1290 0.9233
2.8101 8.4430 0.9555 0.9648
7.4222 25.2777 2.8290 0.8994
3.3905 18.7923 2.0505 0.9261
2.0088 18.6843 2.0179 0.9272
1.3538 18.9284 2.0378 0.9265
-0.9453 26.4666 2.8438 0.8989
-2.7587 19.1871 2.0815 0.9250
-4.1485 19.0702 2.0957 0.9245
-4.9285 19.3099 2.1400 0.9230
-7.7163 26.2794 2.9411 0.8957
-8.6263 25.9179 2.9332 0.8959
-8.0599 19.4583 2.2616 0.9188
-9.7207 19.4195 2.3320 0.9163
-13.2816 20.6666 2.6380 0.9059
-13.9464 20.0867 2.6259 0.9063
-19.3038 20.7338 3.0420 0.8923
-20.2376 20.2377 3.0733 0.8912
44.3003 16.5232 4.0025 0.8271
40.4232 16.7438 3.7039 0.8389
36.2195 16.5409 3.3707 0.8523
29.4267 17.4597 2.8965 0.8717
27.7614 17.8412 2.7935 0.8759
23.7865 17.8063 2.5153 0.8876
29.7702 23.9904 3.2366 0.8577
19.4622 16.8641 2.1800 0.9018
18.9294 17.6239 2.1894 0.9014
17.8808 17.8808 2.1406 0.9035
14.5820 18.0951 1.9673 0.9109
12.7063 18.3006 1.8860 0.9144
14.5171 24.4672 2.4084 0.8921
13.3984 24.5373 2.3666 0.8938
7.5942 18.3341 1.6799 0.9234
7.3666 25.0882 2.2134 0.9004
3.4055 18.8753 1.6236 0.9259
2.6803 18.6420 1.5943 0.9272
2.0087 18.6841 1.5908 0.9273
1.3597 19.0118 1.6135 0.9263
0.6800 19.0408 1.6129 0.9264
-0.9339 26.1481 2.2149 0.9003
-1.8369 25.6829 2.1797 0.9018
-2.0657 19.2137 1.6359 0.9254
-2.7709 19.2721 1.6482 0.9248
-3.4325 19.0251 1.6365 0.9253
-4.1484 19.0700 1.6521 0.9246
-7.6337 25.9979 2.2937 0.8969
-8.6262 25.9176 2.3123 0.8961
-8.1189 19.6008 1.7960 0.9184
-8.8434 19.3643 1.8021 0.9181
-9.7206 19.4193 1.8384 0.9165
-18.9488 31.9364 3.1436 0.8615
-13.1340 20.4369 2.0565 0.9071
-13.7969 19.8714 2.0479 0.9075
-19.3443 20.7772 2.4031 0.8923
-33.3680 12.4456 3.0148 0.8668
42.2867 15.7721 2.7987 0.8345
40.6645 16.8438 2.7294 0.8383
34.8093 17.4243 2.4139 0.8556
36.0649 23.1775 2.6584 0.8421
24.8488 17.2528 1.8759 0.8858
23.3473 18.8144 1.8593 0.8868
19.4652 16.8667 1.5971 0.9019
18.9291 17.6237 1.6038 0.9015
17.6472 18.9545 1.6059 0.9014
7.2542 9.6905 0.7506 0.9526
12.7052 18.2989 1.3814 0.9146
11.8947 18.5085 1.3643 0.9156
13.3982 24.5371 1.7336 0.8940
9.2624 18.5039 1.2832 0.9204
8.3511 18.2864 1.2466 0.9226
7.5941 18.3339 1.2306 0.9236
6.9589 18.6576 1.2348 0.9233
6.5875 25.8097 1.6518 0.8987
5.6276 25.8699 1.6417 0.8993
3.4052 18.8738 1.1893 0.9260
2.0087 18.6839 1.1653 0.9275
1.3596 19.0102 1.1818 0.9265
-0.0000 26.2225 1.6261 0.9002
-0.9386 26.2814 1.6308 0.9000
-1.8431 25.7701 1.6021 0.9016
-2.7707 19.2705 1.2073 0.9249
-3.4325 19.0249 1.1988 0.9254
-4.1484 19.0698 1.2102 0.9248
-7.6750 26.1386 1.6893 0.8966
-8.6261 25.9173 1.6938 0.8963
-8.1182 19.5990 1.3155 0.9185
-18.9484 31.9358 2.3027 0.8617
-13.8587 19.9603 1.5068 0.9072
-14.7740 19.7358 1.5287 0.9059
-14.8823 18.4677 1.4708 0.9093
-11.8187 11.0036 1.0014 0.9373
-12.1595 10.5363 0.9977 0.9376
22.7532 7.5730 0.9456 0.9085
40.3837 16.7275 1.7236 0.8395
29.0866 17.2579 1.3336 0.8734
24.8483 17.2525 1.1928 0.8859
23.3488 18.8157 1.1824 0.8869
21.0817 24.3295 1.2694 0.8791
14.6437 18.1717 0.9202 0.9108
7.2573 9.6946 0.4775 0.9527
14.5167 24.4667 1.1218 0.8924
9.2616 18.5023 0.8159 0.9205
7.5940 18.3337 0.7825 0.9236
5.6828 26.1236 1.0542 0.8985
2.0087 18.6837 0.7410 0.9275
1.3595 19.0088 0.7514 0.9265
0.0000 26.4798 1.0441 0.8994
-0.9478 26.5392 1.0471 0.8991
-1.8430 25.7681 1.0187 0.9018
-2.0654 19.2107 0.7619 0.9256
-2.7705 19.2689 0.7676 0.9250
-4.1483 19.0695 0.7695 0.9249
-7.6743 26.1364 1.0741 0.8967
-7.5182 20.1571 0.8483 0.9175
-8.1174 19.5973 0.8364 0.9186
-9.7204 19.4188 0.8563 0.9167
-10.7873 19.7555 0.8875 0.9138
-18.9480 31.9352 1.4642 0.8619
-13.2128 20.5594 0.9637 0.9068
-13.8573 19.9583 0.9581 0.9073
-16.2006 20.1038 1.0181 0.9018
-19.2237 20.6477 1.1124 0.8932
-11.8145 10.9997 0.6365 0.9374
40.3860 16.7284 0.7384 0.8396
30.9004 16.8729 0.5947 0.8686
36.0659 23.1782 0.7242 0.8424
24.8479 17.2522 0.5110 0.8860
23.5195 17.6065 0.4963 0.8891
23.3503 18.8169 0.5066 0.8869
18.9286 17.6231 0.4369 0.9017
17.9575 17.9575 0.4290 0.9034
12.7028 18.2955 0.3762 0.9147
13.3979 24.5365 0.4722 0.8942
6.5874 25.8091 0.4499 0.8989
5.6828 26.1233 0.4516 0.8986
3.4047 18.8709 0.3239 0.9262
2.6802 18.6414 0.3181 0.9274
2.0087 18.6835 0.3174 0.9276
1.3594 19.0073 0.3219 0.9266
-2.7702 19.2674 0.3288 0.9251
-3.4324 19.0245 0.3265 0.9256
-4.1483 19.0693 0.3297 0.9249
-4.9491 19.3905 0.3380 0.9231
-7.6737 26.1342 0.4601 0.8968
-8.6259 25.9167 0.4614 0.8965
-7.5187 20.1585 0.3634 0.9175
-13.2133 20.5603 0.4128 0.9069
-13.8559 19.9563 0.4104 0.9074
-16.1990 20.1017 0.4361 0.9019
-20.2365 20.2365 0.4834 0.8918
-11.8103 10.9958 0.2726 0.9375
30.8998 16.8726 -0.1982 0.8686
29.0781 17.2529 -0.1904 0.8735
36.0664 23.1785 -0.2414 0.8424
20.5362 17.7948 -0.1530 0.8970
18.9283 17.6229 -0.1456 0.9017
17.9556 17.9556 -0.1430 0.9034
17.6511 18.9586 -0.1459 0.9016
21.0775 24.3248 -0.1812 0.8792
7.2635 9.7029 -0.0682 0.9527
12.7016 18.2938 -0.1254 0.9148
11.8988 18.5149 -0.1239 0.9157
14.5164 24.4661 -0.1602 0.8924
7.5939 18.3332 -0.1117 0.9237
6.9572 18.6529 -0.1121 0.9235
2.8085 8.4381 -0.0501 0.9651
7.3972 25.1925 -0.1478 0.9003
6.5873 25.8089 -0.1500 0.8989
5.6827 26.1231 -0.1505 0.8986
3.4044 18.8694 -0.1080 0.9262
2.0087 18.6833 -0.1058 0.9276
0.6798 19.0348 -0.1072 0.9266
-0.9478 26.5386 -0.1495 0.8992
-1.8427 25.7640 -0.1454 0.9018
-2.0650 19.2076 -0.1088 0.9256
-4.1482 19.0691 -0.1099 0.9249
-7.6731 26.1320 -0.1533 0.8968
-8.1160 19.5938 -0.1194 0.9187
-8.8429 19.3633 -0.1198 0.9184
-9.7201 19.4183 -0.1223 0.9168
-18.9473 31.9339 -0.2091 0.8620
-13.2138 20.5611 -0.1376 0.9069
-13.8545 19.9543 -0.1368 0.9074
-14.7734 19.7350 -0.1388 0.9061
-16.1973 20.0996 -0.1453 0.9019
-19.2252 20.6494 -0.1589 0.8933
-20.2362 20.2362 -0.1611 0.8918
-11.8061 10.9919 -0.0908 0.9375
22.7456 7.5705 -0.6750 0.9085
46.1437 17.2107 -1.3867 0.8211
40.3908 16.7304 -1.2310 0.8395
36.2154 16.5390 -1.1210 0.8527
29.0739 17.2504 -0.9519 0.8735
24.8471 17.2516 -0.8518 0.8860
20.5340 17.7928 -0.7651 0.8970
17.9537 17.9537 -0.7149 0.9034
21.0755 24.3224 -0.9062 0.8792
7.2666 9.7071 -0.3414 0.9526
11.9002 18.5171 -0.6198 0.9157
14.5162 24.4658 -0.8010 0.8924
13.3976 24.5359 -0.7872 0.8942
9.2592 18.4976 -0.5825 0.9206
7.5938 18.3330 -0.5588 0.9237
6.9566 18.6514 -0.5605 0.9234
3.4041 18.8679 -0.5399 0.9261
2.6802 18.6410 -0.5303 0.9274
2.0086 18.6831 -0.5291 0.9276
1.3592 19.0043 -0.5365 0.9266
-0.0000 26.4789 -0.7456 0.8995
-2.0649 19.2060 -0.5439 0.9256
-2.7698 19.2643 -0.5480 0.9251
-3.4323 19.0241 -0.5443 0.9256
-4.1482 19.0689 -0.5495 0.9249
-4.9483 19.3873 -0.5634 0.9231
-8.8428 19.3631 -0.5994 0.9183
-9.7200 19.4181 -0.6114 0.9168
-10.7844 19.7500 -0.6336 0.9139
-18.9469 31.9333 -1.0455 0.8619
-13.8531 19.9522 -0.6839 0.9074
-14.7732 19.7347 -0.6942 0.9061
-16.1956 20.0975 -0.7268 0.9019
-19.2261 20.6503 -0.7945 0.8932
48.8992 0.0000 -2.4799 0.8221
48.8853 1.7460 -2.4808 0.8221
47.6735 5.1255 -2.4317 0.8253
45.2800 8.1694 -2.3334 0.8317
44.9777 9.7843 -2.3344 0.8316
44.2021 12.9789 -2.3363 0.8315
40.3335 16.7067 -2.2140 0.8396
36.2146 16.5387 -2.0190 0.8526
30.8986 16.8719 -1.7854 0.8685
28.9827 17.1962 -1.7091 0.8737
24.8466 17.2513 -1.5340 0.8859
23.5106 17.5998 -1.4894 0.8890
23.3550 18.8206 -1.5212 0.8868
18.9277 17.6224 -1.3116 0.9016
17.9517 17.9517 -1.2875 0.9033
17.6537 18.9615 -1.3139 0.9014
21.0276 24.2671 -1.6284 0.8793
7.2697 9.7112 -0.6152 0.9526
11.9016 18.5192 -1.1164 0.9156
14.5160 24.4655 -1.4427 0.8923
9.2585 18.4960 -1.0490 0.9205
2.8078 8.4362 -0.4509 0.9650
7.3960 25.1884 -1.3313 0.9002
6.5872 25.8083 -1.3508 0.8988
3.4039 18.8664 -0.9722 0.9261
2.6801 18.6408 -0.9551 0.9273
2.0086 18.6829 -0.9529 0.9275
1.3591 19.0028 -0.9662 0.9265
0.6797 19.0318 -0.9658 0.9266
-1.8424 25.7599 -1.3097 0.9017
-2.0647 19.2045 -0.9796 0.9256
-2.7696 19.2628 -0.9869 0.9250
-4.1481 19.0687 -0.9897 0.9248
-4.9479 19.3857 -1.0146 0.9230
-7.6718 26.1276 -1.3810 0.8967
-8.6256 25.9158 -1.3852 0.8964
-7.5204 20.1631 -1.0914 0.9174
-8.1146 19.5904 -1.0754 0.9186
-18.9466 31.9327 -1.8830 0.8618
-13.2149 20.5628 -1.2396 0.9067
-13.8516 19.9502 -1.2317 0.9073
-14.7730 19.7345 -1.2502 0.9060
-19.2269 20.6512 -1.4310 0.8931
-12.1832 10.5568 -0.8175 0.9375
-26.5448 19.8712 -1.6816 0.8756
-46.1425 17.2103 -2.4975 0.8210
-46.6322 15.5207 -2.4925 0.8213
-47.4917 13.9449 -2.5102 0.8202
-48.3384 12.3377 -2.5300 0.8189
-48.7349 10.6016 -2.5293 0.8189
-49.3380 7.0938 -2.5279 0.8190
-49.7649 1.7773 -2.5254 0.8192
33.9141 0.0000 -2.4867 0.8728
33.9009 1.2108 -2.4873 0.8728
33.8447 2.4206 -2.4879 0.8728
33.6035 4.8315 -2.4892 0.8727
14.9963 3.2623 -1.1253 0.9403
26.4004 7.7519 -2.0175 0.8955
22.6782 7.5480 -1.7525 0.9086
29.5171 12.2264 -2.3426 0.8797
29.0709 13.2763 -2.3433 0.8797
28.5875 14.3099 -2.3440 0.8797
28.0674 15.3260 -2.3448 0.8796
26.9199 17.3004 -2.3463 0.8796
23.2997 18.7761 -2.1941 0.8869
18.9275 17.6221 -1.8962 0.9015
17.5968 18.9003 -1.8935 0.9016
21.0104 24.2473 -2.3524 0.8793
13.3973 24.5353 -2.0497 0.8939
6.9554 18.6483 -1.4593 0.9233
2.8075 8.4352 -0.6518 0.9650
6.5871 25.8080 -1.9530 0.8987
2.6801 18.6406 -1.3808 0.9273
0.6797 19.0302 -1.3962 0.9265
-0.0000 26.4784 -1.9415 0.8992
-1.8381 25.7005 -1.8892 0.9018
-2.0645 19.2029 -1.4161 0.9255
-2.7693 19.2612 -1.4268 0.9249
-3.4323 19.0236 -1.4174 0.9254
-4.1481 19.0685 -1.4308 0.9247
-7.6538 26.0665 -1.9919 0.8968
-7.5210 20.1646 -1.5780 0.9173
-9.7198 19.4176 -1.5922 0.9166
-10.7511 19.6891 -1.6448 0.9140
-13.1609 20.4788 -1.7849 0.9070
-14.7728 19.7342 -1.8075 0.9059
-19.1711 20.5912 -2.0629 0.8933
-25.1826 20.2934 -2.3714 0.8783
-28.9637 18.6139 -2.5244 0.8710
-29.6068 17.5665 -2.5242 0.8710
-30.7779 15.4063 -2.5236 0.8711
-31.3042 14.2961 -2.5233 0.8711
-33.0000 9.6897 -2.5218 0.8711
-33.3188 8.5041 -2.5213 0.8712
-33.5948 7.3081 -2.5209 0.8712
-34.2639 2.4506 -2.5187 0.8713
-34.3216 1.2258 -2.5181 0.8713
25.9389 0.0000 -2.4903 0.9010
25.9273 0.9260 -2.4907 0.9010
25.8827 1.8512 -2.4912 0.9010
15.0558 3.2752 -1.4792 0.9400
25.1147 6.4101 -2.4884 0.9011
22.6213 7.5291 -2.2889 0.9086
22.2169 10.1461 -2.3448 0.9065
21.8459 10.9353 -2.3454 0.9065
20.5669 13.2175 -2.3471 0.9064
19.5813 14.6584 -2.3483 0.9064
19.0504 15.3518 -2.3489 0.9064
17.9157 16.6801 -2.3501 0.9063
17.3132 17.3132 -2.3506 0.9063
16.6884 17.9247 -2.3512 0.9063
16.0420 18.5135 -2.3518 0.9063
7.7621 9.6322 -1.1876 0.9515
9.2296 18.4385 -1.9796 0.9205
7.5935 18.3324 -1.9050 0.9234
6.9335 18.5895 -1.9048 0.9234
2.8072 8.4342 -0.8534 0.9649
6.9211 23.5711 -2.3585 0.9060
6.0767 23.8082 -2.3590 0.9060
2.6801 18.6404 -1.8080 0.9271
2.0086 18.6825 -1.8039 0.9273
1.3547 18.9413 -1.8231 0.9265
0.6776 18.9728 -1.8226 0.9265
-2.0583 19.1446 -1.8486 0.9255
-2.7605 19.2000 -1.8622 0.9250
-6.9396 23.6341 -2.3648 0.9058
-7.4654 20.0155 -2.0509 0.9177
-8.0885 19.5273 -2.0292 0.9186
-8.8425 19.3624 -2.0436 0.9180
-9.7196 19.4174 -2.0847 0.9164
-10.7501 19.6873 -2.1535 0.9138
-12.5760 21.1956 -2.3661 0.9057
-13.1616 20.4798 -2.3372 0.9068
-15.4664 19.1926 -2.3664 0.9057
-16.1417 18.6285 -2.3664 0.9057
-16.7963 18.0406 -2.3664 0.9057
-21.1918 12.5737 -2.3657 0.9057
-17.2036 9.3938 -1.8818 0.9243
-22.0312 11.0280 -2.3653 0.9057
-24.5712 9.1646 -2.5177 0.9000
-24.8797 8.2808 -2.5174 0.9000
-26.0483 2.8005 -2.5152 0.9001
-26.1726 0.9347 -2.5143 0.9001
20.9831 0.0000 -2.4925 0.9190
20.9730 0.7491 -2.4929 0.9189
20.9362 1.4974 -2.4933 0.9189
20.7828 2.9881 -2.4941 0.9189
20.5238 4.4647 -2.4950 0.9189
20.1602 5.9196 -2.4958 0.9188
18.6831 6.9684 -2.3686 0.9228
18.2413 7.5558 -2.3453 0.9235
17.9634 8.2036 -2.3458 0.9235
17.6626 8.8413 -2.3462 0.9235
17.3391 9.4679 -2.3467 0.9235
16.2374 11.2738 -2.3481 0.9235
15.3980 12.4085 -2.3491 0.9234
14.9484 12.9528 -2.3495 0.9234
13.9919 13.9919 -2.3505 0.9234
12.9633 14.9605 -2.3514 0.9234
7.7596 9.6290 -1.4690 0.9514
9.4982 17.3947 -2.3542 0.9233
7.5887 18.3207 -2.3555 0.9232
6.9312 18.5833 -2.3560 0.9232
5.5898 19.0371 -2.3568 0.9232
3.3929 18.8055 -2.2699 0.9259
2.6801 18.6402 -2.2370 0.9269
2.0085 18.6823 -2.2320 0.9271
-0.0000 19.8656 -2.3598 0.9231
-0.7092 19.8556 -2.3601 0.9231
-1.4176 19.8202 -2.3604 0.9231
-2.0581 19.1431 -2.2870 0.9254
-3.4322 19.0232 -2.2962 0.9251
-4.1480 19.0681 -2.3180 0.9244
-5.6019 19.0782 -2.3619 0.9230
-6.9497 18.6330 -2.3623 0.9230
-7.6109 18.3744 -2.3624 0.9230
-8.2624 18.0922 -2.3626 0.9230
-8.9034 17.7868 -2.3627 0.9230
-9.5331 17.4585 -2.3629 0.9230
-10.7552 16.7353 -2.3630 0.9230
-11.3460 16.3413 -2.3631 0.9230
-11.9222 15.9263 -2.3632 0.9230
-11.0403 10.2788 -1.7918 0.9410
-11.4006 9.8787 -1.7919 0.9410
-12.2578 9.8780 -1.8700 0.9386
-13.1944 9.8772 -1.9578 0.9358
-17.1054 10.1491 -2.3626 0.9230
-19.2206 8.7778 -2.5100 0.9184
-19.5601 8.1021 -2.5149 0.9183
-19.8350 7.3981 -2.5147 0.9183
-20.0845 6.6848 -2.5144 0.9183
-20.5058 5.2338 -2.5139 0.9183
-20.8220 3.7567 -2.5133 0.9183
-21.1332 0.7548 -2.5119 0.9183
17.6021 0.0000 -2.4940 0.9314
17.5618 1.2560 -2.4947 0.9313
17.4323 2.5064 -2.4954 0.9313
17.2140 3.7447 -2.4961 0.9313
16.7227 5.5658 -2.4972 0.9313
16.5160 6.1601 -2.4976 0.9313
16.2773 6.7423 -2.4963 0.9313
14.5395 7.9392 -2.3472 0.9353
14.2492 8.4545 -2.3476 0.9353
13.9407 8.9591 -2.3480 0.9352
13.2705 9.9342 -2.3488 0.9352
12.1387 11.3016 -2.3500 0.9352
8.8107 8.8107 -1.7655 0.9509
9.4686 13.6374 -2.3523 0.9351
8.9773 13.9689 -2.3527 0.9351
6.4459 10.8640 -1.7899 0.9502
7.9605 14.5785 -2.3535 0.9351
6.9024 15.1141 -2.3542 0.9351
6.3595 15.3532 -2.3546 0.9351
5.8083 15.5728 -2.3550 0.9351
4.1122 16.1115 -2.3560 0.9350
3.5350 16.2503 -2.3563 0.9350
2.9532 16.3684 -2.3567 0.9350
2.3674 16.4655 -2.3570 0.9350
0.0000 8.3597 -1.1845 0.9668
-1.1876 16.6043 -2.3587 0.9350
-3.5399 16.2724 -2.3596 0.9349
-4.6924 15.9810 -2.3599 0.9349
-5.2602 15.8044 -2.3601 0.9349
-5.8214 15.6077 -2.3603 0.9349
-6.3751 15.3909 -2.3604 0.9349
-7.4576 14.8984 -2.3606 0.9349
-7.9849 14.6233 -2.3607 0.9349
-8.5021 14.3295 -2.3608 0.9349
-10.4558 12.9748 -2.3610 0.9349
-10.9123 12.5935 -2.3610 0.9349
-10.9235 11.7326 -2.2713 0.9373
-10.9470 10.9470 -2.1935 0.9394
-12.1187 9.7659 -2.2052 0.9391
-13.0370 9.7594 -2.3074 0.9363
-13.6861 9.5024 -2.3607 0.9349
-14.6697 8.7039 -2.4169 0.9334
-15.5467 8.4891 -2.5098 0.9309
-16.3847 6.7868 -2.5128 0.9309
-17.0121 4.9952 -2.5122 0.9309
-17.1780 4.3844 -2.5120 0.9309
-17.5428 2.5223 -2.5112 0.9309
-17.6197 1.8943 -2.5109 0.9309
-17.6741 1.2641 -2.5106 0.9309
-17.7058 0.6324 -2.5103 0.9309
15.1381 0.5407 -2.4954 0.9404
15.1108 1.0807 -2.4957 0.9404
15.0644 1.6196 -2.4960 0.9404
14.9988 2.1565 -2.4963 0.9404
14.6878 3.7488 -2.4972 0.9404
14.5466 4.2712 -2.4976 0.9404
14.2086 5.2995 -2.4982 0.9404
13.7981 6.3014 -2.4989 0.9404
13.5663 6.7908 -2.4993 0.9404
12.3543 7.3302 -2.3665 0.9434
11.7104 8.1307 -2.3486 0.9438
8.8106 8.8105 -2.0527 0.9507
8.2494 8.8605 -1.9944 0.9521
6.6758 8.9178 -1.8352 0.9558
6.4138 9.9801 -1.9544 0.9530
6.8452 12.5360 -2.3530 0.9437
6.3942 12.7741 -2.3533 0.9437
5.4681 13.2012 -2.3539 0.9437
2.8062 8.4312 -1.4639 0.9646
4.0272 13.7154 -2.3548 0.9437
3.5355 13.8521 -2.3551 0.9437
1.5289 14.2208 -2.3562 0.9437
1.0205 14.2679 -2.3565 0.9437
-1.0209 14.2735 -2.3574 0.9436
-1.5298 14.2292 -2.3576 0.9436
-3.0428 13.9875 -2.3582 0.9436
-4.0335 13.7367 -2.3585 0.9436
-4.5215 13.5848 -2.3586 0.9436
-5.0037 13.4155 -2.3588 0.9436
-5.4796 13.2291 -2.3589 0.9436
-6.4100 12.8056 -2.3591 0.9436
-7.3077 12.3165 -2.3593 0.9436
-7.7429 12.0481 -2.3593 0.9436
-8.1681 11.7643 -2.3594 0.9436
-8.5830 11.4655 -2.3594 0.9436
-9.3792 10.8242 -2.3595 0.9436
-9.7596 10.4825 -2.3595 0.9436
-10.1274 10.1274 -2.3595 0.9436
-11.1515 8.9864 -2.3593 0.9436
-11.4648 8.5825 -2.3593 0.9436
-12.8189 8.2382 -2.5103 0.9401
-13.1129 7.7802 -2.5118 0.9401
-13.3816 7.3069 -2.5117 0.9401
-13.6332 6.8243 -2.5116 0.9401
-13.8673 6.3330 -2.5114 0.9401
-14.0836 5.8336 -2.5113 0.9401
-14.4620 4.8134 -2.5109 0.9401
-14.6235 4.2938 -2.5108 0.9401
-14.7663 3.7689 -2.5106 0.9401
-15.1469 1.6285 -2.5097 0.9401
-15.1938 1.0867 -2.5094 0.9401
-15.2214 0.5436 -2.5092 0.9401
13.2793 0.0000 -2.4960 0.9474
13.2721 0.4740 -2.4962 0.9474
13.2072 1.4199 -2.4967 0.9474
13.1494 1.8906 -2.4970 0.9474
13.0750 2.3590 -2.4973 0.9474
12.7522 3.7444 -2.4981 0.9473
12.4555 4.6457 -2.4987 0.9473
12.0953 5.5237 -2.4993 0.9473
11.6733 6.3741 -2.4999 0.9473
11.1714 7.1794 -2.4960 0.9474
10.0047 7.4894 -2.3490 0.9504
9.1503 8.5192 -2.3499 0.9504
7.6115 8.7842 -2.1847 0.9538
7.1718 8.8996 -2.1483 0.9545
6.6757 8.9177 -2.0938 0.9557
6.3854 9.1967 -2.1044 0.9555
6.3020 9.8062 -2.1910 0.9537
6.3205 10.6526 -2.3282 0.9508
5.2007 11.3880 -2.3532 0.9503
4.7915 11.5677 -2.3534 0.9503
2.7944 8.3957 -1.6632 0.9646
3.5287 12.0177 -2.3542 0.9503
2.6630 12.2415 -2.3547 0.9503
2.2246 12.3300 -2.3550 0.9503
1.7833 12.4028 -2.3552 0.9503
1.3396 12.4597 -2.3554 0.9503
0.8941 12.5008 -2.3557 0.9503
0.3006 8.4180 -1.5833 0.9663
0.0000 8.3602 -1.5714 0.9665
-0.4474 12.5280 -2.3563 0.9503
-0.8944 12.5051 -2.3565 0.9503
-1.3403 12.4661 -2.3567 0.9502
-2.2265 12.3405 -2.3570 0.9502
-3.1016 12.1518 -2.3573 0.9502
-3.5335 12.0341 -2.3574 0.9502
-3.9610 11.9009 -2.3576 0.9502
-5.2112 11.4109 -2.3579 0.9502
-5.6153 11.2180 -2.3580 0.9502
-8.5495 9.1828 -2.3583 0.9502
-8.8717 8.8717 -2.3583 0.9502
-9.1826 8.5493 -2.3582 0.9502
-10.3770 8.3623 -2.5050 0.9472
-10.9725 7.6184 -2.5108 0.9471
-11.2371 7.2216 -2.5107 0.9471
-12.3380 5.1106 -2.5101 0.9471
-12.6697 4.2169 -2.5098 0.9471
-13.0451 2.8378 -2.5093 0.9471
-13.2123 1.8996 -2.5089 0.9471
-13.2705 1.4267 -2.5087 0.9471
-13.3118 0.9521 -2.5085 0.9471
-13.3361 0.4763 -2.5083 0.9471
11.8112 -0.0000 -2.4967 0.9529
11.7467 1.2629 -2.4973 0.9528
11.6952 1.6815 -2.4976 0.9528
11.6288 2.0981 -2.4978 0.9528
11.5477 2.5120 -2.4980 0.9528
11.3413 3.3301 -2.4985 0.9528
11.2164 3.7332 -2.4988 0.9528
10.1731 6.0360 -2.5004 0.9528
9.9523 6.3960 -2.5007 0.9528
9.7188 6.7479 -2.5010 0.9528
9.4668 7.0867 -2.4997 0.9528
9.1898 7.4056 -2.4948 0.9529
8.6491 7.4945 -2.4191 0.9543
7.8618 7.8618 -2.3502 0.9556
7.2826 8.4045 -2.3507 0.9556
6.9787 8.6601 -2.3510 0.9555
6.2610 9.0175 -2.3205 0.9561
6.0151 9.3596 -2.3518 0.9555
5.3332 9.7670 -2.3523 0.9555
4.9817 9.9522 -2.3525 0.9555
4.6238 10.1247 -2.3528 0.9555
4.2599 10.2844 -2.3530 0.9555
3.1371 10.6840 -2.3537 0.9555
2.7540 10.7902 -2.3540 0.9555
1.5853 11.0258 -2.3546 0.9555
0.7948 11.1127 -2.3550 0.9555
-0.3977 11.1366 -2.3556 0.9555
-0.7950 11.1161 -2.3557 0.9555
-1.5862 11.0325 -2.3560 0.9555
-2.7570 10.8017 -2.3565 0.9554
-3.1409 10.6969 -2.3566 0.9554
-3.5209 10.5785 -2.3567 0.9554
-4.2669 10.3013 -2.3569 0.9554
-4.6321 10.1428 -2.3570 0.9554
-4.9913 9.9713 -2.3571 0.9554
-5.6902 9.5903 -2.3572 0.9554
-6.0290 9.3813 -2.3572 0.9554
-6.3601 9.1603 -2.3573 0.9554
-6.9976 8.6834 -2.3573 0.9554
-8.6814 8.0827 -2.5073 0.9527
-8.9739 7.7759 -2.5100 0.9526
-9.5054 7.1156 -2.5099 0.9526
-9.7531 6.7717 -2.5098 0.9526
-9.9883 6.4191 -2.5097 0.9526
-10.6161 5.3140 -2.5095 0.9526
-11.1217 4.1482 -2.5091 0.9526
-11.2621 3.7484 -2.5090 0.9526
-11.3880 3.3438 -2.5088 0.9526
-11.4994 2.9350 -2.5087 0.9526
-11.5961 2.5226 -2.5085 0.9526
-11.7449 1.6887 -2.5082 0.9526
-11.8553 0.4234 -2.5076 0.9527
10.6253 0.0000 -2.4972 0.9573
10.5999 0.7581 -2.4976 0.9573
10.5669 1.1361 -2.4978 0.9573
10.4608 1.8873 -2.4982 0.9573
10.0893 3.3580 -2.4991 0.9572
9.5124 4.7616 -2.5001 0.9572
9.3373 5.0986 -2.5003 0.9572
8.9516 5.7528 -2.5008 0.9572
8.7415 6.0693 -2.5011 0.9572
8.5201 6.3781 -2.5013 0.9572
7.0467 7.5687 -2.4304 0.9584
5.9950 8.0084 -2.3511 0.9597
5.7059 8.2181 -2.3513 0.9597
5.1061 8.6059 -2.3518 0.9597
4.7962 8.7835 -2.3520 0.9597
4.4800 8.9500 -2.3523 0.9597
3.4986 9.3802 -2.3529 0.9597
2.8210 9.6076 -2.3533 0.9597
2.1288 9.7860 -2.3537 0.9597
1.7783 9.8566 -2.3539 0.9597
0.0000 8.3605 -1.9649 0.9662
-0.3576 10.0138 -2.3550 0.9597
-0.7149 9.9953 -2.3551 0.9597
-1.4263 9.9200 -2.3554 0.9597
-2.4789 9.7123 -2.3558 0.9596
-3.1657 9.5115 -2.3560 0.9596
-3.5033 9.3928 -2.3561 0.9596
-3.8365 9.2622 -2.3562 0.9596
-4.1648 9.1196 -2.3563 0.9596
-4.4878 8.9654 -2.3563 0.9596
-4.8050 8.7998 -2.3564 0.9596
-5.1162 8.6228 -2.3564 0.9596
-5.7279 8.2498 -2.3604 0.9596
-6.6648 8.2704 -2.4963 0.9573
-6.9811 8.0566 -2.5055 0.9571
-7.2751 7.8140 -2.5092 0.9571
-7.8139 7.2750 -2.5092 0.9571
-8.3128 6.6989 -2.5091 0.9571
-9.1807 5.4471 -2.5089 0.9571
-9.3689 5.1158 -2.5088 0.9571
-9.5452 4.7780 -2.5087 0.9571
-9.7093 4.4341 -2.5086 0.9571
-9.8610 4.0845 -2.5085 0.9571
-10.0000 3.7298 -2.5084 0.9571
-10.4268 2.2682 -2.5078 0.9571
9.6410 0.3443 -2.4978 0.9609
9.6232 0.6883 -2.4980 0.9609
9.4967 1.7134 -2.4986 0.9609
9.4302 2.0514 -2.4988 0.9609
9.3518 2.3869 -2.4990 0.9609
9.2614 2.7194 -2.4992 0.9609
9.1592 3.0485 -2.4994 0.9609
9.0453 3.3737 -2.4996 0.9609
8.9199 3.6948 -2.4998 0.9609
8.7831 4.0111 -2.5000 0.9609
8.6351 4.3224 -2.5003 0.9609
8.4761 4.6283 -2.5005 0.9609
8.3063 4.9283 -2.5007 0.9609
7.9350 5.5094 -2.5012 0.9609
7.7340 5.7896 -2.5014 0.9609
7.0728 6.5850 -2.5021 0.9609
6.8339 6.8339 -2.5023 0.9609
6.3235 7.2977 -2.5002 0.9609
5.3177 7.6590 -2.4142 0.9622
4.3531 7.9722 -2.3518 0.9632
4.0662 8.1232 -2.3520 0.9632
3.7740 8.2639 -2.3522 0.9632
3.1754 8.5135 -2.3526 0.9632
2.7688 8.3190 -2.2701 0.9644
2.2477 8.8063 -2.3532 0.9631
1.6139 8.9455 -2.3535 0.9631
0.6486 9.0687 -2.3540 0.9631
0.0000 8.3606 -2.1647 0.9660
-0.6488 9.0710 -2.3546 0.9631
-0.9722 9.0425 -2.3548 0.9631
-1.6150 8.9511 -2.3550 0.9631
-1.9335 8.8882 -2.3551 0.9631
-2.2496 8.8139 -2.3552 0.9631
-2.5629 8.7283 -2.3553 0.9631
-3.1792 8.5239 -2.3555 0.9631
-3.4816 8.4053 -2.3556 0.9631
-3.7795 8.2759 -2.3557 0.9631
-4.0850 8.1607 -2.3629 0.9630
-5.2242 8.1290 -2.5019 0.9609
-5.5184 7.9480 -2.5053 0.9608
-5.8061 7.7560 -2.5085 0.9608
-6.3446 7.3221 -2.5085 0.9608
-7.3220 6.3445 -2.5085 0.9608
-7.5437 6.0791 -2.5085 0.9608
-7.7557 5.8058 -2.5084 0.9608
-7.9578 5.5252 -2.5084 0.9608
-8.1498 5.2375 -2.5083 0.9608
-8.6622 4.3360 -2.5081 0.9608
-9.2925 2.7285 -2.5076 0.9608
-9.4625 2.0584 -2.5073 0.9608
-9.5294 1.7193 -2.5072 0.9608
-9.5841 1.3780 -2.5070 0.9608
-9.6568 0.6907 -2.5067 0.9608
8.8240 0.0000 -2.4980 0.9640
8.8189 0.3150 -2.4982 0.9640
8.7365 1.2561 -2.4987 0.9640
8.6259 1.8764 -2.4990 0.9640
8.4713 2.4874 -2.4994 0.9640
8.3778 2.7884 -2.4996 0.9640
8.0336 3.6688 -2.5002 0.9640
7.7527 4.2333 -2.5006 0.9639
7.4322 4.7764 -2.5010 0.9639
7.2576 5.0390 -2.5012 0.9639
6.8808 5.5449 -2.5017 0.9639
6.2502 6.2502 -2.5023 0.9639
6.0237 6.4699 -2.5025 0.9639
5.7894 6.6813 -2.5027 0.9639
5.2989 7.0785 -2.5031 0.9639
5.0415 7.2611 -2.5025 0.9639
4.7745 7.4293 -2.5001 0.9640
4.5022 7.5881 -2.4978 0.9640
4.2067 7.7039 -2.4849 0.9642
3.5403 7.7522 -2.4126 0.9652
3.2203 7.7746 -2.3823 0.9656
2.9088 7.7987 -2.3563 0.9660
2.3438 7.9824 -2.3552 0.9660
1.1831 8.2285 -2.3534 0.9660
0.8887 8.2660 -2.3535 0.9660
0.5931 8.2930 -2.3537 0.9660
0.2968 8.3094 -2.3538 0.9660
-0.2968 8.3103 -2.3541 0.9660
-0.5933 8.2949 -2.3542 0.9660
-1.1836 8.2322 -2.3545 0.9660
-1.7681 8.1276 -2.3547 0.9660
-2.0575 8.0615 -2.3553 0.9660
-2.3688 8.0673 -2.3802 0.9657
-3.0172 8.0894 -2.4441 0.9647
-3.3551 8.1000 -2.4820 0.9642
-4.2432 7.7709 -2.5065 0.9639
-4.5204 7.6187 -2.5079 0.9638
-5.0525 7.2770 -2.5079 0.9638
-5.3091 7.0921 -2.5080 0.9638
-5.5589 6.8981 -2.5080 0.9638
-5.8015 6.6953 -2.5080 0.9638
-6.2644 6.2644 -2.5080 0.9638
-6.6952 5.8014 -2.5079 0.9638
-7.0918 5.3089 -2.5079 0.9638
-7.6182 4.5201 -2.5077 0.9638
-7.9208 3.9649 -2.5076 0.9638
-8.0570 3.6795 -2.5075 0.9638
-8.2984 3.0951 -2.5073 0.9639
-8.4032 2.7969 -2.5072 0.9639
-8.7141 1.5722 -2.5067 0.9639
-8.8031 0.9464 -2.5065 0.9639
-8.8307 0.6316 -2.5063 0.9639
-8.8471 0.3160 -2.5062 0.9639
8.1226 -0.0000 -2.4983 0.9666
8.1179 0.2899 -2.4985 0.9666
8.0775 0.8684 -2.4988 0.9666
8.0419 1.1562 -2.4989 0.9666
7.7976 2.2896 -2.4996 0.9666
7.7114 2.5666 -2.4998 0.9666
7.5098 3.1106 -2.5002 0.9666
7.3945 3.3770 -2.5003 0.9666
6.9928 4.1490 -2.5009 0.9665
6.8407 4.3963 -2.5011 0.9665
6.6800 4.6380 -2.5013 0.9665
6.3331 5.1035 -2.5017 0.9665
6.1474 5.3267 -2.5019 0.9665
5.9538 5.5432 -2.5021 0.9665
5.5440 5.9547 -2.5025 0.9665
5.3284 6.1493 -2.5027 0.9665
3.6440 7.2799 -2.5040 0.9665
3.3797 7.4006 -2.5024 0.9665
2.5652 7.7072 -2.4984 0.9666
2.2876 7.7908 -2.4974 0.9666
1.9959 7.8200 -2.4824 0.9668
1.7051 7.8381 -2.4672 0.9670
1.4173 7.8554 -2.4552 0.9671
0.8480 7.8879 -2.4401 0.9673
0.0000 7.9323 -2.4398 0.9673
-0.2838 7.9461 -2.4456 0.9673
-1.1480 7.9847 -2.4812 0.9668
-2.5719 7.7274 -2.5050 0.9665
-3.6489 7.2895 -2.5073 0.9665
-3.9068 7.1547 -2.5073 0.9665
-4.1597 7.0109 -2.5074 0.9665
-4.4074 6.8580 -2.5074 0.9665
-4.6494 6.6964 -2.5075 0.9665
-4.8855 6.5263 -2.5075 0.9665
-5.1154 6.3478 -2.5075 0.9665
-5.7646 5.7646 -2.5075 0.9665
-5.9666 5.5551 -2.5075 0.9665
-6.3476 5.1152 -2.5074 0.9665
-6.5261 4.8853 -2.5074 0.9665
-7.0105 4.1595 -2.5073 0.9665
-7.1543 3.9065 -2.5072 0.9665
-7.2890 3.6486 -2.5071 0.9665
-7.6365 2.8483 -2.5069 0.9665
-7.7330 2.5738 -2.5068 0.9665
-7.8962 2.0154 -2.5066 0.9665
-8.0192 1.4468 -2.5063 0.9665
-8.1011 0.8710 -2.5061 0.9665
-8.1266 0.5812 -2.5060 0.9665
-8.1418 0.2908 -2.5058 0.9665
7.4984 0.5363 -2.4989 0.9688
7.3994 1.3350 -2.4993 0.9688
7.3475 1.5984 -2.4995 0.9688
7.2157 2.1187 -2.4998 0.9688
7.1359 2.3751 -2.5000 0.9688
7.0471 2.6284 -2.5001 0.9688
6.8426 3.1249 -2.5005 0.9688
6.7271 3.3674 -2.5006 0.9688
6.6031 3.6056 -2.5008 0.9688
6.4707 3.8392 -2.5010 0.9688
6.3300 4.0680 -2.5012 0.9688
6.1812 4.2917 -2.5014 0.9688
5.8601 4.7224 -2.5017 0.9688
5.6882 4.9289 -2.5019 0.9688
5.5091 5.1292 -2.5021 0.9688
5.1299 5.5099 -2.5024 0.9688
4.9303 5.6899 -2.5026 0.9688
4.7244 5.8627 -2.5028 0.9688
4.5125 6.0280 -2.5030 0.9688
4.0715 6.3354 -2.5033 0.9688
3.8431 6.4772 -2.5035 0.9688
3.6097 6.6107 -2.5037 0.9687
3.3717 6.7358 -2.5038 0.9687
3.1293 6.8523 -2.5040 0.9687
2.6329 7.0590 -2.5043 0.9687
2.3794 7.1489 -2.5045 0.9687
1.8636 7.3013 -2.5048 0.9687
1.3380 7.4158 -2.5049 0.9687
0.8053 7.4908 -2.5043 0.9687
0.0000 7.5351 -2.5047 0.9687
-0.2690 7.5315 -2.5051 0.9687
-0.5378 7.5188 -2.5057 0.9687
-1.3387 7.4201 -2.5063 0.9687
-2.1245 7.2353 -2.5066 0.9687
-2.3814 7.1551 -2.5067 0.9687
-2.6354 7.0657 -2.5067 0.9687
-3.1329 6.8600 -2.5069 0.9687
-3.6144 6.6193 -2.5069 0.9687
-3.8484 6.4862 -2.5070 0.9687
-4.0775 6.3448 -2.5070 0.9687
-5.1394 5.5201 -2.5071 0.9687
-5.8726 4.7324 -2.5070 0.9687
-6.0377 4.5197 -2.5070 0.9687
-6.1950 4.3013 -2.5070 0.9687
-6.7435 3.3756 -2.5067 0.9687
-7.0651 2.6351 -2.5065 0.9687
-7.1544 2.3812 -2.5064 0.9687
-7.2346 2.1243 -2.5063 0.9687
-7.3671 1.6026 -2.5061 0.9687
-7.4193 1.3386 -2.5060 0.9687
-7.4620 1.0729 -2.5059 0.9687
-7.4952 0.8058 -2.5058 0.9687
-7.5188 0.5377 -2.5057 0.9687
-7.5328 0.2690 -2.5055 0.9687
6.9877 -0.0000 -2.4988 0.9708
6.8785 1.2410 -2.4995 0.9707
6.8302 1.4858 -2.4997 0.9707
6.6334 2.2078 -2.5001 0.9707
6.5508 2.4433 -2.5003 0.9707
6.4598 2.6757 -2.5004 0.9707
6.2533 3.1302 -2.5007 0.9707
6.0148 3.5688 -2.5011 0.9707
5.8840 3.7814 -2.5012 0.9707
4.9477 4.9477 -2.5022 0.9707
4.5828 5.2888 -2.5026 0.9707
4.3914 5.4494 -2.5027 0.9707
4.1944 5.6030 -2.5029 0.9707
3.7845 5.8887 -2.5032 0.9707
3.3552 6.1445 -2.5036 0.9707
2.9086 6.3690 -2.5039 0.9707
1.9731 6.7197 -2.5045 0.9707
1.7321 6.7863 -2.5046 0.9707
1.4889 6.8441 -2.5048 0.9707
1.2437 6.8933 -2.5049 0.9707
0.7488 6.9652 -2.5051 0.9707
0.2501 7.0015 -2.5054 0.9707
0.0000 7.0063 -2.5055 0.9707
-0.7490 6.9670 -2.5058 0.9707
-1.4897 6.8478 -2.5061 0.9707
-1.9745 6.7245 -2.5063 0.9707
-3.1375 6.2678 -2.5066 0.9707
-3.3592 6.1520 -2.5066 0.9707
-3.5767 6.0282 -2.5066 0.9707
-3.9977 5.7578 -2.5067 0.9707
-4.3984 5.4580 -2.5067 0.9707
-4.7766 5.1304 -2.5067 0.9707
-4.9566 4.9566 -2.5067 0.9707
-5.1303 4.7765 -2.5067 0.9707
-5.2975 4.5903 -2.5067 0.9707
-6.1516 3.3590 -2.5065 0.9707
-6.3753 2.9115 -2.5063 0.9707
-6.4750 2.6820 -2.5063 0.9707
-6.6494 2.2131 -2.5061 0.9707
-6.7239 1.9743 -2.5060 0.9707
-6.8471 1.4895 -2.5058 0.9707
-6.8956 1.2441 -2.5057 0.9707
-6.9353 0.9971 -2.5056 0.9707
-6.9662 0.7489 -2.5055 0.9707
-7.0012 0.2500 -2.5053 0.9707
6.5212 0.0000 -2.4990 0.9725
6.5174 0.2328 -2.4992 0.9725
6.5052 0.4653 -2.4993 0.9724
6.4561 0.9283 -2.4995 0.9724
6.3741 1.3866 -2.4998 0.9724
6.3209 1.6133 -2.4999 0.9724
6.2597 1.8380 -2.5001 0.9724
6.0284 2.4970 -2.5005 0.9724
5.9358 2.7108 -2.5007 0.9724
5.7279 3.1277 -2.5010 0.9724
5.6130 3.3303 -2.5011 0.9724
5.4909 3.5288 -2.5013 0.9724
5.0832 4.0963 -2.5018 0.9724
4.6171 4.6170 -2.5022 0.9724
4.2764 4.9353 -2.5025 0.9724
4.0978 5.0851 -2.5027 0.9724
3.9140 5.2284 -2.5028 0.9724
3.7251 5.3651 -2.5030 0.9724
3.5314 5.4950 -2.5032 0.9724
3.3332 5.6179 -2.5033 0.9724
3.1308 5.7336 -2.5035 0.9724
2.9243 5.8421 -2.5036 0.9724
2.7141 5.9431 -2.5037 0.9724
2.0636 6.2002 -2.5042 0.9724
1.8411 6.2702 -2.5043 0.9724
1.6162 6.3323 -2.5044 0.9724
0.9302 6.4697 -2.5048 0.9724
0.6987 6.4991 -2.5049 0.9724
0.4663 6.5202 -2.5051 0.9724
0.2333 6.5330 -2.5052 0.9724
0.0000 6.5375 -2.5053 0.9724
-0.6989 6.5008 -2.5056 0.9724
-0.9305 6.4719 -2.5057 0.9724
-1.1610 6.4348 -2.5057 0.9724
-1.3899 6.3895 -2.5058 0.9724
-1.6172 6.3360 -2.5059 0.9724
-2.0652 6.2048 -2.5060 0.9724
-2.5027 6.0420 -2.5062 0.9724
-2.7168 5.9489 -2.5062 0.9724
-3.1343 5.7401 -2.5063 0.9724
-3.3373 5.6247 -2.5063 0.9724
-3.7301 5.3724 -2.5064 0.9724
-4.1039 5.0926 -2.5064 0.9724
-5.0925 4.1038 -2.5064 0.9724
-5.2357 3.9194 -2.5063 0.9724
-5.5018 3.5358 -2.5063 0.9724
-5.8479 2.9273 -2.5061 0.9724
-5.9485 2.7166 -2.5060 0.9724
-6.1268 2.2852 -2.5059 0.9724
-6.2739 1.8422 -2.5058 0.9724
-6.3354 1.6170 -2.5057 0.9724
-6.3888 1.3898 -2.5056 0.9724
-6.4341 1.1608 -2.5055 0.9724
-6.5000 0.6988 -2.5053 0.9724
-6.5206 0.4664 -2.5052 0.9724
-6.5328 0.2333 -2.5051 0.9724
6.1029 0.2180 -2.4993 0.9740
6.0915 0.4357 -2.4995 0.9740
6.0723 0.6528 -2.4996 0.9739
5.9686 1.2984 -2.4999 0.9739
5.9188 1.5107 -2.5001 0.9739
5.7966 1.9293 -2.5003 0.9739
5.6448 2.3381 -2.5006 0.9739
5.2558 3.1184 -2.5012 0.9739
5.1414 3.3042 -2.5013 0.9739
5.0205 3.4858 -2.5015 0.9739
4.8932 3.6630 -2.5016 0.9739
4.4744 4.1658 -2.5021 0.9739
4.1663 4.4749 -2.5024 0.9739
4.0041 4.6210 -2.5025 0.9739
3.8369 4.7613 -2.5026 0.9739
3.6647 4.8955 -2.5028 0.9739
3.4878 5.0234 -2.5029 0.9739
3.3065 5.1450 -2.5031 0.9739
3.1209 5.2600 -2.5032 0.9739
2.9314 5.3684 -2.5034 0.9739
2.7380 5.4699 -2.5035 0.9739
2.5412 5.5644 -2.5036 0.9739
1.7238 5.8707 -2.5042 0.9739
1.5132 5.9288 -2.5043 0.9739
0.4366 6.1046 -2.5049 0.9739
-0.4367 6.1056 -2.5053 0.9739
-0.6543 6.0863 -2.5053 0.9739
-0.8712 6.0593 -2.5054 0.9739
-1.5141 5.9320 -2.5057 0.9739
-1.9335 5.8092 -2.5058 0.9739
-2.1396 5.7366 -2.5058 0.9739
-2.3431 5.6567 -2.5059 0.9739
-3.3105 5.1512 -2.5061 0.9739
-4.1726 4.4816 -2.5061 0.9739
-4.4816 4.1725 -2.5061 0.9739
-4.6277 4.0099 -2.5061 0.9739
-4.9018 3.6695 -2.5061 0.9739
-5.0296 3.4921 -2.5060 0.9739
-5.3738 2.9343 -2.5059 0.9739
-5.7362 2.1395 -2.5057 0.9739
-5.8087 1.9333 -2.5056 0.9739
-5.8739 1.7247 -2.5055 0.9739
-5.9315 1.5139 -2.5054 0.9739
-6.0587 0.8711 -2.5052 0.9739
5.7029 0.6131 -2.4997 0.9753
5.6776 0.8163 -2.4998 0.9753
5.6451 1.0185 -2.5000 0.9753
5.6054 1.2194 -2.5001 0.9753
5.5586 1.4187 -2.5002 0.9753
5.5047 1.6163 -2.5003 0.9753
5.4438 1.8119 -2.5004 0.9753
5.3759 2.0051 -2.5006 0.9753
5.3012 2.1958 -2.5007 0.9753
5.2197 2.3837 -2.5008 0.9753
4.9358 2.9285 -2.5012 0.9753
4.5952 3.4399 -2.5016 0.9753
4.4697 3.6019 -2.5018 0.9753
4.3386 3.7594 -2.5019 0.9753
4.2019 3.9121 -2.5021 0.9753
4.0598 4.0598 -2.5022 0.9753
3.7602 4.3395 -2.5025 0.9753
3.6031 4.4712 -2.5026 0.9753
3.2753 4.7174 -2.5029 0.9753
2.3863 5.2254 -2.5035 0.9752
2.0077 5.3828 -2.5038 0.9752
1.2214 5.6148 -2.5043 0.9752
1.0203 5.6551 -2.5044 0.9752
0.6143 5.7139 -2.5046 0.9752
0.4100 5.7325 -2.5047 0.9752
-0.6145 5.7152 -2.5051 0.9752
-0.8181 5.6898 -2.5052 0.9752
-1.2220 5.6173 -2.5054 0.9752
-1.4217 5.5702 -2.5054 0.9752
-1.6197 5.5161 -2.5055 0.9752
-2.0091 5.3867 -2.5056 0.9752
-2.2002 5.3117 -2.5057 0.9752
-2.7555 5.0463 -2.5058 0.9752
-3.4457 4.6030 -2.5059 0.9752
-3.6078 4.4771 -2.5059 0.9752
-3.7653 4.3454 -2.5059 0.9752
-3.9180 4.2083 -2.5059 0.9752
-4.6028 3.4456 -2.5058 0.9752
-4.8368 3.1084 -2.5057 0.9752
-4.9446 2.9338 -2.5057 0.9752
-5.2296 2.3883 -2.5056 0.9752
-5.4545 1.8154 -2.5054 0.9752
-5.5157 1.6195 -2.5053 0.9752
-5.5698 1.4216 -2.5052 0.9752
-5.7146 0.6144 -2.5049 0.9752
-5.7435 0.2051 -2.5047 0.9752
5.3866 0.3853 -2.4998 0.9765
5.3697 0.5773 -2.4999 0.9765
5.3459 0.7686 -2.5000 0.9765
5.1830 1.5219 -2.5004 0.9765
5.1256 1.7060 -2.5005 0.9765
5.0617 1.8879 -2.5007 0.9765
4.9146 2.2444 -2.5009 0.9765
4.8316 2.4185 -2.5010 0.9765
4.7424 2.5896 -2.5011 0.9765
4.6472 2.7573 -2.5013 0.9765
4.5461 2.9216 -2.5014 0.9765
4.4391 3.0821 -2.5015 0.9765
4.3265 3.2388 -2.5017 0.9765
4.2084 3.3913 -2.5018 0.9765
3.9561 3.6833 -2.5021 0.9765
3.8224 3.8223 -2.5022 0.9765
3.5403 4.0857 -2.5024 0.9765
3.3924 4.2097 -2.5026 0.9765
3.2401 4.3283 -2.5027 0.9765
3.0837 4.4414 -2.5028 0.9764
2.9234 4.5489 -2.5030 0.9764
2.7593 4.6506 -2.5031 0.9764
2.5917 4.7463 -2.5032 0.9764
2.4208 4.8360 -2.5033 0.9764
2.2467 4.9196 -2.5034 0.9764
2.0698 4.9969 -2.5036 0.9764
1.8902 5.0678 -2.5037 0.9764
1.7082 5.1323 -2.5038 0.9764
1.5240 5.1902 -2.5039 0.9764
1.3378 5.2416 -2.5040 0.9764
1.1499 5.2862 -2.5041 0.9764
0.9606 5.3241 -2.5042 0.9764
0.3860 5.3969 -2.5045 0.9764
0.1931 5.4074 -2.5046 0.9764
0.0000 5.4111 -2.5047 0.9764
-0.3860 5.3976 -2.5049 0.9764
-0.5785 5.3806 -2.5050 0.9764
-0.7702 5.3567 -2.5050 0.9764
-1.3385 5.2441 -2.5052 0.9764
-1.7093 5.1355 -2.5053 0.9764
-1.8915 5.0713 -2.5054 0.9764
-2.0713 5.0006 -2.5054 0.9764
-2.7621 4.6552 -2.5056 0.9764
-2.9265 4.5537 -2.5056 0.9764
-3.2439 4.3334 -2.5056 0.9764
-3.5448 4.0910 -2.5056 0.9764
-4.0909 3.5448 -2.5056 0.9764
-4.4463 3.0871 -2.5056 0.9764
-4.5536 2.9264 -2.5055 0.9764
-4.6551 2.7620 -2.5055 0.9764
-4.9234 2.2484 -2.5053 0.9764
-5.1351 1.7091 -2.5052 0.9764
-5.3562 0.7701 -2.5048 0.9764
-5.3971 0.3860 -2.5046 0.9764
-5.4073 0.1931 -2.5045 0.9764
5.0929 0.1819 -2.4998 0.9776
5.0834 0.3636 -2.4999 0.9775
5.0160 0.9050 -2.5002 0.9775
4.9807 1.0835 -2.5003 0.9775
4.9391 1.2606 -2.5004 0.9775
4.8911 1.4362 -2.5005 0.9775
4.7766 1.7816 -2.5007 0.9775
4.7102 1.9510 -2.5008 0.9775
4.6378 2.1180 -2.5010 0.9775
4.5595 2.2823 -2.5011 0.9775
4.2900 2.7570 -2.5014 0.9775
4.1891 2.9085 -2.5016 0.9775
4.0828 3.0563 -2.5017 0.9775
3.7332 3.4758 -2.5020 0.9775
3.6070 3.6070 -2.5022 0.9775
3.3408 3.8555 -2.5024 0.9775
3.2012 3.9725 -2.5025 0.9775
3.0575 4.0844 -2.5027 0.9775
2.9099 4.1911 -2.5028 0.9775
2.4456 4.4788 -2.5031 0.9775
2.2843 4.5634 -2.5033 0.9775
2.1200 4.6423 -2.5034 0.9775
1.4381 4.8976 -2.5038 0.9775
1.0851 4.9881 -2.5040 0.9775
0.9064 5.0239 -2.5041 0.9775
0.7265 5.0532 -2.5042 0.9775
0.3642 5.0925 -2.5044 0.9775
-0.1822 5.1028 -2.5046 0.9775
-0.3643 5.0932 -2.5047 0.9775
-0.5458 5.0771 -2.5048 0.9775
-1.2630 4.9482 -2.5050 0.9775
-1.4388 4.9001 -2.5051 0.9775
-1.9545 4.7185 -2.5052 0.9775
-2.1217 4.6458 -2.5053 0.9775
-2.2862 4.5672 -2.5053 0.9775
-2.4478 4.4827 -2.5053 0.9775
-2.6062 4.3926 -2.5054 0.9775
-2.7614 4.2968 -2.5054 0.9775
-2.9130 4.1955 -2.5054 0.9775
-3.0609 4.0889 -2.5054 0.9775
-3.2049 3.9771 -2.5054 0.9775
-3.3448 3.8601 -2.5054 0.9775
-3.4805 3.7383 -2.5054 0.9775
-3.6117 3.6117 -2.5054 0.9775
-3.8601 3.3448 -2.5054 0.9775
-4.1954 2.9129 -2.5054 0.9775
-4.3924 2.6061 -2.5053 0.9775
-4.4826 2.4477 -2.5052 0.9775
-4.5670 2.2861 -2.5052 0.9775
-4.6456 2.1216 -2.5052 0.9775
-4.8454 1.6127 -2.5050 0.9775
-4.8998 1.4387 -2.5049 0.9775
-4.9897 1.0854 -2.5048 0.9775
-5.0251 0.9066 -2.5047 0.9775
-5.0541 0.7267 -2.5046 0.9775
-5.0767 0.5458 -2.5046 0.9775
-5.0927 0.3642 -2.5045 0.9775
-5.1023 0.1822 -2.5044 0.9775
4.8187 -0.0000 -2.4998 0.9785
4.7916 0.5151 -2.5001 0.9785
4.7703 0.6859 -2.5002 0.9785
4.6249 1.3580 -2.5006 0.9785
4.5166 1.6846 -2.5008 0.9785
4.3853 2.0027 -2.5010 0.9785
4.1467 2.4603 -2.5014 0.9785
4.0564 2.6069 -2.5015 0.9785
3.8604 2.8899 -2.5017 0.9785
3.5299 3.2864 -2.5020 0.9785
3.4105 3.4105 -2.5022 0.9785
3.2867 3.5302 -2.5023 0.9785
3.0268 3.7560 -2.5025 0.9785
2.8910 3.8619 -2.5026 0.9785
2.7514 3.9628 -2.5027 0.9785
2.6083 4.0586 -2.5029 0.9785
2.3123 4.2347 -2.5031 0.9785
2.1598 4.3148 -2.5032 0.9785
1.6864 4.5215 -2.5035 0.9785
1.5240 4.5790 -2.5036 0.9785
1.0259 4.7162 -2.5039 0.9785
0.8570 4.7500 -2.5040 0.9785
0.5160 4.7994 -2.5042 0.9785
0.3444 4.8149 -2.5043 0.9785
0.1723 4.8243 -2.5043 0.9785
-0.1723 4.8246 -2.5045 0.9785
-0.3444 4.8155 -2.5046 0.9785
-0.5161 4.8003 -2.5046 0.9785
-0.6871 4.7789 -2.5047 0.9785
-1.1941 4.6784 -2.5049 0.9785
-1.5249 4.5815 -2.5050 0.9785
-1.6875 4.5242 -2.5050 0.9785
-2.1615 4.3181 -2.5051 0.9785
-3.0301 3.7602 -2.5053 0.9785
-3.2907 3.5344 -2.5053 0.9785
-3.4147 3.4147 -2.5053 0.9785
-3.6496 3.1624 -2.5052 0.9785
-3.7601 3.0301 -2.5052 0.9785
-3.9666 2.7541 -2.5052 0.9785
-4.0623 2.6107 -2.5051 0.9785
-4.1529 2.4640 -2.5051 0.9785
-4.3179 2.1614 -2.5050 0.9785
-4.3923 2.0059 -2.5050 0.9785
-4.5240 1.6873 -2.5049 0.9785
-4.6326 1.3603 -2.5048 0.9785
-4.6781 1.1940 -2.5047 0.9785
-4.7176 1.0263 -2.5046 0.9785
4.5616 0.1629 -2.5000 0.9794
4.5531 0.3256 -2.5001 0.9794
4.4610 0.9704 -2.5005 0.9794
3.9277 2.3304 -2.5014 0.9794
3.8422 2.4692 -2.5015 0.9794
3.7518 2.6049 -2.5016 0.9794
3.6566 2.7373 -2.5017 0.9794
3.5567 2.8662 -2.5018 0.9794
3.4523 2.9914 -2.5019 0.9794
3.3435 3.1129 -2.5020 0.9794
3.2304 3.2304 -2.5022 0.9794
3.1132 3.3438 -2.5023 0.9794
2.8669 3.5576 -2.5025 0.9794
2.7382 3.6579 -2.5026 0.9794
2.6061 3.7534 -2.5027 0.9794
2.4705 3.8442 -2.5028 0.9794
2.0457 4.0868 -2.5031 0.9794
1.8986 4.1574 -2.5032 0.9794
1.7491 4.2227 -2.5033 0.9794
1.5973 4.2826 -2.5034 0.9794
1.4435 4.3370 -2.5035 0.9794
1.1305 4.4293 -2.5037 0.9794
0.8117 4.4990 -2.5039 0.9794
0.6506 4.5252 -2.5040 0.9794
0.3262 4.5604 -2.5041 0.9794
0.0000 4.5723 -2.5043 0.9794
-0.6508 4.5263 -2.5046 0.9794
-1.1310 4.4311 -2.5047 0.9794
-1.5982 4.2850 -2.5049 0.9794
-1.8999 4.1602 -2.5049 0.9794
-2.4727 3.8477 -2.5050 0.9794
-2.7410 3.6615 -2.5051 0.9794
-2.9952 3.4566 -2.5051 0.9794
-3.1167 3.3475 -2.5051 0.9794
-3.4566 2.9952 -2.5051 0.9794
-3.6614 2.7409 -2.5050 0.9794
-3.7569 2.6085 -2.5050 0.9794
-3.8476 2.4727 -2.5050 0.9794
-4.0140 2.1918 -2.5049 0.9794
-4.0897 2.0471 -2.5049 0.9794
-4.1600 1.8998 -2.5048 0.9794
-4.3877 1.2883 -2.5046 0.9794
-4.5462 0.4888 -2.5043 0.9794
-4.5606 0.3262 -2.5042 0.9794
4.3302 -0.0000 -2.5000 0.9802
4.3276 0.1546 -2.5001 0.9802
4.3194 0.3089 -2.5002 0.9802
4.3058 0.4629 -2.5003 0.9802
4.2621 0.7690 -2.5005 0.9802
4.1099 1.3679 -2.5008 0.9802
4.0586 1.5138 -2.5009 0.9802
4.0021 1.6577 -2.5010 0.9802
3.8740 1.9392 -2.5012 0.9802
3.8025 2.0763 -2.5013 0.9802
3.7261 2.2108 -2.5014 0.9802
3.5592 2.4712 -2.5016 0.9802
3.2750 2.8378 -2.5019 0.9802
3.1718 2.9530 -2.5020 0.9802
2.8383 3.2756 -2.5024 0.9802
2.3436 3.6468 -2.5028 0.9802
2.2121 3.7282 -2.5029 0.9802
2.0777 3.8050 -2.5030 0.9802
1.9406 3.8769 -2.5031 0.9802
1.8011 3.9438 -2.5032 0.9802
1.6592 4.0057 -2.5033 0.9802
1.5153 4.0625 -2.5033 0.9802
1.3693 4.1142 -2.5034 0.9802
1.2217 4.1606 -2.5035 0.9802
0.9218 4.2374 -2.5037 0.9802
0.6172 4.2927 -2.5039 0.9802
0.1548 4.3345 -2.5041 0.9802
-0.1548 4.3347 -2.5042 0.9802
-0.3094 4.3265 -2.5043 0.9802
-0.6173 4.2936 -2.5044 0.9802
-0.7702 4.2690 -2.5045 0.9802
-1.0728 4.2033 -2.5046 0.9802
-1.5161 4.0648 -2.5047 0.9802
-1.6602 4.0081 -2.5048 0.9802
-2.0792 3.8078 -2.5048 0.9802
-2.3456 3.6498 -2.5049 0.9802
-2.4744 3.5638 -2.5049 0.9802
-2.6000 3.4733 -2.5049 0.9802
-2.7224 3.3782 -2.5049 0.9802
-2.8412 3.2789 -2.5049 0.9802
-2.9564 3.1754 -2.5049 0.9802
-3.0679 3.0679 -2.5049 0.9802
-3.1754 2.9564 -2.5049 0.9802
-3.3782 2.7223 -2.5049 0.9802
-3.4732 2.6000 -2.5049 0.9802
-3.6498 2.3456 -2.5048 0.9802
-3.7311 2.2138 -2.5048 0.9802
-3.8794 1.9419 -2.5047 0.9802
-4.0646 1.5160 -2.5046 0.9802
-4.2031 1.0728 -2.5044 0.9802
-4.2386 0.9220 -2.5044 0.9802
-4.2687 0.7702 -2.5043 0.9802
-4.2933 0.6173 -2.5042 0.9802
-4.3262 0.3094 -2.5041 0.9802
