ply
format ascii 1.0
element vertex 1211
property float32 x
property float32 y
property float32 z
property float32 I
end_header
-31.8113 -29.6174 7.6639 0.8382
-29.6193 -29.6193 7.3860 0.8435
-29.0423 -31.1936 7.5151 0.8410
-25.4013 -33.9322 7.4739 0.8418
-25.2500 -36.3669 7.8066 0.8354
-25.2485 -39.2874 8.2346 0.8272
-4.6547 -13.9853 2.5990 0.9419
12.9928 -44.2493 8.1317 0.8292
13.0634 -39.2492 7.2940 0.8453
12.9133 -34.6219 6.5156 0.8606
13.1509 -31.7492 6.0595 0.8697
14.9356 -29.8376 5.8835 0.8733
16.2917 -29.8360 5.9941 0.8710
18.9518 -29.4896 6.1811 0.8673
20.4738 -29.4879 6.3299 0.8643
22.3298 -29.8292 6.5702 0.8596
23.9100 -29.6705 6.7190 0.8566
29.7637 -29.7637 7.4220 0.8429
36.4989 -29.4127 8.2653 0.8266
35.1641 -14.5654 6.7112 0.8568
-27.1884 -12.4165 4.5789 0.8861
-31.8113 -29.6174 6.6585 0.8387
-29.0404 -31.1915 6.5288 0.8416
-27.9623 -32.2702 6.5413 0.8413
-26.8787 -33.3544 6.5623 0.8408
-25.4005 -33.9311 6.4932 0.8424
-25.2458 -36.3609 6.7813 0.8360
-5.1504 -13.8087 2.2578 0.9421
-4.6455 -13.9575 2.2535 0.9422
12.9928 -44.2493 7.0649 0.8298
13.4703 -29.4958 4.9675 0.8770
14.9356 -29.8376 5.1116 0.8737
16.2917 -29.8360 5.2077 0.8715
18.9519 -29.4896 5.3701 0.8677
23.9136 -29.6750 5.8384 0.8571
27.6621 -29.7112 6.2189 0.8485
33.9473 -29.4155 6.8813 0.8338
35.2104 -14.5846 5.8382 0.8571
32.7672 -10.9060 5.2905 0.8696
-39.5842 -29.6323 6.4390 0.8192
-36.7599 -29.6230 6.1478 0.8266
-31.8946 -29.6949 5.6748 0.8388
-29.6134 -29.6134 5.4536 0.8446
-26.9613 -33.4570 5.5954 0.8409
-25.2396 -39.2736 6.0793 0.8284
-25.2374 -42.5354 6.4406 0.8191
-5.1578 -13.8285 1.9219 0.9422
12.9203 -34.6406 4.8145 0.8615
13.4703 -29.4958 4.2226 0.8774
14.9356 -29.8376 4.3451 0.8741
16.2917 -29.8361 4.4268 0.8719
17.6691 -29.7797 4.5092 0.8696
31.5974 -29.4182 5.6219 0.8402
35.2565 -14.6037 4.9692 0.8573
-39.7629 -29.7661 5.3337 0.8189
-36.7600 -29.6230 5.0696 0.8270
-30.1236 -37.3812 5.1552 0.8244
-25.3989 -33.9289 4.5511 0.8432
-25.8501 -37.2312 4.8671 0.8333
-26.4086 -41.0926 5.2453 0.8216
-5.1652 -13.8483 1.5871 0.9423
-4.6273 -13.9027 1.5734 0.9428
0.0000 -49.6877 5.3355 0.8188
13.0634 -39.2493 4.4420 0.8467
13.2405 -35.4991 4.0685 0.8586
5.2384 -12.6466 1.4699 0.9464
5.5622 -12.1796 1.4378 0.9476
6.0688 -12.1239 1.4559 0.9469
18.9519 -29.4897 3.7642 0.8685
20.4739 -29.4879 3.8549 0.8655
23.9208 -29.6839 4.0936 0.8578
25.5465 -29.4822 4.1890 0.8548
29.7638 -29.7637 4.5199 0.8442
33.9474 -29.4156 4.8235 0.8347
36.4990 -29.4127 5.0335 0.8281
39.7446 -29.7524 5.3312 0.8190
-32.8049 -30.5425 3.7943 0.8353
-30.1346 -37.3948 4.0655 0.8247
-25.3980 -33.9278 3.5877 0.8436
-5.1725 -13.8681 1.2530 0.9423
-4.6183 -13.8757 1.2380 0.9430
-3.5540 -49.6917 4.2173 0.8187
12.9928 -44.2494 3.9040 0.8310
13.0268 -39.1392 3.4919 0.8474
4.8230 -12.9310 1.1683 0.9461
5.0985 -12.3088 1.1278 0.9479
18.9519 -29.4897 2.9675 0.8687
20.4739 -29.4880 3.0389 0.8658
22.1448 -29.5821 3.1281 0.8621
27.5362 -29.5760 3.4208 0.8503
31.5975 -29.4183 3.6546 0.8409
-36.7600 -29.6231 2.9275 0.8276
-29.6121 -29.6121 2.5968 0.8455
-18.8811 -21.7900 1.7879 0.8909
-4.6094 -13.8489 0.9051 0.9432
1.7745 -49.6858 3.0830 0.8193
3.5535 -49.6838 3.0888 0.8190
5.7343 -31.7829 2.0027 0.8786
5.0992 -12.3105 0.8263 0.9480
14.9356 -29.8376 2.0691 0.8748
7.4329 -13.6123 0.9617 0.9397
20.4739 -29.4880 2.2261 0.8660
24.0364 -29.8274 2.3754 0.8577
25.5465 -29.4823 2.4191 0.8553
27.6773 -29.7275 2.5187 0.8498
36.4991 -29.4128 2.9068 0.8287
39.4147 -29.5054 3.0531 0.8209
-36.7601 -29.6231 1.8615 0.8278
-29.6121 -29.6121 1.6513 0.8457
-32.1604 -34.5427 1.8610 0.8278
-18.7496 -31.6007 1.4489 0.8632
-5.1873 -13.9076 0.5853 0.9423
-4.6005 -13.8223 0.5744 0.9434
-3.5540 -49.6918 1.9644 0.8192
0.0000 -49.6878 1.9592 0.8196
5.4957 -30.4608 1.2205 0.8835
12.9928 -44.2494 1.8185 0.8314
4.3173 -12.9714 0.5391 0.9467
5.0147 -13.4450 0.5658 0.9442
5.0999 -12.3122 0.5255 0.9481
5.9777 -13.0894 0.5674 0.9440
16.2917 -29.8361 1.3404 0.8728
19.1724 -29.8329 1.3983 0.8677
24.0364 -29.8274 1.5105 0.8578
25.5466 -29.4823 1.5382 0.8554
34.3432 -29.7586 1.7919 0.8337
36.9246 -29.7557 1.8699 0.8271
41.1822 -20.6143 1.8159 0.8316
-36.7601 -29.6231 0.7975 0.8279
-32.7925 -30.5309 0.7568 0.8359
-25.3956 -33.9246 0.7158 0.8441
-3.5540 -49.6918 0.8415 0.8193
4.3176 -12.9722 0.2309 0.9468
6.7794 -14.8449 0.2757 0.9368
14.9357 -29.8377 0.5636 0.8750
16.2918 -29.8361 0.5742 0.8728
19.1724 -29.8329 0.5990 0.8677
21.9095 -29.2677 0.6176 0.8639
25.5466 -29.4823 0.6590 0.8555
39.7447 -29.7525 0.8386 0.8199
-36.7601 -29.6232 -0.2658 0.8279
-29.6122 -29.6122 -0.2358 0.8458
-32.1940 -34.5788 -0.2660 0.8278
-25.8502 -37.2314 -0.2552 0.8342
-26.4087 -41.0927 -0.2750 0.8225
-5.2020 -13.9472 -0.0838 0.9422
-4.5829 -13.7695 -0.0817 0.9436
-5.6796 -31.4797 -0.1801 0.8799
11.6479 -39.6690 -0.2328 0.8476
13.0635 -39.2494 -0.2329 0.8475
5.0037 -13.4154 -0.0806 0.9443
5.4139 -13.0704 -0.0797 0.9450
7.3479 -14.6793 -0.0924 0.9364
16.2918 -29.8362 -0.1914 0.8729
22.3300 -29.8293 -0.2098 0.8615
25.5466 -29.4823 -0.2196 0.8555
28.1234 -28.1234 -0.2239 0.8529
30.3796 -28.2844 -0.2337 0.8470
15.7964 -13.6877 -0.1177 0.9198
39.7447 -29.7525 -0.2795 0.8199
31.1959 -21.6597 -0.2136 0.8591
-29.6122 -29.6122 -1.1792 0.8457
-32.1940 -34.5788 -1.3303 0.8277
-29.3858 -33.9130 -1.2635 0.8356
-25.3940 -33.9224 -1.1932 0.8440
-25.8502 -37.2314 -1.2763 0.8341
-4.5742 -13.7432 -0.4079 0.9437
0.0000 -49.6878 -1.3991 0.8197
5.0040 -13.4162 -0.4032 0.9443
5.4143 -13.0712 -0.3984 0.9450
5.9382 -13.0029 -0.4025 0.9444
14.9357 -29.8377 -0.9395 0.8750
16.2918 -29.8362 -0.9572 0.8728
17.6917 -29.8177 -0.9763 0.8705
19.1725 -29.8329 -0.9986 0.8677
20.4739 -29.4881 -1.0108 0.8662
24.0365 -29.8274 -1.0786 0.8579
25.5466 -29.4823 -1.0985 0.8555
27.6924 -29.7437 -1.1443 0.8499
28.1235 -28.1235 -1.1200 0.8529
30.3796 -28.2844 -1.1688 0.8470
15.7020 -13.6058 -0.5850 0.9202
31.1979 -21.6611 -1.0694 0.8590
42.3092 -12.4231 -1.2416 0.8382
-33.8818 -12.6372 -1.8339 0.8652
-24.1589 -14.3342 -1.4246 0.8936
-33.3683 -28.9138 -2.2392 0.8379
-32.1244 -34.5041 -2.3908 0.8279
-29.4659 -34.0055 -2.2819 0.8351
-30.0869 -37.3356 -2.4317 0.8253
-25.3932 -33.9214 -2.1489 0.8439
-26.4087 -41.0927 -2.4772 0.8223
-5.4238 -30.0623 -1.5492 0.8848
-2.1297 -29.7777 -1.5140 0.8873
0.0000 -26.7763 -1.3579 0.8983
6.8246 -47.4663 -2.4320 0.8253
8.4849 -47.0286 -2.4235 0.8258
10.1222 -46.5309 -2.4150 0.8264
11.3419 -38.6271 -2.0416 0.8511
13.0470 -39.1998 -2.0952 0.8475
5.0043 -13.4171 -0.7262 0.9443
5.9367 -12.9995 -0.7248 0.9444
14.9357 -29.8377 -1.6922 0.8749
17.6949 -29.8231 -1.7586 0.8703
19.1406 -29.7832 -1.7955 0.8678
23.9964 -29.7778 -1.9395 0.8580
31.1636 -21.6373 -1.9240 0.8590
27.8291 -17.8847 -1.6776 0.8759
38.1621 -20.8381 -2.2051 0.8402
40.8384 -13.5923 -2.1828 0.8417
41.2649 -12.1165 -2.1811 0.8418
44.9823 -8.1157 -2.3181 0.8327
45.4131 -4.8824 -2.3164 0.8328
45.5481 -3.2577 -2.3158 0.8329
45.6295 -1.6297 -2.3155 0.8329
-36.1610 0.0000 -2.6514 0.8650
-36.0627 -2.5793 -2.6509 0.8650
-35.5512 -6.4141 -2.6488 0.8651
-34.9710 -8.9258 -2.6464 0.8652
-34.2037 -11.3841 -2.6432 0.8654
-32.0867 -11.9677 -2.5110 0.8717
-31.2326 -12.9370 -2.4787 0.8732
-24.0640 -13.1399 -2.0103 0.8959
-23.4014 -13.8847 -1.9951 0.8966
-27.6497 -19.1975 -2.4681 0.8737
-23.8172 -23.8172 -2.4697 0.8736
-18.7673 -21.6587 -2.1013 0.8914
-19.1726 -27.6138 -2.4649 0.8739
-17.1279 -28.8676 -2.4612 0.8740
-14.9968 -29.9599 -2.4566 0.8743
-13.9029 -30.4431 -2.4539 0.8744
-5.2244 -14.0071 -1.0961 0.9418
-6.4735 -25.3630 -1.9193 0.9003
-5.5539 -25.5309 -1.9158 0.9005
-4.0145 -27.9211 -2.0683 0.8930
-3.0708 -28.5628 -2.1064 0.8912
-1.1580 -32.4243 -2.3789 0.8780
1.1687 -32.7220 -2.4008 0.8769
2.3307 -32.5878 -2.3955 0.8772
9.0742 -30.9040 -2.3616 0.8788
5.9727 -13.0784 -1.0542 0.9440
7.3852 -14.7538 -1.2097 0.9360
15.1976 -27.8323 -2.3251 0.8806
17.0529 -26.5348 -2.3127 0.8812
17.9409 -25.8397 -2.3065 0.8815
18.8010 -25.1152 -2.3003 0.8818
15.3293 -17.6909 -1.7164 0.9104
15.9962 -17.1810 -1.7212 0.9101
21.9468 -21.9468 -2.2757 0.8830
15.5812 -13.5012 -1.5117 0.9206
24.5859 -18.4047 -2.2518 0.8841
27.2989 -13.6648 -2.2384 0.8848
28.1601 -11.6643 -2.2349 0.8849
30.7526 -10.2355 -2.3765 0.8781
31.0810 -9.1262 -2.3751 0.8782
31.8376 -5.7441 -2.3721 0.8783
32.0128 -4.6028 -2.3714 0.8783
-27.1627 -1.9427 -2.6144 0.8963
-26.9454 -3.8742 -2.6135 0.8964
-26.7829 -4.8322 -2.6128 0.8964
-25.7813 -8.5808 -2.6086 0.8966
-25.0752 -10.3865 -2.6057 0.8967
-24.6727 -11.2677 -2.6040 0.8967
-23.6902 -11.8585 -2.5434 0.8990
-22.3264 -12.1911 -2.4422 0.9028
-21.8597 -12.9700 -2.4402 0.9029
-21.3649 -13.7304 -2.4382 0.9030
-20.2941 -15.1920 -2.4338 0.9031
-16.4315 -17.6487 -2.3150 0.9076
-15.8276 -19.6408 -2.4217 0.9036
-15.1109 -20.1858 -2.4208 0.9036
-14.3744 -20.7031 -2.4197 0.9037
-10.3494 -17.4430 -1.9472 0.9217
-10.4354 -22.8503 -2.4117 0.9040
-9.6047 -23.1879 -2.4096 0.9041
-5.2319 -14.0273 -1.4373 0.9416
-7.0495 -24.0083 -2.4022 0.9043
-4.4454 -17.4168 -1.7257 0.9303
-3.7620 -17.2938 -1.6991 0.9314
-4.4266 -24.5347 -2.3935 0.9047
-2.6577 -24.7203 -2.3869 0.9049
1.7599 -24.6067 -2.3684 0.9056
1.8517 -17.2235 -1.6631 0.9328
2.4966 -17.3644 -1.6842 0.9319
5.2071 -23.9365 -2.3518 0.9063
6.0469 -23.6915 -2.3474 0.9064
6.8757 -23.4165 -2.3430 0.9066
5.4112 -13.0638 -1.3575 0.9448
12.9864 -20.2073 -2.3061 0.9080
14.3360 -19.1507 -2.2966 0.9083
14.9796 -18.5886 -2.2919 0.9085
15.6015 -18.0050 -2.2872 0.9087
16.2101 -17.4109 -2.2838 0.9088
14.5174 -14.5174 -1.9710 0.9208
15.8998 -12.8129 -1.9604 0.9212
18.9506 -14.1862 -2.2726 0.9093
19.8811 -12.7768 -2.2689 0.9094
22.8250 -10.4238 -2.4090 0.9041
23.7705 -7.9116 -2.4052 0.9042
24.2547 -6.1906 -2.4032 0.9043
24.4521 -5.3192 -2.4024 0.9043
24.6195 -4.4419 -2.4017 0.9044
24.7566 -3.5595 -2.4012 0.9044
24.9400 -1.7837 -2.4005 0.9044
24.9860 -0.8924 -2.4003 0.9044
-21.8253 0.0000 -2.5925 0.9158
-21.6954 -2.3325 -2.5920 0.9159
-21.5947 -3.1049 -2.5915 0.9159
-21.4657 -3.8728 -2.5910 0.9159
-21.3083 -4.6354 -2.5903 0.9159
-21.1230 -5.3913 -2.5896 0.9159
-20.9099 -6.1397 -2.5887 0.9160
-20.6695 -6.8795 -2.5877 0.9160
-20.1079 -8.3290 -2.5853 0.9161
-19.0706 -10.4133 -2.5810 0.9162
-18.6749 -11.0804 -2.5794 0.9162
-18.2100 -11.7029 -2.5713 0.9165
-16.9839 -11.7921 -2.4560 0.9201
-16.2917 -12.1958 -2.4174 0.9213
-15.8336 -12.7595 -2.4155 0.9214
-14.8486 -12.8664 -2.3338 0.9239
-13.2580 -15.3005 -2.4049 0.9217
-10.9014 -16.9628 -2.3952 0.9220
-7.2844 -12.2772 -1.6957 0.9441
-9.6426 -17.6590 -2.3900 0.9222
-8.3453 -18.2736 -2.3863 0.9223
-7.6823 -18.5468 -2.3846 0.9223
-5.6419 -19.2146 -2.3788 0.9225
-4.9479 -19.3858 -2.3766 0.9226
-3.5453 -19.6502 -2.3719 0.9227
-0.7094 -19.8636 -2.3610 0.9231
1.8862 -17.5445 -2.0960 0.9314
2.8100 -19.5438 -2.3454 0.9235
3.5007 -19.4032 -2.3420 0.9237
4.8617 -19.0478 -2.3351 0.9239
5.5300 -18.8336 -2.3316 0.9240
6.1892 -18.5956 -2.3280 0.9241
5.4116 -13.0647 -1.6798 0.9446
5.9290 -12.9827 -1.6954 0.9441
9.9217 -16.7221 -2.3097 0.9247
10.5014 -16.3405 -2.3073 0.9247
11.0669 -15.9393 -2.3050 0.9248
11.6173 -15.5190 -2.3027 0.9249
12.1523 -15.0801 -2.3005 0.9250
13.6580 -13.6580 -2.2944 0.9251
14.1250 -13.1509 -2.2925 0.9252
15.0037 -12.0907 -2.2889 0.9253
15.4983 -11.6018 -2.2997 0.9250
16.6774 -11.5794 -2.4117 0.9215
17.2236 -11.0690 -2.4320 0.9208
17.5967 -10.4406 -2.4305 0.9209
18.8634 -7.8135 -2.4253 0.9210
19.1220 -7.1321 -2.4243 0.9211
19.5675 -5.7455 -2.4225 0.9211
19.9159 -4.3325 -2.4211 0.9212
20.2537 -2.1775 -2.4197 0.9212
20.3164 -1.4531 -2.4195 0.9212
-18.1800 -0.6493 -2.5776 0.9291
-17.8941 -3.2285 -2.5763 0.9292
-17.6100 -4.4947 -2.5751 0.9292
-17.4334 -5.1189 -2.5744 0.9292
-16.7683 -6.9457 -2.5716 0.9293
-16.5026 -7.5365 -2.5705 0.9293
-16.2156 -8.1170 -2.5694 0.9294
-15.9077 -8.6863 -2.5681 0.9294
-15.5793 -9.2436 -2.5667 0.9294
-14.4762 -10.8367 -2.5622 0.9296
-14.0665 -11.3355 -2.5597 0.9296
-12.6070 -11.7376 -2.4406 0.9328
-11.0736 -12.7797 -2.3960 0.9340
-10.1171 -13.5148 -2.3920 0.9341
-9.1114 -14.1775 -2.3879 0.9342
-7.2585 -12.2336 -2.0155 0.9442
-8.0621 -14.7647 -2.3836 0.9343
-5.8861 -12.8887 -2.0076 0.9444
-4.2945 -12.9029 -1.9268 0.9465
-3.7874 -12.8986 -1.9047 0.9471
-3.5852 -14.0466 -2.0541 0.9431
-3.5480 -16.3099 -2.3650 0.9348
-1.7787 -16.5447 -2.3577 0.9350
-1.1859 -16.5806 -2.3553 0.9350
0.0000 -16.5885 -2.3504 0.9352
0.5915 -16.5608 -2.3480 0.9352
1.1810 -16.5121 -2.3456 0.9353
1.7678 -16.4426 -2.3432 0.9354
4.0733 -15.9590 -2.3337 0.9356
5.1912 -15.5970 -2.3291 0.9357
5.9382 -13.0028 -2.0254 0.9439
7.3303 -14.6441 -2.3204 0.9360
8.8303 -13.7402 -2.3142 0.9361
9.3072 -13.4049 -2.3123 0.9362
10.6612 -12.3037 -2.3067 0.9363
11.0852 -11.9064 -2.3050 0.9364
13.4500 -10.8387 -2.4475 0.9326
13.8198 -10.3454 -2.4460 0.9326
14.1719 -9.8397 -2.4445 0.9327
14.5060 -9.3224 -2.4432 0.9327
14.8216 -8.7941 -2.4419 0.9327
15.3965 -7.7069 -2.4396 0.9328
16.4902 -4.8420 -2.4351 0.9329
16.7854 -3.6514 -2.4339 0.9330
16.9018 -3.0494 -2.4335 0.9330
17.1566 -0.6128 -2.4325 0.9330
-15.5816 0.0000 -2.5669 0.9388
-15.4187 -2.2169 -2.5662 0.9388
-15.0852 -3.8503 -2.5648 0.9388
-14.9345 -4.3852 -2.5642 0.9389
-14.5751 -5.4362 -2.5627 0.9389
-14.1402 -6.4576 -2.5609 0.9389
-13.8952 -6.9554 -2.5598 0.9390
-13.6323 -7.4438 -2.5588 0.9390
-12.7401 -8.8456 -2.5551 0.9391
-12.4096 -9.2897 -2.5537 0.9391
-11.3256 -10.5445 -2.5492 0.9392
-10.9351 -10.9351 -2.5476 0.9392
-10.5258 -11.3056 -2.5447 0.9393
-10.0854 -11.6392 -2.5371 0.9395
-9.4094 -11.6764 -2.4704 0.9410
-8.7412 -11.6769 -2.4029 0.9426
-8.2547 -11.8890 -2.3844 0.9430
-6.9206 -12.6741 -2.3789 0.9431
-5.3100 -12.8194 -2.2859 0.9453
-4.2653 -12.8153 -2.2250 0.9467
-3.0490 -14.0160 -2.3630 0.9435
-2.5446 -14.1035 -2.3609 0.9436
-2.0377 -14.1728 -2.3588 0.9436
0.0000 -14.2678 -2.3505 0.9438
0.5088 -14.2460 -2.3484 0.9438
1.5211 -14.1483 -2.3442 0.9439
2.0233 -14.0726 -2.3422 0.9440
3.0169 -13.8683 -2.3381 0.9441
3.5069 -13.7399 -2.3361 0.9441
3.9917 -13.5944 -2.3341 0.9442
5.4085 -13.0573 -2.3283 0.9443
6.3161 -12.6180 -2.3246 0.9444
8.6806 -11.5959 -2.3863 0.9430
9.7787 -11.2852 -2.4600 0.9413
10.5564 -10.5564 -2.4594 0.9413
10.9198 -10.1667 -2.4579 0.9413
11.2692 -9.7648 -2.4565 0.9413
12.5181 -8.0449 -2.4514 0.9415
13.2893 -6.6521 -2.4482 0.9415
13.5133 -6.1713 -2.4473 0.9416
14.0822 -4.6870 -2.4450 0.9416
14.3738 -3.6687 -2.4438 0.9416
14.7407 -1.5848 -2.4424 0.9417
-13.6136 0.0000 -2.5588 0.9461
-13.6047 -0.4859 -2.5588 0.9461
-13.3923 -2.4162 -2.5579 0.9461
-13.2954 -2.8922 -2.5575 0.9461
-13.1812 -3.3643 -2.5570 0.9461
-13.0500 -3.8318 -2.5564 0.9461
-12.7369 -4.7506 -2.5551 0.9462
-11.9152 -6.5062 -2.5517 0.9462
-10.8493 -8.1216 -2.5473 0.9463
-10.2320 -8.8661 -2.5448 0.9464
-9.5630 -9.5630 -2.5420 0.9464
-8.0853 -10.8007 -2.5359 0.9466
-7.6897 -11.0753 -2.5343 0.9466
-7.2776 -11.3242 -2.5302 0.9467
-6.3492 -11.6277 -2.4902 0.9475
-5.8221 -11.6310 -2.4448 0.9484
-5.3129 -11.6337 -2.4039 0.9493
-4.8259 -11.6508 -2.3703 0.9500
-3.9766 -11.9478 -2.3668 0.9500
-3.5450 -12.0730 -2.3651 0.9501
-3.1094 -12.1826 -2.3633 0.9501
-2.6706 -12.2765 -2.3615 0.9502
-2.2290 -12.3545 -2.3596 0.9502
-1.7852 -12.4165 -2.3578 0.9502
-1.3399 -12.4627 -2.3560 0.9503
0.4460 -12.4875 -2.3487 0.9504
1.3336 -12.4046 -2.3450 0.9505
1.7742 -12.3396 -2.3432 0.9505
2.6459 -12.1630 -2.3396 0.9506
3.9221 -11.7840 -2.3344 0.9507
5.2971 -11.5990 -2.3967 0.9494
5.8020 -11.5909 -2.4363 0.9486
7.1147 -11.0706 -2.4735 0.9478
7.5005 -10.8027 -2.4719 0.9479
8.2419 -10.2276 -2.4689 0.9479
8.9402 -9.6024 -2.4660 0.9480
9.8996 -8.5781 -2.4621 0.9481
10.4763 -7.8425 -2.4598 0.9481
10.7448 -7.4602 -2.4587 0.9482
11.4669 -6.2614 -2.4557 0.9482
11.8763 -5.4237 -2.4541 0.9482
12.5141 -3.6745 -2.4515 0.9483
12.7397 -2.7713 -2.4506 0.9483
12.9583 -1.3932 -2.4497 0.9483
12.9989 -0.9297 -2.4495 0.9483
-12.0754 0.0000 -2.5525 0.9518
-12.0675 -0.4310 -2.5525 0.9518
-11.7939 -2.5656 -2.5513 0.9519
-11.6929 -2.9844 -2.5509 0.9519
-11.5767 -3.3992 -2.5504 0.9519
-11.1391 -4.6140 -2.5486 0.9519
-10.7752 -5.3937 -2.5471 0.9519
-10.5723 -5.7729 -2.5462 0.9519
-10.3558 -6.1444 -2.5453 0.9520
-10.1262 -6.5077 -2.5444 0.9520
-9.6283 -7.2077 -2.5423 0.9520
-8.7907 -8.1845 -2.5389 0.9521
-8.1763 -8.7820 -2.5363 0.9521
-7.8535 -9.0634 -2.5350 0.9522
-6.8283 -9.8346 -2.5308 0.9522
-6.4691 -10.0662 -2.5293 0.9523
-5.7276 -10.4893 -2.5262 0.9523
-5.3462 -10.6804 -2.5247 0.9523
-4.1655 -11.1681 -2.5196 0.9524
-3.7585 -11.2924 -2.5157 0.9525
-2.5196 -11.5825 -2.5056 0.9527
-1.2467 -11.5960 -2.4653 0.9534
-0.8294 -11.5968 -2.4576 0.9536
-0.4142 -11.5970 -2.4529 0.9537
0.0000 -11.5967 -2.4513 0.9537
1.2463 -11.5924 -2.4645 0.9535
1.6664 -11.5898 -2.4751 0.9533
2.5003 -11.4939 -2.4864 0.9530
2.9089 -11.3971 -2.4864 0.9530
3.3142 -11.2869 -2.4866 0.9530
5.2541 -10.4963 -2.4812 0.9531
5.6220 -10.2958 -2.4796 0.9532
7.6562 -8.8357 -2.4713 0.9533
7.9627 -8.5525 -2.4701 0.9533
8.8188 -7.6415 -2.4666 0.9534
9.0819 -7.3187 -2.4655 0.9534
9.5731 -6.6467 -2.4635 0.9535
9.8006 -6.2984 -2.4626 0.9535
10.5834 -4.8333 -2.4594 0.9535
10.8957 -4.0639 -2.4581 0.9536
11.0313 -3.6715 -2.4576 0.9536
11.1531 -3.2749 -2.4571 0.9536
11.3545 -2.4700 -2.4563 0.9536
11.4340 -2.0629 -2.4559 0.9536
11.4991 -1.6533 -2.4557 0.9536
11.5498 -1.2417 -2.4555 0.9536
11.5861 -0.8287 -2.4553 0.9536
11.6079 -0.4146 -2.4552 0.9536
-10.8320 -0.3869 -2.5474 0.9564
-10.8109 -0.7732 -2.5473 0.9564
-10.7267 -1.5423 -2.5469 0.9564
-10.6637 -1.9239 -2.5467 0.9565
-10.5869 -2.3030 -2.5463 0.9565
-10.4964 -2.6790 -2.5460 0.9565
-10.3923 -3.0515 -2.5455 0.9565
-10.2748 -3.4198 -2.5450 0.9565
-10.1440 -3.7835 -2.5445 0.9565
-9.2982 -5.5169 -2.5410 0.9565
-9.0923 -5.8433 -2.5401 0.9566
-8.6460 -6.4723 -2.5383 0.9566
-7.6242 -7.6242 -2.5341 0.9567
-6.7560 -8.3837 -2.5305 0.9567
-5.8122 -9.0439 -2.5266 0.9568
-5.1466 -9.4253 -2.5239 0.9568
-4.4561 -9.7574 -2.5210 0.9569
-4.1026 -9.9045 -2.5196 0.9569
-3.7443 -10.0388 -2.5181 0.9569
-2.6450 -10.3629 -2.5136 0.9570
-2.2720 -10.4443 -2.5121 0.9570
-1.5193 -10.5668 -2.5090 0.9571
-1.1404 -10.6077 -2.5074 0.9571
-0.7606 -10.6350 -2.5058 0.9571
-0.3803 -10.6487 -2.5043 0.9572
0.0000 -10.6489 -2.5027 0.9572
0.7587 -10.6085 -2.4996 0.9572
1.5117 -10.5143 -2.4965 0.9573
1.8849 -10.4473 -2.4950 0.9573
2.2552 -10.3670 -2.4935 0.9573
3.6988 -9.9169 -2.4876 0.9574
4.0481 -9.7730 -2.4861 0.9575
4.3918 -9.6168 -2.4847 0.9575
4.7297 -9.4487 -2.4833 0.9575
5.3858 -9.0774 -2.4806 0.9576
6.3156 -8.4367 -2.4768 0.9576
6.8948 -7.9570 -2.4745 0.9577
7.6956 -7.1649 -2.4712 0.9577
8.1806 -6.5923 -2.4692 0.9577
8.4075 -6.2938 -2.4683 0.9578
8.8289 -5.6740 -2.4666 0.9578
9.0229 -5.3536 -2.4658 0.9578
9.2055 -5.0266 -2.4650 0.9578
9.3764 -4.6935 -2.4643 0.9578
9.5354 -4.3547 -2.4637 0.9578
10.0496 -2.9508 -2.4616 0.9579
10.1469 -2.5898 -2.4612 0.9579
10.2315 -2.2257 -2.4609 0.9579
10.3620 -1.4898 -2.4603 0.9579
-9.8162 -0.3506 -2.5432 0.9602
-9.7971 -0.7007 -2.5431 0.9602
-9.7654 -1.0499 -2.5430 0.9602
-9.7209 -1.3977 -2.5428 0.9602
-9.5126 -2.4279 -2.5419 0.9602
-8.9217 -4.0744 -2.5395 0.9603
-8.7684 -4.3892 -2.5388 0.9603
-8.2419 -5.2968 -2.5367 0.9603
-8.0450 -5.5858 -2.5359 0.9603
-7.1579 -6.6642 -2.5322 0.9604
-6.9127 -6.9127 -2.5312 0.9604
-5.8484 -7.8125 -2.5268 0.9605
-5.5632 -8.0126 -2.5256 0.9605
-5.2712 -8.2021 -2.5244 0.9605
-4.9726 -8.3809 -2.5232 0.9605
-4.0421 -8.8510 -2.5194 0.9606
-3.7217 -8.9849 -2.5180 0.9606
-2.3999 -9.4028 -2.5126 0.9607
-2.0616 -9.4772 -2.5112 0.9607
-1.7211 -9.5395 -2.5098 0.9607
-0.3452 -9.6655 -2.5042 0.9608
0.3448 -9.6545 -2.5013 0.9609
0.6888 -9.6306 -2.4999 0.9609
1.0315 -9.5945 -2.4985 0.9609
1.3725 -9.5462 -2.4971 0.9609
1.7114 -9.4859 -2.4957 0.9610
2.3812 -9.3293 -2.4930 0.9610
3.3594 -9.0068 -2.4890 0.9611
4.2963 -8.5829 -2.4851 0.9611
4.8928 -8.2464 -2.4827 0.9612
5.1816 -8.0627 -2.4815 0.9612
5.7383 -7.6654 -2.4792 0.9612
6.5164 -6.9991 -2.4760 0.9613
7.4349 -5.9914 -2.4723 0.9613
7.6414 -5.7203 -2.4714 0.9613
7.8381 -5.4421 -2.4706 0.9613
8.6680 -3.9585 -2.4673 0.9614
8.8018 -3.6458 -2.4667 0.9614
8.9245 -3.3287 -2.4662 0.9614
9.2247 -2.3545 -2.4650 0.9614
9.3016 -2.0235 -2.4647 0.9614
9.4205 -1.3545 -2.4642 0.9614
9.4622 -1.0173 -2.4640 0.9614
9.4920 -0.6789 -2.4639 0.9614
-8.9715 0.0000 -2.5398 0.9634
-8.9482 -0.6400 -2.5396 0.9634
-8.8787 -1.2766 -2.5394 0.9634
-8.6028 -2.5260 -2.5382 0.9634
-8.5058 -2.8310 -2.5378 0.9634
-8.3978 -3.1322 -2.5373 0.9634
-8.2791 -3.4293 -2.5369 0.9634
-7.5294 -4.8389 -2.5337 0.9635
-7.1607 -5.3604 -2.5322 0.9635
-6.5401 -6.0890 -2.5297 0.9635
-6.3163 -6.3163 -2.5287 0.9635
-6.0845 -6.5352 -2.5278 0.9636
-4.5449 -7.6599 -2.5214 0.9636
-3.9832 -7.9574 -2.5191 0.9637
-3.6949 -8.0906 -2.5179 0.9637
-3.4021 -8.2134 -2.5167 0.9637
-3.1053 -8.3256 -2.5155 0.9637
-2.8048 -8.4270 -2.5143 0.9638
-2.1943 -8.5970 -2.5118 0.9638
-1.8851 -8.6655 -2.5105 0.9638
-1.5738 -8.7228 -2.5092 0.9638
-1.2608 -8.7689 -2.5079 0.9638
-0.6313 -8.8274 -2.5054 0.9639
0.0000 -8.8408 -2.5028 0.9639
0.3154 -8.8306 -2.5015 0.9639
1.5657 -8.6780 -2.4963 0.9640
2.4806 -8.4481 -2.4926 0.9641
2.7792 -8.3501 -2.4914 0.9641
3.0740 -8.2416 -2.4901 0.9641
4.2077 -7.7058 -2.4855 0.9642
4.4781 -7.5474 -2.4844 0.9642
5.0008 -7.2025 -2.4823 0.9642
5.2525 -7.0165 -2.4812 0.9642
5.4974 -6.8218 -2.4802 0.9642
5.9654 -6.4073 -2.4783 0.9643
6.1880 -6.1880 -2.4774 0.9643
6.4027 -5.9611 -2.4765 0.9643
6.6091 -5.7268 -2.4757 0.9643
7.5097 -4.4557 -2.4720 0.9643
7.6621 -4.1838 -2.4714 0.9644
8.1726 -3.0483 -2.4693 0.9644
8.2748 -2.7541 -2.4689 0.9644
8.3666 -2.4567 -2.4685 0.9644
8.4478 -2.1562 -2.4682 0.9644
8.5783 -1.5477 -2.4677 0.9644
8.6274 -1.2404 -2.4675 0.9644
8.6656 -0.9317 -2.4673 0.9644
8.6930 -0.6217 -2.4672 0.9644
-8.1625 -1.1736 -2.5364 0.9661
-8.0565 -1.7526 -2.5360 0.9661
-7.9879 -2.0388 -2.5357 0.9661
-7.9090 -2.3223 -2.5354 0.9661
-7.8200 -2.6027 -2.5350 0.9661
-7.7208 -2.8797 -2.5346 0.9661
-7.6118 -3.1529 -2.5341 0.9661
-7.3645 -3.6864 -2.5331 0.9661
-7.0794 -4.2004 -2.5319 0.9661
-6.7582 -4.6923 -2.5306 0.9662
-6.5845 -4.9291 -2.5299 0.9662
-6.0143 -5.5995 -2.5275 0.9662
-5.8087 -5.8087 -2.5267 0.9662
-5.5957 -6.0102 -2.5258 0.9662
-5.3757 -6.2039 -2.5249 0.9662
-5.1489 -6.3894 -2.5239 0.9662
-4.6764 -6.7353 -2.5220 0.9663
-4.4312 -6.8951 -2.5210 0.9663
-4.1806 -7.0460 -2.5200 0.9663
-3.9248 -7.1877 -2.5189 0.9663
-2.8569 -7.6597 -2.5145 0.9664
-2.3011 -7.8369 -2.5122 0.9664
-2.0190 -7.9104 -2.5111 0.9664
-1.4482 -8.0268 -2.5087 0.9664
-1.1602 -8.0695 -2.5075 0.9665
-0.2906 -8.1357 -2.5040 0.9665
0.8686 -8.0789 -2.4992 0.9666
1.4413 -7.9888 -2.4969 0.9666
2.0057 -7.8583 -2.4945 0.9666
3.6207 -7.2332 -2.4879 0.9667
4.3677 -6.7963 -2.4849 0.9668
4.6057 -6.6335 -2.4839 0.9668
4.8377 -6.4624 -2.4829 0.9668
5.0634 -6.2833 -2.4820 0.9668
5.4948 -5.9018 -2.4802 0.9668
5.7000 -5.7000 -2.4794 0.9668
6.0883 -5.2755 -2.4778 0.9668
6.6116 -4.5905 -2.4757 0.9669
6.9187 -4.1051 -2.4744 0.9669
7.3131 -3.3398 -2.4728 0.9669
7.7839 -1.9867 -2.4709 0.9669
7.9043 -1.4261 -2.4704 0.9669
7.9496 -1.1430 -2.4703 0.9669
7.9848 -0.8585 -2.4701 0.9669
8.0101 -0.5729 -2.4700 0.9670
-7.6190 -0.2721 -2.5342 0.9684
-7.5796 -0.8149 -2.5340 0.9684
-7.5453 -1.0849 -2.5339 0.9684
-7.5012 -1.3534 -2.5337 0.9684
-7.2290 -2.4060 -2.5326 0.9684
-6.9269 -3.1634 -2.5313 0.9684
-6.8083 -3.4080 -2.5308 0.9684
-6.6809 -3.6481 -2.5303 0.9684
-6.5450 -3.8833 -2.5297 0.9684
-6.4007 -4.1135 -2.5291 0.9684
-6.2483 -4.3383 -2.5285 0.9684
-6.0879 -4.5573 -2.5278 0.9685
-5.9197 -4.7704 -2.5271 0.9685
-5.7440 -4.9772 -2.5264 0.9685
-5.5610 -5.1775 -2.5257 0.9685
-5.3710 -5.3710 -2.5249 0.9685
-4.7614 -5.9085 -2.5224 0.9685
-4.3246 -6.2287 -2.5206 0.9685
-4.0981 -6.3767 -2.5196 0.9686
-3.6299 -6.6477 -2.5177 0.9686
-3.1439 -6.8843 -2.5157 0.9686
-2.8950 -6.9892 -2.5147 0.9686
-2.6426 -7.0852 -2.5136 0.9686
-2.1287 -7.2496 -2.5115 0.9687
-1.8678 -7.3178 -2.5105 0.9687
-1.6047 -7.3766 -2.5094 0.9687
-1.3398 -7.4260 -2.5083 0.9687
-1.0734 -7.4658 -2.5072 0.9687
-0.2689 -7.5278 -2.5039 0.9687
0.0000 -7.5293 -2.5028 0.9688
1.0697 -7.4396 -2.4984 0.9688
1.3339 -7.3935 -2.4973 0.9688
1.8564 -7.2732 -2.4952 0.9689
2.3685 -7.1163 -2.4931 0.9689
2.6199 -7.0243 -2.4920 0.9689
3.3517 -6.6959 -2.4890 0.9689
3.5872 -6.5695 -2.4881 0.9689
4.0437 -6.2921 -2.4862 0.9690
4.4790 -5.9833 -2.4844 0.9690
4.6881 -5.8176 -2.4836 0.9690
5.0879 -5.4647 -2.4819 0.9690
5.2780 -5.2780 -2.4812 0.9690
5.6377 -4.8851 -2.4797 0.9690
5.8069 -4.6795 -2.4790 0.9691
5.9686 -4.4681 -2.4783 0.9691
6.1227 -4.2511 -2.4777 0.9691
6.4074 -3.8017 -2.4765 0.9691
6.6595 -3.3335 -2.4755 0.9691
6.7730 -3.0931 -2.4751 0.9691
6.9741 -2.6012 -2.4742 0.9691
7.3957 -0.7951 -2.4725 0.9691
7.4191 -0.5306 -2.4724 0.9691
7.4331 -0.2655 -2.4724 0.9691
-7.0393 -0.7568 -2.5318 0.9704
-7.0074 -1.0075 -2.5317 0.9704
-6.9665 -1.2569 -2.5315 0.9704
-6.9167 -1.5046 -2.5313 0.9704
-6.5355 -2.7071 -2.5297 0.9704
-6.4336 -2.9381 -2.5293 0.9704
-6.2053 -3.3884 -2.5283 0.9704
-6.0792 -3.6069 -2.5278 0.9704
-5.8038 -4.0296 -2.5267 0.9704
-5.6549 -4.2332 -2.5261 0.9704
-5.3357 -4.6234 -2.5247 0.9705
-4.9894 -4.9894 -2.5233 0.9705
-4.8067 -5.1628 -2.5226 0.9705
-4.6180 -5.3294 -2.5218 0.9705
-4.4234 -5.4891 -2.5210 0.9705
-4.2233 -5.6416 -2.5202 0.9705
-4.0179 -5.7868 -2.5193 0.9705
-3.8075 -5.9245 -2.5184 0.9705
-3.5923 -6.0545 -2.5176 0.9705
-2.9213 -6.3968 -2.5148 0.9706
-2.6901 -6.4945 -2.5138 0.9706
-2.4557 -6.5839 -2.5129 0.9706
-1.9782 -6.7370 -2.5109 0.9706
-1.4913 -6.8555 -2.5089 0.9706
-0.9977 -6.9388 -2.5069 0.9707
-0.7490 -6.9672 -2.5059 0.9707
-0.2499 -6.9971 -2.5038 0.9707
0.0000 -6.9987 -2.5028 0.9707
0.2497 -6.9914 -2.5018 0.9707
0.4989 -6.9752 -2.5007 0.9707
0.7472 -6.9501 -2.4997 0.9707
1.7259 -6.7621 -2.4957 0.9708
1.9654 -6.6936 -2.4947 0.9708
2.8936 -6.3361 -2.4909 0.9708
3.1167 -6.2265 -2.4900 0.9709
3.5505 -5.9840 -2.4882 0.9709
3.7605 -5.8514 -2.4874 0.9709
4.9091 -4.9091 -2.4827 0.9709
5.0797 -4.7294 -2.4820 0.9709
5.2439 -4.5438 -2.4813 0.9710
5.4013 -4.3526 -2.4807 0.9710
5.5518 -4.1561 -2.4800 0.9710
5.6953 -3.9543 -2.4795 0.9710
5.8315 -3.7477 -2.4789 0.9710
6.0815 -3.3208 -2.4779 0.9710
6.4879 -2.4198 -2.4762 0.9710
6.6423 -1.9504 -2.4756 0.9710
6.7070 -1.7119 -2.4753 0.9710
6.8108 -1.2288 -2.4749 0.9710
6.8499 -0.9849 -2.4748 0.9710
-6.6021 0.0000 -2.5300 0.9721
-6.5978 -0.2356 -2.5300 0.9721
-6.5850 -0.4710 -2.5299 0.9721
-6.5638 -0.7057 -2.5299 0.9721
-6.4960 -1.1720 -2.5296 0.9721
-6.4495 -1.4030 -2.5294 0.9721
-6.3947 -1.6322 -2.5291 0.9721
-6.3318 -1.8592 -2.5289 0.9721
-6.1815 -2.3056 -2.5283 0.9721
-5.8968 -2.9518 -2.5271 0.9721
-5.7867 -3.1598 -2.5266 0.9722
-5.1282 -4.1326 -2.5239 0.9722
-4.9762 -4.3119 -2.5233 0.9722
-4.6534 -4.6534 -2.5219 0.9722
-4.3072 -4.9707 -2.5205 0.9722
-4.1258 -5.1198 -2.5198 0.9722
-3.9392 -5.2622 -2.5190 0.9722
-3.7477 -5.3977 -2.5182 0.9722
-2.9375 -5.8684 -2.5149 0.9723
-2.5096 -6.0587 -2.5131 0.9723
-2.2909 -6.1422 -2.5122 0.9723
-1.8456 -6.2854 -2.5104 0.9723
-1.3914 -6.3963 -2.5085 0.9723
-0.4663 -6.5194 -2.5047 0.9724
-0.2332 -6.5294 -2.5038 0.9724
0.2330 -6.5244 -2.5018 0.9724
0.4656 -6.5094 -2.5009 0.9724
1.1574 -6.4150 -2.4981 0.9725
1.6109 -6.3114 -2.4962 0.9725
1.8345 -6.2476 -2.4953 0.9725
2.0555 -6.1759 -2.4944 0.9725
2.2738 -6.0964 -2.4935 0.9725
2.7011 -5.9145 -2.4917 0.9725
2.9094 -5.8123 -2.4909 0.9725
3.3145 -5.5863 -2.4892 0.9726
3.5106 -5.4626 -2.4884 0.9726
3.7022 -5.3322 -2.4876 0.9726
4.0707 -5.0514 -2.4861 0.9726
4.7429 -4.4158 -2.4834 0.9726
4.8962 -4.2426 -2.4827 0.9726
5.0433 -4.0642 -2.4821 0.9726
5.3180 -3.6924 -2.4810 0.9726
6.0586 -2.2597 -2.4780 0.9727
6.2633 -1.5986 -2.4772 0.9727
6.3159 -1.3739 -2.4770 0.9727
6.3604 -1.1476 -2.4768 0.9727
6.3970 -0.9197 -2.4766 0.9727
6.4254 -0.6908 -2.4765 0.9727
6.4580 -0.2306 -2.4764 0.9727
-6.1735 -0.2205 -2.5283 0.9737
-6.1616 -0.4407 -2.5282 0.9737
-6.1139 -0.8791 -2.5280 0.9737
-5.9836 -1.5272 -2.5275 0.9737
-5.8582 -1.9498 -2.5269 0.9737
-5.7027 -2.3621 -2.5263 0.9737
-5.6140 -2.5638 -2.5259 0.9737
-5.5180 -2.7621 -2.5255 0.9737
-5.3051 -3.1477 -2.5246 0.9737
-5.0650 -3.5167 -2.5237 0.9737
-4.9352 -3.6945 -2.5231 0.9737
-4.7991 -3.8674 -2.5226 0.9737
-4.6570 -4.0353 -2.5220 0.9737
-4.5089 -4.1979 -2.5214 0.9737
-4.1958 -4.5066 -2.5201 0.9737
-3.5077 -5.0521 -2.5172 0.9738
-3.1365 -5.2863 -2.5157 0.9738
-2.9449 -5.3932 -2.5149 0.9738
-2.7496 -5.4931 -2.5141 0.9738
-2.3492 -5.6715 -2.5125 0.9738
-2.1446 -5.7498 -2.5116 0.9738
-1.3027 -5.9882 -2.5082 0.9739
-1.0877 -6.0288 -2.5073 0.9739
-0.6544 -6.0867 -2.5055 0.9739
-0.4366 -6.1040 -2.5046 0.9739
0.0000 -6.1152 -2.5028 0.9739
0.2182 -6.1091 -2.5019 0.9739
0.4359 -6.0953 -2.5010 0.9739
0.8690 -6.0443 -2.4992 0.9740
1.5086 -5.9106 -2.4966 0.9740
2.7251 -5.4440 -2.4916 0.9740
3.2883 -5.1167 -2.4893 0.9741
3.4678 -4.9946 -2.4886 0.9741
3.9785 -4.5915 -2.4865 0.9741
4.8566 -3.6356 -2.4829 0.9741
4.9822 -3.4592 -2.4824 0.9741
5.1015 -3.2785 -2.4819 0.9741
5.4199 -2.7130 -2.4806 0.9741
5.5980 -2.3188 -2.4799 0.9742
5.6765 -2.1172 -2.4796 0.9742
5.7477 -1.9130 -2.4793 0.9742
5.8684 -1.4978 -2.4788 0.9742
5.9177 -1.2873 -2.4786 0.9742
5.9594 -1.0752 -2.4784 0.9742
5.9937 -0.8618 -2.4783 0.9742
6.0204 -0.6473 -2.4782 0.9742
6.0395 -0.4319 -2.4781 0.9742
-5.7939 -0.2069 -2.5267 0.9750
-5.7827 -0.4136 -2.5267 0.9750
-5.7381 -0.8250 -2.5265 0.9750
-5.7047 -1.0292 -2.5263 0.9750
-5.6639 -1.2321 -2.5262 0.9750
-5.6159 -1.4334 -2.5260 0.9750
-5.4982 -1.8300 -2.5255 0.9750
-5.4288 -2.0248 -2.5252 0.9750
-5.3524 -2.2170 -2.5249 0.9750
-5.1791 -2.5925 -2.5241 0.9750
-4.6324 -3.4678 -2.5219 0.9751
-4.3713 -3.7878 -2.5208 0.9751
-4.0881 -4.0881 -2.5196 0.9751
-3.9386 -4.2303 -2.5190 0.9751
-3.4611 -4.6235 -2.5170 0.9751
-3.2930 -4.7428 -2.5164 0.9751
-3.1207 -4.8559 -2.5156 0.9751
-2.9446 -4.9628 -2.5149 0.9751
-2.0135 -5.3985 -2.5111 0.9752
-1.8190 -5.4652 -2.5103 0.9752
-1.2232 -5.6228 -2.5078 0.9752
-1.0214 -5.6610 -2.5070 0.9752
-0.6145 -5.7157 -2.5053 0.9752
-0.4100 -5.7320 -2.5045 0.9752
-0.2050 -5.7411 -2.5037 0.9752
0.2049 -5.7372 -2.5020 0.9753
0.4094 -5.7243 -2.5011 0.9753
0.6133 -5.7042 -2.5003 0.9753
1.4169 -5.5515 -2.4970 0.9753
1.6137 -5.4956 -2.4962 0.9753
2.0003 -5.3631 -2.4946 0.9753
2.1898 -5.2866 -2.4938 0.9753
2.3764 -5.2035 -2.4931 0.9753
2.5598 -5.1138 -2.4923 0.9754
2.7399 -5.0177 -2.4916 0.9754
2.9164 -4.9153 -2.4909 0.9754
3.2578 -4.6921 -2.4895 0.9754
3.4222 -4.5716 -2.4888 0.9754
3.5823 -4.4454 -2.4881 0.9754
3.7377 -4.3136 -2.4875 0.9754
3.8883 -4.1764 -2.4869 0.9754
4.3095 -3.7342 -2.4852 0.9754
4.6811 -3.2502 -2.4836 0.9754
4.9991 -2.7297 -2.4823 0.9755
5.2600 -2.1788 -2.4813 0.9755
5.3338 -1.9894 -2.4810 0.9755
5.5998 -1.0103 -2.4799 0.9755
5.6751 -0.4059 -2.4796 0.9755
5.6858 -0.2031 -2.4796 0.9755
-5.4416 -0.3892 -2.5253 0.9762
-5.4241 -0.5832 -2.5252 0.9762
-5.3681 -0.9685 -2.5249 0.9762
-5.2327 -1.5365 -2.5244 0.9762
-5.1087 -1.9054 -2.5239 0.9763
-5.0368 -2.0863 -2.5236 0.9763
-4.7829 -2.6117 -2.5225 0.9763
-4.5829 -2.9453 -2.5217 0.9763
-4.4741 -3.1064 -2.5212 0.9763
-4.2395 -3.4164 -2.5203 0.9763
-4.1140 -3.5648 -2.5197 0.9763
-3.9833 -3.7086 -2.5192 0.9763
-3.7069 -3.9815 -2.5181 0.9763
-3.5616 -4.1103 -2.5175 0.9763
-3.4117 -4.2337 -2.5169 0.9763
-2.7716 -4.6713 -2.5142 0.9763
-2.4299 -4.8544 -2.5128 0.9764
-2.2545 -4.9366 -2.5121 0.9764
-1.5271 -5.2010 -2.5091 0.9764
-1.3401 -5.2506 -2.5083 0.9764
-0.1930 -5.4053 -2.5036 0.9764
0.0000 -5.4070 -2.5028 0.9764
0.9585 -5.3127 -2.4989 0.9765
1.5195 -5.1751 -2.4966 0.9765
1.7028 -5.1160 -2.4958 0.9765
1.8837 -5.0504 -2.4951 0.9765
2.0622 -4.9785 -2.4944 0.9765
2.5803 -4.7255 -2.4922 0.9765
2.7466 -4.6292 -2.4916 0.9766
2.9093 -4.5270 -2.4909 0.9766
3.2232 -4.3057 -2.4896 0.9766
3.3740 -4.1869 -2.4890 0.9766
3.5204 -4.0628 -2.4884 0.9766
3.9319 -3.6607 -2.4867 0.9766
4.0592 -3.5173 -2.4862 0.9766
4.6150 -2.7382 -2.4839 0.9766
4.8791 -2.2282 -2.4828 0.9766
4.9549 -2.0524 -2.4825 0.9766
5.0245 -1.8740 -2.4823 0.9766
5.1946 -1.3258 -2.4816 0.9766
5.2752 -0.9518 -2.4812 0.9766
5.3563 -0.1913 -2.4809 0.9767
-5.1456 0.0000 -2.5240 0.9773
-5.1423 -0.1837 -2.5240 0.9773
-5.1159 -0.5500 -2.5239 0.9773
-5.0631 -0.9135 -2.5237 0.9773
-4.8801 -1.6243 -2.5229 0.9773
-4.5972 -2.3012 -2.5218 0.9774
-4.4200 -2.6225 -2.5210 0.9774
-4.3229 -2.7782 -2.5206 0.9774
-4.2203 -2.9302 -2.5202 0.9774
-3.9990 -3.2226 -2.5193 0.9774
-3.7575 -3.4983 -2.5183 0.9774
-3.6294 -3.6294 -2.5178 0.9774
-3.4968 -3.7559 -2.5172 0.9774
-2.7711 -4.3119 -2.5142 0.9774
-2.4552 -4.4963 -2.5129 0.9774
-2.1270 -4.6575 -2.5116 0.9774
-1.9589 -4.7291 -2.5109 0.9775
-1.7883 -4.7947 -2.5102 0.9775
-1.4409 -4.9073 -2.5087 0.9775
-1.2645 -4.9541 -2.5080 0.9775
-0.7270 -5.0565 -2.5058 0.9775
-0.5459 -5.0777 -2.5051 0.9775
-0.3642 -5.0924 -2.5043 0.9775
-0.1822 -5.1006 -2.5036 0.9775
0.0000 -5.1024 -2.5028 0.9775
0.1821 -5.0976 -2.5021 0.9775
1.0827 -4.9769 -2.4984 0.9776
1.2592 -4.9337 -2.4977 0.9776
1.6071 -4.8285 -2.4962 0.9776
1.7779 -4.7667 -2.4955 0.9776
1.9464 -4.6989 -2.4948 0.9776
2.4355 -4.4604 -2.4928 0.9776
2.5925 -4.3695 -2.4922 0.9776
2.8962 -4.1713 -2.4910 0.9776
3.0425 -4.0643 -2.4904 0.9776
3.3231 -3.8351 -2.4892 0.9776
3.7117 -3.4557 -2.4876 0.9777
3.8319 -3.3204 -2.4871 0.9777
3.9472 -3.1809 -2.4867 0.9777
4.0575 -3.0374 -2.4862 0.9777
4.1626 -2.8902 -2.4858 0.9777
4.3568 -2.5850 -2.4850 0.9777
4.4457 -2.4275 -2.4846 0.9777
4.5289 -2.2670 -2.4843 0.9777
4.7436 -1.7693 -2.4834 0.9777
4.8032 -1.5987 -2.4832 0.9777
5.0091 -0.7202 -2.4823 0.9777
5.0314 -0.5409 -2.4822 0.9777
5.0474 -0.3610 -2.4822 0.9777
-4.8631 0.0000 -2.5229 0.9783
-4.8600 -0.1736 -2.5229 0.9783
-4.8350 -0.5198 -2.5228 0.9783
-4.7852 -0.8633 -2.5226 0.9783
-4.6123 -1.5351 -2.5218 0.9783
-4.4204 -2.0187 -2.5210 0.9783
-4.3450 -2.1750 -2.5207 0.9783
-4.1776 -2.4787 -2.5200 0.9783
-3.7799 -3.0460 -2.5184 0.9784
-3.5516 -3.3067 -2.5174 0.9784
-3.4306 -3.4306 -2.5169 0.9784
-3.0423 -3.7753 -2.5153 0.9784
-2.9050 -3.8806 -2.5148 0.9784
-2.6195 -4.0761 -2.5136 0.9784
-2.3209 -4.2505 -2.5124 0.9784
-2.1672 -4.3295 -2.5117 0.9784
-1.8519 -4.4708 -2.5104 0.9784
-1.6907 -4.5328 -2.5098 0.9784
-1.5274 -4.5891 -2.5091 0.9784
-1.3622 -4.6394 -2.5084 0.9784
-1.1955 -4.6838 -2.5077 0.9785
-0.5161 -4.8009 -2.5050 0.9785
-0.1722 -4.8227 -2.5035 0.9785
0.1721 -4.8200 -2.5021 0.9785
0.3440 -4.8095 -2.5014 0.9785
0.5153 -4.7928 -2.5007 0.9785
0.6858 -4.7700 -2.5000 0.9785
0.8554 -4.7411 -2.4993 0.9785
1.1908 -4.6655 -2.4979 0.9785
1.3562 -4.6187 -2.4973 0.9785
2.3034 -4.2183 -2.4934 0.9786
2.4519 -4.1324 -2.4928 0.9786
2.8776 -3.8440 -2.4910 0.9786
3.0123 -3.7380 -2.4905 0.9786
3.6244 -3.1406 -2.4880 0.9786
3.7336 -3.0087 -2.4875 0.9786
3.8379 -2.8730 -2.4871 0.9786
4.0318 -2.5911 -2.4863 0.9786
4.1211 -2.4452 -2.4860 0.9786
4.2052 -2.2962 -2.4856 0.9786
4.2839 -2.1444 -2.4853 0.9786
4.4871 -1.6736 -2.4845 0.9787
4.5436 -1.5122 -2.4842 0.9787
4.6391 -1.1841 -2.4838 0.9787
4.6782 -1.0177 -2.4837 0.9787
4.7384 -0.6813 -2.4835 0.9787
4.7746 -0.3415 -2.4833 0.9787
4.7837 -0.1708 -2.4833 0.9787
-4.6044 0.0000 -2.5218 0.9792
-4.6014 -0.1643 -2.5218 0.9792
-4.5925 -0.3285 -2.5218 0.9792
-4.5571 -0.6552 -2.5216 0.9792
-4.5306 -0.8174 -2.5215 0.9792
-4.4983 -0.9786 -2.5214 0.9792
-4.3670 -1.4535 -2.5208 0.9792
-4.3120 -1.6083 -2.5206 0.9792
-4.0374 -2.2046 -2.5195 0.9792
-3.9556 -2.3469 -2.5191 0.9792
-3.7770 -2.6224 -2.5184 0.9792
-3.6804 -2.7551 -2.5180 0.9793
-3.5791 -2.8842 -2.5176 0.9793
-3.3630 -3.1311 -2.5167 0.9793
-3.0073 -3.4706 -2.5152 0.9793
-2.8809 -3.5750 -2.5147 0.9793
-2.4806 -3.8599 -2.5130 0.9793
-2.3407 -3.9451 -2.5125 0.9793
-2.1979 -4.0252 -2.5119 0.9793
-1.9043 -4.1697 -2.5107 0.9793
-1.7538 -4.2340 -2.5100 0.9793
-1.1322 -4.4360 -2.5075 0.9793
-0.4889 -4.5472 -2.5048 0.9794
-0.3262 -4.5605 -2.5042 0.9794
-0.1631 -4.5680 -2.5035 0.9794
0.0000 -4.5697 -2.5028 0.9794
0.4881 -4.5399 -2.5008 0.9794
0.6496 -4.5184 -2.5002 0.9794
0.9698 -4.4582 -2.4989 0.9794
1.4397 -4.3256 -2.4969 0.9794
1.5928 -4.2704 -2.4963 0.9794
1.8924 -4.1438 -2.4951 0.9794
2.3229 -3.9150 -2.4933 0.9795
2.4606 -3.8288 -2.4927 0.9795
2.5951 -3.7377 -2.4922 0.9795
2.9779 -3.4367 -2.4906 0.9795
3.0981 -3.3276 -2.4901 0.9795
3.3263 -3.0969 -2.4892 0.9795
3.4341 -2.9757 -2.4888 0.9795
3.6365 -2.7222 -2.4879 0.9795
3.7307 -2.5903 -2.4876 0.9795
3.8202 -2.4551 -2.4872 0.9795
3.9049 -2.3169 -2.4868 0.9795
4.1287 -1.8855 -2.4859 0.9795
4.1929 -1.7368 -2.4857 0.9795
4.2518 -1.5858 -2.4854 0.9795
4.3053 -1.4329 -2.4852 0.9795
4.3534 -1.2783 -2.4850 0.9795
4.3959 -1.1220 -2.4848 0.9795
4.4329 -0.9643 -2.4847 0.9795
4.4643 -0.8054 -2.4846 0.9795
4.5100 -0.4849 -2.4844 0.9795
4.5244 -0.3236 -2.4843 0.9795
4.5330 -0.1619 -2.4843 0.9795
-4.3550 -0.3115 -2.5208 0.9800
-4.3410 -0.4667 -2.5207 0.9800
-4.3215 -0.6213 -2.5207 0.9800
-4.2963 -0.7752 -2.5205 0.9800
-4.1881 -1.2297 -2.5201 0.9800
-4.0891 -1.5251 -2.5197 0.9800
-3.9690 -1.8126 -2.5192 0.9800
-3.5819 -2.4869 -2.5176 0.9801
-3.1894 -2.9695 -2.5160 0.9801
-3.0809 -3.0809 -2.5155 0.9801
-2.8522 -3.2916 -2.5146 0.9801
-2.7323 -3.3906 -2.5141 0.9801
-2.2201 -3.7418 -2.5120 0.9801
-1.6635 -4.0160 -2.5097 0.9801
-1.5187 -4.0719 -2.5091 0.9801
-1.3721 -4.1225 -2.5085 0.9801
-1.2238 -4.1678 -2.5079 0.9801
-1.0740 -4.2078 -2.5073 0.9801
-0.7707 -4.2716 -2.5060 0.9802
-0.4637 -4.3135 -2.5047 0.9802
-0.3094 -4.3262 -2.5041 0.9802
0.3091 -4.3218 -2.5016 0.9802
0.4630 -4.3069 -2.5009 0.9802
0.6163 -4.2866 -2.5003 0.9802
0.7687 -4.2608 -2.4997 0.9802
0.9201 -4.2296 -2.4991 0.9802
1.2189 -4.1511 -2.4978 0.9802
1.3659 -4.1040 -2.4972 0.9802
2.2041 -3.7147 -2.4938 0.9802
2.3347 -3.6329 -2.4933 0.9803
2.4624 -3.5465 -2.4927 0.9803
2.5869 -3.4557 -2.4922 0.9803
2.7080 -3.3605 -2.4917 0.9803
2.8257 -3.2610 -2.4913 0.9803
2.9398 -3.1575 -2.4908 0.9803
3.0500 -3.0500 -2.4903 0.9803
3.3569 -2.7052 -2.4891 0.9803
3.4508 -2.5832 -2.4887 0.9803
3.7812 -2.0647 -2.4874 0.9803
3.8521 -1.9282 -2.4871 0.9803
3.9180 -1.7893 -2.4868 0.9803
4.0857 -1.3599 -2.4861 0.9803
4.1717 -1.0648 -2.4858 0.9803
4.2068 -0.9151 -2.4856 0.9803
4.2366 -0.7644 -2.4855 0.9803
