ply
format ascii 1.0
element vertex 1376
property float32 x
property float32 y
property float32 z
property float32 I
end_header
34.4027 27.7234 7.7907 0.8357
28.0674 26.1317 6.7620 0.8558
23.4054 25.1392 6.0565 0.8698
21.3630 24.6542 5.7522 0.8759
9.4637 12.6420 2.7845 0.9379
14.8505 23.1078 4.8434 0.8944
13.1483 22.1603 4.5435 0.9006
12.2463 22.4274 4.5057 0.9014
11.1229 22.2207 4.3816 0.9040
8.9947 21.7151 4.1444 0.9089
5.3763 21.0642 3.8333 0.9155
4.5805 21.0563 3.7996 0.9162
2.9147 20.2721 3.6113 0.9202
1.3991 19.5616 3.4580 0.9234
-1.8509 25.8798 4.5750 0.9000
-2.0739 19.2900 3.4210 0.9242
-2.7224 18.9345 3.3730 0.9252
-3.9778 18.2859 3.2997 0.9268
-11.9620 17.2286 3.6983 0.9183
-12.6430 16.8891 3.7200 0.9179
-13.2855 16.4863 3.7334 0.9176
-19.8176 14.8353 4.3650 0.9043
-20.5512 14.2689 4.4115 0.9034
-21.4226 5.4678 3.8985 0.9141
38.1036 28.5239 7.2916 0.8248
34.4333 27.7480 6.7746 0.8361
30.1818 26.1527 6.1180 0.8508
28.2304 26.2834 5.9090 0.8555
9.4672 12.6466 2.4201 0.9381
16.2899 23.4619 4.3756 0.8908
12.2838 22.4960 3.9266 0.9015
10.2412 22.4252 3.7767 0.9051
4.6244 21.2583 3.3328 0.9157
4.9607 27.4952 4.2801 0.8931
2.9188 20.3005 3.1419 0.9204
1.3990 19.5608 3.0043 0.9237
0.7102 19.8852 3.0483 0.9226
-2.7247 18.9510 2.9330 0.9254
-4.7333 18.5448 2.9320 0.9255
-8.1821 24.5834 3.9692 0.9005
-9.0358 24.2260 3.9610 0.9007
-7.5909 18.3260 3.0387 0.9229
-8.0972 17.7304 2.9860 0.9242
-8.6037 17.1880 2.9446 0.9252
-10.2216 17.2277 3.0688 0.9221
-11.9923 17.2722 3.2213 0.9184
-13.9806 16.1345 3.2705 0.9172
-15.5401 15.5401 3.3668 0.9149
-9.1184 7.9012 1.8484 0.9523
-9.6515 7.7777 1.8989 0.9511
-20.6406 14.3311 3.8495 0.9033
38.0998 28.5212 6.1976 0.8253
30.4302 26.3679 5.2433 0.8501
28.2282 26.2813 5.0224 0.8559
24.9628 24.9628 4.5972 0.8673
21.4178 24.7175 4.2590 0.8764
19.1594 23.7753 3.9762 0.8841
9.4706 12.6512 2.0579 0.9382
12.2826 22.4938 3.3374 0.9018
11.3282 22.6308 3.2956 0.9030
13.4477 29.4464 4.2155 0.8776
11.9276 28.7957 4.0588 0.8819
6.9485 20.8769 2.8652 0.9151
6.2346 21.2329 2.8817 0.9146
7.1498 28.0125 3.7648 0.8899
1.3990 19.5600 2.5536 0.9239
0.7119 19.9326 2.5973 0.9227
-0.9357 26.1997 3.4139 0.8996
-1.8907 26.4359 3.4513 0.8986
-3.1382 17.3937 2.3016 0.9312
-3.9775 18.2845 2.4367 0.9273
-4.7441 18.5874 2.4981 0.9255
-7.3799 25.1337 3.4111 0.8997
-8.3170 24.9886 3.4295 0.8992
-9.0981 24.3929 3.3902 0.9003
-9.9255 23.9623 3.3775 0.9007
-8.1058 17.7493 2.5409 0.9243
-9.2954 17.0232 2.5257 0.9247
-14.7306 22.9212 3.5481 0.8959
-11.8901 17.1250 2.7148 0.9193
-13.4046 16.6341 2.7819 0.9174
-14.4042 15.4712 2.7527 0.9183
-20.7459 19.3151 3.6912 0.8920
-9.6538 7.7795 1.6145 0.9512
-19.8594 14.8666 3.2305 0.9048
-20.6396 14.3303 3.2720 0.9036
38.2992 28.6704 5.1373 0.8249
34.4410 27.7543 4.7497 0.8370
20.0923 31.2642 3.9907 0.8611
11.4089 22.7921 2.7369 0.9025
6.9482 20.8760 2.3626 0.9153
6.2416 21.2568 2.3790 0.9147
7.1749 28.1111 3.1154 0.8898
3.6494 20.2274 2.2071 0.9206
2.8895 20.0972 2.1803 0.9216
2.1213 19.7306 2.1309 0.9233
1.3989 19.5592 2.1057 0.9241
0.0000 20.5553 2.2073 0.9206
-0.9403 26.3278 2.8289 0.8994
-1.9003 26.5703 2.8604 0.8984
-2.0359 18.9370 2.0452 0.9262
-4.6756 18.3190 2.0302 0.9268
-9.1650 24.5725 2.8162 0.8999
-8.0057 17.5301 2.0694 0.9254
-8.6030 17.1867 2.0638 0.9256
-10.1066 17.0337 2.1268 0.9234
-11.9969 17.2788 2.2588 0.9189
-13.1004 16.2566 2.2419 0.9194
-13.9337 16.0803 2.2848 0.9180
-15.5387 15.5387 2.3597 0.9154
-20.8488 19.4109 3.0589 0.8917
-9.6561 7.7814 1.3317 0.9513
-19.7960 14.8191 2.6554 0.9053
-20.6385 14.3296 2.6980 0.9039
38.4717 28.7996 4.0682 0.8246
31.4854 27.2822 3.5267 0.8460
28.4180 26.4581 3.2869 0.8557
9.4774 12.6603 1.3388 0.9385
21.8232 31.4314 3.2393 0.8576
20.4527 31.8250 3.2025 0.8591
13.2768 22.3769 2.2026 0.9008
11.3010 22.5766 2.1372 0.9036
13.8392 30.3037 2.8201 0.8748
5.5868 21.8889 1.9124 0.9133
2.9055 20.2083 1.7283 0.9213
1.3988 19.5584 1.6599 0.9243
-0.9245 25.8866 2.1928 0.9012
-2.0449 19.0209 1.6194 0.9261
-2.7140 18.8761 1.6143 0.9263
-3.1868 17.6633 1.5194 0.9305
-7.3106 24.8977 2.1966 0.9011
-8.9535 24.0054 2.1689 0.9023
-8.0412 17.6078 1.6386 0.9252
-8.6027 17.1860 1.6269 0.9258
-14.5538 22.6461 2.2788 0.8976
-23.5092 31.4047 3.3209 0.8543
-13.1975 16.3771 1.7805 0.9190
-16.6171 15.4711 1.9220 0.9129
-9.6584 7.7833 1.0501 0.9514
-19.7123 14.7565 2.0845 0.9059
30.1384 26.1150 2.4729 0.8523
28.4853 26.5207 2.4134 0.8556
25.3984 25.3984 2.2273 0.8659
9.4808 12.6648 0.9810 0.9386
16.8562 24.2775 1.8328 0.8883
13.2761 22.3757 1.6134 0.9010
11.3628 22.7000 1.5741 0.9033
13.6717 29.9369 2.0408 0.8764
7.8670 21.0922 1.3960 0.9137
6.1567 20.9676 1.3551 0.9161
-0.9294 26.0234 1.6147 0.9009
-2.0447 19.0188 1.1862 0.9262
-3.3263 18.4367 1.1617 0.9277
-3.9771 18.2824 1.1602 0.9278
-7.3650 25.0829 1.6211 0.9005
-8.2764 24.8667 1.6252 0.9003
-8.9912 24.1063 1.5954 0.9020
-7.6705 18.5183 1.2429 0.9228
-8.0404 17.6059 1.2002 0.9254
-8.6023 17.1853 1.1917 0.9259
-10.1498 17.1066 1.2335 0.9234
-14.6335 22.7701 1.6784 0.8972
-15.4770 22.2912 1.6828 0.8969
-23.5082 31.4034 2.4326 0.8545
-13.1959 16.3752 1.3041 0.9192
-13.9822 16.1363 1.3240 0.9180
-9.1316 7.9126 0.7493 0.9527
-19.8000 14.8221 1.5337 0.9056
39.0619 29.2413 1.9240 0.8226
30.1381 26.1148 1.5724 0.8525
28.1157 26.1767 1.5147 0.8575
25.5747 25.5747 1.4261 0.8652
23.3223 25.0499 1.3496 0.8720
22.3530 25.7967 1.3459 0.8723
9.4842 12.6693 0.6240 0.9386
20.3436 31.6552 1.4837 0.8602
12.2427 22.4208 1.0073 0.9028
11.3633 22.7010 1.0010 0.9034
8.9594 21.6300 0.9232 0.9105
5.6284 22.0517 0.8974 0.9129
2.9049 20.2037 0.8048 0.9215
2.1210 19.7282 0.7824 0.9236
1.3987 19.5569 0.7731 0.9245
0.7026 19.6732 0.7762 0.9242
0.0000 25.9612 1.0237 0.9013
-2.0445 19.0168 0.7542 0.9263
-4.6953 18.3960 0.7486 0.9268
-8.3576 25.1106 1.0435 0.8995
-8.9902 24.1037 1.0144 0.9021
-7.6723 18.5226 0.7905 0.9229
-9.2939 17.0205 0.7647 0.9253
-10.1487 17.1047 0.7842 0.9235
-15.4764 22.2903 1.0700 0.8971
-13.1943 16.3732 0.8291 0.9193
-13.9825 16.1367 0.8419 0.9181
-14.6589 15.7447 0.8483 0.9175
-9.1360 8.5059 0.4922 0.9513
-19.7972 14.8200 0.9751 0.9057
34.3137 27.6517 0.7444 0.8384
30.9986 26.8605 0.6929 0.8487
28.1167 26.1776 0.6489 0.8575
25.5696 25.5696 0.6108 0.8653
22.3536 25.7974 0.5766 0.8724
19.1534 23.7679 0.5156 0.8850
9.4875 12.6738 0.2674 0.9386
16.8572 24.2789 0.4993 0.8885
13.2747 22.3733 0.4394 0.9012
12.2409 22.4175 0.4314 0.9029
11.3638 22.7020 0.4288 0.9034
7.8663 21.0903 0.3802 0.9139
5.6287 22.0529 0.3844 0.9130
2.9045 20.2014 0.3447 0.9216
1.3987 19.5561 0.3312 0.9246
-0.9292 26.0177 0.4398 0.9011
-2.7131 18.8701 0.3220 0.9266
-3.9768 18.2810 0.3160 0.9279
-4.6948 18.3941 0.3207 0.9269
-7.4369 25.3279 0.4459 0.8998
-8.3573 25.1096 0.4470 0.8995
-7.6741 18.5268 0.3387 0.9229
-8.6017 17.1840 0.3246 0.9260
-9.2936 17.0199 0.3276 0.9254
-10.1476 17.1029 0.3359 0.9235
-23.5063 31.4008 0.6626 0.8548
-13.1928 16.3712 0.3552 0.9193
-14.6582 15.7440 0.3634 0.9175
-15.5359 15.5359 0.3711 0.9159
-9.1317 8.5019 0.2108 0.9513
-9.1382 7.9183 0.2043 0.9528
-19.7944 14.8179 0.4177 0.9058
-20.6343 14.3266 0.4243 0.9044
-21.3858 5.4584 0.3728 0.9155
29.2603 17.3610 -0.1916 0.8728
39.1377 29.2981 -0.2753 0.8224
34.3049 27.6446 -0.2480 0.8384
25.5646 25.5646 -0.2035 0.8654
23.3131 25.0401 -0.1926 0.8721
9.4909 12.6784 -0.0892 0.9386
8.9571 21.6244 -0.1318 0.9106
7.8659 21.0893 -0.1267 0.9139
6.9466 20.8713 -0.1238 0.9158
5.6289 22.0540 -0.1281 0.9130
5.9543 27.3715 -0.1577 0.8940
2.9042 20.1991 -0.1149 0.9216
1.3986 19.5553 -0.1104 0.9246
0.7025 19.6689 -0.1108 0.9243
0.0000 25.9592 -0.1462 0.9014
-0.9291 26.0149 -0.1466 0.9011
-1.9052 26.6390 -0.1504 0.8987
-3.9766 18.2803 -0.1053 0.9279
-7.4367 25.3270 -0.1486 0.8998
-8.3570 25.1086 -0.1490 0.8996
-8.6013 17.1833 -0.1082 0.9260
-14.6285 22.7623 -0.1523 0.8974
-23.5053 31.3995 -0.2208 0.8548
-13.1912 16.3693 -0.1184 0.9193
-14.6576 15.7433 -0.1211 0.9176
-15.5352 15.5352 -0.1237 0.9159
-9.6676 7.7907 -0.0699 0.9515
-21.3862 5.4585 -0.1243 0.9155
29.2142 17.3336 -0.9565 0.8729
34.2961 27.6375 -1.2402 0.8384
28.1187 26.1794 -1.0818 0.8575
25.5595 25.5596 -1.0178 0.8653
22.3549 25.7989 -0.9612 0.8723
20.5405 31.9616 -1.0698 0.8590
11.3648 22.7040 -0.7149 0.9034
8.9560 21.6216 -0.6590 0.9106
7.8656 21.0884 -0.6338 0.9139
5.9541 27.3704 -0.7887 0.8940
4.9457 27.4121 -0.7843 0.8945
2.9039 20.1968 -0.5745 0.9216
1.3986 19.5545 -0.5520 0.9245
0.7024 19.6667 -0.5541 0.9243
0.0000 25.9582 -0.7309 0.9013
-2.7125 18.8661 -0.5367 0.9266
-3.9765 18.2796 -0.5268 0.9279
-4.6938 18.3902 -0.5344 0.9269
-7.4364 25.3260 -0.7432 0.8998
-8.3566 25.1077 -0.7451 0.8995
-7.6776 18.5355 -0.5649 0.9229
-8.6010 17.1826 -0.5411 0.9260
-14.6268 22.7598 -0.7618 0.8974
-15.4745 22.2875 -0.7640 0.8971
-13.1896 16.3673 -0.5919 0.9193
-13.9837 16.1381 -0.6013 0.9181
-14.6569 15.7427 -0.6057 0.9175
-15.5345 15.5345 -0.6186 0.9158
-9.1231 8.4940 -0.3510 0.9513
-9.1448 7.9240 -0.3407 0.9527
-9.6699 7.7925 -0.3497 0.9515
-19.7888 14.8137 -0.6960 0.9058
47.2174 -0.0000 -2.3946 0.8277
49.3927 5.3103 -2.5193 0.8196
48.7209 10.5986 -2.5286 0.8190
48.3698 12.3456 -2.5317 0.8188
42.8939 19.5890 -2.3914 0.8279
41.4772 22.6483 -2.3966 0.8276
29.1682 17.3063 -1.7200 0.8730
39.8384 25.6026 -2.4016 0.8272
34.1795 27.5435 -2.2262 0.8388
30.8878 26.7644 -2.0727 0.8490
19.1498 23.7634 -1.5477 0.8849
9.4977 12.6874 -0.8037 0.9385
16.8587 24.2811 -1.4991 0.8883
13.8737 30.3791 -1.6937 0.8748
8.9548 21.6188 -1.1867 0.9105
6.9460 20.8694 -1.1154 0.9157
6.1528 20.9547 -1.1076 0.9162
5.6295 22.0562 -1.1544 0.9129
4.9451 27.4089 -1.4125 0.8944
2.9035 20.1945 -1.0347 0.9215
2.1207 19.7250 -1.0061 0.9236
1.3985 19.5537 -0.9942 0.9245
0.0000 25.9572 -1.3164 0.9013
-2.0436 19.0086 -0.9696 0.9263
-4.6933 18.3882 -0.9624 0.9268
-7.4361 25.3250 -1.3386 0.8997
-8.3563 25.1067 -1.3419 0.8994
-7.6796 18.5401 -1.0177 0.9228
-8.0360 17.5963 -0.9810 0.9254
-8.6007 17.1819 -0.9744 0.9259
-9.2925 17.0178 -0.9833 0.9253
-10.1442 17.0972 -1.0082 0.9235
-23.4110 31.2735 -1.9812 0.8552
-19.7860 14.8117 -1.2534 0.9058
-20.6311 14.3244 -1.2738 0.9043
-25.7255 12.8773 -1.4590 0.8912
-45.3998 20.7334 -2.5311 0.8188
-46.5965 17.3796 -2.5221 0.8194
-45.9474 13.4914 -2.4286 0.8255
-21.3870 5.4587 -1.1194 0.9154
-45.4656 9.8904 -2.3597 0.8300
-45.7323 8.2510 -2.3567 0.8302
-45.9399 6.6052 -2.3538 0.8304
-46.0885 4.9550 -2.3508 0.8306
-46.1780 3.3027 -2.3479 0.8308
34.0893 3.6650 -2.5139 0.8715
33.7984 6.0979 -2.5182 0.8713
33.5873 7.3065 -2.5203 0.8712
33.0350 9.6999 -2.5245 0.8710
32.3107 12.0513 -2.5285 0.8708
19.2779 8.8039 -1.5539 0.9185
30.8403 15.4376 -2.5288 0.8708
25.1883 14.9449 -2.1475 0.8892
27.3679 17.5883 -2.3853 0.8777
26.7410 18.5666 -2.3870 0.8776
25.3816 20.4537 -2.3901 0.8774
23.8869 22.2395 -2.3930 0.8773
23.0912 23.0912 -2.3944 0.8772
22.2647 23.9139 -2.3957 0.8772
21.4082 24.7064 -2.3970 0.8771
16.8162 24.2200 -2.1619 0.8885
13.2719 22.3685 -1.9071 0.9009
7.8648 21.0864 -1.6501 0.9137
6.1521 20.9521 -1.6011 0.9161
5.9536 27.3681 -2.0536 0.8937
2.9032 20.1922 -1.4958 0.9214
2.1206 19.7242 -1.4546 0.9235
0.0000 25.9561 -1.9032 0.9011
-0.9268 25.9490 -1.9039 0.9011
-1.9050 26.6359 -1.9580 0.8984
-2.0434 19.0066 -1.4016 0.9262
-3.9762 18.2782 -1.3715 0.9277
-4.6928 18.3862 -1.3913 0.9267
-7.4358 25.3240 -1.9352 0.8996
-8.3560 25.1058 -1.9401 0.8993
-7.6815 18.5447 -1.4718 0.9226
-8.0351 17.5944 -1.4182 0.9254
-19.5567 26.1247 -2.3928 0.8773
-13.9845 16.1390 -1.5658 0.9179
-14.6556 15.7413 -1.5770 0.9174
-15.5331 15.5331 -1.6107 0.9157
-9.1146 8.4860 -0.9131 0.9513
-9.1513 7.9297 -0.8879 0.9526
-9.6745 7.7963 -0.9110 0.9514
-20.6300 14.3237 -1.8415 0.9042
-29.6535 17.5942 -2.5282 0.8708
-31.2882 14.2888 -2.5220 0.8711
-31.7518 13.1520 -2.5199 0.8712
-32.8921 9.6580 -2.5135 0.8715
-33.4396 7.2743 -2.5092 0.8717
-33.6488 6.0709 -2.5070 0.8719
-34.0519 1.2162 -2.4983 0.8723
26.1043 0.9323 -2.5077 0.9004
25.6070 5.5705 -2.5159 0.9000
25.4080 6.4850 -2.5175 0.9000
25.1760 7.3923 -2.5191 0.8999
24.2858 10.0595 -2.5237 0.8998
23.5336 11.7801 -2.5266 0.8996
23.1111 12.6196 -2.5280 0.8996
22.6189 13.4204 -2.5250 0.8997
20.8269 13.3846 -2.3768 0.9053
20.3465 14.1268 -2.3780 0.9053
19.3061 15.5578 -2.3804 0.9052
17.5564 17.5564 -2.3837 0.9050
16.9257 18.1795 -2.3847 0.9050
15.5979 19.3559 -2.3865 0.9049
9.5045 12.6965 -1.5226 0.9383
14.1874 20.4337 -2.3882 0.9049
13.4533 20.9338 -2.3890 0.9048
12.7014 21.4070 -2.3897 0.9048
11.1478 22.2705 -2.3910 0.9048
8.9262 21.5498 -2.2393 0.9105
6.9454 20.8675 -2.1114 0.9154
3.6621 20.2974 -1.9801 0.9205
2.8940 20.1285 -1.9523 0.9215
2.1205 19.7234 -1.9045 0.9234
1.3984 19.5522 -1.8819 0.9243
0.7001 19.6012 -1.8830 0.9242
-1.7785 24.8671 -2.3935 0.9047
-2.0372 18.9487 -1.8297 0.9263
-2.7033 18.8021 -1.8237 0.9265
-3.3255 18.4318 -1.7981 0.9275
-4.6781 18.3288 -1.8161 0.9268
-7.0162 23.8950 -2.3909 0.9048
-7.8625 23.6232 -2.3903 0.9048
-7.5574 18.2453 -1.8960 0.9237
-8.0098 17.5390 -1.8511 0.9254
-8.6000 17.1806 -1.8445 0.9257
-9.2917 17.0165 -1.8614 0.9250
-13.4280 20.8944 -2.3845 0.9050
-13.9765 16.1297 -2.0490 0.9178
-15.5324 15.5324 -2.1088 0.9155
-9.1103 8.4820 -1.1950 0.9512
-9.6769 7.7981 -1.1931 0.9513
-19.7183 14.7610 -2.3647 0.9058
-20.2887 14.0867 -2.3713 0.9055
-20.7663 13.3457 -2.3699 0.9056
-21.2167 12.5885 -2.3685 0.9056
-22.3993 10.2294 -2.3641 0.9058
-23.3196 7.7615 -2.3595 0.9060
-23.5664 6.9197 -2.3580 0.9060
-21.2454 5.4226 -2.1051 0.9157
-25.6860 4.6343 -2.5058 0.9004
-25.8179 3.7121 -2.5041 0.9005
-25.9825 1.8583 -2.5008 0.9006
-26.0150 0.9291 -2.4992 0.9007
21.0905 -0.0000 -2.5053 0.9186
21.0592 1.5062 -2.5079 0.9185
21.0031 2.2581 -2.5093 0.9184
20.8103 3.7546 -2.5119 0.9183
20.6737 4.4973 -2.5132 0.9183
20.5105 5.2350 -2.5145 0.9183
20.3208 5.9667 -2.5157 0.9182
19.5953 8.1166 -2.5194 0.9181
18.9841 9.5028 -2.5218 0.9180
18.2742 10.8426 -2.5241 0.9180
17.4469 12.1136 -2.5230 0.9180
15.5644 12.5426 -2.3744 0.9226
15.1126 13.0951 -2.3753 0.9226
14.6409 13.6312 -2.3762 0.9226
14.1501 14.1501 -2.3771 0.9226
8.8472 11.8184 -1.7536 0.9423
8.5003 13.2266 -1.8676 0.9386
8.2787 13.9530 -1.9272 0.9367
8.3351 18.2513 -2.3834 0.9224
7.0141 18.8055 -2.3841 0.9223
3.0742 9.2366 -1.1564 0.9615
3.5654 19.7614 -2.3853 0.9223
2.1204 19.7226 -2.3563 0.9232
1.3983 19.5514 -2.3284 0.9241
0.0000 20.0803 -2.3853 0.9223
-0.7167 20.0663 -2.3851 0.9223
-2.0370 18.9467 -2.2636 0.9261
-3.3253 18.4311 -2.2247 0.9273
-3.9759 18.2768 -2.2218 0.9274
-5.6516 19.2474 -2.3828 0.9224
-6.3336 19.0295 -2.3823 0.9224
-7.0072 18.7870 -2.3818 0.9224
-7.5609 18.2535 -2.3469 0.9235
-8.5996 17.1799 -2.2821 0.9255
-9.2913 17.0158 -2.3029 0.9249
-10.8219 16.8392 -2.3777 0.9225
-11.4122 16.4366 -2.3769 0.9226
-11.9873 16.0132 -2.3761 0.9226
-12.5465 15.5693 -2.3752 0.9226
-13.0892 15.1058 -2.3743 0.9226
-14.1221 14.1221 -2.3724 0.9227
-9.1580 7.9354 -1.4394 0.9524
-9.6792 7.8000 -1.4766 0.9512
-15.9601 11.9476 -2.3682 0.9228
-16.7559 10.7684 -2.3660 0.9229
-17.1214 10.1586 -2.3648 0.9229
-17.7848 8.9024 -2.3625 0.9230
-18.6060 6.9397 -2.3589 0.9231
-19.0337 5.5888 -2.3564 0.9232
-20.7535 3.7443 -2.5050 0.9186
-20.8627 2.9996 -2.5037 0.9186
-21.0300 0.7511 -2.4997 0.9187
17.6740 0.6312 -2.5058 0.9310
17.6481 1.2622 -2.5069 0.9310
17.5996 1.8921 -2.5080 0.9310
17.3192 3.7675 -2.5113 0.9309
17.0207 4.9977 -2.5135 0.9308
16.8385 5.6044 -2.5145 0.9308
16.4091 6.7969 -2.5166 0.9308
15.6067 8.5219 -2.5195 0.9307
14.9700 9.6206 -2.5213 0.9306
14.6222 10.1524 -2.5222 0.9306
14.2554 10.6715 -2.5231 0.9306
13.8566 11.1663 -2.5215 0.9306
12.2519 11.4069 -2.3719 0.9346
9.4761 11.7591 -2.1398 0.9408
8.8665 11.8443 -2.0963 0.9420
8.4270 13.1128 -2.2085 0.9390
8.2143 13.8444 -2.2809 0.9370
8.0402 14.7245 -2.3771 0.9345
6.9716 15.2656 -2.3779 0.9344
6.4232 15.5069 -2.3782 0.9344
2.7423 9.3394 -1.3792 0.9614
4.1526 16.2699 -2.3792 0.9344
2.9817 16.5265 -2.3794 0.9344
2.3900 16.6229 -2.3795 0.9344
1.7952 16.6979 -2.3795 0.9344
1.1981 16.7513 -2.3795 0.9344
0.0000 16.7932 -2.3794 0.9344
-4.1502 16.2604 -2.3778 0.9344
-5.2979 15.9176 -2.3770 0.9345
-6.4174 15.4930 -2.3761 0.9345
-8.0311 14.7079 -2.3744 0.9345
-9.0551 14.0900 -2.3731 0.9346
-9.6815 7.8019 -1.7617 0.9510
-13.7063 9.5164 -2.3642 0.9348
-14.3388 8.5076 -2.3623 0.9349
-14.6273 7.9871 -2.3614 0.9349
-15.3777 6.3697 -2.3584 0.9350
-15.7792 5.2518 -2.3563 0.9350
-17.3952 3.1384 -2.5045 0.9311
-17.4883 2.5144 -2.5034 0.9311
-17.5590 1.8878 -2.5023 0.9311
15.2015 -0.0000 -2.5043 0.9402
15.1977 0.5428 -2.5053 0.9402
15.1745 1.0853 -2.5062 0.9402
15.0698 2.1667 -2.5081 0.9401
14.2961 5.3322 -2.5136 0.9400
14.1016 5.8411 -2.5145 0.9400
13.8888 6.3428 -2.5153 0.9400
13.4098 7.3223 -2.5170 0.9399
13.1441 7.7987 -2.5178 0.9399
11.9146 9.6014 -2.5208 0.9399
11.5675 10.0233 -2.5215 0.9398
11.1992 10.4268 -2.5208 0.9399
10.6812 10.6812 -2.4885 0.9406
9.8027 10.5289 -2.3699 0.9433
9.4229 10.8746 -2.3705 0.9433
8.6268 11.5241 -2.3715 0.9433
8.2116 11.8270 -2.3719 0.9433
6.4492 12.8839 -2.3735 0.9433
2.7422 9.3392 -1.6035 0.9613
3.0646 14.0880 -2.3751 0.9432
2.0520 14.2717 -2.3753 0.9432
1.0286 14.3818 -2.3753 0.9432
0.5146 14.4092 -2.3753 0.9432
-1.0285 14.3798 -2.3750 0.9432
-3.0633 14.0819 -2.3741 0.9433
-3.5635 13.9619 -2.3738 0.9433
-5.0333 13.4948 -2.3727 0.9433
-5.9810 13.0966 -2.3719 0.9433
-8.6164 11.5102 -2.3686 0.9434
-9.0193 11.1923 -2.3680 0.9434
-9.4105 10.8603 -2.3673 0.9434
-8.5328 9.1649 -2.0629 0.9505
-8.4460 7.3185 -1.8411 0.9557
-8.9070 7.1777 -1.8845 0.9547
-9.9007 6.8742 -1.9856 0.9523
-12.3232 7.3117 -2.3605 0.9436
-12.5718 6.8647 -2.3597 0.9436
-13.2192 5.4756 -2.3571 0.9436
-13.8318 4.6037 -2.4015 0.9426
-14.7397 3.7621 -2.5060 0.9402
-15.0400 2.1624 -2.5032 0.9403
-15.1018 1.6236 -2.5022 0.9403
-15.1442 1.0831 -2.5012 0.9403
-15.1674 0.5417 -2.5003 0.9403
13.3178 0.4756 -2.5048 0.9472
13.2588 1.4255 -2.5065 0.9472
13.2039 1.8984 -2.5073 0.9472
13.0433 2.8374 -2.5090 0.9471
12.9379 3.3022 -2.5098 0.9471
12.8159 3.7631 -2.5106 0.9471
12.6774 4.2194 -2.5114 0.9471
12.3516 5.1162 -2.5129 0.9470
11.7443 6.4129 -2.5151 0.9470
11.2631 7.2383 -2.5165 0.9470
11.0005 7.6377 -2.5172 0.9470
10.4328 8.4073 -2.5184 0.9469
9.8111 9.1345 -2.5196 0.9469
9.4809 9.4809 -2.5202 0.9469
9.1384 9.8154 -2.5207 0.9469
8.7620 10.1119 -2.5149 0.9470
7.1887 10.3536 -2.3692 0.9500
6.8157 10.6054 -2.3695 0.9500
5.6453 11.2779 -2.3706 0.9500
5.2398 11.4736 -2.3708 0.9500
3.0727 9.2320 -1.8288 0.9612
3.1207 12.2267 -2.3718 0.9499
2.6824 12.3309 -2.3719 0.9499
1.7960 12.4916 -2.3721 0.9499
0.9003 12.5880 -2.3721 0.9499
0.4504 12.6120 -2.3721 0.9499
0.0000 12.6197 -2.3720 0.9499
-0.4504 12.6112 -2.3719 0.9499
-0.9002 12.5864 -2.3718 0.9499
-1.3488 12.5455 -2.3717 0.9499
-1.7956 12.4884 -2.3715 0.9499
-6.0384 11.0584 -2.3682 0.9500
-6.4280 10.8338 -2.3678 0.9500
-6.8091 10.5952 -2.3673 0.9500
-7.1814 10.3432 -2.3668 0.9500
-8.2552 8.2552 -2.1944 0.9536
-7.9800 7.4297 -2.0494 0.9566
-9.3435 6.9945 -2.1938 0.9536
-11.0128 6.0134 -2.3585 0.9502
-11.2169 5.6148 -2.3577 0.9502
-11.4193 5.2150 -2.3596 0.9502
-12.1145 5.0180 -2.4647 0.9480
-12.4854 4.6568 -2.5047 0.9472
-12.7943 3.7568 -2.5064 0.9472
-13.0210 2.8325 -2.5047 0.9472
-13.1094 2.3652 -2.5038 0.9472
-13.1810 1.8951 -2.5030 0.9472
-13.2736 0.9494 -2.5013 0.9473
-13.2945 0.4748 -2.5004 0.9473
11.7874 1.2673 -2.5060 0.9527
11.7381 1.6877 -2.5067 0.9527
11.6738 2.1062 -2.5075 0.9527
11.5946 2.5222 -2.5082 0.9526
11.3916 3.3449 -2.5096 0.9526
11.2681 3.7504 -2.5103 0.9526
10.9778 4.5472 -2.5117 0.9526
10.8114 4.9374 -2.5123 0.9526
10.4369 5.6990 -2.5136 0.9525
10.0087 6.4322 -2.5149 0.9525
9.7750 6.7869 -2.5155 0.9525
9.2701 7.4703 -2.5166 0.9525
8.9995 7.7981 -2.5171 0.9525
8.4237 8.4237 -2.5181 0.9525
8.1192 8.7206 -2.5186 0.9525
7.4790 9.2809 -2.5195 0.9524
6.7294 9.6922 -2.4941 0.9529
6.1471 9.5651 -2.4034 0.9546
5.3687 9.8320 -2.3679 0.9552
5.0149 10.0185 -2.3682 0.9552
4.2883 10.3528 -2.3687 0.9552
3.9164 10.5002 -2.3689 0.9552
3.0727 9.2321 -2.0567 0.9610
2.7422 9.3389 -2.0574 0.9610
2.7720 10.8607 -2.3693 0.9552
1.5954 11.0959 -2.3696 0.9552
0.7997 11.1815 -2.3696 0.9552
0.0000 11.2097 -2.3695 0.9552
-0.4001 11.2022 -2.3694 0.9552
-1.9898 11.0285 -2.3689 0.9552
-2.3819 10.9496 -2.3686 0.9552
-2.7710 10.8565 -2.3684 0.9552
-3.1563 10.7495 -2.3682 0.9552
-3.9142 10.4944 -2.3676 0.9552
-4.2857 10.3466 -2.3673 0.9552
-4.6516 10.1856 -2.3669 0.9553
-5.0114 10.0115 -2.3665 0.9553
-5.7109 9.6252 -2.3657 0.9553
-6.0497 9.4135 -2.3653 0.9553
-6.3806 9.1898 -2.3649 0.9553
-6.7032 8.9545 -2.3644 0.9553
-7.0171 8.7077 -2.3639 0.9553
-7.3219 8.4499 -2.3634 0.9553
-7.9024 7.9024 -2.3623 0.9553
-7.9050 7.3598 -2.2831 0.9568
-8.6955 7.0073 -2.3606 0.9554
-9.3874 6.0329 -2.3588 0.9554
-10.1113 5.5212 -2.4352 0.9540
-10.9620 4.5406 -2.5081 0.9526
-11.2514 3.7448 -2.5066 0.9527
-11.4831 2.9309 -2.5051 0.9527
-11.6559 2.1029 -2.5036 0.9527
-11.7200 1.6851 -2.5029 0.9527
-11.7692 1.2653 -2.5021 0.9528
10.6523 0.0000 -2.5035 0.9572
10.6309 0.7603 -2.5049 0.9572
10.5998 1.1396 -2.5056 0.9571
10.5552 1.5176 -2.5062 0.9571
10.3406 2.6393 -2.5082 0.9571
10.1310 3.3719 -2.5094 0.9571
9.7196 4.4388 -2.5113 0.9570
9.1957 5.4561 -2.5130 0.9570
8.9971 5.7821 -2.5135 0.9570
8.7868 6.1008 -2.5141 0.9570
7.5713 7.5713 -2.5165 0.9570
7.2975 7.8380 -2.5169 0.9570
6.4208 8.5771 -2.5181 0.9569
6.1114 8.8021 -2.5184 0.9569
5.7933 9.0145 -2.5184 0.9569
5.4588 9.2004 -2.5143 0.9570
5.0680 9.2813 -2.4853 0.9575
4.5940 9.1777 -2.4121 0.9587
3.8537 9.3037 -2.3667 0.9595
3.5195 9.4361 -2.3669 0.9595
2.7421 9.3388 -2.2875 0.9608
1.7886 9.9134 -2.3675 0.9595
1.4336 9.9711 -2.3675 0.9595
1.0768 10.0160 -2.3676 0.9595
0.7186 10.0481 -2.3676 0.9595
0.3596 10.0672 -2.3675 0.9595
0.0000 10.0734 -2.3675 0.9595
-0.7186 10.0470 -2.3673 0.9595
-1.4333 9.9691 -2.3671 0.9595
-2.1406 9.8400 -2.3667 0.9595
-5.1328 8.6509 -2.3641 0.9595
-5.4374 8.4608 -2.3637 0.9595
-5.7350 8.2600 -2.3633 0.9595
-6.3073 7.8269 -2.3625 0.9595
-6.8469 7.3541 -2.3615 0.9596
-7.5890 6.5759 -2.3600 0.9596
-7.8171 6.2994 -2.3595 0.9596
-8.0697 6.0409 -2.3691 0.9594
-8.5203 5.9158 -2.4378 0.9583
-9.1746 5.4435 -2.5072 0.9571
-9.3710 5.1169 -2.5093 0.9571
-9.5452 4.7780 -2.5087 0.9571
-9.8567 4.0828 -2.5074 0.9571
-10.1176 3.3675 -2.5061 0.9571
-10.3265 2.6357 -2.5048 0.9572
-10.4112 2.2648 -2.5041 0.9572
-10.4826 1.8913 -2.5034 0.9572
-10.5406 1.5155 -2.5027 0.9572
-10.6161 0.7593 -2.5014 0.9572
9.6648 0.3452 -2.5040 0.9608
9.6203 1.0343 -2.5052 0.9608
9.3840 2.3951 -2.5076 0.9608
9.1935 3.0599 -2.5087 0.9608
9.0804 3.3868 -2.5093 0.9607
8.1632 5.2462 -2.5125 0.9607
7.9723 5.5353 -2.5129 0.9607
7.7711 5.8174 -2.5134 0.9607
7.5599 6.0921 -2.5139 0.9607
7.1085 6.6182 -2.5147 0.9607
6.6203 7.1107 -2.5155 0.9607
6.3632 7.3436 -2.5159 0.9606
5.5440 7.9849 -2.5169 0.9606
4.3514 8.6930 -2.5170 0.9606
4.0329 8.8309 -2.5136 0.9607
3.3009 8.8501 -2.4456 0.9617
2.5740 8.7663 -2.3656 0.9630
1.6224 8.9922 -2.3658 0.9629
-0.3261 9.1313 -2.3658 0.9630
-0.9766 9.0840 -2.3656 0.9630
-1.6220 8.9901 -2.3653 0.9630
-2.5731 8.7632 -2.3647 0.9630
-3.1911 8.5556 -2.3643 0.9630
-4.0859 8.1625 -2.3634 0.9630
-4.3740 8.0104 -2.3631 0.9630
-5.9711 6.8910 -2.3608 0.9630
-6.2121 6.6723 -2.3604 0.9630
-7.1994 6.2383 -2.4665 0.9614
-7.9640 5.5295 -2.5103 0.9607
-8.1545 5.2406 -2.5098 0.9607
-8.3345 4.9451 -2.5092 0.9607
-8.5038 4.6434 -2.5086 0.9608
-8.6621 4.3359 -2.5081 0.9608
-9.1824 3.0562 -2.5057 0.9608
-9.2834 2.7259 -2.5051 0.9608
-9.3725 2.3922 -2.5045 0.9608
-9.4496 2.0556 -2.5039 0.9608
-9.5146 1.7166 -2.5033 0.9608
-9.6081 1.0330 -2.5020 0.9609
-9.6526 0.3447 -2.5008 0.9609
8.8425 -0.0000 -2.5032 0.9639
8.7603 1.2595 -2.5055 0.9639
8.7116 1.5718 -2.5060 0.9639
8.5810 2.1902 -2.5071 0.9639
8.4991 2.4956 -2.5076 0.9638
8.1887 3.3919 -2.5092 0.9638
7.9290 3.9690 -2.5101 0.9638
7.7837 4.2502 -2.5106 0.9638
7.6285 4.5262 -2.5111 0.9638
7.4634 4.7964 -2.5115 0.9638
7.2887 5.0607 -2.5120 0.9638
7.1047 5.3185 -2.5124 0.9638
5.8170 6.7132 -2.5147 0.9637
5.5744 6.9174 -2.5150 0.9637
5.3246 7.1129 -2.5153 0.9637
4.8047 7.4763 -2.5159 0.9637
4.5352 7.6438 -2.5161 0.9637
4.2599 7.8015 -2.5163 0.9637
3.9791 7.9492 -2.5166 0.9637
3.1071 8.3306 -2.5170 0.9637
2.8048 8.4271 -2.5143 0.9638
2.1854 8.5623 -2.5016 0.9639
1.8461 8.4863 -2.4586 0.9645
1.5177 8.4122 -2.4199 0.9651
1.1991 8.3397 -2.3852 0.9656
0.8928 8.3045 -2.3645 0.9659
0.0000 8.3521 -2.3644 0.9659
-0.5958 8.3304 -2.3643 0.9659
-0.8927 8.3034 -2.3642 0.9659
-1.1885 8.2659 -2.3641 0.9659
-1.7749 8.1591 -2.3638 0.9659
-2.3521 8.0104 -2.3634 0.9659
-2.6363 7.9207 -2.3632 0.9659
-2.9170 7.8208 -2.3630 0.9659
-3.1940 7.7109 -2.3628 0.9659
-3.7351 7.4617 -2.3622 0.9659
-3.9985 7.3228 -2.3619 0.9659
-4.5096 7.0170 -2.3613 0.9659
-4.7661 6.8644 -2.3657 0.9659
-5.7222 6.6038 -2.4737 0.9643
-6.0306 6.4773 -2.5054 0.9639
-6.2633 6.2634 -2.5076 0.9638
-6.4889 6.0413 -2.5099 0.9638
-6.7034 5.8085 -2.5110 0.9638
-7.4561 4.7917 -2.5091 0.9638
-7.9207 3.9648 -2.5075 0.9638
-8.1799 3.3882 -2.5065 0.9639
-8.2938 3.0934 -2.5059 0.9639
-8.3971 2.7948 -2.5054 0.9639
-8.4896 2.4928 -2.5048 0.9639
-8.6420 1.8800 -2.5037 0.9639
-8.7016 1.5699 -2.5031 0.9639
-8.7502 1.2581 -2.5026 0.9639
8.1382 0.0000 -2.5031 0.9665
8.1208 0.5808 -2.5042 0.9665
8.0965 0.8705 -2.5047 0.9665
8.0619 1.1591 -2.5052 0.9665
8.0170 1.4464 -2.5057 0.9665
7.8211 2.2965 -2.5072 0.9665
7.7356 2.5747 -2.5076 0.9665
7.6402 2.8497 -2.5081 0.9665
7.4202 3.3887 -2.5090 0.9664
7.2958 3.6520 -2.5095 0.9664
7.1621 3.9108 -2.5099 0.9664
6.7063 4.6563 -2.5112 0.9664
6.5369 4.8934 -2.5116 0.9664
6.3590 5.1244 -2.5119 0.9664
5.7773 5.7773 -2.5130 0.9664
5.5681 5.9806 -2.5133 0.9664
5.3518 6.1763 -2.5136 0.9664
5.1285 6.3641 -2.5139 0.9664
4.6624 6.7152 -2.5145 0.9664
4.4202 6.8780 -2.5147 0.9664
4.1723 7.0321 -2.5150 0.9664
3.6606 7.3130 -2.5154 0.9664
3.1300 7.5565 -2.5157 0.9664
2.8585 7.6639 -2.5159 0.9663
2.5833 7.7614 -2.5160 0.9663
0.5820 8.1369 -2.5091 0.9664
0.2891 8.0934 -2.4909 0.9667
-1.3881 7.6935 -2.4046 0.9678
-1.9296 7.5599 -2.3998 0.9679
-2.2000 7.4924 -2.4018 0.9678
-3.2943 7.2134 -2.4391 0.9674
-3.5743 7.1406 -2.4561 0.9671
-4.1473 6.9899 -2.4999 0.9666
-4.6505 6.6980 -2.5080 0.9665
-4.8894 6.5314 -2.5095 0.9664
-5.1226 6.3567 -2.5110 0.9664
-5.5640 5.9762 -2.5115 0.9664
-6.3537 5.1201 -2.5098 0.9664
-6.5313 4.8892 -2.5094 0.9664
-6.7004 4.6522 -2.5090 0.9664
-6.8609 4.4093 -2.5085 0.9664
-7.0126 4.1608 -2.5080 0.9665
-7.5276 3.1180 -2.5061 0.9665
-7.8130 2.2941 -2.5046 0.9665
-7.8883 2.0134 -2.5041 0.9665
-8.0086 1.4449 -2.5030 0.9665
7.5300 -0.0000 -2.5030 0.9688
7.5267 0.2688 -2.5035 0.9688
7.5137 0.5374 -2.5040 0.9687
7.3662 1.6024 -2.5058 0.9687
7.1566 2.3819 -2.5072 0.9687
6.8645 3.1349 -2.5085 0.9687
6.6255 3.6178 -2.5093 0.9687
6.0469 4.5266 -2.5108 0.9687
5.5306 5.1492 -2.5118 0.9686
5.3440 5.3440 -2.5122 0.9686
5.1504 5.5320 -2.5125 0.9686
4.7437 5.8866 -2.5130 0.9686
4.5311 6.0528 -2.5133 0.9686
3.3858 6.7640 -2.5144 0.9686
2.8950 6.9892 -2.5147 0.9686
2.6439 7.0885 -2.5148 0.9686
2.1316 7.2597 -2.5150 0.9686
1.6084 7.3937 -2.5152 0.9686
1.3435 7.4465 -2.5152 0.9686
0.8089 7.5236 -2.5153 0.9686
0.2701 7.5620 -2.5153 0.9686
0.0000 7.5662 -2.5150 0.9686
-0.5393 7.5411 -2.5131 0.9686
-1.3414 7.4348 -2.5113 0.9687
-1.6057 7.3812 -2.5109 0.9687
-2.6399 7.0777 -2.5110 0.9687
-3.1391 6.8738 -2.5119 0.9686
-3.8572 6.5010 -2.5127 0.9686
-4.0863 6.3584 -2.5124 0.9686
-4.5284 6.0492 -2.5118 0.9687
-4.7408 5.8830 -2.5115 0.9687
-5.1470 5.5282 -2.5108 0.9687
-5.3402 5.3402 -2.5104 0.9687
-5.5266 5.1454 -2.5100 0.9687
-5.8777 4.7366 -2.5092 0.9687
-6.3472 4.0791 -2.5080 0.9687
-6.4877 3.8493 -2.5076 0.9687
-6.7434 3.3755 -2.5067 0.9687
-6.8583 3.1321 -2.5062 0.9687
-6.9645 2.8848 -2.5058 0.9687
-7.0617 2.6339 -2.5053 0.9687
-7.2289 2.1226 -2.5044 0.9687
-7.2987 1.8629 -2.5039 0.9687
-7.4102 1.3369 -2.5029 0.9688
-7.5063 0.5369 -2.5015 0.9688
6.9838 0.4995 -2.5038 0.9707
6.9627 0.7486 -2.5043 0.9707
6.9328 0.9968 -2.5047 0.9707
6.8940 1.2438 -2.5051 0.9707
6.7900 1.7330 -2.5060 0.9707
6.7249 1.9746 -2.5064 0.9707
6.6512 2.2137 -2.5068 0.9707
6.3795 2.9134 -2.5080 0.9706
5.7651 4.0028 -2.5098 0.9706
5.6193 4.2066 -2.5102 0.9706
5.3063 4.5979 -2.5108 0.9706
5.1394 4.7849 -2.5111 0.9706
4.9659 4.9659 -2.5114 0.9706
4.7860 5.1406 -2.5117 0.9706
4.2104 5.6244 -2.5125 0.9706
3.7991 5.9115 -2.5129 0.9706
3.5860 6.0438 -2.5131 0.9706
3.1461 6.2851 -2.5135 0.9706
2.9200 6.3938 -2.5136 0.9706
2.4567 6.5865 -2.5139 0.9706
2.2201 6.6703 -2.5140 0.9706
1.7387 6.8122 -2.5142 0.9706
1.4945 6.8701 -2.5142 0.9706
1.2484 6.9191 -2.5143 0.9706
1.0006 6.9594 -2.5143 0.9706
0.7516 6.9907 -2.5143 0.9706
0.5016 7.0131 -2.5143 0.9706
0.0000 7.0308 -2.5143 0.9706
-1.0005 6.9585 -2.5140 0.9706
-1.2481 6.9180 -2.5139 0.9706
-1.9802 6.7438 -2.5134 0.9706
-2.4559 6.5844 -2.5131 0.9706
-2.6891 6.4920 -2.5129 0.9706
-2.9188 6.3914 -2.5127 0.9706
-3.3667 6.1657 -2.5122 0.9706
-3.7972 5.9086 -2.5117 0.9706
-4.0052 5.7686 -2.5114 0.9706
-4.5972 5.3055 -2.5105 0.9706
-4.7830 5.1373 -2.5101 0.9706
-5.3026 4.5947 -2.5091 0.9706
-6.2673 3.1372 -2.5063 0.9707
-6.4729 2.6812 -2.5055 0.9707
-6.5634 2.4480 -2.5051 0.9707
-6.7190 1.9729 -2.5042 0.9707
-6.8402 1.4880 -2.5033 0.9707
-6.8877 1.2427 -2.5029 0.9707
-6.9774 0.4990 -2.5015 0.9707
6.4970 0.6985 -2.5041 0.9724
6.4689 0.9301 -2.5045 0.9724
6.4327 1.1606 -2.5049 0.9724
6.3881 1.3897 -2.5053 0.9724
6.2747 1.8424 -2.5061 0.9724
6.2059 2.0655 -2.5065 0.9724
6.1291 2.2861 -2.5069 0.9724
6.0445 2.5037 -2.5072 0.9724
5.9522 2.7183 -2.5076 0.9724
5.7447 3.1369 -2.5083 0.9724
5.6299 3.3404 -2.5086 0.9723
5.3787 3.7345 -2.5093 0.9723
5.2426 3.9246 -2.5096 0.9723
4.9504 4.2896 -2.5102 0.9723
4.7947 4.4640 -2.5105 0.9723
4.6328 4.6328 -2.5108 0.9723
4.2914 4.9526 -2.5113 0.9723
3.3453 5.6382 -2.5124 0.9723
3.1421 5.7544 -2.5125 0.9723
2.9349 5.8633 -2.5127 0.9723
2.5095 6.0584 -2.5130 0.9723
1.8477 6.2927 -2.5133 0.9723
1.6220 6.3548 -2.5133 0.9723
1.3941 6.4088 -2.5134 0.9723
0.9334 6.4921 -2.5135 0.9723
0.4679 6.5422 -2.5135 0.9723
0.2341 6.5547 -2.5135 0.9723
-0.2341 6.5545 -2.5134 0.9723
-0.9333 6.4913 -2.5132 0.9723
-1.1644 6.4536 -2.5131 0.9723
-1.3939 6.4076 -2.5129 0.9723
-1.6216 6.3534 -2.5128 0.9723
-1.8472 6.2911 -2.5127 0.9723
-2.0705 6.2208 -2.5125 0.9723
-2.5086 6.0564 -2.5121 0.9723
-2.9338 5.8610 -2.5117 0.9723
-3.1408 5.7520 -2.5115 0.9723
-3.5425 5.5122 -2.5110 0.9723
-4.1101 5.1003 -2.5102 0.9723
-4.6300 4.6300 -2.5093 0.9723
-4.9472 4.2868 -2.5086 0.9723
-5.2390 3.9219 -2.5079 0.9724
-5.3749 3.7318 -2.5075 0.9724
-5.7404 3.1345 -2.5064 0.9724
-5.8477 2.9272 -2.5060 0.9724
-6.1242 2.2842 -2.5048 0.9724
-6.4634 0.9293 -2.5024 0.9724
-6.4914 0.6979 -2.5020 0.9724
-6.5111 0.4657 -2.5015 0.9724
6.1015 0.4364 -2.5036 0.9739
5.9809 1.3011 -2.5051 0.9739
5.9315 1.5139 -2.5055 0.9739
5.8101 1.9338 -2.5062 0.9739
5.7382 2.1402 -2.5065 0.9739
5.6589 2.3440 -2.5069 0.9739
5.4788 2.7425 -2.5076 0.9739
5.1562 3.3137 -2.5085 0.9739
4.6343 4.0156 -2.5097 0.9738
4.4885 4.1789 -2.5100 0.9738
4.0172 4.6361 -2.5107 0.9738
3.6769 4.9117 -2.5111 0.9738
3.4995 5.0402 -2.5113 0.9738
2.9413 5.3866 -2.5118 0.9738
2.7473 5.4884 -2.5120 0.9738
2.5498 5.5833 -2.5121 0.9738
2.1452 5.7515 -2.5124 0.9738
1.9386 5.8246 -2.5125 0.9738
1.7296 5.8903 -2.5125 0.9738
1.5183 5.9485 -2.5126 0.9738
1.3050 5.9990 -2.5127 0.9738
1.0901 6.0418 -2.5127 0.9738
0.2191 6.1355 -2.5127 0.9738
-0.2191 6.1354 -2.5127 0.9738
-0.4380 6.1235 -2.5126 0.9738
-0.6562 6.1038 -2.5125 0.9738
-1.0899 6.0410 -2.5123 0.9738
-1.5179 5.9473 -2.5121 0.9738
-1.9381 5.8232 -2.5118 0.9738
-2.1446 5.7499 -2.5116 0.9738
-2.3483 5.6693 -2.5115 0.9738
-3.1302 5.2756 -2.5106 0.9738
-3.3162 5.1601 -2.5104 0.9738
-3.4979 5.0379 -2.5102 0.9738
-3.6751 4.9094 -2.5099 0.9738
-3.8476 4.7746 -2.5096 0.9738
-4.1774 4.4869 -2.5091 0.9739
-4.3344 4.3344 -2.5088 0.9739
-4.4858 4.1765 -2.5085 0.9739
-4.6315 4.0132 -2.5082 0.9739
-5.0319 3.4937 -2.5072 0.9739
-5.1527 3.3115 -2.5068 0.9739
-5.4748 2.7405 -2.5058 0.9739
-5.6547 2.3423 -2.5050 0.9739
-5.7339 2.1386 -2.5046 0.9739
-5.9269 1.5128 -2.5035 0.9739
-5.9762 1.3000 -2.5031 0.9739
-6.0518 0.8701 -2.5023 0.9739
-6.1073 0.2181 -2.5012 0.9739
5.7426 0.0000 -2.5027 0.9753
5.7398 0.2050 -2.5031 0.9753
5.7122 0.6141 -2.5038 0.9752
5.6875 0.8177 -2.5042 0.9752
5.6554 1.0204 -2.5045 0.9752
5.6162 1.2217 -2.5049 0.9752
5.5163 1.6197 -2.5056 0.9752
5.3136 2.2010 -2.5066 0.9752
5.2324 2.3895 -2.5069 0.9752
5.0498 2.7574 -2.5075 0.9752
4.9488 2.9362 -2.5078 0.9752
4.4825 3.6123 -2.5089 0.9752
4.2143 3.9236 -2.5095 0.9752
4.0719 4.0719 -2.5097 0.9752
3.6143 4.4851 -2.5104 0.9752
3.4522 4.6116 -2.5105 0.9752
3.2856 4.7322 -2.5107 0.9752
3.1148 4.8468 -2.5109 0.9752
2.3939 5.2420 -2.5115 0.9752
2.2054 5.3243 -2.5116 0.9752
2.0140 5.3999 -2.5117 0.9752
1.8201 5.4685 -2.5118 0.9752
1.6238 5.5301 -2.5119 0.9752
1.4254 5.5847 -2.5119 0.9752
1.2252 5.6322 -2.5120 0.9752
0.8203 5.7054 -2.5121 0.9752
0.4112 5.7494 -2.5121 0.9752
0.0000 5.7640 -2.5120 0.9752
-0.2057 5.7602 -2.5120 0.9752
-0.6161 5.7306 -2.5119 0.9752
-0.8202 5.7047 -2.5118 0.9752
-1.0233 5.6716 -2.5117 0.9752
-1.2250 5.6312 -2.5116 0.9752
-1.4251 5.5837 -2.5115 0.9752
-2.0135 5.3984 -2.5110 0.9752
-2.2048 5.3228 -2.5109 0.9752
-2.3932 5.2403 -2.5107 0.9752
-2.5785 5.1512 -2.5105 0.9752
-3.1136 4.8448 -2.5099 0.9752
-3.4506 4.6095 -2.5094 0.9752
-3.7699 4.3507 -2.5089 0.9752
-4.3487 3.7682 -2.5078 0.9752
-4.6053 3.4475 -2.5072 0.9752
-4.8383 3.1094 -2.5065 0.9752
-5.0465 2.7556 -2.5059 0.9752
-5.2288 2.3879 -2.5052 0.9752
-5.3843 2.0082 -2.5045 0.9752
-5.5123 1.6185 -2.5038 0.9752
-5.5657 1.4206 -2.5034 0.9752
-5.6121 1.2208 -2.5030 0.9753
-5.6512 1.0196 -2.5027 0.9753
-5.6832 0.8171 -2.5023 0.9753
-5.7079 0.6137 -2.5019 0.9753
-5.7355 0.2048 -2.5012 0.9753
5.3944 0.3858 -2.5034 0.9764
5.3244 0.9606 -2.5044 0.9764
5.2874 1.1502 -2.5047 0.9764
5.2437 1.3384 -2.5050 0.9764
5.1932 1.5249 -2.5054 0.9764
5.0024 2.0720 -2.5063 0.9764
4.7539 2.5958 -2.5072 0.9764
4.6587 2.7642 -2.5075 0.9764
4.5576 2.9290 -2.5077 0.9764
4.4506 3.0901 -2.5080 0.9764
4.3380 3.2474 -2.5083 0.9764
4.0961 3.5492 -2.5088 0.9764
3.9671 3.6935 -2.5090 0.9764
3.8331 3.8331 -2.5092 0.9764
3.4023 4.2219 -2.5098 0.9764
3.0928 4.4545 -2.5102 0.9764
2.9321 4.5624 -2.5104 0.9764
2.5994 4.7605 -2.5107 0.9764
2.4280 4.8505 -2.5108 0.9764
2.2534 4.9343 -2.5109 0.9764
2.0760 5.0118 -2.5110 0.9764
0.9633 5.3394 -2.5114 0.9764
0.3871 5.4119 -2.5115 0.9764
0.1937 5.4222 -2.5115 0.9764
-0.3870 5.4116 -2.5113 0.9764
-0.5799 5.3942 -2.5113 0.9764
-0.7721 5.3699 -2.5112 0.9764
-0.9632 5.3387 -2.5111 0.9764
-1.3415 5.2560 -2.5109 0.9764
-1.5282 5.2045 -2.5108 0.9764
-1.7129 5.1463 -2.5106 0.9764
-1.8954 5.0816 -2.5105 0.9764
-2.4272 4.8490 -2.5100 0.9764
-2.5985 4.7589 -2.5098 0.9764
-2.7665 4.6627 -2.5096 0.9764
-3.0916 4.4527 -2.5092 0.9764
-3.6924 3.9659 -2.5082 0.9764
-3.8312 3.8312 -2.5080 0.9764
-3.9651 3.6916 -2.5077 0.9764
-4.3355 3.2455 -2.5068 0.9764
-4.4480 3.0883 -2.5065 0.9764
-4.5549 2.9272 -2.5062 0.9764
-4.7509 2.5942 -2.5056 0.9764
-4.8399 2.4227 -2.5053 0.9764
-4.9991 2.0707 -2.5046 0.9764
-5.0691 1.8907 -2.5043 0.9764
-5.2401 1.3374 -2.5033 0.9764
-5.3207 0.9600 -2.5026 0.9765
-5.3508 0.7693 -2.5023 0.9765
-5.3741 0.5778 -2.5019 0.9765
-5.3906 0.3855 -2.5016 0.9765
5.1020 0.0000 -2.5026 0.9775
5.0903 0.3641 -2.5033 0.9775
5.0747 0.5456 -2.5036 0.9775
5.0241 0.9065 -2.5042 0.9775
4.9479 1.2629 -2.5048 0.9775
4.9002 1.4388 -2.5052 0.9775
4.7862 1.7852 -2.5057 0.9775
4.7200 1.9551 -2.5060 0.9775
4.6478 2.1226 -2.5063 0.9775
4.4855 2.4493 -2.5069 0.9775
4.3002 2.7636 -2.5074 0.9775
3.0660 4.0956 -2.5096 0.9775
2.6111 4.4007 -2.5100 0.9775
2.4525 4.4914 -2.5102 0.9775
2.2907 4.5763 -2.5103 0.9775
1.9586 4.7284 -2.5105 0.9775
1.7886 4.7955 -2.5106 0.9775
1.6164 4.8564 -2.5107 0.9775
1.4421 4.9112 -2.5107 0.9775
1.2659 4.9596 -2.5108 0.9775
1.0881 5.0017 -2.5109 0.9775
0.9089 5.0375 -2.5109 0.9775
0.7285 5.0667 -2.5109 0.9775
0.3652 5.1058 -2.5109 0.9775
0.1827 5.1156 -2.5109 0.9775
-0.1827 5.1154 -2.5108 0.9775
-0.3652 5.1056 -2.5108 0.9775
-0.5471 5.0892 -2.5107 0.9775
-0.7284 5.0662 -2.5107 0.9775
-0.9087 5.0369 -2.5106 0.9775
-1.0879 5.0010 -2.5105 0.9775
-1.2657 4.9588 -2.5104 0.9775
-1.9581 4.7272 -2.5099 0.9775
-2.1254 4.6540 -2.5097 0.9775
-2.2900 4.5749 -2.5095 0.9775
-2.6102 4.3992 -2.5092 0.9775
-2.7653 4.3029 -2.5090 0.9775
-2.9169 4.2011 -2.5088 0.9775
-3.0647 4.0940 -2.5086 0.9775
-3.2086 3.9817 -2.5083 0.9775
-3.3484 3.8642 -2.5081 0.9775
-3.4838 3.7419 -2.5079 0.9775
-3.6148 3.6148 -2.5076 0.9775
-3.7412 3.4831 -2.5074 0.9775
-3.8627 3.3470 -2.5071 0.9775
-3.9793 3.2067 -2.5068 0.9775
-4.1970 2.9140 -2.5063 0.9775
-4.6449 2.1213 -2.5048 0.9775
-4.7171 1.9539 -2.5045 0.9775
-4.7832 1.7841 -2.5042 0.9775
-4.8971 1.4379 -2.5035 0.9775
-5.0493 0.7260 -2.5022 0.9775
-5.0713 0.5452 -2.5019 0.9775
-5.0869 0.3638 -2.5016 0.9775
4.8240 -0.0000 -2.5026 0.9785
4.8215 0.1722 -2.5029 0.9785
4.8129 0.3442 -2.5032 0.9785
4.7981 0.5158 -2.5035 0.9785
4.7502 0.8570 -2.5041 0.9785
4.7171 1.0261 -2.5044 0.9785
4.6781 1.1940 -2.5047 0.9785
4.6330 1.3604 -2.5050 0.9785
4.5820 1.5250 -2.5053 0.9785
4.5252 1.6878 -2.5055 0.9785
4.4625 1.8484 -2.5058 0.9785
4.3202 2.1625 -2.5063 0.9785
4.2407 2.3156 -2.5066 0.9785
4.1558 2.4657 -2.5069 0.9785
3.9701 2.7565 -2.5073 0.9785
3.8695 2.8967 -2.5076 0.9785
3.7640 3.0332 -2.5078 0.9785
3.6536 3.1659 -2.5080 0.9785
3.4190 3.4190 -2.5084 0.9784
3.1669 3.6548 -2.5088 0.9784
3.0346 3.7657 -2.5090 0.9784
2.4684 4.1603 -2.5096 0.9784
2.3185 4.2460 -2.5097 0.9784
2.1656 4.3262 -2.5098 0.9784
1.8516 4.4700 -2.5100 0.9784
1.6909 4.5334 -2.5101 0.9784
1.5280 4.5910 -2.5102 0.9784
1.3632 4.6428 -2.5103 0.9784
1.0286 4.7284 -2.5104 0.9784
0.0000 4.8390 -2.5104 0.9784
-0.1727 4.8359 -2.5104 0.9784
-0.3452 4.8265 -2.5103 0.9784
-0.6886 4.7894 -2.5102 0.9784
-1.0285 4.7277 -2.5100 0.9784
-1.1965 4.6878 -2.5099 0.9784
-1.3630 4.6419 -2.5098 0.9784
-1.5277 4.5901 -2.5097 0.9784
-1.8511 4.4690 -2.5094 0.9784
-2.3178 4.2447 -2.5089 0.9784
-2.4676 4.1590 -2.5088 0.9784
-2.7576 3.9717 -2.5084 0.9784
-3.1656 3.6533 -2.5078 0.9785
-3.4175 3.4175 -2.5073 0.9785
-3.6519 3.1644 -2.5068 0.9785
-4.2383 2.3143 -2.5052 0.9785
-4.3178 2.1613 -2.5049 0.9785
-4.4599 1.8473 -2.5043 0.9785
-4.5225 1.6868 -2.5040 0.9785
-4.5792 1.5241 -2.5037 0.9785
-4.6752 1.1933 -2.5031 0.9785
-4.7951 0.5155 -2.5019 0.9785
4.5668 0.1631 -2.5028 0.9794
4.5586 0.3260 -2.5031 0.9794
4.4991 0.8117 -2.5040 0.9794
4.4307 1.1309 -2.5045 0.9794
4.3397 1.4444 -2.5051 0.9794
4.1617 1.9006 -2.5058 0.9794
4.0917 2.0481 -2.5061 0.9793
3.9359 2.3353 -2.5066 0.9793
3.8504 2.4745 -2.5068 0.9793
3.7600 2.6106 -2.5070 0.9793
3.4602 2.9983 -2.5077 0.9793
3.3513 3.1202 -2.5079 0.9793
3.2380 3.2380 -2.5081 0.9793
3.1206 3.3518 -2.5083 0.9793
2.9992 3.4613 -2.5084 0.9793
2.8739 3.5663 -2.5086 0.9793
2.7450 3.6669 -2.5088 0.9793
2.4767 3.8538 -2.5090 0.9793
2.3377 3.9399 -2.5092 0.9793
2.1957 4.0211 -2.5093 0.9793
1.7535 4.2332 -2.5096 0.9793
1.6013 4.2933 -2.5097 0.9793
1.2910 4.3968 -2.5098 0.9793
1.1333 4.4402 -2.5099 0.9793
0.9741 4.4779 -2.5099 0.9793
0.8137 4.5098 -2.5099 0.9793
0.4899 4.5564 -2.5100 0.9793
-0.3269 4.5708 -2.5099 0.9793
-0.4898 4.5562 -2.5098 0.9793
-0.8136 4.5094 -2.5097 0.9793
-1.4468 4.3470 -2.5093 0.9793
-1.6010 4.2924 -2.5092 0.9793
-1.9029 4.1668 -2.5089 0.9793
-2.0503 4.0959 -2.5087 0.9793
-2.4759 3.8525 -2.5082 0.9793
-2.6116 3.7614 -2.5080 0.9793
-2.8729 3.5650 -2.5076 0.9793
-3.1193 3.3504 -2.5072 0.9793
-3.3498 3.1188 -2.5068 0.9793
-3.4587 2.9969 -2.5065 0.9793
-3.5631 2.8713 -2.5063 0.9793
-3.6629 2.7420 -2.5061 0.9793
-3.7581 2.6093 -2.5058 0.9794
-4.0142 2.1919 -2.5050 0.9794
-4.0895 2.0470 -2.5048 0.9794
-4.2242 1.7497 -2.5042 0.9794
-4.2834 1.5976 -2.5039 0.9794
-4.4282 1.1302 -2.5031 0.9794
-4.4652 0.9713 -2.5028 0.9794
-4.5220 0.6502 -2.5022 0.9794
-4.5640 0.1630 -2.5013 0.9794
4.3322 0.1547 -2.5028 0.9802
4.3244 0.3093 -2.5030 0.9802
4.2922 0.6171 -2.5036 0.9802
4.2382 0.9219 -2.5041 0.9802
4.2030 1.0727 -2.5044 0.9802
4.1166 1.3701 -2.5049 0.9802
3.9477 1.8029 -2.5056 0.9802
3.8812 1.9428 -2.5059 0.9802
3.8098 2.0803 -2.5061 0.9802
3.6523 2.3472 -2.5066 0.9801
3.5665 2.4763 -2.5068 0.9801
3.4761 2.6022 -2.5070 0.9801
3.3813 2.7248 -2.5072 0.9801
3.2822 2.8440 -2.5074 0.9801
3.1788 2.9596 -2.5076 0.9801
2.9600 3.1792 -2.5079 0.9801
2.8448 3.2831 -2.5081 0.9801
2.7260 3.3827 -2.5082 0.9801
2.4780 3.5690 -2.5085 0.9801
2.3492 3.6554 -2.5087 0.9801
2.2173 3.7371 -2.5088 0.9801
1.8054 3.9532 -2.5091 0.9801
1.6632 4.0152 -2.5092 0.9801
1.0749 4.2115 -2.5094 0.9801
0.9239 4.2472 -2.5095 0.9801
0.7718 4.2775 -2.5095 0.9801
0.4646 4.3218 -2.5095 0.9801
0.1551 4.3439 -2.5095 0.9801
0.0000 4.3466 -2.5095 0.9801
-0.1551 4.3438 -2.5095 0.9801
-0.3101 4.3354 -2.5094 0.9801
-0.4646 4.3215 -2.5094 0.9801
-0.6185 4.3020 -2.5093 0.9801
-0.7717 4.2771 -2.5093 0.9801
-0.9238 4.2467 -2.5092 0.9801
-1.0748 4.2109 -2.5091 0.9801
-1.3723 4.1231 -2.5089 0.9801
-1.5185 4.0713 -2.5088 0.9801
-1.6628 4.0144 -2.5086 0.9801
-1.8049 3.9522 -2.5085 0.9801
-1.9447 3.8851 -2.5084 0.9801
-2.0820 3.8130 -2.5082 0.9801
-2.2167 3.7360 -2.5081 0.9801
-2.3484 3.6542 -2.5079 0.9801
-2.4772 3.5678 -2.5077 0.9801
-2.8437 3.2819 -2.5072 0.9801
-3.0701 3.0701 -2.5067 0.9801
-3.1775 2.9583 -2.5065 0.9801
-3.2807 2.8428 -2.5063 0.9801
-3.4745 2.6010 -2.5058 0.9802
-3.5648 2.4751 -2.5056 0.9802
-3.6505 2.3461 -2.5054 0.9802
-3.8078 2.0792 -2.5049 0.9802
-3.8792 1.9418 -2.5046 0.9802
-4.1602 1.2215 -2.5033 0.9802
-4.2007 1.0722 -2.5030 0.9802
-4.2358 0.9214 -2.5027 0.9802
-4.2898 0.6168 -2.5022 0.9802
-4.3297 0.1546 -2.5014 0.9802
