ply
format ascii 1.0
element vertex 1202
property float32 x
property float32 y
property float32 z
property float32 I
end_header
-33.9293 -27.3420 7.6834 0.8378
-32.1099 -27.8234 7.4917 0.8415
-24.0499 -27.7551 6.4756 0.8614
-22.4213 -27.8232 6.3007 0.8649
-19.4055 -27.9493 5.9996 0.8709
-17.9958 -28.0020 5.8692 0.8735
-14.0983 -28.1649 5.5537 0.8799
-11.7622 -28.3965 5.4196 0.8826
-4.7238 -12.6649 2.3835 0.9466
-8.1720 -32.0174 5.8265 0.8744
32.2795 -32.2795 8.0493 0.8308
37.9836 -30.6091 8.6016 0.8203
35.4306 -14.6758 6.7621 0.8558
-39.6220 -27.5101 7.3895 0.8227
-36.3884 -27.2399 6.9634 0.8320
-33.9302 -27.3427 6.6756 0.8383
-27.6070 -27.6070 5.9811 0.8539
-25.7744 -27.6836 5.7945 0.8581
-20.0819 -28.9235 5.3942 0.8672
-17.9962 -28.0026 5.0993 0.8740
-4.7245 -12.6670 2.0711 0.9468
-11.0459 -33.1875 5.3583 0.8680
-9.1944 -36.0234 5.6955 0.8603
-7.0810 -32.5507 5.1032 0.8739
-6.9176 -48.1132 7.4465 0.8214
32.0815 -37.0240 7.5049 0.8202
32.1841 -34.5681 7.2355 0.8260
35.1915 -30.4936 7.1335 0.8283
32.7075 -9.6038 5.2221 0.8711
-36.5015 -10.7178 4.9539 0.8577
-30.2784 -26.2364 5.2172 0.8508
-29.5648 -27.5259 5.2603 0.8496
-25.7749 -27.6843 4.9257 0.8585
-25.2892 -29.1854 5.0289 0.8558
-21.4135 -28.6051 4.6531 0.8658
-22.7065 -32.7035 5.1845 0.8516
-17.9965 -28.0031 4.3347 0.8744
-19.5636 -32.9728 4.9926 0.8567
-17.9679 -32.9058 4.8822 0.8596
-14.0988 -28.1659 4.1016 0.8807
-11.0498 -33.1993 4.5564 0.8684
-11.5673 -39.3947 5.3466 0.8474
-6.5148 -36.1090 4.7780 0.8624
-3.4853 -48.7307 6.3620 0.8211
3.5062 -49.0225 6.4001 0.8202
32.0819 -37.0245 6.3796 0.8207
14.6196 -13.6113 2.6012 0.9226
35.3047 -14.6237 4.9762 0.8571
-36.4964 -10.7163 4.0845 0.8581
-41.1618 -24.4224 5.1395 0.8249
-38.0587 -26.4247 4.9753 0.8299
-33.9316 -27.3439 4.6795 0.8392
-29.5655 -27.5265 4.3378 0.8500
-25.7755 -27.6849 4.0618 0.8588
-22.7156 -32.7167 4.2769 0.8519
-19.5712 -32.9855 4.1186 0.8570
-17.9747 -32.9183 4.0275 0.8599
-14.0991 -28.1664 3.3823 0.8810
-4.7260 -12.6710 1.4522 0.9470
-11.0537 -33.2111 3.7586 0.8687
-11.5897 -39.4710 4.4174 0.8475
-3.5192 -49.2046 5.2972 0.8200
0.7139 -19.9892 2.1478 0.9227
7.0699 -49.1719 5.3345 0.8189
32.0824 -37.0250 5.2608 0.8211
32.2805 -32.2805 4.9021 0.8322
14.6220 -13.6135 2.1453 0.9228
35.1934 -30.4952 5.0005 0.8292
37.9867 -30.6116 5.2387 0.8218
-33.9325 -27.3445 3.6891 0.8395
-29.5662 -27.5271 3.4197 0.8503
-25.7760 -27.6855 3.2022 0.8591
-22.4232 -27.8255 3.0251 0.8664
-21.4128 -28.6041 3.0247 0.8664
-22.7247 -32.7299 3.3730 0.8522
-19.5787 -32.9982 3.2481 0.8572
-14.0993 -28.1669 2.6664 0.8812
-9.2942 -20.3514 1.8940 0.9141
-11.0449 -33.1845 2.9607 0.8690
-11.5899 -39.4717 3.4824 0.8478
-11.8962 -46.6087 4.0720 0.8244
-7.0812 -32.5520 2.8201 0.8748
-6.5150 -36.1102 3.1062 0.8630
-3.5192 -49.2054 4.1760 0.8203
0.0000 -49.3140 4.1746 0.8204
3.5376 -49.4616 4.1978 0.8195
7.0700 -49.1727 4.2054 0.8192
32.1854 -34.5695 3.9984 0.8273
35.1943 -30.4960 3.9422 0.8295
-36.4666 -10.7076 2.3568 0.8587
-29.2155 -18.7757 2.1535 0.8701
-40.3341 -28.0045 3.0449 0.8214
-36.7014 -27.4743 2.8429 0.8322
-25.2881 -29.1840 2.3946 0.8566
-22.4236 -27.8260 2.2160 0.8666
-17.9975 -28.0047 2.0643 0.8751
-19.5031 -32.8708 2.3701 0.8580
-17.9834 -32.9342 2.3269 0.8604
-9.2978 -20.3593 1.3879 0.9142
-11.7062 -45.8644 2.9352 0.8272
-7.0813 -32.5524 2.0658 0.8750
-5.3044 -49.3382 3.0771 0.8197
-0.0000 -48.8786 3.0310 0.8221
1.5252 -21.3255 1.3258 0.9179
7.0701 -49.1736 3.0806 0.8195
10.6600 -21.2960 1.4768 0.9090
31.8470 -36.7534 3.0157 0.8229
14.6268 -13.6180 1.2393 0.9230
37.6648 -30.3522 2.9996 0.8238
35.1174 -14.5461 2.3570 0.8587
-36.4629 -10.7065 1.4985 0.8589
-40.3337 -28.0042 1.9361 0.8216
-36.7009 -27.4739 1.8077 0.8323
-33.9341 -27.3459 1.7184 0.8399
-32.6424 -28.2848 1.7031 0.8412
-32.3357 -32.3357 1.8032 0.8327
-25.7772 -27.6866 1.4916 0.8595
-21.4121 -28.6031 1.4089 0.8667
-19.5035 -32.8714 1.5071 0.8581
-15.0724 -33.0040 1.4309 0.8648
-4.7283 -12.6770 0.5335 0.9473
-11.3043 -38.4991 1.5821 0.8516
-7.0814 -32.5528 1.3136 0.8752
-6.5152 -36.1114 1.4469 0.8634
1.1160 -31.2484 1.2329 0.8823
10.6602 -21.2964 0.9392 0.9091
24.2386 -40.8519 1.8730 0.8268
32.0837 -37.0265 1.9318 0.8219
32.1862 -34.5704 1.8625 0.8277
20.6820 -20.6820 1.1533 0.8895
14.6291 -13.6202 0.7881 0.9231
35.1962 -30.4976 1.8364 0.8299
35.0827 -14.5317 1.4973 0.8590
-42.0266 -27.0089 0.8439 0.8188
-40.3332 -28.0038 0.8294 0.8217
-33.5983 -25.1514 0.7089 0.8454
-32.6420 -28.2844 0.7296 0.8413
-29.5682 -27.5290 0.6824 0.8508
-21.4117 -28.6027 0.6036 0.8668
-17.9982 -28.0057 0.5623 0.8753
-19.0928 -32.1792 0.6320 0.8610
-14.1001 -28.1684 0.5321 0.8816
-13.7003 -33.0754 0.6047 0.8666
-10.9421 -32.8757 0.5853 0.8706
-11.3045 -38.4997 0.6778 0.8517
-7.6706 -30.0533 0.5239 0.8833
-6.9138 -48.0863 0.8206 0.8234
32.0841 -37.0270 0.8276 0.8220
32.2821 -32.2822 0.7712 0.8331
14.6315 -13.6224 0.3377 0.9231
35.1971 -30.4984 0.7867 0.8300
37.9909 -30.6150 0.8242 0.8227
26.0601 -15.4622 0.5118 0.8858
24.1079 -13.1639 0.4640 0.8959
-36.7000 -27.4733 -0.2581 0.8325
-32.6416 -28.2841 -0.2432 0.8413
-29.5689 -27.5296 -0.2275 0.8508
-32.3718 -32.3718 -0.2577 0.8327
-25.2869 -29.1827 -0.2174 0.8569
-22.4250 -27.8277 -0.2012 0.8668
-22.7304 -32.7380 -0.2244 0.8526
-17.9824 -27.9813 -0.1873 0.8754
-19.1246 -32.2328 -0.2110 0.8608
-17.9844 -32.9360 -0.2113 0.8606
-15.0601 -32.9770 -0.2041 0.8650
-4.7298 -12.6810 -0.0762 0.9473
-4.4226 -13.2877 -0.0788 0.9455
-11.3047 -38.5003 -0.2259 0.8517
-7.6272 -29.8832 -0.1736 0.8839
-7.0816 -32.5536 -0.1876 0.8752
-6.5154 -36.1126 -0.2066 0.8635
-6.9131 -48.0819 -0.2735 0.8234
7.0705 -49.1760 -0.2797 0.8198
12.8398 -30.9980 -0.1889 0.8744
10.6606 -21.2972 -0.1342 0.9091
32.0846 -37.0276 -0.2758 0.8220
32.1871 -34.5713 -0.2659 0.8278
32.2826 -32.2826 -0.2570 0.8331
35.1980 -30.4992 -0.2622 0.8300
-44.9794 -11.4803 -1.3071 0.8305
-42.0290 -27.0104 -1.4068 0.8188
-40.3322 -28.0032 -1.3826 0.8216
-33.9366 -27.3479 -1.2272 0.8400
-32.6411 -28.2837 -1.2161 0.8413
-25.7788 -27.6884 -1.0652 0.8595
-21.4110 -28.6017 -1.0060 0.8668
-17.9989 -28.0068 -0.9374 0.8753
-13.7312 -33.1500 -1.0103 0.8662
-4.7305 -12.6829 -0.3812 0.9473
-11.3049 -38.5010 -1.1299 0.8517
-7.0817 -32.5540 -0.9381 0.8752
-6.9125 -48.0772 -1.3677 0.8234
7.0706 -49.1768 -1.3989 0.8197
12.8400 -30.9985 -0.9448 0.8744
32.0850 -37.0280 -1.3796 0.8220
32.1875 -34.5718 -1.3301 0.8278
32.2830 -32.2830 -1.2856 0.8330
14.6363 -13.6268 -0.5631 0.9231
37.9930 -30.6167 -1.3739 0.8226
24.8568 -13.5728 -0.7975 0.8929
-49.6549 -1.7734 -2.5198 0.8195
-49.3486 -5.3056 -2.5171 0.8197
-49.1006 -7.0596 -2.5157 0.8198
-48.7902 -8.8027 -2.5143 0.8199
-43.6430 -11.1392 -2.2843 0.8349
-36.3543 -10.6746 -1.9215 0.8592
-29.2270 -12.1062 -1.6043 0.8810
-40.3286 -23.9281 -2.3781 0.8288
-39.5160 -25.3954 -2.3822 0.8285
-38.6481 -26.8339 -2.3861 0.8282
-36.6991 -27.4726 -2.3249 0.8323
-33.9375 -27.3486 -2.2104 0.8398
-29.5702 -27.5309 -2.0490 0.8506
-32.3014 -32.3014 -2.3167 0.8328
-22.4259 -27.8289 -1.8125 0.8666
-22.7051 -32.7016 -2.0190 0.8526
-17.9992 -28.0073 -1.6884 0.8752
-19.1248 -32.2332 -1.9008 0.8606
-14.1008 -28.1699 -1.5976 0.8815
-13.7314 -33.1506 -1.8197 0.8661
-4.7312 -12.6849 -0.6866 0.9472
-6.8234 -47.4577 -2.4315 0.8253
-5.1245 -47.6652 -2.4312 0.8253
-0.0000 -47.8994 -2.4292 0.8254
1.7089 -47.8472 -2.4281 0.8255
3.4138 -47.7316 -2.4269 0.8256
5.1122 -47.5507 -2.4254 0.8257
6.8015 -47.3056 -2.4237 0.8258
5.4417 -30.1612 -1.5543 0.8845
8.0108 -36.8250 -1.9112 0.8599
7.8938 -30.9277 -1.6188 0.8800
9.4430 -28.3718 -1.5165 0.8871
12.3847 -27.1186 -1.5119 0.8874
31.8624 -34.2226 -2.3713 0.8292
14.6386 -13.6291 -1.0143 0.9230
35.1448 -30.4532 -2.3584 0.8301
37.9775 -26.3683 -2.3447 0.8310
27.6436 -17.7655 -1.6665 0.8767
26.0146 -15.4352 -1.5341 0.8859
41.0091 -20.5277 -2.3258 0.8322
34.2844 -14.2010 -1.8820 0.8619
43.4498 -14.4615 -2.3224 0.8324
43.9562 -12.9068 -2.3233 0.8324
47.7056 -10.3777 -2.4759 0.8224
48.0672 -8.6723 -2.4770 0.8223
-34.0691 -3.6628 -2.5124 0.8716
-33.6952 -6.0793 -2.5105 0.8717
-33.4437 -7.2752 -2.5095 0.8717
-33.1497 -8.4610 -2.5085 0.8718
-32.7789 -9.6248 -2.5049 0.8720
-30.4626 -10.1389 -2.3541 0.8792
-29.8495 -11.1333 -2.3359 0.8801
-28.3004 -12.9244 -2.2812 0.8827
-28.1216 -15.3556 -2.3493 0.8794
-27.5478 -16.3449 -2.3486 0.8794
-14.0754 -11.3427 -1.3254 0.9301
-23.5934 -21.9662 -2.3636 0.8787
-21.1653 -24.4261 -2.3698 0.8784
-20.2959 -25.1857 -2.3717 0.8783
-19.3983 -25.9131 -2.3734 0.8782
-18.4734 -26.6068 -2.3750 0.8782
-6.7326 -11.3472 -0.9674 0.9485
-5.9267 -11.8400 -0.9708 0.9483
-4.7320 -12.6869 -0.9928 0.9471
-4.3844 -13.1730 -1.0180 0.9458
-9.1603 -31.1972 -2.3840 0.8777
-7.6232 -29.8674 -2.2602 0.8837
-3.4762 -32.3332 -2.3844 0.8777
-2.3196 -32.4328 -2.3841 0.8777
-1.1604 -32.4893 -2.3837 0.8778
4.6187 -32.1240 -2.3796 0.8779
5.4423 -30.1648 -2.2475 0.8843
6.8913 -31.6787 -2.3771 0.8781
7.8940 -30.9285 -2.3404 0.8798
9.4432 -28.3724 -2.1925 0.8870
10.3281 -27.6907 -2.1670 0.8882
12.3849 -27.1191 -2.1860 0.8873
10.6612 -21.2984 -1.7463 0.9089
15.1329 -27.7138 -2.3152 0.8810
17.3862 -27.0535 -2.3579 0.8790
18.3215 -26.3879 -2.3555 0.8791
20.1126 -24.9582 -2.3502 0.8794
15.0446 -17.3623 -1.6845 0.9120
21.7905 -23.4047 -2.3447 0.8796
22.5844 -22.5844 -2.3418 0.8798
25.4368 -19.0418 -2.3298 0.8803
26.0651 -18.0973 -2.3266 0.8805
28.8924 -13.1947 -2.3289 0.8804
29.3660 -12.1638 -2.3306 0.8803
31.6646 -11.8103 -2.4779 0.8732
32.4849 -9.5385 -2.4824 0.8730
32.8143 -8.3754 -2.4832 0.8730
33.1024 -7.2010 -2.4839 0.8730
33.3487 -6.0168 -2.4847 0.8729
33.5530 -4.8242 -2.4855 0.8729
33.8344 -2.4199 -2.4871 0.8728
33.9109 -1.2111 -2.4880 0.8728
-26.1421 -0.9337 -2.5114 0.9002
-26.0847 -1.8656 -2.5107 0.9002
-25.9941 -2.7947 -2.5099 0.9003
-25.7134 -4.6392 -2.5085 0.9003
-25.0477 -7.3547 -2.5062 0.9004
-24.7616 -8.2415 -2.5055 0.9004
-24.4442 -9.1172 -2.5047 0.9005
-21.8901 -10.9574 -2.3501 0.9063
-21.4784 -11.7281 -2.3494 0.9063
-20.5743 -13.2223 -2.3480 0.9064
-14.8854 -11.1430 -1.7851 0.9280
-16.0249 -18.4937 -2.3493 0.9063
-15.3637 -19.0652 -2.3507 0.9063
-13.2583 -20.6303 -2.3543 0.9062
-5.9277 -11.8422 -1.2714 0.9482
-4.3718 -13.1351 -1.3290 0.9459
-6.0800 -23.8212 -2.3603 0.9059
-3.5670 -16.3970 -1.6110 0.9348
-3.0038 -16.6488 -1.6242 0.9343
-3.4991 -24.3367 -2.3605 0.9059
-0.8773 -24.5647 -2.3598 0.9059
0.0000 -24.5762 -2.3594 0.9060
0.7446 -20.8480 -2.0028 0.9196
1.7524 -24.5017 -2.3583 0.9060
5.2141 -23.9690 -2.3550 0.9061
6.0636 -23.7570 -2.3539 0.9062
6.9042 -23.5136 -2.3527 0.9062
7.7350 -23.2401 -2.3515 0.9063
4.5872 -12.2987 -1.2602 0.9486
10.1570 -22.2408 -2.3474 0.9064
9.2488 -16.9380 -1.8528 0.9254
12.4503 -20.9839 -2.3425 0.9066
13.8940 -20.0111 -2.3388 0.9067
15.2607 -18.9374 -2.3349 0.9069
15.3086 -17.6671 -2.2443 0.9103
13.8806 -13.8806 -1.8846 0.9241
13.9125 -12.9530 -1.8249 0.9265
19.9516 -13.8527 -2.3319 0.9070
20.4363 -13.1336 -2.3322 0.9070
20.8953 -12.3978 -2.3326 0.9070
23.9181 -9.9072 -2.4855 0.9012
24.2614 -9.0490 -2.4860 0.9012
24.8557 -7.2983 -2.4870 0.9011
25.1060 -6.4079 -2.4876 0.9011
25.5112 -4.6027 -2.4887 0.9011
25.6656 -3.6902 -2.4894 0.9010
25.7874 -2.7724 -2.4900 0.9010
25.9331 -0.9262 -2.4913 0.9010
-20.7717 -3.7476 -2.5072 0.9185
-20.6198 -4.4856 -2.5066 0.9185
-20.2373 -5.9422 -2.5054 0.9185
-20.0075 -6.6591 -2.5048 0.9186
-18.8374 -9.4293 -2.5023 0.9186
-17.5427 -10.4086 -2.4230 0.9211
-16.6310 -10.6881 -2.3483 0.9235
-14.8855 -11.1431 -2.2087 0.9278
-13.8820 -11.1868 -2.1178 0.9307
-14.9259 -12.9334 -2.3460 0.9235
-14.4513 -13.4546 -2.3454 0.9235
-13.4482 -14.4444 -2.3443 0.9236
-12.9211 -14.9117 -2.3438 0.9236
-12.3778 -15.3599 -2.3432 0.9236
-11.2454 -16.1965 -2.3422 0.9236
-10.6578 -16.5839 -2.3417 0.9237
-6.7360 -11.3528 -1.5681 0.9482
-8.1964 -17.9476 -2.3437 0.9236
-7.5523 -18.2329 -2.3443 0.9236
-4.7335 -12.6909 -1.6090 0.9469
-4.2140 -14.3519 -1.7768 0.9415
-4.8834 -19.1331 -2.3456 0.9235
-2.8104 -19.5470 -2.3458 0.9235
-1.4086 -19.6956 -2.3455 0.9235
0.7045 -19.7251 -2.3446 0.9236
2.1089 -19.6158 -2.3435 0.9236
3.0312 -16.8009 -2.0279 0.9335
4.1899 -19.2607 -2.3414 0.9237
4.8729 -19.0919 -2.3406 0.9237
6.2175 -18.6805 -2.3387 0.9238
8.1670 -17.8833 -2.3353 0.9239
9.4144 -17.2412 -2.3334 0.9239
10.0239 -16.8943 -2.3335 0.9239
11.7733 -15.7273 -2.3336 0.9239
12.8665 -14.8488 -2.3339 0.9239
13.3891 -14.3809 -2.3340 0.9239
13.7740 -13.7740 -2.3139 0.9245
15.3045 -12.3332 -2.3348 0.9239
17.5804 -11.2983 -2.4824 0.9193
18.3795 -10.0359 -2.4875 0.9191
19.3556 -8.0174 -2.4886 0.9191
20.1119 -5.9054 -2.4899 0.9190
20.4895 -4.4572 -2.4908 0.9190
20.6395 -3.7238 -2.4913 0.9190
20.8610 -2.2428 -2.4923 0.9190
20.9322 -1.4971 -2.4928 0.9189
-17.6918 -0.6319 -2.5083 0.9310
-17.5948 -1.8917 -2.5074 0.9310
-17.5127 -2.5180 -2.5069 0.9310
-16.9623 -4.9806 -2.5048 0.9311
-16.5570 -6.1754 -2.5038 0.9311
-16.3226 -6.7610 -2.5033 0.9311
-15.7921 -7.9050 -2.5022 0.9311
-15.1815 -9.0076 -2.5012 0.9312
-14.0355 -10.5068 -2.4842 0.9316
-13.0976 -10.5547 -2.3834 0.9343
-11.7062 -11.7061 -2.3457 0.9353
-10.3816 -12.8829 -2.3443 0.9353
-7.3330 -11.4104 -1.9218 0.9467
-6.7361 -11.3531 -1.8704 0.9481
-6.2112 -11.3749 -1.8363 0.9490
-5.9275 -11.8416 -1.8763 0.9479
-4.9914 -12.0503 -1.8481 0.9487
-4.5061 -12.0813 -1.8270 0.9492
-3.5572 -12.1148 -1.7890 0.9503
-3.5094 -16.1324 -2.3392 0.9355
-2.9310 -16.2452 -2.3389 0.9355
-1.1772 -16.4596 -2.3381 0.9355
-0.5889 -16.4893 -2.3379 0.9355
0.0000 -16.4982 -2.3376 0.9355
1.1768 -16.4532 -2.3372 0.9355
1.7631 -16.3994 -2.3370 0.9355
2.9281 -16.2296 -2.3367 0.9355
3.5054 -16.1138 -2.3366 0.9355
4.6455 -15.8212 -2.3363 0.9356
4.5876 -12.2999 -1.8600 0.9483
5.0822 -12.2695 -1.8817 0.9478
7.3800 -14.7433 -2.3361 0.9356
7.9015 -14.4705 -2.3361 0.9356
8.9139 -13.8703 -2.3361 0.9356
9.8812 -13.1997 -2.3362 0.9356
10.3464 -12.8391 -2.3363 0.9356
13.0767 -11.3310 -2.4516 0.9325
13.6650 -11.0120 -2.4866 0.9316
14.0616 -10.5264 -2.4888 0.9315
15.7156 -7.8667 -2.4901 0.9315
15.9883 -7.3016 -2.4904 0.9315
16.2409 -6.7272 -2.4908 0.9314
16.4729 -6.1441 -2.4911 0.9314
17.0428 -4.3499 -2.4922 0.9314
17.4186 -2.5044 -2.4934 0.9314
17.5590 -1.2558 -2.4943 0.9314
17.5958 -0.6284 -2.4947 0.9313
-15.2231 0.0000 -2.5078 0.9402
-15.0582 -2.1650 -2.5062 0.9402
-14.9688 -2.7006 -2.5058 0.9402
-14.5867 -4.2831 -2.5044 0.9402
-14.4219 -4.8001 -2.5040 0.9402
-13.8188 -6.3108 -2.5027 0.9403
-13.5823 -6.7988 -2.5022 0.9403
-13.3286 -7.2779 -2.5018 0.9403
-12.7708 -8.2073 -2.5009 0.9403
-12.4675 -8.6563 -2.5004 0.9403
-11.8140 -9.5203 -2.4995 0.9403
-11.0877 -10.3230 -2.4957 0.9404
-9.3234 -10.7599 -2.3454 0.9439
-8.9320 -11.0839 -2.3451 0.9439
-6.7362 -11.3533 -2.1748 0.9479
-6.2113 -11.3752 -2.1351 0.9488
-5.9273 -11.8413 -2.1815 0.9477
-4.9915 -12.0505 -2.1487 0.9485
-3.5143 -13.7689 -2.3410 0.9440
-3.0203 -13.8839 -2.3407 0.9440
-2.0216 -14.0609 -2.3402 0.9440
-1.5183 -14.1226 -2.3400 0.9440
-0.5069 -14.1923 -2.3395 0.9441
0.0000 -14.2001 -2.3393 0.9441
0.5068 -14.1899 -2.3391 0.9441
1.5176 -14.1156 -2.3388 0.9441
2.5204 -13.9697 -2.3385 0.9441
3.0173 -13.8701 -2.3384 0.9441
3.9987 -13.6184 -2.3382 0.9441
6.3526 -12.6908 -2.3380 0.9441
9.7399 -11.2404 -2.4502 0.9415
10.2818 -11.0434 -2.4857 0.9407
12.1031 -9.0603 -2.4906 0.9406
12.4198 -8.6232 -2.4908 0.9405
13.0056 -7.7166 -2.4913 0.9405
13.2740 -7.2482 -2.4915 0.9405
14.1767 -5.2876 -2.4926 0.9405
14.3581 -4.7789 -2.4929 0.9405
14.7925 -3.2179 -2.4939 0.9405
15.1400 -0.5407 -2.4957 0.9404
-13.3007 -0.9513 -2.5064 0.9472
-13.2564 -1.4252 -2.5060 0.9472
-13.1170 -2.3666 -2.5053 0.9472
-12.9108 -3.2953 -2.5045 0.9472
-12.3028 -5.0960 -2.5030 0.9472
-12.1111 -5.5310 -2.5026 0.9473
-11.6820 -6.3789 -2.5018 0.9473
-11.4451 -6.7907 -2.5014 0.9473
-11.1937 -7.1937 -2.5010 0.9473
-10.6486 -7.9714 -2.5002 0.9473
-10.3557 -8.3452 -2.4998 0.9473
-10.0497 -8.7081 -2.4994 0.9473
-9.0571 -9.7281 -2.4983 0.9473
-8.7029 -10.0437 -2.4979 0.9473
-7.9423 -10.6097 -2.4911 0.9475
-6.3899 -10.7696 -2.3538 0.9503
-4.3559 -11.6787 -2.3429 0.9505
-3.9359 -11.8254 -2.3426 0.9505
-3.5109 -11.9570 -2.3423 0.9505
-3.0815 -12.0733 -2.3421 0.9506
-2.6484 -12.1744 -2.3418 0.9506
-2.2119 -12.2600 -2.3416 0.9506
-1.7728 -12.3299 -2.3414 0.9506
-0.4445 -12.4456 -2.3408 0.9506
0.4444 -12.4438 -2.3404 0.9506
0.8882 -12.4192 -2.3403 0.9506
1.7718 -12.3228 -2.3400 0.9506
2.2103 -12.2511 -2.3399 0.9506
5.1704 -11.3217 -2.3394 0.9506
6.6207 -11.1586 -2.4388 0.9486
8.3163 -10.3198 -2.4912 0.9475
9.0319 -9.7010 -2.4913 0.9475
9.7019 -9.0328 -2.4916 0.9475
10.3227 -8.3186 -2.4919 0.9475
10.6138 -7.9454 -2.4920 0.9475
11.1552 -7.1690 -2.4924 0.9475
12.0661 -5.5104 -2.4933 0.9474
12.7328 -3.7387 -2.4943 0.9474
13.0642 -2.3570 -2.4952 0.9474
13.1416 -1.8895 -2.4955 0.9474
13.2464 -0.9474 -2.4962 0.9474
-11.8248 -0.8457 -2.5059 0.9527
-11.7856 -1.2671 -2.5056 0.9527
-11.7313 -1.6867 -2.5053 0.9527
-11.5779 -2.5186 -2.5046 0.9527
-11.4791 -2.9299 -2.5042 0.9527
-11.0956 -4.1384 -2.5032 0.9527
-10.5852 -5.2986 -2.5022 0.9528
-10.1773 -6.0385 -2.5015 0.9528
-9.4696 -7.0888 -2.5004 0.9528
-6.7383 -9.7050 -2.4974 0.9528
-6.0273 -10.1585 -2.4968 0.9529
-5.6585 -10.3628 -2.4958 0.9529
-4.4766 -10.8074 -2.4727 0.9533
-3.6096 -10.8450 -2.4160 0.9543
-3.1895 -10.8623 -2.3930 0.9548
-2.3700 -10.8946 -2.3568 0.9554
-1.9691 -10.9142 -2.3443 0.9557
-1.5770 -10.9682 -2.3423 0.9557
-0.3954 -11.0714 -2.3418 0.9557
1.1842 -11.0143 -2.3416 0.9557
1.5843 -11.0188 -2.3531 0.9555
4.1093 -11.0175 -2.4856 0.9531
4.5046 -10.8751 -2.4882 0.9530
6.0161 -10.1396 -2.4922 0.9529
7.0658 -9.4389 -2.4923 0.9529
8.0350 -8.6302 -2.4925 0.9529
8.3383 -8.3383 -2.4926 0.9529
8.9127 -7.7229 -2.4928 0.9529
9.1832 -7.4003 -2.4930 0.9529
9.4420 -7.0682 -2.4931 0.9529
9.6889 -6.7271 -2.4933 0.9529
10.1455 -6.0196 -2.4936 0.9529
10.3547 -5.6541 -2.4938 0.9529
10.5507 -5.2813 -2.4940 0.9529
10.7334 -4.9018 -2.4942 0.9529
10.9025 -4.5160 -2.4944 0.9529
11.3260 -3.3256 -2.4952 0.9529
11.4386 -2.9196 -2.4954 0.9529
11.5368 -2.5097 -2.4957 0.9529
11.6203 -2.0965 -2.4959 0.9529
11.6890 -1.6806 -2.4962 0.9529
11.8059 -0.4217 -2.4971 0.9529
-10.6552 -0.3806 -2.5058 0.9571
-10.6336 -0.7605 -2.5055 0.9571
-10.5497 -1.5168 -2.5049 0.9572
-10.4121 -2.2650 -2.5043 0.9572
-10.1066 -3.3638 -2.5034 0.9572
-9.6855 -4.4232 -2.5025 0.9572
-9.5202 -4.7655 -2.5021 0.9572
-9.1537 -5.4312 -2.5015 0.9572
-7.7842 -7.2474 -2.4996 0.9572
-6.9624 -8.0351 -2.4987 0.9573
-6.3700 -8.5093 -2.4982 0.9573
-5.7454 -8.9401 -2.4976 0.9573
-5.4221 -9.1384 -2.4973 0.9573
-4.7553 -9.5000 -2.4968 0.9573
-4.4128 -9.6627 -2.4966 0.9573
-2.9916 -10.1885 -2.4956 0.9573
-2.6258 -10.2879 -2.4954 0.9573
-2.2568 -10.3742 -2.4952 0.9573
-1.5101 -10.5032 -2.4939 0.9573
-1.1340 -10.5473 -2.4932 0.9573
-0.3785 -10.5980 -2.4924 0.9574
0.0000 -10.6045 -2.4923 0.9574
0.7567 -10.5798 -2.4929 0.9574
1.5100 -10.5023 -2.4937 0.9573
1.8838 -10.4413 -2.4936 0.9573
4.0596 -9.8008 -2.4932 0.9573
4.4068 -9.6495 -2.4932 0.9573
6.0502 -8.7140 -2.4932 0.9573
6.3575 -8.4926 -2.4933 0.9573
6.9475 -8.0178 -2.4934 0.9573
7.7656 -7.2300 -2.4937 0.9573
8.7172 -6.0525 -2.4942 0.9573
8.9282 -5.7378 -2.4943 0.9573
9.4924 -4.7515 -2.4948 0.9573
10.2906 -2.6265 -2.4961 0.9573
10.4538 -1.8861 -2.4966 0.9573
10.6203 -0.3793 -2.4976 0.9573
-9.6776 -0.0000 -2.5057 0.9608
-9.6705 -0.3454 -2.5054 0.9608
-9.6191 -1.0342 -2.5049 0.9608
-9.5751 -1.3767 -2.5047 0.9608
-9.5188 -1.7174 -2.5044 0.9608
-9.4504 -2.0558 -2.5041 0.9608
-9.3700 -2.3915 -2.5038 0.9608
-9.2776 -2.7242 -2.5035 0.9608
-9.1734 -3.0532 -2.5033 0.9608
-9.0576 -3.3783 -2.5030 0.9608
-8.9302 -3.6990 -2.5027 0.9608
-8.6416 -4.3257 -2.5021 0.9609
-7.9344 -5.5090 -2.5010 0.9609
-7.7318 -5.7880 -2.5007 0.9609
-7.5195 -6.0596 -2.5004 0.9609
-7.2976 -6.3234 -2.5001 0.9609
-6.3206 -7.2944 -2.4990 0.9609
-6.0556 -7.5145 -2.4988 0.9609
-5.7829 -7.7251 -2.4985 0.9609
-5.5029 -7.9258 -2.4983 0.9609
-4.3173 -8.6249 -2.4973 0.9609
-2.7162 -9.2504 -2.4962 0.9609
-2.0490 -9.4192 -2.4958 0.9610
-1.3716 -9.5400 -2.4955 0.9610
0.3439 -9.6291 -2.4947 0.9610
1.0299 -9.5792 -2.4945 0.9610
1.7105 -9.4806 -2.4943 0.9610
2.0477 -9.4132 -2.4943 0.9610
2.7139 -9.2427 -2.4941 0.9610
3.0420 -9.1397 -2.4941 0.9610
3.6862 -8.8992 -2.4940 0.9610
4.0014 -8.7619 -2.4940 0.9610
4.9151 -8.2839 -2.4940 0.9610
5.4936 -7.9123 -2.4940 0.9610
5.7726 -7.7113 -2.4941 0.9610
6.0443 -7.5005 -2.4941 0.9610
6.5643 -7.0506 -2.4942 0.9610
7.0511 -6.5648 -2.4944 0.9610
7.2812 -6.3092 -2.4945 0.9610
7.5021 -6.0456 -2.4946 0.9610
7.7134 -5.7742 -2.4947 0.9610
8.6186 -4.3142 -2.4955 0.9610
9.0323 -3.3689 -2.4960 0.9610
9.1475 -3.0446 -2.4962 0.9609
9.2511 -2.7164 -2.4964 0.9609
9.3430 -2.3847 -2.4966 0.9609
9.4230 -2.0498 -2.4968 0.9609
9.4910 -1.7124 -2.4971 0.9609
9.5907 -1.0311 -2.4975 0.9609
9.6223 -0.6882 -2.4978 0.9609
-8.8436 -0.3159 -2.5052 0.9639
-8.8258 -0.6312 -2.5049 0.9639
-8.7968 -0.9458 -2.5047 0.9639
-8.7566 -1.2590 -2.5044 0.9639
-8.7052 -1.5706 -2.5042 0.9639
-8.6427 -1.8801 -2.5039 0.9639
-8.4849 -2.4914 -2.5034 0.9639
-8.3897 -2.7924 -2.5032 0.9639
-8.1674 -3.3830 -2.5026 0.9639
-8.0406 -3.6720 -2.5024 0.9639
-7.9036 -3.9563 -2.5021 0.9639
-7.2571 -5.0387 -2.5011 0.9639
-7.0719 -5.2939 -2.5008 0.9639
-6.8777 -5.5424 -2.5005 0.9639
-6.6748 -5.7838 -2.5003 0.9639
-6.2439 -6.2439 -2.4998 0.9640
-5.2897 -7.0662 -2.4988 0.9640
-4.7712 -7.4242 -2.4983 0.9640
-4.2287 -7.7443 -2.4979 0.9640
-3.9493 -7.8896 -2.4977 0.9640
-2.4847 -8.4621 -2.4967 0.9640
-1.2548 -8.7273 -2.4960 0.9640
-0.6289 -8.7935 -2.4957 0.9640
-0.3146 -8.8099 -2.4956 0.9640
0.3146 -8.8090 -2.4954 0.9640
1.2543 -8.7239 -2.4951 0.9640
2.1794 -8.5391 -2.4948 0.9640
2.4828 -8.4556 -2.4948 0.9640
3.0796 -8.2567 -2.4947 0.9640
3.6607 -8.0158 -2.4947 0.9640
3.9445 -7.8800 -2.4946 0.9640
4.2232 -7.7342 -2.4946 0.9640
6.0054 -6.4502 -2.4949 0.9640
6.2319 -6.2319 -2.4950 0.9640
7.4161 -4.7660 -2.4956 0.9640
7.7380 -4.2253 -2.4959 0.9640
7.8844 -3.9466 -2.4960 0.9640
8.5467 -2.1814 -2.4971 0.9640
8.8019 -0.6295 -2.4981 0.9640
8.8195 -0.3150 -2.4983 0.9640
-8.1387 -0.2907 -2.5049 0.9665
-8.1225 -0.5809 -2.5047 0.9665
-8.0958 -0.8704 -2.5045 0.9665
-8.0589 -1.1587 -2.5042 0.9665
-8.0117 -1.4455 -2.5040 0.9665
-7.8867 -2.0130 -2.5035 0.9665
-7.7215 -2.5700 -2.5031 0.9665
-7.6241 -2.8437 -2.5028 0.9665
-7.5170 -3.1137 -2.5026 0.9665
-7.1391 -3.8982 -2.5019 0.9665
-6.9947 -4.1502 -2.5016 0.9665
-6.3305 -5.1014 -2.5007 0.9665
-6.1438 -5.3236 -2.5004 0.9666
-5.7473 -5.7473 -2.5000 0.9666
-4.3919 -6.8340 -2.4986 0.9666
-3.6354 -7.2625 -2.4980 0.9666
-3.3736 -7.3871 -2.4978 0.9666
-2.8376 -7.6078 -2.4975 0.9666
-2.5640 -7.7037 -2.4973 0.9666
-2.2873 -7.7898 -2.4971 0.9666
-1.1551 -8.0340 -2.4965 0.9666
-0.8676 -8.0697 -2.4964 0.9666
-0.5790 -8.0951 -2.4962 0.9666
-0.2897 -8.1102 -2.4961 0.9666
0.8674 -8.0675 -2.4957 0.9666
1.4406 -7.9846 -2.4955 0.9666
1.7246 -7.9279 -2.4955 0.9666
2.0064 -7.8611 -2.4954 0.9666
2.2857 -7.7843 -2.4954 0.9666
2.5620 -7.6976 -2.4953 0.9666
3.3701 -7.3794 -2.4952 0.9666
3.6313 -7.2544 -2.4952 0.9666
3.8879 -7.1202 -2.4952 0.9666
4.1396 -6.9769 -2.4952 0.9666
4.3860 -6.8247 -2.4953 0.9666
4.6268 -6.6639 -2.4953 0.9666
4.8618 -6.4946 -2.4953 0.9666
5.5285 -5.9381 -2.4955 0.9666
6.4961 -4.8629 -2.4959 0.9666
6.8271 -4.3875 -2.4961 0.9666
7.1234 -3.8897 -2.4964 0.9666
7.7032 -2.5639 -2.4971 0.9666
7.8675 -2.0081 -2.4975 0.9666
7.9919 -1.4419 -2.4978 0.9666
8.0389 -1.1558 -2.4980 0.9666
8.0757 -0.8682 -2.4982 0.9666
8.1022 -0.5795 -2.4984 0.9666
-7.5356 -0.0000 -2.5049 0.9687
-7.5302 -0.2690 -2.5047 0.9687
-7.4906 -0.8053 -2.5043 0.9687
-7.2973 -1.8625 -2.5034 0.9688
-7.2255 -2.1216 -2.5032 0.9688
-6.9555 -2.8811 -2.5025 0.9688
-6.8476 -3.1272 -2.5023 0.9688
-6.7310 -3.3693 -2.5021 0.9688
-6.4724 -3.8402 -2.5016 0.9688
-6.3306 -4.0684 -2.5014 0.9688
-6.1808 -4.2914 -2.5012 0.9688
-6.0232 -4.5089 -2.5010 0.9688
-5.6852 -4.9262 -2.5005 0.9688
-4.7182 -5.8549 -2.4995 0.9688
-3.8357 -6.4647 -2.4987 0.9688
-3.3642 -6.7209 -2.4983 0.9688
-2.3729 -7.1293 -2.4976 0.9688
-1.3338 -7.3927 -2.4970 0.9688
-1.0690 -7.4352 -2.4969 0.9688
-0.2681 -7.5058 -2.4965 0.9688
0.2680 -7.5051 -2.4963 0.9688
1.3332 -7.3896 -2.4960 0.9688
1.8569 -7.2754 -2.4959 0.9688
2.8732 -6.9366 -2.4958 0.9688
3.5982 -6.5897 -2.4957 0.9688
4.2821 -6.1674 -2.4958 0.9688
4.9171 -5.6746 -2.4959 0.9688
5.1166 -5.4956 -2.4960 0.9688
6.0120 -4.5005 -2.4963 0.9688
6.3183 -4.0605 -2.4965 0.9688
6.5925 -3.5998 -2.4968 0.9688
6.9406 -2.8749 -2.4972 0.9688
7.0392 -2.6255 -2.4973 0.9688
7.2094 -2.1169 -2.4976 0.9688
7.3431 -1.5974 -2.4980 0.9688
7.3959 -1.3344 -2.4981 0.9688
7.4734 -0.8035 -2.4985 0.9688
7.4978 -0.5363 -2.4987 0.9688
-7.0040 -0.0000 -2.5047 0.9707
-6.9990 -0.2500 -2.5045 0.9707
-6.9623 -0.7485 -2.5041 0.9707
-6.8901 -1.2431 -2.5037 0.9707
-6.8408 -1.4881 -2.5035 0.9707
-6.7827 -1.7312 -2.5033 0.9707
-6.7161 -1.9720 -2.5031 0.9707
-6.6409 -2.2103 -2.5029 0.9707
-6.5572 -2.4457 -2.5027 0.9707
-6.3650 -2.9068 -2.5023 0.9707
-6.1404 -3.3529 -2.5019 0.9707
-5.7454 -3.9891 -2.5013 0.9707
-5.4452 -4.3881 -2.5008 0.9707
-5.1175 -4.7646 -2.5004 0.9707
-4.9438 -4.9438 -2.5002 0.9707
-4.5778 -5.2831 -2.4998 0.9707
-4.1886 -5.5953 -2.4995 0.9707
-3.7782 -5.8790 -2.4991 0.9707
-3.1275 -6.2479 -2.4986 0.9708
-2.6734 -6.4542 -2.4983 0.9708
-2.2059 -6.6277 -2.4979 0.9708
-1.7273 -6.7674 -2.4977 0.9708
-1.2400 -6.8727 -2.4974 0.9708
-0.9938 -6.9122 -2.4973 0.9708
-0.7464 -6.9429 -2.4971 0.9708
0.0000 -6.9821 -2.4968 0.9708
0.2492 -6.9773 -2.4967 0.9708
0.4981 -6.9638 -2.4967 0.9708
0.9935 -6.9101 -2.4965 0.9708
1.7264 -6.7638 -2.4963 0.9708
2.2044 -6.6232 -2.4962 0.9708
2.6712 -6.4489 -2.4962 0.9708
2.8997 -6.3494 -2.4962 0.9708
3.1245 -6.2419 -2.4962 0.9708
3.5618 -6.0031 -2.4962 0.9708
3.7738 -5.8722 -2.4962 0.9708
3.9810 -5.7338 -2.4962 0.9708
4.5713 -5.2756 -2.4963 0.9708
4.7568 -5.1092 -2.4964 0.9708
4.9363 -4.9363 -2.4964 0.9708
5.2761 -4.5718 -2.4966 0.9708
5.4361 -4.3807 -2.4967 0.9708
5.8739 -3.7749 -2.4969 0.9708
6.2446 -3.1258 -2.4973 0.9708
6.3525 -2.9011 -2.4974 0.9708
6.7686 -1.7276 -2.4981 0.9708
6.8755 -1.2405 -2.4984 0.9708
6.9158 -0.9944 -2.4986 0.9708
6.9474 -0.7469 -2.4987 0.9708
6.9701 -0.4985 -2.4989 0.9708
-6.5308 -0.2333 -2.5043 0.9724
-6.5179 -0.4662 -2.5041 0.9724
-6.4671 -0.9298 -2.5038 0.9724
-6.4293 -1.1600 -2.5036 0.9724
-6.2670 -1.8402 -2.5030 0.9724
-5.9395 -2.7125 -2.5023 0.9724
-5.6143 -3.3311 -2.5017 0.9724
-5.4914 -3.5291 -2.5015 0.9724
-5.3615 -3.7226 -2.5013 0.9724
-4.9317 -4.2734 -2.5007 0.9724
-4.0931 -5.0793 -2.4998 0.9724
-3.9089 -5.2217 -2.4996 0.9724
-3.7198 -5.3576 -2.4995 0.9724
-2.7086 -5.9310 -2.4986 0.9725
-2.4950 -6.0235 -2.4985 0.9725
-2.2783 -6.1084 -2.4984 0.9725
-2.0587 -6.1854 -2.4982 0.9725
-1.8365 -6.2546 -2.4981 0.9725
-1.3855 -6.3691 -2.4978 0.9725
-0.9275 -6.4511 -2.4976 0.9725
-0.6966 -6.4798 -2.4975 0.9725
-0.2326 -6.5124 -2.4973 0.9725
0.0000 -6.5163 -2.4972 0.9725
0.9273 -6.4492 -2.4969 0.9725
1.1568 -6.4118 -2.4968 0.9725
1.3849 -6.3663 -2.4967 0.9725
1.8355 -6.2511 -2.4967 0.9725
2.2767 -6.1041 -2.4966 0.9725
2.4931 -6.0189 -2.4966 0.9725
3.3243 -5.6028 -2.4966 0.9725
4.4396 -4.7685 -2.4967 0.9725
4.6071 -4.6071 -2.4968 0.9725
4.9242 -4.2669 -2.4969 0.9725
5.2164 -3.9050 -2.4971 0.9725
5.4821 -3.5231 -2.4973 0.9725
5.6046 -3.3253 -2.4974 0.9725
5.8280 -2.9173 -2.4976 0.9725
5.9287 -2.7075 -2.4977 0.9725
6.1073 -2.2779 -2.4979 0.9725
6.3169 -1.6123 -2.4983 0.9725
6.3708 -1.3859 -2.4985 0.9725
6.4542 -0.9280 -2.4988 0.9725
6.4836 -0.6971 -2.4990 0.9725
6.5048 -0.4652 -2.4991 0.9725
6.5177 -0.2328 -2.4993 0.9724
-6.1190 -0.0000 -2.5043 0.9739
-6.1147 -0.2184 -2.5042 0.9739
-6.0197 -1.0861 -2.5035 0.9739
-5.9767 -1.3002 -2.5033 0.9739
-5.7292 -2.1369 -2.5026 0.9739
-5.5614 -2.5398 -2.5022 0.9739
-5.4668 -2.7365 -2.5021 0.9739
-4.7581 -3.8343 -2.5010 0.9739
-4.6179 -4.0014 -2.5008 0.9739
-4.3201 -4.3201 -2.5005 0.9739
-4.1628 -4.4712 -2.5003 0.9739
-2.9264 -5.3594 -2.4992 0.9740
-2.7331 -5.4601 -2.4990 0.9740
-2.5363 -5.5538 -2.4989 0.9740
-2.1334 -5.7200 -2.4986 0.9740
-1.7198 -5.8570 -2.4983 0.9740
-1.5096 -5.9144 -2.4982 0.9740
-1.2974 -5.9642 -2.4981 0.9740
-1.0837 -6.0064 -2.4980 0.9740
-0.8686 -6.0410 -2.4979 0.9740
0.0000 -6.1022 -2.4975 0.9740
0.2178 -6.0981 -2.4974 0.9740
0.8683 -6.0394 -2.4972 0.9740
1.0833 -6.0044 -2.4971 0.9740
1.2969 -5.9618 -2.4971 0.9740
1.5088 -5.9116 -2.4970 0.9740
1.7189 -5.8539 -2.4970 0.9740
1.9267 -5.7887 -2.4970 0.9740
2.3347 -5.6365 -2.4969 0.9740
2.5344 -5.5495 -2.4969 0.9740
2.7308 -5.4555 -2.4969 0.9740
3.2984 -5.1324 -2.4969 0.9740
3.9954 -4.6109 -2.4970 0.9740
4.4657 -4.1577 -2.4972 0.9740
4.7511 -3.8287 -2.4973 0.9740
5.2484 -3.1140 -2.4977 0.9740
5.3564 -2.9248 -2.4978 0.9740
5.4576 -2.7319 -2.4979 0.9740
5.7191 -2.1331 -2.4982 0.9740
5.7919 -1.9277 -2.4983 0.9740
5.8573 -1.7199 -2.4984 0.9740
5.9657 -1.2978 -2.4987 0.9740
6.0911 -0.4356 -2.4993 0.9740
-5.7460 0.0000 -2.5042 0.9752
-5.7120 -0.6141 -2.5037 0.9752
-5.6529 -1.0199 -2.5034 0.9752
-5.6125 -1.2209 -2.5032 0.9752
-5.3802 -2.0067 -2.5026 0.9753
-5.3048 -2.1973 -2.5024 0.9753
-5.2226 -2.3851 -2.5022 0.9753
-5.1338 -2.5698 -2.5021 0.9753
-5.0385 -2.7512 -2.5019 0.9753
-4.8287 -3.1032 -2.5015 0.9753
-4.7146 -3.2734 -2.5014 0.9753
-4.5944 -3.4393 -2.5012 0.9753
-4.4684 -3.6009 -2.5010 0.9753
-4.0571 -4.0571 -2.5005 0.9753
-3.7569 -4.3357 -2.5002 0.9753
-3.4376 -4.5920 -2.4999 0.9753
-3.2713 -4.7115 -2.4998 0.9753
-3.1008 -4.8250 -2.4996 0.9753
-2.9265 -4.9323 -2.4995 0.9753
-2.0037 -5.3721 -2.4988 0.9753
-1.8106 -5.4399 -2.4987 0.9753
-1.4177 -5.5547 -2.4984 0.9753
-1.2185 -5.6015 -2.4983 0.9753
-1.0178 -5.6412 -2.4982 0.9753
-0.2046 -5.7277 -2.4978 0.9753
0.2046 -5.7274 -2.4977 0.9753
0.4088 -5.7163 -2.4976 0.9753
0.6126 -5.6979 -2.4975 0.9753
0.8155 -5.6722 -2.4975 0.9753
1.2181 -5.5994 -2.4974 0.9753
1.4171 -5.5522 -2.4973 0.9753
1.6144 -5.4981 -2.4973 0.9753
1.8096 -5.4369 -2.4973 0.9753
2.0024 -5.3688 -2.4972 0.9753
2.1928 -5.2938 -2.4972 0.9753
2.3803 -5.2122 -2.4972 0.9753
2.5648 -5.1239 -2.4972 0.9753
3.0979 -4.8204 -2.4972 0.9753
3.5955 -4.4617 -2.4973 0.9753
3.9048 -4.1940 -2.4974 0.9753
4.0520 -4.0520 -2.4974 0.9753
4.3310 -3.7528 -2.4975 0.9753
4.5879 -3.4345 -2.4977 0.9753
4.8215 -3.0986 -2.4978 0.9753
4.9292 -2.9247 -2.4979 0.9753
5.2961 -2.1937 -2.4983 0.9753
5.4396 -1.8105 -2.4985 0.9753
5.5010 -1.6153 -2.4987 0.9753
5.7205 -0.4091 -2.4995 0.9753
5.7318 -0.2047 -2.4996 0.9753
-5.4097 -0.0000 -2.5041 0.9764
-5.4059 -0.1931 -2.5039 0.9764
-5.3777 -0.5782 -2.5036 0.9764
-5.2394 -1.3373 -2.5030 0.9764
-5.0655 -1.8894 -2.5025 0.9765
-4.9945 -2.0688 -2.5024 0.9765
-4.9172 -2.2456 -2.5022 0.9765
-4.5464 -2.9218 -2.5016 0.9765
-4.4389 -3.0820 -2.5014 0.9765
-4.3258 -3.2383 -2.5013 0.9765
-4.2072 -3.3904 -2.5011 0.9765
-3.9541 -3.6814 -2.5008 0.9765
-3.6810 -3.9537 -2.5005 0.9765
-3.0801 -4.4362 -2.4999 0.9765
-2.7555 -4.6442 -2.4996 0.9765
-2.5878 -4.7393 -2.4995 0.9765
-2.4169 -4.8284 -2.4993 0.9765
-2.2429 -4.9113 -2.4992 0.9765
-1.8867 -5.0583 -2.4990 0.9765
-1.7048 -5.1222 -2.4989 0.9765
-1.3350 -5.2303 -2.4986 0.9765
-1.1474 -5.2744 -2.4985 0.9765
-0.7681 -5.3424 -2.4983 0.9765
-0.3850 -5.3832 -2.4982 0.9765
0.3850 -5.3825 -2.4979 0.9765
0.5768 -5.3652 -2.4978 0.9765
0.7679 -5.3411 -2.4977 0.9765
1.8856 -5.0554 -2.4975 0.9765
2.4151 -4.8248 -2.4975 0.9765
2.9170 -4.5390 -2.4975 0.9765
3.3856 -4.2013 -2.4976 0.9765
3.5335 -4.0778 -2.4976 0.9765
3.6768 -3.9492 -2.4976 0.9765
3.8155 -3.8155 -2.4977 0.9765
3.9493 -3.6770 -2.4977 0.9765
4.2018 -3.3860 -2.4979 0.9765
4.3201 -3.2340 -2.4979 0.9765
4.5400 -2.9177 -2.4981 0.9765
4.6414 -2.7539 -2.4982 0.9765
4.9098 -2.2422 -2.4984 0.9765
5.1798 -1.5209 -2.4989 0.9765
5.2310 -1.3351 -2.4990 0.9765
5.2756 -1.1476 -2.4991 0.9765
5.3134 -0.9587 -2.4992 0.9765
5.3688 -0.5772 -2.4995 0.9765
5.3969 -0.1928 -2.4998 0.9765
-5.0911 -0.3641 -2.5037 0.9775
-5.0516 -0.7263 -2.5034 0.9775
-4.8956 -1.4375 -2.5028 0.9775
-4.8409 -1.6112 -2.5027 0.9775
-4.6401 -2.1191 -2.5022 0.9775
-4.4766 -2.4444 -2.5019 0.9775
-4.1889 -2.9084 -2.5014 0.9775
-4.0822 -3.0559 -2.5013 0.9775
-3.6049 -3.6049 -2.5007 0.9775
-3.1983 -3.9689 -2.5003 0.9775
-3.0545 -4.0803 -2.5001 0.9775
-2.7553 -4.2873 -2.4999 0.9776
-2.6004 -4.3827 -2.4997 0.9776
-2.2809 -4.5566 -2.4995 0.9776
-1.7805 -4.7736 -2.4991 0.9776
-1.6089 -4.8339 -2.4990 0.9776
-1.4353 -4.8881 -2.4989 0.9776
-1.2598 -4.9360 -2.4988 0.9776
-0.3633 -5.0803 -2.4984 0.9776
-0.1818 -5.0899 -2.4983 0.9776
0.9042 -5.0115 -2.4979 0.9776
1.0824 -4.9759 -2.4979 0.9776
1.2593 -4.9340 -2.4979 0.9776
1.9486 -4.7044 -2.4978 0.9776
2.2793 -4.5534 -2.4977 0.9776
2.4403 -4.4691 -2.4977 0.9776
2.5983 -4.3792 -2.4977 0.9776
2.9041 -4.1827 -2.4978 0.9776
3.0516 -4.0764 -2.4978 0.9776
3.1952 -3.9650 -2.4978 0.9776
3.4700 -3.7270 -2.4979 0.9776
3.7272 -3.4701 -2.4980 0.9776
3.8487 -3.3349 -2.4980 0.9776
3.9654 -3.1955 -2.4981 0.9776
4.3803 -2.5989 -2.4984 0.9776
4.7730 -1.7802 -2.4988 0.9776
4.8883 -1.4353 -2.4990 0.9776
4.9366 -1.2600 -2.4991 0.9776
5.0144 -0.9047 -2.4994 0.9776
5.0437 -0.7252 -2.4995 0.9776
5.0831 -0.3635 -2.4997 0.9776
-4.7763 -0.6867 -2.5033 0.9785
-4.7485 -0.8567 -2.5032 0.9785
-4.7146 -1.0256 -2.5030 0.9785
-4.6289 -1.3592 -2.5028 0.9785
-4.5772 -1.5234 -2.5026 0.9785
-4.5196 -1.6857 -2.5025 0.9785
-4.4563 -1.8459 -2.5023 0.9785
-4.2328 -2.3113 -2.5019 0.9785
-4.0566 -2.6070 -2.5016 0.9785
-3.8599 -2.8895 -2.5013 0.9785
-3.7541 -3.0252 -2.5012 0.9785
-3.6435 -3.1571 -2.5011 0.9785
-3.5283 -3.2850 -2.5009 0.9785
-3.4086 -3.4086 -2.5008 0.9785
-3.2846 -3.5279 -2.5006 0.9785
-3.0242 -3.7528 -2.5004 0.9785
-2.8882 -3.8582 -2.5002 0.9785
-2.6053 -4.0540 -2.5000 0.9785
-2.3093 -4.2291 -2.4997 0.9785
-2.1567 -4.3086 -2.4996 0.9785
-1.8437 -4.4511 -2.4994 0.9785
-1.0239 -4.7068 -2.4989 0.9785
-0.5148 -4.7888 -2.4986 0.9785
-0.1719 -4.8130 -2.4985 0.9785
0.0000 -4.8160 -2.4984 0.9785
0.8550 -4.7389 -2.4982 0.9785
1.0236 -4.7053 -2.4981 0.9785
1.5206 -4.5688 -2.4980 0.9785
1.6827 -4.5115 -2.4980 0.9785
1.8427 -4.4486 -2.4980 0.9785
2.1553 -4.3058 -2.4980 0.9785
2.3076 -4.2261 -2.4980 0.9785
2.4570 -4.1411 -2.4980 0.9785
2.6033 -4.0507 -2.4980 0.9785
2.8856 -3.8548 -2.4980 0.9785
3.2813 -3.5243 -2.4981 0.9785
3.6394 -3.1536 -2.4982 0.9785
3.7497 -3.0217 -2.4983 0.9785
3.8553 -2.8860 -2.4984 0.9785
3.9559 -2.7467 -2.4984 0.9785
4.2272 -2.3082 -2.4986 0.9785
4.3071 -2.1560 -2.4987 0.9785
4.3814 -2.0009 -2.4988 0.9785
4.4502 -1.8433 -2.4989 0.9785
4.5134 -1.6834 -2.4990 0.9785
4.7415 -0.8555 -2.4995 0.9785
4.7909 -0.5151 -2.4997 0.9785
4.8065 -0.3438 -2.4999 0.9785
4.8159 -0.1720 -2.5000 0.9785
-4.5713 -0.0000 -2.5037 0.9794
-4.5592 -0.3261 -2.5035 0.9794
-4.5445 -0.4886 -2.5034 0.9794
-4.4655 -0.9714 -2.5030 0.9794
-4.4278 -1.1301 -2.5028 0.9794
-4.3844 -1.2874 -2.5027 0.9794
-4.3354 -1.4430 -2.5026 0.9794
-4.2809 -1.5967 -2.5024 0.9794
-4.2210 -1.7484 -2.5023 0.9794
-4.1556 -1.8978 -2.5022 0.9794
-4.0092 -2.1892 -2.5019 0.9794
-3.6561 -2.7369 -2.5014 0.9794
-3.4511 -2.9904 -2.5011 0.9794
-3.3420 -3.1116 -2.5010 0.9794
-3.1112 -3.3417 -2.5007 0.9794
-2.9898 -3.4504 -2.5006 0.9794
-2.8646 -3.5548 -2.5005 0.9794
-2.7358 -3.6546 -2.5003 0.9794
-2.6035 -3.7497 -2.5002 0.9794
-2.4679 -3.8401 -2.5001 0.9794
-1.8959 -4.1515 -2.4996 0.9794
-1.1285 -4.4212 -2.4992 0.9794
-0.8101 -4.4902 -2.4990 0.9794
-0.6493 -4.5161 -2.4989 0.9794
-0.4877 -4.5362 -2.4988 0.9794
-0.3255 -4.5506 -2.4987 0.9794
-0.1628 -4.5592 -2.4987 0.9794
-0.0000 -4.5620 -2.4986 0.9794
0.1628 -4.5590 -2.4986 0.9794
0.4876 -4.5355 -2.4984 0.9794
0.6492 -4.5152 -2.4984 0.9794
0.8099 -4.4890 -2.4984 0.9794
0.9696 -4.4572 -2.4983 0.9794
1.2851 -4.3766 -2.4983 0.9794
1.4405 -4.3279 -2.4982 0.9794
1.5940 -4.2737 -2.4982 0.9794
1.8948 -4.1490 -2.4982 0.9794
2.1859 -4.0033 -2.4982 0.9794
2.6014 -3.7467 -2.4982 0.9794
2.7335 -3.6515 -2.4982 0.9794
2.9871 -3.4473 -2.4983 0.9794
3.1082 -3.3385 -2.4983 0.9794
3.3386 -3.1083 -2.4984 0.9794
3.4475 -2.9873 -2.4984 0.9794
3.5520 -2.8624 -2.4985 0.9794
3.6520 -2.7338 -2.4986 0.9794
3.7473 -2.6018 -2.4986 0.9794
3.8379 -2.4665 -2.4987 0.9794
3.9236 -2.3280 -2.4987 0.9794
4.2155 -1.7461 -2.4991 0.9794
4.2753 -1.5946 -2.4992 0.9794
4.3296 -1.4410 -2.4992 0.9794
4.3785 -1.2856 -2.4993 0.9794
4.4594 -0.9701 -2.4995 0.9794
4.4913 -0.8103 -2.4996 0.9794
4.5176 -0.6495 -2.4998 0.9794
-4.3110 -0.4635 -2.5033 0.9802
-4.2915 -0.6170 -2.5032 0.9802
-4.2665 -0.7698 -2.5031 0.9802
-4.2003 -1.0721 -2.5028 0.9802
-4.1592 -1.2213 -2.5027 0.9802
-4.1127 -1.3689 -2.5026 0.9802
-4.0610 -1.5147 -2.5024 0.9802
-3.8753 -1.9398 -2.5020 0.9802
-3.7266 -2.2111 -2.5018 0.9802
-3.6451 -2.3426 -2.5017 0.9802
-3.5590 -2.4711 -2.5015 0.9802
-2.9515 -3.1702 -2.5008 0.9802
-2.5954 -3.4670 -2.5004 0.9802
-2.4699 -3.5573 -2.5003 0.9802
-2.3412 -3.6430 -2.5002 0.9802
-2.2096 -3.7241 -2.5001 0.9802
-2.0752 -3.8004 -2.5000 0.9802
-1.9381 -3.8719 -2.4999 0.9802
-1.7986 -3.9385 -2.4998 0.9802
-1.6568 -4.0000 -2.4997 0.9802
-1.2196 -4.1537 -2.4994 0.9802
-1.0706 -4.1944 -2.4993 0.9802
-0.9201 -4.2298 -2.4992 0.9802
-0.7686 -4.2598 -2.4991 0.9802
-0.3088 -4.3172 -2.4989 0.9802
0.0000 -4.3280 -2.4988 0.9802
0.3087 -4.3168 -2.4987 0.9802
0.4626 -4.3030 -2.4986 0.9802
0.9199 -4.2286 -2.4985 0.9802
1.7976 -3.9363 -2.4984 0.9802
1.9370 -3.8696 -2.4984 0.9802
2.0739 -3.7980 -2.4984 0.9802
2.3395 -3.6404 -2.4984 0.9802
2.4680 -3.5546 -2.4984 0.9802
2.5933 -3.4643 -2.4984 0.9802
2.7153 -3.3695 -2.4984 0.9802
2.8339 -3.2705 -2.4985 0.9802
3.0601 -3.0601 -2.4985 0.9802
3.1674 -2.9490 -2.4986 0.9802
3.2707 -2.8341 -2.4986 0.9802
3.3698 -2.7156 -2.4987 0.9802
3.7223 -2.2086 -2.4989 0.9802
3.7989 -2.0744 -2.4990 0.9802
3.9375 -1.7982 -2.4991 0.9802
4.1539 -1.2197 -2.4995 0.9802
4.1949 -1.0707 -2.4996 0.9802
4.2306 -0.9203 -2.4997 0.9802
4.2858 -0.6162 -2.4999 0.9802
4.3192 -0.3089 -2.5001 0.9802
