ply
format ascii 1.0
element vertex 1370
property float32 x
property float32 y
property float32 z
property float32 I
end_header
22.7363 6.6760 4.1783 0.9082
31.7495 15.8927 6.2605 0.8657
30.5366 16.6743 6.1348 0.8682
27.7027 16.4368 5.6798 0.8774
22.3762 16.7506 4.9286 0.8927
19.9578 17.2935 4.6564 0.8983
18.5815 17.3000 4.4766 0.9020
17.4172 17.4172 4.3432 0.9048
15.9635 17.1460 4.1308 0.9092
15.1867 17.5264 4.0892 0.9101
7.3925 9.1736 2.0774 0.9533
12.3606 17.8026 3.8215 0.9157
11.1702 17.3812 3.6431 0.9195
10.3370 17.4221 3.5720 0.9210
9.9601 24.0459 4.5893 0.8997
6.8902 18.4732 3.4765 0.9230
4.5196 17.7077 3.2224 0.9285
3.9199 18.0196 3.2516 0.9278
2.0107 18.7023 3.3167 0.9264
1.7709 24.7605 4.3771 0.9041
0.6597 18.4702 3.2589 0.9277
-0.6415 17.9613 3.1691 0.9296
-1.2869 17.9930 3.1808 0.9294
-1.9812 18.4280 3.2681 0.9275
-2.7063 18.8226 3.3531 0.9257
-4.5209 25.0574 4.4896 0.9017
-5.4582 18.5887 3.4161 0.9243
-7.7382 18.6816 3.5655 0.9212
-10.3494 18.9535 3.8078 0.9160
-11.1669 18.8208 3.8588 0.9149
-12.8891 18.5638 3.9849 0.9123
-14.2224 18.9989 4.1847 0.9081
-16.5381 19.0860 4.4530 0.9025
-17.3504 18.6356 4.4897 0.9017
-20.7226 19.2935 4.9925 0.8914
-22.3589 19.3740 5.2166 0.8868
-12.3605 9.9607 2.7991 0.9376
-29.8352 19.1739 6.2535 0.8658
-36.6919 20.0353 7.3715 0.8438
-17.1763 8.5979 3.3869 0.9249
-31.9173 10.6231 5.9314 0.8723
44.1076 16.4513 7.2117 0.8265
40.9853 16.9767 6.7960 0.8357
32.8515 16.4443 5.6280 0.8619
30.7055 16.7665 5.3595 0.8680
24.5786 17.0652 4.5839 0.8860
21.2365 17.1134 4.1782 0.8955
15.1762 17.5143 3.5502 0.9105
7.3838 9.1627 1.8027 0.9535
10.7239 16.6867 3.0387 0.9229
10.3368 17.4218 3.1033 0.9213
9.6847 17.7362 3.0957 0.9215
9.0361 18.0520 3.0926 0.9216
10.9397 23.9546 4.0343 0.8989
6.0095 18.0555 2.9152 0.9259
5.1897 17.6745 2.8219 0.9282
4.5195 17.7074 2.7996 0.9287
3.9390 18.1073 2.8388 0.9278
0.6639 18.5900 2.8497 0.9275
-1.2869 17.9927 2.7634 0.9296
-1.9848 18.4612 2.8445 0.9276
-3.6287 25.2378 3.9061 0.9020
-4.5350 25.1356 3.9128 0.9018
-4.8587 19.0361 3.0097 0.9236
-5.4671 18.6193 2.9728 0.9245
-6.0668 18.2277 2.9430 0.9252
-7.7641 18.7441 3.1081 0.9212
-11.1935 18.8656 3.3605 0.9151
-11.8986 18.5146 3.3715 0.9148
-12.8888 18.5634 3.4621 0.9126
-15.5950 19.3522 3.8075 0.9043
-16.5574 19.1083 3.8734 0.9027
-17.4942 18.7900 3.9330 0.9013
-19.2169 19.2169 4.1633 0.8959
-28.3263 19.6673 5.2828 0.8698
-30.0758 19.3285 5.4769 0.8653
-33.5839 19.9262 5.9823 0.8538
32.7530 16.3950 4.7696 0.8627
27.9088 16.5591 4.2259 0.8773
24.8896 17.2812 3.9458 0.8849
21.2363 17.1133 3.5516 0.8958
20.2051 17.5078 3.4815 0.8978
25.3365 23.5891 4.5079 0.8697
17.4929 17.4929 3.2215 0.9050
15.9628 17.1453 3.0505 0.9098
15.2259 17.5717 3.0277 0.9105
7.1856 9.5988 1.5614 0.9528
16.4440 23.6839 3.7546 0.8902
10.7084 16.6626 2.5793 0.9232
10.3366 17.4214 2.6379 0.9215
10.9395 23.9541 3.4292 0.8992
7.6034 18.3563 2.5873 0.9230
6.0308 18.1195 2.4868 0.9259
3.9410 18.1164 2.4143 0.9279
3.5774 24.8813 3.2734 0.9036
2.0006 18.6079 2.4371 0.9273
0.6654 18.6303 2.4276 0.9276
0.0000 18.3047 2.3837 0.9288
-4.5697 25.3281 3.3515 0.9014
-5.4606 25.1019 3.3452 0.9016
-6.3305 24.8027 3.3334 0.9019
-7.7943 18.8171 2.6523 0.9211
-11.2127 18.8979 2.8615 0.9152
-11.8984 18.5142 2.8659 0.9151
-19.3003 25.7822 4.1939 0.8782
-20.8718 25.9004 4.3316 0.8744
-16.6511 19.2164 3.3111 0.9025
-17.4937 18.7896 3.3431 0.9016
-22.3502 19.3665 3.8511 0.8875
-26.2171 19.6259 4.2646 0.8763
-28.3237 19.6655 4.4902 0.8701
-29.8990 19.2149 4.6282 0.8664
-33.5826 19.9255 5.0850 0.8543
-17.1738 8.5966 2.5009 0.9255
44.1037 16.4498 5.0546 0.8275
40.1784 16.6424 4.6699 0.8395
26.4972 17.0287 3.3822 0.8810
22.4758 16.8252 3.0148 0.8932
21.2362 17.1132 2.9287 0.8961
20.3836 17.6625 2.8962 0.8972
15.2422 17.5905 2.4994 0.9106
12.1264 17.4654 2.2832 0.9180
10.7424 16.7154 2.1336 0.9232
10.3364 17.4211 2.1752 0.9217
9.6413 17.6567 2.1603 0.9223
10.0569 24.2794 2.8220 0.8997
9.2498 24.7997 2.8422 0.8990
5.9357 17.8339 2.0183 0.9272
4.5194 17.7068 1.9623 0.9291
3.6050 25.0730 2.7201 0.9031
2.7293 25.3864 2.7417 0.9024
1.8189 25.4312 2.7378 0.9025
0.6459 18.0852 1.9433 0.9298
0.0000 18.1304 1.9469 0.9297
-2.6227 18.2413 1.9789 0.9285
-5.4610 25.1039 2.7588 0.9018
-4.7981 18.7989 2.0834 0.9249
-5.3996 18.3895 2.0581 0.9258
-6.0666 18.2271 2.0628 0.9256
-6.8120 18.2637 2.0932 0.9246
-11.4416 25.0536 2.9576 0.8951
-11.2183 18.9075 2.3608 0.9154
-19.6223 26.2123 3.5160 0.8766
-19.4490 19.4490 2.9535 0.8952
-28.1608 26.2187 4.1317 0.8566
-22.4676 19.4682 3.1923 0.8873
-27.0842 20.2750 3.6330 0.8727
-28.2289 19.5997 3.6903 0.8709
-33.4681 19.8576 4.1788 0.8551
-35.9683 19.6402 4.4006 0.8480
31.7981 8.1160 2.7782 0.8766
44.1018 16.4491 3.9846 0.8278
27.9071 16.5581 2.7469 0.8779
26.5309 17.0504 2.6697 0.8811
32.6924 22.6987 3.3691 0.8523
22.4752 16.8247 2.3766 0.8934
20.1381 17.4498 2.2557 0.8986
26.0369 24.2413 3.0115 0.8669
7.1790 9.5900 1.0141 0.9530
10.7434 16.7170 1.6822 0.9233
9.6864 17.7393 1.7110 0.9221
8.8912 17.7624 1.6815 0.9234
10.9391 23.9533 2.2291 0.8997
9.0480 24.2585 2.1917 0.9013
5.9630 17.9159 1.5984 0.9270
3.9202 18.0208 1.5612 0.9286
3.5231 24.5037 2.0956 0.9054
1.7962 25.1145 2.1314 0.9039
0.6489 18.1691 1.5390 0.9296
-0.6414 17.9601 1.5213 0.9304
-1.2868 17.9918 1.5269 0.9302
-3.6494 25.3822 2.1708 0.9022
-4.4915 24.8944 2.1414 0.9034
-5.4298 24.9602 2.1624 0.9025
-5.4249 18.4753 1.6300 0.9256
-7.6994 18.5880 1.7032 0.9224
-10.5806 19.3768 1.8689 0.9152
-16.1556 20.0478 2.1796 0.9018
-16.3954 18.9214 2.1194 0.9044
-17.4929 18.7886 2.1731 0.9021
-19.0097 19.0097 2.2758 0.8977
-28.3969 19.7163 2.9265 0.8704
-17.1713 8.5953 1.6255 0.9258
31.7159 8.0950 2.0298 0.8771
38.0401 17.3724 2.5932 0.8457
27.9062 16.5576 2.0122 0.8781
26.1905 16.8317 1.9305 0.8827
25.9134 17.9920 1.9562 0.8812
21.2359 17.1130 1.6912 0.8965
15.1339 17.4655 1.4331 0.9115
7.3494 9.1201 0.7263 0.9541
7.1757 9.5856 0.7425 0.9531
12.2175 17.5965 1.3284 0.9177
11.1691 17.3795 1.2811 0.9205
9.6854 17.7376 1.2532 0.9222
8.8904 17.7607 1.2316 0.9235
10.0585 24.2834 1.6299 0.9000
5.9625 17.9144 1.1708 0.9271
4.5192 17.7062 1.1332 0.9294
3.9198 18.0192 1.1435 0.9288
3.2545 18.0387 1.1366 0.9292
3.5351 24.5873 1.5403 0.9052
2.7095 25.2024 1.5718 0.9034
1.8057 25.2468 1.5696 0.9035
0.6489 18.1676 1.1273 0.9297
-0.6414 17.9598 1.1144 0.9305
-1.2868 17.9915 1.1185 0.9303
-4.8781 19.1120 1.2231 0.9240
-5.4243 18.4737 1.1939 0.9257
-6.0663 18.2264 1.1912 0.9259
-6.8118 18.2630 1.2087 0.9249
-7.6987 18.5863 1.2475 0.9225
-10.5813 19.3782 1.3691 0.9153
-11.1276 18.7545 1.3523 0.9163
-12.1664 17.5229 1.3228 0.9181
-16.4730 19.0109 1.5599 0.9041
-19.1497 19.1497 1.6793 0.8971
-21.9365 20.4236 1.8586 0.8868
-12.2553 10.6193 1.0056 0.9371
-30.4532 19.5711 2.2448 0.8650
31.6917 8.0888 1.2897 0.8773
36.7953 16.8038 1.5950 0.8505
32.9422 16.4897 1.4526 0.8629
27.9054 16.5570 1.2794 0.8782
22.4740 16.8238 1.1070 0.8937
21.2358 17.1129 1.0754 0.8966
20.2714 17.5653 1.0577 0.8982
15.1322 17.4636 0.9112 0.9116
11.1689 17.3792 0.8146 0.9206
9.6845 17.7359 0.7968 0.9223
9.1840 24.6233 1.0363 0.9001
5.1892 17.6729 0.7263 0.9289
3.9195 18.0177 0.7271 0.9288
2.7370 25.4579 1.0096 0.9026
0.6488 18.1660 0.7168 0.9298
-0.6414 17.9594 0.7086 0.9306
-3.7058 25.7745 1.0268 0.9010
-5.4477 25.0428 1.0106 0.9025
-6.0662 18.2260 0.7574 0.9260
-6.8116 18.2627 0.7686 0.9249
-11.4409 25.0522 1.0860 0.8956
-11.8974 18.5127 0.8677 0.9157
-12.8874 18.5614 0.8910 0.9135
-16.4710 19.0086 0.9918 0.9042
-17.4920 18.7877 1.0122 0.9023
-19.1473 19.1473 1.0677 0.8973
-21.9377 20.4247 1.1819 0.8869
-12.2075 10.5778 0.6369 0.9374
-27.6408 20.6917 1.3615 0.8709
-28.2211 19.5943 1.3547 0.8715
-30.6735 19.7127 1.4377 0.8642
-33.4417 19.8419 1.5333 0.8558
-31.9424 10.6315 1.3275 0.8739
31.6677 8.0827 0.5521 0.8774
40.1719 16.6398 0.7345 0.8403
32.9420 16.4896 0.6223 0.8630
26.3099 16.9083 0.5283 0.8824
25.9999 18.0520 0.5347 0.8811
22.4734 16.8234 0.4742 0.8938
21.2356 17.1128 0.4607 0.8966
20.2724 17.5662 0.4531 0.8982
26.0411 24.2452 0.6010 0.8673
15.9610 17.1433 0.3957 0.9106
15.1306 17.4616 0.3903 0.9117
7.1692 9.5769 0.2021 0.9533
10.3356 17.4197 0.3421 0.9222
9.6836 17.7342 0.3413 0.9223
8.8887 17.7574 0.3354 0.9236
9.1852 24.6266 0.4440 0.9002
5.1891 17.6726 0.3111 0.9290
4.5191 17.7055 0.3087 0.9295
3.5345 24.5831 0.4195 0.9054
1.8239 25.5024 0.4319 0.9028
-0.6414 17.9591 0.3036 0.9306
-1.9676 18.3017 0.3109 0.9290
-3.7058 25.7741 0.4398 0.9011
-4.5624 25.2875 0.4341 0.9023
-5.4472 25.0405 0.4329 0.9026
-4.8792 19.1166 0.3333 0.9241
-5.4234 18.4703 0.3252 0.9259
-6.0661 18.2257 0.3245 0.9260
-6.8115 18.2624 0.3292 0.9250
-7.6972 18.5828 0.3398 0.9227
-11.4407 25.0517 0.4652 0.8957
-12.5677 25.1071 0.4743 0.8938
-10.5829 19.3811 0.3730 0.9154
-11.1253 18.7507 0.3683 0.9165
-12.8871 18.5610 0.3817 0.9136
-19.2413 25.7034 0.5424 0.8795
-16.4691 19.0063 0.4248 0.9043
-17.4916 18.7873 0.4336 0.9024
-19.1450 19.1450 0.4573 0.8973
-21.9389 20.4258 0.5063 0.8870
-12.2611 9.8806 0.2660 0.9389
-27.6422 20.6927 0.5833 0.8710
-33.4353 19.8381 0.6567 0.8560
40.1190 16.6178 -0.2445 0.8405
32.0076 17.4775 -0.2053 0.8643
27.9036 16.5560 -0.1827 0.8783
26.0010 18.0528 -0.1782 0.8811
22.4728 16.8229 -0.1580 0.8938
26.0409 24.2450 -0.2003 0.8673
17.3502 17.3502 -0.1381 0.9065
7.3242 9.0888 -0.0657 0.9544
7.1659 9.5726 -0.0673 0.9533
9.6827 17.7325 -0.1137 0.9224
8.8879 17.7557 -0.1118 0.9236
10.9383 23.9515 -0.1482 0.9000
10.0558 24.2768 -0.1479 0.9002
9.1865 24.6299 -0.1480 0.9002
5.9609 17.9097 -0.1063 0.9273
3.2537 18.0340 -0.1032 0.9293
1.8239 25.5019 -0.1439 0.9028
0.6487 18.1629 -0.1023 0.9299
-1.9675 18.3002 -0.1036 0.9290
-4.5635 25.2939 -0.1447 0.9023
-5.4468 25.0383 -0.1443 0.9026
-4.8798 19.1189 -0.1111 0.9241
-6.0660 18.2254 -0.1081 0.9260
-12.5675 25.1066 -0.1581 0.8938
-10.5836 19.3825 -0.1243 0.9155
-11.1241 18.7487 -0.1227 0.9165
-12.8868 18.5606 -0.1272 0.9136
-16.4671 19.0040 -0.1416 0.9043
-17.4912 18.7868 -0.1445 0.9024
-21.9401 20.4270 -0.1688 0.8870
-12.1132 10.4961 -0.0902 0.9379
-28.2117 19.5878 -0.1934 0.8716
-30.6634 19.7062 -0.2052 0.8643
-33.4290 19.8343 -0.2188 0.8560
-36.0715 19.6965 -0.2314 0.8484
-17.1632 8.5913 -0.1081 0.9261
-31.9738 10.6419 -0.1897 0.8739
43.3270 17.9466 -1.3205 0.8289
35.6570 16.2840 -1.1038 0.8548
32.9416 16.4894 -1.0373 0.8629
32.0088 17.4782 -1.0269 0.8642
27.9028 16.5555 -0.9136 0.8782
26.3019 16.9032 -0.8804 0.8824
22.4722 16.8225 -0.7904 0.8937
26.0408 24.2448 -1.0019 0.8673
15.1273 17.4578 -0.6504 0.9117
7.3158 9.0784 -0.3283 0.9544
12.2126 17.5895 -0.6030 0.9179
11.1682 17.3781 -0.5817 0.9207
10.3352 17.4191 -0.5703 0.9221
9.6818 17.7308 -0.5688 0.9223
10.0549 24.2746 -0.7398 0.9002
5.9604 17.9081 -0.5314 0.9273
5.1890 17.6720 -0.5186 0.9289
4.5189 17.7049 -0.5145 0.9295
3.2534 18.0324 -0.5160 0.9293
2.7369 25.4566 -0.7209 0.9026
0.0000 18.2062 -0.5126 0.9297
-1.9673 18.2986 -0.5182 0.9290
-3.7056 25.7732 -0.7332 0.9011
-4.5647 25.3005 -0.7239 0.9022
-5.4463 25.0361 -0.7214 0.9026
-5.4224 18.4669 -0.5419 0.9259
-6.0659 18.2251 -0.5409 0.9260
-6.8113 18.2617 -0.5488 0.9250
-7.6958 18.5794 -0.5663 0.9227
-11.4403 25.0507 -0.7754 0.8957
-12.5672 25.1061 -0.7905 0.8937
-11.8966 18.5115 -0.6196 0.9157
-12.8865 18.5602 -0.6362 0.9136
-16.2387 20.1509 -0.7287 0.9016
-21.9413 20.4281 -0.8441 0.8870
-12.2333 9.8582 -0.4424 0.9391
-27.6451 20.6949 -0.9724 0.8709
-36.0701 19.6958 -1.1572 0.8484
-17.1609 8.5901 -0.5404 0.9261
-31.9895 10.6471 -0.9493 0.8738
46.3572 4.9839 -2.3645 0.8297
46.1729 6.6387 -2.3657 0.8296
45.9293 8.2866 -2.3669 0.8295
44.3653 14.7662 -2.3713 0.8292
32.9414 16.4893 -1.8682 0.8628
26.0406 24.2447 -1.8043 0.8672
15.1256 17.4559 -1.1714 0.9116
7.3074 9.0680 -0.5906 0.9544
12.2114 17.5878 -1.0859 0.9178
11.1680 17.3778 -1.0476 0.9206
9.6808 17.7292 -1.0244 0.9223
8.8862 17.7524 -1.0068 0.9236
10.0540 24.2724 -1.3324 0.9001
5.1889 17.6717 -0.9340 0.9289
4.5188 17.7046 -0.9267 0.9294
3.5336 24.5768 -1.2592 0.9053
2.7368 25.4562 -1.2984 0.9025
1.8239 25.5011 -1.2966 0.9027
-0.0000 18.2046 -0.9232 0.9297
-0.6414 17.9582 -0.9113 0.9306
-3.7056 25.7728 -1.3205 0.9010
-5.4458 25.0339 -1.2993 0.9025
-4.8810 19.1235 -1.0009 0.9240
-5.4219 18.4653 -0.9760 0.9258
-6.0658 18.2247 -0.9741 0.9260
-12.5670 25.1056 -1.4238 0.8936
-10.5852 19.3853 -1.1201 0.9153
-16.2397 20.1522 -1.3125 0.9015
-17.4903 18.7859 -1.3017 0.9023
-21.9426 20.4293 -1.5204 0.8869
-12.2227 9.8496 -0.7961 0.9391
-28.1112 19.5180 -1.7356 0.8719
-33.3443 19.7841 -1.9663 0.8562
-36.0687 19.6950 -2.0841 0.8482
-17.1585 8.5889 -0.9731 0.9260
-42.8474 17.7480 -2.3520 0.8305
-43.4296 16.1984 -2.3507 0.8306
-48.6921 7.0009 -2.4948 0.8212
34.1701 2.4439 -2.5118 0.8716
34.0731 3.6632 -2.5127 0.8716
28.7229 6.2483 -2.1553 0.8888
30.7563 7.8501 -2.3274 0.8805
30.7661 9.0338 -2.3511 0.8793
29.8111 12.3482 -2.3659 0.8786
29.3598 13.4082 -2.3666 0.8786
28.8705 14.4516 -2.3672 0.8785
27.7805 16.4830 -2.3685 0.8785
23.6731 22.0405 -2.3716 0.8783
17.2902 17.2902 -1.7929 0.9066
15.9596 17.1418 -1.7173 0.9103
7.2991 9.0576 -0.8529 0.9544
12.2102 17.5860 -1.5698 0.9177
9.6799 17.7275 -1.4810 0.9222
9.1134 24.4339 -1.9121 0.9007
5.9593 17.9049 -1.3836 0.9271
3.9178 18.0099 -1.3514 0.9287
0.6485 18.1582 -1.3322 0.9297
-0.6414 17.9579 -1.3176 0.9305
-1.2866 17.9896 -1.3224 0.9302
-5.4324 24.9721 -1.8738 0.9026
-5.4214 18.4636 -1.4109 0.9257
-11.4398 25.0498 -2.0192 0.8954
-10.5860 19.3868 -1.6196 0.9152
-16.1901 20.0907 -1.8919 0.9017
-19.0762 19.0762 -1.9781 0.8974
-11.9743 10.3757 -1.1617 0.9384
-12.2173 9.8453 -1.1505 0.9390
-17.1561 8.5877 -1.4067 0.9259
-29.1800 13.3260 -2.3521 0.8793
-29.6257 12.2714 -2.3512 0.8793
-30.0333 11.2018 -2.3503 0.8794
-32.9590 8.4123 -2.4941 0.8725
-33.8456 3.6388 -2.4959 0.8724
-33.9414 2.4275 -2.4950 0.8724
26.1145 0.9327 -2.5087 0.9003
26.0716 1.8647 -2.5094 0.9003
25.9954 2.7948 -2.5101 0.9003
25.7433 4.6446 -2.5114 0.9002
23.8563 6.0890 -2.3637 0.9058
23.5898 6.9266 -2.3603 0.9059
23.3331 7.7660 -2.3609 0.9059
22.7300 9.4151 -2.3620 0.9059
22.3843 10.2226 -2.3625 0.9058
21.6070 11.7983 -2.3635 0.9058
11.6536 6.9144 -1.3009 0.9470
20.2334 14.0483 -2.3648 0.9058
18.6249 16.1386 -2.3660 0.9057
7.1529 9.5552 -1.1459 0.9532
12.1722 17.5313 -2.0490 0.9178
10.3346 17.4181 -1.9444 0.9218
9.6476 17.6683 -1.9326 0.9223
8.6222 23.1168 -2.3687 0.9056
5.1887 17.6711 -1.7681 0.9287
3.9049 17.9505 -1.7636 0.9288
2.6369 24.5268 -2.3683 0.9056
1.7597 24.6037 -2.3681 0.9056
-0.6414 17.9576 -1.7251 0.9303
-2.6251 18.2579 -1.7709 0.9286
-4.3764 24.2564 -2.3663 0.9057
-5.2386 24.0813 -2.3660 0.9057
-4.8305 18.9256 -1.8752 0.9245
-7.6695 18.5159 -1.9241 0.9226
-10.2269 22.3939 -2.3635 0.9058
-10.5326 19.2890 -2.1099 0.9155
-11.8959 18.5104 -2.1124 0.9154
-15.4232 19.1378 -2.3598 0.9060
-11.9284 10.3360 -1.5153 0.9385
-19.6411 14.7032 -2.3555 0.9061
-22.2796 10.1748 -2.3514 0.9063
-22.6220 9.3703 -2.3508 0.9063
-25.4393 5.5340 -2.4994 0.9007
-25.6132 4.6211 -2.4987 0.9007
-25.7545 3.7029 -2.4980 0.9007
-25.9382 1.8551 -2.4966 0.9008
-25.9806 0.9279 -2.4959 0.9008
18.9996 6.3237 -2.3786 0.9225
18.6081 6.9405 -2.3591 0.9231
18.3519 7.6016 -2.3596 0.9231
17.4431 9.5246 -2.3608 0.9231
16.7243 10.7481 -2.3615 0.9230
16.3324 11.3398 -2.3618 0.9230
15.9195 11.9172 -2.3622 0.9230
15.4860 12.4794 -2.3625 0.9230
15.0326 13.0258 -2.3628 0.9230
14.0682 14.0682 -2.3633 0.9230
13.5585 14.5629 -2.3636 0.9230
7.1496 9.5508 -1.4172 0.9531
9.5406 17.4724 -2.3647 0.9229
5.9395 17.8455 -2.2341 0.9270
5.1886 17.6708 -2.1877 0.9285
3.9045 17.9489 -2.1819 0.9287
3.2423 17.9708 -2.1691 0.9291
1.4200 19.8548 -2.3645 0.9229
0.6464 18.0992 -2.1513 0.9296
-0.6414 17.9573 -2.1344 0.9302
-1.2866 17.9890 -2.1423 0.9299
-1.9604 18.2345 -2.1785 0.9288
-4.2282 19.4365 -2.3628 0.9230
-6.0654 18.2237 -2.2815 0.9256
-6.8107 18.2603 -2.3150 0.9245
-7.6067 18.3643 -2.3612 0.9231
-8.2561 18.0783 -2.3608 0.9231
-8.8946 17.7691 -2.3604 0.9231
-9.5215 17.4374 -2.3600 0.9231
-10.7374 16.7077 -2.3592 0.9231
-11.8975 15.8932 -2.3583 0.9231
-12.4547 15.4554 -2.3578 0.9232
-12.9958 14.9979 -2.3573 0.9232
-13.5201 14.5216 -2.3568 0.9232
-11.1639 10.3939 -1.8119 0.9404
-11.1800 9.6875 -1.7572 0.9422
-11.2165 9.0388 -1.7111 0.9436
-17.0336 10.1065 -2.3527 0.9233
-17.3794 9.4899 -2.3521 0.9233
-20.3959 5.2058 -2.5004 0.9187
-20.9097 2.2480 -2.4981 0.9188
-21.0072 0.7503 -2.4970 0.9188
17.6782 0.6314 -2.5064 0.9310
17.6477 1.2622 -2.5069 0.9310
17.3006 3.7635 -2.5086 0.9310
17.1582 4.3794 -2.5091 0.9310
16.9937 4.9898 -2.5095 0.9309
16.8075 5.5941 -2.5099 0.9309
15.1398 6.9141 -2.3583 0.9350
14.8855 7.4511 -2.3586 0.9350
14.6120 7.9788 -2.3589 0.9350
13.3345 9.9820 -2.3601 0.9349
12.5911 10.9102 -2.3606 0.9349
12.1948 11.3538 -2.3608 0.9349
11.7829 11.7829 -2.3610 0.9349
11.3558 12.1970 -2.3612 0.9349
7.2739 9.0264 -1.6425 0.9542
7.1464 9.5464 -1.6896 0.9530
9.5070 13.6928 -2.3619 0.9349
8.5068 14.3375 -2.3621 0.9349
7.9900 14.6326 -2.3622 0.9349
7.4629 14.9089 -2.3623 0.9349
6.3805 15.4040 -2.3624 0.9349
5.2655 15.8201 -2.3624 0.9349
4.6974 15.9979 -2.3624 0.9349
4.1234 16.1552 -2.3624 0.9349
3.5441 16.2919 -2.3624 0.9349
2.3727 16.5022 -2.3622 0.9349
1.7821 16.5758 -2.3621 0.9349
-1.7814 16.5696 -2.3613 0.9349
-2.3715 16.4940 -2.3611 0.9349
-2.9584 16.3974 -2.3608 0.9349
-5.2596 15.8027 -2.3598 0.9349
-6.3720 15.3834 -2.3592 0.9349
-7.4512 14.8856 -2.3586 0.9350
-8.9957 13.9976 -2.3576 0.9350
-10.4354 12.9496 -2.3564 0.9350
-10.8892 12.5667 -2.3560 0.9350
-11.0506 11.0507 -2.2143 0.9388
-11.1640 10.3940 -2.1613 0.9402
-11.2162 9.0385 -2.0410 0.9435
-12.1417 9.0891 -2.1490 0.9406
-12.9474 8.9896 -2.2333 0.9383
-13.9682 8.9768 -2.3526 0.9351
-14.5674 7.9544 -2.3517 0.9351
-15.7130 7.8653 -2.4897 0.9315
-16.3180 6.7591 -2.5026 0.9311
-16.9370 4.9732 -2.5011 0.9312
-17.2418 3.7507 -2.5001 0.9312
-17.3613 3.1323 -2.4996 0.9312
-17.5865 1.2578 -2.4982 0.9312
15.2006 0.5429 -2.5057 0.9402
14.9779 2.7023 -2.5073 0.9402
14.8741 3.2357 -2.5077 0.9402
14.7513 3.7650 -2.5080 0.9401
14.6095 4.2898 -2.5084 0.9401
14.4491 4.8091 -2.5087 0.9401
12.5604 6.8585 -2.3576 0.9436
11.7592 8.1645 -2.3583 0.9436
10.8221 9.3774 -2.3590 0.9436
10.4814 9.7586 -2.3592 0.9436
7.6203 8.1847 -1.8423 0.9557
7.1431 9.5420 -1.9636 0.9528
6.4402 9.2757 -1.8603 0.9553
6.8668 12.5756 -2.3604 0.9436
5.0076 13.4258 -2.3606 0.9436
4.5252 13.5961 -2.3606 0.9436
4.0370 13.7489 -2.3606 0.9436
3.0458 14.0015 -2.3605 0.9436
1.5316 14.2457 -2.3603 0.9436
1.0221 14.2907 -2.3603 0.9436
0.5113 14.3175 -2.3602 0.9436
-0.5113 14.3159 -2.3599 0.9436
-1.0219 14.2877 -2.3598 0.9436
-2.0383 14.1764 -2.3594 0.9436
-2.5427 14.0935 -2.3592 0.9436
-4.0336 13.7372 -2.3586 0.9436
-5.0023 13.4117 -2.3581 0.9436
-5.4772 13.2232 -2.3579 0.9436
-5.9450 13.0178 -2.3576 0.9436
-6.4051 12.7958 -2.3573 0.9436
-7.7333 12.0332 -2.3564 0.9437
-8.5697 11.4478 -2.3558 0.9437
-9.3619 10.8042 -2.3551 0.9437
-10.7976 9.3562 -2.3537 0.9437
-11.7302 8.1444 -2.3525 0.9438
-12.0668 7.7549 -2.3630 0.9435
-13.0354 7.7343 -2.4970 0.9404
-13.8199 6.3113 -2.5029 0.9403
-14.5676 4.2774 -2.5012 0.9403
-14.8306 3.2262 -2.5003 0.9403
-14.9338 2.6943 -2.4999 0.9403
-15.0179 2.1593 -2.4995 0.9403
-15.0829 1.6216 -2.4991 0.9404
-15.1287 1.0820 -2.4987 0.9404
13.3265 0.0000 -2.5049 0.9472
13.2963 0.9510 -2.5056 0.9472
13.1981 1.8976 -2.5062 0.9472
13.1237 2.3678 -2.5066 0.9472
13.0326 2.8351 -2.5069 0.9472
12.8003 3.7585 -2.5075 0.9472
12.6595 4.2135 -2.5078 0.9471
12.5026 4.6632 -2.5081 0.9471
12.1408 5.5445 -2.5087 0.9471
11.2756 6.6901 -2.4643 0.9480
10.3015 7.1525 -2.3572 0.9502
9.4803 8.2147 -2.3578 0.9502
8.6487 8.0522 -2.2211 0.9530
8.1587 8.1587 -2.1687 0.9541
7.1130 8.2089 -2.0416 0.9568
6.4058 8.5571 -2.0091 0.9574
6.3766 9.9222 -2.2169 0.9531
5.2140 11.4171 -2.3592 0.9502
4.8032 11.5961 -2.3592 0.9502
4.3863 11.7602 -2.3592 0.9502
3.9638 11.9093 -2.3592 0.9502
2.2285 12.3517 -2.3591 0.9502
0.8953 12.5180 -2.3589 0.9502
0.4479 12.5415 -2.3588 0.9502
0.0000 12.5489 -2.3587 0.9502
-0.4479 12.5403 -2.3586 0.9502
-0.8951 12.5157 -2.3585 0.9502
-1.3412 12.4750 -2.3583 0.9502
-2.6665 12.2576 -2.3578 0.9502
-3.1020 12.1537 -2.3577 0.9502
-3.5336 12.0342 -2.3575 0.9502
-5.2083 11.4046 -2.3566 0.9503
-5.6115 11.2103 -2.3563 0.9503
-6.0074 11.0016 -2.3561 0.9503
-6.7754 10.5427 -2.3555 0.9503
-7.5084 10.0301 -2.3550 0.9503
-7.8607 9.7545 -2.3547 0.9503
-8.8549 8.8549 -2.3538 0.9503
-9.1641 8.5321 -2.3535 0.9503
-9.4615 8.1984 -2.3531 0.9503
-10.2715 7.6891 -2.4117 0.9491
-10.9200 7.5819 -2.4988 0.9473
-11.2079 7.2029 -2.5042 0.9472
-11.6898 6.3831 -2.5034 0.9472
-12.2997 5.0947 -2.5023 0.9473
-12.4718 4.6517 -2.5020 0.9473
-12.6280 4.2030 -2.5016 0.9473
-12.7681 3.7491 -2.5012 0.9473
-13.1639 1.8927 -2.4997 0.9473
-13.2850 0.4745 -2.4987 0.9473
11.5859 2.5204 -2.5063 0.9527
11.4899 2.9326 -2.5066 0.9527
11.3792 3.3412 -2.5069 0.9527
11.2538 3.7456 -2.5071 0.9527
11.1142 4.1454 -2.5074 0.9527
10.4151 5.6871 -2.5084 0.9526
9.7210 6.7494 -2.5016 0.9528
9.0966 6.8096 -2.4019 0.9546
8.6826 6.9970 -2.3571 0.9554
8.4266 7.3017 -2.3569 0.9554
7.8852 7.8852 -2.3572 0.9554
7.0395 8.1240 -2.2722 0.9570
5.3461 9.7906 -2.3580 0.9554
4.9933 9.9754 -2.3580 0.9554
4.2691 10.3065 -2.3581 0.9554
2.9341 7.8666 -1.7747 0.9663
3.1430 10.7039 -2.3581 0.9554
2.7589 10.8092 -2.3581 0.9554
2.3713 10.9006 -2.3581 0.9554
1.9807 10.9782 -2.3580 0.9554
1.5875 11.0416 -2.3580 0.9554
-0.7956 11.1243 -2.3575 0.9554
-1.1921 11.0882 -2.3573 0.9554
-1.5870 11.0379 -2.3572 0.9554
-2.3701 10.8952 -2.3569 0.9554
-3.1409 10.6969 -2.3566 0.9554
-4.6297 10.1376 -2.3558 0.9555
-6.0230 9.3719 -2.3549 0.9555
-6.3530 9.1500 -2.3546 0.9555
-6.6748 8.9165 -2.3544 0.9555
-7.2923 8.4157 -2.3538 0.9555
-8.1908 7.6259 -2.3656 0.9553
-9.2119 7.4235 -2.5008 0.9528
-9.7313 6.7566 -2.5042 0.9527
-10.3938 5.6754 -2.5032 0.9527
-10.9366 4.5301 -2.5022 0.9528
-11.0898 4.1363 -2.5019 0.9528
-11.2289 3.7373 -2.5016 0.9528
-11.3537 3.3337 -2.5013 0.9528
-11.5595 2.5146 -2.5006 0.9528
-11.7064 1.6831 -2.4999 0.9528
-11.7575 1.2641 -2.4996 0.9528
-11.8147 0.4220 -2.4990 0.9528
10.6304 0.7603 -2.5048 0.9572
10.5976 1.1394 -2.5050 0.9571
10.5513 1.5171 -2.5053 0.9571
10.4916 1.8929 -2.5056 0.9571
9.9937 3.7275 -2.5068 0.9571
9.5406 4.7757 -2.5075 0.9571
9.1771 5.4450 -2.5079 0.9571
8.9776 5.7695 -2.5081 0.9571
8.7666 6.0867 -2.5083 0.9571
8.5428 6.3950 -2.5080 0.9571
8.2941 6.6838 -2.5035 0.9572
7.0896 7.0896 -2.3564 0.9596
6.8324 7.3385 -2.3565 0.9596
6.0096 8.0279 -2.3568 0.9596
5.4220 8.4367 -2.3570 0.9596
5.1175 8.6251 -2.3571 0.9596
4.8065 8.8025 -2.3571 0.9596
4.1664 9.1233 -2.3572 0.9596
2.9155 7.8166 -1.9607 0.9663
2.6279 7.8955 -1.9557 0.9664
1.7808 9.8701 -2.3572 0.9596
1.4273 9.9272 -2.3571 0.9596
0.3579 10.0221 -2.3569 0.9596
-0.3579 10.0213 -2.3567 0.9596
-1.4269 9.9242 -2.3564 0.9596
-1.7801 9.8664 -2.3563 0.9596
-2.1310 9.7960 -2.3561 0.9596
-2.8240 9.6178 -2.3558 0.9596
-3.1653 9.5102 -2.3557 0.9597
-4.1628 9.1153 -2.3551 0.9597
-4.8017 8.7936 -2.3547 0.9597
-5.7126 8.2277 -2.3541 0.9597
-6.0020 8.0178 -2.3539 0.9597
-6.2838 7.7977 -2.3536 0.9597
-6.5623 7.5733 -2.3552 0.9597
-7.0502 7.5725 -2.4316 0.9584
-7.5178 7.5178 -2.4987 0.9573
-7.7948 7.2572 -2.5030 0.9572
-8.0545 6.9792 -2.5048 0.9572
-4.4315 3.3174 -1.3010 0.9775
-4.4736 3.1061 -1.2800 0.9779
-9.3476 5.1041 -2.5031 0.9572
-9.5227 4.7667 -2.5028 0.9572
-9.6856 4.4232 -2.5025 0.9572
-9.8361 4.0742 -2.5022 0.9572
-9.9741 3.7201 -2.5019 0.9572
-10.3109 2.6317 -2.5010 0.9572
-10.5294 1.5139 -2.5001 0.9572
-10.5755 1.1370 -2.4998 0.9572
-10.6081 0.7587 -2.4995 0.9572
-10.6272 0.3795 -2.4992 0.9572
9.6482 0.6900 -2.5045 0.9608
9.6184 1.0341 -2.5047 0.9608
9.5219 1.7180 -2.5052 0.9608
9.4554 2.0569 -2.5054 0.9608
9.1839 3.0567 -2.5061 0.9608
8.9439 3.7047 -2.5065 0.9608
8.6582 4.3340 -2.5069 0.9608
8.4986 4.6406 -2.5071 0.9608
8.1471 5.2358 -2.5075 0.9608
7.7538 5.8044 -2.5078 0.9608
7.5422 6.0779 -2.5080 0.9608
7.3208 6.3435 -2.5081 0.9608
7.0828 6.5943 -2.5056 0.9608
6.8328 6.8328 -2.5019 0.9609
6.0345 6.9642 -2.3859 0.9626
5.7097 7.0854 -2.3561 0.9631
5.4534 7.2849 -2.3561 0.9631
4.3616 7.9877 -2.3564 0.9631
4.0738 8.1384 -2.3564 0.9631
3.4829 8.4085 -2.3565 0.9631
2.9064 7.7923 -2.1533 0.9662
2.6105 7.8433 -2.1403 0.9664
2.5642 8.7327 -2.3565 0.9631
2.2508 8.8186 -2.3565 0.9631
1.6159 8.9565 -2.3564 0.9631
1.2952 9.0083 -2.3564 0.9631
0.9728 9.0486 -2.3563 0.9631
-0.0000 9.1000 -2.3561 0.9631
-0.6491 9.0761 -2.3560 0.9631
-1.6154 8.9534 -2.3556 0.9631
-2.5628 8.7280 -2.3552 0.9631
-3.1785 8.5218 -2.3549 0.9631
-4.0703 8.1315 -2.3544 0.9631
-4.9224 7.6594 -2.3574 0.9631
-5.6291 7.5196 -2.4320 0.9619
-6.5932 7.0816 -2.5052 0.9608
-7.3103 6.3344 -2.5045 0.9608
-7.5310 6.0688 -2.5042 0.9608
-8.1340 5.2274 -2.5035 0.9608
-8.3145 4.9332 -2.5032 0.9608
-8.6435 4.3266 -2.5027 0.9608
-8.9282 3.6982 -2.5021 0.9609
-9.0535 3.3768 -2.5019 0.9609
-9.2693 2.7217 -2.5013 0.9609
-9.4378 2.0531 -2.5008 0.9609
-9.5041 1.7147 -2.5005 0.9609
-9.6002 1.0321 -2.5000 0.9609
-9.6473 0.3446 -2.4995 0.9609
8.8443 0.0000 -2.5038 0.9639
8.8395 0.3157 -2.5040 0.9639
8.8234 0.6311 -2.5042 0.9639
8.7575 1.2591 -2.5047 0.9639
8.3983 2.7952 -2.5057 0.9639
8.2938 3.0934 -2.5059 0.9639
8.1788 3.3877 -2.5061 0.9639
7.9174 3.9632 -2.5065 0.9639
7.6155 4.5185 -2.5068 0.9639
7.2747 5.0509 -2.5071 0.9639
6.8966 5.5576 -2.5074 0.9638
6.6942 5.8005 -2.5075 0.9638
6.0366 6.4838 -2.5079 0.9638
5.7944 6.6871 -2.5049 0.9639
5.2312 6.9881 -2.4712 0.9644
4.5256 7.0419 -2.3697 0.9658
3.7250 7.4415 -2.3558 0.9660
3.4570 7.5698 -2.3559 0.9660
1.1843 8.2369 -2.3558 0.9660
0.5936 8.3001 -2.3557 0.9660
0.2970 8.3158 -2.3556 0.9660
0.0000 8.3208 -2.3556 0.9660
-0.8894 8.2722 -2.3553 0.9660
-1.1840 8.2349 -2.3552 0.9660
-1.7683 8.1287 -2.3550 0.9660
-3.1825 7.6833 -2.3543 0.9660
-3.4545 7.5643 -2.3542 0.9660
-3.7298 7.4513 -2.3589 0.9660
-5.5530 6.8909 -2.5053 0.9639
-6.0294 6.4761 -2.5049 0.9639
-6.2562 6.2562 -2.5047 0.9639
-6.6854 5.7929 -2.5042 0.9639
-7.4389 4.7807 -2.5033 0.9639
-7.6041 4.5117 -2.5031 0.9639
-7.9050 3.9570 -2.5026 0.9639
-8.3844 2.7906 -2.5016 0.9639
-8.4778 2.4893 -2.5013 0.9639
-8.5604 2.1849 -2.5011 0.9639
-8.6928 1.5683 -2.5006 0.9639
-8.7424 1.2570 -2.5004 0.9639
-8.7808 0.9440 -2.5001 0.9640
-8.8241 0.3152 -2.4996 0.9640
8.1352 0.2905 -2.5038 0.9665
8.0595 1.1588 -2.5044 0.9665
8.0137 1.4458 -2.5046 0.9665
7.9576 1.7310 -2.5048 0.9665
7.8150 2.2947 -2.5052 0.9665
7.7287 2.5724 -2.5054 0.9665
7.5266 3.1176 -2.5058 0.9665
7.4110 3.3845 -2.5059 0.9665
7.2860 3.6471 -2.5061 0.9665
7.1516 3.9051 -2.5062 0.9665
7.0081 4.1581 -2.5064 0.9665
6.8556 4.4058 -2.5065 0.9665
6.6944 4.6480 -2.5067 0.9665
6.5246 4.8842 -2.5068 0.9665
6.3464 5.1142 -2.5069 0.9665
5.7641 5.7641 -2.5073 0.9665
5.5549 5.9664 -2.5074 0.9665
5.3386 6.1611 -2.5075 0.9665
4.6458 6.6912 -2.5055 0.9665
4.3998 6.8463 -2.5031 0.9665
3.8529 7.0560 -2.4728 0.9669
3.2423 7.0997 -2.4006 0.9679
2.6761 7.1750 -2.3554 0.9685
2.4183 7.2659 -2.3554 0.9685
2.1575 7.3476 -2.3554 0.9685
1.8938 7.4199 -2.3554 0.9685
1.6278 7.4827 -2.3553 0.9685
1.0898 7.5796 -2.3553 0.9685
0.8185 7.6135 -2.3552 0.9685
0.5463 7.6377 -2.3552 0.9685
0.0000 7.6568 -2.3551 0.9685
-0.2733 7.6517 -2.3550 0.9685
-0.5462 7.6368 -2.3549 0.9685
-1.0895 7.5778 -2.3547 0.9685
-1.8931 7.4169 -2.3544 0.9685
-2.1653 7.3742 -2.3639 0.9683
-3.3750 7.3902 -2.4989 0.9666
-3.6396 7.2711 -2.5010 0.9665
-4.1567 7.0057 -2.5055 0.9665
-4.4042 6.8530 -2.5056 0.9665
-4.6456 6.6910 -2.5054 0.9665
-4.8811 6.5204 -2.5052 0.9665
-5.3330 6.1546 -2.5048 0.9665
-5.5489 5.9599 -2.5046 0.9665
-5.7576 5.7576 -2.5044 0.9665
-5.9589 5.5479 -2.5042 0.9665
-6.1526 5.3313 -2.5040 0.9665
-6.3385 5.1079 -2.5038 0.9665
-4.4879 3.3596 -1.7243 0.9768
-4.4895 3.1171 -1.6811 0.9774
-4.9893 2.9603 -1.7844 0.9760
-7.2755 3.6419 -2.5025 0.9665
-7.6211 2.8425 -2.5018 0.9665
-7.8030 2.2912 -2.5014 0.9665
-7.9451 1.7284 -2.5009 0.9665
-8.0010 1.4435 -2.5007 0.9665
-8.0822 0.8689 -2.5002 0.9666
7.5271 0.2688 -2.5036 0.9688
7.4569 1.0722 -2.5042 0.9687
6.6165 3.6129 -2.5059 0.9687
6.4837 3.8470 -2.5060 0.9687
6.3426 4.0762 -2.5062 0.9687
6.1934 4.3002 -2.5063 0.9687
5.3327 5.3327 -2.5069 0.9687
4.7326 5.8728 -2.5071 0.9687
4.3018 6.1958 -2.5072 0.9687
3.8490 6.4871 -2.5074 0.9687
3.6149 6.6201 -2.5073 0.9687
2.3714 7.1250 -2.4961 0.9688
2.0973 7.1426 -2.4745 0.9691
1.8273 7.1594 -2.4561 0.9693
0.7762 7.2194 -2.4136 0.9699
0.2588 7.2456 -2.4100 0.9699
0.0000 7.2580 -2.4126 0.9699
-0.2596 7.2698 -2.4181 0.9698
-0.5208 7.2812 -2.4265 0.9697
-0.7840 7.2921 -2.4379 0.9696
-1.3193 7.3126 -2.4700 0.9692
-1.5929 7.3223 -2.4909 0.9689
-1.8598 7.2865 -2.4997 0.9688
-2.1197 7.2191 -2.5010 0.9688
-2.3773 7.1428 -2.5024 0.9688
-3.8461 6.4822 -2.5055 0.9687
-4.0747 6.3404 -2.5053 0.9687
-4.7282 5.8673 -2.5048 0.9687
-4.9342 5.6944 -2.5046 0.9687
-5.6927 4.9327 -2.5038 0.9687
-4.5070 3.3739 -1.8714 0.9765
-4.5107 3.1318 -1.8253 0.9771
-4.5748 2.9401 -1.8077 0.9773
-5.0292 2.9840 -1.9438 0.9757
-6.7319 3.3698 -2.5024 0.9688
-7.2202 2.1201 -2.5014 0.9688
-7.3519 1.5993 -2.5010 0.9688
-7.4788 0.8041 -2.5003 0.9688
-7.5159 0.2684 -2.4999 0.9688
7.0002 0.0000 -2.5033 0.9707
6.9962 0.2499 -2.5035 0.9707
6.9833 0.4995 -2.5037 0.9707
6.8914 1.2434 -2.5042 0.9707
6.8431 1.4886 -2.5044 0.9707
6.4721 2.6808 -2.5052 0.9707
6.3727 2.9103 -2.5053 0.9707
6.2651 3.1361 -2.5055 0.9707
6.1495 3.3579 -2.5056 0.9707
6.0260 3.5754 -2.5057 0.9707
5.7562 3.9966 -2.5060 0.9707
5.1297 4.7759 -2.5064 0.9707
4.9561 4.9561 -2.5065 0.9707
4.7763 5.1301 -2.5066 0.9707
4.5902 5.2974 -2.5066 0.9707
4.2009 5.6117 -2.5068 0.9707
3.9980 5.7582 -2.5068 0.9707
3.5772 6.0290 -2.5069 0.9707
3.1380 6.2690 -2.5070 0.9707
2.6829 6.4770 -2.5071 0.9707
2.4500 6.5687 -2.5071 0.9707
2.2140 6.6519 -2.5071 0.9707
1.4889 6.8445 -2.5049 0.9707
0.9964 6.9303 -2.5038 0.9707
0.7483 6.9605 -2.5035 0.9707
0.4994 6.9822 -2.5032 0.9707
0.0000 7.0000 -2.5033 0.9707
-0.2499 6.9961 -2.5035 0.9707
-0.9969 6.9334 -2.5049 0.9707
-1.2441 6.8955 -2.5057 0.9707
-1.4898 6.8484 -2.5063 0.9707
-2.4488 6.5655 -2.5059 0.9707
-2.6814 6.4736 -2.5057 0.9707
-3.5746 6.0247 -2.5052 0.9707
-3.7872 5.8929 -2.5050 0.9707
-4.1974 5.6071 -2.5047 0.9707
-4.3946 5.4533 -2.5045 0.9707
-5.2912 4.5848 -2.5037 0.9707
-5.4510 4.3927 -2.5035 0.9707
-4.4884 3.3600 -2.0050 0.9765
-4.5048 3.1278 -1.9612 0.9770
-6.2574 3.1322 -2.5024 0.9707
-6.6374 2.2091 -2.5016 0.9707
-6.7770 1.7297 -2.5012 0.9707
-6.8820 1.2417 -2.5008 0.9707
-6.9520 0.7474 -2.5004 0.9707
-6.9737 0.4988 -2.5002 0.9707
6.5320 0.0000 -2.5032 0.9724
6.4959 0.6984 -2.5037 0.9724
6.4673 0.9299 -2.5039 0.9724
6.4304 1.1602 -2.5040 0.9724
6.3320 1.6162 -2.5043 0.9724
6.2013 2.0640 -2.5046 0.9724
6.1241 2.2842 -2.5048 0.9724
6.0390 2.5014 -2.5049 0.9724
5.8458 2.9262 -2.5052 0.9724
5.7379 3.1331 -2.5053 0.9724
5.0916 4.1031 -2.5059 0.9724
4.9421 4.2823 -2.5060 0.9724
4.7863 4.4562 -2.5061 0.9724
4.6243 4.6243 -2.5062 0.9724
3.5362 5.5024 -2.5065 0.9724
3.1348 5.7409 -2.5066 0.9724
2.7173 5.9500 -2.5067 0.9724
1.8429 6.2762 -2.5067 0.9724
1.6177 6.3380 -2.5067 0.9724
1.3904 6.3916 -2.5067 0.9724
0.6992 6.5034 -2.5066 0.9724
0.4666 6.5241 -2.5065 0.9724
-0.2334 6.5362 -2.5064 0.9724
-0.6991 6.5025 -2.5062 0.9724
-1.1611 6.4356 -2.5061 0.9724
-1.3900 6.3899 -2.5060 0.9724
-1.6172 6.3359 -2.5059 0.9724
-3.1328 5.7373 -2.5051 0.9724
-3.3354 5.6216 -2.5049 0.9724
-4.2793 4.9386 -2.5042 0.9724
-4.6201 4.6201 -2.5039 0.9724
-4.7817 4.4520 -2.5037 0.9724
-4.9373 4.2782 -2.5035 0.9724
-5.0865 4.0989 -2.5034 0.9724
-5.3652 3.7251 -2.5030 0.9724
-4.5381 2.9164 -2.0672 0.9772
-5.7314 3.1296 -2.5025 0.9724
-5.8391 2.9228 -2.5023 0.9724
-5.9392 2.7123 -2.5021 0.9724
-6.0318 2.4985 -2.5019 0.9724
-6.1167 2.2814 -2.5018 0.9724
-6.3241 1.6141 -2.5012 0.9724
-6.3773 1.3873 -2.5010 0.9724
-6.4876 0.6975 -2.5005 0.9724
-6.5079 0.4655 -2.5003 0.9724
6.1124 0.2183 -2.5032 0.9739
6.0820 0.6539 -2.5036 0.9739
6.0552 0.8706 -2.5037 0.9739
5.9784 1.3005 -2.5040 0.9739
5.9285 1.5132 -2.5042 0.9739
5.8710 1.7239 -2.5043 0.9739
5.7337 2.1386 -2.5046 0.9739
5.5671 2.5424 -2.5048 0.9739
5.3721 2.9334 -2.5051 0.9739
5.1496 3.3094 -2.5053 0.9739
5.0284 3.4913 -2.5054 0.9739
4.7669 3.8414 -2.5056 0.9739
4.4810 4.1720 -2.5058 0.9739
4.3294 4.3294 -2.5059 0.9739
4.1722 4.4813 -2.5059 0.9739
3.8421 4.7678 -2.5061 0.9739
3.6696 4.9020 -2.5061 0.9739
3.4923 5.0299 -2.5062 0.9739
3.1247 5.2664 -2.5063 0.9739
2.9348 5.3747 -2.5063 0.9739
2.3435 5.6578 -2.5064 0.9739
1.9339 5.8106 -2.5064 0.9739
1.7253 5.8759 -2.5064 0.9739
1.5145 5.9337 -2.5064 0.9739
1.3017 5.9839 -2.5063 0.9739
1.0873 6.0265 -2.5063 0.9739
0.8715 6.0614 -2.5063 0.9739
0.2186 6.1196 -2.5062 0.9739
0.0000 6.1233 -2.5061 0.9739
-0.2186 6.1193 -2.5061 0.9739
-0.4368 6.1075 -2.5060 0.9739
-1.3014 5.9824 -2.5057 0.9739
-1.7247 5.8739 -2.5055 0.9739
-1.9332 5.8083 -2.5054 0.9739
-2.1392 5.7354 -2.5053 0.9739
-2.5427 5.5677 -2.5051 0.9739
-2.9331 5.3716 -2.5048 0.9739
-3.4899 5.0265 -2.5045 0.9739
-3.8392 4.7642 -2.5042 0.9739
-4.0066 4.6238 -2.5040 0.9739
-4.1688 4.4776 -2.5039 0.9739
-4.3257 4.3257 -2.5037 0.9739
-4.4771 4.1683 -2.5036 0.9739
-4.4673 3.5999 -2.3481 0.9755
-4.5232 2.9069 -2.2006 0.9770
-5.5610 2.5396 -2.5021 0.9739
-5.7272 2.1361 -2.5018 0.9739
-5.7994 1.9302 -2.5016 0.9739
-5.8642 1.7219 -2.5014 0.9739
-6.0135 1.0849 -2.5009 0.9739
-6.0480 0.8696 -2.5007 0.9739
-6.0747 0.6531 -2.5006 0.9739
-6.1050 0.2180 -2.5002 0.9739
5.7293 0.4098 -2.5033 0.9752
5.7113 0.6140 -2.5034 0.9752
5.6536 1.0200 -2.5037 0.9752
5.5131 1.6188 -2.5041 0.9752
5.4521 1.8146 -2.5043 0.9752
5.3841 2.0082 -2.5044 0.9752
5.3093 2.1992 -2.5045 0.9752
4.8355 3.1076 -2.5051 0.9752
4.4761 3.6071 -2.5054 0.9752
4.3447 3.7647 -2.5054 0.9752
3.6077 4.4769 -2.5058 0.9752
3.4457 4.6029 -2.5059 0.9752
2.9341 4.9451 -2.5060 0.9752
2.7557 5.0468 -2.5060 0.9752
2.5739 5.1420 -2.5060 0.9752
2.3887 5.2306 -2.5061 0.9752
2.0095 5.3878 -2.5061 0.9752
1.6200 5.5174 -2.5061 0.9752
1.4221 5.5717 -2.5061 0.9752
1.0210 5.6589 -2.5060 0.9752
0.8183 5.6916 -2.5060 0.9752
-0.4102 5.7349 -2.5057 0.9752
-0.6146 5.7164 -2.5057 0.9752
-1.2220 5.6175 -2.5055 0.9752
-1.4217 5.5701 -2.5054 0.9752
-1.6195 5.5156 -2.5053 0.9752
-1.8153 5.4541 -2.5052 0.9752
-2.0087 5.3856 -2.5051 0.9752
-2.1996 5.3103 -2.5050 0.9752
-2.3876 5.2282 -2.5049 0.9752
-2.5726 5.1394 -2.5048 0.9752
-2.9324 4.9423 -2.5045 0.9752
-3.1068 4.8342 -2.5044 0.9752
-3.2772 4.7200 -2.5043 0.9752
-3.7623 4.3420 -2.5039 0.9752
-4.2042 3.9143 -2.5035 0.9752
-4.3410 3.7615 -2.5033 0.9752
-4.5977 3.4418 -2.5030 0.9753
-4.7173 3.2753 -2.5029 0.9753
-4.5183 2.9037 -2.3407 0.9768
-4.9384 2.9301 -2.5025 0.9753
-5.1342 2.5700 -2.5022 0.9753
-5.2223 2.3849 -2.5021 0.9753
-5.3784 2.0060 -2.5017 0.9753
-5.6473 1.0189 -2.5009 0.9753
-5.6797 0.8166 -2.5008 0.9753
-5.7049 0.6133 -2.5006 0.9753
-5.7228 0.4093 -2.5005 0.9753
-5.7334 0.2048 -2.5003 0.9753
5.4041 0.1930 -2.5031 0.9764
5.3771 0.5781 -2.5033 0.9764
5.3534 0.7697 -2.5035 0.9764
5.2854 1.1498 -2.5037 0.9764
5.2412 1.3377 -2.5039 0.9764
5.1330 1.7084 -2.5041 0.9764
4.9985 2.0704 -2.5044 0.9764
4.9216 2.2476 -2.5045 0.9764
4.8385 2.4220 -2.5046 0.9764
4.5524 2.9256 -2.5049 0.9764
4.4452 3.0864 -2.5050 0.9764
4.0903 3.5442 -2.5052 0.9764
3.9613 3.6881 -2.5053 0.9764
3.8272 3.8272 -2.5054 0.9764
3.5446 4.0907 -2.5055 0.9764
3.3964 4.2147 -2.5056 0.9764
3.2439 4.3333 -2.5056 0.9764
3.0872 4.4464 -2.5056 0.9764
2.7622 4.6555 -2.5057 0.9764
2.4231 4.8408 -2.5058 0.9764
1.8918 5.0722 -2.5058 0.9764
1.7096 5.1365 -2.5058 0.9764
1.5252 5.1942 -2.5058 0.9764
1.3388 5.2453 -2.5058 0.9764
1.1507 5.2897 -2.5058 0.9764
0.7704 5.3582 -2.5058 0.9764
0.3862 5.3994 -2.5057 0.9764
0.1932 5.4097 -2.5056 0.9764
-0.3861 5.3990 -2.5055 0.9764
-1.1504 5.2885 -2.5052 0.9764
-1.3384 5.2439 -2.5051 0.9764
-1.5247 5.1926 -2.5051 0.9764
-1.7090 5.1347 -2.5050 0.9764
-2.0708 4.9993 -2.5048 0.9764
-2.5930 4.7487 -2.5045 0.9764
-2.9249 4.5512 -2.5042 0.9764
-3.2418 4.3306 -2.5040 0.9764
-3.8243 3.8243 -2.5035 0.9764
-4.0870 3.5414 -2.5032 0.9764
-4.2105 3.3931 -2.5031 0.9764
-4.4413 3.0837 -2.5028 0.9764
-5.1278 1.7067 -2.5016 0.9765
-5.2799 1.1486 -2.5011 0.9765
-5.3172 0.9593 -2.5010 0.9765
-5.3477 0.7689 -2.5008 0.9765
5.1024 0.0000 -2.5028 0.9775
5.0899 0.3640 -2.5031 0.9775
5.0740 0.5455 -2.5032 0.9775
5.0226 0.9062 -2.5035 0.9775
4.8435 1.6121 -2.5040 0.9775
4.6440 2.1208 -2.5043 0.9775
4.5655 2.2853 -2.5044 0.9775
4.3912 2.6054 -2.5046 0.9775
4.2956 2.7606 -2.5047 0.9775
4.0880 3.0602 -2.5049 0.9775
3.9763 3.2043 -2.5049 0.9775
3.8595 3.3443 -2.5050 0.9775
3.7378 3.4800 -2.5051 0.9775
3.2048 3.9769 -2.5053 0.9775
2.6063 4.3928 -2.5055 0.9775
2.4479 4.4830 -2.5055 0.9775
1.6131 4.8466 -2.5056 0.9775
1.4391 4.9011 -2.5056 0.9775
1.2632 4.9493 -2.5056 0.9775
0.9069 5.0267 -2.5055 0.9775
0.7269 5.0559 -2.5055 0.9775
0.5460 5.0785 -2.5055 0.9775
0.3644 5.0947 -2.5055 0.9775
0.0000 5.1076 -2.5054 0.9775
-0.3644 5.0943 -2.5053 0.9775
-0.5459 5.0780 -2.5052 0.9775
-1.2629 4.9481 -2.5049 0.9775
-1.4387 4.8997 -2.5049 0.9775
-1.6126 4.8450 -2.5048 0.9775
-1.7844 4.7842 -2.5047 0.9775
-2.2853 4.5655 -2.5044 0.9775
-2.7599 4.2945 -2.5041 0.9775
-3.0590 4.0863 -2.5039 0.9775
-3.3424 3.8573 -2.5036 0.9775
-3.4778 3.7354 -2.5035 0.9775
-3.6087 3.6087 -2.5034 0.9775
-3.7350 3.4774 -2.5032 0.9775
-3.8565 3.3417 -2.5031 0.9775
-3.9732 3.2018 -2.5030 0.9775
-4.0847 3.0578 -2.5028 0.9775
-4.2919 2.7583 -2.5026 0.9775
-4.3874 2.6032 -2.5024 0.9775
-4.4773 2.4448 -2.5023 0.9775
-4.5614 2.2833 -2.5022 0.9775
-4.7122 1.9518 -2.5019 0.9775
-4.8930 1.4367 -2.5014 0.9775
-4.9408 1.2611 -2.5013 0.9775
-5.0177 0.9053 -2.5010 0.9775
-5.0465 0.7256 -2.5009 0.9775
-5.0689 0.5450 -2.5007 0.9775
-5.0943 0.1819 -2.5005 0.9775
4.8243 0.0000 -2.5028 0.9785
4.7762 0.6867 -2.5033 0.9785
4.7489 0.8568 -2.5034 0.9785
4.7155 1.0258 -2.5035 0.9785
4.6761 1.1935 -2.5036 0.9785
4.3908 2.0052 -2.5042 0.9785
4.3166 2.1607 -2.5043 0.9785
4.1518 2.4633 -2.5044 0.9785
3.9657 2.7534 -2.5046 0.9785
3.7594 3.0295 -2.5048 0.9785
3.6490 3.1619 -2.5048 0.9785
3.4143 3.4143 -2.5050 0.9785
3.1622 3.6494 -2.5051 0.9785
3.0300 3.7600 -2.5051 0.9785
2.8939 3.8658 -2.5052 0.9785
2.6108 4.0625 -2.5052 0.9785
2.0062 4.3929 -2.5053 0.9785
1.6877 4.5248 -2.5054 0.9785
1.3606 4.6337 -2.5054 0.9785
0.8575 4.7525 -2.5053 0.9785
0.3445 4.8168 -2.5052 0.9785
0.0000 4.8290 -2.5052 0.9785
-0.1724 4.8258 -2.5051 0.9785
-0.5162 4.8010 -2.5050 0.9785
-1.0263 4.7180 -2.5048 0.9785
-1.1940 4.6782 -2.5048 0.9785
-1.5246 4.5808 -2.5046 0.9785
-1.6871 4.5233 -2.5045 0.9785
-2.3133 4.2366 -2.5042 0.9785
-2.6095 4.0604 -2.5040 0.9785
-3.0282 3.7577 -2.5036 0.9785
-3.6464 3.1596 -2.5030 0.9785
-3.7566 3.0273 -2.5029 0.9785
-3.8621 2.8911 -2.5028 0.9785
-4.0581 2.6080 -2.5025 0.9785
-4.3129 2.1589 -2.5021 0.9785
-4.5183 1.6852 -2.5017 0.9785
-4.6265 1.3585 -2.5014 0.9785
-4.7111 1.0248 -2.5012 0.9785
-4.7717 0.6861 -2.5009 0.9785
4.5695 0.0000 -2.5027 0.9794
4.5582 0.3260 -2.5029 0.9794
4.5439 0.4885 -2.5031 0.9794
4.4289 1.1304 -2.5035 0.9794
4.3374 1.4436 -2.5037 0.9794
4.1587 1.8992 -2.5040 0.9794
3.9323 2.3331 -2.5043 0.9794
3.8466 2.4721 -2.5044 0.9794
3.7561 2.6079 -2.5044 0.9794
3.5606 2.8694 -2.5046 0.9794
2.3339 3.9335 -2.5051 0.9794
2.0473 4.0901 -2.5051 0.9794
1.9001 4.1606 -2.5051 0.9794
1.1312 4.4319 -2.5052 0.9794
0.9723 4.4694 -2.5051 0.9794
0.8121 4.5012 -2.5051 0.9794
0.6509 4.5273 -2.5051 0.9794
0.3263 4.5621 -2.5051 0.9794
0.1632 4.5708 -2.5050 0.9794
-0.1632 4.5706 -2.5049 0.9794
-0.4889 4.5471 -2.5048 0.9794
-0.6508 4.5267 -2.5048 0.9794
-0.9721 4.4685 -2.5047 0.9794
-2.0465 4.0884 -2.5041 0.9794
-2.1911 4.0126 -2.5040 0.9794
-2.4715 3.8458 -2.5038 0.9794
-2.7394 3.6594 -2.5036 0.9794
-2.8681 3.5591 -2.5035 0.9794
-2.9932 3.4543 -2.5034 0.9794
-3.1144 3.3451 -2.5033 0.9794
-3.4537 2.9926 -2.5030 0.9794
-3.6580 2.7384 -2.5027 0.9794
-3.7533 2.6059 -2.5026 0.9794
-3.8437 2.4702 -2.5025 0.9794
-3.9292 2.3313 -2.5023 0.9794
-4.0097 2.1895 -2.5022 0.9794
-4.1553 1.8977 -2.5020 0.9794
-4.4623 0.9707 -2.5012 0.9794
-4.4939 0.8108 -2.5011 0.9794
-4.5198 0.6498 -2.5009 0.9794
-4.5399 0.4881 -2.5008 0.9794
-4.5542 0.3257 -2.5007 0.9794
4.3347 0.0000 -2.5026 0.9802
4.3321 0.1547 -2.5028 0.9802
4.3105 0.4634 -2.5030 0.9802
4.1606 1.2217 -2.5035 0.9802
4.1145 1.3694 -2.5036 0.9802
3.9450 1.8016 -2.5039 0.9802
3.8066 2.0786 -2.5041 0.9802
3.7301 2.2132 -2.5041 0.9802
3.3776 2.7218 -2.5044 0.9802
3.0675 3.0675 -2.5046 0.9802
2.9561 3.1751 -2.5047 0.9802
2.8410 3.2787 -2.5047 0.9802
2.4743 3.5637 -2.5048 0.9802
2.2139 3.7313 -2.5049 0.9802
1.9421 3.8798 -2.5049 0.9802
1.8024 3.9466 -2.5050 0.9802
1.6604 4.0085 -2.5050 0.9802
1.5162 4.0652 -2.5050 0.9802
1.2224 4.1630 -2.5050 0.9802
1.0730 4.2040 -2.5050 0.9802
0.9223 4.2396 -2.5050 0.9802
0.7703 4.2698 -2.5049 0.9802
0.4638 4.3138 -2.5049 0.9802
0.3095 4.3275 -2.5049 0.9802
0.1549 4.3357 -2.5048 0.9802
-0.4637 4.3134 -2.5047 0.9802
-0.9221 4.2388 -2.5045 0.9802
-1.8017 3.9452 -2.5041 0.9802
-2.2129 3.7296 -2.5038 0.9802
-2.3445 3.6481 -2.5037 0.9802
-2.7207 3.3762 -2.5034 0.9802
-2.9544 3.1733 -2.5032 0.9802
-3.0657 3.0656 -2.5031 0.9802
-3.3754 2.7200 -2.5028 0.9802
-3.4701 2.5977 -2.5027 0.9802
-3.5605 2.4721 -2.5025 0.9802
-3.9419 1.8002 -2.5019 0.9802
-4.1572 1.2207 -2.5015 0.9802
-4.1979 1.0714 -2.5013 0.9802
-4.2332 0.9209 -2.5012 0.9802
-4.2632 0.7692 -2.5011 0.9802
-4.2877 0.6165 -2.5010 0.9802
-4.3068 0.4630 -2.5009 0.9802
-4.3204 0.3090 -2.5007 0.9802
-4.3285 0.1546 -2.5006 0.9802
