ply
format ascii 1.0
element vertex 1415
property float32 x
property float32 y
property float32 z
property float32 I
end_header
-12.5306 -12.6274 3.1368 0.9303
-19.1414 -20.7185 4.9737 0.8918
-14.3350 -20.8167 4.4567 0.9024
-11.0842 -18.8463 3.8552 0.9150
-9.4810 -20.9735 4.0585 0.9107
-8.6055 -21.0036 4.0023 0.9119
-7.7529 -21.0329 3.9526 0.9130
-6.9201 -21.0616 3.9090 0.9139
-5.3034 -21.1172 3.8392 0.9154
-3.7357 -21.1711 3.7907 0.9164
-2.9646 -21.1976 3.7741 0.9167
-2.1993 -21.2239 3.7624 0.9170
-1.4279 -21.1053 3.7299 0.9177
-0.6780 -21.2762 3.7535 0.9172
0.0819 -21.3023 3.7562 0.9171
0.8439 -21.3285 3.7637 0.9170
1.5989 -21.2094 3.7504 0.9172
5.5734 -21.4911 3.9148 0.9138
6.4088 -21.5198 3.9592 0.9128
7.2150 -21.4025 3.9825 0.9123
7.3492 -19.4750 3.6703 0.9189
9.9785 -21.6293 4.2001 0.9078
14.1102 -21.7713 4.5746 0.9000
15.2684 -21.8112 4.6946 0.8975
16.8881 -22.3799 4.9437 0.8924
19.6572 -22.5101 5.2695 0.8857
21.1686 -22.5620 5.4552 0.8819
24.5407 -22.6727 5.8913 0.8731
28.9042 -24.8517 6.7214 0.8566
23.2967 4.2958 4.1771 0.9083
22.4434 6.6838 4.1292 0.9093
31.6159 13.2384 6.0437 0.8700
-31.4807 -22.0373 5.8869 0.8560
-29.2583 -22.0786 5.6152 0.8621
-12.4900 -10.9070 2.5403 0.9351
-17.7957 -20.6977 4.1816 0.8954
-15.4307 -20.7790 3.9650 0.9006
-14.3350 -20.8167 3.8720 0.9028
-13.2882 -20.8527 3.7880 0.9048
-11.0842 -18.8463 3.3495 0.9153
-8.6055 -21.0036 3.4772 0.9122
-6.2469 -19.0126 3.0658 0.9222
-5.5106 -19.0379 3.0362 0.9229
-4.7962 -19.0975 3.0165 0.9234
-3.3784 -19.1462 2.9784 0.9243
-2.6762 -19.1354 2.9600 0.9248
0.0741 -19.2649 2.9513 0.9250
1.4533 -19.2773 2.9616 0.9248
2.8597 -19.3607 2.9981 0.9239
4.2929 -19.3749 3.0401 0.9228
6.4088 -21.5198 3.4398 0.9131
7.2150 -21.4025 3.4600 0.9127
7.3492 -19.4750 3.1888 0.9192
10.9479 -21.6626 3.7183 0.9064
14.1102 -21.7713 3.9745 0.9003
16.8881 -22.3799 4.2951 0.8927
19.9456 -24.5571 4.8466 0.8798
22.1539 -23.6122 4.9601 0.8772
22.9814 -22.8053 4.9599 0.8772
24.5015 -22.6364 5.1102 0.8737
28.5290 -22.8097 5.5957 0.8626
31.5251 13.2004 5.2358 0.8708
-36.5286 -21.8638 5.5437 0.8422
-33.8755 -21.9550 5.2568 0.8497
-26.5212 -23.1600 4.5851 0.8676
-25.8648 -24.2674 4.6185 0.8667
-12.5021 -12.5986 2.3113 0.9309
-20.6662 -22.3689 3.9658 0.8844
-17.7958 -20.6977 3.5545 0.8957
-13.9294 -18.7573 3.0424 0.9101
-12.9579 -18.8170 2.9752 0.9120
-12.0117 -18.8496 2.9106 0.9138
-9.3895 -18.9396 2.7528 0.9183
-8.5742 -18.9676 2.7106 0.9195
-6.2583 -19.0472 2.6108 0.9223
-4.7962 -19.0975 2.5641 0.9236
-4.0754 -19.0873 2.5416 0.9243
-3.3784 -19.1462 2.5318 0.9246
0.7632 -19.2886 2.5137 0.9251
1.4533 -19.2774 2.5174 0.9250
4.3007 -19.4102 2.5889 0.9229
5.0404 -19.4357 2.6147 0.9222
5.7958 -19.4616 2.6443 0.9214
6.5697 -19.4882 2.6781 0.9204
7.3492 -19.4750 2.7106 0.9195
8.1664 -19.5031 2.7534 0.9182
9.0273 -19.5675 2.8062 0.9167
9.9043 -19.5977 2.8594 0.9152
11.7683 -19.6618 2.9840 0.9117
12.7420 -19.6604 3.0509 0.9098
16.8881 -22.3799 3.6510 0.8931
19.9456 -24.5571 4.1198 0.8802
22.9855 -24.4985 4.3746 0.8733
28.7928 -24.7559 4.9448 0.8580
29.7419 -23.7795 4.9587 0.8576
22.3799 6.6650 3.0409 0.9101
-27.2675 -22.1470 3.7722 0.8682
-18.4843 -18.6270 2.8179 0.8998
-17.2484 -18.6695 2.7294 0.9028
-12.9579 -18.8170 2.4534 0.9122
-12.0117 -18.8496 2.4001 0.9140
-9.3896 -18.9396 2.2700 0.9185
-7.0114 -19.0213 2.1769 0.9217
-6.2583 -19.0472 2.1529 0.9225
-4.5781 -18.2289 2.0182 0.9272
-2.5539 -18.2609 1.9800 0.9285
-1.8939 -18.2769 1.9731 0.9287
-1.2378 -18.2957 1.9691 0.9289
-0.5837 -18.3172 1.9679 0.9289
4.3007 -19.4102 2.1349 0.9231
8.1664 -19.5031 2.2705 0.9185
9.0273 -19.5675 2.3140 0.9170
9.9043 -19.5977 2.3579 0.9155
11.7683 -19.6618 2.4606 0.9119
14.9187 -19.7701 2.6596 0.9052
16.0902 -19.8104 2.7405 0.9024
17.3370 -19.8532 2.8303 0.8994
26.7782 -24.7398 3.9149 0.8636
28.9042 -24.8517 4.0933 0.8578
32.8799 15.1688 3.8883 0.8644
-31.8974 -24.0700 3.3827 0.8518
-25.4721 -22.2438 2.8627 0.8731
-18.4843 -18.6270 2.2215 0.9000
-17.2484 -18.6695 2.1517 0.9030
-14.9630 -18.7148 2.0284 0.9083
-13.0136 -18.8979 1.9424 0.9120
-12.3295 -19.3483 1.9422 0.9120
-11.0842 -18.8463 1.8509 0.9160
-8.9315 -18.0157 1.7022 0.9225
-6.6694 -18.0935 1.6324 0.9255
-3.8836 -18.1893 1.5745 0.9281
-1.2368 -18.2803 1.5510 0.9291
0.0705 -18.3252 1.5513 0.9291
0.7260 -18.3478 1.5544 0.9289
1.3849 -18.3704 1.5595 0.9287
2.0491 -18.3932 1.5667 0.9284
3.4002 -18.4397 1.5873 0.9275
4.0909 -18.4634 1.6009 0.9269
5.5131 -18.5123 1.6351 0.9254
7.0053 -18.5636 1.6796 0.9234
8.1664 -19.5030 1.7899 0.9186
9.5778 -20.7609 1.9355 0.9123
10.3115 -20.4034 1.9352 0.9123
11.7406 -19.6154 1.9352 0.9123
12.7350 -19.6496 1.9822 0.9103
13.7804 -19.6855 2.0342 0.9080
14.8916 -19.7343 2.0928 0.9055
17.3370 -19.8532 2.2312 0.8996
24.5407 -22.6727 2.8283 0.8745
22.3176 6.6463 1.9713 0.9108
30.2123 13.9380 2.8166 0.8750
-36.5285 -21.8638 2.6399 0.8431
-29.2583 -22.0786 2.2729 0.8634
-27.2675 -22.1471 2.1783 0.8687
-12.7876 -20.0671 1.4755 0.9090
-8.9346 -18.0218 1.2473 0.9225
-7.4189 -18.1074 1.2134 0.9246
-5.9744 -18.1832 1.1868 0.9262
-5.2732 -18.2179 1.1761 0.9268
-3.9202 -18.3606 1.1642 0.9275
-1.2664 -18.7186 1.1634 0.9276
-0.5974 -18.7485 1.1632 0.9276
2.7385 -18.5405 1.1622 0.9276
3.4154 -18.5221 1.1679 0.9273
4.1070 -18.5363 1.1773 0.9267
11.5706 -20.9975 1.4867 0.9084
12.5848 -21.0259 1.5195 0.9065
13.7430 -21.2048 1.5669 0.9037
16.8881 -22.3800 1.7386 0.8937
17.4585 -21.4950 1.7172 0.8950
18.8113 -21.5415 1.7734 0.8917
21.8117 -21.6446 1.9055 0.8841
24.5015 -22.6364 2.0685 0.8749
28.5290 -22.8097 2.2650 0.8638
22.2867 6.6372 1.4421 0.9110
31.0820 13.0148 2.0896 0.8737
30.5406 14.0896 2.0857 0.8739
29.9995 15.1611 2.0843 0.8740
-26.1990 -21.2792 1.3309 0.8736
-24.4369 -21.3398 1.2793 0.8782
-21.2839 -21.4482 1.1915 0.8861
-14.9868 -18.7446 0.9463 0.9084
-12.8381 -18.6431 0.8926 0.9134
-13.1973 -20.7100 0.9683 0.9064
-10.2131 -18.8762 0.8463 0.9177
-10.0547 -22.2426 0.9625 0.9069
-8.3732 -22.7157 0.9546 0.9076
-7.4201 -22.5834 0.9373 0.9092
-6.5929 -22.7769 0.9350 0.9094
-5.7277 -22.8066 0.9272 0.9102
-4.0056 -22.7008 0.9089 0.9119
-3.2018 -22.8935 0.9115 0.9116
-1.5416 -22.7855 0.9005 0.9126
-0.7322 -22.9784 0.9065 0.9121
0.0885 -23.0066 0.9072 0.9120
3.4151 -23.1210 0.9216 0.9107
4.2381 -22.9842 0.9216 0.9107
5.1360 -23.1801 0.9362 0.9093
6.0193 -23.2105 0.9455 0.9085
6.8719 -23.0747 0.9494 0.9081
7.2358 -21.4643 0.8932 0.9133
7.8629 -17.0435 0.7401 0.9276
9.8436 -19.4776 0.8605 0.9163
11.7851 -19.6898 0.9048 0.9122
12.8462 -19.8211 0.9314 0.9098
13.9276 -19.8958 0.9576 0.9074
20.3286 -21.6667 1.1715 0.8879
27.9551 -24.0356 1.4537 0.8628
30.3890 -24.2968 1.5342 0.8558
36.0076 12.1385 1.4983 0.8589
30.8753 14.2439 1.3408 0.8727
-30.9425 -21.6606 0.6380 0.8598
-28.8020 -21.7342 0.6095 0.8656
-27.2675 -22.1471 0.5934 0.8689
-26.5837 -24.9419 0.6158 0.8643
-14.6813 -18.3625 0.3971 0.9102
-15.3251 -20.6369 0.4342 0.9023
-10.2131 -18.8762 0.3625 0.9177
-10.1196 -20.4122 0.3848 0.9129
-10.0547 -22.2426 0.4123 0.9070
-9.2940 -22.6840 0.4141 0.9066
-5.7277 -22.8066 0.3972 0.9102
-4.0056 -22.7008 0.3894 0.9119
-3.2018 -22.8935 0.3905 0.9117
-2.3752 -22.9219 0.3893 0.9119
-1.5416 -22.7855 0.3858 0.9127
0.0885 -23.0066 0.3886 0.9121
4.2381 -22.9842 0.3948 0.9107
5.1360 -23.1802 0.4011 0.9094
6.0193 -23.2105 0.4050 0.9085
7.3492 -19.4749 0.3516 0.9201
8.1664 -19.5030 0.3572 0.9189
9.6733 -19.1405 0.3623 0.9178
11.4938 -19.2031 0.3780 0.9144
12.4674 -19.2366 0.3872 0.9124
21.3695 -26.3101 0.5726 0.8732
22.6515 -25.9390 0.5817 0.8713
26.6594 -24.6300 0.6131 0.8648
27.9420 -22.3404 0.6043 0.8666
30.1876 -22.4175 0.6352 0.8603
47.4986 7.0158 0.8110 0.8252
47.2318 8.7092 0.8113 0.8252
22.2254 6.6189 0.3917 0.9114
30.6518 12.8346 0.5613 0.8755
29.9434 13.8141 0.5570 0.8764
13.3361 6.7398 0.2524 0.9420
-31.7126 -23.9306 -0.2237 0.8531
-27.2675 -22.1471 -0.1978 0.8689
-26.5227 -23.1613 -0.1983 0.8686
-25.7756 -25.9746 -0.2060 0.8638
-20.6662 -22.3689 -0.1715 0.8853
-15.3251 -20.6369 -0.1447 0.9023
-14.2369 -20.6743 -0.1413 0.9045
-11.0842 -18.8463 -0.1231 0.9163
-10.2132 -18.8762 -0.1208 0.9177
-10.0547 -22.2427 -0.1374 0.9070
-8.3732 -22.7157 -0.1363 0.9077
-4.0754 -19.0873 -0.1099 0.9249
-4.0056 -22.7008 -0.1298 0.9119
-3.2018 -22.8935 -0.1301 0.9117
0.0885 -23.0066 -0.1295 0.9121
1.4533 -19.2773 -0.1088 0.9256
3.4151 -23.1210 -0.1316 0.9107
5.1360 -23.1801 -0.1337 0.9094
6.0193 -23.2105 -0.1350 0.9085
6.8719 -23.0747 -0.1356 0.9082
7.2355 -21.4635 -0.1275 0.9134
7.3492 -19.4749 -0.1172 0.9201
8.1664 -19.5030 -0.1190 0.9189
9.9107 -21.4824 -0.1332 0.9097
15.1647 -21.6631 -0.1489 0.8996
21.3695 -26.3102 -0.1908 0.8732
22.6515 -25.9390 -0.1939 0.8713
22.9841 -24.4971 -0.1891 0.8743
26.6594 -24.6301 -0.2044 0.8649
28.7292 -24.7012 -0.2133 0.8594
30.9920 -24.7789 -0.2234 0.8532
48.3195 5.3829 -0.2737 0.8233
47.5179 8.7619 -0.2720 0.8243
22.1949 6.6099 -0.1304 0.9115
33.1738 11.1832 -0.1971 0.8693
30.7065 11.5876 -0.1848 0.8770
14.3662 6.6277 -0.0891 0.9387
30.4923 15.4103 -0.1924 0.8723
14.4241 7.9483 -0.0927 0.9362
-22.2398 -14.4138 -0.7462 0.8994
-20.5810 -14.4073 -0.7074 0.9044
-17.8374 -14.4878 -0.6471 0.9121
-15.5472 -14.5870 -0.6003 0.9182
-13.6753 -14.8020 -0.5674 0.9225
-12.6172 -14.6747 -0.5449 0.9255
-10.9412 -14.7335 -0.5167 0.9292
-9.5633 -15.0074 -0.5011 0.9313
-6.1503 -15.0111 -0.4568 0.9371
-5.5314 -15.0064 -0.4503 0.9380
-4.9753 -15.1423 -0.4488 0.9382
-4.4048 -15.2175 -0.4461 0.9386
-3.8078 -15.1617 -0.4402 0.9394
-2.7133 -15.3767 -0.4397 0.9394
-1.5920 -15.3629 -0.4349 0.9401
0.0595 -15.4808 -0.4359 0.9399
0.6113 -15.4516 -0.4354 0.9400
1.6888 -15.1592 -0.4295 0.9408
2.2796 -15.4332 -0.4393 0.9395
3.4389 -15.5208 -0.4476 0.9384
4.0521 -15.6247 -0.4545 0.9374
4.6183 -15.5077 -0.4556 0.9373
5.2069 -15.4456 -0.4590 0.9369
5.8650 -15.5420 -0.4678 0.9357
6.4485 -15.4003 -0.4701 0.9354
7.0566 -15.2958 -0.4743 0.9348
8.6060 -15.6176 -0.5021 0.9311
10.9749 -15.6778 -0.5389 0.9263
17.8793 -17.7424 -0.7093 0.9041
23.2151 -18.5611 -0.8369 0.8879
48.5770 -1.5479 -1.3685 0.8233
43.6515 1.7271 -1.2301 0.8396
47.5133 7.0179 -1.3524 0.8251
47.7150 8.7983 -1.3662 0.8235
22.1646 6.6008 -0.6512 0.9116
30.3870 11.4671 -0.9145 0.8781
14.3885 7.2717 -0.4540 0.9375
-22.1656 -14.3657 -1.3396 0.8996
-20.4220 -14.2959 -1.2642 0.9050
-19.0714 -14.3914 -1.2117 0.9087
-17.7242 -14.3958 -1.1580 0.9126
-16.4376 -14.3543 -1.1067 0.9163
-15.4856 -14.5292 -1.0769 0.9185
-14.3635 -14.4744 -1.0341 0.9216
-13.4697 -14.5795 -1.0066 0.9236
-12.5934 -14.6470 -0.9796 0.9256
-10.9765 -14.7810 -0.9337 0.9289
-10.1176 -14.6924 -0.9047 0.9310
-8.6905 -14.7762 -0.8694 0.9336
-5.5577 -15.0777 -0.8149 0.9377
-3.8095 -15.1687 -0.7932 0.9393
-3.2077 -15.0237 -0.7791 0.9403
-2.6948 -15.2721 -0.7865 0.9398
-1.5797 -15.2448 -0.7773 0.9405
-1.0180 -15.0469 -0.7648 0.9414
-0.4845 -15.2038 -0.7714 0.9409
0.0581 -15.1146 -0.7665 0.9413
0.6034 -15.2500 -0.7740 0.9407
2.2925 -15.5203 -0.7956 0.9391
4.6280 -15.5401 -0.8223 0.9371
5.7788 -15.3136 -0.8301 0.9365
6.4051 -15.2967 -0.8410 0.9357
8.4878 -15.4030 -0.8919 0.9320
9.2235 -15.4099 -0.9108 0.9306
10.8649 -15.5207 -0.9608 0.9269
15.0874 -19.9937 -1.2703 0.9045
16.7055 -19.1300 -1.2880 0.9033
17.4267 -18.5738 -1.2917 0.9030
18.0093 -17.8713 -1.2867 0.9034
23.4858 -18.7775 -1.5249 0.8865
41.8125 -26.6447 -2.5144 0.8199
43.6162 -23.5989 -2.5150 0.8199
44.4352 -22.0294 -2.5152 0.8198
45.9016 -18.8066 -2.5157 0.8198
46.5473 -17.1576 -2.5159 0.8198
47.1332 -15.4864 -2.5160 0.8198
48.1236 -12.0859 -2.5163 0.8198
39.7844 0.1530 -2.0176 0.8527
38.9071 4.3344 -1.9853 0.8549
36.7584 5.4294 -1.8844 0.8617
32.4117 7.1814 -1.6836 0.8755
27.4807 9.2640 -1.4707 0.8903
24.5465 10.2783 -1.3496 0.8989
14.3884 7.2717 -0.8176 0.9375
-23.0528 -13.7980 -1.9699 0.8978
-21.3837 -13.8589 -1.8684 0.9028
-19.0064 -14.3424 -1.7458 0.9089
-17.7370 -14.4062 -1.6754 0.9124
-16.6467 -14.5368 -1.6205 0.9152
-14.3791 -14.4902 -1.4968 0.9214
-13.5522 -14.6688 -1.4643 0.9230
-12.5861 -14.6385 -1.4155 0.9255
-11.7564 -14.7042 -1.3804 0.9273
-10.9357 -14.7262 -1.3449 0.9291
-8.7262 -14.8368 -1.2621 0.9333
-7.3261 -14.7773 -1.2093 0.9360
-4.2896 -14.8197 -1.1312 0.9400
-3.7508 -14.9349 -1.1291 0.9401
-3.1692 -14.8433 -1.1129 0.9409
-2.6417 -14.9714 -1.1147 0.9408
-1.5543 -14.9992 -1.1057 0.9413
0.0587 -15.2831 -1.1206 0.9405
2.2655 -15.3378 -1.1368 0.9397
3.9376 -15.1836 -1.1501 0.9390
4.5986 -15.4415 -1.1813 0.9374
5.7753 -15.3042 -1.1994 0.9365
6.3948 -15.2721 -1.2140 0.9358
7.0792 -15.3448 -1.2391 0.9345
7.8160 -15.4656 -1.2706 0.9329
10.0135 -15.4503 -1.3500 0.9288
16.6088 -19.0193 -1.8514 0.9037
17.2781 -18.4154 -1.8515 0.9037
17.7349 -17.5990 -1.8320 0.9046
26.4816 -18.2360 -2.3575 0.8790
30.6827 -15.2114 -2.5110 0.8717
31.2080 -14.1074 -2.5112 0.8717
31.6935 -12.9853 -2.5113 0.8716
32.9047 -9.5244 -2.5117 0.8716
33.2250 -8.3442 -2.5118 0.8716
33.5027 -7.1533 -2.5119 0.8716
33.7376 -5.9531 -2.5119 0.8716
34.2434 -1.0912 -2.5121 0.8716
32.1511 1.2721 -2.3592 0.8789
32.0849 2.4188 -2.3592 0.8789
31.9776 3.5624 -2.3592 0.8789
31.8295 4.7014 -2.3591 0.8789
31.6406 5.8343 -2.3591 0.8789
31.4112 6.9597 -2.3590 0.8789
31.1515 8.0787 -2.3597 0.8789
23.9667 10.0355 -1.9051 0.9010
-20.9409 -12.5339 -2.3430 0.9066
-20.4814 -13.2742 -2.3432 0.9066
-19.8764 -13.9140 -2.3293 0.9071
-14.0197 -14.1279 -1.9108 0.9231
-12.3000 -14.3057 -1.8113 0.9270
-11.7918 -14.7485 -1.8129 0.9269
-9.3536 -14.6783 -1.6710 0.9324
-7.9721 -14.7343 -1.6083 0.9349
-6.7203 -14.8664 -1.5663 0.9365
-4.2877 -14.8129 -1.4805 0.9399
-3.7501 -14.9323 -1.4781 0.9400
-2.6440 -14.9845 -1.4608 0.9407
-1.5717 -15.1673 -1.4639 0.9406
0.0582 -15.1274 -1.4523 0.9410
3.9269 -15.1423 -1.5018 0.9391
4.5256 -15.1964 -1.5223 0.9383
7.0679 -15.3203 -1.6198 0.9344
7.8031 -15.4401 -1.6609 0.9328
9.1645 -15.3115 -1.7132 0.9308
10.8147 -15.4489 -1.8105 0.9270
17.4101 -17.2767 -2.3548 0.9061
18.0171 -16.6456 -2.3549 0.9061
18.6011 -15.9932 -2.3551 0.9061
19.1615 -15.3201 -2.3553 0.9061
19.7131 -14.6390 -2.3573 0.9060
22.0340 -14.0410 -2.5084 0.9003
22.5224 -13.2464 -2.5085 0.9003
23.4126 -11.6071 -2.5088 0.9003
24.1832 -9.9082 -2.5090 0.9003
24.5224 -9.0391 -2.5091 0.9003
24.8303 -8.1584 -2.5092 0.9003
25.1066 -7.2672 -2.5093 0.9003
25.3506 -6.3666 -2.5094 0.9003
25.7415 -4.5421 -2.5095 0.9003
26.0805 -1.7646 -2.5096 0.9003
26.1270 -0.8325 -2.5096 0.9003
26.1401 0.1005 -2.5096 0.9003
26.1198 1.0334 -2.5096 0.9003
25.9564 2.8916 -2.5074 0.9004
24.7420 3.6545 -2.4011 0.9044
23.9667 5.3102 -2.3567 0.9061
22.1335 5.7400 -2.1952 0.9122
21.1484 6.2982 -2.1185 0.9151
21.4489 7.2306 -2.1731 0.9131
14.3657 6.6275 -1.5189 0.9384
14.3882 7.2715 -1.5477 0.9373
-16.1690 -11.3188 -2.3445 0.9236
-13.9066 -14.0140 -2.3452 0.9236
-12.2041 -14.1942 -2.2236 0.9274
-11.3729 -14.2245 -2.1633 0.9293
-10.5846 -14.2533 -2.1089 0.9310
-9.8341 -14.2807 -2.0597 0.9325
-9.1170 -14.3069 -2.0152 0.9339
-7.7676 -14.3562 -1.9389 0.9364
-5.9098 -14.4240 -1.8516 0.9391
-5.3247 -14.4454 -1.8288 0.9399
-4.7658 -14.5048 -1.8136 0.9404
-3.7196 -14.8104 -1.8139 0.9403
-2.1041 -15.0450 -1.8045 0.9406
-1.5729 -15.1791 -1.8127 0.9404
-1.0243 -15.1400 -1.8025 0.9407
-0.4849 -15.2158 -1.8083 0.9405
0.0581 -15.1156 -1.7955 0.9409
0.6025 -15.2278 -1.8103 0.9405
1.1522 -15.2845 -1.8207 0.9401
3.8382 -14.8002 -1.8162 0.9403
4.4078 -14.8008 -1.8344 0.9397
5.6018 -14.8444 -1.8847 0.9381
6.8697 -14.8907 -1.9480 0.9361
7.4086 -12.3778 -1.7136 0.9435
9.7182 -14.9948 -2.1225 0.9306
11.9323 -15.8125 -2.3531 0.9233
13.0317 -14.9231 -2.3534 0.9233
14.0650 -13.9573 -2.3537 0.9233
14.5552 -13.4472 -2.3539 0.9233
16.4782 -13.1747 -2.5061 0.9185
17.3820 -11.9698 -2.5069 0.9185
17.7990 -11.3423 -2.5071 0.9185
18.9120 -9.3759 -2.5074 0.9185
19.2354 -8.6953 -2.5075 0.9185
20.0566 -6.5899 -2.5078 0.9185
20.2796 -5.8700 -2.5078 0.9185
20.6476 -4.4085 -2.5079 0.9185
20.7921 -3.6688 -2.5080 0.9185
20.9101 -2.9244 -2.5080 0.9185
21.0659 -1.4253 -2.5080 0.9185
21.1034 -0.6725 -2.5081 0.9185
21.0976 0.8347 -2.5081 0.9185
20.9839 2.3377 -2.5080 0.9185
20.7631 3.8286 -2.5079 0.9185
20.5902 4.5621 -2.5052 0.9186
18.7879 6.3336 -2.3551 0.9232
18.5493 6.9999 -2.3551 0.9232
18.2870 7.6573 -2.3550 0.9232
14.3656 6.6274 -1.8793 0.9383
17.6928 8.9416 -2.3548 0.9233
-14.7893 -9.5851 -2.4971 0.9313
-14.4384 -10.1073 -2.4972 0.9313
-14.0609 -10.6104 -2.4959 0.9313
-12.0734 -11.3277 -2.3457 0.9353
-11.6621 -11.7521 -2.3459 0.9353
-11.2358 -12.1615 -2.3460 0.9353
-10.3408 -12.9336 -2.3463 0.9353
-9.8732 -13.2953 -2.3464 0.9353
-8.9007 -13.9675 -2.3467 0.9353
-8.3970 -14.2772 -2.3469 0.9353
-5.9098 -14.4240 -2.2086 0.9390
-5.3247 -14.4454 -2.1814 0.9397
-4.7532 -14.4663 -2.1575 0.9403
-4.1933 -14.4867 -2.1369 0.9409
-3.6433 -14.5068 -2.1193 0.9414
-2.0371 -14.5655 -2.0839 0.9423
-0.9881 -14.6038 -2.0739 0.9426
-0.4660 -14.6229 -2.0730 0.9426
0.0563 -14.6419 -2.0746 0.9426
0.5801 -14.6610 -2.0789 0.9424
2.1741 -14.7193 -2.1082 0.9417
2.7178 -14.7391 -2.1236 0.9412
6.2253 -14.8672 -2.2837 0.9370
9.0289 -13.9311 -2.3522 0.9351
9.5209 -13.6008 -2.3523 0.9351
10.0009 -13.2532 -2.3525 0.9351
10.4682 -12.8885 -2.3526 0.9351
12.5306 -12.4346 -2.5013 0.9312
13.4096 -11.5295 -2.5057 0.9310
13.8133 -11.0441 -2.5058 0.9310
14.9167 -9.5055 -2.5062 0.9310
15.2470 -8.9674 -2.5063 0.9310
16.1199 -7.2869 -2.5065 0.9310
16.3702 -6.7071 -2.5066 0.9310
16.9947 -4.9192 -2.5068 0.9310
17.1598 -4.3096 -2.5069 0.9310
17.3030 -3.6944 -2.5069 0.9310
17.4241 -3.0745 -2.5069 0.9310
17.5229 -2.4507 -2.5070 0.9310
17.6533 -1.1944 -2.5070 0.9310
17.6936 0.0681 -2.5070 0.9310
17.6799 0.6995 -2.5070 0.9310
17.6436 1.3301 -2.5070 0.9310
17.3997 3.2084 -2.5069 0.9310
17.2739 3.8273 -2.5069 0.9310
17.1260 4.4414 -2.5068 0.9310
15.8656 5.9872 -2.4027 0.9338
14.3655 6.6274 -2.2416 0.9381
14.8273 7.4935 -2.3539 0.9351
-13.0090 -7.7864 -2.4976 0.9404
-12.7233 -8.2461 -2.4977 0.9404
-11.4220 -9.9744 -2.4981 0.9404
-10.6714 -10.7538 -2.4958 0.9404
-10.2221 -11.0643 -2.4815 0.9408
-9.5380 -11.0934 -2.4101 0.9424
-8.4932 -11.4371 -2.3468 0.9439
-8.0801 -11.7335 -2.3470 0.9439
-7.6565 -12.0151 -2.3471 0.9439
-6.7806 -12.5322 -2.3474 0.9439
-6.3294 -12.7670 -2.3475 0.9439
-5.4031 -13.1875 -2.3478 0.9439
-2.9767 -13.9418 -2.3485 0.9438
-1.4697 -14.1829 -2.3490 0.9438
-0.4542 -14.2534 -2.3493 0.9438
0.0548 -14.2615 -2.3495 0.9438
0.5639 -14.2514 -2.3496 0.9438
1.0723 -14.2232 -2.3498 0.9438
1.5793 -14.1768 -2.3499 0.9438
2.0845 -14.1123 -2.3501 0.9438
3.0863 -13.9295 -2.3504 0.9438
4.5585 -13.5223 -2.3508 0.9438
5.5122 -13.1643 -2.3511 0.9438
6.4381 -12.7390 -2.3514 0.9438
6.8891 -12.5019 -2.3515 0.9438
7.3313 -12.2487 -2.3517 0.9438
8.3496 -11.9275 -2.3985 0.9427
9.0687 -12.0178 -2.4802 0.9408
9.5753 -11.7891 -2.5020 0.9403
10.0006 -11.4520 -2.5047 0.9402
10.4035 -11.0883 -2.5048 0.9402
11.1690 -10.3188 -2.5050 0.9402
12.5259 -8.6257 -2.5055 0.9402
12.8263 -8.1734 -2.5055 0.9402
13.3776 -7.2381 -2.5057 0.9402
13.6278 -6.7562 -2.5058 0.9402
14.0758 -5.7671 -2.5059 0.9402
14.2730 -5.2611 -2.5060 0.9402
14.7545 -3.7055 -2.5061 0.9402
14.8776 -3.1766 -2.5062 0.9402
14.9816 -2.6436 -2.5062 0.9402
15.0666 -2.1071 -2.5062 0.9402
15.1787 -1.0270 -2.5062 0.9402
15.2058 -0.4845 -2.5063 0.9402
15.2134 0.0585 -2.5063 0.9402
15.2016 0.6015 -2.5063 0.9402
15.0499 2.2229 -2.5062 0.9402
14.9608 2.7587 -2.5062 0.9402
14.7254 3.8188 -2.5061 0.9402
14.4149 4.8594 -2.5060 0.9402
14.2320 5.3707 -2.5059 0.9402
13.7711 6.3531 -2.4984 0.9404
12.5108 6.8940 -2.3532 0.9437
-11.4040 -6.8258 -2.4981 0.9473
-10.8887 -7.6224 -2.4983 0.9473
-10.6101 -8.0065 -2.4984 0.9473
-9.6946 -9.0958 -2.4987 0.9473
-9.3641 -9.4364 -2.4988 0.9473
-9.0217 -9.7650 -2.4989 0.9473
-8.3028 -10.3847 -2.4991 0.9473
-7.9268 -10.6743 -2.4991 0.9473
-7.5284 -10.9325 -2.4950 0.9474
-6.0482 -11.1784 -2.3889 0.9496
-5.5534 -11.2015 -2.3500 0.9504
-5.1453 -11.3823 -2.3479 0.9504
-4.7360 -11.5593 -2.3480 0.9504
-3.8997 -11.8690 -2.3482 0.9504
-3.4738 -12.0013 -2.3484 0.9504
-3.0434 -12.1183 -2.3485 0.9504
-2.6091 -12.2199 -2.3486 0.9504
-0.8437 -12.4697 -2.3492 0.9504
-0.3981 -12.4926 -2.3493 0.9504
0.0481 -12.4996 -2.3494 0.9504
0.4942 -12.4906 -2.3496 0.9504
0.9398 -12.4657 -2.3497 0.9504
1.3842 -12.4250 -2.3499 0.9504
1.8269 -12.3684 -2.3500 0.9504
2.2673 -12.2960 -2.3501 0.9504
2.7049 -12.2079 -2.3503 0.9504
3.5693 -11.9852 -2.3505 0.9504
3.9950 -11.8508 -2.3507 0.9504
4.8363 -11.5501 -2.3536 0.9503
5.3438 -11.5832 -2.3977 0.9494
6.4104 -11.6333 -2.4966 0.9474
6.8340 -11.4177 -2.5011 0.9473
8.0247 -10.6343 -2.5041 0.9472
8.3996 -10.3416 -2.5042 0.9472
9.1167 -9.7169 -2.5044 0.9472
9.4581 -9.3857 -2.5045 0.9472
9.7875 -9.0425 -2.5046 0.9472
10.1044 -8.6877 -2.5047 0.9472
10.4084 -8.3218 -2.5048 0.9472
10.6992 -7.9453 -2.5049 0.9472
10.9763 -7.5586 -2.5050 0.9472
11.2395 -7.1623 -2.5051 0.9472
11.4883 -6.7567 -2.5051 0.9472
11.7225 -6.3425 -2.5052 0.9472
11.9417 -5.9203 -2.5053 0.9472
12.3342 -5.0535 -2.5054 0.9472
12.6638 -4.1609 -2.5055 0.9472
12.8044 -3.7063 -2.5055 0.9472
12.9288 -3.2470 -2.5056 0.9472
13.0366 -2.7835 -2.5056 0.9472
13.1278 -2.3164 -2.5056 0.9472
13.2022 -1.8464 -2.5056 0.9472
13.2598 -1.3740 -2.5057 0.9472
13.3308 0.0512 -2.5057 0.9472
13.3204 0.5270 -2.5057 0.9472
13.2931 1.0021 -2.5057 0.9472
13.2488 1.4759 -2.5057 0.9472
13.1875 1.9479 -2.5056 0.9472
13.1095 2.4173 -2.5056 0.9472
13.0147 2.8836 -2.5056 0.9472
12.7754 3.8046 -2.5055 0.9472
12.1029 5.5836 -2.5053 0.9472
11.8956 6.0119 -2.5052 0.9472
-10.1421 -6.0704 -2.4985 0.9528
-9.9193 -6.4288 -2.4986 0.9528
-9.6838 -6.7789 -2.4987 0.9528
-9.4359 -7.1204 -2.4987 0.9528
-9.1761 -7.4529 -2.4988 0.9528
-8.9045 -7.7760 -2.4989 0.9528
-8.0232 -8.6842 -2.4992 0.9528
-7.3838 -9.2352 -2.4994 0.9528
-7.0497 -9.4932 -2.4995 0.9528
-6.3551 -9.9728 -2.4997 0.9528
-5.9953 -10.1937 -2.4998 0.9528
-5.6279 -10.4017 -2.4999 0.9528
-4.0822 -11.0748 -2.4950 0.9529
-3.6815 -11.2048 -2.4930 0.9529
-2.8233 -11.2419 -2.4501 0.9537
-1.9881 -11.2672 -2.4184 0.9543
0.8546 -11.3360 -2.4030 0.9546
2.0958 -11.3659 -2.4430 0.9538
2.5212 -11.3790 -2.4636 0.9535
3.3712 -11.3200 -2.4967 0.9529
3.7769 -11.2037 -2.4992 0.9528
4.9607 -10.7528 -2.5031 0.9527
5.7157 -10.3725 -2.5034 0.9527
6.4417 -9.9392 -2.5036 0.9527
7.1349 -9.4551 -2.5038 0.9527
7.4681 -9.1948 -2.5039 0.9527
8.4092 -8.3447 -2.5042 0.9527
9.2539 -7.3988 -2.5044 0.9527
9.7588 -6.7202 -2.5046 0.9527
9.9927 -6.3678 -2.5047 0.9527
10.2139 -6.0072 -2.5047 0.9527
10.9658 -4.4929 -2.5050 0.9527
11.1194 -4.0987 -2.5050 0.9527
11.2588 -3.6993 -2.5051 0.9527
11.3838 -3.2951 -2.5051 0.9527
11.4943 -2.8867 -2.5051 0.9527
11.6713 -2.0594 -2.5052 0.9527
4.9571 -0.6933 -1.0580 0.9797
4.7580 -0.4930 -1.0111 0.9806
4.7319 -0.3202 -1.0025 0.9808
4.7360 -0.1509 -1.0016 0.9808
11.8182 0.8909 -2.5052 0.9527
11.7788 1.3122 -2.5052 0.9527
11.7244 1.7317 -2.5052 0.9527
11.6550 2.1491 -2.5052 0.9527
11.5707 2.5637 -2.5051 0.9527
11.3581 3.3825 -2.5051 0.9527
11.2299 3.7857 -2.5050 0.9527
10.5760 5.3449 -2.5048 0.9527
-8.9225 -5.7827 -2.4989 0.9573
-8.7106 -6.0977 -2.4990 0.9573
-8.4877 -6.4049 -2.4990 0.9572
-8.2539 -6.7039 -2.4991 0.9572
-7.7551 -7.2761 -2.4993 0.9572
-6.0325 -8.7602 -2.4998 0.9572
-5.0621 -9.3559 -2.5001 0.9572
-4.7251 -9.5310 -2.5002 0.9572
-4.0335 -9.8447 -2.5004 0.9572
-3.3212 -10.1082 -2.5006 0.9572
-1.4740 -10.5397 -2.5012 0.9572
-0.7185 -10.6190 -2.5014 0.9572
0.4208 -10.6364 -2.5018 0.9572
0.8003 -10.6151 -2.5019 0.9572
1.9306 -10.4702 -2.5022 0.9572
2.6729 -10.3067 -2.5024 0.9572
4.4614 -9.6705 -2.5030 0.9572
4.8039 -9.5055 -2.5031 0.9572
5.1403 -9.3283 -2.5032 0.9572
5.7932 -8.9386 -2.5034 0.9572
6.4165 -8.5032 -2.5036 0.9572
6.7162 -8.2690 -2.5037 0.9572
8.9863 -5.7265 -2.5044 0.9572
9.1852 -5.4022 -2.5044 0.9572
9.3724 -5.0710 -2.5045 0.9572
9.8613 -4.0403 -2.5046 0.9572
10.2372 -2.9632 -2.5047 0.9572
10.3365 -2.5960 -2.5048 0.9572
10.4227 -2.2254 -2.5048 0.9572
4.3803 -0.2963 -1.0318 0.9821
4.4548 0.1762 -1.0478 0.9818
4.5171 0.3405 -1.0646 0.9816
10.5923 1.1800 -2.5048 0.9572
10.5434 1.5573 -2.5048 0.9572
10.4810 1.9326 -2.5048 0.9572
10.4053 2.3055 -2.5048 0.9572
10.3162 2.6754 -2.5048 0.9572
10.2140 3.0418 -2.5047 0.9572
9.8299 4.1160 -2.5046 0.9572
9.6765 4.4642 -2.5046 0.9572
9.3330 5.1429 -2.5045 0.9572
-7.9075 -5.5355 -2.4992 0.9609
-7.7051 -5.8143 -2.4993 0.9609
-7.4929 -6.0858 -2.4993 0.9609
-7.2711 -6.3495 -2.4994 0.9609
-6.5513 -7.0910 -2.4996 0.9609
-6.2942 -7.3206 -2.4997 0.9609
-5.7563 -7.7515 -2.4999 0.9609
-5.4761 -7.9522 -2.4999 0.9609
-5.1890 -8.1429 -2.5000 0.9609
-3.9779 -8.7998 -2.5004 0.9609
-3.6614 -8.9365 -2.5005 0.9609
-3.3403 -9.0619 -2.5006 0.9609
-3.0148 -9.1757 -2.5007 0.9609
-2.6855 -9.2778 -2.5008 0.9609
-2.0170 -9.4465 -2.5010 0.9609
-1.6786 -9.5129 -2.5011 0.9609
-0.9957 -9.6092 -2.5013 0.9609
-0.6521 -9.6391 -2.5014 0.9609
-0.3077 -9.6566 -2.5015 0.9609
0.0372 -9.6618 -2.5016 0.9609
1.0699 -9.6037 -2.5020 0.9609
2.0906 -9.4355 -2.5023 0.9609
2.4261 -9.3552 -2.5024 0.9609
3.7334 -8.9162 -2.5028 0.9608
4.3603 -8.6278 -2.5030 0.9608
4.6657 -8.4669 -2.5030 0.9608
5.5446 -7.9206 -2.5033 0.9608
6.3601 -7.2832 -2.5036 0.9608
6.6162 -7.0518 -2.5036 0.9608
7.5533 -6.0391 -2.5039 0.9608
7.7643 -5.7658 -2.5040 0.9608
7.9653 -5.4851 -2.5041 0.9608
8.1562 -5.1975 -2.5041 0.9608
8.5065 -4.6025 -2.5042 0.9608
9.3815 -2.3561 -2.5045 0.9608
9.4597 -2.0198 -2.5045 0.9608
4.0748 -0.2757 -1.0574 0.9833
4.0797 -0.1300 -1.0568 0.9833
4.1845 0.3155 -1.0865 0.9828
9.5692 1.4134 -2.5045 0.9608
9.5126 1.7541 -2.5045 0.9608
9.4439 2.0925 -2.5045 0.9608
9.3631 2.4282 -2.5045 0.9608
9.2703 2.7608 -2.5044 0.9608
8.9217 3.7357 -2.5043 0.9608
8.7826 4.0517 -2.5043 0.9608
8.4708 4.6678 -2.5042 0.9608
-7.5753 -4.5341 -2.4993 0.9640
-6.8535 -5.5666 -2.4995 0.9640
-6.4393 -6.0416 -2.4997 0.9640
-5.7571 -6.6959 -2.4999 0.9640
-5.5146 -6.8973 -2.4999 0.9640
-5.2650 -7.0899 -2.5000 0.9640
-5.0088 -7.2736 -2.5001 0.9640
-4.7461 -7.4479 -2.5002 0.9640
-4.4774 -7.6129 -2.5003 0.9639
-4.2030 -7.7681 -2.5003 0.9639
-2.7575 -8.3924 -2.5008 0.9639
-2.4562 -8.4858 -2.5009 0.9639
-1.8448 -8.6400 -2.5011 0.9639
-1.2238 -8.7503 -2.5012 0.9639
-0.5965 -8.8160 -2.5014 0.9639
0.0340 -8.8367 -2.5016 0.9639
1.6027 -8.6920 -2.5021 0.9639
1.9120 -8.6296 -2.5022 0.9639
2.2189 -8.5561 -2.5023 0.9639
2.8238 -8.3766 -2.5025 0.9639
3.1211 -8.2708 -2.5026 0.9639
3.9878 -7.8906 -2.5028 0.9639
4.8089 -7.4199 -2.5031 0.9639
5.0708 -7.2437 -2.5032 0.9639
5.5750 -6.8640 -2.5033 0.9639
5.8166 -6.6608 -2.5034 0.9639
6.0508 -6.4491 -2.5035 0.9639
6.4958 -6.0014 -2.5036 0.9639
6.7061 -5.7658 -2.5037 0.9639
6.9078 -5.5229 -2.5037 0.9639
7.2845 -5.0163 -2.5038 0.9639
7.4590 -4.7532 -2.5039 0.9639
7.7794 -4.2091 -2.5040 0.9639
8.1852 -3.3536 -2.5041 0.9639
8.4971 -2.4595 -2.5042 0.9639
8.5795 -2.1547 -2.5042 0.9639
4.0415 -0.8629 -1.1699 0.9830
3.9380 -0.6949 -1.1320 0.9835
3.9243 -0.5488 -1.1217 0.9837
3.8960 -0.2636 -1.1054 0.9839
3.9233 0.0151 -1.1107 0.9838
3.9471 0.1562 -1.1183 0.9837
8.6994 1.6041 -2.5043 0.9639
8.6366 1.9136 -2.5042 0.9639
8.5627 2.2206 -2.5042 0.9639
8.4779 2.5248 -2.5042 0.9639
8.3822 2.8257 -2.5042 0.9639
8.1591 3.4164 -2.5041 0.9639
8.0318 3.7054 -2.5041 0.9639
7.8943 3.9896 -2.5040 0.9639
7.7467 4.2688 -2.5040 0.9639
-6.8195 -4.4198 -2.4995 0.9666
-6.6575 -4.6604 -2.4996 0.9666
-6.4871 -4.8952 -2.4996 0.9666
-6.1216 -5.3457 -2.4997 0.9666
-5.7249 -5.7691 -2.4999 0.9666
-5.5155 -5.9700 -2.4999 0.9666
-5.2990 -6.1632 -2.5000 0.9666
-5.0758 -6.3485 -2.5001 0.9666
-4.8462 -6.5259 -2.5001 0.9666
-4.6103 -6.6949 -2.5002 0.9666
-3.6110 -7.2837 -2.5005 0.9665
-3.3488 -7.4082 -2.5006 0.9665
-2.8120 -7.6287 -2.5008 0.9665
-1.9806 -7.8864 -2.5010 0.9665
-1.6979 -7.9524 -2.5011 0.9665
-1.1264 -8.0538 -2.5013 0.9665
-0.2590 -8.1289 -2.5015 0.9665
0.0313 -8.1333 -2.5016 0.9665
1.4751 -7.9999 -2.5021 0.9665
1.7598 -7.9424 -2.5022 0.9665
2.5990 -7.7096 -2.5024 0.9665
2.8726 -7.6121 -2.5025 0.9665
3.4085 -7.3883 -2.5027 0.9665
3.9272 -7.1268 -2.5028 0.9665
4.1792 -6.9823 -2.5029 0.9665
4.9020 -6.4961 -2.5031 0.9665
5.1309 -6.3172 -2.5032 0.9665
6.3574 -5.0829 -2.5036 0.9665
6.8648 -4.3745 -2.5037 0.9665
7.4179 -3.3532 -2.5039 0.9665
7.5330 -3.0864 -2.5039 0.9665
7.7342 -2.5412 -2.5040 0.9665
7.8200 -2.2635 -2.5040 0.9665
3.7779 -0.6666 -1.1799 0.9841
3.7438 -0.2533 -1.1541 0.9844
3.7732 0.0145 -1.1606 0.9843
3.8099 0.2872 -1.1752 0.9841
3.8489 0.4288 -1.1912 0.9839
8.0538 1.1896 -2.5041 0.9665
7.9484 1.7611 -2.5040 0.9665
7.8804 2.0437 -2.5040 0.9665
7.5090 3.1442 -2.5039 0.9665
7.3919 3.4101 -2.5039 0.9665
7.2653 3.6717 -2.5038 0.9665
7.1295 3.9287 -2.5038 0.9665
-6.4524 -3.8620 -2.4996 0.9688
-6.0029 -4.5299 -2.4998 0.9688
-5.8375 -4.7413 -2.4998 0.9688
-5.6647 -4.9468 -2.4999 0.9688
-5.2976 -5.3385 -2.5000 0.9688
-4.9035 -5.7031 -2.5001 0.9688
-4.6969 -5.8746 -2.5002 0.9688
-4.4844 -6.0387 -2.5002 0.9688
-4.2661 -6.1951 -2.5003 0.9688
-4.0424 -6.3436 -2.5004 0.9688
-3.8135 -6.4840 -2.5005 0.9688
-3.3414 -6.7399 -2.5006 0.9688
-3.0988 -6.8551 -2.5007 0.9688
-2.8523 -6.9616 -2.5007 0.9688
-2.6020 -7.0591 -2.5008 0.9688
-2.3485 -7.1477 -2.5009 0.9688
-1.8327 -7.2975 -2.5011 0.9688
-1.3075 -7.4101 -2.5012 0.9688
-0.7756 -7.4850 -2.5014 0.9688
-0.5080 -7.5082 -2.5015 0.9688
0.0289 -7.5258 -2.5016 0.9688
0.2975 -7.5202 -2.5017 0.9688
1.0998 -7.4460 -2.5020 0.9688
1.8896 -7.2865 -2.5022 0.9688
2.1486 -7.2146 -2.5023 0.9688
2.4048 -7.1336 -2.5024 0.9688
2.6580 -7.0434 -2.5024 0.9688
3.1538 -6.8363 -2.5026 0.9688
3.3959 -6.7195 -2.5027 0.9688
3.6337 -6.5942 -2.5027 0.9688
3.8669 -6.4605 -2.5028 0.9688
4.0951 -6.3186 -2.5029 0.9688
4.3181 -6.1686 -2.5029 0.9688
4.5357 -6.0107 -2.5030 0.9688
4.9532 -5.6721 -2.5031 0.9688
5.1526 -5.4918 -2.5032 0.9688
6.0465 -4.4902 -2.5035 0.9688
6.2030 -4.2716 -2.5035 0.9688
6.4922 -3.8183 -2.5036 0.9688
6.6244 -3.5842 -2.5036 0.9688
6.8634 -3.1026 -2.5037 0.9687
6.9699 -2.8557 -2.5037 0.9687
7.0674 -2.6051 -2.5038 0.9687
7.1560 -2.3512 -2.5038 0.9687
7.3056 -1.8348 -2.5038 0.9687
3.6529 -0.7800 -1.2416 0.9844
3.6240 -0.5068 -1.2164 0.9847
3.6038 -0.2438 -1.2007 0.9849
3.6622 0.2761 -1.2208 0.9846
7.4518 1.1006 -2.5039 0.9687
7.4077 1.3659 -2.5039 0.9687
7.3542 1.6294 -2.5039 0.9687
7.2913 1.8909 -2.5038 0.9687
7.2190 2.1499 -2.5038 0.9687
7.1377 2.4062 -2.5038 0.9687
7.0471 2.6593 -2.5038 0.9687
6.8393 3.1552 -2.5037 0.9687
6.7222 3.3973 -2.5037 0.9688
-5.9980 -3.5900 -2.4998 0.9707
-5.8661 -3.8019 -2.4998 0.9707
-5.5802 -4.2108 -2.4999 0.9707
-4.9245 -4.9625 -2.5001 0.9707
-4.5581 -5.3014 -2.5002 0.9707
-4.3661 -5.4608 -2.5003 0.9707
-4.1685 -5.6133 -2.5003 0.9707
-3.9656 -5.7587 -2.5004 0.9707
-3.7576 -5.8967 -2.5005 0.9707
-3.3276 -6.1501 -2.5006 0.9707
-2.8805 -6.3721 -2.5007 0.9707
-2.4187 -6.5618 -2.5009 0.9707
-1.9446 -6.7180 -2.5010 0.9707
-1.7036 -6.7833 -2.5011 0.9707
-0.9688 -6.9272 -2.5013 0.9707
-0.7210 -6.9576 -2.5014 0.9707
-0.4722 -6.9791 -2.5015 0.9707
-0.2228 -6.9917 -2.5016 0.9707
0.0269 -6.9954 -2.5016 0.9707
0.5259 -6.9761 -2.5018 0.9707
0.7746 -6.9531 -2.5019 0.9707
1.0223 -6.9212 -2.5019 0.9707
1.5135 -6.8311 -2.5021 0.9707
1.7565 -6.7729 -2.5022 0.9707
2.2353 -6.6307 -2.5023 0.9707
2.9315 -6.3543 -2.5025 0.9707
3.1565 -6.2458 -2.5026 0.9707
3.5943 -6.0050 -2.5027 0.9707
3.8064 -5.8731 -2.5028 0.9707
4.0137 -5.7336 -2.5028 0.9707
4.6039 -5.2721 -2.5030 0.9707
4.9685 -4.9304 -2.5031 0.9707
5.1414 -4.7501 -2.5032 0.9707
5.3078 -4.5636 -2.5032 0.9707
5.6201 -4.1735 -2.5033 0.9707
5.7656 -3.9703 -2.5034 0.9707
5.9037 -3.7621 -2.5034 0.9707
6.1572 -3.3314 -2.5035 0.9707
6.4783 -2.6543 -2.5036 0.9707
6.6513 -2.1854 -2.5036 0.9707
6.7251 -1.9466 -2.5037 0.9707
3.5587 -0.8937 -1.3121 0.9845
3.5098 -0.7494 -1.2834 0.9849
3.4904 -0.6159 -1.2675 0.9851
3.4897 -0.4880 -1.2601 0.9851
3.4853 -0.3612 -1.2530 0.9852
3.4760 -0.2352 -1.2459 0.9853
3.4998 0.0135 -1.2515 0.9852
3.5136 0.1390 -1.2575 0.9852
6.8355 1.5145 -2.5037 0.9707
6.7099 1.9983 -2.5037 0.9707
6.6342 2.2365 -2.5036 0.9707
-5.4744 -3.5480 -2.4999 0.9724
-5.2075 -3.9296 -2.5000 0.9724
-4.5956 -4.6310 -2.5002 0.9724
-4.0745 -5.0961 -2.5004 0.9724
-3.8901 -5.2384 -2.5004 0.9724
-3.7007 -5.3740 -2.5005 0.9724
-3.5066 -5.5028 -2.5005 0.9724
-3.3080 -5.6246 -2.5006 0.9724
-3.1053 -5.7392 -2.5007 0.9724
-2.8985 -5.8466 -2.5007 0.9724
-2.4742 -6.0387 -2.5009 0.9724
-2.2571 -6.1234 -2.5009 0.9724
-1.8146 -6.2691 -2.5011 0.9724
-1.3628 -6.3830 -2.5012 0.9724
-0.9041 -6.4643 -2.5013 0.9724
-0.4406 -6.5127 -2.5015 0.9724
0.4908 -6.5098 -2.5018 0.9724
0.9540 -6.4586 -2.5019 0.9724
1.6390 -6.3202 -2.5021 0.9724
2.3054 -6.1092 -2.5023 0.9724
2.9455 -5.8283 -2.5025 0.9724
3.5519 -5.4804 -2.5027 0.9724
3.7453 -5.3503 -2.5028 0.9724
3.9340 -5.2133 -2.5028 0.9724
4.1177 -5.0697 -2.5029 0.9724
4.9529 -4.2585 -2.5031 0.9724
5.2442 -3.8944 -2.5032 0.9724
5.3800 -3.7048 -2.5033 0.9724
5.5089 -3.5105 -2.5033 0.9724
5.6307 -3.3117 -2.5033 0.9724
6.0450 -2.4767 -2.5035 0.9724
6.2064 -2.0392 -2.5035 0.9724
3.3603 -0.3482 -1.2946 0.9856
3.3532 -0.2269 -1.2879 0.9857
3.3587 -0.1070 -1.2878 0.9857
3.3753 0.0130 -1.2935 0.9856
3.4532 0.5101 -1.3377 0.9852
6.4247 1.1847 -2.5036 0.9724
6.3237 1.6400 -2.5035 0.9724
6.1120 2.3065 -2.5035 0.9724
5.9318 2.7366 -2.5034 0.9724
5.7213 3.1527 -2.5034 0.9724
-5.0043 -3.5031 -2.5001 0.9739
-4.8761 -3.6796 -2.5001 0.9739
-4.6014 -4.0182 -2.5002 0.9739
-4.4551 -4.1799 -2.5003 0.9739
-3.6425 -4.9050 -2.5005 0.9739
-3.4652 -5.0320 -2.5006 0.9739
-3.2834 -5.1526 -2.5006 0.9739
-3.0975 -5.2667 -2.5007 0.9739
-2.9076 -5.3740 -2.5007 0.9739
-2.7140 -5.4745 -2.5008 0.9739
-2.5170 -5.5680 -2.5008 0.9739
-2.3167 -5.6544 -2.5009 0.9739
-1.9075 -5.8055 -2.5010 0.9739
-1.6991 -5.8701 -2.5011 0.9739
-1.4886 -5.9271 -2.5012 0.9739
-1.2761 -5.9766 -2.5012 0.9739
-0.8465 -6.0528 -2.5014 0.9739
-0.6299 -6.0793 -2.5014 0.9739
-0.4126 -6.0981 -2.5015 0.9739
-0.1947 -6.1091 -2.5016 0.9739
0.2417 -6.1077 -2.5017 0.9739
0.4595 -6.0954 -2.5018 0.9739
0.6768 -6.0753 -2.5018 0.9739
1.1085 -6.0118 -2.5020 0.9739
1.3224 -5.9686 -2.5020 0.9739
1.5347 -5.9177 -2.5021 0.9739
2.1586 -5.7202 -2.5023 0.9739
2.3615 -5.6396 -2.5023 0.9739
2.5613 -5.5519 -2.5024 0.9739
2.7579 -5.4571 -2.5025 0.9739
2.9510 -5.3553 -2.5025 0.9739
3.1403 -5.2467 -2.5026 0.9739
3.3257 -5.1314 -2.5026 0.9739
3.5068 -5.0095 -2.5027 0.9739
3.6834 -4.8812 -2.5027 0.9739
4.0224 -4.6062 -2.5028 0.9739
4.4920 -4.1501 -2.5030 0.9739
4.6374 -3.9872 -2.5030 0.9739
5.0372 -3.4688 -2.5032 0.9739
5.1579 -3.2868 -2.5032 0.9739
5.4799 -2.7168 -2.5033 0.9739
5.5735 -2.5194 -2.5033 0.9739
5.6599 -2.3189 -2.5033 0.9739
5.7391 -2.1155 -2.5034 0.9739
5.8110 -1.9093 -2.5034 0.9739
3.2419 -0.4534 -1.3398 0.9860
3.2381 -0.2191 -1.3283 0.9861
3.2441 -0.1034 -1.3284 0.9861
3.2719 0.2467 -1.3429 0.9859
3.2936 0.4865 -1.3626 0.9857
6.0154 1.1092 -2.5034 0.9739
5.9719 1.3232 -2.5034 0.9739
5.7961 1.9539 -2.5034 0.9739
5.6419 2.3624 -2.5033 0.9739
-4.9223 -2.9462 -2.5001 0.9753
-4.6997 -3.2899 -2.5002 0.9753
-4.4531 -3.6169 -2.5003 0.9753
-4.3213 -3.7736 -2.5003 0.9753
-4.0412 -4.0724 -2.5004 0.9753
-3.5829 -4.4813 -2.5005 0.9753
-3.4208 -4.6064 -2.5006 0.9753
-3.2542 -4.7257 -2.5006 0.9753
-2.9089 -4.9460 -2.5007 0.9753
-2.3637 -5.2290 -2.5009 0.9753
-1.9848 -5.3845 -2.5010 0.9753
-1.7914 -5.4521 -2.5011 0.9753
-0.7950 -5.6842 -2.5014 0.9753
-0.3875 -5.7267 -2.5015 0.9753
0.0221 -5.7400 -2.5016 0.9753
0.4315 -5.7241 -2.5018 0.9753
0.6356 -5.7052 -2.5018 0.9753
1.4412 -5.5573 -2.5021 0.9753
1.6387 -5.5024 -2.5021 0.9753
1.8341 -5.4405 -2.5022 0.9753
2.0271 -5.3717 -2.5022 0.9753
2.4053 -5.2137 -2.5024 0.9753
2.5899 -5.1246 -2.5024 0.9753
2.7712 -5.0290 -2.5025 0.9753
3.2931 -4.7043 -2.5026 0.9753
3.9294 -4.1880 -2.5028 0.9753
4.0764 -4.0452 -2.5029 0.9753
4.3548 -3.7442 -2.5029 0.9753
4.4857 -3.5865 -2.5030 0.9753
4.7303 -3.2574 -2.5031 0.9753
5.1460 -2.5512 -2.5032 0.9752
5.2338 -2.3659 -2.5032 0.9752
5.3150 -2.1776 -2.5032 0.9752
5.4569 -1.7929 -2.5033 0.9752
3.0685 -0.7706 -1.3788 0.9863
3.0646 -0.6543 -1.3657 0.9864
3.0751 -0.5426 -1.3609 0.9865
3.0819 -0.4310 -1.3562 0.9865
3.0859 -0.3198 -1.3521 0.9866
3.0889 -0.2090 -1.3493 0.9866
3.1019 0.0119 -1.3519 0.9866
3.1114 0.2346 -1.3598 0.9865
3.1295 0.4622 -1.3787 0.9863
5.6080 1.2425 -2.5033 0.9752
5.5050 1.6394 -2.5033 0.9752
5.4429 1.8349 -2.5033 0.9752
5.3739 2.0279 -2.5032 0.9752
5.2980 2.2184 -2.5032 0.9752
5.2154 2.4061 -2.5032 0.9752
5.1262 2.5907 -2.5032 0.9752
-4.6346 -2.7740 -2.5002 0.9765
-4.5327 -2.9377 -2.5002 0.9765
-4.4250 -3.0976 -2.5003 0.9765
-4.3117 -3.2536 -2.5003 0.9765
-4.1929 -3.4055 -2.5003 0.9765
-3.8050 -3.8344 -2.5005 0.9765
-3.5219 -4.0962 -2.5005 0.9765
-3.0640 -4.4495 -2.5007 0.9765
-2.5710 -4.7518 -2.5008 0.9765
-2.0484 -4.9997 -2.5010 0.9765
-1.6866 -5.1333 -2.5011 0.9765
-1.5024 -5.1904 -2.5012 0.9765
-1.1283 -5.2846 -2.5013 0.9765
-0.5570 -5.3753 -2.5014 0.9765
-0.3648 -5.3918 -2.5015 0.9765
0.0208 -5.4044 -2.5016 0.9765
0.5984 -5.3716 -2.5018 0.9765
0.7898 -5.3469 -2.5019 0.9765
0.9801 -5.3154 -2.5019 0.9765
1.1693 -5.2772 -2.5020 0.9765
1.5428 -5.1806 -2.5021 0.9765
2.0879 -4.9863 -2.5023 0.9765
2.9404 -4.5368 -2.5025 0.9765
3.2566 -4.3157 -2.5026 0.9765
3.5564 -4.0725 -2.5027 0.9765
3.6995 -3.9430 -2.5027 0.9764
3.9715 -3.6692 -2.5028 0.9764
4.2233 -3.3766 -2.5029 0.9764
4.4535 -3.0668 -2.5030 0.9764
4.5602 -2.9060 -2.5030 0.9764
4.6611 -2.7414 -2.5030 0.9764
4.7560 -2.5733 -2.5031 0.9764
4.8449 -2.4019 -2.5031 0.9764
4.9276 -2.2275 -2.5031 0.9764
5.0040 -2.0502 -2.5031 0.9764
5.0740 -1.8703 -2.5032 0.9764
2.9348 -0.8495 -1.4142 0.9866
2.9172 -0.6229 -1.3808 0.9869
2.9373 -0.3044 -1.3669 0.9871
2.9381 -0.1988 -1.3631 0.9871
2.9453 -0.0939 -1.3640 0.9871
2.9530 0.0113 -1.3669 0.9871
2.9589 0.1171 -1.3707 0.9870
2.9631 0.2234 -1.3755 0.9870
2.9625 0.3300 -1.3798 0.9869
3.0149 0.5559 -1.4191 0.9866
5.2347 1.3575 -2.5032 0.9764
5.1828 1.5435 -2.5032 0.9764
5.1244 1.7275 -2.5032 0.9764
4.8262 2.4391 -2.5031 0.9764
-4.2774 -2.7722 -2.5003 0.9775
-4.1758 -2.9232 -2.5003 0.9775
-4.0689 -3.0704 -2.5004 0.9775
-3.9567 -3.2137 -2.5004 0.9775
-3.5907 -3.6184 -2.5005 0.9775
-3.3235 -3.8655 -2.5006 0.9775
-3.0394 -4.0929 -2.5007 0.9775
-2.8914 -4.1988 -2.5007 0.9775
-2.7398 -4.2994 -2.5008 0.9775
-2.4262 -4.4841 -2.5009 0.9775
-2.1002 -4.6459 -2.5010 0.9775
-1.9331 -4.7180 -2.5010 0.9775
-1.2420 -4.9455 -2.5012 0.9775
-1.0648 -4.9868 -2.5013 0.9775
-0.8861 -5.0218 -2.5013 0.9775
-0.5256 -5.0724 -2.5015 0.9775
-0.3443 -5.0880 -2.5015 0.9775
-0.1624 -5.0972 -2.5016 0.9775
0.0196 -5.0999 -2.5016 0.9775
0.2016 -5.0960 -2.5017 0.9775
0.3834 -5.0857 -2.5017 0.9775
1.1034 -4.9798 -2.5020 0.9775
1.6295 -4.8336 -2.5021 0.9775
1.8010 -4.7725 -2.5022 0.9775
1.9702 -4.7053 -2.5022 0.9775
2.1370 -4.6321 -2.5023 0.9775
2.3010 -4.5529 -2.5023 0.9775
2.4621 -4.4680 -2.5024 0.9775
2.6200 -4.3773 -2.5024 0.9775
2.9257 -4.1794 -2.5025 0.9775
3.2165 -3.9602 -2.5026 0.9775
3.3559 -3.8429 -2.5026 0.9775
3.6216 -3.5939 -2.5027 0.9775
3.7476 -3.4624 -2.5028 0.9775
3.9852 -3.1863 -2.5028 0.9775
4.0964 -3.0421 -2.5029 0.9775
4.2025 -2.8939 -2.5029 0.9775
4.3031 -2.7421 -2.5029 0.9775
4.5717 -2.2665 -2.5030 0.9775
4.6498 -2.1019 -2.5030 0.9775
4.7219 -1.9346 -2.5031 0.9775
2.8106 -0.9235 -1.4512 0.9869
2.7806 -0.5937 -1.3947 0.9874
2.7941 -0.3908 -1.3839 0.9875
2.7986 -0.1894 -1.3759 0.9876
2.8583 0.5271 -1.4257 0.9871
2.9012 0.6428 -1.4576 0.9868
4.8355 1.6301 -2.5031 0.9775
4.7742 1.8016 -2.5031 0.9775
4.7068 1.9709 -2.5030 0.9775
4.6334 2.1376 -2.5030 0.9775
4.5541 2.3016 -2.5030 0.9775
-4.0446 -2.6213 -2.5004 0.9785
-3.9485 -2.7640 -2.5004 0.9785
-3.5151 -3.2980 -2.5005 0.9785
-3.3952 -3.4214 -2.5006 0.9785
-3.2710 -3.5405 -2.5006 0.9785
-3.1426 -3.6550 -2.5007 0.9785
-2.8739 -3.8700 -2.5007 0.9785
-2.2941 -4.2399 -2.5009 0.9785
-1.9858 -4.3930 -2.5010 0.9785
-1.6674 -4.5236 -2.5011 0.9785
-1.3405 -4.6312 -2.5012 0.9785
-1.0068 -4.7152 -2.5013 0.9785
-0.8378 -4.7483 -2.5014 0.9785
-0.6679 -4.7753 -2.5014 0.9785
-0.4970 -4.7961 -2.5015 0.9785
-0.3255 -4.8109 -2.5015 0.9785
0.0185 -4.8221 -2.5016 0.9785
0.3625 -4.8087 -2.5017 0.9785
0.5339 -4.7928 -2.5018 0.9785
0.7047 -4.7708 -2.5018 0.9785
0.8745 -4.7427 -2.5019 0.9785
1.0433 -4.7086 -2.5019 0.9785
1.2107 -4.6684 -2.5020 0.9785
1.7029 -4.5125 -2.5021 0.9785
1.8629 -4.4489 -2.5022 0.9785
2.0205 -4.3797 -2.5022 0.9785
2.3279 -4.2246 -2.5023 0.9785
2.6235 -4.0479 -2.5024 0.9785
2.9056 -3.8505 -2.5025 0.9785
3.0413 -3.7444 -2.5025 0.9785
3.3008 -3.5180 -2.5026 0.9785
3.6581 -3.1452 -2.5027 0.9785
3.7680 -3.0127 -2.5028 0.9785
3.8732 -2.8763 -2.5028 0.9785
4.1586 -2.4459 -2.5029 0.9785
4.3226 -2.1430 -2.5029 0.9785
4.3964 -1.9874 -2.5030 0.9785
2.7961 -0.9187 -1.5268 0.9868
2.7503 -0.7961 -1.4854 0.9872
2.6931 -0.5750 -1.4286 0.9877
2.6677 -0.3731 -1.3974 0.9879
2.6908 0.1065 -1.3970 0.9879
2.7046 0.2039 -1.4071 0.9879
2.7223 0.3033 -1.4210 0.9877
2.8456 0.6305 -1.5121 0.9870
4.6241 1.3771 -2.5030 0.9785
4.5720 1.5413 -2.5030 0.9785
4.5140 1.7035 -2.5030 0.9785
-3.8311 -2.4830 -2.5004 0.9794
-3.7401 -2.6181 -2.5005 0.9794
-3.6443 -2.7500 -2.5005 0.9794
-3.3296 -3.1239 -2.5006 0.9794
-3.0983 -3.3536 -2.5007 0.9794
-2.7222 -3.6657 -2.5008 0.9794
-2.5897 -3.7606 -2.5008 0.9794
-2.4538 -3.8507 -2.5009 0.9794
-2.1729 -4.0161 -2.5010 0.9794
-1.8810 -4.1610 -2.5010 0.9794
-1.5794 -4.2848 -2.5011 0.9794
-1.4255 -4.3385 -2.5012 0.9794
-1.2697 -4.3867 -2.5012 0.9794
-1.1124 -4.4293 -2.5013 0.9794
-0.9536 -4.4662 -2.5013 0.9794
-0.7936 -4.4975 -2.5014 0.9794
-0.1455 -4.5651 -2.5016 0.9794
0.0176 -4.5674 -2.5016 0.9794
0.1806 -4.5640 -2.5017 0.9794
1.1467 -4.4218 -2.5020 0.9794
1.7645 -4.2139 -2.5022 0.9794
2.0607 -4.0775 -2.5022 0.9794
2.2050 -4.0014 -2.5023 0.9794
2.3464 -3.9202 -2.5023 0.9794
2.6202 -3.7429 -2.5024 0.9794
2.8806 -3.5466 -2.5025 0.9794
3.0054 -3.4416 -2.5025 0.9794
3.1264 -3.3322 -2.5026 0.9794
3.2434 -3.2185 -2.5026 0.9794
3.4648 -2.9790 -2.5027 0.9794
3.7635 -2.5917 -2.5028 0.9794
3.8537 -2.4557 -2.5028 0.9794
3.9389 -2.3166 -2.5028 0.9794
4.0191 -2.1746 -2.5028 0.9794
4.0942 -2.0298 -2.5029 0.9794
4.2287 -1.7325 -2.5029 0.9794
4.2878 -1.5805 -2.5029 0.9794
2.7474 -0.7952 -1.5665 0.9870
2.7074 -0.6800 -1.5289 0.9873
2.6870 -0.5737 -1.5048 0.9875
2.6539 -0.2750 -1.4613 0.9879
2.6508 -0.0845 -1.4526 0.9880
2.6680 0.0102 -1.4613 0.9879
2.6809 0.1061 -1.4695 0.9878
2.6984 0.2034 -1.4821 0.9877
2.7183 0.3028 -1.4980 0.9876
2.7475 0.4058 -1.5212 0.9874
4.4236 1.1472 -2.5030 0.9794
4.2755 1.6134 -2.5029 0.9794
4.0023 2.2054 -2.5028 0.9794
-3.7162 -2.2243 -2.5005 0.9802
-3.4572 -2.6088 -2.5006 0.9802
-3.3619 -2.7306 -2.5006 0.9802
-3.1586 -2.9636 -2.5006 0.9802
-2.7049 -3.3831 -2.5008 0.9802
-2.5825 -3.4776 -2.5008 0.9802
-2.4567 -3.5676 -2.5009 0.9802
-2.3279 -3.6530 -2.5009 0.9802
-2.1960 -3.7338 -2.5009 0.9802
-2.0614 -3.8099 -2.5010 0.9802
-1.9241 -3.8811 -2.5010 0.9802
-1.3523 -4.1157 -2.5012 0.9802
-1.0553 -4.2019 -2.5013 0.9802
-0.9046 -4.2369 -2.5013 0.9802
-0.7528 -4.2666 -2.5014 0.9802
-0.4466 -4.3096 -2.5015 0.9802
-0.2925 -4.3229 -2.5015 0.9802
-0.1380 -4.3307 -2.5016 0.9802
0.0167 -4.3329 -2.5016 0.9802
0.9374 -4.2308 -2.5019 0.9802
1.3844 -4.1066 -2.5020 0.9802
1.5301 -4.0546 -2.5021 0.9802
1.6739 -3.9975 -2.5021 0.9802
1.8155 -3.9353 -2.5022 0.9802
1.9548 -3.8680 -2.5022 0.9802
2.0917 -3.7959 -2.5023 0.9802
2.2259 -3.7189 -2.5023 0.9802
2.4856 -3.5507 -2.5024 0.9802
2.7326 -3.3644 -2.5024 0.9802
3.0768 -3.0532 -2.5026 0.9802
3.1838 -2.9414 -2.5026 0.9802
3.2868 -2.8260 -2.5026 0.9802
3.3856 -2.7069 -2.5026 0.9802
3.5702 -2.4585 -2.5027 0.9802
3.6557 -2.3296 -2.5027 0.9802
3.8839 -1.9255 -2.5028 0.9802
3.9502 -1.7857 -2.5028 0.9802
2.7444 -0.7944 -1.6495 0.9869
2.7039 -0.6791 -1.6096 0.9872
2.6678 -0.4707 -1.5640 0.9876
2.6558 -0.3714 -1.5482 0.9877
2.6496 -0.0844 -1.5305 0.9878
2.6634 0.0102 -1.5377 0.9878
2.7152 0.3025 -1.5773 0.9875
2.7421 0.4050 -1.6003 0.9873
4.1079 1.3848 -2.5029 0.9802
4.0559 1.5306 -2.5028 0.9802
3.9986 1.6743 -2.5028 0.9802
3.9363 1.8160 -2.5028 0.9802
3.8689 1.9553 -2.5028 0.9802
