ply
format ascii 1.0
element vertex 1334
property float32 x
property float32 y
property float32 z
property float32 I
end_header
-34.2679 -23.9885 7.3757 0.8437
-12.4289 -10.0949 2.8233 0.9370
-23.7704 -22.3023 5.7473 0.8760
-12.5306 -12.6274 3.1368 0.9303
-16.5817 -20.7394 4.6821 0.8978
-15.4306 -20.7790 4.5637 0.9002
-13.2882 -20.8527 4.3600 0.9044
-10.1184 -20.4098 4.0168 0.9116
-9.4810 -20.9735 4.0585 0.9107
-6.9201 -21.0616 3.9090 0.9139
-5.3034 -21.1172 3.8392 0.9154
-3.7357 -21.1711 3.7907 0.9164
-2.1993 -21.2239 3.7624 0.9170
-0.6780 -21.2762 3.7535 0.9172
3.1621 -21.4082 3.8158 0.9159
4.7555 -21.4630 3.8763 0.9146
5.5734 -21.4911 3.9148 0.9138
6.4088 -21.5198 3.9592 0.9128
7.3492 -19.4750 3.6703 0.9189
8.1664 -19.5030 3.7282 0.9177
10.9479 -21.6626 4.2798 0.9061
13.0083 -21.7334 4.4662 0.9022
16.8881 -22.3799 4.9437 0.8924
21.1686 -22.5620 5.4552 0.8819
28.9042 -24.8517 6.7214 0.8566
23.2967 4.2958 4.1771 0.9083
31.6159 13.2384 6.0437 0.8700
-31.4807 -22.0373 5.8869 0.8560
-23.7344 -22.2685 4.9858 0.8766
-20.6662 -22.3689 4.6654 0.8841
-16.5817 -20.7395 4.0678 0.8981
-15.4307 -20.7790 3.9650 0.9006
-14.3350 -20.8167 3.8720 0.9028
-13.2882 -20.8527 3.7880 0.9048
-10.2132 -18.8762 3.2879 0.9168
-10.1186 -20.4101 3.4899 0.9119
-8.6055 -21.0036 3.4772 0.9122
-7.7529 -21.0329 3.4341 0.9133
-5.5106 -19.0379 3.0362 0.9229
-4.7962 -19.0975 3.0165 0.9234
-1.9889 -19.1940 2.9562 0.9249
-1.3002 -19.2177 2.9508 0.9250
-0.6131 -19.2413 2.9492 0.9251
0.0741 -19.2649 2.9513 0.9250
0.7632 -19.2886 2.9572 0.9249
2.8597 -19.3607 2.9981 0.9239
3.5745 -19.3853 3.0198 0.9233
5.0312 -19.4003 3.0703 0.9221
6.4088 -21.5198 3.4398 0.9131
7.2150 -21.4025 3.4600 0.9127
10.9479 -21.6626 3.7183 0.9064
13.0083 -21.7335 3.8803 0.9026
14.1102 -21.7713 3.9745 0.9003
15.2684 -21.8112 4.0787 0.8979
16.8881 -22.3799 4.2951 0.8927
19.9456 -24.5571 4.8466 0.8798
21.2981 -24.3892 4.9604 0.8772
22.1539 -23.6122 4.9601 0.8772
22.9814 -22.8053 4.9599 0.8772
24.5015 -22.6364 5.1102 0.8737
26.4460 -22.7381 5.3430 0.8684
30.8218 -22.8885 5.8813 0.8561
22.4115 6.6744 3.5824 0.9097
31.5251 13.2004 5.2358 0.8708
-27.2675 -22.1470 4.5745 0.8679
-12.5021 -12.5986 2.3113 0.9309
-16.5818 -20.7395 3.4578 0.8984
-13.9294 -18.7573 3.0424 0.9101
-12.9579 -18.8170 2.9752 0.9120
-12.0117 -18.8496 2.9106 0.9138
-11.0842 -18.8463 2.8472 0.9156
-9.3895 -18.9396 2.7528 0.9183
-6.2583 -19.0472 2.6108 0.9223
-4.7962 -19.0975 2.5641 0.9236
-4.0754 -19.0873 2.5416 0.9243
-3.3784 -19.1462 2.5318 0.9246
-1.9889 -19.1940 2.5128 0.9251
-0.6131 -19.2413 2.5069 0.9253
0.0741 -19.2649 2.5087 0.9252
0.7632 -19.2886 2.5137 0.9251
2.8597 -19.3607 2.5485 0.9241
4.3007 -19.4102 2.5889 0.9229
5.0404 -19.4357 2.6147 0.9222
7.3492 -19.4750 2.7106 0.9195
8.1664 -19.5031 2.7534 0.9182
9.0273 -19.5675 2.8062 0.9167
9.9043 -19.5977 2.8594 0.9152
12.7420 -19.6604 3.0509 0.9098
16.8881 -22.3799 3.6510 0.8931
21.4912 -24.6102 4.2547 0.8765
28.7928 -24.7559 4.9448 0.8580
22.3799 6.6650 3.0409 0.9101
31.4353 13.1627 4.4379 0.8716
-34.2679 -23.9885 4.4918 0.8451
-27.2675 -22.1470 3.7722 0.8682
-26.5215 -23.1602 3.7810 0.8679
-19.8048 -18.5816 2.9162 0.8965
-16.0863 -18.7095 2.6495 0.9055
-14.9889 -18.7472 2.5774 0.9080
-13.9484 -18.7830 2.5123 0.9102
-12.0117 -18.8496 2.4001 0.9140
-11.0843 -18.8463 2.3478 0.9158
-10.2132 -18.8763 2.3046 0.9173
-9.3896 -18.9396 2.2700 0.9185
-7.7825 -18.9948 2.2043 0.9207
-7.0114 -19.0213 2.1769 0.9217
-6.2583 -19.0472 2.1529 0.9225
-5.2749 -18.2238 2.0372 0.9265
-3.2198 -18.2475 1.9897 0.9282
-1.2378 -18.2957 1.9691 0.9289
0.0705 -18.3415 1.9696 0.9289
1.3871 -18.3989 1.9813 0.9285
5.0403 -19.4357 2.1561 0.9224
5.7958 -19.4616 2.1805 0.9216
7.3492 -19.4750 2.2352 0.9197
8.1664 -19.5031 2.2705 0.9185
9.0273 -19.5675 2.3140 0.9170
10.8165 -19.6290 2.4066 0.9138
11.7683 -19.6618 2.4606 0.9119
12.7652 -19.6960 2.5203 0.9099
13.7879 -19.6963 2.5817 0.9078
14.9187 -19.7701 2.6596 0.9052
16.0902 -19.8104 2.7405 0.9024
17.3370 -19.8532 2.8303 0.8994
23.0413 -22.8648 3.4857 0.8776
26.7782 -24.7398 3.9149 0.8636
28.9042 -24.8517 4.0933 0.8578
31.3778 13.1387 3.6529 0.8721
32.8799 15.1688 3.8883 0.8644
-31.8974 -24.0700 3.3827 0.8518
-25.4721 -22.2438 2.8627 0.8731
-18.4843 -18.6270 2.2215 0.9000
-16.0569 -18.6753 2.0849 0.9059
-14.9630 -18.7148 2.0284 0.9083
-13.9243 -18.7505 1.9771 0.9105
-13.0136 -18.8979 1.9424 0.9120
-12.3295 -19.3483 1.9422 0.9120
-11.0842 -18.8463 1.8509 0.9160
-8.9315 -18.0157 1.7022 0.9225
-8.1560 -18.0424 1.6761 0.9236
-7.4029 -18.0683 1.6529 0.9246
-4.5623 -18.1660 1.5856 0.9276
-3.2136 -18.2123 1.5655 0.9284
-2.5503 -18.2351 1.5587 0.9288
-1.8919 -18.2578 1.5538 0.9290
-1.2368 -18.2803 1.5510 0.9291
-0.5832 -18.3028 1.5502 0.9291
0.7260 -18.3478 1.5544 0.9289
1.3849 -18.3704 1.5595 0.9287
2.0491 -18.3932 1.5667 0.9284
2.7202 -18.4163 1.5759 0.9280
3.4002 -18.4397 1.5873 0.9275
4.0909 -18.4634 1.6009 0.9269
6.2492 -18.5376 1.6560 0.9245
9.5778 -20.7609 1.9355 0.9123
10.3115 -20.4034 1.9352 0.9123
11.0320 -20.0201 1.9350 0.9123
13.7804 -19.6855 2.0342 0.9080
14.8916 -19.7343 2.0928 0.9055
17.3370 -19.8532 2.2312 0.8996
21.1686 -22.5620 2.6190 0.8832
22.7559 -22.5816 2.7139 0.8792
28.4834 -22.7733 3.0871 0.8638
22.3176 6.6463 1.9713 0.9108
30.2123 13.9380 2.8166 0.8750
29.6771 14.9982 2.8149 0.8750
-36.5285 -21.8638 2.6399 0.8431
-31.4807 -22.0373 2.3829 0.8573
-27.2675 -22.1471 2.1783 0.8687
-25.4721 -22.2438 2.0970 0.8733
-20.6661 -22.3689 1.8885 0.8851
-17.3566 -20.1869 1.6509 0.8988
-14.8942 -20.0566 1.5491 0.9047
-13.8376 -20.0945 1.5129 0.9068
-12.7876 -20.0671 1.4755 0.9090
-11.0842 -18.8463 1.3558 0.9161
-9.7327 -17.9882 1.2683 0.9213
-8.9346 -18.0218 1.2473 0.9225
-7.4189 -18.1074 1.2134 0.9246
-6.6889 -18.1464 1.1993 0.9254
-5.9744 -18.1832 1.1868 0.9262
-5.2732 -18.2179 1.1761 0.9268
-3.9202 -18.3606 1.1642 0.9275
-3.2618 -18.4856 1.1640 0.9275
-1.9341 -18.6647 1.1636 0.9276
-1.2664 -18.7186 1.1634 0.9276
0.0721 -18.7546 1.1630 0.9276
2.0754 -18.6296 1.1624 0.9276
3.4154 -18.5221 1.1679 0.9273
4.1070 -18.5363 1.1773 0.9267
4.8105 -18.5493 1.1883 0.9261
6.2607 -18.5716 1.2153 0.9245
8.1664 -19.5030 1.3111 0.9188
10.5586 -20.8922 1.4516 0.9105
13.7430 -21.2048 1.5669 0.9037
17.4585 -21.4950 1.7172 0.8950
26.4461 -22.7382 2.1627 0.8696
28.5290 -22.8097 2.2650 0.8638
31.0820 13.0148 2.0896 0.8737
29.9995 15.1611 2.0843 0.8740
-33.6919 -23.5853 1.6217 0.8482
-31.3292 -23.6413 1.5476 0.8546
-24.4369 -21.3398 1.2793 0.8782
-22.8044 -21.3960 1.2330 0.8823
-21.2839 -21.4482 1.1915 0.8861
-16.1146 -18.7424 0.9746 0.9058
-13.8783 -18.6886 0.9179 0.9110
-12.8381 -18.6431 0.8926 0.9134
-11.0842 -18.8463 0.8621 0.9162
-4.0754 -19.0873 0.7696 0.9248
-3.2018 -22.8935 0.9115 0.9116
-2.3752 -22.9219 0.9087 0.9119
-0.7322 -22.9784 0.9065 0.9121
1.4533 -19.2773 0.7623 0.9255
2.5725 -23.0920 0.9162 0.9112
3.4151 -23.1210 0.9216 0.9107
5.1360 -23.1801 0.9362 0.9093
6.0193 -23.2105 0.9455 0.9085
7.2358 -21.4643 0.8932 0.9133
8.1664 -19.5030 0.8337 0.9188
7.8629 -17.0435 0.7401 0.9276
9.8436 -19.4776 0.8605 0.9163
11.7851 -19.6898 0.9048 0.9122
12.8462 -19.8211 0.9314 0.9098
21.8437 -21.6764 1.2134 0.8841
25.8257 -23.8599 1.3864 0.8687
27.9551 -24.0356 1.4537 0.8628
36.0076 12.1385 1.4983 0.8589
30.3280 15.3272 1.3399 0.8728
-28.8020 -21.7342 0.6095 0.8656
-27.2675 -22.1471 0.5934 0.8689
-26.5225 -23.1611 0.5948 0.8686
-25.7756 -25.9746 0.6181 0.8638
-16.8945 -18.2864 0.4205 0.9052
-17.6740 -20.5561 0.4579 0.8972
-13.1973 -20.7101 0.4148 0.9064
-11.0842 -18.8463 0.3693 0.9162
-10.2131 -18.8762 0.3625 0.9177
-10.1196 -20.4122 0.3848 0.9129
-8.3732 -22.7157 0.4090 0.9077
-7.4201 -22.5834 0.4015 0.9093
-4.0056 -22.7008 0.3894 0.9119
-2.3752 -22.9219 0.3893 0.9119
-1.5416 -22.7855 0.3858 0.9127
0.0885 -23.0066 0.3886 0.9121
0.9114 -23.0349 0.3894 0.9119
4.2381 -22.9842 0.3948 0.9107
7.2357 -21.4639 0.3826 0.9134
8.1664 -19.5030 0.3572 0.9189
12.4674 -19.2366 0.3872 0.9124
22.9843 -24.4973 0.5674 0.8743
26.6594 -24.6300 0.6131 0.8648
27.9420 -22.3404 0.6043 0.8666
47.4986 7.0158 0.8110 0.8252
33.8430 11.4088 0.6033 0.8669
30.6518 12.8346 0.5613 0.8755
13.3361 6.7398 0.2524 0.9420
12.4316 6.8504 0.2398 0.9448
-34.0695 -23.8496 -0.2341 0.8467
-27.2675 -22.1471 -0.1978 0.8689
-26.5840 -24.9421 -0.2052 0.8643
-17.6740 -20.5561 -0.1526 0.8972
-16.4683 -20.5976 -0.1485 0.8999
-14.2369 -20.6743 -0.1413 0.9045
-13.1973 -20.7101 -0.1383 0.9064
-11.0842 -18.8463 -0.1231 0.9163
-10.1198 -20.4126 -0.1283 0.9129
-10.0547 -22.2427 -0.1374 0.9070
-7.4201 -22.5834 -0.1338 0.9093
-6.5929 -22.7769 -0.1335 0.9095
-5.7277 -22.8066 -0.1324 0.9102
-1.5416 -22.7855 -0.1286 0.9127
-0.7322 -22.9784 -0.1294 0.9121
0.9114 -23.0349 -0.1298 0.9119
1.4533 -19.2773 -0.1088 0.9256
4.2381 -22.9842 -0.1316 0.9107
5.1360 -23.1801 -0.1337 0.9094
16.8881 -22.3799 -0.1579 0.8939
30.9920 -24.7789 -0.2234 0.8532
48.3195 5.3829 -0.2737 0.8233
46.7207 6.9008 -0.2659 0.8279
47.5179 8.7619 -0.2720 0.8243
22.1949 6.6099 -0.1304 0.9115
30.7065 11.5876 -0.1848 0.8770
14.4241 7.9483 -0.0927 0.9362
-22.2398 -14.4138 -0.7462 0.8994
-13.6753 -14.8020 -0.5674 0.9225
-12.6172 -14.6747 -0.5449 0.9255
-10.9412 -14.7335 -0.5167 0.9292
-9.5633 -15.0074 -0.5011 0.9313
-8.8019 -14.9655 -0.4889 0.9329
-4.4048 -15.2175 -0.4461 0.9386
-2.7133 -15.3767 -0.4397 0.9394
-1.5920 -15.3629 -0.4349 0.9401
-1.0431 -15.4173 -0.4351 0.9400
1.1524 -15.2867 -0.4317 0.9405
1.6888 -15.1592 -0.4295 0.9408
3.4389 -15.5208 -0.4476 0.9384
4.0521 -15.6247 -0.4545 0.9374
4.6183 -15.5077 -0.4556 0.9373
5.2069 -15.4456 -0.4590 0.9369
6.4485 -15.4003 -0.4701 0.9354
7.8266 -15.4864 -0.4886 0.9329
8.6060 -15.6176 -0.5021 0.9311
10.1728 -15.6962 -0.5267 0.9279
10.9749 -15.6778 -0.5389 0.9263
16.4266 -20.2245 -0.7337 0.9010
17.5653 -18.7216 -0.7229 0.9024
17.8793 -17.7424 -0.7093 0.9041
23.2151 -18.5611 -0.8369 0.8879
48.5770 -1.5479 -1.3685 0.8233
43.6515 1.7271 -1.2301 0.8396
22.1646 6.6008 -0.6512 0.9116
33.8964 11.4268 -1.0072 0.8666
30.3870 11.4671 -0.9145 0.8781
29.4254 12.3212 -0.8983 0.8802
14.3885 7.2717 -0.4540 0.9375
14.4239 7.9482 -0.4637 0.9362
-17.7242 -14.3958 -1.1580 0.9126
-14.3635 -14.4744 -1.0341 0.9216
-11.6522 -14.5738 -0.9463 0.9280
-10.9765 -14.7810 -0.9337 0.9289
-9.4590 -14.8437 -0.8926 0.9319
-8.0578 -14.8927 -0.8587 0.9344
-7.3747 -14.8753 -0.8420 0.9357
-6.1390 -14.9836 -0.8212 0.9372
-5.5577 -15.0777 -0.8149 0.9377
-4.9257 -14.9913 -0.8003 0.9388
-3.8095 -15.1687 -0.7932 0.9393
-2.6948 -15.2721 -0.7865 0.9398
-1.5797 -15.2448 -0.7773 0.9405
0.0581 -15.1146 -0.7665 0.9413
1.6949 -15.2139 -0.7763 0.9405
2.2925 -15.5203 -0.7956 0.9391
5.1624 -15.3137 -0.8196 0.9373
5.7788 -15.3136 -0.8301 0.9365
7.0674 -15.3192 -0.8556 0.9347
7.7313 -15.2979 -0.8693 0.9337
8.4878 -15.4030 -0.8919 0.9320
16.2331 -19.9863 -1.3058 0.9020
16.7055 -19.1300 -1.2880 0.9033
17.4267 -18.5738 -1.2917 0.9030
18.0093 -17.8713 -1.2867 0.9034
18.4109 -17.0094 -1.2712 0.9045
30.0564 -22.3202 -1.8986 0.8608
43.6162 -23.5989 -2.5150 0.8199
44.4352 -22.0294 -2.5152 0.8198
45.1974 -20.4312 -2.5155 0.8198
45.9016 -18.8066 -2.5157 0.8198
46.5473 -17.1576 -2.5159 0.8198
47.1332 -15.4864 -2.5160 0.8198
47.6588 -13.7951 -2.5162 0.8198
48.5266 -10.3611 -2.5165 0.8198
48.2141 -8.5075 -2.4829 0.8219
46.1556 -6.4551 -2.3635 0.8297
46.3578 -4.8037 -2.3636 0.8297
41.1994 3.1059 -2.0953 0.8475
38.9071 4.3344 -1.9853 0.8549
32.4117 7.1814 -1.6836 0.8755
30.6720 7.9543 -1.6070 0.8808
22.1342 6.5917 -1.1712 0.9117
25.9655 9.7986 -1.4075 0.8948
24.5465 10.2783 -1.3496 0.8989
14.3660 6.6276 -0.8024 0.9386
14.3884 7.2717 -0.8176 0.9375
14.4238 7.9482 -0.8352 0.9362
-23.0528 -13.7980 -1.9699 0.8978
-17.7370 -14.4062 -1.6754 0.9124
-15.4910 -14.5342 -1.5575 0.9183
-14.3791 -14.4902 -1.4968 0.9214
-13.5522 -14.6688 -1.4643 0.9230
-11.7564 -14.7042 -1.3804 0.9273
-10.9357 -14.7262 -1.3449 0.9291
-8.0275 -14.8367 -1.2369 0.9346
-6.6790 -14.7749 -1.1889 0.9370
-4.9015 -14.9178 -1.1513 0.9390
-3.1692 -14.8433 -1.1129 0.9409
-1.5543 -14.9992 -1.1057 0.9413
0.6004 -15.1750 -1.1135 0.9409
2.2655 -15.3378 -1.1368 0.9397
3.3627 -15.1767 -1.1398 0.9396
5.1610 -15.3095 -1.1846 0.9373
7.8160 -15.4656 -1.2706 0.9329
8.4801 -15.3891 -1.2883 0.9320
9.1817 -15.3402 -1.3109 0.9308
10.0135 -15.4503 -1.3500 0.9288
14.9894 -19.8638 -1.8246 0.9050
15.6547 -19.2741 -1.8206 0.9052
17.7349 -17.5990 -1.8320 0.9046
18.2381 -16.8498 -1.8206 0.9052
20.5333 -17.6544 -1.9855 0.8971
23.7732 -19.0073 -2.2317 0.8851
28.8160 -18.3627 -2.5054 0.8719
30.1181 -16.2957 -2.5108 0.8717
30.6827 -15.2114 -2.5110 0.8717
31.2080 -14.1074 -2.5112 0.8717
32.1385 -11.8465 -2.5115 0.8716
32.9047 -9.5244 -2.5117 0.8716
33.7376 -5.9531 -2.5119 0.8716
33.7151 0.1297 -2.4721 0.8735
32.1511 1.2721 -2.3592 0.8789
32.0849 2.4188 -2.3592 0.8789
31.9776 3.5624 -2.3592 0.8789
31.8295 4.7014 -2.3591 0.8789
31.4112 6.9597 -2.3590 0.8789
31.1515 8.0787 -2.3597 0.8789
22.1039 6.5827 -1.6910 0.9116
27.5127 9.2748 -2.1288 0.8901
25.8125 9.7408 -2.0229 0.8952
23.9667 10.0355 -1.9051 0.9010
14.3658 6.6275 -1.1600 0.9385
14.3883 7.2716 -1.1821 0.9374
14.4237 7.9481 -1.2075 0.9361
-20.9409 -12.5339 -2.3430 0.9066
-19.8764 -13.9140 -2.3293 0.9071
-17.2491 -14.0099 -2.1334 0.9146
-15.0190 -14.0914 -1.9772 0.9206
-12.3000 -14.3057 -1.8113 0.9270
-11.7918 -14.7485 -1.8129 0.9269
-10.9015 -14.6800 -1.7555 0.9292
-7.3550 -14.8356 -1.5897 0.9356
-6.0704 -14.8161 -1.5372 0.9377
-4.8973 -14.9051 -1.5062 0.9389
-4.2877 -14.8129 -1.4805 0.9399
-3.1767 -14.8786 -1.4606 0.9407
-1.0149 -15.0012 -1.4435 0.9414
-0.4814 -15.1069 -1.4511 0.9411
1.1359 -15.0676 -1.4507 0.9411
2.2393 -15.1608 -1.4713 0.9403
2.8224 -15.3064 -1.4943 0.9394
3.9269 -15.1423 -1.5018 0.9391
7.0679 -15.3203 -1.6198 0.9344
8.5048 -15.4340 -1.6918 0.9316
10.8147 -15.4489 -1.8105 0.9270
14.7691 -19.5719 -2.3540 0.9062
15.2698 -18.8002 -2.3252 0.9073
15.9733 -18.2916 -2.3314 0.9070
16.7810 -17.8857 -2.3546 0.9061
18.0171 -16.6456 -2.3549 0.9061
18.6011 -15.9932 -2.3551 0.9061
19.1615 -15.3201 -2.3553 0.9061
21.5114 -14.8134 -2.5075 0.9004
22.5224 -13.2464 -2.5085 0.9003
22.9822 -12.4347 -2.5087 0.9003
23.4126 -11.6071 -2.5088 0.9003
24.8303 -8.1584 -2.5092 0.9003
25.1066 -7.2672 -2.5093 0.9003
25.5623 -5.4579 -2.5094 0.9003
25.8876 -3.6205 -2.5095 0.9003
26.1270 -0.8325 -2.5096 0.9003
26.1198 1.0334 -2.5096 0.9003
26.0660 1.9650 -2.5096 0.9003
23.9667 5.3102 -2.3567 0.9061
21.4489 7.2306 -2.1731 0.9131
21.6752 8.1795 -2.2242 0.9111
22.6391 9.4796 -2.3563 0.9061
14.3882 7.2715 -1.5477 0.9373
-17.9897 -10.7676 -2.4905 0.9190
-16.8609 -10.9277 -2.3867 0.9223
-15.7556 -11.8893 -2.3446 0.9236
-12.3321 -11.5704 -2.0087 0.9342
-9.1170 -14.3069 -2.0152 0.9339
-8.4293 -14.3320 -1.9751 0.9352
-7.7676 -14.3562 -1.9389 0.9364
-5.3247 -14.4454 -1.8288 0.9399
-4.7658 -14.5048 -1.8136 0.9404
-4.2454 -14.6669 -1.8137 0.9403
-3.7196 -14.8104 -1.8139 0.9403
-3.1642 -14.8195 -1.8000 0.9408
-2.6896 -15.2425 -1.8386 0.9396
-2.1041 -15.0450 -1.8045 0.9406
0.6025 -15.2278 -1.8103 0.9405
2.7721 -15.0336 -1.8159 0.9403
3.8382 -14.8002 -1.8162 0.9403
5.6018 -14.8444 -1.8847 0.9381
6.8697 -14.8907 -1.9480 0.9361
7.5378 -14.9151 -1.9851 0.9349
8.2329 -14.9405 -2.0263 0.9336
7.4086 -12.3778 -1.7136 0.9435
9.7182 -14.9948 -2.1225 0.9306
10.5171 -15.0239 -2.1784 0.9288
12.4899 -15.3776 -2.3533 0.9233
13.5570 -14.4494 -2.3536 0.9233
15.5459 -13.3662 -2.4353 0.9207
17.3820 -11.9698 -2.5069 0.9185
18.5646 -10.0445 -2.5073 0.9185
20.0566 -6.5899 -2.5078 0.9185
20.4767 -5.1426 -2.5079 0.9185
20.6476 -4.4085 -2.5079 0.9185
20.7921 -3.6688 -2.5080 0.9185
20.9101 -2.9244 -2.5080 0.9185
21.0659 -1.4253 -2.5080 0.9185
21.1034 -0.6725 -2.5081 0.9185
20.8869 3.0851 -2.5080 0.9185
19.0025 5.6591 -2.3552 0.9232
18.7879 6.3336 -2.3551 0.9232
-15.1214 -9.0508 -2.4970 0.9313
-14.4384 -10.1073 -2.4972 0.9313
-14.0609 -10.6104 -2.4959 0.9313
-13.5304 -10.9896 -2.4698 0.9320
-12.6286 -11.0280 -2.3756 0.9345
-11.2358 -12.1615 -2.3460 0.9353
-10.3408 -12.9336 -2.3463 0.9353
-9.8732 -13.2953 -2.3464 0.9353
-8.9007 -13.9675 -2.3467 0.9353
-8.3970 -14.2772 -2.3469 0.9353
-6.5104 -14.4021 -2.2394 0.9381
-5.3247 -14.4454 -2.1814 0.9397
-4.7532 -14.4663 -2.1575 0.9403
-4.1933 -14.4867 -2.1369 0.9409
-3.6433 -14.5068 -2.1193 0.9414
-3.1016 -14.5266 -2.1047 0.9418
-2.0371 -14.5655 -2.0839 0.9423
-1.5113 -14.5847 -2.0776 0.9425
-0.9881 -14.6038 -2.0739 0.9426
-0.4660 -14.6229 -2.0730 0.9426
1.1067 -14.6803 -2.0859 0.9423
1.6376 -14.6997 -2.0957 0.9420
3.2702 -14.7593 -2.1420 0.9408
3.8329 -14.7798 -2.1634 0.9402
5.6018 -14.8444 -2.2481 0.9379
6.2253 -14.8672 -2.2837 0.9370
6.8697 -14.8907 -2.3236 0.9359
8.0110 -14.5378 -2.3519 0.9351
10.4682 -12.8885 -2.3526 0.9351
10.9222 -12.5074 -2.3528 0.9351
11.7159 -12.4871 -2.4261 0.9332
12.5306 -12.4346 -2.5013 0.9312
12.9889 -12.0002 -2.5056 0.9311
14.1993 -10.5445 -2.5060 0.9310
14.5673 -10.0314 -2.5061 0.9310
15.2470 -8.9674 -2.5063 0.9310
15.5580 -8.4178 -2.5064 0.9310
16.1199 -7.2869 -2.5065 0.9310
16.8079 -5.5225 -2.5068 0.9310
17.3030 -3.6944 -2.5069 0.9310
17.4241 -3.0745 -2.5069 0.9310
17.5993 -1.8237 -2.5070 0.9310
17.6848 -0.5635 -2.5070 0.9310
17.6799 0.6995 -2.5070 0.9310
17.5847 1.9590 -2.5070 0.9310
17.5034 2.5854 -2.5070 0.9310
17.3997 3.2084 -2.5069 0.9310
15.8656 5.9872 -2.4027 0.9338
15.3251 6.4170 -2.3541 0.9351
14.8273 7.4935 -2.3539 0.9351
14.4233 7.9479 -2.3334 0.9356
-13.0090 -7.7864 -2.4976 0.9404
-12.1035 -9.1334 -2.4979 0.9404
-11.7703 -9.5600 -2.4980 0.9404
-11.4220 -9.9744 -2.4981 0.9404
-10.6714 -10.7538 -2.4958 0.9404
-10.2221 -11.0643 -2.4815 0.9408
-9.5380 -11.0934 -2.4101 0.9424
-8.0801 -11.7335 -2.3470 0.9439
-7.2232 -12.2814 -2.3472 0.9439
-6.7806 -12.5322 -2.3474 0.9439
-5.8700 -12.9855 -2.3476 0.9439
-4.9293 -13.3728 -2.3479 0.9439
-4.4492 -13.5411 -2.3481 0.9439
-2.4774 -14.0400 -2.3487 0.9438
-1.9748 -14.1204 -2.3488 0.9438
-1.4697 -14.1829 -2.3490 0.9438
-0.9626 -14.2272 -2.3491 0.9438
-0.4542 -14.2534 -2.3493 0.9438
0.0548 -14.2615 -2.3495 0.9438
2.0845 -14.1123 -2.3501 0.9438
4.0727 -13.6755 -2.3507 0.9438
4.5585 -13.5223 -2.3508 0.9438
5.0385 -13.3518 -2.3510 0.9438
5.9789 -12.9599 -2.3513 0.9438
7.7643 -11.9799 -2.3518 0.9438
8.3496 -11.9275 -2.3985 0.9427
9.0687 -12.0178 -2.4802 0.9408
10.7931 -10.7104 -2.5049 0.9402
11.8777 -9.4966 -2.5053 0.9402
12.5259 -8.6257 -2.5055 0.9402
12.8263 -8.1734 -2.5055 0.9402
13.1103 -7.7107 -2.5056 0.9402
13.3776 -7.2381 -2.5057 0.9402
13.8606 -6.2656 -2.5059 0.9402
14.4520 -4.7484 -2.5060 0.9402
14.6126 -4.2297 -2.5061 0.9402
14.8776 -3.1766 -2.5062 0.9402
14.9816 -2.6436 -2.5062 0.9402
15.0666 -2.1071 -2.5062 0.9402
15.1323 -1.5681 -2.5062 0.9402
15.1787 -1.0270 -2.5062 0.9402
15.2016 0.6015 -2.5063 0.9402
15.1703 1.1437 -2.5062 0.9402
15.0499 2.2229 -2.5062 0.9402
14.5795 4.3419 -2.5061 0.9402
14.2320 5.3707 -2.5059 0.9402
13.7711 6.3531 -2.4984 0.9404
12.9201 6.5296 -2.3848 0.9430
12.5108 6.8940 -2.3532 0.9437
-11.1535 -7.2287 -2.4982 0.9473
-10.8887 -7.6224 -2.4983 0.9473
-10.6101 -8.0065 -2.4984 0.9473
-10.3179 -8.3804 -2.4985 0.9473
-9.0217 -9.7650 -2.4989 0.9473
-8.6678 -10.0813 -2.4990 0.9473
-7.5284 -10.9325 -2.4950 0.9474
-5.1453 -11.3823 -2.3479 0.9504
-4.7360 -11.5593 -2.3480 0.9504
-3.8997 -11.8690 -2.3482 0.9504
-3.4738 -12.0013 -2.3484 0.9504
-2.1714 -12.3060 -2.3488 0.9504
-1.7309 -12.3763 -2.3489 0.9504
-1.2881 -12.4309 -2.3490 0.9504
-0.8437 -12.4697 -2.3492 0.9504
0.0481 -12.4996 -2.3494 0.9504
2.2673 -12.2960 -2.3501 0.9504
3.1391 -12.1043 -2.3504 0.9504
3.5693 -11.9852 -2.3505 0.9504
3.9950 -11.8508 -2.3507 0.9504
4.4157 -11.7013 -2.3508 0.9504
4.8363 -11.5501 -2.3536 0.9503
5.8733 -11.6215 -2.4475 0.9484
7.2450 -11.1786 -2.5038 0.9472
8.3996 -10.3416 -2.5042 0.9472
8.7637 -10.0356 -2.5043 0.9472
9.1167 -9.7169 -2.5044 0.9472
9.7875 -9.0425 -2.5046 0.9472
10.6992 -7.9453 -2.5049 0.9472
10.9763 -7.5586 -2.5050 0.9472
11.4883 -6.7567 -2.5051 0.9472
11.7225 -6.3425 -2.5052 0.9472
11.9417 -5.9203 -2.5053 0.9472
12.1457 -5.4904 -2.5053 0.9472
12.3342 -5.0535 -2.5054 0.9472
12.8044 -3.7063 -2.5055 0.9472
13.2022 -1.8464 -2.5056 0.9472
13.3004 -0.8999 -2.5057 0.9472
13.3241 -0.4246 -2.5057 0.9472
13.3204 0.5270 -2.5057 0.9472
13.2488 1.4759 -2.5057 0.9472
13.1875 1.9479 -2.5056 0.9472
13.0147 2.8836 -2.5056 0.9472
12.7754 3.8046 -2.5055 0.9472
12.2948 5.1482 -2.5054 0.9472
11.8956 6.0119 -2.5052 0.9472
-9.6838 -6.7789 -2.4987 0.9528
-8.6216 -8.0891 -2.4990 0.9528
-8.3277 -8.3920 -2.4991 0.9528
-8.0232 -8.6842 -2.4992 0.9528
-7.3838 -9.2352 -2.4994 0.9528
-7.0497 -9.4932 -2.4995 0.9528
-6.7067 -9.7392 -2.4996 0.9528
-6.3551 -9.9728 -2.4997 0.9528
-5.6279 -10.4017 -2.4999 0.9528
-5.2533 -10.5964 -2.5000 0.9528
-4.8707 -10.7749 -2.4995 0.9528
-3.2500 -11.2281 -2.4708 0.9533
-2.8233 -11.2419 -2.4501 0.9537
-2.4031 -11.2549 -2.4327 0.9540
-1.1699 -11.2897 -2.3992 0.9547
-0.7645 -11.3001 -2.3941 0.9548
-0.3604 -11.3099 -2.3919 0.9548
0.4482 -11.3278 -2.3964 0.9547
0.8546 -11.3360 -2.4030 0.9546
2.5212 -11.3790 -2.4636 0.9535
2.9556 -11.3967 -2.4887 0.9530
3.7769 -11.2037 -2.4992 0.9528
4.1790 -11.0742 -2.5020 0.9528
4.5735 -10.9225 -2.5030 0.9527
5.3416 -10.5694 -2.5033 0.9527
6.0825 -10.1623 -2.5035 0.9527
6.4417 -9.9392 -2.5036 0.9527
7.1349 -9.4551 -2.5038 0.9527
7.4681 -9.1948 -2.5039 0.9527
7.7919 -8.9227 -2.5040 0.9527
9.5124 -7.0640 -2.5045 0.9527
9.7588 -6.7202 -2.5046 0.9527
10.7983 -4.8813 -2.5049 0.9527
11.1194 -4.0987 -2.5050 0.9527
11.2588 -3.6993 -2.5051 0.9527
11.4943 -2.8867 -2.5051 0.9527
11.5902 -2.4747 -2.5052 0.9527
4.7580 -0.4930 -1.0111 0.9806
4.7360 -0.1509 -1.0016 0.9808
4.7571 0.0183 -1.0056 0.9807
11.8182 0.8909 -2.5052 0.9527
11.7788 1.3122 -2.5052 0.9527
11.7244 1.7317 -2.5052 0.9527
11.2299 3.7857 -2.5050 0.9527
11.0874 4.1840 -2.5050 0.9527
10.9308 4.5770 -2.5049 0.9527
10.3782 5.7189 -2.5048 0.9527
-9.1230 -5.4604 -2.4988 0.9573
-8.9225 -5.7827 -2.4989 0.9573
-8.7106 -6.0977 -2.4990 0.9573
-8.2539 -6.7039 -2.4991 0.9572
-8.0096 -6.9945 -2.4992 0.9572
-6.3411 -8.5389 -2.4997 0.9572
-5.3926 -9.1689 -2.5000 0.9572
-4.7251 -9.5310 -2.5002 0.9572
-4.0335 -9.8447 -2.5004 0.9572
-3.3212 -10.1082 -2.5006 0.9572
-2.5919 -10.3203 -2.5008 0.9572
-1.8492 -10.4799 -2.5011 0.9572
-1.4740 -10.5397 -2.5012 0.9572
-0.7185 -10.6190 -2.5014 0.9572
-0.3390 -10.6383 -2.5015 0.9572
0.4208 -10.6364 -2.5018 0.9572
0.8003 -10.6151 -2.5019 0.9572
1.1787 -10.5803 -2.5020 0.9572
1.9306 -10.4702 -2.5022 0.9572
2.3032 -10.3951 -2.5023 0.9572
2.6729 -10.3067 -2.5024 0.9572
3.0392 -10.2052 -2.5026 0.9572
3.7598 -9.9633 -2.5028 0.9572
5.1403 -9.3283 -2.5032 0.9572
5.4702 -9.1393 -2.5033 0.9572
6.1087 -8.7265 -2.5035 0.9572
7.8257 -7.2300 -2.5040 0.9572
8.0790 -6.9463 -2.5041 0.9572
8.7760 -6.0434 -2.5043 0.9572
9.3724 -5.0710 -2.5045 0.9572
9.5476 -4.7334 -2.5045 0.9572
9.9994 -3.6859 -2.5047 0.9572
10.3365 -2.5960 -2.5048 0.9572
4.3849 -0.1397 -1.0311 0.9821
4.4008 0.0169 -1.0343 0.9821
4.5171 0.3405 -1.0646 0.9816
10.5434 1.5573 -2.5048 0.9572
10.4053 2.3055 -2.5048 0.9572
10.3162 2.6754 -2.5048 0.9572
10.0988 3.4044 -2.5047 0.9572
9.9707 3.7626 -2.5046 0.9572
9.8299 4.1160 -2.5046 0.9572
9.3330 5.1429 -2.5045 0.9572
-8.2819 -4.9571 -2.4991 0.9609
-7.9075 -5.5355 -2.4992 0.9609
-7.7051 -5.8143 -2.4993 0.9609
-6.8000 -6.8525 -2.4995 0.9609
-4.5952 -8.4930 -2.5002 0.9609
-3.9779 -8.7998 -2.5004 0.9609
-3.6614 -8.9365 -2.5005 0.9609
-2.3528 -9.3682 -2.5009 0.9609
-2.0170 -9.4465 -2.5010 0.9609
-1.3380 -9.5671 -2.5012 0.9609
-0.9957 -9.6092 -2.5013 0.9609
0.0372 -9.6618 -2.5016 0.9609
1.0699 -9.6037 -2.5020 0.9609
1.4120 -9.5598 -2.5021 0.9609
2.0906 -9.4355 -2.5023 0.9609
3.7334 -8.9162 -2.5028 0.9608
4.6657 -8.4669 -2.5030 0.9608
4.9651 -8.2953 -2.5031 0.9608
5.2582 -8.1131 -2.5032 0.9608
5.5446 -7.9206 -2.5033 0.9608
5.8240 -7.7179 -2.5034 0.9608
6.3601 -7.2832 -2.5036 0.9608
6.6162 -7.0518 -2.5036 0.9608
7.3328 -6.3047 -2.5039 0.9608
8.1562 -5.1975 -2.5041 0.9608
8.6656 -4.2961 -2.5043 0.9608
8.8135 -3.9841 -2.5043 0.9608
9.0756 -3.3453 -2.5044 0.9608
9.2914 -2.6894 -2.5045 0.9608
9.3815 -2.3561 -2.5045 0.9608
4.0802 -0.4228 -1.0621 0.9832
4.0748 -0.2757 -1.0574 0.9833
4.0797 -0.1300 -1.0568 0.9833
4.0911 0.0157 -1.0593 0.9832
9.5126 1.7541 -2.5045 0.9608
9.4439 2.0925 -2.5045 0.9608
9.3631 2.4282 -2.5045 0.9608
9.1658 3.0899 -2.5044 0.9608
8.4708 4.6678 -2.5042 0.9608
-7.5753 -4.5341 -2.4993 0.9640
-7.4088 -4.8017 -2.4994 0.9640
-7.0477 -5.3182 -2.4995 0.9640
-6.8535 -5.5666 -2.4995 0.9640
-6.6507 -5.8078 -2.4996 0.9640
-6.4393 -6.0416 -2.4997 0.9640
-6.2197 -6.2677 -2.4997 0.9640
-5.9922 -6.4859 -2.4998 0.9640
-5.7571 -6.6959 -2.4999 0.9640
-5.5146 -6.8973 -2.4999 0.9640
-5.2650 -7.0899 -2.5000 0.9640
-5.0088 -7.2736 -2.5001 0.9640
-4.7461 -7.4479 -2.5002 0.9640
-4.4774 -7.6129 -2.5003 0.9639
-4.2030 -7.7681 -2.5003 0.9639
-3.9232 -7.9134 -2.5004 0.9639
-3.6384 -8.0487 -2.5005 0.9639
-3.0551 -8.2883 -2.5007 0.9639
-2.7575 -8.3924 -2.5008 0.9639
-2.4562 -8.4858 -2.5009 0.9639
-1.2238 -8.7503 -2.5012 0.9639
-0.2814 -8.8320 -2.5015 0.9639
0.6644 -8.8125 -2.5018 0.9639
0.9785 -8.7835 -2.5019 0.9639
1.2914 -8.7433 -2.5020 0.9639
1.6027 -8.6920 -2.5021 0.9639
1.9120 -8.6296 -2.5022 0.9639
2.5230 -8.4718 -2.5024 0.9639
2.8238 -8.3766 -2.5025 0.9639
3.9878 -7.8906 -2.5028 0.9639
4.5408 -7.5865 -2.5030 0.9639
5.0708 -7.2437 -2.5032 0.9639
5.3263 -7.0583 -2.5032 0.9639
5.5750 -6.8640 -2.5033 0.9639
5.8166 -6.6608 -2.5034 0.9639
6.0508 -6.4491 -2.5035 0.9639
6.2773 -6.2292 -2.5035 0.9639
6.4958 -6.0014 -2.5036 0.9639
6.7061 -5.7658 -2.5037 0.9639
7.1006 -5.2730 -2.5038 0.9639
7.4590 -4.7532 -2.5039 0.9639
7.6241 -4.4840 -2.5039 0.9639
7.7794 -4.2091 -2.5040 0.9639
8.1852 -3.3536 -2.5041 0.9639
8.2998 -3.0593 -2.5042 0.9639
8.4971 -2.4595 -2.5042 0.9639
4.0415 -0.8629 -1.1699 0.9830
3.9243 -0.5488 -1.1217 0.9837
3.9111 -0.4053 -1.1131 0.9838
3.8960 -0.2636 -1.1054 0.9839
3.9695 0.2992 -1.1269 0.9836
8.6994 1.6041 -2.5043 0.9639
8.6366 1.9136 -2.5042 0.9639
8.5627 2.2206 -2.5042 0.9639
8.1591 3.4164 -2.5041 0.9639
-6.9728 -4.1735 -2.4995 0.9666
-6.8195 -4.4198 -2.4995 0.9666
-6.1216 -5.3457 -2.4997 0.9666
-5.7249 -5.7691 -2.4999 0.9666
-5.2990 -6.1632 -2.5000 0.9666
-4.8462 -6.5259 -2.5001 0.9666
-4.6103 -6.6949 -2.5002 0.9666
-4.3685 -6.8553 -2.5003 0.9666
-4.1212 -7.0071 -2.5004 0.9666
-3.8686 -7.1500 -2.5004 0.9666
-2.5380 -7.7245 -2.5008 0.9665
-2.2608 -7.8104 -2.5009 0.9665
-1.9806 -7.8864 -2.5010 0.9665
-1.6979 -7.9524 -2.5011 0.9665
-0.5490 -8.1142 -2.5015 0.9665
0.3216 -8.1273 -2.5017 0.9665
0.6115 -8.1109 -2.5018 0.9665
0.9006 -8.0842 -2.5019 0.9665
1.1886 -8.0472 -2.5020 0.9665
1.4751 -7.9999 -2.5021 0.9665
2.0422 -7.8748 -2.5022 0.9665
2.3221 -7.7972 -2.5023 0.9665
3.4085 -7.3883 -2.5027 0.9665
4.1792 -6.9823 -2.5029 0.9665
4.9020 -6.4961 -2.5031 0.9665
5.1309 -6.3172 -2.5032 0.9665
5.3533 -6.1302 -2.5033 0.9665
5.5688 -5.9354 -2.5033 0.9665
5.9783 -5.5233 -2.5034 0.9665
6.5349 -4.8529 -2.5036 0.9665
6.8648 -4.3745 -2.5037 0.9665
7.1596 -3.8737 -2.5038 0.9665
7.7342 -2.5412 -2.5040 0.9665
7.8200 -2.2635 -2.5040 0.9665
7.8959 -1.9830 -2.5040 0.9665
3.8198 -0.8156 -1.2014 0.9838
3.7779 -0.6666 -1.1799 0.9841
3.7703 -0.5273 -1.1709 0.9842
3.7473 -0.1194 -1.1532 0.9844
3.7939 0.1501 -1.1678 0.9842
3.8489 0.4288 -1.1912 0.9839
7.8804 2.0437 -2.5040 0.9665
7.5090 3.1442 -2.5039 0.9665
-6.4524 -3.8620 -2.4996 0.9688
-6.3105 -4.0899 -2.4997 0.9688
-6.0029 -4.5299 -2.4998 0.9688
-5.2976 -5.3385 -2.5000 0.9688
-5.1038 -5.5243 -2.5001 0.9688
-4.9035 -5.7031 -2.5001 0.9688
-4.6969 -5.8746 -2.5002 0.9688
-4.4844 -6.0387 -2.5002 0.9688
-4.0424 -6.3436 -2.5004 0.9688
-3.8135 -6.4840 -2.5005 0.9688
-3.5797 -6.6162 -2.5005 0.9688
-3.0988 -6.8551 -2.5007 0.9688
-2.8523 -6.9616 -2.5007 0.9688
-2.6020 -7.0591 -2.5008 0.9688
-2.3485 -7.1477 -2.5009 0.9688
-1.8327 -7.2975 -2.5011 0.9688
-1.5711 -7.3585 -2.5011 0.9688
-1.3075 -7.4101 -2.5012 0.9688
-0.7756 -7.4850 -2.5014 0.9688
0.2975 -7.5202 -2.5017 0.9688
0.5658 -7.5050 -2.5018 0.9688
1.6283 -7.3491 -2.5021 0.9688
2.1486 -7.2146 -2.5023 0.9688
2.6580 -7.0434 -2.5024 0.9688
2.9078 -6.9443 -2.5025 0.9688
3.3959 -6.7195 -2.5027 0.9688
3.6337 -6.5942 -2.5027 0.9688
4.0951 -6.3186 -2.5029 0.9688
4.3181 -6.1686 -2.5029 0.9688
4.5357 -6.0107 -2.5030 0.9688
4.7475 -5.8451 -2.5031 0.9688
4.9532 -5.6721 -2.5031 0.9688
5.7105 -4.9099 -2.5034 0.9688
5.8822 -4.7030 -2.5034 0.9688
6.4922 -3.8183 -2.5036 0.9688
7.1560 -2.3512 -2.5038 0.9687
7.2354 -2.0943 -2.5038 0.9687
7.3056 -1.8348 -2.5038 0.9687
3.6240 -0.5068 -1.2164 0.9847
3.6038 -0.2438 -1.2007 0.9849
3.6480 0.1443 -1.2136 0.9847
3.6622 0.2761 -1.2208 0.9846
7.3542 1.6294 -2.5039 0.9687
7.2190 2.1499 -2.5038 0.9687
7.1377 2.4062 -2.5038 0.9687
7.0471 2.6593 -2.5038 0.9687
-5.5802 -4.2108 -2.4999 0.9707
-5.4264 -4.4074 -2.5000 0.9707
-4.9245 -4.9625 -2.5001 0.9707
-4.5581 -5.3014 -2.5002 0.9707
-4.1685 -5.6133 -2.5003 0.9707
-3.7576 -5.8967 -2.5005 0.9707
-3.5449 -6.0272 -2.5005 0.9707
-2.8805 -6.3721 -2.5007 0.9707
-2.6513 -6.4711 -2.5008 0.9707
-2.4187 -6.5618 -2.5009 0.9707
-2.1830 -6.6441 -2.5010 0.9707
-1.9446 -6.7180 -2.5010 0.9707
-1.4604 -6.8400 -2.5012 0.9707
-0.9688 -6.9272 -2.5013 0.9707
-0.2228 -6.9917 -2.5016 0.9707
0.5259 -6.9761 -2.5018 0.9707
0.7746 -6.9531 -2.5019 0.9707
1.5135 -6.8311 -2.5021 0.9707
1.7565 -6.7729 -2.5022 0.9707
2.7028 -6.4547 -2.5024 0.9707
3.3775 -6.1294 -2.5027 0.9707
3.5943 -6.0050 -2.5027 0.9707
3.8064 -5.8731 -2.5028 0.9707
4.0137 -5.7336 -2.5028 0.9707
4.6039 -5.2721 -2.5030 0.9707
4.9685 -4.9304 -2.5031 0.9707
5.7656 -3.9703 -2.5034 0.9707
6.3794 -2.8838 -2.5036 0.9707
6.5690 -2.4214 -2.5036 0.9707
6.6513 -2.1854 -2.5036 0.9707
6.7251 -1.9466 -2.5037 0.9707
3.5587 -0.8937 -1.3121 0.9845
3.4760 -0.2352 -1.2459 0.9853
3.4812 -0.1109 -1.2455 0.9853
3.5136 0.1390 -1.2575 0.9852
6.8852 1.2696 -2.5037 0.9707
6.6342 2.2365 -2.5036 0.9707
6.4576 2.7040 -2.5036 0.9707
6.2481 3.1577 -2.5035 0.9707
-5.5974 -3.3503 -2.4999 0.9724
-5.3443 -3.7412 -2.5000 0.9724
-4.7578 -4.4640 -2.5002 0.9724
-4.4274 -4.7922 -2.5003 0.9724
-4.2537 -4.9473 -2.5003 0.9724
-4.0745 -5.0961 -2.5004 0.9724
-3.7007 -5.3740 -2.5005 0.9724
-3.5066 -5.5028 -2.5005 0.9724
-3.3080 -5.6246 -2.5006 0.9724
-2.8985 -5.8466 -2.5007 0.9724
-1.3628 -6.3830 -2.5012 0.9724
-1.1342 -6.4277 -2.5013 0.9724
-0.6728 -6.4926 -2.5014 0.9724
-0.4406 -6.5127 -2.5015 0.9724
0.0251 -6.5279 -2.5016 0.9724
0.4908 -6.5098 -2.5018 0.9724
0.7228 -6.4884 -2.5018 0.9724
0.9540 -6.4586 -2.5019 0.9724
1.1839 -6.4206 -2.5020 0.9724
1.4124 -6.3745 -2.5021 0.9724
2.0859 -6.1875 -2.5023 0.9724
2.3054 -6.1092 -2.5023 0.9724
2.5221 -6.0232 -2.5024 0.9724
3.1517 -5.7196 -2.5026 0.9724
3.3539 -5.6036 -2.5026 0.9724
3.5519 -5.4804 -2.5027 0.9724
3.7453 -5.3503 -2.5028 0.9724
3.9340 -5.2133 -2.5028 0.9724
4.1177 -5.0697 -2.5029 0.9724
4.4690 -4.7632 -2.5030 0.9724
4.6363 -4.6008 -2.5030 0.9724
4.9529 -4.2585 -2.5031 0.9724
5.2442 -3.8944 -2.5032 0.9724
5.3800 -3.7048 -2.5033 0.9724
5.5089 -3.5105 -2.5033 0.9724
5.6307 -3.3117 -2.5033 0.9724
5.9527 -2.6909 -2.5034 0.9724
6.1296 -2.2594 -2.5035 0.9724
3.3946 -0.8525 -1.3413 0.9851
3.3728 -0.7201 -1.3216 0.9853
3.3609 -0.5930 -1.3078 0.9855
3.3532 -0.2269 -1.2879 0.9857
3.3944 0.2559 -1.3045 0.9855
3.4175 0.3807 -1.3177 0.9854
3.4532 0.5101 -1.3377 0.9852
6.3783 1.4132 -2.5036 0.9724
6.3237 1.6400 -2.5035 0.9724
6.1905 2.0869 -2.5035 0.9724
6.1120 2.3065 -2.5035 0.9724
5.8303 2.9465 -2.5034 0.9724
-5.1260 -3.3222 -2.5000 0.9739
-4.7418 -3.8513 -2.5002 0.9739
-4.3031 -4.3364 -2.5003 0.9739
-3.8152 -4.7718 -2.5005 0.9739
-3.4652 -5.0320 -2.5006 0.9739
-2.7140 -5.4745 -2.5008 0.9739
-2.5170 -5.5680 -2.5008 0.9739
-2.1135 -5.7336 -2.5010 0.9739
-1.6991 -5.8701 -2.5011 0.9739
-1.4886 -5.9271 -2.5012 0.9739
-1.2761 -5.9766 -2.5012 0.9739
-0.8465 -6.0528 -2.5014 0.9739
-0.1947 -6.1091 -2.5016 0.9739
0.0235 -6.1123 -2.5016 0.9739
0.4595 -6.0954 -2.5018 0.9739
0.6768 -6.0753 -2.5018 0.9739
0.8932 -6.0474 -2.5019 0.9739
1.3224 -5.9686 -2.5020 0.9739
1.7450 -5.8593 -2.5022 0.9739
2.5613 -5.5519 -2.5024 0.9739
2.7579 -5.4571 -2.5025 0.9739
3.1403 -5.2467 -2.5026 0.9739
3.3257 -5.1314 -2.5026 0.9739
3.8554 -4.7468 -2.5028 0.9739
4.1843 -4.4598 -2.5029 0.9739
4.4920 -4.1501 -2.5030 0.9739
4.6374 -3.9872 -2.5030 0.9739
4.9102 -3.6463 -2.5031 0.9739
5.3794 -2.9106 -2.5033 0.9739
5.4799 -2.7168 -2.5033 0.9739
5.5735 -2.5194 -2.5033 0.9739
5.6599 -2.3189 -2.5033 0.9739
5.7391 -2.1155 -2.5034 0.9739
5.8110 -1.9093 -2.5034 0.9739
5.8755 -1.7007 -2.5034 0.9739
3.2328 -0.8119 -1.3642 0.9857
3.2381 -0.2191 -1.3283 0.9861
3.2441 -0.1034 -1.3284 0.9861
3.2773 0.3651 -1.3496 0.9858
3.2936 0.4865 -1.3626 0.9857
6.0154 1.1092 -2.5034 0.9739
5.9719 1.3232 -2.5034 0.9739
5.8622 1.7458 -2.5034 0.9739
5.7961 1.9539 -2.5034 0.9739
5.7226 2.1595 -2.5034 0.9739
5.4588 2.7588 -2.5033 0.9739
-4.6997 -3.2899 -2.5002 0.9753
-4.5793 -3.4556 -2.5002 0.9753
-4.4531 -3.6169 -2.5003 0.9753
-3.2542 -4.7257 -2.5006 0.9753
-3.0836 -4.8389 -2.5007 0.9753
-2.9089 -4.9460 -2.5007 0.9753
-2.3637 -5.2290 -2.5009 0.9753
-2.1756 -5.3101 -2.5010 0.9753
-1.9848 -5.3845 -2.5010 0.9753
-1.3979 -5.5662 -2.5012 0.9753
-0.7950 -5.6842 -2.5014 0.9753
-0.5916 -5.7091 -2.5014 0.9753
-0.3875 -5.7267 -2.5015 0.9753
-0.1828 -5.7370 -2.5016 0.9753
0.0221 -5.7400 -2.5016 0.9753
0.2269 -5.7357 -2.5017 0.9753
1.0410 -5.6456 -2.5019 0.9753
1.6387 -5.5024 -2.5021 0.9753
2.0271 -5.3717 -2.5022 0.9753
2.4053 -5.2137 -2.5024 0.9753
2.9490 -4.9270 -2.5025 0.9753
3.1231 -4.8187 -2.5026 0.9753
3.2931 -4.7043 -2.5026 0.9753
4.0764 -4.0452 -2.5029 0.9753
4.2183 -3.8972 -2.5029 0.9753
4.3548 -3.7442 -2.5029 0.9753
4.7303 -3.2574 -2.5031 0.9753
4.9507 -2.9117 -2.5031 0.9753
5.0516 -2.7332 -2.5032 0.9753
5.1460 -2.5512 -2.5032 0.9752
5.3150 -2.1776 -2.5032 0.9752
5.3894 -1.9866 -2.5033 0.9752
5.4569 -1.7929 -2.5033 0.9752
3.0685 -0.7706 -1.3788 0.9863
3.0646 -0.6543 -1.3657 0.9864
3.0751 -0.5426 -1.3609 0.9865
3.0819 -0.4310 -1.3562 0.9865
3.0859 -0.3198 -1.3521 0.9866
3.1019 0.0119 -1.3519 0.9866
3.1114 0.2346 -1.3598 0.9865
3.1295 0.4622 -1.3787 0.9863
5.5050 1.6394 -2.5033 0.9752
5.4429 1.8349 -2.5033 0.9752
5.2154 2.4061 -2.5032 0.9752
5.0304 2.7720 -2.5031 0.9753
-4.5327 -2.9377 -2.5002 0.9765
-4.4250 -3.0976 -2.5003 0.9765
-3.9394 -3.6961 -2.5004 0.9765
-3.6658 -3.9678 -2.5005 0.9765
-3.5219 -4.0962 -2.5005 0.9765
-3.3735 -4.2194 -2.5006 0.9765
-3.2208 -4.3372 -2.5006 0.9765
-2.9033 -4.5561 -2.5007 0.9765
-2.7389 -4.6569 -2.5008 0.9765
-2.3998 -4.8406 -2.5009 0.9765
-1.6866 -5.1333 -2.5011 0.9765
-1.5024 -5.1904 -2.5012 0.9765
-1.1283 -5.2846 -2.5013 0.9765
-0.7485 -5.3518 -2.5014 0.9765
-0.3648 -5.3918 -2.5015 0.9765
-0.1721 -5.4015 -2.5016 0.9765
0.2137 -5.4003 -2.5017 0.9765
0.4063 -5.3894 -2.5017 0.9765
0.5984 -5.3716 -2.5018 0.9765
0.9801 -5.3154 -2.5019 0.9765
1.3569 -5.2322 -2.5020 0.9765
1.7268 -5.1223 -2.5021 0.9765
2.2646 -4.9087 -2.5023 0.9765
2.7765 -4.6388 -2.5025 0.9765
2.9404 -4.5368 -2.5025 0.9765
3.2566 -4.3157 -2.5026 0.9765
3.4087 -4.1968 -2.5027 0.9765
3.8380 -3.8086 -2.5028 0.9764
4.2233 -3.3766 -2.5029 0.9764
4.3412 -3.2238 -2.5029 0.9764
4.5602 -2.9060 -2.5030 0.9764
4.6611 -2.7414 -2.5030 0.9764
4.7560 -2.5733 -2.5031 0.9764
4.8449 -2.4019 -2.5031 0.9764
4.9276 -2.2275 -2.5031 0.9764
5.0740 -1.8703 -2.5032 0.9764
5.1376 -1.6880 -2.5032 0.9764
2.9348 -0.8495 -1.4142 0.9866
2.9136 -0.7317 -1.3906 0.9868
2.9324 -0.4101 -1.3706 0.9870
2.9453 -0.0939 -1.3640 0.9871
2.9530 0.0113 -1.3669 0.9871
2.9625 0.3300 -1.3798 0.9869
5.2347 1.3575 -2.5032 0.9764
5.1828 1.5435 -2.5032 0.9764
4.9880 2.0886 -2.5031 0.9764
4.9103 2.2653 -2.5031 0.9764
4.8262 2.4391 -2.5031 0.9764
-4.3736 -2.6178 -2.5003 0.9775
-4.2774 -2.7722 -2.5003 0.9775
-3.9567 -3.2137 -2.5004 0.9775
-3.8396 -3.3529 -2.5004 0.9775
-3.5907 -3.6184 -2.5005 0.9775
-3.1835 -3.9817 -2.5006 0.9775
-2.8914 -4.1988 -2.5007 0.9775
-2.7398 -4.2994 -2.5008 0.9775
-2.5846 -4.3946 -2.5008 0.9775
-2.2646 -4.5679 -2.5009 0.9775
-2.1002 -4.6459 -2.5010 0.9775
-1.9331 -4.7180 -2.5010 0.9775
-1.7635 -4.7842 -2.5011 0.9775
-1.5916 -4.8441 -2.5011 0.9775
-1.2420 -4.9455 -2.5012 0.9775
-0.7063 -5.0503 -2.5014 0.9775
-0.3443 -5.0880 -2.5015 0.9775
-0.1624 -5.0972 -2.5016 0.9775
0.3834 -5.0857 -2.5017 0.9775
0.9249 -5.0159 -2.5019 0.9775
1.1034 -4.9798 -2.5020 0.9775
1.6295 -4.8336 -2.5021 0.9775
1.8010 -4.7725 -2.5022 0.9775
2.3010 -4.5529 -2.5023 0.9775
2.6200 -4.3773 -2.5024 0.9775
3.0731 -4.0724 -2.5026 0.9775
3.3559 -3.8429 -2.5026 0.9775
3.6216 -3.5939 -2.5027 0.9775
4.2025 -2.8939 -2.5029 0.9775
4.3031 -2.7421 -2.5029 0.9775
4.3983 -2.5868 -2.5030 0.9775
4.4879 -2.4282 -2.5030 0.9775
4.5717 -2.2665 -2.5030 0.9775
4.7879 -1.7649 -2.5031 0.9775
2.8106 -0.9235 -1.4512 0.9869
2.7986 -0.2900 -1.3801 0.9875
2.7986 -0.1894 -1.3759 0.9876
2.8060 -0.0894 -1.3771 0.9876
2.8149 0.0108 -1.3808 0.9875
2.8242 0.3146 -1.3939 0.9874
2.8304 0.4181 -1.4034 0.9873
2.8583 0.5271 -1.4257 0.9871
2.9012 0.6428 -1.4576 0.9868
4.9396 1.2810 -2.5031 0.9775
4.7068 1.9709 -2.5030 0.9775
-4.0446 -2.6213 -2.5004 0.9785
-3.5151 -3.2980 -2.5005 0.9785
-3.2710 -3.5405 -2.5006 0.9785
-3.1426 -3.6550 -2.5007 0.9785
-3.0102 -3.7649 -2.5007 0.9785
-2.7340 -3.9702 -2.5008 0.9785
-2.4439 -4.1553 -2.5009 0.9785
-2.1413 -4.3192 -2.5010 0.9785
-1.6674 -4.5236 -2.5011 0.9785
-1.1744 -4.6762 -2.5013 0.9785
-0.6679 -4.7753 -2.5014 0.9785
-0.3255 -4.8109 -2.5015 0.9785
0.0185 -4.8221 -2.5016 0.9785
0.1906 -4.8184 -2.5017 0.9785
0.3625 -4.8087 -2.5017 0.9785
0.7047 -4.7708 -2.5018 0.9785
0.8745 -4.7427 -2.5019 0.9785
1.2107 -4.6684 -2.5020 0.9785
1.5407 -4.5703 -2.5021 0.9785
1.7029 -4.5125 -2.5021 0.9785
2.0205 -4.3797 -2.5022 0.9785
2.1756 -4.3049 -2.5023 0.9785
2.3279 -4.2246 -2.5023 0.9785
2.4773 -4.1388 -2.5024 0.9785
2.6235 -4.0479 -2.5024 0.9785
2.7663 -3.9517 -2.5025 0.9785
2.9056 -3.8505 -2.5025 0.9785
3.1730 -3.6335 -2.5026 0.9785
3.3008 -3.5180 -2.5026 0.9785
3.4243 -3.3980 -2.5027 0.9785
3.5434 -3.2737 -2.5027 0.9785
3.6581 -3.1452 -2.5027 0.9785
3.7680 -3.0127 -2.5028 0.9785
3.8732 -2.8763 -2.5028 0.9785
3.9735 -2.7362 -2.5028 0.9785
4.0686 -2.5927 -2.5029 0.9785
4.2433 -2.2959 -2.5029 0.9785
4.3226 -2.1430 -2.5029 0.9785
4.3964 -1.9874 -2.5030 0.9785
4.4645 -1.8292 -2.5030 0.9785
2.7503 -0.7961 -1.4854 0.9872
2.7128 -0.6813 -1.4511 0.9875
2.6677 -0.3731 -1.3974 0.9879
2.6687 -0.2765 -1.3919 0.9880
2.6691 -0.1806 -1.3878 0.9880
2.7046 0.2039 -1.4071 0.9879
2.7529 0.4066 -1.4436 0.9875
2.8456 0.6305 -1.5121 0.9870
4.5720 1.5413 -2.5030 0.9785
4.5140 1.7035 -2.5030 0.9785
4.3809 2.0211 -2.5029 0.9785
4.3060 2.1762 -2.5029 0.9785
-3.9172 -2.3446 -2.5004 0.9794
-3.8311 -2.4830 -2.5004 0.9794
-3.6443 -2.7500 -2.5005 0.9794
-3.5438 -2.8783 -2.5005 0.9794
-3.3296 -3.1239 -2.5006 0.9794
-3.0983 -3.3536 -2.5007 0.9794
-2.9767 -3.4621 -2.5007 0.9794
-2.7222 -3.6657 -2.5008 0.9794
-2.4538 -3.8507 -2.5009 0.9794
-2.3149 -3.9359 -2.5009 0.9794
-1.8810 -4.1610 -2.5010 0.9794
-1.4255 -4.3385 -2.5012 0.9794
-1.2697 -4.3867 -2.5012 0.9794
-1.1124 -4.4293 -2.5013 0.9794
-0.9536 -4.4662 -2.5013 0.9794
-0.4707 -4.5429 -2.5015 0.9794
-0.1455 -4.5651 -2.5016 0.9794
0.0176 -4.5674 -2.5016 0.9794
0.1806 -4.5640 -2.5017 0.9794
0.5057 -4.5397 -2.5018 0.9794
0.6674 -4.5188 -2.5018 0.9794
0.9882 -4.4599 -2.5019 0.9794
1.1467 -4.4218 -2.5020 0.9794
1.3038 -4.3782 -2.5020 0.9794
1.4593 -4.3289 -2.5021 0.9794
2.0607 -4.0775 -2.5022 0.9794
2.2050 -4.0014 -2.5023 0.9794
2.3464 -3.9202 -2.5023 0.9794
2.7521 -3.6471 -2.5025 0.9794
3.0054 -3.4416 -2.5025 0.9794
3.5690 -2.8535 -2.5027 0.9794
3.8537 -2.4557 -2.5028 0.9794
4.0191 -2.1746 -2.5028 0.9794
4.0942 -2.0298 -2.5029 0.9794
4.1641 -1.8824 -2.5029 0.9794
2.8031 -0.9210 -1.6160 0.9866
2.7474 -0.7952 -1.5665 0.9870
2.6539 -0.2750 -1.4613 0.9879
2.6414 -0.1787 -1.4500 0.9880
2.6680 0.0102 -1.4613 0.9879
2.6809 0.1061 -1.4695 0.9878
2.7991 0.5161 -1.5589 0.9871
2.8569 0.6330 -1.6027 0.9867
4.4236 1.1472 -2.5030 0.9794
4.3304 1.4598 -2.5029 0.9794
4.2755 1.6134 -2.5029 0.9794
4.2152 1.7650 -2.5029 0.9794
4.1495 1.9143 -2.5029 0.9794
4.0785 2.0612 -2.5029 0.9794
-3.4572 -2.6088 -2.5006 0.9802
-2.9393 -3.1814 -2.5007 0.9802
-2.8239 -3.2844 -2.5008 0.9802
-2.7049 -3.3831 -2.5008 0.9802
-2.4567 -3.5676 -2.5009 0.9802
-2.3279 -3.6530 -2.5009 0.9802
-2.1960 -3.7338 -2.5009 0.9802
-2.0614 -3.8099 -2.5010 0.9802
-1.9241 -3.8811 -2.5010 0.9802
-1.4983 -4.0648 -2.5012 0.9802
-1.2046 -4.1614 -2.5012 0.9802
-0.9046 -4.2369 -2.5013 0.9802
-0.6001 -4.2908 -2.5014 0.9802
-0.4466 -4.3096 -2.5015 0.9802
-0.2925 -4.3229 -2.5015 0.9802
0.0167 -4.3329 -2.5016 0.9802
0.3257 -4.3209 -2.5017 0.9802
0.4798 -4.3065 -2.5018 0.9802
0.7858 -4.2615 -2.5019 0.9802
0.9374 -4.2308 -2.5019 0.9802
1.0878 -4.1947 -2.5019 0.9802
1.3844 -4.1066 -2.5020 0.9802
1.6739 -3.9975 -2.5021 0.9802
1.8155 -3.9353 -2.5022 0.9802
1.9548 -3.8680 -2.5022 0.9802
2.2259 -3.7189 -2.5023 0.9802
2.4856 -3.5507 -2.5024 0.9802
2.6108 -3.4598 -2.5024 0.9802
2.7326 -3.3644 -2.5024 0.9802
3.3856 -2.7069 -2.5026 0.9802
3.5702 -2.4585 -2.5027 0.9802
3.7365 -2.1976 -2.5028 0.9802
3.8126 -2.0629 -2.5028 0.9802
3.8839 -1.9255 -2.5028 0.9802
4.0114 -1.6435 -2.5028 0.9802
2.7444 -0.7944 -1.6495 0.9869
2.7039 -0.6791 -1.6096 0.9872
2.6678 -0.4707 -1.5640 0.9876
2.6558 -0.3714 -1.5482 0.9877
2.6921 0.2029 -1.5587 0.9876
2.7421 0.4050 -1.6003 0.9873
2.7962 0.5156 -1.6416 0.9870
4.1079 1.3848 -2.5029 0.9802
4.0559 1.5306 -2.5028 0.9802
3.9363 1.8160 -2.5028 0.9802
