ply
format ascii 1.0
element vertex 1345
property float32 x
property float32 y
property float32 z
property float32 I
end_header
14.5016 22.7568 4.7581 0.8962
13.3915 22.7693 4.6577 0.8983
12.3260 22.7812 4.5672 0.9001
8.4135 22.8253 4.2894 0.9059
7.4863 22.7848 4.2289 0.9072
6.6127 22.8455 4.1936 0.9079
5.7272 22.8046 4.1459 0.9089
4.8759 22.8366 4.1175 0.9095
4.0007 22.6733 4.0597 0.9107
3.2004 22.8839 4.0743 0.9104
0.7353 23.0747 4.0708 0.9105
-0.0882 22.9209 4.0416 0.9111
-2.5636 23.0123 4.0828 0.9102
-3.3911 22.9580 4.0920 0.9100
-4.2305 22.9425 4.1136 0.9096
-5.0805 22.9297 4.1412 0.9090
-5.9089 22.7847 4.1505 0.9088
-7.7387 22.9560 4.2716 0.9063
-9.6211 22.9772 4.3923 0.9038
-20.2650 33.8574 6.9576 0.8519
-22.4661 34.6641 7.2837 0.8455
-23.7574 33.9378 7.3047 0.8451
-27.7001 31.7202 7.4256 0.8428
-34.5529 29.7083 8.0350 0.8310
-36.5252 25.1522 7.8197 0.8352
-38.1650 24.3203 7.9797 0.8321
-40.7865 23.9881 8.3434 0.8251
-42.8633 23.1915 8.5933 0.8204
-43.7844 21.7067 8.6171 0.8200
-45.6671 -17.2333 8.6066 0.8202
-35.7756 -19.7140 7.2025 0.8471
10.3913 22.9874 3.8646 0.9030
9.2653 22.6141 3.7439 0.9058
8.4092 22.8134 3.7248 0.9063
1.5495 22.9025 3.5166 0.9113
0.7362 23.1047 3.5413 0.9107
-0.8993 22.7284 3.4846 0.9121
-0.6271 8.3177 1.2778 0.9668
-5.0870 22.9590 3.6025 0.9092
-5.9089 22.7847 3.6060 0.9091
-6.8433 22.9788 3.6730 0.9075
-7.7498 22.9890 3.7165 0.9065
-11.7066 23.1639 3.9760 0.9003
-23.7574 33.9378 6.3464 0.8457
-7.2676 9.6309 1.8484 0.9523
-27.7001 31.7203 6.4514 0.8433
-38.1583 24.3160 6.9317 0.8327
-18.6212 8.4176 3.1306 0.9206
-47.5411 10.1506 7.4472 0.8214
-18.5760 1.2568 2.8522 0.9274
-18.5918 -0.0715 2.8482 0.9275
-18.6000 -0.7359 2.8516 0.9274
-17.3769 -7.2762 2.8860 0.9266
-17.3378 -8.7622 2.9760 0.9244
15.6496 22.7258 3.5932 0.8947
10.4048 23.0172 3.2893 0.9031
9.2653 22.6141 3.1824 0.9061
8.4092 22.8135 3.1662 0.9066
7.5745 23.0531 3.1599 0.9068
6.6127 22.8455 3.0971 0.9085
3.1979 22.8658 3.0066 0.9111
1.5495 22.9025 2.9892 0.9116
0.7372 23.1347 3.0141 0.9109
-0.0881 22.9028 2.9824 0.9118
-0.8993 22.7284 2.9620 0.9123
-0.6270 8.3172 1.0862 0.9669
-3.3910 22.9580 3.0220 0.9106
-5.9089 22.7847 3.0652 0.9094
-6.8433 22.9788 3.1222 0.9078
-7.7498 22.9890 3.1592 0.9068
-9.7201 23.2136 3.2772 0.9035
-11.7433 23.2363 3.3903 0.9003
-12.7087 23.0628 3.4290 0.8992
-22.1121 34.1178 5.2944 0.8487
-7.2705 9.6347 1.5718 0.9525
-27.8691 31.9138 5.5174 0.8429
-29.2156 28.9917 5.3598 0.8470
-37.0695 27.5280 6.0127 0.8301
-36.3715 25.0463 5.7507 0.8368
-44.6087 20.1651 6.3750 0.8208
-42.2285 -17.6822 5.9616 0.8314
-35.8073 -19.7315 5.3239 0.8480
12.9788 15.0952 2.1377 0.9230
15.6496 22.7258 2.9630 0.8949
13.3915 22.7692 2.8365 0.8992
11.2998 22.7928 2.7318 0.9027
10.4048 23.0172 2.7124 0.9034
7.5760 23.0578 2.6062 0.9070
6.6127 22.8455 2.5539 0.9088
4.8781 22.8469 2.5086 0.9103
3.1979 22.8658 2.4793 0.9113
1.5495 22.9025 2.4649 0.9118
0.7372 23.1347 2.4855 0.9111
-0.0881 22.9028 2.4594 0.9120
-2.5814 23.1720 2.5036 0.9105
-3.3910 22.9580 2.4920 0.9109
-4.2763 23.1911 2.5323 0.9095
-5.9089 22.7847 2.5276 0.9097
-6.8433 22.9788 2.5746 0.9081
-8.6861 23.0176 2.6418 0.9058
-9.7328 23.2437 2.7059 0.9036
-7.0874 15.3627 1.8168 0.9342
-11.7585 23.2665 2.7993 0.9004
-20.2650 33.8574 4.2372 0.8532
-7.2734 9.6385 1.2966 0.9526
-8.4513 9.6778 1.3797 0.9496
-8.8772 9.4615 1.3932 0.9491
-37.0696 27.5281 4.9582 0.8305
-36.3401 25.0248 4.7380 0.8374
-38.1452 24.3077 4.8571 0.8336
-18.5111 7.5843 2.1481 0.9227
-26.3829 8.6685 2.9820 0.8943
-35.5777 -17.9804 4.2806 0.8518
-35.8074 -19.7315 4.3902 0.8483
15.8620 9.4940 1.5649 0.9285
11.1859 22.5630 2.1319 0.9038
10.2045 22.5740 2.0971 0.9053
9.2272 22.5210 2.0603 0.9069
4.8386 22.6619 1.9616 0.9112
2.6927 15.2603 1.3118 0.9397
2.0496 14.6550 1.2527 0.9423
1.5392 22.7507 1.9303 0.9125
-0.8963 22.6536 1.9192 0.9130
-0.6269 8.3154 0.7059 0.9671
-4.1977 22.7645 1.9596 0.9113
-6.7829 22.7761 2.0117 0.9090
-7.6788 22.7784 2.0349 0.9080
-8.5985 22.7855 2.0616 0.9069
-11.5733 22.9000 2.1721 0.9021
-8.2240 10.1254 1.1043 0.9490
-28.1330 32.2159 3.6207 0.8422
-28.2427 30.1018 3.4941 0.8473
-10.3780 8.2975 1.1248 0.9481
-38.1387 24.3035 3.8283 0.8340
-44.6088 20.1651 4.1442 0.8216
-45.9110 -17.3253 4.1540 0.8212
-41.8200 -17.5111 3.8380 0.8336
15.8646 9.4956 1.1465 0.9286
20.5603 27.6867 2.1385 0.8709
14.5016 22.7568 1.6733 0.8975
10.2990 22.7832 1.5504 0.9047
7.5016 22.8312 1.4902 0.9082
5.7391 22.8518 1.4611 0.9099
4.0357 22.8714 1.4402 0.9111
2.3720 22.8905 1.4270 0.9119
0.7301 22.9117 1.4215 0.9122
-0.0882 22.9209 1.4213 0.9122
-2.5566 22.9487 1.4319 0.9116
-4.2345 22.9643 1.4480 0.9107
-5.0902 22.9736 1.4592 0.9100
-5.9604 22.9831 1.4723 0.9092
-6.8475 22.9927 1.4877 0.9083
-7.7544 23.0025 1.5053 0.9073
-8.6615 22.9525 1.5213 0.9064
-9.6383 23.0181 1.5474 0.9048
-10.6024 22.9818 1.5695 0.9035
-12.6156 22.8941 1.6209 0.9005
-22.4663 34.6643 2.5615 0.8474
-9.4072 10.7725 0.8869 0.9443
-10.1394 8.1067 0.8050 0.9493
-10.5785 7.8556 0.8171 0.9486
-43.6985 21.6641 3.0248 0.8224
-44.6089 20.1652 3.0357 0.8219
-47.2553 10.0896 2.9964 0.8239
-39.1199 6.9027 2.4633 0.8528
-36.5825 -10.8946 2.3670 0.8582
-46.2836 -17.4659 3.0676 0.8202
-42.2285 -17.6822 2.8389 0.8324
-35.7891 -18.0872 2.4866 0.8515
12.3260 22.7813 1.0213 0.9015
11.3026 22.7984 1.0034 0.9032
9.3498 22.8203 0.9724 0.9060
8.4156 22.8309 0.9595 0.9072
6.5940 22.7809 0.9351 0.9094
5.7414 22.8609 0.9294 0.9100
4.8832 22.8706 0.9221 0.9106
3.2012 22.8895 0.9113 0.9116
2.3728 22.8988 0.9078 0.9120
0.7301 22.9117 0.9039 0.9123
-0.0882 22.9209 0.9038 0.9123
-0.6267 8.3136 0.3287 0.9672
-3.3815 22.8931 0.9125 0.9115
-4.2361 22.9731 0.9211 0.9107
-5.0923 22.9828 0.9282 0.9101
-5.9628 22.9925 0.9366 0.9093
-11.6524 23.0566 1.0187 0.9018
-20.2651 33.8576 1.5559 0.8539
-21.9562 33.8772 1.5918 0.8508
-9.8108 9.7356 0.5450 0.9462
-10.1985 9.4222 0.5475 0.9459
-10.5876 9.1031 0.5506 0.9456
-36.5254 25.1524 1.7487 0.8373
-38.1257 24.2953 1.7826 0.8345
-27.8979 15.0944 1.2507 0.8808
-43.6851 21.6574 1.9226 0.8227
-37.1784 16.8063 1.6088 0.8493
-46.2836 -17.4659 1.9506 0.8203
-38.0489 -17.5535 1.6523 0.8456
-35.7892 -18.0873 1.5812 0.8517
-35.8077 -19.7316 1.6121 0.8490
15.8295 22.9870 0.4715 0.8944
14.5844 22.8869 0.4584 0.8971
13.4681 22.8994 0.4488 0.8992
10.4208 23.0527 0.4273 0.9037
9.4366 23.0320 0.4204 0.9052
8.4937 23.0426 0.4148 0.9064
7.5848 23.0846 0.4105 0.9074
5.8026 23.1046 0.4024 0.9091
4.0803 23.1240 0.3966 0.9103
2.3981 23.1429 0.3930 0.9111
-0.0885 23.0142 0.3888 0.9120
-0.9513 24.0431 0.4065 0.9082
-6.0264 23.2377 0.4055 0.9084
-6.9234 23.2477 0.4097 0.9075
-9.7477 23.2795 0.4263 0.9040
-10.7450 23.2907 0.4333 0.9025
-11.7766 23.3023 0.4410 0.9008
-12.8473 23.3143 0.4497 0.8990
-20.2651 33.8576 0.6665 0.8540
-21.9393 33.8512 0.6814 0.8510
-9.4309 10.0517 0.2328 0.9464
-9.8133 9.7381 0.2335 0.9462
-10.1985 9.4222 0.2345 0.9460
-10.5876 9.1031 0.2359 0.9457
-36.5255 25.1525 0.7491 0.8374
-43.6745 21.6522 0.8234 0.8228
-44.6090 20.1652 0.8269 0.8221
-40.2835 8.6010 0.6958 0.8481
-46.2836 -17.4659 0.8356 0.8204
-42.0626 -17.6127 0.7703 0.8332
-38.0489 -17.5535 0.7078 0.8457
-35.8078 -19.7317 0.6906 0.8491
15.8295 22.9869 -0.1571 0.8944
14.5844 22.8869 -0.1528 0.8971
12.5040 23.1103 -0.1479 0.9002
11.3276 22.8488 -0.1436 0.9030
8.5053 23.0742 -0.1385 0.9063
6.5941 22.7810 -0.1335 0.9095
5.8026 23.1046 -0.1341 0.9091
3.3339 23.8383 -0.1355 0.9082
2.3981 23.1429 -0.1310 0.9111
-0.0924 24.0335 -0.1353 0.9083
-0.9513 24.0431 -0.1355 0.9082
-3.3815 22.8931 -0.1303 0.9116
-4.2813 23.2180 -0.1329 0.9099
-5.1465 23.2278 -0.1339 0.9092
-6.0264 23.2377 -0.1352 0.9084
-6.9234 23.2477 -0.1366 0.9075
-7.8405 23.2580 -0.1382 0.9065
-8.6615 22.9525 -0.1381 0.9065
-12.8473 23.3144 -0.1499 0.8990
-21.9224 33.8252 -0.2269 0.8511
-9.3483 10.7050 -0.0800 0.9447
-9.4167 10.0365 -0.0775 0.9464
-9.8070 9.7318 -0.0778 0.9462
-10.5808 9.0973 -0.0786 0.9457
-11.6396 8.6436 -0.0816 0.9437
-38.1129 24.2870 -0.2544 0.8346
-43.6639 21.6469 -0.2744 0.8229
-40.9753 8.7487 -0.2359 0.8457
-46.2836 -17.4660 -0.2785 0.8205
-42.0627 -17.6127 -0.2567 0.8333
-38.0489 -17.5535 -0.2359 0.8457
-35.7894 -18.0873 -0.2258 0.8518
-35.8079 -19.7317 -0.2302 0.8491
15.7515 22.8737 -0.7820 0.8948
13.4680 22.8994 -0.7481 0.8991
12.4771 23.0606 -0.7383 0.9004
11.3275 22.8486 -0.7181 0.9030
10.4074 23.0229 -0.7114 0.9038
8.4937 23.0426 -0.6915 0.9064
6.5941 22.7809 -0.6678 0.9095
3.3339 23.8383 -0.6778 0.9082
1.5451 22.8377 -0.6445 0.9125
0.7315 22.9573 -0.6468 0.9122
-0.9513 24.0431 -0.6775 0.9082
-2.5621 22.9988 -0.6516 0.9116
-5.1465 23.2278 -0.6699 0.9092
-6.0264 23.2377 -0.6760 0.9084
-6.9234 23.2477 -0.6830 0.9075
-8.6615 22.9525 -0.6908 0.9065
-9.7477 23.2795 -0.7106 0.9039
-10.7450 23.2907 -0.7222 0.9025
-12.1354 24.0123 -0.7576 0.8979
-15.6347 26.1214 -0.8572 0.8853
-37.9552 24.1866 -1.2673 0.8352
-43.2825 21.4578 -1.3603 0.8242
-41.9199 10.5279 -1.2170 0.8412
-46.0291 -17.3699 -1.3853 0.8213
-37.8128 -17.4446 -1.1726 0.8465
-35.7454 -19.6973 -1.1492 0.8493
15.8775 9.5033 -0.9384 0.9286
40.2001 26.0540 -2.4294 0.8254
39.3945 27.5772 -2.4387 0.8248
37.6029 30.5416 -2.4568 0.8236
36.6187 31.9778 -2.4655 0.8231
34.4767 34.7429 -2.4823 0.8220
27.5371 32.0276 -2.1421 0.8444
30.8502 38.5855 -2.5054 0.8205
14.4446 22.6674 -1.3631 0.8979
13.3389 22.6799 -1.3344 0.9000
11.3275 22.8486 -1.2933 0.9029
10.4074 23.0229 -1.2813 0.9038
9.4495 23.0636 -1.2640 0.9050
8.5053 23.0742 -1.2472 0.9062
5.8026 23.1046 -1.2081 0.9090
4.9352 23.1144 -1.1986 0.9097
3.3339 23.8383 -1.2207 0.9081
2.3981 23.1429 -1.1800 0.9110
1.5451 22.8377 -1.1608 0.9124
-0.0924 24.0335 -1.2188 0.9082
-3.3814 22.8931 -1.1736 0.9115
-5.1465 23.2278 -1.2065 0.9091
-6.0264 23.2376 -1.2175 0.9083
-6.9234 23.2477 -1.2302 0.9074
-7.8405 23.2580 -1.2447 0.9064
-10.7450 23.2907 -1.3008 0.9024
-12.1354 24.0123 -1.3644 0.8978
-12.8473 23.3143 -1.3500 0.8989
-22.5075 32.1523 -1.9904 0.8545
-30.9857 38.1496 -2.4925 0.8213
-9.4167 10.0366 -0.6980 0.9464
-10.2600 10.1814 -0.7330 0.9438
-35.6354 32.9228 -2.4604 0.8234
-36.6606 31.5205 -2.4519 0.8240
-36.8362 27.3548 -2.3269 0.8321
-37.6326 23.9810 -2.2631 0.8363
-40.9066 24.0587 -2.4067 0.8269
-41.5760 22.4951 -2.3973 0.8275
-42.7317 19.3166 -2.3782 0.8288
-43.2174 17.7068 -2.3686 0.8294
-36.9238 13.6103 -1.9957 0.8542
-42.1759 13.8575 -2.2514 0.8371
-44.4208 12.8578 -2.3452 0.8309
-41.1721 10.3401 -2.1529 0.8436
-45.2233 9.6557 -2.3452 0.8309
-45.5385 8.0353 -2.3451 0.8309
-48.9741 5.0748 -2.4970 0.8210
-49.1237 3.3235 -2.4970 0.8210
-49.2109 1.5681 -2.4970 0.8210
-49.1973 -1.9466 -2.4970 0.8210
-49.0967 -3.7013 -2.4970 0.8210
-48.9334 -5.4514 -2.4970 0.8210
-48.7081 -7.1945 -2.4970 0.8210
-48.4207 -8.9285 -2.4970 0.8210
-48.0719 -10.6512 -2.4971 0.8210
-44.7624 -11.6085 -2.3452 0.8309
-36.4470 -12.2866 -1.9506 0.8572
-41.5751 -17.4086 -2.2858 0.8348
-38.0490 -17.5535 -2.1251 0.8455
-35.7896 -18.0875 -2.0337 0.8516
-35.8081 -19.7319 -2.0734 0.8490
26.6125 18.6295 -2.3819 0.8778
25.9959 19.6168 -2.3879 0.8776
23.9200 22.4427 -2.4050 0.8767
23.1556 23.3344 -2.4104 0.8765
22.3564 24.1983 -2.4156 0.8762
20.6574 25.8370 -2.4255 0.8757
19.7592 26.6079 -2.4301 0.8755
15.6005 22.6545 -2.0168 0.8955
13.3390 22.6799 -1.9292 0.8998
12.2776 22.6918 -1.8917 0.9017
11.2998 22.7928 -1.8653 0.9030
9.3475 22.8147 -1.8078 0.9058
5.7900 23.0547 -1.7429 0.9091
2.3981 23.1429 -1.7060 0.9109
1.5451 22.8377 -1.6783 0.9123
-0.0924 24.0335 -1.7622 0.9081
-0.9513 24.0431 -1.7643 0.9080
-0.6264 8.3091 -0.6110 0.9671
-6.0134 23.1875 -1.7564 0.9084
-8.6615 22.9525 -1.7988 0.9063
-9.6425 23.0283 -1.8305 0.9047
-12.1354 24.0123 -1.9727 0.8977
-12.7086 23.0628 -1.9308 0.8998
-18.9907 27.1284 -2.4281 0.8756
-9.7331 11.1456 -1.0850 0.9424
-9.4167 10.0366 -1.0091 0.9463
-24.7369 21.2686 -2.3920 0.8774
-25.4186 20.3228 -2.3862 0.8776
-26.0634 19.3548 -2.3803 0.8779
-27.2383 17.3574 -2.3682 0.8785
-27.0044 15.8824 -2.2971 0.8819
-28.7063 14.2315 -2.3493 0.8794
-30.4051 9.9901 -2.3466 0.8795
-30.7419 8.8983 -2.3466 0.8795
-31.0395 7.7953 -2.3466 0.8795
-33.3250 7.1153 -2.4985 0.8723
-33.5573 5.9212 -2.4985 0.8723
-33.7470 4.7197 -2.4985 0.8723
-33.8937 3.5121 -2.4985 0.8723
-34.0577 1.0852 -2.4985 0.8723
-34.0747 -0.1311 -2.4984 0.8723
-33.9786 -2.5616 -2.4985 0.8723
-33.8656 -3.7727 -2.4985 0.8723
-33.7096 -4.9791 -2.4985 0.8723
-33.5107 -6.1792 -2.4985 0.8723
-32.9852 -8.5542 -2.4985 0.8723
-32.2917 -10.8858 -2.4986 0.8723
-30.9446 -14.2760 -2.4987 0.8722
-29.8486 -16.4479 -2.4988 0.8722
19.6018 14.7917 -2.3576 0.9060
19.0965 15.5104 -2.3619 0.9059
15.5156 19.4060 -2.3854 0.9050
14.8343 19.9759 -2.3888 0.9049
14.1311 20.5206 -2.3920 0.9047
9.3475 22.8147 -2.3670 0.9057
8.4135 22.8253 -2.3355 0.9069
7.5030 22.8355 -2.3076 0.9079
6.5941 22.7810 -2.2769 0.9091
5.7399 22.8553 -2.2624 0.9097
4.0363 22.8745 -2.2300 0.9109
3.1824 22.7547 -2.2058 0.9118
2.3722 22.8932 -2.2096 0.9117
0.6921 21.7187 -2.0862 0.9164
-0.8815 22.2796 -2.1406 0.9143
-2.4234 21.7537 -2.1014 0.9158
-6.8487 22.9969 -2.3036 0.9081
-7.7559 23.0071 -2.3309 0.9070
-8.6615 22.9525 -2.3552 0.9061
-12.0505 21.8684 -2.3971 0.9045
-12.8075 21.3978 -2.3942 0.9046
-14.2634 20.3754 -2.3878 0.9049
-9.1349 10.4606 -1.3333 0.9457
-9.4120 10.0315 -1.3206 0.9462
-9.7936 9.7185 -1.3246 0.9461
-10.1832 9.4080 -1.3310 0.9458
-10.9595 8.7624 -1.3471 0.9452
-19.6724 14.6089 -2.3525 0.9062
-21.0772 12.3963 -2.3475 0.9064
-22.2804 10.0717 -2.3474 0.9064
-22.9414 8.4563 -2.3474 0.9064
-25.4592 5.4358 -2.4993 0.9007
-25.6368 4.5236 -2.4993 0.9007
-25.7818 3.6057 -2.4993 0.9007
-25.8939 2.6832 -2.4993 0.9007
-25.9731 1.7572 -2.4992 0.9007
-26.0193 0.8291 -2.4992 0.9007
-26.0322 -0.1001 -2.4992 0.9007
-25.9588 -1.9570 -2.4992 0.9007
-25.8725 -2.8823 -2.4993 0.9007
-25.4166 -5.6315 -2.4993 0.9007
-25.1996 -6.5352 -2.4993 0.9007
-24.6697 -8.3164 -2.4994 0.9007
-23.2363 -11.7433 -2.4995 0.9007
14.9018 8.9193 -2.0630 0.9324
14.9029 10.4324 -2.1609 0.9293
15.7997 11.9226 -2.3512 0.9234
14.4339 13.5424 -2.3510 0.9234
11.8652 15.9777 -2.3640 0.9230
11.2996 16.4088 -2.3666 0.9229
10.7178 16.8191 -2.3690 0.9228
10.1206 17.2078 -2.3714 0.9227
9.5085 17.5739 -2.3735 0.9227
7.5935 18.5337 -2.3792 0.9225
6.2600 19.0524 -2.3822 0.9224
5.5790 19.2741 -2.3835 0.9224
4.1933 19.6396 -2.3855 0.9223
3.4908 19.7834 -2.3863 0.9223
2.0716 19.9915 -2.3874 0.9222
0.6402 20.0922 -2.3879 0.9222
-0.0773 20.1017 -2.3878 0.9222
-3.6413 19.7474 -2.3853 0.9223
-4.3419 19.5964 -2.3842 0.9223
-5.0362 19.4196 -2.3831 0.9224
-5.7230 19.2171 -2.3818 0.9224
-6.4014 18.9890 -2.3803 0.9225
-7.1193 15.4317 -2.0187 0.9338
-10.8334 16.7153 -2.3661 0.9229
-11.4107 16.3003 -2.3635 0.9230
-7.3018 9.6762 -1.4399 0.9523
-12.5151 15.4086 -2.3580 0.9232
-9.1355 10.4614 -1.6498 0.9456
-9.7936 9.7186 -1.6389 0.9459
-10.5663 9.0848 -1.6553 0.9454
-10.9595 8.7624 -1.6668 0.9450
-15.8698 11.7850 -2.3481 0.9235
-16.2801 11.2109 -2.3480 0.9235
-16.6696 10.6225 -2.3480 0.9235
-17.0378 10.0206 -2.3479 0.9235
-17.7087 8.7793 -2.3479 0.9235
-18.0106 8.1416 -2.3478 0.9235
-19.9934 6.5691 -2.4998 0.9187
-20.4107 5.1260 -2.4998 0.9187
-20.7242 3.6568 -2.4998 0.9187
-20.9321 2.1690 -2.4997 0.9187
-21.0438 -0.0809 -2.4997 0.9187
-20.8183 -3.0750 -2.4998 0.9187
-20.6954 -3.8161 -2.4998 0.9187
-20.5461 -4.5524 -2.4998 0.9187
-20.3707 -5.2829 -2.4998 0.9187
-20.1693 -6.0066 -2.4998 0.9187
-19.4122 -8.1284 -2.4999 0.9187
-19.1099 -8.8162 -2.4999 0.9187
-18.4328 -10.1573 -2.5000 0.9187
14.2374 8.5216 -2.3510 0.9352
13.5928 9.5153 -2.3510 0.9352
13.2444 9.9943 -2.3509 0.9352
12.8790 10.4605 -2.3509 0.9352
11.2585 12.1861 -2.3507 0.9352
10.8161 12.5799 -2.3507 0.9352
9.4089 13.6632 -2.3506 0.9352
7.9104 14.6203 -2.3553 0.9350
7.3888 14.9039 -2.3570 0.9350
5.2047 15.8406 -2.3625 0.9349
4.0647 16.1849 -2.3644 0.9348
2.6899 15.2445 -2.1934 0.9394
1.7217 16.6154 -2.3668 0.9347
0.5321 16.6986 -2.3672 0.9347
-0.0643 16.7067 -2.3672 0.9347
-0.6605 16.6927 -2.3670 0.9347
-0.6262 8.3064 -1.1803 0.9669
-1.8491 16.5982 -2.3663 0.9348
-2.4398 16.5178 -2.3658 0.9348
-3.0269 16.4155 -2.3651 0.9348
-6.9678 15.1033 -2.3567 0.9350
-7.4971 14.8344 -2.3551 0.9351
-7.1293 11.0001 -1.8573 0.9484
-9.5062 13.5797 -2.3487 0.9352
-10.4503 12.8664 -2.3486 0.9352
-10.1832 9.4080 -1.9644 0.9455
-12.9450 10.3499 -2.3483 0.9352
-13.6500 9.3997 -2.3483 0.9352
-13.9766 8.9064 -2.3482 0.9352
-15.4144 7.6419 -2.4377 0.9329
-16.5566 6.1029 -2.5002 0.9312
-16.7637 5.5080 -2.5002 0.9312
-17.1137 4.2980 -2.5001 0.9312
-17.2561 3.6844 -2.5001 0.9312
-17.3765 3.0661 -2.5001 0.9312
-17.4748 2.4439 -2.5001 0.9312
-17.5508 1.8187 -2.5001 0.9312
-17.6045 1.1910 -2.5001 0.9312
-17.6309 -0.6976 -2.5001 0.9312
-17.5948 -1.3265 -2.5001 0.9312
-17.3524 -3.1997 -2.5001 0.9312
-17.2272 -3.8170 -2.5001 0.9312
-17.0801 -4.4295 -2.5001 0.9312
-16.2763 -6.8153 -2.5002 0.9312
-15.7490 -7.9593 -2.5002 0.9312
-15.4550 -8.5164 -2.5003 0.9312
12.7629 7.6391 -2.4504 0.9415
11.9748 7.7610 -2.3508 0.9438
11.6900 8.1833 -2.3508 0.9438
10.7479 9.3857 -2.3507 0.9438
10.4059 9.7631 -2.3506 0.9438
9.3022 10.8191 -2.3505 0.9438
8.9099 11.1440 -2.3505 0.9438
8.5064 11.4547 -2.3505 0.9438
8.0920 11.7509 -2.3504 0.9438
7.6673 12.0320 -2.3504 0.9438
7.2328 12.2978 -2.3503 0.9438
6.7891 12.5479 -2.3503 0.9438
5.4086 13.2009 -2.3502 0.9438
4.4529 13.5526 -2.3501 0.9438
3.9663 13.7026 -2.3500 0.9438
3.4748 13.8358 -2.3501 0.9438
2.9796 13.9550 -2.3508 0.9438
2.4802 14.0559 -2.3513 0.9438
1.4716 14.2018 -2.3521 0.9438
-0.0549 14.2796 -2.3524 0.9438
-1.5805 14.1877 -2.3517 0.9438
-2.0855 14.1194 -2.3513 0.9438
-3.5797 13.8034 -2.3492 0.9438
-2.5147 8.4442 -1.4515 0.9649
-2.8660 8.5016 -1.4780 0.9643
-6.4315 12.7260 -2.3490 0.9438
-6.4949 10.0213 -1.9673 0.9527
-6.5221 9.3168 -1.8735 0.9549
-6.7379 8.9289 -1.8428 0.9557
-7.2797 8.9628 -1.9022 0.9543
-7.8459 8.9846 -1.9650 0.9528
-8.4516 9.0079 -2.0349 0.9512
-10.8099 9.2943 -2.3486 0.9438
-11.4451 8.4992 -2.3485 0.9438
-12.0264 7.6637 -2.3493 0.9438
-12.9797 7.6339 -2.4807 0.9408
-14.7206 3.6969 -2.5004 0.9403
-15.1345 -1.1410 -2.5003 0.9403
-15.0841 -1.6804 -2.5003 0.9403
-14.9259 -2.7523 -2.5003 0.9403
-14.8182 -3.2833 -2.5003 0.9403
-13.5466 -6.8462 -2.5005 0.9403
-13.2938 -7.3254 -2.5005 0.9403
11.4260 6.8389 -2.5029 0.9472
11.1701 7.2395 -2.5019 0.9473
10.8768 7.6140 -2.4956 0.9474
9.7072 7.8843 -2.3506 0.9504
9.1198 8.5565 -2.3505 0.9504
7.0919 10.2987 -2.3503 0.9504
6.3390 10.7780 -2.3502 0.9504
4.7403 11.5697 -2.3501 0.9504
4.3242 11.7313 -2.3500 0.9504
3.4762 12.0094 -2.3500 0.9504
3.0453 12.1256 -2.3499 0.9504
0.3981 12.4945 -2.3497 0.9504
-0.6261 8.3046 -1.5654 0.9667
-1.8264 12.3655 -2.3494 0.9504
-2.2666 12.2922 -2.3494 0.9504
-2.7038 12.2032 -2.3494 0.9504
-3.1376 12.0987 -2.3493 0.9504
-2.7700 8.2168 -1.6298 0.9653
-4.8272 11.5282 -2.3491 0.9504
-5.6371 11.1541 -2.3491 0.9504
-6.0315 10.9456 -2.3490 0.9504
-6.4137 9.8960 -2.2166 0.9531
-6.7479 8.9423 -2.1057 0.9554
-7.2797 8.9628 -2.1703 0.9541
-7.7653 8.8922 -2.2190 0.9531
-8.8699 8.8019 -2.3487 0.9504
-9.7596 7.8030 -2.3487 0.9504
-10.9321 7.5281 -2.4949 0.9474
-11.4679 6.7447 -2.5007 0.9473
-11.7012 6.3310 -2.5007 0.9473
-12.4827 4.6012 -2.5006 0.9473
-12.7790 3.6989 -2.5006 0.9473
-13.2730 0.8980 -2.5005 0.9473
-13.2966 0.4237 -2.5005 0.9473
-13.2657 -1.0001 -2.5005 0.9473
-13.0828 -2.4124 -2.5005 0.9473
-12.9884 -2.8779 -2.5005 0.9473
-12.8775 -3.3396 -2.5005 0.9473
-12.6066 -4.2498 -2.5006 0.9473
-12.2714 -5.1384 -2.5006 0.9473
-12.0803 -5.5731 -2.5006 0.9473
10.1596 6.0809 -2.5028 0.9527
8.7469 7.6383 -2.4547 0.9536
8.1611 7.6570 -2.3655 0.9553
6.9434 8.6844 -2.3503 0.9556
5.2908 9.7785 -2.3501 0.9556
4.9383 9.9610 -2.3501 0.9556
4.5796 10.1307 -2.3501 0.9556
4.2150 10.2876 -2.3500 0.9556
2.3212 10.8717 -2.3499 0.9556
1.9317 10.9474 -2.3498 0.9556
1.5397 11.0092 -2.3498 0.9556
0.7504 11.0906 -2.3497 0.9556
0.3540 11.1102 -2.3497 0.9556
-1.6241 10.9956 -2.3495 0.9556
-2.7900 10.7584 -2.3493 0.9556
-2.7701 8.2172 -1.8330 0.9652
-3.9239 10.3981 -2.3492 0.9556
-4.2925 10.2512 -2.3492 0.9556
-4.6555 10.0913 -2.3492 0.9556
-5.0127 9.9186 -2.3491 0.9556
-6.6709 8.8402 -2.3410 0.9557
-7.3092 8.3700 -2.3489 0.9556
-9.2286 7.3784 -2.4976 0.9528
-9.4986 7.0537 -2.5009 0.9528
-9.9774 6.3580 -2.5008 0.9528
-11.1004 4.0916 -2.5007 0.9528
-11.4740 2.8816 -2.5007 0.9528
-11.5695 2.4702 -2.5007 0.9528
-11.6502 2.0557 -2.5007 0.9528
-11.8031 0.7986 -2.5006 0.9528
-11.8241 0.3768 -2.5006 0.9528
-11.8208 -0.4677 -2.5006 0.9528
-11.7574 -1.3098 -2.5006 0.9528
-11.6340 -2.1453 -2.5007 0.9528
-11.3382 -3.3766 -2.5007 0.9528
-11.2105 -3.7792 -2.5007 0.9528
-11.0685 -4.1769 -2.5007 0.9528
9.1372 5.4689 -2.5027 0.9572
8.9361 5.7916 -2.5027 0.9572
8.0206 7.0041 -2.5026 0.9572
7.4821 7.5399 -2.4965 0.9573
7.0598 7.6414 -2.4451 0.9582
6.2483 7.8150 -2.3516 0.9597
5.9619 8.0283 -2.3502 0.9597
5.3738 8.4330 -2.3502 0.9597
4.7584 8.7946 -2.3501 0.9597
4.4414 8.9587 -2.3501 0.9597
4.1188 9.1114 -2.3500 0.9597
3.7909 9.2525 -2.3500 0.9597
2.7800 9.6043 -2.3499 0.9597
2.0877 9.7779 -2.3498 0.9597
1.3848 9.9016 -2.3498 0.9598
0.3184 9.9925 -2.3497 0.9598
-0.0384 9.9973 -2.3496 0.9598
-0.6202 8.2262 -1.9388 0.9667
-1.1068 9.9355 -2.3495 0.9598
-2.5094 9.6762 -2.3494 0.9598
-2.5149 8.4448 -2.0709 0.9644
-2.7702 8.2176 -2.0381 0.9650
-4.1873 9.0763 -2.3492 0.9598
-4.5085 8.9210 -2.3492 0.9598
-4.8240 8.7542 -2.3491 0.9598
-5.1333 8.5764 -2.3491 0.9598
-5.7319 8.1881 -2.3491 0.9598
-7.1657 7.6374 -2.4613 0.9579
-7.8144 7.2196 -2.5004 0.9572
-8.0691 6.9378 -2.5010 0.9572
-8.3115 6.6453 -2.5010 0.9572
-8.5433 6.3443 -2.5010 0.9572
-8.7643 6.0353 -2.5010 0.9572
-9.1723 5.3946 -2.5009 0.9572
-9.5337 4.7264 -2.5009 0.9572
-9.6962 4.3831 -2.5009 0.9572
-9.8465 4.0342 -2.5008 0.9572
-9.9841 3.6802 -2.5008 0.9572
-10.1090 3.3215 -2.5008 0.9572
-10.2211 2.9585 -2.5008 0.9572
-10.3202 2.5918 -2.5008 0.9572
-10.4061 2.2218 -2.5008 0.9572
-10.4787 1.8490 -2.5008 0.9572
-10.5380 1.4738 -2.5008 0.9572
-10.5838 1.0967 -2.5008 0.9572
-10.6162 0.7182 -2.5008 0.9572
-10.6322 -0.4207 -2.5008 0.9572
-10.5751 -1.1781 -2.5008 0.9572
-10.5263 -1.5548 -2.5008 0.9572
-10.3886 -2.3018 -2.5008 0.9572
-10.1980 -3.0371 -2.5008 0.9572
-9.6622 -4.4576 -2.5009 0.9572
-9.3197 -5.1356 -2.5009 0.9572
8.2936 4.9641 -2.5026 0.9608
8.1111 5.2569 -2.5026 0.9608
7.9183 5.5430 -2.5026 0.9608
7.7153 5.8220 -2.5026 0.9609
6.8080 6.8605 -2.5025 0.9609
6.2951 7.3216 -2.5001 0.9609
5.6712 7.6369 -2.4629 0.9615
5.2665 7.6477 -2.4042 0.9624
4.8824 7.6618 -2.3523 0.9632
4.3192 7.9829 -2.3500 0.9632
4.0315 8.1318 -2.3500 0.9632
2.5234 8.7179 -2.3499 0.9632
2.2106 8.8023 -2.3498 0.9632
1.5770 8.9373 -2.3498 0.9632
0.6126 9.0543 -2.3497 0.9632
-0.0349 9.0747 -2.3496 0.9632
-0.6187 8.2068 -2.1309 0.9666
-1.0047 9.0186 -2.3495 0.9632
-1.6455 8.9237 -2.3495 0.9632
-1.9629 8.8591 -2.3494 0.9632
-2.2778 8.7834 -2.3494 0.9632
-3.2035 8.4892 -2.3493 0.9632
-4.0925 8.0978 -2.3492 0.9632
-5.3522 7.6457 -2.4164 0.9622
-5.7611 7.6346 -2.4764 0.9613
-6.0780 7.4832 -2.4961 0.9609
-6.8569 6.8043 -2.5011 0.9609
-7.0953 6.5552 -2.5011 0.9609
-7.5447 6.0322 -2.5011 0.9609
-8.4955 4.5966 -2.5010 0.9609
-8.6542 4.2904 -2.5010 0.9609
-8.8017 3.9787 -2.5009 0.9609
-8.9381 3.6621 -2.5009 0.9609
-9.1765 3.0151 -2.5009 0.9609
-9.4461 2.0168 -2.5009 0.9609
-9.5658 1.3378 -2.5009 0.9609
-9.6369 0.6520 -2.5009 0.9609
-9.6316 -0.7261 -2.5009 0.9609
-9.5552 -1.4114 -2.5009 0.9609
-9.4988 -1.7515 -2.5009 0.9609
-9.4303 -2.0895 -2.5009 0.9609
-9.3497 -2.4247 -2.5009 0.9609
-9.1530 -3.0856 -2.5009 0.9609
-9.0370 -3.4103 -2.5009 0.9609
-8.9096 -3.7307 -2.5009 0.9609
-8.7708 -4.0463 -2.5009 0.9609
-8.6209 -4.3569 -2.5010 0.9609
7.5852 4.5400 -2.5026 0.9639
7.4183 4.8078 -2.5025 0.9639
7.2419 5.0695 -2.5025 0.9639
7.0563 5.3247 -2.5025 0.9639
6.8617 5.5731 -2.5025 0.9639
6.2265 6.2745 -2.5024 0.9639
5.7629 6.7026 -2.5024 0.9639
5.5199 6.9040 -2.5024 0.9639
5.0100 7.2754 -2.5007 0.9639
3.7904 7.6456 -2.4158 0.9651
3.4594 7.6527 -2.3775 0.9657
3.1471 7.6812 -2.3499 0.9661
2.3079 7.9733 -2.3498 0.9661
2.0218 8.0505 -2.3498 0.9661
1.7332 8.1174 -2.3498 0.9661
1.1496 8.2202 -2.3497 0.9661
0.2644 8.2957 -2.3496 0.9661
-0.0319 8.2997 -2.3496 0.9661
-0.3281 8.2932 -2.3496 0.9661
-0.6172 8.1872 -2.3243 0.9664
-1.2127 8.2103 -2.3495 0.9661
-1.5050 8.1617 -2.3495 0.9661
-1.7953 8.1027 -2.3494 0.9661
-2.9300 7.7643 -2.3493 0.9661
-3.5299 7.6513 -2.3854 0.9656
-3.8632 7.6441 -2.4247 0.9650
-4.2078 7.6361 -2.4682 0.9644
-4.7983 7.4036 -2.4976 0.9640
-5.0652 7.2357 -2.5004 0.9639
-6.4895 5.9955 -2.5012 0.9639
-6.9006 5.5172 -2.5011 0.9639
-7.0931 5.2673 -2.5011 0.9639
-7.6153 4.4789 -2.5011 0.9639
-7.9153 3.9241 -2.5010 0.9639
-8.3931 2.7577 -2.5010 0.9639
-8.4861 2.4563 -2.5010 0.9639
-8.7000 1.5351 -2.5010 0.9639
-8.7873 0.9106 -2.5009 0.9639
-8.8142 0.5963 -2.5009 0.9639
-8.8299 0.2814 -2.5009 0.9639
-8.8274 -0.3493 -2.5009 0.9639
-8.8093 -0.6641 -2.5009 0.9639
-8.7800 -0.9781 -2.5009 0.9639
-8.6879 -1.6020 -2.5010 0.9639
-8.6252 -1.9111 -2.5010 0.9639
-8.2656 -3.1192 -2.5010 0.9639
-7.7377 -4.2638 -2.5010 0.9639
6.8276 4.4250 -2.5025 0.9665
6.3153 5.1294 -2.5024 0.9665
5.5209 5.9757 -2.5024 0.9665
5.3040 6.1689 -2.5023 0.9665
4.8503 6.5315 -2.5023 0.9665
3.6109 7.2835 -2.5004 0.9666
3.3459 7.4017 -2.4984 0.9666
3.0773 7.5108 -2.4965 0.9666
2.5087 7.6352 -2.4720 0.9669
2.2114 7.6400 -2.4464 0.9673
1.9198 7.6441 -2.4242 0.9676
1.3500 7.6505 -2.3895 0.9680
0.7932 7.6547 -2.3670 0.9683
0.5180 7.6560 -2.3602 0.9684
-0.0295 7.6583 -2.3555 0.9685
-0.8527 7.6544 -2.3689 0.9683
-1.6943 7.6470 -2.4091 0.9678
-2.2750 7.6391 -2.4516 0.9672
-2.5736 7.6342 -2.4780 0.9668
-2.8636 7.5883 -2.4946 0.9666
-3.1347 7.4863 -2.4963 0.9666
-3.6665 7.2548 -2.5002 0.9666
-3.9250 7.1228 -2.5014 0.9665
-4.1767 6.9781 -2.5014 0.9665
-4.6637 6.6623 -2.5014 0.9665
-4.8985 6.4915 -2.5013 0.9665
-5.3491 6.1254 -2.5013 0.9665
-5.5642 5.9305 -2.5013 0.9665
-5.7723 5.7281 -2.5012 0.9665
-5.9730 5.5184 -2.5012 0.9665
-6.6974 4.6120 -2.5012 0.9665
-7.0093 4.1224 -2.5011 0.9665
-7.1519 3.8696 -2.5011 0.9665
-7.4096 3.3495 -2.5011 0.9665
-7.5244 3.0829 -2.5011 0.9665
-7.6296 2.8123 -2.5011 0.9665
-7.8108 2.2608 -2.5010 0.9665
-7.8865 1.9806 -2.5010 0.9665
-7.9521 1.6979 -2.5010 0.9665
-8.0529 1.1262 -2.5010 0.9665
-8.1272 0.2590 -2.5010 0.9665
-8.1312 -0.0313 -2.5010 0.9665
-8.1249 -0.3215 -2.5010 0.9665
-8.0813 -0.9003 -2.5010 0.9665
-8.0440 -1.1882 -2.5010 0.9665
-7.9388 -1.7590 -2.5010 0.9665
-7.7054 -2.5976 -2.5010 0.9665
-7.5005 -3.1406 -2.5011 0.9665
-7.2574 -3.6678 -2.5011 0.9665
-7.1219 -3.9245 -2.5011 0.9665
6.4596 3.8663 -2.5025 0.9688
6.3175 4.0944 -2.5024 0.9688
6.1673 4.3173 -2.5024 0.9688
6.0092 4.5346 -2.5024 0.9688
5.8435 4.7462 -2.5024 0.9688
5.6703 4.9517 -2.5024 0.9688
5.4900 5.1509 -2.5024 0.9688
5.3026 5.3435 -2.5023 0.9688
5.1084 5.5293 -2.5023 0.9688
4.7009 5.8796 -2.5023 0.9688
4.4880 6.0435 -2.5023 0.9688
4.2694 6.1998 -2.5022 0.9688
3.8161 6.4885 -2.5022 0.9688
3.1006 6.8591 -2.5021 0.9688
2.6033 7.0626 -2.5021 0.9688
2.0922 7.2279 -2.5012 0.9688
1.8320 7.2946 -2.5001 0.9688
1.5698 7.3524 -2.4991 0.9688
0.2392 7.5061 -2.4963 0.9688
-0.5646 7.4893 -2.4965 0.9688
-0.8317 7.4655 -2.4969 0.9688
-1.0979 7.4326 -2.4975 0.9688
-1.3628 7.3907 -2.4981 0.9688
-1.6263 7.3398 -2.4990 0.9688
-1.8880 7.2800 -2.5000 0.9688
-2.1476 7.2112 -2.5011 0.9688
-2.4041 7.1314 -2.5016 0.9688
-2.9066 6.9416 -2.5015 0.9688
-3.3944 6.7164 -2.5015 0.9688
-3.6319 6.5909 -2.5015 0.9688
-3.8648 6.4570 -2.5014 0.9688
-4.3155 6.1647 -2.5014 0.9688
-4.9496 5.6679 -2.5013 0.9688
-5.5270 5.1063 -2.5013 0.9688
-5.7057 4.9057 -2.5013 0.9688
-6.3456 4.0437 -2.5012 0.9688
-6.6178 3.5806 -2.5012 0.9688
-6.7414 3.3421 -2.5011 0.9688
-6.8564 3.0994 -2.5011 0.9688
-6.9626 2.8527 -2.5011 0.9688
-7.1483 2.3487 -2.5011 0.9688
-7.2275 2.0920 -2.5011 0.9688
-7.5070 0.5079 -2.5011 0.9688
-7.5203 0.2396 -2.5011 0.9688
-7.5241 -0.0290 -2.5011 0.9688
-7.4779 -0.8331 -2.5011 0.9688
-7.3460 -1.6277 -2.5011 0.9688
-7.2833 -1.8888 -2.5011 0.9688
-7.2112 -2.1476 -2.5011 0.9688
-7.0397 -2.6566 -2.5011 0.9688
-6.9404 -2.9062 -2.5011 0.9688
-6.8323 -3.1520 -2.5011 0.9688
-6.7155 -3.3939 -2.5011 0.9688
6.0043 3.5938 -2.5024 0.9707
5.2707 4.6026 -2.5023 0.9707
5.1030 4.7878 -2.5023 0.9707
4.9288 4.9669 -2.5023 0.9707
4.7484 5.1396 -2.5023 0.9707
4.5619 5.3057 -2.5023 0.9707
4.1717 5.6176 -2.5022 0.9707
3.9685 5.7629 -2.5022 0.9707
3.7602 5.9008 -2.5022 0.9707
3.3296 6.1539 -2.5021 0.9707
2.8821 6.3756 -2.5021 0.9707
2.6527 6.4744 -2.5021 0.9707
2.4199 6.5649 -2.5021 0.9707
2.1840 6.6470 -2.5020 0.9707
1.9453 6.7206 -2.5020 0.9707
1.7042 6.7857 -2.5020 0.9707
1.4609 6.8422 -2.5020 0.9707
0.9690 6.9288 -2.5019 0.9707
0.4723 6.9802 -2.5019 0.9707
-0.0269 6.9959 -2.5018 0.9707
-0.2766 6.9904 -2.5018 0.9707
-0.5259 6.9760 -2.5018 0.9707
-1.2686 6.8796 -2.5017 0.9707
-1.7561 6.7715 -2.5016 0.9707
-2.4698 6.5448 -2.5016 0.9707
-2.9304 6.3518 -2.5015 0.9707
-3.5925 6.0020 -2.5015 0.9707
-3.8044 5.8699 -2.5014 0.9707
-4.2133 5.5835 -2.5014 0.9707
-4.4099 5.4295 -2.5014 0.9707
-4.6009 5.2686 -2.5014 0.9707
-4.9649 4.9269 -2.5013 0.9707
-5.3037 4.5601 -2.5013 0.9707
-5.6154 4.1700 -2.5013 0.9707
-6.0289 3.5458 -2.5012 0.9707
-6.1516 3.3284 -2.5012 0.9707
-6.3733 2.8810 -2.5012 0.9707
-6.6447 2.1832 -2.5012 0.9707
-6.7183 1.9446 -2.5011 0.9707
-6.8877 1.2153 -2.5011 0.9707
-6.9568 0.7209 -2.5011 0.9707
-6.9781 0.4721 -2.5011 0.9707
-6.9905 0.2228 -2.5011 0.9707
-6.9190 -1.0220 -2.5011 0.9707
-6.8781 -1.2683 -2.5011 0.9707
-6.7032 -1.9963 -2.5011 0.9707
-6.6277 -2.2343 -2.5012 0.9707
-6.5437 -2.4694 -2.5012 0.9707
-6.4514 -2.7014 -2.5012 0.9707
-6.3509 -2.9300 -2.5012 0.9707
-6.1258 -3.3756 -2.5012 0.9707
5.6029 3.3536 -2.5024 0.9724
5.4796 3.5514 -2.5024 0.9724
5.3494 3.7447 -2.5023 0.9724
4.9183 4.2950 -2.5023 0.9724
4.7619 4.4678 -2.5023 0.9724
4.4310 4.7960 -2.5023 0.9724
4.2569 4.9511 -2.5022 0.9724
4.0775 5.0998 -2.5022 0.9724
3.7032 5.3776 -2.5022 0.9724
3.5089 5.5063 -2.5022 0.9724
3.3101 5.6281 -2.5021 0.9724
2.9001 5.8498 -2.5021 0.9724
1.5903 6.3322 -2.5020 0.9724
0.6729 6.4938 -2.5019 0.9724
0.4407 6.5137 -2.5019 0.9724
0.2079 6.5252 -2.5018 0.9724
-0.9539 6.4581 -2.5017 0.9724
-1.1838 6.4199 -2.5017 0.9724
-2.3047 6.1074 -2.5016 0.9724
-2.5213 6.0212 -2.5016 0.9724
-2.7345 5.9273 -2.5015 0.9724
-2.9443 5.8259 -2.5015 0.9724
-3.1504 5.7171 -2.5015 0.9724
-3.5501 5.4777 -2.5015 0.9724
-3.9318 5.2104 -2.5014 0.9724
-4.1152 5.0667 -2.5014 0.9724
-4.2934 4.9165 -2.5014 0.9724
-4.7943 4.4293 -2.5013 0.9724
-5.0980 4.0760 -2.5013 0.9724
-5.2402 3.8914 -2.5013 0.9724
-5.3757 3.7019 -2.5013 0.9724
-5.6261 3.3089 -2.5013 0.9724
-5.8477 2.8991 -2.5012 0.9724
-5.9475 2.6885 -2.5012 0.9724
-6.1241 2.2574 -2.5012 0.9724
-6.2007 2.0373 -2.5012 0.9724
-6.3302 1.5898 -2.5012 0.9724
-6.3829 1.3628 -2.5012 0.9724
-6.4638 0.9040 -2.5012 0.9724
-6.5267 -0.0251 -2.5012 0.9724
-6.4866 -0.7226 -2.5012 0.9724
-6.4567 -0.9537 -2.5012 0.9724
-6.2553 -1.8629 -2.5012 0.9724
-6.1849 -2.0850 -2.5012 0.9724
5.2461 3.1400 -2.5023 0.9739
5.1307 3.3253 -2.5023 0.9739
4.7458 3.8546 -2.5023 0.9739
4.6052 4.0215 -2.5023 0.9739
4.4587 4.1833 -2.5023 0.9739
4.1488 4.4906 -2.5022 0.9739
3.6449 4.9083 -2.5022 0.9739
3.0993 5.2697 -2.5021 0.9739
2.9092 5.3769 -2.5021 0.9739
2.7154 5.4773 -2.5021 0.9739
2.3177 5.6569 -2.5020 0.9739
1.9083 5.8078 -2.5020 0.9739
1.6997 5.8721 -2.5020 0.9739
1.2765 5.9784 -2.5019 0.9739
1.0623 6.0200 -2.5019 0.9739
0.4126 6.0990 -2.5019 0.9739
0.1947 6.1097 -2.5018 0.9739
-0.0235 6.1128 -2.5018 0.9739
-0.2417 6.1079 -2.5018 0.9739
-0.6768 6.0750 -2.5018 0.9739
-0.8932 6.0470 -2.5017 0.9739
-1.9526 5.7921 -2.5016 0.9739
-2.1580 5.7186 -2.5016 0.9739
-2.3608 5.6379 -2.5016 0.9739
-2.7569 5.4550 -2.5015 0.9739
-3.8533 4.7442 -2.5014 0.9739
-4.1819 4.4571 -2.5014 0.9739
-4.4891 4.1474 -2.5014 0.9739
-4.6343 3.9845 -2.5014 0.9739
-4.7735 3.8165 -2.5013 0.9739
-5.0335 3.4662 -2.5013 0.9739
-5.2679 3.0983 -2.5013 0.9739
-5.3752 2.9083 -2.5013 0.9739
-5.6552 2.3170 -2.5013 0.9739
-6.0184 1.0619 -2.5012 0.9739
-6.0974 0.4125 -2.5012 0.9739
-6.1065 -0.2416 -2.5012 0.9739
-6.0940 -0.4594 -2.5012 0.9739
-6.0100 -1.1082 -2.5012 0.9739
-5.8571 -1.7443 -2.5012 0.9739
-5.7912 -1.9523 -2.5012 0.9739
-5.7178 -2.1577 -2.5012 0.9739
-5.5494 -2.5602 -2.5013 0.9739
-5.3526 -2.9496 -2.5013 0.9739
4.9266 2.9487 -2.5023 0.9753
4.8182 3.1227 -2.5023 0.9753
4.4567 3.6198 -2.5023 0.9753
4.3246 3.7765 -2.5022 0.9753
4.1871 3.9285 -2.5022 0.9753
4.0442 4.0754 -2.5022 0.9753
3.8961 4.2171 -2.5022 0.9753
3.7431 4.3534 -2.5022 0.9753
3.5853 4.4843 -2.5022 0.9753
3.4229 4.6093 -2.5022 0.9753
3.2562 4.7285 -2.5021 0.9753
3.0853 4.8417 -2.5021 0.9753
2.9106 4.9487 -2.5021 0.9753
2.7320 5.0494 -2.5021 0.9753
2.5500 5.1437 -2.5021 0.9753
2.3648 5.2314 -2.5020 0.9753
2.1766 5.3124 -2.5020 0.9753
1.9856 5.3867 -2.5020 0.9753
1.5962 5.5145 -2.5020 0.9753
0.9975 5.6534 -2.5019 0.9753
0.7951 5.6854 -2.5019 0.9753
0.5917 5.7101 -2.5019 0.9753
0.3875 5.7275 -2.5019 0.9753
0.1828 5.7376 -2.5018 0.9753
-0.0221 5.7404 -2.5018 0.9753
-0.2270 5.7360 -2.5018 0.9753
-1.2417 5.6043 -2.5017 0.9753
-1.8337 5.4393 -2.5016 0.9753
-2.4045 5.2121 -2.5016 0.9753
-2.7702 5.0272 -2.5015 0.9753
-3.7753 4.3233 -2.5014 0.9753
-4.2158 3.8949 -2.5014 0.9753
-4.8402 3.0844 -2.5013 0.9753
-5.0479 2.7312 -2.5013 0.9753
-5.1421 2.5493 -2.5013 0.9753
-5.2298 2.3641 -2.5013 0.9753
-5.4525 1.7915 -2.5013 0.9753
-5.6519 0.9973 -2.5013 0.9753
-5.7261 0.3874 -2.5012 0.9753
-5.7392 -0.0221 -2.5012 0.9753
-5.7230 -0.4314 -2.5012 0.9753
-5.7039 -0.6354 -2.5012 0.9753
-5.6776 -0.8386 -2.5012 0.9753
-5.6441 -1.0407 -2.5013 0.9753
-5.5555 -1.4407 -2.5013 0.9753
-5.5005 -1.6381 -2.5013 0.9753
-5.3697 -2.0264 -2.5013 0.9753
-5.2115 -2.4043 -2.5013 0.9753
-5.0267 -2.7700 -2.5013 0.9753
4.6384 2.7763 -2.5023 0.9765
4.4285 3.1001 -2.5023 0.9765
4.3150 3.2561 -2.5022 0.9765
4.1960 3.4081 -2.5022 0.9765
4.0717 3.5557 -2.5022 0.9765
3.9422 3.6987 -2.5022 0.9765
3.8076 3.8370 -2.5022 0.9765
3.3756 4.2220 -2.5021 0.9765
2.9049 4.5586 -2.5021 0.9765
2.4009 4.8429 -2.5021 0.9765
2.2265 4.9254 -2.5020 0.9765
1.8694 5.0716 -2.5020 0.9765
1.5028 5.1920 -2.5020 0.9765
1.3166 5.2423 -2.5019 0.9765
1.1286 5.2859 -2.5019 0.9765
0.9392 5.3228 -2.5019 0.9765
0.7486 5.3529 -2.5019 0.9765
0.5571 5.3762 -2.5019 0.9765
-0.4063 5.3895 -2.5018 0.9765
-0.7897 5.3466 -2.5017 0.9765
-0.9801 5.3150 -2.5017 0.9765
-1.1691 5.2766 -2.5017 0.9765
-2.0874 4.9850 -2.5016 0.9765
-2.4376 4.8233 -2.5016 0.9765
-2.9392 4.5350 -2.5015 0.9765
-3.0992 4.4272 -2.5015 0.9765
-3.2552 4.3137 -2.5015 0.9765
-3.6976 3.9410 -2.5015 0.9765
-3.8359 3.8065 -2.5014 0.9765
-3.9693 3.6671 -2.5014 0.9765
-4.4507 3.0648 -2.5014 0.9765
-4.5572 2.9040 -2.5014 0.9765
-4.7527 2.5715 -2.5013 0.9765
-5.0003 2.0487 -2.5013 0.9765
-5.0703 1.8689 -2.5013 0.9765
-5.3215 0.9390 -2.5013 0.9765
-5.3516 0.7484 -2.5013 0.9765
-5.3749 0.5570 -2.5013 0.9765
-5.3913 0.3647 -2.5013 0.9765
-5.4036 -0.0208 -2.5013 0.9765
-5.3994 -0.2137 -2.5013 0.9765
-5.3884 -0.4062 -2.5013 0.9765
-5.3705 -0.5983 -2.5013 0.9765
-5.3141 -0.9799 -2.5013 0.9765
-5.2307 -1.3565 -2.5013 0.9765
-5.1206 -1.7262 -2.5013 0.9765
-5.0557 -1.9079 -2.5013 0.9765
-4.9068 -2.2637 -2.5013 0.9765
-4.8229 -2.4374 -2.5013 0.9765
-4.7328 -2.6080 -2.5013 0.9765
4.3770 2.6198 -2.5022 0.9775
4.1790 2.9254 -2.5022 0.9775
3.8423 3.3553 -2.5022 0.9775
3.7200 3.4903 -2.5022 0.9775
3.4615 3.7467 -2.5022 0.9775
3.3256 3.8679 -2.5021 0.9775
3.1854 3.9841 -2.5021 0.9775
3.0411 4.0952 -2.5021 0.9775
2.8930 4.2011 -2.5021 0.9775
2.5859 4.3967 -2.5021 0.9775
2.4273 4.4862 -2.5021 0.9775
1.7641 4.7859 -2.5020 0.9775
1.5922 4.8458 -2.5020 0.9775
1.4182 4.8995 -2.5020 0.9775
1.2424 4.9469 -2.5019 0.9775
1.0650 4.9881 -2.5019 0.9775
0.8863 5.0229 -2.5019 0.9775
0.7064 5.0513 -2.5019 0.9775
0.5257 5.0732 -2.5019 0.9775
0.1624 5.0977 -2.5018 0.9775
-0.7452 5.0454 -2.5017 0.9775
-0.9248 5.0155 -2.5017 0.9775
-1.1033 4.9793 -2.5017 0.9775
-1.2803 4.9367 -2.5017 0.9775
-1.8006 4.7715 -2.5016 0.9775
-3.0718 4.0707 -2.5015 0.9775
-3.4893 3.7190 -2.5015 0.9775
-3.6198 3.5920 -2.5015 0.9775
-3.7457 3.4605 -2.5014 0.9775
-3.8668 3.3246 -2.5014 0.9775
-3.9829 3.1845 -2.5014 0.9775
-4.0941 3.0403 -2.5014 0.9775
-4.4850 2.4266 -2.5014 0.9775
-4.6467 2.1005 -2.5014 0.9775
-4.7186 1.9333 -2.5013 0.9775
-4.7846 1.7636 -2.5013 0.9775
-4.8982 1.4178 -2.5013 0.9775
-4.9457 1.2421 -2.5013 0.9775
-5.0501 0.7063 -2.5013 0.9775
-5.0721 0.5256 -2.5013 0.9775
-5.0876 0.3442 -2.5013 0.9775
-5.0953 -0.2016 -2.5013 0.9775
-5.0679 -0.5646 -2.5013 0.9775
-5.0147 -0.9247 -2.5013 0.9775
-4.9785 -1.1031 -2.5013 0.9775
-4.9360 -1.2801 -2.5013 0.9775
-4.8872 -1.4555 -2.5013 0.9775
-4.8321 -1.6290 -2.5013 0.9775
-4.7709 -1.8004 -2.5013 0.9775
4.0475 2.6232 -2.5022 0.9785
3.9513 2.7660 -2.5022 0.9785
3.7439 3.0408 -2.5022 0.9785
3.2730 3.5426 -2.5021 0.9785
3.1444 3.6572 -2.5021 0.9785
3.0119 3.7671 -2.5021 0.9785
2.5919 4.0674 -2.5021 0.9785
2.4450 4.1572 -2.5021 0.9785
1.9866 4.3947 -2.5020 0.9785
1.8285 4.4628 -2.5020 0.9785
1.6680 4.5252 -2.5020 0.9785
1.3409 4.6326 -2.5019 0.9785
1.1747 4.6775 -2.5019 0.9785
1.0070 4.7164 -2.5019 0.9785
0.6680 4.7761 -2.5019 0.9785
0.4971 4.7969 -2.5019 0.9785
0.3255 4.8116 -2.5018 0.9785
-0.0185 4.8225 -2.5018 0.9785
-0.1907 4.8187 -2.5018 0.9785
-0.3625 4.8088 -2.5018 0.9785
-0.5339 4.7928 -2.5018 0.9785
-0.7046 4.7706 -2.5017 0.9785
-1.2105 4.6678 -2.5017 0.9785
-1.5404 4.5695 -2.5017 0.9785
-1.8625 4.4479 -2.5016 0.9785
-2.3272 4.2233 -2.5016 0.9785
-2.7653 3.9503 -2.5015 0.9785
-3.0400 3.7429 -2.5015 0.9785
-3.2993 3.5164 -2.5015 0.9785
-3.5417 3.2721 -2.5015 0.9785
-3.6562 3.1436 -2.5015 0.9785
-3.9712 2.7347 -2.5014 0.9785
-4.0663 2.5912 -2.5014 0.9785
-4.2408 2.2945 -2.5014 0.9785
-4.3936 1.9861 -2.5014 0.9785
-4.5241 1.6676 -2.5014 0.9785
-4.6315 1.3406 -2.5014 0.9785
-4.6764 1.1744 -2.5014 0.9785
-4.7153 1.0068 -2.5013 0.9785
-4.7482 0.8378 -2.5013 0.9785
-4.7959 0.4970 -2.5013 0.9785
-4.8178 -0.1906 -2.5013 0.9785
-4.7698 -0.7045 -2.5013 0.9785
-4.6672 -1.2104 -2.5013 0.9785
-4.4475 -1.8623 -2.5014 0.9785
3.9200 2.3463 -2.5022 0.9794
3.6467 2.7518 -2.5022 0.9794
3.5461 2.8802 -2.5022 0.9794
3.4411 3.0049 -2.5022 0.9794
3.1001 3.3555 -2.5021 0.9794
2.8528 3.5681 -2.5021 0.9794
2.7236 3.6676 -2.5021 0.9794
2.5910 3.7625 -2.5021 0.9794
2.3159 3.9377 -2.5020 0.9794
2.0291 4.0928 -2.5020 0.9794
1.7319 4.2271 -2.5020 0.9794
1.1127 4.4304 -2.5019 0.9794
0.7938 4.4985 -2.5019 0.9794
0.6327 4.5239 -2.5019 0.9794
0.3083 4.5574 -2.5018 0.9794
0.1455 4.5655 -2.5018 0.9794
-0.0176 4.5678 -2.5018 0.9794
-0.3434 4.5548 -2.5018 0.9794
-0.5057 4.5396 -2.5018 0.9794
-0.6674 4.5187 -2.5017 0.9794
-0.8283 4.4919 -2.5017 0.9794
-1.1466 4.4213 -2.5017 0.9794
-1.3037 4.3776 -2.5017 0.9794
-1.4591 4.3282 -2.5017 0.9794
-1.6126 4.2734 -2.5017 0.9794
-1.9134 4.1474 -2.5016 0.9794
-2.0602 4.0764 -2.5016 0.9794
-2.2043 4.0003 -2.5016 0.9794
-2.3457 3.9190 -2.5016 0.9794
-2.7511 3.6458 -2.5015 0.9794
-3.0042 3.4402 -2.5015 0.9794
-3.2419 3.2171 -2.5015 0.9794
-3.4631 2.9776 -2.5015 0.9794
-3.5672 2.8521 -2.5015 0.9794
-3.6667 2.7229 -2.5015 0.9794
-3.8516 2.4544 -2.5014 0.9794
-4.0168 2.1733 -2.5014 0.9794
-4.1616 1.8812 -2.5014 0.9794
-4.2261 1.7315 -2.5014 0.9794
-4.3388 1.4256 -2.5014 0.9794
-4.3870 1.2698 -2.5014 0.9794
-4.4295 1.1124 -2.5014 0.9794
-4.4663 0.9536 -2.5014 0.9794
-4.4975 0.7936 -2.5014 0.9794
-4.5541 -0.3433 -2.5014 0.9794
-4.5389 -0.5056 -2.5014 0.9794
-4.4208 -1.1465 -2.5014 0.9794
-4.3771 -1.3035 -2.5014 0.9794
-4.2729 -1.6125 -2.5014 0.9794
-4.1470 -1.9132 -2.5014 0.9794
-4.0761 -2.0600 -2.5014 0.9794
-4.0000 -2.2042 -2.5014 0.9794
3.6369 2.3571 -2.5022 0.9802
3.3640 2.7323 -2.5021 0.9802
3.1605 2.9653 -2.5021 0.9802
3.0526 3.0762 -2.5021 0.9802
2.8254 3.2861 -2.5021 0.9802
2.7063 3.3849 -2.5021 0.9802
2.5837 3.4793 -2.5021 0.9802
2.4579 3.5692 -2.5021 0.9802
2.0622 3.8115 -2.5020 0.9802
1.9249 3.8826 -2.5020 0.9802
1.7851 3.9488 -2.5020 0.9802
1.3527 4.1169 -2.5019 0.9802
1.0555 4.2029 -2.5019 0.9802
0.7530 4.2675 -2.5019 0.9802
0.6002 4.2916 -2.5019 0.9802
0.4466 4.3103 -2.5019 0.9802
0.2925 4.3234 -2.5018 0.9802
-0.3257 4.3209 -2.5018 0.9802
-0.7858 4.2613 -2.5017 0.9802
-0.9373 4.2305 -2.5017 0.9802
-1.2367 4.1528 -2.5017 0.9802
-1.3842 4.1060 -2.5017 0.9802
-1.6735 3.9967 -2.5016 0.9802
-2.3565 3.6360 -2.5016 0.9802
-2.4848 3.5496 -2.5016 0.9802
-2.6099 3.4586 -2.5016 0.9802
-2.8499 3.2636 -2.5015 0.9802
-2.9646 3.1597 -2.5015 0.9802
-3.0755 3.0519 -2.5015 0.9802
-3.1824 2.9402 -2.5015 0.9802
-3.3840 2.7056 -2.5015 0.9802
-3.6538 2.3284 -2.5015 0.9802
-3.7346 2.1965 -2.5014 0.9802
-3.8818 1.9244 -2.5014 0.9802
-4.0652 1.4984 -2.5014 0.9802
-4.1617 1.2046 -2.5014 0.9802
-4.2370 0.9046 -2.5014 0.9802
-4.2666 0.7528 -2.5014 0.9802
-4.2908 0.6001 -2.5014 0.9802
-4.3226 0.2925 -2.5014 0.9802
-4.3291 -0.1713 -2.5014 0.9802
-4.2860 -0.6331 -2.5014 0.9802
-4.2607 -0.7857 -2.5014 0.9802
-4.2300 -0.9372 -2.5014 0.9802
-4.1523 -1.2366 -2.5014 0.9802
-4.1056 -1.3840 -2.5014 0.9802
-4.0535 -1.5297 -2.5014 0.9802
-3.9341 -1.8150 -2.5014 0.9802
-3.7946 -2.0910 -2.5014 0.9802
