ply
format ascii 1.0
element vertex 1452
property float32 x
property float32 y
property float32 z
property float32 I
end_header
-18.0274 -20.6897 4.8387 0.8945
-15.6280 -20.7722 4.5835 0.8998
-14.5179 -20.8104 4.4741 0.9021
-13.4583 -20.8468 4.3753 0.9041
-11.2274 -18.8414 3.8674 0.9148
-10.3469 -18.8716 3.7949 0.9163
-10.1083 -20.1159 3.9696 0.9126
-7.8683 -21.0290 3.9590 0.9128
-6.2074 -21.0861 3.8758 0.9146
-3.0477 -21.1947 3.7756 0.9167
-2.2782 -21.2212 3.7634 0.9170
0.0142 -21.3000 3.7558 0.9171
1.5383 -21.2073 3.7492 0.9173
3.9007 -21.4336 3.8414 0.9153
4.7066 -21.4613 3.8741 0.9146
7.3160 -19.4739 3.6681 0.9190
9.9483 -21.6283 4.1977 0.9078
14.0960 -21.7708 4.5732 0.9000
15.2591 -21.8108 4.6936 0.8975
16.8841 -22.3798 4.9432 0.8924
19.6667 -22.5104 5.2707 0.8857
21.1862 -22.5626 5.4574 0.8819
28.9600 -24.8536 6.7291 0.8564
13.3498 30.3191 5.8414 0.8741
-18.0274 -20.6897 4.2039 0.8949
-15.6280 -20.7722 3.9822 0.9002
-13.4583 -20.8468 3.8013 0.9045
-11.2274 -18.8414 3.3600 0.9151
-10.3469 -18.8717 3.2971 0.9166
-8.7280 -20.9994 3.4838 0.9121
-7.8683 -21.0290 3.4396 0.9131
-5.6035 -19.0347 3.0397 0.9228
-4.8843 -19.0944 3.0193 0.9233
-3.4576 -19.1435 2.9801 0.9243
-2.7562 -19.1676 2.9666 0.9246
-1.3655 -19.1804 2.9458 0.9251
-0.6776 -19.2391 2.9491 0.9251
0.0128 -19.2628 2.9510 0.9250
1.3981 -19.2755 2.9606 0.9248
2.1017 -19.3346 2.9794 0.9243
4.2487 -19.3734 3.0384 0.9229
6.3659 -21.5183 3.4377 0.9132
7.3160 -19.4739 3.1869 0.9193
8.1362 -19.5021 3.2372 0.9180
9.9483 -21.6283 3.6470 0.9082
10.9213 -21.6617 3.7164 0.9065
11.9334 -21.6965 3.7934 0.9047
12.9896 -21.7328 3.8787 0.9026
14.0960 -21.7708 3.9732 0.9004
16.8841 -22.3798 4.2947 0.8928
19.9482 -24.5572 4.8468 0.8798
28.5954 -22.8120 5.6038 0.8624
22.3835 6.8050 3.5840 0.9097
-18.0274 -20.6897 3.5735 0.8952
-16.6804 -20.5903 3.4507 0.8986
-13.1233 -18.8113 2.9868 0.9116
-12.1655 -18.8443 2.9209 0.9135
-11.2274 -18.8414 2.8561 0.9153
-8.6920 -18.9635 2.7165 0.9193
-7.8933 -18.9910 2.6781 0.9204
-6.3568 -19.0438 2.6144 0.9222
-4.8843 -19.0944 2.5666 0.9236
-3.4576 -19.1435 2.5332 0.9245
-2.0603 -19.1916 2.5135 0.9251
-1.3655 -19.1804 2.5040 0.9254
0.0128 -19.2628 2.5084 0.9252
1.3981 -19.2754 2.5167 0.9250
2.1017 -19.3346 2.5326 0.9245
3.5276 -19.3837 2.5656 0.9236
6.5336 -19.4870 2.6764 0.9204
7.3160 -19.4739 2.7090 0.9195
9.8803 -19.5969 2.8579 0.9153
12.7292 -19.6599 3.0499 0.9099
21.5015 -24.6106 4.2556 0.8765
23.0424 -22.8397 4.2249 0.8773
26.7797 -24.7043 4.7445 0.8633
29.7677 -23.7471 4.9587 0.8576
30.8237 -22.8299 4.9950 0.8566
22.3520 6.7954 3.0422 0.9101
6.4465 14.6407 2.0832 0.9375
-15.1819 -18.7406 2.5899 0.9075
-14.1268 -18.7769 2.5232 0.9098
-13.1233 -18.8114 2.4630 0.9119
-12.1655 -18.8443 2.4086 0.9137
-11.2274 -18.8414 2.3552 0.9155
-8.6920 -18.9635 2.2401 0.9195
-7.8933 -18.9910 2.2084 0.9206
-4.6627 -18.2282 2.0204 0.9271
-3.9738 -18.2358 2.0041 0.9277
-3.2955 -18.2462 1.9910 0.9281
-1.3024 -18.2937 1.9694 0.9289
0.0122 -18.3392 1.9693 0.9289
0.6713 -18.3663 1.9735 0.9287
2.0034 -18.4296 1.9907 0.9281
4.0681 -18.5498 2.0393 0.9264
4.9988 -19.4342 2.1548 0.9224
5.7570 -19.4603 2.1792 0.9216
6.5336 -19.4870 2.2070 0.9206
7.3160 -19.4738 2.2338 0.9197
9.0000 -19.5666 2.3127 0.9170
10.7958 -19.6283 2.4055 0.9138
11.7514 -19.6612 2.4596 0.9120
14.9152 -19.7700 2.6593 0.9052
16.0923 -19.8104 2.7407 0.9024
17.3454 -19.8535 2.8309 0.8994
22.9859 -24.4792 3.6058 0.8736
41.6744 -4.1578 4.4973 0.8449
32.7610 15.3679 3.8858 0.8645
-16.2660 -18.6681 2.0960 0.9054
-14.1024 -18.7444 1.9857 0.9101
-13.1285 -18.8188 1.9424 0.9120
-9.8601 -17.9838 1.7362 0.9210
-9.0509 -18.0116 1.7064 0.9223
-8.2680 -18.0385 1.6798 0.9234
-5.3399 -18.1392 1.6007 0.9269
-4.6461 -18.1631 1.5871 0.9275
-3.9631 -18.1866 1.5757 0.9280
-3.2889 -18.2097 1.5664 0.9284
-2.6218 -18.2327 1.5593 0.9287
-1.9598 -18.2554 1.5542 0.9289
-1.3013 -18.2781 1.5512 0.9291
0.6706 -18.3459 1.5541 0.9290
1.3324 -18.3686 1.5590 0.9287
2.6730 -18.4147 1.5752 0.9280
3.3555 -18.4381 1.5865 0.9275
6.2149 -18.5365 1.6550 0.9245
6.9737 -18.5625 1.6786 0.9235
8.1361 -19.5020 1.7888 0.9187
10.2919 -20.4134 1.9353 0.9123
11.0161 -20.0289 1.9350 0.9123
11.7260 -19.6187 1.9348 0.9123
12.7222 -19.6491 1.9816 0.9103
16.0923 -19.8104 2.1606 0.9026
17.3454 -19.8535 2.2317 0.8996
24.5788 -22.6740 2.8308 0.8744
48.3624 7.3911 4.1415 0.8217
30.6542 13.0597 2.8206 0.8748
30.1168 14.1275 2.8160 0.8750
6.4492 14.6468 1.3548 0.9378
-14.0085 -20.0802 1.5182 0.9065
-8.2777 -18.0596 1.2319 0.9235
-6.0679 -18.1785 1.1884 0.9261
-5.3618 -18.2136 1.1774 0.9267
-2.6713 -18.5772 1.1638 0.9275
-2.0030 -18.6578 1.1636 0.9276
-1.3324 -18.7143 1.1634 0.9276
-0.6603 -18.7467 1.1632 0.9276
0.6850 -18.7392 1.1628 0.9276
2.6923 -18.5475 1.1622 0.9276
4.0650 -18.5354 1.1767 0.9268
5.4908 -18.5605 1.2002 0.9254
6.2265 -18.5712 1.2146 0.9245
6.9805 -18.5806 1.2308 0.9235
9.5214 -20.7002 1.4129 0.9127
10.5320 -20.8896 1.4507 0.9105
12.5642 -21.0210 1.5186 0.9065
14.9110 -21.3133 1.6130 0.9010
16.8842 -22.3798 1.7384 0.8937
18.8204 -21.5418 1.7738 0.8917
20.2746 -21.5918 1.8367 0.8881
21.8376 -21.6455 1.9067 0.8841
24.5395 -22.6377 2.0703 0.8748
30.8938 -22.8818 2.3839 0.8572
48.1726 7.3621 3.0219 0.8226
30.9879 13.2019 2.0887 0.8737
-15.1835 -18.7426 0.9511 0.9080
-13.0093 -18.6479 0.8966 0.9130
-11.2273 -18.8413 0.8648 0.9159
-10.3469 -18.8716 0.8486 0.9175
-9.4263 -22.6795 0.9684 0.9064
-8.4978 -22.7114 0.9562 0.9075
-7.5914 -22.7426 0.9454 0.9085
-4.0995 -22.6975 0.9095 0.9118
-2.4605 -22.9190 0.9089 0.9119
0.0153 -23.0041 0.9071 0.9120
1.3981 -19.2754 0.7620 0.9256
2.5099 -23.0898 0.9158 0.9112
3.3558 -23.1189 0.9212 0.9107
4.1825 -22.9822 0.9211 0.9107
5.9697 -23.2088 0.9449 0.9085
6.8258 -23.0731 0.9488 0.9082
8.1361 -19.5020 0.8332 0.9189
7.8614 -17.0912 0.7418 0.9275
10.7578 -19.5592 0.8802 0.9145
11.7669 -19.6871 0.9044 0.9123
12.8331 -19.8203 0.9311 0.9098
13.9187 -19.8949 0.9574 0.9074
15.1019 -20.0175 0.9887 0.9045
20.3451 -21.6669 1.1720 0.8878
21.8690 -21.6765 1.2141 0.8840
28.0060 -24.0348 1.4552 0.8627
22.2281 6.7577 0.9161 0.9112
30.5685 14.3395 1.3315 0.8736
21.8016 23.9920 1.2783 0.8783
20.4487 24.1924 1.2491 0.8809
6.4566 14.6637 0.6318 0.9379
-14.8703 -18.3560 0.3990 0.9098
-15.5211 -20.6301 0.4361 0.9019
-14.4186 -20.6681 0.4257 0.9041
-11.2274 -18.8413 0.3705 0.9160
-10.1095 -20.1183 0.3803 0.9139
-9.4263 -22.6795 0.4149 0.9064
-8.4978 -22.7114 0.4096 0.9075
-7.5914 -22.7426 0.4050 0.9085
-6.7041 -22.7731 0.4010 0.9094
-5.8329 -22.8030 0.3976 0.9101
-4.1587 -19.0844 0.3299 0.9248
-0.8092 -22.9758 0.3883 0.9121
0.0153 -23.0041 0.3886 0.9121
0.8419 -23.0325 0.3893 0.9119
1.3981 -19.2754 0.3265 0.9256
3.3558 -23.1189 0.3946 0.9108
5.0832 -23.1783 0.4008 0.9094
7.2320 -21.5701 0.3843 0.9130
7.3160 -19.4738 0.3514 0.9201
8.1361 -19.5020 0.3569 0.9189
9.6498 -19.1397 0.3621 0.9178
10.5440 -19.1705 0.3696 0.9162
11.4773 -19.2025 0.3779 0.9144
22.7973 -22.5967 0.5422 0.8795
26.7007 -24.6315 0.6136 0.8647
25.9519 -22.2720 0.5777 0.8721
30.2708 -22.4204 0.6363 0.8601
33.7433 11.5959 0.6027 0.8670
30.0896 11.5627 0.5445 0.8790
30.4868 14.3011 0.5688 0.8740
13.1632 6.7610 0.2500 0.9425
12.2715 6.8700 0.2376 0.9453
12.4010 8.1620 0.2508 0.9423
19.3436 24.6245 0.5289 0.8823
18.9483 25.9885 0.5433 0.8793
6.4566 14.6638 0.2706 0.9379
-15.5211 -20.6301 -0.1454 0.9019
-14.4186 -20.6681 -0.1419 0.9041
-11.2274 -18.8414 -0.1235 0.9160
-10.1817 -22.2137 -0.1376 0.9069
-9.4263 -22.6795 -0.1383 0.9064
-6.7041 -22.7731 -0.1337 0.9094
-5.8330 -22.8030 -0.1325 0.9101
-4.0995 -22.6975 -0.1299 0.9119
-1.6220 -22.7827 -0.1286 0.9127
-0.8092 -22.9758 -0.1294 0.9121
0.8419 -23.0325 -0.1298 0.9119
2.5099 -23.0899 -0.1308 0.9113
4.1825 -22.9823 -0.1315 0.9108
5.0832 -23.1783 -0.1336 0.9094
6.8258 -23.0732 -0.1355 0.9082
7.3160 -19.4738 -0.1171 0.9202
11.8523 -21.5492 -0.1385 0.9063
12.9015 -21.5853 -0.1416 0.9043
22.6624 -25.9393 -0.1939 0.8713
22.9848 -24.4780 -0.1891 0.8743
26.7008 -24.6315 -0.2045 0.8648
21.7051 -18.6274 -0.1610 0.8919
26.3682 -21.0353 -0.1899 0.8738
46.6836 7.1345 -0.2659 0.8279
29.7415 12.6709 -0.1820 0.8787
14.2708 6.6943 -0.0887 0.9389
30.5160 15.6738 -0.1931 0.8718
13.3422 8.1111 -0.0879 0.9395
12.4651 8.2042 -0.0840 0.9421
20.5322 24.2912 -0.1791 0.8805
6.4567 14.6638 -0.0902 0.9379
-12.8885 -14.7918 -0.5524 0.9245
-12.0518 -14.8769 -0.5391 0.9262
-9.6173 -14.8971 -0.4993 0.9315
-8.2306 -15.0116 -0.4821 0.9338
-7.5760 -15.0763 -0.4751 0.9347
-6.8256 -14.8914 -0.4613 0.9366
-5.6209 -15.0224 -0.4516 0.9378
-2.1875 -15.2128 -0.4328 0.9404
-1.6503 -15.3721 -0.4353 0.9400
-1.0794 -15.1616 -0.4280 0.9410
-0.5461 -15.5052 -0.4369 0.9398
0.0101 -15.2738 -0.4301 0.9407
0.5662 -15.4902 -0.4365 0.9399
1.1116 -15.3259 -0.4327 0.9404
3.3762 -15.3947 -0.4438 0.9389
4.0021 -15.5591 -0.4524 0.9377
4.5833 -15.4929 -0.4549 0.9374
5.2302 -15.5994 -0.4633 0.9363
5.8464 -15.5619 -0.4681 0.9356
7.8160 -15.5025 -0.4889 0.9329
8.5943 -15.6256 -0.5021 0.9311
10.9725 -15.6838 -0.5390 0.9263
15.7078 -20.8205 -0.7344 0.9009
16.4267 -20.2220 -0.7336 0.9010
29.9713 -22.1986 -1.0502 0.8614
48.4726 -1.3429 -1.3654 0.8236
48.5614 5.6479 -1.3766 0.8223
47.2454 7.2203 -1.3458 0.8259
30.1812 11.5979 -0.9104 0.8786
14.4040 7.3983 -0.4560 0.9373
13.3421 8.1110 -0.4397 0.9394
11.1338 7.9144 -0.3846 0.9468
33.4667 29.6848 -1.2596 0.8361
6.4567 14.6638 -0.4512 0.9379
-11.8990 -14.6882 -0.9587 0.9271
-11.0453 -14.6811 -0.9317 0.9291
-10.3057 -14.7724 -0.9135 0.9304
-9.5202 -14.7467 -0.8902 0.9321
-8.1446 -14.8548 -0.8592 0.9344
-6.1809 -14.8710 -0.8167 0.9375
-5.6039 -14.9770 -0.8110 0.9380
-5.0140 -15.0210 -0.8031 0.9385
-4.3942 -14.9266 -0.7891 0.9396
-3.8505 -15.0530 -0.7880 0.9397
-3.2735 -15.0223 -0.7797 0.9403
-2.7532 -15.2438 -0.7856 0.9398
-1.0719 -15.0564 -0.7655 0.9413
-0.5338 -15.1562 -0.7691 0.9411
1.1017 -15.1883 -0.7723 0.9408
2.7826 -15.2901 -0.7882 0.9397
3.3435 -15.2456 -0.7915 0.9394
3.9545 -15.3743 -0.8051 0.9384
4.4952 -15.1950 -0.8036 0.9385
5.1378 -15.3240 -0.8197 0.9373
5.7602 -15.3326 -0.8306 0.9365
6.3914 -15.3198 -0.8418 0.9357
7.7201 -15.3124 -0.8697 0.9336
8.4818 -15.4211 -0.8926 0.9319
9.9927 -15.4334 -0.9324 0.9290
16.2353 -19.9864 -1.3059 0.9020
18.4182 -16.9908 -1.2708 0.9045
20.4861 -17.5813 -1.3691 0.8975
30.2402 -22.3978 -1.9084 0.8601
41.8552 -26.5780 -2.5144 0.8199
42.7864 -25.0627 -2.5147 0.8199
44.4817 -21.9357 -2.5152 0.8198
46.5923 -17.0357 -2.5159 0.8198
46.1791 -6.2869 -2.3635 0.8297
46.3758 -4.6269 -2.3636 0.8297
42.9227 1.8916 -2.1789 0.8419
41.1128 3.2925 -2.0917 0.8477
38.8015 4.5128 -1.9811 0.8552
36.7419 5.6152 -1.8850 0.8617
30.5651 8.1069 -1.6037 0.8810
22.1064 6.7207 -1.1718 0.9116
27.3689 9.4053 -1.4677 0.8906
23.9127 10.1877 -1.3182 0.9011
14.2705 6.6942 -0.7994 0.9388
39.4396 22.0795 -2.2923 0.8344
27.2663 22.4907 -1.7925 0.8680
25.3113 22.4510 -1.7158 0.8733
16.5023 15.7303 -1.1562 0.9127
16.6995 18.3772 -1.2593 0.9053
16.5119 22.6469 -1.4214 0.8938
6.4567 14.6639 -0.8126 0.9378
-10.3222 -14.7962 -1.3228 0.9302
-8.7962 -14.7614 -1.2599 0.9334
-8.0835 -14.7433 -1.2328 0.9348
-6.8167 -14.8721 -1.1995 0.9365
-6.2449 -15.0251 -1.1930 0.9368
-5.5732 -14.8949 -1.1661 0.9382
-4.3738 -14.8572 -1.1356 0.9398
-3.8082 -14.8878 -1.1268 0.9402
-3.2258 -14.8033 -1.1109 0.9410
-2.1672 -15.0716 -1.1165 0.9408
-1.6122 -15.0173 -1.1074 0.9412
-1.0780 -15.1420 -1.1131 0.9409
-0.5335 -15.1470 -1.1113 0.9410
0.0100 -15.0946 -1.1068 0.9413
0.5550 -15.1853 -1.1142 0.9409
1.1075 -15.2694 -1.1225 0.9404
2.7436 -15.0754 -1.1235 0.9404
3.9015 -15.1679 -1.1483 0.9391
5.7246 -15.2378 -1.1935 0.9368
7.6931 -15.2588 -1.2530 0.9338
10.8798 -15.5512 -1.3916 0.9267
14.9893 -19.8682 -1.8249 0.9050
20.6074 -17.6853 -1.9911 0.8968
25.8357 -19.1355 -2.3573 0.8790
26.5076 -18.1982 -2.3575 0.8790
28.8558 -18.3234 -2.5063 0.8719
29.5459 -17.3069 -2.5107 0.8717
30.7148 -15.1467 -2.5110 0.8717
31.2402 -14.0363 -2.5112 0.8717
32.1695 -11.7622 -2.5115 0.8716
32.5723 -10.6015 -2.5116 0.8716
33.9465 -4.6215 -2.5120 0.8716
34.0910 -3.4012 -2.5120 0.8716
33.4107 0.2730 -2.4498 0.8746
32.0732 2.5686 -2.3592 0.8789
31.9600 3.7171 -2.3592 0.8789
31.8054 4.8608 -2.3591 0.8789
23.4660 4.4528 -1.7513 0.9086
31.3734 7.1277 -2.3590 0.8789
30.5815 8.1113 -2.3198 0.8808
22.0761 6.7115 -1.6918 0.9116
23.8241 10.1499 -1.8988 0.9013
14.2704 6.6942 -1.1557 0.9387
14.4038 7.3981 -1.1873 0.9371
19.7063 11.0322 -1.6559 0.9134
13.3418 8.1109 -1.1448 0.9393
11.1335 7.9143 -1.0016 0.9467
16.1034 12.3397 -1.4875 0.9219
16.1059 13.2850 -1.5308 0.9197
16.0986 15.3456 -1.6307 0.9147
16.3662 18.0104 -1.7843 0.9070
16.1871 19.1506 -1.8386 0.9043
15.8548 20.1833 -1.8819 0.9022
14.7399 20.2166 -1.8345 0.9045
16.6835 28.9782 -2.4517 0.8745
14.6086 30.1929 -2.4593 0.8741
-11.1431 -14.8111 -1.7794 0.9282
-8.8123 -14.7885 -1.6527 0.9332
-6.7527 -14.7324 -1.5559 0.9370
-4.9794 -14.9172 -1.5098 0.9388
-4.3845 -14.8936 -1.4905 0.9395
-3.8417 -15.0185 -1.4883 0.9396
-3.2553 -14.9385 -1.4678 0.9404
-2.7111 -15.0108 -1.4644 0.9405
-2.1547 -14.9843 -1.4534 0.9410
-1.0655 -14.9654 -1.4404 0.9415
-0.5335 -15.1484 -1.4552 0.9409
1.0919 -15.0536 -1.4490 0.9412
5.0581 -15.0861 -1.5276 0.9381
5.7180 -15.2202 -1.5609 0.9368
9.1611 -15.3274 -1.7143 0.9308
9.9802 -15.4142 -1.7629 0.9289
15.2711 -18.7994 -2.3253 0.9073
17.4201 -17.2668 -2.3548 0.9061
19.1782 -15.2994 -2.3553 0.9061
21.5376 -14.7862 -2.5081 0.9003
22.0565 -14.0058 -2.5084 0.9003
22.5459 -13.2066 -2.5085 0.9003
23.0063 -12.3902 -2.5087 0.9003
24.8531 -8.0891 -2.5092 0.9003
25.7571 -4.4527 -2.5095 0.9003
25.9007 -3.5262 -2.5095 0.9003
26.0874 -1.6606 -2.5096 0.9003
21.9111 5.8116 -2.1763 0.9129
21.4997 7.3884 -2.1826 0.9127
22.9111 8.8042 -2.3564 0.9061
19.6683 11.0110 -2.1640 0.9134
13.3417 8.1108 -1.4990 0.9392
12.4650 8.2042 -1.4326 0.9418
11.1334 7.9142 -1.3114 0.9466
16.1031 12.3396 -1.9477 0.9217
16.0459 14.2325 -2.0592 0.9174
15.5737 17.1383 -2.2232 0.9111
14.5368 17.1981 -2.1619 0.9135
15.4240 19.6348 -2.3971 0.9045
14.7271 20.1989 -2.3999 0.9044
13.2656 21.2415 -2.4043 0.9043
12.5070 21.7239 -2.4066 0.9042
10.9376 22.6058 -2.4110 0.9040
6.4567 14.6639 -1.5382 0.9376
-11.5191 -14.2192 -2.1737 0.9289
-6.5998 -14.3988 -1.8815 0.9382
-4.8341 -14.4820 -1.8136 0.9404
-4.3120 -14.6473 -1.8137 0.9403
-3.7843 -14.7938 -1.8139 0.9403
-3.2934 -15.1133 -1.8374 0.9396
-2.6869 -14.8767 -1.7957 0.9409
-2.1834 -15.1839 -1.8222 0.9401
-1.6166 -15.0579 -1.7989 0.9408
-1.0838 -15.2234 -1.8129 0.9404
-0.5299 -15.0466 -1.7884 0.9412
0.0101 -15.1989 -1.8054 0.9406
0.5535 -15.1433 -1.8000 0.9408
1.1009 -15.1784 -1.8077 0.9405
3.8144 -14.8297 -1.8189 0.9402
4.3782 -14.7997 -1.8333 0.9397
5.5765 -14.8435 -1.8835 0.9381
6.8489 -14.8900 -1.9469 0.9361
7.5195 -14.9145 -1.9841 0.9349
8.2171 -14.9399 -2.0254 0.9336
7.4033 -12.3864 -1.7141 0.9435
10.5107 -15.0237 -2.1780 0.9288
11.9305 -15.8138 -2.3531 0.9233
13.0352 -14.9201 -2.3534 0.9233
13.5629 -14.4440 -2.3536 0.9233
14.5652 -13.4364 -2.3539 0.9233
15.5862 -13.3761 -2.4397 0.9206
16.9586 -12.5606 -2.5068 0.9185
17.3991 -11.9449 -2.5069 0.9185
17.8172 -11.3139 -2.5071 0.9185
18.5840 -10.0085 -2.5073 0.9185
18.9318 -9.3360 -2.5074 0.9185
19.2552 -8.6514 -2.5075 0.9185
19.8271 -7.2495 -2.5077 0.9185
20.2969 -5.8099 -2.5078 0.9185
20.8048 -3.5966 -2.5080 0.9185
21.0096 -2.0961 -2.5080 0.9185
21.1060 -0.5848 -2.5081 0.9185
21.1134 0.1725 -2.5081 0.9185
20.8711 3.1897 -2.5080 0.9185
20.7430 3.9361 -2.5079 0.9185
19.4837 5.1677 -2.3944 0.9220
18.9699 5.7671 -2.3552 0.9232
18.2390 7.7705 -2.3550 0.9232
14.2702 6.6940 -1.8723 0.9385
17.6337 9.0571 -2.3548 0.9233
17.2968 9.6833 -2.3547 0.9233
12.2782 8.0812 -1.7460 0.9425
15.7312 12.0546 -2.3542 0.9233
14.3858 13.7128 -2.3608 0.9231
13.8993 14.2349 -2.3633 0.9230
12.3253 15.6902 -2.3700 0.9228
11.7656 16.1371 -2.3723 0.9227
10.5963 16.9673 -2.3762 0.9226
-10.8776 -12.4840 -2.3461 0.9353
-10.4235 -12.8668 -2.3462 0.9353
-9.9559 -13.2331 -2.3464 0.9353
-9.4756 -13.5825 -2.3465 0.9353
-8.9829 -13.9145 -2.3467 0.9353
-7.8692 -14.3525 -2.3192 0.9360
-6.5998 -14.3988 -2.2443 0.9380
-5.9939 -14.4210 -2.2128 0.9389
-3.7102 -14.5044 -2.1213 0.9413
-2.6269 -14.5439 -2.0941 0.9420
-2.0942 -14.5634 -2.0847 0.9423
-1.5656 -14.5827 -2.0781 0.9425
-1.0396 -14.6019 -2.0742 0.9426
-0.5150 -14.6211 -2.0729 0.9426
0.5358 -14.6594 -2.0785 0.9425
1.5977 -14.6982 -2.0948 0.9420
2.1364 -14.7179 -2.1072 0.9417
3.2365 -14.7581 -2.1408 0.9408
4.3782 -14.7997 -2.1868 0.9396
5.5765 -14.8435 -2.2467 0.9379
6.2022 -14.8664 -2.2824 0.9370
6.8489 -14.8900 -2.3222 0.9359
7.9994 -14.5441 -2.3519 0.9351
9.0226 -13.9351 -2.3522 0.9351
9.9995 -13.2542 -2.3525 0.9351
10.4690 -12.8879 -2.3526 0.9351
13.4202 -11.5173 -2.5057 0.9310
14.2125 -10.5267 -2.5060 0.9310
14.9319 -9.4817 -2.5062 0.9310
15.2629 -8.9404 -2.5063 0.9310
15.8656 -7.8240 -2.5065 0.9310
16.1365 -7.2502 -2.5066 0.9310
17.0092 -4.8688 -2.5068 0.9310
17.1732 -4.2558 -2.5069 0.9310
17.4346 -3.0140 -2.5069 0.9310
17.5317 -2.3868 -2.5070 0.9310
17.6766 0.7790 -2.5070 0.9310
17.5750 2.0440 -2.5070 0.9310
17.3829 3.2985 -2.5069 0.9310
17.1011 4.5358 -2.5068 0.9310
16.9271 5.1461 -2.5068 0.9310
15.2850 6.5119 -2.3541 0.9351
14.7779 7.5903 -2.3539 0.9351
14.4956 8.1151 -2.3538 0.9351
13.3415 8.1107 -2.2123 0.9389
13.8755 9.1325 -2.3536 0.9351
11.6592 8.2879 -2.0268 0.9438
12.8126 10.5685 -2.3533 0.9351
11.1673 12.2893 -2.3528 0.9351
10.7188 12.6812 -2.3527 0.9351
10.2565 13.0566 -2.3525 0.9351
9.7869 13.4233 -2.3538 0.9351
9.3058 13.7754 -2.3555 0.9350
7.7869 14.7226 -2.3598 0.9349
7.2578 15.0002 -2.3611 0.9349
-8.5645 -11.3836 -2.3468 0.9439
-8.1512 -11.6841 -2.3469 0.9439
-7.7273 -11.9696 -2.3471 0.9439
-6.8503 -12.4941 -2.3473 0.9439
-6.3982 -12.7325 -2.3475 0.9439
-5.4697 -13.1599 -2.3478 0.9439
-4.9946 -13.3485 -2.3479 0.9439
-4.5129 -13.5199 -2.3481 0.9439
-3.5326 -13.8103 -2.3484 0.9438
-2.5340 -14.0298 -2.3487 0.9438
-1.0127 -14.2237 -2.3491 0.9438
0.0095 -14.2615 -2.3494 0.9438
1.0319 -14.2261 -2.3497 0.9438
1.5415 -14.1809 -2.3499 0.9438
2.5543 -14.0357 -2.3502 0.9438
3.0563 -13.9360 -2.3504 0.9438
4.0479 -13.6828 -2.3507 0.9438
5.0189 -13.3592 -2.3510 0.9438
5.4950 -13.1714 -2.3511 0.9438
6.4258 -12.7452 -2.3514 0.9438
6.8792 -12.5073 -2.3515 0.9438
7.3237 -12.2532 -2.3517 0.9438
10.4079 -11.0841 -2.5048 0.9402
10.7993 -10.7042 -2.5049 0.9402
11.1767 -10.3105 -2.5050 0.9402
11.8881 -9.4837 -2.5053 0.9402
12.2210 -9.0516 -2.5054 0.9402
12.5382 -8.6078 -2.5055 0.9402
13.3916 -7.2121 -2.5057 0.9402
14.2868 -5.2237 -2.5060 0.9402
14.9908 -2.5915 -2.5062 0.9402
15.0742 -2.0522 -2.5062 0.9402
15.1827 -0.9665 -2.5063 0.9402
15.2076 -0.4213 -2.5063 0.9402
15.2130 0.1243 -2.5063 0.9402
15.1987 0.6698 -2.5063 0.9402
15.1114 1.7575 -2.5062 0.9402
14.8347 3.3702 -2.5061 0.9402
14.3861 4.9438 -2.5060 0.9402
14.1993 5.4564 -2.5059 0.9402
13.9858 5.9584 -2.5044 0.9402
13.6303 6.3939 -2.4802 0.9408
12.7689 6.5584 -2.3648 0.9435
11.9311 7.8527 -2.3530 0.9437
11.6413 8.2753 -2.3530 0.9437
10.3367 9.8532 -2.3525 0.9438
9.6029 10.5677 -2.3523 0.9438
8.4110 11.5362 -2.3520 0.9438
7.9915 11.8297 -2.3518 0.9438
7.5617 12.1081 -2.3517 0.9438
7.1222 12.3708 -2.3516 0.9438
6.2164 12.8479 -2.3513 0.9438
-8.7340 -10.0238 -2.4990 0.9473
-7.9938 -10.6250 -2.4992 0.9473
-7.5968 -10.8895 -2.4956 0.9474
-6.6471 -11.1548 -2.4407 0.9485
-5.6255 -11.1948 -2.3549 0.9503
-5.2047 -11.3551 -2.3478 0.9504
-4.3778 -11.7002 -2.3481 0.9504
-3.9556 -11.8504 -2.3482 0.9504
-3.0964 -12.1048 -2.3485 0.9504
-2.6604 -12.2087 -2.3486 0.9504
-2.2210 -12.2970 -2.3488 0.9504
-0.4399 -12.4911 -2.3493 0.9504
0.0083 -12.4996 -2.3494 0.9504
0.4566 -12.4920 -2.3496 0.9504
0.9044 -12.4683 -2.3497 0.9504
1.3510 -12.4286 -2.3498 0.9504
3.1150 -12.1104 -2.3504 0.9504
3.5475 -11.9916 -2.3505 0.9504
5.8586 -11.6202 -2.4460 0.9484
6.8266 -11.4216 -2.5011 0.9473
8.4002 -10.3411 -2.5042 0.9472
9.4635 -9.3802 -2.5045 0.9472
9.7942 -9.0352 -2.5046 0.9472
10.7092 -7.9319 -2.5049 0.9472
10.9871 -7.5429 -2.5050 0.9472
11.2509 -7.1443 -2.5051 0.9472
11.5002 -6.7364 -2.5051 0.9472
11.9542 -5.8951 -2.5053 0.9472
12.5190 -4.5774 -2.5054 0.9472
12.6754 -4.1255 -2.5055 0.9472
12.9389 -3.2064 -2.5056 0.9472
13.0457 -2.7404 -2.5056 0.9472
13.1357 -2.2708 -2.5056 0.9472
13.2088 -1.7983 -2.5056 0.9472
13.2649 -1.3234 -2.5057 0.9472
13.3039 -0.8469 -2.5057 0.9472
13.3179 0.5869 -2.5057 0.9472
13.2415 1.5400 -2.5057 0.9472
13.1776 2.0139 -2.5056 0.9472
12.8846 3.4175 -2.5055 0.9472
12.6061 4.3321 -2.5055 0.9472
12.4423 4.7813 -2.5054 0.9472
12.2626 5.2243 -2.5053 0.9472
12.0671 5.6606 -2.5053 0.9472
11.6108 6.5001 -2.5011 0.9473
10.4836 6.9000 -2.3590 0.9502
10.2012 7.2515 -2.3525 0.9503
9.9342 7.6124 -2.3524 0.9503
9.6545 7.9635 -2.3523 0.9503
8.0773 9.5561 -2.3519 0.9503
7.7291 9.8392 -2.3518 0.9504
7.0033 10.3669 -2.3515 0.9504
6.2415 10.8412 -2.3513 0.9504
5.8484 11.0575 -2.3512 0.9504
5.0403 11.4470 -2.3509 0.9504
-7.7672 -8.9143 -2.4992 0.9528
-7.1089 -9.4489 -2.4995 0.9528
-6.7657 -9.6982 -2.4996 0.9528
-6.4138 -9.9350 -2.4997 0.9528
-6.0537 -10.1591 -2.4998 0.9528
-5.3104 -10.5678 -2.5000 0.9528
-4.1368 -11.0560 -2.4952 0.9529
-3.7347 -11.1884 -2.4933 0.9529
-2.8752 -11.2403 -2.4525 0.9537
-0.3983 -11.3090 -2.3920 0.9548
0.4140 -11.3271 -2.3959 0.9547
0.8222 -11.3354 -2.4024 0.9546
1.2331 -11.3435 -2.4119 0.9544
2.0684 -11.3653 -2.4418 0.9539
2.4953 -11.3779 -2.4622 0.9535
5.3314 -10.5745 -2.5033 0.9527
5.7075 -10.3770 -2.5034 0.9527
6.0762 -10.1661 -2.5035 0.9527
7.1339 -9.4559 -2.5038 0.9527
7.7939 -8.9209 -2.5040 0.9527
8.7079 -8.0331 -2.5043 0.9527
9.5213 -7.0521 -2.5045 0.9527
9.7684 -6.7063 -2.5046 0.9527
10.2245 -5.9891 -2.5047 0.9527
10.4330 -5.6187 -2.5048 0.9527
10.8094 -4.8567 -2.5049 0.9527
10.9768 -4.4660 -2.5050 0.9527
11.3936 -3.2614 -2.5051 0.9527
11.5983 -2.4364 -2.5052 0.9527
11.6783 -2.0189 -2.5052 0.9527
4.9087 -0.6683 -1.0472 0.9799
4.7524 -0.4742 -1.0095 0.9807
4.7376 -0.1312 -1.0018 0.9808
4.7650 0.0389 -1.0073 0.9807
4.9235 0.2170 -1.0417 0.9801
11.8139 0.9461 -2.5052 0.9527
11.7155 1.7904 -2.5052 0.9527
11.6437 2.2094 -2.5052 0.9527
11.3386 3.4471 -2.5051 0.9527
11.2075 3.8515 -2.5050 0.9527
11.0620 4.2508 -2.5050 0.9527
10.7284 5.0326 -2.5049 0.9527
10.3396 5.7884 -2.5048 0.9527
10.1250 6.1553 -2.5047 0.9527
9.6363 6.8500 -2.4991 0.9528
8.6340 7.1217 -2.3658 0.9553
8.0535 7.6768 -2.3519 0.9555
7.1816 8.4964 -2.3516 0.9555
6.8720 8.7481 -2.3515 0.9555
6.2267 9.2174 -2.3513 0.9555
5.8919 9.4344 -2.3512 0.9555
5.5495 9.6392 -2.3511 0.9555
4.8439 10.0113 -2.3509 0.9555
4.4815 10.1781 -2.3508 0.9556
-6.9865 -8.0183 -2.4995 0.9572
-6.0856 -8.7233 -2.4998 0.9572
-5.1141 -9.3275 -2.5001 0.9572
-4.7765 -9.5053 -2.5002 0.9572
-4.4327 -9.6709 -2.5003 0.9572
-3.7284 -9.9647 -2.5005 0.9572
-3.0048 -10.2072 -2.5007 0.9572
-2.6370 -10.3088 -2.5008 0.9572
-1.8914 -10.4723 -2.5010 0.9572
-1.5147 -10.5339 -2.5012 0.9572
-1.1360 -10.5819 -2.5013 0.9572
-0.7558 -10.6163 -2.5014 0.9572
-0.3746 -10.6371 -2.5015 0.9572
0.3888 -10.6376 -2.5017 0.9572
1.1504 -10.5833 -2.5020 0.9572
2.2808 -10.4000 -2.5023 0.9572
2.6524 -10.3120 -2.5024 0.9572
3.0207 -10.2107 -2.5025 0.9572
4.4504 -9.6755 -2.5030 0.9572
4.7948 -9.5101 -2.5031 0.9572
5.4645 -9.1427 -2.5033 0.9572
5.7891 -8.9412 -2.5034 0.9572
6.1063 -8.7281 -2.5035 0.9572
6.4156 -8.5039 -2.5036 0.9572
6.7167 -8.2686 -2.5037 0.9572
7.2927 -7.7664 -2.5039 0.9572
7.5667 -7.5001 -2.5039 0.9572
8.3293 -6.6447 -2.5042 0.9572
8.5625 -6.3419 -2.5042 0.9572
9.7207 -4.3675 -2.5046 0.9572
9.8712 -4.0162 -2.5046 0.9572
10.3446 -2.5636 -2.5048 0.9572
10.4300 -2.1910 -2.5048 0.9572
4.4846 -0.7753 -1.0696 0.9815
4.4317 -0.6034 -1.0512 0.9818
4.3904 -0.4380 -1.0370 0.9820
4.4075 0.0360 -1.0359 0.9821
4.5258 0.3624 -1.0671 0.9815
10.5865 1.2312 -2.5048 0.9572
10.5355 1.6101 -2.5048 0.9572
10.4709 1.9869 -2.5048 0.9572
10.3927 2.3611 -2.5048 0.9572
10.3013 2.7323 -2.5048 0.9572
10.1965 3.0999 -2.5047 0.9572
10.0787 3.4635 -2.5047 0.9572
9.9478 3.8227 -2.5046 0.9572
9.8041 4.1769 -2.5046 0.9572
9.4791 4.8687 -2.5045 0.9572
9.2982 5.2054 -2.5044 0.9572
8.6847 6.1735 -2.5043 0.9572
8.4575 6.4808 -2.5042 0.9572
8.2146 6.7759 -2.5027 0.9572
7.9527 7.0540 -2.4984 0.9573
7.5709 7.2168 -2.4582 0.9579
7.1003 7.2717 -2.3886 0.9591
6.4585 7.6410 -2.3514 0.9597
5.8938 8.0836 -2.3512 0.9597
4.9909 8.6689 -2.3509 0.9597
-6.3423 -7.2789 -2.4997 0.9609
-5.8046 -7.7153 -2.4998 0.9609
-5.5244 -7.9187 -2.4999 0.9609
-5.2370 -8.1121 -2.5000 0.9609
-4.9429 -8.2950 -2.5001 0.9609
-4.3359 -8.6286 -2.5003 0.9609
-4.0238 -8.7789 -2.5004 0.9609
-3.7066 -8.9179 -2.5005 0.9609
-3.3845 -9.0454 -2.5006 0.9609
-2.7276 -9.2655 -2.5008 0.9609
-2.0566 -9.4379 -2.5010 0.9609
-1.7169 -9.5060 -2.5011 0.9609
-1.3750 -9.5619 -2.5012 0.9609
-0.6861 -9.6366 -2.5014 0.9609
0.0064 -9.6618 -2.5016 0.9609
0.3529 -9.6558 -2.5017 0.9609
0.6990 -9.6374 -2.5018 0.9609
2.4076 -9.3600 -2.5024 0.9609
3.0725 -9.1641 -2.5026 0.9609
4.0395 -8.7821 -2.5029 0.9608
4.3520 -8.6320 -2.5030 0.9608
4.6590 -8.4706 -2.5030 0.9608
5.2545 -8.1155 -2.5032 0.9608
5.8231 -7.7185 -2.5034 0.9608
6.0964 -7.5049 -2.5035 0.9608
6.3618 -7.2817 -2.5036 0.9608
6.8678 -6.8074 -2.5037 0.9608
7.1078 -6.5569 -2.5038 0.9608
7.3385 -6.2980 -2.5039 0.9608
7.5599 -6.0309 -2.5039 0.9608
7.7715 -5.7560 -2.5040 0.9608
8.3453 -4.8884 -2.5042 0.9608
8.6746 -4.2778 -2.5043 0.9608
8.8226 -3.9640 -2.5043 0.9608
9.4664 -1.9885 -2.5045 0.9608
4.1474 -0.7170 -1.0898 0.9828
4.1100 -0.5596 -1.0740 0.9830
4.0748 -0.2594 -1.0572 0.9833
4.0968 0.0335 -1.0608 0.9832
4.1421 0.1825 -1.0735 0.9830
9.5620 1.4613 -2.5045 0.9608
9.2545 2.8135 -2.5044 0.9608
9.1475 3.1435 -2.5044 0.9608
9.0287 3.4695 -2.5044 0.9608
8.6034 4.4189 -2.5042 0.9608
8.4392 4.7245 -2.5042 0.9608
8.2642 5.0241 -2.5041 0.9608
7.8824 5.6032 -2.5040 0.9608
7.6762 5.8821 -2.5039 0.9608
7.4601 6.1535 -2.5039 0.9608
7.2345 6.4169 -2.5038 0.9608
6.9995 6.6721 -2.5037 0.9608
6.1990 7.3340 -2.4864 0.9611
5.7922 7.3734 -2.4277 0.9620
5.0827 7.5240 -2.3509 0.9632
4.5300 7.8684 -2.3508 0.9632
3.9541 8.1722 -2.3506 0.9632
3.6583 8.3085 -2.3505 0.9632
-5.8010 -6.6577 -2.4998 0.9640
-5.5587 -6.8617 -2.4999 0.9640
-5.3092 -7.0568 -2.5000 0.9640
-5.0529 -7.2429 -2.5001 0.9640
-4.7900 -7.4197 -2.5002 0.9640
-3.9658 -7.8921 -2.5004 0.9639
-3.6804 -8.0295 -2.5005 0.9639
-3.3902 -8.1566 -2.5006 0.9639
-3.0956 -8.2733 -2.5007 0.9639
-2.7970 -8.3792 -2.5008 0.9639
-2.4948 -8.4745 -2.5009 0.9639
-1.5703 -8.6944 -2.5011 0.9639
-0.3110 -8.8309 -2.5015 0.9639
0.3228 -8.8312 -2.5017 0.9639
1.5825 -8.6956 -2.5021 0.9639
2.2019 -8.5605 -2.5023 0.9639
2.5076 -8.4763 -2.5024 0.9639
3.1089 -8.2754 -2.5026 0.9639
3.6944 -8.0318 -2.5028 0.9639
4.5361 -7.5894 -2.5030 0.9639
5.8181 -6.6595 -2.5034 0.9639
6.0534 -6.4467 -2.5035 0.9639
6.5003 -5.9965 -2.5036 0.9639
6.9137 -5.5154 -2.5037 0.9639
7.2916 -5.0059 -2.5038 0.9639
7.4666 -4.7413 -2.5039 0.9639
7.7876 -4.1940 -2.5040 0.9639
8.1934 -3.3335 -2.5041 0.9639
8.3078 -3.0376 -2.5042 0.9639
8.5863 -2.1278 -2.5042 0.9639
4.0202 -0.8445 -1.1629 0.9831
3.9094 -0.3900 -1.1122 0.9838
3.8942 -0.2479 -1.1047 0.9839
3.9498 0.1741 -1.1193 0.9837
3.9735 0.3182 -1.1285 0.9836
4.0776 0.4742 -1.1621 0.9831
8.7446 1.3364 -2.5043 0.9639
8.6910 1.6491 -2.5043 0.9639
8.5503 2.2678 -2.5042 0.9639
8.3655 2.8748 -2.5042 0.9639
8.1377 3.4670 -2.5041 0.9639
7.5578 4.5946 -2.5039 0.9639
7.3880 4.8626 -2.5039 0.9639
7.0201 5.3794 -2.5037 0.9639
6.6162 5.8685 -2.5036 0.9639
6.4013 6.1018 -2.5036 0.9639
5.9471 6.5446 -2.5034 0.9639
5.7084 6.7535 -2.5033 0.9639
4.9382 7.3100 -2.4974 0.9640
3.9635 7.4936 -2.3998 0.9654
3.3458 7.5987 -2.3504 0.9661
-5.1165 -6.3158 -2.5001 0.9666
-4.6509 -6.6667 -2.5002 0.9666
-4.4089 -6.8294 -2.5003 0.9666
-4.1613 -6.9833 -2.5003 0.9666
-3.9083 -7.1283 -2.5004 0.9666
-3.3875 -7.3905 -2.5006 0.9665
-2.8492 -7.6149 -2.5008 0.9665
-1.4453 -8.0024 -2.5012 0.9665
-1.1575 -8.0494 -2.5013 0.9665
-0.2862 -8.1280 -2.5015 0.9665
0.2971 -8.1281 -2.5017 0.9665
0.5884 -8.1125 -2.5018 0.9665
0.8790 -8.0865 -2.5019 0.9665
1.7426 -7.9462 -2.5022 0.9665
2.5863 -7.7138 -2.5024 0.9665
3.1328 -7.5091 -2.5026 0.9665
3.4002 -7.3922 -2.5027 0.9665
3.6632 -7.2657 -2.5027 0.9665
4.4228 -6.8309 -2.5030 0.9665
4.6650 -6.6681 -2.5030 0.9665
4.9013 -6.4967 -2.5031 0.9665
5.3547 -6.1289 -2.5033 0.9665
5.7805 -5.7297 -2.5034 0.9665
5.9824 -5.5188 -2.5034 0.9665
6.1767 -5.3008 -2.5035 0.9665
6.3629 -5.0760 -2.5036 0.9665
7.0239 -4.1144 -2.5038 0.9665
7.8267 -2.2404 -2.5040 0.9665
3.7584 -0.3750 -1.1618 0.9843
3.7421 -0.2382 -1.1533 0.9844
3.7502 -0.1039 -1.1539 0.9844
3.7961 0.1673 -1.1687 0.9842
3.8144 0.3055 -1.1770 0.9841
3.8683 0.4499 -1.1978 0.9838
7.9985 1.5177 -2.5041 0.9665
7.8690 2.0871 -2.5040 0.9665
7.4893 3.1907 -2.5039 0.9665
7.3699 3.4572 -2.5039 0.9665
7.1029 3.9764 -2.5038 0.9665
6.9556 4.2285 -2.5037 0.9665
6.2790 5.1793 -2.5035 0.9665
5.4734 6.0233 -2.5033 0.9665
5.2537 6.2155 -2.5032 0.9665
5.0273 6.3997 -2.5031 0.9665
4.7944 6.5757 -2.5031 0.9665
3.8005 7.1855 -2.5002 0.9666
3.5375 7.3114 -2.4982 0.9666
3.2707 7.4281 -2.4964 0.9666
-3.8506 -6.4620 -2.5004 0.9688
-3.1346 -6.8388 -2.5007 0.9688
-2.3822 -7.1365 -2.5009 0.9688
-2.1248 -7.2176 -2.5010 0.9688
-1.6020 -7.3518 -2.5011 0.9688
-1.3374 -7.4048 -2.5012 0.9688
-1.0710 -7.4482 -2.5013 0.9688
0.0050 -7.5258 -2.5016 0.9688
0.2749 -7.5210 -2.5017 0.9688
0.8134 -7.4825 -2.5019 0.9688
1.0812 -7.4487 -2.5020 0.9688
2.3931 -7.1375 -2.5024 0.9688
2.8987 -6.9481 -2.5025 0.9688
3.1461 -6.8398 -2.5026 0.9688
3.6285 -6.5971 -2.5027 0.9688
3.8629 -6.4629 -2.5028 0.9688
4.3164 -6.1698 -2.5029 0.9688
4.5350 -6.0112 -2.5030 0.9688
4.7478 -5.8448 -2.5031 0.9688
4.9545 -5.6709 -2.5031 0.9688
5.3485 -5.3014 -2.5033 0.9688
5.7150 -4.9046 -2.5034 0.9688
6.4989 -3.8068 -2.5036 0.9688
6.6313 -3.5714 -2.5036 0.9688
6.9769 -2.8386 -2.5037 0.9687
7.1625 -2.3312 -2.5038 0.9687
7.2416 -2.0729 -2.5038 0.9687
3.6505 -0.7668 -1.2399 0.9844
3.6280 -0.6272 -1.2238 0.9846
3.6234 -0.4933 -1.2156 0.9847
3.6169 -0.3609 -1.2082 0.9848
3.6638 0.2934 -1.2218 0.9846
7.4462 1.1380 -2.5039 0.9687
7.4005 1.4043 -2.5039 0.9687
7.2807 1.9311 -2.5038 0.9687
7.1234 2.4480 -2.5038 0.9687
7.0310 2.7018 -2.5038 0.9687
6.9295 2.9522 -2.5037 0.9687
6.8190 3.1988 -2.5037 0.9687
6.6998 3.4412 -2.5036 0.9688
6.4357 3.9125 -2.5036 0.9688
6.1385 4.3636 -2.5035 0.9688
5.9779 4.5808 -2.5034 0.9688
5.8097 4.7921 -2.5034 0.9688
5.6340 4.9973 -2.5033 0.9688
4.6516 5.9215 -2.5030 0.9688
4.4361 6.0843 -2.5030 0.9688
3.9883 6.3863 -2.5028 0.9688
3.7566 6.5250 -2.5027 0.9688
-4.5930 -5.2712 -2.5002 0.9707
-4.2035 -5.5872 -2.5003 0.9707
-4.0005 -5.7345 -2.5004 0.9707
-3.5794 -6.0068 -2.5005 0.9707
-2.9138 -6.3570 -2.5007 0.9707
-1.7332 -6.7758 -2.5011 0.9707
-0.9955 -6.9234 -2.5013 0.9707
-0.7466 -6.9548 -2.5014 0.9707
-0.4967 -6.9773 -2.5015 0.9707
-0.2462 -6.9909 -2.5015 0.9707
0.2555 -6.9910 -2.5017 0.9707
0.5061 -6.9775 -2.5018 0.9707
1.2527 -6.8835 -2.5020 0.9707
1.4988 -6.8343 -2.5021 0.9707
1.9850 -6.7097 -2.5022 0.9707
2.2244 -6.6344 -2.5023 0.9707
2.4609 -6.5505 -2.5024 0.9707
2.6944 -6.4583 -2.5024 0.9707
3.1505 -6.2488 -2.5026 0.9707
3.3727 -6.1320 -2.5026 0.9707
3.8037 -5.8748 -2.5028 0.9707
4.0121 -5.7347 -2.5028 0.9707
4.2153 -5.5873 -2.5029 0.9707
4.4130 -5.4327 -2.5030 0.9707
4.6051 -5.2710 -2.5030 0.9707
4.7913 -5.1026 -2.5031 0.9707
4.9713 -4.9276 -2.5031 0.9707
5.1450 -4.7462 -2.5032 0.9707
5.3120 -4.5588 -2.5032 0.9707
5.7712 -3.9621 -2.5034 0.9707
6.0406 -3.5383 -2.5035 0.9707
6.4848 -2.6384 -2.5036 0.9707
6.7308 -1.9267 -2.5037 0.9707
3.5072 -0.7367 -1.2816 0.9849
3.4904 -0.6034 -1.2667 0.9851
3.4895 -0.4751 -1.2594 0.9852
3.4748 -0.2212 -1.2451 0.9853
3.4834 -0.0965 -1.2462 0.9853
3.5023 0.0286 -1.2525 0.9852
3.5580 0.4138 -1.2809 0.9849
3.6212 0.5534 -1.3100 0.9846
6.8785 1.3052 -2.5037 0.9707
6.8273 1.5511 -2.5037 0.9707
6.6984 2.0364 -2.5037 0.9707
6.6210 2.2753 -2.5036 0.9707
6.5351 2.5113 -2.5036 0.9707
6.4407 2.7440 -2.5036 0.9707
5.9819 3.6365 -2.5034 0.9707
5.7056 4.0558 -2.5033 0.9707
5.5564 4.2578 -2.5033 0.9707
5.4000 4.4542 -2.5033 0.9707
4.3236 5.5040 -2.5029 0.9707
3.2719 6.1862 -2.5026 0.9707
3.0479 6.2994 -2.5025 0.9707
-4.2862 -4.9192 -2.5003 0.9724
-4.1071 -5.0698 -2.5004 0.9724
-3.9227 -5.2139 -2.5004 0.9724
-3.7333 -5.3514 -2.5005 0.9724
-3.3403 -5.6055 -2.5006 0.9724
-3.1372 -5.7218 -2.5007 0.9724
-2.7191 -5.9323 -2.5008 0.9724
-2.0664 -6.1905 -2.5010 0.9724
-0.9290 -6.4607 -2.5013 0.9724
-0.4635 -6.5111 -2.5015 0.9724
-0.2298 -6.5237 -2.5015 0.9724
0.0043 -6.5279 -2.5016 0.9724
0.2385 -6.5238 -2.5017 0.9724
0.4723 -6.5112 -2.5018 0.9724
0.7055 -6.4903 -2.5018 0.9724
0.9378 -6.4610 -2.5019 0.9724
1.1690 -6.4234 -2.5020 0.9724
1.6265 -6.3234 -2.5021 0.9724
1.8523 -6.2612 -2.5022 0.9724
2.0757 -6.1909 -2.5023 0.9724
2.2964 -6.1126 -2.5023 0.9724
2.7288 -5.9326 -2.5025 0.9724
2.9399 -5.8311 -2.5025 0.9724
3.9334 -5.2137 -2.5028 0.9724
4.1180 -5.0694 -2.5029 0.9724
4.2972 -4.9186 -2.5029 0.9724
4.6389 -4.5981 -2.5030 0.9724
4.9568 -4.2539 -2.5031 0.9724
5.2491 -3.8878 -2.5032 0.9724
5.3853 -3.6971 -2.5033 0.9724
5.9588 -2.6773 -2.5034 0.9724
6.0511 -2.4619 -2.5035 0.9724
6.2121 -2.0219 -2.5035 0.9724
3.3900 -0.8401 -1.3384 0.9852
3.3704 -0.7080 -1.3198 0.9854
3.3610 -0.5810 -1.3071 0.9855
3.3524 -0.2134 -1.2873 0.9857
3.3605 -0.0931 -1.2883 0.9857
3.4222 0.3980 -1.3203 0.9853
6.4185 1.2179 -2.5036 0.9724
6.3706 1.4473 -2.5036 0.9724
6.3146 1.6748 -2.5035 0.9724
6.1782 2.1231 -2.5035 0.9724
6.0980 2.3433 -2.5035 0.9724
6.0100 2.5604 -2.5034 0.9724
5.9142 2.7743 -2.5034 0.9724
5.8108 2.9846 -2.5034 0.9724
5.7000 3.1910 -2.5033 0.9724
5.5818 3.3933 -2.5033 0.9724
4.8865 4.3343 -2.5031 0.9724
4.7278 4.5067 -2.5030 0.9724
3.0532 5.7726 -2.5025 0.9724
-3.8457 -4.7472 -2.5004 0.9739
-3.6731 -4.8821 -2.5005 0.9739
-3.3138 -5.1331 -2.5006 0.9739
-2.9375 -5.3577 -2.5007 0.9739
-2.5460 -5.5547 -2.5008 0.9739
-2.1414 -5.7232 -2.5010 0.9739
-1.7258 -5.8623 -2.5011 0.9739
-0.8699 -6.0495 -2.5014 0.9739
-0.4341 -6.0966 -2.5015 0.9739
0.0041 -6.1123 -2.5016 0.9739
0.4422 -6.0966 -2.5018 0.9739
0.8781 -6.0496 -2.5019 0.9739
1.0946 -6.0144 -2.5020 0.9739
1.3096 -5.9714 -2.5020 0.9739
1.7343 -5.8625 -2.5021 0.9739
1.9435 -5.7966 -2.5022 0.9739
2.1502 -5.7234 -2.5023 0.9739
2.5550 -5.5548 -2.5024 0.9739
2.7527 -5.4597 -2.5025 0.9739
3.1371 -5.2486 -2.5026 0.9739
3.6829 -4.8816 -2.5027 0.9739
3.8557 -4.7465 -2.5028 0.9739
4.0235 -4.6053 -2.5028 0.9739
4.4951 -4.1467 -2.5030 0.9739
4.6410 -3.9829 -2.5030 0.9739
4.9147 -3.6402 -2.5031 0.9739
5.0422 -3.4616 -2.5032 0.9739
5.2775 -3.0914 -2.5032 0.9739
5.6656 -2.3051 -2.5033 0.9739
5.7446 -2.1004 -2.5034 0.9739
5.8163 -1.8931 -2.5034 0.9739
3.2353 -0.5593 -1.3438 0.9859
3.2425 -0.4414 -1.3393 0.9860
3.2423 -0.3235 -1.3336 0.9860
3.2375 -0.2061 -1.3277 0.9861
3.2591 0.0266 -1.3339 0.9860
3.2678 0.1440 -1.3387 0.9860
3.2720 0.2620 -1.3434 0.9859
3.2783 0.3813 -1.3508 0.9858
3.3019 0.5046 -1.3671 0.9857
6.0095 1.1404 -2.5034 0.9739
5.8522 1.7791 -2.5034 0.9739
5.7846 1.9879 -2.5034 0.9739
5.7095 2.1940 -2.5033 0.9739
5.6271 2.3973 -2.5033 0.9739
5.1088 3.3625 -2.5032 0.9739
4.9849 3.5435 -2.5031 0.9739
4.8545 3.7199 -2.5031 0.9739
4.1127 4.5258 -2.5029 0.9739
3.6025 4.9411 -2.5027 0.9739
3.4230 5.0670 -2.5026 0.9739
3.2390 5.1864 -2.5026 0.9739
2.8587 5.4050 -2.5025 0.9739
2.4638 5.5957 -2.5024 0.9739
-3.7691 -4.3257 -2.5005 0.9753
-3.4495 -4.5849 -2.5006 0.9753
-2.3910 -5.2165 -2.5009 0.9753
-1.0201 -5.6480 -2.5013 0.9753
-0.2020 -5.7364 -2.5016 0.9753
0.0038 -5.7401 -2.5016 0.9753
0.6204 -5.7069 -2.5018 0.9753
0.8246 -5.6811 -2.5019 0.9753
1.0279 -5.6480 -2.5019 0.9753
1.4301 -5.5601 -2.5021 0.9753
1.8251 -5.4435 -2.5022 0.9753
2.3994 -5.2164 -2.5024 0.9753
2.5850 -5.1271 -2.5024 0.9753
2.7672 -5.0312 -2.5025 0.9753
3.1209 -4.8201 -2.5026 0.9753
3.2918 -4.7052 -2.5026 0.9753
4.0788 -4.0429 -2.5029 0.9753
4.2212 -3.8941 -2.5029 0.9753
4.3582 -3.7403 -2.5029 0.9753
5.1514 -2.5404 -2.5032 0.9752
5.2392 -2.3540 -2.5032 0.9752
5.3203 -2.1646 -2.5032 0.9752
3.0681 -0.7603 -1.3776 0.9863
3.0654 -0.6439 -1.3651 0.9864
3.0822 -0.4196 -1.3556 0.9865
3.0885 -0.1966 -1.3488 0.9866
3.0960 -0.0858 -1.3498 0.9866
3.1114 0.2492 -1.3604 0.9865
3.1371 0.4794 -1.3831 0.9862
5.5520 1.4726 -2.5033 0.9752
5.4320 1.8667 -2.5033 0.9752
5.2000 2.4393 -2.5032 0.9752
5.1091 2.6242 -2.5032 0.9752
4.9077 2.9836 -2.5031 0.9753
4.4304 3.6544 -2.5030 0.9753
4.2965 3.8109 -2.5029 0.9753
4.1569 3.9625 -2.5029 0.9753
3.8621 4.2501 -2.5028 0.9753
3.5474 4.5158 -2.5027 0.9753
2.8649 4.9762 -2.5025 0.9753
2.6846 5.0757 -2.5024 0.9753
-3.4005 -4.1976 -2.5006 0.9765
-3.2478 -4.3169 -2.5006 0.9765
-2.9302 -4.5388 -2.5007 0.9765
-2.5974 -4.7374 -2.5008 0.9765
-2.4259 -4.8276 -2.5009 0.9765
-2.2512 -4.9116 -2.5009 0.9765
-1.8935 -5.0605 -2.5010 0.9765
-1.5259 -5.1835 -2.5012 0.9765
-1.3391 -5.2350 -2.5012 0.9765
-1.1505 -5.2797 -2.5013 0.9765
-0.9605 -5.3177 -2.5013 0.9765
-0.7691 -5.3489 -2.5014 0.9765
-0.5768 -5.3732 -2.5014 0.9765
-0.3838 -5.3905 -2.5015 0.9765
0.0036 -5.4044 -2.5016 0.9765
0.3910 -5.3905 -2.5017 0.9765
0.5841 -5.3731 -2.5018 0.9765
0.7764 -5.3488 -2.5019 0.9765
1.3465 -5.2349 -2.5020 0.9765
1.5334 -5.1834 -2.5021 0.9765
2.2590 -4.9113 -2.5023 0.9765
2.4337 -4.8272 -2.5024 0.9765
2.7736 -4.6405 -2.5025 0.9765
2.9383 -4.5382 -2.5025 0.9765
3.2562 -4.3160 -2.5026 0.9765
3.4089 -4.1966 -2.5027 0.9765
4.1032 -3.5214 -2.5029 0.9764
4.2269 -3.3720 -2.5029 0.9764
4.5648 -2.8987 -2.5030 0.9764
4.6659 -2.7331 -2.5030 0.9764
4.8499 -2.3917 -2.5031 0.9764
5.0090 -2.0379 -2.5031 0.9764
2.9183 -0.6130 -1.3803 0.9869
2.9281 -0.5062 -1.3755 0.9870
2.9535 0.0241 -1.3672 0.9871
2.9597 0.1304 -1.3713 0.9870
2.9640 0.3447 -1.3812 0.9869
2.9751 0.4547 -1.3931 0.9868
3.0221 0.5735 -1.4239 0.9865
5.2735 1.1980 -2.5032 0.9764
5.1740 1.5730 -2.5032 0.9764
5.0478 1.9397 -2.5031 0.9764
4.9750 2.1195 -2.5031 0.9764
4.8102 2.4706 -2.5031 0.9764
4.7184 2.6415 -2.5030 0.9764
4.4072 3.1329 -2.5029 0.9764
4.2920 3.2889 -2.5029 0.9764
4.0451 3.5879 -2.5028 0.9764
3.9137 3.7306 -2.5028 0.9764
3.4902 4.1292 -2.5027 0.9765
3.0264 4.4799 -2.5025 0.9765
2.6974 4.6852 -2.5024 0.9765
2.5275 4.7788 -2.5024 0.9765
-3.3489 -3.8435 -2.5006 0.9775
-2.9169 -4.1812 -2.5007 0.9775
-2.7651 -4.2832 -2.5008 0.9775
-2.4511 -4.4705 -2.5009 0.9775
-2.2892 -4.5556 -2.5009 0.9775
-2.1244 -4.6349 -2.5010 0.9775
-1.9569 -4.7082 -2.5010 0.9775
-1.0857 -4.9823 -2.5013 0.9775
-0.7258 -5.0475 -2.5014 0.9775
-0.5443 -5.0704 -2.5015 0.9775
0.0034 -5.0999 -2.5016 0.9775
0.1863 -5.0966 -2.5017 0.9775
0.3690 -5.0868 -2.5017 0.9775
0.9132 -5.0180 -2.5019 0.9775
1.0926 -4.9822 -2.5020 0.9775
1.4470 -4.8912 -2.5021 0.9775
1.6215 -4.8363 -2.5021 0.9775
2.2966 -4.5551 -2.5023 0.9775
2.9245 -4.1803 -2.5025 0.9775
3.0726 -4.0728 -2.5026 0.9775
3.2168 -3.9600 -2.5026 0.9775
3.3568 -3.8422 -2.5026 0.9775
3.4925 -3.7194 -2.5027 0.9775
3.7502 -3.4596 -2.5028 0.9775
4.1003 -3.0369 -2.5029 0.9775
4.3075 -2.7353 -2.5029 0.9775
4.4029 -2.5790 -2.5030 0.9775
4.4926 -2.4195 -2.5030 0.9775
4.7266 -1.9230 -2.5031 0.9775
2.7748 -0.7943 -1.4158 0.9872
2.7736 -0.6873 -1.4017 0.9873
2.7815 -0.5843 -1.3942 0.9874
2.7895 -0.4822 -1.3886 0.9875
2.7944 -0.3804 -1.3834 0.9875
2.7988 -0.2792 -1.3797 0.9875
2.8154 0.0230 -1.3811 0.9875
2.8237 0.3284 -1.3944 0.9874
2.8313 0.4327 -1.4049 0.9873
4.9762 1.1305 -2.5031 0.9775
4.9324 1.3082 -2.5031 0.9775
4.8259 1.6584 -2.5031 0.9775
4.7632 1.8304 -2.5031 0.9775
4.6945 2.0000 -2.5030 0.9775
4.6197 2.1671 -2.5030 0.9775
4.5390 2.3313 -2.5030 0.9775
4.3601 2.6506 -2.5029 0.9775
4.1588 2.9563 -2.5029 0.9775
3.8171 3.3857 -2.5028 0.9775
3.6931 3.5204 -2.5027 0.9775
3.0056 4.1224 -2.5025 0.9775
2.8558 4.2274 -2.5025 0.9775
2.7023 4.3271 -2.5024 0.9775
2.2218 4.5920 -2.5023 0.9775
-3.1666 -3.6342 -2.5006 0.9785
-3.0343 -3.7455 -2.5007 0.9785
-2.6146 -4.0499 -2.5008 0.9785
-2.4677 -4.1412 -2.5009 0.9785
-2.1646 -4.3076 -2.5010 0.9785
-2.0087 -4.3825 -2.5010 0.9785
-1.6895 -4.5154 -2.5011 0.9785
-1.3616 -4.6251 -2.5012 0.9785
-1.1948 -4.6710 -2.5013 0.9785
-0.8570 -4.7448 -2.5014 0.9785
-0.5147 -4.7943 -2.5015 0.9785
-0.3424 -4.8097 -2.5015 0.9785
-0.1697 -4.8190 -2.5016 0.9785
0.0032 -4.8221 -2.5016 0.9785
0.5211 -4.7942 -2.5018 0.9785
0.6928 -4.7725 -2.5018 0.9785
0.8635 -4.7447 -2.5019 0.9785
1.2014 -4.6708 -2.5020 0.9785
1.6962 -4.5150 -2.5021 0.9785
2.0156 -4.3820 -2.5022 0.9785
2.6216 -4.0490 -2.5024 0.9785
2.7652 -3.9525 -2.5025 0.9785
2.9052 -3.8508 -2.5025 0.9785
3.0415 -3.7442 -2.5025 0.9785
3.1739 -3.6328 -2.5026 0.9785
3.3022 -3.5167 -2.5026 0.9785
3.5458 -3.2711 -2.5027 0.9785
3.6609 -3.1418 -2.5027 0.9785
3.7713 -3.0086 -2.5028 0.9785
3.9773 -2.7306 -2.5028 0.9785
4.0728 -2.5862 -2.5029 0.9785
4.1630 -2.4385 -2.5029 0.9785
4.4009 -1.9773 -2.5030 0.9785
2.7925 -0.9089 -1.5235 0.9869
2.7454 -0.7859 -1.4815 0.9872
2.6919 -0.5655 -1.4270 0.9877
2.6791 -0.4631 -1.4105 0.9878
2.6665 -0.3630 -1.3961 0.9879
2.6689 -0.1699 -1.3874 0.9880
2.6777 -0.0742 -1.3897 0.9880
2.7069 0.2168 -1.4088 0.9878
2.7248 0.3169 -1.4231 0.9877
2.8045 0.5322 -1.4809 0.9872
4.6636 1.2369 -2.5030 0.9785
4.6162 1.4034 -2.5030 0.9785
4.4387 1.8910 -2.5030 0.9785
4.3680 2.0490 -2.5029 0.9785
4.2098 2.3568 -2.5029 0.9785
4.0299 2.6524 -2.5028 0.9785
3.9322 2.7952 -2.5028 0.9785
3.7216 3.0698 -2.5027 0.9785
3.4919 3.3285 -2.5027 0.9785
3.3702 3.4516 -2.5026 0.9785
3.2442 3.5702 -2.5026 0.9785
2.7002 3.9971 -2.5024 0.9785
2.5551 4.0913 -2.5024 0.9785
2.4067 4.1802 -2.5023 0.9785
2.2552 4.2638 -2.5023 0.9785
1.9437 4.4143 -2.5022 0.9785
-2.7450 -3.6486 -2.5008 0.9794
-2.4765 -3.8361 -2.5009 0.9794
-2.3374 -3.9225 -2.5009 0.9794
-2.0503 -4.0802 -2.5010 0.9794
-1.9027 -4.1511 -2.5010 0.9794
-1.2897 -4.3809 -2.5012 0.9794
-0.9724 -4.4622 -2.5013 0.9794
-0.8117 -4.4943 -2.5014 0.9794
-0.3243 -4.5558 -2.5015 0.9794
0.1668 -4.5645 -2.5017 0.9794
0.3304 -4.5557 -2.5017 0.9794
0.4936 -4.5410 -2.5018 0.9794
1.2959 -4.3805 -2.5020 0.9794
1.9091 -4.1505 -2.5022 0.9794
2.0568 -4.0795 -2.5022 0.9794
2.4831 -3.8351 -2.5024 0.9794
2.7517 -3.6474 -2.5025 0.9794
3.0062 -3.4409 -2.5025 0.9794
3.3585 -3.0982 -2.5026 0.9794
3.6720 -2.7197 -2.5027 0.9794
3.7672 -2.5863 -2.5028 0.9794
4.0233 -2.1668 -2.5028 0.9794
4.0985 -2.0211 -2.5029 0.9794
4.2920 -1.5693 -2.5029 0.9794
2.7426 -0.7851 -1.5625 0.9871
2.7053 -0.6704 -1.5265 0.9874
2.6856 -0.5642 -1.5030 0.9876
2.6614 -0.3623 -1.4711 0.9878
2.6525 -0.2646 -1.4600 0.9879
2.7007 0.2163 -1.4839 0.9877
2.8690 0.6518 -1.6114 0.9867
4.4172 1.1716 -2.5030 0.9794
4.3723 1.3292 -2.5029 0.9794
4.3218 1.4852 -2.5029 0.9794
4.2041 1.7911 -2.5029 0.9794
4.1372 1.9407 -2.5029 0.9794
4.0649 2.0878 -2.5028 0.9794
3.9047 2.3738 -2.5028 0.9794
3.7244 2.6475 -2.5027 0.9794
3.6270 2.7793 -2.5027 0.9794
3.5250 2.9076 -2.5027 0.9794
3.4184 3.0321 -2.5026 0.9794
3.3074 3.1527 -2.5026 0.9794
3.0728 3.3815 -2.5025 0.9794
2.9495 3.4895 -2.5025 0.9794
2.8224 3.5930 -2.5025 0.9794
2.6917 3.6919 -2.5024 0.9794
2.5576 3.7859 -2.5024 0.9794
2.4201 3.8752 -2.5023 0.9794
2.2795 3.9594 -2.5023 0.9794
2.1360 4.0385 -2.5023 0.9794
1.9898 4.1125 -2.5022 0.9794
-2.8455 -3.2657 -2.5007 0.9802
-2.7265 -3.3657 -2.5008 0.9802
-2.4784 -3.5525 -2.5009 0.9802
-2.3494 -3.6392 -2.5009 0.9802
-1.8050 -3.9380 -2.5011 0.9802
-1.6626 -4.0003 -2.5011 0.9802
-1.5181 -4.0574 -2.5012 0.9802
-1.3717 -4.1093 -2.5012 0.9802
-1.2235 -4.1559 -2.5012 0.9802
-0.9224 -4.2331 -2.5013 0.9802
-0.6167 -4.2885 -2.5014 0.9802
-0.3077 -4.3218 -2.5015 0.9802
0.0029 -4.3329 -2.5016 0.9802
0.1583 -4.3301 -2.5017 0.9802
0.3135 -4.3217 -2.5017 0.9802
0.4683 -4.3078 -2.5018 0.9802
1.0795 -4.1969 -2.5019 0.9802
1.3776 -4.1089 -2.5020 0.9802
1.8111 -3.9373 -2.5022 0.9802
2.0887 -3.7975 -2.5023 0.9802
2.2236 -3.7203 -2.5023 0.9802
2.6104 -3.4601 -2.5024 0.9802
2.7329 -3.3643 -2.5024 0.9802
2.8518 -3.2641 -2.5025 0.9802
2.9670 -3.1598 -2.5025 0.9802
3.1860 -2.9391 -2.5026 0.9802
3.2894 -2.8230 -2.5026 0.9802
3.3886 -2.7032 -2.5026 0.9802
3.5737 -2.4534 -2.5027 0.9802
3.9542 -1.7767 -2.5028 0.9802
2.6820 -0.5634 -1.5822 0.9874
2.6665 -0.4610 -1.5624 0.9876
2.6556 -0.3615 -1.5473 0.9877
2.6513 -0.2645 -1.5383 0.9878
2.6388 -0.1680 -1.5266 0.9879
2.6516 -0.0735 -1.5315 0.9878
2.7185 0.3162 -1.5801 0.9874
2.8052 0.5323 -1.6485 0.9869
4.1902 1.1114 -2.5029 0.9802
4.1477 1.2610 -2.5029 0.9802
4.0466 1.5550 -2.5028 0.9802
3.9246 1.8410 -2.5028 0.9802
3.7825 2.1176 -2.5028 0.9802
3.7041 2.2518 -2.5027 0.9802
3.6209 2.3832 -2.5027 0.9802
3.5331 2.5115 -2.5027 0.9802
3.4407 2.6366 -2.5027 0.9802
3.1375 2.9907 -2.5026 0.9802
3.0282 3.1013 -2.5025 0.9802
2.7980 3.3103 -2.5025 0.9802
2.1624 3.7560 -2.5023 0.9802
1.8876 3.9012 -2.5022 0.9802
