ply
format ascii 1.0
element vertex 1260
property float32 x
property float32 y
property float32 z
property float32 I
end_header
0.6591 9.7417 1.7217 0.9611
-18.8129 37.2249 7.3544 0.8442
-18.8898 34.2799 6.9014 0.8530
-19.1816 32.0473 6.5857 0.8592
-20.2497 23.1886 5.4284 0.8825
-21.5825 23.0032 5.5619 0.8797
-25.4164 23.4817 6.1015 0.8689
-26.8923 23.1218 6.2536 0.8658
-29.3963 23.5031 6.6364 0.8582
-31.5669 23.4418 6.9329 0.8524
-34.3792 23.6745 7.3603 0.8440
-36.8201 23.4632 7.6985 0.8375
-40.6180 23.8890 8.3089 0.8258
-17.0945 8.4748 3.3643 0.9254
0.6580 9.7262 1.4934 0.9613
-18.7278 44.7258 7.4282 0.8218
-18.8602 40.8812 6.8971 0.8334
-18.9466 31.6547 5.6516 0.8613
-19.4128 27.7314 5.1858 0.8720
-19.4788 25.8131 4.9540 0.8773
-19.5393 24.0568 4.7478 0.8821
-21.8066 23.2421 4.8824 0.8790
-23.4796 23.2997 5.0674 0.8747
-26.8900 23.1198 5.4327 0.8663
-29.2002 23.3463 5.7273 0.8596
-31.5671 23.4420 6.0235 0.8529
-40.9670 24.0942 7.2809 0.8250
-17.1033 9.2539 2.9791 0.9243
-17.1610 7.7575 2.8851 0.9266
-32.4102 -9.6521 5.1806 0.8721
0.6570 9.7107 1.2674 0.9615
0.3104 9.7401 1.2690 0.9615
-18.8602 40.8813 5.8628 0.8339
-19.3404 29.8413 4.6307 0.8664
-19.4130 27.7318 4.4082 0.8724
-19.4790 25.8134 4.2111 0.8777
-20.2497 23.1886 4.0089 0.8832
-25.2867 23.3618 4.4831 0.8703
-29.3964 23.5032 4.9011 0.8591
-31.5674 23.4422 5.1202 0.8533
-36.6470 23.3529 5.6588 0.8392
-41.0122 24.1209 6.1959 0.8254
-17.0993 9.2517 2.5317 0.9246
-17.0925 8.4739 2.4840 0.9259
-17.1217 7.7397 2.4468 0.9270
0.6560 9.6954 1.0435 0.9617
-7.0427 31.7856 3.4959 0.8772
-18.7285 44.7272 5.2069 0.8228
-18.8608 40.8825 4.8347 0.8343
-18.8129 37.2250 4.4788 0.8455
-18.9994 34.4787 4.2273 0.8535
-23.5969 23.4161 3.5697 0.8748
-29.3963 23.5031 4.0415 0.8595
-31.5677 23.4424 4.2223 0.8537
-34.3792 23.6745 4.4824 0.8454
-36.9253 23.5303 4.7017 0.8385
-40.6180 23.8890 5.0601 0.8273
-37.1418 7.9302 4.0782 0.8583
-32.4392 -9.6607 3.6346 0.8727
-32.5180 -12.2712 3.7322 0.8695
15.5910 20.9950 2.2137 0.9003
0.6549 9.6803 0.8213 0.9618
0.3095 9.7133 0.8227 0.9617
-3.5468 16.0077 1.3880 0.9363
-4.2979 14.4319 1.2747 0.9413
-18.7263 44.7222 4.1044 0.8231
-18.8442 40.8467 3.8080 0.8348
-18.9808 34.4451 3.3293 0.8540
-19.4135 27.7324 2.8657 0.8729
-19.4795 25.8140 2.7376 0.8783
-19.5280 24.0429 2.6221 0.8831
-27.0056 23.2192 3.0149 0.8668
-31.5439 23.4247 3.3260 0.8541
-34.3792 23.6745 3.5336 0.8457
-36.9751 23.5620 3.7115 0.8386
-40.8209 24.0084 4.0090 0.8269
-17.0907 8.4729 1.6147 0.9263
-32.5249 -12.2738 2.9428 0.8697
15.6000 21.0070 1.6226 0.9004
0.6539 9.6652 0.6007 0.9619
-18.7124 44.6888 3.0043 0.8235
-18.8129 37.2250 2.5864 0.8461
-19.1942 32.0685 2.3176 0.8609
-19.1986 29.6224 2.1889 0.8681
-19.1323 27.3307 2.0688 0.8748
-13.3345 16.4175 1.3115 0.9187
-12.8137 14.6734 1.2080 0.9249
-21.6126 23.0352 1.9587 0.8811
-23.2454 23.0673 2.0307 0.8770
-29.3963 23.5031 2.3339 0.8600
-31.5441 23.4249 2.4364 0.8543
-36.9751 23.5620 2.7188 0.8389
-43.7463 10.9866 2.7970 0.8346
21.9590 23.7683 1.2760 0.8785
15.5998 21.0069 1.0318 0.9006
0.3087 9.6868 0.3822 0.9619
-18.6290 44.4898 1.9019 0.8244
-18.6699 36.9420 1.6321 0.8473
-19.1633 32.0167 1.4713 0.8613
-19.3414 29.8427 1.4023 0.8673
-19.4139 27.7331 1.3349 0.8733
-21.8066 23.2421 1.2567 0.8802
-23.4795 23.2997 1.3043 0.8760
-25.2857 23.3610 1.3574 0.8713
-27.2472 23.4270 1.4169 0.8660
-31.7374 23.5684 1.5588 0.8536
-34.1134 23.4914 1.6332 0.8472
-37.1295 23.6604 1.7360 0.8384
-40.3827 23.7507 1.8473 0.8290
-32.4921 -10.9534 1.3524 0.8717
11.6506 6.9733 0.2294 0.9471
10.9344 7.0866 0.2201 0.9492
11.7698 8.2392 0.2427 0.9441
11.0912 8.3695 0.2347 0.9459
21.9732 23.7836 0.5470 0.8785
20.0053 23.2675 0.5183 0.8845
19.4225 24.2926 0.5254 0.8830
15.5997 21.0066 0.4421 0.9006
0.6519 9.6354 0.1631 0.9621
-19.1428 37.8778 0.7169 0.8438
-19.2657 34.9621 0.6743 0.8524
-19.4532 30.0153 0.6042 0.8667
-19.8102 24.3904 0.5308 0.8819
-25.5679 23.6216 0.5880 0.8700
-27.5145 23.6568 0.6129 0.8649
-29.3175 23.4401 0.6341 0.8606
-32.0414 23.7941 0.6742 0.8524
-34.3139 23.6295 0.7038 0.8465
-37.4392 23.8577 0.7499 0.8373
-46.3589 9.8982 0.8007 0.8273
12.6280 8.1843 -0.0847 0.9416
11.1501 8.4140 -0.0786 0.9457
22.5239 24.3797 -0.1869 0.8757
20.9023 24.3108 -0.1805 0.8796
20.2831 25.3689 -0.1829 0.8782
0.6509 9.6205 -0.0543 0.9622
0.3078 9.6606 -0.0544 0.9621
-6.9885 31.5413 -0.1819 0.8788
-18.7672 44.8198 -0.2736 0.8234
-18.9065 40.9815 -0.2541 0.8348
-19.4016 32.4149 -0.2127 0.8598
-19.4532 30.0153 -0.2014 0.8667
-19.5393 27.9122 -0.1918 0.8726
-19.6057 25.9812 -0.1833 0.8779
-19.8585 24.4498 -0.1773 0.8816
-20.5479 23.5300 -0.1759 0.8825
-25.5678 23.6216 -0.1960 0.8700
-29.3178 23.4403 -0.2113 0.8606
-32.4699 -10.9459 -0.1929 0.8719
-28.3882 -11.8869 -0.1733 0.8842
-28.5444 -14.4259 -0.1801 0.8799
13.4373 8.0427 -0.4410 0.9393
22.5239 24.3797 -0.9346 0.8756
15.5994 21.0063 -0.7367 0.9006
0.6499 9.6057 -0.2711 0.9622
0.3074 9.6475 -0.2718 0.9621
-18.4882 44.1535 -1.3479 0.8257
-19.1645 37.9206 -1.1964 0.8436
-19.2662 34.9630 -1.1241 0.8524
-19.3856 32.3882 -1.0629 0.8598
-19.4532 30.0153 -1.0071 0.8666
-19.5395 27.9125 -0.9594 0.8725
-19.6059 25.9816 -0.9165 0.8779
-21.9337 23.3775 -0.9026 0.8796
-25.5342 23.5905 -0.9789 0.8701
-38.0570 24.2514 -1.2707 0.8348
-40.9792 24.1015 -1.3387 0.8268
-43.6007 10.9500 -1.2658 0.8354
-32.4633 -10.9437 -0.9646 0.8719
-28.4412 -11.9091 -0.8682 0.8839
-27.8866 -14.0934 -0.8798 0.8825
-25.7590 -14.1944 -0.8282 0.8890
13.4372 8.0427 -0.7942 0.9392
11.1175 7.7826 -0.6882 0.9471
11.1499 8.4138 -0.7084 0.9456
27.6281 22.4399 -1.8051 0.8671
25.6966 22.4398 -1.7301 0.8723
16.4830 19.1709 -1.2822 0.9037
16.5801 20.7374 -1.3465 0.8991
15.5993 21.0061 -1.3269 0.9005
21.7592 36.9967 -2.1767 0.8421
15.2329 37.1793 -2.0377 0.8514
13.7404 37.2767 -2.0148 0.8529
12.2648 37.3282 -1.9926 0.8544
8.8801 30.6787 -1.6197 0.8799
8.0018 37.4771 -1.9435 0.8577
5.2561 37.5824 -1.9245 0.8590
0.6489 9.5909 -0.4875 0.9622
0.3070 9.6345 -0.4889 0.9621
-1.2279 31.0343 -1.5751 0.8830
-4.2226 37.9038 -1.9342 0.8583
-7.0072 38.0011 -1.9597 0.8566
-6.9672 31.4448 -1.6334 0.8790
-9.8811 38.1014 -1.9962 0.8541
-17.3797 46.0549 -2.4964 0.8211
-17.8400 42.6053 -2.3425 0.8311
-18.8628 40.8869 -2.2836 0.8350
-18.9775 37.5506 -2.1337 0.8449
-19.1768 32.0394 -1.8937 0.8611
-19.2568 29.7123 -1.7956 0.8678
-19.3290 27.6118 -1.7093 0.8737
-19.3947 25.7016 -1.6329 0.8790
-20.1686 23.0958 -1.5550 0.8844
-21.7194 23.1491 -1.6098 0.8806
-27.2499 23.4293 -1.8225 0.8659
-34.3148 23.6301 -2.1130 0.8463
-42.4610 19.1942 -2.3632 0.8298
-44.2432 12.8064 -2.3359 0.8315
-36.9427 9.2779 -1.9317 0.8585
-45.0395 9.6165 -2.3356 0.8316
-48.5620 6.7916 -2.4868 0.8217
-48.7723 5.0539 -2.4867 0.8217
-48.9208 3.3098 -2.4866 0.8217
-49.0073 1.5616 -2.4866 0.8217
-49.0317 -0.1886 -2.4866 0.8217
-48.7326 -5.4290 -2.4867 0.8217
-48.5092 -7.1651 -2.4868 0.8217
-47.8783 -10.6083 -2.4870 0.8217
-47.0046 -13.9984 -2.4873 0.8217
-45.8926 -17.3184 -2.4876 0.8216
-28.4414 -11.9092 -1.5637 0.8838
-25.0987 -11.5791 -1.4018 0.8952
13.4371 8.0426 -1.1482 0.9391
11.1498 8.4137 -1.0242 0.9455
16.1292 13.1003 -1.5236 0.9200
16.1093 14.0676 -1.5682 0.9178
16.1054 15.1107 -1.6193 0.9152
15.0528 15.1690 -1.5669 0.9179
16.3373 20.4338 -1.9183 0.9004
16.9472 28.8149 -2.4511 0.8745
14.8951 30.0447 -2.4588 0.8742
13.3554 29.5444 -2.3773 0.8781
9.3621 32.3440 -2.4689 0.8737
4.6713 33.4009 -2.4729 0.8735
0.6479 9.5762 -0.7038 0.9622
0.3066 9.6215 -0.7058 0.9621
-0.1297 33.7191 -2.4724 0.8735
-1.3327 33.6813 -2.4715 0.8735
-3.7282 33.4660 -2.4690 0.8737
-4.9171 33.2894 -2.4673 0.8737
-6.7604 30.5117 -2.2914 0.8822
-7.9121 30.5092 -2.3110 0.8813
-10.6949 31.7253 -2.4548 0.8743
-12.8949 30.7956 -2.4480 0.8747
-16.0346 29.0986 -2.4361 0.8752
-17.0318 28.4556 -2.4316 0.8755
-18.0022 27.7764 -2.4270 0.8757
-18.9446 27.0627 -2.4222 0.8759
-19.3949 25.7019 -2.3609 0.8789
-21.7194 23.1491 -2.3275 0.8805
-23.1889 23.0113 -2.3953 0.8772
-25.9646 19.2815 -2.3713 0.8783
-26.5653 18.2936 -2.3650 0.8787
-27.6510 16.2626 -2.3521 0.8793
-17.0777 8.4665 -1.3976 0.9264
-29.9475 11.0388 -2.3402 0.8798
-30.3209 9.9624 -2.3401 0.8798
-32.8809 8.2578 -2.4858 0.8729
-33.2303 7.0951 -2.4914 0.8726
-33.4615 5.9043 -2.4914 0.8726
-33.6502 4.7062 -2.4913 0.8726
-33.8991 2.2935 -2.4912 0.8726
-33.9592 1.0821 -2.4912 0.8726
-33.9500 -1.3433 -2.4912 0.8726
-33.8807 -2.5542 -2.4913 0.8726
-33.7684 -3.7619 -2.4913 0.8726
-33.6133 -4.9649 -2.4913 0.8726
-33.4156 -6.1616 -2.4914 0.8726
-33.1753 -7.3506 -2.4915 0.8726
-32.5689 -9.6993 -2.4917 0.8726
-29.8625 -11.2692 -2.3403 0.8798
-29.4429 -12.3285 -2.3404 0.8798
-27.0157 -13.6533 -2.2194 0.8857
-24.9162 -13.7300 -2.0859 0.8922
12.6279 8.1843 -1.4447 0.9413
11.1497 8.4136 -1.3410 0.9454
16.0137 13.0065 -1.9806 0.9204
15.7760 13.7765 -2.0108 0.9193
16.1917 15.1917 -2.1316 0.9146
15.5908 16.8754 -2.2057 0.9118
14.7890 17.2006 -2.1778 0.9129
15.5872 19.4955 -2.3963 0.9046
14.8999 20.0643 -2.3993 0.9045
14.1878 20.6030 -2.4016 0.9044
10.3491 22.8941 -2.4121 0.9040
9.5311 23.2627 -2.4135 0.9039
8.6995 23.6010 -2.4148 0.9039
7.8558 23.9095 -2.4162 0.9038
7.0011 24.1874 -2.4174 0.9038
6.1360 24.4323 -2.4185 0.9037
2.5985 25.0764 -2.4203 0.9037
0.6469 9.5614 -0.9200 0.9622
-0.0969 25.2052 -2.4198 0.9037
-0.9963 25.1792 -2.4192 0.9037
-2.7879 25.0248 -2.4174 0.9038
-3.6775 24.8972 -2.4162 0.9038
-4.5611 24.7358 -2.4148 0.9039
-5.4375 24.5410 -2.4132 0.9039
-6.3052 24.3128 -2.4114 0.9040
-8.8435 23.4348 -2.4047 0.9042
-9.6641 23.0797 -2.4022 0.9043
-11.2590 22.2781 -2.3964 0.9046
-12.7858 21.3616 -2.3901 0.9048
-13.5209 20.8620 -2.3867 0.9049
-14.2356 20.3358 -2.3832 0.9051
-14.9292 19.7840 -2.3795 0.9052
-15.6006 19.2075 -2.3756 0.9053
-16.2490 18.6073 -2.3717 0.9055
-18.0478 16.6740 -2.3590 0.9060
-18.5963 15.9890 -2.3545 0.9061
-19.1182 15.2855 -2.3500 0.9063
-19.6128 14.5646 -2.3453 0.9065
-20.1022 13.8429 -2.3432 0.9066
-16.9717 8.4139 -1.8186 0.9267
-22.8930 8.4385 -2.3424 0.9066
-24.6195 8.0891 -2.4879 0.9011
-24.9532 7.2228 -2.4940 0.9009
-25.8364 2.6772 -2.4937 0.9009
-25.9153 1.7533 -2.4937 0.9009
-25.9742 -0.0999 -2.4937 0.9009
-25.8152 -2.8759 -2.4937 0.9009
-25.6966 -3.7955 -2.4938 0.9009
-25.1453 -6.5211 -2.4939 0.9009
-24.8973 -7.4146 -2.4940 0.9009
-23.3291 -10.7627 -2.4666 0.9019
-21.7793 -11.0069 -2.3428 0.9066
-21.3737 -11.7778 -2.3429 0.9066
12.9847 7.7719 -1.7976 0.9409
11.1495 8.4136 -1.6592 0.9453
14.9492 13.0545 -2.3575 0.9232
14.4903 13.5954 -2.3602 0.9231
13.5113 14.6245 -2.3651 0.9229
11.9036 16.0294 -2.3717 0.9227
11.3347 16.4597 -2.3739 0.9227
10.7483 16.8670 -2.3758 0.9226
8.2598 18.2720 -2.3819 0.9224
6.9425 18.8345 -2.3844 0.9223
6.2688 19.0792 -2.3855 0.9223
5.5858 19.2976 -2.3864 0.9223
4.8949 19.4905 -2.3871 0.9222
4.1972 19.6577 -2.3877 0.9222
3.4936 19.7991 -2.3882 0.9222
2.7851 19.9141 -2.3885 0.9222
0.6459 9.5466 -1.1366 0.9622
0.3057 9.5954 -1.1404 0.9621
-0.7948 20.0867 -2.3879 0.9222
-1.5108 20.0401 -2.3872 0.9222
-2.9345 19.8669 -2.3855 0.9223
-4.3400 19.5876 -2.3832 0.9224
-5.7191 19.2040 -2.3802 0.9225
-6.3963 18.9739 -2.3785 0.9225
-7.7207 18.4385 -2.3745 0.9226
-9.6195 17.4568 -2.3676 0.9229
-11.3913 16.2726 -2.3595 0.9231
-11.9499 15.8360 -2.3566 0.9232
-13.5198 14.4098 -2.3471 0.9235
-16.6435 10.6059 -2.3443 0.9236
-17.0106 10.0046 -2.3442 0.9236
-16.9226 8.3896 -2.2437 0.9267
-19.7124 7.2661 -2.4956 0.9189
-19.9586 6.5577 -2.4955 0.9189
-20.1794 5.8410 -2.4954 0.9189
-20.3746 5.1169 -2.4954 0.9189
-20.5438 4.3863 -2.4953 0.9189
-20.6869 3.6502 -2.4953 0.9189
-20.8038 2.9095 -2.4952 0.9189
-20.9579 1.4179 -2.4952 0.9189
-20.9894 -0.8305 -2.4952 0.9189
-20.8770 -2.3258 -2.4952 0.9189
-20.5097 -4.5443 -2.4953 0.9189
-20.3349 -5.2735 -2.4954 0.9189
-19.6563 -7.4177 -2.4956 0.9189
-19.3797 -8.1148 -2.4957 0.9189
-18.7529 -9.4774 -2.4959 0.9188
-18.4034 -10.1411 -2.4960 0.9188
11.1494 8.4135 -1.9791 0.9451
12.8924 10.4713 -2.3533 0.9351
12.1112 11.3632 -2.3531 0.9351
11.6973 11.7877 -2.3530 0.9351
9.4269 13.6894 -2.3550 0.9351
6.8665 15.1900 -2.3619 0.9349
6.3231 15.4329 -2.3631 0.9348
5.7706 15.6551 -2.3641 0.9348
4.6421 16.0376 -2.3656 0.9348
4.0678 16.1973 -2.3663 0.9348
3.4879 16.3358 -2.3668 0.9347
2.9031 16.4528 -2.3672 0.9347
2.3143 16.5480 -2.3675 0.9347
0.6449 9.5318 -1.3536 0.9621
-0.6605 16.6925 -2.3670 0.9347
-1.2556 16.6546 -2.3665 0.9348
-1.8487 16.5946 -2.3658 0.9348
-3.0257 16.4089 -2.3642 0.9348
-3.6079 16.2833 -2.3631 0.9348
-4.1847 16.1362 -2.3620 0.9349
-5.3190 15.7784 -2.3592 0.9349
-5.8750 15.5683 -2.3577 0.9350
-6.4224 15.3378 -2.3560 0.9350
-7.4884 14.8173 -2.3523 0.9351
-8.5114 14.2203 -2.3482 0.9352
-9.0075 13.8981 -2.3466 0.9353
-9.4972 13.5669 -2.3465 0.9353
-9.9748 13.2185 -2.3463 0.9353
-10.8911 12.4717 -2.3461 0.9353
-11.3286 12.0744 -2.3459 0.9353
-11.7517 11.6617 -2.3458 0.9353
-12.1598 11.2342 -2.3457 0.9353
-13.9580 8.8946 -2.3451 0.9353
-16.3049 6.6804 -2.4966 0.9313
-17.0880 4.2916 -2.4964 0.9313
-17.4481 2.4402 -2.4963 0.9313
-17.5239 1.8159 -2.4962 0.9313
-17.6175 -0.0678 -2.4962 0.9313
-17.5095 -1.9506 -2.4963 0.9313
-17.4289 -2.5744 -2.4963 0.9313
-17.2013 -3.8113 -2.4964 0.9313
-16.8863 -5.0289 -2.4965 0.9313
-16.6965 -5.6286 -2.4965 0.9313
-16.2533 -6.8057 -2.4967 0.9313
-16.0005 -7.3817 -2.4967 0.9313
-15.7274 -7.9484 -2.4968 0.9313
11.9863 7.7684 -2.3531 0.9437
11.7009 8.1910 -2.3530 0.9437
11.1493 8.4134 -2.3010 0.9449
10.7570 9.3937 -2.3527 0.9437
10.0585 10.1362 -2.3525 0.9438
9.3089 10.8269 -2.3522 0.9438
8.9161 11.1517 -2.3521 0.9438
8.5119 11.4622 -2.3520 0.9438
8.0969 11.7581 -2.3519 0.9438
7.6717 12.0389 -2.3517 0.9438
7.2367 12.3044 -2.3516 0.9438
6.3397 12.7878 -2.3513 0.9438
5.4106 13.2058 -2.3510 0.9438
4.9355 13.3897 -2.3509 0.9438
2.4811 14.0611 -2.3522 0.9438
1.4719 14.2046 -2.3526 0.9438
-0.0549 14.2792 -2.3524 0.9438
-0.5645 14.2663 -2.3521 0.9438
-1.0731 14.2345 -2.3516 0.9438
-1.5801 14.1838 -2.3511 0.9438
-3.0842 13.9200 -2.3488 0.9438
-5.5042 13.1452 -2.3477 0.9439
-5.9695 12.9395 -2.3476 0.9439
-6.8766 12.4792 -2.3473 0.9439
-7.3172 12.2251 -2.3471 0.9439
-8.1698 11.6707 -2.3469 0.9439
-8.5807 11.3711 -2.3468 0.9439
-8.9806 11.0570 -2.3466 0.9439
-9.7456 10.3871 -2.3464 0.9439
-10.7986 9.2846 -2.3461 0.9439
-11.4325 8.4898 -2.3459 0.9439
-11.7278 8.0761 -2.3458 0.9439
-12.4046 7.9047 -2.4232 0.9421
-13.3339 7.2144 -2.4975 0.9404
-13.8137 6.2444 -2.4974 0.9404
-14.0275 5.7472 -2.4973 0.9404
-14.2233 5.2428 -2.4973 0.9404
-14.4011 4.7317 -2.4972 0.9404
-14.5605 4.2146 -2.4971 0.9404
-14.7014 3.6922 -2.4971 0.9404
-14.8236 3.1650 -2.4971 0.9404
-15.0113 2.0994 -2.4970 0.9404
-15.0765 1.5623 -2.4970 0.9404
-15.1226 1.0231 -2.4970 0.9404
-15.1495 0.4827 -2.4970 0.9404
-15.0641 -1.6782 -2.4970 0.9404
-14.9948 -2.2148 -2.4970 0.9404
-14.7989 -3.2790 -2.4971 0.9404
-14.6727 -3.8052 -2.4971 0.9404
-14.3644 -4.8424 -2.4972 0.9404
-13.9830 -5.8551 -2.4973 0.9404
-13.7655 -6.3506 -2.4974 0.9404
-13.5305 -6.8381 -2.4975 0.9404
10.6139 6.8790 -2.3774 0.9498
9.9904 7.5388 -2.3524 0.9503
9.7146 7.8903 -2.3524 0.9503
9.4264 8.2317 -2.3523 0.9503
9.1262 8.5626 -2.3522 0.9503
8.1576 9.4879 -2.3519 0.9503
7.4593 10.0447 -2.3517 0.9504
5.9527 11.0019 -2.3512 0.9504
4.7418 11.5733 -2.3508 0.9504
4.3254 11.7346 -2.3507 0.9504
3.9036 11.8808 -2.3506 0.9504
3.4769 12.0119 -2.3504 0.9504
2.6108 12.2280 -2.3502 0.9504
-0.9395 12.4624 -2.3491 0.9504
-1.8260 12.3622 -2.3488 0.9504
-3.1365 12.0942 -2.3484 0.9504
-3.5659 11.9738 -2.3483 0.9504
-3.9908 11.8383 -2.3482 0.9504
-4.4106 11.6877 -2.3480 0.9504
-5.2325 11.3420 -2.3478 0.9504
-5.6337 11.1475 -2.3477 0.9504
-6.0277 10.9387 -2.3475 0.9504
-7.1614 10.2302 -2.3472 0.9504
-7.5217 9.9676 -2.3471 0.9504
-7.8723 9.6924 -2.3470 0.9504
-8.2128 9.4048 -2.3469 0.9505
-8.8621 8.7942 -2.3467 0.9505
-9.1700 8.4720 -2.3466 0.9505
-11.2086 7.1425 -2.4982 0.9473
-11.4560 6.7377 -2.4981 0.9473
-11.6889 6.3244 -2.4980 0.9473
-12.1097 5.4741 -2.4979 0.9473
-12.2971 5.0383 -2.4978 0.9473
-12.4688 4.5961 -2.4978 0.9474
-12.6247 4.1480 -2.4977 0.9474
-12.8880 3.2367 -2.4977 0.9474
-12.9951 2.7746 -2.4976 0.9474
-13.0857 2.3090 -2.4976 0.9474
-13.1597 1.8404 -2.4976 0.9474
-13.2573 0.8969 -2.4976 0.9474
-13.2809 0.4232 -2.4975 0.9474
-13.2875 -0.0511 -2.4975 0.9474
-13.2772 -0.5253 -2.4976 0.9474
-13.2501 -0.9989 -2.4976 0.9474
-13.1452 -1.9416 -2.4976 0.9474
-13.0677 -2.4096 -2.4976 0.9474
-12.9735 -2.8745 -2.4976 0.9474
-12.8628 -3.3358 -2.4977 0.9474
-12.7357 -3.7928 -2.4977 0.9474
-12.5925 -4.2451 -2.4978 0.9474
-12.0673 -5.5672 -2.4979 0.9473
-11.8613 -5.9945 -2.4980 0.9473
-11.6401 -6.4142 -2.4981 0.9473
10.1673 6.0855 -2.5047 0.9527
9.6896 6.7829 -2.5002 0.9528
8.7491 7.1061 -2.3826 0.9550
8.3809 7.3187 -2.3520 0.9555
8.1141 7.6129 -2.3519 0.9555
7.8369 7.8974 -2.3518 0.9555
6.9470 8.6889 -2.3515 0.9555
6.3089 9.1615 -2.3513 0.9555
5.9776 9.3805 -2.3512 0.9555
5.6388 9.5874 -2.3511 0.9555
4.2161 10.2904 -2.3507 0.9556
2.9161 7.9112 -1.7823 0.9661
3.4709 10.5639 -2.3504 0.9556
2.3215 10.8728 -2.3501 0.9556
0.9005 8.6907 -1.8469 0.9649
0.2789 8.7518 -1.8509 0.9648
-0.0338 8.7825 -1.8565 0.9647
-1.2304 11.0444 -2.3490 0.9556
-1.6237 10.9929 -2.3489 0.9556
-2.0150 10.9274 -2.3488 0.9556
-2.7891 10.7547 -2.3485 0.9556
-3.1710 10.6478 -2.3484 0.9556
-4.6532 10.0862 -2.3480 0.9556
-5.3604 9.7276 -2.3478 0.9556
-6.0401 9.3196 -2.3475 0.9556
-6.3687 9.0977 -2.3474 0.9556
-6.6890 8.8643 -2.3473 0.9556
-7.3038 8.3638 -2.3472 0.9556
-9.4903 7.0476 -2.4987 0.9528
-9.7355 6.7041 -2.4986 0.9528
-10.9365 4.4808 -2.4983 0.9528
-11.3522 3.2859 -2.4981 0.9528
-11.5574 2.4677 -2.4981 0.9528
-11.6380 2.0536 -2.4980 0.9528
-11.7547 1.2181 -2.4980 0.9528
-11.7907 0.7977 -2.4980 0.9528
-11.8116 0.3764 -2.4980 0.9528
-11.8175 -0.0454 -2.4980 0.9528
-11.8083 -0.4672 -2.4980 0.9528
-11.7842 -0.8884 -2.4980 0.9528
-11.6219 -2.1430 -2.4981 0.9528
-11.4397 -2.9667 -2.4981 0.9528
-11.3267 -3.3732 -2.4982 0.9528
-11.0576 -4.1728 -2.4982 0.9528
-10.9018 -4.5649 -2.4983 0.9528
-10.7321 -4.9512 -2.4983 0.9528
-10.3521 -5.7045 -2.4985 0.9528
9.1433 5.4726 -2.5044 0.9572
8.9419 5.7953 -2.5043 0.9572
8.5052 6.4181 -2.5042 0.9572
8.2688 6.7160 -2.5036 0.9572
7.6784 7.2041 -2.4745 0.9577
7.2040 7.2597 -2.4037 0.9588
6.7896 7.3490 -2.3515 0.9597
5.6738 8.2392 -2.3511 0.9597
4.7600 8.7975 -2.3508 0.9597
4.4427 8.9614 -2.3507 0.9597
1.5227 8.6295 -2.0595 0.9646
1.2112 8.6601 -2.0551 0.9647
0.5900 8.7212 -2.0544 0.9647
0.2789 8.7518 -2.0579 0.9647
-0.6668 8.8447 -2.0846 0.9642
-1.1066 9.9336 -2.3491 0.9598
-1.4604 9.8872 -2.3489 0.9598
-1.8123 9.8284 -2.3488 0.9598
-2.1619 9.7570 -2.3487 0.9598
-2.8521 9.5771 -2.3485 0.9598
-3.1920 9.4687 -2.3484 0.9598
-3.5278 9.3483 -2.3483 0.9598
-3.8590 9.2161 -2.3482 0.9598
-4.1853 9.0721 -2.3481 0.9598
-5.1305 8.5717 -2.3478 0.9598
-5.4329 8.3828 -2.3477 0.9598
-5.7285 8.1832 -2.3476 0.9598
-6.7892 7.7745 -2.4258 0.9585
-7.8107 7.2161 -2.4992 0.9572
-8.0630 6.9325 -2.4991 0.9572
-8.3051 6.6401 -2.4991 0.9572
-8.9666 5.7139 -2.4989 0.9573
-9.1646 5.3901 -2.4988 0.9573
-9.3509 5.0594 -2.4987 0.9573
-9.5253 4.7223 -2.4987 0.9573
-9.6876 4.3793 -2.4986 0.9573
-10.3105 2.5894 -2.4985 0.9573
-10.3962 2.2197 -2.4984 0.9573
-10.5737 1.0957 -2.4984 0.9573
-10.5650 -1.1770 -2.4984 0.9573
-10.5163 -1.5533 -2.4984 0.9573
-10.4543 -1.9277 -2.4984 0.9573
-10.3789 -2.2996 -2.4984 0.9573
-10.2903 -2.6687 -2.4985 0.9573
-10.1887 -3.0343 -2.4985 0.9573
-9.9465 -3.7535 -2.4986 0.9573
-9.8064 -4.1062 -2.4986 0.9573
-9.6538 -4.4537 -2.4987 0.9573
-9.4889 -4.7955 -2.4987 0.9573
8.2986 4.9671 -2.5041 0.9608
7.5065 6.0969 -2.5039 0.9608
6.5510 7.0907 -2.4995 0.9609
5.8879 7.3642 -2.4412 0.9618
5.4966 7.4018 -2.3871 0.9626
5.1498 7.4783 -2.3510 0.9632
4.8794 7.6571 -2.3509 0.9632
4.3204 7.9851 -2.3507 0.9632
3.4417 8.4002 -2.3504 0.9632
2.9018 7.8722 -2.1723 0.9659
2.6820 8.1628 -2.2246 0.9651
2.5237 8.7190 -2.3502 0.9632
1.8952 8.8761 -2.3500 0.9632
0.8910 8.5988 -2.2383 0.9649
0.5838 8.6290 -2.2393 0.9649
0.2759 8.6593 -2.2432 0.9648
-0.3450 8.7204 -2.2596 0.9646
-2.2772 8.7807 -2.3487 0.9632
-3.2023 8.4860 -2.3484 0.9632
-3.5030 8.3660 -2.3483 0.9632
-3.7993 8.2353 -2.3482 0.9632
-5.0167 7.7405 -2.3883 0.9626
-5.8000 7.6861 -2.4931 0.9610
-6.6055 7.0403 -2.4996 0.9609
-6.8524 6.7999 -2.4995 0.9609
-7.5393 6.0279 -2.4993 0.9609
-7.7495 5.7548 -2.4992 0.9609
-7.9498 5.4744 -2.4992 0.9609
-8.1399 5.1871 -2.4991 0.9609
-8.3197 4.8931 -2.4991 0.9609
-8.4888 4.5930 -2.4990 0.9609
-8.9307 3.6590 -2.4989 0.9609
-9.0555 3.3379 -2.4988 0.9609
-9.1687 3.0125 -2.4988 0.9609
-9.2703 2.6833 -2.4988 0.9609
-9.3600 2.3507 -2.4987 0.9609
-9.5037 1.6769 -2.4987 0.9609
-9.6284 0.6514 -2.4987 0.9609
-9.6455 0.3074 -2.4987 0.9609
-9.5469 -1.4102 -2.4987 0.9609
-9.3417 -2.4226 -2.4988 0.9609
-9.2494 -2.7546 -2.4988 0.9609
-8.6141 -4.3534 -2.4990 0.9609
-8.4533 -4.6582 -2.4990 0.9609
6.8650 5.5758 -2.5037 0.9639
6.4494 6.0510 -2.5036 0.9639
6.2291 6.2772 -2.5035 0.9639
5.7651 6.7052 -2.5034 0.9639
5.0046 7.2676 -2.4980 0.9640
3.7236 7.5109 -2.3732 0.9657
3.4200 7.5656 -2.3504 0.9661
3.1477 7.6826 -2.3504 0.9661
2.8714 7.7898 -2.3503 0.9661
2.0220 8.0512 -2.3500 0.9661
1.1497 8.2203 -2.3497 0.9661
-0.0319 8.2989 -2.3494 0.9661
-0.6238 8.2749 -2.3492 0.9661
-0.9187 8.2470 -2.3491 0.9661
-1.7948 8.1006 -2.3488 0.9661
-2.0827 8.0311 -2.3488 0.9661
-2.6502 7.8615 -2.3486 0.9661
-2.9290 7.7616 -2.3485 0.9661
-3.8936 7.7042 -2.4437 0.9648
-4.2451 7.7038 -2.4901 0.9641
-4.5265 7.5625 -2.4951 0.9640
-4.7987 7.4042 -2.4978 0.9640
-5.0645 7.2347 -2.5000 0.9640
-5.5674 6.8546 -2.4999 0.9640
-5.8083 6.6512 -2.4998 0.9640
-6.0418 6.4395 -2.4997 0.9640
-6.2677 6.2196 -2.4997 0.9640
-6.4855 5.9918 -2.4996 0.9640
-6.6950 5.7563 -2.4996 0.9640
-6.8961 5.5136 -2.4995 0.9640
-7.0883 5.2638 -2.4994 0.9640
-7.2715 5.0074 -2.4994 0.9640
-7.6099 4.4757 -2.4993 0.9640
-7.9095 3.9212 -2.4992 0.9640
-8.1688 3.3469 -2.4991 0.9640
-8.2829 3.0532 -2.4991 0.9640
-8.3865 2.7555 -2.4990 0.9640
-8.4795 2.4544 -2.4990 0.9640
-8.6328 1.8432 -2.4990 0.9640
-8.6930 1.5339 -2.4989 0.9640
-8.7422 1.2226 -2.4989 0.9640
-8.7802 0.9098 -2.4989 0.9640
-8.8071 0.5958 -2.4989 0.9640
-8.8227 0.2811 -2.4989 0.9640
-8.8271 -0.0339 -2.4989 0.9640
-8.8203 -0.3490 -2.4989 0.9640
-8.8022 -0.6636 -2.4989 0.9640
-8.7730 -0.9773 -2.4989 0.9640
-8.6810 -1.6007 -2.4990 0.9640
-8.4604 -2.5196 -2.4990 0.9640
-8.2593 -3.1168 -2.4991 0.9640
-7.8792 -3.9820 -2.4992 0.9640
6.9846 4.1806 -2.5037 0.9665
6.8308 4.4271 -2.5037 0.9665
6.6683 4.6680 -2.5036 0.9665
6.4973 4.9029 -2.5036 0.9665
6.3181 5.1316 -2.5035 0.9665
6.1307 5.3537 -2.5035 0.9665
5.9356 5.5690 -2.5034 0.9665
5.5229 5.9779 -2.5033 0.9665
5.3059 6.1711 -2.5032 0.9665
4.6154 6.7023 -2.5030 0.9665
4.3731 6.8626 -2.5029 0.9665
4.1253 7.0141 -2.5029 0.9665
3.6084 7.2785 -2.4987 0.9666
3.3438 7.3971 -2.4969 0.9666
3.0756 7.5066 -2.4951 0.9666
1.6200 7.5875 -2.3863 0.9681
1.0636 7.6049 -2.3619 0.9684
0.7891 7.6147 -2.3546 0.9685
0.5159 7.6249 -2.3506 0.9685
0.2433 7.6347 -2.3495 0.9685
-0.3024 7.6419 -2.3523 0.9685
-0.5762 7.6435 -2.3577 0.9684
-1.1303 7.6523 -2.3792 0.9681
-1.4117 7.6560 -2.3945 0.9679
-1.9870 7.6619 -2.4346 0.9674
-2.2824 7.6641 -2.4596 0.9671
-4.1749 6.9751 -2.5003 0.9666
-4.4210 6.8214 -2.5002 0.9666
-4.6616 6.6591 -2.5002 0.9666
-4.8961 6.4883 -2.5001 0.9666
-5.1244 6.3092 -2.5000 0.9666
-5.3462 6.1221 -2.5000 0.9666
-6.1625 5.2985 -2.4997 0.9666
-6.5245 4.8451 -2.4996 0.9666
-6.8532 4.3671 -2.4995 0.9666
-7.7196 2.5364 -2.4992 0.9666
-7.9462 1.6966 -2.4992 0.9666
-8.0017 1.4119 -2.4992 0.9666
-8.0469 1.1254 -2.4991 0.9666
-8.0819 0.8375 -2.4991 0.9666
-8.1067 0.5485 -2.4991 0.9666
-8.1188 -0.3212 -2.4991 0.9666
-8.1022 -0.6108 -2.4991 0.9666
-8.0753 -0.8996 -2.4991 0.9666
-7.9906 -1.4734 -2.4992 0.9666
-7.9330 -1.7577 -2.4992 0.9666
-7.2525 -3.6653 -2.4994 0.9666
-7.1172 -3.9219 -2.4994 0.9666
6.4625 3.8681 -2.5036 0.9688
6.3203 4.0962 -2.5035 0.9688
6.1699 4.3191 -2.5035 0.9688
6.0117 4.5365 -2.5034 0.9688
5.6725 4.9536 -2.5033 0.9688
5.1101 5.5312 -2.5032 0.9688
4.9093 5.7099 -2.5031 0.9688
4.4893 6.0453 -2.5030 0.9688
4.2705 6.2015 -2.5029 0.9688
3.5828 6.6219 -2.5027 0.9688
3.3441 6.7454 -2.5026 0.9688
3.1011 6.8602 -2.5025 0.9688
2.8542 6.9663 -2.5025 0.9688
2.6037 7.0636 -2.5024 0.9688
1.8313 7.2918 -2.4991 0.9688
1.3055 7.3987 -2.4974 0.9688
-0.0289 7.5077 -2.4956 0.9688
-0.2968 7.5022 -2.4957 0.9688
-0.5645 7.4877 -2.4960 0.9688
-1.0977 7.4313 -2.4970 0.9688
-1.3626 7.3896 -2.4977 0.9688
-1.6261 7.3388 -2.4986 0.9688
-2.1474 7.2105 -2.5008 0.9688
-2.6562 7.0388 -2.5008 0.9688
-2.9057 6.9393 -2.5007 0.9688
-3.8632 6.4544 -2.5004 0.9688
-4.0910 6.3122 -2.5003 0.9688
-4.3136 6.1620 -2.5003 0.9688
-4.9472 5.6652 -2.5001 0.9688
-5.3385 5.2975 -2.5000 0.9688
-5.5240 5.1035 -2.4999 0.9688
-5.7025 4.9030 -2.4999 0.9688
-6.1936 4.2650 -2.4997 0.9688
-6.3417 4.0412 -2.4997 0.9688
-6.4818 3.8122 -2.4996 0.9688
-6.7371 3.3400 -2.4995 0.9688
-6.8519 3.0974 -2.4995 0.9688
-6.9580 2.8508 -2.4995 0.9688
-7.1435 2.3471 -2.4994 0.9688
-7.4046 1.3065 -2.4993 0.9688
-7.4464 1.0414 -2.4993 0.9688
-7.4788 0.7750 -2.4993 0.9688
-7.5017 0.5075 -2.4993 0.9688
-7.5150 0.2395 -2.4993 0.9688
-7.5188 -0.0289 -2.4993 0.9688
-7.3943 -1.3635 -2.4994 0.9688
-7.3410 -1.6265 -2.4994 0.9688
-7.2064 -2.1461 -2.4994 0.9688
-7.0351 -2.6548 -2.4995 0.9688
-6.9359 -2.9043 -2.4995 0.9688
-6.7112 -3.3917 -2.4996 0.9688
-6.5860 -3.6292 -2.4996 0.9688
6.0068 3.5953 -2.5034 0.9707
5.8745 3.8073 -2.5034 0.9707
5.4336 4.4132 -2.5033 0.9707
4.9304 4.9685 -2.5031 0.9707
4.7498 5.1411 -2.5031 0.9707
4.5632 5.3073 -2.5030 0.9707
3.9694 5.7642 -2.5028 0.9707
3.7611 5.9021 -2.5027 0.9707
2.6530 6.4752 -2.5024 0.9707
2.4201 6.5656 -2.5023 0.9707
1.9454 6.7211 -2.5022 0.9707
1.7043 6.7861 -2.5021 0.9707
1.4609 6.8424 -2.5020 0.9707
1.2157 6.8900 -2.5020 0.9707
0.7211 6.9587 -2.5018 0.9707
0.4722 6.9798 -2.5017 0.9707
-0.0269 6.9953 -2.5016 0.9707
-0.5258 6.9751 -2.5014 0.9707
-0.7745 6.9517 -2.5014 0.9707
-1.5130 6.8285 -2.5011 0.9707
-1.7557 6.7699 -2.5011 0.9707
-1.9962 6.7028 -2.5010 0.9707
-2.2340 6.6270 -2.5009 0.9707
-2.4691 6.5429 -2.5008 0.9707
-3.3747 6.1242 -2.5006 0.9707
-3.5911 5.9997 -2.5005 0.9707
-4.0097 5.7280 -2.5004 0.9707
-4.4079 5.4271 -2.5003 0.9707
-4.5987 5.2661 -2.5002 0.9707
-4.7836 5.0985 -2.5001 0.9707
-4.9625 4.9244 -2.5001 0.9707
-5.1350 4.7441 -2.5000 0.9707
-5.3009 4.5577 -2.5000 0.9707
-5.8952 3.7566 -2.4998 0.9707
-6.0254 3.5438 -2.4998 0.9707
-6.4680 2.6500 -2.4996 0.9707
-6.5584 2.4175 -2.4996 0.9707
-6.6405 2.1818 -2.4996 0.9707
-6.7791 1.7025 -2.4995 0.9707
-6.9221 0.9681 -2.4995 0.9707
-6.9735 0.4718 -2.4995 0.9707
-6.9145 -1.0213 -2.4995 0.9707
-6.8737 -1.2675 -2.4995 0.9707
-6.7658 -1.7546 -2.4995 0.9707
-6.6989 -1.9950 -2.4996 0.9707
-6.6235 -2.2329 -2.4996 0.9707
-6.3471 -2.9282 -2.4997 0.9707
-6.2386 -3.1529 -2.4997 0.9707
-6.1222 -3.3736 -2.4997 0.9707
5.4816 3.5527 -2.5033 0.9724
5.3513 3.7460 -2.5032 0.9724
5.2141 3.9346 -2.5032 0.9724
5.0702 4.1181 -2.5032 0.9724
4.9199 4.2964 -2.5031 0.9724
4.7633 4.4691 -2.5031 0.9724
4.4322 4.7974 -2.5030 0.9724
4.2581 4.9524 -2.5029 0.9724
3.8937 5.2433 -2.5028 0.9724
3.5096 5.5075 -2.5027 0.9724
2.9005 5.8506 -2.5025 0.9724
2.2583 6.1267 -2.5023 0.9724
2.0382 6.2032 -2.5022 0.9724
1.8154 6.2719 -2.5022 0.9724
1.5904 6.3325 -2.5021 0.9724
1.1345 6.4294 -2.5019 0.9724
0.9042 6.4657 -2.5019 0.9724
0.6729 6.4936 -2.5018 0.9724
0.4407 6.5133 -2.5017 0.9724
0.2079 6.5247 -2.5017 0.9724
-0.4907 6.5090 -2.5014 0.9724
-0.7227 6.4872 -2.5014 0.9724
-1.1836 6.4187 -2.5012 0.9724
-1.4119 6.3722 -2.5012 0.9724
-1.6384 6.3176 -2.5011 0.9724
-2.0848 6.1842 -2.5010 0.9724
-2.3041 6.1057 -2.5009 0.9724
-2.7337 5.9255 -2.5008 0.9724
-3.3512 5.5989 -2.5006 0.9724
-3.9302 5.2082 -2.5004 0.9724
-4.2916 4.9144 -2.5003 0.9724
-4.4641 4.7580 -2.5002 0.9724
-4.6310 4.5955 -2.5002 0.9724
-4.7920 4.4272 -2.5001 0.9724
-5.0954 4.0739 -2.5000 0.9724
-5.2375 3.8894 -2.5000 0.9724
-5.3729 3.6999 -2.5000 0.9724
-5.5014 3.5057 -2.4999 0.9724
-5.6230 3.3071 -2.4999 0.9724
-5.7374 3.1042 -2.4998 0.9724
-5.8444 2.8975 -2.4998 0.9724
-5.9440 2.6870 -2.4998 0.9724
-6.1204 2.2560 -2.4997 0.9724
-6.4599 0.9034 -2.4996 0.9724
-6.4880 0.6723 -2.4996 0.9724
-6.5194 0.2077 -2.4996 0.9724
-6.5176 -0.2579 -2.4996 0.9724
-6.5043 -0.4904 -2.4996 0.9724
-6.4826 -0.7222 -2.4996 0.9724
-6.4527 -0.9531 -2.4996 0.9724
-6.3684 -1.4110 -2.4997 0.9724
-6.3140 -1.6375 -2.4997 0.9724
-6.0169 -2.5195 -2.4998 0.9724
-5.8220 -2.9423 -2.4998 0.9724
5.2480 3.1411 -2.5032 0.9739
5.1324 3.3264 -2.5032 0.9739
5.0104 3.5074 -2.5031 0.9739
4.8819 3.6839 -2.5031 0.9739
4.6065 4.0227 -2.5030 0.9739
4.3076 4.3409 -2.5029 0.9739
3.6457 4.9094 -2.5027 0.9739
2.9097 5.3778 -2.5025 0.9739
2.5185 5.5713 -2.5024 0.9739
2.3180 5.6576 -2.5023 0.9739
2.1145 5.7365 -2.5022 0.9739
1.9084 5.8082 -2.5022 0.9739
1.4891 5.9293 -2.5021 0.9739
1.0622 6.0201 -2.5019 0.9739
0.8467 6.0540 -2.5019 0.9739
-0.0235 6.1122 -2.5016 0.9739
-0.2417 6.1073 -2.5015 0.9739
-0.4595 6.0946 -2.5015 0.9739
-0.6767 6.0742 -2.5014 0.9739
-0.8930 6.0460 -2.5013 0.9739
-1.1082 6.0101 -2.5013 0.9739
-1.5341 5.9154 -2.5011 0.9739
-2.1575 5.7171 -2.5009 0.9739
-2.3601 5.6363 -2.5009 0.9739
-2.9489 5.3514 -2.5007 0.9739
-3.1379 5.2426 -2.5006 0.9739
-3.3229 5.1272 -2.5006 0.9739
-4.0185 4.6016 -2.5004 0.9739
-4.6321 3.9826 -2.5002 0.9739
-4.7712 3.8147 -2.5001 0.9739
-4.9042 3.6419 -2.5001 0.9739
-5.5659 2.5160 -2.4999 0.9739
-5.6521 2.3157 -2.4999 0.9739
-5.8028 1.9066 -2.4998 0.9739
-5.9732 1.2753 -2.4998 0.9739
-6.0149 1.0613 -2.4998 0.9739
-6.0489 0.8460 -2.4998 0.9739
-6.0752 0.6295 -2.4997 0.9739
-6.1077 -0.0235 -2.4997 0.9739
-6.1030 -0.2415 -2.4997 0.9739
-6.0422 -0.8925 -2.4998 0.9739
-5.9632 -1.3213 -2.4998 0.9739
-5.7147 -2.1565 -2.4999 0.9739
-5.6341 -2.3592 -2.4999 0.9739
-5.5464 -2.5588 -2.4999 0.9739
-5.3498 -2.9480 -2.5000 0.9739
4.9282 2.9497 -2.5031 0.9753
4.4580 3.6208 -2.5030 0.9753
4.3258 3.7776 -2.5029 0.9753
4.1882 3.9295 -2.5029 0.9753
4.0452 4.0764 -2.5028 0.9753
3.8970 4.2181 -2.5028 0.9753
3.7439 4.3544 -2.5027 0.9753
3.5860 4.4852 -2.5027 0.9753
3.4236 4.6103 -2.5026 0.9753
3.2568 4.7294 -2.5026 0.9753
2.9110 4.9495 -2.5025 0.9753
2.7324 5.0501 -2.5024 0.9753
2.5504 5.1443 -2.5024 0.9753
1.7921 5.4544 -2.5021 0.9753
1.3984 5.5681 -2.5020 0.9753
0.5917 5.7099 -2.5018 0.9753
0.3875 5.7272 -2.5017 0.9753
0.1828 5.7372 -2.5017 0.9753
-0.0221 5.7400 -2.5016 0.9753
-0.2269 5.7354 -2.5015 0.9753
-0.6355 5.7043 -2.5014 0.9753
-0.8387 5.6778 -2.5013 0.9753
-1.0408 5.6441 -2.5013 0.9753
-1.2415 5.6033 -2.5012 0.9753
-1.6380 5.5002 -2.5011 0.9753
-2.0261 5.3690 -2.5010 0.9753
-2.2164 5.2932 -2.5009 0.9753
-2.4038 5.2106 -2.5009 0.9753
-2.5882 5.1213 -2.5008 0.9753
-2.9469 4.9234 -2.5007 0.9753
-3.1207 4.8150 -2.5006 0.9753
-3.2905 4.7004 -2.5006 0.9753
-3.7738 4.3215 -2.5004 0.9753
-4.2139 3.8932 -2.5003 0.9753
-4.3501 3.7402 -2.5003 0.9753
-4.6057 3.4203 -2.5002 0.9753
-4.7248 3.2537 -2.5002 0.9753
-4.8379 3.0829 -2.5001 0.9753
-5.1395 2.5480 -2.5000 0.9753
-5.3081 2.1748 -2.5000 0.9753
-5.5100 1.5949 -2.4999 0.9753
-5.5634 1.3972 -2.4999 0.9753
-5.6097 1.1977 -2.4999 0.9753
-5.6488 0.9967 -2.4999 0.9753
-5.6808 0.7945 -2.4999 0.9753
-5.7055 0.5912 -2.4999 0.9753
-5.7331 0.1827 -2.4999 0.9753
-5.7008 -0.6351 -2.4999 0.9753
-5.6745 -0.8381 -2.4999 0.9753
-5.6410 -1.0402 -2.4999 0.9753
-5.6003 -1.2409 -2.4999 0.9753
-5.5525 -1.4399 -2.4999 0.9753
-5.4357 -1.8324 -2.4999 0.9753
-5.3669 -2.0253 -2.5000 0.9753
-5.2088 -2.4030 -2.5000 0.9753
-5.1198 -2.5874 -2.5000 0.9753
-5.0242 -2.7686 -2.5001 0.9753
4.6398 2.7771 -2.5030 0.9764
4.4298 3.1010 -2.5030 0.9764
4.3162 3.2571 -2.5029 0.9764
4.1971 3.4090 -2.5029 0.9764
4.0727 3.5566 -2.5028 0.9764
3.6690 3.9713 -2.5027 0.9765
2.7407 4.6600 -2.5024 0.9765
0.9392 5.3228 -2.5019 0.9765
0.5571 5.3759 -2.5018 0.9765
0.3648 5.3923 -2.5017 0.9765
0.1721 5.4017 -2.5017 0.9765
-0.2137 5.4000 -2.5015 0.9765
-1.1689 5.2756 -2.5012 0.9765
-1.5422 5.1786 -2.5011 0.9765
-1.7260 5.1201 -2.5011 0.9765
-2.4369 4.8219 -2.5009 0.9765
-2.6074 4.7318 -2.5008 0.9765
-2.7746 4.6356 -2.5008 0.9765
-3.5533 4.0689 -2.5005 0.9765
-3.8343 3.8050 -2.5004 0.9765
-3.9676 3.6656 -2.5004 0.9765
-4.0959 3.5216 -2.5003 0.9765
-4.2189 3.3731 -2.5003 0.9765
-4.3366 3.2203 -2.5003 0.9765
-4.4487 3.0635 -2.5002 0.9765
-4.5551 2.9027 -2.5002 0.9765
-4.7505 2.5703 -2.5002 0.9765
-4.8391 2.3991 -2.5001 0.9765
-4.9216 2.2248 -2.5001 0.9765
-4.9979 2.0477 -2.5001 0.9765
-5.1311 1.6859 -2.5000 0.9765
-5.1880 1.5017 -2.5000 0.9765
-5.3885 0.3646 -2.5000 0.9765
-5.3981 0.1720 -2.5000 0.9765
-5.3855 -0.4060 -2.5000 0.9765
-5.3676 -0.5980 -2.5000 0.9765
-5.3429 -0.7892 -2.5000 0.9765
-5.2280 -1.3558 -2.5000 0.9765
-4.8206 -2.4362 -2.5001 0.9765
-4.7306 -2.6068 -2.5002 0.9765
4.2819 2.7751 -2.5029 0.9775
3.8431 3.3561 -2.5028 0.9775
3.4622 3.7475 -2.5027 0.9775
3.3262 3.8686 -2.5026 0.9775
2.8935 4.2018 -2.5025 0.9775
2.7416 4.3023 -2.5024 0.9775
2.2659 4.5704 -2.5023 0.9775
2.1012 4.6483 -2.5022 0.9775
1.7642 4.7862 -2.5021 0.9775
1.2424 4.9470 -2.5020 0.9775
1.0650 4.9881 -2.5019 0.9775
0.8863 5.0228 -2.5019 0.9775
0.5257 5.0730 -2.5018 0.9775
0.3443 5.0885 -2.5017 0.9775
0.1624 5.0974 -2.5016 0.9775
-0.2016 5.0958 -2.5015 0.9775
-0.3834 5.0852 -2.5015 0.9775
-0.5646 5.0681 -2.5014 0.9775
-1.1031 4.9784 -2.5013 0.9775
-1.2800 4.9358 -2.5012 0.9775
-1.4553 4.8868 -2.5012 0.9775
-1.6288 4.8317 -2.5011 0.9775
-2.1358 4.6296 -2.5009 0.9775
-2.4606 4.4653 -2.5008 0.9775
-2.6183 4.3745 -2.5008 0.9775
-3.3531 3.8398 -2.5006 0.9775
-3.6184 3.5907 -2.5005 0.9775
-3.8652 3.3233 -2.5004 0.9775
-4.2986 2.7392 -2.5003 0.9775
-4.3936 2.5840 -2.5003 0.9775
-4.4830 2.4255 -2.5002 0.9775
-4.7823 1.7628 -2.5001 0.9775
-4.8958 1.4171 -2.5001 0.9775
-4.9844 1.0642 -2.5001 0.9775
-5.0476 0.7059 -2.5001 0.9775
-5.0851 0.3440 -2.5001 0.9775
-5.0941 0.1623 -2.5001 0.9775
-5.0967 -0.0196 -2.5001 0.9775
-5.0927 -0.2015 -2.5001 0.9775
-5.0823 -0.3831 -2.5001 0.9775
-4.9761 -1.1025 -2.5001 0.9775
-4.9336 -1.2795 -2.5001 0.9775
-4.7687 -1.7995 -2.5002 0.9775
-4.5491 -2.2990 -2.5002 0.9775
-4.4642 -2.4600 -2.5002 0.9775
4.1397 2.4778 -2.5029 0.9785
3.9523 2.7667 -2.5028 0.9785
3.7447 3.0415 -2.5027 0.9785
3.5181 3.3008 -2.5027 0.9785
3.2736 3.5433 -2.5026 0.9785
3.1450 3.6578 -2.5026 0.9785
3.0124 3.7677 -2.5025 0.9785
2.8759 3.8727 -2.5025 0.9785
2.5922 4.0679 -2.5024 0.9785
2.2953 4.2423 -2.5023 0.9785
2.1424 4.3214 -2.5023 0.9785
1.9868 4.3951 -2.5022 0.9785
1.8286 4.4631 -2.5022 0.9785
1.5055 4.5820 -2.5021 0.9785
1.1747 4.6775 -2.5020 0.9785
1.0070 4.7164 -2.5019 0.9785
0.8380 4.7492 -2.5019 0.9785
0.3255 4.8113 -2.5017 0.9785
0.1536 4.8197 -2.5016 0.9785
-1.3761 4.6207 -2.5012 0.9785
-1.5401 4.5686 -2.5011 0.9785
-1.7022 4.5106 -2.5011 0.9785
-2.1744 4.3026 -2.5009 0.9785
-2.3266 4.2221 -2.5009 0.9785
-2.6218 4.0452 -2.5008 0.9785
-2.7644 3.9490 -2.5008 0.9785
-3.2981 3.5152 -2.5006 0.9785
-3.4214 3.3952 -2.5006 0.9785
-3.7646 3.0099 -2.5005 0.9785
-4.0646 2.5901 -2.5004 0.9785
-4.1544 2.4434 -2.5003 0.9785
-4.2389 2.2935 -2.5003 0.9785
-4.3917 1.9852 -2.5003 0.9785
-4.4597 1.8272 -2.5002 0.9785
-4.6293 1.3400 -2.5002 0.9785
-4.7131 1.0063 -2.5002 0.9785
-4.7728 0.6675 -2.5001 0.9785
-4.7936 0.4967 -2.5001 0.9785
-4.8168 0.1535 -2.5001 0.9785
-4.8192 -0.0186 -2.5001 0.9785
-4.8056 -0.3623 -2.5001 0.9785
-4.7394 -0.8739 -2.5002 0.9785
-4.6650 -1.2098 -2.5002 0.9785
-4.6189 -1.3756 -2.5002 0.9785
-4.5091 -1.7016 -2.5002 0.9785
-4.3015 -2.1739 -2.5003 0.9785
3.8346 2.4853 -2.5028 0.9794
3.7434 2.6205 -2.5027 0.9794
3.6475 2.7524 -2.5027 0.9794
3.4418 3.0056 -2.5027 0.9794
3.3322 3.1264 -2.5026 0.9794
3.2185 3.2433 -2.5026 0.9794
3.1006 3.3561 -2.5025 0.9794
2.8532 3.5686 -2.5025 0.9794
2.7240 3.6681 -2.5024 0.9794
2.5913 3.7630 -2.5024 0.9794
2.1741 4.0182 -2.5023 0.9794
1.8818 4.1629 -2.5022 0.9794
1.7320 4.2273 -2.5021 0.9794
1.4260 4.3400 -2.5020 0.9794
1.2701 4.3880 -2.5020 0.9794
1.1127 4.4305 -2.5019 0.9794
0.9538 4.4673 -2.5019 0.9794
0.7937 4.4984 -2.5018 0.9794
0.6327 4.5238 -2.5018 0.9794
0.3083 4.5572 -2.5017 0.9794
-0.1806 4.5638 -2.5015 0.9794
-0.5057 4.5391 -2.5014 0.9794
-0.9879 4.4587 -2.5013 0.9794
-1.3034 4.3767 -2.5012 0.9794
-1.6123 4.2724 -2.5011 0.9794
-1.9129 4.1464 -2.5010 0.9794
-2.0596 4.0754 -2.5010 0.9794
-2.2037 3.9992 -2.5009 0.9794
-2.3450 3.9179 -2.5009 0.9794
-2.4834 3.8317 -2.5008 0.9794
-2.6185 3.7405 -2.5008 0.9794
-3.0032 3.4391 -2.5007 0.9794
-3.1240 3.3296 -2.5006 0.9794
-3.4619 2.9765 -2.5005 0.9794
-3.5658 2.8510 -2.5005 0.9794
-3.6653 2.7219 -2.5005 0.9794
-3.7601 2.5893 -2.5005 0.9794
-3.9351 2.3144 -2.5004 0.9794
-4.0901 2.0277 -2.5004 0.9794
-4.1598 1.8804 -2.5003 0.9794
-4.2243 1.7308 -2.5003 0.9794
-4.2833 1.5789 -2.5003 0.9794
-4.3369 1.4250 -2.5003 0.9794
-4.3850 1.2693 -2.5003 0.9794
-4.5406 0.4705 -2.5002 0.9794
-4.5545 0.3081 -2.5002 0.9794
-4.5626 0.1454 -2.5002 0.9794
-4.5649 -0.0176 -2.5002 0.9794
-4.5613 -0.1805 -2.5002 0.9794
-4.5520 -0.3432 -2.5002 0.9794
-4.5369 -0.5054 -2.5002 0.9794
-4.5159 -0.6670 -2.5002 0.9794
-4.4569 -0.9875 -2.5002 0.9794
-4.0744 -2.0591 -2.5004 0.9794
3.7195 2.2263 -2.5027 0.9802
3.5511 2.4859 -2.5027 0.9802
3.4601 2.6110 -2.5027 0.9802
3.3647 2.7328 -2.5026 0.9802
3.1611 2.9658 -2.5026 0.9802
3.0531 3.0767 -2.5025 0.9802
2.9414 3.1837 -2.5025 0.9802
2.8258 3.2866 -2.5025 0.9802
2.7067 3.3853 -2.5024 0.9802
2.4582 3.5697 -2.5024 0.9802
1.9250 3.8829 -2.5022 0.9802
1.7852 3.9491 -2.5021 0.9802
1.6430 4.0102 -2.5021 0.9802
1.0555 4.2029 -2.5019 0.9802
0.7530 4.2674 -2.5018 0.9802
0.6002 4.2914 -2.5018 0.9802
0.4466 4.3101 -2.5017 0.9802
0.1380 4.3308 -2.5016 0.9802
-0.0167 4.3329 -2.5016 0.9802
-0.4797 4.3060 -2.5015 0.9802
-0.9372 4.2298 -2.5013 0.9802
-1.0876 4.1936 -2.5013 0.9802
-1.2365 4.1520 -2.5012 0.9802
-1.3839 4.1052 -2.5012 0.9802
-1.8147 3.9335 -2.5010 0.9802
-2.2247 3.7168 -2.5009 0.9802
-2.3559 3.6350 -2.5009 0.9802
-2.4841 3.5485 -2.5008 0.9802
-2.6091 3.4575 -2.5008 0.9802
-2.8490 3.2625 -2.5007 0.9802
-3.0744 3.0509 -2.5007 0.9802
-3.5671 2.4564 -2.5005 0.9802
-3.8091 2.0609 -2.5004 0.9802
-3.8802 1.9236 -2.5004 0.9802
-3.9464 1.7839 -2.5004 0.9802
-4.0075 1.6419 -2.5004 0.9802
-4.2002 1.0549 -2.5003 0.9802
-4.3076 0.4464 -2.5003 0.9802
-4.3207 0.2923 -2.5003 0.9802
-4.3284 0.1379 -2.5003 0.9802
-4.3306 -0.0167 -2.5003 0.9802
-4.3272 -0.1712 -2.5003 0.9802
-4.3184 -0.3256 -2.5003 0.9802
-4.3040 -0.4795 -2.5003 0.9802
-4.2842 -0.6328 -2.5003 0.9802
-4.2589 -0.7853 -2.5003 0.9802
-4.2281 -0.9368 -2.5003 0.9802
-4.1920 -1.0871 -2.5003 0.9802
-3.9325 -1.8142 -2.5004 0.9802
-3.7931 -2.0902 -2.5005 0.9802
