ply
format ascii 1.0
element vertex 1301
property float32 x
property float32 y
property float32 z
property float32 I
end_header
-28.9160 -17.3074 5.9422 0.8721
-15.0798 -11.3794 3.3311 0.9261
-21.4127 -17.3917 4.8641 0.8940
-18.5706 -17.4237 4.4901 0.9017
-17.0989 -17.2309 4.2803 0.9061
-15.9900 -17.3074 4.1548 0.9087
-14.9582 -17.3975 4.0456 0.9110
-11.1530 -17.5021 3.6594 0.9192
-10.2993 -17.5117 3.5822 0.9208
-8.6906 -17.5298 3.4500 0.9236
-7.9528 -17.5930 3.4044 0.9246
-7.1891 -17.5466 3.3436 0.9259
-6.4708 -17.5547 3.2990 0.9268
-5.8280 -17.7376 3.2921 0.9270
-5.0858 -17.5703 3.2253 0.9284
-4.4145 -17.5778 3.1957 0.9290
-4.3400 -20.3265 3.6649 0.9190
-3.8250 -36.9129 6.5436 0.8601
31.8705 -36.4960 8.5436 0.8214
31.8985 -33.9983 8.2203 0.8275
34.0193 -25.2630 7.4716 0.8419
12.8197 2.3639 2.2986 0.9484
40.9793 22.5814 8.2502 0.8269
-28.9160 -17.3073 5.1626 0.8725
-24.7901 -17.3537 4.6357 0.8847
-15.0857 -11.3838 2.8952 0.9264
-21.2170 -17.2328 4.1874 0.8953
-15.1430 -13.2238 3.0799 0.9219
-17.3043 -17.4379 3.7635 0.9054
-15.0151 -17.4637 3.5282 0.9110
-12.0455 -17.4920 3.2536 0.9176
-10.3761 -17.6423 3.1355 0.9205
-7.9528 -17.5930 2.9577 0.9248
-7.1891 -17.5466 2.9049 0.9261
-5.8280 -17.7376 2.8602 0.9272
-5.0858 -17.5703 2.8022 0.9287
23.2415 -24.7714 5.2036 0.8716
14.0028 -12.0395 2.8290 0.9280
35.9622 -24.7646 6.6891 0.8380
40.7983 -23.9951 7.2509 0.8257
-26.5510 -17.2079 4.1201 0.8802
-24.7901 -17.3537 3.9406 0.8851
-15.1289 -11.4164 2.4681 0.9264
-21.4127 -17.3917 3.5922 0.8947
-16.1228 -17.4512 3.0939 0.9086
-15.0151 -17.4637 2.9991 0.9113
-11.1530 -17.5021 2.7026 0.9197
-10.4019 -17.6862 2.6719 0.9206
-9.4798 -17.5209 2.5941 0.9228
-7.9528 -17.5930 2.5142 0.9251
-5.8280 -17.7376 2.4313 0.9275
-5.0858 -17.5703 2.3819 0.9289
-4.3402 -20.3278 2.7068 0.9196
-3.8414 -27.4668 3.6116 0.8942
4.4835 -40.2458 5.2733 0.8493
31.8843 -31.6400 5.8494 0.8343
31.9430 -29.5115 5.6632 0.8391
31.9658 -27.4840 5.4897 0.8436
32.9419 -22.6847 5.2085 0.8510
38.6800 -22.7492 5.8435 0.8344
42.0509 -22.7520 6.2260 0.8246
40.9793 22.5814 6.0929 0.8280
-26.7421 -17.3318 3.4220 0.8797
-24.7901 -17.3538 3.2494 0.8854
-23.0951 -17.4277 3.1069 0.8901
-21.4127 -17.3917 2.9622 0.8950
-18.5707 -17.4237 2.7344 0.9026
-17.3043 -17.4379 2.6380 0.9059
-16.1228 -17.4512 2.5513 0.9088
-15.0151 -17.4637 2.4731 0.9115
-13.0224 -17.5360 2.3455 0.9159
-9.4798 -17.5209 2.1392 0.9230
-8.0071 -17.7131 2.0874 0.9248
-7.1891 -17.5467 2.0362 0.9266
-5.8280 -17.7376 2.0049 0.9276
-5.0858 -17.5703 1.9642 0.9291
-4.4146 -17.5779 1.9462 0.9297
-4.3404 -20.3284 2.2321 0.9198
-4.6059 -44.4487 4.7985 0.8355
1.5993 -40.4201 4.3438 0.8498
31.8976 -33.9973 5.0060 0.8290
31.8840 -31.6397 4.8234 0.8347
32.8754 -30.3729 4.8062 0.8352
34.0185 -25.2624 4.5500 0.8433
35.9622 -24.7646 4.6887 0.8389
37.7351 -24.0464 4.8049 0.8353
42.0509 -22.7520 5.1341 0.8250
30.8703 9.1935 3.4588 0.8785
23.7489 9.9442 2.7647 0.9016
40.9793 22.5814 5.0243 0.8284
-28.9160 -17.3074 2.8528 0.8735
-23.0950 -17.4277 2.4492 0.8903
-21.4127 -17.3917 2.3352 0.8952
-19.9349 -17.4083 2.2404 0.8992
-18.5707 -17.4237 2.1557 0.9028
-16.1228 -17.4512 2.0113 0.9090
-15.0151 -17.4637 1.9496 0.9117
-12.0455 -17.4921 1.7979 0.9183
-11.1530 -17.5021 1.7569 0.9201
-8.0071 -17.7131 1.6455 0.9249
-5.0858 -17.5703 1.5484 0.9292
-4.4145 -17.5779 1.5342 0.9298
-3.8241 -27.3436 2.3372 0.8951
-4.6062 -44.4518 3.7831 0.8358
33.9093 -36.1415 4.1953 0.8196
31.8837 -31.6394 3.8024 0.8350
33.9967 -27.1813 3.6847 0.8397
34.0182 -25.2622 3.5869 0.8436
38.9143 -24.7978 3.9062 0.8309
40.7974 -23.9946 4.0066 0.8270
30.8520 8.0010 2.6981 0.8799
30.8343 9.1827 2.7235 0.8788
-26.7421 -17.3318 1.9761 0.8801
-24.7901 -17.3538 1.8765 0.8858
-23.0951 -17.4277 1.7941 0.8905
-19.9349 -17.4083 1.6412 0.8994
-18.5706 -17.4237 1.5791 0.9030
-16.1228 -17.4512 1.4733 0.9092
-15.0151 -17.4637 1.4282 0.9118
-12.9819 -17.4815 1.3503 0.9164
-11.0051 -17.2700 1.2699 0.9212
-10.1627 -17.2795 1.2431 0.9228
-8.6312 -17.4100 1.2050 0.9251
-7.1272 -17.3955 1.1657 0.9274
-6.4150 -17.4035 1.1502 0.9284
-4.1804 -19.5790 1.2415 0.9229
31.8834 -31.6391 2.7854 0.8353
31.9650 -27.4833 2.6141 0.8446
32.9419 -22.6847 2.4802 0.8519
38.6800 -22.7492 2.7827 0.8354
42.0508 -22.7520 2.9648 0.8256
41.3910 22.8083 2.9306 0.8275
-28.9160 -17.3074 1.3288 0.8738
-26.5118 -17.1825 1.2457 0.8812
-24.6208 -17.2352 1.1851 0.8866
-22.8251 -17.2240 1.1275 0.8918
-21.2586 -17.2665 1.0799 0.8962
-19.8192 -17.3073 1.0375 0.9000
-18.5707 -17.4237 1.0041 0.9031
-17.3043 -17.4379 0.9687 0.9063
-16.1228 -17.4512 0.9368 0.9093
-15.0151 -17.4637 0.9081 0.9119
-13.9681 -17.4704 0.8820 0.9144
-12.0455 -17.4921 0.8375 0.9185
-10.3603 -17.6153 0.8058 0.9214
-9.4798 -17.5209 0.7855 0.9234
-8.0071 -17.7131 0.7665 0.9251
-7.1891 -17.5467 0.7477 0.9269
-5.8280 -17.7376 0.7362 0.9280
-5.0858 -17.5703 0.7213 0.9294
-4.4146 -17.5779 0.7146 0.9300
-4.3408 -20.3304 0.8197 0.9201
-3.9148 -27.9920 1.1145 0.8930
31.0073 -35.5075 1.8588 0.8280
31.8831 -31.6388 1.7711 0.8354
33.8303 -29.0871 1.7592 0.8364
33.6971 -26.9417 1.7012 0.8414
33.7184 -25.0396 1.6561 0.8452
35.3380 -24.3348 1.6918 0.8422
37.9704 -24.1963 1.7754 0.8351
38.8047 -22.8226 1.7751 0.8351
20.6511 7.7930 0.8703 0.9154
19.1906 8.8534 0.8333 0.9189
18.6239 9.4122 0.8228 0.9199
41.0718 22.6323 1.8491 0.8288
-28.9160 -17.3074 0.5693 0.8739
-26.7421 -17.3318 0.5383 0.8803
-18.5707 -17.4237 0.4301 0.9031
-13.9681 -17.4704 0.3778 0.9144
-13.0224 -17.5360 0.3690 0.9163
-12.0455 -17.4921 0.3588 0.9185
-9.4798 -17.5209 0.3365 0.9234
-8.0071 -17.7131 0.3284 0.9252
-6.4708 -17.5547 0.3160 0.9279
-5.8280 -17.7376 0.3154 0.9280
-5.0858 -17.5703 0.3090 0.9294
-4.4146 -17.5779 0.3061 0.9301
-3.9150 -27.9934 0.4775 0.8931
-1.9223 -28.4124 0.4810 0.8923
-1.0077 -31.6251 0.5345 0.8811
31.8829 -31.6386 0.7587 0.8355
31.9037 -29.4751 0.7337 0.8405
38.5222 -22.6564 0.7549 0.8363
42.0508 -22.7520 0.8076 0.8259
19.9452 8.3516 0.3653 0.9171
18.5478 9.3737 0.3510 0.9202
20.6265 11.3661 0.3978 0.9101
-26.7421 -17.3318 -0.1794 0.8803
-23.2527 -17.5466 -0.1640 0.8900
-21.2886 -17.2909 -0.1544 0.8961
-19.8192 -17.3074 -0.1481 0.9001
-18.5707 -17.4237 -0.1434 0.9032
-17.3043 -17.4379 -0.1383 0.9064
-13.9681 -17.4704 -0.1259 0.9144
-13.0787 -17.6119 -0.1235 0.9160
-11.1294 -17.4650 -0.1166 0.9205
-8.0071 -17.7131 -0.1094 0.9252
-7.1891 -17.5466 -0.1068 0.9270
-5.0858 -17.5703 -0.1030 0.9294
-4.4146 -17.5779 -0.1020 0.9301
-3.9152 -27.9948 -0.1592 0.8931
-4.6075 -44.4638 -0.2517 0.8363
30.1440 -32.1284 -0.2480 0.8384
30.3727 -28.0607 -0.2328 0.8475
33.8297 -29.0866 -0.2512 0.8366
30.3768 -24.2871 -0.2190 0.8559
33.8739 -25.1550 -0.2376 0.8447
35.7472 -24.6165 -0.2444 0.8406
23.6524 9.9038 -0.1444 0.9025
19.6235 9.0531 -0.1217 0.9172
41.8357 23.0533 -0.2689 0.8261
-28.9160 -17.3074 -0.9489 0.8738
-26.7421 -17.3318 -0.8973 0.8803
-21.2885 -17.2909 -0.7722 0.8961
-19.8192 -17.3074 -0.7409 0.9001
-18.5707 -17.4237 -0.7170 0.9031
-16.1228 -17.4512 -0.6690 0.9093
-13.9681 -17.4704 -0.6298 0.9144
-8.6906 -17.5298 -0.5509 0.9247
-7.1891 -17.5467 -0.5339 0.9269
-5.0858 -17.5703 -0.5151 0.9294
-3.9154 -27.9962 -0.7959 0.8930
29.7964 -22.1270 -1.0450 0.8620
30.0820 -20.7153 -1.0285 0.8640
30.3876 -19.3642 -1.0146 0.8657
30.7376 -18.0780 -1.0041 0.8670
31.4048 -16.9918 -1.0054 0.8669
33.9222 -15.3343 -1.0482 0.8616
39.9333 -14.7197 -1.1984 0.8434
44.8301 -14.7296 -1.3287 0.8279
21.9989 10.1490 -0.6822 0.9076
41.7825 23.0240 -1.3433 0.8262
-28.9160 -17.3074 -1.7091 0.8737
-26.7421 -17.3318 -1.6161 0.8802
-22.9603 -17.3261 -1.4587 0.8912
-18.3937 -17.2577 -1.2791 0.9039
-17.1394 -17.2718 -1.2340 0.9071
-14.9381 -17.3741 -1.1620 0.9123
-13.0787 -17.6119 -1.1125 0.9159
-11.1295 -17.4651 -1.0503 0.9204
-9.4798 -17.5209 -1.0103 0.9233
-8.6906 -17.5298 -0.9923 0.9246
-6.4708 -17.5547 -0.9488 0.9278
-5.8280 -17.7376 -0.9469 0.9279
-5.0858 -17.5703 -0.9276 0.9294
-4.4146 -17.5779 -0.9191 0.9300
-4.2132 -23.8776 -1.2296 0.9075
-4.2614 -41.1244 -2.0968 0.8474
-3.1261 -46.2056 -2.3486 0.8307
-1.4752 -46.2966 -2.3491 0.8307
3.7098 -49.2100 -2.5027 0.8207
5.4650 -49.0558 -2.5032 0.8206
7.2138 -48.8391 -2.5037 0.8206
8.9541 -48.5598 -2.5042 0.8206
10.6837 -48.2186 -2.5047 0.8205
12.0858 -46.6030 -2.4416 0.8246
14.8734 -44.1205 -2.3613 0.8299
17.4503 -46.2421 -2.5066 0.8204
20.7122 -44.8956 -2.5075 0.8203
22.3054 -44.1356 -2.5079 0.8203
25.4059 -42.4465 -2.5088 0.8203
26.6521 -38.0730 -2.3569 0.8302
29.3095 -36.0859 -2.3577 0.8301
29.4256 -31.3626 -2.1810 0.8418
29.4576 -29.2319 -2.1046 0.8469
29.5419 -23.6196 -1.9182 0.8594
32.2254 -15.9762 -1.8241 0.8658
35.2583 -14.4458 -1.9324 0.8585
38.5463 -14.2084 -2.0834 0.8483
48.8435 -8.6185 -2.5153 0.8198
49.4886 -3.3483 -2.5155 0.8198
49.6021 0.1907 -2.5155 0.8198
49.5635 1.9610 -2.5155 0.8198
49.2958 5.4917 -2.5155 0.8198
49.0462 7.2444 -2.5143 0.8199
28.4151 8.4623 -1.5036 0.8880
43.8805 16.5591 -2.3785 0.8287
23.6141 9.8878 -1.2983 0.9025
21.9988 10.1489 -1.2287 0.9075
41.3910 22.8083 -2.3967 0.8276
-26.7421 -17.3318 -2.3366 0.8800
-24.7901 -17.3538 -2.2188 0.8857
-19.9349 -17.4084 -1.9405 0.8993
-17.3043 -17.4379 -1.8013 0.9062
-16.1228 -17.4512 -1.7421 0.9091
-15.0152 -17.4637 -1.6887 0.9118
-13.9681 -17.4704 -1.6401 0.9142
-10.3603 -17.6153 -1.4984 0.9213
-8.6556 -17.4592 -1.4288 0.9248
-6.4283 -17.4394 -1.3628 0.9282
-5.7287 -17.4356 -1.3457 0.9290
-4.3779 -17.4318 -1.3178 0.9305
-4.3309 -20.2842 -1.5208 0.9202
-4.3929 -24.8956 -1.8536 0.9036
-3.9158 -27.9989 -2.0729 0.8928
-3.3015 -31.8606 -2.3486 0.8794
1.2671 -32.0235 -2.3499 0.8794
2.5656 -34.0326 -2.5024 0.8721
3.7792 -33.9240 -2.5028 0.8721
4.9883 -33.7720 -2.5031 0.8720
8.5732 -33.0584 -2.5041 0.8720
10.9126 -32.3710 -2.5048 0.8720
13.1974 -31.5180 -2.5054 0.8719
15.4160 -30.5037 -2.5060 0.8719
19.6094 -28.0124 -2.5072 0.8718
20.5991 -27.2977 -2.5075 0.8718
21.5626 -26.5479 -2.5077 0.8718
24.2842 -24.0982 -2.5085 0.8718
25.1312 -23.2182 -2.5087 0.8718
26.2479 -20.9859 -2.4641 0.8739
26.2923 -19.5248 -2.4012 0.8769
12.5992 -8.0287 -1.0954 0.9418
29.6504 -13.4033 -2.3858 0.8777
32.5322 -10.6890 -2.5108 0.8717
32.8944 -9.5214 -2.5109 0.8717
33.4920 -7.1510 -2.5111 0.8717
33.9185 -4.7437 -2.5112 0.8717
34.0667 -3.5301 -2.5112 0.8717
34.1714 -2.3119 -2.5113 0.8717
34.2230 1.3541 -2.5113 0.8717
34.1526 2.5747 -2.5113 0.8717
34.0385 3.7920 -2.5112 0.8717
33.8810 5.0044 -2.5112 0.8717
30.4749 10.2734 -2.3580 0.8790
23.5950 9.8798 -1.8756 0.9025
19.6259 9.0542 -1.5848 0.9170
20.9815 10.6037 -1.7237 0.9100
28.2879 15.5879 -2.3682 0.8785
-20.0014 -14.0015 -2.3440 0.9065
-17.2033 -17.3361 -2.3447 0.9065
-16.1228 -17.4512 -2.2810 0.9089
-15.0152 -17.4637 -2.2111 0.9116
-13.9681 -17.4704 -2.1474 0.9140
-11.1531 -17.5021 -1.9925 0.9200
-10.3603 -17.6153 -1.9620 0.9212
-6.4708 -17.5547 -1.7962 0.9276
-5.4474 -16.5794 -1.6754 0.9323
-4.2505 -24.0885 -2.3483 0.9064
-3.3883 -24.2273 -2.3486 0.9064
-2.5217 -24.3354 -2.3488 0.9064
-1.6517 -24.4124 -2.3491 0.9064
-0.7794 -24.4583 -2.3493 0.9063
0.0941 -24.4730 -2.3496 0.9063
0.9677 -24.4566 -2.3498 0.9063
1.9554 -25.9386 -2.4973 0.9008
4.7278 -25.6398 -2.5030 0.9005
6.5462 -25.2422 -2.5035 0.9005
8.3319 -24.7158 -2.5040 0.9005
9.2097 -24.4051 -2.5043 0.9005
10.0758 -24.0631 -2.5045 0.9005
10.9293 -23.6904 -2.5048 0.9005
14.1037 -20.1473 -2.3611 0.9059
14.8150 -19.6327 -2.3613 0.9059
17.1729 -19.6653 -2.5065 0.9004
18.5349 -18.3929 -2.5069 0.9004
19.1809 -17.7208 -2.5071 0.9004
19.8026 -17.0261 -2.5072 0.9004
11.8156 -8.7743 -1.4129 0.9426
12.0431 -8.2932 -1.4038 0.9429
12.3503 -7.8701 -1.4060 0.9428
12.6301 -7.4283 -1.4067 0.9428
12.9475 -7.0054 -1.4133 0.9426
24.8248 -8.1566 -2.5086 0.9003
25.1008 -7.2655 -2.5087 0.9003
25.3449 -6.3652 -2.5088 0.9003
25.7355 -4.5411 -2.5089 0.9003
26.0745 -1.7641 -2.5090 0.9003
26.1210 -0.8323 -2.5090 0.9003
26.1138 1.0332 -2.5090 0.9003
26.0601 1.9646 -2.5090 0.9003
25.6998 4.7389 -2.5089 0.9003
25.5138 5.6530 -2.5089 0.9003
25.2952 6.5600 -2.5088 0.9003
24.9995 7.4451 -2.5042 0.9005
23.2549 7.8395 -2.3560 0.9061
22.9595 8.6642 -2.3559 0.9061
22.6347 9.4778 -2.3559 0.9061
22.2811 10.2792 -2.3558 0.9061
21.4890 11.8414 -2.3555 0.9061
-16.1729 -11.3214 -2.3450 0.9236
-15.7592 -11.8920 -2.3452 0.9236
-14.8722 -12.9873 -2.3454 0.9235
-14.4000 -13.5106 -2.3455 0.9235
-13.9095 -14.0168 -2.3457 0.9235
-13.4011 -14.5052 -2.3458 0.9235
-11.2033 -16.2690 -2.3464 0.9235
-10.6162 -16.6596 -2.3466 0.9235
-9.4020 -17.3770 -2.3469 0.9235
-6.4708 -17.5547 -2.2224 0.9274
-5.0858 -17.5703 -2.1728 0.9290
-4.4146 -17.5779 -2.1528 0.9296
-4.1281 -19.3341 -2.3484 0.9235
-3.4356 -19.4707 -2.3486 0.9234
-1.3350 -19.7313 -2.3492 0.9234
-0.6299 -19.7680 -2.3494 0.9234
0.7821 -19.7659 -2.3497 0.9234
2.3324 -20.9367 -2.5024 0.9186
3.0785 -20.8419 -2.5026 0.9186
3.8207 -20.7204 -2.5028 0.9186
5.2900 -20.3984 -2.5032 0.9186
6.0152 -20.1982 -2.5034 0.9186
7.4420 -19.7208 -2.5038 0.9186
8.1417 -19.4441 -2.5040 0.9186
9.5096 -18.8166 -2.5044 0.9186
10.1759 -18.4666 -2.5046 0.9186
11.4690 -17.6961 -2.5049 0.9186
12.5291 -15.4259 -2.3606 0.9231
13.0726 -14.9698 -2.3608 0.9231
13.5994 -14.4946 -2.3609 0.9231
14.4018 -14.2914 -2.4101 0.9215
11.9404 -8.2225 -1.7221 0.9433
12.5582 -7.3860 -1.7306 0.9430
12.8591 -6.9575 -1.7367 0.9428
13.5157 -6.1097 -1.7619 0.9420
13.8206 -5.6625 -1.7741 0.9416
20.0532 -6.5888 -2.5073 0.9185
20.2761 -5.8690 -2.5074 0.9185
20.7885 -3.6682 -2.5075 0.9185
21.0621 -1.4250 -2.5076 0.9185
21.0997 -0.6723 -2.5076 0.9185
20.8833 3.0846 -2.5076 0.9185
20.7597 3.8279 -2.5075 0.9185
20.6095 4.5664 -2.5075 0.9185
20.4330 5.2990 -2.5074 0.9185
19.7135 7.4393 -2.5029 0.9186
18.2998 7.6626 -2.3566 0.9232
17.9989 8.3036 -2.3546 0.9233
17.6904 8.9404 -2.3545 0.9233
-14.7924 -9.5871 -2.4976 0.9313
-14.4414 -10.1094 -2.4977 0.9313
-14.0719 -10.6188 -2.4978 0.9313
-13.6599 -11.0947 -2.4934 0.9314
-11.6642 -11.7542 -2.3463 0.9353
-11.2378 -12.1637 -2.3464 0.9353
-10.3425 -12.9358 -2.3467 0.9353
-8.3982 -14.2792 -2.3472 0.9353
-7.8837 -14.5708 -2.3473 0.9353
-7.3590 -14.8438 -2.3475 0.9353
-4.9744 -12.1411 -1.8590 0.9484
-5.1730 -15.7441 -2.3481 0.9352
-3.4611 -16.2101 -2.3486 0.9352
-2.8805 -16.3245 -2.3487 0.9352
-2.2961 -16.4180 -2.3489 0.9352
-1.7088 -16.4906 -2.3491 0.9352
-0.5281 -16.5728 -2.3494 0.9352
0.6556 -16.5706 -2.3497 0.9352
1.3246 -17.5706 -2.4966 0.9313
1.9553 -17.5517 -2.5023 0.9311
3.2029 -17.3699 -2.5026 0.9311
4.4345 -17.0995 -2.5030 0.9311
5.6438 -16.7419 -2.5033 0.9311
6.2382 -16.5308 -2.5035 0.9311
6.8247 -16.2987 -2.5036 0.9311
7.4026 -16.0458 -2.5038 0.9311
7.9711 -15.7723 -2.5040 0.9311
8.5295 -15.4787 -2.5041 0.9311
10.6480 -14.1106 -2.5047 0.9311
11.6288 -13.3165 -2.5050 0.9311
12.0973 -12.8936 -2.5051 0.9311
12.5504 -12.4543 -2.5052 0.9311
13.4082 -11.5283 -2.5055 0.9311
12.2407 -7.8003 -2.0566 0.9430
12.8870 -6.9726 -2.0761 0.9425
13.1874 -6.5378 -2.0855 0.9423
16.5975 -6.1179 -2.5064 0.9310
16.8057 -5.5218 -2.5064 0.9310
16.9924 -4.9185 -2.5065 0.9310
17.1574 -4.3090 -2.5065 0.9310
17.5969 -1.8234 -2.5066 0.9310
17.6823 -0.5634 -2.5067 0.9310
17.6775 0.6994 -2.5067 0.9310
17.5824 1.9587 -2.5066 0.9310
17.3975 3.2080 -2.5066 0.9310
17.2716 3.8269 -2.5066 0.9310
17.1238 4.4408 -2.5065 0.9310
16.3161 6.8320 -2.5063 0.9310
16.0378 7.3989 -2.5025 0.9311
14.5484 8.0169 -2.3536 0.9351
-13.0115 -7.7879 -2.4981 0.9404
-12.7256 -8.2476 -2.4982 0.9404
-12.1057 -9.1350 -2.4984 0.9404
-11.4240 -9.9761 -2.4986 0.9404
-11.0611 -10.3779 -2.4987 0.9404
-10.6841 -10.7666 -2.4988 0.9404
-9.0245 -11.2872 -2.3807 0.9431
-8.0812 -11.7352 -2.3473 0.9439
-7.6576 -12.0167 -2.3474 0.9439
-6.3301 -12.7684 -2.3478 0.9439
-5.8707 -12.9870 -2.3479 0.9439
-4.9564 -12.0972 -2.1537 0.9484
-4.9298 -13.3742 -2.3482 0.9439
-3.4725 -13.8269 -2.3486 0.9438
-2.9770 -13.9428 -2.3487 0.9438
-2.4776 -14.0410 -2.3488 0.9438
-1.9749 -14.1214 -2.3490 0.9438
-1.4698 -14.1837 -2.3491 0.9438
0.0583 -15.1565 -2.4969 0.9404
0.6004 -15.1752 -2.5019 0.9403
1.1417 -15.1450 -2.5021 0.9403
2.2195 -15.0268 -2.5024 0.9403
2.7546 -14.9388 -2.5025 0.9403
3.2863 -14.8319 -2.5026 0.9403
3.8138 -14.7060 -2.5028 0.9403
4.8537 -14.3981 -2.5031 0.9403
5.3649 -14.2165 -2.5032 0.9403
5.8692 -14.0168 -2.5034 0.9403
6.8549 -13.5638 -2.5036 0.9402
7.3351 -13.3112 -2.5038 0.9402
7.8059 -13.0416 -2.5039 0.9402
8.2669 -12.7554 -2.5040 0.9402
9.1567 -12.1343 -2.5043 0.9402
9.5844 -11.8003 -2.5044 0.9402
10.4027 -11.0875 -2.5046 0.9402
10.7923 -10.7096 -2.5047 0.9402
11.1682 -10.3180 -2.5048 0.9402
11.5298 -9.9132 -2.5049 0.9402
12.2085 -9.0661 -2.5051 0.9402
11.9101 -8.2016 -2.3823 0.9431
13.3763 -7.2374 -2.5055 0.9402
13.6264 -6.7555 -2.5055 0.9402
13.8592 -6.2650 -2.5056 0.9402
14.2715 -5.2606 -2.5057 0.9402
14.6110 -4.2292 -2.5058 0.9402
14.7529 -3.7051 -2.5058 0.9402
14.8759 -3.1762 -2.5059 0.9402
15.1306 -1.5679 -2.5060 0.9402
15.1999 0.6014 -2.5060 0.9402
15.1687 1.1435 -2.5060 0.9402
15.1181 1.6842 -2.5060 0.9402
14.9592 2.7584 -2.5059 0.9402
14.5780 4.3415 -2.5058 0.9402
-11.4060 -6.8270 -2.4986 0.9473
-10.6118 -8.0078 -2.4988 0.9473
-10.3196 -8.3817 -2.4989 0.9473
-9.6960 -9.0972 -2.4990 0.9473
-8.6690 -10.0827 -2.4993 0.9473
-8.3040 -10.3861 -2.4994 0.9473
-7.1311 -11.1906 -2.4942 0.9474
-6.1834 -11.4284 -2.4424 0.9485
-3.9798 -12.1128 -2.3965 0.9494
-3.1453 -12.5239 -2.4271 0.9488
-2.7267 -12.7706 -2.4545 0.9482
-2.3027 -13.0498 -2.4908 0.9475
-1.3714 -13.2347 -2.5009 0.9473
0.0512 -13.3099 -2.5018 0.9473
0.5263 -13.3003 -2.5019 0.9473
1.9453 -13.1699 -2.5023 0.9473
2.4142 -13.0927 -2.5024 0.9473
3.8005 -12.7616 -2.5028 0.9472
4.2538 -12.6185 -2.5029 0.9472
4.7017 -12.4592 -2.5030 0.9472
5.1437 -12.2841 -2.5032 0.9472
6.8408 -11.4292 -2.5036 0.9472
7.2447 -11.1782 -2.5038 0.9472
8.7633 -10.0351 -2.5042 0.9472
10.4077 -8.3213 -2.5046 0.9472
10.6984 -7.9447 -2.5047 0.9472
10.9755 -7.5580 -2.5048 0.9472
11.2386 -7.1617 -2.5049 0.9472
11.4874 -6.7562 -2.5049 0.9472
12.1447 -5.4899 -2.5051 0.9472
12.6627 -4.1605 -2.5053 0.9472
12.8033 -3.7060 -2.5053 0.9472
12.9276 -3.2467 -2.5053 0.9472
13.1266 -2.3162 -2.5054 0.9472
13.2010 -1.8462 -2.5054 0.9472
13.2992 -0.8998 -2.5054 0.9472
13.3229 -0.4245 -2.5055 0.9472
13.3192 0.5270 -2.5055 0.9472
13.1864 1.9477 -2.5054 0.9472
13.1084 2.4171 -2.5054 0.9472
13.0136 2.8834 -2.5054 0.9472
12.6303 4.2578 -2.5053 0.9472
12.4701 4.7058 -2.5052 0.9472
12.2939 5.1478 -2.5052 0.9472
11.6724 6.4320 -2.5050 0.9472
-9.6853 -6.7799 -2.4990 0.9528
-8.9058 -7.7771 -2.4993 0.9528
-8.3288 -8.3931 -2.4994 0.9528
-7.7094 -8.9666 -2.4996 0.9528
-7.0506 -9.4944 -2.4998 0.9528
-5.6285 -10.4028 -2.5002 0.9528
-5.2539 -10.5975 -2.5003 0.9528
-4.8725 -10.7787 -2.5004 0.9528
-4.4848 -10.9462 -2.5005 0.9528
-3.2895 -11.3644 -2.5008 0.9528
-2.8819 -11.4751 -2.5009 0.9528
-2.4706 -11.5712 -2.5011 0.9528
-1.2197 -11.7706 -2.5014 0.9528
-0.7988 -11.8072 -2.5015 0.9528
-0.3769 -11.8288 -2.5016 0.9528
0.0455 -11.8352 -2.5018 0.9528
0.4679 -11.8266 -2.5019 0.9528
0.8898 -11.8029 -2.5020 0.9528
1.3106 -11.7642 -2.5021 0.9528
1.7297 -11.7105 -2.5022 0.9528
2.1467 -11.6418 -2.5023 0.9528
2.9720 -11.4601 -2.5026 0.9527
3.3793 -11.3472 -2.5027 0.9527
3.7823 -11.2199 -2.5028 0.9527
4.1806 -11.0782 -2.5029 0.9527
4.5735 -10.9224 -2.5030 0.9527
4.9606 -10.7527 -2.5031 0.9527
6.0824 -10.1621 -2.5034 0.9527
6.4415 -9.9389 -2.5035 0.9527
8.7015 -8.0392 -2.5042 0.9527
8.9832 -7.7237 -2.5042 0.9527
9.2535 -7.3984 -2.5043 0.9527
9.5119 -7.0636 -2.5044 0.9527
9.7582 -6.7198 -2.5045 0.9527
10.2133 -6.0068 -2.5046 0.9527
10.6162 -5.2632 -2.5047 0.9527
10.7975 -4.8810 -2.5047 0.9527
10.9651 -4.4926 -2.5048 0.9527
11.4935 -2.8865 -2.5049 0.9527
11.6704 -2.0593 -2.5050 0.9527
11.7365 -1.6414 -2.5050 0.9527
11.8238 -0.8000 -2.5050 0.9527
11.8449 -0.3774 -2.5050 0.9527
11.8508 0.0456 -2.5050 0.9527
11.8174 0.8908 -2.5050 0.9527
11.7780 1.3121 -2.5050 0.9527
11.7236 1.7316 -2.5050 0.9527
11.6542 2.1489 -2.5050 0.9527
11.5700 2.5635 -2.5050 0.9527
11.4710 2.9748 -2.5049 0.9527
11.3573 3.3823 -2.5049 0.9527
10.7597 4.9639 -2.5047 0.9527
10.3777 5.7186 -2.5046 0.9527
-9.1243 -5.4613 -2.4992 0.9572
-8.7119 -6.0986 -2.4993 0.9572
-8.2551 -6.7049 -2.4994 0.9572
-8.0107 -6.9954 -2.4995 0.9572
-7.7561 -7.2771 -2.4996 0.9572
-7.4917 -7.5495 -2.4997 0.9572
-6.6424 -8.3079 -2.4999 0.9572
-5.3932 -9.1699 -2.5002 0.9572
-5.0626 -9.3569 -2.5003 0.9572
-4.7256 -9.5320 -2.5004 0.9572
-4.0339 -9.8456 -2.5006 0.9572
-3.3215 -10.1090 -2.5008 0.9572
-2.9587 -10.2216 -2.5009 0.9572
-2.2221 -10.4074 -2.5011 0.9572
-1.8493 -10.4806 -2.5012 0.9572
-1.0970 -10.5867 -2.5014 0.9572
-0.3390 -10.6388 -2.5016 0.9572
1.5557 -10.5322 -2.5022 0.9572
3.4017 -10.0907 -2.5027 0.9572
3.7598 -9.9633 -2.5028 0.9572
4.1132 -9.8231 -2.5029 0.9572
4.8039 -9.5054 -2.5031 0.9572
5.1403 -9.3282 -2.5032 0.9572
6.4164 -8.5030 -2.5035 0.9572
6.7160 -8.2688 -2.5036 0.9572
7.5622 -7.5042 -2.5038 0.9572
8.0787 -6.9460 -2.5040 0.9572
8.3217 -6.6534 -2.5041 0.9572
8.5541 -6.3523 -2.5041 0.9572
8.9859 -5.7262 -2.5042 0.9572
9.1848 -5.4019 -2.5043 0.9572
10.1242 -3.3265 -2.5046 0.9572
10.6490 0.4213 -2.5047 0.9572
10.6271 0.8012 -2.5047 0.9572
10.5917 1.1799 -2.5047 0.9572
10.5428 1.5572 -2.5047 0.9572
10.4804 1.9325 -2.5047 0.9572
10.3157 2.6752 -2.5046 0.9572
10.0983 3.4042 -2.5046 0.9572
9.3326 5.1427 -2.5044 0.9572
-8.2831 -4.9577 -2.4994 0.9609
-7.9086 -5.5363 -2.4995 0.9609
-7.4939 -6.0866 -2.4997 0.9609
-7.2720 -6.3504 -2.4997 0.9609
-6.8008 -6.8533 -2.4999 0.9609
-6.5521 -7.0919 -2.4999 0.9609
-6.2949 -7.3214 -2.5000 0.9609
-6.0298 -7.5417 -2.5001 0.9609
-5.7569 -7.7523 -2.5001 0.9609
-3.9783 -8.8006 -2.5006 0.9609
-3.6617 -8.9373 -2.5007 0.9609
-2.0171 -9.4472 -2.5012 0.9609
-1.3381 -9.5677 -2.5014 0.9609
-0.9958 -9.6098 -2.5015 0.9609
-0.6522 -9.6396 -2.5016 0.9609
-0.3077 -9.6571 -2.5017 0.9609
0.7264 -9.6357 -2.5019 0.9609
2.0906 -9.4357 -2.5023 0.9609
2.4262 -9.3554 -2.5024 0.9609
2.7587 -9.2632 -2.5025 0.9609
3.0876 -9.1592 -2.5026 0.9608
3.4127 -9.0435 -2.5027 0.9608
3.7334 -8.9162 -2.5028 0.9608
4.6657 -8.4669 -2.5030 0.9608
4.9650 -8.2953 -2.5031 0.9608
5.2581 -8.1130 -2.5032 0.9608
5.5445 -7.9204 -2.5033 0.9608
6.8637 -6.8111 -2.5037 0.9608
7.1027 -6.5620 -2.5037 0.9608
7.3325 -6.3045 -2.5038 0.9608
8.6652 -4.2959 -2.5042 0.9608
9.1889 -3.0192 -2.5043 0.9608
9.5254 -1.6808 -2.5044 0.9608
9.5794 -1.3397 -2.5044 0.9608
9.6211 -0.9970 -2.5044 0.9608
9.6678 -0.3081 -2.5044 0.9608
9.6727 0.0372 -2.5044 0.9608
9.6132 1.0709 -2.5044 0.9608
9.5688 1.4134 -2.5044 0.9608
9.5122 1.7540 -2.5044 0.9608
9.2700 2.7607 -2.5043 0.9608
9.0492 3.4149 -2.5043 0.9608
8.9214 3.7356 -2.5042 0.9608
8.7822 4.0516 -2.5042 0.9608
8.6319 4.3624 -2.5042 0.9608
8.4705 4.6676 -2.5041 0.9608
-6.8544 -5.5672 -2.4998 0.9640
-6.6515 -5.8085 -2.4999 0.9640
-6.2204 -6.2685 -2.5000 0.9640
-5.9929 -6.4867 -2.5001 0.9640
-4.4779 -7.6136 -2.5005 0.9639
-4.2034 -7.7688 -2.5006 0.9639
-3.3492 -8.1744 -2.5008 0.9639
-3.0554 -8.2890 -2.5009 0.9639
-2.4564 -8.4864 -2.5011 0.9639
-2.1520 -8.5689 -2.5011 0.9639
-1.8449 -8.6406 -2.5012 0.9639
-1.5354 -8.7013 -2.5013 0.9639
-1.2238 -8.7508 -2.5014 0.9639
-0.5965 -8.8164 -2.5016 0.9639
-0.2814 -8.8324 -2.5017 0.9639
0.0340 -8.8371 -2.5018 0.9639
1.6028 -8.6922 -2.5022 0.9639
1.9121 -8.6298 -2.5023 0.9639
2.2190 -8.5563 -2.5024 0.9639
2.8239 -8.3768 -2.5025 0.9639
3.7035 -8.0277 -2.5028 0.9639
3.9878 -7.8907 -2.5029 0.9639
4.2670 -7.7435 -2.5029 0.9639
4.5408 -7.5865 -2.5030 0.9639
5.0708 -7.2437 -2.5032 0.9639
5.3262 -7.0583 -2.5032 0.9639
5.8165 -6.6607 -2.5034 0.9639
6.4957 -6.0012 -2.5036 0.9639
6.7059 -5.7657 -2.5036 0.9639
7.1004 -5.2729 -2.5037 0.9639
7.2843 -5.0162 -2.5038 0.9639
7.6238 -4.4839 -2.5039 0.9639
7.7792 -4.2090 -2.5039 0.9639
8.0599 -3.6434 -2.5040 0.9639
8.2995 -3.0592 -2.5041 0.9639
8.4035 -2.7611 -2.5041 0.9639
8.6507 -1.8470 -2.5042 0.9639
8.7112 -1.5371 -2.5042 0.9639
8.7987 -0.9117 -2.5042 0.9639
8.8458 0.0340 -2.5042 0.9639
8.7509 1.2925 -2.5042 0.9639
8.6991 1.6041 -2.5042 0.9639
8.5624 2.2205 -2.5041 0.9639
8.3820 2.8256 -2.5041 0.9639
8.1589 3.4163 -2.5040 0.9639
7.8941 3.9896 -2.5040 0.9639
-6.8203 -4.4203 -2.4998 0.9666
-6.6583 -4.6610 -2.4999 0.9666
-6.3091 -5.1244 -2.5000 0.9666
-6.1223 -5.3464 -2.5000 0.9666
-5.9277 -5.5616 -2.5001 0.9666
-5.5161 -5.9706 -2.5002 0.9666
-5.2996 -6.1638 -2.5003 0.9666
-4.6107 -6.6955 -2.5005 0.9666
-4.3689 -6.8560 -2.5005 0.9665
-4.1215 -7.0078 -2.5006 0.9665
-3.8689 -7.1506 -2.5007 0.9665
-3.3491 -7.4088 -2.5008 0.9665
-3.0826 -7.5239 -2.5009 0.9665
-2.8122 -7.6293 -2.5010 0.9665
-1.9808 -7.8870 -2.5012 0.9665
-1.1264 -8.0543 -2.5014 0.9665
-0.8383 -8.0896 -2.5015 0.9665
-0.2590 -8.1293 -2.5017 0.9665
0.0313 -8.1336 -2.5018 0.9665
0.3216 -8.1276 -2.5018 0.9665
0.6115 -8.1112 -2.5019 0.9665
1.4752 -8.0001 -2.5022 0.9665
2.0423 -7.8750 -2.5023 0.9665
2.3221 -7.7973 -2.5024 0.9665
2.8726 -7.6123 -2.5025 0.9665
3.4086 -7.3884 -2.5027 0.9665
3.6702 -7.2622 -2.5028 0.9665
4.6669 -6.6667 -2.5030 0.9665
5.1309 -6.3171 -2.5032 0.9665
5.3532 -6.1301 -2.5032 0.9665
5.9782 -5.5232 -2.5034 0.9665
6.1717 -5.3064 -2.5035 0.9665
6.5348 -4.8528 -2.5036 0.9665
6.8646 -4.3744 -2.5037 0.9665
7.1594 -3.8737 -2.5037 0.9665
7.2932 -3.6157 -2.5038 0.9665
7.4177 -3.3531 -2.5038 0.9665
7.5328 -3.0863 -2.5038 0.9665
7.6382 -2.8155 -2.5039 0.9665
7.7339 -2.5411 -2.5039 0.9665
7.8198 -2.2635 -2.5039 0.9665
7.9614 -1.6999 -2.5040 0.9665
8.0625 -1.1276 -2.5040 0.9665
8.0977 -0.8391 -2.5040 0.9665
8.1225 -0.5495 -2.5040 0.9665
8.1369 -0.2593 -2.5040 0.9665
8.1410 0.0313 -2.5040 0.9665
8.1347 0.3219 -2.5040 0.9665
8.1180 0.6120 -2.5040 0.9665
8.0536 1.1896 -2.5040 0.9665
7.8801 2.0436 -2.5039 0.9665
7.7141 2.6005 -2.5039 0.9665
-6.4532 -3.8625 -2.5000 0.9688
-6.3113 -4.0904 -2.5000 0.9688
-6.1614 -4.3131 -2.5000 0.9688
-5.8382 -4.7419 -2.5001 0.9688
-4.9040 -5.7037 -2.5004 0.9688
-4.6974 -5.8752 -2.5004 0.9688
-4.4848 -6.0393 -2.5005 0.9688
-3.5801 -6.6167 -2.5007 0.9688
-3.3417 -6.7405 -2.5008 0.9688
-2.8525 -6.9621 -2.5009 0.9688
-2.3487 -7.1483 -2.5011 0.9688
-2.0921 -7.2277 -2.5012 0.9688
-1.8328 -7.2980 -2.5012 0.9688
-1.3076 -7.4106 -2.5014 0.9688
-1.0423 -7.4528 -2.5015 0.9688
-0.7757 -7.4854 -2.5015 0.9688
-0.5080 -7.5086 -2.5016 0.9688
-0.2397 -7.5221 -2.5017 0.9688
0.8334 -7.4806 -2.5020 0.9688
1.0999 -7.4463 -2.5020 0.9688
1.3650 -7.4025 -2.5021 0.9688
1.6284 -7.3493 -2.5022 0.9688
1.8897 -7.2867 -2.5023 0.9688
2.6580 -7.0436 -2.5025 0.9688
3.1539 -6.8364 -2.5026 0.9688
3.3960 -6.7196 -2.5027 0.9688
3.6337 -6.5943 -2.5028 0.9688
3.8669 -6.4606 -2.5028 0.9688
4.5357 -6.0107 -2.5030 0.9688
4.9532 -5.6720 -2.5031 0.9688
5.1526 -5.4918 -2.5032 0.9688
5.5314 -5.1104 -2.5033 0.9688
5.7104 -4.9098 -2.5033 0.9688
6.2029 -4.2715 -2.5035 0.9688
6.4920 -3.8182 -2.5036 0.9688
6.6243 -3.5841 -2.5036 0.9688
6.8633 -3.1025 -2.5037 0.9688
7.1558 -2.3512 -2.5037 0.9687
7.3663 -1.5728 -2.5038 0.9687
7.5266 0.2978 -2.5038 0.9687
7.5112 0.5663 -2.5038 0.9687
7.4516 1.1006 -2.5038 0.9687
7.3540 1.6294 -2.5038 0.9687
7.2189 2.1499 -2.5038 0.9687
7.1375 2.4061 -2.5037 0.9687
6.9475 2.9091 -2.5037 0.9687
6.8392 3.1552 -2.5037 0.9688
6.7221 3.3972 -2.5036 0.9688
-5.9987 -3.5905 -2.5001 0.9707
-5.8668 -3.8023 -2.5001 0.9707
-5.5808 -4.2113 -2.5002 0.9707
-5.4270 -4.4079 -2.5002 0.9707
-5.2663 -4.5989 -2.5003 0.9707
-4.9250 -4.9630 -2.5004 0.9707
-4.1689 -5.6139 -2.5006 0.9707
-3.9660 -5.7592 -2.5006 0.9707
-3.3279 -6.1506 -2.5008 0.9707
-3.1063 -6.2656 -2.5009 0.9707
-2.4189 -6.5623 -2.5011 0.9707
-1.7037 -6.7838 -2.5013 0.9707
-1.4605 -6.8405 -2.5013 0.9707
-0.7210 -6.9580 -2.5015 0.9707
-0.4722 -6.9795 -2.5016 0.9707
0.2766 -6.9905 -2.5018 0.9707
0.7746 -6.9534 -2.5020 0.9707
1.2688 -6.8808 -2.5021 0.9707
1.5136 -6.8313 -2.5022 0.9707
2.2353 -6.6309 -2.5024 0.9707
2.4706 -6.5470 -2.5024 0.9707
2.7028 -6.4549 -2.5025 0.9707
2.9316 -6.3544 -2.5026 0.9707
3.5943 -6.0051 -2.5027 0.9707
4.0137 -5.7337 -2.5029 0.9707
4.2159 -5.5869 -2.5029 0.9707
4.6039 -5.2721 -2.5030 0.9707
4.7893 -5.1045 -2.5031 0.9707
4.9685 -4.9304 -2.5031 0.9707
5.1414 -4.7500 -2.5032 0.9707
5.6200 -4.1735 -2.5033 0.9707
5.7655 -3.9703 -2.5033 0.9707
5.9036 -3.7620 -2.5034 0.9707
6.4782 -2.6542 -2.5035 0.9707
6.5689 -2.4213 -2.5036 0.9707
6.6512 -2.1853 -2.5036 0.9707
6.7902 -1.7053 -2.5036 0.9707
6.8947 -1.2166 -2.5037 0.9707
6.9639 -0.7216 -2.5037 0.9707
6.9977 -0.2230 -2.5037 0.9707
7.0012 0.0269 -2.5037 0.9707
6.9958 0.2768 -2.5037 0.9707
6.9261 1.0230 -2.5037 0.9707
6.8851 1.2696 -2.5037 0.9707
6.8354 1.5145 -2.5037 0.9707
6.7098 1.9983 -2.5036 0.9707
6.5500 2.4718 -2.5036 0.9707
6.4576 2.7040 -2.5035 0.9707
6.3569 2.9327 -2.5035 0.9707
-5.3449 -3.7416 -2.5003 0.9724
-5.2080 -3.9300 -2.5003 0.9724
-4.9146 -4.2917 -2.5004 0.9724
-4.5960 -4.6315 -2.5005 0.9724
-4.4279 -4.7927 -2.5005 0.9724
-4.2541 -4.9478 -2.5006 0.9724
-3.8904 -5.2389 -2.5007 0.9724
-3.5069 -5.5033 -2.5008 0.9724
-3.1055 -5.7397 -2.5009 0.9724
-2.8987 -5.8470 -2.5009 0.9724
-2.6883 -5.9469 -2.5010 0.9724
-2.2573 -6.1238 -2.5011 0.9724
-2.0373 -6.2007 -2.5012 0.9724
-1.5899 -6.3305 -2.5013 0.9724
-1.3629 -6.3834 -2.5014 0.9724
-1.1343 -6.4281 -2.5014 0.9724
-0.9041 -6.4647 -2.5015 0.9724
-0.6728 -6.4930 -2.5016 0.9724
0.0251 -6.5282 -2.5018 0.9724
0.2581 -6.5233 -2.5018 0.9724
0.4908 -6.5101 -2.5019 0.9724
0.9540 -6.4589 -2.5020 0.9724
1.4124 -6.3747 -2.5021 0.9724
1.6391 -6.3204 -2.5022 0.9724
2.3055 -6.1094 -2.5024 0.9724
2.5221 -6.0233 -2.5024 0.9724
2.9455 -5.8283 -2.5026 0.9724
3.3540 -5.6036 -2.5027 0.9724
4.2765 -4.8971 -2.4915 0.9725
4.4690 -4.7632 -2.5030 0.9724
4.7976 -4.4324 -2.5031 0.9724
5.1018 -4.0790 -2.5032 0.9724
5.2442 -3.8944 -2.5032 0.9724
5.3799 -3.7048 -2.5032 0.9724
5.5088 -3.5104 -2.5033 0.9724
5.6307 -3.3116 -2.5033 0.9724
5.7454 -3.1086 -2.5033 0.9724
5.8527 -2.9016 -2.5034 0.9724
6.0449 -2.4767 -2.5034 0.9724
6.2063 -2.0392 -2.5035 0.9724
6.3361 -1.5913 -2.5035 0.9724
6.3889 -1.3641 -2.5035 0.9724
6.4335 -1.1352 -2.5035 0.9724
6.4700 -0.9049 -2.5035 0.9724
6.5181 -0.4410 -2.5036 0.9724
6.5297 -0.2081 -2.5036 0.9724
6.5279 0.2583 -2.5036 0.9724
6.5145 0.4911 -2.5036 0.9724
6.4628 0.9546 -2.5035 0.9724
6.4246 1.1847 -2.5035 0.9724
6.3237 1.6399 -2.5035 0.9724
6.2611 1.8646 -2.5035 0.9724
6.1905 2.0869 -2.5035 0.9724
6.1120 2.3065 -2.5035 0.9724
5.8302 2.9465 -2.5034 0.9724
-4.4555 -4.1804 -2.5005 0.9739
-4.3036 -4.3368 -2.5005 0.9739
-3.8155 -4.7722 -2.5007 0.9739
-3.6428 -4.9055 -2.5007 0.9739
-3.0978 -5.2671 -2.5009 0.9739
-2.3169 -5.6548 -2.5011 0.9739
-2.1136 -5.7341 -2.5012 0.9739
-1.4887 -5.9275 -2.5013 0.9739
-0.8466 -6.0531 -2.5015 0.9739
-0.1947 -6.1094 -2.5017 0.9739
0.4595 -6.0956 -2.5019 0.9739
0.8933 -6.0476 -2.5020 0.9739
1.3225 -5.9688 -2.5021 0.9739
1.5347 -5.9179 -2.5022 0.9739
1.7450 -5.8595 -2.5022 0.9739
1.9531 -5.7936 -2.5023 0.9739
2.1587 -5.7203 -2.5023 0.9739
2.3615 -5.6398 -2.5024 0.9739
2.5614 -5.5520 -2.5025 0.9739
2.7579 -5.4572 -2.5025 0.9739
3.1404 -5.2467 -2.5026 0.9739
4.1844 -4.4598 -2.5029 0.9739
4.3410 -4.3077 -2.5030 0.9739
4.4920 -4.1501 -2.5030 0.9739
4.6374 -3.9872 -2.5030 0.9739
5.0372 -3.4688 -2.5031 0.9739
5.3794 -2.9106 -2.5032 0.9739
5.4799 -2.7167 -2.5033 0.9739
5.6599 -2.3189 -2.5033 0.9739
5.8109 -1.9093 -2.5034 0.9739
5.8754 -1.7007 -2.5034 0.9739
5.9324 -1.4899 -2.5034 0.9739
5.9819 -1.2772 -2.5034 0.9739
6.0578 -0.8472 -2.5034 0.9739
6.1137 -0.1948 -2.5035 0.9739
6.1168 0.0235 -2.5035 0.9739
6.1120 0.2418 -2.5035 0.9739
6.0792 0.6772 -2.5034 0.9739
5.9719 1.3232 -2.5034 0.9739
5.9208 1.5355 -2.5034 0.9739
5.6418 2.3624 -2.5033 0.9739
5.4588 2.7588 -2.5033 0.9739
5.3568 2.9518 -2.5032 0.9739
-4.9228 -2.9465 -2.5004 0.9753
-4.8146 -3.1204 -2.5004 0.9753
-4.5798 -3.4560 -2.5005 0.9753
-4.4536 -3.6173 -2.5005 0.9753
-4.3217 -3.7740 -2.5005 0.9753
-4.0416 -4.0728 -2.5006 0.9753
-3.8937 -4.2145 -2.5007 0.9753
-3.7409 -4.3509 -2.5007 0.9753
-3.4211 -4.6068 -2.5008 0.9753
-2.5490 -5.1416 -2.5010 0.9753
-2.3639 -5.2294 -2.5011 0.9753
-1.7915 -5.4524 -2.5012 0.9753
-1.3980 -5.5666 -2.5014 0.9753
-0.9974 -5.6524 -2.5015 0.9753
-0.3875 -5.7270 -2.5016 0.9753
0.2270 -5.7360 -2.5018 0.9753
0.4316 -5.7244 -2.5019 0.9753
0.8389 -5.6793 -2.5020 0.9753
1.0411 -5.6458 -2.5020 0.9753
1.2419 -5.6052 -2.5021 0.9753
1.4412 -5.5574 -2.5021 0.9753
1.6387 -5.5026 -2.5022 0.9753
2.0272 -5.3719 -2.5023 0.9753
2.4053 -5.2138 -2.5024 0.9753
2.7713 -5.0291 -2.5025 0.9753
2.9491 -4.9271 -2.5026 0.9753
3.2932 -4.7043 -2.5027 0.9753
3.4590 -4.5839 -2.5027 0.9753
3.6205 -4.4576 -2.5028 0.9753
3.7774 -4.3256 -2.5028 0.9753
4.0765 -4.0452 -2.5029 0.9753
4.4857 -3.5865 -2.5030 0.9753
4.6110 -3.4241 -2.5030 0.9753
4.7303 -3.2574 -2.5031 0.9753
4.8436 -3.0866 -2.5031 0.9753
4.9508 -2.9117 -2.5031 0.9753
5.0516 -2.7332 -2.5032 0.9753
5.3893 -1.9865 -2.5032 0.9752
5.4568 -1.7929 -2.5033 0.9752
5.5174 -1.5970 -2.5033 0.9752
5.6173 -1.1994 -2.5033 0.9752
5.6566 -0.9981 -2.5033 0.9752
5.6886 -0.7956 -2.5033 0.9752
5.7411 -0.1829 -2.5033 0.9752
5.7440 0.0221 -2.5033 0.9752
5.7395 0.2271 -2.5033 0.9752
5.7087 0.6360 -2.5033 0.9752
5.6823 0.8393 -2.5033 0.9752
5.6487 1.0416 -2.5033 0.9752
5.6079 1.2425 -2.5033 0.9752
5.5600 1.4419 -2.5033 0.9752
5.5050 1.6394 -2.5033 0.9752
5.3739 2.0279 -2.5032 0.9752
5.2980 2.2184 -2.5032 0.9752
5.2154 2.4061 -2.5032 0.9752
5.0304 2.7720 -2.5032 0.9753
-4.6351 -2.7743 -2.5005 0.9765
-4.5332 -2.9380 -2.5005 0.9765
-4.3121 -3.2540 -2.5005 0.9765
-4.0691 -3.5534 -2.5006 0.9765
-3.9397 -3.6964 -2.5007 0.9765
-3.8054 -3.8347 -2.5007 0.9765
-3.6661 -3.9682 -2.5007 0.9765
-3.5222 -4.0966 -2.5008 0.9765
-3.3738 -4.2197 -2.5008 0.9765
-3.0643 -4.4498 -2.5009 0.9765
-2.9035 -4.5564 -2.5009 0.9765
-2.7391 -4.6572 -2.5010 0.9765
-2.4000 -4.8410 -2.5011 0.9765
-2.2257 -4.9237 -2.5011 0.9765
-2.0486 -5.0000 -2.5012 0.9765
-1.8689 -5.0701 -2.5012 0.9765
-1.3163 -5.2411 -2.5014 0.9765
-0.7485 -5.3521 -2.5015 0.9765
-0.5570 -5.3756 -2.5016 0.9765
-0.1721 -5.4018 -2.5017 0.9765
0.2137 -5.4006 -2.5018 0.9765
0.4063 -5.3896 -2.5019 0.9765
0.5984 -5.3718 -2.5019 0.9765
0.9802 -5.3157 -2.5020 0.9765
1.1693 -5.2774 -2.5021 0.9765
1.7268 -5.1225 -2.5022 0.9765
2.0879 -4.9864 -2.5023 0.9765
2.4385 -4.8250 -2.5024 0.9765
2.6092 -4.7349 -2.5025 0.9765
2.7766 -4.6389 -2.5025 0.9765
3.1005 -4.4292 -2.5026 0.9765
3.2567 -4.3157 -2.5027 0.9765
3.4087 -4.1968 -2.5027 0.9765
3.5564 -4.0726 -2.5027 0.9764
3.6996 -3.9431 -2.5028 0.9764
4.1000 -3.5252 -2.5029 0.9764
5.0740 -1.8703 -2.5032 0.9764
5.1376 -1.6880 -2.5032 0.9764
5.1946 -1.5036 -2.5032 0.9764
5.2450 -1.3172 -2.5032 0.9764
5.3256 -0.9397 -2.5032 0.9764
5.3956 -0.3651 -2.5033 0.9764
5.3926 0.4065 -2.5033 0.9764
5.3747 0.5988 -2.5032 0.9764
5.3499 0.7902 -2.5032 0.9764
5.2798 1.1698 -2.5032 0.9764
5.1244 1.7275 -2.5032 0.9764
5.0595 1.9093 -2.5032 0.9764
4.9881 2.0886 -2.5031 0.9764
4.9103 2.2653 -2.5031 0.9764
4.7361 2.6098 -2.5031 0.9764
-4.2779 -2.7725 -2.5006 0.9775
-4.1762 -2.9235 -2.5006 0.9775
-3.8399 -3.3533 -2.5007 0.9775
-3.5910 -3.6187 -2.5007 0.9775
-3.3238 -3.8658 -2.5008 0.9775
-3.1838 -3.9821 -2.5009 0.9775
-2.8917 -4.1992 -2.5009 0.9775
-2.4264 -4.4845 -2.5011 0.9775
-2.1003 -4.6463 -2.5012 0.9775
-1.7636 -4.7845 -2.5013 0.9775
-1.5917 -4.8445 -2.5013 0.9775
-1.2421 -4.9459 -2.5014 0.9775
-1.0648 -4.9871 -2.5014 0.9775
-0.7063 -5.0506 -2.5015 0.9775
-0.5256 -5.0727 -2.5016 0.9775
-0.3443 -5.0883 -2.5016 0.9775
-0.1624 -5.0975 -2.5017 0.9775
0.0196 -5.1001 -2.5018 0.9775
0.2016 -5.0963 -2.5018 0.9775
0.5647 -5.0691 -2.5019 0.9775
0.7453 -5.0458 -2.5020 0.9775
0.9249 -5.0161 -2.5020 0.9775
1.8011 -4.7726 -2.5022 0.9775
2.1370 -4.6322 -2.5023 0.9775
2.3010 -4.5530 -2.5024 0.9775
2.6201 -4.3775 -2.5025 0.9775
2.7747 -4.2812 -2.5025 0.9775
2.9258 -4.1795 -2.5026 0.9775
3.0731 -4.0725 -2.5026 0.9775
3.2166 -3.9603 -2.5026 0.9775
3.8689 -3.3265 -2.5028 0.9775
3.9852 -3.1863 -2.5029 0.9775
4.0965 -3.0421 -2.5029 0.9775
4.2025 -2.8940 -2.5029 0.9775
4.3983 -2.5868 -2.5030 0.9775
4.7219 -1.9346 -2.5031 0.9775
4.9493 -1.2430 -2.5031 0.9775
4.9905 -1.0655 -2.5031 0.9775
5.0538 -0.7068 -2.5032 0.9775
5.0759 -0.5260 -2.5032 0.9775
5.0914 -0.3445 -2.5032 0.9775
5.1005 -0.1625 -2.5032 0.9775
5.0886 0.3836 -2.5032 0.9775
4.9396 1.2810 -2.5031 0.9775
4.8907 1.4565 -2.5031 0.9775
4.8355 1.6301 -2.5031 0.9775
4.7742 1.8016 -2.5031 0.9775
4.7069 1.9709 -2.5031 0.9775
4.5542 2.3016 -2.5030 0.9775
4.4691 2.4627 -2.5030 0.9775
-4.1359 -2.4755 -2.5006 0.9785
-4.0450 -2.6216 -2.5006 0.9785
-3.7417 -3.0390 -2.5007 0.9785
-3.5154 -3.2983 -2.5008 0.9785
-2.8742 -3.8703 -2.5009 0.9785
-2.5908 -4.0657 -2.5010 0.9785
-1.9860 -4.3933 -2.5012 0.9785
-1.8279 -4.4614 -2.5012 0.9785
-1.5050 -4.5806 -2.5013 0.9785
-1.3406 -4.6315 -2.5014 0.9785
-0.8379 -4.7486 -2.5015 0.9785
0.0185 -4.8223 -2.5018 0.9785
0.1907 -4.8187 -2.5018 0.9785
1.2107 -4.6686 -2.5021 0.9785
1.7029 -4.5127 -2.5022 0.9785
2.1757 -4.3050 -2.5024 0.9785
2.4773 -4.1389 -2.5024 0.9785
2.7664 -3.9518 -2.5025 0.9785
2.9057 -3.8506 -2.5026 0.9785
3.1731 -3.6336 -2.5026 0.9785
3.4243 -3.3981 -2.5027 0.9785
3.5435 -3.2737 -2.5027 0.9785
3.9735 -2.7363 -2.5029 0.9785
4.0687 -2.5927 -2.5029 0.9785
4.2433 -2.2959 -2.5029 0.9785
4.3226 -2.1430 -2.5030 0.9785
4.3964 -1.9874 -2.5030 0.9785
4.4646 -1.8292 -2.5030 0.9785
4.5271 -1.6687 -2.5030 0.9785
4.5837 -1.5061 -2.5030 0.9785
4.6796 -1.1752 -2.5031 0.9785
4.7185 -1.0075 -2.5031 0.9785
4.7515 -0.8384 -2.5031 0.9785
4.7993 -0.4973 -2.5031 0.9785
4.8139 -0.3257 -2.5031 0.9785
4.8225 -0.1537 -2.5031 0.9785
4.8249 0.0186 -2.5031 0.9785
4.8212 0.1908 -2.5031 0.9785
4.8113 0.3627 -2.5031 0.9785
4.7449 0.8749 -2.5031 0.9785
4.6704 1.2112 -2.5031 0.9785
4.5720 1.5413 -2.5030 0.9785
4.5141 1.7035 -2.5030 0.9785
-3.9176 -2.3448 -2.5007 0.9794
-3.7404 -2.6184 -2.5007 0.9794
-3.5442 -2.8786 -2.5008 0.9794
-3.2163 -3.2411 -2.5009 0.9794
-2.9769 -3.4624 -2.5009 0.9794
-2.8515 -3.5665 -2.5010 0.9794
-2.4540 -3.8510 -2.5011 0.9794
-2.3150 -3.9362 -2.5011 0.9794
-1.5795 -4.2851 -2.5013 0.9794
-1.4256 -4.3388 -2.5013 0.9794
-1.2698 -4.3870 -2.5014 0.9794
-1.1125 -4.4296 -2.5014 0.9794
-0.9537 -4.4665 -2.5015 0.9794
-0.7937 -4.4978 -2.5015 0.9794
-0.6326 -4.5234 -2.5016 0.9794
-0.1455 -4.5653 -2.5017 0.9794
0.0176 -4.5677 -2.5018 0.9794
0.3434 -4.5550 -2.5018 0.9794
0.5058 -4.5399 -2.5019 0.9794
0.6675 -4.5190 -2.5019 0.9794
0.9882 -4.4600 -2.5020 0.9794
1.7645 -4.2141 -2.5022 0.9794
1.9139 -4.1485 -2.5023 0.9794
2.0607 -4.0776 -2.5023 0.9794
2.2050 -4.0015 -2.5024 0.9794
2.3465 -3.9203 -2.5024 0.9794
2.4849 -3.8341 -2.5024 0.9794
2.6202 -3.7430 -2.5025 0.9794
2.7522 -3.6472 -2.5025 0.9794
3.0055 -3.4417 -2.5026 0.9794
3.1264 -3.3322 -2.5026 0.9794
3.3563 -3.1008 -2.5027 0.9794
3.7636 -2.5917 -2.5028 0.9794
3.9389 -2.3166 -2.5028 0.9794
4.0942 -2.0298 -2.5029 0.9794
4.3897 -1.2706 -2.5030 0.9794
4.4323 -1.1131 -2.5030 0.9794
4.5005 -0.7941 -2.5030 0.9794
4.5260 -0.6330 -2.5030 0.9794
4.5457 -0.4710 -2.5030 0.9794
4.5700 0.0176 -2.5030 0.9794
4.5665 0.1807 -2.5030 0.9794
4.5210 0.6678 -2.5030 0.9794
4.4618 0.9886 -2.5030 0.9794
4.3798 1.3044 -2.5030 0.9794
4.3305 1.4598 -2.5030 0.9794
4.2152 1.7650 -2.5029 0.9794
4.0023 2.2055 -2.5029 0.9794
-3.6348 -2.3557 -2.5007 0.9802
-3.4575 -2.6091 -2.5008 0.9802
-3.3622 -2.7309 -2.5008 0.9802
-3.1589 -2.9638 -2.5009 0.9802
-3.0512 -3.0747 -2.5009 0.9802
-2.9395 -3.1817 -2.5009 0.9802
-2.5827 -3.4778 -2.5010 0.9802
-2.0615 -3.8102 -2.5012 0.9802
-1.2046 -4.1617 -2.5014 0.9802
-1.0553 -4.2021 -2.5015 0.9802
-0.9047 -4.2372 -2.5015 0.9802
-0.7529 -4.2669 -2.5015 0.9802
-0.6001 -4.2911 -2.5016 0.9802
-0.4466 -4.3099 -2.5016 0.9802
-0.2925 -4.3231 -2.5017 0.9802
0.4798 -4.3067 -2.5019 0.9802
0.6332 -4.2869 -2.5019 0.9802
0.7858 -4.2617 -2.5020 0.9802
1.0879 -4.1949 -2.5020 0.9802
1.2369 -4.1535 -2.5021 0.9802
1.8156 -3.9354 -2.5023 0.9802
2.0918 -3.7960 -2.5023 0.9802
2.2259 -3.7190 -2.5024 0.9802
3.0768 -3.0532 -2.5026 0.9802
3.1839 -2.9415 -2.5026 0.9802
3.2869 -2.8260 -2.5027 0.9802
3.3857 -2.7069 -2.5027 0.9802
3.5702 -2.4586 -2.5027 0.9802
3.7366 -2.1976 -2.5028 0.9802
3.8127 -2.0629 -2.5028 0.9802
3.8839 -1.9255 -2.5028 0.9802
3.9502 -1.7857 -2.5028 0.9802
4.0114 -1.6436 -2.5029 0.9802
4.1185 -1.3532 -2.5029 0.9802
4.1642 -1.2053 -2.5029 0.9802
4.2396 -0.9052 -2.5029 0.9802
4.2934 -0.6005 -2.5029 0.9802
4.3331 -0.1381 -2.5030 0.9802
4.3352 0.0167 -2.5030 0.9802
4.3230 0.3259 -2.5030 0.9802
4.2887 0.6335 -2.5029 0.9802
4.2326 0.9378 -2.5029 0.9802
4.1080 1.3848 -2.5029 0.9802
3.9987 1.6744 -2.5029 0.9802
3.8690 1.9553 -2.5028 0.9802
