ply
format ascii 1.0
element vertex 1368
property float32 x
property float32 y
property float32 z
property float32 I
end_header
31.9492 32.1959 7.9978 0.8317
19.5523 22.7407 5.2881 0.8853
18.1940 22.7560 5.1373 0.8884
16.9095 22.7704 5.0010 0.8912
14.5273 22.7972 4.7666 0.8960
13.4153 22.8097 4.6660 0.8981
12.2502 22.6412 4.5392 0.9007
10.3267 22.8445 4.4205 0.9032
6.6098 22.8354 4.1918 0.9080
4.8906 22.9056 4.1299 0.9093
3.1780 22.7232 4.0457 0.9110
2.3556 22.7325 4.0298 0.9114
0.7314 22.9524 4.0492 0.9109
-0.0883 22.9616 4.0488 0.9110
-0.9133 23.0832 4.0734 0.9104
-1.7324 22.9801 4.0635 0.9106
-3.3953 22.9871 4.0972 0.9099
-4.2370 22.9782 4.1200 0.9095
-5.9587 22.9767 4.1854 0.9081
-4.0225 9.6065 1.8364 0.9586
-18.3805 33.3557 6.7154 0.8567
-20.2686 33.8634 6.9589 0.8519
-24.5442 37.8705 7.9574 0.8325
-24.3917 30.0312 6.8219 0.8546
-25.4698 29.1663 6.8277 0.8545
-36.2410 31.1597 8.4275 0.8236
-33.3256 24.7478 7.3193 0.8448
-40.1868 21.7434 8.0567 0.8306
-40.8062 18.4462 7.8962 0.8337
-14.9010 5.4926 2.8003 0.9375
-43.9921 -16.6012 8.2909 0.8261
-41.7253 -17.4715 7.9762 0.8322
-34.6656 -17.5194 6.8487 0.8541
19.5523 22.7407 4.5944 0.8857
18.1940 22.7560 4.4633 0.8888
16.8720 22.7199 4.3353 0.8918
15.6898 22.7841 4.2379 0.8941
14.5003 22.7548 4.1335 0.8966
10.3267 22.8445 3.8406 0.9035
9.4429 23.0475 3.8156 0.9041
8.4218 22.8478 3.7304 0.9062
6.6715 23.0487 3.6759 0.9075
4.8906 22.9056 3.5881 0.9096
4.0774 23.1079 3.5947 0.9094
2.3556 22.7325 3.5011 0.9117
0.7314 22.9524 3.5180 0.9113
-0.0883 22.9616 3.5176 0.9113
-1.7324 22.9801 3.5304 0.9110
-4.2393 22.9902 3.5813 0.9097
-5.1000 23.0180 3.6117 0.9090
-6.8608 23.0378 3.6824 0.9073
-3.6381 9.6405 1.5785 0.9592
-4.0236 9.6090 1.5959 0.9587
-13.7970 29.9062 5.0455 0.8752
-17.0076 33.6528 5.7764 0.8585
-18.3767 33.3489 5.8332 0.8572
-24.4714 40.8851 7.2996 0.8246
-23.9789 31.7765 6.0985 0.8512
-24.3860 30.0242 5.9256 0.8551
-25.4186 29.1076 5.9200 0.8552
-32.6455 26.1009 6.4031 0.8444
-40.1696 21.7341 6.9968 0.8313
-40.8436 20.2487 6.9833 0.8315
-14.8837 6.7281 2.5022 0.9360
-15.0344 2.1026 2.3256 0.9404
-44.0979 -16.6411 7.2206 0.8264
-41.7253 -17.4715 6.9298 0.8327
-32.1635 -17.7235 5.6258 0.8619
19.5523 22.7407 3.9054 0.8861
15.6898 22.7842 3.6024 0.8944
13.4153 22.8097 3.4459 0.8988
12.2395 22.6213 3.3493 0.9015
11.4151 23.0253 3.3466 0.9015
10.3267 22.8445 3.2647 0.9038
8.4218 22.8478 3.1710 0.9064
7.4503 22.6752 3.1081 0.9082
6.6802 23.0786 3.1287 0.9076
4.8906 22.9056 3.0500 0.9098
4.0827 23.1378 3.0596 0.9096
3.1779 22.7233 2.9878 0.9116
-0.9177 23.1940 3.0227 0.9106
-4.2393 22.9902 3.0443 0.9100
-6.0277 23.2428 3.1268 0.9077
-4.4496 14.9412 2.0301 0.9391
-7.7636 23.0298 3.1648 0.9066
-4.0246 9.6114 1.3569 0.9588
-14.3522 31.1097 4.4615 0.8709
-25.4041 29.0910 5.0294 0.8557
-32.6457 26.1010 5.4429 0.8448
-14.8154 8.7135 2.2382 0.9330
-40.8436 20.2488 5.9358 0.8320
-34.7264 -17.5502 5.0668 0.8547
-32.1636 -17.7236 4.7822 0.8623
19.5523 22.7407 3.2204 0.8863
12.2395 22.6213 2.7619 0.9017
9.4551 23.0774 2.6780 0.9045
5.4644 14.8246 1.6966 0.9384
5.7456 22.8779 2.5330 0.9095
4.8906 22.9056 2.5151 0.9101
4.0827 23.1378 2.5230 0.9098
3.1779 22.7232 2.4638 0.9118
2.3556 22.7325 2.4541 0.9122
0.7308 22.9343 2.4640 0.9118
-1.7324 22.9801 2.4746 0.9115
-2.5386 22.7876 2.4621 0.9119
-3.4301 23.2223 2.5207 0.9099
-4.2393 22.9902 2.5103 0.9102
-5.1001 23.0180 2.5317 0.9095
-6.8608 23.0377 2.5812 0.9078
-4.6313 10.0387 1.1872 0.9565
-18.3693 33.3354 4.0871 0.8580
-5.7054 9.5321 1.1929 0.9563
-22.8536 35.2619 4.5122 0.8445
-6.7827 8.3509 1.1553 0.9576
-7.1566 8.1952 1.1683 0.9572
-14.2367 15.1739 2.2343 0.9197
-36.7669 31.6119 5.2068 0.8228
-34.8893 24.0257 4.5489 0.8433
-14.8143 8.7129 1.8455 0.9332
-40.1355 21.7156 4.9004 0.8323
-40.8438 20.2488 4.8948 0.8324
-35.4623 8.9061 3.9263 0.8632
-35.4769 7.5747 3.8954 0.8642
-42.9362 -11.1349 4.7631 0.8366
-46.3691 -17.4982 5.3219 0.8192
-41.7253 -17.4715 4.8575 0.8336
-34.4538 -17.4124 4.1453 0.8562
-32.1637 -17.7236 3.9435 0.8627
18.1797 22.7381 2.4644 0.8897
16.8962 22.7525 2.3991 0.8925
12.1892 22.5284 2.1683 0.9023
7.2872 14.6990 1.3888 0.9363
9.2699 22.6253 2.0698 0.9065
5.4136 14.6868 1.3250 0.9391
6.5622 22.6709 1.9979 0.9096
3.1649 22.6300 1.9343 0.9124
-0.0877 22.8044 1.9305 0.9125
-1.7107 22.6918 1.9264 0.9127
-2.5282 22.6940 1.9330 0.9124
-3.3675 22.7988 1.9509 0.9116
-3.6441 16.4470 1.4260 0.9346
-5.9162 22.8127 1.9950 0.9097
-4.4048 14.7905 1.3064 0.9399
-7.6922 22.8181 2.0384 0.9079
-3.6423 9.6519 0.8733 0.9594
-4.6313 10.0387 0.9359 0.9566
-17.0076 33.6529 3.1920 0.8595
-5.7054 9.5321 0.9404 0.9564
-6.5392 8.0511 0.8780 0.9592
-6.8969 7.8978 0.8876 0.9588
-7.3678 7.8527 0.9115 0.9577
-36.7672 31.6121 4.1047 0.8231
-33.2461 24.6888 3.5055 0.8468
-14.8131 8.7122 1.4548 0.9333
-40.1185 21.7065 3.8615 0.8327
-35.4730 8.9088 3.0961 0.8634
-35.4854 7.5765 3.0716 0.8645
-43.0013 -11.1517 3.7606 0.8367
-42.9899 -12.8028 3.7972 0.8352
-45.8176 -17.2901 4.1456 0.8215
-41.7253 -17.4715 3.8293 0.8339
-34.7264 -17.5502 3.2938 0.8554
-32.1638 -17.7237 3.1088 0.8629
15.5069 14.5492 1.3186 0.9183
19.5523 22.7407 1.8597 0.8867
16.9095 22.7704 1.7588 0.8926
15.6898 22.7841 1.7154 0.8951
14.3672 22.5460 1.6578 0.8984
13.3057 22.6234 1.6275 0.9002
12.2789 22.6943 1.6001 0.9018
7.3248 14.7747 1.0226 0.9360
10.2976 22.7800 1.5502 0.9047
9.3620 22.8500 1.5313 0.9058
8.4267 22.8610 1.5109 0.9070
7.5149 22.8717 1.4929 0.9080
6.6233 22.8821 1.4772 0.9089
5.7492 22.8923 1.4636 0.9097
2.3765 22.9339 1.4298 0.9117
1.5523 22.9432 1.4260 0.9120
-0.0883 22.9590 1.4237 0.9121
-0.9088 22.9682 1.4254 0.9120
-2.5608 22.9865 1.4342 0.9115
-3.3966 22.9958 1.4414 0.9110
-4.2420 23.0050 1.4506 0.9105
-5.9709 23.0239 1.4749 0.9091
-7.7681 23.0433 1.5079 0.9071
-4.0276 9.6186 0.6466 0.9591
-16.9819 33.6020 2.3347 0.8599
-5.8894 10.6877 0.7567 0.9523
-5.7054 9.5321 0.6889 0.9565
-25.1014 33.2641 2.5841 0.8462
-7.5556 9.3024 0.7431 0.9531
-6.8870 7.8865 0.6493 0.9589
-8.1149 8.6490 0.7354 0.9536
-32.6462 26.1015 2.5919 0.8458
-14.8060 8.7080 1.0651 0.9335
-40.1016 21.6973 2.8273 0.8330
-40.8439 20.2489 2.8269 0.8330
-34.7265 -17.5502 2.4128 0.8556
-32.1638 -17.7237 2.2773 0.8631
19.5523 22.7407 1.1826 0.8869
15.6898 22.7842 1.0908 0.8952
14.5309 22.8028 1.0662 0.8974
12.3509 22.8273 1.0234 0.9013
8.4305 22.8714 0.9612 0.9070
7.5181 22.8816 0.9497 0.9081
6.6261 22.8917 0.9397 0.9090
4.8906 22.9056 0.9236 0.9105
3.2061 22.9246 0.9127 0.9115
2.3765 22.9339 0.9091 0.9118
1.5522 22.9432 0.9067 0.9121
-1.7329 22.9857 0.9089 0.9119
-3.3979 23.0044 0.9169 0.9111
-4.2437 23.0139 0.9228 0.9106
-5.1013 23.0236 0.9299 0.9099
-5.9734 23.0334 0.9383 0.9091
-7.7716 23.0536 0.9593 0.9072
-3.6452 9.6594 0.4071 0.9595
-13.4198 29.0887 1.2632 0.8796
-17.0077 33.6530 1.4868 0.8599
-5.9466 9.9352 0.4566 0.9547
-6.2682 9.6715 0.4544 0.9549
-6.5872 9.4099 0.4529 0.9551
-6.9044 9.1497 0.4520 0.9552
-6.8870 7.8865 0.4129 0.9590
-32.6464 26.1017 1.6482 0.8459
-33.4540 24.8432 1.6431 0.8464
-40.0848 21.6882 1.7974 0.8332
-46.3695 -17.4984 1.9543 0.8200
-38.3344 -17.6852 1.6647 0.8445
-32.1639 -17.7238 1.4481 0.8633
19.6639 22.8704 0.5095 0.8863
18.2978 22.8858 0.4950 0.8894
12.4653 23.0387 0.4425 0.9005
11.4432 23.0819 0.4352 0.9021
9.4661 23.1041 0.4218 0.9049
5.8128 23.1452 0.4031 0.9089
3.3615 24.0353 0.4100 0.9075
1.5522 22.9432 0.3884 0.9121
0.7314 22.9524 0.3879 0.9122
-0.0891 23.1616 0.3912 0.9115
-2.5890 23.2397 0.3950 0.9107
-5.1556 23.2686 0.4026 0.9091
-7.8543 23.2989 0.4153 0.9063
-3.6466 9.6631 0.1745 0.9595
-14.1261 30.6197 0.5696 0.8738
-5.6102 10.1809 0.1964 0.9546
-5.9345 9.9149 0.1952 0.9548
-6.2554 9.6517 0.1943 0.9550
-7.2061 8.8721 0.1931 0.9553
-6.8870 7.8865 0.1769 0.9590
-32.6466 26.1018 0.7061 0.8460
-33.4541 24.8432 0.7039 0.8465
-40.0680 21.6791 0.7699 0.8334
-36.2552 10.4942 0.6376 0.8599
-41.7253 -17.4715 0.7641 0.8345
-37.8838 -17.4774 0.7047 0.8463
-34.7265 -17.5502 0.6572 0.8559
19.6639 22.8704 -0.1698 0.8863
18.2978 22.8858 -0.1650 0.8894
15.7793 22.9141 -0.1566 0.8947
14.6855 23.0454 -0.1539 0.8965
13.5614 23.0581 -0.1506 0.8985
12.4823 23.0702 -0.1477 0.9004
9.4661 23.1041 -0.1406 0.9050
8.5203 23.1148 -0.1387 0.9062
7.6898 23.4042 -0.1387 0.9062
6.9147 23.8888 -0.1400 0.9053
4.8906 22.9056 -0.1319 0.9106
4.0434 22.9152 -0.1310 0.9111
0.7314 22.9524 -0.1293 0.9122
-0.9188 23.2209 -0.1308 0.9112
-2.5890 23.2397 -0.1317 0.9107
-4.2888 23.2588 -0.1332 0.9097
-5.1556 23.2686 -0.1342 0.9091
-6.0370 23.2785 -0.1354 0.9083
-8.1101 24.0578 -0.1429 0.9034
-17.0077 33.6531 -0.2123 0.8600
-5.6106 10.1817 -0.0655 0.9546
-5.9437 9.9304 -0.0652 0.9548
-6.2651 9.6668 -0.0649 0.9550
-7.2173 8.8859 -0.0645 0.9552
-13.5561 15.5235 -0.1160 0.9209
-8.0896 8.6220 -0.0666 0.9538
-34.8535 24.0011 -0.2383 0.8443
-36.9074 9.2690 -0.2142 0.8588
-46.3697 -17.4985 -0.2790 0.8202
-34.7265 -17.5502 -0.2191 0.8559
17.0059 22.9004 -0.8032 0.8921
12.4653 23.0387 -0.7376 0.9005
9.4661 23.1041 -0.7031 0.9049
6.9003 23.8389 -0.6988 0.9055
5.8053 23.1154 -0.6711 0.9090
4.9038 22.9674 -0.6613 0.9103
4.0579 22.9973 -0.6576 0.9108
2.4916 24.0451 -0.6807 0.9078
0.7331 23.0073 -0.6482 0.9120
-0.0891 23.1616 -0.6522 0.9115
-2.5890 23.2397 -0.6584 0.9107
-4.2888 23.2588 -0.6660 0.9097
-6.0240 23.2283 -0.6757 0.9084
-7.1718 8.8299 -0.3203 0.9555
-13.5561 15.5235 -0.5803 0.9208
-32.6470 26.1021 -1.1770 0.8460
-33.4542 24.8433 -1.1733 0.8464
-34.6688 23.8738 -1.1853 0.8450
-14.8118 8.7114 -0.4839 0.9335
-40.7997 20.2270 -1.2823 0.8334
-43.2882 19.5681 -1.3376 0.8269
-36.9271 9.2740 -1.0721 0.8587
-41.3346 -17.3079 -1.2618 0.8358
-34.7265 -17.5502 -1.0956 0.8558
-32.1642 -17.7239 -1.0341 0.8633
40.9448 24.5070 -2.4200 0.8260
40.2010 26.0546 -2.4295 0.8254
39.3958 27.5781 -2.4388 0.8248
38.5296 29.0748 -2.4479 0.8242
32.3993 30.3982 -2.2531 0.8370
18.1227 22.6668 -1.4718 0.8903
14.6666 23.0157 -1.3841 0.8965
12.4824 23.0702 -1.3303 0.9003
11.4432 23.0819 -1.3065 0.9020
10.2976 22.7800 -1.2678 0.9047
5.8128 23.1452 -1.2102 0.9088
2.4916 24.0451 -1.2260 0.9077
1.5529 22.9531 -1.1667 0.9120
0.7317 22.9638 -1.1652 0.9121
-1.7513 23.2303 -1.1814 0.9109
-2.5890 23.2397 -1.1859 0.9106
-3.4267 23.1991 -1.1893 0.9104
-4.2888 23.2588 -1.1994 0.9096
-5.1556 23.2686 -1.2087 0.9090
-6.0370 23.2785 -1.2196 0.9082
-6.9356 23.2886 -1.2323 0.9073
-3.6508 9.6743 -0.5244 0.9594
-6.4976 10.8558 -0.6416 0.9506
-28.2598 40.3695 -2.4991 0.8209
-24.6242 32.6317 -2.0732 0.8490
-13.5561 15.5236 -1.0452 0.9208
-33.4122 35.6116 -2.4765 0.8224
-36.6534 31.5143 -2.4515 0.8240
-32.3988 25.9037 -2.1037 0.8469
-34.4589 23.7293 -2.1218 0.8457
-14.8118 8.7114 -0.8714 0.9335
-40.7392 20.1970 -2.3060 0.8335
-33.1920 13.5992 -1.8191 0.8662
-44.0003 14.4570 -2.3488 0.8307
-44.4157 12.8563 -2.3450 0.8309
-34.0688 8.5561 -1.7814 0.8688
-42.6691 9.1104 -2.2127 0.8397
-48.9681 5.0742 -2.4967 0.8210
-49.1177 3.3231 -2.4967 0.8210
-49.2048 1.5679 -2.4966 0.8210
-49.2292 -0.1893 -2.4966 0.8210
-49.0905 -3.7009 -2.4967 0.8210
-48.7023 -7.1936 -2.4967 0.8210
-48.4150 -8.9275 -2.4967 0.8210
-48.0662 -10.6500 -2.4968 0.8210
-44.3151 -13.1974 -2.3449 0.8309
-43.8167 -14.7710 -2.3450 0.8309
-32.8421 -12.3936 -1.7802 0.8688
-41.7253 -17.4715 -2.2941 0.8343
-32.1643 -17.7240 -1.8625 0.8632
26.6136 18.6302 -2.3820 0.8778
25.9971 19.6176 -2.3880 0.8775
24.6503 21.5261 -2.3996 0.8770
22.3565 24.1985 -2.4156 0.8762
18.1227 22.6668 -2.1279 0.8901
15.6283 22.6949 -2.0204 0.8954
14.5273 22.7972 -1.9821 0.8973
10.2976 22.7800 -1.8330 0.9046
9.3642 22.8553 -1.8110 0.9057
7.5570 22.9999 -1.7751 0.9075
4.8906 22.9056 -1.7173 0.9103
3.3615 24.0354 -1.7795 0.9072
2.4916 24.0451 -1.7725 0.9076
1.5523 22.9431 -1.6861 0.9119
0.7314 22.9524 -1.6838 0.9120
-0.0891 23.1616 -1.6983 0.9113
-0.9188 23.2209 -1.7039 0.9110
-1.7513 23.2303 -1.7081 0.9108
-3.4267 23.1991 -1.7195 0.9102
-6.0240 23.2283 -1.7595 0.9082
-6.8608 23.0377 -1.7625 0.9081
-3.6522 9.6781 -0.7585 0.9594
-4.0336 9.6329 -0.7657 0.9590
-12.0432 26.1048 -2.1079 0.8911
-5.6106 10.1817 -0.8524 0.9544
-22.4726 23.9519 -2.4082 0.8766
-23.2619 23.0836 -2.4029 0.8768
-25.4159 20.3207 -2.3860 0.8776
-26.0607 19.3528 -2.3801 0.8779
-27.2358 17.3557 -2.3680 0.8785
-14.8117 8.7113 -1.2599 0.9334
-30.0272 11.0682 -2.3465 0.8795
-30.4026 9.9892 -2.3464 0.8795
-30.7393 8.8976 -2.3464 0.8795
-33.5545 5.9207 -2.4983 0.8723
-33.8909 3.5118 -2.4983 0.8723
-34.0718 -0.1309 -2.4982 0.8723
-33.9757 -2.5614 -2.4982 0.8723
-33.8628 -3.7724 -2.4983 0.8723
-33.7068 -4.9787 -2.4983 0.8723
-33.5079 -6.1787 -2.4983 0.8723
-33.2663 -7.3708 -2.4983 0.8723
-32.9824 -8.5535 -2.4983 0.8723
-32.6565 -9.7254 -2.4984 0.8723
-31.8040 -12.0018 -2.4924 0.8725
-30.5508 -12.7924 -2.4285 0.8756
-29.4793 -13.6000 -2.3804 0.8779
-28.6073 -14.4577 -2.3502 0.8794
-28.0306 -15.4461 -2.3467 0.8795
20.5566 13.3229 -2.3518 0.9063
20.0802 14.0567 -2.3532 0.9062
19.0973 15.5111 -2.3620 0.9059
18.5646 16.2118 -2.3662 0.9057
18.0054 16.8934 -2.3703 0.9055
17.4202 17.5547 -2.3743 0.9054
15.5162 19.4067 -2.3854 0.9050
14.8348 19.9767 -2.3888 0.9048
14.1316 20.5214 -2.3921 0.9047
13.4072 21.0395 -2.3952 0.9046
12.6629 21.5304 -2.3980 0.9045
11.1192 22.4285 -2.4033 0.9043
10.2976 22.7800 -2.4001 0.9044
8.4285 22.8658 -2.3396 0.9067
7.4740 22.7472 -2.2987 0.9083
6.5872 22.7572 -2.2745 0.9092
2.3092 22.2844 -2.1509 0.9139
-0.9089 22.9708 -2.2070 0.9118
-2.5611 22.9894 -2.2207 0.9112
-3.3971 22.9988 -2.2320 0.9108
-5.1000 23.0179 -2.2634 0.9096
-6.8608 23.0377 -2.3077 0.9079
-7.7259 22.9181 -2.3219 0.9074
-3.6537 9.6819 -0.9935 0.9593
-10.4821 22.7209 -2.4023 0.9043
-11.2743 22.3084 -2.3997 0.9044
-5.6225 10.2033 -1.1184 0.9543
-6.2604 10.4595 -1.1703 0.9522
-14.2628 20.3746 -2.3877 0.9049
-14.9596 19.8243 -2.3843 0.9050
-17.5174 17.3831 -2.3693 0.9056
-18.0955 16.7181 -2.3652 0.9057
-19.6713 14.6080 -2.3523 0.9062
-20.1416 13.8700 -2.3478 0.9064
-15.8671 8.5851 -1.7320 0.9301
-22.6239 9.2694 -2.3472 0.9064
-24.9966 7.2353 -2.4983 0.9007
-25.4576 5.4355 -2.4991 0.9007
-25.7802 3.6055 -2.4991 0.9007
-26.0175 0.8290 -2.4991 0.9007
-25.7516 -3.8037 -2.4991 0.9007
-25.1980 -6.5348 -2.4992 0.9007
-24.9490 -7.4300 -2.4992 0.9007
-23.6389 -10.9056 -2.4993 0.9007
-23.2350 -11.7426 -2.4994 0.9007
-22.8014 -12.5646 -2.4994 0.9007
16.9852 10.1663 -2.3514 0.9234
16.2162 11.3518 -2.3513 0.9234
14.4345 13.5429 -2.3511 0.9234
13.4571 14.5659 -2.3556 0.9232
12.9447 15.0556 -2.3585 0.9231
12.4139 15.5266 -2.3614 0.9230
10.7180 16.8193 -2.3691 0.9228
9.5087 17.5742 -2.3735 0.9227
8.2442 18.2375 -2.3774 0.9225
7.5935 18.5335 -2.3791 0.9225
6.9317 18.8052 -2.3807 0.9224
6.2599 19.0521 -2.3822 0.9224
5.5789 19.2738 -2.3834 0.9224
2.0715 19.9908 -2.3873 0.9222
0.6402 20.0916 -2.3878 0.9222
-0.0773 20.1012 -2.3878 0.9222
-0.7946 20.0837 -2.3875 0.9222
-1.5108 20.0397 -2.3872 0.9222
-2.2246 19.9688 -2.3867 0.9223
-2.9351 19.8711 -2.3860 0.9223
-5.7227 19.2161 -2.3817 0.9224
-4.0356 9.6377 -1.2411 0.9588
-6.2549 9.6509 -1.3661 0.9547
-6.5772 9.3956 -1.3623 0.9549
-7.5210 8.6125 -1.3582 0.9550
-14.0357 13.9281 -2.3488 0.9234
-14.5194 13.4142 -2.3481 0.9235
-15.4387 12.3437 -2.3480 0.9235
-16.6688 10.6220 -2.3479 0.9235
-14.6982 8.6446 -2.0255 0.9336
-18.6706 7.6496 -2.3967 0.9219
-19.9924 6.5688 -2.4997 0.9187
-20.2139 5.8510 -2.4997 0.9187
-20.4097 5.1257 -2.4997 0.9187
-20.7231 3.6566 -2.4996 0.9187
-20.8403 2.9146 -2.4996 0.9187
-20.9309 2.1689 -2.4996 0.9187
-21.0427 -0.0809 -2.4996 0.9187
-21.0265 -0.8320 -2.4996 0.9187
-20.9136 -2.3298 -2.4996 0.9187
-20.6943 -3.8159 -2.4996 0.9187
-20.1683 -6.0063 -2.4997 0.9187
-19.9412 -6.7224 -2.4997 0.9187
-19.6888 -7.4299 -2.4997 0.9187
-19.1090 -8.8158 -2.4998 0.9187
-18.4319 -10.1568 -2.4999 0.9187
14.2379 8.5219 -2.3511 0.9352
13.2448 9.9947 -2.3510 0.9352
12.8794 10.4608 -2.3510 0.9352
12.4977 10.9137 -2.3509 0.9352
12.0999 11.3526 -2.3509 0.9352
11.2588 12.1864 -2.3508 0.9352
10.8164 12.5803 -2.3508 0.9352
10.3603 12.9581 -2.3507 0.9352
9.8910 13.3193 -2.3507 0.9352
8.9194 13.9969 -2.3517 0.9351
7.9106 14.6205 -2.3553 0.9350
6.8568 15.1683 -2.3586 0.9350
5.7639 15.6369 -2.3613 0.9349
3.4856 16.3251 -2.3652 0.9348
2.9015 16.4437 -2.3659 0.9348
2.3133 16.5404 -2.3664 0.9348
0.8513 8.2157 -1.1703 0.9672
1.1277 16.6679 -2.3671 0.9347
-2.4397 16.5174 -2.3657 0.9348
-3.0268 16.4151 -2.3651 0.9348
-5.3230 15.7902 -2.3610 0.9349
-3.6565 9.6895 -1.4674 0.9590
-7.4969 14.8340 -2.3550 0.9351
-5.6097 10.1801 -1.6469 0.9541
-5.9340 9.9141 -1.6371 0.9544
-6.5772 9.3956 -1.6250 0.9547
-11.3407 12.0873 -2.3484 0.9352
-12.1737 11.2470 -2.3483 0.9352
-12.5671 10.8051 -2.3483 0.9352
-12.9446 10.3495 -2.3483 0.9352
-13.6495 9.3994 -2.3482 0.9352
-13.9761 8.9061 -2.3482 0.9352
-14.5754 7.8861 -2.3481 0.9352
-16.3277 6.6897 -2.5001 0.9312
-16.5559 6.1026 -2.5001 0.9312
-17.2553 3.6842 -2.5000 0.9312
-17.5501 1.8186 -2.5000 0.9312
-17.6350 0.5619 -2.5000 0.9312
-17.6438 -0.0679 -2.5000 0.9312
-17.6302 -0.6976 -2.5000 0.9312
-17.5355 -1.9535 -2.5000 0.9312
-17.4547 -2.5782 -2.5000 0.9312
-16.9105 -5.0361 -2.5000 0.9312
-16.7201 -5.6365 -2.5000 0.9312
-16.5084 -6.2297 -2.5001 0.9312
-15.7484 -7.9590 -2.5001 0.9312
11.3907 8.5955 -2.3508 0.9438
10.7481 9.3859 -2.3507 0.9438
10.4062 9.7634 -2.3507 0.9438
10.0509 10.1285 -2.3507 0.9438
9.6828 10.4806 -2.3506 0.9438
9.3024 10.8193 -2.3506 0.9438
8.9102 11.1443 -2.3506 0.9438
8.0921 11.7511 -2.3505 0.9438
7.6674 12.0322 -2.3504 0.9438
7.2329 12.2979 -2.3504 0.9438
6.3369 12.7821 -2.3503 0.9438
5.8765 12.9999 -2.3502 0.9438
4.9340 13.3854 -2.3501 0.9438
1.9773 14.1382 -2.3518 0.9438
1.4716 14.2018 -2.3521 0.9438
0.5639 8.3348 -1.3762 0.9667
0.4548 14.2725 -2.3524 0.9438
-0.0549 14.2796 -2.3524 0.9438
-2.0855 14.1193 -2.3512 0.9438
-2.8195 10.8720 -1.8503 0.9555
-4.0701 13.6669 -2.3492 0.9438
-4.5553 13.5126 -2.3491 0.9438
-3.6580 9.6933 -1.7068 0.9589
-4.0376 9.6425 -1.7222 0.9585
-5.9732 12.9475 -2.3490 0.9438
-5.6097 10.1801 -1.9148 0.9540
-7.2098 8.8768 -1.8839 0.9547
-7.6131 8.7180 -1.9067 0.9542
-9.7547 10.3968 -2.3486 0.9438
-10.4712 9.6741 -2.3485 0.9438
-10.8096 9.2940 -2.3485 0.9438
-11.1343 8.9022 -2.3485 0.9438
-11.4448 8.4990 -2.3484 0.9438
-12.9799 7.6340 -2.4807 0.9408
-13.3458 7.2209 -2.4998 0.9403
-13.5985 6.7416 -2.5004 0.9403
-13.8303 6.2519 -2.5004 0.9403
-14.0445 5.7542 -2.5003 0.9403
-14.4190 4.7375 -2.5003 0.9403
-14.7200 3.6968 -2.5003 0.9403
-14.8425 3.1690 -2.5003 0.9403
-14.9461 2.6372 -2.5002 0.9403
-15.1691 0.4833 -2.5002 0.9403
-15.1767 -0.0584 -2.5002 0.9403
-15.1339 -1.1409 -2.5002 0.9403
-15.0836 -1.6804 -2.5002 0.9403
-14.9253 -2.7522 -2.5002 0.9403
-14.5459 -4.3319 -2.5003 0.9403
-14.3821 -4.8484 -2.5003 0.9403
-14.2000 -5.3586 -2.5003 0.9403
-13.9998 -5.8621 -2.5003 0.9403
-13.2933 -7.3252 -2.5004 0.9403
11.4263 6.8391 -2.5030 0.9472
9.7074 7.8845 -2.3506 0.9504
9.4197 8.2258 -2.3506 0.9504
8.8086 8.8767 -2.3505 0.9504
7.8090 9.7670 -2.3504 0.9504
7.0921 10.2988 -2.3504 0.9504
5.9502 10.9974 -2.3502 0.9504
5.5538 11.2026 -2.3502 0.9504
5.1503 11.3934 -2.3502 0.9504
3.0465 8.2649 -1.6556 0.9648
3.4762 12.0096 -2.3500 0.9504
3.0453 12.1257 -2.3499 0.9504
2.6105 12.2264 -2.3499 0.9504
1.7316 12.3811 -2.3498 0.9504
0.8514 8.2167 -1.5527 0.9669
0.5640 8.3357 -1.5704 0.9666
-0.9397 12.4647 -2.3495 0.9504
-1.3840 12.4230 -2.3495 0.9504
-3.9926 11.8435 -2.3492 0.9504
-3.6594 9.6972 -1.9482 0.9587
-4.1334 8.9596 -1.8546 0.9606
-4.5469 8.9970 -1.8948 0.9598
-5.8927 9.8451 -2.1566 0.9544
-7.1665 10.2374 -2.3489 0.9504
-7.5272 9.9750 -2.3488 0.9504
-8.2194 9.4123 -2.3488 0.9504
-8.8697 8.8017 -2.3487 0.9504
-11.4676 6.7445 -2.5006 0.9473
-11.9193 5.9091 -2.5006 0.9473
-12.1225 5.4799 -2.5005 0.9473
-12.3103 5.0437 -2.5005 0.9473
-12.4823 4.6011 -2.5005 0.9473
-12.6385 4.1526 -2.5005 0.9473
-13.0098 2.7777 -2.5004 0.9473
-13.1006 2.3116 -2.5004 0.9473
-13.1747 1.8425 -2.5004 0.9473
-13.2320 1.3711 -2.5004 0.9473
-13.2725 0.8980 -2.5004 0.9473
-13.3027 -0.0512 -2.5004 0.9473
-13.2652 -1.0001 -2.5004 0.9473
-12.9880 -2.8777 -2.5004 0.9473
-12.8771 -3.3395 -2.5005 0.9473
-12.6062 -4.2497 -2.5005 0.9473
-12.0800 -5.5730 -2.5005 0.9473
-11.8734 -6.0006 -2.5006 0.9473
-11.6518 -6.4207 -2.5006 0.9473
10.1598 6.0810 -2.5029 0.9527
9.9362 6.4398 -2.5029 0.9527
9.4513 7.1320 -2.5028 0.9527
7.5456 8.1673 -2.3504 0.9556
6.9435 8.6845 -2.3503 0.9556
6.3061 9.1575 -2.3503 0.9556
5.9751 9.3766 -2.3502 0.9556
4.9384 9.9611 -2.3501 0.9556
4.2150 10.2877 -2.3501 0.9556
3.0910 10.6788 -2.3499 0.9556
2.3212 10.8717 -2.3499 0.9556
1.9317 10.9475 -2.3498 0.9556
-0.0428 11.1155 -2.3496 0.9556
-0.4394 11.1067 -2.3496 0.9556
-0.8356 11.0838 -2.3495 0.9556
-1.2306 11.0467 -2.3495 0.9556
-1.6241 10.9955 -2.3495 0.9556
-2.0155 10.9304 -2.3494 0.9556
-2.8865 9.6922 -2.1377 0.9595
-3.0131 8.9379 -1.9938 0.9622
-3.3782 8.9520 -2.0225 0.9616
-3.7545 8.9664 -2.0548 0.9610
-4.9533 8.9889 -2.1695 0.9589
-6.3727 9.1036 -2.3489 0.9556
-6.6935 8.8702 -2.3489 0.9556
-7.0057 8.6255 -2.3489 0.9556
-7.6030 8.1035 -2.3488 0.9556
-9.2284 7.3783 -2.4975 0.9528
-9.4983 7.0535 -2.5008 0.9528
-9.7439 6.7099 -2.5008 0.9528
-9.9771 6.3578 -2.5008 0.9528
-10.1976 5.9976 -2.5007 0.9528
-10.4051 5.6298 -2.5007 0.9528
-10.5993 5.2547 -2.5007 0.9528
-10.7800 4.8730 -2.5007 0.9528
-10.9470 4.4851 -2.5007 0.9528
-11.1000 4.0915 -2.5006 0.9528
-11.2389 3.6927 -2.5006 0.9528
-11.3635 3.2892 -2.5006 0.9528
-11.8028 0.7985 -2.5006 0.9528
-11.8237 0.3768 -2.5006 0.9528
-11.8296 -0.0455 -2.5006 0.9528
-11.8205 -0.4677 -2.5006 0.9528
-11.7570 -1.3098 -2.5006 0.9528
-11.6337 -2.1452 -2.5006 0.9528
-11.2102 -3.7791 -2.5006 0.9528
-10.5585 -5.3361 -2.5007 0.9528
-10.3614 -5.7096 -2.5007 0.9528
9.1374 5.4691 -2.5028 0.9572
8.9363 5.7917 -2.5028 0.9572
8.5002 6.4143 -2.5027 0.9572
7.7603 7.2810 -2.5009 0.9572
7.4823 7.5400 -2.4965 0.9573
7.0588 7.6403 -2.4447 0.9582
6.5807 7.6538 -2.3723 0.9594
5.9620 8.0285 -2.3502 0.9597
5.6716 8.2360 -2.3502 0.9597
5.3739 8.4331 -2.3502 0.9597
4.7585 8.7947 -2.3501 0.9597
4.4415 8.9588 -2.3501 0.9597
4.1188 9.1115 -2.3501 0.9597
3.1211 9.4992 -2.3499 0.9597
2.4354 9.6973 -2.3499 0.9597
1.7374 9.8461 -2.3498 0.9598
1.3848 9.9017 -2.3498 0.9598
0.3184 9.9925 -2.3497 0.9598
-1.4607 9.8895 -2.3495 0.9598
-1.8128 9.8309 -2.3494 0.9598
-2.1624 9.7597 -2.3494 0.9598
-2.5094 9.6762 -2.3494 0.9598
-3.0093 8.9269 -2.2140 0.9620
-4.0970 8.8805 -2.2985 0.9606
-4.4959 8.8959 -2.3426 0.9599
-4.8239 8.7541 -2.3491 0.9598
-5.4360 8.3875 -2.3490 0.9598
-5.7318 8.1880 -2.3490 0.9598
-7.1658 7.6375 -2.4613 0.9579
-8.5432 6.3442 -2.5009 0.9572
-8.7641 6.0352 -2.5009 0.9572
-8.9738 5.7185 -2.5009 0.9572
-9.1721 5.3945 -2.5009 0.9572
-9.6960 4.3830 -2.5008 0.9572
-10.2209 2.9584 -2.5007 0.9572
-10.3199 2.5918 -2.5007 0.9572
-10.4058 2.2217 -2.5007 0.9572
-10.4784 1.8489 -2.5007 0.9572
-10.6348 0.3389 -2.5007 0.9572
-10.6319 -0.4207 -2.5007 0.9572
-10.6101 -0.7999 -2.5007 0.9572
-10.5748 -1.1781 -2.5007 0.9572
-10.4639 -1.9295 -2.5007 0.9572
-9.4968 -4.7995 -2.5008 0.9572
-9.3195 -5.1355 -2.5008 0.9572
8.2938 4.9642 -2.5027 0.9608
7.7155 5.8222 -2.5026 0.9608
7.0487 6.6134 -2.5026 0.9609
6.8081 6.8606 -2.5025 0.9609
6.5588 7.0992 -2.5025 0.9609
6.0212 7.5310 -2.4965 0.9609
5.6713 7.6370 -2.4630 0.9615
4.8824 7.6619 -2.3524 0.9632
4.6015 7.8238 -2.3501 0.9632
4.0315 8.1319 -2.3500 0.9632
3.0202 8.1935 -2.2610 0.9646
2.7857 8.4785 -2.3107 0.9638
2.5234 8.7179 -2.3499 0.9632
2.2106 8.8023 -2.3498 0.9632
1.8950 8.8755 -2.3498 0.9632
1.2570 8.9878 -2.3498 0.9632
0.8515 8.2177 -2.1391 0.9664
0.2890 9.0703 -2.3496 0.9632
-0.0349 9.0747 -2.3496 0.9632
-0.3588 9.0675 -2.3496 0.9632
-1.0047 9.0186 -2.3495 0.9632
-1.9629 8.8591 -2.3494 0.9632
-2.2778 8.7833 -2.3494 0.9632
-2.5898 8.6963 -2.3493 0.9632
-2.8985 8.5982 -2.3493 0.9632
-3.2035 8.4891 -2.3493 0.9632
-3.8009 8.2387 -2.3492 0.9632
-4.3788 7.9464 -2.3492 0.9632
-4.6596 7.7849 -2.3491 0.9632
-5.7612 7.6347 -2.4764 0.9613
-6.3501 7.2717 -2.4996 0.9609
-6.6096 7.0447 -2.5011 0.9609
-7.0952 6.5551 -2.5011 0.9609
-7.3245 6.2975 -2.5010 0.9609
-7.9555 5.4784 -2.5010 0.9609
-8.1459 5.1909 -2.5010 0.9609
-8.3259 4.8968 -2.5009 0.9609
-8.4954 4.5965 -2.5009 0.9609
-8.8015 3.9787 -2.5009 0.9609
-9.0628 3.3406 -2.5009 0.9609
-9.2780 2.6855 -2.5008 0.9609
-9.3679 2.3527 -2.5008 0.9609
-9.4458 2.0168 -2.5008 0.9609
-9.5118 1.6783 -2.5008 0.9609
-9.5656 1.3378 -2.5008 0.9609
-9.6366 0.6520 -2.5008 0.9609
-9.6537 0.3076 -2.5008 0.9609
-9.6511 -0.3819 -2.5008 0.9609
-9.5993 -1.0694 -2.5008 0.9609
-9.5550 -1.4113 -2.5008 0.9609
-9.4300 -2.0894 -2.5008 0.9609
-9.3495 -2.4247 -2.5008 0.9609
-9.0368 -3.4102 -2.5009 0.9609
-8.9094 -3.7306 -2.5009 0.9609
-8.6207 -4.3567 -2.5009 0.9609
-8.4597 -4.6617 -2.5009 0.9609
7.2420 5.0696 -2.5026 0.9639
7.0564 5.3248 -2.5026 0.9639
6.8618 5.5732 -2.5025 0.9639
6.4466 6.0484 -2.5025 0.9639
5.9986 6.4928 -2.5024 0.9639
5.7629 6.7027 -2.5024 0.9639
5.5200 6.9041 -2.5024 0.9639
5.2700 7.0966 -2.5024 0.9639
5.0101 7.2755 -2.5007 0.9639
4.4684 7.5976 -2.4952 0.9640
3.7905 7.6457 -2.4159 0.9651
2.8709 7.7886 -2.3499 0.9661
2.5911 7.8860 -2.3499 0.9661
2.3079 7.9734 -2.3499 0.9661
2.0218 8.0506 -2.3498 0.9661
-0.3281 8.2932 -2.3496 0.9661
-0.9189 8.2484 -2.3495 0.9661
-2.0833 8.0333 -2.3494 0.9661
-3.2085 7.6621 -2.3516 0.9661
-3.5300 7.6515 -2.3855 0.9656
-4.2079 7.6362 -2.4682 0.9644
-4.7983 7.4035 -2.4976 0.9640
-5.3221 7.0527 -2.5013 0.9639
-5.5703 6.8582 -2.5012 0.9639
-5.8115 6.6549 -2.5012 0.9639
-6.2714 6.2233 -2.5012 0.9639
-7.2763 5.0107 -2.5011 0.9639
-7.4505 4.7478 -2.5010 0.9639
-7.6152 4.4788 -2.5010 0.9639
-7.7701 4.2041 -2.5010 0.9639
-8.0502 3.6390 -2.5010 0.9639
-8.2892 3.0554 -2.5009 0.9639
-8.3929 2.7576 -2.5009 0.9639
-8.5682 2.1518 -2.5009 0.9639
-8.7871 0.9105 -2.5009 0.9639
-8.8140 0.5963 -2.5009 0.9639
-8.8341 -0.0340 -2.5009 0.9639
-8.7798 -0.9781 -2.5009 0.9639
-8.7393 -1.2909 -2.5009 0.9639
-8.5514 -2.2177 -2.5009 0.9639
-8.0219 -3.7008 -2.5010 0.9639
-7.7375 -4.2637 -2.5010 0.9639
6.9813 4.1786 -2.5025 0.9665
6.8277 4.4251 -2.5025 0.9665
6.1282 5.3516 -2.5025 0.9665
5.9333 5.5668 -2.5024 0.9665
5.7308 5.7750 -2.5024 0.9665
5.3041 6.1690 -2.5024 0.9665
4.8504 6.5315 -2.5023 0.9665
3.8713 7.1551 -2.5022 0.9665
3.6109 7.2836 -2.5005 0.9666
3.0773 7.5108 -2.4966 0.9666
2.5087 7.6354 -2.4720 0.9669
2.2115 7.6401 -2.4464 0.9673
1.9198 7.6442 -2.4242 0.9676
1.6329 7.6477 -2.4053 0.9678
1.0703 7.6530 -2.3768 0.9682
0.7932 7.6548 -2.3671 0.9683
0.5180 7.6561 -2.3602 0.9684
-0.0294 7.6583 -2.3556 0.9685
-0.5771 7.6559 -2.3615 0.9684
-1.1303 7.6526 -2.3793 0.9681
-1.4106 7.6501 -2.3927 0.9680
-1.6944 7.6471 -2.4091 0.9678
-1.9822 7.6434 -2.4287 0.9675
-2.2750 7.6392 -2.4516 0.9672
-2.5736 7.6343 -2.4780 0.9668
-3.9250 7.1227 -2.5014 0.9665
-4.1766 6.9780 -2.5014 0.9665
-4.8985 6.4914 -2.5013 0.9665
-5.3490 6.1253 -2.5013 0.9665
-5.9729 5.5183 -2.5012 0.9665
-6.1660 5.3015 -2.5012 0.9665
-6.3513 5.0780 -2.5011 0.9665
-6.5284 4.8481 -2.5011 0.9665
-6.8576 4.3699 -2.5011 0.9665
-7.4095 3.3494 -2.5010 0.9665
-7.5243 3.0828 -2.5010 0.9665
-7.6295 2.8123 -2.5010 0.9665
-8.0075 1.4129 -2.5010 0.9665
-8.0878 0.8381 -2.5010 0.9665
-8.1126 0.5489 -2.5010 0.9665
-8.1270 0.2590 -2.5010 0.9665
-7.9964 -1.4745 -2.5010 0.9665
-7.9386 -1.7590 -2.5010 0.9665
-7.7052 -2.5975 -2.5010 0.9665
-7.1218 -3.9244 -2.5011 0.9665
5.8436 4.7462 -2.5024 0.9688
5.1085 5.5294 -2.5024 0.9688
4.7009 5.8796 -2.5023 0.9688
4.2694 6.1999 -2.5023 0.9688
3.8162 6.4886 -2.5022 0.9688
3.5821 6.6206 -2.5022 0.9688
3.3435 6.7441 -2.5022 0.9688
2.6033 7.0627 -2.5021 0.9688
2.3496 7.1510 -2.5021 0.9688
1.8320 7.2947 -2.5001 0.9688
1.5698 7.3524 -2.4991 0.9688
1.0407 7.4411 -2.4975 0.9688
-0.2969 7.5040 -2.4963 0.9688
-0.5646 7.4893 -2.4965 0.9688
-1.0979 7.4326 -2.4974 0.9688
-1.3628 7.3907 -2.4981 0.9688
-1.8880 7.2800 -2.5000 0.9688
-2.4041 7.1313 -2.5016 0.9688
-2.6570 7.0409 -2.5015 0.9688
-3.6318 6.5908 -2.5014 0.9688
-3.8647 6.4569 -2.5014 0.9688
-4.0927 6.3148 -2.5014 0.9688
-4.3154 6.1646 -2.5014 0.9688
-5.1487 5.4876 -2.5013 0.9688
-5.5269 5.1062 -2.5012 0.9688
-5.7056 4.9056 -2.5012 0.9688
-5.8770 4.6988 -2.5012 0.9688
-6.0410 4.4861 -2.5012 0.9688
-6.4858 3.8145 -2.5011 0.9688
-6.6177 3.5806 -2.5011 0.9688
-6.7413 3.3421 -2.5011 0.9688
-7.1482 2.3486 -2.5011 0.9688
-7.2274 2.0920 -2.5011 0.9688
-7.3582 1.5711 -2.5010 0.9688
-7.4096 1.3074 -2.5010 0.9688
-7.4515 1.0421 -2.5010 0.9688
-7.5202 0.2396 -2.5010 0.9688
-7.5181 -0.2975 -2.5010 0.9688
-7.5027 -0.5656 -2.5010 0.9688
-7.4778 -0.8330 -2.5010 0.9688
-7.3993 -1.3644 -2.5010 0.9688
-7.3459 -1.6276 -2.5010 0.9688
-7.2831 -1.8888 -2.5010 0.9688
-7.1299 -2.4036 -2.5011 0.9688
-6.9403 -2.9061 -2.5011 0.9688
-6.8322 -3.1520 -2.5011 0.9688
-6.7154 -3.3938 -2.5011 0.9688
-6.5900 -3.6314 -2.5011 0.9688
5.2707 4.6027 -2.5024 0.9707
5.1030 4.7879 -2.5023 0.9707
4.9289 4.9669 -2.5023 0.9707
4.7484 5.1396 -2.5023 0.9707
4.3696 5.4652 -2.5023 0.9707
3.9685 5.7629 -2.5022 0.9707
3.7603 5.9008 -2.5022 0.9707
3.5472 6.0312 -2.5022 0.9707
3.1078 6.2688 -2.5021 0.9707
2.6527 6.4744 -2.5021 0.9707
2.1840 6.6470 -2.5020 0.9707
1.7042 6.7858 -2.5020 0.9707
0.9690 6.9288 -2.5019 0.9707
-0.0269 6.9959 -2.5018 0.9707
-0.2766 6.9904 -2.5018 0.9707
-0.5259 6.9760 -2.5018 0.9707
-1.5133 6.8299 -2.5017 0.9707
-1.9966 6.7044 -2.5016 0.9707
-2.2346 6.6288 -2.5016 0.9707
-2.4698 6.5447 -2.5016 0.9707
-2.7018 6.4524 -2.5015 0.9707
-3.1551 6.2431 -2.5015 0.9707
-3.3759 6.1264 -2.5015 0.9707
-4.6008 5.2685 -2.5013 0.9707
-4.7859 5.1009 -2.5013 0.9707
-5.6153 4.1700 -2.5012 0.9707
-6.1515 3.3283 -2.5012 0.9707
-6.3732 2.8810 -2.5011 0.9707
-6.5624 2.4189 -2.5011 0.9707
-6.6446 2.1832 -2.5011 0.9707
-6.9567 0.7208 -2.5011 0.9707
-6.9780 0.4721 -2.5011 0.9707
-6.9904 0.2227 -2.5011 0.9707
-6.9741 -0.5258 -2.5011 0.9707
-6.9509 -0.7743 -2.5011 0.9707
-6.9189 -1.0220 -2.5011 0.9707
-6.4513 -2.7013 -2.5011 0.9707
-6.3508 -2.9299 -2.5011 0.9707
-6.2422 -3.1547 -2.5012 0.9707
-6.1257 -3.3755 -2.5012 0.9707
5.4797 3.5514 -2.5024 0.9724
5.3494 3.7447 -2.5024 0.9724
5.0686 4.1168 -2.5023 0.9724
4.9184 4.2950 -2.5023 0.9724
4.7619 4.4678 -2.5023 0.9724
4.5994 4.6349 -2.5023 0.9724
4.2570 4.9512 -2.5023 0.9724
3.7032 5.3777 -2.5022 0.9724
3.1071 5.7426 -2.5021 0.9724
2.9001 5.8498 -2.5021 0.9724
2.6895 5.9495 -2.5021 0.9724
2.4754 6.0417 -2.5021 0.9724
2.0380 6.2028 -2.5020 0.9724
1.8153 6.2715 -2.5020 0.9724
1.5903 6.3322 -2.5020 0.9724
1.1345 6.4294 -2.5019 0.9724
0.9043 6.4658 -2.5019 0.9724
0.6729 6.4938 -2.5019 0.9724
0.2079 6.5252 -2.5018 0.9724
-0.0251 6.5284 -2.5018 0.9724
-0.2581 6.5233 -2.5018 0.9724
-0.4908 6.5098 -2.5018 0.9724
-1.1838 6.4199 -2.5017 0.9724
-1.4122 6.3735 -2.5017 0.9724
-2.0853 6.1858 -2.5016 0.9724
-2.3047 6.1074 -2.5016 0.9724
-2.5212 6.0212 -2.5016 0.9724
-2.7345 5.9273 -2.5015 0.9724
-2.9443 5.8259 -2.5015 0.9724
-3.1503 5.7170 -2.5015 0.9724
-3.3524 5.6009 -2.5015 0.9724
-3.5501 5.4776 -2.5014 0.9724
-3.7433 5.3474 -2.5014 0.9724
-4.7942 4.4293 -2.5013 0.9724
-4.9492 4.2553 -2.5013 0.9724
-5.2401 3.8913 -2.5013 0.9724
-5.3757 3.7018 -2.5012 0.9724
-5.5043 3.5076 -2.5012 0.9724
-5.7405 3.1059 -2.5012 0.9724
-6.0395 2.4745 -2.5012 0.9724
-6.1240 2.2573 -2.5012 0.9724
-6.2694 1.8147 -2.5012 0.9724
-6.3301 1.5898 -2.5011 0.9724
-6.4274 1.1341 -2.5011 0.9724
-6.4919 0.6727 -2.5011 0.9724
-6.5233 0.2079 -2.5011 0.9724
-6.4566 -0.9537 -2.5011 0.9724
-6.1064 -2.3044 -2.5012 0.9724
-5.9265 -2.7341 -2.5012 0.9724
-5.8252 -2.9440 -2.5012 0.9724
4.8804 3.6828 -2.5023 0.9739
4.7458 3.8546 -2.5023 0.9739
4.6052 4.0215 -2.5023 0.9739
4.3065 4.3398 -2.5023 0.9739
3.9859 4.6359 -2.5022 0.9739
3.8179 4.7751 -2.5022 0.9739
3.6450 4.9083 -2.5022 0.9739
3.0993 5.2697 -2.5021 0.9739
2.9093 5.3769 -2.5021 0.9739
2.7155 5.4773 -2.5021 0.9739
2.1144 5.7361 -2.5020 0.9739
1.6997 5.8722 -2.5020 0.9739
1.4890 5.9291 -2.5020 0.9739
1.0623 6.0201 -2.5019 0.9739
0.6301 6.0804 -2.5019 0.9739
0.1947 6.1097 -2.5018 0.9739
-0.4595 6.0954 -2.5018 0.9739
-0.6768 6.0750 -2.5017 0.9739
-0.8932 6.0470 -2.5017 0.9739
-1.3223 5.9677 -2.5017 0.9739
-1.5344 5.9167 -2.5017 0.9739
-1.9526 5.7920 -2.5016 0.9739
-2.3607 5.6379 -2.5016 0.9739
-2.9498 5.3531 -2.5015 0.9739
-3.6815 4.8787 -2.5014 0.9739
-4.0201 4.6035 -2.5014 0.9739
-4.3382 4.3050 -2.5014 0.9739
-4.4891 4.1473 -2.5013 0.9739
-4.6342 3.9845 -2.5013 0.9739
-4.7734 3.8165 -2.5013 0.9739
-4.9066 3.6437 -2.5013 0.9739
-5.3751 2.9082 -2.5012 0.9739
-5.8059 1.9076 -2.5012 0.9739
-5.8703 1.6992 -2.5012 0.9739
-5.9272 1.4886 -2.5012 0.9739
-5.9766 1.2760 -2.5012 0.9739
-6.0183 1.0619 -2.5012 0.9739
-6.0523 0.8464 -2.5012 0.9739
-6.1112 -0.0235 -2.5012 0.9739
-6.0939 -0.4594 -2.5012 0.9739
-6.0737 -0.6766 -2.5012 0.9739
-6.0456 -0.8930 -2.5012 0.9739
-6.0099 -1.1082 -2.5012 0.9739
-5.9665 -1.3220 -2.5012 0.9739
-5.9156 -1.5341 -2.5012 0.9739
-5.8571 -1.7443 -2.5012 0.9739
-5.5493 -2.5601 -2.5012 0.9739
-5.4544 -2.7566 -2.5012 0.9739
4.9266 2.9488 -2.5023 0.9753
4.8182 3.1227 -2.5023 0.9753
4.1871 3.9285 -2.5023 0.9753
4.0442 4.0754 -2.5022 0.9753
3.8961 4.2171 -2.5022 0.9753
3.7431 4.3535 -2.5022 0.9753
3.5853 4.4843 -2.5022 0.9753
3.2562 4.7286 -2.5022 0.9753
2.7321 5.0495 -2.5021 0.9753
2.3648 5.2314 -2.5021 0.9753
2.1766 5.3124 -2.5020 0.9753
1.5962 5.5145 -2.5020 0.9753
0.9976 5.6534 -2.5019 0.9753
0.7951 5.6854 -2.5019 0.9753
0.5917 5.7101 -2.5019 0.9753
-0.0221 5.7405 -2.5018 0.9753
-0.2270 5.7360 -2.5018 0.9753
-1.0409 5.6451 -2.5017 0.9753
-1.2417 5.6043 -2.5017 0.9753
-1.6383 5.5013 -2.5016 0.9753
-1.8336 5.4393 -2.5016 0.9753
-2.2170 5.2946 -2.5016 0.9753
-2.5890 5.1228 -2.5015 0.9753
-2.7702 5.0271 -2.5015 0.9753
-3.2916 4.7021 -2.5015 0.9753
-3.4573 4.5816 -2.5015 0.9753
-3.6186 4.4552 -2.5014 0.9753
-3.7753 4.3232 -2.5014 0.9753
-3.9272 4.1857 -2.5014 0.9753
-4.0740 4.0428 -2.5014 0.9753
-4.2157 3.8948 -2.5014 0.9753
-4.3520 3.7418 -2.5014 0.9753
-4.4828 3.5841 -2.5013 0.9753
-4.6078 3.4218 -2.5013 0.9753
-4.9471 2.9096 -2.5013 0.9753
-5.0478 2.7312 -2.5013 0.9753
-5.1421 2.5492 -2.5013 0.9753
-5.2297 2.3641 -2.5013 0.9753
-5.6518 0.9973 -2.5012 0.9753
-5.6838 0.7949 -2.5012 0.9753
-5.7038 -0.6354 -2.5012 0.9753
-5.6775 -0.8386 -2.5012 0.9753
-5.6440 -1.0407 -2.5012 0.9753
-5.6033 -1.2415 -2.5012 0.9753
-5.5554 -1.4407 -2.5012 0.9753
-5.5004 -1.6381 -2.5012 0.9753
-5.4385 -1.8334 -2.5012 0.9753
-5.2114 -2.4042 -2.5013 0.9753
4.6385 2.7763 -2.5023 0.9765
4.5364 2.9401 -2.5023 0.9765
4.3151 3.2562 -2.5023 0.9765
4.0717 3.5557 -2.5022 0.9765
3.9422 3.6987 -2.5022 0.9765
3.8077 3.8371 -2.5022 0.9765
3.6683 3.9705 -2.5022 0.9765
3.5242 4.0989 -2.5022 0.9765
3.0658 4.4520 -2.5021 0.9765
2.9049 4.5586 -2.5021 0.9765
2.7403 4.6593 -2.5021 0.9765
2.4009 4.8429 -2.5021 0.9765
2.2265 4.9255 -2.5020 0.9765
2.0493 5.0018 -2.5020 0.9765
1.3166 5.2423 -2.5020 0.9765
1.1286 5.2859 -2.5019 0.9765
0.9392 5.3228 -2.5019 0.9765
0.7486 5.3529 -2.5019 0.9765
-0.2137 5.4005 -2.5018 0.9765
-0.7897 5.3466 -2.5017 0.9765
-1.1691 5.2766 -2.5017 0.9765
-1.3567 5.2315 -2.5017 0.9765
-1.5425 5.1797 -2.5017 0.9765
-1.7264 5.1213 -2.5016 0.9765
-1.9081 5.0563 -2.5016 0.9765
-2.4376 4.8233 -2.5016 0.9765
-2.6082 4.7332 -2.5015 0.9765
-2.7754 4.6371 -2.5015 0.9765
-2.9392 4.5350 -2.5015 0.9765
-3.4070 4.1947 -2.5015 0.9765
-3.6976 3.9409 -2.5014 0.9765
-3.9692 3.6671 -2.5014 0.9765
-4.0976 3.5231 -2.5014 0.9765
-4.2207 3.3746 -2.5014 0.9765
-4.3384 3.2217 -2.5014 0.9765
-4.4506 3.0648 -2.5013 0.9765
-4.5572 2.9040 -2.5013 0.9765
-4.6579 2.7395 -2.5013 0.9765
-4.9240 2.2258 -2.5013 0.9765
-5.1337 1.6867 -2.5013 0.9765
-5.2409 1.3162 -2.5013 0.9765
-5.3214 0.9390 -2.5013 0.9765
-5.3515 0.7484 -2.5012 0.9765
-5.3748 0.5570 -2.5012 0.9765
-5.3913 0.3648 -2.5012 0.9765
-5.4008 0.1721 -2.5012 0.9765
-5.3883 -0.4062 -2.5012 0.9765
-5.3456 -0.7896 -2.5012 0.9765
-5.3140 -0.9799 -2.5013 0.9765
-5.2306 -1.3565 -2.5013 0.9765
-5.1789 -1.5423 -2.5013 0.9765
-4.9844 -2.0871 -2.5013 0.9765
-4.9067 -2.2637 -2.5013 0.9765
-4.8228 -2.4374 -2.5013 0.9765
-4.7328 -2.6080 -2.5013 0.9765
4.2808 2.7744 -2.5023 0.9775
3.3256 3.8679 -2.5022 0.9775
2.8930 4.2011 -2.5021 0.9775
2.7412 4.3017 -2.5021 0.9775
2.4273 4.4862 -2.5021 0.9775
2.1011 4.6479 -2.5020 0.9775
1.9338 4.7199 -2.5020 0.9775
1.7641 4.7859 -2.5020 0.9775
1.0650 4.9881 -2.5019 0.9775
0.8863 5.0229 -2.5019 0.9775
0.7065 5.0513 -2.5019 0.9775
0.5257 5.0733 -2.5019 0.9775
0.1624 5.0977 -2.5018 0.9775
-0.0196 5.1003 -2.5018 0.9775
-0.5647 5.0688 -2.5018 0.9775
-0.9248 5.0155 -2.5017 0.9775
-1.4556 4.8878 -2.5017 0.9775
-1.6292 4.8327 -2.5016 0.9775
-1.8006 4.7715 -2.5016 0.9775
-1.9697 4.7041 -2.5016 0.9775
-2.1364 4.6308 -2.5016 0.9775
-2.3003 4.5516 -2.5016 0.9775
-2.4613 4.4665 -2.5016 0.9775
-2.6191 4.3758 -2.5015 0.9775
-2.7736 4.2795 -2.5015 0.9775
-2.9246 4.1778 -2.5015 0.9775
-3.2151 3.9584 -2.5015 0.9775
-3.3543 3.8411 -2.5015 0.9775
-3.4893 3.7189 -2.5014 0.9775
-3.7456 3.4605 -2.5014 0.9775
-4.0940 3.0402 -2.5014 0.9775
-4.1999 2.8922 -2.5014 0.9775
-4.3955 2.5852 -2.5014 0.9775
-4.4850 2.4266 -2.5013 0.9775
-4.5687 2.2650 -2.5013 0.9775
-4.7186 1.9333 -2.5013 0.9775
-4.7846 1.7636 -2.5013 0.9775
-4.8982 1.4178 -2.5013 0.9775
-4.9456 1.2421 -2.5013 0.9775
-5.0501 0.7063 -2.5013 0.9775
-5.0966 0.1624 -2.5013 0.9775
-5.0848 -0.3833 -2.5013 0.9775
-4.8871 -1.4554 -2.5013 0.9775
-4.7036 -1.9695 -2.5013 0.9775
-4.5511 -2.3001 -2.5013 0.9775
-4.4661 -2.4611 -2.5013 0.9775
3.9513 2.7660 -2.5022 0.9785
3.5174 3.3002 -2.5022 0.9785
3.3974 3.4236 -2.5022 0.9785
3.2730 3.5426 -2.5022 0.9785
3.0119 3.7671 -2.5021 0.9785
2.7354 3.9723 -2.5021 0.9785
2.5919 4.0674 -2.5021 0.9785
2.4451 4.1573 -2.5021 0.9785
2.1422 4.3210 -2.5020 0.9785
1.6680 4.5252 -2.5020 0.9785
1.5054 4.5818 -2.5020 0.9785
1.3409 4.6326 -2.5020 0.9785
1.1747 4.6775 -2.5019 0.9785
0.8380 4.7493 -2.5019 0.9785
0.4971 4.7969 -2.5019 0.9785
0.3255 4.8116 -2.5018 0.9785
-0.1907 4.8187 -2.5018 0.9785
-0.7046 4.7706 -2.5017 0.9785
-1.0432 4.7081 -2.5017 0.9785
-1.2105 4.6678 -2.5017 0.9785
-1.5404 4.5695 -2.5017 0.9785
-1.8625 4.4479 -2.5016 0.9785
-2.3272 4.2233 -2.5016 0.9785
-2.4765 4.1375 -2.5016 0.9785
-2.6225 4.0464 -2.5015 0.9785
-2.7653 3.9502 -2.5015 0.9785
-2.9045 3.8490 -2.5015 0.9785
-3.0400 3.7429 -2.5015 0.9785
-3.2992 3.5164 -2.5015 0.9785
-3.5417 3.2720 -2.5014 0.9785
-3.9712 2.7347 -2.5014 0.9785
-4.0662 2.5912 -2.5014 0.9785
-4.1561 2.4444 -2.5014 0.9785
-4.3199 2.1416 -2.5014 0.9785
-4.5807 1.5050 -2.5013 0.9785
-4.6314 1.3406 -2.5013 0.9785
-4.7153 1.0068 -2.5013 0.9785
-4.7958 0.4970 -2.5013 0.9785
-4.8191 0.1536 -2.5013 0.9785
-4.8177 -0.1906 -2.5013 0.9785
-4.8079 -0.3625 -2.5013 0.9785
-4.7919 -0.5338 -2.5013 0.9785
-4.6672 -1.2104 -2.5013 0.9785
-4.5111 -1.7023 -2.5013 0.9785
-4.4474 -1.8623 -2.5013 0.9785
-4.2229 -2.3270 -2.5014 0.9785
3.9200 2.3463 -2.5022 0.9794
3.8338 2.4847 -2.5022 0.9794
3.6467 2.7519 -2.5022 0.9794
3.4411 3.0050 -2.5022 0.9794
3.1001 3.3555 -2.5021 0.9794
2.8528 3.5681 -2.5021 0.9794
2.7236 3.6676 -2.5021 0.9794
2.5910 3.7625 -2.5021 0.9794
2.4550 3.8526 -2.5021 0.9794
2.3159 3.9377 -2.5021 0.9794
2.0291 4.0928 -2.5020 0.9794
1.5799 4.2862 -2.5020 0.9794
1.2701 4.3879 -2.5019 0.9794
1.1127 4.4304 -2.5019 0.9794
0.4708 4.5436 -2.5019 0.9794
0.3083 4.5575 -2.5018 0.9794
0.1455 4.5655 -2.5018 0.9794
-0.1806 4.5642 -2.5018 0.9794
-0.3434 4.5548 -2.5018 0.9794
-0.5057 4.5396 -2.5018 0.9794
-0.6674 4.5187 -2.5017 0.9794
-0.8283 4.4919 -2.5017 0.9794
-0.9881 4.4595 -2.5017 0.9794
-1.1466 4.4213 -2.5017 0.9794
-1.3037 4.3776 -2.5017 0.9794
-1.4591 4.3282 -2.5017 0.9794
-1.6126 4.2733 -2.5016 0.9794
-1.7641 4.2130 -2.5016 0.9794
-1.9133 4.1474 -2.5016 0.9794
-2.0602 4.0764 -2.5016 0.9794
-2.4841 3.8328 -2.5016 0.9794
-2.6193 3.7416 -2.5015 0.9794
-2.8795 3.5452 -2.5015 0.9794
-3.0042 3.4401 -2.5015 0.9794
-3.3546 3.0993 -2.5015 0.9794
-3.4631 2.9775 -2.5014 0.9794
-3.5672 2.8520 -2.5014 0.9794
-3.8515 2.4544 -2.5014 0.9794
-3.9367 2.3153 -2.5014 0.9794
-4.0918 2.0286 -2.5014 0.9794
-4.1616 1.8812 -2.5014 0.9794
-4.3869 1.2698 -2.5013 0.9794
-4.4663 0.9536 -2.5013 0.9794
-4.4975 0.7936 -2.5013 0.9794
-4.5426 0.4707 -2.5013 0.9794
-4.5565 0.3083 -2.5013 0.9794
-4.5634 -0.1806 -2.5013 0.9794
-4.5540 -0.3433 -2.5013 0.9794
-4.5389 -0.5056 -2.5013 0.9794
-4.4588 -0.9879 -2.5013 0.9794
-4.4207 -1.1465 -2.5013 0.9794
-4.3770 -1.3035 -2.5013 0.9794
-4.3277 -1.4589 -2.5014 0.9794
-4.2729 -1.6124 -2.5014 0.9794
3.6369 2.3571 -2.5022 0.9802
3.5504 2.4854 -2.5022 0.9802
3.4594 2.6105 -2.5022 0.9802
3.2644 2.8506 -2.5022 0.9802
2.9409 3.1832 -2.5021 0.9802
2.8254 3.2861 -2.5021 0.9802
2.7063 3.3849 -2.5021 0.9802
2.0622 3.8115 -2.5020 0.9802
1.9249 3.8827 -2.5020 0.9802
1.6430 4.0100 -2.5020 0.9802
1.4988 4.0661 -2.5020 0.9802
1.3527 4.1170 -2.5020 0.9802
0.7530 4.2675 -2.5019 0.9802
0.4466 4.3103 -2.5019 0.9802
-0.0167 4.3332 -2.5018 0.9802
-0.4798 4.3065 -2.5018 0.9802
-0.6332 4.2866 -2.5017 0.9802
-0.7858 4.2613 -2.5017 0.9802
-0.9373 4.2305 -2.5017 0.9802
-1.0877 4.1943 -2.5017 0.9802
-1.3842 4.1060 -2.5017 0.9802
-1.5298 4.0539 -2.5017 0.9802
-1.8151 3.9344 -2.5016 0.9802
-2.2252 3.7178 -2.5016 0.9802
-2.3565 3.6360 -2.5016 0.9802
-2.4848 3.5495 -2.5016 0.9802
-2.6099 3.4586 -2.5015 0.9802
-2.7316 3.3632 -2.5015 0.9802
-2.8499 3.2635 -2.5015 0.9802
-2.9646 3.1597 -2.5015 0.9802
-3.0754 3.0519 -2.5015 0.9802
-3.1824 2.9401 -2.5015 0.9802
-3.2853 2.8247 -2.5015 0.9802
-3.3840 2.7056 -2.5015 0.9802
-3.4784 2.5831 -2.5014 0.9802
-3.7346 2.1964 -2.5014 0.9802
-3.8817 1.9244 -2.5014 0.9802
-3.9479 1.7846 -2.5014 0.9802
-4.0651 1.4984 -2.5014 0.9802
-4.1160 1.3524 -2.5014 0.9802
-4.3094 0.4465 -2.5014 0.9802
-4.3303 0.1380 -2.5014 0.9802
-4.3202 -0.3257 -2.5014 0.9802
-4.3058 -0.4797 -2.5014 0.9802
-4.2607 -0.7856 -2.5014 0.9802
-4.1523 -1.2366 -2.5014 0.9802
-4.1055 -1.3840 -2.5014 0.9802
-3.9341 -1.8150 -2.5014 0.9802
-3.7946 -2.0910 -2.5014 0.9802
