ply
format ascii 1.0
element vertex 1301
property float32 x
property float32 y
property float32 z
property float32 I
end_header
-19.4268 -11.6277 3.9922 0.9121
-19.4211 -12.5870 4.0808 0.9103
-23.0865 -17.4212 5.0997 0.8892
-18.6215 -17.4714 4.5024 0.9015
-17.1359 -17.2682 4.2896 0.9059
-9.4206 -12.6859 2.7862 0.9378
-11.1836 -17.5501 3.6695 0.9189
-9.5058 -17.5689 3.5223 0.9221
-8.7145 -17.5778 3.4594 0.9234
-8.6427 -21.0945 4.0196 0.9116
-8.8005 -26.7847 4.9713 0.8918
-8.7518 -30.2356 5.5502 0.8800
27.5028 -39.2882 8.4563 0.8230
27.5687 -36.5338 8.0702 0.8304
28.0284 -34.5086 7.8390 0.8348
27.5841 -31.5875 7.3945 0.8434
29.5051 -31.4474 7.6036 0.8393
29.6711 -29.4437 7.3706 0.8438
30.9643 -24.7568 6.9904 0.8513
33.3741 -24.7838 7.3299 0.8446
36.0336 -24.8137 7.7145 0.8372
42.2082 -22.8371 8.4620 0.8229
44.0503 -19.9127 8.5240 0.8217
19.4795 9.8446 3.8485 0.9152
-19.3880 -11.6045 3.4615 0.9126
-19.4225 -12.5879 3.5457 0.9106
-25.0429 -17.5307 4.6830 0.8836
-21.2681 -17.2742 4.1974 0.8950
-16.1624 -17.4941 3.6487 0.9081
-9.4240 -11.7870 2.3119 0.9408
-10.3276 -17.5597 3.1208 0.9209
-9.6003 -17.7435 3.0906 0.9216
-8.6768 -23.5395 3.8433 0.9035
-8.8061 -35.0641 5.5384 0.8639
27.5026 -39.2880 7.3468 0.8236
29.6056 -36.4505 7.1938 0.8269
27.5840 -31.5873 6.4244 0.8439
27.6307 -27.4191 5.9633 0.8543
36.0336 -24.8138 6.7024 0.8377
36.5053 -23.2626 6.6314 0.8393
42.2928 -24.8741 7.5165 0.8199
19.4627 9.8361 3.3407 0.9155
-19.4195 -12.5860 3.0135 0.9109
-23.0865 -17.4212 3.7662 0.8899
-18.6216 -17.4714 3.3251 0.9021
-17.4008 -17.5351 3.2169 0.9052
-15.2016 -17.6805 3.0364 0.9102
-14.0064 -17.5183 2.9208 0.9135
-12.1161 -17.5946 2.7819 0.9174
-9.6003 -17.7435 2.6271 0.9218
-8.7437 -21.3411 3.0033 0.9112
-8.7336 -23.6936 3.2883 0.9032
-8.9204 -41.7793 5.5632 0.8417
-1.2881 -40.4235 5.2666 0.8495
0.1550 -40.2974 5.2476 0.8500
27.5024 -39.2877 6.2450 0.8241
27.6651 -27.4531 5.0753 0.8545
27.6281 -25.5251 4.8982 0.8592
28.0109 -24.0836 4.8105 0.8616
28.8518 -23.0678 4.8103 0.8616
30.5287 -22.6708 4.9518 0.8578
43.0306 9.5342 5.7394 0.8371
41.3051 22.7609 6.1414 0.8268
-19.4452 -11.6387 2.4335 0.9129
-25.1050 -17.5742 3.2907 0.8840
-20.0516 -17.5103 2.8586 0.8984
-17.4008 -17.5351 2.6527 0.9054
-15.2016 -17.6805 2.5038 0.9105
-14.0064 -17.5183 2.4085 0.9137
-13.0175 -17.5295 2.3446 0.9159
-12.1161 -17.5946 2.2940 0.9176
-11.1836 -17.5501 2.2347 0.9197
-9.6003 -17.7435 2.1663 0.9220
-8.8303 -21.5523 2.5010 0.9106
-8.8582 -24.0315 2.7503 0.9021
-8.8005 -26.7847 3.0275 0.8928
-8.8369 -30.5297 3.4129 0.8800
-8.1809 -32.5745 3.6065 0.8736
27.5023 -39.2874 5.1497 0.8245
29.5051 -31.4474 4.6305 0.8407
29.6706 -29.4432 4.4886 0.8452
36.0336 -24.8137 4.6980 0.8386
44.0497 -19.9124 5.1910 0.8233
31.6382 -10.3952 3.5760 0.8746
26.5424 7.9045 2.9739 0.8946
19.4294 9.8192 2.3377 0.9161
-28.9953 -17.3548 2.8606 0.8731
-25.1050 -17.5742 2.5942 0.8842
-23.0865 -17.4212 2.4483 0.8904
-21.4714 -17.4394 2.3416 0.8949
-20.0516 -17.5103 2.2535 0.8986
-17.4008 -17.5351 2.0912 0.9056
-13.0175 -17.5295 1.8483 0.9161
-12.1986 -17.7143 1.8207 0.9173
-11.1836 -17.5501 1.7617 0.9199
-10.3276 -17.5597 1.7245 0.9215
-9.6003 -17.7435 1.7078 0.9222
-8.7145 -17.5778 1.6608 0.9243
-8.7179 -19.2854 1.7916 0.9185
-8.7850 -21.4419 1.9616 0.9112
-8.1059 -28.0043 2.4680 0.8896
-8.8066 -35.0659 3.0606 0.8649
27.5021 -39.2872 4.0597 0.8249
29.1657 -38.6502 4.0989 0.8234
29.5051 -31.4474 3.6504 0.8411
29.6704 -29.4431 3.5385 0.8455
29.7142 -25.5481 3.3173 0.8544
36.0336 -24.8137 3.7036 0.8389
36.5047 -23.2623 3.6643 0.8405
42.2928 -24.8741 4.1535 0.8212
31.6130 -12.9523 2.8920 0.8718
46.5443 8.5825 4.0065 0.8270
42.9651 9.5197 3.7254 0.8381
26.5515 8.9508 2.3719 0.8936
-26.8154 -17.3793 1.9815 0.8798
-25.1050 -17.5742 1.9003 0.8844
-21.4714 -17.4394 1.7153 0.8951
-17.3468 -17.4808 1.5271 0.9060
-16.1625 -17.4941 1.4769 0.9090
-15.0520 -17.5066 1.4317 0.9116
-9.4411 -17.4492 1.2303 0.9236
-8.6499 -21.1121 1.4148 0.9126
-8.8005 -26.7847 1.7483 0.8932
-8.1818 -32.5784 2.0829 0.8740
0.1775 -46.1449 2.8615 0.8312
1.8264 -46.1599 2.8646 0.8310
5.1477 -46.2081 2.8831 0.8300
27.5019 -39.2869 2.9738 0.8251
27.5678 -36.5327 2.8380 0.8324
27.5965 -33.9770 2.7143 0.8391
28.3688 -22.6817 2.2523 0.8645
33.0133 -22.7339 2.4856 0.8516
35.7233 -22.7643 2.6268 0.8439
38.7635 -22.7984 2.7887 0.8351
-26.5851 -17.2301 1.2492 0.8809
-21.4714 -17.4394 1.0907 0.8952
-18.6216 -17.4715 1.0069 0.9028
-16.1624 -17.4941 0.9391 0.9091
-15.0203 -17.4696 0.9085 0.9119
-13.0175 -17.5295 0.8610 0.9163
-12.0786 -17.5400 0.8397 0.9183
-11.1836 -17.5501 0.8206 0.9201
-9.5765 -17.6996 0.7935 0.9226
-8.7145 -17.5779 0.7736 0.9245
-8.6500 -21.1123 0.8996 0.9127
-8.7107 -26.5113 1.1004 0.8943
-8.4180 -29.0822 1.1938 0.8859
-7.4898 -29.8230 1.2125 0.8842
-6.3637 -29.8048 1.2017 0.8851
-5.2895 -29.9771 1.2003 0.8853
26.6474 -38.0663 1.8322 0.8303
29.3717 -29.1466 1.6316 0.8473
29.3941 -27.1566 1.5780 0.8520
29.3390 -25.2255 1.5257 0.8565
32.7960 -24.3545 1.6108 0.8491
35.4094 -24.3839 1.6953 0.8419
37.8855 -22.2820 1.7331 0.8387
43.9693 -21.7984 1.9351 0.8216
42.9822 9.5234 1.7359 0.8384
38.9981 14.7166 1.6436 0.8463
-25.0047 -17.5040 0.5156 0.8851
-23.0865 -17.4212 0.4885 0.8907
-15.1409 -17.6099 0.3923 0.9113
-14.0064 -17.5183 0.3789 0.9142
-13.0175 -17.5295 0.3688 0.9164
-11.1836 -17.5501 0.3515 0.9201
-8.7145 -17.5778 0.3314 0.9245
-8.7341 -23.6950 0.4266 0.9039
-8.8006 -26.7847 0.4762 0.8933
-6.0668 -28.4141 0.4908 0.8903
29.1658 -38.6502 0.8179 0.8239
31.1217 -38.3172 0.8339 0.8208
27.5830 -31.5862 0.7084 0.8456
27.4492 -27.2389 0.6532 0.8567
30.0366 -22.3054 0.6320 0.8610
42.9911 9.5255 0.7438 0.8385
19.3640 9.7862 0.3665 0.9169
16.2697 8.9653 0.3138 0.9284
-28.9952 -17.3548 -0.1903 0.8736
-26.8154 -17.3793 -0.1799 0.8800
-21.4715 -17.4394 -0.1557 0.8953
-20.0517 -17.5103 -0.1499 0.8990
-17.5192 -17.6545 -0.1400 0.9053
-13.0175 -17.5295 -0.1229 0.9164
-12.1986 -17.7143 -0.1211 0.9176
-10.3276 -17.5597 -0.1147 0.9217
-8.7145 -17.5779 -0.1105 0.9245
-8.7179 -19.2854 -0.1192 0.9188
-8.7342 -23.6953 -0.1422 0.9039
-8.8005 -26.7847 -0.1587 0.8934
-8.9356 -30.8704 -0.1809 0.8794
-8.8071 -35.0683 -0.2036 0.8653
-8.9204 -41.7793 -0.2405 0.8429
27.5014 -39.2862 -0.2700 0.8255
25.8334 -34.2342 -0.2415 0.8424
25.9476 -31.9468 -0.2317 0.8482
26.0206 -29.7971 -0.2227 0.8536
29.5269 -29.3007 -0.2342 0.8467
30.7795 -24.6090 -0.2219 0.8542
30.9194 -15.3287 -0.1943 0.8711
37.1213 -15.2092 -0.2259 0.8517
40.5043 -14.9301 -0.2430 0.8414
43.0001 9.5274 -0.2480 0.8385
19.3478 9.7780 -0.1220 0.9169
15.6679 8.6337 -0.1007 0.9309
-28.9953 -17.3548 -0.9515 0.8735
-25.0047 -17.5040 -0.8594 0.8850
-23.0865 -17.4212 -0.8144 0.8907
-20.1382 -17.5859 -0.7528 0.8985
-17.5192 -17.6545 -0.7003 0.9053
-16.1624 -17.4941 -0.6706 0.9091
-12.1986 -17.7143 -0.6056 0.9175
-8.7145 -17.5779 -0.5524 0.9245
-8.8005 -26.7847 -0.7939 0.8933
-8.9357 -30.8708 -0.9049 0.8793
-8.9204 -41.7793 -1.2029 0.8429
25.2923 -42.2567 -1.3867 0.8211
25.3928 -39.1799 -1.3147 0.8296
25.3301 -36.1844 -1.2437 0.8380
25.7478 -25.5505 -1.0214 0.8649
25.6656 -20.5204 -0.9253 0.8768
26.0850 -19.3709 -0.9149 0.8781
27.1018 -17.2704 -0.9049 0.8793
28.8678 -15.6192 -0.9242 0.8769
32.4864 -14.6853 -1.0039 0.8670
31.6391 -11.6624 -0.9495 0.8738
35.6196 -11.7034 -1.0557 0.8607
43.0091 9.5294 -1.2404 0.8384
19.3316 9.7698 -0.6099 0.9170
-28.9953 -17.3548 -1.7138 0.8734
-25.0047 -17.5040 -1.5479 0.8849
-16.0156 -17.3351 -1.1969 0.9098
-13.0175 -17.5295 -1.1073 0.9163
-12.1684 -17.6705 -1.0881 0.9177
-11.1836 -17.5501 -1.0554 0.9200
-8.5044 -23.0719 -1.2470 0.9062
-8.6169 -26.2257 -1.4000 0.8953
-8.8074 -35.0694 -1.8337 0.8652
-8.7260 -40.8686 -2.1193 0.8459
-6.4139 -45.8608 -2.3484 0.8307
-3.1266 -46.2127 -2.3490 0.8307
-1.5709 -49.2997 -2.5015 0.8207
5.4638 -49.0452 -2.5027 0.8207
7.2117 -48.8249 -2.5030 0.8206
8.4336 -45.7369 -2.3586 0.8300
10.0619 -45.4122 -2.3589 0.8300
12.3940 -47.7914 -2.5039 0.8206
14.0936 -47.3241 -2.5042 0.8206
19.0780 -45.5621 -2.5050 0.8205
20.6944 -44.8572 -2.5053 0.8205
21.7634 -43.0632 -2.4470 0.8243
23.8352 -39.8222 -2.3537 0.8304
25.0167 -38.5995 -2.3327 0.8317
25.0970 -33.2583 -2.1130 0.8463
25.1318 -30.9423 -2.0216 0.8524
25.1637 -28.8158 -1.9401 0.8579
25.5132 -23.5712 -1.7616 0.8701
25.8142 -20.6392 -1.6761 0.8760
27.7980 -16.3491 -1.6355 0.8788
28.8163 -15.5913 -1.6616 0.8770
30.2274 -14.9857 -1.7110 0.8736
32.6109 -14.7416 -1.8150 0.8665
31.5090 -11.6144 -1.7031 0.8742
44.6490 -12.9239 -2.3573 0.8301
48.4048 -10.3350 -2.5101 0.8202
49.0209 -6.8558 -2.5103 0.8202
49.2352 -5.1019 -2.5103 0.8202
49.3865 -3.3414 -2.5103 0.8202
49.4745 -1.5765 -2.5103 0.8202
49.3593 3.7211 -2.5103 0.8202
45.7153 8.4296 -2.3575 0.8301
42.0751 9.3225 -2.1856 0.8415
42.0763 10.9118 -2.2045 0.8402
24.5108 8.2628 -1.3118 0.9016
43.3547 18.1537 -2.3837 0.8284
42.8543 19.7704 -2.3934 0.8278
19.3167 9.7623 -1.0976 0.9170
41.1451 22.6728 -2.3825 0.8285
-27.4401 -16.4240 -2.3448 0.8796
-26.8154 -17.3793 -2.3430 0.8797
-24.3989 -17.0799 -2.1838 0.8874
-19.9895 -17.4561 -1.9459 0.8990
-18.6216 -17.4715 -1.8723 0.9027
-17.3468 -17.4808 -1.8057 0.9059
-16.1625 -17.4941 -1.7463 0.9089
-13.0175 -17.5295 -1.6009 0.9162
-9.8876 -16.8116 -1.4301 0.9248
-8.6277 -19.0859 -1.5358 0.9194
-8.9038 -30.7605 -2.3480 0.8795
-6.6877 -31.3225 -2.3484 0.8795
-5.5660 -31.5438 -2.3486 0.8794
-4.4369 -31.7249 -2.3488 0.8794
-3.3020 -31.8658 -2.3490 0.8794
-2.3000 -33.9952 -2.4983 0.8723
-1.0866 -34.1001 -2.5016 0.8721
0.1312 -34.1200 -2.5018 0.8721
1.3491 -34.0965 -2.5020 0.8721
2.5654 -34.0295 -2.5022 0.8721
7.3847 -33.3291 -2.5030 0.8720
9.6747 -32.4864 -2.4854 0.8729
12.0566 -31.9492 -2.5038 0.8720
13.1903 -31.5010 -2.5040 0.8720
14.3073 -31.0125 -2.5042 0.8720
16.4858 -29.9173 -2.5046 0.8720
18.5808 -28.6692 -2.5050 0.8720
19.5936 -27.9897 -2.5051 0.8719
21.5307 -26.5087 -2.5040 0.8720
21.9162 -25.0970 -2.4430 0.8749
23.5775 -21.7829 -2.3536 0.8792
24.3415 -20.9287 -2.3538 0.8792
25.0745 -20.0477 -2.3539 0.8792
25.7753 -19.1409 -2.3540 0.8792
26.3373 -18.1366 -2.3447 0.8796
26.7624 -17.0541 -2.3268 0.8805
28.2421 -15.2807 -2.3545 0.8792
28.7707 -14.2635 -2.3545 0.8792
29.2626 -13.2279 -2.3546 0.8792
30.7073 -11.3189 -2.3996 0.8770
32.4882 -10.6745 -2.5074 0.8718
32.8493 -9.5084 -2.5075 0.8718
33.6795 -5.9428 -2.5076 0.8718
33.8706 -4.7370 -2.5076 0.8718
34.0185 -3.5251 -2.5077 0.8718
34.1837 -1.0893 -2.5077 0.8718
34.1743 1.3521 -2.5077 0.8718
33.9904 3.7866 -2.5077 0.8718
33.8332 4.9974 -2.5076 0.8718
33.6328 6.2017 -2.5076 0.8718
31.0896 8.0626 -2.3550 0.8791
30.7814 9.1670 -2.3549 0.8791
29.1601 13.4527 -2.3546 0.8792
-20.9669 -12.5495 -2.3459 0.9065
-20.5063 -13.2903 -2.3460 0.9065
-18.4090 -16.0759 -2.3464 0.9065
-17.8243 -16.7234 -2.3465 0.9065
-17.2168 -17.3498 -2.3466 0.9065
-16.1625 -17.4941 -2.2866 0.9087
-14.7667 -17.1747 -2.1745 0.9130
-14.0064 -17.5184 -2.1533 0.9138
-13.0175 -17.5295 -2.0962 0.9160
-12.0785 -17.5400 -2.0446 0.9180
-9.7512 -16.5797 -1.8466 0.9256
-8.6278 -19.0861 -2.0109 0.9193
-8.6506 -21.1137 -2.1905 0.9124
-8.4590 -22.9487 -2.3481 0.9064
-7.6350 -23.2374 -2.3482 0.9064
-4.2513 -24.0935 -2.3488 0.9064
1.9592 -25.9884 -2.5021 0.9006
5.6392 -25.4515 -2.5027 0.9005
6.5445 -25.2357 -2.5029 0.9005
7.4415 -24.9875 -2.5030 0.9005
11.7634 -23.2762 -2.5038 0.9005
12.5874 -22.8428 -2.5039 0.9005
13.3954 -22.3802 -2.5041 0.9005
14.9595 -21.3699 -2.5043 0.9005
17.8521 -19.0272 -2.5049 0.9005
18.5207 -18.3788 -2.5050 0.9005
20.9513 -15.5586 -2.5054 0.9004
21.4941 -14.8014 -2.5055 0.9004
22.0095 -14.0253 -2.5056 0.9004
22.9555 -12.4203 -2.5057 0.9004
12.0854 -4.9516 -1.2539 0.9489
11.8536 -4.3693 -1.2129 0.9505
12.1844 -3.5268 -1.2178 0.9503
13.1809 -2.8143 -1.2940 0.9473
25.7080 -4.5362 -2.5062 0.9004
26.1058 0.1004 -2.5063 0.9004
25.9452 2.8904 -2.5063 0.9004
25.6724 4.7338 -2.5062 0.9004
25.4868 5.6471 -2.5062 0.9004
25.2686 6.5530 -2.5062 0.9004
24.9748 7.4377 -2.5018 0.9006
19.4635 8.9793 -2.0579 0.9175
18.5894 9.3947 -1.9996 0.9197
-18.0489 -10.8030 -2.4987 0.9188
-17.3921 -11.2720 -2.4619 0.9199
-14.8824 -12.9962 -2.3470 0.9235
-14.4095 -13.5196 -2.3471 0.9235
-13.4093 -14.5142 -2.3473 0.9235
-12.8832 -14.9841 -2.3473 0.9235
-10.6214 -16.6678 -2.3477 0.9235
-9.7519 -16.5809 -2.2850 0.9254
-5.4974 -18.9922 -2.3486 0.9234
-4.8162 -19.1773 -2.3487 0.9234
-4.1289 -19.3379 -2.3489 0.9234
-3.4362 -19.4740 -2.3490 0.9234
-2.1683 -20.9246 -2.4989 0.9188
0.8327 -21.0458 -2.5019 0.9187
1.5757 -20.9014 -2.4898 0.9190
4.5574 -20.5689 -2.5026 0.9186
6.7310 -19.9669 -2.5029 0.9186
9.4430 -15.7768 -2.1841 0.9286
13.8665 -15.8790 -2.5042 0.9186
14.9651 -14.8505 -2.5044 0.9186
15.4862 -14.3073 -2.5044 0.9186
15.9875 -13.7460 -2.5045 0.9186
16.9285 -12.5712 -2.5047 0.9186
17.3670 -11.9594 -2.5048 0.9186
18.5474 -10.0352 -2.5050 0.9186
18.8942 -9.3671 -2.5050 0.9186
11.0169 -4.5138 -1.4142 0.9532
11.6157 -3.8165 -1.4524 0.9519
12.0610 -3.4911 -1.4915 0.9507
12.9808 -2.7716 -1.5767 0.9479
14.1737 -1.9823 -1.7000 0.9440
21.0438 -1.4238 -2.5054 0.9185
21.0918 0.0811 -2.5054 0.9185
20.9622 2.3352 -2.5054 0.9185
19.9854 6.7373 -2.5052 0.9186
19.6982 7.4335 -2.5009 0.9187
18.2961 7.6611 -2.3562 0.9232
17.9846 8.2970 -2.3527 0.9233
-14.0805 -10.6252 -2.4993 0.9312
-13.6674 -11.1008 -2.4948 0.9313
-12.9151 -11.2783 -2.4295 0.9331
-12.0824 -11.3362 -2.3475 0.9353
-11.6704 -11.7606 -2.3476 0.9353
-11.2436 -12.1700 -2.3476 0.9353
-10.3474 -12.9419 -2.3478 0.9352
-9.8793 -13.3035 -2.3479 0.9352
-8.9057 -13.9754 -2.3480 0.9352
-8.4015 -14.2848 -2.3481 0.9352
-7.8866 -14.5762 -2.3482 0.9352
-6.8271 -15.1028 -2.3484 0.9352
-5.7328 -15.5526 -2.3486 0.9352
-5.1742 -15.7480 -2.3487 0.9352
-4.6091 -15.9233 -2.3488 0.9352
-4.0380 -16.0783 -2.3489 0.9352
-3.5505 -16.6289 -2.4092 0.9336
-1.8197 -17.5605 -2.5015 0.9312
0.6981 -17.6438 -2.5019 0.9311
1.3275 -17.6084 -2.5020 0.9311
1.9552 -17.5505 -2.5021 0.9311
2.5805 -17.4703 -2.5022 0.9311
3.2025 -17.3678 -2.5023 0.9311
4.4337 -17.0966 -2.5025 0.9311
5.6426 -16.7381 -2.5027 0.9311
6.2367 -16.5267 -2.5028 0.9311
6.8228 -16.2943 -2.5029 0.9311
7.4004 -16.0410 -2.5030 0.9311
8.2903 -15.0447 -2.4339 0.9330
8.7142 -14.5591 -2.4041 0.9337
9.2797 -14.3181 -2.4175 0.9334
10.6434 -14.1045 -2.5036 0.9311
11.1404 -13.7161 -2.5037 0.9311
11.6233 -13.3102 -2.5038 0.9311
12.0913 -12.8873 -2.5039 0.9311
14.5569 -10.0243 -2.5043 0.9311
14.9058 -9.4985 -2.5044 0.9311
15.2356 -8.9607 -2.5044 0.9311
15.5461 -8.4113 -2.5045 0.9311
11.1016 -5.0184 -1.7262 0.9520
10.8850 -4.4597 -1.6667 0.9536
11.1038 -4.0929 -1.6768 0.9533
11.4877 -3.7745 -1.7133 0.9523
11.9885 -3.4701 -1.7684 0.9508
12.4577 -3.1287 -1.8199 0.9494
12.9646 -2.7681 -1.8784 0.9479
14.0821 -1.9695 -2.0147 0.9442
17.6694 -0.5630 -2.5048 0.9311
17.6783 0.0680 -2.5048 0.9311
17.3850 3.2057 -2.5048 0.9311
17.2594 3.8241 -2.5048 0.9311
17.1117 4.4377 -2.5047 0.9311
16.9422 5.0455 -2.5047 0.9311
16.5386 6.2411 -2.5047 0.9311
16.0277 7.3942 -2.5010 0.9312
15.1350 7.6490 -2.4028 0.9338
14.5392 8.0117 -2.3521 0.9351
-13.0188 -7.7923 -2.4995 0.9403
-12.4302 -8.7015 -2.4996 0.9403
-12.1120 -9.1398 -2.4997 0.9403
-10.2884 -11.1361 -2.4976 0.9404
-9.3525 -11.6976 -2.4673 0.9411
-8.3247 -12.0889 -2.4180 0.9422
-6.9429 -12.8321 -2.4035 0.9426
-6.5106 -13.1325 -2.4147 0.9423
-6.0838 -13.4583 -2.4331 0.9419
-4.2212 -14.5832 -2.5010 0.9403
-3.1703 -14.8482 -2.5012 0.9403
-2.6384 -14.9525 -2.5013 0.9403
-2.1031 -15.0377 -2.5014 0.9403
-1.5651 -15.1037 -2.5015 0.9403
-1.0250 -15.1505 -2.5016 0.9403
-0.4837 -15.1780 -2.5017 0.9403
0.6004 -15.1750 -2.5019 0.9403
1.6816 -15.0946 -2.5021 0.9403
3.2859 -14.8300 -2.5023 0.9403
4.3358 -14.5589 -2.5025 0.9403
4.8528 -14.3954 -2.5026 0.9403
5.8678 -14.0135 -2.5028 0.9403
6.3645 -13.7956 -2.5029 0.9403
6.8530 -13.5601 -2.5030 0.9403
7.3329 -13.3073 -2.5030 0.9403
7.8035 -13.0375 -2.5031 0.9403
8.2641 -12.7511 -2.5032 0.9403
9.5806 -11.7957 -2.5034 0.9403
9.9959 -11.4466 -2.5035 0.9403
10.3983 -11.0828 -2.5036 0.9403
10.7876 -10.7049 -2.5036 0.9402
11.1631 -10.3133 -2.5037 0.9402
11.5244 -9.9086 -2.5038 0.9402
12.5184 -8.6205 -2.5039 0.9402
13.3689 -7.2334 -2.5041 0.9402
10.9607 -4.9547 -1.9816 0.9524
10.7987 -4.4244 -1.9225 0.9538
11.0445 -4.0711 -1.9391 0.9534
12.4813 -3.1346 -2.1200 0.9492
13.0025 -2.7762 -2.1903 0.9475
13.5761 -2.3955 -2.2711 0.9456
15.1212 -1.5669 -2.5044 0.9402
15.1676 -1.0262 -2.5044 0.9402
15.1592 1.1428 -2.5044 0.9402
15.1087 1.6832 -2.5044 0.9402
15.0390 2.2213 -2.5044 0.9402
14.9500 2.7567 -2.5044 0.9402
14.8420 3.2885 -2.5044 0.9402
14.7150 3.8161 -2.5043 0.9402
14.5693 4.3389 -2.5043 0.9402
13.8028 6.3678 -2.5042 0.9402
13.5665 6.8563 -2.5041 0.9402
13.2997 7.3287 -2.5016 0.9403
-11.4117 -6.8303 -2.4998 0.9473
-10.8957 -7.6273 -2.4999 0.9473
-9.3693 -9.4417 -2.5002 0.9473
-9.0266 -9.7703 -2.5002 0.9473
-7.5450 -10.9566 -2.5005 0.9473
-7.1493 -11.2192 -2.5005 0.9473
-6.7445 -11.4676 -2.5006 0.9473
-6.3311 -11.7013 -2.5007 0.9473
-5.4805 -12.1238 -2.5008 0.9473
-5.0445 -12.3121 -2.5009 0.9473
-4.6019 -12.4847 -2.5010 0.9473
-3.2413 -12.9063 -2.5012 0.9473
-2.3125 -13.1055 -2.5014 0.9473
-1.8433 -13.1801 -2.5015 0.9473
-0.8984 -13.2789 -2.5016 0.9473
-0.4239 -13.3029 -2.5017 0.9473
0.0512 -13.3100 -2.5018 0.9473
1.9451 -13.1690 -2.5021 0.9473
3.3420 -12.8868 -2.5023 0.9473
4.2531 -12.6164 -2.5025 0.9473
4.7008 -12.4569 -2.5026 0.9473
5.1426 -12.2816 -2.5027 0.9473
6.4266 -11.6625 -2.5029 0.9472
6.8389 -11.4261 -2.5030 0.9472
7.6371 -10.9096 -2.5031 0.9472
8.7602 -10.0316 -2.5033 0.9472
9.1129 -9.7127 -2.5034 0.9472
10.0996 -8.6836 -2.5035 0.9472
10.6938 -7.9413 -2.5036 0.9472
11.2335 -7.1584 -2.5037 0.9472
11.4820 -6.7530 -2.5038 0.9472
10.8816 -4.4584 -2.2103 0.9533
11.0744 -4.0821 -2.2185 0.9531
11.4403 -3.7589 -2.2634 0.9522
12.7966 -3.7040 -2.5040 0.9472
13.1939 -1.8452 -2.5041 0.9472
13.2514 -1.3731 -2.5041 0.9472
13.2920 -0.8993 -2.5041 0.9472
13.3223 0.0512 -2.5041 0.9472
13.1793 1.9467 -2.5041 0.9472
13.1013 2.4158 -2.5041 0.9472
13.0067 2.8819 -2.5040 0.9472
12.4637 4.7034 -2.5039 0.9472
12.0961 5.5804 -2.5039 0.9472
11.8891 6.0085 -2.5038 0.9472
11.6668 6.4290 -2.5038 0.9472
-10.1482 -6.0741 -2.5000 0.9528
-9.6894 -6.7828 -2.5001 0.9528
-9.4413 -7.1244 -2.5001 0.9528
-9.1811 -7.4570 -2.5002 0.9528
-8.0271 -8.6884 -2.5004 0.9528
-7.3871 -9.2394 -2.5005 0.9528
-7.0528 -9.4973 -2.5006 0.9528
-6.3576 -9.9768 -2.5007 0.9528
-5.9976 -10.1976 -2.5007 0.9528
-5.2551 -10.6000 -2.5009 0.9528
-4.0922 -11.1019 -2.5011 0.9528
-2.8823 -11.4767 -2.5013 0.9528
-2.4709 -11.5726 -2.5013 0.9528
-2.0563 -11.6537 -2.5014 0.9528
-1.2198 -11.7714 -2.5016 0.9528
-0.7989 -11.8078 -2.5016 0.9528
-0.3769 -11.8291 -2.5017 0.9528
0.4679 -11.8266 -2.5019 0.9528
0.8898 -11.8027 -2.5019 0.9528
2.9717 -11.4588 -2.5023 0.9528
3.3789 -11.3458 -2.5024 0.9528
4.1799 -11.0764 -2.5025 0.9528
4.9597 -10.7506 -2.5026 0.9527
5.3404 -10.5670 -2.5027 0.9527
5.7143 -10.3699 -2.5028 0.9527
6.0809 -10.1596 -2.5028 0.9527
6.4398 -9.9363 -2.5029 0.9527
6.7905 -9.7004 -2.5029 0.9527
7.1326 -9.4521 -2.5030 0.9527
7.4656 -9.1917 -2.5031 0.9527
7.7891 -8.9196 -2.5031 0.9527
8.4059 -8.3415 -2.5032 0.9527
8.6985 -8.0363 -2.5033 0.9527
9.7543 -6.7171 -2.5035 0.9527
9.9880 -6.3648 -2.5035 0.9527
10.4170 -5.6362 -2.5036 0.9527
10.7928 -4.8788 -2.5036 0.9527
10.9602 -4.4906 -2.5037 0.9527
11.1136 -4.0965 -2.5037 0.9527
11.2528 -3.6973 -2.5037 0.9527
11.6648 -2.0583 -2.5038 0.9527
11.7309 -1.6406 -2.5038 0.9527
11.7820 -1.2209 -2.5038 0.9527
11.8392 -0.3773 -2.5038 0.9527
11.8451 0.0456 -2.5038 0.9527
11.7723 1.3115 -2.5038 0.9527
11.7179 1.7308 -2.5038 0.9527
11.6487 2.1479 -2.5038 0.9527
11.4656 2.9734 -2.5038 0.9527
11.2241 3.7838 -2.5037 0.9527
11.0818 4.1819 -2.5037 0.9527
10.7550 4.9617 -2.5037 0.9527
10.3733 5.7162 -2.5036 0.9527
-9.1280 -5.4635 -2.5002 0.9572
-8.7152 -6.1009 -2.5003 0.9572
-7.4941 -7.5520 -2.5005 0.9572
-6.9366 -8.0677 -2.5006 0.9572
-5.3945 -9.1721 -2.5008 0.9572
-5.0638 -9.3590 -2.5009 0.9572
-4.3834 -9.6969 -2.5010 0.9572
-4.0346 -9.8474 -2.5011 0.9572
-3.3220 -10.1106 -2.5012 0.9572
-2.9591 -10.2230 -2.5013 0.9572
-2.2224 -10.4086 -2.5014 0.9572
-1.8495 -10.4815 -2.5015 0.9572
-1.4742 -10.5411 -2.5015 0.9572
0.4209 -10.6368 -2.5018 0.9572
1.1787 -10.5802 -2.5020 0.9572
2.6727 -10.3059 -2.5022 0.9572
3.4012 -10.0894 -2.5024 0.9572
3.7593 -9.9619 -2.5024 0.9572
4.4606 -9.6688 -2.5025 0.9572
4.8030 -9.5036 -2.5026 0.9572
5.1392 -9.3263 -2.5027 0.9572
5.4690 -9.1372 -2.5027 0.9572
5.7917 -8.9364 -2.5028 0.9572
6.4148 -8.5008 -2.5029 0.9572
7.0052 -8.0218 -2.5030 0.9572
7.2871 -7.7669 -2.5030 0.9572
7.5599 -7.5019 -2.5031 0.9572
8.0761 -6.9438 -2.5032 0.9572
8.3189 -6.6512 -2.5032 0.9572
8.5511 -6.3501 -2.5033 0.9572
8.9826 -5.7241 -2.5033 0.9572
9.9948 -3.6841 -2.5035 0.9572
10.1200 -3.3251 -2.5035 0.9572
10.3316 -2.5947 -2.5036 0.9572
10.4177 -2.2243 -2.5036 0.9572
10.5959 -1.0980 -2.5036 0.9572
10.6284 -0.7191 -2.5036 0.9572
10.6473 -0.3393 -2.5036 0.9572
10.6526 0.0410 -2.5036 0.9572
10.6444 0.4212 -2.5036 0.9572
10.6225 0.8008 -2.5036 0.9572
10.5871 1.1795 -2.5036 0.9572
10.4760 1.9317 -2.5036 0.9572
10.4003 2.3044 -2.5036 0.9572
10.0942 3.4028 -2.5035 0.9572
9.9662 3.7609 -2.5035 0.9572
9.6723 4.4622 -2.5035 0.9572
9.5068 4.8046 -2.5034 0.9572
-8.2861 -4.9595 -2.5003 0.9609
-8.1039 -5.2522 -2.5004 0.9609
-7.9114 -5.5382 -2.5004 0.9609
-7.7088 -5.8171 -2.5004 0.9609
-7.0431 -6.6081 -2.5006 0.9609
-6.8029 -6.8554 -2.5006 0.9609
-6.2967 -7.3235 -2.5007 0.9609
-4.8968 -8.3259 -2.5009 0.9609
-4.5966 -8.4956 -2.5010 0.9609
-3.6624 -8.9388 -2.5011 0.9609
-3.3411 -9.0640 -2.5012 0.9609
-2.6861 -9.2797 -2.5013 0.9609
-0.3077 -9.6573 -2.5017 0.9609
0.0372 -9.6624 -2.5018 0.9609
0.3820 -9.6551 -2.5018 0.9609
1.0699 -9.6037 -2.5020 0.9609
1.7524 -9.5034 -2.5021 0.9609
2.0905 -9.4350 -2.5021 0.9609
2.4260 -9.3546 -2.5022 0.9609
2.7584 -9.2623 -2.5023 0.9609
3.0873 -9.1581 -2.5023 0.9609
4.3596 -8.6263 -2.5025 0.9609
4.6648 -8.4654 -2.5026 0.9608
5.2570 -8.1114 -2.5027 0.9608
6.0943 -7.5033 -2.5028 0.9608
6.6143 -7.0497 -2.5029 0.9608
6.8619 -6.8093 -2.5030 0.9608
7.3304 -6.3026 -2.5030 0.9608
7.5508 -6.0371 -2.5031 0.9608
7.7616 -5.7638 -2.5031 0.9608
7.9624 -5.4832 -2.5032 0.9608
8.6622 -4.2944 -2.5033 0.9608
8.8100 -3.9825 -2.5033 0.9608
8.9466 -3.6656 -2.5033 0.9608
9.1855 -3.0180 -2.5034 0.9608
9.5217 -1.6801 -2.5034 0.9608
9.6469 -0.6527 -2.5035 0.9608
9.6688 0.0372 -2.5035 0.9608
9.6416 0.7269 -2.5035 0.9608
9.5085 1.7533 -2.5034 0.9608
9.3591 2.4271 -2.5034 0.9608
9.1620 3.0886 -2.5034 0.9608
8.9182 3.7343 -2.5033 0.9608
-7.0508 -5.3206 -2.5006 0.9639
-6.8565 -5.5689 -2.5006 0.9639
-6.4419 -6.0440 -2.5007 0.9639
-5.9945 -6.4884 -2.5007 0.9639
-5.2668 -7.0924 -2.5009 0.9639
-5.0104 -7.2759 -2.5009 0.9639
-4.7476 -7.4503 -2.5010 0.9639
-4.2042 -7.7703 -2.5011 0.9639
-3.9242 -7.9155 -2.5011 0.9639
-3.6393 -8.0507 -2.5011 0.9639
-3.3497 -8.1757 -2.5012 0.9639
-3.0558 -8.2902 -2.5012 0.9639
-2.1523 -8.5699 -2.5014 0.9639
-1.8450 -8.6414 -2.5015 0.9639
-1.2239 -8.7514 -2.5016 0.9639
-0.9108 -8.7897 -2.5016 0.9639
-0.2815 -8.8326 -2.5017 0.9639
0.3494 -8.8306 -2.5018 0.9639
0.6644 -8.8127 -2.5019 0.9639
0.9785 -8.7836 -2.5019 0.9639
1.2914 -8.7432 -2.5020 0.9639
1.6027 -8.6917 -2.5021 0.9639
1.9119 -8.6292 -2.5021 0.9639
2.2188 -8.5556 -2.5022 0.9639
2.5228 -8.4712 -2.5022 0.9639
2.8236 -8.3759 -2.5023 0.9639
3.7030 -8.0266 -2.5024 0.9639
3.9872 -7.8894 -2.5025 0.9639
4.8080 -7.4184 -2.5026 0.9639
5.3251 -7.0568 -2.5027 0.9639
5.5737 -6.8624 -2.5027 0.9639
6.0493 -6.4475 -2.5028 0.9639
6.4940 -5.9997 -2.5029 0.9639
6.9057 -5.5213 -2.5030 0.9639
7.2821 -5.0147 -2.5030 0.9639
7.6215 -4.4825 -2.5031 0.9639
8.2967 -3.0582 -2.5032 0.9639
8.4006 -2.7602 -2.5032 0.9639
8.4938 -2.4586 -2.5033 0.9639
8.5762 -2.1539 -2.5033 0.9639
8.8225 -0.5969 -2.5033 0.9639
8.8427 0.0340 -2.5033 0.9639
8.8177 0.6647 -2.5033 0.9639
8.7883 0.9790 -2.5033 0.9639
8.6332 1.9128 -2.5033 0.9639
8.4747 2.5238 -2.5033 0.9639
8.2729 3.1219 -2.5032 0.9639
8.0290 3.7041 -2.5032 0.9639
7.8916 3.9883 -2.5032 0.9639
7.7442 4.2674 -2.5031 0.9639
-6.9758 -4.1753 -2.5006 0.9665
-6.6603 -4.6624 -2.5006 0.9665
-6.4897 -4.8972 -2.5007 0.9665
-6.3109 -5.1258 -2.5007 0.9665
-6.1240 -5.3478 -2.5007 0.9665
-5.7270 -5.7712 -2.5008 0.9665
-5.3009 -6.1653 -2.5009 0.9665
-5.0775 -6.3507 -2.5009 0.9665
-4.8477 -6.5279 -2.5009 0.9665
-4.6117 -6.6969 -2.5010 0.9665
-4.3698 -6.8574 -2.5010 0.9665
-3.0831 -7.5250 -2.5012 0.9665
-1.9809 -7.8877 -2.5014 0.9665
-1.6982 -7.9536 -2.5015 0.9665
-1.1265 -8.0548 -2.5016 0.9665
-0.5490 -8.1149 -2.5017 0.9665
-0.2590 -8.1295 -2.5017 0.9665
0.6115 -8.1111 -2.5019 0.9665
1.1886 -8.0471 -2.5020 0.9665
1.4751 -7.9998 -2.5020 0.9665
2.3219 -7.7967 -2.5022 0.9665
2.5988 -7.7090 -2.5022 0.9665
3.4081 -7.3874 -2.5024 0.9665
4.1785 -6.9812 -2.5025 0.9665
4.4251 -6.8277 -2.5025 0.9665
4.6660 -6.6655 -2.5026 0.9665
5.7758 -5.7316 -2.5028 0.9665
5.9768 -5.5219 -2.5028 0.9665
6.3557 -5.0815 -2.5029 0.9665
6.8627 -4.3732 -2.5030 0.9665
7.0145 -4.1255 -2.5030 0.9665
7.1573 -3.8725 -2.5030 0.9665
7.2911 -3.6147 -2.5030 0.9665
7.4155 -3.3521 -2.5031 0.9665
7.8173 -2.2628 -2.5031 0.9665
8.0145 -1.4142 -2.5032 0.9665
8.0599 -1.1272 -2.5032 0.9665
8.0950 -0.8388 -2.5032 0.9665
8.1198 -0.5494 -2.5032 0.9665
8.1342 -0.2592 -2.5032 0.9665
8.1383 0.0313 -2.5032 0.9665
8.0883 0.9011 -2.5032 0.9665
8.0510 1.1892 -2.5032 0.9665
8.0034 1.4758 -2.5032 0.9665
7.9456 1.7605 -2.5032 0.9665
7.8776 2.0429 -2.5031 0.9665
7.6140 2.8733 -2.5031 0.9665
7.5065 3.1432 -2.5031 0.9665
7.3895 3.4091 -2.5031 0.9665
7.2631 3.6706 -2.5030 0.9665
-6.3131 -4.0916 -2.5007 0.9688
-6.0052 -4.5316 -2.5007 0.9688
-5.8397 -4.7431 -2.5008 0.9688
-5.1055 -5.5262 -2.5009 0.9688
-4.6984 -5.8765 -2.5010 0.9688
-4.4857 -6.0405 -2.5010 0.9688
-4.2673 -6.1969 -2.5010 0.9688
-4.0435 -6.3453 -2.5011 0.9688
-2.6026 -7.0605 -2.5013 0.9688
-2.3489 -7.1491 -2.5014 0.9688
-2.0923 -7.2285 -2.5014 0.9688
-1.8330 -7.2987 -2.5015 0.9688
-1.5714 -7.3596 -2.5015 0.9688
-0.7757 -7.4858 -2.5016 0.9688
-0.2397 -7.5223 -2.5017 0.9688
0.0289 -7.5263 -2.5018 0.9688
0.8333 -7.4804 -2.5019 0.9688
1.0998 -7.4461 -2.5020 0.9688
1.3649 -7.4022 -2.5020 0.9688
1.8896 -7.2862 -2.5021 0.9688
2.1485 -7.2143 -2.5021 0.9688
2.6578 -7.0429 -2.5022 0.9688
2.9075 -6.9437 -2.5023 0.9688
3.1535 -6.8355 -2.5023 0.9688
3.8663 -6.4596 -2.5024 0.9688
4.3174 -6.1675 -2.5025 0.9688
4.9522 -5.6709 -2.5026 0.9688
5.3443 -5.3033 -2.5027 0.9688
5.5302 -5.1093 -2.5027 0.9688
5.8808 -4.7018 -2.5028 0.9688
6.0449 -4.4890 -2.5028 0.9688
6.6225 -3.5832 -2.5029 0.9688
6.7462 -3.3446 -2.5029 0.9688
6.8614 -3.1017 -2.5030 0.9688
7.0653 -2.6043 -2.5030 0.9688
7.2331 -2.0937 -2.5030 0.9688
7.3033 -1.8342 -2.5030 0.9688
7.3641 -1.5724 -2.5031 0.9688
7.4156 -1.3085 -2.5031 0.9688
7.4901 -0.7762 -2.5031 0.9688
7.5264 -0.2398 -2.5031 0.9688
7.5089 0.5661 -2.5031 0.9688
7.4494 1.1003 -2.5031 0.9688
7.4053 1.3655 -2.5031 0.9688
7.2890 1.8903 -2.5030 0.9688
7.2168 2.1492 -2.5030 0.9688
7.1355 2.4054 -2.5030 0.9688
7.0450 2.6586 -2.5030 0.9688
6.9456 2.9083 -2.5030 0.9688
6.8373 3.1543 -2.5030 0.9688
-6.0003 -3.5914 -2.5007 0.9707
-5.7289 -4.0104 -2.5008 0.9707
-5.5822 -4.2124 -2.5008 0.9707
-5.1001 -4.7851 -2.5009 0.9707
-4.9261 -4.9641 -2.5009 0.9707
-4.7458 -5.1369 -2.5010 0.9707
-4.3674 -5.4625 -2.5010 0.9707
-3.3284 -6.1516 -2.5012 0.9707
-3.1067 -6.2666 -2.5012 0.9707
-2.8811 -6.3735 -2.5013 0.9707
-2.4192 -6.5631 -2.5014 0.9707
-1.9449 -6.7191 -2.5014 0.9707
-1.7038 -6.7844 -2.5015 0.9707
-0.9689 -6.9280 -2.5016 0.9707
-0.4722 -6.9797 -2.5017 0.9707
-0.2228 -6.9922 -2.5017 0.9707
0.0269 -6.9958 -2.5018 0.9707
0.5259 -6.9764 -2.5019 0.9707
1.5135 -6.8309 -2.5020 0.9707
1.7564 -6.7727 -2.5021 0.9707
2.4704 -6.5465 -2.5022 0.9707
2.7025 -6.4542 -2.5022 0.9707
2.9312 -6.3537 -2.5023 0.9707
3.3771 -6.1286 -2.5024 0.9707
3.8059 -5.8723 -2.5024 0.9707
4.0131 -5.7328 -2.5025 0.9707
5.3067 -4.5626 -2.5027 0.9707
5.6188 -4.1725 -2.5028 0.9707
5.7642 -3.9694 -2.5028 0.9707
5.9022 -3.7611 -2.5028 0.9707
6.0328 -3.5481 -2.5028 0.9707
6.2706 -3.1087 -2.5029 0.9707
6.3776 -2.8830 -2.5029 0.9707
6.4765 -2.6535 -2.5029 0.9707
6.5671 -2.4207 -2.5029 0.9707
6.6494 -2.1848 -2.5029 0.9707
6.7232 -1.9460 -2.5029 0.9707
6.8928 -1.2162 -2.5030 0.9707
6.9318 -0.9694 -2.5030 0.9707
6.9992 0.0269 -2.5030 0.9707
6.9562 0.7750 -2.5030 0.9707
6.8832 1.2692 -2.5030 0.9707
6.8335 1.5141 -2.5030 0.9707
6.7751 1.7570 -2.5030 0.9707
6.4559 2.7033 -2.5029 0.9707
6.3553 2.9319 -2.5029 0.9707
6.2465 3.1569 -2.5029 0.9707
6.1298 3.3778 -2.5028 0.9707
-5.5995 -3.3515 -2.5008 0.9724
-5.4763 -3.5492 -2.5008 0.9724
-5.3462 -3.7425 -2.5009 0.9724
-4.7594 -4.4654 -2.5010 0.9724
-4.5970 -4.6325 -2.5010 0.9724
-4.4288 -4.7937 -2.5010 0.9724
-3.8911 -5.2398 -2.5011 0.9724
-3.7017 -5.3754 -2.5011 0.9724
-3.5075 -5.5042 -2.5012 0.9724
-3.3088 -5.6259 -2.5012 0.9724
-3.1060 -5.7405 -2.5012 0.9724
-2.6886 -5.9477 -2.5013 0.9724
-2.4746 -6.0399 -2.5014 0.9724
-2.2575 -6.1245 -2.5014 0.9724
-1.5900 -6.3310 -2.5015 0.9724
-1.3630 -6.3838 -2.5015 0.9724
-0.9042 -6.4650 -2.5016 0.9724
-0.4407 -6.5132 -2.5017 0.9724
-0.2079 -6.5249 -2.5017 0.9724
0.0251 -6.5283 -2.5018 0.9724
0.2581 -6.5233 -2.5018 0.9724
0.4908 -6.5101 -2.5019 0.9724
0.9540 -6.4587 -2.5019 0.9724
1.6390 -6.3200 -2.5021 0.9724
1.8636 -6.2576 -2.5021 0.9724
2.0858 -6.1872 -2.5021 0.9724
2.5219 -6.0228 -2.5022 0.9724
3.1514 -5.7190 -2.5023 0.9724
4.1170 -5.0689 -2.5025 0.9724
4.4683 -4.7624 -2.5026 0.9724
4.6354 -4.5999 -2.5026 0.9724
4.7967 -4.4316 -2.5026 0.9724
4.9519 -4.2576 -2.5026 0.9724
5.1008 -4.0782 -2.5027 0.9724
5.5076 -3.5097 -2.5027 0.9724
5.7441 -3.1079 -2.5028 0.9724
5.8514 -2.9009 -2.5028 0.9724
5.9512 -2.6902 -2.5028 0.9724
6.0435 -2.4761 -2.5028 0.9724
6.1281 -2.2588 -2.5028 0.9724
6.2048 -2.0387 -2.5029 0.9724
6.2737 -1.8159 -2.5029 0.9724
6.3345 -1.5909 -2.5029 0.9724
6.4683 -0.9046 -2.5029 0.9724
6.4965 -0.6732 -2.5029 0.9724
6.5164 -0.4409 -2.5029 0.9724
6.5313 0.0251 -2.5029 0.9724
6.5262 0.2582 -2.5029 0.9724
6.5128 0.4910 -2.5029 0.9724
6.4911 0.7231 -2.5029 0.9724
6.3221 1.6395 -2.5029 0.9724
6.2595 1.8641 -2.5029 0.9724
6.1105 2.3059 -2.5028 0.9724
6.0243 2.5225 -2.5028 0.9724
5.9304 2.7359 -2.5028 0.9724
-5.1278 -3.3234 -2.5009 0.9739
-4.4564 -4.1812 -2.5010 0.9739
-4.1469 -4.4886 -2.5011 0.9739
-3.8162 -4.7731 -2.5011 0.9739
-3.6434 -4.9063 -2.5012 0.9739
-3.2842 -5.1538 -2.5012 0.9739
-2.9083 -5.3751 -2.5013 0.9739
-2.5175 -5.5691 -2.5013 0.9739
-2.3171 -5.6555 -2.5014 0.9739
-2.1138 -5.7346 -2.5014 0.9739
-1.6994 -5.8710 -2.5015 0.9739
-1.4888 -5.9280 -2.5015 0.9739
-0.8466 -6.0534 -2.5016 0.9739
-0.4126 -6.0986 -2.5017 0.9739
-0.1947 -6.1095 -2.5017 0.9739
0.0235 -6.1127 -2.5018 0.9739
0.2417 -6.1080 -2.5018 0.9739
0.6768 -6.0754 -2.5019 0.9739
1.3224 -5.9685 -2.5020 0.9739
1.9529 -5.7932 -2.5021 0.9739
2.3613 -5.6393 -2.5022 0.9739
2.5611 -5.5515 -2.5022 0.9739
2.9507 -5.3548 -2.5023 0.9739
3.6829 -4.8806 -2.5024 0.9739
4.1837 -4.4591 -2.5025 0.9739
4.4912 -4.1494 -2.5026 0.9739
4.7759 -3.8185 -2.5026 0.9739
5.0362 -3.4681 -2.5027 0.9739
5.3782 -2.9099 -2.5027 0.9739
5.4787 -2.7161 -2.5027 0.9739
5.5722 -2.5189 -2.5027 0.9739
5.7378 -2.1150 -2.5028 0.9739
5.8741 -1.7003 -2.5028 0.9739
5.9310 -1.4895 -2.5028 0.9739
5.9804 -1.2769 -2.5028 0.9739
6.0222 -1.0626 -2.5028 0.9739
6.0563 -0.8470 -2.5028 0.9739
6.0827 -0.6303 -2.5028 0.9739
6.1014 -0.4128 -2.5028 0.9739
6.1105 0.2418 -2.5028 0.9739
6.0496 0.8936 -2.5028 0.9739
5.9194 1.5351 -2.5028 0.9739
5.7948 1.9535 -2.5028 0.9739
5.7213 2.1590 -2.5028 0.9739
5.3557 2.9512 -2.5027 0.9739
-4.5807 -3.4567 -2.5010 0.9753
-4.3225 -3.7747 -2.5010 0.9753
-3.8944 -4.2153 -2.5011 0.9753
-3.5838 -4.4825 -2.5012 0.9753
-3.2550 -4.7268 -2.5012 0.9753
-3.0843 -4.8400 -2.5012 0.9753
-2.5493 -5.1422 -2.5013 0.9753
-2.3642 -5.2300 -2.5014 0.9753
-2.1760 -5.3111 -2.5014 0.9753
-1.3981 -5.5670 -2.5015 0.9753
-1.1985 -5.6134 -2.5016 0.9753
-0.7950 -5.6848 -2.5016 0.9753
-0.5917 -5.7096 -2.5017 0.9753
-0.1828 -5.7375 -2.5017 0.9753
0.0221 -5.7404 -2.5018 0.9753
0.4316 -5.7244 -2.5019 0.9753
1.2419 -5.6050 -2.5020 0.9753
1.4412 -5.5572 -2.5020 0.9753
2.0270 -5.3715 -2.5021 0.9753
2.2175 -5.2958 -2.5022 0.9753
2.5897 -5.1242 -2.5022 0.9753
2.9487 -4.9266 -2.5023 0.9753
3.1227 -4.8182 -2.5023 0.9753
3.7768 -4.3250 -2.5024 0.9753
3.9288 -4.1875 -2.5025 0.9753
4.4850 -3.5858 -2.5026 0.9753
4.9498 -2.9112 -2.5026 0.9753
5.1449 -2.5507 -2.5027 0.9753
5.2327 -2.3654 -2.5027 0.9753
5.3138 -2.1772 -2.5027 0.9753
5.5162 -1.5967 -2.5027 0.9753
5.6874 -0.7954 -2.5028 0.9753
5.7121 -0.5919 -2.5028 0.9753
5.7296 -0.3877 -2.5028 0.9753
5.7398 -0.1829 -2.5028 0.9753
5.7265 0.4317 -2.5028 0.9753
5.6475 1.0414 -2.5028 0.9753
5.6067 1.2423 -2.5028 0.9753
5.5588 1.4416 -2.5027 0.9753
5.3728 2.0275 -2.5027 0.9753
5.0294 2.7714 -2.5027 0.9753
-4.6360 -2.7749 -2.5010 0.9765
-4.4263 -3.0986 -2.5010 0.9765
-4.0699 -3.5541 -2.5011 0.9765
-3.5228 -4.0972 -2.5012 0.9765
-3.3743 -4.2204 -2.5012 0.9765
-3.2216 -4.3382 -2.5012 0.9765
-3.0647 -4.4504 -2.5013 0.9765
-2.9039 -4.5571 -2.5013 0.9765
-2.7395 -4.6579 -2.5013 0.9765
-2.0488 -5.0006 -2.5014 0.9765
-1.8690 -5.0705 -2.5015 0.9765
-1.1285 -5.2852 -2.5016 0.9765
-0.9391 -5.3222 -2.5016 0.9765
-0.7486 -5.3524 -2.5017 0.9765
-0.5571 -5.3758 -2.5017 0.9765
-0.1721 -5.4019 -2.5018 0.9765
0.0208 -5.4047 -2.5018 0.9765
0.2137 -5.4006 -2.5018 0.9765
0.4063 -5.3896 -2.5019 0.9765
0.5984 -5.3718 -2.5019 0.9765
0.7898 -5.3470 -2.5019 0.9765
1.3569 -5.2322 -2.5020 0.9765
1.9085 -5.0573 -2.5021 0.9765
2.0878 -4.9861 -2.5021 0.9765
2.2645 -4.9084 -2.5022 0.9765
2.4382 -4.8246 -2.5022 0.9765
2.7763 -4.6384 -2.5023 0.9765
3.1002 -4.4286 -2.5023 0.9765
3.2563 -4.3152 -2.5023 0.9765
3.4083 -4.1963 -2.5024 0.9765
3.5559 -4.0720 -2.5024 0.9765
3.8374 -3.8080 -2.5024 0.9765
4.0994 -3.5246 -2.5025 0.9765
4.3405 -3.2233 -2.5025 0.9765
4.6602 -2.7409 -2.5026 0.9765
4.7551 -2.5728 -2.5026 0.9765
4.8440 -2.4015 -2.5026 0.9765
4.9266 -2.2271 -2.5026 0.9765
5.1935 -1.5033 -2.5027 0.9765
5.2439 -1.3170 -2.5027 0.9765
5.2876 -1.1290 -2.5027 0.9765
5.3245 -0.9395 -2.5027 0.9765
5.3546 -0.7489 -2.5027 0.9765
5.3780 -0.5573 -2.5027 0.9765
5.4067 0.0208 -2.5027 0.9765
5.3915 0.4065 -2.5027 0.9765
5.3735 0.5986 -2.5027 0.9765
5.3171 0.9804 -2.5027 0.9765
5.2336 1.3573 -2.5027 0.9765
5.1818 1.5432 -2.5027 0.9765
-4.3749 -2.6186 -2.5010 0.9775
-4.2787 -2.7731 -2.5010 0.9775
-4.1770 -2.9240 -2.5011 0.9775
-4.0700 -3.0713 -2.5011 0.9775
-3.9578 -3.2146 -2.5011 0.9775
-3.8406 -3.3538 -2.5011 0.9775
-3.7185 -3.4888 -2.5011 0.9775
-3.5916 -3.6193 -2.5012 0.9775
-3.4602 -3.7453 -2.5012 0.9775
-3.3243 -3.8664 -2.5012 0.9775
-3.1842 -3.9827 -2.5012 0.9775
-2.7404 -4.3003 -2.5013 0.9775
-2.2650 -4.5688 -2.5014 0.9775
-1.9334 -4.7188 -2.5014 0.9775
-1.5919 -4.8449 -2.5015 0.9775
-0.5257 -5.0729 -2.5017 0.9775
-0.3429 -5.0677 -2.4915 0.9776
-0.1614 -5.0661 -2.4863 0.9777
0.0196 -5.1002 -2.5018 0.9775
0.2016 -5.0963 -2.5018 0.9775
0.3834 -5.0859 -2.5018 0.9775
0.5647 -5.0691 -2.5019 0.9775
0.9249 -5.0160 -2.5019 0.9775
1.2804 -4.9373 -2.5020 0.9775
1.6294 -4.8335 -2.5021 0.9775
1.9701 -4.7051 -2.5021 0.9775
2.3008 -4.5527 -2.5022 0.9775
2.4619 -4.4677 -2.5022 0.9775
2.6198 -4.3770 -2.5022 0.9775
2.9255 -4.1791 -2.5023 0.9775
3.0728 -4.0720 -2.5023 0.9775
3.2162 -3.9598 -2.5023 0.9775
3.3555 -3.8425 -2.5024 0.9775
3.6212 -3.5934 -2.5024 0.9775
3.8683 -3.3260 -2.5025 0.9775
3.9846 -3.1858 -2.5025 0.9775
4.0958 -3.0416 -2.5025 0.9775
4.3024 -2.7417 -2.5025 0.9775
4.6489 -2.1015 -2.5026 0.9775
4.7210 -1.9343 -2.5026 0.9775
4.7871 -1.7645 -2.5026 0.9775
5.0749 -0.5259 -2.5027 0.9775
5.0904 -0.3444 -2.5027 0.9775
5.0980 0.2017 -2.5027 0.9775
5.0707 0.5649 -2.5027 0.9775
4.7734 1.8013 -2.5026 0.9775
4.6326 2.1372 -2.5026 0.9775
4.5534 2.3012 -2.5026 0.9775
4.4683 2.4622 -2.5026 0.9775
-3.9496 -2.7648 -2.5011 0.9785
-3.6315 -3.1712 -2.5012 0.9785
-3.5160 -3.2988 -2.5012 0.9785
-3.1433 -3.6559 -2.5012 0.9785
-3.0108 -3.7658 -2.5013 0.9785
-2.8746 -3.8709 -2.5013 0.9785
-2.7346 -3.9710 -2.5013 0.9785
-2.5911 -4.0662 -2.5013 0.9785
-2.4444 -4.1561 -2.5014 0.9785
-2.1417 -4.3200 -2.5014 0.9785
-1.6677 -4.5243 -2.5015 0.9785
-1.3407 -4.6319 -2.5015 0.9785
-0.8379 -4.7488 -2.5016 0.9785
-0.6679 -4.7757 -2.5017 0.9785
-0.4942 -4.7693 -2.4875 0.9786
-0.3239 -4.7876 -2.4894 0.9786
0.1907 -4.8187 -2.5018 0.9785
0.3625 -4.8089 -2.5018 0.9785
0.8745 -4.7428 -2.5019 0.9785
1.0433 -4.7086 -2.5020 0.9785
1.2107 -4.6684 -2.5020 0.9785
1.3766 -4.6223 -2.5020 0.9785
1.7028 -4.5124 -2.5021 0.9785
1.8628 -4.4488 -2.5021 0.9785
2.3278 -4.2243 -2.5022 0.9785
2.4771 -4.1386 -2.5022 0.9785
2.6233 -4.0476 -2.5022 0.9785
2.9054 -3.8502 -2.5023 0.9785
3.0410 -3.7441 -2.5023 0.9785
3.5430 -3.2733 -2.5024 0.9785
3.6576 -3.1448 -2.5024 0.9785
3.7675 -3.0123 -2.5024 0.9785
3.8727 -2.8759 -2.5025 0.9785
4.3219 -2.1426 -2.5025 0.9785
4.3956 -1.9870 -2.5025 0.9785
4.5262 -1.6684 -2.5026 0.9785
4.5829 -1.5058 -2.5026 0.9785
4.6338 -1.3413 -2.5026 0.9785
4.6787 -1.1750 -2.5026 0.9785
4.7177 -1.0073 -2.5026 0.9785
4.8130 -0.3256 -2.5026 0.9785
4.8240 0.0185 -2.5026 0.9785
4.8203 0.1907 -2.5026 0.9785
4.8104 0.3626 -2.5026 0.9785
4.7723 0.7049 -2.5026 0.9785
4.7440 0.8748 -2.5026 0.9785
4.6233 1.3769 -2.5026 0.9785
4.5712 1.5410 -2.5026 0.9785
4.5133 1.7032 -2.5026 0.9785
4.4496 1.8632 -2.5026 0.9785
4.3802 2.0208 -2.5025 0.9785
-3.8321 -2.4836 -2.5011 0.9794
-3.7410 -2.6188 -2.5011 0.9794
-3.6452 -2.7507 -2.5012 0.9794
-3.5447 -2.8791 -2.5012 0.9794
-3.0990 -3.3543 -2.5012 0.9794
-2.4543 -3.8515 -2.5014 0.9794
-2.3153 -3.9367 -2.5014 0.9794
-2.1733 -4.0168 -2.5014 0.9794
-2.0286 -4.0919 -2.5014 0.9794
-1.7316 -4.2263 -2.5015 0.9794
-1.5796 -4.2854 -2.5015 0.9794
-1.4257 -4.3391 -2.5015 0.9794
-1.1125 -4.4298 -2.5016 0.9794
-0.9537 -4.4668 -2.5016 0.9794
-0.6326 -4.5235 -2.5017 0.9794
-0.1455 -4.5654 -2.5018 0.9794
0.1806 -4.5642 -2.5018 0.9794
0.5058 -4.5398 -2.5019 0.9794
0.6675 -4.5189 -2.5019 0.9794
1.1467 -4.4218 -2.5020 0.9794
1.3038 -4.3781 -2.5020 0.9794
1.4593 -4.3289 -2.5020 0.9794
1.7644 -4.2138 -2.5021 0.9794
1.9137 -4.1482 -2.5021 0.9794
2.0606 -4.0773 -2.5021 0.9794
2.2048 -4.0012 -2.5022 0.9794
2.4847 -3.8338 -2.5022 0.9794
2.7519 -3.6468 -2.5023 0.9794
3.0051 -3.4413 -2.5023 0.9794
3.1261 -3.3319 -2.5023 0.9794
3.2430 -3.2182 -2.5023 0.9794
3.3558 -3.1004 -2.5024 0.9794
3.4644 -2.9787 -2.5024 0.9794
3.5685 -2.8531 -2.5024 0.9794
3.6681 -2.7240 -2.5024 0.9794
3.8531 -2.4554 -2.5024 0.9794
3.9383 -2.3163 -2.5025 0.9794
4.0936 -2.0295 -2.5025 0.9794
4.3890 -1.2704 -2.5025 0.9794
4.4316 -1.1129 -2.5026 0.9794
4.4685 -0.9541 -2.5026 0.9794
4.5588 -0.3084 -2.5026 0.9794
4.5669 -0.1455 -2.5026 0.9794
4.5692 0.0176 -2.5026 0.9794
4.5563 0.3435 -2.5026 0.9794
4.5411 0.5059 -2.5026 0.9794
4.5202 0.6677 -2.5026 0.9794
4.4934 0.8286 -2.5026 0.9794
4.4610 0.9884 -2.5026 0.9794
4.4229 1.1470 -2.5026 0.9794
4.3297 1.4596 -2.5025 0.9794
4.0017 2.2051 -2.5025 0.9794
-3.7171 -2.2249 -2.5011 0.9802
-3.5490 -2.4844 -2.5012 0.9802
-3.0516 -3.0752 -2.5013 0.9802
-2.9399 -3.1821 -2.5013 0.9802
-2.8245 -3.2851 -2.5013 0.9802
-2.5830 -3.4783 -2.5013 0.9802
-2.4572 -3.5683 -2.5014 0.9802
-2.3283 -3.6537 -2.5014 0.9802
-2.1964 -3.7345 -2.5014 0.9802
-2.0618 -3.8106 -2.5014 0.9802
-1.9245 -3.8818 -2.5014 0.9802
-1.7847 -3.9480 -2.5015 0.9802
-1.4985 -4.0654 -2.5015 0.9802
-0.9047 -4.2374 -2.5016 0.9802
-0.2925 -4.3233 -2.5017 0.9802
-0.1380 -4.3310 -2.5018 0.9802
0.3258 -4.3210 -2.5018 0.9802
0.6332 -4.2869 -2.5019 0.9802
0.9374 -4.2309 -2.5019 0.9802
1.0879 -4.1948 -2.5020 0.9802
1.2369 -4.1533 -2.5020 0.9802
1.3844 -4.1066 -2.5020 0.9802
1.5301 -4.0546 -2.5020 0.9802
1.8154 -3.9352 -2.5021 0.9802
1.9548 -3.8679 -2.5021 0.9802
2.2258 -3.7187 -2.5022 0.9802
2.3571 -3.6369 -2.5022 0.9802
2.4854 -3.5505 -2.5022 0.9802
2.7324 -3.3642 -2.5023 0.9802
3.0765 -3.0529 -2.5023 0.9802
3.7361 -2.1973 -2.5024 0.9802
3.8121 -2.0626 -2.5024 0.9802
4.0669 -1.4991 -2.5025 0.9802
4.1636 -1.2052 -2.5025 0.9802
4.2389 -0.9051 -2.5025 0.9802
4.2686 -0.7532 -2.5025 0.9802
4.2927 -0.6004 -2.5025 0.9802
4.3114 -0.4468 -2.5025 0.9802
4.3323 -0.1380 -2.5025 0.9802
4.3345 0.0167 -2.5025 0.9802
4.3311 0.1714 -2.5025 0.9802
4.3079 0.4799 -2.5025 0.9802
4.2880 0.6334 -2.5025 0.9802
4.1542 1.2371 -2.5025 0.9802
4.1073 1.3846 -2.5025 0.9802
3.9981 1.6741 -2.5025 0.9802
3.9358 1.8157 -2.5025 0.9802
3.8684 1.9550 -2.5025 0.9802
