ply
format ascii 1.0
element vertex 1391
property float32 x
property float32 y
property float32 z
property float32 I
end_header
-27.3162 -22.1866 6.2052 0.8668
-12.2532 -10.7003 2.8684 0.9361
-12.2588 -11.5017 2.9643 0.9340
-12.2589 -12.3536 3.0688 0.9318
-16.4832 -20.6162 4.6542 0.8983
-15.4428 -20.7954 4.5673 0.9001
-10.2165 -18.8824 3.7856 0.9165
-9.8039 -19.7754 3.8919 0.9143
-9.4279 -20.8560 4.0358 0.9112
-8.6063 -21.0055 4.0027 0.9119
-4.5130 -21.1370 3.8110 0.9160
-3.7086 -21.0178 3.7632 0.9170
-2.9631 -21.1867 3.7721 0.9168
-2.1980 -21.2112 3.7601 0.9170
-1.4367 -21.2356 3.7530 0.9172
-0.6774 -21.2599 3.7506 0.9172
1.5973 -21.1877 3.7466 0.9173
2.3793 -21.3577 3.7892 0.9164
3.9475 -21.4078 3.8384 0.9154
5.5652 -21.4595 3.9091 0.9139
6.3988 -21.4861 3.9530 0.9130
7.2029 -21.3667 3.9758 0.9125
7.5891 -20.1106 3.7901 0.9164
8.1508 -19.4656 3.7211 0.9179
9.9586 -21.5863 4.1918 0.9080
11.9296 -21.6491 4.3585 0.9045
12.8235 -21.4246 4.4027 0.9036
17.2827 -19.7910 4.6330 0.8988
23.0071 -24.5217 5.9290 0.8723
24.4117 -22.5535 5.8603 0.8737
22.7820 6.7847 4.1915 0.9080
30.8879 14.2498 5.9980 0.8710
-34.2321 -23.9634 6.4014 0.8444
-31.9635 -24.1199 6.1344 0.8504
-26.1612 -22.8456 5.3208 0.8689
-12.2600 -11.5028 2.5754 0.9342
-24.1745 -24.3612 5.2577 0.8703
-16.1031 -18.7291 3.7839 0.9049
-12.9669 -18.8301 3.5025 0.9116
-10.2170 -18.8834 3.2891 0.9168
-9.3922 -18.9450 3.2393 0.9180
-8.5758 -18.9712 3.1894 0.9192
-7.7832 -18.9967 3.1450 0.9203
-7.0114 -19.0214 3.1056 0.9212
-5.5197 -19.0694 3.0412 0.9228
-4.7950 -19.0926 3.0157 0.9234
-2.6797 -19.1605 2.9638 0.9247
-0.6126 -19.2267 2.9469 0.9251
0.0739 -19.2137 2.9435 0.9252
2.1479 -19.2800 2.9719 0.9245
3.1585 -21.3837 3.3114 0.9162
3.9477 -21.4089 3.3350 0.9157
7.2033 -21.3678 3.4544 0.9128
7.5676 -20.0537 3.2836 0.9169
9.9592 -21.5875 3.6421 0.9083
13.9805 -21.5712 3.9379 0.9012
15.2293 -21.7554 4.0683 0.8981
16.6253 -22.0317 4.2283 0.8943
17.2760 -21.2703 4.1979 0.8950
19.5979 -22.4422 4.5644 0.8864
21.1010 -22.4900 4.7244 0.8827
22.7154 -22.5413 4.9025 0.8785
28.7949 -24.7576 5.8175 0.8576
23.5479 4.3421 3.6682 0.9076
22.7252 6.7678 3.6324 0.9085
30.9983 14.3008 5.2297 0.8710
-31.9660 -24.1218 5.2148 0.8508
-18.5098 -18.6528 3.4220 0.8994
-16.1041 -18.7302 3.2167 0.9052
-13.9604 -18.7992 3.0492 0.9099
-12.9677 -18.8312 2.9774 0.9119
-12.0194 -18.8616 2.9125 0.9137
-11.0902 -18.8564 2.8487 0.9155
-10.2176 -18.8844 2.7960 0.9170
-9.3927 -18.9460 2.7537 0.9182
-7.0118 -19.0224 2.6400 0.9215
-5.5200 -19.0703 2.5853 0.9230
-3.3771 -19.1391 2.5308 0.9246
-2.6798 -19.1614 2.5195 0.9249
-1.2994 -19.2056 2.5067 0.9253
-0.6127 -19.2276 2.5051 0.9253
1.4519 -19.2587 2.5150 0.9251
2.1519 -19.3161 2.5309 0.9246
2.8564 -19.3386 2.5456 0.9242
4.2950 -19.3846 2.5855 0.9230
5.0333 -19.4082 2.6110 0.9223
5.7871 -19.4323 2.6403 0.9215
7.3386 -19.4468 2.7067 0.9196
11.9310 -21.6515 3.2192 0.9051
12.9793 -21.6849 3.2910 0.9031
13.9813 -21.5724 3.3476 0.9015
15.2303 -21.7567 3.4584 0.8984
16.8436 -22.3210 3.6414 0.8933
24.4153 -22.5568 4.3286 0.8745
26.3471 -22.6531 4.5247 0.8692
28.4153 -22.7188 4.7376 0.8635
23.5356 4.3398 3.1165 0.9080
22.6691 6.7510 3.0801 0.9090
33.3249 15.3741 4.7791 0.8624
-33.9646 -22.0127 4.3462 0.8497
-31.5563 -22.0903 4.1363 0.8564
-29.3673 -22.1608 3.9506 0.8624
-27.3222 -22.1915 3.7797 0.8680
-25.5188 -22.2845 3.6380 0.8726
-18.4772 -18.6199 2.8168 0.8998
-17.4447 -18.8820 2.7605 0.9017
-16.4959 -19.1859 2.7170 0.9032
-15.5480 -19.4466 2.6736 0.9047
-14.6037 -19.6654 2.6303 0.9062
-13.6651 -19.8439 2.5872 0.9076
-9.7372 -17.9965 2.1972 0.9210
-8.9348 -18.0223 2.1600 0.9223
-7.4042 -18.0715 2.0971 0.9244
-6.6699 -18.0950 2.0709 0.9253
-5.2509 -18.1406 2.0279 0.9268
-4.5614 -18.1627 2.0109 0.9274
-3.2125 -18.2060 1.9852 0.9283
-2.5492 -18.2272 1.9763 0.9286
0.7267 -18.3664 1.9738 0.9287
1.3893 -18.4288 1.9845 0.9283
3.5703 -19.3624 2.1142 0.9238
4.2952 -19.3856 2.1321 0.9232
5.0335 -19.4091 2.1531 0.9225
6.5595 -19.4579 2.2050 0.9207
7.3390 -19.4478 2.2321 0.9198
11.7423 -19.6182 2.4552 0.9121
12.7122 -19.6142 2.5099 0.9103
15.2312 -21.7580 2.8520 0.8987
16.8447 -22.3224 3.0029 0.8936
19.8920 -24.4911 3.3881 0.8808
24.4171 -22.5584 3.5697 0.8748
28.4176 -22.7206 3.9070 0.8638
30.6933 -22.7931 4.1053 0.8574
33.2158 -22.8733 4.3307 0.8502
22.6135 6.7345 2.5337 0.9094
31.7962 13.3139 3.7016 0.8705
33.2104 15.3212 3.9274 0.8632
-33.9185 -21.9829 3.4216 0.8502
-31.5215 -22.0659 3.2572 0.8569
-27.3242 -22.1931 2.9799 0.8682
-20.4633 -22.1493 2.5527 0.8860
-15.8636 -19.8413 2.1505 0.9031
-13.6902 -19.8805 2.0434 0.9076
-12.7057 -19.9387 2.0014 0.9095
-9.7377 -17.9975 1.7322 0.9211
-8.9353 -18.0233 1.7029 0.9224
-8.1586 -18.0482 1.6767 0.9236
-7.4045 -18.0724 1.6533 0.9246
-5.9532 -18.1190 1.6145 0.9263
-5.2511 -18.1415 1.5988 0.9270
-3.2126 -18.2068 1.5651 0.9285
-2.5493 -18.2281 1.5581 0.9288
-1.2361 -18.2702 1.5502 0.9291
0.0704 -18.3120 1.5502 0.9291
0.7254 -18.3329 1.5532 0.9290
2.0471 -18.3752 1.5651 0.9285
3.3963 -18.4184 1.5855 0.9276
4.0858 -18.4404 1.5989 0.9270
4.7881 -18.4629 1.6146 0.9263
7.0049 -18.5625 1.6795 0.9234
8.1525 -19.4697 1.7868 0.9188
9.0109 -19.5320 1.8209 0.9173
12.7129 -19.6154 1.9787 0.9104
13.7795 -19.6843 2.0340 0.9080
16.0466 -19.7566 2.1546 0.9029
31.0625 -24.8353 3.3667 0.8524
32.9815 -24.4923 3.4776 0.8480
22.5585 6.7181 1.9926 0.9098
-29.7790 -22.4715 2.3134 0.8611
-26.3105 -22.9759 2.1660 0.8694
-12.2908 -11.5317 1.0451 0.9347
-15.7764 -18.3491 1.5006 0.9076
-14.6982 -18.3837 1.4595 0.9100
-13.6762 -18.4165 1.4225 0.9122
-11.0920 -18.8594 1.3568 0.9160
-10.2192 -18.8874 1.3317 0.9175
-9.9271 -20.0239 1.3859 0.9143
-9.9883 -22.0957 1.5037 0.9074
-7.4215 -22.5875 1.4743 0.9091
-5.6777 -22.6073 1.4454 0.9108
-3.8076 -21.5789 1.3588 0.9159
-2.9458 -21.0630 1.3188 0.9183
-2.1291 -20.5471 1.2810 0.9205
-1.3553 -20.0324 1.2451 0.9227
1.3883 -18.4156 1.1452 0.9287
2.0502 -18.4033 1.1483 0.9285
2.7174 -18.3976 1.1532 0.9282
4.0860 -18.4413 1.1713 0.9271
5.5055 -18.4868 1.1961 0.9256
6.9943 -18.5344 1.2284 0.9237
9.8936 -21.4454 1.4645 0.9097
10.6811 -21.1347 1.4684 0.9095
11.2290 -20.3776 1.4428 0.9110
12.7066 -19.6057 1.4488 0.9106
16.0476 -19.7579 1.5784 0.9030
21.1067 -22.4961 1.9129 0.8837
22.7217 -22.5476 1.9850 0.8796
28.8036 -24.7651 2.3555 0.8588
31.0650 -24.8373 2.4664 0.8527
33.0539 15.2490 2.2573 0.8643
-12.3043 -11.5444 0.6653 0.9347
-17.6986 -20.5847 1.0704 0.8970
-11.0926 -18.8604 0.8628 0.9161
-9.9518 -20.0737 0.8835 0.9142
-8.3759 -22.7231 0.9549 0.9076
-1.5522 -22.9418 0.9067 0.9121
-0.7319 -22.9680 0.9061 0.9121
0.0884 -22.9943 0.9067 0.9121
2.5705 -23.0738 0.9155 0.9112
3.3876 -22.9349 0.9142 0.9114
4.2341 -22.9619 0.9207 0.9108
5.0937 -22.9895 0.9285 0.9100
5.8319 -22.4879 0.9161 0.9112
6.4283 -21.5853 0.8881 0.9138
8.1533 -19.4717 0.8324 0.9190
10.4681 -20.7133 0.9151 0.9113
11.5084 -20.8847 0.9403 0.9090
12.5653 -20.9932 0.9647 0.9067
13.7566 -21.2257 0.9974 0.9037
14.9799 -21.3991 1.0300 0.9007
17.4824 -21.5243 1.0934 0.8949
18.7729 -21.4974 1.1254 0.8920
26.3551 -22.6599 1.3705 0.8701
28.3789 -22.6897 1.4327 0.8646
33.1714 -22.8427 1.5881 0.8511
22.4499 6.6858 0.9236 0.9105
30.4052 14.0271 1.3203 0.8746
-22.3077 -14.4578 0.4490 0.8991
-20.5153 -14.3612 0.4230 0.9047
-18.1296 -14.7251 0.3945 0.9108
-17.0538 -14.8924 0.3825 0.9134
-14.6522 -14.7653 0.3514 0.9202
-11.9572 -14.9553 0.3234 0.9263
-15.3434 -20.6615 0.4347 0.9022
-13.2099 -20.7298 0.4152 0.9063
-11.0932 -18.8614 0.3696 0.9162
-9.9766 -20.1237 0.3794 0.9141
-9.2984 -22.6947 0.4143 0.9065
-8.3763 -22.7243 0.4091 0.9077
-6.5942 -22.7814 0.4006 0.9095
-5.7283 -22.8091 0.3973 0.9102
-3.9614 -22.4505 0.3851 0.9128
0.0884 -22.9954 0.3884 0.9121
1.4522 -19.2633 0.3263 0.9256
3.4123 -23.1018 0.3945 0.9108
4.2649 -23.1291 0.3973 0.9102
5.1308 -23.1568 0.4006 0.9095
6.0127 -23.1851 0.4046 0.9086
7.3405 -19.4518 0.3512 0.9202
7.9561 -19.0008 0.3480 0.9209
8.0372 -17.4215 0.3241 0.9261
9.7312 -19.2550 0.3644 0.9173
10.7012 -19.4198 0.3745 0.9151
11.7565 -19.6419 0.3867 0.9125
12.8892 -19.8874 0.4003 0.9095
14.0337 -20.0473 0.4134 0.9067
15.2572 -20.2187 0.4279 0.9036
17.4547 -21.4903 0.4677 0.8952
18.7616 -21.4845 0.4818 0.8922
20.2008 -21.5305 0.4987 0.8886
21.7466 -21.5800 0.5175 0.8846
28.6334 -24.6188 0.6379 0.8598
31.2454 13.0832 0.5722 0.8733
30.7075 14.1665 0.5712 0.8735
-23.7835 -14.2353 -0.1561 0.8951
-20.6361 -14.4458 -0.1418 0.9041
-14.4960 -14.6079 -0.1159 0.9210
-13.6363 -14.7598 -0.1131 0.9228
-12.7722 -14.8549 -0.1103 0.9246
-10.1591 -14.7527 -0.1008 0.9309
-8.7393 -14.8592 -0.0971 0.9334
-8.1294 -15.0249 -0.0962 0.9339
-7.4763 -22.7542 -0.1348 0.9086
-6.5945 -22.7825 -0.1335 0.9095
-5.7286 -22.8102 -0.1324 0.9102
-4.0753 -19.0872 -0.1099 0.9249
-3.9896 -22.6103 -0.1293 0.9123
-2.1326 -15.2486 -0.0867 0.9403
-1.0318 -15.2500 -0.0861 0.9407
-0.7319 -22.9702 -0.1294 0.9122
0.9109 -23.0228 -0.1297 0.9120
1.4523 -19.2642 -0.1088 0.9256
2.5707 -23.0760 -0.1307 0.9113
3.4124 -23.1029 -0.1315 0.9108
4.2651 -23.1302 -0.1324 0.9102
6.0130 -23.1862 -0.1349 0.9086
6.8846 -23.1174 -0.1358 0.9080
7.3542 -21.8154 -0.1296 0.9120
7.3408 -19.4528 -0.1171 0.9202
8.1542 -19.4737 -0.1189 0.9190
9.8952 -21.4488 -0.1330 0.9098
9.6567 -19.1076 -0.1205 0.9179
11.8538 -21.5115 -0.1383 0.9064
11.4714 -19.1657 -0.1258 0.9145
12.4416 -19.1967 -0.1288 0.9126
14.5367 -19.2638 -0.1359 0.9080
22.7917 -26.0996 -0.1951 0.8706
23.1287 -24.6512 -0.1903 0.8735
22.9007 -22.7252 -0.1817 0.8789
24.4259 -22.5666 -0.1872 0.8754
22.3427 6.6538 -0.1313 0.9110
36.3400 12.2505 -0.2159 0.8578
31.9034 12.0393 -0.1920 0.8725
31.3899 13.1438 -0.1916 0.8727
-21.9911 -14.2526 -0.7379 0.9004
-17.7089 -14.3834 -0.6424 0.9128
-15.4505 -14.4962 -0.5966 0.9187
-13.6367 -14.7602 -0.5658 0.9227
-12.5631 -14.6117 -0.5426 0.9258
-10.8954 -14.6718 -0.5146 0.9295
-9.4110 -14.7683 -0.4931 0.9323
-8.7770 -14.9233 -0.4875 0.9331
-6.7616 -14.9578 -0.4622 0.9364
-5.5270 -14.9943 -0.4500 0.9381
-4.9563 -15.0845 -0.4471 0.9384
-4.3397 -14.9927 -0.4395 0.9395
-2.6715 -15.1399 -0.4329 0.9403
-2.1288 -15.2216 -0.4328 0.9403
-1.5776 -15.2240 -0.4310 0.9406
-1.0291 -15.2105 -0.4293 0.9408
-0.4827 -15.1468 -0.4267 0.9412
0.0587 -15.2619 -0.4297 0.9408
0.6124 -15.4772 -0.4361 0.9399
4.2501 -23.0490 -0.6599 0.9105
6.0133 -23.1874 -0.6745 0.9086
9.8957 -21.4499 -0.6652 0.9098
11.8545 -21.5127 -0.6916 0.9064
13.9869 -21.5811 -0.7241 0.9022
15.1331 -21.6178 -0.7430 0.8998
16.8508 -22.3305 -0.7877 0.8941
21.3205 -26.2498 -0.9522 0.8734
22.7572 -26.0600 -0.9742 0.8707
24.4276 -22.5682 -0.9364 0.8754
28.6377 -24.6225 -1.0635 0.8597
30.8865 -24.6946 -1.1135 0.8536
47.2983 8.7215 -1.3543 0.8249
33.9461 11.4435 -1.0087 0.8665
14.4689 6.6751 -0.4487 0.9382
13.4498 6.7973 -0.4243 0.9415
-22.2435 -13.3136 -1.3147 0.9014
-19.9306 -13.9519 -1.2338 0.9072
-18.5513 -13.9989 -1.1786 0.9111
-17.2885 -14.0420 -1.1295 0.9147
-15.4729 -14.5173 -1.0760 0.9185
-12.4808 -14.5160 -0.9709 0.9262
-10.9786 -14.7839 -0.9339 0.9289
-10.2242 -14.8471 -0.9142 0.9303
-9.4258 -14.7916 -0.8895 0.9322
-8.6944 -14.7829 -0.8698 0.9336
-6.6512 -14.7135 -0.8189 0.9374
-6.1121 -14.9178 -0.8176 0.9375
-4.8892 -14.8803 -0.7943 0.9392
-4.3122 -14.8978 -0.7865 0.9398
-3.1842 -14.9135 -0.7734 0.9408
-1.5554 -15.0097 -0.7653 0.9414
-1.0222 -15.1092 -0.7680 0.9411
-0.4820 -15.1244 -0.7674 0.9412
0.0581 -15.1144 -0.7665 0.9413
1.1421 -15.1496 -0.7705 0.9410
1.6959 -15.2231 -0.7768 0.9405
2.2577 -15.2847 -0.7836 0.9400
3.3739 -15.2276 -0.7910 0.9394
3.9592 -15.2668 -0.7999 0.9388
5.1329 -15.2261 -0.8149 0.9377
5.8526 -15.5089 -0.8407 0.9358
6.4759 -15.4656 -0.8503 0.9351
7.0672 -15.3187 -0.8556 0.9347
10.0769 -15.5481 -0.9396 0.9285
15.7386 -20.8567 -1.3251 0.9006
16.9303 -19.3874 -1.3053 0.9020
17.4646 -18.6143 -1.2945 0.9028
18.0696 -17.9312 -1.2910 0.9031
18.6956 -17.2725 -1.2908 0.9031
20.7519 -17.8423 -1.3879 0.8962
23.9930 -19.1831 -1.5579 0.8842
29.8576 -22.1725 -1.8861 0.8616
48.4158 5.3936 -2.4706 0.8227
46.7384 6.9035 -2.3960 0.8276
47.5345 8.7650 -2.4513 0.8240
22.2364 6.6222 -1.1767 0.9113
33.5377 11.3059 -1.7949 0.8678
30.8292 11.6339 -1.6711 0.8764
29.5844 12.3878 -1.6266 0.8795
-18.2595 -10.9290 -1.5603 0.9182
-16.9607 -12.7987 -1.5579 0.9183
-16.6431 -13.5177 -1.5721 0.9176
-16.1265 -14.0826 -1.5698 0.9177
-12.2225 -14.2155 -1.3746 0.9276
-10.1824 -14.7864 -1.3164 0.9305
-6.6827 -14.7832 -1.1895 0.9370
-5.5385 -15.0254 -1.1742 0.9378
-4.8961 -14.9013 -1.1501 0.9390
-2.6665 -15.1120 -1.1252 0.9403
-2.1156 -15.1267 -1.1199 0.9406
-1.5586 -15.0414 -1.1088 0.9412
-1.0266 -15.1737 -1.1151 0.9408
0.0583 -15.1724 -1.1125 0.9410
1.1524 -15.2869 -1.1240 0.9404
2.2296 -15.0946 -1.1188 0.9406
2.8224 -15.3062 -1.1412 0.9395
3.3586 -15.1585 -1.1384 0.9396
4.5552 -15.2958 -1.1702 0.9380
5.1174 -15.1802 -1.1746 0.9378
6.3895 -15.2594 -1.2130 0.9358
8.4642 -15.3602 -1.2859 0.9321
9.9986 -15.4274 -1.3480 0.9289
16.2384 -19.9927 -1.8885 0.9019
17.4389 -18.5868 -1.8688 0.9028
17.9399 -17.8025 -1.8531 0.9036
18.4434 -17.0396 -1.8411 0.9042
20.2417 -17.4037 -1.9573 0.8985
46.3258 0.1781 -3.3967 0.8304
44.2297 1.7500 -3.2456 0.8373
47.6810 8.7920 -3.5550 0.8233
33.6316 11.3375 -2.6023 0.8673
30.9915 11.6952 -2.4288 0.8756
29.5120 12.3574 -2.3459 0.8796
14.4417 7.9580 -1.2090 0.9360
-14.5791 -11.0015 -1.7535 0.9292
-12.2916 -11.5325 -1.6181 0.9345
-12.8253 -12.9243 -1.7480 0.9294
-12.0941 -14.0663 -1.7810 0.9282
-10.5983 -14.2718 -1.7066 0.9311
-9.8456 -14.2974 -1.6666 0.9326
-8.4371 -14.3453 -1.5978 0.9353
-7.7739 -14.3679 -1.5684 0.9365
-6.0217 -14.6973 -1.5249 0.9382
-5.5329 -15.0102 -1.5358 0.9377
-4.8933 -14.8929 -1.5050 0.9389
-3.7474 -14.9215 -1.4770 0.9400
-3.1664 -14.8302 -1.4559 0.9409
-2.6545 -15.0437 -1.4666 0.9405
-1.5577 -15.0324 -1.4509 0.9411
-0.4832 -15.1636 -1.4565 0.9409
0.5994 -15.1496 -1.4556 0.9409
1.6948 -15.2135 -1.4696 0.9403
2.8133 -15.2571 -1.4895 0.9396
3.3768 -15.2406 -1.4987 0.9392
3.9621 -15.2778 -1.5153 0.9385
4.5988 -15.4420 -1.5469 0.9373
5.1198 -15.1872 -1.5387 0.9376
5.7429 -15.2184 -1.5616 0.9367
7.7448 -15.3247 -1.6485 0.9333
9.1681 -15.3174 -1.7138 0.9308
10.0193 -15.4593 -1.7686 0.9286
16.6062 -19.0163 -2.4238 0.9035
17.4358 -18.5835 -2.4464 0.9027
17.9168 -17.7795 -2.4233 0.9035
29.2625 -21.7306 -3.4993 0.8638
34.3721 -21.9033 -3.9130 0.8489
41.8803 -18.9318 -4.4124 0.8314
43.0597 -17.6422 -4.4675 0.8295
44.1686 -16.2808 -4.5193 0.8277
45.1995 -14.8510 -4.5676 0.8260
46.9987 -11.8034 -4.6522 0.8231
46.6563 -3.1566 -4.4895 0.8287
39.6729 0.1525 -3.8088 0.8526
39.0497 4.3503 -3.7722 0.8539
25.9835 9.8054 -2.6663 0.8944
24.2802 10.1667 -2.5271 0.8996
22.7504 10.4957 -2.4054 0.9042
-13.5187 -8.0915 -1.8715 0.9385
-13.2925 -8.6150 -1.8816 0.9382
-13.0509 -9.1360 -1.8924 0.9378
-12.5210 -10.1697 -1.9161 0.9371
-11.7808 -11.0532 -1.9189 0.9370
-11.0027 -11.0877 -1.8555 0.9390
-10.5810 -11.4528 -1.8522 0.9391
-9.5336 -12.8380 -1.8995 0.9376
-9.1518 -13.2899 -1.9167 0.9371
-8.7533 -13.7362 -1.9348 0.9365
-7.7744 -14.3687 -1.9406 0.9363
-7.1343 -14.3905 -1.9079 0.9373
-2.0369 -14.5643 -1.7469 0.9425
-1.5111 -14.5822 -1.7414 0.9427
-0.9978 -14.7480 -1.7559 0.9422
0.6034 -15.2499 -1.8129 0.9404
1.1450 -15.1879 -1.8092 0.9405
1.6918 -15.1863 -1.8151 0.9403
2.7959 -15.1624 -1.8314 0.9398
3.3812 -15.2605 -1.8567 0.9390
4.5092 -15.1414 -1.8767 0.9383
5.0995 -15.1272 -1.8963 0.9377
8.4465 -15.3282 -2.0789 0.9319
9.1808 -15.3386 -2.1234 0.9305
9.9842 -15.4052 -2.1806 0.9287
10.7999 -15.4279 -2.2370 0.9269
16.5856 -18.9928 -2.9952 0.9034
17.2645 -18.4009 -2.9972 0.9034
18.1677 -16.7847 -2.9381 0.9052
20.4217 -17.5584 -3.1992 0.8972
22.0074 -17.5955 -3.3470 0.8927
22.9019 -17.0071 -3.3885 0.8914
23.7756 -16.3726 -3.4291 0.8902
28.7472 -14.2518 -3.8114 0.8788
29.5116 -13.3405 -3.8471 0.8777
30.2314 -12.3863 -3.8808 0.8767
30.9031 -11.3911 -3.9123 0.8758
31.5231 -10.3574 -3.9414 0.8749
33.0413 -7.0547 -4.0133 0.8728
33.4238 -5.8977 -4.0316 0.8722
33.8235 0.1301 -4.0178 0.8726
32.1933 1.2738 -3.8271 0.8783
31.9316 3.5573 -3.8165 0.8786
31.7022 4.6826 -3.8066 0.8789
22.0779 6.5750 -2.7364 0.9114
22.4574 10.3606 -2.9378 0.9052
14.3734 7.2641 -1.9130 0.9372
14.4285 7.9508 -1.9569 0.9358
-11.8125 -7.0702 -1.9506 0.9459
-10.9079 -8.8596 -1.9911 0.9448
-10.6471 -9.2977 -2.0028 0.9445
-9.4402 -10.9796 -2.0517 0.9432
-7.1842 -12.2151 -2.0079 0.9444
-6.4054 -12.9202 -2.0433 0.9434
-5.5691 -13.5927 -2.0813 0.9424
-3.6442 -14.5102 -2.1198 0.9413
-3.1021 -14.5287 -2.1050 0.9417
-2.0370 -14.5650 -2.0838 0.9423
-1.5111 -14.5830 -2.0773 0.9425
-0.9879 -14.6008 -2.0735 0.9426
-0.4659 -14.6187 -2.0724 0.9426
0.5798 -14.6544 -2.0780 0.9425
1.6366 -14.6905 -2.0944 0.9420
2.7156 -14.7275 -2.1219 0.9413
3.2673 -14.7463 -2.1401 0.9408
3.8343 -14.7852 -2.1642 0.9402
4.4032 -14.7852 -2.1858 0.9396
4.9910 -14.8054 -2.2138 0.9388
5.5949 -14.8261 -2.2453 0.9380
6.2170 -14.8474 -2.2807 0.9370
7.4158 -12.3897 -2.0459 0.9433
13.0677 -16.0889 -2.9368 0.9197
15.2090 -15.0925 -3.0359 0.9171
16.5894 -14.2635 -3.0999 0.9154
17.2954 -13.8281 -3.1375 0.9144
19.7527 -13.6023 -3.3981 0.9077
20.4068 -13.0040 -3.4286 0.9069
21.6394 -11.7082 -3.4861 0.9054
22.7551 -10.2863 -3.5383 0.9040
23.2635 -9.5314 -3.5621 0.9034
23.7360 -8.7492 -3.5843 0.9028
24.1704 -7.9416 -3.6048 0.9023
24.5650 -7.1105 -3.6235 0.9018
25.7102 -3.5957 -3.6783 0.9004
26.0045 -1.7594 -3.6930 0.9001
26.1043 0.1004 -3.6987 0.8999
26.0804 1.0319 -3.6982 0.8999
26.0074 1.9606 -3.6954 0.9000
25.8757 2.8826 -3.6890 0.9002
24.8183 3.6658 -3.5546 0.9036
23.9429 4.4149 -3.4496 0.9063
23.6951 5.2501 -3.4388 0.9066
21.0688 6.2745 -3.1148 0.9150
21.3601 7.2007 -3.1938 0.9130
21.5704 8.1400 -3.2667 0.9111
21.3710 9.8593 -3.3347 0.9093
14.3555 7.2550 -2.2790 0.9371
14.4660 7.9714 -2.3403 0.9355
-10.4812 -6.2734 -2.0123 0.9517
-9.4187 -8.2249 -2.0600 0.9506
-9.1689 -8.6026 -2.0712 0.9503
-7.4024 -10.7495 -2.1501 0.9485
-6.0538 -11.1887 -2.0957 0.9497
-5.2445 -11.6018 -2.0975 0.9497
-4.0753 -12.4032 -2.1508 0.9485
-3.6618 -12.6507 -2.1696 0.9480
-3.2366 -12.8876 -2.1890 0.9476
-1.8921 -13.5290 -2.2505 0.9461
0.0546 -14.2015 -2.3396 0.9441
2.1608 -14.6292 -2.4362 0.9418
2.7093 -14.6931 -2.4613 0.9412
3.8290 -14.7647 -2.5128 0.9400
4.3990 -14.7711 -2.5390 0.9394
4.9747 -14.7570 -2.5655 0.9388
6.7291 -14.5859 -2.6463 0.9370
7.3200 -14.4840 -2.6735 0.9363
7.9123 -14.3588 -2.7008 0.9357
7.3843 -12.3372 -2.3687 0.9434
9.0970 -14.0363 -2.7555 0.9344
10.8566 -13.3666 -2.8368 0.9326
11.4333 -13.0927 -2.8635 0.9320
12.7779 -12.6800 -2.9656 0.9296
15.1014 -12.0740 -3.1852 0.9246
15.6462 -11.6190 -3.2105 0.9240
16.1737 -11.1377 -3.2351 0.9235
16.6823 -10.6306 -3.2588 0.9229
18.0777 -8.9622 -3.3240 0.9215
18.4940 -8.3601 -3.3435 0.9210
19.2442 -7.0935 -3.3788 0.9202
19.5753 -6.4318 -3.3944 0.9199
19.8753 -5.7530 -3.4087 0.9195
20.5772 -3.6309 -3.4422 0.9188
21.0189 -0.6698 -3.4644 0.9183
20.9629 1.5803 -3.4632 0.9183
20.7410 3.0636 -3.4539 0.9185
20.5757 3.7940 -3.4468 0.9187
20.3715 4.5137 -3.4374 0.9189
19.7512 5.1222 -3.3614 0.9206
18.6596 5.5570 -3.2074 0.9241
18.3768 6.1950 -3.1948 0.9244
17.7243 7.4216 -3.1655 0.9251
14.4625 7.9695 -2.7204 0.9352
-9.4125 -5.6337 -2.0619 0.9563
-9.2398 -5.9884 -2.0696 0.9562
-9.0561 -6.3395 -2.0778 0.9560
-8.8612 -6.6867 -2.0866 0.9558
-8.6551 -7.0298 -2.0958 0.9556
-7.9699 -8.0314 -2.1267 0.9550
-4.5847 -11.1900 -2.2730 0.9520
-2.8604 -11.3895 -2.2073 0.9533
-2.0738 -11.7528 -2.2432 0.9526
-1.6667 -11.9175 -2.2618 0.9522
-0.8261 -12.2102 -2.3003 0.9514
-0.3931 -12.3374 -2.3201 0.9510
0.0479 -12.4511 -2.3403 0.9506
0.4966 -12.5508 -2.3609 0.9502
1.4155 -12.7063 -2.4031 0.9493
1.8849 -12.7612 -2.4246 0.9489
2.3602 -12.8000 -2.4465 0.9484
5.3056 -12.6709 -2.5820 0.9456
5.8059 -12.5848 -2.6050 0.9452
6.3068 -12.4792 -2.6281 0.9447
6.8075 -12.3538 -2.6513 0.9442
8.3375 -11.9102 -2.7327 0.9425
10.3787 -11.8850 -2.9658 0.9378
10.8912 -11.6081 -2.9919 0.9373
11.3851 -11.2978 -3.0148 0.9368
11.8688 -10.9653 -3.0372 0.9363
13.2466 -9.8370 -3.1013 0.9351
14.4877 -8.5208 -3.1592 0.9339
14.8652 -8.0429 -3.1768 0.9335
16.1628 -5.9577 -3.2378 0.9323
16.4287 -5.3979 -3.2504 0.9320
17.0709 -3.6449 -3.2810 0.9314
17.3619 -2.4282 -3.2951 0.9311
17.5380 -1.1866 -3.3040 0.9310
17.5820 -0.5602 -3.3064 0.9309
17.5964 0.0677 -3.3075 0.9309
17.5361 1.3220 -3.3055 0.9309
17.4617 1.9453 -3.3024 0.9310
17.2257 3.1763 -3.2923 0.9312
17.0648 3.7810 -3.2853 0.9313
16.8762 4.3766 -3.2770 0.9315
16.6605 4.9617 -3.2675 0.9317
16.4071 5.5310 -3.2544 0.9320
15.8908 5.9967 -3.1924 0.9332
14.8917 6.2355 -3.0345 0.9364
14.2777 7.2157 -3.0069 0.9370
-8.5348 -5.1084 -2.1026 0.9601
-8.2057 -5.7442 -2.1173 0.9599
-7.8361 -6.3646 -2.1339 0.9596
-7.2056 -7.2612 -2.1623 0.9590
-6.4845 -8.1104 -2.1950 0.9584
-6.2242 -8.3815 -2.2068 0.9582
-5.9540 -8.6461 -2.2190 0.9580
-5.6739 -8.9039 -2.2318 0.9578
-5.3841 -9.1544 -2.2449 0.9575
-4.4569 -9.8594 -2.2871 0.9567
-3.7918 -10.2869 -2.3175 0.9562
-3.4456 -10.4867 -2.3333 0.9559
-3.0904 -10.6767 -2.3495 0.9556
-2.7254 -10.8518 -2.3651 0.9553
-2.3507 -11.0096 -2.3797 0.9550
-1.9687 -11.1569 -2.3948 0.9547
-1.1685 -11.2768 -2.3965 0.9547
-0.3601 -11.3017 -2.3902 0.9548
0.4481 -11.3244 -2.3956 0.9547
1.2640 -11.3458 -2.4131 0.9544
2.5233 -11.3881 -2.4656 0.9534
3.4036 -11.4288 -2.5207 0.9524
3.8617 -11.4552 -2.5553 0.9518
5.3310 -11.5553 -2.6900 0.9493
5.8604 -11.5958 -2.7464 0.9483
6.3413 -11.5078 -2.7774 0.9477
9.4771 -10.1009 -2.9278 0.9449
9.8970 -9.8212 -2.9473 0.9446
11.0960 -8.8716 -3.0030 0.9436
11.4721 -8.5193 -3.0205 0.9433
12.1829 -7.7634 -3.0537 0.9426
13.4120 -6.0628 -3.1112 0.9416
13.6738 -5.6023 -3.1236 0.9414
13.9157 -5.1294 -3.1350 0.9412
14.3370 -4.1499 -3.1550 0.9408
14.5150 -3.6453 -3.1634 0.9406
14.6703 -3.1323 -3.1709 0.9405
14.9114 -2.0854 -3.1826 0.9403
14.9962 -1.5539 -3.1869 0.9402
15.0931 -0.4809 -3.1920 0.9401
14.9924 1.6702 -3.1887 0.9402
14.6624 3.2487 -3.1745 0.9404
14.3260 4.2664 -3.1597 0.9407
14.1244 4.7615 -3.1507 0.9409
13.9014 5.2459 -3.1407 0.9411
13.6577 5.7188 -3.1298 0.9413
13.3787 6.1721 -3.1144 0.9415
-7.6525 -4.9597 -2.1432 0.9632
-7.1527 -5.8095 -2.1657 0.9628
-6.9675 -6.0845 -2.1740 0.9627
-6.5696 -6.6203 -2.1920 0.9624
-5.9043 -7.3847 -2.2221 0.9619
-5.6645 -7.6279 -2.2330 0.9617
-5.1585 -8.0950 -2.2560 0.9613
-4.8923 -8.3183 -2.2681 0.9611
-4.6176 -8.5344 -2.2806 0.9609
-4.0429 -8.9436 -2.3067 0.9605
-3.7432 -9.1360 -2.3204 0.9602
-3.1197 -9.4948 -2.3489 0.9598
-2.7962 -9.6604 -2.3636 0.9595
-1.0712 -10.3374 -2.4425 0.9582
-0.3356 -10.5309 -2.4763 0.9576
0.4224 -10.6758 -2.5110 0.9570
1.5946 -10.7960 -2.5649 0.9561
1.9931 -10.8089 -2.5832 0.9558
2.3946 -10.8076 -2.6016 0.9555
3.2048 -10.7612 -2.6389 0.9549
3.6124 -10.7157 -2.6577 0.9546
4.0208 -10.6549 -2.6765 0.9543
5.2451 -10.3785 -2.7330 0.9533
6.4537 -9.9577 -2.7888 0.9524
6.8497 -9.7849 -2.8071 0.9521
7.6268 -9.3901 -2.8431 0.9515
8.3787 -8.9303 -2.8780 0.9509
9.0990 -8.4064 -2.9114 0.9504
9.4452 -8.1209 -2.9275 0.9501
10.7176 -6.8297 -2.9868 0.9491
11.2752 -6.1005 -3.0129 0.9487
11.9961 -4.9150 -3.0468 0.9481
12.3919 -4.0715 -3.0656 0.9478
12.7142 -3.1931 -3.0809 0.9476
13.1237 -1.3599 -3.1009 0.9472
4.8904 -0.3309 -1.1520 0.9801
4.8930 -0.1559 -1.1505 0.9801
13.2156 0.0508 -3.1060 0.9471
13.1723 0.9930 -3.1046 0.9472
13.1194 1.4615 -3.1024 0.9472
13.0459 1.9270 -3.0993 0.9473
12.9519 2.3883 -3.0953 0.9473
12.5505 3.7376 -3.0777 0.9476
12.1876 4.5992 -3.0615 0.9479
11.2524 6.2006 -3.0195 0.9486
-7.0386 -4.5618 -2.1717 0.9659
-6.7370 -5.0838 -2.1852 0.9657
-6.4012 -5.5899 -2.2004 0.9655
-6.2205 -5.8363 -2.2085 0.9654
-5.8341 -6.3148 -2.2260 0.9651
-5.4146 -6.7723 -2.2450 0.9648
-5.1926 -6.9924 -2.2551 0.9647
-4.9626 -7.2065 -2.2655 0.9645
-3.9644 -7.9966 -2.3109 0.9638
-3.6959 -8.1761 -2.3232 0.9636
-3.1373 -8.5112 -2.3487 0.9632
-2.5509 -8.8127 -2.3754 0.9628
-2.2477 -8.9501 -2.3893 0.9626
-0.6421 -9.4902 -2.4628 0.9615
-0.3048 -9.5667 -2.4783 0.9612
0.0371 -9.6321 -2.4939 0.9610
0.3832 -9.6859 -2.5098 0.9607
0.7334 -9.7280 -2.5259 0.9605
1.0871 -9.7580 -2.5422 0.9602
1.8035 -9.7807 -2.5751 0.9597
2.8940 -9.7176 -2.6253 0.9590
3.9916 -9.5328 -2.6759 0.9582
4.3566 -9.4433 -2.6927 0.9579
5.0816 -9.2217 -2.7262 0.9574
5.4404 -9.0894 -2.7428 0.9572
5.7959 -8.9427 -2.7592 0.9569
6.4943 -8.6061 -2.7915 0.9564
7.1714 -8.2122 -2.8229 0.9560
7.8217 -7.7618 -2.8531 0.9555
8.1351 -7.5159 -2.8677 0.9553
8.4397 -7.2564 -2.8818 0.9551
9.0196 -6.6980 -2.9088 0.9546
9.2936 -6.3998 -2.9216 0.9544
9.5560 -6.0895 -2.9339 0.9543
9.8063 -5.7674 -2.9456 0.9541
10.0437 -5.4342 -2.9567 0.9539
10.2676 -5.0903 -2.9672 0.9538
11.1657 -3.2320 -3.0097 0.9531
11.2976 -2.8373 -3.0160 0.9530
11.4126 -2.4367 -3.0215 0.9529
4.4608 -0.6239 -1.1662 0.9816
4.4053 -0.4565 -1.1467 0.9819
4.3823 -0.1396 -1.1352 0.9820
4.3980 0.0169 -1.1387 0.9820
4.4710 0.1769 -1.1585 0.9817
11.6486 1.2977 -3.0347 0.9527
11.5846 1.7111 -3.0320 0.9528
11.4035 2.5267 -3.0242 0.9529
11.2870 2.9271 -3.0191 0.9530
11.0034 3.7094 -3.0065 0.9532
10.6554 4.4617 -2.9910 0.9534
10.2467 5.1785 -2.9726 0.9537
10.0210 5.5220 -2.9625 0.9538
-6.2283 -4.6999 -2.2089 0.9681
-6.0755 -4.9346 -2.2158 0.9680
-5.9147 -5.1651 -2.2230 0.9679
-5.5700 -5.6130 -2.2386 0.9677
-5.1945 -6.0416 -2.2556 0.9674
-4.5752 -6.6440 -2.2837 0.9670
-4.3542 -6.8330 -2.2937 0.9669
-4.1262 -7.0156 -2.3041 0.9667
-3.8911 -7.1917 -2.3148 0.9666
-3.6492 -7.3608 -2.3258 0.9664
-3.4007 -7.5229 -2.3372 0.9663
-3.1456 -7.6775 -2.3488 0.9661
-2.8841 -7.8244 -2.3607 0.9659
-1.1928 -8.5292 -2.4381 0.9648
-0.5880 -8.6903 -2.4658 0.9644
-0.2790 -8.7557 -2.4800 0.9642
0.0339 -8.8108 -2.4943 0.9640
0.3504 -8.8553 -2.5088 0.9638
1.3179 -8.9224 -2.5533 0.9632
3.6287 -8.6661 -2.6597 0.9617
3.9582 -8.5799 -2.6749 0.9615
4.9346 -8.2443 -2.7200 0.9608
5.5696 -7.9563 -2.7494 0.9604
6.1867 -7.6171 -2.7780 0.9600
6.4870 -7.4284 -2.7919 0.9598
7.3476 -6.7883 -2.8319 0.9593
7.6190 -6.5508 -2.8445 0.9591
7.8818 -6.3017 -2.8568 0.9589
8.1352 -6.0412 -2.8686 0.9588
8.3787 -5.7698 -2.8799 0.9586
8.6117 -5.4877 -2.8908 0.9584
8.8337 -5.1954 -2.9012 0.9583
9.4284 -4.2621 -2.9292 0.9579
9.7604 -3.5977 -2.9448 0.9577
9.9057 -3.2547 -2.9517 0.9576
10.0367 -2.9052 -2.9580 0.9575
10.1531 -2.5499 -2.9635 0.9574
4.1109 -0.7254 -1.1817 0.9828
4.0893 -0.5719 -1.1689 0.9830
4.0511 -0.2741 -1.1495 0.9833
4.0499 -0.1291 -1.1471 0.9833
4.0774 0.0157 -1.1543 0.9832
4.1365 0.3119 -1.1743 0.9829
10.4620 1.1655 -2.9800 0.9572
10.4055 1.5370 -2.9777 0.9572
10.3333 1.9054 -2.9746 0.9573
10.2455 2.2701 -2.9708 0.9573
10.1425 2.6303 -2.9663 0.9574
10.0246 2.9854 -2.9611 0.9574
9.8919 3.3347 -2.9552 0.9575
9.5841 4.0131 -2.9414 0.9577
9.0221 4.9716 -2.9162 0.9581
-6.1711 -3.6936 -2.2121 0.9704
-6.0501 -3.9211 -2.2175 0.9703
-5.9217 -4.1453 -2.2233 0.9702
-5.7858 -4.3660 -2.2294 0.9701
-5.6426 -4.5830 -2.2359 0.9700
-5.4920 -4.7960 -2.2427 0.9699
-4.6323 -5.7937 -2.2816 0.9694
-4.4395 -5.9782 -2.2903 0.9693
-4.2400 -6.1572 -2.2994 0.9692
-4.0339 -6.3303 -2.3088 0.9691
-3.6024 -6.6581 -2.3284 0.9688
-3.3773 -6.8123 -2.3387 0.9687
-3.1461 -6.9597 -2.3492 0.9685
-2.9090 -7.1001 -2.3600 0.9684
-2.6662 -7.2332 -2.3711 0.9683
-2.4178 -7.3588 -2.3825 0.9681
-2.1641 -7.4766 -2.3941 0.9680
-1.9053 -7.5864 -2.4059 0.9678
-1.3730 -7.7810 -2.4302 0.9675
0.3224 -8.1476 -2.5080 0.9665
0.6163 -8.1746 -2.5215 0.9663
0.9126 -8.1914 -2.5351 0.9661
1.2109 -8.1978 -2.5488 0.9659
1.5108 -8.1934 -2.5626 0.9657
1.8121 -8.1783 -2.5765 0.9656
2.4167 -8.1149 -2.6043 0.9652
2.7193 -8.0665 -2.6183 0.9650
3.3228 -7.9354 -2.6461 0.9646
3.6227 -7.8526 -2.6599 0.9645
4.7996 -7.4055 -2.7143 0.9637
5.0855 -7.2648 -2.7276 0.9636
5.6439 -6.9488 -2.7534 0.9632
5.9152 -6.7737 -2.7660 0.9631
6.4396 -6.3902 -2.7904 0.9627
6.6915 -6.1822 -2.8021 0.9626
6.9360 -5.9635 -2.8135 0.9624
7.4002 -5.4954 -2.8351 0.9622
7.6190 -5.2466 -2.8453 0.9620
7.8282 -4.9884 -2.8551 0.9619
8.0274 -4.7212 -2.8644 0.9618
8.2161 -4.4454 -2.8733 0.9617
8.3939 -4.1614 -2.8816 0.9616
8.5603 -3.8696 -2.8895 0.9614
8.7149 -3.5706 -2.8968 0.9614
9.2083 -2.3126 -2.9202 0.9610
4.0060 -0.8553 -1.2599 0.9830
3.9040 -0.6888 -1.2193 0.9835
3.8759 -0.4016 -1.1985 0.9838
3.9097 0.1547 -1.2035 0.9838
3.9292 0.2962 -1.2120 0.9836
3.9802 0.4434 -1.2318 0.9834
9.3684 1.7275 -2.9301 0.9609
9.1979 2.3854 -2.9227 0.9610
9.0924 2.7078 -2.9180 0.9611
8.9738 3.0252 -2.9128 0.9611
-5.6456 -3.6590 -2.2363 0.9720
-5.5248 -3.8675 -2.2417 0.9720
-5.3971 -4.0727 -2.2475 0.9719
-4.9728 -4.6656 -2.2666 0.9717
-4.6565 -5.0401 -2.2809 0.9715
-4.1336 -5.5663 -2.3047 0.9712
-3.5550 -6.0445 -2.3310 0.9709
-3.3503 -6.1922 -2.3403 0.9708
-3.1400 -6.3337 -2.3499 0.9706
-2.9241 -6.4687 -2.3597 0.9705
-2.4765 -6.7185 -2.3802 0.9703
-2.2450 -6.8328 -2.3907 0.9701
-2.0087 -6.9398 -2.4015 0.9700
-1.7678 -7.0392 -2.4125 0.9699
-1.2730 -7.2145 -2.4352 0.9696
-1.0195 -7.2900 -2.4468 0.9694
-0.7623 -7.3570 -2.4586 0.9693
-0.5017 -7.4153 -2.4705 0.9692
0.0289 -7.5055 -2.4949 0.9689
0.2982 -7.5368 -2.5073 0.9687
0.8435 -7.5713 -2.5323 0.9684
1.1187 -7.5740 -2.5450 0.9682
1.9509 -7.5226 -2.5833 0.9678
2.5072 -7.4373 -2.6089 0.9675
2.7846 -7.3791 -2.6217 0.9673
3.0611 -7.3104 -2.6344 0.9671
3.3360 -7.2311 -2.6471 0.9670
4.1479 -6.9300 -2.6847 0.9665
4.4126 -6.8084 -2.6969 0.9664
4.6737 -6.6764 -2.7090 0.9662
5.4300 -6.2180 -2.7441 0.9658
5.6715 -6.0448 -2.7553 0.9657
6.1360 -5.6689 -2.7769 0.9654
6.3580 -5.4666 -2.7872 0.9653
6.5725 -5.2550 -2.7972 0.9652
6.7792 -5.0343 -2.8068 0.9650
6.9775 -4.8049 -2.8161 0.9649
7.3474 -4.3213 -2.8334 0.9647
7.5182 -4.0678 -2.8414 0.9646
8.0977 -2.9848 -2.8687 0.9643
8.2150 -2.6991 -2.8743 0.9642
8.3206 -2.4084 -2.8794 0.9641
8.4144 -2.1132 -2.8839 0.9641
3.7519 -0.8011 -1.2753 0.9840
3.7108 -0.6548 -1.2526 0.9842
3.7027 -0.5178 -1.2428 0.9844
3.6968 -0.3831 -1.2354 0.9845
3.6797 -0.1172 -1.2238 0.9846
3.7253 0.1474 -1.2393 0.9844
3.7419 0.2821 -1.2474 0.9843
3.7809 0.4212 -1.2646 0.9841
8.4043 2.1795 -2.8860 0.9641
8.3090 2.4745 -2.8818 0.9641
7.8117 3.6039 -2.8597 0.9644
7.6598 3.8712 -2.8529 0.9645
-5.0524 -3.8126 -2.2635 0.9735
-4.7923 -4.1849 -2.2752 0.9733
-4.6527 -4.3654 -2.2815 0.9733
-4.3550 -4.7138 -2.2950 0.9731
-4.0331 -5.0444 -2.3096 0.9729
-3.8634 -5.2024 -2.3173 0.9728
-3.5068 -5.5030 -2.3335 0.9727
-3.1282 -5.7816 -2.3508 0.9725
-2.7287 -6.0364 -2.3690 0.9723
-1.1854 -6.7180 -2.4395 0.9714
-0.9491 -6.7860 -2.4504 0.9713
-0.7094 -6.8462 -2.4613 0.9712
-0.4667 -6.8981 -2.4725 0.9711
-0.2212 -6.9419 -2.4837 0.9709
0.2771 -7.0039 -2.5066 0.9707
0.7833 -7.0309 -2.5299 0.9704
1.0385 -7.0310 -2.5416 0.9703
1.2948 -7.0218 -2.5534 0.9701
2.0663 -6.9384 -2.5889 0.9697
2.5794 -6.8352 -2.6126 0.9694
3.8354 -6.4079 -2.6706 0.9688
4.0788 -6.2933 -2.6819 0.9686
4.3186 -6.1692 -2.6930 0.9685
4.5545 -6.0355 -2.7039 0.9684
5.0125 -5.7400 -2.7252 0.9681
5.2339 -5.5784 -2.7354 0.9680
5.4495 -5.4078 -2.7455 0.9679
5.6591 -5.2283 -2.7552 0.9678
6.4282 -4.4266 -2.7911 0.9674
6.6011 -4.2065 -2.7992 0.9673
6.7656 -3.9791 -2.8069 0.9672
7.0678 -3.5040 -2.8211 0.9670
7.2048 -3.2569 -2.8275 0.9670
7.3320 -3.0040 -2.8335 0.9669
7.6520 -2.2149 -2.8487 0.9667
7.7372 -1.9431 -2.8528 0.9667
3.5658 -0.7613 -1.3039 0.9846
3.5358 -0.6239 -1.2840 0.9849
3.5203 -0.2382 -1.2617 0.9851
3.5217 -0.1122 -1.2600 0.9851
3.5437 0.0136 -1.2672 0.9851
3.5704 0.2692 -1.2804 0.9849
3.6694 0.5420 -1.3264 0.9844
7.8031 1.7289 -2.8581 0.9666
7.3166 3.0636 -2.8366 0.9669
7.1879 3.3161 -2.8308 0.9669
6.9015 3.8030 -2.8179 0.9671
-4.7446 -3.5803 -2.2778 0.9749
-4.4988 -3.9287 -2.2889 0.9747
-4.3671 -4.0974 -2.2948 0.9747
-3.7827 -4.7312 -2.3213 0.9744
-3.6227 -4.8784 -2.3286 0.9743
-3.4574 -5.0207 -2.3361 0.9742
-3.2869 -5.1580 -2.3439 0.9741
-2.9307 -5.4165 -2.3601 0.9740
-2.3606 -5.7616 -2.3861 0.9737
-2.1617 -5.8644 -2.3952 0.9736
-1.5404 -6.1338 -2.4236 0.9733
-0.8868 -6.3406 -2.4535 0.9729
0.0250 -6.5114 -2.4953 0.9725
0.2585 -6.5344 -2.5060 0.9724
0.4937 -6.5491 -2.5169 0.9723
0.7303 -6.5555 -2.5277 0.9721
1.2065 -6.5429 -2.5496 0.9719
1.4455 -6.5237 -2.5606 0.9718
1.6846 -6.4958 -2.5717 0.9717
2.3997 -6.3590 -2.6046 0.9713
3.1040 -6.1418 -2.6371 0.9710
4.2268 -5.6013 -2.6891 0.9704
4.4404 -5.4669 -2.6990 0.9703
4.8533 -5.1727 -2.7182 0.9701
5.0519 -5.0132 -2.7274 0.9700
5.2448 -4.8456 -2.7364 0.9699
5.9519 -4.0986 -2.7694 0.9695
6.2618 -3.6828 -2.7839 0.9694
6.4046 -3.4653 -2.7906 0.9693
6.6646 -3.0127 -2.8028 0.9692
6.7812 -2.7783 -2.8083 0.9691
6.8885 -2.5391 -2.8134 0.9690
3.3819 -0.7221 -1.3252 0.9853
3.3783 -0.3501 -1.3016 0.9856
3.4112 0.2572 -1.3110 0.9855
3.4304 0.3822 -1.3227 0.9853
3.4601 0.5111 -1.3404 0.9851
7.2712 1.3408 -2.8334 0.9688
7.2122 1.5980 -2.8309 0.9689
7.1429 1.8524 -2.8278 0.9689
6.8750 2.5944 -2.8160 0.9690
6.7663 2.8333 -2.8111 0.9691
-4.6774 -3.0314 -2.2812 0.9762
-4.4676 -3.3713 -2.2907 0.9761
-4.3541 -3.5365 -2.2958 0.9760
-4.1104 -3.8565 -2.3068 0.9759
-3.9802 -4.0110 -2.3127 0.9759
-3.8447 -4.1615 -2.3188 0.9758
-3.7039 -4.3079 -2.3252 0.9757
-3.5579 -4.4500 -2.3318 0.9757
-3.4068 -4.5876 -2.3387 0.9756
-3.0898 -4.8487 -2.3531 0.9755
-2.5790 -5.2021 -2.3764 0.9752
-2.3999 -5.3090 -2.3846 0.9751
-1.4451 -5.7542 -2.4282 0.9747
-1.2435 -5.8242 -2.4374 0.9746
-0.6210 -5.9930 -2.4659 0.9743
-0.1934 -6.0700 -2.4856 0.9741
0.4621 -6.1292 -2.5157 0.9738
0.6833 -6.1335 -2.5258 0.9737
0.9054 -6.1299 -2.5360 0.9736
1.3513 -6.0986 -2.5566 0.9734
2.0195 -5.9906 -2.5874 0.9730
2.2408 -5.9380 -2.5976 0.9729
2.6795 -5.8080 -2.6178 0.9727
3.5311 -5.4483 -2.6572 0.9723
3.7367 -5.3379 -2.6667 0.9722
3.9386 -5.2193 -2.6761 0.9721
4.5190 -4.8164 -2.7030 0.9719
4.7028 -4.6668 -2.7116 0.9718
5.2208 -4.1741 -2.7357 0.9715
5.3811 -3.9960 -2.7432 0.9714
5.5347 -3.8114 -2.7504 0.9714
5.6814 -3.6204 -2.7572 0.9713
5.8208 -3.4234 -2.7638 0.9712
6.3985 -2.3585 -2.7910 0.9710
6.5696 -1.9016 -2.7991 0.9709
3.1854 -0.8000 -1.3442 0.9859
3.2054 0.0123 -1.3119 0.9862
3.2142 0.1272 -1.3165 0.9862
3.2175 0.2426 -1.3206 0.9862
6.7506 1.2448 -2.8094 0.9708
6.6962 1.4837 -2.8071 0.9708
6.6324 1.7200 -2.8043 0.9708
6.5593 1.9534 -2.8011 0.9709
6.2854 2.6319 -2.7889 0.9710
5.9344 3.2701 -2.7731 0.9711
-4.5071 -2.6977 -2.2893 0.9773
-4.2168 -3.1821 -2.3023 0.9772
-3.9963 -3.4898 -2.3123 0.9771
-3.7548 -3.7838 -2.3232 0.9770
-3.3548 -4.1960 -2.3413 0.9768
-3.2118 -4.3250 -2.3478 0.9768
-3.0641 -4.4496 -2.3545 0.9767
-2.4292 -4.8998 -2.3835 0.9764
-2.2600 -4.9996 -2.3912 0.9763
-2.0870 -5.0938 -2.3991 0.9763
-1.9103 -5.1824 -2.4071 0.9762
-1.3594 -5.4130 -2.4323 0.9759
-0.9768 -5.5358 -2.4499 0.9758
-0.7814 -5.5874 -2.4588 0.9757
-0.5836 -5.6325 -2.4679 0.9756
-0.1817 -5.7021 -2.4863 0.9754
0.0220 -5.7264 -2.4957 0.9753
0.2273 -5.7436 -2.5051 0.9752
0.4338 -5.7535 -2.5146 0.9751
1.0582 -5.7390 -2.5433 0.9749
1.2672 -5.7191 -2.5529 0.9748
1.4760 -5.6916 -2.5626 0.9747
1.8924 -5.6136 -2.5818 0.9745
2.0993 -5.5629 -2.5913 0.9744
2.7112 -5.3645 -2.6196 0.9741
3.4947 -4.9922 -2.6558 0.9738
3.8669 -4.7610 -2.6731 0.9736
4.2227 -4.5006 -2.6896 0.9734
4.3935 -4.3599 -2.6976 0.9734
4.8746 -3.8974 -2.7200 0.9731
5.0234 -3.7304 -2.7269 0.9731
5.3019 -3.3786 -2.7399 0.9729
5.4311 -3.1942 -2.7460 0.9729
5.5532 -3.0046 -2.7517 0.9728
5.8748 -2.4070 -2.7669 0.9727
6.0496 -1.9877 -2.7752 0.9726
2.9647 -0.6330 -1.3212 0.9869
2.9770 -0.5253 -1.3175 0.9869
2.9822 -0.4171 -1.3123 0.9869
2.9867 -0.3095 -1.3086 0.9870
2.9868 -0.2021 -1.3047 0.9870
2.9930 -0.0954 -1.3051 0.9870
3.0113 0.1192 -1.3134 0.9869
6.1824 1.6033 -2.7835 0.9725
5.7604 2.6575 -2.7648 0.9727
-4.1777 -2.7076 -2.3044 0.9783
-3.5498 -3.5772 -2.3327 0.9780
-3.4279 -3.7104 -2.3383 0.9780
-3.3014 -3.8398 -2.3440 0.9779
-3.0347 -4.0865 -2.3561 0.9778
-2.8947 -4.2035 -2.3625 0.9778
-2.7504 -4.3161 -2.3690 0.9777
-2.4496 -4.5274 -2.3828 0.9776
-2.2933 -4.6257 -2.3899 0.9775
-2.1332 -4.7190 -2.3972 0.9774
-1.9695 -4.8071 -2.4047 0.9774
-1.8024 -4.8898 -2.4123 0.9773
-1.4584 -5.0386 -2.4280 0.9771
0.0208 -5.3918 -2.4958 0.9765
0.4082 -5.4150 -2.5136 0.9763
0.7992 -5.4105 -2.5316 0.9762
1.7783 -5.2750 -2.5767 0.9758
2.3561 -5.1070 -2.6034 0.9755
2.5454 -5.0365 -2.6121 0.9754
2.7325 -4.9588 -2.6208 0.9754
2.9173 -4.8740 -2.6293 0.9753
3.2783 -4.6830 -2.6461 0.9751
3.4539 -4.5771 -2.6542 0.9750
3.7941 -4.3447 -2.6700 0.9749
3.9580 -4.2185 -2.6776 0.9748
4.5658 -3.6505 -2.7059 0.9746
5.1976 -2.8122 -2.7355 0.9743
5.3044 -2.6297 -2.7405 0.9742
5.4042 -2.4429 -2.7452 0.9742
5.4967 -2.2521 -2.7496 0.9742
5.5817 -2.0575 -2.7536 0.9741
2.8828 -0.9472 -1.4046 0.9867
2.8415 -0.8225 -1.3693 0.9870
2.8053 -0.7045 -1.3389 0.9873
2.7858 -0.5948 -1.3186 0.9875
2.7952 -0.4932 -1.3138 0.9876
2.8042 -0.2906 -1.3050 0.9877
2.8101 -0.0895 -1.3014 0.9877
2.8218 0.0109 -1.3062 0.9876
2.8290 0.1119 -1.3105 0.9876
2.8343 0.2137 -1.3157 0.9875
2.8358 0.3159 -1.3208 0.9875
2.8765 0.5304 -1.3539 0.9872
2.9353 0.6504 -1.3917 0.9868
5.7822 1.4996 -2.7650 0.9740
5.5698 2.1019 -2.7556 0.9741
5.4836 2.2961 -2.7518 0.9741
5.2890 2.6730 -2.7431 0.9742
-3.7796 -2.8521 -2.3226 0.9791
-3.5803 -3.1266 -2.3316 0.9790
-3.4736 -3.2591 -2.3364 0.9790
-3.3623 -3.3883 -2.3415 0.9790
-3.2465 -3.5140 -2.3467 0.9789
-2.8729 -3.8687 -2.3637 0.9788
-2.7400 -3.9789 -2.3697 0.9787
-2.4622 -4.1864 -2.3824 0.9786
-2.3176 -4.2834 -2.3890 0.9785
-2.1694 -4.3758 -2.3957 0.9785
-2.0176 -4.4633 -2.4027 0.9784
-1.8625 -4.5458 -2.4097 0.9784
-1.7042 -4.6232 -2.4170 0.9783
-1.5427 -4.6954 -2.4244 0.9782
-1.3784 -4.7622 -2.4319 0.9782
-1.2114 -4.8235 -2.4395 0.9781
-1.0417 -4.8791 -2.4473 0.9780
-0.8697 -4.9290 -2.4552 0.9779
-0.6955 -4.9730 -2.4631 0.9779
-0.5193 -5.0111 -2.4712 0.9778
-0.3412 -5.0430 -2.4794 0.9777
-0.1615 -5.0688 -2.4876 0.9777
0.2019 -5.1014 -2.5043 0.9775
0.3851 -5.1081 -2.5128 0.9774
0.9383 -5.0887 -2.5382 0.9772
1.3077 -5.0424 -2.5552 0.9771
1.4917 -5.0091 -2.5637 0.9770
1.6751 -4.9689 -2.5722 0.9769
1.8574 -4.9220 -2.5806 0.9768
2.3958 -4.7406 -2.6054 0.9766
3.2479 -4.3041 -2.6449 0.9763
3.4090 -4.1972 -2.6524 0.9762
3.5665 -4.0841 -2.6597 0.9761
3.7199 -3.9648 -2.6668 0.9761
4.0138 -3.7082 -2.6805 0.9759
4.7726 -2.8069 -2.7159 0.9756
4.8787 -2.6396 -2.7209 0.9756
5.0714 -2.2925 -2.7300 0.9755
5.1577 -2.1132 -2.7341 0.9755
5.2370 -1.9304 -2.7378 0.9754
2.8339 -0.8203 -1.4472 0.9869
2.7559 -0.4863 -1.3727 0.9876
2.7439 -0.3837 -1.3590 0.9877
2.7228 -0.1842 -1.3387 0.9879
2.7279 -0.0869 -1.3388 0.9879
2.7447 0.0106 -1.3464 0.9878
2.7588 0.1092 -1.3543 0.9878
2.7757 0.2093 -1.3654 0.9877
2.8222 0.4169 -1.3994 0.9874
2.8678 0.5288 -1.4305 0.9871
2.9147 0.6458 -1.4644 0.9868
5.4238 1.4066 -2.7485 0.9753
5.3651 1.5978 -2.7459 0.9754
5.2990 1.7863 -2.7430 0.9754
5.1452 2.1544 -2.7362 0.9755
4.9636 2.5085 -2.7280 0.9755
4.8628 2.6796 -2.7235 0.9756
-3.6756 -2.5730 -2.3276 0.9800
-3.5875 -2.7071 -2.3316 0.9800
-3.4948 -2.8386 -2.3357 0.9799
-3.2960 -3.0925 -2.3447 0.9798
-2.5980 -3.7727 -2.3764 0.9796
-2.4678 -3.8727 -2.3823 0.9795
-2.3340 -3.9684 -2.3884 0.9795
-1.9117 -4.2290 -2.4077 0.9793
-1.6142 -4.3792 -2.4213 0.9792
-1.4611 -4.4468 -2.4283 0.9791
-1.3052 -4.5093 -2.4354 0.9791
-0.9861 -4.6185 -2.4500 0.9789
-0.8231 -4.6649 -2.4575 0.9789
-0.6581 -4.7058 -2.4650 0.9788
0.0185 -4.8114 -2.4961 0.9786
0.1908 -4.8229 -2.5040 0.9785
0.3640 -4.8283 -2.5120 0.9784
0.5378 -4.8276 -2.5199 0.9783
0.7120 -4.8206 -2.5280 0.9783
0.8864 -4.8073 -2.5360 0.9782
1.2349 -4.7618 -2.5520 0.9781
1.9237 -4.5941 -2.5838 0.9778
2.2600 -4.4719 -2.5994 0.9777
2.5883 -4.3244 -2.6146 0.9775
3.0612 -4.0567 -2.6365 0.9774
3.2126 -3.9553 -2.6435 0.9773
3.7801 -3.4924 -2.6699 0.9771
3.9113 -3.3629 -2.6760 0.9770
4.1592 -3.0886 -2.6876 0.9769
4.2754 -2.9441 -2.6930 0.9769
4.4913 -2.6415 -2.7031 0.9768
4.5907 -2.4838 -2.7078 0.9768
4.6840 -2.3221 -2.7122 0.9767
4.9261 -1.8158 -2.7236 0.9766
2.8803 -0.9464 -1.5728 0.9864
2.8219 -0.8168 -1.5240 0.9868
2.7565 -0.5885 -1.4622 0.9874
2.7296 -0.3817 -1.4299 0.9877
2.7254 -0.2824 -1.4214 0.9877
2.7134 -0.1836 -1.4109 0.9878
2.7346 0.0105 -1.4186 0.9878
2.7447 0.1086 -1.4250 0.9877
2.8082 0.4148 -1.4726 0.9873
5.1005 1.3228 -2.7336 0.9765
5.0456 1.5026 -2.7312 0.9766
4.9838 1.6801 -2.7284 0.9766
4.9151 1.8548 -2.7254 0.9766
4.5755 2.5213 -2.7102 0.9767
-3.5736 -2.3161 -2.3324 0.9808
-3.4941 -2.4460 -2.3360 0.9807
-3.4100 -2.5732 -2.3398 0.9807
-3.2290 -2.8198 -2.3480 0.9806
-2.9261 -3.1672 -2.3617 0.9805
-2.7042 -3.3822 -2.3718 0.9804
-2.5875 -3.4843 -2.3771 0.9804
-2.4672 -3.5827 -2.3825 0.9804
-2.3432 -3.6772 -2.3882 0.9803
-2.0852 -3.8538 -2.3999 0.9802
-1.9512 -3.9358 -2.4060 0.9802
-1.6742 -4.0864 -2.4187 0.9801
-1.3860 -4.2182 -2.4319 0.9800
-1.2380 -4.2769 -2.4386 0.9799
-1.0876 -4.3305 -2.4455 0.9798
-0.9350 -4.3791 -2.4525 0.9798
-0.6238 -4.4604 -2.4668 0.9797
-0.4656 -4.4930 -2.4740 0.9796
0.1807 -4.5677 -2.5037 0.9794
0.3447 -4.5720 -2.5112 0.9793
0.5092 -4.5705 -2.5188 0.9792
0.6740 -4.5631 -2.5264 0.9792
1.0038 -4.5305 -2.5416 0.9791
1.1684 -4.5052 -2.5491 0.9790
1.6578 -4.3931 -2.5717 0.9788
1.8188 -4.3436 -2.5792 0.9788
2.4456 -4.0860 -2.6081 0.9785
2.5969 -4.0068 -2.6151 0.9785
2.8911 -3.8312 -2.6288 0.9783
3.1727 -3.6332 -2.6419 0.9782
3.3083 -3.5260 -2.6482 0.9782
3.4399 -3.4136 -2.6543 0.9781
3.6909 -3.1734 -2.6660 0.9780
3.8097 -3.0459 -2.6715 0.9780
3.9238 -2.9138 -2.6768 0.9780
4.0330 -2.7772 -2.6820 0.9779
4.3290 -2.3423 -2.6958 0.9778
4.4166 -2.1896 -2.7000 0.9778
4.4984 -2.0335 -2.7038 0.9777
4.5742 -1.8741 -2.7074 0.9777
2.8480 -0.9357 -1.6419 0.9864
2.7916 -0.8080 -1.5917 0.9868
2.7629 -0.6939 -1.5603 0.9871
2.7446 -0.5860 -1.5371 0.9873
2.7268 -0.4811 -1.5166 0.9875
2.7124 -0.2811 -1.4935 0.9876
2.7091 -0.0863 -1.4845 0.9877
2.7208 0.0105 -1.4902 0.9877
2.7699 0.3086 -1.5265 0.9874
2.7940 0.4127 -1.5469 0.9872
2.8405 0.5238 -1.5820 0.9869
2.9097 0.6447 -1.6323 0.9865
4.8073 1.2467 -2.7201 0.9776
4.6333 1.7485 -2.7124 0.9777
4.4859 2.0695 -2.7058 0.9777
4.4031 2.2253 -2.7021 0.9778
-3.4735 -2.0790 -2.3372 0.9815
-3.2455 -2.4491 -2.3474 0.9814
-3.1611 -2.5675 -2.3512 0.9814
-2.7836 -3.0130 -2.3683 0.9812
-2.6797 -3.1166 -2.3730 0.9812
-2.3461 -3.4068 -2.3882 0.9811
-2.2280 -3.4962 -2.3936 0.9810
-2.1066 -3.5818 -2.3991 0.9810
-1.8546 -3.7408 -2.4106 0.9809
-1.3166 -4.0071 -2.4352 0.9807
-1.1758 -4.0622 -2.4416 0.9807
-0.8878 -4.1581 -2.4548 0.9806
-0.1373 -4.3093 -2.4892 0.9803
0.0166 -4.3237 -2.4963 0.9802
0.4828 -4.3340 -2.5177 0.9801
0.6390 -4.3263 -2.5249 0.9800
0.7953 -4.3130 -2.5321 0.9799
1.2624 -4.2390 -2.5536 0.9798
1.4169 -4.2030 -2.5608 0.9797
1.5703 -4.1612 -2.5678 0.9797
1.7225 -4.1137 -2.5749 0.9796
1.8733 -4.0606 -2.5818 0.9796
2.3148 -3.8674 -2.6023 0.9794
2.4576 -3.7919 -2.6089 0.9793
2.7353 -3.6247 -2.6217 0.9792
3.1287 -3.3347 -2.6400 0.9791
3.2529 -3.2279 -2.6458 0.9791
3.4893 -3.0001 -2.6568 0.9790
3.7087 -2.7541 -2.6671 0.9789
4.0024 -2.3539 -2.6808 0.9788
4.1725 -2.0686 -2.6888 0.9787
4.3207 -1.7703 -2.6958 0.9787
2.7615 -0.9073 -1.6782 0.9867
2.7307 -0.7904 -1.6413 0.9870
2.7146 -0.4790 -1.5915 0.9873
2.7007 -0.3777 -1.5744 0.9875
2.6983 -0.2796 -1.5662 0.9875
2.6940 -0.1823 -1.5589 0.9876
2.6994 -0.0860 -1.5593 0.9876
2.7068 0.0104 -1.5628 0.9876
2.7160 0.1075 -1.5693 0.9875
2.7354 0.2062 -1.5838 0.9874
2.7789 0.5124 -1.6314 0.9870
2.8241 0.6257 -1.6700 0.9867
4.5397 1.1773 -2.7077 0.9786
4.3097 1.8046 -2.6975 0.9787
4.1596 2.1022 -2.6908 0.9787
