ply
format ascii 1.0
element vertex 1378
property float32 x
property float32 y
property float32 z
property float32 I
end_header
-34.2679 -23.9885 7.3757 0.8437
-31.8973 -24.0700 7.0460 0.8502
-19.1414 -20.7185 4.9737 0.8918
-17.7957 -20.6977 4.8131 0.8951
-14.3350 -20.8167 4.4567 0.9024
-8.6055 -21.0036 4.0023 0.9119
-5.3034 -21.1172 3.8392 0.9154
-4.4838 -21.0003 3.7864 0.9165
-3.7357 -21.1711 3.7907 0.9164
-2.9646 -21.1976 3.7741 0.9167
0.0819 -21.3023 3.7562 0.9171
0.8439 -21.3285 3.7637 0.9170
1.5989 -21.2094 3.7504 0.9172
2.3820 -21.3814 3.7934 0.9163
3.1621 -21.4082 3.8158 0.9159
4.7555 -21.4630 3.8763 0.9146
5.5734 -21.4911 3.9148 0.9138
7.2150 -21.4025 3.9825 0.9123
8.1664 -19.5030 3.7282 0.9177
10.9479 -21.6626 4.2798 0.9061
11.9562 -21.6973 4.3682 0.9043
14.1102 -21.7713 4.5746 0.9000
18.0631 -22.2392 5.0519 0.8901
19.6572 -22.5101 5.2695 0.8857
22.7559 -22.5816 5.6528 0.8779
28.9042 -24.8517 6.7214 0.8566
23.2967 4.2958 4.1771 0.9083
22.4434 6.6838 4.1292 0.9093
31.6159 13.2384 6.0437 0.8700
-12.4900 -10.9070 2.5403 0.9351
-23.7344 -22.2685 4.9858 0.8766
-12.5079 -12.6045 2.7203 0.9307
-14.3350 -20.8167 3.8720 0.9028
-11.0842 -18.8463 3.3495 0.9153
-10.1186 -20.4101 3.4899 0.9119
-8.6055 -21.0036 3.4772 0.9122
-4.0754 -19.0873 2.9900 0.9241
-3.3784 -19.1462 2.9784 0.9243
-2.6762 -19.1354 2.9600 0.9248
-1.9889 -19.1940 2.9562 0.9249
0.0741 -19.2649 2.9513 0.9250
0.7632 -19.2886 2.9572 0.9249
2.1541 -19.3364 2.9806 0.9243
5.0312 -19.4003 3.0703 0.9221
6.4088 -21.5198 3.4398 0.9131
7.2150 -21.4025 3.4600 0.9127
11.9562 -21.6973 3.7951 0.9046
13.0083 -21.7335 3.8803 0.9026
16.8881 -22.3799 4.2951 0.8927
21.2981 -24.3892 4.9604 0.8772
22.9814 -22.8053 4.9599 0.8772
28.5290 -22.8097 5.5957 0.8626
30.8218 -22.8885 5.8813 0.8561
22.4115 6.6744 3.5824 0.9097
-31.4328 -22.0038 4.9965 0.8566
-29.5732 -22.3162 4.8245 0.8612
-27.2675 -22.1470 4.5745 0.8679
-26.5212 -23.1600 4.5851 0.8676
-20.6662 -22.3689 3.9658 0.8844
-16.5818 -20.7395 3.4578 0.8984
-13.9294 -18.7573 3.0424 0.9101
-12.9579 -18.8170 2.9752 0.9120
-12.0117 -18.8496 2.9106 0.9138
-10.2132 -18.8762 2.7948 0.9171
-9.3895 -18.9396 2.7528 0.9183
-8.5742 -18.9676 2.7106 0.9195
-7.7825 -18.9948 2.6731 0.9205
-3.3784 -19.1462 2.5318 0.9246
-1.3002 -19.2177 2.5083 0.9252
1.4533 -19.2774 2.5174 0.9250
3.5745 -19.3853 2.5669 0.9236
4.3007 -19.4102 2.5889 0.9229
5.0404 -19.4357 2.6147 0.9222
5.7958 -19.4616 2.6443 0.9214
6.5697 -19.4882 2.6781 0.9204
9.9043 -19.5977 2.8594 0.9152
11.7683 -19.6618 2.9840 0.9117
12.7420 -19.6604 3.0509 0.9098
21.4912 -24.6102 4.2547 0.8765
22.9855 -24.4985 4.3746 0.8733
28.7928 -24.7559 4.9448 0.8580
29.7419 -23.7795 4.9587 0.8576
30.7390 -22.8270 4.9859 0.8569
22.3799 6.6650 3.0409 0.9101
31.4353 13.1627 4.4379 0.8716
32.9910 15.2200 4.7312 0.8637
-34.2679 -23.9885 4.4918 0.8451
-31.8973 -24.0700 4.2910 0.8515
-19.8048 -18.5816 2.9162 0.8965
-17.2484 -18.6695 2.7294 0.9028
-16.0863 -18.7095 2.6495 0.9055
-12.0117 -18.8496 2.4001 0.9140
-11.0843 -18.8463 2.3478 0.9158
-10.2132 -18.8763 2.3046 0.9173
-6.2583 -19.0472 2.1529 0.9225
-5.2749 -18.2238 2.0372 0.9265
-3.8938 -18.2369 2.0024 0.9277
-3.2198 -18.2475 1.9897 0.9282
-2.5539 -18.2609 1.9800 0.9285
-1.8939 -18.2769 1.9731 0.9287
-1.2378 -18.2957 1.9691 0.9289
-0.5837 -18.3172 1.9679 0.9289
0.0705 -18.3415 1.9696 0.9289
0.7268 -18.3687 1.9740 0.9287
2.7280 -18.4688 2.0047 0.9276
3.4129 -18.5089 2.0210 0.9271
4.3007 -19.4102 2.1349 0.9231
6.5697 -19.4882 2.2084 0.9206
8.1664 -19.5031 2.2705 0.9185
9.0273 -19.5675 2.3140 0.9170
11.7683 -19.6618 2.4606 0.9119
12.7652 -19.6960 2.5203 0.9099
13.7879 -19.6963 2.5817 0.9078
14.9187 -19.7701 2.6596 0.9052
16.0902 -19.8104 2.7405 0.9024
17.3370 -19.8532 2.8303 0.8994
23.0413 -22.8648 3.4857 0.8776
28.9042 -24.8517 4.0933 0.8578
22.3486 6.6556 2.5041 0.9105
31.3778 13.1387 3.6529 0.8721
32.8799 15.1688 3.8883 0.8644
-34.2680 -23.9885 3.5410 0.8454
-31.8974 -24.0700 3.3827 0.8518
-19.8048 -18.5816 2.2989 0.8967
-8.9315 -18.0157 1.7022 0.9225
-5.2513 -18.1422 1.5988 0.9270
-3.2136 -18.2123 1.5655 0.9284
-1.8919 -18.2578 1.5538 0.9290
-1.2368 -18.2803 1.5510 0.9291
-0.5832 -18.3028 1.5502 0.9291
0.0705 -18.3252 1.5513 0.9291
0.7260 -18.3478 1.5544 0.9289
1.3849 -18.3704 1.5595 0.9287
2.0491 -18.3932 1.5667 0.9284
7.0053 -18.5636 1.6796 0.9234
9.5778 -20.7609 1.9355 0.9123
11.7406 -19.6154 1.9352 0.9123
16.0902 -19.8104 2.1605 0.9026
22.7559 -22.5816 2.7139 0.8792
24.5407 -22.6727 2.8283 0.8745
30.2123 13.9380 2.8166 0.8750
29.6771 14.9982 2.8149 0.8750
-33.8755 -21.9550 2.5032 0.8506
-29.2583 -22.0786 2.2729 0.8634
-25.4721 -22.2438 2.0970 0.8733
-23.7704 -22.3023 2.0212 0.8775
-20.6661 -22.3689 1.8885 0.8851
-17.3566 -20.1869 1.6509 0.8988
-16.1149 -20.1556 1.6002 0.9017
-14.8942 -20.0566 1.5491 0.9047
-12.7876 -20.0671 1.4755 0.9090
-9.7327 -17.9882 1.2683 0.9213
-8.9346 -18.0218 1.2473 0.9225
-8.1666 -18.0659 1.2294 0.9236
-5.9744 -18.1832 1.1868 0.9262
-5.2732 -18.2179 1.1761 0.9268
-4.5835 -18.2506 1.1669 0.9274
-3.9202 -18.3606 1.1642 0.9275
-3.2618 -18.4856 1.1640 0.9275
-1.9341 -18.6647 1.1636 0.9276
-1.2664 -18.7186 1.1634 0.9276
0.7413 -18.7368 1.1628 0.9276
1.4094 -18.6951 1.1626 0.9276
2.0754 -18.6296 1.1624 0.9276
2.7385 -18.5405 1.1622 0.9276
6.2607 -18.5716 1.2153 0.9245
7.0119 -18.5810 1.2315 0.9235
9.5534 -20.7079 1.4142 0.9127
11.5706 -20.9975 1.4867 0.9084
12.5848 -21.0259 1.5195 0.9065
13.7430 -21.2048 1.5669 0.9037
14.9206 -21.3143 1.6134 0.9010
16.8881 -22.3800 1.7386 0.8937
24.5015 -22.6364 2.0685 0.8749
28.5290 -22.8097 2.2650 0.8638
30.8218 -22.8885 2.3806 0.8574
30.5406 14.0896 2.0857 0.8739
29.9995 15.1611 2.0843 0.8740
-31.3292 -23.6413 1.5476 0.8546
-24.4369 -21.3398 1.2793 0.8782
-22.8044 -21.3960 1.2330 0.8823
-21.2839 -21.4482 1.1915 0.8861
-16.1146 -18.7424 0.9746 0.9058
-14.9868 -18.7446 0.9463 0.9084
-12.8381 -18.6431 0.8926 0.9134
-10.2131 -18.8762 0.8463 0.9177
-10.1195 -20.4119 0.8983 0.9128
-10.0547 -22.2426 0.9625 0.9069
-8.3732 -22.7157 0.9546 0.9076
-6.5929 -22.7769 0.9350 0.9094
-5.7277 -22.8066 0.9272 0.9102
-4.0754 -19.0873 0.7696 0.9248
-3.2018 -22.8935 0.9115 0.9116
-2.3752 -22.9219 0.9087 0.9119
0.9114 -23.0349 0.9090 0.9118
1.4533 -19.2773 0.7623 0.9255
2.5725 -23.0920 0.9162 0.9112
6.0193 -23.2105 0.9455 0.9085
7.2358 -21.4643 0.8932 0.9133
9.8436 -19.4776 0.8605 0.9163
10.7794 -19.5617 0.8807 0.9145
11.7851 -19.6898 0.9048 0.9122
15.1056 -20.0179 0.9888 0.9045
19.3020 -22.1034 1.1571 0.8892
20.3286 -21.6667 1.1715 0.8879
21.8437 -21.6764 1.2134 0.8841
25.8257 -23.8599 1.3864 0.8687
27.9551 -24.0356 1.4537 0.8628
30.3890 -24.2968 1.5342 0.8558
48.9832 5.4568 1.9434 0.8209
46.9798 6.9391 1.8726 0.8269
46.7158 8.6140 1.8731 0.8268
36.0076 12.1385 1.4983 0.8589
31.3038 13.1077 1.3382 0.8730
30.8753 14.2439 1.3408 0.8727
-28.8020 -21.7342 0.6095 0.8656
-27.2675 -22.1471 0.5934 0.8689
-26.5225 -23.1611 0.5948 0.8686
-26.5837 -24.9419 0.6158 0.8643
-16.8945 -18.2864 0.4205 0.9052
-17.6740 -20.5561 0.4579 0.8972
-14.6813 -18.3625 0.3971 0.9102
-15.3251 -20.6369 0.4342 0.9023
-13.1973 -20.7101 0.4148 0.9064
-11.0842 -18.8463 0.3693 0.9162
-10.2131 -18.8762 0.3625 0.9177
-8.3732 -22.7157 0.4090 0.9077
-7.4201 -22.5834 0.4015 0.9093
-6.5929 -22.7769 0.4005 0.9095
-5.7277 -22.8066 0.3972 0.9102
-4.0754 -19.0872 0.3297 0.9249
-4.0056 -22.7008 0.3894 0.9119
-3.2018 -22.8935 0.3905 0.9117
-2.3752 -22.9219 0.3893 0.9119
-1.5416 -22.7855 0.3858 0.9127
0.0885 -23.0066 0.3886 0.9121
0.9114 -23.0349 0.3894 0.9119
2.5725 -23.0920 0.3925 0.9112
3.4151 -23.1210 0.3948 0.9107
6.0193 -23.2105 0.4050 0.9085
7.3492 -19.4749 0.3516 0.9201
8.1664 -19.5030 0.3572 0.9189
10.5642 -19.1712 0.3697 0.9162
13.4907 -19.2717 0.3974 0.9102
14.5706 -19.3089 0.4086 0.9078
22.7838 -22.6093 0.5422 0.8795
25.9019 -22.2703 0.5770 0.8723
27.9420 -22.3404 0.6043 0.8666
30.1876 -22.4175 0.6352 0.8603
47.4986 7.0158 0.8110 0.8252
47.2318 8.7092 0.8113 0.8252
22.2254 6.6189 0.3917 0.9114
33.8430 11.4088 0.6033 0.8669
30.6518 12.8346 0.5613 0.8755
29.9434 13.8141 0.5570 0.8764
12.4316 6.8504 0.2398 0.9448
-34.0695 -23.8496 -0.2341 0.8467
-25.7756 -25.9746 -0.2060 0.8638
-20.6662 -22.3689 -0.1715 0.8853
-17.6740 -20.5561 -0.1526 0.8972
-16.4683 -20.5976 -0.1485 0.8999
-10.2132 -18.8762 -0.1208 0.9177
-10.0547 -22.2427 -0.1374 0.9070
-7.4201 -22.5834 -0.1338 0.9093
-6.5929 -22.7769 -0.1335 0.9095
-5.7277 -22.8066 -0.1324 0.9102
-4.0754 -19.0873 -0.1099 0.9249
-3.2018 -22.8935 -0.1301 0.9117
-2.3752 -22.9219 -0.1297 0.9119
-0.7322 -22.9784 -0.1294 0.9121
0.0885 -23.0066 -0.1295 0.9121
0.9114 -23.0349 -0.1298 0.9119
2.5725 -23.0920 -0.1308 0.9112
3.4151 -23.1210 -0.1316 0.9107
4.2381 -22.9842 -0.1316 0.9107
6.0193 -23.2105 -0.1350 0.9085
6.8719 -23.0747 -0.1356 0.9082
7.2355 -21.4635 -0.1275 0.9134
7.3492 -19.4749 -0.1172 0.9201
9.9107 -21.4824 -0.1332 0.9097
10.8736 -21.5155 -0.1357 0.9081
11.8750 -21.5500 -0.1385 0.9063
12.9200 -21.5859 -0.1416 0.9043
14.0144 -21.6235 -0.1451 0.9021
21.3695 -26.3102 -0.1908 0.8732
22.9841 -24.4971 -0.1891 0.8743
22.7837 -22.6091 -0.1807 0.8795
47.5179 8.7619 -0.2720 0.8243
14.4241 7.9483 -0.0927 0.9362
-23.9459 -14.3325 -0.7858 0.8943
-20.5810 -14.4073 -0.7074 0.9044
-19.2032 -14.4909 -0.6774 0.9082
-17.8374 -14.4878 -0.6471 0.9121
-16.7893 -14.6614 -0.6276 0.9147
-14.4985 -14.6105 -0.5796 0.9209
-10.9412 -14.7335 -0.5167 0.9292
-6.8527 -15.1593 -0.4684 0.9356
-6.1503 -15.0111 -0.4568 0.9371
-3.2479 -15.2117 -0.4380 0.9397
-2.7133 -15.3767 -0.4397 0.9394
-1.0431 -15.4173 -0.4351 0.9400
-0.4940 -15.5012 -0.4367 0.9398
0.0595 -15.4808 -0.4359 0.9399
0.6113 -15.4516 -0.4354 0.9400
1.6888 -15.1592 -0.4295 0.9408
2.2796 -15.4332 -0.4393 0.9395
2.8889 -15.6671 -0.4486 0.9382
3.4389 -15.5208 -0.4476 0.9384
5.2069 -15.4456 -0.4590 0.9369
5.8650 -15.5420 -0.4678 0.9357
6.4485 -15.4003 -0.4701 0.9354
7.0566 -15.2958 -0.4743 0.9348
15.7114 -20.8205 -0.7345 0.9009
16.4266 -20.2245 -0.7337 0.9010
18.4352 -17.0319 -0.7067 0.9044
48.5770 -1.5479 -1.3685 0.8233
43.6515 1.7271 -1.2301 0.8396
47.5133 7.0179 -1.3524 0.8251
47.7150 8.7983 -1.3662 0.8235
29.4254 12.3212 -0.8983 0.8802
14.3661 6.6277 -0.4455 0.9387
14.3885 7.2717 -0.4540 0.9375
-23.7009 -14.1859 -1.4008 0.8953
-19.0714 -14.3914 -1.2117 0.9087
-16.4376 -14.3543 -1.1067 0.9163
-13.4697 -14.5795 -1.0066 0.9236
-12.5934 -14.6470 -0.9796 0.9256
-10.9765 -14.7810 -0.9337 0.9289
-9.4590 -14.8437 -0.8926 0.9319
-8.6905 -14.7762 -0.8694 0.9336
-8.0578 -14.8927 -0.8587 0.9344
-7.3747 -14.8753 -0.8420 0.9357
-6.1390 -14.9836 -0.8212 0.9372
-5.5577 -15.0777 -0.8149 0.9377
-4.9257 -14.9913 -0.8003 0.9388
-3.8095 -15.1687 -0.7932 0.9393
-3.2077 -15.0237 -0.7791 0.9403
-2.6948 -15.2721 -0.7865 0.9398
-1.5797 -15.2448 -0.7773 0.9405
-1.0180 -15.0469 -0.7648 0.9414
-0.4845 -15.2038 -0.7714 0.9409
1.6949 -15.2139 -0.7763 0.9405
2.8340 -15.3691 -0.7926 0.9393
3.3701 -15.2104 -0.7901 0.9395
3.9572 -15.2591 -0.7995 0.9388
5.1624 -15.3137 -0.8196 0.9373
9.9974 -15.4255 -0.9322 0.9290
15.0874 -19.9937 -1.2703 0.9045
16.2331 -19.9863 -1.3058 0.9020
16.7055 -19.1300 -1.2880 0.9033
17.4267 -18.5738 -1.2917 0.9030
18.0093 -17.8713 -1.2867 0.9034
20.4689 -17.5990 -1.3690 0.8975
41.8125 -26.6447 -2.5144 0.8199
42.7418 -25.1382 -2.5147 0.8199
43.6162 -23.5989 -2.5150 0.8199
44.4352 -22.0294 -2.5152 0.8198
45.1974 -20.4312 -2.5155 0.8198
46.5473 -17.1576 -2.5159 0.8198
47.1332 -15.4864 -2.5160 0.8198
47.6588 -13.7951 -2.5162 0.8198
48.2141 -8.5075 -2.4829 0.8219
46.1556 -6.4551 -2.3635 0.8297
46.5004 -3.1461 -2.3636 0.8297
39.4293 -1.2564 -2.0006 0.8538
43.2329 1.7105 -2.1942 0.8409
38.9071 4.3344 -1.9853 0.8549
32.4117 7.1814 -1.6836 0.8755
27.4807 9.2640 -1.4707 0.8903
14.3660 6.6276 -0.8024 0.9386
14.3884 7.2717 -0.8176 0.9375
-19.0064 -14.3424 -1.7458 0.9089
-17.7370 -14.4062 -1.6754 0.9124
-16.6467 -14.5368 -1.6205 0.9152
-14.3791 -14.4902 -1.4968 0.9214
-13.5522 -14.6688 -1.4643 0.9230
-10.9357 -14.7262 -1.3449 0.9291
-10.2469 -14.8802 -1.3247 0.9301
-8.7262 -14.8368 -1.2621 0.9333
-8.0275 -14.8367 -1.2369 0.9346
-6.0738 -14.8244 -1.1747 0.9378
-4.2896 -14.8197 -1.1312 0.9400
-3.7508 -14.9349 -1.1291 0.9401
-3.1692 -14.8433 -1.1129 0.9409
-2.6417 -14.9714 -1.1147 0.9408
0.0587 -15.2831 -1.1206 0.9405
0.6004 -15.1750 -1.1135 0.9409
1.1458 -15.1987 -1.1176 0.9407
3.9376 -15.1836 -1.1501 0.9390
4.5986 -15.4415 -1.1813 0.9374
5.1610 -15.3095 -1.1846 0.9373
5.7753 -15.3042 -1.1994 0.9365
8.4801 -15.3891 -1.2883 0.9320
9.1817 -15.3402 -1.3109 0.9308
10.0135 -15.4503 -1.3500 0.9288
10.8829 -15.5464 -1.3914 0.9267
16.6088 -19.0193 -1.8514 0.9037
17.2781 -18.4154 -1.8515 0.9037
17.7349 -17.5990 -1.8320 0.9046
23.7732 -19.0073 -2.2317 0.8851
28.8160 -18.3627 -2.5054 0.8719
30.1181 -16.2957 -2.5108 0.8717
31.6935 -12.9853 -2.5113 0.8716
32.1385 -11.8465 -2.5115 0.8716
32.5424 -10.6923 -2.5116 0.8716
32.9047 -9.5244 -2.5117 0.8716
33.2250 -8.3442 -2.5118 0.8716
33.5027 -7.1533 -2.5119 0.8716
34.0777 -3.5312 -2.5120 0.8716
34.1824 -2.3127 -2.5121 0.8716
32.0849 2.4188 -2.3592 0.8789
31.8295 4.7014 -2.3591 0.8789
31.6406 5.8343 -2.3591 0.8789
31.4112 6.9597 -2.3590 0.8789
31.1515 8.0787 -2.3597 0.8789
22.1039 6.5827 -1.6910 0.9116
27.5127 9.2748 -2.1288 0.8901
23.9667 10.0355 -1.9051 0.9010
14.3658 6.6275 -1.1600 0.9385
14.3883 7.2716 -1.1821 0.9374
-20.4814 -13.2742 -2.3432 0.9066
-19.8764 -13.9140 -2.3293 0.9071
-16.0917 -14.0522 -2.0510 0.9177
-13.0841 -14.1620 -1.8511 0.9254
-12.3000 -14.3057 -1.8113 0.9270
-11.7918 -14.7485 -1.8129 0.9269
-10.9015 -14.6800 -1.7555 0.9292
-9.3536 -14.6783 -1.6710 0.9324
-7.9721 -14.7343 -1.6083 0.9349
-6.0704 -14.8161 -1.5372 0.9377
-5.4555 -14.8003 -1.5144 0.9386
-4.8973 -14.9051 -1.5062 0.9389
-4.2877 -14.8129 -1.4805 0.9399
-3.7501 -14.9323 -1.4781 0.9400
-3.1767 -14.8786 -1.4606 0.9407
-1.5717 -15.1673 -1.4639 0.9406
-1.0149 -15.0012 -1.4435 0.9414
0.0582 -15.1274 -1.4523 0.9410
0.6013 -15.1984 -1.4603 0.9407
1.1359 -15.0676 -1.4507 0.9411
1.6924 -15.1918 -1.4675 0.9404
2.2393 -15.1608 -1.4713 0.9403
2.8224 -15.3064 -1.4943 0.9394
4.5256 -15.1964 -1.5223 0.9383
7.0679 -15.3203 -1.6198 0.9344
7.8031 -15.4401 -1.6609 0.9328
9.1645 -15.3115 -1.7132 0.9308
9.9842 -15.4051 -1.7624 0.9289
14.7691 -19.5719 -2.3540 0.9062
15.2698 -18.8002 -2.3252 0.9073
16.7810 -17.8857 -2.3546 0.9061
17.4101 -17.2767 -2.3548 0.9061
18.6011 -15.9932 -2.3551 0.9061
19.7131 -14.6390 -2.3573 0.9060
21.5114 -14.8134 -2.5075 0.9004
22.0340 -14.0410 -2.5084 0.9003
22.5224 -13.2464 -2.5085 0.9003
22.9822 -12.4347 -2.5087 0.9003
24.5224 -9.0391 -2.5091 0.9003
24.8303 -8.1584 -2.5092 0.9003
25.3506 -6.3666 -2.5094 0.9003
25.5623 -5.4579 -2.5094 0.9003
25.8876 -3.6205 -2.5095 0.9003
26.1270 -0.8325 -2.5096 0.9003
26.1401 0.1005 -2.5096 0.9003
26.1198 1.0334 -2.5096 0.9003
26.0660 1.9650 -2.5096 0.9003
25.9564 2.8916 -2.5074 0.9004
24.1415 4.4515 -2.3568 0.9061
23.9667 5.3102 -2.3567 0.9061
22.1335 5.7400 -2.1952 0.9122
21.4489 7.2306 -2.1731 0.9131
21.6752 8.1795 -2.2242 0.9111
22.6391 9.4796 -2.3563 0.9061
14.4236 7.9480 -1.5811 0.9360
-17.9897 -10.7676 -2.4905 0.9190
-16.1690 -11.3188 -2.3445 0.9236
-15.7556 -11.8893 -2.3446 0.9236
-15.3221 -12.4448 -2.3447 0.9236
-14.8690 -12.9845 -2.3449 0.9236
-13.9066 -14.0140 -2.3452 0.9236
-13.0840 -14.1621 -2.2903 0.9253
-12.2041 -14.1942 -2.2236 0.9274
-11.3729 -14.2245 -2.1633 0.9293
-10.5846 -14.2533 -2.1089 0.9310
-9.8341 -14.2807 -2.0597 0.9325
-7.1289 -14.3795 -1.9065 0.9374
-5.9098 -14.4240 -1.8516 0.9391
-3.1642 -14.8195 -1.8000 0.9408
-2.1041 -15.0450 -1.8045 0.9406
-1.5729 -15.1791 -1.8127 0.9404
-0.4849 -15.2158 -1.8083 0.9405
1.1522 -15.2845 -1.8207 0.9401
1.6784 -15.0658 -1.8007 0.9408
2.7721 -15.0336 -1.8159 0.9403
4.4078 -14.8008 -1.8344 0.9397
4.9967 -14.8223 -1.8580 0.9389
5.6018 -14.8444 -1.8847 0.9381
6.8697 -14.8907 -1.9480 0.9361
7.5378 -14.9151 -1.9851 0.9349
7.4086 -12.3778 -1.7136 0.9435
10.5171 -15.0239 -2.1784 0.9288
12.4899 -15.3776 -2.3533 0.9233
13.5570 -14.4494 -2.3536 0.9233
14.0650 -13.9573 -2.3537 0.9233
15.5459 -13.3662 -2.4353 0.9207
16.9428 -12.5819 -2.5068 0.9185
17.7990 -11.3423 -2.5071 0.9185
18.1934 -10.7003 -2.5072 0.9185
18.5646 -10.0445 -2.5073 0.9185
19.2354 -8.6953 -2.5075 0.9185
19.8081 -7.3014 -2.5077 0.9185
20.0566 -6.5899 -2.5078 0.9185
20.6476 -4.4085 -2.5079 0.9185
20.9101 -2.9244 -2.5080 0.9185
21.0014 -2.1762 -2.5080 0.9185
21.1140 0.0812 -2.5081 0.9185
21.0976 0.8347 -2.5081 0.9185
21.0542 1.5872 -2.5080 0.9185
20.5902 4.5621 -2.5052 0.9186
19.7030 5.1097 -2.4179 0.9213
19.0025 5.6591 -2.3552 0.9232
18.2870 7.6573 -2.3550 0.9232
17.6928 8.9416 -2.3548 0.9233
-15.1214 -9.0508 -2.4970 0.9313
-12.6286 -11.0280 -2.3756 0.9345
-11.6621 -11.7521 -2.3459 0.9353
-10.7952 -12.5555 -2.3461 0.9353
-10.3408 -12.9336 -2.3463 0.9353
-9.8732 -13.2953 -2.3464 0.9353
-8.3970 -14.2772 -2.3469 0.9353
-7.7676 -14.3562 -2.3128 0.9362
-5.9098 -14.4240 -2.2086 0.9390
-4.1933 -14.4867 -2.1369 0.9409
-3.1016 -14.5266 -2.1047 0.9418
-2.5667 -14.5462 -2.0929 0.9421
-2.0371 -14.5655 -2.0839 0.9423
-1.5113 -14.5847 -2.0776 0.9425
-0.9881 -14.6038 -2.0739 0.9426
-0.4660 -14.6229 -2.0730 0.9426
0.5801 -14.6610 -2.0789 0.9424
1.1067 -14.6803 -2.0859 0.9423
2.7178 -14.7391 -2.1236 0.9412
3.2702 -14.7593 -2.1420 0.9408
4.4078 -14.8008 -2.1881 0.9395
4.9967 -14.8223 -2.2163 0.9388
5.6018 -14.8444 -2.2481 0.9379
6.2253 -14.8672 -2.2837 0.9370
6.8697 -14.8907 -2.3236 0.9359
7.4865 -14.8134 -2.3517 0.9351
7.3786 -12.3276 -2.0357 0.9436
10.4682 -12.8885 -2.3526 0.9351
14.9167 -9.5055 -2.5062 0.9310
15.5580 -8.4178 -2.5064 0.9310
15.8491 -7.8574 -2.5065 0.9310
16.1199 -7.2869 -2.5065 0.9310
16.3702 -6.7071 -2.5066 0.9310
16.8079 -5.5225 -2.5068 0.9310
16.9947 -4.9192 -2.5068 0.9310
17.1598 -4.3096 -2.5069 0.9310
17.3030 -3.6944 -2.5069 0.9310
17.4241 -3.0745 -2.5069 0.9310
17.6848 -0.5635 -2.5070 0.9310
17.6936 0.0681 -2.5070 0.9310
17.6799 0.6995 -2.5070 0.9310
17.6436 1.3301 -2.5070 0.9310
17.5034 2.5854 -2.5070 0.9310
17.3997 3.2084 -2.5069 0.9310
17.1260 4.4414 -2.5068 0.9310
16.9561 5.0497 -2.5068 0.9310
15.3251 6.4170 -2.3541 0.9351
14.8273 7.4935 -2.3539 0.9351
-12.7233 -8.2461 -2.4977 0.9404
-12.4213 -8.6952 -2.4978 0.9404
-12.1035 -9.1334 -2.4979 0.9404
-11.7703 -9.5600 -2.4980 0.9404
-11.4220 -9.9744 -2.4981 0.9404
-10.2221 -11.0643 -2.4815 0.9408
-9.5380 -11.0934 -2.4101 0.9424
-7.2232 -12.2814 -2.3472 0.9439
-6.7806 -12.5322 -2.3474 0.9439
-6.3294 -12.7670 -2.3475 0.9439
-5.8700 -12.9855 -2.3476 0.9439
-4.9293 -13.3728 -2.3479 0.9439
-3.9632 -13.6921 -2.3482 0.9439
-3.4722 -13.8257 -2.3484 0.9438
-2.9767 -13.9418 -2.3485 0.9438
-2.4774 -14.0400 -2.3487 0.9438
-0.4542 -14.2534 -2.3493 0.9438
2.5870 -14.0298 -2.3502 0.9438
3.0863 -13.9295 -2.3504 0.9438
3.5817 -13.8113 -2.3505 0.9438
4.0727 -13.6755 -2.3507 0.9438
4.5585 -13.5223 -2.3508 0.9438
5.0385 -13.3518 -2.3510 0.9438
5.5122 -13.1643 -2.3511 0.9438
5.9789 -12.9599 -2.3513 0.9438
6.8891 -12.5019 -2.3515 0.9438
7.3313 -12.2487 -2.3517 0.9438
7.7643 -11.9799 -2.3518 0.9438
11.1690 -10.3188 -2.5050 0.9402
11.5307 -9.9141 -2.5052 0.9402
12.2096 -9.0669 -2.5054 0.9402
12.5259 -8.6257 -2.5055 0.9402
12.8263 -8.1734 -2.5055 0.9402
13.1103 -7.7107 -2.5056 0.9402
13.6278 -6.7562 -2.5058 0.9402
14.4520 -4.7484 -2.5060 0.9402
14.8776 -3.1766 -2.5062 0.9402
14.9816 -2.6436 -2.5062 0.9402
15.0666 -2.1071 -2.5062 0.9402
15.1323 -1.5681 -2.5062 0.9402
15.1787 -1.0270 -2.5062 0.9402
15.2058 -0.4845 -2.5063 0.9402
15.2134 0.0585 -2.5063 0.9402
15.2016 0.6015 -2.5063 0.9402
15.1703 1.1437 -2.5062 0.9402
15.1198 1.6844 -2.5062 0.9402
15.0499 2.2229 -2.5062 0.9402
14.9608 2.7587 -2.5062 0.9402
14.8526 3.2909 -2.5061 0.9402
14.7254 3.8188 -2.5061 0.9402
14.5795 4.3419 -2.5061 0.9402
14.2320 5.3707 -2.5059 0.9402
13.7711 6.3531 -2.4984 0.9404
12.9201 6.5296 -2.3848 0.9430
12.5108 6.8940 -2.3532 0.9437
-11.4040 -6.8258 -2.4981 0.9473
-11.1535 -7.2287 -2.4982 0.9473
-10.3179 -8.3804 -2.4985 0.9473
-10.0126 -8.7436 -2.4986 0.9473
-9.6946 -9.0958 -2.4987 0.9473
-9.3641 -9.4364 -2.4988 0.9473
-8.6678 -10.0813 -2.4990 0.9473
-7.5284 -10.9325 -2.4950 0.9474
-7.0968 -11.1368 -2.4822 0.9477
-5.5534 -11.2015 -2.3500 0.9504
-5.1453 -11.3823 -2.3479 0.9504
-4.7360 -11.5593 -2.3480 0.9504
-4.3207 -11.7216 -2.3481 0.9504
-3.4738 -12.0013 -2.3484 0.9504
-3.0434 -12.1183 -2.3485 0.9504
-2.1714 -12.3060 -2.3488 0.9504
-1.7309 -12.3763 -2.3489 0.9504
-1.2881 -12.4309 -2.3490 0.9504
-0.8437 -12.4697 -2.3492 0.9504
-0.3981 -12.4926 -2.3493 0.9504
0.0481 -12.4996 -2.3494 0.9504
1.3842 -12.4250 -2.3499 0.9504
1.8269 -12.3684 -2.3500 0.9504
3.1391 -12.1043 -2.3504 0.9504
3.9950 -11.8508 -2.3507 0.9504
4.8363 -11.5501 -2.3536 0.9503
5.3438 -11.5832 -2.3977 0.9494
6.4104 -11.6333 -2.4966 0.9474
6.8340 -11.4177 -2.5011 0.9473
8.0247 -10.6343 -2.5041 0.9472
8.7637 -10.0356 -2.5043 0.9472
10.1044 -8.6877 -2.5047 0.9472
10.6992 -7.9453 -2.5049 0.9472
11.2395 -7.1623 -2.5051 0.9472
11.7225 -6.3425 -2.5052 0.9472
11.9417 -5.9203 -2.5053 0.9472
12.3342 -5.0535 -2.5054 0.9472
12.5070 -4.6101 -2.5054 0.9472
12.8044 -3.7063 -2.5055 0.9472
12.9288 -3.2470 -2.5056 0.9472
13.3004 -0.8999 -2.5057 0.9472
13.3204 0.5270 -2.5057 0.9472
13.2931 1.0021 -2.5057 0.9472
13.2488 1.4759 -2.5057 0.9472
12.7754 3.8046 -2.5055 0.9472
12.6313 4.2581 -2.5055 0.9472
11.8956 6.0119 -2.5052 0.9472
11.6596 6.4249 -2.5023 0.9473
-10.1421 -6.0704 -2.4985 0.9528
-9.6838 -6.7789 -2.4987 0.9528
-9.4359 -7.1204 -2.4987 0.9528
-9.1761 -7.4529 -2.4988 0.9528
-8.9045 -7.7760 -2.4989 0.9528
-5.9953 -10.1937 -2.4998 0.9528
-5.6279 -10.4017 -2.4999 0.9528
-5.2533 -10.5964 -2.5000 0.9528
-4.8707 -10.7749 -2.4995 0.9528
-4.0822 -11.0748 -2.4950 0.9529
-3.2500 -11.2281 -2.4708 0.9533
-2.4031 -11.2549 -2.4327 0.9540
-1.9881 -11.2672 -2.4184 0.9543
-1.1699 -11.2897 -2.3992 0.9547
0.4482 -11.3278 -2.3964 0.9547
0.8546 -11.3360 -2.4030 0.9546
1.2638 -11.3444 -2.4128 0.9544
1.6773 -11.3554 -2.4263 0.9542
2.0958 -11.3659 -2.4430 0.9538
2.5212 -11.3790 -2.4636 0.9535
3.3712 -11.3200 -2.4967 0.9529
5.7157 -10.3725 -2.5034 0.9527
6.0825 -10.1623 -2.5035 0.9527
6.4417 -9.9392 -2.5036 0.9527
7.1349 -9.4551 -2.5038 0.9527
7.7919 -8.9227 -2.5040 0.9527
8.4092 -8.3447 -2.5042 0.9527
8.7020 -8.0396 -2.5043 0.9527
8.9837 -7.7241 -2.5044 0.9527
9.2539 -7.3988 -2.5044 0.9527
9.5124 -7.0640 -2.5045 0.9527
9.7588 -6.7202 -2.5046 0.9527
9.9927 -6.3678 -2.5047 0.9527
10.7983 -4.8813 -2.5049 0.9527
10.9658 -4.4929 -2.5050 0.9527
11.1194 -4.0987 -2.5050 0.9527
11.4943 -2.8867 -2.5051 0.9527
11.5902 -2.4747 -2.5052 0.9527
11.6713 -2.0594 -2.5052 0.9527
4.9571 -0.6933 -1.0580 0.9797
4.7360 -0.1509 -1.0016 0.9808
4.7571 0.0183 -1.0056 0.9807
11.8182 0.8909 -2.5052 0.9527
11.7244 1.7317 -2.5052 0.9527
11.6550 2.1491 -2.5052 0.9527
11.4717 2.9750 -2.5051 0.9527
11.3581 3.3825 -2.5051 0.9527
11.2299 3.7857 -2.5050 0.9527
10.7603 4.9641 -2.5049 0.9527
10.3782 5.7189 -2.5048 0.9527
-8.9225 -5.7827 -2.4989 0.9573
-8.4877 -6.4049 -2.4990 0.9572
-7.2167 -7.8113 -2.4994 0.9572
-6.3411 -8.5389 -2.4997 0.9572
-6.0325 -8.7602 -2.4998 0.9572
-5.3926 -9.1689 -2.5000 0.9572
-4.0335 -9.8447 -2.5004 0.9572
-2.5919 -10.3203 -2.5008 0.9572
-2.2220 -10.4067 -2.5009 0.9572
-1.4740 -10.5397 -2.5012 0.9572
-0.3390 -10.6383 -2.5015 0.9572
0.8003 -10.6151 -2.5019 0.9572
1.5556 -10.5319 -2.5021 0.9572
2.3032 -10.3951 -2.5023 0.9572
2.6729 -10.3067 -2.5024 0.9572
3.4017 -10.0907 -2.5027 0.9572
3.7598 -9.9633 -2.5028 0.9572
4.1132 -9.8231 -2.5029 0.9572
4.4614 -9.6705 -2.5030 0.9572
4.8039 -9.5055 -2.5031 0.9572
5.1403 -9.3283 -2.5032 0.9572
5.4702 -9.1393 -2.5033 0.9572
5.7932 -8.9386 -2.5034 0.9572
6.7162 -8.2690 -2.5037 0.9572
7.2895 -7.7694 -2.5038 0.9572
8.0790 -6.9463 -2.5041 0.9572
8.3220 -6.6537 -2.5042 0.9572
8.5545 -6.3526 -2.5042 0.9572
8.9863 -5.7265 -2.5044 0.9572
9.5476 -4.7334 -2.5045 0.9572
9.8613 -4.0403 -2.5046 0.9572
4.5291 -0.7992 -1.0809 0.9813
4.4356 -0.6204 -1.0526 0.9818
4.3849 -0.1397 -1.0311 0.9821
10.5923 1.1800 -2.5048 0.9572
10.4810 1.9326 -2.5048 0.9572
10.3162 2.6754 -2.5048 0.9572
10.2140 3.0418 -2.5047 0.9572
9.9707 3.7626 -2.5046 0.9572
9.6765 4.4642 -2.5046 0.9572
9.5108 4.8066 -2.5045 0.9572
-8.2819 -4.9571 -2.4991 0.9609
-8.0999 -5.2496 -2.4991 0.9609
-7.9075 -5.5355 -2.4992 0.9609
-7.4929 -6.0858 -2.4993 0.9609
-7.2711 -6.3495 -2.4994 0.9609
-6.8000 -6.8525 -2.4995 0.9609
-6.2942 -7.3206 -2.4997 0.9609
-6.0291 -7.5408 -2.4998 0.9609
-5.4761 -7.9522 -2.4999 0.9609
-4.8952 -8.3232 -2.5001 0.9609
-4.5952 -8.4930 -2.5002 0.9609
-3.9779 -8.7998 -2.5004 0.9609
-3.6614 -8.9365 -2.5005 0.9609
-2.3528 -9.3682 -2.5009 0.9609
-1.6786 -9.5129 -2.5011 0.9609
-1.3380 -9.5671 -2.5012 0.9609
-0.6521 -9.6391 -2.5014 0.9609
-0.3077 -9.6566 -2.5015 0.9609
1.4120 -9.5598 -2.5021 0.9609
1.7524 -9.5037 -2.5022 0.9609
2.0906 -9.4355 -2.5023 0.9609
2.7586 -9.2631 -2.5025 0.9609
4.0494 -8.7776 -2.5029 0.9608
4.3603 -8.6278 -2.5030 0.9608
4.6657 -8.4669 -2.5030 0.9608
4.9651 -8.2953 -2.5031 0.9608
5.2582 -8.1131 -2.5032 0.9608
5.8240 -7.7179 -2.5034 0.9608
6.0959 -7.5053 -2.5035 0.9608
6.3601 -7.2832 -2.5036 0.9608
6.6162 -7.0518 -2.5036 0.9608
7.3328 -6.3047 -2.5039 0.9608
7.5533 -6.0391 -2.5039 0.9608
7.7643 -5.7658 -2.5040 0.9608
8.3367 -4.9031 -2.5042 0.9608
9.0756 -3.3453 -2.5044 0.9608
9.1893 -3.0193 -2.5044 0.9608
9.2914 -2.6894 -2.5045 0.9608
9.3815 -2.3561 -2.5045 0.9608
9.4597 -2.0198 -2.5045 0.9608
4.0802 -0.4228 -1.0621 0.9832
4.0748 -0.2757 -1.0574 0.9833
4.1365 0.1637 -1.0719 0.9830
9.5692 1.4134 -2.5045 0.9608
9.5126 1.7541 -2.5045 0.9608
9.2703 2.7608 -2.5044 0.9608
9.0495 3.4150 -2.5044 0.9608
8.7826 4.0517 -2.5043 0.9608
8.6322 4.3625 -2.5042 0.9608
8.4708 4.6678 -2.5042 0.9608
-7.5753 -4.5341 -2.4993 0.9640
-7.2328 -5.0632 -2.4994 0.9640
-7.0477 -5.3182 -2.4995 0.9640
-6.6507 -5.8078 -2.4996 0.9640
-6.4393 -6.0416 -2.4997 0.9640
-5.5146 -6.8973 -2.4999 0.9640
-4.7461 -7.4479 -2.5002 0.9640
-4.4774 -7.6129 -2.5003 0.9639
-4.2030 -7.7681 -2.5003 0.9639
-3.0551 -8.2883 -2.5007 0.9639
-2.7575 -8.3924 -2.5008 0.9639
-2.4562 -8.4858 -2.5009 0.9639
-2.1519 -8.5684 -2.5010 0.9639
-1.5353 -8.7007 -2.5012 0.9639
-1.2238 -8.7503 -2.5012 0.9639
-0.9107 -8.7887 -2.5013 0.9639
-0.2814 -8.8320 -2.5015 0.9639
0.3494 -8.8302 -2.5017 0.9639
0.6644 -8.8125 -2.5018 0.9639
0.9785 -8.7835 -2.5019 0.9639
2.5230 -8.4718 -2.5024 0.9639
2.8238 -8.3766 -2.5025 0.9639
3.1211 -8.2708 -2.5026 0.9639
3.4145 -8.1545 -2.5027 0.9639
4.8089 -7.4199 -2.5031 0.9639
5.8166 -6.6608 -2.5034 0.9639
6.2773 -6.2292 -2.5035 0.9639
6.4958 -6.0014 -2.5036 0.9639
6.9078 -5.5229 -2.5037 0.9639
7.1006 -5.2730 -2.5038 0.9639
7.4590 -4.7532 -2.5039 0.9639
7.6241 -4.4840 -2.5039 0.9639
7.7794 -4.2091 -2.5040 0.9639
8.0601 -3.6436 -2.5041 0.9639
8.1852 -3.3536 -2.5041 0.9639
8.2998 -3.0593 -2.5042 0.9639
8.4038 -2.7612 -2.5042 0.9639
8.4971 -2.4595 -2.5042 0.9639
3.9243 -0.5488 -1.1217 0.9837
3.9111 -0.4053 -1.1131 0.9838
3.8960 -0.2636 -1.1054 0.9839
3.8984 -0.1242 -1.1042 0.9839
3.9471 0.1562 -1.1183 0.9837
3.9695 0.2992 -1.1269 0.9836
8.5627 2.2206 -2.5042 0.9639
8.4779 2.5248 -2.5042 0.9639
8.0318 3.7054 -2.5041 0.9639
-6.9728 -4.1735 -2.4995 0.9666
-6.4871 -4.8952 -2.4996 0.9666
-5.9270 -5.5610 -2.4998 0.9666
-5.5155 -5.9700 -2.4999 0.9666
-5.0758 -6.3485 -2.5001 0.9666
-4.6103 -6.6949 -2.5002 0.9666
-3.6110 -7.2837 -2.5005 0.9665
-3.0824 -7.5233 -2.5007 0.9665
-2.8120 -7.6287 -2.5008 0.9665
-2.5380 -7.7245 -2.5008 0.9665
-1.9806 -7.8864 -2.5010 0.9665
-1.1264 -8.0538 -2.5013 0.9665
-0.8382 -8.0891 -2.5014 0.9665
-0.5490 -8.1142 -2.5015 0.9665
-0.2590 -8.1289 -2.5015 0.9665
0.0313 -8.1333 -2.5016 0.9665
0.3216 -8.1273 -2.5017 0.9665
0.6115 -8.1109 -2.5018 0.9665
0.9006 -8.0842 -2.5019 0.9665
1.7598 -7.9424 -2.5022 0.9665
2.0422 -7.8748 -2.5022 0.9665
2.5990 -7.7096 -2.5024 0.9665
3.1425 -7.5050 -2.5026 0.9665
3.6702 -7.2622 -2.5027 0.9665
4.1792 -6.9823 -2.5029 0.9665
4.6669 -6.6668 -2.5030 0.9665
4.9020 -6.4961 -2.5031 0.9665
5.1309 -6.3172 -2.5032 0.9665
5.3533 -6.1302 -2.5033 0.9665
5.5688 -5.9354 -2.5033 0.9665
5.7772 -5.7330 -2.5034 0.9665
5.9783 -5.5233 -2.5034 0.9665
6.1718 -5.3065 -2.5035 0.9665
6.3574 -5.0829 -2.5036 0.9665
6.8648 -4.3745 -2.5037 0.9665
7.2934 -3.6158 -2.5038 0.9665
7.4179 -3.3532 -2.5039 0.9665
7.7342 -2.5412 -2.5040 0.9665
7.8959 -1.9830 -2.5040 0.9665
3.8198 -0.8156 -1.2014 0.9838
3.7703 -0.5273 -1.1709 0.9842
3.7473 -0.1194 -1.1532 0.9844
3.8099 0.2872 -1.1752 0.9841
3.8489 0.4288 -1.1912 0.9839
7.8804 2.0437 -2.5040 0.9665
7.7143 2.6006 -2.5040 0.9665
7.5090 3.1442 -2.5039 0.9665
7.2653 3.6717 -2.5038 0.9665
-6.4524 -3.8620 -2.4996 0.9688
-6.1607 -4.3126 -2.4997 0.9688
-5.6647 -4.9468 -2.4999 0.9688
-5.4847 -5.1459 -2.4999 0.9688
-5.2976 -5.3385 -2.5000 0.9688
-5.1038 -5.5243 -2.5001 0.9688
-4.9035 -5.7031 -2.5001 0.9688
-4.6969 -5.8746 -2.5002 0.9688
-4.4844 -6.0387 -2.5002 0.9688
-4.2661 -6.1951 -2.5003 0.9688
-3.8135 -6.4840 -2.5005 0.9688
-3.5797 -6.6162 -2.5005 0.9688
-3.3414 -6.7399 -2.5006 0.9688
-2.6020 -7.0591 -2.5008 0.9688
-1.5711 -7.3585 -2.5011 0.9688
-1.0422 -7.4523 -2.5013 0.9688
-0.2397 -7.5218 -2.5015 0.9688
0.5658 -7.5050 -2.5018 0.9688
0.8333 -7.4803 -2.5019 0.9688
1.3649 -7.4023 -2.5020 0.9688
2.1486 -7.2146 -2.5023 0.9688
2.9078 -6.9443 -2.5025 0.9688
3.1538 -6.8363 -2.5026 0.9688
3.6337 -6.5942 -2.5027 0.9688
3.8669 -6.4605 -2.5028 0.9688
4.3181 -6.1686 -2.5029 0.9688
5.7105 -4.9099 -2.5034 0.9688
6.2030 -4.2716 -2.5035 0.9688
6.4922 -3.8183 -2.5036 0.9688
6.7482 -3.3455 -2.5037 0.9687
7.0674 -2.6051 -2.5038 0.9687
7.2354 -2.0943 -2.5038 0.9687
7.3056 -1.8348 -2.5038 0.9687
3.6529 -0.7800 -1.2416 0.9844
3.6038 -0.2438 -1.2007 0.9849
3.6323 0.0140 -1.2074 0.9848
3.6622 0.2761 -1.2208 0.9846
3.6956 0.4117 -1.2360 0.9844
7.4518 1.1006 -2.5039 0.9687
7.4077 1.3659 -2.5039 0.9687
7.3542 1.6294 -2.5039 0.9687
7.2190 2.1499 -2.5038 0.9687
7.1377 2.4062 -2.5038 0.9687
6.9477 2.9092 -2.5037 0.9687
6.8393 3.1552 -2.5037 0.9687
6.7222 3.3973 -2.5037 0.9688
6.5966 3.6350 -2.5036 0.9688
-5.9980 -3.5900 -2.4998 0.9707
-5.7268 -4.0089 -2.4999 0.9707
-5.5802 -4.2108 -2.4999 0.9707
-5.2657 -4.5984 -2.5000 0.9707
-5.0984 -4.7835 -2.5001 0.9707
-4.1685 -5.6133 -2.5003 0.9707
-3.3276 -6.1501 -2.5006 0.9707
-2.4187 -6.5618 -2.5009 0.9707
-1.9446 -6.7180 -2.5010 0.9707
-1.7036 -6.7833 -2.5011 0.9707
-1.4604 -6.8400 -2.5012 0.9707
-1.2154 -6.8880 -2.5012 0.9707
-0.4722 -6.9791 -2.5015 0.9707
1.0223 -6.9212 -2.5019 0.9707
1.2687 -6.8805 -2.5020 0.9707
2.2353 -6.6307 -2.5023 0.9707
2.4706 -6.5469 -2.5024 0.9707
3.1565 -6.2458 -2.5026 0.9707
3.3775 -6.1294 -2.5027 0.9707
3.5943 -6.0050 -2.5027 0.9707
3.8064 -5.8731 -2.5028 0.9707
4.2159 -5.5869 -2.5029 0.9707
4.6039 -5.2721 -2.5030 0.9707
5.4674 -4.3713 -2.5033 0.9707
5.6201 -4.1735 -2.5033 0.9707
6.1572 -3.3314 -2.5035 0.9707
6.3794 -2.8838 -2.5036 0.9707
6.6513 -2.1854 -2.5036 0.9707
3.5098 -0.7494 -1.2834 0.9849
3.4897 -0.4880 -1.2601 0.9851
3.4853 -0.3612 -1.2530 0.9852
3.4760 -0.2352 -1.2459 0.9853
3.4812 -0.1109 -1.2455 0.9853
3.5239 0.2657 -1.2637 0.9851
6.7099 1.9983 -2.5037 0.9707
6.6342 2.2365 -2.5036 0.9707
6.3569 2.9327 -2.5035 0.9707
6.2481 3.1577 -2.5035 0.9707
6.1314 3.3786 -2.5035 0.9707
-5.5974 -3.3503 -2.4999 0.9724
-5.4744 -3.5480 -2.4999 0.9724
-5.2075 -3.9296 -2.5000 0.9724
-5.0640 -4.1130 -2.5001 0.9724
-4.9141 -4.2912 -2.5001 0.9724
-4.2537 -4.9473 -2.5003 0.9724
-3.8901 -5.2384 -2.5004 0.9724
-3.1053 -5.7392 -2.5007 0.9724
-2.8985 -5.8466 -2.5007 0.9724
-1.8146 -6.2691 -2.5011 0.9724
-1.5898 -6.3301 -2.5011 0.9724
-0.4406 -6.5127 -2.5015 0.9724
-0.2079 -6.5245 -2.5016 0.9724
0.2581 -6.5230 -2.5017 0.9724
0.7228 -6.4884 -2.5018 0.9724
0.9540 -6.4586 -2.5019 0.9724
1.4124 -6.3745 -2.5021 0.9724
1.6390 -6.3202 -2.5021 0.9724
2.0859 -6.1875 -2.5023 0.9724
2.3054 -6.1092 -2.5023 0.9724
2.9455 -5.8283 -2.5025 0.9724
3.1517 -5.7196 -2.5026 0.9724
3.5519 -5.4804 -2.5027 0.9724
4.2961 -4.9196 -2.5029 0.9724
4.4690 -4.7632 -2.5030 0.9724
4.6363 -4.6008 -2.5030 0.9724
5.2442 -3.8944 -2.5032 0.9724
5.7454 -3.1086 -2.5034 0.9724
5.8528 -2.9016 -2.5034 0.9724
6.0450 -2.4767 -2.5035 0.9724
6.1296 -2.2594 -2.5035 0.9724
6.2753 -1.8164 -2.5035 0.9724
3.3609 -0.5930 -1.3078 0.9855
3.3621 -0.4702 -1.3010 0.9856
3.3603 -0.3482 -1.2946 0.9856
3.3587 -0.1070 -1.2878 0.9857
3.3753 0.0130 -1.2935 0.9856
3.3859 0.1340 -1.2985 0.9856
3.4175 0.3807 -1.3177 0.9854
3.4532 0.5101 -1.3377 0.9852
6.3783 1.4132 -2.5036 0.9724
6.3237 1.6400 -2.5035 0.9724
6.1120 2.3065 -2.5035 0.9724
6.0258 2.5231 -2.5034 0.9724
5.9318 2.7366 -2.5034 0.9724
5.8303 2.9465 -2.5034 0.9724
-5.2413 -3.1371 -2.5000 0.9739
-5.1260 -3.3222 -2.5000 0.9739
-5.0043 -3.5031 -2.5001 0.9739
-4.7418 -3.8513 -2.5002 0.9739
-4.3031 -4.3364 -2.5003 0.9739
-3.4652 -5.0320 -2.5006 0.9739
-3.2834 -5.1526 -2.5006 0.9739
-3.0975 -5.2667 -2.5007 0.9739
-2.7140 -5.4745 -2.5008 0.9739
-2.5170 -5.5680 -2.5008 0.9739
-2.3167 -5.6544 -2.5009 0.9739
-2.1135 -5.7336 -2.5010 0.9739
-1.6991 -5.8701 -2.5011 0.9739
-1.4886 -5.9271 -2.5012 0.9739
-1.2761 -5.9766 -2.5012 0.9739
-1.0620 -6.0186 -2.5013 0.9739
-0.6299 -6.0793 -2.5014 0.9739
0.0235 -6.1123 -2.5016 0.9739
0.2417 -6.1077 -2.5017 0.9739
1.9530 -5.7934 -2.5022 0.9739
2.5613 -5.5519 -2.5024 0.9739
2.9510 -5.3553 -2.5025 0.9739
3.5068 -5.0095 -2.5027 0.9739
3.6834 -4.8812 -2.5027 0.9739
4.0224 -4.6062 -2.5028 0.9739
4.1843 -4.4598 -2.5029 0.9739
4.4920 -4.1501 -2.5030 0.9739
4.7768 -3.8192 -2.5031 0.9739
4.9102 -3.6463 -2.5031 0.9739
5.0372 -3.4688 -2.5032 0.9739
5.6599 -2.3189 -2.5033 0.9739
5.7391 -2.1155 -2.5034 0.9739
5.8110 -1.9093 -2.5034 0.9739
3.2328 -0.8119 -1.3642 0.9857
3.2294 -0.6895 -1.3515 0.9858
3.2419 -0.4534 -1.3398 0.9860
3.2427 -0.3360 -1.3343 0.9860
3.2441 -0.1034 -1.3284 0.9861
3.2576 0.0125 -1.3332 0.9860
3.2719 0.2467 -1.3429 0.9859
6.0154 1.1092 -2.5034 0.9739
5.9208 1.5355 -2.5034 0.9739
5.7226 2.1595 -2.5034 0.9739
5.6419 2.3624 -2.5033 0.9739
5.3568 2.9518 -2.5032 0.9739
-4.8140 -3.1200 -2.5001 0.9753
-4.1839 -3.9255 -2.5003 0.9753
-4.0412 -4.0724 -2.5004 0.9753
-3.8933 -4.2141 -2.5004 0.9753
-3.7405 -4.3505 -2.5005 0.9753
-3.4208 -4.6064 -2.5006 0.9753
-3.2542 -4.7257 -2.5006 0.9753
-3.0836 -4.8389 -2.5007 0.9753
-2.3637 -5.2290 -2.5009 0.9753
-1.9848 -5.3845 -2.5010 0.9753
-1.7914 -5.4521 -2.5011 0.9753
-1.5957 -5.5127 -2.5011 0.9753
-1.3979 -5.5662 -2.5012 0.9753
-1.1984 -5.6127 -2.5013 0.9753
-0.7950 -5.6842 -2.5014 0.9753
-0.5916 -5.7091 -2.5014 0.9753
-0.1828 -5.7370 -2.5016 0.9753
0.6356 -5.7052 -2.5018 0.9753
1.0410 -5.6456 -2.5019 0.9753
1.2419 -5.6050 -2.5020 0.9753
1.4412 -5.5573 -2.5021 0.9753
1.6387 -5.5024 -2.5021 0.9753
1.8341 -5.4405 -2.5022 0.9753
2.2176 -5.2961 -2.5023 0.9753
2.4053 -5.2137 -2.5024 0.9753
3.1231 -4.8187 -2.5026 0.9753
3.7773 -4.3256 -2.5028 0.9753
3.9294 -4.1880 -2.5028 0.9753
4.0764 -4.0452 -2.5029 0.9753
4.2183 -3.8972 -2.5029 0.9753
4.4857 -3.5865 -2.5030 0.9753
4.6109 -3.4241 -2.5030 0.9753
4.7303 -3.2574 -2.5031 0.9753
4.8436 -3.0865 -2.5031 0.9753
5.0516 -2.7332 -2.5032 0.9753
5.3150 -2.1776 -2.5032 0.9752
3.1103 -0.9003 -1.4112 0.9860
3.0646 -0.6543 -1.3657 0.9864
3.0751 -0.5426 -1.3609 0.9865
3.0819 -0.4310 -1.3562 0.9865
3.0889 -0.2090 -1.3493 0.9866
3.0950 -0.0986 -1.3495 0.9866
3.1019 0.0119 -1.3519 0.9866
3.1139 0.3469 -1.3655 0.9864
3.1295 0.4622 -1.3787 0.9863
3.1914 0.5885 -1.4143 0.9859
5.5600 1.4419 -2.5033 0.9752
5.5050 1.6394 -2.5033 0.9752
5.1262 2.5907 -2.5032 0.9752
5.0304 2.7720 -2.5031 0.9753
-4.6346 -2.7740 -2.5002 0.9765
-4.4250 -3.0976 -2.5003 0.9765
-4.3117 -3.2536 -2.5003 0.9765
-4.1929 -3.4055 -2.5003 0.9765
-3.9394 -3.6961 -2.5004 0.9765
-3.8050 -3.8344 -2.5005 0.9765
-3.6658 -3.9678 -2.5005 0.9765
-3.5219 -4.0962 -2.5005 0.9765
-3.3735 -4.2194 -2.5006 0.9765
-3.2208 -4.3372 -2.5006 0.9765
-2.9033 -4.5561 -2.5007 0.9765
-2.7389 -4.6569 -2.5008 0.9765
-2.5710 -4.7518 -2.5008 0.9765
-2.2256 -4.9233 -2.5009 0.9765
-1.8687 -5.0697 -2.5010 0.9765
-1.3162 -5.2408 -2.5012 0.9765
-1.1283 -5.2846 -2.5013 0.9765
-0.7485 -5.3518 -2.5014 0.9765
-0.3648 -5.3918 -2.5015 0.9765
0.0208 -5.4044 -2.5016 0.9765
0.5984 -5.3716 -2.5018 0.9765
0.9801 -5.3154 -2.5019 0.9765
1.1693 -5.2772 -2.5020 0.9765
1.3569 -5.2322 -2.5020 0.9765
1.5428 -5.1806 -2.5021 0.9765
1.7268 -5.1223 -2.5021 0.9765
2.0879 -4.9863 -2.5023 0.9765
2.4384 -4.8248 -2.5024 0.9765
2.7765 -4.6388 -2.5025 0.9765
2.9404 -4.5368 -2.5025 0.9765
3.1005 -4.4291 -2.5026 0.9765
3.2566 -4.3157 -2.5026 0.9765
3.8380 -3.8086 -2.5028 0.9764
4.7560 -2.5733 -2.5031 0.9764
5.0040 -2.0502 -2.5031 0.9764
5.0740 -1.8703 -2.5032 0.9764
5.1376 -1.6880 -2.5032 0.9764
2.9172 -0.6229 -1.3808 0.9869
2.9275 -0.5166 -1.3760 0.9870
2.9324 -0.4101 -1.3706 0.9870
2.9453 -0.0939 -1.3640 0.9871
2.9530 0.0113 -1.3669 0.9871
2.9589 0.1171 -1.3707 0.9870
2.9733 0.4392 -1.3912 0.9868
5.1828 1.5435 -2.5032 0.9764
5.1244 1.7275 -2.5032 0.9764
4.9103 2.2653 -2.5031 0.9764
4.8262 2.4391 -2.5031 0.9764
-3.8396 -3.3529 -2.5004 0.9775
-3.7175 -3.4879 -2.5005 0.9775
-3.5907 -3.6184 -2.5005 0.9775
-3.3235 -3.8655 -2.5006 0.9775
-3.1835 -3.9817 -2.5006 0.9775
-2.8914 -4.1988 -2.5007 0.9775
-2.5846 -4.3946 -2.5008 0.9775
-1.9331 -4.7180 -2.5010 0.9775
-1.0648 -4.9868 -2.5013 0.9775
-0.8861 -5.0218 -2.5013 0.9775
-0.7063 -5.0503 -2.5014 0.9775
-0.5256 -5.0724 -2.5015 0.9775
-0.3443 -5.0880 -2.5015 0.9775
-0.1624 -5.0972 -2.5016 0.9775
0.0196 -5.0999 -2.5016 0.9775
0.2016 -5.0960 -2.5017 0.9775
0.3834 -5.0857 -2.5017 0.9775
0.7453 -5.0456 -2.5018 0.9775
1.2804 -4.9374 -2.5020 0.9775
1.4559 -4.8886 -2.5021 0.9775
2.6200 -4.3773 -2.5024 0.9775
3.6216 -3.5939 -2.5027 0.9775
3.7476 -3.4624 -2.5028 0.9775
3.8689 -3.3265 -2.5028 0.9775
4.2025 -2.8939 -2.5029 0.9775
4.4879 -2.4282 -2.5030 0.9775
4.5717 -2.2665 -2.5030 0.9775
4.6498 -2.1019 -2.5030 0.9775
4.7219 -1.9346 -2.5031 0.9775
2.7777 -0.8040 -1.4184 0.9872
2.7941 -0.3908 -1.3839 0.9875
2.7986 -0.2900 -1.3801 0.9875
2.7986 -0.1894 -1.3759 0.9876
2.8060 -0.0894 -1.3771 0.9876
2.8240 0.2129 -1.3892 0.9875
2.8242 0.3146 -1.3939 0.9874
2.8304 0.4181 -1.4034 0.9873
2.8583 0.5271 -1.4257 0.9871
2.9012 0.6428 -1.4576 0.9868
4.9396 1.2810 -2.5031 0.9775
4.8355 1.6301 -2.5031 0.9775
4.7742 1.8016 -2.5031 0.9775
4.6334 2.1376 -2.5030 0.9775
-3.9485 -2.7640 -2.5004 0.9785
-3.8473 -2.9033 -2.5004 0.9785
-3.6305 -3.1704 -2.5005 0.9785
-3.5151 -3.2980 -2.5005 0.9785
-3.2710 -3.5405 -2.5006 0.9785
-3.1426 -3.6550 -2.5007 0.9785
-3.0102 -3.7649 -2.5007 0.9785
-2.7340 -3.9702 -2.5008 0.9785
-2.4439 -4.1553 -2.5009 0.9785
-2.2941 -4.2399 -2.5009 0.9785
-2.1413 -4.3192 -2.5010 0.9785
-1.9858 -4.3930 -2.5010 0.9785
-1.8278 -4.4611 -2.5011 0.9785
-1.6674 -4.5236 -2.5011 0.9785
-1.3405 -4.6312 -2.5012 0.9785
-1.1744 -4.6762 -2.5013 0.9785
-1.0068 -4.7152 -2.5013 0.9785
-0.6679 -4.7753 -2.5014 0.9785
0.0185 -4.8221 -2.5016 0.9785
0.3625 -4.8087 -2.5017 0.9785
0.8745 -4.7427 -2.5019 0.9785
1.3766 -4.6223 -2.5020 0.9785
1.5407 -4.5703 -2.5021 0.9785
1.7029 -4.5125 -2.5021 0.9785
1.8629 -4.4489 -2.5022 0.9785
2.0205 -4.3797 -2.5022 0.9785
2.1756 -4.3049 -2.5023 0.9785
2.3279 -4.2246 -2.5023 0.9785
2.4773 -4.1388 -2.5024 0.9785
2.6235 -4.0479 -2.5024 0.9785
2.9056 -3.8505 -2.5025 0.9785
3.0413 -3.7444 -2.5025 0.9785
3.1730 -3.6335 -2.5026 0.9785
3.3008 -3.5180 -2.5026 0.9785
3.4243 -3.3980 -2.5027 0.9785
3.5434 -3.2737 -2.5027 0.9785
3.7680 -3.0127 -2.5028 0.9785
3.8732 -2.8763 -2.5028 0.9785
4.1586 -2.4459 -2.5029 0.9785
4.3226 -2.1430 -2.5029 0.9785
4.3964 -1.9874 -2.5030 0.9785
4.4645 -1.8292 -2.5030 0.9785
4.5270 -1.6687 -2.5030 0.9785
2.7961 -0.9187 -1.5268 0.9868
2.7503 -0.7961 -1.4854 0.9872
2.6803 -0.4729 -1.4120 0.9878
2.6677 -0.3731 -1.3974 0.9879
2.6687 -0.2765 -1.3919 0.9880
2.7046 0.2039 -1.4071 0.9879
2.7529 0.4066 -1.4436 0.9875
4.5720 1.5413 -2.5030 0.9785
4.3809 2.0211 -2.5029 0.9785
4.2255 2.3284 -2.5029 0.9785
-3.9172 -2.3446 -2.5004 0.9794
-3.8311 -2.4830 -2.5004 0.9794
-3.7401 -2.6181 -2.5005 0.9794
-3.5438 -2.8783 -2.5005 0.9794
-3.2160 -3.2408 -2.5006 0.9794
-3.0983 -3.3536 -2.5007 0.9794
-2.9767 -3.4621 -2.5007 0.9794
-2.8512 -3.5662 -2.5007 0.9794
-2.5897 -3.7606 -2.5008 0.9794
-2.3149 -3.9359 -2.5009 0.9794
-2.0282 -4.0912 -2.5010 0.9794
-1.7313 -4.2256 -2.5011 0.9794
-1.5794 -4.2848 -2.5011 0.9794
-1.4255 -4.3385 -2.5012 0.9794
-1.2697 -4.3867 -2.5012 0.9794
-0.6326 -4.5231 -2.5014 0.9794
-0.4707 -4.5429 -2.5015 0.9794
-0.3083 -4.5569 -2.5015 0.9794
0.0176 -4.5674 -2.5016 0.9794
0.1806 -4.5640 -2.5017 0.9794
0.3434 -4.5547 -2.5017 0.9794
0.5057 -4.5397 -2.5018 0.9794
0.8283 -4.4922 -2.5019 0.9794
1.1467 -4.4218 -2.5020 0.9794
1.3038 -4.3782 -2.5020 0.9794
1.4593 -4.3289 -2.5021 0.9794
1.6129 -4.2742 -2.5021 0.9794
1.9138 -4.1483 -2.5022 0.9794
2.2050 -4.0014 -2.5023 0.9794
2.3464 -3.9202 -2.5023 0.9794
2.7521 -3.6471 -2.5025 0.9794
2.8806 -3.5466 -2.5025 0.9794
3.1264 -3.3322 -2.5026 0.9794
3.2434 -3.2185 -2.5026 0.9794
3.3562 -3.1007 -2.5026 0.9794
3.4648 -2.9790 -2.5027 0.9794
3.7635 -2.5917 -2.5028 0.9794
3.8537 -2.4557 -2.5028 0.9794
3.9389 -2.3166 -2.5028 0.9794
4.0191 -2.1746 -2.5028 0.9794
4.0942 -2.0298 -2.5029 0.9794
4.2287 -1.7325 -2.5029 0.9794
4.2878 -1.5805 -2.5029 0.9794
2.8031 -0.9210 -1.6160 0.9866
2.7474 -0.7952 -1.5665 0.9870
2.6741 -0.4719 -1.4872 0.9877
2.6539 -0.2750 -1.4613 0.9879
2.6680 0.0102 -1.4613 0.9879
2.6984 0.2034 -1.4821 0.9877
2.7991 0.5161 -1.5589 0.9871
4.3304 1.4598 -2.5029 0.9794
4.0785 2.0612 -2.5029 0.9794
4.0023 2.2054 -2.5028 0.9794
-3.7162 -2.2243 -2.5005 0.9802
-3.6344 -2.3555 -2.5005 0.9802
-3.4572 -2.6088 -2.5006 0.9802
-3.2624 -2.8489 -2.5006 0.9802
-3.0509 -3.0745 -2.5007 0.9802
-2.8239 -3.2844 -2.5008 0.9802
-2.7049 -3.3831 -2.5008 0.9802
-2.5825 -3.4776 -2.5008 0.9802
-2.0614 -3.8099 -2.5010 0.9802
-1.3523 -4.1157 -2.5012 0.9802
-1.0553 -4.2019 -2.5013 0.9802
-0.4466 -4.3096 -2.5015 0.9802
0.1713 -4.3296 -2.5017 0.9802
0.4798 -4.3065 -2.5018 0.9802
0.6332 -4.2868 -2.5018 0.9802
0.7858 -4.2615 -2.5019 0.9802
1.2369 -4.1533 -2.5020 0.9802
1.5301 -4.0546 -2.5021 0.9802
1.8155 -3.9353 -2.5022 0.9802
1.9548 -3.8680 -2.5022 0.9802
2.7326 -3.3644 -2.5024 0.9802
2.8510 -3.2648 -2.5025 0.9802
2.9658 -3.1610 -2.5025 0.9802
3.0768 -3.0532 -2.5026 0.9802
3.1838 -2.9414 -2.5026 0.9802
3.2868 -2.8260 -2.5026 0.9802
3.7365 -2.1976 -2.5028 0.9802
3.8839 -1.9255 -2.5028 0.9802
4.0114 -1.6435 -2.5028 0.9802
2.7444 -0.7944 -1.6495 0.9869
2.6838 -0.5730 -1.5844 0.9874
2.6527 -0.2749 -1.5397 0.9878
2.6402 -0.1786 -1.5278 0.9879
2.6496 -0.0844 -1.5305 0.9878
2.6747 0.1058 -1.5454 0.9877
2.6921 0.2029 -1.5587 0.9876
2.7421 0.4050 -1.6003 0.9873
4.1963 1.0883 -2.5029 0.9802
4.1548 1.2373 -2.5029 0.9802
4.1079 1.3848 -2.5029 0.9802
4.0559 1.5306 -2.5028 0.9802
3.9986 1.6743 -2.5028 0.9802
3.8689 1.9553 -2.5028 0.9802
