ply
format ascii 1.0
element vertex 1235
property float32 x
property float32 y
property float32 z
property float32 I
end_header
0.3114 9.7733 1.7242 0.9611
-18.7057 44.6729 8.5397 0.8214
-18.8122 37.2235 7.3541 0.8442
-18.8710 34.2459 6.8946 0.8532
-19.2411 25.4980 5.6324 0.8783
-20.2501 23.1891 5.4285 0.8825
-21.5942 23.0157 5.5649 0.8797
-23.3234 23.1447 5.7938 0.8751
-25.4170 23.4822 6.1016 0.8689
-29.3970 23.5037 6.6366 0.8582
-31.5474 23.4273 6.9287 0.8525
-17.1586 7.7565 3.3203 0.9264
23.3351 27.1404 5.4833 0.8652
0.6578 9.7224 1.4928 0.9613
-7.0631 31.8777 5.0019 0.8762
-18.7083 44.6792 7.4204 0.8220
-18.8416 40.8410 6.8903 0.8336
-18.8731 34.2497 5.9908 0.8536
-19.3243 29.8164 5.4431 0.8661
-19.4639 25.7933 4.9502 0.8774
-20.2501 23.1890 4.7163 0.8829
-21.8071 23.2425 4.8825 0.8790
-25.2872 23.3623 5.2741 0.8700
-26.8824 23.1134 5.4311 0.8664
-29.0948 23.2620 5.7066 0.8601
-31.5496 23.4290 6.0202 0.8530
-34.3800 23.6750 6.3948 0.8446
-40.9679 24.0948 7.2811 0.8250
-17.0916 9.2475 2.9770 0.9244
-17.0869 8.4711 2.9215 0.9257
0.6568 9.7072 1.2670 0.9615
0.3105 9.7454 1.2697 0.9614
-7.0521 31.8281 4.2452 0.8768
-18.7045 40.5438 5.8144 0.8352
-18.8674 34.2393 5.0908 0.8541
-19.4657 25.7957 4.2082 0.8778
-19.5264 24.0410 4.0332 0.8826
-26.9697 23.1884 4.6317 0.8663
-29.3969 23.5036 4.9012 0.8591
-31.5518 23.4306 5.1177 0.8534
-17.0865 8.4709 2.4836 0.9260
-17.1088 7.7339 2.4450 0.9271
0.6557 9.6921 1.0431 0.9617
0.3101 9.7316 1.0455 0.9616
-7.0412 31.7790 3.4952 0.8773
-18.7135 44.6915 5.2028 0.8229
-18.8124 37.2240 4.4786 0.8455
-19.4011 27.7148 3.6328 0.8728
-13.2981 15.2281 2.1710 0.9219
-27.0060 23.2196 3.8245 0.8665
-29.3968 23.5035 4.0416 0.8595
-34.3798 23.6749 4.4824 0.8454
-37.1225 7.9261 4.0761 0.8584
6.4392 15.7163 1.4378 0.9341
-2.6299 14.2625 1.2277 0.9434
-18.8321 40.8203 3.8056 0.8349
-18.8125 37.2242 3.5307 0.8458
-19.4136 29.9542 3.0217 0.8665
-19.4692 25.8004 2.7361 0.8783
-19.5125 24.0239 2.6200 0.8832
-20.2349 23.1716 2.6042 0.8838
-23.6815 23.5001 2.8242 0.8747
-25.5281 23.5849 2.9421 0.8698
-34.3797 23.6748 3.5336 0.8457
-40.8216 24.0088 4.0090 0.8269
-17.0857 8.4705 1.6145 0.9263
-43.8604 11.0152 3.8282 0.8340
-37.1297 7.9277 3.2140 0.8586
15.6064 21.0157 1.6232 0.9004
6.4490 15.7402 1.0548 0.9341
0.6537 9.6624 0.6005 0.9619
-18.8513 40.8619 2.7905 0.8350
-18.8126 37.2243 2.5863 0.8461
-18.9716 34.4284 2.4376 0.8542
-19.0151 31.7691 2.2959 0.8621
-19.1125 29.4896 2.1791 0.8686
-19.1235 27.3182 2.0678 0.8749
-19.2847 25.5559 1.9853 0.8796
-20.2499 23.1888 1.9091 0.8839
-21.8069 23.2424 1.9763 0.8801
-25.0270 23.1219 2.1129 0.8724
-26.8926 23.1220 2.1993 0.8675
-29.2005 23.3466 2.3183 0.8609
-34.3796 23.6748 2.5885 0.8460
-41.0023 24.1151 2.9497 0.8264
-17.0853 8.4703 1.1826 0.9264
-37.1142 7.9243 2.3533 0.8589
0.6527 9.6477 0.3813 0.9620
-19.0653 34.5985 1.5577 0.8537
-19.3340 29.8314 1.4017 0.8674
-19.4067 27.7227 1.3344 0.8733
-21.8069 23.2423 1.2567 0.8802
-25.2875 23.3626 1.3575 0.8713
-29.3119 23.4356 1.4798 0.8605
-31.7535 23.5804 1.5596 0.8536
-34.3056 23.6238 1.6424 0.8464
-17.0839 8.4696 0.7519 0.9265
-43.6236 10.9557 1.7735 0.8352
10.9401 7.0904 0.2202 0.9492
32.7144 22.9010 0.6746 0.8524
32.6621 24.6471 0.6912 0.8490
20.0062 23.2686 0.5184 0.8845
19.4308 24.3029 0.5256 0.8830
-6.9984 31.5860 0.5465 0.8786
-19.1369 37.8661 0.7167 0.8439
-19.4533 30.0155 0.6042 0.8667
-19.5334 27.9038 0.5754 0.8726
-21.9339 23.3777 0.5415 0.8796
-23.7732 23.5911 0.5657 0.8746
-29.3118 23.4355 0.6339 0.8606
-32.0416 23.7943 0.6741 0.8524
-34.3079 23.6254 0.7036 0.8465
-17.0825 8.4689 0.3221 0.9266
-43.6150 10.9536 0.7596 0.8354
-46.3526 9.8968 0.8006 0.8273
13.4423 8.0458 -0.0882 0.9393
12.6286 8.1847 -0.0847 0.9416
11.8313 8.2822 -0.0813 0.9439
22.5236 24.3794 -0.1869 0.8757
0.6507 9.6184 -0.0543 0.9622
0.3079 9.6638 -0.0544 0.9621
-6.9879 31.5383 -0.1819 0.8788
-18.9077 40.9842 -0.2541 0.8348
-19.4533 30.0155 -0.2014 0.8667
-19.5353 27.9064 -0.1918 0.8726
-19.8544 24.4448 -0.1773 0.8816
-20.5479 23.5301 -0.1759 0.8825
-23.7732 23.5910 -0.1886 0.8746
-25.5680 23.6217 -0.1960 0.8700
-29.3137 23.4371 -0.2113 0.8606
-32.0415 23.7943 -0.2246 0.8524
-34.3102 23.6270 -0.2345 0.8465
-17.0810 8.4681 -0.1073 0.9266
-28.3885 -11.8870 -0.1733 0.8842
-25.0940 -11.5769 -0.1556 0.8953
-26.2014 -14.4381 -0.1684 0.8872
13.4414 8.0452 -0.4411 0.9392
12.6285 8.1847 -0.4237 0.9416
11.1219 7.7857 -0.3823 0.9471
11.1543 8.4171 -0.3935 0.9456
21.4748 24.9767 -0.9275 0.8765
15.6018 21.0095 -0.7368 0.9006
15.2369 37.1892 -1.1317 0.8514
-18.8608 40.8826 -1.2678 0.8351
-19.5371 27.9091 -0.9593 0.8726
-19.6641 24.2105 -0.8782 0.8827
-20.3677 23.3238 -0.8719 0.8835
-21.9338 23.3776 -0.9026 0.8796
-25.5343 23.5905 -0.9789 0.8701
-29.3158 23.4388 -1.0569 0.8605
-32.0414 23.7942 -1.1239 0.8524
-34.3125 23.6286 -1.1731 0.8464
-38.0552 24.2504 -1.2706 0.8348
-40.9793 24.1015 -1.3387 0.8268
-17.0795 8.4674 -0.5368 0.9266
-47.1302 10.0629 -1.3570 0.8246
-28.4385 -11.9079 -0.8681 0.8839
-27.9206 -14.1106 -0.8809 0.8823
12.6284 8.1846 -0.7632 0.9415
11.1211 7.7851 -0.6885 0.9471
11.1534 8.4165 -0.7086 0.9456
25.6221 22.3748 -1.7251 0.8726
24.0877 22.6001 -1.6751 0.8761
22.3685 22.5413 -1.6105 0.8806
16.6578 18.0303 -1.2449 0.9064
16.5072 19.1991 -1.2841 0.9036
18.1605 30.8779 -1.8167 0.8663
20.0497 37.0564 -2.1367 0.8447
15.2329 37.1793 -2.0376 0.8514
13.7404 37.2767 -2.0148 0.8529
12.2648 37.3282 -1.9926 0.8544
8.8811 30.6822 -1.6199 0.8799
7.7162 30.7243 -1.6065 0.8808
8.0018 37.4771 -1.9435 0.8577
0.6488 9.5893 -0.4874 0.9622
-1.2279 31.0336 -1.5751 0.8830
-4.2226 37.9039 -1.9342 0.8583
-7.0072 38.0011 -1.9597 0.8566
-6.9668 31.4433 -1.6333 0.8790
-17.1090 45.3378 -2.4575 0.8236
-19.1764 32.0387 -1.8936 0.8611
-19.3282 27.6106 -1.7092 0.8737
-19.3937 25.7003 -1.6328 0.8790
-20.1687 23.0958 -1.5550 0.8844
-27.2499 23.4293 -1.8225 0.8659
-34.3148 23.6302 -2.1130 0.8463
-35.3896 22.5517 -2.1282 0.8453
-38.5278 22.6597 -2.2668 0.8361
-39.7086 21.4847 -2.2897 0.8346
-17.0780 8.4667 -0.9667 0.9265
-41.1965 16.8788 -2.2578 0.8367
-41.5803 15.3268 -2.2474 0.8374
-42.0160 13.8050 -2.2429 0.8377
-42.4613 12.2906 -2.2418 0.8377
-43.1952 9.2227 -2.2400 0.8379
-46.3007 8.1698 -2.3844 0.8284
-46.7447 4.8438 -2.3833 0.8284
-46.9616 1.4964 -2.3828 0.8285
-46.8595 -3.5326 -2.3832 0.8284
-46.2452 -8.5273 -2.3848 0.8283
-45.9274 -10.1761 -2.3857 0.8283
-45.5535 -11.8136 -2.3866 0.8282
-32.3266 -10.8976 -1.7301 0.8723
-27.8441 -14.0719 -1.5822 0.8825
-25.5632 -14.0864 -1.4802 0.8897
11.1202 7.7845 -0.9953 0.9470
16.0678 14.0314 -1.5641 0.9180
16.3570 17.7047 -1.7674 0.9079
14.8018 17.2155 -1.6647 0.9130
16.2939 20.3794 -1.9131 0.9006
15.5995 21.0064 -1.9183 0.9004
19.2706 27.9841 -2.4913 0.8726
18.2629 28.6593 -2.4918 0.8726
17.2291 29.2943 -2.4919 0.8726
13.3555 29.5446 -2.3773 0.8781
12.1199 29.5812 -2.3439 0.8797
11.7607 31.9058 -2.4933 0.8725
10.6106 32.2939 -2.4924 0.8726
8.2701 32.9299 -2.4895 0.8727
7.0846 33.1814 -2.4878 0.8728
3.4872 33.6532 -2.4807 0.8731
-3.7134 33.3324 -2.4591 0.8741
-5.9505 32.2708 -2.4061 0.8767
-7.9115 30.5068 -2.3108 0.8813
-10.5805 31.3858 -2.4285 0.8756
-16.7473 27.9802 -2.3910 0.8774
-17.6848 27.2868 -2.3842 0.8777
-19.4553 23.9535 -2.2627 0.8836
-20.1686 23.0958 -2.2482 0.8843
-21.7194 23.1491 -2.3275 0.8805
-22.6679 22.4942 -2.3415 0.8798
-24.0627 20.6889 -2.3268 0.8805
-25.8858 17.8257 -2.3045 0.8816
-26.4197 16.8358 -2.2970 0.8819
-26.9161 15.8304 -2.2896 0.8823
-28.3040 12.7947 -2.2775 0.8829
-29.7887 8.6225 -2.2738 0.8830
-32.2747 6.8911 -2.4198 0.8760
-32.4930 5.7334 -2.4193 0.8760
-32.6712 4.5692 -2.4188 0.8761
-32.9633 1.0504 -2.4182 0.8761
-32.9794 -0.1268 -2.4181 0.8761
-32.8901 -2.4795 -2.4184 0.8761
-32.6385 -4.8209 -2.4191 0.8761
-32.4523 -5.9840 -2.4196 0.8760
-32.2259 -7.1402 -2.4202 0.8760
-31.9597 -8.2882 -2.4209 0.8760
-29.0431 -10.9599 -2.2761 0.8829
-24.9162 -13.7299 -2.0859 0.8922
13.4385 8.0435 -1.5036 0.9390
11.1194 7.7839 -1.3031 0.9469
11.1516 8.4151 -1.3412 0.9454
16.0230 13.0141 -1.9818 0.9204
16.0416 14.0086 -2.0446 0.9180
15.7933 14.8178 -2.0791 0.9167
16.4441 17.7990 -2.3264 0.9072
14.7874 17.1988 -2.1776 0.9129
15.8240 19.7917 -2.4328 0.9032
15.1164 20.3558 -2.4342 0.9031
13.6317 21.3918 -2.4353 0.9031
12.8608 21.8670 -2.4355 0.9031
12.0750 22.3174 -2.4361 0.9031
10.4523 23.1223 -2.4361 0.9031
9.6182 23.4754 -2.4356 0.9031
8.7718 23.7971 -2.4349 0.9031
7.9145 24.0879 -2.4342 0.9031
6.1713 24.5730 -2.4324 0.9032
5.2872 24.7629 -2.4309 0.9033
2.6043 25.1329 -2.4258 0.9034
0.6468 9.5602 -0.9199 0.9622
0.3062 9.6103 -0.9231 0.9621
-0.0969 25.1954 -2.4189 0.9037
-1.8896 25.0650 -2.4132 0.9039
-6.2647 24.1567 -2.3959 0.9046
-7.1109 23.8775 -2.3918 0.9047
-8.7651 23.2271 -2.3834 0.9051
-10.3605 22.4574 -2.3744 0.9054
-11.8882 21.5739 -2.3648 0.9058
-12.6244 21.0919 -2.3599 0.9059
-18.2597 15.6995 -2.3119 0.9078
-19.2392 14.2871 -2.3006 0.9082
-19.7239 13.5824 -2.2991 0.9083
-20.1860 12.8633 -2.2980 0.9083
-19.3809 10.4862 -2.1156 0.9153
-16.9666 8.4114 -1.8181 0.9267
-20.4489 9.2438 -2.1545 0.9138
-22.1032 9.0560 -2.2932 0.9085
-24.1140 7.9230 -2.4368 0.9030
-25.3871 -0.0976 -2.4373 0.9030
-25.3681 -1.0037 -2.4374 0.9030
-24.8022 -5.4954 -2.4389 0.9030
-24.5957 -6.3785 -2.4394 0.9029
-24.3585 -7.2542 -2.4400 0.9029
-24.0909 -8.1213 -2.4407 0.9029
-23.7931 -8.9788 -2.4415 0.9029
-20.9505 -11.5447 -2.2965 0.9084
13.1591 7.8763 -1.8217 0.9401
11.1185 7.7833 -1.6122 0.9468
11.1507 8.4144 -1.6594 0.9453
15.6211 12.6877 -2.3905 0.9221
15.1684 13.2460 -2.3921 0.9221
14.6962 13.7886 -2.3938 0.9220
14.2029 14.3126 -2.3952 0.9220
13.6898 14.8178 -2.3964 0.9220
13.1580 15.3037 -2.3974 0.9219
11.4594 16.6409 -2.4000 0.9218
10.2462 17.4215 -2.4008 0.9218
9.6184 17.7771 -2.4009 0.9218
8.9777 18.1089 -2.4009 0.9218
8.3251 18.4166 -2.4008 0.9218
7.6615 18.6996 -2.4005 0.9218
6.9883 18.9588 -2.4002 0.9218
6.3059 19.1924 -2.3997 0.9218
0.3058 9.5969 -1.1406 0.9621
-0.0773 20.0995 -2.3876 0.9222
-0.7939 20.0660 -2.3854 0.9223
-1.5082 20.0053 -2.3831 0.9224
-2.2190 19.9183 -2.3806 0.9224
-3.6262 19.6653 -2.3753 0.9226
-5.6858 19.0922 -2.3663 0.9229
-7.6609 18.2957 -2.3561 0.9232
-10.1216 16.9105 -2.3410 0.9237
-10.7002 16.5099 -2.3370 0.9238
-11.2630 16.0894 -2.3329 0.9239
-12.3377 15.1903 -2.3246 0.9242
-12.8483 14.7131 -2.3203 0.9243
-13.3403 14.2185 -2.3160 0.9245
-15.1928 12.1471 -2.3106 0.9246
-15.6096 11.5918 -2.3096 0.9247
-16.0066 11.0226 -2.3086 0.9247
-16.3831 10.4400 -2.3076 0.9247
-17.0734 9.2377 -2.3059 0.9248
-17.7882 8.0411 -2.3189 0.9244
-19.3710 7.1403 -2.4523 0.9202
-19.6089 6.4428 -2.4518 0.9202
-19.8221 5.7376 -2.4512 0.9202
-20.0104 5.0255 -2.4508 0.9203
-20.1738 4.3073 -2.4504 0.9203
-20.6196 -0.0793 -2.4493 0.9203
-20.4959 -2.2833 -2.4497 0.9203
-20.4034 -3.0137 -2.4499 0.9203
-20.2854 -3.7405 -2.4502 0.9203
-19.9735 -5.1798 -2.4511 0.9202
-19.7800 -5.8906 -2.4516 0.9202
-19.5616 -6.5944 -2.4521 0.9202
13.4365 8.0423 -2.2188 0.9387
14.1232 9.1534 -2.3846 0.9343
11.3875 12.3257 -2.3777 0.9345
10.4684 13.0933 -2.3752 0.9345
9.9973 13.4625 -2.3759 0.9345
7.9847 14.7576 -2.3774 0.9345
6.9115 15.2894 -2.3774 0.9345
5.8021 15.7406 -2.3770 0.9345
5.2355 15.9344 -2.3765 0.9345
2.3190 16.5818 -2.3723 0.9346
0.3053 9.5835 -1.3586 0.9620
-0.0643 16.7031 -2.3667 0.9347
-0.6599 16.6779 -2.3649 0.9348
-1.2537 16.6303 -2.3630 0.9348
-2.4326 16.4696 -2.3589 0.9350
-3.0161 16.3566 -2.3566 0.9350
-3.5944 16.2222 -2.3543 0.9351
-4.1667 16.0667 -2.3518 0.9351
-6.3808 15.2386 -2.3408 0.9354
-7.4323 14.7062 -2.3347 0.9356
-7.9417 14.4120 -2.3315 0.9357
-8.4393 14.0998 -2.3283 0.9358
-9.4109 13.4437 -2.3252 0.9359
-10.3357 12.7254 -2.3228 0.9359
-10.7782 12.3424 -2.3217 0.9359
-11.2066 11.9444 -2.3207 0.9360
-11.6206 11.5316 -2.3196 0.9360
-12.4032 10.6642 -2.3177 0.9361
-12.7709 10.2107 -2.3167 0.9361
-13.4568 9.2667 -2.3150 0.9361
-13.7743 8.7775 -2.3142 0.9361
-14.0742 8.2776 -2.3135 0.9362
-15.8289 7.1554 -2.4613 0.9322
-16.4921 5.4187 -2.4596 0.9323
-16.8309 4.2270 -2.4588 0.9323
-17.2540 1.7879 -2.4578 0.9323
-17.2969 -1.3040 -2.4577 0.9323
-17.2404 -1.9206 -2.4579 0.9323
-17.1624 -2.5350 -2.4581 0.9323
-17.0628 -3.1463 -2.4584 0.9323
-16.9418 -3.7538 -2.4587 0.9323
-16.7995 -4.3567 -2.4591 0.9323
-16.0216 -6.7086 -2.4611 0.9322
-15.7760 -7.2781 -2.4617 0.9322
-15.5104 -7.8387 -2.4624 0.9322
12.3979 7.4206 -2.3803 0.9431
12.1215 7.8561 -2.3796 0.9431
11.2012 9.0978 -2.3773 0.9432
10.8655 9.4884 -2.3764 0.9432
10.1532 10.2316 -2.3746 0.9432
9.7776 10.5832 -2.3736 0.9433
9.3897 10.9209 -2.3727 0.9433
8.9901 11.2442 -2.3716 0.9433
8.5792 11.5529 -2.3706 0.9433
7.7261 12.1244 -2.3684 0.9434
7.2850 12.3866 -2.3673 0.9434
5.4373 13.2710 -2.3626 0.9435
4.4721 13.6110 -2.3602 0.9436
3.9823 13.7580 -2.3595 0.9436
3.4878 13.8878 -2.3589 0.9436
2.9890 13.9994 -2.3582 0.9436
2.4866 14.0924 -2.3574 0.9436
1.9813 14.1667 -2.3565 0.9437
1.4737 14.2221 -2.3555 0.9437
0.3049 9.5700 -1.5774 0.9619
-1.0718 14.2165 -2.3487 0.9438
-1.5774 14.1589 -2.3470 0.9439
-2.0801 14.0827 -2.3451 0.9439
-2.5793 13.9881 -2.3432 0.9440
-4.0519 13.6058 -2.3387 0.9441
-4.5326 13.4455 -2.3375 0.9441
-5.0071 13.2684 -2.3363 0.9441
-6.3872 12.6383 -2.3328 0.9442
-8.5102 11.2776 -2.3275 0.9443
-10.3567 9.5684 -2.3229 0.9444
-10.6878 9.1893 -2.3220 0.9445
-11.0052 8.7990 -2.3212 0.9445
-12.3967 7.8996 -2.4216 0.9421
-12.9048 7.5898 -2.4664 0.9411
-13.1762 7.1291 -2.4680 0.9411
-14.2177 4.6714 -2.4654 0.9411
-14.5105 3.6442 -2.4647 0.9412
-14.6296 3.1236 -2.4644 0.9412
-14.7303 2.5992 -2.4641 0.9412
-14.8761 1.5415 -2.4638 0.9412
-14.9210 1.0095 -2.4637 0.9412
-14.9472 0.4763 -2.4636 0.9412
-14.9546 -0.0575 -2.4636 0.9412
-14.9132 -1.1243 -2.4638 0.9412
-14.8643 -1.6559 -2.4639 0.9412
-14.7968 -2.1856 -2.4641 0.9412
-14.7108 -2.7126 -2.4643 0.9412
-14.6062 -3.2363 -2.4646 0.9412
-14.3421 -4.2712 -2.4653 0.9411
-14.0058 -5.2853 -2.4661 0.9411
-13.8110 -5.7830 -2.4666 0.9411
-13.5988 -6.2737 -2.4672 0.9411
11.3048 6.7664 -2.4764 0.9478
10.3520 7.2467 -2.3752 0.9499
10.0839 7.6094 -2.3745 0.9499
9.5095 8.3043 -2.3730 0.9499
8.8869 8.9555 -2.3714 0.9499
7.8701 9.8435 -2.3688 0.9500
7.5108 10.1142 -2.3679 0.9500
7.1422 10.3717 -2.3670 0.9500
5.9852 11.0621 -2.3641 0.9501
5.1763 11.4509 -2.3620 0.9501
4.7622 11.6232 -2.3610 0.9502
3.9173 11.9225 -2.3588 0.9502
3.0540 12.1604 -2.3566 0.9503
2.6168 12.2559 -2.3555 0.9503
1.6380 9.2830 -1.7718 0.9624
1.7341 12.3995 -2.3533 0.9503
0.6428 9.5018 -1.7900 0.9620
-0.4938 12.4805 -2.3477 0.9504
-0.9385 12.4490 -2.3466 0.9505
-2.2607 12.2599 -2.3432 0.9505
-3.1266 12.0562 -2.3410 0.9506
-3.5533 11.9314 -2.3400 0.9506
-3.9751 11.7916 -2.3389 0.9506
-4.3915 11.6370 -2.3379 0.9506
-4.8019 11.4678 -2.3368 0.9507
-5.2059 11.2842 -2.3358 0.9507
-5.6029 11.0865 -2.3348 0.9507
-6.3743 10.6497 -2.3329 0.9507
-7.4673 9.8956 -2.3301 0.9508
-7.8128 9.6192 -2.3293 0.9508
-8.7871 8.7198 -2.3268 0.9509
-9.0898 8.3979 -2.3261 0.9509
-11.0967 7.0713 -2.4732 0.9479
-11.3392 6.6691 -2.4726 0.9479
-11.5674 6.2587 -2.4721 0.9479
-12.1629 4.9833 -2.4706 0.9479
-12.3309 4.5453 -2.4702 0.9479
-12.6201 3.6529 -2.4695 0.9479
-12.8456 2.7427 -2.4689 0.9479
-13.0625 1.3536 -2.4684 0.9480
-13.1215 -0.5192 -2.4683 0.9480
-13.0521 -1.4540 -2.4685 0.9480
-12.9927 -1.9191 -2.4686 0.9479
-12.9170 -2.3818 -2.4688 0.9479
-12.7168 -3.2979 -2.4693 0.9479
-12.4526 -4.1979 -2.4700 0.9479
-12.2969 -4.6404 -2.4704 0.9479
-11.9389 -5.5079 -2.4713 0.9479
-11.7372 -5.9317 -2.4719 0.9479
-11.5206 -6.3483 -2.4724 0.9479
10.2583 6.1400 -2.5271 0.9523
10.0288 6.4998 -2.5262 0.9523
9.7680 6.8379 -2.5204 0.9524
9.3174 7.0310 -2.4674 0.9534
8.4464 7.3759 -2.3703 0.9552
8.1754 7.6705 -2.3697 0.9552
7.8940 7.9550 -2.3689 0.9552
7.6027 8.2291 -2.3682 0.9552
7.3018 8.4925 -2.3674 0.9552
6.3456 9.2149 -2.3650 0.9553
6.0105 9.4321 -2.3642 0.9553
5.3183 9.8296 -2.3624 0.9553
4.9623 10.0093 -2.3615 0.9554
4.6000 10.1761 -2.3606 0.9554
4.2322 10.3297 -2.3597 0.9554
2.9163 7.9118 -1.7824 0.9661
3.4817 10.5968 -2.3578 0.9554
1.2112 8.6602 -1.8484 0.9649
0.5900 8.7212 -1.8477 0.9649
0.2789 8.7518 -1.8509 0.9648
-0.0338 8.7826 -1.8565 0.9647
-0.3487 8.8135 -1.8645 0.9646
-0.6668 8.8448 -1.8749 0.9644
-1.6210 10.9741 -2.3449 0.9557
-4.2724 10.2032 -2.3382 0.9558
-6.3295 9.0419 -2.3330 0.9559
-6.9538 8.5615 -2.3315 0.9559
-7.2526 8.3052 -2.3307 0.9559
-7.8716 7.8113 -2.3441 0.9557
-9.8796 6.2957 -2.4763 0.9532
-10.2992 5.5725 -2.4753 0.9533
-10.4895 5.2003 -2.4748 0.9533
-10.6666 4.8218 -2.4744 0.9533
-10.8301 4.4373 -2.4740 0.9533
-11.1159 3.6523 -2.4732 0.9533
-11.4389 2.4424 -2.4725 0.9533
-11.5824 1.6199 -2.4721 0.9533
-11.6322 1.2054 -2.4720 0.9533
-11.6675 0.7894 -2.4719 0.9533
-11.6880 0.3724 -2.4719 0.9533
-11.6938 -0.0450 -2.4719 0.9533
-11.6613 -0.8791 -2.4720 0.9533
-11.6230 -1.2948 -2.4721 0.9533
-11.5700 -1.7089 -2.4722 0.9533
-11.4204 -2.5304 -2.4726 0.9533
-11.3240 -2.9367 -2.4728 0.9533
-11.2132 -3.3394 -2.4731 0.9533
-10.9495 -4.1320 -2.4738 0.9533
-10.6303 -4.9042 -2.4746 0.9533
-10.4504 -5.2814 -2.4751 0.9533
9.2168 5.5166 -2.5245 0.9568
9.0121 5.8408 -2.5240 0.9568
8.7960 6.1575 -2.5234 0.9568
7.6812 7.2068 -2.4754 0.9576
7.2065 7.2622 -2.4045 0.9588
6.8323 7.3952 -2.3663 0.9595
5.9972 8.0760 -2.3641 0.9595
5.7034 8.2822 -2.3634 0.9595
4.7806 8.8357 -2.3611 0.9596
3.8048 9.2864 -2.3586 0.9596
3.1303 9.5273 -2.3569 0.9596
1.5227 8.6295 -2.0595 0.9646
1.2112 8.6601 -2.0551 0.9647
0.2789 8.7518 -2.0579 0.9647
-1.4581 9.8719 -2.3453 0.9598
-1.8089 9.8099 -2.3444 0.9598
-2.5023 9.6487 -2.3427 0.9599
-3.1819 9.4387 -2.3410 0.9599
-3.5155 9.3157 -2.3401 0.9599
-4.4865 8.8773 -2.3377 0.9600
-5.4043 8.3386 -2.3354 0.9600
-5.6967 8.1379 -2.3346 0.9600
-5.9817 7.9269 -2.3339 0.9600
-6.3143 7.7742 -2.3538 0.9597
-6.7868 7.7717 -2.4249 0.9585
-8.0047 6.8824 -2.4810 0.9576
-8.6885 5.9832 -2.4793 0.9576
-8.8947 5.6680 -2.4788 0.9576
-9.0895 5.3459 -2.4783 0.9576
-9.4444 4.6822 -2.4774 0.9576
-9.8864 3.6442 -2.4763 0.9576
-10.2159 2.5657 -2.4755 0.9576
-10.3001 2.1992 -2.4753 0.9576
-10.3714 1.8300 -2.4752 0.9576
-10.4744 1.0854 -2.4749 0.9577
-10.5247 0.3354 -2.4748 0.9577
-10.5299 -0.0405 -2.4748 0.9577
-10.5006 -0.7916 -2.4749 0.9577
-10.4183 -1.5388 -2.4751 0.9576
-10.2834 -2.2785 -2.4755 0.9576
-10.0967 -3.0069 -2.4759 0.9576
-9.9841 -3.3657 -2.4762 0.9576
-9.4091 -4.7552 -2.4777 0.9576
7.9777 5.5846 -2.5214 0.9606
7.7717 5.8646 -2.5209 0.9606
7.5558 6.1370 -2.5203 0.9606
7.3303 6.4012 -2.5197 0.9606
7.0954 6.6572 -2.5191 0.9606
6.8480 6.9009 -2.5172 0.9606
6.5865 7.1292 -2.5131 0.9607
5.8895 7.3663 -2.4419 0.9618
4.6222 7.8590 -2.3607 0.9630
3.4524 8.4262 -2.3577 0.9631
2.6822 8.1635 -2.2248 0.9651
2.5293 8.7384 -2.3554 0.9631
2.2151 8.8201 -2.3546 0.9631
1.1984 8.5686 -2.2402 0.9649
0.5838 8.6290 -2.2393 0.9649
-0.3450 8.7203 -2.2596 0.9646
-0.6597 8.7513 -2.2723 0.9644
-1.9584 8.8389 -2.3441 0.9633
-3.4909 8.3370 -2.3402 0.9633
-4.0742 8.0617 -2.3387 0.9634
-4.3581 7.9087 -2.3380 0.9634
-5.0153 7.7384 -2.3876 0.9626
-5.4160 7.7368 -2.4453 0.9617
-6.0471 7.4452 -2.4834 0.9611
-6.5661 6.9983 -2.4847 0.9611
-6.8100 6.7579 -2.4841 0.9611
-7.0452 6.5089 -2.4835 0.9611
-7.2714 6.2519 -2.4829 0.9612
-7.4883 5.9871 -2.4824 0.9612
-7.6956 5.7148 -2.4818 0.9612
-8.0805 5.1492 -2.4809 0.9612
-8.2577 4.8567 -2.4804 0.9612
-8.5803 4.2538 -2.4796 0.9612
-8.8595 3.6299 -2.4789 0.9612
-9.4233 1.6628 -2.4776 0.9612
-9.5460 0.6458 -2.4773 0.9612
-9.5675 -0.0368 -2.4772 0.9612
-9.5602 -0.3783 -2.4772 0.9612
-9.5409 -0.7193 -2.4773 0.9612
-9.5094 -1.0594 -2.4774 0.9612
-9.4660 -1.3982 -2.4775 0.9612
-9.4106 -1.7352 -2.4777 0.9612
-9.3433 -2.0702 -2.4778 0.9612
-9.2643 -2.4025 -2.4780 0.9612
-9.1735 -2.7319 -2.4783 0.9612
-9.0711 -3.0579 -2.4785 0.9612
-8.8320 -3.6982 -2.4791 0.9612
-8.6956 -4.0116 -2.4795 0.9612
-8.5482 -4.3201 -2.4799 0.9612
7.4704 4.8416 -2.5201 0.9637
7.2915 5.1042 -2.5197 0.9637
6.9061 5.6092 -2.5187 0.9637
6.2628 6.3112 -2.5171 0.9637
6.0322 6.5292 -2.5165 0.9637
5.2894 7.1227 -2.5116 0.9638
4.3898 7.4639 -2.4513 0.9646
4.0518 7.4887 -2.4104 0.9652
3.7243 7.5122 -2.3737 0.9657
3.4305 7.5889 -2.3577 0.9660
3.1565 7.7043 -2.3570 0.9660
2.8787 7.8097 -2.3563 0.9660
2.3128 7.9903 -2.3549 0.9660
2.0255 8.0653 -2.3541 0.9660
1.7358 8.1299 -2.3534 0.9660
1.4441 8.1841 -2.3527 0.9660
0.8560 8.2611 -2.3512 0.9661
0.5604 8.2837 -2.3504 0.9661
0.2643 8.2958 -2.3497 0.9661
-0.9178 8.2385 -2.3467 0.9661
-1.7915 8.0856 -2.3445 0.9662
-2.0783 8.0141 -2.3438 0.9662
-2.3623 7.9323 -2.3431 0.9662
-2.9204 7.7390 -2.3417 0.9662
-3.2251 7.7022 -2.3639 0.9659
-4.2335 7.6827 -2.4833 0.9642
-4.5086 7.5326 -2.4852 0.9642
-4.7787 7.3732 -2.4874 0.9641
-5.0411 7.2013 -2.4885 0.9641
-5.5392 6.8199 -2.4873 0.9641
-6.0088 6.4044 -2.4861 0.9642
-6.2322 6.1844 -2.4855 0.9642
-6.6546 5.7216 -2.4845 0.9642
-7.0431 5.2303 -2.4835 0.9642
-7.2240 4.9746 -2.4830 0.9642
-7.3957 4.7128 -2.4826 0.9642
-7.5579 4.4451 -2.4822 0.9642
-7.7106 4.1719 -2.4818 0.9642
-7.9863 3.6102 -2.4811 0.9642
-8.2216 3.0305 -2.4806 0.9642
-8.3237 2.7349 -2.4803 0.9642
-8.4152 2.4358 -2.4801 0.9642
-8.5663 1.8290 -2.4797 0.9642
-8.6256 1.5220 -2.4796 0.9642
-8.6740 1.2131 -2.4795 0.9642
-8.7115 0.9027 -2.4794 0.9642
-8.7577 -0.0337 -2.4793 0.9642
-8.7510 -0.3462 -2.4793 0.9642
-8.7333 -0.6584 -2.4793 0.9642
-8.6647 -1.2798 -2.4795 0.9642
-8.5523 -1.8949 -2.4798 0.9642
-8.3029 -2.7990 -2.4805 0.9642
-8.1986 -3.0939 -2.4807 0.9642
-8.0839 -3.3849 -2.4810 0.9642
-7.9590 -3.6718 -2.4814 0.9642
-7.8240 -3.9541 -2.4817 0.9642
-7.6790 -4.2315 -2.4821 0.9642
6.7071 4.6952 -2.5182 0.9663
6.5341 4.9307 -2.5178 0.9663
6.3528 5.1599 -2.5173 0.9663
5.7614 5.8059 -2.5158 0.9663
5.1044 6.3843 -2.5141 0.9664
4.8721 6.5608 -2.5135 0.9664
4.6337 6.7289 -2.5129 0.9664
4.1392 7.0379 -2.5113 0.9664
3.8812 7.1733 -2.5086 0.9664
3.6189 7.2998 -2.5060 0.9665
2.7776 7.5354 -2.4702 0.9669
1.9027 7.5761 -2.4026 0.9678
1.3405 7.5969 -2.3727 0.9682
0.7892 7.6157 -2.3550 0.9685
0.2433 7.6353 -2.3496 0.9685
-0.0294 7.6382 -2.3494 0.9685
-0.5762 7.6432 -2.3576 0.9684
-1.1302 7.6518 -2.3791 0.9681
-1.4116 7.6554 -2.3943 0.9679
-1.6969 7.6585 -2.4127 0.9677
-1.9868 7.6611 -2.4343 0.9674
-3.1259 7.4652 -2.4893 0.9667
-3.3922 7.3529 -2.4907 0.9667
-3.6545 7.2311 -2.4920 0.9667
-4.1589 6.9484 -2.4907 0.9667
-4.6417 6.6308 -2.4895 0.9667
-5.3203 6.0924 -2.4878 0.9667
-5.7389 5.6950 -2.4868 0.9667
-5.9373 5.4854 -2.4863 0.9667
-6.3112 5.0460 -2.4853 0.9667
-6.8110 4.3402 -2.4841 0.9668
-7.1012 3.8422 -2.4834 0.9668
-7.2329 3.5858 -2.4830 0.9668
-7.3553 3.3249 -2.4827 0.9668
-7.4684 3.0600 -2.4825 0.9668
-7.5721 2.7912 -2.4822 0.9668
-7.7506 2.2435 -2.4818 0.9668
-7.8898 1.6846 -2.4814 0.9668
-7.9445 1.4018 -2.4813 0.9668
-7.9891 1.1173 -2.4812 0.9668
-8.0480 0.5445 -2.4810 0.9668
-8.0622 0.2569 -2.4810 0.9668
-8.0600 -0.3189 -2.4810 0.9668
-8.0437 -0.6064 -2.4811 0.9668
-7.9337 -1.4629 -2.4814 0.9668
-7.8769 -1.7453 -2.4815 0.9668
-7.0720 -3.8970 -2.4836 0.9668
6.4990 3.8899 -2.5177 0.9686
6.3551 4.1188 -2.5173 0.9686
5.7004 4.9780 -2.5157 0.9686
5.5181 5.1773 -2.5152 0.9686
5.3288 5.3699 -2.5147 0.9686
5.1327 5.5556 -2.5142 0.9686
4.7213 5.9052 -2.5132 0.9686
4.2861 6.2242 -2.5121 0.9686
3.8294 6.5111 -2.5109 0.9687
3.5937 6.6421 -2.5103 0.9687
2.8610 6.9830 -2.5085 0.9687
2.6093 7.0789 -2.5078 0.9687
2.0947 7.2366 -2.5042 0.9687
1.8338 7.3021 -2.5026 0.9688
1.5711 7.3585 -2.5011 0.9688
0.7744 7.4734 -2.4975 0.9688
0.5070 7.4935 -2.4966 0.9688
0.2391 7.5046 -2.4958 0.9688
-0.0289 7.5065 -2.4952 0.9689
-0.5641 7.4831 -2.4945 0.9689
-0.8308 7.4577 -2.4943 0.9689
-1.0965 7.4234 -2.4943 0.9689
-1.6236 7.3277 -2.4948 0.9689
-1.8845 7.2665 -2.4953 0.9689
-2.1431 7.1961 -2.4958 0.9688
-2.6496 7.0212 -2.4945 0.9689
-2.8978 6.9205 -2.4939 0.9689
-3.1422 6.8110 -2.4933 0.9689
-3.6183 6.5663 -2.4921 0.9689
-4.0757 6.2885 -2.4910 0.9689
-4.5119 5.9791 -2.4899 0.9689
-4.7214 5.8130 -2.4893 0.9689
-5.1220 5.4592 -2.4883 0.9689
-5.3126 5.2719 -2.4879 0.9689
-5.4964 5.0780 -2.4874 0.9689
-5.6731 4.8777 -2.4870 0.9690
-5.8426 4.6713 -2.4865 0.9690
-6.1590 4.2413 -2.4857 0.9690
-6.5743 3.5571 -2.4847 0.9690
-6.9145 2.8330 -2.4839 0.9690
-7.3049 1.5597 -2.4829 0.9690
-7.3555 1.2979 -2.4828 0.9690
-7.4646 0.2379 -2.4825 0.9690
-7.4683 -0.0287 -2.4825 0.9690
-7.4474 -0.5614 -2.4826 0.9690
-7.3888 -1.0913 -2.4827 0.9690
-7.3455 -1.3545 -2.4829 0.9690
-7.2929 -1.6159 -2.4830 0.9690
-7.0800 -2.3867 -2.4835 0.9690
-6.9909 -2.6381 -2.4838 0.9690
-6.7863 -3.1308 -2.4843 0.9690
-6.6710 -3.3714 -2.4846 0.9690
-6.5473 -3.6078 -2.4849 0.9690
6.0382 3.6141 -2.5165 0.9705
5.9045 3.8268 -2.5162 0.9706
5.7634 4.0346 -2.5158 0.9706
5.6148 4.2370 -2.5155 0.9706
5.4592 4.4341 -2.5151 0.9706
5.2966 4.6253 -2.5146 0.9706
5.1273 4.8106 -2.5142 0.9706
4.7693 5.1622 -2.5133 0.9706
4.5811 5.3281 -2.5128 0.9706
4.1877 5.6391 -2.5118 0.9706
3.9829 5.7838 -2.5113 0.9706
3.7731 5.9210 -2.5108 0.9706
3.5586 6.0506 -2.5102 0.9706
3.3396 6.1724 -2.5097 0.9706
2.4250 6.5788 -2.5074 0.9707
2.1881 6.6596 -2.5068 0.9707
1.7066 6.7954 -2.5055 0.9707
1.4626 6.8503 -2.5049 0.9707
1.2169 6.8964 -2.5043 0.9707
0.9697 6.9337 -2.5037 0.9707
0.7214 6.9622 -2.5031 0.9707
0.4724 6.9818 -2.5024 0.9707
-0.0269 6.9942 -2.5012 0.9707
-0.5255 6.9709 -2.4999 0.9707
-0.7738 6.9460 -2.4993 0.9707
-1.0210 6.9122 -2.4987 0.9708
-1.2667 6.8696 -2.4980 0.9708
-1.7527 6.7585 -2.4968 0.9708
-1.9923 6.6900 -2.4962 0.9708
-2.2293 6.6130 -2.4956 0.9708
-2.9214 6.3324 -2.4939 0.9708
-3.1449 6.2227 -2.4933 0.9708
-4.3902 5.4052 -2.4902 0.9709
-4.5795 5.2441 -2.4897 0.9709
-4.7628 5.0763 -2.4893 0.9709
-4.9401 4.9022 -2.4888 0.9709
-5.1110 4.7220 -2.4884 0.9709
-5.2755 4.5358 -2.4880 0.9709
-5.4331 4.3439 -2.4876 0.9709
-5.7275 3.9441 -2.4868 0.9709
-5.8638 3.7367 -2.4865 0.9709
-5.9927 3.5245 -2.4862 0.9709
-6.1139 3.3080 -2.4859 0.9709
-6.2274 3.0873 -2.4856 0.9709
-6.4304 2.6346 -2.4851 0.9709
-6.6736 1.9317 -2.4845 0.9709
-6.7379 1.6922 -2.4843 0.9709
-6.7936 1.4505 -2.4842 0.9709
-6.8792 0.9621 -2.4840 0.9709
-6.9300 0.4689 -2.4839 0.9709
-6.9403 -0.2746 -2.4839 0.9709
-6.9262 -0.5221 -2.4839 0.9709
-6.8717 -1.0150 -2.4840 0.9709
-6.8314 -1.2597 -2.4842 0.9709
-6.6588 -1.9830 -2.4846 0.9709
-6.4104 -2.6842 -2.4852 0.9709
-6.3111 -2.9116 -2.4855 0.9709
-6.0887 -3.3552 -2.4861 0.9709
5.0925 4.1362 -2.5141 0.9723
4.9408 4.3147 -2.5138 0.9723
4.7829 4.4875 -2.5134 0.9723
4.6189 4.6546 -2.5129 0.9723
4.4491 4.8157 -2.5125 0.9723
4.2736 4.9705 -2.5121 0.9723
4.0927 5.1190 -2.5116 0.9723
3.9067 5.2608 -2.5111 0.9723
3.1157 5.7586 -2.5091 0.9723
2.0416 6.2136 -2.5064 0.9724
1.8181 6.2811 -2.5058 0.9724
1.5924 6.3405 -2.5053 0.9724
1.1355 6.4350 -2.5041 0.9724
0.9049 6.4700 -2.5035 0.9724
0.6732 6.4966 -2.5029 0.9724
0.4408 6.5150 -2.5024 0.9724
-0.0251 6.5267 -2.5012 0.9724
-0.2580 6.5202 -2.5006 0.9724
-0.7221 6.4821 -2.4994 0.9724
-0.9528 6.4507 -2.4988 0.9725
-1.6358 6.3075 -2.4971 0.9725
-1.8594 6.2437 -2.4966 0.9725
-2.0806 6.1720 -2.4960 0.9725
-2.5146 6.0052 -2.4949 0.9725
-2.7267 5.9104 -2.4944 0.9725
-2.9353 5.8081 -2.4938 0.9725
-3.3408 5.5816 -2.4928 0.9725
-3.5372 5.4577 -2.4923 0.9725
-3.9160 5.1895 -2.4914 0.9725
-4.0980 5.0455 -2.4909 0.9725
-4.4460 4.7386 -2.4901 0.9725
-4.6115 4.5762 -2.4896 0.9726
-5.0719 4.0551 -2.4885 0.9726
-5.2126 3.8710 -2.4881 0.9726
-5.3468 3.6819 -2.4878 0.9726
-5.8136 2.8822 -2.4866 0.9726
-6.0033 2.4596 -2.4862 0.9726
-6.0867 2.2436 -2.4860 0.9726
-6.1625 2.0248 -2.4858 0.9726
-6.3425 1.3542 -2.4853 0.9726
-6.4224 0.8982 -2.4851 0.9726
-6.4698 0.4377 -2.4850 0.9726
-6.4813 0.2065 -2.4850 0.9726
-6.4845 -0.0249 -2.4850 0.9726
-6.4155 -0.9476 -2.4852 0.9726
-6.3321 -1.4030 -2.4854 0.9726
-6.2166 -1.8513 -2.4857 0.9726
-6.0696 -2.2905 -2.4861 0.9726
-5.9845 -2.5059 -2.4863 0.9726
-5.8918 -2.7181 -2.4865 0.9726
5.1553 3.3412 -2.5143 0.9738
5.0321 3.5226 -2.5140 0.9738
4.9025 3.6995 -2.5137 0.9738
4.7667 3.8716 -2.5133 0.9738
4.6248 4.0387 -2.5130 0.9738
4.3236 4.3570 -2.5122 0.9738
4.1647 4.5078 -2.5118 0.9738
4.0005 4.6528 -2.5114 0.9738
3.2952 5.1711 -2.5096 0.9738
2.3224 5.6685 -2.5071 0.9739
2.1182 5.7465 -2.5066 0.9739
1.9113 5.8173 -2.5061 0.9739
1.4909 5.9363 -2.5050 0.9739
1.2777 5.9844 -2.5045 0.9739
1.0631 6.0249 -2.5039 0.9739
0.8472 6.0577 -2.5034 0.9739
-0.0235 6.1112 -2.5012 0.9739
-0.2416 6.1052 -2.5006 0.9739
-0.6762 6.0697 -2.4995 0.9739
-0.8922 6.0404 -2.4990 0.9740
-1.3203 5.9588 -2.4979 0.9740
-1.5318 5.9066 -2.4974 0.9740
-2.1531 5.7054 -2.4958 0.9740
-2.3548 5.6238 -2.4953 0.9740
-2.5535 5.5351 -2.4948 0.9740
-2.7490 5.4393 -2.4943 0.9740
-2.9408 5.3367 -2.4938 0.9740
-3.1288 5.2274 -2.4934 0.9740
-3.6677 4.8603 -2.4920 0.9740
-4.0037 4.5848 -2.4912 0.9740
-4.4687 4.1286 -2.4900 0.9740
-4.7505 3.7982 -2.4893 0.9741
-4.8824 3.6257 -2.4890 0.9741
-5.0081 3.4487 -2.4887 0.9741
-5.2402 3.0819 -2.4881 0.9741
-5.4455 2.6997 -2.4876 0.9741
-5.5379 2.5034 -2.4873 0.9741
-5.6233 2.3039 -2.4871 0.9741
-5.7015 2.1016 -2.4869 0.9741
-5.7724 1.8966 -2.4868 0.9741
-6.0605 0.4100 -2.4861 0.9741
-6.0742 -0.0233 -2.4860 0.9741
-6.0696 -0.2401 -2.4861 0.9741
-6.0572 -0.4566 -2.4861 0.9741
-5.9314 -1.3142 -2.4864 0.9741
-5.8810 -1.5251 -2.4866 0.9741
-5.8231 -1.7342 -2.4867 0.9741
-5.6854 -2.1454 -2.4871 0.9741
-5.6057 -2.3472 -2.4873 0.9741
-5.5188 -2.5460 -2.4875 0.9741
-5.3242 -2.9338 -2.4880 0.9741
4.9492 2.9623 -2.5138 0.9751
4.8398 3.1367 -2.5135 0.9751
4.7242 3.3071 -2.5132 0.9752
4.6026 3.4732 -2.5129 0.9752
4.4751 3.6348 -2.5126 0.9752
4.3419 3.7917 -2.5123 0.9752
3.9100 4.2322 -2.5112 0.9752
3.7559 4.3684 -2.5108 0.9752
2.7387 5.0617 -2.5082 0.9752
1.7947 5.4624 -2.5058 0.9752
1.1998 5.6196 -2.5043 0.9752
0.7955 5.6885 -2.5033 0.9752
0.5919 5.7121 -2.5028 0.9753
0.3876 5.7284 -2.5022 0.9753
0.1828 5.7374 -2.5017 0.9753
-0.0221 5.7391 -2.5012 0.9753
-0.4313 5.7205 -2.5002 0.9753
-1.0397 5.6382 -2.4986 0.9753
-2.9388 4.9100 -2.4939 0.9753
-3.2805 4.6862 -2.4930 0.9753
-3.6052 4.4388 -2.4922 0.9754
-3.7608 4.3066 -2.4918 0.9754
-3.9115 4.1690 -2.4914 0.9754
-4.0572 4.0261 -2.4911 0.9754
-4.5865 3.4059 -2.4897 0.9754
-4.7045 3.2397 -2.4894 0.9754
-4.8166 3.0694 -2.4892 0.9754
-5.1156 2.5361 -2.4884 0.9754
-5.2024 2.3517 -2.4882 0.9754
-5.4228 1.7818 -2.4876 0.9754
-5.5355 1.3902 -2.4874 0.9754
-5.5813 1.1917 -2.4873 0.9754
-5.6201 0.9917 -2.4872 0.9754
-5.6517 0.7904 -2.4871 0.9754
-5.7036 0.1818 -2.4870 0.9754
-5.7064 -0.0219 -2.4870 0.9754
-5.6904 -0.4290 -2.4870 0.9754
-5.6716 -0.6318 -2.4871 0.9754
-5.6456 -0.8339 -2.4871 0.9754
-5.6124 -1.0349 -2.4872 0.9754
-5.5721 -1.2346 -2.4873 0.9754
-5.5248 -1.4327 -2.4875 0.9754
-5.2661 -2.2050 -2.4881 0.9754
-5.1845 -2.3918 -2.4883 0.9754
-5.0962 -2.5755 -2.4886 0.9754
-5.0016 -2.7561 -2.4888 0.9754
4.6584 2.7883 -2.5131 0.9764
4.4467 3.1128 -2.5125 0.9764
4.2123 3.4213 -2.5119 0.9764
3.9565 3.7121 -2.5113 0.9764
3.6806 3.9838 -2.5106 0.9764
3.5355 4.1121 -2.5102 0.9764
3.3860 4.2350 -2.5098 0.9764
3.2321 4.3524 -2.5094 0.9764
3.0742 4.4643 -2.5090 0.9764
2.9125 4.5705 -2.5086 0.9764
2.5781 4.7650 -2.5078 0.9764
2.2308 4.9350 -2.5069 0.9764
1.5047 5.1985 -2.5051 0.9764
1.3180 5.2479 -2.5046 0.9764
0.9399 5.3265 -2.5036 0.9764
0.3649 5.3933 -2.5022 0.9765
0.1721 5.4019 -2.5017 0.9765
-0.2136 5.3983 -2.5007 0.9765
-0.5979 5.3672 -2.4998 0.9765
-0.7890 5.3414 -2.4993 0.9765
-2.0827 4.9739 -2.4960 0.9765
-2.4314 4.8109 -2.4951 0.9765
-2.7675 4.6237 -2.4943 0.9765
-3.2443 4.2993 -2.4931 0.9765
-3.3951 4.1801 -2.4927 0.9765
-3.6836 3.9261 -2.4920 0.9765
-3.9533 3.6523 -2.4913 0.9766
-4.0806 3.5085 -2.4910 0.9766
-4.3194 3.2076 -2.4904 0.9766
-4.4307 3.0511 -2.4901 0.9766
-4.7300 2.5592 -2.4894 0.9766
-4.9753 2.0385 -2.4888 0.9766
-5.0445 1.8594 -2.4886 0.9766
-5.1073 1.6781 -2.4884 0.9766
-5.1637 1.4947 -2.4883 0.9766
-5.2135 1.3093 -2.4882 0.9766
-5.3417 -0.5951 -2.4879 0.9766
-5.2034 -1.3494 -2.4883 0.9766
-5.1522 -1.5344 -2.4884 0.9766
-4.7997 -2.4257 -2.4893 0.9766
-4.7105 -2.5957 -2.4895 0.9766
4.2977 2.7854 -2.5122 0.9774
4.0872 3.0842 -2.5116 0.9774
3.9740 3.2278 -2.5113 0.9774
3.8558 3.3672 -2.5110 0.9775
3.7327 3.5022 -2.5107 0.9775
3.3356 3.8796 -2.5097 0.9775
3.1946 3.9956 -2.5094 0.9775
2.9005 4.2121 -2.5086 0.9775
2.2701 4.5791 -2.5070 0.9775
1.9370 4.7278 -2.5062 0.9775
1.4198 4.9052 -2.5049 0.9775
1.0659 4.9922 -2.5040 0.9775
0.1624 5.0974 -2.5017 0.9775
-0.0196 5.0991 -2.5012 0.9775
-0.5643 5.0650 -2.4998 0.9776
-0.7445 5.0407 -2.4994 0.9776
-0.9238 5.0100 -2.4989 0.9776
-1.2784 4.9296 -2.4980 0.9776
-1.6263 4.8241 -2.4972 0.9776
-2.1315 4.6203 -2.4959 0.9776
-2.4549 4.4550 -2.4951 0.9776
-2.6119 4.3638 -2.4947 0.9776
-2.7656 4.2672 -2.4943 0.9776
-2.9157 4.1651 -2.4939 0.9776
-3.0621 4.0578 -2.4936 0.9776
-3.7314 3.4473 -2.4919 0.9776
-3.8516 3.3115 -2.4916 0.9776
-3.9668 3.1716 -2.4913 0.9776
-4.0771 3.0276 -2.4910 0.9776
-4.1821 2.8799 -2.4908 0.9776
-4.2818 2.7285 -2.4905 0.9776
-4.4647 2.4157 -2.4901 0.9776
-4.5477 2.2546 -2.4898 0.9776
-4.9620 1.0595 -2.4888 0.9776
-4.9965 0.8816 -2.4887 0.9776
-5.0733 -0.0195 -2.4886 0.9777
-5.0694 -0.2006 -2.4886 0.9777
-5.0590 -0.3814 -2.4886 0.9777
-5.0423 -0.5617 -2.4887 0.9776
-5.0191 -0.7413 -2.4887 0.9776
-4.9896 -0.9200 -2.4888 0.9776
-4.9538 -1.0976 -2.4889 0.9776
-4.8633 -1.4483 -2.4891 0.9776
-4.7482 -1.7918 -2.4894 0.9776
-4.6815 -1.9603 -2.4896 0.9776
3.8637 2.9156 -2.5111 0.9784
3.7568 3.0513 -2.5108 0.9784
3.5287 3.3108 -2.5102 0.9784
3.4079 3.4342 -2.5099 0.9784
3.2827 3.5532 -2.5096 0.9784
3.0201 3.7773 -2.5089 0.9784
2.8829 3.8822 -2.5086 0.9784
2.5979 4.0768 -2.5078 0.9785
2.4503 4.1663 -2.5075 0.9785
1.9900 4.4023 -2.5063 0.9785
1.8313 4.4698 -2.5059 0.9785
1.6703 4.5316 -2.5055 0.9785
1.3424 4.6377 -2.5047 0.9785
1.0078 4.7200 -2.5038 0.9785
0.8385 4.7521 -2.5034 0.9785
0.4972 4.7982 -2.5025 0.9785
0.1536 4.8198 -2.5017 0.9785
-0.1906 4.8168 -2.5008 0.9785
-0.3623 4.8061 -2.5004 0.9785
-0.8735 4.7374 -2.4991 0.9785
-1.0419 4.7024 -2.4986 0.9785
-1.5378 4.5618 -2.4974 0.9785
-1.6994 4.5032 -2.4970 0.9785
-2.0157 4.3692 -2.4962 0.9786
-2.1700 4.2937 -2.4958 0.9786
-2.3215 4.2129 -2.4954 0.9786
-2.7573 3.9389 -2.4943 0.9786
-2.8958 3.8375 -2.4940 0.9786
-3.0305 3.7311 -2.4936 0.9786
-3.2881 3.5045 -2.4930 0.9786
-3.4106 3.3845 -2.4927 0.9786
-3.5289 3.2602 -2.4924 0.9786
-3.7516 2.9995 -2.4918 0.9786
-3.8559 2.8634 -2.4916 0.9786
-4.1387 2.4341 -2.4909 0.9786
-4.2226 2.2847 -2.4907 0.9786
-4.3011 2.1323 -2.4905 0.9786
-4.4416 1.8198 -2.4901 0.9786
-4.5035 1.6600 -2.4900 0.9786
-4.6544 1.1689 -2.4896 0.9786
-4.7256 0.8338 -2.4894 0.9786
-4.7729 0.4946 -2.4893 0.9786
-4.7983 -0.0184 -2.4893 0.9786
-4.7946 -0.1897 -2.4893 0.9786
-4.7192 -0.8702 -2.4895 0.9786
-4.6853 -1.0381 -2.4896 0.9786
-4.6454 -1.2047 -2.4897 0.9786
-4.5997 -1.3698 -2.4898 0.9786
-4.5481 -1.5332 -2.4899 0.9786
-4.4277 -1.8540 -2.4902 0.9786
-4.3590 -2.0110 -2.4904 0.9786
3.8473 2.4935 -2.5110 0.9793
3.6589 2.7611 -2.5105 0.9793
3.5577 2.8896 -2.5103 0.9793
3.4519 3.0144 -2.5100 0.9793
3.3417 3.1353 -2.5097 0.9793
3.2273 3.2522 -2.5094 0.9793
2.9863 3.4733 -2.5088 0.9793
2.8601 3.5773 -2.5085 0.9793
2.7302 3.6766 -2.5082 0.9793
2.0326 4.1000 -2.5064 0.9793
1.8847 4.1694 -2.5060 0.9793
1.7345 4.2333 -2.5057 0.9794
1.5820 4.2919 -2.5053 0.9794
1.2714 4.3924 -2.5045 0.9794
0.9545 4.4705 -2.5037 0.9794
0.7942 4.5010 -2.5033 0.9794
0.6329 4.5257 -2.5029 0.9794
0.3083 4.5579 -2.5021 0.9794
0.1455 4.5652 -2.5016 0.9794
-0.0176 4.5668 -2.5012 0.9794
-0.3432 4.5524 -2.5004 0.9794
-0.8274 4.4874 -2.4992 0.9794
-0.9869 4.4543 -2.4988 0.9794
-1.1451 4.4155 -2.4984 0.9794
-1.4567 4.3212 -2.4976 0.9794
-1.6098 4.2658 -2.4972 0.9794
-2.0556 4.0675 -2.4961 0.9794
-2.4776 3.8228 -2.4950 0.9794
-2.7433 3.6354 -2.4944 0.9794
-2.8709 3.5347 -2.4941 0.9794
-3.1150 3.3200 -2.4934 0.9795
-3.2311 3.2064 -2.4932 0.9795
-3.3431 3.0887 -2.4929 0.9795
-3.4509 2.9670 -2.4926 0.9795
-3.5542 2.8417 -2.4923 0.9795
-3.6530 2.7128 -2.4921 0.9795
-3.7471 2.5804 -2.4919 0.9795
-3.9210 2.3061 -2.4914 0.9795
-4.0005 2.1645 -2.4912 0.9795
-4.0749 2.0202 -2.4910 0.9795
-4.1441 1.8733 -2.4909 0.9795
-4.2081 1.7241 -2.4907 0.9795
-4.2667 1.5727 -2.4906 0.9795
-4.3199 1.4194 -2.4904 0.9795
-4.4463 0.9493 -2.4901 0.9795
-4.4772 0.7900 -2.4901 0.9795
-4.5438 0.1448 -2.4899 0.9795
-4.5425 -0.1797 -2.4899 0.9795
-4.5333 -0.3417 -2.4899 0.9795
-4.5183 -0.5033 -2.4900 0.9795
-4.4975 -0.6643 -2.4900 0.9795
-4.4389 -0.9835 -2.4902 0.9795
-4.4012 -1.1413 -2.4903 0.9795
-4.3578 -1.2978 -2.4904 0.9795
-4.1948 -1.7565 -2.4908 0.9795
-3.9839 -2.1953 -2.4914 0.9795
3.7314 2.2334 -2.5107 0.9801
3.3743 2.7407 -2.5098 0.9801
3.0611 3.0847 -2.5090 0.9801
2.8326 3.2945 -2.5085 0.9801
2.7128 3.3931 -2.5081 0.9801
2.5897 3.4873 -2.5078 0.9801
2.2012 3.7427 -2.5069 0.9801
1.7878 3.9549 -2.5058 0.9802
1.6452 4.0156 -2.5054 0.9802
0.7534 4.2697 -2.5032 0.9802
0.6004 4.2932 -2.5028 0.9802
0.4467 4.3112 -2.5024 0.9802
0.2925 4.3238 -2.5020 0.9802
0.1380 4.3308 -2.5016 0.9802
-0.0167 4.3323 -2.5012 0.9802
-0.3256 4.3187 -2.5005 0.9802
-0.4795 4.3037 -2.5001 0.9802
-0.6326 4.2831 -2.4997 0.9802
-1.0864 4.1890 -2.4985 0.9802
-1.2350 4.1470 -2.4982 0.9802
-1.5273 4.0471 -2.4974 0.9802
-1.6705 3.9895 -2.4971 0.9802
-1.8116 3.9267 -2.4967 0.9802
-2.0865 3.7864 -2.4960 0.9802
-2.3507 3.6270 -2.4954 0.9802
-2.4783 3.5403 -2.4950 0.9802
-2.6028 3.4492 -2.4947 0.9802
-2.7239 3.3537 -2.4944 0.9802
-2.8415 3.2539 -2.4941 0.9802
-3.1720 2.9305 -2.4933 0.9803
-3.2743 2.8152 -2.4931 0.9803
-3.3723 2.6963 -2.4928 0.9803
-3.4661 2.5739 -2.4926 0.9803
-3.5554 2.4484 -2.4923 0.9803
-3.6402 2.3197 -2.4921 0.9803
-3.7958 2.0538 -2.4917 0.9803
-3.8665 1.9169 -2.4916 0.9803
-4.0485 1.4923 -2.4911 0.9803
-4.1842 1.0508 -2.4908 0.9803
-4.3115 0.1374 -2.4905 0.9803
-4.3103 -0.1705 -2.4905 0.9803
-4.2676 -0.6303 -2.4906 0.9803
-4.2425 -0.7823 -2.4907 0.9803
-4.1761 -1.0830 -2.4908 0.9803
-4.1350 -1.2314 -2.4910 0.9803
-3.7801 -2.0830 -2.4919 0.9803
