ply
format ascii 1.0
element vertex 1423
property float32 x
property float32 y
property float32 z
property float32 I
end_header
35.3427 22.9059 7.4263 0.8428
30.4280 22.9612 6.7215 0.8566
27.9411 22.6941 6.3471 0.8640
22.7224 22.8979 5.6881 0.8772
20.2079 23.5033 5.4655 0.8817
19.0209 25.6137 5.6255 0.8785
18.3528 26.6512 5.7058 0.8768
17.7557 27.8634 5.8258 0.8744
17.2629 29.3517 6.0043 0.8708
15.6606 31.5888 6.2169 0.8666
15.0483 33.2895 6.4417 0.8621
12.4941 33.8955 6.3698 0.8635
5.1415 29.1384 5.2173 0.8868
4.0250 28.7795 5.1240 0.8887
3.1270 30.1771 5.3495 0.8841
2.2679 33.5213 5.9242 0.8724
-1.9005 25.2091 4.4577 0.9024
-2.7575 24.7523 4.3915 0.9038
-3.6452 24.6787 4.3987 0.9036
-4.4285 24.0167 4.3062 0.9056
-5.5154 24.8924 4.4956 0.9016
-7.7906 30.0404 5.4722 0.8816
-8.7146 25.8510 4.8103 0.8951
-11.2427 29.7923 5.6148 0.8787
-11.0165 21.7983 4.3066 0.9056
-10.9690 19.9057 4.0075 0.9118
-17.3220 22.9549 5.0707 0.8898
-18.2904 20.9449 4.9031 0.8932
-19.9946 19.8414 4.9669 0.8919
-13.3320 9.9005 2.9281 0.9348
-29.1536 20.0760 6.2415 0.8661
-31.5468 20.1029 6.5960 0.8590
-34.2288 20.1313 7.0019 0.8510
-36.8776 19.9529 7.3933 0.8434
-39.6509 19.6575 7.8036 0.8355
-43.5836 19.7017 8.4337 0.8234
-31.2328 -17.2106 6.2880 0.8652
32.6796 22.8766 6.1111 0.8509
30.4280 22.9612 5.8397 0.8571
27.8836 22.6475 5.5031 0.8647
19.7745 24.7328 4.8511 0.8797
18.3530 26.6516 4.9573 0.8773
17.1257 29.1184 5.1751 0.8722
16.4269 30.3607 5.2882 0.8696
15.6604 31.5884 5.4012 0.8670
12.4939 33.8951 5.5341 0.8640
10.1024 34.9014 5.5662 0.8633
9.3853 37.3704 5.9027 0.8556
5.1430 29.1470 4.5341 0.8871
3.1270 30.1765 4.6476 0.8845
2.2679 33.5207 5.1469 0.8729
1.1325 35.5396 5.4472 0.8660
-0.1454 37.8120 5.7926 0.8581
-1.5210 38.4414 5.8936 0.8558
-1.9008 25.2143 3.8737 0.9027
-3.6451 24.6779 3.8215 0.9040
-4.4278 24.0126 3.7406 0.9059
-5.5453 25.0273 3.9270 0.9015
-7.8483 30.2632 4.7895 0.8812
-8.8227 26.1716 4.2310 0.8943
-11.0539 29.2920 4.7963 0.8810
-9.7018 21.0294 3.5479 0.9105
-17.2821 26.6655 4.8679 0.8793
-17.5910 23.3114 4.4739 0.8885
-17.7090 21.8034 4.3031 0.8926
-18.4270 21.1014 4.2917 0.8928
-24.8853 19.8964 4.8810 0.8790
-13.3116 9.8853 2.5401 0.9351
-29.0945 20.0353 5.4117 0.8668
-31.3366 19.9690 5.6925 0.8604
-34.2287 20.1313 6.0833 0.8516
-36.8780 19.9531 6.4234 0.8439
-39.8615 19.7618 6.8158 0.8352
-24.9890 9.2111 4.0800 0.8978
-32.4555 -10.9411 5.2469 0.8706
-31.3058 -17.2509 5.4758 0.8653
35.0375 22.7081 5.4371 0.8450
32.6792 22.8763 5.1946 0.8514
30.4280 22.9612 4.9639 0.8575
26.3462 23.0071 4.5548 0.8684
22.8696 23.0462 4.2280 0.8772
21.3081 23.0637 4.0890 0.8810
20.2075 23.5027 4.0363 0.8825
19.7745 24.7328 4.1236 0.8801
17.7553 27.8628 4.3024 0.8752
17.2186 29.2765 4.4229 0.8720
16.5161 30.5256 4.5196 0.8694
15.0097 33.2041 4.7451 0.8633
13.8825 33.8834 4.7683 0.8627
6.4242 30.0881 4.0064 0.8833
1.1325 35.5389 4.6303 0.8664
-1.9018 25.2267 3.2944 0.9030
-2.2516 15.2438 2.0066 0.9397
-4.4270 24.0085 3.1791 0.9062
-5.5453 25.0272 3.3381 0.9018
-3.9634 15.2829 2.0560 0.9383
-11.6764 19.5081 2.9606 0.9124
-17.5704 27.1102 4.2069 0.8778
-17.5927 25.1314 3.9948 0.8836
-20.2930 20.1375 3.7229 0.8911
-23.3822 20.1038 4.0156 0.8830
-13.2914 9.8703 2.1559 0.9354
-34.0007 19.9972 5.1366 0.8529
-36.8784 19.9534 5.4602 0.8444
-39.8615 19.7618 5.7937 0.8357
-24.9992 7.2361 3.3890 0.9003
-41.1528 2.7842 5.3712 0.8467
37.8359 22.6463 4.7350 0.8374
28.0788 22.8060 3.8844 0.8646
21.3081 23.0637 3.3718 0.8813
20.2073 23.5025 3.3283 0.8828
19.2162 25.8766 3.4611 0.8784
18.3535 26.6523 3.4749 0.8779
17.7551 27.8624 3.5478 0.8755
17.2623 29.3507 3.6564 0.8720
15.6600 31.5876 3.7859 0.8678
15.0477 33.2882 3.9228 0.8633
12.4936 33.8941 3.8790 0.8647
5.1573 29.2278 3.1870 0.8875
1.1324 35.5382 3.8181 0.8667
-1.5209 38.4396 4.1309 0.8566
-2.7798 24.9527 2.6960 0.9039
-3.0991 16.8070 1.8352 0.9336
-5.5452 25.0271 2.7526 0.9020
-9.5943 32.2162 3.6096 0.8735
-9.6985 21.0224 2.4861 0.9111
-11.0661 21.8964 2.6345 0.9060
-10.9417 19.8562 2.4345 0.9128
-11.6472 19.4593 2.4353 0.9128
-17.4600 26.9399 3.4473 0.8788
-6.1560 8.7940 1.1527 0.9577
-6.2325 8.2593 1.1111 0.9592
-6.8067 7.7945 1.1112 0.9592
-21.6386 19.9914 3.1635 0.8882
-23.3302 20.0591 3.3039 0.8836
-24.9717 19.9655 3.4332 0.8793
-13.2713 9.8554 1.7751 0.9357
-29.1536 20.0759 3.8010 0.8673
-31.8044 20.2671 4.0497 0.8592
-36.8788 19.9536 4.5026 0.8448
-43.8150 19.8063 5.1633 0.8241
-32.4861 -12.2592 3.7285 0.8696
-31.3058 -17.2509 3.8383 0.8661
37.8850 22.6757 3.7377 0.8376
30.4280 22.9612 3.2269 0.8581
26.3257 22.9892 2.9587 0.8691
21.3081 23.0637 2.6581 0.8816
19.8242 24.7949 2.6874 0.8803
19.2160 25.8763 2.7284 0.8786
18.3538 26.6527 2.7394 0.8782
16.5578 30.6025 2.9455 0.8696
15.0475 33.2877 3.0924 0.8636
6.8535 16.7276 1.5303 0.9300
12.4934 33.8937 3.0579 0.8650
9.4500 37.6280 3.2842 0.8558
6.4209 30.0728 2.6031 0.8839
5.1944 29.4379 2.5305 0.8869
4.0251 28.7803 2.4600 0.8899
-0.1454 37.8095 3.2007 0.8592
-1.9177 25.4378 2.1595 0.9027
-9.5939 32.2147 2.8454 0.8738
-9.6969 21.0189 1.9595 0.9113
-10.9692 19.9062 1.9240 0.9128
-17.5708 27.1108 2.7349 0.8784
-6.2327 8.2594 0.8759 0.9593
-17.7093 21.8037 2.3779 0.8934
-6.8066 7.7945 0.8760 0.9593
-7.3916 7.8782 0.9145 0.9576
-21.6386 19.9914 2.4939 0.8885
-25.0521 20.0298 2.7152 0.8792
-13.2514 9.8406 1.3973 0.9359
-34.3132 20.1809 3.3698 0.8523
-43.5836 19.7017 4.0489 0.8253
-32.5116 -13.6135 2.9837 0.8681
-31.3059 -17.2509 3.0258 0.8663
35.3427 22.9059 2.6116 0.8447
30.4279 22.9612 2.3638 0.8583
15.9173 14.9342 1.3535 0.9162
22.6552 22.8302 1.9945 0.8791
21.1283 22.8691 1.9307 0.8827
20.2036 23.4982 1.9217 0.8832
19.0168 25.6082 1.9779 0.8800
18.3954 26.7131 2.0113 0.8781
17.7518 27.8574 2.0484 0.8760
17.0832 29.0462 2.0896 0.8737
16.3862 30.2854 2.1353 0.8711
15.6571 31.5818 2.1859 0.8683
14.8916 32.9428 2.2418 0.8651
6.8551 16.7313 1.1212 0.9301
12.4674 33.8230 2.2353 0.8655
10.1199 34.9620 2.2570 0.8643
9.4297 37.5470 2.4006 0.8563
6.4193 30.0651 1.9064 0.8841
1.5641 8.8644 0.5582 0.9646
4.0251 28.7805 1.8021 0.8901
3.1268 30.1743 1.8812 0.8855
2.2658 33.4893 2.0814 0.8741
1.1471 35.9980 2.2334 0.8656
-0.1450 37.6915 2.3373 0.8598
-1.5209 38.4379 2.3854 0.8571
-9.5842 32.1821 2.0822 0.8741
-11.0662 21.8966 1.5214 0.9064
-5.2549 9.5362 0.6752 0.9573
-5.4875 9.1682 0.6626 0.9581
-17.5711 27.1114 2.0034 0.8786
-6.2327 8.2596 0.6416 0.9594
-12.3018 15.1460 1.2100 0.9248
-8.8495 10.1338 0.8343 0.9475
-8.6589 9.2289 0.7847 0.9505
-21.5691 19.9273 1.8210 0.8890
-23.3302 20.0591 1.9079 0.8840
-13.2317 9.8259 1.0220 0.9361
-31.8040 20.2667 2.3386 0.8597
-34.5078 20.2954 2.4825 0.8518
-42.5759 19.2462 2.8974 0.8292
-26.5952 9.8031 1.7576 0.8926
-31.3059 -17.2509 2.2165 0.8665
37.7264 22.5807 1.7337 0.8386
35.2219 22.8276 1.6550 0.8453
30.4214 22.9563 1.5028 0.8585
26.3440 23.0052 1.3791 0.8694
24.5426 23.0268 1.3270 0.8740
19.6186 24.5377 1.2388 0.8818
17.7516 27.8570 1.3025 0.8761
14.7912 32.7207 1.4159 0.8661
11.3342 34.4959 1.4318 0.8647
6.4177 30.0576 1.2119 0.8842
1.1487 36.0489 1.4222 0.8656
-1.5208 38.4370 1.5168 0.8573
-4.4241 23.9925 0.9620 0.9070
-8.0125 30.8962 1.2586 0.8801
-11.0663 21.8967 0.9674 0.9065
-10.9694 19.9064 0.8962 0.9130
-17.0784 26.3512 1.2382 0.8819
-7.3395 9.0363 0.4590 0.9545
-18.7520 19.9863 1.0806 0.8961
-19.6592 19.5085 1.0921 0.8951
-21.6385 19.9914 1.1616 0.8888
-24.6225 19.6863 1.2431 0.8814
-29.1535 20.0759 1.3958 0.8679
-34.3131 20.1809 1.5697 0.8527
-38.8149 21.0011 1.7402 0.8381
-26.5501 9.7865 1.1158 0.8929
-44.4033 14.5894 1.8430 0.8294
38.3367 22.9460 0.7547 0.8363
35.3427 22.9059 0.7114 0.8449
21.5367 23.3111 0.5361 0.8808
20.4604 25.5907 0.5535 0.8772
18.4638 26.8125 0.5499 0.8779
17.8337 27.9858 0.5606 0.8757
15.7292 31.7273 0.5982 0.8679
14.8912 32.9419 0.6107 0.8653
12.4929 33.8923 0.6102 0.8654
11.3343 34.4962 0.6134 0.8648
10.1411 35.0351 0.6161 0.8642
4.0251 28.7809 0.4909 0.8902
2.2676 33.5169 0.5675 0.8742
1.1487 36.0491 0.6093 0.8656
-0.1454 37.8072 0.6386 0.8596
-1.5208 38.4361 0.6498 0.8574
-1.9178 25.4383 0.4309 0.9030
-5.5451 25.0268 0.4330 0.9025
-8.0125 30.8964 0.5392 0.8801
-10.9694 19.9066 0.3839 0.9131
-6.4539 9.2195 0.1901 0.9560
-6.7217 8.9075 0.1885 0.9563
-7.2565 8.9342 0.1944 0.9550
-17.3707 19.8917 0.4461 0.8997
-18.7198 18.5763 0.4455 0.8999
-22.0450 18.9541 0.4911 0.8902
-13.1925 9.7968 0.2776 0.9364
-27.0923 18.6565 0.5557 0.8767
-30.0394 19.1424 0.6017 0.8672
-31.8115 18.7096 0.6234 0.8627
-34.5533 18.6954 0.6636 0.8546
-42.8394 19.3653 0.7941 0.8285
-45.7289 6.3954 0.7800 0.8313
-31.3059 -17.2510 0.6038 0.8668
38.6256 23.1189 -0.2534 0.8352
35.3530 22.9126 -0.2372 0.8449
28.6029 23.2317 -0.2075 0.8630
20.7546 24.1390 -0.1792 0.8804
20.4607 25.5911 -0.1845 0.8772
19.0874 25.7032 -0.1803 0.8798
18.4636 26.8122 -0.1833 0.8779
17.1618 29.1797 -0.1906 0.8734
14.9600 33.0942 -0.2045 0.8648
12.4928 33.8918 -0.2034 0.8655
11.3344 34.4965 -0.2044 0.8648
1.5639 8.8631 -0.0507 0.9646
1.1487 36.0494 -0.2031 0.8657
-0.1454 37.8064 -0.2128 0.8597
-1.9178 25.4384 -0.1436 0.9030
-3.6444 24.6729 -0.1404 0.9051
-8.0126 30.8965 -0.1797 0.8801
-9.6905 21.0050 -0.1302 0.9116
-11.0664 21.8970 -0.1381 0.9065
-10.9695 19.9067 -0.1280 0.9131
-11.6768 19.5088 -0.1280 0.9131
-6.4620 9.2310 -0.0634 0.9559
-6.7301 8.9186 -0.0629 0.9563
-7.2592 8.9375 -0.0648 0.9550
-18.4927 21.1766 -0.1583 0.8936
-19.2103 20.4749 -0.1581 0.8938
-23.6266 20.3139 -0.1754 0.8828
-24.9717 19.9655 -0.1800 0.8800
-13.1730 9.7824 -0.0924 0.9365
-34.7490 20.4373 -0.2270 0.8511
-38.8155 21.0015 -0.2485 0.8382
-37.4971 18.5897 -0.2356 0.8459
-26.4606 9.7535 -0.1588 0.8933
-31.3059 -17.2510 -0.2012 0.8668
38.5766 23.0896 -1.2659 0.8353
35.3555 22.9142 -1.1863 0.8449
26.6287 23.2539 -0.9955 0.8681
24.7538 23.2250 -0.9558 0.8730
21.5367 23.3111 -0.8936 0.8807
17.8923 25.9825 -0.8883 0.8814
17.1803 29.2112 -0.9542 0.8732
16.4793 30.4575 -0.9751 0.8706
13.8835 33.8856 -1.0311 0.8637
12.2126 33.1318 -0.9943 0.8682
10.1408 35.0340 -1.0270 0.8642
9.4493 37.6252 -1.0923 0.8562
6.3699 29.8340 -0.8590 0.8851
4.0252 28.7813 -0.8183 0.8902
1.1487 36.0496 -1.0156 0.8656
-0.1454 37.8055 -1.0645 0.8596
-1.5207 38.4344 -1.0831 0.8573
-2.7799 24.9537 -0.7070 0.9044
-3.6442 24.6722 -0.7023 0.9050
-4.4026 23.8760 -0.6836 0.9074
-5.5451 25.0266 -0.7218 0.9025
-8.0126 30.8967 -0.8988 0.8801
-9.5916 32.2072 -0.9462 0.8742
-9.6469 20.9105 -0.6484 0.9120
-6.7301 8.9187 -0.3146 0.9563
-7.2588 8.9371 -0.3242 0.9550
-18.4929 21.1768 -0.7917 0.8936
-19.2105 20.4751 -0.7906 0.8937
-21.6386 19.9914 -0.8295 0.8888
-23.6266 20.3139 -0.8774 0.8828
-29.1535 20.0759 -0.9967 0.8679
-38.8159 21.0017 -1.2427 0.8381
-37.4906 18.5865 -1.1783 0.8458
-26.4161 9.7371 -0.7927 0.8935
-45.7033 6.3918 -1.2994 0.8314
-31.3059 -17.2510 -1.0065 0.8667
38.0035 22.7466 -2.2462 0.8375
26.3526 23.0127 -1.7743 0.8692
24.7836 23.2529 -1.7235 0.8727
21.5367 23.3111 -1.6095 0.8806
20.7538 24.1382 -1.6144 0.8803
20.5146 25.6584 -1.6660 0.8767
19.1078 25.7307 -1.6254 0.8795
17.7508 27.8557 -1.6751 0.8761
16.3852 30.2836 -1.7462 0.8712
15.6561 31.5798 -1.7876 0.8683
14.8907 32.9407 -1.8333 0.8652
10.9604 33.3584 -1.7807 0.8688
10.0990 34.8899 -1.8420 0.8646
3.9748 28.4206 -1.4554 0.8914
2.2675 33.5149 -1.7036 0.8741
-0.1433 37.2682 -1.8900 0.8613
-1.5103 38.1722 -1.9374 0.8581
-2.7800 24.9538 -1.2733 0.9043
-4.3888 23.8012 -1.2274 0.9076
-9.5270 31.9903 -1.6928 0.8749
-15.7077 46.5952 -2.4937 0.8212
-18.9787 45.3247 -2.4920 0.8214
-9.6113 20.8334 -1.1636 0.9122
-10.9696 19.9069 -1.1527 0.9130
-11.6769 19.5091 -1.1531 0.9130
-12.7366 19.6519 -1.1876 0.9105
-6.7302 8.9188 -0.5666 0.9562
-18.4930 21.1769 -1.4258 0.8935
-19.2107 20.4752 -1.4239 0.8936
-20.4346 20.2780 -1.4600 0.8911
-21.6385 19.9914 -1.4940 0.8887
-23.6265 20.3139 -1.5802 0.8827
-13.1342 9.7535 -0.8297 0.9366
-29.0600 20.0115 -1.7894 0.8682
-39.9661 19.8137 -2.2623 0.8364
-43.0669 17.6452 -2.3603 0.8299
-26.3716 9.7207 -1.4254 0.8935
-44.5217 11.1813 -2.3280 0.8321
-47.3286 3.2021 -2.4057 0.8270
-48.6882 -3.6705 -2.4762 0.8224
-48.5276 -5.4061 -2.4763 0.8224
-48.3061 -7.1351 -2.4764 0.8224
-47.2767 -12.2605 -2.4769 0.8223
-42.9294 -16.2002 -2.3270 0.8321
-42.3293 -17.7244 -2.3273 0.8321
-41.6758 -19.2268 -2.3276 0.8321
-40.9695 -20.7053 -2.3280 0.8321
26.1151 19.7067 -2.3988 0.8770
25.4529 20.6732 -2.4043 0.8768
21.3081 23.0637 -2.3023 0.8817
20.2160 23.5127 -2.2736 0.8831
17.8920 25.9821 -2.3131 0.8812
16.9306 28.7867 -2.4487 0.8746
14.8710 29.9962 -2.4548 0.8743
13.8058 30.5408 -2.4575 0.8742
12.7194 31.0445 -2.4599 0.8741
11.6136 31.5069 -2.4621 0.8740
10.4896 31.9253 -2.4639 0.8739
8.1949 32.6305 -2.4668 0.8738
1.5637 8.8618 -0.6598 0.9646
3.9747 28.4201 -2.1041 0.8913
3.1052 29.9660 -2.2089 0.8862
1.0724 33.6552 -2.4689 0.8737
-0.1295 33.6630 -2.4683 0.8737
-2.7224 24.4375 -1.8029 0.9061
-3.5415 23.9768 -1.7771 0.9074
-5.4605 24.6446 -1.8508 0.9037
-8.0127 30.8971 -2.3404 0.8798
-9.5271 31.9905 -2.4474 0.8747
-9.5122 20.6185 -1.6649 0.9130
-6.7303 8.9189 -0.8193 0.9562
-18.4932 21.1771 -2.0615 0.8934
-20.1626 20.0080 -2.0827 0.8923
-23.2728 20.0098 -2.2504 0.8842
-13.1148 9.7391 -1.1978 0.9366
-23.0994 15.9069 -2.0564 0.8936
-29.0099 13.1137 -2.3343 0.8801
-25.5927 10.4857 -2.0279 0.8950
-25.5332 9.4117 -1.9953 0.8966
-30.5702 8.8487 -2.3335 0.8802
-33.3654 5.8874 -2.4842 0.8729
-33.5529 4.6925 -2.4841 0.8729
-33.8003 2.2868 -2.4840 0.8730
-33.8507 -1.3394 -2.4840 0.8730
-33.5159 -4.9505 -2.4841 0.8729
-33.0804 -7.3296 -2.4843 0.8729
-32.4773 -9.6720 -2.4847 0.8729
-30.9492 -11.6792 -2.4255 0.8758
-28.9085 -13.3367 -2.3343 0.8801
-27.8898 -15.3685 -2.3349 0.8801
21.0972 12.6275 -2.3605 0.9059
20.1534 14.1079 -2.3618 0.9059
19.6719 14.8446 -2.3660 0.9057
19.1625 15.5640 -2.3701 0.9056
18.6257 16.2651 -2.3740 0.9054
17.4729 17.6079 -2.3815 0.9051
16.8584 18.2474 -2.3850 0.9050
16.2193 18.8642 -2.3884 0.9049
15.5567 19.4574 -2.3917 0.9047
14.8714 20.0260 -2.3947 0.9046
14.1642 20.5687 -2.3976 0.9045
12.6883 21.5736 -2.4028 0.9043
11.9220 22.0345 -2.4052 0.9042
10.3376 22.8687 -2.4094 0.9041
8.6918 23.5802 -2.4127 0.9039
6.9951 24.1665 -2.4153 0.9038
5.2570 24.6214 -2.4171 0.9038
1.5636 8.8614 -0.8639 0.9645
2.5962 25.0545 -2.4182 0.9037
1.7003 25.1311 -2.4182 0.9037
0.8021 25.1732 -2.4180 0.9037
-0.9953 25.1541 -2.4168 0.9038
-1.8781 24.9125 -2.3985 0.9045
-4.3386 23.5286 -2.2969 0.9083
-5.4315 24.5137 -2.4105 0.9040
-6.2982 24.2860 -2.4087 0.9041
-10.2193 20.2209 -2.1751 0.9130
-6.4729 9.2466 -1.0836 0.9557
-13.3657 13.2632 -1.8077 0.9271
-18.0324 16.6597 -2.3569 0.9061
-18.5811 15.9759 -2.3526 0.9062
-20.5439 13.0914 -2.3387 0.9067
-20.9959 12.3485 -2.3385 0.9068
-22.5318 9.2316 -2.3377 0.9068
-24.8961 7.2062 -2.4883 0.9011
-25.1400 6.3137 -2.4885 0.9011
-25.3483 5.4121 -2.4884 0.9011
-25.5243 4.5038 -2.4883 0.9011
-25.6680 3.5898 -2.4882 0.9011
-25.7792 2.6713 -2.4882 0.9011
-25.8577 1.7494 -2.4881 0.9011
-25.8963 -1.0246 -2.4881 0.9011
-25.8435 -1.9483 -2.4881 0.9011
-25.4890 -4.7000 -2.4883 0.9011
-25.3060 -5.6070 -2.4884 0.9011
-24.2558 -9.1533 -2.4890 0.9011
-23.5395 -10.8597 -2.4888 0.9011
-22.3220 -11.2812 -2.4012 0.9044
16.6596 10.7972 -2.3582 0.9231
15.8440 11.9560 -2.3578 0.9232
15.4057 12.5127 -2.3575 0.9232
13.9853 14.0933 -2.3585 0.9231
13.4894 14.6009 -2.3613 0.9230
12.9743 15.0901 -2.3639 0.9230
12.4409 15.5603 -2.3665 0.9229
10.7374 16.8498 -2.3734 0.9227
10.1377 17.2370 -2.3754 0.9226
8.2549 18.2612 -2.3805 0.9224
7.6024 18.5553 -2.3819 0.9224
6.2655 19.0694 -2.3843 0.9223
5.5830 19.2882 -2.3852 0.9223
1.5635 8.8610 -1.0688 0.9644
2.7838 19.9050 -2.3874 0.9222
2.0717 19.9930 -2.3876 0.9222
0.6401 20.0883 -2.3874 0.9222
-0.0773 20.0953 -2.3871 0.9222
-1.5099 20.0285 -2.3859 0.9223
-2.2231 19.9551 -2.3850 0.9223
-3.6378 19.7282 -2.3829 0.9224
-2.9189 13.1738 -1.6028 0.9471
-3.3867 13.0593 -1.6026 0.9471
-6.3920 18.9611 -2.3769 0.9226
-7.0591 18.7062 -2.3750 0.9226
-8.3609 18.1230 -2.3708 0.9228
-8.9937 17.7958 -2.3685 0.9228
-10.8095 16.6785 -2.3609 0.9231
-14.4811 13.3788 -2.3419 0.9237
-12.2773 10.5559 -1.9233 0.9369
-12.8562 8.8531 -1.8542 0.9391
-13.8964 8.8554 -1.9574 0.9358
-19.9247 6.5466 -2.4912 0.9190
-20.3391 5.1080 -2.4910 0.9190
-20.6504 3.6438 -2.4909 0.9190
-20.7667 2.9043 -2.4908 0.9190
-20.8567 2.1612 -2.4908 0.9190
-20.9203 1.4154 -2.4907 0.9190
-20.9678 -0.0806 -2.4907 0.9190
-20.9516 -0.8290 -2.4907 0.9190
-20.9088 -1.5763 -2.4907 0.9190
-20.8396 -2.3216 -2.4908 0.9190
-20.6217 -3.8025 -2.4909 0.9190
-20.4735 -4.5363 -2.4909 0.9190
-20.2993 -5.2643 -2.4910 0.9190
-19.8738 -6.6997 -2.4913 0.9190
-19.6230 -7.4051 -2.4914 0.9190
-19.3474 -8.1012 -2.4915 0.9190
-19.0471 -8.7872 -2.4917 0.9190
-18.7226 -9.4621 -2.4919 0.9190
-18.3743 -10.1250 -2.4920 0.9190
14.2733 8.5431 -2.3569 0.9350
13.6255 9.5382 -2.3566 0.9350
12.5248 10.9374 -2.3560 0.9350
12.1253 11.3764 -2.3558 0.9350
11.2808 12.2102 -2.3554 0.9350
10.8367 12.6038 -2.3552 0.9351
9.4243 13.6857 -2.3544 0.9351
8.9335 14.0190 -2.3554 0.9350
7.9214 14.6405 -2.3586 0.9350
6.8647 15.1858 -2.3613 0.9349
5.7692 15.6514 -2.3635 0.9348
5.2089 15.8535 -2.3644 0.9348
4.6413 16.0347 -2.3652 0.9348
4.0672 16.1947 -2.3659 0.9348
3.4873 16.3331 -2.3664 0.9348
1.5634 8.8605 -1.2748 0.9643
1.7220 16.6178 -2.3672 0.9347
0.5321 16.6973 -2.3670 0.9347
-0.0642 16.7037 -2.3668 0.9347
-1.2552 16.6497 -2.3658 0.9348
-1.8481 16.5895 -2.3651 0.9348
-2.9316 15.8984 -2.2906 0.9368
-2.9381 13.2603 -1.9244 0.9466
-3.4162 13.1729 -1.9282 0.9465
-5.8728 15.5625 -2.3568 0.9350
-7.4858 14.8120 -2.3515 0.9352
-7.6497 13.8821 -2.2458 0.9380
-8.1994 13.6990 -2.2621 0.9375
-6.4563 9.2229 -1.5952 0.9555
-7.2505 8.9269 -1.6295 0.9546
-11.7394 11.6495 -2.3433 0.9354
-12.1466 11.2220 -2.3431 0.9354
-12.1889 10.4799 -2.2776 0.9371
-12.1905 9.7466 -2.2115 0.9389
-12.7584 8.7858 -2.1949 0.9393
-13.7566 8.7663 -2.3113 0.9362
-14.2477 8.3797 -2.3420 0.9354
-14.5368 7.8653 -2.3419 0.9354
-15.4142 7.6418 -2.4377 0.9329
-16.0279 7.2453 -2.4922 0.9314
-16.7152 5.4920 -2.4929 0.9314
-16.8999 4.8917 -2.4928 0.9314
-17.2047 3.6734 -2.4927 0.9314
-17.3244 3.0569 -2.4926 0.9314
-17.4221 2.4366 -2.4926 0.9314
-17.4977 1.8131 -2.4925 0.9314
-17.5909 -0.0676 -2.4925 0.9314
-17.5773 -0.6955 -2.4925 0.9314
-17.0297 -4.4164 -2.4928 0.9314
-16.8618 -5.0216 -2.4928 0.9314
-15.4137 -8.4937 -2.4936 0.9314
12.7662 7.6411 -2.4510 0.9415
12.0000 7.7773 -2.3558 0.9437
11.7141 8.2001 -2.3556 0.9437
11.0977 9.0137 -2.3553 0.9437
10.4248 9.7810 -2.3549 0.9437
10.0683 10.1460 -2.3547 0.9437
9.3173 10.8366 -2.3544 0.9437
7.6774 12.0479 -2.3535 0.9437
7.2418 12.3131 -2.3533 0.9437
6.7971 12.5625 -2.3530 0.9437
5.4136 13.2130 -2.3523 0.9438
4.9380 13.3964 -2.3521 0.9438
3.4768 13.8439 -2.3515 0.9438
2.9810 13.9618 -2.3519 0.9438
1.9779 14.1423 -2.3525 0.9438
1.4719 14.2046 -2.3526 0.9438
-0.0549 14.2783 -2.3522 0.9438
-2.9636 13.3753 -2.2569 0.9460
-3.4955 13.4786 -2.2939 0.9451
-5.0297 13.3284 -2.3469 0.9439
-3.5655 8.5151 -1.5208 0.9633
-3.8127 8.2643 -1.4994 0.9638
-6.4236 12.7104 -2.3461 0.9439
-7.3126 12.2174 -2.3457 0.9439
-6.4564 9.2230 -1.8547 0.9554
-7.2502 8.9265 -1.8945 0.9545
-9.3613 10.7200 -2.3446 0.9439
-9.7372 10.3781 -2.3444 0.9439
-10.4511 9.6555 -2.3440 0.9440
-11.7155 8.0676 -2.3433 0.9440
-12.0215 7.6606 -2.3483 0.9439
-13.3168 7.2052 -2.4943 0.9405
-13.7976 6.2371 -2.4945 0.9405
-14.2062 5.2365 -2.4942 0.9405
-14.3835 4.7259 -2.4941 0.9405
-14.5425 4.2094 -2.4941 0.9405
-14.6830 3.6875 -2.4940 0.9405
-15.1299 0.4821 -2.4938 0.9405
-15.1374 -0.0582 -2.4937 0.9405
-15.1257 -0.5985 -2.4938 0.9405
-15.0949 -1.1380 -2.4938 0.9405
-15.0448 -1.6760 -2.4938 0.9405
-14.9756 -2.2120 -2.4938 0.9405
-14.6543 -3.8004 -2.4940 0.9405
-13.9663 -5.8480 -2.4944 0.9405
-13.5148 -6.8301 -2.4946 0.9405
-13.2631 -7.3086 -2.4947 0.9405
11.1898 7.2522 -2.5063 0.9472
10.8955 7.6271 -2.4998 0.9473
10.1412 7.6526 -2.3880 0.9496
9.4350 8.2392 -2.3544 0.9503
9.1343 8.5701 -2.3543 0.9503
8.8219 8.8901 -2.3541 0.9503
8.1641 9.4954 -2.3538 0.9503
7.8194 9.7800 -2.3536 0.9503
7.4647 10.0520 -2.3534 0.9503
7.1006 10.3112 -2.3532 0.9503
6.7275 10.5572 -2.3530 0.9503
6.3459 10.7897 -2.3528 0.9503
5.9562 11.0084 -2.3526 0.9503
5.1548 11.4032 -2.3522 0.9503
3.0467 12.1316 -2.3511 0.9504
1.5371 8.7114 -1.6627 0.9646
1.7320 12.3841 -2.3504 0.9504
0.3981 12.4946 -2.3497 0.9504
-0.0481 12.4996 -2.3495 0.9504
-0.9395 12.4619 -2.3490 0.9504
-1.3835 12.4192 -2.3488 0.9504
-1.8258 12.3606 -2.3485 0.9504
-2.2655 12.2864 -2.3483 0.9504
-2.7024 12.1965 -2.3481 0.9504
-3.1357 12.0911 -2.3478 0.9504
-4.4089 11.6834 -2.3472 0.9504
-3.8128 8.2647 -1.7108 0.9636
-4.8647 8.1276 -1.7804 0.9622
-6.7880 10.4736 -2.3459 0.9505
-8.2069 9.3980 -2.3452 0.9505
-8.8551 8.7873 -2.3448 0.9505
-9.4582 8.1321 -2.3445 0.9505
-11.6774 6.3181 -2.4956 0.9474
-12.2843 5.0331 -2.4952 0.9474
-12.7506 3.6907 -2.4950 0.9474
-12.9808 2.7716 -2.4949 0.9474
-13.1450 1.8384 -2.4948 0.9474
-13.2021 1.3680 -2.4948 0.9474
-13.2424 0.8959 -2.4947 0.9474
-13.2659 0.4227 -2.4947 0.9474
-13.1912 -1.4695 -2.4948 0.9474
-13.1305 -1.9395 -2.4948 0.9474
-12.8487 -3.3321 -2.4949 0.9474
-12.7219 -3.7887 -2.4950 0.9474
-12.2452 -5.1274 -2.4953 0.9474
-11.8492 -5.9884 -2.4955 0.9474
10.1765 6.0911 -2.5070 0.9527
8.1607 7.6567 -2.3654 0.9553
7.8428 7.9034 -2.3536 0.9555
7.5553 8.1778 -2.3534 0.9555
7.2581 8.4417 -2.3533 0.9555
6.6365 8.9367 -2.3530 0.9555
4.9424 9.9693 -2.3521 0.9555
2.3221 10.8756 -2.3507 0.9556
1.5308 8.6754 -1.8621 0.9646
1.1459 11.0586 -2.3501 0.9556
0.7504 11.0915 -2.3499 0.9556
0.3540 11.1102 -2.3497 0.9556
-0.4394 11.1052 -2.3492 0.9556
-0.8354 11.0814 -2.3490 0.9556
-1.2303 11.0436 -2.3488 0.9556
-2.4031 10.8460 -2.3482 0.9556
-2.7885 10.7524 -2.3480 0.9556
-3.9209 10.3901 -2.3474 0.9556
-3.5658 8.5159 -1.9515 0.9630
-5.1191 7.8986 -1.9896 0.9622
-6.3651 9.0927 -2.3461 0.9556
-6.6851 8.8591 -2.3460 0.9556
-6.9966 8.6142 -2.3458 0.9556
-7.2991 8.3584 -2.3457 0.9556
-7.5923 8.0921 -2.3455 0.9556
-7.8758 7.8154 -2.3454 0.9557
-8.2828 7.6522 -2.3836 0.9549
-8.8803 7.6352 -2.4755 0.9532
-9.2144 7.3671 -2.4937 0.9529
-9.7275 6.6987 -2.4966 0.9529
-9.9600 6.3469 -2.4965 0.9529
-10.1797 5.9871 -2.4963 0.9529
-10.3864 5.6197 -2.4962 0.9529
-10.5800 5.2452 -2.4961 0.9529
-10.9264 4.4767 -2.4960 0.9529
-11.2172 3.6856 -2.4958 0.9529
-11.3413 3.2828 -2.4957 0.9529
-11.6266 2.0515 -2.4956 0.9529
-11.7430 1.2168 -2.4955 0.9529
-11.7724 -0.8875 -2.4955 0.9529
-11.6793 -1.7251 -2.4956 0.9529
-11.6104 -2.1409 -2.4956 0.9529
-11.4286 -2.9638 -2.4957 0.9529
-11.1886 -3.7718 -2.4958 0.9529
-11.0471 -4.1688 -2.4959 0.9529
-10.7223 -4.9466 -2.4961 0.9529
-10.5393 -5.3264 -2.4961 0.9529
-10.3429 -5.6994 -2.4962 0.9529
8.5118 6.4231 -2.5061 0.9571
8.0311 7.0132 -2.5059 0.9571
7.7696 7.2897 -2.5039 0.9572
7.4908 7.5487 -2.4994 0.9572
7.0601 7.6418 -2.4452 0.9582
5.9680 8.0365 -2.3526 0.9597
5.6770 8.2438 -2.3524 0.9597
5.3787 8.4407 -2.3523 0.9597
4.4447 8.9654 -2.3518 0.9597
3.7933 9.2583 -2.3515 0.9597
3.4601 9.3871 -2.3513 0.9597
3.1227 9.5039 -2.3511 0.9597
1.8556 8.6910 -2.0886 0.9641
1.0306 9.9458 -2.3500 0.9597
0.6749 9.9755 -2.3498 0.9597
-0.0385 9.9966 -2.3495 0.9598
-0.7514 9.9668 -2.3491 0.9598
-1.4603 9.8863 -2.3487 0.9598
-1.8121 9.8271 -2.3485 0.9598
-2.5081 9.6713 -2.3482 0.9598
-3.5268 9.3457 -2.3476 0.9598
-3.5661 8.5166 -2.1700 0.9628
-4.5046 8.9132 -2.3471 0.9598
-5.1076 7.8807 -2.2071 0.9621
-5.7256 8.1792 -2.3465 0.9598
-6.2937 7.7489 -2.3462 0.9598
-6.6819 7.6517 -2.3875 0.9591
-7.1662 7.6379 -2.4615 0.9579
-8.5305 6.3348 -2.4972 0.9573
-9.1576 5.3859 -2.4969 0.9573
-9.3436 5.0554 -2.4968 0.9573
-9.5177 4.7185 -2.4967 0.9573
-9.6798 4.3757 -2.4966 0.9573
-9.8295 4.0273 -2.4965 0.9573
-9.9667 3.6738 -2.4965 0.9573
-10.2028 2.9533 -2.4963 0.9573
-10.3871 2.2178 -2.4962 0.9573
-10.5186 1.4711 -2.4962 0.9573
-10.5965 0.7169 -2.4961 0.9573
-10.5070 -1.5519 -2.4962 0.9573
-10.0654 -3.3931 -2.4964 0.9573
-9.9381 -3.7503 -2.4965 0.9573
-9.6458 -4.4500 -2.4966 0.9573
8.3049 4.9708 -2.5060 0.9608
7.7250 5.8293 -2.5057 0.9608
7.2888 6.3650 -2.5055 0.9608
7.0566 6.6208 -2.5054 0.9608
6.8155 6.8681 -2.5052 0.9608
5.6723 7.6384 -2.4634 0.9615
5.2675 7.6492 -2.4047 0.9624
4.8839 7.6641 -2.3530 0.9631
4.6050 7.8297 -2.3519 0.9632
4.3223 7.9886 -2.3517 0.9632
3.7409 8.2755 -2.3514 0.9632
3.4429 8.4032 -2.3513 0.9632
3.1406 8.5202 -2.3511 0.9632
2.8343 8.6263 -2.3510 0.9632
2.5244 8.7213 -2.3508 0.9632
2.2114 8.8053 -2.3506 0.9632
1.8323 8.5817 -2.2720 0.9644
1.5149 8.5853 -2.2572 0.9646
0.9355 9.0278 -2.3500 0.9632
0.6126 9.0548 -2.3498 0.9632
0.2890 9.0702 -2.3496 0.9632
-0.0349 9.0741 -2.3495 0.9632
-0.6821 9.0472 -2.3491 0.9632
-1.0045 9.0164 -2.3490 0.9632
-2.5885 8.6917 -2.3481 0.9632
-2.8969 8.5932 -2.3480 0.9632
-3.5020 8.3636 -2.3476 0.9632
-4.0892 8.0913 -2.3473 0.9632
-4.3751 7.9397 -2.3472 0.9632
-4.6554 7.7780 -2.3470 0.9632
-5.7616 7.6352 -2.4766 0.9612
-6.3434 7.2640 -2.4970 0.9609
-6.6019 7.0365 -2.4982 0.9609
-6.8485 6.7960 -2.4981 0.9609
-7.3152 6.2895 -2.4978 0.9609
-7.9445 5.4708 -2.4975 0.9609
-8.3139 4.8897 -2.4973 0.9609
-8.4828 4.5897 -2.4972 0.9609
-9.0486 3.3354 -2.4969 0.9609
-9.1617 3.0102 -2.4969 0.9609
-9.3527 2.3488 -2.4968 0.9609
-9.4961 1.6756 -2.4967 0.9609
-9.5498 1.3356 -2.4967 0.9609
-9.5913 0.9939 -2.4966 0.9609
-9.6206 0.6509 -2.4966 0.9609
-9.6377 0.3071 -2.4966 0.9609
-9.6425 -0.0371 -2.4966 0.9609
-9.5392 -1.4090 -2.4967 0.9609
-9.4830 -1.7486 -2.4967 0.9609
-9.3344 -2.4207 -2.4968 0.9609
-9.0227 -3.4049 -2.4969 0.9609
-8.8957 -3.7248 -2.4970 0.9609
-8.7573 -4.0401 -2.4971 0.9609
-8.6078 -4.3502 -2.4972 0.9609
7.5945 4.5456 -2.5056 0.9639
7.0643 5.3308 -2.5054 0.9639
6.8693 5.5793 -2.5053 0.9639
6.6655 5.8207 -2.5052 0.9639
6.4532 6.0546 -2.5051 0.9639
6.2327 6.2808 -2.5049 0.9639
6.0042 6.4990 -2.5048 0.9639
5.7682 6.7088 -2.5047 0.9639
5.5248 6.9101 -2.5046 0.9639
5.0139 7.2810 -2.5026 0.9639
4.7452 7.4465 -2.4997 0.9640
4.1332 7.6391 -2.4588 0.9645
3.7911 7.6470 -2.4162 0.9651
3.1487 7.6851 -2.3511 0.9661
2.0224 8.0530 -2.3505 0.9661
1.4426 8.1757 -2.3502 0.9661
0.2643 8.2956 -2.3496 0.9661
-0.0319 8.2992 -2.3495 0.9661
-1.5045 8.1590 -2.3487 0.9661
-1.7946 8.0996 -2.3485 0.9661
-2.0824 8.0298 -2.3484 0.9661
-2.9283 7.7598 -2.3479 0.9661
-3.5305 7.6527 -2.3859 0.9656
-3.8636 7.6450 -2.4249 0.9650
-4.5227 7.5562 -2.4930 0.9641
-5.5648 6.8515 -2.4988 0.9640
-6.0388 6.4364 -2.4985 0.9640
-6.2644 6.2164 -2.4984 0.9640
-7.0841 5.2607 -2.4980 0.9640
-7.2671 5.0043 -2.4979 0.9640
-7.7596 4.1984 -2.4976 0.9640
-8.0389 3.6339 -2.4975 0.9640
-8.2772 3.0510 -2.4973 0.9640
-8.3807 2.7536 -2.4973 0.9640
-8.6867 1.5328 -2.4971 0.9640
-8.8161 0.2809 -2.4971 0.9640
-8.8137 -0.3487 -2.4971 0.9640
-8.7261 -1.2889 -2.4971 0.9640
-8.6746 -1.5996 -2.4971 0.9640
-8.2535 -3.1146 -2.4973 0.9640
-8.1373 -3.4073 -2.4974 0.9640
-8.0107 -3.6957 -2.4975 0.9640
-7.8739 -3.9793 -2.4975 0.9640
-7.7271 -4.2580 -2.4976 0.9640
6.8351 4.4299 -2.5052 0.9665
6.6724 4.6708 -2.5052 0.9665
6.5012 4.9058 -2.5051 0.9665
6.1342 5.3567 -2.5049 0.9665
5.9388 5.5720 -2.5048 0.9665
5.7359 5.7802 -2.5047 0.9665
5.3085 6.1741 -2.5045 0.9665
5.0845 6.3594 -2.5043 0.9665
4.8540 6.5365 -2.5042 0.9665
4.6174 6.7053 -2.5041 0.9665
4.3749 6.8654 -2.5040 0.9665
4.1269 7.0168 -2.5038 0.9665
3.8736 7.1593 -2.5037 0.9665
3.0787 7.5142 -2.4977 0.9666
2.5091 7.6365 -2.4724 0.9669
1.6331 7.6488 -2.4056 0.9678
1.3502 7.6517 -2.3899 0.9680
1.0704 7.6540 -2.3771 0.9682
0.7933 7.6558 -2.3674 0.9683
0.5181 7.6571 -2.3605 0.9684
-0.0295 7.6590 -2.3558 0.9685
-0.3030 7.6577 -2.3572 0.9684
-0.5772 7.6568 -2.3617 0.9684
-0.8528 7.6554 -2.3692 0.9683
-1.4108 7.6510 -2.3929 0.9680
-1.6946 7.6479 -2.4094 0.9677
-1.9824 7.6442 -2.4290 0.9675
-2.2753 7.6400 -2.4519 0.9672
-2.5739 7.6351 -2.4782 0.9668
-2.8621 7.5844 -2.4934 0.9666
-3.9222 7.1177 -2.4996 0.9666
-5.1223 6.3066 -2.4990 0.9666
-5.5587 5.9246 -2.4988 0.9666
-5.9666 5.5125 -2.4986 0.9666
-6.1593 5.2958 -2.4985 0.9666
-6.3442 5.0723 -2.4984 0.9666
-6.5210 4.8425 -2.4983 0.9666
-6.6894 4.6065 -2.4982 0.9666
-7.0005 4.1173 -2.4980 0.9666
-7.2760 3.6072 -2.4979 0.9666
-7.3999 3.3451 -2.4978 0.9666
-7.8000 2.2577 -2.4976 0.9666
-7.8755 1.9779 -2.4975 0.9666
-7.9409 1.6955 -2.4975 0.9666
-8.0415 1.1246 -2.4975 0.9666
-8.0764 0.8369 -2.4974 0.9666
-8.1011 0.5481 -2.4974 0.9666
-8.1155 0.2586 -2.4974 0.9666
-8.1196 -0.0312 -2.4974 0.9666
-8.0967 -0.6104 -2.4974 0.9666
-8.0698 -0.8990 -2.4974 0.9666
-7.9852 -1.4724 -2.4975 0.9666
-7.9277 -1.7565 -2.4975 0.9666
-7.3740 -3.4019 -2.4978 0.9666
-7.2480 -3.6630 -2.4979 0.9666
-7.1129 -3.9195 -2.4979 0.9666
6.4663 3.8704 -2.5051 0.9687
6.1734 4.3216 -2.5049 0.9687
5.8490 4.7506 -2.5047 0.9687
5.3070 5.3480 -2.5045 0.9687
5.1126 5.5338 -2.5043 0.9687
4.9116 5.7125 -2.5042 0.9687
4.7044 5.8839 -2.5041 0.9687
4.4912 6.0478 -2.5040 0.9687
4.0479 6.3522 -2.5038 0.9687
3.5841 6.6242 -2.5036 0.9688
2.6043 7.0654 -2.5030 0.9688
2.0928 7.2301 -2.5020 0.9688
1.5701 7.3540 -2.4996 0.9688
1.3062 7.4025 -2.4986 0.9688
0.5070 7.4938 -2.4967 0.9688
-0.2969 7.5033 -2.4961 0.9688
-0.5645 7.4883 -2.4962 0.9688
-0.8315 7.4641 -2.4965 0.9688
-1.0976 7.4310 -2.4969 0.9688
-1.3625 7.3887 -2.4975 0.9688
-1.6258 7.3376 -2.4982 0.9688
-1.8873 7.2774 -2.4991 0.9688
-2.1467 7.2084 -2.5001 0.9688
-2.4029 7.1281 -2.5004 0.9688
-2.6557 7.0374 -2.5003 0.9688
-2.9050 6.9378 -2.5002 0.9688
-4.5290 6.0018 -2.4993 0.9688
-4.9452 5.6629 -2.4991 0.9688
-5.3361 5.2952 -2.4989 0.9688
-5.5215 5.1012 -2.4988 0.9688
-5.6999 4.9007 -2.4987 0.9688
-5.8709 4.6940 -2.4986 0.9688
-6.0345 4.4813 -2.4985 0.9688
-6.3384 4.0391 -2.4984 0.9688
-6.4784 3.8102 -2.4983 0.9688
-6.6101 3.5764 -2.4982 0.9688
-6.8480 3.0956 -2.4981 0.9688
-7.0511 2.5991 -2.4980 0.9688
-7.2882 1.8304 -2.4979 0.9688
-7.4000 1.3057 -2.4978 0.9688
-7.4418 1.0408 -2.4978 0.9688
-7.4742 0.7745 -2.4978 0.9688
-7.4970 0.5072 -2.4977 0.9688
-7.5083 -0.2971 -2.4977 0.9688
-7.3897 -1.3626 -2.4978 0.9688
-7.3365 -1.6255 -2.4978 0.9688
-7.2020 -2.1448 -2.4979 0.9688
-7.1210 -2.4006 -2.4979 0.9688
-7.0309 -2.6532 -2.4980 0.9688
-6.8240 -3.1482 -2.4981 0.9688
-6.5824 -3.6272 -2.4982 0.9688
6.0101 3.5973 -2.5048 0.9707
5.5906 4.2187 -2.5046 0.9707
5.4363 4.4154 -2.5045 0.9707
5.2751 4.6065 -2.5044 0.9707
4.3725 5.4689 -2.5040 0.9707
4.1744 5.6212 -2.5039 0.9707
3.9709 5.7664 -2.5038 0.9707
3.7624 5.9042 -2.5036 0.9707
3.3313 6.1570 -2.5034 0.9707
3.1093 6.2717 -2.5033 0.9707
1.4612 6.8435 -2.5024 0.9707
0.9691 6.9296 -2.5022 0.9707
0.7211 6.9594 -2.5021 0.9707
0.4723 6.9803 -2.5019 0.9707
-0.2766 6.9897 -2.5015 0.9707
-0.5258 6.9750 -2.5014 0.9707
-1.0220 6.9190 -2.5011 0.9707
-1.2682 6.8778 -2.5010 0.9707
-1.5128 6.8278 -2.5009 0.9707
-1.7555 6.7691 -2.5008 0.9707
-1.9959 6.7018 -2.5006 0.9707
-2.4686 6.5417 -2.5004 0.9707
-2.7004 6.4491 -2.5003 0.9707
-2.9287 6.3483 -2.5001 0.9707
-3.3738 6.1226 -2.4999 0.9707
-3.8017 5.8658 -2.4997 0.9707
-4.2101 5.5792 -2.4995 0.9707
-4.5970 5.2642 -2.4993 0.9707
-4.7818 5.0966 -2.4992 0.9707
-4.9605 4.9224 -2.4991 0.9707
-5.2986 4.5557 -2.4989 0.9708
-5.7547 3.9628 -2.4987 0.9708
-6.0224 3.5420 -2.4985 0.9708
-6.1448 3.3247 -2.4985 0.9708
-6.3661 2.8777 -2.4983 0.9708
-6.4646 2.6486 -2.4983 0.9708
-6.5549 2.4162 -2.4982 0.9708
-6.7103 1.9423 -2.4982 0.9708
-6.7753 1.7016 -2.4981 0.9708
-6.9181 0.9675 -2.4980 0.9708
-6.9482 0.7200 -2.4980 0.9708
-6.9695 0.4715 -2.4980 0.9708
-6.9818 0.2225 -2.4980 0.9708
-6.9853 -0.0269 -2.4980 0.9708
-6.9799 -0.2762 -2.4980 0.9708
-6.9105 -1.0207 -2.4981 0.9708
-6.8202 -1.5111 -2.4981 0.9708
-6.7620 -1.7536 -2.4981 0.9708
-6.6199 -2.2316 -2.4982 0.9708
-6.5361 -2.4665 -2.4982 0.9708
-6.4440 -2.6983 -2.4983 0.9708
-6.3437 -2.9266 -2.4983 0.9708
-6.2354 -3.1512 -2.4984 0.9708
5.6079 3.3566 -2.5046 0.9724
5.3539 3.7479 -2.5045 0.9724
5.2166 3.9365 -2.5044 0.9724
5.0726 4.1200 -2.5043 0.9724
4.9222 4.2983 -2.5042 0.9724
4.6027 4.6382 -2.5041 0.9724
4.4340 4.7994 -2.5040 0.9724
4.2598 4.9544 -2.5039 0.9724
3.8952 5.2453 -2.5037 0.9724
3.7053 5.3807 -2.5036 0.9724
3.3117 5.6309 -2.5034 0.9724
3.1085 5.7453 -2.5033 0.9724
2.6905 5.9519 -2.5031 0.9724
2.2588 6.1281 -2.5029 0.9724
2.0386 6.2045 -2.5027 0.9724
1.5906 6.3335 -2.5025 0.9724
1.3635 6.3860 -2.5024 0.9724
1.1346 6.4303 -2.5023 0.9724
0.9044 6.4664 -2.5021 0.9724
0.6729 6.4942 -2.5020 0.9724
0.2079 6.5250 -2.5018 0.9724
-0.0251 6.5280 -2.5017 0.9724
-0.7227 6.4870 -2.5013 0.9724
-0.9537 6.4567 -2.5012 0.9724
-1.1835 6.4183 -2.5011 0.9724
-1.6382 6.3169 -2.5008 0.9724
-1.8625 6.2541 -2.5007 0.9724
-2.0845 6.1833 -2.5006 0.9724
-2.5200 6.0183 -2.5004 0.9724
-2.7331 5.9243 -2.5002 0.9724
-2.9427 5.8227 -2.5001 0.9724
-3.3503 5.5975 -2.4999 0.9724
-3.5478 5.4741 -2.4998 0.9724
-3.7408 5.3437 -2.4997 0.9724
-4.2901 4.9127 -2.4994 0.9724
-4.4625 4.7563 -2.4993 0.9724
-4.7901 4.4255 -2.4992 0.9725
-4.9449 4.2516 -2.4991 0.9725
-5.3705 3.6983 -2.4989 0.9725
-5.7346 3.1028 -2.4987 0.9725
-5.9411 2.6857 -2.4986 0.9725
-6.0331 2.4719 -2.4985 0.9725
-6.1174 2.2549 -2.4985 0.9725
-6.1938 2.0351 -2.4984 0.9725
-6.3757 1.3613 -2.4983 0.9725
-6.4201 1.1328 -2.4983 0.9725
-6.4845 0.6719 -2.4983 0.9725
-6.5141 -0.2578 -2.4983 0.9725
-6.5007 -0.4901 -2.4983 0.9725
-6.4791 -0.7218 -2.4983 0.9725
-6.4493 -0.9526 -2.4983 0.9725
-6.3650 -1.4103 -2.4983 0.9725
-6.3107 -1.6366 -2.4984 0.9725
-6.2483 -1.8608 -2.4984 0.9725
-6.1780 -2.0827 -2.4984 0.9725
-5.8192 -2.9409 -2.4986 0.9725
5.2505 3.1426 -2.5044 0.9739
5.1349 3.3279 -2.5044 0.9739
4.8841 3.6856 -2.5042 0.9739
4.3094 4.3427 -2.5039 0.9739
3.8201 4.7779 -2.5037 0.9739
3.1008 5.2722 -2.5033 0.9739
2.7165 5.4795 -2.5031 0.9739
1.9088 5.8094 -2.5027 0.9739
1.7001 5.8735 -2.5026 0.9739
1.0624 6.0208 -2.5022 0.9739
0.8468 6.0546 -2.5021 0.9739
0.6301 6.0807 -2.5020 0.9739
0.1947 6.1096 -2.5018 0.9739
-0.2417 6.1074 -2.5015 0.9739
-1.1082 6.0097 -2.5011 0.9739
-1.3219 5.9661 -2.5010 0.9739
-1.5339 5.9148 -2.5009 0.9739
-1.7440 5.8561 -2.5008 0.9739
-1.9518 5.7898 -2.5007 0.9739
-2.3597 5.6354 -2.5004 0.9739
-2.7554 5.4522 -2.5002 0.9739
-3.1371 5.2413 -2.5000 0.9739
-3.3221 5.1258 -2.4999 0.9739
-3.6790 4.8754 -2.4997 0.9739
-3.8505 4.7408 -2.4997 0.9739
-4.1787 4.4537 -2.4995 0.9740
-4.3348 4.3016 -2.4994 0.9740
-4.4854 4.1440 -2.4993 0.9740
-4.6304 3.9812 -2.4992 0.9740
-4.7694 3.8132 -2.4992 0.9740
-4.9023 3.6405 -2.4991 0.9740
-5.0290 3.4631 -2.4990 0.9740
-5.2629 3.0953 -2.4989 0.9740
-5.5633 2.5149 -2.4988 0.9740
-5.6494 2.3147 -2.4987 0.9740
-5.7284 2.1115 -2.4987 0.9740
-5.8000 1.9057 -2.4986 0.9740
-5.9210 1.4870 -2.4986 0.9740
-6.0459 0.8455 -2.4985 0.9740
-6.0722 0.6292 -2.4985 0.9740
-6.0907 0.4121 -2.4985 0.9740
-6.1015 0.1944 -2.4985 0.9740
-6.1046 -0.0235 -2.4985 0.9740
-5.9603 -1.3206 -2.4985 0.9740
-5.5438 -2.5576 -2.4988 0.9740
4.9304 2.9511 -2.5043 0.9752
4.8218 3.1251 -2.5042 0.9752
4.7071 3.2951 -2.5041 0.9752
4.3276 3.7791 -2.5039 0.9752
4.0467 4.0780 -2.5038 0.9752
3.8985 4.2197 -2.5037 0.9752
3.7452 4.3560 -2.5036 0.9752
3.2578 4.7309 -2.5034 0.9752
2.9118 4.9509 -2.5032 0.9752
2.5510 5.1456 -2.5030 0.9753
2.3656 5.2332 -2.5029 0.9753
2.1772 5.3141 -2.5028 0.9753
1.9861 5.3882 -2.5027 0.9753
1.5965 5.5157 -2.5025 0.9753
1.1989 5.6151 -2.5023 0.9753
0.9977 5.6540 -2.5022 0.9753
0.7952 5.6858 -2.5021 0.9753
0.3875 5.7276 -2.5019 0.9753
0.1828 5.7375 -2.5018 0.9753
-0.0221 5.7401 -2.5017 0.9753
-0.2269 5.7354 -2.5016 0.9753
-1.2414 5.6028 -2.5010 0.9753
-1.6378 5.4995 -2.5008 0.9753
-2.0258 5.3683 -2.5006 0.9753
-2.4034 5.2096 -2.5004 0.9753
-2.5877 5.1203 -2.5003 0.9753
-3.1199 4.8138 -2.5000 0.9753
-3.6162 4.4523 -2.4998 0.9753
-3.7727 4.3202 -2.4997 0.9753
-3.9244 4.1827 -2.4996 0.9753
-4.0710 4.0398 -2.4995 0.9753
-4.2125 3.8918 -2.4995 0.9753
-4.3486 3.7389 -2.4994 0.9753
-4.4792 3.5812 -2.4993 0.9753
-5.1373 2.5469 -2.4990 0.9753
-5.2249 2.3619 -2.4989 0.9753
-5.3799 1.9831 -2.4989 0.9753
-5.4472 1.7897 -2.4988 0.9753
-5.5075 1.5942 -2.4988 0.9753
-5.5608 1.3966 -2.4988 0.9753
-5.6462 0.9963 -2.4987 0.9753
-5.7304 0.1826 -2.4987 0.9753
-5.7288 -0.2267 -2.4987 0.9753
-5.6718 -0.8378 -2.4987 0.9753
-5.6384 -1.0397 -2.4987 0.9753
-5.5977 -1.2403 -2.4987 0.9753
-5.5499 -1.4393 -2.4988 0.9753
-5.4951 -1.6365 -2.4988 0.9753
-5.2066 -2.4020 -2.4989 0.9753
-5.0221 -2.7674 -2.4990 0.9753
4.5396 2.9422 -2.5040 0.9764
4.1988 3.4103 -2.5039 0.9764
4.0743 3.5579 -2.5038 0.9764
3.8099 3.8393 -2.5037 0.9764
3.6703 3.9727 -2.5036 0.9764
3.5261 4.1011 -2.5035 0.9764
3.0672 4.4541 -2.5033 0.9764
2.7414 4.6612 -2.5031 0.9764
1.5031 5.1930 -2.5025 0.9765
1.3168 5.2432 -2.5024 0.9765
0.9393 5.3234 -2.5022 0.9765
0.5571 5.3764 -2.5020 0.9765
-0.0208 5.4045 -2.5017 0.9765
-0.4063 5.3888 -2.5015 0.9765
-0.5983 5.3706 -2.5014 0.9765
-1.1688 5.2753 -2.5011 0.9765
-1.3563 5.2300 -2.5010 0.9765
-1.5421 5.1780 -2.5009 0.9765
-1.7258 5.1195 -2.5008 0.9765
-1.9074 5.0544 -2.5007 0.9765
-2.0865 4.9830 -2.5006 0.9765
-2.4365 4.8211 -2.5004 0.9765
-2.7740 4.6346 -2.5002 0.9765
-2.9376 4.5325 -2.5001 0.9765
-3.0974 4.4246 -2.5001 0.9765
-3.2532 4.3111 -2.5000 0.9765
-3.4049 4.1921 -2.4999 0.9765
-3.6951 3.9383 -2.4997 0.9765
-4.0945 3.5205 -2.4995 0.9765
-4.2175 3.3720 -2.4995 0.9765
-4.3350 3.2192 -2.4994 0.9765
-4.4471 3.0624 -2.4993 0.9765
-4.5534 2.9016 -2.4993 0.9765
-4.7486 2.5693 -2.4992 0.9765
-4.8372 2.3981 -2.4991 0.9765
-4.9197 2.2239 -2.4991 0.9765
-4.9958 2.0469 -2.4991 0.9765
-5.2796 1.1272 -2.4989 0.9765
-5.3464 0.7477 -2.4989 0.9765
-5.3957 0.1719 -2.4988 0.9765
-5.3984 -0.0208 -2.4988 0.9765
-5.3090 -0.9790 -2.4989 0.9765
-5.1741 -1.5409 -2.4990 0.9765
-4.9799 -2.0852 -2.4991 0.9765
-4.9024 -2.2617 -2.4991 0.9765
4.3800 2.6216 -2.5040 0.9775
4.2836 2.7762 -2.5039 0.9775
4.1817 2.9273 -2.5039 0.9775
3.8445 3.3573 -2.5037 0.9775
3.7222 3.4923 -2.5036 0.9775
3.4634 3.7487 -2.5035 0.9775
3.3273 3.8698 -2.5034 0.9775
2.8943 4.2030 -2.5032 0.9775
2.7423 4.3034 -2.5031 0.9775
2.5869 4.3984 -2.5030 0.9775
2.4282 4.4878 -2.5029 0.9775
2.2664 4.5715 -2.5029 0.9775
2.1017 4.6493 -2.5028 0.9775
1.9343 4.7212 -2.5027 0.9775
1.2426 4.9477 -2.5023 0.9775
1.0652 4.9887 -2.5022 0.9775
0.8864 5.0233 -2.5021 0.9775
0.5257 5.0734 -2.5019 0.9775
0.3443 5.0887 -2.5019 0.9775
-0.2016 5.0958 -2.5016 0.9775
-0.3834 5.0852 -2.5015 0.9775
-0.5646 5.0680 -2.5014 0.9775
-0.9246 5.0145 -2.5012 0.9775
-1.1030 4.9781 -2.5011 0.9775
-1.2799 4.9354 -2.5010 0.9775
-1.8000 4.7698 -2.5007 0.9775
-1.9690 4.7023 -2.5006 0.9775
-2.1355 4.6289 -2.5006 0.9775
-2.2993 4.5496 -2.5005 0.9775
-2.4601 4.4644 -2.5004 0.9775
-2.6178 4.3736 -2.5003 0.9775
-2.7721 4.2773 -2.5002 0.9775
-2.9230 4.1755 -2.5001 0.9775
-3.3522 3.8388 -2.4999 0.9775
-3.4870 3.7166 -2.4998 0.9776
-3.6174 3.5896 -2.4998 0.9776
-3.7431 3.4581 -2.4997 0.9776
-3.8640 3.3223 -2.4996 0.9776
-3.9800 3.1822 -2.4996 0.9776
-4.1967 2.8900 -2.4995 0.9776
-4.2971 2.7383 -2.4994 0.9776
-4.4813 2.4246 -2.4993 0.9776
-4.7805 1.7621 -2.4992 0.9776
-4.8939 1.4166 -2.4991 0.9776
-5.0171 0.8853 -2.4990 0.9776
-5.0455 0.7056 -2.4990 0.9776
-5.0830 0.3439 -2.4990 0.9776
-5.0945 -0.0196 -2.4990 0.9776
-5.0802 -0.3830 -2.4990 0.9776
-5.0399 -0.7444 -2.4990 0.9776
-4.9741 -1.1021 -2.4991 0.9776
-4.8829 -1.4542 -2.4991 0.9776
-4.5474 -2.2982 -2.4993 0.9776
-4.4626 -2.4591 -2.4993 0.9776
4.1413 2.4787 -2.5038 0.9785
4.0501 2.6249 -2.5038 0.9785
3.8523 2.9070 -2.5037 0.9785
3.7461 3.0426 -2.5036 0.9785
3.6350 3.1743 -2.5036 0.9785
3.5193 3.3019 -2.5035 0.9785
3.3991 3.4254 -2.5035 0.9785
3.1459 3.6589 -2.5033 0.9785
2.7365 3.9739 -2.5031 0.9785
2.5929 4.0689 -2.5030 0.9785
2.2958 4.2433 -2.5029 0.9785
1.9872 4.3960 -2.5027 0.9785
1.8289 4.4639 -2.5026 0.9785
1.5057 4.5827 -2.5025 0.9785
1.1749 4.6781 -2.5023 0.9785
0.4971 4.7971 -2.5019 0.9785
0.3255 4.8116 -2.5018 0.9785
-0.7045 4.7698 -2.5013 0.9785
-1.3760 4.6203 -2.5010 0.9785
-1.5400 4.5681 -2.5009 0.9785
-1.8618 4.4463 -2.5007 0.9785
-2.0192 4.3769 -2.5006 0.9785
-2.1741 4.3019 -2.5005 0.9785
-2.4753 4.1355 -2.5004 0.9785
-2.6212 4.0444 -2.5003 0.9785
-3.0383 3.7407 -2.5001 0.9785
-3.1698 3.6298 -2.5000 0.9785
-3.2972 3.5143 -2.4999 0.9785
-3.5394 3.2699 -2.4998 0.9785
-3.8683 2.8727 -2.4996 0.9785
-4.3165 2.1400 -2.4994 0.9785
-4.3901 1.9845 -2.4994 0.9785
-4.4581 1.8265 -2.4993 0.9785
-4.5769 1.5038 -2.4993 0.9785
-4.7113 1.0059 -2.4992 0.9785
-4.7710 0.6672 -2.4992 0.9785
-4.8064 0.3252 -2.4992 0.9785
-4.8136 -0.1905 -2.4991 0.9785
-4.8038 -0.3621 -2.4992 0.9785
-4.7376 -0.8736 -2.4992 0.9785
-4.7034 -1.0421 -2.4992 0.9785
-4.6633 -1.2094 -2.4992 0.9785
-4.5652 -1.5390 -2.4993 0.9785
-4.5074 -1.7010 -2.4993 0.9785
-4.2999 -2.1731 -2.4994 0.9785
3.9224 2.3477 -2.5037 0.9794
3.7448 2.6214 -2.5036 0.9794
3.6488 2.7534 -2.5036 0.9794
3.5481 2.8818 -2.5035 0.9794
3.4429 3.0065 -2.5035 0.9794
3.3333 3.1274 -2.5034 0.9794
3.1016 3.3571 -2.5033 0.9794
2.8540 3.5696 -2.5032 0.9794
2.7247 3.6691 -2.5031 0.9794
2.1746 4.0191 -2.5028 0.9794
2.0297 4.0940 -2.5027 0.9794
1.8822 4.1637 -2.5027 0.9794
1.2703 4.3887 -2.5023 0.9794
0.7938 4.4988 -2.5021 0.9794
0.6327 4.5241 -2.5020 0.9794
0.1455 4.5654 -2.5017 0.9794
-0.0176 4.5675 -2.5017 0.9794
-0.1806 4.5638 -2.5016 0.9794
-0.3433 4.5543 -2.5015 0.9794
-0.8281 4.4911 -2.5012 0.9794
-0.9879 4.4585 -2.5012 0.9794
-1.1463 4.4203 -2.5011 0.9794
-1.3033 4.3764 -2.5010 0.9794
-1.4587 4.3269 -2.5009 0.9794
-2.2034 3.9986 -2.5005 0.9794
-2.3446 3.9173 -2.5004 0.9794
-2.4829 3.8310 -2.5004 0.9794
-2.7497 3.6439 -2.5002 0.9794
-2.8779 3.5433 -2.5002 0.9794
-3.0025 3.4382 -2.5001 0.9794
-3.2400 3.2151 -2.5000 0.9794
-3.3526 3.0974 -2.4999 0.9794
-3.4609 2.9756 -2.4999 0.9794
-3.5648 2.8502 -2.4998 0.9794
-3.6642 2.7211 -2.4998 0.9794
-3.8488 2.4526 -2.4997 0.9794
-4.0888 2.0271 -2.4995 0.9794
-4.1585 1.8798 -2.4995 0.9794
-4.2228 1.7302 -2.4995 0.9794
-4.2819 1.5783 -2.4994 0.9794
-4.3354 1.4245 -2.4994 0.9794
-4.5389 0.4703 -2.4993 0.9794
-4.5528 0.3080 -2.4993 0.9794
-4.5632 -0.0176 -2.4993 0.9794
-4.5596 -0.1804 -2.4993 0.9794
-4.5503 -0.3430 -2.4993 0.9794
-4.4553 -0.9871 -2.4993 0.9794
-4.2094 -1.7626 -2.4995 0.9794
-4.1439 -1.9117 -2.4995 0.9794
3.7208 2.2271 -2.5036 0.9802
3.5523 2.4867 -2.5035 0.9802
3.3658 2.7337 -2.5034 0.9802
3.1620 2.9667 -2.5033 0.9802
2.7074 3.3862 -2.5031 0.9802
2.4588 3.5705 -2.5030 0.9802
2.1977 3.7367 -2.5028 0.9802
1.7855 3.9498 -2.5026 0.9802
1.6433 4.0109 -2.5025 0.9802
1.4991 4.0669 -2.5025 0.9802
1.2051 4.1632 -2.5023 0.9802
0.6002 4.2918 -2.5020 0.9802
0.4467 4.3104 -2.5019 0.9802
0.2925 4.3234 -2.5018 0.9802
-0.1713 4.3295 -2.5016 0.9802
-0.3257 4.3205 -2.5015 0.9802
-0.7856 4.2605 -2.5013 0.9802
-1.6730 3.9954 -2.5008 0.9802
-1.8145 3.9330 -2.5007 0.9802
-1.9536 3.8656 -2.5006 0.9802
-2.0903 3.7933 -2.5006 0.9802
-2.2243 3.7162 -2.5005 0.9802
-2.3555 3.6343 -2.5004 0.9802
-2.6086 3.4569 -2.5003 0.9802
-2.7302 3.3615 -2.5002 0.9802
-2.8484 3.2618 -2.5002 0.9802
-2.9629 3.1580 -2.5001 0.9802
-3.1805 2.9384 -2.5000 0.9802
-3.2833 2.8230 -2.5000 0.9802
-3.7320 2.1949 -2.4997 0.9802
-3.8079 2.0603 -2.4997 0.9802
-4.0062 1.6414 -2.4996 0.9802
-4.1585 1.2037 -2.4995 0.9802
-4.1988 1.0545 -2.4995 0.9802
-4.2338 0.9040 -2.4995 0.9802
-4.2874 0.5996 -2.4994 0.9802
-4.3061 0.4462 -2.4994 0.9802
-4.3192 0.2922 -2.4994 0.9802
-4.3269 0.1379 -2.4994 0.9802
-4.3291 -0.0166 -2.4994 0.9802
-4.3257 -0.1712 -2.4994 0.9802
-4.3169 -0.3254 -2.4994 0.9802
-4.2267 -0.9365 -2.4995 0.9802
-4.1906 -1.0868 -2.4995 0.9802
-4.1492 -1.2356 -2.4995 0.9802
-4.1025 -1.3830 -2.4995 0.9802
-4.0505 -1.5285 -2.4995 0.9802
-3.8641 -1.9528 -2.4996 0.9802
-3.7920 -2.0895 -2.4997 0.9802
