ply
format ascii 1.0
element vertex 511
property float32 x
property float32 y
property float32 z
property float32 I
end_header
-14.7649 20.2255 4.4155 0.9033
-15.7880 20.0755 4.5034 0.9015
-11.6054 8.2466 2.5105 0.9438
-11.6438 7.0773 2.4026 0.9462
-14.7648 20.2253 3.8362 0.9036
-15.7880 20.0755 3.9126 0.9018
-17.1355 20.2520 4.0640 0.8982
-23.2641 20.6220 4.7626 0.8818
-11.6113 9.5724 2.3053 0.9409
-11.5994 8.8843 2.2383 0.9426
-11.6047 8.2462 2.1808 0.9440
-35.1313 19.6658 6.1678 0.8497
-38.4377 19.7431 6.6198 0.8396
-42.2849 19.8385 7.1553 0.8278
-15.7377 20.0116 3.3152 0.9024
-18.3297 20.1527 3.5474 0.8959
-19.5983 20.0549 3.6515 0.8931
-21.3085 20.2969 3.8322 0.8881
-23.6993 19.5377 3.9997 0.8835
-11.6041 8.2457 1.8537 0.9442
-29.9360 19.6976 4.6665 0.8654
-32.6246 19.8298 4.9716 0.8573
-35.1313 19.6659 5.2428 0.8501
-38.4377 19.7431 5.6271 0.8400
-28.8908 6.5738 3.8583 0.8873
-15.7880 20.0755 2.7425 0.9024
-17.1353 20.2517 2.8486 0.8988
-18.4329 20.2662 2.9417 0.8956
-21.2980 20.2869 3.1585 0.8884
-23.6993 19.5377 3.2982 0.8838
-13.0131 9.9671 1.7601 0.9362
-11.6035 8.2453 1.5285 0.9443
-29.9360 19.6976 3.8480 0.8657
-35.1313 19.6659 4.3233 0.8505
-42.2849 19.8385 5.0155 0.8287
-28.9053 6.5772 3.1832 0.8876
-14.7646 20.2250 2.1198 0.9044
-17.1352 20.2516 2.2457 0.8990
-21.3082 20.2967 2.4911 0.8886
-25.3655 20.9112 2.7829 0.8764
-29.2494 19.2458 2.9640 0.8689
-31.7092 19.2733 3.1412 0.8616
-35.1313 19.6659 3.4082 0.8508
-42.2797 19.8360 3.9534 0.8291
-19.5983 20.0549 1.7388 0.8937
-18.8484 15.5386 1.5148 0.9067
-11.6017 8.2440 0.8826 0.9446
-29.4289 19.3639 2.1845 0.8683
-32.0440 19.4768 2.3253 0.8605
-34.6974 19.4230 2.4658 0.8527
-37.8841 19.4587 2.6410 0.8431
-13.9025 19.0442 0.9297 0.9099
-11.6004 8.2430 0.5611 0.9446
-32.0440 19.4768 1.4786 0.8606
-31.0410 14.5633 1.3520 0.8717
-45.8709 19.5483 1.9661 0.8191
-13.6184 18.6550 0.3901 0.9117
-16.6583 19.6880 0.4356 0.9020
-20.6059 19.6277 0.4807 0.8924
-12.9629 9.9286 0.2758 0.9368
-29.4289 19.3639 0.5951 0.8685
-32.0440 19.4768 0.6334 0.8607
-37.8841 19.4587 0.7194 0.8433
-45.8710 19.5483 0.8423 0.8192
-14.8670 20.3654 -0.1420 0.9041
-15.7377 20.0116 -0.1433 0.9032
-17.1468 20.2654 -0.1495 0.8993
-18.5390 20.3829 -0.1551 0.8956
-19.5983 20.0549 -0.1579 0.8939
-24.6086 21.8137 -0.1851 0.8767
-12.9504 9.9191 -0.0918 0.9368
-32.0294 19.4680 -0.2110 0.8608
-37.8841 19.4587 -0.2398 0.8434
-32.2245 6.1275 -0.1847 0.8770
-15.7880 20.0755 -0.7191 0.9028
-18.5390 20.3829 -0.7758 0.8956
-12.9380 9.9096 -0.4589 0.9369
-34.6974 19.4230 -1.1197 0.8529
-37.8841 19.4587 -1.1992 0.8433
-41.5634 19.5000 -1.2927 0.8322
-32.2198 6.1266 -0.9235 0.8770
-15.7880 20.0755 -1.2952 0.9028
-18.5390 20.3829 -1.3973 0.8955
-19.6609 20.1190 -1.4266 0.8934
-24.6086 21.8138 -1.6677 0.8766
-25.4556 20.9855 -1.6731 0.8762
-12.9256 9.9001 -0.8257 0.9369
-41.4638 19.4533 -2.3227 0.8324
-43.8213 18.6749 -2.4158 0.8263
-44.3405 17.0466 -2.4092 0.8267
-32.9977 10.0406 -1.7492 0.8710
-45.5303 12.0905 -2.3891 0.8281
-32.2334 6.1292 -1.6640 0.8769
-44.5158 0.3912 -2.2577 0.8367
-44.4573 -1.2022 -2.2554 0.8368
-46.2311 -2.9099 -2.3492 0.8307
-47.0336 -4.6565 -2.3969 0.8275
-48.6100 -8.3608 -2.5014 0.8207
-48.2793 -10.0964 -2.5014 0.8207
-47.8867 -11.8191 -2.5014 0.8207
-14.8670 20.3654 -1.8488 0.9038
-15.7377 20.0116 -1.8667 0.9029
-18.5390 20.3829 -2.0202 0.8954
-19.6609 20.1190 -2.0626 0.8933
-17.0851 14.0849 -1.6235 0.9150
-12.9132 9.8906 -1.1926 0.9368
-21.8816 13.3000 -1.8775 0.9024
-28.7025 14.7427 -2.3659 0.8786
-28.1072 11.9781 -2.2402 0.8847
-30.6521 9.3269 -2.3492 0.8794
-30.9665 8.2230 -2.3492 0.8794
-27.4697 6.2505 -2.0656 0.8932
-32.5102 3.7968 -2.3999 0.8770
-33.9930 2.7402 -2.5005 0.8722
-34.0815 1.5215 -2.5014 0.8721
-34.1141 0.2998 -2.5014 0.8721
-34.1030 -0.9222 -2.5014 0.8721
-34.0481 -2.1430 -2.5014 0.8721
-33.1215 -8.1749 -2.5014 0.8721
-32.8075 -9.3559 -2.5014 0.8721
-14.6568 20.0774 -2.3865 0.9049
-10.4243 13.2552 -1.6190 0.9345
-11.2491 13.2950 -1.6720 0.9324
-17.2761 17.6786 -2.3731 0.9054
-18.4414 16.3470 -2.3659 0.9057
-16.4204 13.5369 -2.0431 0.9180
-12.9008 9.8811 -1.5601 0.9368
-11.5924 8.2374 -1.3653 0.9445
-20.4512 13.4567 -2.3503 0.9063
-21.7664 11.1800 -2.3492 0.9064
-22.1528 10.3933 -2.3492 0.9064
-22.5109 9.5932 -2.3492 0.9064
-23.1398 7.9571 -2.3492 0.9064
-23.4100 7.1232 -2.3492 0.9064
-25.3737 5.7736 -2.4983 0.9007
-26.0291 1.1620 -2.5014 0.9006
-26.0036 -1.6367 -2.5014 0.9006
-25.9283 -2.5670 -2.5014 0.9006
-25.5034 -5.3334 -2.5014 0.9006
-25.0561 -7.1454 -2.5014 0.9006
-11.7268 16.0638 -2.3625 0.9230
-13.3357 14.6620 -2.3543 0.9233
-13.8351 14.1574 -2.3514 0.9234
-12.2361 10.8464 -1.9423 0.9363
-11.5083 8.1776 -1.6770 0.9447
-13.4446 8.8464 -1.9117 0.9372
-17.5920 9.0359 -2.3492 0.9234
-17.9043 8.4000 -2.3492 0.9234
-18.1937 7.7534 -2.3492 0.9234
-18.8534 7.2482 -2.3993 0.9219
-19.8874 6.8387 -2.4981 0.9188
-20.1462 6.1301 -2.5014 0.9187
-20.8151 3.1903 -2.5014 0.9187
-20.9160 2.4424 -2.5014 0.9187
-20.9901 1.6920 -2.5014 0.9187
-21.0373 0.9392 -2.5014 0.9187
-21.0505 -0.5692 -2.5014 0.9187
-21.0166 -1.3228 -2.5014 0.9187
-20.9558 -2.0747 -2.5014 0.9187
-20.8680 -2.8239 -2.5014 0.9187
-20.4447 -5.0460 -2.5014 0.9187
-9.7759 13.3914 -2.3492 0.9352
-10.2493 13.0327 -2.3492 0.9352
-11.1560 12.2655 -2.3492 0.9352
-12.0054 11.4354 -2.3492 0.9352
-12.1453 10.7659 -2.2996 0.9365
-11.4692 8.1498 -1.9936 0.9447
-13.3236 8.7668 -2.2598 0.9376
-14.1682 8.6117 -2.3492 0.9352
-14.4675 8.0987 -2.3492 0.9352
-15.9371 7.4771 -2.4943 0.9314
-16.4784 6.3351 -2.5014 0.9312
-16.6948 5.7408 -2.5014 0.9312
-17.2142 3.9170 -2.5014 0.9312
-17.3435 3.2979 -2.5014 0.9312
-17.5351 2.0479 -2.5014 0.9312
-17.5972 1.4185 -2.5014 0.9312
-17.6536 0.1551 -2.5014 0.9312
-17.6194 -1.1090 -2.5014 0.9312
-17.5684 -1.7393 -2.5014 0.9312
-17.3988 -2.9925 -2.5014 0.9312
-8.8152 11.2092 -2.3492 0.9438
-9.2110 10.8863 -2.3492 0.9438
-9.5950 10.5494 -2.3492 0.9438
-9.9667 10.1989 -2.3492 0.9438
-10.6713 9.4593 -2.3492 0.9438
-11.0032 9.0710 -2.3492 0.9438
-12.5728 7.6419 -2.4238 0.9421
-13.2286 7.4051 -2.4975 0.9404
-13.5066 6.9375 -2.5014 0.9403
-13.9686 5.9528 -2.5014 0.9403
-14.5265 4.4201 -2.5014 0.9403
-14.6755 3.8970 -2.5014 0.9403
-15.0816 1.7613 -2.5014 0.9403
-15.1350 1.2200 -2.5014 0.9403
-15.1690 0.6772 -2.5014 0.9403
-15.1786 -0.4104 -2.5014 0.9403
-15.1541 -0.9538 -2.5014 0.9403
-15.0470 -2.0362 -2.5014 0.9403
-14.8626 -3.1081 -2.5014 0.9403
-14.6020 -4.1641 -2.5014 0.9403
-8.7354 8.9389 -2.3492 0.9504
-9.0499 8.6203 -2.3492 0.9504
-9.9962 7.6564 -2.3667 0.9500
-10.7458 7.6358 -2.4778 0.9478
-11.1079 7.3089 -2.4993 0.9473
-12.0481 5.6525 -2.5014 0.9473
-12.2428 5.2174 -2.5014 0.9473
-12.4218 4.7755 -2.5014 0.9473
-12.7318 3.8741 -2.5014 0.9473
-13.1546 2.0162 -2.5014 0.9473
-13.2949 0.5935 -2.5014 0.9473
-13.3077 0.1170 -2.5014 0.9473
-13.1880 -1.7847 -2.5014 0.9473
-12.9205 -3.1889 -2.5014 0.9473
-6.5529 8.9763 -2.3492 0.9556
-6.8702 8.7359 -2.3492 0.9556
-7.1786 8.4842 -2.3492 0.9556
-7.4779 8.2217 -2.3492 0.9556
-7.7676 7.9486 -2.3492 0.9556
-8.0477 7.6657 -2.3493 0.9556
-8.6229 7.6436 -2.4357 0.9540
-10.1123 6.1464 -2.5014 0.9528
-10.5264 5.4068 -2.5014 0.9528
-10.7133 5.0263 -2.5014 0.9528
-11.5388 2.6256 -2.5014 0.9528
-11.6972 1.7928 -2.5014 0.9528
-11.8220 0.5278 -2.5014 0.9528
-11.8294 -0.3199 -2.5014 0.9528
-11.8104 -0.7434 -2.5014 0.9528
-11.7762 -1.1659 -2.5014 0.9528
-11.7269 -1.5869 -2.5014 0.9528
-11.6625 -2.0059 -2.5014 0.9528
-11.5832 -2.4223 -2.5014 0.9528
-5.8937 8.0733 -2.3492 0.9598
-6.4796 7.6581 -2.3576 0.9596
-7.4182 7.5911 -2.4945 0.9573
-7.6988 7.3333 -2.4989 0.9573
-8.2124 6.7703 -2.5014 0.9572
-8.4496 6.4718 -2.5014 0.9572
-8.6760 6.1650 -2.5014 0.9572
-8.8912 5.8503 -2.5014 0.9572
-9.2872 5.1988 -2.5014 0.9572
-9.4675 4.8629 -2.5014 0.9572
-9.9344 3.8193 -2.5014 0.9572
-10.1824 3.0983 -2.5014 0.9572
-10.2868 2.7316 -2.5014 0.9572
-10.3780 2.3614 -2.5014 0.9572
-10.5204 1.6125 -2.5014 0.9572
-10.5714 1.2346 -2.5014 0.9572
-10.6089 0.8552 -2.5014 0.9572
-10.6327 0.4747 -2.5014 0.9572
-10.6429 0.0935 -2.5014 0.9572
-10.6394 -0.2877 -2.5014 0.9572
-10.6223 -0.6686 -2.5014 0.9572
-10.5915 -1.0486 -2.5014 0.9572
-10.4893 -1.8041 -2.5014 0.9572
-10.3332 -2.5504 -2.5014 0.9572
-10.2352 -2.9188 -2.5014 0.9572
-5.5781 7.6411 -2.4495 0.9617
-5.9563 7.5739 -2.4948 0.9610
-6.5005 7.1470 -2.5014 0.9609
-6.7523 6.9096 -2.5014 0.9609
-6.9954 6.6633 -2.5014 0.9609
-7.4545 6.1455 -2.5014 0.9609
-7.8753 5.5961 -2.5014 0.9609
-8.0707 5.3104 -2.5014 0.9609
-8.4301 4.7190 -2.5014 0.9609
-9.0176 3.4668 -2.5014 0.9609
-9.1360 3.1416 -2.5014 0.9609
-9.3375 2.4795 -2.5014 0.9609
-9.4203 2.1435 -2.5014 0.9609
-9.5495 1.4636 -2.5014 0.9609
-9.5958 1.1207 -2.5014 0.9609
-9.6575 -0.2611 -2.5014 0.9609
-9.6420 -0.6069 -2.5014 0.9609
-9.5738 -1.2955 -2.5014 0.9609
-5.4622 6.9455 -2.5014 0.9639
-6.1757 6.3196 -2.5014 0.9639
-6.3980 6.0943 -2.5014 0.9639
-6.6122 5.8613 -2.5014 0.9639
-7.0148 5.3729 -2.5014 0.9639
-7.2028 5.1182 -2.5014 0.9639
-8.2475 3.1708 -2.5014 0.9639
-8.6805 1.6506 -2.5014 0.9639
-8.7764 1.0250 -2.5014 0.9639
-8.8272 0.3941 -2.5014 0.9639
-8.7930 -0.8705 -2.5014 0.9639
-8.7082 -1.4978 -2.5014 0.9639
-8.6489 -1.8087 -2.5014 0.9639
-8.5786 -2.1173 -2.5014 0.9639
-8.4973 -2.4232 -2.5014 0.9639
-4.7952 6.5686 -2.5014 0.9665
-5.0273 6.3926 -2.5014 0.9665
-5.2531 6.2084 -2.5014 0.9665
-5.4721 6.0163 -2.5014 0.9665
-5.6840 5.8165 -2.5014 0.9665
-6.0858 5.3947 -2.5014 0.9665
-6.2751 5.1732 -2.5014 0.9665
-6.7938 4.4703 -2.5014 0.9665
-6.9496 4.2241 -2.5014 0.9665
-7.2342 3.7157 -2.5014 0.9665
-7.5910 2.9183 -2.5014 0.9665
-7.6906 2.6446 -2.5014 0.9665
-7.8602 2.0873 -2.5014 0.9665
-8.0777 0.9434 -2.5014 0.9665
-8.1245 0.3627 -2.5014 0.9665
-8.1166 -0.5108 -2.5014 0.9665
-8.0592 -1.0906 -2.5014 0.9665
-7.9604 -1.6647 -2.5014 0.9665
-7.8957 -1.9488 -2.5014 0.9665
-7.8208 -2.2303 -2.5014 0.9665
-4.4370 6.0780 -2.5014 0.9688
-4.8607 5.7447 -2.5014 0.9688
-5.0634 5.5670 -2.5014 0.9688
-5.8065 4.7868 -2.5014 0.9688
-5.9742 4.5758 -2.5014 0.9688
-6.5664 3.6758 -2.5014 0.9688
-6.8127 3.1963 -2.5014 0.9688
-7.1162 2.4471 -2.5014 0.9688
-7.1993 2.1906 -2.5014 0.9688
-7.2731 1.9314 -2.5014 0.9688
-7.3376 1.6696 -2.5014 0.9688
-7.3927 1.4058 -2.5014 0.9688
-7.4744 0.8729 -2.5014 0.9688
-7.5249 0.0662 -2.5014 0.9688
-7.5225 -0.2034 -2.5014 0.9688
-7.5103 -0.4727 -2.5014 0.9688
-7.4163 -1.2756 -2.5014 0.9688
-7.3659 -1.5404 -2.5014 0.9688
-7.3060 -1.8032 -2.5014 0.9688
-4.5182 5.3399 -2.5014 0.9707
-5.0649 4.8245 -2.5014 0.9707
-5.5532 4.2533 -2.5014 0.9707
-5.8434 3.8449 -2.5014 0.9707
-5.9773 3.6331 -2.5014 0.9707
-6.2221 3.1959 -2.5014 0.9707
-6.3326 2.9710 -2.5014 0.9707
-6.4349 2.7423 -2.5014 0.9707
-6.7606 1.7953 -2.5014 0.9707
-6.8205 1.5520 -2.5014 0.9707
-6.8717 1.3067 -2.5014 0.9707
-6.9141 1.0597 -2.5014 0.9707
-6.9477 0.8114 -2.5014 0.9707
-6.9879 0.3120 -2.5014 0.9707
-6.9946 0.0615 -2.5014 0.9707
-6.7911 -1.6761 -2.5014 0.9707
-6.7267 -1.9183 -2.5014 0.9707
-3.8487 5.2721 -2.5014 0.9724
-4.0350 5.1308 -2.5014 0.9724
-4.3920 4.8288 -2.5014 0.9724
-5.0366 4.1521 -2.5014 0.9724
-5.1820 3.9691 -2.5014 0.9724
-5.4529 3.5879 -2.5014 0.9724
-5.5779 3.3903 -2.5014 0.9724
-5.9094 2.7724 -2.5014 0.9724
-6.0049 2.5590 -2.5014 0.9724
-6.1726 2.1226 -2.5014 0.9724
-6.2447 1.9002 -2.5014 0.9724
-6.3088 1.6753 -2.5014 0.9724
-6.4521 0.9889 -2.5014 0.9724
-6.4833 0.7572 -2.5014 0.9724
-6.5209 0.2911 -2.5014 0.9724
-6.5271 0.0574 -2.5014 0.9724
-6.5250 -0.1764 -2.5014 0.9724
-6.5145 -0.4100 -2.5014 0.9724
-6.4956 -0.6431 -2.5014 0.9724
-6.4329 -1.1064 -2.5014 0.9724
-6.3372 -1.5641 -2.5014 0.9724
-6.2771 -1.7901 -2.5014 0.9724
-3.6037 4.9364 -2.5014 0.9739
-3.7781 4.8042 -2.5014 0.9739
-3.9478 4.6658 -2.5014 0.9739
-4.1124 4.5214 -2.5014 0.9739
-4.2717 4.3712 -2.5014 0.9739
-4.5736 4.0542 -2.5014 0.9739
-4.9821 3.5402 -2.5014 0.9739
-5.1057 3.3595 -2.5014 0.9739
-5.4366 2.7925 -2.5014 0.9739
-5.6226 2.3961 -2.5014 0.9739
-6.0042 1.1417 -2.5014 0.9739
-6.0413 0.9259 -2.5014 0.9739
-6.1058 0.2726 -2.5014 0.9739
-6.0566 -0.8196 -2.5014 0.9739
-6.0234 -1.0360 -2.5014 0.9739
-5.9824 -1.2511 -2.5014 0.9739
-5.9338 -1.4645 -2.5014 0.9739
-5.8775 -1.6761 -2.5014 0.9739
-3.3842 4.6358 -2.5014 0.9753
-3.5481 4.5116 -2.5014 0.9753
-3.7074 4.3816 -2.5014 0.9753
-4.0115 4.1050 -2.5014 0.9753
-4.1560 3.9587 -2.5014 0.9753
-4.2951 3.8073 -2.5014 0.9753
-4.4287 3.6510 -2.5014 0.9753
-4.5566 3.4900 -2.5014 0.9753
-4.6787 3.3246 -2.5014 0.9753
-4.9047 2.9812 -2.5014 0.9753
-5.4910 1.6708 -2.5014 0.9753
-5.5966 1.2734 -2.5014 0.9753
-5.7009 0.6658 -2.5014 0.9753
-5.7211 0.4612 -2.5014 0.9753
-5.7339 0.2560 -2.5014 0.9753
-5.7375 -0.1551 -2.5014 0.9753
-5.7283 -0.3605 -2.5014 0.9753
-5.6878 -0.7697 -2.5014 0.9753
-5.6181 -1.1749 -2.5014 0.9753
-5.5724 -1.3753 -2.5014 0.9753
-5.5196 -1.5740 -2.5014 0.9753
-3.1863 4.3647 -2.5014 0.9765
-3.3406 4.2478 -2.5014 0.9765
-3.4906 4.1254 -2.5014 0.9765
-3.6361 3.9977 -2.5014 0.9765
-3.9129 3.7272 -2.5014 0.9765
-4.0439 3.5846 -2.5014 0.9765
-4.2902 3.2860 -2.5014 0.9765
-4.4051 3.1302 -2.5014 0.9765
-4.5144 2.9704 -2.5014 0.9765
-4.6179 2.8068 -2.5014 0.9765
-4.7154 2.6396 -2.5014 0.9765
-4.9714 2.1186 -2.5014 0.9765
-5.1699 1.5731 -2.5014 0.9765
-5.2693 1.1990 -2.5014 0.9765
-5.3089 1.0095 -2.5014 0.9765
-5.3675 0.6269 -2.5014 0.9765
-5.3865 0.4342 -2.5014 0.9765
-5.3986 0.2410 -2.5014 0.9765
-5.4038 0.0475 -2.5014 0.9765
-5.3933 -0.3394 -2.5014 0.9765
-5.2895 -1.1062 -2.5014 0.9765
-5.1968 -1.4820 -2.5014 0.9765
-3.1523 4.0084 -2.5014 0.9775
-3.2939 3.8929 -2.5014 0.9775
-3.5641 3.6472 -2.5014 0.9775
-3.8161 3.3827 -2.5014 0.9775
-4.2600 2.8030 -2.5014 0.9775
-4.3577 2.6487 -2.5014 0.9775
-4.5361 2.3299 -2.5014 0.9775
-4.6913 1.9992 -2.5014 0.9775
-4.7599 1.8299 -2.5014 0.9775
-4.9724 1.1314 -2.5014 0.9775
-5.0830 0.4097 -2.5014 0.9775
-5.0993 0.0448 -2.5014 0.9775
-5.0747 -0.5024 -2.5014 0.9775
-5.0257 -0.8644 -2.5014 0.9775
-4.9509 -1.2219 -2.5014 0.9775
-4.9040 -1.3985 -2.5014 0.9775
-2.8430 3.8944 -2.5014 0.9785
-3.1145 3.6809 -2.5014 0.9785
-3.2443 3.5670 -2.5014 0.9785
-3.3700 3.4485 -2.5014 0.9785
-3.4913 3.3256 -2.5014 0.9785
-3.7205 3.0671 -2.5014 0.9785
-3.8279 2.9319 -2.5014 0.9785
-4.1203 2.5044 -2.5014 0.9785
-4.2074 2.3552 -2.5014 0.9785
-4.4357 1.8903 -2.5014 0.9785
-4.5006 1.7303 -2.5014 0.9785
-4.6602 1.2375 -2.5014 0.9785
-4.7369 0.9007 -2.5014 0.9785
-4.7661 0.7305 -2.5014 0.9785
-4.8062 0.3874 -2.5014 0.9785
-4.8169 0.2151 -2.5014 0.9785
-4.7983 -0.4750 -2.5014 0.9785
-4.7782 -0.6466 -2.5014 0.9785
-4.7520 -0.8173 -2.5014 0.9785
-4.7196 -0.9870 -2.5014 0.9785
-4.6813 -1.1554 -2.5014 0.9785
-4.6369 -1.3223 -2.5014 0.9785
-2.9500 3.4865 -2.5014 0.9794
-3.0730 3.3786 -2.5014 0.9794
-3.1920 3.2664 -2.5014 0.9794
-3.3070 3.1500 -2.5014 0.9794
-3.4177 3.0295 -2.5014 0.9794
-3.8153 2.5104 -2.5014 0.9794
-3.9027 2.3722 -2.5014 0.9794
-3.9852 2.2308 -2.5014 0.9794
-4.0625 2.0867 -2.5014 0.9794
-4.2015 1.7905 -2.5014 0.9794
-4.3693 1.3295 -2.5014 0.9794
-4.4141 1.1722 -2.5014 0.9794
-4.4533 1.0133 -2.5014 0.9794
-4.4867 0.8532 -2.5014 0.9794
-4.5363 0.5298 -2.5014 0.9794
-4.5669 0.0401 -2.5014 0.9794
-4.5654 -0.1234 -2.5014 0.9794
-4.5581 -0.2869 -2.5014 0.9794
-4.5010 -0.7742 -2.5014 0.9794
-4.4704 -0.9349 -2.5014 0.9794
-4.4340 -1.0944 -2.5014 0.9794
-4.3920 -1.2525 -2.5014 0.9794
-2.6783 3.4056 -2.5014 0.9802
-2.7985 3.3075 -2.5014 0.9802
-2.9152 3.2051 -2.5014 0.9802
-3.0281 3.0987 -2.5014 0.9802
-3.5317 2.5096 -2.5014 0.9802
-3.6194 2.3815 -2.5014 0.9802
-3.7023 2.2504 -2.5014 0.9802
-3.8539 1.9795 -2.5014 0.9802
-3.9224 1.8402 -2.5014 0.9802
-4.0971 1.4089 -2.5014 0.9802
-4.1450 1.2612 -2.5014 0.9802
-4.1875 1.1120 -2.5014 0.9802
-4.2563 0.8094 -2.5014 0.9802
-4.3033 0.5026 -2.5014 0.9802
-4.3186 0.3481 -2.5014 0.9802
-4.3324 0.0381 -2.5014 0.9802
-4.2699 -0.7344 -2.5014 0.9802
-4.2408 -0.8869 -2.5014 0.9802
-4.2064 -1.0382 -2.5014 0.9802
-4.1665 -1.1882 -2.5014 0.9802
