ply
format ascii 1.0
element vertex 1230
property float32 x
property float32 y
property float32 z
property float32 I
end_header
0.6591 9.7417 1.7217 0.9611
-18.8898 34.2799 6.9014 0.8530
-19.1816 32.0473 6.5857 0.8592
-19.4272 29.9752 6.2984 0.8649
-19.4126 27.7312 5.9688 0.8715
-19.2574 25.5198 5.6373 0.8782
-21.5825 23.0032 5.5619 0.8797
-23.6000 23.4193 5.8625 0.8737
-26.8923 23.1218 6.2536 0.8658
-36.8201 23.4632 7.6985 0.8375
-40.6180 23.8890 8.3089 0.8258
-17.0792 9.2409 3.4241 0.9242
-17.1680 7.7607 3.3221 0.9263
0.6580 9.7262 1.4934 0.9613
-18.8129 37.2249 6.3895 0.8447
-18.8900 34.2804 5.9962 0.8535
-18.9466 31.6547 5.6516 0.8613
-19.3012 29.7808 5.4366 0.8662
-19.4788 25.8131 4.9540 0.8773
-19.5393 24.0568 4.7478 0.8821
-29.2002 23.3463 5.7273 0.8596
-31.5671 23.4420 6.0235 0.8529
-36.8201 23.4632 6.6885 0.8380
-17.1033 9.2539 2.9791 0.9243
-17.1610 7.7575 2.8851 0.9266
-32.4102 -9.6521 5.1806 0.8721
-2.6699 14.4793 1.9173 0.9423
-18.7281 44.7265 6.3143 0.8223
-18.8602 40.8813 5.8628 0.8339
-18.7735 37.1470 5.4200 0.8454
-18.8684 34.2411 5.0911 0.8541
-19.1655 32.0204 4.8596 0.8603
-19.3404 29.8413 4.6307 0.8664
-19.4790 25.8134 4.2111 0.8777
-19.5395 24.0571 4.0359 0.8825
-21.8067 23.2421 4.1502 0.8794
-23.4264 23.2469 4.2977 0.8754
-36.6470 23.3529 5.6588 0.8392
-41.0122 24.1209 6.1959 0.8254
-17.0925 8.4739 2.4840 0.9259
-17.1217 7.7397 2.4468 0.9270
-7.0427 31.7856 3.4959 0.8772
-18.7285 44.7272 5.2069 0.8228
-18.8129 37.2250 4.4788 0.8455
-18.9994 34.4787 4.2273 0.8535
-19.1943 32.0685 4.0133 0.8604
-19.4132 27.7321 3.6351 0.8727
-19.4792 25.8137 3.4726 0.8780
-13.2841 15.2120 2.1687 0.9220
-23.5969 23.4161 3.5697 0.8748
-25.2663 23.3430 3.6938 0.8708
-27.0056 23.2192 3.8244 0.8665
-29.3963 23.5031 4.0415 0.8595
-36.9253 23.5303 4.7017 0.8385
-37.1418 7.9302 4.0782 0.8583
-32.4392 -9.6607 3.6346 0.8727
15.5910 20.9950 2.2137 0.9003
6.4342 15.7041 1.4366 0.9341
0.3095 9.7133 0.8227 0.9617
-4.2979 14.4319 1.2747 0.9413
-18.8129 37.2250 3.5308 0.8458
-18.9808 34.4451 3.3293 0.8540
-19.1816 32.0472 3.1617 0.8608
-19.4134 29.9539 3.0217 0.8665
-19.4795 25.8140 2.7376 0.8783
-19.5280 24.0429 2.6221 0.8831
-21.8067 23.2421 2.6979 0.8799
-25.5278 23.5846 2.9421 0.8698
-27.0056 23.2192 3.0149 0.8668
-29.3963 23.5031 3.1861 0.8598
-31.5439 23.4247 3.3260 0.8541
-34.3792 23.6745 3.5336 0.8457
-37.1375 7.9293 3.2147 0.8586
-32.4260 -9.6567 2.8641 0.8730
-32.5249 -12.2738 2.9428 0.8697
15.6000 21.0070 1.6226 0.9004
6.4477 15.7369 1.0546 0.9341
-18.7124 44.6888 3.0043 0.8235
-18.8614 40.8838 2.7920 0.8349
-18.9810 34.4456 2.4388 0.8542
-19.1942 32.0685 2.3176 0.8609
-19.2796 25.5491 1.9848 0.8796
-13.3345 16.4175 1.3115 0.9187
-21.6126 23.0352 1.9587 0.8811
-23.2454 23.0673 2.0307 0.8770
-25.0267 23.1216 2.1129 0.8724
-26.8923 23.1218 2.1992 0.8675
-34.3792 23.6745 2.5885 0.8460
-41.0132 24.1215 2.9505 0.8264
-17.0897 8.4724 1.1830 0.9264
-43.7463 10.9866 2.7970 0.8346
-37.1401 7.9299 2.3550 0.8588
0.6529 9.6503 0.3814 0.9620
-18.6290 44.4898 1.9019 0.8244
-18.6699 36.9420 1.6321 0.8473
-19.1633 32.0167 1.4713 0.8613
-19.3414 29.8427 1.4023 0.8673
-19.4799 25.8146 1.2752 0.8786
-19.5403 24.0581 1.2221 0.8833
-20.2497 23.1886 1.2139 0.8841
-21.8066 23.2421 1.2567 0.8802
-23.4795 23.2997 1.3043 0.8760
-27.2472 23.4270 1.4169 0.8660
-37.1295 23.6604 1.7360 0.8384
-17.0878 8.4715 0.7520 0.9265
11.6506 6.9733 0.2294 0.9471
11.0912 8.3695 0.2347 0.9459
20.0053 23.2675 0.5183 0.8845
19.4225 24.2926 0.5254 0.8830
15.5997 21.0066 0.4421 0.9006
0.6519 9.6354 0.1631 0.9621
0.3083 9.6737 0.1635 0.9620
-18.7297 44.7302 0.8191 0.8237
-19.8102 24.3904 0.5308 0.8819
-20.5028 23.4785 0.5265 0.8828
-21.9337 23.3775 0.5415 0.8796
-25.5679 23.6216 0.5880 0.8700
-27.5145 23.6568 0.6129 0.8649
-29.3175 23.4401 0.6341 0.8606
-32.0414 23.7941 0.6742 0.8524
-37.4392 23.8577 0.7499 0.8373
-40.7512 23.9674 0.7986 0.8277
-17.0858 8.4705 0.3221 0.9265
-46.3589 9.8982 0.8007 0.8273
-32.4776 -10.9485 0.5789 0.8719
13.4374 8.0428 -0.0882 0.9393
11.8306 8.2818 -0.0813 0.9439
11.1501 8.4140 -0.0786 0.9457
22.5239 24.3797 -0.1869 0.8757
20.2831 25.3689 -0.1829 0.8782
15.5995 21.0064 -0.1474 0.9006
-18.7672 44.8198 -0.2736 0.8234
-19.2660 34.9626 -0.2247 0.8524
-19.4532 30.0153 -0.2014 0.8667
-19.6057 25.9812 -0.1833 0.8779
-19.8585 24.4498 -0.1773 0.8816
-20.5479 23.5300 -0.1759 0.8825
-23.7730 23.5909 -0.1886 0.8746
-25.5678 23.6216 -0.1960 0.8700
-27.5530 23.6898 -0.2046 0.8647
-29.3178 23.4403 -0.2113 0.8606
-32.0413 23.7941 -0.2246 0.8524
-34.3142 23.6297 -0.2346 0.8465
-38.0567 24.2512 -0.2541 0.8348
-40.9792 24.1015 -0.2677 0.8268
-28.3882 -11.8869 -0.1733 0.8842
13.4373 8.0427 -0.4410 0.9393
22.5239 24.3797 -0.9346 0.8756
21.4750 24.9769 -0.9275 0.8765
15.5994 21.0063 -0.7367 0.9006
15.2354 37.1854 -1.1315 0.8515
0.6499 9.6057 -0.2711 0.9622
-19.4532 30.0153 -1.0071 0.8666
-19.6667 24.2137 -0.8784 0.8827
-20.3677 23.3237 -0.8719 0.8835
-25.5342 23.5905 -0.9789 0.8701
-27.5530 23.6898 -1.0232 0.8647
-32.0413 23.7941 -1.1237 0.8524
-34.3145 23.6299 -1.1732 0.8464
-40.9792 24.1015 -1.3387 0.8268
-17.0817 8.4685 -0.5369 0.9265
-43.6007 10.9500 -1.2658 0.8354
-47.1315 10.0631 -1.3570 0.8246
-32.4633 -10.9437 -0.9646 0.8719
-25.7590 -14.1944 -0.8282 0.8890
12.6279 8.1843 -0.7632 0.9415
27.6281 22.4399 -1.8051 0.8671
25.6966 22.4398 -1.7301 0.8723
22.3557 22.5283 -1.6096 0.8806
16.5985 17.9660 -1.2405 0.9067
15.5993 21.0061 -1.3269 0.9005
19.3016 30.2894 -1.8215 0.8660
20.0497 37.0564 -2.1367 0.8447
18.3998 37.1140 -2.1008 0.8471
16.8024 37.1698 -2.0687 0.8493
13.7404 37.2767 -2.0148 0.8529
8.0018 37.4771 -1.9435 0.8577
5.2561 37.5824 -1.9245 0.8590
0.3070 9.6345 -0.4889 0.9621
-4.2226 37.9038 -1.9342 0.8583
-7.0072 38.0011 -1.9597 0.8566
-11.5223 38.6905 -2.0473 0.8507
-15.7280 46.6553 -2.4969 0.8210
-17.8400 42.6053 -2.3425 0.8311
-18.8628 40.8869 -2.2836 0.8350
-18.9775 37.5506 -2.1337 0.8449
-19.0781 34.6217 -2.0047 0.8536
-19.1768 32.0394 -1.8937 0.8611
-19.2568 29.7123 -1.7956 0.8678
-19.4548 23.9528 -1.5649 0.8837
-20.1686 23.0958 -1.5550 0.8844
-29.3183 23.4407 -1.9036 0.8604
-31.7588 23.5843 -2.0062 0.8535
-34.3148 23.6301 -2.1130 0.8463
-35.3895 22.5516 -2.1282 0.8453
-41.3247 22.3591 -2.3828 0.8285
-42.4610 19.1942 -2.3632 0.8298
-42.9381 17.5924 -2.3533 0.8304
-43.3546 15.9808 -2.3433 0.8311
-43.7606 14.3782 -2.3360 0.8315
-44.2432 12.8064 -2.3359 0.8315
-36.9427 9.2779 -1.9317 0.8585
-48.9208 3.3098 -2.4866 0.8217
-48.9940 -1.9385 -2.4866 0.8217
-48.7326 -5.4290 -2.4867 0.8217
-48.5092 -7.1651 -2.4868 0.8217
-47.0046 -13.9984 -2.4873 0.8217
-32.3370 -10.9011 -1.7306 0.8723
-45.8926 -17.3184 -2.4876 0.8216
-28.4414 -11.9092 -1.5637 0.8838
-25.0987 -11.5791 -1.4018 0.8952
-27.9377 -14.1192 -1.5875 0.8822
-25.5473 -14.0777 -1.4793 0.8897
13.4371 8.0426 -1.1482 0.9391
12.6279 8.1843 -1.1034 0.9414
11.1498 8.4137 -1.0242 0.9455
16.1292 13.1003 -1.5236 0.9200
16.1093 14.0676 -1.5682 0.9178
16.1054 15.1107 -1.6193 0.9152
16.3555 17.7031 -1.7672 0.9079
15.0002 20.1993 -1.8448 0.9040
17.9459 28.1620 -2.4485 0.8746
16.9472 28.8149 -2.4511 0.8745
14.8951 30.0447 -2.4588 0.8742
13.3554 29.5444 -2.3773 0.8781
12.1048 29.5445 -2.3410 0.8798
9.3621 32.3440 -2.4689 0.8737
8.2065 32.6768 -2.4703 0.8736
3.4766 33.5505 -2.4732 0.8735
0.3066 9.6215 -0.7058 0.9621
-0.1297 33.7191 -2.4724 0.8735
-1.3327 33.6813 -2.4715 0.8735
-2.5328 33.5967 -2.4704 0.8736
-3.7282 33.4660 -2.4690 0.8737
-7.9121 30.5092 -2.3110 0.8813
-10.6949 31.7253 -2.4548 0.8743
-11.8045 31.2811 -2.4515 0.8745
-15.0119 29.7039 -2.4403 0.8750
-23.1889 23.0113 -2.3953 0.8772
-24.6499 21.1938 -2.3836 0.8778
-25.3259 20.2487 -2.3775 0.8781
-27.1274 17.2867 -2.3586 0.8790
-27.6510 16.2626 -2.3521 0.8793
-28.1351 15.2228 -2.3455 0.8796
-17.0777 8.4665 -1.3976 0.9264
-29.5359 12.1013 -2.3404 0.8798
-30.3209 9.9624 -2.3401 0.8798
-30.6558 8.8734 -2.3400 0.8799
-32.8809 8.2578 -2.4858 0.8729
-33.2303 7.0951 -2.4914 0.8726
-33.6502 4.7062 -2.4913 0.8726
-33.8991 2.2935 -2.4912 0.8726
-33.9592 1.0821 -2.4912 0.8726
-33.9761 -0.1307 -2.4912 0.8726
-33.4156 -6.1616 -2.4914 0.8726
-32.5689 -9.6993 -2.4917 0.8726
-31.3916 -10.5824 -2.4290 0.8756
-29.4429 -12.3285 -2.3404 0.8798
-27.0157 -13.6533 -2.2194 0.8857
12.6279 8.1843 -1.4447 0.9413
11.1173 7.7824 -1.3028 0.9469
16.0137 13.0065 -1.9806 0.9204
15.5908 16.8754 -2.2057 0.9118
14.8999 20.0643 -2.3993 0.9045
13.4555 21.1152 -2.4038 0.9043
11.9374 22.0630 -2.4083 0.9041
11.1525 22.4955 -2.4105 0.9040
9.5311 23.2627 -2.4135 0.9039
8.6995 23.6010 -2.4148 0.9039
7.0011 24.1874 -2.4174 0.9038
6.1360 24.4323 -2.4185 0.9037
3.4915 24.9653 -2.4201 0.9037
0.3062 9.6084 -0.9229 0.9621
-0.9963 25.1792 -2.4192 0.9037
-1.8937 25.1189 -2.4184 0.9037
-3.6775 24.8972 -2.4162 0.9038
-4.5611 24.7358 -2.4148 0.9039
-8.8435 23.4348 -2.4047 0.9042
-11.2590 22.2781 -2.3964 0.9046
-12.0315 21.8339 -2.3933 0.9047
-13.5209 20.8620 -2.3867 0.9049
-14.2356 20.3358 -2.3832 0.9051
-14.9292 19.7840 -2.3795 0.9052
-15.6006 19.2075 -2.3756 0.9053
-16.8734 17.9840 -2.3675 0.9057
-18.5963 15.9890 -2.3545 0.9061
-20.1022 13.8429 -2.3432 0.9066
-20.5822 13.1158 -2.3431 0.9066
-19.3808 10.4862 -2.1155 0.9153
-16.9717 8.4139 -1.8186 0.9267
-22.5781 9.2506 -2.3425 0.9066
-22.8930 8.4385 -2.3424 0.9066
-24.6195 8.0891 -2.4879 0.9011
-25.1943 6.3274 -2.4939 0.9009
-25.7247 3.5977 -2.4937 0.9009
-25.8364 2.6772 -2.4937 0.9009
-25.9612 0.8272 -2.4937 0.9009
-25.9742 -0.0999 -2.4937 0.9009
-25.8152 -2.8759 -2.4937 0.9009
-25.6966 -3.7955 -2.4938 0.9009
-25.5452 -4.7104 -2.4938 0.9009
-25.3614 -5.6193 -2.4939 0.9009
-24.8973 -7.4146 -2.4940 0.9009
-24.3068 -9.1726 -2.4942 0.9009
-23.3291 -10.7627 -2.4666 0.9019
-21.7793 -11.0069 -2.3428 0.9066
-21.3737 -11.7778 -2.3429 0.9066
11.1495 8.4136 -1.6592 0.9453
15.3884 12.4987 -2.3549 0.9232
14.9492 13.0545 -2.3575 0.9232
14.0107 14.1188 -2.3627 0.9230
13.5113 14.6245 -2.3651 0.9229
12.9932 15.1121 -2.3674 0.9229
11.9036 16.0294 -2.3717 0.9227
10.7483 16.8670 -2.3758 0.9226
9.5309 17.6152 -2.3791 0.9225
8.9015 17.9552 -2.3805 0.9224
8.2598 18.2720 -2.3819 0.9224
6.9425 18.8345 -2.3844 0.9223
6.2688 19.0792 -2.3855 0.9223
5.5858 19.2976 -2.3864 0.9223
4.8949 19.4905 -2.3871 0.9222
4.1972 19.6577 -2.3877 0.9222
3.4936 19.7991 -2.3882 0.9222
2.7851 19.9141 -2.3885 0.9222
0.6459 9.5466 -1.1366 0.9622
-0.0773 20.1062 -2.3884 0.9222
-1.5108 20.0401 -2.3872 0.9222
-2.9345 19.8669 -2.3855 0.9223
-5.7191 19.2040 -2.3802 0.9225
-6.3963 18.9739 -2.3785 0.9225
-7.7207 18.4385 -2.3745 0.9226
-8.3663 18.1347 -2.3723 0.9227
-8.9995 17.8073 -2.3700 0.9228
-9.6195 17.4568 -2.3676 0.9229
-10.2253 17.0838 -2.3650 0.9229
-11.3913 16.2726 -2.3595 0.9231
-11.9499 15.8360 -2.3566 0.9232
-12.4914 15.3794 -2.3535 0.9233
-13.0149 14.9038 -2.3504 0.9234
-13.5198 14.4098 -2.3471 0.9235
-14.5000 13.3962 -2.3450 0.9236
-16.2551 11.1937 -2.3444 0.9236
-19.3961 7.9469 -2.4899 0.9190
-20.1794 5.8410 -2.4954 0.9189
-20.3746 5.1169 -2.4954 0.9189
-20.5438 4.3863 -2.4953 0.9189
-20.8038 2.9095 -2.4952 0.9189
-20.8941 2.1651 -2.4952 0.9189
-20.9951 0.6690 -2.4952 0.9189
-20.9465 -1.5791 -2.4952 0.9189
-20.1342 -5.9962 -2.4955 0.9189
-19.9079 -6.7112 -2.4955 0.9189
-19.6563 -7.4177 -2.4956 0.9189
-18.7529 -9.4774 -2.4959 0.9188
-18.4034 -10.1411 -2.4960 0.9188
13.4367 8.0424 -2.2188 0.9387
13.6078 9.5258 -2.3535 0.9351
12.5098 10.9243 -2.3532 0.9351
10.8254 12.5906 -2.3527 0.9351
10.3685 12.9682 -2.3526 0.9351
9.4269 13.6894 -2.3550 0.9351
8.9383 14.0265 -2.3566 0.9350
7.9244 14.6462 -2.3595 0.9349
7.4006 14.9278 -2.3608 0.9349
6.8665 15.1900 -2.3619 0.9349
6.3231 15.4329 -2.3631 0.9348
5.7706 15.6551 -2.3641 0.9348
3.4879 16.3358 -2.3668 0.9347
2.9031 16.4528 -2.3672 0.9347
1.7223 16.6211 -2.3676 0.9347
0.6449 9.5318 -1.3536 0.9621
-2.4390 16.5127 -2.3651 0.9348
-3.0257 16.4089 -2.3642 0.9348
-3.6079 16.2833 -2.3631 0.9348
-5.8750 15.5683 -2.3577 0.9350
-6.9604 15.0874 -2.3542 0.9351
-8.0056 14.5281 -2.3503 0.9352
-10.4396 12.8533 -2.3462 0.9353
-11.3286 12.0744 -2.3459 0.9353
-11.7517 11.6617 -2.3458 0.9353
-12.5524 10.7925 -2.3456 0.9353
-13.6323 9.3875 -2.3452 0.9353
-14.2661 8.3904 -2.3450 0.9353
-14.7263 7.9678 -2.3724 0.9346
-16.0565 7.2582 -2.4967 0.9313
-16.3049 6.6804 -2.4966 0.9313
-16.5325 6.0939 -2.4965 0.9313
-16.7390 5.4999 -2.4965 0.9313
-16.9243 4.8988 -2.4964 0.9313
-17.4481 2.4402 -2.4963 0.9313
-17.5775 1.1892 -2.4962 0.9313
-17.6087 0.5611 -2.4962 0.9313
-17.6039 -0.6965 -2.4962 0.9313
-17.5679 -1.3244 -2.4962 0.9313
-17.5095 -1.9506 -2.4963 0.9313
-17.3262 -3.1949 -2.4963 0.9313
-17.0547 -4.4229 -2.4964 0.9313
-16.0005 -7.3817 -2.4967 0.9313
-15.7274 -7.9484 -2.4968 0.9313
11.9863 7.7684 -2.3531 0.9437
11.1493 8.4134 -2.3010 0.9449
10.7570 9.3937 -2.3527 0.9437
10.0585 10.1362 -2.3525 0.9438
9.3089 10.8269 -2.3522 0.9438
8.9161 11.1517 -2.3521 0.9438
7.6717 12.0389 -2.3517 0.9438
7.2367 12.3044 -2.3516 0.9438
6.7925 12.5541 -2.3515 0.9438
6.3397 12.7878 -2.3513 0.9438
4.4542 13.5565 -2.3507 0.9438
3.4767 13.8434 -2.3514 0.9438
2.4811 14.0611 -2.3522 0.9438
1.4719 14.2046 -2.3526 0.9438
0.6439 9.5170 -1.5714 0.9621
-0.5645 14.2663 -2.3521 0.9438
-1.0731 14.2345 -2.3516 0.9438
-2.5864 14.0265 -2.3497 0.9438
-3.0842 13.9200 -2.3488 0.9438
-4.0683 13.6608 -2.3481 0.9439
-5.0318 13.3341 -2.3478 0.9439
-6.4272 12.7175 -2.3474 0.9439
-7.7485 11.9555 -2.3470 0.9439
-8.1698 11.6707 -2.3469 0.9439
-8.5807 11.3711 -2.3468 0.9439
-8.9806 11.0570 -2.3466 0.9439
-9.3691 10.7288 -2.3465 0.9439
-10.1096 10.0322 -2.3463 0.9439
-10.7986 9.2846 -2.3461 0.9439
-11.1227 8.8929 -2.3460 0.9439
-11.4325 8.4898 -2.3459 0.9439
-12.4046 7.9047 -2.4232 0.9421
-13.5825 6.7337 -2.4974 0.9404
-14.0275 5.7472 -2.4973 0.9404
-14.5605 4.2146 -2.4971 0.9404
-14.7014 3.6922 -2.4971 0.9404
-14.9270 2.6339 -2.4970 0.9404
-15.0113 2.0994 -2.4970 0.9404
-15.1226 1.0231 -2.4970 0.9404
-15.1495 0.4827 -2.4970 0.9404
-15.1144 -1.1395 -2.4970 0.9404
-15.0641 -1.6782 -2.4970 0.9404
-14.7989 -3.2790 -2.4971 0.9404
-14.6727 -3.8052 -2.4971 0.9404
-14.5278 -4.3265 -2.4972 0.9404
-13.7655 -6.3506 -2.4974 0.9404
-13.5305 -6.8381 -2.4975 0.9404
10.6139 6.8790 -2.3774 0.9498
9.9904 7.5388 -2.3524 0.9503
9.7146 7.8903 -2.3524 0.9503
6.7231 10.5503 -2.3514 0.9504
5.9527 11.0019 -2.3512 0.9504
5.5559 11.2068 -2.3511 0.9504
5.1521 11.3973 -2.3510 0.9504
4.7418 11.5733 -2.3508 0.9504
4.3254 11.7346 -2.3507 0.9504
3.0458 12.1277 -2.3503 0.9504
1.6351 9.2664 -1.7686 0.9624
1.7316 12.3816 -2.3499 0.9504
1.2885 12.4349 -2.3498 0.9504
0.6429 9.5020 -1.7901 0.9620
0.3045 9.5559 -1.7971 0.9618
-0.4941 12.4888 -2.3492 0.9504
-0.9395 12.4624 -2.3491 0.9504
-2.2659 12.2885 -2.3487 0.9504
-3.5659 11.9738 -2.3483 0.9504
-4.8246 11.5222 -2.3479 0.9504
-5.2325 11.3420 -2.3478 0.9504
-6.4140 10.7161 -2.3474 0.9504
-7.1614 10.2302 -2.3472 0.9504
-7.5217 9.9676 -2.3471 0.9504
-7.8723 9.6924 -2.3470 0.9504
-8.5429 9.1053 -2.3468 0.9505
-8.8621 8.7942 -2.3467 0.9505
-9.1700 8.4720 -2.3466 0.9505
-9.4661 8.1389 -2.3465 0.9505
-10.5745 7.8527 -2.4757 0.9478
-10.9377 7.5320 -2.4962 0.9474
-11.4560 6.7377 -2.4981 0.9473
-11.6889 6.3244 -2.4980 0.9473
-11.9068 5.9030 -2.4980 0.9473
-12.1097 5.4741 -2.4979 0.9473
-12.2971 5.0383 -2.4978 0.9473
-12.8880 3.2367 -2.4977 0.9474
-13.0857 2.3090 -2.4976 0.9474
-13.1597 1.8404 -2.4976 0.9474
-13.2169 1.3696 -2.4976 0.9474
-13.2573 0.8969 -2.4976 0.9474
-13.2875 -0.0511 -2.4975 0.9474
-13.2501 -0.9989 -2.4976 0.9474
-13.0677 -2.4096 -2.4976 0.9474
-12.8628 -3.3358 -2.4977 0.9474
-12.7357 -3.7928 -2.4977 0.9474
-12.5925 -4.2451 -2.4978 0.9474
-12.4332 -4.6919 -2.4978 0.9473
-12.2581 -5.1328 -2.4979 0.9473
-12.0673 -5.5672 -2.4979 0.9473
10.1673 6.0855 -2.5047 0.9527
9.9433 6.4443 -2.5046 0.9527
9.6896 6.7829 -2.5002 0.9528
9.3135 7.0280 -2.4663 0.9534
8.1141 7.6129 -2.3519 0.9555
7.8369 7.8974 -2.3518 0.9555
7.5497 8.1718 -2.3517 0.9555
7.2530 8.4357 -2.3516 0.9555
6.9470 8.6889 -2.3515 0.9555
6.6321 8.9309 -2.3514 0.9555
5.6388 9.5874 -2.3511 0.9555
5.2927 9.7822 -2.3510 0.9555
4.5810 10.1339 -2.3508 0.9556
4.2161 10.2904 -2.3507 0.9556
2.9161 7.9112 -1.7823 0.9661
3.0915 10.6806 -2.3503 0.9556
2.7082 10.7836 -2.3502 0.9556
2.3215 10.8728 -2.3501 0.9556
1.5227 8.6295 -1.8523 0.9648
1.2111 8.6601 -1.8484 0.9649
0.9005 8.6907 -1.8469 0.9649
0.5900 8.7212 -1.8477 0.9649
-1.2304 11.0444 -2.3490 0.9556
-1.6237 10.9929 -2.3489 0.9556
-2.7891 10.7547 -2.3485 0.9556
-3.1710 10.6478 -2.3484 0.9556
-3.5489 10.5273 -2.3483 0.9556
-3.9222 10.3935 -2.3482 0.9556
-4.2904 10.2463 -2.3481 0.9556
-5.7039 9.5297 -2.3476 0.9556
-6.0401 9.3196 -2.3475 0.9556
-7.0009 8.6195 -2.3473 0.9556
-7.3038 8.3638 -2.3472 0.9556
-7.5974 8.0975 -2.3471 0.9556
-8.4552 7.8116 -2.4333 0.9540
-9.9683 6.3522 -2.4985 0.9528
-10.1884 5.9922 -2.4985 0.9528
-11.3522 3.2859 -2.4981 0.9528
-11.4621 2.8786 -2.4981 0.9528
-11.5574 2.4677 -2.4981 0.9528
-11.6380 2.0536 -2.4980 0.9528
-11.7547 1.2181 -2.4980 0.9528
-11.8116 0.3764 -2.4980 0.9528
-11.7450 -1.3084 -2.4980 0.9528
-11.6219 -2.1430 -2.4981 0.9528
-11.5382 -2.5565 -2.4981 0.9528
-11.4397 -2.9667 -2.4981 0.9528
-11.3267 -3.3732 -2.4982 0.9528
-11.1992 -3.7754 -2.4982 0.9528
-11.0576 -4.1728 -2.4982 0.9528
9.1433 5.4726 -2.5044 0.9572
8.7291 6.1106 -2.5043 0.9572
8.5052 6.4181 -2.5042 0.9572
7.6784 7.2041 -2.4745 0.9577
7.2040 7.2597 -2.4037 0.9588
5.3759 8.4362 -2.3510 0.9597
5.0711 8.6223 -2.3509 0.9597
4.4427 8.9614 -2.3507 0.9597
4.1199 9.1139 -2.3507 0.9597
3.7918 9.2547 -2.3506 0.9597
3.1216 9.5008 -2.3503 0.9597
2.4357 9.6984 -2.3501 0.9597
2.0879 9.7787 -2.3500 0.9597
0.5900 8.7212 -2.0544 0.9647
-0.3487 8.8135 -2.0730 0.9644
-0.6668 8.8447 -2.0846 0.9642
-1.4604 9.8872 -2.3489 0.9598
-2.1619 9.7570 -2.3487 0.9598
-2.5086 9.6732 -2.3486 0.9598
-2.8521 9.5771 -2.3485 0.9598
-3.1920 9.4687 -2.3484 0.9598
-3.8590 9.2161 -2.3482 0.9598
-4.5063 8.9166 -2.3480 0.9598
-4.8215 8.7497 -2.3479 0.9598
-5.4329 8.3828 -2.3477 0.9598
-5.7285 8.1832 -2.3476 0.9598
-6.0167 7.9732 -2.3476 0.9598
-6.3166 7.7771 -2.3547 0.9597
-6.7892 7.7745 -2.4258 0.9585
-7.2562 7.7339 -2.4924 0.9574
-7.5406 7.4828 -2.4967 0.9573
-8.0630 6.9325 -2.4991 0.9572
-8.5365 6.3393 -2.4990 0.9573
-8.9666 5.7139 -2.4989 0.9573
-9.1646 5.3901 -2.4988 0.9573
-9.3509 5.0594 -2.4987 0.9573
-9.8376 4.0306 -2.4986 0.9573
-9.9750 3.6769 -2.4986 0.9573
-10.0998 3.3184 -2.4985 0.9573
-10.3962 2.2197 -2.4984 0.9573
-10.4688 1.8472 -2.4984 0.9573
-10.5279 1.4724 -2.4984 0.9573
-10.6249 0.3386 -2.4984 0.9573
-10.6220 -0.4203 -2.4984 0.9573
-10.3789 -2.2996 -2.4984 0.9573
-10.2903 -2.6687 -2.4985 0.9573
-10.1887 -3.0343 -2.4985 0.9573
-10.0740 -3.3960 -2.4985 0.9573
-9.8064 -4.1062 -2.4986 0.9573
-9.4889 -4.7955 -2.4987 0.9573
-9.3118 -5.1312 -2.4988 0.9573
8.1159 5.2600 -2.5041 0.9608
7.9228 5.5462 -2.5040 0.9608
7.5065 6.0969 -2.5039 0.9608
7.2839 6.3608 -2.5038 0.9608
7.0521 6.6165 -2.5038 0.9608
6.8096 6.8621 -2.5031 0.9608
6.5510 7.0907 -2.4995 0.9609
5.4966 7.4018 -2.3871 0.9626
5.1498 7.4783 -2.3510 0.9632
4.8794 7.6571 -2.3509 0.9632
4.3204 7.9851 -2.3507 0.9632
3.7395 8.2724 -2.3505 0.9632
3.4417 8.4002 -2.3504 0.9632
2.9018 7.8722 -2.1723 0.9659
2.6820 8.1628 -2.2246 0.9651
2.2108 8.8031 -2.3501 0.9632
1.8952 8.8761 -2.3500 0.9632
1.5066 8.5383 -2.2449 0.9648
-0.0334 8.6897 -2.2499 0.9647
-1.0045 9.0170 -2.3491 0.9632
-1.6451 8.9215 -2.3489 0.9632
-3.2023 8.4860 -2.3484 0.9632
-3.5030 8.3660 -2.3483 0.9632
-3.7993 8.2353 -2.3482 0.9632
-4.3768 7.9427 -2.3481 0.9632
-5.0167 7.7405 -2.3883 0.9626
-5.4175 7.7391 -2.4460 0.9617
-5.8000 7.6861 -2.4931 0.9610
-6.6055 7.0403 -2.4996 0.9609
-6.8524 6.7999 -2.4995 0.9609
-7.9498 5.4744 -2.4992 0.9609
-8.1399 5.1871 -2.4991 0.9609
-8.6472 4.2870 -2.4990 0.9609
-8.9307 3.6590 -2.4989 0.9609
-9.2703 2.6833 -2.4988 0.9609
-9.3600 2.3507 -2.4987 0.9609
-9.4379 2.0151 -2.4987 0.9609
-9.5037 1.6769 -2.4987 0.9609
-9.5990 0.9947 -2.4987 0.9609
-9.6284 0.6514 -2.4987 0.9609
-9.6429 -0.3815 -2.4987 0.9609
-9.5911 -1.0685 -2.4987 0.9609
-9.4222 -2.0876 -2.4987 0.9609
-9.3417 -2.4226 -2.4988 0.9609
-9.2494 -2.7546 -2.4988 0.9609
-8.7638 -4.0431 -2.4989 0.9609
-8.6141 -4.3534 -2.4990 0.9609
-8.4533 -4.6582 -2.4990 0.9609
7.0598 5.3274 -2.5038 0.9639
6.8650 5.5758 -2.5037 0.9639
6.6614 5.8172 -2.5036 0.9639
6.4494 6.0510 -2.5036 0.9639
6.2291 6.2772 -2.5035 0.9639
6.0009 6.4954 -2.5034 0.9639
5.5219 6.9065 -2.5033 0.9639
4.3889 7.4623 -2.4508 0.9646
3.7236 7.5109 -2.3732 0.9657
3.4200 7.5656 -2.3504 0.9661
3.1477 7.6826 -2.3504 0.9661
2.3082 7.9742 -2.3501 0.9661
1.7333 8.1179 -2.3499 0.9661
1.4424 8.1743 -2.3498 0.9661
0.8555 8.2557 -2.3497 0.9661
0.2643 8.2951 -2.3495 0.9661
-0.0319 8.2989 -2.3494 0.9661
-0.3281 8.2922 -2.3493 0.9661
-1.5046 8.1598 -2.3489 0.9661
-1.7948 8.1006 -2.3488 0.9661
-2.3680 7.9513 -2.3487 0.9661
-2.6502 7.8615 -2.3486 0.9661
-2.9290 7.7616 -2.3485 0.9661
-3.8936 7.7042 -2.4437 0.9648
-4.2451 7.7038 -2.4901 0.9641
-4.7987 7.4042 -2.4978 0.9640
-5.0645 7.2347 -2.5000 0.9640
-5.3193 7.0491 -2.5000 0.9640
-5.8083 6.6512 -2.4998 0.9640
-6.0418 6.4395 -2.4997 0.9640
-6.2677 6.2196 -2.4997 0.9640
-6.4855 5.9918 -2.4996 0.9640
-6.6950 5.7563 -2.4996 0.9640
-6.8961 5.5136 -2.4995 0.9640
-7.6099 4.4757 -2.4993 0.9640
-8.0443 3.6364 -2.4991 0.9640
-8.4795 2.4544 -2.4990 0.9640
-8.5616 2.1502 -2.4990 0.9640
-8.6328 1.8432 -2.4990 0.9640
-8.7422 1.2226 -2.4989 0.9640
-8.7802 0.9098 -2.4989 0.9640
-8.8071 0.5958 -2.4989 0.9640
-8.8203 -0.3490 -2.4989 0.9640
-8.8022 -0.6636 -2.4989 0.9640
-8.7325 -1.2898 -2.4989 0.9640
-8.6184 -1.9096 -2.4990 0.9640
-8.5448 -2.2160 -2.4990 0.9640
-8.4604 -2.5196 -2.4990 0.9640
-8.3652 -2.8200 -2.4991 0.9640
-8.2593 -3.1168 -2.4991 0.9640
-8.1429 -3.4096 -2.4991 0.9640
-8.0161 -3.6982 -2.4992 0.9640
6.9846 4.1806 -2.5037 0.9665
6.8308 4.4271 -2.5037 0.9665
6.1307 5.3537 -2.5035 0.9665
5.7329 5.7772 -2.5033 0.9665
5.3059 6.1711 -2.5032 0.9665
4.6154 6.7023 -2.5030 0.9665
4.3731 6.8626 -2.5029 0.9665
4.1253 7.0141 -2.5029 0.9665
3.8690 7.1509 -2.5007 0.9665
3.6084 7.2785 -2.4987 0.9666
2.1890 7.5625 -2.4216 0.9676
1.6200 7.5875 -2.3863 0.9681
1.0636 7.6049 -2.3619 0.9684
0.7891 7.6147 -2.3546 0.9685
0.5159 7.6249 -2.3506 0.9685
0.2433 7.6347 -2.3495 0.9685
-1.1303 7.6523 -2.3792 0.9681
-1.4117 7.6560 -2.3945 0.9679
-1.9870 7.6619 -2.4346 0.9674
-2.2824 7.6641 -2.4596 0.9671
-2.8634 7.5879 -2.4945 0.9666
-3.4024 7.3751 -2.4982 0.9666
-3.6665 7.2549 -2.5002 0.9666
-4.4210 6.8214 -2.5002 0.9666
-5.7690 5.7249 -2.4998 0.9666
-5.9696 5.5152 -2.4998 0.9666
-6.1625 5.2985 -2.4997 0.9666
-6.6931 4.6091 -2.4996 0.9666
-6.8532 4.3671 -2.4995 0.9666
-7.0046 4.1197 -2.4995 0.9666
-7.1471 3.8670 -2.4994 0.9666
-7.6242 2.8103 -2.4993 0.9666
-7.7196 2.5364 -2.4992 0.9666
-7.8807 1.9792 -2.4992 0.9666
-8.0469 1.1254 -2.4991 0.9666
-8.1251 -0.0313 -2.4991 0.9666
-7.9906 -1.4734 -2.4992 0.9666
-7.2525 -3.6653 -2.4994 0.9666
-7.1172 -3.9219 -2.4994 0.9666
6.1699 4.3191 -2.5035 0.9688
6.0117 4.5365 -2.5034 0.9688
5.8458 4.7481 -2.5034 0.9688
5.4920 5.1528 -2.5033 0.9688
5.3044 5.3454 -2.5032 0.9688
5.1101 5.5312 -2.5032 0.9688
4.9093 5.7099 -2.5031 0.9688
4.7023 5.8813 -2.5030 0.9688
4.4893 6.0453 -2.5030 0.9688
3.8170 6.4900 -2.5028 0.9688
3.5828 6.6219 -2.5027 0.9688
3.3441 6.7454 -2.5026 0.9688
2.6037 7.0636 -2.5024 0.9688
2.3489 7.1491 -2.5014 0.9688
2.0912 7.2248 -2.5002 0.9688
1.5693 7.3497 -2.4982 0.9688
1.0403 7.4386 -2.4967 0.9688
0.7740 7.4695 -2.4962 0.9688
-0.2968 7.5022 -2.4957 0.9688
-1.3626 7.3896 -2.4977 0.9688
-1.8877 7.2791 -2.4997 0.9688
-2.1474 7.2105 -2.5008 0.9688
-2.4034 7.1293 -2.5009 0.9688
-3.1514 6.8309 -2.5006 0.9688
-3.3931 6.7139 -2.5006 0.9688
-3.6305 6.5883 -2.5005 0.9688
-3.8632 6.4544 -2.5004 0.9688
-4.3136 6.1620 -2.5003 0.9688
-4.7419 5.8383 -2.5001 0.9688
-4.9472 5.6652 -2.5001 0.9688
-5.1461 5.4848 -2.5000 0.9688
-5.7025 4.9030 -2.4999 0.9688
-6.0375 4.4835 -2.4998 0.9688
-6.6137 3.5784 -2.4996 0.9688
-6.8519 3.0974 -2.4995 0.9688
-6.9580 2.8508 -2.4995 0.9688
-7.0552 2.6006 -2.4994 0.9688
-7.2226 2.0906 -2.4994 0.9688
-7.3533 1.5700 -2.4994 0.9688
-7.5017 0.5075 -2.4993 0.9688
-7.5188 -0.0289 -2.4993 0.9688
-7.4727 -0.8325 -2.4993 0.9688
-7.3943 -1.3635 -2.4994 0.9688
-7.3410 -1.6265 -2.4994 0.9688
-7.2064 -2.1461 -2.4994 0.9688
-6.9359 -2.9043 -2.4995 0.9688
-6.8279 -3.1500 -2.4995 0.9688
-6.7112 -3.3917 -2.4996 0.9688
-6.5860 -3.6292 -2.4996 0.9688
5.8745 3.8073 -2.5034 0.9707
5.4336 4.4132 -2.5033 0.9707
5.2725 4.6043 -2.5032 0.9707
5.1047 4.7894 -2.5032 0.9707
4.9304 4.9685 -2.5031 0.9707
4.5632 5.3073 -2.5030 0.9707
4.3707 5.4666 -2.5029 0.9707
4.1727 5.6190 -2.5029 0.9707
3.9694 5.7642 -2.5028 0.9707
3.7611 5.9021 -2.5027 0.9707
3.1083 6.2698 -2.5025 0.9707
2.8825 6.3766 -2.5025 0.9707
2.4201 6.5656 -2.5023 0.9707
1.4609 6.8424 -2.5020 0.9707
0.7211 6.9587 -2.5018 0.9707
0.2228 6.9920 -2.5017 0.9707
-0.2766 6.9896 -2.5015 0.9707
-1.0220 6.9194 -2.5013 0.9707
-1.7557 6.7699 -2.5011 0.9707
-2.2340 6.6270 -2.5009 0.9707
-2.7010 6.4504 -2.5008 0.9707
-2.9294 6.3497 -2.5007 0.9707
-3.1541 6.2409 -2.5006 0.9707
-3.3747 6.1242 -2.5006 0.9707
-3.5911 5.9997 -2.5005 0.9707
-3.8028 5.8676 -2.5004 0.9707
-4.2115 5.5810 -2.5003 0.9707
-4.4079 5.4271 -2.5003 0.9707
-4.9625 4.9244 -2.5001 0.9707
-5.3009 4.5577 -2.5000 0.9707
-5.6123 4.1678 -2.4999 0.9707
-5.8952 3.7566 -2.4998 0.9707
-6.1479 3.3264 -2.4997 0.9707
-6.5584 2.4175 -2.4996 0.9707
-6.6405 2.1818 -2.4996 0.9707
-6.8355 1.4595 -2.4995 0.9707
-6.8832 1.2145 -2.4995 0.9707
-6.9735 0.4718 -2.4995 0.9707
-6.9894 -0.0269 -2.4995 0.9707
-6.8737 -1.2675 -2.4995 0.9707
-6.8241 -1.5120 -2.4995 0.9707
-6.6989 -1.9950 -2.4996 0.9707
-6.5397 -2.4679 -2.4996 0.9707
-6.4475 -2.6997 -2.4996 0.9707
-6.1222 -3.3736 -2.4997 0.9707
5.4816 3.5527 -2.5033 0.9724
5.3513 3.7460 -2.5032 0.9724
5.0702 4.1181 -2.5032 0.9724
4.9199 4.2964 -2.5031 0.9724
4.7633 4.4691 -2.5031 0.9724
4.6007 4.6362 -2.5030 0.9724
4.2581 4.9524 -2.5029 0.9724
4.0785 5.1011 -2.5028 0.9724
3.5096 5.5075 -2.5027 0.9724
2.6898 5.9503 -2.5024 0.9724
1.5904 6.3325 -2.5021 0.9724
1.1345 6.4294 -2.5019 0.9724
0.9042 6.4657 -2.5019 0.9724
0.6729 6.4936 -2.5018 0.9724
-0.4907 6.5090 -2.5014 0.9724
-0.7227 6.4872 -2.5014 0.9724
-1.1836 6.4187 -2.5012 0.9724
-1.4119 6.3722 -2.5012 0.9724
-1.8628 6.2549 -2.5010 0.9724
-2.5205 6.0195 -2.5008 0.9724
-3.7419 5.3453 -2.5005 0.9724
-3.9302 5.2082 -2.5004 0.9724
-4.1135 5.0645 -2.5003 0.9724
-4.4641 4.7580 -2.5002 0.9724
-4.6310 4.5955 -2.5002 0.9724
-4.7920 4.4272 -2.5001 0.9724
-5.2375 3.8894 -2.5000 0.9724
-5.3729 3.6999 -2.5000 0.9724
-5.5014 3.5057 -2.4999 0.9724
-5.6230 3.3071 -2.4999 0.9724
-5.8444 2.8975 -2.4998 0.9724
-6.0361 2.4731 -2.4998 0.9724
-6.1204 2.2560 -2.4997 0.9724
-6.1970 2.0361 -2.4997 0.9724
-6.2657 1.8136 -2.4997 0.9724
-6.3264 1.5888 -2.4997 0.9724
-6.4235 1.1335 -2.4996 0.9724
-6.4599 0.9034 -2.4996 0.9724
-6.4880 0.6723 -2.4996 0.9724
-6.5078 0.4403 -2.4996 0.9724
-6.5176 -0.2579 -2.4996 0.9724
-6.5043 -0.4904 -2.4996 0.9724
-6.4826 -0.7222 -2.4996 0.9724
-6.4527 -0.9531 -2.4996 0.9724
-6.2516 -1.8618 -2.4997 0.9724
-6.1029 -2.3031 -2.4997 0.9724
-5.7133 -3.1483 -2.4999 0.9724
5.2480 3.1411 -2.5032 0.9739
4.8819 3.6839 -2.5031 0.9739
4.6065 4.0227 -2.5030 0.9739
4.4599 4.1845 -2.5030 0.9739
4.3076 4.3409 -2.5029 0.9739
3.4681 5.0363 -2.5027 0.9739
3.2861 5.1567 -2.5026 0.9739
2.9097 5.3778 -2.5025 0.9739
2.5185 5.5713 -2.5024 0.9739
2.3180 5.6576 -2.5023 0.9739
2.1145 5.7365 -2.5022 0.9739
1.9084 5.8082 -2.5022 0.9739
1.6998 5.8725 -2.5021 0.9739
1.2765 5.9785 -2.5020 0.9739
1.0622 6.0201 -2.5019 0.9739
0.8467 6.0540 -2.5019 0.9739
0.6300 6.0802 -2.5018 0.9739
-0.0235 6.1122 -2.5016 0.9739
-0.2417 6.1073 -2.5015 0.9739
-0.4595 6.0946 -2.5015 0.9739
-0.6767 6.0742 -2.5014 0.9739
-0.8930 6.0460 -2.5013 0.9739
-1.1082 6.0101 -2.5013 0.9739
-1.3220 5.9666 -2.5012 0.9739
-1.5341 5.9154 -2.5011 0.9739
-1.9521 5.7906 -2.5010 0.9739
-2.1575 5.7171 -2.5009 0.9739
-2.3601 5.6363 -2.5009 0.9739
-2.5597 5.5484 -2.5008 0.9739
-2.7560 5.4533 -2.5008 0.9739
-2.9489 5.3514 -2.5007 0.9739
-3.6801 4.8768 -2.5005 0.9739
-4.0185 4.6016 -2.5004 0.9739
-4.9042 3.6419 -2.5001 0.9739
-5.1514 3.2827 -2.5000 0.9739
-5.3723 2.9067 -2.5000 0.9739
-5.4726 2.7131 -2.4999 0.9739
-5.6521 2.3157 -2.4999 0.9739
-5.8028 1.9066 -2.4998 0.9739
-5.8671 1.6982 -2.4998 0.9739
-5.9239 1.4878 -2.4998 0.9739
-6.0938 0.4123 -2.4997 0.9739
-6.1030 -0.2415 -2.4997 0.9739
-6.0422 -0.8925 -2.4998 0.9739
-6.0065 -1.1076 -2.4998 0.9739
-5.9123 -1.5333 -2.4998 0.9739
-5.7879 -1.9512 -2.4998 0.9739
-5.7147 -2.1565 -2.4999 0.9739
-5.6341 -2.3592 -2.4999 0.9739
-5.5464 -2.5588 -2.4999 0.9739
-5.4516 -2.7552 -2.4999 0.9739
4.8197 3.1237 -2.5031 0.9753
4.5844 3.4594 -2.5030 0.9753
4.4580 3.6208 -2.5030 0.9753
4.3258 3.7776 -2.5029 0.9753
4.1882 3.9295 -2.5029 0.9753
3.8970 4.2181 -2.5028 0.9753
3.7439 4.3544 -2.5027 0.9753
3.5860 4.4852 -2.5027 0.9753
3.2568 4.7294 -2.5026 0.9753
2.1768 5.3129 -2.5023 0.9753
1.7921 5.4544 -2.5021 0.9753
1.1987 5.6143 -2.5020 0.9753
0.9976 5.6534 -2.5019 0.9753
0.7951 5.6853 -2.5018 0.9753
0.1828 5.7372 -2.5017 0.9753
-0.0221 5.7400 -2.5016 0.9753
-0.2269 5.7354 -2.5015 0.9753
-0.6355 5.7043 -2.5014 0.9753
-0.8387 5.6778 -2.5013 0.9753
-1.4407 5.5552 -2.5012 0.9753
-2.0261 5.3690 -2.5010 0.9753
-2.2164 5.2932 -2.5009 0.9753
-2.4038 5.2106 -2.5009 0.9753
-2.5882 5.1213 -2.5008 0.9753
-2.7693 5.0256 -2.5008 0.9753
-2.9469 4.9234 -2.5007 0.9753
-3.4561 4.5799 -2.5005 0.9753
-3.6173 4.4536 -2.5005 0.9753
-3.7738 4.3215 -2.5004 0.9753
-3.9256 4.1840 -2.5004 0.9753
-4.0724 4.0412 -2.5004 0.9753
-4.2139 3.8932 -2.5003 0.9753
-4.3501 3.7402 -2.5003 0.9753
-4.7248 3.2537 -2.5002 0.9753
-5.1395 2.5480 -2.5000 0.9753
-5.3081 2.1748 -2.5000 0.9753
-5.3823 1.9839 -2.5000 0.9753
-5.6097 1.1977 -2.4999 0.9753
-5.6808 0.7945 -2.4999 0.9753
-5.7331 0.1827 -2.4999 0.9753
-5.7360 -0.0221 -2.4999 0.9753
-5.7315 -0.2268 -2.4999 0.9753
-5.7008 -0.6351 -2.4999 0.9753
-5.6745 -0.8381 -2.4999 0.9753
-5.6410 -1.0402 -2.4999 0.9753
-5.6003 -1.2409 -2.4999 0.9753
-5.5525 -1.4399 -2.4999 0.9753
-5.3669 -2.0253 -2.5000 0.9753
-5.2912 -2.2156 -2.5000 0.9753
-5.2088 -2.4030 -2.5000 0.9753
4.4298 3.1010 -2.5030 0.9764
4.3162 3.2571 -2.5029 0.9764
4.1971 3.4090 -2.5029 0.9764
4.0727 3.5566 -2.5028 0.9764
3.9431 3.6996 -2.5028 0.9764
3.5249 4.0997 -2.5027 0.9765
3.2233 4.3405 -2.5026 0.9765
2.2267 4.9259 -2.5023 0.9765
2.0494 5.0021 -2.5022 0.9765
1.5029 5.1922 -2.5021 0.9765
1.3166 5.2424 -2.5020 0.9765
0.5571 5.3759 -2.5018 0.9765
0.1721 5.4017 -2.5017 0.9765
-0.0208 5.4043 -2.5016 0.9765
-0.5983 5.3708 -2.5014 0.9765
-0.7896 5.3458 -2.5014 0.9765
-1.3564 5.2304 -2.5012 0.9765
-2.0868 4.9837 -2.5010 0.9765
-2.2633 4.9060 -2.5009 0.9765
-2.6074 4.7318 -2.5008 0.9765
-2.9382 4.5336 -2.5007 0.9765
-3.2540 4.3122 -2.5006 0.9765
-3.5533 4.0689 -2.5005 0.9765
-3.6962 3.9395 -2.5005 0.9765
-3.8343 3.8050 -2.5004 0.9765
-4.4487 3.0635 -2.5002 0.9765
-4.5551 2.9027 -2.5002 0.9765
-4.6558 2.7382 -2.5002 0.9765
-4.7505 2.5703 -2.5002 0.9765
-4.8391 2.3991 -2.5001 0.9765
-4.9216 2.2248 -2.5001 0.9765
-4.9979 2.0477 -2.5001 0.9765
-5.0677 1.8680 -2.5001 0.9765
-5.1311 1.6859 -2.5000 0.9765
-5.1880 1.5017 -2.5000 0.9765
-5.2818 1.1277 -2.5000 0.9765
-5.3488 0.7480 -2.5000 0.9765
-5.3721 0.5567 -2.5000 0.9765
-5.3981 0.1720 -2.5000 0.9765
-5.4008 -0.0208 -2.5000 0.9765
-5.3966 -0.2135 -2.5000 0.9765
-5.3855 -0.4060 -2.5000 0.9765
-5.3429 -0.7892 -2.5000 0.9765
-5.3113 -0.9794 -2.5000 0.9765
-5.2280 -1.3558 -2.5000 0.9765
-5.1763 -1.5415 -2.5000 0.9765
-5.1180 -1.7253 -2.5000 0.9765
-5.0532 -1.9069 -2.5001 0.9765
-4.9044 -2.2626 -2.5001 0.9765
-4.8206 -2.4362 -2.5001 0.9765
-4.7306 -2.6068 -2.5002 0.9765
4.0729 3.0734 -2.5028 0.9775
3.7209 3.4910 -2.5027 0.9775
3.3262 3.8686 -2.5026 0.9775
2.8935 4.2018 -2.5025 0.9775
2.7416 4.3023 -2.5024 0.9775
2.5862 4.3973 -2.5024 0.9775
2.2659 4.5704 -2.5023 0.9775
1.9340 4.7203 -2.5022 0.9775
1.4182 4.8996 -2.5020 0.9775
1.2424 4.9470 -2.5020 0.9775
0.5257 5.0730 -2.5018 0.9775
0.1624 5.0974 -2.5016 0.9775
-0.3834 5.0852 -2.5015 0.9775
-0.5646 5.0681 -2.5014 0.9775
-0.7451 5.0446 -2.5014 0.9775
-1.1031 4.9784 -2.5013 0.9775
-1.2800 4.9358 -2.5012 0.9775
-1.9693 4.7030 -2.5010 0.9775
-2.1358 4.6296 -2.5009 0.9775
-2.4606 4.4653 -2.5008 0.9775
-2.6183 4.3745 -2.5008 0.9775
-2.7727 4.2782 -2.5008 0.9775
-2.9236 4.1764 -2.5007 0.9775
-3.0707 4.0693 -2.5007 0.9775
-3.2140 3.9571 -2.5006 0.9775
-3.7442 3.4592 -2.5005 0.9775
-4.1981 2.8910 -2.5003 0.9775
-4.2986 2.7392 -2.5003 0.9775
-4.5666 2.2640 -2.5002 0.9775
-4.6445 2.0995 -2.5002 0.9775
-4.8958 1.4171 -2.5001 0.9775
-4.9433 1.2415 -2.5001 0.9775
-4.9844 1.0642 -2.5001 0.9775
-5.0192 0.8856 -2.5001 0.9775
-5.0476 0.7059 -2.5001 0.9775
-5.0851 0.3440 -2.5001 0.9775
-5.0941 0.1623 -2.5001 0.9775
-5.0927 -0.2015 -2.5001 0.9775
-5.0420 -0.7447 -2.5001 0.9775
-4.9761 -1.1025 -2.5001 0.9775
-4.9336 -1.2795 -2.5001 0.9775
-4.8848 -1.4547 -2.5001 0.9775
-4.6282 -2.1352 -2.5002 0.9775
-4.5491 -2.2990 -2.5002 0.9775
-4.4642 -2.4600 -2.5002 0.9775
4.1397 2.4778 -2.5029 0.9785
4.0485 2.6239 -2.5028 0.9785
3.9523 2.7667 -2.5028 0.9785
3.8509 2.9060 -2.5028 0.9785
3.6337 3.1732 -2.5027 0.9785
3.3980 3.4243 -2.5026 0.9785
3.2736 3.5433 -2.5026 0.9785
3.1450 3.6578 -2.5026 0.9785
2.8759 3.8727 -2.5025 0.9785
2.5922 4.0679 -2.5024 0.9785
2.2953 4.2423 -2.5023 0.9785
1.9868 4.3951 -2.5022 0.9785
1.6681 4.5254 -2.5021 0.9785
1.3409 4.6327 -2.5020 0.9785
0.8380 4.7492 -2.5019 0.9785
-0.1906 4.8182 -2.5015 0.9785
-0.3625 4.8082 -2.5015 0.9785
-1.0430 4.7073 -2.5013 0.9785
-1.5401 4.5686 -2.5011 0.9785
-1.7022 4.5106 -2.5011 0.9785
-1.8620 4.4469 -2.5010 0.9785
-2.0195 4.3775 -2.5010 0.9785
-2.1744 4.3026 -2.5009 0.9785
-2.6218 4.0452 -2.5008 0.9785
-2.7644 3.9490 -2.5008 0.9785
-3.0390 3.7416 -2.5007 0.9785
-3.1706 3.6307 -2.5006 0.9785
-3.4214 3.3952 -2.5006 0.9785
-3.5403 3.2709 -2.5005 0.9785
-3.6548 3.1423 -2.5005 0.9785
-3.8696 2.8735 -2.5004 0.9785
-3.9696 2.7336 -2.5004 0.9785
-4.0646 2.5901 -2.5004 0.9785
-4.1544 2.4434 -2.5003 0.9785
-4.2389 2.2935 -2.5003 0.9785
-4.3917 1.9852 -2.5003 0.9785
-4.4597 1.8272 -2.5002 0.9785
-4.5786 1.5044 -2.5002 0.9785
-4.6293 1.3400 -2.5002 0.9785
-4.7460 0.8374 -2.5002 0.9785
-4.7728 0.6675 -2.5001 0.9785
-4.7936 0.4967 -2.5001 0.9785
-4.8056 -0.3623 -2.5001 0.9785
-4.7897 -0.5336 -2.5001 0.9785
-4.7394 -0.8739 -2.5002 0.9785
-4.6189 -1.3756 -2.5002 0.9785
-4.5669 -1.5396 -2.5002 0.9785
-4.5091 -1.7016 -2.5002 0.9785
-4.4455 -1.8614 -2.5003 0.9785
3.8346 2.4853 -2.5028 0.9794
3.6475 2.7524 -2.5027 0.9794
3.4418 3.0056 -2.5027 0.9794
3.3322 3.1264 -2.5026 0.9794
3.2185 3.2433 -2.5026 0.9794
3.1006 3.3561 -2.5025 0.9794
2.8532 3.5686 -2.5025 0.9794
2.7240 3.6681 -2.5024 0.9794
2.5913 3.7630 -2.5024 0.9794
2.3161 3.9381 -2.5023 0.9794
2.1741 4.0182 -2.5023 0.9794
2.0292 4.0932 -2.5022 0.9794
1.5800 4.2864 -2.5021 0.9794
1.4260 4.3400 -2.5020 0.9794
1.2701 4.3880 -2.5020 0.9794
1.1127 4.4305 -2.5019 0.9794
0.9538 4.4673 -2.5019 0.9794
0.6327 4.5238 -2.5018 0.9794
0.4708 4.5434 -2.5017 0.9794
0.3083 4.5572 -2.5017 0.9794
0.1455 4.5652 -2.5016 0.9794
-0.0176 4.5674 -2.5016 0.9794
-0.6673 4.5180 -2.5014 0.9794
-0.8282 4.4912 -2.5013 0.9794
-1.3034 4.3767 -2.5012 0.9794
-1.6123 4.2724 -2.5011 0.9794
-1.7637 4.2121 -2.5011 0.9794
-2.0596 4.0754 -2.5010 0.9794
-2.7503 3.6446 -2.5008 0.9794
-2.8786 3.5441 -2.5007 0.9794
-3.0032 3.4391 -2.5007 0.9794
-3.1240 3.3296 -2.5006 0.9794
-3.3535 3.0982 -2.5006 0.9794
-3.5658 2.8510 -2.5005 0.9794
-3.6653 2.7219 -2.5005 0.9794
-3.7601 2.5893 -2.5005 0.9794
-3.8500 2.4534 -2.5004 0.9794
-3.9351 2.3144 -2.5004 0.9794
-4.0152 2.1724 -2.5004 0.9794
-4.0901 2.0277 -2.5004 0.9794
-4.2243 1.7308 -2.5003 0.9794
-4.3850 1.2693 -2.5003 0.9794
-4.4643 0.9532 -2.5002 0.9794
-4.4955 0.7932 -2.5002 0.9794
-4.5545 0.3081 -2.5002 0.9794
-4.5626 0.1454 -2.5002 0.9794
-4.5649 -0.0176 -2.5002 0.9794
-4.5369 -0.5054 -2.5002 0.9794
-4.5159 -0.6670 -2.5002 0.9794
-4.4569 -0.9875 -2.5002 0.9794
-4.3751 -1.3029 -2.5003 0.9794
-4.3259 -1.4583 -2.5003 0.9794
-4.2711 -1.6118 -2.5003 0.9794
-4.2109 -1.7632 -2.5003 0.9794
-4.1453 -1.9124 -2.5003 0.9794
-4.0744 -2.0591 -2.5004 0.9794
3.7195 2.2263 -2.5027 0.9802
3.6377 2.3576 -2.5027 0.9802
3.5511 2.4859 -2.5027 0.9802
3.3647 2.7328 -2.5026 0.9802
3.2649 2.8512 -2.5026 0.9802
3.0531 3.0767 -2.5025 0.9802
2.4582 3.5697 -2.5024 0.9802
2.1972 3.7358 -2.5023 0.9802
2.0624 3.8118 -2.5022 0.9802
1.6430 4.0102 -2.5021 0.9802
1.4988 4.0662 -2.5021 0.9802
1.3527 4.1171 -2.5020 0.9802
1.2049 4.1627 -2.5020 0.9802
1.0555 4.2029 -2.5019 0.9802
0.7530 4.2674 -2.5018 0.9802
0.4466 4.3101 -2.5017 0.9802
0.2925 4.3232 -2.5017 0.9802
0.1380 4.3308 -2.5016 0.9802
-0.0167 4.3329 -2.5016 0.9802
-0.1713 4.3294 -2.5015 0.9802
-0.4797 4.3060 -2.5015 0.9802
-0.6331 4.2861 -2.5014 0.9802
-0.9372 4.2298 -2.5013 0.9802
-1.2365 4.1520 -2.5012 0.9802
-1.3839 4.1052 -2.5012 0.9802
-1.8147 3.9335 -2.5010 0.9802
-1.9539 3.8662 -2.5010 0.9802
-2.2247 3.7168 -2.5009 0.9802
-2.3559 3.6350 -2.5009 0.9802
-2.6091 3.4575 -2.5008 0.9802
-2.7308 3.3622 -2.5008 0.9802
-2.9636 3.1587 -2.5007 0.9802
-3.0744 3.0509 -2.5007 0.9802
-3.1813 2.9392 -2.5006 0.9802
-3.2842 2.8237 -2.5006 0.9802
-3.3828 2.7046 -2.5006 0.9802
-3.4772 2.5822 -2.5005 0.9802
-3.6524 2.3275 -2.5005 0.9802
-3.7331 2.1956 -2.5005 0.9802
-3.8802 1.9236 -2.5004 0.9802
-4.1143 1.3518 -2.5003 0.9802
-4.1599 1.2041 -2.5003 0.9802
-4.2002 1.0549 -2.5003 0.9802
-4.2889 0.5998 -2.5003 0.9802
-4.3284 0.1379 -2.5003 0.9802
-4.2281 -0.9368 -2.5003 0.9802
-4.1038 -1.3834 -2.5004 0.9802
-3.9947 -1.6727 -2.5004 0.9802
-3.9325 -1.8142 -2.5004 0.9802
-3.7931 -2.0902 -2.5005 0.9802
