ply
format ascii 1.0
element vertex 1318
property float32 x
property float32 y
property float32 z
property float32 I
end_header
-12.8206 -10.4130 2.9123 0.9351
-12.8520 -12.9512 3.2172 0.9286
-13.0240 -24.0713 4.8259 0.8948
-12.1548 -24.5173 4.8252 0.8948
-11.2029 -24.7827 4.7956 0.8954
-10.1587 -24.7945 4.7247 0.8969
-9.1436 -24.8059 4.6616 0.8982
-7.4728 -22.7436 4.2212 0.9073
-6.5932 -22.7779 4.1812 0.9082
-2.5771 -24.8696 4.4087 0.9034
-1.6833 -24.8797 4.3970 0.9037
0.0878 -22.8234 4.0244 0.9115
3.0933 -20.9426 3.7328 0.9176
4.6764 -21.1060 3.8118 0.9159
5.4758 -21.1150 3.8463 0.9152
7.9787 -21.1431 3.9847 0.9123
8.3649 -19.9770 3.8188 0.9158
8.7983 -19.0713 3.7034 0.9182
12.5932 -21.0399 4.3237 0.9052
7.1381 -11.0138 2.3142 0.9481
18.4306 -21.1055 4.9407 0.8924
19.2150 -20.4798 4.9517 0.8922
19.9314 -19.7787 4.9512 0.8922
22.3996 -19.2591 5.2088 0.8869
24.1121 -19.2783 5.4435 0.8822
28.0004 -19.2819 5.9946 0.8710
-12.8673 -11.2365 2.6170 0.9332
-12.8579 -12.9571 2.7964 0.9288
-14.5536 -24.7451 4.3978 0.8903
-13.3956 -24.7581 4.3124 0.8923
-12.2804 -24.7706 4.2355 0.8942
-11.2029 -24.7827 4.1665 0.8958
-10.1587 -24.7945 4.1048 0.8972
-7.4728 -22.7436 3.6674 0.9077
-6.5936 -22.7795 3.6329 0.9085
-3.4767 -24.8595 3.8454 0.9034
-2.5771 -24.8696 3.8303 0.9038
-1.6833 -24.8797 3.8201 0.9040
-0.7270 -22.8143 3.4968 0.9118
2.8122 -19.0392 2.9483 0.9251
4.2220 -19.0550 2.9899 0.9241
4.9437 -19.0631 3.0170 0.9234
7.9787 -21.1431 3.4620 0.9126
8.3645 -19.9760 3.3177 0.9161
8.7983 -19.0713 3.2175 0.9185
9.6431 -19.0808 3.2752 0.9171
7.1239 -12.9280 2.2613 0.9420
14.8477 -21.2103 3.9663 0.9005
17.2492 -21.2373 4.1914 0.8952
18.4306 -21.1055 4.2925 0.8928
21.3010 -21.1377 4.5972 0.8856
23.0576 -21.3025 4.8091 0.8807
25.2218 -20.1655 4.9470 0.8775
28.0004 -19.2819 5.2082 0.8715
30.3546 -19.3432 5.5141 0.8645
32.9381 -19.3722 5.8539 0.8567
42.9311 -23.2282 7.4777 0.8208
19.5132 9.8616 3.3494 0.9153
-12.8482 -12.9474 2.3753 0.9291
-14.5536 -24.7451 3.7383 0.8907
-13.3956 -24.7581 3.6657 0.8927
-11.2029 -24.7827 3.5416 0.8961
-10.1587 -24.7945 3.4893 0.8976
-9.1436 -24.8059 3.4427 0.8988
-7.4728 -22.7436 3.1175 0.9079
-6.2123 -24.7361 3.3212 0.9022
-5.3035 -24.8390 3.3075 0.9026
-4.3847 -24.8493 3.2859 0.9032
-3.4767 -24.8595 3.2687 0.9037
-1.6833 -24.8797 3.2473 0.9043
-0.7270 -22.8143 2.9724 0.9120
1.4341 -19.0237 2.4843 0.9259
4.2220 -19.0550 2.5415 0.9243
4.9437 -19.0631 2.5645 0.9236
5.6796 -19.0714 2.5913 0.9229
6.4320 -19.0798 2.6220 0.9220
7.9966 -19.0974 2.6961 0.9199
8.7983 -19.0713 2.7350 0.9188
10.5392 -19.1258 2.8437 0.9157
11.4326 -19.1009 2.8988 0.9141
17.2492 -21.2372 3.5628 0.8955
19.9541 -21.2676 3.7976 0.8890
21.3010 -21.1378 3.9078 0.8860
27.1187 -20.1386 4.3987 0.8726
28.0004 -19.2819 4.4272 0.8719
32.8365 -19.3125 4.9607 0.8576
19.4873 9.8485 2.8433 0.9157
-13.3582 -22.7126 2.8295 0.8994
-12.2953 -22.7245 2.7745 0.9013
-9.3099 -22.7230 2.6369 0.9059
-8.3926 -22.7684 2.6057 0.9070
-7.4728 -22.7436 2.5707 0.9082
-6.5861 -22.7536 2.5436 0.9091
-5.7256 -22.7982 2.5241 0.9098
-4.0262 -22.8173 2.4880 0.9110
-3.1924 -22.8267 2.4750 0.9114
-1.5456 -22.8452 2.4588 0.9120
-0.7270 -22.8143 2.4511 0.9123
0.0730 -18.9733 2.0374 0.9265
0.7510 -18.9809 2.0398 0.9264
2.1162 -18.9962 2.0525 0.9260
2.8070 -19.0040 2.0628 0.9256
3.5057 -19.0118 2.0759 0.9252
4.2142 -19.0198 2.0919 0.9246
4.9346 -19.0279 2.1108 0.9240
6.4320 -19.0798 2.1621 0.9222
8.7983 -19.0713 2.2553 0.9190
10.5392 -19.1258 2.3449 0.9159
11.4326 -19.1008 2.3904 0.9143
12.4092 -19.1468 2.4501 0.9123
14.4658 -19.1699 2.5788 0.9079
16.7629 -19.1957 2.7366 0.9026
20.7884 -19.2059 3.0392 0.8924
24.7990 -21.3220 3.5119 0.8767
27.1181 -20.1381 3.6271 0.8729
28.0004 -19.2819 3.6507 0.8722
33.5257 -21.3639 4.2689 0.8522
19.4616 9.8356 2.3415 0.9160
-15.6230 -22.6872 2.3319 0.8953
-12.2953 -22.7245 2.1872 0.9015
-11.2717 -22.7360 2.1482 0.9031
-10.2827 -22.7472 2.1132 0.9046
-8.3926 -22.7684 2.0542 0.9072
-6.5861 -22.7536 2.0052 0.9093
-5.7256 -22.7982 1.9899 0.9100
-3.8756 -21.9639 1.8880 0.9144
-0.7270 -22.8143 1.9323 0.9124
0.0878 -22.8235 1.9321 0.9125
0.9034 -22.8326 1.9344 0.9124
1.5775 -20.9255 1.7764 0.9192
3.8120 -20.6735 1.7796 0.9191
7.9235 -20.9968 1.8998 0.9138
8.3633 -19.9734 1.8330 0.9167
8.7983 -19.0713 1.7780 0.9191
10.8878 -18.1906 1.7946 0.9184
11.7961 -18.2008 1.8360 0.9166
12.7485 -18.2116 1.8819 0.9146
13.7511 -18.2228 1.9325 0.9124
14.8538 -18.2880 1.9944 0.9098
18.0235 -19.2099 2.2299 0.8997
19.3735 -19.2251 2.3105 0.8962
22.3996 -19.2591 2.5007 0.8882
24.1121 -19.2783 2.6134 0.8834
28.0004 -19.2819 2.8780 0.8724
30.2989 -19.3077 3.0414 0.8657
40.9321 -24.0738 4.0199 0.8264
42.9284 -23.2268 4.1318 0.8221
-15.5861 -24.4587 1.7985 0.8903
-12.0719 -24.3501 1.6853 0.8968
-6.3253 -21.8524 1.4107 0.9129
-5.4904 -21.8618 1.3978 0.9136
-4.6697 -21.8710 1.3868 0.9143
-1.4822 -21.9068 1.3616 0.9158
-0.7270 -22.8143 1.4154 0.9126
1.5775 -20.9255 1.3013 0.9193
2.1942 -19.6962 1.2289 0.9236
4.3969 -19.8446 1.2604 0.9218
5.1364 -19.8063 1.2688 0.9213
6.7338 -19.9753 1.3072 0.9190
7.5419 -19.9857 1.3246 0.9180
8.7983 -19.0713 1.3024 0.9193
11.7961 -18.2008 1.3449 0.9167
12.7486 -18.2115 1.3785 0.9148
13.7511 -18.2228 1.4156 0.9126
14.8105 -18.2347 1.4567 0.9101
15.9347 -18.2474 1.5022 0.9075
17.1330 -18.2608 1.5527 0.9045
19.7977 -18.2908 1.6714 0.8976
21.2929 -18.3076 1.7413 0.8936
22.9208 -18.3258 1.8198 0.8890
26.7996 -18.4550 2.0178 0.8777
32.9381 -19.3722 2.3696 0.8580
35.8650 -19.4051 2.5287 0.8492
19.4108 9.8099 1.3487 0.9165
-12.6094 -23.3049 1.0448 0.8994
-11.5535 -23.3044 1.0256 0.9011
-10.5155 -23.2619 1.0066 0.9029
-9.5127 -23.2179 0.9894 0.9044
-9.0902 -24.6608 1.0364 0.9001
-7.4728 -22.7436 0.9440 0.9086
-5.3748 -25.1729 1.0150 0.9021
-4.4697 -25.3308 1.0142 0.9022
-2.6474 -25.5486 1.0128 0.9023
-0.7270 -22.8143 0.9000 0.9127
0.9793 -24.7519 0.9768 0.9056
2.0761 -18.6358 0.7394 0.9277
4.1342 -18.6590 0.7536 0.9263
7.0536 -18.6918 0.7878 0.9231
9.6431 -19.0808 0.8430 0.9180
14.7427 -22.7473 1.0689 0.8972
15.7566 -22.5086 1.0834 0.8958
19.9085 -21.2190 1.1473 0.8901
23.0108 -18.3978 1.1617 0.8888
42.5956 -21.1174 1.8747 0.8267
19.3856 9.7971 0.8565 0.9167
26.1566 14.4134 1.1776 0.8873
-7.3138 -11.4773 0.2299 0.9470
-6.2166 -11.4897 0.2207 0.9491
-5.7125 -11.5226 0.2172 0.9499
-9.1632 -22.3647 0.4083 0.9078
-9.0901 -24.6608 0.4440 0.9002
-7.4728 -22.7436 0.4044 0.9087
-6.5861 -22.7536 0.4001 0.9096
-6.5581 -26.1131 0.4548 0.8979
-5.6662 -26.5381 0.4584 0.8971
-3.6915 -26.3953 0.4502 0.8989
-2.7534 -26.5708 0.4512 0.8986
-1.7984 -26.5816 0.4500 0.8989
0.0878 -22.8234 0.3855 0.9127
0.9793 -24.7519 0.4184 0.9057
1.5775 -20.9255 0.3545 0.9195
2.7537 -18.6435 0.3183 0.9274
4.8410 -18.6669 0.3257 0.9258
7.0536 -18.6918 0.3375 0.9232
8.3622 -19.9707 0.3657 0.9170
8.7983 -19.0712 0.3548 0.9194
15.7566 -22.5086 0.4641 0.8959
15.5515 -19.1471 0.4167 0.9060
20.0605 -22.9720 0.5152 0.8851
21.0396 -19.4380 0.4838 0.8917
28.0004 -19.2819 0.5743 0.8728
19.3605 9.7844 0.3664 0.9169
-8.8050 -12.7862 -0.0874 0.9398
-5.4260 -12.0032 -0.0742 0.9487
-9.0901 -24.6608 -0.1480 0.9002
-7.4728 -22.7436 -0.1348 0.9087
-6.5861 -22.7536 -0.1334 0.9096
-4.6847 -26.5492 -0.1518 0.8978
-2.7534 -26.5709 -0.1504 0.8987
-0.7270 -22.8143 -0.1285 0.9127
1.5775 -20.9255 -0.1181 0.9195
2.3321 -20.9340 -0.1186 0.9192
3.0933 -20.9426 -0.1192 0.9188
3.8633 -20.9512 -0.1199 0.9183
6.2474 -20.9780 -0.1232 0.9162
7.0750 -20.9873 -0.1247 0.9152
7.9235 -20.9968 -0.1264 0.9141
8.3618 -19.9698 -0.1219 0.9170
9.6431 -19.0808 -0.1204 0.9180
12.5210 -22.7223 -0.1461 0.9014
13.7069 -22.9006 -0.1503 0.8987
20.0606 -22.9720 -0.1717 0.8852
21.1756 -22.5695 -0.1743 0.8836
23.1847 -23.0071 -0.1839 0.8775
26.6570 -22.9195 -0.1979 0.8688
27.1151 -20.1359 -0.1902 0.8736
35.5164 -20.8887 -0.2320 0.8480
41.6098 7.6726 -0.2382 0.8443
33.5166 7.4262 -0.1933 0.8717
-13.6765 -14.8032 -0.5675 0.9225
-13.2132 -15.3679 -0.5707 0.9221
-11.7413 -14.6852 -0.5294 0.9275
-7.5416 -12.8228 -0.4189 0.9422
-6.9415 -12.8295 -0.4107 0.9433
-6.3636 -12.8360 -0.4034 0.9443
-5.4262 -12.0037 -0.3709 0.9487
-5.4965 -14.9114 -0.4475 0.9384
-4.3250 -14.9418 -0.4380 0.9397
-3.7016 -14.7387 -0.4279 0.9410
-3.2311 -15.1328 -0.4357 0.9400
-2.6418 -14.9717 -0.4281 0.9410
-2.1287 -15.2201 -0.4327 0.9404
-0.4811 -15.0991 -0.4254 0.9413
0.5988 -15.1355 -0.4265 0.9412
1.1410 -15.1351 -0.4274 0.9411
1.6928 -15.1956 -0.4305 0.9407
2.8198 -15.2925 -0.4379 0.9397
3.3637 -15.1813 -0.4378 0.9397
5.6933 -15.0871 -0.4541 0.9375
6.4110 -15.3109 -0.4674 0.9357
6.9197 -14.9992 -0.4651 0.9360
9.7665 -15.0692 -0.5056 0.9307
10.5707 -15.1004 -0.5190 0.9289
11.3978 -15.1043 -0.5328 0.9271
12.3043 -15.1491 -0.5495 0.9249
14.0976 -15.0257 -0.5802 0.9209
16.2017 -14.9684 -0.6211 0.9155
17.4716 -15.0220 -0.6488 0.9119
18.7986 -15.0301 -0.6777 0.9082
20.4735 -15.2038 -0.7181 0.9030
22.0352 -15.1741 -0.7534 0.8985
23.6962 -15.1002 -0.7912 0.8937
25.7210 -15.1275 -0.8402 0.8874
27.9026 -15.0970 -0.8933 0.8808
41.5235 7.6567 -1.1889 0.8445
33.5694 7.4379 -0.9682 0.8715
30.2399 7.8423 -0.8797 0.8825
19.3105 9.7592 -0.6092 0.9171
42.2898 23.3036 -1.3596 0.8243
-41.7636 -24.9971 -2.4684 0.8229
-40.8567 -26.4796 -2.4691 0.8228
-39.8977 -27.9295 -2.4699 0.8228
-38.8881 -29.3453 -2.4707 0.8227
-36.7211 -32.0670 -2.4724 0.8226
-34.6423 -32.5027 -2.4091 0.8267
-15.2583 -15.3761 -1.0986 0.9169
-13.5878 -14.7072 -1.0155 0.9229
-11.7909 -14.7473 -0.9576 0.9272
-9.3698 -14.7036 -0.8842 0.9326
-5.4265 -12.0042 -0.6681 0.9486
-3.1886 -14.9341 -0.7744 0.9407
-1.5273 -14.7383 -0.7514 0.9424
0.0572 -14.8714 -0.7542 0.9422
0.5900 -14.9124 -0.7569 0.9420
1.1210 -14.8696 -0.7562 0.9420
1.6802 -15.0824 -0.7696 0.9410
3.3033 -14.9090 -0.7744 0.9407
3.8884 -14.9936 -0.7855 0.9398
5.6516 -14.9764 -0.8118 0.9379
6.2980 -15.0408 -0.8270 0.9368
7.5712 -14.9812 -0.8513 0.9350
8.1873 -14.8578 -0.8603 0.9343
8.9253 -14.9118 -0.8813 0.9328
12.1837 -15.0007 -0.9801 0.9255
16.2433 -15.0068 -1.1215 0.9152
20.1691 -14.9777 -1.2741 0.9043
21.9056 -15.0849 -1.3489 0.8990
23.7219 -15.1166 -1.4265 0.8935
25.7551 -15.1476 -1.5153 0.8872
27.8675 -15.0780 -1.6069 0.8808
30.5122 -15.1269 -1.7271 0.8725
37.5947 -16.9945 -2.0923 0.8477
44.1143 -16.2608 -2.3844 0.8284
46.9270 3.5377 -2.3866 0.8282
46.7684 5.2101 -2.3865 0.8282
41.7432 6.1657 -2.1399 0.8445
40.5667 7.4803 -2.0920 0.8477
-29.0049 -17.3605 -2.4785 0.8732
-27.7040 -19.3935 -2.4796 0.8732
-27.0003 -20.3746 -2.4801 0.8731
-26.2620 -21.3303 -2.4807 0.8731
-13.5745 -14.6928 -1.4667 0.9229
-11.8218 -14.7860 -1.3881 0.9269
-8.7360 -12.6860 -1.1294 0.9401
-9.3979 -14.7478 -1.2822 0.9323
-7.5416 -12.8228 -1.0907 0.9421
-6.9415 -12.8295 -1.0696 0.9432
-5.4267 -12.0048 -0.9660 0.9485
-6.1023 -14.8939 -1.1802 0.9375
-2.6203 -14.8497 -1.1056 0.9413
-1.5553 -15.0092 -1.1064 0.9413
-0.4777 -14.9901 -1.0997 0.9416
0.0574 -14.9238 -1.0943 0.9419
1.1332 -15.0319 -1.1053 0.9413
2.7521 -14.9252 -1.1128 0.9409
4.4594 -14.9739 -1.1456 0.9393
5.0289 -14.9178 -1.1543 0.9388
5.6340 -14.9297 -1.1700 0.9380
6.2265 -14.8701 -1.1820 0.9374
6.9193 -14.9983 -1.2111 0.9359
8.1865 -14.8562 -1.2437 0.9342
8.9238 -14.9094 -1.2740 0.9327
11.3116 -14.9901 -1.3769 0.9274
12.1669 -14.9799 -1.4150 0.9255
15.0277 -14.9126 -1.5523 0.9186
17.5487 -15.0883 -1.6969 0.9114
20.0471 -14.8871 -1.8309 0.9047
22.9939 -14.6527 -1.9992 0.8964
27.1850 -14.7087 -2.2663 0.8834
27.0099 -12.2097 -2.1734 0.8879
29.9495 -12.2708 -2.3731 0.8783
32.3340 -11.9185 -2.5267 0.8709
32.7495 -10.7604 -2.5276 0.8709
33.1165 -9.5857 -2.5278 0.8709
34.4113 -2.3282 -2.5289 0.8708
34.1167 5.0392 -2.5287 0.8708
33.8822 6.2477 -2.5262 0.8709
31.6173 7.0054 -2.3745 0.8782
30.2387 7.8420 -2.2905 0.8822
30.2852 11.4286 -2.3734 0.8782
29.8536 12.5005 -2.3731 0.8783
29.3969 13.5620 -2.3738 0.8782
19.2607 9.7340 -1.5823 0.9171
28.4963 15.7027 -2.3856 0.8777
-22.2003 -13.2877 -2.4839 0.9013
-21.2000 -14.8406 -2.4844 0.9012
-18.8741 -15.3297 -2.3344 0.9069
-14.9675 -15.0831 -2.0400 0.9182
-13.2253 -14.3150 -1.8711 0.9247
-8.7784 -11.8211 -1.4136 0.9425
-7.5416 -12.8228 -1.4282 0.9420
-5.4270 -12.0053 -1.2649 0.9484
-4.2830 -14.7967 -1.4789 0.9400
-2.6180 -14.8365 -1.4464 0.9413
-1.0105 -14.9359 -1.4372 0.9416
-0.4771 -14.9723 -1.4381 0.9416
0.0565 -14.7025 -1.4115 0.9426
0.5818 -14.7057 -1.4129 0.9426
1.6461 -14.7764 -1.4274 0.9420
2.1850 -14.7932 -1.4356 0.9417
4.4062 -14.7954 -1.4821 0.9399
5.0324 -14.9282 -1.5124 0.9387
5.5929 -14.8208 -1.5208 0.9383
6.2339 -14.8877 -1.5495 0.9372
9.6780 -14.9327 -1.7084 0.9310
11.9812 -14.7513 -1.8245 0.9265
12.6751 -14.5147 -1.8500 0.9255
13.6302 -14.5275 -1.9125 0.9231
15.7551 -14.5559 -2.0593 0.9174
16.9480 -14.5718 -2.1458 0.9141
19.6716 -14.6083 -2.3524 0.9062
20.2929 -13.9742 -2.3655 0.9057
21.2449 -12.4950 -2.3662 0.9057
21.6805 -11.7304 -2.3666 0.9057
22.8252 -11.3159 -2.4458 0.9027
23.9236 -10.8145 -2.5206 0.8999
24.6397 -9.0824 -2.5211 0.8999
25.6900 -5.4851 -2.5220 0.8998
25.8709 -4.5650 -2.5221 0.8998
17.3002 0.0665 -1.6609 0.9328
26.1111 2.9089 -2.5223 0.8998
25.8348 4.7638 -2.5221 0.8998
25.1023 7.4757 -2.5145 0.9001
23.3724 7.8790 -2.3679 0.9056
19.0954 8.8095 -2.0189 0.9190
-17.9670 -10.7539 -2.4873 0.9191
-15.7038 -11.8502 -2.3369 0.9238
-14.3537 -13.4671 -2.3380 0.9238
-13.8661 -13.9732 -2.3384 0.9238
-11.3481 -14.1935 -2.1586 0.9294
-8.7787 -11.8215 -1.7491 0.9424
-9.0642 -14.2241 -2.0035 0.9343
-6.9416 -12.8295 -1.7327 0.9429
-5.8455 -14.2671 -1.8315 0.9398
-4.7595 -14.4856 -1.8112 0.9404
-3.7192 -14.8090 -1.8137 0.9403
-3.1329 -14.6730 -1.7822 0.9414
-2.0856 -14.9123 -1.7886 0.9411
-1.5444 -14.9035 -1.7798 0.9414
-0.9979 -14.7488 -1.7560 0.9422
0.0566 -14.7119 -1.7476 0.9425
1.1123 -14.7540 -1.7575 0.9421
2.7416 -14.8686 -1.7960 0.9409
3.3125 -14.9505 -1.8190 0.9402
5.4408 -14.4180 -1.8305 0.9398
6.6591 -14.4343 -1.8883 0.9380
7.2991 -14.4428 -1.9223 0.9369
7.9635 -14.4517 -1.9600 0.9357
9.3785 -14.4706 -2.0484 0.9329
10.1369 -14.4808 -2.0997 0.9313
12.6751 -14.5147 -2.2890 0.9253
14.1058 -13.9977 -2.3606 0.9231
14.5988 -13.4876 -2.3609 0.9231
15.0733 -12.9600 -2.3613 0.9230
15.5287 -12.4156 -2.3617 0.9230
16.4068 -11.2981 -2.3663 0.9229
19.6085 -8.0339 -2.5171 0.9182
20.1350 -6.6157 -2.5175 0.9182
20.3596 -5.8933 -2.5177 0.9182
20.5584 -5.1631 -2.5179 0.9182
21.0875 -2.1851 -2.5183 0.9181
21.1525 -1.4311 -2.5184 0.9181
17.2662 -0.5502 -2.0520 0.9328
17.2268 0.0662 -2.0463 0.9330
17.4285 0.6896 -2.0719 0.9322
21.1408 1.5938 -2.5184 0.9181
21.0700 2.3473 -2.5183 0.9181
20.8474 3.8441 -2.5181 0.9182
20.6959 4.5856 -2.5180 0.9182
20.5179 5.3210 -2.5179 0.9182
20.0833 6.7703 -2.5175 0.9182
17.7579 8.9746 -2.3635 0.9230
17.4244 9.6016 -2.3632 0.9230
-15.0766 -9.0239 -2.4896 0.9315
-14.0303 -10.5874 -2.4904 0.9315
-12.9152 -11.2783 -2.4295 0.9331
-10.3183 -12.9055 -2.3412 0.9354
-9.8527 -13.2676 -2.3415 0.9354
-8.8050 -12.7862 -2.1997 0.9392
-8.8840 -13.9413 -2.3423 0.9354
-8.3712 -14.2333 -2.3397 0.9355
-6.3586 -12.8259 -2.0284 0.9438
-4.6928 -14.2825 -2.1301 0.9411
-4.1363 -14.2900 -2.1078 0.9417
-3.5907 -14.2972 -2.0887 0.9422
-3.0542 -14.3044 -2.0725 0.9426
-2.5253 -14.3115 -2.0591 0.9430
-2.0025 -14.3185 -2.0485 0.9433
-0.9697 -14.3323 -2.0354 0.9436
-0.4569 -14.3391 -2.0327 0.9437
0.5679 -14.3528 -2.0352 0.9436
1.6005 -14.3666 -2.0482 0.9433
3.1879 -14.3879 -2.0880 0.9422
4.2892 -14.4026 -2.1293 0.9411
5.4409 -14.4180 -2.1835 0.9396
6.0405 -14.4260 -2.2160 0.9388
6.9942 -11.6855 -1.9296 0.9465
9.0455 -13.9568 -2.3565 0.9350
10.0215 -13.2803 -2.3573 0.9350
10.4907 -12.9162 -2.3577 0.9350
11.8166 -11.7260 -2.3587 0.9350
12.2323 -11.3013 -2.3597 0.9349
13.1180 -11.2788 -2.4512 0.9325
14.2384 -10.5735 -2.5129 0.9309
15.2921 -8.9939 -2.5137 0.9308
15.6050 -8.4432 -2.5140 0.9308
16.4223 -6.7285 -2.5146 0.9308
16.8629 -5.5406 -2.5150 0.9308
17.0509 -4.9355 -2.5151 0.9308
17.2171 -4.3240 -2.5152 0.9308
17.4832 -3.0850 -2.5154 0.9308
17.5827 -2.4590 -2.5155 0.9308
17.6597 -1.8300 -2.5156 0.9308
17.7141 -1.1985 -2.5156 0.9308
17.7457 -0.5655 -2.5157 0.9308
17.5632 2.5942 -2.5155 0.9308
17.4588 3.2193 -2.5154 0.9308
17.3321 3.8403 -2.5153 0.9308
17.1832 4.4562 -2.5152 0.9308
17.0123 5.0664 -2.5151 0.9308
16.0872 7.4217 -2.5103 0.9309
14.5939 8.0419 -2.3610 0.9349
-12.9758 -7.7665 -2.4913 0.9405
-12.6915 -8.2255 -2.4915 0.9405
-11.3964 -9.9520 -2.4925 0.9405
-11.0352 -10.3536 -2.4928 0.9405
-10.2516 -11.0963 -2.4887 0.9406
-8.4798 -11.4190 -2.3431 0.9440
-8.0663 -11.7136 -2.3430 0.9440
-7.6442 -11.9957 -2.3433 0.9440
-7.2122 -12.2627 -2.3436 0.9440
-6.7709 -12.5142 -2.3440 0.9440
-5.4277 -12.0069 -2.1707 0.9480
-5.3969 -13.1724 -2.3451 0.9439
-4.4449 -13.5282 -2.3458 0.9439
-3.9599 -13.6805 -2.3462 0.9439
-3.4696 -13.8153 -2.3466 0.9439
-2.9748 -13.9327 -2.3470 0.9439
-0.9624 -14.2239 -2.3486 0.9438
1.0725 -14.2259 -2.3502 0.9438
4.0760 -13.6867 -2.3526 0.9438
4.5627 -13.5347 -2.3530 0.9437
5.0437 -13.3654 -2.3534 0.9437
5.5184 -13.1790 -2.3537 0.9437
5.9862 -12.9757 -2.3541 0.9437
6.4465 -12.7557 -2.3545 0.9437
7.7766 -11.9989 -2.3555 0.9437
8.2011 -11.7154 -2.3559 0.9437
8.6152 -11.4168 -2.3562 0.9437
9.1686 -11.2884 -2.3958 0.9427
10.8156 -10.7327 -2.5101 0.9401
11.5564 -9.9362 -2.5107 0.9401
12.5563 -8.6466 -2.5115 0.9401
13.1436 -7.7303 -2.5120 0.9401
13.4123 -7.2568 -2.5122 0.9401
13.6638 -6.7741 -2.5124 0.9400
13.8980 -6.2825 -2.5126 0.9400
14.3126 -5.2757 -2.5129 0.9400
15.1769 -1.5727 -2.5136 0.9400
15.2508 -0.4859 -2.5137 0.9400
15.2152 1.1471 -2.5137 0.9400
15.0044 2.7667 -2.5135 0.9400
14.6209 4.3542 -2.5132 0.9400
14.4554 4.8731 -2.5131 0.9400
14.0693 5.8912 -2.5127 0.9400
13.6112 6.8789 -2.5124 0.9400
-11.3785 -6.8105 -2.4925 0.9475
-10.8654 -7.6061 -2.4929 0.9474
-10.5880 -7.9897 -2.4932 0.9474
-10.2970 -8.3633 -2.4934 0.9474
-9.9929 -8.7264 -2.4936 0.9474
-9.6761 -9.0784 -2.4939 0.9474
-8.6530 -10.0640 -2.4947 0.9474
-7.5248 -10.9271 -2.4938 0.9474
-7.1190 -11.1716 -2.4899 0.9475
-6.6307 -11.2740 -2.4584 0.9482
-6.1047 -11.2829 -2.4113 0.9491
-4.7312 -11.5476 -2.3456 0.9505
-3.8965 -11.8590 -2.3463 0.9505
-1.7302 -12.3715 -2.3480 0.9504
-1.2878 -12.4272 -2.3483 0.9504
-0.3981 -12.4912 -2.3490 0.9504
0.0480 -12.4993 -2.3494 0.9504
0.4942 -12.4915 -2.3498 0.9504
0.9399 -12.4678 -2.3501 0.9504
1.3845 -12.4282 -2.3505 0.9504
3.5718 -11.9937 -2.3522 0.9503
3.9982 -11.8603 -2.3525 0.9503
4.4196 -11.7117 -2.3529 0.9503
4.8355 -11.5481 -2.3532 0.9503
5.2453 -11.3698 -2.3535 0.9503
6.2175 -11.2831 -2.4215 0.9489
7.2379 -11.1677 -2.5014 0.9473
7.6456 -10.9218 -2.5059 0.9472
8.0371 -10.6507 -2.5079 0.9471
8.4131 -10.3583 -2.5082 0.9471
9.1328 -9.7339 -2.5088 0.9471
9.8060 -9.0595 -2.5093 0.9471
11.5138 -6.7718 -2.5107 0.9471
12.8363 -3.7155 -2.5118 0.9471
13.0696 -2.7905 -2.5119 0.9471
13.3348 -0.9022 -2.5122 0.9471
13.3586 -0.4257 -2.5122 0.9471
13.3654 0.0514 -2.5122 0.9471
13.3275 1.0047 -2.5122 0.9471
13.2214 1.9529 -2.5121 0.9471
13.0477 2.8910 -2.5119 0.9471
12.9357 3.3547 -2.5118 0.9471
12.6624 4.2686 -2.5116 0.9471
12.1315 5.5968 -2.5112 0.9471
-9.8999 -6.4162 -2.4937 0.9529
-9.6653 -6.7660 -2.4939 0.9529
-8.8889 -7.7623 -2.4945 0.9529
-8.6070 -8.0753 -2.4947 0.9529
-8.3140 -8.3782 -2.4950 0.9529
-8.0104 -8.6704 -2.4952 0.9529
-7.6966 -8.9517 -2.4955 0.9529
-7.3730 -9.2217 -2.4957 0.9529
-6.3471 -9.9602 -2.4965 0.9529
-5.6216 -10.3900 -2.4971 0.9529
-5.2478 -10.5853 -2.4974 0.9528
-4.4771 -10.9273 -2.4962 0.9529
-4.0808 -11.0708 -2.4941 0.9529
-3.6802 -11.2009 -2.4922 0.9529
-2.8316 -11.2749 -2.4573 0.9536
-2.4081 -11.2786 -2.4378 0.9539
-1.9907 -11.2817 -2.4216 0.9542
-0.7637 -11.2875 -2.3914 0.9548
0.0434 -11.2886 -2.3862 0.9549
0.8509 -11.2875 -2.3927 0.9548
1.2573 -11.2861 -2.4004 0.9546
2.0803 -11.2817 -2.4249 0.9542
2.4990 -11.2787 -2.4419 0.9539
3.3565 -11.2707 -2.4858 0.9531
3.7752 -11.1989 -2.4981 0.9528
4.1768 -11.0683 -2.5007 0.9528
4.5742 -10.9242 -2.5034 0.9527
4.9654 -10.7629 -2.5055 0.9527
6.8014 -9.7160 -2.5070 0.9527
7.1447 -9.4680 -2.5072 0.9527
8.4228 -8.3583 -2.5083 0.9526
8.7166 -8.0530 -2.5085 0.9526
9.5299 -7.0770 -2.5091 0.9526
9.7772 -6.7328 -2.5093 0.9526
10.0120 -6.3800 -2.5095 0.9526
10.2341 -6.0191 -2.5097 0.9526
10.8208 -4.8915 -2.5102 0.9526
10.9891 -4.5024 -2.5103 0.9526
11.2834 -3.7073 -2.5105 0.9526
11.6163 -2.4802 -2.5108 0.9526
11.7642 -1.6453 -2.5109 0.9526
11.8156 -1.2244 -2.5110 0.9526
11.8519 -0.8019 -2.5110 0.9526
11.8730 -0.3783 -2.5110 0.9526
11.8454 0.8930 -2.5110 0.9526
11.7511 1.7357 -2.5109 0.9526
11.1114 4.1931 -2.5104 0.9526
10.9541 4.5868 -2.5103 0.9526
10.5978 5.3559 -2.5100 0.9526
-8.2405 -6.6930 -2.4950 0.9573
-7.9970 -6.9834 -2.4952 0.9573
-7.7432 -7.2650 -2.4954 0.9573
-7.4796 -7.5373 -2.4956 0.9573
-7.2065 -7.8002 -2.4959 0.9573
-6.6328 -8.2959 -2.4963 0.9573
-6.0253 -8.7497 -2.4968 0.9573
-5.7097 -8.9600 -2.4970 0.9573
-5.3868 -9.1590 -2.4973 0.9573
-4.7207 -9.5220 -2.4978 0.9573
-3.6770 -9.9754 -2.4986 0.9573
-3.3190 -10.1014 -2.4989 0.9573
-2.9567 -10.2146 -2.4992 0.9572
-1.4736 -10.5364 -2.5004 0.9572
-1.0967 -10.5835 -2.5007 0.9572
-0.3390 -10.6374 -2.5013 0.9572
0.0409 -10.6440 -2.5016 0.9572
0.4209 -10.6370 -2.5019 0.9572
0.8003 -10.6165 -2.5022 0.9572
1.1789 -10.5824 -2.5025 0.9572
1.9313 -10.4738 -2.5031 0.9572
2.3042 -10.3995 -2.5034 0.9572
3.0409 -10.2110 -2.5040 0.9572
3.4038 -10.0971 -2.5043 0.9572
3.7625 -9.9703 -2.5046 0.9572
4.1164 -9.8308 -2.5048 0.9572
4.4651 -9.6787 -2.5051 0.9571
4.8083 -9.5142 -2.5054 0.9571
5.1453 -9.3375 -2.5057 0.9571
5.4759 -9.1488 -2.5059 0.9571
5.7996 -8.9485 -2.5062 0.9571
7.2997 -7.7803 -2.5074 0.9571
7.8375 -7.2409 -2.5078 0.9571
8.0916 -6.9571 -2.5080 0.9571
8.5686 -6.3631 -2.5084 0.9571
9.0019 -5.7364 -2.5087 0.9571
9.3894 -5.0802 -2.5090 0.9571
9.7289 -4.3979 -2.5093 0.9571
9.8802 -4.0480 -2.5094 0.9571
10.0188 -3.6930 -2.5095 0.9571
10.1447 -3.3332 -2.5096 0.9571
10.2575 -2.9691 -2.5097 0.9571
10.5170 -1.8557 -2.5099 0.9571
10.5767 -1.4792 -2.5100 0.9571
10.6556 -0.7209 -2.5100 0.9571
10.6746 -0.3401 -2.5100 0.9571
10.6799 0.0411 -2.5101 0.9571
10.6497 0.8029 -2.5100 0.9571
10.5650 1.5605 -2.5100 0.9571
10.3369 2.6807 -2.5098 0.9571
9.6947 4.4726 -2.5093 0.9571
9.3500 5.1523 -2.5090 0.9571
-8.2684 -4.9489 -2.4950 0.9610
-7.8952 -5.5268 -2.4953 0.9610
-7.6934 -5.8055 -2.4955 0.9610
-7.4818 -6.0768 -2.4956 0.9610
-7.2607 -6.3404 -2.4958 0.9610
-7.0302 -6.5960 -2.4960 0.9610
-6.7908 -6.8432 -2.4962 0.9609
-6.0219 -7.5318 -2.4968 0.9609
-5.7497 -7.7426 -2.4970 0.9609
-4.8905 -8.3151 -2.4977 0.9609
-3.6588 -8.9299 -2.4987 0.9609
-3.3380 -9.0558 -2.4989 0.9609
-2.3516 -9.3636 -2.4997 0.9609
-2.0161 -9.4426 -2.5000 0.9609
-0.9955 -9.6071 -2.5008 0.9609
-0.6521 -9.6376 -2.5010 0.9609
-0.3077 -9.6558 -2.5013 0.9609
1.0701 -9.6055 -2.5024 0.9609
1.4124 -9.5622 -2.5027 0.9608
2.0914 -9.4391 -2.5032 0.9608
2.7600 -9.2678 -2.5038 0.9608
3.7360 -8.9224 -2.5045 0.9608
4.3639 -8.6349 -2.5050 0.9608
5.5505 -7.9289 -2.5060 0.9608
5.8305 -7.7265 -2.5062 0.9608
6.3679 -7.2921 -2.5066 0.9608
6.8730 -6.8203 -2.5070 0.9608
7.1126 -6.5712 -2.5072 0.9608
7.5643 -6.0479 -2.5076 0.9608
7.7759 -5.7744 -2.5077 0.9608
7.9775 -5.4935 -2.5079 0.9608
8.1690 -5.2056 -2.5081 0.9608
8.3501 -4.9110 -2.5082 0.9608
8.5205 -4.6101 -2.5083 0.9608
8.8286 -3.9909 -2.5086 0.9608
8.9658 -3.6734 -2.5087 0.9608
9.2057 -3.0247 -2.5089 0.9608
9.3986 -2.3604 -2.5090 0.9608
9.4771 -2.0235 -2.5091 0.9608
9.5435 -1.6840 -2.5091 0.9607
9.5977 -1.3423 -2.5092 0.9607
9.6913 0.0373 -2.5093 0.9607
9.6838 0.3832 -2.5093 0.9607
9.6638 0.7285 -2.5092 0.9607
9.6316 1.0730 -2.5092 0.9607
9.5870 1.4161 -2.5092 0.9607
9.4612 2.0963 -2.5091 0.9608
9.2870 2.7658 -2.5090 0.9608
9.0654 3.4210 -2.5088 0.9608
8.9372 3.7422 -2.5087 0.9608
-7.3980 -4.7947 -2.4957 0.9640
-7.2225 -5.0560 -2.4958 0.9640
-6.8443 -5.5590 -2.4961 0.9640
-6.4311 -6.0339 -2.4965 0.9640
-5.9851 -6.4782 -2.4968 0.9640
-5.5085 -6.8897 -2.4972 0.9640
-4.4734 -7.6060 -2.4980 0.9640
-4.1995 -7.7615 -2.4982 0.9640
-3.6357 -8.0428 -2.4987 0.9640
-3.3466 -8.1682 -2.4989 0.9640
-2.7559 -8.3877 -2.4994 0.9640
-1.8441 -8.6367 -2.5001 0.9640
-1.2235 -8.7480 -2.5006 0.9639
0.6644 -8.8134 -2.5021 0.9639
0.9787 -8.7850 -2.5023 0.9639
1.2917 -8.7453 -2.5026 0.9639
1.9127 -8.6325 -2.5031 0.9639
2.2198 -8.5596 -2.5033 0.9639
2.8253 -8.3811 -2.5038 0.9639
3.4167 -8.1597 -2.5043 0.9639
3.7061 -8.0333 -2.5045 0.9639
4.2705 -7.7498 -2.5050 0.9639
4.5448 -7.5931 -2.5052 0.9639
4.8133 -7.4267 -2.5054 0.9639
5.0757 -7.2507 -2.5056 0.9639
6.2849 -6.2367 -2.5066 0.9639
6.5039 -6.0088 -2.5067 0.9639
7.1103 -5.2802 -2.5072 0.9639
7.2947 -5.0233 -2.5074 0.9638
7.7911 -4.2154 -2.5078 0.9638
7.9370 -3.9349 -2.5079 0.9638
8.0727 -3.6492 -2.5080 0.9638
8.1981 -3.3589 -2.5081 0.9638
8.3131 -3.0642 -2.5082 0.9638
8.4175 -2.7657 -2.5083 0.9638
8.5111 -2.4636 -2.5083 0.9638
8.5938 -2.1583 -2.5084 0.9638
8.7758 -1.2273 -2.5085 0.9638
8.8141 -0.9133 -2.5086 0.9638
8.8412 -0.5981 -2.5086 0.9638
8.8614 0.0341 -2.5086 0.9638
8.8068 0.9811 -2.5086 0.9638
8.7661 1.2948 -2.5085 0.9638
8.5769 2.2243 -2.5084 0.9638
8.2892 3.1281 -2.5082 0.9638
8.0444 3.7112 -2.5080 0.9638
7.9064 3.9958 -2.5079 0.9638
7.7584 4.2752 -2.5077 0.9638
-6.9632 -4.1677 -2.4960 0.9666
-6.8103 -4.4138 -2.4962 0.9666
-6.6488 -4.6543 -2.4963 0.9666
-6.1142 -5.3393 -2.4967 0.9666
-5.7184 -5.7626 -2.4970 0.9666
-4.8415 -6.5195 -2.4977 0.9666
-4.6061 -6.6887 -2.4979 0.9666
-4.3647 -6.8494 -2.4981 0.9666
-3.6084 -7.2784 -2.4987 0.9666
-3.0805 -7.5186 -2.4991 0.9666
-2.8104 -7.6244 -2.4993 0.9666
-2.2597 -7.8068 -2.4998 0.9666
-1.9798 -7.8832 -2.5000 0.9666
-1.4127 -8.0058 -2.5004 0.9666
-0.8381 -8.0876 -2.5009 0.9665
0.3216 -8.1276 -2.5018 0.9665
0.6115 -8.1117 -2.5021 0.9665
0.9007 -8.0854 -2.5023 0.9665
1.4755 -8.0020 -2.5027 0.9665
2.3231 -7.8005 -2.5034 0.9665
2.8741 -7.6163 -2.5038 0.9665
3.1444 -7.5095 -2.5041 0.9665
3.9301 -7.1321 -2.5047 0.9665
4.4296 -6.8346 -2.5051 0.9665
4.6710 -6.6727 -2.5053 0.9665
4.9066 -6.5022 -2.5055 0.9665
5.1359 -6.3234 -2.5056 0.9665
5.3587 -6.1365 -2.5058 0.9665
6.3652 -5.0891 -2.5066 0.9665
6.5431 -4.8590 -2.5068 0.9665
6.7128 -4.6226 -2.5069 0.9665
7.1695 -3.8791 -2.5073 0.9665
7.3036 -3.6209 -2.5074 0.9665
7.4285 -3.3580 -2.5075 0.9665
7.5439 -3.0909 -2.5076 0.9665
7.6497 -2.8197 -2.5076 0.9665
7.8318 -2.2670 -2.5078 0.9665
7.9079 -1.9860 -2.5079 0.9665
7.9740 -1.7025 -2.5079 0.9665
8.1106 -0.8404 -2.5080 0.9665
8.1355 -0.5504 -2.5080 0.9665
8.1500 -0.2597 -2.5080 0.9665
8.1541 0.0314 -2.5080 0.9665
8.1478 0.3224 -2.5080 0.9665
8.1039 0.9028 -2.5080 0.9665
8.0186 1.4786 -2.5079 0.9665
7.8924 2.0468 -2.5078 0.9665
7.7259 2.6045 -2.5077 0.9665
7.5199 3.1488 -2.5075 0.9665
7.4024 3.4151 -2.5075 0.9665
7.1394 3.9341 -2.5072 0.9665
-6.4442 -3.8571 -2.4965 0.9688
-6.3027 -4.0848 -2.4966 0.9688
-6.1532 -4.3074 -2.4967 0.9688
-5.9958 -4.5245 -2.4968 0.9688
-5.4787 -5.1403 -2.4972 0.9688
-4.6926 -5.8692 -2.4978 0.9688
-4.2625 -6.1898 -2.4982 0.9688
-4.0391 -6.3384 -2.4984 0.9688
-3.0969 -6.8508 -2.4991 0.9688
-2.8506 -6.9575 -2.4993 0.9688
-2.0911 -7.2241 -2.4999 0.9688
-0.7755 -7.4837 -2.5010 0.9688
0.5658 -7.5057 -2.5020 0.9688
1.3653 -7.4041 -2.5027 0.9688
1.6288 -7.3513 -2.5029 0.9688
2.1494 -7.2175 -2.5033 0.9688
2.4059 -7.1368 -2.5035 0.9688
2.9093 -6.9481 -2.5039 0.9687
3.1557 -6.8403 -2.5041 0.9687
3.3981 -6.7239 -2.5043 0.9687
4.0983 -6.3235 -2.5048 0.9687
4.3217 -6.1736 -2.5050 0.9687
4.5396 -6.0158 -2.5052 0.9687
5.1577 -5.4972 -2.5057 0.9687
5.3509 -5.3099 -2.5058 0.9687
5.5374 -5.1159 -2.5060 0.9687
5.7168 -4.9153 -2.5061 0.9687
5.8889 -4.7083 -2.5062 0.9687
6.2104 -4.2767 -2.5065 0.9687
6.3594 -4.0525 -2.5066 0.9687
7.0771 -2.6087 -2.5072 0.9687
7.1659 -2.3545 -2.5073 0.9687
7.2455 -2.0973 -2.5073 0.9687
7.3770 -1.5751 -2.5074 0.9687
7.4286 -1.3108 -2.5075 0.9687
7.4708 -1.0448 -2.5075 0.9687
7.5264 -0.5092 -2.5075 0.9687
7.5398 -0.2402 -2.5076 0.9687
7.5378 0.2983 -2.5076 0.9687
7.5223 0.5671 -2.5075 0.9687
7.2292 2.1529 -2.5073 0.9687
7.0568 2.6630 -2.5072 0.9687
6.9570 2.9131 -2.5071 0.9687
6.8484 3.1594 -2.5070 0.9687
6.7310 3.4017 -2.5069 0.9687
-5.9909 -3.5858 -2.4968 0.9708
-5.8594 -3.7975 -2.4969 0.9708
-5.7203 -4.0044 -2.4970 0.9708
-5.5740 -4.2062 -2.4971 0.9708
-5.2603 -4.5936 -2.4974 0.9708
-4.9197 -4.9577 -2.4977 0.9708
-4.5540 -5.2966 -2.4980 0.9708
-4.3623 -5.4561 -2.4981 0.9708
-4.1651 -5.6087 -2.4983 0.9708
-3.9625 -5.7541 -2.4984 0.9708
-3.7548 -5.8923 -2.4986 0.9708
-3.5424 -6.0230 -2.4988 0.9708
-3.1041 -6.2612 -2.4991 0.9707
-2.1821 -6.6412 -2.4998 0.9707
-1.9438 -6.7153 -2.5000 0.9707
-0.7209 -6.9564 -2.5010 0.9707
-0.4721 -6.9783 -2.5012 0.9707
0.5259 -6.9767 -2.5020 0.9707
0.7747 -6.9540 -2.5022 0.9707
1.0225 -6.9224 -2.5024 0.9707
1.5139 -6.8329 -2.5028 0.9707
1.7570 -6.7751 -2.5030 0.9707
2.2362 -6.6335 -2.5033 0.9707
2.7041 -6.4580 -2.5037 0.9707
3.8091 -5.8773 -2.5046 0.9707
4.4164 -5.4375 -2.5051 0.9707
4.6080 -5.2767 -2.5052 0.9707
4.7937 -5.1092 -2.5054 0.9707
4.9732 -4.9351 -2.5055 0.9707
5.4732 -4.3759 -2.5059 0.9707
5.7719 -3.9747 -2.5062 0.9707
5.9104 -3.7663 -2.5063 0.9707
6.0413 -3.5531 -2.5064 0.9707
6.1645 -3.3354 -2.5065 0.9707
6.4864 -2.6575 -2.5067 0.9707
6.9040 -1.2182 -2.5071 0.9707
6.9735 -0.7226 -2.5071 0.9707
7.0108 0.0270 -2.5071 0.9707
7.0054 0.2772 -2.5071 0.9707
6.9677 0.7762 -2.5071 0.9707
6.9355 1.0244 -2.5071 0.9707
6.8445 1.5165 -2.5070 0.9707
6.7859 1.7599 -2.5070 0.9707
6.7186 2.0009 -2.5069 0.9707
6.6427 2.2393 -2.5069 0.9707
6.4657 2.7074 -2.5067 0.9707
6.2557 3.1615 -2.5065 0.9707
6.1386 3.3827 -2.5065 0.9707
-5.4684 -3.5441 -2.4972 0.9725
-5.3387 -3.7372 -2.4973 0.9725
-5.2021 -3.9255 -2.4974 0.9725
-5.0589 -4.1089 -2.4976 0.9725
-4.9093 -4.2870 -2.4977 0.9725
-4.5914 -4.6268 -2.4979 0.9725
-4.4236 -4.7880 -2.4981 0.9725
-4.2501 -4.9431 -2.4982 0.9725
-4.0712 -5.0919 -2.4983 0.9725
-3.6980 -5.3700 -2.4986 0.9725
-3.3059 -5.6208 -2.4989 0.9725
-3.1033 -5.7356 -2.4991 0.9725
-2.8968 -5.8431 -2.4993 0.9724
-1.1339 -6.4262 -2.5007 0.9724
0.2581 -6.5232 -2.5018 0.9724
0.9541 -6.4597 -2.5023 0.9724
1.1842 -6.4220 -2.5025 0.9724
1.4127 -6.3761 -2.5027 0.9724
1.8643 -6.2599 -2.5030 0.9724
2.5233 -6.0261 -2.5036 0.9724
3.1536 -5.7229 -2.5041 0.9724
3.5543 -5.4841 -2.5044 0.9724
3.7480 -5.3541 -2.5045 0.9724
3.9369 -5.2172 -2.5047 0.9724
4.1209 -5.0736 -2.5048 0.9724
4.2996 -4.9236 -2.5050 0.9724
4.6404 -4.6048 -2.5053 0.9724
4.8020 -4.4365 -2.5054 0.9724
4.9576 -4.2625 -2.5055 0.9724
5.1068 -4.0830 -2.5056 0.9724
5.6368 -3.3152 -2.5060 0.9724
5.7518 -3.1120 -2.5061 0.9724
6.0521 -2.4796 -2.5064 0.9724
6.1369 -2.2621 -2.5064 0.9724
6.4416 -1.1366 -2.5067 0.9724
6.4782 -0.9060 -2.5067 0.9724
6.5413 0.0252 -2.5068 0.9724
6.3315 1.6420 -2.5066 0.9724
6.2687 1.8669 -2.5066 0.9724
6.1979 2.0894 -2.5065 0.9724
6.0328 2.5261 -2.5064 0.9724
5.9386 2.7397 -2.5063 0.9724
5.8369 2.9499 -2.5062 0.9724
5.7276 3.1562 -2.5061 0.9724
-5.2359 -3.1338 -2.4974 0.9740
-4.7373 -3.8477 -2.4978 0.9740
-4.5972 -4.0145 -2.4979 0.9740
-4.4512 -4.1762 -2.4980 0.9740
-3.6399 -4.9014 -2.4987 0.9740
-3.2813 -5.1492 -2.4990 0.9740
-2.3156 -5.6517 -2.4997 0.9739
-2.1126 -5.7311 -2.4999 0.9739
-1.6985 -5.8680 -2.5002 0.9739
-1.2758 -5.9750 -2.5006 0.9739
-1.0618 -6.0172 -2.5007 0.9739
-0.4125 -6.0974 -2.5012 0.9739
-0.1947 -6.1087 -2.5014 0.9739
0.0235 -6.1122 -2.5016 0.9739
0.4595 -6.0958 -2.5019 0.9739
0.6769 -6.0759 -2.5021 0.9739
0.8933 -6.0483 -2.5023 0.9739
1.1087 -6.0130 -2.5025 0.9739
1.3227 -5.9700 -2.5026 0.9739
1.5351 -5.9194 -2.5028 0.9739
1.9537 -5.7955 -2.5031 0.9739
2.1595 -5.7225 -2.5033 0.9739
2.3625 -5.6421 -2.5034 0.9739
2.9526 -5.3583 -2.5039 0.9739
3.1422 -5.2498 -2.5041 0.9739
3.3278 -5.1346 -2.5042 0.9739
3.8582 -4.7502 -2.5046 0.9739
4.0255 -4.6097 -2.5048 0.9739
4.1877 -4.4634 -2.5049 0.9739
4.3445 -4.3112 -2.5050 0.9739
4.6415 -3.9907 -2.5053 0.9739
5.0421 -3.4721 -2.5056 0.9739
5.2773 -3.1038 -2.5058 0.9739
5.3850 -2.9136 -2.5058 0.9739
5.6660 -2.3215 -2.5061 0.9739
5.9393 -1.4916 -2.5063 0.9739
5.9888 -1.2787 -2.5063 0.9739
6.0307 -1.0641 -2.5064 0.9739
6.0649 -0.8482 -2.5064 0.9739
6.0914 -0.6312 -2.5064 0.9739
6.1101 -0.4134 -2.5064 0.9739
6.1210 -0.1950 -2.5064 0.9739
6.1240 0.0236 -2.5064 0.9739
6.1193 0.2421 -2.5064 0.9739
6.1067 0.4604 -2.5064 0.9739
6.0864 0.6780 -2.5064 0.9739
6.0224 1.1105 -2.5064 0.9739
5.9276 1.5372 -2.5063 0.9739
5.8689 1.7478 -2.5062 0.9739
5.8026 1.9561 -2.5062 0.9739
5.7290 2.1620 -2.5061 0.9739
5.4646 2.7617 -2.5059 0.9739
5.3624 2.9549 -2.5058 0.9739
-4.9175 -2.9433 -2.4977 0.9753
-4.8095 -3.1170 -2.4978 0.9753
-4.6953 -3.2868 -2.4978 0.9753
-3.8903 -4.2108 -2.4985 0.9753
-3.7377 -4.3472 -2.4986 0.9753
-3.5804 -4.4781 -2.4987 0.9753
-3.2521 -4.7226 -2.4990 0.9753
-2.9073 -4.9431 -2.4993 0.9753
-2.7291 -5.0440 -2.4994 0.9753
-2.5475 -5.1385 -2.4996 0.9753
-2.3626 -5.2265 -2.4997 0.9753
-1.7907 -5.4501 -2.5002 0.9753
-1.5952 -5.5108 -2.5003 0.9753
-0.3874 -5.7262 -2.5013 0.9753
0.0221 -5.7400 -2.5016 0.9753
1.2421 -5.6063 -2.5026 0.9753
1.4416 -5.5587 -2.5027 0.9753
2.0279 -5.3737 -2.5032 0.9752
2.2185 -5.2983 -2.5033 0.9752
2.4063 -5.2160 -2.5035 0.9752
2.5911 -5.1271 -2.5036 0.9752
2.9506 -4.9297 -2.5039 0.9752
3.1249 -4.8216 -2.5041 0.9752
3.4613 -4.5868 -2.5043 0.9752
3.6230 -4.4606 -2.5044 0.9752
3.7800 -4.3287 -2.5046 0.9752
4.2217 -3.9003 -2.5049 0.9752
4.4896 -3.5895 -2.5051 0.9752
4.6150 -3.4271 -2.5052 0.9752
5.0565 -2.7358 -2.5056 0.9752
5.1511 -2.5537 -2.5057 0.9752
5.3204 -2.1799 -2.5058 0.9752
5.5769 -1.4006 -2.5060 0.9752
5.6235 -1.2007 -2.5060 0.9752
5.7198 -0.5927 -2.5061 0.9752
5.7373 -0.3882 -2.5061 0.9752
5.6549 1.0428 -2.5061 0.9752
5.4486 1.8368 -2.5059 0.9752
5.3034 2.2207 -2.5058 0.9752
5.2207 2.4085 -2.5057 0.9752
5.1312 2.5933 -2.5057 0.9752
-4.6304 -2.7714 -2.4979 0.9765
-4.4211 -3.0949 -2.4981 0.9765
-4.3080 -3.2508 -2.4982 0.9765
-4.1894 -3.4027 -2.4982 0.9765
-4.0654 -3.5502 -2.4983 0.9765
-3.9363 -3.6931 -2.4984 0.9765
-3.6631 -3.9649 -2.4987 0.9765
-3.5194 -4.0933 -2.4988 0.9765
-3.3712 -4.2165 -2.4989 0.9765
-3.2187 -4.3344 -2.4990 0.9765
-3.0621 -4.4467 -2.4991 0.9765
-2.9016 -4.5534 -2.4993 0.9765
-2.3986 -4.8382 -2.4997 0.9765
-2.2246 -4.9210 -2.4998 0.9765
-1.6860 -5.1315 -2.5002 0.9765
-1.3158 -5.2393 -2.5005 0.9765
-1.1281 -5.2833 -2.5007 0.9765
-0.9388 -5.3205 -2.5008 0.9765
-0.3648 -5.3913 -2.5013 0.9765
0.4063 -5.3897 -2.5019 0.9765
0.5985 -5.3721 -2.5020 0.9765
0.9803 -5.3163 -2.5023 0.9765
1.1695 -5.2783 -2.5025 0.9765
1.3572 -5.2335 -2.5026 0.9765
1.5432 -5.1820 -2.5028 0.9764
1.7273 -5.1239 -2.5029 0.9764
1.9092 -5.0593 -2.5031 0.9764
2.0887 -4.9882 -2.5032 0.9764
2.2655 -4.9108 -2.5034 0.9764
2.4395 -4.8271 -2.5035 0.9764
3.4109 -4.1995 -2.5043 0.9764
3.5587 -4.0752 -2.5044 0.9764
3.9745 -3.6720 -2.5047 0.9764
4.2267 -3.3794 -2.5049 0.9764
4.3448 -3.2265 -2.5050 0.9764
4.6652 -2.7438 -2.5053 0.9764
4.7603 -2.5756 -2.5054 0.9764
4.9322 -2.2296 -2.5055 0.9764
5.1426 -1.6897 -2.5057 0.9764
5.1998 -1.5051 -2.5057 0.9764
5.2503 -1.3186 -2.5057 0.9764
5.2941 -1.1303 -2.5058 0.9764
5.3311 -0.9407 -2.5058 0.9764
5.3613 -0.7498 -2.5058 0.9764
5.4108 -0.1724 -2.5059 0.9764
5.4093 0.2140 -2.5059 0.9764
5.3982 0.4070 -2.5059 0.9764
5.3237 0.9817 -2.5058 0.9764
5.2400 1.3589 -2.5057 0.9764
5.1880 1.5450 -2.5057 0.9764
5.0644 1.9111 -2.5056 0.9764
4.9928 2.0907 -2.5055 0.9764
4.7404 2.6122 -2.5053 0.9764
-4.3698 -2.6155 -2.4981 0.9776
-4.1723 -2.9208 -2.4983 0.9776
-4.0656 -3.0679 -2.4983 0.9776
-3.7148 -3.4853 -2.4986 0.9776
-3.5881 -3.6158 -2.4987 0.9776
-3.4569 -3.7417 -2.4988 0.9776
-3.3213 -3.8629 -2.4989 0.9776
-3.1815 -3.9792 -2.4990 0.9776
-3.0376 -4.0904 -2.4992 0.9776
-2.7383 -4.2971 -2.4994 0.9776
-2.5833 -4.3923 -2.4995 0.9776
-2.0993 -4.6440 -2.4999 0.9775
-1.7628 -4.7824 -2.5002 0.9775
-1.5911 -4.8425 -2.5003 0.9775
-1.2417 -4.9442 -2.5006 0.9775
-1.0645 -4.9857 -2.5007 0.9775
-0.8859 -5.0208 -2.5009 0.9775
-0.7062 -5.0495 -2.5010 0.9775
-0.5256 -5.0718 -2.5012 0.9775
0.0196 -5.0998 -2.5016 0.9775
0.2016 -5.0961 -2.5017 0.9775
0.7454 -5.0462 -2.5022 0.9775
1.1036 -4.9808 -2.5024 0.9775
1.2807 -4.9385 -2.5026 0.9775
1.4562 -4.8899 -2.5027 0.9775
1.9709 -4.7070 -2.5031 0.9775
2.1378 -4.6339 -2.5033 0.9775
2.6213 -4.3795 -2.5037 0.9775
2.7761 -4.2834 -2.5038 0.9775
3.2185 -3.9626 -2.5041 0.9775
3.3580 -3.8454 -2.5042 0.9775
3.6241 -3.5963 -2.5044 0.9775
4.2058 -2.8963 -2.5049 0.9775
4.4917 -2.4303 -2.5051 0.9775
4.6539 -2.1038 -2.5053 0.9775
4.9540 -1.2441 -2.5055 0.9775
4.9953 -1.0666 -2.5055 0.9775
5.0302 -0.8876 -2.5056 0.9775
5.0588 -0.7075 -2.5056 0.9775
5.1041 0.2020 -2.5056 0.9775
5.0936 0.3840 -2.5056 0.9775
5.0766 0.5656 -2.5056 0.9775
5.0532 0.7464 -2.5056 0.9775
4.9869 1.1050 -2.5055 0.9775
4.8952 1.4578 -2.5055 0.9775
4.8400 1.6316 -2.5054 0.9775
4.7111 1.9727 -2.5053 0.9775
4.6376 2.1395 -2.5053 0.9775
4.4729 2.4648 -2.5051 0.9775
-3.8444 -2.9010 -2.4985 0.9785
-3.6279 -3.1681 -2.4987 0.9785
-3.5127 -3.2957 -2.4988 0.9785
-3.3929 -3.4191 -2.4989 0.9785
-2.8723 -3.8678 -2.4993 0.9785
-2.7325 -3.9680 -2.4994 0.9785
-2.4427 -4.1532 -2.4996 0.9785
-2.2930 -4.2380 -2.4998 0.9785
-2.1404 -4.3173 -2.4999 0.9785
-1.9850 -4.3912 -2.5000 0.9785
-1.8271 -4.4595 -2.5001 0.9785
-1.6669 -4.5221 -2.5002 0.9785
-1.3402 -4.6299 -2.5005 0.9785
-0.8377 -4.7474 -2.5009 0.9785
-0.6678 -4.7745 -2.5010 0.9785
0.0185 -4.8220 -2.5016 0.9785
0.3625 -4.8090 -2.5019 0.9785
1.2109 -4.6694 -2.5025 0.9785
1.3769 -4.6234 -2.5027 0.9785
1.5411 -4.5716 -2.5028 0.9785
1.7034 -4.5139 -2.5029 0.9785
2.0213 -4.3813 -2.5032 0.9785
2.6247 -4.0499 -2.5037 0.9785
2.9072 -3.8526 -2.5039 0.9785
3.1750 -3.6357 -2.5041 0.9785
3.7707 -3.0148 -2.5046 0.9785
4.0718 -2.5947 -2.5048 0.9785
4.1619 -2.4478 -2.5049 0.9785
4.2468 -2.2977 -2.5049 0.9785
4.3262 -2.1448 -2.5050 0.9785
4.4001 -1.9890 -2.5051 0.9785
4.4684 -1.8308 -2.5051 0.9785
4.5310 -1.6701 -2.5052 0.9785
4.6387 -1.3427 -2.5053 0.9785
4.7228 -1.0084 -2.5053 0.9785
4.7558 -0.8392 -2.5054 0.9785
4.7828 -0.6689 -2.5054 0.9785
4.8037 -0.4978 -2.5054 0.9785
4.8270 -0.1538 -2.5054 0.9785
4.7149 1.0447 -2.5053 0.9785
4.6746 1.2123 -2.5053 0.9785
4.5179 1.7049 -2.5052 0.9785
4.4541 1.8651 -2.5051 0.9785
-3.8282 -2.4810 -2.4985 0.9794
-3.6416 -2.7480 -2.4987 0.9794
-3.4365 -3.0010 -2.4988 0.9794
-3.2139 -3.2387 -2.4990 0.9794
-3.0964 -3.3515 -2.4991 0.9794
-2.7207 -3.6637 -2.4994 0.9794
-2.5883 -3.7586 -2.4995 0.9794
-2.4526 -3.8488 -2.4996 0.9794
-2.3138 -3.9341 -2.4997 0.9794
-2.1720 -4.0143 -2.4998 0.9794
-2.0274 -4.0895 -2.5000 0.9794
-1.8802 -4.1594 -2.5001 0.9794
-1.7307 -4.2241 -2.5002 0.9794
-1.5789 -4.2834 -2.5003 0.9794
-0.7935 -4.4968 -2.5009 0.9794
-0.6325 -4.5224 -2.5011 0.9794
-0.3083 -4.5565 -2.5013 0.9794
0.5058 -4.5400 -2.5020 0.9794
0.8284 -4.4928 -2.5022 0.9794
0.9883 -4.4606 -2.5024 0.9794
1.4597 -4.3301 -2.5027 0.9794
1.6134 -4.2754 -2.5029 0.9794
2.2058 -4.0030 -2.5033 0.9794
2.7536 -3.6490 -2.5038 0.9794
2.8822 -3.5485 -2.5039 0.9794
3.0071 -3.4435 -2.5040 0.9794
3.3584 -3.1027 -2.5042 0.9794
3.4671 -2.9810 -2.5043 0.9794
3.6711 -2.7262 -2.5045 0.9794
3.7662 -2.5935 -2.5046 0.9794
3.8565 -2.4575 -2.5046 0.9794
4.0222 -2.1762 -2.5048 0.9794
4.1674 -1.8839 -2.5049 0.9794
4.2321 -1.7339 -2.5049 0.9794
4.2913 -1.5818 -2.5050 0.9794
4.3934 -1.2717 -2.5051 0.9794
4.4360 -1.1141 -2.5051 0.9794
4.4730 -0.9550 -2.5051 0.9794
4.5043 -0.7948 -2.5052 0.9794
4.5299 -0.6335 -2.5052 0.9794
4.5636 -0.3087 -2.5052 0.9794
4.5740 0.0176 -2.5052 0.9794
4.5704 0.1808 -2.5052 0.9794
4.5610 0.3439 -2.5052 0.9794
4.4981 0.8294 -2.5051 0.9794
4.3835 1.3054 -2.5051 0.9794
4.3340 1.4610 -2.5050 0.9794
4.2790 1.6148 -2.5050 0.9794
4.0816 2.0628 -2.5048 0.9794
-3.7134 -2.2226 -2.4986 0.9802
-3.6318 -2.3538 -2.4987 0.9802
-3.4548 -2.6070 -2.4988 0.9802
-3.3597 -2.7288 -2.4989 0.9802
-3.1567 -2.9617 -2.4991 0.9802
-2.9375 -3.1796 -2.4992 0.9802
-2.8223 -3.2825 -2.4993 0.9802
-2.4555 -3.5658 -2.4996 0.9802
-2.3268 -3.6513 -2.4997 0.9802
-2.0605 -3.8083 -2.4999 0.9802
-1.7838 -3.9459 -2.5002 0.9802
-1.2043 -4.1604 -2.5006 0.9802
-1.0550 -4.2009 -2.5007 0.9802
-0.9045 -4.2361 -2.5009 0.9802
-0.6000 -4.2903 -2.5011 0.9802
-0.2925 -4.3226 -2.5013 0.9802
0.7859 -4.2621 -2.5022 0.9802
0.9376 -4.2315 -2.5023 0.9802
1.2372 -4.1542 -2.5026 0.9802
1.3847 -4.1076 -2.5027 0.9802
1.6744 -3.9987 -2.5029 0.9802
2.0925 -3.7974 -2.5032 0.9802
2.4867 -3.5524 -2.5035 0.9802
2.6121 -3.4615 -2.5036 0.9802
3.0785 -3.0550 -2.5040 0.9802
3.1857 -2.9432 -2.5041 0.9802
3.2889 -2.8277 -2.5042 0.9802
3.5726 -2.4602 -2.5044 0.9802
3.6582 -2.3312 -2.5045 0.9802
3.8867 -1.9269 -2.5047 0.9802
3.9531 -1.7870 -2.5047 0.9802
4.2080 -1.0568 -2.5049 0.9802
4.2430 -0.9059 -2.5049 0.9802
4.2727 -0.7539 -2.5050 0.9802
4.3366 -0.1382 -2.5050 0.9802
4.3354 0.1715 -2.5050 0.9802
4.3265 0.3262 -2.5050 0.9802
4.2922 0.6340 -2.5050 0.9802
4.1112 1.3859 -2.5048 0.9802
4.0017 1.6756 -2.5048 0.9802
3.9393 1.8174 -2.5047 0.9802
3.8718 1.9568 -2.5047 0.9802
3.7994 2.0937 -2.5046 0.9802
