ply
format ascii 1.0
element vertex 1409
property float32 x
property float32 y
property float32 z
property float32 I
end_header
42.3051 6.0826 7.5362 0.8406
45.0398 14.9907 8.3701 0.8246
40.3092 15.0346 7.5859 0.8397
13.1175 7.1627 2.6354 0.9411
26.6334 15.8023 5.4606 0.8818
25.4143 16.3328 5.3269 0.8845
23.7315 16.4771 5.0942 0.8893
21.5517 16.1334 4.7470 0.8964
20.2894 16.3502 4.5946 0.8996
19.4387 16.8438 4.5353 0.9008
17.0477 17.0477 4.2511 0.9067
12.4002 17.8597 3.8338 0.9155
10.2570 17.2874 3.5444 0.9216
8.8553 17.6906 3.4883 0.9228
8.2248 18.0098 3.4911 0.9227
9.0675 24.3109 4.5751 0.9000
6.1685 18.5333 3.4442 0.9237
4.5375 17.7777 3.2352 0.9282
3.8796 17.8341 3.2182 0.9286
3.2780 18.1687 3.2554 0.9278
2.6608 18.5066 3.2968 0.9269
1.3534 18.9229 3.3451 0.9258
0.8933 25.0111 4.4129 0.9033
-1.3073 18.2787 3.2313 0.9283
-1.9713 18.3357 3.2517 0.9278
-2.7044 18.8093 3.3507 0.9257
-2.1033 9.6685 1.7447 0.9606
-5.6252 19.1576 3.5206 0.9221
-6.3414 19.0528 3.5407 0.9217
-6.9996 18.7667 3.5318 0.9219
-10.6935 19.5836 3.9344 0.9134
-12.3557 19.2259 4.0298 0.9114
-14.8064 19.7790 4.3565 0.9045
-18.1930 19.5406 4.7077 0.8972
-21.8992 20.3888 5.2759 0.8856
-25.1099 20.2348 5.6862 0.8772
-27.7686 20.7873 6.1163 0.8686
-29.0559 20.1739 6.2372 0.8662
-21.7878 10.9062 4.2962 0.9058
42.1470 6.0599 6.5231 0.8417
38.9421 14.5247 6.3672 0.8452
37.0274 15.3373 6.1398 0.8503
33.2225 15.1722 5.5951 0.8626
13.1168 7.1623 2.2891 0.9413
16.2153 23.3545 4.3556 0.8913
11.5011 17.8961 3.2589 0.9175
9.4761 17.3543 3.0291 0.9231
8.2918 18.1566 3.0578 0.9224
9.0456 24.2521 3.9653 0.9006
4.5375 17.7777 2.8107 0.9284
2.6750 18.6051 2.8795 0.9268
1.3534 18.9231 2.9063 0.9261
0.8982 25.1496 3.8552 0.9032
-0.6641 18.5928 2.8501 0.9275
-1.7821 9.8776 1.5376 0.9602
-2.5628 10.0410 1.5875 0.9589
-5.6682 19.3042 3.0821 0.9218
-6.3451 19.0639 3.0780 0.9219
-6.9996 18.7667 3.0684 0.9221
-7.8019 18.8355 3.1232 0.9208
-9.9717 19.9209 3.4127 0.9138
-10.8771 19.9198 3.4769 0.9122
-12.3557 19.2259 3.5011 0.9117
-14.9445 19.9635 3.8203 0.9040
-17.3254 19.9946 4.0530 0.8985
-18.3808 19.7424 4.1323 0.8966
-23.4450 20.3152 4.7524 0.8820
-29.7119 20.6293 5.5412 0.8638
42.1179 6.0557 5.5410 0.8423
43.4453 14.4600 5.9626 0.8314
40.3558 15.0519 5.6088 0.8405
33.1501 15.1391 4.7457 0.8633
31.5721 15.8039 4.5977 0.8673
24.2683 16.8498 3.8473 0.8877
21.7743 16.3000 3.5419 0.8961
20.4924 16.5139 3.4272 0.8993
23.1064 23.1064 4.2553 0.8765
14.8137 17.0960 2.9457 0.9128
14.1272 17.5308 2.9319 0.9132
9.4761 17.3543 2.5748 0.9233
8.9080 17.7959 2.5915 0.9229
9.8980 23.8960 3.3681 0.9009
8.2977 24.9306 3.4216 0.8994
5.3422 18.1939 2.4692 0.9264
4.5375 17.7777 2.3892 0.9287
3.8796 17.8341 2.3767 0.9290
2.7316 25.4078 3.3277 0.9021
1.3462 18.8229 2.4574 0.9267
0.0000 18.8984 2.4610 0.9266
-0.6644 18.6024 2.4240 0.9277
-1.7790 9.8603 1.3047 0.9604
-2.1021 9.6634 1.2878 0.9609
-5.6915 19.3835 2.6307 0.9217
-7.8019 18.8355 2.6549 0.9211
-11.7609 25.7528 3.6867 0.8921
-9.9711 19.9196 2.9008 0.9141
-12.3557 19.2259 2.9760 0.9119
-12.8929 18.5694 2.9438 0.9128
-20.3277 20.3277 3.7435 0.8905
-22.0668 20.5449 3.9262 0.8855
-23.6160 20.4634 4.0692 0.8816
-25.2225 20.3256 4.2182 0.8775
-27.9191 20.9000 4.5415 0.8688
37.0235 15.3357 4.3032 0.8511
13.1152 7.1615 1.6046 0.9417
26.7529 15.8732 3.3404 0.8824
25.6000 16.4522 3.2677 0.8848
32.1622 22.3306 4.2045 0.8543
20.4943 16.5153 2.8264 0.8995
25.2049 23.4666 3.6980 0.8706
23.2288 23.2288 3.5275 0.8762
15.6636 16.8239 2.4684 0.9117
14.8154 17.0979 2.4294 0.9130
18.0377 24.0956 3.2321 0.8860
11.1803 17.3969 2.2206 0.9202
9.4762 17.3543 2.1233 0.9235
8.8151 17.6104 2.1147 0.9238
9.8980 23.8960 2.7774 0.9012
8.3412 25.0613 2.8363 0.8992
5.2596 17.9126 2.0047 0.9276
3.8796 17.8341 1.9598 0.9292
2.6069 18.1316 1.9670 0.9290
1.8323 25.6193 2.7581 0.9018
-0.0000 18.3544 1.9709 0.9288
-1.3073 18.2787 1.9678 0.9289
-1.9713 18.3356 1.9803 0.9285
-2.6733 18.5929 2.0171 0.9272
-2.1016 9.6608 1.0617 0.9610
-2.5734 10.0826 1.1174 0.9590
-6.2927 18.9066 2.1397 0.9230
-7.8019 18.8355 2.1892 0.9213
-14.7662 27.0423 3.3086 0.8834
-20.4021 27.2540 3.6558 0.8720
-17.4154 20.0985 2.8557 0.8985
-18.3808 19.7424 2.8966 0.8972
-28.7333 28.7333 4.3635 0.8492
-23.6141 20.4617 3.3553 0.8819
43.5437 14.4927 3.8849 0.8317
43.4157 16.1932 3.9226 0.8303
13.1145 7.1611 1.2649 0.9418
25.6576 16.4892 2.5818 0.8848
32.1870 22.3478 3.3171 0.8544
20.4961 16.5168 2.2283 0.8997
19.4327 16.8385 2.1767 0.9019
16.9082 16.9083 2.0242 0.9085
15.6636 16.8239 1.9459 0.9119
13.8963 18.5633 1.9630 0.9111
16.2153 23.3545 2.4068 0.8921
10.0141 16.8778 1.6613 0.9242
9.8981 23.8960 2.1895 0.9014
9.0126 24.1637 2.1832 0.9017
5.2837 17.9945 1.5876 0.9275
3.8796 17.8341 1.5450 0.9294
3.2786 18.1719 1.5631 0.9286
2.6190 18.2153 1.5578 0.9288
1.8097 25.3032 2.1475 0.9032
0.9065 25.3806 2.1499 0.9031
0.0000 18.4393 1.5609 0.9287
-1.9713 18.3356 1.5611 0.9286
-6.4569 25.2981 2.2102 0.9005
-6.3220 18.9944 1.6947 0.9228
-6.9996 18.7667 1.6956 0.9227
-7.8019 18.8355 1.7259 0.9214
-8.7646 19.1918 1.7860 0.9188
-12.3557 19.2259 1.9346 0.9123
-16.7388 20.7716 2.2583 0.8984
-28.9150 28.9150 3.4616 0.8486
-22.6622 21.0992 2.6212 0.8831
42.0315 6.0433 2.6332 0.8435
43.5468 14.4937 2.8460 0.8320
43.7012 16.2997 2.8923 0.8295
37.2062 15.4113 2.4973 0.8510
13.1131 7.1603 0.9265 0.9419
21.4061 16.0245 1.6581 0.8984
19.5331 16.9256 1.6027 0.9016
14.8186 17.1016 1.4032 0.9133
16.2153 23.3545 1.7631 0.8923
9.4761 17.3543 1.2261 0.9238
8.1513 17.8490 1.2168 0.9244
5.2833 17.9933 1.1629 0.9276
4.5375 17.7777 1.1377 0.9291
3.8796 17.8341 1.1318 0.9295
1.8192 25.4359 1.5813 0.9028
-0.6610 18.5080 1.1484 0.9285
-1.9713 18.3356 1.1436 0.9288
-6.3215 18.9930 1.2413 0.9229
-6.9996 18.7667 1.2420 0.9229
-7.8019 18.8355 1.2642 0.9215
-12.9416 25.8540 1.7929 0.8906
-16.8447 20.9030 1.6647 0.8980
-18.3808 19.7424 1.6727 0.8975
-20.1690 20.1690 1.7687 0.8920
-23.5288 20.3878 1.9306 0.8827
-28.4627 21.3069 2.2047 0.8672
-29.8452 20.7219 2.2531 0.8645
42.0031 6.0392 1.6732 0.8438
43.5498 14.4948 1.8098 0.8322
36.8892 15.2800 1.5744 0.8523
31.4641 15.7498 1.3874 0.8686
13.1113 7.1593 0.5890 0.9420
25.3125 16.2673 1.1864 0.8865
32.0839 22.2762 1.5401 0.8553
21.7743 16.3000 1.0725 0.8968
25.4237 23.6703 1.3697 0.8702
16.9830 16.9831 0.9470 0.9083
15.6636 16.8239 0.9064 0.9121
13.8963 17.2443 0.8733 0.9152
17.5977 23.5078 1.1579 0.8891
16.2153 23.3545 1.1211 0.8924
10.2570 17.2873 0.7926 0.9227
9.4761 17.3543 0.7797 0.9239
8.8546 17.6892 0.7800 0.9239
8.1543 17.8555 0.7740 0.9244
8.3650 25.1327 1.0445 0.8994
3.2781 18.1694 0.7280 0.9288
2.6186 18.2127 0.7255 0.9290
0.0000 18.4368 0.7270 0.9289
-2.0999 9.6532 0.3895 0.9612
-6.4569 25.2981 1.0295 0.9008
-6.3210 18.9916 0.7892 0.9230
-6.9996 18.7667 0.7898 0.9229
-7.8019 18.8355 0.8039 0.9216
-12.9416 25.8540 1.1400 0.8907
-11.5276 19.4286 0.8908 0.9135
-12.3557 19.2259 0.9012 0.9126
-13.4116 19.3164 0.9272 0.9102
-20.4715 27.3468 1.3470 0.8722
-17.2623 19.9217 1.0394 0.8999
-22.5823 21.0248 1.2166 0.8838
-28.5847 21.3983 1.4080 0.8668
41.9747 6.0351 0.7163 0.8440
43.5529 14.4958 0.7754 0.8322
40.1892 14.9898 0.7246 0.8423
36.8834 15.2776 0.6743 0.8524
17.7724 8.1164 0.3300 0.9248
31.4598 15.7477 0.5943 0.8687
21.7743 16.3000 0.4594 0.8969
20.5017 16.5213 0.4448 0.9000
25.4237 23.6703 0.5868 0.8703
15.6635 16.8239 0.3883 0.9121
13.8952 17.2429 0.3741 0.9152
17.5963 23.5059 0.4960 0.8892
16.2153 23.3545 0.4803 0.8925
11.2310 17.4757 0.3509 0.9203
10.2570 17.2873 0.3395 0.9227
9.4761 17.3543 0.3340 0.9239
8.8539 17.6879 0.3341 0.9239
8.1573 17.8619 0.3317 0.9244
8.3650 25.1327 0.4474 0.8995
4.5375 17.7777 0.3099 0.9292
3.8796 17.8341 0.3083 0.9296
3.2779 18.1681 0.3118 0.9288
2.7538 25.6137 0.4352 0.9021
1.8375 25.6922 0.4351 0.9021
0.0000 18.4356 0.3114 0.9289
-1.3073 18.2787 0.3095 0.9293
-1.9713 18.3356 0.3115 0.9289
-2.0994 9.6507 0.1668 0.9613
-6.4569 25.2981 0.4410 0.9008
-6.9996 18.7667 0.3383 0.9230
-7.8019 18.8355 0.3444 0.9217
-11.5266 19.4270 0.3816 0.9136
-12.3557 19.2259 0.3860 0.9126
-13.4116 19.3164 0.3972 0.9102
-17.2606 19.9197 0.4452 0.8999
-18.3808 19.7424 0.4556 0.8977
-20.1647 20.1647 0.4817 0.8922
-23.6066 20.4552 0.5276 0.8825
-28.5838 21.3976 0.6031 0.8669
40.1831 14.9875 -0.2415 0.8424
26.7529 15.8732 -0.1751 0.8830
25.3065 16.2635 -0.1694 0.8866
21.7743 16.3000 -0.1531 0.8969
19.5423 16.9336 -0.1456 0.9017
15.6635 16.8239 -0.1294 0.9122
14.8235 17.1073 -0.1274 0.9134
13.8940 17.2414 -0.1247 0.9152
11.2301 17.4744 -0.1170 0.9203
10.2570 17.2873 -0.1132 0.9227
9.4761 17.3543 -0.1113 0.9240
8.3650 25.1327 -0.1491 0.8995
5.2822 17.9896 -0.1056 0.9277
4.5375 17.7777 -0.1033 0.9292
3.8796 17.8341 -0.1028 0.9296
3.2777 18.1669 -0.1039 0.9288
1.8375 25.6922 -0.1450 0.9021
0.9112 25.5137 -0.1437 0.9029
0.0000 18.4343 -0.1038 0.9289
-1.3073 18.2787 -0.1032 0.9293
-2.6847 18.6726 -0.1062 0.9273
-2.0988 9.6482 -0.0556 0.9613
-6.4569 25.2981 -0.1470 0.9008
-8.7618 19.1857 -0.1188 0.9191
-11.5256 19.4254 -0.1272 0.9136
-12.3557 19.2259 -0.1287 0.9126
-17.2589 19.9178 -0.1484 0.8999
-20.1626 20.1626 -0.1605 0.8922
-22.5808 21.0234 -0.1737 0.8839
43.5590 14.4978 -1.2927 0.8322
40.1771 14.9853 -1.2074 0.8423
36.8718 15.2728 -1.1238 0.8524
31.4511 15.7433 -0.9903 0.8687
13.1059 7.1564 -0.4205 0.9420
26.7529 15.8732 -0.8759 0.8830
25.3035 16.2616 -0.8469 0.8866
21.7743 16.3000 -0.7659 0.8969
20.5053 16.5242 -0.7415 0.9000
19.5454 16.9362 -0.7282 0.9017
13.8928 17.2399 -0.6234 0.9152
17.5936 23.5023 -0.8267 0.8892
9.4761 17.3543 -0.5568 0.9239
8.1632 17.8749 -0.5533 0.9244
9.0407 24.2390 -0.7284 0.9017
8.3650 25.1327 -0.7459 0.8994
5.2819 17.9884 -0.5279 0.9277
4.5375 17.7777 -0.5166 0.9292
3.2774 18.1656 -0.5198 0.9288
2.6180 18.2089 -0.5180 0.9290
0.9112 25.5137 -0.7189 0.9029
-0.0000 18.4331 -0.5190 0.9289
-0.6608 18.5030 -0.5213 0.9286
-1.3073 18.2787 -0.5160 0.9293
-1.9713 18.3356 -0.5193 0.9289
-2.6845 18.6712 -0.5312 0.9273
-1.7577 9.7422 -0.2787 0.9612
-2.0983 9.6456 -0.2780 0.9613
-5.5513 18.9061 -0.5548 0.9242
-6.9996 18.7667 -0.5640 0.9230
-7.8019 18.8355 -0.5741 0.9217
-8.7612 19.1842 -0.5939 0.9191
-11.5247 19.4238 -0.6360 0.9136
-12.3557 19.2259 -0.6435 0.9126
-16.8424 20.9001 -0.7558 0.8982
-20.1604 20.1604 -0.8028 0.8922
-22.5800 21.0227 -0.8687 0.8839
-29.8452 20.7219 -1.0231 0.8647
-21.3793 11.6740 -0.6859 0.9071
-34.1705 12.7449 -1.0269 0.8642
46.6919 1.6676 -2.3694 0.8293
46.5132 3.3267 -2.3649 0.8296
43.6549 4.6934 -2.2267 0.8387
41.1342 7.4215 -2.1198 0.8459
42.9635 9.3462 -2.2298 0.8385
40.0533 14.9391 -2.1680 0.8426
36.7493 15.2221 -2.0173 0.8527
17.7051 8.0857 -0.9871 0.9250
13.1045 7.1556 -0.7572 0.9420
25.2660 17.5425 -1.5599 0.8841
21.7743 16.3000 -1.3794 0.8968
20.5072 16.5257 -1.3357 0.8999
16.9772 16.9772 -1.2176 0.9083
15.6635 16.8239 -1.1658 0.9120
14.8268 17.1110 -1.1482 0.9133
13.8916 17.2384 -1.1228 0.9151
17.5922 23.5004 -1.4887 0.8891
16.2153 23.3544 -1.4419 0.8924
11.2284 17.4718 -1.0533 0.9202
10.2570 17.2873 -1.0194 0.9226
9.4761 17.3543 -1.0028 0.9239
9.0400 24.2372 -1.3119 0.9016
3.8796 17.8341 -0.9256 0.9295
3.2772 18.1643 -0.9361 0.9287
2.6179 18.2076 -0.9329 0.9290
1.8375 25.6922 -1.3063 0.9020
0.9112 25.5137 -1.2947 0.9028
-0.6608 18.5018 -0.9389 0.9285
-1.3073 18.2787 -0.9294 0.9292
-2.6843 18.6699 -0.9566 0.9272
-1.7547 9.7256 -0.5012 0.9612
-2.0977 9.6431 -0.5005 0.9612
-5.5509 18.9048 -0.9992 0.9241
-6.3192 18.9861 -1.0148 0.9230
-7.8019 18.8355 -1.0339 0.9216
-8.7604 19.1827 -1.0695 0.9190
-11.1522 20.4237 -1.1801 0.9110
-12.3557 19.2259 -1.1590 0.9125
-13.4116 19.3164 -1.1926 0.9101
-20.6779 27.6224 -1.7499 0.8709
-16.8418 20.8994 -1.3612 0.8981
-18.3808 19.7424 -1.3680 0.8976
-22.5793 21.0220 -1.5646 0.8838
-25.2225 20.3256 -1.6428 0.8783
-28.5243 21.3531 -1.8070 0.8670
-29.8452 20.7219 -1.8426 0.8646
-21.3718 11.6699 -1.2349 0.9071
-33.8907 12.6406 -1.8344 0.8651
32.8331 1.1727 -2.4089 0.8765
30.1934 6.5682 -2.2656 0.8834
29.6742 8.7131 -2.2676 0.8833
29.3594 9.7717 -2.2688 0.8833
29.0081 10.8195 -2.2701 0.8832
17.6827 8.0754 -1.4253 0.9250
27.7388 13.8851 -2.2745 0.8830
26.7176 15.8523 -2.2779 0.8829
25.2194 16.2075 -2.1981 0.8867
25.2693 17.5448 -2.2556 0.8839
19.4872 16.8858 -1.8906 0.9017
22.8609 21.2843 -2.2902 0.8823
16.9245 16.9245 -1.7550 0.9085
14.8284 17.1129 -1.6603 0.9132
16.2153 23.3544 -2.0847 0.8922
9.4761 17.3543 -1.4498 0.9238
8.8512 17.6826 -1.4499 0.9238
8.1691 17.8879 -1.4419 0.9242
9.0188 24.1803 -1.8923 0.9017
4.5375 17.7777 -1.3453 0.9291
3.8796 17.8341 -1.3382 0.9294
2.6177 18.2064 -1.3487 0.9289
2.7537 25.6137 -1.8889 0.9018
1.8375 25.6922 -1.8886 0.9018
0.9112 25.5137 -1.8719 0.9027
-0.6608 18.5005 -1.3574 0.9284
-1.3073 18.2787 -1.3437 0.9291
-1.9713 18.3356 -1.3522 0.9287
-2.6841 18.6686 -1.3829 0.9271
-1.7517 9.7090 -0.7234 0.9612
-2.0972 9.6406 -0.7234 0.9612
-6.4569 25.2981 -1.9144 0.9006
-5.5505 18.9034 -1.4445 0.9240
-6.9996 18.7667 -1.4686 0.9228
-8.7598 19.1812 -1.5461 0.9189
-12.9416 25.8540 -2.1199 0.8905
-11.1054 20.3381 -1.6991 0.9112
-11.5082 19.3960 -1.6536 0.9135
-16.7918 20.8373 -1.9622 0.8982
-17.1998 19.8496 -1.9258 0.9000
-20.0961 20.0961 -2.0838 0.8923
-26.5426 19.8696 -2.4311 0.8755
-27.2551 18.9236 -2.4329 0.8754
-28.5741 16.9538 -2.4361 0.8752
-22.6488 10.3433 -1.8256 0.9050
-30.7615 12.7418 -2.4413 0.8750
-26.6175 9.9278 -2.0830 0.8923
-31.6166 10.5230 -2.4432 0.8749
-34.6960 7.5477 -2.6035 0.8673
-34.9489 6.3055 -2.6039 0.8672
25.2544 1.8062 -2.4307 0.9033
25.1784 2.7070 -2.4312 0.9032
25.0713 3.6047 -2.4317 0.9032
24.9329 4.4984 -2.4323 0.9032
23.0697 5.8882 -2.2858 0.9088
22.8530 6.7103 -2.2866 0.9087
17.5548 7.2714 -1.8242 0.9265
13.1025 7.1545 -1.4333 0.9418
20.5547 12.1957 -2.2946 0.9084
18.1243 15.7048 -2.3024 0.9081
17.5656 16.3542 -2.3041 0.9081
15.6635 16.8239 -2.2068 0.9118
13.8468 17.1829 -2.1186 0.9151
13.8944 18.5608 -2.2259 0.9110
8.0923 17.7196 -1.8702 0.9247
8.4875 22.7558 -2.3317 0.9070
7.6777 23.0678 -2.3341 0.9069
0.0000 18.3732 -1.7639 0.9288
-0.6586 18.4404 -1.7715 0.9285
-1.3073 18.2787 -1.7593 0.9290
-2.6756 18.6092 -1.8049 0.9272
-1.7487 9.6924 -0.9455 0.9612
-5.5333 18.8447 -1.8856 0.9241
-6.2981 18.9227 -1.9146 0.9230
-6.9996 18.7667 -1.9229 0.9227
-7.8019 18.8355 -1.9573 0.9213
-8.7326 19.1218 -2.0182 0.9190
-11.1049 20.3371 -2.2246 0.9111
-11.4859 19.3585 -2.1610 0.9135
-13.4116 19.3164 -2.2576 0.9098
-15.6855 19.4645 -2.3999 0.9044
-17.7158 17.7158 -2.4053 0.9042
-9.3654 8.7195 -1.2285 0.9499
-18.9600 16.4289 -2.4085 0.9041
-19.5465 15.7516 -2.4100 0.9040
-21.1538 13.5947 -2.4141 0.9039
-20.6168 10.3200 -2.2134 0.9115
-22.3775 10.2195 -2.3618 0.9059
-23.2805 9.6431 -2.4192 0.9037
-24.7488 9.2308 -2.5359 0.8993
-25.7648 7.5652 -2.5780 0.8977
-26.7146 2.8721 -2.5795 0.8977
-26.8505 0.9590 -2.5794 0.8977
20.5721 0.0000 -2.4437 0.9205
20.3735 2.9293 -2.4450 0.9204
20.2601 3.6554 -2.4455 0.9204
19.9577 5.0939 -2.4467 0.9204
18.3661 6.1128 -2.2993 0.9250
18.1426 6.7668 -2.3001 0.9250
17.3774 7.1979 -2.2343 0.9270
12.9932 7.0949 -1.7585 0.9421
16.6886 9.9018 -2.3050 0.9248
16.3327 10.4964 -2.3062 0.9248
15.9561 11.0785 -2.3074 0.9247
15.5592 11.6475 -2.3087 0.9247
15.1422 12.2024 -2.3100 0.9247
14.7058 12.7427 -2.3114 0.9246
12.7758 14.7441 -2.3174 0.9244
11.7080 15.6401 -2.3207 0.9243
10.5780 16.4597 -2.3241 0.9242
9.3913 17.1988 -2.3277 0.9241
7.5170 18.1477 -2.3333 0.9239
6.8701 18.4195 -2.3352 0.9239
3.2661 18.1027 -2.1851 0.9286
2.6093 18.1484 -2.1779 0.9288
2.1140 19.6628 -2.3491 0.9234
1.4120 19.7427 -2.3511 0.9234
0.7071 19.7976 -2.3532 0.9233
-0.6586 18.4391 -2.1917 0.9284
-1.3073 18.2787 -2.1768 0.9288
-7.6570 18.4856 -2.3767 0.9226
-8.3182 18.2144 -2.3786 0.9225
-8.9698 17.9194 -2.3804 0.9225
-12.0511 16.0984 -2.3887 0.9222
-12.6261 15.6680 -2.3902 0.9221
-13.7284 14.7454 -2.3932 0.9221
-14.2542 14.2542 -2.3945 0.9220
-9.3055 8.6637 -1.5103 0.9501
-16.6003 11.5258 -2.4006 0.9218
-17.0083 10.9305 -2.4016 0.9218
-17.3944 10.3206 -2.4025 0.9218
-17.7583 9.6967 -2.4034 0.9217
-18.0992 9.0598 -2.4042 0.9217
-19.9221 8.2520 -2.5614 0.9168
-20.2090 7.5376 -2.5621 0.9168
-20.4697 6.8130 -2.5627 0.9168
-20.7037 6.0792 -2.5631 0.9168
-21.2431 3.8327 -2.5641 0.9167
-21.4645 2.3077 -2.5644 0.9167
17.3124 0.0000 -2.4530 0.9324
17.3027 0.6180 -2.4532 0.9324
17.1439 2.4649 -2.4541 0.9324
17.0479 3.0758 -2.4545 0.9324
16.7922 4.2860 -2.4555 0.9324
16.6326 4.8838 -2.4561 0.9324
16.4521 5.4758 -2.4568 0.9323
16.2038 6.0437 -2.4504 0.9325
15.0544 6.2357 -2.3088 0.9363
5.2217 2.6138 -0.8274 0.9767
5.1919 2.8350 -0.8382 0.9764
14.0346 8.3271 -2.3122 0.9362
13.0815 9.7927 -2.3153 0.9361
11.9778 11.1517 -2.3188 0.9360
11.1639 11.9909 -2.3213 0.9360
10.7349 12.3888 -2.3227 0.9359
8.3904 14.1413 -2.3298 0.9357
7.3699 14.7231 -2.3329 0.9356
6.3093 15.2320 -2.3360 0.9356
5.2138 15.6649 -2.3393 0.9355
4.6546 15.8522 -2.3409 0.9354
3.5169 16.1668 -2.3442 0.9353
2.9397 16.2937 -2.3459 0.9353
2.3580 16.4001 -2.3476 0.9353
1.7724 16.4857 -2.3493 0.9352
0.0000 16.6166 -2.3544 0.9351
-0.5935 16.6180 -2.3561 0.9350
-2.3716 16.4946 -2.3611 0.9349
-4.1298 16.1804 -2.3661 0.9348
-4.7079 16.0337 -2.3677 0.9347
-5.8476 15.6779 -2.3709 0.9346
-6.4076 15.4693 -2.3724 0.9346
-6.9601 15.2405 -2.3739 0.9346
-8.0396 14.7235 -2.3769 0.9345
-8.5652 14.4358 -2.3783 0.9344
-10.5561 13.0994 -2.3837 0.9343
-13.1364 10.5860 -2.3904 0.9341
-13.5113 10.1144 -2.3914 0.9341
-13.8689 9.6294 -2.3923 0.9341
-14.2088 9.1314 -2.3931 0.9340
-15.6451 8.5429 -2.5257 0.9305
-16.3780 7.4796 -2.5511 0.9298
-16.6384 6.8919 -2.5517 0.9298
-17.2893 5.0766 -2.5531 0.9298
-17.6117 3.8312 -2.5537 0.9298
-17.7386 3.2004 -2.5539 0.9298
-17.8425 2.5654 -2.5541 0.9298
-17.9232 1.9269 -2.5542 0.9298
-17.9806 1.2860 -2.5542 0.9298
-18.0146 0.6434 -2.5541 0.9298
14.8497 1.5965 -2.4604 0.9413
14.3425 4.2113 -2.4625 0.9412
5.2424 2.3941 -0.9494 0.9769
11.2746 8.4401 -2.3201 0.9445
10.9708 8.8408 -2.3211 0.9445
9.6184 10.3309 -2.3253 0.9444
8.4718 11.3170 -2.3289 0.9443
8.0668 11.6183 -2.3301 0.9443
5.8922 12.9021 -2.3366 0.9441
4.9626 13.3053 -2.3394 0.9441
3.5183 13.7845 -2.3436 0.9440
3.0259 13.9098 -2.3451 0.9439
2.5290 14.0176 -2.3465 0.9439
2.0284 14.1076 -2.3480 0.9439
1.5245 14.1798 -2.3494 0.9438
1.0180 14.2341 -2.3509 0.9438
0.5097 14.2702 -2.3524 0.9438
0.0000 14.2882 -2.3538 0.9437
-0.5103 14.2879 -2.3553 0.9437
-1.0206 14.2694 -2.3567 0.9437
-1.5302 14.2326 -2.3582 0.9436
-2.0384 14.1776 -2.3596 0.9436
-3.5486 13.9034 -2.3639 0.9435
-4.5367 13.6307 -2.3666 0.9434
-5.0232 13.4678 -2.3680 0.9434
-5.9778 13.0897 -2.3706 0.9433
-6.9038 12.6434 -2.3731 0.9433
-7.7961 12.1310 -2.3756 0.9432
-8.2282 11.8508 -2.3767 0.9432
-8.6500 11.5551 -2.3779 0.9432
-9.4609 10.9184 -2.3800 0.9431
-10.9361 9.4762 -2.3839 0.9430
-11.2715 9.0831 -2.3847 0.9430
-11.5924 8.6780 -2.3855 0.9430
-12.9412 8.3168 -2.5342 0.9395
-13.2722 7.8748 -2.5423 0.9394
-14.0482 6.4156 -2.5442 0.9393
-14.4756 5.3991 -2.5452 0.9393
-14.6614 4.8798 -2.5456 0.9393
-14.9759 3.8224 -2.5462 0.9393
-15.1042 3.2857 -2.5464 0.9393
-15.3018 2.2001 -2.5467 0.9393
-15.3710 1.6526 -2.5468 0.9393
-15.4494 0.5518 -2.5467 0.9393
12.9853 1.8670 -2.4658 0.9480
12.1360 5.0269 -2.4690 0.9479
5.1812 2.3662 -1.0706 0.9771
5.1614 2.8183 -1.1053 0.9763
10.9974 6.5251 -2.4036 0.9493
10.1519 7.0486 -2.3230 0.9509
9.6301 7.7605 -2.3247 0.9509
9.3506 8.1023 -2.3256 0.9509
9.0590 8.4342 -2.3265 0.9509
8.7557 8.7557 -2.3274 0.9509
8.1157 9.3660 -2.3294 0.9508
7.4335 9.9300 -2.3315 0.9508
7.0776 10.1937 -2.3326 0.9507
5.9561 10.9077 -2.3360 0.9507
5.5657 11.1189 -2.3371 0.9507
5.1679 11.3162 -2.3383 0.9506
4.7632 11.4994 -2.3395 0.9506
4.3520 11.6681 -2.3407 0.9506
3.5122 11.9615 -2.3432 0.9505
2.6528 12.1946 -2.3457 0.9505
1.7780 12.3662 -2.3483 0.9504
0.0000 12.5206 -2.3534 0.9503
-0.4471 12.5194 -2.3547 0.9503
-0.7162 10.0145 -1.8871 0.9600
-2.9732 8.9329 -1.7696 0.9624
-4.3985 11.7929 -2.3658 0.9501
-5.2337 11.4602 -2.3681 0.9500
-6.4377 10.8502 -2.3714 0.9499
-6.8239 10.6181 -2.3724 0.9499
-7.5704 10.1128 -2.3744 0.9499
-6.8031 8.4421 -2.0379 0.9568
-8.2791 9.5546 -2.3763 0.9498
-8.6181 9.2565 -2.3772 0.9498
-9.5681 8.2908 -2.3797 0.9498
-10.7732 8.0647 -2.5295 0.9467
-11.3536 7.2965 -2.5367 0.9466
-11.8508 6.4710 -2.5379 0.9465
-12.0768 6.0452 -2.5385 0.9465
-13.0974 3.3429 -2.5407 0.9465
-13.2094 2.8735 -2.5409 0.9465
-13.3044 2.4004 -2.5411 0.9465
-13.3821 1.9241 -2.5412 0.9465
-13.4425 1.4452 -2.5412 0.9465
-13.5112 0.4825 -2.5412 0.9465
11.6739 0.4169 -2.4692 0.9534
11.6524 0.8334 -2.4694 0.9534
11.0947 3.6927 -2.4717 0.9533
10.8074 4.4766 -2.4727 0.9533
5.1978 2.6018 -1.2287 0.9765
10.0704 5.9751 -2.4752 0.9533
9.8427 6.3255 -2.4731 0.9533
9.5618 6.6389 -2.4606 0.9535
8.9615 6.7085 -2.3662 0.9553
8.3243 7.2130 -2.3283 0.9560
7.5137 8.0703 -2.3308 0.9559
7.2237 8.3365 -2.3317 0.9559
6.9242 8.5924 -2.3326 0.9559
6.2988 9.0719 -2.3345 0.9559
5.6403 9.5063 -2.3365 0.9558
5.2997 9.7058 -2.3375 0.9558
4.5980 10.0681 -2.3396 0.9558
1.9717 10.9284 -2.3473 0.9556
1.5812 10.9972 -2.3485 0.9556
1.1882 11.0519 -2.3496 0.9556
0.7934 11.0927 -2.3508 0.9556
-0.3975 11.1301 -2.3542 0.9555
-0.9475 8.8126 -1.8735 0.9644
-1.2698 8.8318 -1.8861 0.9642
-2.6167 8.9117 -1.9633 0.9627
-3.9083 10.4787 -2.3640 0.9553
-4.6500 10.1820 -2.3661 0.9553
-5.0125 10.0137 -2.3671 0.9552
-5.3689 9.8325 -2.3681 0.9552
-6.3967 9.2131 -2.3708 0.9552
-7.6536 8.2205 -2.3742 0.9551
-9.3231 7.5131 -2.5310 0.9522
-9.8404 6.8323 -2.5323 0.9522
-10.5214 5.7451 -2.5340 0.9522
-10.9083 4.9817 -2.5349 0.9522
-11.0809 4.5899 -2.5353 0.9521
-11.2392 4.1920 -2.5356 0.9521
-11.5123 3.3803 -2.5362 0.9521
-11.6266 2.9675 -2.5364 0.9521
-11.7260 2.5508 -2.5366 0.9521
-11.8102 2.1308 -2.5367 0.9521
-11.8791 1.7080 -2.5368 0.9521
-11.9327 1.2829 -2.5369 0.9521
-11.9710 0.8562 -2.5369 0.9521
10.5198 0.0000 -2.4724 0.9577
10.4941 0.7506 -2.4727 0.9577
10.4156 1.4975 -2.4731 0.9577
10.3566 1.8685 -2.4733 0.9577
10.2845 2.2373 -2.4736 0.9577
10.1995 2.6033 -2.4740 0.9577
9.9909 3.3253 -2.4747 0.9577
9.8676 3.6804 -2.4752 0.9576
9.7318 4.0311 -2.4757 0.9576
5.2111 2.3798 -1.3464 0.9767
5.0704 2.7687 -1.3577 0.9765
9.0673 5.3799 -2.4779 0.9576
8.6650 6.0162 -2.4792 0.9576
8.4448 6.3217 -2.4792 0.9576
8.2015 6.6092 -2.4755 0.9576
7.8389 6.7925 -2.4378 0.9583
7.3553 6.8481 -2.3619 0.9595
7.0161 7.0161 -2.3320 0.9600
6.7635 7.2645 -2.3327 0.9600
6.5021 7.5039 -2.3335 0.9600
6.2324 7.7339 -2.3344 0.9600
5.6689 8.1648 -2.3361 0.9600
5.3759 8.3651 -2.3370 0.9600
4.7692 8.7341 -2.3388 0.9599
4.1373 9.0594 -2.3407 0.9599
3.8129 9.2051 -2.3417 0.9599
3.4833 9.3392 -2.3426 0.9599
2.4682 9.6703 -2.3456 0.9598
1.7736 9.8303 -2.3476 0.9598
1.0687 9.9404 -2.3497 0.9598
0.7135 9.9765 -2.3507 0.9597
0.0000 10.0107 -2.3528 0.9597
-0.3575 10.0087 -2.3538 0.9597
-0.6718 9.3929 -2.2132 0.9620
-0.9475 8.8126 -2.0831 0.9642
-1.5969 8.8512 -2.1138 0.9637
-2.2693 8.8911 -2.1566 0.9630
-2.6167 8.9117 -2.1829 0.9626
-2.9480 8.8572 -2.1939 0.9624
-3.8486 9.2912 -2.3636 0.9595
-4.1793 9.1515 -2.3645 0.9595
-4.5050 8.9999 -2.3654 0.9595
-4.8252 8.8366 -2.3663 0.9595
-5.1393 8.6619 -2.3671 0.9595
-5.4471 8.4759 -2.3679 0.9594
-5.7482 8.2789 -2.3687 0.9594
-6.0420 8.0712 -2.3695 0.9594
-6.3406 7.8683 -2.3749 0.9593
-6.8357 7.8888 -2.4533 0.9580
-7.3030 7.8439 -2.5188 0.9569
-7.5944 7.5944 -2.5242 0.9568
-7.8687 7.3260 -2.5268 0.9568
-8.1273 7.0424 -2.5274 0.9568
-8.3756 6.7495 -2.5281 0.9568
-8.8399 6.1377 -2.5293 0.9567
-9.0552 5.8195 -2.5298 0.9567
-9.2590 5.4936 -2.5303 0.9567
-9.6307 4.8208 -2.5312 0.9567
-9.9531 4.1227 -2.5319 0.9567
-10.2242 3.4029 -2.5325 0.9567
-10.3401 3.0362 -2.5328 0.9567
-10.5319 2.2911 -2.5331 0.9567
-10.6694 1.5340 -2.5333 0.9567
-10.7175 1.1523 -2.5334 0.9567
-10.7518 0.7690 -2.5334 0.9567
-10.7722 0.3847 -2.5333 0.9567
9.5596 0.0000 -2.4751 0.9613
9.5539 0.3412 -2.4752 0.9613
9.5361 0.6821 -2.4754 0.9613
9.5064 1.0220 -2.4755 0.9613
5.2276 2.3874 -1.4880 0.9765
5.1207 2.5633 -1.4827 0.9766
5.0875 2.7780 -1.5008 0.9763
8.0601 5.1799 -2.4807 0.9612
7.8720 5.4657 -2.4813 0.9612
7.6739 5.7446 -2.4820 0.9612
7.2485 6.2808 -2.4833 0.9611
7.0156 6.5318 -2.4819 0.9612
6.7700 6.7700 -2.4790 0.9612
6.4325 6.9090 -2.4441 0.9617
6.0257 6.9540 -2.3824 0.9627
5.6607 7.0245 -2.3358 0.9634
5.4082 7.2245 -2.3366 0.9634
4.6097 7.7692 -2.3390 0.9634
4.0466 8.0841 -2.3407 0.9633
3.7569 8.2264 -2.3416 0.9633
3.4622 8.3584 -2.3424 0.9633
3.1628 8.4799 -2.3433 0.9633
2.2408 8.7795 -2.3460 0.9633
1.9268 8.8574 -2.3470 0.9632
1.2910 8.9793 -2.3488 0.9632
0.6477 9.0557 -2.3507 0.9632
0.0000 9.0860 -2.3525 0.9632
-0.3244 9.0838 -2.3535 0.9631
-0.6487 9.0700 -2.3544 0.9631
-0.9347 8.6937 -2.2639 0.9645
-1.9037 8.7512 -2.3188 0.9637
-3.1873 8.5456 -2.3615 0.9630
-4.3771 8.0161 -2.3648 0.9630
-5.4020 7.7803 -2.4524 0.9616
-5.8185 7.7726 -2.5139 0.9607
-6.1031 7.5735 -2.5184 0.9606
-6.6406 7.1325 -2.5232 0.9605
-7.8108 5.8471 -2.5262 0.9605
-8.3959 4.9815 -2.5277 0.9605
-8.5698 4.6795 -2.5281 0.9605
-8.7327 4.3713 -2.5285 0.9605
-9.0247 3.7382 -2.5292 0.9604
-9.1534 3.4140 -2.5295 0.9604
-9.3754 2.7529 -2.5299 0.9604
-9.5491 2.0773 -2.5303 0.9604
-9.6737 1.3909 -2.5304 0.9604
-9.7173 1.0447 -2.5305 0.9604
-9.7484 0.6972 -2.5305 0.9604
8.7514 0.0000 -2.4775 0.9643
8.7461 0.3124 -2.4775 0.9643
8.7298 0.6244 -2.4777 0.9643
8.6643 1.2457 -2.4780 0.9643
8.6150 1.5543 -2.4782 0.9643
8.5549 1.8610 -2.4785 0.9643
8.4023 2.4671 -2.4791 0.9642
8.3101 2.7658 -2.4794 0.9642
5.1862 2.5960 -1.6418 0.9762
7.5402 4.4738 -2.4820 0.9642
7.3773 4.7411 -2.4826 0.9642
7.0235 5.2577 -2.4837 0.9642
6.8330 5.5064 -2.4843 0.9642
6.6338 5.7482 -2.4849 0.9642
6.4261 5.9829 -2.4856 0.9642
6.2102 6.2102 -2.4863 0.9641
5.9862 6.4297 -2.4870 0.9641
5.5042 6.8303 -2.4833 0.9642
4.8874 7.0393 -2.4260 0.9650
4.5456 7.0732 -2.3802 0.9657
3.9626 7.2571 -2.3407 0.9662
2.6156 7.8587 -2.3447 0.9662
2.3343 7.9499 -2.3456 0.9661
2.0498 8.0310 -2.3464 0.9661
1.1808 8.2129 -2.3489 0.9661
0.8873 8.2528 -2.3498 0.9661
0.2965 8.3011 -2.3515 0.9661
-0.8892 8.2707 -2.3549 0.9660
-1.4780 8.1919 -2.3565 0.9660
-1.7701 8.1368 -2.3573 0.9660
-2.0601 8.0712 -2.3582 0.9660
-2.6324 7.9090 -2.3598 0.9659
-3.1920 7.7062 -2.3613 0.9659
-3.4937 7.6501 -2.3809 0.9656
-3.8379 7.6671 -2.4272 0.9650
-4.1959 7.6842 -2.4785 0.9643
-4.5259 7.6281 -2.5109 0.9638
-5.0739 7.3078 -2.5185 0.9637
-5.3335 7.1247 -2.5195 0.9637
-5.8312 6.7296 -2.5208 0.9637
-6.0692 6.5188 -2.5214 0.9637
-6.2995 6.2995 -2.5220 0.9636
-6.9414 5.5937 -2.5237 0.9636
-7.1380 5.3434 -2.5242 0.9636
-7.3255 5.0862 -2.5247 0.9636
-7.6723 4.5522 -2.5255 0.9636
-7.8311 4.2761 -2.5259 0.9636
-7.9799 3.9944 -2.5263 0.9636
-8.1184 3.7075 -2.5266 0.9636
-8.6516 2.2082 -2.5277 0.9636
-8.8392 1.2709 -2.5280 0.9636
-8.8790 0.9546 -2.5281 0.9636
8.0611 0.0000 -2.4794 0.9668
8.0563 0.2877 -2.4795 0.9668
8.0412 0.5751 -2.4796 0.9668
8.0160 0.8618 -2.4798 0.9668
7.9807 1.1475 -2.4799 0.9668
7.9353 1.4317 -2.4801 0.9668
7.8145 1.9945 -2.4806 0.9668
7.7392 2.2724 -2.4809 0.9668
7.6541 2.5475 -2.4812 0.9668
7.4550 3.0880 -2.4819 0.9668
5.1899 2.5979 -1.7851 0.9760
5.2245 2.8528 -1.8309 0.9754
6.9445 4.1203 -2.4836 0.9668
6.6355 4.6071 -2.4846 0.9668
6.2927 5.0710 -2.4857 0.9667
6.1091 5.2936 -2.4863 0.9667
5.7187 5.7187 -2.4875 0.9667
4.6171 6.6499 -2.4900 0.9667
4.3740 6.8061 -2.4884 0.9667
4.1259 6.9538 -2.4870 0.9667
3.2700 7.1603 -2.4212 0.9676
2.9771 7.1874 -2.3928 0.9680
2.6904 7.2133 -2.3680 0.9683
2.4103 7.2419 -2.3476 0.9686
1.8869 7.3926 -2.3467 0.9686
1.6223 7.4577 -2.3475 0.9686
1.3556 7.5134 -2.3483 0.9686
1.0869 7.5595 -2.3490 0.9685
0.5452 7.6228 -2.3506 0.9685
0.2729 7.6400 -2.3514 0.9685
0.0000 7.6474 -2.3522 0.9685
-0.5459 7.6329 -2.3537 0.9685
-1.0898 7.5795 -2.3553 0.9685
-1.6355 7.5182 -2.3665 0.9683
-1.9230 7.5341 -2.3916 0.9680
-2.5180 7.5654 -2.4525 0.9672
-3.3896 7.4222 -2.5097 0.9664
-3.6568 7.3053 -2.5127 0.9664
-3.9194 7.1779 -2.5154 0.9664
-4.1743 7.0353 -2.5161 0.9663
-4.4239 6.8837 -2.5168 0.9663
-4.6680 6.7232 -2.5175 0.9663
-5.5827 5.9962 -2.5199 0.9663
-6.1956 5.3685 -2.5215 0.9663
-6.7376 4.6780 -2.5229 0.9663
-7.0564 4.1867 -2.5237 0.9662
-7.2023 3.9328 -2.5240 0.9662
-7.4664 3.4098 -2.5246 0.9662
-7.9565 2.0308 -2.5257 0.9662
-8.0818 1.4581 -2.5259 0.9662
-8.1289 1.1688 -2.5260 0.9662
-8.1655 0.8779 -2.5260 0.9662
-8.1917 0.5859 -2.5260 0.9662
-8.2073 0.2931 -2.5260 0.9662
7.4642 0.0000 -2.4811 0.9690
7.4596 0.2664 -2.4812 0.9690
7.3896 1.0625 -2.4816 0.9690
7.3475 1.3256 -2.4818 0.9690
7.1658 2.1041 -2.4825 0.9690
6.9991 2.6105 -2.4831 0.9690
5.3461 2.4415 -1.9536 0.9755
5.2369 2.8596 -1.9834 0.9752
6.4294 3.8147 -2.4850 0.9690
6.1432 4.2653 -2.4860 0.9690
5.8256 4.6946 -2.4870 0.9690
5.6556 4.9006 -2.4875 0.9689
5.4783 5.1005 -2.4881 0.9689
5.2940 5.2940 -2.4887 0.9689
4.9052 5.6609 -2.4899 0.9689
4.4911 5.9994 -2.4911 0.9689
4.0538 6.3079 -2.4924 0.9689
3.8272 6.4503 -2.4931 0.9689
3.5955 6.5847 -2.4938 0.9689
3.3587 6.7098 -2.4942 0.9689
2.6199 7.0242 -2.4920 0.9689
1.5820 7.2723 -2.4739 0.9691
0.7883 7.3322 -2.4513 0.9694
-1.0703 7.4441 -2.4999 0.9688
-1.6009 7.3593 -2.5035 0.9688
-1.8640 7.3033 -2.5055 0.9687
-2.3845 7.1643 -2.5099 0.9687
-2.6407 7.0799 -2.5118 0.9687
-2.8925 6.9831 -2.5125 0.9686
-3.3851 6.7626 -2.5138 0.9686
-3.6253 6.6392 -2.5145 0.9686
-4.3174 6.2182 -2.5163 0.9686
-4.5377 6.0616 -2.5169 0.9686
-4.7522 5.8971 -2.5175 0.9686
-5.1630 5.5455 -2.5186 0.9686
-5.3587 5.3588 -2.5191 0.9686
-5.7296 4.9647 -2.5201 0.9685
-5.9042 4.7579 -2.5205 0.9685
-6.0713 4.5449 -2.5209 0.9685
-6.3820 4.1015 -2.5217 0.9685
-6.7865 3.3971 -2.5227 0.9685
-7.0130 2.9049 -2.5232 0.9685
-7.1128 2.6529 -2.5234 0.9685
-7.2035 2.3976 -2.5236 0.9685
-7.4198 1.6141 -2.5241 0.9685
-7.4729 1.3483 -2.5242 0.9685
-7.5165 1.0807 -2.5242 0.9685
-7.5503 0.8117 -2.5242 0.9685
6.9423 0.0000 -2.4826 0.9709
6.9251 0.4953 -2.4828 0.9709
6.8729 0.9882 -2.4831 0.9709
6.7859 1.4762 -2.4834 0.9709
6.7295 1.7176 -2.4837 0.9709
6.5912 2.1938 -2.4842 0.9709
5.3842 2.4589 -2.1167 0.9752
5.2028 2.6044 -2.0806 0.9756
5.9792 3.5477 -2.4863 0.9709
5.8498 3.7594 -2.4867 0.9709
5.5687 4.1687 -2.4876 0.9709
5.4174 4.3656 -2.4881 0.9709
5.2592 4.5571 -2.4886 0.9709
5.0943 4.7429 -2.4891 0.9709
4.9228 4.9228 -2.4896 0.9709
4.1760 5.5784 -2.4919 0.9708
3.9752 5.7253 -2.4925 0.9708
3.7692 5.8650 -2.4932 0.9708
3.3429 6.1221 -2.4944 0.9708
2.8992 6.3484 -2.4958 0.9708
1.9684 6.7037 -2.4985 0.9708
1.7284 6.7716 -2.4992 0.9707
1.4859 6.8307 -2.4998 0.9707
0.9950 6.9206 -2.5003 0.9707
0.4990 6.9769 -2.5014 0.9707
0.2497 6.9924 -2.5021 0.9707
0.0000 6.9993 -2.5030 0.9707
-0.4998 6.9877 -2.5052 0.9707
-0.7492 6.9685 -2.5063 0.9707
-0.9977 6.9392 -2.5070 0.9707
-1.9773 6.7340 -2.5098 0.9706
-2.4539 6.5792 -2.5111 0.9706
-2.6879 6.4891 -2.5118 0.9706
-2.9185 6.3907 -2.5124 0.9706
-3.1455 6.2840 -2.5130 0.9706
-3.5875 6.0465 -2.5142 0.9706
-3.8019 5.9159 -2.5148 0.9706
-4.6091 5.3192 -2.5170 0.9705
-5.3232 4.6125 -2.5188 0.9705
-5.6405 4.2224 -2.5196 0.9705
-5.9290 3.8103 -2.5204 0.9705
-6.0620 3.5968 -2.5207 0.9705
-6.1873 3.3785 -2.5210 0.9705
-6.3046 3.1559 -2.5213 0.9705
-6.5149 2.6986 -2.5217 0.9705
-6.6077 2.4645 -2.5220 0.9705
-6.6919 2.2273 -2.5221 0.9705
-6.7675 1.9871 -2.5223 0.9705
-6.8927 1.4994 -2.5225 0.9705
-6.9421 1.2525 -2.5226 0.9705
-7.0139 0.7541 -2.5227 0.9705
-7.0364 0.5033 -2.5227 0.9705
6.4778 0.2314 -2.4840 0.9726
6.4657 0.4624 -2.4841 0.9726
6.4454 0.6930 -2.4842 0.9726
6.3803 1.1511 -2.4845 0.9726
6.3356 1.3782 -2.4847 0.9726
6.2829 1.6036 -2.4849 0.9726
6.2222 1.8270 -2.4851 0.9726
6.1537 2.0481 -2.4854 0.9726
6.0773 2.2667 -2.4857 0.9726
5.2453 2.6256 -2.2479 0.9752
5.4611 3.5097 -2.4877 0.9726
4.7555 4.4275 -2.4900 0.9726
4.2576 4.9136 -2.4915 0.9725
3.8980 5.2071 -2.4926 0.9725
2.9150 5.8233 -2.4956 0.9725
2.7059 5.9252 -2.4962 0.9725
2.2775 6.1062 -2.4975 0.9725
1.8370 6.2564 -2.4988 0.9725
1.6130 6.3196 -2.4994 0.9724
1.3868 6.3748 -2.5001 0.9724
0.9289 6.4610 -2.5014 0.9724
0.6979 6.4917 -2.5021 0.9724
0.4659 6.5142 -2.5028 0.9724
0.2332 6.5285 -2.5034 0.9724
-0.2333 6.5319 -2.5048 0.9724
-0.4664 6.5212 -2.5054 0.9724
-0.6990 6.5021 -2.5061 0.9724
-1.1617 6.4390 -2.5074 0.9724
-2.2894 6.1381 -2.5105 0.9723
-2.5076 6.0540 -2.5111 0.9723
-3.1426 5.7552 -2.5129 0.9723
-3.9330 5.2539 -2.5150 0.9723
-4.1188 5.1111 -2.5155 0.9723
-4.2994 4.9618 -2.5160 0.9723
-4.6441 4.6441 -2.5169 0.9723
-5.1164 4.1231 -2.5181 0.9722
-5.2611 3.9384 -2.5185 0.9722
-5.3991 3.7486 -2.5188 0.9722
-5.5301 3.5540 -2.5191 0.9722
-5.6541 3.3548 -2.5195 0.9722
-5.7709 3.1512 -2.5197 0.9722
-5.9822 2.7320 -2.5202 0.9722
-6.2414 2.0773 -2.5208 0.9722
-6.3744 1.6270 -2.5211 0.9722
-6.4286 1.3985 -2.5212 0.9722
-6.5123 0.9363 -2.5213 0.9722
-6.5417 0.7033 -2.5213 0.9722
6.0720 0.0000 -2.4851 0.9741
6.0683 0.2167 -2.4852 0.9741
6.0569 0.4332 -2.4853 0.9741
6.0378 0.6491 -2.4854 0.9741
5.9768 1.0783 -2.4856 0.9741
5.6928 2.1233 -2.4867 0.9741
5.6140 2.3254 -2.4870 0.9741
5.2686 2.6373 -2.4113 0.9749
5.1154 3.2875 -2.4887 0.9741
4.7370 3.8173 -2.4899 0.9740
4.5985 3.9846 -2.4903 0.9740
4.3041 4.3041 -2.4912 0.9740
4.1486 4.4559 -2.4917 0.9740
3.8216 4.7424 -2.4927 0.9740
3.4751 5.0050 -2.4938 0.9740
3.2949 5.1270 -2.4943 0.9740
2.9221 5.3514 -2.4954 0.9740
2.5341 5.5488 -2.4966 0.9740
2.3349 5.6371 -2.4972 0.9740
1.9278 5.7920 -2.4984 0.9740
1.7202 5.8586 -2.4990 0.9740
1.5104 5.9177 -2.4996 0.9739
0.8698 6.0498 -2.5015 0.9739
0.6535 6.0785 -2.5021 0.9739
0.4362 6.0995 -2.5027 0.9739
-0.4367 6.1055 -2.5052 0.9739
-0.6545 6.0876 -2.5058 0.9739
-0.8716 6.0618 -2.5065 0.9739
-1.3024 5.9871 -2.5077 0.9739
-1.5156 5.9382 -2.5083 0.9739
-1.7270 5.8817 -2.5089 0.9739
-1.9363 5.8177 -2.5094 0.9738
-2.3475 5.6673 -2.5106 0.9738
-2.5488 5.5811 -2.5111 0.9738
-3.1328 5.2800 -2.5127 0.9738
-3.6814 4.9178 -2.5142 0.9738
-4.6473 4.0269 -2.5167 0.9738
-4.7888 3.8590 -2.5171 0.9738
-4.9241 3.6862 -2.5174 0.9738
-5.2919 3.1398 -2.5184 0.9738
-5.5035 2.7549 -2.5189 0.9738
-5.5988 2.5569 -2.5191 0.9737
-5.8413 1.9442 -2.5196 0.9737
-5.9657 1.5227 -2.5199 0.9737
-6.0165 1.3088 -2.5200 0.9737
-6.0595 1.0933 -2.5200 0.9737
-6.0948 0.8763 -2.5201 0.9737
5.7046 0.0000 -2.4862 0.9754
5.5757 1.2129 -2.4868 0.9754
5.4758 1.6079 -2.4872 0.9754
5.3482 1.9948 -2.4877 0.9754
5.0122 2.7369 -2.4888 0.9754
4.9119 2.9144 -2.4892 0.9754
4.8055 3.0883 -2.4895 0.9754
4.6929 3.2583 -2.4899 0.9754
4.5743 3.4243 -2.4902 0.9754
4.4498 3.5859 -2.4906 0.9754
4.3197 3.7431 -2.4910 0.9754
4.1841 3.8955 -2.4915 0.9754
4.0431 4.0431 -2.4919 0.9754
3.7457 4.3228 -2.4928 0.9754
3.4291 4.5808 -2.4938 0.9753
3.0949 4.8157 -2.4948 0.9753
2.9216 4.9242 -2.4953 0.9753
2.7446 5.0264 -2.4959 0.9753
2.5640 5.1222 -2.4964 0.9753
2.3801 5.2116 -2.4970 0.9753
2.1930 5.2944 -2.4975 0.9753
0.2050 5.7403 -2.5033 0.9752
0.0000 5.7453 -2.5039 0.9752
-0.2051 5.7430 -2.5045 0.9752
-0.4101 5.7333 -2.5051 0.9752
-1.0213 5.6605 -2.5068 0.9752
-1.4231 5.5758 -2.5079 0.9752
-1.6216 5.5226 -2.5085 0.9752
-1.8181 5.4624 -2.5090 0.9752
-2.7619 5.0581 -2.5116 0.9752
-3.1169 4.8500 -2.5126 0.9752
-3.2886 4.7365 -2.5130 0.9752
-3.4562 4.6170 -2.5135 0.9751
-4.2245 3.9331 -2.5155 0.9751
-4.4955 3.6227 -2.5162 0.9751
-4.6226 3.4604 -2.5165 0.9751
-4.7437 3.2936 -2.5168 0.9751
-4.8588 3.1225 -2.5171 0.9751
-4.9677 2.9475 -2.5174 0.9751
-5.2557 2.4002 -2.5181 0.9751
-5.4833 1.8250 -2.5186 0.9751
-5.6000 1.4293 -2.5188 0.9751
-5.6476 1.2286 -2.5189 0.9751
-5.6880 1.0262 -2.5190 0.9751
-5.7211 0.8226 -2.5190 0.9751
-5.7653 0.4123 -2.5190 0.9751
5.3698 0.1918 -2.4872 0.9766
5.3428 0.5744 -2.4873 0.9766
5.3191 0.7648 -2.4875 0.9766
5.2887 0.9542 -2.4876 0.9766
5.2078 1.3292 -2.4879 0.9766
5.1575 1.5144 -2.4881 0.9766
4.9674 2.0576 -2.4888 0.9766
4.7206 2.5776 -2.4896 0.9766
4.4197 3.0687 -2.4906 0.9766
3.9404 3.6687 -2.4921 0.9765
3.8076 3.8076 -2.4925 0.9765
3.6699 3.9418 -2.4930 0.9765
3.2293 4.3138 -2.4943 0.9765
2.0650 4.9854 -2.4978 0.9765
1.8862 5.0570 -2.4983 0.9765
1.5212 5.1809 -2.4994 0.9765
0.7691 5.3494 -2.5016 0.9765
-0.0000 5.4091 -2.5038 0.9764
-0.7705 5.3588 -2.5060 0.9764
-0.9615 5.3290 -2.5065 0.9764
-1.1513 5.2924 -2.5071 0.9764
-2.2527 4.9327 -2.5101 0.9764
-2.7686 4.6663 -2.5115 0.9764
-2.9339 4.5653 -2.5120 0.9764
-3.4069 4.2277 -2.5132 0.9764
-3.5561 4.1040 -2.5136 0.9763
-3.8410 3.8410 -2.5144 0.9763
-3.9762 3.7020 -2.5147 0.9763
-4.4648 3.1000 -2.5160 0.9763
-4.5731 2.9389 -2.5163 0.9763
-4.7720 2.6057 -2.5167 0.9763
-4.8624 2.4339 -2.5170 0.9763
-4.9466 2.2590 -2.5172 0.9763
-5.0958 1.9006 -2.5175 0.9763
-5.1607 1.7176 -2.5176 0.9763
-5.2189 1.5324 -2.5178 0.9763
-5.2705 1.3452 -2.5179 0.9763
-5.3154 1.1563 -2.5179 0.9763
-5.3534 0.9659 -2.5180 0.9763
-5.4261 0.3881 -2.5181 0.9763
5.0689 0.1810 -2.4880 0.9777
5.0434 0.5422 -2.4882 0.9777
5.0211 0.7219 -2.4883 0.9777
4.9924 0.9007 -2.4884 0.9777
4.9160 1.2547 -2.4887 0.9776
4.8684 1.4295 -2.4889 0.9776
4.7548 1.7735 -2.4893 0.9776
4.6171 2.1086 -2.4898 0.9776
4.5394 2.2723 -2.4901 0.9776
4.4559 2.4331 -2.4903 0.9776
4.2720 2.7454 -2.4909 0.9776
4.1718 2.8965 -2.4913 0.9776
4.0663 3.0440 -2.4916 0.9776
3.9556 3.1877 -2.4920 0.9776
3.8399 3.3273 -2.4923 0.9776
3.4639 3.7205 -2.4935 0.9776
3.1907 3.9594 -2.4943 0.9776
1.9489 4.7050 -2.4981 0.9776
1.7801 4.7725 -2.4986 0.9776
0.9053 5.0179 -2.5011 0.9775
0.5453 5.0718 -2.5022 0.9775
0.3640 5.0891 -2.5027 0.9775
0.1821 5.0999 -2.5032 0.9775
-0.1822 5.1020 -2.5043 0.9775
-0.5460 5.0781 -2.5053 0.9775
-0.9072 5.0283 -2.5063 0.9775
-1.0863 4.9937 -2.5068 0.9775
-1.2641 4.9527 -2.5073 0.9775
-1.4404 4.9054 -2.5078 0.9775
-1.7873 4.7920 -2.5088 0.9775
-1.9576 4.7260 -2.5092 0.9775
-2.2906 4.5760 -2.5101 0.9775
-2.6121 4.4025 -2.5110 0.9775
-2.9205 4.2063 -2.5119 0.9774
-3.0692 4.1000 -2.5123 0.9774
-3.3549 3.8718 -2.5130 0.9774
-3.4915 3.7501 -2.5134 0.9774
-4.1044 3.0725 -2.5150 0.9774
-4.2119 2.9244 -2.5152 0.9774
-4.3141 2.7725 -2.5155 0.9774
-4.5017 2.4581 -2.5159 0.9774
-4.6663 2.1310 -2.5163 0.9774
-4.8070 1.7929 -2.5166 0.9774
-4.8682 1.6203 -2.5168 0.9774
-4.9232 1.4456 -2.5169 0.9774
-5.0793 0.7303 -2.5172 0.9774
-5.1022 0.5485 -2.5172 0.9774
-5.1185 0.3661 -2.5172 0.9774
-5.1283 0.1832 -2.5172 0.9774
4.7491 0.6828 -2.4891 0.9786
4.6046 1.3520 -2.4896 0.9786
4.4972 1.6774 -2.4900 0.9786
4.4348 1.8370 -2.4902 0.9786
4.2933 2.1491 -2.4907 0.9786
4.2143 2.3012 -2.4910 0.9786
4.0403 2.5966 -2.4916 0.9786
3.9456 2.7394 -2.4919 0.9786
3.8458 2.8789 -2.4922 0.9786
3.5174 3.2749 -2.4932 0.9786
3.3988 3.3988 -2.4936 0.9786
3.2758 3.5185 -2.4940 0.9786
2.8824 3.8504 -2.4952 0.9786
2.7436 3.9515 -2.4956 0.9786
2.6012 4.0476 -2.4960 0.9786
2.0002 4.3797 -2.4978 0.9785
1.8429 4.4492 -2.4983 0.9785
1.6832 4.5129 -2.4988 0.9785
1.0246 4.7102 -2.5007 0.9785
0.8560 4.7447 -2.5012 0.9785
0.6863 4.7732 -2.5017 0.9785
0.5156 4.7956 -2.5022 0.9785
0.3441 4.8119 -2.5027 0.9785
0.0000 4.8261 -2.5037 0.9785
-0.1723 4.8239 -2.5042 0.9785
-0.6874 4.7807 -2.5056 0.9785
-1.0270 4.7213 -2.5066 0.9785
-1.1951 4.6825 -2.5070 0.9785
-1.3617 4.6377 -2.5075 0.9785
-2.4694 4.1619 -2.5106 0.9784
-2.7609 3.9764 -2.5113 0.9784
-2.9015 3.8759 -2.5117 0.9784
-3.1715 3.6601 -2.5124 0.9784
-3.3005 3.5450 -2.5128 0.9784
-3.4254 3.4254 -2.5131 0.9784
-3.5459 3.3014 -2.5134 0.9784
-3.7733 3.0407 -2.5140 0.9784
-3.8798 2.9044 -2.5143 0.9784
-4.0779 2.6207 -2.5148 0.9784
-4.2553 2.3235 -2.5152 0.9784
-4.4802 1.8558 -2.5157 0.9784
-4.6536 1.3664 -2.5161 0.9784
-4.6995 1.1995 -2.5162 0.9784
-4.7734 0.8612 -2.5163 0.9784
-4.8012 0.6903 -2.5164 0.9784
-4.8474 0.1731 -2.5164 0.9784
4.5453 0.0000 -2.4895 0.9795
4.5425 0.1622 -2.4895 0.9795
4.5339 0.3243 -2.4896 0.9795
4.5196 0.4859 -2.4897 0.9795
4.4424 0.9664 -2.4900 0.9795
4.4053 1.1244 -2.4902 0.9795
4.2017 1.7404 -2.4909 0.9795
4.0676 2.0361 -2.4913 0.9795
3.9927 2.1802 -2.4916 0.9795
3.9128 2.3215 -2.4919 0.9795
3.7380 2.5954 -2.4924 0.9795
3.6435 2.7275 -2.4927 0.9795
3.5442 2.8561 -2.4930 0.9795
3.4405 2.9812 -2.4934 0.9795
3.1034 3.3333 -2.4944 0.9794
2.9829 3.4425 -2.4948 0.9794
2.7306 3.6476 -2.4956 0.9794
2.5990 3.7433 -2.4960 0.9794
2.4642 3.8344 -2.4964 0.9794
2.1851 4.0017 -2.4972 0.9794
2.0412 4.0779 -2.4976 0.9794
1.8947 4.1488 -2.4981 0.9794
1.5945 4.2750 -2.4990 0.9794
1.4411 4.3299 -2.4994 0.9794
1.1290 4.4233 -2.5003 0.9794
0.9706 4.4616 -2.5008 0.9794
0.8109 4.4943 -2.5013 0.9794
0.3260 4.5577 -2.5027 0.9794
-0.3262 4.5611 -2.5045 0.9794
-0.4889 4.5474 -2.5050 0.9794
-0.6510 4.5279 -2.5054 0.9794
-0.8124 4.5026 -2.5059 0.9793
-1.1319 4.4348 -2.5068 0.9793
-1.2897 4.3923 -2.5072 0.9793
-1.6003 4.2906 -2.5081 0.9793
-1.9029 4.1669 -2.5089 0.9793
-2.3386 3.9414 -2.5101 0.9793
-2.8773 3.5706 -2.5116 0.9793
-3.0034 3.4661 -2.5119 0.9793
-3.2438 3.2438 -2.5125 0.9793
-4.0294 2.2002 -2.5145 0.9793
-4.1057 2.0552 -2.5147 0.9793
-4.1767 1.9075 -2.5149 0.9793
-4.3026 1.6048 -2.5152 0.9793
-4.3574 1.4503 -2.5153 0.9793
-4.4501 1.1358 -2.5155 0.9793
-4.5667 0.4910 -2.5156 0.9793
-4.5814 0.3277 -2.5156 0.9793
4.2452 0.7659 -2.4905 0.9803
4.2153 0.9170 -2.4906 0.9803
4.1801 1.0669 -2.4908 0.9803
4.1397 1.2155 -2.4909 0.9803
4.0939 1.3626 -2.4911 0.9803
4.0430 1.5079 -2.4913 0.9803
3.9869 1.6514 -2.4915 0.9803
3.8596 1.9320 -2.4919 0.9803
3.7885 2.0687 -2.4921 0.9803
3.7126 2.2028 -2.4924 0.9803
3.5468 2.4626 -2.4929 0.9803
3.2644 2.8286 -2.4938 0.9802
3.1618 2.9437 -2.4942 0.9802
2.9445 3.1627 -2.4948 0.9802
2.8302 3.2662 -2.4952 0.9802
2.7122 3.3656 -2.4955 0.9802
2.4659 3.5516 -2.4963 0.9802
2.3379 3.6379 -2.4967 0.9802
2.2070 3.7196 -2.4971 0.9802
1.9366 3.8688 -2.4979 0.9802
1.7976 3.9362 -2.4983 0.9802
1.6562 3.9985 -2.4987 0.9802
0.6167 4.2891 -2.5018 0.9802
0.3092 4.3237 -2.5027 0.9802
0.1547 4.3327 -2.5031 0.9802
-0.1548 4.3343 -2.5040 0.9802
-0.3095 4.3267 -2.5044 0.9802
-0.4638 4.3137 -2.5049 0.9802
-0.6175 4.2951 -2.5053 0.9802
-0.7706 4.2711 -2.5057 0.9802
-0.9227 4.2416 -2.5062 0.9802
-1.0737 4.2067 -2.5066 0.9801
-1.3715 4.1207 -2.5074 0.9801
-1.8050 3.9524 -2.5086 0.9801
-1.9452 3.8860 -2.5090 0.9801
-2.0830 3.8147 -2.5094 0.9801
-2.2181 3.7385 -2.5097 0.9801
-2.3505 3.6574 -2.5101 0.9801
-2.4799 3.5717 -2.5104 0.9801
-2.6061 3.4814 -2.5108 0.9801
-2.7291 3.3866 -2.5111 0.9801
-2.8486 3.2874 -2.5114 0.9801
-2.9645 3.1841 -2.5117 0.9801
-3.3889 2.7310 -2.5128 0.9801
-3.4846 2.6085 -2.5131 0.9801
-3.5758 2.4827 -2.5133 0.9801
-3.6624 2.3537 -2.5135 0.9801
-3.7444 2.2217 -2.5137 0.9801
-3.8216 2.0867 -2.5139 0.9801
-3.8939 1.9492 -2.5141 0.9801
-3.9612 1.8090 -2.5142 0.9801
-4.0235 1.6666 -2.5144 0.9801
-4.2204 1.0772 -2.5148 0.9801
-4.2563 0.9259 -2.5149 0.9801
-4.2867 0.7734 -2.5149 0.9801
-4.3117 0.6199 -2.5149 0.9801
-4.3311 0.4656 -2.5150 0.9801
-4.3449 0.3108 -2.5150 0.9801
-4.3532 0.1555 -2.5149 0.9801
