ply
format ascii 1.0
element vertex 1252
property float32 x
property float32 y
property float32 z
property float32 I
end_header
-43.7538 -21.9016 8.6275 0.8198
-40.6698 -22.2074 8.1706 0.8284
-36.1793 -23.2510 7.5832 0.8397
-33.9244 -23.5542 7.2822 0.8456
-31.9760 -23.9369 7.0430 0.8502
-30.1550 -24.3004 6.8287 0.8544
-26.8163 -24.9669 6.4605 0.8617
-26.0876 -26.0876 6.5053 0.8608
-24.7589 -28.5733 6.6666 0.8576
-23.8576 -29.6055 6.7043 0.8569
-22.8732 -30.5551 6.7301 0.8564
13.8730 -41.6817 7.7460 0.8366
14.6491 -39.2758 7.3914 0.8434
15.1754 -36.6367 6.9923 0.8512
15.4046 -33.7314 6.5386 0.8602
16.8191 -33.6003 6.6254 0.8585
18.7483 -34.3350 6.8979 0.8531
22.5349 -35.0650 7.3497 0.8443
24.6571 -35.5130 7.6232 0.8390
29.0401 -36.0366 8.1607 0.8286
-36.0061 -23.1397 6.5568 0.8410
-31.9772 -23.9378 6.1193 0.8507
-30.1561 -24.3013 5.9331 0.8549
-28.5685 -24.7548 5.7910 0.8582
-26.8172 -24.9677 5.6132 0.8622
-26.0883 -26.0883 5.6520 0.8613
-23.8583 -29.6064 5.8249 0.8574
-23.5422 -33.9073 6.3237 0.8462
-0.8980 -12.5562 1.9284 0.9503
1.0305 -14.4088 2.2130 0.9432
13.8735 -41.6830 6.7300 0.8371
15.1751 -36.6358 6.0748 0.8517
22.5345 -35.0644 6.3853 0.8448
24.6581 -35.5143 6.6234 0.8395
31.9894 -36.9177 7.4834 0.8206
-43.3149 -21.6819 6.3077 0.8225
-40.6732 -22.2093 6.0347 0.8295
-33.9270 -23.5559 5.3785 0.8465
-29.6111 -25.6582 5.1022 0.8538
-26.0890 -26.0890 4.8045 0.8617
-23.8591 -29.6073 4.9515 0.8578
-23.5430 -33.9084 5.3755 0.8466
-24.3310 -37.8599 5.8605 0.8340
-0.8980 -12.5557 1.6392 0.9505
1.0298 -14.3981 1.8797 0.9434
13.3304 -45.3993 6.1615 0.8262
14.6484 -39.2738 5.4584 0.8444
15.1747 -36.6349 5.1637 0.8522
18.7496 -34.3374 5.0946 0.8540
22.5341 -35.0637 5.4276 0.8452
24.6590 -35.5157 5.6304 0.8400
29.0426 -36.0396 6.0273 0.8297
-40.7394 -22.2454 4.9844 0.8297
-17.9787 -10.6673 2.2448 0.9193
-37.1394 -23.8681 4.7407 0.8373
-33.9282 -23.5568 4.4353 0.8469
-29.6117 -25.6587 4.2074 0.8542
-26.0897 -26.0897 3.9620 0.8621
-27.7247 -29.7785 4.3690 0.8490
-28.2823 -32.6395 4.6376 0.8405
-23.8598 -29.6082 4.0832 0.8582
-22.8753 -30.5579 4.0989 0.8576
-24.3319 -37.8612 4.8328 0.8344
1.0290 -14.3874 1.5489 0.9436
13.3308 -45.4007 5.0810 0.8267
14.6480 -39.2728 4.5010 0.8448
15.1743 -36.6340 4.2579 0.8526
20.3564 -34.3088 4.2838 0.8517
22.5337 -35.0631 4.4756 0.8456
29.0438 -36.0411 4.9704 0.8301
-17.9820 -10.6692 1.7700 0.9195
-37.1401 -23.8685 3.7373 0.8376
-30.1592 -24.3039 3.2789 0.8560
-28.3015 -32.6617 3.6585 0.8407
-13.8459 -18.4960 1.9558 0.9114
13.8747 -41.6869 3.7192 0.8383
14.4833 -38.8312 3.5084 0.8467
18.5964 -34.0567 3.2848 0.8558
20.3571 -34.3100 3.3772 0.8520
22.3707 -34.8094 3.5028 0.8470
24.4576 -35.2256 3.6302 0.8419
29.0450 -36.0426 3.9185 0.8304
-37.1407 -23.8689 2.7377 0.8378
-33.9307 -23.5586 2.5615 0.8474
-33.4506 -25.0408 2.5911 0.8458
-29.6129 -25.6598 2.4298 0.8547
-27.7265 -29.7804 2.5232 0.8495
-23.8612 -29.6100 2.3581 0.8586
-23.5453 -33.9117 2.5600 0.8475
-24.3336 -37.8639 2.7910 0.8350
-15.9910 -29.2854 2.0691 0.8748
5.6952 -22.3137 1.4280 0.9118
13.2364 -45.0792 2.9134 0.8284
14.6473 -39.2709 2.5991 0.8454
15.1736 -36.6324 2.4587 0.8531
15.4029 -33.7276 2.2992 0.8619
16.8219 -33.6060 2.3304 0.8602
18.7516 -34.3410 2.4263 0.8549
20.3578 -34.3112 2.4740 0.8522
22.5328 -35.0618 2.5845 0.8462
11.1859 -14.9426 1.1575 0.9279
29.0462 -36.0441 2.8705 0.8307
31.7307 -36.6191 3.0046 0.8235
21.2190 -18.3864 1.7410 0.8936
-40.7414 -22.2465 1.8304 0.8304
-37.1414 -23.8693 1.7409 0.8380
-33.4512 -25.0413 1.6477 0.8460
-30.1613 -24.3055 1.5274 0.8564
-26.8216 -24.9718 1.4450 0.8636
-27.7272 -29.7812 1.6045 0.8497
-23.8619 -29.6109 1.4995 0.8588
-23.5460 -33.9128 1.6279 0.8477
-17.8939 -39.1822 1.6985 0.8416
-12.3437 -48.3620 1.9681 0.8189
-0.8978 -12.5524 0.4962 0.9509
1.0268 -14.3559 0.5675 0.9440
15.4026 -33.7269 1.4620 0.8621
10.0183 -15.5887 0.7307 0.9285
13.4807 -16.7286 0.8471 0.9176
31.9963 -36.9257 1.9266 0.8223
21.1859 -18.3577 1.1054 0.8938
-33.9332 -23.5603 0.6978 0.8477
-26.8225 -24.9726 0.6190 0.8636
-26.0924 -26.0924 0.6233 0.8628
-27.4875 -29.5237 0.6814 0.8510
-23.4185 -27.0264 0.6041 0.8667
-23.5468 -33.9139 0.6974 0.8477
-24.3353 -37.8665 0.7603 0.8352
-15.9920 -29.2872 0.5636 0.8750
-0.8977 -12.5513 0.2126 0.9509
14.0557 -42.2307 0.7518 0.8369
14.5521 -31.8647 0.5917 0.8692
16.8231 -33.6082 0.6349 0.8604
18.7529 -34.3434 0.6610 0.8551
10.0184 -15.5889 0.3130 0.9285
11.6855 -15.6100 0.3294 0.9250
29.3848 -36.4643 0.7911 0.8292
-42.4377 -6.1016 -0.2414 0.8424
-17.9950 -10.6769 -0.1178 0.9197
-33.8982 -23.5360 -0.2323 0.8478
-22.8787 -30.5624 -0.2149 0.8584
-15.9925 -29.2881 -0.1880 0.8750
-12.3443 -48.3646 -0.2810 0.8190
-0.8976 -12.5503 -0.0708 0.9509
1.0253 -14.3350 -0.0809 0.9441
11.7189 -45.9142 -0.2668 0.8273
12.6721 -43.1573 -0.2532 0.8353
14.0554 -42.2296 -0.2506 0.8369
14.6462 -39.2680 -0.2360 0.8457
15.1726 -36.6298 -0.2232 0.8533
14.4842 -31.7159 -0.1963 0.8698
16.8236 -33.6094 -0.2116 0.8604
11.0492 -15.9138 -0.1091 0.9254
30.5260 -35.2288 -0.2624 0.8299
33.0108 -35.4562 -0.2727 0.8238
-42.3794 -6.0933 -1.2056 0.8425
-44.6921 -22.3713 -1.4073 0.8187
-17.9982 -10.6789 -0.5893 0.9197
-37.1434 -23.8706 -1.2432 0.8380
-33.4532 -25.0427 -1.1767 0.8460
-29.7737 -23.9932 -1.0767 0.8581
-29.6154 -25.6619 -1.1034 0.8549
-26.8242 -24.9743 -1.0320 0.8636
-23.8640 -29.6135 -1.0709 0.8588
-22.8794 -30.5634 -1.0750 0.8583
-3.5145 -32.6899 -0.9258 0.8767
-0.8975 -12.5492 -0.3543 0.9509
14.0550 -42.2285 -1.2532 0.8369
14.6459 -39.2671 -1.1801 0.8456
14.4692 -31.6832 -0.9808 0.8699
18.7542 -34.3457 -1.1019 0.8551
20.3607 -34.3161 -1.1236 0.8524
22.5312 -35.0592 -1.1735 0.8464
11.0493 -15.9140 -0.5455 0.9254
11.6618 -15.5784 -0.5479 0.9251
30.5255 -35.2282 -1.3125 0.8298
33.0124 -35.4578 -1.3642 0.8238
-48.5694 -0.0000 -2.4632 0.8232
-48.5038 -1.7323 -2.4614 0.8233
-41.2992 -5.9380 -2.1160 0.8461
-29.2817 -7.4737 -1.5326 0.8860
-43.3286 -14.4212 -2.3159 0.8329
-42.8638 -15.9874 -2.3201 0.8326
-40.4357 -22.0796 -2.3365 0.8315
-18.0015 -10.6808 -1.0615 0.9196
-33.9370 -23.5629 -2.0953 0.8475
-29.7743 -23.9937 -1.9393 0.8580
-26.8251 -24.9751 -1.8587 0.8635
-26.0944 -26.0944 -1.8715 0.8626
-23.8647 -29.6144 -1.9288 0.8587
-22.8801 -30.5643 -1.9362 0.8582
-23.5491 -33.9172 -2.0940 0.8476
-24.0086 -40.4644 -2.3861 0.8282
-21.1012 -42.1549 -2.3907 0.8279
-18.0710 -43.6271 -2.3948 0.8277
-16.5145 -44.2771 -2.3966 0.8276
-7.3496 -28.7953 -1.5071 0.8878
-4.3119 -29.9900 -1.5366 0.8857
-3.2290 -30.0345 -1.5320 0.8860
1.0238 -14.3142 -0.7278 0.9441
6.7490 -46.9401 -2.4050 0.8270
8.4178 -46.6568 -2.4044 0.8271
11.7162 -45.9036 -2.4026 0.8272
12.6729 -43.1599 -2.2812 0.8351
14.9014 -35.9751 -1.9748 0.8556
14.3723 -31.4708 -1.7546 0.8706
18.7238 -34.2900 -1.9814 0.8552
22.4921 -34.9984 -2.1098 0.8465
11.6620 -15.5786 -0.9869 0.9250
29.4385 -36.5308 -2.3793 0.8287
21.0545 -18.2438 -1.4129 0.8944
38.1238 -26.4698 -2.3537 0.8304
45.1010 -20.5969 -2.5145 0.8199
45.8671 -18.9988 -2.5178 0.8197
47.7612 -14.0240 -2.5244 0.8192
46.9877 -1.6782 -2.3845 0.8284
-33.6340 -2.4056 -2.4724 0.8735
-33.5111 -3.6028 -2.4713 0.8736
-33.3462 -4.7945 -2.4702 0.8736
-32.6213 -5.8855 -2.4305 0.8755
-30.8900 -6.7197 -2.3179 0.8809
-29.5752 -11.0310 -2.3144 0.8811
-29.1531 -12.0756 -2.3137 0.8811
-19.6283 -8.9640 -1.5822 0.9171
-27.7612 -15.1588 -2.3192 0.8809
-17.1081 -14.8243 -1.6598 0.9132
-23.3268 -21.7180 -2.3369 0.8800
-22.5584 -22.5584 -2.3392 0.8799
-21.7594 -23.3712 -2.3414 0.8798
-20.9305 -24.1551 -2.3435 0.8797
-19.1865 -25.6303 -2.3475 0.8795
-18.2743 -26.3200 -2.3494 0.8794
-13.3565 -29.2468 -2.3575 0.8790
-12.3112 -29.7218 -2.3588 0.8789
-10.1696 -30.5549 -2.3612 0.8788
-7.3496 -28.7954 -2.1790 0.8876
-6.0778 -27.9393 -2.0965 0.8917
-2.7365 -25.4529 -1.8770 0.9024
-1.0127 -28.3561 -2.0805 0.8924
1.1520 -32.2556 -2.3666 0.8786
1.0230 -14.3038 -1.0515 0.9441
3.4497 -32.0871 -2.3663 0.8786
4.5922 -31.9393 -2.3659 0.8786
6.8562 -31.5174 -2.3650 0.8787
10.1763 -30.5749 -2.3627 0.8788
14.3967 -28.7610 -2.3583 0.8790
15.4051 -28.2124 -2.3569 0.8790
13.1706 -20.4938 -1.7862 0.9069
11.0437 -15.9060 -1.4198 0.9253
20.0994 -24.9418 -2.3487 0.8794
22.6003 -22.6004 -2.3435 0.8797
20.2326 -17.5316 -1.9629 0.8982
21.8447 -17.6036 -2.0570 0.8936
25.6515 -19.2025 -2.3494 0.8794
26.3372 -18.2863 -2.3509 0.8793
27.1099 -17.4225 -2.3629 0.8788
29.3900 -17.4379 -2.5057 0.8719
30.0212 -16.3928 -2.5080 0.8718
30.6064 -15.3205 -2.5096 0.8717
31.6607 -13.1143 -2.5127 0.8716
32.5554 -10.8355 -2.5158 0.8714
32.9412 -9.6724 -2.5173 0.8714
33.5869 -7.3064 -2.5203 0.8712
34.0614 -4.8973 -2.5231 0.8711
34.3617 -2.4576 -2.5259 0.8710
34.4458 -1.2302 -2.5273 0.8709
-25.8430 -0.0000 -2.4811 0.9014
-25.8167 -0.9221 -2.4801 0.9014
-25.7579 -1.8423 -2.4792 0.9014
-25.6666 -2.7595 -2.4783 0.9015
-25.5430 -3.6725 -2.4775 0.9015
-25.3872 -4.5804 -2.4766 0.9015
-23.1227 -7.6960 -2.3396 0.9067
-22.6668 -8.4543 -2.3226 0.9074
-19.6292 -8.9644 -2.0717 0.9169
-21.6180 -10.8212 -2.3209 0.9074
-17.1086 -10.9950 -1.9525 0.9215
-15.2296 -18.8989 -2.3302 0.9071
-8.7877 -11.7390 -1.4078 0.9428
-10.1218 -22.1638 -2.3392 0.9067
-9.3284 -22.5207 -2.3402 0.9067
-8.5219 -22.8482 -2.3411 0.9067
-5.6390 -16.9425 -1.7143 0.9308
-4.9486 -16.8534 -1.6863 0.9319
-6.0369 -23.6522 -2.3435 0.9066
-5.1902 -23.8592 -2.3442 0.9065
-4.3364 -24.0350 -2.3447 0.9065
-2.6116 -24.2915 -2.3455 0.9065
0.0000 -24.4379 -2.3462 0.9065
0.6523 -18.2628 -1.7544 0.9292
1.0223 -14.2934 -1.3757 0.9440
3.4772 -24.1847 -2.3457 0.9065
5.1921 -23.8677 -2.3450 0.9065
6.8785 -23.4261 -2.3440 0.9065
7.7081 -23.1593 -2.3433 0.9066
7.1893 -19.2752 -1.9750 0.9207
9.3346 -22.5357 -2.3418 0.9066
10.9100 -21.7953 -2.3400 0.9067
11.6577 -15.5728 -1.8676 0.9248
15.3037 -18.9907 -2.3415 0.9066
16.6352 -17.8674 -2.3437 0.9066
17.2706 -17.2705 -2.3448 0.9065
18.4764 -16.0099 -2.3471 0.9064
20.8597 -15.6154 -2.5016 0.9006
22.4419 -13.3154 -2.5052 0.9005
22.9139 -12.5119 -2.5064 0.9004
24.5078 -9.1409 -2.5112 0.9002
24.8300 -8.2642 -2.5124 0.9002
25.1206 -7.3761 -2.5135 0.9001
25.3794 -6.4777 -2.5147 0.9001
25.7996 -4.6548 -2.5169 0.9000
25.9605 -3.7326 -2.5180 0.9000
26.0882 -2.8048 -2.5190 0.8999
26.1826 -1.8726 -2.5201 0.8999
26.2433 -0.9373 -2.5211 0.8999
-20.9194 -0.0000 -2.4849 0.9192
-20.8997 -0.7465 -2.4842 0.9192
-20.7810 -2.2342 -2.4827 0.9193
-20.6823 -2.9737 -2.4820 0.9193
-20.5574 -3.7090 -2.4814 0.9193
-20.4067 -4.4392 -2.4807 0.9193
-20.2302 -5.1635 -2.4801 0.9193
-20.0283 -5.8808 -2.4795 0.9194
-19.5491 -7.2915 -2.4784 0.9194
-18.6580 -8.5208 -2.4365 0.9207
-16.4675 -10.5830 -2.3252 0.9242
-16.0772 -11.1626 -2.3249 0.9242
-15.6668 -11.7280 -2.3247 0.9242
-15.2367 -12.2785 -2.3244 0.9242
-14.7874 -12.8134 -2.3242 0.9242
-13.8338 -13.8338 -2.3239 0.9242
-13.3306 -14.3181 -2.3238 0.9242
-12.8107 -14.7843 -2.3237 0.9242
-8.6302 -11.5286 -1.7106 0.9436
-11.1567 -16.0688 -2.3237 0.9242
-9.9886 -16.8350 -2.3253 0.9242
-9.3854 -17.1880 -2.3262 0.9241
-8.7694 -17.5191 -2.3272 0.9241
-6.8537 -18.3754 -2.3296 0.9240
-6.1953 -18.6139 -2.3303 0.9240
-5.0349 -17.1474 -2.1229 0.9305
-4.8541 -19.0183 -2.3315 0.9240
-3.4865 -19.3242 -2.3325 0.9240
-2.0996 -19.5293 -2.3332 0.9239
-0.7012 -19.6327 -2.3336 0.9239
0.7012 -19.6337 -2.3337 0.9239
3.4874 -19.3293 -2.3331 0.9239
4.8577 -19.0322 -2.3332 0.9239
5.5356 -18.8526 -2.3340 0.9239
6.8709 -18.4214 -2.3355 0.9239
7.5265 -18.1705 -2.3362 0.9238
8.1730 -17.8964 -2.3370 0.9238
8.8096 -17.5994 -2.3378 0.9238
10.0498 -16.9381 -2.3395 0.9237
12.9217 -14.9124 -2.3439 0.9236
13.7225 -14.7390 -2.3921 0.9221
15.3952 -14.3334 -2.4986 0.9188
15.9032 -13.7802 -2.4996 0.9187
16.3913 -13.2089 -2.5006 0.9187
16.8589 -12.6204 -2.5016 0.9187
17.7302 -11.3945 -2.5035 0.9186
18.1326 -10.7586 -2.5045 0.9186
18.5123 -10.1085 -2.5055 0.9185
19.2011 -8.7688 -2.5074 0.9185
19.5093 -8.0810 -2.5084 0.9185
19.7928 -7.3823 -2.5093 0.9184
20.0511 -6.6737 -2.5103 0.9184
20.2841 -5.9559 -2.5112 0.9184
20.4912 -5.2301 -2.5121 0.9183
20.8270 -3.7576 -2.5139 0.9183
20.9551 -3.0129 -2.5148 0.9183
21.0565 -2.2638 -2.5156 0.9182
21.1310 -1.5113 -2.5165 0.9182
21.1784 -0.7564 -2.5173 0.9182
-16.9835 -4.3348 -2.4835 0.9316
-16.8146 -4.9372 -2.4830 0.9317
-16.6245 -5.5332 -2.4826 0.9317
-16.1818 -6.7027 -2.4817 0.9317
-15.9297 -7.2748 -2.4813 0.9317
-15.6575 -7.8376 -2.4809 0.9317
-15.3657 -8.3903 -2.4806 0.9317
-15.0363 -8.9215 -2.4773 0.9318
-13.6547 -9.4807 -2.3553 0.9350
-12.7955 -10.3113 -2.3284 0.9358
-12.4185 -10.7607 -2.3282 0.9358
-12.0257 -11.1964 -2.3281 0.9358
-11.6179 -11.6179 -2.3280 0.9358
-11.1953 -12.0247 -2.3279 0.9358
-10.7587 -12.4163 -2.3278 0.9358
-10.3085 -12.7921 -2.3278 0.9358
-8.6310 -11.5296 -2.0407 0.9435
-7.3549 -14.6933 -2.3281 0.9358
-6.8262 -14.9474 -2.3283 0.9358
-6.2889 -15.1827 -2.3285 0.9358
-5.1907 -15.5955 -2.3289 0.9358
-4.6313 -15.7726 -2.3292 0.9357
-4.0658 -15.9298 -2.3294 0.9357
-3.4951 -16.0669 -2.3297 0.9357
-0.8926 -12.4796 -1.7727 0.9507
-0.5874 -16.4455 -2.3316 0.9357
0.0000 -14.7842 -2.0948 0.9420
0.4793 -13.4204 -1.9027 0.9472
0.9652 -13.4950 -1.9170 0.9468
3.5033 -16.1046 -2.3352 0.9356
5.2088 -15.6500 -2.3370 0.9355
5.7657 -15.4583 -2.3377 0.9355
6.8576 -15.0161 -2.3390 0.9355
7.3914 -14.7661 -2.3397 0.9355
7.9160 -14.4971 -2.3404 0.9354
11.5390 -13.3167 -2.4966 0.9313
12.4677 -12.4677 -2.4983 0.9312
12.9089 -12.0186 -2.4991 0.9312
13.3341 -11.5540 -2.4999 0.9312
13.7425 -11.0744 -2.5007 0.9312
14.5070 -10.0724 -2.5024 0.9311
15.5158 -8.4723 -2.5048 0.9311
16.0911 -7.3485 -2.5064 0.9310
16.5849 -6.1858 -2.5080 0.9310
17.7368 -0.6335 -2.5147 0.9308
-15.1118 -0.0000 -2.4895 0.9406
-15.0988 -0.5393 -2.4890 0.9406
-15.0155 -1.6144 -2.4879 0.9406
-14.8562 -2.6804 -2.4869 0.9406
-14.4768 -4.2508 -2.4856 0.9407
-14.1322 -5.2711 -2.4848 0.9407
-13.7163 -6.2640 -2.4841 0.9407
-13.4822 -6.7487 -2.4838 0.9407
-12.9634 -7.6916 -2.4832 0.9407
-11.7262 -9.4495 -2.4809 0.9408
-9.2652 -10.6926 -2.3308 0.9443
-8.4787 -11.3262 -2.3308 0.9443
-8.0690 -11.6216 -2.3308 0.9443
-7.6492 -11.9024 -2.3308 0.9443
-7.2197 -12.1682 -2.3309 0.9443
-6.7811 -12.4186 -2.3310 0.9443
-5.8785 -12.8720 -2.3312 0.9442
-4.9459 -13.2604 -2.3315 0.9442
-4.4698 -13.4297 -2.3317 0.9442
-3.9880 -13.5820 -2.3319 0.9442
-3.0096 -13.8349 -2.3324 0.9442
-1.5141 -14.0829 -2.3334 0.9442
-0.8905 -12.4512 -2.0564 0.9507
-0.5057 -14.1593 -2.3341 0.9442
0.0000 -14.1707 -2.3345 0.9442
0.4760 -13.3264 -2.1968 0.9474
1.4529 -13.5140 -2.2391 0.9464
3.5093 -13.7494 -2.3377 0.9441
3.9987 -13.6184 -2.3382 0.9441
4.4833 -13.4701 -2.3387 0.9441
4.9624 -13.3046 -2.3393 0.9441
5.4354 -13.1221 -2.3398 0.9440
6.6654 -13.3159 -2.4531 0.9414
7.2393 -13.2578 -2.4885 0.9406
9.5093 -11.8003 -2.4966 0.9404
9.9271 -11.4565 -2.4973 0.9404
10.3326 -11.0980 -2.4980 0.9404
10.7251 -10.7251 -2.4987 0.9404
11.1042 -10.3384 -2.4994 0.9403
11.4694 -9.9383 -2.5001 0.9403
12.1560 -9.0998 -2.5015 0.9403
13.0701 -7.7549 -2.5036 0.9402
13.5976 -6.8065 -2.5050 0.9402
14.0563 -5.8223 -2.5064 0.9402
14.2591 -5.3184 -2.5071 0.9402
14.4437 -4.8073 -2.5078 0.9402
14.8866 -3.2384 -2.5098 0.9401
15.0873 -2.1692 -2.5110 0.9401
15.1588 -1.6297 -2.5116 0.9401
15.2437 -0.5444 -2.5128 0.9400
-13.2416 -0.4729 -2.4905 0.9475
-13.2138 -0.9451 -2.4900 0.9475
-13.1692 -1.4158 -2.4896 0.9475
-13.1080 -1.8847 -2.4891 0.9475
-12.9358 -2.8140 -2.4883 0.9475
-12.6982 -3.7285 -2.4875 0.9476
-11.3721 -6.7474 -2.4854 0.9476
-10.8599 -7.5402 -2.4850 0.9476
-10.2929 -8.2946 -2.4847 0.9476
-9.6740 -9.0068 -2.4844 0.9476
-9.0062 -9.6734 -2.4843 0.9476
-8.6527 -9.9857 -2.4835 0.9476
-6.4315 -10.8398 -2.3691 0.9500
-5.9685 -10.9305 -2.3408 0.9506
-4.7510 -11.4700 -2.3335 0.9507
-4.3389 -11.6330 -2.3337 0.9507
-3.4985 -11.9148 -2.3341 0.9507
-2.6401 -12.1363 -2.3345 0.9507
-2.2055 -12.2241 -2.3348 0.9507
-1.7680 -12.2965 -2.3350 0.9507
-1.3281 -12.3533 -2.3353 0.9507
0.0000 -12.4296 -2.3363 0.9507
0.8870 -12.4018 -2.3370 0.9507
3.7235 -12.6812 -2.4842 0.9476
4.1805 -12.5605 -2.4882 0.9475
5.0750 -12.2521 -2.4927 0.9475
6.3598 -11.6471 -2.4943 0.9474
7.1778 -11.1688 -2.4954 0.9474
7.5736 -10.9081 -2.4960 0.9474
7.9600 -10.6333 -2.4966 0.9474
8.3364 -10.3449 -2.4972 0.9474
10.3601 -8.3487 -2.5009 0.9473
10.9347 -7.5921 -2.5021 0.9473
11.2015 -7.1987 -2.5027 0.9472
11.4541 -6.7960 -2.5034 0.9472
11.6922 -6.3845 -2.5040 0.9472
11.9156 -5.9645 -2.5046 0.9472
12.1238 -5.5368 -2.5052 0.9472
12.4939 -4.6600 -2.5064 0.9472
12.6553 -4.2121 -2.5070 0.9472
12.8005 -3.7586 -2.5076 0.9471
13.0420 -2.8371 -2.5087 0.9471
13.2793 -1.4277 -2.5104 0.9471
13.3246 -0.9530 -2.5109 0.9471
-11.7898 -0.0000 -2.4921 0.9529
-11.7557 -0.8408 -2.4913 0.9530
-11.7163 -1.2596 -2.4909 0.9530
-11.6621 -1.6768 -2.4905 0.9530
-11.5930 -2.0916 -2.4901 0.9530
-11.2983 -3.3175 -2.4891 0.9530
-11.1713 -3.7182 -2.4887 0.9530
-10.8750 -4.5046 -2.4882 0.9530
-10.1193 -6.0041 -2.4872 0.9530
-9.1594 -7.3811 -2.4865 0.9530
-8.8896 -7.7029 -2.4864 0.9530
-8.0145 -8.6082 -2.4861 0.9531
-6.0016 -10.1151 -2.4862 0.9531
-5.6369 -10.3232 -2.4862 0.9531
-4.4975 -10.8579 -2.4842 0.9531
-3.3075 -11.2645 -2.4816 0.9531
-2.9029 -11.3736 -2.4812 0.9531
-2.0842 -11.5517 -2.4812 0.9531
0.4200 -11.7597 -2.4873 0.9530
1.2593 -11.7133 -2.4902 0.9530
1.6768 -11.6626 -2.4906 0.9530
2.0924 -11.5972 -2.4910 0.9530
2.5054 -11.5170 -2.4914 0.9530
3.3217 -11.3128 -2.4923 0.9529
4.5145 -10.8989 -2.4936 0.9529
4.9015 -10.7329 -2.4941 0.9529
5.2825 -10.5532 -2.4946 0.9529
6.0243 -10.1535 -2.4956 0.9529
6.3842 -9.9340 -2.4961 0.9529
7.7395 -8.9319 -2.4982 0.9528
8.9397 -7.7463 -2.5004 0.9528
9.4737 -7.0919 -2.5015 0.9528
9.7229 -6.7507 -2.5020 0.9528
9.9599 -6.4008 -2.5026 0.9527
10.3957 -5.6765 -2.5037 0.9527
10.5939 -5.3029 -2.5042 0.9527
11.1072 -4.1428 -2.5058 0.9527
11.2504 -3.7445 -2.5064 0.9527
11.3792 -3.3413 -2.5069 0.9527
11.4936 -2.9336 -2.5074 0.9527
11.6783 -2.1070 -2.5084 0.9526
11.7483 -1.6892 -2.5089 0.9526
11.8682 -0.4239 -2.5103 0.9526
-10.5993 -0.3786 -2.4927 0.9574
-10.5421 -1.1334 -2.4919 0.9574
-10.4315 -1.8821 -2.4912 0.9574
-10.3563 -2.2529 -2.4909 0.9574
-10.2680 -2.6208 -2.4906 0.9574
-10.1667 -2.9852 -2.4903 0.9574
-10.0526 -3.3458 -2.4900 0.9574
-9.9257 -3.7021 -2.4897 0.9574
-9.4703 -4.7405 -2.4890 0.9574
-8.6967 -6.0382 -2.4883 0.9574
-8.4751 -6.3444 -2.4881 0.9574
-8.2429 -6.6425 -2.4880 0.9574
-8.0002 -6.9322 -2.4879 0.9574
-6.9314 -7.9993 -2.4876 0.9574
-6.6414 -8.2415 -2.4876 0.9574
-6.3430 -8.4733 -2.4876 0.9574
-5.7225 -8.9044 -2.4876 0.9574
-5.4011 -9.1031 -2.4877 0.9574
-5.0729 -9.2904 -2.4877 0.9574
-4.3975 -9.6293 -2.4879 0.9574
-4.0512 -9.7805 -2.4880 0.9574
-3.6998 -9.9194 -2.4882 0.9574
-2.9831 -10.1594 -2.4885 0.9574
-1.8804 -10.4225 -2.4891 0.9574
-1.5074 -10.4840 -2.4893 0.9574
-1.1323 -10.5321 -2.4896 0.9574
-0.7558 -10.5669 -2.4898 0.9574
-0.3782 -10.5884 -2.4901 0.9574
0.0000 -10.5964 -2.4904 0.9574
2.9887 -10.1785 -2.4932 0.9573
3.3506 -10.0670 -2.4936 0.9573
3.7084 -9.9426 -2.4940 0.9573
4.0616 -9.8056 -2.4944 0.9573
4.4098 -9.6560 -2.4948 0.9573
4.7524 -9.4941 -2.4953 0.9573
5.0892 -9.3201 -2.4957 0.9573
5.4196 -9.1342 -2.4962 0.9573
5.7432 -8.9366 -2.4966 0.9573
6.3685 -8.5073 -2.4976 0.9573
6.6693 -8.2762 -2.4981 0.9573
6.9618 -8.0344 -2.4985 0.9573
7.5202 -7.5202 -2.4995 0.9572
7.7853 -7.2484 -2.5000 0.9572
8.0407 -6.9673 -2.5005 0.9572
8.5206 -6.3784 -2.5015 0.9572
8.7446 -6.0715 -2.5020 0.9572
9.1590 -5.4343 -2.5030 0.9572
9.3490 -5.1049 -2.5035 0.9572
9.6931 -4.4267 -2.5044 0.9572
9.8469 -4.0787 -2.5049 0.9572
9.9881 -3.7254 -2.5054 0.9571
10.3349 -2.6378 -2.5068 0.9571
10.4243 -2.2677 -2.5073 0.9571
10.5005 -1.8945 -2.5077 0.9571
10.5633 -1.5188 -2.5081 0.9571
10.6483 -0.7616 -2.5090 0.9571
10.6705 -0.3811 -2.5094 0.9571
-9.6045 -0.6869 -2.4931 0.9610
-9.4042 -2.0458 -2.4919 0.9610
-9.2323 -2.7108 -2.4913 0.9610
-9.1287 -3.0383 -2.4911 0.9610
-9.0135 -3.3619 -2.4908 0.9610
-8.6003 -4.3050 -2.4902 0.9610
-8.4405 -4.6089 -2.4900 0.9610
-8.2700 -4.9068 -2.4898 0.9610
-8.0891 -5.1985 -2.4896 0.9610
-7.6968 -5.7617 -2.4894 0.9611
-7.0359 -6.5507 -2.4891 0.9611
-6.5503 -7.0356 -2.4889 0.9611
-6.0316 -7.4848 -2.4889 0.9611
-5.4823 -7.8960 -2.4889 0.9611
-4.9052 -8.2672 -2.4889 0.9611
-3.9937 -8.7450 -2.4892 0.9611
-3.6792 -8.8823 -2.4893 0.9611
-3.3600 -9.0084 -2.4894 0.9611
-3.0365 -9.1231 -2.4895 0.9611
-2.3782 -9.3176 -2.4898 0.9610
-1.7077 -9.4650 -2.4902 0.9610
-1.3689 -9.5207 -2.4904 0.9610
-1.0283 -9.5643 -2.4906 0.9610
0.0000 -9.6223 -2.4914 0.9610
0.3435 -9.6173 -2.4917 0.9610
0.6866 -9.6000 -2.4920 0.9610
2.0469 -9.4094 -2.4932 0.9610
2.7137 -9.2420 -2.4939 0.9610
3.0423 -9.1406 -2.4943 0.9610
4.3148 -8.6199 -2.4958 0.9610
4.6205 -8.4618 -2.4962 0.9609
5.5013 -7.9234 -2.4975 0.9609
5.7816 -7.7233 -2.4979 0.9609
6.3200 -7.2937 -2.4988 0.9609
7.2989 -6.3245 -2.5006 0.9609
7.7342 -5.7898 -2.5015 0.9609
8.1305 -5.2252 -2.5024 0.9609
8.3133 -4.9325 -2.5028 0.9608
8.4856 -4.6335 -2.5033 0.9608
8.6471 -4.3284 -2.5037 0.9608
8.9370 -3.7018 -2.5046 0.9608
9.0650 -3.3811 -2.5050 0.9608
9.4602 -2.0579 -2.5067 0.9608
9.5860 -1.3783 -2.5075 0.9608
9.6629 -0.6911 -2.5083 0.9608
-8.6662 -1.5635 -2.4930 0.9641
-8.5308 -2.1773 -2.4924 0.9641
-8.3521 -2.7798 -2.4919 0.9641
-8.2468 -3.0759 -2.4917 0.9641
-8.1311 -3.3680 -2.4915 0.9641
-8.0050 -3.6558 -2.4913 0.9641
-7.8688 -3.9389 -2.4911 0.9641
-7.5668 -4.4896 -2.4908 0.9641
-7.4013 -4.7565 -2.4906 0.9641
-7.0424 -5.2719 -2.4904 0.9641
-6.8494 -5.5196 -2.4903 0.9641
-6.6478 -5.7604 -2.4902 0.9641
-5.9935 -6.4375 -2.4900 0.9641
-5.7598 -6.6472 -2.4900 0.9641
-5.5189 -6.8485 -2.4899 0.9641
-5.2709 -7.0411 -2.4899 0.9641
-5.0163 -7.2248 -2.4899 0.9641
-4.7552 -7.3993 -2.4900 0.9641
-4.4882 -7.5644 -2.4900 0.9641
-4.2154 -7.7200 -2.4901 0.9641
-3.0743 -8.2425 -2.4904 0.9641
-2.7783 -8.3474 -2.4905 0.9641
-2.4787 -8.4417 -2.4907 0.9641
-2.1760 -8.5253 -2.4908 0.9641
-1.8704 -8.5981 -2.4910 0.9641
-1.5624 -8.6600 -2.4912 0.9641
-1.2524 -8.7109 -2.4914 0.9641
-0.3142 -8.7972 -2.4920 0.9641
0.0000 -8.8036 -2.4923 0.9641
0.6282 -8.7830 -2.4928 0.9641
0.9414 -8.7560 -2.4930 0.9641
1.5640 -8.6685 -2.4936 0.9640
2.1789 -8.5370 -2.4942 0.9640
3.6626 -8.0200 -2.4959 0.9640
3.9471 -7.8853 -2.4963 0.9640
4.2266 -7.7405 -2.4967 0.9640
4.5009 -7.5859 -2.4971 0.9640
5.0322 -7.2477 -2.4978 0.9640
5.2885 -7.0646 -2.4982 0.9640
6.2440 -6.2440 -2.4998 0.9640
6.4640 -6.0182 -2.5002 0.9640
6.6758 -5.7846 -2.5006 0.9639
6.8791 -5.5435 -2.5011 0.9639
7.6030 -4.5111 -2.5027 0.9639
7.7604 -4.2375 -2.5031 0.9639
8.3962 -2.7945 -2.5051 0.9639
8.4919 -2.4934 -2.5055 0.9639
8.6508 -1.8819 -2.5063 0.9639
8.7656 -1.2603 -2.5070 0.9639
8.8062 -0.9468 -2.5074 0.9638
8.8357 -0.6319 -2.5077 0.9638
8.8538 -0.3162 -2.5080 0.9638
-8.1118 -0.0000 -2.4950 0.9666
-8.0892 -0.5786 -2.4944 0.9666
-7.9785 -1.4395 -2.4936 0.9666
-7.9212 -1.7232 -2.4934 0.9666
-7.8539 -2.0046 -2.4931 0.9666
-7.5926 -2.8319 -2.4925 0.9667
-7.4861 -3.1009 -2.4923 0.9667
-7.3701 -3.3658 -2.4921 0.9667
-7.2448 -3.6265 -2.4919 0.9667
-6.9668 -4.1336 -2.4916 0.9667
-6.6534 -4.6196 -2.4914 0.9667
-6.1208 -5.3037 -2.4911 0.9667
-5.9274 -5.5186 -2.4910 0.9667
-5.7265 -5.7265 -2.4909 0.9667
-4.8531 -6.4830 -2.4908 0.9667
-4.6186 -6.6521 -2.4908 0.9667
-4.3783 -6.8128 -2.4909 0.9667
-4.1324 -6.9648 -2.4909 0.9667
-3.6252 -7.2422 -2.4910 0.9667
-3.3645 -7.3672 -2.4911 0.9667
-3.0995 -7.4828 -2.4912 0.9667
-2.8305 -7.5890 -2.4913 0.9667
-2.5580 -7.6855 -2.4914 0.9667
-2.0034 -7.8493 -2.4917 0.9667
-1.4385 -7.9732 -2.4920 0.9667
-0.8662 -8.0567 -2.4923 0.9667
-0.5781 -8.0831 -2.4925 0.9667
0.0000 -8.1052 -2.4930 0.9666
0.2893 -8.1008 -2.4932 0.9666
0.5783 -8.0861 -2.4935 0.9666
1.1539 -8.0259 -2.4940 0.9666
1.7239 -7.9249 -2.4945 0.9666
2.0059 -7.8592 -2.4948 0.9666
2.2854 -7.7835 -2.4951 0.9666
2.5621 -7.6979 -2.4954 0.9666
2.8356 -7.6025 -2.4957 0.9666
3.1055 -7.4974 -2.4961 0.9666
3.3716 -7.3828 -2.4964 0.9666
4.1432 -6.9829 -2.4974 0.9666
4.3904 -6.8316 -2.4978 0.9666
5.0977 -6.3259 -2.4988 0.9666
5.5376 -5.9478 -2.4996 0.9666
5.7473 -5.7473 -2.5000 0.9666
5.9496 -5.5393 -2.5003 0.9666
6.3316 -5.1023 -2.5011 0.9665
6.5106 -4.8738 -2.5015 0.9665
6.6814 -4.6390 -2.5018 0.9665
6.8438 -4.3982 -2.5022 0.9665
7.1423 -3.9000 -2.5030 0.9665
7.5216 -3.1155 -2.5041 0.9665
7.6291 -2.8455 -2.5045 0.9665
7.7269 -2.5718 -2.5048 0.9665
7.8149 -2.2947 -2.5052 0.9665
7.8929 -2.0146 -2.5055 0.9665
8.1307 -0.5815 -2.5072 0.9665
8.1472 -0.2910 -2.5075 0.9665
-7.5074 -0.0000 -2.4955 0.9689
-7.5018 -0.2679 -2.4952 0.9689
-7.4866 -0.5355 -2.4950 0.9689
-7.3313 -1.5948 -2.4940 0.9689
-7.2691 -1.8553 -2.4937 0.9689
-7.1976 -2.1134 -2.4935 0.9689
-7.1170 -2.3688 -2.4933 0.9689
-6.8216 -3.1153 -2.4928 0.9689
-6.7056 -3.3566 -2.4926 0.9689
-6.5811 -3.5936 -2.4925 0.9689
-6.4483 -3.8260 -2.4923 0.9689
-6.3073 -4.0535 -2.4922 0.9689
-6.1583 -4.2758 -2.4921 0.9689
-5.6654 -4.9091 -2.4918 0.9689
-5.4864 -5.1080 -2.4918 0.9689
-5.3005 -5.3005 -2.4917 0.9689
-5.1078 -5.4862 -2.4917 0.9689
-4.9087 -5.6650 -2.4916 0.9689
-4.7034 -5.8365 -2.4916 0.9689
-4.4920 -6.0007 -2.4916 0.9689
-4.0525 -6.3059 -2.4917 0.9689
-3.8249 -6.4466 -2.4917 0.9689
-3.5925 -6.5791 -2.4917 0.9689
-3.1141 -6.8190 -2.4919 0.9689
-2.3676 -7.1136 -2.4921 0.9689
-1.8543 -7.2651 -2.4924 0.9689
-1.5939 -7.3271 -2.4925 0.9689
-1.3315 -7.3798 -2.4927 0.9689
-1.0673 -7.4231 -2.4928 0.9689
-0.5351 -7.4814 -2.4932 0.9689
0.0000 -7.5017 -2.4936 0.9689
0.2678 -7.4976 -2.4938 0.9689
0.5353 -7.4839 -2.4940 0.9689
1.0680 -7.4281 -2.4945 0.9689
1.3326 -7.3860 -2.4948 0.9689
2.3712 -7.1242 -2.4959 0.9688
2.8741 -6.9386 -2.4965 0.9688
3.1203 -6.8324 -2.4968 0.9688
3.3625 -6.7175 -2.4971 0.9688
3.8342 -6.4622 -2.4977 0.9688
4.0629 -6.3220 -2.4980 0.9688
4.2865 -6.1738 -2.4984 0.9688
4.5048 -6.0177 -2.4987 0.9688
5.3182 -5.3182 -2.5001 0.9688
5.5054 -5.1257 -2.5004 0.9688
5.6857 -4.9267 -2.5008 0.9688
5.8587 -4.7212 -2.5011 0.9688
6.0243 -4.5098 -2.5015 0.9688
7.0586 -2.6327 -2.5042 0.9687
7.1491 -2.3794 -2.5046 0.9687
7.2304 -2.1230 -2.5049 0.9687
7.3025 -1.8639 -2.5052 0.9687
7.3653 -1.6022 -2.5055 0.9687
7.4188 -1.3385 -2.5059 0.9687
7.4627 -1.0730 -2.5062 0.9687
7.4972 -0.8060 -2.5065 0.9687
7.5221 -0.5380 -2.5068 0.9687
7.5374 -0.2692 -2.5071 0.9687
-6.9795 -0.0000 -2.4959 0.9708
-6.9603 -0.4978 -2.4954 0.9708
-6.9374 -0.7458 -2.4952 0.9708
-6.8653 -1.2386 -2.4947 0.9708
-6.8161 -1.4827 -2.4945 0.9708
-6.7583 -1.7250 -2.4943 0.9708
-6.6919 -1.9649 -2.4941 0.9708
-6.6170 -2.2023 -2.4939 0.9708
-6.5337 -2.4369 -2.4937 0.9708
-6.3424 -2.8965 -2.4934 0.9708
-6.2346 -3.1208 -2.4932 0.9708
-6.1189 -3.3411 -2.4931 0.9708
-5.9954 -3.5572 -2.4930 0.9708
-5.8643 -3.7688 -2.4929 0.9708
-5.7258 -3.9755 -2.4928 0.9708
-5.2675 -4.5644 -2.4925 0.9708
-4.7492 -5.1010 -2.4924 0.9708
-4.5640 -5.2672 -2.4923 0.9708
-4.1766 -5.5793 -2.4923 0.9708
-3.9748 -5.7248 -2.4923 0.9708
-3.7680 -5.8631 -2.4923 0.9708
-3.3402 -6.1172 -2.4924 0.9708
-3.1198 -6.2326 -2.4925 0.9708
-2.8955 -6.3402 -2.4925 0.9708
-2.6674 -6.4397 -2.4926 0.9708
-2.4359 -6.5310 -2.4927 0.9708
-1.9640 -6.6887 -2.4929 0.9708
-1.7241 -6.7548 -2.4930 0.9708
-1.4820 -6.8124 -2.4932 0.9708
-0.9923 -6.9016 -2.4934 0.9708
-0.7454 -6.9331 -2.4936 0.9708
-0.4975 -6.9557 -2.4938 0.9708
0.0000 -6.9746 -2.4942 0.9708
0.4976 -6.9579 -2.4946 0.9708
0.7457 -6.9363 -2.4948 0.9708
1.2389 -6.8667 -2.4952 0.9708
1.4833 -6.8188 -2.4955 0.9708
1.9664 -6.6970 -2.4960 0.9708
2.2044 -6.6232 -2.4963 0.9708
2.4397 -6.5410 -2.4965 0.9708
2.6719 -6.4505 -2.4968 0.9708
3.3473 -6.1300 -2.4977 0.9708
3.5643 -6.0074 -2.4980 0.9708
3.9848 -5.7392 -2.4986 0.9708
4.1876 -5.5940 -2.4989 0.9708
4.3852 -5.4417 -2.4992 0.9707
4.9436 -4.9436 -2.5002 0.9707
5.2851 -4.5795 -2.5008 0.9707
5.4459 -4.3886 -2.5011 0.9707
5.5998 -4.1919 -2.5015 0.9707
6.1425 -3.3541 -2.5028 0.9707
6.3678 -2.9081 -2.5034 0.9707
6.4683 -2.6793 -2.5037 0.9707
6.7202 -1.9732 -2.5046 0.9707
6.7872 -1.7323 -2.5049 0.9707
6.9678 -0.7491 -2.5061 0.9707
6.9909 -0.5000 -2.5064 0.9707
-6.5092 -0.2325 -2.4960 0.9725
-6.4749 -0.6961 -2.4956 0.9725
-6.3617 -1.3839 -2.4950 0.9725
-6.2459 -1.8340 -2.4946 0.9725
-6.0128 -2.4906 -2.4941 0.9725
-5.9198 -2.7035 -2.4939 0.9725
-5.8192 -2.9129 -2.4938 0.9725
-5.7112 -3.1186 -2.4937 0.9725
-5.5960 -3.3203 -2.4935 0.9725
-5.4737 -3.5177 -2.4934 0.9725
-5.0657 -4.0822 -2.4932 0.9725
-4.7614 -4.4330 -2.4930 0.9725
-4.6000 -4.6000 -2.4930 0.9725
-4.4328 -4.7612 -2.4930 0.9725
-4.0818 -5.0652 -2.4929 0.9725
-3.8984 -5.2077 -2.4929 0.9725
-3.7101 -5.3435 -2.4929 0.9725
-3.3195 -5.5947 -2.4930 0.9725
-2.9120 -5.8175 -2.4931 0.9725
-2.7026 -5.9178 -2.4931 0.9725
-2.0547 -6.1734 -2.4934 0.9725
-1.8331 -6.2431 -2.4935 0.9725
-1.6092 -6.3048 -2.4936 0.9725
-1.3832 -6.3585 -2.4937 0.9725
-0.9262 -6.4417 -2.4940 0.9725
-0.6957 -6.4711 -2.4941 0.9725
-0.2323 -6.5051 -2.4945 0.9725
0.0000 -6.5097 -2.4946 0.9725
0.9267 -6.4455 -2.4954 0.9725
2.0574 -6.1814 -2.4966 0.9725
3.5248 -5.4848 -2.4985 0.9725
4.2715 -4.9296 -2.4996 0.9724
4.6134 -4.6134 -2.5002 0.9724
4.7757 -4.4463 -2.5005 0.9724
5.0820 -4.0953 -2.5011 0.9724
5.2255 -3.9118 -2.5015 0.9724
5.3625 -3.7232 -2.5018 0.9724
5.8406 -2.9236 -2.5030 0.9724
5.9419 -2.7136 -2.5033 0.9724
6.0357 -2.5001 -2.5036 0.9724
6.2001 -2.0636 -2.5041 0.9724
6.3330 -1.6164 -2.5047 0.9724
6.4336 -1.1607 -2.5053 0.9724
6.5228 -0.4665 -2.5061 0.9724
-6.1001 -0.0000 -2.4966 0.9740
-6.0956 -0.2177 -2.4964 0.9740
-6.0635 -0.6519 -2.4960 0.9740
-6.0359 -0.8678 -2.4957 0.9740
-6.0006 -1.0826 -2.4956 0.9740
-5.7838 -1.9250 -2.4948 0.9740
-5.4497 -2.7280 -2.4943 0.9740
-5.3486 -2.9206 -2.4942 0.9740
-5.2408 -3.1095 -2.4940 0.9740
-5.0052 -3.4752 -2.4938 0.9740
-4.8778 -3.6515 -2.4938 0.9740
-4.6046 -3.9899 -2.4936 0.9740
-4.4592 -4.1517 -2.4936 0.9740
-4.1515 -4.4591 -2.4935 0.9740
-3.6510 -4.8772 -2.4935 0.9740
-3.4746 -5.0044 -2.4935 0.9740
-3.2938 -5.1253 -2.4935 0.9740
-3.1088 -5.2396 -2.4935 0.9740
-2.7272 -5.4483 -2.4936 0.9740
-2.3317 -5.6292 -2.4937 0.9740
-1.7168 -5.8468 -2.4940 0.9740
-1.2954 -5.9549 -2.4942 0.9740
-1.0821 -5.9976 -2.4943 0.9740
-0.8674 -6.0328 -2.4944 0.9740
-0.6515 -6.0602 -2.4946 0.9740
0.2176 -6.0929 -2.4952 0.9740
0.8679 -6.0361 -2.4958 0.9740
1.2965 -5.9598 -2.4962 0.9740
1.7186 -5.8531 -2.4967 0.9740
1.9266 -5.7886 -2.4969 0.9740
2.5351 -5.5511 -2.4976 0.9740
2.9252 -5.3572 -2.4981 0.9740
3.6594 -4.8884 -2.4992 0.9740
3.8320 -4.7552 -2.4995 0.9740
4.3198 -4.3198 -2.5003 0.9739
4.6180 -4.0015 -2.5009 0.9739
4.7584 -3.8346 -2.5012 0.9739
4.8928 -3.6627 -2.5014 0.9739
5.0210 -3.4862 -2.5017 0.9739
5.2581 -3.1198 -2.5023 0.9739
5.3667 -2.9305 -2.5026 0.9739
5.5633 -2.5407 -2.5031 0.9739
5.6511 -2.3408 -2.5034 0.9739
5.7317 -2.1378 -2.5037 0.9739
5.8050 -1.9321 -2.5040 0.9739
5.9801 -1.3009 -2.5048 0.9739
6.0868 -0.6544 -2.5055 0.9739
6.1191 -0.2185 -2.5060 0.9739
-5.7292 0.0000 -2.4969 0.9753
-5.6950 -0.6123 -2.4963 0.9753
-5.6691 -0.8151 -2.4961 0.9753
-5.6360 -1.0168 -2.4959 0.9753
-5.5957 -1.2173 -2.4957 0.9753
-5.2890 -2.1908 -2.4950 0.9753
-5.2072 -2.3780 -2.4948 0.9753
-5.0238 -2.7432 -2.4946 0.9753
-4.9225 -2.9206 -2.4945 0.9753
-4.7012 -3.2641 -2.4943 0.9753
-4.3250 -3.7476 -2.4941 0.9753
-4.0465 -4.0465 -2.4940 0.9753
-3.7474 -4.3248 -2.4940 0.9753
-3.5907 -4.4557 -2.4939 0.9753
-3.0938 -4.8141 -2.4940 0.9753
-2.9200 -4.9215 -2.4940 0.9753
-2.3774 -5.2057 -2.4941 0.9753
-1.8074 -5.4305 -2.4943 0.9753
-1.6125 -5.4917 -2.4944 0.9753
-1.4155 -5.5460 -2.4945 0.9753
-1.2167 -5.5932 -2.4946 0.9753
-0.8147 -5.6663 -2.4949 0.9753
-0.6120 -5.6921 -2.4950 0.9753
-0.2044 -5.7219 -2.4953 0.9753
0.4085 -5.7121 -2.4958 0.9753
0.8151 -5.6692 -2.4962 0.9753
1.0170 -5.6370 -2.4963 0.9753
1.2177 -5.5975 -2.4965 0.9753
1.6142 -5.4973 -2.4970 0.9753
2.5657 -5.1257 -2.4981 0.9753
2.9254 -4.9306 -2.4986 0.9753
3.2704 -4.7102 -2.4991 0.9753
3.5988 -4.4658 -2.4996 0.9753
3.9090 -4.1986 -2.5001 0.9753
4.1995 -3.9099 -2.5006 0.9753
4.3368 -3.7579 -2.5009 0.9753
4.5948 -3.4397 -2.5014 0.9753
4.8295 -3.1038 -2.5020 0.9753
4.9378 -2.9297 -2.5022 0.9753
5.1353 -2.5705 -2.5028 0.9753
5.6155 -1.2216 -2.5046 0.9752
5.6560 -1.0205 -2.5048 0.9752
5.7155 -0.6145 -2.5053 0.9752
5.7343 -0.4101 -2.5055 0.9752
5.7458 -0.2052 -2.5057 0.9752
-5.3948 0.0000 -2.4972 0.9765
-5.3802 -0.3848 -2.4968 0.9765
-5.3382 -0.7675 -2.4964 0.9765
-5.2692 -1.1462 -2.4961 0.9765
-5.2246 -1.3335 -2.4959 0.9765
-5.1733 -1.5190 -2.4957 0.9765
-5.0512 -1.8840 -2.4955 0.9765
-4.9805 -2.0630 -2.4953 0.9765
-4.9034 -2.2393 -2.4952 0.9765
-4.6354 -2.7503 -2.4949 0.9765
-4.3144 -3.2297 -2.4946 0.9765
-3.3813 -4.1959 -2.4944 0.9765
-3.2294 -4.3139 -2.4944 0.9765
-3.0733 -4.4265 -2.4944 0.9765
-2.7498 -4.6345 -2.4944 0.9765
-2.2387 -4.9021 -2.4945 0.9765
-2.0624 -4.9790 -2.4946 0.9765
-1.7020 -5.1137 -2.4947 0.9765
-1.5185 -5.1714 -2.4948 0.9765
-0.5763 -5.3600 -2.4954 0.9765
0.1925 -5.3887 -2.4960 0.9765
0.5765 -5.3620 -2.4963 0.9765
1.1466 -5.2708 -2.4968 0.9765
1.5199 -5.1764 -2.4972 0.9765
1.7038 -5.1192 -2.4974 0.9765
2.2419 -4.9090 -2.4981 0.9765
2.4159 -4.8263 -2.4983 0.9765
2.5868 -4.7375 -2.4985 0.9765
2.9188 -4.5417 -2.4990 0.9765
3.8197 -3.8197 -2.5004 0.9765
3.9540 -3.6813 -2.5007 0.9765
4.2074 -3.3905 -2.5012 0.9765
4.3261 -3.2385 -2.5014 0.9765
4.4394 -3.0824 -2.5017 0.9765
4.5471 -2.9222 -2.5019 0.9765
4.6489 -2.7583 -2.5022 0.9765
4.8348 -2.4201 -2.5027 0.9765
4.9186 -2.2463 -2.5029 0.9764
4.9961 -2.0695 -2.5032 0.9764
5.0673 -1.8900 -2.5034 0.9764
5.1902 -1.5240 -2.5039 0.9764
5.2418 -1.3379 -2.5041 0.9764
5.2867 -1.1501 -2.5044 0.9764
5.3808 -0.5785 -2.5050 0.9764
5.3985 -0.3861 -2.5053 0.9764
-5.0913 0.0000 -2.4974 0.9776
-5.0776 -0.3632 -2.4970 0.9776
-5.0610 -0.5441 -2.4969 0.9776
-5.0380 -0.7244 -2.4967 0.9776
-4.9729 -1.0818 -2.4964 0.9776
-4.8825 -1.4336 -2.4961 0.9776
-4.8279 -1.6069 -2.4959 0.9776
-4.7005 -1.9470 -2.4957 0.9776
-4.4649 -2.4380 -2.4954 0.9776
-4.1782 -2.9010 -2.4951 0.9776
-4.0719 -3.0482 -2.4950 0.9776
-3.7225 -3.4658 -2.4949 0.9776
-3.5964 -3.5964 -2.4948 0.9776
-1.6064 -4.8263 -2.4951 0.9776
-1.4331 -4.8808 -2.4952 0.9776
-0.9033 -5.0066 -2.4955 0.9776
0.0000 -5.0887 -2.4961 0.9776
0.5441 -5.0604 -2.4966 0.9776
0.9038 -5.0094 -2.4969 0.9776
1.0821 -4.9743 -2.4971 0.9776
1.2590 -4.9329 -2.4973 0.9776
1.7795 -4.7711 -2.4978 0.9776
2.4412 -4.4708 -2.4987 0.9776
2.5995 -4.3812 -2.4989 0.9776
2.9059 -4.1853 -2.4993 0.9776
3.0537 -4.0793 -2.4996 0.9776
3.3376 -3.8518 -2.5000 0.9775
3.4733 -3.7306 -2.5003 0.9775
3.6045 -3.6046 -2.5005 0.9775
3.9703 -3.1995 -2.5012 0.9775
4.5623 -2.2837 -2.5026 0.9775
4.9462 -1.2624 -2.5040 0.9775
4.9885 -1.0852 -2.5042 0.9775
5.0245 -0.9065 -2.5044 0.9775
5.0541 -0.7267 -2.5046 0.9775
5.0939 -0.3643 -2.5050 0.9775
-4.8144 -0.0000 -2.4976 0.9785
-4.8015 -0.3434 -2.4973 0.9785
-4.7858 -0.5145 -2.4971 0.9785
-4.4450 -1.8412 -2.4960 0.9786
-4.2222 -2.3055 -2.4957 0.9786
-4.0467 -2.6007 -2.4955 0.9786
-3.9512 -2.7434 -2.4954 0.9786
-3.8507 -2.8826 -2.4954 0.9786
-3.7452 -3.0181 -2.4953 0.9786
-3.6351 -3.1498 -2.4953 0.9786
-3.4010 -3.4010 -2.4952 0.9786
-3.0179 -3.7450 -2.4951 0.9786
-2.6003 -4.0461 -2.4951 0.9786
-1.9981 -4.3752 -2.4953 0.9786
-1.6810 -4.5068 -2.4954 0.9786
-1.5191 -4.5641 -2.4955 0.9786
-0.8542 -4.7345 -2.4958 0.9786
-0.6847 -4.7622 -2.4959 0.9786
-0.5143 -4.7838 -2.4960 0.9786
-0.1717 -4.8087 -2.4963 0.9786
0.0000 -4.8121 -2.4964 0.9785
0.1718 -4.8093 -2.4965 0.9785
0.5145 -4.7853 -2.4968 0.9785
0.6850 -4.7642 -2.4970 0.9785
0.8547 -4.7370 -2.4972 0.9785
1.0233 -4.7038 -2.4973 0.9785
1.1906 -4.6646 -2.4975 0.9785
1.5205 -4.5685 -2.4979 0.9785
1.6828 -4.5116 -2.4980 0.9785
2.0006 -4.3808 -2.4984 0.9785
2.1559 -4.3069 -2.4986 0.9785
2.4580 -4.1428 -2.4990 0.9785
2.6046 -4.0528 -2.4992 0.9785
3.0236 -3.7521 -2.4999 0.9785
3.5281 -3.2848 -2.5008 0.9785
3.6434 -3.1570 -2.5010 0.9785
4.0571 -2.6073 -2.5019 0.9785
4.1479 -2.4611 -2.5021 0.9785
4.2335 -2.3117 -2.5023 0.9785
4.4575 -1.8464 -2.5030 0.9785
4.5210 -1.6862 -2.5032 0.9785
4.6765 -1.1936 -2.5038 0.9785
4.7165 -1.0260 -2.5041 0.9785
4.7784 -0.6870 -2.5045 0.9785
4.8160 -0.3444 -2.5048 0.9785
-4.5605 -0.0000 -2.4978 0.9794
-4.5573 -0.1628 -2.4976 0.9794
-4.5483 -0.3253 -2.4975 0.9794
-4.5335 -0.4874 -2.4973 0.9794
-4.4546 -0.9691 -2.4969 0.9794
-4.3737 -1.2842 -2.4966 0.9794
-4.3249 -1.4395 -2.4965 0.9794
-4.2108 -1.7442 -2.4963 0.9794
-4.0753 -2.0400 -2.4961 0.9794
-3.9191 -2.3253 -2.4959 0.9794
-3.7430 -2.5988 -2.4958 0.9794
-3.5479 -2.8591 -2.4956 0.9794
-3.4435 -2.9839 -2.4956 0.9794
-3.2218 -3.2218 -2.4955 0.9794
-3.1047 -3.3347 -2.4955 0.9794
-2.8589 -3.5477 -2.4955 0.9794
-2.7304 -3.6475 -2.4955 0.9794
-2.5985 -3.7426 -2.4955 0.9794
-2.4633 -3.8330 -2.4955 0.9794
-1.8928 -4.1447 -2.4956 0.9794
-1.4390 -4.3236 -2.4958 0.9794
-1.1270 -4.4155 -2.4959 0.9794
-0.9687 -4.4531 -2.4960 0.9794
-0.8092 -4.4850 -2.4961 0.9794
-0.6486 -4.5112 -2.4962 0.9794
-0.4872 -4.5317 -2.4963 0.9794
0.0000 -4.5584 -2.4967 0.9794
0.3252 -4.5473 -2.4969 0.9794
0.4874 -4.5330 -2.4971 0.9794
0.6489 -4.5130 -2.4972 0.9794
1.2849 -4.3759 -2.4979 0.9794
1.4403 -4.3275 -2.4980 0.9794
1.7456 -4.2144 -2.4984 0.9794
1.8951 -4.1497 -2.4986 0.9794
2.3283 -3.9242 -2.4992 0.9794
2.4671 -3.8389 -2.4994 0.9794
2.6028 -3.7487 -2.4996 0.9794
2.8640 -3.5541 -2.5000 0.9794
2.9893 -3.4499 -2.5002 0.9794
3.1108 -3.3412 -2.5004 0.9794
3.2284 -3.2284 -2.5006 0.9794
3.3418 -3.1113 -2.5008 0.9794
3.5559 -2.8655 -2.5012 0.9794
3.6562 -2.7370 -2.5014 0.9794
3.7519 -2.6050 -2.5016 0.9794
3.9288 -2.3311 -2.5021 0.9794
4.0098 -2.1895 -2.5023 0.9794
4.2220 -1.7488 -2.5029 0.9794
4.4293 -1.1305 -2.5037 0.9794
4.4672 -0.9718 -2.5039 0.9794
4.4994 -0.8118 -2.5041 0.9794
4.5258 -0.6507 -2.5043 0.9794
4.5465 -0.4888 -2.5045 0.9794
-4.3267 0.0000 -2.4980 0.9802
-4.3236 -0.1544 -2.4978 0.9802
-4.3011 -0.4624 -2.4975 0.9802
-4.2816 -0.6156 -2.4974 0.9802
-4.2263 -0.9194 -2.4971 0.9802
-4.1906 -1.0696 -2.4970 0.9802
-4.0517 -1.5112 -2.4966 0.9802
-3.9332 -1.7962 -2.4964 0.9802
-3.7948 -2.0721 -2.4963 0.9802
-3.7183 -2.2062 -2.4962 0.9802
-3.5512 -2.4657 -2.4960 0.9802
-3.3661 -2.7126 -2.4959 0.9802
-3.0567 -3.0567 -2.4958 0.9802
-2.4654 -3.5508 -2.4958 0.9802
-2.3371 -3.6366 -2.4958 0.9802
-2.2058 -3.7177 -2.4958 0.9802
-1.9350 -3.8657 -2.4959 0.9802
-1.7959 -3.9324 -2.4959 0.9802
-1.6544 -3.9940 -2.4959 0.9802
-1.5108 -4.0506 -2.4960 0.9802
-1.3653 -4.1021 -2.4961 0.9802
-1.2180 -4.1483 -2.4961 0.9802
-0.7677 -4.2551 -2.4964 0.9802
-0.6154 -4.2800 -2.4965 0.9802
-0.4622 -4.2994 -2.4966 0.9802
-0.3085 -4.3134 -2.4967 0.9802
-0.1544 -4.3218 -2.4968 0.9802
0.3086 -4.3142 -2.4972 0.9802
0.4624 -4.3007 -2.4973 0.9802
0.6156 -4.2817 -2.4974 0.9802
0.7681 -4.2572 -2.4976 0.9802
0.9196 -4.2273 -2.4977 0.9802
1.0700 -4.1921 -2.4979 0.9802
1.3665 -4.1056 -2.4982 0.9802
1.6561 -3.9982 -2.4986 0.9802
1.9374 -3.8704 -2.4989 0.9802
2.0745 -3.7991 -2.4991 0.9802
2.3405 -3.6420 -2.4995 0.9802
2.4692 -3.5564 -2.4997 0.9802
2.5948 -3.4662 -2.4998 0.9802
2.8359 -3.2728 -2.5002 0.9802
2.9511 -3.1697 -2.5004 0.9802
3.0626 -3.0626 -2.5006 0.9802
3.1702 -2.9516 -2.5008 0.9802
3.2738 -2.8368 -2.5010 0.9802
3.3733 -2.7184 -2.5012 0.9802
3.4684 -2.5964 -2.5014 0.9802
3.7270 -2.2113 -2.5020 0.9802
3.8759 -1.9401 -2.5024 0.9802
3.9430 -1.8007 -2.5026 0.9802
4.0050 -1.6590 -2.5028 0.9802
4.1604 -1.2216 -2.5034 0.9802
4.2376 -0.9218 -2.5038 0.9802
4.3128 -0.4637 -2.5043 0.9802
4.3268 -0.3095 -2.5045 0.9802
