ply
format ascii 1.0
element vertex 1231
property float32 x
property float32 y
property float32 z
property float32 I
end_header
-22.3490 -37.6673 7.7228 0.8370
-18.6482 -37.2543 7.3460 0.8443
-14.9131 -36.0035 6.8714 0.8536
-11.7474 -35.2953 6.5592 0.8598
-10.2664 -34.9640 6.4254 0.8624
-8.8427 -34.6455 6.3048 0.8648
-6.1418 -34.0415 6.0993 0.8689
-1.1762 -32.9312 5.8104 0.8747
-0.0000 -32.6682 5.7603 0.8757
4.5690 -31.7779 5.6609 0.8777
6.8042 -31.2784 5.6442 0.8781
12.3206 -33.0327 6.2165 0.8666
13.9646 -33.7136 6.4344 0.8622
11.2042 -13.9036 3.1485 0.9300
30.0107 -9.9885 5.5772 0.8794
-29.4223 -39.3036 7.5213 0.8198
-27.1545 -39.1099 7.2940 0.8248
-12.8188 -19.9464 3.6323 0.9085
-22.3473 -37.6643 6.7091 0.8376
-18.4127 -36.7840 6.3017 0.8467
-16.6150 -36.3819 6.1272 0.8506
-14.9121 -36.0009 5.9695 0.8541
-10.7818 -32.3941 5.2303 0.8710
-8.8422 -34.6433 5.4773 0.8653
-7.5007 -34.4802 5.4057 0.8669
-6.1671 -34.1820 5.3210 0.8689
-4.8527 -33.7512 5.2237 0.8711
-3.6998 -34.4132 5.3023 0.8693
-2.4686 -34.5151 5.3010 0.8693
-0.0000 -37.1124 5.6854 0.8606
1.3235 -37.0573 5.6806 0.8607
5.6641 -31.3940 4.8870 0.8789
7.7914 -35.8166 5.6152 0.8621
9.0673 -35.5254 5.6168 0.8621
9.1347 -31.1101 4.9671 0.8770
11.5070 -34.5730 5.5820 0.8629
12.3974 -33.2387 5.4346 0.8663
13.9638 -33.7115 5.5899 0.8627
30.0141 -9.9897 4.8460 0.8798
-21.5504 -14.9627 3.4164 0.8996
-20.1453 -20.1453 3.7100 0.8914
-26.8480 -38.6685 6.1302 0.8270
-12.7833 -19.8912 3.0790 0.9090
-18.6481 -34.1515 5.0670 0.8547
-14.9102 -35.9963 5.0737 0.8546
-8.8416 -34.6410 4.6556 0.8657
-8.6137 -39.5966 5.2769 0.8492
-4.1501 -38.6018 5.0557 0.8550
-1.1760 -32.9272 4.2905 0.8755
-0.0000 -37.6763 4.9062 0.8590
1.3399 -37.5155 4.8884 0.8595
9.1311 -35.7754 4.8081 0.8616
9.1338 -31.1070 4.2218 0.8774
14.4098 -38.6343 5.3695 0.8468
13.9629 -33.7095 4.7514 0.8631
11.2084 -13.9088 2.3261 0.9305
30.0174 -9.9908 4.1198 0.8802
-43.9566 -4.7258 4.7473 0.8371
-21.2959 -14.7859 2.7839 0.9010
-20.1338 -20.1338 3.0575 0.8918
-26.9609 -38.8311 5.0763 0.8268
-23.2030 -39.1065 4.8829 0.8328
-19.1869 -38.3305 4.6029 0.8416
-17.2614 -41.6727 4.8436 0.8340
-13.2906 -35.6335 4.0839 0.8581
-7.1105 -39.4109 4.3003 0.8512
-4.8521 -33.7470 3.6611 0.8718
-2.7492 -38.4382 4.1381 0.8564
3.9567 -36.8024 3.9747 0.8616
9.1329 -31.1037 3.4810 0.8777
13.9621 -33.7075 3.9178 0.8635
11.2105 -13.9114 1.9184 0.9306
30.0208 -9.9919 3.3976 0.8805
-43.9477 -4.7248 3.7417 0.8374
-20.3136 -37.2015 3.5881 0.8435
-19.1871 -38.3310 3.6286 0.8419
-16.6114 -36.3740 3.3851 0.8517
-17.2670 -41.6862 3.8196 0.8343
-13.2897 -35.6311 3.2192 0.8584
-11.8442 -40.3376 3.5588 0.8447
-8.8405 -34.6366 3.0261 0.8663
-4.8518 -33.7449 2.8860 0.8721
-4.1525 -38.6236 3.2884 0.8556
-1.1759 -32.9233 2.7888 0.8761
-0.0000 -37.6969 3.1911 0.8596
3.9577 -36.8122 3.1342 0.8619
9.1360 -35.7945 3.1272 0.8622
15.2935 -41.0036 3.7047 0.8389
11.2126 -13.9140 1.5126 0.9308
30.0241 -9.9930 2.6787 0.8807
-20.0513 -20.0514 1.7584 0.8926
-26.9614 -38.8318 2.9315 0.8274
-23.2034 -39.1073 2.8198 0.8334
-12.9601 -34.7472 2.2997 0.8619
-8.8399 -34.6344 2.2165 0.8665
-8.6110 -39.5844 2.5120 0.8501
-7.0801 -39.2422 2.4727 0.8523
-4.1485 -38.5869 2.4066 0.8560
-0.8874 -24.8461 1.5417 0.9052
-0.0000 -25.1011 1.5565 0.9043
3.9580 -36.8149 2.2961 0.8621
5.2516 -36.5258 2.2883 0.8625
7.8208 -35.9516 2.2815 0.8629
15.2927 -41.0013 2.7136 0.8391
-43.9357 -4.7236 1.7425 0.8379
-12.7217 -19.7954 0.9278 0.9101
-16.6091 -36.3688 1.5765 0.8521
-11.8866 -35.7135 1.4842 0.8601
-11.8463 -40.3447 1.6580 0.8451
-7.0871 -39.2810 1.5739 0.8523
-4.8512 -33.7408 1.3441 0.8724
-4.1527 -38.6253 1.5318 0.8560
-1.1757 -32.9194 1.2989 0.8765
-0.0000 -25.1016 0.9898 0.9044
1.3357 -37.3987 1.4756 0.8609
3.9578 -36.8128 1.4599 0.8622
5.6625 -31.3850 1.2575 0.8801
7.8204 -35.9496 1.4507 0.8631
9.1302 -31.0946 1.2779 0.8783
15.2918 -40.9989 1.7254 0.8393
13.9596 -33.7015 1.4384 0.8641
11.2167 -13.9191 0.7049 0.9309
19.5459 -20.9938 1.1310 0.8915
27.4032 -19.0264 1.3154 0.8750
28.2352 -18.1457 1.3234 0.8743
-43.9298 -4.7229 0.7463 0.8380
-20.1018 -20.1018 0.4802 0.8925
-26.9618 -38.8324 0.7986 0.8277
-12.7065 -19.7718 0.3970 0.9103
-16.6079 -36.3662 0.6753 0.8522
-17.1884 -41.4965 0.7587 0.8355
-13.2870 -35.6238 0.6423 0.8589
-11.8868 -35.7140 0.6358 0.8602
-4.8509 -33.7388 0.5758 0.8725
-4.1480 -38.5823 0.6555 0.8562
-2.7369 -38.2670 0.6481 0.8577
3.8713 -36.0082 0.6118 0.8651
5.0732 -35.2848 0.6022 0.8671
5.6621 -31.3832 0.5387 0.8802
7.8117 -35.9098 0.6208 0.8633
9.0924 -35.6236 0.6210 0.8632
15.2909 -40.9966 0.7391 0.8394
12.9431 -31.2475 0.5713 0.8734
10.8723 -14.5237 0.3065 0.9300
11.2187 -13.9216 0.3020 0.9310
30.0340 -9.9963 0.5347 0.8811
39.0305 -7.0419 0.6699 0.8533
-20.3074 -37.1903 -0.2386 0.8441
-19.1879 -38.3325 -0.2413 0.8424
-16.6067 -36.3636 -0.2251 0.8522
-11.8448 -40.3395 -0.2367 0.8452
-8.8382 -34.6278 -0.2012 0.8668
-4.8506 -33.7367 -0.1919 0.8725
-2.7423 -38.3425 -0.2164 0.8575
-0.0000 -37.3116 -0.2101 0.8614
2.2982 -32.1331 -0.1814 0.8791
5.1698 -35.9567 -0.2045 0.8648
5.6618 -31.3814 -0.1795 0.8802
9.1103 -35.6940 -0.2074 0.8630
15.2900 -40.9942 -0.2463 0.8394
12.9268 -31.2080 -0.1902 0.8736
10.8658 -14.5150 -0.1021 0.9300
39.8912 -7.1972 -0.2282 0.8503
-43.9169 -4.7215 -1.2437 0.8380
-37.1053 -25.7627 -1.2719 0.8346
-27.4959 -23.8253 -1.0244 0.8645
-20.0983 -20.0983 -0.8005 0.8925
-26.9623 -38.8331 -1.3312 0.8276
-23.2043 -39.1088 -1.2805 0.8336
-20.3059 -37.1875 -1.1930 0.8440
-19.1881 -38.3329 -1.2070 0.8424
-17.2210 -41.5751 -1.2671 0.8352
-11.8871 -35.7149 -1.0599 0.8602
-11.8440 -40.3369 -1.1837 0.8452
-8.8376 -34.6255 -1.0062 0.8668
-8.6121 -39.5893 -1.1408 0.8503
-7.0927 -39.3123 -1.1248 0.8523
-4.8503 -33.7347 -0.9597 0.8725
-4.1519 -38.6183 -1.0937 0.8561
-2.7422 -38.3402 -1.0823 0.8574
-0.0000 -37.3068 -1.0505 0.8613
1.3400 -37.5184 -1.0571 0.8605
2.2981 -32.1312 -0.9071 0.8791
5.1692 -35.9527 -1.0228 0.8647
5.5936 -31.0031 -0.8871 0.8816
7.8267 -35.9787 -1.0368 0.8630
9.1098 -35.6919 -1.0372 0.8629
9.1275 -31.0853 -0.9122 0.8784
15.2892 -40.9919 -1.2319 0.8394
12.9198 -31.1912 -0.9506 0.8736
10.8593 -14.5063 -0.5102 0.9301
39.4252 -29.5134 -1.3867 0.8211
-45.5691 0.0001 -2.3110 0.8332
-45.6059 -3.2618 -2.3188 0.8327
-43.7978 -4.7087 -2.2340 0.8383
-48.1602 -8.6890 -2.4818 0.8220
-47.5849 -12.1453 -2.4906 0.8214
-46.7630 -15.5642 -2.4995 0.8209
-46.2602 -17.2542 -2.5039 0.8206
-45.0720 -20.5837 -2.5129 0.8200
-44.3877 -22.2189 -2.5174 0.8197
-43.6438 -23.8313 -2.5218 0.8194
-40.6590 -24.1241 -2.3976 0.8275
-39.4257 -25.3374 -2.3767 0.8289
-37.1010 -25.7597 -2.2906 0.8345
-26.7665 -23.1934 -1.7962 0.8678
-22.3974 -25.8479 -1.7345 0.8720
-30.3008 -37.6009 -2.4490 0.8241
-29.0513 -38.8079 -2.4585 0.8235
-26.9625 -38.8335 -2.3976 0.8275
-23.2045 -39.1091 -2.3062 0.8335
-11.8872 -35.7153 -1.9090 0.8601
-11.8308 -40.2919 -2.1296 0.8452
-4.8500 -33.7326 -1.7283 0.8724
-2.7420 -38.3380 -1.9492 0.8573
-0.0000 -37.3020 -1.8917 0.8612
1.3399 -37.5164 -1.9038 0.8604
3.8807 -36.0957 -1.8411 0.8647
5.1686 -35.9486 -1.8419 0.8646
9.1265 -31.0822 -1.6428 0.8783
12.7847 -30.8648 -1.6943 0.8748
10.8528 -14.4977 -0.9184 0.9300
11.2249 -13.9293 -0.9072 0.9309
28.0478 -28.0478 -2.0116 0.8531
28.3696 -26.4130 -1.9658 0.8562
29.0544 -25.1758 -1.9497 0.8573
30.0111 -24.1845 -1.9547 0.8570
33.3694 -23.1688 -2.0602 0.8498
44.2794 -20.2217 -2.4687 0.8229
31.5657 -13.0750 -1.7327 0.8721
45.2682 -16.8842 -2.4502 0.8241
30.0439 -9.9996 -1.6058 0.8809
45.9956 -13.5056 -2.4311 0.8253
39.8785 -7.1949 -2.0551 0.8502
46.9200 -6.7461 -2.4040 0.8271
48.2304 -3.4495 -2.4522 0.8239
-33.7460 -1.2052 -2.4759 0.8733
-33.6534 -3.6181 -2.4818 0.8731
-33.5429 -4.8227 -2.4847 0.8729
-33.3898 -6.0241 -2.4877 0.8728
-33.1938 -7.2208 -2.4908 0.8726
-31.9851 -11.9298 -2.5030 0.8720
-31.5779 -13.0800 -2.5061 0.8719
-29.5397 -17.5267 -2.5185 0.8713
-28.2824 -19.6368 -2.5246 0.8710
-27.5829 -20.6483 -2.5263 0.8709
-24.5245 -21.2506 -2.3793 0.8780
-19.9628 -19.9629 -2.0700 0.8929
-21.3465 -24.6352 -2.3901 0.8774
-19.5966 -26.1780 -2.3977 0.8771
-18.6970 -26.9288 -2.4037 0.8768
-12.6461 -19.6777 -1.7151 0.9105
-15.8244 -28.9802 -2.4210 0.8760
-14.8131 -29.5928 -2.4265 0.8757
-11.6368 -31.1993 -2.4415 0.8750
-10.5357 -31.6546 -2.4462 0.8748
-9.4160 -32.0680 -2.4506 0.8745
-5.9625 -33.0480 -2.4623 0.8740
-4.7858 -33.2861 -2.4657 0.8738
-3.5993 -33.4784 -2.4689 0.8737
-2.4049 -33.6244 -2.4717 0.8735
-1.1754 -32.9098 -2.4146 0.8763
1.2066 -33.7850 -2.4788 0.8732
4.8198 -33.5224 -2.4832 0.8730
5.5355 -30.6813 -2.2859 0.8825
7.2034 -33.1133 -2.4847 0.8729
9.1256 -31.0791 -2.3750 0.8782
10.7020 -32.1543 -2.4848 0.8729
11.8402 -31.7447 -2.4842 0.8729
15.1443 -30.2544 -2.4807 0.8731
16.2029 -29.6734 -2.4789 0.8732
10.8463 -14.4890 -1.3271 0.9300
23.6788 -23.6788 -2.4553 0.8743
24.4682 -22.7807 -2.4513 0.8745
25.2208 -21.8540 -2.4469 0.8747
27.2537 -18.9226 -2.4327 0.8754
27.8529 -17.9000 -2.4276 0.8756
20.1496 -11.0025 -1.6833 0.9120
29.4947 -11.0010 -2.3081 0.8814
29.1994 -9.7185 -2.2564 0.8839
32.2571 -7.0171 -2.4205 0.8760
34.5198 -1.2329 -2.5327 0.8706
-25.8343 -0.9227 -2.4818 0.9013
-25.7491 -2.7683 -2.4863 0.9012
-25.1862 -6.4284 -2.4955 0.9008
-24.7098 -8.2242 -2.5002 0.9006
-24.4235 -9.1095 -2.5026 0.9006
-22.9647 -12.5397 -2.5120 0.9002
-22.5234 -13.3638 -2.5143 0.9001
-21.9380 -14.0987 -2.5036 0.9005
-21.5524 -14.9641 -2.5190 0.8999
-19.8829 -17.2286 -2.5258 0.8997
-19.2722 -17.9430 -2.5280 0.8996
-18.6177 -18.6177 -2.5278 0.8996
-17.3698 -18.6565 -2.4472 0.9026
-16.2357 -18.7370 -2.3802 0.9052
-13.1358 -18.9192 -2.2112 0.9116
-12.0393 -18.7335 -2.1379 0.9144
-11.7441 -19.7937 -2.2096 0.9117
-11.4388 -20.9487 -2.2915 0.9085
-11.1569 -22.2887 -2.3929 0.9047
-10.3612 -22.6880 -2.3945 0.9046
-9.5511 -23.0584 -2.3961 0.9046
-7.0603 -24.0452 -2.4059 0.9042
-6.2055 -24.3128 -2.4090 0.9041
-5.3401 -24.5480 -2.4118 0.9040
-1.7994 -25.1586 -2.4215 0.9036
4.4953 -24.9156 -2.4306 0.9033
5.3827 -24.7440 -2.4311 0.9032
7.1349 -24.2993 -2.4313 0.9032
10.5116 -23.0171 -2.4293 0.9033
11.3214 -22.6173 -2.4282 0.9034
9.0830 -13.0820 -1.5290 0.9380
10.8398 -14.4803 -1.7365 0.9299
11.2291 -13.9344 -1.7181 0.9306
16.4739 -19.0119 -2.4151 0.9039
18.9229 -16.3968 -2.4038 0.9043
20.0239 -14.9897 -2.4014 0.9044
20.5348 -14.2576 -2.4000 0.9044
22.2995 -11.1623 -2.3941 0.9046
22.6682 -10.3522 -2.3925 0.9047
23.0070 -9.5298 -2.3908 0.9048
23.9926 -8.9488 -2.4584 0.9022
25.3852 -7.4538 -2.5400 0.8991
25.6148 -6.5378 -2.5380 0.8992
25.9736 -4.6861 -2.5338 0.8994
26.1024 -3.7530 -2.5317 0.8995
26.2583 -1.8780 -2.5274 0.8996
-20.9089 0.0000 -2.4837 0.9192
-20.8858 -1.4938 -2.4873 0.9191
-20.6523 -3.7261 -2.4928 0.9189
-20.1814 -5.9258 -2.4985 0.9188
-19.9722 -6.6474 -2.5004 0.9187
-19.7373 -7.3616 -2.5023 0.9186
-18.5449 -10.1263 -2.5099 0.9184
-17.8019 -11.4406 -2.5136 0.9183
-17.3951 -12.0776 -2.5155 0.9182
-16.9654 -12.7001 -2.5174 0.9182
-15.5440 -14.4720 -2.5228 0.9180
-14.4920 -15.5655 -2.5263 0.9179
-13.9366 -16.0837 -2.5280 0.9178
-13.3625 -16.5818 -2.5296 0.9178
-8.3430 -18.2687 -2.3856 0.9223
-5.6694 -19.3081 -2.3904 0.9221
-4.9788 -19.5067 -2.3914 0.9221
-3.5774 -19.8282 -2.3933 0.9220
-2.8685 -19.9506 -2.3942 0.9220
-0.0000 -20.1805 -2.3972 0.9219
1.6006 -14.8882 -1.7787 0.9415
4.2942 -19.7400 -2.3997 0.9218
4.9964 -19.5756 -2.3999 0.9218
5.6922 -19.3859 -2.4000 0.9218
7.7317 -18.6661 -2.4000 0.9218
8.3926 -18.3771 -2.3998 0.9218
9.0423 -18.0643 -2.3996 0.9219
9.6802 -17.7280 -2.3993 0.9219
8.5961 -13.3758 -1.8887 0.9380
9.0824 -13.0812 -1.8917 0.9379
10.0911 -13.4801 -2.0002 0.9344
12.1420 -13.0414 -2.1166 0.9307
14.2558 -14.2558 -2.3948 0.9220
15.6804 -12.6361 -2.3921 0.9221
16.1146 -12.0632 -2.3911 0.9221
16.5275 -11.4753 -2.3901 0.9221
16.9186 -10.8730 -2.3889 0.9222
17.6252 -10.4575 -2.4344 0.9208
18.6703 -10.1948 -2.5269 0.9179
19.9995 -7.4594 -2.5355 0.9176
20.6439 -5.2690 -2.5308 0.9178
20.8053 -4.5259 -2.5292 0.9178
20.9396 -3.7779 -2.5275 0.9179
21.1269 -2.2714 -2.5240 0.9180
21.1797 -1.5148 -2.5223 0.9180
-17.5254 -1.2534 -2.4895 0.9315
-17.4802 -1.8793 -2.4910 0.9314
-17.0777 -4.3588 -2.4973 0.9313
-16.5455 -6.1712 -2.5021 0.9311
-16.3251 -6.7621 -2.5037 0.9311
-16.0836 -7.3452 -2.5053 0.9311
-15.5384 -8.4846 -2.5085 0.9310
-14.9122 -9.5835 -2.5116 0.9309
-14.5697 -10.1159 -2.5132 0.9308
-13.8278 -11.1431 -2.5162 0.9308
-13.4293 -11.6366 -2.5178 0.9307
-12.5797 -12.5797 -2.5207 0.9306
-12.1297 -13.0282 -2.5222 0.9306
-10.1743 -14.6538 -2.5277 0.9305
-9.6498 -15.0153 -2.5290 0.9304
-8.5625 -15.6809 -2.5315 0.9304
-8.0010 -15.9841 -2.5327 0.9303
-7.4102 -16.2260 -2.5275 0.9305
-5.9636 -15.9890 -2.4179 0.9334
-4.7394 -16.1409 -2.3835 0.9343
-4.1618 -16.3058 -2.3844 0.9343
-3.5784 -16.4497 -2.3853 0.9343
-2.9900 -16.5724 -2.3860 0.9342
-1.8012 -16.7534 -2.3875 0.9342
-1.2024 -16.8115 -2.3881 0.9342
-0.5513 -15.4369 -2.1886 0.9395
-0.0000 -16.8623 -2.3892 0.9341
1.2034 -16.8258 -2.3901 0.9341
1.6006 -14.8874 -2.1215 0.9413
2.1241 -14.7733 -2.1147 0.9415
3.5875 -16.4914 -2.3913 0.9341
4.1741 -16.3540 -2.3915 0.9341
5.8987 -15.8150 -2.3916 0.9341
6.4592 -15.5940 -2.3915 0.9341
7.5543 -15.0916 -2.3913 0.9341
8.5960 -13.3756 -2.2528 0.9378
9.0819 -13.0804 -2.2563 0.9377
10.5799 -13.1289 -2.3891 0.9341
11.4841 -12.3348 -2.3879 0.9342
11.9138 -11.9138 -2.3873 0.9342
12.5196 -11.6562 -2.4237 0.9332
13.9216 -11.2187 -2.5333 0.9303
15.9893 -8.0037 -2.5335 0.9303
16.2573 -7.4245 -2.5323 0.9303
16.5041 -6.8362 -2.5311 0.9304
16.9329 -5.6358 -2.5286 0.9304
17.1144 -5.0252 -2.5273 0.9305
17.2737 -4.4088 -2.5260 0.9305
17.5249 -3.1618 -2.5232 0.9306
17.6166 -2.5329 -2.5218 0.9306
-15.1057 0.0000 -2.4885 0.9406
-15.1040 -0.5394 -2.4898 0.9406
-15.0830 -1.0788 -2.4911 0.9405
-15.0429 -1.6173 -2.4924 0.9405
-14.8077 -3.2212 -2.4965 0.9404
-14.6913 -3.7497 -2.4978 0.9404
-14.4022 -4.7935 -2.5006 0.9403
-14.2297 -5.3074 -2.5019 0.9403
-14.0389 -5.8151 -2.5033 0.9403
-13.8300 -6.3159 -2.5047 0.9402
-13.6032 -6.8093 -2.5061 0.9402
-12.8181 -8.2377 -2.5101 0.9401
-12.2108 -9.1409 -2.5128 0.9400
-11.8829 -9.5759 -2.5141 0.9400
-11.5395 -9.9991 -2.5154 0.9400
-10.8077 -10.8077 -2.5179 0.9399
-10.4202 -11.1921 -2.5192 0.9399
-10.0189 -11.5625 -2.5204 0.9399
-9.6044 -11.9184 -2.5216 0.9398
-9.1772 -12.2593 -2.5228 0.9398
-8.7377 -12.5847 -2.5239 0.9398
-7.3519 -13.4640 -2.5272 0.9397
-5.3692 -14.3953 -2.5310 0.9396
-3.8034 -14.9015 -2.5336 0.9396
-2.1684 -15.0818 -2.5101 0.9401
-1.6080 -14.9566 -2.4781 0.9408
-1.0609 -14.8338 -2.4500 0.9415
1.0325 -14.4361 -2.3843 0.9430
2.5706 -14.2480 -2.3851 0.9430
3.5810 -14.0301 -2.3854 0.9430
4.0796 -13.8939 -2.3855 0.9430
5.0605 -13.5677 -2.3855 0.9430
6.0233 -13.1891 -2.3886 0.9429
8.1430 -12.6707 -2.4813 0.9408
8.7021 -12.5335 -2.5136 0.9400
9.2117 -12.3055 -2.5323 0.9396
10.0861 -11.6400 -2.5373 0.9395
10.8859 -10.8859 -2.5362 0.9395
11.2647 -10.4878 -2.5355 0.9395
11.6287 -10.0763 -2.5348 0.9395
11.9775 -9.6521 -2.5341 0.9395
12.6277 -8.7676 -2.5325 0.9396
12.9282 -8.3085 -2.5317 0.9396
13.2119 -7.8390 -2.5308 0.9396
13.4783 -7.3597 -2.5299 0.9396
13.7272 -6.8714 -2.5289 0.9397
13.9582 -6.3745 -2.5279 0.9397
14.3655 -5.3581 -2.5258 0.9397
14.6982 -4.3158 -2.5236 0.9398
15.0542 -2.7160 -2.5201 0.9399
15.1947 -1.6336 -2.5176 0.9399
-13.2477 0.0000 -2.4900 0.9475
-13.2453 -0.4730 -2.4912 0.9475
-13.2261 -0.9459 -2.4923 0.9475
-12.9812 -2.8239 -2.4970 0.9474
-12.8783 -3.2870 -2.4982 0.9473
-12.7589 -3.7464 -2.4994 0.9473
-12.6231 -4.2014 -2.5006 0.9473
-12.4712 -4.6515 -2.5018 0.9473
-11.7046 -6.3912 -2.5066 0.9472
-11.2295 -7.2168 -2.5090 0.9471
-10.9699 -7.6165 -2.5102 0.9471
-10.6960 -8.0069 -2.5113 0.9471
-9.7921 -9.1167 -2.5147 0.9470
-9.1247 -9.8006 -2.5169 0.9470
-8.7728 -10.1243 -2.5180 0.9469
-7.2543 -11.2879 -2.5220 0.9469
-6.8493 -11.5440 -2.5230 0.9468
-6.4353 -11.7854 -2.5239 0.9468
-5.5820 -12.2229 -2.5257 0.9468
-5.1439 -12.4185 -2.5265 0.9468
-4.6989 -12.5981 -2.5273 0.9467
-3.7904 -12.9089 -2.5288 0.9467
-3.3281 -13.0396 -2.5295 0.9467
-2.8614 -13.1535 -2.5302 0.9467
-1.9166 -13.3305 -2.5314 0.9467
-0.9612 -13.4388 -2.5324 0.9466
-0.4810 -13.4670 -2.5329 0.9466
0.4811 -13.4713 -2.5337 0.9466
0.9618 -13.4474 -2.5340 0.9466
1.9191 -13.3474 -2.5346 0.9466
2.8668 -13.1785 -2.5350 0.9466
4.2595 -12.7978 -2.5352 0.9466
5.1615 -12.4611 -2.5352 0.9466
5.6028 -12.2684 -2.5351 0.9466
7.2894 -11.3425 -2.5343 0.9466
8.0779 -10.7908 -2.5336 0.9466
8.4566 -10.4940 -2.5332 0.9466
8.8242 -10.1837 -2.5328 0.9466
9.1803 -9.8604 -2.5323 0.9466
9.5245 -9.5245 -2.5318 0.9467
9.8562 -9.1764 -2.5312 0.9467
10.7725 -8.0642 -2.5293 0.9467
11.0504 -7.6724 -2.5286 0.9467
11.5627 -6.8604 -2.5271 0.9467
11.7964 -6.4413 -2.5263 0.9468
12.5753 -4.6904 -2.5227 0.9468
12.8680 -3.7784 -2.5208 0.9469
13.0942 -2.8485 -2.5188 0.9469
13.2528 -1.9055 -2.5166 0.9470
13.3629 -0.4773 -2.5133 0.9470
-11.7830 -0.4208 -2.4923 0.9529
-11.7653 -0.8415 -2.4933 0.9529
-11.7326 -1.2614 -2.4943 0.9529
-11.6850 -1.6800 -2.4954 0.9529
-11.5451 -2.5115 -2.4975 0.9528
-10.4053 -5.6817 -2.5060 0.9527
-10.2002 -6.0521 -2.5071 0.9527
-9.9819 -6.4149 -2.5081 0.9526
-9.5066 -7.1166 -2.5102 0.9526
-8.7019 -8.1018 -2.5132 0.9526
-7.4717 -9.2718 -2.5170 0.9525
-6.4446 -10.0280 -2.5197 0.9524
-5.7165 -10.4690 -2.5214 0.9524
-5.3409 -10.6698 -2.5222 0.9524
-4.9582 -10.8569 -2.5229 0.9524
-2.9557 -11.5803 -2.5263 0.9523
-2.5411 -11.6811 -2.5269 0.9523
-0.8535 -11.9333 -2.5289 0.9523
-0.4271 -11.9581 -2.5293 0.9523
-0.0000 -11.9675 -2.5297 0.9522
0.4272 -11.9615 -2.5300 0.9522
0.8540 -11.9401 -2.5303 0.9522
1.7039 -11.8511 -2.5308 0.9522
2.1260 -11.7836 -2.5310 0.9522
2.5454 -11.7009 -2.5312 0.9522
2.9615 -11.6031 -2.5313 0.9522
3.7819 -11.3627 -2.5314 0.9522
4.5828 -11.0637 -2.5313 0.9522
5.3599 -10.7078 -2.5311 0.9522
5.7383 -10.5090 -2.5310 0.9522
6.1093 -10.2966 -2.5308 0.9522
6.4723 -10.0711 -2.5305 0.9522
7.1726 -9.5815 -2.5299 0.9522
7.5090 -9.3181 -2.5296 0.9523
8.1520 -8.7558 -2.5288 0.9523
9.0359 -7.8297 -2.5273 0.9523
9.8141 -6.8141 -2.5255 0.9523
10.0485 -6.4578 -2.5249 0.9523
10.2698 -6.0933 -2.5242 0.9524
10.4777 -5.7213 -2.5235 0.9524
11.0191 -4.5643 -2.5211 0.9524
11.1714 -4.1667 -2.5203 0.9524
11.3092 -3.7641 -2.5195 0.9524
11.6343 -2.5309 -2.5168 0.9525
11.7129 -2.1132 -2.5158 0.9525
11.8580 -0.8481 -2.5129 0.9526
11.8759 -0.4242 -2.5119 0.9526
-10.6043 0.0000 -2.4922 0.9574
-10.5552 -1.1348 -2.4950 0.9573
-10.3852 -2.2591 -2.4978 0.9573
-10.3018 -2.6294 -2.4988 0.9573
-10.0958 -3.3602 -2.5007 0.9572
-9.8379 -4.0750 -2.5026 0.9572
-9.3567 -5.1092 -2.5055 0.9571
-9.1718 -5.4419 -2.5065 0.9571
-8.9751 -5.7680 -2.5074 0.9571
-8.7668 -6.0869 -2.5083 0.9571
-8.5471 -6.3983 -2.5093 0.9571
-8.0748 -6.9968 -2.5111 0.9570
-7.8227 -7.2832 -2.5120 0.9570
-7.5604 -7.5604 -2.5129 0.9570
-7.0066 -8.0860 -2.5146 0.9570
-6.7157 -8.3337 -2.5154 0.9570
-6.4161 -8.5709 -2.5162 0.9570
-6.1080 -8.7972 -2.5170 0.9569
-4.7995 -9.5883 -2.5200 0.9569
-4.1055 -9.9115 -2.5214 0.9569
-3.0247 -10.3011 -2.5232 0.9568
-2.6557 -10.4048 -2.5238 0.9568
-1.9074 -10.5720 -2.5248 0.9568
-1.5291 -10.6353 -2.5252 0.9568
-0.7668 -10.7208 -2.5261 0.9568
-0.0000 -10.7512 -2.5268 0.9568
1.1496 -10.6931 -2.5276 0.9568
1.5307 -10.6461 -2.5278 0.9568
2.2865 -10.5110 -2.5281 0.9568
2.6603 -10.4231 -2.5282 0.9568
3.7594 -10.0794 -2.5283 0.9568
4.1167 -9.9386 -2.5283 0.9568
4.4687 -9.7851 -2.5282 0.9568
5.1549 -9.4404 -2.5279 0.9568
6.1329 -8.8331 -2.5273 0.9568
6.4435 -8.6076 -2.5270 0.9568
6.7458 -8.3711 -2.5267 0.9568
7.0393 -8.1238 -2.5263 0.9568
7.3237 -7.8662 -2.5260 0.9568
7.5986 -7.5986 -2.5256 0.9568
7.8635 -7.3212 -2.5251 0.9568
8.3626 -6.7390 -2.5241 0.9568
9.0290 -5.8026 -2.5224 0.9569
9.2281 -5.4753 -2.5218 0.9569
9.7527 -4.4539 -2.5198 0.9569
9.9026 -4.1018 -2.5191 0.9569
10.0398 -3.7446 -2.5184 0.9569
10.2750 -3.0170 -2.5168 0.9570
10.3728 -2.6475 -2.5160 0.9570
10.4573 -2.2748 -2.5152 0.9570
10.5283 -1.8995 -2.5143 0.9570
10.5858 -1.5220 -2.5135 0.9570
10.6297 -1.1428 -2.5126 0.9570
10.6600 -0.7624 -2.5117 0.9570
-9.6258 -0.3438 -2.4939 0.9610
-9.6106 -0.6874 -2.4947 0.9610
-9.5832 -1.0303 -2.4956 0.9610
-9.5436 -1.3722 -2.4964 0.9609
-9.4918 -1.7125 -2.4973 0.9609
-9.4279 -2.0509 -2.4981 0.9609
-9.3519 -2.3869 -2.4990 0.9609
-8.9295 -3.6987 -2.5025 0.9609
-8.7948 -4.0165 -2.5034 0.9608
-7.7560 -5.8061 -2.5085 0.9608
-7.3269 -6.3488 -2.5102 0.9607
-6.8597 -6.8597 -2.5118 0.9607
-6.6125 -7.1024 -2.5126 0.9607
-6.3568 -7.3361 -2.5133 0.9607
-6.0927 -7.5606 -2.5141 0.9607
-5.5411 -7.9806 -2.5156 0.9607
-4.6600 -8.5342 -2.5176 0.9606
-4.3536 -8.6973 -2.5183 0.9606
-4.0414 -8.8493 -2.5189 0.9606
-3.7238 -8.9901 -2.5195 0.9606
-3.4014 -9.1194 -2.5201 0.9606
-2.4086 -9.4366 -2.5216 0.9606
-2.0706 -9.5184 -2.5221 0.9606
-1.7298 -9.5879 -2.5226 0.9605
-1.3868 -9.6452 -2.5230 0.9605
-0.6954 -9.7225 -2.5237 0.9605
-0.3480 -9.7424 -2.5241 0.9605
1.3880 -9.6541 -2.5253 0.9605
2.0735 -9.5315 -2.5256 0.9605
2.4124 -9.4517 -2.5257 0.9605
2.7483 -9.3598 -2.5257 0.9605
3.0807 -9.2559 -2.5258 0.9605
3.4090 -9.1400 -2.5258 0.9605
3.7330 -9.0124 -2.5257 0.9605
4.0522 -8.8732 -2.5257 0.9605
4.3662 -8.7225 -2.5256 0.9605
4.6745 -8.5607 -2.5254 0.9605
4.9767 -8.3879 -2.5253 0.9605
5.8433 -7.8057 -2.5246 0.9605
6.1175 -7.5913 -2.5243 0.9605
6.3837 -7.3672 -2.5240 0.9605
6.8911 -6.8911 -2.5233 0.9605
7.1315 -6.6397 -2.5229 0.9605
7.3627 -6.3798 -2.5224 0.9605
7.7962 -5.8361 -2.5215 0.9606
8.1892 -5.2629 -2.5205 0.9606
8.6989 -4.3543 -2.5187 0.9606
8.8465 -4.0401 -2.5181 0.9606
8.9827 -3.7208 -2.5174 0.9606
9.1074 -3.3969 -2.5168 0.9606
9.2203 -3.0688 -2.5161 0.9606
9.4104 -2.4019 -2.5146 0.9607
9.5520 -1.7234 -2.5131 0.9607
9.6446 -1.0369 -2.5115 0.9607
9.6724 -0.6918 -2.5107 0.9607
9.6878 -0.3460 -2.5099 0.9607
-8.8089 0.0000 -2.4937 0.9640
-8.8060 -0.3145 -2.4945 0.9640
-8.7665 -0.9425 -2.4960 0.9640
-8.6823 -1.5665 -2.4976 0.9640
-8.4732 -2.4880 -2.5000 0.9640
-8.2794 -3.0881 -2.5016 0.9639
-8.1665 -3.3827 -2.5024 0.9639
-8.0431 -3.6732 -2.5032 0.9639
-7.7655 -4.2403 -2.5048 0.9639
-7.4479 -4.7865 -2.5063 0.9639
-6.8999 -5.5603 -2.5086 0.9638
-6.4896 -6.0420 -2.5101 0.9638
-5.8115 -6.7068 -2.5123 0.9638
-5.5699 -6.9119 -2.5130 0.9638
-5.3211 -7.1082 -2.5136 0.9638
-4.2597 -7.8010 -2.5162 0.9637
-3.4037 -8.2172 -2.5179 0.9637
-2.8100 -8.4425 -2.5189 0.9637
-2.5073 -8.5391 -2.5194 0.9637
-1.8924 -8.6993 -2.5203 0.9637
-0.3180 -8.9034 -2.5221 0.9636
-0.0000 -8.9101 -2.5224 0.9636
0.9527 -8.8614 -2.5231 0.9636
1.5826 -8.7719 -2.5234 0.9636
1.8948 -8.7102 -2.5235 0.9636
3.1153 -8.3524 -2.5236 0.9636
3.4114 -8.2358 -2.5236 0.9636
3.9900 -7.9710 -2.5234 0.9636
4.5480 -7.6652 -2.5232 0.9636
5.8340 -6.7328 -2.5220 0.9636
6.5177 -6.0681 -2.5210 0.9637
6.9317 -5.5859 -2.5202 0.9637
7.1254 -5.3340 -2.5197 0.9637
7.3099 -5.0754 -2.5193 0.9637
7.4850 -4.8103 -2.5188 0.9637
7.6503 -4.5391 -2.5183 0.9637
8.3252 -3.1051 -2.5154 0.9637
8.5212 -2.5020 -2.5141 0.9638
8.7809 -1.2625 -2.5114 0.9638
8.8578 -0.3164 -2.5092 0.9638
-8.1095 0.0000 -2.4943 0.9666
-8.1066 -0.2895 -2.4950 0.9666
-7.9920 -1.4419 -2.4979 0.9666
-7.9378 -1.7267 -2.4986 0.9666
-7.8734 -2.0096 -2.4993 0.9666
-7.7989 -2.2900 -2.5001 0.9666
-7.6202 -2.8422 -2.5015 0.9665
-7.4024 -3.3805 -2.5030 0.9665
-6.8539 -4.4047 -2.5059 0.9665
-6.6942 -4.6479 -2.5066 0.9665
-6.3491 -5.1164 -2.5080 0.9665
-6.1642 -5.3413 -2.5087 0.9664
-5.9712 -5.5594 -2.5094 0.9664
-5.7705 -5.7705 -2.5101 0.9664
-3.6608 -7.3134 -2.5155 0.9664
-2.0249 -7.9334 -2.5184 0.9663
-1.4542 -8.0601 -2.5191 0.9663
-0.8757 -8.1455 -2.5198 0.9663
-0.5845 -8.1726 -2.5201 0.9663
-0.2925 -8.1891 -2.5204 0.9663
-0.0000 -8.1952 -2.5207 0.9663
0.2925 -8.1907 -2.5209 0.9663
0.8762 -8.1503 -2.5213 0.9663
1.1667 -8.1143 -2.5214 0.9663
2.0276 -7.9441 -2.5218 0.9663
2.5892 -7.7794 -2.5218 0.9663
3.1376 -7.5748 -2.5218 0.9663
3.4058 -7.4578 -2.5217 0.9663
3.6697 -7.3312 -2.5217 0.9663
4.1830 -7.0500 -2.5214 0.9663
4.9115 -6.5610 -2.5208 0.9663
5.5830 -5.9965 -2.5200 0.9663
5.7927 -5.7927 -2.5197 0.9663
5.9950 -5.5815 -2.5194 0.9663
6.1895 -5.3632 -2.5190 0.9663
6.3760 -5.1381 -2.5187 0.9663
6.5543 -4.9065 -2.5182 0.9663
7.3145 -3.6614 -2.5159 0.9663
7.4389 -3.3972 -2.5154 0.9664
7.6590 -2.8566 -2.5143 0.9664
7.7542 -2.5809 -2.5137 0.9664
7.8396 -2.3019 -2.5131 0.9664
7.9799 -1.7359 -2.5118 0.9664
8.0347 -1.4496 -2.5112 0.9664
8.0792 -1.1616 -2.5105 0.9664
8.1134 -0.8723 -2.5099 0.9664
8.1505 -0.2911 -2.5085 0.9664
-7.5054 0.0000 -2.4948 0.9689
-7.5025 -0.2679 -2.4955 0.9689
-7.4682 -0.8029 -2.4968 0.9688
-7.4367 -1.0692 -2.4974 0.9688
-7.2857 -1.8596 -2.4995 0.9688
-7.2167 -2.1190 -2.5001 0.9688
-7.1384 -2.3759 -2.5008 0.9688
-7.0509 -2.6299 -2.5015 0.9688
-6.8491 -3.1279 -2.5029 0.9688
-6.7349 -3.3712 -2.5035 0.9688
-6.4807 -3.8452 -2.5049 0.9687
-6.1932 -4.3000 -2.5062 0.9687
-5.8737 -4.7333 -2.5075 0.9687
-5.3381 -5.3381 -2.5094 0.9687
-5.1454 -5.5266 -2.5100 0.9687
-4.7403 -5.8823 -2.5112 0.9687
-3.6245 -6.6377 -2.5139 0.9686
-3.1430 -6.8821 -2.5149 0.9686
-2.8958 -6.9912 -2.5154 0.9686
-2.6449 -7.0914 -2.5158 0.9686
-2.3906 -7.1825 -2.5163 0.9686
-1.3449 -7.4541 -2.5178 0.9686
-1.0781 -7.4983 -2.5181 0.9686
0.5407 -7.5606 -2.5196 0.9686
1.0789 -7.5037 -2.5199 0.9686
2.3944 -7.1939 -2.5203 0.9685
2.9014 -7.0047 -2.5202 0.9685
3.3936 -6.7795 -2.5201 0.9685
4.0982 -6.3769 -2.5197 0.9686
4.5420 -6.0674 -2.5194 0.9686
5.3571 -5.3571 -2.5183 0.9686
5.7241 -4.9600 -2.5177 0.9686
6.2188 -4.3178 -2.5166 0.9686
6.3679 -4.0924 -2.5161 0.9686
6.5087 -3.8618 -2.5157 0.9686
6.6412 -3.6264 -2.5153 0.9686
6.9868 -2.8940 -2.5138 0.9686
7.1724 -2.3872 -2.5127 0.9686
7.2514 -2.1292 -2.5122 0.9686
7.3212 -1.8686 -2.5116 0.9687
7.4737 -1.0746 -2.5098 0.9687
7.5276 -0.5384 -2.5086 0.9687
-6.9777 -0.0000 -2.4953 0.9708
-6.9749 -0.2491 -2.4959 0.9708
-6.9427 -0.7464 -2.4971 0.9708
-6.8282 -1.4854 -2.4989 0.9708
-6.7083 -1.9697 -2.5002 0.9707
-6.4642 -2.6775 -2.5021 0.9707
-6.3661 -2.9073 -2.5027 0.9707
-6.2598 -3.1335 -2.5034 0.9707
-6.1455 -3.3557 -2.5040 0.9707
-5.8934 -3.7875 -2.5052 0.9707
-5.4588 -4.3989 -2.5070 0.9707
-4.5963 -5.3044 -2.5099 0.9706
-4.4050 -5.4662 -2.5105 0.9706
-4.0055 -5.7690 -2.5115 0.9706
-3.7978 -5.9095 -2.5120 0.9706
-3.3678 -6.1677 -2.5130 0.9706
-2.9203 -6.3946 -2.5139 0.9706
-2.6907 -6.4959 -2.5144 0.9706
-2.4575 -6.5889 -2.5148 0.9706
-2.2211 -6.6734 -2.5152 0.9706
-1.7399 -6.8169 -2.5159 0.9706
-1.4957 -6.8756 -2.5163 0.9706
-1.2495 -6.9255 -2.5166 0.9705
-0.7524 -6.9986 -2.5172 0.9705
-0.2513 -7.0359 -2.5177 0.9705
0.5024 -7.0241 -2.5183 0.9705
0.7528 -7.0021 -2.5184 0.9705
1.0023 -6.9712 -2.5186 0.9705
1.7419 -6.8248 -2.5188 0.9705
2.2244 -6.6833 -2.5189 0.9705
2.4615 -6.5997 -2.5189 0.9705
4.0162 -5.7844 -2.5182 0.9705
4.4179 -5.4823 -2.5178 0.9705
4.9771 -4.9771 -2.5171 0.9705
5.1510 -4.7958 -2.5168 0.9705
5.4786 -4.4150 -2.5162 0.9706
5.9166 -3.8024 -2.5151 0.9706
6.0476 -3.5882 -2.5147 0.9706
6.3931 -2.9196 -2.5134 0.9706
6.4920 -2.6891 -2.5129 0.9706
6.6647 -2.2182 -2.5119 0.9706
6.9749 -0.7499 -2.5086 0.9706
6.9956 -0.5003 -2.5081 0.9706
7.0073 -0.2503 -2.5075 0.9707
-6.5096 -0.2325 -2.4962 0.9725
-6.4987 -0.4648 -2.4968 0.9725
-6.4519 -0.9276 -2.4979 0.9725
-6.3723 -1.3862 -2.4991 0.9725
-6.3202 -1.6131 -2.4997 0.9724
-6.1919 -2.0609 -2.5008 0.9724
-5.6203 -3.3347 -2.5044 0.9724
-5.4989 -3.5340 -2.5049 0.9724
-5.2352 -3.9190 -2.5061 0.9724
-4.9445 -4.2844 -2.5072 0.9724
-4.7895 -4.4591 -2.5077 0.9724
-4.1095 -5.0996 -2.5098 0.9723
-3.7367 -5.3819 -2.5108 0.9723
-3.3445 -5.6369 -2.5118 0.9723
-3.1418 -5.7537 -2.5122 0.9723
-2.9349 -5.8632 -2.5127 0.9723
-2.7242 -5.9652 -2.5131 0.9723
-2.0719 -6.2251 -2.5142 0.9723
-1.8487 -6.2960 -2.5146 0.9723
-1.1655 -6.4600 -2.5155 0.9723
-0.7018 -6.5281 -2.5161 0.9723
-0.4684 -6.5496 -2.5163 0.9723
-0.2344 -6.5627 -2.5166 0.9723
-0.0000 -6.5675 -2.5168 0.9723
0.7022 -6.5311 -2.5173 0.9723
0.9349 -6.5022 -2.5174 0.9723
1.1664 -6.4650 -2.5175 0.9723
1.3965 -6.4194 -2.5176 0.9723
2.5142 -6.0697 -2.5177 0.9722
3.1483 -5.7657 -2.5175 0.9723
3.9359 -5.2578 -2.5169 0.9723
4.3003 -4.9628 -2.5165 0.9723
4.6425 -4.6425 -2.5160 0.9723
4.8047 -4.4734 -2.5158 0.9723
4.9608 -4.2985 -2.5155 0.9723
5.2535 -3.9327 -2.5148 0.9723
5.7563 -3.1432 -2.5134 0.9723
5.9639 -2.7236 -2.5125 0.9723
6.1408 -2.2904 -2.5116 0.9723
6.2175 -2.0694 -2.5112 0.9723
6.2862 -1.8458 -2.5107 0.9723
6.3469 -1.6199 -2.5102 0.9723
6.3994 -1.3921 -2.5097 0.9723
6.4436 -1.1626 -2.5092 0.9723
6.5074 -0.6996 -2.5081 0.9724
6.5268 -0.4668 -2.5076 0.9724
-6.0986 0.0000 -2.4960 0.9740
-6.0856 -0.4352 -2.4970 0.9740
-6.0081 -1.0840 -2.4987 0.9740
-5.9669 -1.2980 -2.4992 0.9740
-5.8616 -1.7211 -2.5003 0.9739
-5.6478 -2.3394 -2.5020 0.9739
-5.5620 -2.5401 -2.5025 0.9739
-5.2620 -3.1221 -2.5042 0.9739
-5.0280 -3.4910 -2.5052 0.9739
-4.7682 -3.8424 -2.5063 0.9739
-4.6290 -4.0110 -2.5068 0.9739
-4.4838 -4.1745 -2.5073 0.9739
-4.3328 -4.3328 -2.5078 0.9739
-4.1762 -4.4856 -2.5083 0.9739
-3.6749 -4.9091 -2.5098 0.9738
-3.1307 -5.2766 -2.5111 0.9738
-2.9409 -5.3858 -2.5115 0.9738
-1.9394 -5.8268 -2.5134 0.9738
-1.7304 -5.8931 -2.5137 0.9738
-1.3059 -6.0030 -2.5143 0.9738
-1.0909 -6.0465 -2.5146 0.9738
-0.8745 -6.0822 -2.5149 0.9738
-0.6569 -6.1101 -2.5151 0.9738
-0.0000 -6.1469 -2.5158 0.9738
0.4386 -6.1320 -2.5161 0.9738
0.8750 -6.0857 -2.5163 0.9738
1.0917 -6.0508 -2.5164 0.9738
1.5207 -5.9579 -2.5166 0.9738
1.7324 -5.8999 -2.5166 0.9738
1.9418 -5.8343 -2.5166 0.9738
2.3531 -5.6809 -2.5166 0.9738
2.5543 -5.5932 -2.5166 0.9738
2.9467 -5.3964 -2.5164 0.9738
3.3238 -5.1720 -2.5162 0.9738
3.6839 -4.9211 -2.5159 0.9738
4.1878 -4.4980 -2.5153 0.9738
4.3453 -4.3453 -2.5151 0.9738
5.0449 -3.5027 -2.5136 0.9738
5.1660 -3.3200 -2.5133 0.9738
5.3881 -2.9422 -2.5126 0.9738
5.4889 -2.7475 -2.5122 0.9738
5.5826 -2.5495 -2.5118 0.9738
5.6691 -2.3482 -2.5114 0.9738
5.7483 -2.1440 -2.5110 0.9738
5.8202 -1.9371 -2.5105 0.9738
5.8846 -1.7279 -2.5101 0.9738
5.9414 -1.5165 -2.5096 0.9738
5.9906 -1.3032 -2.5092 0.9739
6.0660 -0.8722 -2.5082 0.9739
6.0920 -0.6550 -2.5077 0.9739
6.1103 -0.4370 -2.5072 0.9739
6.1207 -0.2186 -2.5067 0.9739
-5.7155 -0.4088 -2.4973 0.9753
-5.6984 -0.6126 -2.4978 0.9753
-5.6741 -0.8158 -2.4983 0.9753
-5.6425 -1.0180 -2.4988 0.9753
-5.5578 -1.4185 -2.4998 0.9753
-5.5048 -1.6163 -2.5004 0.9753
-5.3777 -2.0058 -2.5014 0.9753
-5.2230 -2.3853 -2.5024 0.9753
-5.1356 -2.5707 -2.5029 0.9753
-4.6023 -3.4452 -2.5055 0.9752
-4.4772 -3.6080 -2.5060 0.9752
-4.2101 -3.9197 -2.5069 0.9752
-3.7690 -4.3497 -2.5083 0.9752
-3.2842 -4.7301 -2.5096 0.9752
-3.1138 -4.8452 -2.5101 0.9752
-2.7611 -5.0566 -2.5109 0.9752
-2.5792 -5.1527 -2.5112 0.9752
-2.3940 -5.2422 -2.5116 0.9752
-1.6245 -5.5325 -2.5129 0.9752
-1.2259 -5.6356 -2.5135 0.9751
-1.0241 -5.6764 -2.5138 0.9751
-0.6167 -5.7360 -2.5143 0.9751
-0.4116 -5.7549 -2.5145 0.9751
-0.2060 -5.7664 -2.5147 0.9751
-0.0000 -5.7705 -2.5149 0.9751
0.6169 -5.7384 -2.5153 0.9751
1.4275 -5.5929 -2.5156 0.9751
2.7662 -5.0658 -2.5155 0.9751
3.2914 -4.7405 -2.5151 0.9751
3.4583 -4.6197 -2.5150 0.9751
3.6207 -4.4930 -2.5148 0.9751
3.9314 -4.2226 -2.5144 0.9751
4.2219 -3.9307 -2.5140 0.9751
4.3590 -3.7771 -2.5137 0.9751
4.4906 -3.6187 -2.5134 0.9751
4.6164 -3.4558 -2.5132 0.9752
4.9574 -2.9414 -2.5122 0.9752
5.1532 -2.5795 -2.5115 0.9752
5.2412 -2.3936 -2.5111 0.9752
5.3225 -2.2047 -2.5108 0.9752
5.3969 -2.0130 -2.5104 0.9752
5.6956 -0.8189 -2.5077 0.9752
5.7201 -0.6150 -2.5073 0.9752
5.7373 -0.4103 -2.5068 0.9752
5.7472 -0.2053 -2.5063 0.9752
-5.3935 0.0000 -2.4966 0.9765
-5.3911 -0.1925 -2.4970 0.9765
-5.3656 -0.5769 -2.4980 0.9765
-5.3426 -0.7681 -2.4985 0.9765
-5.2763 -1.1478 -2.4994 0.9765
-5.0632 -1.8885 -2.5014 0.9765
-4.9935 -2.0684 -2.5019 0.9765
-4.7466 -2.5918 -2.5033 0.9764
-4.5513 -2.9249 -2.5043 0.9764
-4.3327 -3.2434 -2.5052 0.9764
-3.8298 -3.8298 -2.5070 0.9764
-3.6913 -3.9647 -2.5075 0.9764
-3.5480 -4.0946 -2.5079 0.9764
-3.2480 -4.3388 -2.5087 0.9764
-2.5990 -4.7598 -2.5103 0.9764
-2.0762 -5.0124 -2.5113 0.9764
-1.8962 -5.0840 -2.5116 0.9764
-1.7138 -5.1490 -2.5120 0.9764
-1.5291 -5.2075 -2.5122 0.9764
-1.1539 -5.3045 -2.5128 0.9764
-0.9640 -5.3428 -2.5130 0.9764
-0.7727 -5.3743 -2.5133 0.9764
-0.5805 -5.3990 -2.5135 0.9763
-0.3874 -5.4167 -2.5137 0.9763
-0.1938 -5.4274 -2.5139 0.9763
-0.0000 -5.4313 -2.5141 0.9763
0.1939 -5.4281 -2.5142 0.9763
0.5807 -5.4010 -2.5145 0.9763
1.1548 -5.3086 -2.5147 0.9763
1.7157 -5.1549 -2.5148 0.9763
2.0791 -5.0193 -2.5148 0.9763
2.2569 -4.9418 -2.5148 0.9763
2.6035 -4.7680 -2.5146 0.9763
2.9368 -4.5698 -2.5144 0.9763
3.2550 -4.3481 -2.5142 0.9763
3.5564 -4.1043 -2.5138 0.9763
4.1029 -3.5552 -2.5130 0.9764
4.2268 -3.4062 -2.5127 0.9764
4.8507 -2.4281 -2.5109 0.9764
4.9336 -2.2531 -2.5105 0.9764
5.0101 -2.0753 -2.5102 0.9764
5.1438 -1.7120 -2.5094 0.9764
5.2512 -1.3403 -2.5086 0.9764
5.2948 -1.1518 -2.5082 0.9764
5.3317 -0.9619 -2.5078 0.9764
5.3617 -0.7709 -2.5074 0.9764
5.4011 -0.3863 -2.5065 0.9764
-5.0901 0.0000 -2.4968 0.9776
-5.0137 -0.9046 -2.4991 0.9776
-4.9382 -1.2604 -2.5000 0.9775
-4.8910 -1.4361 -2.5004 0.9775
-4.8375 -1.6101 -2.5009 0.9775
-4.7778 -1.7820 -2.5014 0.9775
-4.6402 -2.1191 -2.5023 0.9775
-4.5625 -2.2838 -2.5027 0.9775
-4.4789 -2.4456 -2.5032 0.9775
-4.2946 -2.7599 -2.5041 0.9775
-4.1941 -2.9120 -2.5045 0.9775
-4.0882 -3.0604 -2.5050 0.9775
-3.9770 -3.2049 -2.5054 0.9775
-3.8608 -3.3454 -2.5059 0.9775
-3.2081 -3.9810 -2.5079 0.9775
-2.4521 -4.4906 -2.5098 0.9775
-1.2664 -4.9618 -2.5119 0.9774
-1.0886 -5.0043 -2.5121 0.9774
-0.7290 -5.0701 -2.5126 0.9774
-0.3655 -5.1100 -2.5130 0.9774
0.1829 -5.1208 -2.5135 0.9774
0.5478 -5.0952 -2.5137 0.9774
1.2675 -4.9659 -2.5140 0.9774
1.4439 -4.9176 -2.5140 0.9774
1.9613 -4.7350 -2.5140 0.9774
2.1290 -4.6620 -2.5140 0.9774
2.4561 -4.4980 -2.5139 0.9774
2.9224 -4.2092 -2.5136 0.9774
3.2149 -3.9895 -2.5133 0.9774
3.4909 -3.7495 -2.5129 0.9774
3.7489 -3.4903 -2.5125 0.9774
3.9876 -3.2134 -2.5121 0.9774
4.0993 -3.0687 -2.5118 0.9774
4.2058 -2.9201 -2.5115 0.9774
4.3068 -2.7678 -2.5113 0.9774
4.4024 -2.6120 -2.5110 0.9775
4.4922 -2.4530 -2.5107 0.9775
4.5764 -2.2908 -2.5103 0.9775
4.8531 -1.6153 -2.5090 0.9775
4.9069 -1.4408 -2.5086 0.9775
4.9957 -1.0867 -2.5078 0.9775
5.1050 -0.1823 -2.5057 0.9775
-4.7882 -0.5148 -2.4983 0.9785
-4.7675 -0.6855 -2.4987 0.9785
-4.7408 -0.8553 -2.4992 0.9785
-4.6247 -1.3579 -2.5005 0.9785
-4.4553 -1.8455 -2.5018 0.9785
-4.3138 -2.1593 -2.5026 0.9785
-3.9653 -2.7532 -2.5044 0.9785
-3.6501 -3.1628 -2.5056 0.9785
-3.5355 -3.2916 -2.5060 0.9785
-3.4163 -3.4163 -2.5064 0.9785
-3.1648 -3.6524 -2.5072 0.9785
-2.8971 -3.8700 -2.5079 0.9785
-2.7575 -3.9715 -2.5083 0.9784
-2.6143 -4.0680 -2.5086 0.9784
-2.0098 -4.4009 -2.5099 0.9784
-1.6911 -4.5341 -2.5105 0.9784
-0.8596 -4.7647 -2.5117 0.9784
-0.6891 -4.7928 -2.5120 0.9784
-0.5176 -4.8147 -2.5121 0.9784
-0.0000 -4.8434 -2.5126 0.9784
0.1729 -4.8406 -2.5128 0.9784
0.5178 -4.8163 -2.5130 0.9784
0.6894 -4.7950 -2.5131 0.9784
1.0298 -4.7338 -2.5132 0.9784
1.1981 -4.6941 -2.5133 0.9784
1.6930 -4.5392 -2.5133 0.9784
2.4719 -4.1661 -2.5131 0.9784
2.6189 -4.0751 -2.5130 0.9784
2.9026 -3.8775 -2.5127 0.9784
3.1715 -3.6601 -2.5125 0.9784
3.2999 -3.5443 -2.5123 0.9784
3.4240 -3.4240 -2.5121 0.9784
3.5438 -3.2994 -2.5119 0.9784
3.6590 -3.1705 -2.5117 0.9784
3.7695 -3.0376 -2.5115 0.9784
3.9758 -2.7604 -2.5110 0.9784
4.0714 -2.6165 -2.5107 0.9784
4.2467 -2.3189 -2.5101 0.9784
4.3262 -2.1656 -2.5098 0.9784
4.4002 -2.0095 -2.5095 0.9784
4.6839 -1.1955 -2.5078 0.9785
4.7229 -1.0274 -2.5074 0.9785
4.7558 -0.8580 -2.5071 0.9785
4.7827 -0.6876 -2.5067 0.9785
4.8180 -0.3446 -2.5059 0.9785
4.8265 -0.1724 -2.5055 0.9785
-4.5573 -0.1628 -2.4977 0.9794
-4.5493 -0.3254 -2.4981 0.9794
-4.5356 -0.4876 -2.4985 0.9794
-4.5160 -0.6493 -2.4989 0.9794
-4.4907 -0.8102 -2.4993 0.9794
-4.4596 -0.9701 -2.4997 0.9794
-4.4229 -1.1289 -2.5001 0.9794
-4.3805 -1.2862 -2.5005 0.9794
-4.2200 -1.7480 -2.5017 0.9794
-4.1556 -1.8978 -2.5021 0.9794
-3.6608 -2.7404 -2.5046 0.9794
-3.5612 -2.8698 -2.5050 0.9794
-2.7437 -3.6651 -2.5075 0.9793
-2.4759 -3.8525 -2.5082 0.9793
-2.1953 -4.0204 -2.5089 0.9793
-2.0506 -4.0967 -2.5092 0.9793
-1.9033 -4.1677 -2.5094 0.9793
-1.7536 -4.2335 -2.5097 0.9793
-1.4474 -4.3487 -2.5103 0.9793
-1.2914 -4.3980 -2.5105 0.9793
-1.1337 -4.4417 -2.5107 0.9793
-0.4902 -4.5593 -2.5116 0.9793
-0.1637 -4.5833 -2.5119 0.9793
-0.0000 -4.5865 -2.5120 0.9793
0.3272 -4.5752 -2.5123 0.9793
0.4903 -4.5608 -2.5124 0.9793
0.8145 -4.5145 -2.5125 0.9793
1.1345 -4.4451 -2.5126 0.9793
1.2925 -4.4018 -2.5127 0.9793
1.4488 -4.3529 -2.5127 0.9793
1.7556 -4.2384 -2.5127 0.9793
1.9057 -4.1730 -2.5126 0.9793
2.0534 -4.1022 -2.5126 0.9793
2.1985 -4.0262 -2.5125 0.9793
2.3407 -3.9451 -2.5124 0.9793
2.7487 -3.6718 -2.5121 0.9793
2.8778 -3.5712 -2.5120 0.9793
3.2425 -3.2425 -2.5115 0.9793
3.3559 -3.1244 -2.5113 0.9793
3.5696 -2.8766 -2.5109 0.9793
3.7650 -2.6141 -2.5104 0.9793
3.9411 -2.3384 -2.5099 0.9793
4.0216 -2.1960 -2.5097 0.9793
4.0970 -2.0508 -2.5094 0.9793
4.1671 -1.9031 -2.5091 0.9793
4.3450 -1.4462 -2.5081 0.9793
4.5041 -0.8126 -2.5067 0.9793
4.5296 -0.6513 -2.5064 0.9793
4.5493 -0.4891 -2.5060 0.9793
4.5712 -0.1633 -2.5052 0.9794
-4.3236 -0.1544 -2.4978 0.9802
-4.2602 -0.7686 -2.4994 0.9802
-4.2307 -0.9203 -2.4997 0.9802
-4.1958 -1.0709 -2.5001 0.9802
-4.1556 -1.2202 -2.5005 0.9802
-4.1100 -1.3680 -2.5009 0.9802
-4.0032 -1.6582 -2.5017 0.9802
-3.6480 -2.3444 -2.5036 0.9802
-3.3780 -2.7222 -2.5048 0.9802
-2.8431 -3.2811 -2.5065 0.9801
-2.7245 -3.3809 -2.5069 0.9801
-2.6024 -3.4764 -2.5072 0.9801
-2.4770 -3.5676 -2.5075 0.9801
-2.3484 -3.6542 -2.5079 0.9801
-2.2167 -3.7361 -2.5082 0.9801
-2.0822 -3.8133 -2.5085 0.9801
-1.9450 -3.8856 -2.5087 0.9801
-1.8053 -3.9530 -2.5090 0.9801
-0.6189 -4.3046 -2.5108 0.9801
0.1553 -4.3474 -2.5116 0.9801
0.4651 -4.3256 -2.5118 0.9801
0.6192 -4.3064 -2.5119 0.9801
0.7725 -4.2817 -2.5119 0.9801
0.9249 -4.2515 -2.5120 0.9801
1.0760 -4.2158 -2.5120 0.9801
1.2258 -4.1748 -2.5121 0.9801
1.3741 -4.1284 -2.5121 0.9801
1.5205 -4.0767 -2.5121 0.9801
1.8075 -3.9578 -2.5120 0.9801
1.9475 -3.8907 -2.5120 0.9801
2.0851 -3.8186 -2.5119 0.9801
2.2200 -3.7416 -2.5119 0.9801
2.3521 -3.6599 -2.5118 0.9801
2.4811 -3.5735 -2.5117 0.9801
2.8484 -3.2873 -2.5113 0.9801
2.9638 -3.1833 -2.5111 0.9801
3.1829 -2.9634 -2.5108 0.9801
3.3856 -2.7283 -2.5104 0.9801
3.4806 -2.6055 -2.5102 0.9801
3.6569 -2.3501 -2.5097 0.9801
3.7381 -2.2179 -2.5095 0.9801
3.8145 -2.0829 -2.5092 0.9801
3.8860 -1.9452 -2.5089 0.9801
3.9525 -1.8050 -2.5087 0.9801
4.2076 -1.0739 -2.5071 0.9801
4.2427 -0.9229 -2.5068 0.9801
4.3152 -0.4639 -2.5058 0.9802
4.3284 -0.3096 -2.5054 0.9802
4.3361 -0.1549 -2.5050 0.9802
