ply
format ascii 1.0
element vertex 1314
property float32 x
property float32 y
property float32 z
property float32 I
end_header
-26.0968 -2.8057 4.6281 0.8989
-24.1747 -5.2589 4.3624 0.9044
-38.5383 -15.9631 7.3552 0.8441
-36.2664 -18.1537 7.1512 0.8481
-35.8282 -21.2578 7.3458 0.8443
-35.2581 -24.4802 7.5685 0.8400
-7.0310 -14.0461 2.7697 0.9382
-3.2955 -46.0774 8.1455 0.8289
-0.0000 -39.5888 6.9806 0.8515
1.3227 -37.0352 6.5345 0.8603
4.0295 -37.4797 6.6468 0.8580
7.0438 -39.0415 6.9953 0.8512
8.7719 -40.3237 7.2764 0.8457
12.3907 -42.1988 7.7549 0.8364
14.3899 -43.2347 8.0346 0.8310
16.5117 -44.2698 8.3312 0.8254
10.9308 -23.9352 4.6397 0.8986
28.6333 -33.0446 7.7098 0.8373
45.9448 -4.9396 8.1480 0.8289
41.1333 -2.9419 7.2714 0.8458
-24.1510 -5.2537 3.7863 0.9048
-43.7083 -12.8339 6.9785 0.8317
-41.6862 -13.8745 6.7305 0.8371
-39.8078 -14.8475 6.5087 0.8420
-38.0471 -15.7596 6.3088 0.8465
-35.9220 -19.6149 6.2700 0.8474
-35.4701 -21.0453 6.3183 0.8463
-34.6151 -22.2458 6.3035 0.8466
-35.0885 -24.3624 6.5440 0.8413
-36.6998 -27.4731 7.0230 0.8307
-8.2121 -11.8277 2.2057 0.9434
-3.2955 -46.0769 7.0768 0.8295
-1.5275 -42.7692 6.5562 0.8410
5.5582 -38.6581 5.9831 0.8538
7.0438 -39.0410 6.0775 0.8517
12.3905 -42.1982 6.7374 0.8370
14.3897 -43.2341 6.9804 0.8316
16.5115 -44.2692 7.2381 0.8260
18.8357 -45.4734 7.5402 0.8194
28.5816 -32.9849 6.6862 0.8381
36.4346 -10.6982 5.8172 0.8576
45.9461 -4.9397 7.0792 0.8294
40.6814 -2.9096 6.2481 0.8479
38.3172 -1.3685 5.8737 0.8563
-24.1276 -5.2486 3.2154 0.9052
-45.8777 -11.7096 6.1658 0.8261
-43.7077 -12.8337 5.9319 0.8321
-41.8628 -13.9333 5.7454 0.8370
-36.3873 -16.6175 5.2091 0.8510
-36.2546 -19.7965 5.3791 0.8465
-34.6149 -22.2457 5.3582 0.8471
-36.7009 -27.4739 5.9700 0.8312
-38.5695 -31.0813 6.4504 0.8189
-7.0203 -14.0248 2.0423 0.9387
-0.0000 -39.5867 5.1550 0.8524
2.6286 -36.7530 4.7982 0.8619
4.0294 -37.4787 4.9086 0.8589
5.5581 -38.6576 5.0858 0.8542
8.7716 -40.3226 5.3736 0.8467
12.3903 -42.1976 5.7270 0.8374
16.5113 -44.2685 6.1526 0.8265
18.8354 -45.4727 6.4094 0.8199
36.4433 -10.7007 4.9460 0.8579
40.9355 -2.9278 5.3443 0.8474
37.0843 -1.3245 4.8322 0.8610
-45.8770 -11.7094 5.0843 0.8266
-36.3868 -16.6173 4.2955 0.8514
-36.2675 -18.1542 4.3551 0.8495
-38.5187 -21.0328 4.7127 0.8382
-40.3890 -23.9639 5.0430 0.8278
-34.6147 -22.2455 4.4184 0.8474
-36.3354 -25.2282 4.7500 0.8370
-38.2113 -28.6046 5.1255 0.8253
-8.2098 -11.8244 1.5458 0.9437
-7.0150 -14.0142 1.6829 0.9389
-3.2954 -46.0759 4.9603 0.8304
-0.0000 -39.5857 4.2508 0.8528
1.3226 -37.0324 3.9791 0.8615
2.6286 -36.7525 3.9566 0.8622
4.0293 -37.4783 4.0477 0.8593
8.7715 -40.3221 4.4311 0.8470
10.4095 -40.7840 4.5199 0.8442
16.5110 -44.2678 5.0734 0.8269
10.8992 -23.8658 2.8173 0.8998
28.4775 -32.8647 4.6696 0.8395
36.4520 -10.7033 4.0795 0.8583
40.9560 -2.9293 4.4092 0.8477
38.4281 -1.3725 4.1291 0.8567
-39.4552 -16.3429 3.6152 0.8425
-36.3863 -16.6171 3.3862 0.8517
-36.2679 -18.1544 3.4333 0.8498
-38.5332 -21.0407 3.7166 0.8384
-40.4146 -23.9791 3.9781 0.8281
-34.6145 -22.2454 3.4832 0.8477
-36.3350 -25.2279 3.7446 0.8373
-38.2108 -28.6043 4.0406 0.8256
-8.2086 -11.8227 1.2184 0.9439
-7.0098 -14.0038 1.3257 0.9391
-3.2954 -46.0754 3.9104 0.8307
-1.5265 -42.7399 3.6204 0.8422
1.3226 -37.0315 3.1368 0.8618
4.0293 -37.4779 3.1909 0.8596
3.2203 -17.8489 1.5354 0.9298
8.7031 -40.0075 3.4659 0.8484
12.3900 -42.1964 3.7228 0.8382
18.8348 -45.4713 4.1664 0.8207
36.4606 -10.7058 3.2168 0.8585
45.9499 -4.9402 3.9122 0.8307
41.5956 -1.4856 3.5234 0.8461
-24.1281 -5.2487 1.5312 0.9058
-45.8756 -11.7091 2.9360 0.8272
-42.7324 -14.2227 2.7928 0.8349
-36.3859 -16.6169 2.4805 0.8519
-36.2682 -18.1546 2.5150 0.8500
-38.5033 -21.0244 2.7204 0.8388
-40.3764 -23.9564 2.9113 0.8285
-22.9746 -14.7649 1.6935 0.8963
-36.3346 -25.2276 2.7430 0.8375
-38.2104 -28.6039 2.9598 0.8259
-5.2134 -23.9658 1.5209 0.9064
-3.2953 -46.0749 2.8644 0.8310
-0.0000 -40.3300 2.5009 0.8508
2.5269 -17.5748 1.1010 0.9313
3.5444 -19.6453 1.2379 0.9231
10.4092 -40.7829 2.6100 0.8448
16.3816 -43.9210 2.9068 0.8287
28.4077 -32.7843 2.6900 0.8404
41.7494 -1.4911 2.5905 0.8458
-24.1317 -5.2495 0.9738 0.9059
-45.8749 -11.7089 1.8669 0.8273
-31.0705 -9.1231 1.2769 0.8784
-42.7331 -14.2230 1.7759 0.8350
-39.8051 -14.8465 1.6752 0.8436
-39.4567 -16.3435 1.6840 0.8429
-36.2686 -18.1548 1.5993 0.8501
-38.5438 -21.0465 1.7316 0.8388
-36.3342 -25.2273 1.7442 0.8377
-38.2100 -28.6036 1.8821 0.8261
-8.2062 -11.8192 0.5674 0.9440
-16.1932 -29.6556 1.3323 0.8735
-6.9994 -13.9830 0.6166 0.9393
-6.6117 -14.4777 0.6276 0.9383
-0.0000 -40.3290 1.5902 0.8509
1.2664 -17.7073 0.7000 0.9314
2.2045 -20.5045 0.8132 0.9208
2.5268 -17.5745 0.7001 0.9314
7.1203 -39.4652 1.5813 0.8517
10.4091 -40.7824 1.6596 0.8449
12.3896 -42.1953 1.7340 0.8386
14.3887 -43.2310 1.7966 0.8333
16.5103 -44.2658 1.8629 0.8277
10.8681 -23.7978 1.0316 0.9006
28.3852 -32.7582 1.7092 0.8407
36.4777 -10.7108 1.4991 0.8588
41.0302 -2.9346 1.6220 0.8482
40.6760 -1.4528 1.6049 0.8496
-39.8046 -14.8463 0.7176 0.8437
-36.3850 -16.6165 0.6757 0.8521
-36.3338 -25.2270 0.7472 0.8378
-38.2095 -28.6033 0.8063 0.8262
-16.2020 -29.6718 0.5711 0.8735
-1.5274 -42.7664 0.7229 0.8427
1.2683 -17.7336 0.3003 0.9313
2.6268 -18.2696 0.3118 0.9288
7.1202 -39.4647 0.6774 0.8518
8.7711 -40.3200 0.6970 0.8478
10.4089 -40.7818 0.7110 0.8450
16.5100 -44.2651 0.7980 0.8278
10.8578 -23.7753 0.4415 0.9007
45.9537 -4.9406 0.7807 0.8312
41.0297 -2.9345 0.6948 0.8483
40.6772 -1.4528 0.6876 0.8497
-24.1389 -5.2511 -0.1391 0.9059
-39.7716 -14.8340 -0.2390 0.8438
-39.4582 -16.3441 -0.2404 0.8430
-36.3845 -16.6163 -0.2252 0.8521
-36.2693 -18.1551 -0.2283 0.8502
-37.8397 -20.6620 -0.2427 0.8416
-34.6138 -22.2449 -0.2317 0.8482
-36.3334 -25.2267 -0.2490 0.8378
-38.2091 -28.6030 -0.2687 0.8262
-8.2037 -11.8156 -0.0810 0.9441
-6.9950 -13.9743 -0.0880 0.9394
-6.5730 -14.3929 -0.0891 0.9387
2.6284 -36.7504 -0.2074 0.8630
1.9746 -18.3668 -0.1040 0.9288
2.6211 -18.2299 -0.1037 0.9290
8.7709 -40.3195 -0.2323 0.8478
10.4088 -40.7813 -0.2370 0.8451
15.7008 -42.0956 -0.2530 0.8355
10.8476 -23.7529 -0.1471 0.9008
28.3402 -32.7064 -0.2436 0.8410
35.2785 -35.2786 -0.2809 0.8191
41.0291 -2.9345 -0.2316 0.8483
-24.1425 -5.2519 -0.6957 0.9059
-42.7354 -14.2237 -1.2682 0.8351
-39.0328 -14.5585 -1.1730 0.8465
-39.4590 -16.3444 -1.2026 0.8429
-36.2697 -18.1553 -1.1421 0.8502
-33.6072 -19.9401 -1.1003 0.8552
-36.3330 -25.2265 -1.2455 0.8378
-8.2024 -11.8138 -0.4050 0.9441
-16.2199 -29.7045 -0.9530 0.8733
-6.5539 -14.3510 -0.4442 0.9388
-3.2309 -45.1744 -1.2753 0.8342
-0.0000 -40.3258 -1.1355 0.8510
1.2305 -34.4526 -0.9707 0.8711
2.6284 -36.7500 -1.0374 0.8629
1.9746 -18.3665 -0.5201 0.9287
2.6210 -18.2297 -0.5186 0.9290
7.1200 -39.4637 -1.1292 0.8517
10.4087 -40.7807 -1.1851 0.8450
12.3891 -42.1935 -1.2382 0.8386
14.3880 -43.2291 -1.2829 0.8333
15.7005 -42.0949 -1.2650 0.8355
10.8374 -23.7306 -0.7346 0.9009
35.2781 -35.2781 -1.4048 0.8190
44.2160 -4.7537 -1.2522 0.8370
-31.8178 0.0000 -1.6136 0.8804
-46.2444 -1.6516 -2.3467 0.8308
-24.1461 -5.2526 -1.2532 0.9058
-45.5794 -11.6335 -2.3856 0.8283
-45.2514 -13.2870 -2.3918 0.8279
-39.0873 -14.5788 -2.1157 0.8461
-39.4597 -16.3448 -2.1661 0.8428
-36.3836 -16.6158 -2.0285 0.8520
-38.0399 -20.7713 -2.1980 0.8406
-33.5662 -19.9157 -1.9794 0.8553
-34.6134 -22.2447 -2.0866 0.8481
-36.3326 -25.2262 -2.2432 0.8377
-37.5909 -30.2927 -2.4484 0.8242
-36.5441 -31.6656 -2.4523 0.8239
-35.4435 -32.9991 -2.4559 0.8237
-33.0894 -35.5405 -2.4627 0.8233
-31.8376 -36.7425 -2.4656 0.8231
-16.1546 -25.1371 -1.5154 0.8872
-16.3558 -27.5661 -1.6255 0.8795
-9.2103 -27.6724 -1.4791 0.8898
-13.7763 -46.9179 -2.4799 0.8221
-12.0898 -47.3673 -2.4792 0.8222
-10.3875 -47.7505 -2.4783 0.8222
-6.9469 -48.3168 -2.4755 0.8224
-4.9863 -46.3789 -2.3656 0.8296
-3.2309 -45.1739 -2.2968 0.8341
-1.5254 -42.7100 -2.1674 0.8427
-0.0000 -40.2167 -2.0396 0.8512
7.1088 -39.4014 -2.0305 0.8518
5.3679 -24.6757 -1.2807 0.9038
10.3921 -40.7157 -2.1311 0.8451
12.3696 -42.1269 -2.2266 0.8387
10.8272 -23.7082 -1.3218 0.9009
14.7835 -29.5337 -1.6749 0.8761
24.1590 -40.7178 -2.4011 0.8273
20.8511 -32.4449 -1.9559 0.8569
29.9017 -32.1168 -2.2254 0.8388
33.1696 -33.1696 -2.3789 0.8287
38.8679 -31.3217 -2.5315 0.8188
40.9830 -28.4551 -2.5303 0.8189
42.8847 -25.4447 -2.5289 0.8190
43.7525 -23.8907 -2.5281 0.8190
45.3162 -20.6953 -2.5265 0.8191
43.8062 -16.3389 -2.3711 0.8292
44.3454 -14.7596 -2.3702 0.8293
35.3203 -10.3710 -1.8669 0.8629
35.8866 -9.1595 -1.8783 0.8621
45.6160 -9.9232 -2.3675 0.8295
45.9225 -8.2853 -2.3665 0.8295
46.1697 -6.6382 -2.3655 0.8296
44.2172 -4.7539 -2.2554 0.8368
38.0007 -1.3572 -1.9284 0.8587
-31.7384 0.0000 -2.3271 0.8805
-31.9017 -1.1394 -2.3406 0.8798
-24.1497 -5.2534 -1.8121 0.9056
-31.0577 -7.9270 -2.3502 0.8794
-30.8087 -9.0462 -2.3543 0.8792
-29.8128 -12.3488 -2.3660 0.8786
-29.3989 -13.4260 -2.3697 0.8784
-28.9447 -14.4887 -2.3733 0.8783
-27.9166 -16.5637 -2.3801 0.8779
-18.6400 -11.9792 -1.6246 0.9150
-26.0864 -19.5281 -2.3893 0.8775
-23.9276 -22.2774 -2.3971 0.8771
-20.5837 -25.5428 -2.4053 0.8767
-19.3146 -25.8013 -2.3632 0.8787
-16.1110 -25.0692 -2.1850 0.8873
-13.9235 -23.4668 -2.0007 0.8963
-13.0586 -23.9150 -1.9979 0.8965
-7.0003 -13.9849 -1.1467 0.9392
-6.5158 -14.2675 -1.1501 0.9390
-11.8456 -28.5978 -2.2696 0.8832
-8.1376 -31.8829 -2.4127 0.8764
-6.9927 -32.1448 -2.4120 0.8764
-5.8390 -32.3632 -2.4113 0.8764
-4.6782 -32.5378 -2.4103 0.8765
-3.5122 -32.6683 -2.4091 0.8765
-1.1714 -32.7967 -2.4063 0.8767
2.3358 -32.6582 -2.4007 0.8769
2.6195 -18.2190 -1.3496 0.9288
5.7963 -32.1268 -2.3936 0.8773
9.1649 -31.2129 -2.3852 0.8777
9.9072 -23.9180 -1.8982 0.9014
9.5548 -20.9221 -1.6865 0.9119
12.6395 -23.1475 -1.9338 0.8996
18.4399 -26.5584 -2.3707 0.8784
19.3746 -25.8814 -2.3705 0.8784
23.4509 -25.1880 -2.5234 0.8711
25.9987 -22.5280 -2.5224 0.8711
26.7820 -21.5823 -2.5220 0.8711
27.5307 -20.6093 -2.5216 0.8712
30.1604 -16.4689 -2.5196 0.8713
31.2447 -14.2690 -2.5185 0.8713
31.7267 -13.1417 -2.5179 0.8713
32.1678 -11.9980 -2.5173 0.8714
32.4784 -10.8099 -2.5098 0.8717
31.2171 -7.9677 -2.3623 0.8788
31.4730 -6.8465 -2.3616 0.8788
17.6717 -2.5408 -1.3091 0.9309
31.9969 -3.4400 -2.3596 0.8789
32.0897 -2.2951 -2.3589 0.8789
-25.9746 0.0000 -2.4937 0.9009
-25.9643 -0.9273 -2.4943 0.9009
-25.8809 -1.8510 -2.4910 0.9010
-24.1691 -3.4750 -2.3442 0.9065
-22.8612 -4.9731 -2.2461 0.9103
-23.4523 -6.8862 -2.3466 0.9065
-23.1976 -7.7209 -2.3472 0.9064
-22.5993 -9.3610 -2.3484 0.9064
-22.2566 -10.1643 -2.3490 0.9064
-19.1582 -12.3122 -2.1864 0.9126
-19.6893 -14.7392 -2.3612 0.9059
-19.1675 -15.4462 -2.3633 0.9058
-18.6194 -16.1338 -2.3653 0.9057
-17.4471 -17.4471 -2.3688 0.9056
-13.6784 -14.6916 -1.9271 0.9225
-14.8221 -19.8000 -2.3745 0.9054
-8.1986 -11.8083 -1.3801 0.9439
-13.3833 -20.8248 -2.3766 0.9053
-11.8710 -21.7402 -2.3781 0.9053
-8.6610 -23.2210 -2.3794 0.9052
-7.8265 -23.5150 -2.3793 0.9052
-6.9817 -23.7776 -2.3791 0.9052
-6.1278 -24.0084 -2.3788 0.9052
-4.3975 -24.3737 -2.3778 0.9053
-3.5237 -24.5076 -2.3770 0.9053
-0.0000 -24.7155 -2.3728 0.9055
0.8816 -24.6854 -2.3714 0.9055
1.7610 -24.6225 -2.3699 0.9056
1.9745 -18.3656 -1.7734 0.9285
4.3745 -24.2462 -2.3653 0.9057
6.9421 -23.6428 -2.3657 0.9057
7.7818 -23.3806 -2.3657 0.9057
8.6115 -23.0883 -2.3658 0.9057
9.4302 -22.7665 -2.3658 0.9057
11.8094 -21.6273 -2.3657 0.9057
13.0400 -21.9778 -2.4534 0.9024
16.4598 -20.4254 -2.5184 0.9000
17.1771 -19.8234 -2.5182 0.9000
19.1923 -17.8687 -2.5175 0.9000
20.4135 -16.4503 -2.5169 0.9000
23.4233 -11.7249 -2.5148 0.9001
23.8228 -10.8795 -2.5143 0.9001
24.1916 -10.0205 -2.5139 0.9001
24.5293 -9.1490 -2.5134 0.9001
24.8355 -8.2660 -2.5129 0.9002
25.0996 -7.3699 -2.5114 0.9002
24.0056 -5.2221 -2.3586 0.9060
24.1715 -4.3610 -2.3580 0.9060
17.6718 -2.5408 -1.7140 0.9308
24.4101 -2.6244 -2.3570 0.9061
24.4827 -1.7511 -2.3565 0.9061
-20.9953 -0.7498 -2.4955 0.9189
-20.8966 -2.2466 -2.4965 0.9188
-20.8073 -2.9916 -2.4970 0.9188
-20.6914 -3.7331 -2.4975 0.9188
-19.0295 -5.5876 -2.3559 0.9232
-18.7509 -6.2409 -2.3475 0.9235
-18.2655 -7.5658 -2.3484 0.9235
-17.6866 -8.8533 -2.3494 0.9234
-16.2601 -11.2896 -2.3514 0.9234
-14.9692 -12.9709 -2.3528 0.9233
-13.5049 -14.5053 -2.3542 0.9233
-11.8836 -15.8747 -2.3555 0.9232
-8.1451 -11.7312 -1.6965 0.9441
-10.7253 -16.6889 -2.3565 0.9232
-10.1256 -17.0657 -2.3571 0.9232
-9.5122 -17.4202 -2.3577 0.9232
-7.0039 -13.9921 -1.8587 0.9389
-7.5986 -18.3447 -2.3586 0.9231
-6.9393 -18.6050 -2.3587 0.9231
-5.5957 -19.0571 -2.3593 0.9231
-3.5278 -19.5534 -2.3602 0.9231
-2.8280 -19.6690 -2.3604 0.9231
-2.1244 -19.7595 -2.3607 0.9231
-0.7095 -19.8646 -2.3611 0.9231
-0.0000 -19.8790 -2.3613 0.9230
0.7096 -19.8678 -2.3615 0.9230
2.8298 -19.6821 -2.3620 0.9230
4.2271 -19.4318 -2.3622 0.9230
4.9182 -19.2693 -2.3623 0.9230
5.6030 -19.0820 -2.3624 0.9230
7.0414 -18.8786 -2.3934 0.9220
8.7971 -19.2630 -2.5155 0.9182
9.4792 -18.9371 -2.5155 0.9182
10.8056 -18.2119 -2.5154 0.9182
11.4484 -17.8140 -2.5154 0.9182
13.8643 -16.0003 -2.5149 0.9183
14.4256 -15.4942 -2.5147 0.9183
15.4917 -14.4233 -2.5143 0.9183
15.9953 -13.8600 -2.5141 0.9183
17.3799 -12.0671 -2.5133 0.9183
17.7975 -11.4378 -2.5130 0.9183
18.9109 -9.4661 -2.5121 0.9183
19.5326 -8.0907 -2.5114 0.9184
20.0539 -6.6746 -2.5106 0.9184
20.2761 -5.9536 -2.5102 0.9184
17.6717 -2.5408 -2.1207 0.9306
19.8088 -0.7075 -2.3545 0.9233
-17.4481 -2.5087 -2.4976 0.9313
-17.3504 -3.1304 -2.4981 0.9313
-16.7399 -5.5716 -2.4998 0.9312
-16.5333 -6.1666 -2.5002 0.9312
-14.2646 -8.4636 -2.3501 0.9352
-13.9558 -8.9689 -2.3505 0.9352
-12.9238 -10.4146 -2.3517 0.9351
-12.1519 -11.3139 -2.3525 0.9351
-11.3176 -12.1559 -2.3533 0.9351
-10.8782 -12.5541 -2.3537 0.9351
-10.4248 -12.9364 -2.3540 0.9351
-9.9580 -13.3023 -2.3544 0.9351
-8.1295 -11.7087 -2.0197 0.9440
-8.9863 -13.9830 -2.3551 0.9351
-8.4827 -14.2969 -2.3554 0.9350
-7.1030 -13.0082 -2.1000 0.9419
-5.6867 -13.7289 -2.1055 0.9417
-5.2539 -15.7856 -2.3573 0.9350
-4.6877 -15.9649 -2.3575 0.9350
-4.1153 -16.1238 -2.3578 0.9350
-1.1877 -16.6062 -2.3589 0.9350
-0.5943 -16.6392 -2.3591 0.9349
0.5943 -16.6415 -2.3594 0.9349
3.0297 -16.7926 -2.4177 0.9334
3.7288 -17.1411 -2.4855 0.9316
4.3811 -17.1649 -2.5101 0.9309
4.9970 -17.0181 -2.5131 0.9309
5.6013 -16.8292 -2.5131 0.9309
6.7877 -16.3871 -2.5132 0.9308
7.3683 -16.1343 -2.5132 0.9308
7.9394 -15.8609 -2.5131 0.9309
8.5003 -15.5672 -2.5131 0.9309
9.0504 -15.2536 -2.5131 0.9309
9.5888 -14.9205 -2.5130 0.9309
10.1149 -14.5682 -2.5129 0.9309
10.6280 -14.1974 -2.5128 0.9309
11.1275 -13.8084 -2.5127 0.9309
11.6127 -13.4018 -2.5126 0.9309
12.0829 -12.9780 -2.5124 0.9309
12.9763 -12.0814 -2.5121 0.9309
13.8030 -11.1232 -2.5117 0.9309
14.1900 -10.6225 -2.5115 0.9309
14.5588 -10.1083 -2.5113 0.9309
14.9088 -9.5813 -2.5110 0.9309
15.2398 -9.0422 -2.5108 0.9309
15.8426 -7.9302 -2.5102 0.9309
16.1137 -7.3589 -2.5100 0.9309
16.5935 -6.1891 -2.5093 0.9310
16.8017 -5.5921 -2.5090 0.9310
17.3854 -3.1367 -2.5031 0.9311
16.4493 -2.3651 -2.3546 0.9351
16.5207 -1.7762 -2.3543 0.9351
16.5710 -1.1852 -2.3539 0.9351
-15.1552 0.0000 -2.4967 0.9404
-15.1477 -0.5410 -2.4970 0.9404
-15.1209 -1.0815 -2.4974 0.9404
-15.0748 -1.6207 -2.4977 0.9404
-14.9251 -2.6928 -2.4984 0.9404
-14.6993 -3.7518 -2.4992 0.9404
-14.3985 -4.7923 -2.4999 0.9403
-14.2205 -5.3040 -2.5003 0.9403
-13.8100 -6.3068 -2.5011 0.9403
-13.5781 -6.7967 -2.5014 0.9403
-12.7793 -8.2127 -2.5025 0.9403
-12.4588 -8.6503 -2.4987 0.9404
-11.5712 -9.3246 -2.4481 0.9415
-10.5698 -9.8409 -2.3791 0.9431
-10.0968 -10.0968 -2.3523 0.9438
-9.7313 -10.4522 -2.3526 0.9438
-9.3533 -10.7943 -2.3530 0.9437
-8.9633 -11.1228 -2.3533 0.9437
-8.1135 -11.6856 -2.3436 0.9440
-7.7260 -12.0219 -2.3542 0.9437
-6.8503 -12.5455 -2.3548 0.9437
-6.3990 -12.7835 -2.3550 0.9437
-5.9393 -13.0052 -2.3553 0.9437
-4.0297 -13.7238 -2.3563 0.9437
-2.0388 -14.1799 -2.3600 0.9436
-1.0496 -14.6753 -2.4238 0.9421
0.5432 -15.2096 -2.5072 0.9402
2.7065 -15.0011 -2.5112 0.9401
3.2403 -14.8954 -2.5112 0.9401
3.7700 -14.7706 -2.5113 0.9401
4.2949 -14.6270 -2.5114 0.9401
4.8143 -14.4646 -2.5114 0.9401
6.3330 -13.8673 -2.5114 0.9401
6.8238 -13.6323 -2.5114 0.9401
8.2415 -12.8241 -2.5113 0.9401
8.6938 -12.5214 -2.5112 0.9401
9.1348 -12.2027 -2.5111 0.9401
10.7765 -10.7765 -2.5107 0.9401
11.5164 -9.9791 -2.5104 0.9401
12.1973 -9.1308 -2.5100 0.9401
12.8155 -8.2360 -2.5096 0.9401
13.6187 -6.8171 -2.5089 0.9401
13.8520 -6.3260 -2.5087 0.9401
14.0675 -5.8270 -2.5084 0.9401
14.2650 -5.3206 -2.5081 0.9401
14.7469 -3.7639 -2.5073 0.9402
14.8701 -3.2348 -2.5070 0.9402
14.9742 -2.7016 -2.5067 0.9402
15.0535 -2.1644 -2.5054 0.9402
14.8265 -1.5940 -2.4566 0.9413
-13.2144 -1.4207 -2.4981 0.9473
-13.1569 -1.8917 -2.4984 0.9473
-12.9918 -2.8262 -2.4991 0.9473
-12.7604 -3.7468 -2.4997 0.9473
-12.6202 -4.2004 -2.5000 0.9473
-12.4639 -4.6488 -2.5004 0.9473
-11.9003 -5.9569 -2.5014 0.9473
-11.4480 -6.7924 -2.5020 0.9473
-11.1997 -7.1976 -2.5024 0.9473
-10.6605 -7.9804 -2.5030 0.9472
-10.0666 -8.7228 -2.5036 0.9472
-9.4210 -9.4210 -2.5043 0.9472
-8.3630 -10.3778 -2.5052 0.9472
-6.7939 -11.4505 -2.5026 0.9473
-5.5319 -12.1133 -2.5030 0.9472
-5.0974 -12.3062 -2.5037 0.9472
-4.6566 -12.4849 -2.5046 0.9472
-2.3697 -13.1342 -2.5086 0.9471
-1.8995 -13.2114 -2.5088 0.9471
-1.4269 -13.2716 -2.5089 0.9471
-0.9523 -13.3149 -2.5091 0.9471
-0.4765 -13.3412 -2.5092 0.9471
3.3025 -12.9391 -2.5100 0.9471
4.2173 -12.6709 -2.5101 0.9471
4.6669 -12.5124 -2.5101 0.9471
5.1105 -12.3379 -2.5101 0.9471
5.5477 -12.1477 -2.5101 0.9471
5.9777 -11.9418 -2.5101 0.9471
6.8142 -11.4847 -2.5100 0.9471
7.2196 -11.2339 -2.5100 0.9471
7.6158 -10.9688 -2.5099 0.9471
8.7438 -10.0909 -2.5097 0.9471
9.0980 -9.7719 -2.5096 0.9471
9.4405 -9.4405 -2.5095 0.9471
9.7710 -9.0971 -2.5093 0.9471
10.9634 -7.6121 -2.5087 0.9471
11.2273 -7.2154 -2.5085 0.9471
11.4769 -6.8095 -2.5083 0.9471
11.7117 -6.3950 -2.5081 0.9471
12.3249 -5.1052 -2.5075 0.9472
12.6553 -4.2121 -2.5070 0.9472
12.9209 -3.2979 -2.5065 0.9472
13.1204 -2.3672 -2.5059 0.9472
13.2656 -0.9488 -2.4998 0.9473
-11.7881 -0.8431 -2.4981 0.9528
-11.7518 -1.2635 -2.4984 0.9528
-11.7005 -1.6823 -2.4987 0.9528
-11.5533 -2.5133 -2.4993 0.9528
-11.4576 -2.9244 -2.4995 0.9528
-11.3472 -3.3319 -2.4998 0.9528
-11.2224 -3.7352 -2.5001 0.9528
-11.0832 -4.1338 -2.5004 0.9528
-10.9299 -4.5273 -2.5007 0.9528
-10.5816 -5.2968 -2.5013 0.9528
-10.3870 -5.6717 -2.5016 0.9528
-10.1791 -6.0396 -2.5019 0.9528
-7.4350 -9.2263 -2.5047 0.9527
-6.7593 -9.7352 -2.5052 0.9527
-4.9257 -10.7857 -2.5064 0.9527
-4.1444 -11.1115 -2.5068 0.9527
-3.3416 -11.3806 -2.5072 0.9527
-2.1064 -11.6750 -2.5077 0.9527
-1.6885 -11.7435 -2.5079 0.9527
-1.2683 -11.7970 -2.5080 0.9526
-0.4235 -11.8587 -2.5083 0.9526
0.8466 -11.8376 -2.5086 0.9526
2.5230 -11.5981 -2.5089 0.9526
2.9354 -11.5009 -2.5090 0.9526
3.7485 -11.2625 -2.5091 0.9526
4.1481 -11.1216 -2.5091 0.9526
4.5425 -10.9665 -2.5091 0.9526
4.9310 -10.7973 -2.5091 0.9526
6.7693 -9.7496 -2.5089 0.9526
7.1128 -9.5016 -2.5089 0.9526
7.4472 -9.2414 -2.5088 0.9526
8.0869 -8.6859 -2.5086 0.9526
8.6852 -8.0862 -2.5084 0.9526
9.4982 -7.1103 -2.5080 0.9526
9.7454 -6.7664 -2.5078 0.9527
10.4107 -5.6847 -2.5073 0.9527
11.1103 -4.1439 -2.5065 0.9527
11.2501 -3.7444 -2.5063 0.9527
11.3756 -3.3402 -2.5061 0.9527
11.5827 -2.5197 -2.5056 0.9527
11.6641 -2.1044 -2.5054 0.9527
11.7306 -1.6866 -2.5051 0.9527
11.7822 -1.2667 -2.5049 0.9527
11.8186 -0.8453 -2.5046 0.9527
-10.6283 0.0000 -2.4979 0.9573
-10.6226 -0.3794 -2.4981 0.9573
-10.3055 -2.6303 -2.4997 0.9572
-10.2061 -2.9968 -2.4999 0.9572
-10.0937 -3.3595 -2.5002 0.9572
-9.6798 -4.4206 -2.5010 0.9572
-9.3418 -5.1010 -2.5015 0.9572
-9.1547 -5.4317 -2.5018 0.9572
-8.9560 -5.7556 -2.5020 0.9572
-8.7457 -6.0723 -2.5023 0.9572
-8.2920 -6.6821 -2.5028 0.9572
-7.5324 -7.5324 -2.5036 0.9572
-6.0782 -8.7543 -2.5048 0.9572
-5.7624 -8.9664 -2.5050 0.9571
-5.1089 -9.3563 -2.5054 0.9571
-4.4292 -9.6985 -2.5058 0.9571
-3.7265 -9.9913 -2.5062 0.9571
-3.3678 -10.1186 -2.5064 0.9571
-3.0047 -10.2331 -2.5065 0.9571
-2.2673 -10.4227 -2.5069 0.9571
-1.8940 -10.4976 -2.5070 0.9571
-1.1404 -10.6072 -2.5073 0.9571
-0.7611 -10.6417 -2.5074 0.9571
-0.0000 -10.6698 -2.5076 0.9571
0.3808 -10.6634 -2.5077 0.9571
1.1407 -10.6098 -2.5079 0.9571
1.5187 -10.5627 -2.5080 0.9571
2.6393 -10.3405 -2.5082 0.9571
3.3703 -10.1261 -2.5082 0.9571
3.7296 -9.9994 -2.5082 0.9571
4.0841 -9.8600 -2.5083 0.9571
4.4335 -9.7079 -2.5082 0.9571
5.4456 -9.1782 -2.5082 0.9571
5.7697 -8.9778 -2.5081 0.9571
6.0863 -8.7660 -2.5081 0.9571
6.3952 -8.5429 -2.5080 0.9571
6.6958 -8.3090 -2.5080 0.9571
6.9879 -8.0645 -2.5079 0.9571
7.2711 -7.8097 -2.5078 0.9571
7.8091 -7.2705 -2.5076 0.9571
8.3071 -6.6943 -2.5074 0.9571
8.7625 -6.0839 -2.5071 0.9571
9.5368 -4.7738 -2.5065 0.9571
9.9903 -3.7262 -2.5059 0.9571
10.1161 -3.3670 -2.5058 0.9571
10.4155 -2.2658 -2.5051 0.9571
10.5487 -1.5167 -2.5047 0.9572
10.5952 -1.1391 -2.5045 0.9572
10.6281 -0.7601 -2.5042 0.9572
10.6474 -0.3803 -2.5040 0.9572
-9.6257 -0.6884 -2.4986 0.9609
-9.5538 -1.3736 -2.4991 0.9609
-9.3548 -2.3877 -2.4998 0.9609
-9.2645 -2.7203 -2.5000 0.9609
-9.0486 -3.3749 -2.5005 0.9609
-8.9232 -3.6961 -2.5007 0.9609
-8.1291 -5.2242 -2.5019 0.9609
-5.2298 -8.1377 -2.5046 0.9608
-4.9364 -8.3198 -2.5048 0.9608
-4.6366 -8.4914 -2.5050 0.9608
-4.3309 -8.6521 -2.5052 0.9608
-4.0197 -8.8018 -2.5053 0.9608
-3.7032 -8.9403 -2.5055 0.9608
-3.0564 -9.1829 -2.5059 0.9608
-2.3938 -9.3787 -2.5062 0.9608
-2.0576 -9.4587 -2.5063 0.9608
-1.7188 -9.5267 -2.5064 0.9608
-0.3456 -9.6761 -2.5069 0.9608
0.6908 -9.6587 -2.5072 0.9608
1.3782 -9.5853 -2.5073 0.9608
1.7194 -9.5302 -2.5074 0.9608
3.0584 -9.1891 -2.5075 0.9608
3.3845 -9.0741 -2.5076 0.9608
4.0232 -8.8096 -2.5076 0.9608
4.3351 -8.6603 -2.5076 0.9608
4.6414 -8.5000 -2.5075 0.9608
4.9417 -8.3289 -2.5075 0.9608
5.2358 -8.1471 -2.5075 0.9608
6.0763 -7.5402 -2.5073 0.9608
6.3414 -7.3183 -2.5072 0.9608
6.5983 -7.0871 -2.5072 0.9608
6.8469 -6.8469 -2.5071 0.9608
7.0866 -6.5979 -2.5070 0.9608
7.3173 -6.3405 -2.5069 0.9608
7.5386 -6.0750 -2.5068 0.9608
7.9520 -5.5212 -2.5065 0.9608
8.1436 -5.2336 -2.5064 0.9608
8.4952 -4.6388 -2.5061 0.9608
8.6549 -4.3323 -2.5060 0.9608
8.8034 -4.0204 -2.5058 0.9608
8.9407 -3.7034 -2.5056 0.9608
9.0666 -3.3817 -2.5055 0.9608
9.1809 -3.0557 -2.5053 0.9608
9.3741 -2.3926 -2.5049 0.9608
9.4528 -2.0563 -2.5047 0.9608
9.5194 -1.7175 -2.5045 0.9608
9.5738 -1.3765 -2.5043 0.9608
9.6637 -0.3451 -2.5037 0.9608
-8.8205 -0.3150 -2.4986 0.9640
-8.7384 -1.2564 -2.4992 0.9640
-8.5563 -2.1839 -2.4999 0.9640
-8.2760 -3.0868 -2.5005 0.9639
-8.1612 -3.3805 -2.5007 0.9639
-7.7552 -4.2346 -2.5014 0.9639
-7.5997 -4.5091 -2.5016 0.9639
-7.4346 -4.7779 -2.5018 0.9639
-7.2599 -5.0407 -2.5021 0.9639
-7.0760 -5.2970 -2.5023 0.9639
-6.6812 -5.7893 -2.5027 0.9639
-6.2522 -6.2522 -2.5031 0.9639
-5.3005 -7.0806 -2.5039 0.9639
-4.7826 -7.4418 -2.5043 0.9639
-4.5142 -7.6083 -2.5045 0.9639
-4.2401 -7.7652 -2.5046 0.9639
-3.6758 -8.0489 -2.5050 0.9639
-1.2598 -8.7624 -2.5061 0.9639
-0.3160 -8.8480 -2.5064 0.9639
0.0000 -8.8539 -2.5065 0.9639
0.3160 -8.8486 -2.5066 0.9639
0.6317 -8.8319 -2.5066 0.9639
1.8823 -8.6529 -2.5069 0.9639
2.1900 -8.5804 -2.5069 0.9639
2.4949 -8.4968 -2.5069 0.9639
2.7966 -8.4024 -2.5070 0.9639
3.0947 -8.2973 -2.5070 0.9639
3.3889 -8.1816 -2.5070 0.9639
3.6788 -8.0554 -2.5070 0.9639
3.9639 -7.9190 -2.5070 0.9639
4.2440 -7.7724 -2.5070 0.9639
4.5187 -7.6159 -2.5069 0.9639
4.7876 -7.4496 -2.5069 0.9639
6.0336 -6.4805 -2.5066 0.9639
6.6910 -5.7978 -2.5064 0.9639
6.8934 -5.5551 -2.5063 0.9639
7.0870 -5.3053 -2.5062 0.9639
7.4467 -4.7857 -2.5059 0.9639
7.9144 -3.9617 -2.5055 0.9639
8.1759 -3.3866 -2.5052 0.9639
8.2910 -3.0924 -2.5051 0.9639
8.3956 -2.7943 -2.5049 0.9639
8.4894 -2.4927 -2.5047 0.9639
8.6444 -1.8805 -2.5044 0.9639
8.7054 -1.5706 -2.5042 0.9639
8.8376 -0.3156 -2.5034 0.9639
-8.1040 -0.5796 -2.4990 0.9666
-8.0432 -1.1564 -2.4994 0.9666
-7.9974 -1.4429 -2.4995 0.9666
-7.9414 -1.7276 -2.4997 0.9666
-7.8754 -2.0101 -2.4999 0.9666
-7.7131 -2.5672 -2.5003 0.9666
-7.6172 -2.8411 -2.5005 0.9665
-7.5116 -3.1114 -2.5008 0.9665
-7.3963 -3.3778 -2.5010 0.9665
-7.2716 -3.6399 -2.5012 0.9665
-6.9946 -4.1501 -2.5016 0.9665
-6.8425 -4.3974 -2.5018 0.9665
-6.3347 -5.1049 -2.5023 0.9665
-6.1490 -5.3281 -2.5025 0.9665
-5.9553 -5.5446 -2.5027 0.9665
-5.3297 -6.1508 -2.5033 0.9665
-3.6448 -7.2813 -2.5045 0.9665
-3.3827 -7.4072 -2.5046 0.9665
-3.1164 -7.5237 -2.5048 0.9665
-2.8460 -7.6305 -2.5049 0.9665
-2.2947 -7.8150 -2.5052 0.9665
-1.7315 -7.9595 -2.5054 0.9665
-0.8708 -8.1001 -2.5058 0.9665
-0.5812 -8.1263 -2.5059 0.9665
0.8710 -8.1016 -2.5062 0.9665
1.4468 -8.0192 -2.5063 0.9665
2.5735 -7.7320 -2.5065 0.9665
2.8478 -7.6353 -2.5065 0.9665
3.1185 -7.5288 -2.5065 0.9665
3.3853 -7.4127 -2.5065 0.9665
3.6477 -7.2871 -2.5065 0.9665
4.1582 -7.0082 -2.5064 0.9665
4.4056 -6.8553 -2.5064 0.9665
4.8833 -6.5233 -2.5063 0.9665
5.3360 -6.1580 -2.5062 0.9665
5.5522 -5.9635 -2.5062 0.9665
6.1573 -5.3353 -2.5059 0.9665
6.3436 -5.1120 -2.5058 0.9665
6.6916 -4.6460 -2.5056 0.9665
6.8528 -4.4040 -2.5055 0.9665
7.0053 -4.1565 -2.5054 0.9665
7.1489 -3.9036 -2.5053 0.9665
7.2833 -3.6457 -2.5052 0.9665
7.4083 -3.3833 -2.5050 0.9665
7.6300 -2.8458 -2.5047 0.9665
7.8126 -2.2940 -2.5044 0.9665
7.8890 -2.0135 -2.5043 0.9665
7.9553 -1.7306 -2.5041 0.9665
8.0115 -1.4454 -2.5039 0.9665
8.0574 -1.1585 -2.5038 0.9665
8.0931 -0.8701 -2.5036 0.9665
8.1184 -0.5806 -2.5034 0.9665
-7.5172 0.0000 -2.4988 0.9688
-7.4991 -0.5364 -2.4991 0.9688
-7.4757 -0.8037 -2.4993 0.9688
-7.4004 -1.3352 -2.4996 0.9688
-7.3485 -1.5986 -2.4998 0.9688
-7.2873 -1.8600 -2.5000 0.9688
-7.2169 -2.1191 -2.5002 0.9688
-7.1371 -2.3755 -2.5004 0.9688
-6.9505 -2.8790 -2.5008 0.9688
-6.7284 -3.3680 -2.5011 0.9688
-6.6044 -3.6063 -2.5013 0.9688
-6.4720 -3.8400 -2.5015 0.9688
-6.3313 -4.0689 -2.5017 0.9688
-6.1825 -4.2926 -2.5019 0.9688
-6.0258 -4.5108 -2.5021 0.9688
-5.3240 -5.3240 -2.5028 0.9688
-4.2955 -6.1868 -2.5036 0.9688
-3.8437 -6.4782 -2.5039 0.9687
-3.6102 -6.6117 -2.5041 0.9687
-3.3722 -6.7367 -2.5042 0.9687
-3.1297 -6.8532 -2.5043 0.9687
-2.8833 -6.9609 -2.5045 0.9687
-2.6331 -7.0598 -2.5046 0.9687
-2.1230 -7.2303 -2.5049 0.9687
-1.6019 -7.3640 -2.5051 0.9687
-1.3381 -7.4168 -2.5052 0.9687
-1.0726 -7.4602 -2.5053 0.9687
-0.8057 -7.4940 -2.5054 0.9687
-0.5377 -7.5182 -2.5055 0.9687
0.0000 -7.5379 -2.5056 0.9687
0.2691 -7.5333 -2.5057 0.9687
0.8058 -7.4953 -2.5058 0.9687
1.0729 -7.4619 -2.5059 0.9687
1.6025 -7.3666 -2.5060 0.9687
1.8644 -7.3048 -2.5060 0.9687
2.1240 -7.2337 -2.5060 0.9687
2.6347 -7.0638 -2.5061 0.9687
3.1319 -6.8579 -2.5061 0.9687
3.3747 -6.7417 -2.5061 0.9687
3.8470 -6.4837 -2.5060 0.9687
4.2996 -6.1926 -2.5060 0.9687
4.9366 -5.6972 -2.5058 0.9687
5.6965 -4.9361 -2.5055 0.9687
5.8689 -4.7295 -2.5055 0.9687
6.1909 -4.2984 -2.5053 0.9687
6.4812 -3.8455 -2.5051 0.9687
6.6140 -3.6115 -2.5049 0.9687
6.7384 -3.3730 -2.5048 0.9687
6.8542 -3.1302 -2.5047 0.9687
7.0593 -2.6330 -2.5044 0.9687
7.1484 -2.3792 -2.5043 0.9687
7.2283 -2.1224 -2.5042 0.9687
7.2990 -1.8630 -2.5040 0.9687
7.4550 -1.0719 -2.5036 0.9688
-6.9878 -0.0000 -2.4989 0.9708
-6.9838 -0.2494 -2.4991 0.9707
-6.9709 -0.4986 -2.4992 0.9707
-6.8791 -1.2411 -2.4997 0.9707
-6.7739 -1.7289 -2.5001 0.9707
-6.7084 -1.9698 -2.5002 0.9707
-6.6343 -2.2081 -2.5004 0.9707
-6.5517 -2.4437 -2.5006 0.9707
-6.1389 -3.3521 -2.5013 0.9707
-5.7466 -3.9900 -2.5018 0.9707
-5.6009 -4.1928 -2.5020 0.9707
-5.4481 -4.3903 -2.5021 0.9707
-5.2882 -4.5823 -2.5023 0.9707
-4.7691 -5.1223 -2.5028 0.9707
-4.5835 -5.2896 -2.5029 0.9707
-4.3920 -5.4502 -2.5031 0.9707
-4.1949 -5.6038 -2.5033 0.9707
-3.9925 -5.7503 -2.5034 0.9707
-3.3555 -6.1452 -2.5038 0.9707
-3.1342 -6.2614 -2.5040 0.9707
-2.4473 -6.5615 -2.5043 0.9707
-1.9732 -6.7200 -2.5046 0.9707
-1.7321 -6.7865 -2.5047 0.9707
-0.7488 -6.9650 -2.5051 0.9707
-0.0000 -7.0058 -2.5053 0.9707
0.2501 -7.0015 -2.5054 0.9707
0.9971 -6.9351 -2.5055 0.9707
1.2440 -6.8952 -2.5056 0.9707
1.4894 -6.8465 -2.5056 0.9707
2.2127 -6.6482 -2.5057 0.9707
2.4486 -6.5651 -2.5057 0.9707
2.6814 -6.4735 -2.5057 0.9707
2.9108 -6.3737 -2.5057 0.9707
3.1364 -6.2657 -2.5057 0.9707
3.3580 -6.1497 -2.5057 0.9707
3.5753 -6.0259 -2.5057 0.9707
3.9960 -5.7553 -2.5056 0.9707
4.5881 -5.2949 -2.5055 0.9707
4.7740 -5.1277 -2.5054 0.9707
5.1274 -4.7738 -2.5053 0.9707
5.4546 -4.3956 -2.5051 0.9707
5.6078 -4.1980 -2.5050 0.9707
5.8926 -3.7869 -2.5049 0.9707
6.2628 -3.1349 -2.5045 0.9707
6.3704 -2.9093 -2.5044 0.9707
6.4699 -2.6799 -2.5043 0.9707
6.7840 -1.7315 -2.5038 0.9707
6.8411 -1.4882 -2.5037 0.9707
6.9291 -0.9962 -2.5034 0.9707
6.9598 -0.7483 -2.5032 0.9707
-6.5212 0.0000 -2.4990 0.9725
-6.5053 -0.4653 -2.4993 0.9724
-6.4195 -1.1582 -2.4998 0.9724
-6.3745 -1.3867 -2.5000 0.9724
-6.3214 -1.6134 -2.5001 0.9724
-6.2601 -1.8381 -2.5003 0.9724
-6.1138 -2.2803 -2.5006 0.9724
-5.6136 -3.3307 -2.5014 0.9724
-5.2264 -3.9125 -2.5019 0.9724
-5.0838 -4.0968 -2.5020 0.9724
-4.7792 -4.4496 -2.5024 0.9724
-4.6176 -4.6176 -2.5025 0.9724
-4.2769 -4.9358 -2.5028 0.9724
-3.9143 -5.2290 -2.5031 0.9724
-3.5317 -5.4955 -2.5034 0.9724
-3.1310 -5.7340 -2.5036 0.9724
-2.9245 -5.8424 -2.5038 0.9724
-2.2835 -6.1224 -2.5041 0.9724
-2.0637 -6.2003 -2.5042 0.9724
-1.8411 -6.2703 -2.5043 0.9724
-1.3892 -6.3862 -2.5045 0.9724
-0.9302 -6.4695 -2.5047 0.9724
-0.6987 -6.4987 -2.5048 0.9724
-0.4663 -6.5197 -2.5049 0.9724
-0.2333 -6.5324 -2.5049 0.9724
-0.0000 -6.5368 -2.5050 0.9724
0.4663 -6.5204 -2.5051 0.9724
0.6988 -6.4997 -2.5052 0.9724
0.9304 -6.4708 -2.5052 0.9724
1.3896 -6.3881 -2.5053 0.9724
1.6168 -6.3345 -2.5053 0.9724
2.5019 -6.0401 -2.5054 0.9724
2.9264 -5.8462 -2.5054 0.9724
3.3360 -5.6224 -2.5053 0.9724
3.5345 -5.4997 -2.5053 0.9724
4.1019 -5.0902 -2.5052 0.9724
4.2809 -4.9405 -2.5052 0.9724
4.4544 -4.7844 -2.5051 0.9724
4.7842 -4.4542 -2.5050 0.9724
5.2324 -3.9170 -2.5048 0.9724
5.8437 -2.9251 -2.5043 0.9724
5.9441 -2.7146 -2.5042 0.9724
6.1221 -2.2834 -2.5040 0.9724
6.1994 -2.0633 -2.5038 0.9724
6.2688 -1.8407 -2.5037 0.9724
6.3834 -1.3886 -2.5035 0.9724
6.4655 -0.9296 -2.5032 0.9724
6.4942 -0.6982 -2.5031 0.9724
6.5147 -0.4659 -2.5029 0.9724
-6.1063 0.0000 -2.4991 0.9740
-6.1027 -0.2180 -2.4993 0.9740
-6.0914 -0.4357 -2.4994 0.9740
-6.0723 -0.6529 -2.4996 0.9739
-6.0110 -1.0845 -2.4999 0.9739
-5.9688 -1.2985 -2.5000 0.9739
-5.9190 -1.5107 -2.5002 0.9739
-5.8617 -1.7211 -2.5003 0.9739
-5.6451 -2.3383 -2.5008 0.9739
-5.4646 -2.7354 -2.5011 0.9739
-5.3638 -2.9289 -2.5012 0.9739
-5.1418 -3.3044 -2.5015 0.9739
-5.0209 -3.4861 -2.5017 0.9739
-4.8936 -3.6633 -2.5018 0.9739
-4.7600 -3.8358 -2.5020 0.9739
-4.1666 -4.4752 -2.5025 0.9739
-4.0044 -4.6213 -2.5027 0.9739
-3.4880 -5.0237 -2.5031 0.9739
-3.3067 -5.1453 -2.5032 0.9739
-2.7381 -5.4700 -2.5036 0.9739
-2.5412 -5.5646 -2.5037 0.9739
-1.9321 -5.8051 -2.5040 0.9739
-1.7237 -5.8706 -2.5041 0.9739
-1.5132 -5.9286 -2.5042 0.9739
-1.3006 -5.9790 -2.5043 0.9739
-1.0865 -6.0218 -2.5044 0.9739
-0.8709 -6.0570 -2.5045 0.9739
-0.2184 -6.1159 -2.5047 0.9739
-0.0000 -6.1199 -2.5047 0.9739
0.2184 -6.1162 -2.5048 0.9739
0.6542 -6.0853 -2.5049 0.9739
0.8710 -6.0581 -2.5049 0.9739
1.3010 -5.9807 -2.5050 0.9739
1.5137 -5.9305 -2.5050 0.9739
1.7244 -5.8728 -2.5051 0.9739
2.1390 -5.7348 -2.5051 0.9739
2.3423 -5.6549 -2.5051 0.9739
2.5427 -5.5677 -2.5051 0.9739
2.9334 -5.3720 -2.5051 0.9739
3.1232 -5.2639 -2.5050 0.9739
3.3091 -5.1490 -2.5050 0.9739
3.6679 -4.8997 -2.5050 0.9739
4.0079 -4.6254 -2.5049 0.9739
4.6250 -4.0076 -2.5047 0.9739
4.8988 -3.6672 -2.5045 0.9739
5.1476 -3.3082 -2.5044 0.9739
5.2622 -3.1222 -2.5043 0.9739
5.3701 -2.9323 -2.5042 0.9739
5.5652 -2.5415 -2.5040 0.9739
5.7318 -2.1379 -2.5038 0.9739
5.8042 -1.9318 -2.5037 0.9739
5.8692 -1.7234 -2.5035 0.9739
5.9267 -1.5127 -2.5034 0.9739
6.0535 -0.8704 -2.5030 0.9739
6.0996 -0.4363 -2.5028 0.9739
6.1109 -0.2183 -2.5026 0.9739
-5.7346 0.0000 -2.4992 0.9753
-5.7313 -0.2047 -2.4994 0.9753
-5.7206 -0.4092 -2.4995 0.9753
-5.6450 -1.0185 -2.4999 0.9753
-5.5048 -1.6163 -2.5003 0.9753
-5.3760 -2.0052 -2.5006 0.9753
-5.3013 -2.1959 -2.5008 0.9753
-5.2199 -2.3838 -2.5009 0.9753
-5.1318 -2.5688 -2.5011 0.9753
-4.9360 -2.9287 -2.5013 0.9753
-4.8286 -3.1031 -2.5015 0.9753
-4.7150 -3.2737 -2.5016 0.9753
-4.5954 -3.4401 -2.5018 0.9753
-4.4700 -3.6021 -2.5019 0.9753
-4.2021 -3.9123 -2.5022 0.9753
-4.0600 -4.0600 -2.5023 0.9753
-3.9127 -4.2025 -2.5024 0.9753
-3.7604 -4.3397 -2.5026 0.9753
-3.6033 -4.4714 -2.5027 0.9753
-3.1051 -4.8316 -2.5031 0.9753
-2.9308 -4.9396 -2.5032 0.9752
-2.7528 -5.0413 -2.5033 0.9752
-2.5712 -5.1366 -2.5034 0.9752
-2.3863 -5.2253 -2.5035 0.9752
-2.1984 -5.3074 -2.5036 0.9752
-1.8143 -5.4511 -2.5038 0.9752
-1.4209 -5.5671 -2.5040 0.9752
-1.2213 -5.6144 -2.5041 0.9752
-1.0202 -5.6546 -2.5042 0.9752
-0.8177 -5.6876 -2.5042 0.9752
0.2051 -5.7431 -2.5046 0.9752
0.4100 -5.7323 -2.5046 0.9752
0.6143 -5.7141 -2.5046 0.9752
2.0085 -5.3850 -2.5048 0.9752
2.3876 -5.2280 -2.5048 0.9752
2.7544 -5.0444 -2.5048 0.9752
2.9327 -4.9428 -2.5048 0.9752
3.2778 -4.7209 -2.5047 0.9752
3.6061 -4.4749 -2.5047 0.9752
3.7635 -4.3433 -2.5046 0.9752
3.9160 -4.2061 -2.5046 0.9752
4.0636 -4.0636 -2.5045 0.9752
4.2059 -3.9159 -2.5045 0.9752
4.3429 -3.7632 -2.5044 0.9752
4.4744 -3.6057 -2.5044 0.9752
4.6001 -3.4436 -2.5043 0.9752
4.8337 -3.1064 -2.5041 0.9752
5.0427 -2.7535 -2.5040 0.9752
5.3075 -2.1984 -2.5037 0.9752
5.5114 -1.6183 -2.5034 0.9752
5.5654 -1.4205 -2.5033 0.9752
5.6123 -1.2209 -2.5031 0.9753
5.7385 -0.2050 -2.5025 0.9753
-5.3863 -0.3852 -2.4996 0.9765
-5.3694 -0.5773 -2.4997 0.9765
-5.3456 -0.7686 -2.4998 0.9765
-5.3150 -0.9589 -2.5000 0.9765
-5.2336 -1.3358 -2.5002 0.9765
-5.1256 -1.7060 -2.5005 0.9765
-4.9146 -2.2444 -2.5009 0.9765
-4.8316 -2.4186 -2.5010 0.9765
-4.5462 -2.9216 -2.5014 0.9765
-4.4392 -3.0822 -2.5016 0.9765
-3.8224 -3.8224 -2.5022 0.9765
-3.6837 -3.9566 -2.5023 0.9765
-3.5403 -4.0858 -2.5025 0.9765
-2.7593 -4.6505 -2.5030 0.9764
-2.4207 -4.8359 -2.5033 0.9764
-2.2466 -4.9194 -2.5034 0.9764
-2.0697 -4.9967 -2.5035 0.9764
-1.8901 -5.0676 -2.5035 0.9764
-1.7081 -5.1320 -2.5036 0.9764
-0.9605 -5.3235 -2.5040 0.9764
-0.5783 -5.3788 -2.5041 0.9764
0.0000 -5.4102 -2.5043 0.9764
0.1931 -5.4068 -2.5043 0.9764
0.3860 -5.3966 -2.5044 0.9764
0.7700 -5.3555 -2.5045 0.9764
1.1501 -5.2870 -2.5045 0.9764
1.8909 -5.0697 -2.5046 0.9764
2.0706 -4.9990 -2.5046 0.9764
2.2477 -4.9219 -2.5046 0.9764
2.4220 -4.8385 -2.5046 0.9764
2.5931 -4.7489 -2.5046 0.9764
2.7609 -4.6533 -2.5046 0.9764
2.9253 -4.5518 -2.5045 0.9764
3.0858 -4.4444 -2.5045 0.9764
3.5431 -4.0889 -2.5044 0.9764
3.8256 -3.8256 -2.5043 0.9764
3.9596 -3.6866 -2.5043 0.9764
4.0886 -3.5428 -2.5042 0.9764
4.3307 -3.2419 -2.5041 0.9764
4.4435 -3.0852 -2.5040 0.9764
4.5507 -2.9246 -2.5039 0.9764
4.7474 -2.5923 -2.5038 0.9764
4.9199 -2.2469 -2.5036 0.9764
4.9968 -2.0698 -2.5035 0.9764
5.0673 -1.8900 -2.5034 0.9764
5.2397 -1.3374 -2.5031 0.9764
5.2838 -1.1494 -2.5030 0.9764
5.3213 -0.9601 -2.5029 0.9764
5.3926 -0.3857 -2.5025 0.9765
-5.0954 0.0000 -2.4994 0.9776
-5.0829 -0.3635 -2.4997 0.9776
-5.0445 -0.7253 -2.4999 0.9775
-4.9804 -1.0834 -2.5001 0.9775
-4.9388 -1.2606 -2.5003 0.9775
-4.8368 -1.6098 -2.5005 0.9775
-4.4752 -2.4437 -2.5012 0.9775
-4.3854 -2.6020 -2.5013 0.9775
-4.1890 -2.9085 -2.5015 0.9775
-3.9712 -3.2002 -2.5018 0.9775
-3.8547 -3.3401 -2.5019 0.9775
-3.3407 -3.8554 -2.5024 0.9775
-3.0574 -4.0843 -2.5026 0.9775
-2.7585 -4.2924 -2.5028 0.9775
-2.4455 -4.4786 -2.5030 0.9775
-2.2842 -4.5632 -2.5031 0.9775
-1.6117 -4.8425 -2.5035 0.9775
-1.2623 -4.9455 -2.5036 0.9775
-1.0850 -4.9875 -2.5037 0.9775
-0.7264 -5.0525 -2.5039 0.9775
-0.5457 -5.0753 -2.5039 0.9775
-0.1822 -5.1016 -2.5040 0.9775
0.3642 -5.0921 -2.5042 0.9775
0.5457 -5.0760 -2.5042 0.9775
0.9065 -5.0242 -2.5043 0.9775
1.4384 -4.8987 -2.5044 0.9775
1.9538 -4.7169 -2.5044 0.9775
2.2853 -4.5655 -2.5044 0.9775
2.7602 -4.2950 -2.5043 0.9775
2.9117 -4.1937 -2.5043 0.9775
3.2034 -3.9752 -2.5042 0.9775
3.3432 -3.8582 -2.5042 0.9775
3.7362 -3.4786 -2.5041 0.9775
3.9747 -3.2030 -2.5040 0.9775
4.0864 -3.0591 -2.5039 0.9775
4.1929 -2.9112 -2.5038 0.9775
4.5640 -2.2846 -2.5035 0.9775
4.6424 -2.1201 -2.5035 0.9775
4.7150 -1.9530 -2.5034 0.9775
4.9442 -1.2619 -2.5030 0.9775
4.9859 -1.0846 -2.5029 0.9775
5.0501 -0.7261 -2.5027 0.9775
5.0726 -0.5454 -2.5026 0.9775
5.0886 -0.3640 -2.5025 0.9775
5.0981 -0.1821 -2.5023 0.9775
-4.8180 0.0000 -2.4995 0.9785
-4.8152 -0.1720 -2.4996 0.9785
-4.7092 -1.0244 -2.5002 0.9785
-4.6246 -1.3579 -2.5004 0.9785
-4.5734 -1.5222 -2.5005 0.9785
-4.0562 -2.6068 -2.5014 0.9785
-3.7549 -3.0259 -2.5017 0.9785
-3.6446 -3.1581 -2.5018 0.9785
-3.5298 -3.2863 -2.5020 0.9785
-3.2866 -3.5301 -2.5022 0.9785
-3.0267 -3.7559 -2.5024 0.9785
-2.4618 -4.1491 -2.5028 0.9785
-2.1596 -4.3144 -2.5030 0.9785
-2.0044 -4.3889 -2.5031 0.9785
-1.8465 -4.4578 -2.5032 0.9785
-1.5239 -4.5785 -2.5033 0.9785
-1.1934 -4.6758 -2.5035 0.9785
-1.0258 -4.7156 -2.5036 0.9785
-0.5159 -4.7986 -2.5038 0.9785
-0.3443 -4.8140 -2.5038 0.9785
-0.1723 -4.8234 -2.5039 0.9785
0.0000 -4.8265 -2.5039 0.9785
0.1723 -4.8236 -2.5040 0.9785
0.3443 -4.8144 -2.5040 0.9785
0.5160 -4.7991 -2.5040 0.9785
0.6869 -4.7777 -2.5041 0.9785
1.0260 -4.7166 -2.5041 0.9785
1.1938 -4.6771 -2.5041 0.9785
1.3599 -4.6315 -2.5042 0.9785
1.5244 -4.5800 -2.5042 0.9785
1.6869 -4.5227 -2.5042 0.9785
1.8472 -4.4596 -2.5042 0.9785
2.0052 -4.3909 -2.5042 0.9785
2.3133 -4.2366 -2.5042 0.9785
2.6097 -4.0607 -2.5041 0.9785
2.7529 -3.9649 -2.5041 0.9785
2.8926 -3.8641 -2.5041 0.9785
3.0287 -3.7584 -2.5041 0.9785
3.5325 -3.2889 -2.5039 0.9785
3.7580 -3.0284 -2.5038 0.9785
3.9642 -2.7524 -2.5037 0.9785
4.0599 -2.6091 -2.5036 0.9785
4.2354 -2.3127 -2.5035 0.9785
4.3151 -2.1600 -2.5034 0.9785
4.4579 -1.8465 -2.5032 0.9785
4.5208 -1.6862 -2.5031 0.9785
4.5780 -1.5237 -2.5031 0.9785
4.7141 -1.0255 -2.5028 0.9785
4.7475 -0.8566 -2.5027 0.9785
4.7749 -0.6865 -2.5026 0.9785
4.7961 -0.5156 -2.5025 0.9785
4.8203 -0.1722 -2.5023 0.9785
-4.5637 -0.0000 -2.4996 0.9794
-4.5610 -0.1629 -2.4997 0.9794
-4.5180 -0.6496 -2.5000 0.9794
-4.4922 -0.8105 -2.5001 0.9794
-4.4606 -0.9703 -2.5002 0.9794
-4.4233 -1.1290 -2.5003 0.9794
-4.3319 -1.4418 -2.5006 0.9794
-4.2779 -1.5956 -2.5007 0.9794
-4.0833 -2.0440 -2.5010 0.9794
-4.0080 -2.1885 -2.5011 0.9794
-3.7516 -2.6048 -2.5015 0.9794
-3.6564 -2.7371 -2.5016 0.9794
-3.5565 -2.8660 -2.5017 0.9794
-3.2302 -3.2302 -2.5020 0.9794
-3.1130 -3.3436 -2.5021 0.9794
-2.8667 -3.5574 -2.5023 0.9794
-2.7380 -3.6576 -2.5024 0.9794
-2.6059 -3.7531 -2.5025 0.9794
-1.8984 -4.1569 -2.5030 0.9794
-1.5971 -4.2821 -2.5031 0.9794
-1.4433 -4.3365 -2.5032 0.9794
-1.1303 -4.4287 -2.5033 0.9794
-0.9716 -4.4663 -2.5034 0.9794
-0.8116 -4.4982 -2.5035 0.9794
-0.6505 -4.5245 -2.5035 0.9794
-0.1632 -4.5684 -2.5037 0.9794
0.1632 -4.5685 -2.5038 0.9794
0.4887 -4.5454 -2.5039 0.9794
0.6506 -4.5251 -2.5039 0.9794
0.9718 -4.4672 -2.5039 0.9794
1.1306 -4.4297 -2.5040 0.9794
1.7496 -4.2238 -2.5040 0.9794
1.8992 -4.1587 -2.5040 0.9794
2.0464 -4.0882 -2.5040 0.9794
2.3328 -3.9318 -2.5040 0.9794
2.4717 -3.8460 -2.5040 0.9794
2.7397 -3.6598 -2.5039 0.9794
3.1151 -3.3458 -2.5038 0.9794
3.2325 -3.2325 -2.5038 0.9794
3.3457 -3.1150 -2.5037 0.9794
3.4547 -2.9935 -2.5037 0.9794
3.5593 -2.8683 -2.5036 0.9794
3.6593 -2.7393 -2.5036 0.9794
3.8452 -2.4712 -2.5035 0.9794
3.9309 -2.3323 -2.5034 0.9794
4.0870 -2.0458 -2.5033 0.9794
4.1573 -1.8986 -2.5032 0.9794
4.2223 -1.7489 -2.5031 0.9794
4.3360 -1.4432 -2.5029 0.9794
4.4276 -1.1301 -2.5028 0.9794
4.4650 -0.9713 -2.5027 0.9794
4.5427 -0.4884 -2.5024 0.9794
4.5570 -0.3259 -2.5023 0.9794
-4.3269 -0.1545 -2.4997 0.9802
-4.3052 -0.4629 -2.4999 0.9802
-4.2861 -0.6163 -2.5000 0.9802
-4.2316 -0.9205 -2.5002 0.9802
-4.1833 -1.0677 -2.4927 0.9803
-4.1426 -1.2164 -2.4927 0.9803
-4.1049 -1.3662 -2.4978 0.9802
-4.0018 -1.6576 -2.5008 0.9802
-3.9402 -1.7994 -2.5009 0.9802
-3.8737 -1.9390 -2.5010 0.9802
-3.0642 -3.0642 -2.5019 0.9802
-2.9530 -3.1718 -2.5020 0.9802
-2.5974 -3.4697 -2.5023 0.9802
-2.4720 -3.5603 -2.5024 0.9802
-2.2118 -3.7279 -2.5026 0.9802
-2.0774 -3.8046 -2.5027 0.9802
-1.8008 -3.9433 -2.5029 0.9802
-1.6590 -4.0052 -2.5029 0.9802
-1.3691 -4.1136 -2.5031 0.9802
-0.9216 -4.2367 -2.5033 0.9802
-0.7699 -4.2670 -2.5033 0.9802
-0.4635 -4.3113 -2.5035 0.9802
-0.3093 -4.3252 -2.5035 0.9802
-0.1548 -4.3335 -2.5036 0.9802
0.1548 -4.3337 -2.5036 0.9802
0.3094 -4.3254 -2.5037 0.9802
0.9218 -4.2376 -2.5038 0.9802
1.5155 -4.0633 -2.5038 0.9802
1.6596 -4.0067 -2.5038 0.9802
1.8016 -3.9449 -2.5038 0.9802
2.0784 -3.8063 -2.5038 0.9802
2.2129 -3.7297 -2.5038 0.9802
2.7211 -3.3767 -2.5037 0.9802
2.8398 -3.2773 -2.5037 0.9802
2.9549 -3.1738 -2.5037 0.9802
3.0663 -3.0663 -2.5036 0.9802
3.2771 -2.8396 -2.5035 0.9802
3.3763 -2.7208 -2.5035 0.9802
3.4712 -2.5985 -2.5034 0.9802
3.6476 -2.3442 -2.5033 0.9802
3.7288 -2.2124 -2.5033 0.9802
3.8053 -2.0779 -2.5032 0.9802
3.9436 -1.8010 -2.5031 0.9802
4.1593 -1.2213 -2.5027 0.9802
4.2001 -1.0720 -2.5027 0.9802
4.2355 -0.9214 -2.5026 0.9802
4.2902 -0.6168 -2.5024 0.9802
4.3093 -0.4633 -2.5023 0.9802
4.3229 -0.3092 -2.5022 0.9802
