ply
format ascii 1.0
element vertex 1256
property float32 x
property float32 y
property float32 z
property float32 I
end_header
-22.1154 -6.4937 4.0642 0.9106
-43.4023 -14.4457 8.0658 0.8304
-41.2563 -15.3878 7.7641 0.8362
-37.5119 -17.1311 7.2715 0.8458
-35.6469 -17.8436 7.0290 0.8505
-32.5401 -22.5930 6.9851 0.8514
-4.2254 -14.3903 2.6445 0.9409
1.6481 -46.1476 8.1422 0.8290
3.0517 -42.6691 7.5429 0.8405
6.5462 -36.2833 6.5010 0.8609
8.0350 -36.9364 6.6652 0.8577
11.2610 -38.3516 7.0479 0.8501
14.8997 -39.9479 7.5178 0.8410
16.9501 -40.9212 7.8100 0.8354
19.1941 -42.0293 8.1471 0.8289
28.4635 -8.3577 5.2308 0.8865
47.6319 -1.7012 8.4042 0.8240
-22.1195 -6.4949 3.5316 0.9109
-39.2561 -16.2604 6.5093 0.8420
-37.3947 -17.0776 6.2978 0.8467
-34.0023 -18.5667 5.9349 0.8549
-33.0635 -21.2486 6.0209 0.8530
-32.5410 -22.5936 6.0689 0.8519
-31.1686 -25.1172 6.1323 0.8505
-34.0628 -31.7136 7.1298 0.8283
1.6482 -46.1490 7.0743 0.8296
4.2359 -39.4000 6.0706 0.8518
5.3122 -36.9470 5.7183 0.8598
9.7111 -38.0478 6.0156 0.8531
13.1683 -39.5645 6.3880 0.8447
14.9003 -39.9493 6.5318 0.8415
16.9499 -40.9206 6.7853 0.8359
19.1939 -42.0287 7.0782 0.8295
21.4813 -42.9142 7.3519 0.8235
29.9102 -5.3964 4.6561 0.8843
47.6285 -1.7011 7.3011 0.8246
-41.4391 -15.4560 5.7594 0.8366
-37.9221 -17.3184 5.4288 0.8452
-36.4046 -18.2228 5.3014 0.8486
-33.2743 -19.7425 5.0383 0.8555
-35.9008 -23.0721 5.5572 0.8419
-31.1693 -25.1178 5.2128 0.8509
-32.5076 -28.1680 5.6013 0.8407
-34.0637 -31.7144 6.0607 0.8288
-4.2192 -14.3693 1.9502 0.9414
-0.0000 -49.5217 6.4487 0.8189
1.6482 -46.1503 6.0136 0.8300
4.2358 -39.3991 5.1602 0.8523
5.3121 -36.9463 4.8607 0.8602
9.7114 -38.0490 5.1136 0.8535
11.2618 -38.3543 5.2053 0.8511
14.9008 -39.9508 5.5525 0.8420
16.9496 -40.9200 5.7677 0.8364
21.4810 -42.9137 6.2493 0.8240
29.9078 -5.3960 3.9575 0.8846
-22.1276 -6.4972 2.4764 0.9114
-43.4074 -14.4474 4.9126 0.8319
-39.9037 -16.5287 4.6380 0.8405
-43.5297 -19.8793 5.1387 0.8249
-36.4051 -18.2231 4.3717 0.8489
-39.4350 -21.5332 4.8247 0.8346
-36.6593 -25.4530 4.7924 0.8357
-31.8588 -23.8492 4.2734 0.8521
-31.1700 -25.1183 4.2986 0.8513
-34.0645 -31.7152 4.9979 0.8292
-4.2162 -14.3590 1.6070 0.9416
1.6482 -46.1499 4.9588 0.8305
3.0520 -42.6729 4.5940 0.8419
6.5468 -36.2867 3.9594 0.8621
8.0358 -36.9400 4.0595 0.8589
11.2622 -38.3556 4.2925 0.8514
13.1692 -39.5673 4.4779 0.8456
16.9494 -40.9195 4.7560 0.8368
19.1933 -42.0276 4.9613 0.8304
29.9054 -5.3955 3.2631 0.8849
47.6217 -1.7008 5.1170 0.8256
-22.1316 -6.4984 1.9526 0.9116
-43.4091 -14.4479 3.8729 0.8322
-39.9043 -16.5289 3.6563 0.8408
-43.5501 -19.8886 4.0529 0.8251
-39.4522 -21.5425 3.8052 0.8349
-35.9288 -23.0900 3.6154 0.8424
-31.1706 -25.1189 3.3888 0.8515
-32.5091 -28.1694 3.6414 0.8414
-34.0654 -31.7160 3.9401 0.8296
-11.9803 -20.1916 1.9875 0.9101
-4.2132 -14.3487 1.2659 0.9417
-1.7340 -24.2449 2.0576 0.9070
-0.0000 -49.5245 4.1924 0.8197
1.6482 -46.1488 3.9091 0.8308
3.0312 -42.3813 3.5969 0.8432
8.0360 -36.9412 3.2003 0.8592
9.6344 -37.7473 3.2979 0.8552
11.2626 -38.3569 3.3841 0.8517
16.9492 -40.9189 3.7493 0.8371
19.1931 -42.0270 3.9111 0.8307
21.4805 -42.9125 4.0624 0.8248
47.6184 -1.7007 4.0336 0.8259
-43.4108 -14.4485 2.8371 0.8325
-43.3578 -19.8008 2.9557 0.8261
-36.4063 -18.2237 2.5246 0.8495
-39.4242 -21.5273 2.7854 0.8353
-35.9022 -23.0730 2.6464 0.8428
-36.6413 -25.4405 2.7661 0.8363
-31.8606 -23.8506 2.4679 0.8526
-20.0570 -16.1629 1.5973 0.9019
-11.9643 -20.1647 1.4540 0.9103
-1.7319 -24.2152 1.5054 0.9073
1.6278 -45.5784 2.8281 0.8330
3.0522 -42.6754 2.6531 0.8424
4.3094 -40.0831 2.4999 0.8508
5.3118 -36.9442 2.3145 0.8611
8.0363 -36.9424 2.3444 0.8594
5.1576 -17.5654 1.1352 0.9293
6.3433 -17.0072 1.1256 0.9298
14.5069 -22.5733 1.6639 0.8980
48.6225 -1.7366 3.0170 0.8228
-22.1396 -6.5008 0.9098 0.9118
-39.9054 -16.5294 1.7032 0.8412
-28.4643 -12.9992 1.2339 0.8823
-36.4069 -18.2240 1.6054 0.8496
-39.4683 -21.5514 1.7732 0.8353
-33.2772 -19.7443 1.5257 0.8565
-35.9424 -23.0988 1.6847 0.8428
-36.7027 -25.4831 1.7619 0.8362
-31.1720 -25.1200 1.5786 0.8519
-32.5107 -28.1707 1.6962 0.8418
-34.0671 -31.7176 1.8354 0.8300
-10.9531 -20.0591 0.9012 0.9126
-20.7056 -45.3389 1.9654 0.8191
-4.2072 -14.3283 0.5888 0.9420
-1.2774 -35.7669 1.4112 0.8665
3.0523 -42.6767 1.6871 0.8426
5.3117 -36.9435 1.4717 0.8612
6.5475 -36.2901 1.4541 0.8628
3.8771 -17.8226 0.7192 0.9296
5.9073 -20.1183 0.8268 0.9195
13.1706 -39.5714 1.6445 0.8462
16.9487 -40.9178 1.7464 0.8375
21.4799 -42.9114 1.8922 0.8252
14.4851 -22.5393 1.0565 0.8983
47.6117 -1.7005 1.8786 0.8264
-39.9060 -16.5296 0.7297 0.8413
-36.4074 -18.2243 0.6877 0.8497
-31.0037 -21.5262 0.6376 0.8598
-31.1727 -25.1206 0.6763 0.8520
-34.0680 -31.7184 0.7863 0.8301
-0.0000 -49.5287 0.8366 0.8203
4.3092 -40.0815 0.6809 0.8511
4.9423 -34.3745 0.5866 0.8703
4.4341 -17.3727 0.3029 0.9308
13.1711 -39.5728 0.7045 0.8463
23.9530 -43.8667 0.8443 0.8188
29.8943 -5.3935 0.5131 0.8856
-43.4158 -14.4502 -0.2576 0.8327
-39.9066 -16.5299 -0.2432 0.8413
-42.7021 -19.5014 -0.2643 0.8288
-35.4247 -22.7660 -0.2371 0.8450
-30.8346 -21.4088 -0.2113 0.8606
-31.1733 -25.1211 -0.2254 0.8520
-12.5683 -30.3426 -0.1849 0.8769
-4.2012 -14.3080 -0.0840 0.9421
-0.0000 -45.9920 -0.2589 0.8320
1.6157 -45.2403 -0.2549 0.8344
3.0525 -42.6792 -0.2409 0.8427
4.9039 -34.1072 -0.1940 0.8712
5.2681 -17.9416 -0.1053 0.9279
5.9101 -17.7570 -0.1054 0.9279
16.9482 -40.9166 -0.2493 0.8377
19.1920 -42.0248 -0.2601 0.8313
20.5378 -41.0293 -0.2583 0.8323
22.9918 -42.1063 -0.2701 0.8254
29.8901 -5.3928 -0.1710 0.8856
49.1253 -1.7545 -0.2768 0.8215
-36.6517 -16.7382 -1.1346 0.8511
-33.2794 -19.7456 -1.0896 0.8565
-35.4177 -22.7616 -1.1855 0.8450
-31.1740 -25.1216 -1.1273 0.8520
-32.5129 -28.1726 -1.2114 0.8419
-34.0697 -31.7201 -1.3107 0.8300
-10.9540 -20.0608 -0.6436 0.9126
-0.0000 -45.9909 -1.2950 0.8319
4.9193 -34.2143 -0.9733 0.8708
8.0373 -36.9471 -1.0647 0.8596
9.7136 -38.0578 -1.1060 0.8546
5.2682 -17.9419 -0.5265 0.9279
14.9046 -39.9609 -1.2009 0.8431
16.9480 -40.9161 -1.2470 0.8376
19.1918 -42.0242 -1.3009 0.8312
20.5386 -41.0310 -1.2920 0.8323
45.8833 -1.6388 -1.2928 0.8322
-45.5504 0.0000 -2.3100 0.8332
-30.1022 -2.1529 -1.5305 0.8861
-45.4585 -4.8873 -2.3187 0.8327
-22.9121 -4.9842 -1.1891 0.9104
-44.6114 -11.3864 -2.3350 0.8316
-43.4191 -14.4513 -2.3207 0.8325
-43.3524 -16.1696 -2.3465 0.8308
-36.5459 -16.6900 -2.0375 0.8514
-36.4091 -18.2251 -2.0649 0.8495
-39.1614 -21.3838 -2.2628 0.8364
-33.2802 -19.7460 -1.9625 0.8564
-31.1747 -25.1222 -2.0305 0.8518
-32.0637 -34.4387 -2.3863 0.8282
-29.5780 -36.7041 -2.3906 0.8280
-28.2711 -37.7657 -2.3925 0.8278
-26.9245 -38.7787 -2.3942 0.8277
-12.9815 -25.9338 -1.4708 0.8903
-12.0510 -26.3880 -1.4712 0.8903
-11.1049 -26.8095 -1.4716 0.8903
-9.1918 -27.6167 -1.4761 0.8900
-7.9363 -31.0941 -1.6275 0.8794
-6.0660 -27.8849 -1.4472 0.8920
-5.1042 -28.2907 -1.4579 0.8912
-6.7410 -46.8843 -2.4021 0.8272
-3.3773 -47.2206 -2.4009 0.8273
-1.6891 -47.2937 -2.4000 0.8273
3.0486 -42.6256 -2.1672 0.8427
4.2983 -39.9798 -2.0392 0.8513
6.5376 -36.2357 -1.8673 0.8629
8.0245 -36.8883 -1.9145 0.8597
5.2683 -17.9421 -0.9483 0.9278
16.9214 -40.8519 -2.2425 0.8377
20.4892 -40.9323 -2.3214 0.8325
22.3873 -40.9993 -2.3690 0.8294
14.3986 -22.4047 -1.3506 0.8988
29.1071 -36.1198 -2.3525 0.8304
30.9712 -30.9712 -2.2213 0.8391
35.0712 -30.3894 -2.3534 0.8304
39.6246 -29.6627 -2.5102 0.8202
41.7110 -26.8061 -2.5145 0.8199
44.4492 -22.2497 -2.5208 0.8195
45.2523 -20.6660 -2.5229 0.8193
46.6864 -17.4132 -2.5270 0.8191
47.3155 -15.7481 -2.5290 0.8190
45.7740 -13.4405 -2.4194 0.8261
45.4487 -11.6001 -2.3788 0.8287
34.2884 -7.4590 -1.7796 0.8689
29.8825 -5.3914 -1.5399 0.8855
46.5298 -6.6900 -2.3840 0.8284
-32.5124 0.0000 -2.3839 0.8777
-31.4549 -1.1234 -2.3078 0.8814
-30.1025 -2.1530 -2.2128 0.8860
-31.2986 -4.5001 -2.3185 0.8809
-24.0613 -4.3411 -1.7927 0.9066
-22.9124 -4.9843 -1.7193 0.9102
-30.6215 -7.8157 -2.3172 0.8810
-22.1595 -6.5066 -1.6934 0.9115
-29.7110 -11.0816 -2.3251 0.8806
-28.9064 -13.2011 -2.3300 0.8803
-22.1672 -11.0961 -1.8176 0.9054
-26.8381 -17.2478 -2.3392 0.8799
-26.2286 -18.2109 -2.3412 0.8798
-23.4458 -21.8288 -2.3488 0.8794
-22.6678 -22.6678 -2.3505 0.8793
-15.9454 -26.8746 -2.2912 0.8822
-10.9547 -20.0619 -1.6760 0.9124
-12.9632 -25.8973 -2.1235 0.8903
-10.1143 -24.4181 -1.9379 0.8994
-5.1510 -28.5499 -2.1271 0.8902
-4.5864 -31.8992 -2.3630 0.8787
-1.1496 -32.1872 -2.3615 0.8788
-0.0000 -32.1983 -2.3608 0.8789
1.1488 -32.1669 -2.3601 0.8789
2.2953 -32.0930 -2.3591 0.8789
4.5749 -31.8189 -2.3570 0.8790
6.8258 -31.3778 -2.3545 0.8792
5.9140 -23.1708 -1.7534 0.9085
5.2655 -17.9326 -1.3704 0.9278
5.9129 -17.7654 -1.3729 0.9277
11.1924 -30.0080 -2.3483 0.8795
13.2840 -29.0880 -2.3447 0.8796
13.0457 -26.0619 -2.1370 0.8897
13.8191 -21.5030 -1.8742 0.9026
15.1648 -21.8415 -1.9496 0.8988
20.0696 -24.9049 -2.3452 0.8796
20.9583 -24.1871 -2.3466 0.8795
24.1018 -24.1019 -2.4992 0.8722
24.9857 -23.2626 -2.5031 0.8720
28.1088 -19.5163 -2.5091 0.8718
28.8045 -18.5116 -2.5105 0.8717
29.4640 -17.4818 -2.5120 0.8716
30.0867 -16.4286 -2.5135 0.8715
30.6715 -15.3531 -2.5149 0.8715
31.2177 -14.2566 -2.5163 0.8714
31.7244 -13.1407 -2.5178 0.8713
33.0010 -9.6900 -2.5219 0.8711
33.3434 -8.5104 -2.5232 0.8711
31.5964 -6.8734 -2.3709 0.8784
29.7690 -5.3709 -2.2180 0.8857
32.0380 -4.6064 -2.3733 0.8783
19.4509 -1.3912 -1.4298 0.9248
32.3919 -1.1569 -2.3766 0.8781
-25.8251 0.0000 -2.4793 0.9014
-25.7434 -1.8412 -2.4778 0.9015
-23.8339 -4.3001 -2.3251 0.9073
-22.9203 -4.9860 -2.2519 0.9100
-22.1560 -5.6549 -2.1953 0.9122
-21.2535 -7.0738 -2.1505 0.9139
-21.9978 -10.0461 -2.3217 0.9074
-20.3696 -13.0907 -2.3246 0.9073
-19.9030 -13.8189 -2.3262 0.9072
-18.3462 -15.8971 -2.3306 0.9071
-17.7773 -16.5512 -2.3319 0.9070
-10.7248 -15.4467 -1.8054 0.9272
-13.1733 -20.4980 -2.3393 0.9067
-10.9162 -21.8077 -2.3413 0.9067
-10.1330 -22.1882 -2.3418 0.9066
-9.3363 -22.5397 -2.3422 0.9066
-7.7064 -23.1541 -2.3428 0.9066
-4.1893 -14.2675 -1.4276 0.9420
-4.6277 -18.1310 -1.7965 0.9276
-4.3330 -24.0162 -2.3429 0.9066
-3.4728 -24.1536 -2.3427 0.9066
-2.6082 -24.2593 -2.3424 0.9066
-1.7117 -23.9326 -2.3035 0.9081
0.7304 -20.4500 -1.9646 0.9211
3.4662 -24.1077 -2.3383 0.9068
4.3227 -23.9593 -2.3373 0.9068
5.1729 -23.7796 -2.3364 0.9068
8.5069 -22.8080 -2.3370 0.9068
11.6861 -21.4015 -2.3410 0.9067
12.4480 -20.9800 -2.3420 0.9066
15.4505 -20.6395 -2.4752 0.9016
17.7478 -19.0625 -2.5005 0.9006
18.4253 -18.4253 -2.5016 0.9006
19.0800 -17.7640 -2.5028 0.9005
19.7108 -17.0795 -2.5039 0.9005
20.8980 -15.6441 -2.5062 0.9004
21.4527 -14.8949 -2.5073 0.9004
21.9806 -14.1261 -2.5085 0.9003
23.3957 -11.7111 -2.5118 0.9002
25.1561 -7.3865 -2.5171 0.9000
25.7726 -4.6499 -2.5142 0.9001
24.4102 -3.5097 -2.3676 0.9057
24.5289 -2.6371 -2.3685 0.9056
19.4508 -1.3912 -1.8721 0.9246
24.6717 -0.8812 -2.3701 0.9056
-20.9082 0.0000 -2.4836 0.9192
-20.8895 -0.7461 -2.4830 0.9192
-20.8444 -1.4908 -2.4824 0.9193
-20.6754 -2.9727 -2.4812 0.9193
-20.4022 -4.4382 -2.4802 0.9193
-20.1771 -5.1499 -2.4736 0.9195
-19.2570 -5.6544 -2.3840 0.9223
-18.3598 -6.8478 -2.3276 0.9241
-18.1010 -7.4977 -2.3273 0.9241
-17.5155 -8.7676 -2.3267 0.9241
-16.8419 -9.9928 -2.3262 0.9241
-16.4731 -10.5866 -2.3260 0.9242
-12.8945 -9.6527 -1.9133 0.9372
-14.7957 -12.8205 -2.3255 0.9242
-14.3283 -13.3402 -2.3255 0.9242
-13.8430 -13.8430 -2.3255 0.9242
-11.1718 -16.0904 -2.3268 0.9241
-10.5934 -16.4836 -2.3275 0.9241
-10.0009 -16.8557 -2.3281 0.9241
-9.3952 -17.2059 -2.3287 0.9241
-8.7769 -17.5339 -2.3291 0.9241
-4.1863 -14.2574 -1.7651 0.9419
-3.4179 -15.7120 -1.9100 0.9373
-3.4834 -19.3074 -2.3305 0.9240
-2.7919 -19.4182 -2.3303 0.9240
-2.0974 -19.5087 -2.3307 0.9240
-1.4001 -19.5757 -2.3313 0.9240
-0.0000 -19.6355 -2.3324 0.9240
0.7010 -19.6281 -2.3330 0.9239
1.4015 -19.5959 -2.3337 0.9239
3.4912 -19.3506 -2.3357 0.9239
4.8658 -19.0640 -2.3371 0.9238
7.5392 -18.2013 -2.3402 0.9237
8.1869 -17.9268 -2.3410 0.9237
9.9515 -18.2248 -2.4666 0.9198
10.7189 -18.0658 -2.4953 0.9189
11.3610 -17.6781 -2.4962 0.9188
11.9891 -17.2675 -2.4971 0.9188
13.7813 -15.9045 -2.4998 0.9187
14.3455 -15.4081 -2.5007 0.9187
14.8917 -14.8918 -2.5016 0.9187
15.4195 -14.3561 -2.5026 0.9186
15.9279 -13.8016 -2.5035 0.9186
16.8843 -12.6395 -2.5053 0.9186
18.1584 -10.7739 -2.5081 0.9185
18.5380 -10.1225 -2.5090 0.9184
19.5343 -8.0914 -2.5116 0.9184
20.3077 -5.9629 -2.5141 0.9183
20.5142 -5.2360 -2.5149 0.9183
20.8485 -3.7615 -2.5165 0.9182
20.9758 -3.0159 -2.5173 0.9182
20.5113 -2.2052 -2.4505 0.9203
19.9066 -0.7110 -2.3661 0.9229
-17.2531 -3.1128 -2.4841 0.9316
-16.9814 -4.3342 -2.4832 0.9316
-15.6885 -7.1647 -2.4437 0.9327
-14.4456 -7.8879 -2.3320 0.9357
-13.8327 -8.8897 -2.3298 0.9357
-13.5057 -9.3772 -2.3296 0.9357
-12.8951 -9.6531 -2.2824 0.9370
-12.8012 -10.3159 -2.3294 0.9357
-12.0321 -11.2023 -2.3293 0.9357
-10.7659 -12.4245 -2.3294 0.9357
-9.8527 -13.1617 -2.3295 0.9357
-9.3771 -13.5057 -2.3296 0.9357
-7.8814 -14.4336 -2.3301 0.9357
-7.3619 -14.7071 -2.3303 0.9357
-6.8329 -14.9620 -2.3306 0.9357
-6.2952 -15.1981 -2.3308 0.9357
-1.7606 -16.3764 -2.3337 0.9356
-0.0000 -16.4809 -2.3352 0.9356
1.1763 -16.4463 -2.3362 0.9356
1.7629 -16.3977 -2.3368 0.9355
2.3476 -16.3283 -2.3373 0.9355
3.5083 -16.1273 -2.3385 0.9355
4.0827 -15.9960 -2.3391 0.9355
6.1331 -16.4434 -2.4866 0.9316
7.3124 -16.0119 -2.4941 0.9314
8.9900 -15.1519 -2.4963 0.9313
9.5280 -14.8258 -2.4971 0.9313
11.5550 -13.3352 -2.5001 0.9312
12.0273 -12.9183 -2.5009 0.9312
12.4846 -12.4846 -2.5017 0.9312
12.9263 -12.0348 -2.5024 0.9311
13.3517 -11.5693 -2.5032 0.9311
13.7604 -11.0888 -2.5040 0.9311
14.1518 -10.5939 -2.5047 0.9311
14.5253 -10.0851 -2.5055 0.9311
14.8805 -9.5632 -2.5063 0.9310
15.2170 -9.0287 -2.5070 0.9310
17.1835 -4.3858 -2.5128 0.9309
17.3337 -3.7707 -2.5134 0.9308
17.6508 -1.8977 -2.5153 0.9308
16.8899 -0.6032 -2.3946 0.9340
-15.0625 -1.0773 -2.4877 0.9406
-14.9423 -2.1484 -2.4869 0.9406
-14.8538 -2.6799 -2.4865 0.9406
-14.7465 -3.2079 -2.4861 0.9407
-14.4761 -4.2506 -2.4855 0.9407
-14.1327 -5.2712 -2.4849 0.9407
-13.2337 -7.2262 -2.4840 0.9407
-11.7939 -8.8288 -2.4270 0.9420
-11.2527 -9.0680 -2.3808 0.9431
-10.3611 -9.6465 -2.3321 0.9442
-9.2707 -10.6989 -2.3322 0.9442
-8.8831 -11.0232 -2.3322 0.9442
-8.4843 -11.3337 -2.3323 0.9442
-7.6548 -11.9111 -2.3325 0.9442
-7.2252 -12.1775 -2.3326 0.9442
-6.3390 -12.6638 -2.3330 0.9442
-4.8694 -13.0553 -2.2954 0.9451
-3.9496 -13.4510 -2.3094 0.9448
-3.0127 -13.8491 -2.3348 0.9442
-2.5168 -13.9498 -2.3352 0.9442
-2.0176 -14.0329 -2.3355 0.9441
-0.0000 -14.1870 -2.3372 0.9441
0.5065 -14.1807 -2.3376 0.9441
1.0243 -14.3223 -2.3655 0.9435
1.5643 -14.5505 -2.4108 0.9424
2.1261 -14.7873 -2.4611 0.9412
4.2631 -14.5186 -2.4928 0.9405
4.7797 -14.3606 -2.4933 0.9405
5.2904 -14.1843 -2.4939 0.9405
6.2919 -13.7774 -2.4952 0.9404
6.7814 -13.5475 -2.4958 0.9404
7.2624 -13.3002 -2.4964 0.9404
9.9392 -11.4704 -2.5003 0.9403
10.3450 -11.1113 -2.5010 0.9403
10.7378 -10.7378 -2.5017 0.9403
11.1172 -10.3505 -2.5023 0.9403
11.4826 -9.9498 -2.5030 0.9403
12.1696 -9.1101 -2.5043 0.9402
12.4903 -8.6722 -2.5050 0.9402
12.7952 -8.2230 -2.5056 0.9402
13.0840 -7.7631 -2.5063 0.9402
13.6114 -6.8134 -2.5076 0.9402
14.2724 -5.3233 -2.5094 0.9401
14.4567 -4.8117 -2.5100 0.9401
14.6228 -4.2936 -2.5106 0.9401
14.7701 -3.7698 -2.5112 0.9401
15.1696 -1.6309 -2.5134 0.9400
15.2213 -1.0887 -2.5139 0.9400
15.2535 -0.5448 -2.5144 0.9400
-13.2381 -0.4728 -2.4898 0.9475
-13.2107 -0.9448 -2.4894 0.9475
-13.1666 -1.4156 -2.4891 0.9475
-13.1058 -1.8843 -2.4887 0.9475
-12.9346 -2.8137 -2.4881 0.9476
-12.8243 -3.2732 -2.4877 0.9476
-12.6979 -3.7284 -2.4875 0.9476
-12.5554 -4.1788 -2.4872 0.9476
-12.0334 -5.4954 -2.4865 0.9476
-11.8286 -5.9210 -2.4863 0.9476
-11.6089 -6.3390 -2.4861 0.9476
-10.8631 -7.5424 -2.4857 0.9476
-10.5865 -7.9250 -2.4856 0.9476
-9.9937 -8.6596 -2.4855 0.9476
-9.0018 -9.6686 -2.4830 0.9477
-8.6427 -9.9742 -2.4807 0.9477
-7.4108 -10.6736 -2.4424 0.9485
-6.9784 -10.8585 -2.4261 0.9488
-6.5508 -11.0407 -2.4130 0.9491
-6.1270 -11.2207 -2.4030 0.9493
-5.2884 -11.5799 -2.3928 0.9495
-4.8709 -11.7594 -2.3924 0.9495
-2.7541 -12.6604 -2.4353 0.9486
-2.3174 -12.8444 -2.4532 0.9483
-1.8736 -13.0309 -2.4745 0.9478
-1.4121 -13.1340 -2.4829 0.9477
-0.9434 -13.1902 -2.4856 0.9476
0.4729 -13.2422 -2.4906 0.9475
2.8192 -12.9596 -2.4929 0.9475
7.1857 -11.1812 -2.4982 0.9473
7.9687 -10.6449 -2.4993 0.9473
8.7118 -10.0540 -2.5005 0.9473
9.0672 -9.7389 -2.5011 0.9473
9.4113 -9.4113 -2.5017 0.9473
9.7434 -9.0715 -2.5023 0.9473
10.3706 -8.3572 -2.5034 0.9472
10.6647 -7.9835 -2.5040 0.9472
10.9454 -7.5996 -2.5046 0.9472
11.7030 -6.3903 -2.5063 0.9472
12.1345 -5.5416 -2.5074 0.9472
12.5043 -4.6639 -2.5085 0.9471
13.1471 -2.3720 -2.5110 0.9471
13.2878 -1.4286 -2.5120 0.9471
13.3327 -0.9536 -2.5124 0.9471
-11.7868 0.0000 -2.4915 0.9530
-11.7776 -0.4206 -2.4911 0.9530
-11.6605 -1.6765 -2.4901 0.9530
-11.5919 -2.0914 -2.4898 0.9530
-11.5085 -2.5035 -2.4896 0.9530
-11.1715 -3.7182 -2.4888 0.9530
-11.0307 -4.1142 -2.4886 0.9530
-10.5253 -5.2686 -2.4880 0.9530
-10.3299 -5.6406 -2.4878 0.9530
-9.6664 -6.7115 -2.4875 0.9530
-9.4203 -7.0520 -2.4874 0.9530
-9.1624 -7.3835 -2.4873 0.9530
-8.8929 -7.7057 -2.4873 0.9530
-8.6121 -8.0181 -2.4873 0.9530
-8.0181 -8.6121 -2.4873 0.9530
-7.3835 -9.1624 -2.4873 0.9530
-7.0520 -9.4203 -2.4874 0.9530
-6.7115 -9.6663 -2.4875 0.9530
-6.3624 -9.9001 -2.4876 0.9530
-5.6405 -10.3298 -2.4878 0.9530
-5.2685 -10.5252 -2.4880 0.9530
-4.1142 -11.0306 -2.4885 0.9530
-3.7182 -11.1714 -2.4888 0.9530
-3.3174 -11.2980 -2.4890 0.9530
-2.0914 -11.5917 -2.4898 0.9530
-0.4206 -11.7774 -2.4911 0.9530
0.4207 -11.7808 -2.4918 0.9529
1.2605 -11.7245 -2.4926 0.9529
1.6785 -11.6739 -2.4930 0.9529
2.9182 -11.4335 -2.4943 0.9529
3.7278 -11.2002 -2.4952 0.9529
6.7428 -9.7115 -2.4991 0.9528
7.4215 -9.2095 -2.5001 0.9528
8.0629 -8.6602 -2.5012 0.9528
8.3686 -8.3686 -2.5017 0.9528
8.9480 -7.7535 -2.5027 0.9527
9.2209 -7.4307 -2.5032 0.9527
9.7315 -6.7567 -2.5043 0.9527
10.4043 -5.6812 -2.5058 0.9527
10.6026 -5.3073 -2.5063 0.9527
11.1156 -4.1459 -2.5077 0.9527
11.2586 -3.7472 -2.5082 0.9526
11.5014 -2.9356 -2.5091 0.9526
11.6857 -2.1083 -2.5100 0.9526
11.8102 -1.2697 -2.5108 0.9526
11.8745 -0.4241 -2.5116 0.9526
-10.5973 -0.3785 -2.4922 0.9574
-10.5407 -1.1332 -2.4916 0.9574
-10.4924 -1.5086 -2.4913 0.9574
-10.1668 -2.9852 -2.4903 0.9574
-10.0529 -3.3459 -2.4901 0.9574
-9.9263 -3.7023 -2.4899 0.9574
-9.7871 -4.0539 -2.4897 0.9574
-9.2959 -5.0760 -2.4892 0.9574
-8.9093 -5.7256 -2.4890 0.9574
-8.4775 -6.3462 -2.4888 0.9574
-8.2454 -6.6446 -2.4888 0.9574
-8.0029 -6.9346 -2.4887 0.9574
-7.2157 -7.7502 -2.4887 0.9574
-6.3462 -8.4775 -2.4888 0.9574
-5.7256 -8.9092 -2.4890 0.9574
-5.0759 -9.2958 -2.4892 0.9574
-4.4003 -9.6354 -2.4895 0.9574
-4.0539 -9.7870 -2.4897 0.9574
-3.7023 -9.9261 -2.4899 0.9574
-2.9852 -10.1667 -2.4903 0.9574
-2.2527 -10.3557 -2.4907 0.9574
-0.7564 -10.5756 -2.4918 0.9574
-0.0000 -10.6052 -2.4925 0.9574
0.3786 -10.5999 -2.4928 0.9574
0.7568 -10.5811 -2.4932 0.9573
1.5101 -10.5032 -2.4939 0.9573
1.8843 -10.4442 -2.4942 0.9573
2.2562 -10.3719 -2.4946 0.9573
2.6254 -10.2863 -2.4950 0.9573
2.9914 -10.1877 -2.4954 0.9573
3.3537 -10.0761 -2.4958 0.9573
3.7118 -9.9517 -2.4963 0.9573
4.0653 -9.8145 -2.4967 0.9573
5.7484 -8.9447 -2.4989 0.9573
6.0651 -8.7354 -2.4994 0.9572
6.6753 -8.2835 -2.5003 0.9572
7.2519 -7.7891 -2.5012 0.9572
7.5267 -7.5267 -2.5017 0.9572
7.7920 -7.2546 -2.5021 0.9572
8.0475 -6.9732 -2.5026 0.9572
8.5276 -6.3837 -2.5035 0.9572
9.7002 -4.4299 -2.5063 0.9571
9.8538 -4.0816 -2.5067 0.9571
10.1234 -3.3694 -2.5075 0.9571
10.2389 -3.0064 -2.5080 0.9571
10.5692 -1.5196 -2.5095 0.9571
10.6182 -1.1416 -2.5099 0.9571
10.6757 -0.3813 -2.5106 0.9571
-9.6299 0.0000 -2.4934 0.9610
-9.6227 -0.3437 -2.4931 0.9610
-9.6032 -0.6868 -2.4928 0.9610
-9.5715 -1.0290 -2.4925 0.9610
-9.3241 -2.3798 -2.4916 0.9610
-9.1290 -3.0384 -2.4912 0.9610
-8.7502 -3.9961 -2.4906 0.9610
-8.6015 -4.3056 -2.4905 0.9610
-8.4419 -4.6096 -2.4904 0.9610
-8.2716 -4.9078 -2.4903 0.9610
-7.8998 -5.4850 -2.4901 0.9610
-7.6988 -5.7633 -2.4900 0.9610
-7.2678 -6.2976 -2.4899 0.9610
-7.0383 -6.5529 -2.4899 0.9610
-6.7999 -6.7999 -2.4899 0.9610
-6.5529 -7.0383 -2.4899 0.9610
-6.2976 -7.2678 -2.4899 0.9610
-5.4849 -7.8998 -2.4901 0.9610
-4.9077 -8.2716 -2.4903 0.9610
-4.6096 -8.4418 -2.4904 0.9610
-4.3056 -8.6014 -2.4905 0.9610
-3.9960 -8.7501 -2.4906 0.9610
-3.3621 -9.0140 -2.4909 0.9610
-1.7089 -9.4717 -2.4920 0.9610
-1.0290 -9.5714 -2.4925 0.9610
-0.3437 -9.6225 -2.4930 0.9610
0.3437 -9.6248 -2.4936 0.9610
0.6871 -9.6076 -2.4939 0.9610
1.0298 -9.5782 -2.4943 0.9610
1.3712 -9.5366 -2.4946 0.9610
1.7109 -9.4829 -2.4949 0.9610
2.7159 -9.2497 -2.4960 0.9610
3.0448 -9.1482 -2.4964 0.9609
3.3699 -9.0351 -2.4968 0.9609
5.7863 -7.7297 -2.5000 0.9609
6.0596 -7.5195 -2.5004 0.9609
6.8321 -6.8321 -2.5017 0.9609
7.0728 -6.5850 -2.5021 0.9609
7.7401 -5.7942 -2.5034 0.9608
7.9433 -5.5151 -2.5038 0.9608
8.1364 -5.2290 -2.5042 0.9608
8.4915 -4.6367 -2.5050 0.9608
8.9428 -3.7042 -2.5062 0.9608
9.0707 -3.3832 -2.5066 0.9608
9.1871 -3.0578 -2.5070 0.9608
9.3847 -2.3953 -2.5078 0.9608
9.5343 -1.7202 -2.5085 0.9608
9.5910 -1.3790 -2.5088 0.9608
9.6354 -1.0359 -2.5092 0.9607
9.6872 -0.3460 -2.5098 0.9607
-8.8101 0.0000 -2.4941 0.9640
-8.8035 -0.3144 -2.4938 0.9640
-8.7569 -0.9415 -2.4933 0.9640
-8.7169 -1.2533 -2.4931 0.9641
-8.6658 -1.5635 -2.4928 0.9641
-8.6037 -1.8716 -2.4926 0.9641
-8.5308 -2.1773 -2.4924 0.9641
-8.4470 -2.4803 -2.4922 0.9641
-8.3525 -2.7800 -2.4921 0.9641
-8.0060 -3.6562 -2.4916 0.9641
-7.4028 -4.7575 -2.4912 0.9641
-7.2281 -5.0186 -2.4911 0.9641
-6.4399 -5.9957 -2.4909 0.9641
-5.9957 -6.4399 -2.4909 0.9641
-5.0185 -7.2281 -2.4911 0.9641
-4.4904 -7.5682 -2.4912 0.9641
-4.2176 -7.7239 -2.4913 0.9641
-3.9394 -7.8699 -2.4914 0.9641
-2.7799 -8.3524 -2.4920 0.9641
-2.4802 -8.4469 -2.4922 0.9641
-2.1773 -8.5307 -2.4924 0.9641
-1.8716 -8.6037 -2.4926 0.9641
-1.5635 -8.6657 -2.4928 0.9641
-0.0000 -8.8100 -2.4940 0.9640
0.6286 -8.7895 -2.4946 0.9640
1.2544 -8.7243 -2.4952 0.9640
1.8740 -8.6148 -2.4958 0.9640
2.4845 -8.4614 -2.4965 0.9640
3.0826 -8.2649 -2.4972 0.9640
3.3762 -8.1508 -2.4975 0.9640
3.6654 -8.0262 -2.4979 0.9640
4.5044 -7.5918 -2.4990 0.9640
5.0360 -7.2533 -2.4998 0.9640
5.2925 -7.0700 -2.5001 0.9640
5.5423 -6.8776 -2.5005 0.9639
5.7852 -6.6765 -2.5009 0.9639
6.2487 -6.2487 -2.5017 0.9639
6.8840 -5.5475 -2.5028 0.9639
7.0787 -5.2991 -2.5032 0.9639
7.7655 -4.2403 -2.5047 0.9639
7.9131 -3.9610 -2.5051 0.9639
8.1779 -3.3874 -2.5058 0.9639
8.2947 -3.0938 -2.5062 0.9639
8.4011 -2.7961 -2.5066 0.9639
8.4967 -2.4949 -2.5069 0.9639
8.5815 -2.1903 -2.5072 0.9639
8.6553 -1.8829 -2.5076 0.9638
8.7181 -1.5729 -2.5079 0.9638
8.7698 -1.2609 -2.5082 0.9638
-8.1047 -0.2895 -2.4944 0.9666
-8.0252 -1.1538 -2.4937 0.9666
-7.9782 -1.4394 -2.4935 0.9666
-7.9211 -1.7231 -2.4933 0.9666
-7.7769 -2.2835 -2.4930 0.9666
-7.6899 -2.5595 -2.4928 0.9667
-7.5932 -2.8321 -2.4927 0.9667
-7.4868 -3.1012 -2.4925 0.9667
-7.3710 -3.3662 -2.4924 0.9667
-7.1114 -3.8831 -2.4922 0.9667
-6.9680 -4.1343 -2.4921 0.9667
-6.8158 -4.3802 -2.4920 0.9667
-6.4856 -4.8551 -2.4919 0.9667
-5.9293 -5.5203 -2.4918 0.9667
-5.5203 -5.9292 -2.4918 0.9667
-5.3052 -6.1225 -2.4918 0.9667
-5.0834 -6.3081 -2.4918 0.9667
-4.1343 -6.9680 -2.4921 0.9667
-3.8831 -7.1114 -2.4922 0.9667
-3.6270 -7.2458 -2.4923 0.9667
-3.3662 -7.3710 -2.4924 0.9667
-2.5594 -7.6898 -2.4928 0.9667
-2.2835 -7.7768 -2.4930 0.9666
-2.0046 -7.8539 -2.4931 0.9666
-1.1538 -8.0251 -2.4937 0.9666
-0.8667 -8.0619 -2.4939 0.9666
-0.5785 -8.0884 -2.4942 0.9666
-0.0000 -8.1106 -2.4946 0.9666
0.2895 -8.1063 -2.4949 0.9666
0.5787 -8.0916 -2.4952 0.9666
0.8673 -8.0667 -2.4954 0.9666
1.1548 -8.0315 -2.4957 0.9666
1.4408 -7.9861 -2.4960 0.9666
1.7252 -7.9305 -2.4963 0.9666
2.0074 -7.8648 -2.4966 0.9666
2.8376 -7.6081 -2.4975 0.9666
3.1078 -7.5029 -2.4979 0.9666
3.8936 -7.1306 -2.4989 0.9666
4.1462 -6.9880 -2.4992 0.9666
4.6354 -6.6763 -2.4999 0.9666
5.3248 -6.1451 -2.5010 0.9665
6.3358 -5.1057 -2.5028 0.9665
6.6857 -4.6420 -2.5035 0.9665
7.1466 -3.9024 -2.5045 0.9665
7.4088 -3.3835 -2.5052 0.9665
7.5259 -3.1173 -2.5055 0.9665
7.6333 -2.8471 -2.5058 0.9665
7.8190 -2.2959 -2.5065 0.9665
7.9648 -1.7326 -2.5071 0.9665
8.1072 -0.8716 -2.5080 0.9665
-7.5065 0.0000 -2.4952 0.9689
-7.4615 -0.8022 -2.4945 0.9689
-7.3841 -1.3322 -2.4941 0.9689
-7.3313 -1.5948 -2.4940 0.9689
-7.2692 -1.8554 -2.4938 0.9689
-7.1174 -2.3689 -2.4935 0.9689
-6.9296 -2.8703 -2.4932 0.9689
-6.4495 -3.8266 -2.4928 0.9689
-5.1095 -5.4880 -2.4925 0.9689
-4.4938 -6.0030 -2.4926 0.9689
-4.2767 -6.1597 -2.4926 0.9689
-3.8266 -6.4494 -2.4928 0.9689
-3.5941 -6.5821 -2.4929 0.9689
-3.3570 -6.7065 -2.4930 0.9689
-3.1156 -6.8223 -2.4931 0.9689
-2.6213 -7.0279 -2.4933 0.9689
-2.3689 -7.1174 -2.4935 0.9689
-1.3322 -7.3841 -2.4941 0.9689
-1.0679 -7.4275 -2.4943 0.9689
-0.5354 -7.4860 -2.4947 0.9689
0.5356 -7.4887 -2.4957 0.9688
0.8026 -7.4656 -2.4959 0.9688
1.3335 -7.3909 -2.4964 0.9688
1.5966 -7.3394 -2.4967 0.9688
1.8577 -7.2785 -2.4970 0.9688
2.1166 -7.2084 -2.4973 0.9688
2.3728 -7.1291 -2.4976 0.9688
2.6260 -7.0407 -2.4979 0.9688
2.8760 -6.9433 -2.4982 0.9688
3.1224 -6.8371 -2.4985 0.9688
3.3648 -6.7221 -2.4988 0.9688
3.6031 -6.5986 -2.4991 0.9688
3.8368 -6.4666 -2.4994 0.9688
4.7205 -5.8577 -2.5007 0.9688
5.1277 -5.5075 -2.5014 0.9688
5.3217 -5.3217 -2.5017 0.9688
6.0280 -4.5125 -2.5030 0.9688
6.4784 -3.8438 -2.5040 0.9687
6.7378 -3.3727 -2.5046 0.9687
6.8547 -3.1305 -2.5049 0.9687
7.0623 -2.6341 -2.5055 0.9687
7.1527 -2.3806 -2.5058 0.9687
7.2340 -2.1241 -2.5061 0.9687
7.5250 -0.5382 -2.5078 0.9687
-6.9788 0.0000 -2.4957 0.9708
-6.9737 -0.2491 -2.4954 0.9708
-6.9598 -0.4978 -2.4952 0.9708
-6.9371 -0.7458 -2.4950 0.9708
-6.9055 -0.9929 -2.4949 0.9708
-6.8652 -1.2386 -2.4947 0.9708
-6.8162 -1.4828 -2.4945 0.9708
-6.6922 -1.9650 -2.4942 0.9708
-6.6174 -2.2025 -2.4941 0.9708
-6.3431 -2.8968 -2.4937 0.9708
-5.9964 -3.5579 -2.4934 0.9708
-5.8655 -3.7695 -2.4933 0.9708
-5.4286 -4.3746 -2.4932 0.9708
-5.2689 -4.5656 -2.4932 0.9708
-4.9298 -4.9298 -2.4931 0.9708
-4.5656 -5.2689 -2.4932 0.9708
-4.3746 -5.4286 -2.4932 0.9708
-3.9764 -5.7270 -2.4933 0.9708
-3.3417 -6.1198 -2.4935 0.9708
-3.1212 -6.2354 -2.4936 0.9708
-1.9650 -6.6921 -2.4942 0.9708
-1.7250 -6.7584 -2.4943 0.9708
-1.2386 -6.8651 -2.4947 0.9708
-0.7458 -6.9370 -2.4950 0.9708
-0.4978 -6.9598 -2.4952 0.9708
0.4979 -6.9622 -2.4961 0.9708
0.9935 -6.9102 -2.4966 0.9708
1.2397 -6.8710 -2.4968 0.9708
1.7270 -6.7665 -2.4973 0.9708
1.9677 -6.7012 -2.4976 0.9708
2.2058 -6.6275 -2.4978 0.9708
2.4412 -6.5452 -2.4981 0.9708
2.6736 -6.4546 -2.4984 0.9708
2.9026 -6.3558 -2.4987 0.9708
3.1280 -6.2489 -2.4990 0.9708
4.1903 -5.5976 -2.5005 0.9707
4.5800 -5.2856 -2.5011 0.9707
4.7664 -5.1194 -2.5014 0.9707
5.2882 -4.5823 -2.5023 0.9707
5.6030 -4.1944 -2.5029 0.9707
6.0215 -3.5727 -2.5038 0.9707
6.3711 -2.9096 -2.5047 0.9707
6.4716 -2.6806 -2.5050 0.9707
6.5639 -2.4482 -2.5053 0.9707
6.6479 -2.2126 -2.5055 0.9707
6.7233 -1.9742 -2.5058 0.9707
6.7902 -1.7331 -2.5061 0.9707
6.8485 -1.4898 -2.5063 0.9707
6.8980 -1.2445 -2.5066 0.9707
6.9387 -0.9976 -2.5068 0.9707
6.9706 -0.7494 -2.5071 0.9707
7.0076 -0.2503 -2.5076 0.9707
-6.3618 -1.3839 -2.4950 0.9725
-6.3080 -1.6100 -2.4948 0.9725
-6.2462 -1.8340 -2.4947 0.9725
-6.1764 -2.0557 -2.4946 0.9725
-6.0988 -2.2747 -2.4944 0.9725
-5.7121 -3.1190 -2.4940 0.9725
-5.2095 -3.8998 -2.4938 0.9725
-5.0670 -4.0832 -2.4938 0.9725
-4.9179 -4.2614 -2.4937 0.9725
-4.7627 -4.4342 -2.4937 0.9725
-4.6014 -4.6014 -2.4937 0.9725
-4.4342 -4.7627 -2.4937 0.9725
-4.2614 -4.9179 -2.4937 0.9725
-4.0832 -5.0669 -2.4938 0.9725
-3.8998 -5.2095 -2.4938 0.9725
-3.7115 -5.3455 -2.4938 0.9725
-3.5184 -5.4747 -2.4939 0.9725
-3.3208 -5.5969 -2.4940 0.9725
-2.4908 -6.0134 -2.4943 0.9725
-2.2747 -6.0988 -2.4944 0.9725
-2.0557 -6.1764 -2.4945 0.9725
-0.6961 -6.4746 -2.4955 0.9725
-0.2325 -6.5087 -2.4958 0.9725
0.6964 -6.4777 -2.4967 0.9725
0.9273 -6.4493 -2.4969 0.9725
1.1570 -6.4127 -2.4971 0.9725
1.3853 -6.3679 -2.4974 0.9725
1.6118 -6.3150 -2.4976 0.9725
1.8364 -6.2541 -2.4979 0.9725
2.0586 -6.1852 -2.4981 0.9725
2.4951 -6.0238 -2.4986 0.9725
3.3285 -5.6098 -2.4997 0.9724
3.9104 -5.2236 -2.5005 0.9724
4.0948 -5.0813 -2.5008 0.9724
4.2740 -4.9325 -2.5011 0.9724
4.7784 -4.4489 -2.5020 0.9724
5.2284 -3.9139 -2.5028 0.9724
5.4955 -3.5318 -2.5034 0.9724
5.7348 -3.1314 -2.5039 0.9724
5.9448 -2.7149 -2.5045 0.9724
6.1247 -2.2844 -2.5050 0.9724
6.3900 -1.3901 -2.5060 0.9724
6.4741 -0.9308 -2.5065 0.9724
6.5038 -0.6992 -2.5067 0.9724
-6.0996 0.0000 -2.4964 0.9740
-6.0832 -0.4351 -2.4961 0.9740
-6.0634 -0.6519 -2.4959 0.9740
-5.9578 -1.2960 -2.4954 0.9740
-5.9074 -1.5078 -2.4953 0.9740
-5.8496 -1.7176 -2.4951 0.9740
-5.7842 -1.9252 -2.4950 0.9740
-5.7116 -2.1303 -2.4949 0.9740
-5.6316 -2.3327 -2.4948 0.9740
-5.5446 -2.5321 -2.4947 0.9740
-5.2416 -3.1100 -2.4945 0.9740
-5.1272 -3.2950 -2.4944 0.9740
-4.8788 -3.6523 -2.4943 0.9740
-4.7453 -3.8240 -2.4943 0.9740
-4.4604 -4.1527 -2.4942 0.9740
-3.8240 -4.7453 -2.4943 0.9740
-2.9210 -5.3494 -2.4945 0.9740
-2.7283 -5.4505 -2.4946 0.9740
-2.5321 -5.5446 -2.4947 0.9740
-2.3327 -5.6316 -2.4948 0.9740
-1.9252 -5.7842 -2.4950 0.9740
-1.7176 -5.8495 -2.4951 0.9740
-1.2960 -5.9578 -2.4954 0.9740
-0.8678 -6.0358 -2.4957 0.9740
-0.6519 -6.0633 -2.4959 0.9740
-0.2177 -6.0952 -2.4962 0.9740
-0.0000 -6.0996 -2.4964 0.9740
0.2177 -6.0961 -2.4966 0.9740
0.6522 -6.0661 -2.4970 0.9740
1.9277 -5.7919 -2.4983 0.9740
2.1334 -5.7200 -2.4986 0.9740
2.9269 -5.3603 -2.4996 0.9739
3.1167 -5.2529 -2.4998 0.9739
3.3025 -5.1389 -2.5001 0.9739
3.4842 -5.0183 -2.5004 0.9739
3.6615 -4.8912 -2.5006 0.9739
3.8342 -4.7579 -2.5009 0.9739
4.0020 -4.6185 -2.5012 0.9739
4.1647 -4.4732 -2.5014 0.9739
4.3222 -4.3222 -2.5017 0.9739
4.4742 -4.1656 -2.5020 0.9739
4.6205 -4.0037 -2.5022 0.9739
4.7610 -3.8366 -2.5025 0.9739
4.8954 -3.6646 -2.5028 0.9739
5.1454 -3.3068 -2.5033 0.9739
5.6537 -2.3418 -2.5046 0.9739
5.7342 -2.1388 -2.5048 0.9739
5.8075 -1.9329 -2.5051 0.9739
5.8733 -1.7246 -2.5053 0.9739
5.9825 -1.3014 -2.5058 0.9739
6.0257 -1.0872 -2.5060 0.9739
6.0889 -0.6546 -2.5064 0.9739
6.1211 -0.2186 -2.5068 0.9739
-5.7248 -0.2045 -2.4966 0.9753
-5.7135 -0.4086 -2.4964 0.9753
-5.6949 -0.6123 -2.4962 0.9753
-5.5958 -1.2173 -2.4958 0.9753
-5.5485 -1.4162 -2.4957 0.9753
-5.4328 -1.8082 -2.4954 0.9753
-5.3646 -2.0009 -2.4953 0.9753
-5.2896 -2.1910 -2.4952 0.9753
-5.0245 -2.7436 -2.4950 0.9753
-4.7021 -3.2648 -2.4948 0.9753
-4.5825 -3.4305 -2.4948 0.9753
-4.4571 -3.5918 -2.4947 0.9753
-4.0476 -4.0476 -2.4947 0.9753
-3.9005 -4.1895 -2.4947 0.9753
-3.7485 -4.3261 -2.4947 0.9753
-3.5918 -4.4571 -2.4947 0.9753
-3.4304 -4.5825 -2.4947 0.9753
-3.2648 -4.7021 -2.4948 0.9753
-2.9211 -4.9233 -2.4949 0.9753
-2.7436 -5.0245 -2.4950 0.9753
-1.6132 -5.4942 -2.4955 0.9753
-1.4162 -5.5485 -2.4957 0.9753
-1.2173 -5.5958 -2.4958 0.9753
-0.6123 -5.6949 -2.4962 0.9753
-0.0000 -5.7288 -2.4967 0.9753
0.8155 -5.6722 -2.4975 0.9753
1.0176 -5.6400 -2.4977 0.9753
1.2183 -5.6005 -2.4979 0.9753
1.4176 -5.5539 -2.4981 0.9753
2.0037 -5.3720 -2.4988 0.9753
2.1943 -5.2976 -2.4990 0.9753
2.3822 -5.2164 -2.4992 0.9753
2.5671 -5.1285 -2.4995 0.9753
2.7488 -5.0341 -2.4997 0.9753
2.9270 -4.9332 -2.4999 0.9753
3.6007 -4.4682 -2.5009 0.9753
3.7583 -4.3373 -2.5012 0.9753
4.2017 -3.9119 -2.5019 0.9753
4.3391 -3.7598 -2.5022 0.9753
4.4709 -3.6029 -2.5024 0.9753
4.7175 -3.2754 -2.5029 0.9753
5.0421 -2.7532 -2.5037 0.9752
5.2266 -2.3869 -2.5042 0.9752
5.3090 -2.1991 -2.5044 0.9752
5.6914 -0.8183 -2.5059 0.9752
5.7362 -0.4103 -2.5063 0.9752
5.7476 -0.2053 -2.5065 0.9752
-5.3801 -0.3848 -2.4967 0.9765
-5.3626 -0.5765 -2.4966 0.9765
-5.3383 -0.7675 -2.4964 0.9765
-5.2693 -1.1463 -2.4961 0.9765
-5.2248 -1.3336 -2.4960 0.9765
-5.1736 -1.5191 -2.4959 0.9765
-5.1159 -1.7027 -2.4958 0.9765
-5.0517 -1.8842 -2.4957 0.9765
-4.8208 -2.4131 -2.4954 0.9765
-4.7315 -2.5836 -2.4954 0.9765
-4.5349 -2.9144 -2.4952 0.9765
-4.3153 -3.2304 -2.4952 0.9765
-3.6731 -3.9451 -2.4951 0.9765
-3.5299 -4.0737 -2.4951 0.9765
-3.2304 -4.3153 -2.4952 0.9765
-2.5836 -4.7315 -2.4954 0.9765
-2.2396 -4.9040 -2.4955 0.9765
-1.8842 -5.0516 -2.4957 0.9765
-1.7027 -5.1159 -2.4958 0.9765
-1.1463 -5.2693 -2.4961 0.9765
-0.9575 -5.3071 -2.4963 0.9765
-0.7675 -5.3382 -2.4964 0.9765
-0.5765 -5.3625 -2.4965 0.9765
-0.0000 -5.3945 -2.4970 0.9765
0.5768 -5.3647 -2.4975 0.9765
0.7679 -5.3411 -2.4977 0.9765
0.9581 -5.3107 -2.4979 0.9765
1.1472 -5.2735 -2.4981 0.9765
1.8866 -5.0582 -2.4989 0.9765
2.0661 -4.9881 -2.4992 0.9765
2.4171 -4.8289 -2.4996 0.9765
2.9203 -4.5441 -2.5003 0.9765
3.6824 -3.9552 -2.5015 0.9765
3.8216 -3.8216 -2.5017 0.9765
3.9559 -3.6831 -2.5019 0.9765
4.2094 -3.3922 -2.5024 0.9765
4.3282 -3.2401 -2.5026 0.9765
4.5492 -2.9236 -2.5031 0.9764
4.6510 -2.7596 -2.5033 0.9764
5.1341 -1.7088 -2.5047 0.9764
5.2438 -1.3384 -2.5051 0.9764
5.3268 -0.9611 -2.5055 0.9764
5.3826 -0.5787 -2.5059 0.9764
-5.0875 -0.1817 -2.4971 0.9776
-5.0775 -0.3631 -2.4970 0.9776
-5.0610 -0.5441 -2.4968 0.9776
-5.0381 -0.7244 -2.4967 0.9776
-4.9731 -1.0818 -2.4965 0.9776
-4.8828 -1.4337 -2.4962 0.9776
-4.8283 -1.6070 -2.4961 0.9776
-4.3755 -2.5961 -2.4957 0.9776
-4.1790 -2.9015 -2.4956 0.9776
-4.0727 -3.0488 -2.4955 0.9776
-3.4666 -3.7234 -2.4955 0.9776
-3.1922 -3.9613 -2.4955 0.9776
-2.4384 -4.4655 -2.4957 0.9776
-2.2775 -4.5498 -2.4958 0.9776
-2.1137 -4.6283 -2.4958 0.9776
-1.9472 -4.7010 -2.4959 0.9776
-1.6070 -4.8283 -2.4961 0.9776
-1.4337 -4.8827 -2.4962 0.9776
-1.2586 -4.9310 -2.4963 0.9776
-0.9037 -5.0087 -2.4966 0.9776
-0.3632 -5.0775 -2.4970 0.9776
-0.1817 -5.0875 -2.4971 0.9776
-0.0000 -5.0910 -2.4973 0.9776
0.1817 -5.0881 -2.4974 0.9776
0.5443 -5.0629 -2.4978 0.9776
0.7247 -5.0406 -2.4979 0.9776
0.9042 -5.0119 -2.4981 0.9776
1.2597 -4.9353 -2.4985 0.9776
2.4425 -4.4731 -2.4999 0.9775
2.7558 -4.2881 -2.5004 0.9775
2.9074 -4.1874 -2.5006 0.9775
3.0553 -4.0814 -2.5008 0.9775
3.3392 -3.8537 -2.5012 0.9775
3.4750 -3.7324 -2.5015 0.9775
3.7330 -3.4756 -2.5019 0.9775
4.0842 -3.0574 -2.5026 0.9775
4.2927 -2.7588 -2.5030 0.9775
4.3888 -2.6040 -2.5032 0.9775
4.4794 -2.4459 -2.5035 0.9775
4.5642 -2.2847 -2.5037 0.9775
4.6432 -2.1205 -2.5039 0.9775
4.7835 -1.7841 -2.5043 0.9775
4.8993 -1.4386 -2.5047 0.9775
4.9903 -1.0856 -2.5051 0.9775
5.0262 -0.9068 -2.5053 0.9775
5.0557 -0.7269 -2.5055 0.9775
5.0788 -0.5460 -2.5056 0.9775
5.0954 -0.3644 -2.5058 0.9775
5.1055 -0.1824 -2.5060 0.9775
-4.8143 0.0000 -2.4975 0.9785
-4.8014 -0.3434 -2.4972 0.9785
-4.7859 -0.5145 -2.4971 0.9785
-4.7642 -0.6850 -2.4970 0.9785
-4.7365 -0.8546 -2.4969 0.9785
-4.6630 -1.1902 -2.4966 0.9785
-4.6174 -1.3558 -2.4965 0.9785
-4.5086 -1.6816 -2.4963 0.9785
-4.3026 -2.1537 -2.4961 0.9786
-4.1378 -2.4550 -2.4960 0.9786
-4.0474 -2.6011 -2.4959 0.9786
-3.9519 -2.7439 -2.4959 0.9786
-3.8514 -2.8831 -2.4959 0.9786
-3.2782 -3.5211 -2.4958 0.9786
-3.1505 -3.6359 -2.4958 0.9786
-3.0187 -3.7460 -2.4958 0.9786
-2.7439 -3.9519 -2.4959 0.9786
-2.4550 -4.1377 -2.4960 0.9786
-2.3058 -4.2228 -2.4960 0.9786
-2.1537 -4.3025 -2.4961 0.9786
-1.9988 -4.3768 -2.4962 0.9786
-1.6816 -4.5085 -2.4963 0.9785
-1.5197 -4.5658 -2.4964 0.9785
-0.8545 -4.7365 -2.4968 0.9785
-0.5145 -4.7858 -2.4971 0.9785
-0.1718 -4.8109 -2.4974 0.9785
-0.0000 -4.8142 -2.4975 0.9785
0.1718 -4.8114 -2.4977 0.9785
0.8551 -4.7393 -2.4983 0.9785
1.0237 -4.7061 -2.4985 0.9785
1.5213 -4.5707 -2.4990 0.9785
1.6835 -4.5138 -2.4992 0.9785
2.0016 -4.3829 -2.4996 0.9785
2.1569 -4.3090 -2.4998 0.9785
2.3095 -4.2296 -2.5000 0.9785
2.6058 -4.0547 -2.5004 0.9785
2.8889 -3.8591 -2.5009 0.9785
3.1574 -3.6438 -2.5013 0.9785
3.4099 -3.4099 -2.5017 0.9785
3.5297 -3.2863 -2.5019 0.9785
3.8617 -2.8909 -2.5025 0.9785
3.9628 -2.7514 -2.5027 0.9785
4.0588 -2.6084 -2.5030 0.9785
4.3154 -2.1602 -2.5036 0.9785
4.3901 -2.0049 -2.5038 0.9785
4.4592 -1.8471 -2.5040 0.9785
4.5803 -1.5245 -2.5043 0.9785
4.6322 -1.3601 -2.5045 0.9785
4.6781 -1.1940 -2.5047 0.9785
4.8018 -0.5163 -2.5054 0.9785
4.8270 -0.1724 -2.5057 0.9785
-4.5604 -0.0000 -2.4978 0.9794
-4.5573 -0.1628 -2.4976 0.9794
-4.5336 -0.4874 -2.4974 0.9794
-4.5131 -0.6489 -2.4972 0.9794
-4.4549 -0.9691 -2.4970 0.9794
-4.4172 -1.1274 -2.4969 0.9794
-4.3740 -1.2843 -2.4968 0.9794
-4.3252 -1.4396 -2.4967 0.9794
-4.2112 -1.7443 -2.4965 0.9794
-4.1462 -1.8935 -2.4965 0.9794
-4.0758 -2.0402 -2.4964 0.9794
-3.9197 -2.3257 -2.4963 0.9794
-3.8341 -2.4641 -2.4962 0.9794
-3.6485 -2.7312 -2.4962 0.9794
-3.4443 -2.9845 -2.4961 0.9794
-3.2226 -3.2226 -2.4961 0.9794
-2.9845 -3.4443 -2.4961 0.9794
-2.7312 -3.6485 -2.4962 0.9794
-2.5993 -3.7437 -2.4962 0.9794
-2.4641 -3.8341 -2.4962 0.9794
-2.3257 -3.9197 -2.4963 0.9794
-1.8935 -4.1461 -2.4965 0.9794
-1.7443 -4.2112 -2.4965 0.9794
-1.2843 -4.3740 -2.4968 0.9794
-1.1274 -4.4172 -2.4969 0.9794
-0.6489 -4.5130 -2.4972 0.9794
-0.4874 -4.5335 -2.4973 0.9794
-0.3253 -4.5483 -2.4975 0.9794
-0.0000 -4.5604 -2.4977 0.9794
0.1628 -4.5577 -2.4979 0.9794
0.4876 -4.5351 -2.4982 0.9794
0.6492 -4.5151 -2.4983 0.9794
0.8100 -4.4893 -2.4985 0.9794
0.9697 -4.4578 -2.4987 0.9794
1.1283 -4.4207 -2.4988 0.9794
1.2855 -4.3779 -2.4990 0.9794
1.8960 -4.1516 -2.4997 0.9794
2.4683 -3.8407 -2.5005 0.9794
2.6040 -3.7504 -2.5007 0.9794
2.7364 -3.6554 -2.5009 0.9794
2.8653 -3.5557 -2.5011 0.9794
3.2298 -3.2298 -2.5017 0.9794
3.5574 -2.8667 -2.5023 0.9794
3.6577 -2.7381 -2.5025 0.9794
3.8443 -2.4706 -2.5029 0.9794
3.9304 -2.3320 -2.5031 0.9794
4.0114 -2.1904 -2.5033 0.9794
4.1581 -1.8989 -2.5037 0.9794
4.2235 -1.7495 -2.5038 0.9794
4.3382 -1.4439 -2.5042 0.9794
4.5008 -0.8120 -2.5049 0.9794
4.5272 -0.6509 -2.5051 0.9794
4.5478 -0.4890 -2.5052 0.9794
4.5717 -0.1633 -2.5055 0.9794
-4.3236 -0.1544 -2.4978 0.9802
-4.3151 -0.3086 -2.4977 0.9802
-4.3011 -0.4624 -2.4976 0.9802
-4.2568 -0.7680 -2.4974 0.9802
-4.2265 -0.9194 -2.4972 0.9802
-4.1498 -1.2185 -2.4971 0.9802
-4.1035 -1.3658 -2.4970 0.9802
-3.9954 -1.6550 -2.4968 0.9802
-3.9337 -1.7965 -2.4967 0.9802
-3.8670 -1.9357 -2.4967 0.9802
-3.4615 -2.5913 -2.4965 0.9802
-3.3668 -2.7131 -2.4964 0.9802
-3.2678 -2.8316 -2.4964 0.9802
-3.1646 -2.9464 -2.4964 0.9802
-3.0575 -3.0575 -2.4964 0.9802
-2.9464 -3.1646 -2.4964 0.9802
-2.8316 -3.2678 -2.4964 0.9802
-2.7131 -3.3668 -2.4964 0.9802
-2.5913 -3.4615 -2.4964 0.9802
-2.4661 -3.5519 -2.4965 0.9802
-2.3378 -3.6377 -2.4965 0.9802
-1.5113 -4.0520 -2.4969 0.9802
-1.3658 -4.1035 -2.4970 0.9802
-1.0696 -4.1908 -2.4971 0.9802
-0.7680 -4.2568 -2.4973 0.9802
-0.3086 -4.3151 -2.4977 0.9802
-0.1544 -4.3236 -2.4978 0.9802
0.1544 -4.3240 -2.4981 0.9802
0.3087 -4.3160 -2.4982 0.9802
0.6159 -4.2835 -2.4985 0.9802
0.7684 -4.2591 -2.4987 0.9802
1.6568 -4.0000 -2.4997 0.9802
1.7987 -3.9386 -2.4998 0.9802
2.2099 -3.7245 -2.5004 0.9802
2.3416 -3.6436 -2.5006 0.9802
2.8371 -3.2742 -2.5013 0.9802
2.9524 -3.1711 -2.5015 0.9802
3.0639 -3.0639 -2.5017 0.9802
3.2752 -2.8380 -2.5021 0.9802
3.4698 -2.5975 -2.5025 0.9802
3.7285 -2.2122 -2.5030 0.9802
3.8773 -1.9409 -2.5034 0.9802
3.9444 -1.8014 -2.5036 0.9802
4.0065 -1.6596 -2.5037 0.9802
4.0635 -1.5156 -2.5039 0.9802
4.1152 -1.3697 -2.5041 0.9802
4.1618 -1.2220 -2.5042 0.9802
4.2030 -1.0728 -2.5044 0.9802
4.2694 -0.7703 -2.5047 0.9802
4.2944 -0.6175 -2.5049 0.9802
4.3366 -0.1549 -2.5053 0.9802
