ply
format ascii 1.0
element vertex 1275
property float32 x
property float32 y
property float32 z
property float32 I
end_header
-38.3577 -24.6510 8.0398 0.8309
-34.2233 -25.6192 7.5380 0.8406
-31.7004 -25.5458 7.1787 0.8476
-26.2794 -26.2795 6.5531 0.8599
-24.6697 -26.4972 6.3837 0.8633
-23.8805 -27.5595 6.4300 0.8623
-23.2473 -28.8482 6.5328 0.8603
-22.4154 -29.9435 6.5953 0.8591
-20.3747 -31.7038 6.6451 0.8581
-20.8365 -35.1181 7.2002 0.8472
-21.3832 -39.1604 7.8674 0.8342
2.5698 -14.2435 2.5521 0.9429
16.5469 -44.3638 8.3489 0.8250
17.4352 -38.1778 7.4005 0.8433
17.8777 -35.7151 7.0425 0.8503
19.1997 -32.3593 6.6346 0.8583
25.0781 -33.5004 7.3788 0.8437
31.7007 -34.0490 8.2030 0.8278
34.7499 -34.7499 8.6654 0.8191
-41.5166 -24.6329 7.3954 0.8225
-16.7700 -11.6436 3.1276 0.9207
-31.7012 -25.5464 6.2371 0.8481
-22.4990 -30.0552 5.7515 0.8591
-21.4703 -30.9231 5.7671 0.8587
-20.3748 -31.7038 5.7733 0.8586
2.0814 -14.4766 2.2406 0.9425
2.5678 -14.2325 2.2155 0.9432
16.5472 -44.3647 7.2538 0.8256
17.4356 -38.1786 6.4298 0.8438
17.9694 -32.9084 5.7440 0.8592
21.1923 -32.9758 6.0050 0.8533
22.8065 -32.8475 6.1260 0.8506
25.0786 -33.5012 6.4109 0.8442
29.2129 -33.7135 6.8339 0.8348
31.7016 -34.0499 7.1271 0.8284
34.7509 -34.7509 7.5288 0.8197
20.2401 -15.1515 3.8732 0.9027
-40.9568 -24.3008 6.2016 0.8252
-38.3597 -24.6523 5.9378 0.8320
-16.7728 -11.6456 2.6590 0.9209
-31.7019 -25.5470 5.3018 0.8485
-33.9860 -29.4491 5.8560 0.8341
-27.9803 -26.0506 4.9783 0.8571
-27.4305 -27.4305 5.0516 0.8551
-24.6708 -26.4983 4.7146 0.8641
-23.8809 -27.5600 4.7488 0.8632
-25.2671 -31.3545 5.2438 0.8501
-25.6468 -34.2601 5.5730 0.8414
-21.4706 -30.9236 4.9024 0.8591
-20.8366 -35.1182 5.3175 0.8481
-21.3833 -39.1605 5.8102 0.8353
-22.0425 -44.0354 6.4126 0.8198
0.4461 -12.4903 1.6275 0.9508
2.0819 -14.4797 1.9050 0.9427
17.4359 -38.1793 5.4657 0.8443
17.8785 -35.7166 5.2012 0.8512
19.2005 -32.3607 4.9000 0.8592
22.8070 -32.8483 5.2075 0.8510
27.2321 -33.7930 5.6516 0.8394
34.7519 -34.7519 6.3999 0.8202
-43.5065 -21.7779 5.2244 0.8222
-16.7756 -11.6475 2.1930 0.9211
-35.0750 -26.2568 4.7048 0.8384
-31.7026 -25.5476 4.3721 0.8489
-34.8515 -30.1990 4.9519 0.8307
-24.6713 -26.4988 3.8878 0.8645
-23.8810 -27.5602 3.9159 0.8635
-25.6639 -34.2829 4.5986 0.8417
-21.4710 -30.9241 4.0426 0.8595
-20.3749 -31.7039 4.0468 0.8593
-20.8366 -35.1183 4.3849 0.8485
2.5639 -14.2108 1.5506 0.9436
16.5478 -44.3664 5.0847 0.8265
16.9015 -40.8038 4.7426 0.8372
17.4363 -38.1801 4.5071 0.8446
25.0798 -33.5028 4.4939 0.8450
27.2328 -33.7938 4.6605 0.8398
31.7033 -34.0517 4.9960 0.8293
-41.3250 -8.9897 3.5801 0.8439
-42.7180 -25.3457 4.2048 0.8192
-34.8673 -30.2127 3.9055 0.8309
-27.4305 -27.4306 3.2839 0.8558
-24.6718 -26.4994 3.0650 0.8647
-23.8812 -27.5604 3.0871 0.8638
-25.6809 -34.3057 3.6276 0.8420
-20.3749 -31.7040 3.1903 0.8596
-20.8366 -35.1183 3.4568 0.8488
-21.3834 -39.1607 3.7771 0.8360
-8.8281 -48.9307 4.2090 0.8191
-2.3219 -21.5972 1.8388 0.9165
-1.5894 -22.2229 1.8860 0.9144
0.4461 -12.4892 1.0579 0.9511
2.0828 -14.4859 1.2389 0.9429
2.5620 -14.2001 1.2215 0.9437
7.5693 -22.7422 2.0290 0.9083
17.3721 -38.0396 3.5401 0.8455
17.7272 -35.4144 3.3525 0.8530
17.9693 -32.9083 3.1740 0.8603
21.0180 -32.7046 3.2910 0.8555
24.8725 -33.2258 3.5134 0.8465
27.0077 -33.5145 3.6436 0.8413
29.2151 -33.7161 3.7766 0.8360
31.7041 -34.0526 3.9386 0.8296
-41.2672 -8.9771 2.6188 0.8443
-32.0841 -17.5193 2.2668 0.8637
-42.7180 -25.3458 3.0801 0.8195
-38.7774 -24.9207 2.8583 0.8313
-16.7811 -11.6514 1.2668 0.9214
-35.0751 -26.2569 2.7169 0.8390
-34.7062 -30.0732 2.8477 0.8319
-27.9821 -26.0523 2.3708 0.8579
-27.4306 -27.4306 2.4055 0.8560
-24.6723 -26.4999 2.2452 0.8649
-25.6447 -34.2573 2.6536 0.8424
-13.2412 -20.6037 1.5187 0.9065
-20.8367 -35.1184 2.5322 0.8490
-11.4023 -20.8818 1.4754 0.9091
-13.7951 -30.2071 2.0592 0.8754
-8.8282 -48.9315 3.0833 0.8193
-7.0695 -49.1694 3.0804 0.8195
-2.1848 -20.3212 1.2674 0.9214
-1.5813 -22.1099 1.3745 0.9150
16.5248 -44.3046 2.9322 0.8274
16.9014 -40.8036 2.7387 0.8378
17.5647 -38.4613 2.6219 0.8441
17.9237 -35.8070 2.4831 0.8517
17.9693 -32.9083 2.3251 0.8605
22.8086 -32.8505 2.4800 0.8519
25.0810 -33.5043 2.5953 0.8456
12.1893 -15.1259 1.2046 0.9251
12.4897 -14.4139 1.1827 0.9264
34.4660 -34.4660 3.0225 0.8226
20.2660 -15.1710 1.5698 0.9035
-42.7180 -25.3458 1.9586 0.8197
-38.7775 -24.9208 1.8175 0.8315
-16.7839 -11.6533 0.8057 0.9215
-34.7460 -30.1076 1.8129 0.8319
-23.8816 -27.5608 1.4380 0.8642
-25.2782 -31.3683 1.5885 0.8511
-25.6923 -34.3210 1.6905 0.8423
-21.3834 -39.1609 1.7594 0.8364
-12.6895 -30.6353 1.3075 0.8757
-14.9357 -40.0441 1.6852 0.8427
-8.8284 -48.9323 1.9606 0.8195
0.4460 -12.4867 0.4927 0.9512
2.5581 -14.1788 0.5681 0.9440
16.5487 -44.3689 1.8672 0.8273
17.1626 -41.4342 1.7684 0.8357
17.5647 -38.4613 1.6672 0.8443
17.9693 -32.9082 1.4785 0.8606
21.1946 -32.9795 1.5458 0.8548
11.3110 -15.1097 0.7442 0.9272
11.8026 -14.6462 0.7417 0.9275
14.6312 -15.7150 0.8467 0.9176
27.3499 -25.4637 1.4735 0.8611
20.2630 -15.1687 0.9981 0.9036
-41.1584 -8.9535 0.7115 0.8449
-32.0949 -17.5252 0.6175 0.8639
-38.7775 -24.9208 0.7786 0.8316
-27.4306 -27.4307 0.6553 0.8562
-21.2654 -28.4074 0.5994 0.8677
-20.8368 -35.1185 0.6898 0.8493
-1.1216 -31.4055 0.5308 0.8819
17.5647 -38.4612 0.7142 0.8444
16.8624 -30.8811 0.5943 0.8687
19.2025 -32.3642 0.6357 0.8602
21.1951 -32.9802 0.6622 0.8548
22.8096 -32.8520 0.6756 0.8521
25.0822 -33.5059 0.7070 0.8458
34.7566 -34.7566 0.8303 0.8215
-42.7181 -25.3458 -0.2796 0.8198
-16.7894 -11.6571 -0.1151 0.9215
-35.0752 -26.2570 -0.2467 0.8392
-31.6787 -25.5284 -0.2291 0.8498
-33.8755 -29.3533 -0.2524 0.8359
-27.9596 -26.0313 -0.2151 0.8583
-27.4307 -27.4307 -0.2184 0.8563
-24.6738 -26.5015 -0.2039 0.8652
-23.8820 -27.5613 -0.2053 0.8643
-24.7642 -30.7304 -0.2222 0.8540
-21.4727 -30.9266 -0.2120 0.8602
-20.3750 -31.7042 -0.2122 0.8601
-1.1217 -31.4060 -0.1769 0.8819
0.4459 -12.4843 -0.0703 0.9513
2.5543 -14.1576 -0.0810 0.9441
15.0614 -45.2523 -0.2685 0.8263
15.7259 -42.1629 -0.2534 0.8353
17.1625 -41.4341 -0.2525 0.8358
17.5646 -38.4612 -0.2381 0.8444
17.9236 -35.8069 -0.2254 0.8520
21.1955 -32.9809 -0.2207 0.8549
22.8101 -32.8527 -0.2252 0.8522
25.0827 -33.5066 -0.2357 0.8458
12.8935 -14.8799 -0.1109 0.9243
32.0765 -34.4526 -0.2650 0.8284
33.1942 -33.1941 -0.2643 0.8288
35.6868 -33.2256 -0.2746 0.8228
-41.1361 -8.9486 -1.1854 0.8450
-42.7182 -25.3459 -1.3986 0.8197
-38.7776 -24.9208 -1.2979 0.8316
-16.7922 -11.6590 -0.5756 0.9215
-31.3101 -27.1304 -1.1666 0.8472
-24.6743 -26.5021 -1.0196 0.8651
-23.8822 -27.5615 -1.0269 0.8642
-20.3751 -31.7043 -1.0612 0.8600
-20.8368 -35.1187 -1.1498 0.8492
-21.3836 -39.1611 -1.2564 0.8365
-14.9363 -40.0458 -1.2035 0.8428
-8.8288 -48.9348 -1.4001 0.8196
0.4458 -12.4831 -0.3517 0.9512
2.5524 -14.1471 -0.4048 0.9441
15.0614 -45.2522 -1.3429 0.8263
15.3332 -41.1099 -1.2355 0.8390
17.5646 -38.4611 -1.1906 0.8443
16.7767 -30.7242 -0.9857 0.8693
19.2033 -32.3655 -1.0597 0.8602
21.1960 -32.9816 -1.1039 0.8548
25.0833 -33.5074 -1.1786 0.8458
12.2909 -15.2521 -0.5516 0.9246
12.8936 -14.8801 -0.5544 0.9242
33.1942 -33.1941 -1.3218 0.8287
35.6884 -33.2271 -1.3730 0.8227
20.2528 -15.1610 -0.7124 0.9037
-49.1994 -0.0000 -2.4951 0.8211
-45.6445 -6.5627 -2.3386 0.8314
-42.4025 -7.6503 -2.1851 0.8415
-44.1972 -12.9775 -2.3361 0.8315
-27.2146 -9.0579 -1.4546 0.8915
-25.7607 -9.6082 -1.3943 0.8957
-42.8095 -17.7323 -2.3499 0.8306
-28.2837 -14.1578 -1.6040 0.8810
-18.4564 -10.0779 -1.0665 0.9192
-16.7950 -11.6610 -1.0369 0.9214
-35.0753 -26.2570 -2.2220 0.8391
-31.7077 -25.5517 -2.0651 0.8495
-27.6942 -25.7842 -1.9190 0.8594
-27.4307 -27.4308 -1.9674 0.8561
-24.6748 -26.5026 -1.8364 0.8650
-24.7269 -30.6842 -1.9985 0.8540
-21.0380 -28.1035 -1.7804 0.8688
-20.8369 -35.1187 -2.0709 0.8491
-21.3328 -42.6176 -2.4170 0.8262
-19.8121 -43.3825 -2.4187 0.8261
-18.2625 -44.0896 -2.4202 0.8260
-14.9034 -39.9576 -2.1628 0.8430
-15.0867 -45.3281 -2.4228 0.8259
-10.1648 -46.7269 -2.4251 0.8257
-4.1616 -28.9446 -1.4830 0.8895
-1.0730 -30.0433 -1.5246 0.8866
0.0000 -30.4000 -1.5417 0.8854
0.4458 -12.4819 -0.6334 0.9512
3.2946 -30.6445 -1.5631 0.8839
6.7924 -47.2419 -2.4205 0.8260
2.5505 -14.1365 -0.7285 0.9441
10.1318 -46.5753 -2.4173 0.8262
11.7786 -46.1481 -2.4154 0.8263
13.4069 -45.6599 -2.4134 0.8265
15.0142 -45.1106 -2.4111 0.8266
19.1714 -32.3117 -1.9054 0.8603
22.7727 -32.7989 -2.0250 0.8522
25.0421 -33.4524 -2.1192 0.8459
31.8828 -34.2444 -2.3729 0.8291
33.0289 -33.0288 -2.3689 0.8294
34.1275 -31.7738 -2.3648 0.8296
35.1773 -30.4813 -2.3606 0.8299
36.1772 -29.1534 -2.3563 0.8302
20.2498 -15.1588 -1.2828 0.9037
38.0224 -26.3994 -2.3475 0.8308
39.6551 -23.5285 -2.3384 0.8314
40.9385 -20.4923 -2.3217 0.8325
41.1965 -18.8138 -2.2968 0.8341
46.0995 -17.1942 -2.4952 0.8211
46.7075 -15.5458 -2.4965 0.8211
47.2569 -13.8759 -2.4978 0.8210
47.7467 -12.1866 -2.4991 0.8209
48.8514 -7.0238 -2.5029 0.8206
-34.0566 -0.0000 -2.4971 0.8723
-34.0230 -1.2152 -2.4962 0.8724
-33.9461 -2.4279 -2.4954 0.8724
-33.8261 -3.6367 -2.4945 0.8725
-31.0042 -7.9133 -2.3462 0.8796
-30.6062 -8.9868 -2.3389 0.8799
-27.1266 -9.0286 -2.0963 0.8917
-25.7073 -9.5883 -2.0118 0.8958
-29.4429 -12.1957 -2.3367 0.8800
-28.9803 -13.2349 -2.3360 0.8800
-28.4812 -14.2567 -2.3353 0.8801
-18.4569 -10.0782 -1.5419 0.9191
-24.9667 -20.1195 -2.3510 0.8793
-21.0992 -24.3497 -2.3624 0.8788
-18.4188 -26.5281 -2.3680 0.8785
-16.5012 -27.8113 -2.3711 0.8784
-14.4918 -28.9509 -2.3738 0.8782
-13.4559 -29.4644 -2.3750 0.8782
-12.4010 -29.9386 -2.3760 0.8781
-11.3289 -30.3740 -2.3770 0.8781
-10.2411 -30.7695 -2.3778 0.8780
-5.7647 -26.5000 -1.9885 0.8969
2.0624 -28.8366 -2.1198 0.8905
4.6128 -32.0824 -2.3765 0.8781
10.2090 -30.6731 -2.3703 0.8784
12.3540 -29.8251 -2.3670 0.8786
13.4004 -29.3428 -2.3652 0.8786
16.4182 -27.6713 -2.3592 0.8789
18.3153 -26.3790 -2.3547 0.8791
21.7896 -23.4036 -2.3446 0.8796
22.2549 -20.7200 -2.2295 0.8852
24.0928 -20.8765 -2.3375 0.8800
21.6647 -17.4585 -2.0401 0.8944
23.1408 -16.0670 -2.0656 0.8932
26.8528 -17.2572 -2.3404 0.8798
28.5103 -15.5678 -2.3818 0.8778
30.4235 -15.2289 -2.4946 0.8724
30.9583 -14.1382 -2.4954 0.8724
31.4542 -13.0287 -2.4963 0.8724
32.3263 -10.7592 -2.4981 0.8723
33.0349 -8.4317 -2.4998 0.8722
33.3266 -7.2498 -2.5007 0.8722
33.5762 -6.0578 -2.5016 0.8721
34.0679 -2.4366 -2.5043 0.8720
34.1453 -1.2195 -2.5052 0.8719
-26.0212 -0.0000 -2.4982 0.9007
-25.9410 -1.8554 -2.4968 0.9008
-25.7291 -3.6993 -2.4955 0.9008
-25.5741 -4.6141 -2.4949 0.9008
-25.1671 -6.4235 -2.4936 0.9009
-24.6328 -8.1986 -2.4924 0.9009
-23.6384 -8.8167 -2.4221 0.9036
-22.5153 -9.3262 -2.3397 0.9067
-22.1631 -10.1216 -2.3391 0.9067
-21.7829 -10.9037 -2.3386 0.9068
-20.9406 -12.4247 -2.3376 0.9068
-16.9788 -10.9116 -1.9376 0.9221
-15.8411 -11.8585 -1.8997 0.9236
-16.0051 -12.8977 -1.9734 0.9207
-17.8247 -16.5954 -2.3381 0.9068
-15.8913 -15.8913 -2.1576 0.9136
-15.9820 -18.4442 -2.3430 0.9066
-15.3232 -19.0149 -2.3445 0.9065
-13.9438 -20.0830 -2.3472 0.9064
-13.2251 -20.5788 -2.3485 0.9064
-9.1503 -16.7575 -1.8330 0.9261
-10.1794 -22.2899 -2.3525 0.9062
-8.5689 -22.9740 -2.3540 0.9062
-7.7454 -23.2713 -2.3547 0.9061
-3.6873 -16.9504 -1.6654 0.9327
-3.4929 -24.2939 -2.3563 0.9061
-2.3128 -21.5125 -2.0772 0.9167
-1.7509 -24.4809 -2.3563 0.9061
-0.8759 -24.5262 -2.3561 0.9061
0.4457 -12.4795 -1.1989 0.9511
1.7500 -24.4683 -2.3551 0.9061
2.5646 -17.8368 -1.7300 0.9301
2.5467 -14.1154 -1.3770 0.9440
5.2082 -23.9418 -2.3523 0.9062
6.0570 -23.7312 -2.3514 0.9063
8.5957 -18.8218 -1.9865 0.9202
10.9286 -21.8325 -2.3440 0.9066
12.4417 -20.9694 -2.3409 0.9067
13.1729 -20.4974 -2.3392 0.9067
13.8858 -19.9994 -2.3375 0.9068
14.5892 -19.4890 -2.3372 0.9068
12.2913 -15.2526 -1.8806 0.9243
12.8874 -14.8729 -1.8893 0.9240
17.2290 -17.2289 -2.3392 0.9067
17.8369 -16.6068 -2.3397 0.9067
18.9851 -15.2991 -2.3408 0.9067
19.5238 -14.6153 -2.3414 0.9066
20.9220 -14.5264 -2.4453 0.9027
21.8566 -14.0464 -2.4943 0.9009
22.3498 -13.2607 -2.4949 0.9008
22.8147 -12.4577 -2.4956 0.9008
23.2508 -11.6385 -2.4962 0.9008
24.0346 -9.9555 -2.4976 0.9007
24.6968 -8.2199 -2.4989 0.9007
24.9812 -7.3352 -2.4996 0.9007
25.2340 -6.4407 -2.5003 0.9006
25.6432 -4.6265 -2.5016 0.9006
26.0690 -0.9311 -2.5043 0.9005
-21.0363 -0.0000 -2.4988 0.9188
-20.9023 -2.2473 -2.4972 0.9188
-20.8044 -2.9912 -2.4967 0.9188
-20.6801 -3.7311 -2.4962 0.9188
-20.3530 -5.1948 -2.4951 0.9189
-19.6695 -7.3364 -2.4937 0.9189
-19.3915 -8.0322 -2.4932 0.9189
-16.9408 -10.0515 -2.3399 0.9237
-15.7379 -11.7812 -2.3352 0.9239
-15.3284 -12.3524 -2.3384 0.9238
-13.4074 -14.4006 -2.3372 0.9238
-11.2168 -16.1553 -2.3362 0.9238
-8.8107 -17.6016 -2.3381 0.9238
-8.1794 -17.9103 -2.3388 0.9238
-7.5369 -18.1958 -2.3395 0.9237
-6.2225 -18.6955 -2.3405 0.9237
-5.5522 -18.9091 -2.3410 0.9237
-4.8745 -19.0981 -2.3413 0.9237
-3.7657 -17.3105 -2.1043 0.9311
-2.1075 -19.6028 -2.3420 0.9237
-1.4065 -19.6652 -2.3419 0.9237
0.0000 -19.7128 -2.3416 0.9237
0.4457 -12.4783 -1.4832 0.9509
1.4059 -19.6572 -2.3410 0.9237
2.5448 -14.1048 -1.7025 0.9439
3.4301 -15.7679 -1.9168 0.9371
5.5433 -18.8788 -2.3372 0.9238
6.8752 -18.4333 -2.3370 0.9238
7.5297 -18.1782 -2.3372 0.9238
8.8095 -17.5992 -2.3378 0.9238
9.4333 -17.2759 -2.3381 0.9238
10.0454 -16.9306 -2.3385 0.9238
11.2310 -16.1757 -2.3392 0.9237
13.4276 -14.4223 -2.3407 0.9237
15.8294 -13.7162 -2.4880 0.9191
16.8127 -12.5858 -2.4947 0.9189
17.2546 -11.9801 -2.4952 0.9189
18.4477 -10.0732 -2.4967 0.9188
19.7104 -7.3516 -2.4989 0.9188
20.8501 -2.9978 -2.5022 0.9186
20.9484 -2.2522 -2.5027 0.9186
21.0650 -0.7523 -2.5038 0.9186
-17.6391 0.0000 -2.4993 0.9312
-17.6246 -0.6294 -2.4988 0.9312
-17.5285 -1.8845 -2.4979 0.9313
-17.4470 -2.5085 -2.4975 0.9313
-17.0701 -4.3569 -2.4962 0.9313
-16.9009 -4.9626 -2.4958 0.9313
-16.2658 -6.7375 -2.4946 0.9313
-16.0125 -7.3127 -2.4942 0.9314
-15.7389 -7.8783 -2.4938 0.9314
-15.4454 -8.4338 -2.4935 0.9314
-15.1324 -8.9785 -2.4931 0.9314
-11.2496 -12.0829 -2.3392 0.9355
-10.8101 -12.4756 -2.3389 0.9355
-9.8909 -13.2126 -2.3385 0.9355
-9.4122 -13.5562 -2.3383 0.9355
-8.9217 -13.8825 -2.3382 0.9355
-7.1369 -12.0286 -1.9817 0.9451
-7.3853 -14.7539 -2.3377 0.9355
-5.7651 -15.4569 -2.3374 0.9355
-4.6475 -15.8279 -2.3373 0.9355
-3.5064 -16.1188 -2.3373 0.9355
-2.9289 -16.2336 -2.3373 0.9355
-1.7633 -16.4014 -2.3373 0.9355
-1.1768 -16.4541 -2.3373 0.9355
-0.5888 -16.4861 -2.3374 0.9355
1.5217 -14.1539 -2.0170 0.9441
1.9083 -13.2724 -1.8999 0.9473
3.4375 -13.4679 -1.9694 0.9454
4.6499 -15.8362 -2.3385 0.9355
6.8589 -15.0189 -2.3394 0.9355
7.9146 -14.4945 -2.3399 0.9355
9.4222 -13.5705 -2.3408 0.9354
9.9018 -13.2273 -2.3411 0.9354
10.5842 -13.1341 -2.3900 0.9341
11.4701 -13.2373 -2.4817 0.9317
12.4475 -12.4475 -2.4942 0.9314
13.3080 -11.5314 -2.4950 0.9313
14.1013 -10.5561 -2.4958 0.9313
14.8234 -9.5264 -2.4967 0.9313
15.4706 -8.4476 -2.4975 0.9313
15.7650 -7.8914 -2.4980 0.9313
16.0395 -7.3250 -2.4984 0.9312
16.2937 -6.7491 -2.4989 0.9312
16.5272 -6.1643 -2.4993 0.9312
16.7397 -5.5715 -2.4998 0.9312
16.9310 -4.9714 -2.5002 0.9312
17.3751 -3.1348 -2.5016 0.9312
17.4791 -2.5131 -2.5021 0.9311
17.6204 -1.2602 -2.5030 0.9311
17.6574 -0.6306 -2.5035 0.9311
-15.1730 0.0000 -2.4996 0.9403
-15.1610 -0.5415 -2.4992 0.9404
-15.1296 -1.0821 -2.4988 0.9404
-15.0791 -1.6212 -2.4984 0.9404
-14.8127 -3.2223 -2.4973 0.9404
-14.6861 -3.7484 -2.4969 0.9404
-14.5409 -4.2696 -2.4966 0.9404
-14.3772 -4.7852 -2.4962 0.9404
-14.1953 -5.2946 -2.4959 0.9404
-13.9954 -5.7971 -2.4956 0.9404
-13.7777 -6.2921 -2.4952 0.9404
-13.0213 -7.7259 -2.4943 0.9405
-12.7358 -8.1848 -2.4940 0.9405
-11.7840 -9.4961 -2.4932 0.9405
-11.0472 -10.2853 -2.4866 0.9406
-10.4573 -10.4573 -2.4363 0.9418
-8.9136 -11.0610 -2.3402 0.9440
-8.5125 -11.3713 -2.3400 0.9440
-8.1006 -11.6671 -2.3399 0.9440
-7.1377 -12.0299 -2.3044 0.9449
-6.8059 -12.4640 -2.3395 0.9441
-5.4338 -13.1185 -2.3392 0.9441
-4.4839 -13.4719 -2.3391 0.9441
-4.0001 -13.6231 -2.3390 0.9441
-3.0180 -13.8735 -2.3390 0.9441
-1.5177 -14.1167 -2.3390 0.9441
-1.0129 -14.1621 -2.3390 0.9441
-0.5068 -14.1895 -2.3391 0.9441
0.0000 -14.1989 -2.3391 0.9441
1.0130 -14.1637 -2.3393 0.9441
1.8959 -13.1860 -2.1946 0.9474
2.8945 -13.3059 -2.2433 0.9463
3.4131 -13.3722 -2.2735 0.9456
4.9648 -13.3110 -2.3404 0.9440
5.9027 -12.9252 -2.3408 0.9440
6.3609 -12.7074 -2.3410 0.9440
8.6313 -12.4314 -2.4932 0.9405
9.0726 -12.1195 -2.4940 0.9405
9.9164 -11.4442 -2.4946 0.9405
11.0872 -10.3226 -2.4956 0.9404
11.4502 -9.9216 -2.4959 0.9404
13.0392 -7.7365 -2.4977 0.9404
13.5620 -6.7886 -2.4985 0.9404
14.0161 -5.8056 -2.4992 0.9404
14.3990 -4.7925 -2.5000 0.9403
14.5632 -4.2761 -2.5004 0.9403
14.7089 -3.7542 -2.5008 0.9403
14.8359 -3.2273 -2.5012 0.9403
15.0331 -2.1614 -2.5020 0.9403
15.1031 -1.6237 -2.5024 0.9403
-13.2998 0.0000 -2.4998 0.9473
-13.2182 -1.4211 -2.4988 0.9473
-13.1573 -1.8917 -2.4985 0.9473
-12.7476 -3.7430 -2.4972 0.9474
-12.6043 -4.1951 -2.4969 0.9474
-12.4451 -4.6418 -2.4966 0.9474
-12.2700 -5.0824 -2.4963 0.9474
-12.0794 -5.5165 -2.4960 0.9474
-11.6525 -6.3627 -2.4955 0.9474
-11.4167 -6.7738 -2.4952 0.9474
-10.3324 -8.3264 -2.4942 0.9474
-10.0278 -8.6891 -2.4940 0.9474
-9.7104 -9.0407 -2.4938 0.9474
-9.3808 -9.3808 -2.4936 0.9474
-9.0393 -9.7089 -2.4934 0.9474
-8.3190 -10.3233 -2.4920 0.9475
-7.9327 -10.5968 -2.4881 0.9476
-5.5740 -11.1354 -2.3406 0.9506
-5.1728 -11.3269 -2.3405 0.9506
-3.5078 -11.9466 -2.3403 0.9506
-0.8882 -12.4192 -2.3403 0.9506
-0.4444 -12.4432 -2.3403 0.9506
0.0000 -12.4514 -2.3404 0.9506
1.7723 -12.3264 -2.3407 0.9506
3.5807 -12.1947 -2.3889 0.9496
5.0657 -12.2297 -2.4881 0.9475
5.5079 -12.0606 -2.4921 0.9475
5.9388 -11.8642 -2.4938 0.9474
6.3590 -11.6457 -2.4940 0.9474
7.5696 -10.9023 -2.4947 0.9474
8.6943 -10.0338 -2.4955 0.9474
9.7204 -9.0500 -2.4963 0.9474
10.3437 -8.3355 -2.4969 0.9474
10.6359 -7.9619 -2.4972 0.9474
11.4305 -6.7820 -2.4982 0.9473
11.6668 -6.3705 -2.4985 0.9473
12.2859 -5.0890 -2.4995 0.9473
12.7647 -3.7481 -2.5006 0.9473
12.8922 -3.2905 -2.5009 0.9473
13.0032 -2.8287 -2.5013 0.9473
13.1755 -1.8944 -2.5020 0.9473
13.3081 -0.4753 -2.5030 0.9472
-11.8182 -0.4221 -2.4997 0.9528
-11.7942 -0.8435 -2.4994 0.9528
-11.7552 -1.2638 -2.4991 0.9528
-11.7012 -1.6824 -2.4988 0.9528
-11.5487 -2.5123 -2.4982 0.9528
-11.0687 -4.1284 -2.4971 0.9528
-10.9131 -4.5204 -2.4969 0.9529
-9.4500 -7.0742 -2.4952 0.9529
-8.3444 -8.3444 -2.4945 0.9529
-8.0407 -8.6364 -2.4943 0.9529
-7.7269 -8.9173 -2.4941 0.9529
-7.0702 -9.4446 -2.4938 0.9529
-6.7282 -9.6905 -2.4937 0.9529
-6.3777 -9.9240 -2.4936 0.9529
-5.2797 -10.5475 -2.4933 0.9529
-4.8984 -10.7260 -2.4925 0.9529
-4.5089 -10.8854 -2.4905 0.9530
-4.1146 -11.0318 -2.4888 0.9530
-3.7161 -11.1650 -2.4873 0.9530
-3.3135 -11.2848 -2.4861 0.9531
-2.4863 -11.4292 -2.4724 0.9533
-1.2448 -11.5787 -2.4616 0.9535
0.0000 -11.7238 -2.4782 0.9532
0.4198 -11.7528 -2.4859 0.9531
3.7260 -11.1948 -2.4940 0.9529
4.1234 -11.0553 -2.4941 0.9529
6.3820 -9.9306 -2.4952 0.9529
6.7330 -9.6973 -2.4955 0.9529
8.0476 -8.6437 -2.4964 0.9529
8.3518 -8.3518 -2.4966 0.9529
8.9282 -7.7363 -2.4972 0.9528
9.1996 -7.4135 -2.4974 0.9528
9.4594 -7.0812 -2.4977 0.9528
9.9427 -6.3898 -2.4983 0.9528
10.1656 -6.0315 -2.4986 0.9528
10.3756 -5.6655 -2.4989 0.9528
10.5725 -5.2922 -2.4992 0.9528
10.7559 -4.9121 -2.4995 0.9528
11.4642 -2.9261 -2.5010 0.9528
11.5627 -2.5153 -2.5013 0.9528
11.6466 -2.1013 -2.5016 0.9528
11.7156 -1.6844 -2.5019 0.9528
11.7697 -1.2654 -2.5022 0.9528
11.8089 -0.8446 -2.5025 0.9528
11.8329 -0.4226 -2.5028 0.9527
-10.6301 -0.3797 -2.4999 0.9572
-10.5252 -1.5133 -2.4991 0.9572
-10.4634 -1.8878 -2.4988 0.9573
-10.3883 -2.2598 -2.4986 0.9573
-10.1985 -2.9946 -2.4981 0.9573
-9.8171 -4.0664 -2.4974 0.9573
-9.5003 -4.7555 -2.4969 0.9573
-9.1353 -5.4202 -2.4965 0.9573
-8.9352 -5.7423 -2.4963 0.9573
-8.0246 -6.9534 -2.4955 0.9573
-7.2340 -7.7698 -2.4950 0.9573
-5.4154 -9.1272 -2.4943 0.9573
-3.3510 -10.0681 -2.4939 0.9573
-2.6241 -10.2813 -2.4938 0.9573
-2.2555 -10.3684 -2.4938 0.9573
-1.5101 -10.5028 -2.4938 0.9573
-0.7570 -10.5840 -2.4938 0.9573
-0.3787 -10.6044 -2.4939 0.9573
0.3788 -10.6048 -2.4940 0.9573
0.7570 -10.5848 -2.4940 0.9573
1.5103 -10.5045 -2.4942 0.9573
2.9904 -10.1844 -2.4946 0.9573
3.3522 -10.0717 -2.4947 0.9573
3.7097 -9.9462 -2.4949 0.9573
4.4104 -9.6573 -2.4952 0.9573
4.7526 -9.4944 -2.4953 0.9573
6.6652 -8.2710 -2.4965 0.9573
7.5131 -7.5131 -2.4971 0.9573
7.7772 -7.2408 -2.4974 0.9573
8.0314 -6.9593 -2.4976 0.9573
8.2755 -6.6688 -2.4979 0.9573
8.5091 -6.3698 -2.4981 0.9573
8.7319 -6.0627 -2.4984 0.9573
8.9437 -5.7477 -2.4986 0.9573
9.3329 -5.0961 -2.4991 0.9572
9.9674 -3.7177 -2.5002 0.9572
10.0949 -3.3599 -2.5005 0.9572
10.3997 -2.2623 -2.5013 0.9572
10.5854 -1.1380 -2.5022 0.9572
10.6420 -0.3801 -2.5027 0.9572
-9.6568 0.0000 -2.5003 0.9609
-9.6497 -0.3446 -2.5001 0.9609
-9.5548 -1.3738 -2.4993 0.9609
-9.4987 -1.7138 -2.4991 0.9609
-9.3505 -2.3866 -2.4986 0.9609
-9.1548 -3.0470 -2.4982 0.9609
-9.0394 -3.3715 -2.4980 0.9609
-8.6250 -4.3174 -2.4973 0.9609
-8.2938 -4.9209 -2.4969 0.9609
-7.7185 -5.7780 -2.4964 0.9609
-7.5069 -6.0494 -2.4962 0.9609
-7.2857 -6.3131 -2.4961 0.9609
-6.8159 -6.8159 -2.4958 0.9610
-6.5680 -7.0545 -2.4956 0.9610
-6.3116 -7.2840 -2.4955 0.9610
-6.0473 -7.5043 -2.4954 0.9610
-5.7754 -7.7150 -2.4952 0.9610
-5.4961 -7.9159 -2.4951 0.9610
-4.9170 -8.2871 -2.4949 0.9610
-4.0026 -8.7645 -2.4947 0.9610
-2.3827 -9.3351 -2.4945 0.9610
-2.0479 -9.4142 -2.4945 0.9610
-0.6873 -9.6100 -2.4945 0.9610
1.0300 -9.5803 -2.4948 0.9610
1.7109 -9.4830 -2.4950 0.9610
2.0484 -9.4162 -2.4950 0.9610
3.0436 -9.1445 -2.4954 0.9610
4.0043 -8.7682 -2.4958 0.9610
4.3150 -8.6202 -2.4959 0.9610
4.6202 -8.4612 -2.4961 0.9609
5.4993 -7.9204 -2.4966 0.9609
5.7789 -7.7197 -2.4968 0.9609
6.0512 -7.5091 -2.4970 0.9609
6.3158 -7.2889 -2.4971 0.9609
6.5725 -7.0594 -2.4973 0.9609
6.8208 -6.8208 -2.4976 0.9609
7.0605 -6.5736 -2.4978 0.9609
7.7248 -5.7827 -2.4984 0.9609
8.1192 -5.2179 -2.4989 0.9609
8.3010 -4.9252 -2.4991 0.9609
8.6329 -4.3213 -2.4996 0.9609
8.7825 -4.0108 -2.4998 0.9609
8.9209 -3.6952 -2.5001 0.9609
9.0480 -3.3747 -2.5003 0.9609
9.1636 -3.0499 -2.5006 0.9609
9.3597 -2.3889 -2.5011 0.9609
9.5082 -1.7155 -2.5016 0.9609
9.6083 -1.0330 -2.5021 0.9609
-8.8325 -0.0000 -2.5004 0.9639
-8.7395 -1.2566 -2.4995 0.9640
-8.6883 -1.5675 -2.4993 0.9640
-8.5529 -2.1830 -2.4989 0.9640
-8.4688 -2.4867 -2.4987 0.9640
-8.1525 -3.3769 -2.4981 0.9640
-7.8896 -3.9493 -2.4977 0.9640
-7.4207 -4.7690 -2.4972 0.9640
-7.2453 -5.0305 -2.4970 0.9640
-7.0607 -5.2855 -2.4968 0.9640
-6.8671 -5.5338 -2.4967 0.9640
-6.6648 -5.7751 -2.4965 0.9640
-6.0083 -6.4534 -2.4961 0.9640
-5.5321 -6.8649 -2.4959 0.9640
-5.0278 -7.2415 -2.4957 0.9640
-4.4981 -7.5812 -2.4955 0.9640
-4.2245 -7.7366 -2.4954 0.9640
-2.7834 -8.3629 -2.4952 0.9640
-2.4832 -8.4568 -2.4951 0.9640
-2.1797 -8.5400 -2.4951 0.9640
-1.8735 -8.6123 -2.4951 0.9640
-0.9422 -8.7633 -2.4951 0.9640
-0.6288 -8.7914 -2.4951 0.9640
0.0000 -8.8141 -2.4952 0.9640
0.3146 -8.8087 -2.4953 0.9640
1.2545 -8.7252 -2.4954 0.9640
2.1802 -8.5420 -2.4957 0.9640
2.4838 -8.4591 -2.4958 0.9640
2.7843 -8.3654 -2.4959 0.9640
3.3743 -8.1462 -2.4961 0.9640
3.9472 -7.8856 -2.4964 0.9640
4.5002 -7.5848 -2.4967 0.9640
6.0121 -6.4575 -2.4977 0.9640
6.4584 -6.0130 -2.4981 0.9640
6.6695 -5.7791 -2.4983 0.9640
7.2508 -5.0343 -2.4989 0.9640
7.4265 -4.7727 -2.4991 0.9640
7.5928 -4.5050 -2.4993 0.9640
7.7494 -4.2315 -2.4995 0.9640
8.0330 -3.6685 -2.5000 0.9640
8.1595 -3.3798 -2.5002 0.9640
8.2757 -3.0867 -2.5004 0.9639
8.6339 -1.8782 -2.5014 0.9639
8.7475 -1.2577 -2.5018 0.9639
8.8166 -0.6306 -2.5023 0.9639
8.8343 -0.3155 -2.5025 0.9639
-8.1238 -0.2901 -2.5003 0.9666
-8.1076 -0.5799 -2.5001 0.9666
-8.0811 -0.8688 -2.4999 0.9666
-7.9972 -1.4429 -2.4995 0.9666
-7.8727 -2.0094 -2.4991 0.9666
-7.6111 -2.8388 -2.4985 0.9666
-7.5043 -3.1084 -2.4984 0.9666
-7.3881 -3.3740 -2.4982 0.9666
-7.2625 -3.6353 -2.4980 0.9666
-6.9837 -4.1436 -2.4977 0.9666
-6.6695 -4.6307 -2.4974 0.9666
-6.4996 -4.8655 -2.4972 0.9666
-5.3152 -6.1340 -2.4965 0.9666
-5.0926 -6.3196 -2.4963 0.9666
-4.3874 -6.8270 -2.4961 0.9666
-3.8890 -7.1222 -2.4959 0.9666
-3.6322 -7.2562 -2.4959 0.9666
-3.3708 -7.3811 -2.4958 0.9666
-2.8356 -7.6025 -2.4957 0.9666
-2.5624 -7.6987 -2.4957 0.9666
-2.0066 -7.8618 -2.4956 0.9666
-0.5788 -8.0932 -2.4957 0.9666
0.0000 -8.1141 -2.4957 0.9666
0.2896 -8.1091 -2.4958 0.9666
0.8674 -8.0681 -2.4959 0.9666
1.4408 -7.9861 -2.4960 0.9666
2.2865 -7.7871 -2.4963 0.9666
3.3720 -7.3837 -2.4967 0.9666
3.8906 -7.1251 -2.4969 0.9666
4.8661 -6.5004 -2.4975 0.9666
5.0953 -6.3229 -2.4977 0.9666
5.3181 -6.1375 -2.4978 0.9666
5.7432 -5.7432 -2.4982 0.9666
5.9450 -5.5350 -2.4984 0.9666
6.5040 -4.8688 -2.4989 0.9666
6.9888 -4.1467 -2.4995 0.9666
7.3938 -3.3767 -2.5001 0.9666
7.5103 -3.1109 -2.5003 0.9666
7.6172 -2.8411 -2.5005 0.9665
8.0511 -1.1576 -2.5018 0.9665
8.1308 -0.2904 -2.5024 0.9665
-7.5174 -0.2685 -2.5004 0.9688
-7.5024 -0.5366 -2.5002 0.9688
-7.4779 -0.8040 -2.5000 0.9688
-7.1330 -2.3741 -2.4989 0.9688
-7.0432 -2.6270 -2.4988 0.9688
-6.9445 -2.8765 -2.4986 0.9688
-6.8370 -3.1223 -2.4984 0.9688
-6.7208 -3.3642 -2.4983 0.9688
-6.5960 -3.6017 -2.4981 0.9688
-6.4628 -3.8346 -2.4980 0.9688
-6.3215 -4.0626 -2.4978 0.9688
-6.1721 -4.2854 -2.4977 0.9688
-5.8500 -4.7143 -2.4974 0.9688
-5.6778 -4.9198 -2.4973 0.9688
-4.9189 -5.6767 -2.4968 0.9688
-4.5011 -6.0127 -2.4966 0.9688
-3.8322 -6.4588 -2.4964 0.9688
-2.8738 -6.9379 -2.4962 0.9688
-2.1156 -7.2050 -2.4961 0.9688
-1.5962 -7.3375 -2.4961 0.9688
-0.8027 -7.4661 -2.4961 0.9688
-0.5357 -7.4901 -2.4961 0.9688
0.0000 -7.5094 -2.4962 0.9688
0.2680 -7.5047 -2.4962 0.9688
0.5357 -7.4905 -2.4962 0.9688
1.0688 -7.4335 -2.4964 0.9688
1.3335 -7.3908 -2.4964 0.9688
1.8574 -7.2773 -2.4966 0.9688
2.1161 -7.2066 -2.4967 0.9688
2.3720 -7.1268 -2.4967 0.9688
2.6250 -7.0378 -2.4968 0.9688
3.1206 -6.8332 -2.4971 0.9688
3.3627 -6.7178 -2.4972 0.9688
3.6005 -6.5938 -2.4973 0.9688
3.8337 -6.4614 -2.4974 0.9688
4.2854 -6.1721 -2.4977 0.9688
4.7153 -5.8514 -2.4980 0.9688
4.9215 -5.6797 -2.4981 0.9688
5.1214 -5.5008 -2.4983 0.9688
6.4672 -3.8372 -2.4997 0.9688
6.6006 -3.6042 -2.4999 0.9688
6.7255 -3.3666 -2.5000 0.9688
6.8419 -3.1246 -2.5002 0.9688
7.1384 -2.3759 -2.5008 0.9688
7.2192 -2.1197 -2.5010 0.9688
7.4062 -1.3362 -2.5016 0.9688
7.4497 -1.0711 -2.5018 0.9688
7.5083 -0.5370 -2.5022 0.9688
7.5233 -0.2687 -2.5024 0.9688
-6.9740 -0.4988 -2.5003 0.9707
-6.9196 -0.9949 -2.5000 0.9707
-6.8792 -1.2412 -2.4998 0.9707
-6.8301 -1.4858 -2.4996 0.9707
-6.7722 -1.7285 -2.4994 0.9707
-6.7058 -1.9690 -2.4993 0.9707
-6.6308 -2.2069 -2.4991 0.9707
-6.5474 -2.4421 -2.4990 0.9708
-6.3557 -2.9026 -2.4987 0.9708
-6.1317 -3.3482 -2.4984 0.9708
-6.0080 -3.5647 -2.4982 0.9708
-5.8766 -3.7767 -2.4981 0.9708
-5.7378 -3.9838 -2.4980 0.9708
-5.4384 -4.3825 -2.4977 0.9708
-5.2783 -4.5737 -2.4976 0.9708
-4.9381 -4.9381 -2.4974 0.9708
-4.5729 -5.2774 -2.4972 0.9708
-4.3815 -5.4371 -2.4971 0.9708
-3.9822 -5.7354 -2.4969 0.9708
-3.5626 -6.0045 -2.4968 0.9708
-3.3460 -6.1277 -2.4967 0.9708
-3.1251 -6.2431 -2.4967 0.9708
-2.9002 -6.3505 -2.4966 0.9708
-2.6716 -6.4499 -2.4966 0.9708
-2.4397 -6.5410 -2.4965 0.9708
-2.2046 -6.6239 -2.4965 0.9708
-1.7265 -6.7642 -2.4965 0.9708
-0.9935 -6.9099 -2.4965 0.9708
-0.7462 -6.9410 -2.4965 0.9708
-0.4980 -6.9633 -2.4965 0.9708
-0.2492 -6.9767 -2.4965 0.9708
0.2492 -6.9769 -2.4966 0.9708
0.7463 -6.9416 -2.4967 0.9708
0.9936 -6.9107 -2.4967 0.9708
1.4842 -6.8225 -2.4968 0.9708
1.7268 -6.7654 -2.4969 0.9708
1.9672 -6.6997 -2.4970 0.9708
2.2051 -6.6254 -2.4971 0.9708
2.4403 -6.5427 -2.4972 0.9708
3.5640 -6.0068 -2.4977 0.9708
4.5751 -5.2799 -2.4984 0.9708
4.7609 -5.1136 -2.4985 0.9708
4.9407 -4.9407 -2.4987 0.9708
5.2812 -4.5762 -2.4990 0.9708
5.4415 -4.3851 -2.4991 0.9707
5.5949 -4.1883 -2.4993 0.9707
6.2518 -3.1294 -2.5001 0.9707
6.3600 -2.9045 -2.5003 0.9707
6.4601 -2.6758 -2.5005 0.9707
6.5519 -2.4437 -2.5007 0.9707
6.6355 -2.2085 -2.5009 0.9707
6.7105 -1.9704 -2.5010 0.9707
6.7771 -1.7298 -2.5012 0.9707
6.8350 -1.4869 -2.5014 0.9707
6.8842 -1.2421 -2.5016 0.9707
6.9247 -0.9956 -2.5018 0.9707
6.9563 -0.7479 -2.5020 0.9707
6.9791 -0.4992 -2.5021 0.9707
6.9930 -0.2497 -2.5023 0.9707
-6.5256 -0.0000 -2.5007 0.9724
-6.4198 -1.1583 -2.4999 0.9724
-6.3740 -1.3866 -2.4997 0.9724
-6.2580 -1.8375 -2.4994 0.9724
-6.1881 -2.0596 -2.4993 0.9724
-6.0247 -2.4955 -2.4990 0.9725
-5.7224 -3.1247 -2.4986 0.9725
-5.6070 -3.3268 -2.4984 0.9725
-5.3548 -3.7179 -2.4982 0.9725
-4.9260 -4.2684 -2.4979 0.9725
-4.7704 -4.4414 -2.4977 0.9725
-4.4410 -4.7700 -2.4976 0.9725
-4.2678 -4.9253 -2.4975 0.9725
-4.0891 -5.0743 -2.4974 0.9725
-3.9053 -5.2169 -2.4973 0.9725
-3.7165 -5.3528 -2.4972 0.9725
-3.3250 -5.6040 -2.4971 0.9725
-3.1228 -5.7189 -2.4970 0.9725
-2.7067 -5.9269 -2.4969 0.9725
-2.4934 -6.0196 -2.4969 0.9725
-2.2769 -6.1047 -2.4969 0.9725
-2.0576 -6.1820 -2.4968 0.9725
-1.6113 -6.3130 -2.4968 0.9725
-1.3849 -6.3665 -2.4968 0.9725
-1.1568 -6.4118 -2.4968 0.9725
-0.9272 -6.4490 -2.4968 0.9725
-0.6965 -6.4780 -2.4968 0.9725
-0.2326 -6.5113 -2.4968 0.9725
0.0000 -6.5155 -2.4969 0.9725
0.2326 -6.5115 -2.4969 0.9725
0.4648 -6.4991 -2.4969 0.9725
0.6965 -6.4785 -2.4970 0.9725
1.1570 -6.4126 -2.4971 0.9725
1.3851 -6.3674 -2.4972 0.9725
1.6116 -6.3141 -2.4972 0.9725
1.8360 -6.2527 -2.4973 0.9725
2.0580 -6.1834 -2.4974 0.9725
2.2775 -6.1062 -2.4975 0.9725
2.4941 -6.0212 -2.4976 0.9725
2.7075 -5.9286 -2.4977 0.9725
3.3261 -5.6059 -2.4980 0.9725
4.4431 -4.7722 -2.4987 0.9725
4.6109 -4.6108 -2.4989 0.9725
5.0782 -4.0923 -2.4993 0.9724
5.6103 -3.3287 -2.4999 0.9724
5.7259 -3.1266 -2.5001 0.9724
6.0285 -2.4971 -2.5006 0.9724
6.3782 -1.3875 -2.5014 0.9724
6.4241 -1.1590 -2.5016 0.9724
-6.1060 -0.2181 -2.5006 0.9739
-6.0466 -0.8694 -2.5002 0.9739
-5.9684 -1.2984 -2.4999 0.9739
-5.9179 -1.5105 -2.4997 0.9739
-5.8599 -1.7206 -2.4996 0.9739
-5.6415 -2.3368 -2.4992 0.9740
-5.4598 -2.7330 -2.4989 0.9740
-5.3585 -2.9260 -2.4988 0.9740
-5.2504 -3.1152 -2.4986 0.9740
-5.1356 -3.3005 -2.4985 0.9740
-5.0143 -3.4815 -2.4984 0.9740
-4.7528 -3.8300 -2.4982 0.9740
-4.4671 -4.1590 -2.4980 0.9740
-3.9965 -4.6122 -2.4977 0.9740
-3.8292 -4.7517 -2.4976 0.9740
-3.6570 -4.8852 -2.4976 0.9740
-3.4803 -5.0125 -2.4975 0.9740
-2.9243 -5.3555 -2.4973 0.9740
-2.7312 -5.4563 -2.4973 0.9740
-0.8683 -6.0392 -2.4971 0.9740
-0.6522 -6.0664 -2.4971 0.9740
0.2178 -6.0977 -2.4972 0.9740
0.4353 -6.0861 -2.4972 0.9740
0.6522 -6.0668 -2.4973 0.9740
1.2971 -5.9627 -2.4974 0.9740
1.5091 -5.9127 -2.4975 0.9740
2.1327 -5.7180 -2.4977 0.9740
2.5354 -5.5517 -2.4979 0.9740
3.3002 -5.1352 -2.4983 0.9740
3.6585 -4.8871 -2.4985 0.9740
3.8307 -4.7537 -2.4987 0.9740
3.9982 -4.6141 -2.4988 0.9740
4.1605 -4.4687 -2.4989 0.9740
4.3176 -4.3176 -2.4990 0.9740
4.4692 -4.1610 -2.4992 0.9740
4.7552 -3.8320 -2.4994 0.9740
4.8892 -3.6600 -2.4996 0.9739
5.1384 -3.3023 -2.4999 0.9739
5.2533 -3.1169 -2.5000 0.9739
5.3616 -2.9276 -2.5002 0.9739
5.5574 -2.5380 -2.5005 0.9739
5.6448 -2.3382 -2.5006 0.9739
5.7251 -2.1353 -2.5008 0.9739
5.9216 -1.5114 -2.5013 0.9739
5.9722 -1.2992 -2.5014 0.9739
6.0979 -0.4361 -2.5021 0.9739
6.1099 -0.2182 -2.5022 0.9739
-5.7343 -0.2048 -2.5007 0.9753
-5.7230 -0.4093 -2.5005 0.9753
-5.6455 -1.0185 -2.5001 0.9753
-5.6052 -1.2193 -2.5000 0.9753
-5.5578 -1.4185 -2.4998 0.9753
-5.5033 -1.6159 -2.4997 0.9753
-5.4418 -1.8112 -2.4996 0.9753
-5.3735 -2.0042 -2.4994 0.9753
-5.2163 -2.3822 -2.4992 0.9753
-4.8232 -3.0997 -2.4987 0.9753
-4.7093 -3.2697 -2.4986 0.9753
-4.5894 -3.4356 -2.4985 0.9753
-4.4637 -3.5971 -2.4984 0.9753
-4.3323 -3.7540 -2.4983 0.9753
-4.0532 -4.0532 -2.4981 0.9753
-3.9058 -4.1951 -2.4980 0.9753
-3.4347 -4.5882 -2.4978 0.9753
-2.5652 -5.1246 -2.4975 0.9753
-2.1930 -5.2943 -2.4975 0.9753
-1.8097 -5.4372 -2.4974 0.9753
-1.4172 -5.5524 -2.4974 0.9753
-1.2181 -5.5994 -2.4974 0.9753
-1.0174 -5.6393 -2.4974 0.9753
-0.8155 -5.6720 -2.4974 0.9753
-0.6125 -5.6975 -2.4974 0.9753
-0.4088 -5.7158 -2.4974 0.9753
-0.2045 -5.7268 -2.4974 0.9753
0.4088 -5.7160 -2.4975 0.9753
0.8156 -5.6725 -2.4976 0.9753
1.4174 -5.5532 -2.4978 0.9753
2.7473 -5.0313 -2.4983 0.9753
3.0995 -4.8228 -2.4985 0.9753
3.5977 -4.4645 -2.4988 0.9753
3.7549 -4.3334 -2.4989 0.9753
4.0549 -4.0549 -2.4992 0.9753
4.1973 -3.9078 -2.4993 0.9753
4.5916 -3.4373 -2.4997 0.9753
4.7117 -3.2714 -2.4998 0.9753
5.1304 -2.5681 -2.5004 0.9753
5.2191 -2.3835 -2.5006 0.9753
5.3765 -2.0053 -2.5008 0.9753
5.4450 -1.8123 -2.5010 0.9753
5.5065 -1.6169 -2.5011 0.9753
5.6819 -0.8169 -2.5017 0.9753
5.7078 -0.6137 -2.5019 0.9753
5.7377 -0.2049 -2.5022 0.9753
-5.4028 0.0000 -2.5009 0.9765
-5.3991 -0.1928 -2.5007 0.9765
-5.3710 -0.5774 -2.5005 0.9765
-5.3466 -0.7687 -2.5003 0.9765
-5.2330 -1.3356 -2.4999 0.9765
-5.0595 -1.8871 -2.4996 0.9765
-4.9887 -2.0664 -2.4994 0.9765
-4.6430 -2.7548 -2.4990 0.9765
-4.5415 -2.9186 -2.4989 0.9765
-3.9504 -3.6779 -2.4984 0.9765
-3.8165 -3.8165 -2.4983 0.9765
-3.5343 -4.0788 -2.4982 0.9765
-3.3863 -4.2022 -2.4981 0.9765
-3.2341 -4.3203 -2.4980 0.9765
-3.0778 -4.4328 -2.4980 0.9765
-2.4154 -4.8253 -2.4978 0.9765
-2.2416 -4.9084 -2.4977 0.9765
-1.8857 -5.0557 -2.4977 0.9765
-1.7040 -5.1197 -2.4977 0.9765
-1.3344 -5.2282 -2.4976 0.9765
-0.7679 -5.3409 -2.4976 0.9765
-0.1926 -5.3924 -2.4977 0.9765
0.0000 -5.3959 -2.4977 0.9765
0.3850 -5.3823 -2.4977 0.9765
0.7680 -5.3413 -2.4978 0.9765
1.1471 -5.2731 -2.4979 0.9765
1.3346 -5.2289 -2.4980 0.9765
1.5204 -5.1781 -2.4980 0.9765
1.7043 -5.1206 -2.4981 0.9765
2.0654 -4.9863 -2.4983 0.9765
2.4160 -4.8266 -2.4984 0.9765
2.7544 -4.6422 -2.4986 0.9765
3.0788 -4.4343 -2.4988 0.9765
3.3875 -4.2037 -2.4990 0.9765
3.6791 -3.9517 -2.4992 0.9765
3.8180 -3.8180 -2.4993 0.9765
4.2049 -3.3885 -2.4997 0.9765
4.3233 -3.2364 -2.4998 0.9765
4.4363 -3.0802 -2.4999 0.9765
4.5437 -2.9200 -2.5001 0.9765
4.7409 -2.5887 -2.5003 0.9765
4.8305 -2.4180 -2.5005 0.9765
4.9913 -2.0675 -2.5008 0.9765
5.2806 -1.1487 -2.5015 0.9765
5.3185 -0.9596 -2.5016 0.9765
5.3497 -0.7692 -2.5017 0.9765
5.3915 -0.3856 -2.5020 0.9765
5.4021 -0.1929 -2.5022 0.9765
-5.0849 -0.3637 -2.5007 0.9775
-5.0685 -0.5449 -2.5005 0.9775
-5.0455 -0.7254 -2.5004 0.9775
-4.9804 -1.0834 -2.5001 0.9775
-4.8900 -1.4358 -2.4999 0.9775
-4.8354 -1.6094 -2.4998 0.9776
-4.7746 -1.7808 -2.4997 0.9776
-4.7078 -1.9500 -2.4996 0.9776
-4.6350 -2.1167 -2.4994 0.9776
-4.5563 -2.2807 -2.4993 0.9776
-4.3816 -2.5997 -2.4991 0.9776
-4.1847 -2.9055 -2.4989 0.9776
-3.8497 -3.3358 -2.4987 0.9776
-3.3354 -3.8492 -2.4984 0.9776
-3.1958 -3.9657 -2.4983 0.9776
-3.0521 -4.0772 -2.4982 0.9776
-2.4406 -4.4697 -2.4980 0.9776
-1.9488 -4.7047 -2.4979 0.9776
-1.6081 -4.8317 -2.4979 0.9776
-1.2593 -4.9340 -2.4979 0.9776
-1.0824 -4.9758 -2.4978 0.9776
-0.5443 -5.0630 -2.4979 0.9776
-0.3633 -5.0793 -2.4979 0.9776
-0.1818 -5.0890 -2.4979 0.9776
0.0000 -5.0923 -2.4979 0.9776
0.1818 -5.0891 -2.4979 0.9776
0.3633 -5.0795 -2.4980 0.9776
0.5444 -5.0633 -2.4980 0.9776
0.7248 -5.0408 -2.4980 0.9776
1.9492 -4.7057 -2.4984 0.9776
2.2800 -4.5549 -2.4986 0.9776
2.9055 -4.1847 -2.4989 0.9776
3.1969 -3.9671 -2.4991 0.9776
3.4720 -3.7292 -2.4993 0.9776
3.8513 -3.3371 -2.4997 0.9776
4.3836 -2.6009 -2.5003 0.9775
4.5585 -2.2818 -2.5005 0.9775
4.6373 -2.1178 -2.5007 0.9775
4.8378 -1.6102 -2.5011 0.9775
4.9830 -1.0840 -2.5015 0.9775
5.0188 -0.9055 -2.5016 0.9775
5.0712 -0.5452 -2.5019 0.9775
5.0977 -0.1821 -2.5021 0.9775
-4.8208 -0.0000 -2.5010 0.9785
-4.7925 -0.5153 -2.5006 0.9785
-4.7708 -0.6859 -2.5005 0.9785
-4.7093 -1.0244 -2.5002 0.9785
-4.5722 -1.5218 -2.4999 0.9785
-4.5148 -1.6839 -2.4998 0.9785
-4.3828 -2.0015 -2.4996 0.9785
-4.3083 -2.1566 -2.4995 0.9785
-4.2285 -2.3089 -2.4994 0.9785
-4.1432 -2.4583 -2.4993 0.9785
-4.0527 -2.6045 -2.4992 0.9785
-3.9570 -2.7474 -2.4991 0.9785
-3.7506 -3.0225 -2.4989 0.9785
-3.4057 -3.4057 -2.4987 0.9785
-3.1539 -3.6398 -2.4985 0.9785
-2.7466 -3.9558 -2.4984 0.9785
-2.6036 -4.0513 -2.4983 0.9785
-2.1555 -4.3061 -2.4982 0.9785
-2.0004 -4.3803 -2.4982 0.9785
-1.6828 -4.5117 -2.4981 0.9785
-1.5207 -4.5689 -2.4981 0.9785
-1.0236 -4.7052 -2.4980 0.9785
-0.8550 -4.7387 -2.4980 0.9785
-0.5147 -4.7877 -2.4981 0.9785
-0.1719 -4.8122 -2.4981 0.9785
0.0000 -4.8154 -2.4981 0.9785
0.8550 -4.7392 -2.4983 0.9785
1.0237 -4.7057 -2.4983 0.9785
1.3568 -4.6209 -2.4984 0.9785
1.5209 -4.5696 -2.4985 0.9785
1.8431 -4.4497 -2.4986 0.9785
2.0008 -4.3812 -2.4987 0.9785
2.1560 -4.3071 -2.4988 0.9785
2.3084 -4.2276 -2.4988 0.9785
2.4579 -4.1426 -2.4989 0.9785
2.7474 -3.9570 -2.4991 0.9785
2.8870 -3.8565 -2.4992 0.9785
3.0229 -3.7512 -2.4993 0.9785
3.1550 -3.6410 -2.4994 0.9785
3.2831 -3.5263 -2.4995 0.9785
3.5265 -3.2833 -2.4997 0.9785
3.6416 -3.1555 -2.4998 0.9785
3.8578 -2.8879 -2.5000 0.9785
4.0544 -2.6056 -2.5002 0.9785
4.3103 -2.1576 -2.5006 0.9785
4.3848 -2.0025 -2.5007 0.9785
4.6718 -1.1924 -2.5013 0.9785
4.7949 -0.5155 -2.5018 0.9785
4.8105 -0.3441 -2.5020 0.9785
4.8200 -0.1721 -2.5021 0.9785
-4.5663 0.0000 -2.5010 0.9794
-4.5632 -0.1630 -2.5009 0.9794
-4.5395 -0.4880 -2.5006 0.9794
-4.5190 -0.6497 -2.5005 0.9794
-4.4927 -0.8106 -2.5004 0.9794
-4.3798 -1.2860 -2.5001 0.9794
-4.3309 -1.4415 -2.5000 0.9794
-4.2765 -1.5950 -2.4999 0.9794
-4.2167 -1.7466 -2.4998 0.9794
-4.1515 -1.8959 -2.4997 0.9794
-4.0810 -2.0428 -2.4996 0.9794
-4.0053 -2.1871 -2.4995 0.9794
-3.7482 -2.6024 -2.4992 0.9794
-3.5528 -2.8630 -2.4990 0.9794
-3.4482 -2.9879 -2.4990 0.9794
-3.3393 -3.1090 -2.4989 0.9794
-3.2261 -3.2261 -2.4988 0.9794
-3.1088 -3.3391 -2.4988 0.9794
-2.9876 -3.4478 -2.4987 0.9794
-2.7339 -3.6520 -2.4986 0.9794
-2.6017 -3.7472 -2.4985 0.9794
-2.4663 -3.8376 -2.4985 0.9794
-2.3277 -3.9231 -2.4984 0.9794
-2.1861 -4.0036 -2.4984 0.9794
-1.8949 -4.1493 -2.4983 0.9794
-1.7456 -4.2142 -2.4983 0.9794
-1.4405 -4.3279 -2.4983 0.9794
-1.2851 -4.3766 -2.4983 0.9794
-1.1280 -4.4196 -2.4982 0.9794
-0.9696 -4.4571 -2.4982 0.9794
-0.6491 -4.5149 -2.4982 0.9794
-0.4876 -4.5352 -2.4982 0.9794
0.1628 -4.5585 -2.4983 0.9794
0.6492 -4.5152 -2.4984 0.9794
1.5943 -4.2745 -2.4987 0.9794
1.8953 -4.1501 -2.4988 0.9794
2.0423 -4.0799 -2.4989 0.9794
2.3283 -3.9241 -2.4991 0.9794
2.4669 -3.8386 -2.4991 0.9794
2.7346 -3.6531 -2.4993 0.9794
3.1098 -3.3402 -2.4996 0.9794
3.2272 -3.2272 -2.4997 0.9794
3.3404 -3.1101 -2.4998 0.9794
3.4495 -2.9890 -2.4999 0.9794
3.8404 -2.4681 -2.5003 0.9794
4.0070 -2.1880 -2.5005 0.9794
4.0828 -2.0437 -2.5006 0.9794
4.1533 -1.8967 -2.5008 0.9794
4.3329 -1.4421 -2.5011 0.9794
4.3818 -1.2866 -2.5012 0.9794
4.4628 -0.9708 -2.5015 0.9794
4.4949 -0.8110 -2.5016 0.9794
4.5417 -0.4883 -2.5018 0.9794
4.5654 -0.1631 -2.5021 0.9794
-4.3289 -0.1546 -2.5009 0.9802
-4.2870 -0.6164 -2.5006 0.9802
-4.1961 -1.0710 -2.5003 0.9802
-4.1086 -1.3675 -2.5001 0.9802
-4.0570 -1.5132 -2.5000 0.9802
-4.0003 -1.6570 -2.4999 0.9802
-3.7998 -2.0749 -2.4996 0.9802
-3.7232 -2.2091 -2.4995 0.9802
-3.3705 -2.7161 -2.4992 0.9802
-3.2713 -2.8346 -2.4991 0.9802
-3.0606 -3.0606 -2.4990 0.9802
-2.7157 -3.3700 -2.4988 0.9802
-2.5936 -3.4647 -2.4987 0.9802
-2.3398 -3.6408 -2.4986 0.9802
-1.7977 -3.9365 -2.4985 0.9802
-1.6561 -3.9981 -2.4985 0.9802
-1.5123 -4.0546 -2.4985 0.9802
-1.3666 -4.1060 -2.4984 0.9802
-1.2192 -4.1521 -2.4984 0.9802
-1.0702 -4.1930 -2.4984 0.9802
-0.6158 -4.2833 -2.4984 0.9802
-0.3087 -4.3164 -2.4984 0.9802
-0.1545 -4.3247 -2.4984 0.9802
0.3087 -4.3165 -2.4985 0.9802
0.6159 -4.2836 -2.4986 0.9802
0.7684 -4.2590 -2.4986 0.9802
1.3668 -4.1066 -2.4988 0.9802
1.6564 -3.9988 -2.4989 0.9802
1.7981 -3.9372 -2.4990 0.9802
1.9375 -3.8706 -2.4990 0.9802
2.0745 -3.7991 -2.4991 0.9802
2.5943 -3.4656 -2.4994 0.9802
2.8352 -3.2720 -2.4996 0.9802
3.0616 -3.0616 -2.4998 0.9802
3.1690 -2.9505 -2.4999 0.9802
3.2724 -2.8356 -2.5000 0.9802
3.4667 -2.5951 -2.5002 0.9802
3.5572 -2.4698 -2.5003 0.9802
3.6433 -2.3414 -2.5004 0.9802
3.9401 -1.7994 -2.5008 0.9802
4.0020 -1.6577 -2.5009 0.9802
4.0588 -1.5138 -2.5010 0.9802
4.1104 -1.3681 -2.5011 0.9802
4.1568 -1.2206 -2.5013 0.9802
4.1979 -1.0715 -2.5014 0.9802
4.2890 -0.6167 -2.5017 0.9802
4.3309 -0.1547 -2.5020 0.9802
