ply
format ascii 1.0
element vertex 1384
property float32 x
property float32 y
property float32 z
property float32 I
end_header
32.6727 22.6851 7.0136 0.8508
28.7181 21.4981 6.3254 0.8644
24.8033 21.4922 5.7870 0.8752
9.1173 11.3139 2.5621 0.9427
15.7016 20.9749 4.6199 0.8990
14.1647 20.4010 4.3793 0.9040
12.1929 20.5501 4.2133 0.9075
10.2464 20.4697 4.0363 0.9112
9.2743 20.3079 3.9366 0.9133
7.5062 20.1250 3.7874 0.9165
6.7009 20.1331 3.7415 0.9174
4.3448 19.9727 3.6041 0.9203
2.0661 19.2179 3.4081 0.9245
1.3990 19.5600 3.4578 0.9234
-0.9230 25.8431 4.5597 0.9003
-2.0581 19.1429 3.3949 0.9248
-2.6923 18.7256 3.3358 0.9260
-4.1250 18.9624 3.4218 0.9242
-4.8886 19.1535 3.4855 0.9228
-8.3463 25.0767 4.6602 0.8982
-7.0207 18.8232 3.5424 0.9216
-10.0182 18.3470 3.6859 0.9186
-11.8464 18.4334 3.8637 0.9148
-14.1371 17.5430 3.9727 0.9126
-15.1111 17.4391 4.0688 0.9105
-9.7976 9.1219 2.3604 0.9471
24.9009 11.3719 4.1937 0.8951
39.3020 23.3189 7.0009 0.8312
29.9977 22.4560 5.7405 0.8593
27.5516 22.2025 5.4207 0.8666
24.8016 21.4907 5.0274 0.8756
23.3831 21.7705 4.8944 0.8787
19.5005 20.9450 4.3840 0.8906
15.7324 21.0160 4.0217 0.8992
14.2161 20.4752 3.8186 0.9041
12.3107 20.7486 3.6960 0.9070
11.4962 21.0538 3.6748 0.9075
10.4359 20.8483 3.5716 0.9100
8.6120 18.8578 3.1759 0.9195
7.7505 26.3959 4.2144 0.8946
5.7757 26.5506 4.1625 0.8959
3.5598 19.7305 3.0714 0.9221
2.0661 19.2171 2.9609 0.9248
1.4030 19.6165 3.0128 0.9235
0.9298 26.0336 3.9908 0.8999
0.0000 26.0193 3.9860 0.9001
-1.4035 19.6240 3.0140 0.9235
-2.0615 19.1751 2.9544 0.9249
-2.6922 18.7248 2.8980 0.9263
-4.1326 18.9974 2.9784 0.9243
-7.0971 19.0282 3.1112 0.9211
-7.7017 18.5935 3.0831 0.9218
-14.3330 24.1571 4.3031 0.8926
-21.0591 32.7686 5.9673 0.8542
-12.6810 18.2641 3.4062 0.9140
-13.4059 17.9082 3.4269 0.9135
-14.1364 17.5422 3.4514 0.9129
-15.1104 17.4383 3.5348 0.9109
-16.6045 17.8345 3.7330 0.9061
-17.8206 17.8206 3.8608 0.9030
-10.2413 8.8741 2.0759 0.9466
29.9954 22.4543 4.8792 0.8597
24.9065 21.5816 4.2915 0.8755
23.4091 21.7947 4.1650 0.8790
19.5793 21.0297 3.7417 0.8906
18.4366 21.2770 3.6662 0.8926
9.1241 11.3223 1.8936 0.9430
21.0477 28.1164 4.5736 0.8679
14.2154 20.4741 3.2458 0.9043
15.0184 27.5042 4.0808 0.8813
8.2236 19.8536 2.7984 0.9170
7.5101 20.1354 2.7985 0.9170
6.7904 20.4020 2.8001 0.9169
7.7502 26.3948 3.5823 0.8950
6.7994 26.6399 3.5803 0.8950
5.8237 26.7713 3.5677 0.8954
2.0660 19.2163 2.5168 0.9250
1.4061 19.6602 2.5667 0.9236
0.9308 26.0627 3.3961 0.9001
0.0000 26.3540 3.4318 0.8991
-1.8692 26.1342 3.4119 0.8997
-2.0636 19.1942 2.5139 0.9251
-2.6921 18.7241 2.4633 0.9265
-3.3656 18.6545 2.4684 0.9264
-4.1340 19.0035 2.5325 0.9245
-6.5878 25.8106 3.4688 0.8981
-8.3513 25.0916 3.4437 0.8988
-7.7122 18.6190 2.6243 0.9219
-9.0439 18.0675 2.6311 0.9217
-21.0597 32.7696 5.0725 0.8546
-12.8042 18.4415 2.9236 0.9134
-14.1358 17.5414 2.9336 0.9131
-14.0813 16.2506 2.8001 0.9169
42.7593 23.3483 5.2315 0.8220
39.5020 23.4376 4.9322 0.8313
35.8547 23.0424 4.5767 0.8424
32.7459 22.7359 4.2808 0.8518
24.9048 21.5801 3.5386 0.8758
23.6477 22.0167 3.4695 0.8781
18.4995 21.3496 3.0335 0.8926
13.2771 20.6595 2.6371 0.9059
12.4707 21.0183 2.6244 0.9064
13.5102 26.9900 3.2410 0.8857
8.6099 18.8531 2.2256 0.9200
6.5944 19.8129 2.2423 0.9194
7.7499 26.3937 2.9539 0.8952
4.2695 19.6265 2.1568 0.9224
3.5308 19.5699 2.1354 0.9231
2.7733 19.2887 2.0926 0.9246
1.3831 19.3387 2.0819 0.9250
0.7350 20.5784 2.2112 0.9205
-0.9474 26.5276 2.8504 0.8987
-1.3623 19.0471 2.0505 0.9261
-2.6920 18.7234 2.0312 0.9267
-3.3655 18.6537 2.0354 0.9266
-4.7709 18.6921 2.0715 0.9253
-7.5492 25.7102 2.8774 0.8978
-6.9166 18.5442 2.1253 0.9235
-9.0435 18.0667 2.1695 0.9219
-9.8948 18.1210 2.2171 0.9203
-21.0914 32.8189 4.1892 0.8548
-13.4737 17.9987 2.4143 0.9135
-14.0816 16.2510 2.3090 0.9171
-20.1487 21.6413 3.1751 0.8878
-9.7983 9.1225 1.4376 0.9476
-10.2474 8.8794 1.4560 0.9469
-47.0694 5.0605 5.0835 0.8266
42.9387 23.4463 4.1414 0.8217
35.8804 23.0589 3.6105 0.8426
24.9031 21.5787 2.7894 0.8761
23.8209 22.1781 2.7552 0.8775
20.0672 20.0672 2.4024 0.8923
19.5770 21.0272 2.4321 0.8911
18.5300 21.3848 2.3953 0.8926
9.1307 11.3306 1.2318 0.9433
12.2392 20.6281 2.0305 0.9082
15.4088 28.2190 2.7217 0.8789
10.1276 20.2324 1.9153 0.9132
8.6263 18.8889 1.7578 0.9200
7.4832 20.0632 1.8127 0.9176
6.8064 26.6672 2.3298 0.8954
4.2891 19.7169 1.7081 0.9222
3.5461 19.6548 1.6907 0.9230
2.7732 19.2880 1.6496 0.9248
1.3892 19.4238 1.6485 0.9248
-1.3683 19.1309 1.6236 0.9259
-3.3654 18.6530 1.6045 0.9267
-4.1026 18.8595 1.6338 0.9254
-6.5060 25.4903 2.2270 0.8998
-8.2809 24.8801 2.2198 0.9001
-7.6600 18.4928 1.6944 0.9228
-8.2862 18.1442 1.6886 0.9230
-9.9653 18.2500 1.7602 0.9199
-14.3344 24.1594 2.3780 0.8934
-12.7442 18.3551 1.8916 0.9142
-13.4007 17.9012 1.8930 0.9141
-14.1344 17.5398 1.9069 0.9135
-14.0864 16.2566 1.8209 0.9173
-16.2931 17.5001 2.0241 0.9085
-18.6938 18.6938 2.2380 0.8993
-9.8019 9.1259 1.1337 0.9477
-10.2505 8.8821 1.1482 0.9470
42.9344 23.4440 3.0334 0.8220
24.9014 21.5772 2.0432 0.8763
23.5895 21.9626 1.9986 0.8788
20.0888 20.0888 1.7617 0.8924
18.3498 21.1768 1.7376 0.8938
9.1341 11.3347 0.9027 0.9433
15.6384 20.8904 1.6182 0.9007
14.2132 20.4710 1.5454 0.9049
14.9185 27.3213 1.9303 0.8827
13.5090 26.9875 1.8715 0.8861
8.5999 18.8311 1.2837 0.9204
8.2226 19.8510 1.3324 0.9175
7.4823 20.0608 1.3277 0.9178
6.6498 19.9795 1.3058 0.9191
6.7838 26.5787 1.7010 0.8959
4.2887 19.7146 1.2511 0.9223
3.5457 19.6526 1.2383 0.9231
2.7731 19.2872 1.2083 0.9249
0.0000 26.4387 1.6395 0.8995
-1.3681 19.1288 1.1892 0.9260
-4.1022 18.8575 1.1967 0.9256
-7.5343 25.6595 1.6583 0.8984
-8.3249 25.0124 1.6347 0.8997
-7.0681 18.9503 1.2542 0.9221
-7.6591 18.4907 1.2411 0.9229
-9.9641 18.2479 1.2893 0.9201
-13.3990 17.8990 1.3865 0.9143
-14.1338 17.5389 1.3968 0.9137
-47.0515 5.0586 2.9345 0.8272
42.9301 23.4416 1.9287 0.8222
40.6847 24.1394 1.8654 0.8275
35.7661 22.9855 1.6764 0.8435
31.3742 21.7835 1.5061 0.8582
36.4312 29.3582 1.8449 0.8292
23.6703 22.0378 1.2752 0.8786
28.8470 28.8470 1.6086 0.8493
18.3469 21.1735 1.1047 0.8939
9.1374 11.3388 0.5742 0.9434
14.2125 20.4699 0.9826 0.9051
14.9658 27.4078 1.2313 0.8825
4.2882 19.7124 0.7955 0.9224
2.7730 19.2864 0.7683 0.9250
2.0656 19.2133 0.7620 0.9256
1.3889 19.4196 0.7677 0.9250
-3.3651 18.6516 0.7473 0.9269
-4.1017 18.8554 0.7609 0.9257
-7.5340 25.6585 1.0545 0.8985
-8.3240 25.0097 1.0393 0.8999
-7.0700 18.9552 0.7977 0.9222
-9.0424 18.0645 0.7966 0.9223
-21.3143 33.1656 1.5545 0.8540
-12.7472 18.3595 0.8813 0.9144
-16.3611 17.5731 0.9468 0.9084
-9.8090 9.1325 0.5285 0.9478
42.9259 23.4393 0.8262 0.8223
40.6857 24.1399 0.7991 0.8276
29.8795 22.3675 0.6305 0.8613
36.4286 29.3561 0.7903 0.8293
24.8981 21.5743 0.5565 0.8765
23.6711 22.0386 0.5463 0.8786
28.8420 28.8420 0.6890 0.8494
9.1407 11.3429 0.2461 0.9434
13.2761 20.6580 0.4148 0.9064
14.9639 27.4043 0.5274 0.8826
13.5077 26.9850 0.5097 0.8863
8.2218 19.8493 0.3629 0.9176
7.4805 20.0560 0.3616 0.9179
4.2877 19.7102 0.3407 0.9225
2.7729 19.2857 0.3291 0.9250
1.3888 19.4175 0.3288 0.9251
-0.9499 26.5967 0.4496 0.8990
-2.0500 19.0679 0.3239 0.9261
-2.6916 18.7205 0.3195 0.9271
-4.1013 18.8534 0.3259 0.9257
-6.6383 26.0084 0.4534 0.8982
-7.0718 18.9602 0.3418 0.9222
-7.6574 18.4866 0.3380 0.9231
-8.2852 18.1420 0.3369 0.9233
-9.0421 18.0637 0.3412 0.9224
-9.9619 18.2438 0.3511 0.9202
-13.3956 17.8945 0.3776 0.9145
-14.1325 17.5373 0.3805 0.9138
-16.3590 17.5708 0.4055 0.9084
-9.8125 9.1358 0.2265 0.9478
-10.2596 8.8900 0.2293 0.9471
42.9216 23.4370 -0.2753 0.8223
40.6867 24.1405 -0.2664 0.8276
35.7487 22.9743 -0.2392 0.8437
36.4261 29.3540 -0.2633 0.8293
23.6719 22.0394 -0.1821 0.8786
19.5724 21.0223 -0.1617 0.8915
18.3411 21.1668 -0.1577 0.8940
15.6316 20.8814 -0.1469 0.9009
13.2742 20.6552 -0.1382 0.9065
12.3198 20.7640 -0.1359 0.9079
14.9620 27.4008 -0.1758 0.8826
13.5071 26.9838 -0.1699 0.8863
9.2410 20.2349 -0.1252 0.9149
6.6514 19.9843 -0.1186 0.9192
6.7815 26.5696 -0.1544 0.8961
4.2872 19.7080 -0.1136 0.9225
3.5446 19.6461 -0.1124 0.9233
2.0655 19.2118 -0.1088 0.9256
1.3886 19.4154 -0.1096 0.9251
0.9272 25.9606 -0.1463 0.9013
-0.9499 26.5957 -0.1498 0.8990
-1.3677 19.1227 -0.1079 0.9262
-2.6915 18.7198 -0.1065 0.9271
-6.6380 26.0074 -0.1511 0.8982
-7.5334 25.6565 -0.1506 0.8986
-7.0736 18.9651 -0.1140 0.9222
-7.6565 18.4845 -0.1126 0.9231
-14.3362 24.1624 -0.1582 0.8937
-21.3142 33.1656 -0.2220 0.8541
-12.7503 18.3639 -0.1259 0.9145
-13.3940 17.8922 -0.1258 0.9145
-14.1319 17.5365 -0.1268 0.9138
-15.1054 17.4325 -0.1299 0.9119
-9.8161 9.1391 -0.0755 0.9478
-47.0232 5.0555 -0.2663 0.8276
29.3314 13.3952 -0.9080 0.8789
40.6876 24.1411 -1.3322 0.8275
35.7399 22.9686 -1.1963 0.8437
32.5976 22.6329 -1.1174 0.8532
29.8667 22.3580 -1.0505 0.8613
36.4235 29.3519 -1.3171 0.8293
23.6728 22.0402 -0.9108 0.8786
18.3382 21.1634 -0.7885 0.8940
9.1473 11.3511 -0.4105 0.9433
13.2724 20.6523 -0.6913 0.9064
12.3205 20.7650 -0.6799 0.9079
14.9600 27.3973 -0.8790 0.8826
9.2398 20.2324 -0.6263 0.9148
7.4787 20.0512 -0.6026 0.9179
6.6519 19.9859 -0.5931 0.9192
6.7807 26.5666 -0.7720 0.8961
4.2867 19.7058 -0.5679 0.9225
2.7727 19.2841 -0.5486 0.9250
1.3885 19.4133 -0.5480 0.9251
0.0000 26.4346 -0.7443 0.8996
-0.9498 26.5947 -0.7493 0.8990
-2.0496 19.0638 -0.5399 0.9261
-3.3647 18.6494 -0.5336 0.9270
-4.1004 18.8494 -0.5432 0.9257
-7.5331 25.6554 -0.7529 0.8985
-7.6557 18.4825 -0.5633 0.9231
-8.2845 18.1405 -0.5615 0.9233
-9.0413 18.0623 -0.5688 0.9224
-9.9596 18.2396 -0.5852 0.9202
-21.3142 33.1656 -1.1101 0.8541
-12.7518 18.3661 -0.6296 0.9144
-13.3923 17.8900 -0.6293 0.9145
-14.1312 17.5357 -0.6341 0.9138
-15.1047 17.4317 -0.6495 0.9118
-16.3546 17.5661 -0.6758 0.9084
-47.0224 5.0555 -1.3317 0.8276
49.7325 -0.0000 -2.5221 0.8194
49.7284 3.5567 -2.5284 0.8190
45.2443 13.2849 -2.3914 0.8279
17.8930 5.9554 -0.9564 0.9273
44.2786 16.5151 -2.3967 0.8276
29.2860 13.3745 -1.6328 0.8790
40.6340 24.1093 -2.3961 0.8276
23.6737 22.0410 -1.6404 0.8785
28.7633 28.7633 -2.0629 0.8497
19.5702 21.0199 -1.4565 0.8913
9.1506 11.3552 -0.7396 0.9433
14.2096 20.4658 -1.2635 0.9050
13.2706 20.6495 -1.2448 0.9064
13.5059 26.9814 -1.5302 0.8862
9.2387 20.2299 -1.1279 0.9148
8.2208 19.8467 -1.0894 0.9176
6.6525 19.9875 -1.0683 0.9191
6.7799 26.5635 -1.3903 0.8960
2.7725 19.2834 -0.9880 0.9249
2.0653 19.2103 -0.9798 0.9255
0.9270 25.9550 -1.3171 0.9012
-0.9498 26.5937 -1.3495 0.8989
-3.3646 18.6487 -0.9610 0.9269
-6.6375 26.0054 -1.3611 0.8981
-7.5328 25.6544 -1.3560 0.8984
-7.6548 18.4804 -1.0144 0.9230
-8.2842 18.1398 -1.0113 0.9232
-14.3371 24.1640 -1.4249 0.8936
-13.3906 17.8877 -1.1332 0.9144
-16.3525 17.5638 -1.2170 0.9084
-9.8232 9.1457 -0.6807 0.9477
-10.2687 8.8978 -0.6891 0.9470
-41.9972 26.9900 -2.5318 0.8188
-44.4777 22.2639 -2.5225 0.8194
-45.4464 16.9506 -2.4599 0.8234
-45.2434 15.0584 -2.4182 0.8261
-45.0463 13.2268 -2.3809 0.8286
-45.7150 6.5729 -2.3422 0.8311
-48.0850 3.4391 -2.4448 0.8244
34.2827 2.4520 -2.5201 0.8712
34.0771 4.8996 -2.5243 0.8710
33.9083 6.1177 -2.5264 0.8709
33.6955 7.3300 -2.5284 0.8708
33.4389 8.5348 -2.5304 0.8707
33.1388 9.7305 -2.5324 0.8706
30.7378 11.4646 -2.4054 0.8767
28.2502 12.9015 -2.2771 0.8829
28.1269 14.0793 -2.3063 0.8815
27.4410 17.6352 -2.3917 0.8774
26.1442 19.5713 -2.3946 0.8772
25.4433 20.5036 -2.3959 0.8772
24.7085 21.4101 -2.3972 0.8771
23.6200 21.9910 -2.3663 0.8786
21.4120 21.4120 -2.2203 0.8856
18.2774 21.0932 -2.0464 0.8941
15.5803 20.8128 -1.9063 0.9010
13.2275 20.5824 -1.7939 0.9065
14.9242 27.3317 -2.2833 0.8826
13.5053 26.9801 -2.2122 0.8860
9.2376 20.2274 -1.6305 0.9147
8.2204 19.8458 -1.5750 0.9175
6.6530 19.9891 -1.5447 0.9190
4.2858 19.7014 -1.4783 0.9223
3.5434 19.6396 -1.4633 0.9231
1.3882 19.4090 -1.4267 0.9249
0.9248 25.8939 -1.8998 0.9013
-2.0491 19.0597 -1.4056 0.9260
-3.3645 18.6480 -1.3894 0.9268
-6.6372 26.0044 -1.9678 0.8980
-7.5325 25.6534 -1.9604 0.8983
-8.3007 24.9397 -1.9273 0.8999
-9.0406 18.0608 -1.4809 0.9222
-9.9573 18.2354 -1.5234 0.9200
-14.3376 24.1647 -2.0602 0.8934
-17.6252 27.4254 -2.3903 0.8774
-12.7551 18.3708 -1.6398 0.9142
-15.1033 17.4301 -1.6911 0.9116
-16.3037 17.5114 -1.7543 0.9085
-22.9554 22.9554 -2.3803 0.8779
-25.2188 20.3226 -2.3748 0.8782
-28.2818 19.6364 -2.5245 0.8710
-28.9408 18.5991 -2.5224 0.8711
-29.5613 17.5395 -2.5203 0.8712
-30.1430 16.4593 -2.5182 0.8713
-30.6850 15.3598 -2.5160 0.8714
-32.0677 11.9606 -2.5095 0.8717
-32.4458 10.7990 -2.5073 0.8718
-32.7819 9.6256 -2.5051 0.8719
-33.0755 8.4420 -2.5029 0.8720
-33.5346 6.0503 -2.4985 0.8723
-33.6998 4.8453 -2.4964 0.8724
-33.9365 1.2120 -2.4899 0.8727
26.1374 1.8694 -2.5157 0.9001
25.9704 3.7340 -2.5189 0.8999
25.6696 5.5841 -2.5220 0.8998
25.4693 6.5007 -2.5236 0.8998
17.9222 5.9651 -1.8134 0.9269
24.3409 10.0824 -2.5294 0.8995
21.3242 12.6522 -2.3805 0.9052
20.8690 13.4117 -2.3816 0.9051
20.3865 14.1546 -2.3827 0.9051
19.8771 14.8799 -2.3838 0.9050
18.7807 16.2736 -2.3858 0.9050
16.9522 18.2080 -2.3884 0.9049
9.1573 11.3635 -1.4011 0.9430
14.2051 20.4593 -2.3912 0.9048
12.2705 20.6809 -2.3086 0.9079
11.9445 21.8748 -2.3928 0.9047
11.1581 22.2910 -2.3932 0.9047
9.2086 20.1641 -2.1282 0.9148
4.2729 19.6424 -1.9299 0.9224
3.5323 19.5780 -1.9099 0.9232
1.3839 19.3492 -1.8624 0.9250
0.8899 24.9158 -2.3936 0.9047
-1.3631 19.0592 -1.8345 0.9261
-2.0427 19.0000 -1.8346 0.9261
-4.0868 18.7869 -1.8458 0.9257
-6.1547 24.1138 -2.3893 0.9048
-7.0092 23.8710 -2.3885 0.9049
-7.8540 23.5974 -2.3877 0.9049
-6.9837 18.7241 -1.9186 0.9228
-9.0402 18.0600 -1.9389 0.9220
-9.9268 18.1796 -1.9886 0.9201
-12.6589 21.3354 -2.3817 0.9051
-12.6821 18.2657 -2.1348 0.9145
-14.1293 17.5333 -2.1618 0.9135
-17.4776 17.4777 -2.3730 0.9055
-19.2116 15.4817 -2.3688 0.9056
-20.2421 14.0543 -2.3658 0.9057
-20.7178 13.3145 -2.3643 0.9058
-21.5870 11.7874 -2.3613 0.9059
-22.3437 10.2041 -2.3582 0.9060
-22.2241 8.2891 -2.2772 0.9091
-24.7668 8.2432 -2.5060 0.9004
-25.2580 6.4467 -2.5026 0.9005
-25.4549 5.5374 -2.5010 0.9006
-25.7507 3.7024 -2.4976 0.9007
-25.8492 2.7791 -2.4960 0.9008
21.0456 2.2626 -2.5143 0.9183
20.9621 3.0139 -2.5156 0.9182
20.8516 3.7621 -2.5169 0.9182
20.3598 5.9782 -2.5206 0.9181
17.9573 5.9768 -2.2481 0.9266
19.8999 7.4223 -2.5229 0.9180
19.3368 8.8308 -2.5251 0.9179
19.0174 9.5194 -2.5262 0.9179
18.6193 10.1669 -2.5200 0.9181
16.8226 10.8113 -2.3754 0.9226
16.4322 11.4091 -2.3763 0.9226
16.0202 11.9926 -2.3771 0.9226
15.5874 12.5611 -2.3779 0.9225
15.1341 13.1138 -2.3787 0.9225
14.6610 13.6498 -2.3795 0.9225
13.6577 14.6695 -2.3808 0.9224
9.7766 11.2828 -1.7734 0.9416
10.2409 17.2601 -2.3840 0.9223
8.3406 18.2634 -2.3850 0.9223
7.6842 18.5513 -2.3852 0.9223
5.6581 19.2698 -2.3856 0.9223
4.2691 19.6248 -2.3857 0.9223
3.5319 19.5758 -2.3629 0.9230
2.7722 19.2811 -2.3139 0.9245
2.0651 19.2080 -2.2948 0.9251
1.3837 19.3471 -2.3040 0.9248
-0.7165 20.0602 -2.3844 0.9223
-2.0425 18.9980 -2.2697 0.9259
-2.6910 18.7162 -2.2461 0.9267
-4.0864 18.7849 -2.2836 0.9255
-4.9582 19.4261 -2.3815 0.9224
-6.3280 19.0127 -2.3802 0.9225
-6.9856 18.7291 -2.3745 0.9226
-7.6291 18.4182 -2.3681 0.9228
-9.5875 17.5582 -2.3764 0.9226
-10.8075 16.8168 -2.3746 0.9226
-11.3963 16.4138 -2.3736 0.9227
-11.9699 15.9900 -2.3726 0.9227
-9.9782 10.7173 -1.7394 0.9427
-10.2778 8.9058 -1.6154 0.9467
-11.4812 9.2521 -1.7515 0.9423
-15.9310 11.9258 -2.3639 0.9230
-16.3383 11.3439 -2.3627 0.9230
-16.7242 10.7480 -2.3615 0.9230
-17.0884 10.1390 -2.3603 0.9231
-18.5678 6.9254 -2.3540 0.9233
-18.7930 6.2549 -2.3527 0.9233
-20.2245 5.9384 -2.5038 0.9186
-20.4125 5.2100 -2.5025 0.9186
-20.7097 3.7365 -2.4997 0.9187
-20.9857 0.7495 -2.4944 0.9189
17.6781 1.2644 -2.5112 0.9309
17.5579 2.5245 -2.5133 0.9308
16.6604 6.2140 -2.5194 0.9307
16.4341 6.8073 -2.5204 0.9307
15.6290 8.5341 -2.5231 0.9306
15.3196 9.0895 -2.5239 0.9306
14.9615 9.6152 -2.5199 0.9307
13.9482 9.6844 -2.4060 0.9337
13.4052 10.0350 -2.3726 0.9346
12.6623 10.9719 -2.3739 0.9346
10.6415 10.6415 -2.1323 0.9410
8.4303 10.4613 -1.9037 0.9472
8.3497 11.1539 -1.9741 0.9453
8.2542 11.8883 -2.0506 0.9432
8.1508 12.6829 -2.1361 0.9409
8.5652 14.4358 -2.3783 0.9344
7.5154 15.0138 -2.3789 0.9344
6.9754 15.2739 -2.3792 0.9344
5.8688 15.7350 -2.3795 0.9344
5.3037 15.9352 -2.3796 0.9344
2.2323 8.7462 -1.2790 0.9642
3.5702 16.4117 -2.3797 0.9344
2.3901 16.6238 -2.3796 0.9344
1.1980 16.7501 -2.3794 0.9344
0.5993 16.7808 -2.3792 0.9344
-1.1975 16.7431 -2.3784 0.9344
-2.3881 16.6099 -2.3776 0.9345
-2.9790 16.5112 -2.3772 0.9345
-4.1476 16.2502 -2.3763 0.9345
-4.7240 16.0883 -2.3758 0.9345
-5.2939 15.9057 -2.3752 0.9345
-5.8568 15.7027 -2.3746 0.9345
-6.4119 15.4797 -2.3740 0.9346
-6.9584 15.2367 -2.3734 0.9346
-7.4956 14.9744 -2.3727 0.9346
-8.0229 14.6929 -2.3720 0.9346
-9.5383 13.7378 -2.3697 0.9347
-10.4867 13.0132 -2.3680 0.9347
-9.2610 10.6877 -2.0038 0.9445
-8.9727 8.9727 -1.7979 0.9500
-8.9982 8.3776 -1.7420 0.9515
-9.5844 8.3049 -1.7969 0.9501
-14.0093 9.0032 -2.3595 0.9349
-14.8719 7.4444 -2.3564 0.9350
-15.3514 6.3588 -2.3543 0.9351
-16.7721 5.5823 -2.5046 0.9311
-17.2493 3.7524 -2.5012 0.9312
-17.3643 3.1329 -2.5001 0.9312
-17.4572 2.5100 -2.4989 0.9312
-17.5277 1.8844 -2.4978 0.9313
-17.5760 1.2571 -2.4967 0.9313
-17.6018 0.6287 -2.4956 0.9313
15.1965 1.0869 -2.5099 0.9401
14.7888 3.7746 -2.5144 0.9400
14.3151 5.3391 -2.5170 0.9399
14.1200 5.8487 -2.5178 0.9399
13.9066 6.3509 -2.5186 0.9399
13.6752 6.8453 -2.5193 0.9399
13.4262 7.3313 -2.5201 0.9399
13.1598 7.8080 -2.5208 0.9399
12.8763 8.2751 -2.5215 0.9398
12.5761 8.7317 -2.5222 0.9398
9.6802 10.3973 -2.3403 0.9440
8.1539 11.7438 -2.3553 0.9437
7.3541 12.3947 -2.3743 0.9432
5.0357 9.2221 -1.7310 0.9583
6.4525 12.8905 -2.3748 0.9432
5.5173 13.3201 -2.3751 0.9432
4.5535 13.6811 -2.3754 0.9432
3.0651 14.0901 -2.3755 0.9432
2.0520 14.2722 -2.3754 0.9432
1.0285 14.3809 -2.3751 0.9432
0.5146 14.4074 -2.3750 0.9432
-0.0000 14.4154 -2.3748 0.9432
-0.5145 14.4048 -2.3746 0.9432
-1.0282 14.3757 -2.3743 0.9432
-2.5579 14.1776 -2.3733 0.9433
-3.5616 13.9542 -2.3725 0.9433
-4.5463 13.6593 -2.3716 0.9433
-7.3353 12.3629 -2.3682 0.9434
-7.7697 12.0899 -2.3675 0.9434
-8.6074 11.4981 -2.3661 0.9434
-8.9730 8.9730 -2.0905 0.9499
-9.0213 8.3991 -2.0306 0.9513
-9.5839 8.3045 -2.0891 0.9499
-11.3588 7.8866 -2.2781 0.9455
-13.1189 6.5669 -2.4168 0.9423
-14.5795 4.2809 -2.5032 0.9403
-14.8362 3.2274 -2.5013 0.9403
-15.0169 2.1591 -2.4993 0.9403
-15.1442 0.5409 -2.4964 0.9404
13.3348 0.4763 -2.5080 0.9471
13.3137 0.9522 -2.5088 0.9471
13.0594 2.8409 -2.5121 0.9471
12.5371 4.6761 -2.5151 0.9470
12.3657 5.1221 -2.5158 0.9470
12.1784 5.5617 -2.5165 0.9470
11.9753 5.9944 -2.5171 0.9470
11.7568 6.4197 -2.5178 0.9469
11.0112 7.6452 -2.5196 0.9469
10.7338 8.0352 -2.5202 0.9469
10.4424 8.4150 -2.5208 0.9469
9.7928 9.1174 -2.5149 0.9470
9.1037 9.1037 -2.4199 0.9489
8.2558 9.5277 -2.3696 0.9500
7.9117 9.8178 -2.3700 0.9500
7.1931 10.3600 -2.3706 0.9500
5.0214 9.1960 -1.9694 0.9583
5.2419 11.4782 -2.3718 0.9499
4.4102 11.8242 -2.3721 0.9499
3.5557 12.1095 -2.3722 0.9499
2.2323 8.7462 -1.6966 0.9639
2.6828 12.3325 -2.3722 0.9499
1.7961 12.4920 -2.3721 0.9499
0.0000 12.6177 -2.3716 0.9499
-0.4503 12.6086 -2.3714 0.9499
-1.3484 12.5418 -2.3709 0.9500
-1.7949 12.4841 -2.3707 0.9500
-3.5513 12.0944 -2.3693 0.9500
-3.9800 11.9579 -2.3688 0.9500
-4.4034 11.8060 -2.3684 0.9500
-4.8210 11.6390 -2.3679 0.9500
-5.2323 11.4572 -2.3674 0.9500
-5.6367 11.2607 -2.3669 0.9500
-6.0337 11.0499 -2.3664 0.9500
-6.4227 10.8249 -2.3658 0.9501
-6.8033 10.5862 -2.3653 0.9501
-7.1750 10.3340 -2.3647 0.9501
-7.5374 10.0687 -2.3641 0.9501
-7.8898 9.7907 -2.3634 0.9501
-8.2320 9.5002 -2.3628 0.9501
-8.5634 9.1978 -2.3621 0.9501
-8.8297 8.8297 -2.3471 0.9504
-8.9122 8.2976 -2.2888 0.9516
-9.4680 8.2041 -2.3548 0.9503
-9.7736 7.8760 -2.3593 0.9502
-10.0453 7.5198 -2.3586 0.9502
-10.6640 6.8533 -2.3827 0.9497
-11.3799 6.7520 -2.4871 0.9476
-12.1298 5.5395 -2.5064 0.9472
-12.4857 4.6569 -2.5047 0.9472
-12.7774 3.7518 -2.5030 0.9472
-13.0035 2.8287 -2.5013 0.9473
-13.0917 2.3620 -2.5005 0.9473
-13.1632 1.8926 -2.4996 0.9473
11.8541 0.4234 -2.5073 0.9527
11.8349 0.8465 -2.5081 0.9526
11.8006 1.2687 -2.5088 0.9526
11.7511 1.6896 -2.5095 0.9526
11.4036 3.3484 -2.5123 0.9526
11.2798 3.7543 -2.5129 0.9526
10.9888 4.5517 -2.5142 0.9525
10.6413 5.3266 -2.5154 0.9525
10.4468 5.7044 -2.5160 0.9525
10.0176 6.4379 -2.5171 0.9525
8.4297 8.4297 -2.5200 0.9524
6.7134 8.9681 -2.3680 0.9552
6.0579 9.4263 -2.3685 0.9552
5.7182 9.6375 -2.3688 0.9552
5.0071 9.1698 -2.2085 0.9582
4.2896 10.3561 -2.3694 0.9552
3.9174 10.5030 -2.3695 0.9552
3.5402 10.6365 -2.3696 0.9552
2.3830 10.9544 -2.3697 0.9552
0.7997 11.1808 -2.3694 0.9552
0.4001 11.2016 -2.3693 0.9552
-0.4000 11.2001 -2.3690 0.9552
-0.7994 11.1777 -2.3688 0.9552
-1.1978 11.1410 -2.3685 0.9552
-1.5945 11.0899 -2.3683 0.9552
-1.9891 11.0247 -2.3680 0.9552
-3.9121 10.4887 -2.3663 0.9553
-4.2832 10.3406 -2.3659 0.9553
-5.0081 10.0049 -2.3650 0.9553
-5.3609 9.8178 -2.3645 0.9553
-5.7067 9.6182 -2.3640 0.9553
-6.6977 8.9471 -2.3624 0.9553
-7.6101 8.1739 -2.3607 0.9554
-8.1696 7.6062 -2.3595 0.9554
-8.4336 7.3078 -2.3589 0.9554
-8.7725 7.0693 -2.3815 0.9550
-9.7342 6.7586 -2.5049 0.9527
-10.2045 6.0546 -2.5081 0.9526
-10.4111 5.6849 -2.5074 0.9527
-10.6042 5.3081 -2.5067 0.9527
-10.7837 4.9247 -2.5059 0.9527
-10.9493 4.5354 -2.5052 0.9527
-11.3611 3.3359 -2.5029 0.9527
-11.4694 2.9274 -2.5021 0.9528
-11.5631 2.5154 -2.5014 0.9528
-11.6419 2.1004 -2.5006 0.9528
10.6632 0.0000 -2.5061 0.9571
10.6592 0.3807 -2.5068 0.9571
10.6416 0.7611 -2.5074 0.9571
10.5074 1.8958 -2.5093 0.9571
10.4356 2.2701 -2.5100 0.9571
10.3505 2.6418 -2.5106 0.9571
10.2521 3.0103 -2.5112 0.9570
10.1405 3.3751 -2.5118 0.9570
9.5655 4.7881 -2.5140 0.9570
9.3905 5.1276 -2.5146 0.9570
8.7937 6.1056 -2.5160 0.9570
8.5717 6.4167 -2.5165 0.9570
8.3386 6.7197 -2.5169 0.9570
8.0948 7.0142 -2.5173 0.9569
7.0183 8.0995 -2.5188 0.9569
6.7256 8.3459 -2.5191 0.9569
6.4136 8.5676 -2.5153 0.9570
6.0682 8.7399 -2.5006 0.9572
5.5903 8.6987 -2.4302 0.9584
4.8267 8.8394 -2.3670 0.9595
4.5084 9.0066 -2.3672 0.9595
3.8548 9.3063 -2.3674 0.9595
3.5203 9.4384 -2.3675 0.9595
3.1813 9.5583 -2.3676 0.9595
2.8382 9.6659 -2.3676 0.9595
2.2323 8.7460 -2.1214 0.9636
2.1414 9.8439 -2.3676 0.9595
1.7887 9.9139 -2.3676 0.9595
0.7186 10.0475 -2.3674 0.9595
0.0000 10.0721 -2.3672 0.9595
-0.3595 10.0650 -2.3670 0.9595
-1.4329 9.9663 -2.3664 0.9595
-2.1398 9.8365 -2.3659 0.9595
-2.4892 9.7527 -2.3656 0.9595
-3.1778 9.5476 -2.3649 0.9595
-4.1782 9.1489 -2.3638 0.9595
-4.8185 8.8245 -2.3630 0.9595
-5.1295 8.6452 -2.3626 0.9595
-5.7309 8.2540 -2.3616 0.9596
-6.0206 8.0425 -2.3611 0.9596
-8.0568 6.9812 -2.5055 0.9571
-8.3129 6.6990 -2.5091 0.9571
-8.5476 6.3987 -2.5094 0.9571
-9.1756 5.4441 -2.5075 0.9571
-9.3616 5.1118 -2.5068 0.9571
-9.5355 4.7731 -2.5062 0.9571
-9.6972 4.4286 -2.5055 0.9571
-9.8464 4.0785 -2.5048 0.9572
-9.9830 3.7235 -2.5041 0.9572
-10.3154 2.6329 -2.5021 0.9572
-10.4000 2.2624 -2.5014 0.9572
-10.4712 1.8892 -2.5007 0.9572
-10.6220 0.3794 -2.4980 0.9573
9.6575 0.6907 -2.5069 0.9608
9.5881 1.3786 -2.5081 0.9608
9.5350 1.7203 -2.5086 0.9608
9.2012 3.0625 -2.5109 0.9607
9.0880 3.3896 -2.5114 0.9607
8.6788 4.3443 -2.5129 0.9607
8.3498 4.9542 -2.5138 0.9607
8.1691 5.2500 -2.5143 0.9607
7.5648 6.0962 -2.5155 0.9607
6.8728 6.8728 -2.5166 0.9606
6.6240 7.1147 -2.5169 0.9606
6.3666 7.3474 -2.5172 0.9606
6.1009 7.5708 -2.5175 0.9606
5.8275 7.7846 -2.5178 0.9606
5.2582 8.1820 -2.5182 0.9606
4.2751 8.5406 -2.4729 0.9613
3.8845 8.5058 -2.4211 0.9621
3.5091 8.4718 -2.3742 0.9628
3.1932 8.5613 -2.3658 0.9629
2.8857 8.6700 -2.3659 0.9629
2.2323 8.7459 -2.3371 0.9634
1.6224 8.9926 -2.3659 0.9629
0.9767 9.0850 -2.3658 0.9629
-0.3261 9.1298 -2.3654 0.9630
-0.6517 9.1117 -2.3652 0.9630
-1.6215 8.9875 -2.3646 0.9630
-1.9411 8.9230 -2.3644 0.9630
-2.2581 8.8470 -2.3641 0.9630
-2.5721 8.7598 -2.3638 0.9630
-3.1896 8.5517 -2.3632 0.9630
-4.3715 8.0058 -2.3617 0.9630
-4.9298 7.6709 -2.3609 0.9630
-5.1995 7.4887 -2.3605 0.9630
-5.5630 7.4313 -2.4035 0.9624
-5.9458 7.3783 -2.4535 0.9616
-6.5986 7.0875 -2.5073 0.9608
-6.8553 6.8553 -2.5102 0.9607
-7.3259 6.3479 -2.5098 0.9607
-7.9571 5.5247 -2.5081 0.9608
-8.1473 5.2359 -2.5075 0.9608
-8.3270 4.9406 -2.5069 0.9608
-8.4960 4.6392 -2.5063 0.9608
-8.6541 4.3319 -2.5057 0.9608
-8.8011 4.0193 -2.5051 0.9608
-8.9367 3.7017 -2.5045 0.9608
-9.0609 3.3796 -2.5039 0.9608
-9.1735 3.0532 -2.5033 0.9608
-9.5580 1.3742 -2.5002 0.9609
-9.5986 1.0320 -2.4996 0.9609
-9.6430 0.3444 -2.4983 0.9609
8.8499 0.0000 -2.5053 0.9639
8.8462 0.3160 -2.5059 0.9639
8.5878 2.1919 -2.5091 0.9638
8.4129 2.8001 -2.5101 0.9638
8.3092 3.0992 -2.5106 0.9638
8.1948 3.3944 -2.5110 0.9638
7.9346 3.9718 -2.5119 0.9638
7.7891 4.2532 -2.5124 0.9638
7.6336 4.5293 -2.5128 0.9638
7.2934 5.0639 -2.5136 0.9638
7.1091 5.3218 -2.5140 0.9638
6.2827 6.2827 -2.5153 0.9637
5.8198 6.7164 -2.5159 0.9637
5.5769 6.9206 -2.5161 0.9637
5.3269 7.1159 -2.5164 0.9637
5.0700 7.3021 -2.5166 0.9637
3.1002 8.3120 -2.5114 0.9638
2.7845 8.3662 -2.4961 0.9640
2.4473 8.3347 -2.4591 0.9645
1.7996 8.2725 -2.3967 0.9654
0.5958 8.3306 -2.3644 0.9659
0.0000 8.3511 -2.3641 0.9659
-0.5957 8.3289 -2.3639 0.9659
-1.1882 8.2639 -2.3635 0.9659
-2.0641 8.0872 -2.3628 0.9659
-2.6352 7.9176 -2.3623 0.9659
-4.4741 7.5407 -2.4822 0.9642
-5.0527 7.2773 -2.5080 0.9638
-6.0431 6.4908 -2.5106 0.9638
-6.2698 6.2698 -2.5101 0.9638
-6.4883 6.0408 -2.5096 0.9638
-6.6984 5.8042 -2.5091 0.9638
-6.8999 5.5603 -2.5086 0.9638
-7.2760 5.0518 -2.5076 0.9638
-7.4500 4.7879 -2.5070 0.9639
-7.6145 4.5179 -2.5065 0.9639
-7.7692 4.2423 -2.5060 0.9639
-8.0485 3.6756 -2.5048 0.9639
-8.5636 2.1857 -2.5020 0.9639
-8.6342 1.8783 -2.5015 0.9639
-8.6938 1.5685 -2.5009 0.9639
-8.7422 1.2569 -2.5003 0.9639
-8.7796 0.9439 -2.4998 0.9640
-8.8057 0.6298 -2.4992 0.9640
8.1270 0.5813 -2.5061 0.9665
8.1027 0.8711 -2.5066 0.9665
8.0230 1.4475 -2.5075 0.9665
7.9023 2.0169 -2.5085 0.9664
7.8267 2.2981 -2.5090 0.9664
7.7411 2.5765 -2.5094 0.9664
7.6455 2.8516 -2.5098 0.9664
7.4251 3.3910 -2.5107 0.9664
7.3006 3.6544 -2.5111 0.9664
7.1666 3.9133 -2.5115 0.9664
6.8713 4.4159 -2.5123 0.9664
6.5406 4.8962 -2.5130 0.9664
6.3625 5.1272 -2.5133 0.9664
6.1762 5.3517 -2.5136 0.9664
5.9820 5.5694 -2.5139 0.9664
5.5707 5.9833 -2.5145 0.9664
5.3541 6.1790 -2.5147 0.9664
5.1306 6.3667 -2.5150 0.9664
4.4217 6.8804 -2.5156 0.9664
3.9201 7.1792 -2.5159 0.9663
3.6616 7.3149 -2.5160 0.9663
3.3983 7.4413 -2.5162 0.9663
3.1307 7.5581 -2.5162 0.9663
2.8590 7.6653 -2.5163 0.9663
2.5836 7.7626 -2.5164 0.9663
2.3050 7.8500 -2.5164 0.9663
1.7368 7.9841 -2.5132 0.9664
1.4499 8.0364 -2.5117 0.9664
0.0000 8.0522 -2.4767 0.9669
-0.2865 8.0210 -2.4687 0.9670
-0.5714 7.9894 -2.4637 0.9670
-1.4238 7.8917 -2.4665 0.9670
-1.7094 7.8578 -2.4734 0.9669
-2.8492 7.6390 -2.5077 0.9665
-3.6542 7.3001 -2.5109 0.9664
-3.9145 7.1689 -2.5123 0.9664
-4.1679 7.0246 -2.5123 0.9664
-4.4153 6.8704 -2.5119 0.9664
-4.6570 6.7074 -2.5116 0.9664
-4.8927 6.5358 -2.5112 0.9664
-5.1220 6.3560 -2.5107 0.9664
-5.3447 6.1681 -2.5103 0.9664
-5.5605 5.9724 -2.5099 0.9664
-5.7691 5.7691 -2.5095 0.9664
-6.1637 5.3409 -2.5085 0.9664
-6.3492 5.1165 -2.5081 0.9665
-6.5266 4.8857 -2.5076 0.9665
-6.6955 4.6488 -2.5071 0.9665
-6.8558 4.4060 -2.5066 0.9665
-7.1498 3.9041 -2.5056 0.9665
-7.2831 3.6457 -2.5051 0.9665
-7.4071 3.3827 -2.5046 0.9665
-7.6264 2.8445 -2.5036 0.9665
-7.7214 2.5699 -2.5030 0.9665
-7.9469 1.7288 -2.5015 0.9665
-8.0467 1.1569 -2.5004 0.9666
-8.1053 0.5797 -2.4994 0.9666
7.5320 0.2690 -2.5053 0.9687
7.4642 1.0732 -2.5067 0.9687
7.4225 1.3392 -2.5071 0.9687
7.3712 1.6035 -2.5075 0.9687
7.3106 1.8659 -2.5080 0.9687
7.1613 2.3835 -2.5088 0.9687
7.0728 2.6380 -2.5092 0.9687
6.9752 2.8892 -2.5096 0.9687
6.7534 3.3805 -2.5104 0.9687
6.6294 3.6199 -2.5108 0.9687
6.3561 4.0848 -2.5115 0.9687
6.2070 4.3096 -2.5118 0.9686
5.8852 4.7426 -2.5124 0.9686
5.3463 5.3463 -2.5133 0.9686
5.1526 5.5343 -2.5135 0.9686
4.9523 5.7152 -2.5138 0.9686
4.7455 5.8889 -2.5140 0.9686
4.3140 6.2134 -2.5144 0.9686
3.8603 6.5061 -2.5147 0.9686
3.6258 6.6401 -2.5148 0.9686
3.3866 6.7657 -2.5150 0.9686
2.6443 7.0897 -2.5152 0.9686
2.1319 7.2605 -2.5153 0.9686
1.8714 7.3320 -2.5153 0.9686
1.3435 7.4468 -2.5153 0.9686
1.0769 7.4899 -2.5153 0.9686
0.8089 7.5234 -2.5152 0.9686
0.5398 7.5473 -2.5152 0.9686
-0.8085 7.5204 -2.5142 0.9686
-1.0764 7.4865 -2.5141 0.9686
-1.6076 7.3902 -2.5140 0.9686
-1.8702 7.3275 -2.5138 0.9686
-2.1304 7.2554 -2.5136 0.9686
-2.3878 7.1740 -2.5133 0.9686
-2.6420 7.0835 -2.5130 0.9686
-2.8928 6.9839 -2.5128 0.9686
-3.8554 6.4979 -2.5115 0.9687
-4.0843 6.3553 -2.5112 0.9687
-4.3079 6.2046 -2.5108 0.9687
-4.5260 6.0460 -2.5104 0.9687
-5.3370 5.3370 -2.5089 0.9687
-5.7022 4.9410 -2.5080 0.9687
-6.3428 4.0763 -2.5062 0.9687
-6.4831 3.8466 -2.5058 0.9687
-6.7385 3.3730 -2.5049 0.9687
-7.2234 2.1210 -2.5025 0.9688
-7.2931 1.8615 -2.5020 0.9688
-7.4044 1.3359 -2.5010 0.9688
-7.4459 1.0706 -2.5005 0.9688
-7.4780 0.8040 -2.5000 0.9688
7.0037 0.0000 -2.5046 0.9707
7.0005 0.2500 -2.5050 0.9707
6.9672 0.7491 -2.5059 0.9707
6.9372 0.9974 -2.5063 0.9707
6.8983 1.2446 -2.5067 0.9707
6.8506 1.4903 -2.5071 0.9707
6.7942 1.7341 -2.5075 0.9707
6.6552 2.2151 -2.5083 0.9706
6.5729 2.4516 -2.5087 0.9706
6.4822 2.6850 -2.5091 0.9706
6.3832 2.9151 -2.5094 0.9706
6.2759 3.1415 -2.5098 0.9706
6.1607 3.3640 -2.5101 0.9706
6.0375 3.5822 -2.5105 0.9706
5.9065 3.7959 -2.5108 0.9706
5.7680 4.0048 -2.5111 0.9706
5.6220 4.2086 -2.5114 0.9706
5.1416 4.7870 -2.5122 0.9706
4.7879 5.1426 -2.5127 0.9706
4.4096 5.4720 -2.5131 0.9706
3.8002 5.9132 -2.5136 0.9706
3.5869 6.0454 -2.5138 0.9706
3.1468 6.2865 -2.5140 0.9706
2.9205 6.3951 -2.5141 0.9706
2.6905 6.4954 -2.5142 0.9706
2.4570 6.5875 -2.5143 0.9706
2.2204 6.6711 -2.5143 0.9706
1.9809 6.7462 -2.5143 0.9706
1.7388 6.8127 -2.5144 0.9706
1.4946 6.8704 -2.5144 0.9706
1.2484 6.9193 -2.5144 0.9706
0.7516 6.9905 -2.5143 0.9706
0.5016 7.0127 -2.5142 0.9706
0.0000 7.0302 -2.5140 0.9706
-0.2509 7.0254 -2.5139 0.9706
-0.5015 7.0116 -2.5138 0.9706
-0.7514 6.9888 -2.5137 0.9706
-1.2479 6.9165 -2.5133 0.9706
-1.4938 6.8670 -2.5131 0.9706
-1.7378 6.8088 -2.5129 0.9706
-2.4550 6.5822 -2.5122 0.9706
-2.6881 6.4897 -2.5120 0.9706
-3.7954 5.9058 -2.5105 0.9706
-4.2060 5.6185 -2.5098 0.9706
-4.4032 5.4641 -2.5095 0.9706
-4.5948 5.3026 -2.5091 0.9706
-4.7804 5.1345 -2.5087 0.9706
-4.9599 4.9599 -2.5084 0.9706
-5.1329 4.7789 -2.5080 0.9706
-5.2994 4.5919 -2.5076 0.9707
-6.0255 3.5751 -2.5055 0.9707
-6.2630 3.1350 -2.5046 0.9707
-6.5588 2.4463 -2.5033 0.9707
-6.7142 1.9715 -2.5024 0.9707
-6.7790 1.7302 -2.5020 0.9707
-6.9513 0.7473 -2.5002 0.9707
-6.9844 0.2494 -2.4993 0.9707
6.5206 0.4664 -2.5052 0.9724
6.5009 0.6989 -2.5056 0.9724
6.4728 0.9307 -2.5060 0.9724
6.4364 1.1613 -2.5064 0.9724
6.3919 1.3905 -2.5068 0.9724
6.3391 1.6180 -2.5071 0.9724
6.2094 2.0667 -2.5079 0.9724
6.1325 2.2873 -2.5082 0.9724
5.5104 3.5413 -2.5102 0.9723
5.3811 3.7362 -2.5105 0.9723
5.1020 4.1115 -2.5110 0.9723
3.9291 5.2487 -2.5125 0.9723
3.7395 5.3859 -2.5127 0.9723
2.9355 5.8644 -2.5132 0.9723
2.7244 5.9657 -2.5133 0.9723
1.8479 6.2932 -2.5135 0.9723
1.6221 6.3552 -2.5135 0.9723
1.1646 6.4547 -2.5135 0.9723
0.4679 6.5419 -2.5134 0.9723
0.0000 6.5582 -2.5132 0.9723
-0.2341 6.5537 -2.5131 0.9723
-0.4678 6.5409 -2.5130 0.9723
-0.7009 6.5197 -2.5128 0.9723
-0.9331 6.4901 -2.5127 0.9723
-1.8467 6.2894 -2.5120 0.9723
-2.0699 6.2190 -2.5118 0.9723
-2.2903 6.1406 -2.5115 0.9723
-2.9327 5.8588 -2.5108 0.9723
-3.1396 5.7498 -2.5105 0.9723
-3.5410 5.5098 -2.5099 0.9723
-3.9240 5.2419 -2.5093 0.9723
-4.2868 4.9473 -2.5086 0.9723
-4.4601 4.7905 -2.5083 0.9724
-4.6276 4.6276 -2.5079 0.9724
-4.9445 4.2844 -2.5072 0.9724
-5.0935 4.1046 -2.5068 0.9724
-5.6222 3.3358 -2.5052 0.9724
-5.7368 3.1325 -2.5048 0.9724
-5.8440 2.9253 -2.5044 0.9724
-6.1202 2.2827 -2.5032 0.9724
-6.3260 1.6146 -2.5019 0.9724
-6.3785 1.3876 -2.5015 0.9724
-6.4229 1.1588 -2.5011 0.9724
-6.5181 0.2328 -2.4994 0.9724
6.1187 0.0000 -2.5042 0.9739
6.1157 0.2184 -2.5046 0.9739
6.1049 0.4366 -2.5050 0.9739
5.9842 1.3018 -2.5064 0.9739
5.8131 1.9348 -2.5075 0.9739
5.6618 2.3452 -2.5081 0.9739
5.4814 2.7438 -2.5088 0.9739
5.3806 2.9381 -2.5091 0.9739
5.0374 3.4975 -2.5099 0.9738
4.6361 4.0172 -2.5107 0.9738
4.4901 4.1805 -2.5109 0.9738
3.8507 4.7784 -2.5117 0.9738
3.5004 5.0416 -2.5120 0.9738
3.3184 5.1636 -2.5121 0.9738
2.7478 5.4895 -2.5125 0.9738
2.1455 5.7523 -2.5127 0.9738
1.7297 5.8908 -2.5127 0.9738
1.0901 6.0420 -2.5127 0.9738
0.8737 6.0769 -2.5127 0.9738
0.6563 6.1042 -2.5127 0.9738
0.4380 6.1236 -2.5126 0.9738
0.2191 6.1351 -2.5126 0.9738
-0.6561 6.1028 -2.5121 0.9738
-0.8735 6.0752 -2.5120 0.9738
-1.0897 6.0398 -2.5118 0.9738
-1.9376 5.8215 -2.5111 0.9738
-2.1440 5.7482 -2.5109 0.9738
-2.3476 5.6675 -2.5107 0.9738
-2.5481 5.5796 -2.5104 0.9738
-2.9391 5.3825 -2.5099 0.9738
-3.3148 5.1580 -2.5094 0.9738
-3.4964 5.0358 -2.5091 0.9739
-3.8458 4.7724 -2.5085 0.9739
-4.1754 4.4847 -2.5079 0.9739
-4.3323 4.3323 -2.5075 0.9739
-4.4835 4.1743 -2.5072 0.9739
-4.6290 4.0111 -2.5068 0.9739
-4.7686 3.8427 -2.5065 0.9739
-4.9020 3.6696 -2.5061 0.9739
-5.1498 3.3095 -2.5054 0.9739
-5.2638 3.1232 -2.5050 0.9739
-5.3711 2.9329 -2.5046 0.9739
-5.4716 2.7389 -2.5043 0.9739
-5.8664 1.7225 -2.5023 0.9739
-5.9724 1.2992 -2.5015 0.9739
-6.0140 1.0851 -2.5011 0.9739
-6.0927 0.4358 -2.5000 0.9739
-6.1034 0.2180 -2.4996 0.9739
5.7327 0.4100 -2.5048 0.9752
5.7152 0.6145 -2.5051 0.9752
5.5190 1.6205 -2.5068 0.9752
5.4583 1.8167 -2.5071 0.9752
5.2348 2.3906 -2.5080 0.9752
5.1467 2.5763 -2.5083 0.9752
4.7297 3.2839 -2.5094 0.9752
4.6099 3.4509 -2.5097 0.9752
4.3528 3.7717 -2.5101 0.9752
4.2157 3.9250 -2.5103 0.9752
4.0733 4.0733 -2.5105 0.9752
3.9256 4.2164 -2.5107 0.9752
3.6153 4.4863 -2.5111 0.9752
2.7620 5.0583 -2.5117 0.9752
2.3943 5.2428 -2.5119 0.9752
2.2057 5.3250 -2.5119 0.9752
2.0143 5.4005 -2.5120 0.9752
1.0234 5.6725 -2.5121 0.9752
0.6161 5.7309 -2.5120 0.9752
0.4112 5.7491 -2.5120 0.9752
0.2057 5.7600 -2.5119 0.9752
0.0000 5.7635 -2.5118 0.9752
-1.2248 5.6301 -2.5111 0.9752
-1.4248 5.5824 -2.5109 0.9752
-1.6231 5.5276 -2.5107 0.9752
-1.8192 5.4658 -2.5105 0.9752
-2.0129 5.3969 -2.5103 0.9752
-2.5776 5.1494 -2.5097 0.9752
-2.7595 5.0537 -2.5094 0.9752
-2.9378 4.9515 -2.5092 0.9752
-3.1124 4.8429 -2.5089 0.9752
-3.2829 4.7283 -2.5086 0.9752
-3.9205 4.2110 -2.5075 0.9752
-4.0678 4.0678 -2.5072 0.9752
-4.2099 3.9196 -2.5068 0.9752
-4.8357 3.1077 -2.5052 0.9752
-4.9428 2.9327 -2.5048 0.9752
-5.0437 2.7541 -2.5045 0.9752
-5.2258 2.3865 -2.5037 0.9752
-5.4486 1.8135 -2.5026 0.9753
-5.5624 1.4197 -2.5019 0.9753
-5.6479 1.0190 -2.5012 0.9753
-5.7219 0.4092 -2.5001 0.9753
-5.7320 0.2047 -2.4997 0.9753
5.4067 0.1931 -2.5043 0.9764
5.3572 0.7703 -2.5053 0.9764
5.3270 0.9611 -2.5056 0.9764
5.2899 1.1508 -2.5059 0.9764
5.1956 1.5256 -2.5065 0.9764
5.0748 1.8928 -2.5071 0.9764
5.0046 2.0730 -2.5074 0.9764
4.8450 2.4252 -2.5079 0.9764
4.7558 2.5969 -2.5082 0.9764
4.4523 3.0913 -2.5090 0.9764
4.2212 3.4017 -2.5094 0.9764
3.6953 3.9690 -2.5102 0.9764
3.2504 4.3421 -2.5107 0.9764
3.0936 4.4556 -2.5108 0.9764
2.9327 4.5634 -2.5109 0.9764
2.7681 4.6653 -2.5110 0.9764
2.4284 4.8513 -2.5112 0.9764
2.2537 4.9350 -2.5113 0.9764
1.7134 5.1480 -2.5114 0.9764
1.5286 5.2059 -2.5115 0.9764
1.3418 5.2572 -2.5115 0.9764
0.9633 5.3395 -2.5115 0.9764
0.7722 5.3704 -2.5114 0.9764
0.3870 5.4116 -2.5114 0.9764
0.0000 5.4251 -2.5112 0.9764
-0.1936 5.4215 -2.5111 0.9764
-0.5799 5.3934 -2.5109 0.9764
-1.3412 5.2548 -2.5104 0.9764
-1.5278 5.2033 -2.5102 0.9764
-1.7124 5.1451 -2.5100 0.9764
-1.8949 5.0803 -2.5098 0.9764
-2.0748 5.0090 -2.5096 0.9764
-2.2521 4.9314 -2.5094 0.9764
-2.7656 4.6611 -2.5087 0.9764
-2.9299 4.5590 -2.5085 0.9764
-3.3994 4.2183 -2.5077 0.9764
-3.6908 3.9642 -2.5071 0.9764
-3.8295 3.8295 -2.5068 0.9764
-3.9632 3.6899 -2.5065 0.9764
-4.0919 3.5457 -2.5062 0.9764
-4.4458 3.0868 -2.5053 0.9764
-4.5526 2.9257 -2.5050 0.9764
-4.8373 2.4214 -2.5040 0.9764
-4.9200 2.2469 -2.5036 0.9764
-5.0663 1.8896 -2.5029 0.9764
-5.3478 0.7689 -2.5009 0.9765
-5.3711 0.5775 -2.5005 0.9765
-5.3875 0.3853 -2.5002 0.9765
5.0926 0.3642 -2.5044 0.9775
5.0770 0.5458 -2.5047 0.9775
5.0264 0.9069 -2.5054 0.9775
4.9914 1.0858 -2.5057 0.9775
4.9024 1.4395 -2.5062 0.9775
4.7883 1.7859 -2.5068 0.9775
4.7220 1.9559 -2.5071 0.9775
4.6496 2.1234 -2.5073 0.9775
4.5714 2.2883 -2.5076 0.9775
4.0943 3.0650 -2.5088 0.9775
3.9827 3.2094 -2.5090 0.9775
3.8659 3.3498 -2.5092 0.9775
3.7441 3.4859 -2.5094 0.9775
3.4864 3.7447 -2.5097 0.9775
3.3507 3.8670 -2.5099 0.9775
2.7669 4.3054 -2.5104 0.9775
2.6116 4.4016 -2.5105 0.9775
2.4529 4.4921 -2.5106 0.9775
2.2911 4.5770 -2.5107 0.9775
1.6165 4.8568 -2.5109 0.9775
1.2659 4.9599 -2.5109 0.9775
1.0881 5.0019 -2.5109 0.9775
0.9089 5.0375 -2.5109 0.9775
0.5472 5.0894 -2.5109 0.9775
0.3652 5.1056 -2.5108 0.9775
0.1827 5.1152 -2.5108 0.9775
0.0000 5.1184 -2.5107 0.9775
-1.2654 4.9578 -2.5099 0.9775
-1.4415 4.9092 -2.5097 0.9775
-1.9576 4.7260 -2.5092 0.9775
-2.1248 4.6527 -2.5090 0.9775
-2.2893 4.5735 -2.5088 0.9775
-2.6093 4.3978 -2.5083 0.9775
-2.7644 4.3014 -2.5081 0.9775
-3.2074 3.9801 -2.5074 0.9775
-3.3470 3.8627 -2.5071 0.9775
-3.4824 3.7404 -2.5068 0.9775
-3.6133 3.6133 -2.5066 0.9775
-3.9775 3.2052 -2.5057 0.9775
-4.0888 3.0609 -2.5054 0.9775
-4.1950 2.9126 -2.5051 0.9775
-4.4806 2.4466 -2.5042 0.9775
-4.5645 2.2848 -2.5038 0.9775
-4.6425 2.1202 -2.5035 0.9775
-4.7147 1.9529 -2.5032 0.9775
-4.7807 1.7831 -2.5029 0.9775
-4.8407 1.6111 -2.5025 0.9775
-4.9420 1.2614 -2.5019 0.9775
-4.9832 1.0840 -2.5016 0.9775
-5.0465 0.7256 -2.5009 0.9775
-5.0841 0.3636 -2.5003 0.9775
4.8261 0.0000 -2.5037 0.9785
4.8236 0.1723 -2.5040 0.9785
4.8150 0.3444 -2.5043 0.9785
4.7191 1.0266 -2.5054 0.9785
4.6349 1.3609 -2.5060 0.9785
4.5270 1.6885 -2.5065 0.9785
4.3959 2.0075 -2.5070 0.9785
4.3218 2.1633 -2.5073 0.9785
4.2422 2.3165 -2.5075 0.9785
4.0669 2.6137 -2.5080 0.9785
3.9714 2.7574 -2.5082 0.9784
3.8707 2.8976 -2.5084 0.9784
3.5396 3.2955 -2.5089 0.9784
3.4200 3.4200 -2.5091 0.9784
3.2959 3.5401 -2.5093 0.9784
2.8991 3.8728 -2.5097 0.9784
2.7592 3.9740 -2.5098 0.9784
2.6157 4.0701 -2.5099 0.9784
2.1659 4.3268 -2.5102 0.9784
1.8518 4.4705 -2.5103 0.9784
1.6910 4.5339 -2.5104 0.9784
0.8592 4.7622 -2.5104 0.9784
0.3452 4.8265 -2.5103 0.9784
-0.1727 4.8354 -2.5101 0.9784
-1.0283 4.7269 -2.5096 0.9784
-1.5274 4.5891 -2.5091 0.9784
-2.0088 4.3986 -2.5086 0.9784
-2.1643 4.3238 -2.5084 0.9784
-2.4668 4.1576 -2.5080 0.9785
-2.8964 3.8691 -2.5073 0.9785
-3.0323 3.7629 -2.5071 0.9785
-3.1644 3.6519 -2.5068 0.9785
-3.4161 3.4161 -2.5063 0.9785
-3.5355 3.2917 -2.5060 0.9785
-3.9662 2.7538 -2.5049 0.9785
-4.0615 2.6102 -2.5046 0.9785
-4.1516 2.4632 -2.5043 0.9785
-4.2363 2.3132 -2.5040 0.9785
-4.3895 2.0046 -2.5034 0.9785
-4.5202 1.6860 -2.5028 0.9785
-4.5770 1.5234 -2.5025 0.9785
-4.6278 1.3589 -2.5022 0.9785
-4.7118 1.0250 -2.5016 0.9785
-4.7448 0.8561 -2.5013 0.9785
-4.7718 0.6861 -2.5009 0.9785
4.5711 0.0000 -2.5036 0.9794
4.5266 0.6508 -2.5047 0.9794
4.4325 1.1313 -2.5055 0.9794
4.3897 1.2889 -2.5058 0.9794
4.2280 1.7513 -2.5065 0.9793
3.5658 2.8735 -2.5082 0.9793
3.3522 3.1210 -2.5086 0.9793
3.1214 3.3526 -2.5089 0.9793
2.9999 3.4621 -2.5090 0.9793
2.7456 3.6676 -2.5093 0.9793
2.6130 3.7635 -2.5094 0.9793
2.0511 4.0976 -2.5097 0.9793
1.9036 4.1683 -2.5098 0.9793
1.7536 4.2337 -2.5099 0.9793
1.6014 4.2936 -2.5099 0.9793
1.4472 4.3481 -2.5099 0.9793
1.2911 4.3970 -2.5099 0.9793
1.1333 4.4403 -2.5100 0.9793
0.4899 4.5563 -2.5099 0.9793
0.3269 4.5708 -2.5099 0.9793
0.1636 4.5795 -2.5098 0.9793
-0.1635 4.5792 -2.5097 0.9793
-0.3269 4.5703 -2.5096 0.9793
-0.4898 4.5556 -2.5095 0.9793
-0.6520 4.5350 -2.5094 0.9793
-0.9738 4.4765 -2.5092 0.9793
-1.1329 4.4387 -2.5090 0.9793
-1.2905 4.3952 -2.5089 0.9793
-1.4465 4.3461 -2.5087 0.9793
-1.7526 4.2312 -2.5084 0.9793
-2.3363 3.9376 -2.5076 0.9793
-2.4751 3.8513 -2.5074 0.9793
-2.7431 3.6643 -2.5070 0.9793
-2.8719 3.5637 -2.5068 0.9793
-2.9969 3.4587 -2.5065 0.9793
-3.1182 3.3492 -2.5063 0.9793
-3.2354 3.2354 -2.5060 0.9793
-3.4573 2.9957 -2.5055 0.9794
-3.8468 2.4722 -2.5045 0.9794
-3.9321 2.3330 -2.5042 0.9794
-4.0124 2.1910 -2.5039 0.9794
-4.3352 1.4429 -2.5025 0.9794
-4.5536 0.3257 -2.5004 0.9794
-4.5618 0.1629 -2.5001 0.9794
4.3261 0.3094 -2.5040 0.9802
4.3127 0.4637 -2.5043 0.9802
4.2695 0.7703 -2.5048 0.9802
4.2397 0.9223 -2.5051 0.9802
4.1640 1.2227 -2.5056 0.9802
4.1181 1.3706 -2.5058 0.9802
4.0669 1.5169 -2.5060 0.9802
4.0105 1.6612 -2.5063 0.9801
3.9490 1.8035 -2.5065 0.9801
3.8825 1.9434 -2.5067 0.9801
3.7346 2.2158 -2.5071 0.9801
3.4771 2.6029 -2.5077 0.9801
3.3822 2.7256 -2.5079 0.9801
3.2830 2.8448 -2.5080 0.9801
3.1796 2.9603 -2.5082 0.9801
3.0721 3.0721 -2.5084 0.9801
2.8454 3.2838 -2.5086 0.9801
2.7265 3.3834 -2.5088 0.9801
2.4784 3.5696 -2.5090 0.9801
1.9455 3.8865 -2.5093 0.9801
1.8055 3.9536 -2.5094 0.9801
1.2246 4.1706 -2.5095 0.9801
1.0750 4.2116 -2.5095 0.9801
0.7718 4.2776 -2.5095 0.9801
0.6186 4.3023 -2.5095 0.9801
0.4646 4.3216 -2.5095 0.9801
0.0000 4.3463 -2.5093 0.9801
-0.3100 4.3349 -2.5092 0.9801
-0.4646 4.3210 -2.5091 0.9801
-0.6185 4.3015 -2.5090 0.9801
-0.7716 4.2765 -2.5089 0.9801
-1.0746 4.2101 -2.5086 0.9801
-1.2241 4.1689 -2.5085 0.9801
-1.6624 4.0134 -2.5081 0.9801
-1.8045 3.9513 -2.5079 0.9801
-2.0815 3.8119 -2.5075 0.9801
-2.2160 3.7349 -2.5073 0.9801
-2.6019 3.4758 -2.5067 0.9801
-2.9578 3.1769 -2.5061 0.9802
-3.0690 3.0690 -2.5058 0.9802
-3.4732 2.6000 -2.5048 0.9802
-3.6490 2.3451 -2.5043 0.9802
-3.7300 2.2131 -2.5041 0.9802
-3.8776 1.9410 -2.5035 0.9802
-4.0615 1.5148 -2.5027 0.9802
-4.1125 1.3688 -2.5024 0.9802
-4.1583 1.2210 -2.5021 0.9802
-4.2338 0.9210 -2.5016 0.9802
-4.2878 0.6165 -2.5010 0.9802
-4.3066 0.4630 -2.5007 0.9802
-4.3199 0.3090 -2.5005 0.9802
