ply
format ascii 1.0
element vertex 1391
property float32 x
property float32 y
property float32 z
property float32 I
end_header
22.8496 8.5225 4.3001 0.9057
35.1600 16.0570 6.8156 0.8547
31.6625 15.8491 6.2433 0.8660
24.4639 16.9856 5.2514 0.8861
20.7740 16.7408 4.7044 0.8973
19.6861 17.0581 4.5931 0.8996
12.5873 18.1291 3.8916 0.9143
11.7807 18.3311 3.8422 0.9153
10.7568 18.1296 3.7171 0.9179
9.7097 17.7821 3.5725 0.9210
8.3261 18.2315 3.5341 0.9218
9.0345 24.2224 4.5585 0.9003
3.2184 9.6697 1.7970 0.9595
2.8296 9.6366 1.7709 0.9600
2.5529 10.0021 1.8202 0.9589
3.9649 18.2265 3.2890 0.9270
2.6841 18.6679 3.3255 0.9263
2.0334 18.9133 3.3541 0.9256
0.9043 25.3198 4.4674 0.9022
-0.6826 19.1134 3.3723 0.9253
-2.6947 18.7418 3.3387 0.9260
-3.4696 19.2304 3.4456 0.9237
-6.5221 25.5535 4.6502 0.8984
-6.4736 19.4501 3.6146 0.9201
-7.9309 19.1469 3.6543 0.9193
-10.8792 19.9237 4.0027 0.9119
-12.7664 19.8648 4.1637 0.9085
-14.9995 20.0370 4.4133 0.9033
-17.5331 20.2342 4.7209 0.8970
-19.9963 19.9963 4.9864 0.8915
-22.1105 20.5856 5.3268 0.8845
-23.9186 20.7256 5.5805 0.8794
-21.6144 9.8709 4.1898 0.9080
22.8170 8.5103 3.7307 0.9062
35.3493 16.1435 5.9533 0.8545
31.8312 15.9336 5.4532 0.8658
25.4823 16.3765 4.6404 0.8846
24.4624 16.9845 4.5622 0.8865
22.8690 17.1195 4.3763 0.8908
19.8849 17.2304 4.0308 0.8990
18.8036 17.5067 3.9358 0.9013
17.8338 17.8338 3.8637 0.9030
15.0502 17.3689 3.5208 0.9112
14.1878 17.6060 3.4639 0.9126
15.3653 23.9089 4.3539 0.8914
10.9184 18.4019 3.2779 0.9171
8.9312 17.8422 3.0566 0.9224
8.3295 18.2391 3.0717 0.9221
7.6962 18.5803 3.0809 0.9218
9.1017 24.4027 3.9899 0.9000
3.2031 9.6239 1.5538 0.9598
3.9649 18.2264 2.8575 0.9273
3.2977 18.2780 2.8453 0.9276
2.6852 18.6760 2.8905 0.9265
2.0446 19.0177 2.9302 0.9255
1.8232 25.4922 3.9152 0.9017
-1.3559 18.9583 2.9117 0.9260
-2.0093 18.6886 2.8795 0.9268
-6.5066 19.5491 3.1563 0.9200
-7.1929 19.2848 3.1531 0.9201
-13.0179 26.0065 4.4553 0.8890
-16.3995 20.3505 4.0039 0.8996
-22.1086 20.5838 4.6276 0.8849
-23.9183 20.7253 4.8484 0.8798
-25.3256 20.4086 4.9827 0.8767
22.7847 8.4982 3.1667 0.9066
37.5372 15.5484 5.2909 0.8488
28.0549 16.6458 4.2480 0.8767
25.7398 16.5420 3.9844 0.8839
23.3548 17.4832 3.7990 0.8890
20.9838 16.9098 3.5094 0.8970
19.8849 17.2304 3.4263 0.8993
15.0248 16.1378 2.8713 0.9149
15.0502 17.3688 2.9928 0.9115
16.7848 24.1747 3.8324 0.8881
15.3709 23.9176 3.7023 0.8916
14.4369 24.3321 3.6843 0.8921
8.9311 17.8421 2.5982 0.9227
9.1017 24.4025 3.3916 0.9003
3.1994 9.6126 1.3193 0.9600
3.2977 18.2780 2.4186 0.9278
2.0510 19.0770 2.4985 0.9255
1.8496 25.8604 3.3762 0.9007
0.6875 19.2503 2.5084 0.9252
0.0000 25.7320 3.3508 0.9014
-0.6882 19.2689 2.5108 0.9252
-2.0092 18.6885 2.4477 0.9270
-3.4941 19.3664 2.5626 0.9237
-7.5434 25.6904 3.4867 0.8976
-8.9792 19.6617 2.8147 0.9165
-12.7251 19.8006 3.0650 0.9094
-15.3287 20.4767 3.3309 0.9020
-23.6857 29.3922 4.9156 0.8588
-17.6811 20.4050 3.5159 0.8968
-23.9154 20.7228 4.1208 0.8802
-25.4367 20.4982 4.2541 0.8765
-16.3126 11.3260 2.5861 0.9230
-16.6848 10.7226 2.5827 0.9231
38.1756 5.4888 4.1415 0.8563
46.0221 15.3176 5.2085 0.8227
35.4593 16.1937 4.1860 0.8549
37.2548 22.1044 4.6517 0.8401
25.7396 16.5419 3.2855 0.8842
23.4918 17.5857 3.1511 0.8886
20.9837 16.9097 2.8938 0.8973
19.8848 17.2303 2.8254 0.8996
19.0910 17.7743 2.8010 0.9004
15.0256 16.1386 2.3678 0.9151
15.0501 17.3687 2.4678 0.9117
13.5165 18.0559 2.4220 0.9133
9.7096 17.7818 2.1756 0.9217
7.5126 18.1370 2.1080 0.9241
3.1985 9.6100 1.0876 0.9601
2.8273 9.6289 1.0776 0.9604
2.5573 10.0195 1.1104 0.9593
3.9649 18.2263 2.0029 0.9277
3.2977 18.2779 1.9944 0.9280
2.6642 18.5297 2.0102 0.9275
1.9962 18.5674 2.0053 0.9276
-0.0000 25.9908 2.7909 0.9007
-0.6705 18.7733 2.0172 0.9272
-2.0092 18.6885 2.0184 0.9272
-3.4267 18.9926 2.0724 0.9253
-5.7236 26.3108 2.8914 0.8973
-6.3960 19.2170 2.1748 0.9218
-7.1907 19.2789 2.2095 0.9206
-7.7920 18.8116 2.1865 0.9214
-8.8440 19.3656 2.2861 0.9179
-13.0738 26.1182 3.1364 0.8891
-14.7051 26.9304 3.2948 0.8839
-11.9961 20.2183 2.5245 0.9098
-12.7733 19.8757 2.5370 0.9093
-13.5982 19.5852 2.5603 0.9085
-18.5944 19.9718 2.9302 0.8960
-24.4220 22.7377 3.5831 0.8744
-24.0170 20.8108 3.4125 0.8800
-16.6921 10.7273 2.1307 0.9233
46.2636 15.3980 4.1276 0.8222
22.7208 8.4744 2.0528 0.9072
37.7014 15.6164 3.4545 0.8489
32.0681 16.0522 3.0358 0.8659
26.4215 15.6766 2.6007 0.8840
23.4119 17.5259 2.4757 0.8892
20.9836 16.9096 2.2813 0.8975
19.8200 17.1742 2.2201 0.9001
15.0500 17.3686 1.9455 0.9119
13.3071 17.7762 1.8797 0.9147
15.3707 23.9173 2.4067 0.8921
10.6693 17.9821 1.7700 0.9195
9.7096 17.7817 1.7151 0.9219
7.5469 18.2198 1.6694 0.9239
9.1016 24.4023 2.2047 0.9007
3.1977 9.6075 0.8572 0.9602
2.8265 9.6263 0.8493 0.9605
2.5588 10.0253 0.8759 0.9593
2.6761 18.6128 1.5918 0.9273
2.0052 18.6513 1.5880 0.9275
1.8365 25.6777 2.1792 0.9018
0.9196 25.7487 2.1811 0.9017
-0.0000 25.2914 2.1410 0.9035
-0.6735 18.8583 1.5974 0.9270
-1.3535 18.9246 1.6061 0.9267
-2.0092 18.6884 1.5911 0.9273
-2.6946 18.7414 1.6028 0.9268
-5.5858 25.6774 2.2245 0.8999
-7.1930 19.2851 1.7424 0.9207
-7.7938 18.8159 1.7240 0.9215
-11.7885 19.8684 1.9557 0.9114
-12.6698 19.7145 1.9838 0.9102
-13.5982 19.5851 2.0184 0.9087
-18.5943 19.9717 2.3100 0.8962
-19.2236 19.2236 2.3014 0.8966
-24.0808 20.8661 2.6973 0.8799
-25.4362 20.4978 2.7654 0.8771
-16.6993 10.7320 1.6804 0.9234
-21.6069 9.8675 2.0108 0.9091
22.6892 8.4626 1.5016 0.9075
32.0679 16.0520 2.2237 0.8661
30.1856 16.4826 2.1327 0.8712
26.4499 15.6935 1.9071 0.8840
25.7392 16.5416 1.8973 0.8846
24.6003 17.0803 1.8571 0.8869
31.0806 23.2667 2.4075 0.8559
20.9834 16.9095 1.6711 0.8976
18.9209 17.6160 1.6031 0.9016
15.0207 16.1333 1.3669 0.9154
15.0499 17.3685 1.4251 0.9120
16.7259 24.0899 1.8186 0.8891
10.6684 17.9807 1.2965 0.9196
9.7095 17.7817 1.2563 0.9220
8.9310 17.8419 1.2372 0.9232
7.5463 18.2184 1.2228 0.9240
3.1968 9.6049 0.6277 0.9602
2.0051 18.6500 1.1632 0.9276
0.9244 25.8816 1.6059 0.9014
-0.6735 18.8569 1.1701 0.9272
-1.3534 18.9231 1.1764 0.9268
-2.0092 18.6883 1.1655 0.9274
-2.6946 18.7413 1.1741 0.9269
-3.4418 19.0764 1.2020 0.9253
-5.6730 26.0786 1.6550 0.8986
-6.6122 25.9064 1.6580 0.8984
-7.5433 25.6900 1.6603 0.8983
-6.4248 19.3034 1.2616 0.9217
-7.1930 19.2853 1.2764 0.9208
-8.9073 19.5042 1.3296 0.9177
-13.0737 26.1179 1.8112 0.8895
-14.4714 26.5023 1.8725 0.8860
-14.9457 19.9651 1.5465 0.9049
-19.1983 19.1983 1.6836 0.8969
-23.3968 21.7831 1.9823 0.8798
-16.7307 10.7521 1.2345 0.9234
-29.5765 12.2510 1.9852 0.8796
32.0676 16.0519 1.4141 0.8663
37.4490 22.2195 1.7170 0.8400
30.7817 23.0429 1.5162 0.8573
20.9833 16.9094 1.0626 0.8977
18.9219 17.6169 1.0194 0.9017
24.3285 24.3286 1.3567 0.8713
15.0498 17.3684 0.9062 0.9121
13.3048 17.7731 0.8754 0.9150
16.7245 24.0879 1.1563 0.8892
10.6676 17.9792 0.8243 0.9197
9.7095 17.7816 0.7989 0.9221
8.2997 18.1738 0.7878 0.9231
7.5457 18.2170 0.7775 0.9241
3.1960 9.6024 0.3991 0.9603
2.5617 10.0368 0.4084 0.9594
3.9648 18.2260 0.7355 0.9281
0.9335 26.1385 1.0313 0.9006
-0.6734 18.8555 0.7440 0.9273
-1.3533 18.9218 0.7480 0.9269
-2.6946 18.7412 0.7466 0.9270
-3.4415 19.0750 0.7643 0.9253
-5.6740 26.0829 1.0525 0.8987
-6.6117 25.9044 1.0542 0.8985
-7.5432 25.6898 1.0557 0.8984
-7.9307 19.1463 0.8172 0.9204
-12.7260 19.8020 0.9282 0.9101
-13.5980 19.5848 0.9401 0.9090
-14.9443 19.9633 0.9833 0.9050
-17.5679 20.2744 1.0578 0.8982
-18.5940 19.9714 1.0760 0.8965
-23.8278 20.6468 1.2432 0.8814
-16.2930 11.3124 0.7821 0.9237
-16.7988 10.7959 0.7874 0.9232
-21.6026 9.8656 0.9364 0.9093
47.3952 6.8144 0.8088 0.8257
22.6660 8.4540 0.4086 0.9078
36.0182 16.4490 0.6689 0.8535
37.4489 22.2195 0.7355 0.8401
24.6027 17.0820 0.5059 0.8871
18.9230 17.6179 0.4367 0.9017
24.3284 24.3284 0.5812 0.8714
15.0497 17.3683 0.3882 0.9122
14.1874 17.6055 0.3819 0.9135
13.3036 17.7716 0.3750 0.9150
15.3705 23.9169 0.4802 0.8925
10.6667 17.9778 0.3531 0.9198
8.2990 18.1724 0.3375 0.9232
7.5451 18.2156 0.3330 0.9242
9.1015 24.4020 0.4399 0.9011
2.5632 10.0425 0.1751 0.9594
3.9648 18.2259 0.3151 0.9281
2.6755 18.6088 0.3176 0.9275
-1.3532 18.9204 0.3204 0.9269
-2.0092 18.6881 0.3175 0.9276
-3.4413 19.0736 0.3274 0.9254
-5.6750 26.0873 0.4510 0.8987
-6.6112 25.9024 0.4516 0.8986
-7.9306 19.1462 0.3501 0.9204
-8.9058 19.5010 0.3621 0.9178
-14.4689 26.4978 0.5100 0.8862
-11.8722 20.0095 0.3930 0.9111
-12.7248 19.8002 0.3976 0.9101
-13.5979 19.5847 0.4027 0.9090
-14.9429 19.9614 0.4212 0.9051
-20.0832 20.0832 0.4798 0.8926
-25.4356 20.4973 0.5518 0.8775
-16.2882 11.3091 0.3350 0.9237
-16.8674 10.8400 0.3387 0.9229
-21.5987 9.8638 0.4011 0.9094
47.2048 6.7871 -0.2685 0.8263
22.6597 8.4516 -0.1362 0.9078
36.0197 16.4496 -0.2229 0.8535
30.2825 16.5355 -0.1943 0.8711
37.4487 22.2194 -0.2452 0.8401
25.7386 16.5412 -0.1723 0.8848
18.9241 17.6190 -0.1456 0.9017
16.3291 17.5387 -0.1349 0.9086
15.0496 17.3682 -0.1294 0.9122
13.3025 17.7700 -0.1250 0.9150
15.3704 23.9168 -0.1601 0.8925
9.7094 17.7814 -0.1141 0.9222
8.2984 18.1710 -0.1125 0.9232
7.5446 18.2142 -0.1110 0.9242
9.1014 24.4018 -0.1466 0.9011
3.1943 9.5973 -0.0569 0.9603
2.5647 10.0483 -0.0584 0.9594
3.9648 18.2258 -0.1050 0.9281
3.2976 18.2775 -0.1046 0.9284
2.6753 18.6074 -0.1058 0.9276
0.0000 25.3706 -0.1428 0.9035
-0.6733 18.8527 -0.1062 0.9273
-2.0092 18.6880 -0.1058 0.9276
-2.6946 18.7410 -0.1066 0.9271
-5.6760 26.0920 -0.1503 0.8987
-6.6107 25.9005 -0.1505 0.8986
-6.4232 19.2987 -0.1145 0.9219
-7.1932 19.2856 -0.1159 0.9210
-8.9051 19.4994 -0.1207 0.9178
-14.4677 26.4955 -0.1700 0.8863
-11.8732 20.0111 -0.1310 0.9111
-12.7236 19.7983 -0.1325 0.9102
-17.5701 20.2770 -0.1510 0.8982
-18.5938 19.9711 -0.1536 0.8966
-20.0831 20.0831 -0.1599 0.8926
-23.8217 20.6416 -0.1775 0.8815
-21.5949 9.8620 -0.1337 0.9094
37.6995 15.6156 -1.1489 0.8493
36.0212 16.4504 -1.1150 0.8535
32.0667 16.0515 -1.0097 0.8663
25.7384 16.5411 -0.8615 0.8848
30.7866 23.0466 -1.0829 0.8574
20.9828 16.9090 -0.7588 0.8978
18.9252 17.6200 -0.7281 0.9017
15.0495 17.3681 -0.6471 0.9121
13.3013 17.7684 -0.6250 0.9150
10.6650 17.9749 -0.5885 0.9198
8.2978 18.1696 -0.5624 0.9232
7.5440 18.2128 -0.5551 0.9241
9.1014 24.4017 -0.7333 0.9010
3.1935 9.5948 -0.2847 0.9603
2.8229 9.6138 -0.2821 0.9607
3.9648 18.2257 -0.5252 0.9281
3.2976 18.2774 -0.5230 0.9284
2.6751 18.6061 -0.5293 0.9275
2.0045 18.6445 -0.5280 0.9277
0.9335 26.1381 -0.7365 0.9006
-0.6733 18.8513 -0.5312 0.9273
-1.3530 18.9176 -0.5340 0.9269
-2.0092 18.6879 -0.5292 0.9275
-6.6102 25.8985 -0.7526 0.8986
-13.0734 26.1173 -0.8224 0.8897
-11.8741 20.0128 -0.6552 0.9111
-12.7225 19.7965 -0.6626 0.9101
-13.5978 19.5845 -0.6713 0.9090
-14.9400 19.9575 -0.7020 0.9051
-17.5712 20.2783 -0.7555 0.8982
-18.5937 19.9710 -0.7683 0.8966
-20.0829 20.0829 -0.7997 0.8926
-23.4785 21.8593 -0.9033 0.8795
-25.4352 20.4970 -0.9198 0.8775
-21.5910 9.8602 -0.6684 0.9094
-29.1055 12.0559 -0.8871 0.8816
46.2017 4.9672 -2.3566 0.8302
46.0007 6.6139 -2.3569 0.8302
45.0460 11.4973 -2.3577 0.8301
44.6118 13.0992 -2.3580 0.8301
44.1205 14.6847 -2.3582 0.8301
35.9609 16.4228 -2.0049 0.8536
30.2248 16.5040 -1.7465 0.8712
24.6065 17.0846 -1.5192 0.8869
30.7261 23.0013 -1.9465 0.8575
20.9827 16.9089 -1.3666 0.8977
19.8843 17.2298 -1.3343 0.9000
24.3280 24.3280 -1.7448 0.8713
15.0495 17.3680 -1.1655 0.9121
13.3001 17.7669 -1.1255 0.9149
10.6641 17.9734 -1.0599 0.9197
9.7093 17.7812 -1.0274 0.9221
8.9308 17.8414 -1.0119 0.9232
7.5434 18.2114 -0.9997 0.9241
9.1013 24.4016 -1.3208 0.9009
3.2976 18.2773 -0.9419 0.9283
2.6750 18.6047 -0.9532 0.9275
2.0043 18.6431 -0.9509 0.9277
1.8643 26.0660 -1.3253 0.9006
0.9335 26.1380 -1.3264 0.9005
-0.0000 25.3668 -1.2865 0.9034
-0.6732 18.8500 -0.9566 0.9272
-2.6945 18.7409 -0.9602 0.9270
-3.4405 19.0693 -0.9827 0.9253
-5.6780 26.1014 -1.3547 0.8985
-7.5431 25.6893 -1.3578 0.8983
-6.4222 19.2956 -1.0313 0.9218
-7.1933 19.2858 -1.0439 0.9209
-8.9036 19.4962 -1.0870 0.9177
-13.5977 19.5844 -1.2092 0.9089
-17.5724 20.2796 -1.3609 0.8981
-18.5935 19.9709 -1.3838 0.8965
-23.4293 21.8134 -1.6235 0.8797
-25.4350 20.4968 -1.6566 0.8774
-16.2737 11.2990 -1.0047 0.9237
-17.0764 10.9743 -1.0294 0.9219
-42.4155 25.1663 -2.5012 0.8208
-43.2795 23.6324 -2.5008 0.8208
-21.5881 9.8590 -1.2036 0.9093
-46.7499 15.5598 -2.4988 0.8209
-47.2679 13.8791 -2.4984 0.8209
-47.7259 12.1813 -2.4980 0.8210
-48.1227 10.4684 -2.4976 0.8210
-48.4583 8.7428 -2.4972 0.8210
-48.7323 7.0067 -2.4968 0.8210
-49.0934 3.5112 -2.4961 0.8211
-49.1804 1.7565 -2.4957 0.8211
34.1628 1.2201 -2.5065 0.8719
34.1006 2.4389 -2.5067 0.8719
33.8209 4.8627 -2.5053 0.8719
31.3848 6.8273 -2.3550 0.8791
10.4287 2.6618 -0.7892 0.9578
30.8225 9.0503 -2.3554 0.8791
22.6408 8.4446 -1.7718 0.9076
29.6846 12.2957 -2.3559 0.8791
29.2287 13.3483 -2.3560 0.8791
28.7352 14.3838 -2.3562 0.8791
24.5454 17.0421 -2.1910 0.8871
25.7309 19.2619 -2.3567 0.8791
15.0494 17.3679 -1.6850 0.9119
14.1872 17.6052 -1.6578 0.9133
13.2415 19.0714 -1.7024 0.9111
15.3702 23.9164 -2.0845 0.8922
10.6632 17.9720 -1.5322 0.9196
8.9307 17.8413 -1.4629 0.9231
7.5428 18.2100 -1.4452 0.9240
3.9647 18.2256 -1.3676 0.9279
3.2976 18.2772 -1.3618 0.9282
2.6748 18.6033 -1.3781 0.9274
1.8643 26.0659 -1.9161 0.9005
0.0000 25.3095 -1.8557 0.9035
-0.6732 18.8486 -1.3829 0.9271
-2.6945 18.7408 -1.3882 0.9269
-3.4402 19.0678 -1.4207 0.9252
-5.6293 25.8776 -1.9418 0.8992
-7.5430 25.6892 -1.9631 0.8982
-6.4217 19.2941 -1.4910 0.9217
-7.9305 19.1458 -1.5195 0.9202
-12.6799 19.7304 -1.7197 0.9102
-13.5976 19.5843 -1.7481 0.9088
-14.8928 19.8944 -1.8221 0.9051
-20.1265 24.9755 -2.3519 0.8793
-17.5192 20.2182 -1.9616 0.8983
-18.5934 19.9707 -2.0007 0.8963
-23.4305 21.8146 -2.3473 0.8795
-23.7397 20.5706 -2.3032 0.8816
-16.2688 11.2956 -1.4522 0.9236
-27.5545 16.3488 -2.3492 0.8794
-28.6441 14.3382 -2.3487 0.8794
-28.9035 11.9722 -2.2939 0.8821
-32.7074 9.6038 -2.4994 0.8722
-33.9800 2.4303 -2.4979 0.8723
26.0797 0.9314 -2.5054 0.9004
26.0317 1.8618 -2.5056 0.9004
25.9504 2.7900 -2.5057 0.9004
25.4841 5.5437 -2.5038 0.9005
10.2515 2.6165 -1.0157 0.9584
23.5265 6.9080 -2.3540 0.9062
22.0845 7.3504 -2.2346 0.9107
21.8179 8.1377 -2.2356 0.9107
22.3085 10.1880 -2.3545 0.9062
21.9316 10.9782 -2.3546 0.9061
21.5267 11.7545 -2.3547 0.9061
20.1491 13.9897 -2.3550 0.9061
19.1008 15.3924 -2.3551 0.9061
17.9549 16.7166 -2.3552 0.9061
15.0493 17.3678 -2.2063 0.9118
14.1871 17.6051 -2.1707 0.9131
13.2579 17.7105 -2.1239 0.9149
13.2424 19.0727 -2.2292 0.9109
13.2639 20.6391 -2.3554 0.9061
10.6307 17.9171 -2.0001 0.9197
8.9307 17.8413 -1.9155 0.9230
8.2699 18.1085 -1.9112 0.9231
8.5731 22.9854 -2.3552 0.9061
3.1909 9.5872 -0.9701 0.9602
2.8206 9.6062 -0.9612 0.9606
4.6915 18.3812 -1.8213 0.9266
3.9647 18.2255 -1.7907 0.9278
1.9981 18.5847 -1.7945 0.9276
1.7497 24.4634 -2.3546 0.9061
0.0000 24.5237 -2.3544 0.9062
-0.6711 18.7908 -1.8052 0.9272
-2.0091 18.6877 -1.8044 0.9273
-2.6945 18.7407 -1.8177 0.9267
-3.4296 19.0087 -1.8544 0.9253
-5.2111 23.9552 -2.3536 0.9062
-6.0624 23.7524 -2.3535 0.9062
-6.0366 20.5587 -2.0571 0.9175
-6.4018 19.2344 -1.9462 0.9218
-7.1933 19.2861 -1.9762 0.9206
-7.9304 19.1457 -1.9895 0.9201
-8.8749 19.4334 -2.0511 0.9177
-10.9682 21.9116 -2.3525 0.9062
-11.7424 21.5045 -2.3523 0.9062
-11.8227 19.9261 -2.2244 0.9111
-12.6788 19.7285 -2.2514 0.9101
-14.6786 19.6083 -2.3515 0.9063
-16.0373 18.5081 -2.3511 0.9063
-17.3139 17.3139 -2.3507 0.9063
-17.9193 16.6834 -2.3505 0.9063
-15.5029 12.4930 -1.9115 0.9231
-15.5266 10.7803 -1.8147 0.9269
-15.7248 10.1057 -1.7945 0.9276
-21.4755 11.7265 -2.3491 0.9064
-21.8785 10.9515 -2.3489 0.9064
-21.4711 9.8055 -2.2661 0.9095
-24.3684 9.0889 -2.4969 0.9008
-24.7096 8.2242 -2.5002 0.9006
-25.2292 6.4394 -2.4998 0.9007
-25.4409 5.5343 -2.4996 0.9007
-25.6201 4.6224 -2.4994 0.9007
-25.7667 3.7047 -2.4992 0.9007
-25.8805 2.7824 -2.4990 0.9007
-25.9614 1.8568 -2.4988 0.9007
-26.0092 0.9289 -2.4986 0.9007
21.0723 0.7526 -2.5047 0.9186
21.0332 1.5043 -2.5048 0.9186
20.9673 2.2542 -2.5050 0.9186
20.8746 3.0013 -2.5051 0.9186
20.6094 4.4833 -2.5054 0.9186
10.3313 2.6369 -1.2666 0.9580
18.3045 7.5820 -2.3535 0.9233
17.0415 10.1112 -2.3538 0.9233
16.2777 11.3018 -2.3539 0.9233
14.9773 12.9779 -2.3541 0.9233
13.5049 14.5053 -2.3542 0.9233
12.9787 14.9782 -2.3542 0.9233
10.7151 16.6728 -2.3543 0.9233
9.4396 17.2873 -2.3397 0.9237
8.8713 17.7226 -2.3542 0.9233
8.2330 18.0278 -2.3542 0.9233
6.9258 18.5687 -2.3541 0.9233
4.6912 18.3799 -2.2533 0.9264
3.9647 18.2254 -2.2156 0.9276
3.2975 18.2770 -2.2061 0.9279
2.6660 18.5425 -2.2252 0.9273
1.4135 19.7637 -2.3536 0.9233
-0.0000 19.8127 -2.3535 0.9233
-0.6711 18.7894 -2.2333 0.9271
-2.0091 18.6876 -2.2326 0.9271
-5.5798 19.0030 -2.3526 0.9233
-6.2542 18.7907 -2.3525 0.9233
-8.2255 18.0114 -2.3521 0.9233
-9.4883 17.3766 -2.3518 0.9233
-10.1018 17.0257 -2.3516 0.9234
-12.4188 15.4108 -2.3510 0.9234
-14.4816 13.4828 -2.3504 0.9234
-15.3865 12.3992 -2.3473 0.9235
-15.3986 11.5272 -2.2849 0.9254
-17.7705 8.8952 -2.3606 0.9231
-19.4508 8.0568 -2.5008 0.9187
-19.7245 7.3569 -2.5007 0.9187
-20.3938 5.2052 -2.5002 0.9187
-20.7105 3.7366 -2.4998 0.9187
-20.8293 2.9948 -2.4997 0.9187
-20.9873 1.5010 -2.4994 0.9187
17.6732 0.0000 -2.5041 0.9311
17.6628 0.6308 -2.5042 0.9311
17.6299 1.2609 -2.5043 0.9311
17.2740 3.7577 -2.5048 0.9311
10.2774 2.6232 -1.5029 0.9581
10.5088 3.0857 -1.5518 0.9567
16.7753 5.5834 -2.5051 0.9311
15.9462 6.6051 -2.4456 0.9326
15.1055 6.8984 -2.3529 0.9351
11.7449 11.7449 -2.3534 0.9351
9.4732 13.6440 -2.3535 0.9351
8.9802 13.9735 -2.3535 0.9351
8.4757 14.2851 -2.3535 0.9351
7.9604 14.5784 -2.3535 0.9351
6.9000 15.1089 -2.3535 0.9351
2.8191 9.6011 -1.4178 0.9604
4.1074 16.0926 -2.3533 0.9351
2.3635 16.4386 -2.3531 0.9351
1.7752 16.5120 -2.3531 0.9351
1.1847 16.5644 -2.3530 0.9351
0.5927 16.5956 -2.3529 0.9351
0.0000 16.6057 -2.3528 0.9351
-1.7749 16.5088 -2.3526 0.9351
-2.3629 16.4343 -2.3525 0.9351
-2.9478 16.3384 -2.3524 0.9351
-3.5290 16.2225 -2.3523 0.9351
-4.6769 15.9280 -2.3521 0.9351
-5.2422 15.7502 -2.3520 0.9351
-5.8007 15.5523 -2.3519 0.9351
-6.8947 15.0974 -2.3517 0.9351
-4.2352 8.4609 -1.3406 0.9625
-4.6496 8.5151 -1.3747 0.9616
-9.4633 13.6297 -2.3510 0.9352
-9.9432 13.2825 -2.3509 0.9352
-10.4104 12.9185 -2.3508 0.9352
-12.9140 10.4067 -2.3500 0.9352
-13.2764 9.9386 -2.3498 0.9352
-13.6219 9.4578 -2.3497 0.9352
-14.6221 8.6757 -2.4090 0.9336
-15.7861 7.9019 -2.5013 0.9312
-16.3077 6.7549 -2.5010 0.9312
-16.7461 5.5736 -2.5007 0.9312
-16.9334 4.9721 -2.5006 0.9312
-17.0991 4.3643 -2.5004 0.9312
-17.4648 2.5110 -2.5000 0.9312
-17.5976 1.2586 -2.4998 0.9312
15.1610 1.0843 -2.5040 0.9402
15.1132 1.6248 -2.5041 0.9402
15.0462 2.1633 -2.5042 0.9402
14.8546 3.2314 -2.5044 0.9402
10.3508 2.6419 -1.7598 0.9576
10.4755 3.0759 -1.7986 0.9567
13.8302 6.3160 -2.5047 0.9402
12.2818 7.2871 -2.3526 0.9438
11.4331 8.5587 -2.3528 0.9437
10.7937 9.3528 -2.3528 0.9437
10.4532 9.7322 -2.3529 0.9437
9.7324 10.4534 -2.3529 0.9437
8.5594 11.4340 -2.3529 0.9437
8.1459 11.7323 -2.3530 0.9437
7.7219 12.0156 -2.3530 0.9437
7.2881 12.2835 -2.3530 0.9437
6.8450 12.5357 -2.3529 0.9437
3.1884 9.5795 -1.6632 0.9599
2.8206 9.6062 -1.6493 0.9602
3.5320 13.8381 -2.3528 0.9437
1.5265 14.1988 -2.3526 0.9438
1.0187 14.2439 -2.3525 0.9438
0.5097 14.2708 -2.3525 0.9438
0.0000 14.2795 -2.3524 0.9438
-2.0319 14.1324 -2.3521 0.9438
-2.5350 14.0504 -2.3520 0.9438
-3.0347 13.9504 -2.3519 0.9438
-3.5306 13.8327 -2.3518 0.9438
-4.0219 13.6974 -2.3518 0.9438
-4.5081 13.5445 -2.3517 0.9438
-4.9884 13.3745 -2.3516 0.9438
-5.9293 12.9834 -2.3514 0.9438
-4.2357 8.4619 -1.5589 0.9624
-4.6134 8.4489 -1.5858 0.9617
-7.7153 12.0053 -2.3509 0.9438
-8.1385 11.7217 -2.3508 0.9438
-8.9531 11.1102 -2.3506 0.9438
-9.3435 10.7830 -2.3505 0.9438
-10.0880 10.0880 -2.3503 0.9438
-10.7809 9.3416 -2.3500 0.9438
-11.1068 8.9505 -2.3499 0.9438
-12.2543 8.5083 -2.4577 0.9413
-12.7651 8.2036 -2.4997 0.9403
-13.3271 7.2772 -2.5015 0.9403
-13.5777 6.7965 -2.5014 0.9403
-13.8109 6.3072 -2.5012 0.9403
-14.2243 5.3054 -2.5010 0.9403
-14.4039 4.7941 -2.5009 0.9403
-14.5651 4.2767 -2.5007 0.9403
-14.7078 3.7539 -2.5006 0.9403
-14.9367 2.6949 -2.5004 0.9403
-15.0895 1.6223 -2.5002 0.9403
-15.1371 1.0826 -2.5000 0.9403
-15.1654 0.5416 -2.4999 0.9403
13.3194 -0.0000 -2.5035 0.9472
13.3115 0.4754 -2.5036 0.9472
13.2865 0.9503 -2.5037 0.9472
13.2446 1.4239 -2.5038 0.9472
13.1857 1.8958 -2.5039 0.9472
13.1101 2.3653 -2.5040 0.9472
10.3616 2.6446 -2.0100 0.9574
12.7833 3.7535 -2.5042 0.9472
12.6415 4.2075 -2.5043 0.9472
12.4837 4.6562 -2.5043 0.9472
12.3098 5.0989 -2.5044 0.9472
11.9153 5.9644 -2.5045 0.9472
11.4370 6.7859 -2.4996 0.9473
10.8834 6.9943 -2.4317 0.9487
10.2801 7.1376 -2.3523 0.9503
9.4586 8.1960 -2.3524 0.9503
7.8534 9.7455 -2.3525 0.9503
7.1382 10.2810 -2.3525 0.9503
6.7667 10.5292 -2.3525 0.9503
5.6024 11.1921 -2.3525 0.9503
4.0136 8.7886 -1.8160 0.9614
3.6481 8.8072 -1.7918 0.9619
3.2917 8.8254 -1.7705 0.9624
2.8752 11.2647 -2.1852 0.9538
1.9656 10.8946 -2.0808 0.9559
1.3377 12.4426 -2.3522 0.9503
-1.3375 12.4408 -2.3519 0.9503
-2.6595 12.2254 -2.3516 0.9504
-3.5246 12.0037 -2.3515 0.9504
-4.3717 11.7209 -2.3513 0.9504
-4.7870 11.5570 -2.3512 0.9504
-4.2362 8.4628 -1.7788 0.9622
-4.6139 8.4497 -1.8096 0.9616
-6.3821 10.7564 -2.3509 0.9504
-7.1326 10.2729 -2.3507 0.9504
-7.8466 9.7370 -2.3505 0.9504
-8.1888 9.4504 -2.3504 0.9504
-8.5205 9.1517 -2.3503 0.9504
-8.8413 8.8413 -2.3502 0.9504
-9.1509 8.5198 -2.3501 0.9504
-9.6300 8.3445 -2.3951 0.9495
-10.9336 7.5913 -2.5019 0.9473
-11.6808 6.3782 -2.5015 0.9473
-12.4674 4.6501 -2.5011 0.9473
-12.7663 3.7485 -2.5009 0.9473
-12.8914 3.2903 -2.5008 0.9473
-13.0001 2.8280 -2.5007 0.9473
-13.0922 2.3621 -2.5006 0.9473
-13.1677 1.8932 -2.5005 0.9473
-13.2930 0.4747 -2.5002 0.9473
11.8429 -0.0000 -2.5033 0.9527
11.8357 0.4227 -2.5034 0.9527
11.8134 0.8449 -2.5035 0.9527
11.5743 2.5178 -2.5038 0.9527
11.3658 3.3373 -2.5039 0.9527
11.2397 3.7409 -2.5040 0.9527
11.0993 4.1398 -2.5041 0.9527
10.9447 4.5335 -2.5041 0.9527
10.1890 6.0454 -2.5043 0.9527
9.7230 6.7508 -2.5021 0.9528
9.4561 7.0788 -2.4969 0.9529
8.4096 7.2869 -2.3521 0.9555
8.1442 7.5825 -2.3521 0.9555
7.8684 7.8684 -2.3522 0.9555
6.9824 8.6646 -2.3522 0.9555
6.3465 9.1407 -2.3522 0.9555
5.6782 9.5701 -2.3522 0.9555
3.6481 8.8072 -2.0151 0.9618
3.2917 8.8254 -1.9910 0.9622
2.9433 8.8432 -1.9701 0.9626
2.2659 8.8778 -1.9367 0.9632
1.8352 10.1719 -2.1849 0.9586
1.5835 11.0134 -2.3520 0.9555
0.7937 11.0979 -2.3519 0.9555
0.3971 11.1190 -2.3518 0.9555
0.0000 11.1258 -2.3518 0.9555
-0.7937 11.0969 -2.3517 0.9555
-1.5832 11.0115 -2.3515 0.9555
-1.5446 8.5612 -1.8389 0.9651
-1.8240 8.3846 -1.8138 0.9655
-2.7510 10.7783 -2.3513 0.9555
-3.8870 10.4215 -2.3511 0.9555
-4.2564 10.2758 -2.3511 0.9555
-4.2367 8.4638 -2.0007 0.9620
-5.6747 9.5641 -2.3507 0.9556
-6.3420 9.1343 -2.3506 0.9556
-6.6638 8.9017 -2.3505 0.9556
-8.2388 8.2388 -2.4629 0.9535
-9.2166 7.4272 -2.5021 0.9528
-9.4754 7.0932 -2.5020 0.9528
-9.7222 6.7502 -2.5019 0.9528
-9.9565 6.3987 -2.5018 0.9528
-11.0865 4.1350 -2.5012 0.9528
-11.3524 3.3334 -2.5010 0.9528
-11.4637 2.9259 -2.5009 0.9528
-11.5604 2.5148 -2.5008 0.9528
-11.7095 1.6836 -2.5006 0.9528
-11.7617 1.2645 -2.5005 0.9528
-11.7989 0.8439 -2.5004 0.9528
10.6508 -0.0000 -2.5032 0.9572
10.6243 0.7599 -2.5033 0.9572
10.5436 1.5159 -2.5035 0.9572
10.4830 1.8914 -2.5035 0.9572
10.3219 2.6345 -2.5037 0.9572
10.2215 3.0013 -2.5037 0.9572
9.8428 4.0770 -2.5039 0.9572
9.6912 4.4258 -2.5039 0.9572
9.5272 4.7690 -2.5040 0.9572
8.9633 5.7603 -2.5041 0.9572
8.7521 6.0767 -2.5041 0.9572
8.5297 6.3853 -2.5042 0.9572
8.2965 6.6857 -2.5042 0.9572
7.7307 7.1976 -2.4825 0.9575
6.8191 7.3242 -2.3519 0.9597
5.9972 8.0113 -2.3519 0.9597
5.4104 8.4187 -2.3520 0.9597
4.3320 8.6542 -2.2745 0.9610
3.6002 8.6915 -2.2110 0.9621
3.2541 8.7245 -2.1884 0.9625
2.9356 8.8201 -2.1847 0.9625
2.6017 8.8606 -2.1704 0.9628
1.9349 8.8946 -2.1393 0.9633
1.7767 9.8475 -2.3518 0.9597
1.0696 9.9489 -2.3517 0.9597
0.7138 9.9805 -2.3516 0.9597
0.0000 10.0056 -2.3516 0.9597
-0.7138 9.9797 -2.3515 0.9597
-1.0695 9.9477 -2.3514 0.9597
-1.5359 8.5129 -2.0330 0.9651
-1.8173 8.3539 -2.0093 0.9655
-2.8184 9.5985 -2.3511 0.9597
-3.1591 9.4915 -2.3510 0.9597
-3.8279 9.2415 -2.3509 0.9597
-5.1035 8.6015 -2.3506 0.9597
-5.7038 8.2150 -2.3505 0.9597
-6.0704 8.1091 -2.3807 0.9592
-6.5497 8.1277 -2.4532 0.9580
-7.5286 7.5286 -2.5023 0.9572
-7.7922 7.2548 -2.5022 0.9572
-8.5222 6.3796 -2.5019 0.9572
-8.7441 6.0711 -2.5018 0.9572
-9.5178 4.7642 -2.5015 0.9572
-9.6814 4.4214 -2.5014 0.9572
-9.8327 4.0728 -2.5013 0.9572
-10.2107 2.9981 -2.5011 0.9572
-10.3979 2.2619 -2.5009 0.9572
-10.4716 1.8893 -2.5008 0.9572
-10.5320 1.5143 -2.5007 0.9572
9.6433 0.6897 -2.5032 0.9608
9.3687 2.3912 -2.5035 0.9608
9.2776 2.7241 -2.5035 0.9608
8.7961 4.0171 -2.5037 0.9608
8.1354 5.2283 -2.5039 0.9608
7.9437 5.5154 -2.5039 0.9608
7.7419 5.7955 -2.5039 0.9608
7.3088 6.3331 -2.5040 0.9608
7.0782 6.5900 -2.5040 0.9608
6.5789 7.0663 -2.4998 0.9609
5.8984 7.3194 -2.4339 0.9619
4.9106 7.6410 -2.3517 0.9632
4.6347 7.8114 -2.3517 0.9632
4.0656 8.1221 -2.3517 0.9632
3.1741 8.5100 -2.3517 0.9632
2.8683 8.6178 -2.3517 0.9632
2.2361 8.7611 -2.3411 0.9633
1.9095 8.7778 -2.3259 0.9636
0.9708 9.0300 -2.3515 0.9632
0.6479 9.0587 -2.3515 0.9632
-0.3241 9.0756 -2.3513 0.9632
-0.6478 9.0581 -2.3513 0.9632
-0.9707 9.0290 -2.3512 0.9632
-2.2456 8.7981 -2.3510 0.9632
-2.5581 8.7122 -2.3510 0.9632
-4.0638 8.1185 -2.3507 0.9632
-4.7556 8.0152 -2.4131 0.9622
-5.1614 8.0314 -2.4719 0.9613
-5.5006 7.9223 -2.4972 0.9609
-5.7879 7.7317 -2.5006 0.9609
-6.3291 7.3042 -2.5024 0.9609
-7.5243 6.0634 -2.5020 0.9609
-7.7356 5.7908 -2.5019 0.9609
-7.9371 5.5108 -2.5018 0.9609
-8.6395 4.3246 -2.5015 0.9609
-9.1659 3.0507 -2.5012 0.9609
-9.3596 2.3889 -2.5010 0.9609
8.8414 0.0000 -2.5030 0.9639
8.7914 0.9452 -2.5031 0.9639
8.7020 1.5700 -2.5032 0.9639
8.3906 2.7927 -2.5034 0.9639
8.2857 3.0904 -2.5035 0.9639
8.1703 3.3842 -2.5035 0.9639
7.9083 3.9586 -2.5036 0.9639
7.7621 4.2384 -2.5036 0.9639
7.6060 4.5128 -2.5037 0.9639
7.4401 4.7815 -2.5037 0.9639
7.0802 5.3002 -2.5038 0.9639
6.6842 5.7919 -2.5038 0.9639
6.4733 6.0268 -2.5038 0.9639
6.2541 6.2541 -2.5038 0.9639
6.0269 6.4733 -2.5039 0.9639
5.7920 6.6843 -2.5039 0.9639
5.5495 6.8865 -2.5037 0.9639
5.2941 7.0720 -2.5009 0.9639
4.7435 7.3810 -2.4838 0.9642
4.3968 7.4105 -2.4393 0.9648
4.0617 7.4385 -2.3993 0.9654
3.1788 7.6742 -2.3515 0.9661
2.9028 7.7827 -2.3515 0.9661
2.6232 7.8813 -2.3515 0.9661
2.3402 7.9699 -2.3515 0.9661
2.0542 8.0482 -2.3514 0.9661
1.7656 8.1163 -2.3514 0.9661
1.4748 8.1741 -2.3514 0.9661
0.8879 8.2583 -2.3513 0.9661
-0.5925 8.2840 -2.3511 0.9661
-1.1819 8.2203 -2.3511 0.9661
-1.4745 8.1728 -2.3510 0.9661
-2.6253 7.8878 -2.3534 0.9660
-3.2781 7.9141 -2.4250 0.9650
-3.6211 7.9291 -2.4677 0.9644
-3.9470 7.8850 -2.4962 0.9640
-4.2303 7.7471 -2.4988 0.9640
-4.7794 7.4369 -2.5026 0.9639
-5.2975 7.0766 -2.5025 0.9639
-5.5466 6.8829 -2.5024 0.9639
-6.2500 6.2500 -2.5022 0.9639
-6.4689 6.0227 -2.5021 0.9639
-6.8817 5.5456 -2.5020 0.9639
-7.4344 4.7778 -2.5018 0.9639
-8.3833 2.7902 -2.5013 0.9639
-8.4773 2.4892 -2.5012 0.9639
-8.7834 0.9443 -2.5008 0.9639
-8.8279 0.3153 -2.5007 0.9639
8.1373 -0.0000 -2.5029 0.9665
8.1323 0.2904 -2.5029 0.9665
8.1169 0.5805 -2.5030 0.9665
8.0552 1.1582 -2.5031 0.9665
7.9523 1.7299 -2.5032 0.9665
7.8857 2.0127 -2.5032 0.9665
7.8090 2.2929 -2.5033 0.9665
7.7223 2.5702 -2.5033 0.9665
7.0001 4.1533 -2.5035 0.9665
6.5162 4.8779 -2.5036 0.9665
5.3306 6.1518 -2.5037 0.9665
5.1076 6.3382 -2.5037 0.9665
4.8782 6.5164 -2.5037 0.9665
4.6425 6.6864 -2.5037 0.9665
3.8970 7.1368 -2.5011 0.9665
3.6370 7.2657 -2.4991 0.9666
2.7992 7.5049 -2.4637 0.9670
1.3734 7.6123 -2.3792 0.9681
1.0973 7.6318 -2.3715 0.9682
0.8225 7.6507 -2.3668 0.9683
0.0000 7.7051 -2.3699 0.9683
-0.2758 7.7223 -2.3767 0.9682
-1.4050 7.7872 -2.4339 0.9674
-2.2865 7.7869 -2.4962 0.9666
-3.1124 7.5141 -2.5016 0.9665
-3.3803 7.4018 -2.5028 0.9665
-3.8995 7.1414 -2.5027 0.9665
-4.3988 6.8447 -2.5026 0.9665
-4.8757 6.5131 -2.5024 0.9665
-5.1049 6.3348 -2.5024 0.9665
-5.3276 6.1484 -2.5023 0.9665
-5.5435 5.9542 -2.5022 0.9665
-5.7524 5.7524 -2.5022 0.9665
-6.3338 5.1041 -2.5020 0.9665
-6.6814 4.6390 -2.5018 0.9665
-6.8426 4.3974 -2.5018 0.9665
-7.1384 3.8979 -2.5016 0.9665
-7.2728 3.6405 -2.5016 0.9665
-7.5136 3.1122 -2.5014 0.9665
-7.8792 2.0110 -2.5012 0.9665
-7.9458 1.7285 -2.5011 0.9665
-8.0022 1.4437 -2.5010 0.9665
-8.0844 0.8692 -2.5009 0.9665
-8.1101 0.5800 -2.5009 0.9665
-8.1254 0.2902 -2.5008 0.9665
7.5293 -0.0000 -2.5028 0.9688
7.5247 0.2687 -2.5028 0.9688
7.5104 0.5372 -2.5029 0.9688
7.4866 0.8049 -2.5029 0.9688
7.4533 1.0716 -2.5030 0.9688
7.3581 1.6007 -2.5031 0.9688
7.2964 1.8623 -2.5031 0.9688
7.2254 2.1216 -2.5032 0.9688
6.9575 2.8819 -2.5033 0.9688
6.7344 3.3710 -2.5033 0.9688
6.6099 3.6093 -2.5034 0.9688
6.3357 4.0717 -2.5034 0.9688
6.1864 4.2953 -2.5034 0.9688
6.0292 4.5134 -2.5035 0.9688
5.8643 4.7257 -2.5035 0.9688
5.5123 5.1321 -2.5035 0.9688
5.3256 5.3256 -2.5035 0.9688
5.1322 5.5123 -2.5035 0.9688
4.7259 5.8644 -2.5036 0.9688
4.2955 6.1867 -2.5036 0.9688
3.8432 6.4773 -2.5036 0.9688
3.3713 6.7350 -2.5036 0.9688
2.8822 6.9583 -2.5035 0.9688
2.6320 7.0567 -2.5035 0.9688
2.3773 7.1428 -2.5024 0.9688
1.5985 7.3481 -2.4997 0.9688
1.3349 7.3987 -2.4991 0.9688
0.0000 7.5163 -2.4984 0.9688
-0.2683 7.5125 -2.4988 0.9688
-0.5364 7.4996 -2.4993 0.9688
-0.8039 7.4775 -2.4999 0.9688
-1.0706 7.4464 -2.5007 0.9688
-2.3779 7.1443 -2.5029 0.9688
-2.8813 6.9562 -2.5028 0.9688
-3.3701 6.7326 -2.5027 0.9688
-4.0702 6.3333 -2.5025 0.9688
-4.2936 6.1839 -2.5025 0.9688
-4.7236 5.8616 -2.5023 0.9688
-4.9296 5.6891 -2.5023 0.9688
-5.1294 5.5094 -2.5022 0.9688
-5.3227 5.3227 -2.5021 0.9688
-5.5091 5.1292 -2.5021 0.9688
-5.6885 4.9291 -2.5020 0.9688
-6.1824 4.2925 -2.5018 0.9688
-6.7297 3.3686 -2.5016 0.9688
-6.8454 3.1262 -2.5015 0.9688
-7.1399 2.3764 -2.5013 0.9688
-7.2909 1.8609 -2.5012 0.9688
-7.3525 1.5994 -2.5012 0.9688
-7.4475 1.0708 -2.5010 0.9688
-7.5188 0.2685 -2.5009 0.9688
6.9942 0.2498 -2.5028 0.9707
6.8879 1.2427 -2.5029 0.9707
6.6414 2.2104 -2.5031 0.9707
6.2595 3.1333 -2.5032 0.9707
6.1438 3.3548 -2.5033 0.9707
6.0202 3.5719 -2.5033 0.9707
5.4507 4.3925 -2.5034 0.9707
5.1236 4.7702 -2.5034 0.9707
4.9501 4.9501 -2.5034 0.9707
4.7702 5.1236 -2.5034 0.9707
4.3926 5.4509 -2.5034 0.9707
4.1953 5.6042 -2.5034 0.9707
3.7848 5.8892 -2.5034 0.9707
3.1335 6.2600 -2.5034 0.9707
2.6790 6.4676 -2.5034 0.9707
1.7312 6.7828 -2.5034 0.9707
0.7483 6.9599 -2.5033 0.9707
0.4994 6.9821 -2.5032 0.9707
-0.4993 6.9817 -2.5031 0.9707
-1.2427 6.8880 -2.5030 0.9707
-1.9718 6.7154 -2.5029 0.9707
-2.2102 6.6406 -2.5028 0.9707
-2.6782 6.4658 -2.5027 0.9707
-3.1325 6.2580 -2.5026 0.9707
-3.3538 6.1421 -2.5026 0.9707
-3.7833 5.8869 -2.5025 0.9707
-3.9909 5.7480 -2.5024 0.9707
-4.3906 5.4484 -2.5023 0.9707
-4.9475 4.9475 -2.5021 0.9707
-5.1208 4.7677 -2.5021 0.9707
-5.2876 4.5817 -2.5020 0.9707
-5.4477 4.3900 -2.5019 0.9707
-6.1398 3.3526 -2.5017 0.9707
-6.2554 3.1312 -2.5016 0.9707
-6.7112 1.9706 -2.5013 0.9707
-6.7772 1.7298 -2.5013 0.9707
-6.9538 0.7476 -2.5010 0.9707
6.5142 0.4659 -2.5027 0.9724
6.4935 0.6981 -2.5028 0.9724
6.3820 1.3883 -2.5029 0.9724
6.3285 1.6152 -2.5029 0.9724
6.2669 1.8401 -2.5030 0.9724
6.0345 2.4996 -2.5031 0.9724
5.9415 2.7134 -2.5031 0.9724
5.8410 2.9238 -2.5031 0.9724
5.4951 3.5315 -2.5032 0.9724
5.3656 3.7254 -2.5032 0.9724
5.0863 4.0988 -2.5033 0.9724
4.2778 4.9368 -2.5033 0.9724
3.9147 5.2294 -2.5033 0.9724
3.5317 5.4954 -2.5033 0.9724
3.3333 5.6179 -2.5033 0.9724
2.9240 5.8414 -2.5033 0.9724
1.8403 6.2676 -2.5033 0.9724
1.6154 6.3293 -2.5032 0.9724
0.9296 6.4655 -2.5032 0.9724
-0.9295 6.4649 -2.5029 0.9724
-1.1597 6.4275 -2.5029 0.9724
-1.6152 6.3282 -2.5028 0.9724
-2.0624 6.1966 -2.5027 0.9724
-2.7129 5.9404 -2.5026 0.9724
-3.5304 5.4934 -2.5024 0.9724
-3.7241 5.3638 -2.5024 0.9724
-4.0971 5.0842 -2.5023 0.9724
-4.2759 4.9346 -2.5022 0.9724
-4.4492 4.7788 -2.5022 0.9724
-4.6168 4.6168 -2.5021 0.9724
-4.7786 4.4490 -2.5020 0.9724
-4.9342 4.2755 -2.5020 0.9724
-5.2264 3.9125 -2.5019 0.9724
-6.0307 2.4980 -2.5015 0.9724
-6.1933 2.0613 -2.5014 0.9724
-6.3778 1.3874 -2.5012 0.9724
-6.4231 1.1588 -2.5012 0.9724
-6.4892 0.6977 -2.5011 0.9724
-6.5221 0.2329 -2.5010 0.9724
6.1147 0.0000 -2.5026 0.9739
6.1109 0.2182 -2.5026 0.9739
6.0993 0.4362 -2.5027 0.9739
6.0180 1.0858 -2.5028 0.9739
5.9755 1.2999 -2.5028 0.9739
5.9254 1.5124 -2.5029 0.9739
5.8677 1.7229 -2.5029 0.9739
5.8026 1.9313 -2.5029 0.9739
5.7300 2.1372 -2.5030 0.9739
5.5631 2.5406 -2.5030 0.9739
5.3678 2.9310 -2.5031 0.9739
5.2598 3.1208 -2.5031 0.9739
4.4764 4.1677 -2.5032 0.9739
4.1677 4.4764 -2.5032 0.9739
4.0053 4.6223 -2.5032 0.9739
3.8378 4.7624 -2.5032 0.9739
3.6653 4.8963 -2.5032 0.9739
3.4882 5.0240 -2.5032 0.9739
3.1209 5.2601 -2.5032 0.9739
2.9312 5.3681 -2.5032 0.9739
2.7377 5.4693 -2.5032 0.9739
1.7231 5.8684 -2.5032 0.9739
1.5125 5.9261 -2.5032 0.9739
1.3001 5.9763 -2.5031 0.9739
0.8704 6.0537 -2.5031 0.9739
0.4363 6.1002 -2.5030 0.9739
0.2183 6.1119 -2.5030 0.9739
0.0000 6.1157 -2.5030 0.9739
-0.6537 6.0804 -2.5029 0.9739
-1.5123 5.9252 -2.5028 0.9739
-1.9311 5.8020 -2.5027 0.9739
-2.1369 5.7293 -2.5026 0.9739
-2.5401 5.5620 -2.5026 0.9739
-2.7370 5.4677 -2.5025 0.9739
-2.9303 5.3665 -2.5025 0.9739
-3.1199 5.2584 -2.5024 0.9739
-3.4870 5.0222 -2.5023 0.9739
-3.8362 4.7605 -2.5022 0.9739
-4.4743 4.1657 -2.5020 0.9739
-4.6201 4.0033 -2.5020 0.9739
-4.7599 3.8358 -2.5019 0.9739
-4.8937 3.6634 -2.5019 0.9739
-5.0212 3.4863 -2.5018 0.9739
-5.1423 3.3048 -2.5018 0.9739
-5.2569 3.1191 -2.5017 0.9739
-5.3648 2.9294 -2.5017 0.9739
-5.6468 2.3390 -2.5015 0.9739
-5.7266 2.1359 -2.5015 0.9739
-5.8641 1.7219 -2.5014 0.9739
-6.0143 1.0851 -2.5012 0.9739
-6.0490 0.8697 -2.5012 0.9739
-6.1070 0.2181 -2.5010 0.9739
5.7386 0.2050 -2.5026 0.9753
5.7277 0.4097 -2.5026 0.9753
5.7096 0.6138 -2.5027 0.9753
5.6841 0.8172 -2.5027 0.9753
5.6115 1.2207 -2.5028 0.9753
5.5644 1.4202 -2.5028 0.9753
5.4490 1.8136 -2.5029 0.9753
5.3059 2.1978 -2.5029 0.9753
4.8316 3.1051 -2.5030 0.9753
4.4721 3.6038 -2.5031 0.9753
4.0613 4.0613 -2.5031 0.9753
3.9137 4.2037 -2.5031 0.9753
3.7612 4.3407 -2.5031 0.9753
3.6039 4.4722 -2.5031 0.9753
3.4420 4.5980 -2.5031 0.9753
3.2757 4.7179 -2.5031 0.9753
3.1052 4.8318 -2.5031 0.9753
2.7526 5.0410 -2.5031 0.9753
2.5709 5.1360 -2.5031 0.9753
2.1979 5.3063 -2.5031 0.9753
1.8138 5.4496 -2.5031 0.9753
1.2208 5.6121 -2.5031 0.9753
0.8174 5.6848 -2.5030 0.9753
0.6139 5.7103 -2.5030 0.9753
0.4097 5.7285 -2.5030 0.9753
-0.0000 5.7431 -2.5029 0.9753
-0.6139 5.7100 -2.5028 0.9753
-0.8173 5.6843 -2.5028 0.9753
-1.2207 5.6114 -2.5027 0.9753
-1.8134 5.4485 -2.5026 0.9753
-2.0068 5.3802 -2.5026 0.9753
-2.1974 5.3051 -2.5026 0.9753
-2.5702 5.1347 -2.5025 0.9753
-2.9299 4.9380 -2.5024 0.9753
-3.1042 4.8302 -2.5023 0.9753
-3.4408 4.5963 -2.5023 0.9753
-3.6026 4.4705 -2.5022 0.9753
-4.0596 4.0596 -2.5021 0.9753
-4.4700 3.6021 -2.5019 0.9753
-4.7154 3.2740 -2.5018 0.9753
-4.9368 2.9291 -2.5017 0.9753
-5.0381 2.7510 -2.5017 0.9753
-5.1329 2.5694 -2.5016 0.9753
-5.3779 2.0058 -2.5015 0.9753
-5.5071 1.6170 -2.5014 0.9753
-5.5612 1.4194 -2.5014 0.9753
-5.7062 0.6135 -2.5012 0.9753
-5.7243 0.4094 -2.5011 0.9753
5.4063 0.0000 -2.5025 0.9765
5.4030 0.1930 -2.5025 0.9765
5.3208 0.9600 -2.5027 0.9765
5.2832 1.1493 -2.5027 0.9765
5.1879 1.5233 -2.5028 0.9764
5.1303 1.7075 -2.5028 0.9764
4.7458 2.5914 -2.5029 0.9764
4.5489 2.9234 -2.5030 0.9764
4.2104 3.3930 -2.5030 0.9764
3.8237 3.8237 -2.5030 0.9764
3.6848 3.9577 -2.5031 0.9764
3.5412 4.0867 -2.5031 0.9764
3.3931 4.2105 -2.5031 0.9764
3.0840 4.4419 -2.5031 0.9764
2.7593 4.6506 -2.5031 0.9764
2.5916 4.7461 -2.5031 0.9764
2.4205 4.8355 -2.5031 0.9764
2.0694 4.9959 -2.5030 0.9764
1.7077 5.1307 -2.5030 0.9764
1.3373 5.2394 -2.5030 0.9764
1.1494 5.2838 -2.5030 0.9764
0.9601 5.3214 -2.5030 0.9764
0.7695 5.3522 -2.5029 0.9764
0.3857 5.3934 -2.5029 0.9764
-0.0000 5.4071 -2.5029 0.9764
-0.1930 5.4036 -2.5028 0.9764
-0.5780 5.3759 -2.5028 0.9764
-0.7695 5.3518 -2.5027 0.9764
-1.1493 5.2831 -2.5027 0.9765
-1.7074 5.1298 -2.5026 0.9765
-1.8893 5.0655 -2.5025 0.9765
-2.0689 4.9948 -2.5025 0.9765
-2.4199 4.8343 -2.5024 0.9765
-2.7585 4.6492 -2.5024 0.9765
-2.9226 4.5477 -2.5023 0.9765
-3.0831 4.4404 -2.5023 0.9765
-3.2395 4.3275 -2.5022 0.9765
-3.3919 4.2090 -2.5022 0.9765
-3.5399 4.0852 -2.5021 0.9765
-3.8221 3.8221 -2.5020 0.9765
-3.9561 3.6832 -2.5020 0.9765
-4.2086 3.3915 -2.5019 0.9765
-4.3269 3.2391 -2.5019 0.9765
-4.7435 2.5901 -2.5017 0.9765
-4.8328 2.4191 -2.5016 0.9765
-4.9929 2.0681 -2.5016 0.9765
-5.0634 1.8886 -2.5015 0.9765
-5.1275 1.7066 -2.5015 0.9765
-5.2360 1.3364 -2.5014 0.9765
-5.2803 1.1487 -2.5013 0.9765
-5.3897 0.3855 -2.5012 0.9765
5.1016 0.0000 -2.5025 0.9775
4.9854 1.0845 -2.5027 0.9775
4.7806 1.7830 -2.5028 0.9775
4.5627 2.2839 -2.5028 0.9775
4.4783 2.4453 -2.5029 0.9775
4.1913 2.9101 -2.5029 0.9775
4.0848 3.0579 -2.5029 0.9775
3.9731 3.2017 -2.5029 0.9775
3.8563 3.3415 -2.5030 0.9775
3.7346 3.4770 -2.5030 0.9775
3.4771 3.7346 -2.5030 0.9775
3.2018 3.9732 -2.5030 0.9775
2.7587 4.2927 -2.5030 0.9775
2.6038 4.3884 -2.5030 0.9775
1.9527 4.7142 -2.5030 0.9775
1.6114 4.8415 -2.5030 0.9775
1.4376 4.8959 -2.5029 0.9775
1.2619 4.9441 -2.5029 0.9775
1.0846 4.9859 -2.5029 0.9775
0.7262 5.0505 -2.5029 0.9775
0.3640 5.0894 -2.5028 0.9775
-1.4374 4.8952 -2.5026 0.9775
-1.6111 4.8407 -2.5025 0.9775
-1.7829 4.7800 -2.5025 0.9775
-2.4448 4.4774 -2.5024 0.9775
-2.6031 4.3872 -2.5023 0.9775
-2.9093 4.1902 -2.5022 0.9775
-3.2007 3.9719 -2.5022 0.9775
-3.8548 3.3402 -2.5020 0.9775
-3.9715 3.2004 -2.5019 0.9775
-4.1895 2.9088 -2.5018 0.9775
-4.7782 1.7822 -2.5015 0.9775
-4.9411 1.2611 -2.5014 0.9775
-5.0183 0.9054 -2.5013 0.9775
-5.0473 0.7257 -2.5013 0.9775
-5.0861 0.3638 -2.5012 0.9775
-5.0957 0.1820 -2.5012 0.9775
4.8207 0.1722 -2.5025 0.9785
4.7748 0.6865 -2.5026 0.9785
4.7473 0.8565 -2.5026 0.9785
4.7138 1.0254 -2.5026 0.9785
4.6742 1.1930 -2.5026 0.9785
4.6287 1.3591 -2.5027 0.9785
4.1491 2.4618 -2.5028 0.9785
3.8622 2.8912 -2.5029 0.9785
3.4115 3.4115 -2.5029 0.9785
3.1595 3.6462 -2.5029 0.9785
3.0273 3.7567 -2.5029 0.9785
2.7516 3.9631 -2.5029 0.9785
2.6084 4.0588 -2.5029 0.9785
2.4619 4.1493 -2.5029 0.9785
2.3122 4.2345 -2.5029 0.9785
2.0042 4.3886 -2.5029 0.9785
1.6860 4.5204 -2.5029 0.9785
1.1931 4.6747 -2.5029 0.9785
0.6866 4.7753 -2.5028 0.9785
0.5157 4.7968 -2.5028 0.9785
0.3442 4.8121 -2.5028 0.9785
-0.1722 4.8212 -2.5027 0.9785
-0.6865 4.7750 -2.5026 0.9785
-1.3590 4.6285 -2.5025 0.9785
-1.5234 4.5770 -2.5025 0.9785
-1.8459 4.4565 -2.5024 0.9785
-2.3117 4.2335 -2.5023 0.9785
-2.4612 4.1482 -2.5023 0.9785
-2.6077 4.0577 -2.5023 0.9785
-2.7508 3.9619 -2.5022 0.9785
-3.0264 3.7555 -2.5021 0.9785
-3.4103 3.4103 -2.5020 0.9785
-3.5298 3.2864 -2.5020 0.9785
-3.6448 3.1582 -2.5019 0.9785
-3.8607 2.8901 -2.5019 0.9785
-3.9613 2.7504 -2.5018 0.9785
-4.0569 2.6072 -2.5018 0.9785
-4.1473 2.4607 -2.5017 0.9785
-4.3121 2.1585 -2.5017 0.9785
-4.4550 1.8453 -2.5016 0.9785
-4.5179 1.6851 -2.5015 0.9785
-4.5751 1.5227 -2.5015 0.9785
-4.6265 1.3585 -2.5015 0.9785
-4.7115 1.0249 -2.5014 0.9785
-4.7450 0.8561 -2.5013 0.9785
-4.7938 0.5154 -2.5013 0.9785
-4.8183 0.1721 -2.5012 0.9785
4.5429 0.4884 -2.5025 0.9794
4.4648 0.9712 -2.5026 0.9794
4.3355 1.4430 -2.5026 0.9794
4.2813 1.5968 -2.5027 0.9794
4.2216 1.7486 -2.5027 0.9794
4.0862 2.0454 -2.5027 0.9794
4.0106 2.1899 -2.5028 0.9794
3.8442 2.4705 -2.5028 0.9794
3.4535 2.9925 -2.5028 0.9794
3.2313 3.2313 -2.5029 0.9794
3.1139 3.3446 -2.5029 0.9794
2.9925 3.4536 -2.5029 0.9794
2.7386 3.6583 -2.5029 0.9794
2.3318 3.9300 -2.5029 0.9794
2.1900 4.0108 -2.5029 0.9794
1.8983 4.1568 -2.5029 0.9794
1.7488 4.2219 -2.5029 0.9794
1.4431 4.3358 -2.5028 0.9794
1.1301 4.4277 -2.5028 0.9794
0.9713 4.4652 -2.5028 0.9794
0.8113 4.4970 -2.5028 0.9794
0.3260 4.5579 -2.5027 0.9794
0.1631 4.5666 -2.5027 0.9794
0.0000 4.5694 -2.5027 0.9794
-0.3260 4.5577 -2.5026 0.9794
-0.4884 4.5431 -2.5026 0.9794
-0.8113 4.4966 -2.5026 0.9794
-1.1300 4.4272 -2.5025 0.9794
-1.2873 4.3840 -2.5025 0.9794
-1.4429 4.3352 -2.5025 0.9794
-1.5967 4.2809 -2.5024 0.9794
-2.0451 4.0855 -2.5023 0.9794
-2.3312 3.9291 -2.5023 0.9794
-2.7378 3.6572 -2.5022 0.9794
-2.8665 3.5571 -2.5021 0.9794
-2.9916 3.4525 -2.5021 0.9794
-3.5568 2.8663 -2.5019 0.9794
-3.7521 2.6051 -2.5018 0.9794
-3.8427 2.4695 -2.5018 0.9794
-3.9283 2.3308 -2.5017 0.9794
-4.2197 1.7479 -2.5016 0.9794
-4.2794 1.5961 -2.5016 0.9794
-4.3822 1.2867 -2.5015 0.9794
-4.4253 1.1295 -2.5014 0.9794
-4.4627 0.9708 -2.5014 0.9794
-4.4945 0.8109 -2.5014 0.9794
-4.5205 0.6499 -2.5013 0.9794
-4.5407 0.4882 -2.5013 0.9794
-4.5552 0.3258 -2.5013 0.9794
-4.5639 0.1630 -2.5012 0.9794
4.3342 -0.0000 -2.5024 0.9802
4.3315 0.1547 -2.5024 0.9802
4.3233 0.3092 -2.5024 0.9802
4.2903 0.6169 -2.5025 0.9802
4.1128 1.3689 -2.5026 0.9802
4.0614 1.5148 -2.5026 0.9802
4.0047 1.6588 -2.5026 0.9802
3.6467 2.3436 -2.5027 0.9802
3.3754 2.7200 -2.5028 0.9802
3.2761 2.8388 -2.5028 0.9802
3.1727 2.9539 -2.5028 0.9802
2.3437 3.6468 -2.5028 0.9802
2.2120 3.7282 -2.5028 0.9802
2.0775 3.8047 -2.5028 0.9802
1.5149 4.0616 -2.5028 0.9802
1.3690 4.1131 -2.5028 0.9802
1.2213 4.1593 -2.5028 0.9802
0.9214 4.2358 -2.5027 0.9802
0.6169 4.2907 -2.5027 0.9802
0.4634 4.3100 -2.5027 0.9802
0.3092 4.3237 -2.5027 0.9802
0.0000 4.3347 -2.5026 0.9802
-0.4633 4.3098 -2.5026 0.9802
-0.6169 4.2904 -2.5026 0.9802
-1.2211 4.1588 -2.5025 0.9802
-1.3688 4.1125 -2.5024 0.9802
-1.8005 3.9425 -2.5023 0.9802
-1.9400 3.8757 -2.5023 0.9802
-2.0771 3.8039 -2.5023 0.9802
-2.5972 3.4694 -2.5021 0.9802
-2.8380 3.2752 -2.5021 0.9802
-3.4690 2.5969 -2.5019 0.9802
-3.5594 2.4714 -2.5018 0.9802
-3.6453 2.3427 -2.5018 0.9802
-3.7266 2.2111 -2.5017 0.9802
-3.8031 2.0766 -2.5017 0.9802
-4.0031 1.6581 -2.5016 0.9802
-4.0597 1.5142 -2.5016 0.9802
-4.1111 1.3683 -2.5015 0.9802
-4.1981 1.0715 -2.5015 0.9802
-4.2336 0.9210 -2.5014 0.9802
-4.2637 0.7692 -2.5014 0.9802
-4.2884 0.6166 -2.5014 0.9802
-4.3076 0.4631 -2.5013 0.9802
-4.3213 0.3091 -2.5013 0.9802
