ply
format ascii 1.0
element vertex 1354
property float32 x
property float32 y
property float32 z
property float32 I
end_header
28.7210 24.8869 6.7010 0.8570
25.7492 23.9733 6.2035 0.8668
23.9307 23.9307 5.9675 0.8716
18.3414 22.7603 5.1542 0.8881
15.6169 22.4927 4.8283 0.8947
13.8967 21.6236 4.5323 0.9009
12.7560 21.4990 4.4079 0.9034
11.8899 21.7747 4.3746 0.9041
6.9299 20.8211 3.8693 0.9147
5.3267 20.8699 3.7979 0.9162
4.5075 20.7205 3.7390 0.9175
3.6566 20.2673 3.6314 0.9198
2.8303 19.6854 3.5068 0.9224
2.1013 19.5453 3.4662 0.9233
1.4133 19.7610 3.4933 0.9227
0.7061 19.7713 3.4884 0.9228
0.0000 20.1730 3.5570 0.9213
-1.8460 25.8111 4.5628 0.9002
-8.1859 24.5947 4.5706 0.9001
-7.0230 18.8293 3.5435 0.9216
-7.5302 18.1794 3.4696 0.9232
-8.1832 17.9187 3.4734 0.9231
-9.4604 17.3255 3.4807 0.9230
-11.3871 17.7187 3.7139 0.9180
-12.8477 17.1626 3.7802 0.9166
-19.5310 15.7391 4.4229 0.9031
38.6129 26.8094 7.2013 0.8268
34.9991 26.2000 6.6976 0.8378
28.9043 25.0457 5.8591 0.8566
23.9302 23.9302 5.1845 0.8720
9.8636 12.2400 2.4082 0.9384
9.2561 12.3647 2.3662 0.9394
15.6522 22.5434 4.2043 0.8949
11.9240 21.8372 3.8116 0.9042
8.7702 21.1732 3.5109 0.9114
7.6902 20.6182 3.3711 0.9148
6.1457 20.9304 3.3418 0.9155
6.9289 27.1473 4.2921 0.8928
5.9359 27.2868 4.2779 0.8931
3.6860 20.4303 3.1803 0.9194
1.4089 19.6988 3.0254 0.9232
-0.9308 26.0617 3.9951 0.8998
-2.0729 19.2811 2.9708 0.9245
-3.3378 18.5000 2.8798 0.9267
-4.7974 18.7962 2.9718 0.9245
-7.3264 24.9514 3.9838 0.9001
-7.5672 18.2688 3.0293 0.9231
-8.1573 17.8620 3.0082 0.9236
-8.7412 17.4627 2.9916 0.9240
-14.9686 23.2916 4.2414 0.8940
-22.4493 32.3332 6.0301 0.8528
-12.9717 17.3282 3.3160 0.9161
-13.6135 16.8934 3.3237 0.9159
-14.2204 16.4113 3.3267 0.9159
-9.3283 8.6849 1.9525 0.9497
31.0544 25.0252 5.1936 0.8514
28.9020 25.0437 4.9800 0.8570
22.1648 23.8067 4.2357 0.8770
9.2594 12.3691 2.0120 0.9396
12.8343 21.6310 3.2753 0.9035
14.5178 29.0028 4.2235 0.8774
12.9232 28.2978 4.0510 0.8821
7.6898 20.6173 2.8655 0.9151
6.9411 20.8548 2.8622 0.9152
6.1957 21.1008 2.8638 0.9151
6.9286 27.1461 3.6483 0.8931
5.9356 27.2856 3.6362 0.8935
3.7218 20.6284 2.7296 0.9189
2.8301 19.6837 2.5896 0.9229
1.4150 19.7843 2.5829 0.9231
0.7139 19.9885 2.6046 0.9225
0.0000 26.1836 3.4097 0.8998
-0.7070 19.7959 2.5795 0.9232
-2.0776 19.3245 2.5310 0.9246
-4.0567 18.6484 2.4852 0.9259
-7.4665 25.4287 3.4511 0.8986
-6.2147 18.6723 2.5627 0.9237
-9.1223 24.4580 3.3993 0.9001
-7.6022 18.3533 2.5869 0.9230
-14.1580 15.2068 2.7056 0.9196
-19.5437 15.7494 3.2685 0.9037
38.8100 26.9462 5.0735 0.8269
24.0054 24.0054 3.6455 0.8723
22.5657 24.2373 3.5560 0.8753
9.2627 12.3736 1.6597 0.9397
14.0325 21.8349 2.7871 0.9008
12.9225 28.2964 3.3404 0.8824
7.6895 20.6163 2.3628 0.9153
1.4028 19.6137 2.1115 0.9239
0.0000 26.2256 2.8161 0.8999
-0.9480 26.5428 2.8520 0.8987
-3.3375 18.4985 2.0185 0.9272
-4.0401 18.5721 2.0409 0.9264
-4.7040 18.4302 2.0425 0.9263
-7.4662 25.4277 2.8457 0.8989
-9.1374 24.4982 2.8077 0.9002
-8.1225 17.7858 2.0996 0.9244
-8.7405 17.4612 2.0968 0.9245
-10.2957 17.3526 2.1666 0.9220
-14.9712 23.2956 2.9736 0.8946
-13.4598 16.7026 2.3034 0.9173
-14.2191 16.4097 2.3316 0.9164
-14.1588 15.2076 2.2312 0.9198
-9.4524 8.1905 1.3431 0.9509
-20.3459 15.2308 2.7291 0.9028
-25.5385 5.5556 2.8065 0.9002
-28.3249 5.1104 3.0907 0.8907
39.0728 27.1287 4.0267 0.8262
24.0048 24.0048 2.8738 0.8726
19.4536 22.4506 2.5147 0.8876
9.8497 12.2228 1.3288 0.9389
9.2660 12.3780 1.3089 0.9398
16.0706 23.1460 2.3854 0.8930
14.0317 21.8337 2.1970 0.9011
11.7890 21.5899 2.0824 0.9060
8.2279 19.8639 1.8201 0.9173
7.6891 20.6153 1.8626 0.9155
6.9078 20.7547 1.8517 0.9159
6.9280 27.1437 2.3714 0.8936
3.6293 20.1159 1.7304 0.9212
2.1010 19.5420 1.6638 0.9241
-0.9362 26.2130 2.2204 0.9001
-2.0456 19.0272 1.6200 0.9261
-4.0577 18.6532 1.6160 0.9262
-7.3360 24.9842 2.2043 0.9007
-7.4498 17.9855 1.6480 0.9248
-10.3434 17.4328 1.7159 0.9219
-22.5020 32.4091 3.3400 0.8535
-12.9981 17.3635 1.8361 0.9166
-13.5576 16.8240 1.8291 0.9169
-14.1630 15.2121 1.7595 0.9200
-16.2164 16.2164 1.9414 0.9120
41.8741 26.9108 3.0866 0.8192
35.0518 26.2395 2.7151 0.8391
23.9442 23.9442 2.0998 0.8731
22.8267 24.5176 2.0773 0.8744
19.4559 22.4533 1.8423 0.8877
9.8452 12.2171 0.9730 0.9391
9.2693 12.3824 0.9591 0.9399
21.5091 30.9789 2.3386 0.8597
12.8333 21.6293 1.5596 0.9041
14.6959 29.3587 2.0359 0.8767
7.6888 20.6143 1.3643 0.9156
6.9277 27.1424 1.7371 0.8938
3.6289 20.1136 1.2674 0.9214
2.8297 19.6812 1.2330 0.9234
2.1009 19.5412 1.2187 0.9243
0.6981 19.5468 1.2129 0.9246
0.0000 26.0995 1.6184 0.9007
-2.0454 19.0251 1.1866 0.9262
-2.6777 18.6236 1.1667 0.9274
-4.0573 18.6512 1.1836 0.9264
-4.7242 18.5094 1.1846 0.9263
-7.4136 25.2483 1.6318 0.8999
-7.4490 17.9835 1.2070 0.9250
-9.4584 17.3218 1.2238 0.9240
-10.3422 17.4308 1.2568 0.9220
-13.0000 17.3660 1.3452 0.9167
-9.4592 8.1965 0.7761 0.9511
-19.4641 15.6852 1.5501 0.9047
-20.3437 15.2291 1.5758 0.9032
41.8732 26.9102 1.9627 0.8193
34.9038 26.1286 1.7192 0.8398
28.7847 24.9421 1.5018 0.8586
26.2685 24.4569 1.4152 0.8662
22.8935 24.5894 1.3248 0.8742
20.1880 23.2981 1.2156 0.8839
9.8406 12.2114 0.6184 0.9391
9.2726 12.3867 0.6101 0.9399
14.0301 21.8313 1.0233 0.9013
11.8401 21.6835 0.9742 0.9058
14.9151 29.7966 1.3139 0.8751
8.7414 21.1036 0.9007 0.9126
7.6884 20.6134 0.8675 0.9157
6.9061 20.7495 0.8623 0.9162
6.1479 20.9377 0.8605 0.9164
5.9260 27.2414 1.0993 0.8944
2.8296 19.6803 0.7840 0.9235
1.4087 19.6958 0.7786 0.9240
0.6981 19.5446 0.7712 0.9247
-0.9460 26.4890 1.0452 0.8993
-2.0452 19.0231 0.7544 0.9263
-2.6776 18.6228 0.7419 0.9275
-3.3371 18.4962 0.7411 0.9275
-4.7237 18.5074 0.7532 0.9264
-7.4860 25.4950 1.0477 0.8991
-8.1564 17.8601 0.7742 0.9244
-9.4580 17.3211 0.7782 0.9240
-13.0019 17.3685 0.8555 0.9168
-13.5542 16.8198 0.8518 0.9172
-14.2171 16.4074 0.8560 0.9168
-16.2842 16.2842 0.9081 0.9119
-9.3082 8.6662 0.5015 0.9504
-19.4613 15.6829 0.9855 0.9048
-20.3426 15.2283 1.0020 0.9033
28.7783 24.9365 0.6432 0.8587
26.2633 24.4520 0.6062 0.8663
24.0033 24.0033 0.5734 0.8730
22.8940 24.5899 0.5675 0.8742
9.8360 12.2058 0.2648 0.9392
9.2759 12.3911 0.2615 0.9400
14.9143 29.7951 0.5628 0.8752
12.9200 28.2908 0.5254 0.8830
8.7403 21.1009 0.3858 0.9127
7.6880 20.6124 0.3716 0.9158
6.1482 20.9388 0.3686 0.9164
5.9253 27.2381 0.4709 0.8945
1.4085 19.6936 0.3335 0.9241
-2.6774 18.6221 0.3178 0.9275
-4.0564 18.6472 0.3224 0.9265
-7.4857 25.4940 0.4488 0.8992
-8.4252 25.3136 0.4507 0.8988
-9.0814 24.3481 0.4390 0.9013
-7.4473 17.9795 0.3287 0.9251
-8.1555 17.8581 0.3316 0.9245
-8.7390 17.4583 0.3298 0.9249
-10.3398 17.4268 0.3423 0.9221
-14.9292 23.2304 0.4665 0.8954
-13.5526 16.8177 0.3648 0.9172
-14.2165 16.4067 0.3667 0.9168
-15.1120 16.2314 0.3746 0.9151
-16.2821 16.2821 0.3890 0.9120
-19.4585 15.6807 0.4221 0.9049
-20.3415 15.2274 0.4292 0.9033
-14.1151 5.8467 0.2581 0.9407
29.3955 16.0512 -0.1886 0.8746
34.8859 26.1153 -0.2453 0.8400
31.6209 25.4817 -0.2286 0.8501
28.7718 24.9309 -0.2144 0.8587
26.2581 24.4471 -0.2020 0.8663
24.0028 24.0028 -0.1911 0.8730
22.8945 24.5904 -0.1892 0.8742
9.8315 12.2002 -0.0882 0.9392
9.2791 12.3955 -0.0872 0.9399
21.4086 30.8343 -0.2113 0.8606
12.8322 21.6275 -0.1416 0.9043
14.9136 29.7936 -0.1876 0.8752
12.9193 28.2894 -0.1751 0.8830
8.7392 21.0982 -0.1286 0.9127
6.9044 20.7443 -0.1231 0.9163
6.1485 20.9399 -0.1229 0.9164
5.9246 27.2349 -0.1569 0.8945
3.6276 20.1066 -0.1150 0.9215
2.1006 19.5387 -0.1106 0.9244
1.4084 19.6914 -0.1111 0.9241
0.0000 26.0909 -0.1469 0.9009
-0.9460 26.4869 -0.1492 0.8994
-1.9000 26.5654 -0.1499 0.8989
-2.6773 18.6214 -0.1059 0.9275
-3.3368 18.4947 -0.1058 0.9276
-4.0560 18.6452 -0.1074 0.9265
-4.7227 18.5034 -0.1075 0.9265
-7.4854 25.4930 -0.1496 0.8992
-7.4465 17.9775 -0.1096 0.9251
-8.1546 17.8561 -0.1105 0.9245
-14.9275 23.2277 -0.1555 0.8954
-22.4981 32.4034 -0.2221 0.8540
-13.0057 17.3736 -0.1222 0.9169
-14.2158 16.4059 -0.1222 0.9168
-15.1113 16.2306 -0.1249 0.9151
-9.4695 8.2054 -0.0705 0.9511
-19.4557 15.6784 -0.1407 0.9049
29.3493 16.0259 -0.9416 0.8748
39.7603 27.6061 -1.3630 0.8239
34.8769 26.1085 -1.2268 0.8400
31.6139 25.4760 -1.1433 0.8500
26.2529 24.4423 -1.0100 0.8663
24.0023 24.0023 -0.9558 0.8730
9.8270 12.1945 -0.4410 0.9393
9.2824 12.3999 -0.4361 0.9399
21.4081 30.8335 -1.0570 0.8605
14.0278 21.8276 -0.7306 0.9014
12.8319 21.6270 -0.7081 0.9043
11.8350 21.6742 -0.6954 0.9059
14.9128 29.7921 -0.9381 0.8752
7.6873 20.6105 -0.6194 0.9157
6.9035 20.7418 -0.6155 0.9162
6.1489 20.9412 -0.6146 0.9164
6.9265 27.1376 -0.7886 0.8940
5.9239 27.2317 -0.7847 0.8945
2.8293 19.6778 -0.5598 0.9235
2.1006 19.5379 -0.5533 0.9244
1.4082 19.6892 -0.5558 0.9240
-0.9459 26.4858 -0.7463 0.8994
-1.8999 26.5643 -0.7499 0.8989
-3.3367 18.4940 -0.5292 0.9276
-4.0556 18.6432 -0.5372 0.9265
-7.4851 25.4920 -0.7481 0.8991
-9.0794 24.3427 -0.7316 0.9013
-7.4457 17.9755 -0.5479 0.9251
-8.1537 17.8541 -0.5527 0.9245
-8.7383 17.4568 -0.5497 0.9249
-22.4971 32.4020 -1.1107 0.8540
-13.5492 16.8136 -0.6080 0.9172
-14.2151 16.4052 -0.6112 0.9168
-15.1105 16.2299 -0.6244 0.9151
-9.4729 8.2083 -0.3529 0.9511
-19.4529 15.6761 -0.7035 0.9049
-14.1041 5.8421 -0.4299 0.9407
-21.9565 6.4470 -0.6444 0.9125
49.7612 -0.0000 -2.5236 0.8193
49.7672 3.5594 -2.5304 0.8189
40.0768 25.7553 -2.4160 0.8263
23.9549 23.9549 -1.7181 0.8731
20.1741 23.2822 -1.5623 0.8839
9.8224 12.1889 -0.7939 0.9392
9.2857 12.4042 -0.7858 0.9398
21.4076 30.8327 -1.9036 0.8604
13.6756 21.2797 -1.2828 0.9037
12.8315 21.6264 -1.2753 0.9042
8.7369 21.0928 -1.1578 0.9126
6.9027 20.7392 -1.1085 0.9162
6.1493 20.9425 -1.1069 0.9163
5.9232 27.2285 -1.4132 0.8944
1.4080 19.6870 -1.0010 0.9240
0.6977 19.5359 -0.9914 0.9247
-0.9459 26.4847 -1.3440 0.8993
-2.0443 19.0148 -0.9699 0.9263
-3.3365 18.4932 -0.9530 0.9275
-4.7217 18.4994 -0.9683 0.9264
-7.4848 25.4909 -1.3473 0.8991
-8.1528 17.8521 -0.9953 0.9244
-22.4961 32.4006 -2.0004 0.8539
-13.0096 17.3788 -1.1009 0.9167
-13.5475 16.8114 -1.0950 0.9172
-15.1098 16.2291 -1.1245 0.9150
-16.2758 16.2758 -1.1673 0.9119
-42.9227 25.4672 -2.5311 0.8188
-43.7462 23.8872 -2.5277 0.8190
-44.5113 22.2807 -2.5244 0.8193
-45.2171 20.6500 -2.5210 0.8195
-14.0987 5.8399 -0.7739 0.9407
-45.2455 9.8425 -2.3483 0.8307
-45.5056 8.2101 -2.3450 0.8309
-45.7072 6.5717 -2.3418 0.8311
-45.8505 4.9295 -2.3387 0.8314
-45.9614 1.6415 -2.3324 0.8318
34.2226 3.6793 -2.5237 0.8711
34.1001 4.9029 -2.5260 0.8709
32.8284 10.9263 -2.5369 0.8704
29.1480 14.5905 -2.3900 0.8775
28.3184 15.4630 -2.3657 0.8786
28.0733 16.6567 -2.3934 0.8773
27.4798 17.6602 -2.3951 0.8772
26.8497 18.6421 -2.3967 0.8771
26.1838 19.6010 -2.3982 0.8771
24.7483 21.4445 -2.4011 0.8769
23.9805 22.3266 -2.4024 0.8769
23.1806 23.1806 -2.4037 0.8768
20.1111 23.2094 -2.2518 0.8841
9.2890 12.4086 -1.1365 0.9397
18.7374 26.9869 -2.4089 0.8765
13.6763 21.2806 -1.8548 0.9035
7.6866 20.6085 -1.6128 0.9156
6.9018 20.7365 -1.6025 0.9161
6.1496 20.9437 -1.6005 0.9162
6.9258 27.1352 -2.0534 0.8938
2.1004 19.5363 -1.4407 0.9242
1.4079 19.6848 -1.4470 0.9239
0.0000 26.0232 -1.9081 0.9009
-1.8997 26.5622 -1.9526 0.8987
-2.0441 19.0127 -1.4021 0.9262
-2.6770 18.6191 -1.3792 0.9273
-3.3364 18.4925 -1.3778 0.9274
-4.0547 18.6392 -1.3986 0.9263
-4.7212 18.4974 -1.3997 0.9263
-8.4238 25.3095 -1.9558 0.8985
-8.1519 17.8501 -1.4388 0.9243
-8.7375 17.4554 -1.4313 0.9247
-9.4560 17.3174 -1.4467 0.9239
-14.8880 23.1662 -2.0191 0.8954
-18.6068 26.7989 -2.3921 0.8773
-13.5458 16.8094 -1.5829 0.9171
-14.2138 16.4036 -1.5915 0.9166
-9.2884 8.6478 -0.9305 0.9504
-9.4798 8.2143 -0.9197 0.9509
-19.3875 15.6235 -1.8257 0.9050
-20.3371 15.2241 -1.8627 0.9031
-26.5823 18.4564 -2.3728 0.8783
-29.5808 17.5511 -2.5220 0.8711
-32.0776 11.9643 -2.5103 0.8717
-32.4535 10.8016 -2.5079 0.8718
-33.5331 6.0500 -2.4984 0.8723
-33.6958 4.8447 -2.4961 0.8724
-33.8154 3.6356 -2.4937 0.8725
-33.8919 2.4240 -2.4914 0.8726
26.1481 1.8702 -2.5168 0.9000
26.0827 2.8042 -2.5185 0.9000
25.9837 3.7359 -2.5202 0.8999
25.8513 4.6641 -2.5219 0.8998
25.6855 5.5875 -2.5236 0.8998
25.4863 6.5050 -2.5253 0.8997
25.2541 7.4153 -2.5269 0.8996
24.9891 8.3172 -2.5285 0.8996
18.6296 7.7166 -1.9359 0.9222
21.3462 12.6653 -2.3829 0.9051
20.8914 13.4261 -2.3842 0.9050
20.4092 14.1704 -2.3854 0.9050
19.9000 14.8970 -2.3865 0.9049
18.2178 16.9614 -2.3897 0.9048
16.9746 18.2320 -2.3915 0.9047
16.3188 18.8329 -2.3924 0.9047
9.2923 12.4131 -1.4886 0.9396
12.7338 21.4617 -2.3958 0.9046
11.7951 21.6011 -2.3628 0.9058
8.7082 21.0235 -2.1847 0.9126
6.8797 20.6703 -2.0915 0.9162
2.1003 19.5354 -1.8863 0.9241
0.6955 19.4743 -1.8708 0.9247
-0.8911 24.9459 -2.3964 0.9046
-2.0378 18.9542 -1.8302 0.9263
-2.6769 18.6184 -1.8058 0.9272
-3.3363 18.4918 -1.8040 0.9273
-4.7067 18.4407 -1.8271 0.9264
-7.8645 23.6290 -2.3909 0.9048
-7.4213 17.9166 -1.8618 0.9250
-12.9257 17.2668 -2.0707 0.9170
-13.5027 16.7559 -2.0660 0.9172
-15.1084 16.2276 -2.1286 0.9148
-9.2844 8.6441 -1.2179 0.9503
-9.4832 8.2172 -1.2047 0.9508
-19.2251 15.4926 -2.3704 0.9055
-19.7527 14.7867 -2.3688 0.9056
-20.7292 13.3219 -2.3656 0.9057
-21.1768 12.5648 -2.3640 0.9058
-21.9884 11.0066 -2.3607 0.9059
-14.0913 5.8368 -1.4643 0.9406
-23.2642 7.7431 -2.3539 0.9062
-21.5898 6.3393 -2.1602 0.9135
-25.2597 6.4472 -2.5028 0.9005
-25.4554 5.5375 -2.5010 0.9006
-25.8455 2.7787 -2.4956 0.9008
-25.9409 0.9265 -2.4920 0.9009
21.1389 0.0000 -2.5110 0.9184
21.1374 0.7549 -2.5124 0.9183
21.1089 1.5097 -2.5138 0.9183
21.0533 2.2635 -2.5153 0.9182
20.8611 3.7638 -2.5180 0.9182
20.7246 4.5084 -2.5194 0.9181
18.6847 7.7395 -2.4023 0.9218
19.3509 8.8373 -2.5270 0.9179
18.3200 10.8698 -2.5304 0.9178
16.4778 11.4407 -2.3829 0.9224
16.0351 12.0037 -2.3793 0.9225
14.6758 13.6637 -2.3819 0.9224
14.1833 14.1833 -2.3826 0.9224
10.8299 11.6322 -1.8879 0.9380
9.9034 11.4291 -1.7964 0.9409
9.8088 12.1719 -1.8569 0.9390
8.4063 13.0805 -1.8470 0.9393
10.2529 17.2804 -2.3868 0.9223
9.6312 17.6383 -2.3872 0.9222
8.9969 17.9735 -2.3875 0.9222
8.3507 18.2856 -2.3879 0.9222
7.6936 18.5740 -2.3881 0.9222
7.0264 18.8384 -2.3883 0.9222
6.3499 19.0784 -2.3885 0.9222
2.7466 9.3541 -1.1580 0.9615
4.2744 19.6493 -2.3886 0.9222
3.5703 19.7889 -2.3886 0.9222
2.8288 19.6745 -2.3611 0.9231
2.1002 19.5346 -2.3338 0.9239
1.4032 19.6198 -2.3365 0.9238
0.6955 19.4721 -2.3145 0.9245
-4.7062 18.4387 -2.2605 0.9262
-6.3348 19.0331 -2.3828 0.9224
-7.0079 18.7889 -2.3820 0.9224
-7.4205 17.9146 -2.3033 0.9249
-8.1249 17.7910 -2.3233 0.9242
-9.4552 17.3159 -2.3436 0.9236
-10.8171 16.8317 -2.3767 0.9226
-12.5376 15.5582 -2.3735 0.9227
-9.4867 8.2202 -1.4911 0.9507
-15.9393 11.9321 -2.3651 0.9229
-16.3462 11.3494 -2.3638 0.9230
-16.7316 10.7528 -2.3625 0.9230
-17.7552 8.8876 -2.3585 0.9231
-18.0507 8.2435 -2.3572 0.9232
-13.9669 5.7853 -1.7958 0.9409
-18.5713 6.9268 -2.3545 0.9233
-18.7958 6.2558 -2.3531 0.9233
-18.9960 5.5777 -2.3517 0.9233
-20.5746 4.4757 -2.5011 0.9187
-20.7091 3.7363 -2.4997 0.9187
-20.8171 2.9931 -2.4982 0.9188
-20.8986 2.2468 -2.4968 0.9188
-20.9533 1.4986 -2.4953 0.9189
17.6829 1.2647 -2.5119 0.9309
17.6347 1.8959 -2.5131 0.9309
17.0562 5.0081 -2.5187 0.9307
16.6695 6.2174 -2.5208 0.9306
16.1965 7.3967 -2.5229 0.9306
15.3303 9.0959 -2.5257 0.9305
14.2674 10.6804 -2.5252 0.9305
11.8636 11.8636 -2.3772 0.9345
9.9027 11.4284 -2.1426 0.9407
9.0609 11.2439 -2.0460 0.9433
8.5683 12.3408 -2.1287 0.9411
8.4061 13.0802 -2.2030 0.9391
6.9825 15.2894 -2.3816 0.9343
6.4329 15.5303 -2.3818 0.9343
3.0475 9.1561 -1.3673 0.9618
2.6588 9.0551 -1.3372 0.9626
4.1580 16.2908 -2.3822 0.9343
3.5739 16.4288 -2.3822 0.9343
2.9852 16.5457 -2.3822 0.9343
0.6000 16.7980 -2.3816 0.9343
0.0000 16.8070 -2.3814 0.9344
-1.1987 16.7599 -2.3808 0.9344
-1.7958 16.7038 -2.3804 0.9344
-2.9818 16.5272 -2.3795 0.9344
-3.5691 16.4069 -2.3790 0.9344
-4.7283 16.1031 -2.3780 0.9344
-5.8620 15.7166 -2.3767 0.9345
-7.5018 14.9866 -2.3746 0.9345
-9.0516 14.0846 -2.3722 0.9346
-9.5452 13.7476 -2.3714 0.9346
-10.0260 13.3932 -2.3705 0.9346
-10.9474 12.6340 -2.3686 0.9347
-11.8111 11.8111 -2.3667 0.9347
-9.2764 8.6367 -1.7958 0.9501
-13.9171 5.7647 -2.1344 0.9410
-17.2495 3.7524 -2.5012 0.9312
-17.5260 1.8842 -2.4976 0.9313
-17.5987 0.6285 -2.4951 0.9313
15.2001 1.0871 -2.5104 0.9401
15.0959 2.1705 -2.5125 0.9400
14.9142 3.2444 -2.5144 0.9400
14.7945 3.7761 -2.5154 0.9400
14.6558 4.3033 -2.5163 0.9400
14.4981 4.8254 -2.5172 0.9399
14.3218 5.3418 -2.5181 0.9399
13.9138 6.3543 -2.5199 0.9399
13.6827 6.8491 -2.5207 0.9399
13.4339 7.3355 -2.5215 0.9398
12.8843 8.2802 -2.5231 0.9398
11.0555 10.2930 -2.4884 0.9406
10.1869 10.1869 -2.3733 0.9433
9.8189 10.5463 -2.3738 0.9433
8.9422 11.0966 -2.3477 0.9439
8.6266 11.5238 -2.3714 0.9433
7.7974 12.1329 -2.3759 0.9432
7.3603 12.4052 -2.3763 0.9432
5.3663 9.8276 -1.8446 0.9556
5.9940 13.1251 -2.3770 0.9432
5.5222 13.3317 -2.3772 0.9432
5.0431 13.5212 -2.3774 0.9432
2.6589 9.0554 -1.5548 0.9625
2.5625 14.2030 -2.3776 0.9432
1.0295 14.3936 -2.3772 0.9432
0.5150 14.4201 -2.3771 0.9432
0.0000 14.4280 -2.3769 0.9432
-0.5149 14.4173 -2.3766 0.9432
-1.0290 14.3881 -2.3763 0.9432
-3.5645 13.9655 -2.3744 0.9432
-5.0336 13.4957 -2.3729 0.9433
-5.9806 13.0957 -2.3717 0.9433
-6.4425 12.8705 -2.3711 0.9433
-6.8959 12.6288 -2.3704 0.9433
-7.7746 12.0976 -2.3690 0.9434
-8.6124 11.5049 -2.3675 0.9434
-9.0146 11.1865 -2.3667 0.9434
-8.7792 10.1317 -2.2085 0.9471
-8.4609 8.4609 -1.9712 0.9527
-10.3949 7.2173 -2.0847 0.9500
-12.0458 7.7414 -2.3589 0.9436
-12.3095 7.3036 -2.3579 0.9436
-12.5572 6.8568 -2.3570 0.9436
-12.7887 6.4016 -2.3560 0.9437
-14.7179 3.7565 -2.5023 0.9403
-14.8363 3.2275 -2.5013 0.9403
-15.0773 1.6210 -2.4981 0.9404
-15.1192 1.0814 -2.4971 0.9404
-15.1419 0.5408 -2.4961 0.9404
13.3164 0.9524 -2.5094 0.9471
13.2786 1.4276 -2.5102 0.9471
13.2238 1.9013 -2.5111 0.9471
13.1521 2.3729 -2.5120 0.9471
13.0634 2.8418 -2.5128 0.9470
12.9580 3.3073 -2.5137 0.9470
12.8359 3.7689 -2.5145 0.9470
12.6972 4.2260 -2.5153 0.9470
12.1839 5.5642 -2.5176 0.9469
11.7627 6.4229 -2.5191 0.9469
11.2806 7.2496 -2.5204 0.9469
11.0174 7.6495 -2.5211 0.9469
10.1438 8.7896 -2.5228 0.9468
9.8257 9.1480 -2.5234 0.9468
9.1289 9.8051 -2.5181 0.9469
8.4657 9.7700 -2.4299 0.9487
5.3387 9.7771 -2.0938 0.9557
5.2459 11.4869 -2.3736 0.9499
4.8329 11.6677 -2.3738 0.9499
4.4136 11.8334 -2.3739 0.9499
2.6589 9.0556 -1.7739 0.9623
2.6849 12.3421 -2.3741 0.9499
2.2426 12.4299 -2.3741 0.9499
1.7975 12.5017 -2.3740 0.9499
1.3501 12.5574 -2.3739 0.9499
0.0000 12.6273 -2.3734 0.9499
-0.9006 12.5927 -2.3730 0.9499
-2.2407 12.4195 -2.3721 0.9499
-3.1200 12.2241 -2.3713 0.9499
-4.4063 11.8138 -2.3700 0.9500
-5.2356 11.4644 -2.3689 0.9500
-6.0373 11.0564 -2.3678 0.9500
-7.1789 10.3396 -2.3659 0.9501
-7.5413 10.0740 -2.3653 0.9501
-7.8937 9.7955 -2.3646 0.9501
-8.2359 9.5047 -2.3639 0.9501
-9.1912 7.4067 -2.2187 0.9531
-9.7136 7.2715 -2.2807 0.9518
-10.2668 7.1283 -2.3493 0.9504
-10.5524 6.7816 -2.3577 0.9502
-10.7839 6.3984 -2.3569 0.9502
-11.0015 6.0073 -2.3560 0.9503
-11.4499 5.7314 -2.4067 0.9492
-12.3156 5.1013 -2.5056 0.9472
-12.4871 4.6575 -2.5050 0.9472
-12.7782 3.7520 -2.5032 0.9472
-12.8992 3.2923 -2.5023 0.9473
-13.0036 2.8288 -2.5013 0.9473
-13.0915 2.3620 -2.5004 0.9473
-13.2544 0.9480 -2.4977 0.9474
-13.2749 0.4741 -2.4968 0.9474
11.8371 0.8466 -2.5085 0.9526
11.8030 1.2690 -2.5093 0.9526
11.7538 1.6900 -2.5101 0.9526
11.5162 2.9393 -2.5123 0.9526
11.4073 3.3495 -2.5131 0.9526
11.2837 3.7556 -2.5138 0.9525
11.1456 4.1571 -2.5145 0.9525
10.9931 4.5535 -2.5152 0.9525
10.8264 4.9443 -2.5158 0.9525
10.4514 5.7069 -2.5171 0.9525
10.0225 6.4410 -2.5183 0.9525
9.7884 6.7962 -2.5189 0.9524
9.2826 7.4804 -2.5200 0.9524
9.0115 7.8085 -2.5205 0.9524
8.4346 8.4346 -2.5214 0.9524
8.1296 8.7318 -2.5218 0.9524
7.8140 9.0178 -2.5222 0.9524
7.0947 9.4774 -2.5025 0.9528
6.0618 9.4324 -2.3701 0.9552
5.7219 9.6438 -2.3703 0.9552
5.3097 9.7240 -2.3419 0.9557
5.0202 10.0292 -2.3707 0.9552
4.6594 10.2027 -2.3709 0.9552
3.9201 10.5102 -2.3712 0.9552
2.7744 10.8699 -2.3713 0.9552
2.3846 10.9620 -2.3713 0.9552
1.9918 11.0400 -2.3713 0.9552
1.5965 11.1038 -2.3713 0.9552
0.8002 11.1885 -2.3711 0.9552
0.4003 11.2093 -2.3709 0.9552
0.0000 11.2157 -2.3708 0.9552
-0.4003 11.2076 -2.3706 0.9552
-0.8000 11.1852 -2.3704 0.9552
-1.1986 11.1483 -2.3701 0.9552
-1.5955 11.0972 -2.3698 0.9552
-1.9903 11.0318 -2.3695 0.9552
-2.7715 10.8586 -2.3689 0.9552
-3.5379 10.6297 -2.3681 0.9552
-3.9144 10.4948 -2.3677 0.9552
-4.2856 10.3465 -2.3672 0.9552
-6.0481 9.4110 -2.3647 0.9553
-6.3786 9.1869 -2.3641 0.9553
-7.3184 8.4459 -2.3623 0.9553
-7.8980 7.8980 -2.3610 0.9554
-8.1726 7.6089 -2.3603 0.9554
-8.9312 6.6858 -2.3582 0.9554
-9.5287 6.1238 -2.3943 0.9547
-10.0980 5.9914 -2.4820 0.9531
-10.6061 5.3090 -2.5071 0.9527
-10.7853 4.9255 -2.5063 0.9527
-11.2391 3.7407 -2.5038 0.9527
-11.4698 2.9275 -2.5022 0.9528
-11.5631 2.5154 -2.5014 0.9528
-11.7054 1.6830 -2.4997 0.9528
-11.7542 1.2637 -2.4989 0.9528
-11.7880 0.8431 -2.4981 0.9528
-11.8067 0.4217 -2.4973 0.9528
10.6607 0.3808 -2.5071 0.9571
10.6124 1.1410 -2.5085 0.9571
10.5098 1.8962 -2.5099 0.9571
10.2550 3.0112 -2.5119 0.9570
10.1436 3.3761 -2.5126 0.9570
9.7318 4.4444 -2.5144 0.9570
9.5691 4.7900 -2.5150 0.9570
9.3942 5.1296 -2.5156 0.9570
9.2071 5.4628 -2.5161 0.9570
9.0082 5.7892 -2.5166 0.9570
8.7976 6.1083 -2.5172 0.9569
8.5757 6.4197 -2.5176 0.9569
8.0988 7.0177 -2.5186 0.9569
7.8445 7.3035 -2.5190 0.9569
7.3058 7.8470 -2.5198 0.9569
7.0221 8.1039 -2.5202 0.9569
6.7293 8.3505 -2.5205 0.9569
6.4277 8.5864 -2.5208 0.9569
5.7902 9.0096 -2.5170 0.9569
5.4223 9.1389 -2.4975 0.9573
4.9448 9.0558 -2.4249 0.9585
4.5111 9.0120 -2.3686 0.9594
3.5225 9.4442 -2.3690 0.9594
3.0497 9.1629 -2.2696 0.9611
2.4929 9.7672 -2.3691 0.9594
1.7898 9.9201 -2.3691 0.9594
1.4346 9.9775 -2.3691 0.9594
1.0775 10.0220 -2.3690 0.9594
0.3597 10.0724 -2.3688 0.9594
0.0000 10.0782 -2.3686 0.9594
-0.7189 10.0510 -2.3682 0.9594
-1.0770 10.0180 -2.3680 0.9594
-2.8369 9.6617 -2.3666 0.9595
-3.1795 9.5528 -2.3662 0.9595
-3.5178 9.4317 -2.3658 0.9595
-3.8516 9.2986 -2.3654 0.9595
-4.1803 9.1535 -2.3650 0.9595
-4.8208 8.8287 -2.3641 0.9595
-5.4361 8.4588 -2.3631 0.9595
-6.5786 7.5921 -2.3610 0.9596
-7.1000 7.1000 -2.3598 0.9596
-7.3470 6.8403 -2.3592 0.9596
-7.5845 6.5720 -2.3586 0.9596
-8.4506 6.3260 -2.4809 0.9576
-9.1774 5.4452 -2.5080 0.9571
-9.3633 5.1127 -2.5073 0.9571
-9.5370 4.7739 -2.5066 0.9571
-9.6986 4.4292 -2.5058 0.9571
-10.2182 3.0003 -2.5029 0.9572
-10.4000 2.2624 -2.5014 0.9572
-10.6037 0.7584 -2.4985 0.9573
-10.6209 0.3793 -2.4977 0.9573
9.6786 -0.0000 -2.5060 0.9608
9.6306 1.0354 -2.5079 0.9608
9.4718 2.0605 -2.5098 0.9607
9.3051 2.7322 -2.5110 0.9607
9.2038 3.0633 -2.5116 0.9607
8.9659 3.7138 -2.5127 0.9607
8.3530 4.9561 -2.5148 0.9607
8.1724 5.2520 -2.5153 0.9607
7.9812 5.5414 -2.5157 0.9606
7.5681 6.0988 -2.5166 0.9606
6.6272 7.1181 -2.5181 0.9606
6.3697 7.3510 -2.5184 0.9606
6.1040 7.5746 -2.5187 0.9606
5.8304 7.7885 -2.5190 0.9606
5.2610 8.1863 -2.5195 0.9606
4.9659 8.3696 -2.5198 0.9606
3.6383 8.7836 -2.4616 0.9615
2.8873 8.6749 -2.3672 0.9629
1.9435 8.9341 -2.3673 0.9629
1.6234 8.9977 -2.3673 0.9629
0.9773 9.0902 -2.3672 0.9629
0.3263 9.1359 -2.3670 0.9629
0.0000 9.1413 -2.3668 0.9629
-0.3262 9.1348 -2.3667 0.9629
-0.6520 9.1167 -2.3665 0.9629
-1.3005 9.0453 -2.3661 0.9629
-2.2592 8.8515 -2.3653 0.9630
-2.5734 8.7641 -2.3650 0.9630
-2.8842 8.6655 -2.3647 0.9630
-4.3734 8.0093 -2.3628 0.9630
-4.9318 7.6740 -2.3619 0.9630
-5.4645 7.2997 -2.3609 0.9630
-7.5463 6.0812 -2.5093 0.9607
-7.7584 5.8079 -2.5093 0.9607
-7.9588 5.5259 -2.5087 0.9608
-8.1489 5.2370 -2.5080 0.9608
-8.8022 4.0198 -2.5054 0.9608
-9.0617 3.3798 -2.5041 0.9608
-9.1741 3.0534 -2.5034 0.9608
-9.2748 2.7233 -2.5028 0.9608
-9.5981 1.0319 -2.4994 0.9609
-9.6421 0.3444 -2.4981 0.9609
8.8472 0.3160 -2.5062 0.9639
8.8324 0.6317 -2.5068 0.9639
8.8063 0.9468 -2.5074 0.9638
8.7689 1.2608 -2.5079 0.9638
8.5078 2.4981 -2.5102 0.9638
8.3114 3.1000 -2.5112 0.9638
8.0723 3.6865 -2.5122 0.9638
7.9371 3.9730 -2.5127 0.9638
7.7917 4.2546 -2.5132 0.9638
7.4710 4.8013 -2.5141 0.9638
7.2961 5.0658 -2.5145 0.9637
7.1118 5.3238 -2.5149 0.9637
6.7159 5.8194 -2.5157 0.9637
6.5049 6.0562 -2.5160 0.9637
6.2854 6.2854 -2.5164 0.9637
5.8224 6.7194 -2.5170 0.9637
5.5795 6.9237 -2.5173 0.9637
5.3294 7.1192 -2.5175 0.9637
5.0724 7.3056 -2.5178 0.9637
4.8088 7.4826 -2.5180 0.9637
4.5390 7.6501 -2.5182 0.9637
3.9822 7.9555 -2.5185 0.9637
3.6959 8.0930 -2.5187 0.9637
3.1069 8.3299 -2.5168 0.9637
2.8047 8.4269 -2.5142 0.9638
2.4997 8.5134 -2.5118 0.9638
2.1647 8.4813 -2.4780 0.9643
1.5087 8.3620 -2.4054 0.9653
1.1939 8.3040 -2.3750 0.9657
0.2982 8.3505 -2.3655 0.9659
-0.5960 8.3330 -2.3650 0.9659
-1.1887 8.2679 -2.3647 0.9659
-1.7752 8.1604 -2.3642 0.9659
-2.3523 8.0112 -2.3637 0.9659
-2.9171 7.8209 -2.3630 0.9659
-3.1939 7.7108 -2.3627 0.9659
-4.2696 7.1961 -2.3688 0.9658
-4.5805 7.1274 -2.3985 0.9654
-4.8993 7.0563 -2.4319 0.9649
-5.7993 6.6927 -2.5070 0.9639
-6.2715 6.2715 -2.5108 0.9638
-6.7001 5.8057 -2.5098 0.9638
-6.9015 5.5616 -2.5092 0.9638
-7.7704 4.2430 -2.5063 0.9639
-8.0494 3.6761 -2.5051 0.9639
-8.1736 3.3856 -2.5045 0.9639
-8.3774 2.7883 -2.4995 0.9640
-8.4824 2.4907 -2.5027 0.9639
-8.5638 2.1858 -2.5021 0.9639
-8.6342 1.8783 -2.5015 0.9639
-8.6936 1.5685 -2.5008 0.9639
-8.7791 0.9439 -2.4996 0.9640
-8.8051 0.6298 -2.4990 0.9640
-8.8198 0.3150 -2.4984 0.9640
8.1280 0.5813 -2.5064 0.9665
8.1038 0.8712 -2.5069 0.9665
8.0244 1.4478 -2.5080 0.9665
7.9692 1.7336 -2.5085 0.9664
7.7429 2.5771 -2.5100 0.9664
7.5422 3.1241 -2.5109 0.9664
7.1688 3.9145 -2.5123 0.9664
7.0257 4.1685 -2.5127 0.9664
6.8735 4.4174 -2.5131 0.9664
6.5429 4.8979 -2.5139 0.9664
6.3648 5.1291 -2.5142 0.9664
6.1785 5.3537 -2.5146 0.9664
5.7823 5.7823 -2.5152 0.9664
5.3563 6.1815 -2.5158 0.9663
5.1328 6.3694 -2.5160 0.9663
4.9027 6.5492 -2.5163 0.9663
4.1755 7.0374 -2.5169 0.9663
3.9219 7.1824 -2.5170 0.9663
3.6632 7.3182 -2.5172 0.9663
3.3999 7.4447 -2.5173 0.9663
2.5849 7.7662 -2.5176 0.9663
2.0243 7.9311 -2.5176 0.9663
1.4516 8.0459 -2.5147 0.9664
1.1628 8.0871 -2.5130 0.9664
0.8728 8.1184 -2.5114 0.9664
0.5822 8.1398 -2.5100 0.9664
0.2892 8.0979 -2.4923 0.9667
0.0000 8.0427 -2.4738 0.9669
-1.6775 7.7111 -2.4272 0.9675
-1.9537 7.6546 -2.4299 0.9675
-3.3603 7.3580 -2.4880 0.9667
-4.1616 7.0140 -2.5085 0.9664
-4.6562 6.7063 -2.5111 0.9664
-6.6967 4.6496 -2.5076 0.9665
-6.8570 4.4067 -2.5070 0.9665
-7.1508 3.9046 -2.5060 0.9665
-7.4078 3.3830 -2.5049 0.9665
-7.5222 3.1158 -2.5043 0.9665
-7.7218 2.5701 -2.5032 0.9665
-7.8820 2.0118 -2.5020 0.9665
-7.9470 1.7288 -2.5015 0.9665
-8.0018 1.4437 -2.5009 0.9665
-8.0464 1.1569 -2.5003 0.9666
-8.0808 0.8688 -2.4998 0.9666
7.5360 0.0000 -2.5050 0.9687
7.5327 0.2690 -2.5055 0.9687
7.5199 0.5378 -2.5060 0.9687
7.4974 0.8060 -2.5065 0.9687
7.4653 1.0733 -2.5070 0.9687
7.4237 1.3394 -2.5075 0.9687
7.3725 1.6038 -2.5080 0.9687
7.3120 1.8663 -2.5085 0.9687
7.2420 2.1265 -2.5089 0.9687
6.9769 2.8899 -2.5102 0.9687
6.7552 3.3814 -2.5111 0.9687
6.6313 3.6210 -2.5115 0.9687
6.4988 3.8559 -2.5119 0.9686
6.3580 4.0860 -2.5122 0.9686
6.2090 4.3110 -2.5126 0.9686
5.5352 5.1534 -2.5139 0.9686
5.3483 5.3483 -2.5142 0.9686
5.1546 5.5364 -2.5145 0.9686
4.5345 6.0574 -2.5152 0.9686
4.3158 6.2159 -2.5154 0.9686
3.8619 6.5088 -2.5157 0.9686
3.6273 6.6429 -2.5159 0.9686
3.3881 6.7685 -2.5160 0.9686
3.1445 6.8855 -2.5161 0.9686
2.8968 6.9936 -2.5162 0.9686
1.8722 7.3352 -2.5164 0.9686
1.6092 7.3974 -2.5164 0.9686
1.3441 7.4500 -2.5164 0.9686
0.2702 7.5647 -2.5162 0.9686
-0.8084 7.5192 -2.5138 0.9686
-1.0760 7.4841 -2.5133 0.9686
-1.3423 7.4399 -2.5130 0.9686
-2.1297 7.2530 -2.5127 0.9686
-2.3874 7.1729 -2.5129 0.9686
-3.1410 6.8778 -2.5134 0.9686
-3.3840 6.7605 -2.5130 0.9686
-3.6227 6.6345 -2.5127 0.9686
-3.8566 6.5000 -2.5123 0.9686
-4.0856 6.3573 -2.5120 0.9686
-4.3092 6.2065 -2.5116 0.9687
-4.5273 6.0477 -2.5112 0.9687
-4.7395 5.8813 -2.5108 0.9687
-5.3382 5.3383 -2.5095 0.9687
-5.7034 4.9420 -2.5086 0.9687
-5.8751 4.7344 -2.5081 0.9687
-6.0392 4.5209 -2.5076 0.9687
-6.1955 4.3016 -2.5071 0.9687
-6.3438 4.0769 -2.5066 0.9687
-6.4840 3.8471 -2.5061 0.9687
-6.6158 3.6125 -2.5056 0.9687
-6.7392 3.3734 -2.5051 0.9687
-6.8539 3.1301 -2.5046 0.9687
-7.0568 2.6321 -2.5036 0.9688
-7.2932 1.8615 -2.5020 0.9688
6.9680 0.7492 -2.5062 0.9707
6.8517 1.4905 -2.5075 0.9707
6.7954 1.7344 -2.5080 0.9706
6.5743 2.4521 -2.5092 0.9706
6.3847 2.9158 -2.5100 0.9706
6.2775 3.1423 -2.5104 0.9706
6.1623 3.3648 -2.5108 0.9706
5.9082 3.7970 -2.5115 0.9706
5.7697 4.0059 -2.5118 0.9706
5.3104 4.6014 -2.5128 0.9706
4.9696 4.9696 -2.5133 0.9706
4.7896 5.1444 -2.5136 0.9706
4.6033 5.3125 -2.5138 0.9706
4.0101 5.7756 -2.5144 0.9706
3.1480 6.2890 -2.5150 0.9706
2.2213 6.6738 -2.5153 0.9706
1.9817 6.7490 -2.5154 0.9706
1.4952 6.8732 -2.5154 0.9706
1.0010 6.9622 -2.5153 0.9706
0.5018 7.0156 -2.5152 0.9706
0.0000 7.0330 -2.5150 0.9706
-0.2510 7.0281 -2.5149 0.9706
-0.7517 6.9915 -2.5146 0.9706
-1.2483 6.9191 -2.5143 0.9706
-1.9803 6.7443 -2.5136 0.9706
-2.2195 6.6686 -2.5134 0.9706
-2.4559 6.5845 -2.5131 0.9706
-3.1446 6.2820 -2.5122 0.9706
-3.5838 6.0401 -2.5116 0.9706
-4.0044 5.7675 -2.5109 0.9706
-5.1340 4.7799 -2.5085 0.9706
-5.7580 3.9978 -2.5067 0.9707
-5.8959 3.7891 -2.5063 0.9707
-6.1489 3.3576 -2.5054 0.9707
-6.4689 2.6795 -2.5039 0.9707
-6.5592 2.4465 -2.5034 0.9707
-6.7792 1.7303 -2.5020 0.9707
-6.8826 1.2418 -2.5010 0.9707
-6.9212 0.9951 -2.5005 0.9707
-6.9719 0.4986 -2.4996 0.9707
6.5356 0.0000 -2.5046 0.9724
6.5326 0.2333 -2.5050 0.9724
6.5213 0.4664 -2.5055 0.9724
6.5016 0.6990 -2.5059 0.9724
6.4736 0.9308 -2.5063 0.9724
6.3928 1.3907 -2.5071 0.9724
6.3402 1.6182 -2.5076 0.9724
6.1337 2.2878 -2.5087 0.9723
6.0491 2.5056 -2.5091 0.9723
5.8566 2.9316 -2.5098 0.9723
5.7490 3.1392 -2.5102 0.9723
5.1035 4.1126 -2.5117 0.9723
4.9540 4.2927 -2.5120 0.9723
4.7981 4.4672 -2.5123 0.9723
4.6361 4.6361 -2.5125 0.9723
4.4681 4.7990 -2.5128 0.9723
4.1150 5.1064 -2.5132 0.9723
3.5463 5.5182 -2.5137 0.9723
3.3473 5.6416 -2.5139 0.9723
2.9366 5.8666 -2.5141 0.9723
2.5108 6.0616 -2.5143 0.9723
2.2929 6.1475 -2.5144 0.9723
1.8486 6.2956 -2.5145 0.9723
0.9338 6.4946 -2.5144 0.9723
0.2342 6.5567 -2.5142 0.9723
-2.7228 5.9622 -2.5118 0.9723
-3.1405 5.7514 -2.5112 0.9723
-3.5419 5.5113 -2.5106 0.9723
-3.7359 5.3807 -2.5103 0.9723
-3.9250 5.2432 -2.5099 0.9723
-4.2878 4.9484 -2.5092 0.9723
-4.4611 4.7915 -2.5088 0.9723
-4.6285 4.6285 -2.5084 0.9723
-4.9454 4.2852 -2.5076 0.9724
-5.2368 3.9202 -2.5068 0.9724
-5.5012 3.5354 -2.5060 0.9724
-5.6229 3.3362 -2.5055 0.9724
-5.8446 2.9256 -2.5047 0.9724
-6.1205 2.2828 -2.5033 0.9724
-6.3785 1.3876 -2.5015 0.9724
-6.4228 1.1588 -2.5011 0.9724
-6.4589 0.9286 -2.5006 0.9724
-6.4867 0.6974 -2.5002 0.9724
-6.5063 0.4653 -2.4997 0.9724
-6.5176 0.2328 -2.4993 0.9724
6.1191 0.0000 -2.5044 0.9739
6.1162 0.2184 -2.5048 0.9739
6.1055 0.4367 -2.5052 0.9739
5.9850 1.3020 -2.5068 0.9739
5.8786 1.7261 -2.5076 0.9739
5.8141 1.9351 -2.5079 0.9739
5.7422 2.1417 -2.5083 0.9739
5.6629 2.3456 -2.5086 0.9739
5.5763 2.5466 -2.5090 0.9739
5.3819 2.9387 -2.5096 0.9738
5.0387 3.4984 -2.5105 0.9738
4.7773 3.8498 -2.5111 0.9738
4.4914 4.1817 -2.5116 0.9738
4.3397 4.3397 -2.5118 0.9738
3.8519 4.7799 -2.5125 0.9738
3.6791 4.9147 -2.5126 0.9738
3.5016 5.0432 -2.5128 0.9738
3.3195 5.1653 -2.5130 0.9738
2.9429 5.3895 -2.5132 0.9738
2.7488 5.4914 -2.5133 0.9738
2.5511 5.5862 -2.5134 0.9738
1.9395 5.8273 -2.5136 0.9738
1.7303 5.8929 -2.5136 0.9738
1.5189 5.9509 -2.5137 0.9738
1.3055 6.0014 -2.5137 0.9738
1.0905 6.0441 -2.5136 0.9738
0.0000 6.1410 -2.5133 0.9738
-0.6563 6.1049 -2.5130 0.9738
-1.0901 6.0418 -2.5127 0.9738
-1.3049 5.9986 -2.5125 0.9738
-1.5181 5.9478 -2.5123 0.9738
-1.7293 5.8893 -2.5121 0.9738
-2.1446 5.7499 -2.5117 0.9738
-2.3482 5.6692 -2.5114 0.9738
-2.5488 5.5812 -2.5112 0.9738
-2.7461 5.4861 -2.5109 0.9738
-2.9399 5.3839 -2.5106 0.9738
-3.3157 5.1593 -2.5100 0.9738
-3.4973 5.0370 -2.5097 0.9738
-3.6743 4.9084 -2.5094 0.9738
-3.8467 4.7735 -2.5091 0.9739
-4.3331 4.3331 -2.5080 0.9739
-4.4843 4.1751 -2.5076 0.9739
-4.6298 4.0118 -2.5073 0.9739
-4.9027 3.6701 -2.5065 0.9739
-5.1504 3.3100 -2.5057 0.9739
-5.3717 2.9332 -2.5049 0.9739
-5.4720 2.7391 -2.5045 0.9739
-5.5654 2.5416 -2.5041 0.9739
-5.8023 1.9312 -2.5028 0.9739
-5.8665 1.7226 -2.5024 0.9739
-5.9233 1.5118 -2.5020 0.9739
-5.9724 1.2992 -2.5015 0.9739
-6.0140 1.0850 -2.5011 0.9739
-6.0478 0.8696 -2.5007 0.9739
-6.0924 0.4357 -2.4998 0.9739
5.7461 0.0000 -2.5042 0.9752
5.7158 0.6145 -2.5054 0.9752
5.6910 0.8183 -2.5058 0.9752
5.6590 1.0210 -2.5061 0.9752
5.6198 1.2225 -2.5065 0.9752
5.5198 1.6208 -2.5072 0.9752
5.3916 2.0110 -2.5079 0.9752
4.9520 2.9382 -2.5094 0.9752
4.8445 3.1134 -2.5097 0.9752
4.7308 3.2847 -2.5100 0.9752
4.6111 3.4518 -2.5103 0.9752
4.4854 3.6145 -2.5105 0.9752
4.3539 3.7727 -2.5108 0.9752
4.2169 3.9261 -2.5110 0.9752
4.0744 4.0744 -2.5112 0.9752
3.9267 4.2176 -2.5114 0.9752
3.7740 4.3554 -2.5116 0.9752
3.1165 4.8494 -2.5123 0.9752
2.9416 4.9578 -2.5124 0.9752
2.5806 5.1555 -2.5126 0.9752
2.2064 5.3268 -2.5128 0.9752
2.0149 5.4023 -2.5128 0.9752
1.4260 5.5869 -2.5129 0.9752
1.0238 5.6744 -2.5129 0.9752
0.8206 5.7072 -2.5129 0.9752
0.2058 5.7619 -2.5127 0.9752
0.0000 5.7653 -2.5126 0.9752
-0.4113 5.7502 -2.5124 0.9752
-1.0234 5.6723 -2.5120 0.9752
-1.2251 5.6318 -2.5118 0.9752
-1.4252 5.5841 -2.5117 0.9752
-1.6235 5.5292 -2.5115 0.9752
-1.8197 5.4673 -2.5113 0.9752
-2.0135 5.3984 -2.5110 0.9752
-2.2047 5.3226 -2.5108 0.9752
-2.3931 5.2401 -2.5106 0.9752
-3.1131 4.8441 -2.5095 0.9752
-3.4499 4.6086 -2.5089 0.9752
-4.2106 3.9202 -2.5073 0.9752
-4.3473 3.7669 -2.5069 0.9752
-4.4783 3.6088 -2.5066 0.9752
-4.7230 3.2792 -2.5058 0.9752
-4.9434 2.9330 -2.5051 0.9752
-5.1384 2.5721 -2.5043 0.9752
-5.2262 2.3867 -2.5039 0.9752
-5.3072 2.1983 -2.5035 0.9752
-5.5091 1.6176 -2.5023 0.9753
-5.6087 1.2201 -2.5015 0.9753
-5.6797 0.8166 -2.5007 0.9753
-5.7043 0.6133 -2.5003 0.9753
-5.7216 0.4092 -2.5000 0.9753
-5.7317 0.2047 -2.4996 0.9753
5.3276 0.9612 -2.5059 0.9764
5.2906 1.1509 -2.5062 0.9764
5.2468 1.3392 -2.5065 0.9764
4.9288 2.2509 -2.5081 0.9764
4.8459 2.4257 -2.5084 0.9764
4.2222 3.4025 -2.5100 0.9764
3.8353 3.8353 -2.5107 0.9764
3.6963 3.9701 -2.5109 0.9764
3.5525 4.0998 -2.5110 0.9764
3.2514 4.3433 -2.5114 0.9764
3.0944 4.4568 -2.5115 0.9764
2.9336 4.5647 -2.5116 0.9764
2.7689 4.6667 -2.5118 0.9764
2.6007 4.7628 -2.5119 0.9764
2.2544 4.9365 -2.5121 0.9764
2.0769 5.0140 -2.5121 0.9764
1.7139 5.1496 -2.5122 0.9764
1.5291 5.2075 -2.5122 0.9764
1.3422 5.2588 -2.5123 0.9764
0.3872 5.4133 -2.5121 0.9764
0.1937 5.4235 -2.5121 0.9764
-0.1937 5.4232 -2.5119 0.9764
-0.5800 5.3950 -2.5117 0.9764
-1.3416 5.2563 -2.5111 0.9764
-1.5282 5.2047 -2.5109 0.9764
-1.8954 5.0816 -2.5105 0.9764
-2.0753 5.0103 -2.5103 0.9764
-2.2526 4.9326 -2.5101 0.9764
-3.2476 4.3384 -2.5085 0.9764
-3.4000 4.2192 -2.5082 0.9764
-3.5480 4.0946 -2.5079 0.9764
-4.0925 3.5462 -2.5066 0.9764
-4.3339 3.2443 -2.5059 0.9764
-4.4463 3.0872 -2.5056 0.9764
-4.6539 2.7613 -2.5049 0.9764
-4.7488 2.5931 -2.5045 0.9764
-4.9203 2.2470 -2.5038 0.9764
-5.1869 1.5230 -2.5023 0.9765
-5.3176 0.9594 -2.5012 0.9765
-5.3477 0.7689 -2.5008 0.9765
-5.3968 0.1927 -2.4997 0.9765
5.1046 0.0000 -2.5039 0.9775
5.1021 0.1822 -2.5043 0.9775
5.0930 0.3643 -2.5046 0.9775
5.0554 0.7269 -2.5053 0.9775
4.9507 1.2636 -2.5063 0.9775
4.9030 1.4397 -2.5066 0.9775
4.8491 1.6140 -2.5069 0.9775
4.5722 2.2887 -2.5080 0.9775
4.3027 2.7652 -2.5088 0.9775
3.9836 3.2102 -2.5095 0.9775
3.7450 3.4867 -2.5100 0.9775
3.3516 3.8679 -2.5105 0.9775
3.0675 4.0977 -2.5108 0.9775
2.7676 4.3065 -2.5111 0.9775
2.4536 4.4934 -2.5113 0.9774
2.2917 4.5783 -2.5114 0.9774
2.1269 4.6573 -2.5115 0.9774
1.6170 4.8583 -2.5116 0.9774
1.2663 4.9613 -2.5117 0.9774
0.9091 5.0390 -2.5117 0.9774
0.7287 5.0682 -2.5116 0.9774
0.0000 5.1198 -2.5114 0.9774
-0.3652 5.1064 -2.5112 0.9774
-0.7285 5.0669 -2.5110 0.9775
-1.4418 4.9104 -2.5104 0.9775
-1.7882 4.7944 -2.5100 0.9775
-2.1253 4.6538 -2.5096 0.9775
-2.2899 4.5746 -2.5094 0.9775
-2.6099 4.3987 -2.5089 0.9775
-2.7649 4.3023 -2.5086 0.9775
-3.3476 3.8634 -2.5076 0.9775
-3.4830 3.7410 -2.5073 0.9775
-3.6139 3.6139 -2.5070 0.9775
-3.7401 3.4822 -2.5067 0.9775
-3.9780 3.2057 -2.5060 0.9775
-4.3914 2.6055 -2.5047 0.9775
-4.5648 2.2850 -2.5040 0.9775
-4.6428 2.1203 -2.5037 0.9775
-4.7809 1.7832 -2.5030 0.9775
-4.8409 1.6112 -2.5026 0.9775
-4.8946 1.4372 -2.5023 0.9775
-4.9421 1.2614 -2.5019 0.9775
-5.0684 0.5449 -2.5005 0.9775
-5.0839 0.3636 -2.5001 0.9775
4.8239 0.1723 -2.5041 0.9785
4.8006 0.5161 -2.5048 0.9785
4.7797 0.6872 -2.5051 0.9785
4.7527 0.8575 -2.5054 0.9785
4.7197 1.0267 -2.5057 0.9785
4.4649 1.8494 -2.5072 0.9785
4.3226 2.1637 -2.5077 0.9785
4.2430 2.3169 -2.5080 0.9785
4.1580 2.4671 -2.5082 0.9784
3.9722 2.7579 -2.5087 0.9784
3.8715 2.8982 -2.5089 0.9784
3.6555 3.1675 -2.5093 0.9784
3.5404 3.2962 -2.5095 0.9784
3.4208 3.4208 -2.5097 0.9784
3.1684 3.6566 -2.5100 0.9784
2.1664 4.3280 -2.5109 0.9784
1.8523 4.4718 -2.5110 0.9784
1.6915 4.5351 -2.5110 0.9784
1.3637 4.6443 -2.5111 0.9784
-0.5173 4.8117 -2.5106 0.9784
-0.6887 4.7900 -2.5105 0.9784
-0.8592 4.7621 -2.5104 0.9784
-1.3630 4.6421 -2.5099 0.9784
-1.6905 4.5324 -2.5095 0.9784
-1.8511 4.4688 -2.5094 0.9784
-2.0092 4.3996 -2.5092 0.9784
-2.4673 4.1585 -2.5085 0.9784
-2.6140 4.0674 -2.5083 0.9784
-2.7572 3.9711 -2.5080 0.9785
-2.8969 3.8698 -2.5078 0.9785
-3.0328 3.7635 -2.5075 0.9785
-3.1649 3.6525 -2.5072 0.9785
-3.2929 3.5368 -2.5070 0.9785
-3.4166 3.4166 -2.5067 0.9785
-3.7610 3.0308 -2.5058 0.9785
-3.8663 2.8943 -2.5055 0.9785
-4.0619 2.6104 -2.5049 0.9785
-4.1519 2.4635 -2.5045 0.9785
-4.3898 2.0047 -2.5036 0.9785
-4.4579 1.8465 -2.5032 0.9785
-4.5204 1.6860 -2.5029 0.9785
-4.6279 1.3589 -2.5022 0.9785
-4.6729 1.1927 -2.5019 0.9785
-4.8072 0.3438 -2.5002 0.9785
-4.8157 0.1720 -2.4999 0.9785
4.5608 0.3262 -2.5043 0.9794
4.5468 0.4888 -2.5046 0.9794
4.4700 0.9724 -2.5055 0.9794
4.4330 1.1315 -2.5058 0.9794
4.3903 1.2891 -2.5061 0.9793
4.3419 1.4451 -2.5063 0.9793
4.2880 1.5994 -2.5066 0.9793
3.9379 2.3365 -2.5079 0.9793
3.8523 2.4757 -2.5081 0.9793
3.3529 3.1217 -2.5091 0.9793
3.2396 3.2396 -2.5093 0.9793
3.0006 3.4629 -2.5096 0.9793
2.8752 3.5679 -2.5097 0.9793
2.7462 3.6685 -2.5099 0.9793
2.4777 3.8554 -2.5101 0.9793
2.3386 3.9416 -2.5102 0.9793
2.0516 4.0986 -2.5104 0.9793
1.7541 4.2348 -2.5105 0.9793
1.4476 4.3493 -2.5106 0.9793
1.1336 4.4415 -2.5106 0.9793
0.8139 4.5111 -2.5106 0.9793
0.6524 4.5372 -2.5106 0.9793
0.4900 4.5575 -2.5106 0.9793
0.1636 4.5807 -2.5105 0.9793
-0.1636 4.5804 -2.5103 0.9793
-0.3270 4.5715 -2.5102 0.9793
-0.4899 4.5567 -2.5101 0.9793
-0.6522 4.5362 -2.5100 0.9793
-0.8136 4.5098 -2.5099 0.9793
-0.9740 4.4776 -2.5098 0.9793
-1.4468 4.3470 -2.5093 0.9793
-1.9028 4.1666 -2.5088 0.9793
-2.3367 3.9383 -2.5081 0.9793
-2.6112 3.7609 -2.5077 0.9793
-2.7435 3.6650 -2.5074 0.9793
-2.8723 3.5643 -2.5072 0.9793
-2.9974 3.4592 -2.5069 0.9793
-3.1187 3.3497 -2.5067 0.9793
-3.2359 3.2359 -2.5064 0.9793
-3.4577 2.9961 -2.5059 0.9794
-3.5620 2.8705 -2.5056 0.9794
-3.8471 2.4724 -2.5047 0.9794
-3.9324 2.3332 -2.5044 0.9794
-4.0127 2.1911 -2.5041 0.9794
-4.0879 2.0462 -2.5038 0.9794
-4.3353 1.4429 -2.5025 0.9794
-4.3835 1.2871 -2.5022 0.9794
-4.4261 1.1297 -2.5019 0.9794
-4.4942 0.8108 -2.5013 0.9794
-4.5198 0.6498 -2.5009 0.9794
-4.5535 0.3257 -2.5003 0.9794
-4.5616 0.1629 -2.5000 0.9794
4.3341 0.1548 -2.5039 0.9802
4.3263 0.3094 -2.5042 0.9802
4.3130 0.4637 -2.5045 0.9802
4.2942 0.6174 -2.5048 0.9802
4.2699 0.7704 -2.5050 0.9802
4.2402 0.9224 -2.5053 0.9802
4.2050 1.0733 -2.5056 0.9802
4.1644 1.2228 -2.5058 0.9802
4.1186 1.3708 -2.5061 0.9802
4.0111 1.6615 -2.5066 0.9801
3.8831 1.9437 -2.5071 0.9801
3.5682 2.4774 -2.5080 0.9801
3.4778 2.6034 -2.5082 0.9801
3.1802 2.9609 -2.5087 0.9801
3.0727 3.0727 -2.5089 0.9801
2.9613 3.1806 -2.5090 0.9801
2.8460 3.2845 -2.5092 0.9801
2.7271 3.3842 -2.5093 0.9801
2.6048 3.4795 -2.5094 0.9801
2.4790 3.5705 -2.5096 0.9801
1.9459 3.8875 -2.5099 0.9801
1.8060 3.9546 -2.5100 0.9801
1.6637 4.0166 -2.5100 0.9801
1.5193 4.0735 -2.5101 0.9801
1.3730 4.1252 -2.5101 0.9801
0.9242 4.2484 -2.5102 0.9801
0.6187 4.3034 -2.5101 0.9801
0.4647 4.3227 -2.5101 0.9801
0.1552 4.3447 -2.5100 0.9801
-0.3101 4.3360 -2.5098 0.9801
-0.4647 4.3220 -2.5097 0.9801
-0.7717 4.2775 -2.5095 0.9801
-1.0748 4.2111 -2.5092 0.9801
-1.2244 4.1698 -2.5091 0.9801
-2.0819 3.8126 -2.5080 0.9801
-2.4769 3.5674 -2.5074 0.9801
-2.6024 3.4764 -2.5071 0.9801
-2.7245 3.3809 -2.5069 0.9801
-3.1767 2.9576 -2.5059 0.9802
-3.2799 2.8420 -2.5056 0.9802
-3.3789 2.7229 -2.5054 0.9802
-3.5637 2.4743 -2.5048 0.9802
-3.6493 2.3453 -2.5045 0.9802
-3.7303 2.2133 -2.5043 0.9802
-3.8778 1.9411 -2.5037 0.9802
-3.9441 1.8012 -2.5034 0.9802
-4.0054 1.6591 -2.5031 0.9802
-4.0616 1.5149 -2.5028 0.9802
-4.1584 1.2210 -2.5022 0.9802
-4.2877 0.6165 -2.5010 0.9802
-4.3198 0.3090 -2.5004 0.9802
