ply
format ascii 1.0
element vertex 1284
property float32 x
property float32 y
property float32 z
property float32 I
end_header
-37.0024 -32.0628 8.6331 0.8197
-29.7987 -32.0060 7.7108 0.8373
-14.7339 -17.0039 3.9672 0.9127
-24.0045 -32.0663 7.0629 0.8499
-22.2765 -32.0843 6.8872 0.8533
-19.0564 -32.1178 6.5850 0.8593
-17.5462 -32.1335 6.4557 0.8618
-16.0924 -32.1486 6.3392 0.8641
-14.6885 -32.1633 6.2347 0.8662
-9.4600 -32.2177 5.9207 0.8725
-8.2264 -32.2306 5.8653 0.8736
-5.8405 -32.3718 5.8002 0.8749
-4.6586 -32.4013 5.7720 0.8755
-2.3187 -32.4199 5.7311 0.8763
-0.0000 -32.4440 5.7207 0.8765
1.1544 -32.3221 5.7029 0.8769
3.4920 -32.4803 5.7602 0.8757
4.6650 -32.4458 5.7799 0.8753
9.7870 -16.4951 3.3820 0.9251
29.0731 -17.2499 5.9608 0.8717
27.1652 -12.4059 5.2658 0.8858
-37.0236 -32.0811 7.5049 0.8202
-31.9832 -31.9832 6.9292 0.8327
-25.8254 -32.0473 6.3052 0.8466
-18.9593 -29.5013 5.3723 0.8677
-17.5128 -29.5163 5.2577 0.8703
-16.1250 -29.5308 5.1544 0.8727
-15.2345 -30.4347 5.2139 0.8713
-12.2607 -32.8723 5.3747 0.8676
-9.8844 -33.6632 5.3747 0.8676
-9.3616 -36.6784 5.7991 0.8580
-7.0141 -32.2432 5.0550 0.8750
-5.3151 -36.9671 5.7214 0.8597
-3.4705 -32.2801 4.9736 0.8769
-2.6388 -36.8952 5.6666 0.8610
-1.3254 -37.1117 5.6889 0.8605
2.6546 -37.1163 5.7005 0.8602
4.6650 -32.4458 5.0216 0.8758
6.3768 -35.3442 5.5020 0.8647
7.9189 -36.4024 5.7071 0.8601
9.7909 -16.5016 2.9394 0.9253
29.0962 -17.2636 5.1829 0.8721
-32.7499 -14.9564 4.6884 0.8648
-31.9832 -31.9832 5.8900 0.8332
-27.3850 -29.4136 5.2334 0.8503
-22.9332 -30.6352 4.9833 0.8570
-22.2765 -32.0843 5.0864 0.8542
-21.3423 -33.2093 5.1406 0.8528
-19.0562 -32.1176 4.8631 0.8602
-17.5461 -32.1332 4.7676 0.8627
-14.6884 -32.1633 4.6044 0.8671
-15.3023 -36.9430 5.2071 0.8510
-10.8912 -37.0921 5.0341 0.8556
-9.5055 -37.2420 5.0052 0.8564
-5.3610 -37.2866 4.9054 0.8590
-3.4705 -32.2801 4.2278 0.8773
-2.6592 -37.1803 4.8540 0.8604
-1.3332 -37.3291 4.8641 0.8601
-0.0000 -37.2076 4.8452 0.8606
1.1544 -32.3221 4.2117 0.8777
4.0044 -37.2462 4.8782 0.8598
7.4038 -41.0366 5.4301 0.8452
7.9189 -36.4024 4.8512 0.8605
29.1192 -17.2772 4.4091 0.8723
-36.3838 -29.3199 5.0177 0.8286
-34.3260 -31.9586 5.0362 0.8281
-32.9318 -32.9318 5.0010 0.8291
-29.7987 -32.0060 4.6958 0.8387
-25.8251 -32.0471 4.4196 0.8474
-22.2765 -32.0843 4.1943 0.8546
-19.0562 -32.1176 4.0102 0.8605
-17.5461 -32.1332 3.9314 0.8630
-18.5297 -37.0177 4.4452 0.8466
-15.3489 -37.0555 4.3069 0.8510
-10.8949 -37.1046 4.1526 0.8559
-9.5086 -37.2545 4.1287 0.8567
-3.4705 -32.2801 3.4863 0.8776
-2.6600 -37.1924 4.0040 0.8607
-1.3336 -37.3412 4.0123 0.8604
-0.0000 -37.2194 3.9967 0.8609
1.1544 -32.3221 3.4730 0.8780
2.6737 -37.3827 4.0245 0.8600
4.6650 -32.4458 3.5199 0.8765
-37.0841 -32.1336 4.1538 0.8212
-34.3259 -31.9586 3.9702 0.8284
-32.9318 -32.9318 3.9425 0.8295
-29.7987 -32.0060 3.7019 0.8390
-14.6659 -16.9253 1.8958 0.9140
-25.8252 -32.0471 3.4841 0.8477
-25.2434 -33.7213 3.5658 0.8444
-18.3999 -31.0113 3.0525 0.8652
-17.5461 -32.1332 3.0993 0.8633
-18.5374 -37.0330 3.5058 0.8468
-14.6884 -32.1633 2.9932 0.8677
-10.7187 -32.2046 2.8732 0.8726
-10.8985 -37.1170 3.2747 0.8562
-9.5118 -37.2668 3.2559 0.8569
-4.3970 -24.3709 2.0964 0.9054
-5.3645 -37.3110 3.1910 0.8596
-3.4705 -32.2801 2.7483 0.8778
-1.3292 -37.2175 3.1526 0.8611
-0.0000 -37.2313 3.1517 0.8612
4.0047 -37.2488 3.1714 0.8604
7.4038 -41.0366 3.5300 0.8459
7.9189 -36.4024 3.1536 0.8611
9.8023 -16.5208 1.6262 0.9258
29.1649 -17.3043 2.8708 0.8727
-37.0841 -32.1336 3.0428 0.8215
-33.5809 -31.2649 2.8452 0.8320
-32.9318 -32.9318 2.8880 0.8297
-29.7987 -32.0060 2.7117 0.8392
-14.6492 -16.9060 1.3872 0.9142
-25.8251 -32.0471 2.5522 0.8479
-22.2765 -32.0843 2.4221 0.8551
-23.7459 -36.9493 2.7236 0.8386
-14.3976 -24.2658 1.7497 0.8931
-13.5528 -24.8201 1.7536 0.8929
-18.5227 -37.0036 2.5660 0.8472
-15.3411 -37.0367 2.4859 0.8516
-13.8343 -37.0911 2.4548 0.8533
-10.7187 -32.2046 2.1047 0.8728
-9.4785 -37.1365 2.3767 0.8576
-7.0141 -32.2432 2.0462 0.8761
-4.4014 -24.3954 1.5372 0.9054
-3.4705 -32.2801 2.0132 0.8780
-2.6611 -37.2075 2.3131 0.8611
-1.3294 -37.2213 2.3096 0.8613
-0.0000 -37.2351 2.3090 0.8614
1.1544 -32.3221 2.0056 0.8784
4.0007 -37.2118 2.3208 0.8607
7.4038 -41.0366 2.5858 0.8461
7.9189 -36.4024 2.3101 0.8613
29.1876 -17.3178 2.1045 0.8728
-37.0841 -32.1336 1.9349 0.8217
-29.7987 -32.0060 1.7243 0.8394
-14.6325 -16.8869 0.8811 0.9144
-25.2434 -33.7213 1.6610 0.8448
-13.5390 -24.7949 1.1139 0.8931
-18.5419 -37.0421 1.6334 0.8472
-14.6884 -32.1633 1.3942 0.8680
-10.7187 -32.2046 1.3383 0.8730
-10.8999 -37.1217 1.5255 0.8565
-9.4785 -37.1365 1.5113 0.8578
-7.0141 -32.2432 1.3011 0.8763
-4.4014 -24.3954 0.9774 0.9055
-3.4705 -32.2801 1.2802 0.8781
-0.0000 -37.2351 1.4682 0.8615
1.1544 -32.3221 1.2753 0.8786
2.6651 -37.2629 1.4731 0.8611
7.4038 -41.0365 1.6442 0.8463
7.9189 -36.4024 1.4690 0.8615
14.5311 -35.0813 1.4973 0.8590
28.0154 -34.7650 1.7605 0.8363
25.4502 -23.6950 1.3711 0.8701
-37.0841 -32.1336 0.8289 0.8218
-32.9318 -32.9318 0.7867 0.8300
-14.4056 -24.2794 0.4769 0.8932
-18.5227 -37.0036 0.6990 0.8474
-14.6884 -32.1633 0.5973 0.8681
-15.3266 -37.0016 0.6766 0.8520
-13.8199 -37.0526 0.6680 0.8537
-10.7187 -32.2046 0.5733 0.8730
-9.4687 -37.0979 0.6467 0.8580
-7.0141 -32.2432 0.5574 0.8763
-2.6584 -37.1688 0.6295 0.8615
1.1544 -32.3221 0.5463 0.8786
2.6623 -37.2242 0.6304 0.8613
4.6650 -32.4458 0.5537 0.8771
7.3984 -34.0096 0.5879 0.8700
28.0154 -34.7650 0.7542 0.8364
29.2330 -17.3448 0.5742 0.8729
-37.0841 -32.1336 -0.2763 0.8218
-32.9318 -32.9318 -0.2622 0.8300
-14.5995 -16.8487 -0.1255 0.9147
-25.8251 -32.0471 -0.2317 0.8482
-14.4056 -24.2794 -0.1589 0.8932
-17.5461 -32.1332 -0.2061 0.8638
-18.5419 -37.0421 -0.2332 0.8473
-14.6884 -32.1633 -0.1991 0.8681
-15.3266 -37.0016 -0.2255 0.8520
-13.8477 -37.1270 -0.2231 0.8534
-7.0141 -32.2432 -0.1858 0.8763
-4.4014 -24.3954 -0.1396 0.9056
-3.4671 -32.2484 -0.1826 0.8783
-2.6611 -37.2075 -0.2100 0.8614
-0.0000 -36.6794 -0.2065 0.8635
1.1544 -32.3221 -0.1821 0.8786
2.6651 -37.2629 -0.2103 0.8612
4.6650 -32.4458 -0.1846 0.8771
7.3821 -33.9349 -0.1955 0.8703
9.8173 -16.5462 -0.1083 0.9259
28.0154 -34.7650 -0.2514 0.8364
29.2558 -17.3583 -0.1915 0.8728
-30.4170 -16.6089 -0.9758 0.8705
-37.0841 -32.1336 -1.3817 0.8217
-14.5830 -16.8297 -0.6270 0.9147
-25.2434 -33.7213 -1.1861 0.8449
-22.2765 -32.0843 -1.0998 0.8553
-17.5461 -32.1332 -1.0309 0.8637
-18.5419 -37.0421 -1.1664 0.8472
-14.6885 -32.1633 -0.9956 0.8681
-13.8477 -37.1270 -1.1158 0.8534
-9.4877 -37.1724 -1.0802 0.8577
-7.0141 -32.2432 -0.9291 0.8763
-5.3544 -37.2406 -1.0594 0.8602
-3.4705 -32.2801 -0.9142 0.8782
-2.6611 -37.2075 -1.0504 0.8613
-1.3309 -37.2649 -1.0500 0.8614
1.1544 -32.3221 -0.9107 0.8786
7.3784 -33.9179 -0.9774 0.8703
28.2216 -37.6997 -1.3260 0.8282
28.3604 -35.1931 -1.2727 0.8345
30.1390 -34.7823 -1.2959 0.8318
29.2785 -17.3718 -0.9586 0.8726
-49.1679 -5.2861 -2.5079 0.8203
-48.9479 -7.0377 -2.5079 0.8203
-47.9152 -12.2296 -2.5079 0.8203
-43.5214 -16.2326 -2.3557 0.8302
-42.9143 -17.7757 -2.3557 0.8302
-41.5369 -20.7919 -2.3557 0.8302
-40.1388 -23.8155 -2.3669 0.8295
-31.7590 -20.4103 -1.9146 0.8597
-38.5171 -26.7429 -2.3780 0.8288
-25.4672 -20.5227 -1.6587 0.8772
-35.6731 -30.9109 -2.3938 0.8277
-29.7987 -32.0060 -2.2178 0.8393
-22.2765 -32.0843 -1.9809 0.8552
-23.7458 -36.9493 -2.2275 0.8387
-14.4056 -24.2794 -1.4317 0.8931
-17.5461 -32.1332 -1.8567 0.8636
-18.5227 -37.0036 -2.0986 0.8473
-14.6885 -32.1633 -1.7932 0.8680
-15.3266 -37.0016 -2.0310 0.8518
-10.7187 -32.2046 -1.7213 0.8729
-10.8999 -37.1217 -1.9621 0.8565
-4.4014 -24.3954 -1.2572 0.9055
-5.3544 -37.2406 -1.9080 0.8601
-2.6611 -37.2075 -1.8918 0.8612
-1.3309 -37.2649 -1.8911 0.8613
-0.0000 -36.6793 -1.8602 0.8634
2.6651 -37.2629 -1.8946 0.8610
7.4038 -41.0365 -2.1147 0.8462
7.3269 -33.6811 -1.7481 0.8711
11.9610 -46.8628 -2.4528 0.8239
13.6157 -46.3706 -2.4509 0.8240
16.8581 -45.1985 -2.4465 0.8243
19.9962 -43.7855 -2.4412 0.8247
7.6455 -15.2739 -0.8662 0.9339
8.3277 -15.2510 -0.8812 0.9328
9.8248 -16.5589 -0.9765 0.9258
22.9131 -35.6535 -2.1493 0.8439
25.1812 -31.2480 -2.0352 0.8515
28.3549 -28.3549 -2.0336 0.8516
19.5902 -15.7867 -1.2759 0.9041
37.6102 -28.1547 -2.3826 0.8285
39.3453 -25.2857 -2.3719 0.8292
41.5369 -20.7919 -2.3557 0.8302
42.2525 -19.2961 -2.3557 0.8302
42.9143 -17.7757 -2.3557 0.8302
48.3212 -10.5116 -2.5079 0.8203
48.6656 -8.7802 -2.5079 0.8203
48.9479 -7.0377 -2.5079 0.8203
49.1679 -5.2861 -2.5079 0.8203
-34.1819 -1.2208 -2.5079 0.8718
-33.6602 -6.0730 -2.5079 0.8718
-33.4220 -7.2705 -2.5079 0.8718
-33.1412 -8.4588 -2.5079 0.8718
-32.8182 -9.6363 -2.5079 0.8718
-31.1127 -14.2087 -2.5079 0.8718
-28.1980 -15.3973 -2.3557 0.8791
-27.0277 -17.3697 -2.3557 0.8791
-22.0929 -15.3394 -1.9721 0.8977
-25.7197 -19.2535 -2.3557 0.8791
-25.0161 -20.1592 -2.3557 0.8791
-24.2884 -21.0460 -2.3564 0.8791
-20.2995 -25.1901 -2.3721 0.8783
-14.1075 -20.3186 -1.8137 0.9056
-14.3782 -24.2332 -2.0660 0.8931
-15.5868 -28.5451 -2.3847 0.8777
-14.5710 -29.1091 -2.3868 0.8776
-8.4918 -20.5009 -1.6270 0.9148
-9.2031 -31.3429 -2.3951 0.8772
-6.9501 -31.9492 -2.3974 0.8771
-4.4014 -24.3954 -1.8176 0.9054
-2.3350 -32.6479 -2.3999 0.8770
-1.1684 -32.7138 -2.4002 0.8770
-0.0000 -32.7358 -2.4003 0.8770
3.4981 -32.5372 -2.3994 0.8770
5.8072 -32.1872 -2.3981 0.8771
8.0818 -31.6642 -2.3961 0.8772
9.2022 -31.3397 -2.3949 0.8772
11.4004 -30.5657 -2.3920 0.8774
18.4909 -26.6320 -2.3772 0.8781
19.4082 -25.9263 -2.3746 0.8782
20.2977 -25.1879 -2.3719 0.8783
17.6426 -20.3607 -1.9754 0.8976
21.9884 -23.6172 -2.3660 0.8786
23.5549 -21.9304 -2.3598 0.8789
24.2889 -21.0464 -2.3565 0.8791
19.5952 -15.7907 -1.8452 0.9040
27.6304 -16.3939 -2.3557 0.8791
28.1980 -15.3973 -2.3557 0.8791
31.1097 -14.2073 -2.5076 0.8718
31.6001 -13.0892 -2.5079 0.8718
32.4533 -10.8015 -2.5079 0.8718
32.8182 -9.6363 -2.5079 0.8718
33.4220 -7.2705 -2.5079 0.8718
33.8555 -4.8677 -2.5079 0.8718
34.1819 -1.2208 -2.5079 0.8718
-26.1225 0.0000 -2.5079 0.9004
-25.3110 -6.4602 -2.5079 0.9004
-25.0643 -7.3596 -2.5079 0.9004
-24.4754 -9.1289 -2.5079 0.9004
-24.1340 -9.9966 -2.5079 0.9004
-23.7618 -10.8517 -2.5079 0.9004
-23.3594 -11.6929 -2.5079 0.9004
-22.9271 -12.5192 -2.5079 0.9004
-22.4657 -13.3295 -2.5079 0.9004
-21.9756 -14.1229 -2.5079 0.9004
-21.1253 -14.6676 -2.4691 0.9018
-19.6430 -14.7045 -2.3557 0.9061
-18.5439 -16.0684 -2.3557 0.9061
-17.9586 -16.7200 -2.3557 0.9061
-14.8074 -15.9043 -2.0862 0.9164
-13.7621 -17.0778 -2.1057 0.9156
-14.7045 -19.6430 -2.3557 0.9061
-12.5258 -21.1111 -2.3567 0.9061
-11.7728 -21.5602 -2.3584 0.9060
-11.0031 -21.9814 -2.3600 0.9059
-9.4183 -22.7378 -2.3628 0.9058
-7.7223 -20.7043 -2.1215 0.9150
-6.9438 -23.6483 -2.3662 0.9057
-4.3648 -24.1923 -2.3601 0.9059
-3.5119 -24.4258 -2.3691 0.9056
-1.6606 -15.4462 -1.4915 0.9395
-1.4617 -20.4373 -1.9671 0.9210
-0.0000 -24.6871 -2.3701 0.9056
1.7610 -24.6216 -2.3698 0.9056
2.6383 -24.5397 -2.3695 0.9056
3.5119 -24.4255 -2.3691 0.9056
6.9437 -23.6480 -2.3662 0.9057
8.6051 -23.0712 -2.3640 0.9058
9.4181 -22.7373 -2.3628 0.9058
10.2178 -22.3738 -2.3614 0.9059
7.6483 -15.2793 -1.6404 0.9336
8.3471 -15.2866 -1.6721 0.9324
9.8324 -16.5717 -1.8499 0.9255
10.2471 -15.9448 -1.8196 0.9267
15.3963 -19.1056 -2.3557 0.9061
17.3504 -17.3503 -2.3557 0.9061
17.9586 -16.7201 -2.3557 0.9061
18.5439 -16.0684 -2.3557 0.9061
19.1056 -15.3963 -2.3557 0.9061
19.6430 -14.7045 -2.3557 0.9061
21.1232 -14.6661 -2.4688 0.9018
21.9756 -14.1229 -2.5079 0.9004
23.7618 -10.8516 -2.5079 0.9004
24.1340 -9.9966 -2.5079 0.9004
24.4754 -9.1289 -2.5079 0.9004
24.7856 -8.2495 -2.5079 0.9004
25.0643 -7.3596 -2.5079 0.9004
25.3110 -6.4603 -2.5079 0.9004
25.5255 -5.5527 -2.5079 0.9004
25.7074 -4.6381 -2.5079 0.9004
25.8565 -3.7176 -2.5079 0.9004
-21.0589 -1.5062 -2.5079 0.9185
-20.9917 -2.2569 -2.5079 0.9185
-20.7772 -3.7486 -2.5079 0.9185
-20.6301 -4.4878 -2.5079 0.9185
-20.4568 -5.2213 -2.5079 0.9185
-20.2574 -5.9481 -2.5079 0.9185
-19.2048 -8.7705 -2.5079 0.9185
-18.1572 -10.7732 -2.5079 0.9185
-16.9016 -12.6523 -2.5079 0.9185
-16.4392 -13.2475 -2.5079 0.9185
-15.9559 -13.8259 -2.5079 0.9185
-13.6708 -14.6835 -2.3831 0.9224
-11.8845 -15.8758 -2.3557 0.9232
-11.3103 -16.2899 -2.3557 0.9232
-10.7216 -16.6832 -2.3557 0.9232
-9.5042 -17.4056 -2.3557 0.9232
-8.8768 -17.7337 -2.3557 0.9232
-8.2382 -18.0392 -2.3557 0.9232
-7.5891 -18.3218 -2.3557 0.9232
-5.5871 -19.0280 -2.3557 0.9232
-4.2155 -19.3781 -2.3557 0.9232
-3.5211 -19.5163 -2.3557 0.9232
-2.8223 -19.6295 -2.3557 0.9232
-1.6609 -15.4482 -1.8456 0.9393
-0.5470 -15.3154 -1.8204 0.9401
-0.0000 -19.8314 -2.3557 0.9232
0.5478 -15.3370 -1.8230 0.9401
3.5211 -19.5163 -2.3557 0.9232
4.2155 -19.3781 -2.3557 0.9232
5.5871 -19.0280 -2.3557 0.9232
6.2627 -18.8165 -2.3557 0.9232
6.9303 -18.5810 -2.3557 0.9232
7.6483 -15.2793 -2.0296 0.9335
9.4450 -15.9187 -2.1987 0.9282
11.0130 -15.8618 -2.2938 0.9252
11.8845 -15.8758 -2.3557 0.9232
12.4435 -15.4415 -2.3557 0.9232
14.6685 -14.6685 -2.4641 0.9198
15.4356 -14.3711 -2.5052 0.9186
15.9559 -13.8258 -2.5079 0.9185
16.9015 -12.6523 -2.5079 0.9185
18.5301 -10.1182 -2.5079 0.9185
19.2047 -8.7705 -2.5079 0.9185
19.7815 -7.3781 -2.5079 0.9185
20.9917 -2.2568 -2.5079 0.9185
-17.6886 -0.6318 -2.5079 0.9310
-17.6548 -1.2627 -2.5079 0.9310
-17.5197 -2.5190 -2.5079 0.9310
-17.4187 -3.1427 -2.5079 0.9310
-17.1501 -4.3773 -2.5079 0.9310
-16.5839 -6.1855 -2.5079 0.9310
-16.1004 -7.3528 -2.5079 0.9310
-15.8277 -7.9228 -2.5079 0.9310
-14.1695 -10.6071 -2.5079 0.9310
-13.7819 -11.1061 -2.5079 0.9310
-12.9544 -12.0610 -2.5079 0.9310
-12.5157 -12.5157 -2.5079 0.9310
-11.5910 -13.3767 -2.5079 0.9310
-11.1061 -13.7819 -2.5079 0.9310
-9.4261 -14.6673 -2.4704 0.9320
-8.7083 -14.6770 -2.4181 0.9334
-8.0190 -14.6858 -2.3708 0.9346
-7.4419 -14.8671 -2.3557 0.9350
-6.9066 -15.1233 -2.3557 0.9350
-5.2504 -15.7749 -2.3557 0.9350
-3.5341 -16.2458 -2.3557 0.9350
-2.9519 -16.3615 -2.3557 0.9350
-2.3661 -16.4565 -2.3557 0.9350
-1.6610 -15.4495 -2.2016 0.9392
-1.1861 -16.5833 -2.3557 0.9350
1.1861 -16.5833 -2.3557 0.9350
2.3661 -16.4565 -2.3557 0.9350
3.5341 -16.2458 -2.3557 0.9350
4.1116 -16.1093 -2.3557 0.9350
4.6840 -15.9523 -2.3557 0.9350
5.2504 -15.7749 -2.3557 0.9350
5.8101 -15.5775 -2.3557 0.9350
6.9066 -15.1233 -2.3557 0.9350
7.4419 -14.8671 -2.3557 0.9350
8.0190 -14.6857 -2.3708 0.9346
8.7083 -14.6770 -2.4181 0.9334
10.0743 -14.5098 -2.5028 0.9311
11.1061 -13.7819 -2.5079 0.9310
11.5910 -13.3767 -2.5079 0.9310
13.7819 -11.1061 -2.5079 0.9310
14.5391 -10.0946 -2.5079 0.9310
14.8901 -9.5693 -2.5079 0.9310
15.2222 -9.0317 -2.5079 0.9310
16.1004 -7.3528 -2.5079 0.9310
16.3526 -6.7735 -2.5079 0.9310
16.5839 -6.1855 -2.5079 0.9310
16.7941 -5.5896 -2.5079 0.9310
16.9829 -4.9866 -2.5079 0.9310
17.5197 -2.5190 -2.5079 0.9310
17.6548 -1.2627 -2.5079 0.9310
17.6886 -0.6317 -2.5079 0.9310
-15.0684 -2.1665 -2.5079 0.9402
-14.9815 -2.7030 -2.5079 0.9402
-14.8755 -3.2360 -2.5079 0.9402
-14.7505 -3.7648 -2.5079 0.9402
-14.2635 -5.3200 -2.5079 0.9402
-13.8477 -6.3240 -2.5079 0.9402
-13.6131 -6.8143 -2.5079 0.9402
-13.0923 -7.7680 -2.5079 0.9402
-12.8067 -8.2304 -2.5079 0.9402
-12.1869 -9.1230 -2.5079 0.9402
-11.5050 -9.9692 -2.5079 0.9402
-11.1419 -10.3735 -2.5079 0.9402
-10.7645 -10.7646 -2.5079 0.9402
-9.9692 -11.5051 -2.5079 0.9402
-9.5522 -11.8535 -2.5079 0.9402
-8.6822 -12.5048 -2.5079 0.9402
-8.2304 -12.8067 -2.5079 0.9402
-7.7680 -13.0923 -2.5079 0.9402
-7.2958 -13.3612 -2.5079 0.9402
-6.8142 -13.6131 -2.5079 0.9402
-3.7425 -14.6631 -2.4930 0.9405
-2.1096 -14.6726 -2.4420 0.9417
-1.0496 -14.6759 -2.4239 0.9421
-0.5242 -14.6768 -2.4194 0.9422
1.0496 -14.6759 -2.4239 0.9421
1.5777 -14.6745 -2.4314 0.9419
2.1096 -14.6726 -2.4420 0.9417
4.2785 -14.5713 -2.5018 0.9403
6.3240 -13.8477 -2.5079 0.9402
7.2958 -13.3612 -2.5079 0.9402
7.7680 -13.0923 -2.5079 0.9402
8.6822 -12.5048 -2.5079 0.9402
9.1230 -12.1869 -2.5079 0.9402
9.5522 -11.8536 -2.5079 0.9402
10.3735 -11.1419 -2.5079 0.9402
11.1419 -10.3735 -2.5079 0.9402
11.8536 -9.5522 -2.5079 0.9402
12.1869 -9.1230 -2.5079 0.9402
13.6131 -6.8142 -2.5079 0.9402
14.0646 -5.8257 -2.5079 0.9402
14.2635 -5.3200 -2.5079 0.9402
14.4443 -4.8075 -2.5079 0.9402
14.6067 -4.2889 -2.5079 0.9402
14.7505 -3.7648 -2.5079 0.9402
14.8755 -3.2360 -2.5079 0.9402
14.9815 -2.7030 -2.5079 0.9402
15.0684 -2.1665 -2.5079 0.9402
-13.3426 0.0000 -2.5079 0.9471
-13.3086 -0.9519 -2.5079 0.9471
-13.2661 -1.4263 -2.5079 0.9471
-13.1306 -2.3690 -2.5079 0.9471
-12.5013 -4.6628 -2.5079 0.9471
-12.1369 -5.5427 -2.5079 0.9471
-11.7105 -6.3944 -2.5079 0.9471
-10.9599 -7.6096 -2.5079 0.9471
-10.6813 -7.9959 -2.5079 0.9471
-10.0837 -8.7375 -2.5079 0.9471
-9.7654 -9.0919 -2.5079 0.9471
-9.0919 -9.7654 -2.5079 0.9471
-8.7375 -10.0837 -2.5079 0.9471
-7.6096 -10.9599 -2.5079 0.9471
-6.8083 -11.4748 -2.5079 0.9471
-6.3944 -11.7105 -2.5079 0.9471
-5.5427 -12.1369 -2.5079 0.9471
-5.1060 -12.3270 -2.5079 0.9471
-3.7591 -12.8021 -2.5079 0.9471
-3.2997 -12.9281 -2.5079 0.9471
-2.8362 -13.0377 -2.5079 0.9471
-2.3690 -13.1306 -2.5079 0.9471
-1.4263 -13.2661 -2.5079 0.9471
-0.9518 -13.3086 -2.5079 0.9471
-0.0000 -13.3426 -2.5079 0.9471
0.9518 -13.3086 -2.5079 0.9471
1.8989 -13.2068 -2.5079 0.9471
4.2136 -12.6598 -2.5079 0.9471
5.5427 -12.1369 -2.5079 0.9471
7.9959 -10.6813 -2.5079 0.9471
8.3721 -10.3891 -2.5079 0.9471
8.7375 -10.0837 -2.5079 0.9471
9.0919 -9.7654 -2.5079 0.9471
9.4346 -9.4346 -2.5079 0.9471
10.0837 -8.7375 -2.5079 0.9471
10.6813 -7.9959 -2.5079 0.9471
10.9599 -7.6096 -2.5079 0.9471
11.4748 -6.8083 -2.5079 0.9471
12.1368 -5.5427 -2.5079 0.9471
12.5013 -4.6628 -2.5079 0.9471
12.6598 -4.2136 -2.5079 0.9471
13.1306 -2.3690 -2.5079 0.9471
13.2661 -1.4263 -2.5079 0.9471
13.3086 -0.9519 -2.5079 0.9471
-11.8644 0.0000 -2.5079 0.9527
-11.8568 -0.4235 -2.5079 0.9527
-11.7964 -1.2682 -2.5079 0.9527
-11.5932 -2.5220 -2.5079 0.9527
-11.2572 -3.7468 -2.5079 0.9527
-11.1163 -4.1462 -2.5079 0.9527
-10.9612 -4.5403 -2.5079 0.9527
-10.6094 -5.3107 -2.5079 0.9527
-10.4131 -5.6860 -2.5079 0.9527
-9.7456 -6.7665 -2.5079 0.9527
-9.4979 -7.1100 -2.5079 0.9527
-8.9665 -7.7695 -2.5079 0.9527
-8.3894 -8.3894 -2.5079 0.9527
-8.0846 -8.6835 -2.5079 0.9527
-7.7695 -8.9665 -2.5079 0.9527
-6.4144 -9.9809 -2.5079 0.9527
-5.3107 -10.6094 -2.5079 0.9527
-4.9286 -10.7922 -2.5079 0.9527
-4.5403 -10.9612 -2.5079 0.9527
-4.1462 -11.1163 -2.5079 0.9527
-3.3426 -11.3838 -2.5079 0.9527
-2.1066 -11.6758 -2.5079 0.9527
-1.6885 -11.7436 -2.5079 0.9527
-1.2682 -11.7964 -2.5079 0.9527
0.8464 -11.8341 -2.5079 0.9527
2.1066 -11.6758 -2.5079 0.9527
2.5220 -11.5932 -2.5079 0.9527
4.5403 -10.9612 -2.5079 0.9527
4.9286 -10.7922 -2.5079 0.9527
5.3107 -10.6094 -2.5079 0.9527
6.4144 -9.9809 -2.5079 0.9527
8.0846 -8.6835 -2.5079 0.9527
8.3894 -8.3894 -2.5079 0.9527
8.6835 -8.0846 -2.5079 0.9527
9.4979 -7.1100 -2.5079 0.9527
9.7456 -6.7665 -2.5079 0.9527
9.9809 -6.4144 -2.5079 0.9527
10.2035 -6.0540 -2.5079 0.9527
10.4131 -5.6860 -2.5079 0.9527
10.7922 -4.9286 -2.5079 0.9527
10.9612 -4.5403 -2.5079 0.9527
11.6758 -2.1066 -2.5079 0.9527
11.7436 -1.6885 -2.5079 0.9527
11.7964 -1.2682 -2.5079 0.9527
11.8341 -0.8464 -2.5079 0.9527
-10.6708 0.0000 -2.5079 0.9571
-10.6436 -0.7612 -2.5079 0.9571
-10.5622 -1.5186 -2.5079 0.9571
-10.5013 -1.8946 -2.5079 0.9571
-10.4270 -2.2683 -2.5079 0.9571
-10.2386 -3.0063 -2.5079 0.9571
-10.1247 -3.3698 -2.5079 0.9571
-9.9980 -3.7291 -2.5079 0.9571
-9.8585 -4.0835 -2.5079 0.9571
-9.7065 -4.4328 -2.5079 0.9571
-9.5421 -4.7764 -2.5079 0.9571
-9.3655 -5.1140 -2.5079 0.9571
-9.1770 -5.4450 -2.5079 0.9571
-8.9769 -5.7691 -2.5079 0.9571
-8.7652 -6.0858 -2.5079 0.9571
-8.5424 -6.3948 -2.5079 0.9571
-8.0645 -6.9879 -2.5079 0.9571
-7.8099 -7.2713 -2.5079 0.9571
-7.2713 -7.8099 -2.5079 0.9571
-5.1140 -9.3656 -2.5079 0.9571
-4.7764 -9.5421 -2.5079 0.9571
-4.4328 -9.7065 -2.5079 0.9571
-4.0835 -9.8585 -2.5079 0.9571
-3.3698 -10.1247 -2.5079 0.9571
-3.0063 -10.2386 -2.5079 0.9571
-1.5186 -10.5622 -2.5079 0.9571
-0.0000 -10.6708 -2.5079 0.9571
0.3809 -10.6640 -2.5079 0.9571
0.7612 -10.6436 -2.5079 0.9571
1.1407 -10.6097 -2.5079 0.9571
1.5186 -10.5622 -2.5079 0.9571
1.8946 -10.5013 -2.5079 0.9571
2.6390 -10.3394 -2.5079 0.9571
3.3698 -10.1247 -2.5079 0.9571
4.4328 -9.7065 -2.5079 0.9571
4.7764 -9.5421 -2.5079 0.9571
5.4450 -9.1771 -2.5079 0.9571
5.7691 -8.9769 -2.5079 0.9571
6.0858 -8.7652 -2.5079 0.9571
6.3948 -8.5424 -2.5079 0.9571
6.6956 -8.3087 -2.5079 0.9571
7.2713 -7.8099 -2.5079 0.9571
7.5454 -7.5454 -2.5079 0.9571
7.8099 -7.2713 -2.5079 0.9571
8.5424 -6.3948 -2.5079 0.9571
8.7652 -6.0858 -2.5079 0.9571
8.9769 -5.7691 -2.5079 0.9571
9.1770 -5.4450 -2.5079 0.9571
9.3656 -5.1140 -2.5079 0.9571
9.5421 -4.7764 -2.5079 0.9571
9.9980 -3.7291 -2.5079 0.9571
10.2386 -3.0063 -2.5079 0.9571
10.3393 -2.6390 -2.5079 0.9571
10.6097 -1.1407 -2.5079 0.9571
10.6640 -0.3809 -2.5079 0.9571
-9.6860 0.0000 -2.5079 0.9608
-9.6305 -1.0354 -2.5079 0.9608
-9.5321 -1.7198 -2.5079 0.9608
-9.3852 -2.3954 -2.5079 0.9608
-8.8943 -3.6841 -2.4926 0.9610
-8.6615 -4.3356 -2.5079 0.9608
-8.5012 -4.6420 -2.5079 0.9608
-8.1484 -5.2367 -2.5079 0.9608
-7.9563 -5.5242 -2.5079 0.9608
-7.3202 -6.3430 -2.5079 0.9608
-7.0891 -6.6002 -2.5079 0.9608
-6.8491 -6.8491 -2.5079 0.9608
-6.6002 -7.0892 -2.5079 0.9608
-6.0777 -7.5419 -2.5079 0.9608
-5.2367 -8.1484 -2.5079 0.9608
-4.9425 -8.3301 -2.5079 0.9608
-4.6420 -8.5012 -2.5079 0.9608
-4.3356 -8.6615 -2.5079 0.9608
-4.0237 -8.8107 -2.5079 0.9608
-3.7067 -8.9487 -2.5079 0.9608
-3.0588 -9.1904 -2.5079 0.9608
-2.7289 -9.2937 -2.5079 0.9608
-1.7198 -9.5321 -2.5079 0.9608
-1.3785 -9.5874 -2.5079 0.9608
-1.0354 -9.6305 -2.5079 0.9608
-0.3457 -9.6799 -2.5079 0.9608
0.0000 -9.6860 -2.5079 0.9608
1.0354 -9.6305 -2.5079 0.9608
2.0589 -9.4647 -2.5079 0.9608
2.3954 -9.3852 -2.5079 0.9608
2.7289 -9.2937 -2.5079 0.9608
4.0237 -8.8107 -2.5079 0.9608
4.9425 -8.3301 -2.5079 0.9608
5.2367 -8.1484 -2.5079 0.9608
5.5242 -7.9563 -2.5079 0.9608
5.8046 -7.7541 -2.5079 0.9608
6.6002 -7.0892 -2.5079 0.9608
6.8491 -6.8491 -2.5079 0.9608
7.0891 -6.6002 -2.5079 0.9608
7.9563 -5.5242 -2.5079 0.9608
8.1484 -5.2367 -2.5079 0.9608
9.0753 -3.3849 -2.5079 0.9608
9.2937 -2.7289 -2.5079 0.9608
9.3851 -2.3954 -2.5079 0.9608
9.4647 -2.0589 -2.5079 0.9608
9.5874 -1.3785 -2.5079 0.9608
9.6305 -1.0354 -2.5079 0.9608
-8.8363 -0.6320 -2.5079 0.9638
-8.7687 -1.2608 -2.5079 0.9638
-8.7181 -1.5729 -2.5079 0.9638
-8.6564 -1.8831 -2.5079 0.9638
-8.5000 -2.4958 -2.5079 0.9638
-8.3003 -3.0959 -2.5079 0.9638
-8.1845 -3.3902 -2.5079 0.9638
-8.0583 -3.6801 -2.5079 0.9638
-7.9218 -3.9654 -2.5079 0.9638
-7.7753 -4.2456 -2.5079 0.9638
-7.6188 -4.5204 -2.5079 0.9638
-7.4526 -4.7895 -2.5079 0.9638
-7.2769 -5.0524 -2.5079 0.9638
-6.6951 -5.8013 -2.5079 0.9638
-6.4838 -6.0366 -2.5079 0.9638
-5.5587 -6.8979 -2.5079 0.9638
-5.0524 -7.2769 -2.5079 0.9638
-4.7895 -7.4526 -2.5079 0.9638
-4.2456 -7.7752 -2.5079 0.9638
-3.3901 -8.1845 -2.5079 0.9638
-3.0959 -8.3003 -2.5079 0.9638
-2.7976 -8.4055 -2.5079 0.9638
-2.4958 -8.5000 -2.5079 0.9638
-1.5729 -8.7181 -2.5079 0.9638
-1.2607 -8.7687 -2.5079 0.9638
-0.9470 -8.8081 -2.5079 0.9638
-0.6320 -8.8363 -2.5079 0.9638
-0.3162 -8.8532 -2.5079 0.9638
0.0000 -8.8589 -2.5079 0.9638
0.3162 -8.8532 -2.5079 0.9638
0.6320 -8.8363 -2.5079 0.9638
1.2607 -8.7687 -2.5079 0.9638
1.5729 -8.7181 -2.5079 0.9638
1.8831 -8.6564 -2.5079 0.9638
2.1909 -8.5837 -2.5079 0.9638
2.7976 -8.4055 -2.5079 0.9638
3.0959 -8.3003 -2.5079 0.9638
3.9654 -7.9218 -2.5079 0.9638
4.2456 -7.7752 -2.5079 0.9638
5.0524 -7.2769 -2.5079 0.9638
5.5587 -6.8979 -2.5079 0.9638
6.0366 -6.4838 -2.5079 0.9638
7.4526 -4.7895 -2.5079 0.9638
7.6188 -4.5204 -2.5079 0.9638
8.3003 -3.0959 -2.5079 0.9638
8.4055 -2.7976 -2.5079 0.9638
8.5837 -2.1909 -2.5079 0.9638
8.7181 -1.5729 -2.5079 0.9638
8.8081 -0.9470 -2.5079 0.9638
8.8532 -0.3162 -2.5079 0.9638
-8.1536 0.0000 -2.5079 0.9665
-8.1484 -0.2910 -2.5079 0.9665
-8.1329 -0.5817 -2.5079 0.9665
-8.0706 -1.1604 -2.5079 0.9665
-7.8234 -2.2972 -2.5079 0.9665
-7.6396 -2.8494 -2.5079 0.9665
-7.4168 -3.3871 -2.5079 0.9665
-7.2912 -3.6497 -2.5079 0.9665
-7.1563 -3.9076 -2.5079 0.9665
-7.0123 -4.1606 -2.5079 0.9665
-6.6976 -4.6502 -2.5079 0.9665
-6.5273 -4.8863 -2.5079 0.9665
-6.3488 -5.1162 -2.5079 0.9665
-4.6502 -6.6976 -2.5079 0.9665
-3.9076 -7.1563 -2.5079 0.9665
-3.6497 -7.2912 -2.5079 0.9665
-3.3871 -7.4168 -2.5079 0.9665
-2.8494 -7.6396 -2.5079 0.9665
-1.4477 -8.0241 -2.5079 0.9665
-0.8716 -8.1069 -2.5079 0.9665
-0.5817 -8.1329 -2.5079 0.9665
-0.0000 -8.1537 -2.5079 0.9665
1.1604 -8.0706 -2.5079 0.9665
1.4477 -8.0241 -2.5079 0.9665
2.2971 -7.8234 -2.5079 0.9665
2.8494 -7.6396 -2.5079 0.9665
3.1203 -7.5330 -2.5079 0.9665
3.3871 -7.4168 -2.5079 0.9665
3.9076 -7.1563 -2.5079 0.9665
4.4082 -6.8593 -2.5079 0.9665
5.1162 -6.3488 -2.5079 0.9665
5.3395 -6.1621 -2.5079 0.9665
5.7655 -5.7655 -2.5079 0.9665
5.9676 -5.5560 -2.5079 0.9665
6.3488 -5.1162 -2.5079 0.9665
6.6976 -4.6502 -2.5079 0.9665
7.2912 -3.6497 -2.5079 0.9665
7.7364 -2.5749 -2.5079 0.9665
7.8234 -2.2972 -2.5079 0.9665
7.9004 -2.0165 -2.5079 0.9665
7.9673 -1.7332 -2.5079 0.9665
8.1069 -0.8716 -2.5079 0.9665
-7.5399 -0.2693 -2.5079 0.9687
-7.5254 -0.5382 -2.5079 0.9687
-7.3722 -1.6037 -2.5079 0.9687
-7.2390 -2.1256 -2.5079 0.9687
-7.0690 -2.6366 -2.5079 0.9687
-6.6218 -3.6158 -2.5079 0.9687
-6.4885 -3.8498 -2.5079 0.9687
-5.5219 -5.1411 -2.5079 0.9687
-4.9407 -5.7019 -2.5079 0.9687
-4.0789 -6.3470 -2.5079 0.9687
-3.6158 -6.6218 -2.5079 0.9687
-3.1342 -6.8629 -2.5079 0.9687
-2.6366 -7.0690 -2.5079 0.9687
-2.1256 -7.2390 -2.5079 0.9687
-1.8658 -7.3103 -2.5079 0.9687
-1.6037 -7.3722 -2.5079 0.9687
-0.5382 -7.5254 -2.5079 0.9687
-0.2693 -7.5398 -2.5079 0.9687
-0.0000 -7.5446 -2.5079 0.9687
0.2693 -7.5398 -2.5079 0.9687
0.8065 -7.5014 -2.5079 0.9687
1.3396 -7.4248 -2.5079 0.9687
1.6037 -7.3722 -2.5079 0.9687
1.8658 -7.3103 -2.5079 0.9687
2.1256 -7.2390 -2.5079 0.9687
2.6366 -7.0690 -2.5079 0.9687
2.8872 -6.9704 -2.5079 0.9687
3.1342 -6.8629 -2.5079 0.9687
3.6158 -6.6218 -2.5079 0.9687
3.8498 -6.4885 -2.5079 0.9687
4.0789 -6.3470 -2.5079 0.9687
4.3029 -6.1973 -2.5079 0.9687
4.5213 -6.0398 -2.5079 0.9687
4.7340 -5.8746 -2.5079 0.9687
4.9407 -5.7019 -2.5079 0.9687
5.1411 -5.5219 -2.5079 0.9687
5.3349 -5.3349 -2.5079 0.9687
5.5219 -5.1411 -2.5079 0.9687
6.1973 -4.3029 -2.5079 0.9687
6.3470 -4.0790 -2.5079 0.9687
6.4885 -3.8498 -2.5079 0.9687
6.6218 -3.6158 -2.5079 0.9687
6.7466 -3.3771 -2.5079 0.9687
7.0690 -2.6366 -2.5079 0.9687
7.1586 -2.3826 -2.5079 0.9687
7.4248 -1.3396 -2.5079 0.9687
7.4679 -1.0737 -2.5079 0.9687
7.5398 -0.2693 -2.5079 0.9687
-7.0130 0.0000 -2.5079 0.9706
-6.9951 -0.5003 -2.5079 0.9706
-6.9728 -0.7497 -2.5079 0.9706
-6.8527 -1.4907 -2.5079 0.9706
-6.7289 -1.9758 -2.5079 0.9706
-6.5708 -2.4508 -2.5079 0.9706
-6.4791 -2.6838 -2.5079 0.9706
-6.3792 -2.9133 -2.5079 0.9706
-6.2712 -3.1391 -2.5079 0.9706
-6.0312 -3.5785 -2.5079 0.9706
-5.8997 -3.7915 -2.5079 0.9706
-5.7606 -3.9996 -2.5079 0.9706
-5.6142 -4.2027 -2.5079 0.9706
-5.3000 -4.5925 -2.5079 0.9706
-5.1327 -4.7788 -2.5079 0.9706
-4.9589 -4.9589 -2.5079 0.9706
-4.4004 -5.4606 -2.5079 0.9706
-3.7915 -5.8997 -2.5079 0.9706
-3.1391 -6.2712 -2.5079 0.9706
-2.9133 -6.3792 -2.5079 0.9706
-2.4508 -6.5708 -2.5079 0.9706
-1.9758 -6.7289 -2.5079 0.9706
-1.7344 -6.7951 -2.5079 0.9706
-1.4907 -6.8527 -2.5079 0.9706
-1.2452 -6.9015 -2.5079 0.9706
-0.9981 -6.9416 -2.5079 0.9706
-0.5003 -6.9951 -2.5079 0.9706
-0.2503 -7.0085 -2.5079 0.9706
-0.0000 -7.0130 -2.5079 0.9706
0.7497 -6.9728 -2.5079 0.9706
0.9980 -6.9416 -2.5079 0.9706
1.2452 -6.9015 -2.5079 0.9706
1.4907 -6.8527 -2.5079 0.9706
1.9758 -6.7289 -2.5079 0.9706
2.4508 -6.5708 -2.5079 0.9706
2.6837 -6.4791 -2.5079 0.9706
3.7915 -5.8997 -2.5079 0.9706
3.9996 -5.7606 -2.5079 0.9706
4.4004 -5.4606 -2.5079 0.9706
4.7788 -5.1327 -2.5079 0.9706
5.4606 -4.4004 -2.5079 0.9706
5.6142 -4.2027 -2.5079 0.9706
5.8997 -3.7915 -2.5079 0.9706
6.3792 -2.9133 -2.5079 0.9706
6.4791 -2.6837 -2.5079 0.9706
6.9015 -1.2452 -2.5079 0.9706
6.9728 -0.7497 -2.5079 0.9706
6.9951 -0.5003 -2.5079 0.9706
7.0085 -0.2503 -2.5079 0.9706
-6.5443 0.0000 -2.5079 0.9724
-6.5401 -0.2336 -2.5079 0.9724
-6.5276 -0.4669 -2.5079 0.9724
-6.5068 -0.6996 -2.5079 0.9724
-6.4777 -0.9314 -2.5079 0.9724
-6.4403 -1.1620 -2.5079 0.9724
-6.3947 -1.3911 -2.5079 0.9724
-6.3410 -1.6184 -2.5079 0.9724
-6.2094 -2.0667 -2.5079 0.9724
-6.1317 -2.2870 -2.5079 0.9724
-5.7438 -3.1363 -2.5079 0.9724
-5.3756 -3.7323 -2.5079 0.9724
-5.2390 -3.9218 -2.5079 0.9724
-4.4594 -4.7897 -2.5079 0.9724
-4.2856 -4.9458 -2.5079 0.9724
-4.1063 -5.0956 -2.5079 0.9724
-3.7324 -5.3756 -2.5079 0.9724
-3.5381 -5.5054 -2.5079 0.9724
-3.3394 -5.6282 -2.5079 0.9724
-3.1363 -5.7438 -2.5079 0.9724
-2.7186 -5.9529 -2.5079 0.9724
-2.5044 -6.0461 -2.5079 0.9724
-2.2870 -6.1317 -2.5079 0.9724
-2.0667 -6.2094 -2.5079 0.9724
-1.8437 -6.2792 -2.5079 0.9724
-0.6996 -6.5068 -2.5079 0.9724
-0.4669 -6.5276 -2.5079 0.9724
-0.2336 -6.5401 -2.5079 0.9724
0.2336 -6.5401 -2.5079 0.9724
0.4669 -6.5276 -2.5079 0.9724
1.1620 -6.4403 -2.5079 0.9724
1.3911 -6.3947 -2.5079 0.9724
1.6184 -6.3410 -2.5079 0.9724
1.8437 -6.2792 -2.5079 0.9724
2.0667 -6.2094 -2.5079 0.9724
2.2870 -6.1317 -2.5079 0.9724
2.9293 -5.8521 -2.5079 0.9724
3.3393 -5.6282 -2.5079 0.9724
3.7323 -5.3756 -2.5079 0.9724
4.1063 -5.0956 -2.5079 0.9724
4.4594 -4.7897 -2.5079 0.9724
4.7897 -4.4594 -2.5079 0.9724
5.2390 -3.9218 -2.5079 0.9724
5.5054 -3.5381 -2.5079 0.9724
6.0461 -2.5044 -2.5079 0.9724
6.2792 -1.8437 -2.5079 0.9724
6.3410 -1.6184 -2.5079 0.9724
6.4403 -1.1620 -2.5079 0.9724
6.5276 -0.4669 -2.5079 0.9724
6.5401 -0.2336 -2.5079 0.9724
-6.1237 -0.2187 -2.5079 0.9739
-6.1120 -0.4371 -2.5079 0.9739
-6.0925 -0.6550 -2.5079 0.9739
-6.0303 -1.0880 -2.5079 0.9739
-5.9373 -1.5154 -2.5079 0.9739
-5.8794 -1.7264 -2.5079 0.9739
-5.8141 -1.9351 -2.5079 0.9739
-5.7413 -2.1414 -2.5079 0.9739
-5.6612 -2.3449 -2.5079 0.9739
-5.5739 -2.5455 -2.5079 0.9739
-5.4795 -2.7428 -2.5079 0.9739
-5.3781 -2.9367 -2.5079 0.9739
-5.1549 -3.3129 -2.5079 0.9739
-4.9054 -3.6721 -2.5079 0.9739
-4.7712 -3.8449 -2.5079 0.9739
-4.6310 -4.0127 -2.5079 0.9739
-4.4848 -4.1755 -2.5079 0.9739
-4.1755 -4.4848 -2.5079 0.9739
-4.0127 -4.6310 -2.5079 0.9739
-3.8449 -4.7712 -2.5079 0.9739
-3.4947 -5.0334 -2.5079 0.9739
-2.9367 -5.3781 -2.5079 0.9739
-2.5455 -5.5739 -2.5079 0.9739
-1.7264 -5.8794 -2.5079 0.9739
-1.5154 -5.9373 -2.5079 0.9739
-1.0880 -6.0303 -2.5079 0.9739
-0.8721 -6.0653 -2.5079 0.9739
-0.4371 -6.1120 -2.5079 0.9739
0.6550 -6.0925 -2.5079 0.9739
1.5154 -5.9373 -2.5079 0.9739
1.7264 -5.8794 -2.5079 0.9739
2.1414 -5.7413 -2.5079 0.9739
2.3449 -5.6612 -2.5079 0.9739
2.7428 -5.4795 -2.5079 0.9739
2.9367 -5.3781 -2.5079 0.9739
3.1268 -5.2699 -2.5079 0.9739
3.4947 -5.0334 -2.5079 0.9739
3.6721 -4.9054 -2.5079 0.9739
4.0127 -4.6310 -2.5079 0.9739
4.1755 -4.4848 -2.5079 0.9739
4.3329 -4.3329 -2.5079 0.9739
4.4848 -4.1755 -2.5079 0.9739
4.9054 -3.6721 -2.5079 0.9739
5.0334 -3.4947 -2.5079 0.9739
5.1549 -3.3128 -2.5079 0.9739
5.2698 -3.1267 -2.5079 0.9739
5.3781 -2.9367 -2.5079 0.9739
5.8141 -1.9351 -2.5079 0.9739
5.9373 -1.5154 -2.5079 0.9739
5.9876 -1.3025 -2.5079 0.9739
6.0303 -1.0880 -2.5079 0.9739
6.0653 -0.8721 -2.5079 0.9739
6.1120 -0.4371 -2.5079 0.9739
6.1237 -0.2187 -2.5079 0.9739
-5.7545 0.0000 -2.5079 0.9752
-5.7215 -0.6151 -2.5079 0.9752
-5.6959 -0.8189 -2.5079 0.9752
-5.6630 -1.0217 -2.5079 0.9752
-5.6229 -1.2232 -2.5079 0.9752
-5.5214 -1.6212 -2.5079 0.9752
-5.4600 -1.8172 -2.5079 0.9752
-5.3916 -2.0110 -2.5079 0.9752
-5.3164 -2.2021 -2.5079 0.9752
-5.2344 -2.3905 -2.5079 0.9752
-5.0506 -2.7578 -2.5079 0.9752
-4.8409 -3.1111 -2.5079 0.9752
-4.7268 -3.2819 -2.5079 0.9752
-4.6067 -3.4485 -2.5079 0.9752
-4.4807 -3.6107 -2.5079 0.9752
-4.2117 -3.9212 -2.5079 0.9752
-4.0690 -4.0690 -2.5079 0.9752
-3.9212 -4.2116 -2.5079 0.9752
-3.7684 -4.3489 -2.5079 0.9752
-3.4485 -4.6067 -2.5079 0.9752
-3.1111 -4.8409 -2.5079 0.9752
-2.7578 -5.0506 -2.5079 0.9752
-2.5758 -5.1458 -2.5079 0.9752
-2.3905 -5.2344 -2.5079 0.9752
-2.2021 -5.3164 -2.5079 0.9752
-1.8173 -5.4600 -2.5079 0.9752
-1.6212 -5.5214 -2.5079 0.9752
-1.2232 -5.6229 -2.5079 0.9752
-0.6151 -5.7215 -2.5079 0.9752
0.0000 -5.7544 -2.5079 0.9752
0.2054 -5.7508 -2.5079 0.9752
1.8172 -5.4600 -2.5079 0.9752
2.0110 -5.3916 -2.5079 0.9752
2.2021 -5.3164 -2.5079 0.9752
2.5758 -5.1458 -2.5079 0.9752
2.7578 -5.0506 -2.5079 0.9752
2.9363 -4.9489 -2.5079 0.9752
3.1111 -4.8410 -2.5079 0.9752
3.4485 -4.6067 -2.5079 0.9752
3.7684 -4.3489 -2.5079 0.9752
4.2116 -3.9212 -2.5079 0.9752
4.3489 -3.7684 -2.5079 0.9752
4.4807 -3.6107 -2.5079 0.9752
4.8409 -3.1111 -2.5079 0.9752
4.9489 -2.9363 -2.5079 0.9752
5.1458 -2.5758 -2.5079 0.9752
5.3164 -2.2021 -2.5079 0.9752
5.3916 -2.0110 -2.5079 0.9752
5.4600 -1.8173 -2.5079 0.9752
5.5214 -1.6212 -2.5079 0.9752
5.5757 -1.4231 -2.5079 0.9752
5.7215 -0.6151 -2.5079 0.9752
-5.4179 0.0000 -2.5079 0.9764
-5.4041 -0.3865 -2.5079 0.9764
-5.3869 -0.5792 -2.5079 0.9764
-5.3628 -0.7711 -2.5079 0.9764
-5.3319 -0.9620 -2.5079 0.9764
-5.2941 -1.1517 -2.5079 0.9764
-5.0763 -1.8934 -2.5079 0.9764
-5.0055 -2.0734 -2.5079 0.9764
-4.7552 -2.5965 -2.5079 0.9764
-4.5579 -2.9292 -2.5079 0.9764
-4.4504 -3.0900 -2.5079 0.9764
-4.2186 -3.3996 -2.5079 0.9764
-4.0946 -3.5480 -2.5079 0.9764
-3.9654 -3.6919 -2.5079 0.9764
-3.8311 -3.8311 -2.5079 0.9764
-3.5480 -4.0946 -2.5079 0.9764
-3.3996 -4.2186 -2.5079 0.9764
-3.0900 -4.4504 -2.5079 0.9764
-2.9292 -4.5579 -2.5079 0.9764
-2.5965 -4.7552 -2.5079 0.9764
-2.4252 -4.8449 -2.5079 0.9764
-2.2507 -4.9283 -2.5079 0.9764
-1.8934 -5.0763 -2.5079 0.9764
-1.5264 -5.1985 -2.5079 0.9764
-1.3399 -5.2497 -2.5079 0.9764
-0.9620 -5.3319 -2.5079 0.9764
-0.3865 -5.4041 -2.5079 0.9764
-0.1934 -5.4145 -2.5079 0.9764
0.3865 -5.4041 -2.5079 0.9764
0.5792 -5.3869 -2.5079 0.9764
0.7711 -5.3628 -2.5079 0.9764
1.1517 -5.2941 -2.5079 0.9764
1.3399 -5.2496 -2.5079 0.9764
1.5264 -5.1985 -2.5079 0.9764
1.7110 -5.1407 -2.5079 0.9764
1.8934 -5.0763 -2.5079 0.9764
2.0734 -5.0055 -2.5079 0.9764
2.4252 -4.8449 -2.5079 0.9764
2.5965 -4.7552 -2.5079 0.9764
2.7646 -4.6595 -2.5079 0.9764
2.9292 -4.5579 -2.5079 0.9764
3.0900 -4.4504 -2.5079 0.9764
3.2469 -4.3373 -2.5079 0.9764
3.8311 -3.8311 -2.5079 0.9764
3.9654 -3.6919 -2.5079 0.9764
4.0946 -3.5480 -2.5079 0.9764
4.2186 -3.3996 -2.5079 0.9764
4.3373 -3.2469 -2.5079 0.9764
4.4504 -3.0900 -2.5079 0.9764
4.6595 -2.7646 -2.5079 0.9764
4.8449 -2.4252 -2.5079 0.9764
4.9283 -2.2507 -2.5079 0.9764
5.0763 -1.8934 -2.5079 0.9764
5.1407 -1.7110 -2.5079 0.9764
5.2496 -1.3399 -2.5079 0.9764
5.2941 -1.1517 -2.5079 0.9764
5.3869 -0.5792 -2.5079 0.9764
5.4041 -0.3865 -2.5079 0.9764
5.4145 -0.1934 -2.5079 0.9764
-5.0996 -0.3647 -2.5079 0.9775
-5.0314 -0.9078 -2.5079 0.9775
-4.9539 -1.2644 -2.5079 0.9775
-4.7235 -1.9565 -2.5079 0.9775
-4.4873 -2.4502 -2.5079 0.9775
-4.3011 -2.7641 -2.5079 0.9775
-3.9809 -3.2080 -2.5079 0.9775
-3.8639 -3.3481 -2.5079 0.9775
-3.6152 -3.6152 -2.5079 0.9775
-3.3481 -3.8639 -2.5079 0.9775
-3.2080 -3.9809 -2.5079 0.9775
-2.6088 -4.3970 -2.5079 0.9775
-2.4502 -4.4873 -2.5079 0.9775
-1.4404 -4.9056 -2.5079 0.9775
-1.0868 -4.9958 -2.5079 0.9775
-0.7276 -5.0606 -2.5079 0.9775
-0.1825 -5.1094 -2.5079 0.9775
0.3647 -5.0997 -2.5079 0.9775
0.7276 -5.0606 -2.5079 0.9775
1.0868 -4.9958 -2.5079 0.9775
1.4404 -4.9056 -2.5079 0.9775
1.7867 -4.7903 -2.5079 0.9775
3.0639 -4.0929 -2.5079 0.9775
3.2080 -3.9809 -2.5079 0.9775
3.3481 -3.8639 -2.5079 0.9775
3.4839 -3.7419 -2.5079 0.9775
3.6152 -3.6152 -2.5079 0.9775
3.7419 -3.4839 -2.5079 0.9775
3.9809 -3.2080 -2.5079 0.9775
4.0929 -3.0639 -2.5079 0.9775
4.4873 -2.4502 -2.5079 0.9775
4.6506 -2.1239 -2.5079 0.9775
4.9056 -1.4404 -2.5079 0.9775
4.9958 -1.0868 -2.5079 0.9775
5.0834 -0.5465 -2.5079 0.9775
5.0996 -0.3647 -2.5079 0.9775
5.1094 -0.1825 -2.5079 0.9775
-4.7237 -1.0276 -2.5079 0.9785
-4.5294 -1.6894 -2.5079 0.9785
-4.4662 -1.8500 -2.5079 0.9785
-4.3973 -2.0082 -2.5079 0.9785
-4.3229 -2.1639 -2.5079 0.9785
-4.2429 -2.3168 -2.5079 0.9785
-3.6534 -3.1657 -2.5079 0.9785
-3.5381 -3.2941 -2.5079 0.9785
-3.4183 -3.4183 -2.5079 0.9785
-3.0333 -3.7641 -2.5079 0.9785
-2.7571 -3.9709 -2.5079 0.9785
-2.6136 -4.0668 -2.5079 0.9785
-2.1639 -4.3229 -2.5079 0.9785
-1.8500 -4.4662 -2.5079 0.9785
-1.6894 -4.5294 -2.5079 0.9785
-1.1955 -4.6840 -2.5079 0.9785
-0.8583 -4.7574 -2.5079 0.9785
0.5168 -4.8065 -2.5079 0.9785
0.8583 -4.7574 -2.5079 0.9785
1.0276 -4.7237 -2.5079 0.9785
1.3620 -4.6384 -2.5079 0.9785
1.8500 -4.4662 -2.5079 0.9785
2.3168 -4.2429 -2.5079 0.9785
2.6136 -4.0668 -2.5079 0.9785
2.7571 -3.9709 -2.5079 0.9785
3.0333 -3.7641 -2.5079 0.9785
3.1657 -3.6534 -2.5079 0.9785
3.2941 -3.5381 -2.5079 0.9785
3.5381 -3.2941 -2.5079 0.9785
3.7641 -3.0333 -2.5079 0.9785
3.8700 -2.8970 -2.5079 0.9785
4.2429 -2.3168 -2.5079 0.9785
4.3973 -2.0082 -2.5079 0.9785
4.4662 -1.8500 -2.5079 0.9785
4.7237 -1.0276 -2.5079 0.9785
4.7574 -0.8583 -2.5079 0.9785
4.7850 -0.6880 -2.5079 0.9785
4.8219 -0.3449 -2.5079 0.9785
-4.5789 0.0000 -2.5079 0.9793
-4.5672 -0.3267 -2.5079 0.9793
-4.5527 -0.4895 -2.5079 0.9793
-4.5323 -0.6517 -2.5079 0.9793
-4.3934 -1.2900 -2.5079 0.9793
-4.3446 -1.4460 -2.5079 0.9793
-4.2902 -1.6002 -2.5079 0.9793
-4.2304 -1.7523 -2.5079 0.9793
-4.0188 -2.1944 -2.5079 0.9793
-3.9379 -2.3365 -2.5079 0.9793
-3.8520 -2.4755 -2.5079 0.9793
-3.6656 -2.7440 -2.5079 0.9793
-3.5653 -2.8731 -2.5079 0.9793
-3.4605 -2.9985 -2.5079 0.9793
-3.3513 -3.1202 -2.5079 0.9793
-3.2378 -3.2378 -2.5079 0.9793
-3.1202 -3.3513 -2.5079 0.9793
-2.8731 -3.5653 -2.5079 0.9793
-2.7440 -3.6656 -2.5079 0.9793
-2.6115 -3.7612 -2.5079 0.9793
-2.3365 -3.9379 -2.5079 0.9793
-2.0496 -4.0946 -2.5079 0.9793
-1.9021 -4.1651 -2.5079 0.9793
-1.4460 -4.3446 -2.5079 0.9793
-1.2900 -4.3934 -2.5079 0.9793
-1.1324 -4.4367 -2.5079 0.9793
-0.8130 -4.5062 -2.5079 0.9793
-0.1634 -4.5760 -2.5079 0.9793
0.1634 -4.5760 -2.5079 0.9793
0.3267 -4.5672 -2.5079 0.9793
0.4895 -4.5527 -2.5079 0.9793
0.6516 -4.5323 -2.5079 0.9793
0.9733 -4.4743 -2.5079 0.9793
1.1324 -4.4367 -2.5079 0.9793
1.4460 -4.3446 -2.5079 0.9793
1.6002 -4.2902 -2.5079 0.9793
1.9021 -4.1651 -2.5079 0.9793
2.3365 -3.9379 -2.5079 0.9793
2.4755 -3.8520 -2.5079 0.9793
3.1202 -3.3513 -2.5079 0.9793
3.2378 -3.2378 -2.5079 0.9793
3.3513 -3.1202 -2.5079 0.9793
3.4605 -2.9985 -2.5079 0.9793
3.5653 -2.8731 -2.5079 0.9793
3.6656 -2.7440 -2.5079 0.9793
3.8520 -2.4756 -2.5079 0.9793
3.9379 -2.3365 -2.5079 0.9793
4.0188 -2.1944 -2.5079 0.9793
4.0946 -2.0496 -2.5079 0.9793
4.1651 -1.9022 -2.5079 0.9793
4.2304 -1.7523 -2.5079 0.9793
4.2902 -1.6002 -2.5079 0.9793
4.3446 -1.4460 -2.5079 0.9793
4.5062 -0.8130 -2.5079 0.9793
4.5527 -0.4895 -2.5079 0.9793
4.5760 -0.1634 -2.5079 0.9793
-4.3410 -0.1550 -2.5079 0.9801
-4.3189 -0.4643 -2.5079 0.9801
-4.2445 -0.9233 -2.5079 0.9801
-4.1678 -1.2238 -2.5079 0.9801
-4.0699 -1.5180 -2.5079 0.9801
-3.9512 -1.8045 -2.5079 0.9801
-3.8843 -1.9444 -2.5079 0.9801
-3.8124 -2.0818 -2.5079 0.9801
-3.6542 -2.3484 -2.5079 0.9801
-3.5681 -2.4774 -2.5079 0.9801
-3.1792 -2.9599 -2.5079 0.9801
-2.9599 -3.1792 -2.5079 0.9801
-2.7256 -3.3823 -2.5079 0.9801
-2.4774 -3.5681 -2.5079 0.9801
-2.3484 -3.6542 -2.5079 0.9801
-2.0818 -3.8124 -2.5079 0.9801
-1.5180 -4.0699 -2.5079 0.9801
-0.9233 -4.2445 -2.5079 0.9801
-0.7713 -4.2748 -2.5079 0.9801
-0.6182 -4.2996 -2.5079 0.9801
-0.4643 -4.3189 -2.5079 0.9801
-0.3099 -4.3327 -2.5079 0.9801
-0.1550 -4.3410 -2.5079 0.9801
0.0000 -4.3438 -2.5079 0.9801
0.3099 -4.3327 -2.5079 0.9801
0.4643 -4.3189 -2.5079 0.9801
0.7713 -4.2748 -2.5079 0.9801
0.9233 -4.2445 -2.5079 0.9801
1.0742 -4.2089 -2.5079 0.9801
1.2238 -4.1678 -2.5079 0.9801
1.6623 -4.0131 -2.5079 0.9801
1.8045 -3.9512 -2.5079 0.9801
1.9444 -3.8843 -2.5079 0.9801
2.0818 -3.8125 -2.5079 0.9801
2.3484 -3.6542 -2.5079 0.9801
2.7256 -3.3823 -2.5079 0.9801
2.9599 -3.1792 -2.5079 0.9801
3.0715 -3.0715 -2.5079 0.9801
3.2828 -2.8446 -2.5079 0.9801
3.3823 -2.7256 -2.5079 0.9801
3.4774 -2.6031 -2.5079 0.9801
3.7357 -2.2165 -2.5079 0.9801
3.8124 -2.0818 -2.5079 0.9801
3.8843 -1.9444 -2.5079 0.9801
3.9512 -1.8045 -2.5079 0.9801
4.0131 -1.6623 -2.5079 0.9801
4.1215 -1.3718 -2.5079 0.9801
4.1678 -1.2238 -2.5079 0.9801
4.2445 -0.9233 -2.5079 0.9801
4.3327 -0.3099 -2.5079 0.9801
