ply
format ascii 1.0
element vertex 1412
property float32 x
property float32 y
property float32 z
property float32 I
end_header
34.1670 17.1028 6.7372 0.8563
31.0775 16.9696 6.2435 0.8660
25.4151 17.6460 5.4556 0.8819
23.6943 17.7373 5.2189 0.8867
21.4985 17.3246 4.8684 0.8939
20.6560 17.8985 4.8193 0.8949
19.3003 17.9692 4.6498 0.8984
18.0364 18.0364 4.4976 0.9016
16.5469 17.7727 4.2818 0.9061
14.6877 18.2263 4.1274 0.9093
13.7932 18.4256 4.0584 0.9108
11.8033 18.3662 3.8496 0.9151
4.4530 9.7506 1.8901 0.9574
4.2007 10.1414 1.9355 0.9564
7.1004 19.0369 3.5826 0.9208
6.2347 18.7322 3.4811 0.9229
5.0351 17.1482 3.1513 0.9300
1.8209 25.4597 4.5007 0.9015
0.6823 19.1056 3.3710 0.9253
-3.7028 25.7532 4.5877 0.8997
-4.6557 25.8048 4.6235 0.8990
-4.9436 19.3687 3.5247 0.9220
-5.6654 19.2944 3.5458 0.9216
-6.3194 18.9867 3.5284 0.9219
-9.0626 19.8443 3.8467 0.9152
-10.6904 19.5779 3.9332 0.9134
-12.4099 19.3102 4.0474 0.9110
-13.6919 19.7201 4.2331 0.9071
-15.9906 19.8431 4.4936 0.9017
-18.0835 19.4230 4.6794 0.8978
-21.6328 20.1408 5.2117 0.8869
-23.0692 19.9895 5.3824 0.8834
-14.9619 10.3883 3.2117 0.9287
24.4945 9.1360 4.0049 0.8996
40.4407 16.7511 6.7057 0.8377
37.0555 16.9227 6.2407 0.8480
31.7046 17.3120 5.5339 0.8640
29.3853 17.4352 5.2344 0.8709
23.6928 17.7362 4.5339 0.8871
21.7141 17.4983 4.2721 0.8933
16.5469 17.7726 3.7200 0.9064
14.7810 18.3421 3.6087 0.9091
16.7738 24.1588 4.5056 0.8878
4.8942 9.7774 1.6750 0.9567
4.4517 9.7479 1.6417 0.9576
10.3213 24.9180 4.1318 0.8966
9.3539 25.0789 4.1005 0.8973
6.2592 18.8058 3.0363 0.9229
5.0333 17.1419 2.7369 0.9303
4.6968 18.4017 2.9094 0.9260
3.4538 19.1429 2.9799 0.9243
0.6851 19.1839 2.9407 0.9253
-0.6674 18.6865 2.8645 0.9271
-4.9738 19.4872 3.0810 0.9218
-5.6651 19.2936 3.0805 0.9219
-7.0971 19.0280 3.1111 0.9211
-10.7394 19.6676 3.4329 0.9133
-12.4099 19.3101 3.5164 0.9113
-13.7833 19.8517 3.7023 0.9068
-15.0876 20.1547 3.8569 0.9031
-16.0652 19.9357 3.9223 0.9016
-20.0545 20.0545 4.3448 0.8916
-21.6305 20.1387 4.5275 0.8873
-22.9779 19.9104 4.6577 0.8842
24.4591 9.1228 3.3994 0.9001
39.7390 16.4604 5.6012 0.8407
37.2619 17.0169 5.3343 0.8477
31.7036 17.3115 4.7039 0.8644
29.3830 17.4338 4.4491 0.8713
27.0734 17.3990 4.1908 0.8783
25.5187 17.7179 4.0455 0.8822
25.9696 24.1786 4.6206 0.8666
16.5468 17.7725 3.1622 0.9067
15.6754 18.0904 3.1171 0.9080
14.8699 18.4524 3.0860 0.9088
9.9668 18.2528 2.7082 0.9195
4.8725 9.7341 1.4175 0.9570
4.4505 9.7451 1.3951 0.9577
7.8512 18.9546 2.6716 0.9206
9.4139 25.2397 3.5079 0.8970
6.2774 18.8606 2.5885 0.9229
5.0340 17.1444 2.3268 0.9305
3.4657 19.2090 2.5418 0.9243
1.8603 26.0108 3.3958 0.9002
-0.6674 18.6865 2.4349 0.9273
-1.3390 18.7221 2.4442 0.9271
-2.0789 19.3369 2.5326 0.9245
-3.7829 26.3105 3.4614 0.8983
-3.5278 19.5533 2.5874 0.9230
-5.5491 25.5089 3.3995 0.9001
-5.6556 19.2611 2.6141 0.9222
-10.8237 26.1307 3.6831 0.8922
-13.1542 26.2788 3.8268 0.8882
-10.7882 19.7571 2.9313 0.9132
-11.4539 19.3046 2.9230 0.9134
-12.4098 19.3100 2.9891 0.9116
-21.9083 31.5540 5.0023 0.8565
-22.4186 29.9478 4.8715 0.8599
-16.1777 20.0752 3.3574 0.9012
-18.2648 19.6177 3.4904 0.8975
-20.4359 20.4359 3.7635 0.8900
-21.8170 20.3124 3.8817 0.8867
-14.9749 10.3973 2.3740 0.9291
24.4240 9.1097 2.7992 0.9004
39.5155 16.3679 4.5929 0.8419
37.2581 17.0152 4.3983 0.8481
27.0730 17.3988 3.4557 0.8786
20.8148 18.0361 2.9575 0.8951
26.1424 24.3395 3.8356 0.8662
16.5422 16.5422 2.5121 0.9102
16.8841 24.3177 3.1790 0.8877
10.7282 18.0814 2.2576 0.9189
4.8711 9.7313 1.1686 0.9572
9.4836 25.4265 2.9141 0.8966
6.1636 18.5186 2.0958 0.9245
5.0276 17.1223 1.9162 0.9307
4.0542 18.6367 2.0480 0.9261
3.7196 25.8705 2.8066 0.9002
2.8055 26.0947 2.8182 0.8998
0.0000 8.4657 0.9091 0.9665
-0.6674 18.6864 2.0079 0.9275
-2.0376 18.9520 2.0468 0.9262
-3.8023 26.4456 2.8690 0.8981
-4.6968 26.0322 2.8405 0.8990
-5.5491 25.5088 2.8032 0.9003
-7.9604 19.2182 2.2337 0.9197
-9.1345 20.0017 2.3612 0.9153
-13.2609 26.4920 3.1812 0.8876
-12.4098 19.3100 2.4648 0.9118
-15.1231 20.2021 2.7098 0.9035
-17.1455 19.7869 2.8115 0.9000
-23.1556 20.0644 3.2900 0.8840
24.3895 9.0968 2.2036 0.9008
40.8254 16.9104 3.7407 0.8375
33.6868 16.8624 3.1890 0.8597
32.0606 17.5065 3.0923 0.8636
27.9647 16.5922 2.7526 0.8776
27.0727 17.3986 2.7242 0.8788
26.2020 18.1924 2.7003 0.8798
32.1624 24.0765 3.4010 0.8511
21.7137 17.4981 2.3607 0.8941
20.4245 17.6979 2.2878 0.8972
26.4644 24.6393 3.0609 0.8649
16.5361 16.5361 1.9797 0.9104
16.5467 17.7724 2.0556 0.9071
14.5791 18.0916 1.9669 0.9109
11.7659 18.3081 1.8423 0.9163
10.7281 18.0813 1.7798 0.9191
9.9663 18.2519 1.7604 0.9199
4.8698 9.7286 0.9210 0.9573
4.4480 9.7397 0.9064 0.9579
10.2815 24.8218 2.2744 0.8978
6.1910 18.6011 1.6596 0.9243
4.6967 18.4015 1.6077 0.9266
1.8473 25.8282 2.1920 0.9013
0.6747 18.8901 1.6001 0.9269
0.0000 8.4647 0.7166 0.9666
-5.5491 25.5087 2.2099 0.9005
-7.0970 19.0278 1.7191 0.9217
-8.0144 19.3486 1.7729 0.9194
-11.8011 25.8407 2.4048 0.8922
-10.3020 20.5808 1.9483 0.9117
-11.4544 19.3053 1.9002 0.9138
-22.8018 30.4596 3.2209 0.8584
-16.0546 19.9225 2.1659 0.9024
-17.1169 19.7540 2.2127 0.9004
-22.2128 20.6809 2.5692 0.8853
33.6866 16.8623 2.3360 0.8599
31.6663 17.2911 2.2373 0.8654
27.9861 16.6050 2.0179 0.8777
27.0723 17.3983 1.9955 0.8790
26.0479 18.0854 1.9664 0.8807
21.7137 17.4980 1.7292 0.8943
20.4385 19.0289 1.7317 0.8941
16.5466 17.7723 1.5058 0.9073
15.6746 18.0895 1.4843 0.9085
14.6794 18.2161 1.4507 0.9105
18.3489 24.5112 1.8986 0.8845
11.7650 18.3066 1.3494 0.9165
9.9660 18.2514 1.2895 0.9200
4.8684 9.7259 0.6744 0.9573
9.3202 24.9886 1.6538 0.8986
4.6967 18.4015 1.1777 0.9267
4.0720 18.7186 1.1879 0.9261
3.6362 25.2905 1.5844 0.9027
2.7858 25.9115 1.6160 0.9008
0.6746 18.8887 1.1720 0.9270
0.0000 8.4637 0.5248 0.9666
-0.6674 18.6863 1.1595 0.9278
-1.3390 18.7220 1.1639 0.9275
-5.6485 19.2371 1.2433 0.9228
-11.8010 25.8406 1.7616 0.8924
-10.3737 20.7240 1.4371 0.9113
-10.6415 19.4885 1.3769 0.9149
-12.4097 19.3098 1.4233 0.9121
-13.6418 19.6480 1.4833 0.9086
-22.8694 30.5500 2.3664 0.8582
-16.1400 20.0284 1.5950 0.9020
-17.7549 19.0701 1.6157 0.9008
-22.1468 20.6194 1.8764 0.8858
-14.6544 10.9701 1.1351 0.9293
-14.9942 10.4106 1.1319 0.9295
33.6864 16.8622 1.4854 0.8600
29.2737 17.3689 1.3422 0.8726
23.6028 17.6688 1.1626 0.8887
21.7136 17.4979 1.0996 0.8944
20.5769 17.8300 1.0736 0.8967
20.4393 19.0297 1.1012 0.8942
16.5465 17.7723 0.9575 0.9074
15.6743 18.0892 0.9438 0.9086
14.6802 18.2171 0.9225 0.9106
18.3473 24.5091 1.2072 0.8847
11.7640 18.3052 0.8580 0.9166
10.7280 18.0812 0.8290 0.9193
4.8671 9.7231 0.4287 0.9574
10.3197 24.9140 1.0633 0.8977
9.3196 24.9867 1.0516 0.8987
4.6967 18.4014 0.7488 0.9268
3.3811 18.7402 0.7509 0.9266
3.6360 25.2887 1.0074 0.9028
2.8133 26.1673 1.0378 0.9000
0.6746 18.8874 0.7452 0.9271
0.0000 8.4628 0.3337 0.9667
-1.3390 18.7219 0.7401 0.9276
-3.8129 26.5191 1.0564 0.8983
-4.6428 25.7330 1.0311 0.9006
-5.5491 25.5086 1.0293 0.9008
-4.8956 19.1806 0.7806 0.9238
-6.3193 18.9864 0.7890 0.9230
-8.0132 19.3456 0.8257 0.9196
-10.3747 20.7260 0.9139 0.9114
-11.4548 19.3061 0.8852 0.9141
-12.4096 19.3098 0.9051 0.9122
-13.6406 19.6462 0.9431 0.9087
-22.8019 30.4598 1.5003 0.8587
-16.1412 20.0300 1.0143 0.9021
-17.1463 19.7878 1.0324 0.9005
-18.2644 19.6174 1.0569 0.8983
-22.1483 20.6208 1.1932 0.8859
-14.6500 10.9668 0.7216 0.9294
24.3687 9.0890 0.4393 0.9012
37.4967 17.1242 0.6963 0.8480
31.7887 17.3580 0.6118 0.8651
27.0716 17.3979 0.5436 0.8792
23.6002 17.6669 0.4980 0.8888
21.7135 17.4978 0.4711 0.8944
20.4401 19.0305 0.4718 0.8943
15.6740 18.0888 0.4043 0.9087
18.3457 24.5070 0.5171 0.8847
16.8838 24.3174 0.5001 0.8883
11.7631 18.3037 0.3675 0.9166
9.9655 18.2505 0.3512 0.9202
4.4496 9.7432 0.1809 0.9581
9.3188 24.9848 0.4504 0.8988
6.1897 18.5970 0.3311 0.9246
3.3809 18.7388 0.3216 0.9267
3.6357 25.2869 0.4315 0.9028
2.8133 26.1672 0.4446 0.9001
1.8750 26.2170 0.4440 0.9002
0.0000 8.4618 0.1429 0.9667
-3.8129 26.5190 0.4526 0.8984
-4.6424 25.7311 0.4417 0.9007
-4.8952 19.1792 0.3344 0.9239
-7.0969 19.0276 0.3430 0.9220
-8.0126 19.3441 0.3537 0.9196
-11.8009 25.8405 0.4799 0.8926
-10.6397 19.4852 0.3750 0.9150
-11.4550 19.3064 0.3791 0.9141
-12.4096 19.3097 0.3877 0.9123
-17.1465 19.7882 0.4423 0.9006
-18.2644 19.6173 0.4528 0.8983
40.4910 16.7719 -0.2467 0.8392
37.4980 17.1248 -0.2321 0.8480
29.2663 17.3645 -0.1916 0.8727
27.0712 17.3977 -0.1812 0.8792
21.7134 17.4977 -0.1570 0.8944
17.9629 17.9629 -0.1430 0.9034
16.5464 17.7721 -0.1367 0.9074
15.6738 18.0885 -0.1348 0.9087
14.6819 18.2191 -0.1317 0.9107
16.8838 24.3173 -0.1667 0.8883
10.7280 18.0811 -0.1184 0.9193
4.8643 9.7177 -0.0612 0.9575
4.4516 9.7477 -0.0603 0.9580
10.3190 24.9123 -0.1518 0.8978
9.3181 24.9829 -0.1501 0.8988
6.1892 18.5956 -0.1103 0.9246
4.6967 18.4013 -0.1069 0.9268
0.0000 8.4608 -0.0476 0.9667
-0.6674 18.6861 -0.1053 0.9279
-3.8129 26.5190 -0.1508 0.8984
-5.5490 25.5084 -0.1470 0.9008
-4.8948 19.1777 -0.1114 0.9239
-6.3192 18.9862 -0.1127 0.9231
-8.0119 19.3425 -0.1179 0.9197
-11.8009 25.8404 -0.1599 0.8926
-13.1053 26.1811 -0.1648 0.8895
-11.4553 19.3068 -0.1264 0.9141
-12.4096 19.3096 -0.1292 0.9123
-22.8040 30.4626 -0.2142 0.8588
-16.1437 20.0331 -0.1449 0.9022
-17.1468 19.7885 -0.1474 0.9006
-18.2643 19.6172 -0.1509 0.8983
-23.1571 20.0657 -0.1725 0.8846
37.4993 17.1254 -1.1608 0.8479
31.7910 17.3592 -1.0199 0.8651
29.2626 17.3624 -0.9581 0.8727
27.0709 17.3974 -0.9061 0.8792
26.1400 18.1493 -0.8961 0.8804
23.5950 17.6630 -0.8299 0.8887
21.7133 17.4977 -0.7852 0.8944
20.5705 17.8244 -0.7664 0.8968
17.9612 17.9612 -0.7152 0.9034
16.5463 17.7720 -0.6837 0.9074
15.6735 18.0882 -0.6739 0.9087
14.6827 18.2201 -0.6589 0.9106
18.3426 24.5029 -0.8618 0.8847
10.7279 18.0810 -0.5920 0.9193
9.9650 18.2496 -0.5855 0.9202
4.8630 9.7150 -0.3059 0.9575
9.3216 24.9922 -0.7511 0.8988
6.1887 18.5942 -0.5518 0.9246
5.3922 18.3643 -0.5389 0.9263
4.0708 18.7133 -0.5392 0.9262
3.3804 18.7361 -0.5361 0.9266
3.6352 25.2832 -0.7192 0.9028
-1.3390 18.7217 -0.5285 0.9276
-2.0459 19.0297 -0.5389 0.9263
-3.8129 26.5189 -0.7544 0.8983
-4.6417 25.7273 -0.7361 0.9007
-5.6468 19.2313 -0.5644 0.9229
-6.3192 18.9862 -0.5634 0.9230
-10.6379 19.4819 -0.6250 0.9150
-22.8051 30.4640 -1.0715 0.8587
-16.1451 20.0348 -0.7245 0.9022
-17.1471 19.7887 -0.7373 0.9005
-18.2642 19.6171 -0.7547 0.8983
-14.6368 10.9570 -0.5148 0.9294
49.7714 1.7776 -2.5257 0.8192
44.7696 6.4369 -2.2938 0.8343
46.0374 8.3061 -2.3724 0.8291
45.7121 9.9441 -2.3725 0.8291
44.8853 13.1795 -2.3724 0.8291
44.3851 14.7728 -2.3724 0.8291
24.3480 9.0813 -1.3179 0.9012
40.3606 16.7179 -2.2155 0.8395
37.4409 17.0987 -2.0874 0.8480
33.6856 16.8618 -1.9104 0.8600
31.7323 17.3272 -1.8336 0.8652
27.0705 17.3972 -1.6319 0.8791
26.1409 18.1500 -1.6139 0.8803
16.5463 17.7720 -1.2314 0.9073
15.6732 18.0879 -1.2138 0.9086
14.6835 18.2211 -1.1868 0.9105
18.3411 24.5008 -1.5521 0.8846
11.7602 18.2992 -1.1032 0.9166
10.7279 18.0809 -1.0662 0.9192
4.4558 9.7568 -0.5440 0.9580
6.1883 18.5928 -0.9938 0.9245
5.3922 18.3643 -0.9706 0.9262
3.3801 18.7348 -0.9655 0.9266
3.6349 25.2814 -1.2953 0.9028
2.8132 26.1670 -1.3347 0.9000
1.8750 26.2168 -1.3330 0.9001
0.0000 8.4589 -0.4290 0.9667
-0.6674 18.6860 -0.9483 0.9278
-1.3390 18.7217 -0.9519 0.9276
-2.0458 19.0284 -0.9706 0.9262
-5.6464 19.2298 -1.0164 0.9229
-7.0968 19.0274 -1.0299 0.9219
-8.0107 19.3395 -1.0616 0.9196
-13.1032 26.1769 -1.4846 0.8894
-10.6370 19.4802 -1.1256 0.9149
-13.6358 19.6392 -1.2125 0.9087
-16.1464 20.0364 -1.3050 0.9021
-17.1473 19.7891 -1.3279 0.9004
-38.1801 30.7675 -2.4867 0.8217
-14.6324 10.9537 -0.9270 0.9294
-41.2183 26.4894 -2.4848 0.8218
-42.1274 24.9954 -2.4842 0.8219
-42.9827 23.4703 -2.4836 0.8219
-43.7833 21.9163 -2.4831 0.8219
-45.2165 18.7293 -2.4820 0.8220
-46.4199 15.4500 -2.4811 0.8221
-46.9336 13.7809 -2.4807 0.8221
-47.3879 12.0950 -2.4803 0.8221
-48.3891 6.9573 -2.4793 0.8222
-48.6009 5.2251 -2.4790 0.8222
34.3233 1.2259 -2.5183 0.8713
34.1509 3.6716 -2.5184 0.8713
33.7195 6.0837 -2.5123 0.8716
31.5223 6.8573 -2.3653 0.8786
30.9523 9.0884 -2.3653 0.8786
23.6365 8.8160 -1.8497 0.9038
28.8416 14.4371 -2.3649 0.8787
28.3061 15.4563 -2.3647 0.8787
27.0702 17.3970 -2.3594 0.8789
26.0783 18.1065 -2.3278 0.8804
21.7131 17.4975 -2.0446 0.8942
20.5042 17.7670 -1.9893 0.8969
20.3870 18.9810 -2.0424 0.8943
16.5462 17.7719 -1.7804 0.9072
14.6201 18.1425 -1.7084 0.9108
18.2999 24.4458 -2.2390 0.8847
16.8836 24.3170 -2.1706 0.8880
11.7592 18.2977 -1.5948 0.9165
10.7279 18.0809 -1.5415 0.9191
4.8603 9.7096 -0.7961 0.9574
4.4579 9.7614 -0.7868 0.9579
5.3922 18.3642 -1.4034 0.9261
4.0702 18.7106 -1.4040 0.9261
3.3799 18.7334 -1.3958 0.9265
1.8750 26.2167 -1.9272 0.8999
-2.0456 19.0270 -1.4031 0.9261
-4.8937 19.1734 -1.4509 0.9237
-5.6460 19.2283 -1.4694 0.9228
-6.3192 18.9860 -1.4672 0.9229
-11.8008 25.8401 -2.0829 0.8923
-11.4559 19.3079 -1.6461 0.9139
-12.4094 19.3094 -1.6830 0.9121
-13.5946 19.5800 -1.7478 0.9088
-19.1505 25.5821 -2.3431 0.8797
-22.0976 20.5736 -2.2138 0.8860
-23.1581 20.0666 -2.2468 0.8844
-26.8305 17.2429 -2.3385 0.8799
-27.4243 16.2716 -2.3381 0.8799
-28.9931 13.2407 -2.3370 0.8800
-31.7896 11.8569 -2.4877 0.8728
-32.5465 9.5565 -2.4871 0.8728
-32.8631 8.3878 -2.4868 0.8728
-33.1381 7.2088 -2.4866 0.8728
-33.3711 6.0208 -2.4863 0.8728
-33.5617 4.8255 -2.4861 0.8729
-33.8153 2.4185 -2.4857 0.8729
26.1886 -0.0000 -2.5142 0.9001
26.1729 0.9348 -2.5143 0.9001
26.1236 1.8684 -2.5144 0.9001
25.9249 3.7275 -2.5145 0.9001
25.7756 4.6505 -2.5145 0.9001
23.6018 6.9301 -2.3615 0.9059
23.3390 7.7680 -2.3615 0.9059
22.7243 9.4127 -2.3614 0.9059
22.3731 10.2175 -2.3613 0.9059
21.9933 11.0090 -2.3612 0.9059
20.1981 14.0238 -2.3607 0.9059
16.5461 17.7718 -2.3312 0.9070
14.6209 18.1435 -2.2371 0.9106
14.0101 20.1784 -2.3584 0.9060
10.7278 18.0808 -2.0184 0.9190
4.8589 9.7069 -1.0421 0.9573
4.4600 9.7660 -1.0307 0.9578
4.6966 18.4011 -1.8232 0.9265
4.0573 18.6513 -1.8325 0.9262
3.3697 18.6767 -1.8220 0.9266
2.6203 24.3727 -2.3534 0.9062
0.0000 8.4569 -0.8119 0.9666
-0.6674 18.6859 -1.7951 0.9276
-2.0393 18.9686 -1.8316 0.9262
-5.2022 23.9143 -2.3496 0.9063
-6.3192 18.9860 -1.9211 0.9227
-7.9860 19.2799 -2.0035 0.9196
-10.3338 20.6443 -2.2164 0.9114
-11.4562 19.3083 -2.1554 0.9137
-13.5934 19.5782 -2.2882 0.9087
-15.3213 19.0125 -2.3442 0.9065
-15.9875 18.4506 -2.3438 0.9066
-17.2576 17.2576 -2.3431 0.9066
-17.8598 16.6281 -2.3427 0.9066
-13.8889 12.0347 -1.7643 0.9288
-18.9950 15.3071 -2.3420 0.9066
-15.0389 10.4417 -1.7577 0.9291
-15.1433 9.7320 -1.7282 0.9302
-20.9688 12.4414 -2.3408 0.9067
-21.3969 11.6836 -2.3405 0.9067
-21.7977 10.9112 -2.3402 0.9067
-20.1183 9.1877 -2.1233 0.9150
-24.2492 9.0445 -2.4847 0.9012
-24.6166 8.1932 -2.4908 0.9010
-25.1339 6.4150 -2.4903 0.9010
-25.5236 4.6050 -2.4900 0.9010
-25.7837 2.7720 -2.4896 0.9010
-25.9130 0.9255 -2.4894 0.9010
21.1457 0.0000 -2.5118 0.9183
21.0930 1.5086 -2.5120 0.9183
21.0262 2.2606 -2.5120 0.9183
20.9324 3.0096 -2.5120 0.9183
20.6646 4.4953 -2.5121 0.9183
12.0608 3.0783 -1.4786 0.9511
18.7466 6.9921 -2.3767 0.9226
18.3483 7.6001 -2.3591 0.9231
18.0649 8.2500 -2.3590 0.9231
15.8941 11.8981 -2.3584 0.9231
14.0351 14.0351 -2.3577 0.9232
11.3150 16.2967 -2.3567 0.9232
10.7251 16.6885 -2.3564 0.9232
10.1215 17.0589 -2.3562 0.9232
7.5873 18.3173 -2.3551 0.9232
6.9278 18.5741 -2.3548 0.9233
4.0570 18.6500 -2.2672 0.9260
2.1171 19.6922 -2.3526 0.9233
1.4127 19.7524 -2.3523 0.9233
0.6722 18.8216 -2.2372 0.9269
0.0000 8.4559 -1.0044 0.9665
-0.6674 18.6858 -2.2210 0.9274
-1.3390 18.7215 -2.2295 0.9272
-2.0392 18.9673 -2.2660 0.9260
-4.2045 19.3278 -2.3496 0.9234
-4.8784 19.1135 -2.3432 0.9236
-6.9083 18.5218 -2.3482 0.9235
-7.5639 18.2608 -2.3478 0.9235
-10.0799 16.9887 -2.3465 0.9235
-11.2630 16.2218 -2.3458 0.9235
-11.8332 15.8074 -2.3455 0.9235
-13.4499 14.4462 -2.3446 0.9236
-14.4426 13.4465 -2.3440 0.9236
-13.8536 12.0042 -2.1775 0.9288
-14.0695 9.7686 -2.0346 0.9333
-15.1823 9.7571 -2.1438 0.9299
-16.2280 9.6285 -2.2414 0.9268
-17.3060 9.4498 -2.3422 0.9236
-19.3918 8.0324 -2.4933 0.9189
-19.6645 7.3345 -2.4931 0.9189
-20.3313 5.1893 -2.4925 0.9190
-20.5023 4.4600 -2.4923 0.9190
-20.7658 2.9857 -2.4921 0.9190
-20.8581 2.2425 -2.4919 0.9190
17.7160 0.0000 -2.5102 0.9309
17.7052 0.6324 -2.5102 0.9309
17.6717 1.2639 -2.5103 0.9309
17.5370 2.5215 -2.5104 0.9309
17.4360 3.1458 -2.5104 0.9309
12.2376 3.1235 -1.7895 0.9503
16.9998 4.9916 -2.5104 0.9309
16.6000 6.1915 -2.5103 0.9309
16.3539 6.7740 -2.5081 0.9310
15.6483 7.1463 -2.4375 0.9329
14.6023 7.9735 -2.3573 0.9350
14.3079 8.4893 -2.3573 0.9350
13.6647 9.4876 -2.3571 0.9350
13.3167 9.9688 -2.3569 0.9350
12.1727 11.3332 -2.3565 0.9350
8.9871 13.9842 -2.3553 0.9350
8.4815 14.2948 -2.3551 0.9351
4.4642 9.7752 -1.5226 0.9575
6.3584 15.3505 -2.3542 0.9351
2.3628 16.4335 -2.3524 0.9351
1.1841 16.5564 -2.3518 0.9351
0.0000 8.4549 -1.1980 0.9664
-0.5922 16.5821 -2.3510 0.9352
-1.1836 16.5485 -2.3507 0.9352
-1.7733 16.4937 -2.3504 0.9352
-2.9446 16.3210 -2.3498 0.9352
-3.5249 16.2035 -2.3496 0.9352
-4.1004 16.0654 -2.3493 0.9352
-2.4818 8.4521 -1.2481 0.9650
-5.7921 15.5292 -2.3484 0.9352
-6.3419 15.3107 -2.3481 0.9352
-6.8835 15.0728 -2.3478 0.9352
-7.9394 14.5398 -2.3473 0.9353
-8.4523 14.2455 -2.3470 0.9353
-8.9543 13.9331 -2.3467 0.9353
-9.4448 13.6031 -2.3464 0.9353
-9.9232 13.2558 -2.3462 0.9353
-10.3888 12.8917 -2.3459 0.9353
-10.8411 12.5113 -2.3456 0.9353
-11.7036 11.7036 -2.3451 0.9353
-12.8837 10.3823 -2.3444 0.9353
-13.2448 9.9149 -2.3442 0.9353
-13.9158 8.9431 -2.3438 0.9354
-14.2249 8.4400 -2.3436 0.9354
-16.0164 7.3144 -2.4948 0.9313
-16.2661 6.7376 -2.4946 0.9313
-16.7030 5.5593 -2.4943 0.9314
-17.0550 4.3530 -2.4940 0.9314
-17.3203 3.1249 -2.4937 0.9314
-17.4200 2.5046 -2.4936 0.9314
-17.4975 1.8812 -2.4935 0.9314
-17.5529 1.2554 -2.4934 0.9314
-17.5859 0.6281 -2.4933 0.9314
15.2300 0.0000 -2.5090 0.9401
15.1918 1.0865 -2.5091 0.9401
15.0760 2.1676 -2.5091 0.9401
14.9891 2.7043 -2.5092 0.9401
12.2376 3.1235 -2.0807 0.9501
14.6141 4.2911 -2.5092 0.9401
14.2704 5.3226 -2.5091 0.9401
14.0711 5.8285 -2.5091 0.9401
13.8539 6.3268 -2.5090 0.9401
12.3501 7.3277 -2.3657 0.9434
11.4484 8.5701 -2.3559 0.9437
11.1347 8.9729 -2.3558 0.9437
10.8068 9.3641 -2.3557 0.9437
10.1102 10.1102 -2.3554 0.9437
9.3620 10.8043 -2.3551 0.9437
8.1518 11.7408 -2.3547 0.9437
5.7217 8.9031 -1.7435 0.9580
7.2923 12.2906 -2.3543 0.9437
6.8485 12.5421 -2.3541 0.9437
4.4663 9.7799 -1.7712 0.9574
5.4672 13.1989 -2.3535 0.9437
4.9922 13.3845 -2.3533 0.9437
3.6080 10.8401 -1.8821 0.9547
4.0239 13.7040 -2.3529 0.9437
3.5318 13.8376 -2.3527 0.9437
2.0318 14.1317 -2.3520 0.9438
1.5260 14.1938 -2.3518 0.9438
0.5094 14.2636 -2.3513 0.9438
0.0000 8.4539 -1.3927 0.9663
-0.5093 14.2607 -2.3508 0.9438
-1.0179 14.2319 -2.3505 0.9438
-2.5326 14.0371 -2.3498 0.9438
-3.0317 13.9363 -2.3495 0.9438
-5.9210 12.9651 -2.3481 0.9439
-6.3793 12.7442 -2.3478 0.9439
-8.9371 11.0903 -2.3464 0.9439
-9.3264 10.7632 -2.3462 0.9439
-9.7037 10.4225 -2.3460 0.9439
-10.0686 10.0686 -2.3458 0.9439
-10.7594 9.3230 -2.3453 0.9439
-11.3952 8.5303 -2.3449 0.9439
-11.9921 8.3263 -2.4051 0.9425
-13.0317 7.7321 -2.4963 0.9404
-13.9957 5.7972 -2.4956 0.9404
-14.1928 5.2937 -2.4955 0.9404
-14.3719 4.7834 -2.4953 0.9404
-14.7987 3.2193 -2.4949 0.9405
-14.9035 2.6889 -2.4948 0.9405
-15.1039 1.0802 -2.4946 0.9405
-15.1324 0.5404 -2.4945 0.9405
13.3354 0.4763 -2.5081 0.9471
13.3101 0.9520 -2.5082 0.9471
13.1324 2.3694 -2.5082 0.9471
12.3282 5.1065 -2.5081 0.9471
12.1379 5.5432 -2.5081 0.9471
11.4750 6.8084 -2.5079 0.9471
11.2019 7.1990 -2.5028 0.9472
10.6425 7.3892 -2.4352 0.9486
10.0306 7.5088 -2.3551 0.9503
9.4686 8.2046 -2.3549 0.9503
8.8583 8.8583 -2.3547 0.9503
8.2029 9.4667 -2.3544 0.9503
7.8594 9.7529 -2.3543 0.9503
7.5058 10.0266 -2.3542 0.9503
5.7378 8.9282 -1.9948 0.9577
4.0975 8.9723 -1.8540 0.9606
3.7206 8.9824 -1.8274 0.9612
3.6078 10.8397 -2.1473 0.9546
3.0950 12.1260 -2.3523 0.9503
2.2217 12.3138 -2.3519 0.9503
1.7806 12.3842 -2.3517 0.9504
1.3373 12.4388 -2.3515 0.9504
0.8924 12.4775 -2.3513 0.9504
-1.7793 12.3752 -2.3500 0.9504
-2.2197 12.3027 -2.3498 0.9504
-2.6571 12.2145 -2.3495 0.9504
-3.0911 12.1107 -2.3493 0.9504
-2.4820 8.4529 -1.6559 0.9648
-2.7806 8.3542 -1.6550 0.9648
-5.1899 11.3642 -2.3482 0.9504
-6.7519 10.5062 -2.3474 0.9504
-7.4829 9.9960 -2.3470 0.9504
-7.8343 9.7217 -2.3468 0.9505
-8.5065 9.1366 -2.3464 0.9505
-8.8264 8.8264 -2.3462 0.9505
-9.1351 8.5051 -2.3460 0.9505
-10.2244 8.2393 -2.4681 0.9480
-10.6259 7.9544 -2.4949 0.9474
-10.9135 7.5774 -2.4973 0.9474
-11.4248 6.7786 -2.4969 0.9474
-11.6587 6.3661 -2.4968 0.9474
-11.8778 5.9456 -2.4966 0.9474
-12.0817 5.5175 -2.4965 0.9474
-12.2703 5.0825 -2.4964 0.9474
-12.4432 4.6411 -2.4962 0.9474
-12.6003 4.1938 -2.4961 0.9474
-12.8662 3.2839 -2.4959 0.9474
-13.2426 0.9471 -2.4954 0.9474
11.8619 0.0000 -2.5074 0.9527
11.8545 0.4234 -2.5074 0.9527
11.7418 1.6882 -2.5075 0.9527
11.6741 2.1062 -2.5075 0.9527
11.4941 2.9337 -2.5075 0.9527
11.3820 3.3421 -2.5075 0.9527
11.2554 3.7462 -2.5075 0.9527
11.1144 4.1455 -2.5075 0.9527
10.9592 4.5395 -2.5074 0.9527
10.7901 4.9277 -2.5074 0.9527
10.2008 6.0524 -2.5072 0.9527
9.7425 6.7643 -2.5071 0.9527
8.6248 7.4735 -2.4123 0.9544
8.1514 7.5892 -2.3542 0.9555
6.9870 8.6704 -2.3538 0.9555
6.3500 9.1458 -2.3535 0.9555
5.2770 8.8939 -2.1860 0.9586
3.4794 10.4539 -2.3289 0.9560
2.3650 10.8717 -2.3518 0.9555
1.1890 11.0596 -2.3513 0.9555
0.3970 11.1145 -2.3509 0.9555
-0.3969 11.1127 -2.3505 0.9556
-0.7932 11.0905 -2.3503 0.9556
-1.1885 11.0543 -2.3501 0.9556
-1.5821 11.0039 -2.3499 0.9556
-2.4821 8.4531 -1.8623 0.9646
-2.7807 8.3546 -1.8612 0.9646
-4.6151 10.1057 -2.3484 0.9556
-4.9725 9.9338 -2.3482 0.9556
-6.0044 9.3431 -2.3476 0.9556
-6.6547 8.8896 -2.3473 0.9556
-7.2708 8.3909 -2.3469 0.9556
-9.4602 7.0818 -2.4979 0.9528
-9.7063 6.7392 -2.4978 0.9528
-9.9400 6.3881 -2.4976 0.9528
-10.1611 6.0289 -2.4975 0.9528
-10.5642 5.2880 -2.4972 0.9528
-11.3326 3.3276 -2.4966 0.9529
-11.8009 0.4215 -2.4961 0.9529
10.6662 0.0000 -2.5068 0.9571
10.6393 0.7609 -2.5069 0.9571
10.6054 1.1402 -2.5069 0.9571
10.5581 1.5180 -2.5069 0.9571
10.4229 2.2674 -2.5069 0.9571
10.3354 2.6379 -2.5069 0.9571
10.2346 3.0051 -2.5069 0.9571
9.8545 4.0818 -2.5068 0.9571
9.7024 4.4309 -2.5068 0.9571
9.1726 5.4424 -2.5067 0.9571
8.9723 5.7661 -2.5066 0.9571
7.7932 7.2557 -2.5025 0.9572
7.5002 7.5001 -2.4928 0.9574
7.0130 7.5325 -2.4188 0.9586
6.5590 7.5695 -2.3540 0.9597
6.2830 7.7967 -2.3533 0.9597
6.0004 8.0156 -2.3532 0.9597
5.7102 8.2243 -2.3531 0.9597
5.4128 8.4224 -2.3530 0.9597
5.1084 8.6098 -2.3529 0.9597
4.7976 8.7861 -2.3527 0.9597
4.0443 8.8557 -2.2881 0.9608
3.6723 8.8657 -2.2553 0.9613
3.4469 9.2414 -2.3181 0.9603
3.1604 9.4955 -2.3520 0.9597
2.8193 9.6016 -2.3519 0.9597
2.1269 9.7770 -2.3516 0.9597
1.4238 9.9025 -2.3512 0.9597
1.0693 9.9463 -2.3511 0.9597
-0.0000 8.3709 -1.9674 0.9662
-0.7134 9.9745 -2.3502 0.9597
-2.4721 9.6857 -2.3494 0.9598
-2.7808 8.3549 -2.0695 0.9645
-3.4926 9.3639 -2.3488 0.9598
-4.1511 9.0895 -2.3485 0.9598
-4.7882 8.7690 -2.3481 0.9598
-5.0978 8.5919 -2.3480 0.9598
-5.6969 8.2052 -2.3476 0.9598
-6.0482 8.0794 -2.3720 0.9594
-6.5166 8.0866 -2.4408 0.9582
-7.7814 7.2448 -2.4987 0.9573
-8.2774 6.6704 -2.4984 0.9573
-8.5098 6.3703 -2.4983 0.9573
-8.7312 6.0622 -2.4982 0.9573
-8.9415 5.7464 -2.4980 0.9573
-9.5032 4.7569 -2.4976 0.9573
-9.6664 4.4145 -2.4975 0.9573
-9.8174 4.0665 -2.4974 0.9573
-10.1946 2.9934 -2.4971 0.9573
-10.3815 2.2583 -2.4970 0.9573
-10.4552 1.8863 -2.4969 0.9573
-10.5155 1.5119 -2.4968 0.9573
-10.6162 0.3791 -2.4966 0.9573
9.6556 0.6906 -2.5064 0.9608
9.6248 1.0348 -2.5064 0.9608
9.5266 1.7188 -2.5064 0.9608
9.3797 2.3940 -2.5064 0.9608
9.1850 3.0570 -2.5064 0.9608
9.0699 3.3829 -2.5064 0.9608
8.8053 4.0212 -2.5063 0.9608
8.3245 4.9392 -2.5062 0.9608
8.1428 5.2331 -2.5062 0.9608
7.7483 5.8003 -2.5060 0.9608
7.0832 6.5947 -2.5058 0.9608
6.8431 6.8431 -2.5057 0.9608
6.3280 7.3029 -2.5019 0.9609
6.0548 7.5135 -2.4984 0.9609
5.6711 7.5757 -2.4502 0.9617
4.0667 8.1242 -2.3523 0.9632
3.1744 8.5110 -2.3519 0.9632
2.8685 8.6183 -2.3518 0.9632
2.5589 8.7147 -2.3517 0.9632
2.2461 8.8000 -2.3515 0.9632
1.9304 8.8740 -2.3514 0.9632
1.6124 8.9367 -2.3512 0.9632
0.9706 9.0278 -2.3509 0.9632
0.3240 9.0729 -2.3506 0.9632
-0.3240 9.0717 -2.3503 0.9632
-0.9702 9.0242 -2.3500 0.9632
-2.7809 8.3552 -2.2800 0.9643
-4.3737 8.0098 -2.3629 0.9630
-4.7565 8.0167 -2.4135 0.9622
-5.4943 7.9133 -2.4943 0.9610
-6.3217 7.2956 -2.4994 0.9609
-7.0641 6.5769 -2.4990 0.9609
-7.5144 6.0555 -2.4987 0.9609
-7.7254 5.7831 -2.4986 0.9609
-7.9265 5.5034 -2.4985 0.9609
-8.6274 4.3186 -2.4980 0.9609
-8.7757 4.0077 -2.4979 0.9609
-8.9128 3.6918 -2.4978 0.9609
-9.0385 3.3712 -2.4977 0.9609
-9.1528 3.0463 -2.4976 0.9609
-9.3461 2.3855 -2.4975 0.9609
-9.4251 2.0503 -2.4974 0.9609
-9.4920 1.7125 -2.4973 0.9609
-9.5468 1.3726 -2.4973 0.9609
-9.5895 1.0310 -2.4972 0.9609
-9.6200 0.6880 -2.4971 0.9609
-9.6382 0.3442 -2.4971 0.9609
8.8519 0.0000 -2.5059 0.9639
8.8296 0.6315 -2.5060 0.9639
8.8015 0.9463 -2.5060 0.9639
8.7622 1.2598 -2.5060 0.9639
8.7117 1.5718 -2.5060 0.9639
8.5773 2.1892 -2.5060 0.9639
8.4937 2.4940 -2.5060 0.9639
7.9156 3.9623 -2.5059 0.9639
7.7690 4.2422 -2.5059 0.9639
7.4463 4.7854 -2.5058 0.9639
7.0856 5.3042 -2.5057 0.9639
6.8916 5.5536 -2.5056 0.9639
6.6888 5.7958 -2.5055 0.9639
6.0303 6.4770 -2.5053 0.9639
5.5525 6.8902 -2.5051 0.9639
5.3028 7.0837 -2.5050 0.9639
5.0422 7.2622 -2.5028 0.9639
4.5016 7.5871 -2.4975 0.9640
3.5033 7.6713 -2.3874 0.9655
2.9031 7.7835 -2.3517 0.9661
2.6233 7.8817 -2.3516 0.9661
1.4746 8.1730 -2.3511 0.9661
1.1819 8.2200 -2.3509 0.9661
0.5924 8.2824 -2.3507 0.9661
-0.0000 8.3025 -2.3504 0.9661
-0.2963 8.2967 -2.3502 0.9661
-0.5922 8.2804 -2.3501 0.9661
-0.8873 8.2534 -2.3500 0.9661
-1.1813 8.2160 -2.3498 0.9661
-1.4737 8.1681 -2.3497 0.9661
-2.6411 7.9352 -2.3676 0.9658
-2.9625 7.9429 -2.3999 0.9654
-3.6340 7.9573 -2.4764 0.9643
-4.5053 7.5932 -2.4995 0.9640
-4.7748 7.4297 -2.5002 0.9640
-5.0366 7.2541 -2.5001 0.9640
-5.2920 7.0693 -2.4999 0.9640
-5.7822 6.6731 -2.4996 0.9640
-6.4614 6.0158 -2.4992 0.9640
-6.6717 5.7810 -2.4991 0.9640
-6.8734 5.5389 -2.4990 0.9640
-7.0664 5.2898 -2.4989 0.9640
-7.2504 5.0340 -2.4988 0.9640
-7.4251 4.7718 -2.4986 0.9640
-7.5904 4.5036 -2.4985 0.9640
-7.7459 4.2296 -2.4984 0.9640
-8.0273 3.6659 -2.4982 0.9640
-8.1527 3.3770 -2.4981 0.9640
-8.3723 2.7866 -2.4980 0.9640
-8.4662 2.4859 -2.4979 0.9640
-8.6215 1.8755 -2.4978 0.9640
-8.7998 0.6294 -2.4975 0.9640
8.1462 0.0000 -2.5056 0.9665
8.0635 1.1594 -2.5057 0.9665
8.0170 1.4464 -2.5057 0.9665
7.6327 2.8469 -2.5057 0.9665
7.5262 3.1174 -2.5056 0.9665
7.4101 3.3841 -2.5056 0.9665
7.0056 4.1566 -2.5055 0.9665
6.6909 4.6456 -2.5054 0.9665
6.5207 4.8813 -2.5053 0.9665
6.1555 5.3338 -2.5052 0.9665
5.3332 6.1548 -2.5049 0.9665
4.8801 6.5191 -2.5047 0.9665
4.6442 6.6889 -2.5046 0.9665
3.6424 7.2765 -2.5028 0.9665
3.3777 7.3961 -2.5009 0.9665
2.5597 7.6905 -2.4930 0.9666
1.9712 7.7233 -2.4517 0.9672
1.3988 7.7529 -2.4231 0.9676
1.1167 7.7667 -2.4134 0.9677
0.0000 7.8160 -2.4040 0.9678
-1.1297 7.8571 -2.4415 0.9673
-1.7131 7.8750 -2.4788 0.9668
-2.5639 7.7033 -2.4971 0.9666
-2.8390 7.6117 -2.4988 0.9666
-4.1482 6.9915 -2.5005 0.9666
-4.3949 6.8386 -2.5003 0.9666
-4.6359 6.6770 -2.5002 0.9666
-4.8710 6.5069 -2.5001 0.9666
-5.0999 6.3286 -2.4999 0.9666
-5.5379 5.9481 -2.4997 0.9666
-5.7463 5.7463 -2.4996 0.9666
-5.9475 5.5373 -2.4994 0.9666
-6.3268 5.0984 -2.4992 0.9666
-6.5044 4.8692 -2.4991 0.9666
-6.6738 4.6337 -2.4990 0.9666
-6.9868 4.1455 -2.4988 0.9666
-7.1300 3.8933 -2.4987 0.9666
-7.2642 3.6362 -2.4986 0.9666
-7.3891 3.3745 -2.4985 0.9666
-7.5046 3.1085 -2.4984 0.9666
-7.6105 2.8386 -2.4983 0.9666
-7.7067 2.5650 -2.4983 0.9666
-7.9361 1.7264 -2.4981 0.9666
-8.0387 1.1558 -2.4980 0.9666
-8.1158 0.2898 -2.4978 0.9666
7.5369 0.0000 -2.5053 0.9687
7.5321 0.2690 -2.5053 0.9687
7.5178 0.5377 -2.5053 0.9687
7.4939 0.8057 -2.5054 0.9687
7.4174 1.3382 -2.5054 0.9687
7.3649 1.6021 -2.5054 0.9687
7.3030 1.8640 -2.5054 0.9687
7.2318 2.1234 -2.5054 0.9687
7.0618 2.6339 -2.5054 0.9687
6.9633 2.8843 -2.5053 0.9687
6.8558 3.1309 -2.5053 0.9687
6.7396 3.3736 -2.5053 0.9687
6.6148 3.6120 -2.5052 0.9687
6.4816 3.8457 -2.5052 0.9687
5.8678 4.7286 -2.5050 0.9687
4.9344 5.6946 -2.5047 0.9687
4.5152 6.0317 -2.5045 0.9687
4.0732 6.3379 -2.5043 0.9687
3.8442 6.4791 -2.5042 0.9687
3.6104 6.6119 -2.5041 0.9687
3.3719 6.7362 -2.5040 0.9687
3.1292 6.8520 -2.5039 0.9687
2.6322 7.0572 -2.5037 0.9687
2.1218 7.2263 -2.5035 0.9688
1.8622 7.2958 -2.5029 0.9688
0.8040 7.4782 -2.5001 0.9688
0.5365 7.5011 -2.4998 0.9688
0.2684 7.5150 -2.4996 0.9688
-0.2684 7.5154 -2.4997 0.9688
-0.5365 7.5019 -2.5000 0.9688
-0.8041 7.4793 -2.5005 0.9688
-1.0708 7.4476 -2.5011 0.9688
-1.3363 7.4069 -2.5018 0.9688
-1.8612 7.2919 -2.5016 0.9688
-2.1201 7.2205 -2.5015 0.9688
-2.6295 7.0501 -2.5012 0.9688
-2.8793 6.9514 -2.5011 0.9688
-4.2899 6.1786 -2.5003 0.9688
-4.5074 6.0212 -2.5002 0.9688
-4.7193 5.8562 -2.5001 0.9688
-4.9250 5.6838 -2.4999 0.9688
-5.3175 5.3175 -2.4997 0.9688
-5.6828 4.9242 -2.4995 0.9688
-6.1758 4.2880 -2.4992 0.9688
-6.3247 4.0646 -2.4991 0.9688
-6.4655 3.8362 -2.4990 0.9688
-6.5981 3.6028 -2.4989 0.9688
-6.7223 3.3649 -2.4988 0.9688
-6.9447 2.8766 -2.4987 0.9688
-7.1318 2.3737 -2.4985 0.9688
-7.3964 1.3344 -2.4983 0.9688
-7.4724 0.8034 -2.4982 0.9688
-7.5105 0.2682 -2.4981 0.9688
7.0050 -0.0000 -2.5050 0.9707
6.9650 0.7488 -2.5051 0.9707
6.8451 1.4891 -2.5051 0.9707
6.7876 1.7324 -2.5051 0.9707
6.7215 1.9736 -2.5051 0.9707
6.6467 2.2122 -2.5051 0.9707
6.5635 2.4480 -2.5051 0.9707
6.4719 2.6807 -2.5051 0.9707
6.3720 2.9100 -2.5051 0.9707
6.2640 3.1355 -2.5050 0.9707
6.1480 3.3571 -2.5050 0.9707
6.0242 3.5743 -2.5050 0.9707
5.8927 3.7870 -2.5049 0.9707
4.7724 5.1259 -2.5045 0.9707
4.3943 5.4530 -2.5044 0.9707
3.9938 5.7522 -2.5042 0.9707
3.7858 5.8909 -2.5041 0.9707
3.5730 6.0220 -2.5040 0.9707
3.3557 6.1455 -2.5040 0.9707
3.1341 6.2611 -2.5039 0.9707
2.6792 6.4682 -2.5037 0.9707
2.4466 6.5595 -2.5036 0.9707
2.2108 6.6423 -2.5035 0.9707
1.7311 6.7826 -2.5032 0.9707
1.2428 6.8882 -2.5030 0.9707
0.4993 6.9806 -2.5027 0.9707
0.0000 6.9977 -2.5024 0.9707
-0.2498 6.9929 -2.5023 0.9707
-0.4992 6.9792 -2.5022 0.9707
-0.7479 6.9566 -2.5021 0.9707
-1.4870 6.8358 -2.5017 0.9707
-2.4443 6.5533 -2.5012 0.9707
-2.6765 6.4616 -2.5011 0.9707
-3.1303 6.2536 -2.5009 0.9707
-3.3514 6.1376 -2.5007 0.9707
-3.5681 6.0138 -2.5006 0.9707
-3.9877 5.7434 -2.5004 0.9707
-4.3869 5.4438 -2.5002 0.9707
-4.5782 5.2835 -2.5001 0.9707
-5.1161 4.7633 -2.4997 0.9707
-5.2826 4.5774 -2.4996 0.9707
-5.4424 4.3858 -2.4996 0.9707
-6.1336 3.3492 -2.4991 0.9707
-6.2490 3.1280 -2.4990 0.9707
-6.3565 2.9029 -2.4990 0.9708
-6.4559 2.6741 -2.4989 0.9708
-6.6298 2.2066 -2.4987 0.9708
-6.7042 1.9685 -2.4987 0.9708
-6.9819 0.2494 -2.4984 0.9708
6.5322 0.2333 -2.5048 0.9724
6.5197 0.4663 -2.5049 0.9724
6.4990 0.6987 -2.5049 0.9724
6.3871 1.3894 -2.5049 0.9724
6.3334 1.6165 -2.5049 0.9724
6.2019 2.0642 -2.5049 0.9724
6.1243 2.2842 -2.5049 0.9724
6.0388 2.5013 -2.5048 0.9724
5.9456 2.7153 -2.5048 0.9724
5.8449 2.9257 -2.5048 0.9724
5.6211 3.3352 -2.5047 0.9724
5.4984 3.5336 -2.5047 0.9724
5.3687 3.7275 -2.5047 0.9724
5.0889 4.1009 -2.5046 0.9724
4.7832 4.4533 -2.5045 0.9724
4.4531 4.7829 -2.5043 0.9724
4.1003 5.0882 -2.5042 0.9724
3.9160 5.2311 -2.5041 0.9724
3.7266 5.3674 -2.5041 0.9724
3.3340 5.6192 -2.5039 0.9724
2.7140 5.9428 -2.5036 0.9724
2.2829 6.1208 -2.5034 0.9724
2.0629 6.1981 -2.5033 0.9724
1.6154 6.3290 -2.5031 0.9724
1.3884 6.3824 -2.5030 0.9724
1.1597 6.4276 -2.5029 0.9724
0.6981 6.4934 -2.5027 0.9724
0.4659 6.5139 -2.5026 0.9724
-0.2331 6.5255 -2.5023 0.9724
-0.4658 6.5127 -2.5022 0.9724
-0.6979 6.4916 -2.5021 0.9724
-0.9291 6.4623 -2.5019 0.9724
-1.1592 6.4247 -2.5018 0.9724
-1.3877 6.3790 -2.5017 0.9724
-2.0613 6.1932 -2.5014 0.9724
-2.4976 6.0299 -2.5011 0.9724
-2.7112 5.9366 -2.5010 0.9724
-3.1275 5.7276 -2.5008 0.9724
-3.3298 5.6120 -2.5007 0.9724
-3.5278 5.4894 -2.5006 0.9724
-3.7213 5.3597 -2.5005 0.9724
-3.9101 5.2233 -2.5004 0.9724
-4.2724 4.9306 -2.5002 0.9724
-4.6129 4.6129 -2.5000 0.9724
-4.7744 4.4451 -2.4999 0.9724
-4.9299 4.2717 -2.4998 0.9724
-5.0790 4.0929 -2.4997 0.9724
-5.3577 3.7199 -2.4995 0.9724
-5.4868 3.5262 -2.4994 0.9724
-5.6090 3.3280 -2.4994 0.9724
-5.8318 2.9192 -2.4992 0.9725
-5.9321 2.7091 -2.4991 0.9725
-6.1099 2.2789 -2.4990 0.9725
-6.1872 2.0593 -2.4989 0.9725
-6.3181 1.6126 -2.4988 0.9725
-6.4168 1.1577 -2.4987 0.9725
-6.4539 0.9279 -2.4987 0.9725
-6.5035 0.4651 -2.4986 0.9725
-6.5159 0.2327 -2.4986 0.9725
6.1196 0.0000 -2.5046 0.9739
6.1158 0.2184 -2.5046 0.9739
6.1041 0.4366 -2.5047 0.9739
6.0575 0.8709 -2.5047 0.9739
6.0226 1.0866 -2.5047 0.9739
5.8719 1.7241 -2.5047 0.9739
5.8066 1.9326 -2.5047 0.9739
5.7339 2.1386 -2.5047 0.9739
5.5666 2.5422 -2.5046 0.9739
5.4723 2.7392 -2.5046 0.9739
5.3710 2.9328 -2.5046 0.9739
5.1479 3.3084 -2.5045 0.9739
5.0265 3.4900 -2.5045 0.9739
4.8987 3.6671 -2.5044 0.9739
4.6244 4.0071 -2.5043 0.9739
4.4783 4.1695 -2.5043 0.9739
4.3266 4.3266 -2.5042 0.9739
3.8390 4.7639 -2.5040 0.9739
3.6664 4.8978 -2.5040 0.9739
3.3075 5.1465 -2.5038 0.9739
3.1216 5.2612 -2.5038 0.9739
2.5411 5.5642 -2.5035 0.9739
1.9315 5.8033 -2.5032 0.9739
1.5125 5.9258 -2.5031 0.9739
1.3000 5.9758 -2.5030 0.9739
1.0858 6.0182 -2.5029 0.9739
0.8703 6.0529 -2.5028 0.9739
0.2182 6.1104 -2.5025 0.9739
0.0000 6.1141 -2.5023 0.9739
-0.4361 6.0980 -2.5021 0.9739
-1.2993 5.9729 -2.5017 0.9739
-1.5116 5.9224 -2.5016 0.9739
-1.7220 5.8644 -2.5015 0.9739
-1.9301 5.7990 -2.5014 0.9739
-2.3387 5.6460 -2.5012 0.9739
-2.5386 5.5587 -2.5011 0.9739
-2.7352 5.4644 -2.5010 0.9739
-2.9284 5.3630 -2.5009 0.9739
-3.6613 4.8909 -2.5005 0.9739
-4.0006 4.6169 -2.5003 0.9739
-4.1626 4.4710 -2.5002 0.9739
-4.4707 4.1623 -2.5000 0.9739
-5.0168 3.4833 -2.4997 0.9739
-5.3600 2.9268 -2.4994 0.9740
-5.7213 2.1339 -2.4992 0.9740
-5.8587 1.7203 -2.4991 0.9740
-6.0435 0.8689 -2.4989 0.9740
-6.0706 0.6526 -2.4988 0.9740
5.7465 -0.0000 -2.5044 0.9752
5.7429 0.2051 -2.5045 0.9752
5.7320 0.4100 -2.5045 0.9752
5.6882 0.8178 -2.5045 0.9752
5.6154 1.2215 -2.5045 0.9752
5.3843 2.0082 -2.5045 0.9752
5.3092 2.1991 -2.5045 0.9752
5.2273 2.3872 -2.5044 0.9752
5.1387 2.5722 -2.5044 0.9752
5.0435 2.7540 -2.5044 0.9752
4.8341 3.1067 -2.5043 0.9752
4.6000 3.4435 -2.5043 0.9752
4.3425 3.7628 -2.5042 0.9752
4.2053 3.9153 -2.5041 0.9752
3.9151 4.2052 -2.5040 0.9752
3.7625 4.3421 -2.5040 0.9752
3.4429 4.5992 -2.5038 0.9752
3.2765 4.7191 -2.5038 0.9752
3.1059 4.8329 -2.5037 0.9752
2.9313 4.9405 -2.5036 0.9752
2.7530 5.0418 -2.5036 0.9752
2.5713 5.1367 -2.5035 0.9752
2.3862 5.2251 -2.5034 0.9752
2.0072 5.3816 -2.5032 0.9752
1.4203 5.5648 -2.5030 0.9753
1.2208 5.6117 -2.5029 0.9753
1.0196 5.6515 -2.5028 0.9753
0.8172 5.6841 -2.5027 0.9753
0.4096 5.7275 -2.5025 0.9753
-0.2049 5.7378 -2.5022 0.9753
-0.4096 5.7266 -2.5021 0.9753
-0.6137 5.7081 -2.5020 0.9753
-0.8170 5.6823 -2.5019 0.9753
-1.0192 5.6493 -2.5018 0.9753
-2.1963 5.3023 -2.5012 0.9753
-3.2724 4.7131 -2.5006 0.9753
-3.7570 4.3358 -2.5004 0.9753
-3.9093 4.1988 -2.5003 0.9753
-4.0565 4.0565 -2.5002 0.9753
-4.4664 3.5993 -2.4999 0.9753
-4.7115 3.2713 -2.4998 0.9753
-4.8252 3.1009 -2.4997 0.9753
-4.9326 2.9267 -2.4996 0.9753
-5.2168 2.3824 -2.4994 0.9753
-5.3732 2.0041 -2.4993 0.9753
-5.5023 1.6156 -2.4992 0.9753
-5.5563 1.4182 -2.4992 0.9753
-5.6033 1.2189 -2.4991 0.9753
-5.6432 1.0181 -2.4991 0.9753
-5.7012 0.6129 -2.4990 0.9753
-5.7303 0.2046 -2.4990 0.9753
5.4101 -0.0000 -2.5043 0.9764
5.4067 0.1931 -2.5043 0.9764
5.3793 0.5783 -2.5043 0.9764
5.3552 0.7700 -2.5043 0.9764
5.3243 0.9606 -2.5043 0.9764
5.2866 1.1500 -2.5043 0.9764
4.9984 2.0704 -2.5043 0.9764
4.8379 2.4217 -2.5043 0.9764
4.6527 2.7606 -2.5042 0.9764
4.4438 3.0854 -2.5041 0.9764
4.3308 3.2420 -2.5041 0.9764
3.9592 3.6861 -2.5040 0.9764
3.5423 4.0880 -2.5038 0.9764
3.3940 4.2117 -2.5038 0.9764
3.2414 4.3301 -2.5037 0.9764
3.0847 4.4429 -2.5036 0.9764
2.9241 4.5500 -2.5036 0.9764
2.7598 4.6514 -2.5035 0.9764
2.5919 4.7468 -2.5034 0.9764
1.5234 5.1883 -2.5030 0.9764
1.3372 5.2392 -2.5029 0.9764
0.9600 5.3209 -2.5027 0.9765
0.7694 5.3516 -2.5026 0.9765
0.5779 5.3754 -2.5025 0.9765
0.3857 5.3924 -2.5025 0.9765
-0.0000 5.4058 -2.5023 0.9765
-0.7692 5.3500 -2.5019 0.9765
-1.1488 5.2811 -2.5017 0.9765
-1.7066 5.1274 -2.5014 0.9765
-1.8884 5.0631 -2.5013 0.9765
-2.0679 4.9923 -2.5012 0.9765
-2.2446 4.9151 -2.5011 0.9765
-2.4186 4.8317 -2.5010 0.9765
-3.0811 4.4376 -2.5007 0.9765
-3.3896 4.2062 -2.5005 0.9765
-3.6808 3.9534 -2.5003 0.9765
-4.0819 3.5370 -2.5001 0.9765
-4.2054 3.3889 -2.5000 0.9765
-4.4362 3.0801 -2.4999 0.9765
-4.5432 2.9197 -2.4998 0.9765
-4.6444 2.7556 -2.4998 0.9765
-4.9120 2.2432 -2.4996 0.9765
-5.0593 1.8870 -2.4995 0.9765
-5.3682 0.5771 -2.4992 0.9765
-5.3853 0.3852 -2.4991 0.9765
5.1050 0.0000 -2.5041 0.9775
5.0921 0.3642 -2.5042 0.9775
5.0240 0.9065 -2.5042 0.9775
4.9466 1.2625 -2.5042 0.9775
4.8983 1.4383 -2.5042 0.9775
4.7165 1.9536 -2.5042 0.9775
4.6437 2.1207 -2.5041 0.9775
4.5650 2.2851 -2.5041 0.9775
4.4805 2.4465 -2.5041 0.9775
4.3903 2.6049 -2.5041 0.9775
4.2945 2.7599 -2.5040 0.9775
4.0865 3.0591 -2.5040 0.9775
3.8578 3.3428 -2.5039 0.9775
3.7359 3.4783 -2.5039 0.9775
3.6093 3.6093 -2.5038 0.9775
3.4781 3.7358 -2.5038 0.9775
3.3425 3.8575 -2.5037 0.9775
3.0587 4.0859 -2.5036 0.9775
2.6042 4.3891 -2.5034 0.9775
2.4458 4.4792 -2.5033 0.9775
2.2843 4.5635 -2.5033 0.9775
2.1199 4.6420 -2.5032 0.9775
1.9528 4.7145 -2.5031 0.9775
1.6114 4.8415 -2.5030 0.9775
1.4375 4.8958 -2.5029 0.9775
1.2618 4.9439 -2.5028 0.9775
1.0845 4.9856 -2.5027 0.9775
0.1821 5.0981 -2.5023 0.9775
-0.1821 5.0977 -2.5021 0.9775
-0.7259 5.0485 -2.5019 0.9775
-0.9056 5.0192 -2.5018 0.9775
-1.7820 4.7778 -2.5013 0.9775
-2.2823 4.5595 -2.5011 0.9775
-2.7563 4.2889 -2.5008 0.9775
-2.9076 4.1877 -2.5007 0.9775
-3.3382 3.8525 -2.5005 0.9775
-3.4735 3.7308 -2.5004 0.9775
-3.6043 3.6043 -2.5003 0.9775
-3.9686 3.1981 -2.5001 0.9775
-4.0801 3.0543 -2.5001 0.9775
-4.2874 2.7553 -2.4999 0.9775
-4.3829 2.6005 -2.4999 0.9776
-4.6355 2.1169 -2.4997 0.9776
-4.7080 1.9501 -2.4996 0.9776
-4.7745 1.7808 -2.4996 0.9776
-4.8349 1.6092 -2.4995 0.9776
-4.8892 1.4356 -2.4995 0.9776
-4.9372 1.2601 -2.4995 0.9776
-4.9790 1.0831 -2.4994 0.9776
-5.0822 0.3635 -2.4993 0.9776
-5.0918 0.1819 -2.4993 0.9776
4.8267 0.0000 -2.5040 0.9785
4.8145 0.3443 -2.5040 0.9785
4.7991 0.5160 -2.5040 0.9785
4.7165 1.0260 -2.5041 0.9785
4.6769 1.1937 -2.5041 0.9785
4.6313 1.3599 -2.5041 0.9785
4.5225 1.6868 -2.5040 0.9785
4.4593 1.8471 -2.5040 0.9785
4.3905 2.0051 -2.5040 0.9785
4.1509 2.4629 -2.5039 0.9785
4.0603 2.6094 -2.5039 0.9785
3.9646 2.7527 -2.5039 0.9785
3.8637 2.8924 -2.5038 0.9785
3.7580 3.0284 -2.5038 0.9785
3.6475 3.1605 -2.5038 0.9785
3.5323 3.2887 -2.5037 0.9785
3.4126 3.4126 -2.5037 0.9785
3.0281 3.7576 -2.5035 0.9785
2.8920 3.8632 -2.5035 0.9785
2.7522 3.9639 -2.5034 0.9785
2.6089 4.0595 -2.5034 0.9785
2.4623 4.1499 -2.5033 0.9785
2.3125 4.2350 -2.5033 0.9785
2.0044 4.3890 -2.5031 0.9785
1.8464 4.4576 -2.5031 0.9785
1.5236 4.5777 -2.5029 0.9785
0.8565 4.7474 -2.5026 0.9785
0.5156 4.7961 -2.5025 0.9785
0.0000 4.8233 -2.5022 0.9785
-0.1721 4.8200 -2.5021 0.9785
-0.5155 4.7951 -2.5020 0.9785
-0.8562 4.7458 -2.5018 0.9785
-1.1925 4.6723 -2.5016 0.9785
-1.5227 4.5750 -2.5015 0.9785
-1.8451 4.4545 -2.5013 0.9785
-2.1580 4.3112 -2.5011 0.9785
-2.8887 3.8589 -2.5007 0.9785
-3.0246 3.7532 -2.5006 0.9785
-3.1565 3.6428 -2.5006 0.9785
-3.2844 3.5277 -2.5005 0.9785
-3.5275 3.2842 -2.5003 0.9785
-3.6424 3.1561 -2.5003 0.9785
-3.7526 3.0240 -2.5002 0.9785
-3.8580 2.8881 -2.5001 0.9785
-3.9586 2.7485 -2.5001 0.9785
-4.1444 2.4590 -2.5000 0.9785
-4.3832 2.0017 -2.4998 0.9785
-4.4517 1.8440 -2.4998 0.9785
-4.5718 1.5216 -2.4997 0.9785
-4.6685 1.1916 -2.4996 0.9785
-4.7080 1.0242 -2.4995 0.9785
-4.7689 0.6857 -2.4995 0.9785
-4.8056 0.3437 -2.4994 0.9785
4.5600 0.3261 -2.5039 0.9794
4.5455 0.4887 -2.5039 0.9794
4.3377 1.4437 -2.5039 0.9794
4.0880 2.0463 -2.5039 0.9794
4.0123 2.1909 -2.5038 0.9794
3.8457 2.4715 -2.5038 0.9794
3.7550 2.6072 -2.5038 0.9794
3.6595 2.7395 -2.5037 0.9794
3.4547 2.9935 -2.5037 0.9794
3.3456 3.1149 -2.5036 0.9794
2.9933 3.4544 -2.5035 0.9794
2.8680 3.5590 -2.5034 0.9794
2.7391 3.6590 -2.5034 0.9794
2.4710 3.8450 -2.5033 0.9794
2.0457 4.0868 -2.5031 0.9794
1.2874 4.3845 -2.5028 0.9794
1.1301 4.4275 -2.5027 0.9794
0.9713 4.4649 -2.5026 0.9794
0.6502 4.5225 -2.5025 0.9794
0.1631 4.5657 -2.5023 0.9794
-0.1631 4.5654 -2.5021 0.9794
-0.4883 4.5419 -2.5019 0.9794
-0.9709 4.4632 -2.5017 0.9794
-1.1296 4.4256 -2.5016 0.9794
-1.5960 4.2791 -2.5014 0.9794
-1.7477 4.2193 -2.5013 0.9794
-1.8971 4.1541 -2.5012 0.9794
-2.1885 4.0079 -2.5011 0.9794
-2.3301 3.9271 -2.5010 0.9794
-2.7362 3.6552 -2.5008 0.9794
-2.9899 3.4505 -2.5006 0.9794
-3.2282 3.2282 -2.5005 0.9794
-3.3413 3.1109 -2.5004 0.9794
-3.4501 2.9895 -2.5004 0.9794
-3.5545 2.8644 -2.5003 0.9794
-3.6544 2.7357 -2.5002 0.9794
-3.8401 2.4679 -2.5001 0.9794
-4.0062 2.1875 -2.5000 0.9794
-4.0816 2.0431 -2.4999 0.9794
-4.3305 1.4413 -2.4998 0.9794
-4.3791 1.2858 -2.4997 0.9794
-4.4222 1.1287 -2.4997 0.9794
-4.5376 0.4878 -2.4996 0.9794
4.3366 -0.0000 -2.5038 0.9802
4.3339 0.1548 -2.5038 0.9802
4.2926 0.6172 -2.5038 0.9802
4.2678 0.7700 -2.5038 0.9802
4.2376 0.9218 -2.5038 0.9802
4.2020 1.0725 -2.5038 0.9802
4.0633 1.5155 -2.5038 0.9802
4.0066 1.6596 -2.5038 0.9802
3.9448 1.8015 -2.5038 0.9802
3.8779 1.9412 -2.5038 0.9802
3.8061 2.0783 -2.5037 0.9802
3.3765 2.7209 -2.5036 0.9802
3.2772 2.8397 -2.5036 0.9802
3.1737 2.9548 -2.5035 0.9802
2.9547 3.1736 -2.5034 0.9802
2.8395 3.2769 -2.5034 0.9802
2.7207 3.3761 -2.5034 0.9802
2.4728 3.5615 -2.5033 0.9802
2.3440 3.6474 -2.5032 0.9802
2.2123 3.7287 -2.5031 0.9802
2.0778 3.8052 -2.5031 0.9802
1.9406 3.8768 -2.5030 0.9802
1.6590 4.0052 -2.5029 0.9802
1.2213 4.1592 -2.5027 0.9802
1.0720 4.2001 -2.5027 0.9802
0.9214 4.2355 -2.5026 0.9802
0.7696 4.2656 -2.5025 0.9802
0.6168 4.2902 -2.5024 0.9802
-0.3092 4.3226 -2.5020 0.9802
-0.4632 4.3086 -2.5019 0.9802
-0.7694 4.2644 -2.5018 0.9802
-0.9211 4.2340 -2.5017 0.9802
-1.0716 4.1983 -2.5016 0.9802
-1.6579 4.0026 -2.5013 0.9802
-2.3419 3.6441 -2.5010 0.9802
-2.4704 3.5581 -2.5009 0.9802
-2.8364 3.2734 -2.5007 0.9802
-3.0625 3.0625 -2.5005 0.9802
-3.2730 2.8361 -2.5004 0.9802
-3.4669 2.5953 -2.5003 0.9802
-3.8006 2.0753 -2.5001 0.9802
-3.9388 1.7988 -2.5000 0.9802
-4.0570 1.5132 -2.4999 0.9802
-4.1953 1.0708 -2.4998 0.9802
-4.2308 0.9203 -2.4998 0.9802
-4.2609 0.7687 -2.4997 0.9802
-4.3048 0.4628 -2.4997 0.9802
