ply
format ascii 1.0
element vertex 1279
property float32 x
property float32 y
property float32 z
property float32 I
end_header
-30.7399 -35.4757 8.2770 0.8264
-20.4238 -34.4226 7.0576 0.8500
-17.0589 -34.0792 6.7199 0.8566
-12.5389 -33.6183 6.3267 0.8644
-11.1418 -33.4758 6.2211 0.8665
-8.4748 -33.2040 6.0425 0.8701
-4.7190 -32.8214 5.8468 0.8740
-3.5155 -32.6989 5.7989 0.8750
-0.0000 -32.3612 5.7061 0.8768
3.4387 -31.9850 5.6723 0.8775
10.3461 -35.2355 6.4753 0.8614
9.9533 -15.4877 3.2462 0.9280
29.6650 -13.5476 5.7505 0.8759
-30.8018 -35.5472 7.2056 0.8267
-18.6984 -34.2436 5.9771 0.8539
-17.0574 -34.0762 5.8378 0.8571
-12.5379 -33.6155 5.4962 0.8649
-11.1872 -33.6121 5.4269 0.8664
-9.8288 -33.4737 5.3445 0.8683
-8.4741 -33.2014 5.2493 0.8705
-4.7187 -32.8189 5.0794 0.8744
-3.8822 -36.1095 5.5637 0.8633
-1.1592 -32.4566 4.9753 0.8768
0.0000 -36.2952 5.5602 0.8634
1.3154 -36.8306 5.6458 0.8615
5.2398 -36.4436 5.6404 0.8616
6.5464 -36.2841 5.6483 0.8614
6.8968 -31.7040 4.9705 0.8770
9.9490 -15.4809 2.8191 0.9282
-21.9691 -10.9969 3.1992 0.9057
-33.2621 -35.7261 6.3565 0.8213
-20.7903 -32.3504 5.0076 0.8563
-19.3848 -32.6714 4.9470 0.8579
-18.6033 -34.0695 5.0549 0.8551
-15.4876 -33.9132 4.8549 0.8604
-12.5369 -33.6127 4.6716 0.8653
-11.5493 -34.7003 4.7624 0.8628
-8.4735 -33.1988 4.4618 0.8709
-8.2868 -38.0939 5.0766 0.8545
-4.7183 -32.8164 4.3173 0.8748
-1.1591 -32.4542 4.2289 0.8772
2.6451 -36.9839 4.8284 0.8611
3.4382 -31.9803 4.1885 0.8783
5.2983 -36.8505 4.8480 0.8606
6.8963 -31.7018 4.2248 0.8773
10.6047 -41.5489 5.5840 0.8412
10.3445 -35.2302 4.7814 0.8623
29.5735 -13.5058 4.2337 0.8771
-29.0255 -20.1528 3.7944 0.8675
-32.1313 -34.5114 5.0634 0.8272
-30.7297 -35.4640 5.0389 0.8280
-13.8900 -18.5549 2.4889 0.9110
-24.1579 -34.7941 4.5485 0.8433
-22.7673 -35.4267 4.5220 0.8442
-20.4182 -34.4131 4.2968 0.8513
-15.4863 -33.9103 4.0031 0.8607
-16.1097 -38.8922 4.5204 0.8442
-8.4728 -33.1962 3.6789 0.8712
-8.2890 -38.1040 4.1874 0.8548
-2.6944 -37.6723 4.0556 0.8590
-1.1590 -32.4518 3.4869 0.8775
2.6458 -36.9932 3.9825 0.8614
5.2996 -36.8598 3.9988 0.8609
6.8958 -31.6996 3.4836 0.8776
10.3437 -35.2275 3.9425 0.8627
9.9554 -15.4909 1.9773 0.9286
29.5765 -13.5071 3.4915 0.8774
-29.0358 -20.1599 2.9923 0.8677
-20.4164 -34.4100 3.3870 0.8516
-19.1736 -35.1138 3.3867 0.8516
-16.2800 -32.5233 3.0789 0.8642
-16.1151 -38.9054 3.5648 0.8445
-11.5499 -34.7019 3.0960 0.8635
-8.4722 -33.1937 2.9000 0.8715
-6.8751 -38.1061 3.2779 0.8560
-2.6951 -37.6818 3.1980 0.8593
1.3312 -37.2727 3.1573 0.8609
3.4377 -31.9756 2.7224 0.8789
5.3010 -36.8690 3.1532 0.8611
6.8954 -31.6974 2.7460 0.8779
6.8776 -23.4230 2.0665 0.9067
9.9585 -15.4958 1.5593 0.9287
29.5795 -13.5085 2.7527 0.8776
-13.8624 -18.5179 1.4344 0.9115
-23.4366 -33.7551 2.5482 0.8482
-22.7680 -35.4278 2.6114 0.8447
-20.4146 -34.4069 2.4809 0.8519
-15.8217 -31.6078 2.1919 0.8679
-15.4837 -33.9046 2.3113 0.8612
-16.1021 -38.8740 2.6092 0.8448
-12.5338 -33.6046 2.2241 0.8661
-11.5501 -34.7027 2.2680 0.8637
-11.2700 -38.3821 2.4806 0.8519
-8.4715 -33.1911 2.1242 0.8717
-4.7172 -32.8091 2.0554 0.8756
-4.0517 -37.6864 2.3504 0.8591
-1.1589 -32.4470 2.0133 0.8780
-0.0000 -37.2742 2.3114 0.8612
3.4375 -31.9733 1.9941 0.8791
5.2820 -36.7370 2.3015 0.8618
6.6038 -36.6025 2.3064 0.8615
6.8949 -31.6953 2.0114 0.8781
6.9833 -23.7830 1.5371 0.9054
9.9617 -15.5007 1.1426 0.9288
29.5824 -13.5098 2.0167 0.8778
-29.0565 -20.1742 1.3948 0.8680
-30.7922 -33.0732 1.7818 0.8345
-30.7199 -35.4527 1.8497 0.8288
-21.9207 -27.2019 1.3775 0.8695
-24.1510 -34.7841 1.6698 0.8441
-20.4127 -34.4038 1.5774 0.8520
-19.1742 -35.1149 1.5776 0.8520
-11.8806 -26.0148 1.1277 0.8918
-16.1176 -38.9114 1.6607 0.8448
-12.5328 -33.6019 1.4141 0.8663
-11.5504 -34.7034 1.4422 0.8638
-6.8503 -37.9684 1.5213 0.8569
-4.7169 -32.8066 1.3069 0.8757
-2.6852 -37.5447 1.4842 0.8601
-1.1588 -32.4447 1.2801 0.8781
0.0000 -37.2715 1.4697 0.8614
6.6033 -36.5999 1.4665 0.8617
6.8944 -31.6931 1.2789 0.8782
17.8171 -32.6297 1.4659 0.8617
9.9648 -15.5056 0.7268 0.9289
16.1880 -23.3151 1.1192 0.8926
29.5854 -13.5112 1.2825 0.8779
-29.0667 -20.1814 0.5977 0.8680
-24.1487 -34.7808 0.7152 0.8442
-22.7687 -35.4288 0.7114 0.8449
-19.1745 -35.1156 0.6758 0.8521
-17.0484 -34.0584 0.6434 0.8587
-15.4811 -33.8989 0.6295 0.8615
-16.0995 -38.8676 0.7106 0.8451
-11.5507 -34.7042 0.6178 0.8639
-11.2620 -38.3551 0.6752 0.8522
-8.4702 -33.1860 0.5785 0.8720
-6.8426 -37.9259 0.6510 0.8571
-4.0469 -37.6415 0.6395 0.8595
-2.5947 -36.2787 0.6144 0.8646
1.2813 -35.8766 0.6064 0.8662
3.4370 -31.9687 0.5431 0.8793
5.2757 -36.6933 0.6262 0.8622
6.8940 -31.6910 0.5478 0.8783
10.9112 -42.7497 0.7453 0.8382
17.8160 -32.6276 0.6280 0.8618
9.9680 -15.5105 0.3114 0.9289
-13.8469 -18.4973 -0.1301 0.9117
-24.1464 -34.7775 -0.2384 0.8442
-22.7690 -35.4294 -0.2371 0.8450
-17.0470 -34.0555 -0.2144 0.8587
-15.4798 -33.8961 -0.2098 0.8615
-16.1150 -38.9050 -0.2371 0.8450
-11.5509 -34.7050 -0.2060 0.8639
-11.2604 -38.3493 -0.2250 0.8522
-6.8559 -37.9996 -0.2174 0.8569
-4.7162 -32.8018 -0.1866 0.8759
-4.0508 -37.6781 -0.2134 0.8593
-1.1586 -32.4400 -0.1828 0.8782
0.0000 -37.2661 -0.2098 0.8615
1.3277 -37.1749 -0.2094 0.8617
2.5945 -36.2766 -0.2048 0.8646
6.6024 -36.5946 -0.2094 0.8618
10.9104 -42.7466 -0.2484 0.8382
38.9173 -12.9529 -0.2309 0.8487
-29.0873 -20.1957 -0.9971 0.8679
-13.8418 -18.4905 -0.6504 0.9117
-24.1442 -34.7742 -1.1920 0.8442
-17.0455 -34.0526 -1.0723 0.8587
-15.4785 -33.8933 -1.0492 0.8615
-12.5298 -33.5938 -1.0096 0.8663
-11.5512 -34.7058 -1.0300 0.8638
-11.2587 -38.3437 -1.1253 0.8522
-8.2895 -38.1064 -1.0981 0.8555
-4.0505 -37.6753 -1.0670 0.8593
-1.1585 -32.4376 -0.9140 0.8782
-0.0000 -37.2634 -1.0493 0.8615
2.5944 -36.2744 -1.0240 0.8646
3.4365 -31.9641 -0.9052 0.8793
5.2804 -36.7263 -1.0448 0.8620
6.8930 -31.6868 -0.9131 0.8783
9.7035 -33.0469 -0.9698 0.8713
17.8138 -32.6235 -1.0466 0.8618
9.9743 -15.5203 -0.5195 0.9288
41.2439 -13.7273 -1.2240 0.8403
39.9734 -11.7372 -1.1731 0.8464
-45.6421 0.0000 -2.3147 0.8329
-48.6758 -1.7384 -2.4701 0.8228
-48.3627 -8.7256 -2.4923 0.8213
-47.8333 -12.2087 -2.5036 0.8206
-47.0536 -15.6610 -2.5150 0.8199
-46.5703 -17.3698 -2.5207 0.8195
-42.6530 -19.4790 -2.3780 0.8288
-42.0247 -21.0360 -2.3833 0.8284
-39.0718 -21.3348 -2.2576 0.8367
-32.0492 -19.0157 -1.8899 0.8613
-39.8194 -25.5904 -2.4005 0.8273
-29.0976 -20.2028 -1.7965 0.8677
-28.5033 -21.3373 -1.8057 0.8671
-30.4825 -24.5644 -1.9854 0.8549
-24.7234 -23.0182 -1.7131 0.8735
-33.2991 -35.7658 -2.4783 0.8222
-13.8367 -18.4836 -1.1709 0.9117
-22.7697 -35.4304 -2.1359 0.8448
-19.1755 -35.1173 -2.0292 0.8519
-11.5515 -34.7066 -1.8551 0.8637
-11.2570 -38.3379 -2.0264 0.8521
-8.2889 -38.1035 -1.9776 0.8554
-4.7155 -32.7969 -1.6804 0.8757
-2.6858 -37.5529 -1.9093 0.8600
-1.1584 -32.4352 -1.6460 0.8781
0.0000 -37.2607 -1.8896 0.8614
2.5942 -36.2722 -1.8442 0.8645
6.6014 -36.5893 -1.8856 0.8616
6.8926 -31.6846 -1.6444 0.8782
10.9088 -42.7404 -2.2370 0.8381
17.8127 -32.6215 -1.8849 0.8617
9.9774 -15.5252 -0.9359 0.9288
23.1218 -33.3017 -2.0560 0.8501
25.3977 -31.5166 -2.0527 0.8503
25.8821 -29.8695 -2.0044 0.8536
29.1889 -27.1758 -2.0225 0.8524
31.3611 -27.1746 -2.1045 0.8469
38.8381 -31.2977 -2.5296 0.8189
34.6017 -25.9025 -2.1920 0.8410
19.6186 -13.6214 -1.2112 0.9088
42.2388 -25.0614 -2.4908 0.8214
30.8073 -16.8221 -1.7801 0.8689
43.5521 -21.8007 -2.4700 0.8228
44.6040 -18.4756 -2.4484 0.8242
43.4252 -16.1967 -2.3505 0.8306
39.9428 -11.7283 -2.1112 0.8464
46.2209 -11.7972 -2.4192 0.8261
46.5151 -10.1188 -2.4142 0.8264
-33.7935 -1.2069 -2.4794 0.8732
-33.2995 -7.2439 -2.4987 0.8723
-33.0716 -8.4410 -2.5026 0.8721
-32.8006 -9.6312 -2.5065 0.8719
-31.7320 -13.1438 -2.5184 0.8713
-31.2912 -14.2902 -2.5223 0.8711
-30.8089 -15.4218 -2.5262 0.8709
-27.5202 -17.6862 -2.3986 0.8770
-26.7394 -18.5655 -2.3868 0.8776
-26.0981 -19.5368 -2.3903 0.8774
-24.7090 -21.4105 -2.3972 0.8771
-22.3977 -24.0568 -2.4100 0.8765
-18.9504 -27.2938 -2.4363 0.8752
-12.8814 -21.7104 -1.8510 0.9037
-16.0398 -29.3746 -2.4540 0.8744
-15.0142 -29.9946 -2.4594 0.8741
-11.7929 -31.6180 -2.4743 0.8734
-6.4382 -21.9264 -1.6756 0.9124
-8.3874 -32.8616 -2.4867 0.8728
-6.0383 -33.4679 -2.4936 0.8725
-4.7151 -32.7944 -2.4293 0.8756
-2.4339 -34.0305 -2.5016 0.8721
1.2202 -34.1646 -2.5066 0.8719
2.4399 -34.1137 -2.5077 0.8718
6.8921 -31.6824 -2.3773 0.8781
8.4587 -33.1408 -2.5079 0.8718
10.7915 -32.4232 -2.5056 0.8719
11.9342 -31.9968 -2.5039 0.8720
14.1623 -31.0111 -2.4997 0.8722
22.9171 -24.6147 -2.4659 0.8738
18.2361 -18.2361 -1.8910 0.9017
25.2523 -21.8813 -2.4500 0.8746
25.9560 -20.9167 -2.4442 0.8749
28.4080 -16.8553 -2.4220 0.8759
28.9572 -15.8118 -2.4191 0.8761
28.6961 -13.1051 -2.3131 0.8812
29.9457 -12.4039 -2.3766 0.8781
30.7555 -11.4712 -2.4068 0.8766
32.7376 -10.8961 -2.5299 0.8708
33.7270 -8.6083 -2.5522 0.8697
33.9641 -7.3885 -2.5486 0.8699
34.3040 -4.9322 -2.5411 0.8702
-25.8607 -0.9236 -2.4843 0.9012
-25.8415 -1.8482 -2.4872 0.9011
-25.7046 -3.6958 -2.4931 0.9009
-25.5868 -4.6164 -2.4961 0.9008
-25.4361 -5.5333 -2.4991 0.9007
-25.2526 -6.4454 -2.5021 0.9006
-24.7879 -8.2502 -2.5081 0.9003
-24.1938 -10.0214 -2.5141 0.9001
-23.4727 -11.7496 -2.5200 0.8999
-23.0653 -12.5946 -2.5230 0.8998
-22.1591 -14.2408 -2.5288 0.8996
-21.1343 -15.8210 -2.5345 0.8993
-20.5595 -16.5679 -2.5349 0.8993
-19.3392 -16.7575 -2.4567 0.9023
-18.2052 -16.9496 -2.3880 0.9049
-17.6070 -17.6070 -2.3905 0.9048
-16.9847 -18.2429 -2.3930 0.9047
-15.1382 -17.4705 -2.2193 0.9113
-14.0348 -17.4161 -2.1474 0.9140
-12.4392 -16.6168 -1.9928 0.9200
-13.5400 -21.0686 -2.4044 0.9043
-12.7904 -21.5571 -2.4065 0.9042
-11.2457 -22.4660 -2.4120 0.9040
-8.8194 -23.6458 -2.4229 0.9036
-7.1254 -21.4084 -2.1662 0.9133
-4.5070 -24.9809 -2.4370 0.9030
0.0000 -15.2891 -1.4678 0.9404
1.0873 -15.2022 -1.4632 0.9406
2.7255 -25.3513 -2.4479 0.9026
3.6290 -25.2405 -2.4481 0.9026
5.4200 -24.9155 -2.4480 0.9026
5.7807 -19.6871 -1.9699 0.9209
8.0456 -24.1730 -2.4459 0.9027
9.7392 -23.5124 -2.4433 0.9028
10.5651 -23.1343 -2.4417 0.9029
11.3753 -22.7250 -2.4398 0.9029
8.4570 -14.2535 -1.5911 0.9356
9.9837 -15.5350 -1.7729 0.9285
15.1503 -20.2384 -2.4271 0.9034
15.8422 -19.6590 -2.4239 0.9035
17.8031 -17.8032 -2.4172 0.9038
19.0018 -16.4651 -2.4138 0.9039
20.0975 -15.0448 -2.4102 0.9040
19.5123 -13.5476 -2.2805 0.9090
21.0849 -13.5504 -2.4062 0.9042
21.5363 -12.7781 -2.4041 0.9043
22.1663 -12.1037 -2.4247 0.9035
23.7313 -11.8791 -2.5478 0.8988
25.6330 -6.5425 -2.5398 0.8991
25.8221 -5.6173 -2.5370 0.8993
25.9774 -4.6869 -2.5342 0.8994
26.0988 -3.7525 -2.5314 0.8995
26.1863 -2.8153 -2.5285 0.8996
26.2399 -1.8767 -2.5256 0.8997
-20.9067 -1.4953 -2.4898 0.9190
-20.7865 -2.9887 -2.4945 0.9189
-20.6866 -3.7323 -2.4969 0.9188
-20.5600 -4.4726 -2.4994 0.9187
-20.4070 -5.2086 -2.5018 0.9187
-20.2277 -5.9394 -2.5042 0.9186
-20.0222 -6.6640 -2.5066 0.9185
-19.7907 -7.3816 -2.5091 0.9184
-18.6096 -10.1616 -2.5186 0.9181
-17.8705 -11.4847 -2.5233 0.9180
-17.4652 -12.1263 -2.5256 0.9179
-16.5853 -13.3653 -2.5302 0.9178
-16.1118 -13.9609 -2.5324 0.9177
-15.6167 -14.5396 -2.5346 0.9176
-15.1005 -15.1005 -2.5367 0.9176
-12.0571 -16.1064 -2.3899 0.9222
-11.4831 -16.5388 -2.3917 0.9221
-9.6696 -17.7085 -2.3967 0.9219
-9.0372 -18.0539 -2.3982 0.9219
-7.0680 -18.9501 -2.4025 0.9218
-5.0094 -19.6268 -2.4061 0.9216
-4.3076 -19.8018 -2.4072 0.9216
-2.8863 -20.0745 -2.4091 0.9216
-1.6666 -15.5013 -1.8519 0.9391
0.7249 -20.2962 -2.4124 0.9214
2.8915 -20.1108 -2.4134 0.9214
3.6077 -19.9962 -2.4136 0.9214
5.0252 -19.6885 -2.4137 0.9214
7.0994 -19.0343 -2.4132 0.9214
7.7732 -18.7661 -2.4128 0.9214
8.4365 -18.4734 -2.4124 0.9215
9.0886 -18.1566 -2.4119 0.9215
7.8184 -14.3183 -1.9379 0.9364
10.2108 -14.7063 -2.1267 0.9304
12.7150 -15.7784 -2.4071 0.9216
13.2641 -15.3076 -2.4060 0.9217
14.8019 -13.7811 -2.4023 0.9218
16.9359 -12.6781 -2.5130 0.9183
17.6341 -12.2436 -2.5501 0.9172
18.0601 -11.6065 -2.5501 0.9172
18.4500 -10.9469 -2.5483 0.9172
18.8153 -10.2740 -2.5465 0.9173
19.1557 -9.5887 -2.5446 0.9173
19.4708 -8.8920 -2.5426 0.9174
20.0235 -7.4684 -2.5386 0.9175
20.2606 -6.7434 -2.5365 0.9176
20.4711 -6.0108 -2.5343 0.9176
20.6547 -5.2718 -2.5321 0.9177
20.8115 -4.5273 -2.5299 0.9178
21.1667 -1.5139 -2.5207 0.9181
21.1874 -0.7567 -2.5184 0.9181
-17.5563 0.0000 -2.4875 0.9315
-17.5393 -1.2544 -2.4915 0.9314
-17.4974 -1.8812 -2.4935 0.9314
-17.4331 -2.5065 -2.4955 0.9313
-17.3466 -3.1297 -2.4975 0.9313
-17.2378 -3.7499 -2.4995 0.9312
-17.1069 -4.3663 -2.5016 0.9312
-16.1248 -7.3640 -2.5117 0.9309
-15.5831 -8.5090 -2.5157 0.9308
-15.2814 -9.0669 -2.5177 0.9307
-14.9597 -9.6140 -2.5196 0.9307
-14.6182 -10.1496 -2.5215 0.9306
-14.2574 -10.6730 -2.5234 0.9306
-13.8777 -11.1834 -2.5253 0.9305
-13.4796 -11.6801 -2.5272 0.9305
-13.0635 -12.1625 -2.5290 0.9304
-12.6299 -12.6300 -2.5308 0.9304
-10.7325 -14.3370 -2.5375 0.9302
-10.2203 -14.7200 -2.5391 0.9302
-9.6942 -15.0846 -2.5406 0.9301
-8.4800 -15.5300 -2.5071 0.9310
-7.7376 -15.4577 -2.4493 0.9325
-5.9035 -15.8279 -2.3935 0.9340
-4.1830 -16.3889 -2.3966 0.9339
-3.0053 -16.6574 -2.3983 0.9339
-1.6666 -15.5012 -2.2090 0.9390
-1.2086 -16.8978 -2.4004 0.9338
0.0000 -15.2338 -2.1585 0.9403
0.6050 -16.9405 -2.4018 0.9338
1.0824 -15.1340 -2.1498 0.9405
1.8125 -16.8586 -2.4025 0.9338
2.4133 -16.7846 -2.4027 0.9338
3.0110 -16.6888 -2.4028 0.9338
3.6048 -16.5711 -2.4029 0.9338
4.1940 -16.4319 -2.4029 0.9338
5.3551 -16.0893 -2.4026 0.9338
6.4878 -15.6630 -2.4021 0.9338
7.0417 -15.4192 -2.4018 0.9338
7.3634 -14.7102 -2.3308 0.9357
7.8179 -14.3174 -2.3113 0.9362
8.4763 -14.2860 -2.3536 0.9351
9.1563 -14.2475 -2.3997 0.9339
9.6562 -13.9076 -2.3990 0.9339
10.1432 -13.5497 -2.3982 0.9339
10.7845 -13.3828 -2.4353 0.9329
11.5159 -13.2901 -2.4916 0.9314
12.2348 -13.1411 -2.5440 0.9300
13.5872 -11.7734 -2.5473 0.9299
14.3778 -10.7631 -2.5448 0.9300
15.0924 -9.6993 -2.5419 0.9301
16.0136 -8.0159 -2.5373 0.9302
16.5231 -6.8441 -2.5340 0.9303
16.7456 -6.2458 -2.5323 0.9303
16.9461 -5.6402 -2.5306 0.9304
17.2806 -4.4106 -2.5270 0.9305
17.4142 -3.7882 -2.5251 0.9305
17.6136 -2.5325 -2.5213 0.9306
17.6792 -1.9007 -2.5194 0.9307
17.7220 -1.2675 -2.5174 0.9307
-15.1108 0.0000 -2.4893 0.9406
-14.9219 -2.6922 -2.4979 0.9404
-14.8267 -3.2254 -2.4997 0.9403
-14.5791 -4.2808 -2.5032 0.9403
-14.4271 -4.8018 -2.5049 0.9402
-13.6345 -6.8250 -2.5118 0.9401
-13.3913 -7.3122 -2.5135 0.9400
-12.5580 -8.7192 -2.5186 0.9399
-10.8444 -10.8444 -2.5265 0.9397
-10.4566 -11.2312 -2.5280 0.9397
-9.2117 -12.3054 -2.5323 0.9396
-8.7713 -12.6331 -2.5336 0.9396
-8.3191 -12.9448 -2.5349 0.9395
-7.8557 -13.2401 -2.5362 0.9395
-7.3817 -13.5186 -2.5374 0.9395
-6.4043 -14.0235 -2.5397 0.9394
-5.9022 -14.2491 -2.5408 0.9394
-5.3920 -14.4566 -2.5418 0.9394
-4.8744 -14.6454 -2.5428 0.9393
-4.3447 -14.7966 -2.5405 0.9394
-3.8101 -14.9280 -2.5381 0.9395
-2.6852 -14.8830 -2.4914 0.9405
-2.1316 -14.8254 -2.4674 0.9411
-1.5878 -14.7683 -2.4469 0.9416
-0.5234 -14.6548 -2.4158 0.9423
0.0000 -14.5982 -2.4049 0.9425
0.5195 -14.5448 -2.3976 0.9427
2.0689 -14.3895 -2.3949 0.9428
2.5828 -14.3153 -2.3964 0.9427
3.6219 -14.1905 -2.4127 0.9424
5.2223 -14.0016 -2.4618 0.9412
5.7723 -13.9356 -2.4849 0.9407
6.3331 -13.8676 -2.5115 0.9401
7.4007 -13.5534 -2.5439 0.9393
7.8889 -13.2961 -2.5469 0.9392
8.3600 -13.0084 -2.5474 0.9392
8.8168 -12.6986 -2.5467 0.9393
10.1147 -11.6730 -2.5445 0.9393
10.5213 -11.3006 -2.5436 0.9393
10.9139 -10.9139 -2.5427 0.9393
11.2922 -10.5134 -2.5417 0.9394
12.3355 -9.2343 -2.5385 0.9394
13.2327 -7.8514 -2.5348 0.9395
13.4975 -7.3702 -2.5335 0.9396
13.7446 -6.8801 -2.5321 0.9396
13.9738 -6.3816 -2.5307 0.9396
14.1846 -5.8754 -2.5293 0.9397
14.7051 -4.3178 -2.5248 0.9398
14.9570 -3.2537 -2.5216 0.9398
15.0539 -2.7160 -2.5200 0.9399
15.1894 -1.6330 -2.5167 0.9399
-13.2512 -0.0000 -2.4907 0.9475
-13.2332 -0.9465 -2.4937 0.9474
-13.1479 -1.8904 -2.4967 0.9474
-12.9954 -2.8270 -2.4998 0.9473
-12.8941 -3.2910 -2.5013 0.9473
-12.7763 -3.7515 -2.5028 0.9472
-12.6419 -4.2077 -2.5043 0.9472
-12.3245 -5.1050 -2.5074 0.9472
-11.9433 -5.9784 -2.5104 0.9471
-11.5000 -6.8233 -2.5134 0.9470
-10.7233 -8.0273 -2.5177 0.9469
-10.4358 -8.4097 -2.5191 0.9469
-10.1345 -8.7816 -2.5205 0.9469
-9.8200 -9.1427 -2.5219 0.9469
-9.1523 -9.8303 -2.5245 0.9468
-8.4361 -10.4686 -2.5271 0.9467
-8.0610 -10.7682 -2.5283 0.9467
-7.6751 -11.0542 -2.5295 0.9467
-6.8730 -11.5839 -2.5317 0.9467
-6.0341 -12.0547 -2.5338 0.9466
-4.7162 -12.6447 -2.5366 0.9466
-2.8722 -13.2033 -2.5397 0.9465
-1.9239 -13.3812 -2.5410 0.9465
2.8771 -13.2256 -2.5440 0.9464
3.8131 -12.9864 -2.5440 0.9464
4.7293 -12.6798 -2.5437 0.9464
5.1784 -12.5018 -2.5435 0.9464
5.6207 -12.3076 -2.5432 0.9464
6.0556 -12.0976 -2.5428 0.9464
7.3102 -11.3749 -2.5415 0.9465
7.7099 -11.1043 -2.5409 0.9465
8.8458 -10.2086 -2.5390 0.9465
9.2018 -9.8834 -2.5382 0.9465
9.5456 -9.5457 -2.5374 0.9465
9.8770 -9.1958 -2.5365 0.9466
10.1953 -8.8342 -2.5356 0.9466
10.5001 -8.4616 -2.5347 0.9466
10.7913 -8.0783 -2.5337 0.9466
11.0682 -7.6848 -2.5327 0.9466
11.3307 -7.2818 -2.5316 0.9467
11.8107 -6.4491 -2.5293 0.9467
12.0277 -6.0207 -2.5282 0.9467
12.2291 -5.5848 -2.5269 0.9468
12.4144 -5.1422 -2.5257 0.9468
12.5837 -4.6935 -2.5244 0.9468
12.7366 -4.2391 -2.5231 0.9468
13.0954 -2.8487 -2.5190 0.9469
13.2503 -1.9051 -2.5161 0.9470
13.3369 -0.9539 -2.5132 0.9470
-11.6932 -1.6812 -2.4971 0.9528
-11.6320 -2.0987 -2.4985 0.9528
-11.3596 -3.3355 -2.5026 0.9527
-11.1047 -4.1419 -2.5053 0.9527
-10.9557 -4.5380 -2.5066 0.9527
-10.7925 -4.9288 -2.5080 0.9527
-10.6154 -5.3137 -2.5093 0.9526
-10.0023 -6.4281 -2.5133 0.9526
-9.2719 -7.4718 -2.5171 0.9525
-9.0037 -7.8018 -2.5183 0.9525
-8.7237 -8.1220 -2.5195 0.9524
-8.1296 -8.7318 -2.5219 0.9524
-7.4926 -9.2978 -2.5241 0.9524
-6.8160 -9.8169 -2.5262 0.9523
-6.4638 -10.0579 -2.5272 0.9523
-4.9740 -10.8914 -2.5309 0.9522
-4.1870 -11.2257 -2.5326 0.9522
-3.7848 -11.3714 -2.5333 0.9522
-3.3774 -11.5025 -2.5340 0.9522
-2.9655 -11.6187 -2.5347 0.9522
-1.7077 -11.8773 -2.5364 0.9521
-1.2829 -11.9330 -2.5369 0.9521
0.0000 -12.0073 -2.5381 0.9521
0.4286 -12.0010 -2.5384 0.9521
0.8567 -11.9793 -2.5386 0.9521
1.2839 -11.9420 -2.5388 0.9521
1.7094 -11.8892 -2.5390 0.9521
2.1328 -11.8211 -2.5391 0.9521
2.5534 -11.7377 -2.5391 0.9521
2.9707 -11.6390 -2.5391 0.9521
3.3841 -11.5253 -2.5391 0.9521
3.7932 -11.3968 -2.5390 0.9521
4.5959 -11.0956 -2.5386 0.9521
5.3746 -10.7371 -2.5381 0.9521
5.7536 -10.5370 -2.5377 0.9521
6.4885 -10.0963 -2.5369 0.9521
6.8434 -9.8564 -2.5364 0.9521
7.1893 -9.6038 -2.5358 0.9521
7.8524 -9.0621 -2.5346 0.9522
8.4742 -8.4742 -2.5332 0.9522
8.7686 -8.1639 -2.5325 0.9522
9.3227 -7.5127 -2.5309 0.9522
9.5815 -7.1727 -2.5300 0.9522
10.6820 -5.3471 -2.5251 0.9523
10.8614 -4.9603 -2.5240 0.9524
11.0267 -4.5674 -2.5229 0.9524
11.3141 -3.7657 -2.5206 0.9524
11.4359 -3.3579 -2.5194 0.9524
11.6350 -2.5310 -2.5169 0.9525
11.7121 -2.1131 -2.5157 0.9525
11.7741 -1.6929 -2.5144 0.9525
11.8209 -1.2709 -2.5131 0.9526
11.8526 -0.8477 -2.5118 0.9526
11.8691 -0.4239 -2.5105 0.9526
-10.6060 -0.0000 -2.4926 0.9574
-10.6042 -0.3787 -2.4938 0.9573
-10.5891 -0.7573 -2.4950 0.9573
-10.5604 -1.1354 -2.4962 0.9573
-10.5182 -1.5123 -2.4975 0.9573
-10.4627 -1.8877 -2.4987 0.9573
-10.1073 -3.3640 -2.5036 0.9572
-9.9856 -3.7245 -2.5048 0.9572
-9.5441 -4.7774 -2.5084 0.9571
-9.3720 -5.1175 -2.5096 0.9571
-9.1877 -5.4513 -2.5108 0.9571
-8.7835 -6.0985 -2.5131 0.9570
-7.8401 -7.2994 -2.5176 0.9569
-7.5778 -7.5778 -2.5186 0.9569
-7.3055 -7.8467 -2.5197 0.9569
-7.0236 -8.1057 -2.5207 0.9569
-6.7325 -8.3545 -2.5217 0.9569
-6.4325 -8.5928 -2.5227 0.9569
-6.1239 -8.8202 -2.5236 0.9568
-5.8073 -9.0364 -2.5245 0.9568
-5.4830 -9.2411 -2.5254 0.9568
-5.1514 -9.4341 -2.5262 0.9568
-4.4681 -9.7838 -2.5278 0.9568
-3.7609 -10.0834 -2.5293 0.9567
-3.0336 -10.3314 -2.5306 0.9567
-2.6635 -10.4355 -2.5312 0.9567
-1.9131 -10.6035 -2.5323 0.9567
-1.5337 -10.6670 -2.5328 0.9567
-1.1522 -10.7168 -2.5332 0.9567
-0.7691 -10.7528 -2.5336 0.9567
-0.3848 -10.7748 -2.5340 0.9567
0.7694 -10.7576 -2.5347 0.9567
1.1530 -10.7240 -2.5349 0.9566
2.2929 -10.5404 -2.5352 0.9566
2.6677 -10.4519 -2.5352 0.9566
3.4063 -10.2344 -2.5350 0.9566
4.1272 -9.9640 -2.5347 0.9567
4.8266 -9.6423 -2.5342 0.9567
5.8272 -9.0673 -2.5332 0.9567
7.3370 -7.8805 -2.5305 0.9567
7.6116 -7.6117 -2.5299 0.9567
7.8764 -7.3332 -2.5292 0.9567
8.8291 -6.1301 -2.5262 0.9568
9.5979 -4.8044 -2.5226 0.9569
9.7595 -4.4570 -2.5216 0.9569
10.0446 -3.7464 -2.5196 0.9569
10.3743 -2.6479 -2.5164 0.9570
10.5274 -1.8994 -2.5141 0.9570
10.5837 -1.5217 -2.5130 0.9570
10.6554 -0.7621 -2.5107 0.9571
10.6707 -0.3811 -2.5095 0.9571
-9.6299 -0.0000 -2.4934 0.9610
-9.6280 -0.3439 -2.4944 0.9610
-9.6137 -0.6876 -2.4955 0.9610
-9.5486 -1.3729 -2.4977 0.9609
-9.3596 -2.3889 -2.5011 0.9609
-9.2725 -2.7227 -2.5022 0.9609
-9.0626 -3.3802 -2.5044 0.9608
-8.5042 -4.6436 -2.5088 0.9608
-8.1582 -5.2429 -2.5109 0.9607
-7.9692 -5.5331 -2.5119 0.9607
-7.1120 -6.6215 -2.5160 0.9606
-6.8738 -6.8738 -2.5169 0.9606
-6.3707 -7.3521 -2.5188 0.9606
-5.5540 -7.9993 -2.5214 0.9606
-3.7334 -9.0132 -2.5260 0.9605
-3.4102 -9.1431 -2.5266 0.9605
-2.7505 -9.3675 -2.5278 0.9605
-1.3905 -9.6710 -2.5298 0.9604
-1.0446 -9.7160 -2.5301 0.9604
-0.3489 -9.7684 -2.5308 0.9604
-0.0000 -9.7757 -2.5311 0.9604
0.3490 -9.7704 -2.5313 0.9604
0.6975 -9.7525 -2.5315 0.9604
1.0452 -9.7220 -2.5317 0.9604
1.3916 -9.6789 -2.5318 0.9604
2.0787 -9.5554 -2.5319 0.9604
2.4184 -9.4752 -2.5319 0.9604
2.7550 -9.3826 -2.5319 0.9604
3.0880 -9.2780 -2.5318 0.9604
4.0613 -8.8930 -2.5313 0.9604
4.6844 -8.5789 -2.5308 0.9604
4.9870 -8.4051 -2.5305 0.9604
5.5722 -8.0255 -2.5297 0.9604
5.8541 -7.8202 -2.5293 0.9604
6.1284 -7.6048 -2.5288 0.9604
6.6525 -7.1453 -2.5277 0.9605
7.1419 -6.6493 -2.5265 0.9605
7.3728 -6.3885 -2.5259 0.9605
7.8054 -5.8431 -2.5245 0.9605
8.8519 -4.0426 -2.5196 0.9606
8.9874 -3.7227 -2.5187 0.9606
9.3233 -2.7376 -2.5159 0.9606
9.4113 -2.4021 -2.5149 0.9607
9.4873 -2.0639 -2.5139 0.9607
9.5510 -1.7232 -2.5129 0.9607
9.6416 -1.0366 -2.5108 0.9607
9.6684 -0.6915 -2.5097 0.9607
-8.8097 -0.0000 -2.4940 0.9640
-8.7697 -0.9429 -2.4969 0.9640
-8.7340 -1.2558 -2.4980 0.9640
-8.6871 -1.5673 -2.4990 0.9640
-8.5601 -2.1848 -2.5010 0.9639
-8.1753 -3.3863 -2.5051 0.9639
-8.0524 -3.6774 -2.5061 0.9639
-7.7757 -4.2459 -2.5080 0.9638
-7.4588 -4.7935 -2.5100 0.9638
-6.9115 -5.5696 -2.5128 0.9638
-6.7107 -5.8149 -2.5137 0.9638
-6.2833 -6.2833 -2.5155 0.9637
-5.5812 -6.9259 -2.5181 0.9637
-5.3322 -7.1229 -2.5189 0.9637
-5.0761 -7.3110 -2.5196 0.9637
-4.8134 -7.4897 -2.5204 0.9637
-4.2692 -7.8185 -2.5218 0.9636
-3.9885 -7.9680 -2.5225 0.9636
-3.4116 -8.2364 -2.5238 0.9636
-3.1162 -8.3548 -2.5244 0.9636
-2.8166 -8.4626 -2.5249 0.9636
-2.5133 -8.5595 -2.5254 0.9636
-1.8970 -8.7203 -2.5264 0.9636
-1.5848 -8.7840 -2.5268 0.9636
-0.3188 -8.9249 -2.5282 0.9636
0.0000 -8.9315 -2.5285 0.9636
0.3188 -8.9266 -2.5287 0.9635
0.9549 -8.8823 -2.5290 0.9635
1.5863 -8.7922 -2.5292 0.9635
1.8991 -8.7301 -2.5292 0.9635
2.5170 -8.5722 -2.5292 0.9635
2.8213 -8.4766 -2.5291 0.9635
3.1219 -8.3702 -2.5290 0.9635
3.7106 -8.1250 -2.5286 0.9635
3.9979 -7.9867 -2.5284 0.9636
4.2799 -7.8381 -2.5282 0.9636
4.8270 -7.5110 -2.5275 0.9636
5.0913 -7.3328 -2.5272 0.9636
5.3489 -7.1453 -2.5268 0.9636
5.5996 -6.9487 -2.5263 0.9636
5.8430 -6.7431 -2.5259 0.9636
6.0787 -6.5290 -2.5254 0.9636
6.5262 -6.0761 -2.5243 0.9636
6.9397 -5.5923 -2.5231 0.9636
7.4917 -4.8146 -2.5210 0.9637
7.6565 -4.5428 -2.5203 0.9637
7.8114 -4.2654 -2.5196 0.9637
7.9562 -3.9826 -2.5188 0.9637
8.0907 -3.6949 -2.5180 0.9637
8.3282 -3.1062 -2.5163 0.9637
8.4308 -2.8060 -2.5154 0.9637
8.6731 -1.8867 -2.5127 0.9638
8.7790 -1.2622 -2.5108 0.9638
-8.1078 -0.2896 -2.4954 0.9666
-8.0953 -0.5790 -2.4963 0.9666
-8.0725 -0.8679 -2.4972 0.9666
-8.0393 -1.1559 -2.4982 0.9666
-7.9423 -1.7278 -2.5000 0.9666
-7.7208 -2.5697 -2.5028 0.9665
-7.2872 -3.6477 -2.5065 0.9665
-6.5354 -4.8923 -2.5110 0.9664
-6.1739 -5.3497 -2.5127 0.9664
-5.9810 -5.5685 -2.5135 0.9664
-5.7803 -5.7803 -2.5143 0.9664
-5.1340 -6.3710 -2.5166 0.9663
-4.9048 -6.5521 -2.5174 0.9663
-4.4274 -6.8891 -2.5188 0.9663
-4.1798 -7.0445 -2.5195 0.9663
-3.9267 -7.1912 -2.5201 0.9663
-3.6684 -7.3285 -2.5207 0.9663
-2.8659 -7.6839 -2.5224 0.9663
-2.5904 -7.7829 -2.5229 0.9663
-2.3114 -7.8719 -2.5234 0.9662
-2.0293 -7.9508 -2.5239 0.9662
-1.7445 -8.0195 -2.5243 0.9662
-1.4574 -8.0779 -2.5247 0.9662
-1.1683 -8.1259 -2.5251 0.9662
-0.8777 -8.1635 -2.5254 0.9662
-0.5858 -8.1906 -2.5257 0.9662
-0.2931 -8.2072 -2.5260 0.9662
0.0000 -8.2132 -2.5262 0.9662
0.5860 -8.1935 -2.5266 0.9662
0.8781 -8.1678 -2.5267 0.9662
1.1691 -8.1315 -2.5268 0.9662
1.4587 -8.0848 -2.5269 0.9662
1.7463 -8.0277 -2.5269 0.9662
2.0317 -7.9603 -2.5269 0.9662
2.3145 -7.8826 -2.5269 0.9662
3.1435 -7.5891 -2.5266 0.9662
3.6763 -7.3444 -2.5262 0.9662
4.1901 -7.0620 -2.5257 0.9662
4.9190 -6.5710 -2.5247 0.9662
5.5904 -6.0045 -2.5234 0.9662
5.8000 -5.8000 -2.5229 0.9663
6.1964 -5.3692 -2.5218 0.9663
6.3826 -5.1434 -2.5213 0.9663
6.5606 -4.9112 -2.5207 0.9663
6.8907 -4.4284 -2.5194 0.9663
7.1852 -3.9234 -2.5180 0.9663
7.4425 -3.3989 -2.5166 0.9663
7.5568 -3.1301 -2.5158 0.9663
7.7560 -2.5814 -2.5142 0.9664
7.9796 -1.7359 -2.5117 0.9664
8.0337 -1.4494 -2.5109 0.9664
8.1340 -0.5818 -2.5082 0.9664
-7.5057 0.0000 -2.4949 0.9689
-7.4916 -0.5358 -2.4966 0.9688
-7.3990 -1.3349 -2.4992 0.9688
-7.2214 -2.1204 -2.5018 0.9688
-7.1436 -2.3776 -2.5026 0.9688
-7.0566 -2.6320 -2.5035 0.9688
-6.8556 -3.1308 -2.5052 0.9687
-6.7417 -3.3747 -2.5061 0.9687
-6.4881 -3.8496 -2.5077 0.9687
-6.3487 -4.0801 -2.5086 0.9687
-6.0454 -4.5255 -2.5102 0.9687
-5.7107 -4.9483 -2.5118 0.9687
-5.5321 -5.1506 -2.5125 0.9686
-4.9542 -5.7174 -2.5147 0.9686
-4.7483 -5.8923 -2.5154 0.9686
-4.3181 -6.2193 -2.5168 0.9686
-4.0944 -6.3711 -2.5174 0.9686
-3.3924 -6.7771 -2.5192 0.9686
-3.1490 -6.8953 -2.5198 0.9686
-2.9015 -7.0048 -2.5203 0.9685
-2.6501 -7.1053 -2.5208 0.9685
-0.8115 -7.5482 -2.5235 0.9685
-0.2710 -7.5884 -2.5240 0.9685
1.0810 -7.5183 -2.5248 0.9685
1.3486 -7.4751 -2.5249 0.9685
1.6146 -7.4223 -2.5249 0.9685
1.8785 -7.3599 -2.5249 0.9685
2.1400 -7.2881 -2.5249 0.9685
2.3987 -7.2069 -2.5248 0.9685
2.6543 -7.1164 -2.5247 0.9685
3.1548 -6.9081 -2.5244 0.9685
3.8742 -6.5296 -2.5238 0.9685
4.1043 -6.3865 -2.5235 0.9685
4.3291 -6.2351 -2.5232 0.9685
5.1693 -5.5522 -2.5216 0.9685
5.3632 -5.3632 -2.5212 0.9685
5.5502 -5.1674 -2.5207 0.9685
5.7299 -4.9650 -2.5202 0.9685
5.9022 -4.7563 -2.5197 0.9686
6.2237 -4.3212 -2.5186 0.9686
6.3725 -4.0953 -2.5180 0.9686
6.7685 -3.3881 -2.5160 0.9686
6.8833 -3.1435 -2.5154 0.9686
7.2522 -2.1294 -2.5124 0.9686
7.3213 -1.8687 -2.5117 0.9687
7.3811 -1.6057 -2.5109 0.9687
7.4721 -1.0743 -2.5093 0.9687
7.5032 -0.8067 -2.5085 0.9687
7.5247 -0.5382 -2.5077 0.9687
7.5366 -0.2692 -2.5068 0.9687
-6.9778 0.0000 -2.4953 0.9708
-6.9444 -0.7466 -2.4977 0.9708
-6.8778 -1.2409 -2.4993 0.9707
-6.8314 -1.4861 -2.5001 0.9707
-6.7123 -1.9709 -2.5017 0.9707
-6.5588 -2.4463 -2.5033 0.9707
-6.3716 -2.9098 -2.5049 0.9707
-6.1516 -3.3590 -2.5065 0.9707
-5.6178 -4.2054 -2.5095 0.9706
-5.1405 -4.7860 -2.5117 0.9706
-4.6032 -5.3124 -2.5137 0.9706
-4.4118 -5.4747 -2.5144 0.9706
-3.8041 -5.9193 -2.5162 0.9706
-3.3736 -6.1783 -2.5173 0.9705
-2.9255 -6.4059 -2.5184 0.9705
-2.4620 -6.6008 -2.5193 0.9705
-2.2252 -6.6856 -2.5198 0.9705
-1.7431 -6.8295 -2.5206 0.9705
-1.2518 -6.9384 -2.5213 0.9705
-0.5031 -7.0348 -2.5221 0.9705
-0.2518 -7.0490 -2.5224 0.9705
0.2518 -7.0500 -2.5227 0.9705
0.7542 -7.0148 -2.5230 0.9705
1.2527 -6.9435 -2.5231 0.9705
1.4998 -6.8944 -2.5232 0.9705
1.7449 -6.8365 -2.5232 0.9705
2.2281 -6.6944 -2.5231 0.9705
2.9305 -6.4169 -2.5227 0.9705
3.3803 -6.1906 -2.5223 0.9705
3.5988 -6.0654 -2.5221 0.9705
3.8126 -5.9325 -2.5218 0.9705
4.4233 -5.4889 -2.5209 0.9705
4.6157 -5.3268 -2.5205 0.9705
4.8021 -5.1578 -2.5201 0.9705
5.1561 -4.8005 -2.5193 0.9705
5.3231 -4.6125 -2.5188 0.9705
5.4833 -4.4187 -2.5183 0.9705
6.1739 -3.3712 -2.5155 0.9706
6.3955 -2.9207 -2.5143 0.9706
6.5841 -2.4558 -2.5130 0.9706
6.6658 -2.2186 -2.5123 0.9706
6.8589 -1.4921 -2.5102 0.9706
6.9728 -0.7497 -2.5079 0.9706
6.9930 -0.5002 -2.5071 0.9707
7.0042 -0.2502 -2.5064 0.9707
-6.5124 -0.0000 -2.4957 0.9725
-6.4996 -0.4649 -2.4971 0.9725
-6.4184 -1.1580 -2.4994 0.9724
-6.3749 -1.3868 -2.5001 0.9724
-6.3232 -1.6139 -2.5009 0.9724
-6.1957 -2.0621 -2.5024 0.9724
-6.0364 -2.5004 -2.5038 0.9724
-5.9450 -2.7150 -2.5046 0.9724
-5.7396 -3.1340 -2.5060 0.9724
-5.3763 -3.7328 -2.5082 0.9724
-5.2411 -3.9234 -2.5089 0.9723
-4.9505 -4.2896 -2.5103 0.9723
-3.7423 -5.3900 -2.5146 0.9723
-3.1467 -5.7628 -2.5162 0.9723
-2.9396 -5.8726 -2.5167 0.9723
-2.7287 -5.9749 -2.5172 0.9723
-2.5141 -6.0696 -2.5176 0.9722
-2.2963 -6.1565 -2.5181 0.9722
-2.0754 -6.2356 -2.5185 0.9722
-1.3976 -6.4245 -2.5196 0.9722
-0.7031 -6.5393 -2.5204 0.9722
-0.4692 -6.5609 -2.5207 0.9722
-0.2348 -6.5740 -2.5209 0.9722
-0.0000 -6.5787 -2.5211 0.9722
0.2348 -6.5749 -2.5212 0.9722
0.7033 -6.5420 -2.5215 0.9722
1.1683 -6.4755 -2.5216 0.9722
1.3987 -6.4298 -2.5216 0.9722
1.6273 -6.3758 -2.5216 0.9722
2.0779 -6.2432 -2.5215 0.9722
2.5178 -6.0786 -2.5214 0.9722
2.7330 -5.9845 -2.5212 0.9722
3.1526 -5.7735 -2.5209 0.9722
3.3563 -5.6568 -2.5206 0.9722
4.6469 -4.6470 -2.5184 0.9722
5.1144 -4.1215 -2.5171 0.9723
5.3933 -3.7446 -2.5161 0.9723
5.5224 -3.5490 -2.5156 0.9723
5.6443 -3.3489 -2.5151 0.9723
6.0579 -2.5093 -2.5128 0.9723
6.1420 -2.2909 -2.5121 0.9723
6.2866 -1.8459 -2.5108 0.9723
6.3468 -1.6199 -2.5102 0.9723
6.3988 -1.3920 -2.5095 0.9723
6.4783 -0.9314 -2.5081 0.9724
6.5351 -0.2334 -2.5060 0.9724
-6.0863 -0.4353 -2.4973 0.9740
-6.0686 -0.6524 -2.4980 0.9740
-5.9691 -1.2985 -2.5001 0.9739
-5.9206 -1.5111 -2.5008 0.9739
-5.8645 -1.7220 -2.5015 0.9739
-5.8009 -1.9307 -2.5022 0.9739
-5.6516 -2.3410 -2.5036 0.9739
-5.2667 -3.1249 -2.5064 0.9739
-5.0330 -3.4945 -2.5077 0.9739
-4.9063 -3.6728 -2.5084 0.9739
-4.6342 -4.0155 -2.5096 0.9738
-4.4890 -4.1794 -2.5102 0.9738
-4.0194 -4.6386 -2.5120 0.9738
-3.6799 -4.9157 -2.5132 0.9738
-3.5028 -5.0450 -2.5137 0.9738
-2.9452 -5.3938 -2.5152 0.9738
-2.7513 -5.4965 -2.5157 0.9738
-2.5538 -5.5922 -2.5161 0.9738
-2.3530 -5.6807 -2.5165 0.9738
-2.1491 -5.7620 -2.5169 0.9738
-1.7331 -5.9024 -2.5177 0.9738
-0.8759 -6.0919 -2.5189 0.9738
-0.6580 -6.1199 -2.5191 0.9737
-0.4391 -6.1400 -2.5194 0.9737
-0.2197 -6.1523 -2.5196 0.9737
0.2198 -6.1531 -2.5199 0.9737
0.4393 -6.1416 -2.5200 0.9737
0.8763 -6.0950 -2.5202 0.9737
1.3090 -6.0172 -2.5203 0.9737
1.7349 -5.9084 -2.5202 0.9737
1.9446 -5.8426 -2.5202 0.9737
2.3563 -5.6886 -2.5200 0.9737
2.5577 -5.6006 -2.5199 0.9737
2.7558 -5.5054 -2.5197 0.9737
2.9503 -5.4031 -2.5196 0.9737
3.3277 -5.1780 -2.5191 0.9737
3.6878 -4.9264 -2.5186 0.9738
3.8609 -4.7910 -2.5183 0.9738
4.0289 -4.6496 -2.5180 0.9738
4.3491 -4.3491 -2.5173 0.9738
4.5009 -4.1905 -2.5169 0.9738
4.9205 -3.6835 -2.5156 0.9738
5.1688 -3.3218 -2.5147 0.9738
5.3904 -2.9434 -2.5136 0.9738
5.8208 -1.9373 -2.5108 0.9738
5.8848 -1.7279 -2.5102 0.9738
5.9412 -1.5164 -2.5096 0.9738
-5.7277 0.0000 -2.4962 0.9753
-5.7161 -0.4088 -2.4975 0.9753
-5.6993 -0.6127 -2.4982 0.9753
-5.6753 -0.8160 -2.4988 0.9753
-5.6056 -1.2194 -2.5001 0.9753
-5.5599 -1.4191 -2.5008 0.9753
-5.5072 -1.6171 -2.5015 0.9753
-5.4474 -1.8131 -2.5021 0.9753
-5.2265 -2.3869 -2.5041 0.9752
-5.1393 -2.5726 -2.5047 0.9752
-4.9452 -2.9341 -2.5060 0.9752
-4.8385 -3.1095 -2.5066 0.9752
-4.7256 -3.2811 -2.5073 0.9752
-4.4817 -3.6116 -2.5085 0.9752
-3.9257 -4.2165 -2.5108 0.9752
-3.7735 -4.3549 -2.5113 0.9752
-3.6165 -4.4877 -2.5119 0.9752
-2.9433 -4.9606 -2.5138 0.9751
-2.3974 -5.2496 -2.5151 0.9751
-2.0174 -5.4089 -2.5159 0.9751
-1.8233 -5.4783 -2.5163 0.9751
-1.6269 -5.5406 -2.5166 0.9751
-1.4283 -5.5958 -2.5169 0.9751
-0.4122 -5.7634 -2.5182 0.9751
-0.0000 -5.7790 -2.5186 0.9751
0.2063 -5.7756 -2.5187 0.9751
0.8226 -5.7211 -2.5190 0.9751
1.0263 -5.6882 -2.5190 0.9751
2.0198 -5.4153 -2.5189 0.9751
2.2117 -5.3396 -2.5188 0.9751
2.5867 -5.1677 -2.5185 0.9751
2.7694 -5.0717 -2.5184 0.9751
2.9484 -4.9692 -2.5182 0.9751
3.7819 -4.3646 -2.5169 0.9751
3.9348 -4.2263 -2.5166 0.9751
4.6191 -3.4579 -2.5147 0.9751
4.7388 -3.2902 -2.5142 0.9751
4.8523 -3.1184 -2.5138 0.9751
4.9596 -2.9427 -2.5133 0.9752
5.0605 -2.7632 -2.5128 0.9752
5.1549 -2.5804 -2.5123 0.9752
5.2426 -2.3942 -2.5118 0.9752
5.3236 -2.2051 -2.5113 0.9752
5.3977 -2.0132 -2.5107 0.9752
5.4649 -1.8189 -2.5102 0.9752
5.5251 -1.6223 -2.5096 0.9752
5.5782 -1.4237 -2.5090 0.9752
5.6241 -1.2235 -2.5084 0.9752
5.7353 -0.4102 -2.5059 0.9752
-5.3912 -0.1925 -2.4971 0.9765
-5.3436 -0.7683 -2.4989 0.9765
-5.3141 -0.9588 -2.4995 0.9765
-5.1850 -1.5225 -2.5014 0.9765
-4.8383 -2.4219 -2.5045 0.9764
-4.6554 -2.7622 -2.5057 0.9764
-4.4486 -3.0887 -2.5069 0.9764
-4.0957 -3.5490 -2.5086 0.9764
-3.8338 -3.8338 -2.5096 0.9764
-3.4041 -4.2242 -2.5112 0.9764
-3.0952 -4.4580 -2.5121 0.9764
-2.7703 -4.6691 -2.5130 0.9764
-2.6023 -4.7658 -2.5135 0.9764
-2.2564 -4.9409 -2.5143 0.9763
-1.8988 -5.0908 -2.5150 0.9763
-1.7161 -5.1560 -2.5153 0.9763
-1.3442 -5.2666 -2.5160 0.9763
-0.9653 -5.3502 -2.5165 0.9763
-0.5813 -5.4064 -2.5170 0.9763
-0.3879 -5.4241 -2.5172 0.9763
-0.1941 -5.4349 -2.5173 0.9763
-0.0000 -5.4387 -2.5175 0.9763
0.1941 -5.4355 -2.5176 0.9763
0.7741 -5.3842 -2.5179 0.9763
1.3453 -5.2707 -2.5180 0.9763
1.9009 -5.0964 -2.5178 0.9763
2.0815 -5.0252 -2.5177 0.9763
2.2594 -4.9475 -2.5176 0.9763
2.4344 -4.8634 -2.5175 0.9763
2.7748 -4.6767 -2.5171 0.9763
2.9397 -4.5743 -2.5169 0.9763
3.2580 -4.3522 -2.5165 0.9763
3.7033 -3.9776 -2.5156 0.9763
3.9766 -3.7023 -2.5150 0.9763
4.2293 -3.4082 -2.5142 0.9763
4.5672 -2.9351 -2.5130 0.9764
4.6682 -2.7698 -2.5126 0.9764
4.7632 -2.6009 -2.5121 0.9764
4.9347 -2.2536 -2.5111 0.9764
5.0110 -2.0756 -2.5106 0.9764
5.0809 -1.8951 -2.5101 0.9764
5.2509 -1.3402 -2.5085 0.9764
5.2942 -1.1517 -2.5079 0.9764
5.3308 -0.9618 -2.5074 0.9764
5.3833 -0.5788 -2.5062 0.9764
-5.0878 -0.1817 -2.4973 0.9776
-4.9398 -1.2608 -2.5008 0.9775
-4.8928 -1.4367 -2.5013 0.9775
-4.8395 -1.6108 -2.5019 0.9775
-4.7145 -1.9528 -2.5031 0.9775
-4.5653 -2.2852 -2.5042 0.9775
-4.3926 -2.6062 -2.5054 0.9775
-4.0915 -3.0629 -2.5070 0.9775
-3.8642 -3.3484 -2.5081 0.9775
-3.7430 -3.4849 -2.5086 0.9775
-3.3511 -3.8673 -2.5101 0.9775
-3.0678 -4.0981 -2.5110 0.9775
-2.9201 -4.2057 -2.5115 0.9774
-2.4550 -4.4960 -2.5127 0.9774
-1.9612 -4.7347 -2.5138 0.9774
-1.7912 -4.8024 -2.5142 0.9774
-1.4444 -4.9191 -2.5148 0.9774
-1.2680 -4.9681 -2.5151 0.9774
-0.7299 -5.0767 -2.5158 0.9774
-0.5483 -5.0999 -2.5160 0.9774
-0.3659 -5.1166 -2.5162 0.9774
-0.1831 -5.1267 -2.5164 0.9774
0.5485 -5.1015 -2.5168 0.9774
0.7302 -5.0788 -2.5169 0.9774
0.9110 -5.0496 -2.5169 0.9774
1.2690 -4.9718 -2.5170 0.9774
1.4456 -4.9233 -2.5169 0.9774
2.1313 -4.6669 -2.5166 0.9774
2.4585 -4.5025 -2.5164 0.9774
2.6175 -4.4116 -2.5162 0.9774
2.7731 -4.3150 -2.5160 0.9774
2.9251 -4.2129 -2.5158 0.9774
3.0733 -4.1054 -2.5156 0.9774
3.2176 -3.9928 -2.5153 0.9774
3.3577 -3.8750 -2.5151 0.9774
3.6247 -3.6247 -2.5145 0.9774
3.8730 -3.3560 -2.5138 0.9774
3.9898 -3.2152 -2.5135 0.9774
4.1014 -3.0703 -2.5131 0.9774
4.2077 -2.9215 -2.5127 0.9774
4.5775 -2.2914 -2.5110 0.9775
4.7276 -1.9582 -2.5101 0.9775
4.7935 -1.7879 -2.5096 0.9775
4.8533 -1.6153 -2.5091 0.9775
4.9069 -1.4408 -2.5086 0.9775
4.9542 -1.2645 -2.5080 0.9775
5.0296 -0.9075 -2.5070 0.9775
5.0577 -0.7272 -2.5064 0.9775
5.0793 -0.5461 -2.5059 0.9775
5.0944 -0.3644 -2.5053 0.9775
-4.8028 -0.3435 -2.4980 0.9785
-4.6262 -1.3584 -2.5013 0.9785
-4.5758 -1.5230 -2.5019 0.9785
-4.2373 -2.3137 -2.5046 0.9785
-4.1529 -2.4640 -2.5051 0.9785
-4.0632 -2.6112 -2.5056 0.9785
-3.9682 -2.7552 -2.5062 0.9785
-3.8681 -2.8956 -2.5067 0.9785
-3.6532 -3.1655 -2.5077 0.9785
-3.5385 -3.2945 -2.5082 0.9784
-3.4193 -3.4193 -2.5086 0.9784
-3.2957 -3.5399 -2.5091 0.9784
-2.9000 -3.8740 -2.5105 0.9784
-2.7603 -3.9757 -2.5109 0.9784
-2.4705 -4.1638 -2.5117 0.9784
-2.3206 -4.2499 -2.5121 0.9784
-2.1678 -4.3307 -2.5124 0.9784
-2.0121 -4.4059 -2.5128 0.9784
-1.8538 -4.4755 -2.5131 0.9784
-1.3653 -4.6497 -2.5140 0.9784
-1.1986 -4.6960 -2.5143 0.9784
-0.6899 -4.7985 -2.5150 0.9784
-0.5183 -4.8205 -2.5152 0.9784
-0.3459 -4.8362 -2.5154 0.9784
0.0000 -4.8492 -2.5156 0.9784
0.3460 -4.8372 -2.5159 0.9784
0.5184 -4.8219 -2.5159 0.9784
0.8611 -4.7729 -2.5160 0.9784
1.0309 -4.7391 -2.5161 0.9784
1.3664 -4.6535 -2.5160 0.9784
1.5316 -4.6017 -2.5160 0.9784
2.1706 -4.3362 -2.5156 0.9784
2.3238 -4.2558 -2.5155 0.9784
2.4741 -4.1698 -2.5153 0.9784
2.7648 -3.9821 -2.5150 0.9784
2.9049 -3.8806 -2.5147 0.9784
3.0413 -3.7741 -2.5145 0.9784
3.1738 -3.6627 -2.5143 0.9784
3.3021 -3.5467 -2.5140 0.9784
3.8769 -2.9022 -2.5124 0.9784
3.9775 -2.7616 -2.5120 0.9784
4.0729 -2.6175 -2.5116 0.9784
4.1630 -2.4701 -2.5112 0.9784
4.2479 -2.3195 -2.5108 0.9784
4.4691 -1.8512 -2.5095 0.9784
4.5315 -1.6902 -2.5091 0.9784
4.5881 -1.5271 -2.5086 0.9784
4.7223 -1.0273 -2.5071 0.9785
4.7550 -0.8579 -2.5066 0.9785
4.8246 -0.1723 -2.5045 0.9785
-4.5592 0.0000 -2.4971 0.9794
-4.5572 -0.1628 -2.4976 0.9794
-4.5165 -0.6494 -2.4992 0.9794
-4.4914 -0.8103 -2.4997 0.9794
-4.4240 -1.1292 -2.5007 0.9794
-4.3818 -1.2866 -2.5013 0.9794
-4.3340 -1.4425 -2.5018 0.9794
-4.2218 -1.7487 -2.5028 0.9794
-4.1576 -1.8987 -2.5033 0.9794
-4.0880 -2.0463 -2.5039 0.9794
-3.9332 -2.3337 -2.5049 0.9794
-3.8482 -2.4731 -2.5054 0.9794
-3.7582 -2.6094 -2.5059 0.9794
-3.3511 -3.1200 -2.5078 0.9793
-3.1211 -3.3523 -2.5087 0.9793
-3.0000 -3.4622 -2.5091 0.9793
-2.7463 -3.6686 -2.5099 0.9793
-2.4783 -3.8564 -2.5107 0.9793
-2.3395 -3.9430 -2.5111 0.9793
-2.1976 -4.0245 -2.5114 0.9793
-2.0528 -4.1010 -2.5118 0.9793
-1.4490 -4.3535 -2.5130 0.9793
-1.1350 -4.4467 -2.5136 0.9793
-0.8150 -4.5172 -2.5140 0.9793
-0.3275 -4.5794 -2.5146 0.9793
-0.1639 -4.5884 -2.5147 0.9793
-0.0000 -4.5916 -2.5148 0.9793
0.1639 -4.5889 -2.5150 0.9793
0.6535 -4.5455 -2.5152 0.9793
1.4502 -4.3572 -2.5152 0.9793
1.9075 -4.1768 -2.5149 0.9793
2.0553 -4.1059 -2.5148 0.9793
2.2004 -4.0297 -2.5147 0.9793
2.3427 -3.9484 -2.5145 0.9793
2.6180 -3.7707 -2.5142 0.9793
2.7507 -3.6745 -2.5140 0.9793
2.8799 -3.5737 -2.5138 0.9793
3.1268 -3.3585 -2.5133 0.9793
3.2444 -3.2444 -2.5130 0.9793
3.4667 -3.0040 -2.5124 0.9793
3.5713 -2.8779 -2.5121 0.9793
3.7665 -2.6151 -2.5114 0.9793
3.8569 -2.4787 -2.5110 0.9793
4.0226 -2.1965 -2.5103 0.9793
4.1678 -1.9034 -2.5095 0.9793
4.2323 -1.7531 -2.5090 0.9793
4.2914 -1.6006 -2.5086 0.9793
4.4355 -1.1321 -2.5072 0.9793
4.4723 -0.9729 -2.5068 0.9793
4.5033 -0.8125 -2.5063 0.9793
4.5480 -0.4890 -2.5053 0.9794
-4.3254 0.0000 -2.4973 0.9802
-4.3160 -0.3087 -2.4982 0.9802
-4.2315 -0.9205 -2.5002 0.9802
-4.1968 -1.0712 -2.5007 0.9802
-4.1567 -1.2205 -2.5012 0.9802
-4.1113 -1.3684 -2.5017 0.9802
-3.8778 -1.9411 -2.5037 0.9802
-3.8068 -2.0787 -2.5042 0.9802
-3.4748 -2.6012 -2.5060 0.9802
-3.3804 -2.7241 -2.5065 0.9801
-3.2816 -2.8435 -2.5069 0.9801
-3.0714 -3.0714 -2.5078 0.9801
-2.8454 -3.2838 -2.5086 0.9801
-2.6047 -3.4795 -2.5094 0.9801
-2.4793 -3.5708 -2.5098 0.9801
-2.3506 -3.6576 -2.5102 0.9801
-2.2188 -3.7397 -2.5105 0.9801
-2.0842 -3.8170 -2.5109 0.9801
-1.5206 -4.0768 -2.5121 0.9801
-1.0764 -4.2172 -2.5129 0.9801
-0.9253 -4.2533 -2.5131 0.9801
-0.4654 -4.3289 -2.5137 0.9801
-0.3106 -4.3430 -2.5138 0.9801
-0.0000 -4.3545 -2.5141 0.9801
0.3107 -4.3438 -2.5143 0.9801
0.4655 -4.3301 -2.5144 0.9801
0.6198 -4.3108 -2.5144 0.9801
0.7733 -4.2860 -2.5144 0.9801
1.0771 -4.2199 -2.5145 0.9801
1.5219 -4.0804 -2.5144 0.9801
1.8090 -3.9612 -2.5142 0.9801
1.9492 -3.8939 -2.5141 0.9801
2.2217 -3.7446 -2.5138 0.9801
2.4829 -3.5760 -2.5135 0.9801
2.6087 -3.4849 -2.5133 0.9801
2.7312 -3.3893 -2.5131 0.9801
2.8502 -3.2893 -2.5128 0.9801
2.9655 -3.1852 -2.5126 0.9801
3.0770 -3.0770 -2.5123 0.9801
3.1845 -2.9649 -2.5121 0.9801
3.2879 -2.8490 -2.5118 0.9801
3.3871 -2.7295 -2.5115 0.9801
3.7391 -2.2185 -2.5101 0.9801
3.8153 -2.0833 -2.5098 0.9801
4.1213 -1.3717 -2.5078 0.9801
4.1669 -1.2235 -2.5073 0.9801
4.2421 -0.9228 -2.5064 0.9801
4.2715 -0.7707 -2.5060 0.9802
4.2955 -0.6176 -2.5055 0.9802
