ply
format ascii 1.0
element vertex 1376
property float32 x
property float32 y
property float32 z
property float32 I
end_header
23.8321 31.8359 7.0122 0.8508
10.5316 15.1684 3.2561 0.9277
9.9839 15.5353 3.2562 0.9277
15.0107 27.4901 5.5228 0.8805
13.3371 26.6441 5.2538 0.8860
11.5347 25.2575 4.8960 0.8933
10.4269 25.1729 4.8044 0.8952
7.9634 23.9263 4.4464 0.9026
4.8736 22.4038 4.0428 0.9111
-0.0000 20.0007 3.5267 0.9220
-4.4988 17.6262 3.2076 0.9288
-7.7620 23.3211 4.3339 0.9050
-7.5580 16.5496 3.2081 0.9288
-8.3522 15.2959 3.0730 0.9317
-8.9086 15.0147 3.0784 0.9315
-15.6005 19.3590 4.3839 0.9039
-12.7569 13.7019 3.3010 0.9268
-13.1745 13.1745 3.2852 0.9271
-6.6573 6.1982 1.6039 0.9637
-16.2080 12.1332 3.5700 0.9211
-20.4028 14.1659 4.3797 0.9040
-17.6465 11.3407 3.6987 0.9183
-18.1570 10.7731 3.7227 0.9178
-18.6209 10.1678 3.7410 0.9174
-19.3972 9.7096 3.8248 0.9157
25.2355 20.3361 4.9650 0.8771
25.8090 32.0270 6.3012 0.8467
23.8588 31.8717 6.0991 0.8512
10.5255 15.1597 2.8273 0.9280
9.9866 15.5394 2.8298 0.9280
16.4643 27.7492 4.9430 0.8776
10.4259 25.1704 4.1737 0.8956
9.2273 24.7393 4.0450 0.8987
5.8014 22.7297 3.5937 0.9094
4.9053 22.5496 3.5353 0.9108
5.4088 29.9792 4.6668 0.8840
1.4483 20.2496 3.1100 0.9211
-0.9424 26.3848 4.0446 0.8987
-2.7780 25.8394 3.9813 0.9002
-3.0066 16.6643 2.5941 0.9338
-3.8252 17.5841 2.7568 0.9298
-5.1547 17.5552 2.8029 0.9286
-10.1990 22.3326 3.7611 0.9054
-8.9086 15.0146 2.6746 0.9318
-9.6659 15.0404 2.7389 0.9302
-11.6954 14.5131 2.8554 0.9273
-16.1861 18.6798 3.7865 0.9048
-20.5525 14.2699 3.8330 0.9037
-18.6214 10.1680 3.2503 0.9177
-19.3972 9.7095 3.3230 0.9160
33.3820 35.8548 6.3794 0.8207
30.6475 35.3692 6.0944 0.8280
26.3158 32.6559 5.4614 0.8444
9.9892 15.5435 2.4060 0.9282
16.5410 27.8784 4.2213 0.8774
11.5884 25.3750 3.6326 0.8936
9.4129 25.2371 3.5075 0.8970
7.2393 21.7506 2.9851 0.9117
6.7296 22.9191 3.1106 0.9081
5.8013 22.7292 3.0547 0.9097
4.9304 22.6647 3.0204 0.9107
4.1647 28.9662 3.8108 0.8887
2.2783 21.1911 2.7754 0.9176
1.4483 20.2495 2.6436 0.9214
-0.0000 20.1442 2.6232 0.9220
-0.9424 26.3848 3.4380 0.8990
-1.4028 19.6141 2.5607 0.9237
-2.7867 25.9203 3.3948 0.9002
-2.7025 18.7962 2.4728 0.9263
-3.8252 17.5840 2.3434 0.9300
-9.5946 23.1634 3.2649 0.9038
-7.2957 15.9753 2.2870 0.9316
-7.8620 15.7062 2.2872 0.9316
-8.9086 15.0146 2.2735 0.9320
-9.5499 14.8599 2.3002 0.9312
-10.1091 14.5599 2.3082 0.9310
-15.2138 20.3232 3.3059 0.9027
-12.8397 13.7908 2.4537 0.9268
-13.2424 13.2424 2.4387 0.9272
-6.6628 6.2033 1.1855 0.9639
-15.2428 12.2835 2.5492 0.9241
-20.6884 15.4871 3.3653 0.9010
-20.7481 14.4057 3.2892 0.9031
-18.3022 10.8592 2.7713 0.9177
-18.6218 10.1683 2.7629 0.9180
28.2903 24.5137 4.0197 0.8602
26.2772 32.6080 4.4969 0.8450
24.0268 32.0961 4.3052 0.8510
12.4915 33.4910 3.8383 0.8661
7.2391 21.7500 2.4615 0.9119
5.8012 22.7287 2.5189 0.9099
5.5612 30.8240 3.3634 0.8816
4.1647 28.9661 3.1424 0.8889
2.2377 20.8138 2.2479 0.9192
0.7182 20.1102 2.1608 0.9222
-0.0000 19.7281 2.1184 0.9237
-0.7342 20.5566 2.2088 0.9206
-1.8541 25.9238 2.7908 0.9007
-2.7927 25.9757 2.8054 0.9002
-3.0032 16.6456 1.8163 0.9342
-3.8251 17.5840 1.9324 0.9302
-5.0546 17.2144 1.9265 0.9304
-7.7895 23.4035 2.6487 0.9055
-8.7910 23.5695 2.7012 0.9038
-9.5946 23.1633 2.6923 0.9041
-7.4497 16.3126 1.9257 0.9304
-8.3521 15.2958 1.8714 0.9323
-8.9085 15.0145 1.8747 0.9322
-9.6237 14.9747 1.9114 0.9309
-10.1889 14.6748 1.9184 0.9307
-15.2137 20.3231 2.7261 0.9029
-12.4884 13.4135 1.9680 0.9289
-13.1136 13.1136 1.9914 0.9281
-15.0521 12.1297 2.0758 0.9252
-15.7251 11.7717 2.1093 0.9240
-18.1249 11.6481 2.3135 0.9170
30.5880 35.3005 3.9540 0.8290
26.5376 32.9312 3.5802 0.8439
16.5408 27.8782 2.7441 0.8780
15.2022 27.8407 2.6852 0.8804
13.6894 27.3479 2.5889 0.8845
11.5883 25.3748 2.3614 0.8941
10.3054 24.8796 2.2797 0.8975
9.5289 25.5479 2.3082 0.8963
6.7296 22.9189 2.0221 0.9086
4.8334 22.2188 1.9249 0.9128
4.2253 23.4195 2.0145 0.9089
4.1647 28.9660 2.4773 0.8892
1.4483 20.2494 1.7185 0.9217
-0.0000 19.8239 1.6781 0.9235
-0.7428 20.7960 1.7616 0.9199
-2.7606 25.6773 2.1862 0.9015
-2.6577 18.4850 1.5809 0.9278
-3.0066 16.6645 1.4335 0.9343
-3.8251 17.5839 1.5233 0.9303
-4.4849 17.5719 1.5352 0.9298
-5.0686 17.2621 1.5230 0.9303
-7.7153 23.1808 2.0682 0.9066
-9.4729 22.8696 2.0955 0.9054
-10.2621 22.4708 2.0912 0.9056
-7.9227 15.8276 1.4983 0.9314
-9.6230 14.9736 1.5067 0.9310
-10.1882 14.6737 1.5122 0.9308
-15.0208 20.0654 2.1218 0.9043
-15.5011 19.2356 2.0913 0.9056
-16.1860 18.6796 2.0923 0.9055
-12.5486 13.4781 1.5589 0.9287
-13.1764 13.1764 1.5774 0.9279
-6.8318 5.9198 0.7652 0.9644
-15.1232 12.1870 1.6442 0.9250
-20.6897 15.4881 2.1878 0.9015
-20.4364 14.1893 2.1061 0.9050
-18.0390 10.7030 1.7756 0.9192
28.1972 24.4331 2.3136 0.8611
25.1116 33.5452 2.5984 0.8454
16.5408 27.8780 2.0101 0.8782
14.9888 27.4499 1.9394 0.8822
10.3884 25.0798 1.6833 0.8969
7.2380 21.7468 1.4213 0.9122
6.7296 22.9188 1.4812 0.9087
5.8009 22.7278 1.4545 0.9103
4.1647 28.9659 1.8147 0.8893
1.4482 20.2493 1.2589 0.9219
-0.0000 19.8223 1.2292 0.9236
-0.7428 20.7972 1.2905 0.9200
-2.7707 25.7714 1.6073 0.9013
-3.2270 17.8862 1.1270 0.9298
-3.8251 17.5838 1.1159 0.9304
-4.4846 17.5706 1.1245 0.9299
-5.0682 17.2608 1.1155 0.9304
-7.7421 23.2613 1.5202 0.9064
-8.7263 23.3960 1.5484 0.9048
-9.5239 22.9928 1.5433 0.9051
-7.9222 15.8265 1.0975 0.9315
-8.3521 15.2957 1.0807 0.9325
-9.6223 14.9726 1.1037 0.9312
-15.1017 20.1735 1.5627 0.9039
-15.5553 19.3030 1.5373 0.9054
-16.1859 18.6796 1.5327 0.9057
-6.6708 6.2107 0.5652 0.9641
-6.8345 5.9222 0.5608 0.9644
-15.1220 12.1861 1.2043 0.9251
-20.6903 15.4886 1.6027 0.9016
-18.3177 11.7721 1.3502 0.9164
-19.3969 9.7094 1.3451 0.9167
28.1511 24.3931 1.4688 0.8615
27.7517 32.0272 1.6710 0.8440
24.9381 33.3134 1.6409 0.8466
10.4959 15.1170 0.7257 0.9290
9.9995 15.5596 0.7293 0.9286
9.5869 25.7036 1.0817 0.8960
6.7295 22.9187 0.9419 0.9088
4.8648 22.3635 0.9024 0.9125
5.5774 30.9138 1.2386 0.8818
4.1647 28.9658 1.1539 0.8895
0.7188 20.1257 0.7941 0.9225
-0.7428 20.7984 0.8206 0.9201
-1.8541 25.9236 1.0248 0.9012
-3.2270 17.8861 0.7167 0.9298
-3.8251 17.5838 0.7096 0.9305
-7.7416 23.2597 0.9666 0.9065
-10.4241 22.8257 0.9895 0.9044
-7.9216 15.8254 0.6978 0.9316
-8.3521 15.2956 0.6872 0.9326
-8.9085 15.0144 0.6884 0.9325
-9.6216 14.9715 0.7017 0.9312
-15.5542 19.3016 0.9774 0.9055
-16.1859 18.6795 0.9746 0.9058
-6.6735 6.2132 0.3595 0.9642
-6.8372 5.9245 0.3567 0.9644
-18.3195 11.7732 0.8587 0.9165
-18.6237 10.1693 0.8367 0.9186
35.6158 2.5473 0.6032 0.8669
36.1673 3.8884 0.6145 0.8646
30.5586 35.2666 0.7882 0.8297
26.5371 32.9305 0.7144 0.8443
24.9387 33.3142 0.7030 0.8466
10.0021 15.5636 0.3125 0.9287
16.5406 27.8777 0.5476 0.8784
18.1508 36.2607 0.6850 0.8503
10.3861 25.0743 0.4584 0.8971
7.9288 23.8221 0.4241 0.9044
6.7295 22.9186 0.4035 0.9089
5.8007 22.7268 0.3962 0.9104
4.8651 22.3645 0.3866 0.9125
-2.7703 25.7675 0.4378 0.9015
-2.6572 18.4808 0.3154 0.9280
-3.2270 17.8861 0.3070 0.9299
-5.0675 17.2583 0.3038 0.9306
-8.7262 23.3959 0.4218 0.9049
-9.6225 23.2308 0.4247 0.9043
-10.4241 22.8256 0.4239 0.9045
-7.9211 15.8243 0.2989 0.9317
-8.3520 15.2956 0.2944 0.9327
-15.2580 20.3823 0.4301 0.9032
-15.5530 19.3001 0.4187 0.9056
-16.1859 18.6794 0.4175 0.9059
-12.5457 13.4751 0.3110 0.9290
-13.1734 13.1734 0.3147 0.9282
-6.8400 5.9269 0.1529 0.9644
-15.1197 12.1842 0.3280 0.9253
-20.5207 14.2478 0.4220 0.9049
-18.3213 11.7744 0.3679 0.9166
-18.6241 10.1696 0.3584 0.9186
-18.2792 0.6528 0.3089 0.9294
36.6710 2.6228 -0.2070 0.8632
28.0595 24.3138 -0.2090 0.8620
30.5526 35.2596 -0.2627 0.8298
26.5369 32.9303 -0.2381 0.8444
10.4843 15.1002 -0.1035 0.9291
10.0047 15.5675 -0.1042 0.9287
16.5405 27.8776 -0.1825 0.8784
15.0419 27.5472 -0.1767 0.8820
18.1505 36.2600 -0.2283 0.8503
11.5881 25.3743 -0.1571 0.8944
10.3849 25.0715 -0.1528 0.8971
9.5875 25.7052 -0.1545 0.8961
6.7295 22.9186 -0.1345 0.9089
5.8005 22.7263 -0.1321 0.9104
4.8653 22.3655 -0.1289 0.9125
5.5774 30.9136 -0.1769 0.8819
1.4482 20.2491 -0.1143 0.9220
0.7187 20.1245 -0.1134 0.9226
-0.0000 19.8176 -0.1116 0.9238
-0.7429 20.8008 -0.1172 0.9201
-1.8541 25.9234 -0.1463 0.9013
-2.7701 25.7655 -0.1459 0.9015
-5.0671 17.2571 -0.1013 0.9306
-8.7262 23.3958 -0.1406 0.9049
-9.6225 23.2307 -0.1416 0.9043
-7.9205 15.8231 -0.0996 0.9317
-9.6203 14.9694 -0.1002 0.9313
-10.1853 14.6695 -0.1005 0.9311
-15.2580 20.3822 -0.1433 0.9032
-16.1858 18.6794 -0.1392 0.9059
-12.5448 13.4741 -0.1036 0.9290
-13.1724 13.1724 -0.1049 0.9282
-6.6788 6.2182 -0.0514 0.9642
-20.6923 15.4900 -0.1455 0.9018
-20.5215 14.2484 -0.1407 0.9049
-18.3231 11.7755 -0.1226 0.9166
-18.0328 10.6994 -0.1181 0.9195
-18.6246 10.1698 -0.1195 0.9186
43.3086 1.5468 -1.2203 0.8408
36.7479 2.6283 -1.0374 0.8629
20.5698 13.2194 -0.6885 0.9068
33.1064 24.7832 -1.1645 0.8475
30.5466 35.2527 -1.3134 0.8297
16.5404 27.8774 -0.9127 0.8783
11.5880 25.3742 -0.7855 0.8944
10.3838 25.0687 -0.7640 0.8971
9.5879 25.7061 -0.7726 0.8960
6.7295 22.9185 -0.6726 0.9088
5.8004 22.7258 -0.6604 0.9104
2.2539 20.9645 -0.5937 0.9191
1.4482 20.2491 -0.5716 0.9220
0.7187 20.1240 -0.5670 0.9226
-0.0000 19.8160 -0.5580 0.9238
-0.7430 20.8020 -0.5861 0.9201
-1.8541 25.9233 -0.7318 0.9012
-2.7699 25.7635 -0.7296 0.9015
-3.8251 17.5836 -0.5067 0.9305
-5.0668 17.2558 -0.5064 0.9306
-7.7399 23.2547 -0.6901 0.9066
-8.7262 23.3957 -0.7031 0.9049
-9.6225 23.2307 -0.7080 0.9043
-10.4241 22.8255 -0.7066 0.9045
-7.9199 15.8220 -0.4982 0.9316
-8.3520 15.2955 -0.4907 0.9326
-8.9084 15.0143 -0.4916 0.9325
-9.6196 14.9683 -0.5010 0.9313
-10.1845 14.6685 -0.5028 0.9310
-15.2579 20.3822 -0.7169 0.9031
-12.5439 13.4730 -0.5183 0.9290
-6.8454 5.9315 -0.2550 0.9644
-7.3455 5.9194 -0.2656 0.9630
-20.5224 14.2490 -0.7035 0.9049
-18.3249 11.7767 -0.6134 0.9165
-18.1308 0.6475 -0.5109 0.9300
43.2663 1.5453 -2.1956 0.8408
45.2683 6.5086 -2.3194 0.8326
47.3650 10.3036 -2.4583 0.8235
48.3447 12.3392 -2.5304 0.8189
47.8818 14.0594 -2.5308 0.8188
46.7711 17.4447 -2.5316 0.8188
46.1246 19.1055 -2.5319 0.8188
45.4184 20.7419 -2.5322 0.8187
40.0429 27.8023 -2.4722 0.8226
32.9117 24.6374 -2.0850 0.8482
27.4981 23.8272 -1.8452 0.8644
31.9604 34.3279 -2.3786 0.8287
26.5365 32.9298 -2.1448 0.8442
10.4726 15.0834 -0.9312 0.9291
10.0098 15.5756 -0.9390 0.9285
16.5403 27.8773 -1.6439 0.8782
11.5880 25.3741 -1.4147 0.8943
10.3826 25.0659 -1.3759 0.8970
9.5882 25.7070 -1.3915 0.8959
7.9264 23.8150 -1.2729 0.9044
6.7294 22.9184 -1.2114 0.9088
4.8657 22.3675 -1.1609 0.9124
2.2537 20.9628 -1.0692 0.9190
1.4482 20.2490 -1.0295 0.9219
0.7187 20.1234 -1.0212 0.9225
-1.8541 25.9233 -1.3180 0.9011
-2.7697 25.7615 -1.3140 0.9014
-2.6565 18.4767 -0.9467 0.9280
-4.4830 17.5642 -0.9193 0.9300
-5.0664 17.2546 -0.9120 0.9305
-8.7261 23.3957 -1.2663 0.9048
-9.6224 23.2306 -1.2752 0.9042
-8.3520 15.2955 -0.8838 0.9326
-10.1838 14.6674 -0.9056 0.9310
-15.5496 19.2959 -1.2568 0.9055
-12.5429 13.4720 -0.9335 0.9289
-6.6841 6.2232 -0.4632 0.9641
-6.8481 5.9339 -0.4595 0.9644
-20.5234 14.2496 -1.2671 0.9048
-45.2996 18.7637 -2.4866 0.8217
-45.9230 17.1284 -2.4857 0.8218
-46.4879 15.4726 -2.4847 0.8218
-45.6369 6.5616 -2.3382 0.8314
-18.1311 0.6475 -0.9201 0.9299
34.0243 4.8920 -2.5204 0.8712
33.8331 6.1042 -2.5208 0.8712
32.9996 9.6896 -2.5218 0.8712
32.6364 10.8624 -2.5220 0.8711
31.2966 14.2927 -2.5227 0.8711
30.7686 15.4017 -2.5229 0.8711
30.2010 16.4910 -2.5230 0.8711
29.5945 17.5592 -2.5231 0.8711
28.2681 19.6269 -2.5233 0.8711
25.2576 20.3539 -2.3784 0.8780
23.6545 22.0231 -2.3697 0.8784
22.0215 23.6528 -2.3696 0.8784
21.1622 24.4225 -2.3694 0.8784
20.2757 25.1607 -2.3693 0.8784
19.3633 25.8664 -2.3691 0.8785
10.4668 15.0750 -1.3456 0.9290
10.0124 15.5796 -1.3579 0.9284
15.0096 27.4880 -2.2964 0.8820
11.5879 25.3740 -2.0453 0.8942
9.5622 25.6374 -2.0063 0.8961
4.8459 22.2765 -1.6716 0.9126
5.5773 30.9132 -2.3032 0.8816
4.1646 28.9653 -2.1456 0.8893
0.7187 20.1228 -1.4764 0.9224
-0.7430 20.8044 -1.5264 0.9199
-3.2270 17.8858 -1.3326 0.9297
-3.8251 17.5835 -1.3194 0.9304
-5.0660 17.2533 -1.3185 0.9304
-7.7204 23.1961 -1.7925 0.9066
-9.6224 23.2305 -1.8437 0.9041
-10.4240 22.8254 -1.8399 0.9043
-7.9188 15.8197 -1.2971 0.9315
-8.3519 15.2954 -1.2778 0.9325
-8.9083 15.0142 -1.2801 0.9324
-15.2578 20.3821 -1.8668 0.9029
-15.5125 19.2498 -1.8127 0.9056
-16.1857 18.6792 -1.8122 0.9056
-6.8508 5.9363 -0.6647 0.9643
-20.6942 15.4915 -1.8954 0.9015
-18.3286 11.7790 -1.5975 0.9163
-18.0282 10.6966 -1.5370 0.9194
-18.6260 10.1705 -1.5560 0.9184
-19.3965 9.7092 -1.5904 0.9167
-30.9146 14.1182 -2.4919 0.8726
-31.3904 13.0023 -2.4912 0.8726
-32.2212 10.7242 -2.4899 0.8727
-33.1585 7.2132 -2.4881 0.8728
-33.3871 6.0237 -2.4875 0.8728
-33.7169 3.6250 -2.4864 0.8728
26.1773 0.0000 -2.5131 0.9002
25.9397 3.7296 -2.5159 0.9000
25.6132 5.5718 -2.5165 0.9000
24.8777 8.2801 -2.5172 0.9000
23.8549 10.8942 -2.5177 0.9000
23.4521 11.7393 -2.5178 0.9000
23.0191 12.5694 -2.5179 0.9000
20.4820 13.1630 -2.3374 0.9068
21.5453 14.9592 -2.5181 0.9000
20.9979 15.7189 -2.5182 0.9000
20.4235 16.4583 -2.5182 0.9000
19.8112 17.1665 -2.5167 0.9000
16.7847 18.0280 -2.3648 0.9058
16.1299 18.6149 -2.3647 0.9058
10.4634 15.0701 -1.7613 0.9289
12.5644 21.1762 -2.3639 0.9058
8.8075 16.1297 -1.7644 0.9288
11.0197 22.0145 -2.3635 0.9058
10.2258 22.3915 -2.3633 0.9058
9.4191 22.7397 -2.3630 0.9058
7.7709 23.3479 -2.3624 0.9059
6.7294 22.9182 -2.2932 0.9085
5.7907 22.6878 -2.2480 0.9102
2.2461 20.8916 -2.0173 0.9190
0.7187 20.1222 -1.9331 0.9223
-0.0000 19.7478 -1.8959 0.9237
-0.7387 20.6836 -1.9870 0.9202
-2.6476 18.4148 -1.7861 0.9280
-3.2270 17.8858 -1.7449 0.9296
-3.8250 17.5835 -1.7276 0.9302
-4.4674 17.5032 -1.7343 0.9300
-5.0495 17.1971 -1.7207 0.9305
-8.5695 22.9756 -2.3542 0.9062
-9.3819 22.6500 -2.3537 0.9062
-7.3261 16.0419 -1.6931 0.9316
-8.9083 15.0141 -1.6761 0.9323
-9.5858 14.9157 -1.7022 0.9312
-10.1501 14.6189 -1.7086 0.9310
-14.6683 19.5945 -2.3499 0.9063
-15.3547 19.0540 -2.3493 0.9063
-12.5014 13.4274 -1.7613 0.9289
-6.6895 6.2282 -0.8775 0.9639
-6.8536 5.9386 -0.8706 0.9642
-20.0639 13.9306 -2.3450 0.9065
-17.9688 10.6614 -2.0059 0.9195
-18.6264 10.1708 -2.0374 0.9183
-19.3964 9.7092 -2.0824 0.9165
-22.8518 8.5233 -2.3415 0.9066
-23.1369 7.7007 -2.3411 0.9067
-23.3924 6.8687 -2.3406 0.9067
-25.6768 3.6918 -2.4904 0.9010
-25.7879 2.7725 -2.4900 0.9010
21.1484 0.0000 -2.5121 0.9183
21.1373 0.7549 -2.5124 0.9183
21.0992 1.5091 -2.5127 0.9183
20.8231 3.7569 -2.5134 0.9183
20.6776 4.4981 -2.5136 0.9183
20.5055 5.2337 -2.5138 0.9183
19.5570 8.1008 -2.5145 0.9183
19.2563 8.7941 -2.5146 0.9183
18.2078 10.8032 -2.5149 0.9183
16.9495 12.6882 -2.5150 0.9183
15.4958 14.4271 -2.5150 0.9183
14.9354 14.9354 -2.5090 0.9184
13.5487 14.5524 -2.3618 0.9230
13.0203 15.0262 -2.3618 0.9230
9.8712 14.2173 -2.0560 0.9327
8.8073 16.1295 -2.1830 0.9286
8.8961 17.7722 -2.3608 0.9231
4.6699 10.2257 -1.3353 0.9557
7.6043 18.3584 -2.3604 0.9231
4.2216 19.4064 -2.3591 0.9231
3.5258 19.5424 -2.3588 0.9231
2.8257 19.6532 -2.3585 0.9231
2.1221 19.7389 -2.3582 0.9231
-0.0000 19.7462 -2.3456 0.9235
-0.7087 19.8289 -2.3569 0.9232
-1.4152 19.7876 -2.3565 0.9232
-2.1203 19.7213 -2.3561 0.9232
-3.8250 17.5834 -2.1375 0.9301
-5.0492 17.1958 -2.1289 0.9304
-6.9233 18.5621 -2.3533 0.9233
-7.5800 18.2999 -2.3529 0.9233
-8.3519 15.2953 -2.0701 0.9322
-10.1494 14.6178 -2.1139 0.9308
-11.8548 15.8361 -2.3498 0.9234
-12.4101 15.4000 -2.3494 0.9234
-13.1238 13.1238 -2.2047 0.9280
-15.7401 11.7829 -2.3356 0.9239
-16.2219 11.2631 -2.3459 0.9235
-16.9781 10.0735 -2.3450 0.9236
-17.9483 8.1967 -2.3438 0.9236
-18.9199 5.5554 -2.3423 0.9236
-19.5066 2.8047 -2.3409 0.9237
-19.5917 2.1063 -2.3406 0.9237
-19.6518 1.4055 -2.3403 0.9237
17.7083 0.6325 -2.5107 0.9309
17.6761 1.2642 -2.5109 0.9309
17.5438 2.5224 -2.5113 0.9309
17.1774 4.3842 -2.5119 0.9309
17.0110 4.9948 -2.5120 0.9309
16.8228 5.5992 -2.5122 0.9309
16.3821 6.7857 -2.5124 0.9309
15.8575 7.9377 -2.5126 0.9309
15.2516 9.0492 -2.5127 0.9309
14.1975 10.6281 -2.5128 0.9309
13.8091 11.1281 -2.5128 0.9309
13.4030 11.6138 -2.5128 0.9309
12.9798 12.0847 -2.5128 0.9309
12.0842 12.9794 -2.5127 0.9309
11.4660 13.2325 -2.4809 0.9317
10.4499 12.9675 -2.3597 0.9349
9.9800 13.3317 -2.3596 0.9349
9.0026 14.0084 -2.3594 0.9349
7.9795 14.6133 -2.3591 0.9349
7.4523 14.8878 -2.3590 0.9350
4.6697 10.2251 -1.5927 0.9556
5.2561 15.7920 -2.3582 0.9350
4.1153 16.1237 -2.3578 0.9350
2.9540 16.3729 -2.3573 0.9350
2.3675 16.4661 -2.3571 0.9350
1.7781 16.5383 -2.3568 0.9350
0.5935 16.6191 -2.3562 0.9350
-1.1859 16.5810 -2.3554 0.9350
-2.3651 16.4497 -2.3547 0.9351
-3.5316 16.2346 -2.3541 0.9351
-4.1082 16.0959 -2.3537 0.9351
-4.6794 15.9366 -2.3534 0.9351
-5.2445 15.7571 -2.3530 0.9351
-5.8027 15.5576 -2.3527 0.9351
-6.3533 15.3382 -2.3523 0.9351
-6.8956 15.0993 -2.3520 0.9351
-7.4290 14.8413 -2.3516 0.9351
-7.9528 14.5644 -2.3512 0.9352
-9.9383 13.2760 -2.3497 0.9352
-6.6949 6.2332 -1.2961 0.9637
-6.8591 5.9434 -1.2860 0.9640
-7.3534 5.9258 -1.3381 0.9626
-13.2594 9.9258 -2.3468 0.9353
-13.6031 9.4448 -2.3464 0.9353
-13.9295 8.9519 -2.3461 0.9353
-14.2380 8.4478 -2.3457 0.9353
-14.8001 7.4084 -2.3451 0.9353
-15.0529 6.8744 -2.3447 0.9353
-15.2866 6.3319 -2.3444 0.9353
-15.5007 5.7815 -2.3441 0.9353
-15.8695 4.6597 -2.3435 0.9354
-16.1574 3.5148 -2.3429 0.9354
-16.2706 2.9355 -2.3426 0.9354
-16.3631 2.3527 -2.3423 0.9354
-16.4348 1.7669 -2.3421 0.9354
-16.4856 1.1791 -2.3418 0.9354
15.2314 0.0000 -2.5092 0.9401
15.2229 0.5437 -2.5094 0.9401
15.1950 1.0868 -2.5096 0.9401
15.0810 2.1683 -2.5100 0.9401
14.7655 3.7687 -2.5104 0.9401
14.2802 5.3262 -2.5108 0.9401
14.0815 5.8328 -2.5109 0.9401
13.8648 6.3319 -2.5110 0.9401
13.3785 7.3053 -2.5111 0.9401
12.8238 8.2413 -2.5112 0.9401
12.2034 9.1353 -2.5113 0.9401
11.8695 9.5651 -2.5113 0.9401
11.1568 10.3874 -2.5112 0.9401
10.7788 10.7788 -2.5112 0.9401
9.9820 11.5198 -2.5111 0.9401
8.9170 11.9117 -2.4513 0.9415
8.1637 11.7579 -2.3581 0.9436
6.8590 12.5614 -2.3578 0.9436
5.4760 13.2203 -2.3573 0.9436
5.0003 13.4064 -2.3572 0.9436
4.0306 13.7269 -2.3568 0.9437
3.0405 13.9771 -2.3564 0.9437
2.0353 14.1558 -2.3560 0.9437
1.5286 14.2181 -2.3558 0.9437
-1.5276 14.2090 -2.3543 0.9437
-2.0336 14.1437 -2.3540 0.9437
-2.5368 14.0605 -2.3537 0.9437
-5.9300 12.9848 -2.3516 0.9438
-6.8393 12.5253 -2.3510 0.9438
-7.7134 12.0022 -2.3503 0.9438
-8.1357 11.7177 -2.3500 0.9438
-6.9042 7.9678 -1.7368 0.9582
-7.3550 5.9271 -1.5561 0.9624
-12.2486 7.2674 -2.3463 0.9439
-12.4986 6.8247 -2.3460 0.9439
-12.9504 5.9143 -2.3454 0.9439
-13.5037 4.4944 -2.3446 0.9439
-14.1415 1.5204 -2.3431 0.9440
-14.1855 1.0146 -2.3429 0.9440
-14.2114 0.5075 -2.3427 0.9440
13.3371 0.4764 -2.5085 0.9471
13.3125 0.9522 -2.5086 0.9471
13.2710 1.4268 -2.5088 0.9471
13.2124 1.8997 -2.5089 0.9471
13.1369 2.3702 -2.5091 0.9471
12.5103 4.6661 -2.5097 0.9471
12.1463 5.5471 -2.5098 0.9471
11.9409 5.9772 -2.5099 0.9471
11.7202 6.3997 -2.5100 0.9471
11.4845 6.8141 -2.5100 0.9471
11.2342 7.2198 -2.5100 0.9471
10.9694 7.6162 -2.5101 0.9471
10.3982 8.3794 -2.5101 0.9471
9.4427 9.4427 -2.5100 0.9471
9.0995 9.7736 -2.5100 0.9471
8.7447 10.0919 -2.5099 0.9471
8.0020 10.6895 -2.5098 0.9471
7.6042 10.9522 -2.5061 0.9472
5.6121 11.2117 -2.3566 0.9503
4.6702 10.2264 -2.1131 0.9553
3.9585 11.8934 -2.3561 0.9503
3.5312 12.0263 -2.3559 0.9503
2.2250 12.3322 -2.3554 0.9503
1.3393 12.4574 -2.3550 0.9503
0.8937 12.4962 -2.3548 0.9503
-0.4470 12.5166 -2.3541 0.9503
-0.8934 12.4915 -2.3539 0.9503
-1.3386 12.4504 -2.3537 0.9503
-2.2229 12.3206 -2.3532 0.9503
-2.6609 12.2321 -2.3529 0.9503
-3.0955 12.1280 -2.3527 0.9503
-4.7878 11.5589 -2.3516 0.9504
-5.1968 11.3793 -2.3513 0.9504
-5.5989 11.1853 -2.3511 0.9504
-5.9939 10.9770 -2.3508 0.9504
-7.8430 9.7326 -2.3494 0.9504
-6.7005 6.2383 -1.7208 0.9634
-9.9980 7.4844 -2.3475 0.9504
-10.2576 7.1220 -2.3472 0.9504
-7.7203 4.9615 -1.7249 0.9633
-11.1618 5.5872 -2.3461 0.9505
-11.3529 5.1847 -2.3459 0.9505
-11.5295 4.7757 -2.3456 0.9505
-11.6914 4.3607 -2.3454 0.9505
-11.9703 3.5148 -2.3449 0.9505
-12.3986 1.3330 -2.3439 0.9505
-12.4373 0.8895 -2.3437 0.9505
-13.2304 0.4725 -2.4884 0.9475
11.8627 0.0000 -2.5075 0.9527
11.8559 0.4234 -2.5077 0.9527
11.7969 1.2683 -2.5080 0.9526
11.6776 2.1069 -2.5083 0.9526
11.5956 2.5225 -2.5084 0.9526
11.3870 3.3435 -2.5086 0.9526
11.1203 4.1477 -2.5088 0.9526
10.7967 4.9307 -2.5089 0.9526
10.6141 5.3130 -2.5090 0.9526
10.2084 6.0569 -2.5091 0.9526
9.7505 6.7699 -2.5091 0.9526
9.2427 7.4483 -2.5091 0.9526
8.9710 7.7734 -2.5091 0.9526
6.7690 9.7493 -2.5088 0.9526
6.0455 10.1892 -2.5044 0.9527
4.6296 10.1374 -2.3557 0.9555
4.2646 10.2956 -2.3556 0.9555
3.8942 10.4407 -2.3555 0.9555
2.3681 10.8860 -2.3549 0.9555
1.5853 11.0256 -2.3546 0.9555
0.7945 11.1089 -2.3542 0.9555
0.3975 11.1293 -2.3540 0.9555
-0.0000 11.1355 -2.3538 0.9555
-0.3974 11.1275 -2.3536 0.9555
-0.7943 11.1052 -2.3534 0.9555
-1.1900 11.0688 -2.3532 0.9555
-1.5842 11.0183 -2.3530 0.9555
-1.9763 10.9537 -2.3528 0.9555
-2.3657 10.8751 -2.3526 0.9555
-2.7521 10.7827 -2.3523 0.9555
-3.5137 10.5568 -2.3519 0.9555
-3.8878 10.4237 -2.3516 0.9555
-4.2570 10.2772 -2.3514 0.9555
-4.9782 9.9453 -2.3509 0.9555
-5.6739 9.5628 -2.3504 0.9556
-6.9741 8.6543 -2.3494 0.9556
-6.1689 7.1192 -1.9912 0.9622
-6.3331 5.4877 -1.7713 0.9663
-7.1837 4.9877 -1.8486 0.9649
-7.4852 4.8105 -1.8808 0.9643
-9.5488 5.6656 -2.3470 0.9556
-9.9267 4.9690 -2.3465 0.9556
-10.0968 4.6111 -2.3463 0.9556
-10.2540 4.2473 -2.3461 0.9556
-10.3981 3.8783 -2.3459 0.9556
-10.5290 3.5044 -2.3456 0.9556
-10.6464 3.1261 -2.3454 0.9556
-10.8405 2.3582 -2.3450 0.9557
-10.9168 1.9696 -2.3449 0.9557
-11.0276 1.5855 -2.3550 0.9555
-11.6273 1.2501 -2.4719 0.9533
-11.7666 0.8416 -2.4936 0.9529
-11.8007 0.4215 -2.4960 0.9529
10.6668 0.0000 -2.5070 0.9571
10.6075 1.1404 -2.5074 0.9571
10.5605 1.5184 -2.5075 0.9571
10.5001 1.8944 -2.5076 0.9571
10.2387 3.0064 -2.5079 0.9571
9.9988 3.7294 -2.5081 0.9571
9.7077 4.4334 -2.5082 0.9571
9.5435 4.7772 -2.5083 0.9571
9.3671 5.1148 -2.5083 0.9571
8.9786 5.7702 -2.5084 0.9571
8.7670 6.0870 -2.5084 0.9571
8.5442 6.3961 -2.5084 0.9571
8.3104 6.6970 -2.5084 0.9571
8.0661 6.9893 -2.5084 0.9571
6.6965 8.3099 -2.5082 0.9571
5.1139 9.3654 -2.5079 0.9571
4.7681 9.5254 -2.5035 0.9572
4.3586 9.5440 -2.4659 0.9578
3.5015 9.3880 -2.3549 0.9597
3.1641 9.5065 -2.3547 0.9597
2.4775 9.7069 -2.3545 0.9597
2.1294 9.7886 -2.3543 0.9597
1.0706 9.9582 -2.3539 0.9597
-0.0000 10.0134 -2.3534 0.9597
-0.3574 10.0063 -2.3532 0.9597
-1.0701 9.9537 -2.3528 0.9597
-1.4246 9.9084 -2.3526 0.9597
-1.7772 9.8504 -2.3524 0.9597
-2.4750 9.6968 -2.3520 0.9597
-2.8192 9.6015 -2.3518 0.9597
-3.4964 9.3742 -2.3514 0.9597
-4.4772 8.9443 -2.3508 0.9597
-5.4061 8.4120 -2.3501 0.9597
-5.7023 8.2129 -2.3499 0.9597
-6.2725 7.7837 -2.3494 0.9598
-6.0813 7.0182 -2.1825 0.9626
-5.5421 5.9526 -1.9115 0.9671
-5.8006 5.8006 -1.9280 0.9669
-6.6087 5.3256 -1.9948 0.9657
-7.4852 4.8105 -2.0912 0.9641
-8.5892 5.0962 -2.3472 0.9598
-8.9293 4.4697 -2.3468 0.9598
-9.2238 3.8206 -2.3464 0.9598
-9.6706 2.4683 -2.3457 0.9598
-9.9145 2.1568 -2.3846 0.9592
-10.4105 1.8783 -2.4862 0.9575
-10.5048 1.5104 -2.4943 0.9573
-10.5632 1.1357 -2.4969 0.9573
-10.5963 0.7579 -2.4967 0.9573
9.6569 0.6907 -2.5067 0.9608
9.5839 1.3780 -2.5070 0.9608
9.5290 1.7192 -2.5071 0.9608
9.4619 2.0583 -2.5072 0.9608
9.2916 2.7283 -2.5073 0.9608
9.1886 3.0583 -2.5074 0.9608
8.9475 3.7062 -2.5075 0.9608
8.8097 4.0233 -2.5076 0.9608
8.6607 4.3352 -2.5076 0.9608
8.5006 4.6417 -2.5077 0.9608
8.3296 4.9422 -2.5077 0.9608
7.9559 5.5239 -2.5078 0.9608
7.5416 6.0774 -2.5078 0.9608
6.3424 7.3196 -2.5077 0.9608
6.0770 7.5412 -2.5076 0.9608
5.8039 7.7531 -2.5076 0.9608
5.5233 7.9551 -2.5075 0.9608
4.9415 8.3284 -2.5074 0.9608
4.0225 8.8080 -2.5071 0.9608
1.9325 8.8835 -2.3539 0.9631
0.9716 9.0376 -2.3535 0.9631
0.6484 9.0660 -2.3533 0.9631
0.3244 9.0827 -2.3532 0.9631
-0.6482 9.0635 -2.3527 0.9632
-0.9713 9.0339 -2.3525 0.9632
-1.6130 8.9403 -2.3522 0.9632
-1.9309 8.8763 -2.3520 0.9632
-2.2463 8.8010 -2.3518 0.9632
-2.8680 8.6170 -2.3514 0.9632
-4.0638 8.1184 -2.3506 0.9632
-4.3506 7.9675 -2.3504 0.9632
-4.6318 7.8065 -2.3502 0.9632
-4.9071 7.6355 -2.3500 0.9632
-5.1760 7.4549 -2.3498 0.9632
-5.4383 7.2648 -2.3496 0.9632
-5.6937 7.0654 -2.3494 0.9632
-6.0640 5.6458 -2.1452 0.9663
-6.5607 5.2870 -2.1816 0.9658
-7.0771 4.9137 -2.2308 0.9650
-7.3742 4.7391 -2.2696 0.9644
-7.9567 4.3447 -2.3472 0.9632
-8.2451 3.7654 -2.3469 0.9632
-8.4914 3.1671 -2.3465 0.9632
-8.5984 2.8618 -2.3464 0.9632
-8.9762 2.6357 -2.4222 0.9621
-9.3231 2.3796 -2.4913 0.9610
-9.4175 2.0486 -2.4954 0.9610
-9.5477 1.3728 -2.4975 0.9609
-9.5901 1.0310 -2.4973 0.9609
-9.6202 0.6881 -2.4972 0.9609
-9.6381 0.3442 -2.4971 0.9609
8.8524 0.0000 -2.5061 0.9639
8.5799 2.1899 -2.5068 0.9639
8.4965 2.4948 -2.5069 0.9639
8.4023 2.7966 -2.5069 0.9639
8.0558 3.6790 -2.5071 0.9639
7.7730 4.2444 -2.5072 0.9639
7.6167 4.5192 -2.5072 0.9639
7.4506 4.7882 -2.5072 0.9639
7.0901 5.3076 -2.5073 0.9639
6.8961 5.5573 -2.5073 0.9639
6.4821 6.0350 -2.5072 0.9639
6.2625 6.2625 -2.5072 0.9639
6.0349 6.4820 -2.5072 0.9639
5.5570 6.8958 -2.5071 0.9639
5.3072 7.0896 -2.5071 0.9639
5.0507 7.2743 -2.5070 0.9639
4.7877 7.4498 -2.5069 0.9639
3.9635 7.9182 -2.5067 0.9639
3.6783 8.0543 -2.5066 0.9639
3.0941 8.2955 -2.5064 0.9639
2.7930 8.3916 -2.5037 0.9639
2.4880 8.4733 -2.5000 0.9640
2.1433 8.3974 -2.4535 0.9646
1.4760 8.1811 -2.3534 0.9660
1.1830 8.2281 -2.3533 0.9660
0.8885 8.2646 -2.3531 0.9660
0.5930 8.2906 -2.3530 0.9660
-1.1824 8.2240 -2.3521 0.9660
-1.7659 8.1176 -2.3518 0.9661
-3.7166 7.4248 -2.3505 0.9661
-3.9789 7.2869 -2.3504 0.9661
-4.2361 7.1396 -2.3502 0.9661
-4.4879 6.9833 -2.3500 0.9661
-4.9739 6.6443 -2.3496 0.9661
-5.4599 5.8643 -2.2683 0.9672
-6.4590 5.2050 -2.3483 0.9661
-6.8128 4.7302 -2.3480 0.9661
-6.9768 4.4837 -2.3478 0.9661
-7.1319 4.2315 -2.3476 0.9661
-7.5417 3.4442 -2.3471 0.9661
-7.8218 3.2399 -2.3967 0.9654
-8.6228 1.8758 -2.4982 0.9640
-8.7337 1.2557 -2.4979 0.9640
-8.7724 0.9431 -2.4977 0.9640
-8.8000 0.6294 -2.4976 0.9640
8.1466 0.0000 -2.5057 0.9665
8.1009 0.8709 -2.5060 0.9665
8.0650 1.1596 -2.5061 0.9665
8.0187 1.4467 -2.5062 0.9665
7.8189 2.2958 -2.5064 0.9665
7.6355 2.8479 -2.5066 0.9665
7.5292 3.1187 -2.5066 0.9665
7.0091 4.1587 -2.5068 0.9665
6.3460 5.1140 -2.5068 0.9665
5.3370 6.1592 -2.5067 0.9665
5.1137 6.3457 -2.5067 0.9665
4.6478 6.6941 -2.5066 0.9665
3.9053 7.1520 -2.5064 0.9665
3.6474 7.2867 -2.5063 0.9665
3.3849 7.4120 -2.5062 0.9665
3.1181 7.5278 -2.5062 0.9665
2.0138 7.8901 -2.5046 0.9665
0.5457 7.6297 -2.3527 0.9685
0.2730 7.6439 -2.3526 0.9685
-0.2730 7.6430 -2.3523 0.9685
-0.8174 7.6031 -2.3520 0.9685
-1.0882 7.5687 -2.3519 0.9685
-1.6252 7.4708 -2.3516 0.9685
-1.8907 7.4075 -2.3514 0.9685
-2.1537 7.3348 -2.3513 0.9685
-2.4140 7.2528 -2.3511 0.9685
-3.1747 6.9517 -2.3506 0.9685
-3.6621 6.7066 -2.3503 0.9685
-4.1306 6.4273 -2.3499 0.9685
-4.3570 6.2753 -2.3498 0.9685
-5.0018 5.7724 -2.3493 0.9685
-5.4000 5.4000 -2.3489 0.9685
-5.7707 5.0003 -2.3486 0.9686
-6.1118 4.5753 -2.3482 0.9686
-6.4218 4.1270 -2.3479 0.9686
-6.5740 3.9006 -2.3512 0.9685
-6.8525 3.7417 -2.4014 0.9679
-7.1466 3.5773 -2.4581 0.9671
-7.3729 3.3671 -2.4930 0.9666
-7.7086 2.5657 -2.4989 0.9666
-7.7948 2.2888 -2.4987 0.9666
-7.8711 2.0090 -2.4986 0.9666
-7.9373 1.7267 -2.4984 0.9666
-7.9934 1.4422 -2.4983 0.9666
-8.0394 1.1559 -2.4982 0.9666
-8.1156 0.2898 -2.4978 0.9666
7.5372 0.0000 -2.5054 0.9687
7.5327 0.2690 -2.5055 0.9687
7.4949 0.8058 -2.5057 0.9687
7.4616 1.0728 -2.5058 0.9687
7.3049 1.8645 -2.5060 0.9687
6.8585 3.1322 -2.5063 0.9687
6.7424 3.3750 -2.5063 0.9687
6.6178 3.6136 -2.5064 0.9687
6.4846 3.8475 -2.5064 0.9687
6.0363 4.5187 -2.5064 0.9687
5.8712 4.7313 -2.5064 0.9687
5.5186 5.1380 -2.5064 0.9687
5.3317 5.3317 -2.5064 0.9687
4.7311 5.8709 -2.5063 0.9687
4.5184 6.0359 -2.5063 0.9687
3.8471 6.4839 -2.5061 0.9687
3.6131 6.6169 -2.5060 0.9687
2.3805 7.1522 -2.5056 0.9687
1.3382 7.4169 -2.5052 0.9687
0.8041 7.4796 -2.5006 0.9688
-0.0000 7.2918 -2.4238 0.9697
-0.5048 7.0576 -2.3520 0.9706
-1.0069 7.0028 -2.3517 0.9706
-1.5037 6.9123 -2.3514 0.9706
-1.7493 6.8538 -2.3513 0.9706
-1.9927 6.7866 -2.3511 0.9706
-2.4715 6.6263 -2.3508 0.9706
-3.1650 6.3229 -2.3504 0.9706
-3.3885 6.2055 -2.3502 0.9706
-3.6075 6.0802 -2.3501 0.9706
-3.8220 5.9472 -2.3499 0.9706
-4.0316 5.8066 -2.3498 0.9706
-4.2360 5.6586 -2.3496 0.9706
-4.4349 5.5034 -2.3494 0.9706
-4.9968 4.9968 -2.3490 0.9707
-5.1716 4.8150 -2.3488 0.9707
-5.5165 4.4455 -2.3550 0.9706
-5.7590 4.3111 -2.3913 0.9701
-6.0096 4.1726 -2.4319 0.9696
-6.2688 4.0287 -2.4770 0.9691
-6.5907 3.5988 -2.4961 0.9688
-6.7213 3.3644 -2.4985 0.9688
-6.9467 2.8774 -2.4994 0.9688
-7.3971 1.3346 -2.4986 0.9688
6.9880 0.4998 -2.5053 0.9707
6.9350 0.9971 -2.5055 0.9707
6.7232 1.9741 -2.5058 0.9707
6.5655 2.4488 -2.5059 0.9707
6.4741 2.6816 -2.5059 0.9707
6.3743 2.9111 -2.5060 0.9707
5.8954 3.7888 -2.5061 0.9707
5.6101 4.1997 -2.5061 0.9707
5.4567 4.3973 -2.5061 0.9707
5.2962 4.5892 -2.5061 0.9707
5.1290 4.7753 -2.5061 0.9707
4.9553 4.9553 -2.5061 0.9707
4.5891 5.2961 -2.5060 0.9707
4.1995 5.6098 -2.5059 0.9707
3.9965 5.7560 -2.5059 0.9707
3.7884 5.8949 -2.5059 0.9707
3.5755 6.0262 -2.5058 0.9707
3.1363 6.2656 -2.5057 0.9707
2.9106 6.3734 -2.5056 0.9707
2.6812 6.4731 -2.5055 0.9707
2.2125 6.6474 -2.5054 0.9707
1.9737 6.7219 -2.5053 0.9707
1.7325 6.7878 -2.5052 0.9707
1.4890 6.8450 -2.5051 0.9707
0.9969 6.9333 -2.5049 0.9707
0.4997 6.9861 -2.5047 0.9707
0.2498 6.9951 -2.5031 0.9707
-0.0000 6.9938 -2.5010 0.9707
-1.4264 6.5569 -2.3996 0.9719
-1.6456 6.4474 -2.3795 0.9721
-2.0760 6.2375 -2.3509 0.9725
-2.7304 5.9788 -2.3505 0.9725
-3.1496 5.7681 -2.3502 0.9725
-3.7474 5.3973 -2.3497 0.9725
-3.9422 5.2661 -2.3524 0.9724
-4.5805 4.9198 -2.4038 0.9718
-4.8006 4.8006 -2.4278 0.9716
-5.2544 4.5530 -2.4863 0.9709
-5.4311 4.3767 -2.4943 0.9708
-5.5873 4.1826 -2.4959 0.9708
-5.7369 3.9832 -2.4976 0.9708
-5.8797 3.7786 -2.4994 0.9707
-6.0125 3.5674 -2.5001 0.9707
-6.1357 3.3503 -2.5000 0.9707
-6.2510 3.1290 -2.4998 0.9707
-6.4576 2.6748 -2.4995 0.9707
-6.6312 2.2071 -2.4993 0.9707
-6.7711 1.7282 -2.4990 0.9708
-6.8281 1.4854 -2.4989 0.9708
-6.8765 1.2406 -2.4988 0.9708
-6.9160 0.9944 -2.4987 0.9708
-6.9468 0.7469 -2.4985 0.9708
-6.9818 0.2494 -2.4983 0.9708
6.5365 0.0000 -2.5049 0.9724
6.5203 0.4664 -2.5051 0.9724
6.4997 0.6988 -2.5052 0.9724
6.4337 1.1608 -2.5053 0.9724
6.3883 1.3897 -2.5054 0.9724
6.2732 1.8420 -2.5055 0.9724
6.1261 2.2849 -2.5056 0.9724
6.0407 2.5022 -2.5056 0.9724
5.8470 2.9268 -2.5057 0.9724
5.2346 3.9186 -2.5058 0.9724
5.0914 4.1029 -2.5058 0.9724
4.6236 4.6236 -2.5058 0.9724
4.2819 4.9416 -2.5057 0.9724
2.9264 5.8463 -2.5054 0.9724
2.2845 6.1251 -2.5052 0.9724
2.0644 6.2025 -2.5051 0.9724
1.6165 6.3336 -2.5049 0.9724
0.9302 6.4693 -2.5047 0.9724
0.6986 6.4981 -2.5046 0.9724
0.4662 6.5187 -2.5045 0.9724
-0.4661 6.5175 -2.5040 0.9724
-0.6981 6.4930 -2.5026 0.9724
-0.9288 6.4603 -2.5012 0.9724
-1.6118 6.3150 -2.4976 0.9725
-1.8355 6.2512 -2.4967 0.9725
-2.0568 6.1797 -2.4959 0.9725
-2.2742 6.0974 -2.4939 0.9725
-2.8932 5.7798 -2.4769 0.9727
-3.0980 5.6735 -2.4772 0.9727
-3.3028 5.5666 -2.4805 0.9727
-3.5082 5.4588 -2.4867 0.9726
-4.2653 4.9224 -2.4960 0.9725
-4.4397 4.7686 -2.4968 0.9725
-4.6088 4.6088 -2.4978 0.9725
-4.7724 4.4433 -2.4988 0.9725
-4.9303 4.2722 -2.5000 0.9724
-5.0812 4.0947 -2.5008 0.9724
-5.2238 3.9105 -2.5006 0.9724
-5.3597 3.7213 -2.5005 0.9724
-5.4888 3.5275 -2.5003 0.9724
-5.7259 3.1266 -2.5001 0.9724
-5.8335 2.9200 -2.4999 0.9724
-5.9337 2.7098 -2.4998 0.9724
-6.1113 2.2794 -2.4996 0.9724
-6.1884 2.0597 -2.4994 0.9724
-6.3723 1.3862 -2.4991 0.9725
-6.4174 1.1578 -2.4990 0.9725
-6.5158 0.2327 -2.4986 0.9725
6.1162 0.2184 -2.5048 0.9739
6.1047 0.4366 -2.5049 0.9739
6.0854 0.6542 -2.5049 0.9739
6.0583 0.8711 -2.5050 0.9739
6.0235 1.0868 -2.5051 0.9739
5.9309 1.5138 -2.5052 0.9739
5.8733 1.7245 -2.5053 0.9739
5.6556 2.3426 -2.5054 0.9739
5.5684 2.5430 -2.5054 0.9739
5.2648 3.1238 -2.5055 0.9739
5.1500 3.3097 -2.5055 0.9739
4.4805 4.1715 -2.5055 0.9739
4.3288 4.3288 -2.5055 0.9739
4.1715 4.4805 -2.5055 0.9739
4.0089 4.6265 -2.5055 0.9739
3.8411 4.7666 -2.5054 0.9739
3.6685 4.9006 -2.5054 0.9739
3.1235 5.2644 -2.5053 0.9739
2.9335 5.3724 -2.5052 0.9739
2.7399 5.4735 -2.5052 0.9739
2.5427 5.5677 -2.5051 0.9739
2.3423 5.6548 -2.5050 0.9739
1.7242 5.8722 -2.5048 0.9739
1.3008 5.9799 -2.5047 0.9739
0.8709 6.0570 -2.5045 0.9739
0.6541 6.0840 -2.5044 0.9739
-0.0000 6.1183 -2.5041 0.9739
-0.2184 6.1141 -2.5040 0.9739
-0.8706 6.0549 -2.5036 0.9739
-2.1363 5.7275 -2.5019 0.9739
-2.3389 5.6465 -2.5014 0.9739
-2.5385 5.5586 -2.5010 0.9739
-2.9282 5.3626 -2.5007 0.9739
-3.3035 5.1403 -2.5008 0.9739
-3.6627 4.8928 -2.5014 0.9739
-3.8353 4.7594 -2.5016 0.9739
-4.0025 4.6192 -2.5015 0.9739
-4.3214 4.3214 -2.5012 0.9739
-4.4726 4.1642 -2.5011 0.9739
-4.6182 4.0017 -2.5010 0.9739
-4.7578 3.8341 -2.5008 0.9739
-5.4624 2.7343 -2.5001 0.9739
-5.6430 2.3374 -2.4998 0.9739
-5.9171 1.5103 -2.4993 0.9740
-6.0092 1.0842 -2.4991 0.9740
-6.0708 0.6527 -2.4989 0.9740
-6.0900 0.4356 -2.4988 0.9740
-6.1014 0.2179 -2.4988 0.9740
5.7467 0.0000 -2.5045 0.9752
5.7433 0.2051 -2.5046 0.9752
5.7324 0.4100 -2.5047 0.9752
5.7143 0.6144 -2.5047 0.9752
5.5693 1.4215 -2.5050 0.9752
5.3857 2.0088 -2.5051 0.9752
5.1403 2.5731 -2.5052 0.9752
4.9437 2.9333 -2.5053 0.9752
4.8359 3.1079 -2.5053 0.9752
4.7219 3.2785 -2.5053 0.9752
4.6019 3.4450 -2.5053 0.9752
4.4760 3.6070 -2.5053 0.9752
4.2073 3.9171 -2.5053 0.9752
3.9171 4.2072 -2.5053 0.9752
3.4448 4.6017 -2.5052 0.9752
3.1076 4.8356 -2.5051 0.9752
2.5728 5.1398 -2.5050 0.9752
2.3876 5.2282 -2.5049 0.9752
2.1995 5.3100 -2.5048 0.9752
2.0085 5.3849 -2.5048 0.9752
1.8149 5.4530 -2.5047 0.9752
1.6191 5.5142 -2.5046 0.9752
1.0203 5.6551 -2.5044 0.9752
0.8178 5.6877 -2.5043 0.9752
0.6142 5.7131 -2.5042 0.9752
-0.4098 5.7302 -2.5037 0.9752
-0.8175 5.6859 -2.5035 0.9752
-1.0199 5.6528 -2.5034 0.9752
-1.4204 5.5652 -2.5031 0.9753
-1.6181 5.5107 -2.5030 0.9753
-2.0069 5.3807 -2.5028 0.9753
-2.5702 5.1345 -2.5024 0.9753
-2.7517 5.0393 -2.5023 0.9753
-2.9296 4.9376 -2.5022 0.9753
-3.2741 4.7156 -2.5019 0.9753
-3.4401 4.5955 -2.5018 0.9753
-3.6018 4.4695 -2.5016 0.9753
-3.7588 4.3379 -2.5015 0.9753
-3.9110 4.2007 -2.5014 0.9753
-4.4681 3.6007 -2.5009 0.9753
-4.5936 3.4387 -2.5008 0.9753
-4.7132 3.2724 -2.5006 0.9753
-4.8267 3.1019 -2.5005 0.9753
-4.9341 2.9275 -2.5004 0.9753
-5.0352 2.7494 -2.5003 0.9753
-5.2180 2.3830 -2.5000 0.9753
-5.2995 2.1951 -2.4999 0.9753
-5.4422 1.8113 -2.4997 0.9753
-5.6761 0.8161 -2.4992 0.9753
5.3968 0.3860 -2.5045 0.9764
5.3558 0.7701 -2.5046 0.9764
5.3251 0.9608 -2.5047 0.9764
5.1922 1.5246 -2.5048 0.9764
5.1345 1.7089 -2.5049 0.9764
4.9226 2.2481 -2.5050 0.9764
4.8393 2.4224 -2.5050 0.9764
4.5528 2.9259 -2.5051 0.9764
4.3324 3.2432 -2.5051 0.9764
4.2139 3.3958 -2.5051 0.9764
3.9609 3.6877 -2.5051 0.9764
3.8268 3.8268 -2.5051 0.9764
3.6877 3.9609 -2.5050 0.9764
3.5440 4.0899 -2.5050 0.9764
3.3957 4.2138 -2.5050 0.9764
2.9257 4.5524 -2.5049 0.9764
2.4221 4.8388 -2.5048 0.9764
2.0707 4.9991 -2.5047 0.9764
1.3380 5.2423 -2.5044 0.9764
0.9606 5.3241 -2.5042 0.9764
0.7699 5.3548 -2.5041 0.9764
0.5783 5.3787 -2.5041 0.9764
0.3859 5.3957 -2.5040 0.9764
-0.3859 5.3949 -2.5036 0.9764
-1.1495 5.2842 -2.5032 0.9764
-1.3373 5.2396 -2.5031 0.9764
-2.7583 4.6488 -2.5021 0.9765
-3.0826 4.4398 -2.5019 0.9765
-3.3911 4.2081 -2.5016 0.9765
-4.0834 3.5383 -2.5010 0.9765
-4.2069 3.3902 -2.5009 0.9765
-4.3251 3.2377 -2.5008 0.9765
-4.4377 3.0811 -2.5007 0.9765
-4.5446 2.9206 -2.5006 0.9765
-4.6457 2.7564 -2.5005 0.9765
-4.7409 2.5887 -2.5004 0.9765
-4.8301 2.4178 -2.5002 0.9765
-4.9131 2.2437 -2.5001 0.9765
-4.9898 2.0669 -2.5000 0.9765
-5.0602 1.8874 -2.4999 0.9765
-5.1816 1.5214 -2.4997 0.9765
-5.2765 1.1478 -2.4995 0.9765
-5.3139 0.9587 -2.4994 0.9765
-5.3445 0.7684 -2.4993 0.9765
-5.3684 0.5772 -2.4993 0.9765
5.1052 0.0000 -2.5042 0.9775
5.1021 0.1822 -2.5043 0.9775
5.0924 0.3642 -2.5043 0.9775
5.0763 0.5458 -2.5044 0.9775
4.9892 1.0853 -2.5046 0.9775
4.9474 1.2627 -2.5046 0.9775
4.7176 1.9541 -2.5048 0.9775
4.5663 2.2857 -2.5048 0.9775
4.3917 2.6057 -2.5049 0.9775
4.2959 2.7608 -2.5049 0.9775
4.0880 3.0603 -2.5049 0.9775
3.7375 3.4797 -2.5049 0.9775
3.6109 3.6109 -2.5049 0.9775
3.4797 3.7374 -2.5049 0.9775
3.3440 3.8592 -2.5048 0.9775
3.2041 3.9761 -2.5048 0.9775
3.0601 4.0878 -2.5048 0.9775
2.7606 4.2956 -2.5047 0.9775
2.6055 4.3914 -2.5047 0.9775
2.2855 4.5659 -2.5046 0.9775
1.7842 4.7837 -2.5044 0.9775
1.4383 4.8986 -2.5043 0.9775
0.7265 5.0528 -2.5040 0.9775
0.5457 5.0754 -2.5039 0.9775
0.1822 5.1010 -2.5038 0.9775
-0.3641 5.0907 -2.5035 0.9775
-0.5455 5.0743 -2.5034 0.9775
-0.7263 5.0514 -2.5033 0.9775
-0.9061 5.0220 -2.5032 0.9775
-1.2619 4.9442 -2.5030 0.9775
-1.4375 4.8958 -2.5029 0.9775
-1.6113 4.8412 -2.5028 0.9775
-1.7830 4.7803 -2.5027 0.9775
-2.1193 4.6406 -2.5024 0.9775
-2.2835 4.5618 -2.5023 0.9775
-2.7576 4.2909 -2.5020 0.9775
-3.0564 4.0829 -2.5018 0.9775
-3.4749 3.7323 -2.5014 0.9775
-4.2886 2.7561 -2.5006 0.9775
-4.3841 2.6012 -2.5005 0.9775
-4.4739 2.4430 -2.5004 0.9775
-4.5581 2.2816 -2.5003 0.9775
-4.6364 2.1174 -2.5002 0.9775
-4.7089 1.9505 -2.5001 0.9775
-4.7753 1.7811 -2.5000 0.9775
-4.8898 1.4358 -2.4998 0.9776
-4.9378 1.2603 -2.4997 0.9776
-5.0437 0.7252 -2.4995 0.9776
-5.0918 0.1819 -2.4992 0.9776
4.8268 0.0000 -2.5041 0.9785
4.8239 0.1723 -2.5041 0.9785
4.8148 0.3444 -2.5042 0.9785
4.7782 0.6870 -2.5043 0.9785
4.7172 1.0262 -2.5044 0.9785
4.6776 1.1939 -2.5045 0.9785
4.6321 1.3601 -2.5045 0.9785
4.4604 1.8476 -2.5046 0.9785
4.3916 2.0056 -2.5046 0.9785
4.3173 2.1611 -2.5047 0.9785
4.2375 2.3138 -2.5047 0.9785
4.1522 2.4636 -2.5047 0.9785
3.7594 3.0295 -2.5047 0.9785
3.6488 3.1617 -2.5047 0.9785
3.2899 3.5336 -2.5047 0.9785
3.1617 3.6488 -2.5047 0.9785
2.8933 3.8649 -2.5046 0.9785
2.7534 3.9657 -2.5046 0.9785
2.4634 4.1519 -2.5045 0.9785
2.0054 4.3912 -2.5044 0.9785
1.8474 4.4599 -2.5043 0.9785
1.6869 4.5229 -2.5043 0.9785
1.5244 4.5801 -2.5042 0.9785
1.1937 4.6770 -2.5041 0.9785
1.0260 4.7165 -2.5040 0.9785
0.6869 4.7774 -2.5039 0.9785
0.3443 4.8139 -2.5037 0.9785
0.1723 4.8230 -2.5036 0.9785
-0.6867 4.7761 -2.5032 0.9785
-1.0256 4.7146 -2.5030 0.9785
-1.5235 4.5774 -2.5027 0.9785
-1.6858 4.5199 -2.5026 0.9785
-1.8460 4.4566 -2.5025 0.9785
-2.0038 4.3877 -2.5024 0.9785
-2.3115 4.2332 -2.5022 0.9785
-2.4610 4.1479 -2.5021 0.9785
-2.6074 4.0572 -2.5020 0.9785
-3.0258 3.7548 -2.5017 0.9785
-3.8592 2.8890 -2.5009 0.9785
-4.0551 2.6061 -2.5007 0.9785
-4.1454 2.4596 -2.5006 0.9785
-4.2304 2.3100 -2.5005 0.9785
-4.3100 2.1574 -2.5004 0.9785
-4.3840 2.0021 -2.5003 0.9785
-4.4525 1.8443 -2.5002 0.9785
-4.6237 1.3576 -2.4999 0.9785
-4.6690 1.1917 -2.4998 0.9785
-4.7692 0.6857 -2.4996 0.9785
4.5717 0.0000 -2.5039 0.9794
4.5256 0.6507 -2.5042 0.9794
4.4678 0.9719 -2.5043 0.9794
4.3385 1.4440 -2.5044 0.9794
4.1595 1.8996 -2.5045 0.9794
3.7562 2.6080 -2.5046 0.9794
3.6607 2.7404 -2.5046 0.9794
3.5606 2.8693 -2.5046 0.9794
3.4559 2.9946 -2.5046 0.9794
3.3468 3.1160 -2.5046 0.9794
3.2335 3.2335 -2.5045 0.9794
3.1160 3.3468 -2.5045 0.9794
2.9945 3.4559 -2.5045 0.9794
2.7403 3.6606 -2.5045 0.9794
2.3332 3.9324 -2.5044 0.9794
2.0467 4.0887 -2.5043 0.9794
1.8994 4.1591 -2.5042 0.9794
1.7497 4.2241 -2.5042 0.9794
1.5978 4.2838 -2.5041 0.9794
1.4438 4.3380 -2.5041 0.9794
0.9718 4.4672 -2.5039 0.9794
0.8117 4.4989 -2.5038 0.9794
0.4886 4.5451 -2.5037 0.9794
0.3261 4.5595 -2.5036 0.9794
-0.0000 4.5708 -2.5035 0.9794
-0.1631 4.5678 -2.5034 0.9794
-0.3261 4.5589 -2.5033 0.9794
-0.6504 4.5237 -2.5031 0.9794
-0.8114 4.4974 -2.5030 0.9794
-0.9714 4.4654 -2.5029 0.9794
-1.1301 4.4278 -2.5029 0.9794
-1.4430 4.3355 -2.5027 0.9794
-1.5968 4.2811 -2.5026 0.9794
-1.7485 4.2212 -2.5025 0.9794
-1.8980 4.1560 -2.5024 0.9794
-2.0450 4.0854 -2.5023 0.9794
-2.4697 3.8429 -2.5020 0.9794
-2.6052 3.7522 -2.5019 0.9794
-2.7373 3.6567 -2.5018 0.9794
-2.8660 3.5565 -2.5017 0.9794
-2.9910 3.4518 -2.5016 0.9794
-3.3424 3.1119 -2.5012 0.9794
-3.4512 2.9905 -2.5011 0.9794
-3.6555 2.7364 -2.5009 0.9794
-3.7507 2.6041 -2.5008 0.9794
-3.8411 2.4685 -2.5007 0.9794
-3.9266 2.3297 -2.5007 0.9794
-4.0071 2.1880 -2.5006 0.9794
-4.2771 1.5953 -2.5002 0.9794
-4.3690 1.2829 -2.4939 0.9794
-4.4160 1.1271 -2.4962 0.9794
-4.5377 0.4879 -2.4996 0.9794
4.3368 0.0000 -2.5038 0.9802
4.3341 0.1548 -2.5039 0.9802
4.2382 0.9220 -2.5041 0.9802
4.2026 1.0727 -2.5042 0.9802
4.0641 1.5158 -2.5043 0.9802
3.9457 1.8019 -2.5043 0.9802
3.6491 2.3452 -2.5044 0.9802
3.4726 2.5995 -2.5044 0.9802
3.2783 2.8406 -2.5044 0.9802
3.1748 2.9558 -2.5044 0.9802
3.0672 3.0672 -2.5044 0.9802
2.9558 3.1748 -2.5044 0.9802
2.5994 3.4724 -2.5043 0.9802
2.3450 3.6490 -2.5043 0.9802
2.2133 3.7303 -2.5042 0.9802
2.0787 3.8068 -2.5042 0.9802
1.9415 3.8785 -2.5042 0.9802
1.8018 3.9453 -2.5041 0.9802
1.5157 4.0636 -2.5040 0.9802
1.3696 4.1151 -2.5040 0.9802
1.2218 4.1612 -2.5039 0.9802
0.1548 4.3333 -2.5034 0.9802
-0.1548 4.3331 -2.5033 0.9802
-0.3093 4.3247 -2.5032 0.9802
-0.9215 4.2360 -2.5029 0.9802
-1.0721 4.2003 -2.5028 0.9802
-1.2213 4.1592 -2.5027 0.9802
-1.8005 3.9425 -2.5023 0.9802
-1.9400 3.8756 -2.5022 0.9802
-2.4714 3.5595 -2.5018 0.9802
-2.5968 3.4689 -2.5018 0.9802
-2.8374 3.2745 -2.5016 0.9802
-3.2740 2.8370 -2.5012 0.9802
-3.6439 2.3418 -2.5008 0.9802
-3.8014 2.0757 -2.5006 0.9802
-3.8729 1.9386 -2.5005 0.9802
-3.9395 1.7991 -2.5004 0.9802
-4.0011 1.6573 -2.5004 0.9802
-4.1549 1.2200 -2.5001 0.9802
-4.1957 1.0709 -2.5000 0.9802
-4.2311 0.9204 -2.5000 0.9802
-4.2611 0.7688 -2.4999 0.9802
-4.2857 0.6162 -2.4998 0.9802
-4.3267 0.1545 -2.4996 0.9802
