ply
format ascii 1.0
element vertex 1326
property float32 x
property float32 y
property float32 z
property float32 I
end_header
30.0116 19.2873 6.2904 0.8651
25.7559 19.2806 5.6730 0.8775
22.9747 18.5142 5.2027 0.8871
21.6350 18.7468 5.0477 0.8902
19.8927 18.5208 4.7925 0.8955
16.8787 18.1290 4.3676 0.9043
10.4509 17.6141 3.6114 0.9202
11.7852 23.5439 4.6425 0.8986
7.0260 15.3848 2.9823 0.9336
6.8268 16.4812 3.1455 0.9301
5.5736 16.7459 3.1120 0.9308
4.9949 17.0110 3.1261 0.9305
5.0471 23.2013 4.1867 0.9081
1.7004 15.8160 2.8049 0.9374
-1.7363 16.1496 2.8640 0.9362
-3.2112 22.3344 3.9787 0.9124
-3.9808 22.0641 3.9533 0.9130
-3.8997 15.2790 2.7805 0.9380
-4.4108 15.0219 2.7606 0.9384
-5.5466 14.8709 2.7986 0.9376
-6.3544 15.3408 2.9279 0.9348
-10.7706 23.5843 4.5717 0.9000
-10.0239 20.0253 3.9487 0.9131
-10.6363 14.2085 3.1296 0.9304
36.2969 19.8196 6.3354 0.8459
31.0775 19.9723 5.6593 0.8611
28.2351 19.6040 5.2658 0.8701
25.7593 19.2832 4.9294 0.8779
21.5829 18.7017 4.3750 0.8909
19.9458 18.5702 4.1749 0.8956
17.9210 17.9210 3.8826 0.9025
15.9029 18.3529 3.7202 0.9064
20.2926 25.1816 4.9544 0.8773
12.9313 17.2741 3.3056 0.9164
11.9009 17.1405 3.1967 0.9190
11.2316 17.4767 3.1825 0.9194
10.5930 17.8536 3.1803 0.9194
7.0253 15.3834 2.5908 0.9339
6.1131 16.3898 2.6798 0.9317
5.5761 16.7536 2.7050 0.9310
5.8610 22.9634 3.6306 0.9086
4.1995 23.2761 3.6233 0.9087
1.1259 15.7424 2.4178 0.9381
0.5596 15.6689 2.4019 0.9385
0.0000 6.5699 1.0065 0.9738
-0.4692 6.5606 1.0076 0.9737
-3.2609 22.6798 3.5101 0.9114
-4.0056 22.2016 3.4561 0.9128
-3.4074 15.6637 2.4557 0.9372
-3.9001 15.2803 2.4159 0.9382
-5.5469 14.8719 2.4316 0.9378
-6.3871 15.4198 2.5569 0.9347
-10.0242 20.0259 3.4307 0.9134
-9.0552 15.2617 2.7186 0.9307
-9.5070 14.7932 2.6939 0.9313
-18.1599 4.6351 2.8712 0.9270
-45.1493 8.1458 7.0283 0.8306
34.7727 10.2102 4.7193 0.8640
18.9794 9.5004 2.7639 0.9179
38.2939 20.9101 5.6817 0.8386
30.0434 19.3077 4.6505 0.8658
25.8639 19.3615 4.2072 0.8778
23.0689 18.5901 3.8580 0.8874
21.8804 18.9595 3.7702 0.8898
16.3900 18.9151 3.2592 0.9040
11.2387 17.4878 2.7070 0.9196
5.4838 16.4761 2.2612 0.9324
4.9085 16.7169 2.2688 0.9321
4.2366 23.4817 3.1072 0.9082
2.3138 16.0928 2.1172 0.9365
1.7006 15.8181 2.0717 0.9378
0.5597 15.6699 2.0418 0.9387
-2.4641 22.9199 3.0019 0.9112
-2.9695 16.4588 2.1779 0.9348
-3.9004 15.2815 2.0538 0.9384
-4.4114 15.0238 2.0390 0.9388
-5.5473 14.8728 2.0671 0.9380
-11.2784 24.6961 3.5354 0.8963
-10.4741 19.1818 2.8460 0.9156
-9.9305 14.3026 2.2674 0.9322
18.9874 9.5044 2.2801 0.9181
38.2974 20.9120 4.6856 0.8390
18.3277 17.0637 2.6890 0.9042
22.0155 25.4073 3.6100 0.8735
11.9029 17.1435 2.2411 0.9195
11.0725 17.2292 2.1992 0.9209
10.5728 17.8195 2.2250 0.9200
13.6593 25.0152 3.0605 0.8917
7.0265 15.3859 1.8163 0.9342
6.8283 16.4849 1.9160 0.9307
5.5241 16.5972 1.8784 0.9320
4.9980 17.0217 1.9050 0.9311
5.8618 22.9665 2.5452 0.9090
4.2442 23.5240 2.5668 0.9083
2.3264 16.1802 1.7553 0.9364
1.7007 15.8191 1.7085 0.9380
1.1261 15.7445 1.6950 0.9385
-0.2315 6.4818 0.6965 0.9742
-0.4694 6.5634 0.7066 0.9739
-2.4643 22.9214 2.4755 0.9114
-3.9384 21.8291 2.3819 0.9146
-3.3591 15.4418 1.6969 0.9384
-4.4117 15.0248 1.6815 0.9389
-4.9753 14.9482 1.6917 0.9386
-5.5476 14.8738 1.7047 0.9381
-6.2390 15.0624 1.7507 0.9365
-11.3813 24.9215 2.9420 0.8956
-9.9312 14.3037 1.8699 0.9323
34.7708 10.2096 3.0677 0.8646
18.9953 9.5084 1.7982 0.9183
29.7002 19.0871 2.9886 0.8679
22.1563 19.1986 2.4818 0.8890
18.3355 17.0710 2.1207 0.9043
17.9266 17.9266 2.1461 0.9032
16.7250 17.9639 2.0778 0.9062
16.2113 18.7088 2.0956 0.9054
20.9194 25.9594 2.8223 0.8747
12.9347 17.2787 1.8271 0.9170
11.9040 17.1450 1.7669 0.9196
10.6405 17.9336 1.7652 0.9197
7.0277 15.3885 1.4321 0.9343
6.8288 16.4861 1.5106 0.9309
6.1144 16.3933 1.4811 0.9322
4.9983 17.0229 1.5019 0.9313
5.0167 23.0613 1.9979 0.9096
1.7008 15.8201 1.3469 0.9381
-0.2315 6.4831 0.5492 0.9743
-3.3591 15.4417 1.3378 0.9385
-4.4120 15.0258 1.3257 0.9391
-5.5480 14.8748 1.3439 0.9383
-11.2710 24.6801 2.2968 0.8968
-10.2932 18.8507 1.8182 0.9174
-9.4169 14.6530 1.4745 0.9325
-9.9319 14.3047 1.4742 0.9325
-45.2197 8.1585 3.8898 0.8316
27.4626 20.5583 2.1273 0.8715
18.3498 17.0842 1.5547 0.9044
17.9285 17.9285 1.5722 0.9034
16.8186 18.0644 1.5305 0.9058
11.9050 17.1464 1.2944 0.9197
11.1342 17.3251 1.2771 0.9208
10.6410 17.9345 1.2932 0.9198
13.2118 24.1956 1.7095 0.8954
7.7113 16.8855 1.1511 0.9283
4.9987 17.0240 1.1002 0.9314
5.0359 23.1498 1.4691 0.9094
4.1813 23.1752 1.4603 0.9099
2.3263 16.1800 1.0136 0.9366
1.7010 15.8212 0.9867 0.9382
-0.4696 6.5662 0.4082 0.9740
-3.2912 22.8906 1.4340 0.9115
-3.9633 21.9673 1.3842 0.9144
-3.9013 15.2852 0.9782 0.9387
-4.9759 14.9502 0.9771 0.9388
-6.2390 15.0622 1.0110 0.9368
-11.3233 24.7946 1.6903 0.8965
-10.0254 20.0282 1.3889 0.9141
-10.2944 18.8527 1.3320 0.9175
-8.9491 15.0830 1.0875 0.9321
-9.4169 14.6529 1.0801 0.9326
-45.2430 8.1628 2.8508 0.8317
34.7690 10.2091 1.4288 0.8650
19.0112 9.5163 0.8383 0.9184
38.9788 21.2840 1.7512 0.8371
29.6970 19.0851 1.3920 0.8682
28.1359 19.5351 1.3506 0.8719
23.0801 18.5991 1.1688 0.8881
27.8558 25.9347 1.5007 0.8587
16.8184 18.0643 0.9732 0.9059
11.9060 17.1479 0.8231 0.9198
11.1341 17.3250 0.8121 0.9209
10.6415 17.9353 0.8223 0.9199
13.2117 24.1954 1.0870 0.8955
11.8905 23.7542 1.0474 0.8991
7.7113 16.8854 0.7319 0.9284
5.5240 16.5969 0.6897 0.9324
4.9990 17.0252 0.6997 0.9314
5.0359 23.1497 0.9342 0.9095
4.1817 23.1776 0.9287 0.9100
2.3263 16.1800 0.6446 0.9367
1.7011 15.8222 0.6275 0.9383
1.1263 15.7475 0.6225 0.9388
0.5598 15.6739 0.6184 0.9391
0.0000 6.5892 0.2598 0.9740
-0.2316 6.4859 0.2559 0.9744
-0.4697 6.5676 0.2596 0.9740
-2.4726 22.9984 0.9121 0.9116
-3.2914 22.8920 0.9119 0.9116
-3.9633 21.9672 0.8802 0.9145
-3.3591 15.4415 0.6231 0.9387
-4.9762 14.9511 0.6213 0.9389
-5.5487 14.8767 0.6261 0.9384
-6.2389 15.0621 0.6428 0.9368
-10.0257 20.0288 0.8832 0.9142
-10.2955 18.8548 0.8471 0.9176
-9.4168 14.6528 0.6868 0.9326
-9.9333 14.3067 0.6868 0.9327
-10.6410 14.2147 0.7002 0.9314
-45.2663 8.1670 1.8137 0.8318
30.9560 19.8942 0.6216 0.8631
28.1356 19.5349 0.5786 0.8719
27.5404 20.6165 0.5811 0.8714
27.8555 25.9344 0.6429 0.8588
17.9322 17.9322 0.4284 0.9035
16.8183 18.0641 0.4169 0.9060
16.2819 18.7903 0.4200 0.9053
11.9070 17.1493 0.3527 0.9199
11.1340 17.3249 0.3479 0.9209
10.6420 17.9362 0.3523 0.9200
11.8914 23.7560 0.4488 0.8992
6.8303 16.4897 0.3015 0.9311
5.5240 16.5968 0.2955 0.9324
5.8634 22.9728 0.4005 0.9095
5.0359 23.1496 0.4002 0.9096
4.1822 23.1802 0.3979 0.9101
2.3263 16.1799 0.2761 0.9367
1.7012 15.8232 0.2688 0.9383
-0.4698 6.5690 0.1112 0.9740
-3.9633 21.9670 0.3771 0.9146
-3.9019 15.2875 0.2665 0.9388
-4.9765 14.9521 0.2662 0.9389
-6.2389 15.0620 0.2754 0.9369
-8.9514 15.0868 0.2963 0.9322
34.7637 10.2076 -0.2040 0.8651
19.0271 9.5243 -0.1198 0.9184
38.9810 21.2852 -0.2501 0.8372
28.1352 19.5346 -0.1928 0.8720
23.0856 18.6036 -0.1669 0.8882
17.9340 17.9340 -0.1428 0.9035
20.8379 25.8583 -0.1870 0.8756
11.9080 17.1508 -0.1176 0.9199
11.1340 17.3248 -0.1160 0.9209
10.6425 17.9370 -0.1174 0.9200
6.8308 16.4909 -0.1005 0.9311
6.1161 16.3980 -0.0985 0.9324
5.5239 16.5967 -0.0985 0.9324
4.9997 17.0276 -0.0999 0.9315
5.8638 22.9743 -0.1335 0.9095
4.1826 23.1827 -0.1326 0.9101
2.3263 16.1798 -0.0920 0.9367
1.7013 15.8242 -0.0896 0.9383
0.0000 6.5969 -0.0371 0.9740
-3.9633 21.9669 -0.1257 0.9146
-5.5494 14.8786 -0.0894 0.9385
-11.3269 24.8025 -0.1535 0.8967
-10.2978 18.8591 -0.1210 0.9176
-8.9525 15.0887 -0.0988 0.9322
-9.4167 14.6527 -0.0981 0.9327
-9.9347 14.3087 -0.0981 0.9327
-45.3128 8.1754 -0.2592 0.8318
34.7606 10.2067 -1.0201 0.8650
27.5425 20.6180 -0.9688 0.8714
23.0884 18.6058 -0.8350 0.8881
27.8548 25.9338 -1.0716 0.8587
20.8376 25.8580 -0.9351 0.8756
12.9404 17.2863 -0.6080 0.9172
11.9090 17.1522 -0.5880 0.9198
10.6430 17.9379 -0.5873 0.9199
11.8932 23.7596 -0.7482 0.8991
7.7112 16.8851 -0.5227 0.9284
5.5239 16.5966 -0.4925 0.9324
5.0358 23.1494 -0.6671 0.9096
0.5599 15.6769 -0.4417 0.9392
-0.4700 6.5718 -0.1855 0.9740
-2.4731 23.0028 -0.6514 0.9116
-3.3590 15.4413 -0.4450 0.9387
-4.9772 14.9540 -0.4438 0.9389
-6.2388 15.0619 -0.4591 0.9368
-11.3282 24.8052 -0.7678 0.8966
-10.2990 18.8612 -0.6051 0.9176
-8.9537 15.0907 -0.4941 0.9322
-12.5449 5.1963 -0.3823 0.9471
-45.3361 8.1795 -1.2972 0.8316
49.7492 3.5581 -2.5294 0.8189
27.9137 4.0134 -1.4302 0.8932
48.7937 8.8034 -2.5145 0.8199
48.3521 10.5184 -2.5095 0.8202
38.0913 12.6780 -2.0360 0.8515
34.1545 20.2648 -2.0141 0.8529
27.4930 20.5810 -1.7417 0.8715
21.9994 19.0626 -1.4763 0.8900
27.8545 25.9335 -1.9301 0.8586
17.9377 17.9377 -1.2865 0.9034
20.8374 25.8576 -1.6842 0.8755
11.9100 17.1537 -1.0591 0.9198
11.8941 23.7614 -1.3476 0.8990
7.7111 16.8850 -0.9414 0.9284
6.1170 16.4003 -0.8877 0.9323
5.0004 17.0300 -0.9001 0.9314
5.8646 22.9774 -1.2026 0.9094
4.1835 23.1878 -1.1949 0.9099
2.3263 16.1796 -0.8290 0.9366
1.1266 15.7515 -0.8009 0.9387
0.0000 6.6047 -0.3349 0.9739
-0.2318 6.4913 -0.3294 0.9743
-0.4701 6.5732 -0.3342 0.9740
-2.4732 23.0042 -1.1734 0.9115
-3.9632 21.9666 -1.1320 0.9145
-3.9028 15.2911 -0.8003 0.9387
-6.2388 15.0618 -0.8268 0.9368
-10.0268 20.0311 -1.1360 0.9142
-10.3002 18.8633 -1.0900 0.9175
-9.4166 14.6525 -0.8833 0.9326
-30.7409 35.4768 -2.3807 0.8286
-32.0141 34.3856 -2.3826 0.8285
-33.2505 33.2505 -2.3848 0.8283
-35.6075 30.8541 -2.3894 0.8280
-39.1166 21.3593 -2.2602 0.8365
-39.9093 19.9772 -2.2634 0.8363
-40.6551 18.5666 -2.2666 0.8361
-12.5451 5.1963 -0.6886 0.9471
-42.0021 15.6659 -2.2734 0.8357
-43.6462 11.1400 -2.2844 0.8349
-44.0903 9.5912 -2.2883 0.8347
-44.3410 8.0000 -2.2850 0.8349
-44.8177 6.4438 -2.2963 0.8341
-45.3262 3.2418 -2.3046 0.8336
34.4679 0.0000 -2.5273 0.8709
34.2878 2.4523 -2.5205 0.8712
34.1320 3.6696 -2.5171 0.8714
33.6911 6.0786 -2.5102 0.8717
33.0806 8.4433 -2.5033 0.8720
30.7565 9.0309 -2.3503 0.8794
29.4609 12.2031 -2.3381 0.8799
28.9673 13.2289 -2.3349 0.8801
19.0510 9.5363 -1.5621 0.9181
20.4588 11.1714 -1.7091 0.9107
26.6480 17.1256 -2.3226 0.8807
25.9862 18.0425 -2.3196 0.8808
25.2934 18.9342 -2.3166 0.8810
23.0940 18.6103 -2.1747 0.8878
19.7394 18.3781 -1.9775 0.8975
17.9396 17.9396 -1.8602 0.9033
16.2355 18.7368 -1.8178 0.9053
12.9427 17.2894 -1.5836 0.9170
11.1337 17.3244 -1.5100 0.9207
10.6441 17.9396 -1.5295 0.9197
13.1788 24.1353 -2.0163 0.8956
7.7111 16.8849 -1.3610 0.9283
6.8322 16.4945 -1.3091 0.9309
6.1174 16.4015 -1.2835 0.9322
5.5238 16.5964 -1.2825 0.9323
5.0008 17.0313 -1.3015 0.9313
5.8650 22.9790 -1.7389 0.9093
5.0225 23.0880 -1.7325 0.9096
4.1455 22.9769 -1.7119 0.9106
1.7016 15.8273 -1.1672 0.9382
0.5600 15.6789 -1.1503 0.9390
-0.2319 6.4927 -0.4764 0.9743
-2.4734 23.0057 -1.6965 0.9114
-3.2924 22.8992 -1.6963 0.9114
-3.9532 21.9113 -1.6325 0.9146
-3.3590 15.4411 -1.1587 0.9386
-3.9031 15.2923 -1.1572 0.9387
-4.4139 15.0325 -1.1487 0.9391
-5.5505 14.8815 -1.1646 0.9383
-6.2388 15.0617 -1.1953 0.9367
-10.0271 20.0316 -1.6425 0.9141
-10.2717 18.8112 -1.5715 0.9176
-8.9561 15.0947 -1.2869 0.9320
-9.4165 14.6524 -1.2771 0.9325
-9.9368 14.3118 -1.2775 0.9325
-10.6448 14.2198 -1.3024 0.9312
-20.6677 25.6470 -2.4151 0.8762
-23.3314 23.3315 -2.4193 0.8760
-24.9707 21.6372 -2.4226 0.8759
-26.4912 19.8311 -2.4264 0.8757
-27.2047 18.8885 -2.4284 0.8756
-27.8855 17.9210 -2.4305 0.8755
-28.5330 16.9294 -2.4326 0.8754
-29.1463 15.9151 -2.4349 0.8753
-29.7246 14.8791 -2.4373 0.8752
-30.2671 13.8225 -2.4397 0.8751
-12.5452 5.1964 -0.9956 0.9470
-32.7303 7.1200 -2.4560 0.8743
-33.2353 4.7785 -2.4619 0.8740
-33.6830 1.2030 -2.4713 0.8736
26.2582 0.0000 -2.5209 0.8999
26.1376 1.8694 -2.5158 0.9001
26.0273 2.7982 -2.5131 0.9002
25.8839 3.7215 -2.5105 0.9003
25.7077 4.6382 -2.5079 0.9004
23.7443 7.9029 -2.4025 0.9043
22.8660 8.5286 -2.3430 0.9066
22.5236 9.3296 -2.3405 0.9067
18.5843 8.4872 -1.9614 0.9212
20.4049 13.1135 -2.3286 0.9071
19.9042 13.8197 -2.3263 0.9072
19.3793 14.5072 -2.3241 0.9073
18.8311 15.1751 -2.3218 0.9074
18.2601 15.8225 -2.3196 0.9075
15.0932 18.7295 -2.3093 0.9079
11.9121 17.1566 -2.0052 0.9195
11.4828 21.0292 -2.3003 0.9082
8.4656 16.9121 -1.8157 0.9268
6.8327 16.4957 -1.7142 0.9308
6.1179 16.4027 -1.6807 0.9321
1.7017 15.8283 -1.5284 0.9380
-0.2319 6.4940 -0.6239 0.9742
-3.2926 22.9007 -2.2212 0.9112
-3.9532 21.9111 -2.1375 0.9144
-4.4142 15.0334 -1.5042 0.9390
-4.9781 14.9569 -1.5134 0.9386
-6.2387 15.0616 -1.5651 0.9366
-10.0274 20.0322 -2.1507 0.9139
-8.8741 14.9566 -1.6696 0.9325
-9.9375 14.3128 -1.6728 0.9324
-15.6034 18.0073 -2.2875 0.9087
-16.2435 17.4467 -2.2885 0.9087
-18.5959 17.3134 -2.4393 0.9029
-20.3752 15.2527 -2.4435 0.9028
-20.9199 14.5249 -2.4450 0.9027
-21.4392 13.7782 -2.4467 0.9027
-21.9325 13.0131 -2.4484 0.9026
-22.3991 12.2308 -2.4501 0.9025
-22.8383 11.4320 -2.4519 0.9025
-24.3111 8.0915 -2.4599 0.9022
-24.6056 7.2249 -2.4620 0.9021
-24.8697 6.3476 -2.4642 0.9020
-25.1030 5.4609 -2.4664 0.9019
-25.4759 3.6629 -2.4710 0.9017
-25.6148 2.7539 -2.4733 0.9017
-25.7963 0.9213 -2.4781 0.9015
21.1893 0.0000 -2.5170 0.9182
21.1584 0.7557 -2.5149 0.9183
21.1004 1.5091 -2.5128 0.9183
20.9039 3.0055 -2.5086 0.9184
20.7658 3.7466 -2.5065 0.9185
20.4110 5.2096 -2.5023 0.9186
19.9535 6.6412 -2.4980 0.9188
16.9004 10.0274 -2.3343 0.9239
14.7929 12.8182 -2.3251 0.9242
13.8202 13.8202 -2.3216 0.9243
12.7807 14.7497 -2.3183 0.9244
12.2376 15.1861 -2.3167 0.9244
9.3172 17.0632 -2.3094 0.9247
8.4656 16.9120 -2.2465 0.9266
5.5036 16.5356 -2.0701 0.9322
4.9562 16.8793 -2.0897 0.9316
4.7910 18.7711 -2.3012 0.9249
2.3179 16.1211 -1.9347 0.9365
1.7018 15.8294 -1.8911 0.9379
1.1268 15.7546 -1.8762 0.9384
0.5600 15.6809 -1.8639 0.9388
-0.4704 6.5774 -0.7833 0.9738
-2.0650 19.2076 -2.2947 0.9251
-2.7489 19.1192 -2.2944 0.9251
-3.4293 19.0071 -2.2942 0.9252
-5.5512 14.8834 -1.8869 0.9380
-6.2164 15.0076 -1.9296 0.9367
-8.6477 17.2760 -2.2949 0.9251
-9.2604 16.9591 -2.2953 0.9251
-8.8753 14.9585 -2.0661 0.9323
-9.9383 14.3138 -2.0699 0.9322
-10.6464 14.2219 -2.1103 0.9309
-12.1398 15.0645 -2.2982 0.9250
-12.6740 14.6265 -2.2989 0.9250
-15.5333 11.6281 -2.3049 0.9248
-15.9467 11.0720 -2.3061 0.9248
-17.3995 11.1820 -2.4568 0.9201
-17.7975 10.5598 -2.4582 0.9200
-18.1737 9.9236 -2.4596 0.9200
-18.8585 8.6124 -2.4627 0.9199
-19.9457 5.8566 -2.4693 0.9197
-20.1565 5.1446 -2.4711 0.9196
-20.3421 4.4252 -2.4729 0.9196
-20.7458 2.2304 -2.4785 0.9194
-20.8850 0.7459 -2.4824 0.9193
17.7218 0.6329 -2.5126 0.9309
17.6757 1.2642 -2.5108 0.9309
17.4025 3.1398 -2.5056 0.9311
17.2671 3.7562 -2.5038 0.9311
17.1098 4.3670 -2.5020 0.9311
16.9310 4.9714 -2.5002 0.9312
16.7309 5.5686 -2.4984 0.9312
16.2274 6.7216 -2.4887 0.9315
15.0317 6.8648 -2.3414 0.9354
14.7668 7.3917 -2.3398 0.9355
12.2460 6.6868 -1.9769 0.9452
14.1823 8.4147 -2.3366 0.9355
13.5276 9.3923 -2.3334 0.9356
11.1791 12.0072 -2.3245 0.9359
10.7370 12.3912 -2.3231 0.9359
9.8144 13.1105 -2.3205 0.9360
6.7826 14.8517 -2.3134 0.9362
6.2454 15.0777 -2.3124 0.9362
3.4624 15.9165 -2.3079 0.9363
0.5601 15.6819 -2.2234 0.9386
0.0000 6.6203 -0.9380 0.9736
-1.7376 16.1625 -2.3032 0.9364
-2.8857 15.9943 -2.3028 0.9364
-4.4148 15.0354 -2.2203 0.9387
-4.9788 14.9588 -2.2338 0.9383
-5.5516 14.8844 -2.2509 0.9378
-8.2977 13.9851 -2.3041 0.9364
-8.7933 13.6826 -2.3045 0.9364
-9.2780 13.3629 -2.3050 0.9364
-9.7514 13.0263 -2.3055 0.9364
-10.2127 12.6732 -2.3061 0.9364
-11.0973 11.9194 -2.3075 0.9363
-11.5195 11.5195 -2.3083 0.9363
-12.3208 10.6761 -2.3099 0.9363
-13.0616 9.7778 -2.3118 0.9362
-13.4080 9.3094 -2.3128 0.9362
-13.7380 8.8289 -2.3138 0.9362
-14.0510 8.3368 -2.3149 0.9361
-14.3466 7.8339 -2.3161 0.9361
-14.6245 7.3205 -2.3172 0.9361
-12.2907 5.6130 -1.9145 0.9469
-12.5804 5.2110 -1.9294 0.9465
-16.9306 4.3213 -2.4758 0.9318
-17.3280 2.4914 -2.4804 0.9317
-17.4172 1.8726 -2.4821 0.9317
-17.4845 1.2505 -2.4837 0.9316
-17.5296 0.6261 -2.4853 0.9316
15.2508 0.0000 -2.5124 0.9400
15.1938 1.0867 -2.5094 0.9401
15.0594 2.1652 -2.5064 0.9402
14.9634 2.6997 -2.5049 0.9402
14.7147 3.7557 -2.5018 0.9403
13.9963 5.7975 -2.4957 0.9404
13.7465 6.2778 -2.4896 0.9406
12.2485 6.6882 -2.2990 0.9450
12.2065 7.2425 -2.3382 0.9441
11.6452 8.0854 -2.3355 0.9441
11.3427 8.4911 -2.3342 0.9442
11.0262 8.8855 -2.3328 0.9442
10.3529 9.6388 -2.3303 0.9443
9.6287 10.3419 -2.3278 0.9443
9.2486 10.6735 -2.3266 0.9444
8.4553 11.2949 -2.3243 0.9444
7.6208 11.8583 -2.3222 0.9445
6.3014 12.5886 -2.3192 0.9445
5.8458 12.8004 -2.3182 0.9445
4.9140 13.1750 -2.3165 0.9446
0.5007 14.0180 -2.3108 0.9447
0.0000 6.6243 -1.0913 0.9735
-0.4706 6.5803 -1.0868 0.9736
-1.4986 13.9386 -2.3095 0.9448
-2.4887 13.7939 -2.3091 0.9448
-4.4261 13.2984 -2.3089 0.9448
-4.8982 13.1325 -2.3090 0.9448
-6.2754 12.5366 -2.3096 0.9448
-7.1556 12.0602 -2.3102 0.9447
-7.5828 11.7990 -2.3106 0.9447
-8.0005 11.5230 -2.3110 0.9447
-8.4084 11.2324 -2.3114 0.9447
-9.1926 10.6089 -2.3125 0.9447
-10.6213 9.2034 -2.3152 0.9446
-10.9467 8.8214 -2.3160 0.9446
-11.5565 8.0239 -2.3177 0.9446
-11.8402 7.6092 -2.3186 0.9445
-12.1092 7.1847 -2.3196 0.9445
-12.3631 6.7508 -2.3205 0.9445
-12.6017 6.3080 -2.3216 0.9445
-12.4324 5.1497 -2.2169 0.9469
-14.0792 5.2513 -2.4755 0.9409
-14.2647 4.7477 -2.4767 0.9409
-14.8262 2.6749 -2.4819 0.9408
-15.0523 1.0766 -2.4860 0.9407
13.3588 0.0000 -2.5109 0.9471
13.3434 0.4766 -2.5096 0.9471
13.3109 0.9520 -2.5083 0.9471
13.0122 2.8306 -2.5030 0.9472
12.7635 3.7477 -2.5003 0.9473
11.8480 5.9307 -2.4904 0.9475
11.1930 6.1119 -2.3971 0.9494
10.7042 6.3511 -2.3395 0.9506
10.2134 7.0913 -2.3371 0.9507
9.0825 8.4561 -2.3325 0.9507
8.7707 8.7707 -2.3314 0.9508
7.7725 9.6450 -2.3283 0.9508
7.0586 10.1663 -2.3263 0.9509
6.6886 10.4076 -2.3254 0.9509
6.3103 10.6355 -2.3245 0.9509
5.1317 11.2368 -2.3219 0.9510
4.3142 11.5667 -2.3204 0.9510
3.8974 11.7097 -2.3197 0.9510
3.4759 11.8379 -2.3190 0.9510
2.6212 12.0493 -2.3178 0.9511
2.1889 12.1323 -2.3172 0.9511
1.7541 12.1999 -2.3167 0.9511
1.3173 12.2522 -2.3162 0.9511
0.8789 12.2891 -2.3158 0.9511
-0.7692 7.1545 -1.3525 0.9711
-1.7521 12.1858 -2.3140 0.9511
-3.4680 11.8109 -2.3137 0.9511
-4.3019 11.5339 -2.3138 0.9511
-4.7111 11.3736 -2.3139 0.9511
-5.1144 11.1990 -2.3141 0.9511
-5.5113 11.0103 -2.3143 0.9511
-5.9014 10.8077 -2.3145 0.9511
-6.6592 10.3619 -2.3152 0.9511
-7.0259 10.1193 -2.3155 0.9511
-7.3840 9.8638 -2.3160 0.9511
-7.7329 9.5959 -2.3164 0.9511
-8.4015 9.0238 -2.3174 0.9511
-9.0285 8.4058 -2.3186 0.9510
-9.3253 8.0804 -2.3193 0.9510
-9.6107 7.7448 -2.3200 0.9510
-9.8840 7.3991 -2.3207 0.9510
-10.6293 6.3066 -2.3231 0.9509
-10.8516 5.9254 -2.3239 0.9509
-11.4364 4.7371 -2.3267 0.9509
-12.7939 3.2655 -2.4819 0.9477
-13.0883 1.8818 -2.4854 0.9476
-13.2022 0.9442 -2.4878 0.9476
-13.2341 0.4727 -2.4891 0.9475
11.8733 0.0000 -2.5098 0.9526
11.7888 1.2674 -2.5063 0.9527
11.6574 2.1032 -2.5039 0.9527
11.5694 2.5168 -2.5027 0.9527
11.2180 3.7337 -2.4992 0.9528
10.5525 5.2822 -2.4944 0.9529
8.3492 7.2347 -2.3352 0.9558
8.0823 7.5249 -2.3343 0.9559
7.8053 7.8053 -2.3333 0.9559
7.5186 8.0756 -2.3323 0.9559
7.2227 8.3355 -2.3314 0.9559
6.9179 8.5846 -2.3305 0.9559
6.6046 8.8227 -2.3296 0.9559
6.2831 9.0494 -2.3287 0.9560
5.9540 9.2646 -2.3279 0.9560
5.2743 9.6591 -2.3263 0.9560
4.9246 9.8380 -2.3255 0.9560
4.2076 10.1580 -2.3241 0.9560
2.3341 10.7299 -2.3211 0.9561
1.9493 10.8040 -2.3206 0.9561
1.5621 10.8645 -2.3202 0.9561
0.7828 10.9444 -2.3193 0.9561
0.0000 6.6323 -1.4019 0.9732
-0.7628 7.0954 -1.5085 0.9712
-1.5605 10.8534 -2.3178 0.9562
-1.7095 7.8584 -1.7000 0.9677
-2.7114 10.6232 -2.3175 0.9562
-3.4624 10.4027 -2.3175 0.9562
-4.9086 9.8062 -2.3180 0.9562
-5.2560 9.6257 -2.3182 0.9562
-5.9307 9.2284 -2.3188 0.9561
-6.2572 9.0121 -2.3191 0.9561
-6.5760 8.7845 -2.3195 0.9561
-6.8865 8.5457 -2.3199 0.9561
-7.1885 8.2960 -2.3204 0.9561
-7.4816 8.0358 -2.3208 0.9561
-7.7653 7.7654 -2.3213 0.9561
-9.2536 5.9469 -2.3251 0.9560
-9.6605 5.2750 -2.3266 0.9560
-9.8460 4.9285 -2.3274 0.9560
-10.0192 4.5756 -2.3282 0.9560
-10.1798 4.2166 -2.3291 0.9560
-11.3859 2.9061 -2.4839 0.9531
-11.5739 2.0882 -2.4860 0.9531
-11.6460 1.6745 -2.4871 0.9530
-11.7035 1.2583 -2.4881 0.9530
10.6749 0.0000 -2.5089 0.9571
10.6637 0.3809 -2.5078 0.9571
10.6005 1.1397 -2.5057 0.9571
10.4832 1.8914 -2.5036 0.9572
10.3128 2.6322 -2.5014 0.9572
9.9595 3.7147 -2.4982 0.9573
9.8164 4.0661 -2.4972 0.9573
9.6610 4.4120 -2.4961 0.9573
9.4933 4.7520 -2.4951 0.9573
9.3138 5.0857 -2.4940 0.9573
8.8960 5.7171 -2.4853 0.9575
7.9651 5.9626 -2.3384 0.9599
7.5136 6.5105 -2.3366 0.9600
7.0246 7.0246 -2.3348 0.9600
6.7669 7.2682 -2.3339 0.9600
5.9449 7.9415 -2.3315 0.9601
4.7482 8.6956 -2.3285 0.9601
4.1134 9.0071 -2.3272 0.9601
2.7869 9.4912 -2.3248 0.9602
1.7553 9.7287 -2.3234 0.9602
1.4066 9.7834 -2.3230 0.9602
0.7049 9.8557 -2.3222 0.9602
0.3526 9.8732 -2.3219 0.9602
0.0000 6.6364 -1.5597 0.9731
-0.4709 6.5847 -1.5515 0.9732
-0.7565 7.0368 -1.6633 0.9713
-1.5420 7.0885 -1.7049 0.9706
-2.4419 9.5671 -2.3206 0.9602
-2.7818 9.4738 -2.3206 0.9602
-3.1182 9.3686 -2.3206 0.9602
-4.7334 8.6685 -2.3212 0.9602
-5.0403 8.4949 -2.3215 0.9602
-5.3409 8.3106 -2.3217 0.9602
-5.6348 8.1157 -2.3220 0.9602
-5.9218 7.9105 -2.3224 0.9602
-6.9923 6.9923 -2.3240 0.9602
-7.7048 6.2090 -2.3256 0.9602
-7.9235 5.9315 -2.3262 0.9601
-8.1323 5.6464 -2.3268 0.9601
-9.8708 3.6816 -2.4760 0.9576
-10.0246 3.3365 -2.4831 0.9575
-10.4157 1.8792 -2.4875 0.9574
-10.4802 1.5068 -2.4884 0.9574
-10.5693 0.7559 -2.4904 0.9574
9.6868 0.0000 -2.5081 0.9608
9.6204 1.0343 -2.5052 0.9608
9.4437 2.0544 -2.5023 0.9609
9.1593 3.0485 -2.4994 0.9609
9.0412 3.3722 -2.4985 0.9609
8.6190 4.3144 -2.4956 0.9610
8.4563 4.6175 -2.4946 0.9610
8.2830 4.9145 -2.4937 0.9610
7.8894 5.4777 -2.4868 0.9611
7.0325 5.6671 -2.3385 0.9634
6.8233 5.9124 -2.3377 0.9634
6.1459 6.6012 -2.3353 0.9634
5.9045 6.8141 -2.3345 0.9634
5.3999 7.2134 -2.3330 0.9635
4.5938 7.7425 -2.3310 0.9635
4.3134 7.8993 -2.3303 0.9635
3.7369 8.1826 -2.3291 0.9635
2.8388 8.5292 -2.3275 0.9635
2.5320 8.6233 -2.3270 0.9635
2.2222 8.7064 -2.3265 0.9636
1.2781 8.8894 -2.3253 0.9636
0.5993 8.3792 -2.1751 0.9659
0.2978 8.3381 -2.1603 0.9661
-0.2323 6.5039 -1.6850 0.9735
-0.4710 6.5862 -1.7096 0.9731
-0.7503 6.9785 -1.8173 0.9714
-1.5411 7.0844 -1.8772 0.9705
-2.5278 8.6089 -2.3231 0.9636
-3.1356 8.4070 -2.3232 0.9636
-3.4338 8.2900 -2.3233 0.9636
-4.0169 8.0248 -2.3235 0.9636
-4.8531 7.5515 -2.3242 0.9636
-5.6347 6.9922 -2.3251 0.9636
-6.1211 6.5746 -2.3258 0.9636
-4.6667 4.6668 -1.7088 0.9731
-4.7730 4.4438 -1.6885 0.9734
-7.3881 5.1296 -2.3288 0.9635
-7.5684 4.8639 -2.3294 0.9635
-7.7392 4.5919 -2.3300 0.9635
-7.9002 4.3139 -2.3306 0.9635
-8.0514 4.0303 -2.3312 0.9635
-8.1925 3.7414 -2.3319 0.9635
-8.5189 3.5286 -2.3874 0.9626
-8.9762 3.3479 -2.4805 0.9612
-9.1077 3.0313 -2.4853 0.9611
-9.2131 2.7052 -2.4861 0.9611
-9.5173 1.3684 -2.4895 0.9611
-9.5634 1.0282 -2.4904 0.9610
-9.5975 0.6864 -2.4913 0.9610
8.8287 0.6314 -2.5057 0.9639
8.7014 1.5699 -2.5031 0.9639
8.6368 1.8788 -2.5022 0.9639
8.5612 2.1851 -2.5013 0.9639
8.4747 2.4884 -2.5004 0.9639
8.3775 2.7883 -2.4995 0.9640
8.1515 3.3765 -2.4978 0.9640
8.0229 3.6640 -2.4969 0.9640
7.8843 3.9466 -2.4960 0.9640
7.5774 4.4959 -2.4943 0.9640
7.2325 5.0216 -2.4926 0.9641
7.0363 5.2673 -2.4882 0.9641
6.8005 5.4802 -2.4725 0.9643
6.2642 5.4280 -2.3465 0.9661
5.8376 5.8376 -2.3371 0.9663
5.4030 6.2354 -2.3357 0.9663
4.9415 6.6011 -2.3343 0.9663
4.7015 6.7714 -2.3337 0.9663
4.4556 6.9330 -2.3331 0.9663
4.2042 7.0858 -2.3324 0.9663
3.9476 7.2295 -2.3319 0.9663
3.1500 7.6047 -2.3302 0.9664
2.5984 7.8068 -2.3292 0.9664
2.3176 7.8931 -2.3288 0.9664
2.0340 7.9693 -2.3284 0.9664
1.0941 6.0640 -1.7444 0.9747
0.8616 5.9926 -1.7139 0.9751
0.8163 7.5925 -2.1618 0.9688
0.2643 7.4005 -2.0964 0.9697
-0.4712 6.5877 -1.8697 0.9729
-1.0790 7.5044 -2.1463 0.9690
-1.6221 7.4565 -2.1602 0.9688
-2.0313 7.9586 -2.3253 0.9664
-2.5939 7.7935 -2.3253 0.9664
-2.8705 7.6961 -2.3253 0.9664
-3.1435 7.5890 -2.3254 0.9664
-3.6772 7.3462 -2.3256 0.9664
-4.1926 7.0662 -2.3260 0.9664
-4.6869 6.7505 -2.3265 0.9664
-4.9255 6.5797 -2.3268 0.9664
-4.6512 4.6512 -1.8621 0.9730
-4.7588 4.4306 -1.8407 0.9733
-6.5887 4.9322 -2.3299 0.9664
-6.7620 4.6950 -2.3304 0.9664
-6.9268 4.4516 -2.3310 0.9663
-7.2303 3.9480 -2.3321 0.9663
-7.3685 3.6884 -2.3327 0.9663
-7.6913 3.5125 -2.3937 0.9655
-8.2264 3.0683 -2.4856 0.9642
-8.3343 2.7739 -2.4866 0.9641
-8.5909 1.8688 -2.4889 0.9641
-8.6548 1.5615 -2.4897 0.9641
-8.7078 1.2520 -2.4905 0.9641
-8.8005 0.3143 -2.4929 0.9641
8.1505 0.0000 -2.5069 0.9665
8.0960 0.8704 -2.5045 0.9665
8.0572 1.1584 -2.5037 0.9665
8.0081 1.4448 -2.5029 0.9665
7.9488 1.7292 -2.5021 0.9665
7.8795 2.0111 -2.5012 0.9665
7.5032 3.1079 -2.4980 0.9666
6.8213 4.3838 -2.4940 0.9666
6.6584 4.6230 -2.4932 0.9666
6.4872 4.8562 -2.4925 0.9667
6.3025 5.0789 -2.4896 0.9667
6.1056 5.2905 -2.4849 0.9668
5.7377 5.3420 -2.4113 0.9677
5.1782 5.5618 -2.3373 0.9687
4.9750 5.7415 -2.3367 0.9687
4.3294 6.2355 -2.3348 0.9687
3.6354 6.6577 -2.3332 0.9688
3.3947 6.7817 -2.3326 0.9688
3.1498 6.8971 -2.3321 0.9688
2.9010 7.0037 -2.3317 0.9688
2.1345 7.2695 -2.3303 0.9688
1.8734 7.3399 -2.3300 0.9688
1.6100 7.4009 -2.3296 0.9688
0.8634 6.0048 -1.8659 0.9749
0.6425 5.9763 -1.8488 0.9752
0.4244 5.9337 -1.8297 0.9754
0.2104 5.8919 -1.8134 0.9756
-0.0000 5.8508 -1.7996 0.9758
-0.2075 5.8103 -1.7883 0.9760
-0.8183 5.6911 -1.7685 0.9762
-1.2209 5.6126 -1.7667 0.9762
-1.8711 7.3308 -2.3271 0.9688
-2.1315 7.2593 -2.3271 0.9688
-2.3893 7.1787 -2.3271 0.9688
-2.8955 6.9903 -2.3272 0.9688
-3.1433 6.8828 -2.3273 0.9688
-4.0920 6.3672 -2.3280 0.9688
-4.3170 6.2177 -2.3282 0.9688
-4.5367 6.0604 -2.3285 0.9688
-4.7507 5.8953 -2.3287 0.9688
-4.9588 5.7227 -2.3291 0.9688
-5.1606 5.5429 -2.3294 0.9688
-4.6433 4.6433 -2.0197 0.9729
-5.9008 4.7552 -2.3309 0.9688
-6.2275 4.3238 -2.3319 0.9688
-6.3792 4.0997 -2.3324 0.9688
-7.6742 2.5542 -2.4877 0.9667
-7.9099 1.7207 -2.4898 0.9667
-7.9686 1.4377 -2.4905 0.9667
-8.0172 1.1527 -2.4913 0.9667
-8.0557 0.8661 -2.4920 0.9667
7.4904 0.8053 -2.5042 0.9687
7.4547 1.0718 -2.5035 0.9688
7.2908 1.8609 -2.5012 0.9688
7.1352 2.3748 -2.4997 0.9688
7.0437 2.6272 -2.4989 0.9688
6.9434 2.8760 -2.4982 0.9688
6.8342 3.1211 -2.4974 0.9688
6.4557 3.8304 -2.4952 0.9689
6.3131 4.0572 -2.4945 0.9689
6.0041 4.4946 -2.4931 0.9689
5.8382 4.7047 -2.4924 0.9689
4.2122 5.6268 -2.3364 0.9708
4.0077 5.7722 -2.3359 0.9708
3.1427 6.2783 -2.3338 0.9708
2.9160 6.3852 -2.3333 0.9708
2.4522 6.5745 -2.3325 0.9709
1.9762 6.7304 -2.3317 0.9709
1.7345 6.7956 -2.3313 0.9709
1.4906 6.8522 -2.3310 0.9709
1.0942 6.0649 -2.0486 0.9744
0.0000 5.8512 -1.9450 0.9756
-0.2075 5.8107 -1.9327 0.9758
-0.4127 5.7707 -1.9231 0.9759
-0.6161 5.7310 -1.9160 0.9760
-1.0198 5.6522 -1.9092 0.9761
-1.2210 5.6130 -1.9094 0.9761
-1.9737 6.7217 -2.3287 0.9709
-2.4482 6.5639 -2.3287 0.9709
-2.6810 6.4726 -2.3288 0.9709
-2.9104 6.3730 -2.3289 0.9709
-3.5757 6.0265 -2.3293 0.9709
-3.9972 5.7570 -2.3297 0.9709
-4.2005 5.6113 -2.3299 0.9709
-4.3986 5.4584 -2.3302 0.9709
-4.5912 5.2985 -2.3305 0.9709
-4.7780 5.1320 -2.3308 0.9709
-5.3016 4.5939 -2.3318 0.9709
-5.4631 4.4025 -2.3322 0.9709
-5.6178 4.2054 -2.3327 0.9709
-6.1840 3.6691 -2.3902 0.9701
-6.5448 3.5737 -2.4787 0.9691
-6.6791 3.3433 -2.4828 0.9690
-6.8055 3.1080 -2.4869 0.9690
-6.9137 2.8637 -2.4875 0.9689
-7.1038 2.3644 -2.4887 0.9689
-7.1855 2.1099 -2.4893 0.9689
-7.3215 1.5927 -2.4906 0.9689
-7.3757 1.3307 -2.4913 0.9689
-7.4819 0.5351 -2.4934 0.9689
7.0014 0.2501 -2.5053 0.9707
6.9861 0.4997 -2.5047 0.9707
6.9619 0.7485 -2.5040 0.9707
6.9288 0.9962 -2.5033 0.9707
6.8869 1.2425 -2.5026 0.9707
6.8362 1.4871 -2.5019 0.9707
6.7089 1.9699 -2.5005 0.9707
6.4545 2.6735 -2.4983 0.9708
6.2438 3.1255 -2.4970 0.9708
5.8692 3.7719 -2.4949 0.9708
5.4281 4.3742 -2.4929 0.9708
4.9203 4.9203 -2.4884 0.9709
4.4696 5.1582 -2.4408 0.9714
4.1312 5.1265 -2.3544 0.9724
3.5320 5.4959 -2.3362 0.9726
3.3329 5.6173 -2.3358 0.9726
3.1296 5.7315 -2.3353 0.9726
2.9225 5.8385 -2.3348 0.9726
2.7118 5.9379 -2.3344 0.9727
2.4977 6.0299 -2.3340 0.9727
2.2805 6.1141 -2.3336 0.9727
2.0604 6.1906 -2.3332 0.9727
0.6426 5.9771 -2.1498 0.9748
0.2105 5.8927 -2.1086 0.9753
-0.4128 5.7711 -2.0691 0.9757
-0.8184 5.6919 -2.0564 0.9759
-2.0576 6.1822 -2.3301 0.9727
-3.1232 5.7197 -2.3305 0.9727
-3.5238 5.4831 -2.3308 0.9727
-3.7176 5.3543 -2.3310 0.9727
-3.9067 5.2187 -2.3312 0.9727
-4.2700 4.9278 -2.3317 0.9727
-4.4437 4.7728 -2.3320 0.9727
-4.6100 4.6100 -2.3314 0.9727
-4.9305 4.2723 -2.3330 0.9727
-5.2244 3.9109 -2.3338 0.9727
-5.7789 3.7139 -2.4566 0.9712
-6.5212 2.4323 -2.4890 0.9709
-6.6054 2.1985 -2.4895 0.9709
-6.6812 1.9618 -2.4901 0.9709
-6.8992 0.9920 -2.4926 0.9708
-6.9320 0.7453 -2.4932 0.9708
-6.9560 0.4975 -2.4939 0.9708
-6.9712 0.2490 -2.4945 0.9708
6.5326 0.2333 -2.5050 0.9724
6.5185 0.4662 -2.5044 0.9724
6.4960 0.6984 -2.5037 0.9724
6.2606 1.8383 -2.5005 0.9724
6.1894 2.0600 -2.4998 0.9724
6.1103 2.2790 -2.4992 0.9725
6.0235 2.4950 -2.4985 0.9725
5.9291 2.7077 -2.4978 0.9725
5.8271 2.9169 -2.4972 0.9725
5.6013 3.3234 -2.4959 0.9725
5.4778 3.5203 -2.4953 0.9725
5.3473 3.7127 -2.4947 0.9725
5.0663 4.0827 -2.4935 0.9725
4.7599 4.4316 -2.4923 0.9725
3.7922 5.0658 -2.4250 0.9733
2.7283 5.4504 -2.3357 0.9742
0.8479 5.8976 -2.2833 0.9748
0.6295 5.8549 -2.2566 0.9751
0.4158 5.8132 -2.2334 0.9753
0.2062 5.7722 -2.2134 0.9756
0.0000 5.7320 -2.1966 0.9757
-0.2033 5.6923 -2.1828 0.9759
-0.6052 5.6294 -2.1697 0.9760
-0.8044 5.5948 -2.1661 0.9761
-1.0035 5.5620 -2.1659 0.9761
-1.5045 5.8944 -2.3313 0.9743
-1.7139 5.8369 -2.3313 0.9743
-2.3281 5.6206 -2.3314 0.9743
-2.5273 5.5341 -2.3314 0.9743
-2.7234 5.4406 -2.3315 0.9743
-3.2899 5.1192 -2.3320 0.9743
-3.6474 4.8723 -2.3324 0.9743
-3.9865 4.6006 -2.3328 0.9743
-4.1486 4.4559 -2.3331 0.9743
-4.3055 4.3055 -2.3334 0.9743
-4.4571 4.1497 -2.3337 0.9743
-5.3164 3.6913 -2.4803 0.9727
-5.8062 2.9064 -2.4882 0.9726
-6.1658 2.0522 -2.4903 0.9725
-6.2364 1.8312 -2.4908 0.9725
-6.3541 1.3823 -2.4919 0.9725
-6.4700 0.6956 -2.4937 0.9725
-6.4923 0.4643 -2.4943 0.9725
6.1214 0.0000 -2.5053 0.9739
6.0819 0.6539 -2.5035 0.9739
6.0169 1.0856 -2.5023 0.9739
5.9728 1.2993 -2.5017 0.9739
5.9212 1.5113 -2.5011 0.9739
5.7954 1.9289 -2.4999 0.9739
5.6403 2.3363 -2.4986 0.9740
5.5520 2.5355 -2.4980 0.9740
4.8792 3.6525 -2.4945 0.9740
4.7446 3.8235 -2.4939 0.9740
4.6041 3.9895 -2.4933 0.9740
4.1486 4.4559 -2.4917 0.9740
3.8152 4.7344 -2.4885 0.9741
3.6394 4.8616 -2.4855 0.9741
3.2024 4.9830 -2.4243 0.9747
2.7365 5.0115 -2.3369 0.9756
2.1840 5.2727 -2.3358 0.9756
1.4106 5.5268 -2.3345 0.9756
0.8115 5.6441 -2.3337 0.9757
0.4067 5.6865 -2.3333 0.9757
-0.6036 5.6146 -2.3112 0.9759
-0.9991 5.5374 -2.3029 0.9760
-1.4093 5.5217 -2.3323 0.9757
-1.6055 5.4679 -2.3323 0.9757
-1.7997 5.4071 -2.3324 0.9757
-2.1809 5.2652 -2.3324 0.9757
-2.9085 4.9021 -2.3329 0.9757
-3.0819 4.7955 -2.3330 0.9757
-3.7342 4.3096 -2.3338 0.9757
-4.4983 3.8978 -2.4360 0.9746
-4.7181 3.8021 -2.4800 0.9742
-4.8563 3.6354 -2.4828 0.9741
-5.3367 2.9141 -2.4886 0.9741
-5.5330 2.5268 -2.4895 0.9741
-5.8409 1.7150 -2.4914 0.9740
-5.8996 1.5058 -2.4920 0.9740
-6.0799 0.4348 -2.4947 0.9740
-6.0930 0.2176 -2.4953 0.9740
5.7307 0.4099 -2.5039 0.9752
5.6843 0.8173 -2.5028 0.9753
5.6089 1.2201 -2.5016 0.9753
5.5050 1.6164 -2.5005 0.9753
5.4426 1.8115 -2.4999 0.9753
5.3732 2.0041 -2.4993 0.9753
5.2142 2.3812 -2.4982 0.9753
5.0287 2.7459 -2.4970 0.9753
4.9264 2.9230 -2.4965 0.9753
4.8179 3.0963 -2.4959 0.9753
4.5827 3.4306 -2.4948 0.9753
4.4564 3.5912 -2.4943 0.9753
4.3245 3.7472 -2.4938 0.9753
4.1871 3.8983 -2.4933 0.9753
3.8968 4.1854 -2.4923 0.9754
3.4245 4.5746 -2.4904 0.9754
2.4450 4.8845 -2.3806 0.9764
2.2275 4.8776 -2.3369 0.9769
1.8733 5.0226 -2.3362 0.9769
1.6926 5.0856 -2.3359 0.9769
0.7624 5.3024 -2.3346 0.9769
0.3821 5.3423 -2.3342 0.9769
0.1912 5.3521 -2.3340 0.9769
0.0000 5.3552 -2.3339 0.9769
-0.5724 5.3237 -2.3335 0.9769
-1.5084 5.1370 -2.3333 0.9769
-1.8710 5.0164 -2.3334 0.9769
-2.0489 4.9465 -2.3334 0.9769
-2.3968 4.7881 -2.3336 0.9769
-2.5662 4.6997 -2.3337 0.9769
-2.7325 4.6054 -2.3338 0.9769
-3.3611 4.1709 -2.3345 0.9769
-3.7366 4.0134 -2.3898 0.9764
-3.9701 3.9701 -2.4469 0.9758
-4.1652 3.8779 -2.4802 0.9755
-4.3052 3.7305 -2.4827 0.9755
-4.4402 3.5781 -2.4852 0.9754
-4.5698 3.4209 -2.4878 0.9754
-4.6896 3.2561 -2.4881 0.9754
-4.8036 3.0871 -2.4885 0.9754
-5.0131 2.7374 -2.4893 0.9754
-5.1085 2.5571 -2.4897 0.9754
-5.1974 2.3736 -2.4901 0.9754
-5.4243 1.8054 -2.4915 0.9754
-5.5415 1.4144 -2.4925 0.9754
-5.6305 1.0159 -2.4935 0.9753
-5.6644 0.8144 -2.4940 0.9753
-5.6910 0.6119 -2.4945 0.9753
-5.7105 0.4084 -2.4951 0.9753
5.4113 0.0000 -2.5048 0.9764
5.4067 0.1931 -2.5043 0.9764
5.3952 0.3859 -2.5037 0.9764
5.3516 0.7694 -2.5027 0.9765
5.3196 0.9598 -2.5021 0.9765
5.2808 1.1488 -2.5016 0.9765
5.2353 1.3362 -2.5010 0.9765
5.1244 1.7056 -2.4999 0.9765
4.9875 2.0659 -2.4989 0.9765
4.9095 2.2421 -2.4983 0.9765
4.8254 2.4154 -2.4978 0.9765
4.7351 2.5855 -2.4973 0.9765
4.6388 2.7523 -2.4967 0.9765
4.5366 2.9155 -2.4962 0.9765
4.1964 3.3817 -2.4947 0.9765
4.0722 3.5286 -2.4942 0.9765
3.9429 3.6710 -2.4937 0.9765
3.8087 3.8087 -2.4932 0.9765
3.2255 4.3088 -2.4914 0.9766
3.0692 4.4204 -2.4910 0.9766
2.9080 4.5250 -2.4898 0.9766
1.4220 4.8430 -2.3364 0.9780
1.2481 4.8901 -2.3361 0.9780
1.0727 4.9310 -2.3359 0.9780
0.7180 4.9940 -2.3354 0.9780
0.1800 5.0410 -2.3349 0.9780
-0.0000 5.0439 -2.3347 0.9780
-0.1800 5.0404 -2.3346 0.9780
-0.7177 4.9916 -2.3343 0.9780
-1.0719 4.9275 -2.3342 0.9780
-1.2471 4.8861 -2.3342 0.9780
-1.4207 4.8384 -2.3342 0.9780
-1.5925 4.7847 -2.3342 0.9780
-2.0950 4.5873 -2.3343 0.9780
-2.2574 4.5098 -2.3344 0.9780
-2.4171 4.4265 -2.3345 0.9780
-2.5771 4.3435 -2.3378 0.9780
-2.7270 4.2433 -2.3348 0.9780
-3.4944 4.0327 -2.4700 0.9768
-3.6523 3.9228 -2.4810 0.9767
-3.9296 3.6586 -2.4852 0.9766
-4.1856 3.3729 -2.4882 0.9766
-4.5239 2.9074 -2.4892 0.9766
-4.7212 2.5780 -2.4900 0.9766
-4.8110 2.4082 -2.4904 0.9766
-4.9722 2.0595 -2.4912 0.9766
-5.1082 1.7002 -2.4920 0.9765
-5.2636 1.1450 -2.4934 0.9765
-5.3340 0.7669 -2.4944 0.9765
-5.3590 0.5762 -2.4949 0.9765
-5.3886 0.1925 -2.4959 0.9765
5.1059 0.0000 -2.5046 0.9775
5.1016 0.1822 -2.5041 0.9775
4.9831 1.0840 -2.5015 0.9775
4.9403 1.2609 -2.5010 0.9775
4.8911 1.4362 -2.5005 0.9775
4.8357 1.6095 -2.5000 0.9775
4.7742 1.7807 -2.4995 0.9776
4.6332 2.1159 -2.4984 0.9776
4.5538 2.2795 -2.4979 0.9776
4.0727 3.0488 -2.4955 0.9776
3.5947 3.5947 -2.4936 0.9776
3.3279 3.8406 -2.4928 0.9776
3.1882 3.9563 -2.4923 0.9776
3.0444 4.0669 -2.4919 0.9776
2.7457 4.2723 -2.4911 0.9776
2.5910 4.3670 -2.4908 0.9776
2.4324 4.4547 -2.4897 0.9776
2.2700 4.5349 -2.4876 0.9777
2.1050 4.6094 -2.4856 0.9777
1.9377 4.6780 -2.4838 0.9777
1.7683 4.7409 -2.4820 0.9777
1.3886 4.7291 -2.4177 0.9783
0.8457 4.6873 -2.3363 0.9790
0.6778 4.7141 -2.3361 0.9790
0.3400 4.7544 -2.3381 0.9790
0.1699 4.7585 -2.3356 0.9790
-0.3396 4.7486 -2.3353 0.9790
-0.5089 4.7333 -2.3352 0.9790
-0.8452 4.6847 -2.3350 0.9790
-1.0119 4.6515 -2.3350 0.9790
-1.1772 4.6123 -2.3350 0.9790
-1.5033 4.5166 -2.3350 0.9790
-1.9776 4.3303 -2.3351 0.9790
-2.1309 4.2571 -2.3352 0.9790
-2.3046 4.2205 -2.3588 0.9788
-3.0304 4.0482 -2.4805 0.9777
-3.3161 3.8269 -2.4839 0.9777
-3.4531 3.7089 -2.4858 0.9777
-3.5862 3.5862 -2.4877 0.9777
-3.8342 3.3224 -2.4886 0.9776
-3.9508 3.1838 -2.4889 0.9776
-4.0624 3.0411 -2.4892 0.9776
-4.1689 2.8945 -2.4895 0.9776
-4.5410 2.2730 -2.4909 0.9776
-4.7602 1.7755 -2.4921 0.9776
-4.8213 1.6047 -2.4925 0.9776
-4.9678 1.0807 -2.4938 0.9776
-5.0041 0.9029 -2.4943 0.9776
-5.0577 0.5438 -2.4952 0.9776
-5.0856 0.1816 -2.4962 0.9776
4.8234 0.1723 -2.5039 0.9785
4.8132 0.3442 -2.5034 0.9785
4.7970 0.5157 -2.5029 0.9785
4.7746 0.6865 -2.5024 0.9785
4.7461 0.8563 -2.5020 0.9785
4.7116 1.0250 -2.5015 0.9785
4.6711 1.1922 -2.5010 0.9785
4.5143 1.6837 -2.4995 0.9785
4.4505 1.8435 -2.4990 0.9785
4.3060 2.1554 -2.4981 0.9785
4.2255 2.3073 -2.4976 0.9785
3.9524 2.7442 -2.4962 0.9786
3.7452 3.0181 -2.4953 0.9786
3.6345 3.1493 -2.4949 0.9786
3.5192 3.2765 -2.4944 0.9786
3.3994 3.3994 -2.4940 0.9786
3.0151 3.7415 -2.4928 0.9786
2.7396 3.9458 -2.4920 0.9786
2.5967 4.0405 -2.4917 0.9786
2.4504 4.1300 -2.4913 0.9786
1.6750 4.4909 -2.4866 0.9786
1.5127 4.5450 -2.4850 0.9786
1.0149 4.6656 -2.4770 0.9787
0.1631 4.5655 -2.3700 0.9796
0.0000 4.5449 -2.3578 0.9797
-0.4821 4.4837 -2.3395 0.9799
-0.6415 4.4621 -2.3386 0.9799
-0.8008 4.4385 -2.3398 0.9799
-0.9600 4.4129 -2.3429 0.9799
-1.1202 4.3888 -2.3498 0.9798
-1.2815 4.3643 -2.3597 0.9797
-1.7754 4.2861 -2.4068 0.9793
-1.9447 4.2583 -2.4286 0.9791
-2.2909 4.1956 -2.4799 0.9787
-2.4404 4.1130 -2.4811 0.9787
-3.0077 3.7323 -2.4867 0.9786
-3.1411 3.6250 -2.4883 0.9786
-3.2687 3.5109 -2.4886 0.9786
-3.5115 3.2693 -2.4890 0.9786
-3.6263 3.1422 -2.4893 0.9786
-3.7366 3.0111 -2.4895 0.9786
-3.9428 2.7375 -2.4901 0.9786
-4.1291 2.4499 -2.4908 0.9786
-4.2145 2.3013 -2.4911 0.9786
-4.2945 2.1497 -2.4915 0.9786
-4.3692 1.9953 -2.4918 0.9786
-4.4383 1.8384 -2.4922 0.9786
-4.5595 1.5175 -2.4930 0.9786
-4.6577 1.1888 -2.4938 0.9786
-4.6979 1.0220 -2.4942 0.9786
-4.7605 0.6845 -2.4951 0.9786
-4.7828 0.5142 -2.4955 0.9786
-4.7990 0.3432 -2.4960 0.9786
-4.8090 0.1718 -2.4964 0.9785
4.5588 0.3260 -2.5032 0.9794
4.5434 0.4885 -2.5028 0.9794
4.5223 0.6502 -2.5023 0.9794
4.4627 0.9708 -2.5014 0.9794
4.3310 1.4415 -2.5000 0.9794
4.2760 1.5949 -2.4996 0.9794
4.0026 2.1856 -2.4978 0.9794
3.9214 2.3266 -2.4973 0.9794
3.8351 2.4647 -2.4969 0.9794
3.3337 3.1038 -2.4948 0.9794
2.9814 3.4408 -2.4936 0.9795
2.5954 3.7381 -2.4925 0.9795
2.4600 3.8278 -2.4921 0.9795
2.3215 3.9127 -2.4918 0.9795
2.1801 3.9925 -2.4915 0.9795
2.0359 4.0673 -2.4912 0.9795
1.7402 4.2011 -2.4906 0.9795
1.5889 4.2601 -2.4903 0.9795
1.4353 4.3124 -2.4893 0.9795
1.1228 4.3991 -2.4866 0.9795
0.6453 4.4881 -2.4834 0.9795
0.3233 4.5197 -2.4818 0.9795
0.1617 4.5272 -2.4811 0.9796
0.0000 4.5229 -2.4772 0.9796
-0.4794 4.4593 -2.4564 0.9798
-0.7965 4.4146 -2.4569 0.9797
-1.2753 4.3431 -2.4792 0.9796
-1.4303 4.2974 -2.4806 0.9796
-1.5831 4.2445 -2.4812 0.9796
-1.7341 4.1864 -2.4818 0.9795
-2.3157 3.9029 -2.4855 0.9795
-2.4547 3.8195 -2.4867 0.9795
-2.5908 3.7314 -2.4880 0.9795
-2.8513 3.5382 -2.4888 0.9795
-3.0969 3.3263 -2.4892 0.9795
-3.2139 3.2139 -2.4894 0.9795
-3.3269 3.0974 -2.4896 0.9795
-3.4357 2.9770 -2.4899 0.9795
-3.5401 2.8528 -2.4901 0.9795
-3.6401 2.7249 -2.4904 0.9795
-3.7354 2.5935 -2.4907 0.9795
-3.8261 2.4589 -2.4910 0.9795
-4.1392 1.8903 -2.4923 0.9795
-4.2647 1.5907 -2.4930 0.9795
-4.3194 1.4376 -2.4934 0.9795
-4.3687 1.2828 -2.4937 0.9794
-4.5097 0.6484 -2.4954 0.9794
-4.5307 0.4871 -2.4958 0.9794
-4.5555 0.1627 -2.4966 0.9794
4.3335 0.1548 -2.5035 0.9802
4.3099 0.4634 -2.5027 0.9802
4.2899 0.6168 -2.5022 0.9802
4.2335 0.9209 -2.5014 0.9802
4.1087 1.3675 -2.5001 0.9802
3.8695 1.9370 -2.4983 0.9802
3.4613 2.5911 -2.4963 0.9802
3.2665 2.8305 -2.4955 0.9802
3.1629 2.9448 -2.4951 0.9802
3.0554 3.0554 -2.4947 0.9802
2.9439 3.1620 -2.4943 0.9802
2.8288 3.2646 -2.4939 0.9802
1.9318 3.8592 -2.4916 0.9803
1.7926 3.9252 -2.4913 0.9803
1.5077 4.0422 -2.4908 0.9803
1.3623 4.0930 -2.4906 0.9803
1.2152 4.1386 -2.4903 0.9803
1.0666 4.1790 -2.4901 0.9803
0.6132 4.2649 -2.4877 0.9803
0.4604 4.2826 -2.4868 0.9803
0.3072 4.2951 -2.4861 0.9803
0.0000 4.3041 -2.4850 0.9803
-0.1536 4.3006 -2.4846 0.9803
-0.4599 4.2778 -2.4840 0.9803
-0.6123 4.2585 -2.4839 0.9803
-0.9146 4.2042 -2.4841 0.9803
-1.0641 4.1692 -2.4843 0.9803
-1.3593 4.0839 -2.4850 0.9803
-1.5045 4.0336 -2.4855 0.9803
-1.9287 3.8531 -2.4877 0.9803
-2.1997 3.7074 -2.4889 0.9803
-2.3307 3.6267 -2.4890 0.9803
-2.7055 3.3573 -2.4894 0.9803
-2.9386 3.1562 -2.4898 0.9803
-3.1568 2.9391 -2.4902 0.9803
-3.3590 2.7069 -2.4907 0.9803
-3.4539 2.5855 -2.4909 0.9803
-3.7117 2.2023 -2.4918 0.9803
-3.7884 2.0686 -2.4921 0.9803
-3.9273 1.7936 -2.4927 0.9803
-4.1449 1.2171 -2.4941 0.9802
-4.1863 1.0685 -2.4945 0.9802
-4.2532 0.7674 -2.4952 0.9802
-4.2786 0.6152 -2.4956 0.9802
-4.2985 0.4621 -2.4960 0.9802
-4.3129 0.3085 -2.4964 0.9802
-4.3219 0.1544 -2.4968 0.9802
