ply
format ascii 1.0
element vertex 1433
property float32 x
property float32 y
property float32 z
property float32 I
end_header
37.6332 14.0365 7.0823 0.8495
31.6717 14.4640 6.1394 0.8681
28.0994 15.3434 5.6452 0.8781
24.5693 15.7897 5.1497 0.8881
20.9860 15.7099 4.6224 0.8990
15.4516 16.5963 3.9983 0.9120
14.5265 16.7645 3.9114 0.9138
13.8347 17.1679 3.8877 0.9143
11.3228 17.6186 3.6929 0.9185
8.8953 17.7706 3.5041 0.9225
8.1921 17.9383 3.4772 0.9230
2.7823 9.4756 1.7413 0.9607
3.9275 18.0543 3.2579 0.9277
3.2723 18.1372 3.2497 0.9279
2.6806 18.6443 3.3213 0.9263
0.9068 25.3896 4.4797 0.9020
-0.0000 19.1835 3.3826 0.9250
-0.6793 19.0192 3.3557 0.9256
-1.3390 18.7211 3.3095 0.9266
-2.7709 19.2721 3.4331 0.9240
-5.0948 19.9612 3.6325 0.9197
-6.5661 19.7279 3.6662 0.9190
-7.2625 19.4715 3.6644 0.9191
-8.1099 19.5789 3.7367 0.9175
-9.2016 20.1486 3.9057 0.9140
-10.1899 20.3568 4.0140 0.9117
-11.1126 20.3513 4.0886 0.9101
-12.9792 20.1960 4.2331 0.9071
-14.3857 20.7194 4.4476 0.9026
-15.6282 20.8768 4.5983 0.8995
-16.9608 21.0470 4.7662 0.8960
-18.0040 20.7778 4.8477 0.8943
-19.4930 20.9370 5.0441 0.8903
-21.6366 21.6366 5.3954 0.8831
-24.8913 21.5685 5.8075 0.8748
37.0798 13.8301 6.0627 0.8520
34.9491 14.4764 5.7951 0.8581
31.6699 14.4632 5.3336 0.8686
23.0493 16.0035 4.2987 0.8927
21.1982 15.8688 4.0566 0.8984
19.1238 16.5709 3.8765 0.9027
18.2519 16.9931 3.8203 0.9040
16.8898 16.8898 3.6592 0.9079
15.1573 23.5852 4.2949 0.8927
10.3973 17.5237 3.1215 0.9209
9.4747 17.3517 3.0286 0.9231
8.2437 18.0511 3.0400 0.9228
9.9018 23.9050 3.9638 0.9006
3.1409 9.4370 1.5237 0.9606
2.7815 9.4728 1.5124 0.9608
3.9273 18.0538 2.8304 0.9280
2.7199 25.2990 3.8980 0.9022
0.9099 25.4777 3.9055 0.9020
-0.0000 19.4207 2.9751 0.9244
-1.3389 18.7206 2.8752 0.9269
-2.0220 18.8071 2.8977 0.9263
-2.7763 19.3095 2.9885 0.9241
-6.6358 25.9989 4.1106 0.8971
-12.1102 26.5177 4.4659 0.8887
-13.6309 27.2311 4.6651 0.8841
-11.2194 20.5468 3.5863 0.9096
-12.1221 20.4308 3.6393 0.9083
-14.3522 20.6711 3.8551 0.9032
-16.9534 21.0379 4.1391 0.8964
-23.4908 21.8707 4.9169 0.8782
-24.9616 21.6294 5.0599 0.8749
-16.5898 11.5185 3.0940 0.9215
22.6205 7.5288 3.1045 0.9083
37.0814 13.8307 5.1537 0.8524
30.0770 15.0555 4.3799 0.8731
24.7666 15.9165 3.8337 0.8880
23.6875 16.4465 3.7552 0.8902
21.1973 15.8681 3.4481 0.8987
19.3238 16.7442 3.3296 0.9020
24.1677 22.5009 4.3000 0.8753
14.5286 16.7669 2.8890 0.9144
13.9585 17.3214 2.8968 0.9142
17.4608 23.3249 3.7942 0.8891
12.3963 17.8541 2.8304 0.9161
15.1561 23.5834 3.6506 0.8931
10.4438 17.6021 2.6653 0.9208
9.4744 17.3511 2.5744 0.9234
8.8662 17.7124 2.5794 0.9232
3.1400 9.4342 1.2948 0.9607
2.7807 9.4701 1.2853 0.9610
3.9272 18.0532 2.4059 0.9282
2.6941 18.7381 2.4652 0.9265
2.7640 25.7091 3.3672 0.9010
0.0000 25.4420 3.3131 0.9025
-0.6810 19.0660 2.4844 0.9259
-2.7798 19.3342 2.5436 0.9242
-4.3259 19.8860 2.6501 0.9212
-6.6356 25.9981 3.4940 0.8974
-5.8717 19.9971 2.7140 0.9194
-7.2620 19.4702 2.7060 0.9196
-8.1093 19.5776 2.7594 0.9181
-12.1945 26.7023 3.8226 0.8883
-13.6293 27.2280 3.9651 0.8844
-11.3324 20.7538 3.0792 0.9090
-12.9782 20.1945 3.1260 0.9077
-22.7320 30.3664 4.9396 0.8581
-17.0940 21.2123 3.5476 0.8959
-21.8094 21.8094 4.0164 0.8830
-25.0260 21.6851 4.3122 0.8750
-21.6235 10.8240 3.1489 0.9071
22.6151 7.5270 2.5594 0.9086
37.1775 13.8665 4.2608 0.8525
35.2510 14.6015 4.0972 0.8577
30.4783 15.2564 3.6599 0.8719
21.1964 15.8674 2.8432 0.8990
20.2240 16.2975 2.7891 0.9008
19.4377 16.8428 2.7618 0.9017
18.2746 17.0143 2.6812 0.9044
15.4499 16.5944 2.4347 0.9128
13.9730 17.3394 2.3913 0.9143
12.4422 17.9202 2.3427 0.9160
11.1192 17.3018 2.2085 0.9206
10.2373 17.2540 2.1543 0.9225
9.4741 17.3506 2.1228 0.9236
8.0905 17.7158 2.0913 0.9246
7.9567 19.2092 2.2327 0.9198
4.6373 18.1689 2.0135 0.9273
3.9271 18.0527 1.9839 0.9284
2.6469 18.4095 1.9972 0.9279
2.7783 25.8417 2.7909 0.9007
0.9265 25.9410 2.7874 0.9008
-0.6727 18.8336 2.0237 0.9270
-1.3388 18.7194 2.0153 0.9273
-2.7459 19.0981 2.0719 0.9253
-3.4593 19.1733 2.0921 0.9246
-5.7087 26.2425 2.8839 0.8976
-6.6354 25.9973 2.8811 0.8977
-5.7054 19.4309 2.1746 0.9218
-6.4977 19.5224 2.2094 0.9206
-12.1941 26.7014 3.1521 0.8886
-13.7438 27.4566 3.2971 0.8838
-12.9777 20.1937 2.5776 0.9079
-22.8065 30.4659 4.0866 0.8580
-17.2110 21.3575 2.9454 0.8955
-23.5370 21.9137 3.4533 0.8786
-25.0691 21.7225 3.5619 0.8751
-21.6195 10.8219 2.5961 0.9073
-31.5103 14.3903 3.7198 0.8699
44.1480 12.9630 3.8950 0.8313
22.6098 7.5253 2.0172 0.9088
31.8043 14.5246 2.9598 0.8690
26.7078 14.5836 2.5760 0.8850
25.8581 15.3423 2.5453 0.8863
25.1036 16.1331 2.5261 0.8871
20.1134 16.2084 2.1867 0.9015
24.7660 23.0580 2.8645 0.8730
14.5307 16.7693 1.8784 0.9148
13.6206 18.1951 1.9240 0.9128
11.1864 17.4065 1.7516 0.9203
10.2369 17.2535 1.6983 0.9226
9.9009 23.9028 2.1902 0.9014
3.1382 9.4288 0.8412 0.9609
2.7791 9.4646 0.8350 0.9612
3.9270 18.0522 1.5639 0.9285
3.2719 18.1351 1.5600 0.9287
2.6588 18.4923 1.5815 0.9277
2.7443 25.5257 2.1733 0.9021
1.8339 25.6410 2.1761 0.9020
0.9199 25.7567 2.1818 0.9017
0.0000 19.5156 1.6521 0.9246
-0.6757 18.9185 1.6025 0.9268
-2.0218 18.8053 1.6011 0.9269
-4.7539 26.3492 2.2665 0.8981
-5.6608 26.0223 2.2544 0.8986
-7.2615 19.4689 1.7590 0.9200
-8.1087 19.5762 1.7937 0.9185
-12.1937 26.7005 2.4848 0.8888
-12.0278 20.2718 1.9954 0.9097
-12.9772 20.1929 2.0319 0.9081
-14.2702 20.5530 2.1181 0.9044
-17.2452 21.4000 2.3266 0.8955
-18.0787 20.8639 2.3370 0.8951
-18.7510 20.1400 2.3294 0.8954
-16.2131 12.1370 1.7144 0.9219
-16.6092 11.5320 1.7117 0.9220
44.1448 12.9621 2.8530 0.8316
22.6045 7.5235 1.4773 0.9089
37.1808 13.8677 2.4607 0.8530
31.8025 14.5238 2.1680 0.8693
30.5244 15.2794 2.1167 0.8721
24.9531 16.0364 1.8393 0.8879
31.5745 21.9226 2.3836 0.8572
20.2048 16.2821 1.6091 0.9012
19.2821 16.7080 1.5821 0.9028
24.4630 22.7759 2.0726 0.8746
15.4488 16.5932 1.4059 0.9131
14.5317 16.7705 1.3760 0.9149
13.7646 17.0808 1.3603 0.9158
13.7172 18.3240 1.4194 0.9123
16.0546 23.1231 1.7456 0.8933
10.2366 17.2529 1.2440 0.9227
9.4735 17.3495 1.2258 0.9238
9.9006 23.9021 1.6043 0.9015
9.0584 24.2866 1.6074 0.9013
2.7783 9.4619 0.6115 0.9612
1.8433 25.7731 1.6023 0.9016
0.9246 25.8894 1.6064 0.9014
-0.0000 19.5152 1.2101 0.9248
-1.3388 18.7183 1.1637 0.9275
-4.8018 26.6145 1.6770 0.8973
-5.7392 19.5460 1.2632 0.9216
-12.1933 26.6996 1.8201 0.8890
-11.3470 20.7804 1.4682 0.9095
-12.0823 20.3637 1.4683 0.9095
-23.1105 30.8720 2.3914 0.8568
-18.7223 20.1091 1.7038 0.8957
-23.2934 21.6869 1.9735 0.8803
-16.6156 11.5364 1.2543 0.9221
-21.6122 10.8183 1.4985 0.9077
44.1415 12.9611 1.8140 0.8318
22.5992 7.5218 0.9392 0.9091
37.1824 13.8683 1.5648 0.8531
36.3415 15.0532 1.5510 0.8543
31.8008 14.5230 1.3785 0.8694
30.6201 15.3274 1.3502 0.8719
24.9558 16.0381 1.1697 0.8880
31.4431 21.8313 1.5094 0.8579
21.1937 15.8654 1.0439 0.8994
19.2845 16.7101 1.0062 0.9029
16.7069 16.7069 0.9316 0.9098
15.4483 16.5926 0.8939 0.9132
14.5327 16.7717 0.8751 0.9150
13.7630 17.0788 0.8649 0.9159
10.2363 17.2524 0.7910 0.9228
8.8669 17.7138 0.7811 0.9238
8.1256 17.7927 0.7713 0.9247
9.9003 23.9014 1.0201 0.9016
9.0575 24.2842 1.0220 0.9014
3.1364 9.4233 0.3916 0.9610
2.7775 9.4592 0.3887 0.9613
3.2717 18.1340 0.7266 0.9289
1.8616 26.0291 1.0290 0.9008
-1.3387 18.7177 0.7399 0.9276
-2.0217 18.8042 0.7457 0.9271
-2.7576 19.1795 0.7640 0.9254
-4.8016 26.6137 1.0663 0.8974
-5.6909 26.1609 1.0557 0.8984
-6.6348 25.9948 1.0579 0.8982
-5.7386 19.5439 0.8032 0.9217
-6.5442 19.6623 0.8171 0.9204
-8.1082 19.5749 0.8355 0.9187
-12.1929 26.6986 1.1574 0.8891
-13.5917 27.1527 1.1973 0.8855
-11.3470 20.7804 0.9336 0.9096
-12.0808 20.3612 0.9335 0.9096
-12.9762 20.1914 0.9464 0.9084
-14.3312 20.6409 0.9908 0.9043
-18.0768 20.8617 1.0885 0.8954
-25.0651 21.7191 1.3077 0.8757
-16.6220 11.5409 0.7979 0.9222
44.1383 12.9602 0.7771 0.8319
22.5940 7.5200 0.4022 0.9091
37.1841 13.8689 0.6704 0.8532
31.7990 14.5222 0.5905 0.8695
30.6231 15.3289 0.5785 0.8720
24.9584 16.0398 0.5011 0.8881
21.1928 15.8648 0.4472 0.8995
19.2869 16.7122 0.4311 0.9029
24.8328 23.1202 0.5731 0.8731
15.4477 16.5920 0.3829 0.9133
13.7613 17.0768 0.3705 0.9160
16.0536 23.1216 0.4755 0.8935
11.1829 17.4009 0.3494 0.9206
10.2360 17.2518 0.3389 0.9229
9.4729 17.3484 0.3339 0.9240
8.8660 17.7119 0.3346 0.9238
8.1248 17.7908 0.3304 0.9247
9.0566 24.2817 0.4378 0.9015
3.1355 9.4206 0.1677 0.9611
4.6566 18.2446 0.3181 0.9274
3.2716 18.1335 0.3113 0.9289
2.7858 25.9113 0.4402 0.9010
0.9246 25.8879 0.4376 0.9016
-0.0000 19.5145 0.3296 0.9249
-0.6755 18.9130 0.3197 0.9271
-1.3387 18.7172 0.3170 0.9277
-4.8015 26.6129 0.4568 0.8975
-6.6346 25.9940 0.4532 0.8982
-5.7380 19.5418 0.3440 0.9218
-8.1079 19.5743 0.3579 0.9187
-13.5901 27.1495 0.5129 0.8856
-11.3470 20.7804 0.3999 0.9096
-12.0794 20.3587 0.3999 0.9096
-12.9757 20.1906 0.4054 0.9084
-17.0378 21.1426 0.4587 0.8971
-23.3959 21.7824 0.5400 0.8800
22.5887 7.5182 -0.1340 0.9092
36.3476 15.0557 -0.2215 0.8544
31.7973 14.5213 -0.1968 0.8695
27.9766 15.2764 -0.1795 0.8803
25.8632 15.3454 -0.1693 0.8867
24.9611 16.0415 -0.1671 0.8881
31.4500 21.8361 -0.2156 0.8580
19.2893 16.7142 -0.1437 0.9029
24.8319 23.1194 -0.1910 0.8731
16.7028 16.7029 -0.1330 0.9098
15.4472 16.5914 -0.1276 0.9133
14.5348 16.7740 -0.1250 0.9150
13.7597 17.0748 -0.1235 0.9160
13.7232 18.3320 -0.1289 0.9125
16.0531 23.1209 -0.1585 0.8935
10.2356 17.2513 -0.1129 0.9229
9.4726 17.3479 -0.1113 0.9240
8.8650 17.7101 -0.1115 0.9238
8.1239 17.7890 -0.1101 0.9248
9.8997 23.8999 -0.1456 0.9017
3.1346 9.4179 -0.0559 0.9611
4.6562 18.2428 -0.1060 0.9275
3.9265 18.0500 -0.1040 0.9288
2.6578 18.4851 -0.1051 0.9280
1.8615 26.0276 -0.1469 0.9009
0.9245 25.8871 -0.1458 0.9016
-0.6754 18.9111 -0.1065 0.9271
-1.3386 18.7166 -0.1056 0.9277
-2.0216 18.8031 -0.1065 0.9271
-5.7374 19.5397 -0.1147 0.9218
-7.2606 19.4664 -0.1170 0.9203
-12.1920 26.6968 -0.1652 0.8892
-13.5885 27.1463 -0.1709 0.8857
-12.9752 20.1898 -0.1351 0.9085
-23.3919 21.7787 -0.1799 0.8800
-25.0625 21.7168 -0.1867 0.8758
-16.6348 11.5497 -0.1140 0.9222
22.5834 7.5165 -0.6702 0.9092
37.1874 13.8702 -1.1176 0.8531
36.3507 15.0570 -1.1079 0.8543
31.7955 14.5205 -0.9843 0.8695
30.6291 15.3319 -0.9645 0.8719
25.8645 15.3461 -0.8468 0.8866
24.9638 16.0433 -0.8356 0.8880
31.4536 21.8386 -1.0782 0.8579
21.1911 15.8634 -0.7454 0.8995
20.1937 16.2731 -0.7303 0.9014
24.8310 23.1185 -0.9553 0.8731
13.7252 18.3347 -0.6449 0.9124
16.0525 23.1201 -0.7925 0.8935
9.4723 17.3473 -0.5565 0.9240
9.8994 23.8992 -0.7284 0.9017
9.0548 24.2768 -0.7296 0.9015
3.1337 9.4152 -0.2794 0.9611
3.9264 18.0495 -0.5201 0.9287
1.8615 26.0268 -0.7347 0.9009
0.9245 25.8864 -0.7294 0.9015
-0.0000 19.5138 -0.5495 0.9249
-0.6754 18.9092 -0.5328 0.9271
-1.3386 18.7161 -0.5283 0.9277
-2.7568 19.1737 -0.5454 0.9254
-4.8012 26.6113 -0.7614 0.8974
-5.6892 26.1528 -0.7536 0.8984
-6.6341 25.9924 -0.7553 0.8982
-5.7368 19.5376 -0.5734 0.9217
-8.1074 19.5729 -0.5966 0.9187
-13.5869 27.1432 -0.8547 0.8856
-11.3470 20.7804 -0.6667 0.9096
-12.9747 20.1891 -0.6758 0.9084
-14.3257 20.6329 -0.7073 0.9044
-18.0739 20.8584 -0.7771 0.8954
-19.5710 21.0207 -0.8087 0.8914
-22.8790 22.8790 -0.9111 0.8786
-23.3880 21.7750 -0.8998 0.8800
-16.1853 12.1162 -0.5693 0.9223
-16.6412 11.5542 -0.5704 0.9221
-21.5973 10.8108 -0.6801 0.9079
47.7458 1.7053 -2.4229 0.8258
44.8404 4.8209 -2.2872 0.8347
26.7730 4.8304 -1.3797 0.8968
44.2254 9.6207 -2.2953 0.8342
43.9088 11.2071 -2.2982 0.8340
22.5782 7.5147 -1.2068 0.9091
36.2937 15.0334 -1.9923 0.8544
27.8850 15.2264 -1.6113 0.8805
25.8658 15.3469 -1.5253 0.8865
24.9666 16.0451 -1.5051 0.8879
21.1902 15.8628 -1.3424 0.8994
20.1909 16.2708 -1.3151 0.9014
19.2942 16.7185 -1.2947 0.9028
24.8300 23.1176 -1.7205 0.8729
14.5368 16.7764 -1.1258 0.9149
13.7565 17.0708 -1.1118 0.9159
16.0520 23.1193 -1.4274 0.8934
11.1793 17.3954 -1.0487 0.9205
9.4720 17.3468 -1.0023 0.9239
8.8632 17.7064 -1.0042 0.9238
8.1223 17.7853 -0.9916 0.9247
9.0539 24.2743 -1.3139 0.9014
4.6553 18.2393 -0.9546 0.9274
3.9263 18.0490 -0.9367 0.9287
2.6572 18.4814 -0.9469 0.9279
0.9245 25.8856 -1.3136 0.9015
0.0000 19.5134 -0.9896 0.9248
-1.3386 18.7155 -0.9516 0.9276
-2.0214 18.8020 -0.9590 0.9271
-2.7565 19.1718 -0.9823 0.9254
-6.5414 19.6538 -1.0505 0.9204
-7.2601 19.4651 -1.0536 0.9202
-12.1912 26.6950 -1.4883 0.8891
-13.5853 27.1400 -1.5392 0.8855
-11.3470 20.7804 -1.2007 0.9095
-14.3238 20.6302 -1.2737 0.9043
-23.3840 21.7712 -1.6203 0.8799
-25.0599 21.7145 -1.6816 0.8756
-21.5932 10.8088 -1.2246 0.9078
33.4135 0.0000 -2.4500 0.8746
33.3778 2.3873 -2.4536 0.8744
33.1978 3.5692 -2.4482 0.8747
31.1570 4.4797 -2.3080 0.8814
26.7742 4.8306 -1.9948 0.8966
10.1227 2.2021 -0.7596 0.9593
23.8737 6.0934 -1.8066 0.9059
29.6490 11.0585 -2.3202 0.8808
28.8395 13.1706 -2.3247 0.8806
27.8804 15.2239 -2.3292 0.8804
25.8671 15.3477 -2.2054 0.8864
21.1893 15.8621 -1.9408 0.8993
23.4181 21.8031 -2.3461 0.8796
14.5379 16.7776 -1.6277 0.9148
13.7549 17.0688 -1.6073 0.9158
16.0515 23.1186 -2.0636 0.8933
9.4717 17.3462 -1.4491 0.9238
8.8623 17.7045 -1.4517 0.9237
8.1214 17.7834 -1.4335 0.9246
3.9262 18.0485 -1.3543 0.9286
3.2713 18.1314 -1.3509 0.9288
-0.6752 18.9055 -1.3871 0.9269
-1.3385 18.7150 -1.3757 0.9275
-2.7562 19.1698 -1.4200 0.9253
-6.6337 25.9908 -1.9668 0.8980
-5.7355 19.5335 -1.4927 0.9216
-7.2599 19.4644 -1.5232 0.9201
-8.1068 19.5716 -1.5533 0.9185
-12.1908 26.6941 -2.1517 0.8890
-13.5536 27.0766 -2.2202 0.8856
-11.2960 20.6871 -1.7282 0.9098
-12.9737 20.1875 -1.7595 0.9082
-19.7826 26.4265 -2.4204 0.8760
-18.0720 20.8562 -2.0234 0.8952
-23.3074 21.6999 -2.3350 0.8801
-25.7108 20.7191 -2.4211 0.8760
-16.6540 11.5631 -1.4866 0.9219
-27.7657 17.8439 -2.4200 0.8760
-32.4185 13.4282 -2.5728 0.8687
-32.8635 12.2575 -2.5718 0.8688
-33.2652 11.0717 -2.5706 0.8688
-33.6229 9.8726 -2.5694 0.8689
-34.2051 7.4409 -2.5666 0.8690
-34.4288 6.2116 -2.5651 0.8691
-34.6073 4.9758 -2.5636 0.8692
-34.7404 3.7350 -2.5619 0.8692
-34.8280 2.4909 -2.5602 0.8693
-34.8702 1.2454 -2.5584 0.8694
25.6453 0.0000 -2.4621 0.9021
25.6433 0.9159 -2.4635 0.9020
25.6091 1.8316 -2.4649 0.9020
25.4441 3.6583 -2.4679 0.9019
9.8886 2.1511 -0.9716 0.9602
23.4379 5.9822 -2.3223 0.9074
21.7354 7.2342 -2.1992 0.9121
21.8502 8.1497 -2.2389 0.9105
21.3382 11.6515 -2.3341 0.9069
20.0169 13.8980 -2.3395 0.9067
19.5235 14.6151 -2.3414 0.9066
19.0045 15.3148 -2.3432 0.9066
18.4605 15.9961 -2.3451 0.9065
13.7116 17.0151 -2.0979 0.9159
11.1439 17.3402 -1.9789 0.9205
9.9754 16.8127 -1.8768 0.9244
8.0961 17.7279 -1.8710 0.9247
9.4445 22.8010 -2.3694 0.9056
8.6311 23.1410 -2.3711 0.9055
2.6486 18.4215 -1.7867 0.9279
2.6531 24.6772 -2.3828 0.9051
1.7717 24.7719 -2.3843 0.9050
0.0000 18.8680 -1.8114 0.9270
-0.6731 18.8452 -1.8104 0.9270
-2.0213 18.8008 -1.8154 0.9268
-2.7474 19.1088 -1.8534 0.9254
-3.4618 19.1874 -1.8718 0.9246
-6.1715 24.1799 -2.3958 0.9046
-6.5194 19.5876 -1.9819 0.9204
-9.0877 19.8994 -2.1002 0.9158
-12.0339 20.2822 -2.2641 0.9096
-14.2753 20.5604 -2.4030 0.9043
-15.0023 20.0407 -2.4034 0.9043
-15.7099 19.4948 -2.4037 0.9043
-18.3277 17.0637 -2.4041 0.9043
-15.3199 13.2748 -1.9461 0.9218
-15.4035 12.4129 -1.8992 0.9236
-15.6053 10.8350 -1.8239 0.9265
-21.5230 12.7702 -2.4026 0.9043
-21.4368 10.7305 -2.3015 0.9082
-22.7490 10.3891 -2.4010 0.9044
-24.5774 10.1803 -2.5540 0.8986
-25.2424 8.4015 -2.5541 0.8986
-26.4542 1.8920 -2.5462 0.8989
20.7907 0.0000 -2.4697 0.9197
20.7869 0.7424 -2.4708 0.9196
10.0486 2.5648 -1.2319 0.9591
18.8111 5.5234 -2.3288 0.9241
18.3901 6.8592 -2.3315 0.9240
17.5829 8.8014 -2.3357 0.9239
17.2682 9.4292 -2.3371 0.9238
16.9311 10.0457 -2.3385 0.9238
16.5722 10.6503 -2.3400 0.9237
16.1917 11.2421 -2.3415 0.9237
14.4642 13.4667 -2.3475 0.9235
13.9834 13.9834 -2.3491 0.9234
13.4842 14.4831 -2.3506 0.9234
12.9671 14.9648 -2.3521 0.9233
11.8819 15.8723 -2.3552 0.9232
11.3151 16.2968 -2.3567 0.9232
10.7331 16.7010 -2.3582 0.9231
9.4711 17.3451 -2.3475 0.9235
8.8323 17.6447 -2.3439 0.9236
8.0952 17.7260 -2.3148 0.9245
6.9638 18.6705 -2.3670 0.9229
3.1301 9.4044 -1.1774 0.9609
2.7819 9.4744 -1.1729 0.9610
4.6393 18.1765 -2.2283 0.9272
3.9260 18.0474 -2.1939 0.9283
3.2711 18.1303 -2.1884 0.9285
2.1385 19.8911 -2.3764 0.9226
1.4279 19.9650 -2.3776 0.9225
0.7148 20.0133 -2.3788 0.9225
-0.6730 18.8433 -2.2397 0.9269
-1.3384 18.7138 -2.2286 0.9272
-2.0212 18.8003 -2.2461 0.9267
-3.4615 19.1855 -2.3158 0.9245
-4.2697 19.6276 -2.3860 0.9223
-5.6630 19.2864 -2.3877 0.9222
-6.3498 19.0780 -2.3884 0.9222
-7.6990 18.5871 -2.3898 0.9222
-8.3597 18.3051 -2.3904 0.9221
-4.4079 8.8059 -1.1697 0.9611
-9.6485 17.6699 -2.3915 0.9221
-10.2750 17.3175 -2.3919 0.9221
-10.8883 16.9426 -2.3923 0.9221
-11.4878 16.5455 -2.3927 0.9221
-12.6415 15.6872 -2.3932 0.9221
-13.1943 15.2271 -2.3933 0.9220
-13.7301 14.7472 -2.3935 0.9220
-14.2481 14.2480 -2.3935 0.9220
-14.7475 13.7304 -2.3935 0.9220
-15.2279 13.1950 -2.3935 0.9220
-15.2905 12.3218 -2.3326 0.9239
-15.4330 10.7153 -2.2318 0.9271
-17.3207 10.2768 -2.3923 0.9221
-17.8232 9.7322 -2.4122 0.9215
-19.1470 9.5843 -2.5434 0.9174
-19.4957 8.9034 -2.5459 0.9173
-19.7965 8.2000 -2.5453 0.9173
-20.3204 6.7633 -2.5440 0.9173
-20.7384 5.2932 -2.5424 0.9174
-20.9071 4.5481 -2.5415 0.9174
-21.0486 3.7976 -2.5406 0.9175
-21.2495 2.2845 -2.5387 0.9175
-21.3087 1.5240 -2.5376 0.9175
-21.3403 0.7622 -2.5365 0.9176
17.4667 0.0000 -2.4748 0.9319
17.3871 1.8693 -2.4778 0.9318
17.3166 2.4898 -2.4788 0.9318
9.9731 2.5455 -1.4584 0.9593
16.8162 4.9377 -2.4833 0.9316
16.6042 5.5264 -2.4795 0.9317
15.6320 5.8304 -2.3639 0.9348
15.2292 6.3081 -2.3356 0.9356
15.0018 6.8511 -2.3368 0.9355
14.7552 7.3859 -2.3380 0.9355
14.4896 7.9119 -2.3392 0.9355
14.2054 8.4285 -2.3404 0.9354
13.9028 8.9348 -2.3416 0.9354
12.8888 10.3864 -2.3454 0.9353
12.1281 11.2917 -2.3479 0.9352
11.7237 11.7238 -2.3492 0.9352
10.4204 12.9309 -2.3530 0.9351
9.9576 13.3018 -2.3543 0.9351
8.9930 13.9934 -2.3569 0.9350
8.4924 14.3131 -2.3581 0.9350
7.9803 14.6149 -2.3594 0.9349
6.3823 15.4082 -2.3631 0.9348
5.8312 15.6341 -2.3643 0.9348
3.1292 9.4017 -1.4040 0.9608
4.1327 16.1917 -2.3677 0.9347
3.5538 16.3366 -2.3689 0.9347
1.7896 16.6455 -2.3721 0.9346
1.1948 16.7059 -2.3731 0.9346
0.5980 16.7449 -2.3741 0.9345
-0.5985 16.7582 -2.3760 0.9345
-1.7938 16.6851 -2.3777 0.9345
-2.3891 16.6159 -2.3786 0.9344
-4.1555 16.2811 -2.3808 0.9344
-5.3093 15.9519 -2.3821 0.9343
-5.8767 15.7561 -2.3827 0.9343
-4.3200 8.6303 -1.3675 0.9618
-8.5893 14.4764 -2.3850 0.9343
-9.1017 14.1626 -2.3854 0.9342
-9.6026 13.8303 -2.3856 0.9342
-10.0911 13.4801 -2.3859 0.9342
-11.9092 11.9092 -2.3864 0.9342
-12.7282 11.0291 -2.3863 0.9342
-13.4813 10.0920 -2.3861 0.9342
-16.2982 7.4431 -2.5387 0.9302
-16.5503 6.8554 -2.5382 0.9302
-16.7809 6.2590 -2.5377 0.9302
-16.9898 5.6547 -2.5371 0.9302
-17.1765 5.0435 -2.5365 0.9302
-17.3410 4.4260 -2.5358 0.9302
-17.6989 2.5447 -2.5335 0.9303
-17.7726 1.9107 -2.5327 0.9303
-17.8234 1.2747 -2.5318 0.9304
15.0410 0.5372 -2.4794 0.9408
15.0174 1.0741 -2.4803 0.9408
14.8326 2.6761 -2.4830 0.9407
9.9900 2.5498 -1.6985 0.9591
14.3234 4.7673 -2.4869 0.9406
14.1500 5.2777 -2.4879 0.9406
13.9395 5.7739 -2.4856 0.9407
13.3729 6.1072 -2.4219 0.9421
12.7137 6.3640 -2.3422 0.9440
12.2248 7.2533 -2.3417 0.9440
11.9635 7.6885 -2.3428 0.9440
10.7674 9.3300 -2.3471 0.9439
10.4324 9.7129 -2.3482 0.9439
10.0838 10.0838 -2.3493 0.9438
9.7220 10.4422 -2.3504 0.9438
9.3475 10.7876 -2.3515 0.9438
6.4100 12.8055 -2.3591 0.9436
5.4850 13.2420 -2.3612 0.9436
3.1283 9.3989 -1.6319 0.9606
2.7854 9.4863 -1.6287 0.9607
2.8440 11.1429 -1.8945 0.9544
3.0531 14.0350 -2.3662 0.9434
2.5513 14.1407 -2.3671 0.9434
1.5372 14.2976 -2.3690 0.9434
0.5136 14.3813 -2.3707 0.9433
0.0000 14.3955 -2.3715 0.9433
-0.5140 14.3911 -2.3723 0.9433
-1.0276 14.3682 -2.3731 0.9433
-1.5403 14.3269 -2.3738 0.9433
-4.0651 13.8445 -2.3770 0.9432
-4.5577 13.6937 -2.3776 0.9432
-4.7481 8.6954 -1.6321 0.9606
-8.6606 11.5692 -2.3808 0.9431
-9.4650 10.9232 -2.3811 0.9431
-10.2207 10.2207 -2.3812 0.9431
-10.9236 9.4654 -2.3811 0.9431
-12.0906 9.0509 -2.4881 0.9406
-12.6301 8.7692 -2.5330 0.9396
-13.5016 7.3724 -2.5342 0.9395
-13.7543 6.8849 -2.5339 0.9395
-14.2060 5.8843 -2.5331 0.9396
-14.4043 5.3725 -2.5326 0.9396
-14.5840 4.8540 -2.5321 0.9396
-14.8866 3.7996 -2.5310 0.9396
-15.0091 3.2650 -2.5304 0.9396
-15.1958 2.1848 -2.5291 0.9397
-15.2598 1.6406 -2.5284 0.9397
-15.3041 1.0946 -2.5276 0.9397
13.2022 0.0000 -2.4815 0.9477
13.0836 1.8812 -2.4845 0.9476
13.0124 2.3477 -2.4853 0.9476
9.9876 2.1727 -1.9212 0.9593
12.8205 3.2722 -2.4870 0.9476
12.7000 3.7290 -2.4879 0.9476
12.5633 4.1815 -2.4888 0.9475
12.4106 4.6289 -2.4897 0.9475
12.0578 5.5066 -2.4915 0.9475
11.8503 5.9318 -2.4909 0.9475
10.8418 6.4327 -2.3695 0.9500
10.4894 6.7411 -2.3436 0.9505
9.7205 7.8333 -2.3465 0.9505
7.8526 9.7444 -2.3523 0.9503
6.3962 10.7803 -2.3561 0.9503
6.0098 11.0061 -2.3570 0.9502
4.2569 8.5042 -1.7875 0.9620
3.9130 8.5682 -1.7705 0.9624
3.2193 8.6314 -1.7315 0.9632
2.6736 12.2905 -2.3642 0.9501
2.2340 12.3824 -2.3650 0.9501
1.7913 12.4585 -2.3658 0.9501
1.3459 12.5187 -2.3666 0.9500
0.8985 12.5628 -2.3673 0.9500
-0.8996 12.5778 -2.3702 0.9500
-2.2407 12.4193 -2.3720 0.9499
-1.8494 8.5014 -1.6353 0.9652
-3.1224 12.2335 -2.3731 0.9499
-3.5578 12.1168 -2.3736 0.9499
-3.9888 11.9845 -2.3741 0.9499
-4.7493 8.6977 -1.8627 0.9605
-7.2117 10.3867 -2.3767 0.9498
-8.2821 9.5581 -2.3772 0.9498
-8.6182 9.2566 -2.3772 0.9498
-9.4001 8.7518 -2.4141 0.9491
-10.4824 8.4473 -2.5304 0.9467
-10.7799 8.0697 -2.5310 0.9467
-11.0604 7.6794 -2.5309 0.9467
-11.3266 7.2792 -2.5307 0.9467
-11.5782 6.8696 -2.5305 0.9467
-11.8148 6.4514 -2.5302 0.9467
-12.6057 4.7017 -2.5288 0.9467
-12.7633 4.2480 -2.5284 0.9467
-12.9044 3.7891 -2.5279 0.9467
-13.0288 3.3254 -2.5274 0.9467
-13.1365 2.8577 -2.5269 0.9468
-13.2271 2.3864 -2.5263 0.9468
-13.3965 0.9581 -2.5244 0.9468
11.7264 0.8387 -2.4851 0.9531
11.6432 1.6740 -2.4864 0.9530
10.0390 2.1839 -2.1717 0.9589
11.4077 2.9116 -2.4887 0.9530
10.8912 4.5113 -2.4919 0.9529
10.7269 4.8988 -2.4927 0.9529
10.3572 5.6554 -2.4944 0.9529
10.1523 6.0236 -2.4953 0.9529
9.9143 6.3715 -2.4911 0.9530
9.4815 6.5832 -2.4399 0.9539
8.9065 6.6673 -2.3517 0.9555
8.6449 6.9665 -2.3469 0.9556
8.3938 7.2733 -2.3477 0.9556
8.1318 7.5710 -2.3486 0.9556
6.9818 8.6639 -2.3520 0.9555
6.3505 9.1465 -2.3537 0.9555
6.0222 9.3707 -2.3546 0.9555
5.3422 9.7834 -2.3562 0.9554
4.2567 8.5039 -2.0102 0.9619
3.9129 8.5680 -1.9910 0.9622
2.8859 8.6708 -1.9317 0.9633
2.2249 8.7172 -1.9017 0.9639
1.8547 10.2801 -2.2081 0.9582
1.5916 11.0699 -2.3640 0.9553
1.1958 11.1230 -2.3647 0.9553
0.7983 11.1618 -2.3654 0.9553
-0.0000 11.1964 -2.3667 0.9553
-0.3997 11.1922 -2.3673 0.9552
-0.7992 11.1736 -2.3679 0.9552
-1.9904 11.0318 -2.3696 0.9552
-1.8354 8.4374 -1.8252 0.9653
-3.1601 10.7623 -2.3710 0.9552
-3.5428 10.6445 -2.3714 0.9552
-4.2946 10.3680 -2.3722 0.9552
-4.6625 10.2096 -2.3725 0.9551
-4.3196 8.6294 -2.0398 0.9613
-4.7502 8.6993 -2.0951 0.9603
-5.7292 9.6560 -2.3733 0.9551
-7.0471 8.7450 -2.3740 0.9551
-7.9838 8.5752 -2.4766 0.9532
-9.0382 7.8317 -2.5280 0.9523
-9.3118 7.5039 -2.5279 0.9523
-9.5733 7.1665 -2.5278 0.9523
-10.0590 6.4645 -2.5275 0.9523
-10.4927 5.7295 -2.5271 0.9523
-11.0412 4.5734 -2.5262 0.9523
-11.1959 4.1758 -2.5258 0.9523
-11.4616 3.3654 -2.5250 0.9523
-11.5724 2.9537 -2.5246 0.9523
-11.7491 2.1198 -2.5236 0.9524
-11.8652 1.2756 -2.5225 0.9524
-11.9005 0.8511 -2.5219 0.9524
10.5759 0.0000 -2.4856 0.9575
10.5229 1.1313 -2.4874 0.9574
10.4207 1.8801 -2.4887 0.9574
10.0647 2.1894 -2.4208 0.9586
10.0583 3.3477 -2.4914 0.9574
9.9353 3.7057 -2.4922 0.9574
9.6514 4.4077 -2.4936 0.9573
9.3181 5.0881 -2.4952 0.9573
8.9371 5.7435 -2.4968 0.9573
8.2580 6.6547 -2.4926 0.9574
7.0688 7.0688 -2.3495 0.9598
6.8142 7.3190 -2.3502 0.9597
6.5508 7.5600 -2.3510 0.9597
5.9987 8.0133 -2.3526 0.9597
5.4153 8.4264 -2.3541 0.9597
4.8034 8.7968 -2.3556 0.9597
3.2214 8.6369 -2.1665 0.9628
2.8858 8.6705 -2.1477 0.9631
2.2298 8.7362 -2.1190 0.9636
1.9075 8.7684 -2.1090 0.9638
1.7844 9.8902 -2.3620 0.9595
1.0749 9.9977 -2.3632 0.9595
0.0000 10.0628 -2.3650 0.9595
-1.0764 10.0120 -2.3666 0.9595
-1.5611 8.6524 -2.0663 0.9645
-1.8324 8.4234 -2.0260 0.9652
-3.1835 9.5649 -2.3692 0.9594
-4.1895 9.1736 -2.3702 0.9594
-5.1477 8.6760 -2.3709 0.9594
-5.4545 8.4874 -2.3711 0.9594
-7.0311 8.1143 -2.5234 0.9568
-7.5980 7.5980 -2.5254 0.9568
-7.8643 7.3219 -2.5254 0.9568
-8.1205 7.0365 -2.5253 0.9568
-8.6013 6.4389 -2.5252 0.9568
-9.0378 5.8083 -2.5249 0.9568
-9.4277 5.1479 -2.5245 0.9568
-9.6046 4.8077 -2.5243 0.9568
-9.7690 4.4614 -2.5240 0.9568
-9.9209 4.1094 -2.5237 0.9568
-10.1861 3.3903 -2.5231 0.9568
-10.3988 2.6541 -2.5223 0.9569
-10.4851 2.2809 -2.5219 0.9569
-10.6173 1.5265 -2.5210 0.9569
-10.7129 0.3826 -2.5194 0.9569
9.6017 0.3429 -2.4876 0.9611
9.5854 0.6856 -2.4882 0.9611
9.2339 2.7113 -2.4918 0.9610
9.1336 3.0400 -2.4924 0.9610
8.4603 4.6197 -2.4958 0.9610
8.1139 5.2145 -2.4973 0.9609
7.9249 5.5024 -2.4980 0.9609
7.7257 5.7834 -2.4987 0.9609
7.5166 6.0573 -2.4995 0.9609
7.0611 6.5741 -2.4980 0.9609
6.8142 6.8142 -2.4951 0.9610
6.4479 6.9255 -2.4500 0.9617
5.4445 7.2731 -2.3523 0.9632
5.1830 7.4650 -2.3530 0.9631
4.6400 7.8203 -2.3544 0.9631
4.3592 7.9832 -2.3551 0.9631
3.1787 8.5224 -2.3551 0.9631
2.8476 8.5556 -2.3347 0.9634
1.8822 8.6522 -2.2926 0.9641
1.6189 8.9732 -2.3608 0.9630
0.3258 9.1209 -2.3631 0.9630
0.0000 9.1287 -2.3636 0.9630
-0.3259 9.1249 -2.3641 0.9630
-0.9764 9.0820 -2.3650 0.9630
-1.3002 9.0431 -2.3655 0.9630
-1.5556 8.6219 -2.2684 0.9644
-2.2606 8.8569 -2.3667 0.9629
-2.5757 8.7719 -2.3671 0.9629
-3.1958 8.5682 -2.3677 0.9629
-3.5000 8.4497 -2.3680 0.9629
-3.7998 8.3204 -2.3683 0.9629
-4.4655 8.1779 -2.4125 0.9622
-4.8736 8.2140 -2.4729 0.9613
-5.2540 8.1754 -2.5162 0.9606
-6.1144 7.5875 -2.5230 0.9605
-6.3815 7.3646 -2.5231 0.9605
-6.6404 7.1323 -2.5232 0.9605
-7.5877 6.1146 -2.5231 0.9605
-7.8009 5.8397 -2.5230 0.9605
-8.0040 5.5573 -2.5229 0.9605
-8.1968 5.2678 -2.5228 0.9605
-8.3791 4.9716 -2.5226 0.9605
-8.9981 3.7272 -2.5217 0.9606
-9.1244 3.4032 -2.5214 0.9606
-9.2389 3.0750 -2.5211 0.9606
-9.3415 2.7429 -2.5208 0.9606
-9.4321 2.4074 -2.5204 0.9606
-9.6723 1.0399 -2.5188 0.9606
8.7861 0.3138 -2.4889 0.9641
8.7448 0.9402 -2.4899 0.9641
8.5295 2.1770 -2.4921 0.9641
8.2538 3.0785 -2.4938 0.9640
8.1407 3.3720 -2.4945 0.9640
7.8834 3.9461 -2.4957 0.9640
7.7395 4.2261 -2.4964 0.9640
7.2492 5.0332 -2.4983 0.9640
7.0668 5.2901 -2.4990 0.9640
6.8753 5.5405 -2.4997 0.9640
6.2488 6.2488 -2.5017 0.9639
6.0234 6.4696 -2.5024 0.9639
5.7849 6.6761 -2.5008 0.9639
5.5381 6.8723 -2.4986 0.9640
4.5897 7.1418 -2.4033 0.9653
3.9862 7.3001 -2.3546 0.9660
3.1855 7.6904 -2.3565 0.9660
2.9097 7.8011 -2.3571 0.9660
2.0606 8.0734 -2.3588 0.9660
1.1866 8.2531 -2.3604 0.9659
0.0000 8.3450 -2.3624 0.9659
-0.2979 8.3413 -2.3629 0.9659
-0.5956 8.3269 -2.3633 0.9659
-0.8925 8.3019 -2.3637 0.9659
-1.1885 8.2662 -2.3642 0.9659
-1.4830 8.2198 -2.3645 0.9659
-1.7757 8.1629 -2.3649 0.9659
-3.6848 8.0685 -2.5111 0.9638
-3.9770 7.9451 -2.5152 0.9637
-5.0788 7.3149 -2.5210 0.9637
-5.3369 7.1293 -2.5211 0.9637
-6.2979 6.2979 -2.5214 0.9637
-6.5186 6.0691 -2.5214 0.9637
-7.1296 5.3372 -2.5212 0.9637
-7.6582 4.5438 -2.5209 0.9637
-7.9617 3.9853 -2.5205 0.9637
-8.0982 3.6983 -2.5203 0.9637
-8.4444 2.8106 -2.5195 0.9637
-8.5383 2.5071 -2.5192 0.9637
-8.6212 2.2004 -2.5189 0.9637
-8.8031 1.2657 -2.5177 0.9637
-8.8413 0.9505 -2.5173 0.9637
8.0938 0.0000 -2.4895 0.9667
8.0760 0.5776 -2.4904 0.9667
8.0518 0.8657 -2.4908 0.9667
8.0173 1.1527 -2.4913 0.9667
7.9179 1.7224 -2.4923 0.9667
7.8530 2.0044 -2.4928 0.9667
7.6933 2.5606 -2.4939 0.9666
7.5988 2.8342 -2.4945 0.9666
7.3806 3.3706 -2.4956 0.9666
7.2573 3.6327 -2.4962 0.9666
6.9830 4.1432 -2.4974 0.9666
6.8323 4.3909 -2.4980 0.9666
6.6729 4.6331 -2.4986 0.9666
6.5049 4.8695 -2.4993 0.9666
6.3285 5.0998 -2.4999 0.9666
6.1440 5.3238 -2.5005 0.9666
5.9515 5.5411 -2.5011 0.9665
5.3291 6.1501 -2.5030 0.9665
4.6439 6.6885 -2.5045 0.9665
4.3994 6.8456 -2.5029 0.9665
4.1499 6.9943 -2.5015 0.9665
3.3203 7.2705 -2.4584 0.9671
3.0271 7.3081 -2.4330 0.9674
2.7394 7.3445 -2.4110 0.9677
2.1769 7.4140 -2.3767 0.9682
1.9012 7.4487 -2.3645 0.9683
0.8202 7.6291 -2.3601 0.9684
0.5475 7.6550 -2.3605 0.9684
0.2740 7.6711 -2.3610 0.9684
-0.2749 7.6984 -2.3694 0.9683
-0.5527 7.7281 -2.3831 0.9681
-1.1196 7.7872 -2.4198 0.9676
-1.7068 7.8462 -2.4697 0.9670
-2.0102 7.8758 -2.5001 0.9666
-3.9250 7.1880 -2.5190 0.9663
-4.4283 6.8906 -2.5193 0.9663
-4.6717 6.7285 -2.5195 0.9663
-5.3648 6.1913 -2.5198 0.9663
-5.5825 5.9960 -2.5198 0.9663
-5.7930 5.7930 -2.5198 0.9663
-6.1914 5.3649 -2.5198 0.9663
-6.3788 5.1404 -2.5198 0.9663
-6.8910 4.4286 -2.5195 0.9663
-7.0443 4.1796 -2.5194 0.9663
-7.4492 3.4019 -2.5188 0.9663
-7.5652 3.1336 -2.5186 0.9663
-7.6715 2.8613 -2.5184 0.9663
-7.7679 2.5854 -2.5181 0.9663
-7.9969 1.7396 -2.5172 0.9663
-8.0983 1.1644 -2.5165 0.9663
-8.1335 0.8744 -2.5161 0.9663
-8.1582 0.5835 -2.5157 0.9664
-8.1725 0.2919 -2.5153 0.9664
7.4885 0.2675 -2.4908 0.9689
7.3795 1.3314 -2.4926 0.9689
7.3286 1.5942 -2.4931 0.9689
7.2685 1.8552 -2.4935 0.9689
7.1991 2.1138 -2.4940 0.9689
7.1205 2.3699 -2.4945 0.9689
6.9362 2.8731 -2.4956 0.9688
6.7164 3.3620 -2.4967 0.9688
6.3228 4.0634 -2.4983 0.9688
6.1751 4.2875 -2.4989 0.9688
5.5072 5.1274 -2.5012 0.9688
5.3219 5.3219 -2.5018 0.9688
4.7258 5.8644 -2.5035 0.9688
4.5145 6.0307 -2.5041 0.9687
4.2974 6.1894 -2.5047 0.9687
4.0747 6.3403 -2.5053 0.9687
3.8466 6.4832 -2.5058 0.9687
3.3759 6.7441 -2.5069 0.9687
3.1331 6.8605 -2.5070 0.9687
2.3800 7.1507 -2.5051 0.9687
2.1230 7.2302 -2.5048 0.9687
1.0725 7.4592 -2.5050 0.9687
-0.2693 7.5414 -2.5084 0.9687
-0.5386 7.5304 -2.5095 0.9687
-1.0755 7.4806 -2.5122 0.9686
-1.8719 7.3340 -2.5160 0.9686
-2.1327 7.2634 -2.5163 0.9686
-2.3909 7.1835 -2.5166 0.9686
-2.6460 7.0943 -2.5169 0.9686
-2.8978 6.9960 -2.5171 0.9686
-3.3901 6.7726 -2.5175 0.9686
-3.6300 6.6478 -2.5177 0.9686
-4.0955 6.3727 -2.5181 0.9686
-4.3205 6.2228 -2.5182 0.9686
-5.1628 5.5452 -2.5185 0.9686
-5.7260 4.9616 -2.5185 0.9686
-5.8993 4.7540 -2.5184 0.9686
-6.0651 4.5403 -2.5184 0.9686
-6.2231 4.3207 -2.5183 0.9686
-6.5148 3.8654 -2.5181 0.9686
-6.8894 3.1463 -2.5176 0.9686
-7.3963 1.6090 -2.5161 0.9686
-7.4480 1.3438 -2.5157 0.9686
-7.4902 1.0769 -2.5154 0.9686
-7.5229 0.8088 -2.5151 0.9686
6.9664 0.0000 -2.4912 0.9708
6.9630 0.2487 -2.4916 0.9708
6.9508 0.4971 -2.4920 0.9708
6.9297 0.7450 -2.4924 0.9708
6.8999 0.9921 -2.4928 0.9708
6.5385 2.4387 -2.4956 0.9708
6.4485 2.6711 -2.4960 0.9708
6.3503 2.9001 -2.4965 0.9708
6.1298 3.3471 -2.4976 0.9708
5.7405 3.9857 -2.4991 0.9707
4.5833 5.2895 -2.5029 0.9707
4.3926 5.4509 -2.5034 0.9707
3.3585 6.1507 -2.5061 0.9707
3.1375 6.2680 -2.5066 0.9707
2.9124 6.3773 -2.5071 0.9707
2.6835 6.4785 -2.5076 0.9707
1.9767 6.7322 -2.5091 0.9706
-1.4948 6.8714 -2.5147 0.9706
-1.7393 6.8145 -2.5150 0.9706
-1.9816 6.7488 -2.5153 0.9706
-2.4585 6.5916 -2.5158 0.9706
-2.6925 6.5002 -2.5161 0.9706
-3.1498 6.2926 -2.5165 0.9705
-3.3727 6.1766 -2.5166 0.9705
-4.0142 5.7816 -2.5170 0.9705
-4.6097 5.3199 -2.5173 0.9705
-4.9776 4.9776 -2.5173 0.9705
-5.4810 4.4169 -2.5173 0.9705
-5.6351 4.2184 -2.5172 0.9705
-6.0530 3.5914 -2.5169 0.9705
-6.1770 3.3729 -2.5168 0.9705
-6.2931 3.1501 -2.5166 0.9705
-6.4011 2.9233 -2.5165 0.9705
-6.5922 2.4588 -2.5161 0.9706
-6.7496 1.9819 -2.5156 0.9706
-6.8153 1.7395 -2.5153 0.9706
-6.8723 1.4950 -2.5151 0.9706
-7.0116 0.5015 -2.5138 0.9706
-7.0240 0.2509 -2.5134 0.9706
6.5027 0.0000 -2.4919 0.9725
6.4683 0.6954 -2.4930 0.9725
6.4403 0.9260 -2.4934 0.9725
6.4042 1.1555 -2.4938 0.9725
6.3599 1.3835 -2.4942 0.9725
6.2472 1.8343 -2.4951 0.9725
6.1026 2.2761 -2.4960 0.9725
6.0185 2.4930 -2.4964 0.9725
5.8275 2.9171 -2.4974 0.9725
5.7208 3.1238 -2.4979 0.9725
5.4855 3.5253 -2.4988 0.9725
5.3572 3.7196 -2.4993 0.9724
5.2221 3.9092 -2.4998 0.9724
5.0803 4.0939 -2.5003 0.9724
4.6163 4.6163 -2.5018 0.9724
4.4495 4.7791 -2.5023 0.9724
4.0989 5.0864 -2.5033 0.9724
3.9155 5.2305 -2.5038 0.9724
3.7271 5.3680 -2.5043 0.9724
3.1337 5.7390 -2.5058 0.9724
2.7174 5.9503 -2.5068 0.9724
2.2868 6.1313 -2.5077 0.9724
1.8443 6.2811 -2.5086 0.9723
1.6192 6.3440 -2.5091 0.9723
0.9323 6.4841 -2.5104 0.9723
0.4675 6.5362 -2.5112 0.9723
0.0000 6.5548 -2.5119 0.9723
-0.2340 6.5516 -2.5123 0.9723
-0.4677 6.5400 -2.5126 0.9723
-0.9334 6.4916 -2.5133 0.9723
-1.1646 6.4550 -2.5136 0.9723
-1.3944 6.4100 -2.5139 0.9723
-1.6225 6.3569 -2.5142 0.9723
-1.8485 6.2956 -2.5144 0.9723
-2.0723 6.2262 -2.5147 0.9723
-2.2934 6.1488 -2.5149 0.9723
-2.5116 6.0636 -2.5151 0.9723
-2.7266 5.9705 -2.5153 0.9723
-3.3499 5.6459 -2.5158 0.9723
-3.9347 5.2562 -2.5161 0.9723
-4.1199 5.1125 -2.5162 0.9723
-4.4743 4.8058 -2.5163 0.9723
-4.8058 4.4744 -2.5163 0.9723
-5.3933 3.7446 -2.5161 0.9723
-5.6462 3.3501 -2.5159 0.9723
-5.9710 2.7269 -2.5155 0.9723
-6.0641 2.5118 -2.5153 0.9723
-6.4558 1.1648 -2.5139 0.9723
-6.4925 0.9335 -2.5136 0.9723
6.0903 0.0000 -2.4926 0.9740
6.0872 0.2174 -2.4929 0.9740
6.0316 0.8672 -2.4940 0.9740
5.9977 1.0821 -2.4944 0.9740
5.9562 1.2957 -2.4947 0.9740
5.9071 1.5077 -2.4951 0.9740
5.6362 2.3346 -2.4968 0.9740
5.5502 2.5347 -2.4972 0.9740
5.4572 2.7317 -2.4977 0.9740
5.3572 2.9252 -2.4981 0.9740
5.0165 3.4830 -2.4995 0.9740
4.8899 3.6605 -2.5000 0.9739
4.6180 4.0016 -2.5009 0.9739
4.4731 4.1646 -2.5014 0.9739
4.3224 4.3224 -2.5018 0.9739
4.0046 4.6215 -2.5028 0.9739
3.6661 4.8973 -2.5037 0.9739
3.4896 5.0260 -2.5042 0.9739
2.9340 5.3732 -2.5056 0.9739
2.7408 5.4754 -2.5060 0.9739
2.3440 5.6590 -2.5069 0.9739
1.9350 5.8139 -2.5078 0.9739
1.5159 5.9391 -2.5086 0.9739
1.3031 5.9904 -2.5091 0.9739
0.8727 6.0700 -2.5098 0.9738
0.6556 6.0982 -2.5102 0.9738
0.2190 6.1312 -2.5110 0.9738
-0.2190 6.1329 -2.5116 0.9738
-0.4379 6.1220 -2.5120 0.9738
-1.0901 6.0422 -2.5129 0.9738
-1.3052 6.0001 -2.5131 0.9738
-1.9397 5.8279 -2.5139 0.9738
-3.5048 5.0479 -2.5151 0.9738
-3.6829 4.9198 -2.5152 0.9738
-3.8563 4.7853 -2.5153 0.9738
-4.0247 4.6447 -2.5153 0.9738
-4.1880 4.4982 -2.5154 0.9738
-4.3459 4.3459 -2.5154 0.9738
-4.6448 4.0247 -2.5154 0.9738
-4.7854 3.8563 -2.5154 0.9738
-4.9199 3.6830 -2.5153 0.9738
-5.0481 3.5050 -2.5152 0.9738
-5.1698 3.3224 -2.5152 0.9738
-5.2849 3.1357 -2.5150 0.9738
-5.4946 2.7504 -2.5148 0.9738
-5.6761 2.3511 -2.5145 0.9738
-5.9510 1.5189 -2.5137 0.9738
-6.0430 1.0903 -2.5132 0.9738
-6.1228 0.4379 -2.5123 0.9738
-6.1338 0.2191 -2.5120 0.9738
5.7178 0.2042 -2.4935 0.9753
5.7076 0.4082 -2.4938 0.9753
5.6901 0.6118 -2.4941 0.9753
5.6654 0.8146 -2.4945 0.9753
5.5945 1.2170 -2.4952 0.9753
5.5483 1.4161 -2.4956 0.9753
5.4951 1.6135 -2.4959 0.9753
5.4348 1.8089 -2.4963 0.9753
5.3676 2.0020 -2.4967 0.9753
5.2936 2.1927 -2.4971 0.9753
5.1254 2.5656 -2.4979 0.9753
5.0314 2.7473 -2.4984 0.9753
4.8242 3.1003 -2.4992 0.9753
4.7113 3.2711 -2.4997 0.9753
4.4675 3.6001 -2.5005 0.9753
4.0592 4.0592 -2.5019 0.9753
3.6040 4.4723 -2.5032 0.9752
2.9329 4.9431 -2.5049 0.9752
2.5736 5.1415 -2.5058 0.9752
2.3889 5.2310 -2.5062 0.9752
2.2010 5.3138 -2.5066 0.9752
2.0103 5.3898 -2.5070 0.9752
1.8169 5.4590 -2.5075 0.9752
0.6156 5.7257 -2.5097 0.9752
0.4109 5.7448 -2.5101 0.9752
-0.2057 5.7581 -2.5111 0.9752
-0.4111 5.7478 -2.5114 0.9752
-0.6161 5.7301 -2.5117 0.9752
-1.2254 5.6332 -2.5125 0.9752
-1.4258 5.5864 -2.5127 0.9752
-1.6245 5.5325 -2.5129 0.9752
-2.5819 5.1580 -2.5139 0.9751
-2.9436 4.9612 -2.5141 0.9751
-3.1190 4.8532 -2.5142 0.9751
-3.2903 4.7390 -2.5143 0.9751
-3.4575 4.6187 -2.5144 0.9751
-3.9316 4.2229 -2.5146 0.9751
-4.2229 3.9317 -2.5146 0.9751
-4.6188 3.4576 -2.5145 0.9751
-4.8534 3.1191 -2.5144 0.9751
-4.9615 2.9438 -2.5143 0.9751
-5.0632 2.7647 -2.5141 0.9751
-5.1584 2.5821 -2.5140 0.9751
-5.3288 2.2073 -2.5137 0.9751
-5.4038 2.0155 -2.5136 0.9751
-5.4719 1.8212 -2.5134 0.9752
-5.5330 1.6246 -2.5132 0.9752
-5.6338 1.2256 -2.5127 0.9752
-5.7588 0.2057 -2.5114 0.9752
5.3873 0.0000 -2.4937 0.9765
5.3845 0.1923 -2.4940 0.9765
5.3584 0.5761 -2.4946 0.9765
5.3351 0.7671 -2.4949 0.9765
5.2247 1.3335 -2.4959 0.9765
5.0544 1.8852 -2.4970 0.9765
4.9085 2.2417 -2.4978 0.9765
4.8261 2.4158 -2.4982 0.9765
4.7376 2.5869 -2.4986 0.9765
4.6430 2.7548 -2.4990 0.9765
4.4361 3.0800 -2.4998 0.9765
4.0834 3.5383 -2.5010 0.9765
3.9552 3.6824 -2.5014 0.9765
3.6836 3.9565 -2.5023 0.9765
3.5407 4.0862 -2.5027 0.9765
2.9250 4.5515 -2.5044 0.9764
2.7612 4.6537 -2.5048 0.9764
2.5937 4.7501 -2.5052 0.9764
2.4229 4.8404 -2.5056 0.9764
1.8925 5.0741 -2.5068 0.9764
1.5262 5.1977 -2.5075 0.9764
1.3399 5.2496 -2.5079 0.9764
0.9622 5.3334 -2.5086 0.9764
0.7714 5.3651 -2.5089 0.9764
0.5795 5.3899 -2.5093 0.9764
0.3868 5.4079 -2.5096 0.9764
0.1935 5.4189 -2.5099 0.9764
0.0000 5.4230 -2.5102 0.9764
-0.3870 5.4105 -2.5108 0.9764
-1.3421 5.2584 -2.5121 0.9764
-1.5291 5.2076 -2.5123 0.9764
-2.2553 4.9384 -2.5130 0.9764
-2.7707 4.6698 -2.5134 0.9764
-2.9358 4.5681 -2.5135 0.9763
-3.0970 4.4606 -2.5136 0.9763
-3.2544 4.3473 -2.5137 0.9763
-3.8402 3.8402 -2.5139 0.9763
-3.9748 3.7007 -2.5139 0.9763
-4.1043 3.5564 -2.5138 0.9763
-4.6700 2.7709 -2.5135 0.9763
-4.7657 2.6023 -2.5134 0.9764
-4.8554 2.4304 -2.5133 0.9764
-5.0158 2.0776 -2.5130 0.9764
-5.1506 1.7143 -2.5127 0.9764
-5.2081 1.5292 -2.5125 0.9764
-5.2589 1.3423 -2.5123 0.9764
-5.3030 1.1536 -2.5121 0.9764
-5.3403 0.9635 -2.5119 0.9764
-5.3944 0.5800 -2.5114 0.9764
-5.4111 0.3870 -2.5111 0.9764
-5.4209 0.1936 -2.5108 0.9764
5.0847 0.0000 -2.4942 0.9776
5.0820 0.1815 -2.4944 0.9776
5.0729 0.3628 -2.4947 0.9776
5.0573 0.5437 -2.4950 0.9776
5.0353 0.7240 -2.4953 0.9776
5.0069 0.9033 -2.4956 0.9776
4.9721 1.0816 -2.4960 0.9776
4.8836 1.4339 -2.4966 0.9776
4.8299 1.6076 -2.4970 0.9776
4.7701 1.7792 -2.4973 0.9776
4.5546 2.2799 -2.4984 0.9776
4.4710 2.4414 -2.4988 0.9776
4.3817 2.5998 -2.4992 0.9776
4.2867 2.7549 -2.4995 0.9776
3.4761 3.7336 -2.5023 0.9775
3.3411 3.8559 -2.5027 0.9775
3.2019 3.9733 -2.5031 0.9775
2.9112 4.1929 -2.5038 0.9775
1.6139 4.8490 -2.5069 0.9775
1.0868 4.9959 -2.5079 0.9775
0.9079 5.0321 -2.5082 0.9775
0.5467 5.0854 -2.5089 0.9775
0.0000 5.1165 -2.5098 0.9775
-0.3651 5.1046 -2.5103 0.9775
-0.7285 5.0666 -2.5108 0.9775
-0.9089 5.0378 -2.5111 0.9775
-1.0883 5.0026 -2.5113 0.9774
-1.2662 4.9610 -2.5115 0.9774
-1.6172 4.8588 -2.5119 0.9774
-1.7897 4.7984 -2.5121 0.9774
-1.9599 4.7317 -2.5123 0.9774
-2.4549 4.4959 -2.5127 0.9774
-2.6139 4.4056 -2.5128 0.9774
-2.7696 4.3096 -2.5129 0.9774
-3.0702 4.1013 -2.5130 0.9774
-3.2147 3.9892 -2.5131 0.9774
-3.4912 3.7498 -2.5132 0.9774
-3.6228 3.6229 -2.5132 0.9774
-4.1014 3.0703 -2.5131 0.9774
-4.2083 2.9219 -2.5130 0.9774
-4.3098 2.7697 -2.5130 0.9774
-4.4058 2.6141 -2.5129 0.9774
-4.4961 2.4550 -2.5128 0.9774
-4.9615 1.2663 -2.5117 0.9774
-5.0671 0.7285 -2.5111 0.9775
-5.0894 0.5472 -2.5109 0.9775
4.8086 0.0000 -2.4946 0.9786
4.8060 0.1717 -2.4949 0.9786
4.7974 0.3431 -2.4951 0.9786
4.7826 0.5142 -2.4954 0.9786
4.7019 1.0228 -2.4963 0.9786
4.6630 1.1902 -2.4966 0.9785
4.6181 1.3560 -2.4969 0.9785
4.4485 1.8426 -2.4979 0.9785
4.3805 2.0005 -2.4983 0.9785
4.3069 2.1559 -2.4986 0.9785
4.2278 2.3085 -2.4990 0.9785
4.1433 2.4583 -2.4993 0.9785
4.0535 2.6050 -2.4997 0.9785
3.8584 2.8884 -2.5004 0.9785
3.7534 3.0247 -2.5008 0.9785
3.6436 3.1572 -2.5011 0.9785
3.5291 3.2858 -2.5015 0.9785
3.4101 3.4101 -2.5019 0.9785
2.7525 3.9644 -2.5037 0.9785
2.6096 4.0607 -2.5041 0.9785
2.4634 4.1518 -2.5045 0.9785
2.1616 4.3182 -2.5052 0.9785
2.0063 4.3933 -2.5056 0.9785
1.6883 4.5265 -2.5063 0.9785
1.0275 4.7232 -2.5076 0.9785
0.5169 4.8077 -2.5085 0.9784
0.3450 4.8236 -2.5088 0.9784
0.0000 4.8370 -2.5094 0.9784
-0.1727 4.8345 -2.5096 0.9784
-0.5172 4.8108 -2.5101 0.9784
-1.3637 4.6445 -2.5112 0.9784
-1.8528 4.4730 -2.5117 0.9784
-2.1674 4.3299 -2.5120 0.9784
-2.3207 4.2500 -2.5121 0.9784
-2.4710 4.1646 -2.5122 0.9784
-2.6182 4.0739 -2.5123 0.9784
-2.7620 3.9780 -2.5124 0.9784
-2.9023 3.8770 -2.5124 0.9784
-3.0389 3.7710 -2.5125 0.9784
-3.3003 3.5447 -2.5126 0.9784
-3.4247 3.4247 -2.5126 0.9784
-3.8771 2.9024 -2.5125 0.9784
-4.0741 2.6183 -2.5124 0.9784
-4.4045 2.0115 -2.5120 0.9784
-4.6449 1.3639 -2.5114 0.9784
-4.6903 1.1971 -2.5112 0.9784
-4.7296 1.0289 -2.5110 0.9784
-4.7630 0.8593 -2.5108 0.9784
-4.8113 0.5173 -2.5104 0.9784
-4.8350 0.1727 -2.5099 0.9784
4.5554 0.0000 -2.4950 0.9794
4.5529 0.1626 -2.4952 0.9794
4.5447 0.3250 -2.4955 0.9794
4.5307 0.4871 -2.4958 0.9794
4.4172 1.1274 -2.4969 0.9794
4.3747 1.2845 -2.4972 0.9794
4.3266 1.4400 -2.4975 0.9794
4.2139 1.7455 -2.4981 0.9794
4.1495 1.8950 -2.4985 0.9794
4.0048 2.1868 -2.4991 0.9794
3.7496 2.6034 -2.5002 0.9794
3.6548 2.7360 -2.5005 0.9794
3.2301 3.2301 -2.5019 0.9794
2.7390 3.6589 -2.5033 0.9794
2.4717 3.8461 -2.5040 0.9794
1.9002 4.1610 -2.5054 0.9794
1.7508 4.2267 -2.5057 0.9794
1.5990 4.2870 -2.5060 0.9793
1.4451 4.3419 -2.5064 0.9793
1.2894 4.3913 -2.5067 0.9793
1.1320 4.4351 -2.5070 0.9793
0.8129 4.5056 -2.5076 0.9793
0.4895 4.5532 -2.5082 0.9793
0.3267 4.5683 -2.5084 0.9793
0.0000 4.5809 -2.5090 0.9793
-0.1635 4.5784 -2.5092 0.9793
-0.3269 4.5701 -2.5095 0.9793
-0.4898 4.5560 -2.5097 0.9793
-0.6522 4.5360 -2.5099 0.9793
-0.9743 4.4787 -2.5103 0.9793
-1.1336 4.4414 -2.5105 0.9793
-1.2915 4.3984 -2.5107 0.9793
-1.6022 4.2956 -2.5110 0.9793
-1.7546 4.2359 -2.5112 0.9793
-1.9048 4.1708 -2.5113 0.9793
-2.0525 4.1004 -2.5115 0.9793
-2.3400 3.9439 -2.5117 0.9793
-2.4794 3.8580 -2.5118 0.9793
-2.6156 3.7671 -2.5118 0.9793
-2.7484 3.6715 -2.5119 0.9793
-3.4662 3.0035 -2.5120 0.9793
-3.6715 2.7485 -2.5120 0.9793
-3.7672 2.6156 -2.5119 0.9793
-3.8581 2.4794 -2.5118 0.9793
-4.0249 2.1978 -2.5117 0.9793
-4.2362 1.7547 -2.5113 0.9793
-4.2959 1.6023 -2.5112 0.9793
-4.3501 1.4479 -2.5111 0.9793
-4.4417 1.1337 -2.5107 0.9793
-4.4790 0.9744 -2.5105 0.9793
-4.5106 0.8138 -2.5104 0.9793
-4.5564 0.4899 -2.5099 0.9793
-4.5706 0.3269 -2.5097 0.9793
-4.5789 0.1635 -2.5095 0.9793
4.3197 0.1543 -2.4956 0.9802
4.3119 0.3084 -2.4958 0.9802
4.2555 0.7678 -2.4966 0.9802
4.2259 0.9193 -2.4969 0.9802
4.1909 1.0697 -2.4972 0.9802
4.1505 1.2187 -2.4974 0.9802
4.1048 1.3662 -2.4977 0.9802
4.0539 1.5120 -2.4980 0.9802
3.7234 2.2092 -2.4996 0.9802
3.6426 2.3410 -2.4999 0.9802
3.4673 2.5956 -2.5006 0.9802
3.3728 2.7180 -2.5009 0.9802
3.0642 3.0642 -2.5019 0.9802
2.9533 3.1721 -2.5022 0.9802
2.8386 3.2759 -2.5026 0.9802
2.4731 3.5620 -2.5036 0.9802
2.2133 3.7303 -2.5042 0.9802
1.9420 3.8797 -2.5049 0.9802
1.6607 4.0094 -2.5055 0.9802
1.5168 4.0666 -2.5058 0.9802
1.0738 4.2069 -2.5067 0.9801
0.9230 4.2431 -2.5070 0.9801
0.7711 4.2738 -2.5073 0.9801
0.6181 4.2991 -2.5076 0.9801
0.1551 4.3419 -2.5084 0.9801
0.0000 4.3451 -2.5086 0.9801
-0.1551 4.3427 -2.5089 0.9801
-0.7718 4.2779 -2.5097 0.9801
-1.0752 4.2126 -2.5101 0.9801
-1.2249 4.1718 -2.5103 0.9801
-1.3732 4.1257 -2.5104 0.9801
-1.5196 4.0743 -2.5106 0.9801
-1.6642 4.0177 -2.5107 0.9801
-1.8066 3.9559 -2.5109 0.9801
-2.2194 3.7406 -2.5112 0.9801
-2.9642 3.1838 -2.5115 0.9801
-3.0760 3.0760 -2.5115 0.9801
-3.1838 2.9642 -2.5115 0.9801
-3.3871 2.7295 -2.5115 0.9801
-3.4823 2.6068 -2.5114 0.9801
-3.5731 2.4808 -2.5114 0.9801
-3.8175 2.0845 -2.5112 0.9801
-3.9561 1.8067 -2.5110 0.9801
-4.0179 1.6643 -2.5109 0.9801
-4.0745 1.5197 -2.5107 0.9801
-4.1260 1.3733 -2.5106 0.9801
-4.2783 0.7719 -2.5099 0.9801
-4.3028 0.6186 -2.5097 0.9801
-4.3217 0.4646 -2.5095 0.9801
-4.3431 0.1551 -2.5091 0.9801
