ply
format ascii 1.0
element vertex 1392
property float32 x
property float32 y
property float32 z
property float32 I
end_header
39.3551 -0.0000 6.9394 0.8523
31.5635 3.3934 5.5976 0.8790
29.5545 4.2493 5.2648 0.8858
24.6210 6.2841 4.4805 0.9019
23.3975 6.8701 4.2998 0.9057
21.0735 7.8600 3.9659 0.9127
18.2786 9.1496 3.6042 0.9203
15.8314 10.1742 3.3183 0.9264
15.4245 10.7094 3.3110 0.9266
19.1501 15.4321 4.3366 0.9049
11.3302 10.5488 2.7296 0.9391
10.9770 11.7901 2.8405 0.9367
13.4985 18.0319 3.9717 0.9126
12.8486 18.5055 3.9724 0.9126
6.7938 13.5723 2.6762 0.9402
6.2952 13.7846 2.6721 0.9403
5.0761 15.2512 2.8342 0.9368
6.3188 21.5198 3.9547 0.9129
3.9858 15.6162 2.8418 0.9366
0.0000 17.0092 2.9992 0.9332
-2.0275 7.9435 1.4456 0.9672
-6.7405 20.2520 3.7636 0.9170
-9.3364 20.4439 3.9629 0.9128
-10.7127 21.4012 4.2200 0.9074
-14.3939 22.3974 4.6945 0.8975
-20.4706 15.3241 4.5089 0.9013
-26.2420 14.3292 5.2721 0.8856
-26.7052 13.3677 5.2658 0.8858
38.4463 -0.0000 5.8898 0.8559
16.1472 0.5767 2.4752 0.9367
32.9196 2.3544 5.0560 0.8750
23.4783 6.8938 3.7486 0.9057
16.9399 9.2499 2.9568 0.9249
16.1541 9.5847 2.8775 0.9268
15.8358 10.1771 2.8837 0.9267
15.5618 10.8048 2.9023 0.9262
20.3997 15.2710 3.9037 0.9020
19.1501 15.4321 3.7677 0.9053
11.3213 10.5405 2.3697 0.9393
10.9770 11.7902 2.4678 0.9369
10.7111 12.3612 2.5057 0.9360
13.4986 18.0319 3.4507 0.9129
11.6862 19.6960 3.5084 0.9115
6.7938 13.5723 2.3251 0.9404
6.2952 13.7846 2.3215 0.9405
5.4482 14.6073 2.3883 0.9389
7.1599 21.5119 3.4732 0.9123
3.9852 15.6140 2.4687 0.9369
4.7822 21.9834 3.4465 0.9130
2.3037 16.0227 2.4798 0.9366
1.7160 15.9613 2.4593 0.9371
-0.8690 24.3326 3.7300 0.9062
-1.2691 17.7451 2.7254 0.9305
-3.2968 18.2728 2.8445 0.9276
-1.7701 8.1369 1.2757 0.9669
-9.2677 27.8450 4.4958 0.8880
-12.2016 22.3456 3.9003 0.9021
-14.5719 22.6743 4.1290 0.8967
-25.2678 27.1395 5.6806 0.8607
31.5596 3.3930 4.1334 0.8798
21.9991 6.4595 2.9857 0.9117
19.6167 8.9586 2.8083 0.9167
16.9399 9.2499 2.5134 0.9251
16.1541 9.5847 2.4460 0.9270
15.8725 10.2006 2.4570 0.9267
15.6857 10.8908 2.4867 0.9259
20.4346 15.2972 3.3240 0.9022
19.1501 15.4321 3.2027 0.9056
11.3409 10.5587 2.0178 0.9394
9.9983 12.4071 2.0750 0.9377
13.4986 18.0320 2.9332 0.9131
12.9739 18.6860 2.9623 0.9123
6.2952 13.7847 1.9734 0.9407
4.8591 14.5992 2.0037 0.9398
6.4483 21.9607 2.9805 0.9118
5.6543 22.1533 2.9773 0.9119
2.8823 15.9754 2.1139 0.9366
2.2593 15.7135 2.0673 0.9380
1.7157 15.9586 2.0901 0.9373
0.5793 16.2197 2.1135 0.9366
-0.8690 24.3317 3.1705 0.9065
-3.2984 18.2820 2.4191 0.9278
-2.0233 7.9271 1.0654 0.9675
-2.3677 8.0636 1.0944 0.9667
-7.6955 20.6325 2.8676 0.9150
-8.4912 20.4995 2.8894 0.9144
-9.7868 19.5516 2.8472 0.9156
-16.6872 30.5603 4.5342 0.8690
-14.5719 22.6743 3.5098 0.8970
-18.5112 24.7281 4.0224 0.8828
-20.2021 25.0693 4.1926 0.8782
-25.0931 26.9518 4.7954 0.8620
-20.4923 15.3404 3.3334 0.9019
38.6526 -0.0000 4.1506 0.8560
16.1020 0.5751 1.7302 0.9372
31.6501 3.4027 3.4182 0.8798
45.9632 6.6085 4.9864 0.8296
27.1530 4.8990 2.9628 0.8949
34.6280 8.8383 3.8376 0.8661
22.0060 6.4615 2.4628 0.9119
21.1807 8.7733 2.4618 0.9119
19.7003 8.9968 2.3256 0.9166
15.4313 10.7142 2.0173 0.9272
20.4825 15.3330 2.7475 0.9022
12.9702 11.2388 1.8429 0.9333
10.9770 11.7902 1.7298 0.9372
10.0540 12.4763 1.7206 0.9376
13.4986 18.0321 2.4188 0.9134
11.7020 19.7226 2.4626 0.9119
7.4292 13.6056 1.6646 0.9395
5.7976 13.9967 1.6268 0.9409
5.3983 14.4734 1.6588 0.9397
6.4483 21.9607 2.4577 0.9120
5.6878 22.2847 2.4697 0.9116
4.7933 22.0345 2.4214 0.9133
2.2718 15.8006 1.7141 0.9378
1.7160 15.9612 1.7238 0.9375
1.1429 15.9796 1.7203 0.9376
0.5793 16.2197 1.7428 0.9368
-1.7402 24.3316 2.6194 0.9065
-2.3669 8.0610 0.9021 0.9668
-8.4966 20.5125 2.3842 0.9146
-9.7912 19.5603 2.3489 0.9158
-16.7993 30.7655 3.7641 0.8685
-13.4790 22.7177 2.8365 0.8992
-14.5719 22.6743 2.8943 0.8972
-22.2132 31.9932 4.1824 0.8550
-18.6315 24.8888 3.3384 0.8824
-20.2021 25.0693 3.4573 0.8785
-23.4199 27.0280 3.8403 0.8660
33.0962 2.3671 2.8088 0.8753
27.1530 4.8990 2.3357 0.8952
25.8185 5.6165 2.2367 0.8994
26.0583 6.6510 2.2766 0.8977
21.6994 7.2223 1.9360 0.9123
20.9889 7.8285 1.8963 0.9140
20.8438 8.6338 1.9099 0.9134
18.0954 9.0579 1.7130 0.9220
15.5696 10.8101 1.6045 0.9267
20.2687 15.1729 2.1433 0.9034
19.1501 15.4321 2.0820 0.9060
11.3232 10.5423 1.3097 0.9398
10.9770 11.7902 1.3637 0.9374
13.4987 18.0321 1.9068 0.9135
12.3073 19.1504 1.9270 0.9127
11.6073 19.5630 1.9256 0.9127
7.4287 13.6046 1.3122 0.9397
6.7938 13.5723 1.2848 0.9409
4.8856 14.6787 1.3096 0.9398
5.6289 22.0538 1.9268 0.9127
2.9513 16.3579 1.4071 0.9355
2.2716 15.7995 1.3512 0.9379
1.7160 15.9611 1.3589 0.9376
0.5793 16.2197 1.3739 0.9369
0.0000 16.7689 1.4195 0.9349
-2.5738 17.9009 1.5310 0.9300
-3.2785 18.1717 1.5631 0.9286
-1.7633 8.1058 0.7022 0.9672
-2.0220 7.9221 0.6921 0.9677
-9.5822 28.7900 2.5686 0.8853
-7.6694 20.5625 1.8578 0.9157
-8.4366 20.3679 1.8663 0.9153
-9.7788 19.5355 1.8493 0.9160
-12.6362 23.1415 2.2320 0.8996
-14.5719 22.6743 2.2817 0.8975
-20.2021 25.0693 2.7255 0.8788
-23.7409 27.3984 3.0689 0.8646
-25.4034 27.2851 3.1559 0.8610
38.6526 -0.0000 2.3969 0.8565
33.0962 2.3671 2.0576 0.8755
31.2496 3.3597 1.9490 0.8816
26.2040 6.6882 1.6770 0.8973
22.0070 6.4618 1.4223 0.9122
20.8449 8.6343 1.3991 0.9135
27.7648 12.6797 1.8927 0.8849
18.0938 9.0571 1.2547 0.9221
16.9399 9.2499 1.1968 0.9256
16.1541 9.5847 1.1648 0.9275
15.6891 10.0827 1.1565 0.9280
15.5706 10.8108 1.1754 0.9268
20.3453 15.2303 1.5760 0.9032
12.9683 11.2371 1.0641 0.9335
12.1341 11.2972 1.0281 0.9357
11.5472 11.5472 1.0126 0.9366
10.9770 11.7902 0.9989 0.9375
10.6135 12.2486 1.0050 0.9371
12.3650 19.2403 1.4182 0.9124
11.6073 19.5630 1.4106 0.9129
7.4282 13.6037 0.9611 0.9398
6.7938 13.5723 0.9412 0.9410
6.2952 13.7847 0.9397 0.9411
4.8852 14.6777 0.9593 0.9399
6.3961 21.7831 1.4078 0.9130
5.6418 22.1044 1.4146 0.9126
2.9517 16.3601 1.0309 0.9355
0.0000 16.7677 1.0398 0.9350
-0.8668 24.2716 1.5060 0.9073
-2.6921 25.0398 1.5617 0.9040
-2.0214 7.9197 0.5068 0.9678
-2.3654 8.0559 0.5206 0.9669
-8.4358 20.3658 1.3669 0.9154
-9.7735 19.5249 1.3540 0.9162
-12.7073 23.2716 1.6442 0.8992
-13.3111 22.4347 1.6176 0.9007
-14.5719 22.6743 1.6714 0.8976
-17.8011 25.6384 1.9355 0.8824
-23.6242 27.2637 2.2370 0.8654
-25.4034 27.2851 2.3118 0.8612
-20.5245 15.3645 1.5898 0.9024
38.6526 -0.0000 1.5241 0.8566
32.6722 2.3368 1.2916 0.8771
27.1530 4.8990 1.0879 0.8954
26.0473 5.6663 1.0511 0.8988
26.2052 6.6885 1.0664 0.8974
23.2971 6.8406 0.9574 0.9074
21.6994 7.2223 0.9018 0.9125
20.9847 7.8269 0.8831 0.9142
18.0923 9.0563 0.7978 0.9222
12.9673 11.2362 0.6766 0.9336
12.1341 11.2972 0.6537 0.9358
11.5472 11.5472 0.6439 0.9367
10.9770 11.7902 0.6352 0.9375
10.6127 12.2478 0.6390 0.9372
10.0518 12.4736 0.6317 0.9379
13.4988 18.0323 0.8882 0.9138
12.7979 18.4325 0.8848 0.9141
12.5059 19.4596 0.9121 0.9116
11.7396 19.7860 0.9072 0.9120
6.7938 13.5723 0.5985 0.9411
6.2952 13.7847 0.5975 0.9411
5.7976 13.9967 0.5974 0.9412
4.8849 14.6767 0.6099 0.9400
4.7565 21.8651 0.8823 0.9143
2.9521 16.3623 0.6556 0.9356
2.2713 15.7973 0.6293 0.9381
1.7160 15.9610 0.6330 0.9378
0.5793 16.2197 0.6400 0.9371
-0.8668 24.2697 0.9576 0.9074
-2.5742 17.9039 0.7132 0.9302
-3.2780 18.1687 0.7280 0.9288
-9.6131 28.8826 1.2003 0.8853
-7.6703 20.5648 0.8655 0.9159
-12.7079 23.2727 1.0456 0.8993
-14.5719 22.6743 1.0628 0.8977
-20.2022 25.0693 1.2695 0.8791
-23.7186 27.3727 1.4282 0.8650
-25.4034 27.2851 1.4700 0.8614
33.0962 2.3671 0.5605 0.8757
31.4211 3.3781 0.5338 0.8812
31.4865 4.5271 0.5373 0.8805
26.2064 6.6888 0.4569 0.8974
23.2947 6.8399 0.4101 0.9074
20.9826 7.8261 0.3783 0.9143
28.0813 12.8243 0.5215 0.8838
18.0907 9.0555 0.3417 0.9223
16.9399 9.2499 0.3260 0.9257
16.1541 9.5847 0.3173 0.9276
15.6865 10.0811 0.3150 0.9281
12.9663 11.2354 0.2898 0.9337
12.1341 11.2972 0.2800 0.9358
10.6120 12.2469 0.2737 0.9372
13.4988 18.0323 0.3805 0.9138
12.7970 18.4312 0.3790 0.9141
6.2952 13.7847 0.2560 0.9412
5.3968 14.4694 0.2609 0.9401
4.8845 14.6757 0.2613 0.9400
6.4690 22.0314 0.3879 0.9122
4.7561 21.8636 0.3780 0.9144
2.9525 16.3645 0.2809 0.9356
2.2711 15.7961 0.2696 0.9382
1.7160 15.9610 0.2712 0.9378
0.5793 16.2197 0.2742 0.9371
0.0000 16.7653 0.2832 0.9351
-3.2777 18.1672 0.3118 0.9288
-9.6131 28.8826 0.5142 0.8853
-8.4342 20.3618 0.3723 0.9156
-9.3364 20.4440 0.3797 0.9140
-10.6646 21.3052 0.4025 0.9091
-12.7084 23.2738 0.4479 0.8993
-17.8586 25.7213 0.5289 0.8823
-18.4176 24.6030 0.5191 0.8843
-20.2021 25.0693 0.5439 0.8791
-25.4034 27.2851 0.6297 0.8614
38.6526 -0.0000 -0.2176 0.8567
33.0962 2.3671 -0.1868 0.8757
31.4165 3.3776 -0.1779 0.8813
31.4880 4.5273 -0.1791 0.8805
26.2077 6.6891 -0.1523 0.8975
21.6994 7.2223 -0.1287 0.9126
20.8482 8.6356 -0.1271 0.9137
28.0813 12.8243 -0.1738 0.8838
18.0891 9.0548 -0.1139 0.9223
16.9399 9.2499 -0.1087 0.9257
15.6852 10.0802 -0.1050 0.9281
15.5737 10.8130 -0.1068 0.9270
20.3406 15.2268 -0.1431 0.9034
12.1341 11.2972 -0.0933 0.9358
12.5059 19.4596 -0.1302 0.9116
11.7396 19.7860 -0.1295 0.9121
7.4267 13.6009 -0.0873 0.9399
6.2953 13.7847 -0.0853 0.9412
5.3965 14.4685 -0.0869 0.9401
4.8842 14.6747 -0.0871 0.9400
6.4690 22.0314 -0.1293 0.9122
2.2710 15.7950 -0.0898 0.9382
1.7160 15.9609 -0.0904 0.9378
-2.6914 25.0341 -0.1418 0.9042
-2.5746 17.9069 -0.1018 0.9302
-2.3632 8.0482 -0.0472 0.9670
-9.6131 28.8826 -0.1714 0.8854
-7.6711 20.5671 -0.1236 0.9159
-9.3364 20.4440 -0.1265 0.9140
-13.3064 22.4267 -0.1468 0.9009
-14.5719 22.6744 -0.1517 0.8978
-17.8594 25.7225 -0.1763 0.8823
-23.7206 27.3750 -0.2039 0.8651
-25.4034 27.2852 -0.2099 0.8615
31.4119 3.3771 -0.8896 0.8812
31.4895 4.5275 -0.8958 0.8805
27.1531 4.8990 -0.7769 0.8955
26.2091 6.6895 -0.7617 0.8974
23.2898 6.8385 -0.6835 0.9074
21.6994 7.2223 -0.6440 0.9125
20.9783 7.8245 -0.6304 0.9143
28.0813 12.8243 -0.8693 0.8838
18.0875 9.0540 -0.5696 0.9222
15.6838 10.0794 -0.5250 0.9281
12.9644 11.2337 -0.4830 0.9337
10.6105 12.2451 -0.4562 0.9372
11.7396 19.7860 -0.6478 0.9120
7.4262 13.6000 -0.4363 0.9399
6.7938 13.5723 -0.4274 0.9411
6.2952 13.7847 -0.4267 0.9412
5.3961 14.4675 -0.4348 0.9401
6.4690 22.0314 -0.6465 0.9122
2.9533 16.3689 -0.4684 0.9356
0.5793 16.2197 -0.4570 0.9371
-0.8666 24.2643 -0.6837 0.9074
-1.7402 24.3317 -0.6869 0.9070
-3.2772 18.1642 -0.5197 0.9288
-2.0189 7.9099 -0.2299 0.9679
-7.6716 20.5683 -0.6182 0.9159
-10.6624 21.3008 -0.6707 0.9091
-12.7097 23.2760 -0.7467 0.8993
-18.4124 24.5961 -0.8651 0.8843
-20.2021 25.0693 -0.9066 0.8791
-25.4034 27.2852 -1.0497 0.8614
-20.0041 16.1203 -0.7234 0.9023
16.0014 0.5715 -0.8120 0.9379
33.0962 2.3671 -1.6828 0.8756
31.4910 4.5277 -1.6135 0.8804
27.1531 4.8990 -1.3993 0.8954
26.2104 6.6898 -1.3718 0.8973
21.6994 7.2223 -1.1598 0.9125
20.9762 7.8237 -1.1354 0.9142
20.8503 8.6365 -1.1445 0.9136
18.0859 9.0531 -1.0257 0.9222
15.5758 10.8144 -0.9617 0.9269
20.3375 15.2244 -1.2884 0.9033
12.9634 11.2328 -0.8699 0.9336
12.1341 11.2972 -0.8408 0.9358
11.5472 11.5473 -0.8282 0.9367
10.9770 11.7902 -0.8170 0.9375
10.6097 12.2442 -0.8216 0.9372
13.4990 18.0325 -1.1424 0.9137
12.7943 18.4273 -1.1377 0.9141
7.4257 13.5991 -0.7858 0.9398
6.7938 13.5723 -0.7697 0.9410
5.3957 14.4665 -0.7830 0.9400
4.8835 14.6727 -0.7842 0.9399
6.4690 22.0314 -1.1645 0.9121
1.7160 15.9608 -0.8141 0.9377
0.0000 16.7616 -0.8500 0.9351
-0.8665 24.2624 -1.2312 0.9073
-2.5751 17.9099 -0.9176 0.9301
-2.0183 7.9075 -0.4139 0.9678
-2.3617 8.0431 -0.4251 0.9670
-7.6720 20.5694 -1.1134 0.9158
-9.3364 20.4440 -1.1398 0.9139
-13.3032 22.4214 -1.3222 0.9008
-14.5719 22.6744 -1.3669 0.8977
-17.8611 25.7248 -1.5882 0.8821
-23.6792 27.3273 -1.8338 0.8652
-25.4034 27.2852 -1.8906 0.8613
-36.1278 33.6362 -2.5034 0.8206
-37.3058 32.3257 -2.5034 0.8206
-19.8834 16.0230 -1.2950 0.9028
-39.5178 29.5827 -2.5034 0.8206
-40.5488 28.1536 -2.5035 0.8206
-41.5282 26.6886 -2.5035 0.8206
-42.4548 25.1896 -2.5035 0.8206
-43.3271 23.6584 -2.5035 0.8206
-44.9050 20.5075 -2.5036 0.8206
-46.2539 17.2518 -2.5036 0.8206
-46.8403 15.5900 -2.5036 0.8206
-48.2384 10.4936 -2.5036 0.8206
-49.0834 5.2770 -2.5036 0.8206
31.9458 2.2848 -2.3483 0.8795
27.1531 4.8990 -2.0231 0.8952
23.2007 6.8123 -1.7729 0.9076
21.6995 7.2223 -1.6769 0.9124
20.8952 7.7935 -1.6352 0.9144
20.7774 8.6063 -1.6490 0.9137
28.0813 12.8243 -2.2635 0.8835
18.0843 9.0524 -1.4828 0.9221
16.9399 9.2499 -1.4152 0.9255
15.6812 10.0777 -1.3668 0.9280
15.5768 10.8152 -1.3904 0.9268
10.6089 12.2433 -1.1878 0.9371
10.0483 12.4691 -1.1742 0.9378
13.4990 18.0326 -1.6516 0.9136
12.5059 19.4596 -1.6961 0.9114
6.7938 13.5723 -1.1129 0.9409
6.2952 13.7847 -1.1111 0.9410
5.3953 14.4655 -1.1320 0.9400
4.7424 21.8004 -1.6358 0.9144
2.9541 16.3736 -1.2199 0.9354
2.2705 15.7916 -1.1698 0.9380
1.7160 15.9608 -1.1770 0.9376
-1.7402 24.3317 -1.7886 0.9068
-9.6131 28.8826 -2.2319 0.8851
-8.4184 20.3239 -1.6130 0.9156
-9.3364 20.4440 -1.6479 0.9138
-12.6773 23.2167 -1.9395 0.8993
-13.2521 22.3353 -1.9042 0.9011
-14.5719 22.6744 -1.9762 0.8975
-17.8253 25.6733 -2.2917 0.8822
-18.9258 16.3993 -1.8362 0.9044
-19.2413 15.5056 -1.8119 0.9056
-21.8644 15.1807 -1.9517 0.8987
-26.9700 17.3327 -2.3507 0.8793
-27.5717 16.3591 -2.3507 0.8793
-30.5259 15.2802 -2.5030 0.8720
-31.5384 13.0636 -2.5030 0.8720
-31.9846 11.9296 -2.5030 0.8720
-32.3901 10.7804 -2.5030 0.8720
-33.0767 8.4423 -2.5030 0.8720
-33.3570 7.2563 -2.5030 0.8720
-33.7895 4.8582 -2.5030 0.8720
-33.9413 3.6491 -2.5030 0.8720
24.4631 -0.0000 -2.3486 0.9064
24.2145 3.4815 -2.3486 0.9064
24.0750 4.3436 -2.3486 0.9064
23.7041 6.0501 -2.3487 0.9064
23.1983 6.8116 -2.3212 0.9074
21.6995 7.2223 -2.1956 0.9122
20.8931 7.7927 -2.1408 0.9143
20.7785 8.6067 -2.1592 0.9136
16.9399 9.2499 -1.8530 0.9254
16.1541 9.5847 -1.8033 0.9273
19.5865 14.6625 -2.3489 0.9064
19.0508 15.3521 -2.3489 0.9064
12.9146 11.1906 -1.6406 0.9336
12.1341 11.2972 -1.5917 0.9355
10.9770 11.7902 -1.5465 0.9373
10.6082 12.2425 -1.5552 0.9370
10.0475 12.4682 -1.5373 0.9377
11.7396 19.7860 -2.2088 0.9117
7.4246 13.5972 -1.4873 0.9396
5.7976 13.9967 -1.4545 0.9409
5.3950 14.4645 -1.4821 0.9398
4.8829 14.6707 -1.4844 0.9398
6.4690 22.0314 -2.2044 0.9119
5.6418 22.1044 -2.1902 0.9124
4.7421 21.7989 -2.1417 0.9143
2.2703 15.7905 -1.5316 0.9379
0.5793 16.2197 -1.5582 0.9369
0.0000 16.7591 -1.6090 0.9349
-0.8641 24.1934 -2.3242 0.9073
-2.0438 19.0103 -1.8356 0.9260
-2.5589 17.7976 -1.7262 0.9303
-3.2639 18.0906 -1.7648 0.9288
-1.7457 8.0250 -0.7885 0.9675
-2.3602 8.0380 -0.8043 0.9669
-7.6418 20.4885 -2.0994 0.9159
-10.6207 21.2176 -2.2779 0.9091
-11.7317 21.4850 -2.3501 0.9063
-13.9615 20.1084 -2.3502 0.9063
-14.6705 19.5975 -2.3502 0.9063
-15.3608 19.0615 -2.3502 0.9063
-18.5018 16.0319 -2.3503 0.9063
-22.4188 13.3017 -2.5027 0.9005
-22.8794 12.4931 -2.5027 0.9005
-23.3108 11.6686 -2.5027 0.9005
-23.7125 10.8291 -2.5027 0.9005
-24.0840 9.9759 -2.5027 0.9005
-24.4248 9.1100 -2.5027 0.9005
-25.0124 7.3443 -2.5027 0.9005
-25.6542 4.6285 -2.5027 0.9005
-25.9189 2.7865 -2.5027 0.9005
-26.0516 0.9304 -2.5027 0.9005
15.2018 0.5429 -1.8069 0.9406
15.7135 1.6894 -1.8773 0.9383
19.5720 2.8140 -2.3488 0.9234
19.1593 4.8901 -2.3488 0.9234
18.9727 5.5709 -2.3488 0.9234
18.7619 6.2446 -2.3489 0.9234
18.5272 6.9103 -2.3489 0.9234
16.9399 9.2499 -2.2927 0.9252
15.6201 10.0384 -2.2056 0.9279
15.8308 11.8508 -2.3490 0.9234
12.9137 11.1897 -2.0297 0.9335
11.2793 16.2452 -2.3492 0.9234
7.9033 13.3202 -1.8398 0.9395
7.3966 13.5458 -1.8333 0.9397
6.1092 13.3772 -1.7469 0.9425
5.7976 13.9967 -1.7996 0.9408
4.8649 14.6168 -1.8299 0.9398
1.7159 15.9607 -1.9068 0.9374
1.1429 15.9797 -1.9030 0.9375
-0.7060 19.7684 -2.3497 0.9234
-1.4112 19.7308 -2.3497 0.9234
-2.0440 19.0117 -2.2713 0.9259
-3.2636 18.0891 -2.1834 0.9286
-1.7435 8.0149 -0.9743 0.9675
-6.2474 18.7703 -2.3499 0.9234
-8.2182 17.9954 -2.3500 0.9234
-9.4813 17.3636 -2.3500 0.9234
-10.0950 17.0143 -2.3500 0.9234
-10.6960 16.6433 -2.3500 0.9234
-11.2833 16.2510 -2.3501 0.9234
-11.8562 15.8381 -2.3501 0.9234
-12.9561 14.9521 -2.3501 0.9234
-9.3485 9.3485 -1.5704 0.9481
-14.4804 13.4817 -2.3502 0.9234
-14.9524 12.9564 -2.3502 0.9234
-15.4054 12.4145 -2.3502 0.9234
-15.8388 11.8568 -2.3502 0.9234
-19.1634 8.7516 -2.5025 0.9186
-19.7390 7.3623 -2.5025 0.9186
-19.9892 6.6530 -2.5025 0.9186
-20.4129 5.2101 -2.5025 0.9186
-20.5859 4.4782 -2.5025 0.9186
15.2271 0.5438 -2.1589 0.9403
16.3145 2.9435 -2.3489 0.9352
16.1991 3.5239 -2.3489 0.9352
16.0631 4.0999 -2.3489 0.9352
15.7298 5.2354 -2.3490 0.9352
15.5330 5.7935 -2.3490 0.9352
15.3164 6.3443 -2.3490 0.9352
15.0803 6.8869 -2.3490 0.9352
14.8250 7.4209 -2.3490 0.9352
14.2580 8.4597 -2.3490 0.9352
13.9471 8.9632 -2.3491 0.9352
13.2723 9.9355 -2.3491 0.9352
12.9093 10.4030 -2.3491 0.9352
12.1341 11.2973 -2.3491 0.9352
10.9770 11.7902 -2.2825 0.9370
9.9362 13.2732 -2.3492 0.9352
9.4562 13.6195 -2.3493 0.9352
8.9641 13.9485 -2.3493 0.9352
7.3961 13.5449 -2.1866 0.9396
6.7938 13.5723 -2.1505 0.9405
6.1097 13.3783 -2.0839 0.9423
5.7976 13.9967 -2.1466 0.9406
5.3741 14.4084 -2.1789 0.9398
4.1008 16.0669 -2.3495 0.9352
2.9140 16.1510 -2.3254 0.9358
1.7159 15.9607 -2.2745 0.9372
1.1429 15.9797 -2.2699 0.9373
0.5793 16.2198 -2.2996 0.9365
-0.5919 16.5727 -2.3497 0.9352
-2.9445 16.3204 -2.3498 0.9352
-1.7413 8.0048 -1.1607 0.9674
-2.0158 7.8977 -1.1549 0.9676
-2.3587 8.0329 -1.1862 0.9667
-5.7957 15.5389 -2.3499 0.9352
-6.3467 15.3223 -2.3499 0.9352
-8.9667 13.9524 -2.3500 0.9352
-9.4590 13.6236 -2.3500 0.9352
-9.9393 13.2774 -2.3500 0.9352
-10.4070 12.9142 -2.3500 0.9352
-10.8613 12.5346 -2.3500 0.9352
-11.3019 12.1391 -2.3500 0.9352
-9.3486 9.3486 -1.8733 0.9480
-12.1392 11.3020 -2.3501 0.9352
-14.5068 10.0723 -2.5023 0.9311
-15.1885 9.0118 -2.5023 0.9311
-15.5005 8.4639 -2.5023 0.9311
-16.0649 7.3366 -2.5024 0.9311
-16.5474 6.1719 -2.5024 0.9311
-16.9456 4.9757 -2.5024 0.9311
-17.6159 1.2599 -2.5024 0.9311
-17.6496 0.6304 -2.5024 0.9311
14.2587 0.0000 -2.3490 0.9438
14.1771 1.5242 -2.3490 0.9438
13.9330 3.0309 -2.3490 0.9438
13.5294 4.5030 -2.3490 0.9438
13.3601 4.9831 -2.3490 0.9438
13.1738 5.4568 -2.3491 0.9438
12.9707 5.9235 -2.3491 0.9438
12.5152 6.8338 -2.3491 0.9438
12.2634 7.2762 -2.3491 0.9438
11.9960 7.7093 -2.3491 0.9438
11.4156 8.5456 -2.3491 0.9438
11.1033 8.9476 -2.3492 0.9438
10.4369 9.7171 -2.3492 0.9438
10.0835 10.0835 -2.3492 0.9438
8.5461 11.4162 -2.3493 0.9438
7.7100 11.9970 -2.3493 0.9438
6.3835 12.7527 -2.3494 0.9438
5.4576 13.1758 -2.3494 0.9438
4.9839 13.3623 -2.3494 0.9438
4.5038 13.5318 -2.3495 0.9438
2.5323 14.0355 -2.3495 0.9438
-1.0175 14.2266 -2.3497 0.9438
-1.5246 14.1813 -2.3497 0.9438
-2.0151 7.8952 -1.3423 0.9675
-2.3579 8.0303 -1.3788 0.9666
-6.3848 12.7553 -2.3499 0.9438
-7.2786 12.2675 -2.3499 0.9438
-7.7119 11.9999 -2.3499 0.9438
-8.5484 11.4193 -2.3499 0.9438
-6.8494 8.4996 -1.7983 0.9567
-9.3486 9.3486 -2.1780 0.9478
-10.7807 9.3415 -2.3500 0.9438
-12.7779 8.2119 -2.5022 0.9403
-13.0629 7.7506 -2.5023 0.9403
-13.3312 7.2794 -2.5023 0.9403
-13.5826 6.7990 -2.5023 0.9403
-13.8166 6.3098 -2.5023 0.9403
-14.0331 5.8127 -2.5023 0.9403
-14.5740 4.2793 -2.5023 0.9403
-14.7175 3.7564 -2.5023 0.9403
-14.8422 3.2287 -2.5023 0.9403
12.4895 0.4461 -2.3490 0.9504
11.3047 0.8085 -2.1303 0.9549
12.4259 1.3359 -2.3490 0.9504
12.2120 2.6566 -2.3491 0.9504
12.1094 3.0907 -2.3491 0.9504
11.7098 4.3675 -2.3491 0.9504
11.5465 4.7827 -2.3491 0.9504
11.3685 5.1918 -2.3491 0.9504
10.9692 5.9897 -2.3491 0.9504
10.7485 6.3774 -2.3492 0.9504
10.5141 6.7570 -2.3492 0.9504
10.2663 7.1280 -2.3492 0.9504
9.4457 8.1847 -2.3492 0.9504
7.8426 9.7321 -2.3493 0.9504
7.4903 10.0059 -2.3493 0.9504
6.3780 10.7495 -2.3494 0.9504
5.5949 11.1772 -2.3494 0.9504
5.1925 11.3699 -2.3494 0.9504
3.9474 11.8600 -2.3495 0.9504
3.5216 11.9935 -2.3495 0.9504
3.0913 12.1116 -2.3495 0.9504
2.2194 12.3015 -2.3495 0.9504
1.7790 12.3729 -2.3495 0.9504
1.3362 12.4286 -2.3496 0.9504
0.0000 12.5005 -2.3496 0.9504
-0.3231 9.0469 -1.7015 0.9638
-1.7791 12.3736 -2.3497 0.9504
-1.7369 7.9845 -1.5359 0.9673
-3.9479 11.8615 -2.3498 0.9504
-4.7841 11.5498 -2.3498 0.9504
-5.5959 11.1792 -2.3498 0.9504
-6.3792 10.7517 -2.3498 0.9504
-6.7590 10.5172 -2.3498 0.9504
-9.2791 8.6392 -2.3830 0.9497
-10.0444 8.7036 -2.4981 0.9473
-10.3654 8.3530 -2.5022 0.9473
-10.6569 7.9777 -2.5022 0.9473
-11.1990 7.1971 -2.5022 0.9473
-11.6839 6.3799 -2.5022 0.9473
-11.9042 5.9588 -2.5022 0.9473
-12.1093 5.5301 -2.5022 0.9473
-12.2990 5.0944 -2.5022 0.9473
-12.7731 3.7505 -2.5022 0.9473
-12.8988 3.2922 -2.5022 0.9473
-13.0081 2.8297 -2.5022 0.9473
-13.2361 1.4230 -2.5022 0.9473
-13.2784 0.9497 -2.5022 0.9473
-13.3038 0.4751 -2.5022 0.9473
11.4571 -0.0000 -2.4218 0.9542
11.0848 0.7928 -2.3491 0.9556
11.0494 1.1879 -2.3491 0.9556
11.0000 1.5816 -2.3491 0.9556
10.9366 1.9732 -2.3491 0.9556
10.8592 2.3623 -2.3491 0.9556
10.6631 3.1310 -2.3491 0.9556
10.5446 3.5096 -2.3491 0.9556
10.4127 3.8837 -2.3491 0.9556
9.7541 5.3261 -2.3492 0.9556
9.5578 5.6709 -2.3492 0.9556
8.8970 6.6602 -2.3492 0.9556
7.5733 8.1343 -2.3493 0.9556
6.9738 8.6540 -2.3493 0.9556
6.6605 8.8974 -2.3493 0.9556
6.3387 9.1295 -2.3493 0.9556
5.3266 9.7550 -2.3494 0.9556
4.9751 9.9389 -2.3494 0.9556
4.6172 10.1102 -2.3494 0.9556
4.2534 10.2687 -2.3494 0.9556
3.8842 10.4140 -2.3494 0.9556
3.5101 10.5461 -2.3495 0.9556
2.3627 10.8611 -2.3495 0.9556
1.9735 10.9386 -2.3495 0.9556
1.1882 11.0516 -2.3496 0.9556
0.7930 11.0871 -2.3496 0.9556
0.3967 11.1084 -2.3496 0.9556
0.0000 11.1155 -2.3496 0.9556
-0.6022 8.4195 -1.7843 0.9661
-1.1882 11.0520 -2.3496 0.9556
-1.4773 8.1883 -1.7588 0.9666
-1.7347 7.9742 -1.7250 0.9672
-2.3564 8.0251 -1.7680 0.9664
-3.5105 10.5473 -2.3497 0.9556
-3.8847 10.4153 -2.3497 0.9556
-3.5058 7.6767 -1.7839 0.9661
-4.9759 9.9405 -2.3498 0.9556
-5.3275 9.7566 -2.3498 0.9556
-5.6724 9.5603 -2.3498 0.9556
-6.8171 8.4595 -2.2965 0.9566
-7.2102 8.3210 -2.3274 0.9560
-8.1675 8.1675 -2.4416 0.9539
-8.9458 7.7516 -2.5021 0.9528
-9.9580 6.3996 -2.5021 0.9528
-10.3892 5.6729 -2.5021 0.9528
-10.5851 5.2985 -2.5021 0.9528
-10.7675 4.9173 -2.5021 0.9528
-10.9361 4.5299 -2.5021 0.9528
-11.0908 4.1367 -2.5021 0.9528
-11.4695 2.9274 -2.5021 0.9528
-11.5667 2.5162 -2.5021 0.9528
-11.7167 1.6846 -2.5021 0.9528
-11.8070 0.8445 -2.5021 0.9528
10.5464 0.3767 -2.4802 0.9576
9.8936 1.4225 -2.3491 0.9598
9.8365 1.7747 -2.3491 0.9598
9.7670 2.1247 -2.3491 0.9598
9.6849 2.4719 -2.3492 0.9598
9.4840 3.1566 -2.3492 0.9598
9.3653 3.4931 -2.3492 0.9598
9.2347 3.8251 -2.3492 0.9598
9.0923 4.1523 -2.3492 0.9598
8.9383 4.4742 -2.3492 0.9598
8.7730 4.7904 -2.3492 0.9598
8.4089 5.4041 -2.3492 0.9598
7.7832 6.2721 -2.3493 0.9598
6.2723 7.7834 -2.3493 0.9598
5.7011 8.2112 -2.3494 0.9598
4.7908 8.7737 -2.3494 0.9598
4.4746 8.9391 -2.3494 0.9598
3.8255 9.2357 -2.3494 0.9598
3.1570 9.4852 -2.3495 0.9598
2.8164 9.5919 -2.3495 0.9598
2.4723 9.6863 -2.3495 0.9598
1.7750 9.8381 -2.3495 0.9598
0.7132 9.9717 -2.3496 0.9598
0.3568 9.9908 -2.3496 0.9598
0.0000 9.9973 -2.3496 0.9598
-0.6022 8.4195 -1.9838 0.9659
-0.8404 7.8169 -1.8477 0.9682
-1.0443 7.2632 -1.7246 0.9703
-1.7324 7.9639 -1.9155 0.9671
-3.5058 7.6767 -1.9834 0.9659
-4.4752 8.9404 -2.3497 0.9598
-4.7915 8.7750 -2.3498 0.9598
-5.1017 8.5984 -2.3498 0.9598
-5.9917 8.0039 -2.3498 0.9598
-7.2323 7.7680 -2.4944 0.9573
-7.5222 7.5222 -2.5002 0.9572
-8.2894 6.6801 -2.5021 0.9572
-9.1558 5.4324 -2.5021 0.9572
-9.5201 4.7654 -2.5021 0.9572
-9.9749 3.7205 -2.5021 0.9572
-10.1014 3.3621 -2.5021 0.9572
-10.3155 2.6329 -2.5021 0.9572
-10.4770 1.8903 -2.5021 0.9572
-10.5378 1.5151 -2.5021 0.9572
-10.6394 0.3800 -2.5021 0.9572
9.6499 0.3446 -2.5001 0.9609
9.1639 0.9852 -2.3864 0.9626
8.9807 1.2912 -2.3492 0.9632
8.8657 1.9286 -2.3492 0.9632
8.7913 2.2438 -2.3492 0.9632
7.9634 4.3484 -2.3492 0.9632
7.8032 4.6298 -2.3492 0.9632
7.4531 5.1748 -2.3493 0.9632
7.2637 5.4375 -2.3493 0.9632
7.0650 5.6933 -2.3493 0.9632
6.8573 5.9419 -2.3493 0.9632
6.1829 6.6409 -2.3493 0.9632
5.9420 6.8574 -2.3493 0.9632
5.6935 7.0652 -2.3493 0.9632
5.4377 7.2639 -2.3494 0.9632
4.0617 8.1142 -2.3494 0.9632
3.7695 8.2540 -2.3494 0.9632
2.2441 8.7924 -2.3495 0.9632
1.9289 8.8669 -2.3495 0.9632
1.6112 8.9302 -2.3495 0.9632
0.9700 9.0225 -2.3495 0.9632
0.6474 9.0514 -2.3496 0.9632
0.3239 9.0688 -2.3496 0.9632
0.0000 9.0746 -2.3496 0.9632
-0.3169 8.8736 -2.2990 0.9640
-0.6014 8.4083 -2.1826 0.9658
-1.7858 6.9966 -1.8696 0.9706
-2.7521 7.3787 -2.0390 0.9680
-4.6308 7.8048 -2.3497 0.9632
-4.9065 7.6346 -2.3497 0.9632
-5.1758 7.4546 -2.3498 0.9632
-5.4386 7.2652 -2.3498 0.9632
-5.8002 7.1976 -2.3934 0.9625
-6.5825 7.0701 -2.5011 0.9609
-6.8330 6.8330 -2.5020 0.9609
-7.0726 6.5848 -2.5020 0.9609
-7.3031 6.3282 -2.5020 0.9609
-7.5243 6.0635 -2.5020 0.9609
-8.1294 5.2245 -2.5020 0.9609
-8.3107 4.9310 -2.5020 0.9609
-8.4814 4.6312 -2.5021 0.9609
-8.6414 4.3256 -2.5021 0.9609
-8.9279 3.6981 -2.5021 0.9609
-9.2721 2.7225 -2.5021 0.9609
-9.3634 2.3899 -2.5021 0.9609
-9.4427 2.0541 -2.5021 0.9609
-9.5100 1.7158 -2.5021 0.9609
-9.5652 1.3753 -2.5021 0.9609
-9.6082 1.0330 -2.5021 0.9609
8.7688 0.9428 -2.4967 0.9640
8.1665 1.4734 -2.3492 0.9661
8.1087 1.7639 -2.3492 0.9661
8.0406 2.0522 -2.3492 0.9661
7.5486 3.4473 -2.3492 0.9661
7.4207 3.7146 -2.3492 0.9661
7.2834 3.9771 -2.3493 0.9661
7.1369 4.2345 -2.3493 0.9661
6.8167 4.7329 -2.3493 0.9661
6.2717 5.4345 -2.3493 0.9661
6.0738 5.6549 -2.3493 0.9661
5.6550 6.0739 -2.3493 0.9661
5.4346 6.2719 -2.3493 0.9661
4.9734 6.6436 -2.3494 0.9661
4.7331 6.8169 -2.3494 0.9661
4.2348 7.1373 -2.3494 0.9661
3.9773 7.2839 -2.3494 0.9661
3.4476 7.5492 -2.3494 0.9661
2.6209 7.8746 -2.3495 0.9661
1.4736 8.1676 -2.3495 0.9661
1.1811 8.2150 -2.3495 0.9661
0.8872 8.2520 -2.3495 0.9661
0.2962 8.2943 -2.3496 0.9661
0.0000 8.2996 -2.3496 0.9661
-0.2962 8.2944 -2.3496 0.9661
-0.5860 8.1931 -2.3253 0.9664
-0.8242 7.6657 -2.1826 0.9685
-1.0483 7.2911 -2.0853 0.9698
-1.2218 6.7721 -1.9481 0.9718
-1.4972 6.8825 -1.9940 0.9711
-2.0897 7.1168 -2.0998 0.9696
-2.7024 7.2452 -2.1891 0.9684
-3.7153 7.4222 -2.3497 0.9661
-3.9778 7.2848 -2.3497 0.9661
-4.4874 6.9826 -2.3497 0.9661
-5.5355 6.8692 -2.4975 0.9640
-5.7876 6.6793 -2.5020 0.9639
-6.0224 6.4685 -2.5020 0.9639
-6.2494 6.2494 -2.5020 0.9639
-6.6794 5.7877 -2.5020 0.9639
-7.4351 4.7783 -2.5020 0.9639
-7.6009 4.5099 -2.5020 0.9639
-8.0395 3.6715 -2.5020 0.9639
-8.5637 2.1857 -2.5020 0.9639
-8.6978 1.5693 -2.5020 0.9639
-8.7875 0.9448 -2.5020 0.9639
-8.8157 0.6305 -2.5020 0.9639
-8.8325 0.3155 -2.5020 0.9639
8.0397 1.1559 -2.4983 0.9666
7.9804 1.4398 -2.4942 0.9666
7.5968 1.6526 -2.3913 0.9680
7.4006 1.8889 -2.3492 0.9685
7.2470 2.4120 -2.3492 0.9685
7.0565 2.9229 -2.3493 0.9685
6.9477 3.1729 -2.3493 0.9685
6.8300 3.4189 -2.3493 0.9685
6.7037 3.6605 -2.3493 0.9685
6.5688 3.8974 -2.3493 0.9685
6.4255 4.1294 -2.3493 0.9685
5.7725 5.0019 -2.3493 0.9685
5.5903 5.2048 -2.3493 0.9685
5.2048 5.5904 -2.3494 0.9685
5.0020 5.7726 -2.3494 0.9685
4.7928 5.9475 -2.3494 0.9685
4.1296 6.4258 -2.3494 0.9685
3.8977 6.5691 -2.3494 0.9685
3.4191 6.8305 -2.3494 0.9685
3.1731 6.9482 -2.3494 0.9685
2.9231 7.0571 -2.3494 0.9685
2.6694 7.1570 -2.3495 0.9685
2.4123 7.2477 -2.3495 0.9685
1.8891 7.4014 -2.3495 0.9685
1.0871 7.5610 -2.3495 0.9685
0.0000 7.6389 -2.3496 0.9685
-0.2727 7.6341 -2.3496 0.9685
-0.5450 7.6195 -2.3496 0.9685
-1.0201 7.0951 -2.2047 0.9704
-1.2218 6.7720 -2.1166 0.9716
-1.4972 6.8825 -2.1664 0.9710
-1.7555 6.8781 -2.1834 0.9707
-2.3624 7.0978 -2.3009 0.9692
-2.6696 7.1576 -2.3497 0.9685
-3.1735 6.9489 -2.3497 0.9685
-3.6611 6.7049 -2.3497 0.9685
-3.8981 6.5699 -2.3497 0.9685
-4.2017 6.5379 -2.3904 0.9680
-4.6259 6.6625 -2.4948 0.9666
-5.3269 6.1475 -2.5019 0.9665
-5.5429 5.9535 -2.5020 0.9665
-5.9535 5.5429 -2.5020 0.9665
-6.3338 5.1041 -2.5020 0.9665
-7.6216 2.8427 -2.5020 0.9665
-7.7183 2.5689 -2.5020 0.9665
-7.8050 2.2918 -2.5020 0.9665
-8.0053 1.4443 -2.5020 0.9665
-8.1293 0.2903 -2.5020 0.9665
7.5204 0.2686 -2.5014 0.9688
7.5060 0.5368 -2.5014 0.9688
7.4821 0.8044 -2.5014 0.9688
7.4486 1.0710 -2.5014 0.9688
7.4007 1.3352 -2.4997 0.9688
7.1577 1.8269 -2.4555 0.9693
6.8037 1.9977 -2.3571 0.9706
6.6219 2.4698 -2.3493 0.9706
6.5295 2.7046 -2.3493 0.9706
6.3200 3.1635 -2.3493 0.9706
6.0782 3.6064 -2.3493 0.9706
5.5032 4.4347 -2.3493 0.9706
5.1728 4.8161 -2.3493 0.9706
4.4348 5.5033 -2.3494 0.9706
4.2356 5.6581 -2.3494 0.9706
3.8212 5.9459 -2.3494 0.9706
3.3873 6.2034 -2.3494 0.9706
2.7048 6.5300 -2.3495 0.9706
2.4700 6.6224 -2.3495 0.9706
1.9913 6.7818 -2.3495 0.9706
1.7480 6.8486 -2.3495 0.9706
1.5024 6.9066 -2.3495 0.9706
0.7556 7.0278 -2.3495 0.9706
0.0000 7.0683 -2.3496 0.9706
-0.2523 7.0639 -2.3496 0.9706
-1.1986 6.6436 -2.2440 0.9719
-2.2323 6.7069 -2.3496 0.9706
-2.4702 6.6229 -2.3496 0.9706
-4.5106 6.0254 -2.5019 0.9688
-5.5088 5.1289 -2.5019 0.9688
-5.8607 4.7228 -2.5020 0.9688
-6.0255 4.5107 -2.5020 0.9688
-6.3320 4.0693 -2.5020 0.9688
-6.6062 3.6072 -2.5020 0.9688
-6.7307 3.3692 -2.5020 0.9688
-6.8467 3.1268 -2.5020 0.9688
-6.9539 2.8804 -2.5020 0.9688
-7.0523 2.6304 -2.5020 0.9688
-7.1417 2.3770 -2.5020 0.9688
-7.2220 2.1206 -2.5020 0.9688
-7.2931 1.8615 -2.5020 0.9688
-7.4073 1.3364 -2.5020 0.9688
-7.4503 1.0712 -2.5020 0.9688
-7.5221 0.2687 -2.5020 0.9688
6.9949 -0.0000 -2.5014 0.9707
6.9905 0.2497 -2.5014 0.9707
6.9237 0.9955 -2.5014 0.9707
6.8343 1.4867 -2.5012 0.9707
6.7679 1.7274 -2.4979 0.9708
6.4344 2.1416 -2.4251 0.9716
5.9758 2.7291 -2.3493 0.9725
5.8746 2.9406 -2.3493 0.9725
5.6499 3.3522 -2.3493 0.9725
4.9650 4.3022 -2.3493 0.9725
4.8083 4.4767 -2.3494 0.9725
4.6455 4.6455 -2.3494 0.9725
4.4767 4.8083 -2.3494 0.9725
4.3022 4.9651 -2.3494 0.9725
4.1223 5.1155 -2.3494 0.9725
3.9371 5.2594 -2.3494 0.9725
2.7292 5.9762 -2.3494 0.9725
2.5142 6.0698 -2.3495 0.9725
2.2960 6.1557 -2.3495 0.9725
2.0748 6.2338 -2.3495 0.9725
1.6248 6.3660 -2.3495 0.9725
1.3966 6.4199 -2.3495 0.9725
0.9350 6.5032 -2.3495 0.9725
0.7023 6.5325 -2.3495 0.9725
0.2345 6.5660 -2.3495 0.9725
0.0000 6.5702 -2.3496 0.9725
-0.2345 6.5660 -2.3496 0.9725
-0.4687 6.5535 -2.3496 0.9725
-0.7023 6.5326 -2.3496 0.9725
-0.9351 6.5034 -2.3496 0.9725
-1.3966 6.4202 -2.3496 0.9725
-2.0749 6.2342 -2.3496 0.9725
-2.2961 6.1562 -2.3496 0.9725
-2.7295 5.9767 -2.3496 0.9725
-3.7818 5.8846 -2.5015 0.9707
-3.9901 5.7468 -2.5019 0.9707
-4.1927 5.6008 -2.5019 0.9707
-4.3899 5.4476 -2.5019 0.9707
-4.9471 4.9471 -2.5019 0.9707
-5.7469 3.9902 -2.5019 0.9707
-5.8857 3.7825 -2.5019 0.9707
-6.3641 2.9064 -2.5020 0.9707
-6.6384 2.2095 -2.5020 0.9707
-6.7130 1.9711 -2.5020 0.9707
-6.7791 1.7303 -2.5020 0.9707
-6.8852 1.2422 -2.5020 0.9707
-6.9252 0.9957 -2.5020 0.9707
-6.9563 0.7479 -2.5020 0.9707
-6.9786 0.4991 -2.5020 0.9707
-6.9919 0.2497 -2.5020 0.9707
6.5275 -0.0000 -2.5014 0.9724
6.4611 0.9290 -2.5015 0.9724
6.4238 1.1590 -2.5015 0.9724
6.3783 1.3875 -2.5015 0.9724
6.3248 1.6143 -2.5015 0.9724
5.8138 2.4081 -2.4115 0.9734
5.4820 2.7441 -2.3493 0.9741
5.3806 2.9380 -2.3493 0.9741
5.2723 3.1282 -2.3493 0.9741
5.0358 3.4964 -2.3493 0.9741
4.9078 3.6739 -2.3493 0.9741
4.4870 4.1775 -2.3494 0.9741
4.1775 4.4870 -2.3494 0.9741
3.4965 5.0359 -2.3494 0.9741
3.3145 5.1575 -2.3494 0.9741
2.9382 5.3809 -2.3494 0.9741
2.7443 5.4823 -2.3494 0.9741
2.5468 5.5768 -2.3494 0.9741
1.9361 5.8172 -2.3495 0.9741
1.5162 5.9405 -2.3495 0.9741
0.8725 6.0686 -2.3495 0.9741
0.6554 6.0959 -2.3495 0.9741
0.0000 6.1311 -2.3495 0.9741
-0.2188 6.1272 -2.3496 0.9741
-0.6554 6.0960 -2.3496 0.9741
-1.5163 5.9408 -2.3496 0.9741
-1.7274 5.8829 -2.3496 0.9741
-1.9363 5.8175 -2.3496 0.9741
-2.4012 5.7971 -2.4046 0.9735
-2.6948 5.9009 -2.4860 0.9726
-2.9164 5.8262 -2.4968 0.9725
-3.1262 5.7251 -2.4997 0.9724
-3.3313 5.6147 -2.5019 0.9724
-3.7234 5.3627 -2.5019 0.9724
-4.0965 5.0835 -2.5019 0.9724
-4.2754 4.9340 -2.5019 0.9724
-4.7783 4.4488 -2.5019 0.9724
-4.9341 4.2754 -2.5019 0.9724
-5.2265 3.9125 -2.5019 0.9724
-5.3628 3.7235 -2.5019 0.9724
-5.4923 3.5297 -2.5019 0.9724
-5.6148 3.3314 -2.5019 0.9724
-5.7301 3.1289 -2.5019 0.9724
-5.9388 2.7121 -2.5019 0.9724
-6.1171 2.2816 -2.5019 0.9724
-6.1947 2.0618 -2.5019 0.9724
-6.2643 1.8394 -2.5019 0.9724
-6.3796 1.3878 -2.5019 0.9724
-6.4623 0.9291 -2.5019 0.9724
-6.4914 0.6979 -2.5019 0.9724
6.1119 -0.0000 -2.5015 0.9739
6.0964 0.4360 -2.5015 0.9739
6.0498 0.8698 -2.5015 0.9739
5.5165 2.5193 -2.4821 0.9741
5.2694 2.6377 -2.4117 0.9749
5.0404 2.7523 -2.3504 0.9755
4.9367 2.9291 -2.3493 0.9755
4.8290 3.1034 -2.3493 0.9755
4.4696 3.6019 -2.3494 0.9755
4.2013 3.9116 -2.3494 0.9755
4.0590 4.0590 -2.3494 0.9755
3.9116 4.2013 -2.3494 0.9755
2.9292 4.9369 -2.3494 0.9755
2.7511 5.0383 -2.3494 0.9755
2.5695 5.1333 -2.3494 0.9755
2.3847 5.2218 -2.3495 0.9755
2.1968 5.3036 -2.3495 0.9755
2.0061 5.3786 -2.3495 0.9755
1.8129 5.4468 -2.3495 0.9755
1.0193 5.6494 -2.3495 0.9755
0.4095 5.7261 -2.3495 0.9755
0.2049 5.7371 -2.3495 0.9755
0.0000 5.7408 -2.3495 0.9755
-0.4095 5.7262 -2.3496 0.9755
-0.6137 5.7079 -2.3496 0.9755
-0.8170 5.6824 -2.3496 0.9755
-1.0193 5.6496 -2.3496 0.9755
-1.2203 5.6097 -2.3496 0.9755
-1.4198 5.5625 -2.3496 0.9755
-1.6174 5.5083 -2.3496 0.9755
-1.8555 5.5748 -2.4047 0.9749
-2.1132 5.6657 -2.4749 0.9742
-2.5361 5.5533 -2.4986 0.9740
-3.1192 5.2572 -2.5019 0.9739
-3.4863 5.0213 -2.5019 0.9739
-4.1655 4.4741 -2.5019 0.9739
-4.3225 4.3225 -2.5019 0.9739
-4.6199 4.0032 -2.5019 0.9739
-4.7598 3.8357 -2.5019 0.9739
-5.1426 3.3050 -2.5019 0.9739
-5.2573 3.1193 -2.5019 0.9739
-5.5606 2.5395 -2.5019 0.9739
-5.6477 2.3394 -2.5019 0.9739
-5.8002 1.9305 -2.5019 0.9739
-5.8654 1.7223 -2.5019 0.9739
-6.0159 1.0854 -2.5019 0.9739
-6.0508 0.8700 -2.5019 0.9739
-6.0780 0.6535 -2.5019 0.9739
5.7397 0.0000 -2.5015 0.9753
5.7361 0.2049 -2.5015 0.9753
5.7251 0.4095 -2.5015 0.9753
5.7069 0.6135 -2.5015 0.9753
5.5615 1.4195 -2.5015 0.9753
5.4461 1.8126 -2.5015 0.9753
5.3779 2.0059 -2.5015 0.9753
5.3004 2.1955 -2.5003 0.9753
5.1209 2.5634 -2.4958 0.9753
5.0063 2.7337 -2.4859 0.9754
4.3155 3.2305 -2.3494 0.9768
4.1974 3.3825 -2.3494 0.9768
3.6734 3.9455 -2.3494 0.9768
3.5302 4.0741 -2.3494 0.9768
3.3826 4.1975 -2.3494 0.9768
2.7508 4.6362 -2.3494 0.9768
2.5836 4.7315 -2.3494 0.9768
2.0630 4.9806 -2.3495 0.9768
1.8839 5.0511 -2.3495 0.9768
1.7025 5.1151 -2.3495 0.9768
1.5188 5.1726 -2.3495 0.9768
1.3332 5.2235 -2.3495 0.9768
0.7672 5.3362 -2.3495 0.9768
0.5763 5.3602 -2.3495 0.9768
0.0000 5.3911 -2.3495 0.9768
-0.1924 5.3877 -2.3495 0.9768
-0.7672 5.3363 -2.3496 0.9768
-0.9572 5.3055 -2.3496 0.9768
-1.3722 5.3761 -2.4181 0.9761
-1.6023 5.4569 -2.4786 0.9755
-1.8085 5.4337 -2.4958 0.9753
-2.1956 5.3006 -2.5004 0.9753
-2.3847 5.2218 -2.5018 0.9753
-2.9293 4.9370 -2.5018 0.9753
-3.2740 4.7155 -2.5019 0.9753
-3.4402 4.5956 -2.5019 0.9753
-3.6021 4.4699 -2.5019 0.9753
-3.7593 4.3385 -2.5019 0.9753
-3.9118 4.2016 -2.5019 0.9753
-4.0593 4.0593 -2.5019 0.9753
-4.4699 3.6021 -2.5019 0.9753
-4.5957 3.4403 -2.5019 0.9753
-4.8294 3.1037 -2.5019 0.9753
-4.9371 2.9293 -2.5019 0.9753
-5.1335 2.5697 -2.5019 0.9753
-5.3037 2.1969 -2.5019 0.9753
-5.3788 2.0062 -2.5019 0.9753
-5.4470 1.8129 -2.5019 0.9753
-5.5082 1.6174 -2.5019 0.9753
-5.6095 1.2203 -2.5019 0.9753
-5.6495 1.0193 -2.5019 0.9753
-5.6823 0.8170 -2.5019 0.9753
-5.7078 0.6137 -2.5019 0.9753
-5.7261 0.4095 -2.5019 0.9753
5.4007 0.1929 -2.5015 0.9765
5.3491 0.7691 -2.5015 0.9765
5.2363 1.3365 -2.5015 0.9765
4.8296 2.4175 -2.5000 0.9765
4.7364 2.5863 -2.4980 0.9765
4.5330 2.9132 -2.4942 0.9765
4.3477 3.0186 -2.4500 0.9769
3.9676 3.1973 -2.3586 0.9778
3.7148 3.4586 -2.3494 0.9779
3.5889 3.5890 -2.3494 0.9779
3.4586 3.7148 -2.3494 0.9779
3.3238 3.8359 -2.3494 0.9779
3.0417 4.0632 -2.3494 0.9779
2.7441 4.2699 -2.3494 0.9779
2.4325 4.4548 -2.3494 0.9779
2.2720 4.5388 -2.3494 0.9779
2.1085 4.6170 -2.3495 0.9779
1.6029 4.8160 -2.3495 0.9779
1.0789 4.9598 -2.3495 0.9779
0.9012 4.9951 -2.3495 0.9779
0.5426 5.0467 -2.3495 0.9779
0.0000 5.0759 -2.3495 0.9779
-0.5434 5.0543 -2.3531 0.9778
-1.1454 5.2652 -2.4942 0.9765
-1.3336 5.2249 -2.4960 0.9765
-1.5204 5.1780 -2.4980 0.9765
-1.7056 5.1245 -2.5000 0.9765
-1.8888 5.0640 -2.5018 0.9765
-2.0683 4.9934 -2.5018 0.9765
-2.2453 4.9164 -2.5018 0.9765
-2.4193 4.8332 -2.5018 0.9765
-2.5903 4.7437 -2.5018 0.9765
-2.7580 4.6483 -2.5018 0.9765
-3.0825 4.4397 -2.5018 0.9765
-3.2390 4.3269 -2.5019 0.9765
-3.3914 4.2085 -2.5019 0.9765
-3.5395 4.0848 -2.5019 0.9765
-3.6830 3.9559 -2.5019 0.9765
-4.0848 3.5395 -2.5019 0.9765
-4.2085 3.3915 -2.5019 0.9765
-4.3269 3.2391 -2.5019 0.9765
-4.4398 3.0826 -2.5019 0.9765
-4.5470 2.9222 -2.5019 0.9765
-4.7439 2.5903 -2.5019 0.9765
-4.8333 2.4194 -2.5019 0.9765
-5.1284 1.7069 -2.5019 0.9765
-5.2815 1.1489 -2.5019 0.9765
-5.3191 0.9597 -2.5019 0.9765
-5.3500 0.7692 -2.5019 0.9765
-5.3740 0.5778 -2.5019 0.9765
-5.4016 0.1929 -2.5019 0.9765
5.0867 0.3638 -2.5015 0.9775
5.0704 0.5451 -2.5015 0.9775
4.9831 1.0840 -2.5015 0.9775
4.8387 1.6105 -2.5015 0.9775
4.4759 2.4441 -2.5015 0.9775
4.3833 2.6007 -2.5001 0.9775
4.2847 2.7536 -2.4984 0.9776
3.9467 3.1804 -2.4863 0.9777
3.4218 3.4218 -2.3737 0.9787
3.2637 3.5055 -2.3494 0.9789
3.1365 3.6197 -2.3494 0.9789
2.7316 3.9343 -2.3494 0.9789
2.5895 4.0293 -2.3494 0.9789
2.4440 4.1192 -2.3494 0.9789
2.2954 4.2038 -2.3494 0.9789
2.1439 4.2831 -2.3495 0.9789
1.9897 4.3569 -2.3495 0.9789
1.6738 4.4877 -2.3495 0.9789
1.3494 4.5957 -2.3495 0.9789
1.0181 4.6803 -2.3495 0.9789
0.8504 4.7137 -2.3495 0.9789
0.6817 4.7410 -2.3495 0.9789
0.3417 4.7776 -2.3495 0.9789
0.1710 4.7868 -2.3495 0.9789
0.0000 4.8265 -2.3675 0.9787
-0.1747 4.8910 -2.4007 0.9784
-0.7239 5.0348 -2.4951 0.9776
-0.9037 5.0089 -2.4967 0.9776
-1.9518 4.7121 -2.5018 0.9775
-2.2830 4.5608 -2.5018 0.9775
-2.4443 4.4764 -2.5018 0.9775
-2.6025 4.3864 -2.5018 0.9775
-3.0565 4.0830 -2.5018 0.9775
-3.2003 3.9714 -2.5018 0.9775
-3.3400 3.8546 -2.5019 0.9775
-3.7330 3.4755 -2.5019 0.9775
-4.5609 2.2830 -2.5019 0.9775
-4.6395 2.1188 -2.5019 0.9775
-4.8938 1.4370 -2.5019 0.9775
-4.9839 1.0842 -2.5019 0.9775
-5.0485 0.7259 -2.5019 0.9775
-5.0972 0.1820 -2.5019 0.9775
4.8219 0.0000 -2.5015 0.9785
4.8096 0.3440 -2.5015 0.9785
4.7943 0.5154 -2.5015 0.9785
4.7729 0.6862 -2.5015 0.9785
4.7453 0.8562 -2.5015 0.9785
4.6722 1.1925 -2.5015 0.9785
4.5752 1.5228 -2.5015 0.9785
4.5179 1.6851 -2.5015 0.9785
4.4549 1.8453 -2.5015 0.9785
4.3119 2.1584 -2.5016 0.9785
4.2322 2.3109 -2.5016 0.9785
4.0565 2.6070 -2.5016 0.9785
3.8564 2.8869 -2.4991 0.9785
3.2389 3.4788 -2.4658 0.9788
2.9184 3.6215 -2.4128 0.9793
2.7623 3.6901 -2.3913 0.9794
2.4567 3.8228 -2.3574 0.9797
2.1704 3.9748 -2.3494 0.9798
1.8813 4.1196 -2.3495 0.9798
1.5827 4.2433 -2.3495 0.9798
1.2759 4.3454 -2.3495 0.9798
0.8111 4.4957 -2.3699 0.9796
0.4963 4.6162 -2.4086 0.9793
0.3345 4.6773 -2.4327 0.9791
0.0000 4.8018 -2.4911 0.9786
-0.1717 4.8066 -2.4951 0.9786
-0.3433 4.7997 -2.4963 0.9785
-0.6856 4.7681 -2.4990 0.9785
-1.3586 4.6271 -2.5018 0.9785
-1.5229 4.5757 -2.5018 0.9785
-2.1586 4.3124 -2.5018 0.9785
-2.3112 4.2326 -2.5018 0.9785
-2.8900 3.8606 -2.5018 0.9785
-3.1581 3.6446 -2.5018 0.9785
-3.2862 3.5296 -2.5018 0.9785
-3.6447 3.1581 -2.5019 0.9785
-3.7551 3.0260 -2.5019 0.9785
-3.8607 2.8901 -2.5019 0.9785
-3.9614 2.7504 -2.5019 0.9785
-4.1475 2.4608 -2.5019 0.9785
-4.2327 2.3112 -2.5019 0.9785
-4.5186 1.6853 -2.5019 0.9785
-4.5758 1.5230 -2.5019 0.9785
-4.6728 1.1927 -2.5019 0.9785
-4.7460 0.8563 -2.5019 0.9785
-4.7735 0.6863 -2.5019 0.9785
-4.7950 0.5155 -2.5019 0.9785
-4.8103 0.3440 -2.5019 0.9785
4.5673 0.0000 -2.5015 0.9794
4.5557 0.3258 -2.5015 0.9794
4.5411 0.4882 -2.5015 0.9794
4.4947 0.8109 -2.5015 0.9794
4.4254 1.1295 -2.5015 0.9794
4.3823 1.2868 -2.5015 0.9794
4.1546 1.8973 -2.5016 0.9794
4.0842 2.0444 -2.5016 0.9794
4.0087 2.1889 -2.5016 0.9794
3.9280 2.3306 -2.5016 0.9794
3.8423 2.4693 -2.5016 0.9794
3.3394 3.1091 -2.4990 0.9794
3.1066 3.3367 -2.4970 0.9794
2.8587 3.5474 -2.4953 0.9794
2.7295 3.6462 -2.4946 0.9794
2.2951 3.8681 -2.4634 0.9797
1.9991 3.9936 -2.4460 0.9798
1.5577 4.1764 -2.4414 0.9799
0.9602 4.4141 -2.4742 0.9796
0.6482 4.5082 -2.4945 0.9794
-0.3256 4.5531 -2.5001 0.9794
-0.8110 4.4952 -2.5018 0.9794
-0.9709 4.4634 -2.5018 0.9794
-1.2869 4.3827 -2.5018 0.9794
-1.7480 4.2201 -2.5018 0.9794
-1.8975 4.1550 -2.5018 0.9794
-2.0446 4.0846 -2.5018 0.9794
-2.6051 3.7521 -2.5018 0.9794
-2.8662 3.5567 -2.5018 0.9794
-2.9913 3.4522 -2.5018 0.9794
-3.3432 3.1126 -2.5018 0.9794
-3.5568 2.8662 -2.5019 0.9794
-3.7522 2.6052 -2.5019 0.9794
-4.0092 2.1892 -2.5019 0.9794
-4.0847 2.0447 -2.5019 0.9794
-4.2202 1.7481 -2.5019 0.9794
-4.2799 1.5963 -2.5019 0.9794
-4.4635 0.9710 -2.5019 0.9794
-4.4953 0.8110 -2.5019 0.9794
-4.5214 0.6501 -2.5019 0.9794
-4.5417 0.4883 -2.5019 0.9794
-4.5650 0.1630 -2.5019 0.9794
4.2639 0.7693 -2.5015 0.9802
4.1982 1.0715 -2.5015 0.9802
4.1573 1.2207 -2.5015 0.9802
4.0030 1.6581 -2.5016 0.9802
3.9413 1.7999 -2.5016 0.9802
3.8745 1.9395 -2.5016 0.9802
3.8028 2.0765 -2.5016 0.9802
3.7263 2.2109 -2.5016 0.9802
3.5591 2.4711 -2.5016 0.9802
3.4686 2.5966 -2.5016 0.9802
3.3738 2.7188 -2.5016 0.9802
3.2746 2.8374 -2.5016 0.9802
3.1712 2.9525 -2.5016 0.9802
2.8353 3.2722 -2.4998 0.9802
2.3385 3.6387 -2.4972 0.9802
2.2067 3.7193 -2.4968 0.9802
2.0723 3.7952 -2.4965 0.9802
1.7960 3.9328 -2.4962 0.9802
1.3654 4.1024 -2.4963 0.9802
1.2182 4.1489 -2.4965 0.9802
1.0695 4.1903 -2.4968 0.9802
0.7681 4.2574 -2.4977 0.9802
0.3089 4.3186 -2.4997 0.9802
0.1546 4.3283 -2.5005 0.9802
0.0000 4.3327 -2.5015 0.9802
-0.1547 4.3304 -2.5017 0.9802
-0.3091 4.3221 -2.5017 0.9802
-0.4632 4.3083 -2.5017 0.9802
-0.6167 4.2891 -2.5018 0.9802
-0.7694 4.2643 -2.5018 0.9802
-0.9211 4.2342 -2.5018 0.9802
-1.3684 4.1115 -2.5018 0.9802
-1.5143 4.0600 -2.5018 0.9802
-1.8001 3.9417 -2.5018 0.9802
-1.9396 3.8749 -2.5018 0.9802
-2.0767 3.8032 -2.5018 0.9802
-2.3427 3.6454 -2.5018 0.9802
-2.4714 3.5594 -2.5018 0.9802
-2.8377 3.2749 -2.5018 0.9802
-2.9528 3.1715 -2.5018 0.9802
-3.0641 3.0641 -2.5018 0.9802
-3.4690 2.5969 -2.5018 0.9802
-3.7267 2.2112 -2.5019 0.9802
-4.0601 1.5143 -2.5019 0.9802
-4.1578 1.2208 -2.5019 0.9802
-4.1987 1.0717 -2.5019 0.9802
-4.2892 0.6167 -2.5019 0.9802
