ply
format ascii 1.0
element vertex 1421
property float32 x
property float32 y
property float32 z
property float32 I
end_header
32.6272 1.1653 5.7567 0.8758
29.8775 2.1369 5.2817 0.8854
28.9405 3.1114 5.1324 0.8885
25.1361 4.5350 4.5037 0.9015
24.1165 5.2462 4.3518 0.9046
22.4863 6.6026 4.1323 0.9092
18.6064 8.4973 3.6068 0.9203
18.1258 9.0731 3.5741 0.9210
24.0239 13.1180 4.8264 0.8948
22.4777 13.3366 4.6086 0.8993
14.1017 10.5564 3.1060 0.9310
13.7376 11.0704 3.1109 0.9308
17.4182 16.2169 4.1964 0.9079
16.8855 16.8855 4.2106 0.9076
10.4335 12.9472 2.9320 0.9347
9.1459 13.1727 2.8277 0.9369
8.4068 14.1690 2.9050 0.9353
10.9642 20.0795 4.0340 0.9113
9.5279 20.8632 4.0442 0.9110
5.2097 15.6525 2.9088 0.9352
4.5762 15.5852 2.8641 0.9362
4.0489 15.8635 2.8868 0.9357
3.4477 23.9790 4.2716 0.9063
0.8700 8.0919 1.4350 0.9675
0.2879 8.0620 1.4225 0.9678
0.0000 18.3491 3.2354 0.9282
-0.6553 18.3471 3.2371 0.9281
-4.0143 27.9204 4.9737 0.8917
-8.5648 22.9631 4.3215 0.9052
-9.7486 23.5352 4.4918 0.9017
-12.5118 24.9954 4.9287 0.8927
-14.1089 25.8386 5.1910 0.8873
-17.8839 27.8280 5.8327 0.8743
-21.6074 28.8641 6.3576 0.8638
32.6269 1.1653 5.0014 0.8762
27.4812 3.9512 4.2533 0.8937
24.1476 5.2530 3.7858 0.9048
23.5131 6.0014 3.7176 0.9065
19.9811 7.4525 3.2670 0.9173
18.3256 9.1731 3.1395 0.9204
24.0214 13.1167 4.1928 0.8952
15.9270 10.2357 2.9003 0.9262
14.1016 10.5564 2.6985 0.9312
13.4194 11.6279 2.7202 0.9307
17.4181 16.2168 3.6458 0.9082
12.3561 12.3560 2.6769 0.9317
16.2063 17.4068 3.6435 0.9082
10.4446 12.9609 2.5500 0.9349
9.6584 12.9021 2.4690 0.9369
9.1459 13.1726 2.4567 0.9372
8.7909 13.6789 2.4910 0.9363
8.4205 14.1919 2.5280 0.9354
11.0597 20.2543 3.5353 0.9108
10.4619 20.9002 3.5805 0.9098
8.8023 21.2506 3.5237 0.9111
5.8137 15.5871 2.5485 0.9349
5.2140 15.6655 2.5293 0.9354
4.2921 23.7895 3.7033 0.9068
3.4386 23.9159 3.7015 0.9069
0.8687 8.0799 1.2449 0.9676
0.5666 7.9216 1.2166 0.9684
0.2879 8.0597 1.2355 0.9679
0.0000 18.3500 2.8111 0.9284
-0.6553 18.3470 2.8125 0.9284
-2.8965 26.9416 4.1511 0.8961
-3.7882 20.9964 3.2685 0.9173
-4.5427 20.8825 3.2739 0.9172
-5.3100 20.8045 3.2893 0.9168
-10.4180 31.3011 5.0538 0.8750
-8.6574 23.2115 3.7952 0.9046
-10.8327 23.7202 3.9948 0.8999
-14.1077 25.8364 4.5096 0.8877
-15.3715 25.9074 4.6149 0.8852
-17.8838 27.8277 5.0675 0.8747
-20.1530 29.0258 5.4133 0.8668
33.8980 -0.0000 4.4142 0.8722
30.0296 2.1478 3.9205 0.8856
28.9371 3.1111 3.7899 0.8892
24.3891 4.4003 3.2272 0.9049
24.1475 5.2530 3.2180 0.9051
23.6052 6.0249 3.1724 0.9064
31.4022 9.2205 4.2619 0.8763
19.9810 7.4525 2.7770 0.9176
18.7510 8.5633 2.6843 0.9202
18.4161 9.2184 2.6818 0.9203
14.4946 10.0638 2.2979 0.9313
13.6218 10.9772 2.2781 0.9319
16.8405 16.8405 3.1014 0.9084
16.3576 17.5693 3.1260 0.9077
10.3039 12.7864 2.1384 0.9359
9.6583 12.9020 2.0987 0.9371
9.1459 13.1725 2.0883 0.9374
8.7483 13.6126 2.1071 0.9368
8.2307 13.8722 2.1005 0.9370
11.1997 20.5106 3.0432 0.9100
9.7787 21.4123 3.0653 0.9094
8.8514 21.3692 3.0120 0.9109
5.1603 15.5044 2.1279 0.9362
4.0489 15.8634 2.1320 0.9361
3.4570 24.0441 3.1632 0.9067
0.8674 8.0679 1.0567 0.9678
0.5664 7.9194 1.0339 0.9685
-2.9236 20.3343 2.6752 0.9205
-5.2301 28.9883 3.8358 0.8880
-5.3100 20.8044 2.7960 0.9170
-6.0048 20.4504 2.7755 0.9176
-10.4443 31.3801 4.3067 0.8751
-12.8985 25.7679 3.7524 0.8903
-15.5522 26.2118 3.9689 0.8843
-20.1516 29.0238 4.6012 0.8672
-16.8555 16.8555 3.1041 0.9083
33.2020 1.1858 3.5676 0.8749
28.8927 3.1063 3.1204 0.8897
28.5042 4.0983 3.0923 0.8906
24.3943 4.4012 2.6618 0.9051
31.5243 9.2563 3.5280 0.8762
18.5001 8.4487 2.1839 0.9214
18.1378 9.0791 2.1781 0.9216
24.6033 13.4344 3.0101 0.8934
22.6640 13.4472 2.8298 0.8994
14.4940 10.0633 1.8947 0.9315
13.1299 11.3772 1.8656 0.9325
16.8967 16.8966 2.5659 0.9083
16.4003 17.6151 2.5845 0.9077
9.6583 12.9019 1.7306 0.9372
9.7786 21.4122 2.5277 0.9096
5.1874 15.5856 1.7639 0.9361
4.5761 15.5850 1.7442 0.9367
3.5752 16.4348 1.8061 0.9346
0.8661 8.0561 0.8701 0.9679
0.5662 7.9172 0.8523 0.9686
-0.6553 18.3468 1.9714 0.9288
-1.3380 18.7073 2.0139 0.9273
-2.0758 19.3078 2.0853 0.9249
-3.7929 21.0226 2.2939 0.9176
-5.3100 20.8043 2.3056 0.9172
-7.7114 23.1689 2.6221 0.9064
-11.9819 32.1247 3.6817 0.8712
-9.7877 23.6297 2.7465 0.9022
-10.8325 23.7199 2.8001 0.9004
-12.9238 25.8185 3.1004 0.8903
-14.3049 26.1975 3.2052 0.8868
-15.5520 26.2116 3.2728 0.8846
-16.2938 25.3537 3.2363 0.8858
-16.8641 16.8641 2.5610 0.9085
30.0291 2.1477 2.5485 0.8862
28.9723 3.1148 2.4667 0.8896
28.8487 4.1478 2.4672 0.8896
23.2572 5.9361 2.0319 0.9081
19.1062 7.9141 1.7506 0.9203
18.6054 8.4968 1.7315 0.9212
22.6639 13.4471 2.2308 0.8996
14.1014 10.5562 1.4912 0.9317
13.7375 11.0704 1.4935 0.9316
13.1289 11.3763 1.4706 0.9326
10.8837 12.5604 1.4069 0.9355
10.3569 12.8521 1.3973 0.9359
9.6582 12.9019 1.3643 0.9374
9.1458 13.1724 1.3575 0.9377
8.7934 13.6827 1.3769 0.9368
8.2734 13.9441 1.3725 0.9370
4.5761 15.5849 1.3750 0.9369
4.0489 15.8633 1.3859 0.9364
3.5749 16.4336 1.4237 0.9347
3.0157 16.7148 1.4378 0.9341
3.4255 23.8245 2.0375 0.9079
0.8649 8.0443 0.6849 0.9680
0.5661 7.9150 0.6717 0.9686
0.2876 8.0529 0.6821 0.9682
0.0000 18.3270 1.5514 0.9291
-0.6552 18.3467 1.5541 0.9290
-4.1347 28.7575 2.4594 0.8899
-3.8292 21.2239 1.8257 0.9171
-4.5008 20.6899 1.7924 0.9185
-5.3099 20.8041 1.8176 0.9174
-5.9938 20.4129 1.8010 0.9181
-9.6591 23.3192 2.1367 0.9036
-10.8324 23.7197 2.2074 0.9006
-12.3460 24.6641 2.3349 0.8952
-14.3542 26.2877 2.5355 0.8867
34.0971 -0.0000 2.1144 0.8723
30.0289 2.1477 1.8668 0.8863
28.5319 4.1023 1.7875 0.8909
23.5523 6.9156 1.5221 0.9063
30.4570 10.1371 1.9905 0.8793
23.9492 13.0773 1.6921 0.8964
22.6638 13.4470 1.6341 0.8998
15.6440 10.0538 1.1531 0.9282
17.4178 16.2165 1.4757 0.9090
16.8430 16.8430 1.4771 0.9090
10.8829 12.5595 1.0305 0.9356
10.3561 12.8511 1.0235 0.9360
9.1457 13.1724 0.9944 0.9378
11.1756 20.4666 1.4460 0.9108
10.4394 20.8552 1.4462 0.9108
9.7020 21.2445 1.4483 0.9106
5.1866 15.5833 1.0184 0.9363
4.5761 15.5848 1.0072 0.9370
4.0488 15.8632 1.0152 0.9365
3.5746 16.4324 1.0428 0.9348
3.4382 23.9130 1.4981 0.9077
0.5659 7.9128 0.4919 0.9687
0.2875 8.0507 0.4995 0.9682
-0.6552 18.3467 1.1384 0.9291
-1.3380 18.7071 1.1630 0.9276
-4.0016 27.8321 1.7436 0.8934
-3.8295 21.2258 1.3375 0.9172
-4.5004 20.6879 1.3129 0.9187
-5.3099 20.8040 1.3314 0.9175
-8.8980 23.8566 1.5789 0.9030
-10.8324 23.7196 1.6170 0.9008
-16.3030 25.3679 1.8699 0.8862
-19.9644 28.7542 2.1707 0.8691
-16.8812 16.8812 1.4804 0.9088
34.0968 0.0000 1.3445 0.8724
33.4529 1.1948 1.3199 0.8746
30.0286 2.1477 1.1871 0.8865
28.8308 3.0996 1.1434 0.8904
23.5528 6.9157 0.9679 0.9064
30.9691 10.3075 1.2870 0.8775
19.9805 7.4523 0.8409 0.9182
19.1060 7.9140 0.8154 0.9205
18.6019 8.4952 0.8064 0.9214
23.9472 13.0761 1.0759 0.8965
22.6637 13.4470 1.0391 0.8999
13.7353 11.0686 0.6956 0.9318
13.1269 11.3745 0.6849 0.9328
16.1141 17.3078 0.9325 0.9097
10.8821 12.5586 0.6552 0.9356
9.6582 12.9018 0.6355 0.9375
9.1457 13.1723 0.6323 0.9378
8.7921 13.6808 0.6412 0.9370
8.7417 21.1044 0.9007 0.9126
5.7048 15.2951 0.6437 0.9367
4.5761 15.5848 0.6405 0.9370
3.5744 16.4312 0.6631 0.9349
3.0152 16.7123 0.6696 0.9343
0.5658 7.9106 0.3127 0.9688
0.0000 18.3239 0.7225 0.9293
-4.0013 27.8297 1.1086 0.8936
-3.8299 21.2277 0.8505 0.9173
-4.4999 20.6859 0.8347 0.9187
-10.6846 32.1020 1.3341 0.8733
-17.1475 34.2565 1.5105 0.8578
-14.2015 26.0081 1.1685 0.8881
-15.5517 26.2109 1.2018 0.8851
34.0965 -0.0000 0.5759 0.8725
33.4536 1.1948 0.5655 0.8747
28.5330 4.1024 0.4869 0.8911
25.8453 4.6630 0.4436 0.9003
24.1467 5.2528 0.4174 0.9059
23.5533 6.9159 0.4147 0.9065
19.9804 7.4523 0.3602 0.9182
19.1059 7.9139 0.3493 0.9206
18.6002 8.4944 0.3454 0.9215
22.6635 13.4469 0.4451 0.8999
15.6414 10.0521 0.3141 0.9283
14.7275 10.2255 0.3029 0.9308
14.1012 10.5561 0.2975 0.9320
13.1258 11.3736 0.2934 0.9329
17.4176 16.2164 0.4020 0.9092
16.1156 17.3094 0.3995 0.9097
8.7915 13.6798 0.2747 0.9370
8.2716 13.9411 0.2738 0.9372
11.1755 20.4664 0.3939 0.9109
5.1859 15.5810 0.2774 0.9364
3.5741 16.4299 0.2840 0.9349
3.0150 16.7110 0.2868 0.9343
3.4377 23.9093 0.4080 0.9079
0.5656 7.9085 0.1339 0.9688
0.2874 8.0462 0.1360 0.9683
-0.6552 18.3465 0.3101 0.9292
-1.3379 18.7069 0.3168 0.9277
-2.0860 19.4028 0.3296 0.9249
-4.0009 27.8272 0.4749 0.8936
-4.4995 20.6839 0.3576 0.9188
-6.2551 21.3028 0.3750 0.9150
-10.6849 32.1030 0.5715 0.8734
-9.7084 23.4382 0.4285 0.9035
-14.2025 26.0100 0.5006 0.8882
-15.5515 26.2107 0.5149 0.8852
-19.0684 29.6709 0.5958 0.8684
-20.0686 28.9042 0.5944 0.8687
-16.8983 16.8983 0.4037 0.9088
34.0962 0.0000 -0.1920 0.8725
28.8232 3.0988 -0.1632 0.8905
28.5335 4.1025 -0.1623 0.8911
25.8423 4.6625 -0.1478 0.9003
23.5539 6.9160 -0.1382 0.9065
19.1058 7.9139 -0.1165 0.9206
22.6634 13.4468 -0.1484 0.9000
14.7274 10.2254 -0.1009 0.9308
17.4175 16.2163 -0.1340 0.9092
16.8392 16.8392 -0.1341 0.9091
10.8804 12.5567 -0.0935 0.9357
10.3538 12.8483 -0.0929 0.9361
9.6581 12.9017 -0.0907 0.9376
8.7908 13.6788 -0.0915 0.9370
8.2710 13.9401 -0.0913 0.9372
11.1755 20.4663 -0.1313 0.9109
10.5543 21.0848 -0.1328 0.9100
4.5761 15.5846 -0.0914 0.9371
4.0488 15.8630 -0.0922 0.9366
3.5738 16.4287 -0.0947 0.9350
3.0148 16.7098 -0.0956 0.9343
3.4374 23.9075 -0.1360 0.9079
-2.0858 19.4012 -0.1099 0.9249
-4.0006 27.8248 -0.1583 0.8936
-3.8306 21.2315 -0.1215 0.9173
-4.4991 20.6819 -0.1192 0.9188
-5.3098 20.8037 -0.1209 0.9177
-6.2550 21.3027 -0.1250 0.9150
-14.2036 26.0120 -0.1669 0.8882
-15.5514 26.2105 -0.1716 0.8852
-16.9068 16.9068 -0.1346 0.9088
33.4549 1.1949 -0.9426 0.8746
30.0279 2.1477 -0.8477 0.8865
28.8194 3.0984 -0.8162 0.8905
25.8393 4.6619 -0.7393 0.9003
24.1464 5.2527 -0.6958 0.9058
23.5545 6.9162 -0.6912 0.9064
30.9686 10.3073 -0.9190 0.8776
19.1057 7.9139 -0.5823 0.9206
18.2864 9.1535 -0.5758 0.9214
23.9410 13.0728 -0.7681 0.8966
14.1011 10.5560 -0.4960 0.9319
13.7321 11.0660 -0.4966 0.9319
17.4175 16.2162 -0.6701 0.9092
16.8380 16.8380 -0.6705 0.9091
16.1186 17.3126 -0.6661 0.9097
10.8796 12.5557 -0.4678 0.9357
10.3531 12.8473 -0.4646 0.9361
9.6580 12.9016 -0.4538 0.9375
9.1456 13.1722 -0.4515 0.9378
8.7902 13.6778 -0.4578 0.9370
8.2705 13.9391 -0.4564 0.9372
8.7398 21.0998 -0.6431 0.9127
5.7035 15.2917 -0.4596 0.9368
5.1851 15.5787 -0.4623 0.9364
4.0488 15.8629 -0.4610 0.9366
3.0145 16.7085 -0.4781 0.9343
0.8586 7.9865 -0.2262 0.9684
0.5653 7.9042 -0.2231 0.9688
0.2872 8.0417 -0.2266 0.9683
-0.6552 18.3463 -0.5169 0.9292
-4.0002 27.8224 -0.7915 0.8936
-4.4986 20.6799 -0.5959 0.9188
-6.2550 21.3026 -0.6252 0.9150
-10.6855 32.1048 -0.9528 0.8734
-9.7061 23.4327 -0.7142 0.9035
-10.8321 23.7189 -0.7342 0.9009
-14.2047 26.0140 -0.8346 0.8882
-15.5513 26.2103 -0.8581 0.8852
-19.0710 29.6750 -0.9933 0.8684
-20.0620 28.8947 -0.9905 0.8687
-16.9153 16.9153 -0.6736 0.9087
34.0956 -0.0000 -1.7292 0.8724
33.3867 1.1924 -1.6943 0.8748
23.3685 5.9645 -1.2231 0.9079
19.9801 7.4522 -1.0815 0.9181
18.5951 8.4921 -1.0367 0.9214
23.9389 13.0716 -1.3832 0.8965
15.6376 10.0496 -0.9427 0.9283
14.1011 10.5559 -0.8933 0.9319
13.7310 11.0652 -0.8943 0.9318
13.1228 11.3709 -0.8806 0.9328
10.8788 12.5548 -0.8425 0.9356
9.1456 13.1721 -0.8132 0.9378
8.7896 13.6768 -0.8245 0.9370
11.1754 20.4662 -1.1826 0.9108
10.5542 21.0847 -1.1958 0.9099
5.7031 15.2906 -0.8276 0.9367
5.1847 15.5776 -0.8326 0.9364
4.5760 15.5845 -0.8237 0.9370
4.0488 15.8629 -0.8303 0.9365
3.5733 16.4263 -0.8525 0.9349
3.0143 16.7073 -0.8610 0.9343
3.4369 23.9037 -1.2247 0.9078
0.5652 7.9020 -0.4018 0.9688
-0.6552 18.3462 -0.9310 0.9291
-1.3379 18.7066 -0.9511 0.9276
-2.0855 19.3978 -0.9894 0.9248
-3.8313 21.2354 -1.0943 0.9172
-5.3098 20.8035 -1.0889 0.9176
-10.6858 32.1058 -1.7160 0.8733
-9.7050 23.4300 -1.2861 0.9034
-10.8320 23.7188 -1.3224 0.9008
-19.0382 29.6240 -1.7859 0.8685
-30.4737 37.8156 -2.4630 0.8232
-33.0705 35.5202 -2.4613 0.8233
-16.9239 16.9239 -1.2138 0.9086
-35.4980 33.0499 -2.4597 0.8234
-37.7450 30.4169 -2.4584 0.8235
-38.7975 29.0434 -2.4578 0.8236
-39.8008 27.6342 -2.4573 0.8236
-41.6558 24.7156 -2.4564 0.8237
-43.3012 21.6750 -2.4557 0.8237
-45.3596 16.9182 -2.4552 0.8237
-45.9333 15.2880 -2.4551 0.8237
-46.9075 11.9724 -2.4551 0.8237
-47.3068 10.2909 -2.4552 0.8237
-46.2539 8.3451 -2.3836 0.8284
-40.4207 4.3457 -2.0617 0.8497
-45.4638 1.6238 -2.3071 0.8334
32.4438 -0.0000 -2.3788 0.8780
28.7059 3.0862 -2.1169 0.8907
28.4661 4.0928 -2.1087 0.8911
25.7451 4.6449 -1.9182 0.9004
24.1461 5.2527 -1.8118 0.9056
30.7264 10.2267 -2.3744 0.8782
19.9800 7.4521 -1.5636 0.9180
18.5934 8.4913 -1.4987 0.9213
22.6631 13.4466 -1.9322 0.8997
15.6363 10.0488 -1.3628 0.9282
14.7272 10.2253 -1.3146 0.9306
14.1010 10.5559 -1.2915 0.9318
13.1217 11.3701 -1.2731 0.9327
17.4173 16.2161 -1.7449 0.9090
16.7919 16.7919 -1.7412 0.9092
16.0054 17.1910 -1.7222 0.9101
10.3515 12.8454 -1.2096 0.9360
9.3466 12.4856 -1.1436 0.9394
8.7889 13.6758 -1.1920 0.9369
8.2692 13.9371 -1.1882 0.9371
11.1753 20.4661 -1.7098 0.9107
5.7027 15.2894 -1.1965 0.9366
4.5760 15.5844 -1.1909 0.9369
3.5731 16.4251 -1.2325 0.9348
3.0141 16.7060 -1.2447 0.9342
3.4279 23.8413 -1.7661 0.9079
0.8562 7.9636 -0.5873 0.9684
0.0000 18.3163 -1.3430 0.9292
-0.6552 18.3461 -1.3460 0.9290
-3.9898 27.7500 -2.0556 0.8936
-3.8316 21.2374 -1.5823 0.9171
-5.3097 20.8033 -1.5743 0.9175
-8.8758 23.7970 -1.8623 0.9032
-9.6689 23.3427 -1.8526 0.9036
-15.5511 26.2099 -2.2346 0.8849
-17.1512 26.6878 -2.3261 0.8805
-18.0876 26.0511 -2.3254 0.8806
-19.0006 25.3819 -2.3247 0.8806
-15.4821 17.8673 -1.7335 0.9095
-16.9325 16.9325 -1.7558 0.9084
-23.9285 20.7341 -2.3215 0.8807
-26.9293 20.1590 -2.4665 0.8738
-27.6791 19.2180 -2.4707 0.8736
-28.3436 18.2154 -2.4704 0.8736
-29.5644 16.1434 -2.4698 0.8736
-30.1192 15.0766 -2.4696 0.8736
-31.1142 12.8879 -2.4693 0.8737
-31.9525 10.6348 -2.4692 0.8737
-32.3116 9.4875 -2.4692 0.8737
-32.6301 8.3283 -2.4692 0.8737
-33.3378 4.7933 -2.4695 0.8736
-33.4903 3.6006 -2.4697 0.8736
-32.2924 1.1533 -2.3693 0.8784
24.6862 0.8817 -2.3715 0.9055
24.4407 3.5140 -2.3706 0.9055
24.2958 4.3835 -2.3702 0.9056
24.1198 5.2469 -2.3698 0.9056
23.2805 5.9420 -2.3067 0.9080
23.4824 6.8950 -2.3496 0.9063
19.9799 7.4521 -2.0472 0.9179
19.1054 7.9137 -1.9853 0.9203
18.5247 8.4600 -1.9551 0.9214
18.1931 9.1068 -1.9532 0.9215
21.6270 11.8093 -2.3657 0.9057
21.1863 12.5704 -2.3651 0.9057
15.5805 10.0130 -1.7781 0.9283
14.7271 10.2252 -1.7213 0.9305
16.7906 16.7906 -2.2797 0.9090
9.1455 13.1720 -1.5395 0.9376
8.7883 13.6748 -1.5606 0.9368
11.1753 20.4660 -2.2387 0.9106
8.7162 21.0428 -2.1867 0.9125
5.7022 15.2883 -1.5665 0.9365
5.1839 15.5753 -1.5759 0.9362
4.5760 15.5844 -1.5593 0.9368
0.5649 7.8977 -0.7602 0.9687
0.0000 18.2475 -1.7519 0.9293
-0.6552 18.3461 -1.7624 0.9289
-2.0781 19.3287 -1.8663 0.9249
-3.4677 24.1185 -2.3393 0.9067
-9.3052 22.4647 -2.3344 0.9069
-11.6441 21.3246 -2.3326 0.9070
-13.1295 20.4299 -2.3315 0.9070
-15.3975 17.7696 -2.2573 0.9098
-15.7708 16.9390 -2.2219 0.9112
-17.2354 16.0468 -2.2608 0.9097
-18.3260 15.8795 -2.3280 0.9072
-19.9555 16.0812 -2.4605 0.9021
-21.2009 14.7200 -2.4779 0.9015
-21.7105 13.9525 -2.4776 0.9015
-22.1927 13.1676 -2.4774 0.9015
-22.6468 12.3661 -2.4772 0.9015
-23.0722 11.5491 -2.4771 0.9015
-23.4685 10.7177 -2.4769 0.9015
-23.8351 9.8728 -2.4768 0.9015
-25.6543 2.7581 -2.4771 0.9015
-25.7383 1.8408 -2.4773 0.9015
19.9155 0.7113 -2.3672 0.9229
19.8755 1.4215 -2.3670 0.9229
19.6027 3.5367 -2.3661 0.9229
19.1040 5.6094 -2.3651 0.9229
18.8885 6.2867 -2.3647 0.9229
18.6489 6.9557 -2.3643 0.9230
18.3855 7.6155 -2.3639 0.9230
18.0985 8.2653 -2.3634 0.9230
17.4558 9.5316 -2.3625 0.9230
17.1009 10.1465 -2.3620 0.9230
14.7271 10.2252 -2.1297 0.9303
14.0373 14.0373 -2.3581 0.9231
10.8391 12.5090 -1.9661 0.9355
9.1454 13.1719 -1.9048 0.9374
8.2391 13.8863 -1.9180 0.9370
9.4934 17.3859 -2.3530 0.9233
8.8643 17.7087 -2.3524 0.9233
8.2243 18.0086 -2.3517 0.9233
5.6820 15.2340 -1.9314 0.9366
5.1648 15.5178 -1.9427 0.9362
4.0487 15.8627 -1.9447 0.9362
3.0033 16.6463 -2.0093 0.9341
2.8111 19.5514 -2.3463 0.9235
0.5647 7.8955 -0.9403 0.9686
-0.6552 18.3460 -2.1806 0.9287
-1.3379 18.7064 -2.2277 0.9272
-4.1874 19.2491 -2.3400 0.9237
-5.5472 18.8920 -2.3388 0.9238
-6.8776 18.4396 -2.3378 0.9238
-8.1719 17.8940 -2.3367 0.9238
-8.8035 17.5872 -2.3362 0.9238
-9.4237 17.2583 -2.3358 0.9238
-10.0317 16.9076 -2.3353 0.9239
-6.9714 10.0407 -1.4520 0.9520
-12.3271 15.2970 -2.3336 0.9239
-13.3829 14.3743 -2.3329 0.9239
-15.7747 13.6689 -2.4794 0.9194
-17.5788 11.2972 -2.4822 0.9193
-17.9695 10.6618 -2.4820 0.9193
-18.3375 10.0130 -2.4818 0.9193
-19.0033 8.6785 -2.4816 0.9193
-19.5729 7.3003 -2.4814 0.9193
-19.8207 6.5969 -2.4814 0.9193
-20.4128 4.4405 -2.4815 0.9193
-20.5588 3.7092 -2.4815 0.9193
-20.7729 2.2333 -2.4817 0.9193
-20.8406 1.4905 -2.4819 0.9193
-20.8819 0.7458 -2.4821 0.9193
16.6875 0.0000 -2.3644 0.9348
16.6756 0.5956 -2.3643 0.9348
16.6424 1.1903 -2.3641 0.9348
16.5877 1.7834 -2.3638 0.9348
16.4149 2.9616 -2.3634 0.9348
16.2969 3.5452 -2.3631 0.9348
16.1580 4.1241 -2.3628 0.9348
15.9984 4.6976 -2.3625 0.9349
15.6182 5.8253 -2.3618 0.9349
15.1581 6.9225 -2.3611 0.9349
14.8990 7.4579 -2.3607 0.9349
14.3240 8.4988 -2.3599 0.9349
13.6762 9.4956 -2.3590 0.9349
13.3260 9.9757 -2.3586 0.9350
12.9589 10.4429 -2.3581 0.9350
12.5753 10.8966 -2.3576 0.9350
9.3460 12.4848 -2.2097 0.9389
8.7551 13.6231 -2.2945 0.9367
8.2385 13.8853 -2.2876 0.9369
7.4298 14.8429 -2.3518 0.9351
6.8937 15.0950 -2.3513 0.9352
6.3490 15.3278 -2.3507 0.9352
5.1644 15.5166 -2.3171 0.9361
4.5759 15.5842 -2.3013 0.9365
4.0487 15.8626 -2.3196 0.9360
3.5224 16.1921 -2.3479 0.9352
2.9415 16.3035 -2.3473 0.9353
2.3571 16.3942 -2.3468 0.9353
0.8525 7.9292 -1.1300 0.9683
0.5645 7.8933 -1.1213 0.9685
-0.5905 16.5330 -2.3440 0.9353
-1.1799 16.4976 -2.3435 0.9354
-2.3528 16.3642 -2.3425 0.9354
-2.9347 16.2663 -2.3420 0.9354
-3.5127 16.1478 -2.3415 0.9354
-4.6538 15.8495 -2.3405 0.9354
-6.8569 15.0144 -2.3387 0.9355
-8.9178 13.8764 -2.3372 0.9355
-6.8187 9.8208 -1.6940 0.9528
-10.7958 12.4590 -2.3358 0.9356
-12.0001 12.0001 -2.4046 0.9337
-12.8396 11.9541 -2.4857 0.9316
-13.6606 11.0084 -2.4858 0.9316
-14.0436 10.5129 -2.4856 0.9316
-14.4088 10.0042 -2.4854 0.9316
-15.0838 8.9496 -2.4851 0.9316
-15.3928 8.4051 -2.4850 0.9316
-16.2013 6.7108 -2.4847 0.9316
-16.4302 6.1281 -2.4846 0.9316
-16.8253 4.9403 -2.4846 0.9316
-17.1352 3.7275 -2.4847 0.9316
-17.2577 3.1136 -2.4847 0.9316
-17.3585 2.4958 -2.4848 0.9316
-17.4938 1.2512 -2.4850 0.9316
14.3295 0.5118 -2.3621 0.9435
14.3011 1.0228 -2.3620 0.9435
14.2544 1.5325 -2.3618 0.9435
14.1062 2.5450 -2.3614 0.9435
14.0050 3.0466 -2.3611 0.9436
13.2338 5.4816 -2.3598 0.9436
13.0280 5.9497 -2.3594 0.9436
12.8055 6.4100 -2.3591 0.9436
12.3120 7.3050 -2.3584 0.9436
12.0415 7.7386 -2.3580 0.9436
11.4550 8.5751 -2.3573 0.9436
11.1398 8.9770 -2.3569 0.9437
10.4673 9.7454 -2.3560 0.9437
10.1110 10.1109 -2.3556 0.9437
9.3604 10.8025 -2.3547 0.9437
8.9671 11.1275 -2.3543 0.9437
8.5626 11.4383 -2.3538 0.9437
7.7217 12.0152 -2.3529 0.9437
7.2865 12.2807 -2.3524 0.9438
4.0173 13.6816 -2.3490 0.9438
2.5302 14.0239 -2.3476 0.9439
0.8512 7.9176 -1.3119 0.9682
0.5644 7.8911 -1.3033 0.9684
-0.5080 14.2241 -2.3448 0.9439
-2.0244 14.0802 -2.3434 0.9440
-2.5252 13.9964 -2.3430 0.9440
-3.0226 13.8948 -2.3425 0.9440
-5.4370 13.1261 -2.3406 0.9440
-6.3576 12.7009 -2.3398 0.9440
-6.8059 12.4640 -2.3395 0.9441
-7.2454 12.2114 -2.3391 0.9441
-8.5059 11.3625 -2.3382 0.9441
-9.2926 10.7243 -2.3377 0.9441
-10.2675 11.0281 -2.4823 0.9407
-10.6819 10.6819 -2.4886 0.9406
-11.0553 10.2929 -2.4884 0.9406
-11.4147 9.8909 -2.4882 0.9406
-12.4038 8.6121 -2.4876 0.9406
-12.9851 7.7044 -2.4874 0.9406
-13.7327 6.2715 -2.4871 0.9406
-14.1446 5.2756 -2.4870 0.9406
-14.4847 4.2531 -2.4869 0.9406
-14.9435 2.1486 -2.4871 0.9406
-15.0112 1.6139 -2.4872 0.9406
-15.0599 1.0771 -2.4873 0.9406
12.5506 0.4483 -2.3605 0.9502
12.5258 0.8959 -2.3604 0.9502
12.4850 1.3423 -2.3602 0.9502
12.4282 1.7869 -2.3600 0.9502
12.3555 2.2292 -2.3599 0.9502
12.2671 2.6685 -2.3597 0.9502
12.0432 3.5362 -2.3592 0.9502
11.5924 4.8017 -2.3584 0.9502
11.4123 5.2118 -2.3582 0.9502
11.2176 5.6151 -2.3579 0.9502
11.0086 6.0112 -2.3576 0.9502
10.5489 6.7794 -2.3569 0.9502
9.4712 8.2068 -2.3556 0.9503
8.8588 8.8588 -2.3548 0.9503
8.2016 9.4651 -2.3540 0.9503
7.5029 10.0227 -2.3532 0.9503
6.7664 10.5288 -2.3524 0.9503
3.9475 11.8602 -2.3495 0.9504
3.5210 11.9914 -2.3491 0.9504
1.7773 12.3615 -2.3474 0.9504
0.8500 7.9060 -1.4946 0.9682
0.5642 7.8889 -1.4866 0.9683
0.0000 12.4798 -2.3457 0.9505
-0.4453 12.4696 -2.3453 0.9505
-0.8900 12.4437 -2.3449 0.9505
-1.7748 12.3444 -2.3441 0.9505
-2.2140 12.2712 -2.3437 0.9505
-2.6501 12.1824 -2.3434 0.9505
-3.5113 11.9586 -2.3426 0.9505
-4.3542 11.6742 -2.3419 0.9506
-5.1745 11.3306 -2.3413 0.9506
-4.3591 8.7085 -1.8305 0.9611
-6.3536 10.7084 -2.3404 0.9506
-7.4593 9.9645 -2.3396 0.9506
-9.0286 9.6974 -2.4904 0.9475
-9.6957 9.0270 -2.4900 0.9475
-10.3135 8.3111 -2.4896 0.9475
-11.1408 7.1598 -2.4892 0.9475
-11.3888 6.7573 -2.4891 0.9475
-11.6222 6.3462 -2.4890 0.9475
-11.8409 5.9271 -2.4889 0.9475
-12.0446 5.5006 -2.4888 0.9475
-12.9382 2.8145 -2.4888 0.9475
-13.0306 2.3510 -2.4888 0.9475
-13.2344 0.4727 -2.4891 0.9475
10.9026 2.3717 -2.3585 0.9554
10.4504 3.8978 -2.3576 0.9554
10.3035 4.2679 -2.3574 0.9554
10.1436 4.6324 -2.3572 0.9554
9.7851 5.3431 -2.3566 0.9554
9.1545 6.3561 -2.3558 0.9555
8.9207 6.6779 -2.3555 0.9555
8.4193 7.2954 -2.3548 0.9555
8.1524 7.5902 -2.3545 0.9555
7.8752 7.8752 -2.3542 0.9555
7.5880 8.1501 -2.3538 0.9555
6.9852 8.6681 -2.3532 0.9555
6.6704 8.9105 -2.3528 0.9555
6.3471 9.1416 -2.3524 0.9555
6.0158 9.3608 -2.3521 0.9555
5.6770 9.5681 -2.3517 0.9555
4.9784 9.9455 -2.3510 0.9555
3.8849 10.4157 -2.3498 0.9556
3.5101 10.5460 -2.3495 0.9556
1.1649 8.1020 -1.7302 0.9671
0.8487 7.8944 -1.6783 0.9681
0.5641 7.8866 -1.6713 0.9682
0.2866 8.0236 -1.6971 0.9677
-0.3198 8.9555 -1.8942 0.9640
-0.7915 11.0673 -2.3454 0.9557
-1.1859 11.0303 -2.3450 0.9557
-1.9692 10.9144 -2.3443 0.9557
-2.3571 10.8356 -2.3440 0.9557
-2.7420 10.7431 -2.3437 0.9557
-3.1233 10.6369 -2.3434 0.9557
-3.5005 10.5173 -2.3430 0.9557
-3.8731 10.3843 -2.3427 0.9557
-4.6029 10.0790 -2.3422 0.9557
-5.3090 9.7227 -2.3416 0.9557
-5.6520 9.5260 -2.3414 0.9557
-5.9878 9.3172 -2.3411 0.9557
-7.3945 9.1760 -2.4910 0.9530
-7.7198 8.9091 -2.4918 0.9529
-8.0322 8.6272 -2.4916 0.9530
-8.9064 7.7174 -2.4911 0.9530
-10.1325 6.0119 -2.4904 0.9530
-10.3403 5.6462 -2.4903 0.9530
-10.5349 5.2734 -2.4903 0.9530
-10.7161 4.8939 -2.4902 0.9530
-10.8838 4.5082 -2.4902 0.9530
-11.1774 3.7202 -2.4901 0.9530
-11.5934 2.0917 -2.4902 0.9530
-11.7137 1.2594 -2.4903 0.9530
-11.7745 0.4205 -2.4905 0.9530
10.5364 0.3763 -2.4779 0.9576
9.9303 1.4278 -2.3579 0.9596
9.8019 2.1323 -2.3575 0.9596
9.7188 2.4806 -2.3574 0.9596
9.3957 3.5044 -2.3568 0.9596
9.2638 3.8372 -2.3566 0.9596
8.7979 4.8040 -2.3559 0.9596
8.2313 5.7151 -2.3551 0.9597
7.8008 6.2862 -2.3546 0.9597
7.5705 6.5599 -2.3543 0.9597
7.3306 6.8251 -2.3540 0.9597
7.0815 7.0814 -2.3537 0.9597
6.5565 7.5666 -2.3531 0.9597
6.2814 7.7948 -2.3528 0.9597
5.9984 8.0129 -2.3524 0.9597
5.7078 8.2208 -2.3521 0.9597
5.4100 8.4181 -2.3518 0.9597
4.1545 9.0971 -2.3504 0.9597
3.4940 9.3676 -2.3498 0.9598
3.1569 9.4850 -2.3494 0.9598
1.5718 7.2255 -1.7379 0.9701
1.6538 9.1667 -2.1892 0.9624
0.5639 7.8844 -1.8577 0.9680
0.2865 8.0213 -1.8864 0.9676
-0.2666 7.4635 -1.7552 0.9698
-0.8325 7.7435 -1.8304 0.9685
-2.8098 9.5693 -2.3439 0.9598
-3.1492 9.4617 -2.3437 0.9599
-3.8153 9.2108 -2.3431 0.9599
-4.3085 8.6072 -2.2622 0.9612
-4.7765 8.7474 -2.3424 0.9599
-5.5890 8.6966 -2.4296 0.9584
-6.0402 8.6995 -2.4891 0.9574
-6.3573 8.4924 -2.4932 0.9573
-6.6558 8.2594 -2.4930 0.9574
-6.9458 8.0159 -2.4928 0.9574
-7.7612 7.2260 -2.4923 0.9574
-9.1172 5.4095 -2.4915 0.9574
-9.4793 4.7450 -2.4914 0.9574
-9.6424 4.4035 -2.4913 0.9574
-10.1706 2.9864 -2.4912 0.9574
-10.2707 2.6214 -2.4912 0.9574
-10.4926 1.5086 -2.4914 0.9574
-10.5946 0.3784 -2.4916 0.9574
9.6488 0.6901 -2.5046 0.9608
9.0108 1.2956 -2.3571 0.9631
8.9583 1.6163 -2.3569 0.9631
8.8944 1.9348 -2.3568 0.9631
8.8191 2.2509 -2.3566 0.9631
8.5260 3.1800 -2.3561 0.9631
8.1351 4.0722 -2.3555 0.9631
7.8224 4.6413 -2.3550 0.9631
7.2792 5.4492 -2.3543 0.9631
6.8705 5.9533 -2.3538 0.9631
6.6528 6.1940 -2.3535 0.9631
5.4441 7.2725 -2.3521 0.9632
5.1804 7.4612 -2.3518 0.9632
4.3515 7.9692 -2.3509 0.9632
3.1714 8.5029 -2.3497 0.9632
2.8655 8.6096 -2.3494 0.9632
2.5561 8.7052 -2.3491 0.9632
2.0840 8.1650 -2.1818 0.9658
1.2143 6.7306 -1.7708 0.9721
0.9841 6.8445 -1.7904 0.9718
-0.0000 7.3096 -1.8926 0.9702
-0.2666 7.4634 -1.9336 0.9696
-0.5436 7.6005 -1.9729 0.9690
-1.2892 8.9667 -2.3455 0.9633
-1.9251 8.8498 -2.3450 0.9633
-2.2395 8.7744 -2.3447 0.9633
-3.1636 8.4820 -2.3439 0.9633
-3.4640 8.3628 -2.3437 0.9633
-3.7599 8.2330 -2.3434 0.9633
-4.0552 8.1012 -2.3456 0.9633
-5.2047 8.0987 -2.4926 0.9610
-5.4939 7.9127 -2.4941 0.9610
-5.7724 7.7110 -2.4939 0.9610
-6.0434 7.4995 -2.4938 0.9610
-6.3068 7.2785 -2.4936 0.9610
-7.0474 6.5613 -2.4931 0.9610
-7.2767 6.3053 -2.4930 0.9610
-7.4967 6.0412 -2.4928 0.9610
-7.9078 5.4905 -2.4926 0.9610
-8.0985 5.2046 -2.4925 0.9610
-8.2788 4.9120 -2.4924 0.9610
-8.6077 4.3087 -2.4923 0.9610
-8.7558 3.9986 -2.4922 0.9610
-8.8928 3.6835 -2.4922 0.9610
-9.1328 3.0397 -2.4922 0.9610
-9.2354 2.7118 -2.4922 0.9610
-9.4055 2.0460 -2.4922 0.9610
8.8645 -0.0000 -2.5095 0.9638
8.8037 0.9465 -2.5066 0.9639
8.7491 1.2579 -2.5023 0.9639
8.4029 1.5160 -2.4172 0.9651
8.1326 1.7691 -2.3561 0.9660
7.9846 2.3445 -2.3558 0.9660
7.7960 2.9077 -2.3555 0.9660
7.4387 3.7236 -2.3549 0.9660
7.3005 3.9863 -2.3547 0.9660
7.1529 4.2440 -2.3545 0.9660
6.9962 4.4962 -2.3543 0.9660
6.8307 4.7426 -2.3541 0.9660
6.0838 5.6642 -2.3532 0.9660
5.6630 6.0824 -2.3527 0.9660
4.9787 6.6507 -2.3519 0.9661
4.2378 7.1423 -2.3511 0.9661
3.9797 7.2882 -2.3508 0.9661
3.7165 7.4247 -2.3505 0.9661
3.1766 7.6691 -2.3499 0.9661
2.9005 7.7767 -2.3497 0.9661
2.6208 7.8743 -2.3494 0.9661
1.2143 6.7306 -1.9361 0.9720
0.2573 7.2042 -2.0408 0.9705
-0.2666 7.4634 -2.1142 0.9694
-0.8229 7.6541 -2.1793 0.9685
-1.1793 8.2020 -2.3458 0.9661
-1.4711 8.1538 -2.3456 0.9661
-2.0486 8.0264 -2.3451 0.9661
-2.3335 7.9474 -2.3448 0.9662
-2.6155 7.8582 -2.3446 0.9662
-4.4975 7.5801 -2.4952 0.9640
-5.7698 6.6587 -2.4942 0.9640
-7.4091 4.7616 -2.4933 0.9640
-7.5741 4.4939 -2.4932 0.9640
-8.0106 3.6583 -2.4930 0.9641
-8.1359 3.3700 -2.4930 0.9641
-8.2509 3.0774 -2.4930 0.9641
-8.3555 2.7810 -2.4930 0.9641
-8.4494 2.4810 -2.4930 0.9641
-8.7168 1.2533 -2.4930 0.9641
-8.7562 0.9414 -2.4931 0.9641
-8.7844 0.6283 -2.4932 0.9641
-8.8015 0.3144 -2.4932 0.9640
8.1512 0.2911 -2.5087 0.9664
8.1354 0.5819 -2.5087 0.9664
8.0134 1.4458 -2.5046 0.9665
7.5983 1.9394 -2.4120 0.9677
7.3474 2.1574 -2.3553 0.9685
7.2652 2.4181 -2.3551 0.9685
7.1738 2.6757 -2.3550 0.9685
7.0732 2.9298 -2.3548 0.9685
6.8452 3.4265 -2.3545 0.9685
6.7180 3.6683 -2.3543 0.9685
6.5823 3.9054 -2.3541 0.9685
6.4382 4.1376 -2.3539 0.9685
6.2858 4.3643 -2.3537 0.9685
6.1255 4.5855 -2.3535 0.9685
5.9574 4.8008 -2.3533 0.9685
5.7817 5.0099 -2.3531 0.9685
5.5987 5.2126 -2.3528 0.9685
5.4085 5.4085 -2.3526 0.9685
5.2115 5.5976 -2.3524 0.9685
5.0079 5.7794 -2.3521 0.9685
4.7980 5.9539 -2.3519 0.9685
4.5819 6.1207 -2.3517 0.9685
4.3601 6.2797 -2.3514 0.9685
4.1327 6.4306 -2.3512 0.9685
3.6626 6.7076 -2.3507 0.9685
3.4205 6.8333 -2.3504 0.9685
2.9237 7.0584 -2.3499 0.9685
2.6696 7.1575 -2.3496 0.9685
2.4122 7.2474 -2.3494 0.9685
1.8886 7.3994 -2.3488 0.9685
1.5149 6.9640 -2.1921 0.9706
0.9841 6.8445 -2.1269 0.9715
0.5058 7.0718 -2.1807 0.9708
0.2533 7.0930 -2.1831 0.9707
-0.2618 7.3294 -2.2558 0.9698
-0.5338 7.4641 -2.3016 0.9692
-1.0855 7.5499 -2.3461 0.9686
-1.3542 7.5056 -2.3458 0.9686
-1.8858 7.3885 -2.3454 0.9686
-2.1481 7.3158 -2.3452 0.9686
-2.4076 7.2338 -2.3450 0.9686
-4.1402 6.9780 -2.4956 0.9666
-4.6268 6.6639 -2.4953 0.9666
-4.8614 6.4941 -2.4951 0.9666
-5.0898 6.3160 -2.4950 0.9666
-5.7348 5.7348 -2.4945 0.9666
-6.1287 5.3106 -2.4943 0.9666
-6.4914 4.8594 -2.4941 0.9666
-6.6605 4.6245 -2.4940 0.9666
-6.8211 4.3836 -2.4939 0.9666
-7.2500 3.6291 -2.4937 0.9666
-7.3748 3.3680 -2.4937 0.9666
-7.4902 3.1026 -2.4937 0.9666
-7.5961 2.8332 -2.4936 0.9666
-7.7789 2.2841 -2.4936 0.9666
-7.9221 1.7233 -2.4936 0.9666
-8.0250 1.1538 -2.4937 0.9666
-8.0872 0.5784 -2.4938 0.9666
-8.1029 0.2894 -2.4939 0.9666
7.5261 0.5383 -2.5081 0.9687
7.4679 1.0737 -2.5079 0.9687
7.4245 1.3395 -2.5078 0.9687
7.3685 1.6029 -2.5066 0.9687
7.2965 1.8623 -2.5032 0.9688
6.9075 2.2990 -2.4199 0.9698
6.6368 2.4754 -2.3546 0.9706
6.5438 2.7105 -2.3544 0.9706
6.3329 3.1700 -2.3541 0.9706
6.0897 3.6132 -2.3537 0.9706
5.9564 3.8279 -2.3536 0.9706
5.8155 4.0378 -2.3534 0.9706
5.5117 4.4416 -2.3530 0.9706
5.3492 4.6351 -2.3528 0.9706
4.8218 5.1790 -2.3521 0.9706
4.6334 5.3473 -2.3519 0.9706
4.4392 5.5087 -2.3517 0.9706
3.8238 5.9500 -2.3510 0.9706
3.6086 6.0820 -2.3508 0.9706
2.9369 6.4310 -2.3501 0.9706
2.4702 6.6228 -2.3496 0.9706
1.7475 6.8468 -2.3489 0.9707
1.5019 6.9041 -2.3486 0.9707
0.9664 6.7216 -2.2573 0.9718
0.4973 6.9538 -2.3174 0.9710
0.0000 7.0613 -2.3472 0.9707
-0.2520 7.0561 -2.3470 0.9707
-0.7546 7.0188 -2.3465 0.9707
-1.0045 6.9867 -2.3463 0.9707
-2.3354 7.0169 -2.4582 0.9693
-2.8718 6.9332 -2.4945 0.9689
-4.2820 6.1673 -2.4957 0.9688
-4.4992 6.0102 -2.4956 0.9688
-4.9159 5.6732 -2.4953 0.9689
-5.1150 5.4939 -2.4952 0.9689
-5.3075 5.3076 -2.4950 0.9689
-5.6722 4.9150 -2.4948 0.9689
-6.0079 4.4974 -2.4946 0.9689
-6.1644 4.2800 -2.4945 0.9689
-6.4536 3.8291 -2.4944 0.9689
-6.8256 3.1171 -2.4943 0.9689
-7.0304 2.6222 -2.4942 0.9689
-7.1195 2.3696 -2.4942 0.9689
-7.1995 2.1140 -2.4942 0.9689
-7.3844 1.3323 -2.4942 0.9689
-7.4849 0.5353 -2.4944 0.9689
7.0127 -0.0000 -2.5078 0.9706
7.0080 0.2503 -2.5077 0.9706
6.9718 0.7495 -2.5075 0.9707
6.9000 1.2449 -2.5073 0.9707
6.8509 1.4903 -2.5072 0.9707
6.6395 2.2098 -2.5024 0.9707
6.3032 2.6109 -2.4398 0.9714
5.7764 3.1542 -2.3536 0.9724
5.5359 3.5577 -2.3532 0.9724
5.4050 3.7528 -2.3531 0.9724
4.9717 4.3080 -2.3525 0.9724
4.1261 5.1201 -2.3515 0.9725
3.7496 5.4005 -2.3511 0.9725
3.3542 5.6532 -2.3507 0.9725
3.1500 5.7687 -2.3504 0.9725
2.7299 5.9776 -2.3500 0.9725
2.2961 6.1560 -2.3496 0.9725
2.0747 6.2334 -2.3493 0.9725
1.8507 6.3029 -2.3491 0.9725
1.3961 6.4176 -2.3487 0.9725
1.1660 6.4628 -2.3484 0.9725
0.0000 6.5640 -2.3473 0.9725
-0.4682 6.5461 -2.3469 0.9725
-1.7082 6.6928 -2.4701 0.9711
-2.2031 6.6193 -2.4948 0.9708
-2.6722 6.4514 -2.4971 0.9708
-3.1252 6.2434 -2.4968 0.9708
-3.5622 6.0037 -2.4964 0.9708
-3.7740 5.8724 -2.4963 0.9708
-3.9809 5.7336 -2.4961 0.9708
-4.3793 5.4344 -2.4959 0.9708
-4.5702 5.2743 -2.4957 0.9708
-4.9344 4.9344 -2.4955 0.9708
-5.1071 4.7549 -2.4954 0.9708
-5.5855 4.1813 -2.4951 0.9708
-5.7310 3.9791 -2.4950 0.9708
-6.0000 3.5600 -2.4949 0.9708
-6.3458 2.8980 -2.4948 0.9708
-6.4452 2.6697 -2.4947 0.9708
-6.5363 2.4379 -2.4947 0.9708
-6.6191 2.2030 -2.4947 0.9708
-6.6935 1.9654 -2.4947 0.9708
-6.8167 1.4829 -2.4947 0.9708
-6.9053 0.9928 -2.4948 0.9708
-6.9364 0.7458 -2.4948 0.9708
-6.9588 0.4977 -2.4949 0.9708
-6.9723 0.2490 -2.4949 0.9708
6.5258 0.4667 -2.5072 0.9724
6.5048 0.6993 -2.5071 0.9724
6.4755 0.9310 -2.5070 0.9724
6.3920 1.3905 -2.5068 0.9724
6.3380 1.6177 -2.5067 0.9724
6.0324 2.4987 -2.5022 0.9724
5.5275 3.0182 -2.4134 0.9734
5.3008 3.1451 -2.3620 0.9739
4.7799 3.8519 -2.3525 0.9740
4.1818 4.4915 -2.3517 0.9741
4.0185 4.6375 -2.3516 0.9741
3.6768 4.9116 -2.3512 0.9741
3.1299 5.2751 -2.3506 0.9741
2.9393 5.3830 -2.3504 0.9741
1.9360 5.8168 -2.3493 0.9741
1.5158 5.9390 -2.3489 0.9741
1.3028 5.9888 -2.3487 0.9741
0.8721 6.0654 -2.3483 0.9741
0.0000 6.1257 -2.3475 0.9741
-0.6642 6.1778 -2.3811 0.9737
-0.9042 6.2888 -2.4348 0.9732
-1.3829 6.3573 -2.4932 0.9725
-1.6104 6.3096 -2.4955 0.9725
-2.2776 6.1065 -2.4976 0.9725
-2.4939 6.0209 -2.4974 0.9725
-2.7071 5.9276 -2.4972 0.9725
-2.9167 5.8269 -2.4971 0.9725
-3.7154 5.3512 -2.4965 0.9725
-3.9038 5.2149 -2.4964 0.9725
-4.2655 4.9226 -2.4961 0.9725
-4.6053 4.6054 -2.4959 0.9725
-4.7666 4.4379 -2.4958 0.9725
-5.0707 4.0862 -2.4956 0.9725
-5.2131 3.9025 -2.4955 0.9725
-5.4779 3.5205 -2.4954 0.9725
-5.6000 3.3226 -2.4953 0.9725
-5.7149 3.1206 -2.4953 0.9725
-5.8225 2.9146 -2.4952 0.9725
-6.1778 2.0562 -2.4951 0.9725
-6.2473 1.8344 -2.4951 0.9725
-6.4077 1.1561 -2.4952 0.9725
-6.4948 0.4645 -2.4953 0.9725
6.1254 0.0000 -2.5070 0.9739
6.1213 0.2186 -2.5069 0.9739
6.1095 0.4370 -2.5068 0.9739
6.0898 0.6547 -2.5068 0.9739
6.0271 1.0874 -2.5066 0.9739
5.9842 1.3018 -2.5065 0.9739
5.9337 1.5145 -2.5064 0.9739
5.8756 1.7252 -2.5063 0.9739
5.4676 2.7369 -2.5024 0.9739
5.2493 3.1146 -2.4981 0.9740
5.0568 3.2498 -2.4601 0.9744
4.6460 3.4780 -2.3753 0.9752
4.4752 3.6063 -2.3523 0.9755
4.2059 3.9158 -2.3519 0.9755
4.0631 4.0631 -2.3518 0.9755
3.7624 4.3420 -2.3514 0.9755
3.6047 4.4732 -2.3512 0.9755
2.9305 4.9391 -2.3505 0.9755
2.5703 5.1347 -2.3501 0.9755
2.0062 5.3787 -2.3495 0.9755
1.8127 5.4464 -2.3493 0.9755
1.4194 5.5610 -2.3489 0.9755
1.2199 5.6076 -2.3487 0.9755
1.0189 5.6471 -2.3485 0.9755
0.6139 5.7100 -2.3504 0.9755
-0.4319 6.0393 -2.4781 0.9742
-0.6511 6.0560 -2.4929 0.9740
-1.0831 6.0031 -2.4966 0.9740
-1.7197 5.8566 -2.4982 0.9740
-1.9275 5.7911 -2.4980 0.9740
-2.3354 5.6381 -2.4977 0.9740
-2.5350 5.5508 -2.4975 0.9740
-2.7313 5.4565 -2.4974 0.9740
-2.9242 5.3552 -2.4972 0.9740
-3.1132 5.2471 -2.4971 0.9740
-3.6557 4.8835 -2.4967 0.9740
-4.1562 4.4641 -2.4963 0.9740
-4.3127 4.3127 -2.4962 0.9740
-4.4638 4.1559 -2.4961 0.9740
-4.6091 3.9938 -2.4960 0.9740
-5.0092 3.4779 -2.4958 0.9740
-5.3519 2.9223 -2.4957 0.9740
-5.5466 2.5330 -2.4956 0.9740
-5.7130 2.1309 -2.4956 0.9740
-5.7854 1.9256 -2.4955 0.9740
-5.9081 1.5079 -2.4955 0.9740
-5.9582 1.2961 -2.4956 0.9740
-6.0356 0.8678 -2.4956 0.9740
-6.0823 0.4350 -2.4957 0.9740
5.7478 0.2053 -2.5066 0.9752
5.7182 0.6148 -2.5064 0.9752
5.6924 0.8184 -2.5063 0.9752
5.6594 1.0211 -2.5063 0.9752
5.3870 2.0092 -2.5057 0.9752
5.2294 2.3882 -2.5055 0.9752
5.1406 2.5732 -2.5054 0.9752
5.0448 2.7547 -2.5050 0.9752
4.7108 3.2708 -2.4994 0.9753
4.5880 3.4345 -2.4977 0.9753
4.4280 3.5683 -2.4784 0.9755
3.8723 3.8723 -2.3866 0.9764
3.3850 4.2005 -2.3511 0.9767
3.2327 4.3184 -2.3509 0.9767
2.5844 4.7330 -2.3502 0.9767
2.4137 4.8219 -2.3500 0.9767
2.0632 4.9810 -2.3497 0.9767
1.5186 5.1718 -2.3491 0.9768
1.1468 5.2718 -2.3513 0.9767
0.7822 5.4402 -2.3953 0.9763
0.5944 5.5290 -2.4235 0.9760
0.4020 5.6200 -2.4555 0.9757
0.0000 5.7217 -2.4936 0.9753
-0.2043 5.7212 -2.4950 0.9753
-0.6127 5.6991 -2.4981 0.9753
-0.8161 5.6758 -2.4990 0.9753
-1.0180 5.6427 -2.4989 0.9753
-1.6151 5.5004 -2.4984 0.9753
-1.8102 5.4389 -2.4982 0.9753
-2.1934 5.2952 -2.4979 0.9753
-2.3808 5.2133 -2.4977 0.9753
-2.5652 5.1247 -2.4976 0.9753
-2.7463 5.0296 -2.4975 0.9753
-2.9240 4.9281 -2.4973 0.9753
-3.4335 4.5866 -2.4970 0.9753
-3.7516 4.3296 -2.4967 0.9753
-4.0506 4.0506 -2.4965 0.9753
-4.1924 3.9033 -2.4965 0.9753
-4.3289 3.7511 -2.4964 0.9753
-4.4599 3.5940 -2.4963 0.9753
-4.7047 3.2666 -2.4962 0.9753
-5.0266 2.7448 -2.4960 0.9753
-5.1213 2.5635 -2.4960 0.9753
-5.3659 2.0014 -2.4959 0.9753
-5.4339 1.8086 -2.4959 0.9753
-5.5961 1.2174 -2.4959 0.9753
-5.6688 0.8151 -2.4960 0.9753
-5.6943 0.6122 -2.4960 0.9753
5.4146 -0.0000 -2.5063 0.9764
5.4110 0.1933 -2.5063 0.9764
5.4005 0.3863 -2.5062 0.9764
5.3831 0.5788 -2.5061 0.9764
5.3278 0.9612 -2.5060 0.9764
5.1939 1.5251 -2.5057 0.9764
5.1360 1.7094 -2.5056 0.9764
5.0715 1.8916 -2.5055 0.9764
4.9232 2.2483 -2.5052 0.9764
4.8395 2.4225 -2.5051 0.9764
4.7497 2.5935 -2.5050 0.9764
4.6539 2.7613 -2.5049 0.9764
4.5521 2.9255 -2.5047 0.9764
4.4436 3.0853 -2.5041 0.9764
4.2070 3.3902 -2.5010 0.9765
4.0811 3.5363 -2.4996 0.9765
3.9503 3.6778 -2.4983 0.9765
3.8147 3.8147 -2.4971 0.9765
3.6745 3.9467 -2.4961 0.9765
3.5027 4.0423 -2.4758 0.9767
3.3309 4.1333 -2.4572 0.9769
3.1611 4.2227 -2.4416 0.9770
2.8260 4.3974 -2.4196 0.9772
2.6599 4.4830 -2.4129 0.9773
2.3287 4.6521 -2.4081 0.9773
2.1628 4.7359 -2.4100 0.9773
1.9963 4.8194 -2.4146 0.9773
0.9565 5.3015 -2.4936 0.9765
0.7669 5.3339 -2.4944 0.9765
0.5762 5.3598 -2.4953 0.9765
0.3847 5.3791 -2.4963 0.9765
0.1926 5.3918 -2.4974 0.9765
0.0000 5.3978 -2.4986 0.9765
-0.1927 5.3968 -2.4997 0.9765
-0.5772 5.3686 -2.4994 0.9765
-0.9586 5.3130 -2.4990 0.9765
-1.1475 5.2751 -2.4989 0.9765
-1.3350 5.2304 -2.4987 0.9765
-1.7045 5.1212 -2.4984 0.9765
-2.0653 4.9860 -2.4981 0.9765
-2.2418 4.9088 -2.4980 0.9765
-2.5860 4.7359 -2.4977 0.9765
-2.7532 4.6403 -2.4976 0.9765
-3.0770 4.4317 -2.4973 0.9765
-3.3850 4.2005 -2.4971 0.9765
-3.5326 4.0768 -2.4970 0.9765
-3.6757 3.9480 -2.4969 0.9765
-3.8142 3.8142 -2.4968 0.9765
-3.9477 3.6755 -2.4967 0.9765
-4.0763 3.5321 -2.4967 0.9765
-4.3176 3.2321 -2.4965 0.9765
-4.4301 3.0759 -2.4965 0.9765
-4.6381 2.7519 -2.4964 0.9765
-4.7333 2.5846 -2.4963 0.9765
-5.0527 1.8846 -2.4962 0.9765
-5.1743 1.5193 -2.4962 0.9765
-5.2252 1.3337 -2.4962 0.9765
-5.3380 0.7675 -2.4963 0.9765
5.1056 0.1824 -2.5060 0.9775
5.0957 0.3644 -2.5059 0.9775
5.0564 0.7270 -2.5058 0.9775
4.9914 1.0858 -2.5056 0.9775
4.8461 1.6129 -2.5054 0.9775
4.7853 1.7848 -2.5053 0.9775
4.7183 1.9544 -2.5051 0.9775
4.6454 2.1215 -2.5050 0.9775
4.4817 2.4472 -2.5048 0.9775
4.3913 2.6055 -2.5047 0.9775
4.2953 2.7604 -2.5045 0.9775
4.1938 2.9118 -2.5044 0.9775
3.9750 3.2032 -2.5041 0.9775
3.7345 3.4769 -2.5029 0.9775
3.4740 3.7313 -2.5007 0.9775
3.1967 3.9668 -2.4990 0.9776
2.7523 4.2826 -2.4971 0.9776
2.4390 4.4668 -2.4964 0.9776
2.1139 4.6288 -2.4961 0.9776
1.7784 4.7681 -2.4962 0.9776
1.4340 4.8839 -2.4968 0.9776
1.2590 4.9328 -2.4972 0.9776
0.7251 5.0430 -2.4991 0.9776
0.5448 5.0674 -2.5000 0.9775
0.1819 5.0936 -2.5001 0.9775
-0.1819 5.0929 -2.4998 0.9776
-0.3635 5.0829 -2.4996 0.9776
-0.5447 5.0663 -2.4995 0.9776
-1.0829 4.9781 -2.4990 0.9776
-1.2598 4.9360 -2.4988 0.9776
-1.4351 4.8876 -2.4987 0.9776
-1.6086 4.8330 -2.4986 0.9776
-1.7799 4.7722 -2.4984 0.9776
-1.9490 4.7054 -2.4983 0.9776
-2.7528 4.2835 -2.4977 0.9776
-2.9039 4.1824 -2.4976 0.9776
-3.0512 4.0759 -2.4974 0.9776
-3.3339 3.8475 -2.4973 0.9776
-3.7257 3.4688 -2.4970 0.9776
-3.8470 3.3334 -2.4969 0.9776
-4.1810 2.9029 -2.4967 0.9776
-4.2818 2.7518 -2.4967 0.9776
-4.3773 2.5972 -2.4966 0.9776
-4.4671 2.4392 -2.4966 0.9776
-4.5513 2.2782 -2.4966 0.9776
-4.6296 2.1143 -2.4965 0.9776
-4.7686 1.7786 -2.4965 0.9776
-4.8833 1.4339 -2.4965 0.9776
-5.0605 0.5441 -2.4966 0.9776
-5.0767 0.3631 -2.4966 0.9776
4.8302 -0.0000 -2.5058 0.9785
4.8270 0.1724 -2.5057 0.9785
4.8177 0.3446 -2.5057 0.9785
4.6335 1.3605 -2.5052 0.9785
4.5818 1.5250 -2.5051 0.9785
4.5243 1.6875 -2.5050 0.9785
4.4610 1.8478 -2.5049 0.9785
4.2373 2.3138 -2.5046 0.9785
4.1518 2.4634 -2.5045 0.9785
3.9651 2.7530 -2.5042 0.9785
3.8641 2.8927 -2.5041 0.9785
3.5322 3.2886 -2.5037 0.9785
3.4124 3.4124 -2.5035 0.9785
2.7507 3.9617 -2.5021 0.9785
2.4602 4.1464 -2.5012 0.9785
1.8446 4.4533 -2.5006 0.9785
1.5224 4.5742 -2.5010 0.9785
1.3584 4.6262 -2.5013 0.9785
1.1923 4.6715 -2.5012 0.9785
0.8559 4.7440 -2.5008 0.9785
0.6860 4.7712 -2.5007 0.9785
0.5152 4.7924 -2.5005 0.9785
0.3438 4.8074 -2.5003 0.9785
0.0000 4.8191 -2.5000 0.9785
-0.1720 4.8157 -2.4999 0.9785
-0.6857 4.7688 -2.4994 0.9785
-1.0240 4.7072 -2.4991 0.9785
-1.1913 4.6674 -2.4990 0.9785
-1.3570 4.6217 -2.4988 0.9785
-1.5210 4.5700 -2.4987 0.9785
-1.6831 4.5126 -2.4986 0.9785
-1.8430 4.4494 -2.4984 0.9785
-2.0005 4.3806 -2.4983 0.9785
-2.4570 4.1410 -2.4980 0.9785
-3.0208 3.7486 -2.4976 0.9785
-3.2803 3.5233 -2.4974 0.9785
-3.8532 2.8845 -2.4970 0.9785
-3.9537 2.7451 -2.4970 0.9785
-4.1393 2.4559 -2.4969 0.9785
-4.2242 2.3066 -2.4969 0.9785
-4.5665 1.5199 -2.4968 0.9785
-4.6178 1.3559 -2.4968 0.9785
-4.6633 1.1902 -2.4968 0.9785
-4.7028 1.0230 -2.4968 0.9785
-4.7364 0.8545 -2.4968 0.9785
-4.7639 0.6849 -2.4968 0.9785
-4.8007 0.3434 -2.4969 0.9785
4.5717 0.1633 -2.5055 0.9794
4.4318 1.1311 -2.5051 0.9794
4.3884 1.2886 -2.5050 0.9794
4.0891 2.0469 -2.5045 0.9794
3.8464 2.4719 -2.5042 0.9794
3.7555 2.6075 -2.5041 0.9794
3.6599 2.7397 -2.5040 0.9794
3.2320 3.2320 -2.5034 0.9794
2.6061 3.7535 -2.5027 0.9794
2.4703 3.8438 -2.5026 0.9794
1.8977 4.1553 -2.5020 0.9794
1.7480 4.2201 -2.5018 0.9794
1.2867 4.3819 -2.5013 0.9794
0.9707 4.4620 -2.5010 0.9794
0.8107 4.4935 -2.5009 0.9794
0.4880 4.5394 -2.5006 0.9794
0.1629 4.5621 -2.5003 0.9794
0.0000 4.5647 -2.5001 0.9794
-0.1629 4.5615 -2.5000 0.9794
-0.3256 4.5525 -2.4998 0.9794
-0.4879 4.5378 -2.4997 0.9794
-0.6495 4.5172 -2.4995 0.9794
-0.8102 4.4909 -2.4994 0.9794
-1.5943 4.2745 -2.4987 0.9794
-1.7458 4.2147 -2.4986 0.9794
-2.0418 4.0790 -2.4984 0.9794
-2.4658 3.8369 -2.4980 0.9794
-2.8615 3.5509 -2.4978 0.9794
-2.9863 3.4464 -2.4977 0.9794
-3.2244 3.2244 -2.4975 0.9794
-3.7452 2.6004 -2.4972 0.9794
-3.8356 2.4650 -2.4972 0.9794
-4.0015 2.1850 -2.4971 0.9794
-4.2121 1.7447 -2.4970 0.9794
-4.3258 1.4397 -2.4970 0.9794
-4.3744 1.2844 -2.4970 0.9794
-4.4174 1.1275 -2.4970 0.9794
-4.4549 0.9691 -2.4970 0.9794
-4.4867 0.8095 -2.4970 0.9794
-4.5127 0.6488 -2.4971 0.9794
-4.5331 0.4874 -2.4971 0.9794
-4.5476 0.3253 -2.4971 0.9794
-4.5564 0.1627 -2.4972 0.9794
4.3394 -0.0000 -2.5053 0.9802
4.3365 0.1549 -2.5053 0.9802
4.2948 0.6175 -2.5051 0.9802
4.2700 0.7704 -2.5051 0.9802
4.1628 1.2223 -2.5048 0.9802
4.1164 1.3700 -2.5048 0.9802
4.0647 1.5160 -2.5047 0.9802
4.0078 1.6601 -2.5046 0.9802
3.9459 1.8020 -2.5045 0.9802
3.8789 1.9416 -2.5044 0.9802
3.8070 2.0788 -2.5043 0.9802
3.4717 2.5989 -2.5038 0.9802
3.2772 2.8397 -2.5036 0.9802
3.1736 2.9547 -2.5035 0.9802
3.0659 3.0659 -2.5033 0.9802
2.8391 3.2765 -2.5031 0.9802
2.7202 3.3756 -2.5029 0.9802
2.5978 3.4703 -2.5028 0.9802
2.3434 3.6464 -2.5025 0.9802
2.2116 3.7275 -2.5024 0.9802
2.0770 3.8038 -2.5022 0.9802
1.9398 3.8753 -2.5021 0.9802
1.6582 4.0034 -2.5018 0.9802
1.3683 4.1110 -2.5015 0.9802
0.9208 4.2329 -2.5010 0.9802
0.7691 4.2628 -2.5009 0.9802
0.4630 4.3063 -2.5006 0.9802
0.3090 4.3199 -2.5005 0.9802
0.1546 4.3279 -2.5003 0.9802
-0.3089 4.3189 -2.4999 0.9802
-0.4628 4.3049 -2.4998 0.9802
-0.9202 4.2301 -2.4994 0.9802
-1.2195 4.1532 -2.4991 0.9802
-1.3669 4.1069 -2.4990 0.9802
-1.5125 4.0553 -2.4989 0.9802
-1.9371 3.8698 -2.4985 0.9802
-2.0739 3.7981 -2.4984 0.9802
-2.2080 3.7215 -2.4983 0.9802
-2.5929 3.4637 -2.4980 0.9802
-2.7148 3.3689 -2.4980 0.9802
-2.8332 3.2697 -2.4979 0.9802
-2.9480 3.1664 -2.4978 0.9802
-3.0591 3.0591 -2.4977 0.9802
-3.4630 2.5923 -2.4975 0.9802
-3.6389 2.3386 -2.4974 0.9802
-3.7200 2.2072 -2.4974 0.9802
-3.9961 1.6552 -2.4973 0.9802
-4.0526 1.5116 -2.4972 0.9802
-4.1040 1.3659 -2.4972 0.9802
-4.1910 1.0697 -2.4972 0.9802
-4.2265 0.9194 -2.4972 0.9802
-4.2567 0.7680 -2.4973 0.9802
-4.2814 0.6156 -2.4973 0.9802
-4.3007 0.4624 -2.4973 0.9802
-4.3145 0.3086 -2.4973 0.9802
-4.3228 0.1544 -2.4974 0.9802
