ply
format ascii 1.0
element vertex 1247
property float32 x
property float32 y
property float32 z
property float32 I
end_header
-25.8956 -40.2943 8.4457 0.8232
-21.2874 -38.9849 7.8321 0.8349
-17.5054 -38.3315 7.4303 0.8427
-15.4625 -37.3299 7.1246 0.8486
-13.7409 -36.8408 6.9332 0.8524
-10.5514 -35.9347 6.6038 0.8589
-3.6527 -33.9752 6.0253 0.8704
-2.4046 -33.6207 5.9434 0.8721
2.3186 -32.4183 5.7308 0.8763
3.4363 -31.9621 5.6682 0.8776
4.5683 -31.7736 5.6601 0.8778
5.6758 -31.4591 5.6367 0.8782
7.8704 -30.8361 5.6116 0.8787
10.0567 -30.2155 5.6152 0.8787
11.4322 -30.6508 5.7683 0.8756
13.2531 -31.9957 6.1065 0.8688
14.9733 -32.7869 6.3555 0.8638
-26.5363 -24.7061 5.5544 0.8635
-21.2859 -38.9823 6.8042 0.8355
-19.2192 -38.3951 6.5777 0.8405
-13.7401 -36.8386 6.0232 0.8529
-12.1066 -36.3746 5.8729 0.8563
-9.6789 -32.9633 5.2630 0.8702
-9.1016 -35.6599 5.6380 0.8616
-7.6366 -35.1049 5.5036 0.8647
-4.9579 -34.4830 5.3369 0.8685
-2.4760 -34.6187 5.3169 0.8690
-1.2385 -34.6773 5.3158 0.8690
-0.0000 -32.9362 5.0456 0.8752
1.3051 -36.5435 5.6018 0.8625
2.6456 -36.9907 5.6812 0.8606
3.4361 -31.9605 4.9244 0.8780
9.0359 -35.4023 5.5973 0.8626
10.2991 -35.0755 5.6002 0.8625
13.3351 -32.1938 5.3383 0.8685
14.9725 -32.7853 5.5215 0.8643
-26.5462 -24.7153 4.7232 0.8639
-25.8918 -40.2885 6.2364 0.8243
-12.1928 -20.5498 3.1116 0.9081
-19.5256 -35.7585 5.3055 0.8484
-16.2095 -35.4938 5.0812 0.8544
-14.7540 -35.6195 5.0206 0.8560
-7.1053 -39.3823 5.2112 0.8509
-5.6983 -39.6323 5.2140 0.8509
-3.6523 -33.9716 4.4493 0.8713
-0.0000 -32.9346 4.2888 0.8756
1.3442 -37.6374 4.9043 0.8591
3.4359 -31.9590 4.1857 0.8784
5.2521 -36.5293 4.8058 0.8617
6.5495 -36.3015 4.8035 0.8617
11.5612 -34.7359 4.7673 0.8627
11.4313 -30.6486 4.2597 0.8764
11.4238 -13.1838 2.2716 0.9321
-38.4304 -4.1317 4.1505 0.8560
-25.6409 -39.8981 5.0928 0.8263
-21.6489 -39.6470 4.8507 0.8338
-17.6699 -38.6916 4.5675 0.8427
-14.1409 -37.9133 4.3452 0.8498
-10.5495 -35.9282 4.0209 0.8602
-7.6358 -35.1011 3.8574 0.8654
-7.2576 -40.2261 4.3893 0.8484
-3.6521 -33.9699 3.6688 0.8716
-1.3772 -38.5600 4.1433 0.8562
3.4358 -31.9574 3.4514 0.8787
5.2536 -36.5395 3.9640 0.8620
6.7461 -31.0113 3.4079 0.8801
9.0511 -35.4620 3.9300 0.8631
11.5607 -34.7343 3.9310 0.8631
11.4309 -30.6476 3.5124 0.8767
-36.2309 -10.6384 3.1965 0.8593
-21.6491 -39.6474 3.8240 0.8342
-14.1411 -37.9137 3.4255 0.8501
-11.6474 -34.9947 3.1222 0.8624
-10.5489 -35.9262 3.1696 0.8604
-10.4659 -41.0050 3.5825 0.8438
-7.6353 -35.0992 3.0407 0.8657
-5.7016 -39.6557 3.3915 0.8514
-1.3776 -38.5711 3.2672 0.8565
-0.0000 -32.9313 2.7877 0.8762
1.3450 -37.6588 3.1900 0.8596
3.4356 -31.9559 2.7207 0.8790
6.7458 -31.0098 2.6865 0.8804
9.0536 -35.4717 3.0990 0.8633
10.3104 -35.1141 3.0980 0.8634
11.4305 -30.6465 2.7689 0.8770
17.0362 -41.1291 3.7685 0.8364
11.4282 -13.1889 1.4773 0.9323
46.9448 -1.6767 3.9765 0.8281
-19.5179 -20.9638 1.7762 0.8916
-25.8860 -40.2795 2.9691 0.8254
-12.1316 -20.4466 1.4743 0.9091
-21.6493 -39.6478 2.8012 0.8344
-11.2073 -33.6725 2.2007 0.8674
-10.4576 -40.9723 2.6221 0.8441
-7.2267 -40.0549 2.5239 0.8495
-5.6966 -39.6205 2.4821 0.8518
-0.0000 -24.8057 1.5382 0.9054
0.8935 -25.0168 1.5523 0.9045
2.6668 -37.2863 2.3180 0.8609
3.4354 -31.9544 1.9929 0.8791
5.2553 -36.5515 2.2899 0.8624
6.5294 -36.1898 2.2804 0.8630
6.7455 -31.0084 1.9678 0.8806
11.4301 -30.6454 2.0282 0.8771
17.0352 -41.1266 2.7604 0.8366
11.4304 -13.1915 1.0825 0.9324
46.9367 -1.6764 2.9126 0.8284
-26.5853 -24.7517 1.4323 0.8647
-26.4100 -38.0376 1.8259 0.8308
-19.3538 -30.1151 1.4115 0.8665
-12.1171 -20.4222 0.9363 0.9093
-17.6704 -38.6929 1.6773 0.8434
-15.4569 -37.3163 1.5927 0.8507
-11.1784 -33.5856 1.3957 0.8679
-10.5478 -35.9223 1.4763 0.8608
-10.4681 -41.0134 1.6690 0.8441
-7.6345 -35.0954 1.4162 0.8661
-7.2340 -40.0952 1.6065 0.8495
-5.6956 -39.6138 1.5782 0.8520
-3.6516 -33.9647 1.3470 0.8722
-2.7772 -38.8300 1.5350 0.8557
-1.3726 -38.4312 1.5163 0.8573
0.8933 -25.0118 0.9869 0.9047
2.6666 -37.2846 1.4739 0.8610
3.4353 -31.9529 1.2672 0.8793
6.7451 -31.0069 1.2512 0.8807
9.0344 -35.3964 1.4405 0.8640
10.3106 -35.1146 1.4431 0.8637
11.4297 -30.6443 1.2896 0.8773
11.4327 -13.1940 0.6884 0.9325
46.9313 -1.6762 1.8519 0.8286
-19.2117 -38.3801 0.7250 0.8422
-15.4560 -37.3141 0.6822 0.8508
-12.1024 -36.3618 0.6473 0.8579
-10.5472 -35.9203 0.6324 0.8609
-7.2259 -40.0507 0.6875 0.8498
-3.6514 -33.9630 0.5770 0.8723
-1.3711 -38.3887 0.6489 0.8576
-0.0000 -32.9265 0.5562 0.8766
3.4351 -31.9513 0.5428 0.8794
5.2168 -36.2841 0.6192 0.8636
6.2993 -34.9150 0.5993 0.8677
6.7448 -31.0054 0.5360 0.8808
10.2992 -35.0758 0.6175 0.8639
11.5434 -34.6824 0.6174 0.8640
13.9810 -30.6142 0.5685 0.8740
11.1733 -13.8652 0.3008 0.9312
11.4349 -13.1965 0.2949 0.9325
33.7064 -25.2323 0.7112 0.8450
38.8521 -5.5861 0.6630 0.8547
46.9250 -1.6760 0.7932 0.8287
-25.8805 -40.2709 -0.2695 0.8257
-12.0882 -20.3736 -0.1334 0.9096
-19.2105 -38.3776 -0.2416 0.8423
-15.4551 -37.3119 -0.2274 0.8508
-12.1017 -36.3598 -0.2158 0.8579
-10.5466 -35.9183 -0.2108 0.8609
-5.6953 -39.6115 -0.2253 0.8521
-3.6512 -33.9613 -0.1923 0.8723
3.4349 -31.9498 -0.1809 0.8794
5.2545 -36.5463 -0.2079 0.8627
9.0335 -35.3931 -0.2057 0.8641
10.3096 -35.1114 -0.2060 0.8638
11.5428 -34.6807 -0.2058 0.8640
11.1663 -13.8566 -0.1002 0.9313
11.4371 -13.1991 -0.0983 0.9325
30.4337 -7.7678 -0.1768 0.8819
-25.8787 -40.2681 -1.3478 0.8257
-12.0739 -20.3494 -0.6663 0.9097
-17.6710 -38.6941 -1.1978 0.8435
-14.1419 -37.9160 -1.1395 0.8505
-12.1010 -36.3577 -1.0790 0.8578
-10.4663 -41.0067 -1.1917 0.8442
-7.6333 -35.0899 -1.0112 0.8661
-5.6951 -39.6102 -1.1269 0.8520
-2.7768 -38.8242 -1.0960 0.8558
-0.0000 -32.9233 -0.9270 0.8766
1.3448 -37.6543 -1.0609 0.8600
5.2543 -36.5446 -1.0396 0.8627
6.5295 -36.1904 -1.0355 0.8632
9.0331 -35.3914 -1.0285 0.8640
10.3091 -35.1097 -1.0304 0.8638
11.5423 -34.6790 -1.0291 0.8639
17.0311 -41.1167 -1.2531 0.8369
13.9651 -30.5792 -0.9466 0.8741
11.1593 -13.8479 -0.5008 0.9313
11.4393 -13.2016 -0.4919 0.9325
33.7056 -25.2317 -1.1855 0.8449
40.1171 -4.3130 -1.1361 0.8509
46.9084 -1.6754 -1.3217 0.8288
-45.5774 -1.6278 -2.3129 0.8331
-45.5520 -3.2579 -2.3160 0.8328
-45.4694 -4.8884 -2.3192 0.8326
-45.1315 -8.1426 -2.3258 0.8322
-47.7834 -10.3946 -2.4800 0.8221
-47.4503 -12.1109 -2.4836 0.8219
-46.0855 -17.1890 -2.4945 0.8212
-45.5097 -18.8507 -2.4981 0.8210
-44.8743 -20.4934 -2.5018 0.8207
-44.1795 -22.1147 -2.5056 0.8205
-43.4264 -23.7126 -2.5093 0.8202
-41.6502 -26.7669 -2.5108 0.8201
-38.3393 -26.6194 -2.3671 0.8295
-29.8452 -24.0508 -1.9438 0.8577
-27.7590 -24.0533 -1.8628 0.8632
-26.0304 -24.2351 -1.8037 0.8672
-25.6325 -25.6325 -1.8384 0.8649
-31.1449 -35.9431 -2.4119 0.8266
-21.6504 -39.6497 -2.2911 0.8345
-17.6712 -38.6945 -2.1573 0.8433
-15.4532 -37.3074 -2.0479 0.8507
-14.1421 -37.9164 -2.0523 0.8504
-10.5454 -35.9143 -1.8983 0.8608
-10.4547 -40.9612 -2.1439 0.8442
-7.6329 -35.0880 -1.8211 0.8660
-3.6508 -33.9579 -1.7321 0.8722
2.6708 -37.3433 -1.8987 0.8608
5.2541 -36.5428 -1.8723 0.8625
6.5291 -36.1887 -1.8649 0.8631
6.7439 -31.0011 -1.6090 0.8807
11.4248 -34.3260 -1.8347 0.8651
11.1523 -13.8393 -0.9014 0.9313
11.4415 -13.2042 -0.8861 0.9324
29.1600 -27.1489 -2.0205 0.8525
29.1652 -25.2718 -1.9571 0.8568
29.6234 -23.8720 -1.9294 0.8587
30.3866 -22.7471 -1.9250 0.8590
31.5192 -21.8842 -1.9460 0.8575
33.1077 -21.2770 -1.9959 0.8542
44.3013 -20.2318 -2.4699 0.8228
44.8487 -18.5769 -2.4619 0.8233
31.6804 -11.8162 -1.7148 0.8733
46.0987 -13.5358 -2.4366 0.8250
46.6065 -10.1386 -2.4189 0.8261
43.9585 -7.9310 -2.2653 0.8362
47.1379 -3.3714 -2.3967 0.8276
46.7461 -1.6696 -2.3722 0.8292
-33.7277 -1.2046 -2.4746 0.8734
-33.6950 -2.4099 -2.4769 0.8733
-33.1380 -7.2087 -2.4866 0.8728
-32.8925 -8.3953 -2.4891 0.8727
-32.6047 -9.5736 -2.4916 0.8726
-30.5421 -15.2883 -2.5043 0.8720
-30.0077 -16.3855 -2.5069 0.8719
-29.4338 -17.4639 -2.5094 0.8717
-28.8211 -18.5222 -2.5120 0.8716
-28.1702 -19.5589 -2.5145 0.8715
-27.4819 -20.5727 -2.5171 0.8714
-23.6671 -22.0348 -2.3710 0.8784
-22.8878 -22.8878 -2.3733 0.8783
-19.6106 -21.0633 -2.1102 0.8910
-21.2372 -24.5091 -2.3778 0.8780
-19.4707 -26.0098 -2.3823 0.8778
-18.5527 -26.7209 -2.3852 0.8777
-16.4797 -25.6429 -2.2350 0.8849
-12.0452 -20.3011 -1.7308 0.9097
-14.6957 -29.3583 -2.4072 0.8766
-9.8338 -23.7408 -1.8842 0.9021
-8.2142 -32.1829 -2.4354 0.8753
-4.9277 -22.6521 -1.6997 0.9112
-2.3868 -33.3715 -2.4531 0.8744
3.4344 -31.9452 -2.3558 0.8791
4.7872 -33.2958 -2.4664 0.8738
5.9758 -33.1217 -2.4678 0.8737
8.3296 -32.6353 -2.4696 0.8736
9.4910 -32.3233 -2.4701 0.8736
12.8915 -31.1227 -2.4700 0.8736
13.9906 -30.6352 -2.4694 0.8736
15.0699 -30.1058 -2.4685 0.8737
17.1617 -28.9245 -2.4660 0.8738
11.1454 -13.8306 -1.3024 0.9312
11.4437 -13.2067 -1.2813 0.9323
22.7907 -24.4789 -2.4523 0.8745
19.6599 -14.7172 -1.8007 0.9062
29.4112 -14.7222 -2.4116 0.8764
29.8545 -13.6341 -2.4065 0.8767
30.2557 -12.5323 -2.4012 0.8769
30.6402 -11.4282 -2.3978 0.8771
27.5576 -7.0337 -2.0854 0.8922
32.0537 -5.7831 -2.3882 0.8775
33.2576 -4.7817 -2.4636 0.8739
34.4223 -3.7008 -2.5385 0.8704
34.5355 -1.2335 -2.5338 0.8706
-25.8228 0.0000 -2.4791 0.9014
-25.8247 -0.9223 -2.4809 0.9014
-25.7939 -1.8448 -2.4827 0.9013
-25.7305 -2.7663 -2.4845 0.9012
-25.6344 -3.6857 -2.4863 0.9012
-25.5057 -4.6017 -2.4882 0.9011
-25.1507 -6.4193 -2.4920 0.9010
-24.9247 -7.3185 -2.4939 0.9009
-24.3769 -9.0921 -2.4978 0.9007
-23.7031 -10.8249 -2.5017 0.9006
-23.3199 -11.6731 -2.5036 0.9005
-22.9063 -12.5078 -2.5056 0.9004
-22.4628 -13.3278 -2.5076 0.9004
-21.4881 -14.9195 -2.5115 0.9002
-20.9580 -15.6889 -2.5134 0.9001
-20.4003 -16.4396 -2.5153 0.9001
-18.5678 -18.5678 -2.5210 0.8999
-17.9064 -19.2328 -2.5228 0.8998
-16.9863 -19.6033 -2.4903 0.9010
-12.5325 -19.5009 -2.2255 0.9111
-11.1193 -20.3636 -2.2275 0.9110
-10.3140 -22.5846 -2.3836 0.9050
-9.5069 -22.9518 -2.3850 0.9050
-8.6866 -23.2898 -2.3864 0.9049
-7.8572 -23.6072 -2.3886 0.9049
-7.0192 -23.9052 -2.3919 0.9047
-6.1695 -24.1720 -2.3950 0.9046
-3.5627 -24.7793 -2.4034 0.9043
-2.6788 -24.9162 -2.4059 0.9042
-1.7894 -25.0197 -2.4081 0.9041
0.8974 -25.1277 -2.4139 0.9039
2.6910 -25.0298 -2.4168 0.9038
4.4737 -24.7961 -2.4190 0.9037
6.2347 -24.4275 -2.4203 0.9037
7.1037 -24.1929 -2.4207 0.9036
7.9633 -23.9258 -2.4209 0.9036
7.5746 -18.2867 -1.9003 0.9235
10.4724 -22.9314 -2.4202 0.9037
13.6088 -21.1757 -2.4166 0.9038
11.1383 -13.8219 -1.7042 0.9312
11.4459 -13.2093 -1.6780 0.9322
17.7170 -17.7171 -2.4055 0.9042
19.4451 -15.6699 -2.3975 0.9045
20.4860 -14.2237 -2.3943 0.9046
20.9718 -13.4778 -2.3933 0.9047
21.4299 -12.7150 -2.3923 0.9047
22.2611 -11.1431 -2.3900 0.9048
22.9753 -9.5167 -2.3875 0.9049
23.2874 -8.6858 -2.3862 0.9050
25.7978 -5.6120 -2.5346 0.8993
25.9650 -4.6846 -2.5330 0.8994
26.1980 -2.8166 -2.5296 0.8995
26.2638 -1.8784 -2.5279 0.8996
26.2956 -0.9392 -2.5261 0.8997
-20.7423 -2.9823 -2.4892 0.9191
-20.6352 -3.7230 -2.4907 0.9190
-20.5017 -4.4599 -2.4923 0.9190
-19.9447 -6.6382 -2.4969 0.9188
-18.8445 -9.4329 -2.5032 0.9186
-18.1464 -10.7668 -2.5064 0.9185
-17.7617 -11.4148 -2.5080 0.9185
-17.3538 -12.0490 -2.5095 0.9184
-16.9232 -12.6685 -2.5111 0.9184
-16.4704 -13.2727 -2.5127 0.9183
-15.9960 -13.8606 -2.5142 0.9183
-13.8936 -16.0341 -2.5202 0.9181
-10.5010 -17.6985 -2.4445 0.9204
-9.5805 -17.5454 -2.3746 0.9226
-7.6613 -18.4961 -2.3781 0.9225
-6.9995 -18.7664 -2.3792 0.9225
-5.6478 -19.2347 -2.3813 0.9224
-4.9597 -19.4319 -2.3822 0.9224
-4.2646 -19.6043 -2.3832 0.9224
-2.8573 -19.8730 -2.3849 0.9223
-2.1469 -19.9690 -2.3857 0.9223
-1.4332 -20.0392 -2.3865 0.9223
-0.0000 -15.3858 -1.8276 0.9399
1.0694 -14.9522 -1.7807 0.9414
2.1079 -14.6609 -1.7594 0.9421
4.2781 -19.6662 -2.3907 0.9221
6.3577 -19.1020 -2.3914 0.9221
8.3640 -18.3147 -2.3917 0.9221
9.0123 -18.0043 -2.3916 0.9221
9.3408 -12.4779 -1.8515 0.9391
10.3379 -12.8286 -1.9571 0.9358
10.9728 -12.6633 -1.9904 0.9347
11.6306 -12.4921 -2.0275 0.9336
12.3142 -12.3142 -2.0686 0.9323
14.7156 -13.7007 -2.3883 0.9222
15.1913 -13.1633 -2.3877 0.9222
16.8891 -10.8540 -2.3848 0.9223
17.2595 -10.2406 -2.3839 0.9223
18.3511 -9.1859 -2.4377 0.9207
19.9806 -7.4524 -2.5331 0.9177
20.2244 -6.7314 -2.5320 0.9177
20.4421 -6.0023 -2.5307 0.9178
20.9348 -3.7771 -2.5269 0.9179
21.1840 -1.5151 -2.5228 0.9180
21.2126 -0.7576 -2.5214 0.9181
-17.5475 0.0000 -2.4863 0.9316
-17.5199 -1.2530 -2.4887 0.9315
-17.4727 -1.8785 -2.4900 0.9315
-17.4032 -2.5022 -2.4912 0.9314
-17.3116 -3.1234 -2.4925 0.9314
-17.1980 -3.7412 -2.4938 0.9314
-16.7257 -5.5668 -2.4977 0.9313
-16.5251 -6.1635 -2.4990 0.9312
-16.3032 -6.7530 -2.5003 0.9312
-16.0603 -7.3345 -2.5016 0.9312
-15.2083 -9.0235 -2.5056 0.9311
-14.1789 -10.6142 -2.5095 0.9309
-13.7982 -11.1192 -2.5108 0.9309
-10.1463 -14.6134 -2.5207 0.9306
-9.6226 -14.9730 -2.5219 0.9306
-9.0861 -15.3137 -2.5230 0.9306
-8.5374 -15.6350 -2.5241 0.9306
-7.4064 -16.2177 -2.5262 0.9305
-6.1160 -16.3976 -2.4797 0.9317
-5.3904 -16.1955 -2.4185 0.9334
-4.1486 -16.2541 -2.3769 0.9345
-3.5670 -16.3971 -2.3776 0.9345
-1.7954 -16.6993 -2.3797 0.9344
-0.5998 -16.7934 -2.3810 0.9344
-0.0000 -15.3865 -2.1801 0.9397
0.6000 -16.8009 -2.3820 0.9343
1.7977 -16.7215 -2.3829 0.9343
2.9870 -16.5556 -2.3836 0.9343
3.5764 -16.4404 -2.3839 0.9343
4.1613 -16.3040 -2.3842 0.9343
4.7410 -16.1464 -2.3844 0.9343
8.5873 -14.4732 -2.3845 0.9343
9.3404 -12.4773 -2.2084 0.9390
10.2631 -12.7358 -2.3175 0.9361
11.4596 -12.3085 -2.3828 0.9343
13.2666 -10.6909 -2.4141 0.9335
13.9831 -10.4676 -2.4749 0.9319
14.6528 -10.1736 -2.5275 0.9305
15.0397 -9.6654 -2.5331 0.9303
15.3705 -9.1197 -2.5323 0.9303
15.9716 -7.9948 -2.5307 0.9304
16.4896 -6.8302 -2.5289 0.9304
16.9220 -5.6322 -2.5270 0.9305
17.1054 -5.0226 -2.5260 0.9305
17.5220 -3.1613 -2.5228 0.9306
17.6870 -1.9016 -2.5205 0.9307
17.7354 -1.2685 -2.5193 0.9307
17.7609 -0.6343 -2.5181 0.9307
-15.1018 -0.5394 -2.4894 0.9406
-14.7981 -3.2191 -2.4948 0.9405
-14.5438 -4.2704 -2.4971 0.9404
-14.3886 -4.7890 -2.4982 0.9404
-14.0230 -5.8085 -2.5005 0.9403
-13.0774 -7.7592 -2.5050 0.9402
-12.5019 -8.6802 -2.5073 0.9402
-12.1895 -9.1250 -2.5084 0.9401
-11.8613 -9.5585 -2.5095 0.9401
-11.5177 -9.9801 -2.5106 0.9401
-9.9972 -11.5374 -2.5149 0.9400
-8.2668 -12.8634 -2.5190 0.9399
-7.3336 -13.4305 -2.5209 0.9399
-5.8621 -14.1524 -2.5235 0.9398
-4.3198 -14.7119 -2.5260 0.9397
-3.2612 -14.9913 -2.5274 0.9397
-2.7218 -15.0858 -2.5253 0.9397
0.5164 -14.4604 -2.3837 0.9430
1.0297 -14.3969 -2.3778 0.9432
1.5431 -14.3531 -2.3781 0.9432
2.0547 -14.2909 -2.3785 0.9432
2.5638 -14.2101 -2.3788 0.9431
3.5717 -13.9937 -2.3792 0.9431
4.0692 -13.8583 -2.3794 0.9431
4.5615 -13.7050 -2.3795 0.9431
5.0479 -13.5340 -2.3796 0.9431
5.5279 -13.3455 -2.3797 0.9431
6.0008 -13.1398 -2.3797 0.9431
6.4659 -12.9171 -2.3797 0.9431
7.3798 -12.4381 -2.3826 0.9431
7.8912 -12.2790 -2.4045 0.9425
8.9499 -11.9557 -2.4603 0.9413
9.4987 -11.7872 -2.4938 0.9405
10.8670 -10.8670 -2.5318 0.9396
11.2461 -10.4704 -2.5313 0.9396
11.6104 -10.0605 -2.5309 0.9396
11.9597 -9.6378 -2.5304 0.9396
12.2935 -9.2028 -2.5298 0.9396
12.6112 -8.7561 -2.5292 0.9397
12.9126 -8.2984 -2.5286 0.9397
13.1971 -7.8302 -2.5280 0.9397
13.4646 -7.3522 -2.5273 0.9397
13.7145 -6.8650 -2.5266 0.9397
13.9466 -6.3692 -2.5258 0.9397
14.1607 -5.8656 -2.5250 0.9398
14.3565 -5.3547 -2.5242 0.9398
14.9515 -3.2525 -2.5207 0.9399
15.0525 -2.7158 -2.5198 0.9399
15.1341 -2.1760 -2.5188 0.9399
-13.1323 -1.8881 -2.4937 0.9474
-13.0615 -2.3565 -2.4947 0.9474
-12.8702 -3.2849 -2.4966 0.9474
-12.6130 -4.1980 -2.4986 0.9473
-11.6905 -6.3835 -2.5036 0.9472
-11.4598 -6.7994 -2.5046 0.9472
-11.2142 -7.2070 -2.5056 0.9472
-10.9542 -7.6056 -2.5066 0.9472
-10.3918 -8.3742 -2.5085 0.9471
-10.0902 -8.7432 -2.5095 0.9471
-9.7754 -9.1013 -2.5105 0.9471
-9.1081 -9.7828 -2.5124 0.9471
-8.3931 -10.4152 -2.5142 0.9470
-6.4214 -11.7600 -2.5185 0.9469
-5.9995 -11.9854 -2.5193 0.9469
-5.5696 -12.1957 -2.5200 0.9469
-4.2377 -12.7322 -2.5222 0.9468
-3.7816 -12.8788 -2.5229 0.9468
-3.3203 -13.0089 -2.5236 0.9468
-2.8546 -13.1224 -2.5242 0.9468
-1.9121 -13.2987 -2.5253 0.9468
-0.9589 -13.4067 -2.5264 0.9468
-0.0000 -13.4458 -2.5273 0.9467
0.4800 -13.4393 -2.5277 0.9467
2.3889 -13.2409 -2.5290 0.9467
3.3280 -13.0389 -2.5294 0.9467
3.7915 -12.9127 -2.5295 0.9467
4.7034 -12.6104 -2.5298 0.9467
5.1506 -12.4347 -2.5298 0.9467
5.5912 -12.2430 -2.5298 0.9467
6.4501 -11.8126 -2.5297 0.9467
7.6747 -11.0537 -2.5293 0.9467
8.8098 -10.1671 -2.5286 0.9467
9.5102 -9.5103 -2.5280 0.9467
9.8422 -9.1634 -2.5276 0.9467
10.4673 -8.4351 -2.5268 0.9468
11.0380 -7.6639 -2.5258 0.9468
11.3021 -7.2634 -2.5252 0.9468
11.7861 -6.4357 -2.5241 0.9468
12.3968 -5.1350 -2.5221 0.9469
12.5687 -4.6879 -2.5214 0.9469
12.9861 -3.3145 -2.5191 0.9469
13.0920 -2.8480 -2.5183 0.9469
13.2530 -1.9055 -2.5167 0.9470
13.3080 -1.4308 -2.5158 0.9470
13.3667 -0.4774 -2.5140 0.9470
-11.7821 -0.4208 -2.4921 0.9529
-11.6814 -1.6795 -2.4946 0.9529
-11.6179 -2.0961 -2.4954 0.9529
-11.5397 -2.5103 -2.4963 0.9529
-11.4467 -2.9216 -2.4972 0.9528
-11.2170 -3.7334 -2.4989 0.9528
-11.0805 -4.1328 -2.4998 0.9528
-10.7651 -4.9163 -2.5016 0.9528
-10.5865 -5.2993 -2.5025 0.9528
-9.9700 -6.4073 -2.5051 0.9527
-9.2376 -7.4441 -2.5078 0.9527
-8.9691 -7.7718 -2.5086 0.9526
-8.6890 -8.0897 -2.5095 0.9526
-8.0951 -8.6948 -2.5111 0.9526
-7.4590 -9.2561 -2.5128 0.9526
-6.7839 -9.7707 -2.5143 0.9525
-6.0733 -10.2359 -2.5159 0.9525
-4.9485 -10.8356 -2.5180 0.9525
-4.5598 -11.0083 -2.5186 0.9525
-2.9496 -11.5564 -2.5211 0.9524
-2.1185 -11.7424 -2.5222 0.9524
-0.8517 -11.9082 -2.5236 0.9524
1.2771 -11.8787 -2.5254 0.9523
2.5403 -11.6774 -2.5261 0.9523
2.9556 -11.5800 -2.5263 0.9523
3.3673 -11.4678 -2.5264 0.9523
3.7746 -11.3408 -2.5265 0.9523
5.7284 -10.4907 -2.5266 0.9523
6.4617 -10.0545 -2.5264 0.9523
6.8160 -9.8169 -2.5262 0.9523
7.4978 -9.3042 -2.5258 0.9523
7.8244 -9.0298 -2.5256 0.9523
9.0253 -7.8204 -2.5243 0.9523
9.2972 -7.4921 -2.5239 0.9524
9.5571 -7.1544 -2.5235 0.9524
9.8046 -6.8075 -2.5231 0.9524
10.4698 -5.7170 -2.5215 0.9524
10.6648 -5.3385 -2.5210 0.9524
10.8461 -4.9533 -2.5204 0.9524
11.1664 -4.1648 -2.5192 0.9524
11.3050 -3.7627 -2.5185 0.9525
11.5383 -2.9450 -2.5172 0.9525
11.6328 -2.5306 -2.5165 0.9525
11.7123 -2.1131 -2.5157 0.9525
11.7768 -1.6933 -2.5150 0.9525
11.8603 -0.8483 -2.5134 0.9525
-10.4517 -1.8857 -2.4961 0.9573
-10.2970 -2.6281 -2.4976 0.9573
-10.1998 -2.9950 -2.4984 0.9573
-10.0896 -3.3582 -2.4992 0.9572
-9.8306 -4.0720 -2.5008 0.9572
-9.6821 -4.4217 -2.5016 0.9572
-9.1627 -5.4365 -2.5040 0.9572
-8.9657 -5.7619 -2.5048 0.9572
-8.7571 -6.0802 -2.5056 0.9571
-8.5372 -6.3909 -2.5063 0.9571
-8.3062 -6.6936 -2.5071 0.9571
-7.5500 -7.5500 -2.5094 0.9571
-7.2779 -7.8170 -2.5102 0.9571
-6.7056 -8.3212 -2.5116 0.9570
-6.4062 -8.5576 -2.5123 0.9570
-6.0983 -8.7833 -2.5130 0.9570
-5.7825 -8.9978 -2.5137 0.9570
-5.4591 -9.2009 -2.5144 0.9570
-5.1286 -9.3923 -2.5151 0.9570
-4.4477 -9.7391 -2.5163 0.9570
-4.0982 -9.8940 -2.5169 0.9570
-3.7434 -10.0363 -2.5175 0.9569
-3.0192 -10.2823 -2.5186 0.9569
-2.2788 -10.4757 -2.5196 0.9569
-1.9038 -10.5523 -2.5201 0.9569
-1.5263 -10.6154 -2.5205 0.9569
-0.0000 -10.7312 -2.5221 0.9569
0.7657 -10.7064 -2.5227 0.9569
1.1475 -10.6734 -2.5230 0.9568
1.5279 -10.6267 -2.5232 0.9568
1.9064 -10.5663 -2.5234 0.9568
2.2825 -10.4923 -2.5236 0.9568
3.0255 -10.3039 -2.5239 0.9568
4.1099 -9.9222 -2.5241 0.9568
4.8073 -9.6037 -2.5241 0.9568
5.1469 -9.4259 -2.5240 0.9568
5.4799 -9.2359 -2.5240 0.9568
6.1242 -8.8206 -2.5237 0.9568
6.7369 -8.3601 -2.5234 0.9568
7.0304 -8.1136 -2.5232 0.9568
7.3148 -7.8567 -2.5229 0.9568
7.8549 -7.3132 -2.5223 0.9569
8.1099 -7.0273 -2.5220 0.9569
9.0218 -5.7980 -2.5204 0.9569
9.2213 -5.4713 -2.5200 0.9569
9.5845 -4.7977 -2.5190 0.9569
9.8981 -4.0999 -2.5180 0.9569
10.1607 -3.3818 -2.5168 0.9570
10.5863 -1.5221 -2.5136 0.9570
10.6620 -0.7626 -2.5122 0.9570
10.6794 -0.3814 -2.5115 0.9570
-9.6098 -0.6873 -2.4945 0.9610
-9.5415 -1.3719 -2.4959 0.9610
-9.4246 -2.0502 -2.4973 0.9609
-9.3481 -2.3859 -2.4980 0.9609
-9.0473 -3.3745 -2.5001 0.9609
-8.9236 -3.6963 -2.5009 0.9609
-7.9478 -5.5182 -2.5052 0.9608
-7.7479 -5.8000 -2.5059 0.9608
-7.5381 -6.0746 -2.5066 0.9608
-7.3185 -6.3415 -2.5073 0.9608
-6.8513 -6.8513 -2.5087 0.9608
-5.8126 -7.7648 -2.5113 0.9607
-5.2465 -8.1637 -2.5126 0.9607
-4.9530 -8.3478 -2.5132 0.9607
-4.6530 -8.5213 -2.5138 0.9607
-4.3469 -8.6839 -2.5144 0.9607
-3.0694 -9.2220 -2.5165 0.9606
-1.7270 -9.5719 -2.5184 0.9606
-1.0400 -9.6738 -2.5191 0.9606
-0.3474 -9.7260 -2.5198 0.9606
-0.0000 -9.7334 -2.5202 0.9606
0.3474 -9.7284 -2.5205 0.9606
1.0408 -9.6807 -2.5210 0.9606
1.7290 -9.5834 -2.5214 0.9606
2.0701 -9.5162 -2.5215 0.9606
2.4086 -9.4368 -2.5217 0.9606
3.4039 -9.1262 -2.5219 0.9606
4.0464 -8.8603 -2.5220 0.9606
4.3600 -8.7102 -2.5220 0.9606
4.6680 -8.5489 -2.5219 0.9606
5.2657 -8.1935 -2.5218 0.9606
6.1103 -7.5824 -2.5213 0.9606
6.8840 -6.8840 -2.5207 0.9606
7.1245 -6.6332 -2.5204 0.9606
7.5777 -6.1065 -2.5198 0.9606
7.7898 -5.8314 -2.5194 0.9606
8.1835 -5.2592 -2.5187 0.9606
8.3646 -4.9630 -2.5183 0.9606
8.6943 -4.3521 -2.5174 0.9606
8.8425 -4.0382 -2.5169 0.9606
8.9792 -3.7193 -2.5164 0.9606
9.1044 -3.3958 -2.5159 0.9606
9.2178 -3.0680 -2.5154 0.9607
9.3194 -2.7365 -2.5148 0.9607
9.4091 -2.4015 -2.5143 0.9607
9.5519 -1.7234 -2.5131 0.9607
9.6050 -1.3810 -2.5125 0.9607
9.6458 -1.0370 -2.5119 0.9607
9.6742 -0.6919 -2.5112 0.9607
-8.8094 0.0000 -2.4939 0.9640
-8.8059 -0.3145 -2.4945 0.9640
-8.7654 -0.9424 -2.4957 0.9640
-8.5508 -2.1825 -2.4983 0.9640
-8.4697 -2.4869 -2.4989 0.9640
-8.3777 -2.7884 -2.4996 0.9640
-8.1618 -3.3807 -2.5009 0.9639
-7.9040 -3.9565 -2.5022 0.9639
-7.6056 -4.5126 -2.5036 0.9639
-7.2681 -5.0464 -2.5049 0.9639
-7.0852 -5.3039 -2.5055 0.9639
-6.4826 -6.0356 -2.5075 0.9638
-5.8046 -6.6989 -2.5093 0.9638
-5.3145 -7.0993 -2.5105 0.9638
-5.0589 -7.2861 -2.5111 0.9638
-4.7967 -7.4637 -2.5117 0.9638
-4.5282 -7.6319 -2.5122 0.9638
-3.9739 -7.9389 -2.5133 0.9638
-3.6888 -8.0773 -2.5138 0.9638
-3.3988 -8.2054 -2.5143 0.9638
-3.1043 -8.3231 -2.5148 0.9637
-2.5036 -8.5264 -2.5157 0.9637
-1.8896 -8.6862 -2.5165 0.9637
-1.2655 -8.8015 -2.5173 0.9637
-0.9506 -8.8423 -2.5176 0.9637
-0.3175 -8.8899 -2.5183 0.9637
-0.0000 -8.8966 -2.5186 0.9637
1.2666 -8.8093 -2.5195 0.9637
1.5803 -8.7591 -2.5197 0.9637
1.8920 -8.6976 -2.5198 0.9637
2.2014 -8.6250 -2.5199 0.9637
3.4068 -8.2248 -2.5202 0.9637
4.2664 -7.8134 -2.5202 0.9637
4.8127 -7.4887 -2.5200 0.9637
5.3341 -7.1256 -2.5198 0.9637
5.5847 -6.9302 -2.5196 0.9637
5.8281 -6.7260 -2.5195 0.9637
6.5119 -6.0628 -2.5188 0.9637
6.9263 -5.5816 -2.5182 0.9637
7.1202 -5.3301 -2.5179 0.9637
7.8018 -4.2601 -2.5164 0.9637
8.2082 -3.4000 -2.5151 0.9637
8.3228 -3.1042 -2.5147 0.9637
8.5197 -2.5016 -2.5137 0.9638
8.6018 -2.1955 -2.5132 0.9638
8.7328 -1.5756 -2.5121 0.9638
8.7815 -1.2626 -2.5115 0.9638
8.8452 -0.6326 -2.5104 0.9638
-8.1067 -0.2895 -2.4950 0.9666
-8.0691 -0.8675 -2.4962 0.9666
-8.0348 -1.1552 -2.4968 0.9666
-7.9904 -1.4416 -2.4973 0.9666
-7.7961 -2.2891 -2.4991 0.9666
-7.7113 -2.5665 -2.4997 0.9666
-7.6166 -2.8408 -2.5003 0.9666
-7.5122 -3.1117 -2.5010 0.9665
-7.2746 -3.6414 -2.5022 0.9665
-6.8487 -4.4014 -2.5040 0.9665
-6.6888 -4.6441 -2.5046 0.9665
-6.5204 -4.8811 -2.5052 0.9665
-6.3435 -5.1119 -2.5058 0.9665
-5.7647 -5.7647 -2.5076 0.9665
-5.3412 -6.1641 -2.5087 0.9664
-5.1189 -6.3522 -2.5092 0.9664
-4.8900 -6.5323 -2.5098 0.9664
-4.6547 -6.7041 -2.5103 0.9664
-4.4134 -6.8674 -2.5108 0.9664
-3.9138 -7.1676 -2.5118 0.9664
-3.6562 -7.3041 -2.5123 0.9664
-3.3938 -7.4314 -2.5128 0.9664
-2.8560 -7.6573 -2.5137 0.9664
-2.5813 -7.7557 -2.5141 0.9664
-2.3032 -7.8441 -2.5145 0.9664
-2.0221 -7.9226 -2.5149 0.9664
-1.1641 -8.0968 -2.5160 0.9663
-0.5837 -8.1613 -2.5166 0.9663
0.2921 -8.1795 -2.5174 0.9663
0.5839 -8.1646 -2.5177 0.9663
1.7404 -8.0006 -2.5183 0.9663
2.0250 -7.9337 -2.5185 0.9663
2.3069 -7.8567 -2.5186 0.9663
2.5860 -7.7696 -2.5186 0.9663
2.8617 -7.6725 -2.5187 0.9663
3.4018 -7.4489 -2.5187 0.9663
3.6655 -7.3227 -2.5187 0.9663
3.9244 -7.1871 -2.5187 0.9663
4.1784 -7.0423 -2.5186 0.9663
4.4269 -6.8885 -2.5185 0.9663
4.6698 -6.7258 -2.5184 0.9663
5.3611 -6.1870 -2.5180 0.9663
5.5781 -5.9913 -2.5178 0.9663
6.1849 -5.3592 -2.5171 0.9663
6.5500 -4.9033 -2.5166 0.9663
7.0338 -4.1734 -2.5156 0.9664
7.1773 -3.9191 -2.5152 0.9664
7.6570 -2.8559 -2.5136 0.9664
7.8384 -2.3016 -2.5127 0.9664
7.9796 -1.7359 -2.5118 0.9664
8.0349 -1.4497 -2.5113 0.9664
8.1387 -0.5821 -2.5097 0.9664
8.1525 -0.2912 -2.5091 0.9664
-7.5059 0.0000 -2.4950 0.9689
-7.5027 -0.2679 -2.4955 0.9689
-7.4899 -0.5357 -2.4960 0.9688
-7.4676 -0.8028 -2.4966 0.9688
-7.3438 -1.5975 -2.4982 0.9688
-7.2143 -2.1183 -2.4993 0.9688
-7.1357 -2.3750 -2.4999 0.9688
-7.0480 -2.6288 -2.5004 0.9688
-6.9512 -2.8793 -2.5010 0.9688
-6.8456 -3.1263 -2.5016 0.9688
-6.7311 -3.3694 -2.5021 0.9688
-6.6081 -3.6083 -2.5027 0.9688
-6.4765 -3.8427 -2.5033 0.9688
-6.0327 -4.5160 -2.5049 0.9687
-5.8690 -4.7295 -2.5055 0.9687
-5.6977 -4.9370 -2.5060 0.9687
-5.5190 -5.1384 -2.5066 0.9687
-5.1405 -5.5213 -2.5076 0.9687
-4.7355 -5.8764 -2.5087 0.9687
-4.5237 -6.0429 -2.5092 0.9687
-4.3059 -6.2017 -2.5097 0.9687
-4.0826 -6.3527 -2.5101 0.9687
-3.8540 -6.4956 -2.5106 0.9687
-3.6204 -6.6302 -2.5111 0.9687
-2.8924 -6.9829 -2.5124 0.9686
-1.6078 -7.3910 -2.5143 0.9686
-1.3432 -7.4447 -2.5146 0.9686
-0.8088 -7.5234 -2.5152 0.9686
-0.2701 -7.5635 -2.5158 0.9686
1.3444 -7.4516 -2.5170 0.9686
1.6096 -7.3993 -2.5171 0.9686
2.1335 -7.2662 -2.5173 0.9686
2.3916 -7.1856 -2.5174 0.9686
2.6466 -7.0958 -2.5174 0.9686
2.8982 -6.9969 -2.5174 0.9686
3.1461 -6.8890 -2.5174 0.9686
3.3900 -6.7723 -2.5174 0.9686
3.6295 -6.6469 -2.5174 0.9686
4.3188 -6.2203 -2.5172 0.9686
4.7511 -5.8958 -2.5169 0.9686
5.1589 -5.5411 -2.5166 0.9686
5.7203 -4.9566 -2.5160 0.9686
6.0580 -4.5350 -2.5155 0.9686
6.2153 -4.3154 -2.5152 0.9686
6.5058 -3.8601 -2.5146 0.9686
6.6385 -3.6249 -2.5142 0.9686
6.7627 -3.3852 -2.5139 0.9686
6.8782 -3.1412 -2.5135 0.9686
7.1712 -2.3868 -2.5123 0.9686
7.3207 -1.8685 -2.5114 0.9687
7.4743 -1.0746 -2.5101 0.9687
7.5065 -0.8070 -2.5096 0.9687
7.5290 -0.5385 -2.5091 0.9687
7.5419 -0.2694 -2.5086 0.9687
-6.9782 0.0000 -2.4955 0.9708
-6.9751 -0.2491 -2.4959 0.9708
-6.9631 -0.4980 -2.4964 0.9708
-6.9126 -0.9939 -2.4974 0.9708
-6.8269 -1.4851 -2.4984 0.9708
-6.7709 -1.7282 -2.4989 0.9708
-6.6331 -2.2077 -2.5000 0.9707
-6.4614 -2.6764 -2.5010 0.9707
-6.2567 -3.1319 -2.5021 0.9707
-6.0198 -3.5717 -2.5031 0.9707
-5.2954 -4.5885 -2.5057 0.9707
-5.1293 -4.7756 -2.5062 0.9707
-2.9172 -6.3877 -2.5112 0.9706
-2.4548 -6.5816 -2.5120 0.9706
-1.9796 -6.7418 -2.5127 0.9706
-1.2480 -6.9175 -2.5137 0.9706
-1.0005 -6.9584 -2.5140 0.9706
-0.0000 -7.0328 -2.5150 0.9706
0.2510 -7.0289 -2.5152 0.9706
0.5018 -7.0160 -2.5154 0.9706
0.7519 -6.9941 -2.5156 0.9706
1.0012 -6.9633 -2.5157 0.9706
1.4955 -6.8748 -2.5160 0.9706
2.2221 -6.6762 -2.5162 0.9706
2.6927 -6.5009 -2.5163 0.9706
2.9231 -6.4006 -2.5163 0.9706
3.3722 -6.1757 -2.5163 0.9706
3.5904 -6.0513 -2.5162 0.9706
3.8040 -5.9191 -2.5162 0.9706
4.6068 -5.3166 -2.5157 0.9706
4.7933 -5.1484 -2.5155 0.9706
4.9737 -4.9737 -2.5154 0.9706
5.1476 -4.7926 -2.5152 0.9706
5.6289 -4.2137 -2.5145 0.9706
6.0451 -3.5867 -2.5136 0.9706
6.7376 -1.9784 -2.5111 0.9706
6.8029 -1.7363 -2.5107 0.9706
6.9070 -1.2462 -2.5099 0.9706
6.9969 -0.5004 -2.5085 0.9706
-6.5129 0.0000 -2.4959 0.9725
-6.4987 -0.4648 -2.4968 0.9725
-6.4791 -0.6966 -2.4972 0.9725
-6.2584 -1.8376 -2.4996 0.9724
-6.1138 -2.2803 -2.5006 0.9724
-6.0297 -2.4976 -2.5011 0.9724
-5.9379 -2.7117 -2.5016 0.9724
-5.4958 -3.5319 -2.5035 0.9724
-5.3673 -3.7266 -2.5040 0.9724
-5.2318 -3.9165 -2.5045 0.9724
-5.0897 -4.1015 -2.5050 0.9724
-4.7859 -4.4558 -2.5059 0.9724
-4.6247 -4.6247 -2.5064 0.9724
-4.4575 -4.7877 -2.5068 0.9724
-4.2845 -4.9446 -2.5073 0.9724
-4.1060 -5.0953 -2.5077 0.9724
-3.7334 -5.3771 -2.5086 0.9723
-3.3414 -5.6316 -2.5094 0.9723
-3.1387 -5.7482 -2.5098 0.9723
-2.9320 -5.8574 -2.5102 0.9723
-2.7215 -5.9593 -2.5106 0.9723
-2.0698 -6.2186 -2.5116 0.9723
-1.8467 -6.2894 -2.5120 0.9723
-1.6213 -6.3521 -2.5123 0.9723
-1.3937 -6.4067 -2.5126 0.9723
-0.9333 -6.4912 -2.5131 0.9723
-0.7011 -6.5211 -2.5134 0.9723
-0.0000 -6.5604 -2.5141 0.9723
0.7014 -6.5243 -2.5146 0.9723
0.9339 -6.4954 -2.5148 0.9723
1.1652 -6.4583 -2.5149 0.9723
1.6231 -6.3593 -2.5151 0.9723
1.8491 -6.2975 -2.5152 0.9723
2.2937 -6.1498 -2.5153 0.9723
2.5118 -6.0640 -2.5153 0.9723
2.7266 -5.9705 -2.5153 0.9723
2.9380 -5.8694 -2.5153 0.9723
3.1456 -5.7607 -2.5153 0.9723
3.3491 -5.6447 -2.5152 0.9723
3.5484 -5.5214 -2.5152 0.9723
3.7431 -5.3910 -2.5151 0.9723
3.9329 -5.2538 -2.5150 0.9723
4.1178 -5.1098 -2.5149 0.9723
4.2973 -4.9594 -2.5147 0.9723
4.4713 -4.8025 -2.5146 0.9723
4.6396 -4.6396 -2.5144 0.9723
4.8019 -4.4707 -2.5142 0.9723
4.9580 -4.2961 -2.5140 0.9723
5.2509 -3.9308 -2.5136 0.9723
5.5168 -3.5455 -2.5131 0.9723
5.6392 -3.3459 -2.5128 0.9723
5.7544 -3.1421 -2.5125 0.9723
5.8622 -2.9344 -2.5122 0.9723
5.9624 -2.7230 -2.5119 0.9723
6.1398 -2.2900 -2.5112 0.9723
6.4803 -0.9317 -2.5089 0.9723
-6.0857 -0.4352 -2.4971 0.9740
-6.0673 -0.6523 -2.4975 0.9740
-5.9660 -1.2978 -2.4988 0.9740
-5.4666 -2.7364 -2.5020 0.9739
-5.3665 -2.9303 -2.5025 0.9739
-4.7652 -3.8401 -2.5047 0.9739
-4.6260 -4.0084 -2.5052 0.9739
-4.4807 -4.1717 -2.5056 0.9739
-4.0112 -4.6291 -2.5069 0.9739
-3.1280 -5.2720 -2.5089 0.9739
-2.7448 -5.4833 -2.5096 0.9738
-2.1438 -5.7476 -2.5107 0.9738
-1.9375 -5.8212 -2.5110 0.9738
-1.5176 -5.9461 -2.5116 0.9738
-1.3046 -5.9971 -2.5119 0.9738
-0.8736 -6.0762 -2.5124 0.9738
-0.6563 -6.1041 -2.5126 0.9738
-0.4380 -6.1242 -2.5129 0.9738
-0.2192 -6.1364 -2.5131 0.9738
-0.0000 -6.1408 -2.5133 0.9738
0.2192 -6.1373 -2.5135 0.9738
0.4381 -6.1260 -2.5136 0.9738
1.5192 -5.9523 -2.5142 0.9738
1.7308 -5.8945 -2.5143 0.9738
1.9401 -5.8291 -2.5144 0.9738
2.1469 -5.7562 -2.5144 0.9738
2.3511 -5.6760 -2.5144 0.9738
2.9443 -5.3921 -2.5144 0.9738
3.3213 -5.1681 -2.5143 0.9738
3.5036 -5.0461 -2.5142 0.9738
3.6813 -4.9176 -2.5141 0.9738
4.0224 -4.6421 -2.5139 0.9738
4.3428 -4.3428 -2.5136 0.9738
4.4947 -4.1847 -2.5134 0.9738
4.6408 -4.0213 -2.5132 0.9738
4.7810 -3.8528 -2.5130 0.9738
5.4874 -2.7468 -2.5115 0.9738
5.7475 -2.1437 -2.5106 0.9738
5.8196 -1.9369 -2.5103 0.9738
5.8842 -1.7278 -2.5099 0.9738
5.9907 -1.3032 -2.5092 0.9739
6.0929 -0.6551 -2.5081 0.9739
6.1222 -0.2187 -2.5072 0.9739
-5.7257 -0.2045 -2.4969 0.9753
-5.7156 -0.4088 -2.4973 0.9753
-5.6983 -0.6126 -2.4977 0.9753
-5.6738 -0.8158 -2.4982 0.9753
-5.6420 -1.0179 -2.4986 0.9753
-5.4434 -1.8117 -2.5003 0.9753
-5.3762 -2.0052 -2.5007 0.9753
-5.2212 -2.3844 -2.5016 0.9753
-4.5998 -3.4433 -2.5041 0.9752
-4.4747 -3.6059 -2.5045 0.9752
-4.3438 -3.7640 -2.5050 0.9752
-4.0656 -4.0656 -2.5058 0.9752
-3.7664 -4.3467 -2.5066 0.9752
-2.9370 -4.9500 -2.5084 0.9752
-2.5771 -5.1483 -2.5091 0.9752
-2.3920 -5.2377 -2.5095 0.9752
-1.8191 -5.4655 -2.5104 0.9752
-1.6230 -5.5275 -2.5107 0.9752
-1.2248 -5.6305 -2.5112 0.9752
-1.0232 -5.6712 -2.5115 0.9752
-0.6161 -5.7308 -2.5120 0.9752
0.2058 -5.7619 -2.5127 0.9752
0.8207 -5.7079 -2.5132 0.9752
1.0239 -5.6752 -2.5133 0.9752
1.2259 -5.6352 -2.5134 0.9752
1.4263 -5.5881 -2.5135 0.9751
1.8214 -5.4724 -2.5136 0.9751
2.0156 -5.4040 -2.5136 0.9751
2.2072 -5.3286 -2.5136 0.9751
2.5817 -5.1576 -2.5136 0.9751
2.7641 -5.0621 -2.5136 0.9751
3.2892 -4.7373 -2.5134 0.9751
3.4560 -4.6167 -2.5134 0.9752
3.9292 -4.2203 -2.5130 0.9752
4.8483 -3.1158 -2.5117 0.9752
5.2402 -2.3931 -2.5106 0.9752
5.3963 -2.0127 -2.5100 0.9752
5.4640 -1.8186 -2.5097 0.9752
5.5783 -1.4238 -2.5091 0.9752
5.6248 -1.2236 -2.5087 0.9752
5.7209 -0.6151 -2.5077 0.9752
5.7384 -0.4104 -2.5073 0.9752
5.7485 -0.2053 -2.5069 0.9752
-5.3914 -0.1926 -2.4972 0.9765
-5.3819 -0.3849 -2.4976 0.9765
-5.3424 -0.7681 -2.4983 0.9765
-5.3124 -0.9585 -2.4987 0.9765
-5.2757 -1.1476 -2.4991 0.9765
-5.1820 -1.5216 -2.4999 0.9765
-5.0619 -1.8880 -2.5007 0.9765
-4.9921 -2.0678 -2.5011 0.9765
-4.9159 -2.2450 -2.5015 0.9765
-4.8334 -2.4194 -2.5020 0.9765
-4.5493 -2.9237 -2.5032 0.9764
-3.8275 -3.8275 -2.5055 0.9764
-3.6890 -3.9622 -2.5059 0.9764
-3.5457 -4.0920 -2.5063 0.9764
-3.3979 -4.2166 -2.5066 0.9764
-3.0893 -4.4495 -2.5074 0.9764
-2.7648 -4.6598 -2.5080 0.9764
-2.5971 -4.7561 -2.5084 0.9764
-2.0745 -5.0084 -2.5093 0.9764
-1.8947 -5.0798 -2.5096 0.9764
-1.5278 -5.2032 -2.5102 0.9764
-0.9631 -5.3383 -2.5109 0.9764
-0.7721 -5.3698 -2.5111 0.9764
-0.3871 -5.4120 -2.5115 0.9764
-0.1937 -5.4228 -2.5117 0.9764
0.3872 -5.4135 -2.5122 0.9764
1.1539 -5.3042 -2.5127 0.9764
1.3425 -5.2598 -2.5128 0.9764
1.5294 -5.2087 -2.5128 0.9764
1.7144 -5.1509 -2.5129 0.9764
1.8972 -5.0865 -2.5129 0.9764
2.7701 -4.6687 -2.5129 0.9764
3.0960 -4.4590 -2.5127 0.9764
3.2530 -4.3456 -2.5127 0.9764
3.4059 -4.2265 -2.5126 0.9764
3.5545 -4.1021 -2.5125 0.9764
3.6984 -3.9724 -2.5123 0.9764
3.8376 -3.8376 -2.5122 0.9764
3.9719 -3.6980 -2.5120 0.9764
4.1011 -3.5537 -2.5119 0.9764
4.2251 -3.4048 -2.5117 0.9764
4.3436 -3.2516 -2.5115 0.9764
4.5637 -2.9329 -2.5111 0.9764
4.7604 -2.5994 -2.5106 0.9764
4.8497 -2.4276 -2.5104 0.9764
5.1435 -1.7119 -2.5093 0.9764
5.2512 -1.3403 -2.5086 0.9764
5.3321 -0.9620 -2.5080 0.9764
5.3856 -0.5790 -2.5073 0.9764
5.4117 -0.1933 -2.5066 0.9764
-5.0881 -0.1817 -2.4974 0.9776
-5.0637 -0.5444 -2.4982 0.9776
-5.0418 -0.7249 -2.4985 0.9776
-5.0134 -0.9045 -2.4989 0.9776
-4.8902 -1.4359 -2.5000 0.9775
-4.8366 -1.6098 -2.5004 0.9775
-4.6389 -2.1185 -2.5015 0.9775
-4.5610 -2.2831 -2.5019 0.9775
-4.4773 -2.4448 -2.5023 0.9775
-4.2928 -2.7588 -2.5031 0.9775
-4.1922 -2.9107 -2.5035 0.9775
-4.0863 -3.0589 -2.5038 0.9775
-3.7375 -3.4798 -2.5049 0.9775
-3.4808 -3.7386 -2.5057 0.9775
-3.3456 -3.8610 -2.5060 0.9775
-3.2061 -3.9785 -2.5064 0.9775
-2.9149 -4.1982 -2.5070 0.9775
-2.4503 -4.4875 -2.5080 0.9775
-2.2889 -4.5726 -2.5083 0.9775
-1.9573 -4.7253 -2.5089 0.9775
-1.7876 -4.7927 -2.5091 0.9775
-1.4414 -4.9091 -2.5097 0.9775
-1.2654 -4.9579 -2.5099 0.9775
-1.0878 -5.0003 -2.5101 0.9775
-0.9087 -5.0364 -2.5104 0.9775
-0.7284 -5.0661 -2.5106 0.9775
-0.5472 -5.0893 -2.5108 0.9775
-0.0000 -5.1197 -2.5113 0.9774
0.1827 -5.1167 -2.5115 0.9774
0.3653 -5.1072 -2.5116 0.9774
0.5474 -5.0912 -2.5117 0.9774
0.7288 -5.0686 -2.5119 0.9774
1.7898 -4.7987 -2.5123 0.9774
1.9600 -4.7318 -2.5123 0.9774
2.1276 -4.6588 -2.5123 0.9774
2.4545 -4.4951 -2.5123 0.9774
2.9208 -4.2067 -2.5121 0.9774
3.0690 -4.0997 -2.5120 0.9774
3.2132 -3.9874 -2.5119 0.9774
3.3534 -3.8700 -2.5118 0.9774
3.4892 -3.7477 -2.5117 0.9774
3.7472 -3.4888 -2.5114 0.9774
3.8691 -3.3526 -2.5113 0.9774
3.9861 -3.2122 -2.5111 0.9775
4.2045 -2.9192 -2.5108 0.9775
4.3056 -2.7671 -2.5105 0.9775
4.5755 -2.2903 -2.5099 0.9775
4.6539 -2.1254 -2.5096 0.9775
4.7263 -1.9577 -2.5094 0.9775
4.9068 -1.4408 -2.5085 0.9775
5.0309 -0.9077 -2.5076 0.9775
5.0594 -0.7274 -2.5073 0.9775
5.0815 -0.5463 -2.5070 0.9775
5.0971 -0.3646 -2.5066 0.9775
-4.8114 -0.1718 -2.4977 0.9785
-4.8029 -0.3435 -2.4980 0.9785
-4.7882 -0.5148 -2.4983 0.9785
-4.7675 -0.6855 -2.4987 0.9785
-4.7077 -1.0241 -2.4994 0.9785
-4.6240 -1.3577 -2.5001 0.9785
-4.5732 -1.5221 -2.5005 0.9785
-4.4543 -1.8450 -2.5012 0.9785
-4.3862 -2.0031 -2.5015 0.9785
-4.0589 -2.6085 -2.5030 0.9785
-3.9637 -2.7521 -2.5033 0.9785
-3.8635 -2.8922 -2.5037 0.9785
-3.6484 -3.1613 -2.5044 0.9785
-3.0311 -3.7614 -2.5061 0.9785
-2.8953 -3.8677 -2.5064 0.9785
-2.3166 -4.2425 -2.5076 0.9785
-2.1639 -4.3229 -2.5079 0.9785
-1.6900 -4.5309 -2.5087 0.9784
-0.5172 -4.8111 -2.5103 0.9784
-0.3452 -4.8268 -2.5105 0.9784
-0.1727 -4.8364 -2.5106 0.9784
-0.0000 -4.8398 -2.5108 0.9784
0.1727 -4.8370 -2.5109 0.9784
0.8595 -4.7640 -2.5114 0.9784
1.0290 -4.7305 -2.5115 0.9784
1.3640 -4.6452 -2.5116 0.9784
1.6919 -4.5362 -2.5117 0.9784
1.8528 -4.4730 -2.5117 0.9784
2.0112 -4.4040 -2.5117 0.9784
2.1671 -4.3294 -2.5117 0.9784
2.4704 -4.1637 -2.5116 0.9784
3.1700 -3.6584 -2.5113 0.9784
3.5424 -3.2981 -2.5109 0.9784
3.7682 -3.0366 -2.5106 0.9784
4.0703 -2.6158 -2.5101 0.9784
4.1607 -2.4687 -2.5099 0.9784
4.3255 -2.1652 -2.5094 0.9784
4.3996 -2.0092 -2.5092 0.9784
4.4681 -1.8507 -2.5089 0.9784
4.5308 -1.6899 -2.5087 0.9784
4.5878 -1.5270 -2.5084 0.9784
4.6389 -1.3621 -2.5081 0.9784
4.7231 -1.0275 -2.5076 0.9785
4.7562 -0.8581 -2.5073 0.9785
4.8042 -0.5165 -2.5067 0.9785
-4.5577 -0.1628 -2.4979 0.9794
-4.5496 -0.3254 -2.4982 0.9794
-4.5357 -0.4876 -2.4985 0.9794
-4.4224 -1.1288 -2.4998 0.9794
-4.3799 -1.2861 -2.5002 0.9794
-4.3318 -1.4418 -2.5005 0.9794
-4.2191 -1.7476 -2.5012 0.9794
-4.0848 -2.0447 -2.5019 0.9794
-4.0097 -2.1895 -2.5022 0.9794
-3.7543 -2.6066 -2.5032 0.9794
-3.2339 -3.2339 -2.5049 0.9794
-3.1168 -3.3477 -2.5052 0.9794
-2.7421 -3.6631 -2.5062 0.9793
-2.4744 -3.8503 -2.5067 0.9793
-1.9021 -4.1651 -2.5078 0.9793
-1.2905 -4.3951 -2.5088 0.9793
-0.8135 -4.5090 -2.5094 0.9793
-0.1636 -4.5801 -2.5101 0.9793
-0.0000 -4.5833 -2.5103 0.9793
0.4900 -4.5577 -2.5107 0.9793
0.6524 -4.5375 -2.5108 0.9793
0.8140 -4.5115 -2.5109 0.9793
1.1338 -4.4422 -2.5110 0.9793
1.6022 -4.2958 -2.5111 0.9793
1.7546 -4.2359 -2.5111 0.9793
2.0522 -4.0999 -2.5111 0.9793
2.4787 -3.8569 -2.5111 0.9793
2.8765 -3.5695 -2.5108 0.9793
3.1236 -3.3550 -2.5106 0.9793
3.4638 -3.0014 -2.5103 0.9793
3.5685 -2.8757 -2.5101 0.9793
3.6686 -2.7463 -2.5100 0.9793
3.7641 -2.6134 -2.5098 0.9793
3.8547 -2.4772 -2.5096 0.9793
4.1666 -1.9028 -2.5088 0.9793
4.2909 -1.6004 -2.5083 0.9793
4.3933 -1.2900 -2.5078 0.9793
4.4360 -1.1322 -2.5075 0.9793
4.4731 -0.9731 -2.5073 0.9793
4.5640 -0.3264 -2.5061 0.9793
4.5722 -0.1633 -2.5058 0.9794
-4.3240 -0.1544 -2.4981 0.9802
-4.3030 -0.4626 -2.4987 0.9802
-4.2843 -0.6160 -2.4990 0.9802
-4.2601 -0.7686 -2.4993 0.9802
-4.2305 -0.9203 -2.4996 0.9802
-4.1955 -1.0708 -2.4999 0.9802
-4.1551 -1.2201 -2.5002 0.9802
-4.0586 -1.5138 -2.5009 0.9802
-4.0025 -1.6579 -2.5012 0.9802
-3.7277 -2.2118 -2.5025 0.9802
-3.6469 -2.3437 -2.5028 0.9802
-3.2779 -2.8403 -2.5041 0.9802
-3.0677 -3.0677 -2.5047 0.9802
-2.9566 -3.1756 -2.5050 0.9802
-2.7231 -3.3792 -2.5056 0.9802
-2.4757 -3.5657 -2.5062 0.9802
-2.3471 -3.6522 -2.5065 0.9801
-2.2155 -3.7340 -2.5067 0.9801
-2.0810 -3.8111 -2.5070 0.9801
-1.8042 -3.9507 -2.5075 0.9801
-1.3720 -4.1220 -2.5082 0.9801
-1.0746 -4.2101 -2.5086 0.9801
-0.9237 -4.2461 -2.5088 0.9801
-0.7716 -4.2767 -2.5090 0.9801
-0.6185 -4.3019 -2.5092 0.9801
-0.4646 -4.3215 -2.5094 0.9801
-0.3101 -4.3356 -2.5095 0.9801
0.1552 -4.3446 -2.5100 0.9801
0.4648 -4.3229 -2.5102 0.9801
0.6188 -4.3037 -2.5103 0.9801
0.7720 -4.2790 -2.5104 0.9801
0.9243 -4.2489 -2.5105 0.9801
1.0754 -4.2133 -2.5105 0.9801
1.2251 -4.1723 -2.5106 0.9801
1.5197 -4.0744 -2.5106 0.9801
1.6641 -4.0176 -2.5107 0.9801
2.0840 -3.8166 -2.5106 0.9801
2.2189 -3.7398 -2.5106 0.9801
2.3509 -3.6581 -2.5106 0.9801
2.9626 -3.1821 -2.5102 0.9801
3.3847 -2.7275 -2.5097 0.9801
3.5702 -2.4788 -2.5094 0.9801
3.8854 -1.9449 -2.5086 0.9801
3.9521 -1.8049 -2.5084 0.9801
4.0136 -1.6625 -2.5082 0.9801
4.0700 -1.5180 -2.5080 0.9801
4.1212 -1.3717 -2.5077 0.9801
4.1671 -1.2236 -2.5075 0.9801
4.2077 -1.0740 -2.5072 0.9801
4.3370 -0.1549 -2.5056 0.9802
