ply
format ascii 1.0
element vertex 1276
property float32 x
property float32 y
property float32 z
property float32 I
end_header
-19.4845 -42.6651 8.2704 0.8265
-15.1135 -40.5208 7.6257 0.8389
-9.6594 -37.8451 6.8870 0.8533
-8.0622 -37.0616 6.6878 0.8572
-6.5530 -36.3212 6.5078 0.8608
-5.1212 -35.6187 6.3451 0.8640
-3.7575 -34.9497 6.1981 0.8670
-1.2035 -33.6966 5.9454 0.8720
1.1620 -32.5361 5.7406 0.8761
3.3962 -31.5887 5.6020 0.8789
6.5353 -30.0421 5.4211 0.8826
7.5810 -29.7019 5.4051 0.8829
10.7122 -28.7204 5.4050 0.8829
16.1277 -29.5357 5.9338 0.8722
24.0490 -1.7200 4.2513 0.9067
-19.5958 -24.3169 4.7842 0.8813
-12.2549 -22.4433 3.9174 0.9017
-13.1695 -39.5679 6.3885 0.8447
-11.3571 -38.6788 6.1755 0.8495
-9.6596 -37.8460 5.9837 0.8538
-6.5826 -36.4852 5.6796 0.8607
0.0000 -37.2168 5.7014 0.8602
1.1621 -32.5367 4.9876 0.8766
2.3747 -33.2019 5.0993 0.8740
3.9362 -36.6117 5.6410 0.8616
5.6002 -31.0397 4.8319 0.8802
7.5764 -34.8280 5.4602 0.8657
8.4952 -28.9319 4.6193 0.8851
12.2008 -32.7116 5.3485 0.8682
15.5091 -33.9602 5.7194 0.8598
16.7060 -33.3744 5.7175 0.8598
16.1280 -29.5363 5.1554 0.8727
-19.5942 -24.3149 4.0664 0.8816
-12.2510 -22.4361 3.3288 0.9020
-21.9673 -43.8851 6.3907 0.8204
-19.4856 -42.6675 6.1082 0.8276
-14.0205 -37.5904 5.2245 0.8506
-11.1940 -38.1232 5.1740 0.8519
-8.1183 -37.3192 4.9734 0.8572
-5.1214 -35.6203 4.6862 0.8649
-4.2941 -39.9413 5.2312 0.8504
-2.4540 -34.3115 4.4795 0.8704
0.0000 -38.5536 5.0205 0.8560
4.4465 -30.9259 4.0686 0.8816
7.5790 -34.8401 4.6430 0.8660
8.7806 -34.4021 4.6235 0.8666
11.0324 -33.1470 4.5492 0.8686
12.2050 -32.7229 4.5480 0.8686
11.3943 -27.5083 3.8773 0.8868
18.6664 -40.8737 5.8514 0.8342
20.1069 -40.1684 5.8495 0.8343
-19.5919 -24.3121 3.3529 0.8820
-25.2706 -42.5914 5.3180 0.8194
-18.0887 -43.6700 5.0757 0.8268
-15.1163 -40.5285 4.6449 0.8403
-9.6600 -37.8475 4.1944 0.8546
-7.6322 -42.3029 4.6159 0.8412
-5.1215 -35.6210 3.8644 0.8652
-4.3940 -40.8704 4.4140 0.8476
-2.4540 -34.3122 3.6939 0.8708
-1.2351 -34.5812 3.7158 0.8700
0.0000 -38.5683 4.1415 0.8563
1.1621 -32.5380 3.4962 0.8772
3.9391 -36.6385 3.9570 0.8622
5.6004 -31.0406 3.3870 0.8808
7.5816 -34.8522 3.8300 0.8663
8.4955 -28.9329 3.2380 0.8858
11.0362 -33.1583 3.7526 0.8688
12.2092 -32.7342 3.7516 0.8689
16.1287 -29.5374 3.6138 0.8734
17.4333 -29.3822 3.6687 0.8716
8.9956 -11.1628 1.5395 0.9440
26.8190 -2.8833 2.8965 0.8972
-12.2432 -22.4218 2.1626 0.9025
-22.0051 -43.9606 4.1616 0.8209
-16.3062 -39.3669 3.6071 0.8428
-15.1149 -40.5246 3.6614 0.8406
-11.6000 -39.5060 3.4855 0.8477
-9.6602 -37.8484 3.3067 0.8549
-8.1184 -37.3197 3.2331 0.8579
-4.3958 -40.8868 3.4811 0.8478
-2.4541 -34.3129 2.9121 0.8710
-1.2351 -34.5816 2.9293 0.8703
1.1621 -32.5386 2.7562 0.8775
2.3747 -33.2029 2.8179 0.8749
4.4466 -30.9270 2.6450 0.8821
7.5843 -34.8644 3.0204 0.8666
11.3947 -27.5093 2.5206 0.8873
10.0120 -20.0014 1.8935 0.9141
17.4336 -29.3828 2.8922 0.8718
9.4450 -10.9001 1.2209 0.9437
26.8408 -2.8857 2.2852 0.8973
-19.5765 -24.2930 1.9347 0.8825
-12.2394 -22.4148 1.5837 0.9027
-19.4872 -42.6711 2.9089 0.8286
-15.3496 -46.1182 3.0140 0.8230
-11.6001 -39.5062 2.5532 0.8479
-8.1184 -37.3199 2.3683 0.8581
-7.6297 -42.2887 2.6647 0.8418
-4.3748 -40.6916 2.5378 0.8487
-1.2351 -34.5818 2.1458 0.8705
0.0000 -24.3046 1.5071 0.9072
2.3748 -33.2032 2.0642 0.8751
3.9360 -36.6101 2.2833 0.8628
4.4467 -30.9276 1.9376 0.8823
8.7528 -34.2933 2.1947 0.8678
11.3949 -27.5098 1.8464 0.8875
8.5806 -18.7888 1.2808 0.9206
9.9689 -19.9154 1.3810 0.9146
16.1293 -29.5386 2.0870 0.8738
9.4472 -10.9026 0.8946 0.9438
17.9100 -15.5191 1.4695 0.9094
-12.2355 -22.4077 1.0067 0.9028
-22.0053 -43.9611 1.9385 0.8214
-15.8201 -38.1931 1.6301 0.8475
-9.6607 -37.8501 1.5403 0.8552
-8.1185 -37.3202 1.5060 0.8582
-7.6384 -42.3369 1.6963 0.8418
-5.1219 -35.6233 1.4191 0.8658
-1.2351 -34.5821 1.3645 0.8706
1.1622 -32.5399 1.2839 0.8778
2.3748 -33.2036 1.3126 0.8752
3.9361 -36.6109 1.4519 0.8629
4.4468 -30.9282 1.2321 0.8824
5.6006 -31.0420 1.2438 0.8814
7.5849 -34.8671 1.4070 0.8669
12.1663 -32.6190 1.3728 0.8699
16.1296 -29.5391 1.3271 0.8740
17.4343 -29.3839 1.3472 0.8722
9.0067 -11.1767 0.5660 0.9442
9.4494 -10.9051 0.5690 0.9439
21.7684 -23.3809 1.2597 0.8800
17.9101 -15.5192 0.9345 0.9095
26.8799 -11.1340 1.1470 0.8901
43.7401 -12.8433 1.7975 0.8332
26.8842 -2.8904 1.0662 0.8974
-19.5742 -24.2902 0.5269 0.8827
-22.0054 -43.9613 0.8304 0.8215
-19.4883 -42.6735 0.7924 0.8289
-15.1161 -40.5278 0.7307 0.8411
-15.3338 -46.0707 0.8202 0.8235
-9.6609 -37.8510 0.6599 0.8553
-1.2351 -34.5824 0.5845 0.8707
3.8597 -35.9004 0.6099 0.8655
8.4421 -33.0758 0.5766 0.8724
11.0284 -33.1350 0.5899 0.8696
12.1529 -32.5832 0.5874 0.8701
11.3953 -27.5108 0.5030 0.8877
15.0022 -27.4745 0.5288 0.8823
17.4347 -29.3845 0.5772 0.8722
9.0105 -11.1813 0.2426 0.9442
17.9103 -15.5194 0.4003 0.9095
33.9569 -18.5419 0.6535 0.8566
26.9059 -2.8927 0.4571 0.8974
-19.5741 -24.2900 -0.1756 0.8827
-22.0055 -43.9615 -0.2768 0.8215
-15.3672 -46.1713 -0.2740 0.8231
-11.6003 -39.5069 -0.2318 0.8481
-7.6467 -42.3827 -0.2425 0.8418
-4.3845 -40.7820 -0.2309 0.8487
-2.4543 -34.3157 -0.1937 0.8714
-1.2351 -34.5827 -0.1948 0.8707
0.0000 -24.3059 -0.1368 0.9074
2.3749 -33.2043 -0.1874 0.8753
3.8972 -36.2490 -0.2053 0.8643
4.4422 -30.8963 -0.1757 0.8826
8.5907 -33.6580 -0.1956 0.8703
11.0409 -33.1726 -0.1968 0.8695
12.1667 -32.6202 -0.1960 0.8700
14.9494 -27.3777 -0.1756 0.8827
9.0142 -11.1859 -0.0809 0.9442
9.4537 -10.9102 -0.0813 0.9439
26.8805 -11.1342 -0.1639 0.8901
-12.2240 -22.3866 -0.7182 0.9030
-15.1168 -40.5298 -1.2180 0.8411
-9.6613 -37.8527 -1.1000 0.8553
-7.6468 -42.3837 -1.2127 0.8417
-5.1222 -35.6256 -1.0135 0.8659
0.0000 -24.3064 -0.6844 0.9073
2.3749 -33.2047 -0.9374 0.8753
3.8973 -36.2503 -1.0266 0.8642
4.4470 -30.9299 -0.8799 0.8825
5.6008 -31.0433 -0.8882 0.8814
7.4163 -34.0921 -0.9824 0.8697
8.5908 -33.6585 -0.9781 0.8702
8.4964 -28.9360 -0.8492 0.8863
11.3957 -27.5117 -0.8385 0.8877
14.9513 -27.3812 -0.8784 0.8826
17.4353 -29.3857 -0.9621 0.8722
9.4559 -10.9127 -0.4066 0.9439
33.9584 -18.5427 -1.0895 0.8566
26.9494 -2.8974 -0.7632 0.8972
-46.1610 -4.9628 -2.3545 0.8303
-45.2900 -9.8522 -2.3506 0.8306
-46.1364 -17.2080 -2.4972 0.8210
-45.4675 -18.8333 -2.4958 0.8211
-44.7417 -20.4329 -2.4945 0.8212
-43.9599 -22.0048 -2.4931 0.8213
-41.2893 -26.5350 -2.4891 0.8215
-40.2947 -27.9772 -2.4878 0.8216
-39.2502 -29.3824 -2.4865 0.8217
-38.1570 -30.7489 -2.4852 0.8218
-29.1139 -29.1139 -2.0881 0.8480
-25.9151 -27.8348 -1.9287 0.8587
-25.2672 -29.1599 -1.9568 0.8568
-27.5932 -36.8602 -2.3351 0.8316
-24.9918 -38.8880 -2.3443 0.8310
-12.2202 -22.3796 -1.2931 0.9029
-14.7836 -44.4175 -2.3741 0.8290
-11.6004 -39.5074 -2.0882 0.8480
-9.6615 -37.8536 -1.9813 0.8552
-8.1187 -37.3211 -1.9370 0.8582
-7.6305 -42.2933 -2.1795 0.8419
-5.1223 -35.6263 -1.8253 0.8658
0.0000 -24.3068 -1.2327 0.9072
1.1623 -32.5424 -1.6514 0.8777
2.3749 -33.2050 -1.6883 0.8752
3.8975 -36.2516 -1.8491 0.8641
5.6009 -31.0437 -1.5998 0.8813
7.4164 -34.0928 -1.7694 0.8696
8.5909 -33.6589 -1.7617 0.8701
8.4965 -28.9365 -1.5294 0.8862
11.3959 -27.5122 -1.5102 0.8876
19.8469 -43.4586 -2.4229 0.8258
21.3886 -42.7289 -2.4233 0.8258
14.7474 -27.0077 -1.5606 0.8840
17.4357 -29.3862 -1.7329 0.8721
28.6237 -38.2368 -2.4223 0.8259
9.0216 -11.1951 -0.7292 0.9440
9.4581 -10.9152 -0.7325 0.9438
32.5088 -34.9169 -2.4194 0.8261
34.8756 -32.4703 -2.4166 0.8263
17.9109 -15.5199 -1.2019 0.9094
26.5339 -21.3824 -1.7282 0.8724
29.4803 -22.0687 -1.8676 0.8629
28.8609 -20.0384 -1.7819 0.8687
29.4030 -17.4456 -1.7339 0.8720
32.4115 -14.8018 -1.8070 0.8670
26.8810 -11.1345 -1.4756 0.8900
44.6361 -14.8563 -2.3858 0.8283
45.4455 -11.5993 -2.3786 0.8287
46.0093 -8.3010 -2.3710 0.8292
34.4942 -2.4671 -1.7538 0.8707
46.3990 -1.6571 -2.3546 0.8303
-34.2096 -0.0000 -2.5083 0.8718
-33.9746 -3.6527 -2.5054 0.8719
-33.8095 -4.8611 -2.5045 0.8720
-33.6015 -6.0624 -2.5035 0.8720
-33.3507 -7.2550 -2.5025 0.8721
-33.0577 -8.4375 -2.5016 0.8721
-31.4718 -13.0360 -2.4977 0.8723
-29.8640 -16.3070 -2.4949 0.8724
-27.1996 -20.3614 -2.4912 0.8726
-26.4461 -21.3117 -2.4904 0.8726
-23.9920 -23.9921 -2.4878 0.8728
-20.8542 -24.0671 -2.3350 0.8801
-19.4471 -24.1324 -2.2725 0.8831
-19.0725 -25.4779 -2.3335 0.8802
-18.1457 -26.1347 -2.3329 0.8802
-14.0279 -21.8279 -1.9025 0.9012
-11.7893 -21.5906 -1.8037 0.9060
-11.3369 -22.6482 -1.8570 0.9034
-13.2365 -28.9839 -2.3363 0.8800
-10.4818 -25.3055 -2.0083 0.8960
-7.9250 -31.0499 -2.3496 0.8794
-4.8320 -22.2122 -1.6667 0.9129
-1.1501 -32.2037 -2.3628 0.8788
1.1519 -32.2520 -2.3663 0.8786
3.4544 -32.1303 -2.3694 0.8784
5.6010 -31.0442 -2.3130 0.8812
6.8801 -31.6272 -2.3732 0.8783
8.0080 -31.3752 -2.3743 0.8782
10.2332 -30.7457 -2.3759 0.8781
11.3270 -30.3689 -2.3766 0.8781
11.3961 -27.5127 -2.1835 0.8874
13.4701 -29.4954 -2.3775 0.8781
14.9398 -27.3601 -2.2857 0.8825
16.5487 -27.8912 -2.3779 0.8780
17.9111 -15.5201 -1.7377 0.9093
25.1810 -20.2921 -2.3712 0.8784
25.8747 -19.3696 -2.3699 0.8784
26.5329 -18.4221 -2.3684 0.8785
26.8208 -11.1095 -2.1286 0.8901
23.1389 -8.6303 -1.8108 0.9057
17.6582 -5.8772 -1.3646 0.9281
31.0334 -7.9208 -2.3484 0.8795
31.2629 -6.8008 -2.3459 0.8796
29.2363 -5.2748 -2.1783 0.8877
26.5550 -3.8180 -1.9671 0.8980
25.8496 -1.8488 -1.9002 0.9013
27.5782 -0.9850 -2.0234 0.8952
-26.1112 -0.0000 -2.5068 0.9004
-26.0295 -1.8617 -2.5053 0.9004
-25.9389 -2.7887 -2.5046 0.9005
-24.9946 -7.3391 -2.5009 0.9006
-24.3929 -9.0981 -2.4994 0.9007
-22.8233 -12.4625 -2.4965 0.9008
-22.3576 -13.2654 -2.4958 0.9008
-21.3424 -14.8183 -2.4944 0.9009
-16.2697 -20.1894 -2.4893 0.9011
-15.5351 -20.7525 -2.4887 0.9011
-12.4150 -20.9244 -2.3358 0.9069
-10.8863 -21.7481 -2.3349 0.9069
-9.3037 -22.4611 -2.3340 0.9069
-7.6751 -23.0600 -2.3333 0.9070
-6.0100 -23.5469 -2.3331 0.9070
-4.8815 -22.4398 -2.2047 0.9118
-4.3215 -23.9524 -2.3367 0.9068
-1.6228 -15.0939 -1.4574 0.9408
-1.7399 -24.3274 -2.3415 0.9066
-0.5185 -14.5189 -1.3948 0.9433
0.5026 -14.0728 -1.3519 0.9450
1.7439 -24.3830 -2.3469 0.9064
2.6144 -24.3170 -2.3480 0.9064
6.0578 -23.7343 -2.3517 0.9063
7.7397 -23.2541 -2.3529 0.9062
6.8224 -16.4708 -1.7116 0.9309
10.1864 -22.3051 -2.3541 0.9062
12.5141 -21.0914 -2.3545 0.9062
17.9247 -16.6885 -2.3512 0.9063
17.8251 -15.4455 -2.2644 0.9096
19.0554 -15.3558 -2.3495 0.9063
19.5831 -14.6597 -2.3485 0.9064
20.0846 -13.9450 -2.3474 0.9064
21.4261 -11.6995 -2.3437 0.9066
21.8169 -10.9208 -2.3423 0.9066
22.1788 -10.1287 -2.3408 0.9067
22.8256 -8.5135 -2.3388 0.9067
23.8292 -5.1837 -2.3412 0.9067
24.2666 -2.6089 -2.3431 0.9066
24.9056 -0.8895 -2.3926 0.9047
-21.0956 -0.0000 -2.5059 0.9185
-21.0320 -1.5042 -2.5047 0.9186
-20.7358 -3.7412 -2.5029 0.9186
-20.4063 -5.2084 -2.5017 0.9187
-20.2026 -5.9320 -2.5011 0.9187
-19.7185 -7.3546 -2.4999 0.9187
-19.4389 -8.0518 -2.4993 0.9187
-19.1346 -8.7385 -2.4987 0.9188
-18.4538 -10.0766 -2.4976 0.9188
-18.0782 -10.7263 -2.4970 0.9188
-17.6798 -11.3622 -2.4964 0.9188
-15.3648 -14.3052 -2.4937 0.9189
-14.8414 -14.8414 -2.4932 0.9189
-13.1621 -16.3332 -2.4917 0.9190
-11.9590 -17.2242 -2.4908 0.9190
-11.3346 -17.6370 -2.4904 0.9190
-10.6961 -18.0273 -2.4899 0.9190
-10.0220 -18.3539 -2.4840 0.9192
-9.0107 -18.0011 -2.3912 0.9221
-8.1742 -17.8990 -2.3374 0.9238
-6.2115 -18.6625 -2.3364 0.9238
-4.8631 -19.0536 -2.3359 0.9238
-1.6229 -15.0952 -1.8034 0.9407
-1.4021 -19.6053 -2.3348 0.9239
-0.5153 -14.4280 -1.7149 0.9435
0.0000 -19.6528 -2.3345 0.9239
1.4019 -19.6009 -2.3343 0.9239
2.1012 -19.5442 -2.3349 0.9239
3.4925 -19.3578 -2.3366 0.9238
4.1825 -19.2265 -2.3373 0.9238
5.5462 -18.8886 -2.3384 0.9238
6.2181 -18.6824 -2.3389 0.9238
7.5374 -18.1968 -2.3396 0.9237
8.8179 -17.6160 -2.3400 0.9237
10.0526 -16.9428 -2.3402 0.9237
7.2748 -10.4777 -1.5152 0.9499
11.8042 -15.7685 -2.3398 0.9237
9.0329 -11.2091 -1.7100 0.9437
9.4647 -10.9229 -1.7168 0.9434
13.4159 -14.4097 -2.3387 0.9238
13.9187 -13.9187 -2.3382 0.9238
14.4030 -13.4097 -2.3376 0.9238
15.7540 -11.7933 -2.3376 0.9238
16.5605 -10.6428 -2.3384 0.9238
16.9326 -10.0466 -2.3387 0.9238
17.6124 -8.8161 -2.3396 0.9237
17.9192 -8.1834 -2.3400 0.9237
18.4644 -6.8869 -2.3409 0.9237
17.5724 -5.8486 -2.1999 0.9281
18.9163 -5.5543 -2.3419 0.9237
19.2725 -4.1925 -2.3428 0.9236
20.7335 -2.9810 -2.4882 0.9191
20.8943 -2.2464 -2.4963 0.9188
-17.5694 -1.8889 -2.5037 0.9311
-17.3829 -3.1362 -2.5027 0.9311
-17.2564 -3.7539 -2.5022 0.9311
-17.1080 -4.3666 -2.5017 0.9312
-16.7462 -5.5737 -2.5007 0.9312
-16.0449 -7.3275 -2.4992 0.9312
-15.7700 -7.8939 -2.4987 0.9312
-15.4752 -8.4501 -2.4983 0.9312
-15.1608 -8.9953 -2.4978 0.9313
-14.8273 -9.5289 -2.4973 0.9313
-14.4750 -10.0502 -2.4968 0.9313
-14.1044 -10.5585 -2.4964 0.9313
-13.3104 -11.5336 -2.4955 0.9313
-12.8880 -11.9992 -2.4950 0.9313
-12.4494 -12.4494 -2.4946 0.9313
-11.5257 -13.3014 -2.4938 0.9314
-9.5095 -14.7971 -2.4922 0.9314
-8.9740 -15.1250 -2.4919 0.9314
-8.4273 -15.4335 -2.4915 0.9314
-6.7267 -16.2398 -2.4906 0.9314
-6.1272 -16.4276 -2.4843 0.9316
-4.6494 -15.8346 -2.3383 0.9355
-4.0809 -15.9889 -2.3381 0.9355
-3.5073 -16.1229 -2.3379 0.9355
-2.9294 -16.2365 -2.3377 0.9355
-1.6231 -15.0966 -2.1513 0.9405
-1.1767 -16.4531 -2.3372 0.9355
-0.5156 -14.4361 -2.0467 0.9433
0.0000 -16.4933 -2.3369 0.9355
0.4982 -13.9500 -1.9778 0.9452
1.1765 -16.4500 -2.3367 0.9355
1.7629 -16.3970 -2.3367 0.9355
2.3469 -16.3233 -2.3366 0.9355
2.9280 -16.2289 -2.3366 0.9355
4.6460 -15.8229 -2.3366 0.9355
5.7632 -15.4516 -2.3367 0.9355
6.3112 -15.2365 -2.3367 0.9355
6.8512 -15.0020 -2.3368 0.9355
7.3826 -14.7485 -2.3369 0.9355
8.9675 -10.3491 -1.9403 0.9462
9.4340 -10.1328 -1.9616 0.9456
9.9115 -9.9115 -1.9861 0.9449
12.0807 -11.2475 -2.3387 0.9355
12.4758 -10.8104 -2.3390 0.9355
12.8553 -10.3594 -2.3393 0.9355
13.2185 -9.8952 -2.3396 0.9355
15.2706 -6.3253 -2.3419 0.9354
15.4892 -5.7771 -2.3423 0.9354
16.0920 -5.3559 -2.4030 0.9338
17.2119 -3.7442 -2.4958 0.9313
17.5233 -1.8839 -2.4972 0.9313
17.5827 -1.2575 -2.4976 0.9313
17.6197 -0.6293 -2.4981 0.9312
-15.1988 -0.0000 -2.5038 0.9402
-15.1921 -0.5426 -2.5043 0.9402
-15.1096 -1.6245 -2.5035 0.9403
-15.0394 -2.1623 -2.5031 0.9403
-14.9500 -2.6973 -2.5026 0.9403
-14.8417 -3.2286 -2.5022 0.9403
-14.5685 -4.2777 -2.5013 0.9403
-14.4041 -4.7941 -2.5009 0.9403
-14.2213 -5.3043 -2.5005 0.9403
-13.8020 -6.3032 -2.4996 0.9403
-11.8009 -9.5098 -2.4968 0.9404
-11.0890 -10.3243 -2.4960 0.9404
-10.3212 -11.0858 -2.4953 0.9404
-9.9176 -11.4455 -2.4949 0.9405
-9.5014 -11.7905 -2.4946 0.9405
-9.0733 -12.1205 -2.4942 0.9405
-7.7228 -13.0160 -2.4933 0.9405
-7.2524 -13.2818 -2.4930 0.9405
-6.7730 -13.5306 -2.4927 0.9405
-4.2608 -14.5110 -2.4915 0.9405
-3.2103 -14.7578 -2.4880 0.9406
-2.0860 -14.5087 -2.4147 0.9423
-1.0128 -14.1616 -2.3389 0.9441
0.0000 -14.1964 -2.3387 0.9441
1.0127 -14.1593 -2.3385 0.9441
2.0201 -14.0503 -2.3384 0.9441
2.5203 -13.9691 -2.3384 0.9441
3.5104 -13.7536 -2.3384 0.9441
3.9991 -13.6196 -2.3384 0.9441
6.8636 -10.6800 -2.0914 0.9498
7.2751 -10.4781 -2.1014 0.9496
8.8942 -10.2644 -2.2374 0.9464
9.3568 -10.0500 -2.2621 0.9459
9.8304 -9.8304 -2.2903 0.9452
10.3972 -9.6801 -2.3403 0.9440
11.0635 -8.9155 -2.3407 0.9440
11.3759 -8.5158 -2.3410 0.9440
11.6739 -8.1053 -2.3412 0.9440
11.9571 -7.6844 -2.3415 0.9440
12.8227 -7.0017 -2.4068 0.9425
13.7513 -6.2800 -2.4904 0.9406
14.3730 -4.7838 -2.4955 0.9404
14.6821 -3.7474 -2.4963 0.9404
-13.3241 0.0000 -2.5044 0.9472
-13.3136 -0.4755 -2.5040 0.9472
-13.2862 -0.9502 -2.5037 0.9472
-13.2418 -1.4236 -2.5033 0.9472
-13.1806 -1.8951 -2.5029 0.9472
-13.0079 -2.8297 -2.5022 0.9473
-12.7690 -3.7493 -2.5014 0.9473
-12.6251 -4.2021 -2.5010 0.9473
-12.4652 -4.6493 -2.5006 0.9473
-12.2895 -5.0905 -2.5003 0.9473
-12.0982 -5.5251 -2.4999 0.9473
-11.8915 -5.9525 -2.4995 0.9473
-11.4332 -6.7837 -2.4988 0.9473
-11.1822 -7.1864 -2.4984 0.9473
-10.9170 -7.5799 -2.4981 0.9473
-10.0401 -8.6998 -2.4970 0.9474
-9.7219 -9.0514 -2.4967 0.9474
-9.3914 -9.3914 -2.4964 0.9474
-8.3306 -10.3376 -2.4955 0.9474
-7.1753 -11.1651 -2.4946 0.9474
-6.7715 -11.4128 -2.4943 0.9474
-6.3592 -11.6460 -2.4941 0.9474
-5.9389 -11.8644 -2.4938 0.9474
-5.5111 -12.0677 -2.4936 0.9474
-5.0764 -12.2555 -2.4934 0.9474
-3.2795 -12.8492 -2.4926 0.9475
-2.3542 -13.0487 -2.4922 0.9475
-1.8869 -13.1236 -2.4921 0.9475
-1.4172 -13.1819 -2.4920 0.9475
-0.9458 -13.2234 -2.4918 0.9475
0.0000 -13.2327 -2.4872 0.9476
0.4717 -13.2062 -2.4838 0.9476
1.3726 -12.7670 -2.4135 0.9491
1.8052 -12.5552 -2.3842 0.9497
2.2278 -12.3477 -2.3584 0.9502
2.6461 -12.1638 -2.3398 0.9506
3.5071 -11.9441 -2.3398 0.9506
5.1716 -11.3242 -2.3400 0.9506
5.9667 -10.9271 -2.3401 0.9506
6.3532 -10.7077 -2.3402 0.9506
7.1016 -10.2282 -2.3405 0.9506
7.8141 -9.6966 -2.3407 0.9506
8.1557 -9.4122 -2.3409 0.9506
8.9550 -8.9550 -2.3804 0.9498
9.3814 -8.7344 -2.4093 0.9492
11.1635 -7.1743 -2.4943 0.9474
11.4137 -6.7720 -2.4945 0.9474
11.6494 -6.3610 -2.4948 0.9474
11.8704 -5.9419 -2.4951 0.9474
12.0763 -5.5151 -2.4954 0.9474
12.2669 -5.0811 -2.4957 0.9474
12.6013 -4.1941 -2.4963 0.9474
12.7446 -3.7422 -2.4966 0.9474
13.0769 -2.3593 -2.4976 0.9474
13.1546 -1.8913 -2.4980 0.9473
13.2156 -1.4208 -2.4983 0.9473
-11.8466 -0.0000 -2.5041 0.9527
-11.8375 -0.4228 -2.5038 0.9527
-11.8133 -0.8449 -2.5035 0.9527
-11.7740 -1.2658 -2.5031 0.9527
-11.7198 -1.6850 -2.5028 0.9527
-11.6506 -2.1020 -2.5025 0.9528
-11.5666 -2.5161 -2.5021 0.9528
-11.4679 -2.9270 -2.5018 0.9528
-11.3546 -3.3340 -2.5015 0.9528
-11.2268 -3.7366 -2.5011 0.9528
-11.0848 -4.1344 -2.5008 0.9528
-10.7588 -4.9134 -2.5001 0.9528
-10.5751 -5.2935 -2.4998 0.9528
-8.9297 -7.7376 -2.4976 0.9528
-8.6468 -8.0504 -2.4973 0.9528
-8.0486 -8.6448 -2.4967 0.9529
-7.7340 -8.9256 -2.4964 0.9529
-7.4097 -9.1949 -2.4962 0.9529
-7.0761 -9.4525 -2.4959 0.9529
-6.7335 -9.6981 -2.4957 0.9529
-6.3824 -9.9313 -2.4954 0.9529
-4.9023 -10.7346 -2.4945 0.9529
-4.1234 -11.0553 -2.4941 0.9529
-3.7259 -11.1946 -2.4939 0.9529
-3.3237 -11.3196 -2.4938 0.9529
-2.9174 -11.4303 -2.4936 0.9529
-2.5074 -11.5265 -2.4934 0.9529
-1.6786 -11.6747 -2.4932 0.9529
-0.4209 -11.7857 -2.4929 0.9529
0.0000 -11.7928 -2.4928 0.9529
0.4209 -11.7850 -2.4927 0.9529
0.8413 -11.7622 -2.4926 0.9529
1.2605 -11.7244 -2.4926 0.9529
2.0937 -11.6043 -2.4925 0.9529
2.5065 -11.5221 -2.4925 0.9529
2.9161 -11.4253 -2.4925 0.9529
3.3212 -11.3110 -2.4919 0.9529
3.7213 -11.1806 -2.4908 0.9530
4.5069 -10.8806 -2.4894 0.9530
5.2708 -10.5298 -2.4891 0.9530
6.7216 -9.6809 -2.4912 0.9530
7.7251 -8.9152 -2.4936 0.9529
8.3425 -8.3425 -2.4939 0.9529
8.9177 -7.7273 -2.4942 0.9529
9.1886 -7.4046 -2.4944 0.9529
9.9301 -6.3817 -2.4951 0.9529
10.1525 -6.0237 -2.4953 0.9529
10.3620 -5.6581 -2.4956 0.9529
11.0664 -4.1276 -2.4966 0.9529
11.2080 -3.7304 -2.4969 0.9529
11.3353 -3.3283 -2.4972 0.9528
11.7533 -1.2636 -2.4987 0.9528
11.7924 -0.8434 -2.4990 0.9528
11.8165 -0.4220 -2.4994 0.9528
-10.6458 -0.3802 -2.5036 0.9572
-10.5404 -1.5155 -2.5027 0.9572
-10.4783 -1.8905 -2.5024 0.9572
-10.0977 -3.3608 -2.5012 0.9572
-9.9701 -3.7187 -2.5009 0.9572
-9.8299 -4.0717 -2.5006 0.9572
-9.6771 -4.4194 -2.5003 0.9572
-9.5121 -4.7614 -2.5000 0.9572
-9.1461 -5.4266 -2.4994 0.9572
-8.9455 -5.7489 -2.4991 0.9572
-7.7783 -7.2419 -2.4978 0.9573
-7.5141 -7.5141 -2.4975 0.9573
-7.2404 -7.7768 -2.4972 0.9573
-6.0576 -8.7247 -2.4963 0.9573
-5.7419 -8.9345 -2.4961 0.9573
-4.7527 -9.4948 -2.4954 0.9573
-4.4105 -9.6576 -2.4953 0.9573
-4.0627 -9.8082 -2.4951 0.9573
-3.3522 -10.0716 -2.4947 0.9573
-2.9904 -10.1842 -2.4946 0.9573
-2.2559 -10.3704 -2.4943 0.9573
-1.8843 -10.4438 -2.4942 0.9573
-0.7570 -10.5840 -2.4938 0.9573
0.0000 -10.6104 -2.4937 0.9573
0.3787 -10.6033 -2.4936 0.9573
0.7569 -10.5828 -2.4936 0.9573
1.1341 -10.5489 -2.4935 0.9573
1.5099 -10.5016 -2.4935 0.9573
2.2552 -10.3669 -2.4935 0.9573
2.6238 -10.2798 -2.4935 0.9573
3.3505 -10.0666 -2.4935 0.9573
3.7077 -9.9407 -2.4935 0.9573
4.0602 -9.8022 -2.4936 0.9573
4.4076 -9.6512 -2.4936 0.9573
5.4145 -9.1256 -2.4938 0.9573
5.7369 -8.9269 -2.4939 0.9573
6.6592 -8.2636 -2.4943 0.9573
6.9503 -8.0211 -2.4944 0.9573
8.0231 -6.9520 -2.4950 0.9573
8.4998 -6.3629 -2.4954 0.9573
9.1336 -5.4192 -2.4960 0.9573
9.3220 -5.0902 -2.4962 0.9573
9.6631 -4.4130 -2.4967 0.9573
10.1969 -2.9941 -2.4977 0.9573
10.2983 -2.6285 -2.4979 0.9573
10.5723 -1.1366 -2.4990 0.9572
10.6073 -0.7586 -2.4993 0.9572
-9.6432 -0.6897 -2.5032 0.9608
-9.6114 -1.0333 -2.5029 0.9608
-9.4428 -2.0542 -2.5021 0.9609
-9.3624 -2.3896 -2.5018 0.9609
-9.1661 -3.0508 -2.5013 0.9609
-9.0504 -3.3756 -2.5010 0.9609
-8.7846 -4.0118 -2.5004 0.9609
-8.3028 -4.9263 -2.4996 0.9609
-7.9285 -5.5049 -2.4991 0.9609
-7.5141 -6.0552 -2.4986 0.9609
-7.2925 -6.3190 -2.4984 0.9609
-7.0616 -6.5746 -2.4981 0.9609
-6.8218 -6.8218 -2.4979 0.9609
-5.7794 -7.7204 -2.4970 0.9609
-5.4997 -7.9211 -2.4968 0.9609
-4.9199 -8.2920 -2.4964 0.9609
-4.6204 -8.4617 -2.4962 0.9609
-4.3152 -8.6206 -2.4960 0.9610
-4.0044 -8.7685 -2.4959 0.9610
-1.3713 -9.5373 -2.4948 0.9610
-1.0299 -9.5798 -2.4947 0.9610
-0.3439 -9.6282 -2.4945 0.9610
1.0298 -9.5783 -2.4943 0.9610
1.3710 -9.5354 -2.4943 0.9610
1.7104 -9.4803 -2.4942 0.9610
2.0477 -9.4131 -2.4942 0.9610
3.0422 -9.1404 -2.4943 0.9610
3.3666 -9.0261 -2.4943 0.9610
3.6866 -8.9003 -2.4943 0.9610
4.3124 -8.6150 -2.4944 0.9610
4.6172 -8.4558 -2.4945 0.9610
4.9162 -8.2859 -2.4946 0.9610
5.2090 -8.1054 -2.4947 0.9610
5.4952 -7.9146 -2.4947 0.9610
5.7745 -7.7138 -2.4948 0.9610
6.0464 -7.5031 -2.4950 0.9610
6.8148 -6.8148 -2.4953 0.9610
7.5056 -6.0484 -2.4958 0.9610
7.7173 -5.7771 -2.4960 0.9610
7.9191 -5.4983 -2.4962 0.9609
8.4635 -4.6214 -2.4967 0.9609
8.7730 -4.0065 -2.4972 0.9609
8.9112 -3.6912 -2.4974 0.9609
9.0381 -3.3710 -2.4976 0.9609
9.1535 -3.0466 -2.4978 0.9609
9.2573 -2.7182 -2.4981 0.9609
9.4976 -1.7136 -2.4988 0.9609
9.6293 -0.6887 -2.4996 0.9609
9.6488 -0.3446 -2.4998 0.9609
-8.8436 0.0000 -2.5036 0.9639
-8.7903 -0.9451 -2.5028 0.9639
-8.7501 -1.2581 -2.5026 0.9639
-8.6988 -1.5694 -2.5023 0.9639
-8.5629 -2.1856 -2.5018 0.9639
-8.4786 -2.4895 -2.5016 0.9639
-8.3835 -2.7903 -2.5013 0.9639
-8.1615 -3.3806 -2.5008 0.9639
-7.7511 -4.2324 -2.5001 0.9640
-7.5943 -4.5059 -2.4998 0.9640
-7.4279 -4.7737 -2.4996 0.9640
-6.8732 -5.5388 -2.4989 0.9640
-6.6705 -5.7800 -2.4987 0.9640
-6.4594 -6.0139 -2.4985 0.9640
-6.2401 -6.2401 -2.4982 0.9640
-5.7781 -6.6682 -2.4978 0.9640
-5.2868 -7.0623 -2.4974 0.9640
-5.0310 -7.2460 -2.4972 0.9640
-4.7688 -7.4204 -2.4971 0.9640
-3.9474 -7.8860 -2.4965 0.9640
-3.6632 -8.0213 -2.4964 0.9640
-3.3744 -8.1465 -2.4962 0.9640
-3.0813 -8.2613 -2.4961 0.9640
-2.7843 -8.3655 -2.4959 0.9640
-2.4838 -8.4591 -2.4958 0.9640
-2.1802 -8.5420 -2.4957 0.9640
-1.8738 -8.6140 -2.4956 0.9640
-1.5651 -8.6750 -2.4955 0.9640
-1.2545 -8.7250 -2.4954 0.9640
-0.9422 -8.7639 -2.4953 0.9640
0.6287 -8.7908 -2.4950 0.9640
0.9421 -8.7627 -2.4949 0.9640
1.8733 -8.6116 -2.4949 0.9640
2.7832 -8.3620 -2.4949 0.9640
3.3727 -8.1424 -2.4950 0.9640
3.9451 -7.8813 -2.4951 0.9640
4.2240 -7.7357 -2.4951 0.9640
4.4975 -7.5802 -2.4952 0.9640
5.2826 -7.0567 -2.4954 0.9640
5.5313 -6.8640 -2.4956 0.9640
5.7731 -6.6625 -2.4957 0.9640
6.0075 -6.4525 -2.4958 0.9640
6.8661 -5.5331 -2.4963 0.9640
7.4197 -4.7683 -2.4968 0.9640
7.5857 -4.5008 -2.4970 0.9640
8.1515 -3.3765 -2.4978 0.9640
8.2675 -3.0836 -2.4980 0.9640
8.4679 -2.4864 -2.4984 0.9640
8.6252 -1.8763 -2.4988 0.9640
8.6875 -1.5674 -2.4991 0.9640
8.7387 -1.2564 -2.4993 0.9640
8.7788 -0.9438 -2.4995 0.9640
8.8254 -0.3152 -2.5000 0.9640
-8.1170 -0.5805 -2.5030 0.9665
-8.0903 -0.8698 -2.5028 0.9665
-8.0534 -1.1579 -2.5025 0.9665
-8.0062 -1.4445 -2.5023 0.9665
-7.9488 -1.7292 -2.5021 0.9665
-7.8813 -2.0116 -2.5018 0.9665
-7.8037 -2.2914 -2.5016 0.9665
-7.7163 -2.5682 -2.5014 0.9665
-7.6190 -2.8417 -2.5011 0.9665
-7.3955 -3.3774 -2.5007 0.9665
-7.1344 -3.8957 -2.5002 0.9666
-6.9902 -4.1475 -2.5000 0.9666
-6.8371 -4.3940 -2.4998 0.9666
-6.5051 -4.8697 -2.4994 0.9666
-6.3266 -5.0983 -2.4991 0.9666
-5.9458 -5.5358 -2.4987 0.9666
-5.7440 -5.7440 -2.4985 0.9666
-5.3188 -6.1382 -2.4981 0.9666
-4.1430 -6.9826 -2.4973 0.9666
-3.6338 -7.2594 -2.4970 0.9666
-3.3722 -7.3841 -2.4968 0.9666
-2.5631 -7.7010 -2.4964 0.9666
-2.2865 -7.7872 -2.4963 0.9666
-2.0070 -7.8635 -2.4962 0.9666
-1.4408 -7.9860 -2.4960 0.9666
-1.1548 -8.0321 -2.4959 0.9666
-0.5789 -8.0935 -2.4957 0.9666
-0.2896 -8.1088 -2.4957 0.9666
0.5788 -8.0928 -2.4955 0.9666
0.8673 -8.0669 -2.4955 0.9666
1.4405 -7.9843 -2.4955 0.9666
1.7246 -7.9278 -2.4954 0.9666
2.2858 -7.7846 -2.4954 0.9666
2.5622 -7.6981 -2.4955 0.9666
2.8353 -7.6018 -2.4955 0.9666
3.6318 -7.2555 -2.4956 0.9666
4.6279 -6.6655 -2.4959 0.9666
5.0920 -6.3188 -2.4961 0.9666
5.3145 -6.1333 -2.4962 0.9666
5.7391 -5.7391 -2.4964 0.9666
5.9405 -5.5308 -2.4965 0.9666
6.3206 -5.0935 -2.4968 0.9666
6.4988 -4.8649 -2.4969 0.9666
6.9829 -4.1431 -2.4974 0.9666
7.2617 -3.6349 -2.4977 0.9666
7.3873 -3.3737 -2.4979 0.9666
7.5036 -3.1081 -2.4981 0.9666
7.7946 -2.2887 -2.4987 0.9666
7.8720 -2.0092 -2.4989 0.9666
8.0805 -0.8687 -2.4997 0.9666
8.1071 -0.5798 -2.4999 0.9666
-7.5255 -0.2688 -2.5031 0.9688
-7.5105 -0.5372 -2.5029 0.9688
-7.4081 -1.3366 -2.5023 0.9688
-7.3551 -1.6000 -2.5020 0.9688
-7.2927 -1.8613 -2.5018 0.9688
-6.1772 -4.2889 -2.4997 0.9688
-6.0197 -4.5063 -2.4995 0.9688
-5.8546 -4.7179 -2.4994 0.9688
-5.6820 -4.9235 -2.4992 0.9688
-5.5023 -5.1228 -2.4990 0.9688
-5.1220 -5.5015 -2.4986 0.9688
-4.9221 -5.6804 -2.4984 0.9688
-4.5037 -6.0162 -2.4981 0.9688
-4.0625 -6.3214 -2.4978 0.9688
-3.8340 -6.4620 -2.4976 0.9688
-3.6008 -6.5943 -2.4975 0.9688
-3.3629 -6.7182 -2.4973 0.9688
-3.1208 -6.8336 -2.4972 0.9688
-2.8748 -6.9403 -2.4971 0.9688
-2.6251 -7.0381 -2.4969 0.9688
-2.3721 -7.1270 -2.4968 0.9688
-2.1161 -7.2068 -2.4967 0.9688
-1.8575 -7.2775 -2.4966 0.9688
-0.8028 -7.4667 -2.4963 0.9688
-0.5357 -7.4904 -2.4962 0.9688
-0.2680 -7.5046 -2.4961 0.9688
0.8027 -7.4658 -2.4960 0.9688
1.0686 -7.4323 -2.4959 0.9688
1.5961 -7.3371 -2.4959 0.9688
1.8569 -7.2754 -2.4959 0.9688
2.3713 -7.1245 -2.4959 0.9688
2.6241 -7.0354 -2.4960 0.9688
3.1194 -6.8304 -2.4960 0.9688
3.3612 -6.7149 -2.4961 0.9688
3.5988 -6.5907 -2.4961 0.9688
3.8319 -6.4582 -2.4962 0.9688
4.2831 -6.1688 -2.4963 0.9688
4.5007 -6.0122 -2.4964 0.9688
5.1181 -5.4972 -2.4967 0.9688
5.3113 -5.3113 -2.4968 0.9688
5.6772 -4.9193 -2.4970 0.9688
6.0143 -4.5022 -2.4973 0.9688
6.3209 -4.0622 -2.4976 0.9688
6.4622 -3.8342 -2.4977 0.9688
6.5954 -3.6013 -2.4979 0.9688
7.0427 -2.6268 -2.4986 0.9688
7.1324 -2.3739 -2.4987 0.9688
7.2847 -1.8593 -2.4991 0.9688
7.3999 -1.3351 -2.4995 0.9688
7.4434 -1.0702 -2.4997 0.9688
7.5170 -0.2685 -2.5003 0.9688
-6.9949 -0.2498 -2.5030 0.9707
-6.9582 -0.7481 -2.5026 0.9707
-6.9265 -0.9959 -2.5024 0.9707
-6.7787 -1.7302 -2.5018 0.9707
-6.7121 -1.9708 -2.5016 0.9707
-6.5534 -2.4443 -2.5012 0.9707
-6.2531 -3.1301 -2.5007 0.9707
-5.7422 -3.9869 -2.4999 0.9707
-5.5959 -4.1890 -2.4997 0.9707
-4.9414 -4.9414 -2.4990 0.9708
-4.5756 -5.2806 -2.4987 0.9708
-4.3840 -5.4402 -2.4985 0.9708
-4.1867 -5.5928 -2.4984 0.9708
-3.3474 -6.1303 -2.4978 0.9708
-3.1263 -6.2456 -2.4977 0.9708
-2.6725 -6.4521 -2.4974 0.9708
-2.4404 -6.5431 -2.4973 0.9708
-1.4842 -6.8227 -2.4969 0.9708
-1.2397 -6.8711 -2.4968 0.9708
-0.9936 -6.9107 -2.4967 0.9708
-0.2492 -6.9768 -2.4965 0.9708
0.0000 -6.9811 -2.4965 0.9708
0.2492 -6.9765 -2.4965 0.9708
0.4980 -6.9631 -2.4964 0.9708
0.7462 -6.9408 -2.4964 0.9708
0.9935 -6.9097 -2.4964 0.9708
1.4839 -6.8212 -2.4963 0.9708
1.7264 -6.7638 -2.4963 0.9708
2.4395 -6.5406 -2.4964 0.9708
2.9000 -6.3501 -2.4964 0.9708
3.9818 -5.7349 -2.4967 0.9708
4.3811 -5.4366 -2.4969 0.9708
4.5725 -5.2769 -2.4970 0.9708
5.7373 -3.9835 -2.4977 0.9708
5.8761 -3.7764 -2.4979 0.9708
6.0075 -3.5644 -2.4980 0.9708
6.1313 -3.3479 -2.4982 0.9708
6.2472 -3.1271 -2.4983 0.9708
6.6304 -2.2068 -2.4990 0.9708
6.7054 -1.9689 -2.4991 0.9707
6.7719 -1.7284 -2.4993 0.9707
6.9193 -0.9948 -2.4998 0.9707
-6.5272 -0.2331 -2.5030 0.9724
-6.4930 -0.6981 -2.5026 0.9724
-6.4635 -0.9293 -2.5024 0.9724
-6.3798 -1.3878 -2.5020 0.9724
-6.3257 -1.6145 -2.5018 0.9724
-6.2636 -1.8392 -2.5017 0.9724
-6.1935 -2.0614 -2.5015 0.9724
-5.7270 -3.1272 -2.5006 0.9724
-5.2222 -3.9093 -2.4999 0.9724
-5.0790 -4.0929 -2.4997 0.9724
-4.6115 -4.6115 -2.4992 0.9725
-4.0914 -5.0771 -2.4987 0.9725
-3.9073 -5.2196 -2.4986 0.9725
-3.1240 -5.7213 -2.4981 0.9725
-2.9177 -5.8288 -2.4979 0.9725
-2.7077 -5.9290 -2.4978 0.9725
-2.2776 -6.1065 -2.4976 0.9725
-2.0581 -6.1837 -2.4975 0.9725
-1.8360 -6.2530 -2.4974 0.9725
-1.6116 -6.3143 -2.4973 0.9725
-1.3852 -6.3676 -2.4972 0.9725
-1.1570 -6.4127 -2.4972 0.9725
-0.9273 -6.4498 -2.4971 0.9725
-0.6965 -6.4786 -2.4970 0.9725
-0.4648 -6.4992 -2.4970 0.9725
0.0000 -6.5155 -2.4969 0.9725
0.2326 -6.5112 -2.4968 0.9725
0.4648 -6.4987 -2.4968 0.9725
0.6964 -6.4779 -2.4968 0.9725
0.9272 -6.4489 -2.4967 0.9725
1.6112 -6.3127 -2.4967 0.9725
1.8355 -6.2512 -2.4967 0.9725
2.0575 -6.1818 -2.4967 0.9725
2.2768 -6.1044 -2.4968 0.9725
2.9164 -5.8263 -2.4968 0.9725
3.1226 -5.7186 -2.4969 0.9725
3.3248 -5.6036 -2.4969 0.9725
3.5227 -5.4815 -2.4970 0.9725
3.9050 -5.2165 -2.4971 0.9725
4.0889 -5.0740 -2.4972 0.9725
4.4407 -4.7697 -2.4974 0.9725
4.7700 -4.4411 -2.4976 0.9725
4.9257 -4.2681 -2.4977 0.9725
5.3545 -3.7177 -2.4980 0.9725
5.6066 -3.3266 -2.4983 0.9725
5.7221 -3.1245 -2.4984 0.9725
5.8303 -2.9184 -2.4986 0.9725
6.1099 -2.2789 -2.4990 0.9725
6.2577 -1.8374 -2.4993 0.9724
6.3197 -1.6130 -2.4995 0.9724
6.3737 -1.3865 -2.4996 0.9724
6.4196 -1.1582 -2.4998 0.9724
6.4572 -0.9284 -2.5000 0.9724
6.5079 -0.4655 -2.5003 0.9724
-5.9736 -1.2995 -2.5020 0.9739
-5.9230 -1.5118 -2.5018 0.9739
-5.7263 -2.1358 -2.5013 0.9739
-5.5585 -2.5385 -2.5010 0.9739
-5.3626 -2.9282 -2.5006 0.9739
-5.2543 -3.1175 -2.5005 0.9739
-5.1393 -3.3028 -2.5003 0.9739
-5.0178 -3.4840 -2.5001 0.9739
-4.7559 -3.8326 -2.4998 0.9739
-4.6158 -3.9996 -2.4997 0.9739
-4.4698 -4.1616 -2.4995 0.9739
-4.3182 -4.3182 -2.4994 0.9740
-4.1611 -4.4693 -2.4992 0.9740
-3.9987 -4.6147 -2.4991 0.9740
-3.4819 -5.0149 -2.4987 0.9740
-3.1149 -5.2500 -2.4984 0.9740
-2.9254 -5.3575 -2.4983 0.9740
-2.7322 -5.4583 -2.4982 0.9740
-2.3357 -5.6388 -2.4980 0.9740
-1.9273 -5.7906 -2.4978 0.9740
-1.7193 -5.8555 -2.4977 0.9740
-1.2971 -5.9629 -2.4975 0.9740
-1.0835 -6.0052 -2.4975 0.9740
-0.6523 -6.0669 -2.4973 0.9740
-0.4353 -6.0862 -2.4973 0.9740
0.4353 -6.0858 -2.4971 0.9740
0.6522 -6.0663 -2.4971 0.9740
0.8683 -6.0391 -2.4971 0.9740
1.0833 -6.0042 -2.4971 0.9740
1.5089 -5.9116 -2.4970 0.9740
1.9268 -5.7890 -2.4971 0.9740
2.1322 -5.7165 -2.4971 0.9740
2.3349 -5.6369 -2.4971 0.9740
2.5346 -5.5500 -2.4971 0.9740
2.9242 -5.3552 -2.4972 0.9740
3.4801 -5.0123 -2.4974 0.9740
3.6569 -4.8850 -2.4974 0.9740
3.9963 -4.6119 -2.4976 0.9740
4.3154 -4.3154 -2.4978 0.9740
4.4668 -4.1588 -2.4978 0.9740
4.7525 -3.8298 -2.4980 0.9740
4.8864 -3.6579 -2.4982 0.9740
5.0141 -3.4813 -2.4983 0.9740
5.1354 -3.3003 -2.4984 0.9740
5.2502 -3.1151 -2.4985 0.9740
5.3583 -2.9258 -2.4986 0.9740
5.4596 -2.7329 -2.4988 0.9740
5.5539 -2.5364 -2.4989 0.9740
5.6412 -2.3367 -2.4990 0.9740
5.8597 -1.7206 -2.4995 0.9740
5.9177 -1.5104 -2.4996 0.9739
5.9683 -1.2983 -2.4998 0.9739
6.0112 -1.0845 -2.4999 0.9739
6.0740 -0.6530 -2.5003 0.9739
6.0938 -0.4358 -2.5004 0.9739
6.1059 -0.2181 -2.5006 0.9739
-5.7432 0.0000 -2.5030 0.9753
-5.7392 -0.2050 -2.5028 0.9753
-5.7278 -0.4097 -2.5027 0.9753
-5.7092 -0.6138 -2.5025 0.9753
-5.6501 -1.0194 -2.5022 0.9753
-5.5077 -1.6172 -2.5017 0.9753
-5.3022 -2.1963 -2.5012 0.9753
-5.1314 -2.5686 -2.5009 0.9753
-4.8265 -3.1018 -2.5004 0.9753
-4.4665 -3.5993 -2.5000 0.9753
-4.1978 -3.9083 -2.4997 0.9753
-4.0554 -4.0554 -2.4995 0.9753
-3.5981 -4.4650 -2.4991 0.9753
-3.2701 -4.7098 -2.4989 0.9753
-3.0998 -4.8233 -2.4988 0.9753
-2.5661 -5.1263 -2.4984 0.9753
-1.6148 -5.4995 -2.4979 0.9753
-1.4174 -5.5534 -2.4979 0.9753
-1.2183 -5.6003 -2.4978 0.9753
-0.8156 -5.6727 -2.4977 0.9753
-0.6126 -5.6980 -2.4976 0.9753
-0.4088 -5.7161 -2.4976 0.9753
-0.2045 -5.7270 -2.4975 0.9753
0.0000 -5.7305 -2.4975 0.9753
0.4088 -5.7158 -2.4974 0.9753
0.6125 -5.6975 -2.4974 0.9753
0.8155 -5.6720 -2.4974 0.9753
1.0174 -5.6392 -2.4973 0.9753
1.6144 -5.4981 -2.4973 0.9753
1.8096 -5.4370 -2.4974 0.9753
2.3805 -5.2126 -2.4974 0.9753
2.5651 -5.1244 -2.4975 0.9753
2.9242 -4.9285 -2.4975 0.9753
3.4345 -4.5880 -2.4977 0.9753
4.1952 -3.9059 -2.4981 0.9753
4.3321 -3.7538 -2.4982 0.9753
4.4635 -3.5969 -2.4983 0.9753
4.7091 -3.2696 -2.4985 0.9753
4.8230 -3.0996 -2.4986 0.9753
5.0323 -2.7479 -2.4988 0.9753
5.3733 -2.0041 -2.4993 0.9753
5.5032 -1.6159 -2.4996 0.9753
5.7043 -0.6133 -2.5004 0.9753
-5.3928 -0.3857 -2.5026 0.9765
-5.3753 -0.5779 -2.5025 0.9765
-5.3509 -0.7693 -2.5023 0.9765
-5.3197 -0.9598 -2.5022 0.9765
-5.2817 -1.1490 -2.5020 0.9765
-5.2370 -1.3367 -2.5019 0.9765
-5.1857 -1.5227 -2.5017 0.9765
-5.1277 -1.7067 -2.5015 0.9765
-4.7418 -2.5892 -2.5008 0.9765
-4.5444 -2.9205 -2.5005 0.9765
-4.4370 -3.0807 -2.5004 0.9765
-4.2055 -3.3890 -2.5001 0.9765
-3.8185 -3.8185 -2.4997 0.9765
-3.3879 -4.2042 -2.4993 0.9765
-2.9187 -4.5416 -2.4989 0.9765
-2.7546 -4.6427 -2.4988 0.9765
-2.5871 -4.7378 -2.4987 0.9765
-2.4162 -4.8270 -2.4986 0.9765
-2.0655 -4.9867 -2.4984 0.9765
-1.7044 -5.1210 -2.4983 0.9765
-1.5205 -5.1784 -2.4982 0.9765
-1.3347 -5.2292 -2.4981 0.9765
-0.9582 -5.3108 -2.4980 0.9765
-0.7680 -5.3415 -2.4979 0.9765
-0.5768 -5.3654 -2.4979 0.9765
-0.3850 -5.3824 -2.4978 0.9765
-0.1926 -5.3927 -2.4978 0.9765
0.0000 -5.3960 -2.4977 0.9765
0.5768 -5.3649 -2.4976 0.9765
0.9580 -5.3100 -2.4976 0.9765
1.3344 -5.2281 -2.4976 0.9765
1.5202 -5.1772 -2.4976 0.9765
1.7040 -5.1197 -2.4976 0.9765
1.8856 -5.0556 -2.4976 0.9765
2.0649 -4.9851 -2.4977 0.9765
2.9174 -4.5396 -2.4978 0.9765
3.0777 -4.4327 -2.4979 0.9765
3.2340 -4.3201 -2.4980 0.9765
3.5341 -4.0786 -2.4981 0.9765
3.8163 -3.8163 -2.4982 0.9765
3.9502 -3.6778 -2.4983 0.9765
4.0791 -3.5346 -2.4984 0.9765
4.5413 -2.9185 -2.4988 0.9765
4.6428 -2.7547 -2.4989 0.9765
4.9885 -2.0663 -2.4994 0.9765
5.0594 -1.8870 -2.4995 0.9765
5.1816 -1.5215 -2.4998 0.9765
5.2329 -1.3356 -2.4999 0.9765
5.3155 -0.9590 -2.5002 0.9765
5.3466 -0.7687 -2.5003 0.9765
5.3884 -0.3854 -2.5006 0.9765
-5.1024 -0.0000 -2.5029 0.9775
-5.0723 -0.5453 -2.5024 0.9775
-5.0494 -0.7260 -2.5023 0.9775
-5.0199 -0.9057 -2.5021 0.9775
-4.9420 -1.2614 -2.5019 0.9775
-4.6381 -2.1182 -2.5011 0.9775
-4.5593 -2.2822 -2.5010 0.9775
-4.4747 -2.4434 -2.5009 0.9775
-4.3844 -2.6014 -2.5007 0.9775
-4.1872 -2.9072 -2.5004 0.9775
-4.0805 -3.0547 -2.5003 0.9775
-3.8518 -3.3376 -2.5000 0.9775
-3.7300 -3.4728 -2.4999 0.9775
-3.4724 -3.7297 -2.4997 0.9776
-2.7544 -4.2860 -2.4991 0.9776
-2.5996 -4.3814 -2.4990 0.9776
-1.9493 -4.7061 -2.4986 0.9776
-1.6085 -4.8328 -2.4985 0.9776
-1.2596 -4.9350 -2.4983 0.9776
-1.0826 -4.9767 -2.4983 0.9776
-0.3633 -5.0796 -2.4980 0.9776
-0.1818 -5.0893 -2.4980 0.9776
0.0000 -5.0924 -2.4980 0.9776
0.1818 -5.0891 -2.4979 0.9776
0.3633 -5.0794 -2.4979 0.9776
0.5443 -5.0631 -2.4979 0.9776
0.9041 -5.0113 -2.4979 0.9776
1.2593 -4.9340 -2.4978 0.9776
1.6081 -4.8317 -2.4979 0.9776
1.7796 -4.7712 -2.4979 0.9776
2.1154 -4.6322 -2.4979 0.9776
2.2795 -4.5538 -2.4980 0.9776
3.0521 -4.0771 -2.4982 0.9776
3.4706 -3.7277 -2.4984 0.9776
3.7280 -3.4709 -2.4985 0.9776
3.8496 -3.3357 -2.4986 0.9776
3.9663 -3.1963 -2.4987 0.9776
4.0780 -3.0528 -2.4988 0.9776
4.1846 -2.9054 -2.4989 0.9776
4.2858 -2.7543 -2.4990 0.9776
4.4717 -2.4417 -2.4992 0.9776
4.6349 -2.1167 -2.4994 0.9776
4.7077 -1.9500 -2.4995 0.9776
4.7746 -1.7808 -2.4996 0.9776
4.8899 -1.4358 -2.4999 0.9775
4.9383 -1.2604 -2.5000 0.9775
5.0685 -0.5449 -2.5005 0.9775
5.0850 -0.3637 -2.5007 0.9775
5.0950 -0.1820 -2.5008 0.9775
-4.8211 -0.1722 -2.5027 0.9785
-4.8116 -0.3441 -2.5025 0.9785
-4.6728 -1.1927 -2.5019 0.9785
-4.6270 -1.3586 -2.5017 0.9785
-4.5753 -1.5228 -2.5016 0.9785
-4.4545 -1.8451 -2.5013 0.9785
-4.3111 -2.1580 -2.5010 0.9785
-4.2311 -2.3103 -2.5009 0.9785
-4.1457 -2.4598 -2.5008 0.9785
-3.9593 -2.7490 -2.5005 0.9785
-3.8584 -2.8884 -2.5004 0.9785
-3.7527 -3.0241 -2.5003 0.9785
-3.6422 -3.1560 -2.5001 0.9785
-3.4074 -3.4074 -2.4999 0.9785
-3.2835 -3.5267 -2.4998 0.9785
-2.8873 -3.8570 -2.4995 0.9785
-2.7477 -3.9574 -2.4994 0.9785
-2.6046 -4.0528 -2.4993 0.9785
-2.4582 -4.1430 -2.4992 0.9785
-2.3086 -4.2280 -2.4991 0.9785
-1.8433 -4.4501 -2.4988 0.9785
-1.6832 -4.5129 -2.4987 0.9785
-1.5210 -4.5699 -2.4987 0.9785
-1.1911 -4.6665 -2.4985 0.9785
-0.8551 -4.7394 -2.4984 0.9785
-0.5148 -4.7881 -2.4983 0.9785
-0.1719 -4.8125 -2.4982 0.9785
0.0000 -4.8155 -2.4982 0.9785
0.5147 -4.7878 -2.4981 0.9785
0.8550 -4.7388 -2.4981 0.9785
1.3566 -4.6202 -2.4981 0.9785
1.6828 -4.5117 -2.4981 0.9785
2.6036 -4.0512 -2.4983 0.9785
3.1539 -3.6398 -2.4985 0.9785
3.2819 -3.5250 -2.4986 0.9785
3.6402 -3.1542 -2.4988 0.9785
3.8562 -2.8867 -2.4989 0.9785
4.4516 -1.8439 -2.4996 0.9785
4.5722 -1.5218 -2.4999 0.9785
4.6695 -1.1918 -2.5001 0.9785
4.7093 -1.0244 -2.5002 0.9785
4.7926 -0.5153 -2.5006 0.9785
-4.5696 0.0000 -2.5028 0.9794
-4.5664 -0.1631 -2.5026 0.9794
-4.5575 -0.3260 -2.5025 0.9794
-4.5427 -0.4884 -2.5024 0.9794
-4.5221 -0.6502 -2.5023 0.9794
-4.4958 -0.8111 -2.5021 0.9794
-4.3827 -1.2869 -2.5017 0.9794
-4.3337 -1.4424 -2.5016 0.9794
-4.2193 -1.7477 -2.5013 0.9794
-4.1541 -1.8971 -2.5012 0.9794
-4.0835 -2.0440 -2.5011 0.9794
-4.0077 -2.1884 -2.5010 0.9794
-3.8410 -2.4685 -2.5007 0.9794
-3.6548 -2.7359 -2.5005 0.9794
-3.5546 -2.8645 -2.5004 0.9794
-3.2276 -3.2276 -2.5000 0.9794
-2.3285 -3.9245 -2.4993 0.9794
-2.1868 -4.0049 -2.4992 0.9794
-2.0424 -4.0803 -2.4991 0.9794
-1.5944 -4.2748 -2.4989 0.9794
-1.4408 -4.3289 -2.4988 0.9794
-1.2853 -4.3774 -2.4988 0.9794
-0.9697 -4.4578 -2.4986 0.9794
-0.8100 -4.4894 -2.4986 0.9794
-0.6492 -4.5154 -2.4985 0.9794
-0.3254 -4.5500 -2.4984 0.9794
0.0000 -4.5615 -2.4984 0.9794
0.1628 -4.5586 -2.4983 0.9794
0.4876 -4.5353 -2.4983 0.9794
0.8099 -4.4889 -2.4983 0.9794
1.1281 -4.4197 -2.4983 0.9794
2.1861 -4.0036 -2.4984 0.9794
2.7338 -3.6520 -2.4986 0.9794
2.8625 -3.5522 -2.4986 0.9794
3.1088 -3.3391 -2.4987 0.9794
3.2261 -3.2260 -2.4988 0.9794
3.3392 -3.1089 -2.4989 0.9794
3.5527 -2.8630 -2.4990 0.9794
3.6528 -2.7344 -2.4991 0.9794
3.8388 -2.4671 -2.4993 0.9794
4.1515 -1.8959 -2.4997 0.9794
4.2167 -1.7466 -2.4998 0.9794
4.2765 -1.5950 -2.4999 0.9794
4.3798 -1.2860 -2.5001 0.9794
4.4231 -1.1289 -2.5002 0.9794
4.5191 -0.6497 -2.5006 0.9794
4.5543 -0.3257 -2.5008 0.9794
4.5633 -0.1630 -2.5009 0.9794
-4.3234 -0.3092 -2.5025 0.9802
-4.3094 -0.4633 -2.5024 0.9802
-4.2899 -0.6168 -2.5022 0.9802
-4.2649 -0.7695 -2.5021 0.9802
-4.1988 -1.0717 -2.5019 0.9802
-4.1576 -1.2208 -2.5017 0.9802
-4.0595 -1.5141 -2.5015 0.9802
-3.8739 -1.9391 -2.5011 0.9802
-3.8020 -2.0760 -2.5010 0.9802
-3.7253 -2.2103 -2.5009 0.9802
-3.6439 -2.3418 -2.5008 0.9802
-3.4672 -2.5955 -2.5005 0.9802
-3.3722 -2.7175 -2.5004 0.9802
-3.2729 -2.8360 -2.5003 0.9802
-3.0620 -3.0620 -2.5001 0.9802
-2.8355 -3.2724 -2.4999 0.9802
-2.7168 -3.3714 -2.4998 0.9802
-2.5947 -3.4660 -2.4997 0.9802
-2.4692 -3.5563 -2.4996 0.9802
-2.2090 -3.7231 -2.4994 0.9802
-2.0747 -3.7995 -2.4994 0.9802
-1.7982 -3.9376 -2.4992 0.9802
-1.0704 -4.1937 -2.4989 0.9802
-0.7684 -4.2592 -2.4988 0.9802
-0.4626 -4.3030 -2.4987 0.9802
-0.1545 -4.3249 -2.4986 0.9802
0.1545 -4.3248 -2.4985 0.9802
0.3087 -4.3165 -2.4985 0.9802
0.9199 -4.2286 -2.4985 0.9802
1.5123 -4.0546 -2.4985 0.9802
1.7977 -3.9365 -2.4985 0.9802
2.3398 -3.6408 -2.4986 0.9802
2.4683 -3.5550 -2.4987 0.9802
2.5936 -3.4647 -2.4987 0.9802
2.7157 -3.3700 -2.4988 0.9802
2.8343 -3.2710 -2.4988 0.9802
3.1680 -2.9495 -2.4990 0.9802
3.2713 -2.8346 -2.4991 0.9802
3.4654 -2.5942 -2.4992 0.9802
3.6419 -2.3405 -2.4994 0.9802
3.7232 -2.2091 -2.4995 0.9802
3.7998 -2.0749 -2.4996 0.9802
3.8716 -1.9380 -2.4997 0.9802
4.0571 -1.5132 -2.5000 0.9802
4.1087 -1.3675 -2.5001 0.9802
4.1550 -1.2200 -2.5002 0.9802
4.2622 -0.7690 -2.5005 0.9802
4.2871 -0.6164 -2.5006 0.9802
4.3066 -0.4630 -2.5007 0.9802
4.3291 -0.1546 -2.5010 0.9802
