ply
format ascii 1.0
element vertex 1343
property float32 x
property float32 y
property float32 z
property float32 I
end_header
35.4061 19.3332 7.1131 0.8489
25.1376 18.8178 5.5368 0.8803
22.2754 19.3017 5.1972 0.8872
20.1593 18.7690 4.8568 0.8942
13.3887 19.2834 4.1394 0.9091
12.4245 19.3329 4.0522 0.9109
9.6486 19.2755 3.8008 0.9162
7.2084 19.3265 3.6371 0.9196
6.5242 19.6021 3.6428 0.9195
7.5840 25.8289 4.7466 0.8964
5.0250 19.6879 3.5828 0.9208
4.2091 19.3487 3.4915 0.9227
2.0709 19.2620 3.4160 0.9243
0.0000 25.8138 4.5517 0.9005
-0.9219 25.8132 4.5545 0.9004
-2.0701 19.2549 3.4147 0.9244
-2.7191 18.9119 3.3690 0.9253
-3.4119 18.9107 3.3883 0.9249
-5.0208 19.6712 3.5798 0.9208
-7.5763 25.8024 4.7417 0.8965
-6.5166 19.5791 3.6385 0.9196
-7.1989 19.3010 3.6323 0.9197
-7.8619 18.9804 3.6225 0.9199
-9.6317 19.2417 3.7942 0.9163
-10.5804 19.3766 3.8928 0.9142
-11.5332 19.4383 3.9854 0.9123
-12.3983 19.2921 4.0436 0.9111
-15.2209 18.8880 4.2773 0.9062
-16.6609 19.2277 4.4861 0.9018
-19.2251 19.2251 4.7940 0.8954
-10.7125 9.9737 2.5808 0.9423
24.1650 9.0131 3.9511 0.9009
42.2751 19.3064 7.1197 0.8286
27.8137 19.3114 5.1872 0.8720
25.0839 18.7775 4.8001 0.8809
23.9543 19.3036 4.7129 0.8829
19.2929 19.2929 4.1798 0.8955
18.0221 19.3571 4.0517 0.8985
8.4065 10.4318 2.0524 0.9472
13.3876 19.2818 3.5960 0.9094
15.0191 25.3134 4.5091 0.8877
8.6458 18.9316 3.1884 0.9192
7.8755 19.0133 3.1527 0.9201
7.5835 25.8269 4.1236 0.8968
4.2320 19.4540 3.0499 0.9226
1.3938 19.4877 2.9930 0.9240
0.9249 25.8969 3.9698 0.9004
0.0000 26.0088 3.9844 0.9001
-0.9248 25.8949 3.9695 0.9005
-1.3936 19.4854 2.9927 0.9240
-3.4118 18.9101 2.9437 0.9252
-6.5986 25.8533 4.0875 0.8977
-8.4728 25.4567 4.1102 0.8971
-7.2323 19.3905 3.1704 0.9197
-8.6319 18.9013 3.1832 0.9194
-9.6571 19.2925 3.3051 0.9164
-13.8362 25.3390 4.4228 0.8897
-15.2203 18.8872 3.7160 0.9065
-16.8008 19.3892 3.9303 0.9014
-17.9796 19.3114 4.0421 0.8987
44.7120 18.5203 6.3022 0.8227
42.0396 19.1989 6.0183 0.8299
37.6367 18.8396 5.4808 0.8439
31.6672 18.7891 4.7950 0.8620
30.0530 19.3139 4.6520 0.8658
24.0056 19.3450 4.0147 0.8831
20.3566 18.9527 3.6219 0.8939
19.2931 19.2931 3.5530 0.8958
18.1924 19.5400 3.4766 0.8979
8.4098 10.4360 1.7453 0.9474
14.1791 18.9411 3.0811 0.9090
15.3314 25.8397 3.9126 0.8859
8.6454 18.9309 2.7101 0.9195
5.7624 19.6248 2.6634 0.9208
4.2407 19.4940 2.5979 0.9227
3.4138 18.9215 2.5038 0.9254
0.0000 19.6646 2.5607 0.9237
-0.9367 26.2256 3.4173 0.8996
-2.7189 18.9107 2.4879 0.9258
-4.2370 19.4773 2.5957 0.9227
-6.6700 26.1330 3.5122 0.8969
-8.6316 18.9007 2.7058 0.9196
-18.8706 31.8048 4.8158 0.8614
-12.6277 19.6490 3.0416 0.9101
-13.3648 19.2490 3.0516 0.9098
-14.1420 18.8915 3.0730 0.9092
-14.1293 17.5334 2.9323 0.9132
-19.2214 19.2214 3.5398 0.8961
-10.7205 9.9811 1.9074 0.9426
28.6511 10.6863 3.2836 0.8842
42.0399 19.1990 4.9628 0.8303
37.5708 18.8066 4.5116 0.8445
35.3850 19.3217 4.3293 0.8503
31.9781 18.9735 3.9927 0.8611
30.0644 19.3212 3.8376 0.8661
28.5002 19.7881 3.7257 0.8697
25.3290 18.9611 3.3975 0.8805
18.3504 19.7097 2.8918 0.8973
8.9102 10.2829 1.4611 0.9467
8.4132 10.4401 1.4398 0.9475
13.4095 19.3133 2.5248 0.9097
12.6939 19.7521 2.5213 0.9099
13.9211 25.4946 3.1192 0.8897
9.5504 19.0793 2.2911 0.9177
7.8757 19.0137 2.2099 0.9205
6.7320 26.3758 2.9231 0.8963
4.1582 19.1149 2.1006 0.9243
2.7203 18.9197 2.0525 0.9260
-2.0550 19.1145 2.0644 0.9256
-2.7189 18.9101 2.0515 0.9260
-3.4116 18.9090 2.0633 0.9256
-7.5891 25.8461 2.8926 0.8973
-6.7493 20.2784 2.2950 0.9176
-7.1125 19.0692 2.1855 0.9214
-7.8616 18.9797 2.2060 0.9207
-8.6314 18.9000 2.2311 0.9198
-9.5337 19.0459 2.2871 0.9179
-19.3618 32.6326 4.0745 0.8584
-14.1415 18.8908 2.5340 0.9094
-19.2745 19.2745 2.9270 0.8961
-10.7244 9.9848 1.5735 0.9428
42.1293 19.2398 3.9207 0.8303
31.9762 18.9724 3.1475 0.8613
30.1803 19.3957 3.0370 0.8659
25.3277 18.9601 2.6783 0.8807
24.2787 19.5650 2.6396 0.8823
22.7807 19.7396 2.5517 0.8860
20.3547 18.9509 2.3543 0.8944
19.0982 19.0982 2.2864 0.8972
8.9068 10.2789 1.1514 0.9469
14.1780 18.9397 2.0028 0.9094
13.2871 19.1371 1.9722 0.9107
12.5078 19.4626 1.9585 0.9113
15.3795 25.9208 2.5514 0.8860
9.6178 19.2140 1.8189 0.9174
8.6449 18.9297 1.7617 0.9199
7.8758 19.0140 1.7422 0.9207
8.4819 25.4839 2.2736 0.8978
7.5251 25.6282 2.2611 0.8983
6.7318 26.3750 2.3043 0.8965
2.0647 19.2049 1.6351 0.9254
1.3725 19.1899 1.6286 0.9257
-0.9299 26.0366 2.2055 0.9007
-1.3722 19.1854 1.6282 0.9257
-2.0640 19.1980 1.6345 0.9254
-3.4115 18.9084 1.6265 0.9258
-6.7391 26.4034 2.3068 0.8964
-8.4720 25.4542 2.2710 0.8979
-7.1527 19.1772 1.7326 0.9211
-8.6311 18.8994 1.7588 0.9200
-9.6010 19.1804 1.8157 0.9175
-13.8940 25.4450 2.4542 0.8901
-12.4968 19.4453 1.9567 0.9114
-13.2546 19.0902 1.9674 0.9109
-19.0190 19.0190 2.2769 0.8977
-10.7284 9.9885 1.2409 0.9429
43.0982 17.8519 2.8927 0.8295
31.9743 18.9712 2.3055 0.8616
29.7621 19.1270 2.1938 0.8678
25.3264 18.9591 1.9618 0.8809
20.3538 18.9501 1.7245 0.8945
19.2361 19.2361 1.6869 0.8967
8.9034 10.2750 0.8431 0.9470
13.3455 19.2211 1.4510 0.9105
12.5997 19.6056 1.4452 0.9108
13.9201 25.4928 1.8011 0.8901
8.6446 18.9290 1.2904 0.9200
4.1760 19.1965 1.2182 0.9243
3.4135 18.9197 1.1922 0.9258
1.3724 19.1880 1.1929 0.9258
-2.7187 18.9090 1.1846 0.9263
-3.4113 18.9078 1.1914 0.9259
-8.4717 25.4534 1.6635 0.8981
-7.8614 18.9792 1.2739 0.9210
-9.6000 19.1783 1.3299 0.9176
-13.8935 25.4441 1.7977 0.8903
-12.5888 19.5884 1.4439 0.9109
-13.3128 19.1741 1.4475 0.9107
-14.1339 17.5392 1.3968 0.9137
-20.2384 23.3564 1.9164 0.8835
-18.6050 19.9832 1.6931 0.8964
-10.7323 9.9921 0.9093 0.9429
42.1297 19.2400 1.8263 0.8308
29.9369 19.2393 1.4032 0.8672
25.3251 18.9582 1.2474 0.8811
24.0046 19.3442 1.2156 0.8839
29.7636 25.7904 1.5529 0.8541
20.3529 18.9492 1.0965 0.8947
19.2334 19.2333 1.0725 0.8968
18.3121 19.6686 1.0596 0.8980
8.9000 10.2711 0.5359 0.9470
14.1770 18.9382 0.9328 0.9096
15.2933 25.7755 1.1818 0.8869
13.9196 25.4919 1.1452 0.8902
7.8760 19.0145 0.8115 0.9209
7.1605 19.1981 0.8079 0.9213
7.5644 25.7620 1.0587 0.8981
6.7187 26.3234 1.0712 0.8970
4.1755 19.1946 0.7746 0.9244
3.4134 18.9191 0.7580 0.9259
2.7200 18.9179 0.7536 0.9263
2.0643 19.2011 0.7615 0.9256
1.3722 19.1861 0.7585 0.9259
0.9398 26.3132 1.0382 0.9000
0.0000 26.5686 1.0476 0.8991
-2.0636 19.1942 0.7612 0.9256
-3.4112 18.9072 0.7576 0.9260
-4.1723 19.1798 0.7740 0.9244
-8.4715 25.4526 1.0578 0.8982
-8.6305 18.8981 0.8192 0.9202
-9.5989 19.1762 0.8456 0.9177
-12.5896 19.5898 0.9182 0.9110
-14.1399 18.8886 0.9304 0.9099
-15.2173 18.8835 0.9563 0.9075
-18.6058 19.9841 1.0767 0.8965
-10.7362 9.9958 0.5784 0.9430
28.4796 10.6223 0.5134 0.8855
29.9313 19.2357 0.6010 0.8673
36.7722 25.5314 0.7562 0.8360
24.0062 19.3454 0.5208 0.8840
20.3520 18.9484 0.4697 0.8947
19.2306 19.2306 0.4594 0.8969
8.4265 10.4566 0.2268 0.9477
14.1764 18.9375 0.3996 0.9097
13.3422 19.2165 0.3952 0.9107
15.2916 25.7725 0.5062 0.8870
13.9191 25.4910 0.4906 0.8903
8.6440 18.9277 0.3515 0.9201
7.1597 19.1960 0.3461 0.9213
7.5636 25.7593 0.4535 0.8982
6.7185 26.3226 0.4589 0.8970
4.1751 19.1927 0.3318 0.9244
2.7199 18.9173 0.3228 0.9264
0.9397 26.3124 0.4447 0.9000
-0.9396 26.3092 0.4447 0.9000
-1.3718 19.1797 0.3248 0.9260
-2.0634 19.1923 0.3261 0.9257
-3.4111 18.9066 0.3245 0.9260
-8.4712 25.4518 0.4531 0.8982
-7.8612 18.9787 0.3470 0.9211
-19.3274 32.5746 0.6398 0.8594
-12.5905 19.5911 0.3934 0.9110
-13.3096 19.1695 0.3942 0.9109
-15.2167 18.8828 0.4096 0.9075
-20.3081 23.4367 0.5238 0.8833
-19.1528 19.1528 0.4575 0.8973
28.4620 10.6158 -0.1710 0.8856
42.1302 19.2402 -0.2608 0.8309
35.4247 19.3434 -0.2272 0.8509
31.9685 18.9678 -0.2093 0.8618
24.0077 19.3466 -0.1736 0.8840
29.7544 25.7824 -0.2217 0.8543
19.2279 19.2279 -0.1531 0.8969
8.8932 10.2633 -0.0765 0.9471
8.4298 10.4608 -0.0756 0.9477
14.1759 18.9368 -0.1332 0.9097
13.3406 19.2141 -0.1317 0.9107
15.2898 25.7696 -0.1687 0.8870
13.9187 25.4901 -0.1635 0.8903
9.6136 19.2056 -0.1209 0.9177
7.1590 19.1940 -0.1153 0.9213
6.7182 26.3218 -0.1529 0.8970
3.4132 18.9180 -0.1082 0.9260
2.7198 18.9168 -0.1076 0.9264
2.0639 19.1973 -0.1087 0.9257
1.3719 19.1823 -0.1083 0.9260
0.9397 26.3116 -0.1482 0.9000
0.0000 26.5670 -0.1496 0.8992
-1.3716 19.1778 -0.1082 0.9260
-2.0632 19.1904 -0.1087 0.9257
-4.1715 19.1759 -0.1105 0.9245
-6.7122 26.2982 -0.1528 0.8971
-14.1388 18.8872 -0.1328 0.9099
-20.3083 23.4370 -0.1746 0.8833
-18.6074 19.9858 -0.1537 0.8965
-10.5958 10.5958 -0.0844 0.9418
49.0365 8.8472 -1.4031 0.8192
28.4545 10.6130 -0.8551 0.8856
35.4267 19.3444 -1.1366 0.8508
31.9666 18.9667 -1.0466 0.8618
29.9200 19.2284 -1.0015 0.8673
36.7683 25.5287 -1.2604 0.8360
29.7498 25.7784 -1.1084 0.8543
20.3502 18.9467 -0.7829 0.8947
18.3158 19.6726 -0.7569 0.8980
8.8898 10.2594 -0.3822 0.9471
14.1753 18.9360 -0.6661 0.9097
13.3390 19.2118 -0.6586 0.9107
12.6042 19.6125 -0.6565 0.9109
15.2881 25.7667 -0.8436 0.8870
8.6434 18.9265 -0.5859 0.9201
7.8763 19.0152 -0.5795 0.9209
7.1582 19.1919 -0.5768 0.9213
8.4805 25.4798 -0.7561 0.8981
7.5621 25.7540 -0.7558 0.8982
6.7180 26.3209 -0.7649 0.8970
4.1743 19.1888 -0.5530 0.9244
2.7197 18.9162 -0.5381 0.9264
2.0637 19.1954 -0.5436 0.9257
1.3718 19.1804 -0.5415 0.9259
0.9397 26.3108 -0.7413 0.9000
0.0000 26.5662 -0.7480 0.8991
-0.9396 26.3076 -0.7412 0.9000
-2.7184 18.9067 -0.5378 0.9264
-3.4109 18.9054 -0.5409 0.9260
-4.1710 19.1740 -0.5525 0.9245
-7.5542 25.7273 -0.7550 0.8983
-8.4706 25.4501 -0.7553 0.8982
-7.1489 19.1670 -0.5760 0.9214
-7.8610 18.9782 -0.5784 0.9211
-9.5958 19.1699 -0.6036 0.9178
-12.5922 19.5938 -0.6558 0.9110
-13.3064 19.1648 -0.6570 0.9109
-15.2155 18.8813 -0.6828 0.9075
-20.3086 23.4373 -0.8732 0.8833
-18.6083 19.9867 -0.7689 0.8965
-10.5918 10.5918 -0.4218 0.9418
-10.7480 10.0067 -0.4135 0.9429
49.1205 0.0000 -2.4911 0.8214
49.1359 1.7549 -2.4935 0.8213
49.0887 3.5109 -2.4959 0.8211
45.3381 9.8627 -2.3531 0.8304
44.6046 13.0971 -2.3576 0.8301
28.4471 10.6102 -1.5398 0.8855
43.0719 17.8410 -2.3643 0.8297
42.0400 19.1990 -2.3438 0.8310
38.3295 19.1864 -2.1738 0.8423
25.3200 18.9543 -1.6040 0.8810
24.0107 19.3490 -1.5639 0.8838
19.2224 19.2224 -1.3787 0.8968
18.3171 19.6740 -1.3632 0.8979
8.8865 10.2555 -0.6882 0.9471
13.3373 19.2095 -1.1860 0.9106
9.6115 19.2014 -1.0890 0.9176
8.6431 18.9258 -1.0551 0.9200
7.8764 19.0154 -1.0438 0.9209
7.5613 25.7514 -1.3611 0.8981
6.7178 26.3201 -1.3776 0.8969
4.1739 19.1869 -0.9958 0.9244
3.4130 18.9168 -0.9748 0.9259
2.7197 18.9156 -0.9692 0.9263
2.0635 19.1935 -0.9790 0.9256
0.0000 26.5654 -1.3472 0.8991
-2.0628 19.1866 -0.9786 0.9256
-2.7183 18.9061 -0.9687 0.9264
-3.4108 18.9049 -0.9742 0.9259
-4.1706 19.1720 -0.9950 0.9244
-6.7118 26.2966 -1.3764 0.8970
-8.4704 25.4493 -1.3602 0.8981
-7.1482 19.1650 -1.0373 0.9213
-9.5947 19.1678 -1.0871 0.9177
-19.2643 32.4683 -1.9146 0.8597
-12.5932 19.5953 -1.1813 0.9109
-20.3088 23.4376 -1.5728 0.8832
-18.6092 19.9877 -1.3850 0.8964
-10.5877 10.5877 -0.7594 0.9418
-45.2456 20.6630 -2.5225 0.8194
-45.2345 18.7367 -2.4830 0.8219
-45.2232 16.8674 -2.4478 0.8242
-46.0017 11.7413 -2.4077 0.8268
-48.5050 8.7513 -2.4996 0.8209
-49.4048 5.3116 -2.5200 0.8195
-49.5163 3.5415 -2.5176 0.8197
33.8923 3.6438 -2.4994 0.8722
33.7631 4.8544 -2.5010 0.8721
30.8195 9.0494 -2.3552 0.8791
28.6310 9.5294 -2.2125 0.8860
27.7506 11.4947 -2.2024 0.8865
29.2946 13.3784 -2.3613 0.8788
26.5369 18.4249 -2.3688 0.8785
24.4586 21.1935 -2.3730 0.8783
20.3484 18.9450 -2.0385 0.8945
19.1598 19.1598 -1.9867 0.8970
18.2574 19.6099 -1.9645 0.8981
8.8831 10.2516 -0.9946 0.9470
13.2949 19.1483 -1.7092 0.9107
15.2506 25.7035 -2.1914 0.8870
13.9172 25.4875 -2.1292 0.8901
7.1567 19.1878 -1.5016 0.9211
7.5434 25.6905 -1.9632 0.8982
4.1734 19.1849 -1.4396 0.9243
2.7196 18.9150 -1.4011 0.9262
2.0633 19.1916 -1.4153 0.9255
1.3715 19.1766 -1.4097 0.9258
0.9396 26.3092 -1.9303 0.8998
-0.9395 26.3059 -1.9300 0.8998
-1.3712 19.1721 -1.4093 0.9258
-7.5356 25.6638 -1.9612 0.8983
-7.1474 19.1629 -1.4996 0.9212
-16.6414 28.0476 -2.3912 0.8774
-12.5315 19.4994 -1.6995 0.9112
-13.2624 19.1015 -1.7050 0.9110
-15.2143 18.8798 -1.7779 0.9073
-20.2615 23.3829 -2.2686 0.8833
-24.5712 21.2910 -2.3839 0.8777
-25.3043 20.3915 -2.3828 0.8778
-26.0040 19.4663 -2.3817 0.8778
-28.3970 19.7164 -2.5348 0.8705
-29.7014 17.6227 -2.5322 0.8707
-30.2956 16.5426 -2.5309 0.8707
-31.8375 13.1875 -2.5267 0.8709
-32.2693 12.0358 -2.5253 0.8710
-34.0956 3.6657 -2.5144 0.8715
-34.2257 1.2224 -2.5111 0.8717
26.0007 0.0000 -2.4962 0.9008
25.9606 1.8568 -2.4987 0.9007
25.8909 2.7836 -2.5000 0.9006
25.7882 3.7078 -2.5013 0.9006
24.7164 8.2264 -2.5009 0.9006
22.9955 8.5769 -2.3562 0.9061
22.3472 10.2056 -2.3586 0.9060
21.9795 11.0021 -2.3597 0.9060
20.2284 14.0448 -2.3642 0.9058
19.7233 14.7646 -2.3653 0.9057
18.6363 16.1484 -2.3674 0.9057
18.0558 16.8106 -2.3684 0.9056
17.4517 17.4517 -2.3694 0.9056
8.8797 10.2477 -1.3018 0.9470
8.4431 10.4773 -1.2918 0.9474
11.8630 21.7255 -2.3764 0.9053
8.6426 18.9246 -1.9973 0.9198
7.1348 19.1291 -1.9601 0.9212
6.8185 20.4863 -2.0729 0.9169
6.1329 24.0286 -2.3808 0.9052
4.1607 19.1265 -1.8792 0.9244
3.4128 18.9156 -1.8453 0.9257
2.7195 18.9144 -1.8345 0.9261
1.3674 19.1186 -1.8402 0.9259
0.8859 24.8060 -2.3830 0.9051
0.0001 24.8239 -2.3832 0.9051
-0.8861 24.8101 -2.3834 0.9051
-3.4106 18.9037 -1.8441 0.9257
-6.9943 23.8204 -2.3834 0.9051
-6.8080 20.4548 -2.0697 0.9170
-7.1255 19.1043 -1.9575 0.9213
-8.6287 18.8943 -1.9942 0.9199
-11.8894 21.7738 -2.3817 0.9051
-14.1366 18.8843 -2.2647 0.9096
-16.2245 18.7241 -2.3786 0.9052
-16.8778 18.1280 -2.3779 0.9053
-10.5796 10.5796 -1.4364 0.9416
-10.7598 10.0177 -1.4114 0.9426
-18.7016 16.2050 -2.3757 0.9053
-19.2616 15.5220 -2.3749 0.9054
-20.3054 14.0983 -2.3732 0.9054
-20.7878 13.3595 -2.3723 0.9055
-22.0703 11.0476 -2.3695 0.9056
-25.5986 5.5686 -2.5151 0.9001
-25.7687 4.6492 -2.5139 0.9001
-26.0094 2.7963 -2.5114 0.9002
-26.0797 1.8653 -2.5102 0.9003
-26.1167 0.9328 -2.5089 0.9003
21.0235 0.0000 -2.4973 0.9188
21.0186 0.7507 -2.4983 0.9188
20.9870 1.5010 -2.4993 0.9187
20.7318 3.7404 -2.5024 0.9186
20.5935 4.4799 -2.5034 0.9186
16.7702 4.2804 -2.0559 0.9327
20.2381 5.9425 -2.5055 0.9185
20.0212 6.6637 -2.5065 0.9185
19.7787 7.3771 -2.5075 0.9185
19.4782 8.0681 -2.5044 0.9186
18.1606 8.2937 -2.3715 0.9227
17.4280 9.5164 -2.3587 0.9231
17.0839 10.1364 -2.3596 0.9231
16.7176 10.7438 -2.3605 0.9231
15.9204 11.9179 -2.3623 0.9230
15.0405 13.0326 -2.3640 0.9230
13.5750 14.5806 -2.3664 0.9229
8.8763 10.2438 -1.6101 0.9469
8.4465 10.4815 -1.5990 0.9472
11.9498 15.9631 -2.3686 0.9228
9.5670 17.5207 -2.3713 0.9227
8.9378 17.8555 -2.3719 0.9227
7.6448 18.4561 -2.3730 0.9227
6.9826 18.7212 -2.3735 0.9227
5.6315 19.1790 -2.3744 0.9226
4.1603 19.1245 -2.3249 0.9242
3.4126 18.9150 -2.2831 0.9255
2.0566 19.1290 -2.2853 0.9254
-0.7142 19.9970 -2.3769 0.9226
-1.3669 19.1121 -2.2761 0.9257
-2.7180 18.9043 -2.2687 0.9260
-4.1571 19.1098 -2.3231 0.9242
-5.6374 19.1992 -2.3769 0.9226
-6.3187 18.9847 -2.3767 0.9226
-6.9918 18.7457 -2.3766 0.9226
-9.5842 17.5522 -2.3755 0.9226
-10.2031 17.1964 -2.3752 0.9226
-11.4001 16.4193 -2.3744 0.9226
-11.9766 15.9989 -2.3740 0.9227
-13.6096 14.6177 -2.3724 0.9227
-10.7638 10.0214 -1.7469 0.9425
-15.0829 13.0694 -2.3707 0.9228
-12.1607 9.1034 -1.8044 0.9406
-16.3797 11.3727 -2.3687 0.9228
-17.1387 10.1689 -2.3672 0.9229
-17.8089 8.9145 -2.3657 0.9229
-19.0471 7.8896 -2.4489 0.9203
-20.8077 3.7541 -2.5116 0.9184
-21.0647 1.5066 -2.5086 0.9184
17.5975 1.2586 -2.4997 0.9312
17.5474 1.8865 -2.5006 0.9312
17.2630 3.7553 -2.5032 0.9311
17.1239 4.3706 -2.5041 0.9311
16.9628 4.9807 -2.5049 0.9311
16.7799 5.5849 -2.5058 0.9310
16.1031 7.3540 -2.5083 0.9310
15.1210 8.2567 -2.4411 0.9328
14.0049 9.0004 -2.3588 0.9350
12.9746 10.4556 -2.3610 0.9349
12.2028 11.3612 -2.3624 0.9349
9.4921 9.4921 -1.9020 0.9472
8.2111 9.4761 -1.7766 0.9506
7.6843 9.5356 -1.7352 0.9517
7.6742 10.2516 -1.8144 0.9496
7.6290 11.8709 -1.9994 0.9446
8.5252 14.3685 -2.3672 0.9347
6.9448 15.2070 -2.3687 0.9347
5.8444 15.6694 -2.3696 0.9347
4.7132 16.0516 -2.3704 0.9346
4.1379 16.2119 -2.3707 0.9346
3.5570 16.3515 -2.3710 0.9346
1.1943 16.6982 -2.3720 0.9346
0.0000 16.7432 -2.3723 0.9346
-0.5976 16.7333 -2.3724 0.9346
-2.3831 16.5748 -2.3726 0.9346
-3.5594 16.3624 -2.3726 0.9346
-4.1411 16.2245 -2.3725 0.9346
-5.8508 15.6866 -2.3722 0.9346
-6.4065 15.4666 -2.3720 0.9346
-7.4922 14.9674 -2.3716 0.9346
-8.0207 14.6889 -2.3713 0.9346
-8.5389 14.3915 -2.3710 0.9346
-9.8820 11.4045 -2.1381 0.9409
-9.7758 9.7758 -1.9589 0.9457
-9.9629 9.2758 -1.9287 0.9465
-11.3944 9.1822 -2.0734 0.9426
-14.0417 9.0241 -2.3650 0.9348
-15.6684 7.8430 -2.4826 0.9317
-16.1488 7.3749 -2.5154 0.9308
-16.6240 6.2004 -2.5139 0.9308
-16.8296 5.6014 -2.5132 0.9308
-17.0135 4.9957 -2.5124 0.9309
-17.3156 3.7668 -2.5108 0.9309
-17.6017 1.8924 -2.5083 0.9310
-17.6521 1.2625 -2.5075 0.9310
15.0933 1.6227 -2.5008 0.9403
15.0302 2.1610 -2.5015 0.9403
14.8466 3.2297 -2.5030 0.9403
14.7262 3.7586 -2.5038 0.9402
14.4290 4.8025 -2.5052 0.9402
14.2526 5.3159 -2.5060 0.9402
13.8450 6.3228 -2.5074 0.9402
13.3663 7.2985 -2.5088 0.9401
12.7755 8.2103 -2.5018 0.9403
11.4624 8.5806 -2.3588 0.9436
11.1517 8.9866 -2.3594 0.9436
10.8266 9.3813 -2.3600 0.9436
8.2108 9.4757 -2.0655 0.9504
7.6940 9.5476 -2.0200 0.9515
6.8807 12.6011 -2.3652 0.9435
5.9663 13.0645 -2.3660 0.9434
5.0207 13.4610 -2.3668 0.9434
4.0487 13.7887 -2.3674 0.9434
3.5545 13.9262 -2.3677 0.9434
3.0555 14.0458 -2.3680 0.9434
1.5515 8.5994 -1.4395 0.9652
1.2253 8.5223 -1.4184 0.9657
0.0000 14.3811 -2.3691 0.9434
-1.0260 14.3456 -2.3693 0.9434
-1.5374 14.3001 -2.3694 0.9434
-2.0469 14.2363 -2.3694 0.9434
-3.0572 14.0538 -2.3694 0.9434
-4.5416 13.6452 -2.3691 0.9434
-5.0254 13.4737 -2.3690 0.9434
-6.4355 12.8565 -2.3685 0.9434
-7.3348 12.3622 -2.3680 0.9434
-7.7705 12.0911 -2.3678 0.9434
-9.4070 10.8562 -2.3664 0.9434
-9.6997 10.4182 -2.3450 0.9439
-9.6496 9.6496 -2.2481 0.9462
-9.8440 9.1651 -2.2158 0.9469
-11.1751 9.0054 -2.3643 0.9435
-11.7842 8.1819 -2.3634 0.9435
-12.2898 7.8982 -2.4067 0.9425
-13.0998 7.7725 -2.5093 0.9401
-13.3978 7.3157 -2.5147 0.9400
-14.0927 5.8374 -2.5129 0.9400
-14.2884 5.3293 -2.5123 0.9401
-14.4657 4.8147 -2.5116 0.9401
-14.6245 4.2941 -2.5109 0.9401
-14.8854 3.2381 -2.5096 0.9401
-15.1335 1.6270 -2.5074 0.9402
-15.1776 1.0855 -2.5067 0.9402
13.2902 0.4747 -2.4996 0.9473
13.2682 0.9490 -2.5003 0.9473
13.2293 1.4223 -2.5009 0.9473
13.1736 1.8941 -2.5016 0.9473
13.1010 2.3637 -2.5022 0.9473
13.0116 2.8305 -2.5029 0.9472
12.7832 3.7535 -2.5042 0.9472
12.6443 4.2084 -2.5048 0.9472
12.4892 4.6583 -2.5055 0.9472
10.9682 7.6154 -2.5098 0.9471
10.6726 7.9894 -2.5058 0.9472
9.4839 8.2179 -2.3587 0.9502
8.5566 9.1905 -2.3602 0.9502
8.1057 9.3545 -2.3265 0.9509
7.5800 9.4062 -2.2706 0.9520
7.5296 10.0584 -2.3616 0.9501
6.7954 10.5738 -2.3625 0.9501
6.4147 10.8115 -2.3629 0.9501
5.6289 11.2452 -2.3637 0.9501
4.3965 11.7874 -2.3647 0.9501
3.9735 11.9383 -2.3650 0.9501
3.5452 12.0740 -2.3652 0.9501
2.6754 12.2987 -2.3657 0.9501
1.2254 8.5228 -1.6184 0.9656
0.8982 12.5582 -2.3665 0.9500
0.4494 12.5829 -2.3666 0.9500
-0.4494 12.5840 -2.3668 0.9500
-0.8983 12.5603 -2.3669 0.9500
-1.3461 12.5205 -2.3669 0.9500
-3.5476 12.0820 -2.3668 0.9500
-4.4001 11.7971 -2.3666 0.9500
-4.8181 11.6319 -2.3665 0.9500
-5.2299 11.4518 -2.3663 0.9501
-5.6349 11.2570 -2.3662 0.9501
-6.0326 11.0478 -2.3660 0.9501
-6.4225 10.8245 -2.3657 0.9501
-6.8040 10.5873 -2.3655 0.9501
-7.1768 10.3366 -2.3653 0.9501
-7.5403 10.0726 -2.3650 0.9501
-7.8940 9.7959 -2.3647 0.9501
-9.2024 8.5678 -2.3633 0.9501
-9.8448 7.9335 -2.3765 0.9498
-11.2526 7.2316 -2.5142 0.9470
-11.5012 6.8240 -2.5137 0.9470
-12.5167 4.6685 -2.5110 0.9471
-13.0415 2.8370 -2.5086 0.9471
-13.1312 2.3691 -2.5080 0.9471
-13.2602 1.4256 -2.5068 0.9472
-13.3214 0.4758 -2.5055 0.9472
11.8238 0.0000 -2.4993 0.9528
11.7991 0.8439 -2.5005 0.9528
11.5696 2.5168 -2.5028 0.9527
11.4750 2.9288 -2.5033 0.9527
11.2420 3.7417 -2.5045 0.9527
11.1038 4.1415 -2.5051 0.9527
10.4107 5.6847 -2.5073 0.9527
10.2034 6.0539 -2.5078 0.9527
9.9829 6.4156 -2.5084 0.9526
9.7496 6.7693 -2.5089 0.9526
8.9708 7.7732 -2.5091 0.9526
8.6714 8.0733 -2.5044 0.9527
7.6049 8.1682 -2.3591 0.9554
7.3098 8.4360 -2.3595 0.9554
7.0053 8.6930 -2.3599 0.9554
6.6917 8.9390 -2.3603 0.9554
6.3694 9.1737 -2.3607 0.9554
6.0389 9.3967 -2.3611 0.9554
5.7005 9.6077 -2.3614 0.9554
5.3547 9.8064 -2.3618 0.9553
4.0257 8.8150 -2.0484 0.9612
3.1501 10.7284 -2.3635 0.9553
2.7655 10.8351 -2.3637 0.9553
-0.3993 11.1808 -2.3649 0.9553
-0.7982 11.1597 -2.3650 0.9553
-1.1960 11.1243 -2.3650 0.9553
-2.7669 10.8407 -2.3650 0.9553
-3.5330 10.6151 -2.3648 0.9553
-4.6468 10.1751 -2.3645 0.9553
-5.0067 10.0021 -2.3643 0.9553
-5.7066 9.6179 -2.3640 0.9553
-6.3770 9.1846 -2.3635 0.9553
-6.7001 8.9502 -2.3633 0.9553
-7.0145 8.7044 -2.3630 0.9553
-7.3198 8.4475 -2.3627 0.9553
-7.6157 8.1798 -2.3624 0.9553
-7.9560 7.9560 -2.3784 0.9550
-8.5214 7.9337 -2.4611 0.9535
-9.7664 6.7809 -2.5132 0.9526
-11.1255 4.1496 -2.5100 0.9526
-11.4982 2.9348 -2.5084 0.9526
-11.5932 2.5219 -2.5079 0.9527
-11.7384 1.6877 -2.5068 0.9527
-11.7885 1.2674 -2.5062 0.9527
10.6127 0.7590 -2.5006 0.9572
10.5811 1.1376 -2.5011 0.9572
10.3200 2.6340 -2.5032 0.9572
10.2216 3.0013 -2.5037 0.9572
10.1100 3.3649 -2.5042 0.9572
9.8482 4.0793 -2.5053 0.9571
9.5359 4.7733 -2.5063 0.9571
8.7663 6.0866 -2.5082 0.9571
8.0699 6.9926 -2.5096 0.9571
7.8166 7.2775 -2.5100 0.9571
6.0823 8.1251 -2.3854 0.9592
5.4287 8.4472 -2.3599 0.9596
5.1245 8.6368 -2.3603 0.9596
4.8136 8.8154 -2.3606 0.9596
4.3060 8.6023 -2.2609 0.9612
4.0032 8.7658 -2.2648 0.9612
3.8450 9.2827 -2.3614 0.9596
3.5116 9.4151 -2.3617 0.9596
3.1737 9.5354 -2.3619 0.9595
2.8316 9.6435 -2.3621 0.9595
2.4858 9.7392 -2.3623 0.9595
2.1368 9.8225 -2.3625 0.9595
1.2255 8.5237 -2.0239 0.9652
0.0000 10.0556 -2.3633 0.9595
-1.7855 9.8966 -2.3635 0.9595
-2.8331 9.6486 -2.3634 0.9595
-3.5139 9.4213 -2.3632 0.9595
-3.8478 9.2894 -2.3631 0.9595
-5.7321 8.2558 -2.3621 0.9595
-6.4223 7.9696 -2.4055 0.9588
-7.5595 7.5595 -2.5126 0.9570
-7.8273 7.2875 -2.5135 0.9570
-8.3250 6.7087 -2.5128 0.9570
-8.7799 6.0960 -2.5121 0.9570
-9.3768 5.1201 -2.5109 0.9571
-9.7149 4.4366 -2.5100 0.9571
-10.2400 3.0067 -2.5082 0.9571
-10.4967 1.8938 -2.5068 0.9571
-10.5555 1.5177 -2.5063 0.9571
-10.6326 0.7605 -2.5053 0.9571
-10.6508 0.3804 -2.5048 0.9572
9.1762 3.0541 -2.5040 0.9608
8.6545 4.3321 -2.5059 0.9608
7.9555 5.5236 -2.5076 0.9608
7.5437 6.0791 -2.5085 0.9608
7.3231 6.3455 -2.5089 0.9608
7.0931 6.6039 -2.5093 0.9607
6.0847 7.5506 -2.5108 0.9607
5.5206 7.9512 -2.5063 0.9608
4.4251 8.1039 -2.3907 0.9626
3.7866 8.2915 -2.3601 0.9630
3.4886 8.4222 -2.3603 0.9630
1.9386 8.9116 -2.3613 0.9630
0.9751 9.0694 -2.3617 0.9630
0.3256 9.1166 -2.3620 0.9630
0.0000 9.1227 -2.3620 0.9630
-0.3256 9.1172 -2.3621 0.9630
-0.6508 9.0999 -2.3621 0.9630
-1.2984 9.0305 -2.3622 0.9630
-2.2562 8.8398 -2.3621 0.9630
-3.1880 8.5473 -2.3620 0.9630
-3.4909 8.4277 -2.3619 0.9630
-3.7893 8.2973 -2.3618 0.9630
-4.0860 8.1629 -2.3635 0.9630
-4.7407 7.9900 -2.4055 0.9623
-5.8082 7.7588 -2.5094 0.9607
-6.0891 7.5561 -2.5126 0.9607
-6.3565 7.3358 -2.5132 0.9607
-7.1019 6.6121 -2.5124 0.9607
-8.3386 4.9475 -2.5104 0.9607
-8.5086 4.6461 -2.5101 0.9607
-8.8157 4.0260 -2.5093 0.9607
-8.9523 3.7082 -2.5089 0.9608
-9.4605 2.0580 -2.5068 0.9608
-9.5798 1.3774 -2.5059 0.9608
-9.6668 0.3453 -2.5045 0.9608
8.8309 0.0000 -2.5000 0.9640
8.8268 0.3153 -2.5004 0.9639
8.8114 0.6302 -2.5008 0.9639
8.7470 1.2576 -2.5017 0.9639
8.6981 1.5693 -2.5021 0.9639
8.6380 1.8791 -2.5026 0.9639
8.5669 2.1866 -2.5030 0.9639
8.3920 2.7931 -2.5038 0.9639
8.2884 3.0914 -2.5043 0.9639
8.0494 3.6760 -2.5051 0.9639
7.7692 4.2423 -2.5059 0.9639
7.2747 5.0509 -2.5071 0.9639
7.0909 5.3082 -2.5075 0.9638
6.8979 5.5587 -2.5079 0.9638
6.6961 5.8022 -2.5083 0.9638
6.2670 6.2670 -2.5090 0.9638
5.8055 6.6999 -2.5097 0.9638
5.3141 7.0988 -2.5103 0.9638
5.0580 7.2849 -2.5106 0.9638
4.5264 7.6289 -2.5112 0.9638
3.6756 8.0484 -2.5048 0.9639
2.6890 8.0792 -2.4105 0.9652
2.0636 8.0852 -2.3622 0.9659
1.1867 8.2537 -2.3606 0.9659
0.8914 8.2912 -2.3607 0.9659
0.2977 8.3344 -2.3609 0.9659
-0.2977 8.3348 -2.3610 0.9659
-1.4809 8.2079 -2.3611 0.9659
-1.7729 8.1498 -2.3611 0.9659
-2.0626 8.0812 -2.3611 0.9659
-2.3567 8.0263 -2.3681 0.9658
-2.9871 8.0086 -2.4197 0.9651
-3.6481 7.9882 -2.4861 0.9642
-4.5268 7.6295 -2.5114 0.9638
-4.7994 7.4679 -2.5131 0.9638
-5.3191 7.1055 -2.5127 0.9638
-5.8114 6.7067 -2.5123 0.9638
-6.2739 6.2739 -2.5118 0.9638
-6.4931 6.0453 -2.5115 0.9638
-6.7040 5.8091 -2.5112 0.9638
-7.0997 5.3148 -2.5107 0.9638
-7.2840 5.0574 -2.5103 0.9638
-7.4589 4.7936 -2.5100 0.9638
-7.7798 4.2481 -2.5094 0.9638
-8.1859 3.3907 -2.5083 0.9638
-8.4976 2.4951 -2.5072 0.9639
-8.5799 2.1899 -2.5068 0.9639
-8.7114 1.5717 -2.5060 0.9639
-8.7605 1.2596 -2.5055 0.9639
-8.7984 0.9459 -2.5051 0.9639
-8.8251 0.6312 -2.5047 0.9639
-8.8405 0.3157 -2.5043 0.9639
8.0857 0.8693 -2.5013 0.9665
8.0508 1.1575 -2.5017 0.9665
7.9502 1.7295 -2.5025 0.9665
7.8847 2.0125 -2.5029 0.9665
7.8090 2.2929 -2.5033 0.9665
7.7234 2.5706 -2.5037 0.9665
7.6280 2.8451 -2.5041 0.9665
7.4079 3.3831 -2.5049 0.9665
7.2835 3.6459 -2.5052 0.9665
7.0069 4.1574 -2.5060 0.9665
6.6945 4.6481 -2.5067 0.9665
6.3476 5.1152 -2.5074 0.9665
5.9681 5.5565 -2.5081 0.9665
5.5580 5.9697 -2.5088 0.9664
5.1192 6.3525 -2.5094 0.9664
4.1649 7.0195 -2.5105 0.9664
3.9121 7.1644 -2.5107 0.9664
3.6542 7.3002 -2.5110 0.9664
3.3916 7.4266 -2.5112 0.9664
3.1247 7.5436 -2.5114 0.9664
2.8530 7.6491 -2.5110 0.9664
2.2975 7.8246 -2.5083 0.9664
2.0159 7.8981 -2.5072 0.9665
1.7320 7.9618 -2.5062 0.9665
1.4462 8.0159 -2.5053 0.9665
0.8647 8.0426 -2.4880 0.9667
0.2871 8.0382 -2.4740 0.9669
0.0000 8.0352 -2.4715 0.9669
-0.2869 8.0316 -2.4719 0.9669
-0.8625 8.0228 -2.4819 0.9668
-1.4455 8.0116 -2.5040 0.9665
-2.5767 7.7418 -2.5097 0.9664
-2.8531 7.6494 -2.5111 0.9664
-3.9148 7.1693 -2.5125 0.9664
-4.1679 7.0246 -2.5123 0.9664
-4.4157 6.8710 -2.5122 0.9664
-5.1238 6.3582 -2.5116 0.9664
-5.3470 6.1708 -2.5114 0.9664
-5.9744 5.5624 -2.5107 0.9664
-6.1685 5.3450 -2.5105 0.9664
-6.3547 5.1209 -2.5102 0.9664
-6.5327 4.8903 -2.5100 0.9664
-6.7024 4.6535 -2.5097 0.9664
-6.8634 4.4108 -2.5094 0.9664
-7.2928 3.6505 -2.5085 0.9664
-7.5327 3.1201 -2.5078 0.9665
-7.6382 2.8489 -2.5074 0.9665
-7.8198 2.2961 -2.5067 0.9665
-7.8956 2.0152 -2.5064 0.9665
-7.9613 1.7319 -2.5060 0.9665
-8.0169 1.4464 -2.5056 0.9665
-8.0972 0.8705 -2.5049 0.9665
-8.1219 0.5809 -2.5045 0.9665
7.5217 0.0000 -2.5003 0.9688
7.4819 0.8044 -2.5014 0.9688
7.4076 1.3365 -2.5021 0.9688
7.2956 1.8621 -2.5028 0.9688
7.1462 2.3785 -2.5036 0.9688
7.0578 2.6324 -2.5039 0.9687
6.8540 3.1301 -2.5046 0.9687
6.7388 3.3732 -2.5050 0.9687
6.6151 3.6121 -2.5053 0.9687
6.4828 3.8464 -2.5057 0.9687
6.3423 4.0759 -2.5060 0.9687
6.1936 4.3003 -2.5064 0.9687
4.9420 5.7033 -2.5085 0.9687
4.5235 6.0427 -2.5091 0.9687
3.6189 6.6276 -2.5101 0.9687
3.3804 6.7531 -2.5103 0.9687
2.6397 7.0775 -2.5109 0.9687
0.8078 7.5134 -2.5119 0.9686
0.2697 7.5524 -2.5121 0.9686
0.0000 7.5574 -2.5121 0.9686
-0.2697 7.5527 -2.5122 0.9686
-0.8079 7.5145 -2.5122 0.9686
-1.0756 7.4809 -2.5123 0.9686
-1.3419 7.4377 -2.5123 0.9686
-1.8691 7.3229 -2.5122 0.9686
-2.1292 7.2514 -2.5122 0.9686
-2.3866 7.1707 -2.5121 0.9686
-2.8919 6.9817 -2.5120 0.9686
-3.1392 6.8738 -2.5119 0.9686
-3.3824 6.7571 -2.5118 0.9687
-3.8554 6.4980 -2.5115 0.9687
-4.0847 6.3559 -2.5114 0.9687
-4.9463 5.7083 -2.5107 0.9687
-5.3400 5.3400 -2.5103 0.9687
-5.5267 5.1456 -2.5101 0.9687
-6.3493 4.0805 -2.5088 0.9687
-6.4902 3.8508 -2.5085 0.9687
-6.6228 3.6163 -2.5083 0.9687
-6.7468 3.3772 -2.5080 0.9687
-6.8622 3.1339 -2.5077 0.9687
-7.2347 2.1243 -2.5064 0.9687
-7.3049 1.8645 -2.5060 0.9687
-7.3658 1.6023 -2.5057 0.9687
-7.4173 1.3382 -2.5054 0.9687
-7.4593 1.0725 -2.5050 0.9687
-7.4918 0.8055 -2.5047 0.9687
-7.5147 0.5375 -2.5043 0.9687
-7.5280 0.2689 -2.5039 0.9687
6.9885 0.2496 -2.5007 0.9707
6.9246 0.9956 -2.5017 0.9707
6.8378 1.4875 -2.5024 0.9707
6.7161 1.9720 -2.5031 0.9707
6.6423 2.2108 -2.5034 0.9707
6.5600 2.4468 -2.5038 0.9707
6.4694 2.6797 -2.5041 0.9707
6.2634 3.1352 -2.5048 0.9707
6.0253 3.5750 -2.5054 0.9707
5.6107 4.2002 -2.5064 0.9707
5.4579 4.3983 -2.5067 0.9707
5.2981 4.5908 -2.5070 0.9707
4.9582 4.9582 -2.5075 0.9707
4.7786 5.1326 -2.5078 0.9706
4.5928 5.3004 -2.5081 0.9706
2.6861 6.4848 -2.5101 0.9706
1.7363 6.8028 -2.5107 0.9706
1.4925 6.8608 -2.5109 0.9706
0.9993 6.9504 -2.5111 0.9706
0.5010 7.0045 -2.5113 0.9706
0.2507 7.0181 -2.5113 0.9706
0.0000 7.0228 -2.5114 0.9706
-0.2507 7.0185 -2.5114 0.9706
-0.5010 7.0051 -2.5115 0.9706
-0.9995 6.9517 -2.5115 0.9706
-1.4929 6.8626 -2.5115 0.9706
-1.7368 6.8049 -2.5115 0.9706
-1.9786 6.7385 -2.5115 0.9706
-2.6874 6.4879 -2.5113 0.9706
-2.9171 6.3876 -2.5112 0.9706
-3.1431 6.2792 -2.5111 0.9706
-3.3651 6.1627 -2.5110 0.9706
-3.5827 6.0384 -2.5109 0.9706
-4.0040 5.7668 -2.5106 0.9706
-4.5966 5.3047 -2.5101 0.9706
-5.1361 4.7818 -2.5095 0.9706
-5.4632 4.4025 -2.5091 0.9706
-5.7622 4.0008 -2.5086 0.9706
-5.9007 3.7922 -2.5083 0.9706
-6.3776 2.9126 -2.5073 0.9707
-6.5676 2.4496 -2.5067 0.9707
-6.6501 2.2133 -2.5064 0.9707
-6.7240 1.9743 -2.5061 0.9707
-6.7893 1.7329 -2.5058 0.9707
-6.8460 1.4893 -2.5054 0.9707
-6.9330 0.9968 -2.5048 0.9707
-6.9633 0.7486 -2.5045 0.9707
-6.9846 0.4996 -2.5041 0.9707
6.5250 0.0000 -2.5005 0.9724
6.5100 0.4656 -2.5011 0.9724
6.4900 0.6978 -2.5014 0.9724
6.4254 1.1593 -2.5021 0.9724
6.3807 1.3880 -2.5024 0.9724
6.2670 1.8402 -2.5030 0.9724
5.8443 2.9255 -2.5046 0.9724
5.6221 3.3358 -2.5052 0.9724
5.2351 3.9190 -2.5061 0.9724
5.0925 4.1038 -2.5063 0.9724
4.9433 4.2834 -2.5066 0.9724
4.4585 4.7888 -2.5074 0.9724
4.2852 4.9454 -2.5077 0.9724
4.1063 5.0957 -2.5079 0.9724
3.9222 5.2395 -2.5081 0.9724
3.3405 5.6302 -2.5088 0.9723
2.9308 5.8551 -2.5092 0.9723
2.7202 5.9564 -2.5094 0.9723
2.5060 6.0501 -2.5095 0.9723
2.2886 6.1361 -2.5097 0.9723
1.8453 6.2845 -2.5100 0.9723
1.6199 6.3467 -2.5101 0.9723
0.9323 6.4843 -2.5105 0.9723
0.2338 6.5475 -2.5107 0.9723
-0.2339 6.5477 -2.5108 0.9723
-0.7004 6.5145 -2.5109 0.9723
-0.9325 6.4854 -2.5109 0.9723
-1.8459 6.2865 -2.5108 0.9723
-2.0691 6.2165 -2.5108 0.9723
-2.7215 5.9592 -2.5106 0.9723
-3.3425 5.6335 -2.5103 0.9723
-3.9249 5.2431 -2.5099 0.9723
-4.1093 5.0994 -2.5097 0.9723
-4.6299 4.6299 -2.5092 0.9723
-5.0971 4.1075 -2.5086 0.9723
-5.3762 3.7327 -2.5081 0.9724
-5.8504 2.9285 -2.5072 0.9724
-5.9505 2.7175 -2.5069 0.9724
-6.4692 0.9301 -2.5046 0.9724
-6.4975 0.6985 -2.5043 0.9724
6.1066 0.2181 -2.5009 0.9739
6.0769 0.6533 -2.5015 0.9739
6.0504 0.8699 -2.5018 0.9739
5.9744 1.2997 -2.5024 0.9739
5.9249 1.5123 -2.5027 0.9739
5.8033 1.9315 -2.5032 0.9739
5.4719 2.7390 -2.5044 0.9739
5.3713 2.9329 -2.5047 0.9739
5.2637 3.1231 -2.5050 0.9739
4.9013 3.6691 -2.5058 0.9739
4.7677 3.8421 -2.5061 0.9739
4.3310 4.3310 -2.5068 0.9739
4.1741 4.4833 -2.5071 0.9739
4.0118 4.6298 -2.5073 0.9739
3.8443 4.7705 -2.5075 0.9739
3.3132 5.1554 -2.5081 0.9739
2.9374 5.3795 -2.5085 0.9739
2.3460 5.6638 -2.5090 0.9739
1.9362 5.8174 -2.5093 0.9738
1.7275 5.8832 -2.5095 0.9738
1.3035 5.9920 -2.5097 0.9738
0.8728 6.0702 -2.5099 0.9738
0.6556 6.0977 -2.5100 0.9738
-0.2189 6.1295 -2.5102 0.9738
-0.4376 6.1178 -2.5103 0.9738
-0.6556 6.0984 -2.5103 0.9738
-1.3038 5.9933 -2.5103 0.9738
-2.7451 5.4839 -2.5099 0.9738
-2.9389 5.3823 -2.5098 0.9738
-3.1290 5.2737 -2.5097 0.9738
-3.3151 5.1584 -2.5096 0.9738
-3.4970 5.0366 -2.5095 0.9738
-3.8469 4.7737 -2.5092 0.9739
-4.1772 4.4866 -2.5089 0.9739
-4.3343 4.3343 -2.5087 0.9739
-4.6318 4.0135 -2.5084 0.9739
-5.4772 2.7417 -2.5068 0.9739
-5.5710 2.5442 -2.5066 0.9739
-5.6577 2.3435 -2.5063 0.9739
-5.7371 2.1398 -2.5061 0.9739
-5.9311 1.5138 -2.5053 0.9739
-6.0834 0.6540 -2.5041 0.9739
-6.1132 0.2183 -2.5036 0.9739
5.7379 0.0000 -2.5007 0.9753
5.7348 0.2048 -2.5009 0.9753
5.7069 0.6136 -2.5015 0.9753
5.6498 1.0193 -2.5021 0.9753
5.6105 1.2205 -2.5023 0.9753
5.5640 1.4201 -2.5026 0.9753
5.5104 1.6180 -2.5029 0.9753
5.3821 2.0074 -2.5034 0.9752
5.2263 2.3868 -2.5040 0.9752
5.0438 2.7541 -2.5045 0.9752
4.9428 2.9327 -2.5048 0.9752
4.8355 3.1076 -2.5051 0.9752
4.2090 3.9187 -2.5063 0.9752
3.7670 4.3473 -2.5070 0.9752
3.4478 4.6057 -2.5074 0.9752
3.2815 4.7262 -2.5076 0.9752
3.1109 4.8407 -2.5078 0.9752
2.7581 5.0511 -2.5081 0.9752
2.5762 5.1466 -2.5083 0.9752
2.3910 5.2356 -2.5085 0.9752
2.2028 5.3180 -2.5086 0.9752
2.0117 5.3935 -2.5088 0.9752
1.8180 5.4622 -2.5089 0.9752
1.4238 5.5785 -2.5091 0.9752
0.6155 5.7252 -2.5095 0.9752
-0.2055 5.7550 -2.5097 0.9752
-0.4108 5.7441 -2.5098 0.9752
-1.0225 5.6673 -2.5098 0.9752
-1.4242 5.5799 -2.5098 0.9752
-1.6224 5.5254 -2.5097 0.9752
-2.0124 5.3954 -2.5096 0.9752
-2.2036 5.3200 -2.5096 0.9752
-2.3920 5.2378 -2.5095 0.9752
-2.9379 4.9516 -2.5092 0.9752
-3.2834 4.7290 -2.5090 0.9752
-3.4499 4.6085 -2.5089 0.9752
-3.6120 4.4822 -2.5088 0.9752
-3.9221 4.2126 -2.5085 0.9752
-4.3491 3.7685 -2.5080 0.9752
-4.4805 3.6106 -2.5078 0.9752
-4.8396 3.1102 -2.5072 0.9752
-4.9471 2.9353 -2.5070 0.9752
-5.2311 2.3890 -2.5063 0.9752
-5.3872 2.0093 -2.5058 0.9752
-5.6160 1.2217 -2.5048 0.9752
-5.6877 0.8178 -2.5043 0.9752
-5.7126 0.6142 -2.5040 0.9752
5.4025 0.0000 -2.5007 0.9765
5.3996 0.1929 -2.5010 0.9765
5.3497 0.7692 -2.5018 0.9765
5.3194 0.9597 -2.5020 0.9765
5.2385 1.3371 -2.5026 0.9765
5.1309 1.7077 -2.5031 0.9764
4.9970 2.0698 -2.5036 0.9764
4.9204 2.2471 -2.5039 0.9764
4.6534 2.7610 -2.5046 0.9764
4.5524 2.9256 -2.5049 0.9764
4.4455 3.0866 -2.5051 0.9764
4.3329 3.2436 -2.5053 0.9764
4.2148 3.3965 -2.5056 0.9764
4.0912 3.5451 -2.5058 0.9764
3.6898 3.9631 -2.5065 0.9764
3.5463 4.0926 -2.5067 0.9764
3.3982 4.2169 -2.5069 0.9764
3.2458 4.3359 -2.5071 0.9764
2.9286 4.5570 -2.5074 0.9764
2.7643 4.6590 -2.5076 0.9764
2.4252 4.8449 -2.5079 0.9764
2.2509 4.9287 -2.5081 0.9764
2.0736 5.0062 -2.5082 0.9764
1.5268 5.2000 -2.5086 0.9764
0.9624 5.3340 -2.5089 0.9764
0.7714 5.3652 -2.5090 0.9764
0.5794 5.3894 -2.5091 0.9764
0.0000 5.4209 -2.5092 0.9764
-0.1935 5.4175 -2.5093 0.9764
-0.5795 5.3900 -2.5093 0.9764
-0.7715 5.3659 -2.5093 0.9764
-0.9625 5.3349 -2.5093 0.9764
-1.5273 5.2014 -2.5093 0.9764
-2.2518 4.9307 -2.5091 0.9764
-2.5976 4.7572 -2.5089 0.9764
-3.0909 4.4517 -2.5086 0.9764
-3.2476 4.3383 -2.5085 0.9764
-3.5485 4.0952 -2.5082 0.9764
-3.8311 3.8311 -2.5079 0.9764
-3.9652 3.6917 -2.5078 0.9764
-4.2179 3.3990 -2.5074 0.9764
-4.4490 3.0890 -2.5071 0.9764
-4.5560 2.9280 -2.5069 0.9764
-4.7525 2.5951 -2.5065 0.9764
-4.8417 2.4236 -2.5063 0.9764
-5.0014 2.0717 -2.5058 0.9764
-5.1355 1.7093 -2.5054 0.9764
-5.2434 1.3383 -2.5049 0.9764
-5.2873 1.1502 -2.5046 0.9764
-5.3244 0.9606 -2.5044 0.9764
-5.3783 0.5782 -2.5039 0.9764
-5.3950 0.3859 -2.5036 0.9764
5.0982 0.0000 -2.5008 0.9775
5.0955 0.1820 -2.5010 0.9775
5.0197 0.9057 -2.5020 0.9775
4.9847 1.0844 -2.5023 0.9775
4.8956 1.4375 -2.5028 0.9775
4.8416 1.6115 -2.5030 0.9775
4.7815 1.7834 -2.5033 0.9775
4.7153 1.9531 -2.5035 0.9775
4.5648 2.2850 -2.5040 0.9775
4.4808 2.4467 -2.5042 0.9775
4.3910 2.6053 -2.5045 0.9775
4.2956 2.7606 -2.5047 0.9775
4.1947 2.9124 -2.5049 0.9775
4.0884 3.0606 -2.5052 0.9775
3.9769 3.2048 -2.5054 0.9775
3.8604 3.3450 -2.5056 0.9775
3.7388 3.4810 -2.5058 0.9775
3.4815 3.7394 -2.5062 0.9775
3.3461 3.8616 -2.5064 0.9775
3.0625 4.0911 -2.5068 0.9775
2.9148 4.1981 -2.5069 0.9775
2.7633 4.2997 -2.5071 0.9775
2.6082 4.3959 -2.5073 0.9775
2.1237 4.6504 -2.5077 0.9775
1.9565 4.7235 -2.5079 0.9775
0.9080 5.0327 -2.5085 0.9775
0.3649 5.1014 -2.5087 0.9775
0.0000 5.1146 -2.5088 0.9775
-0.1826 5.1114 -2.5089 0.9775
-0.5467 5.0854 -2.5089 0.9775
-1.2649 4.9558 -2.5089 0.9775
-1.9572 4.7251 -2.5087 0.9775
-2.2892 4.5732 -2.5086 0.9775
-2.4509 4.4884 -2.5085 0.9775
-2.6094 4.3979 -2.5084 0.9775
-3.0642 4.0933 -2.5081 0.9775
-3.6148 3.6148 -2.5076 0.9775
-3.7413 3.4833 -2.5074 0.9775
-3.8630 3.3473 -2.5073 0.9775
-3.9797 3.2071 -2.5071 0.9775
-4.1978 2.9146 -2.5068 0.9775
-4.3944 2.6073 -2.5064 0.9775
-4.8998 1.4387 -2.5049 0.9775
-4.9891 1.0853 -2.5045 0.9775
-5.0750 0.5456 -2.5038 0.9775
4.8093 0.3440 -2.5013 0.9785
4.7734 0.6863 -2.5018 0.9785
4.7463 0.8563 -2.5020 0.9785
4.7131 1.0253 -2.5023 0.9785
4.6740 1.1930 -2.5025 0.9785
4.6289 1.3592 -2.5027 0.9785
4.5209 1.6862 -2.5032 0.9785
4.0614 2.6101 -2.5045 0.9785
3.9660 2.7536 -2.5048 0.9785
3.8655 2.8937 -2.5050 0.9785
3.6498 3.1626 -2.5054 0.9785
3.4154 3.4154 -2.5058 0.9785
3.0314 3.7618 -2.5063 0.9785
2.8954 3.8679 -2.5065 0.9785
2.7557 3.9690 -2.5067 0.9785
2.3161 4.2416 -2.5071 0.9785
1.8497 4.4656 -2.5075 0.9785
1.5266 4.5866 -2.5078 0.9785
1.1956 4.6842 -2.5080 0.9785
1.0277 4.7241 -2.5081 0.9784
0.8584 4.7579 -2.5082 0.9784
0.5168 4.8073 -2.5083 0.9784
0.3449 4.8228 -2.5084 0.9784
-0.1726 4.8323 -2.5085 0.9784
-0.3450 4.8231 -2.5085 0.9784
-0.5169 4.8077 -2.5085 0.9784
-0.6882 4.7862 -2.5085 0.9784
-0.8586 4.7586 -2.5085 0.9784
-1.0278 4.7249 -2.5085 0.9784
-1.1958 4.6852 -2.5085 0.9784
-1.8503 4.4671 -2.5084 0.9784
-2.0085 4.3981 -2.5083 0.9784
-2.3170 4.2433 -2.5082 0.9784
-2.4669 4.1578 -2.5081 0.9784
-2.6137 4.0670 -2.5080 0.9785
-2.7571 3.9709 -2.5079 0.9785
-3.1653 3.6530 -2.5075 0.9785
-3.5371 3.2931 -2.5071 0.9785
-3.7625 3.0320 -2.5068 0.9785
-3.8681 2.8956 -2.5067 0.9785
-3.9687 2.7555 -2.5065 0.9785
-4.1546 2.4651 -2.5062 0.9785
-4.2396 2.3150 -2.5060 0.9785
-4.4618 1.8481 -2.5054 0.9785
-4.7171 1.0261 -2.5043 0.9785
-4.7984 0.5159 -2.5037 0.9785
-4.8133 0.3443 -2.5034 0.9785
-4.8221 0.1722 -2.5032 0.9785
4.5662 0.0000 -2.5009 0.9794
4.5637 0.1630 -2.5011 0.9794
4.5554 0.3258 -2.5014 0.9794
4.4956 0.8111 -2.5020 0.9794
4.3843 1.2874 -2.5027 0.9794
4.3360 1.4432 -2.5029 0.9794
4.2821 1.5971 -2.5031 0.9794
4.2227 1.7491 -2.5034 0.9794
4.0879 2.0463 -2.5038 0.9794
3.7563 2.6081 -2.5046 0.9794
3.6611 2.7407 -2.5048 0.9794
3.5612 2.8698 -2.5050 0.9794
3.4568 2.9953 -2.5052 0.9794
3.2348 3.2348 -2.5056 0.9794
2.8711 3.5628 -2.5061 0.9793
2.1935 4.0172 -2.5069 0.9793
1.5998 4.2893 -2.5074 0.9793
1.4458 4.3439 -2.5075 0.9793
1.2899 4.3929 -2.5076 0.9793
0.9733 4.4740 -2.5077 0.9793
0.8130 4.5060 -2.5078 0.9793
0.6517 4.5323 -2.5079 0.9793
0.4895 4.5528 -2.5080 0.9793
0.1634 4.5763 -2.5081 0.9793
0.0000 4.5793 -2.5081 0.9793
-0.1634 4.5764 -2.5081 0.9793
-0.3267 4.5677 -2.5082 0.9793
-0.4895 4.5532 -2.5082 0.9793
-0.6517 4.5328 -2.5082 0.9793
-0.8131 4.5067 -2.5082 0.9793
-0.9734 4.4748 -2.5082 0.9793
-1.1325 4.4372 -2.5082 0.9793
-1.2902 4.3939 -2.5081 0.9793
-1.6003 4.2905 -2.5081 0.9793
-1.7524 4.2306 -2.5080 0.9793
-1.9022 4.1652 -2.5080 0.9793
-2.0496 4.0946 -2.5079 0.9793
-2.1944 4.0187 -2.5078 0.9793
-2.4753 3.8517 -2.5077 0.9793
-2.6111 3.7607 -2.5076 0.9793
-2.7436 3.6650 -2.5075 0.9793
-2.8725 3.5646 -2.5074 0.9793
-2.9978 3.4596 -2.5072 0.9793
-3.2366 3.2366 -2.5070 0.9793
-3.3499 3.1189 -2.5069 0.9793
-3.4589 2.9972 -2.5067 0.9793
-3.6635 2.7424 -2.5064 0.9793
-3.7588 2.6098 -2.5063 0.9793
-4.0154 2.1926 -2.5058 0.9794
-4.0908 2.0477 -2.5056 0.9794
-4.3877 1.2884 -2.5046 0.9794
-4.4305 1.1308 -2.5044 0.9794
-4.4677 0.9719 -2.5042 0.9794
-4.4992 0.8117 -2.5040 0.9794
-4.5449 0.4886 -2.5036 0.9794
-4.5673 0.1631 -2.5031 0.9794
4.3294 0.1546 -2.5012 0.9802
4.1591 1.2212 -2.5027 0.9802
4.1132 1.3690 -2.5029 0.9802
4.0621 1.5151 -2.5031 0.9802
4.0058 1.6592 -2.5033 0.9802
3.9443 1.8013 -2.5035 0.9802
3.8778 1.9411 -2.5037 0.9802
3.7301 2.2131 -2.5041 0.9802
3.6490 2.3451 -2.5043 0.9802
3.3782 2.7223 -2.5049 0.9802
3.2791 2.8414 -2.5050 0.9802
3.0685 3.0685 -2.5054 0.9802
2.6012 3.4748 -2.5060 0.9802
1.9435 3.8825 -2.5067 0.9801
1.8037 3.9496 -2.5069 0.9801
1.5175 4.0686 -2.5071 0.9801
1.3714 4.1203 -2.5072 0.9801
1.0740 4.2080 -2.5074 0.9801
0.9232 4.2438 -2.5074 0.9801
0.6181 4.2991 -2.5076 0.9801
0.4643 4.3185 -2.5076 0.9801
0.1550 4.3408 -2.5077 0.9801
0.0000 4.3436 -2.5078 0.9801
-0.3099 4.3326 -2.5078 0.9801
-0.6182 4.2995 -2.5079 0.9801
-0.9233 4.2445 -2.5079 0.9801
-1.0742 4.2088 -2.5078 0.9801
-1.2238 4.1677 -2.5078 0.9801
-1.6622 4.0128 -2.5077 0.9801
-1.9441 3.8839 -2.5076 0.9801
-2.0815 3.8119 -2.5075 0.9801
-2.2161 3.7351 -2.5074 0.9801
-2.3479 3.6535 -2.5074 0.9801
-2.4768 3.5672 -2.5073 0.9801
-2.9587 3.1779 -2.5069 0.9801
-3.0701 3.0701 -2.5067 0.9801
-3.2810 2.8430 -2.5065 0.9801
-3.4750 2.6014 -2.5062 0.9802
-3.5655 2.4755 -2.5060 0.9802
-3.6513 2.3466 -2.5059 0.9802
-3.7325 2.2146 -2.5057 0.9802
-3.8089 2.0798 -2.5056 0.9802
-3.8805 1.9424 -2.5054 0.9802
-3.9470 1.8026 -2.5052 0.9802
-4.0650 1.5162 -2.5049 0.9802
-4.2924 0.6172 -2.5037 0.9802
-4.3327 0.1547 -2.5031 0.9802
