ply
format ascii 1.0
element vertex 1268
property float32 x
property float32 y
property float32 z
property float32 I
end_header
-40.0563 -23.7665 8.2127 0.8276
-35.3435 -24.5395 7.5869 0.8397
-33.5413 -25.1087 7.3878 0.8435
-31.0865 -25.0511 7.0397 0.8503
-29.2192 -25.3185 6.8172 0.8547
-27.4640 -25.5699 6.6166 0.8586
-24.2315 -26.0265 6.2703 0.8655
-22.7375 -26.2405 6.1223 0.8685
-19.9429 -26.6406 5.8678 0.8736
-19.1651 -27.6030 5.9253 0.8724
-16.9724 -40.9751 7.8203 0.8352
5.3183 -12.8395 2.4505 0.9451
21.7660 -39.8614 8.0082 0.8315
22.1885 -37.3968 7.6674 0.8381
22.7509 -32.7675 7.0339 0.8504
24.9468 -33.3250 7.3401 0.8444
29.4439 -33.9801 7.9280 0.8331
31.9732 -34.3416 8.2735 0.8265
34.7366 -34.7366 8.6621 0.8191
-29.2201 -25.3194 5.9231 0.8552
-27.4649 -25.5707 5.7487 0.8591
-11.8796 -11.8796 2.5737 0.9343
-22.7382 -26.2413 5.3192 0.8689
-22.0956 -27.4189 5.3946 0.8672
-19.9434 -26.6413 5.0981 0.8740
-17.9927 -30.3251 5.4018 0.8670
-16.9297 -31.0045 5.4117 0.8668
-15.8112 -31.5867 5.4113 0.8668
-16.9707 -40.9710 6.7937 0.8357
5.3177 -12.8381 2.1288 0.9453
7.2996 -14.5828 2.4983 0.9361
22.4433 -34.9225 6.3595 0.8454
22.7518 -32.7687 6.1113 0.8509
29.4450 -33.9814 6.8882 0.8336
31.9745 -34.3430 7.1884 0.8271
34.7380 -34.7380 7.5260 0.8197
-36.3859 -9.2869 4.8901 0.8594
-42.8079 -23.3749 6.3514 0.8214
-40.0595 -23.7684 6.0657 0.8287
-37.5446 -24.1285 5.8117 0.8352
-35.3901 -24.5718 5.6104 0.8405
-33.2362 -24.8803 5.4064 0.8458
-31.0887 -25.0528 5.1993 0.8512
-30.3195 -26.2720 5.2242 0.8506
-27.4658 -25.5716 4.8868 0.8595
-11.8815 -11.8815 2.1881 0.9345
-22.7388 -26.2420 4.5217 0.8693
-16.1742 -35.4166 5.0702 0.8547
-10.5072 -48.3008 6.4369 0.8192
-7.0164 -48.8003 6.4202 0.8197
-5.2734 -49.0497 6.4241 0.8196
5.3171 -12.8367 1.8093 0.9455
7.2933 -14.5701 2.1218 0.9364
21.7674 -39.8639 5.9146 0.8326
22.7526 -32.7699 5.1951 0.8514
24.9485 -33.3273 5.4212 0.8454
27.1166 -33.6496 5.6276 0.8400
34.7395 -34.7395 6.3976 0.8202
27.4972 -17.6713 4.2564 0.8765
-36.3746 -9.2841 4.0312 0.8598
-41.7268 -20.8870 5.0107 0.8288
-41.9874 -22.9268 5.1370 0.8249
-37.8113 -24.2999 4.8264 0.8346
-39.5348 -27.4495 5.1683 0.8240
-34.0993 -25.5264 4.5740 0.8425
-31.0897 -25.0537 4.2876 0.8516
-30.3183 -26.2710 4.3078 0.8510
-28.3026 -30.3992 4.4601 0.8461
-19.9446 -26.6429 3.5738 0.8747
-19.1639 -27.6014 3.6082 0.8736
-20.2787 -31.5544 4.0278 0.8599
-17.5897 -42.4654 4.9357 0.8312
22.1907 -37.4004 4.6698 0.8395
22.4450 -34.9251 4.4580 0.8462
22.7534 -32.7711 4.2841 0.8517
24.9494 -33.3285 4.4705 0.8458
27.1176 -33.6509 4.6408 0.8404
31.9770 -34.3457 5.0391 0.8280
34.7409 -34.7409 5.2758 0.8207
27.4515 -17.6420 3.5041 0.8770
-36.3635 -9.2812 3.1770 0.8601
-37.8101 -24.2991 3.8047 0.8349
-34.0981 -25.5255 3.6057 0.8428
-11.8851 -11.8852 1.4229 0.9348
-28.3143 -30.4118 3.5175 0.8464
-22.7402 -26.2436 2.9396 0.8699
-25.0017 -31.0252 3.3730 0.8522
-20.2865 -31.5664 3.1764 0.8602
-16.9305 -31.0059 2.9905 0.8678
-15.8119 -31.5881 2.9903 0.8678
-16.1714 -35.4105 3.2954 0.8553
-17.5902 -42.4665 3.8911 0.8315
-8.8374 -48.9825 4.2135 0.8189
-7.0788 -49.2342 4.2107 0.8190
0.0000 -49.8066 4.2163 0.8188
7.2807 -14.5449 1.3769 0.9368
21.7687 -39.8664 3.8451 0.8333
22.1890 -37.3976 3.6811 0.8398
22.7542 -32.7722 3.3774 0.8520
24.7511 -33.0636 3.4963 0.8472
26.8909 -33.3696 3.6279 0.8419
31.9783 -34.3471 3.9727 0.8283
27.4062 -17.6129 2.7578 0.8774
-36.3523 -9.2784 2.3265 0.8604
-42.8128 -23.3776 3.0248 0.8224
-41.4227 -24.5772 2.9867 0.8245
-34.0970 -25.5247 2.6412 0.8431
-27.4684 -25.5740 2.3273 0.8604
-28.2902 -30.3859 2.5745 0.8467
-22.7408 -26.2444 2.1534 0.8701
-24.9080 -30.9089 2.4616 0.8529
-19.1632 -27.6002 2.0836 0.8740
-20.2888 -31.5700 2.3271 0.8604
-21.1291 -35.6112 2.5677 0.8471
-15.8121 -31.5886 2.1905 0.8680
-17.5906 -42.4676 2.8504 0.8318
-7.1908 -19.2793 1.2760 0.9208
-12.2648 -48.0531 3.0753 0.8198
-10.5080 -48.3044 3.0654 0.8203
-3.5262 -49.3034 3.0651 0.8203
-1.7698 -49.5547 3.0749 0.8198
0.0000 -49.8079 3.0886 0.8190
3.2274 -22.4468 1.4062 0.9131
7.2744 -14.5324 1.0077 0.9369
13.0807 -23.9555 1.6925 0.8964
22.1921 -37.4028 2.6969 0.8400
22.7550 -32.7734 2.4741 0.8522
24.9511 -33.3307 2.5818 0.8463
27.1195 -33.6533 2.6801 0.8410
29.2023 -33.7013 2.7652 0.8363
-36.3413 -9.2756 1.4789 0.8606
-42.8146 -23.3785 1.9235 0.8226
-27.2601 -17.5190 1.2777 0.8783
-26.2553 -18.2294 1.2603 0.8799
-34.0958 -25.5238 1.6794 0.8432
-30.3150 -26.2681 1.5817 0.8517
-27.4692 -25.5748 1.4799 0.8605
-28.2616 -30.3551 1.6354 0.8470
-24.9087 -30.9098 1.5653 0.8531
-19.1628 -27.5997 1.3249 0.8741
-20.2893 -31.5708 1.4798 0.8605
-21.1793 -35.6958 1.6366 0.8469
-16.9310 -31.0069 1.3930 0.8681
-15.8124 -31.5891 1.3929 0.8681
-16.1687 -35.4044 1.5347 0.8557
-17.5911 -42.4687 1.8126 0.8319
-8.9089 -30.3409 1.2469 0.8811
0.0000 -49.8091 1.9640 0.8192
7.2682 -14.5200 0.6403 0.9371
22.1928 -37.4040 1.7149 0.8402
22.4475 -34.9289 1.6372 0.8469
24.9519 -33.3319 1.6418 0.8465
27.1205 -33.6545 1.7043 0.8411
29.4506 -33.9878 1.7733 0.8352
18.0188 -18.0188 1.0048 0.9030
16.3613 -15.2329 0.8815 0.9144
17.2741 -14.9681 0.9013 0.9126
-42.8163 -23.3795 0.8240 0.8227
-37.8065 -24.2968 0.7591 0.8354
-34.0946 -25.5229 0.7194 0.8433
-31.0939 -25.0571 0.6746 0.8524
-30.3139 -26.2671 0.6775 0.8517
-28.1346 -30.2187 0.6974 0.8477
-22.7422 -26.2459 0.5866 0.8703
-19.9576 -31.0547 0.6236 0.8627
-21.1264 -35.6067 0.6994 0.8474
-16.9313 -31.0073 0.5968 0.8682
-15.8126 -31.5896 0.5967 0.8682
-17.5915 -42.4697 0.7765 0.8320
-8.9091 -30.3415 0.5342 0.8812
0.0000 -49.8104 0.8414 0.8193
22.1935 -37.4051 0.7347 0.8403
21.7183 -31.2803 0.6433 0.8587
16.1578 -16.1578 0.3860 0.9126
17.7312 -15.3642 0.3963 0.9104
-36.3192 -9.2699 -0.2110 0.8608
-42.8181 -23.3804 -0.2747 0.8227
-37.8053 -24.2960 -0.2530 0.8355
-27.4710 -25.5764 -0.2113 0.8606
-22.7429 -26.2467 -0.1955 0.8703
-19.8708 -30.9197 -0.2069 0.8633
-21.2245 -35.7721 -0.2342 0.8467
-16.9315 -31.0078 -0.1989 0.8682
-15.8129 -31.5901 -0.1989 0.8682
-16.1659 -35.3985 -0.2191 0.8558
-17.5920 -42.4708 -0.2588 0.8320
-8.9094 -30.3425 -0.1780 0.8812
0.0000 -49.8116 -0.2804 0.8193
2.3531 -21.8866 -0.1239 0.9157
5.3141 -12.8294 -0.0782 0.9460
7.2558 -14.4953 -0.0913 0.9372
22.4491 -34.9315 -0.2338 0.8470
24.9536 -33.3341 -0.2344 0.8466
27.1225 -33.6569 -0.2434 0.8412
29.4528 -33.9904 -0.2532 0.8353
31.9833 -34.3524 -0.2643 0.8288
17.7005 -15.3376 -0.1319 0.9106
-42.8198 -23.3814 -1.3738 0.8226
-41.4176 -24.5742 -1.3561 0.8247
-37.8041 -24.2953 -1.2653 0.8354
-31.0960 -25.0588 -1.1245 0.8523
-28.1916 -30.2800 -1.1650 0.8474
-22.7435 -26.2474 -0.9779 0.8702
-24.4998 -30.4024 -1.0994 0.8554
-19.1616 -27.5980 -0.9460 0.8742
-19.8743 -30.9250 -1.0351 0.8632
-21.2232 -35.7699 -1.1712 0.8467
-15.9029 -29.1241 -0.9344 0.8757
-15.8131 -31.5906 -0.9947 0.8682
-16.1646 -35.3955 -1.0957 0.8558
-17.5924 -42.4719 -1.2945 0.8320
-8.9097 -30.3435 -0.8905 0.8811
-10.2818 -40.2839 -1.1707 0.8467
0.0000 -49.8128 -1.4026 0.8193
2.3532 -21.8880 -0.6199 0.9157
5.3135 -12.8279 -0.3910 0.9460
19.9564 -43.6984 -1.3527 0.8251
21.6465 -31.1769 -1.0687 0.8591
27.1235 -33.6582 -1.2172 0.8412
29.4539 -33.9916 -1.2665 0.8353
31.9845 -34.3538 -1.3217 0.8288
34.7495 -34.7494 -1.3838 0.8215
27.2855 -17.5353 -0.9133 0.8783
-45.0192 -13.2188 -2.3795 0.8287
-44.5832 -14.8387 -2.3829 0.8285
-29.6559 -13.5434 -1.6534 0.8776
-42.2392 -21.1435 -2.3955 0.8276
-41.5054 -22.6637 -2.3983 0.8275
-40.7144 -24.1570 -2.4009 0.8273
-13.1056 -10.5612 -0.8536 0.9348
-28.1908 -30.2791 -2.0981 0.8473
-24.4995 -30.4020 -1.9801 0.8552
-19.9527 -26.6536 -1.6885 0.8752
-19.1612 -27.5975 -1.7039 0.8741
-19.7987 -30.8074 -1.8572 0.8636
-16.1632 -35.3924 -1.9732 0.8557
-17.5929 -42.4730 -2.3315 0.8318
-16.6617 -44.6717 -2.4179 0.8262
-15.0507 -45.2200 -2.4170 0.8262
-8.9099 -30.3445 -1.6039 0.8810
-2.5984 -36.3301 -1.8472 0.8643
-1.0871 -30.4390 -1.5447 0.8852
0.0000 -29.0661 -1.4741 0.8901
1.0334 -28.9345 -1.4683 0.8905
4.3943 -30.5631 -1.5659 0.8837
5.1300 -28.4335 -1.4653 0.8907
7.7382 -30.3180 -1.5868 0.8822
10.4317 -27.9685 -1.5138 0.8873
5.3129 -12.8264 -0.7041 0.9459
22.1630 -37.3538 -2.2027 0.8403
27.0787 -33.6026 -2.1886 0.8413
32.3208 -32.3208 -2.3181 0.8327
17.7160 -15.3510 -1.1888 0.9104
26.8432 -21.6316 -1.7483 0.8710
39.5900 -21.6177 -2.2876 0.8347
41.0705 -18.7563 -2.2898 0.8346
46.2340 -13.5755 -2.4437 0.8245
46.7194 -11.9244 -2.4453 0.8244
47.1473 -10.2563 -2.4470 0.8243
47.8280 -6.8766 -2.4505 0.8240
48.2716 -3.4525 -2.4543 0.8238
48.4035 -1.7287 -2.4563 0.8237
-34.5451 -0.0000 -2.5329 0.8706
-34.5019 -1.2323 -2.5314 0.8707
-34.1068 -4.9038 -2.5265 0.8709
-32.7362 -7.1213 -2.4564 0.8743
-31.2925 -7.9869 -2.3680 0.8785
-30.9659 -9.0924 -2.3663 0.8786
-30.1954 -11.2623 -2.3630 0.8787
-22.1452 -9.1728 -1.7575 0.9083
-28.2699 -15.4365 -2.3617 0.8788
-27.1358 -17.4393 -2.3651 0.8786
-23.6744 -22.0417 -2.3717 0.8783
-11.8979 -11.8979 -1.2337 0.9347
-22.0589 -23.6929 -2.3736 0.8782
-21.2055 -24.4724 -2.3743 0.8782
-20.3239 -25.2205 -2.3749 0.8782
-18.4799 -26.6161 -2.3758 0.8781
-15.5313 -28.4435 -2.3762 0.8781
-13.4605 -29.4744 -2.3758 0.8781
-11.3195 -30.3487 -2.3750 0.8782
-10.2266 -30.7259 -2.3744 0.8782
-8.0032 -31.3562 -2.3728 0.8783
-5.7410 -31.8201 -2.3708 0.8784
-2.3028 -32.1981 -2.3669 0.8786
-0.9555 -26.7525 -1.9628 0.8982
0.0000 -29.0672 -2.1313 0.8900
1.0156 -28.4360 -2.0863 0.8921
2.3535 -21.8908 -1.6143 0.9155
3.7006 -25.7385 -1.9066 0.9010
4.6687 -25.8770 -1.9280 0.8999
6.2496 -28.7291 -2.1557 0.8888
9.0196 -30.7180 -2.3474 0.8795
10.4320 -27.9692 -2.1888 0.8872
5.3122 -12.8249 -1.0178 0.9458
7.2397 -14.4631 -1.1859 0.9372
16.2070 -27.3155 -2.3288 0.8804
17.1504 -26.6865 -2.3260 0.8805
13.2909 -19.1425 -1.7087 0.9108
18.9623 -25.3307 -2.3201 0.8808
20.6671 -23.8511 -2.3140 0.8811
21.4767 -23.0676 -2.3109 0.8813
22.2566 -22.2566 -2.3079 0.8814
17.3945 -16.1949 -1.7426 0.9091
17.6944 -15.3323 -1.7167 0.9104
25.8171 -17.9251 -2.3045 0.8816
27.0442 -16.0461 -2.3057 0.8815
29.9600 -14.9969 -2.4566 0.8743
30.4867 -13.9228 -2.4574 0.8742
30.9755 -12.8305 -2.4583 0.8742
32.2093 -9.4575 -2.4614 0.8740
32.5411 -8.3056 -2.4625 0.8740
32.8324 -7.1424 -2.4636 0.8739
33.0827 -5.9688 -2.4649 0.8739
33.2917 -4.7866 -2.4661 0.8738
33.4591 -3.5972 -2.4674 0.8737
33.6681 -1.2025 -2.4702 0.8736
-26.3062 -0.0000 -2.5255 0.8997
-26.2771 -0.9385 -2.5243 0.8997
-25.9882 -3.7366 -2.5206 0.8999
-25.8251 -4.6594 -2.5194 0.8999
-25.6291 -5.5753 -2.5181 0.9000
-25.4005 -6.4831 -2.5167 0.9000
-25.1395 -7.3816 -2.5154 0.9001
-24.6077 -8.1902 -2.4899 0.9010
-23.0305 -8.5899 -2.3598 0.9059
-22.1462 -9.1733 -2.3013 0.9082
-20.7899 -9.4944 -2.1942 0.9122
-21.9438 -10.9843 -2.3559 0.9061
-20.6091 -13.2447 -2.3519 0.9062
-13.1478 -10.5951 -1.6211 0.9344
-17.4252 -15.0990 -2.2136 0.9115
-17.9182 -16.6824 -2.3504 0.9063
-11.8997 -11.8997 -1.6156 0.9346
-16.0456 -18.5176 -2.3523 0.9062
-15.3774 -19.0823 -2.3528 0.9062
-14.6889 -19.6220 -2.3532 0.9062
-11.7497 -21.5181 -2.3538 0.9062
-10.9739 -21.9230 -2.3537 0.9062
-9.3802 -22.6459 -2.3533 0.9062
-8.5647 -22.9629 -2.3529 0.9062
-4.8016 -16.3527 -1.6362 0.9338
-4.2948 -16.8269 -1.6672 0.9326
-2.6621 -12.2377 -1.2024 0.9509
-3.4819 -24.2175 -2.3489 0.9064
-0.8721 -24.4182 -2.3458 0.9065
0.0000 -24.4215 -2.3446 0.9065
1.2358 -17.2785 -1.6631 0.9328
4.3230 -23.9606 -2.3375 0.9068
5.1718 -23.7743 -2.3358 0.9069
7.6661 -23.0329 -2.3305 0.9071
8.4764 -22.7261 -2.3286 0.9071
7.2412 -14.4660 -1.5531 0.9371
15.1178 -18.7601 -2.3131 0.9077
15.7784 -18.2092 -2.3132 0.9077
17.0394 -17.0394 -2.3135 0.9077
18.2154 -15.7837 -2.3140 0.9077
20.5723 -14.2836 -2.4044 0.9043
22.9798 -11.5029 -2.4671 0.9019
23.7548 -9.8396 -2.4685 0.9018
24.0981 -8.9881 -2.4692 0.9018
24.4112 -8.1248 -2.4700 0.9018
24.6939 -7.2508 -2.4708 0.9017
25.1661 -5.4746 -2.4726 0.9017
25.5122 -3.6681 -2.4745 0.9016
25.6373 -2.7563 -2.4755 0.9016
25.7302 -1.8403 -2.4765 0.9015
25.7907 -0.9211 -2.4776 0.9015
-21.2227 -0.0000 -2.5210 0.9181
-21.2012 -0.7572 -2.5200 0.9181
-21.0767 -2.2660 -2.5180 0.9182
-20.9739 -3.0156 -2.5170 0.9182
-20.2972 -5.9598 -2.5128 0.9183
-20.0628 -6.6775 -2.5117 0.9184
-19.1697 -8.7545 -2.5033 0.9186
-18.1101 -9.0653 -2.4057 0.9217
-17.3905 -9.4960 -2.3537 0.9233
-17.0328 -10.1060 -2.3526 0.9233
-14.6430 -10.1668 -2.1175 0.9307
-13.1473 -10.5948 -2.0057 0.9342
-11.9521 -11.1278 -1.9398 0.9363
-10.9175 -11.7262 -1.9032 0.9375
-11.0962 -12.8057 -2.0128 0.9340
-11.2342 -16.1804 -2.3398 0.9237
-8.8179 -17.6159 -2.3400 0.9237
-8.1831 -17.9184 -2.3399 0.9237
-7.5376 -18.1975 -2.3397 0.9237
-6.8825 -18.4527 -2.3394 0.9237
-6.2185 -18.6837 -2.3391 0.9237
-4.8679 -19.0723 -2.3381 0.9238
-2.6626 -12.2400 -1.4879 0.9508
-2.2315 -12.3686 -1.4929 0.9506
-2.7990 -19.4676 -2.3363 0.9238
-2.1017 -19.5487 -2.3355 0.9239
-0.7012 -19.6342 -2.3338 0.9239
2.0964 -19.4994 -2.3296 0.9240
2.7896 -19.4022 -2.3284 0.9241
3.4785 -19.2800 -2.3272 0.9241
4.8395 -18.9610 -2.3245 0.9242
6.1722 -18.5444 -2.3216 0.9243
5.2960 -12.7855 -1.6439 0.9458
6.4275 -14.0743 -1.8379 0.9396
6.8250 -13.6347 -1.8112 0.9404
7.4947 -13.7256 -1.8576 0.9389
8.1886 -13.8011 -1.9062 0.9374
10.5594 -16.4307 -2.3200 0.9243
12.7905 -14.7610 -2.3201 0.9243
13.8124 -13.8124 -2.3203 0.9243
16.1995 -13.0544 -2.4713 0.9196
16.6572 -12.4694 -2.4716 0.9196
17.5095 -11.2526 -2.4724 0.9196
17.9030 -10.6223 -2.4728 0.9196
18.2741 -9.9784 -2.4732 0.9196
18.6223 -9.3218 -2.4737 0.9195
19.2484 -7.9729 -2.4748 0.9195
19.7779 -6.5827 -2.4761 0.9195
20.2083 -5.1579 -2.4774 0.9194
20.3855 -4.4346 -2.4781 0.9194
20.5371 -3.7053 -2.4789 0.9194
20.7626 -2.2322 -2.4805 0.9193
20.8834 -0.7458 -2.4822 0.9193
-17.7703 0.0000 -2.5179 0.9307
-17.7534 -0.6341 -2.5171 0.9307
-17.7137 -1.2669 -2.5163 0.9308
-17.6513 -1.8977 -2.5154 0.9308
-17.4591 -3.1500 -2.5137 0.9308
-16.0968 -7.3512 -2.5073 0.9310
-13.2741 -9.9369 -2.3494 0.9352
-12.5218 -10.8502 -2.3476 0.9353
-11.8694 -11.0508 -2.2978 0.9366
-11.1671 -11.1671 -2.2376 0.9382
-10.8061 -11.6066 -2.2470 0.9379
-10.8338 -12.5029 -2.3441 0.9353
-10.3768 -12.8769 -2.3432 0.9354
-9.9070 -13.2342 -2.3423 0.9354
-9.4249 -13.5744 -2.3415 0.9354
-8.9312 -13.8972 -2.3407 0.9354
-7.3867 -14.7568 -2.3382 0.9355
-6.8530 -15.0060 -2.3374 0.9355
-6.3110 -15.2361 -2.3367 0.9355
-5.7613 -15.4466 -2.3359 0.9356
-4.6418 -15.8085 -2.3345 0.9356
-4.0734 -15.9593 -2.3338 0.9356
-2.2316 -12.3689 -1.7808 0.9505
-2.3421 -16.2896 -2.3318 0.9357
-1.1734 -16.4068 -2.3306 0.9357
0.0000 -16.4410 -2.3295 0.9357
0.5867 -16.4269 -2.3290 0.9358
1.1724 -16.3921 -2.3285 0.9358
1.7564 -16.3366 -2.3281 0.9358
3.4908 -16.0469 -2.3269 0.9358
4.0607 -15.9098 -2.3265 0.9358
5.1840 -15.5756 -2.3259 0.9358
6.3693 -13.9468 -2.1724 0.9399
6.8253 -13.6351 -2.1605 0.9403
8.1409 -13.7208 -2.2605 0.9376
9.8325 -13.1347 -2.3247 0.9359
10.3392 -12.8302 -2.3347 0.9356
11.2110 -12.9382 -2.4257 0.9332
11.8896 -12.7703 -2.4722 0.9319
12.3548 -12.3547 -2.4756 0.9318
13.2065 -11.4435 -2.4760 0.9318
13.9920 -10.4743 -2.4765 0.9318
14.3586 -9.9694 -2.4768 0.9318
15.3486 -8.3810 -2.4778 0.9318
15.6406 -7.8291 -2.4782 0.9318
16.1653 -6.6959 -2.4792 0.9318
16.6087 -5.5279 -2.4802 0.9317
16.7992 -4.9327 -2.4808 0.9317
16.9686 -4.3310 -2.4813 0.9317
17.1166 -3.7235 -2.4820 0.9317
17.2430 -3.1110 -2.4826 0.9317
17.3477 -2.4942 -2.4833 0.9316
17.4913 -1.2510 -2.4847 0.9316
-15.2703 0.0000 -2.5156 0.9400
-15.2564 -0.5449 -2.5149 0.9400
-15.1702 -1.6310 -2.5135 0.9400
-15.0979 -2.1708 -2.5128 0.9400
-15.0064 -2.7075 -2.5120 0.9401
-14.8957 -3.2404 -2.5113 0.9401
-14.7660 -3.7688 -2.5105 0.9401
-14.0617 -5.8245 -2.5074 0.9402
-13.3455 -7.2872 -2.5049 0.9402
-12.7832 -8.2153 -2.5033 0.9403
-12.1566 -9.1003 -2.5016 0.9403
-11.8129 -9.5195 -2.4993 0.9404
-11.4357 -9.9091 -2.4928 0.9405
-10.7750 -10.0319 -2.4253 0.9421
-10.1294 -10.1294 -2.3599 0.9436
-8.1101 -11.6808 -2.3426 0.9440
-7.6857 -11.9592 -2.3419 0.9440
-7.2517 -12.2221 -2.3412 0.9440
-6.8088 -12.4694 -2.3405 0.9440
-6.3576 -12.7008 -2.3398 0.9440
-5.8985 -12.9159 -2.3391 0.9441
-4.9593 -13.2963 -2.3378 0.9441
-4.4803 -13.4612 -2.3372 0.9441
-2.0165 -14.0253 -2.3343 0.9442
-1.5143 -14.0852 -2.3338 0.9442
-1.0104 -14.1272 -2.3333 0.9442
0.0000 -14.1576 -2.3323 0.9442
0.5052 -14.1459 -2.3319 0.9442
3.0065 -13.8205 -2.3300 0.9443
3.9838 -13.5675 -2.3295 0.9443
4.4650 -13.4152 -2.3292 0.9443
4.9405 -13.2461 -2.3290 0.9443
5.2608 -12.7007 -2.2647 0.9458
6.3268 -12.6394 -2.3285 0.9443
6.7736 -12.4049 -2.3284 0.9443
7.3666 -12.4157 -2.3783 0.9432
8.5688 -12.3414 -2.4751 0.9409
9.0180 -12.0466 -2.4790 0.9408
9.4423 -11.7171 -2.4790 0.9408
9.8547 -11.3729 -2.4791 0.9408
10.2547 -11.0143 -2.4792 0.9408
10.6417 -10.6417 -2.4793 0.9408
11.0154 -10.2557 -2.4794 0.9408
11.7207 -9.4451 -2.4798 0.9408
12.0514 -9.0216 -2.4800 0.9408
12.3670 -8.5865 -2.4802 0.9408
13.2189 -7.2180 -2.4812 0.9408
13.4700 -6.7426 -2.4815 0.9408
14.1206 -5.2667 -2.4827 0.9407
14.4658 -4.2475 -2.4837 0.9407
14.6112 -3.7293 -2.4842 0.9407
14.7381 -3.2061 -2.4847 0.9407
15.0911 -0.5390 -2.4877 0.9406
-13.3747 0.0000 -2.5139 0.9470
-13.3630 -0.4773 -2.5133 0.9470
-13.2255 -1.9015 -2.5114 0.9471
-13.0493 -2.8387 -2.5101 0.9471
-12.6608 -4.2139 -2.5081 0.9471
-12.4989 -4.6619 -2.5074 0.9472
-12.3211 -5.1036 -2.5067 0.9472
-11.9189 -5.9662 -2.5053 0.9472
-11.6950 -6.3859 -2.5046 0.9472
-11.4563 -6.7973 -2.5038 0.9472
-11.2032 -7.1998 -2.5031 0.9472
-10.9359 -7.5929 -2.5024 0.9473
-10.6548 -7.9761 -2.5017 0.9473
-10.3604 -8.3489 -2.5009 0.9473
-10.0529 -8.7109 -2.5002 0.9473
-9.4004 -9.4004 -2.4988 0.9473
-9.0563 -9.7272 -2.4981 0.9473
-7.2884 -10.4973 -2.4020 0.9493
-5.9705 -10.9342 -2.3416 0.9506
-5.5750 -11.1375 -2.3410 0.9506
-5.1726 -11.3265 -2.3404 0.9506
-4.7639 -11.5010 -2.3399 0.9506
-4.3493 -11.6609 -2.3393 0.9506
-3.9294 -11.8059 -2.3387 0.9506
-3.5047 -11.9359 -2.3382 0.9506
-3.0757 -12.0506 -2.3377 0.9506
-2.2073 -12.2341 -2.3367 0.9507
-1.3283 -12.3554 -2.3357 0.9507
-0.8863 -12.3926 -2.3353 0.9507
-0.4434 -12.4141 -2.3348 0.9507
0.4432 -12.4099 -2.3341 0.9507
1.3270 -12.3429 -2.3333 0.9507
2.2036 -12.2135 -2.3327 0.9507
2.6378 -12.1256 -2.3324 0.9507
3.4997 -11.9188 -2.3348 0.9507
5.0048 -12.0826 -2.4582 0.9482
5.4750 -11.9885 -2.4772 0.9478
6.3284 -11.5896 -2.4820 0.9477
7.1387 -11.1080 -2.4818 0.9477
8.2851 -10.2812 -2.4818 0.9477
8.6469 -9.9791 -2.4819 0.9477
9.6652 -8.9987 -2.4822 0.9477
9.9808 -8.6485 -2.4823 0.9477
10.5739 -7.9156 -2.4827 0.9477
10.8507 -7.5338 -2.4829 0.9477
12.2131 -5.0588 -2.4847 0.9476
12.3878 -4.6204 -2.4851 0.9476
12.5468 -4.1760 -2.4855 0.9476
12.6900 -3.7261 -2.4859 0.9476
12.8172 -3.2714 -2.4864 0.9476
13.0229 -2.3496 -2.4873 0.9476
13.2360 -0.4727 -2.4894 0.9475
-11.8765 -0.4242 -2.5120 0.9526
-11.7553 -1.6902 -2.5104 0.9526
-11.6848 -2.1082 -2.5098 0.9526
-11.3844 -3.3428 -2.5080 0.9526
-10.9537 -4.5372 -2.5062 0.9527
-10.7821 -4.9240 -2.5055 0.9527
-10.1862 -6.0437 -2.5036 0.9527
-9.9614 -6.4018 -2.5030 0.9527
-9.7241 -6.7516 -2.5023 0.9528
-8.9398 -7.7464 -2.5004 0.9528
-8.6554 -8.0584 -2.4998 0.9528
-8.0543 -8.6510 -2.4985 0.9528
-7.0782 -9.4553 -2.4966 0.9529
-6.7345 -9.6996 -2.4960 0.9529
-5.2722 -10.5325 -2.4897 0.9530
-3.2381 -11.0280 -2.4295 0.9541
-2.8291 -11.0842 -2.4181 0.9543
-2.4232 -11.1394 -2.4097 0.9545
-2.0196 -11.1938 -2.4043 0.9546
-1.6171 -11.2473 -2.4019 0.9546
1.2477 -11.6052 -2.4672 0.9534
1.6692 -11.6098 -2.4793 0.9532
2.9071 -11.3900 -2.4848 0.9531
3.7124 -11.1539 -2.4849 0.9531
4.1078 -11.0135 -2.4847 0.9531
4.8825 -10.6911 -2.4844 0.9531
5.2607 -10.5095 -2.4843 0.9531
5.6322 -10.3146 -2.4842 0.9531
5.9966 -10.1067 -2.4841 0.9531
6.3534 -9.8861 -2.4841 0.9531
7.3737 -9.1502 -2.4840 0.9531
8.8828 -7.6969 -2.4845 0.9531
9.4105 -7.0446 -2.4848 0.9531
9.6567 -6.7047 -2.4850 0.9531
9.8907 -6.3564 -2.4852 0.9531
10.1122 -5.9999 -2.4854 0.9531
10.5168 -5.2643 -2.4860 0.9531
10.6993 -4.8862 -2.4863 0.9530
10.8682 -4.5018 -2.4866 0.9530
11.2921 -3.3157 -2.4877 0.9530
11.5036 -2.5025 -2.4885 0.9530
11.5876 -2.0906 -2.4889 0.9530
-10.6773 -0.3813 -2.5110 0.9570
-10.6188 -1.1416 -2.5100 0.9571
-10.5691 -1.5196 -2.5095 0.9571
-10.4294 -2.2688 -2.5085 0.9571
-10.2366 -3.0057 -2.5074 0.9571
-9.9917 -3.7267 -2.5063 0.9571
-9.1608 -5.4354 -2.5034 0.9572
-8.9589 -5.7575 -2.5029 0.9572
-8.7457 -6.0722 -2.5023 0.9572
-8.2864 -6.6776 -2.5011 0.9572
-8.0409 -6.9675 -2.5006 0.9572
-7.7853 -7.2484 -2.5000 0.9572
-6.6685 -8.2751 -2.4977 0.9573
-6.3675 -8.5059 -2.4972 0.9573
-6.0585 -8.7259 -2.4966 0.9573
-5.7419 -8.9346 -2.4961 0.9573
-4.4083 -9.6528 -2.4940 0.9573
-3.3492 -10.0628 -2.4925 0.9574
-2.9874 -10.1741 -2.4921 0.9574
-2.6219 -10.2723 -2.4916 0.9574
-1.5080 -10.4884 -2.4904 0.9574
0.0000 -10.5900 -2.4889 0.9574
0.3779 -10.5818 -2.4886 0.9574
0.7553 -10.5603 -2.4883 0.9574
1.1316 -10.5254 -2.4880 0.9574
1.5064 -10.4771 -2.4877 0.9574
2.2495 -10.3408 -2.4872 0.9574
2.6169 -10.2531 -2.4870 0.9575
2.9810 -10.1523 -2.4868 0.9575
3.3412 -10.0387 -2.4866 0.9575
4.0483 -9.7735 -2.4863 0.9575
4.3944 -9.6223 -2.4861 0.9575
4.7348 -9.4589 -2.4860 0.9575
6.0322 -8.6881 -2.4858 0.9575
7.2076 -7.7415 -2.4859 0.9575
7.4795 -7.4795 -2.4860 0.9575
7.9948 -6.9275 -2.4862 0.9575
8.2374 -6.6381 -2.4863 0.9575
8.4696 -6.3403 -2.4865 0.9575
8.6911 -6.0344 -2.4867 0.9575
8.9017 -5.7207 -2.4869 0.9575
9.4648 -4.7378 -2.4876 0.9574
9.7809 -4.0514 -2.4881 0.9574
10.1619 -2.9838 -2.4891 0.9574
10.2634 -2.6196 -2.4895 0.9574
10.3519 -2.2519 -2.4898 0.9574
10.5740 -0.7563 -2.4915 0.9574
10.5961 -0.3784 -2.4919 0.9574
-9.6965 -0.0000 -2.5106 0.9607
-9.6685 -0.6915 -2.5097 0.9607
-9.6359 -1.0360 -2.5093 0.9607
-9.5910 -1.3790 -2.5088 0.9608
-9.5339 -1.7201 -2.5083 0.9608
-9.2900 -2.7278 -2.5069 0.9608
-9.1849 -3.0570 -2.5064 0.9608
-9.0681 -3.3822 -2.5059 0.9608
-8.6493 -4.3295 -2.5043 0.9608
-8.4875 -4.6345 -2.5038 0.9608
-8.3149 -4.9335 -2.5033 0.9608
-8.1318 -5.2260 -2.5028 0.9608
-7.7350 -5.7904 -2.5017 0.9609
-7.5219 -6.0615 -2.5012 0.9609
-7.2992 -6.3248 -2.5007 0.9609
-6.8265 -6.8266 -2.4996 0.9609
-6.5772 -7.0644 -2.4991 0.9609
-5.7808 -7.7223 -2.4976 0.9609
-5.2131 -8.1118 -2.4966 0.9609
-4.6194 -8.4598 -2.4957 0.9610
-3.0412 -9.1373 -2.4934 0.9610
-2.7127 -9.2385 -2.4930 0.9610
-2.0460 -9.4054 -2.4922 0.9610
-1.7088 -9.4710 -2.4918 0.9610
-1.3694 -9.5245 -2.4914 0.9610
0.0000 -9.6173 -2.4901 0.9610
1.7067 -9.4594 -2.4887 0.9611
2.3767 -9.3120 -2.4883 0.9611
3.0346 -9.1174 -2.4880 0.9611
3.3578 -9.0027 -2.4878 0.9611
3.6768 -8.8767 -2.4877 0.9611
5.1937 -8.0815 -2.4873 0.9611
5.7569 -7.6904 -2.4873 0.9611
6.0278 -7.4800 -2.4873 0.9611
6.2910 -7.2602 -2.4873 0.9611
6.5463 -7.0312 -2.4874 0.9611
7.0317 -6.5467 -2.4875 0.9611
7.2612 -6.2918 -2.4877 0.9611
7.6923 -5.7584 -2.4879 0.9611
8.0846 -5.1957 -2.4883 0.9611
8.2656 -4.9042 -2.4885 0.9611
8.4361 -4.6064 -2.4887 0.9611
8.5959 -4.3028 -2.4889 0.9611
8.7449 -3.9936 -2.4891 0.9611
8.8828 -3.6794 -2.4894 0.9611
9.1247 -3.0370 -2.4900 0.9610
9.2284 -2.7097 -2.4903 0.9610
9.4007 -2.0450 -2.4909 0.9610
9.5254 -1.3695 -2.4917 0.9610
9.5697 -1.0288 -2.4920 0.9610
-8.8405 -0.6323 -2.5091 0.9638
-8.8108 -0.9473 -2.5086 0.9638
-8.7699 -1.2609 -2.5082 0.9638
-8.7178 -1.5729 -2.5078 0.9638
-8.4952 -2.4944 -2.5065 0.9639
-8.3992 -2.7955 -2.5060 0.9639
-8.1754 -3.3864 -2.5051 0.9639
-8.0478 -3.6753 -2.5046 0.9639
-7.9100 -3.9595 -2.5041 0.9639
-7.2604 -5.0410 -2.5022 0.9639
-7.0745 -5.2959 -2.5017 0.9639
-6.8797 -5.5440 -2.5013 0.9639
-6.4642 -6.0184 -2.5003 0.9639
-6.0161 -6.4617 -2.4994 0.9640
-5.7805 -6.6711 -2.4989 0.9640
-5.5377 -6.8719 -2.4984 0.9640
-5.2879 -7.0639 -2.4980 0.9640
-5.0315 -7.2468 -2.4975 0.9640
-4.7688 -7.4204 -2.4971 0.9640
-4.5001 -7.5846 -2.4966 0.9640
-4.2258 -7.7390 -2.4962 0.9640
-3.3726 -8.1422 -2.4949 0.9640
-2.4818 -8.4521 -2.4937 0.9640
-1.5634 -8.6652 -2.4927 0.9641
-1.2529 -8.7143 -2.4923 0.9641
-0.9410 -8.7523 -2.4920 0.9641
-0.6279 -8.7792 -2.4917 0.9641
0.0000 -8.7996 -2.4911 0.9641
0.3140 -8.7930 -2.4908 0.9641
0.9403 -8.7464 -2.4903 0.9641
1.2518 -8.7065 -2.4901 0.9641
1.5616 -8.6555 -2.4899 0.9641
1.8694 -8.5935 -2.4897 0.9641
2.1748 -8.5207 -2.4895 0.9641
3.9351 -7.8613 -2.4887 0.9641
4.2130 -7.7156 -2.4886 0.9641
4.4856 -7.5601 -2.4886 0.9641
4.7525 -7.3951 -2.4885 0.9641
5.0134 -7.2207 -2.4885 0.9641
5.2679 -7.0371 -2.4885 0.9641
6.2162 -6.2162 -2.4887 0.9641
7.5632 -4.4875 -2.4896 0.9641
8.0016 -3.6542 -2.4902 0.9641
8.3489 -2.7788 -2.4910 0.9641
8.4437 -2.4793 -2.4913 0.9641
8.5279 -2.1766 -2.4916 0.9641
8.7150 -1.2530 -2.4925 0.9641
8.7554 -0.9413 -2.4929 0.9641
8.7847 -0.6283 -2.4932 0.9640
8.8028 -0.3144 -2.4936 0.9640
-8.1580 -0.0000 -2.5092 0.9664
-8.1516 -0.2911 -2.5089 0.9664
-8.1348 -0.5818 -2.5085 0.9664
-8.1077 -0.8717 -2.5081 0.9665
-8.0701 -1.1603 -2.5077 0.9665
-7.9643 -1.7325 -2.5069 0.9665
-7.8961 -2.0153 -2.5065 0.9665
-7.8178 -2.2955 -2.5061 0.9665
-7.7296 -2.5727 -2.5057 0.9665
-7.5238 -3.1165 -2.5048 0.9665
-7.4065 -3.3824 -2.5044 0.9665
-7.2798 -3.6440 -2.5040 0.9665
-7.1438 -3.9008 -2.5035 0.9665
-6.6824 -4.6397 -2.5022 0.9665
-6.3321 -5.1028 -2.5013 0.9665
-5.5376 -5.9478 -2.4996 0.9666
-4.8676 -6.5023 -2.4983 0.9666
-4.1426 -6.9819 -2.4970 0.9666
-3.8901 -7.1242 -2.4966 0.9666
-3.1048 -7.4957 -2.4955 0.9666
-2.8349 -7.6006 -2.4951 0.9666
-2.5614 -7.6959 -2.4947 0.9666
-2.2848 -7.7813 -2.4944 0.9666
-2.0053 -7.8568 -2.4941 0.9666
-1.4393 -7.9777 -2.4934 0.9666
-1.1535 -8.0230 -2.4931 0.9666
-0.8663 -8.0581 -2.4928 0.9667
-0.5781 -8.0829 -2.4925 0.9667
-0.2892 -8.0975 -2.4922 0.9667
0.0000 -8.1018 -2.4919 0.9667
1.4379 -7.9695 -2.4908 0.9667
1.7213 -7.9125 -2.4906 0.9667
2.2810 -7.7685 -2.4903 0.9667
2.5567 -7.6817 -2.4902 0.9667
3.0979 -7.4791 -2.4899 0.9667
3.3628 -7.3634 -2.4898 0.9667
3.8793 -7.1044 -2.4897 0.9667
4.1303 -6.9612 -2.4896 0.9667
4.6163 -6.6487 -2.4896 0.9667
4.8506 -6.4797 -2.4896 0.9667
5.9246 -5.5160 -2.4898 0.9667
6.1179 -5.3012 -2.4899 0.9667
6.8115 -4.3775 -2.4904 0.9667
6.9638 -4.1318 -2.4906 0.9667
7.1074 -3.8809 -2.4907 0.9667
7.2419 -3.6251 -2.4909 0.9667
7.5900 -2.8309 -2.4916 0.9667
7.9190 -1.7227 -2.4927 0.9667
8.0236 -1.1536 -2.4933 0.9666
8.0876 -0.5784 -2.4939 0.9666
-7.5412 -0.2693 -2.5083 0.9687
-7.5258 -0.5383 -2.5080 0.9687
-7.5007 -0.8064 -2.5076 0.9687
-7.3683 -1.6029 -2.5065 0.9687
-7.2330 -2.1238 -2.5058 0.9687
-7.1515 -2.3802 -2.5054 0.9687
-7.0608 -2.6336 -2.5050 0.9687
-6.4759 -3.8423 -2.5030 0.9688
-6.1832 -4.2931 -2.5022 0.9688
-6.0251 -4.5103 -2.5018 0.9688
-5.6861 -4.9270 -2.5010 0.9688
-5.3184 -5.3184 -2.5001 0.9688
-4.9239 -5.6824 -2.4993 0.9688
-4.7172 -5.8536 -2.4989 0.9688
-4.5045 -6.0173 -2.4986 0.9688
-4.2862 -6.1733 -2.4982 0.9688
-4.0625 -6.3214 -2.4978 0.9688
-3.6001 -6.5931 -2.4970 0.9688
-2.6237 -7.0344 -2.4956 0.9688
-1.8560 -7.2717 -2.4946 0.9689
-1.0677 -7.4257 -2.4937 0.9689
-0.2677 -7.4949 -2.4929 0.9689
0.0000 -7.4989 -2.4927 0.9689
1.3309 -7.3767 -2.4916 0.9689
1.8535 -7.2620 -2.4913 0.9689
2.1114 -7.1908 -2.4912 0.9689
3.1127 -6.8159 -2.4907 0.9689
3.3539 -6.7003 -2.4907 0.9689
4.0507 -6.3030 -2.4905 0.9689
4.2731 -6.1544 -2.4905 0.9689
4.9065 -5.6624 -2.4905 0.9689
5.1056 -5.4838 -2.4906 0.9689
5.2982 -5.2982 -2.4906 0.9689
5.6630 -4.9070 -2.4908 0.9689
5.9991 -4.4909 -2.4910 0.9689
6.8193 -3.1143 -2.4920 0.9689
7.0252 -2.6203 -2.4924 0.9689
7.1956 -2.1128 -2.4928 0.9689
7.2672 -1.8548 -2.4931 0.9689
7.3295 -1.5944 -2.4934 0.9689
7.4605 -0.8021 -2.4942 0.9689
7.4853 -0.5354 -2.4945 0.9689
-7.0085 -0.2503 -2.5079 0.9706
-6.9942 -0.5002 -2.5076 0.9707
-6.9710 -0.7495 -2.5072 0.9707
-6.8979 -1.2445 -2.5066 0.9707
-6.8481 -1.4897 -2.5062 0.9707
-6.7225 -1.9739 -2.5055 0.9707
-6.6468 -2.2123 -2.5052 0.9707
-6.4702 -2.6800 -2.5044 0.9707
-6.1439 -3.3548 -2.5033 0.9707
-5.7474 -3.9905 -2.5022 0.9707
-5.6005 -4.1925 -2.5018 0.9707
-5.4465 -4.3890 -2.5014 0.9707
-5.2855 -4.5799 -2.5010 0.9707
-4.7635 -5.1164 -2.4999 0.9707
-4.1875 -5.5938 -2.4988 0.9708
-3.9846 -5.7389 -2.4984 0.9708
-3.7767 -5.8766 -2.4981 0.9708
-3.1255 -6.2440 -2.4970 0.9708
-2.9003 -6.3508 -2.4967 0.9708
-2.6714 -6.4494 -2.4964 0.9708
-2.2040 -6.6219 -2.4957 0.9708
-0.2489 -6.9685 -2.4936 0.9708
0.2488 -6.9672 -2.4931 0.9708
0.4973 -6.9533 -2.4929 0.9708
1.4814 -6.8098 -2.4922 0.9708
2.6663 -6.4370 -2.4916 0.9708
2.8943 -6.3376 -2.4915 0.9708
3.1185 -6.2301 -2.4914 0.9708
3.3388 -6.1146 -2.4914 0.9708
3.5549 -5.9915 -2.4913 0.9708
3.7664 -5.8607 -2.4913 0.9708
3.9732 -5.7225 -2.4913 0.9708
4.3713 -5.4245 -2.4913 0.9708
4.7473 -5.0990 -2.4914 0.9708
5.0992 -4.7475 -2.4915 0.9708
5.2656 -4.5626 -2.4916 0.9708
5.4253 -4.3719 -2.4917 0.9708
5.8623 -3.7675 -2.4920 0.9708
5.9934 -3.5560 -2.4921 0.9708
6.2326 -3.1198 -2.4925 0.9708
6.3405 -2.8956 -2.4926 0.9708
6.6153 -2.2018 -2.4933 0.9708
6.6902 -1.9644 -2.4935 0.9708
6.8639 -1.2384 -2.4942 0.9708
6.9045 -0.9927 -2.4945 0.9708
6.9593 -0.4977 -2.4950 0.9708
-6.5391 -0.2335 -2.5075 0.9724
-6.5258 -0.4667 -2.5072 0.9724
-6.5042 -0.6993 -2.5069 0.9724
-6.4743 -0.9309 -2.5066 0.9724
-6.4361 -1.1612 -2.5063 0.9724
-6.0374 -2.5008 -2.5042 0.9724
-5.9434 -2.7143 -2.5039 0.9724
-5.7330 -3.1305 -2.5032 0.9724
-5.3633 -3.7238 -2.5021 0.9724
-5.2262 -3.9123 -2.5018 0.9724
-5.0825 -4.0958 -2.5014 0.9724
-3.7186 -5.3558 -2.4987 0.9725
-3.5246 -5.4844 -2.4983 0.9725
-3.3262 -5.6060 -2.4980 0.9725
-2.7068 -5.9272 -2.4971 0.9725
-2.4933 -6.0193 -2.4967 0.9725
-1.3841 -6.3627 -2.4953 0.9725
-0.9265 -6.4439 -2.4948 0.9725
0.0000 -6.5078 -2.4939 0.9725
0.2323 -6.5031 -2.4937 0.9725
0.6955 -6.4690 -2.4933 0.9725
0.9259 -6.4396 -2.4932 0.9725
1.3827 -6.3564 -2.4929 0.9725
1.8325 -6.2409 -2.4926 0.9725
2.0540 -6.1712 -2.4925 0.9725
2.4888 -6.0085 -2.4923 0.9725
2.9109 -5.8153 -2.4921 0.9725
3.1166 -5.7076 -2.4921 0.9725
3.5157 -5.4706 -2.4920 0.9725
4.4313 -4.7595 -2.4921 0.9725
4.7597 -4.4315 -2.4922 0.9725
4.9150 -4.2589 -2.4923 0.9725
5.2067 -3.8977 -2.4924 0.9725
5.5943 -3.3193 -2.4928 0.9725
5.8176 -2.9121 -2.4931 0.9725
6.0968 -2.2740 -2.4936 0.9725
6.3065 -1.6097 -2.4943 0.9725
6.4065 -1.1559 -2.4947 0.9725
6.4443 -0.9265 -2.4950 0.9725
6.4739 -0.6960 -2.4952 0.9725
-6.1095 -0.4370 -2.5068 0.9739
-6.0614 -0.8715 -2.5063 0.9739
-5.9823 -1.3014 -2.5057 0.9739
-5.8068 -1.9327 -2.5047 0.9739
-5.4698 -2.7380 -2.5034 0.9739
-5.1437 -3.3057 -2.5025 0.9739
-5.0218 -3.4867 -2.5021 0.9739
-4.7590 -3.8350 -2.5015 0.9739
-4.6185 -4.0019 -2.5011 0.9739
-3.4822 -5.0153 -2.4989 0.9740
-3.3005 -5.1357 -2.4986 0.9740
-1.7183 -5.8521 -2.4963 0.9740
-1.2962 -5.9586 -2.4957 0.9740
-1.0826 -6.0005 -2.4955 0.9740
-0.4349 -6.0802 -2.4948 0.9740
-0.2175 -6.0913 -2.4946 0.9740
0.0000 -6.0947 -2.4944 0.9740
0.2175 -6.0904 -2.4942 0.9740
0.6514 -6.0585 -2.4939 0.9740
1.7162 -5.8449 -2.4932 0.9740
1.9237 -5.7797 -2.4931 0.9740
2.1287 -5.7072 -2.4930 0.9740
2.3309 -5.6273 -2.4929 0.9740
2.7263 -5.4464 -2.4928 0.9740
3.2927 -5.1236 -2.4926 0.9740
3.4735 -5.0028 -2.4926 0.9740
3.6498 -4.8756 -2.4926 0.9740
4.1502 -4.4576 -2.4927 0.9740
4.3067 -4.3067 -2.4927 0.9740
4.7428 -3.8220 -2.4929 0.9740
4.8764 -3.6504 -2.4930 0.9740
5.0038 -3.4742 -2.4931 0.9740
5.1248 -3.2935 -2.4933 0.9740
5.4484 -2.7273 -2.4937 0.9740
5.5426 -2.5312 -2.4938 0.9740
5.6298 -2.3319 -2.4940 0.9740
5.7827 -1.9247 -2.4943 0.9740
6.0351 -0.8677 -2.4954 0.9740
6.0628 -0.6518 -2.4957 0.9740
6.0828 -0.4350 -2.4959 0.9740
-5.7526 0.0000 -2.5071 0.9752
-5.7367 -0.4103 -2.5065 0.9752
-5.7178 -0.6147 -2.5063 0.9752
-5.6581 -1.0208 -2.5057 0.9752
-5.6175 -1.2220 -2.5054 0.9752
-5.5696 -1.4216 -2.5052 0.9752
-5.5147 -1.6193 -2.5049 0.9752
-5.3838 -2.0081 -2.5043 0.9752
-5.2256 -2.3865 -2.5037 0.9752
-5.1365 -2.5711 -2.5034 0.9752
-5.0408 -2.7525 -2.5030 0.9753
-4.8304 -3.1043 -2.5024 0.9753
-4.3373 -3.7583 -2.5012 0.9753
-4.0571 -4.0571 -2.5006 0.9753
-3.4368 -4.5910 -2.4993 0.9753
-3.2703 -4.7102 -2.4991 0.9753
-2.7471 -5.0310 -2.4982 0.9753
-2.3807 -5.2130 -2.4976 0.9753
-2.0023 -5.3684 -2.4971 0.9753
-1.4166 -5.5501 -2.4964 0.9753
-1.2175 -5.5966 -2.4961 0.9753
-1.0168 -5.6359 -2.4959 0.9753
-0.4084 -5.7109 -2.4953 0.9753
-0.2043 -5.7214 -2.4951 0.9753
0.2043 -5.7205 -2.4947 0.9753
1.0161 -5.6318 -2.4941 0.9753
1.6121 -5.4901 -2.4937 0.9753
1.8069 -5.4289 -2.4936 0.9753
2.3767 -5.2041 -2.4934 0.9753
2.5608 -5.1159 -2.4933 0.9753
2.7417 -5.0211 -2.4933 0.9753
3.4283 -4.5797 -2.4932 0.9753
3.7463 -4.3235 -2.4932 0.9753
4.0453 -4.0453 -2.4933 0.9753
4.3238 -3.7466 -2.4934 0.9753
4.4549 -3.5900 -2.4935 0.9753
4.5804 -3.4288 -2.4936 0.9753
4.9213 -2.9199 -2.4939 0.9753
5.0226 -2.7426 -2.4940 0.9753
5.2061 -2.3775 -2.4943 0.9753
5.2880 -2.1903 -2.4945 0.9753
5.3631 -2.0003 -2.4946 0.9753
5.4315 -1.8078 -2.4948 0.9753
5.6353 -1.0167 -2.4956 0.9753
5.6684 -0.8150 -2.4958 0.9753
5.6944 -0.6122 -2.4960 0.9753
5.7132 -0.4086 -2.4963 0.9753
5.7247 -0.2045 -2.4965 0.9753
-5.3829 -0.5787 -2.5060 0.9764
-5.3583 -0.7704 -2.5058 0.9764
-5.3268 -0.9611 -2.5055 0.9764
-5.2885 -1.1504 -2.5052 0.9764
-5.2435 -1.3383 -2.5050 0.9764
-5.1919 -1.5245 -2.5047 0.9764
-5.1336 -1.7086 -2.5044 0.9764
-5.0687 -1.8905 -2.5041 0.9764
-4.8359 -2.4207 -2.5033 0.9764
-4.7459 -2.5915 -2.5030 0.9764
-4.5479 -2.9227 -2.5024 0.9765
-4.4401 -3.0829 -2.5021 0.9765
-4.3268 -3.2390 -2.5018 0.9765
-3.8200 -3.8200 -2.5006 0.9765
-3.3886 -4.2050 -2.4998 0.9765
-3.2360 -4.3228 -2.4995 0.9765
-2.5867 -4.7372 -2.4984 0.9765
-1.7037 -5.1187 -2.4971 0.9765
-1.3339 -5.2262 -2.4967 0.9765
-1.1464 -5.2700 -2.4965 0.9765
-0.9575 -5.3071 -2.4962 0.9765
-0.7674 -5.3375 -2.4960 0.9765
-0.5764 -5.3610 -2.4958 0.9765
-0.3846 -5.3777 -2.4956 0.9765
-0.1924 -5.3877 -2.4955 0.9765
0.0000 -5.3907 -2.4953 0.9765
0.1924 -5.3869 -2.4951 0.9765
0.7670 -5.3345 -2.4947 0.9765
0.9569 -5.3035 -2.4945 0.9765
1.5181 -5.1701 -2.4942 0.9765
1.7016 -5.1124 -2.4941 0.9765
2.2381 -4.9008 -2.4939 0.9765
2.4116 -4.8177 -2.4938 0.9765
2.5819 -4.7285 -2.4938 0.9765
2.7490 -4.6332 -2.4937 0.9765
2.9126 -4.5321 -2.4937 0.9765
3.0725 -4.4252 -2.4937 0.9765
3.2285 -4.3128 -2.4937 0.9765
3.5280 -4.0715 -2.4937 0.9765
4.1952 -3.3807 -2.4940 0.9765
4.6344 -2.7497 -2.4944 0.9765
4.7298 -2.5827 -2.4945 0.9765
4.9025 -2.2389 -2.4947 0.9765
4.9796 -2.0626 -2.4949 0.9765
5.1147 -1.7023 -2.4952 0.9765
5.1726 -1.5188 -2.4954 0.9765
5.2239 -1.3333 -2.4956 0.9765
5.3906 -0.1925 -2.4968 0.9765
-5.1098 0.0000 -2.5065 0.9775
-4.9902 -1.0855 -2.5050 0.9775
-4.8990 -1.4385 -2.5045 0.9775
-4.7829 -1.7839 -2.5040 0.9775
-4.6425 -2.1201 -2.5035 0.9775
-4.3878 -2.6034 -2.5026 0.9775
-4.1899 -2.9091 -2.5021 0.9775
-3.8537 -3.3392 -2.5013 0.9775
-3.6049 -3.6049 -2.5007 0.9775
-3.4735 -3.7308 -2.5004 0.9775
-3.1978 -3.9683 -2.4999 0.9775
-3.0538 -4.0794 -2.4996 0.9776
-2.9060 -4.1854 -2.4994 0.9776
-2.7544 -4.2860 -2.4991 0.9776
-2.5994 -4.3811 -2.4989 0.9776
-2.4412 -4.4707 -2.4986 0.9776
-2.2798 -4.5545 -2.4984 0.9776
-1.9487 -4.7046 -2.4979 0.9776
-1.4343 -4.8846 -2.4972 0.9776
-1.0820 -4.9737 -2.4968 0.9776
-0.9037 -5.0087 -2.4966 0.9776
-0.7243 -5.0374 -2.4964 0.9776
-0.3630 -5.0755 -2.4960 0.9776
-0.1816 -5.0848 -2.4958 0.9776
0.0000 -5.0877 -2.4957 0.9776
0.1816 -5.0842 -2.4955 0.9776
0.5438 -5.0577 -2.4952 0.9776
0.7239 -5.0348 -2.4951 0.9776
1.0811 -4.9698 -2.4948 0.9776
1.2578 -4.9278 -2.4947 0.9776
1.7771 -4.7647 -2.4945 0.9776
2.1124 -4.6255 -2.4943 0.9776
2.4369 -4.4629 -2.4942 0.9776
3.0471 -4.0705 -2.4942 0.9776
3.4649 -3.7215 -2.4942 0.9776
3.5956 -3.5956 -2.4943 0.9776
3.7217 -3.4650 -2.4943 0.9776
3.9596 -3.1908 -2.4944 0.9776
4.0711 -3.0476 -2.4945 0.9776
4.1774 -2.9004 -2.4946 0.9776
4.2784 -2.7496 -2.4947 0.9776
4.3740 -2.5952 -2.4948 0.9776
4.6998 -1.9467 -2.4953 0.9776
4.8273 -1.6067 -2.4956 0.9776
4.8818 -1.4334 -2.4958 0.9776
4.9302 -1.2584 -2.4959 0.9776
5.0082 -0.9036 -2.4963 0.9776
5.0376 -0.7243 -2.4965 0.9776
5.0607 -0.5441 -2.4967 0.9776
5.0875 -0.1817 -2.4971 0.9776
-4.8310 0.0000 -2.5062 0.9785
-4.8021 -0.5163 -2.5056 0.9785
-4.7802 -0.6873 -2.5053 0.9785
-4.4587 -1.8468 -2.5036 0.9785
-4.2344 -2.3121 -2.5029 0.9785
-3.8606 -2.8900 -2.5018 0.9785
-3.7546 -3.0257 -2.5016 0.9785
-3.5285 -3.2851 -2.5010 0.9785
-2.7478 -3.9576 -2.4995 0.9785
-2.6046 -4.0528 -2.4993 0.9785
-2.3084 -4.2275 -2.4988 0.9785
-2.0005 -4.3806 -2.4983 0.9785
-1.8427 -4.4488 -2.4981 0.9785
-1.5204 -4.5681 -2.4977 0.9785
-1.1905 -4.6642 -2.4972 0.9785
-1.0231 -4.7033 -2.4970 0.9785
-0.5144 -4.7847 -2.4965 0.9785
0.0000 -4.8113 -2.4960 0.9786
0.6846 -4.7612 -2.4954 0.9786
1.1894 -4.6602 -2.4951 0.9786
1.6806 -4.5059 -2.4949 0.9786
1.8403 -4.4429 -2.4948 0.9786
2.3046 -4.2205 -2.4946 0.9786
2.4537 -4.1355 -2.4946 0.9786
2.5997 -4.0452 -2.4946 0.9786
2.7424 -3.9499 -2.4946 0.9786
3.0172 -3.7442 -2.4946 0.9786
3.4003 -3.4003 -2.4947 0.9786
3.5195 -3.2768 -2.4947 0.9786
3.6343 -3.1492 -2.4948 0.9786
3.7445 -3.0175 -2.4948 0.9786
3.8499 -2.8820 -2.4949 0.9786
4.0460 -2.6002 -2.4951 0.9786
4.1364 -2.4542 -2.4952 0.9786
4.2215 -2.3051 -2.4953 0.9786
4.5650 -1.5194 -2.4959 0.9786
4.6623 -1.1900 -2.4963 0.9786
4.7856 -0.5145 -2.4970 0.9785
4.8013 -0.3434 -2.4972 0.9785
4.8109 -0.1718 -2.4974 0.9785
-4.5722 -0.1633 -2.5058 0.9794
-4.5481 -0.4890 -2.5054 0.9794
-4.4686 -0.9721 -2.5047 0.9794
-4.4307 -1.1309 -2.5045 0.9794
-4.3871 -1.2882 -2.5043 0.9794
-4.2230 -1.7492 -2.5035 0.9794
-4.1575 -1.8987 -2.5033 0.9794
-4.0107 -2.1900 -2.5028 0.9794
-3.9296 -2.3315 -2.5026 0.9794
-3.8435 -2.4700 -2.5023 0.9794
-3.6567 -2.7374 -2.5018 0.9794
-3.5564 -2.8659 -2.5016 0.9794
-3.1111 -3.3415 -2.5006 0.9794
-2.9895 -3.4501 -2.5003 0.9794
-2.8642 -3.5543 -2.5001 0.9794
-2.3284 -3.9242 -2.4992 0.9794
-2.1866 -4.0045 -2.4989 0.9794
-1.4402 -4.3273 -2.4979 0.9794
-0.9692 -4.4554 -2.4973 0.9794
-0.6488 -4.5125 -2.4969 0.9794
-0.3252 -4.5467 -2.4966 0.9794
-0.1627 -4.5551 -2.4965 0.9794
0.1627 -4.5546 -2.4962 0.9794
0.6485 -4.5104 -2.4958 0.9794
0.9685 -4.4523 -2.4956 0.9794
1.1268 -4.4147 -2.4955 0.9794
1.2836 -4.3715 -2.4954 0.9794
1.4388 -4.3228 -2.4953 0.9794
1.5921 -4.2685 -2.4952 0.9794
2.1832 -3.9982 -2.4950 0.9794
2.3245 -3.9177 -2.4950 0.9794
2.4628 -3.8322 -2.4950 0.9794
2.5980 -3.7418 -2.4950 0.9794
2.9831 -3.4427 -2.4950 0.9794
3.2212 -3.2212 -2.4951 0.9794
3.4429 -2.9833 -2.4951 0.9794
3.7424 -2.5984 -2.4953 0.9794
3.9992 -2.1837 -2.4956 0.9794
4.2701 -1.5927 -2.4961 0.9794
4.3733 -1.2841 -2.4964 0.9794
4.4166 -1.1273 -2.4965 0.9794
4.5127 -0.6488 -2.4970 0.9794
4.5482 -0.3253 -2.4974 0.9794
-4.3284 -0.3096 -2.5054 0.9802
-4.3143 -0.4638 -2.5052 0.9802
-4.2946 -0.6175 -2.5050 0.9802
-4.2695 -0.7703 -2.5048 0.9802
-4.2389 -0.9221 -2.5046 0.9802
-4.1616 -1.2219 -2.5041 0.9802
-4.1150 -1.3696 -2.5039 0.9802
-4.0631 -1.5155 -2.5037 0.9802
-3.8767 -1.9406 -2.5030 0.9802
-3.8047 -2.0775 -2.5028 0.9802
-3.7277 -2.2118 -2.5025 0.9802
-3.6461 -2.3432 -2.5023 0.9802
-3.2743 -2.8372 -2.5014 0.9802
-3.1706 -2.9520 -2.5011 0.9802
-2.9514 -3.1700 -2.5007 0.9802
-2.8361 -3.2730 -2.5004 0.9802
-2.3406 -3.6421 -2.4995 0.9802
-2.2089 -3.7229 -2.4993 0.9802
-2.0745 -3.7991 -2.4991 0.9802
-1.9374 -3.8704 -2.4989 0.9802
-1.7978 -3.9367 -2.4987 0.9802
-1.6561 -3.9981 -2.4985 0.9802
-1.5122 -4.0543 -2.4983 0.9802
-1.3664 -4.1054 -2.4981 0.9802
-1.2189 -4.1512 -2.4979 0.9802
-0.7680 -4.2568 -2.4974 0.9802
-0.6155 -4.2812 -2.4972 0.9802
-0.4623 -4.3002 -2.4970 0.9802
-0.3085 -4.3137 -2.4969 0.9802
-0.1543 -4.3217 -2.4967 0.9802
0.4622 -4.2988 -2.4962 0.9802
0.6153 -4.2794 -2.4961 0.9802
1.0691 -4.1886 -2.4958 0.9802
1.3651 -4.1014 -2.4956 0.9802
1.6541 -3.9933 -2.4955 0.9802
1.9347 -3.8650 -2.4954 0.9802
2.0714 -3.7934 -2.4954 0.9802
2.2054 -3.7170 -2.4954 0.9802
2.3367 -3.6359 -2.4953 0.9802
2.4650 -3.5502 -2.4953 0.9802
3.3656 -2.7122 -2.4955 0.9802
3.5507 -2.4653 -2.4957 0.9802
3.7178 -2.2059 -2.4959 0.9802
3.7943 -2.0718 -2.4959 0.9802
3.9946 -1.6546 -2.4963 0.9802
4.0513 -1.5110 -2.4964 0.9802
4.1028 -1.3656 -2.4965 0.9802
4.1492 -1.2183 -2.4967 0.9802
4.1903 -1.0695 -2.4968 0.9802
4.2261 -0.9193 -2.4970 0.9802
4.3150 -0.3086 -2.4976 0.9802
4.3236 -0.1544 -2.4978 0.9802
