ply
format ascii 1.0
element vertex 1375
property float32 x
property float32 y
property float32 z
property float32 I
end_header
38.4626 -0.0000 6.7820 0.8554
35.3293 1.2618 6.2335 0.8662
33.6842 2.4091 5.9546 0.8718
29.8939 4.2981 5.3253 0.8846
23.0121 7.6592 4.2765 0.9062
21.5902 8.0527 4.0631 0.9107
16.4876 10.5959 3.4558 0.9235
14.9099 12.0152 3.3764 0.9252
19.0527 16.5092 4.4453 0.9027
17.6986 17.6986 4.4134 0.9033
12.2683 13.1771 3.1746 0.9295
11.3853 13.1393 3.0656 0.9318
10.8167 13.4227 3.0396 0.9324
10.4650 13.9795 3.0791 0.9315
10.0005 14.4035 3.0919 0.9313
11.4220 20.9178 4.2024 0.9077
10.6305 21.2370 4.1876 0.9080
7.1904 15.7449 3.0521 0.9321
5.6575 15.1684 2.8546 0.9364
5.3711 16.1375 2.9990 0.9333
2.0705 8.1123 1.4763 0.9666
5.2049 23.9267 4.3176 0.9053
4.3406 24.0585 4.3107 0.9055
2.6356 18.3308 3.2655 0.9275
1.9668 18.2938 3.2443 0.9280
1.2994 18.1677 3.2116 0.9287
0.6603 18.4863 3.2617 0.9276
0.0000 19.2282 3.3905 0.9249
-3.7303 20.6757 3.7045 0.9182
-4.5911 21.1049 3.8084 0.9160
-5.6265 22.0445 4.0117 0.9117
-7.6344 22.9377 4.2627 0.9065
-9.7389 23.5117 4.4873 0.9018
-11.3538 24.8613 4.8192 0.8949
-12.8076 25.5863 5.0452 0.8903
-14.0507 25.7320 5.1696 0.8877
-16.1754 27.2622 5.5895 0.8792
-41.1979 2.9465 7.2829 0.8456
35.9156 1.2827 5.5056 0.8646
33.6828 2.4090 5.1732 0.8723
30.7073 3.3014 4.7313 0.8825
29.8916 4.2978 4.6263 0.8850
25.4691 6.5006 4.0268 0.8991
23.3982 7.7876 3.7778 0.9050
21.5896 8.0525 3.5300 0.9110
25.3902 13.8641 4.4317 0.8895
16.1693 10.3914 2.9445 0.9252
15.4210 11.5440 2.9510 0.9250
15.0121 12.0975 2.9536 0.9249
17.7493 17.7493 3.8454 0.9034
12.3237 13.2366 2.7706 0.9294
11.3850 13.1390 2.6633 0.9321
10.8165 13.4224 2.6408 0.9326
10.4286 13.9309 2.6659 0.9320
12.9256 20.1126 3.6626 0.9078
12.3020 20.7339 3.6933 0.9070
10.7240 21.4238 3.6702 0.9076
6.4595 15.5945 2.5858 0.9340
5.6520 15.1536 2.4777 0.9366
2.3438 7.9823 1.2745 0.9669
2.0700 8.1100 1.2822 0.9667
5.2188 23.9906 3.7612 0.9054
1.9685 18.3096 2.8211 0.9282
1.2994 18.1673 2.7902 0.9289
0.6602 18.4859 2.8337 0.9279
-3.7302 20.6751 3.2185 0.9185
-4.4489 20.4513 3.2063 0.9188
-5.6886 22.2878 3.5238 0.9111
-2.5696 8.7513 1.3972 0.9638
-9.8222 23.7130 3.9320 0.9013
-12.8059 25.5830 4.3828 0.8907
-19.8821 28.6357 5.3405 0.8684
-15.3635 16.5016 3.4540 0.9128
38.5147 -0.0000 5.0154 0.8561
30.0152 4.3155 3.9488 0.8849
28.8380 5.2029 3.8159 0.8885
26.2761 5.7160 3.5017 0.8972
31.9248 10.6256 4.3815 0.8731
21.5889 8.0523 3.0005 0.9112
26.7978 13.4140 3.9024 0.8861
15.4353 11.5547 2.5108 0.9252
15.0534 12.1308 2.5175 0.9250
13.8025 12.8506 2.4558 0.9268
11.3848 13.1387 2.2639 0.9323
10.8162 13.4221 2.2447 0.9328
10.3493 13.8250 2.2489 0.9327
9.7830 14.0903 2.2337 0.9331
12.4727 21.0216 3.1830 0.9061
10.8712 21.7179 3.1626 0.9067
7.0636 15.4671 2.2142 0.9337
5.6099 15.0406 2.0904 0.9373
2.7371 8.2236 1.1286 0.9656
2.3432 7.9801 1.0830 0.9670
5.2530 24.1475 3.2181 0.9051
4.3409 24.0600 3.1837 0.9061
3.5068 24.3903 3.2088 0.9054
1.9689 18.3135 2.3985 0.9284
1.2993 18.1668 2.3717 0.9292
0.0000 19.2936 2.5124 0.9251
-1.4531 20.3179 2.6526 0.9211
-3.0024 20.8821 2.7472 0.9184
-3.7301 20.6746 2.7357 0.9187
-2.5695 8.7508 1.1876 0.9639
-8.7358 23.4215 3.2552 0.9041
-15.6831 34.3411 4.9162 0.8587
-12.8704 25.7119 3.7443 0.8905
-18.1513 28.2440 4.3720 0.8733
-19.7781 28.4859 4.5159 0.8695
-15.3707 16.5093 2.9374 0.9130
-41.0989 2.9394 5.3656 0.8469
38.6418 -0.0000 4.1494 0.8560
35.9348 1.2834 3.8612 0.8653
26.0842 4.7061 2.8462 0.8989
26.2753 5.7158 2.8875 0.8975
25.5676 6.5257 2.8335 0.8993
33.3947 9.8056 3.7374 0.8693
32.5375 10.8295 3.6824 0.8711
20.6130 8.5382 2.3958 0.9142
20.3043 9.2727 2.3969 0.9141
27.3119 13.6713 3.2797 0.8844
19.0139 10.3823 2.3263 0.9165
17.4220 10.3370 2.1753 0.9217
15.7725 10.9510 2.0619 0.9257
15.2638 11.4264 2.0474 0.9262
17.9766 17.9766 2.7299 0.9028
11.3845 13.1384 1.8668 0.9325
10.4321 13.9356 1.8693 0.9324
9.8630 14.2053 1.8570 0.9328
13.0062 20.2380 2.5833 0.9078
12.4942 21.0579 2.6293 0.9062
11.7116 21.4481 2.6241 0.9064
10.9310 21.8373 2.6223 0.9064
7.1144 15.5784 1.8390 0.9334
6.4592 15.5939 1.8125 0.9344
5.5561 14.8964 1.7072 0.9380
2.7318 8.2078 0.9289 0.9658
2.3425 7.9778 0.8928 0.9671
2.0688 8.1055 0.8983 0.9669
4.3410 24.0607 2.6254 0.9063
1.9420 18.0630 1.9508 0.9295
1.2993 18.1664 1.9557 0.9293
0.6602 18.4851 1.9862 0.9283
0.0000 19.0376 2.0443 0.9263
-0.6916 19.3646 2.0807 0.9250
-2.2695 21.1098 2.2799 0.9181
-2.9397 20.4457 2.2181 0.9203
-3.7300 20.6741 2.2559 0.9190
-4.4539 20.4745 2.2500 0.9192
-7.8906 30.9151 3.4261 0.8795
-2.5692 8.7499 0.9792 0.9640
-9.8216 23.7115 2.7560 0.9019
-14.1170 25.8533 3.1631 0.8882
-19.9763 28.7714 3.7612 0.8686
-15.3778 16.5169 2.4233 0.9132
-41.0429 2.9354 4.4185 0.8474
36.5238 -0.0000 3.0918 0.8636
35.8892 1.2818 3.0401 0.8657
31.0449 3.3377 2.6432 0.8822
30.4153 4.3731 2.6012 0.8840
26.0782 4.7050 2.2432 0.8991
20.1474 10.0851 1.9073 0.9135
25.6281 13.9940 2.4718 0.8894
16.1671 10.3899 1.6268 0.9258
15.7721 10.9508 1.6254 0.9258
15.3395 11.4830 1.6221 0.9260
18.4431 17.1712 2.1332 0.9038
17.5794 17.5794 2.1046 0.9050
11.3843 13.1382 1.4716 0.9326
10.4311 13.9344 1.4735 0.9325
9.8621 14.2041 1.4638 0.9329
12.8263 19.9581 2.0083 0.9092
11.5593 21.1693 2.0418 0.9077
7.1138 15.5770 1.4496 0.9336
5.5821 14.9662 1.3522 0.9379
2.7266 8.1921 0.7309 0.9659
2.3419 7.9756 0.7037 0.9672
5.1706 23.7687 2.0591 0.9070
4.3412 24.0614 2.0698 0.9065
1.9516 18.1523 1.5455 0.9293
0.0000 19.1301 1.6194 0.9261
-1.9385 27.1041 2.3003 0.8967
-3.7299 20.6735 1.7783 0.9191
-5.5914 21.9071 1.9139 0.9132
-2.5689 8.7489 0.7719 0.9641
-8.7251 23.3930 2.1135 0.9046
-11.6351 25.4773 2.3710 0.8937
-14.1165 25.8524 2.4935 0.8885
-14.9085 25.1270 2.4733 0.8893
-31.3286 25.2462 3.4060 0.8509
36.5266 -0.0000 2.2650 0.8638
30.1148 4.3299 1.8866 0.8852
25.2922 7.4265 1.6346 0.8997
21.5871 8.0516 1.4287 0.9118
20.0148 9.1405 1.3644 0.9156
16.4856 10.5947 1.2152 0.9245
15.7718 10.9505 1.1906 0.9259
14.7320 11.8718 1.1732 0.9270
19.1473 16.5912 1.5711 0.9034
17.6425 17.6425 1.5472 0.9048
11.3840 13.1379 1.0780 0.9327
10.4302 13.9331 1.0793 0.9326
12.8718 20.0289 1.4764 0.9090
12.3996 20.8984 1.5069 0.9072
10.8482 21.6719 1.5028 0.9074
6.4589 15.5932 1.0466 0.9346
5.9168 15.8635 1.0499 0.9344
2.7214 8.1765 0.5344 0.9661
4.3413 24.0622 1.5162 0.9067
2.6615 18.5110 1.1597 0.9278
1.2992 18.1656 1.1293 0.9296
0.6602 18.4842 1.1469 0.9286
-2.9612 20.5955 1.2903 0.9200
-3.7298 20.6730 1.3026 0.9193
-4.4512 20.4619 1.2985 0.9195
-5.5908 21.9046 1.4019 0.9134
-8.7361 23.4223 1.5502 0.9047
-9.8210 23.7100 1.5914 0.9023
-15.7268 34.4368 2.3476 0.8592
-14.1160 25.8515 1.8265 0.8887
-43.5368 14.4904 2.8453 0.8320
-40.9519 2.9289 2.5459 0.8483
36.5187 -0.0000 1.4400 0.8640
35.8073 1.2789 1.4128 0.8664
35.6049 2.5465 1.4075 0.8668
25.2931 7.4267 1.0394 0.8999
32.9181 10.9562 1.3680 0.8703
20.2565 10.1397 0.8932 0.9133
17.5079 10.3879 0.8027 0.9217
15.7714 10.9503 0.7571 0.9260
19.1469 16.5909 0.9990 0.9036
17.6408 17.6408 0.9837 0.9050
12.1593 13.0600 0.7036 0.9311
10.8153 13.4210 0.6796 0.9333
9.8603 14.2015 0.6817 0.9331
7.1125 15.5743 0.6751 0.9338
2.7162 8.1610 0.3392 0.9662
2.0671 8.0988 0.3296 0.9671
5.1885 23.8513 0.9625 0.9069
4.3414 24.0629 0.9641 0.9068
2.6618 18.5133 0.7375 0.9279
0.6602 18.4838 0.7293 0.9286
-0.9504 26.6102 1.0500 0.8989
-2.2936 21.3335 0.8460 0.9177
-3.7297 20.6725 0.8283 0.9193
-5.5902 21.9021 0.8913 0.9135
-2.5683 8.7469 0.3595 0.9642
-7.7285 23.2204 0.9650 0.9067
-8.7362 23.4226 0.9857 0.9048
-15.7270 34.4372 1.4928 0.8594
-16.1033 27.1408 1.2444 0.8813
-19.9738 28.7677 1.3810 0.8692
-40.9409 2.9281 1.6185 0.8485
40.7155 -0.0000 0.6878 0.8497
35.8005 1.2786 0.6051 0.8665
31.0414 3.3373 0.5274 0.8826
30.1171 4.3302 0.5140 0.8854
26.2718 5.7151 0.4541 0.8980
32.9171 10.9559 0.5860 0.8704
21.5859 8.0511 0.3892 0.9120
25.3151 13.8231 0.4872 0.8910
17.5060 10.3868 0.3438 0.9218
16.4848 10.5942 0.3310 0.9246
15.7710 10.9500 0.3243 0.9261
19.1464 16.5905 0.4279 0.9036
17.6392 17.6392 0.4214 0.9050
12.1581 13.0588 0.3014 0.9311
11.3836 13.1373 0.2936 0.9328
9.8594 14.2002 0.2920 0.9332
11.7456 21.5105 0.4140 0.9066
5.9165 15.8629 0.2860 0.9345
2.7111 8.1456 0.1450 0.9662
2.3399 7.9691 0.1403 0.9673
2.6622 18.5156 0.3160 0.9279
1.9510 18.1472 0.3083 0.9296
0.6601 18.4834 0.3124 0.9287
0.0000 19.1245 0.3230 0.9263
-0.9504 26.6096 0.4498 0.8990
-1.9384 27.1022 0.4590 0.8970
-3.7296 20.6719 0.3548 0.9194
-4.5902 21.1010 0.3648 0.9172
-2.5680 8.7459 0.1540 0.9642
-9.8204 23.7085 0.4335 0.9024
-12.8666 25.7043 0.4856 0.8914
-14.1150 25.8496 0.4975 0.8889
-16.1008 27.1364 0.5330 0.8814
-15.4060 16.5472 0.3819 0.9135
-40.9299 2.9274 0.6932 0.8486
40.7168 -0.0000 -0.2292 0.8497
35.7936 1.2784 -0.2017 0.8665
35.6073 2.5467 -0.2010 0.8669
31.0402 3.3372 -0.1758 0.8826
26.2710 5.7149 -0.1514 0.8980
32.9162 10.9555 -0.1953 0.8704
20.6102 8.5370 -0.1256 0.9146
20.0078 9.1373 -0.1238 0.9158
20.2584 10.1406 -0.1275 0.9134
17.5042 10.3857 -0.1146 0.9218
15.7707 10.9498 -0.1081 0.9261
15.3334 11.4785 -0.1078 0.9262
14.7359 11.8749 -0.1065 0.9271
19.1460 16.5901 -0.1426 0.9036
18.5033 17.2272 -0.1423 0.9038
17.6375 17.6375 -0.1404 0.9050
9.8585 14.1990 -0.0973 0.9332
12.5304 21.1188 -0.1383 0.9064
7.1113 15.5715 -0.0964 0.9338
5.9164 15.8625 -0.0953 0.9345
2.7060 8.1302 -0.0482 0.9663
2.0660 8.0944 -0.0470 0.9671
4.3417 24.0644 -0.1377 0.9068
0.0000 19.1227 -0.1077 0.9264
-1.9383 27.1016 -0.1530 0.8970
-2.2940 21.3369 -0.1208 0.9177
-2.9602 20.5887 -0.1171 0.9202
-3.7294 20.6707 -0.1183 0.9194
-4.5901 21.1004 -0.1216 0.9172
-15.7273 34.4380 -0.2132 0.8595
-12.8675 25.7060 -0.1618 0.8914
-14.1145 25.8487 -0.1658 0.8889
-16.0982 27.1321 -0.1776 0.8814
-18.2495 28.3968 -0.1900 0.8737
-15.4131 16.5548 -0.1273 0.9135
-40.9190 2.9266 -0.2310 0.8487
40.7182 -0.0000 -1.1465 0.8496
35.7868 1.2781 -1.0083 0.8665
35.6085 2.5468 -1.0052 0.8669
31.0390 3.3371 -0.8791 0.8826
26.2701 5.7147 -0.7570 0.8980
25.2959 7.4275 -0.7423 0.8999
32.9152 10.9552 -0.9768 0.8704
19.1456 16.5898 -0.7133 0.9036
18.5016 17.2256 -0.7118 0.9038
12.1559 13.0563 -0.5023 0.9311
11.3831 13.1368 -0.4895 0.9328
7.1106 15.5701 -0.4820 0.9338
2.3387 7.9648 -0.2337 0.9673
2.0654 8.0921 -0.2352 0.9671
2.6628 18.5202 -0.5268 0.9279
0.0000 19.1208 -0.5384 0.9263
-1.9383 27.1009 -0.7651 0.8970
-2.5674 8.7439 -0.2566 0.9642
-7.7302 23.2255 -0.6893 0.9067
-16.0956 27.1278 -0.8882 0.8814
-18.2506 28.3985 -0.9505 0.8736
35.5457 2.5423 -1.8073 0.8670
31.0379 3.3369 -1.5831 0.8825
25.3559 6.4717 -1.3271 0.9005
32.9143 10.9549 -1.7592 0.8703
21.5841 8.0504 -1.1683 0.9119
20.2604 10.1416 -1.1490 0.9133
16.4837 10.5934 -0.9937 0.9245
15.7699 10.9492 -0.9736 0.9260
15.3304 11.4762 -0.9712 0.9262
14.7385 11.8771 -0.9599 0.9270
19.1452 16.5894 -1.2847 0.9035
17.6342 17.6342 -1.2647 0.9049
10.8144 13.4199 -0.8741 0.9333
10.4255 13.9268 -0.8823 0.9327
9.8567 14.1964 -0.8765 0.9331
11.7449 21.5092 -1.2429 0.9065
7.1100 15.5687 -0.8680 0.9337
4.3420 24.0658 -1.2402 0.9067
2.6631 18.5225 -0.9490 0.9278
1.9505 18.1420 -0.9254 0.9295
1.2991 18.1636 -0.9235 0.9297
0.6601 18.4822 -0.9379 0.9286
-0.9503 26.6078 -1.3503 0.8989
-1.9382 27.1003 -1.3779 0.8969
-2.2943 21.3405 -1.0885 0.9176
-2.9596 20.5842 -1.0546 0.9201
-3.7293 20.6704 -1.0652 0.9193
-2.5671 8.7429 -0.4621 0.9642
-7.7308 23.2273 -1.2415 0.9066
-15.7276 34.4387 -1.9200 0.8593
-14.1134 25.8468 -1.4935 0.8887
-18.2150 28.3432 -1.7086 0.8738
-19.9704 28.7628 -1.7758 0.8691
-24.9430 30.9524 -2.0160 0.8528
-37.1744 32.2118 -2.4946 0.8212
-39.3242 29.4378 -2.4912 0.8214
-42.1619 25.0158 -2.4862 0.8217
-42.9999 23.4797 -2.4846 0.8218
-43.7826 21.9160 -2.4830 0.8219
-44.5090 20.3266 -2.4815 0.8220
-45.1782 18.7134 -2.4799 0.8221
-45.7896 17.0786 -2.4784 0.8222
-46.3423 15.4242 -2.4770 0.8223
-46.8361 13.7523 -2.4755 0.8224
-47.2701 12.0650 -2.4741 0.8225
-47.6442 10.3643 -2.4727 0.8226
32.3568 1.1556 -2.3740 0.8782
26.2684 5.7143 -1.9711 0.8978
25.2661 6.4488 -1.9120 0.9007
21.5835 8.0502 -1.6890 0.9117
17.4987 10.3825 -1.4919 0.9216
15.7696 10.9490 -1.4076 0.9259
15.3288 11.4750 -1.4040 0.9261
17.5910 17.5910 -1.8241 0.9050
12.1537 13.0539 -1.3078 0.9310
10.4246 13.9256 -1.2755 0.9326
12.5296 21.1175 -1.8004 0.9062
11.7447 21.5088 -1.7969 0.9064
10.8468 21.6692 -1.7768 0.9074
7.1094 15.5673 -1.2548 0.9337
6.4581 15.5913 -1.2374 0.9346
2.3374 7.9604 -0.6083 0.9673
2.0643 8.0877 -0.6120 0.9671
4.3421 24.0666 -1.7931 0.9066
2.6635 18.5248 -1.3722 0.9277
1.9503 18.1402 -1.3377 0.9294
1.2991 18.1632 -1.3352 0.9296
-3.7292 20.6698 -1.5400 0.9192
-4.5897 21.0988 -1.5832 0.9170
-7.7047 23.1488 -1.7889 0.9068
-9.8192 23.7056 -1.8814 0.9022
-13.3603 29.2550 -2.3581 0.8790
-12.8372 25.6455 -2.1028 0.8913
-16.0392 27.0327 -2.3047 0.8816
-18.2993 26.3560 -2.3526 0.8792
-15.4342 16.5775 -1.6608 0.9132
-27.2335 20.3868 -2.4943 0.8725
-27.9308 19.3927 -2.4932 0.8725
-29.2164 17.3349 -2.4909 0.8726
-30.8611 14.0938 -2.4876 0.8728
-31.7609 11.8462 -2.4855 0.8729
-32.1502 10.7006 -2.4845 0.8729
-33.0706 7.1941 -2.4815 0.8731
19.3633 -0.0000 -1.8590 0.9251
19.7132 0.7040 -1.8938 0.9238
24.6090 1.7601 -2.3686 0.9056
24.5358 2.6379 -2.3691 0.9056
24.1272 5.2485 -2.3705 0.9055
23.9286 6.1074 -2.3709 0.9055
23.6992 6.9587 -2.3713 0.9055
20.6080 8.5361 -2.1415 0.9143
19.9320 9.1027 -2.1037 0.9157
21.6935 11.8455 -2.3729 0.9055
17.4400 10.3476 -1.9469 0.9217
18.0943 16.8464 -2.3735 0.9054
12.1121 13.0093 -1.7065 0.9311
10.8140 13.4193 -1.6546 0.9331
10.3877 13.8763 -1.6641 0.9327
12.5293 21.1170 -2.3573 0.9060
11.7444 21.5083 -2.3527 0.9062
10.8466 21.6688 -2.3264 0.9072
6.4580 15.5910 -1.6201 0.9344
2.6857 8.0692 -0.8165 0.9664
1.2990 18.1628 -1.7482 0.9294
0.6601 18.4813 -1.7754 0.9284
-2.2841 21.2452 -2.0514 0.9177
-2.9491 20.5112 -1.9894 0.9201
-3.7296 20.6719 -2.0166 0.9191
-4.5896 21.0982 -2.0729 0.9169
-5.5683 21.8163 -2.1616 0.9135
-2.5666 8.7409 -0.8746 0.9641
-7.7052 23.1505 -2.3424 0.9066
-8.5820 23.0094 -2.3577 0.9060
-9.3946 22.6806 -2.3569 0.9061
-10.1946 22.3230 -2.3560 0.9061
-10.9810 21.9372 -2.3552 0.9061
-11.7528 21.5236 -2.3544 0.9062
-12.5090 21.0828 -2.3535 0.9062
-13.9710 20.1221 -2.3518 0.9063
-14.3604 16.5728 -2.1053 0.9157
-14.6938 15.7823 -2.0702 0.9170
-17.8899 16.6561 -2.3467 0.9064
-20.2218 16.2958 -2.4933 0.9009
-21.3484 14.8224 -2.4951 0.9008
-21.8561 14.0461 -2.4943 0.9009
-22.3358 13.2525 -2.4934 0.9009
-23.9623 9.9255 -2.4900 0.9010
-24.8624 7.3003 -2.4877 0.9011
-25.3048 5.5047 -2.4862 0.9012
-25.7267 2.7659 -2.4841 0.9012
-25.8023 1.8454 -2.4835 0.9013
19.7981 2.1285 -2.3653 0.9229
19.7128 2.8343 -2.3657 0.9229
19.6021 3.5366 -2.3660 0.9229
19.4663 4.2346 -2.3664 0.9229
19.1196 5.6140 -2.3670 0.9229
17.8279 8.9240 -2.3682 0.9228
17.4992 9.5553 -2.3684 0.9228
16.4825 10.5926 -2.3273 0.9241
15.7688 10.9485 -2.2803 0.9256
14.6261 11.7864 -2.2313 0.9271
15.0710 13.0591 -2.3688 0.9228
14.5953 13.5887 -2.3688 0.9228
14.1007 14.1007 -2.3688 0.9228
12.1110 13.0081 -2.1112 0.9309
11.0357 12.7358 -2.0018 0.9344
10.8137 13.4190 -2.0471 0.9329
10.3868 13.8751 -2.0588 0.9326
9.8215 14.1456 -2.0456 0.9330
10.7778 16.7705 -2.3680 0.9228
2.3361 7.9560 -0.9850 0.9672
2.0631 8.0832 -0.9910 0.9670
3.5342 19.5889 -2.3645 0.9229
2.6354 18.3295 -2.1997 0.9281
1.2990 18.1624 -2.1630 0.9293
-0.6921 19.3800 -2.3035 0.9249
-4.9092 19.2339 -2.3580 0.9232
-6.9314 18.5838 -2.3560 0.9232
-7.5882 18.3195 -2.3554 0.9232
-4.8862 9.7615 -1.2967 0.9570
-10.1064 17.0335 -2.3527 0.9233
-11.8589 15.8417 -2.3506 0.9234
-13.9762 13.9762 -2.3479 0.9235
-15.1451 14.1006 -2.4580 0.9200
-16.3729 13.1941 -2.4978 0.9188
-16.8285 12.5977 -2.4970 0.9188
-18.7715 9.3963 -2.4935 0.9189
-19.0898 8.7180 -2.4929 0.9189
-19.8968 6.6223 -2.4909 0.9190
-20.4756 4.4542 -2.4891 0.9191
-20.6168 3.7197 -2.4885 0.9191
-20.8826 1.4935 -2.4869 0.9191
-20.9183 0.7471 -2.4864 0.9191
15.4041 -0.0000 -2.1826 0.9397
16.6302 1.1894 -2.3623 0.9349
16.5795 1.7825 -2.3627 0.9349
16.5076 2.3734 -2.3630 0.9348
16.4145 2.9615 -2.3633 0.9348
16.1653 4.1259 -2.3639 0.9348
16.0095 4.7008 -2.3641 0.9348
15.8331 5.2697 -2.3644 0.9348
15.6363 5.8320 -2.3646 0.9348
14.9266 7.4717 -2.3651 0.9348
14.3571 8.5184 -2.3654 0.9348
14.0445 9.0258 -2.3655 0.9348
12.6179 10.9335 -2.3656 0.9348
12.2196 11.3768 -2.3656 0.9348
11.3764 12.2191 -2.3655 0.9348
10.4750 12.9987 -2.3654 0.9348
9.0239 14.0415 -2.3650 0.9348
7.9980 14.6472 -2.3646 0.9348
6.9314 15.1775 -2.3641 0.9348
6.3846 15.4137 -2.3639 0.9348
5.8296 15.6299 -2.3636 0.9348
2.6756 8.0388 -1.2004 0.9664
3.5440 16.2917 -2.3623 0.9349
1.1886 16.6194 -2.3608 0.9349
0.0000 16.6558 -2.3599 0.9349
-1.1877 16.6069 -2.3590 0.9349
-2.3685 16.4732 -2.3581 0.9350
-2.9543 16.3746 -2.3576 0.9350
-3.5361 16.2553 -2.3571 0.9350
-2.5660 8.7389 -1.2905 0.9639
-5.2499 15.7736 -2.3555 0.9350
-7.9578 14.5735 -2.3527 0.9351
-8.4708 14.2768 -2.3521 0.9351
-9.4631 13.6294 -2.3510 0.9352
-9.9411 13.2797 -2.3504 0.9352
-12.9116 12.0211 -2.4996 0.9312
-13.3291 11.5498 -2.4990 0.9312
-14.4769 10.0515 -2.4972 0.9313
-14.8229 9.5261 -2.4966 0.9313
-15.1498 8.9888 -2.4960 0.9313
-15.4574 8.4404 -2.4954 0.9313
-15.7452 7.8815 -2.4948 0.9313
-16.2601 6.7351 -2.4937 0.9314
-16.4865 6.1491 -2.4932 0.9314
-17.1795 3.7372 -2.4911 0.9314
-17.4707 1.8783 -2.4897 0.9315
-17.5235 1.2533 -2.4892 0.9315
14.3176 0.5113 -2.3602 0.9436
14.2922 1.0222 -2.3605 0.9436
14.2483 1.5319 -2.3608 0.9436
14.1060 2.5450 -2.3613 0.9435
13.6055 4.5283 -2.3622 0.9435
12.8260 6.4202 -2.3629 0.9435
12.5893 6.8743 -2.3630 0.9435
10.8418 9.3945 -2.3633 0.9435
10.1439 10.1439 -2.3633 0.9435
8.1802 11.7817 -2.3629 0.9435
7.7541 12.0655 -2.3627 0.9435
7.3180 12.3338 -2.3626 0.9435
6.4185 12.8225 -2.3622 0.9435
5.9562 13.0423 -2.3620 0.9435
5.0097 13.4315 -2.3616 0.9435
2.0620 8.0787 -1.3735 0.9668
3.0458 14.0012 -2.3605 0.9436
1.5310 14.2407 -2.3595 0.9436
1.0216 14.2842 -2.3592 0.9436
0.5111 14.3094 -2.3588 0.9436
0.0000 14.3162 -2.3584 0.9436
-0.5109 14.3047 -2.3581 0.9436
-1.0210 14.2750 -2.3577 0.9436
-2.5397 14.0766 -2.3564 0.9437
-3.0399 13.9743 -2.3560 0.9437
-3.5361 13.8543 -2.3555 0.9437
-4.9939 13.3891 -2.3541 0.9437
-5.9339 12.9935 -2.3532 0.9437
-6.8429 12.5319 -2.3522 0.9438
-7.7163 12.0067 -2.3512 0.9438
-8.1382 11.7212 -2.3507 0.9438
-8.5495 11.4208 -2.3502 0.9438
-8.9651 11.1250 -2.3537 0.9437
-9.9198 11.4481 -2.4955 0.9404
-10.3446 11.1109 -2.5009 0.9403
-11.1062 10.3402 -2.4998 0.9403
-13.0341 7.7335 -2.4967 0.9404
-13.5472 6.7812 -2.4957 0.9404
-13.9910 5.7953 -2.4948 0.9405
-14.3635 4.7806 -2.4938 0.9405
-14.7844 3.2161 -2.4925 0.9405
-14.9712 2.1525 -2.4917 0.9405
-15.0361 1.6165 -2.4913 0.9405
-15.0819 1.0787 -2.4909 0.9405
13.3394 -0.0000 -2.5073 0.9472
12.4804 1.3418 -2.3594 0.9502
12.4259 1.7866 -2.3596 0.9502
12.2691 2.6690 -2.3600 0.9502
12.1671 3.1055 -2.3603 0.9502
12.0495 3.5380 -2.3604 0.9502
11.7681 4.3893 -2.3608 0.9502
11.4263 5.2182 -2.3611 0.9502
11.2333 5.6230 -2.3612 0.9502
10.8044 6.4106 -2.3614 0.9502
10.3201 7.1654 -2.3615 0.9502
10.0580 7.5293 -2.3615 0.9501
9.7829 7.8836 -2.3616 0.9501
9.4954 8.2278 -2.3616 0.9501
9.1956 8.5614 -2.3616 0.9501
8.8841 8.8841 -2.3615 0.9501
8.5612 9.1954 -2.3615 0.9502
7.5285 10.0569 -2.3613 0.9502
6.0194 11.0237 -2.3608 0.9502
5.6217 11.2307 -2.3606 0.9502
4.8054 11.6013 -2.3603 0.9502
4.3879 11.7644 -2.3601 0.9502
2.6654 8.0081 -1.5864 0.9662
2.1527 9.8960 -1.9036 0.9596
2.2282 12.3502 -2.3588 0.9502
1.7858 12.4203 -2.3585 0.9502
0.4477 12.5352 -2.3576 0.9502
0.0000 12.5414 -2.3573 0.9502
-0.8944 12.5058 -2.3566 0.9503
-1.3400 12.4640 -2.3563 0.9503
-2.2251 12.3328 -2.3555 0.9503
-2.5361 8.6371 -1.6920 0.9640
-3.9549 11.8827 -2.3539 0.9503
-4.7909 11.5662 -2.3531 0.9503
-5.1997 11.3858 -2.3527 0.9503
-5.9966 10.9819 -2.3518 0.9503
-7.1322 10.2723 -2.3505 0.9504
-8.3487 10.3601 -2.5009 0.9473
-8.7151 10.0577 -2.5014 0.9473
-9.0668 9.7384 -2.5010 0.9473
-10.3528 8.3428 -2.4991 0.9473
-10.6421 7.9664 -2.4987 0.9473
-11.4265 6.7796 -2.4973 0.9474
-11.6591 6.3664 -2.4969 0.9474
-11.8768 5.9451 -2.4964 0.9474
-12.4380 4.6391 -2.4952 0.9474
-12.9635 2.8200 -2.4936 0.9474
-13.1279 1.8875 -2.4929 0.9475
-13.1851 1.4175 -2.4926 0.9475
-13.2491 0.4732 -2.4919 0.9475
11.8755 -0.0000 -2.5102 0.9526
11.8692 0.4239 -2.5105 0.9526
11.8222 0.8455 -2.5054 0.9527
11.0438 1.5879 -2.3584 0.9554
10.9811 1.9812 -2.3587 0.9554
10.8135 2.7600 -2.3590 0.9554
10.5905 3.5248 -2.3594 0.9554
10.4586 3.9008 -2.3595 0.9554
9.9832 4.9972 -2.3599 0.9554
9.6019 5.6971 -2.3600 0.9554
9.3927 6.0363 -2.3601 0.9554
9.1714 6.3678 -2.3601 0.9554
8.9385 6.6912 -2.3602 0.9554
8.4384 7.3119 -2.3602 0.9554
8.1721 7.6085 -2.3602 0.9554
7.8952 7.8952 -2.3602 0.9554
7.6083 8.1719 -2.3601 0.9554
7.0056 8.6934 -2.3600 0.9554
6.6906 8.9376 -2.3599 0.9554
6.0355 9.3914 -2.3597 0.9554
5.6961 9.6003 -2.3596 0.9554
4.9962 9.9811 -2.3594 0.9554
4.2708 10.3106 -2.3590 0.9554
2.6602 7.9927 -1.7806 0.9661
1.9805 10.9769 -2.3578 0.9554
0.0000 11.1477 -2.3564 0.9554
-0.3978 11.1392 -2.3561 0.9555
-1.1912 11.0795 -2.3555 0.9555
-1.5856 11.0284 -2.3551 0.9555
-1.9780 10.9632 -2.3548 0.9555
-2.5275 8.6079 -1.8964 0.9640
-3.5160 10.5638 -2.3534 0.9555
-4.2593 10.2829 -2.3527 0.9555
-4.8866 9.7622 -2.3076 0.9563
-5.6757 9.5659 -2.3512 0.9555
-6.7443 9.7136 -2.4996 0.9528
-7.0941 9.4766 -2.5023 0.9528
-7.7495 8.9434 -2.5014 0.9528
-8.0624 8.6597 -2.5010 0.9528
-9.2067 7.4192 -2.4994 0.9528
-9.4641 7.0848 -2.4990 0.9528
-9.9422 6.3895 -2.4982 0.9528
-10.1623 6.0296 -2.4978 0.9528
-10.3695 5.6622 -2.4974 0.9528
-10.9103 4.5192 -2.4962 0.9529
-11.3260 3.3256 -2.4952 0.9529
-11.4359 2.9188 -2.4948 0.9529
-11.5313 2.5085 -2.4945 0.9529
-11.6778 1.6790 -2.4938 0.9529
-11.7289 1.2610 -2.4935 0.9529
-11.7862 0.4209 -2.4930 0.9529
10.6770 -0.0000 -2.5094 0.9571
10.6713 0.3811 -2.5096 0.9571
10.6156 1.1413 -2.5093 0.9571
10.5472 1.5165 -2.5043 0.9572
10.1670 1.8343 -2.4281 0.9584
9.8032 2.1326 -2.3579 0.9596
9.7216 2.4813 -2.3580 0.9596
9.6274 2.8269 -2.3582 0.9596
9.1290 4.1691 -2.3587 0.9596
8.8090 4.8101 -2.3589 0.9596
8.2450 5.7246 -2.3590 0.9596
7.8157 6.2983 -2.3591 0.9596
7.5860 6.5733 -2.3591 0.9596
7.3465 6.8398 -2.3591 0.9596
6.5730 7.5856 -2.3590 0.9596
6.0148 8.0348 -2.3589 0.9596
5.4259 8.4428 -2.3587 0.9596
5.1208 8.6307 -2.3586 0.9596
3.0793 6.7428 -1.7422 0.9700
2.8408 6.8583 -1.7447 0.9700
2.5999 6.9707 -1.7485 0.9699
2.3658 7.1080 -1.7606 0.9697
2.1207 7.2223 -1.7691 0.9695
1.3665 7.5739 -1.8088 0.9689
1.1064 7.6951 -1.8271 0.9686
0.7152 9.9998 -2.3562 0.9596
0.3578 10.0179 -2.3559 0.9596
0.0000 10.0232 -2.3557 0.9597
-0.3577 10.0156 -2.3554 0.9597
-0.7149 9.9953 -2.3551 0.9597
-2.1290 9.7869 -2.3539 0.9597
-3.1617 9.4994 -2.3530 0.9597
-4.1573 9.1032 -2.3520 0.9597
-6.0729 8.7466 -2.5026 0.9572
-6.6794 8.2886 -2.5018 0.9572
-7.7863 7.2493 -2.5003 0.9572
-8.0389 6.9658 -2.4999 0.9572
-8.2812 6.6734 -2.4996 0.9572
-8.5129 6.3727 -2.4992 0.9572
-8.7336 6.0639 -2.4989 0.9573
-8.9432 5.7475 -2.4985 0.9573
-9.6648 4.4137 -2.4971 0.9573
-9.8148 4.0654 -2.4968 0.9573
-9.9524 3.7120 -2.4964 0.9573
-10.3741 2.2567 -2.4952 0.9573
-10.5063 1.5106 -2.4946 0.9573
-10.5523 1.1345 -2.4943 0.9573
-10.5850 0.7571 -2.4941 0.9573
9.5934 1.3793 -2.5094 0.9607
9.1480 2.3349 -2.4445 0.9617
8.7359 2.5651 -2.3574 0.9631
8.5315 3.1821 -2.3576 0.9631
8.1435 4.0763 -2.3579 0.9631
7.9930 4.3645 -2.3580 0.9631
7.8324 4.6472 -2.3580 0.9631
7.4812 5.1943 -2.3581 0.9631
7.2911 5.4580 -2.3582 0.9631
7.0917 5.7148 -2.3582 0.9631
6.8832 5.9643 -2.3582 0.9631
6.6659 6.2062 -2.3582 0.9631
6.2061 6.6658 -2.3581 0.9631
5.1938 7.4804 -2.3579 0.9631
4.6465 7.8313 -2.3577 0.9631
4.3639 7.9918 -2.3576 0.9631
3.0793 6.7427 -1.9192 0.9698
2.6088 6.9945 -1.9329 0.9696
2.1206 7.2221 -1.9489 0.9694
1.3664 7.5737 -1.9926 0.9687
1.1064 7.6949 -2.0128 0.9684
0.8373 7.7878 -2.0280 0.9682
-1.2939 8.9994 -2.3541 0.9631
-1.9322 8.8821 -2.3535 0.9631
-2.2477 8.8064 -2.3532 0.9631
-2.5104 8.5498 -2.3072 0.9639
-2.8695 8.6215 -2.3526 0.9632
-3.5075 8.4680 -2.3732 0.9628
-3.9583 8.6674 -2.4671 0.9614
-4.3208 8.6318 -2.4993 0.9609
-4.6338 8.4862 -2.5035 0.9608
-5.2260 8.1318 -2.5028 0.9608
-5.5122 7.9391 -2.5024 0.9609
-6.0629 7.5236 -2.5018 0.9609
-6.5824 7.0700 -2.5011 0.9609
-6.8296 6.8296 -2.5008 0.9609
-7.0680 6.5806 -2.5004 0.9609
-7.5175 6.0580 -2.4997 0.9609
-8.1188 5.2176 -2.4988 0.9609
-8.2987 4.9239 -2.4984 0.9609
-8.6267 4.3182 -2.4978 0.9609
-8.7742 4.0071 -2.4975 0.9609
-8.9106 3.6909 -2.4972 0.9609
-9.4189 2.0490 -2.4958 0.9610
-9.5391 1.3715 -2.4952 0.9610
-9.5810 1.0301 -2.4950 0.9610
-9.6107 0.6874 -2.4947 0.9610
-9.6282 0.3439 -2.4945 0.9610
8.8593 -0.0000 -2.5080 0.9638
8.8543 0.3162 -2.5082 0.9638
8.8381 0.6321 -2.5084 0.9638
8.8105 0.9472 -2.5086 0.9638
8.7217 1.5736 -2.5089 0.9638
8.6605 1.8840 -2.5091 0.9638
8.4872 2.4921 -2.5041 0.9639
7.9179 2.9532 -2.3923 0.9655
7.6921 3.1862 -2.3570 0.9660
7.4457 3.7271 -2.3572 0.9660
7.1612 4.2489 -2.3573 0.9660
6.8401 4.7492 -2.3574 0.9660
6.6663 4.9903 -2.3574 0.9660
6.4840 5.2251 -2.3574 0.9660
6.2934 5.4532 -2.3574 0.9660
5.6743 6.0946 -2.3574 0.9660
5.4530 6.2931 -2.3573 0.9660
5.2249 6.4836 -2.3573 0.9660
4.9900 6.6658 -2.3572 0.9660
4.7487 6.8395 -2.3572 0.9660
4.5015 7.0044 -2.3571 0.9660
3.9900 7.3071 -2.3569 0.9660
3.7265 7.4445 -2.3568 0.9660
3.0792 6.7425 -2.0984 0.9697
2.6088 6.9944 -2.1133 0.9694
2.3657 7.1077 -2.1207 0.9693
2.1206 7.2220 -2.1308 0.9692
1.6216 7.4546 -2.1597 0.9688
1.3664 7.5735 -2.1786 0.9685
1.0999 7.6502 -2.1880 0.9684
0.5935 8.2977 -2.3550 0.9660
-0.2968 8.3112 -2.3544 0.9660
-0.8888 8.2673 -2.3539 0.9660
-1.1832 8.2294 -2.3536 0.9660
-2.0554 8.0532 -2.3529 0.9660
-2.3413 7.9738 -2.3526 0.9660
-2.6830 8.0610 -2.4051 0.9653
-3.0704 8.2321 -2.4873 0.9641
-3.9586 7.9082 -2.5036 0.9639
-4.2378 7.7610 -2.5033 0.9639
-4.5116 7.6038 -2.5030 0.9639
-5.0413 7.2608 -2.5024 0.9639
-5.5451 6.8810 -2.5017 0.9639
-5.7864 6.6779 -2.5014 0.9639
-6.0203 6.4663 -2.5011 0.9639
-6.6746 5.7835 -2.5002 0.9640
-7.2519 5.0351 -2.4993 0.9640
-8.0260 3.6654 -2.4978 0.9640
-8.5447 2.1809 -2.4965 0.9640
-8.6162 1.8743 -2.4962 0.9640
-8.6768 1.5655 -2.4960 0.9640
-8.7263 1.2547 -2.4958 0.9640
-8.7647 0.9423 -2.4955 0.9640
-8.8081 0.3146 -2.4951 0.9640
8.1523 -0.0000 -2.5075 0.9665
8.1073 0.8716 -2.5080 0.9665
8.0715 1.1605 -2.5082 0.9664
7.9691 1.7336 -2.5085 0.9664
7.6300 2.8458 -2.5047 0.9665
6.8971 3.4524 -2.3723 0.9682
6.7245 3.6719 -2.3566 0.9684
6.2938 4.3699 -2.3567 0.9684
5.7908 5.0177 -2.3568 0.9684
5.4180 5.4180 -2.3567 0.9684
5.0176 5.7906 -2.3567 0.9684
4.5915 6.1335 -2.3566 0.9684
4.1420 6.4451 -2.3564 0.9684
3.9092 6.5886 -2.3564 0.9684
3.0424 6.6619 -2.2526 0.9698
2.8053 6.7725 -2.2547 0.9698
2.5674 6.8834 -2.2597 0.9697
1.8431 7.2211 -2.2923 0.9693
1.0888 7.5727 -2.3531 0.9685
0.2732 7.6496 -2.3544 0.9685
0.0000 7.6538 -2.3542 0.9685
-0.5459 7.6330 -2.3537 0.9685
-0.8179 7.6079 -2.3535 0.9685
-1.3583 7.5287 -2.3531 0.9685
-1.9665 7.7048 -2.4458 0.9673
-2.2881 7.7925 -2.4980 0.9666
-2.5678 7.7151 -2.5010 0.9665
-3.6432 7.2782 -2.5034 0.9665
-5.1036 6.3331 -2.5017 0.9665
-5.3258 6.1463 -2.5014 0.9665
-5.5411 5.9516 -2.5011 0.9665
-5.7494 5.7494 -2.5009 0.9665
-6.6751 4.6346 -2.4995 0.9666
-7.2636 3.6359 -2.4984 0.9666
-7.3879 3.3740 -2.4981 0.9666
-7.5029 3.1078 -2.4979 0.9666
-7.7039 2.5641 -2.4974 0.9666
-7.8657 2.0076 -2.4969 0.9666
-7.9874 1.4411 -2.4964 0.9666
-8.0331 1.1550 -2.4962 0.9666
-8.0685 0.8675 -2.4960 0.9666
7.5421 -0.0000 -2.5070 0.9687
7.5238 0.5381 -2.5074 0.9687
7.5003 0.8064 -2.5075 0.9687
7.4245 1.3395 -2.5078 0.9687
7.3724 1.6038 -2.5079 0.9687
7.3108 1.8660 -2.5081 0.9687
7.1597 2.3830 -2.5083 0.9687
6.9720 2.8879 -2.5085 0.9687
6.8569 3.1314 -2.5057 0.9687
6.5693 3.5871 -2.4880 0.9689
6.2916 3.7330 -2.4318 0.9696
5.3570 4.6419 -2.3562 0.9706
5.1879 4.8301 -2.3562 0.9706
5.0122 5.0121 -2.3562 0.9706
4.6417 5.3568 -2.3561 0.9706
4.2476 5.6741 -2.3560 0.9706
4.0422 5.8219 -2.3560 0.9706
3.8318 5.9623 -2.3559 0.9706
3.1721 6.3371 -2.3557 0.9706
2.7117 6.5467 -2.3555 0.9706
1.2577 6.9711 -2.3546 0.9706
1.0080 7.0111 -2.3545 0.9706
0.7571 7.0421 -2.3543 0.9706
-0.2527 7.0760 -2.3536 0.9706
-0.5051 7.0619 -2.3534 0.9706
-1.5986 7.3487 -2.4999 0.9688
-2.1227 7.2293 -2.5045 0.9687
-2.3792 7.1482 -2.5043 0.9687
-2.8825 6.9589 -2.5038 0.9687
-3.1287 6.8509 -2.5035 0.9688
-3.8419 6.4752 -2.5027 0.9688
-4.0702 6.3333 -2.5025 0.9688
-4.2932 6.1833 -2.5022 0.9688
-4.5107 6.0255 -2.5020 0.9688
-4.7224 5.8601 -2.5017 0.9688
-5.5059 5.1262 -2.5006 0.9688
-6.4658 3.8363 -2.4991 0.9688
-6.5979 3.6027 -2.4989 0.9688
-6.8368 3.1223 -2.4984 0.9688
-6.9432 2.8760 -2.4981 0.9688
-7.0408 2.6261 -2.4979 0.9688
-7.2089 2.1167 -2.4974 0.9688
-7.2792 1.8579 -2.4972 0.9688
-7.3920 1.3337 -2.4968 0.9688
-7.4343 1.0689 -2.4966 0.9688
-7.4904 0.5357 -2.4962 0.9688
-7.5042 0.2680 -2.4960 0.9688
7.0054 0.2502 -2.5068 0.9707
6.9705 0.7494 -2.5071 0.9707
6.9397 0.9978 -2.5072 0.9707
6.9001 1.2449 -2.5073 0.9707
6.5708 2.4508 -2.5079 0.9706
6.1530 3.3598 -2.5070 0.9707
6.0237 3.5740 -2.5048 0.9707
5.7405 3.9857 -2.4991 0.9707
5.4950 4.1135 -2.4546 0.9713
5.2565 4.2360 -2.4142 0.9717
5.0251 4.3542 -2.3778 0.9721
4.6580 4.6579 -2.3557 0.9724
4.4887 4.8212 -2.3557 0.9724
4.1332 5.1290 -2.3556 0.9724
3.9474 5.2731 -2.3556 0.9724
3.5610 5.5410 -2.3554 0.9724
3.1565 5.7806 -2.3553 0.9724
2.9480 5.8894 -2.3552 0.9724
1.3995 6.4333 -2.3544 0.9724
-0.2453 6.8673 -2.4573 0.9712
-0.7473 6.9509 -2.5000 0.9707
-1.9729 6.7192 -2.5043 0.9707
-2.4468 6.5602 -2.5038 0.9707
-2.6792 6.4681 -2.5036 0.9707
-3.3543 6.1429 -2.5029 0.9707
-3.7832 5.8868 -2.5024 0.9707
-4.1927 5.6008 -2.5019 0.9707
-4.3895 5.4471 -2.5017 0.9707
-5.2843 4.5789 -2.5005 0.9707
-5.4439 4.3870 -2.5002 0.9707
-5.7419 3.9867 -2.4997 0.9707
-5.8799 3.7788 -2.4995 0.9707
-6.1334 3.3491 -2.4990 0.9707
-6.2485 3.1278 -2.4988 0.9708
-6.3555 2.9025 -2.4986 0.9708
-6.5453 2.4413 -2.4981 0.9708
-6.6277 2.2059 -2.4979 0.9708
-6.7670 1.7272 -2.4975 0.9708
-6.8719 1.2398 -2.4971 0.9708
-6.9113 0.9937 -2.4969 0.9708
-6.9418 0.7463 -2.4968 0.9708
-6.9636 0.4980 -2.4966 0.9708
-6.9764 0.2492 -2.4964 0.9708
6.5363 0.2334 -2.5064 0.9724
6.5037 0.6992 -2.5067 0.9724
5.9522 2.7183 -2.5076 0.9724
5.7434 3.1361 -2.5077 0.9724
5.5052 3.5380 -2.5078 0.9724
5.2329 3.9173 -2.5050 0.9724
5.0863 4.0988 -2.5033 0.9724
4.9337 4.2750 -2.5017 0.9724
4.5585 4.5585 -2.4705 0.9728
4.3446 4.6664 -2.4433 0.9731
3.9284 4.8748 -2.3992 0.9735
3.7248 4.9758 -2.3819 0.9737
3.3280 5.1785 -2.3590 0.9740
3.1357 5.2850 -2.3550 0.9740
2.7505 5.4948 -2.3548 0.9740
2.5526 5.5893 -2.3547 0.9740
2.1471 5.7567 -2.3545 0.9740
1.9429 5.8376 -2.3577 0.9740
1.7408 5.9286 -2.3679 0.9739
0.6894 6.4123 -2.4715 0.9728
0.4651 6.5032 -2.4985 0.9725
-0.6988 6.4995 -2.5051 0.9724
-0.9302 6.4700 -2.5049 0.9724
-1.3892 6.3861 -2.5045 0.9724
-1.8410 6.2697 -2.5041 0.9724
-2.0634 6.1995 -2.5039 0.9724
-2.5000 6.0354 -2.5035 0.9724
-3.1300 5.7321 -2.5028 0.9724
-3.5303 5.4932 -2.5023 0.9724
-3.7238 5.3632 -2.5021 0.9724
-4.0961 5.0830 -2.5017 0.9724
-4.4475 4.7770 -2.5012 0.9724
-4.6147 4.6148 -2.5010 0.9724
-4.9313 4.2730 -2.5005 0.9724
-5.0802 4.0939 -2.5003 0.9724
-5.2226 3.9096 -2.5001 0.9724
-5.4873 3.5265 -2.4996 0.9724
-5.6091 3.3281 -2.4994 0.9724
-5.7239 3.1255 -2.4992 0.9725
-6.0237 2.4951 -2.4986 0.9725
-6.1084 2.2783 -2.4984 0.9725
-6.1853 2.0587 -2.4982 0.9725
-6.3154 1.6119 -2.4978 0.9725
-6.4134 1.1571 -2.4974 0.9725
-6.5111 0.2325 -2.4967 0.9725
6.1230 -0.0000 -2.5060 0.9739
6.1194 0.2185 -2.5061 0.9739
6.1080 0.4369 -2.5062 0.9739
6.0619 0.8716 -2.5065 0.9739
5.9848 1.3019 -2.5067 0.9739
5.7394 2.1407 -2.5071 0.9739
5.4781 2.7421 -2.5073 0.9739
5.3769 2.9360 -2.5073 0.9739
5.1539 3.3122 -2.5074 0.9739
4.6301 4.0120 -2.5074 0.9739
4.3278 4.3278 -2.5049 0.9739
4.0045 4.6215 -2.5028 0.9739
3.3022 5.1383 -2.4998 0.9739
3.1123 5.2454 -2.4963 0.9740
2.9161 5.3405 -2.4904 0.9740
2.5248 5.5284 -2.4874 0.9741
1.7207 5.8601 -2.4996 0.9739
1.0852 6.0151 -2.5016 0.9739
0.8702 6.0521 -2.5024 0.9739
0.4366 6.1039 -2.5045 0.9739
0.2185 6.1180 -2.5055 0.9739
0.0000 6.1215 -2.5054 0.9739
-0.2185 6.1172 -2.5052 0.9739
-0.4366 6.1051 -2.5050 0.9739
-0.6542 6.0852 -2.5049 0.9739
-0.8709 6.0575 -2.5047 0.9739
-1.0865 6.0221 -2.5045 0.9739
-1.5131 5.9284 -2.5041 0.9739
-1.7236 5.8701 -2.5039 0.9739
-2.5407 5.5633 -2.5031 0.9739
-2.7374 5.4686 -2.5029 0.9739
-3.3054 5.1434 -2.5023 0.9739
-4.0024 4.6190 -2.5014 0.9739
-4.1644 4.4729 -2.5012 0.9739
-4.3210 4.3210 -2.5010 0.9739
-4.6175 4.0010 -2.5006 0.9739
-4.7569 3.8334 -2.5004 0.9739
-4.8903 3.6608 -2.5002 0.9739
-5.0174 3.4837 -2.4999 0.9739
-5.1381 3.3021 -2.4997 0.9739
-5.2523 3.1163 -2.4995 0.9739
-5.3598 2.9266 -2.4993 0.9740
-5.5540 2.5364 -2.4989 0.9740
-5.7199 2.1334 -2.4986 0.9740
-5.7920 1.9277 -2.4984 0.9740
-5.8567 1.7197 -2.4982 0.9740
-5.9636 1.2973 -2.4978 0.9740
-6.0402 0.8684 -2.4975 0.9740
5.7353 0.4102 -2.5059 0.9752
5.7173 0.6147 -2.5061 0.9752
5.6594 1.0211 -2.5063 0.9752
5.3891 2.0100 -2.5067 0.9752
5.3141 2.2012 -2.5068 0.9752
5.2323 2.3895 -2.5068 0.9752
4.9471 2.9353 -2.5070 0.9752
4.8393 3.1100 -2.5070 0.9752
4.7252 3.2808 -2.5070 0.9752
4.4792 3.6096 -2.5071 0.9752
4.2103 3.9199 -2.5071 0.9752
4.0677 4.0677 -2.5071 0.9752
3.9199 4.2102 -2.5070 0.9752
3.6094 4.4790 -2.5070 0.9752
3.1081 4.8363 -2.5055 0.9752
2.7544 5.0443 -2.5048 0.9752
2.5724 5.1390 -2.5046 0.9752
2.0084 5.3848 -2.5047 0.9752
1.8151 5.4536 -2.5050 0.9752
1.2223 5.6186 -2.5060 0.9752
1.0209 5.6584 -2.5058 0.9752
0.4101 5.7342 -2.5054 0.9752
0.2052 5.7448 -2.5053 0.9752
-0.6143 5.7141 -2.5046 0.9752
-0.8178 5.6881 -2.5045 0.9752
-1.0203 5.6549 -2.5043 0.9752
-1.2214 5.6145 -2.5041 0.9752
-2.1980 5.3065 -2.5032 0.9752
-2.3858 5.2243 -2.5030 0.9753
-2.7520 5.0400 -2.5026 0.9753
-2.9299 4.9382 -2.5024 0.9753
-3.2742 4.7158 -2.5020 0.9753
-3.7587 4.3377 -2.5014 0.9753
-4.0579 4.0579 -2.5010 0.9753
-4.5926 3.4380 -2.5002 0.9753
-4.7120 3.2716 -2.5000 0.9753
-4.8254 3.1011 -2.4998 0.9753
-5.0336 2.7485 -2.4995 0.9753
-5.3720 2.0036 -2.4987 0.9753
-5.4397 1.8105 -2.4986 0.9753
-5.6980 0.6126 -2.4976 0.9753
-5.7159 0.4088 -2.4975 0.9753
5.4127 -0.0000 -2.5054 0.9764
5.4095 0.1932 -2.5056 0.9764
5.3994 0.3862 -2.5057 0.9764
5.2904 1.1508 -2.5061 0.9764
5.1951 1.5254 -2.5063 0.9764
4.9257 2.2495 -2.5065 0.9764
4.6572 2.7633 -2.5067 0.9764
4.4483 3.0885 -2.5067 0.9764
4.0928 3.5464 -2.5067 0.9764
3.9636 3.6902 -2.5067 0.9764
3.2452 4.3351 -2.5066 0.9764
3.0884 4.4481 -2.5066 0.9764
2.7631 4.6569 -2.5065 0.9764
2.4237 4.8419 -2.5063 0.9764
2.2492 4.9252 -2.5063 0.9764
2.0720 5.0021 -2.5062 0.9764
1.7097 5.1368 -2.5060 0.9764
1.5252 5.1944 -2.5059 0.9764
1.3388 5.2453 -2.5058 0.9764
0.7703 5.3576 -2.5054 0.9764
0.5786 5.3814 -2.5053 0.9764
0.3861 5.3983 -2.5052 0.9764
0.0000 5.4115 -2.5049 0.9764
-0.3860 5.3971 -2.5046 0.9764
-0.5784 5.3795 -2.5045 0.9764
-0.7699 5.3551 -2.5043 0.9764
-0.9605 5.3239 -2.5041 0.9764
-1.1499 5.2859 -2.5040 0.9764
-1.8899 5.0670 -2.5033 0.9764
-2.2462 4.9186 -2.5029 0.9764
-2.4202 4.8349 -2.5027 0.9764
-2.5910 4.7451 -2.5026 0.9765
-2.7585 4.6493 -2.5024 0.9765
-2.9225 4.5475 -2.5022 0.9765
-3.0827 4.4400 -2.5020 0.9765
-3.3911 4.2081 -2.5016 0.9765
-3.8206 3.8206 -2.5011 0.9765
-3.9543 3.6816 -2.5009 0.9765
-4.0828 3.5378 -2.5007 0.9765
-4.3242 3.2370 -2.5003 0.9765
-4.4366 3.0804 -2.5001 0.9765
-4.6444 2.7557 -2.4998 0.9765
-4.7395 2.5879 -2.4996 0.9765
-4.8285 2.4170 -2.4994 0.9765
-5.0581 1.8866 -2.4989 0.9765
-5.1219 1.7047 -2.4987 0.9765
-5.2298 1.3348 -2.4984 0.9765
-5.3111 0.9582 -2.4981 0.9765
-5.3653 0.5768 -2.4978 0.9765
-5.3922 0.1926 -2.4976 0.9765
5.0786 0.5460 -2.5055 0.9775
5.0561 0.7270 -2.5056 0.9775
5.0271 0.9070 -2.5057 0.9775
4.9500 1.2634 -2.5059 0.9775
4.9019 1.4393 -2.5060 0.9775
4.6476 2.1225 -2.5062 0.9775
4.2985 2.7625 -2.5064 0.9775
4.1972 2.9142 -2.5064 0.9775
4.0905 3.0621 -2.5064 0.9775
3.8617 3.3462 -2.5064 0.9775
3.7398 3.4819 -2.5064 0.9775
3.6131 3.6131 -2.5064 0.9775
3.3461 3.8616 -2.5064 0.9775
3.0620 4.0904 -2.5063 0.9775
2.9140 4.1970 -2.5063 0.9775
2.7623 4.2982 -2.5062 0.9775
2.6071 4.3940 -2.5062 0.9775
2.2869 4.5686 -2.5061 0.9775
2.1223 4.6471 -2.5060 0.9775
1.9550 4.7198 -2.5059 0.9775
1.7852 4.7864 -2.5058 0.9775
1.6132 4.8469 -2.5057 0.9775
1.2632 4.9492 -2.5056 0.9775
1.0857 4.9910 -2.5054 0.9775
0.9068 5.0263 -2.5053 0.9775
0.5459 5.0777 -2.5051 0.9775
0.1823 5.1032 -2.5048 0.9775
0.0000 5.1062 -2.5047 0.9775
-0.1822 5.1027 -2.5046 0.9775
-1.0850 4.9877 -2.5038 0.9775
-1.6117 4.8423 -2.5033 0.9775
-1.9527 4.7143 -2.5030 0.9775
-2.7578 4.2912 -2.5021 0.9775
-2.9090 4.1897 -2.5020 0.9775
-3.0565 4.0830 -2.5018 0.9775
-3.2000 3.9710 -2.5016 0.9775
-3.4747 3.7320 -2.5013 0.9775
-3.7315 3.4742 -2.5009 0.9775
-4.3829 2.6005 -2.4999 0.9776
-4.4726 2.4422 -2.4997 0.9776
-4.7071 1.9498 -2.4992 0.9776
-4.8336 1.6088 -2.4989 0.9776
-4.9355 1.2597 -2.4986 0.9776
-4.9770 1.0827 -2.4984 0.9776
-5.0410 0.7248 -2.4982 0.9776
-5.0634 0.5444 -2.4980 0.9776
-5.0793 0.3633 -2.4979 0.9776
-5.0888 0.1817 -2.4978 0.9776
4.8287 -0.0000 -2.5050 0.9785
4.8168 0.3445 -2.5052 0.9785
4.8016 0.5162 -2.5053 0.9785
4.7194 1.0266 -2.5056 0.9785
4.4627 1.8485 -2.5059 0.9785
4.3940 2.0067 -2.5060 0.9785
4.3197 2.1623 -2.5060 0.9785
4.2398 2.3151 -2.5061 0.9785
4.1545 2.4650 -2.5061 0.9785
4.0639 2.6117 -2.5061 0.9785
3.8673 2.8950 -2.5062 0.9785
3.1635 3.6509 -2.5061 0.9785
2.7550 3.9680 -2.5060 0.9785
2.6116 4.0637 -2.5060 0.9785
1.8483 4.4623 -2.5057 0.9785
1.6878 4.5253 -2.5056 0.9785
1.3606 4.6338 -2.5054 0.9785
1.1943 4.6793 -2.5053 0.9785
1.0265 4.7187 -2.5052 0.9785
0.8574 4.7522 -2.5051 0.9785
0.6872 4.7795 -2.5050 0.9785
0.5161 4.8008 -2.5049 0.9785
0.3444 4.8159 -2.5048 0.9785
0.0000 4.8277 -2.5045 0.9785
-0.1723 4.8244 -2.5044 0.9785
-0.3444 4.8149 -2.5043 0.9785
-0.5160 4.7993 -2.5041 0.9785
-0.6869 4.7776 -2.5040 0.9785
-1.1935 4.6759 -2.5036 0.9785
-1.3595 4.6301 -2.5034 0.9785
-1.6861 4.5207 -2.5031 0.9785
-1.8463 4.4574 -2.5029 0.9785
-2.0041 4.3884 -2.5028 0.9785
-2.1593 4.3138 -2.5026 0.9785
-2.7505 3.9615 -2.5019 0.9785
-2.8900 3.8605 -2.5018 0.9785
-3.0257 3.7547 -2.5016 0.9785
-3.1576 3.6440 -2.5014 0.9785
-3.2854 3.5288 -2.5013 0.9785
-3.4090 3.4090 -2.5011 0.9785
-3.5283 3.2850 -2.5009 0.9785
-3.6431 3.1567 -2.5008 0.9785
-3.7532 3.0245 -2.5006 0.9785
-3.9588 2.7487 -2.5003 0.9785
-4.0542 2.6054 -2.5001 0.9785
-4.1443 2.4589 -2.4999 0.9785
-4.3826 2.0015 -2.4995 0.9785
-4.5137 1.6835 -2.4992 0.9785
-4.5706 1.5212 -2.4990 0.9785
-4.6217 1.3571 -2.4989 0.9785
-4.6669 1.1912 -2.4987 0.9785
-4.7062 1.0238 -2.4986 0.9785
-4.7395 0.8551 -2.4985 0.9785
-4.7668 0.6854 -2.4983 0.9785
-4.7880 0.5148 -2.4982 0.9785
-4.8030 0.3435 -2.4981 0.9785
4.5275 0.6509 -2.5052 0.9794
4.5015 0.8122 -2.5053 0.9794
4.4698 0.9723 -2.5054 0.9794
4.4324 1.1313 -2.5054 0.9794
4.3893 1.2888 -2.5055 0.9794
4.3406 1.4447 -2.5056 0.9794
4.2864 1.5987 -2.5056 0.9794
4.0911 2.0479 -2.5058 0.9794
3.9347 2.3346 -2.5059 0.9794
3.8489 2.4736 -2.5059 0.9794
3.6627 2.7419 -2.5059 0.9793
3.5625 2.8709 -2.5059 0.9793
3.4578 2.9962 -2.5059 0.9793
3.2352 3.2352 -2.5059 0.9793
2.7418 3.6626 -2.5058 0.9794
2.1925 4.0152 -2.5056 0.9794
2.0477 4.0908 -2.5056 0.9794
1.9004 4.1612 -2.5055 0.9794
1.5986 4.2859 -2.5054 0.9794
1.2887 4.3887 -2.5052 0.9794
0.9722 4.4692 -2.5050 0.9794
0.3262 4.5613 -2.5046 0.9794
-0.3262 4.5604 -2.5041 0.9794
-0.6506 4.5250 -2.5039 0.9794
-0.8117 4.4987 -2.5037 0.9794
-0.9716 4.4666 -2.5036 0.9794
-1.1304 4.4288 -2.5034 0.9794
-1.4433 4.3364 -2.5031 0.9794
-1.8982 4.1565 -2.5027 0.9794
-2.0452 4.0859 -2.5025 0.9794
-2.1896 4.0100 -2.5024 0.9794
-2.3312 3.9290 -2.5022 0.9794
-3.1119 3.3424 -2.5013 0.9794
-3.5550 2.8648 -2.5006 0.9794
-3.6548 2.7359 -2.5005 0.9794
-3.8402 2.4679 -2.5002 0.9794
-3.9256 2.3292 -2.5000 0.9794
-4.0060 2.1874 -2.4999 0.9794
-4.1513 1.8958 -2.4996 0.9794
-4.2755 1.5947 -2.4993 0.9794
-4.3294 1.4410 -2.4991 0.9794
-4.3779 1.2855 -2.4990 0.9794
-4.4207 1.1283 -2.4989 0.9794
-4.4895 0.8100 -2.4986 0.9794
-4.5153 0.6492 -2.4985 0.9794
-4.5497 0.3254 -2.4983 0.9794
-4.5582 0.1628 -2.4982 0.9794
4.3382 -0.0000 -2.5046 0.9802
4.2946 0.6175 -2.5050 0.9802
4.2700 0.7704 -2.5051 0.9802
4.2399 0.9223 -2.5052 0.9802
4.2044 1.0731 -2.5052 0.9802
4.1635 1.2225 -2.5053 0.9802
4.1174 1.3704 -2.5054 0.9802
4.0659 1.5165 -2.5054 0.9802
4.0093 1.6607 -2.5055 0.9802
3.9475 1.8028 -2.5055 0.9802
3.8090 2.0798 -2.5056 0.9802
3.7323 2.2145 -2.5056 0.9802
3.6510 2.3463 -2.5056 0.9802
3.2799 2.8421 -2.5057 0.9802
2.6008 3.4742 -2.5056 0.9802
2.4751 3.5648 -2.5056 0.9802
2.3462 3.6508 -2.5055 0.9802
2.2144 3.7321 -2.5055 0.9802
1.9424 3.8804 -2.5054 0.9802
1.8026 3.9472 -2.5053 0.9802
1.6605 4.0089 -2.5052 0.9802
1.5164 4.0655 -2.5052 0.9802
0.7703 4.2694 -2.5047 0.9802
0.6174 4.2940 -2.5046 0.9802
-0.3094 4.3260 -2.5040 0.9802
-0.9217 4.2370 -2.5035 0.9802
-1.0723 4.2012 -2.5033 0.9802
-1.3691 4.1136 -2.5031 0.9802
-1.5150 4.0619 -2.5029 0.9802
-1.8007 3.9430 -2.5026 0.9802
-1.9402 3.8760 -2.5025 0.9802
-2.0771 3.8040 -2.5023 0.9802
-2.2115 3.7272 -2.5022 0.9802
-2.3429 3.6457 -2.5020 0.9802
-2.5967 3.4688 -2.5017 0.9802
-2.7187 3.3737 -2.5016 0.9802
-2.8373 3.2744 -2.5014 0.9802
-2.9521 3.1708 -2.5013 0.9802
-3.0632 3.0632 -2.5011 0.9802
-3.1704 2.9518 -2.5010 0.9802
-3.2736 2.8366 -2.5008 0.9802
-3.5574 2.4699 -2.5004 0.9802
-3.6431 2.3413 -2.5002 0.9802
-3.8718 1.9381 -2.4998 0.9802
-3.9998 1.6568 -2.4995 0.9802
-4.0561 1.5129 -2.4994 0.9802
-4.2293 0.9200 -2.4989 0.9802
-4.2592 0.7684 -2.4988 0.9802
-4.3028 0.4626 -2.4985 0.9802
