ply
format ascii 1.0
element vertex 1257
property float32 x
property float32 y
property float32 z
property float32 I
end_header
-19.4050 -2.0863 3.4413 0.9238
-17.1508 -45.9832 8.6537 0.8193
-14.7245 -44.2400 8.2214 0.8275
-12.6385 -43.0428 7.9100 0.8334
-10.7024 -41.9316 7.6307 0.8388
0.0000 -35.7825 6.3094 0.8647
1.2523 -35.0638 6.1866 0.8672
2.5073 -35.0557 6.1971 0.8670
5.2095 -36.2328 6.4545 0.8618
6.5869 -36.5086 6.5414 0.8601
7.8895 -36.2674 6.5445 0.8601
13.4443 -45.7870 8.4143 0.8238
43.7268 -21.8881 8.6222 0.8199
42.7663 -19.5307 8.2900 0.8262
40.1585 -14.9784 7.5575 0.8402
39.3836 -13.1081 7.3189 0.8449
41.6211 -12.2211 7.6488 0.8385
43.0712 -10.9933 7.8381 0.8348
45.1684 -9.8258 8.1507 0.8288
47.3455 -8.5421 8.4831 0.8225
-19.3994 -2.0857 2.9890 0.9241
-17.0920 -45.8255 7.4926 0.8204
-14.7238 -44.2380 7.1425 0.8281
-12.6380 -43.0409 6.8720 0.8340
-10.7019 -41.9298 6.6293 0.8394
-8.8958 -40.8933 6.4111 0.8442
-5.6083 -39.0067 6.0371 0.8526
-1.3107 -18.3266 2.8147 0.9283
-1.3047 -36.5299 5.5997 0.8625
-0.0000 -35.9357 5.5051 0.8647
2.5072 -35.0553 5.3840 0.8674
3.8711 -36.0060 5.5477 0.8637
5.2301 -36.3763 5.6299 0.8618
6.5867 -36.5075 5.6830 0.8606
13.4444 -45.7874 7.3105 0.8244
15.3770 -9.1236 2.7391 0.9302
43.7267 -21.8880 7.4910 0.8205
42.7648 -19.5300 7.2022 0.8268
41.4044 -17.1503 6.8655 0.8341
40.1584 -14.9783 6.5660 0.8408
39.3820 -13.1076 6.3585 0.8454
41.6191 -12.2205 6.6450 0.8390
43.0694 -10.9928 6.8095 0.8354
45.1683 -9.8258 7.0814 0.8294
47.3433 -8.5417 7.3698 0.8231
-19.3938 -2.0851 2.5400 0.9243
-16.9829 -45.5328 6.3283 0.8220
-10.7449 -42.0984 5.6578 0.8392
-8.9337 -41.0676 5.4729 0.8441
-5.8368 -40.5960 5.3408 0.8475
-4.1072 -38.2027 5.0035 0.8564
1.4496 -40.5880 5.2888 0.8489
2.5072 -35.0549 4.5765 0.8678
6.5865 -36.5065 4.8307 0.8610
13.4445 -45.7878 6.2142 0.8249
43.7265 -21.8879 6.3676 0.8210
41.4043 -17.1502 5.8359 0.8346
39.3804 -13.1070 5.4047 0.8458
41.6173 -12.2200 5.6482 0.8395
43.0675 -10.9923 5.7881 0.8359
-19.3883 -2.0845 2.0940 0.9245
-21.5697 -28.8137 3.8650 0.8652
-20.2789 -44.4046 5.2419 0.8217
-17.8049 -42.9848 4.9961 0.8293
-16.0690 -43.0826 4.9376 0.8311
-14.7225 -44.2340 5.0061 0.8290
-13.8076 -47.0243 5.2627 0.8211
-10.7450 -42.0985 4.6655 0.8396
-10.3341 -47.5052 5.2205 0.8224
-6.5159 -45.3192 4.9165 0.8318
-4.1072 -38.2028 4.1259 0.8568
0.0000 -41.5877 4.4658 0.8459
4.1960 -39.0283 4.2151 0.8539
6.2275 -43.3129 4.6988 0.8386
6.5863 -36.5055 3.9833 0.8614
7.8888 -36.2644 3.9852 0.8613
10.9128 -42.7559 4.7384 0.8373
13.4446 -45.7882 5.1244 0.8253
15.6649 -8.5537 1.9166 0.9307
43.7263 -21.8878 5.2508 0.8214
42.7616 -19.5286 5.0480 0.8277
41.4042 -17.1502 4.8124 0.8350
40.1581 -14.9782 4.6024 0.8416
39.3788 -13.1065 4.4566 0.8462
43.0657 -10.9918 4.7727 0.8363
45.1681 -9.8257 4.9637 0.8303
47.3389 -8.5409 5.1654 0.8241
-17.1037 -45.8568 4.1431 0.8216
-14.7218 -44.2320 3.9463 0.8293
-10.7450 -42.0986 3.6780 0.8399
-10.3382 -47.5240 4.1171 0.8226
-6.5183 -45.3361 3.8773 0.8320
-4.1072 -38.2029 3.2526 0.8571
0.0000 -41.6017 3.5217 0.8462
1.4506 -40.6149 3.4403 0.8495
2.5071 -35.0541 2.9750 0.8684
4.1973 -39.0408 3.3240 0.8542
6.5861 -36.5045 3.1401 0.8616
7.8886 -36.2634 3.1416 0.8616
16.0705 -17.2609 1.9964 0.9097
43.7262 -21.8877 4.1394 0.8218
39.7951 -14.8428 3.5955 0.8432
39.3772 -13.1060 3.5132 0.8465
41.6139 -12.2190 3.6715 0.8402
43.0638 -10.9914 3.7623 0.8366
-19.3773 -2.0833 1.2085 0.9249
-30.9720 -30.9721 2.7161 0.8390
-21.5912 -28.8424 2.2333 0.8655
-17.1038 -45.8569 3.0350 0.8219
-14.7211 -44.2300 2.8906 0.8296
-6.4892 -45.1333 2.8275 0.8330
-4.1072 -38.2031 2.3826 0.8573
-1.3045 -36.5247 2.2664 0.8637
1.4493 -40.5784 2.5179 0.8498
6.5860 -36.5035 2.3001 0.8619
10.9121 -42.7532 2.7361 0.8379
13.4449 -45.7890 2.9593 0.8259
16.1168 -17.3107 1.4667 0.9096
15.6369 -8.5384 1.1048 0.9311
24.8042 -12.4161 1.7201 0.8948
41.0297 -16.9951 2.7539 0.8370
39.3757 -13.1055 2.5734 0.8468
33.3575 -7.2565 2.1169 0.8721
47.3345 -8.5401 2.9826 0.8247
-17.1038 -45.8571 1.9299 0.8221
-10.4246 -31.3208 1.3016 0.8762
-10.7451 -42.0989 1.7132 0.8404
-10.3036 -47.3648 1.9113 0.8236
-4.1073 -38.2032 1.5151 0.8574
-1.3044 -36.5235 1.4411 0.8639
0.0000 -41.4532 1.6345 0.8471
2.5071 -35.0533 1.3857 0.8688
6.1853 -43.0199 1.7138 0.8403
6.5858 -36.5025 1.4626 0.8620
7.8882 -36.2614 1.4633 0.8620
10.9118 -42.7519 1.7398 0.8381
13.4450 -45.7894 1.8817 0.8261
7.4527 -22.3919 0.9305 0.9099
11.9012 -31.9085 1.3429 0.8726
23.4033 -25.1369 1.3543 0.8715
15.6230 -8.5308 0.7019 0.9312
24.8181 -12.4230 1.0942 0.8948
40.1577 -14.9780 1.6900 0.8423
41.6105 -12.2180 1.7100 0.8406
32.8749 -8.3908 1.3378 0.8730
34.4854 -7.5019 1.3916 0.8682
23.5587 -2.5328 0.9343 0.9095
-17.1039 -45.8572 0.8267 0.8222
-10.7451 -42.0990 0.7339 0.8404
0.0000 -40.5509 0.6850 0.8502
2.5071 -35.0529 0.5936 0.8688
6.5856 -36.5015 0.6265 0.8621
7.8880 -36.2604 0.6268 0.8620
13.4451 -45.7897 0.8061 0.8262
15.6092 -8.5232 0.3004 0.9313
42.7554 -19.5257 0.7940 0.8286
41.4036 -17.1499 0.7570 0.8359
40.1575 -14.9780 0.7240 0.8424
41.1523 -12.0834 0.7245 0.8423
47.3301 -8.5393 0.8124 0.8250
-21.5751 -28.8210 -0.2027 0.8659
-14.7192 -44.2241 -0.2624 0.8299
-10.7451 -42.0991 -0.2446 0.8405
-6.5019 -45.2220 -0.2572 0.8330
-4.1073 -38.2034 -0.2163 0.8575
-1.3033 -36.4907 -0.2056 0.8641
0.0000 -40.6117 -0.2287 0.8501
2.5070 -35.0525 -0.1979 0.8689
4.1235 -38.3543 -0.2172 0.8570
6.5854 -36.5005 -0.2088 0.8621
13.4452 -45.7902 -0.2687 0.8262
7.4523 -22.3905 -0.1328 0.9099
15.5954 -8.5157 -0.1000 0.9314
41.4035 -17.1499 -0.2523 0.8359
40.1574 -14.9780 -0.2413 0.8424
41.1506 -12.0829 -0.2415 0.8424
45.1675 -9.8256 -0.2602 0.8312
23.9620 -3.4452 -0.1363 0.9077
24.2689 -2.6092 -0.1374 0.9070
-21.5699 -28.8140 -1.0135 0.8659
-10.7452 -42.0992 -1.2234 0.8404
-10.3127 -47.4066 -1.3661 0.8235
-6.5017 -45.2203 -1.2864 0.8329
-1.3120 -18.3442 -0.5179 0.9290
-1.2953 -36.2668 -1.0218 0.8648
4.1259 -38.3759 -1.0868 0.8569
7.8875 -36.2584 -1.0448 0.8620
7.4520 -22.3898 -0.6644 0.9099
15.5816 -8.5082 -0.4999 0.9314
24.8155 -12.4217 -0.7814 0.8949
42.7523 -19.5243 -1.3234 0.8286
41.4033 -17.1498 -1.2619 0.8358
39.3694 -13.1034 -1.1683 0.8470
45.1674 -9.8256 -1.3015 0.8311
47.3258 -8.5385 -1.3541 0.8249
-48.6284 0.0000 -2.4661 0.8230
-19.3502 -2.0804 -0.9870 0.9250
-48.2866 -6.9426 -2.4740 0.8225
-48.0480 -8.6688 -2.4761 0.8224
-47.3881 -12.0951 -2.4803 0.8221
-46.9671 -13.7908 -2.4825 0.8220
-46.4860 -15.4720 -2.4846 0.8218
-45.9450 -17.1366 -2.4869 0.8217
-44.6861 -20.4075 -2.4914 0.8214
-43.9694 -22.0095 -2.4936 0.8212
-43.1955 -23.5865 -2.4959 0.8211
-42.3652 -25.1364 -2.4982 0.8209
-38.4988 -31.0243 -2.5075 0.8203
-36.2543 -33.7539 -2.5121 0.8200
-35.0585 -35.0586 -2.5144 0.8199
-31.7582 -34.1107 -2.3636 0.8297
-29.2965 -36.3548 -2.3678 0.8294
-25.3836 -39.4977 -2.3811 0.8286
-22.6510 -41.4822 -2.3969 0.8275
-21.2244 -42.4011 -2.4047 0.8270
-14.0959 -30.8658 -1.7208 0.8729
-18.2594 -44.0822 -2.4198 0.8260
-16.7250 -44.8414 -2.4271 0.8256
-13.5623 -46.1889 -2.4413 0.8246
-10.7452 -42.0993 -2.2035 0.8403
-3.9768 -18.2809 -0.9488 0.9278
-3.2199 -17.8467 -0.9197 0.9299
-1.2953 -36.2669 -1.8404 0.8647
0.0000 -40.6101 -2.0595 0.8499
1.4506 -40.6153 -2.0611 0.8498
4.1007 -38.1420 -1.9455 0.8576
4.9596 -34.4944 -1.7673 0.8697
7.8873 -36.2575 -1.8818 0.8619
17.3918 -46.6294 -2.5239 0.8193
19.0575 -46.0089 -2.5255 0.8192
16.4360 -27.7014 -1.6335 0.8790
19.0737 -27.4714 -1.6961 0.8746
18.6695 -24.9395 -1.5799 0.8827
21.9798 -23.6080 -1.6358 0.8788
23.0371 -23.0371 -1.6522 0.8777
22.2752 -20.7390 -1.5435 0.8852
26.4116 -21.2838 -1.7202 0.8730
39.5876 -29.6349 -2.5079 0.8203
41.4673 -26.6495 -2.4998 0.8208
15.5678 -8.5006 -0.8995 0.9314
24.8147 -12.4213 -1.4073 0.8948
42.6925 -19.4970 -2.3802 0.8286
40.0843 -14.9507 -2.1696 0.8425
39.3047 -13.0818 -2.1008 0.8471
41.0812 -12.0625 -2.1714 0.8424
42.9837 -10.9709 -2.2498 0.8372
47.2830 -8.5308 -2.4366 0.8249
24.2862 -2.6110 -1.2388 0.9068
-31.7270 -0.0000 -2.3263 0.8805
-31.6802 -2.2658 -2.3288 0.8804
-19.3447 -2.0798 -1.4266 0.9249
-31.3098 -5.6489 -2.3328 0.8802
-31.1066 -6.7668 -2.3341 0.8801
-30.8636 -7.8775 -2.3355 0.8801
-31.4119 -13.0112 -2.4930 0.8725
-30.9470 -14.1330 -2.4945 0.8724
-30.4420 -15.2382 -2.4961 0.8724
-29.3147 -17.3932 -2.4993 0.8722
-27.3399 -20.4664 -2.5041 0.8720
-26.6090 -21.4429 -2.5057 0.8719
-25.0433 -23.3162 -2.5089 0.8718
-24.2105 -24.2105 -2.5105 0.8717
-23.3456 -25.0750 -2.5120 0.8716
-22.4498 -25.9084 -2.5136 0.8715
-21.5240 -26.7096 -2.5152 0.8715
-20.4136 -27.2693 -2.4976 0.8723
-17.4488 -27.1508 -2.3664 0.8786
-16.4782 -27.7726 -2.3678 0.8785
-15.4854 -28.3594 -2.3692 0.8785
-10.0228 -21.9469 -1.7691 0.9078
-12.3890 -29.9096 -2.3737 0.8782
-11.3367 -30.3950 -2.3786 0.8780
-9.1848 -27.5960 -2.1325 0.8899
-8.0695 -31.6160 -2.3925 0.8773
-3.2292 -17.8983 -1.3335 0.9297
-3.4650 -24.0997 -1.7852 0.9070
-3.5120 -32.6667 -2.4090 0.8765
-1.3123 -18.3486 -1.3488 0.9289
-1.1762 -32.9327 -2.4162 0.8762
4.7188 -32.8199 -2.4312 0.8755
5.8930 -32.6627 -2.4336 0.8754
8.2220 -32.2135 -2.4377 0.8752
11.6403 -31.2089 -2.4423 0.8749
12.7524 -30.7870 -2.4434 0.8749
13.8477 -30.3223 -2.4442 0.8749
15.9826 -29.2698 -2.4452 0.8748
16.4387 -27.7059 -2.3621 0.8788
18.0305 -28.0560 -2.4453 0.8748
16.9480 -22.6399 -2.0736 0.8928
19.0252 -23.6088 -2.2232 0.8855
19.5656 -22.5799 -2.1907 0.8871
19.6160 -19.6160 -2.0340 0.8947
23.5608 -20.4156 -2.2859 0.8825
28.4332 -16.8702 -2.4241 0.8758
15.5540 -8.4931 -1.2994 0.9314
24.8139 -12.4210 -2.0346 0.8947
31.3897 -9.2168 -2.3987 0.8770
31.6423 -8.0762 -2.3945 0.8772
32.3614 -1.1558 -2.3743 0.8782
-19.3641 -0.6916 -1.8602 0.9251
-18.9264 -1.3536 -1.8217 0.9266
-18.5058 -1.9896 -1.7869 0.9279
-23.0084 -5.8725 -2.2797 0.9090
-23.3853 -6.8666 -2.3399 0.9067
-24.0100 -9.9452 -2.4950 0.9008
-22.8424 -12.4729 -2.4986 0.9007
-22.3936 -13.2868 -2.4998 0.9007
-21.9158 -14.0844 -2.5011 0.9006
-21.4096 -14.8650 -2.5023 0.9006
-20.8756 -15.6273 -2.5035 0.9005
-18.4750 -18.4750 -2.5084 0.9003
-17.8123 -19.1318 -2.5096 0.9003
-17.1263 -19.7648 -2.5108 0.9002
-15.6873 -20.9558 -2.5131 0.9002
-14.1653 -22.0417 -2.5154 0.9001
-13.3756 -22.5433 -2.5165 0.9000
-11.0290 -22.0332 -2.3655 0.9057
-7.7939 -23.4168 -2.3694 0.9056
-3.9881 -18.3329 -1.8012 0.9274
-3.2291 -17.8976 -1.7460 0.9295
-3.5186 -24.4727 -2.3737 0.9054
-2.6460 -24.6112 -2.3764 0.9053
-1.3125 -18.3508 -1.7663 0.9287
-0.8855 -24.7936 -2.3818 0.9051
1.5135 -21.1615 -2.0368 0.9183
2.6622 -24.7621 -2.3910 0.9048
3.5472 -24.6710 -2.3929 0.9047
5.3056 -24.3897 -2.3963 0.9046
6.1765 -24.1995 -2.3978 0.9045
8.7404 -23.4338 -2.4012 0.9044
7.2577 -17.5215 -1.8207 0.9266
10.3961 -22.7642 -2.4026 0.9043
12.7747 -21.5306 -2.4035 0.9043
14.2766 -20.5622 -2.4032 0.9043
12.2267 -15.1723 -1.8707 0.9247
16.1081 -17.3013 -2.2695 0.9094
17.6750 -17.6750 -2.3998 0.9044
19.9623 -14.9436 -2.3940 0.9047
20.4672 -14.2106 -2.3921 0.9047
15.7608 -10.1289 -1.7986 0.9275
21.3916 -12.6922 -2.3880 0.9049
15.5402 -8.4856 -1.6999 0.9313
22.1984 -11.1117 -2.3832 0.9051
22.8837 -9.4787 -2.3780 0.9053
23.1866 -8.6482 -2.3758 0.9053
23.7301 -6.9678 -2.3744 0.9054
24.5473 -2.6391 -2.3702 0.9056
24.7123 -0.8826 -2.3740 0.9054
-18.3741 -1.9754 -2.1952 0.9283
-18.2565 -2.6249 -2.1909 0.9284
-20.1405 -5.9138 -2.4934 0.9189
-19.6823 -7.3411 -2.4953 0.9189
-19.1232 -8.7333 -2.4972 0.9188
-18.8067 -9.4139 -2.4982 0.9188
-18.4659 -10.0832 -2.4992 0.9187
-18.1014 -10.7401 -2.5002 0.9187
-17.7135 -11.3838 -2.5012 0.9187
-15.4412 -14.3763 -2.5061 0.9185
-14.3875 -15.4533 -2.5081 0.9185
-12.6676 -16.9219 -2.5109 0.9184
-10.7980 -18.1991 -2.5137 0.9183
-8.1066 -19.5710 -2.5163 0.9182
-4.9279 -19.3074 -2.3670 0.9229
-3.9879 -18.3322 -2.2285 0.9272
-2.6243 -18.2526 -2.1904 0.9284
-1.2520 -17.5053 -2.0847 0.9317
-0.6271 -17.5597 -2.0872 0.9317
2.1352 -19.8604 -2.3727 0.9227
3.5478 -19.6642 -2.3735 0.9227
4.2481 -19.5280 -2.3739 0.9227
6.3156 -18.9755 -2.3756 0.9226
9.5947 -17.5714 -2.3781 0.9225
11.4177 -16.4445 -2.3781 0.9225
11.9959 -16.0247 -2.3778 0.9225
12.5580 -15.5836 -2.3774 0.9225
12.7053 -14.6627 -2.3046 0.9248
14.6336 -13.6244 -2.3750 0.9226
16.4158 -11.3977 -2.3739 0.9227
15.0236 -9.6551 -2.1214 0.9306
14.7749 -8.0677 -1.9996 0.9344
15.3947 -7.7060 -2.0450 0.9330
18.4429 -7.6393 -2.3713 0.9227
19.3234 -4.9320 -2.3689 0.9228
19.4819 -4.2380 -2.3683 0.9228
19.9545 -3.6002 -2.4086 0.9216
20.9375 -3.0104 -2.5127 0.9183
21.1499 -1.5127 -2.5187 0.9181
21.1837 -0.7566 -2.5179 0.9182
-16.4967 0.0000 -2.3374 0.9355
-16.4639 -1.1775 -2.3387 0.9355
-16.3947 -2.9579 -2.3605 0.9349
-17.1712 -3.7354 -2.4899 0.9315
-16.5075 -6.1570 -2.4963 0.9313
-15.1768 -9.0048 -2.5004 0.9312
-12.9415 -12.0490 -2.5054 0.9311
-12.5073 -12.5073 -2.5062 0.9310
-12.0568 -12.9500 -2.5070 0.9310
-11.5907 -13.3763 -2.5078 0.9310
-10.6136 -14.1781 -2.5094 0.9309
-10.1039 -14.5524 -2.5102 0.9309
-9.0455 -15.2454 -2.5117 0.9309
-8.4982 -15.5632 -2.5125 0.9309
-7.9396 -15.8613 -2.5132 0.9308
-7.3705 -16.1392 -2.5139 0.9308
-6.2038 -16.6330 -2.5153 0.9308
-5.6077 -16.8484 -2.5160 0.9308
-5.0040 -17.0422 -2.5166 0.9308
-4.3937 -17.2143 -2.5173 0.9307
-3.7694 -17.3276 -2.5125 0.9309
-2.4023 -16.7086 -2.3918 0.9341
-1.1917 -16.6616 -2.3668 0.9347
-0.5963 -16.6969 -2.3673 0.9347
0.0000 -16.7107 -2.3677 0.9347
1.1925 -16.6740 -2.3686 0.9347
2.3798 -16.5515 -2.3693 0.9347
2.9694 -16.4583 -2.3696 0.9347
3.5554 -16.3439 -2.3699 0.9347
4.1370 -16.2085 -2.3702 0.9347
4.7134 -16.0522 -2.3704 0.9346
5.2838 -15.8753 -2.3707 0.9346
5.8475 -15.6778 -2.3709 0.9346
6.4038 -15.4602 -2.3710 0.9346
6.4032 -12.7919 -2.0269 0.9438
8.5403 -14.3939 -2.3714 0.9346
9.0487 -14.0801 -2.3715 0.9346
9.5455 -13.7481 -2.3715 0.9346
10.0300 -13.3985 -2.3714 0.9346
10.9596 -12.6481 -2.3713 0.9346
11.4035 -12.2482 -2.3712 0.9346
12.2466 -11.4020 -2.3709 0.9346
14.6740 -8.0126 -2.3689 0.9347
14.9482 -7.4825 -2.3685 0.9347
15.4385 -6.3949 -2.3677 0.9347
16.5815 -5.5188 -2.4761 0.9318
17.2262 -4.3967 -2.5190 0.9307
17.3682 -3.7782 -2.5184 0.9307
17.4879 -3.1552 -2.5179 0.9307
17.6597 -1.8986 -2.5166 0.9308
17.7116 -1.2668 -2.5160 0.9308
-14.1987 0.0000 -2.3391 0.9441
-14.8968 -2.6877 -2.4937 0.9405
-14.7953 -3.2185 -2.4944 0.9405
-14.5358 -4.2681 -2.4957 0.9404
-14.3781 -4.7855 -2.4964 0.9404
-12.1619 -9.1043 -2.5027 0.9403
-11.8325 -9.5353 -2.5034 0.9403
-10.7546 -10.7546 -2.5056 0.9402
-9.9655 -11.5008 -2.5070 0.9402
-9.1246 -12.1890 -2.5083 0.9401
-8.6861 -12.5103 -2.5090 0.9401
-7.7755 -13.1050 -2.5103 0.9401
-5.8372 -14.0921 -2.5128 0.9400
-5.3317 -14.2948 -2.5134 0.9400
-4.8192 -14.4794 -2.5140 0.9400
-4.3003 -14.6454 -2.5145 0.9400
-3.7756 -14.7928 -2.5151 0.9400
-3.2459 -14.9212 -2.5156 0.9400
-2.7118 -15.0306 -2.5161 0.9400
-2.1740 -15.1208 -2.5166 0.9399
-1.6333 -15.1916 -2.5171 0.9399
-1.0902 -15.2430 -2.5175 0.9399
-0.5449 -15.2580 -2.5152 0.9400
3.0542 -14.0400 -2.3670 0.9434
4.5388 -13.6368 -2.3677 0.9434
5.9715 -13.0758 -2.3681 0.9434
7.3357 -12.3637 -2.3683 0.9434
8.6153 -11.5087 -2.3683 0.9434
9.0204 -11.1937 -2.3683 0.9434
9.7953 -10.5209 -2.3681 0.9434
10.5197 -9.7942 -2.3678 0.9434
10.8618 -9.4118 -2.3677 0.9434
11.1899 -9.0174 -2.3675 0.9434
11.5036 -8.6115 -2.3673 0.9434
11.9078 -8.2678 -2.3882 0.9429
12.9106 -7.6602 -2.4731 0.9410
13.6623 -6.8388 -2.5169 0.9399
13.9076 -6.3514 -2.5187 0.9399
14.1232 -5.8500 -2.5183 0.9399
14.3207 -5.3413 -2.5179 0.9399
14.6601 -4.3046 -2.5170 0.9399
15.0274 -2.7112 -2.5156 0.9400
15.1114 -2.1727 -2.5150 0.9400
-12.9060 -0.9231 -2.4320 0.9487
-13.1752 -1.4165 -2.4907 0.9475
-13.0615 -2.3565 -2.4947 0.9474
-12.9721 -2.8219 -2.4953 0.9474
-12.7437 -3.7419 -2.4964 0.9474
-12.6050 -4.1953 -2.4970 0.9474
-12.4503 -4.6437 -2.4976 0.9474
-12.2796 -5.0864 -2.4982 0.9473
-12.0932 -5.5228 -2.4989 0.9473
-11.6741 -6.3746 -2.5001 0.9473
-11.1952 -7.1947 -2.5013 0.9473
-10.6587 -7.9791 -2.5026 0.9473
-10.3698 -8.3565 -2.5032 0.9472
-10.0674 -8.7234 -2.5038 0.9472
-9.4241 -9.4241 -2.5051 0.9472
-8.7320 -10.0772 -2.5063 0.9472
-8.3688 -10.3850 -2.5069 0.9472
-7.9947 -10.6796 -2.5075 0.9472
-6.3993 -11.7194 -2.5098 0.9471
-5.1132 -12.3443 -2.5114 0.9471
-0.9548 -13.3493 -2.5156 0.9470
0.0000 -13.3873 -2.5163 0.9470
0.9553 -13.3567 -2.5170 0.9470
1.4316 -13.3157 -2.5173 0.9470
1.9062 -13.2576 -2.5175 0.9469
3.7683 -12.8337 -2.5141 0.9470
4.2214 -12.6833 -2.5125 0.9470
5.9093 -11.8052 -2.4814 0.9477
6.3161 -11.5671 -2.4772 0.9478
6.7214 -11.3284 -2.4759 0.9478
7.1266 -11.0892 -2.4777 0.9478
7.5325 -10.8488 -2.4825 0.9477
7.9394 -10.6058 -2.4902 0.9475
8.7510 -10.0992 -2.5118 0.9471
9.1109 -9.7857 -2.5131 0.9470
9.7992 -9.1234 -2.5166 0.9470
10.1269 -8.7750 -2.5186 0.9469
10.4329 -8.4074 -2.5185 0.9469
10.7255 -8.0290 -2.5183 0.9469
11.5189 -6.8345 -2.5175 0.9469
11.7542 -6.4183 -2.5172 0.9470
11.9744 -5.9939 -2.5169 0.9470
12.1791 -5.5620 -2.5166 0.9470
12.3682 -5.1231 -2.5163 0.9470
12.5413 -4.6777 -2.5159 0.9470
12.9634 -3.3087 -2.5147 0.9470
13.0710 -2.8434 -2.5143 0.9470
13.1618 -2.3746 -2.5138 0.9470
13.3555 -0.4770 -2.5119 0.9471
-11.7637 -0.4201 -2.4882 0.9530
-11.7332 -1.2615 -2.4945 0.9529
-11.3344 -3.3281 -2.4970 0.9529
-11.2108 -3.7313 -2.4975 0.9528
-11.0728 -4.1299 -2.4981 0.9528
-10.5748 -5.2934 -2.4997 0.9528
-10.1748 -6.0370 -2.5008 0.9528
-9.7225 -6.7504 -2.5019 0.9528
-9.4775 -7.0947 -2.5025 0.9528
-9.2202 -7.4301 -2.5030 0.9527
-8.6705 -8.0725 -2.5041 0.9527
-8.0760 -8.6743 -2.5052 0.9527
-7.7630 -8.9590 -2.5058 0.9527
-7.1071 -9.4939 -2.5068 0.9527
-6.7651 -9.7436 -2.5074 0.9527
-4.5447 -10.9719 -2.5103 0.9526
-4.1510 -11.1292 -2.5108 0.9526
-2.9390 -11.5151 -2.5121 0.9526
-1.6921 -11.7689 -2.5133 0.9526
-1.2712 -11.8235 -2.5137 0.9525
-0.0000 -11.8964 -2.5147 0.9525
0.8489 -11.8689 -2.5152 0.9525
1.2721 -11.8323 -2.5155 0.9525
1.6938 -11.7805 -2.5158 0.9525
2.1134 -11.7136 -2.5160 0.9525
4.1610 -11.1562 -2.5169 0.9525
4.5568 -11.0011 -2.5170 0.9525
5.3304 -10.6487 -2.5172 0.9525
6.0767 -10.2417 -2.5173 0.9525
6.4384 -10.0184 -2.5173 0.9525
7.1367 -9.5335 -2.5173 0.9525
7.7983 -8.9997 -2.5172 0.9525
8.1143 -8.7153 -2.5171 0.9525
8.7146 -8.1136 -2.5169 0.9525
10.4447 -5.7032 -2.5155 0.9525
11.4098 -3.3502 -2.5136 0.9525
11.5205 -2.9404 -2.5133 0.9526
11.6163 -2.5270 -2.5129 0.9526
11.6972 -2.1104 -2.5125 0.9526
11.7632 -1.6913 -2.5121 0.9526
11.8498 -0.8475 -2.5112 0.9526
11.8704 -0.4240 -2.5108 0.9526
-10.6048 0.0000 -2.4924 0.9574
-10.5878 -0.7573 -2.4947 0.9573
-10.5559 -1.1349 -2.4952 0.9573
-10.5105 -1.5112 -2.4956 0.9573
-10.4518 -1.8857 -2.4961 0.9573
-10.2945 -2.6275 -2.4970 0.9573
-10.1961 -2.9938 -2.4975 0.9573
-9.9603 -3.7150 -2.4984 0.9573
-9.6737 -4.4178 -2.4994 0.9572
-9.3376 -5.0987 -2.5004 0.9572
-8.7443 -6.0713 -2.5019 0.9572
-8.5237 -6.3808 -2.5024 0.9572
-8.2922 -6.6823 -2.5029 0.9572
-8.0500 -6.9754 -2.5034 0.9572
-7.2625 -7.8005 -2.5049 0.9572
-6.9809 -8.0563 -2.5054 0.9571
-6.6901 -8.3020 -2.5058 0.9571
-5.7676 -8.9746 -2.5073 0.9571
-5.1145 -9.3666 -2.5082 0.9571
-4.7778 -9.5448 -2.5086 0.9571
-4.4348 -9.7109 -2.5090 0.9571
-1.8976 -10.5175 -2.5118 0.9570
-1.1427 -10.6289 -2.5124 0.9570
-0.7627 -10.6643 -2.5128 0.9570
0.3817 -10.6884 -2.5136 0.9570
2.2744 -10.4555 -2.5147 0.9570
3.3797 -10.1543 -2.5152 0.9570
3.7401 -10.0277 -2.5153 0.9570
4.4463 -9.7361 -2.5155 0.9570
5.7871 -9.0049 -2.5157 0.9570
6.1048 -8.7926 -2.5157 0.9570
6.7164 -8.3345 -2.5157 0.9570
7.0094 -8.0893 -2.5156 0.9570
7.2935 -7.8337 -2.5155 0.9570
7.8331 -7.2929 -2.5153 0.9570
8.3325 -6.7148 -2.5151 0.9570
8.5663 -6.4127 -2.5149 0.9570
8.7891 -6.1024 -2.5147 0.9570
9.5648 -4.7878 -2.5139 0.9570
9.7286 -4.4429 -2.5136 0.9570
10.0186 -3.7367 -2.5130 0.9570
10.1443 -3.3764 -2.5127 0.9570
10.2571 -3.0118 -2.5124 0.9570
10.5159 -1.8973 -2.5114 0.9570
10.6536 -0.7620 -2.5102 0.9571
10.6723 -0.3812 -2.5098 0.9571
-9.6132 -0.6875 -2.4954 0.9610
-9.4892 -1.7120 -2.4966 0.9609
-9.2565 -2.7180 -2.4979 0.9609
-9.1552 -3.0471 -2.4983 0.9609
-8.7817 -4.0105 -2.4996 0.9609
-8.6345 -4.3221 -2.5001 0.9609
-8.3072 -4.9289 -2.5010 0.9609
-8.1274 -5.2232 -2.5014 0.9609
-7.9372 -5.5109 -2.5019 0.9609
-7.7369 -5.7918 -2.5023 0.9609
-7.3066 -6.3312 -2.5032 0.9608
-6.8388 -6.8388 -2.5041 0.9608
-6.5915 -7.0798 -2.5046 0.9608
-6.3357 -7.3118 -2.5050 0.9608
-4.9410 -8.3277 -2.5071 0.9608
-4.3357 -8.6617 -2.5080 0.9608
-4.0245 -8.8123 -2.5083 0.9608
-3.3866 -9.0797 -2.5091 0.9607
-3.0608 -9.1962 -2.5095 0.9607
-2.3976 -9.3937 -2.5102 0.9607
-1.7218 -9.5433 -2.5108 0.9607
-1.0369 -9.6442 -2.5114 0.9607
-0.6921 -9.6761 -2.5117 0.9607
-0.3463 -9.6957 -2.5120 0.9607
0.3464 -9.6977 -2.5125 0.9607
0.6923 -9.6800 -2.5127 0.9607
1.3814 -9.6076 -2.5132 0.9607
1.7235 -9.5529 -2.5134 0.9607
2.4010 -9.4069 -2.5137 0.9607
2.7353 -9.3157 -2.5138 0.9607
4.0339 -8.8331 -2.5142 0.9607
4.3468 -8.6837 -2.5143 0.9607
4.6540 -8.5232 -2.5144 0.9607
4.9553 -8.3517 -2.5144 0.9607
5.2503 -8.1696 -2.5144 0.9607
6.0934 -7.5614 -2.5144 0.9607
6.6170 -7.1071 -2.5142 0.9607
6.8662 -6.8662 -2.5142 0.9607
7.5598 -6.0921 -2.5138 0.9607
7.7720 -5.8180 -2.5137 0.9607
7.9742 -5.5366 -2.5135 0.9607
8.3476 -4.9529 -2.5132 0.9607
8.9643 -3.7131 -2.5122 0.9607
9.3973 -2.3985 -2.5111 0.9607
9.5420 -1.7216 -2.5105 0.9607
9.5961 -1.3797 -2.5102 0.9607
9.6379 -1.0362 -2.5098 0.9607
9.6674 -0.6914 -2.5095 0.9607
9.6845 -0.3459 -2.5091 0.9608
-8.8141 0.0000 -2.4952 0.9640
-8.7294 -1.2551 -2.4966 0.9640
-8.6803 -1.5661 -2.4970 0.9640
-8.6202 -1.8752 -2.4974 0.9640
-8.4671 -2.4862 -2.4982 0.9640
-8.3743 -2.7872 -2.4986 0.9640
-8.0323 -3.6682 -2.4998 0.9640
-7.8976 -3.9532 -2.5002 0.9640
-7.7527 -4.2333 -2.5006 0.9639
-7.5979 -4.5081 -2.5010 0.9639
-7.4334 -4.7772 -2.5014 0.9639
-7.0760 -5.2970 -2.5023 0.9639
-6.4724 -6.0261 -2.5035 0.9639
-5.0484 -7.2711 -2.5059 0.9639
-4.7864 -7.4478 -2.5063 0.9639
-4.2442 -7.7727 -2.5070 0.9639
-3.9646 -7.9203 -2.5074 0.9638
-3.6799 -8.0580 -2.5078 0.9638
-3.3905 -8.1853 -2.5081 0.9638
-2.7986 -8.4086 -2.5088 0.9638
-2.1922 -8.5890 -2.5094 0.9638
-1.8845 -8.6628 -2.5097 0.9638
-1.5743 -8.7256 -2.5100 0.9638
-0.9480 -8.8176 -2.5106 0.9638
-0.6327 -8.8468 -2.5109 0.9638
-0.3166 -8.8646 -2.5111 0.9638
0.9485 -8.8225 -2.5120 0.9638
1.2629 -8.7837 -2.5122 0.9638
1.5757 -8.7336 -2.5123 0.9638
1.8866 -8.6724 -2.5125 0.9638
2.5007 -8.5166 -2.5128 0.9638
2.8032 -8.4223 -2.5129 0.9638
3.1022 -8.3173 -2.5130 0.9638
3.3972 -8.2015 -2.5131 0.9638
3.6879 -8.0753 -2.5132 0.9638
4.2547 -7.7919 -2.5133 0.9638
4.5302 -7.6352 -2.5133 0.9638
4.7998 -7.4687 -2.5133 0.9638
5.3204 -7.1072 -2.5133 0.9638
5.5706 -6.9127 -2.5133 0.9638
5.8137 -6.7093 -2.5132 0.9638
6.0493 -6.4974 -2.5132 0.9638
6.2772 -6.2772 -2.5131 0.9638
6.7085 -5.8129 -2.5129 0.9638
6.9113 -5.5695 -2.5128 0.9638
7.1053 -5.3190 -2.5126 0.9638
7.2902 -5.0617 -2.5125 0.9638
7.4658 -4.7980 -2.5123 0.9638
8.0701 -3.6855 -2.5116 0.9638
8.1958 -3.3948 -2.5113 0.9638
8.4154 -2.8009 -2.5108 0.9638
8.5092 -2.4985 -2.5106 0.9638
8.6638 -1.8847 -2.5100 0.9638
8.7741 -1.2615 -2.5094 0.9638
8.8124 -0.9474 -2.5091 0.9638
8.8395 -0.6322 -2.5088 0.9638
8.8552 -0.3163 -2.5084 0.9638
-8.1141 0.0000 -2.4957 0.9666
-8.0955 -0.5790 -2.4964 0.9666
-8.0357 -1.1554 -2.4970 0.9666
-7.9905 -1.4416 -2.4974 0.9666
-7.7939 -2.2885 -2.4985 0.9666
-7.6131 -2.8395 -2.4992 0.9666
-7.5080 -3.1099 -2.4996 0.9666
-7.3933 -3.3764 -2.4999 0.9666
-7.1358 -3.8964 -2.5007 0.9665
-6.6814 -4.6390 -2.5018 0.9665
-6.1501 -5.3291 -2.5030 0.9665
-5.9568 -5.5460 -2.5034 0.9665
-5.5477 -5.9586 -2.5041 0.9665
-5.3323 -6.1537 -2.5045 0.9665
-4.8811 -6.5204 -2.5052 0.9665
-4.6459 -6.6914 -2.5056 0.9665
-3.3863 -7.4150 -2.5073 0.9665
-3.1199 -7.5321 -2.5076 0.9665
-2.2977 -7.8254 -2.5085 0.9664
-2.0172 -7.9033 -2.5088 0.9664
-1.1612 -8.0763 -2.5096 0.9664
-0.8723 -8.1134 -2.5099 0.9664
-0.5822 -8.1401 -2.5101 0.9664
-0.2913 -8.1565 -2.5104 0.9664
0.0000 -8.1624 -2.5106 0.9664
0.2914 -8.1579 -2.5108 0.9664
1.1620 -8.0817 -2.5113 0.9664
1.4498 -8.0356 -2.5115 0.9664
2.0196 -7.9126 -2.5118 0.9664
2.3008 -7.8359 -2.5119 0.9664
2.8542 -7.6524 -2.5121 0.9664
4.6585 -6.7096 -2.5124 0.9664
5.1252 -6.3600 -2.5123 0.9664
5.3489 -6.1730 -2.5123 0.9664
6.5374 -4.8939 -2.5118 0.9664
6.7076 -4.6572 -2.5116 0.9664
6.8691 -4.4145 -2.5115 0.9664
7.0219 -4.1663 -2.5113 0.9664
7.1656 -3.9127 -2.5111 0.9664
7.3001 -3.6542 -2.5110 0.9664
7.6470 -2.8522 -2.5103 0.9664
7.7433 -2.5772 -2.5101 0.9664
7.8295 -2.2990 -2.5099 0.9664
7.9058 -2.0178 -2.5096 0.9664
8.0279 -1.4484 -2.5091 0.9664
8.1089 -0.8718 -2.5085 0.9664
-7.5094 0.0000 -2.4962 0.9688
-7.5055 -0.2681 -2.4965 0.9688
-7.4921 -0.5359 -2.4968 0.9688
-7.4366 -1.0692 -2.4974 0.9688
-7.3946 -1.3341 -2.4977 0.9688
-7.3433 -1.5974 -2.4980 0.9688
-7.2125 -2.1178 -2.4987 0.9688
-7.0450 -2.6276 -2.4994 0.9688
-6.9476 -2.8778 -2.4997 0.9688
-6.4710 -3.8394 -2.5011 0.9688
-6.3307 -4.0685 -2.5015 0.9688
-5.6905 -4.9308 -2.5029 0.9688
-5.3257 -5.3257 -2.5036 0.9688
-5.1329 -5.5132 -2.5039 0.9687
-4.7279 -5.8669 -2.5046 0.9687
-4.2984 -6.1909 -2.5053 0.9687
-4.0752 -6.3412 -2.5056 0.9687
-3.8468 -6.4835 -2.5059 0.9687
-3.6134 -6.6175 -2.5062 0.9687
-2.8864 -6.9683 -2.5072 0.9687
-2.6361 -7.0677 -2.5074 0.9687
-2.3825 -7.1581 -2.5077 0.9687
-1.6042 -7.3742 -2.5085 0.9687
-1.3401 -7.4275 -2.5088 0.9687
-0.2695 -7.5453 -2.5097 0.9687
0.5387 -7.5326 -2.5103 0.9687
1.0749 -7.4760 -2.5106 0.9687
1.3411 -7.4333 -2.5108 0.9687
2.3858 -7.1681 -2.5112 0.9687
2.6402 -7.0786 -2.5113 0.9687
3.1386 -6.8726 -2.5115 0.9687
3.6210 -6.6314 -2.5115 0.9687
4.0849 -6.3563 -2.5116 0.9687
4.5280 -6.0487 -2.5116 0.9687
4.9478 -5.7101 -2.5115 0.9687
5.5294 -5.1481 -2.5113 0.9687
5.7095 -4.9473 -2.5112 0.9687
6.2047 -4.3080 -2.5109 0.9687
6.3542 -4.0836 -2.5107 0.9687
6.7530 -3.3803 -2.5103 0.9687
6.9759 -2.8895 -2.5099 0.9687
7.0740 -2.6385 -2.5097 0.9687
7.2430 -2.1267 -2.5093 0.9687
7.3749 -1.6043 -2.5088 0.9687
7.4267 -1.3399 -2.5085 0.9687
7.4690 -1.0739 -2.5083 0.9687
7.5018 -0.8065 -2.5080 0.9687
7.5249 -0.5382 -2.5077 0.9687
7.5385 -0.2692 -2.5074 0.9687
-6.9776 -0.2492 -2.4968 0.9708
-6.9650 -0.4982 -2.4971 0.9708
-6.9436 -0.7465 -2.4974 0.9708
-6.9133 -0.9940 -2.4977 0.9708
-6.8265 -1.4850 -2.4983 0.9708
-6.7699 -1.7279 -2.4986 0.9708
-6.7048 -1.9687 -2.4989 0.9708
-6.4584 -2.6751 -2.4999 0.9707
-6.3596 -2.9043 -2.5002 0.9707
-6.2527 -3.1299 -2.5005 0.9707
-6.0151 -3.5689 -2.5012 0.9707
-5.6013 -4.1931 -2.5021 0.9707
-5.4488 -4.3909 -2.5025 0.9707
-5.2893 -4.5832 -2.5028 0.9707
-5.1230 -4.7697 -2.5031 0.9707
-4.9501 -4.9501 -2.5034 0.9707
-4.3943 -5.4530 -2.5044 0.9707
-4.1974 -5.6071 -2.5047 0.9707
-3.3583 -6.1503 -2.5059 0.9707
-2.9117 -6.3757 -2.5065 0.9707
-2.4500 -6.5686 -2.5070 0.9707
-2.2142 -6.6525 -2.5073 0.9707
-1.9755 -6.7280 -2.5076 0.9707
-1.7343 -6.7949 -2.5078 0.9706
-1.2454 -6.9026 -2.5083 0.9706
-0.9983 -6.9433 -2.5085 0.9706
-0.7499 -6.9751 -2.5087 0.9706
0.0000 -7.0170 -2.5093 0.9706
1.2463 -6.9076 -2.5101 0.9706
1.4921 -6.8591 -2.5102 0.9706
1.7361 -6.8018 -2.5103 0.9706
2.2170 -6.6611 -2.5105 0.9706
3.3649 -6.1624 -2.5108 0.9706
3.5828 -6.0384 -2.5109 0.9706
3.7960 -5.9067 -2.5109 0.9706
4.2077 -5.6208 -2.5109 0.9706
4.4056 -5.4670 -2.5108 0.9706
4.7842 -5.1386 -2.5108 0.9706
5.3057 -4.5974 -2.5105 0.9706
5.4662 -4.4049 -2.5104 0.9706
5.7660 -4.0034 -2.5102 0.9706
5.9049 -3.7948 -2.5101 0.9706
6.0362 -3.5815 -2.5100 0.9706
6.1599 -3.3635 -2.5098 0.9706
6.3833 -2.9152 -2.5095 0.9706
6.4828 -2.6853 -2.5093 0.9706
6.5740 -2.4520 -2.5091 0.9706
6.6568 -2.2156 -2.5089 0.9706
6.7311 -1.9764 -2.5087 0.9706
6.7968 -1.7348 -2.5085 0.9706
6.8537 -1.4909 -2.5083 0.9706
6.9020 -1.2452 -2.5080 0.9706
6.9718 -0.7496 -2.5075 0.9707
6.9934 -0.5002 -2.5073 0.9707
7.0061 -0.2502 -2.5070 0.9707
-6.5156 0.0000 -2.4969 0.9725
-6.5121 -0.2326 -2.4971 0.9725
-6.5003 -0.4649 -2.4974 0.9725
-6.4803 -0.6967 -2.4977 0.9725
-6.4155 -1.1575 -2.4982 0.9725
-6.3180 -1.6126 -2.4988 0.9725
-6.2572 -1.8373 -2.4991 0.9725
-6.1116 -2.2795 -2.4997 0.9724
-5.9348 -2.7103 -2.5003 0.9724
-5.8350 -2.9208 -2.5006 0.9724
-5.6131 -3.3304 -2.5012 0.9724
-5.4914 -3.5291 -2.5015 0.9724
-5.3626 -3.7233 -2.5018 0.9724
-5.0845 -4.0974 -2.5024 0.9724
-4.4518 -4.7816 -2.5036 0.9724
-4.2788 -4.9380 -2.5039 0.9724
-4.1003 -5.0882 -2.5042 0.9724
-3.5341 -5.4992 -2.5051 0.9724
-3.3360 -5.6225 -2.5054 0.9724
-3.1335 -5.7386 -2.5056 0.9724
-2.9270 -5.8474 -2.5059 0.9724
-2.2859 -6.1287 -2.5067 0.9724
-2.0659 -6.2070 -2.5069 0.9724
-1.8432 -6.2774 -2.5072 0.9724
-1.6181 -6.3398 -2.5074 0.9724
-1.3909 -6.3940 -2.5076 0.9724
-0.9314 -6.4781 -2.5080 0.9724
-0.6997 -6.5077 -2.5082 0.9724
-0.4670 -6.5291 -2.5084 0.9723
0.4671 -6.5308 -2.5091 0.9723
1.3921 -6.3992 -2.5097 0.9723
1.6197 -6.3457 -2.5098 0.9723
1.8452 -6.2841 -2.5099 0.9723
2.5066 -6.0514 -2.5101 0.9723
2.9320 -5.8574 -2.5102 0.9723
3.3425 -5.6335 -2.5102 0.9723
3.7359 -5.3807 -2.5103 0.9723
3.9255 -5.2439 -2.5102 0.9723
4.1102 -5.1004 -2.5102 0.9723
4.6316 -4.6316 -2.5101 0.9723
4.7938 -4.4632 -2.5100 0.9723
5.0997 -4.1096 -2.5099 0.9723
5.3794 -3.7350 -2.5097 0.9723
5.6316 -3.3414 -2.5094 0.9723
5.8549 -2.9308 -2.5091 0.9723
6.2801 -1.8440 -2.5082 0.9724
6.3946 -1.3911 -2.5078 0.9724
6.4396 -1.1618 -2.5076 0.9724
6.5251 -0.4667 -2.5069 0.9724
6.5369 -0.2335 -2.5067 0.9724
-6.1015 0.0000 -2.4972 0.9740
-6.0871 -0.4354 -2.4977 0.9740
-6.0683 -0.6524 -2.4979 0.9740
-6.0076 -1.0839 -2.4984 0.9740
-5.9657 -1.2977 -2.4987 0.9740
-5.8592 -1.7204 -2.4992 0.9740
-5.7947 -1.9286 -2.4995 0.9739
-5.7228 -2.1345 -2.4998 0.9739
-5.6436 -2.3376 -2.5001 0.9739
-5.5572 -2.5379 -2.5004 0.9739
-5.2558 -3.1184 -2.5012 0.9739
-4.8941 -3.6636 -2.5021 0.9739
-4.6213 -4.0044 -2.5026 0.9739
-4.4759 -4.1672 -2.5029 0.9739
-4.1682 -4.4769 -2.5035 0.9739
-3.4901 -5.0268 -2.5046 0.9739
-3.1233 -5.2640 -2.5051 0.9739
-2.9337 -5.3727 -2.5054 0.9739
-2.7404 -5.4746 -2.5056 0.9739
-2.5435 -5.5694 -2.5059 0.9739
-2.3433 -5.6572 -2.5061 0.9739
-1.9341 -5.8110 -2.5066 0.9739
-1.7256 -5.8769 -2.5068 0.9739
-1.3022 -5.9860 -2.5072 0.9739
-1.0878 -6.0292 -2.5074 0.9739
-0.8720 -6.0647 -2.5076 0.9739
-0.4372 -6.1123 -2.5080 0.9739
-0.2187 -6.1244 -2.5082 0.9739
0.2188 -6.1252 -2.5085 0.9739
0.4373 -6.1139 -2.5086 0.9739
0.6553 -6.0947 -2.5088 0.9739
0.8724 -6.0677 -2.5089 0.9739
1.0885 -6.0330 -2.5090 0.9739
1.3032 -5.9906 -2.5091 0.9739
1.5162 -5.9405 -2.5092 0.9738
1.7273 -5.8828 -2.5093 0.9738
1.9363 -5.8176 -2.5094 0.9738
2.3465 -5.6649 -2.5096 0.9738
3.1290 -5.2736 -2.5097 0.9738
3.3152 -5.1586 -2.5097 0.9738
3.8476 -4.7746 -2.5097 0.9738
4.1783 -4.4878 -2.5096 0.9738
4.3358 -4.3358 -2.5095 0.9738
4.4876 -4.1781 -2.5095 0.9738
4.6338 -4.0152 -2.5094 0.9738
4.7740 -3.8471 -2.5093 0.9738
5.1572 -3.3144 -2.5090 0.9739
5.3800 -2.9377 -2.5088 0.9739
5.7419 -2.1416 -2.5082 0.9739
5.8143 -1.9352 -2.5080 0.9739
6.0899 -0.6547 -2.5068 0.9739
-5.7305 0.0000 -2.4975 0.9753
-5.6993 -0.6127 -2.4981 0.9753
-5.6743 -0.8158 -2.4984 0.9753
-5.6421 -1.0179 -2.4986 0.9753
-5.6028 -1.2188 -2.4989 0.9753
-5.5562 -1.4181 -2.4991 0.9753
-5.4420 -1.8113 -2.4996 0.9753
-5.3745 -2.0046 -2.4999 0.9753
-5.3001 -2.1954 -2.5002 0.9753
-5.2189 -2.3834 -2.5004 0.9753
-5.1310 -2.5684 -2.5007 0.9753
-4.7153 -3.2739 -2.5018 0.9753
-4.3397 -3.7604 -2.5026 0.9753
-3.9141 -4.2041 -2.5034 0.9752
-3.7620 -4.3416 -2.5036 0.9752
-3.4434 -4.5998 -2.5042 0.9752
-3.2773 -4.7203 -2.5044 0.9752
-2.9328 -4.9430 -2.5049 0.9752
-2.5732 -5.1406 -2.5054 0.9752
-1.0214 -5.6612 -2.5071 0.9752
-0.8187 -5.6945 -2.5073 0.9752
-0.6150 -5.7205 -2.5075 0.9752
-0.4105 -5.7392 -2.5076 0.9752
-0.2054 -5.7505 -2.5078 0.9752
0.0000 -5.7546 -2.5079 0.9752
0.6152 -5.7225 -2.5084 0.9752
1.6218 -5.5235 -2.5089 0.9752
2.0119 -5.3940 -2.5090 0.9752
2.2032 -5.3189 -2.5091 0.9752
2.5771 -5.1484 -2.5092 0.9752
3.2836 -4.7293 -2.5092 0.9752
3.4503 -4.6091 -2.5092 0.9752
3.7703 -4.3511 -2.5092 0.9752
4.0709 -4.0709 -2.5091 0.9752
4.4824 -3.6121 -2.5089 0.9752
4.8423 -3.1120 -2.5086 0.9752
5.1464 -2.5761 -2.5082 0.9752
5.3914 -2.0109 -2.5078 0.9752
5.4594 -1.8171 -2.5076 0.9752
5.5204 -1.6209 -2.5074 0.9752
5.5743 -1.4228 -2.5073 0.9752
5.6211 -1.2228 -2.5071 0.9752
5.6608 -1.0213 -2.5069 0.9752
5.6932 -0.8185 -2.5067 0.9752
5.7361 -0.4103 -2.5063 0.9752
-5.3429 -0.7682 -2.4986 0.9765
-5.3126 -0.9585 -2.4988 0.9765
-5.2755 -1.1476 -2.4990 0.9765
-5.2316 -1.3353 -2.4993 0.9765
-5.1811 -1.5213 -2.4995 0.9765
-5.1240 -1.7054 -2.4998 0.9765
-4.9903 -2.0671 -2.5003 0.9765
-4.6472 -2.7573 -2.5013 0.9765
-4.5463 -2.9217 -2.5015 0.9765
-4.4396 -3.0824 -2.5018 0.9765
-3.9573 -3.6844 -2.5028 0.9764
-3.8237 -3.8237 -2.5030 0.9764
-3.5418 -4.0875 -2.5035 0.9764
-3.3940 -4.2117 -2.5038 0.9764
-3.2418 -4.3306 -2.5040 0.9764
-3.0855 -4.4440 -2.5043 0.9764
-2.7611 -4.6536 -2.5047 0.9764
-2.5935 -4.7496 -2.5049 0.9764
-2.4225 -4.8396 -2.5052 0.9764
-2.2485 -4.9234 -2.5054 0.9764
-1.5254 -5.1950 -2.5062 0.9764
-0.3864 -5.4028 -2.5073 0.9764
0.1934 -5.4141 -2.5077 0.9764
0.3865 -5.4040 -2.5078 0.9764
0.5792 -5.3871 -2.5080 0.9764
0.7711 -5.3632 -2.5081 0.9764
0.9621 -5.3325 -2.5082 0.9764
1.3401 -5.2506 -2.5084 0.9764
1.7114 -5.1420 -2.5085 0.9764
1.8939 -5.0777 -2.5086 0.9764
2.0740 -5.0070 -2.5086 0.9764
2.4260 -4.8465 -2.5087 0.9764
2.5974 -4.7568 -2.5087 0.9764
3.0911 -4.4520 -2.5088 0.9764
3.2480 -4.3388 -2.5088 0.9764
3.4007 -4.2201 -2.5087 0.9764
3.5492 -4.0960 -2.5087 0.9764
4.0956 -3.5489 -2.5085 0.9764
4.3381 -3.2475 -2.5084 0.9764
4.4511 -3.0904 -2.5083 0.9764
4.6599 -2.7648 -2.5081 0.9764
4.9280 -2.2505 -2.5077 0.9764
5.0754 -1.8930 -2.5074 0.9764
5.1969 -1.5259 -2.5071 0.9764
5.4001 -0.3862 -2.5060 0.9764
-5.0924 0.0000 -2.4979 0.9776
-5.0895 -0.1818 -2.4981 0.9776
-5.0802 -0.3633 -2.4983 0.9776
-5.0644 -0.5445 -2.4985 0.9776
-5.0422 -0.7250 -2.4988 0.9776
-5.0135 -0.9045 -2.4990 0.9776
-4.9785 -1.0830 -2.4992 0.9776
-4.8895 -1.4357 -2.4996 0.9776
-4.7755 -1.7811 -2.5001 0.9775
-4.7093 -1.9506 -2.5003 0.9775
-4.2901 -2.7571 -2.5015 0.9775
-4.1894 -2.9088 -2.5018 0.9775
-3.8556 -3.3409 -2.5025 0.9775
-3.7342 -3.4767 -2.5027 0.9775
-3.6081 -3.6081 -2.5030 0.9775
-3.4773 -3.7349 -2.5032 0.9775
-3.0590 -4.0864 -2.5039 0.9775
-2.6054 -4.3911 -2.5045 0.9775
-2.4472 -4.4817 -2.5048 0.9775
-2.2859 -4.5666 -2.5050 0.9775
-1.7850 -4.7859 -2.5056 0.9775
-1.2635 -4.9504 -2.5061 0.9775
-1.0861 -4.9927 -2.5063 0.9775
-0.5463 -5.0812 -2.5068 0.9775
-0.1824 -5.1078 -2.5071 0.9775
0.3647 -5.0988 -2.5075 0.9775
0.5465 -5.0828 -2.5076 0.9775
0.9077 -5.0313 -2.5078 0.9775
1.0868 -4.9959 -2.5079 0.9775
1.7869 -4.7909 -2.5082 0.9775
1.9568 -4.7242 -2.5082 0.9775
2.1242 -4.6514 -2.5083 0.9775
2.7646 -4.3019 -2.5084 0.9775
3.0645 -4.0937 -2.5084 0.9775
3.2086 -3.9817 -2.5083 0.9775
3.3487 -3.8646 -2.5083 0.9775
3.4844 -3.7425 -2.5083 0.9775
4.0931 -3.0640 -2.5080 0.9775
4.1997 -2.9159 -2.5079 0.9775
4.3009 -2.7640 -2.5078 0.9775
4.3966 -2.6086 -2.5077 0.9775
4.6497 -2.1234 -2.5074 0.9775
4.7222 -1.9560 -2.5072 0.9775
4.8492 -1.6140 -2.5069 0.9775
4.9930 -1.0862 -2.5065 0.9775
5.0571 -0.7271 -2.5061 0.9775
5.0794 -0.5461 -2.5059 0.9775
5.0953 -0.3644 -2.5058 0.9775
5.1047 -0.1823 -2.5056 0.9775
-4.8154 0.0000 -2.4981 0.9785
-4.8127 -0.1719 -2.4983 0.9785
-4.8039 -0.3436 -2.4985 0.9785
-4.7889 -0.5149 -2.4987 0.9785
-4.7679 -0.6855 -2.4989 0.9785
-4.7408 -0.8553 -2.4991 0.9785
-4.7076 -1.0241 -2.4993 0.9785
-4.6233 -1.3575 -2.4997 0.9785
-4.5723 -1.5218 -2.5000 0.9785
-4.4529 -1.8445 -2.5004 0.9785
-4.3107 -2.1578 -2.5009 0.9785
-4.1466 -2.4603 -2.5013 0.9785
-3.9612 -2.7503 -2.5018 0.9785
-3.8609 -2.8902 -2.5020 0.9785
-3.6455 -3.1589 -2.5024 0.9785
-3.4115 -3.4115 -2.5029 0.9785
-3.1600 -3.6468 -2.5033 0.9785
-3.0281 -3.7576 -2.5035 0.9785
-2.7528 -3.9647 -2.5040 0.9785
-2.6097 -4.0608 -2.5042 0.9785
-2.4633 -4.1517 -2.5044 0.9785
-2.3137 -4.2373 -2.5046 0.9785
-2.1612 -4.3175 -2.5048 0.9785
-1.8480 -4.4614 -2.5052 0.9785
-1.6877 -4.5248 -2.5054 0.9785
-1.3608 -4.6344 -2.5057 0.9785
-1.1946 -4.6803 -2.5059 0.9785
-0.6876 -4.7821 -2.5064 0.9785
-0.5165 -4.8039 -2.5065 0.9785
-0.3447 -4.8195 -2.5067 0.9785
-0.1725 -4.8290 -2.5068 0.9785
0.1725 -4.8295 -2.5070 0.9785
0.8582 -4.7566 -2.5075 0.9785
1.0274 -4.7231 -2.5076 0.9785
1.1954 -4.6836 -2.5076 0.9785
1.3619 -4.6381 -2.5077 0.9785
1.6893 -4.5293 -2.5078 0.9785
2.4669 -4.1577 -2.5080 0.9785
2.6137 -4.0670 -2.5080 0.9785
2.8972 -3.8701 -2.5080 0.9785
3.1658 -3.6535 -2.5079 0.9785
3.2942 -3.5382 -2.5079 0.9785
3.5380 -3.2940 -2.5078 0.9785
3.9704 -2.7567 -2.5076 0.9785
4.1566 -2.4662 -2.5074 0.9785
4.3216 -2.1632 -2.5072 0.9785
4.4645 -1.8493 -2.5069 0.9785
4.5275 -1.6886 -2.5068 0.9785
4.5846 -1.5259 -2.5067 0.9785
4.6812 -1.1948 -2.5064 0.9785
4.7206 -1.0269 -2.5062 0.9785
4.7539 -0.8577 -2.5060 0.9785
4.7812 -0.6874 -2.5059 0.9785
4.8023 -0.5163 -2.5057 0.9785
4.8174 -0.3445 -2.5055 0.9785
-4.5614 0.0000 -2.4983 0.9794
-4.3794 -1.2859 -2.4998 0.9794
-4.3310 -1.4415 -2.5001 0.9794
-4.2772 -1.5953 -2.5003 0.9794
-4.0080 -2.1885 -2.5011 0.9794
-3.6570 -2.7376 -2.5020 0.9794
-3.4529 -2.9920 -2.5024 0.9794
-3.3442 -3.1136 -2.5026 0.9794
-3.1141 -3.3448 -2.5030 0.9794
-2.8680 -3.5590 -2.5034 0.9794
-2.4718 -3.8461 -2.5040 0.9794
-1.7502 -4.2255 -2.5050 0.9794
-1.5984 -4.2856 -2.5052 0.9794
-0.8124 -4.5027 -2.5060 0.9793
-0.6512 -4.5291 -2.5061 0.9793
-0.3265 -4.5645 -2.5064 0.9793
0.0000 -4.5767 -2.5066 0.9793
0.3265 -4.5654 -2.5069 0.9793
1.1321 -4.4357 -2.5073 0.9793
1.2898 -4.3926 -2.5074 0.9793
1.4458 -4.3438 -2.5074 0.9793
1.5999 -4.2895 -2.5075 0.9793
1.7520 -4.2298 -2.5075 0.9793
1.9019 -4.1646 -2.5076 0.9793
2.0494 -4.0941 -2.5076 0.9793
2.1942 -4.0184 -2.5076 0.9793
2.6112 -3.7609 -2.5077 0.9793
2.8728 -3.5650 -2.5076 0.9793
3.1198 -3.3509 -2.5076 0.9793
3.2373 -3.2373 -2.5075 0.9793
3.3508 -3.1197 -2.5075 0.9793
3.4599 -2.9980 -2.5074 0.9793
3.5646 -2.8725 -2.5074 0.9793
3.6648 -2.7434 -2.5073 0.9793
3.7602 -2.6108 -2.5072 0.9793
3.8509 -2.4748 -2.5072 0.9793
3.9366 -2.3357 -2.5071 0.9793
4.0173 -2.1936 -2.5070 0.9793
4.0929 -2.0488 -2.5069 0.9793
4.1633 -1.9013 -2.5068 0.9793
4.2283 -1.7514 -2.5066 0.9793
4.4335 -1.1316 -2.5061 0.9793
4.4708 -0.9726 -2.5060 0.9793
4.5483 -0.4890 -2.5055 0.9794
4.5626 -0.3263 -2.5053 0.9794
-4.3171 -0.3088 -2.4988 0.9802
-4.3036 -0.4627 -2.4990 0.9802
-3.8736 -1.9390 -2.5009 0.9802
-3.8022 -2.0762 -2.5011 0.9802
-3.6450 -2.3425 -2.5015 0.9802
-3.5593 -2.4713 -2.5017 0.9802
-3.4692 -2.5970 -2.5019 0.9802
-3.3745 -2.7194 -2.5022 0.9802
-3.1724 -2.9536 -2.5026 0.9802
-3.0652 -3.0652 -2.5028 0.9802
-2.9541 -3.1729 -2.5030 0.9802
-2.8392 -3.2766 -2.5032 0.9802
-2.5986 -3.4714 -2.5035 0.9802
-2.3447 -3.6485 -2.5039 0.9802
-2.0788 -3.8070 -2.5043 0.9802
-1.9417 -3.8790 -2.5045 0.9802
-1.6603 -4.0082 -2.5048 0.9802
-1.5162 -4.0652 -2.5050 0.9802
-1.3703 -4.1170 -2.5051 0.9802
-1.0732 -4.2048 -2.5055 0.9802
-0.6177 -4.2962 -2.5059 0.9802
-0.4640 -4.3157 -2.5060 0.9802
-0.1549 -4.3382 -2.5063 0.9801
-0.0000 -4.3412 -2.5064 0.9801
0.1550 -4.3386 -2.5065 0.9801
0.3097 -4.3305 -2.5066 0.9801
0.4641 -4.3169 -2.5067 0.9801
0.6179 -4.2977 -2.5068 0.9801
0.7709 -4.2731 -2.5069 0.9801
1.5176 -4.0688 -2.5072 0.9801
1.9439 -3.8834 -2.5073 0.9801
2.3479 -3.6534 -2.5074 0.9801
3.0707 -3.0707 -2.5072 0.9801
3.5667 -2.4764 -2.5070 0.9801
3.6527 -2.3475 -2.5069 0.9801
3.7341 -2.2155 -2.5068 0.9801
3.8106 -2.0808 -2.5067 0.9801
3.8823 -1.9434 -2.5066 0.9801
3.9491 -1.8035 -2.5065 0.9801
4.1647 -1.2229 -2.5060 0.9802
4.3280 -0.3095 -2.5051 0.9802
4.3360 -0.1549 -2.5050 0.9802
