ply
format ascii 1.0
element vertex 1304
property float32 x
property float32 y
property float32 z
property float32 I
end_header
41.3268 4.4431 7.3290 0.8447
21.1876 7.0519 3.9374 0.9133
32.4869 13.4565 6.2003 0.8669
31.3045 14.2963 6.0682 0.8695
24.0670 15.4669 5.0444 0.8903
21.2219 15.8865 4.6743 0.8979
19.9459 16.0734 4.5168 0.9012
18.7535 16.2500 4.3755 0.9041
17.3111 16.1172 4.1706 0.9084
15.5732 16.7268 4.0298 0.9114
10.3433 17.4327 3.5742 0.9210
11.7059 23.3853 4.6112 0.8992
10.9730 24.0276 4.6576 0.8983
7.5128 18.1375 3.4616 0.9234
5.9243 17.7998 3.3079 0.9266
5.2555 17.8987 3.2893 0.9270
2.0064 9.2230 1.6643 0.9624
2.0561 19.1243 3.3916 0.9248
-2.1341 19.8505 3.5203 0.9221
-3.6069 25.0863 4.4689 0.9022
-3.6040 19.9757 3.5791 0.9209
-5.0448 19.7654 3.5969 0.9205
-5.7319 19.5212 3.5874 0.9207
41.2719 4.4372 6.3591 0.8454
21.1951 7.0544 3.4221 0.9136
36.5305 13.6252 5.9729 0.8540
27.4169 14.9708 4.7855 0.8813
24.0634 15.4646 4.3820 0.8907
22.1765 15.3974 4.1359 0.8965
21.1847 15.8586 4.0539 0.8984
18.8355 16.3211 3.8181 0.9041
17.3101 16.1162 3.6232 0.9087
16.3726 16.3727 3.5471 0.9106
15.1045 17.4315 3.5335 0.9109
18.1218 22.4878 4.4244 0.8897
12.9521 17.3020 3.3110 0.9163
11.4441 16.4827 3.0740 0.9220
10.9602 17.0545 3.1057 0.9212
10.4041 17.5352 3.1235 0.9208
10.9461 23.9687 4.0366 0.8989
6.7352 18.0578 2.9525 0.9250
5.9241 17.7989 2.8738 0.9269
2.3947 9.3824 1.4834 0.9616
1.7023 9.4352 1.4688 0.9619
1.3533 18.9216 2.9061 0.9261
0.6635 18.5770 2.8477 0.9275
0.0000 18.6719 2.8604 0.9272
-1.3849 19.3633 2.9739 0.9244
-3.6863 25.6390 3.9681 0.9005
-4.3403 24.0568 3.7449 0.9058
-4.3260 19.8862 3.1177 0.9209
-5.0443 19.7636 3.1247 0.9208
-12.8369 11.9516 2.6869 0.9315
-13.9915 12.1237 2.8361 0.9278
45.8833 11.7110 6.1665 0.8261
43.0953 12.6539 5.8488 0.8343
21.2026 7.0569 2.9099 0.9138
33.1067 13.7133 4.6664 0.8654
28.8024 14.4175 4.1943 0.8782
27.4127 14.9685 4.0672 0.8816
24.1013 15.4890 3.7307 0.8909
21.3094 15.9520 3.4663 0.8982
26.8921 21.6710 4.4975 0.8700
25.2844 21.9091 4.3567 0.8738
19.7451 22.7871 3.9264 0.8855
10.9597 17.0536 2.6398 0.9215
5.9238 17.7981 2.4427 0.9271
5.2550 17.8970 2.4290 0.9275
1.7025 9.4362 1.2486 0.9621
3.7084 25.7922 3.3932 0.9002
2.7390 25.4767 3.3367 0.9018
0.6634 18.5762 2.4205 0.9278
-3.2934 30.6327 4.0120 0.8831
-4.3807 24.2806 3.2129 0.9053
-5.0370 19.7347 2.6522 0.9211
-5.7314 19.5192 2.6491 0.9212
-18.5651 12.8899 2.9431 0.9129
41.2250 4.4322 4.4523 0.8464
47.1961 12.0461 5.2305 0.8220
21.2100 7.0594 2.4004 0.9140
28.8001 14.4163 3.4584 0.8785
27.4250 14.9752 3.3554 0.8819
17.3080 16.1144 2.5394 0.9092
20.1271 23.2279 3.3004 0.8837
11.4514 16.4932 2.1561 0.9224
10.9591 17.0528 2.1767 0.9217
10.2856 17.3355 2.1645 0.9221
9.6885 17.7432 2.1708 0.9219
11.0658 24.2308 2.8604 0.8984
7.3618 17.7729 2.0657 0.9255
5.9235 17.7973 2.0142 0.9273
5.2548 17.8962 2.0029 0.9277
2.3970 9.3912 1.0408 0.9618
1.7027 9.4372 1.0297 0.9622
3.7082 25.7910 2.7980 0.9005
2.7588 25.6609 2.7714 0.9014
1.3355 18.6723 2.0102 0.9275
-0.6704 18.7693 2.0168 0.9272
-1.3638 19.0688 2.0529 0.9260
-3.2893 30.5950 3.3043 0.8836
-4.3972 24.3722 2.6594 0.9052
-4.2388 19.4857 2.1413 0.9229
-5.7311 19.5183 2.1844 0.9214
-10.0196 11.5632 1.6430 0.9403
41.2135 4.4309 3.5089 0.8467
43.3971 12.7425 3.8288 0.8340
21.2173 7.0618 1.8930 0.9141
28.7979 14.4152 2.7261 0.8787
22.7275 14.6061 2.2870 0.8972
18.5950 16.1127 2.0829 0.9060
17.3070 16.1134 2.0018 0.9094
16.3711 16.3711 1.9599 0.9112
15.4342 16.5775 1.9174 0.9131
15.4936 17.8805 2.0028 0.9094
18.2163 22.6050 2.4576 0.8900
12.7733 17.0632 1.8043 0.9180
11.4430 16.4811 1.6985 0.9226
10.3403 17.4276 1.7154 0.9219
10.8808 23.8255 2.2173 0.9002
7.3947 17.8524 1.6358 0.9254
6.7020 17.9689 1.6235 0.9259
5.2545 17.8954 1.5788 0.9279
2.0072 9.2269 0.7993 0.9628
2.6972 25.0877 2.1360 0.9037
-0.6703 18.7685 1.5898 0.9274
-4.2581 19.5741 1.6958 0.9227
-5.7308 19.5173 1.7219 0.9216
-10.0188 11.5623 1.2951 0.9404
41.2020 4.4297 2.5697 0.8470
21.2247 7.0642 1.3871 0.9143
34.0803 12.7113 2.2555 0.8644
33.3037 13.7949 2.2353 0.8655
32.3270 14.7633 2.2038 0.8673
21.1337 15.8205 1.6370 0.8996
17.3061 16.1125 1.4663 0.9096
16.3706 16.3706 1.4356 0.9114
15.5040 16.6525 1.4109 0.9128
11.7568 16.9330 1.2783 0.9207
10.9581 17.0511 1.2569 0.9220
10.3390 17.4254 1.2564 0.9220
9.8640 18.0646 1.2763 0.9208
10.9405 23.9563 1.6331 0.8998
5.2543 17.8946 1.1565 0.9280
2.0074 9.2279 0.5856 0.9629
1.7030 9.4392 0.5948 0.9623
3.6817 25.6066 1.6042 0.9015
2.7061 25.1708 1.5698 0.9035
-1.3697 19.1515 1.1906 0.9259
-3.6873 25.6457 1.6066 0.9014
-4.3139 23.9102 1.5066 0.9072
-5.0285 19.7015 1.2609 0.9217
41.1906 4.4285 1.6336 0.8472
45.4828 11.6088 1.8509 0.8287
43.7053 12.8330 1.7961 0.8333
21.2320 7.0667 0.8824 0.9143
34.1098 12.7223 1.4355 0.8644
32.4697 14.8284 1.4075 0.8668
28.7934 14.4130 1.2696 0.8791
27.3147 14.9150 1.2272 0.8829
23.9712 15.4053 1.1236 0.8922
22.1692 15.3924 1.0642 0.8976
27.4184 22.0951 1.3885 0.8685
17.3051 16.1116 0.9323 0.9097
15.5018 16.6501 0.8970 0.9130
11.7562 16.9321 0.8128 0.9208
10.9575 17.0503 0.7992 0.9221
10.3377 17.4233 0.7988 0.9221
9.8647 18.0659 0.8116 0.9209
11.7897 23.5528 1.0386 0.8999
10.9392 23.9535 1.0383 0.9000
5.9227 17.7949 0.7395 0.9277
5.2541 17.8938 0.7354 0.9281
2.0076 9.2288 0.3724 0.9629
1.7032 9.4402 0.3782 0.9623
3.7181 25.8599 1.0302 0.9007
2.7058 25.1679 0.9981 0.9036
1.3411 18.7515 0.7413 0.9275
0.6633 18.5728 0.7328 0.9283
0.0000 18.6676 0.7361 0.9280
-0.6703 18.7668 0.7405 0.9276
-1.3696 19.1493 0.7570 0.9260
-3.2675 30.3920 1.2053 0.8848
-3.6875 25.6473 1.0217 0.9015
-4.3138 23.9100 0.9580 0.9073
-4.2570 19.5693 0.7897 0.9230
-41.2374 22.5173 1.8526 0.8285
21.2393 7.0691 0.3781 0.9143
38.1404 14.2256 0.6876 0.8497
23.9671 15.4028 0.4813 0.8923
22.1678 15.3914 0.4558 0.8977
21.1268 15.8154 0.4458 0.8998
17.3041 16.1107 0.3994 0.9098
16.3696 16.3696 0.3910 0.9115
15.4997 16.6478 0.3842 0.9130
19.6362 22.6614 0.5065 0.8870
11.7556 16.9313 0.3482 0.9208
10.9570 17.0494 0.3423 0.9221
10.3365 17.4212 0.3422 0.9222
11.7891 23.5517 0.4449 0.9000
7.3921 17.8461 0.3263 0.9256
5.9224 17.7941 0.3168 0.9277
2.4014 9.4085 0.1640 0.9619
2.0078 9.2298 0.1596 0.9629
1.7034 9.4412 0.1621 0.9623
3.7179 25.8587 0.4413 0.9008
2.7055 25.1651 0.4275 0.9037
-1.3694 19.1471 0.3243 0.9261
-4.3138 23.9099 0.4104 0.9074
-5.0273 19.6967 0.3434 0.9219
-41.1325 22.4600 0.7914 0.8290
41.1678 4.4260 -0.2331 0.8474
43.7074 12.8336 -0.2565 0.8334
33.3016 13.7940 -0.2029 0.8657
32.4709 14.8290 -0.2010 0.8669
28.7889 14.4107 -0.1813 0.8792
27.3043 14.9093 -0.1752 0.8830
22.1663 15.3904 -0.1519 0.8977
27.4942 22.1562 -0.1988 0.8683
16.3691 16.3691 -0.1303 0.9116
18.2125 22.6004 -0.1634 0.8904
11.7550 16.9305 -0.1160 0.9209
10.9564 17.0486 -0.1141 0.9221
10.3352 17.4190 -0.1140 0.9222
7.3913 17.8441 -0.1087 0.9257
6.6990 17.9606 -0.1079 0.9262
5.9222 17.7933 -0.1056 0.9277
5.2536 17.8922 -0.1050 0.9281
2.4025 9.4129 -0.0547 0.9619
1.7036 9.4422 -0.0540 0.9623
3.7178 25.8576 -0.1471 0.9008
2.7052 25.1622 -0.1425 0.9037
0.0000 18.6659 -0.1051 0.9281
-4.3138 23.9097 -0.1368 0.9074
-9.9248 11.4538 -0.0853 0.9412
45.3122 1.6184 -1.2767 0.8341
41.1564 4.4248 -1.1656 0.8474
43.7086 12.8340 -1.2827 0.8334
33.3009 13.7937 -1.0149 0.8657
21.1200 15.8103 -0.7429 0.8998
27.4935 22.1556 -0.9943 0.8682
17.3021 16.1088 -0.6656 0.9097
18.2116 22.5992 -0.8172 0.8903
12.7652 17.0523 -0.5998 0.9183
11.7544 16.9296 -0.5803 0.9208
10.3339 17.4169 -0.5702 0.9222
11.7880 23.5495 -0.7415 0.9000
10.9353 23.9450 -0.7412 0.9000
5.9219 17.7924 -0.5280 0.9277
2.0082 9.2317 -0.2660 0.9629
0.6632 18.5703 -0.5232 0.9283
-1.3691 19.1427 -0.5404 0.9261
-3.2654 30.3728 -0.8602 0.8849
-4.2555 19.5621 -0.5637 0.9230
-9.4515 28.3971 -0.8427 0.8871
-10.0185 11.5619 -0.4308 0.9406
41.9635 3.0013 -2.1336 0.8449
47.1002 6.7720 -2.4132 0.8265
46.8841 8.4589 -2.4161 0.8263
46.6060 10.1385 -2.4189 0.8261
21.2614 7.0765 -1.1364 0.9142
26.8505 15.9312 -1.5834 0.8825
21.1166 15.8077 -1.3377 0.8997
18.6629 16.1715 -1.2524 0.9058
17.3011 16.1079 -1.1988 0.9097
16.3681 16.3681 -1.1739 0.9115
18.2106 22.5980 -1.4718 0.8903
11.7538 16.9288 -1.0452 0.9208
11.7875 23.5484 -1.3355 0.8999
10.9340 23.9422 -1.3348 0.8999
6.6974 17.9565 -0.9719 0.9261
5.2531 17.8905 -0.9456 0.9280
2.4047 9.4216 -0.4931 0.9618
1.7039 9.4442 -0.4867 0.9623
3.7174 25.8553 -1.3247 0.9007
1.3405 18.7430 -0.9530 0.9275
-0.0000 18.6642 -0.9465 0.9280
-0.6701 18.7634 -0.9522 0.9276
-1.3690 19.1405 -0.9732 0.9260
-3.2647 30.3664 -1.5489 0.8849
-4.3138 23.9095 -1.2321 0.9073
-5.0254 19.6894 -1.0305 0.9218
-10.0185 11.5620 -0.7758 0.9406
-31.9400 34.3059 -2.3771 0.8288
-33.0954 33.0954 -2.3736 0.8291
-35.2670 30.5590 -2.3666 0.8295
-40.2340 21.9694 -2.3248 0.8323
-41.2916 20.6690 -2.3418 0.8312
-41.9401 19.1534 -2.3383 0.8314
-42.5337 17.6180 -2.3348 0.8316
-43.0717 16.0649 -2.3313 0.8318
-47.2219 12.0527 -2.4716 0.8227
-47.5547 10.3449 -2.4681 0.8229
-47.8264 8.6288 -2.4646 0.8231
-48.0377 6.9068 -2.4612 0.8233
-48.2778 3.4529 -2.4546 0.8238
34.6317 0.0000 -2.5393 0.8703
34.5672 2.4723 -2.5410 0.8702
32.4234 3.4859 -2.3911 0.8774
32.1452 5.7996 -2.3950 0.8772
31.6988 8.0906 -2.3987 0.8770
31.4130 9.2237 -2.4005 0.8769
30.3089 12.5544 -2.4054 0.8767
29.8602 13.6371 -2.4069 0.8766
28.2852 14.1586 -2.3193 0.8809
27.2030 14.8539 -2.2726 0.8831
23.8795 15.3464 -2.0813 0.8924
22.1620 15.3874 -1.9782 0.8974
21.0496 15.7575 -1.9279 0.8999
21.1766 17.0652 -1.9941 0.8967
17.3001 16.1070 -1.7331 0.9096
16.3676 16.3676 -1.6972 0.9113
15.5312 17.9239 -1.7390 0.9093
12.7619 17.0479 -1.5614 0.9181
10.9548 17.0461 -1.4857 0.9219
10.3314 17.4126 -1.4845 0.9220
9.8682 18.0723 -1.5098 0.9207
10.9084 23.8860 -1.9254 0.9000
7.3887 17.8378 -1.4157 0.9255
6.6967 17.9544 -1.4050 0.9260
5.9214 17.7908 -1.3748 0.9276
5.2529 17.8897 -1.3671 0.9279
2.4058 9.4260 -0.7133 0.9617
2.0099 9.2391 -0.6933 0.9628
1.7041 9.4452 -0.7037 0.9622
2.6984 25.0984 -1.8509 0.9037
0.6632 18.5686 -1.3624 0.9282
-0.6701 18.7625 -1.3766 0.9275
-3.2381 30.1184 -2.2211 0.8856
-3.6887 25.6556 -1.9005 0.9013
-4.3030 23.8501 -1.7770 0.9074
-4.2544 19.5573 -1.4675 0.9229
-5.0248 19.6869 -1.4898 0.9217
-5.7288 19.5106 -1.4910 0.9217
-12.1433 32.5575 -2.5478 0.8699
-13.2865 32.0764 -2.5457 0.8700
-15.5138 30.9926 -2.5412 0.8702
-16.5952 30.3918 -2.5390 0.8703
-17.6531 29.7527 -2.5366 0.8704
-18.6862 29.0763 -2.5342 0.8706
-19.6933 28.3638 -2.5318 0.8707
-20.6731 27.6161 -2.5294 0.8708
-21.6244 26.8343 -2.5269 0.8709
-24.2956 24.2956 -2.5193 0.8713
-25.9137 22.4544 -2.5141 0.8715
-27.3927 20.5059 -2.5089 0.8718
-28.0779 19.4948 -2.5063 0.8719
-28.7259 18.4610 -2.5037 0.8720
-29.3358 17.4057 -2.5011 0.8721
-29.9072 16.3306 -2.4985 0.8723
-30.4394 15.2368 -2.4959 0.8724
-30.9318 14.1261 -2.4933 0.8725
-31.3839 12.9996 -2.4907 0.8726
-33.0267 7.1845 -2.4782 0.8732
-33.3905 4.8008 -2.4734 0.8735
-33.6187 1.2007 -2.4666 0.8738
26.3548 0.0000 -2.5302 0.8995
26.3233 1.8827 -2.5336 0.8994
26.2564 2.8229 -2.5353 0.8993
26.1150 3.7548 -2.5329 0.8994
24.4374 4.4090 -2.3840 0.9050
20.5079 6.8257 -2.0751 0.9168
20.6125 7.6881 -2.1121 0.9154
23.0175 9.5342 -2.3919 0.9047
13.8367 6.3190 -1.4604 0.9407
21.0035 13.4981 -2.3969 0.9045
20.5155 14.2442 -2.3978 0.9045
20.0004 14.9722 -2.3986 0.9045
19.4591 15.6811 -2.3993 0.9045
18.6027 16.1194 -2.3632 0.9058
15.6999 19.4823 -2.4021 0.9043
11.7527 16.9271 -1.9784 0.9205
9.7762 17.9038 -1.9584 0.9213
11.2016 22.3780 -2.4025 0.9043
7.3660 17.7831 -1.8479 0.9256
6.6752 17.8968 -1.8338 0.9261
2.6696 24.8314 -2.3977 0.9045
-0.6701 18.7617 -1.8024 0.9273
-3.5436 24.6464 -2.3905 0.9048
-4.3030 23.8499 -2.3267 0.9072
-5.7285 19.5096 -1.9521 0.9215
-7.8413 23.5593 -2.3838 0.9050
-9.4900 22.9110 -2.3808 0.9052
-11.0856 22.1462 -2.3776 0.9053
-13.4373 22.6475 -2.5282 0.8996
-14.9972 21.6000 -2.5245 0.8997
-10.0186 11.5621 -1.4688 0.9404
-17.8647 19.1880 -2.5170 0.9000
-19.1583 17.8370 -2.5130 0.9002
-20.9056 15.6497 -2.5071 0.9004
-21.4338 14.8818 -2.5051 0.9005
-21.9338 14.0960 -2.5031 0.9005
-22.4051 13.2936 -2.5011 0.9006
-22.8471 12.4755 -2.4991 0.9007
-23.2594 11.6428 -2.4971 0.9008
-24.6022 8.1884 -2.4893 0.9011
-24.8596 7.2995 -2.4874 0.9011
-25.0852 6.4026 -2.4855 0.9012
-25.2786 5.4990 -2.4836 0.9013
-25.5687 3.6762 -2.4800 0.9014
-25.6650 2.7593 -2.4782 0.9015
-25.7601 0.9200 -2.4747 0.9016
21.2532 0.0000 -2.5246 0.9180
21.2514 0.7590 -2.5260 0.9179
21.2223 1.5179 -2.5273 0.9179
21.0818 3.0311 -2.5300 0.9178
20.9706 3.7835 -2.5312 0.9177
19.4094 4.9540 -2.3795 0.9225
19.0234 6.3316 -2.3816 0.9224
17.2812 10.2534 -2.3869 0.9222
15.2058 13.1759 -2.3900 0.9222
14.2323 14.2323 -2.3909 0.9221
13.1843 15.2155 -2.3915 0.9221
12.6342 15.6781 -2.3918 0.9221
9.6513 17.6751 -2.3922 0.9221
9.0140 18.0077 -2.3921 0.9221
5.9208 17.7892 -2.2271 0.9273
5.2524 17.8881 -2.2146 0.9277
2.4081 9.4348 -1.1566 0.9615
2.8620 19.9056 -2.3888 0.9222
2.1491 19.9898 -2.3882 0.9222
1.3360 18.6795 -2.2245 0.9273
0.6631 18.5670 -2.2069 0.9279
-1.3643 19.0758 -2.2717 0.9259
-2.1448 19.9497 -2.3834 0.9224
-2.8544 19.8525 -2.3824 0.9224
-3.5596 19.7297 -2.3814 0.9224
-6.9896 18.7401 -2.3759 0.9226
-7.6502 18.4692 -2.3746 0.9226
-8.9387 17.8573 -2.3721 0.9227
-9.5651 17.5171 -2.3708 0.9228
-10.1785 17.1549 -2.3694 0.9228
-11.3631 16.3660 -2.3667 0.9229
-11.9329 15.9405 -2.3653 0.9229
-13.2958 16.4991 -2.5170 0.9182
-9.9464 11.4787 -1.8042 0.9407
-16.8887 12.6427 -2.5060 0.9185
-17.3181 12.0241 -2.5044 0.9186
-17.7248 11.3910 -2.5028 0.9186
-18.1084 10.7442 -2.5011 0.9187
-18.4685 10.0845 -2.4995 0.9187
-19.1163 8.7301 -2.4963 0.9188
-20.1133 5.9058 -2.4900 0.9190
-20.2988 5.1810 -2.4885 0.9191
-20.4583 4.4504 -2.4870 0.9191
-20.7797 2.2340 -2.4826 0.9193
-20.8623 0.7451 -2.4797 0.9193
17.7878 0.6353 -2.5220 0.9306
17.7618 1.2704 -2.5231 0.9306
17.5469 3.1658 -2.5263 0.9305
17.4297 3.7916 -2.5274 0.9305
17.2901 4.4130 -2.5284 0.9304
17.0949 5.0195 -2.5244 0.9306
16.0709 5.3489 -2.3999 0.9339
15.5049 6.4224 -2.3779 0.9344
13.8363 6.3188 -2.1552 0.9404
15.0166 7.5168 -2.3794 0.9344
14.7430 8.0503 -2.3800 0.9344
14.4501 8.5737 -2.3807 0.9344
13.8084 9.5874 -2.3819 0.9343
11.4667 12.3161 -2.3843 0.9343
11.0210 12.7189 -2.3846 0.9343
10.0871 13.4747 -2.3849 0.9343
6.9922 15.3108 -2.3849 0.9343
6.4408 15.5496 -2.3847 0.9343
2.0126 9.2518 -1.3415 0.9625
0.5997 16.7909 -2.3806 0.9344
-0.0000 16.7970 -2.3800 0.9344
-1.7939 16.6855 -2.3778 0.9344
-2.9776 16.5037 -2.3762 0.9345
-4.7193 16.0726 -2.3734 0.9346
-5.2878 15.8874 -2.3725 0.9346
-5.8491 15.6820 -2.3715 0.9346
-8.5212 14.3617 -2.3661 0.9348
-9.0240 14.0417 -2.3650 0.9348
-9.5148 13.7039 -2.3638 0.9348
-9.9929 13.3489 -2.3626 0.9349
-10.4577 12.9772 -2.3615 0.9349
-12.0802 12.9750 -2.5119 0.9309
-12.5290 12.5291 -2.5106 0.9309
-13.3768 11.5910 -2.5079 0.9310
-14.1544 10.5959 -2.5052 0.9311
-14.5158 10.0785 -2.5039 0.9311
-14.8582 9.5488 -2.5025 0.9311
-15.1814 9.0075 -2.5012 0.9312
-15.4848 8.4554 -2.4998 0.9312
-15.7683 7.8930 -2.4985 0.9312
-16.0314 7.3213 -2.4971 0.9313
-16.2738 6.7408 -2.4958 0.9313
-17.0316 4.3471 -2.4906 0.9315
-17.3723 2.4978 -2.4868 0.9316
-17.4419 1.8752 -2.4856 0.9316
-17.4892 1.2508 -2.4844 0.9316
-17.5144 0.6255 -2.4832 0.9316
15.2850 0.0000 -2.5180 0.9399
15.2580 1.0913 -2.5200 0.9399
15.1526 2.1786 -2.5219 0.9398
15.0706 2.7190 -2.5228 0.9398
14.8484 3.7898 -2.5245 0.9398
13.6849 5.6685 -2.4402 0.9417
13.1110 5.9876 -2.3745 0.9432
12.6568 6.9111 -2.3757 0.9432
12.4049 7.3602 -2.3762 0.9432
11.8532 8.2298 -2.3772 0.9432
11.5541 8.6493 -2.3777 0.9432
11.2399 9.0577 -2.3781 0.9432
10.5682 9.8394 -2.3788 0.9431
9.8416 10.5707 -2.3793 0.9431
9.4589 10.9162 -2.3795 0.9431
8.6572 11.5647 -2.3798 0.9431
7.8106 12.1536 -2.3800 0.9431
6.4665 12.9185 -2.3799 0.9431
6.0011 13.1405 -2.3798 0.9431
5.0477 13.5333 -2.3795 0.9431
0.5148 14.4145 -2.3761 0.9432
0.0000 14.4203 -2.3756 0.9432
-1.0282 14.3762 -2.3744 0.9432
-1.5403 14.3264 -2.3737 0.9433
-2.5569 14.1717 -2.3723 0.9433
-4.5416 13.6454 -2.3692 0.9434
-5.0240 13.4698 -2.3683 0.9434
-6.4277 12.8409 -2.3656 0.9434
-7.3215 12.3397 -2.3637 0.9435
-7.7541 12.0655 -2.3627 0.9435
-8.1763 11.7761 -2.3617 0.9435
-8.5878 11.4719 -2.3607 0.9436
-9.3760 10.8205 -2.3587 0.9436
-11.5008 9.9655 -2.5070 0.9402
-11.8438 9.5443 -2.5058 0.9402
-12.4829 8.6670 -2.5035 0.9403
-12.7784 8.2122 -2.5023 0.9403
-13.0573 7.7473 -2.5012 0.9403
-13.3193 7.2729 -2.5000 0.9403
-13.5642 6.7897 -2.4989 0.9404
-14.0010 5.7994 -2.4966 0.9404
-14.1926 5.2936 -2.4954 0.9404
-14.3660 4.7815 -2.4943 0.9405
-14.8739 2.6835 -2.4899 0.9406
-15.0564 1.0769 -2.4867 0.9406
13.3855 0.0000 -2.5160 0.9470
13.3816 0.4779 -2.5168 0.9470
13.3606 0.9556 -2.5177 0.9469
13.1053 2.8509 -2.5209 0.9469
12.8760 3.7807 -2.5223 0.9468
11.8187 5.9161 -2.4842 0.9476
11.0776 6.0488 -2.3723 0.9499
10.8569 6.4417 -2.3728 0.9499
10.3734 7.2024 -2.3737 0.9499
9.2481 8.6103 -2.3750 0.9499
8.9359 8.9359 -2.3753 0.9499
7.9314 9.8422 -2.3759 0.9499
7.2096 10.3839 -2.3761 0.9499
6.8346 10.6348 -2.3761 0.9498
6.4507 10.8720 -2.3761 0.9498
5.2512 11.4985 -2.3760 0.9499
4.4170 11.8424 -2.3757 0.9499
3.2243 9.6875 -1.9191 0.9593
3.5603 12.1252 -2.3753 0.9499
2.0145 9.2603 -1.7813 0.9622
1.7050 9.4502 -1.8049 0.9617
1.7975 12.5019 -2.3740 0.9499
1.3499 12.5560 -2.3736 0.9499
0.9007 12.5940 -2.3732 0.9499
-1.3482 12.5402 -2.3706 0.9500
-1.7945 12.4809 -2.3701 0.9500
-3.5485 12.0850 -2.3674 0.9500
-4.3988 11.7937 -2.3659 0.9501
-4.8154 11.6254 -2.3652 0.9501
-5.2255 11.4423 -2.3644 0.9501
-5.6287 11.2447 -2.3636 0.9501
-6.0244 11.0328 -2.3627 0.9501
-6.7912 10.5673 -2.3610 0.9502
-7.1614 10.3144 -2.3602 0.9502
-7.5221 10.0484 -2.3593 0.9502
-7.8730 9.7698 -2.3584 0.9502
-9.0753 9.7476 -2.5033 0.9472
-9.7630 9.0896 -2.5073 0.9472
-10.0771 8.7319 -2.5063 0.9472
-10.3782 8.3633 -2.5053 0.9472
-10.6658 7.9843 -2.5042 0.9472
-11.4442 6.7902 -2.5012 0.9473
-11.6745 6.3748 -2.5002 0.9473
-12.2741 5.0841 -2.4971 0.9474
-12.8524 3.2804 -2.4932 0.9474
-13.1144 1.8856 -2.4903 0.9475
-13.2058 0.9445 -2.4885 0.9475
-13.2263 0.4724 -2.4876 0.9476
11.8948 0.0000 -2.5143 0.9525
11.8373 1.2727 -2.5166 0.9525
11.7230 2.1151 -2.5180 0.9525
11.6432 2.5328 -2.5187 0.9525
11.3143 3.7658 -2.5206 0.9524
10.6725 5.3423 -2.5228 0.9524
8.4802 7.3482 -2.3719 0.9552
8.2134 7.6470 -2.3721 0.9552
7.9360 7.9360 -2.3724 0.9552
7.6484 8.2149 -2.3726 0.9551
7.3508 8.4833 -2.3727 0.9551
7.0437 8.7407 -2.3729 0.9551
6.7276 8.9870 -2.3730 0.9551
6.4027 9.2217 -2.3731 0.9551
6.0696 9.4445 -2.3731 0.9551
5.3804 9.8534 -2.3731 0.9551
5.0251 10.0390 -2.3730 0.9551
4.2958 10.3710 -2.3729 0.9551
1.8709 8.6002 -1.8604 0.9647
1.5564 8.6266 -1.8529 0.9648
1.2441 8.6527 -1.8478 0.9649
0.8000 11.1859 -2.3705 0.9552
0.0000 11.2106 -2.3697 0.9552
-1.1976 11.1395 -2.3682 0.9552
-1.5941 11.0872 -2.3677 0.9552
-2.3798 10.9400 -2.3666 0.9553
-2.7681 10.8453 -2.3660 0.9553
-2.8353 8.5189 -1.8978 0.9640
-5.0017 9.9920 -2.3620 0.9553
-5.3535 9.8041 -2.3612 0.9554
-6.0354 9.3912 -2.3597 0.9554
-6.3646 9.1668 -2.3589 0.9554
-6.6855 8.9308 -2.3582 0.9554
-7.0617 8.7630 -2.3789 0.9550
-7.7547 8.9494 -2.5031 0.9527
-8.0861 8.6851 -2.5084 0.9526
-8.3880 8.3880 -2.5075 0.9527
-9.9579 6.3996 -2.5021 0.9528
-10.3816 5.6688 -2.5003 0.9528
-10.5735 5.2927 -2.4994 0.9528
-10.7518 4.9102 -2.4985 0.9528
-10.9163 4.5217 -2.4976 0.9528
-11.4325 2.9180 -2.4941 0.9529
-11.6036 2.0935 -2.4924 0.9529
-11.6671 1.6775 -2.4915 0.9530
-11.7156 1.2596 -2.4907 0.9530
10.6925 0.0000 -2.5130 0.9570
10.6887 0.3818 -2.5137 0.9570
10.6399 1.1439 -2.5150 0.9570
10.5366 1.9010 -2.5163 0.9570
10.3791 2.6491 -2.5175 0.9569
10.0430 3.7459 -2.5192 0.9569
9.9049 4.1027 -2.5197 0.9569
9.7540 4.4545 -2.5202 0.9569
9.5905 4.8007 -2.5206 0.9569
9.4147 5.1408 -2.5210 0.9569
9.0268 5.8012 -2.5218 0.9569
8.5064 6.3678 -2.4973 0.9573
7.6197 6.6025 -2.3696 0.9594
7.1306 7.1306 -2.3700 0.9594
6.8720 7.3811 -2.3702 0.9594
6.0446 8.0746 -2.3705 0.9594
4.8341 8.8531 -2.3707 0.9594
4.1900 9.1749 -2.3705 0.9594
2.5094 8.5464 -2.0934 0.9641
1.5563 8.6262 -2.0601 0.9646
1.2440 8.6523 -2.0544 0.9647
0.6696 9.3617 -2.2058 0.9622
0.3596 10.0691 -2.3680 0.9594
0.0000 10.0739 -2.3676 0.9595
-0.7184 10.0446 -2.3667 0.9595
-1.0763 10.0107 -2.3663 0.9595
-2.1388 9.8320 -2.3648 0.9595
-2.4878 9.7472 -2.3643 0.9595
-2.8335 9.6499 -2.3637 0.9595
-2.8241 8.4850 -2.1017 0.9639
-4.8124 8.8132 -2.3600 0.9596
-5.1224 8.6334 -2.3593 0.9596
-5.4257 8.4426 -2.3586 0.9596
-5.8181 8.3796 -2.3975 0.9589
-6.3638 8.5010 -2.4957 0.9573
-7.5423 7.5423 -2.5069 0.9571
-8.2974 6.6864 -2.5045 0.9572
-8.5280 6.3840 -2.5036 0.9572
-8.7476 6.0735 -2.5028 0.9572
-9.9553 3.7131 -2.4972 0.9573
-10.0782 3.3544 -2.4964 0.9573
-10.4400 1.8836 -2.4933 0.9573
-10.4975 1.5093 -2.4925 0.9574
-10.5160 0.7521 -2.4778 0.9576
9.7016 0.0000 -2.5119 0.9607
9.6531 1.0378 -2.5138 0.9607
9.4933 2.0652 -2.5155 0.9607
9.2239 3.0700 -2.5170 0.9606
9.1101 3.3979 -2.5175 0.9606
8.6992 4.3545 -2.5188 0.9606
8.5396 4.6630 -2.5192 0.9606
8.3690 4.9655 -2.5196 0.9606
7.9955 5.5514 -2.5202 0.9606
7.5774 6.1062 -2.5197 0.9606
7.3442 6.3638 -2.5161 0.9606
6.2426 6.7051 -2.3720 0.9629
5.9901 6.9129 -2.3684 0.9629
5.4821 7.3232 -2.3685 0.9629
4.6681 7.8677 -2.3687 0.9629
4.3843 8.0292 -2.3686 0.9629
3.8001 8.3212 -2.3685 0.9629
2.7970 8.4038 -2.2932 0.9641
2.4755 8.4307 -2.2750 0.9643
2.1586 8.4573 -2.2599 0.9646
1.2272 8.5352 -2.2326 0.9650
0.6141 8.5865 -2.2289 0.9651
0.3262 9.1331 -2.3662 0.9629
-0.3261 9.1303 -2.3655 0.9630
-0.6517 9.1113 -2.3651 0.9630
-0.9763 9.0807 -2.3647 0.9630
-1.9402 8.9192 -2.3633 0.9630
-2.5705 8.7543 -2.3623 0.9630
-3.1632 8.4808 -2.3436 0.9633
-3.4892 8.4236 -2.3607 0.9630
-4.0792 8.1493 -2.3596 0.9630
-5.2302 8.1383 -2.5048 0.9608
-6.0791 7.5437 -2.5085 0.9608
-6.5980 7.0868 -2.5071 0.9608
-6.8448 6.8448 -2.5063 0.9608
-7.0827 6.5943 -2.5056 0.9608
-7.9398 5.5127 -2.5027 0.9608
-8.1291 5.2243 -2.5019 0.9609
-8.3079 4.9293 -2.5012 0.9609
-8.4761 4.6283 -2.5005 0.9609
-8.6333 4.3215 -2.4997 0.9609
-8.7795 4.0095 -2.4990 0.9609
-8.9144 3.6925 -2.4983 0.9609
-9.0379 3.3710 -2.4975 0.9609
-9.1498 3.0453 -2.4968 0.9609
-9.2500 2.7161 -2.4961 0.9609
-9.5317 1.3705 -2.4933 0.9610
-9.5720 1.0291 -2.4926 0.9610
-9.6001 0.6866 -2.4920 0.9610
8.8513 0.6331 -2.5121 0.9638
8.7385 1.5766 -2.5138 0.9638
8.6784 1.8879 -2.5143 0.9638
8.6072 2.1969 -2.5147 0.9637
8.5249 2.5031 -2.5152 0.9637
8.4316 2.8063 -2.5157 0.9637
8.2128 3.4018 -2.5165 0.9637
8.0874 3.6934 -2.5169 0.9637
7.9516 3.9803 -2.5173 0.9637
7.6495 4.5387 -2.5180 0.9637
7.3080 5.0740 -2.5186 0.9637
7.1230 5.3322 -2.5189 0.9637
6.9288 5.5836 -2.5191 0.9637
6.7257 5.8279 -2.5194 0.9637
6.2906 6.2906 -2.5185 0.9637
5.8127 6.7082 -2.5128 0.9638
5.1248 6.8459 -2.4209 0.9651
4.7907 6.8999 -2.3780 0.9657
4.5203 7.0338 -2.3670 0.9658
4.2664 7.1907 -2.3670 0.9658
4.0070 7.3383 -2.3670 0.9658
3.1994 7.7240 -2.3668 0.9658
2.6400 7.9318 -2.3665 0.9658
2.3550 8.0205 -2.3664 0.9658
2.0671 8.0988 -2.3662 0.9658
1.4838 8.2242 -2.3658 0.9659
1.1892 8.2711 -2.3656 0.9659
0.8931 8.3074 -2.3653 0.9659
0.2981 8.3479 -2.3647 0.9659
-0.5957 8.3284 -2.3637 0.9659
-1.1879 8.2620 -2.3630 0.9659
-1.7736 8.1533 -2.3621 0.9659
-2.0631 8.0832 -2.3617 0.9659
-2.6374 7.9244 -2.3643 0.9659
-2.9685 7.9588 -2.4047 0.9653
-3.3126 7.9974 -2.4505 0.9647
-3.9632 7.9175 -2.5065 0.9639
-4.5248 7.6262 -2.5103 0.9638
-5.0549 7.2804 -2.5091 0.9638
-5.3102 7.0936 -2.5085 0.9638
-6.2592 6.2592 -2.5059 0.9639
-6.4769 6.0302 -2.5052 0.9639
-7.0788 5.2991 -2.5032 0.9639
-7.2614 5.0417 -2.5026 0.9639
-7.4347 4.7780 -2.5019 0.9639
-7.7525 4.2332 -2.5005 0.9639
-7.8965 3.9527 -2.4999 0.9640
-8.0304 3.6674 -2.4992 0.9640
-8.2671 3.0835 -2.4979 0.9640
-8.3697 2.7857 -2.4972 0.9640
-8.6128 1.8736 -2.4953 0.9640
-8.6720 1.5646 -2.4946 0.9640
-8.7201 1.2538 -2.4940 0.9640
-8.7978 0.3142 -2.4922 0.9641
8.1612 0.0000 -2.5102 0.9664
8.1195 0.8729 -2.5118 0.9664
8.0848 1.1624 -2.5123 0.9664
8.0397 1.4505 -2.5128 0.9664
7.9842 1.7369 -2.5132 0.9664
7.9186 2.0211 -2.5137 0.9664
7.5553 3.1295 -2.5153 0.9664
6.8841 4.4241 -2.5170 0.9663
6.7225 4.6675 -2.5172 0.9663
6.5523 4.9050 -2.5175 0.9663
6.3736 5.1362 -2.5177 0.9663
6.1868 5.3609 -2.5179 0.9663
5.9919 5.5787 -2.5181 0.9663
5.5793 5.9926 -2.5184 0.9663
5.3622 6.1883 -2.5185 0.9663
4.6617 6.7142 -2.5141 0.9664
3.8311 7.0162 -2.4588 0.9671
3.5352 7.0624 -2.4292 0.9675
3.2457 7.1070 -2.4031 0.9678
2.9617 7.1502 -2.3805 0.9681
2.1663 7.3777 -2.3650 0.9683
1.9031 7.4564 -2.3669 0.9683
1.6342 7.5123 -2.3647 0.9683
1.0939 7.6084 -2.3643 0.9683
0.8216 7.6419 -2.3640 0.9683
0.5482 7.6655 -2.3638 0.9684
0.2743 7.6793 -2.3635 0.9684
0.0000 7.6832 -2.3632 0.9684
-0.2742 7.6773 -2.3629 0.9684
-1.1079 7.7056 -2.3945 0.9679
-1.6915 7.7756 -2.4475 0.9672
-1.9936 7.8110 -2.4795 0.9668
-2.2954 7.8175 -2.5060 0.9665
-2.5746 7.7354 -2.5076 0.9665
-3.1243 7.5427 -2.5111 0.9664
-3.3916 7.4266 -2.5112 0.9664
-4.4102 6.8624 -2.5090 0.9664
-4.6513 6.6992 -2.5085 0.9664
-4.8863 6.5274 -2.5079 0.9665
-5.1150 6.3473 -2.5073 0.9665
-5.3370 6.1593 -2.5067 0.9665
-5.5522 5.9635 -2.5061 0.9665
-5.7601 5.7601 -2.5055 0.9665
-6.3382 5.1076 -2.5037 0.9665
-6.6831 4.6401 -2.5025 0.9665
-6.8427 4.3976 -2.5018 0.9665
-7.7044 2.5643 -2.4975 0.9666
-7.9287 1.7248 -2.4957 0.9666
-7.9833 1.4404 -2.4951 0.9666
-8.0278 1.1542 -2.4946 0.9666
-8.0621 0.8668 -2.4940 0.9666
7.5107 0.8075 -2.5110 0.9687
7.4785 1.0752 -2.5114 0.9687
7.3244 1.8695 -2.5127 0.9686
7.1747 2.3880 -2.5135 0.9686
7.0859 2.6429 -2.5139 0.9686
6.9881 2.8946 -2.5143 0.9686
6.8812 3.1425 -2.5146 0.9686
6.5082 3.8615 -2.5155 0.9686
6.3669 4.0918 -2.5158 0.9686
6.0600 4.5364 -2.5163 0.9686
5.8947 4.7502 -2.5165 0.9686
4.5385 6.0627 -2.5174 0.9686
4.3193 6.2210 -2.5174 0.9686
3.3865 6.7654 -2.5149 0.9686
3.1412 6.8782 -2.5135 0.9686
2.6400 7.0780 -2.5111 0.9687
2.1260 7.2406 -2.5084 0.9687
1.8580 7.2795 -2.4973 0.9688
1.5918 7.3175 -2.4893 0.9689
1.3269 7.3548 -2.4842 0.9690
0.0000 7.5330 -2.5040 0.9687
-0.2693 7.5393 -2.5077 0.9687
-0.5383 7.5265 -2.5082 0.9687
-0.8068 7.5044 -2.5089 0.9687
-1.3410 7.4328 -2.5106 0.9687
-1.6061 7.3833 -2.5117 0.9687
-2.1293 7.2517 -2.5123 0.9686
-2.6403 7.0788 -2.5114 0.9687
-2.8907 6.9788 -2.5109 0.9687
-3.1374 6.8699 -2.5105 0.9687
-3.8515 6.4913 -2.5090 0.9687
-4.3030 6.1975 -2.5079 0.9687
-4.5205 6.0387 -2.5074 0.9687
-4.7321 5.8722 -2.5069 0.9687
-4.9376 5.6983 -2.5063 0.9687
-5.1367 5.5173 -2.5058 0.9687
-5.6932 4.9332 -2.5041 0.9687
-5.8643 4.7258 -2.5035 0.9688
-6.0279 4.5124 -2.5029 0.9688
-6.4713 3.8396 -2.5012 0.9688
-6.6027 3.6053 -2.5006 0.9688
-6.7256 3.3666 -2.5001 0.9688
-6.8399 3.1237 -2.4995 0.9688
-6.9455 2.8769 -2.4989 0.9688
-7.1298 2.3730 -2.4978 0.9688
-7.2083 2.1166 -2.4972 0.9688
-7.3377 1.5962 -2.4961 0.9688
-7.3884 1.3330 -2.4956 0.9688
-7.4839 0.5353 -2.4940 0.9689
7.0128 0.2505 -2.5094 0.9706
7.0006 0.5007 -2.5099 0.9706
6.9795 0.7504 -2.5103 0.9706
6.9494 0.9992 -2.5107 0.9706
6.9105 1.2468 -2.5111 0.9706
6.8627 1.4929 -2.5115 0.9706
6.7407 1.9793 -2.5123 0.9706
6.4932 2.6896 -2.5133 0.9706
6.2863 3.1467 -2.5139 0.9706
5.9158 3.8019 -2.5147 0.9706
5.4769 4.4136 -2.5154 0.9706
4.9747 4.9747 -2.5159 0.9706
4.6076 5.3174 -2.5161 0.9706
4.4150 5.4787 -2.5162 0.9706
3.8043 5.9195 -2.5163 0.9706
3.5906 6.0516 -2.5163 0.9706
3.3723 6.1758 -2.5163 0.9706
3.1496 6.2922 -2.5163 0.9706
2.9230 6.4005 -2.5162 0.9706
2.6926 6.5005 -2.5162 0.9706
2.4588 6.5923 -2.5161 0.9706
2.2218 6.6756 -2.5160 0.9706
0.7517 6.9917 -2.5147 0.9706
0.2510 7.0269 -2.5145 0.9706
-0.5014 7.0111 -2.5136 0.9706
-1.0001 6.9556 -2.5130 0.9706
-2.2175 6.6626 -2.5111 0.9706
-3.3623 6.1576 -2.5089 0.9706
-3.7916 5.8998 -2.5080 0.9706
-3.9990 5.7596 -2.5075 0.9707
-4.2012 5.6121 -2.5070 0.9707
-4.5890 5.2960 -2.5060 0.9707
-4.7741 5.1278 -2.5055 0.9707
-4.9531 4.9531 -2.5049 0.9707
-5.2916 4.5852 -2.5039 0.9707
-5.6028 4.1942 -2.5028 0.9707
-5.8853 3.7822 -2.5018 0.9707
-6.5464 2.4417 -2.4986 0.9708
-6.6280 2.2060 -2.4980 0.9708
-6.7011 1.9676 -2.4975 0.9708
-6.9073 0.9931 -2.4955 0.9708
-6.9370 0.7458 -2.4950 0.9708
-6.9579 0.4976 -2.4945 0.9708
-6.9699 0.2489 -2.4941 0.9708
6.5427 0.2337 -2.5089 0.9723
6.5313 0.4671 -2.5093 0.9723
6.5115 0.7001 -2.5097 0.9723
6.2884 1.8464 -2.5116 0.9723
6.2193 2.0700 -2.5119 0.9723
6.1422 2.2909 -2.5122 0.9723
6.0573 2.5090 -2.5125 0.9723
5.9646 2.7239 -2.5128 0.9723
5.8642 2.9354 -2.5131 0.9723
5.6410 3.3470 -2.5136 0.9723
5.5185 3.5465 -2.5138 0.9723
5.3888 3.7415 -2.5141 0.9723
5.1090 4.1171 -2.5144 0.9723
4.8028 4.4716 -2.5148 0.9723
3.9333 5.2543 -2.5152 0.9723
2.9380 5.8693 -2.5153 0.9723
0.9337 6.4941 -2.5142 0.9723
0.7013 6.5227 -2.5140 0.9723
0.4680 6.5430 -2.5138 0.9723
0.2341 6.5549 -2.5136 0.9723
0.0000 6.5585 -2.5133 0.9723
-0.2341 6.5536 -2.5131 0.9723
-0.7008 6.5187 -2.5125 0.9723
-0.9329 6.4887 -2.5122 0.9723
-1.1638 6.4505 -2.5118 0.9723
-1.6206 6.3493 -2.5112 0.9723
-1.8459 6.2865 -2.5108 0.9723
-2.5061 6.0504 -2.5096 0.9723
-2.7201 5.9561 -2.5092 0.9723
-2.9304 5.8542 -2.5088 0.9723
-3.5376 5.5046 -2.5075 0.9724
-3.9198 5.2363 -2.5066 0.9724
-4.2818 4.9414 -2.5057 0.9724
-4.4546 4.7845 -2.5052 0.9724
-4.6216 4.6216 -2.5047 0.9724
-4.7827 4.4528 -2.5042 0.9724
-5.3635 3.7239 -2.5022 0.9724
-5.8342 2.9204 -2.5002 0.9724
-6.1855 2.0587 -2.4983 0.9725
-6.2539 1.8363 -2.4978 0.9725
-6.3665 1.3850 -2.4968 0.9725
-6.4745 0.6961 -2.4954 0.9725
-6.4940 0.4645 -2.4950 0.9725
6.1279 0.0000 -2.5080 0.9739
6.0956 0.6553 -2.5092 0.9739
6.0351 1.0889 -2.5099 0.9738
5.9932 1.3037 -2.5102 0.9738
5.9437 1.5170 -2.5106 0.9738
5.8218 1.9377 -2.5112 0.9738
5.6700 2.3486 -2.5118 0.9738
5.5832 2.5498 -2.5121 0.9738
4.9163 3.6803 -2.5134 0.9738
4.7821 3.8537 -2.5136 0.9738
4.6418 4.0221 -2.5138 0.9738
4.1859 4.4959 -2.5141 0.9738
3.8547 4.7834 -2.5143 0.9738
3.6816 4.9181 -2.5143 0.9738
3.3215 5.1683 -2.5144 0.9738
2.9443 5.3921 -2.5144 0.9738
2.3509 5.6756 -2.5143 0.9738
1.5190 5.9515 -2.5139 0.9738
0.8740 6.0786 -2.5134 0.9738
0.4380 6.1245 -2.5130 0.9738
-0.6560 6.1019 -2.5118 0.9738
-1.0894 6.0382 -2.5112 0.9738
-1.5170 5.9435 -2.5105 0.9738
-1.7279 5.8848 -2.5102 0.9738
-1.9366 5.8186 -2.5098 0.9738
-2.3461 5.6639 -2.5091 0.9739
-3.1263 5.2691 -2.5075 0.9739
-3.3118 5.1533 -2.5071 0.9739
-4.0087 4.6263 -2.5054 0.9739
-4.6230 4.0058 -2.5036 0.9739
-4.7621 3.8376 -2.5031 0.9739
-4.8951 3.6644 -2.5026 0.9739
-5.3628 2.9283 -2.5008 0.9739
-5.5560 2.5373 -2.4998 0.9739
-5.8562 1.7196 -2.4980 0.9740
-5.9128 1.5092 -2.4975 0.9740
-6.0815 0.4350 -2.4954 0.9740
-6.0922 0.2176 -2.4950 0.9740
5.7408 0.4106 -2.5083 0.9752
5.6985 0.8193 -2.5090 0.9752
5.6270 1.2241 -2.5097 0.9752
5.5267 1.6228 -2.5103 0.9752
5.4659 1.8192 -2.5106 0.9752
5.3981 2.0134 -2.5109 0.9752
5.2418 2.3939 -2.5114 0.9752
5.0586 2.7622 -2.5119 0.9752
4.9572 2.9413 -2.5121 0.9752
4.8495 3.1166 -2.5123 0.9752
4.6155 3.4551 -2.5127 0.9752
4.4895 3.6179 -2.5128 0.9752
4.3578 3.7760 -2.5130 0.9752
4.2204 3.9294 -2.5131 0.9752
3.9297 4.2208 -2.5133 0.9752
3.4563 4.6171 -2.5135 0.9751
2.5816 5.1575 -2.5136 0.9751
2.3959 5.2462 -2.5135 0.9751
2.0154 5.4035 -2.5134 0.9751
1.8212 5.4718 -2.5133 0.9752
0.8205 5.7067 -2.5127 0.9752
0.4112 5.7499 -2.5123 0.9752
0.2057 5.7604 -2.5121 0.9752
0.0000 5.7636 -2.5119 0.9752
-0.6159 5.7289 -2.5111 0.9752
-1.6224 5.5252 -2.5096 0.9752
-2.0118 5.3940 -2.5090 0.9752
-2.2028 5.3180 -2.5086 0.9752
-2.5758 5.1458 -2.5079 0.9752
-2.7574 5.0498 -2.5075 0.9752
-2.9354 4.9474 -2.5071 0.9752
-3.6074 4.4765 -2.5055 0.9752
-3.9162 4.2063 -2.5047 0.9752
-4.0632 4.0631 -2.5043 0.9752
-4.2049 3.9149 -2.5038 0.9752
-4.3412 3.7617 -2.5034 0.9752
-4.4719 3.6037 -2.5030 0.9753
-4.5969 3.4412 -2.5025 0.9753
-4.7159 3.2743 -2.5021 0.9753
-4.8289 3.1034 -2.5017 0.9753
-5.0363 2.7500 -2.5008 0.9753
-5.1303 2.5681 -2.5004 0.9753
-5.2178 2.3829 -2.4999 0.9753
-5.4398 1.8105 -2.4986 0.9753
-5.5532 1.4174 -2.4978 0.9753
-5.6383 1.0173 -2.4969 0.9753
-5.6701 0.8152 -2.4965 0.9753
-5.6947 0.6122 -2.4961 0.9753
-5.7120 0.4085 -2.4957 0.9753
5.4165 0.0000 -2.5072 0.9764
5.4138 0.1934 -2.5076 0.9764
5.4042 0.3865 -2.5079 0.9764
5.3643 0.7713 -2.5086 0.9764
5.3340 0.9624 -2.5089 0.9764
5.2969 1.1523 -2.5092 0.9764
5.2530 1.3408 -2.5095 0.9764
5.1451 1.7125 -2.5101 0.9764
5.0109 2.0756 -2.5106 0.9764
4.9341 2.2533 -2.5108 0.9764
4.8510 2.4282 -2.5111 0.9764
4.7616 2.6001 -2.5113 0.9764
4.6662 2.7686 -2.5115 0.9764
4.5647 2.9336 -2.5117 0.9764
4.2258 3.4054 -2.5122 0.9764
4.1018 3.5542 -2.5123 0.9764
3.9725 3.6986 -2.5124 0.9764
3.8382 3.8382 -2.5125 0.9764
3.2532 4.3458 -2.5128 0.9764
3.0961 4.4592 -2.5129 0.9764
2.9350 4.5670 -2.5129 0.9764
1.5292 5.2081 -2.5125 0.9764
1.3423 5.2591 -2.5124 0.9764
1.1537 5.3034 -2.5123 0.9764
0.7723 5.3716 -2.5120 0.9764
0.1936 5.4222 -2.5114 0.9764
0.0000 5.4252 -2.5112 0.9764
-0.1936 5.4213 -2.5110 0.9764
-0.7718 5.3679 -2.5103 0.9764
-1.1525 5.2981 -2.5097 0.9764
-1.3407 5.2529 -2.5095 0.9764
-1.5272 5.2011 -2.5092 0.9764
-1.7116 5.1427 -2.5088 0.9764
-2.2507 4.9283 -2.5079 0.9764
-2.4248 4.8441 -2.5075 0.9764
-2.5958 4.7538 -2.5072 0.9764
-2.7634 4.6575 -2.5068 0.9764
-2.9275 4.5552 -2.5064 0.9764
-3.5438 4.0897 -2.5049 0.9764
-3.6869 3.9600 -2.5045 0.9764
-3.9587 3.6857 -2.5037 0.9764
-4.2102 3.3928 -2.5029 0.9764
-4.5465 2.9219 -2.5016 0.9765
-4.7418 2.5892 -2.5008 0.9765
-4.8304 2.4179 -2.5004 0.9765
-4.9890 2.0665 -2.4996 0.9765
-5.1220 1.7048 -2.4988 0.9765
-5.2724 1.1469 -2.4976 0.9765
-5.3391 0.7676 -2.4968 0.9765
-5.3623 0.5765 -2.4964 0.9765
-5.3882 0.1924 -2.4957 0.9765
5.1106 0.0000 -2.5069 0.9775
5.1080 0.1824 -2.5072 0.9775
4.9975 1.0871 -2.5087 0.9775
4.9561 1.2650 -2.5090 0.9775
4.9083 1.4412 -2.5093 0.9775
4.8543 1.6157 -2.5096 0.9775
4.7940 1.7881 -2.5098 0.9775
4.6551 2.1259 -2.5103 0.9775
4.5766 2.2909 -2.5105 0.9775
4.0986 3.0682 -2.5114 0.9774
3.6210 3.6210 -2.5119 0.9774
3.3537 3.8703 -2.5121 0.9774
3.2135 3.9877 -2.5121 0.9774
3.0691 4.0999 -2.5122 0.9774
2.7689 4.3085 -2.5122 0.9774
2.6134 4.4046 -2.5122 0.9774
2.4545 4.4950 -2.5122 0.9774
2.2925 4.5798 -2.5122 0.9774
2.1275 4.6586 -2.5122 0.9774
1.9598 4.7315 -2.5121 0.9774
1.7897 4.7983 -2.5121 0.9774
1.4427 4.9134 -2.5119 0.9774
0.9091 5.0387 -2.5115 0.9774
0.7286 5.0677 -2.5114 0.9774
0.3652 5.1061 -2.5111 0.9775
0.1827 5.1155 -2.5109 0.9775
-0.3651 5.1044 -2.5102 0.9775
-0.5470 5.0877 -2.5100 0.9775
-0.9084 5.0347 -2.5095 0.9775
-1.0874 4.9986 -2.5093 0.9775
-1.2650 4.9560 -2.5090 0.9775
-1.6149 4.8521 -2.5084 0.9775
-2.1235 4.6499 -2.5075 0.9775
-2.2879 4.5706 -2.5072 0.9775
-2.4492 4.4854 -2.5068 0.9775
-3.0609 4.0889 -2.5054 0.9775
-3.3438 3.8590 -2.5047 0.9775
-3.4789 3.7366 -2.5043 0.9775
-3.6095 3.6095 -2.5039 0.9775
-3.8566 3.3418 -2.5032 0.9775
-3.9728 3.2015 -2.5028 0.9775
-4.0840 3.0572 -2.5024 0.9775
-4.1898 2.9090 -2.5020 0.9775
-4.5583 2.2817 -2.5005 0.9775
-4.7739 1.7806 -2.4993 0.9776
-4.8337 1.6088 -2.4989 0.9776
-4.9757 1.0824 -2.4978 0.9776
-5.0104 0.9040 -2.4974 0.9776
-5.0607 0.5441 -2.4967 0.9776
-5.0852 0.1816 -2.4960 0.9776
4.8292 0.1725 -2.5069 0.9785
4.8205 0.3448 -2.5072 0.9785
4.8057 0.5167 -2.5075 0.9785
4.7848 0.6879 -2.5078 0.9785
4.7577 0.8584 -2.5081 0.9785
4.7246 1.0278 -2.5083 0.9784
4.6854 1.1959 -2.5086 0.9784
4.5320 1.6904 -2.5093 0.9784
4.4692 1.8512 -2.5096 0.9784
4.3265 2.1657 -2.5100 0.9784
4.2468 2.3189 -2.5102 0.9784
3.9754 2.7602 -2.5107 0.9784
3.7688 3.0371 -2.5110 0.9784
3.6581 3.1698 -2.5111 0.9784
3.5428 3.2985 -2.5112 0.9784
3.4230 3.4230 -2.5113 0.9784
3.0377 3.7696 -2.5115 0.9784
2.7611 3.9768 -2.5116 0.9784
2.6175 4.0729 -2.5116 0.9784
2.4704 4.1637 -2.5116 0.9784
1.6918 4.5359 -2.5115 0.9784
1.5288 4.5932 -2.5114 0.9784
1.0289 4.7298 -2.5111 0.9784
0.1727 4.8359 -2.5103 0.9784
-0.0000 4.8386 -2.5102 0.9784
-0.5171 4.8097 -2.5095 0.9784
-0.6884 4.7877 -2.5093 0.9784
-0.8587 4.7596 -2.5091 0.9784
-1.0280 4.7255 -2.5088 0.9784
-1.1959 4.6853 -2.5086 0.9784
-1.3622 4.6392 -2.5083 0.9784
-1.8496 4.4654 -2.5074 0.9785
-2.0076 4.3960 -2.5071 0.9785
-2.3155 4.2406 -2.5065 0.9785
-2.4651 4.1547 -2.5062 0.9785
-3.0296 3.7596 -2.5049 0.9785
-3.1615 3.6485 -2.5045 0.9785
-3.2892 3.5329 -2.5041 0.9785
-3.5318 3.2883 -2.5034 0.9785
-3.6464 3.1597 -2.5031 0.9785
-3.7563 3.0271 -2.5027 0.9785
-3.9616 2.7506 -2.5020 0.9785
-4.1465 2.4602 -2.5012 0.9785
-4.2310 2.3103 -2.5009 0.9785
-4.3101 2.1575 -2.5005 0.9785
-4.3837 2.0020 -2.5001 0.9785
-4.4518 1.8440 -2.4998 0.9785
-4.5706 1.5213 -2.4990 0.9785
-4.6662 1.1910 -2.4983 0.9785
-4.7051 1.0235 -2.4980 0.9785
-4.7648 0.6851 -2.4973 0.9785
-4.7856 0.5145 -2.4970 0.9785
-4.8002 0.3433 -2.4966 0.9785
-4.8088 0.1717 -2.4963 0.9786
4.5654 0.3265 -2.5069 0.9793
4.5513 0.4893 -2.5072 0.9793
4.5315 0.6515 -2.5074 0.9793
4.4744 0.9733 -2.5080 0.9793
4.3460 1.4465 -2.5087 0.9793
4.2920 1.6008 -2.5089 0.9793
4.0217 2.1960 -2.5097 0.9793
3.9411 2.3383 -2.5099 0.9793
3.8553 2.4777 -2.5100 0.9793
3.3550 3.1236 -2.5107 0.9793
3.0022 3.4647 -2.5109 0.9793
2.6148 3.7660 -2.5111 0.9793
2.4787 3.8569 -2.5111 0.9793
2.3395 3.9429 -2.5111 0.9793
2.1972 4.0239 -2.5111 0.9793
2.0522 4.0998 -2.5111 0.9793
1.7544 4.2356 -2.5110 0.9793
1.6021 4.2954 -2.5109 0.9793
1.4477 4.3497 -2.5108 0.9793
1.1337 4.4416 -2.5107 0.9793
0.6523 4.5367 -2.5103 0.9793
0.3269 4.5711 -2.5100 0.9793
0.1636 4.5796 -2.5099 0.9793
-0.0000 4.5822 -2.5097 0.9793
-0.4897 4.5549 -2.5091 0.9793
-0.8133 4.5075 -2.5087 0.9793
-1.2900 4.3935 -2.5079 0.9793
-1.4459 4.3442 -2.5077 0.9793
-1.5999 4.2894 -2.5074 0.9793
-1.7517 4.2291 -2.5071 0.9793
-2.3347 3.9349 -2.5059 0.9793
-2.4733 3.8486 -2.5056 0.9794
-2.6088 3.7573 -2.5053 0.9794
-2.8694 3.5607 -2.5047 0.9794
-3.1153 3.3461 -2.5040 0.9794
-3.2323 3.2323 -2.5037 0.9794
-3.3452 3.1145 -2.5033 0.9794
-3.4537 2.9927 -2.5030 0.9794
-3.5579 2.8671 -2.5026 0.9794
-3.6574 2.7379 -2.5023 0.9794
-3.7523 2.6053 -2.5019 0.9794
-3.8423 2.4693 -2.5016 0.9794
-4.1523 1.8963 -2.5002 0.9794
-4.2759 1.5948 -2.4995 0.9794
-4.3295 1.4410 -2.4992 0.9794
-4.3775 1.2854 -2.4988 0.9794
-4.5135 0.6490 -2.4975 0.9794
-4.5332 0.4874 -2.4972 0.9794
-4.5553 0.1627 -2.4966 0.9794
4.3383 0.1549 -2.5063 0.9801
4.3171 0.4641 -2.5069 0.9801
4.2982 0.6180 -2.5071 0.9801
4.2441 0.9232 -2.5076 0.9801
4.1222 1.3720 -2.5083 0.9801
3.8862 1.9453 -2.5091 0.9801
3.4801 2.6052 -2.5099 0.9801
3.2857 2.8471 -2.5101 0.9801
3.1821 2.9627 -2.5102 0.9801
3.0745 3.0745 -2.5103 0.9801
2.9629 3.1823 -2.5104 0.9801
2.8475 3.2861 -2.5104 0.9801
1.9464 3.8885 -2.5105 0.9801
1.8064 3.9554 -2.5105 0.9801
1.5195 4.0740 -2.5104 0.9801
1.3731 4.1256 -2.5104 0.9801
1.2250 4.1718 -2.5103 0.9801
1.0752 4.2127 -2.5102 0.9801
0.6187 4.3029 -2.5099 0.9801
0.4647 4.3221 -2.5097 0.9801
0.3101 4.3356 -2.5096 0.9801
-0.0000 4.3462 -2.5093 0.9801
-0.1551 4.3431 -2.5091 0.9801
-0.4645 4.3203 -2.5087 0.9801
-0.6183 4.3006 -2.5085 0.9801
-0.9234 4.2448 -2.5081 0.9801
-1.0742 4.2088 -2.5078 0.9801
-1.3715 4.1206 -2.5073 0.9801
-1.5175 4.0686 -2.5071 0.9801
-1.9431 3.8818 -2.5063 0.9801
-2.2146 3.7325 -2.5057 0.9802
-2.3461 3.6506 -2.5054 0.9802
-2.7219 3.3777 -2.5045 0.9802
-2.9552 3.1741 -2.5039 0.9802
-3.1733 2.9544 -2.5032 0.9802
-3.3751 2.7198 -2.5026 0.9802
-3.4695 2.5973 -2.5022 0.9802
-3.7258 2.2106 -2.5012 0.9802
-3.8018 2.0760 -2.5009 0.9802
-3.9392 1.7990 -2.5002 0.9802
-4.1530 1.2194 -2.4989 0.9802
-4.1933 1.0703 -2.4986 0.9802
-4.2579 0.7682 -2.4980 0.9802
-4.2821 0.6157 -2.4977 0.9802
-4.3008 0.4624 -2.4974 0.9802
-4.3141 0.3085 -2.4971 0.9802
-4.3218 0.1544 -2.4968 0.9802
