ply
format ascii 1.0
element vertex 1301
property float32 x
property float32 y
property float32 z
property float32 I
end_header
20.1943 2.1711 3.5813 0.9208
34.9709 5.0281 6.2297 0.8663
33.3932 6.0248 5.9832 0.8713
25.4553 9.4943 4.7905 0.8955
23.4702 9.7217 4.4794 0.9020
20.8288 11.3734 4.1845 0.9081
19.6690 11.6701 4.0327 0.9113
17.5532 12.1874 3.7680 0.9169
17.0561 12.7680 3.7568 0.9171
16.4236 13.2350 3.7192 0.9179
15.8360 13.7220 3.6948 0.9184
12.9924 13.9548 3.3620 0.9255
8.7607 16.0440 3.2233 0.9284
6.3762 17.0953 3.2172 0.9286
2.1793 8.5383 1.5538 0.9648
1.8744 8.6165 1.5549 0.9648
2.5864 17.9891 3.2046 0.9288
1.3214 18.4762 3.2662 0.9275
0.6880 19.2638 3.3989 0.9247
0.0000 25.2485 4.4520 0.9025
-1.4421 20.1639 3.5645 0.9212
-2.1744 20.2247 3.5867 0.9207
-3.6838 20.4177 3.6583 0.9192
-9.3210 13.4248 2.8818 0.9358
45.6011 1.6286 6.9903 0.8314
40.5695 2.9016 6.2309 0.8482
20.2018 2.1719 3.1126 0.9211
36.4363 5.2388 5.6392 0.8616
31.9937 6.9598 5.0159 0.8759
29.2348 7.4617 4.6222 0.8851
28.0517 8.2367 4.4788 0.8884
23.6846 9.8105 3.9273 0.9015
22.9284 10.4711 3.8615 0.9030
21.9756 11.0002 3.7648 0.9053
21.3215 11.6424 3.7216 0.9064
18.4322 11.8457 3.3565 0.9152
17.5522 12.1867 3.2735 0.9172
16.7883 13.5289 3.3030 0.9164
20.7486 17.9787 4.2058 0.8949
14.0016 14.0016 3.0334 0.9230
12.9917 13.9541 2.9208 0.9257
12.3176 14.2153 2.8815 0.9267
14.4361 20.7919 3.8777 0.9026
13.6196 21.1924 3.8592 0.9031
7.3681 16.1340 2.7172 0.9307
6.8857 16.6236 2.7565 0.9298
7.8498 23.5850 3.8080 0.9043
7.0199 23.9075 3.8171 0.9041
2.1801 8.5416 1.3505 0.9650
3.2749 18.1516 2.8256 0.9281
0.0000 25.6704 3.9326 0.9013
-1.4661 20.4988 3.1483 0.9202
-2.1811 20.2873 3.1258 0.9207
-2.8913 20.1092 3.1123 0.9211
-3.6836 20.4165 3.1782 0.9195
-14.7849 15.8801 3.3239 0.9159
42.1685 3.0159 5.5052 0.8432
36.4325 5.2382 4.7931 0.8620
33.3839 6.0231 4.4175 0.8721
32.0677 6.9759 4.2736 0.8760
30.1108 7.6853 4.0468 0.8822
23.1282 8.6264 3.2144 0.9052
23.6829 9.8098 3.3381 0.9018
26.8996 15.9603 4.0731 0.8815
18.4311 11.8449 2.8530 0.9154
17.1815 12.8619 2.7948 0.9171
15.7288 13.6291 2.7102 0.9195
20.0059 18.6261 3.5595 0.8956
11.9367 14.8126 2.4773 0.9261
15.0974 20.1677 3.2806 0.9034
14.4416 20.7999 3.2974 0.9029
8.7881 16.0941 2.3879 0.9287
6.4109 17.1884 2.3889 0.9287
5.2317 17.8174 2.4181 0.9278
0.6977 19.5341 2.5454 0.9242
-0.8801 24.6438 3.2112 0.9053
-1.8349 25.6558 3.3494 0.9014
-2.8911 20.1081 2.6454 0.9213
-3.6833 20.4154 2.7014 0.9197
-3.0010 9.0166 1.2375 0.9624
36.8123 5.2928 3.9936 0.8610
23.1597 8.6381 2.6543 0.9053
23.6813 9.8091 2.7525 0.9020
22.8623 10.4409 2.6989 0.9038
21.2378 11.5967 2.5984 0.9072
18.4300 11.8442 2.3525 0.9156
17.5501 12.1852 2.2943 0.9176
16.8394 12.6059 2.2588 0.9189
22.6043 18.2157 3.1173 0.8898
20.7463 17.9767 2.9478 0.8954
14.5483 13.5450 2.1345 0.9231
13.8376 13.8376 2.1014 0.9243
12.9903 13.9526 2.0471 0.9262
12.3164 14.2139 2.0196 0.9271
11.4445 15.2880 2.0507 0.9260
13.8799 21.5975 2.7568 0.9019
13.0830 22.0502 2.7532 0.9020
7.3674 16.1324 1.9044 0.9311
6.8549 16.5492 1.9235 0.9305
6.2541 16.7678 1.9217 0.9305
7.9955 24.0227 2.7187 0.9032
2.1818 8.5482 0.9474 0.9651
2.5860 17.9864 1.9513 0.9295
1.9595 18.2258 1.9684 0.9289
0.6760 18.9281 2.0338 0.9266
0.0000 25.6698 2.7565 0.9019
-2.8909 20.1069 2.1813 0.9215
-3.0007 9.0156 1.0203 0.9625
44.8549 1.6020 3.7995 0.8351
20.2241 2.1743 1.7219 0.9216
40.9427 10.4500 3.5770 0.8440
28.2463 8.2939 2.4921 0.8885
27.6211 9.1932 2.4643 0.8897
22.7444 10.3870 2.1167 0.9045
19.5633 11.6075 1.9257 0.9127
17.0463 13.7368 1.8532 0.9159
12.9896 13.9519 1.6137 0.9263
11.6409 15.5504 1.6444 0.9250
14.3501 20.6681 2.1300 0.9039
12.9184 21.7728 2.1431 0.9034
8.6919 15.9180 1.5353 0.9298
7.9599 15.9018 1.5054 0.9311
7.3671 16.1316 1.5013 0.9313
6.8866 16.6257 1.5234 0.9303
7.8949 23.7204 2.1163 0.9045
7.0600 24.0441 2.1213 0.9043
-0.8608 24.1028 2.0417 0.9077
-1.4788 20.6762 1.7548 0.9202
-2.8908 20.1058 1.7195 0.9217
-3.6829 20.4130 1.7559 0.9201
49.5230 -0.0000 3.0709 0.8200
44.8494 1.6018 2.7829 0.8354
20.2315 2.1751 1.2618 0.9217
34.0637 4.8976 2.1340 0.8712
33.4970 6.0435 2.1107 0.8725
32.7811 7.1311 2.0803 0.8742
29.8635 7.6222 1.9112 0.8838
27.5345 9.1643 1.7995 0.8902
23.6779 9.8077 1.5893 0.9024
22.8513 10.4359 1.5578 0.9042
22.1491 11.0870 1.5359 0.9055
28.6809 15.6610 2.0264 0.8772
16.9688 12.7026 1.3144 0.9186
17.0476 13.7378 1.3576 0.9160
20.7440 17.9748 1.7021 0.8958
19.9638 18.5869 1.6914 0.8964
13.8997 13.8997 1.2189 0.9242
12.3151 14.2124 1.1661 0.9274
11.8414 14.6943 1.1702 0.9272
11.6424 15.5524 1.2047 0.9251
13.8510 21.5525 1.5887 0.9024
8.6908 15.9161 1.1245 0.9299
7.0973 24.1711 1.5621 0.9040
2.1835 8.5548 0.5475 0.9652
1.8756 8.6220 0.5472 0.9653
1.9593 18.2240 1.1366 0.9292
1.3211 18.4715 1.1483 0.9285
0.6791 19.0135 1.1798 0.9266
0.0000 25.6691 1.5917 0.9022
-1.4789 20.6775 1.2855 0.9203
-2.1631 20.1198 1.2548 0.9221
-2.8906 20.1047 1.2595 0.9218
-2.9998 9.0129 0.5890 0.9626
-9.3072 13.4050 1.0120 0.9367
49.5233 -0.0000 1.9528 0.8202
44.8439 1.6016 1.7694 0.8356
43.5613 3.1156 1.7221 0.8396
33.4972 6.0436 1.3422 0.8726
35.1887 13.1247 1.4809 0.8604
22.1506 11.0878 0.9767 0.9056
29.1271 15.9046 1.3086 0.8756
19.6496 11.6587 0.9009 0.9126
18.4267 11.8421 0.8637 0.9161
16.9664 12.7009 0.8357 0.9187
13.8979 13.8979 0.7750 0.9243
12.9883 13.9504 0.7516 0.9265
11.8400 14.6925 0.7440 0.9272
14.3972 20.7359 0.9954 0.9039
13.8503 21.5515 1.0102 0.9025
8.6898 15.9142 0.7150 0.9300
7.9591 15.9003 0.7011 0.9313
6.8850 16.6218 0.7094 0.9305
6.2817 16.8420 0.7088 0.9306
2.1843 8.5580 0.3483 0.9653
1.8758 8.6231 0.3480 0.9653
1.9592 18.2231 0.7227 0.9293
0.0000 25.6687 1.0121 0.9023
-0.8642 24.1981 0.9548 0.9076
-2.8905 20.1036 0.8009 0.9219
-3.6825 20.4107 0.8178 0.9203
-9.3068 13.4043 0.6435 0.9368
44.8385 1.6014 0.7578 0.8357
43.5631 3.1157 0.7377 0.8397
38.3511 5.5141 0.6545 0.8564
29.9899 7.6545 0.5228 0.8835
28.2468 8.2940 0.4973 0.8889
27.5378 9.1654 0.4903 0.8904
22.8438 10.4324 0.4242 0.9044
22.1522 11.0886 0.4185 0.9056
19.6468 11.6570 0.3859 0.9127
16.9640 12.6991 0.3579 0.9187
17.0501 13.7398 0.3699 0.9161
20.7417 17.9728 0.4636 0.8960
19.9586 18.5821 0.4606 0.8966
13.8962 13.8962 0.3320 0.9244
12.9876 13.9497 0.3220 0.9266
12.3138 14.2109 0.3176 0.9275
11.8385 14.6907 0.3187 0.9273
14.3955 20.7334 0.4264 0.9040
7.9587 15.8995 0.3003 0.9313
7.3660 16.1293 0.2995 0.9315
6.2810 16.8400 0.3036 0.9306
8.0171 24.0875 0.4288 0.9034
2.1851 8.5613 0.1493 0.9653
1.8761 8.6242 0.1491 0.9653
-1.4791 20.6801 0.3502 0.9204
-2.1625 20.1145 0.3417 0.9223
-2.8903 20.1025 0.3431 0.9220
-3.6823 20.4096 0.3503 0.9204
-2.9989 9.0102 0.1604 0.9627
49.5238 -0.0000 -0.2788 0.8203
44.8330 1.6012 -0.2526 0.8357
20.2535 2.1775 -0.1147 0.9217
38.3530 5.5143 -0.2182 0.8564
33.4976 6.0437 -0.1916 0.8727
32.8855 7.1538 -0.1895 0.8740
28.2470 8.2941 -0.1658 0.8889
22.8400 10.4307 -0.1414 0.9044
22.1537 11.0894 -0.1395 0.9057
17.5450 12.1817 -0.1203 0.9181
16.9617 12.6973 -0.1193 0.9187
13.8944 13.8944 -0.1106 0.9244
12.9870 13.9490 -0.1073 0.9266
12.3132 14.2102 -0.1059 0.9275
11.8370 14.6889 -0.1062 0.9273
11.6467 15.5582 -0.1094 0.9252
13.1176 22.1086 -0.1447 0.9023
7.9583 15.8987 -0.1001 0.9314
7.3656 16.1285 -0.0998 0.9315
6.2803 16.8381 -0.1012 0.9306
8.0167 24.0863 -0.1429 0.9034
7.1689 24.4150 -0.1433 0.9032
2.1860 8.5646 -0.0498 0.9653
3.2513 18.0210 -0.1031 0.9294
1.9590 18.2213 -0.1032 0.9293
1.3209 18.4687 -0.1042 0.9286
0.6788 19.0066 -0.1071 0.9267
0.0000 25.6681 -0.1445 0.9024
-0.8642 24.1977 -0.1363 0.9077
-1.4792 20.6814 -0.1167 0.9204
-3.6821 20.4084 -0.1168 0.9204
-9.2834 13.3706 -0.0916 0.9370
38.3548 5.5146 -1.0911 0.8564
32.8873 7.1542 -0.9477 0.8740
17.5440 12.1810 -0.6014 0.9181
17.0528 13.7420 -0.6167 0.9161
20.7395 17.9709 -0.7727 0.8960
19.9534 18.5773 -0.7677 0.8966
13.8927 13.8927 -0.5532 0.9244
12.3126 14.2095 -0.5294 0.9275
11.6482 15.5602 -0.5473 0.9252
14.3920 20.7284 -0.7106 0.9040
6.8826 16.6160 -0.5064 0.9306
7.1685 24.4138 -0.7165 0.9032
2.1868 8.5678 -0.2490 0.9652
0.6787 19.0042 -0.5355 0.9267
0.0000 25.6677 -0.7227 0.9024
-0.8642 24.1976 -0.6818 0.9077
-2.8900 20.1003 -0.5718 0.9220
-2.9980 9.0075 -0.2673 0.9627
44.8220 1.6008 -2.2745 0.8356
43.5053 3.1115 -2.2120 0.8397
20.2682 2.1790 -1.0338 0.9216
33.4980 6.0437 -1.7262 0.8726
32.8181 7.1391 -1.7033 0.8741
28.7191 7.3301 -1.5032 0.8881
27.5428 9.1671 -1.4721 0.8902
35.1218 13.0998 -1.9010 0.8606
22.8324 10.4272 -1.2730 0.9044
22.1570 11.0910 -1.2566 0.9055
29.1198 15.9006 -1.6826 0.8756
19.6382 11.6519 -1.1580 0.9126
18.4223 11.8393 -1.1106 0.9160
17.5429 12.1803 -1.0831 0.9180
16.9570 12.6938 -1.0742 0.9187
17.0542 13.7431 -1.1108 0.9160
20.7383 17.9699 -1.3917 0.8959
12.9856 13.9475 -0.9664 0.9265
14.3903 20.7259 -1.2796 0.9039
7.9576 15.8972 -0.9016 0.9313
7.3649 16.1270 -0.8991 0.9315
6.2788 16.8341 -0.9112 0.9306
8.0159 24.0840 -1.2873 0.9033
2.1876 8.5711 -0.4486 0.9652
1.8768 8.6274 -0.4478 0.9653
3.2506 18.0167 -0.9285 0.9293
1.9588 18.2195 -0.9293 0.9292
-0.8642 24.1974 -1.2279 0.9076
-2.1617 20.1065 -1.0256 0.9222
-21.5216 42.9947 -2.4384 0.8248
-22.8974 41.9335 -2.4230 0.8258
-24.3527 41.0442 -2.4203 0.8260
-25.7727 40.1030 -2.4176 0.8262
-28.4999 38.0714 -2.4118 0.8266
-29.8035 36.9839 -2.4088 0.8268
-31.0650 35.8509 -2.4058 0.8270
-33.4552 33.4552 -2.3994 0.8274
-36.6880 29.5651 -2.3895 0.8280
-39.4677 25.3644 -2.3793 0.8287
-40.2887 23.9044 -2.3758 0.8289
-42.2172 23.0523 -2.4394 0.8248
-44.4729 22.2616 -2.5222 0.8194
-45.1715 20.6291 -2.5184 0.8196
-46.9054 15.6116 -2.5071 0.8204
-47.3612 13.9065 -2.5033 0.8206
-47.7551 12.1887 -2.4995 0.8209
-48.5656 6.9827 -2.4883 0.8216
-45.8270 3.2776 -2.3300 0.8319
-45.6609 1.6308 -2.3171 0.8328
32.2800 2.3087 -2.3729 0.8783
32.0956 4.6141 -2.3775 0.8781
28.7195 7.3302 -2.1733 0.8879
28.1990 8.2800 -2.1549 0.8888
27.4696 9.1427 -2.1228 0.8904
22.7530 10.3910 -1.8340 0.9045
22.0778 11.0514 -1.8103 0.9057
19.5748 11.6143 -1.6689 0.9128
18.4212 11.8386 -1.6056 0.9159
17.5419 12.1796 -1.5658 0.9179
19.8999 18.5275 -1.9936 0.8967
13.8892 13.8892 -1.4402 0.9242
12.3113 14.2080 -1.3785 0.9274
11.8327 14.6834 -1.3827 0.9272
14.3544 20.6743 -1.8454 0.9040
13.8469 21.5462 -1.8779 0.9024
13.1157 22.1053 -1.8846 0.9020
7.9572 15.8964 -1.3034 0.9312
7.3646 16.1262 -1.2999 0.9314
6.8810 16.6122 -1.3184 0.9304
6.2781 16.8322 -1.3172 0.9305
7.1679 24.4115 -1.8655 0.9030
1.8770 8.6285 -0.6475 0.9652
3.2502 18.0146 -1.3422 0.9292
1.3207 18.4659 -1.3574 0.9284
0.6786 18.9996 -1.3940 0.9266
0.0000 25.6671 -1.8820 0.9022
-0.8620 24.1353 -1.7708 0.9077
-1.4795 20.6856 -1.5206 0.9202
-2.1614 20.1039 -1.4826 0.9221
-2.8897 20.0980 -1.4888 0.9218
-9.8574 33.5712 -2.5654 0.8691
-2.9971 9.0048 -0.6959 0.9627
-12.2126 32.7433 -2.5624 0.8692
-9.3043 13.4008 -1.1962 0.9367
-21.7799 27.0273 -2.5451 0.8700
-23.6108 25.3598 -2.5406 0.8703
-26.1134 22.6274 -2.5335 0.8706
-27.6075 20.6667 -2.5286 0.8708
-28.2995 19.6487 -2.5261 0.8709
-30.1462 16.4611 -2.5184 0.8713
-32.0491 11.9537 -2.5080 0.8718
-32.4215 10.7909 -2.5054 0.8719
-32.7518 9.6168 -2.5028 0.8721
-33.0397 8.4329 -2.5002 0.8722
-33.8674 1.2096 -2.4848 0.8729
24.6208 -0.0000 -2.3637 0.9058
20.9818 0.7494 -2.0156 0.9191
19.4880 2.0952 -1.8817 0.9243
19.7327 2.8371 -1.9139 0.9230
20.0316 3.6141 -1.9542 0.9215
12.9079 2.8079 -1.2682 0.9483
23.9798 6.1205 -2.3760 0.9053
22.5866 10.3149 -2.3838 0.9050
18.4201 11.8379 -2.1021 0.9158
17.5409 12.1789 -2.0501 0.9178
18.8465 16.3306 -2.3941 0.9046
11.7934 14.6347 -1.8044 0.9273
13.5197 21.0371 -2.4008 0.9044
12.7631 21.5111 -2.4013 0.9044
8.6561 15.8525 -1.7340 0.9300
7.9568 15.8956 -1.7066 0.9311
7.3642 16.1254 -1.7019 0.9312
6.2577 16.7775 -1.7191 0.9306
7.9050 23.7506 -2.4032 0.9043
7.0524 24.0183 -2.4032 0.9043
2.1893 8.5777 -0.8499 0.9651
1.8773 8.6296 -0.8479 0.9651
3.2393 17.9543 -1.7515 0.9293
1.9586 18.2176 -1.7591 0.9290
1.3206 18.4650 -1.7773 0.9283
-0.8620 24.1351 -2.3186 0.9075
-1.4707 20.5627 -1.9792 0.9205
-2.1542 20.0369 -1.9347 0.9222
-2.8895 20.0969 -1.9492 0.9217
-6.1719 24.1814 -2.3960 0.9046
-7.0282 23.9357 -2.3950 0.9046
-9.2741 24.8649 -2.5478 0.8988
-11.0133 24.1158 -2.5452 0.8989
-11.8607 23.6947 -2.5439 0.8990
-13.5056 22.7625 -2.5410 0.8991
-14.3010 22.2527 -2.5395 0.8992
-16.5663 20.5576 -2.5347 0.8993
-17.2780 19.9399 -2.5330 0.8994
-17.9665 19.2974 -2.5313 0.8995
-18.6309 18.6309 -2.5295 0.8995
-19.2703 17.9413 -2.5278 0.8996
-20.4714 16.4969 -2.5241 0.8997
-21.0315 15.7440 -2.5222 0.8998
-21.5638 14.9720 -2.5203 0.8999
-22.0676 14.1820 -2.5184 0.9000
-23.7870 10.8632 -2.5105 0.9003
-24.3341 9.0761 -2.4934 0.9009
-24.7529 8.2385 -2.5046 0.9005
-25.0112 7.3439 -2.5026 0.9006
-25.4308 5.5321 -2.4986 0.9007
-25.7199 3.6980 -2.4946 0.9009
-25.8153 2.7754 -2.4927 0.9009
-25.9072 0.9253 -2.4888 0.9011
19.1020 1.3662 -2.2748 0.9258
19.3578 2.0812 -2.3127 0.9246
12.9081 2.8080 -1.5692 0.9482
19.1614 5.6263 -2.3722 0.9227
18.7314 6.9865 -2.3748 0.9226
18.4797 7.6546 -2.3760 0.9226
18.2040 8.3135 -2.3772 0.9226
16.8670 10.8397 -2.3816 0.9224
15.6308 12.5961 -2.3846 0.9223
14.7030 13.6890 -2.3863 0.9223
12.3101 14.2066 -2.2329 0.9271
7.3639 16.1246 -2.1057 0.9311
6.2569 16.7755 -2.1268 0.9304
6.3611 19.1121 -2.3927 0.9221
5.6750 19.3274 -2.3927 0.9221
3.2389 17.9522 -2.1669 0.9292
1.3206 18.4640 -2.1989 0.9281
0.0000 20.1298 -2.3911 0.9221
-1.4355 20.0706 -2.3902 0.9221
-3.5700 19.7871 -2.3884 0.9222
-4.9695 19.4701 -2.3869 0.9222
-5.6593 19.2739 -2.3861 0.9223
-2.9962 9.0021 -1.1270 0.9625
-7.0148 18.8073 -2.3844 0.9223
-8.3319 18.2442 -2.3825 0.9224
-8.9739 17.9276 -2.3814 0.9224
-10.2206 17.2260 -2.3793 0.9225
-12.7621 17.0482 -2.5296 0.9178
-13.9311 16.0773 -2.5270 0.9179
-14.4881 15.5613 -2.5256 0.9179
-16.0410 13.8996 -2.5213 0.9181
-17.4035 12.0835 -2.5167 0.9182
-18.1987 10.7978 -2.5136 0.9183
-18.5608 10.1350 -2.5120 0.9183
-19.2121 8.7739 -2.5089 0.9184
-20.0014 6.6571 -2.5040 0.9186
-20.2133 5.9352 -2.5024 0.9186
-20.6919 3.7332 -2.4976 0.9188
-20.7987 2.9904 -2.4960 0.9188
17.7286 0.0000 -2.5120 0.9309
17.4448 0.6230 -2.4733 0.9319
16.5802 1.7826 -2.3628 0.9348
15.5878 2.2412 -2.2314 0.9384
16.1894 4.1321 -2.3674 0.9347
15.8680 5.2814 -2.3696 0.9347
15.6764 5.8470 -2.3707 0.9346
15.4645 6.4056 -2.3717 0.9346
14.1094 9.0676 -2.3764 0.9345
12.6923 10.9979 -2.3796 0.9344
12.2953 11.4473 -2.3803 0.9344
11.8822 11.8822 -2.3809 0.9344
11.4535 12.3019 -2.3816 0.9343
10.0797 13.4648 -2.3832 0.9343
9.5945 13.8186 -2.3836 0.9343
8.5870 14.4726 -2.3844 0.9343
8.0660 14.7718 -2.3847 0.9343
7.5345 15.0520 -2.3850 0.9343
6.9931 15.3128 -2.3852 0.9343
5.8837 15.7748 -2.3855 0.9342
4.7436 16.1552 -2.3857 0.9342
1.8777 8.6318 -1.2516 0.9649
2.9893 16.5686 -2.3855 0.9342
2.3959 16.6638 -2.3854 0.9342
1.7994 16.7373 -2.3852 0.9343
-0.6005 16.8145 -2.3839 0.9343
-1.2001 16.7794 -2.3835 0.9343
-1.7979 16.7226 -2.3831 0.9343
-4.1555 16.2811 -2.3808 0.9344
-4.7326 16.1178 -2.3801 0.9344
-2.9957 9.0007 -1.3441 0.9624
-6.9693 15.2606 -2.3771 0.9345
-7.5068 14.9968 -2.3762 0.9345
-9.0564 14.0920 -2.3735 0.9346
-11.6602 13.4566 -2.5229 0.9306
-13.4311 11.6381 -2.5181 0.9307
-14.5762 10.1205 -2.5143 0.9308
-15.2453 9.0455 -2.5117 0.9309
-15.8350 7.9264 -2.5090 0.9310
-16.0992 7.3523 -2.5077 0.9310
-16.5649 6.1784 -2.5050 0.9311
-16.9452 4.9756 -2.5023 0.9311
-17.1027 4.3652 -2.5010 0.9312
-17.2384 3.7500 -2.4996 0.9312
-17.3519 3.1306 -2.4983 0.9312
-17.4432 2.5079 -2.4969 0.9313
-17.5590 1.2558 -2.4943 0.9314
-17.5834 0.6280 -2.4930 0.9314
15.2394 -0.0000 -2.5105 0.9401
15.2365 0.5442 -2.5116 0.9401
15.2036 1.0874 -2.5110 0.9401
14.8582 1.5974 -2.4618 0.9412
13.9095 3.5502 -2.3649 0.9435
13.4661 5.0226 -2.3677 0.9434
13.0831 5.9749 -2.3694 0.9434
12.8661 6.4403 -2.3703 0.9433
12.3822 7.3467 -2.3719 0.9433
12.1159 7.7864 -2.3726 0.9433
11.8339 8.2164 -2.3733 0.9433
11.2240 9.0449 -2.3747 0.9432
10.8969 9.4423 -2.3753 0.9432
9.8322 10.5605 -2.3770 0.9432
9.0574 11.2396 -2.3780 0.9432
7.3702 12.4218 -2.3795 0.9431
6.4667 12.9187 -2.3800 0.9431
3.6749 9.8528 -1.7324 0.9583
4.5633 13.7107 -2.3805 0.9431
2.1919 8.5877 -1.4601 0.9647
1.6104 8.9258 -1.4942 0.9639
1.0306 14.4098 -2.3799 0.9431
0.5156 14.4359 -2.3797 0.9431
-1.5432 14.3542 -2.3783 0.9432
-3.5674 13.9771 -2.3764 0.9432
-4.0630 13.8375 -2.3758 0.9432
-5.0372 13.5053 -2.3746 0.9432
-5.5145 13.3131 -2.3739 0.9433
-6.8996 12.6357 -2.3717 0.9433
-7.7782 12.1031 -2.3701 0.9433
-8.2023 11.8135 -2.3693 0.9434
-8.7769 11.7246 -2.4127 0.9424
-9.6016 11.9149 -2.5209 0.9399
-10.0169 11.5601 -2.5199 0.9399
-10.4190 11.1908 -2.5189 0.9399
-11.1817 10.4105 -2.5168 0.9399
-12.2149 9.1439 -2.5136 0.9400
-13.6139 6.8146 -2.5080 0.9401
-14.5738 4.2793 -2.5022 0.9403
-14.7104 3.7546 -2.5011 0.9403
-14.8282 3.2257 -2.4999 0.9403
-14.9270 2.6931 -2.4988 0.9404
-15.1306 0.5404 -2.4942 0.9405
13.2898 1.4288 -2.5124 0.9471
13.2205 1.9008 -2.5105 0.9471
12.9093 2.3291 -2.4656 0.9480
12.1812 3.1091 -2.3630 0.9501
11.9367 3.9729 -2.3646 0.9501
11.4548 5.2312 -2.3670 0.9500
11.0592 6.0388 -2.3684 0.9500
10.8397 6.4315 -2.3691 0.9500
10.6062 6.8162 -2.3697 0.9500
10.0982 7.5594 -2.3710 0.9500
9.5378 8.2645 -2.3721 0.9499
8.9277 8.9277 -2.3731 0.9499
8.6051 9.2425 -2.3736 0.9499
8.2712 9.5455 -2.3740 0.9499
6.8326 10.6318 -2.3755 0.9499
6.4495 10.8701 -2.3757 0.9499
6.0581 11.0945 -2.3760 0.9499
5.6587 11.3046 -2.3762 0.9498
4.8384 11.6810 -2.3765 0.9498
3.5406 9.4928 -1.9043 0.9596
3.5624 12.1323 -2.3767 0.9498
2.1927 8.5911 -1.6666 0.9646
1.6106 8.9270 -1.7050 0.9638
1.7993 12.5146 -2.3764 0.9498
1.3514 12.5701 -2.3763 0.9498
0.9018 12.6094 -2.3761 0.9498
0.0000 12.6392 -2.3757 0.9499
-1.3505 12.5618 -2.3747 0.9499
-2.6842 12.3391 -2.3735 0.9499
-3.1223 12.2330 -2.3730 0.9499
-3.5562 12.1112 -2.3725 0.9499
-4.4091 11.8212 -2.3714 0.9499
-4.8270 11.6534 -2.3709 0.9500
-5.2385 11.4707 -2.3702 0.9500
-6.4293 10.8359 -2.3683 0.9500
-6.8099 10.5964 -2.3675 0.9500
-7.1815 10.3433 -2.3668 0.9500
-8.0147 10.7064 -2.5138 0.9470
-8.4075 10.4330 -2.5185 0.9469
-8.7715 10.1229 -2.5176 0.9469
-9.4647 9.4647 -2.5159 0.9470
-10.1085 8.7590 -2.5141 0.9470
-10.4108 8.3895 -2.5131 0.9470
-10.6995 8.0096 -2.5122 0.9471
-10.9744 7.6196 -2.5112 0.9471
-11.2350 7.2203 -2.5102 0.9471
-11.7122 6.3954 -2.5082 0.9471
-12.1289 5.5391 -2.5062 0.9472
-12.4830 4.6559 -2.5042 0.9472
-12.6361 4.2057 -2.5032 0.9472
-12.8935 3.2909 -2.5012 0.9473
-13.0848 2.3607 -2.4991 0.9473
-13.1554 1.8914 -2.4981 0.9473
-13.2663 0.4738 -2.4951 0.9474
11.8677 0.0000 -2.5086 0.9526
11.8642 0.4237 -2.5095 0.9526
11.8456 0.8472 -2.5103 0.9526
11.8119 1.2699 -2.5112 0.9526
11.7630 1.6913 -2.5120 0.9526
11.6056 2.5246 -2.5106 0.9526
11.3739 2.9030 -2.4813 0.9531
10.6066 3.5302 -2.3630 0.9553
10.3339 4.2804 -2.3643 0.9553
10.1774 4.6479 -2.3650 0.9553
9.8252 5.3650 -2.3663 0.9553
8.9704 6.7151 -2.3686 0.9552
8.4721 7.3411 -2.3696 0.9552
8.2062 7.6403 -2.3701 0.9552
7.6430 8.2092 -2.3709 0.9552
7.3463 8.4781 -2.3713 0.9552
6.4006 9.2187 -2.3723 0.9552
6.0682 9.4423 -2.3726 0.9551
5.7279 9.6539 -2.3728 0.9551
5.0255 10.0396 -2.3732 0.9551
3.6457 9.7744 -2.2052 0.9582
2.9464 10.0344 -2.2106 0.9581
2.1936 8.5945 -1.8749 0.9644
1.8785 8.6351 -1.8680 0.9645
1.5062 10.4762 -2.2372 0.9577
0.8806 8.1910 -1.7414 0.9669
-0.4006 11.2167 -2.3725 0.9551
-1.1995 11.1568 -2.3719 0.9552
-1.9918 11.0396 -2.3712 0.9552
-3.1588 10.7577 -2.3700 0.9552
-2.9512 8.8670 -1.9754 0.9625
-4.6536 10.1900 -2.3679 0.9552
-5.0131 10.0150 -2.3674 0.9552
-5.7119 9.6269 -2.3662 0.9553
-6.7793 9.7641 -2.5126 0.9526
-7.4705 9.2703 -2.5166 0.9525
-8.1078 8.7084 -2.5151 0.9525
-8.9836 7.7844 -2.5127 0.9526
-9.7544 6.7726 -2.5102 0.9526
-9.9865 6.4179 -2.5093 0.9526
-10.2057 6.0553 -2.5084 0.9526
-10.6041 5.3080 -2.5066 0.9527
-10.7830 4.9244 -2.5057 0.9527
-11.2355 3.7395 -2.5030 0.9527
-11.4653 2.9263 -2.5012 0.9528
-11.5583 2.5143 -2.5003 0.9528
-11.6997 1.6822 -2.4985 0.9528
10.6674 0.3810 -2.5087 0.9571
10.6503 0.7617 -2.5095 0.9571
10.6196 1.1417 -2.5102 0.9571
10.5174 1.8975 -2.5117 0.9570
10.4460 2.2724 -2.5125 0.9570
10.3612 2.6445 -2.5132 0.9570
10.1209 3.3685 -2.5069 0.9571
9.2884 3.8474 -2.3629 0.9595
8.9948 4.5025 -2.3640 0.9595
8.6547 5.1351 -2.3651 0.9595
8.2699 5.7419 -2.3662 0.9595
8.0614 6.0347 -2.3667 0.9595
7.8424 6.3198 -2.3671 0.9595
7.1257 7.1257 -2.3684 0.9594
6.3259 7.8500 -2.3694 0.9594
5.7512 8.2832 -2.3700 0.9594
5.4524 8.4841 -2.3702 0.9594
4.8341 8.8530 -2.3706 0.9594
2.8251 7.5745 -1.9000 0.9673
2.5514 7.6659 -1.8988 0.9673
1.9993 7.8333 -1.9000 0.9673
1.4427 7.9961 -1.9096 0.9672
1.1652 8.1045 -1.9243 0.9669
0.3600 10.0802 -2.3706 0.9594
-0.3599 10.0784 -2.3702 0.9594
-4.1822 9.1577 -2.3661 0.9595
-6.1065 8.7951 -2.5164 0.9570
-6.4149 8.5693 -2.5158 0.9570
-6.7149 8.3327 -2.5151 0.9570
-7.0062 8.0855 -2.5144 0.9570
-7.5609 7.5609 -2.5130 0.9570
-8.0764 6.9982 -2.5116 0.9570
-8.3185 6.7035 -2.5108 0.9571
-9.3621 5.1121 -2.5069 0.9571
-9.8454 4.0781 -2.5045 0.9572
-10.1047 3.3631 -2.5029 0.9572
-10.2149 2.9994 -2.5021 0.9572
-10.3121 2.6320 -2.5013 0.9572
-10.4668 1.8884 -2.4997 0.9572
-10.5241 1.5131 -2.4989 0.9573
-10.5985 0.7580 -2.4972 0.9573
9.6805 0.3457 -2.5080 0.9608
9.6365 1.0360 -2.5094 0.9607
9.5960 1.3797 -2.5101 0.9607
9.4782 2.0619 -2.5115 0.9607
9.4010 2.3995 -2.5121 0.9607
9.0908 3.3907 -2.5122 0.9607
8.9511 3.7077 -2.5085 0.9608
8.2136 4.1114 -2.3782 0.9628
8.0108 4.3742 -2.3632 0.9630
7.8512 4.6583 -2.3637 0.9630
7.5018 5.2086 -2.3646 0.9630
7.3125 5.4741 -2.3651 0.9630
7.1137 5.7326 -2.3655 0.9630
6.6888 6.2275 -2.3663 0.9629
6.4633 6.4633 -2.3666 0.9629
6.2294 6.6908 -2.3670 0.9629
5.9874 6.9098 -2.3673 0.9629
5.7376 7.1200 -2.3676 0.9629
5.4805 7.3210 -2.3678 0.9629
5.2162 7.5128 -2.3681 0.9629
4.3843 8.0293 -2.3687 0.9629
4.0952 8.1812 -2.3688 0.9629
3.8008 8.3226 -2.3689 0.9629
2.8266 7.5784 -2.0942 0.9671
2.5513 7.6655 -2.0918 0.9672
2.2763 7.7525 -2.0920 0.9672
2.0009 7.8396 -2.0949 0.9671
1.7244 7.9271 -2.1005 0.9670
0.8809 8.1940 -2.1338 0.9665
0.0000 9.1475 -2.3685 0.9629
-0.6525 9.1226 -2.3680 0.9629
-1.3013 9.0508 -2.3675 0.9629
-2.5747 8.7686 -2.3662 0.9629
-3.1960 8.5688 -2.3679 0.9629
-3.5303 8.5230 -2.3886 0.9626
-4.9588 8.3577 -2.5162 0.9606
-5.5400 7.9791 -2.5151 0.9607
-5.8199 7.7745 -2.5145 0.9607
-6.3566 7.3359 -2.5133 0.9607
-6.8603 6.8603 -2.5120 0.9607
-7.7585 5.8079 -2.5093 0.9607
-7.9586 5.5258 -2.5086 0.9608
-8.1485 5.2367 -2.5079 0.9608
-8.6541 4.3319 -2.5057 0.9608
-8.8006 4.0191 -2.5050 0.9608
-9.0596 3.3791 -2.5035 0.9608
-9.1717 3.0526 -2.5028 0.9608
-9.2721 2.7225 -2.5021 0.9609
-9.4371 2.0529 -2.5006 0.9609
-9.6220 0.6882 -2.4977 0.9609
-9.6376 0.3442 -2.4969 0.9609
8.8519 0.3161 -2.5075 0.9638
8.7741 1.2615 -2.5094 0.9638
8.6659 1.8852 -2.5106 0.9638
8.5952 2.1938 -2.5112 0.9638
8.4207 2.8027 -2.5124 0.9638
8.3171 3.1021 -2.5130 0.9638
8.2029 3.3977 -2.5135 0.9638
8.0764 3.6884 -2.5135 0.9638
7.7740 4.2449 -2.5075 0.9638
7.4145 4.3992 -2.4406 0.9648
6.6843 5.0038 -2.3637 0.9659
6.1139 5.6923 -2.3648 0.9659
5.9077 5.9077 -2.3652 0.9659
5.6938 6.1156 -2.3655 0.9659
5.4726 6.3157 -2.3658 0.9659
5.2442 6.5077 -2.3660 0.9659
5.0091 6.6914 -2.3663 0.9658
4.5198 7.0330 -2.3667 0.9658
3.7429 7.4773 -2.3672 0.9658
2.7853 7.4676 -2.2563 0.9674
2.2431 7.6392 -2.2539 0.9674
1.6992 7.8112 -2.2630 0.9673
1.1482 7.9856 -2.2839 0.9670
0.2984 8.3559 -2.3670 0.9658
0.0000 8.3606 -2.3668 0.9658
-0.2984 8.3547 -2.3667 0.9658
-1.1894 8.2725 -2.3660 0.9659
-1.4837 8.2239 -2.3657 0.9659
-1.7761 8.1646 -2.3654 0.9659
-2.7329 8.2110 -2.4498 0.9647
-3.6924 8.0852 -2.5163 0.9637
-4.2584 7.7986 -2.5154 0.9637
-5.3206 7.1075 -2.5134 0.9638
-5.5697 6.9115 -2.5128 0.9638
-6.0458 6.4936 -2.5117 0.9638
-6.2723 6.2722 -2.5111 0.9638
-6.7005 5.8060 -2.5099 0.9638
-7.0941 5.3106 -2.5087 0.9638
-7.2773 5.0527 -2.5080 0.9638
-7.4511 4.7885 -2.5074 0.9638
-8.0482 3.6755 -2.5047 0.9639
-8.1721 3.3850 -2.5041 0.9639
-8.4802 2.4900 -2.5020 0.9639
-8.5614 2.1852 -2.5014 0.9639
-8.6316 1.8777 -2.5007 0.9639
-8.6908 1.5680 -2.5000 0.9640
-8.8015 0.6295 -2.4980 0.9640
-8.8161 0.3149 -2.4974 0.9640
8.1457 0.2909 -2.5071 0.9665
8.0289 1.4486 -2.5094 0.9664
7.6523 2.8542 -2.5121 0.9664
7.0253 4.1683 -2.5126 0.9664
6.8652 4.4120 -2.5101 0.9664
6.6971 4.6498 -2.5077 0.9665
5.6243 5.2364 -2.3636 0.9684
5.4345 5.4345 -2.3639 0.9683
5.2377 5.6257 -2.3642 0.9683
5.0341 5.8097 -2.3645 0.9683
4.8241 5.9863 -2.3647 0.9683
4.6078 6.1552 -2.3649 0.9683
4.3855 6.3163 -2.3651 0.9683
3.1953 6.9968 -2.3659 0.9683
2.9436 7.1066 -2.3659 0.9683
2.6882 7.2073 -2.3660 0.9683
2.4293 7.2988 -2.3660 0.9683
1.6351 7.5167 -2.3660 0.9683
1.3658 7.5701 -2.3660 0.9683
1.0947 7.6138 -2.3659 0.9683
0.8222 7.6477 -2.3658 0.9683
0.5487 7.6719 -2.3657 0.9683
-0.5486 7.6698 -2.3651 0.9683
-1.7013 7.8209 -2.4618 0.9671
-2.0179 7.9061 -2.5097 0.9664
-2.5820 7.7577 -2.5148 0.9664
-3.1298 7.5561 -2.5156 0.9664
-3.3970 7.4384 -2.5152 0.9664
-3.6597 7.3112 -2.5148 0.9664
-4.8952 6.5392 -2.5125 0.9664
-5.3471 6.1708 -2.5114 0.9664
-5.5628 5.9748 -2.5109 0.9664
-5.7712 5.7712 -2.5104 0.9664
-6.5279 4.8867 -2.5081 0.9665
-7.0079 4.1580 -2.5063 0.9665
-7.4068 3.3826 -2.5045 0.9665
-7.5210 3.1153 -2.5039 0.9665
-7.6255 2.8442 -2.5033 0.9665
-7.7202 2.5695 -2.5026 0.9665
-7.8051 2.2918 -2.5020 0.9665
-7.8799 2.0112 -2.5014 0.9665
-8.0780 0.8685 -2.4989 0.9666
7.5234 0.5381 -2.5072 0.9687
7.5010 0.8064 -2.5077 0.9687
7.4690 1.0739 -2.5083 0.9687
7.3160 1.8673 -2.5098 0.9687
6.7594 3.3835 -2.5126 0.9686
6.6355 3.6232 -2.5131 0.9686
6.5030 3.8584 -2.5135 0.9686
6.2131 4.3138 -2.5142 0.9686
6.0517 4.5302 -2.5128 0.9686
5.7044 4.9429 -2.5090 0.9687
5.4904 5.1117 -2.4936 0.9689
5.2209 5.2209 -2.4543 0.9694
4.9590 5.3264 -2.4191 0.9698
4.7039 5.4285 -2.3877 0.9702
4.2615 5.6927 -2.3638 0.9705
4.0578 5.8444 -2.3651 0.9705
3.8451 5.9832 -2.3641 0.9705
3.6294 6.1170 -2.3643 0.9705
3.4089 6.2430 -2.3644 0.9705
2.9551 6.4708 -2.3646 0.9705
2.7224 6.5724 -2.3647 0.9705
1.7594 6.8933 -2.3648 0.9705
1.5122 6.9516 -2.3648 0.9705
1.2631 7.0010 -2.3648 0.9705
1.0124 7.0415 -2.3647 0.9705
0.7613 7.0814 -2.3674 0.9704
0.2540 7.1112 -2.3653 0.9705
-0.8038 7.4761 -2.4994 0.9688
-1.3421 7.4385 -2.5125 0.9686
-1.8718 7.3335 -2.5158 0.9686
-2.3896 7.1795 -2.5152 0.9686
-2.6440 7.0887 -2.5149 0.9686
-2.8949 6.9889 -2.5145 0.9686
-3.1420 6.8801 -2.5142 0.9686
-3.6237 6.6363 -2.5134 0.9686
-4.9463 5.7083 -2.5107 0.9687
-5.1459 5.5270 -2.5102 0.9687
-6.4836 3.8469 -2.5060 0.9687
-6.7385 3.3730 -2.5049 0.9687
-7.0556 2.6316 -2.5032 0.9688
-7.1434 2.3775 -2.5026 0.9688
-7.2221 2.1206 -2.5020 0.9688
-7.2915 1.8610 -2.5014 0.9688
-7.4435 1.0702 -2.4997 0.9688
-7.5102 0.2682 -2.4980 0.9688
7.0041 0.2501 -2.5063 0.9707
6.9921 0.5001 -2.5068 0.9707
6.9414 0.9980 -2.5078 0.9706
6.9027 1.2454 -2.5083 0.9706
6.7988 1.7353 -2.5093 0.9706
6.7338 1.9772 -2.5097 0.9706
6.6601 2.2167 -2.5102 0.9706
6.5779 2.4534 -2.5106 0.9706
6.3883 2.9174 -2.5115 0.9706
6.1659 3.3668 -2.5123 0.9706
6.0427 3.5853 -2.5126 0.9706
5.3137 4.6043 -2.5143 0.9706
4.9682 4.9682 -2.5126 0.9706
4.4021 5.4626 -2.5088 0.9706
3.7177 5.7849 -2.4591 0.9712
3.0291 6.0515 -2.4200 0.9717
2.1276 6.3924 -2.4093 0.9718
1.6744 6.5604 -2.4212 0.9716
0.4996 6.9853 -2.5044 0.9707
0.0000 7.0218 -2.5110 0.9706
-0.5015 7.0118 -2.5139 0.9706
-1.0011 6.9629 -2.5156 0.9706
-1.2489 6.9221 -2.5153 0.9706
-1.7392 6.8140 -2.5148 0.9706
-1.9810 6.7468 -2.5146 0.9706
-2.6899 6.4940 -2.5136 0.9706
-3.1454 6.2838 -2.5129 0.9706
-4.2079 5.6211 -2.5110 0.9706
-4.5965 5.3047 -2.5101 0.9706
-4.7821 5.1363 -2.5096 0.9706
-4.9614 4.9614 -2.5092 0.9706
-5.1344 4.7803 -2.5087 0.9706
-5.3007 4.5931 -2.5082 0.9706
-5.4602 4.4001 -2.5077 0.9706
-5.7579 3.9978 -2.5067 0.9707
-6.2631 3.1351 -2.5046 0.9707
-6.6398 2.2099 -2.5025 0.9707
-6.7777 1.7299 -2.5014 0.9707
-6.8337 1.4866 -2.5009 0.9707
-6.8809 1.2414 -2.5004 0.9707
6.5381 0.0000 -2.5055 0.9724
6.5352 0.2334 -2.5060 0.9724
6.5044 0.6993 -2.5070 0.9724
6.4403 1.1619 -2.5079 0.9724
6.3958 1.3913 -2.5083 0.9724
6.3432 1.6190 -2.5088 0.9723
6.2824 1.8447 -2.5092 0.9723
6.2136 2.0681 -2.5096 0.9723
6.1369 2.2889 -2.5100 0.9723
6.0522 2.5069 -2.5104 0.9723
5.8598 2.9332 -2.5112 0.9723
5.6372 3.3447 -2.5119 0.9723
5.5150 3.5443 -2.5123 0.9723
5.3857 3.7393 -2.5126 0.9723
5.2494 3.9297 -2.5129 0.9723
5.1064 4.1150 -2.5132 0.9723
4.9569 4.2952 -2.5135 0.9723
3.9318 5.2523 -2.5143 0.9723
3.7406 5.3875 -2.5134 0.9723
3.5449 5.5160 -2.5127 0.9723
2.7220 5.9603 -2.5110 0.9723
2.2897 6.1390 -2.5109 0.9723
1.1642 6.4525 -2.5126 0.9723
0.9334 6.4917 -2.5133 0.9723
0.4682 6.5463 -2.5151 0.9723
-0.7015 6.5248 -2.5148 0.9723
-0.9339 6.4951 -2.5146 0.9723
-1.3946 6.4108 -2.5142 0.9723
-1.6224 6.3564 -2.5140 0.9723
-1.8480 6.2938 -2.5137 0.9723
-2.2918 6.1445 -2.5131 0.9723
-2.7236 5.9639 -2.5125 0.9723
-2.9344 5.8621 -2.5122 0.9723
-3.1413 5.7528 -2.5118 0.9723
-3.3442 5.6363 -2.5115 0.9723
-3.5427 5.5125 -2.5111 0.9723
-4.1097 5.0998 -2.5099 0.9723
-4.4616 4.7920 -2.5091 0.9723
-4.6290 4.6289 -2.5087 0.9723
-5.0945 4.1054 -2.5073 0.9724
-5.3724 3.7301 -2.5064 0.9724
-5.5011 3.5353 -2.5059 0.9724
-5.7370 3.1327 -2.5049 0.9724
-6.0355 2.5000 -2.5035 0.9724
-6.1960 2.0622 -2.5025 0.9724
-6.2644 1.8394 -2.5020 0.9724
-6.4213 1.1585 -2.5005 0.9724
-6.5045 0.4652 -2.4990 0.9725
6.1213 -0.0000 -2.5053 0.9739
6.1185 0.2185 -2.5057 0.9739
6.1079 0.4368 -2.5062 0.9739
6.0632 0.8718 -2.5071 0.9739
6.0293 1.0878 -2.5075 0.9739
5.9876 1.3025 -2.5079 0.9739
5.7450 2.1428 -2.5095 0.9738
5.5791 2.5479 -2.5102 0.9738
5.4854 2.7458 -2.5106 0.9738
5.3846 2.9402 -2.5109 0.9738
5.2770 3.1310 -2.5113 0.9738
5.1625 3.3177 -2.5116 0.9738
5.0414 3.5003 -2.5119 0.9738
4.6399 4.0205 -2.5127 0.9738
4.4939 4.1840 -2.5130 0.9738
3.8541 4.7826 -2.5139 0.9738
3.6812 4.9175 -2.5140 0.9738
3.5035 5.0460 -2.5142 0.9738
3.3214 5.1682 -2.5144 0.9738
3.1350 5.2837 -2.5145 0.9738
2.9445 5.3925 -2.5146 0.9738
2.3514 5.6769 -2.5148 0.9738
2.1474 5.7573 -2.5149 0.9738
1.9405 5.8304 -2.5149 0.9738
1.5197 5.9540 -2.5149 0.9738
1.0910 6.0471 -2.5149 0.9738
0.4383 6.1286 -2.5147 0.9738
-0.2193 6.1394 -2.5143 0.9738
-0.4382 6.1273 -2.5142 0.9738
-0.6566 6.1074 -2.5140 0.9738
-0.8741 6.0796 -2.5138 0.9738
-1.3054 6.0008 -2.5134 0.9738
-1.5186 5.9498 -2.5132 0.9738
-2.3489 5.6708 -2.5121 0.9738
-2.7468 5.4874 -2.5115 0.9738
-2.9406 5.3852 -2.5112 0.9738
-3.4979 5.0379 -2.5102 0.9738
-4.3335 4.3335 -2.5082 0.9739
-4.6301 4.0120 -2.5074 0.9739
-4.7695 3.8435 -2.5070 0.9739
-5.0298 3.4922 -2.5061 0.9739
-5.2642 3.1234 -2.5052 0.9739
-5.4716 2.7389 -2.5043 0.9739
-5.8014 1.9309 -2.5024 0.9739
-5.8655 1.7223 -2.5020 0.9739
-5.9221 1.5115 -2.5015 0.9739
-6.0127 1.0848 -2.5006 0.9739
-6.0464 0.8693 -2.5001 0.9739
-6.1013 0.2179 -2.4987 0.9740
5.7480 0.0000 -2.5051 0.9752
5.7453 0.2052 -2.5055 0.9752
5.7353 0.4102 -2.5059 0.9752
5.7179 0.6147 -2.5063 0.9752
5.6221 1.2230 -2.5075 0.9752
5.5222 1.6215 -2.5083 0.9752
5.3941 2.0119 -2.5090 0.9752
5.3196 2.2034 -2.5094 0.9752
5.2383 2.3922 -2.5097 0.9752
5.0556 2.7606 -2.5104 0.9752
4.9544 2.9396 -2.5107 0.9752
4.4877 3.6164 -2.5118 0.9752
4.0765 4.0765 -2.5125 0.9752
3.9288 4.2198 -2.5127 0.9752
3.7760 4.3577 -2.5129 0.9752
3.4559 4.6166 -2.5133 0.9752
3.2892 4.7373 -2.5134 0.9751
3.1182 4.8519 -2.5136 0.9751
2.9431 4.9604 -2.5137 0.9751
2.2075 5.3295 -2.5140 0.9751
2.0159 5.4050 -2.5141 0.9751
1.8218 5.4735 -2.5141 0.9751
1.6252 5.5351 -2.5141 0.9751
1.2262 5.6369 -2.5141 0.9751
1.0242 5.6770 -2.5141 0.9751
0.8209 5.7098 -2.5140 0.9751
0.2059 5.7643 -2.5138 0.9751
0.0000 5.7677 -2.5137 0.9751
-0.2059 5.7638 -2.5136 0.9751
-0.6164 5.7337 -2.5133 0.9752
-1.0238 5.6743 -2.5129 0.9752
-2.0141 5.4000 -2.5118 0.9752
-2.3937 5.2414 -2.5112 0.9752
-3.1137 4.8450 -2.5100 0.9752
-3.2842 4.7302 -2.5097 0.9752
-3.6123 4.4826 -2.5090 0.9752
-3.7694 4.3501 -2.5086 0.9752
-4.0689 4.0689 -2.5078 0.9752
-4.4784 3.6090 -2.5067 0.9752
-4.8362 3.1080 -2.5054 0.9752
-5.1381 2.5719 -2.5041 0.9752
-5.2257 2.3865 -2.5037 0.9752
-5.3066 2.1981 -2.5033 0.9752
-5.3808 2.0069 -2.5028 0.9753
-5.4480 1.8133 -2.5024 0.9753
-5.5083 1.6174 -2.5019 0.9753
-5.5615 1.4195 -2.5015 0.9753
-5.6466 1.0188 -2.5006 0.9753
-5.7202 0.4091 -2.4993 0.9753
-5.7302 0.2046 -2.4989 0.9753
5.4089 0.1932 -2.5053 0.9764
5.3994 0.3862 -2.5057 0.9764
5.3830 0.5787 -2.5061 0.9764
5.2927 1.1513 -2.5072 0.9764
4.6637 2.7671 -2.5102 0.9764
4.2243 3.4041 -2.5112 0.9764
4.1004 3.5531 -2.5115 0.9764
3.8372 3.8372 -2.5119 0.9764
3.5542 4.1018 -2.5123 0.9764
3.4058 4.2263 -2.5125 0.9764
3.2530 4.3455 -2.5126 0.9764
3.0960 4.4591 -2.5128 0.9764
2.7703 4.6690 -2.5130 0.9764
2.6019 4.7651 -2.5131 0.9764
2.4303 4.8551 -2.5132 0.9764
1.8975 5.0874 -2.5134 0.9764
1.7147 5.1520 -2.5134 0.9764
1.3428 5.2612 -2.5134 0.9764
1.1542 5.3058 -2.5134 0.9764
0.5804 5.3984 -2.5133 0.9764
-0.9636 5.3411 -2.5122 0.9764
-1.5287 5.2063 -2.5116 0.9764
-1.7134 5.1479 -2.5114 0.9764
-1.8959 5.0830 -2.5112 0.9764
-2.0759 5.0116 -2.5109 0.9764
-2.4276 4.8497 -2.5104 0.9764
-2.5988 4.7594 -2.5101 0.9764
-2.7667 4.6631 -2.5098 0.9764
-3.0916 4.4527 -2.5092 0.9764
-3.4005 4.2197 -2.5085 0.9764
-3.8304 3.8304 -2.5075 0.9764
-4.2161 3.3975 -2.5064 0.9764
-4.4463 3.0871 -2.5056 0.9764
-4.5530 2.9260 -2.5052 0.9764
-4.6538 2.7612 -2.5048 0.9764
-4.7486 2.5929 -2.5044 0.9764
-4.8373 2.4214 -2.5040 0.9764
-4.9199 2.2468 -2.5036 0.9764
-5.0660 1.8895 -2.5028 0.9764
-5.2363 1.3365 -2.5015 0.9765
-5.2798 1.1485 -2.5011 0.9765
-5.3166 0.9592 -2.5007 0.9765
-5.3697 0.5773 -2.4999 0.9765
-5.3955 0.1927 -2.4991 0.9765
5.1062 0.0000 -2.5047 0.9775
5.1037 0.1823 -2.5051 0.9775
5.0947 0.3644 -2.5055 0.9775
5.0792 0.5461 -2.5058 0.9775
5.0287 0.9073 -2.5065 0.9775
4.9938 1.0863 -2.5069 0.9775
4.9526 1.2641 -2.5072 0.9775
4.9049 1.4402 -2.5076 0.9775
4.7247 1.9570 -2.5085 0.9775
4.6524 2.1247 -2.5088 0.9775
4.3046 2.7664 -2.5100 0.9775
4.2035 2.9186 -2.5102 0.9775
4.0971 3.0670 -2.5105 0.9775
3.8686 3.3521 -2.5109 0.9775
3.7468 3.4884 -2.5111 0.9775
3.4889 3.7474 -2.5115 0.9774
3.3532 3.8698 -2.5117 0.9774
3.2131 3.9872 -2.5119 0.9774
3.0689 4.0996 -2.5120 0.9774
2.6135 4.4048 -2.5124 0.9774
2.4547 4.4955 -2.5125 0.9774
2.2928 4.5804 -2.5125 0.9774
2.1279 4.6594 -2.5126 0.9774
1.6177 4.8604 -2.5127 0.9774
1.4432 4.9151 -2.5128 0.9774
1.2669 4.9635 -2.5127 0.9774
0.0000 5.1218 -2.5123 0.9774
-0.1828 5.1183 -2.5122 0.9774
-0.5474 5.0917 -2.5120 0.9774
-0.7288 5.0686 -2.5118 0.9774
-0.9091 5.0390 -2.5117 0.9774
-1.0883 5.0030 -2.5115 0.9774
-2.4520 4.4904 -2.5096 0.9775
-2.6104 4.3995 -2.5094 0.9775
-2.7654 4.3031 -2.5091 0.9775
-3.2084 3.9814 -2.5081 0.9775
-3.7403 3.4824 -2.5068 0.9775
-3.9781 3.2058 -2.5061 0.9775
-4.2961 2.7610 -2.5050 0.9775
-4.3913 2.6055 -2.5046 0.9775
-4.8403 1.6110 -2.5023 0.9775
-4.8939 1.4370 -2.5019 0.9775
-5.0171 0.9052 -2.5008 0.9775
-5.0455 0.7254 -2.5004 0.9775
-5.0918 0.1818 -2.4992 0.9776
4.8254 0.1723 -2.5049 0.9785
4.8168 0.3445 -2.5052 0.9785
4.7813 0.6874 -2.5059 0.9785
4.6372 1.3616 -2.5072 0.9785
4.5294 1.6894 -2.5079 0.9785
4.3243 2.1646 -2.5087 0.9784
4.2448 2.3178 -2.5090 0.9784
3.9739 2.7591 -2.5098 0.9784
3.8732 2.8994 -2.5100 0.9784
3.7676 3.0361 -2.5102 0.9784
3.6571 3.1689 -2.5104 0.9784
3.5420 3.2977 -2.5106 0.9784
3.2982 3.5425 -2.5110 0.9784
3.1698 3.6582 -2.5111 0.9784
3.0374 3.7692 -2.5113 0.9784
2.9011 3.8755 -2.5114 0.9784
2.7611 3.9767 -2.5116 0.9784
2.6175 4.0730 -2.5117 0.9784
2.1674 4.3299 -2.5120 0.9784
2.0115 4.4046 -2.5120 0.9784
1.8531 4.4737 -2.5121 0.9784
1.6922 4.5370 -2.5121 0.9784
1.5292 4.5946 -2.5121 0.9784
1.1976 4.6920 -2.5121 0.9784
0.8598 4.7654 -2.5121 0.9784
0.3454 4.8297 -2.5119 0.9784
0.0000 4.8417 -2.5118 0.9784
-0.3454 4.8289 -2.5115 0.9784
-0.8594 4.7635 -2.5111 0.9784
-1.0288 4.7295 -2.5109 0.9784
-1.3634 4.6434 -2.5106 0.9784
-1.5282 4.5914 -2.5104 0.9784
-1.6909 4.5335 -2.5102 0.9784
-1.8515 4.4699 -2.5099 0.9784
-2.0097 4.4005 -2.5097 0.9784
-2.1652 4.3256 -2.5095 0.9784
-3.1652 3.6529 -2.5075 0.9785
-3.4169 3.4169 -2.5069 0.9785
-3.5362 3.2923 -2.5065 0.9785
-3.6510 3.1636 -2.5062 0.9785
-3.7611 3.0309 -2.5059 0.9785
-3.8663 2.8943 -2.5055 0.9785
-3.9666 2.7541 -2.5052 0.9785
-4.0618 2.6104 -2.5048 0.9785
-4.1518 2.4634 -2.5045 0.9785
-4.3157 2.1603 -2.5038 0.9785
-4.3895 2.0046 -2.5034 0.9785
-4.6722 1.1925 -2.5015 0.9785
-4.7440 0.8559 -2.5008 0.9785
-4.7708 0.6859 -2.5004 0.9785
-4.8062 0.3437 -2.4997 0.9785
4.5621 0.3263 -2.5051 0.9794
4.5284 0.6511 -2.5057 0.9794
4.5028 0.8124 -2.5060 0.9793
4.4715 0.9727 -2.5063 0.9793
4.4345 1.1318 -2.5067 0.9793
4.3918 1.2895 -2.5070 0.9793
4.3435 1.4456 -2.5073 0.9793
4.2303 1.7522 -2.5078 0.9793
4.1655 1.9023 -2.5081 0.9793
4.0200 2.1951 -2.5086 0.9793
3.9395 2.3374 -2.5089 0.9793
3.8539 2.4767 -2.5091 0.9793
3.7634 2.6130 -2.5093 0.9793
3.6680 2.7459 -2.5095 0.9793
3.5680 2.8753 -2.5098 0.9793
3.2409 3.2409 -2.5103 0.9793
3.0019 3.4643 -2.5106 0.9793
2.7474 3.6701 -2.5109 0.9793
2.6147 3.7660 -2.5110 0.9793
2.4788 3.8571 -2.5112 0.9793
1.2919 4.3999 -2.5116 0.9793
1.1341 4.4432 -2.5116 0.9793
0.9748 4.4809 -2.5116 0.9793
0.8142 4.5128 -2.5116 0.9793
0.4902 4.5592 -2.5115 0.9793
0.1637 4.5823 -2.5113 0.9793
0.0000 4.5850 -2.5112 0.9793
-0.1637 4.5819 -2.5111 0.9793
-0.3271 4.5730 -2.5110 0.9793
-0.6524 4.5375 -2.5108 0.9793
-0.8139 4.5111 -2.5106 0.9793
-0.9743 4.4789 -2.5105 0.9793
-1.7534 4.2331 -2.5095 0.9793
-1.9032 4.1674 -2.5093 0.9793
-2.0506 4.0965 -2.5091 0.9793
-2.4760 3.8527 -2.5083 0.9793
-2.7439 3.6654 -2.5078 0.9793
-3.3491 3.1182 -2.5063 0.9793
-3.5622 2.8706 -2.5057 0.9794
-3.6619 2.7412 -2.5053 0.9794
-4.1575 1.8987 -2.5033 0.9794
-4.2221 1.7488 -2.5030 0.9794
-4.2812 1.5968 -2.5026 0.9794
-4.4255 1.1295 -2.5016 0.9794
-4.4935 0.8107 -2.5009 0.9794
-4.5387 0.4880 -2.5002 0.9794
-4.5607 0.1629 -2.4995 0.9794
4.3353 0.1548 -2.5046 0.9802
4.3143 0.4638 -2.5052 0.9802
4.2955 0.6176 -2.5055 0.9802
4.2712 0.7706 -2.5058 0.9802
4.2415 0.9227 -2.5061 0.9802
4.2064 1.0736 -2.5064 0.9801
4.1658 1.2232 -2.5067 0.9801
4.1200 1.3713 -2.5070 0.9801
4.0689 1.5176 -2.5072 0.9801
4.0125 1.6620 -2.5075 0.9801
3.8845 1.9444 -2.5080 0.9801
3.8130 2.0821 -2.5083 0.9801
3.6554 2.3492 -2.5087 0.9801
3.5696 2.4784 -2.5089 0.9801
3.4791 2.6044 -2.5091 0.9801
3.2850 2.8465 -2.5095 0.9801
3.0740 3.0740 -2.5099 0.9801
2.7282 3.3856 -2.5103 0.9801
2.4800 3.5719 -2.5106 0.9801
2.0842 3.8170 -2.5109 0.9801
1.9467 3.8890 -2.5109 0.9801
1.5199 4.0751 -2.5111 0.9801
1.3735 4.1267 -2.5111 0.9801
1.0756 4.2142 -2.5111 0.9801
0.9245 4.2499 -2.5111 0.9801
0.7722 4.2802 -2.5111 0.9801
0.6190 4.3049 -2.5110 0.9801
0.4649 4.3242 -2.5110 0.9801
0.3102 4.3379 -2.5109 0.9801
0.0000 4.3488 -2.5108 0.9801
-0.3102 4.3373 -2.5105 0.9801
-0.7720 4.2787 -2.5102 0.9801
-1.0751 4.2122 -2.5099 0.9801
-1.3726 4.1241 -2.5095 0.9801
-1.6631 4.0151 -2.5091 0.9801
-2.3485 3.6543 -2.5080 0.9801
-2.4772 3.5678 -2.5077 0.9801
-2.6027 3.4768 -2.5075 0.9801
-2.8435 3.2815 -2.5069 0.9801
-3.0696 3.0696 -2.5063 0.9801
-3.1769 2.9578 -2.5061 0.9802
-3.2800 2.8422 -2.5058 0.9802
-3.5637 2.4744 -2.5048 0.9802
-3.6493 2.3453 -2.5045 0.9802
-3.8064 2.0784 -2.5039 0.9802
-3.9439 1.8011 -2.5032 0.9802
-4.0613 1.5148 -2.5026 0.9802
-4.2629 0.7691 -2.5009 0.9802
-4.2871 0.6164 -2.5006 0.9802
-4.3058 0.4629 -2.5003 0.9802
-4.3267 0.1545 -2.4996 0.9802
