ply
format ascii 1.0
element vertex 1307
property float32 x
property float32 y
property float32 z
property float32 I
end_header
21.6881 9.9046 4.2041 0.9077
34.0673 18.6022 6.8442 0.8541
30.6269 18.1718 6.2794 0.8653
26.8713 18.6571 5.7682 0.8756
21.2528 18.4157 4.9586 0.8921
18.8638 18.8639 4.7040 0.8973
16.0741 18.5505 4.3281 0.9051
15.2317 18.9014 4.2803 0.9061
13.2473 19.0797 4.0957 0.9100
11.0377 18.6030 3.8141 0.9159
10.1630 18.6121 3.7392 0.9175
9.4908 18.9603 3.7387 0.9175
8.7464 19.1520 3.7125 0.9180
9.5171 25.5163 4.8020 0.8953
6.3689 19.1355 3.5561 0.9214
5.4793 18.6609 3.4293 0.9240
2.4862 9.7410 1.7727 0.9600
2.1154 9.7243 1.7548 0.9604
3.4516 19.1312 3.4278 0.9241
2.8137 19.5699 3.4862 0.9228
2.7507 25.5854 4.5374 0.9008
1.8263 25.5352 4.5140 0.9012
0.6883 19.2712 3.4002 0.9247
-0.0000 19.0000 3.3502 0.9257
-0.6688 18.7250 3.3038 0.9267
-2.0510 19.0773 3.3832 0.9250
-2.7739 19.2926 3.4368 0.9239
-7.0075 18.7877 3.5357 0.9218
-41.8711 17.3436 7.9913 0.8319
44.6517 18.4953 7.4040 0.8224
21.6966 9.9085 3.6540 0.9080
36.6539 18.3476 6.2794 0.8472
33.3978 18.2366 5.8294 0.8573
19.0052 19.0052 4.1175 0.8969
16.0741 18.5505 3.7603 0.9054
12.3824 19.2673 3.5086 0.9115
9.5166 25.5149 4.1718 0.8957
3.4675 19.2191 2.9918 0.9240
3.6772 25.5752 3.9583 0.9007
2.7665 25.7318 3.9647 0.9006
1.8469 25.8234 3.9661 0.9005
0.6941 19.4353 2.9793 0.9243
-1.3395 18.7287 2.8765 0.9268
-5.5855 25.6761 4.0254 0.8991
-5.6499 19.2416 3.0722 0.9221
-7.0075 18.7877 3.0719 0.9221
-16.2584 10.4487 2.9607 0.9248
-41.9169 17.3625 6.9505 0.8323
31.5716 18.7323 4.7805 0.8624
29.1852 18.7562 4.5177 0.8694
26.9612 18.7195 4.2742 0.8760
21.3450 18.4956 3.6779 0.8923
25.3502 25.3502 4.6685 0.8654
17.7550 19.0702 3.3930 0.9002
15.2571 18.9329 3.1664 0.9066
14.5322 19.4127 3.1578 0.9068
10.1630 18.6121 2.7615 0.9180
9.5252 19.0290 2.7711 0.9177
8.9057 19.5008 2.7917 0.9172
9.5235 25.5335 3.5487 0.8959
8.6297 25.9282 3.5585 0.8956
3.4736 19.2529 2.5476 0.9241
3.6884 25.6537 3.3750 0.9007
1.8796 26.2808 3.4310 0.8992
-0.6688 18.7250 2.4399 0.9272
-1.3395 18.7287 2.4451 0.9271
-2.0543 19.1078 2.5026 0.9254
-5.2850 36.7581 4.8359 0.8609
-6.0626 23.7530 3.1923 0.9058
-5.6622 19.2837 2.6172 0.9221
-6.2505 18.7798 2.5774 0.9233
-7.0075 18.7877 2.6112 0.9223
-10.2627 10.2627 1.8900 0.9431
-16.2584 10.4487 2.5167 0.9250
-41.9420 17.3729 5.9117 0.8327
21.7136 9.9163 2.5633 0.9084
31.6839 18.7989 3.9561 0.8622
26.9612 18.7195 3.5246 0.8763
20.4849 19.0721 3.0055 0.8935
25.5557 25.5558 3.8809 0.8647
23.7563 25.5161 3.7437 0.8691
15.2781 18.9590 2.6146 0.9067
13.4088 19.3124 2.5246 0.9098
10.6511 17.9514 2.2414 0.9195
10.1630 18.6121 2.2771 0.9182
9.5427 25.5851 2.9323 0.8960
5.4793 18.6609 2.0884 0.9247
2.1163 9.7287 1.0691 0.9607
3.6968 25.7118 2.7894 0.9008
2.8244 26.2709 2.8373 0.8992
0.6749 18.8980 2.0306 0.9267
-2.0361 18.9381 2.0453 0.9262
-2.7219 18.9309 2.0537 0.9259
-5.5335 30.6699 3.3466 0.8822
-6.2505 18.7798 2.1254 0.9235
-7.0075 18.7877 2.1532 0.9225
-41.9669 17.3833 4.8778 0.8330
44.0845 18.2604 4.0394 0.8257
21.7220 9.9201 2.0215 0.9086
33.5707 18.3310 3.2379 0.8577
31.9300 18.9450 3.1429 0.8615
38.6969 24.8690 3.8939 0.8314
26.2389 19.6422 2.7746 0.8767
21.3450 18.4956 2.3909 0.8928
20.1349 18.7463 2.3289 0.8954
17.4391 18.7309 2.1665 0.9024
15.1152 18.7568 2.0392 0.9078
14.4879 19.3536 2.0465 0.9075
12.1228 18.8635 1.8982 0.9139
10.1630 18.6121 1.7951 0.9184
8.8609 19.4027 1.8057 0.9179
10.4231 25.1636 2.3057 0.8964
2.1167 9.7301 0.8429 0.9608
1.8562 10.2884 0.8850 0.9589
2.7904 25.9544 2.2098 0.9005
-0.0000 19.0030 1.6087 0.9266
-0.6688 18.7250 1.5861 0.9275
-5.5335 30.6698 2.6382 0.8824
-5.9321 23.2415 2.0305 0.9082
-7.0075 18.7877 1.6975 0.9227
-41.9918 17.3936 3.8476 0.8332
-34.9526 2.4999 2.9664 0.8688
-35.0263 1.2510 2.9670 0.8688
44.0845 18.2604 2.9589 0.8259
33.6375 18.3675 2.3765 0.8576
31.5548 18.7223 2.2752 0.8633
25.9102 19.3961 2.0070 0.8783
22.0937 17.8042 1.7595 0.8925
21.3450 18.4956 1.7514 0.8930
20.2526 18.8558 1.7159 0.8950
16.0741 18.5505 1.5221 0.9063
17.6121 25.3663 1.9149 0.8836
12.1219 18.8620 1.3904 0.9141
9.4606 18.8999 1.3106 0.9188
8.8618 19.4047 1.3228 0.9181
10.4231 25.1636 1.6890 0.8966
6.2987 18.9245 1.2368 0.9232
5.4793 18.6609 1.2060 0.9250
1.8502 10.2552 0.6462 0.9591
3.6681 25.5123 1.5983 0.9019
2.8047 26.0872 1.6270 0.9002
1.8665 26.0970 1.6224 0.9005
0.6779 18.9811 1.1778 0.9267
0.0000 19.0017 1.1783 0.9267
-0.6688 18.7250 1.1619 0.9277
-2.7338 19.0140 1.1912 0.9259
-5.5335 30.6699 1.9326 0.8826
-5.5931 19.0484 1.2311 0.9235
-6.2505 18.7798 1.2274 0.9237
-7.0075 18.7877 1.2434 0.9228
-42.0166 17.4038 2.8201 0.8334
-34.8027 8.8829 2.2273 0.8659
44.0845 18.2604 1.8815 0.8261
33.6375 18.3675 1.5112 0.8578
29.0799 18.6886 1.3630 0.8708
21.3450 18.4956 1.1137 0.8931
20.2538 18.8569 1.0912 0.8951
25.8471 25.8471 1.4413 0.8639
17.5136 18.8110 1.0134 0.9022
16.0741 18.5505 0.9679 0.9064
17.6107 25.3642 1.2176 0.8837
11.0376 18.6030 0.8529 0.9171
10.1630 18.6121 0.8362 0.9186
9.4599 18.8984 0.8333 0.9189
10.4231 25.1636 1.0740 0.8967
9.4932 25.4523 1.0711 0.8970
2.4948 9.7744 0.3978 0.9604
1.8443 10.2224 0.4096 0.9593
1.8848 26.3538 1.0418 0.8996
0.6779 18.9798 0.7489 0.9268
-0.0000 19.0004 0.7492 0.9268
-0.6688 18.7250 0.7388 0.9277
-1.3395 18.7287 0.7404 0.9276
-2.0448 19.0192 0.7543 0.9263
-2.7336 19.0126 0.7574 0.9260
-5.5335 30.6698 1.2289 0.8827
-5.5855 25.6761 1.0361 0.9002
-5.5927 19.0470 0.7828 0.9236
-6.2505 18.7798 0.7804 0.9238
-7.0075 18.7877 0.7907 0.9229
-42.0413 17.4141 1.7943 0.8335
37.3827 18.7124 0.7062 0.8460
26.9612 18.7195 0.5544 0.8769
23.2657 18.7487 0.5047 0.8873
20.2550 18.8580 0.4675 0.8952
17.6093 25.3622 0.5216 0.8838
12.1199 18.8590 0.3787 0.9142
11.0377 18.6030 0.3654 0.9171
10.1630 18.6121 0.3582 0.9187
10.4231 25.1636 0.4601 0.8968
9.4925 25.4505 0.4588 0.8970
6.2978 18.9218 0.3369 0.9233
2.1176 9.7345 0.1683 0.9609
1.8385 10.1899 0.1749 0.9594
3.6676 25.5088 0.4353 0.9020
0.6778 18.9785 0.3208 0.9268
-0.6688 18.7250 0.3165 0.9278
-1.3395 18.7287 0.3172 0.9276
-2.7334 19.0113 0.3244 0.9260
-5.5855 25.6761 0.4439 0.9002
-5.9550 23.3314 0.4067 0.9082
-5.5923 19.0457 0.3353 0.9237
-7.0075 18.7877 0.3387 0.9229
-34.7263 10.1966 0.6114 0.8652
44.0845 18.2604 -0.2687 0.8262
21.7556 9.9354 -0.1347 0.9088
37.3844 18.7133 -0.2354 0.8460
33.6375 18.3675 -0.2157 0.8579
23.2632 18.7467 -0.1682 0.8874
21.3450 18.4956 -0.1590 0.8932
14.5793 19.4757 -0.1370 0.9073
17.6078 25.3601 -0.1738 0.8838
12.1190 18.8575 -0.1262 0.9142
10.1630 18.6121 -0.1194 0.9187
8.8646 19.4108 -0.1201 0.9182
10.4231 25.1636 -0.1533 0.8968
6.2973 18.9204 -0.1123 0.9233
2.1179 9.7359 -0.0561 0.9609
1.8326 10.1576 -0.0581 0.9596
3.6674 25.5070 -0.1451 0.9021
2.8323 26.3439 -0.1492 0.8994
1.8848 26.3538 -0.1488 0.8997
0.6778 18.9772 -0.1069 0.9269
-0.6688 18.7250 -0.1055 0.9278
-2.0445 19.0166 -0.1077 0.9263
-5.5335 30.6699 -0.1755 0.8828
-5.5855 25.6761 -0.1479 0.9002
-5.5919 19.0443 -0.1117 0.9237
-6.2505 18.7798 -0.1114 0.9239
-7.0075 18.7877 -0.1129 0.9229
-42.0908 17.4346 -0.2565 0.8334
21.7639 9.9392 -0.6737 0.9087
33.6375 18.3675 -1.0792 0.8578
31.6785 18.7958 -1.0372 0.8630
29.0694 18.6818 -0.9730 0.8709
25.9940 19.4589 -0.9143 0.8782
20.2573 18.8603 -0.7793 0.8952
25.8471 25.8471 -1.0293 0.8639
17.5089 18.8059 -0.7235 0.9023
16.0741 18.5505 -0.6911 0.9064
14.5802 19.4769 -0.6851 0.9072
10.1630 18.6121 -0.5971 0.9186
8.8655 19.4128 -0.6009 0.9181
9.4911 25.4467 -0.7647 0.8970
6.2969 18.9191 -0.5615 0.9233
1.8268 10.1254 -0.2897 0.9597
3.6671 25.5052 -0.7256 0.9020
2.8323 26.3439 -0.7461 0.8994
0.0000 18.9965 -0.5349 0.9268
-1.3395 18.7287 -0.5287 0.9276
-2.7330 19.0087 -0.5407 0.9260
-5.5335 30.6698 -0.8775 0.8828
-5.5915 19.0429 -0.5588 0.9237
48.9208 1.7472 -2.4826 0.8220
48.4538 6.9666 -2.4826 0.8220
40.9874 8.9163 -2.1273 0.8454
41.0282 10.4718 -2.1474 0.8440
43.5994 14.5113 -2.3304 0.8319
43.0537 16.0582 -2.3304 0.8319
42.4531 17.5847 -2.3304 0.8319
21.7723 9.9431 -1.2139 0.9086
33.6375 18.3675 -1.9436 0.8577
31.6216 18.7620 -1.8647 0.8631
25.9383 19.4172 -1.6432 0.8783
23.2583 18.7427 -1.5149 0.8872
20.2585 18.8614 -1.4037 0.8951
17.5073 18.8042 -1.3030 0.9022
16.0741 18.5505 -1.2448 0.9064
15.1764 18.8328 -1.2266 0.9077
17.6049 25.3560 -1.5655 0.8837
10.1630 18.6121 -1.0755 0.9186
9.4570 18.8927 -1.0715 0.9189
10.4231 25.1636 -1.3813 0.8967
9.4904 25.4449 -1.3773 0.8969
5.4793 18.6609 -0.9863 0.9251
2.1185 9.7388 -0.5054 0.9609
1.8211 10.0935 -0.5201 0.9598
2.8323 26.3439 -1.3437 0.8993
1.8848 26.3538 -1.3399 0.8996
-0.0000 18.9952 -0.9633 0.9267
-0.6688 18.7250 -0.9502 0.9277
-2.0442 19.0140 -0.9698 0.9263
-5.5335 30.6698 -1.5805 0.8827
-5.5911 19.0416 -1.0064 0.9236
-18.7331 45.2258 -2.4826 0.8220
-21.9118 43.7742 -2.4826 0.8220
-23.4602 42.9642 -2.4826 0.8220
-24.9788 42.0995 -2.4826 0.8220
-26.4655 41.1811 -2.4826 0.8220
-31.8029 36.7025 -2.4629 0.8232
-10.1567 10.1567 -0.7284 0.9441
-36.7856 27.5373 -2.3304 0.8319
-37.7450 26.2069 -2.3304 0.8319
-40.3302 22.0219 -2.3304 0.8319
-41.0905 20.5684 -2.3304 0.8319
-41.7984 19.0887 -2.3304 0.8319
-41.2646 17.0924 -2.2651 0.8362
-43.5994 14.5113 -2.3304 0.8319
-34.6502 10.1743 -1.8314 0.8653
-44.9008 9.7676 -2.3304 0.8319
-48.4538 6.9666 -2.4826 0.8220
-48.6716 5.2327 -2.4826 0.8220
-48.8273 3.4922 -2.4826 0.8220
-48.9208 1.7472 -2.4826 0.8220
33.8368 1.2085 -2.4826 0.8730
33.7721 2.4154 -2.4826 0.8730
33.6643 3.6193 -2.4826 0.8730
33.3204 6.0117 -2.4826 0.8730
30.7953 7.8601 -2.3304 0.8803
30.4952 8.9542 -2.3304 0.8803
29.7787 11.1069 -2.3304 0.8803
27.3335 16.2177 -2.3304 0.8803
25.4433 19.0466 -2.3304 0.8803
23.1877 18.6859 -2.1835 0.8874
21.3450 18.4956 -2.0709 0.8929
17.5648 25.2981 -2.2582 0.8838
12.0809 18.7982 -1.6384 0.9143
10.1630 18.6121 -1.5549 0.9185
8.8674 19.4170 -1.5651 0.9179
9.4683 25.3854 -1.9866 0.8970
2.1189 9.7403 -0.7309 0.9608
1.8153 10.0617 -0.7497 0.9598
2.8323 26.3439 -1.9427 0.8992
0.6776 18.9733 -1.3921 0.9267
-0.6688 18.7250 -1.3738 0.9276
-5.5335 30.6698 -2.2851 0.8825
-5.5855 25.6761 -1.9267 0.9000
-6.2505 18.7798 -1.4512 0.9237
-7.0075 18.7877 -1.4703 0.9227
-12.1627 29.3633 -2.3304 0.8803
-15.1556 30.2770 -2.4826 0.8730
-17.2769 29.1187 -2.4826 0.8730
-18.3052 28.4835 -2.4826 0.8730
-20.2905 27.1050 -2.4826 0.8730
-21.2451 26.3635 -2.4826 0.8730
-22.1725 25.5884 -2.4826 0.8730
-24.7807 23.0717 -2.4826 0.8730
-25.5885 22.1725 -2.4826 0.8730
-27.1050 20.2905 -2.4826 0.8730
-27.8120 19.3102 -2.4826 0.8730
-28.4835 18.3052 -2.4826 0.8730
-29.1187 17.2769 -2.4826 0.8730
-29.7168 16.2266 -2.4826 0.8730
-30.2770 15.1556 -2.4826 0.8730
-32.1257 10.6925 -2.4826 0.8730
-32.8066 8.3734 -2.4826 0.8730
-33.5137 4.8186 -2.4826 0.8730
-33.6644 3.6193 -2.4826 0.8730
-33.7721 2.4154 -2.4826 0.8730
-33.8368 1.2085 -2.4826 0.8730
25.7106 2.7642 -2.4826 0.9013
25.5955 3.6801 -2.4826 0.9013
25.4479 4.5913 -2.4826 0.9013
21.5572 8.9293 -2.2401 0.9105
20.7994 11.3573 -2.2751 0.9092
20.8754 12.3860 -2.3304 0.9071
20.4201 13.1232 -2.3304 0.9071
19.9387 13.8437 -2.3304 0.9071
11.0377 18.6030 -2.0767 0.9167
10.1630 18.6121 -2.0359 0.9183
9.2890 22.4257 -2.3304 0.9071
8.4827 22.7429 -2.3304 0.9071
5.4793 18.6609 -1.8672 0.9248
2.1192 9.7417 -0.9571 0.9607
2.5947 24.1343 -2.3304 0.9071
1.7316 24.2115 -2.3304 0.9071
-0.0000 18.9343 -1.8178 0.9267
-0.6688 18.7250 -1.7988 0.9275
-1.3395 18.7287 -1.8026 0.9273
-4.3098 23.8877 -2.3304 0.9071
-7.0075 18.7877 -1.9251 0.9226
-9.2890 22.4257 -2.3304 0.9071
-10.8652 21.7059 -2.3304 0.9071
-11.6330 21.3042 -2.3304 0.9071
-12.3860 20.8755 -2.3304 0.9071
-13.9803 21.7537 -2.4826 0.9013
-14.7478 21.2409 -2.4826 0.9013
-16.2255 20.1347 -2.4826 0.9013
-16.9339 19.5427 -2.4826 0.9013
-17.6206 18.9259 -2.4826 0.9013
-18.2849 18.2849 -2.4826 0.9013
-20.7010 15.4965 -2.4826 0.9013
-24.5354 8.1662 -2.4826 0.9013
-25.2678 5.4967 -2.4826 0.9013
-25.7106 2.7642 -2.4826 0.9013
-25.7929 1.8447 -2.4826 0.9013
-25.8423 0.9230 -2.4826 0.9013
20.8463 1.4910 -2.4826 0.9193
20.6868 2.9743 -2.4826 0.9193
20.4219 4.4425 -2.4826 0.9193
20.2503 5.1686 -2.4826 0.9193
20.0529 5.8881 -2.4826 0.9193
19.5750 7.3011 -2.4817 0.9193
18.6244 7.7145 -2.3946 0.9220
17.8454 8.1497 -2.3304 0.9240
17.5431 8.7815 -2.3304 0.9240
16.8719 10.0106 -2.3304 0.9240
16.1148 11.1887 -2.3304 0.9240
15.2756 12.3098 -2.3304 0.9240
14.8264 12.8472 -2.3304 0.9240
14.3585 13.3682 -2.3304 0.9240
13.8721 13.8722 -2.3304 0.9240
12.8472 14.8265 -2.3304 0.9240
12.3098 15.2756 -2.3304 0.9240
11.7568 15.7052 -2.3304 0.9240
11.1887 16.1148 -2.3304 0.9240
10.6064 16.5039 -2.3304 0.9240
10.0106 16.8719 -2.3304 0.9240
9.4020 17.2185 -2.3304 0.9240
8.7814 17.5431 -2.3304 0.9240
8.1497 17.8454 -2.3304 0.9240
7.5076 18.1249 -2.3304 0.9240
6.8559 18.3813 -2.3304 0.9240
6.1954 18.6143 -2.3304 0.9240
5.4793 18.6609 -2.3102 0.9246
2.5047 9.8133 -1.2031 0.9600
2.1195 9.7432 -1.1844 0.9606
2.7920 19.4185 -2.3304 0.9240
2.0971 19.5058 -2.3304 0.9240
0.6755 18.9150 -2.2483 0.9266
-0.6688 18.7250 -2.2257 0.9273
-1.3395 18.7287 -2.2304 0.9272
-2.0375 18.9516 -2.2642 0.9261
-4.1702 19.1699 -2.3304 0.9240
-4.8517 19.0088 -2.3304 0.9240
-5.5271 18.8235 -2.3304 0.9240
-6.1954 18.6143 -2.3304 0.9240
-7.5076 18.1249 -2.3304 0.9240
-8.1497 17.8454 -2.3304 0.9240
-8.7814 17.5431 -2.3304 0.9240
-9.4020 17.2185 -2.3304 0.9240
-12.3098 15.2756 -2.3304 0.9240
-13.6863 15.7948 -2.4826 0.9193
-14.2413 15.2962 -2.4826 0.9193
-10.1626 10.1626 -1.7072 0.9438
-15.2962 14.2413 -2.4826 0.9193
-16.2732 13.1138 -2.4826 0.9193
-16.7309 12.5246 -2.4826 0.9193
-17.1673 11.9195 -2.4826 0.9193
-17.9739 10.6644 -2.4826 0.9193
-18.6889 9.3550 -2.4826 0.9193
-19.8300 6.6001 -2.4826 0.9193
-20.0529 5.8881 -2.4826 0.9193
-20.5674 3.7108 -2.4826 0.9193
-20.6868 2.9743 -2.4826 0.9193
-20.8862 0.7460 -2.4826 0.9193
17.5212 0.0000 -2.4826 0.9317
17.4766 1.2500 -2.4826 0.9317
17.3429 2.4935 -2.4826 0.9317
17.2428 3.1110 -2.4826 0.9317
17.1208 3.7244 -2.4826 0.9317
16.6246 5.5332 -2.4826 0.9317
16.4165 6.1230 -2.4826 0.9317
16.1875 6.7051 -2.4826 0.9317
15.3950 7.7062 -2.4393 0.9328
13.1665 9.8563 -2.3304 0.9357
12.8063 10.3200 -2.3304 0.9357
12.4298 10.7705 -2.3304 0.9357
11.2073 12.0375 -2.3304 0.9357
10.7705 12.4298 -2.3304 0.9357
9.3801 13.5099 -2.3304 0.9357
8.8919 13.8361 -2.3304 0.9357
6.8323 14.9607 -2.3304 0.9357
3.3762 11.4982 -1.6979 0.9527
2.1198 9.7447 -1.4130 0.9605
1.7982 9.9666 -1.4350 0.9599
2.3407 16.2796 -2.3304 0.9357
1.1733 16.4051 -2.3304 0.9357
-0.5870 16.4365 -2.3304 0.9357
-2.3407 16.2796 -2.3304 0.9357
-3.4961 16.0712 -2.3304 0.9357
-4.0675 15.9361 -2.3304 0.9357
-5.7476 15.4100 -2.3304 0.9357
-6.2940 15.1951 -2.3304 0.9357
-7.3620 14.7073 -2.3304 0.9357
-7.8822 14.4352 -2.3304 0.9357
-9.8563 13.1665 -2.3304 0.9357
-10.7705 12.4298 -2.3304 0.9357
-11.2073 12.0375 -2.3304 0.9357
-10.1201 10.1201 -2.0278 0.9438
-14.3923 9.9927 -2.4826 0.9317
-15.0685 8.9405 -2.4826 0.9317
-15.3780 8.3970 -2.4826 0.9317
-16.1875 6.7051 -2.4826 0.9317
-16.4165 6.1230 -2.4826 0.9317
-16.6246 5.5332 -2.4826 0.9317
-16.8115 4.9363 -2.4826 0.9317
-16.9769 4.3331 -2.4826 0.9317
-17.2428 3.1109 -2.4826 0.9317
-17.3429 2.4935 -2.4826 0.9317
-17.4766 1.2499 -2.4826 0.9317
-17.5100 0.6254 -2.4826 0.9317
15.0601 0.5379 -2.4826 0.9407
15.0313 1.0751 -2.4826 0.9407
14.9833 1.6109 -2.4826 0.9407
14.6016 3.7268 -2.4826 0.9407
14.1196 5.2663 -2.4826 0.9407
13.9226 5.7669 -2.4826 0.9407
13.2263 7.2221 -2.4826 0.9407
12.0160 7.7222 -2.3530 0.9437
11.3243 8.4773 -2.3304 0.9443
11.0145 8.8760 -2.3304 0.9443
10.6907 9.2635 -2.3304 0.9443
9.2635 10.6907 -2.3304 0.9443
7.6478 11.9002 -2.3304 0.9443
6.3319 12.6495 -2.3304 0.9443
5.4134 13.0690 -2.3304 0.9443
4.9434 13.2539 -2.3304 0.9443
3.3762 11.4982 -1.9742 0.9526
1.0091 14.1098 -2.3304 0.9443
0.5049 14.1368 -2.3304 0.9443
-0.5049 14.1368 -2.3304 0.9443
-1.0091 14.1098 -2.3304 0.9443
-1.5121 14.0647 -2.3304 0.9443
-2.5116 13.9210 -2.3304 0.9443
-3.0069 13.8225 -2.3304 0.9443
-3.9853 13.5728 -2.3304 0.9443
-5.4134 13.0690 -2.3304 0.9443
-7.6478 11.9002 -2.3304 0.9443
-8.8760 11.0145 -2.3304 0.9443
-10.0026 10.0026 -2.3304 0.9443
-11.3889 9.8685 -2.4826 0.9407
-12.0639 9.0309 -2.4826 0.9407
-12.3785 8.5946 -2.4826 0.9407
-12.6774 8.1473 -2.4826 0.9407
-12.9601 7.6896 -2.4826 0.9407
-13.2263 7.2221 -2.4826 0.9407
-13.4757 6.7454 -2.4826 0.9407
-14.1195 5.2663 -2.4826 0.9407
-14.2985 4.7590 -2.4826 0.9407
-14.6016 3.7268 -2.4826 0.9407
-14.7253 3.2033 -2.4826 0.9407
-14.8302 2.6757 -2.4826 0.9407
-14.9833 1.6109 -2.4826 0.9407
-15.0601 0.5379 -2.4826 0.9407
13.1995 0.4714 -2.4826 0.9477
13.1742 0.9422 -2.4826 0.9477
13.1322 1.4119 -2.4826 0.9477
12.9061 2.8075 -2.4826 0.9477
12.7976 3.2664 -2.4826 0.9477
12.2025 5.0544 -2.4826 0.9477
11.8108 5.9121 -2.4826 0.9477
11.5923 6.3299 -2.4826 0.9477
11.3590 6.7396 -2.4826 0.9477
10.8293 7.5189 -2.4780 0.9478
9.3699 8.1191 -2.3304 0.9508
8.4483 9.0741 -2.3304 0.9508
7.0709 10.1841 -2.3304 0.9508
5.5496 11.0867 -2.3304 0.9508
4.7446 11.4544 -2.3304 0.9508
3.3835 9.0716 -1.8198 0.9614
2.6523 9.0328 -1.7695 0.9624
1.9569 8.9960 -1.7304 0.9632
1.6382 11.3941 -2.1637 0.9542
0.4425 12.3903 -2.3304 0.9508
-0.4425 12.3903 -2.3304 0.9508
-0.8845 12.3666 -2.3304 0.9508
-1.3253 12.3271 -2.3304 0.9508
-3.0661 12.0130 -2.3304 0.9508
-5.5496 11.0867 -2.3304 0.9508
-5.9418 10.8816 -2.3304 0.9508
-6.3264 10.6626 -2.3304 0.9508
-6.7030 10.4300 -2.3304 0.9508
-8.8465 8.8465 -2.3516 0.9504
-9.6566 8.9907 -2.4800 0.9477
-9.9819 8.6493 -2.4826 0.9477
-10.8492 7.5328 -2.4826 0.9477
-11.1112 7.1407 -2.4826 0.9477
-11.3590 6.7396 -2.4826 0.9477
-11.8108 5.9121 -2.4826 0.9477
-12.9980 2.3451 -2.4826 0.9477
-13.0735 1.8797 -2.4826 0.9477
-13.1995 0.4714 -2.4826 0.9477
11.7371 0.4192 -2.4826 0.9531
11.6773 1.2554 -2.4826 0.9531
11.6250 1.6714 -2.4826 0.9531
11.5580 2.0853 -2.4826 0.9531
11.4762 2.4965 -2.4826 0.9531
11.3798 2.9045 -2.4826 0.9531
11.1436 3.7089 -2.4826 0.9531
11.0041 4.1043 -2.4826 0.9531
10.8506 4.4945 -2.4826 0.9531
10.6832 4.8789 -2.4826 0.9531
10.5023 5.2571 -2.4826 0.9531
10.1005 5.9929 -2.4826 0.9531
9.8802 6.3496 -2.4826 0.9531
9.6472 6.6982 -2.4826 0.9531
9.4020 7.0383 -2.4826 0.9531
9.1377 7.3636 -2.4806 0.9532
8.2862 7.7148 -2.3932 0.9548
7.5123 8.0688 -2.3304 0.9559
7.2195 8.3318 -2.3304 0.9559
6.6068 8.8256 -2.3304 0.9559
6.2875 9.0558 -2.3304 0.9559
5.9603 9.2744 -2.3304 0.9559
5.2835 9.6760 -2.3304 0.9559
4.9348 9.8584 -2.3304 0.9559
3.3835 9.0716 -2.0466 0.9612
3.0128 9.0519 -2.0166 0.9617
1.9569 8.9960 -1.9460 0.9631
1.6198 8.9781 -1.9284 0.9634
1.2883 8.9605 -1.9135 0.9637
0.7865 10.9965 -2.3304 0.9559
0.3935 11.0175 -2.3304 0.9559
-0.7865 10.9965 -2.3304 0.9559
-1.1785 10.9614 -2.3304 0.9559
-1.5690 10.9123 -2.3304 0.9559
-1.9574 10.8494 -2.3304 0.9559
-2.3434 10.7726 -2.3304 0.9559
-2.7264 10.6821 -2.3304 0.9559
-2.4303 8.2769 -1.8234 0.9653
-3.8527 10.3294 -2.3304 0.9559
-4.2189 10.1853 -2.3304 0.9559
-4.5798 10.0283 -2.3304 0.9559
-4.9348 9.8584 -2.3304 0.9559
-5.9603 9.2744 -2.3304 0.9559
-6.2876 9.0558 -2.3304 0.9559
-6.6068 8.8256 -2.3304 0.9559
-7.2195 8.3318 -2.3304 0.9559
-7.7255 8.2978 -2.3965 0.9547
-8.2915 8.2915 -2.4786 0.9532
-8.5958 8.0030 -2.4826 0.9531
-9.1448 7.3694 -2.4826 0.9531
-9.4020 7.0383 -2.4826 0.9531
-10.3080 5.6286 -2.4826 0.9531
-10.5023 5.2571 -2.4826 0.9531
-11.3798 2.9045 -2.4826 0.9531
-11.4762 2.4965 -2.4826 0.9531
10.5631 -0.0000 -2.4826 0.9575
10.5563 0.3770 -2.4826 0.9575
10.5362 0.7536 -2.4826 0.9575
10.5026 1.1291 -2.4826 0.9575
10.1352 2.9760 -2.4826 0.9575
10.0225 3.3358 -2.4826 0.9575
9.8971 3.6914 -2.4826 0.9575
9.6085 4.3881 -2.4826 0.9575
9.4458 4.7282 -2.4826 0.9575
9.2710 5.0623 -2.4826 0.9575
8.6767 6.0244 -2.4826 0.9575
8.4562 6.3302 -2.4826 0.9575
8.2249 6.6280 -2.4826 0.9575
7.7311 7.1979 -2.4826 0.9575
7.1690 7.7001 -2.4726 0.9577
6.6840 7.7137 -2.3988 0.9589
6.2290 7.7298 -2.3331 0.9600
5.6550 8.1448 -2.3304 0.9601
5.3607 8.3414 -2.3304 0.9601
5.0596 8.5275 -2.3304 0.9601
4.4383 8.8667 -2.3304 0.9601
3.7945 9.1607 -2.3304 0.9601
2.9728 8.9319 -2.2124 0.9621
2.2767 8.9203 -2.1637 0.9629
1.9569 8.9958 -2.1637 0.9629
0.9841 9.1535 -2.1637 0.9629
0.3539 9.9092 -2.3304 0.9601
-0.3539 9.9092 -2.3304 0.9601
-1.0599 9.8587 -2.3304 0.9601
-1.4111 9.8146 -2.3304 0.9601
-3.1313 9.4081 -2.3304 0.9601
-3.4651 9.2903 -2.3304 0.9601
-3.7945 9.1607 -2.3304 0.9601
-4.4383 8.8667 -2.3304 0.9601
-4.7520 8.7026 -2.3304 0.9601
-5.0596 8.5275 -2.3304 0.9601
-5.6550 8.1448 -2.3304 0.9601
-5.9421 7.9378 -2.3304 0.9601
-6.8982 7.9610 -2.4757 0.9576
-7.1930 7.7258 -2.4809 0.9576
-7.7311 7.1979 -2.4826 0.9575
-8.2249 6.6280 -2.4826 0.9575
-8.6767 6.0244 -2.4826 0.9575
-9.4458 4.7282 -2.4826 0.9575
-9.6085 4.3881 -2.4826 0.9575
-9.7590 4.0423 -2.4826 0.9575
-10.0225 3.3358 -2.4826 0.9575
-10.1352 2.9760 -2.4826 0.9575
-10.2350 2.6123 -2.4826 0.9575
-10.3217 2.2454 -2.4826 0.9575
-10.3953 1.8755 -2.4826 0.9575
-10.5026 1.1292 -2.4826 0.9575
-10.5362 0.7536 -2.4826 0.9575
-10.5564 0.3770 -2.4826 0.9575
9.5821 0.3422 -2.4826 0.9612
9.5638 0.6840 -2.4826 0.9612
9.4906 1.3646 -2.4826 0.9612
9.3691 2.0381 -2.4826 0.9612
9.1998 2.7013 -2.4826 0.9612
8.9837 3.3507 -2.4826 0.9612
8.8584 3.6693 -2.4826 0.9612
8.7218 3.9831 -2.4826 0.9612
8.5740 4.2919 -2.4826 0.9612
8.4154 4.5952 -2.4826 0.9612
8.0661 5.1838 -2.4826 0.9612
7.4658 6.0163 -2.4826 0.9612
7.2463 6.2790 -2.4826 0.9612
7.0176 6.5336 -2.4826 0.9612
6.0079 7.4553 -2.4791 0.9612
5.7301 7.6546 -2.4757 0.9613
4.5926 7.7405 -2.3304 0.9635
4.0287 8.0484 -2.3304 0.9635
3.1453 8.4329 -2.3304 0.9635
2.5357 8.6358 -2.3304 0.9635
1.9132 8.7947 -2.3304 0.9635
0.3212 8.9947 -2.3304 0.9635
-0.0000 9.0004 -2.3304 0.9635
-0.3212 8.9947 -2.3304 0.9635
-1.2809 8.9088 -2.3304 0.9635
-1.9132 8.7947 -2.3304 0.9635
-2.2259 8.7208 -2.3304 0.9635
-2.4129 8.2177 -2.2175 0.9652
-2.7362 8.2209 -2.2433 0.9648
-3.1453 8.4329 -2.3304 0.9635
-3.4443 8.3153 -2.3304 0.9635
-3.7389 8.1871 -2.3304 0.9635
-4.0287 8.0484 -2.3304 0.9635
-5.7328 7.6582 -2.4769 0.9612
-6.2790 7.2463 -2.4826 0.9612
-6.5336 7.0176 -2.4826 0.9612
-7.2463 6.2790 -2.4826 0.9612
-7.4658 6.0163 -2.4826 0.9612
-7.6758 5.7460 -2.4826 0.9612
-7.8760 5.4684 -2.4826 0.9612
-8.8584 3.6693 -2.4826 0.9612
-8.9837 3.3507 -2.4826 0.9612
-9.0976 3.0280 -2.4826 0.9612
-9.2904 2.3712 -2.4826 0.9612
-9.3691 2.0381 -2.4826 0.9612
-9.4359 1.7024 -2.4826 0.9612
-9.4906 1.3646 -2.4826 0.9612
-9.5333 1.0249 -2.4826 0.9612
-9.5821 0.3422 -2.4826 0.9612
8.7694 0.0000 -2.4826 0.9642
8.6802 1.2480 -2.4826 0.9642
8.6301 1.5570 -2.4826 0.9642
8.5690 1.8641 -2.4826 0.9642
8.4970 2.1687 -2.4826 0.9642
8.3207 2.7694 -2.4826 0.9642
8.2165 3.0646 -2.4826 0.9642
8.1019 3.3559 -2.4826 0.9642
7.5418 4.4748 -2.4826 0.9642
7.3773 4.7411 -2.4826 0.9642
6.8283 5.5025 -2.4826 0.9642
6.6275 5.7428 -2.4826 0.9642
6.4183 5.9757 -2.4826 0.9642
6.2009 6.2009 -2.4826 0.9642
5.9757 6.4183 -2.4826 0.9642
5.5025 6.8283 -2.4826 0.9642
5.2553 7.0203 -2.4826 0.9642
4.4663 7.5276 -2.4779 0.9643
4.1906 7.6745 -2.4754 0.9643
3.5226 7.7134 -2.4005 0.9654
3.1977 7.7199 -2.3655 0.9659
2.8824 7.7280 -2.3350 0.9663
2.5996 7.8106 -2.3304 0.9664
2.3192 7.8984 -2.3304 0.9664
2.0358 7.9761 -2.3304 0.9664
1.7498 8.0437 -2.3304 0.9664
1.4616 8.1010 -2.3304 0.9664
1.1715 8.1480 -2.3304 0.9664
0.5872 8.2108 -2.3304 0.9664
0.0000 8.2318 -2.3304 0.9664
-0.5873 8.2108 -2.3304 0.9664
-1.7498 8.0437 -2.3304 0.9664
-2.5996 7.8106 -2.3304 0.9664
-3.1977 7.7199 -2.3655 0.9659
-3.5226 7.7134 -2.4005 0.9654
-5.0014 7.2034 -2.4826 0.9642
-5.2553 7.0203 -2.4826 0.9642
-5.5026 6.8283 -2.4826 0.9642
-5.7428 6.6275 -2.4826 0.9642
-5.9757 6.4183 -2.4826 0.9642
-6.2009 6.2009 -2.4826 0.9642
-7.5418 4.4748 -2.4826 0.9642
-8.3207 2.7694 -2.4826 0.9642
-8.4970 2.1687 -2.4826 0.9642
-8.6301 1.5570 -2.4826 0.9642
-8.7471 0.6256 -2.4826 0.9642
-8.7639 0.3130 -2.4826 0.9642
8.0713 -0.0000 -2.4826 0.9668
8.0508 0.5758 -2.4826 0.9668
8.0251 0.8628 -2.4826 0.9668
7.9892 1.1487 -2.4826 0.9668
7.9431 1.4331 -2.4826 0.9668
7.8206 1.9961 -2.4826 0.9668
7.6583 2.5489 -2.4826 0.9668
7.4569 3.0888 -2.4826 0.9668
7.3419 3.3530 -2.4826 0.9668
7.0840 3.8682 -2.4826 0.9668
6.7900 4.3637 -2.4826 0.9668
6.6300 4.6033 -2.4826 0.9668
6.4614 4.8370 -2.4826 0.9668
6.2847 5.0645 -2.4826 0.9668
5.0645 6.2847 -2.4826 0.9668
3.8682 7.0840 -2.4826 0.9668
3.6129 7.2176 -2.4826 0.9668
2.8149 7.5471 -2.4775 0.9669
1.9666 7.7050 -2.4459 0.9673
1.6769 7.7086 -2.4265 0.9675
1.1091 7.7140 -2.3971 0.9679
0.0000 7.7183 -2.3740 0.9682
-0.2757 7.7181 -2.3754 0.9682
-0.8296 7.7159 -2.3869 0.9680
-1.6769 7.7086 -2.4265 0.9675
-2.2612 7.7008 -2.4686 0.9670
-2.5422 7.6380 -2.4760 0.9669
-2.8149 7.5471 -2.4775 0.9669
-3.3509 7.3376 -2.4811 0.9668
-3.6129 7.2176 -2.4826 0.9668
-3.8682 7.0840 -2.4826 0.9668
-4.1186 6.9415 -2.4826 0.9668
-4.3637 6.7900 -2.4826 0.9668
-4.6033 6.6300 -2.4826 0.9668
-5.0645 6.2847 -2.4826 0.9668
-5.2856 6.0999 -2.4826 0.9668
-5.5000 5.9074 -2.4826 0.9668
-5.7073 5.7073 -2.4826 0.9668
-5.9074 5.5000 -2.4826 0.9668
-6.2847 5.0645 -2.4826 0.9668
-6.4614 4.8370 -2.4826 0.9668
-6.7900 4.3637 -2.4826 0.9668
-6.9415 4.1186 -2.4826 0.9668
-7.0840 3.8682 -2.4826 0.9668
-7.2176 3.6129 -2.4826 0.9668
-7.3419 3.3529 -2.4826 0.9668
-7.5624 2.8206 -2.4826 0.9668
-7.6583 2.5489 -2.4826 0.9668
-7.9892 1.1487 -2.4826 0.9668
-8.0508 0.5758 -2.4826 0.9668
-8.0662 0.2881 -2.4826 0.9668
7.4495 0.5328 -2.4826 0.9690
7.3925 1.0629 -2.4826 0.9690
7.2365 1.8470 -2.4826 0.9690
7.0863 2.3586 -2.4826 0.9690
6.9000 2.8581 -2.4826 0.9690
6.6785 3.3430 -2.4826 0.9690
5.8153 4.6862 -2.4826 0.9690
5.6443 4.8908 -2.4826 0.9690
5.4661 5.0892 -2.4826 0.9690
5.2810 5.2810 -2.4826 0.9690
5.0892 5.4661 -2.4826 0.9690
4.6862 5.8153 -2.4826 0.9690
4.4757 5.9788 -2.4826 0.9690
4.2594 6.1348 -2.4826 0.9690
4.0378 6.2829 -2.4826 0.9690
3.8109 6.4230 -2.4826 0.9690
3.3430 6.6785 -2.4826 0.9690
2.6100 6.9976 -2.4826 0.9690
2.3585 7.0863 -2.4826 0.9690
2.1041 7.1660 -2.4826 0.9690
1.8470 7.2365 -2.4826 0.9690
1.0619 7.3856 -2.4803 0.9690
0.7974 7.4172 -2.4797 0.9690
0.2662 7.4534 -2.4791 0.9691
-0.7974 7.4172 -2.4797 0.9690
-1.0619 7.3856 -2.4803 0.9690
-1.3252 7.3451 -2.4810 0.9690
-1.5870 7.2955 -2.4818 0.9690
-2.1041 7.1660 -2.4826 0.9690
-2.3585 7.0863 -2.4826 0.9690
-2.6100 6.9976 -2.4826 0.9690
-2.8581 6.9000 -2.4826 0.9690
-3.1025 6.7936 -2.4826 0.9690
-3.5793 6.5549 -2.4826 0.9690
-4.0378 6.2829 -2.4826 0.9690
-4.6862 5.8153 -2.4826 0.9690
-4.8908 5.6443 -2.4826 0.9690
-5.0892 5.4661 -2.4826 0.9690
-5.2810 5.2810 -2.4826 0.9690
-5.4661 5.0892 -2.4826 0.9690
-5.6443 4.8908 -2.4826 0.9690
-5.8153 4.6862 -2.4826 0.9690
-6.2829 4.0378 -2.4826 0.9690
-6.4230 3.8109 -2.4826 0.9690
-6.5549 3.5793 -2.4826 0.9690
-6.7936 3.1025 -2.4826 0.9690
-6.9976 2.6100 -2.4826 0.9690
-7.1660 2.1041 -2.4826 0.9690
-7.2365 1.8470 -2.4826 0.9690
-7.3498 1.3261 -2.4826 0.9690
-7.3925 1.0629 -2.4826 0.9690
-7.4257 0.7983 -2.4826 0.9690
-7.4495 0.5328 -2.4826 0.9690
-7.4637 0.2666 -2.4826 0.9690
6.9377 0.2478 -2.4826 0.9709
6.9245 0.4953 -2.4826 0.9709
6.8715 0.9880 -2.4826 0.9709
6.7835 1.4757 -2.4826 0.9709
6.5869 2.1923 -2.4826 0.9709
6.0930 3.3270 -2.4826 0.9709
5.9704 3.5424 -2.4826 0.9709
5.7024 3.9593 -2.4826 0.9709
5.5575 4.1603 -2.4826 0.9709
4.9088 4.9089 -2.4826 0.9709
4.7305 5.0809 -2.4826 0.9709
4.5461 5.2465 -2.4826 0.9709
3.7532 5.8401 -2.4826 0.9709
3.3270 6.0930 -2.4826 0.9709
2.4260 6.5045 -2.4826 0.9709
2.1923 6.5869 -2.4826 0.9709
1.9558 6.6610 -2.4826 0.9709
1.7168 6.7265 -2.4826 0.9709
1.4757 6.7835 -2.4826 0.9709
0.9880 6.8715 -2.4826 0.9709
-0.2478 6.9377 -2.4826 0.9709
-0.4952 6.9245 -2.4826 0.9709
-1.7168 6.7265 -2.4826 0.9709
-1.9558 6.6610 -2.4826 0.9709
-2.4260 6.5045 -2.4826 0.9709
-2.6567 6.4137 -2.4826 0.9709
-2.8839 6.3148 -2.4826 0.9709
-3.1074 6.2079 -2.4826 0.9709
-3.5424 5.9704 -2.4826 0.9709
-3.9593 5.7024 -2.4826 0.9709
-4.3560 5.4055 -2.4826 0.9709
-4.5462 5.2465 -2.4826 0.9709
-4.7305 5.0809 -2.4826 0.9709
-4.9089 4.9088 -2.4826 0.9709
-5.0809 4.7305 -2.4826 0.9709
-5.9704 3.5424 -2.4826 0.9709
-6.2079 3.1074 -2.4826 0.9709
-6.3148 2.8839 -2.4826 0.9709
-6.4137 2.6567 -2.4826 0.9709
-6.5045 2.4260 -2.4826 0.9709
-6.5869 2.1923 -2.4826 0.9709
-6.6610 1.9558 -2.4826 0.9709
-6.7265 1.7168 -2.4826 0.9709
-6.8319 1.2326 -2.4826 0.9709
-6.8715 0.9880 -2.4826 0.9709
-6.9024 0.7421 -2.4826 0.9709
-6.9245 0.4952 -2.4826 0.9709
6.4782 0.0000 -2.4826 0.9726
6.4617 0.4622 -2.4826 0.9726
6.4123 0.9219 -2.4826 0.9726
6.2770 1.6021 -2.4826 0.9726
6.1467 2.0458 -2.4826 0.9726
6.0698 2.2639 -2.4826 0.9726
5.8928 2.6911 -2.4826 0.9726
5.6858 3.1047 -2.4826 0.9726
5.5713 3.3056 -2.4826 0.9726
5.4498 3.5024 -2.4826 0.9726
5.1861 3.8822 -2.4826 0.9726
5.0442 4.0649 -2.4826 0.9726
4.7414 4.4144 -2.4826 0.9726
4.5808 4.5808 -2.4826 0.9726
3.8822 5.1861 -2.4826 0.9726
3.6947 5.3213 -2.4826 0.9726
3.5024 5.4498 -2.4826 0.9726
3.3056 5.5714 -2.4826 0.9726
2.6911 5.8928 -2.4826 0.9726
2.2639 6.0698 -2.4826 0.9726
1.6021 6.2770 -2.4826 0.9726
0.6925 6.4411 -2.4826 0.9726
0.4621 6.4617 -2.4826 0.9726
0.2312 6.4741 -2.4826 0.9726
-0.0000 6.4782 -2.4826 0.9726
-0.2312 6.4741 -2.4826 0.9726
-0.6925 6.4411 -2.4826 0.9726
-0.9219 6.4123 -2.4826 0.9726
-1.1502 6.3753 -2.4826 0.9726
-1.8251 6.2158 -2.4826 0.9726
-2.0458 6.1467 -2.4826 0.9726
-2.2639 6.0698 -2.4826 0.9726
-2.6911 5.8928 -2.4826 0.9726
-3.3056 5.5714 -2.4826 0.9726
-3.5024 5.4498 -2.4826 0.9726
-3.8822 5.1861 -2.4826 0.9726
-4.2423 4.8959 -2.4826 0.9726
-4.5808 4.5808 -2.4826 0.9726
-4.7414 4.4144 -2.4826 0.9726
-4.8959 4.2423 -2.4826 0.9726
-5.1861 3.8823 -2.4826 0.9726
-5.3213 3.6947 -2.4826 0.9726
-5.4498 3.5024 -2.4826 0.9726
-5.5714 3.3056 -2.4826 0.9726
-5.6858 3.1047 -2.4826 0.9726
-6.2158 1.8251 -2.4826 0.9726
-6.2770 1.6021 -2.4826 0.9726
-6.3302 1.3770 -2.4826 0.9726
-6.4123 0.9219 -2.4826 0.9726
-6.4411 0.6925 -2.4826 0.9726
-6.4617 0.4621 -2.4826 0.9726
-6.4741 0.2312 -2.4826 0.9726
6.0040 0.8633 -2.4826 0.9741
5.9271 1.2894 -2.4826 0.9741
5.8773 1.5001 -2.4826 0.9741
5.6040 2.3213 -2.4826 0.9741
5.3238 2.9070 -2.4826 0.9741
4.9825 3.4594 -2.4826 0.9741
4.8559 3.6351 -2.4826 0.9741
4.4395 4.1333 -2.4826 0.9741
4.2891 4.2892 -2.4826 0.9741
3.4594 4.9826 -2.4826 0.9741
3.0952 5.2167 -2.4826 0.9741
2.9070 5.3238 -2.4826 0.9741
2.5198 5.5176 -2.4826 0.9741
2.3213 5.6040 -2.4826 0.9741
2.1198 5.6833 -2.4826 0.9741
1.7089 5.8201 -2.4826 0.9741
1.5001 5.8773 -2.4826 0.9741
0.6484 6.0310 -2.4826 0.9741
-0.0000 6.0658 -2.4826 0.9741
-0.2165 6.0619 -2.4826 0.9741
-0.4327 6.0503 -2.4826 0.9741
-0.6484 6.0310 -2.4826 0.9741
-0.8633 6.0040 -2.4826 0.9741
-1.2894 5.9272 -2.4826 0.9741
-1.5001 5.8774 -2.4826 0.9741
-1.9156 5.7554 -2.4826 0.9741
-2.3213 5.6040 -2.4826 0.9741
-2.5198 5.5176 -2.4826 0.9741
-2.7151 5.4242 -2.4826 0.9741
-2.9070 5.3238 -2.4826 0.9741
-3.0952 5.2167 -2.4826 0.9741
-3.2794 5.1029 -2.4826 0.9741
-3.9722 4.5842 -2.4826 0.9741
-4.1333 4.4395 -2.4826 0.9741
-4.4395 4.1333 -2.4826 0.9741
-4.5842 3.9722 -2.4826 0.9741
-5.5176 2.5198 -2.4826 0.9741
-5.6040 2.3213 -2.4826 0.9741
-5.7554 1.9156 -2.4826 0.9741
-5.8201 1.7089 -2.4826 0.9741
-5.8774 1.5001 -2.4826 0.9741
-5.9694 1.0770 -2.4826 0.9741
-6.0310 0.6484 -2.4826 0.9741
5.6964 0.0000 -2.4826 0.9755
5.6818 0.4064 -2.4826 0.9755
5.6637 0.6089 -2.4826 0.9755
5.6384 0.8107 -2.4826 0.9755
5.6058 1.0114 -2.4826 0.9755
5.5662 1.2108 -2.4826 0.9755
5.3372 1.9907 -2.4826 0.9755
5.0938 2.5498 -2.4826 0.9755
4.9996 2.7300 -2.4826 0.9755
4.8989 2.9067 -2.4826 0.9755
4.7921 3.0797 -2.4826 0.9755
4.6791 3.2488 -2.4826 0.9755
4.5602 3.4137 -2.4826 0.9755
4.1691 3.8816 -2.4826 0.9755
4.0279 4.0279 -2.4826 0.9755
3.4137 4.5602 -2.4826 0.9755
3.2488 4.6791 -2.4826 0.9755
3.0797 4.7921 -2.4826 0.9755
2.7300 4.9996 -2.4826 0.9755
2.3663 5.1816 -2.4826 0.9755
2.1799 5.2628 -2.4826 0.9755
1.9907 5.3372 -2.4826 0.9755
1.7989 5.4049 -2.4826 0.9755
1.6048 5.4656 -2.4826 0.9755
1.4087 5.5194 -2.4826 0.9755
1.2108 5.5662 -2.4826 0.9755
1.0114 5.6058 -2.4826 0.9755
0.8107 5.6384 -2.4826 0.9755
0.4064 5.6818 -2.4826 0.9755
0.2033 5.6927 -2.4826 0.9755
-0.4064 5.6818 -2.4826 0.9755
-0.6089 5.6637 -2.4826 0.9755
-0.8107 5.6384 -2.4826 0.9755
-1.2109 5.5662 -2.4826 0.9755
-1.4087 5.5194 -2.4826 0.9755
-1.6049 5.4656 -2.4826 0.9755
-2.5498 5.0938 -2.4826 0.9755
-2.9067 4.8990 -2.4826 0.9755
-3.4137 4.5602 -2.4826 0.9755
-3.5743 4.4354 -2.4826 0.9755
-3.7303 4.3050 -2.4826 0.9755
-3.8816 4.1691 -2.4826 0.9755
-4.0279 4.0279 -2.4826 0.9755
-4.1691 3.8816 -2.4826 0.9755
-4.3050 3.7303 -2.4826 0.9755
-4.4354 3.5743 -2.4826 0.9755
-4.9996 2.7300 -2.4826 0.9755
-5.0938 2.5498 -2.4826 0.9755
-5.4049 1.7989 -2.4826 0.9755
-5.5194 1.4087 -2.4826 0.9755
-5.5662 1.2108 -2.4826 0.9755
-5.6058 1.0114 -2.4826 0.9755
-5.6927 0.2033 -2.4826 0.9755
5.3496 0.3826 -2.4826 0.9766
5.3087 0.7633 -2.4826 0.9766
5.2407 1.1400 -2.4826 0.9766
5.1460 1.5110 -2.4826 0.9766
5.0888 1.6937 -2.4826 0.9766
5.0251 1.8743 -2.4826 0.9766
4.8786 2.2280 -2.4826 0.9766
3.6546 3.9253 -2.4826 0.9766
3.2141 4.2935 -2.4826 0.9766
2.8996 4.5119 -2.4826 0.9766
2.7367 4.6125 -2.4826 0.9766
2.4007 4.7960 -2.4826 0.9766
2.2280 4.8786 -2.4826 0.9766
2.0524 4.9550 -2.4826 0.9766
1.6937 5.0888 -2.4826 0.9766
1.3264 5.1967 -2.4826 0.9766
1.1400 5.2407 -2.4826 0.9766
0.5733 5.3325 -2.4826 0.9766
0.3826 5.3496 -2.4826 0.9766
0.1914 5.3598 -2.4826 0.9766
-0.0000 5.3633 -2.4826 0.9766
-0.1914 5.3598 -2.4826 0.9766
-0.5733 5.3325 -2.4826 0.9766
-0.7633 5.3087 -2.4826 0.9766
-1.1400 5.2407 -2.4826 0.9766
-1.3264 5.1967 -2.4826 0.9766
-1.5110 5.1460 -2.4826 0.9766
-1.8743 5.0251 -2.4826 0.9766
-2.0524 4.9550 -2.4826 0.9766
-2.4007 4.7960 -2.4826 0.9766
-2.8996 4.5119 -2.4826 0.9766
-3.0588 4.4055 -2.4826 0.9766
-3.3653 4.1761 -2.4826 0.9766
-3.6546 3.9253 -2.4826 0.9766
-3.9253 3.6546 -2.4826 0.9766
-4.0533 3.5122 -2.4826 0.9766
-4.6125 2.7367 -2.4826 0.9766
-4.7960 2.4007 -2.4826 0.9766
-4.8786 2.2280 -2.4826 0.9766
-5.0251 1.8743 -2.4826 0.9766
-5.1460 1.5110 -2.4826 0.9766
-5.1967 1.3264 -2.4826 0.9766
-5.2407 1.1400 -2.4826 0.9766
-5.2780 0.9523 -2.4826 0.9766
-5.3087 0.7633 -2.4826 0.9766
-5.3496 0.3826 -2.4826 0.9766
5.0578 0.1806 -2.4826 0.9777
5.0482 0.3611 -2.4826 0.9777
5.0321 0.5410 -2.4826 0.9777
5.0095 0.7203 -2.4826 0.9777
4.9454 1.0758 -2.4826 0.9777
4.8021 1.5983 -2.4826 0.9777
4.5257 2.2654 -2.4826 0.9777
4.1573 2.8864 -2.4826 0.9777
4.0516 3.0330 -2.4826 0.9777
3.8249 3.3143 -2.4826 0.9777
3.7042 3.4487 -2.4826 0.9777
3.5787 3.5787 -2.4826 0.9777
3.4487 3.7042 -2.4826 0.9777
3.3143 3.8249 -2.4826 0.9777
3.0330 4.0516 -2.4826 0.9777
2.8864 4.1573 -2.4826 0.9777
2.5825 4.3526 -2.4826 0.9777
2.1024 4.6037 -2.4826 0.9777
1.9368 4.6758 -2.4826 0.9777
1.7687 4.7420 -2.4826 0.9777
0.8986 4.9806 -2.4826 0.9777
-0.1806 5.0578 -2.4826 0.9777
-0.3611 5.0482 -2.4826 0.9777
-0.5410 5.0321 -2.4826 0.9777
-0.8986 4.9806 -2.4826 0.9777
-1.0758 4.9454 -2.4826 0.9777
-1.4259 4.8561 -2.4826 0.9777
-1.7687 4.7420 -2.4826 0.9777
-2.1024 4.6037 -2.4826 0.9777
-2.2654 4.5257 -2.4826 0.9777
-2.4255 4.4420 -2.4826 0.9777
-2.7362 4.2576 -2.4826 0.9777
-3.1757 3.9408 -2.4826 0.9777
-3.5787 3.5787 -2.4826 0.9777
-3.8249 3.3143 -2.4826 0.9777
-4.2576 2.7362 -2.4826 0.9777
-4.3526 2.5825 -2.4826 0.9777
-4.4420 2.4255 -2.4826 0.9777
-4.6037 2.1024 -2.4826 0.9777
-4.6758 1.9368 -2.4826 0.9777
-4.7420 1.7687 -2.4826 0.9777
-4.9038 1.2516 -2.4826 0.9777
-4.9454 1.0758 -2.4826 0.9777
-4.9806 0.8986 -2.4826 0.9777
-5.0095 0.7203 -2.4826 0.9777
4.7823 0.1708 -2.4826 0.9787
4.7732 0.3414 -2.4826 0.9787
4.7580 0.5115 -2.4826 0.9787
4.7367 0.6810 -2.4826 0.9787
4.6368 1.1835 -2.4826 0.9787
4.5916 1.3482 -2.4826 0.9787
4.4837 1.6723 -2.4826 0.9787
4.3530 1.9879 -2.4826 0.9787
4.2792 2.1420 -2.4826 0.9787
4.2000 2.2934 -2.4826 0.9787
3.7261 3.0027 -2.4826 0.9787
3.6166 3.1338 -2.4826 0.9787
3.5024 3.2609 -2.4826 0.9787
3.3838 3.3838 -2.4826 0.9787
3.2609 3.5024 -2.4826 0.9787
3.1338 3.6166 -2.4826 0.9787
3.0027 3.7261 -2.4826 0.9787
2.8678 3.8309 -2.4826 0.9787
2.5872 4.0257 -2.4826 0.9787
2.4418 4.1155 -2.4826 0.9787
2.2934 4.2000 -2.4826 0.9787
2.1420 4.2792 -2.4826 0.9787
1.9879 4.3530 -2.4826 0.9787
1.8313 4.4211 -2.4826 0.9787
1.3482 4.5916 -2.4826 0.9787
1.0172 4.6760 -2.4826 0.9787
0.3414 4.7732 -2.4826 0.9787
0.1708 4.7824 -2.4826 0.9787
-0.3414 4.7732 -2.4826 0.9787
-0.6810 4.7367 -2.4826 0.9787
-0.8497 4.7094 -2.4826 0.9787
-1.3482 4.5916 -2.4826 0.9787
-1.5112 4.5405 -2.4826 0.9787
-1.8313 4.4211 -2.4826 0.9787
-2.1420 4.2792 -2.4826 0.9787
-2.5872 4.0257 -2.4826 0.9787
-2.7292 3.9308 -2.4826 0.9787
-3.0027 3.7261 -2.4826 0.9787
-3.5024 3.2609 -2.4826 0.9787
-3.7261 3.0027 -2.4826 0.9787
-3.8309 2.8678 -2.4826 0.9787
-3.9308 2.7292 -2.4826 0.9787
-4.0257 2.5872 -2.4826 0.9787
-4.1155 2.4418 -2.4826 0.9787
-4.2792 2.1420 -2.4826 0.9787
-4.3530 1.9879 -2.4826 0.9787
-4.4837 1.6723 -2.4826 0.9787
-4.6760 1.0172 -2.4826 0.9787
-4.7824 0.1708 -2.4826 0.9787
4.4865 0.6451 -2.4826 0.9795
4.4607 0.8048 -2.4826 0.9795
4.4291 0.9635 -2.4826 0.9795
4.3919 1.1210 -2.4826 0.9795
4.3491 1.2770 -2.4826 0.9795
4.1231 1.8829 -2.4826 0.9795
4.0532 2.0289 -2.4826 0.9795
3.8131 2.4506 -2.4826 0.9795
3.7232 2.5851 -2.4826 0.9795
3.6286 2.7163 -2.4826 0.9795
3.4256 2.9683 -2.4826 0.9795
3.2051 3.2051 -2.4826 0.9795
2.8441 3.5293 -2.4826 0.9795
2.7163 3.6286 -2.4826 0.9795
2.3129 3.8982 -2.4826 0.9795
1.8829 4.1231 -2.4826 0.9795
1.2770 4.3491 -2.4826 0.9795
0.9635 4.4291 -2.4826 0.9795
0.8048 4.4607 -2.4826 0.9795
0.6451 4.4865 -2.4826 0.9795
0.4845 4.5067 -2.4826 0.9795
0.3234 4.5211 -2.4826 0.9795
0.1618 4.5298 -2.4826 0.9795
0.0000 4.5327 -2.4826 0.9795
-0.1618 4.5298 -2.4826 0.9795
-0.6451 4.4866 -2.4826 0.9795
-0.9635 4.4291 -2.4826 0.9795
-1.7346 4.1877 -2.4826 0.9795
-1.8829 4.1231 -2.4826 0.9795
-2.1723 3.9782 -2.4826 0.9795
-2.3129 3.8982 -2.4826 0.9795
-2.4506 3.8131 -2.4826 0.9795
-2.8441 3.5293 -2.4826 0.9795
-2.9683 3.4256 -2.4826 0.9795
-3.0887 3.3175 -2.4826 0.9795
-3.2051 3.2051 -2.4826 0.9795
-3.7232 2.5851 -2.4826 0.9795
-3.8982 2.3129 -2.4826 0.9795
-3.9782 2.1723 -2.4826 0.9795
-4.0532 2.0289 -2.4826 0.9795
-4.1231 1.8829 -2.4826 0.9795
-4.4291 0.9635 -2.4826 0.9795
-4.4865 0.6451 -2.4826 0.9795
-4.5211 0.3234 -2.4826 0.9795
-4.5298 0.1618 -2.4826 0.9795
4.2999 0.0000 -2.4826 0.9803
4.2753 0.4596 -2.4826 0.9803
4.1664 1.0634 -2.4826 0.9803
3.9726 1.6455 -2.4826 0.9803
3.9114 1.7863 -2.4826 0.9803
3.8451 1.9247 -2.4826 0.9803
3.7740 2.0607 -2.4826 0.9803
3.2497 2.8159 -2.4826 0.9803
3.1471 2.9300 -2.4826 0.9803
2.6981 3.3481 -2.4826 0.9803
2.5769 3.4423 -2.4826 0.9803
2.4523 3.5321 -2.4826 0.9803
2.3247 3.6173 -2.4826 0.9803
2.1941 3.6980 -2.4826 0.9803
2.0607 3.7740 -2.4826 0.9803
1.5027 4.0288 -2.4826 0.9803
1.2114 4.1258 -2.4826 0.9803
1.0634 4.1664 -2.4826 0.9803
0.9140 4.2017 -2.4826 0.9803
0.7635 4.2316 -2.4826 0.9803
0.0000 4.2999 -2.4826 0.9803
-0.1535 4.2972 -2.4826 0.9803
-0.3068 4.2890 -2.4826 0.9803
-0.4596 4.2753 -2.4826 0.9803
-0.6119 4.2562 -2.4826 0.9803
-1.0634 4.1664 -2.4826 0.9803
-1.2114 4.1258 -2.4826 0.9803
-1.3579 4.0799 -2.4826 0.9803
-1.5027 4.0288 -2.4826 0.9803
-1.7863 3.9114 -2.4826 0.9803
-1.9247 3.8451 -2.4826 0.9803
-2.4524 3.5321 -2.4826 0.9803
-2.6981 3.3481 -2.4826 0.9803
-2.9301 3.1471 -2.4826 0.9803
-3.0405 3.0405 -2.4826 0.9803
-3.1471 2.9301 -2.4826 0.9803
-3.3481 2.6981 -2.4826 0.9803
-3.8451 1.9247 -2.4826 0.9803
-3.9114 1.7863 -2.4826 0.9803
-4.1258 1.2114 -2.4826 0.9803
-4.2017 0.9140 -2.4826 0.9803
-4.2316 0.7635 -2.4826 0.9803
-4.2753 0.4596 -2.4826 0.9803
-4.2972 0.1535 -2.4826 0.9803
