ply
format ascii 1.0
element vertex 1389
property float32 x
property float32 y
property float32 z
property float32 I
end_header
43.5412 9.4718 7.8570 0.8344
34.0014 9.9837 6.2485 0.8659
29.1713 10.8803 5.4898 0.8812
27.6245 11.4425 5.2723 0.8856
10.2674 4.6890 1.9903 0.9552
21.9657 11.9942 4.4129 0.9033
20.8334 12.3610 4.2714 0.9063
19.7207 12.6737 4.1335 0.9092
18.3409 12.7344 3.9371 0.9133
19.2293 19.2294 4.7951 0.8954
11.3914 12.2353 2.9477 0.9344
11.4841 13.2534 3.0922 0.9312
10.3420 13.8153 3.0429 0.9323
11.7615 19.8230 4.0643 0.9106
11.0602 20.2553 4.0693 0.9105
7.1915 14.3667 2.8329 0.9368
5.2364 14.0393 2.6421 0.9410
4.8231 14.4910 2.6930 0.9399
4.3518 14.8210 2.7237 0.9392
5.3382 20.9150 3.8061 0.9161
3.0897 21.4895 3.8281 0.9156
1.0707 14.9705 2.6465 0.9409
0.5226 14.6320 2.5817 0.9423
-1.0971 15.3388 2.7115 0.9394
-3.9962 22.1494 3.9686 0.9126
-5.1054 15.3393 2.8506 0.9364
-6.5988 15.9308 3.0405 0.9324
-9.7619 16.4528 3.3733 0.9252
-12.1421 16.2199 3.5726 0.9210
-15.7928 16.9626 4.0866 0.9102
-9.0297 6.7595 1.9889 0.9552
43.6696 9.4997 6.8464 0.8346
38.8377 9.9127 6.1405 0.8503
34.6914 10.1863 5.5389 0.8639
32.8015 10.9174 5.2960 0.8694
29.0937 10.8514 4.7569 0.8819
27.5221 11.4000 4.5636 0.8864
10.0665 5.0390 1.7246 0.9555
20.4149 13.1199 3.7176 0.9065
16.1638 13.0256 3.1802 0.9194
20.5389 19.1224 4.2990 0.8927
11.3890 12.2327 2.5604 0.9346
11.4845 13.2538 2.6866 0.9315
10.3549 13.8325 2.6470 0.9325
12.6666 19.7097 3.5892 0.9095
7.1891 14.3619 2.4604 0.9371
5.7868 13.9705 2.3165 0.9406
5.2365 14.0397 2.2955 0.9412
5.3749 21.0588 3.3295 0.9158
4.7015 21.6124 3.3883 0.9144
1.5737 14.6371 2.2552 0.9422
0.5226 14.6324 2.2430 0.9425
-0.0000 14.6980 2.2517 0.9423
-0.5273 14.7643 2.2633 0.9420
-4.7643 21.9013 3.4336 0.9133
-4.6044 15.6813 2.5037 0.9360
-5.7517 15.4209 2.5214 0.9356
-9.7931 16.5055 2.9401 0.9253
-11.1805 16.1029 3.0032 0.9237
-11.2827 15.0719 2.8842 0.9266
-15.9221 17.1015 3.5796 0.9098
-16.8063 16.8062 3.6411 0.9083
-21.2592 8.8059 3.5251 0.9111
43.8175 9.5319 5.8394 0.8345
32.8005 10.9171 4.5017 0.8698
30.0387 11.2038 4.1749 0.8787
27.7182 11.4813 3.9069 0.8860
10.2579 4.6846 1.4685 0.9555
10.0704 5.0409 1.4665 0.9556
22.0328 12.0308 3.2690 0.9037
26.5063 18.4037 4.2021 0.8780
16.8104 12.5841 2.7345 0.9188
21.0107 19.5616 3.7383 0.8907
9.6603 13.9135 2.2057 0.9340
12.6669 19.7102 3.0510 0.9098
11.1077 20.3422 3.0182 0.9107
6.3480 13.9002 1.9899 0.9402
5.7869 13.9708 1.9692 0.9408
4.7597 14.3006 1.9627 0.9410
4.7302 21.7443 2.8978 0.9141
3.9410 21.8436 2.8904 0.9144
3.1548 21.9424 2.8867 0.9145
0.5226 14.6327 1.9067 0.9426
-0.0000 14.6984 1.9140 0.9424
-0.5273 14.7647 1.9239 0.9421
-1.6221 15.0877 1.9761 0.9406
-3.9851 22.0881 2.9228 0.9134
-3.9249 15.3778 2.0667 0.9380
-4.5420 15.4685 2.0994 0.9370
-5.1057 15.3401 2.1053 0.9369
-5.7518 15.4213 2.1433 0.9358
-6.5108 15.7185 2.2155 0.9337
-7.1904 15.7448 2.2540 0.9326
-14.9780 27.4301 4.0698 0.8816
-16.3130 18.8262 3.2439 0.9044
-16.8069 16.8069 3.0952 0.9086
-21.2555 8.8043 2.9960 0.9114
43.4067 16.1899 4.9748 0.8300
10.2532 4.6825 1.2104 0.9557
10.0743 5.0428 1.2098 0.9557
22.0323 12.0306 2.6956 0.9039
21.3552 12.6706 2.6664 0.9049
16.8110 12.5846 2.2550 0.9190
15.4467 14.3814 2.2663 0.9186
19.7241 19.7241 2.9953 0.8938
11.4851 13.2545 1.8833 0.9319
10.7551 13.3463 1.8406 0.9334
10.2497 13.6921 1.8366 0.9335
7.0533 14.0908 1.6921 0.9386
5.2368 14.0403 1.6091 0.9415
4.2400 14.4402 1.6161 0.9413
4.7303 21.7448 2.3896 0.9144
3.9411 21.8441 2.3835 0.9146
3.1549 21.9429 2.3805 0.9147
1.5883 14.7736 1.5956 0.9420
1.0621 14.8504 1.5987 0.9419
-0.5273 14.7650 1.5865 0.9423
-3.2235 22.4201 2.4323 0.9129
-3.9871 22.0989 2.4113 0.9136
-3.9478 15.4673 1.7141 0.9378
-5.1058 15.3405 1.7361 0.9370
-5.7520 15.4217 1.7674 0.9359
-6.5478 15.8078 1.8373 0.9335
-14.4728 28.9129 3.4720 0.8780
-9.5425 16.0831 2.0081 0.9275
-10.4187 16.2118 2.0694 0.9254
-11.2799 15.0683 2.0212 0.9271
-13.2931 16.4958 2.2749 0.9183
-16.8075 16.8075 2.5524 0.9088
-9.0424 6.7690 1.2129 0.9556
43.9528 9.5614 3.8077 0.8348
39.0349 9.9631 3.4103 0.8507
31.2123 11.6416 2.8200 0.8748
10.0782 5.0448 0.9541 0.9558
22.0318 12.0303 2.1250 0.9041
20.9928 12.4556 2.0664 0.9067
21.1264 13.5771 2.1259 0.9041
18.2679 12.6836 1.8826 0.9146
21.1397 19.6818 2.4451 0.8905
11.4854 13.2549 1.4847 0.9320
9.7894 14.0995 1.4530 0.9334
12.6676 19.7112 1.9835 0.9102
11.7627 19.8250 1.9514 0.9116
7.0530 14.0901 1.3339 0.9387
6.3483 13.9009 1.2937 0.9405
4.2398 14.4395 1.2739 0.9414
5.3379 20.9137 1.8272 0.9170
3.9085 21.6633 1.8635 0.9154
3.1288 21.7614 1.8611 0.9155
1.5883 14.7729 1.2578 0.9421
0.0000 14.6991 1.2443 0.9427
-0.5274 14.7654 1.2507 0.9424
-1.0811 15.1154 1.2828 0.9410
-2.4145 22.4582 1.9121 0.9133
-3.9864 22.0952 1.9006 0.9138
-4.7647 21.9029 1.8975 0.9139
-3.9476 15.4665 1.3513 0.9379
-4.5680 15.5571 1.3725 0.9370
-5.7521 15.4221 1.3934 0.9361
-6.5474 15.8069 1.4483 0.9336
-7.2528 15.8815 1.4780 0.9323
-10.4791 16.3057 1.6408 0.9251
-11.1815 16.1044 1.6597 0.9243
-11.2676 15.0518 1.5916 0.9273
-15.3638 17.7308 1.9861 0.9101
-8.7237 7.0300 0.9484 0.9560
-29.8947 9.9499 2.6672 0.8812
-46.6276 10.1432 4.0395 0.8257
34.2492 10.0565 2.2135 0.8667
29.8552 11.1354 1.9759 0.8801
27.7165 11.4806 1.8603 0.8867
10.2478 4.6800 0.6986 0.9559
10.0820 5.0467 0.6991 0.9558
22.0313 12.0300 1.5566 0.9043
21.0895 12.5130 1.5206 0.9064
15.4548 13.3916 1.2681 0.9213
20.9650 19.5191 1.7763 0.8915
19.1730 19.1731 1.6814 0.8970
12.4864 13.4113 1.1363 0.9292
11.4857 13.2552 1.0876 0.9321
11.7630 19.8255 1.4295 0.9118
11.0289 20.1979 1.4270 0.9119
4.7865 14.3811 0.9399 0.9411
4.2396 14.4389 0.9332 0.9415
5.3376 20.9127 1.3384 0.9171
4.7088 21.6461 1.3737 0.9150
1.0620 14.8491 0.9231 0.9421
0.5226 14.6337 0.9080 0.9430
-0.5274 14.7657 0.9162 0.9425
-1.0810 15.1147 0.9397 0.9411
-3.1593 21.9734 1.3766 0.9149
-4.7648 21.9034 1.3900 0.9141
-4.5677 15.5563 1.0054 0.9371
-5.7523 15.4225 1.0207 0.9362
-7.2525 15.8806 1.0826 0.9324
-14.4737 28.9148 2.0051 0.8785
-9.4293 17.2684 1.2201 0.9242
-15.4346 17.8125 1.4615 0.9099
-16.8088 16.8088 1.4741 0.9091
-8.7211 7.0279 0.6945 0.9561
-21.2400 8.7979 1.4256 0.9120
34.2432 10.0547 1.4072 0.8669
32.6564 10.8691 1.3571 0.8713
30.0189 11.1965 1.2633 0.8796
27.7159 11.4803 1.1829 0.8868
10.2517 4.6818 0.4444 0.9559
22.0309 12.0298 0.9898 0.9044
28.0924 18.0539 1.3167 0.8749
18.2654 12.6819 0.8768 0.9148
16.8126 12.5858 0.8281 0.9194
16.0825 12.9601 0.8144 0.9206
15.4552 13.3920 0.8064 0.9214
21.2107 19.7479 1.1427 0.8905
12.4857 13.4106 0.7225 0.9293
10.2481 13.6899 0.6743 0.9338
9.7903 14.1007 0.6769 0.9336
12.6682 19.7122 0.9239 0.9105
11.0284 20.1969 0.9074 0.9120
6.3486 13.9016 0.6026 0.9407
5.2371 14.0413 0.5909 0.9418
4.7863 14.3805 0.5976 0.9411
4.2394 14.4382 0.5933 0.9415
5.3374 20.9118 0.8510 0.9172
4.7078 21.6416 0.8733 0.9152
3.9544 21.9176 0.8782 0.9147
3.1655 22.0168 0.8771 0.9148
1.0620 14.8484 0.5870 0.9421
0.5227 14.6340 0.5774 0.9431
-2.4429 22.7218 0.9011 0.9126
-3.1592 21.9724 0.8753 0.9150
-3.9860 22.0931 0.8852 0.9141
-4.5675 15.5555 0.6393 0.9372
-5.7524 15.4229 0.6491 0.9362
-6.5468 15.8053 0.6746 0.9338
-7.2521 15.8798 0.6884 0.9325
-14.4742 28.9157 1.2750 0.8786
-9.4302 17.2701 0.7759 0.9243
-9.5972 16.1752 0.7416 0.9275
-12.1444 16.2230 0.7991 0.9221
-15.4358 17.8138 0.9294 0.9100
-21.2394 8.7977 0.9065 0.9121
43.7209 9.5109 0.7558 0.8361
35.6958 10.4812 0.6284 0.8617
32.6529 10.8679 0.5813 0.8714
30.0160 11.1954 0.5411 0.8797
27.7153 11.4801 0.5067 0.8869
21.0906 12.5137 0.4142 0.9066
18.2642 12.6811 0.3756 0.9149
15.4557 13.3924 0.3455 0.9214
21.2113 19.7484 0.4895 0.8905
19.1709 19.1709 0.4580 0.8972
9.7907 14.1013 0.2900 0.9336
7.0520 14.0881 0.2661 0.9389
5.7876 13.9725 0.2555 0.9413
5.2373 14.0416 0.2531 0.9418
5.3372 20.9108 0.3645 0.9173
3.9545 21.9181 0.3762 0.9148
1.0619 14.8477 0.2514 0.9422
0.5227 14.6344 0.2474 0.9431
-0.0000 14.7001 0.2483 0.9429
-2.4429 22.7224 0.3860 0.9126
-3.1590 21.9713 0.3750 0.9150
-3.9859 22.0920 0.3792 0.9141
-4.7650 21.9044 0.3787 0.9142
-6.5465 15.8045 0.2890 0.9339
-14.4746 28.9167 0.5462 0.8787
-9.5966 16.1742 0.3177 0.9275
-10.4772 16.3028 0.3274 0.9254
-12.1448 16.2235 0.3423 0.9221
-15.7842 16.9534 0.3913 0.9115
-21.2398 8.7978 0.3883 0.9121
43.7219 9.5111 -0.2519 0.8361
39.0319 9.9623 -0.2268 0.8512
32.6493 10.8667 -0.1937 0.8714
30.0132 11.1943 -0.1804 0.8797
18.2630 12.6802 -0.1252 0.9149
16.8137 12.5866 -0.1183 0.9194
15.4561 13.3928 -0.1151 0.9215
11.4867 13.2563 -0.0987 0.9322
10.2471 13.6885 -0.0963 0.9339
9.7911 14.1019 -0.0967 0.9336
12.6689 19.7132 -0.1319 0.9105
11.0273 20.1950 -0.1296 0.9121
7.0516 14.0874 -0.0887 0.9389
6.3489 13.9022 -0.0860 0.9407
5.2374 14.0420 -0.0844 0.9418
5.3369 20.9098 -0.1215 0.9173
3.9545 21.9186 -0.1254 0.9148
1.0619 14.8470 -0.0838 0.9422
-2.4430 22.7229 -0.1287 0.9126
-4.7651 21.9050 -0.1262 0.9142
-5.1064 15.3424 -0.0910 0.9374
-5.7527 15.4237 -0.0927 0.9363
-6.5461 15.8037 -0.0963 0.9339
-7.2513 15.8781 -0.0983 0.9326
-14.4751 28.9176 -0.1821 0.8787
-9.4320 17.2734 -0.1108 0.9243
-15.7830 16.9521 -0.1304 0.9115
-8.7137 7.0219 -0.0630 0.9562
-9.0633 6.7847 -0.0637 0.9557
-21.2401 8.7980 -0.1294 0.9121
43.7230 9.5114 -1.2599 0.8361
32.6457 10.8655 -0.9688 0.8714
30.0103 11.1933 -0.9019 0.8797
27.7142 11.4796 -0.8447 0.8869
10.0973 5.0544 -0.3179 0.9558
21.0918 12.5144 -0.6906 0.9065
16.8143 12.5870 -0.5914 0.9194
16.0794 12.9576 -0.5815 0.9207
15.4566 13.3933 -0.5759 0.9214
21.2125 19.7496 -0.8161 0.8905
19.1686 19.1687 -0.7633 0.8972
11.4870 13.2567 -0.4939 0.9322
10.2465 13.6877 -0.4815 0.9339
9.7916 14.1026 -0.4834 0.9336
6.3491 13.9025 -0.4304 0.9407
4.2388 14.4362 -0.4237 0.9416
5.3367 20.9089 -0.6076 0.9173
4.7050 21.6285 -0.6232 0.9152
3.1657 22.0183 -0.6264 0.9148
1.0618 14.8463 -0.4191 0.9422
0.5227 14.6350 -0.4124 0.9431
-0.5274 14.7671 -0.4161 0.9426
-1.0808 15.1119 -0.4266 0.9412
-2.4430 22.7234 -0.6435 0.9126
-3.1587 21.9692 -0.6250 0.9150
-3.9855 22.0899 -0.6320 0.9141
-3.9466 15.4626 -0.4494 0.9381
-4.5668 15.5532 -0.4564 0.9372
-5.1066 15.3428 -0.4553 0.9373
-5.7529 15.4241 -0.4635 0.9362
-6.5458 15.8029 -0.4816 0.9338
-7.2509 15.8773 -0.4915 0.9325
-9.4329 17.2750 -0.5542 0.9243
-11.1832 16.1068 -0.5521 0.9245
-15.7818 16.9509 -0.6521 0.9115
-16.8112 16.8112 -0.6694 0.9092
-8.7112 7.0199 -0.3150 0.9562
-9.0675 6.7878 -0.3189 0.9557
-21.2405 8.7981 -0.6474 0.9121
46.8800 1.6743 -2.3790 0.8287
46.5655 5.0063 -2.3751 0.8290
32.5142 10.8218 -1.7379 0.8718
30.0074 11.1922 -1.6242 0.8796
27.7136 11.4794 -1.5213 0.8868
10.2673 4.6889 -0.5724 0.9558
22.0289 12.0287 -1.2729 0.9044
21.0924 12.5147 -1.2438 0.9064
16.8148 12.5874 -1.0652 0.9193
21.2132 19.7502 -1.4699 0.8904
19.1675 19.1676 -1.3747 0.8971
12.4829 13.4076 -0.9290 0.9293
10.7572 13.3488 -0.8694 0.9336
12.6695 19.7141 -1.1885 0.9104
11.7644 19.8279 -1.1692 0.9118
11.0262 20.1930 -1.1668 0.9120
6.3492 13.9029 -0.7751 0.9406
5.2376 14.0426 -0.7601 0.9417
5.3364 20.9079 -1.0943 0.9172
4.7040 21.6242 -1.1223 0.9152
1.5878 14.7688 -0.7533 0.9422
0.5227 14.6354 -0.7427 0.9430
-0.0000 14.7011 -0.7456 0.9428
-0.5274 14.7674 -0.7494 0.9425
-3.9853 22.0889 -1.1383 0.9140
-4.7654 21.9060 -1.1369 0.9141
-4.5666 15.5524 -0.8220 0.9371
-6.5454 15.8021 -0.8674 0.9338
-7.2505 15.8764 -0.8852 0.9325
-14.4761 28.9194 -1.6401 0.8785
-9.5949 16.1713 -0.9536 0.9275
-12.1459 16.2251 -1.0279 0.9220
-30.1946 37.4692 -2.4404 0.8247
-15.7807 16.9496 -1.1745 0.9114
-35.2445 32.8138 -2.4422 0.8246
-39.6028 27.4967 -2.4451 0.8244
-41.3893 24.5574 -2.4407 0.8247
-41.8974 20.9723 -2.3761 0.8289
-42.1087 19.2304 -2.3477 0.8308
-21.2408 8.7983 -1.1660 0.9120
-43.7990 12.8606 -2.3150 0.8329
-45.0064 11.4872 -2.3556 0.8302
-46.9247 10.2078 -2.4354 0.8250
-47.7422 8.6136 -2.4603 0.8234
-48.0515 6.9088 -2.4620 0.8233
-48.3011 5.1929 -2.4637 0.8232
-48.6189 1.7364 -2.4672 0.8230
32.3382 0.0000 -2.3711 0.8784
32.3000 1.1536 -2.3698 0.8784
31.4916 6.8506 -2.3630 0.8787
31.2084 7.9655 -2.3616 0.8788
30.8856 9.0688 -2.3602 0.8789
27.6356 11.4471 -2.1933 0.8869
10.2712 4.6907 -0.8279 0.9557
10.1050 5.0582 -0.8286 0.9557
21.0290 12.4771 -1.7929 0.9066
21.1626 13.6004 -1.8445 0.9040
21.2138 19.7508 -2.1252 0.8903
12.4822 13.4068 -1.3431 0.9292
11.4876 13.2574 -1.2862 0.9321
10.7574 13.3492 -1.2570 0.9336
12.6698 19.7146 -1.7183 0.9103
11.7647 19.8284 -1.6905 0.9117
7.0506 14.0853 -1.1549 0.9388
6.3494 13.9032 -1.1207 0.9405
5.7881 13.9738 -1.1090 0.9411
4.7852 14.3772 -1.1110 0.9410
5.3362 20.9070 -1.5821 0.9171
4.7031 21.6198 -1.6223 0.9151
3.9548 21.9201 -1.6332 0.9145
3.1659 22.0193 -1.6311 0.9146
1.0617 14.8450 -1.0912 0.9421
-2.4431 22.7245 -1.6758 0.9124
-3.9741 22.0269 -1.6411 0.9141
-4.7655 21.9065 -1.6438 0.9140
-5.1068 15.3436 -1.1857 0.9372
-5.7532 15.4248 -1.2071 0.9361
-7.2501 15.8756 -1.2797 0.9324
-14.0972 28.1626 -2.3092 0.8813
-9.4347 17.2783 -1.4434 0.9241
-10.4746 16.2989 -1.4206 0.9252
-11.1839 16.1078 -1.4378 0.9244
-15.3928 17.7642 -1.7235 0.9100
-16.8125 16.8125 -1.7433 0.9090
-8.7062 7.0159 -0.8198 0.9561
-9.0759 6.7941 -0.8313 0.9555
-27.5843 19.1521 -2.4622 0.8740
-28.2576 18.1600 -2.4629 0.8740
-28.8957 17.1446 -2.4636 0.8739
-29.4981 16.1072 -2.4643 0.8739
-30.0637 15.0488 -2.4651 0.8739
-21.1697 8.7688 -1.6801 0.9122
-31.5335 11.7614 -2.4677 0.8737
-32.3179 9.4894 -2.4697 0.8736
-32.6498 8.3334 -2.4707 0.8736
-33.1907 5.9883 -2.4729 0.8735
-33.3990 4.8021 -2.4741 0.8734
-33.5653 3.6086 -2.4753 0.8734
24.5607 1.7566 -2.3640 0.9058
24.4719 2.6310 -2.3630 0.9058
23.8058 6.0761 -2.3587 0.9060
23.5629 6.9187 -2.3577 0.9060
23.2901 7.7517 -2.3566 0.9061
22.6565 9.3846 -2.3543 0.9062
21.0295 12.4774 -2.3476 0.9064
20.5812 13.2267 -2.3488 0.9064
17.2993 12.0111 -2.0219 0.9189
16.0127 12.9039 -1.9743 0.9207
15.3896 13.3351 -1.9550 0.9214
12.4337 13.3547 -1.7518 0.9293
11.4879 13.2578 -1.6842 0.9319
10.7577 13.3495 -1.6460 0.9334
10.2050 13.6323 -1.6349 0.9339
9.7156 13.9932 -1.6355 0.9338
12.6701 19.7151 -2.2499 0.9101
10.9955 20.1368 -2.2027 0.9119
6.3495 13.9035 -1.4674 0.9404
5.2379 14.0433 -1.4390 0.9415
4.7850 14.3765 -1.4547 0.9409
4.2383 14.4342 -1.4443 0.9413
5.3217 20.8502 -2.0659 0.9172
3.9549 21.9206 -2.1385 0.9144
1.5877 14.7675 -1.4259 0.9421
1.0617 14.8443 -1.4288 0.9420
-0.0000 14.7017 -1.4114 0.9426
-0.5275 14.7681 -1.4187 0.9423
-1.0807 15.1098 -1.4543 0.9409
-2.4432 22.7250 -2.1943 0.9122
-3.1500 21.9088 -2.1250 0.9149
-4.7656 21.9071 -2.1524 0.9138
-3.9460 15.4603 -1.5318 0.9379
-4.5661 15.5508 -1.5560 0.9369
-5.1070 15.3439 -1.5525 0.9371
-5.7533 15.4252 -1.5806 0.9360
-7.2230 15.8162 -1.6693 0.9325
-10.8103 21.5962 -2.3186 0.9075
-12.1467 16.2261 -1.9459 0.9218
-15.3939 17.7655 -2.2568 0.9099
-15.7175 16.8817 -2.2144 0.9115
-17.6836 16.4640 -2.3196 0.9075
-9.0801 6.7972 -1.0889 0.9554
-19.8592 13.7885 -2.3211 0.9074
-20.3428 13.0735 -2.3215 0.9074
-22.0170 10.0548 -2.3237 0.9073
-21.0628 8.7245 -2.1887 0.9125
-24.1607 9.0115 -2.4756 0.9016
-24.4743 8.1458 -2.4764 0.9015
-24.7571 7.2694 -2.4771 0.9015
-25.0089 6.3831 -2.4779 0.9015
-25.5746 3.6771 -2.4805 0.9014
-25.7911 1.8446 -2.4824 0.9013
21.1590 0.7557 -2.5150 0.9183
19.6615 2.8269 -2.3595 0.9231
19.5411 3.5256 -2.3587 0.9231
19.3958 4.2193 -2.3578 0.9232
19.2257 4.9071 -2.3570 0.9232
10.2791 4.6943 -1.3423 0.9555
17.3687 9.4840 -2.3507 0.9234
17.0126 10.0940 -2.3498 0.9234
15.8178 11.8411 -2.3471 0.9235
15.3792 12.3934 -2.3462 0.9235
14.4449 13.4487 -2.3444 0.9236
13.9505 13.9505 -2.3435 0.9236
12.4330 13.3540 -2.1673 0.9291
10.2045 13.6316 -2.0227 0.9337
9.7160 13.9938 -2.0236 0.9337
10.6432 16.5612 -2.3385 0.9238
9.4282 17.2665 -2.3369 0.9238
7.0232 14.0305 -1.8638 0.9388
4.2221 14.3790 -1.7801 0.9414
4.8549 19.0212 -2.3319 0.9240
1.5816 14.7111 -1.7575 0.9421
0.5227 14.6364 -1.7397 0.9427
0.0000 14.7021 -1.7464 0.9425
-1.0765 15.0511 -1.7924 0.9410
-1.6246 15.1110 -1.8053 0.9406
-2.7872 19.3853 -2.3264 0.9241
-3.4768 19.2706 -2.3260 0.9242
-4.1618 19.1317 -2.3257 0.9242
-3.9310 15.4014 -1.8881 0.9380
-4.5480 15.4891 -1.9176 0.9370
-5.1071 15.3443 -1.9210 0.9369
-5.7535 15.4256 -1.9557 0.9358
-7.2226 15.8153 -2.0653 0.9324
-8.7591 17.4985 -2.3244 0.9242
-9.3779 17.1743 -2.3244 0.9242
-9.5569 16.1074 -2.2248 0.9273
-12.8159 14.7904 -2.3247 0.9242
-13.3366 14.3245 -2.3249 0.9242
-14.3271 13.3390 -2.3253 0.9242
-8.6699 7.5125 -1.3627 0.9548
-8.7012 7.0119 -1.3274 0.9560
-9.0843 6.8004 -1.3479 0.9553
-16.0879 11.1700 -2.3265 0.9241
-17.1986 9.3912 -2.3277 0.9241
-17.8320 8.1436 -2.3286 0.9241
-19.7867 6.5856 -2.4771 0.9194
-20.0468 5.8863 -2.4818 0.9193
-20.2495 5.1684 -2.4825 0.9193
-20.4266 4.4435 -2.4831 0.9192
-20.8027 2.2365 -2.4853 0.9192
-20.9223 0.7472 -2.4869 0.9191
17.7398 0.0000 -2.5135 0.9308
16.3720 2.9538 -2.3572 0.9350
16.1097 4.1118 -2.3557 0.9350
15.9477 4.6827 -2.3550 0.9351
15.7654 5.2472 -2.3543 0.9351
15.5632 5.8048 -2.3535 0.9351
10.2831 4.6961 -1.6017 0.9554
10.1167 5.0641 -1.6030 0.9553
14.2623 8.4622 -2.3497 0.9352
13.2632 9.9287 -2.3475 0.9353
12.8962 10.3924 -2.3467 0.9353
12.5130 10.8426 -2.3460 0.9353
12.1142 11.2787 -2.3452 0.9353
11.7002 11.7003 -2.3445 0.9353
10.8290 12.4974 -2.3430 0.9354
9.9039 13.2300 -2.3416 0.9354
9.4225 13.5710 -2.3409 0.9354
8.9295 13.8947 -2.3402 0.9355
7.9111 14.4880 -2.3389 0.9355
7.0228 14.0298 -2.2230 0.9386
6.3498 13.9042 -2.1658 0.9401
5.2381 14.0439 -2.1238 0.9412
4.7658 14.3188 -2.1383 0.9409
4.2219 14.3783 -2.1233 0.9413
4.0750 15.9658 -2.3347 0.9356
1.5815 14.7105 -2.0963 0.9420
1.0574 14.7850 -2.1002 0.9419
-0.5275 14.7688 -2.0939 0.9420
-1.0764 15.0504 -2.1379 0.9409
-1.6245 15.1103 -2.1533 0.9405
-2.3404 16.2776 -2.3301 0.9357
-3.9308 15.4006 -2.2521 0.9378
-4.5478 15.4883 -2.2872 0.9369
-5.1072 15.3447 -2.2914 0.9368
-6.8270 14.9490 -2.3285 0.9358
-7.8756 14.4230 -2.3284 0.9358
-10.3120 12.7964 -2.3286 0.9358
-8.5389 8.5389 -1.7110 0.9524
-9.0886 6.8036 -1.6086 0.9552
-13.5087 9.3793 -2.3302 0.9357
-13.8368 8.8923 -2.3305 0.9357
-10.3898 6.1645 -1.7117 0.9524
-14.2340 5.8959 -2.1830 0.9397
-16.6000 5.5250 -2.4789 0.9318
-17.1453 3.7297 -2.4861 0.9316
-17.2715 3.1161 -2.4867 0.9316
-17.4585 1.8770 -2.4879 0.9315
-17.5189 1.2530 -2.4886 0.9315
15.1417 1.6279 -2.5088 0.9401
14.5391 2.0904 -2.4198 0.9422
14.0748 2.5394 -2.3561 0.9437
13.9715 3.0393 -2.3555 0.9437
10.2871 4.6979 -1.8630 0.9552
9.4262 5.1471 -1.7693 0.9574
9.4732 5.6207 -1.8146 0.9563
9.5226 6.1198 -1.8648 0.9551
11.7096 8.1301 -2.3484 0.9438
11.4088 8.5405 -2.3477 0.9439
11.0936 8.9398 -2.3471 0.9439
10.7645 9.3275 -2.3465 0.9439
10.4219 9.7031 -2.3458 0.9439
9.6979 10.4163 -2.3445 0.9439
8.9254 11.0757 -2.3433 0.9440
8.5221 11.3843 -2.3427 0.9440
7.6844 11.9571 -2.3415 0.9440
7.2509 12.2208 -2.3409 0.9440
6.3576 12.7008 -2.3398 0.9440
5.8988 12.9166 -2.3393 0.9441
5.4328 13.1162 -2.3387 0.9441
4.9601 13.2986 -2.3382 0.9441
3.5080 13.7440 -2.3368 0.9441
2.5176 13.9539 -2.3359 0.9441
1.0110 14.1358 -2.3347 0.9442
0.5057 14.1606 -2.3343 0.9442
0.0000 14.1676 -2.3340 0.9442
-1.0104 14.1276 -2.3333 0.9442
-1.5139 14.0809 -2.3330 0.9442
-2.5140 13.9339 -2.3325 0.9442
-3.0094 13.8340 -2.3323 0.9442
-3.9880 13.5819 -2.3319 0.9442
-6.7822 12.4206 -2.3313 0.9442
-7.6509 11.9050 -2.3313 0.9442
-8.8802 11.0197 -2.3315 0.9442
-9.2682 10.6961 -2.3316 0.9442
-7.8951 7.8950 -1.8394 0.9557
-7.9268 7.3801 -1.7842 0.9570
-7.9325 6.8735 -1.7291 0.9583
-8.6962 7.0078 -1.8399 0.9557
-8.7525 6.0770 -1.7553 0.9577
-12.6695 6.3419 -2.3340 0.9442
-14.1065 5.2615 -2.4803 0.9408
-14.4869 4.2538 -2.4873 0.9406
-14.6323 3.7347 -2.4878 0.9406
-14.7592 3.2107 -2.4883 0.9406
-14.8674 2.6824 -2.4888 0.9406
13.3571 0.0000 -2.5106 0.9471
13.3174 0.9525 -2.5095 0.9471
13.2720 1.4269 -2.5090 0.9471
13.1983 1.8976 -2.5063 0.9472
12.2415 2.6630 -2.3547 0.9503
10.4189 3.8860 -2.0901 0.9558
9.3386 4.2648 -1.9297 0.9591
9.7242 7.8363 -2.3474 0.9504
9.4361 8.1764 -2.3468 0.9505
8.8245 8.8245 -2.3457 0.9505
8.5019 9.1317 -2.3452 0.9505
7.1093 10.2394 -2.3430 0.9505
6.3579 10.7158 -2.3420 0.9506
5.5750 11.1373 -2.3410 0.9506
4.3499 11.6625 -2.3396 0.9506
3.9301 11.8081 -2.3392 0.9506
3.5055 11.9387 -2.3387 0.9506
2.6440 12.1541 -2.3379 0.9506
1.3290 12.3613 -2.3368 0.9507
0.0000 12.4274 -2.3359 0.9507
-0.4435 12.4179 -2.3356 0.9507
-1.3280 12.3519 -2.3351 0.9507
-1.7678 12.2954 -2.3348 0.9507
-3.0712 12.0330 -2.3342 0.9507
-3.9213 11.7817 -2.3339 0.9507
-5.1576 11.2937 -2.3337 0.9507
-5.5573 11.1021 -2.3336 0.9507
-6.7121 10.4442 -2.3335 0.9507
-7.4403 9.9390 -2.3336 0.9507
-7.7905 9.6674 -2.3337 0.9507
-7.8607 8.4430 -2.1683 0.9541
-7.8952 7.8952 -2.0987 0.9556
-7.9270 7.3803 -2.0358 0.9569
-7.9569 6.8947 -1.9790 0.9581
-7.9853 6.4349 -1.9276 0.9591
-8.0181 6.0023 -1.8826 0.9601
-8.7529 6.0772 -2.0029 0.9576
-10.9063 5.9553 -2.3357 0.9507
-11.1133 5.5629 -2.3359 0.9507
-12.5629 4.1813 -2.4887 0.9475
-12.7061 3.7309 -2.4891 0.9475
-12.8333 3.2755 -2.4895 0.9475
-13.0389 2.3525 -2.4904 0.9475
-13.1170 1.8859 -2.4908 0.9475
-13.1784 1.4168 -2.4913 0.9475
-13.2232 0.9457 -2.4918 0.9475
11.8725 0.0000 -2.5096 0.9526
11.8627 0.4237 -2.5091 0.9526
11.8378 0.8467 -2.5087 0.9526
11.6596 2.1036 -2.5044 0.9527
11.2508 2.4475 -2.4338 0.9540
10.5606 3.5149 -2.3527 0.9555
9.5480 3.9549 -2.1846 0.9586
9.2682 4.6393 -2.1908 0.9585
9.3469 5.5457 -2.2973 0.9565
9.1268 6.3368 -2.3486 0.9556
8.8929 6.6571 -2.3481 0.9556
8.1251 7.5647 -2.3466 0.9556
7.8482 7.8483 -2.3461 0.9556
7.5615 8.1217 -2.3456 0.9556
7.2653 8.3846 -2.3451 0.9557
6.6460 8.8780 -2.3442 0.9557
5.9933 9.3258 -2.3433 0.9557
4.9593 9.9074 -2.3419 0.9557
4.6017 10.0762 -2.3415 0.9557
4.2383 10.2323 -2.3411 0.9557
3.4964 10.5050 -2.3403 0.9557
3.1187 10.6213 -2.3399 0.9558
2.7372 10.7242 -2.3396 0.9558
2.3523 10.8134 -2.3392 0.9558
1.9646 10.8889 -2.3389 0.9558
0.7890 11.0321 -2.3379 0.9558
-0.0000 11.0576 -2.3374 0.9558
-0.3946 11.0494 -2.3371 0.9558
-2.3492 10.7990 -2.3361 0.9558
-2.7329 10.7075 -2.3359 0.9558
-3.1132 10.6025 -2.3358 0.9558
-3.8613 10.3524 -2.3355 0.9558
-4.2281 10.2076 -2.3355 0.9558
-5.2947 9.6965 -2.3353 0.9558
-5.6374 9.5013 -2.3353 0.9558
-7.5291 8.0868 -2.3356 0.9558
-7.8156 7.2766 -2.2572 0.9573
-7.8451 6.7978 -2.1942 0.9584
-7.9855 6.4351 -2.1678 0.9589
-8.0185 6.0025 -2.1172 0.9599
-9.2997 5.9765 -2.3367 0.9558
-9.8883 4.9497 -2.3374 0.9558
-10.6842 4.8793 -2.4828 0.9531
-10.8807 4.5069 -2.4895 0.9530
-11.0360 4.1162 -2.4898 0.9530
-11.3047 3.3194 -2.4905 0.9530
-11.6001 2.0929 -2.4916 0.9530
10.6661 0.3810 -2.5084 0.9571
10.6439 0.7613 -2.5080 0.9571
10.5588 1.5181 -2.5071 0.9571
10.0847 2.5740 -2.4461 0.9581
9.4969 3.1609 -2.3524 0.9597
9.2436 3.8288 -2.3515 0.9597
9.0993 4.1555 -2.3510 0.9597
8.9435 4.4768 -2.3506 0.9597
8.7763 4.7922 -2.3501 0.9597
8.5980 5.1014 -2.3496 0.9598
8.4088 5.4040 -2.3492 0.9598
8.2089 5.6996 -2.3487 0.9598
7.0597 7.0597 -2.3465 0.9598
6.8020 7.3058 -2.3460 0.9598
6.5357 7.5426 -2.3456 0.9598
2.9106 3.8881 -1.1415 0.9802
4.7779 8.7501 -2.3431 0.9599
4.4618 8.9136 -2.3427 0.9599
4.1402 9.0657 -2.3423 0.9599
3.8133 9.2062 -2.3419 0.9599
3.4818 9.3350 -2.3416 0.9599
3.1459 9.4519 -2.3412 0.9599
2.1166 9.7299 -2.3402 0.9599
1.7677 9.7979 -2.3399 0.9599
1.4167 9.8536 -2.3396 0.9599
1.0640 9.8966 -2.3393 0.9599
0.7100 9.9272 -2.3391 0.9599
0.0000 9.9504 -2.3386 0.9599
-0.3551 9.9431 -2.3383 0.9599
-0.7097 9.9231 -2.3381 0.9599
-1.4156 9.8456 -2.3377 0.9600
-1.7660 9.7881 -2.3376 0.9600
-2.1141 9.7182 -2.3374 0.9600
-2.8016 9.5415 -2.3371 0.9600
-3.8051 9.1862 -2.3369 0.9600
-4.7650 8.7264 -2.3367 0.9600
-5.3753 8.3642 -2.3367 0.9600
-5.6705 8.1670 -2.3367 0.9600
-5.9584 7.9596 -2.3368 0.9600
-6.5114 7.5146 -2.3369 0.9600
-6.7757 7.2776 -2.3370 0.9600
-7.2783 6.7763 -2.3372 0.9600
-7.5159 6.5126 -2.3373 0.9600
-7.8998 5.9137 -2.3192 0.9603
-8.1707 5.6730 -2.3378 0.9600
-8.5561 5.0765 -2.3382 0.9599
-8.7326 4.7684 -2.3384 0.9599
-9.9306 3.7039 -2.4910 0.9574
-10.0577 3.3475 -2.4913 0.9574
-10.1720 2.9868 -2.4916 0.9574
-10.3620 2.2541 -2.4923 0.9574
-10.4995 1.5096 -2.4930 0.9574
-10.5837 0.7569 -2.4938 0.9573
-10.6056 0.3788 -2.4942 0.9573
9.6794 0.3457 -2.5078 0.9608
9.6594 0.6909 -2.5074 0.9608
9.5256 1.7186 -2.5062 0.9608
9.4566 2.0572 -2.5057 0.9608
9.1232 2.6788 -2.4619 0.9615
8.5101 3.1741 -2.3517 0.9632
7.9661 4.3498 -2.3500 0.9632
7.8044 4.6306 -2.3496 0.9632
6.6348 6.1772 -2.3471 0.9632
3.0749 3.8157 -1.2688 0.9800
4.6196 7.7859 -2.3440 0.9633
4.0511 8.0931 -2.3433 0.9633
3.7591 8.2313 -2.3430 0.9633
3.4624 8.3591 -2.3426 0.9633
2.5480 8.6777 -2.3417 0.9633
1.2865 8.9477 -2.3405 0.9633
0.9662 8.9869 -2.3403 0.9633
0.6447 9.0147 -2.3400 0.9633
0.3225 9.0311 -2.3398 0.9633
-0.6445 9.0114 -2.3392 0.9634
-1.2855 8.9411 -2.3388 0.9634
-1.9199 8.8255 -2.3385 0.9634
-2.5443 8.6651 -2.3383 0.9634
-2.8519 8.5685 -2.3382 0.9634
-4.0418 8.0745 -2.3379 0.9634
-4.3274 7.9250 -2.3379 0.9634
-5.1497 7.4170 -2.3379 0.9634
-5.4113 7.2286 -2.3379 0.9634
-5.9134 6.8245 -2.3380 0.9634
-6.1534 6.6092 -2.3381 0.9634
-6.3857 6.3857 -2.3382 0.9634
-6.6098 6.1539 -2.3383 0.9634
-6.8256 5.9144 -2.3384 0.9634
-7.2310 5.4130 -2.3387 0.9634
-7.8316 4.6467 -2.3578 0.9631
-8.4234 4.5995 -2.4849 0.9611
-8.7529 3.9973 -2.4914 0.9610
-9.1330 3.0398 -2.4922 0.9610
-9.2367 2.7122 -2.4925 0.9610
-9.4773 1.7099 -2.4935 0.9610
-9.5335 1.3707 -2.4938 0.9610
-9.5777 1.0297 -2.4941 0.9610
-9.6295 0.3439 -2.4949 0.9610
8.8328 0.6317 -2.5069 0.9639
8.8033 0.9465 -2.5065 0.9639
8.7626 1.2599 -2.5062 0.9639
8.7108 1.5716 -2.5058 0.9639
8.5739 2.1884 -2.5050 0.9639
8.4778 2.4893 -2.5013 0.9639
8.3143 2.7672 -2.4807 0.9642
7.7827 2.9028 -2.3515 0.9661
7.6729 3.1782 -2.3511 0.9661
7.5534 3.4495 -2.3507 0.9661
7.4243 3.7163 -2.3504 0.9661
5.6769 3.6484 -1.9104 0.9723
5.5924 3.8828 -1.9273 0.9721
6.2675 5.4308 -2.3477 0.9661
6.0687 5.6502 -2.3473 0.9661
5.8622 5.8623 -2.3470 0.9661
5.4274 6.2636 -2.3462 0.9661
3.0694 4.1002 -1.4499 0.9789
4.4781 6.9680 -2.3448 0.9662
4.2259 7.1224 -2.3445 0.9662
3.9684 7.2677 -2.3442 0.9662
3.7060 7.4037 -2.3438 0.9662
3.4389 7.5302 -2.3435 0.9662
3.1675 7.6471 -2.3432 0.9662
2.6133 7.8516 -2.3426 0.9662
1.7584 8.0831 -2.3418 0.9662
1.1770 8.1862 -2.3413 0.9662
0.8840 8.2222 -2.3411 0.9662
0.5899 8.2477 -2.3408 0.9662
0.2951 8.2627 -2.3406 0.9662
0.0000 8.2673 -2.3404 0.9662
-1.4674 8.1330 -2.3396 0.9662
-1.7566 8.0750 -2.3395 0.9662
-2.0436 8.0068 -2.3393 0.9662
-2.6094 7.8400 -2.3391 0.9662
-3.1618 7.6334 -2.3390 0.9662
-3.4322 7.5155 -2.3389 0.9662
-4.4667 6.9503 -2.3389 0.9662
-4.7119 6.7865 -2.3389 0.9662
-4.9512 6.6141 -2.3389 0.9662
-5.4107 6.2443 -2.3390 0.9662
-5.8427 5.8427 -2.3392 0.9662
-6.0478 5.6307 -2.3393 0.9662
-6.2452 5.4115 -2.3394 0.9662
-6.4347 5.1854 -2.3395 0.9662
-7.0896 4.5562 -2.3857 0.9656
-7.5521 4.4809 -2.4859 0.9642
-8.3558 2.7811 -2.4930 0.9641
-8.4506 2.4813 -2.4933 0.9640
-8.5347 2.1784 -2.4936 0.9640
-8.7218 1.2540 -2.4945 0.9640
-8.7621 0.9420 -2.4948 0.9640
-8.7913 0.6288 -2.4951 0.9640
8.1512 0.0000 -2.5071 0.9665
8.1449 0.2909 -2.5068 0.9665
7.9585 1.7313 -2.5051 0.9665
7.8905 2.0139 -2.5047 0.9665
7.8124 2.2939 -2.5044 0.9665
7.7147 2.5677 -2.5009 0.9665
7.0808 2.9329 -2.3573 0.9684
6.8330 3.4204 -2.3503 0.9685
6.7056 3.6615 -2.3499 0.9685
5.6480 3.6297 -2.0650 0.9723
5.5811 3.8751 -2.0898 0.9720
6.1126 4.5759 -2.3485 0.9686
5.5860 5.2007 -2.3475 0.9686
5.1992 5.5844 -2.3468 0.9686
4.9959 5.7656 -2.3465 0.9686
3.8902 6.5565 -2.3449 0.9686
3.4116 6.8156 -2.3443 0.9686
2.9160 7.0399 -2.3437 0.9686
2.4058 7.2283 -2.3432 0.9686
1.6188 7.4416 -2.3424 0.9686
1.3520 7.4939 -2.3422 0.9686
0.8138 7.5698 -2.3417 0.9686
0.5431 7.5933 -2.3415 0.9686
0.2717 7.6073 -2.3413 0.9686
-0.2717 7.6061 -2.3410 0.9687
-1.3510 7.4881 -2.3404 0.9687
-1.6173 7.4347 -2.3402 0.9687
-1.8816 7.3719 -2.3401 0.9687
-2.1434 7.2998 -2.3400 0.9687
-2.4025 7.2184 -2.3400 0.9687
-3.6456 6.6764 -2.3397 0.9687
-3.8816 6.5420 -2.3397 0.9687
-4.1126 6.3993 -2.3397 0.9687
-4.3384 6.2485 -2.3397 0.9687
-5.3795 5.3795 -2.3400 0.9687
-5.5683 5.1842 -2.3401 0.9687
-5.7500 4.9824 -2.3402 0.9687
-5.9245 4.7742 -2.3403 0.9687
-6.4483 4.4771 -2.4145 0.9677
-6.8020 4.3714 -2.4870 0.9667
-6.9663 4.1333 -2.4914 0.9667
-7.1128 3.8839 -2.4927 0.9667
-7.3729 3.3671 -2.4931 0.9666
-7.5957 2.8330 -2.4935 0.9666
-7.8573 2.0055 -2.4942 0.9666
-8.0663 0.8672 -2.4953 0.9666
7.5411 0.0000 -2.5067 0.9687
7.5354 0.2691 -2.5064 0.9687
7.4167 1.3381 -2.5052 0.9687
7.2284 2.1224 -2.5042 0.9687
7.0485 2.6290 -2.5006 0.9688
6.3378 3.1725 -2.3559 0.9706
5.3383 4.6257 -2.3480 0.9707
2.8719 3.8364 -1.5930 0.9800
2.7293 3.9309 -1.5907 0.9800
3.8149 5.9361 -2.3455 0.9707
3.6001 6.0677 -2.3452 0.9707
3.3809 6.1916 -2.3450 0.9707
3.1573 6.3076 -2.3447 0.9707
2.2266 6.6897 -2.3436 0.9707
1.7433 6.8301 -2.3432 0.9707
1.2514 6.9358 -2.3427 0.9707
1.0029 6.9754 -2.3425 0.9707
0.5026 7.0280 -2.3421 0.9707
0.0000 7.0449 -2.3418 0.9707
-0.2514 7.0399 -2.3416 0.9707
-0.5025 7.0260 -2.3414 0.9707
-1.0023 6.9714 -2.3412 0.9707
-1.2505 6.9308 -2.3410 0.9707
-1.4970 6.8815 -2.3409 0.9708
-1.7416 6.8233 -2.3408 0.9708
-1.9839 6.7566 -2.3407 0.9708
-2.2237 6.6812 -2.3407 0.9708
-2.4607 6.5974 -2.3406 0.9708
-2.6946 6.5052 -2.3405 0.9708
-2.9250 6.4048 -2.3405 0.9708
-3.1517 6.2962 -2.3405 0.9708
-3.3744 6.1797 -2.3404 0.9708
-4.0156 5.7836 -2.3404 0.9708
-4.6110 5.3214 -2.3406 0.9708
-4.7982 5.1536 -2.3406 0.9708
-5.3221 4.6116 -2.3409 0.9708
-5.8871 4.4070 -2.4445 0.9695
-6.1481 4.2687 -2.4880 0.9689
-6.3069 4.0532 -2.4920 0.9689
-6.7079 3.3578 -2.4935 0.9689
-6.9314 2.8711 -2.4939 0.9689
-7.1198 2.3697 -2.4943 0.9689
-7.2005 2.1143 -2.4945 0.9689
-7.4311 1.0684 -2.4955 0.9688
-7.4653 0.8026 -2.4958 0.9688
-7.5052 0.2680 -2.4964 0.9688
6.9893 0.4999 -2.5058 0.9707
6.9662 0.7490 -2.5055 0.9707
6.9342 0.9970 -2.5052 0.9707
6.8934 1.2437 -2.5049 0.9707
6.6430 2.2110 -2.5037 0.9707
6.5590 2.4464 -2.5034 0.9707
5.7673 3.1492 -2.3499 0.9725
5.6505 3.3526 -2.3496 0.9725
5.2578 3.9359 -2.3487 0.9725
5.1133 4.1205 -2.3484 0.9725
4.9623 4.2999 -2.3481 0.9725
4.6418 4.6418 -2.3475 0.9725
4.4726 4.8039 -2.3472 0.9725
3.0760 3.8170 -1.7531 0.9794
2.8720 3.8366 -1.7138 0.9798
3.1430 5.7560 -2.3453 0.9725
2.9353 5.8639 -2.3450 0.9725
2.7238 5.9643 -2.3448 0.9725
2.5089 6.0571 -2.3445 0.9725
2.0700 6.2194 -2.3440 0.9725
1.8465 6.2887 -2.3438 0.9725
1.1634 6.4483 -2.3432 0.9725
0.9324 6.4852 -2.3430 0.9726
0.4673 6.5342 -2.3426 0.9726
0.2338 6.5462 -2.3425 0.9726
0.0000 6.5499 -2.3423 0.9726
-0.2338 6.5453 -2.3421 0.9726
-0.4672 6.5324 -2.3420 0.9726
-1.1626 6.4440 -2.3416 0.9726
-1.6192 6.3441 -2.3414 0.9726
-1.8446 6.2821 -2.3414 0.9726
-2.2879 6.1341 -2.3412 0.9726
-2.7196 5.9550 -2.3411 0.9726
-3.1374 5.7457 -2.3411 0.9726
-3.3405 5.6301 -2.3411 0.9726
-3.5393 5.5073 -2.3411 0.9726
-3.7336 5.3774 -2.3411 0.9726
-3.9232 5.2408 -2.3411 0.9726
-4.4612 4.7917 -2.3412 0.9726
-4.6295 4.6295 -2.3413 0.9726
-4.9846 4.3192 -2.3586 0.9724
-5.8661 3.7699 -2.4936 0.9708
-6.5361 2.4378 -2.4946 0.9708
-6.6194 2.2032 -2.4948 0.9708
-6.6944 1.9657 -2.4950 0.9708
-6.7609 1.7256 -2.4953 0.9708
-6.9403 0.7462 -2.4962 0.9708
6.4999 0.6988 -2.5053 0.9724
6.4321 1.1605 -2.5047 0.9724
6.2691 1.8408 -2.5038 0.9724
6.1987 2.0631 -2.5036 0.9724
5.9355 2.7107 -2.5006 0.9724
5.8267 2.9166 -2.4970 0.9725
5.2892 3.1382 -2.3569 0.9740
5.0351 3.4959 -2.3490 0.9741
4.7717 3.8453 -2.3485 0.9741
4.6309 4.0127 -2.3482 0.9741
4.0108 4.6287 -2.3471 0.9741
3.0762 3.8173 -1.8788 0.9792
2.8722 3.8368 -1.8367 0.9797
3.3098 5.1501 -2.3460 0.9741
2.9333 5.3720 -2.3455 0.9741
1.9320 5.8046 -2.3444 0.9741
1.5127 5.9266 -2.3440 0.9741
1.3001 5.9763 -2.3438 0.9741
1.0858 6.0184 -2.3436 0.9741
0.8703 6.0529 -2.3434 0.9741
0.0000 6.1134 -2.3428 0.9742
-0.6534 6.0774 -2.3424 0.9742
-1.2991 5.9719 -2.3421 0.9742
-1.5114 5.9215 -2.3420 0.9742
-1.7217 5.8636 -2.3419 0.9742
-1.9298 5.7982 -2.3418 0.9742
-2.1355 5.7255 -2.3418 0.9742
-2.3385 5.6455 -2.3417 0.9742
-2.9284 5.3630 -2.3416 0.9742
-3.3035 5.1404 -2.3416 0.9742
-3.6619 4.8917 -2.3417 0.9742
-4.0017 4.6182 -2.3417 0.9742
-4.1640 4.4725 -2.3418 0.9742
-4.5813 4.2653 -2.3988 0.9735
-4.9041 4.2494 -2.4867 0.9726
-5.0593 4.0771 -2.4900 0.9726
-5.4753 3.5187 -2.4942 0.9725
-5.9217 2.7044 -2.4947 0.9725
-6.3101 1.6106 -2.4957 0.9725
-6.3641 1.3844 -2.4959 0.9725
-6.4988 0.4648 -2.4968 0.9725
6.1180 0.2185 -2.5055 0.9739
6.0856 0.6543 -2.5050 0.9739
6.0221 1.0865 -2.5045 0.9739
5.9789 1.3006 -2.5042 0.9739
5.8696 1.7235 -2.5037 0.9739
5.8037 1.9317 -2.5034 0.9739
5.7305 2.1374 -2.5032 0.9739
5.6499 2.3403 -2.5029 0.9739
5.2413 3.1098 -2.4943 0.9740
4.9338 3.1708 -2.4003 0.9750
4.5942 3.4392 -2.3488 0.9755
4.4680 3.6006 -2.3485 0.9755
4.3362 3.7573 -2.3483 0.9755
4.0562 4.0562 -2.3477 0.9755
3.9084 4.1979 -2.3475 0.9755
3.7557 4.3343 -2.3472 0.9755
2.9249 4.9297 -2.3460 0.9755
2.7469 5.0305 -2.3458 0.9755
2.5653 5.1248 -2.3456 0.9755
2.3805 5.2127 -2.3454 0.9755
2.1928 5.2938 -2.3451 0.9755
1.8092 5.4358 -2.3447 0.9755
1.4166 5.5501 -2.3443 0.9755
0.8150 5.6684 -2.3438 0.9756
0.2044 5.7219 -2.3433 0.9756
0.0000 5.7252 -2.3432 0.9756
-0.2043 5.7213 -2.3431 0.9756
-0.4084 5.7100 -2.3429 0.9756
-0.6119 5.6915 -2.3428 0.9756
-0.8146 5.6658 -2.3427 0.9756
-1.4154 5.5456 -2.3424 0.9756
-1.6124 5.4914 -2.3424 0.9756
-2.1900 5.2872 -2.3422 0.9756
-2.3773 5.2056 -2.3422 0.9756
-2.5616 5.1174 -2.3422 0.9756
-2.7426 5.0226 -2.3421 0.9756
-3.0939 4.8142 -2.3421 0.9756
-3.2638 4.7007 -2.3421 0.9756
-3.4295 4.5813 -2.3422 0.9756
-4.2156 4.2156 -2.4400 0.9746
-4.4493 4.1425 -2.4881 0.9741
-4.5999 3.9858 -2.4911 0.9740
-4.7451 3.8239 -2.4942 0.9740
-4.8791 3.6524 -2.4944 0.9740
-5.0065 3.4761 -2.4945 0.9740
-5.2423 3.1104 -2.4948 0.9740
-5.4514 2.7288 -2.4950 0.9740
-5.6329 2.3332 -2.4953 0.9740
-5.7130 2.1308 -2.4955 0.9740
-5.7858 1.9257 -2.4957 0.9740
-5.8513 1.7181 -2.4959 0.9740
-6.0028 1.0830 -2.4965 0.9740
-6.0658 0.6521 -2.4969 0.9740
-6.0858 0.4353 -2.4971 0.9740
5.7448 0.2052 -2.5053 0.9752
5.7333 0.4101 -2.5051 0.9752
5.6884 0.8179 -2.5046 0.9752
5.6144 1.2214 -2.5041 0.9752
5.5667 1.4208 -2.5038 0.9752
5.5119 1.6184 -2.5036 0.9752
5.4501 1.8140 -2.5033 0.9752
5.3057 2.1977 -2.5028 0.9753
5.2233 2.3854 -2.5026 0.9753
4.9294 2.9248 -2.4980 0.9753
4.8163 3.0952 -2.4951 0.9753
4.6087 3.1999 -2.4452 0.9758
4.1960 3.3814 -2.3486 0.9768
4.0722 3.5286 -2.3483 0.9768
3.5272 4.0706 -2.3474 0.9768
2.8726 3.8373 -2.0890 0.9793
2.9108 4.5294 -2.3465 0.9768
2.5798 4.7246 -2.3460 0.9768
2.4093 4.8132 -2.3458 0.9768
2.2358 4.8957 -2.3456 0.9768
1.8805 5.0419 -2.3452 0.9768
0.7655 5.3240 -2.3442 0.9768
0.5749 5.3476 -2.3440 0.9768
0.3837 5.3644 -2.3439 0.9768
-0.1919 5.3737 -2.3435 0.9768
-0.5747 5.3458 -2.3432 0.9768
-1.1427 5.2531 -2.3430 0.9768
-1.5145 5.1579 -2.3428 0.9768
-2.0570 4.9661 -2.3427 0.9768
-2.5760 4.7177 -2.3426 0.9768
-2.7428 4.6227 -2.3426 0.9768
-3.2212 4.3031 -2.3426 0.9768
-4.3260 3.7485 -2.4947 0.9753
-4.7024 3.2650 -2.4949 0.9753
-4.8162 3.0952 -2.4951 0.9753
-4.9238 2.9214 -2.4952 0.9753
-5.0252 2.7440 -2.4953 0.9753
-5.2087 2.3788 -2.4956 0.9753
-5.4342 1.8087 -2.4961 0.9753
-5.4957 1.6137 -2.4962 0.9753
-5.5502 1.4166 -2.4964 0.9753
-5.6379 1.0172 -2.4968 0.9753
-5.6971 0.6125 -2.4972 0.9753
-5.7158 0.4088 -2.4974 0.9753
5.3976 0.3861 -2.5049 0.9764
5.3799 0.5784 -2.5046 0.9764
5.3554 0.7700 -2.5044 0.9764
5.1893 1.5237 -2.5035 0.9764
5.1312 1.7078 -2.5032 0.9764
5.0664 1.8897 -2.5030 0.9764
4.9953 2.0691 -2.5027 0.9764
4.9178 2.2459 -2.5025 0.9765
4.8340 2.4197 -2.5023 0.9765
4.6474 2.7574 -2.5014 0.9765
4.3091 3.2257 -2.4916 0.9766
3.7128 3.4568 -2.3482 0.9779
3.5867 3.5867 -2.3479 0.9779
3.4561 3.7121 -2.3477 0.9779
3.0771 3.8185 -2.2700 0.9786
2.7301 3.9321 -2.2158 0.9791
2.5866 4.3595 -2.3464 0.9779
2.2686 4.5322 -2.3460 0.9779
2.1053 4.6099 -2.3458 0.9779
1.7707 4.7476 -2.3455 0.9779
1.6000 4.8074 -2.3453 0.9779
1.4273 4.8610 -2.3451 0.9779
1.2528 4.9085 -2.3449 0.9779
0.7208 5.0133 -2.3445 0.9779
0.3613 5.0514 -2.3442 0.9779
0.1807 5.0608 -2.3440 0.9779
0.0000 5.0637 -2.3439 0.9779
-0.5412 5.0340 -2.3436 0.9779
-1.2519 4.9050 -2.3433 0.9779
-1.5986 4.8030 -2.3431 0.9779
-1.7690 4.7428 -2.3431 0.9779
-1.9371 4.6765 -2.3431 0.9779
-2.1027 4.6044 -2.3430 0.9779
-2.2657 4.5263 -2.3430 0.9779
-2.4258 4.4425 -2.3430 0.9779
-3.5203 4.0627 -2.4883 0.9766
-3.6667 3.9383 -2.4907 0.9766
-3.8087 3.8087 -2.4932 0.9765
-3.9450 3.6729 -2.4950 0.9765
-4.0737 3.5299 -2.4951 0.9765
-4.1972 3.3823 -2.4952 0.9765
-4.4282 3.0745 -2.4953 0.9765
-4.5353 2.9146 -2.4954 0.9765
-4.6366 2.7510 -2.4956 0.9765
-5.1171 1.7031 -2.4964 0.9765
-5.1750 1.5195 -2.4965 0.9765
-5.2263 1.3339 -2.4967 0.9765
-5.2709 1.1466 -2.4969 0.9765
5.1070 0.0000 -2.5051 0.9775
5.0533 0.7266 -2.5043 0.9775
4.9877 1.0850 -2.5038 0.9775
4.9454 1.2622 -2.5036 0.9775
4.8967 1.4378 -2.5034 0.9775
4.7808 1.7832 -2.5029 0.9775
4.7137 1.9525 -2.5027 0.9775
4.5616 2.2834 -2.5022 0.9775
4.3862 2.6025 -2.5018 0.9775
4.2901 2.7571 -2.5015 0.9775
4.1853 2.9059 -2.4993 0.9776
4.0749 3.0504 -2.4968 0.9776
3.7966 3.2897 -2.4642 0.9779
3.1341 3.6170 -2.3476 0.9789
3.0028 3.7262 -2.3474 0.9789
2.8676 3.8307 -2.3472 0.9789
2.7288 3.9302 -2.3470 0.9789
2.4411 4.1142 -2.3466 0.9789
2.2925 4.1984 -2.3464 0.9789
2.1410 4.2772 -2.3462 0.9789
1.9868 4.3505 -2.3460 0.9789
1.8301 4.4183 -2.3459 0.9789
1.6711 4.4805 -2.3457 0.9789
1.3471 4.5876 -2.3453 0.9789
1.0162 4.6714 -2.3450 0.9789
0.8488 4.7044 -2.3449 0.9789
0.6803 4.7314 -2.3447 0.9789
0.5109 4.7524 -2.3446 0.9789
-0.6800 4.7296 -2.3438 0.9789
-0.8484 4.7021 -2.3438 0.9789
-1.0156 4.6687 -2.3437 0.9789
-1.1816 4.6294 -2.3436 0.9789
-1.5087 4.5331 -2.3435 0.9789
-1.6695 4.4762 -2.3435 0.9789
-1.8282 4.4137 -2.3434 0.9789
-1.9846 4.3456 -2.3434 0.9789
-2.1384 4.2720 -2.3434 0.9789
-2.2895 4.1929 -2.3433 0.9789
-3.0393 4.0601 -2.4878 0.9777
-3.1850 3.9524 -2.4899 0.9776
-3.3270 3.8396 -2.4921 0.9776
-3.8447 3.3315 -2.4954 0.9776
-3.9613 3.1922 -2.4955 0.9776
-4.0729 3.0489 -2.4956 0.9776
-4.1792 2.9017 -2.4957 0.9776
-4.2803 2.7508 -2.4958 0.9776
-4.3760 2.5964 -2.4959 0.9776
-4.4660 2.4386 -2.4960 0.9776
-4.7686 1.7786 -2.4965 0.9776
-4.9323 1.2589 -2.4970 0.9776
-4.9745 1.0821 -2.4972 0.9776
-5.0103 0.9039 -2.4973 0.9776
-5.0627 0.5443 -2.4977 0.9776
-5.0793 0.3633 -2.4979 0.9776
-5.0894 0.1818 -2.4981 0.9776
4.8250 0.1723 -2.5047 0.9785
4.7997 0.5160 -2.5043 0.9785
4.7778 0.6870 -2.5041 0.9785
4.7499 0.8570 -2.5039 0.9785
4.3131 2.1590 -2.5022 0.9785
4.2329 2.3113 -2.5020 0.9785
4.0565 2.6069 -2.5015 0.9785
3.9605 2.7498 -2.5013 0.9785
3.8579 2.8880 -2.5000 0.9785
3.6356 3.1502 -2.4956 0.9786
3.3438 3.3438 -2.4532 0.9789
2.0245 4.0445 -2.3464 0.9798
1.8787 4.1139 -2.3462 0.9798
1.7306 4.1780 -2.3461 0.9798
1.5803 4.2368 -2.3459 0.9798
1.4279 4.2902 -2.3457 0.9798
1.1181 4.3806 -2.3454 0.9798
0.8026 4.4487 -2.3451 0.9798
0.4832 4.4941 -2.3449 0.9798
0.3224 4.5082 -2.3447 0.9798
0.1613 4.5166 -2.3446 0.9798
0.0000 4.5193 -2.3445 0.9798
-0.1613 4.5162 -2.3444 0.9798
-0.4830 4.4928 -2.3442 0.9798
-0.6431 4.4726 -2.3441 0.9798
-1.5788 4.2330 -2.3438 0.9798
-1.7289 4.1739 -2.3437 0.9798
-2.1821 3.9962 -2.3621 0.9797
-2.3783 4.0084 -2.4180 0.9792
-2.7368 3.9418 -2.4895 0.9786
-3.0158 3.7424 -2.4934 0.9786
-3.1501 3.6354 -2.4955 0.9786
-3.5210 3.2781 -2.4957 0.9786
-3.6358 3.1505 -2.4958 0.9786
-3.7461 3.0188 -2.4959 0.9786
-4.3031 2.1540 -2.4964 0.9785
-4.6184 1.3561 -2.4971 0.9785
-4.6642 1.1905 -2.4972 0.9785
-4.7040 1.0233 -2.4974 0.9785
-4.7656 0.6852 -2.4977 0.9785
4.5608 0.3262 -2.5044 0.9794
4.5459 0.4887 -2.5042 0.9794
4.4666 0.9717 -2.5036 0.9794
4.4287 1.1304 -2.5034 0.9794
4.2214 1.7486 -2.5026 0.9794
4.1560 1.8980 -2.5024 0.9794
4.0093 2.1893 -2.5020 0.9794
3.6557 2.7366 -2.5011 0.9794
3.4479 2.9876 -2.4988 0.9794
3.1017 3.3314 -2.4930 0.9795
2.9374 3.3899 -2.4567 0.9798
2.1865 3.6851 -2.3469 0.9806
1.7797 3.8969 -2.3464 0.9807
1.0591 4.1496 -2.3456 0.9807
0.7603 4.2141 -2.3454 0.9807
0.6094 4.2384 -2.3452 0.9807
0.4577 4.2572 -2.3451 0.9807
0.1528 4.2786 -2.3449 0.9807
0.0000 4.2811 -2.3448 0.9807
-0.1528 4.2782 -2.3447 0.9807
-0.3054 4.2699 -2.3446 0.9807
-0.7600 4.2123 -2.3443 0.9807
-0.9098 4.1824 -2.3443 0.9807
-1.0585 4.1471 -2.3442 0.9807
-1.2058 4.1066 -2.3442 0.9807
-1.6378 3.9540 -2.3440 0.9807
-1.9829 3.9614 -2.4263 0.9800
-2.5959 3.7388 -2.4930 0.9795
-2.8594 3.5483 -2.4959 0.9794
-2.9842 3.4440 -2.4959 0.9794
-3.2224 3.2224 -2.4960 0.9794
-3.4442 2.9844 -2.4961 0.9794
-3.5487 2.8597 -2.4962 0.9794
-3.8344 2.4642 -2.4964 0.9794
-3.9200 2.3259 -2.4965 0.9794
-4.0763 2.0405 -2.4967 0.9794
-4.1468 1.8938 -2.4968 0.9794
-4.4880 0.8097 -2.4978 0.9794
-4.5349 0.4875 -2.4981 0.9794
4.3380 0.0000 -2.5046 0.9802
4.2927 0.6172 -2.5039 0.9802
4.2676 0.7700 -2.5037 0.9802
4.2371 0.9217 -2.5035 0.9802
4.2012 1.0723 -2.5033 0.9802
4.1599 1.2215 -2.5031 0.9802
4.1133 1.3691 -2.5029 0.9802
4.0046 1.6587 -2.5025 0.9802
3.9425 1.8005 -2.5023 0.9802
3.8754 1.9399 -2.5021 0.9802
3.7266 2.2111 -2.5017 0.9802
3.4680 2.5961 -2.5011 0.9802
3.3729 2.7181 -2.5009 0.9802
2.5672 3.4294 -2.4733 0.9804
2.4001 3.4567 -2.4296 0.9808
1.9481 3.5677 -2.3469 0.9814
1.8194 3.6347 -2.3467 0.9814
1.6884 3.6971 -2.3466 0.9814
1.2833 3.8556 -2.3461 0.9814
1.0048 3.9369 -2.3458 0.9814
0.4342 4.0390 -2.3453 0.9814
0.2898 4.0517 -2.3452 0.9814
0.1450 4.0593 -2.3451 0.9814
0.0000 4.0617 -2.3450 0.9814
-0.2897 4.0510 -2.3448 0.9814
-0.4341 4.0380 -2.3448 0.9814
-0.5780 4.0198 -2.3447 0.9814
-0.8632 3.9681 -2.3445 0.9814
-1.0043 3.9346 -2.3445 0.9814
-1.1440 3.8962 -2.3444 0.9814
-1.2957 3.8930 -2.3689 0.9812
-1.6221 3.9160 -2.4472 0.9806
-1.7907 3.9210 -2.4887 0.9803
-2.0681 3.7874 -2.4914 0.9803
-2.4657 3.5514 -2.4961 0.9802
-2.7129 3.3665 -2.4962 0.9802
-2.9462 3.1644 -2.4962 0.9802
-3.2678 2.8315 -2.4964 0.9802
-3.3668 2.7132 -2.4964 0.9802
-3.4616 2.5913 -2.4965 0.9802
-3.7192 2.2067 -2.4968 0.9802
-3.9342 1.7967 -2.4971 0.9802
-3.9960 1.6552 -2.4972 0.9802
-4.1918 1.0699 -2.4977 0.9802
-4.2275 0.9196 -2.4978 0.9802
-4.2579 0.7682 -2.4980 0.9802
-4.2828 0.6158 -2.4981 0.9802
-4.3024 0.4625 -2.4983 0.9802
-4.3164 0.3087 -2.4984 0.9802
