ply
format ascii 1.0
element vertex 1211
property float32 x
property float32 y
property float32 z
property float32 I
end_header
-36.0271 -33.5424 8.6797 0.8188
-30.9232 -33.2139 8.0018 0.8317
-28.7711 -33.2036 7.7468 0.8366
-26.7493 -33.1938 7.5169 0.8410
-25.1460 -33.5912 7.3988 0.8433
-21.3156 -33.1678 6.9520 0.8520
-19.6747 -33.1599 6.7987 0.8550
-12.3526 -33.1187 6.2327 0.8663
-5.7678 -17.3293 3.2204 0.9285
-8.0421 -36.9690 6.6711 0.8576
31.5344 -33.8703 8.1600 0.8286
35.2531 -32.8218 8.4931 0.8223
-30.5850 -18.1470 5.4481 0.8660
-35.7859 -33.3179 7.4904 0.8205
-33.4079 -33.4079 7.2378 0.8260
-28.7708 -33.2033 6.7305 0.8371
-26.7490 -33.1936 6.5307 0.8416
-23.0343 -33.1758 6.1873 0.8492
-21.3155 -33.1675 6.0399 0.8525
-18.0991 -33.1460 5.7855 0.8583
-12.4026 -33.2526 5.4369 0.8662
-5.7684 -17.3313 2.7983 0.9287
-10.2775 -35.0019 5.5885 0.8628
-9.2055 -36.0669 5.7024 0.8602
-8.0419 -36.9681 5.7958 0.8580
-6.5667 -45.6726 7.0687 0.8297
31.5484 -36.4088 7.3803 0.8229
31.5371 -33.8732 7.0901 0.8292
35.2528 -32.8215 7.3789 0.8229
-30.5444 -18.1228 4.6249 0.8665
-33.2244 -33.2244 6.1186 0.8273
-24.9417 -33.3182 5.4197 0.8455
-21.9153 -34.1009 5.2786 0.8492
-21.9691 -37.0270 5.6065 0.8406
-19.0403 -38.0377 5.5392 0.8423
-14.1806 -34.2350 4.8254 0.8612
-14.1800 -38.0179 5.2839 0.8490
-11.1595 -38.0056 5.1581 0.8523
-6.5642 -45.6548 6.0063 0.8302
-35.3336 -30.6167 5.0204 0.8285
-34.4249 -32.0508 5.0507 0.8276
-33.2238 -33.2238 5.0454 0.8278
-26.7486 -33.1930 4.5776 0.8424
-21.9130 -34.0973 4.3524 0.8495
-22.5853 -38.0654 4.7529 0.8369
-18.0988 -33.1455 4.0553 0.8590
-19.0471 -38.0513 4.5693 0.8427
-15.1305 -33.1313 3.9111 0.8637
-14.1785 -34.2299 3.9785 0.8615
-14.1847 -38.0306 4.3586 0.8493
-5.7697 -17.3352 1.9619 0.9291
31.5540 -36.4152 5.1741 0.8238
31.5424 -33.8789 4.9706 0.8301
-33.2235 -33.2235 3.9774 0.8281
-29.6076 -34.1690 3.8273 0.8340
-25.7578 -34.4085 3.6385 0.8415
-23.0338 -33.1750 3.4189 0.8503
-22.5936 -38.0795 3.7482 0.8372
-15.1304 -33.1311 3.0833 0.8640
-14.1894 -38.0432 3.4372 0.8496
-8.0413 -36.9653 3.2024 0.8591
-0.9146 -25.6077 2.1691 0.9023
35.2518 -32.8206 4.0773 0.8242
31.3182 -15.6768 2.9648 0.8688
-37.8231 -12.5887 2.4719 0.8523
-30.4242 -18.0516 2.1937 0.8678
-33.2232 -33.2232 2.9135 0.8284
-29.6050 -34.1660 2.8034 0.8343
-26.7482 -33.1925 2.6434 0.8430
-19.3076 -25.7919 1.9979 0.8789
-23.0336 -33.1748 2.5044 0.8506
-21.9085 -34.0903 2.5128 0.8501
-19.0393 -38.0358 2.6376 0.8433
-14.1779 -38.0126 2.5158 0.8499
-11.1573 -37.9981 2.4557 0.8532
-11.0562 -43.3175 2.7722 0.8360
-8.0411 -36.9644 2.3458 0.8593
-6.7497 -37.4111 2.3573 0.8587
13.8248 -17.1556 1.3663 0.9155
31.5595 -36.4216 2.9884 0.8244
35.2515 -32.8203 2.9867 0.8245
31.3179 -15.6766 2.1718 0.8690
-30.1500 -24.2964 1.5268 0.8564
-26.7479 -33.1922 1.6809 0.8431
-18.0984 -33.1448 1.4891 0.8597
-14.1661 -37.9808 1.5984 0.8502
-11.1686 -38.0366 1.5631 0.8533
-11.0561 -43.3173 1.7628 0.8361
-8.0409 -36.9635 1.4916 0.8595
0.0000 -45.2446 1.7840 0.8343
31.5503 -33.8874 1.8257 0.8308
35.6181 -33.1616 1.9189 0.8230
23.4239 -16.2635 1.1244 0.8921
31.3177 -15.6765 1.3810 0.8692
-33.2226 -33.2226 0.7936 0.8286
-29.5999 -34.1601 0.7635 0.8346
-26.7477 -33.1920 0.7201 0.8432
-25.7506 -34.3988 0.7258 0.8421
-23.0333 -33.1743 0.6822 0.8508
-21.9039 -34.0832 0.6844 0.8504
-22.5774 -38.0522 0.7474 0.8378
-18.0983 -33.1446 0.6379 0.8598
-14.1702 -34.2099 0.6255 0.8623
-5.7723 -17.3430 0.3088 0.9295
-11.0560 -43.3170 0.7552 0.8362
31.5530 -33.8903 0.7822 0.8309
23.8704 -16.5735 0.4909 0.8902
-30.3151 -17.9868 -0.1985 0.8685
-33.2224 -33.2223 -0.2646 0.8287
-25.7482 -34.3956 -0.2419 0.8421
-21.9016 -34.0796 -0.2281 0.8504
-22.6003 -38.0907 -0.2494 0.8376
-19.0584 -38.0738 -0.2397 0.8434
-14.1681 -34.2049 -0.2084 0.8623
-14.1659 -37.9803 -0.2282 0.8503
-11.0559 -43.3167 -0.2517 0.8363
-6.5490 -45.5491 -0.2591 0.8319
13.7861 -17.1075 -0.1237 0.9159
23.8375 -16.5507 -0.1634 0.8904
-30.3041 -17.9802 -0.9922 0.8685
-33.2221 -33.2220 -1.3230 0.8286
-25.7458 -34.3923 -1.2097 0.8421
-23.0330 -33.1738 -1.1372 0.8508
-21.8994 -34.0761 -1.1406 0.8504
-18.0981 -33.1441 -1.0633 0.8598
-14.9133 -32.6556 -1.0109 0.8662
-5.7736 -17.3468 -0.5148 0.9295
-6.5465 -45.5315 -1.2953 0.8319
13.7732 -17.0915 -0.6181 0.9159
31.5582 -33.8959 -1.3041 0.8308
32.8306 -32.8307 -1.3074 0.8304
35.6172 -33.1608 -1.3703 0.8231
23.8382 -16.5512 -0.8172 0.8904
-45.6211 -17.0158 -2.4693 0.8228
-44.2455 -20.2062 -2.4668 0.8230
-43.4696 -21.7593 -2.4653 0.8231
-42.7223 -23.3281 -2.4686 0.8229
-41.0904 -26.4072 -2.4771 0.8223
-29.1904 -21.8517 -1.8492 0.8641
-17.5958 -16.3823 -1.2192 0.9082
-29.5923 -34.1513 -2.2917 0.8344
-26.7471 -33.1912 -2.1618 0.8431
-25.7433 -34.3891 -2.1785 0.8419
-21.8971 -34.0726 -2.0541 0.8503
-22.5769 -38.0513 -2.2439 0.8376
-18.0979 -33.1439 -1.9151 0.8596
-7.9829 -15.9479 -0.9045 0.9311
-14.1657 -37.9798 -2.0557 0.8501
-5.7742 -17.3488 -0.9273 0.9294
-10.9272 -37.2146 -1.9670 0.8561
-7.4520 -34.2563 -1.7779 0.8690
-6.5439 -45.5141 -2.3319 0.8318
-5.2237 -48.5876 -2.4783 0.8222
7.5270 -34.6009 -1.7958 0.8678
9.3548 -31.8594 -1.6839 0.8755
16.5318 -33.0263 -1.8730 0.8625
19.1032 -34.9849 -2.0215 0.8524
24.2704 -34.9560 -2.1582 0.8433
27.7748 -37.1028 -2.3505 0.8306
13.7604 -17.0756 -1.1122 0.9159
30.1556 -34.8014 -2.3353 0.8316
31.2762 -33.5930 -2.3277 0.8321
33.3725 -31.0709 -2.3124 0.8331
34.3462 -29.7611 -2.3048 0.8336
25.0252 -18.7337 -1.5853 0.8823
23.8304 -16.5458 -1.4713 0.8903
38.4410 -22.8082 -2.2668 0.8361
33.0769 -18.0613 -1.9113 0.8599
41.0303 -16.9953 -2.2523 0.8370
41.5777 -15.5077 -2.2505 0.8372
45.2706 -13.2927 -2.3928 0.8278
45.6875 -11.6611 -2.3913 0.8279
46.9244 -3.3561 -2.3858 0.8283
47.0011 -1.6787 -2.3851 0.8283
-35.2530 -2.5213 -2.5914 0.8678
-33.8946 -9.9524 -2.5901 0.8679
-33.5097 -11.1531 -2.5895 0.8679
-33.0808 -12.3385 -2.5888 0.8680
-27.8229 -17.8807 -2.4250 0.8758
-27.1512 -18.8514 -2.4236 0.8758
-25.7043 -20.7139 -2.4205 0.8760
-17.5124 -16.3046 -1.7544 0.9085
-15.0611 -16.1767 -1.6206 0.9152
-21.6462 -24.9810 -2.4236 0.8758
-17.1828 -21.3225 -2.0079 0.8960
-19.8218 -26.4791 -2.4252 0.8758
-18.8676 -27.1745 -2.4257 0.8757
-17.8875 -27.8336 -2.4259 0.8757
-15.8556 -29.0373 -2.4258 0.8757
-8.0021 -15.9862 -1.3108 0.9308
-7.2991 -15.9829 -1.2883 0.9320
-12.6512 -30.5428 -2.4240 0.8758
-8.1579 -31.9621 -2.4187 0.8761
-4.7963 -22.0484 -1.6544 0.9135
-5.8475 -32.4107 -2.4148 0.8763
-3.5136 -32.6816 -2.4101 0.8765
-1.1706 -32.7760 -2.4047 0.8767
0.0000 -32.7566 -2.4018 0.8769
2.3306 -32.5855 -2.3953 0.8772
4.6356 -32.2414 -2.3883 0.8775
3.5447 -16.2946 -1.2227 0.9353
7.6981 -30.1607 -2.2823 0.8826
7.7394 -20.7500 -1.6238 0.9150
12.3143 -29.7294 -2.3594 0.8789
15.3300 -28.0748 -2.3454 0.8796
13.7475 -17.0596 -1.6065 0.9159
20.6783 -23.8640 -2.3153 0.8810
22.2278 -22.2278 -2.3049 0.8815
22.9548 -21.3717 -2.2996 0.8818
25.0335 -18.7398 -2.2928 0.8821
25.6657 -17.8200 -2.2910 0.8822
29.5965 -14.8150 -2.4268 0.8757
30.1562 -13.7719 -2.4308 0.8755
30.6103 -12.6792 -2.4293 0.8756
31.7407 -9.3199 -2.4255 0.8757
32.0389 -8.1775 -2.4245 0.8758
32.8317 -3.5298 -2.4212 0.8760
32.9289 -2.3551 -2.4206 0.8760
32.9855 -1.1781 -2.4201 0.8760
-26.7491 -0.9554 -2.5697 0.8980
-26.3415 -4.7525 -2.5697 0.8980
-26.1530 -5.6892 -2.5695 0.8980
-25.9303 -6.6183 -2.5692 0.8980
-25.3837 -8.4485 -2.5684 0.8981
-25.0606 -9.3471 -2.5678 0.8981
-24.3170 -11.1052 -2.5665 0.8981
-23.8976 -11.9623 -2.5657 0.8982
-22.9667 -13.6268 -2.5638 0.8982
-17.5126 -16.3048 -2.2971 0.9083
-16.1726 -16.1726 -2.1958 0.9122
-15.6529 -19.4241 -2.3949 0.9046
-14.9394 -19.9567 -2.3933 0.9047
-7.9929 -15.9677 -1.7143 0.9308
-7.2991 -15.9828 -1.6869 0.9318
-8.6815 -23.2761 -2.3850 0.9050
-5.7755 -17.3527 -1.7558 0.9291
-6.1355 -24.0387 -2.3818 0.9051
-4.6080 -21.1825 -2.0812 0.9166
-3.5240 -24.5103 -2.3773 0.9053
-1.7638 -24.6607 -2.3736 0.9054
-0.8817 -24.6866 -2.3715 0.9055
2.2843 -21.2466 -2.0515 0.9177
4.3583 -24.1563 -2.3566 0.9061
3.5449 -16.2955 -1.6010 0.9352
6.0553 -23.7244 -2.3507 0.9063
9.3188 -22.4976 -2.3378 0.9068
10.1011 -22.1183 -2.3344 0.9069
10.8678 -21.7111 -2.3309 0.9070
11.6180 -21.2767 -2.3274 0.9072
13.0830 -20.3576 -2.3232 0.9073
12.6802 -18.2630 -2.1345 0.9145
13.1507 -16.3191 -2.0121 0.9192
14.1303 -16.3072 -2.0715 0.9169
16.4248 -17.6415 -2.3141 0.9077
18.7158 -15.0821 -2.3076 0.9079
20.0089 -14.9785 -2.3996 0.9044
20.9881 -14.5723 -2.4530 0.9024
22.3960 -12.2291 -2.4498 0.9025
22.8065 -11.4161 -2.4485 0.9026
23.1881 -10.5897 -2.4473 0.9026
23.5405 -9.7508 -2.4462 0.9027
24.4186 -7.1700 -2.4433 0.9028
25.0219 -4.5145 -2.4410 0.9029
-21.5082 -0.7682 -2.5565 0.9170
-21.4681 -1.5354 -2.5566 0.9170
-20.6448 -6.0619 -2.5558 0.9170
-19.8682 -8.2297 -2.5545 0.9170
-19.5574 -8.9316 -2.5539 0.9170
-18.0662 -11.6104 -2.5510 0.9171
-16.7026 -13.4598 -2.5481 0.9172
-16.2047 -14.0414 -2.5470 0.9173
-15.6862 -14.6044 -2.5459 0.9173
-15.1364 -15.1364 -2.5427 0.9174
-14.4011 -15.4678 -2.5104 0.9184
-13.4022 -15.4669 -2.4310 0.9209
-10.2269 -17.2366 -2.3807 0.9224
-8.7528 -16.0295 -2.1694 0.9291
-8.0020 -15.9860 -2.1235 0.9305
-7.2990 -15.9827 -2.0871 0.9317
-6.8722 -16.5911 -2.1332 0.9302
-6.1925 -16.6029 -2.1049 0.9311
-4.8817 -16.6256 -2.0583 0.9326
-4.2345 -19.4659 -2.3664 0.9229
-3.5345 -19.5904 -2.3646 0.9229
0.7073 -19.8051 -2.3541 0.9233
1.4127 -19.7523 -2.3523 0.9233
2.1152 -19.6744 -2.3505 0.9234
2.8140 -19.5715 -2.3487 0.9234
3.5081 -19.4439 -2.3470 0.9235
3.5450 -16.2961 -1.9810 0.9350
4.8789 -19.1153 -2.3434 0.9236
5.5539 -18.9149 -2.3417 0.9237
6.2209 -18.6907 -2.3399 0.9237
6.8790 -18.4433 -2.3382 0.9238
7.5274 -18.1727 -2.3365 0.9238
8.1653 -17.8796 -2.3348 0.9239
10.5972 -16.4896 -2.3284 0.9241
13.0328 -15.0407 -2.3640 0.9230
13.9793 -15.0148 -2.4369 0.9207
14.6883 -14.6883 -2.4675 0.9197
15.2086 -14.1597 -2.4683 0.9197
15.6955 -13.6002 -2.4670 0.9197
16.1622 -13.0243 -2.4656 0.9198
16.6081 -12.4327 -2.4643 0.9198
17.0327 -11.8260 -2.4631 0.9199
17.4355 -11.2052 -2.4619 0.9199
18.1741 -9.9238 -2.4597 0.9200
18.8205 -8.5950 -2.4577 0.9200
20.0150 -5.1085 -2.4537 0.9202
20.1795 -4.3898 -2.4531 0.9202
20.3187 -3.6659 -2.4525 0.9202
20.5208 -2.2062 -2.4516 0.9202
20.6203 -0.7365 -2.4510 0.9202
-17.8781 -1.9221 -2.5477 0.9299
-17.7980 -2.5590 -2.5477 0.9299
-17.6948 -3.1925 -2.5476 0.9299
-17.5686 -3.8218 -2.5475 0.9299
-17.4196 -4.4461 -2.5473 0.9299
-17.0543 -5.6762 -2.5467 0.9300
-16.8384 -6.2804 -2.5464 0.9300
-16.6007 -6.8763 -2.5459 0.9300
-16.3416 -7.4630 -2.5455 0.9300
-15.7606 -8.6059 -2.5443 0.9300
-15.4395 -9.1607 -2.5437 0.9300
-15.0985 -9.7032 -2.5430 0.9301
-14.3590 -10.7490 -2.5414 0.9301
-13.9616 -11.2509 -2.5406 0.9301
-13.5463 -11.7379 -2.5397 0.9301
-13.1138 -12.2094 -2.5387 0.9302
-12.6647 -12.6647 -2.5377 0.9302
-11.2239 -13.9281 -2.5345 0.9303
-7.6970 -15.3767 -2.4364 0.9329
-7.0210 -15.3738 -2.3947 0.9340
-4.7056 -16.0259 -2.3666 0.9347
-3.5461 -16.3012 -2.3637 0.9348
-2.9602 -16.4074 -2.3623 0.9349
-1.7800 -16.5564 -2.3594 0.9349
-0.5936 -16.6203 -2.3564 0.9350
0.0000 -16.6204 -2.3549 0.9351
1.1842 -16.5571 -2.3520 0.9351
1.7733 -16.4938 -2.3505 0.9352
2.9417 -16.3045 -2.3475 0.9353
3.5195 -16.1789 -2.3460 0.9353
4.6589 -15.8667 -2.3431 0.9354
5.2190 -15.6806 -2.3416 0.9354
6.9208 -15.1544 -2.3605 0.9349
7.5753 -15.1336 -2.3979 0.9339
8.9227 -15.0383 -2.4776 0.9318
10.9773 -13.6220 -2.4788 0.9318
13.9578 -10.4487 -2.4704 0.9320
14.3158 -9.9396 -2.4694 0.9320
14.9766 -8.8860 -2.4674 0.9321
15.2785 -8.3427 -2.4665 0.9321
15.8239 -7.2265 -2.4648 0.9321
16.2893 -6.0756 -2.4633 0.9322
16.4912 -5.4888 -2.4627 0.9322
16.6724 -4.8955 -2.4620 0.9322
16.9716 -3.6920 -2.4609 0.9322
17.0894 -3.0833 -2.4605 0.9322
17.1856 -2.4709 -2.4601 0.9323
17.2603 -1.8557 -2.4597 0.9323
17.3448 -0.6195 -2.4591 0.9323
-15.4246 0.0000 -2.5410 0.9394
-15.4156 -0.5506 -2.5412 0.9394
-15.3866 -1.1005 -2.5413 0.9394
-15.3378 -1.6490 -2.5413 0.9394
-15.2691 -2.1954 -2.5413 0.9394
-15.1806 -2.7389 -2.5412 0.9394
-15.0724 -3.2788 -2.5411 0.9394
-14.9448 -3.8144 -2.5409 0.9394
-14.7979 -4.3451 -2.5407 0.9394
-14.6318 -4.8699 -2.5404 0.9394
-14.2433 -5.8998 -2.5398 0.9394
-13.7814 -6.8985 -2.5389 0.9394
-13.5237 -7.3845 -2.5384 0.9394
-12.9566 -8.3267 -2.5372 0.9395
-12.6479 -8.7816 -2.5366 0.9395
-12.3231 -9.2249 -2.5359 0.9395
-10.0607 -11.6107 -2.5309 0.9396
-9.6362 -11.9578 -2.5299 0.9396
-9.1996 -12.2893 -2.5289 0.9397
-8.7516 -12.6047 -2.5279 0.9397
-8.2926 -12.9036 -2.5269 0.9397
-6.3604 -13.9273 -2.5223 0.9398
-4.8281 -14.5062 -2.5186 0.9399
-4.3051 -14.6619 -2.5174 0.9399
-3.7771 -14.7987 -2.5161 0.9400
-3.2434 -14.9097 -2.5137 0.9400
-2.7060 -14.9983 -2.5107 0.9401
-2.1666 -15.0693 -2.5080 0.9401
-1.6258 -15.1226 -2.5056 0.9402
-1.0841 -15.1584 -2.5036 0.9403
-0.5420 -15.1765 -2.5018 0.9403
0.0000 -15.1770 -2.5003 0.9403
0.5414 -15.1600 -2.4990 0.9404
1.6206 -15.0735 -2.4975 0.9404
2.1573 -15.0041 -2.4972 0.9404
2.6914 -14.9173 -2.4971 0.9404
4.2683 -14.5366 -2.4959 0.9404
5.2889 -14.1800 -2.4932 0.9405
5.7886 -13.9748 -2.4919 0.9405
8.1572 -12.6928 -2.4856 0.9407
9.4538 -11.7315 -2.4821 0.9407
10.2575 -11.0173 -2.4798 0.9408
10.6396 -10.6396 -2.4788 0.9408
11.0080 -10.2488 -2.4777 0.9408
11.3622 -9.8454 -2.4767 0.9409
12.9063 -7.6577 -2.4723 0.9410
13.1672 -7.1898 -2.4715 0.9410
13.4114 -6.7133 -2.4707 0.9410
13.6385 -6.2285 -2.4700 0.9410
13.8484 -5.7362 -2.4693 0.9410
14.2154 -4.7314 -2.4681 0.9411
14.8808 -1.5999 -2.4656 0.9411
14.9268 -1.0676 -2.4653 0.9411
14.9541 -0.5341 -2.4651 0.9411
-13.4853 -0.4816 -2.5363 0.9466
-13.4599 -0.9627 -2.5364 0.9466
-13.3570 -1.9205 -2.5364 0.9466
-13.2796 -2.3959 -2.5364 0.9466
-13.1851 -2.8683 -2.5362 0.9466
-13.0736 -3.3369 -2.5361 0.9466
-12.8001 -4.2603 -2.5357 0.9466
-12.6385 -4.7139 -2.5354 0.9466
-11.8319 -6.4607 -2.5339 0.9466
-11.5916 -6.8776 -2.5334 0.9466
-11.3364 -7.2854 -2.5329 0.9466
-11.0666 -7.6837 -2.5323 0.9466
-10.7828 -8.0719 -2.5317 0.9467
-10.4852 -8.4495 -2.5311 0.9467
-9.5139 -9.5139 -2.5289 0.9467
-8.0525 -10.7569 -2.5256 0.9468
-7.2593 -11.2958 -2.5238 0.9468
-6.8489 -11.5433 -2.5228 0.9468
-6.0033 -11.9930 -2.5209 0.9469
-4.2282 -12.7039 -2.5166 0.9470
-3.7705 -12.8410 -2.5155 0.9470
-3.3083 -12.9616 -2.5144 0.9470
-2.8422 -13.0655 -2.5132 0.9470
-1.4273 -13.2761 -2.5098 0.9471
-0.9521 -13.3123 -2.5086 0.9471
0.0000 -13.3336 -2.5062 0.9472
1.4233 -13.2382 -2.5026 0.9473
1.8940 -13.1727 -2.5014 0.9473
2.8262 -12.9916 -2.4990 0.9473
3.2865 -12.8763 -2.4978 0.9473
3.7422 -12.7448 -2.4967 0.9474
5.0760 -12.2547 -2.4932 0.9474
5.9320 -11.8506 -2.4909 0.9475
6.3483 -11.6261 -2.4898 0.9475
8.2942 -10.2925 -2.4846 0.9476
8.6528 -9.9859 -2.4836 0.9476
9.0003 -9.6670 -2.4826 0.9477
9.6598 -8.9936 -2.4808 0.9477
9.9711 -8.6400 -2.4799 0.9477
10.2696 -8.2758 -2.4790 0.9477
10.8268 -7.5172 -2.4774 0.9478
11.3287 -6.7216 -2.4759 0.9478
11.5581 -6.3112 -2.4752 0.9478
11.7729 -5.8931 -2.4746 0.9478
11.9727 -5.4677 -2.4740 0.9478
12.1574 -5.0357 -2.4734 0.9479
12.4803 -4.1538 -2.4723 0.9479
12.6182 -3.7050 -2.4719 0.9479
12.7401 -3.2517 -2.4714 0.9479
12.8460 -2.7945 -2.4710 0.9479
12.9357 -2.3339 -2.4707 0.9479
13.1067 -0.9374 -2.4698 0.9479
-11.9732 -0.4276 -2.5325 0.9522
-11.9127 -1.2808 -2.5326 0.9522
-11.6078 -2.9627 -2.5323 0.9522
-11.4939 -3.3749 -2.5322 0.9522
-10.7061 -5.3591 -2.5307 0.9522
-10.5064 -5.7369 -2.5304 0.9522
-10.0668 -6.4696 -2.5295 0.9523
-9.8275 -6.8234 -2.5290 0.9523
-9.3117 -7.5038 -2.5279 0.9523
-8.7484 -8.1450 -2.5266 0.9523
-8.4499 -8.4499 -2.5260 0.9523
-8.1407 -8.7437 -2.5253 0.9523
-7.1530 -9.5553 -2.5230 0.9524
-6.4490 -10.0348 -2.5214 0.9524
-6.0846 -10.2551 -2.5206 0.9524
-4.1596 -11.1523 -2.5160 0.9525
-3.3508 -11.4117 -2.5140 0.9525
-2.9402 -11.5195 -2.5130 0.9526
-1.6899 -11.7534 -2.5100 0.9526
-1.2688 -11.8013 -2.5089 0.9526
-0.8464 -11.8342 -2.5079 0.9527
-0.4233 -11.8519 -2.5068 0.9527
0.0000 -11.8544 -2.5058 0.9527
0.4229 -11.8418 -2.5047 0.9527
1.6842 -11.7138 -2.5015 0.9528
2.1003 -11.6413 -2.5005 0.9528
2.5134 -11.5540 -2.4994 0.9528
4.1252 -11.0602 -2.4952 0.9529
4.5155 -10.9014 -2.4942 0.9529
5.2774 -10.5430 -2.4922 0.9529
5.6482 -10.3438 -2.4912 0.9530
6.0114 -10.1317 -2.4902 0.9530
6.7138 -9.6697 -2.4883 0.9530
7.0520 -9.4204 -2.4874 0.9530
7.7006 -8.8870 -2.4856 0.9531
8.0101 -8.6035 -2.4848 0.9531
9.1413 -7.3665 -2.4816 0.9531
9.3956 -7.0334 -2.4809 0.9531
9.6379 -6.6917 -2.4802 0.9532
10.0854 -5.9839 -2.4788 0.9532
10.4815 -5.2466 -2.4776 0.9532
10.6597 -4.8681 -2.4771 0.9532
10.8243 -4.4836 -2.4766 0.9532
11.1124 -3.6985 -2.4756 0.9532
11.2354 -3.2990 -2.4752 0.9533
11.3442 -2.8954 -2.4748 0.9533
11.4387 -2.4883 -2.4745 0.9533
11.5843 -1.6656 -2.4739 0.9533
11.6714 -0.8348 -2.4734 0.9533
-10.7622 0.0000 -2.5294 0.9567
-10.7557 -0.3841 -2.5295 0.9567
-10.7013 -1.1505 -2.5295 0.9567
-10.6533 -1.5317 -2.5295 0.9567
-10.5917 -1.9109 -2.5295 0.9567
-10.2098 -3.3981 -2.5289 0.9567
-9.7851 -4.4687 -2.5282 0.9568
-9.6181 -4.8145 -2.5279 0.9568
-9.4388 -5.1540 -2.5275 0.9568
-9.2475 -5.4868 -2.5271 0.9568
-8.8295 -6.1304 -2.5263 0.9568
-8.6034 -6.4404 -2.5258 0.9568
-8.3664 -6.7420 -2.5253 0.9568
-8.1187 -7.0349 -2.5247 0.9568
-7.8606 -7.3185 -2.5242 0.9568
-7.5926 -7.5926 -2.5236 0.9568
-7.3150 -7.8569 -2.5230 0.9568
-7.0281 -8.1109 -2.5223 0.9569
-6.1158 -8.8084 -2.5202 0.9569
-5.4685 -9.2167 -2.5187 0.9569
-5.1345 -9.4031 -2.5179 0.9569
-4.7941 -9.5773 -2.5171 0.9569
-4.0959 -9.8884 -2.5155 0.9570
-3.7391 -10.0249 -2.5146 0.9570
-3.3777 -10.1484 -2.5138 0.9570
-3.0123 -10.2589 -2.5129 0.9570
-2.6433 -10.3562 -2.5120 0.9570
-2.2711 -10.4402 -2.5111 0.9570
-1.8963 -10.5107 -2.5101 0.9571
-1.5194 -10.5678 -2.5092 0.9571
0.0000 -10.6604 -2.5054 0.9571
0.7599 -10.6251 -2.5035 0.9572
1.5148 -10.5358 -2.5016 0.9572
1.8892 -10.4710 -2.5007 0.9572
2.2608 -10.3929 -2.4997 0.9572
2.9942 -10.1974 -2.4978 0.9573
3.7113 -9.9504 -2.4959 0.9573
4.0626 -9.8080 -2.4950 0.9573
4.4085 -9.6532 -2.4941 0.9573
4.7485 -9.4863 -2.4932 0.9573
5.4093 -9.1169 -2.4914 0.9574
5.7293 -8.9149 -2.4906 0.9574
6.0418 -8.7018 -2.4897 0.9574
6.3464 -8.4778 -2.4889 0.9574
6.6428 -8.2432 -2.4881 0.9574
6.9306 -7.9983 -2.4873 0.9574
7.4789 -7.4790 -2.4858 0.9575
7.7389 -7.2051 -2.4851 0.9575
8.4577 -6.3314 -2.4830 0.9575
8.6761 -6.0239 -2.4824 0.9575
9.0794 -5.3870 -2.4812 0.9575
9.2638 -5.0584 -2.4806 0.9576
9.4364 -4.7235 -2.4801 0.9576
9.5971 -4.3828 -2.4796 0.9576
9.7456 -4.0367 -2.4791 0.9576
9.8817 -3.6857 -2.4787 0.9576
10.0053 -3.3301 -2.4783 0.9576
10.1162 -2.9704 -2.4779 0.9576
10.2143 -2.6071 -2.4776 0.9576
10.3717 -1.8713 -2.4770 0.9576
10.4309 -1.4997 -2.4767 0.9576
10.4768 -1.1264 -2.4765 0.9576
-9.7349 -0.6963 -2.5270 0.9605
-9.6046 -1.7329 -2.5270 0.9605
-9.5364 -2.0745 -2.5269 0.9605
-9.4558 -2.4135 -2.5268 0.9605
-9.1419 -3.4097 -2.5263 0.9605
-8.8736 -4.0524 -2.5258 0.9605
-8.5598 -4.6740 -2.5252 0.9605
-8.3864 -4.9759 -2.5248 0.9605
-8.2022 -5.2713 -2.5245 0.9605
-8.0076 -5.5598 -2.5240 0.9605
-7.8027 -5.8410 -2.5236 0.9605
-7.3634 -6.3804 -2.5227 0.9605
-7.1295 -6.6378 -2.5222 0.9605
-6.3748 -7.3569 -2.5205 0.9606
-6.1067 -7.5780 -2.5199 0.9606
-4.3493 -8.6887 -2.5158 0.9606
-4.0352 -8.8358 -2.5150 0.9607
-3.7161 -8.9715 -2.5143 0.9607
-3.3925 -9.0956 -2.5135 0.9607
-3.0647 -9.2080 -2.5127 0.9607
-2.0609 -9.4737 -2.5103 0.9607
-1.7208 -9.5380 -2.5094 0.9607
-1.3789 -9.5901 -2.5086 0.9608
0.6898 -9.6442 -2.5034 0.9608
2.0524 -9.4347 -2.4999 0.9609
2.3870 -9.3522 -2.4991 0.9609
2.7184 -9.2579 -2.4982 0.9609
4.0028 -8.7650 -2.4949 0.9610
4.9121 -8.2789 -2.4925 0.9610
5.2028 -8.0957 -2.4917 0.9610
5.7636 -7.6992 -2.4902 0.9610
6.0329 -7.4864 -2.4894 0.9611
6.5479 -7.0329 -2.4880 0.9611
7.0291 -6.5444 -2.4867 0.9611
7.2564 -6.2877 -2.4860 0.9611
7.4743 -6.0232 -2.4854 0.9611
7.6827 -5.7512 -2.4848 0.9611
7.8812 -5.4720 -2.4842 0.9611
8.4156 -4.5953 -2.4826 0.9612
8.5726 -4.2911 -2.4822 0.9612
8.7187 -3.9817 -2.4817 0.9612
8.9776 -3.3485 -2.4809 0.9612
9.2802 -2.3686 -2.4798 0.9612
9.3577 -2.0356 -2.4795 0.9612
9.5190 -1.0234 -2.4788 0.9612
9.5488 -0.6829 -2.4787 0.9612
-8.9184 0.0000 -2.5247 0.9636
-8.9130 -0.3183 -2.5248 0.9636
-8.8961 -0.6363 -2.5249 0.9636
-8.7147 -1.8958 -2.5248 0.9636
-8.4609 -2.8161 -2.5244 0.9636
-8.3544 -3.1160 -2.5242 0.9636
-8.1094 -3.7034 -2.5238 0.9636
-7.9712 -3.9901 -2.5235 0.9636
-7.8228 -4.2716 -2.5232 0.9636
-7.6644 -4.5475 -2.5229 0.9636
-7.4961 -4.8175 -2.5226 0.9636
-7.3183 -5.0812 -2.5222 0.9636
-6.7299 -5.8315 -2.5209 0.9637
-6.2943 -6.2943 -2.5200 0.9637
-6.0644 -6.5137 -2.5194 0.9637
-5.8268 -6.7245 -2.5189 0.9637
-4.8061 -7.4784 -2.5166 0.9637
-4.2581 -7.7982 -2.5153 0.9637
-3.9760 -7.9431 -2.5146 0.9637
-3.6890 -8.0778 -2.5139 0.9638
-3.3974 -8.2020 -2.5132 0.9638
-3.1016 -8.3157 -2.5125 0.9638
-2.4990 -8.5109 -2.5111 0.9638
-1.2608 -8.7693 -2.5081 0.9638
-0.9467 -8.8060 -2.5073 0.9639
-0.6316 -8.8314 -2.5065 0.9639
0.0000 -8.8484 -2.5049 0.9639
2.1834 -8.5545 -2.4994 0.9640
2.4866 -8.4685 -2.4986 0.9640
3.6620 -8.0186 -2.4955 0.9640
3.9446 -7.8804 -2.4948 0.9640
4.2222 -7.7323 -2.4940 0.9640
4.4941 -7.5745 -2.4933 0.9640
5.0202 -7.2304 -2.4919 0.9641
5.2736 -7.0447 -2.4912 0.9641
5.5202 -6.8501 -2.4905 0.9641
5.7597 -6.6470 -2.4899 0.9641
6.2160 -6.2160 -2.4886 0.9641
6.6404 -5.7540 -2.4874 0.9641
7.2127 -5.0079 -2.4858 0.9642
7.3853 -4.7462 -2.4853 0.9642
7.5485 -4.4788 -2.4848 0.9642
7.7022 -4.2057 -2.4843 0.9642
7.8460 -3.9274 -2.4839 0.9642
8.2169 -3.0648 -2.4827 0.9642
8.3199 -2.7692 -2.4824 0.9642
8.6255 -1.5562 -2.4812 0.9642
8.7131 -0.9368 -2.4808 0.9642
8.7405 -0.6251 -2.4807 0.9642
-8.1976 -0.2928 -2.5230 0.9663
-8.1561 -0.8769 -2.5231 0.9663
-8.0726 -1.4565 -2.5230 0.9663
-7.9476 -2.0285 -2.5229 0.9663
-7.8698 -2.3108 -2.5228 0.9663
-7.7819 -2.5901 -2.5226 0.9663
-7.5762 -3.1382 -2.5223 0.9663
-7.0496 -4.1827 -2.5213 0.9663
-6.8950 -4.4311 -2.5209 0.9663
-6.5595 -4.9104 -2.5202 0.9663
-5.7900 -5.7900 -2.5186 0.9663
-5.5786 -5.9919 -2.5181 0.9663
-5.3602 -6.1860 -2.5176 0.9663
-4.6653 -6.7193 -2.5160 0.9663
-4.1721 -7.0317 -2.5149 0.9664
-3.9176 -7.1745 -2.5143 0.9664
-2.8538 -7.6513 -2.5117 0.9664
-2.0179 -7.9061 -2.5097 0.9664
-1.7340 -7.9709 -2.5090 0.9664
-1.4480 -8.0255 -2.5083 0.9664
-0.5813 -8.1273 -2.5062 0.9665
-0.2907 -8.1405 -2.5055 0.9665
0.5806 -8.1179 -2.5033 0.9665
1.7280 -7.9433 -2.5003 0.9666
2.0098 -7.8743 -2.4996 0.9666
2.5649 -7.7064 -2.4982 0.9666
2.8376 -7.6078 -2.4975 0.9666
3.1064 -7.4996 -2.4968 0.9666
3.6315 -7.2548 -2.4954 0.9666
3.8871 -7.1186 -2.4947 0.9666
4.1376 -6.9735 -2.4940 0.9666
4.3827 -6.8196 -2.4934 0.9666
4.6221 -6.6571 -2.4927 0.9667
4.8555 -6.4862 -2.4921 0.9667
5.0827 -6.3072 -2.4915 0.9667
5.7237 -5.7237 -2.4897 0.9667
6.2986 -5.0757 -2.4881 0.9667
7.2256 -3.6169 -2.4853 0.9667
7.7477 -2.2749 -2.4836 0.9668
7.8232 -1.9967 -2.4834 0.9668
7.8887 -1.7161 -2.4831 0.9668
7.9442 -1.4333 -2.4829 0.9668
7.9897 -1.1487 -2.4827 0.9668
-7.5422 -0.8109 -2.5215 0.9685
-7.4120 -1.6124 -2.5214 0.9685
-7.3495 -1.8759 -2.5213 0.9685
-7.1963 -2.3952 -2.5211 0.9685
-7.0062 -2.9021 -2.5208 0.9685
-6.8976 -3.1500 -2.5206 0.9685
-6.6541 -3.6334 -2.5201 0.9685
-6.3765 -4.0979 -2.5195 0.9686
-6.2254 -4.3224 -2.5192 0.9686
-5.8995 -4.7542 -2.5185 0.9686
-5.7252 -4.9609 -2.5182 0.9686
-5.5436 -5.1613 -2.5178 0.9686
-5.3550 -5.3550 -2.5173 0.9686
-4.9576 -5.7214 -2.5165 0.9686
-4.5350 -6.0581 -2.5155 0.9686
-4.3151 -6.2149 -2.5150 0.9686
-3.3837 -6.7599 -2.5128 0.9686
-3.1396 -6.8748 -2.5122 0.9686
-2.6399 -7.0778 -2.5110 0.9687
-1.6041 -7.3741 -2.5085 0.9687
-1.0734 -7.4659 -2.5072 0.9687
-0.8061 -7.4975 -2.5066 0.9687
-0.5378 -7.5195 -2.5059 0.9687
-0.2690 -7.5318 -2.5052 0.9687
0.0000 -7.5346 -2.5045 0.9687
0.2689 -7.5278 -2.5039 0.9687
0.8048 -7.4854 -2.5025 0.9688
1.0711 -7.4499 -2.5018 0.9688
1.3360 -7.4049 -2.5012 0.9688
1.5990 -7.3505 -2.5005 0.9688
2.1182 -7.2138 -2.4992 0.9688
2.8749 -6.9406 -2.4972 0.9688
4.2781 -6.1616 -2.4934 0.9689
4.4942 -6.0036 -2.4929 0.9689
4.9089 -5.6651 -2.4917 0.9689
5.1068 -5.4851 -2.4912 0.9689
5.4828 -5.1047 -2.4901 0.9689
5.6603 -4.9047 -2.4896 0.9689
6.1487 -4.2691 -2.4882 0.9689
6.2961 -4.0463 -2.4878 0.9689
6.5666 -3.5856 -2.4870 0.9690
6.6894 -3.3485 -2.4866 0.9690
6.8036 -3.1071 -2.4862 0.9690
6.9093 -2.8619 -2.4859 0.9690
7.0061 -2.6132 -2.4856 0.9690
7.0941 -2.3611 -2.4853 0.9690
7.2430 -1.8487 -2.4848 0.9690
7.3551 -1.3270 -2.4844 0.9690
7.4300 -0.7988 -2.4840 0.9690
7.4534 -0.5331 -2.4839 0.9690
7.4674 -0.2667 -2.4838 0.9690
-7.0470 0.0000 -2.5201 0.9705
-7.0427 -0.2515 -2.5201 0.9705
-7.0293 -0.5028 -2.5202 0.9705
-7.0069 -0.7533 -2.5202 0.9705
-6.9756 -1.0029 -2.5202 0.9705
-6.5091 -2.6961 -2.5195 0.9705
-6.4082 -2.9265 -2.5193 0.9705
-6.2992 -3.1531 -2.5191 0.9705
-6.0570 -3.5938 -2.5186 0.9705
-5.7839 -4.0158 -2.5180 0.9705
-5.6362 -4.2192 -2.5177 0.9705
-5.4813 -4.4171 -2.5174 0.9705
-5.3194 -4.6093 -2.5170 0.9705
-4.6064 -5.3160 -2.5155 0.9706
-4.4129 -5.4761 -2.5150 0.9706
-4.0095 -5.7749 -2.5141 0.9706
-3.8002 -5.9131 -2.5136 0.9706
-3.5860 -6.0438 -2.5131 0.9706
-3.3673 -6.1667 -2.5126 0.9706
-2.6871 -6.4871 -2.5110 0.9706
-1.7349 -6.7973 -2.5087 0.9706
-1.4908 -6.8532 -2.5081 0.9706
-0.2500 -7.0005 -2.5050 0.9707
0.9957 -6.9250 -2.5019 0.9707
1.2419 -6.8833 -2.5013 0.9707
1.7289 -6.7738 -2.5000 0.9707
2.9006 -6.3514 -2.4969 0.9708
3.3447 -6.1254 -2.4958 0.9708
4.5643 -5.2675 -2.4925 0.9708
4.7484 -5.1002 -2.4920 0.9708
5.0982 -4.7466 -2.4910 0.9708
5.4218 -4.3691 -2.4901 0.9709
6.2207 -3.1139 -2.4877 0.9709
6.3270 -2.8895 -2.4874 0.9709
6.4253 -2.6615 -2.4871 0.9709
6.5973 -2.1958 -2.4865 0.9709
6.6708 -1.9587 -2.4863 0.9709
6.9100 -0.7429 -2.4853 0.9709
6.9448 -0.2480 -2.4851 0.9709
-6.5689 -0.2346 -2.5189 0.9722
-6.5564 -0.4689 -2.5190 0.9722
-6.5063 -0.9355 -2.5190 0.9722
-6.4228 -1.3972 -2.5189 0.9722
-6.1576 -2.2967 -2.5185 0.9722
-5.6498 -3.3522 -2.5175 0.9723
-5.3951 -3.7459 -2.5170 0.9723
-5.2574 -3.9356 -2.5167 0.9723
-5.1129 -4.1202 -2.5164 0.9723
-4.8047 -4.4733 -2.5157 0.9723
-4.6413 -4.6413 -2.5154 0.9723
-4.1166 -5.1084 -2.5142 0.9723
-3.9310 -5.2512 -2.5137 0.9723
-3.7404 -5.3872 -2.5133 0.9723
-3.5451 -5.5163 -2.5129 0.9723
-3.3453 -5.6383 -2.5124 0.9723
-2.9334 -5.8603 -2.5114 0.9723
-2.5069 -6.0522 -2.5104 0.9723
-2.0679 -6.2130 -2.5094 0.9723
-1.8444 -6.2815 -2.5088 0.9723
-1.6187 -6.3419 -2.5083 0.9724
-0.9309 -6.4743 -2.5066 0.9724
-0.6990 -6.5019 -2.5060 0.9724
-0.4664 -6.5212 -2.5054 0.9724
0.2332 -6.5291 -2.5037 0.9724
0.4660 -6.5151 -2.5031 0.9724
0.6980 -6.4928 -2.5025 0.9724
1.1589 -6.4235 -2.5013 0.9724
1.3871 -6.3765 -2.5007 0.9724
2.0594 -6.1874 -2.4990 0.9725
2.7071 -5.9278 -2.4973 0.9725
3.1217 -5.7170 -2.4962 0.9725
3.3231 -5.6008 -2.4957 0.9725
3.5201 -5.4774 -2.4951 0.9725
3.7126 -5.3472 -2.4946 0.9725
4.4323 -4.7606 -2.4927 0.9725
4.7589 -4.4307 -2.4917 0.9725
4.9131 -4.2573 -2.4913 0.9725
5.0611 -4.0785 -2.4909 0.9725
5.4655 -3.5125 -2.4897 0.9726
5.5866 -3.3147 -2.4894 0.9726
5.7005 -3.1127 -2.4890 0.9726
5.9066 -2.6974 -2.4884 0.9726
6.0826 -2.2687 -2.4878 0.9726
6.2277 -1.8286 -2.4873 0.9726
6.2885 -1.6050 -2.4871 0.9726
6.3412 -1.3795 -2.4869 0.9726
6.3860 -1.1522 -2.4867 0.9726
6.4511 -0.6936 -2.4864 0.9726
-6.1519 0.0000 -2.5178 0.9738
-6.1364 -0.4389 -2.5179 0.9738
-6.0895 -0.8755 -2.5179 0.9738
-6.0543 -1.0923 -2.5179 0.9738
-6.0113 -1.3077 -2.5178 0.9738
-5.9607 -1.5214 -2.5178 0.9738
-5.9024 -1.7331 -2.5177 0.9738
-5.8365 -1.9426 -2.5176 0.9738
-5.7632 -2.1496 -2.5175 0.9738
-5.6825 -2.3538 -2.5173 0.9738
-5.5945 -2.5549 -2.5171 0.9738
-5.3971 -2.9471 -2.5168 0.9738
-5.2880 -3.1375 -2.5165 0.9738
-5.1722 -3.3240 -2.5163 0.9738
-4.7857 -3.8566 -2.5155 0.9738
-4.1859 -4.4960 -2.5142 0.9738
-4.0222 -4.6419 -2.5138 0.9738
-3.8534 -4.7818 -2.5134 0.9738
-3.6797 -4.9155 -2.5130 0.9738
-3.1316 -5.2780 -2.5118 0.9738
-2.7461 -5.4859 -2.5108 0.9738
-2.5480 -5.5794 -2.5104 0.9738
-2.3468 -5.6657 -2.5099 0.9738
-1.7267 -5.8806 -2.5084 0.9739
-1.3023 -5.9864 -2.5074 0.9739
-1.0875 -6.0278 -2.5068 0.9739
-0.8715 -6.0615 -2.5063 0.9739
-0.6545 -6.0874 -2.5058 0.9739
-0.4367 -6.1056 -2.5052 0.9739
0.0000 -6.1185 -2.5041 0.9739
0.2183 -6.1132 -2.5036 0.9739
0.4363 -6.1002 -2.5030 0.9739
0.8700 -6.0509 -2.5019 0.9739
1.2989 -5.9708 -2.5009 0.9739
1.5108 -5.9193 -2.5003 0.9739
1.7208 -5.8604 -2.4998 0.9739
2.1335 -5.7202 -2.4987 0.9740
2.3358 -5.6392 -2.4982 0.9740
2.5351 -5.5511 -2.4976 0.9740
2.7311 -5.4560 -2.4971 0.9740
2.9235 -5.3539 -2.4966 0.9740
3.1121 -5.2451 -2.4961 0.9740
3.2966 -5.1296 -2.4956 0.9740
3.4769 -5.0077 -2.4951 0.9740
3.6528 -4.8795 -2.4946 0.9740
3.8239 -4.7451 -2.4942 0.9740
3.9901 -4.6048 -2.4937 0.9740
4.1512 -4.4586 -2.4933 0.9740
4.3069 -4.3069 -2.4928 0.9740
4.8729 -3.6478 -2.4912 0.9740
4.9992 -3.4710 -2.4909 0.9740
5.1192 -3.2899 -2.4905 0.9740
5.2326 -3.1047 -2.4902 0.9740
5.3394 -2.9156 -2.4899 0.9740
5.5325 -2.5266 -2.4893 0.9741
5.6185 -2.3273 -2.4890 0.9741
5.6974 -2.1250 -2.4887 0.9741
5.7691 -1.9201 -2.4885 0.9741
5.9399 -1.2921 -2.4879 0.9741
6.0161 -0.8650 -2.4876 0.9741
6.0429 -0.6497 -2.4875 0.9741
6.0619 -0.4336 -2.4873 0.9741
-5.7715 -0.2061 -2.5169 0.9751
-5.7605 -0.4120 -2.5170 0.9751
-5.7165 -0.8219 -2.5170 0.9751
-5.6431 -1.2276 -2.5169 0.9751
-5.5956 -1.4282 -2.5168 0.9751
-5.5409 -1.6269 -2.5167 0.9751
-5.4790 -1.8236 -2.5166 0.9751
-4.9643 -2.9454 -2.5157 0.9751
-4.3602 -3.7782 -2.5144 0.9751
-4.2221 -3.9309 -2.5141 0.9751
-4.0786 -4.0786 -2.5138 0.9751
-3.9299 -4.2210 -2.5134 0.9751
-3.7762 -4.3580 -2.5131 0.9752
-3.4547 -4.6149 -2.5124 0.9752
-2.9402 -4.9554 -2.5112 0.9752
-2.5783 -5.1508 -2.5103 0.9752
-2.3924 -5.2386 -2.5099 0.9752
-2.2035 -5.3197 -2.5094 0.9752
-2.0118 -5.3940 -2.5090 0.9752
-1.6213 -5.5217 -2.5080 0.9752
-1.0212 -5.6601 -2.5066 0.9752
-0.8184 -5.6918 -2.5061 0.9752
-0.4101 -5.7333 -2.5051 0.9752
0.4097 -5.7286 -2.5030 0.9753
0.6138 -5.7092 -2.5025 0.9753
0.8170 -5.6825 -2.5020 0.9753
1.2198 -5.6074 -2.5009 0.9753
1.4189 -5.5591 -2.5004 0.9753
1.8111 -5.4415 -2.4994 0.9753
2.0038 -5.3723 -2.4989 0.9753
2.1938 -5.2963 -2.4984 0.9753
3.0964 -4.8180 -2.4960 0.9753
3.2658 -4.7036 -2.4956 0.9753
3.5917 -4.4571 -2.4947 0.9753
3.7479 -4.3253 -2.4942 0.9753
4.0455 -4.0455 -2.4934 0.9753
4.3225 -3.7455 -2.4926 0.9754
4.5773 -3.4265 -2.4919 0.9754
4.9154 -2.9165 -2.4909 0.9754
5.0158 -2.7388 -2.4906 0.9754
5.1098 -2.5578 -2.4903 0.9754
5.4801 -1.6091 -2.4891 0.9754
5.5336 -1.4124 -2.4889 0.9754
5.5801 -1.2139 -2.4888 0.9754
5.6195 -1.0139 -2.4886 0.9754
5.6769 -0.6103 -2.4884 0.9754
-5.4355 0.0000 -2.5160 0.9763
-5.4322 -0.1940 -2.5161 0.9763
-5.4218 -0.3878 -2.5161 0.9763
-5.3804 -0.7736 -2.5161 0.9763
-5.3493 -0.9651 -2.5161 0.9763
-5.3113 -1.1554 -2.5160 0.9763
-5.2666 -1.3442 -2.5160 0.9763
-5.2151 -1.5313 -2.5159 0.9763
-5.0922 -1.8993 -2.5157 0.9763
-5.0209 -2.0797 -2.5156 0.9763
-4.8591 -2.4323 -2.5153 0.9763
-4.6725 -2.7723 -2.5149 0.9763
-4.5702 -2.9371 -2.5147 0.9763
-4.3482 -3.2551 -2.5142 0.9763
-3.9741 -3.7000 -2.5134 0.9764
-3.8391 -3.8391 -2.5131 0.9764
-3.6991 -3.9731 -2.5128 0.9764
-3.4054 -4.2258 -2.5121 0.9764
-3.2519 -4.3440 -2.5118 0.9764
-3.0943 -4.4567 -2.5114 0.9764
-2.7677 -4.6647 -2.5107 0.9764
-2.5990 -4.7597 -2.5103 0.9764
-2.2521 -4.9314 -2.5094 0.9764
-2.0743 -5.0078 -2.5090 0.9764
-1.3396 -5.2483 -2.5073 0.9764
-1.1512 -5.2918 -2.5068 0.9764
-0.5786 -5.3815 -2.5054 0.9764
0.3858 -5.3936 -2.5030 0.9764
0.5779 -5.3753 -2.5025 0.9765
0.7692 -5.3502 -2.5020 0.9765
0.9595 -5.3183 -2.5015 0.9765
1.1485 -5.2797 -2.5010 0.9765
1.5217 -5.1823 -2.5001 0.9765
2.0657 -4.9871 -2.4986 0.9765
2.2420 -4.9093 -2.4982 0.9765
2.4153 -4.8252 -2.4977 0.9765
2.7524 -4.6390 -2.4968 0.9765
3.2309 -4.3159 -2.4955 0.9765
3.5294 -4.0731 -2.4947 0.9765
3.6719 -3.9439 -2.4943 0.9765
4.1934 -3.3792 -2.4929 0.9765
4.3107 -3.2270 -2.4925 0.9765
4.4226 -3.0707 -2.4922 0.9765
4.5288 -2.9105 -2.4919 0.9766
4.6292 -2.7467 -2.4916 0.9766
4.8123 -2.4089 -2.4910 0.9766
5.0408 -1.8801 -2.4903 0.9766
5.3230 -0.7653 -2.4893 0.9766
5.3467 -0.5748 -2.4892 0.9766
-5.0756 -0.7298 -2.5153 0.9774
-4.9683 -1.2681 -2.5152 0.9774
-4.9198 -1.4446 -2.5151 0.9774
-4.8649 -1.6192 -2.5151 0.9774
-4.8038 -1.7917 -2.5149 0.9774
-4.7366 -1.9620 -2.5148 0.9774
-4.5840 -2.2946 -2.5145 0.9774
-4.4989 -2.4566 -2.5144 0.9774
-4.1022 -3.0708 -2.5136 0.9774
-3.9896 -3.2150 -2.5133 0.9774
-3.6219 -3.6219 -2.5125 0.9774
-3.2128 -3.9868 -2.5116 0.9774
-2.7671 -4.3056 -2.5106 0.9775
-2.6112 -4.4010 -2.5102 0.9775
-2.4521 -4.4908 -2.5098 0.9775
-2.1249 -4.6528 -2.5091 0.9775
-1.7869 -4.7910 -2.5082 0.9775
-1.6145 -4.8509 -2.5078 0.9775
-1.4401 -4.9046 -2.5074 0.9775
-1.0862 -4.9932 -2.5065 0.9775
-0.9071 -5.0279 -2.5061 0.9775
-0.7270 -5.0562 -2.5057 0.9775
-0.3643 -5.0933 -2.5048 0.9775
-0.1822 -5.1021 -2.5043 0.9775
0.0000 -5.1045 -2.5039 0.9775
0.1822 -5.1003 -2.5034 0.9775
1.0838 -4.9823 -2.5011 0.9775
1.2608 -4.9396 -2.5007 0.9775
1.4360 -4.8905 -2.5002 0.9775
1.6093 -4.8353 -2.4997 0.9776
1.7806 -4.7739 -2.4993 0.9776
1.9495 -4.7065 -2.4989 0.9776
2.1159 -4.6331 -2.4984 0.9776
2.2795 -4.5538 -2.4980 0.9776
2.4402 -4.4688 -2.4976 0.9776
2.5977 -4.3781 -2.4971 0.9776
2.7518 -4.2819 -2.4967 0.9776
3.5958 -3.5958 -2.4944 0.9776
3.7213 -3.4647 -2.4941 0.9776
3.9579 -3.1895 -2.4934 0.9776
4.1743 -2.8983 -2.4928 0.9776
4.3695 -2.5925 -2.4922 0.9776
4.4587 -2.4347 -2.4919 0.9776
4.5423 -2.2737 -2.4917 0.9776
4.6201 -2.1099 -2.4914 0.9776
4.6921 -1.9435 -2.4912 0.9776
4.8180 -1.6036 -2.4908 0.9776
4.8718 -1.4305 -2.4906 0.9776
4.9194 -1.2556 -2.4904 0.9776
4.9608 -1.0792 -2.4903 0.9776
4.9958 -0.9014 -2.4901 0.9776
5.0246 -0.7224 -2.4900 0.9776
5.0629 -0.3621 -2.4898 0.9776
5.0725 -0.1812 -2.4897 0.9776
-4.8470 0.0000 -2.5145 0.9784
-4.8440 -0.1730 -2.5146 0.9784
-4.8348 -0.3458 -2.5146 0.9784
-4.8194 -0.5181 -2.5146 0.9784
-4.7701 -0.8606 -2.5146 0.9784
-4.6964 -1.1987 -2.5145 0.9784
-4.5409 -1.6937 -2.5143 0.9784
-4.4774 -1.8546 -2.5141 0.9784
-4.3332 -2.1690 -2.5139 0.9784
-4.2527 -2.3222 -2.5137 0.9784
-4.0757 -2.6193 -2.5134 0.9784
-3.8778 -2.9029 -2.5129 0.9784
-3.7714 -3.0392 -2.5127 0.9784
-3.5442 -3.2998 -2.5122 0.9784
-3.2991 -3.5435 -2.5117 0.9784
-3.0372 -3.7689 -2.5111 0.9784
-2.9004 -3.8744 -2.5108 0.9784
-2.6159 -4.0704 -2.5101 0.9784
-2.3182 -4.2455 -2.5094 0.9784
-1.8503 -4.4670 -2.5083 0.9784
-1.6894 -4.5295 -2.5079 0.9785
-1.5264 -4.5862 -2.5075 0.9785
-1.1950 -4.6819 -2.5067 0.9785
-1.0269 -4.7208 -2.5063 0.9785
-0.6873 -4.7804 -2.5055 0.9785
-0.5162 -4.8011 -2.5051 0.9785
-0.3444 -4.8156 -2.5046 0.9785
0.3442 -4.8123 -2.5029 0.9785
0.5156 -4.7961 -2.5025 0.9785
1.1921 -4.6707 -2.5007 0.9785
1.3578 -4.6244 -2.5003 0.9785
1.5218 -4.5722 -2.4999 0.9785
1.6837 -4.5142 -2.4995 0.9785
1.8435 -4.4505 -2.4991 0.9785
2.1555 -4.3062 -2.4982 0.9785
2.6023 -4.0492 -2.4970 0.9785
2.7447 -3.9531 -2.4967 0.9785
2.8836 -3.8521 -2.4963 0.9786
3.0188 -3.7461 -2.4959 0.9786
3.1502 -3.6355 -2.4955 0.9786
3.5193 -3.2766 -2.4945 0.9786
3.6335 -3.1485 -2.4942 0.9786
3.7431 -3.0164 -2.4939 0.9786
3.8479 -2.8805 -2.4936 0.9786
4.0427 -2.5981 -2.4930 0.9786
4.2168 -2.3026 -2.4925 0.9786
4.2959 -2.1504 -2.4923 0.9786
4.4376 -1.8381 -2.4918 0.9786
4.5567 -1.5166 -2.4914 0.9786
4.7250 -0.8525 -2.4908 0.9786
4.7522 -0.6833 -2.4907 0.9786
-4.5637 -0.4907 -2.5140 0.9793
-4.5433 -0.6532 -2.5140 0.9793
-4.4473 -1.1351 -2.5139 0.9793
-4.4038 -1.2931 -2.5138 0.9793
-4.3547 -1.4494 -2.5137 0.9793
-4.2399 -1.7562 -2.5135 0.9793
-4.1034 -2.0540 -2.5133 0.9793
-4.0272 -2.1990 -2.5131 0.9793
-3.8595 -2.4804 -2.5128 0.9793
-3.7683 -2.6164 -2.5126 0.9793
-3.6722 -2.7490 -2.5124 0.9793
-3.5714 -2.8780 -2.5122 0.9793
-3.3564 -3.1249 -2.5117 0.9793
-3.2424 -3.2424 -2.5114 0.9793
-2.7467 -3.6692 -2.5103 0.9793
-2.4773 -3.8548 -2.5097 0.9793
-2.3379 -3.9403 -2.5094 0.9793
-2.0503 -4.0959 -2.5087 0.9793
-1.7523 -4.2305 -2.5080 0.9793
-1.4457 -4.3435 -2.5073 0.9793
-1.2895 -4.3917 -2.5069 0.9793
-0.9726 -4.4711 -2.5061 0.9793
-0.1632 -4.5691 -2.5041 0.9794
0.4884 -4.5429 -2.5025 0.9794
0.6501 -4.5218 -2.5021 0.9794
0.8110 -4.4950 -2.5017 0.9794
0.9707 -4.4624 -2.5012 0.9794
1.1292 -4.4242 -2.5008 0.9794
1.4415 -4.3310 -2.5000 0.9794
1.7462 -4.2158 -2.4992 0.9794
2.3270 -3.9219 -2.4977 0.9794
2.4651 -3.8358 -2.4973 0.9794
2.6001 -3.7448 -2.4970 0.9794
2.9842 -3.4440 -2.4959 0.9794
3.4422 -2.9827 -2.4946 0.9794
3.5461 -2.8576 -2.4943 0.9794
3.6454 -2.7289 -2.4940 0.9794
3.7401 -2.5968 -2.4938 0.9794
4.2042 -1.7414 -2.4924 0.9795
4.3171 -1.4369 -2.4920 0.9795
4.4451 -0.9670 -2.4915 0.9795
4.5367 -0.3245 -2.4911 0.9795
-4.3505 -0.1554 -2.5133 0.9801
-4.2841 -0.7729 -2.5134 0.9801
-4.2537 -0.9253 -2.5133 0.9801
-4.1767 -1.2264 -2.5132 0.9801
-4.1301 -1.3746 -2.5131 0.9801
-4.0783 -1.5211 -2.5131 0.9801
-4.0212 -1.6657 -2.5130 0.9801
-3.8918 -1.9481 -2.5127 0.9801
-3.8196 -2.0856 -2.5126 0.9801
-3.7425 -2.2205 -2.5124 0.9801
-3.6606 -2.3525 -2.5122 0.9801
-3.3873 -2.7297 -2.5117 0.9801
-3.2875 -2.8486 -2.5114 0.9801
-3.0753 -3.0753 -2.5110 0.9801
-2.9633 -3.1828 -2.5107 0.9801
-2.8475 -3.2862 -2.5105 0.9801
-2.4791 -3.5706 -2.5096 0.9801
-2.3498 -3.6563 -2.5093 0.9801
-1.9447 -3.8851 -2.5084 0.9801
-1.8046 -3.9515 -2.5080 0.9801
-1.6622 -4.0129 -2.5077 0.9801
-1.5177 -4.0691 -2.5074 0.9801
-1.3713 -4.1201 -2.5070 0.9801
-0.9226 -4.2412 -2.5059 0.9802
-0.6175 -4.2949 -2.5052 0.9802
-0.3095 -4.3267 -2.5044 0.9802
-0.1548 -4.3343 -2.5040 0.9802
0.4633 -4.3096 -2.5025 0.9802
0.6168 -4.2896 -2.5021 0.9802
0.9209 -4.2334 -2.5013 0.9802
1.0713 -4.1972 -2.5009 0.9802
1.2202 -4.1556 -2.5005 0.9802
1.3675 -4.1088 -2.5001 0.9802
1.9372 -3.8700 -2.4987 0.9802
2.4668 -3.5529 -2.4972 0.9802
2.5917 -3.4621 -2.4969 0.9802
2.7133 -3.3670 -2.4966 0.9802
2.8314 -3.2676 -2.4962 0.9802
2.9458 -3.1640 -2.4959 0.9802
3.2660 -2.8300 -2.4950 0.9802
3.3645 -2.7113 -2.4947 0.9802
3.5486 -2.4639 -2.4942 0.9802
3.7906 -2.0698 -2.4935 0.9802
3.9279 -1.7938 -2.4931 0.9803
3.9891 -1.6524 -2.4929 0.9803
4.0963 -1.3634 -2.4925 0.9803
4.1421 -1.2162 -2.4924 0.9803
4.1826 -1.0675 -2.4922 0.9803
4.2178 -0.9175 -2.4921 0.9803
4.2477 -0.7664 -2.4920 0.9803
4.3129 -0.1540 -2.4916 0.9803
