ply
format ascii 1.0
element vertex 1338
property float32 x
property float32 y
property float32 z
property float32 I
end_header
32.9740 12.2987 6.2055 0.8668
28.2404 12.8970 5.4742 0.8815
27.1842 13.6075 5.3603 0.8838
25.5273 13.9390 5.1285 0.8886
23.3264 13.8402 4.7826 0.8957
22.1170 14.2138 4.6357 0.8987
21.2946 14.7851 4.5711 0.9001
17.5290 15.1890 4.0898 0.9101
15.8998 15.8998 3.9648 0.9127
11.3980 16.4163 3.5239 0.9220
10.2130 17.2132 3.5292 0.9219
7.2978 17.6184 3.3626 0.9255
6.4896 17.3992 3.2744 0.9273
1.3410 18.7504 3.3146 0.9265
-0.0000 18.6960 3.2966 0.9269
-1.4073 19.6760 3.4783 0.9230
-2.8999 20.1693 3.5930 0.9206
-3.5951 19.9262 3.5703 0.9210
39.9864 10.2059 6.3221 0.8462
33.2338 12.3956 5.4338 0.8663
31.0032 12.8420 5.1408 0.8730
28.1775 12.8683 4.7455 0.8822
25.4415 13.8921 4.4407 0.8893
23.5627 13.9804 4.1972 0.8951
22.3331 14.3526 4.0669 0.8981
19.0072 15.3170 3.7396 0.9059
17.5281 15.1882 3.5531 0.9104
16.7612 15.6052 3.5083 0.9115
20.1937 21.6896 4.5399 0.8870
11.8018 15.7654 3.0169 0.9234
11.3975 16.4155 3.0615 0.9223
10.8705 16.9149 3.0802 0.9219
11.6794 23.3325 3.9972 0.8998
10.8320 23.7188 3.9946 0.8999
5.8344 17.5296 2.8303 0.9280
2.3390 9.1642 1.4489 0.9625
1.9779 9.0924 1.4255 0.9630
3.6061 25.0809 3.8818 0.9025
2.0257 18.8417 2.9031 0.9262
-0.6878 19.2567 2.9519 0.9250
-2.1927 30.6582 4.7087 0.8830
-5.0289 19.7032 3.1152 0.9210
-8.4566 28.8007 4.5984 0.8856
47.8432 8.6319 6.3308 0.8219
44.6018 9.7025 5.9439 0.8318
41.8241 10.6750 5.6210 0.8402
21.1989 6.2246 2.8771 0.9147
34.7230 11.5569 4.7655 0.8628
30.8986 12.7986 4.3552 0.8738
27.1938 13.6123 3.9601 0.8846
22.3326 14.3523 3.4570 0.8985
25.5755 20.6101 4.2773 0.8759
20.2160 21.7135 3.8633 0.8872
18.7420 21.6294 3.7269 0.8910
13.5101 16.7651 2.8038 0.9168
10.8857 16.9385 2.6220 0.9220
10.3834 17.5004 2.6499 0.9212
12.4937 22.8806 3.3948 0.9002
11.7612 23.4959 3.4216 0.8994
11.0022 24.0914 3.4489 0.8987
5.3008 18.0531 2.4501 0.9269
1.9781 9.0934 1.2119 0.9632
1.6819 9.3222 1.2335 0.9625
3.6277 25.2316 3.3195 0.9023
-0.6884 19.2736 2.5114 0.9252
-5.0287 19.7023 2.6479 0.9213
-16.6538 13.4204 2.7851 0.9173
36.3113 1.2969 3.9017 0.8640
21.2047 6.2263 2.3731 0.9149
33.2246 12.3922 3.8078 0.8671
27.3677 13.6993 3.2864 0.8842
34.4782 18.8265 4.2183 0.8538
22.3321 14.3520 2.8506 0.8987
21.6523 15.0335 2.8305 0.8994
27.5666 20.6361 3.6977 0.8706
25.6300 20.6540 3.5346 0.8760
17.5262 15.1866 2.4902 0.9109
16.7603 15.6044 2.4590 0.9120
16.1146 16.1146 2.4472 0.9124
13.0719 16.2213 2.2371 0.9196
11.3964 16.4140 2.1457 0.9228
10.7596 16.7423 2.1371 0.9231
10.1239 17.0630 2.1305 0.9233
6.4887 17.3969 1.9938 0.9280
5.8339 17.5281 1.9837 0.9284
1.6821 9.3233 1.0173 0.9626
1.9882 18.4933 1.9973 0.9279
0.6483 18.1521 1.9504 0.9295
-1.3700 19.1553 2.0622 0.9257
-3.5357 24.5912 2.6678 0.9049
-3.5341 19.5883 2.1374 0.9230
-4.2968 19.7520 2.1706 0.9219
-5.0285 19.7013 2.1834 0.9215
-18.4049 13.7777 2.4688 0.9117
44.7507 9.7349 3.8769 0.8321
34.3583 11.4356 3.0654 0.8647
33.2927 12.4176 3.0080 0.8671
41.3050 17.1091 3.7847 0.8357
27.4440 13.7375 2.5980 0.8841
34.5187 18.8487 3.3294 0.8540
21.2783 14.7738 2.1929 0.9012
27.8537 20.8510 2.9454 0.8696
18.7754 15.1302 2.0412 0.9077
17.5252 15.1857 1.9630 0.9111
16.7099 15.5575 1.9327 0.9124
13.1679 16.3404 1.7765 0.9192
11.8082 15.7739 1.6680 0.9239
10.8085 16.8184 1.6924 0.9229
10.2770 17.3210 1.7049 0.9223
10.8626 23.7857 2.2136 0.9004
7.2609 17.5293 1.6062 0.9267
1.9786 9.0954 0.7880 0.9633
1.6823 9.3243 0.8021 0.9627
3.5734 24.8535 2.1256 0.9041
1.3390 18.7224 1.5889 0.9274
-0.0000 18.6928 1.5824 0.9277
-2.7892 25.9431 2.2088 0.9006
-3.4409 23.9319 2.0467 0.9075
-4.3177 19.8479 1.7195 0.9217
-5.0282 19.7004 1.7212 0.9216
-8.4541 28.7918 2.5401 0.8865
44.7459 9.7339 2.8396 0.8323
21.2162 6.2297 1.3712 0.9152
34.3611 11.4365 2.2457 0.8649
32.6765 13.5351 2.1932 0.8678
28.4565 12.9957 1.9399 0.8822
27.0704 13.5505 1.8772 0.8857
23.0506 13.6766 1.6620 0.8982
22.3312 14.3514 1.6461 0.8991
27.5114 20.5948 2.1311 0.8713
18.8583 15.1970 1.5019 0.9075
17.5243 15.1849 1.4379 0.9113
16.7594 15.6036 1.4200 0.9123
15.8038 15.8038 1.3859 0.9143
18.7392 21.6263 1.7745 0.8916
12.1700 16.2573 1.2593 0.9218
11.3953 16.4124 1.2390 0.9230
10.8073 16.8164 1.2396 0.9230
10.2779 17.3225 1.2490 0.9224
12.4921 22.8775 1.6164 0.9008
11.6733 23.3203 1.6172 0.9008
5.2640 17.9277 1.1586 0.9279
2.3432 9.1806 0.5875 0.9627
3.5853 24.9364 1.5622 0.9040
1.3389 18.7203 1.1638 0.9275
0.6629 18.5625 1.1518 0.9283
-0.6827 19.1149 1.1861 0.9262
-2.1660 30.2848 1.8828 0.8854
-3.4541 24.0238 1.5050 0.9073
-3.5702 19.7880 1.2469 0.9226
-5.0280 19.6995 1.2607 0.9218
44.7412 9.7329 1.8054 0.8325
21.6681 5.5304 0.8818 0.9144
34.3538 11.4341 1.4277 0.8651
32.8031 13.5875 1.4000 0.8675
34.3860 18.7762 1.5448 0.8548
23.5552 13.9760 1.0800 0.8962
22.3307 14.3511 1.0467 0.8992
18.8556 15.1949 0.9549 0.9076
17.5234 15.1841 0.9143 0.9114
15.8016 15.8016 0.8812 0.9144
13.1646 16.3363 0.8273 0.9194
11.6719 23.3176 1.0282 0.9009
11.0886 24.2807 1.0525 0.8987
7.2592 17.5254 0.7480 0.9269
5.8331 17.5258 0.7283 0.9287
3.5849 24.9337 0.9933 0.9041
1.9968 18.5727 0.7366 0.9280
0.6629 18.5617 0.7324 0.9283
-0.0000 18.6911 0.7370 0.9279
-2.1759 30.4229 1.2027 0.8851
-4.3166 19.8431 0.8007 0.9219
-5.8313 19.8596 0.8162 0.9205
44.7365 9.7318 0.7734 0.8326
21.6526 5.5265 0.3775 0.9145
35.5834 11.8433 0.6335 0.8607
33.0988 12.3453 0.5967 0.8682
27.0604 13.5455 0.5112 0.8860
23.5537 13.9751 0.4626 0.8962
27.9275 20.9063 0.5893 0.8697
18.8530 15.1927 0.4090 0.9077
17.5224 15.1833 0.3916 0.9114
15.7995 15.7995 0.3774 0.9145
20.1304 21.6216 0.4990 0.8885
18.7374 21.6242 0.4833 0.8918
12.1689 16.2558 0.3430 0.9220
12.4910 22.8755 0.4403 0.9010
11.6706 23.3149 0.4404 0.9009
11.0881 24.2797 0.4509 0.8987
7.2584 17.5234 0.3204 0.9269
5.8329 17.5251 0.3120 0.9288
5.2629 17.9238 0.3155 0.9280
2.3453 9.1888 0.1602 0.9628
1.9965 18.5706 0.3155 0.9280
0.6629 18.5609 0.3137 0.9284
-0.6826 19.1106 0.3230 0.9264
-2.1755 30.4165 0.5151 0.8852
-3.4541 24.0237 0.4100 0.9075
-3.5714 19.7951 0.3398 0.9227
-5.0275 19.6976 0.3434 0.9219
-5.8310 19.8586 0.3496 0.9205
21.6372 5.5226 -0.1257 0.9145
21.2334 6.2347 -0.1246 0.9153
35.5757 11.8408 -0.2111 0.8607
33.0917 12.3426 -0.1988 0.8682
32.8048 13.5882 -0.1999 0.8676
22.3297 14.3505 -0.1494 0.8993
18.8503 15.1906 -0.1363 0.9077
20.1278 21.6188 -0.1663 0.8886
18.7365 21.6231 -0.1611 0.8919
12.4904 22.8745 -0.1467 0.9010
11.0877 24.2786 -0.1503 0.8987
7.2576 17.5215 -0.1068 0.9269
2.3463 9.1928 -0.0534 0.9628
1.9795 9.0994 -0.0524 0.9634
3.5841 24.9281 -0.1418 0.9042
1.9963 18.5685 -0.1051 0.9280
0.6629 18.5601 -0.1046 0.9284
-0.0000 18.6895 -0.1052 0.9280
-2.1750 30.4101 -0.1716 0.8852
-2.7898 25.9484 -0.1469 0.9009
-3.4541 24.0237 -0.1366 0.9075
-3.5721 19.7987 -0.1133 0.9227
-4.3155 19.8383 -0.1143 0.9220
-5.8307 19.8577 -0.1165 0.9205
44.7271 9.7298 -1.2889 0.8326
21.6218 5.5186 -0.6283 0.9146
21.2391 6.2364 -0.6233 0.9152
35.5681 11.8382 -1.0555 0.8607
23.5508 13.9733 -0.7711 0.8962
22.3293 14.3502 -0.7474 0.8992
27.9243 20.9039 -0.9822 0.8697
18.8476 15.1884 -0.6816 0.9077
17.5206 15.1817 -0.6528 0.9114
16.7576 15.6019 -0.6447 0.9125
15.7953 15.7953 -0.6290 0.9145
20.1252 21.6160 -0.8316 0.8885
18.7356 21.6221 -0.8056 0.8918
13.1597 16.3303 -0.5905 0.9195
12.1678 16.2542 -0.5717 0.9220
11.3932 16.4094 -0.5625 0.9232
10.8021 16.8084 -0.5626 0.9232
10.2814 17.3284 -0.5674 0.9225
12.4899 22.8735 -0.7338 0.9010
7.2568 17.5195 -0.5340 0.9269
5.8324 17.5236 -0.5200 0.9288
5.2617 17.9198 -0.5259 0.9280
1.9797 9.1004 -0.2622 0.9634
1.6832 9.3295 -0.2669 0.9628
3.5837 24.9253 -0.7091 0.9041
1.9961 18.5665 -0.5258 0.9280
1.3383 18.7119 -0.5282 0.9277
0.6628 18.5593 -0.5229 0.9284
-0.6824 19.1063 -0.5383 0.9263
-2.1745 30.4037 -0.8583 0.8852
-2.7899 25.9497 -0.7349 0.9008
-3.4541 24.0236 -0.6834 0.9074
-3.5727 19.8023 -0.5666 0.9226
-4.3150 19.8359 -0.5716 0.9220
-5.8305 19.8567 -0.5827 0.9205
36.2290 1.2940 -1.8385 0.8649
40.2862 2.8814 -2.0483 0.8506
47.1854 5.0730 -2.4068 0.8269
47.0271 6.7615 -2.4095 0.8267
44.7224 9.7288 -2.3212 0.8325
35.4552 11.8007 -1.8951 0.8610
32.9729 12.2983 -1.7847 0.8685
32.7459 13.5638 -1.7975 0.8677
28.4463 12.9910 -1.5860 0.8823
27.0455 13.5380 -1.5338 0.8859
34.2822 18.7195 -1.9809 0.8552
21.4251 14.8757 -1.3228 0.9008
27.9227 20.9027 -1.7689 0.8696
18.8449 15.1862 -1.2274 0.9076
17.5196 15.1809 -1.1757 0.9113
20.1226 21.6132 -1.4976 0.8885
18.7347 21.6210 -1.4509 0.8917
10.8008 16.8064 -1.0132 0.9231
10.2824 17.3301 -1.0219 0.9225
11.6666 23.3069 -1.3218 0.9009
11.0867 24.2765 -1.3535 0.8986
5.2611 17.9178 -0.9471 0.9279
2.3484 9.2010 -0.4816 0.9627
1.9799 9.1014 -0.4724 0.9634
1.6834 9.3306 -0.4808 0.9627
0.6628 18.5585 -0.9418 0.9283
-0.0000 18.6879 -0.9477 0.9279
-0.6823 19.1042 -0.9695 0.9263
-3.4541 24.0236 -1.2309 0.9074
-3.5734 19.8059 -1.0206 0.9226
-5.8302 19.8558 -1.0495 0.9205
-27.0397 38.9444 -2.4044 0.8271
-28.1690 37.6293 -2.3838 0.8284
-31.9010 34.2640 -2.3742 0.8290
-34.1700 31.8134 -2.3677 0.8295
-36.2514 29.2132 -2.3611 0.8299
-37.2188 27.8616 -2.3578 0.8301
-38.1360 26.4783 -2.3545 0.8303
-40.5767 22.1566 -2.3446 0.8310
-41.9371 19.1520 -2.3381 0.8314
-42.5351 17.6186 -2.3349 0.8316
-46.8454 13.7551 -2.4760 0.8224
-47.2434 12.0582 -2.4727 0.8226
-47.5810 10.3506 -2.4695 0.8228
-47.8579 8.6345 -2.4663 0.8230
-48.2295 5.1852 -2.4600 0.8234
-48.3240 3.4562 -2.4570 0.8236
33.1452 1.1838 -2.4318 0.8754
32.3912 3.4824 -2.3887 0.8775
32.2712 4.6399 -2.3905 0.8774
32.1091 5.7931 -2.3923 0.8773
31.9050 6.9405 -2.3941 0.8773
21.5911 5.5108 -1.6339 0.9145
21.2506 6.2397 -1.6239 0.9150
31.0433 10.3322 -2.3989 0.8770
30.6739 11.4408 -2.4004 0.8770
30.2641 12.5358 -2.4019 0.8769
28.4442 12.9901 -2.2928 0.8821
26.3120 19.6969 -2.4099 0.8765
18.7860 15.1387 -1.7690 0.9078
16.7174 15.5645 -1.6748 0.9125
15.7910 15.7910 -1.6374 0.9143
12.1666 16.2527 -1.4886 0.9218
10.2834 17.3317 -1.4777 0.9224
12.4888 22.8715 -1.9107 0.9008
11.6391 23.2520 -1.9066 0.9010
7.2552 17.5156 -1.3901 0.9268
6.4865 17.3909 -1.3610 0.9283
5.8319 17.5221 -1.3540 0.9286
5.2605 17.9158 -1.3691 0.9278
2.3495 9.2051 -0.6966 0.9626
1.9801 9.1024 -0.6830 0.9633
1.6836 9.3316 -0.6953 0.9627
3.5750 24.8649 -1.8419 0.9042
1.9956 18.5623 -1.3689 0.9279
-0.6823 19.1020 -1.4015 0.9262
-3.4455 23.9640 -1.7752 0.9075
-5.0266 19.6939 -1.4903 0.9217
-5.8299 19.8548 -1.5173 0.9204
-12.1250 32.5084 -2.5440 0.8701
-13.2671 32.0297 -2.5420 0.8702
-17.6315 29.7162 -2.5335 0.8706
-18.6645 29.0425 -2.5313 0.8707
-20.6517 27.5874 -2.5268 0.8709
-21.6034 26.8082 -2.5244 0.8710
-23.4172 25.1518 -2.5197 0.8712
-24.2770 24.2770 -2.5174 0.8714
-27.3795 20.4960 -2.5077 0.8718
-29.3281 17.4012 -2.5004 0.8722
-29.9015 16.3274 -2.4980 0.8723
-30.4358 15.2350 -2.4956 0.8724
-30.9304 14.1254 -2.4932 0.8725
-31.7985 11.8602 -2.4884 0.8727
-32.5025 9.5436 -2.4838 0.8730
-32.7921 8.3697 -2.4815 0.8731
-33.2451 5.9981 -2.4770 0.8733
-33.5292 3.6047 -2.4726 0.8735
26.3390 0.0000 -2.5287 0.8996
20.2844 5.1773 -2.0098 0.9193
20.5737 6.8476 -2.0817 0.9166
22.9917 9.5235 -2.3892 0.9048
21.4366 12.7189 -2.3930 0.9047
20.4881 14.2252 -2.3946 0.9046
19.9733 14.9524 -2.3953 0.9046
17.5177 15.1792 -2.2253 0.9111
16.7151 15.5624 -2.1926 0.9123
15.7414 15.7414 -2.1372 0.9144
17.0195 18.2812 -2.3979 0.9045
16.3584 18.8786 -2.3982 0.9045
12.1660 16.2520 -1.9490 0.9217
11.3917 16.4072 -1.9176 0.9229
10.7646 16.7500 -1.9115 0.9231
11.9748 21.9302 -2.3988 0.9045
6.4862 17.3902 -1.7819 0.9281
5.2436 17.8580 -1.7868 0.9279
2.3505 9.2092 -0.9125 0.9625
3.5499 24.6904 -2.3948 0.9046
1.9894 18.5038 -1.7867 0.9279
0.6628 18.5569 -1.7827 0.9281
-0.0000 18.6863 -1.7940 0.9277
-1.3709 19.1675 -1.8449 0.9257
-3.5440 19.6428 -1.9162 0.9229
-5.8296 19.8539 -1.9865 0.9202
-10.2840 22.5189 -2.3767 0.9053
-11.7918 23.5571 -2.5291 0.8996
-13.4249 22.6264 -2.5258 0.8997
-16.4633 20.4297 -2.5189 0.8999
-17.1699 19.8150 -2.5172 0.9000
-17.8534 19.1759 -2.5154 0.9001
-19.7578 17.1202 -2.5099 0.9003
-20.3414 16.3921 -2.5080 0.9003
-21.4272 14.8771 -2.5043 0.9005
-21.9283 14.0924 -2.5025 0.9006
-22.4007 13.2909 -2.5006 0.9006
-23.6407 10.7963 -2.4951 0.9008
-24.6056 8.1895 -2.4897 0.9010
-24.8644 7.3009 -2.4879 0.9011
-25.0914 6.4042 -2.4861 0.9012
-25.2863 5.5007 -2.4844 0.9012
-25.7422 1.8411 -2.4777 0.9015
-25.7749 0.9205 -2.4761 0.9016
21.2431 -0.0000 -2.5234 0.9180
21.1529 2.2742 -2.5272 0.9179
20.2057 3.6455 -2.4389 0.9206
19.5506 4.2530 -2.3767 0.9226
19.3947 4.9502 -2.3777 0.9225
19.0076 6.3264 -2.3796 0.9225
18.5217 7.6720 -2.3814 0.9224
17.9394 8.9798 -2.3830 0.9224
17.6130 9.6174 -2.3838 0.9223
17.2635 10.2430 -2.3845 0.9223
14.2155 14.2155 -2.3880 0.9222
13.7009 14.7158 -2.3884 0.9222
12.6187 15.6588 -2.3888 0.9222
12.0526 16.1004 -2.3890 0.9222
11.3911 16.4064 -2.3725 0.9227
9.6391 17.6527 -2.3891 0.9222
9.0025 17.9848 -2.3890 0.9222
7.9056 17.3108 -2.2606 0.9262
2.3516 9.2134 -1.1295 0.9624
1.6840 9.3337 -1.1266 0.9625
1.9891 18.5017 -2.2104 0.9278
0.6627 18.5561 -2.2056 0.9279
-0.0000 18.6855 -2.2196 0.9275
-2.8513 19.8309 -2.3799 0.9225
-3.5446 19.6463 -2.3714 0.9227
-4.2553 19.5612 -2.3779 0.9225
-4.9486 19.3886 -2.3769 0.9226
-5.6350 19.1912 -2.3759 0.9226
-6.3135 18.9691 -2.3748 0.9226
-6.9833 18.7229 -2.3737 0.9227
-7.6434 18.4529 -2.3725 0.9227
-12.6981 16.9627 -2.5170 0.9182
-14.4139 15.4816 -2.5127 0.9183
-14.9486 14.9486 -2.5112 0.9184
-15.9581 13.8278 -2.5082 0.9185
-16.8838 12.6390 -2.5053 0.9186
-17.3138 12.0212 -2.5038 0.9186
-17.7212 11.3887 -2.5023 0.9186
-18.1056 10.7425 -2.5008 0.9187
-18.4664 10.0834 -2.4993 0.9187
-19.1159 8.7299 -2.4963 0.9188
-19.6668 7.3353 -2.4933 0.9189
-19.9045 6.6248 -2.4919 0.9190
-20.1166 5.9068 -2.4904 0.9190
-20.3030 5.1820 -2.4890 0.9191
-20.4634 4.4515 -2.4876 0.9191
-20.5977 3.7162 -2.4862 0.9191
-20.7058 2.9770 -2.4849 0.9192
17.7535 1.2698 -2.5219 0.9306
17.7041 1.9034 -2.5229 0.9306
17.6319 2.5351 -2.5239 0.9306
17.4093 3.7872 -2.5244 0.9306
16.0752 4.7201 -2.3738 0.9346
15.9018 5.2926 -2.3746 0.9345
15.0046 7.5108 -2.3775 0.9345
14.7308 8.0437 -2.3781 0.9344
14.4379 8.5664 -2.3787 0.9344
11.8858 11.8858 -2.3817 0.9343
9.5902 13.8125 -2.3826 0.9343
9.0912 14.1463 -2.3826 0.9343
8.5806 14.4618 -2.3826 0.9343
8.0587 14.7599 -2.3826 0.9343
6.9848 15.2946 -2.3824 0.9343
6.4340 15.5331 -2.3822 0.9343
2.3526 9.2175 -1.3479 0.9623
1.9808 9.1054 -1.3203 0.9631
1.1977 16.7462 -2.3788 0.9344
0.5991 16.7743 -2.3782 0.9344
-0.0000 16.7807 -2.3776 0.9345
-1.7922 16.6701 -2.3756 0.9345
-2.3853 16.5903 -2.3748 0.9345
-4.1408 16.2235 -2.3724 0.9346
-4.7155 16.0594 -2.3715 0.9346
-2.9145 8.7567 -1.3076 0.9634
-5.8446 15.6700 -2.3697 0.9347
-6.3976 15.4451 -2.3687 0.9347
-6.9419 15.2007 -2.3677 0.9347
-8.5159 14.3528 -2.3647 0.9348
-9.0187 14.0334 -2.3636 0.9348
-9.7090 12.0482 -2.1924 0.9394
-10.2196 11.7940 -2.2112 0.9389
-12.5242 12.5242 -2.5096 0.9309
-12.9569 12.0633 -2.5084 0.9310
-14.1510 10.5933 -2.5046 0.9311
-14.5128 10.0764 -2.5034 0.9311
-14.8558 9.5472 -2.5021 0.9311
-15.1794 9.0064 -2.5008 0.9312
-15.4835 8.4546 -2.4996 0.9312
-15.7675 7.8926 -2.4983 0.9312
-16.0311 7.3212 -2.4971 0.9313
-16.4963 6.1528 -2.4946 0.9313
-16.6972 5.5573 -2.4934 0.9314
-16.8767 4.9555 -2.4922 0.9314
-17.1708 3.7353 -2.4898 0.9315
-17.4475 1.8758 -2.4864 0.9316
15.2798 0.0000 -2.5172 0.9399
15.2757 0.5456 -2.5181 0.9399
15.2086 1.6351 -2.5199 0.9399
15.0633 2.7177 -2.5216 0.9398
14.9615 3.2547 -2.5224 0.9398
14.6905 4.3135 -2.5223 0.9398
14.2902 4.7562 -2.4811 0.9408
13.4888 5.0311 -2.3717 0.9433
13.3042 5.5108 -2.3723 0.9433
13.1023 5.9836 -2.3729 0.9433
12.8834 6.4490 -2.3735 0.9433
12.3959 7.3549 -2.3745 0.9432
12.1279 7.7941 -2.3750 0.9432
11.5451 8.6425 -2.3758 0.9432
10.5595 9.8312 -2.3768 0.9432
10.2030 10.2030 -2.3771 0.9432
8.6496 11.5545 -2.3777 0.9432
7.8036 12.1427 -2.3779 0.9432
6.9174 12.6684 -2.3778 0.9432
6.4607 12.9068 -2.3778 0.9432
5.9956 13.1286 -2.3777 0.9432
1.9810 9.1064 -1.5353 0.9629
1.5411 14.3346 -2.3751 0.9432
-0.0000 14.4083 -2.3736 0.9433
-0.5142 14.3957 -2.3730 0.9433
-1.0274 14.3646 -2.3725 0.9433
-2.5549 14.1610 -2.3705 0.9433
-3.5565 13.9342 -2.3691 0.9434
-2.9137 8.7544 -1.5200 0.9633
-5.4960 13.2686 -2.3660 0.9434
-6.8754 12.5913 -2.3634 0.9435
-7.3176 12.3332 -2.3625 0.9435
-8.5839 11.4668 -2.3597 0.9436
-10.3739 11.1424 -2.5080 0.9401
-10.7669 10.7669 -2.5084 0.9401
-11.1396 10.3713 -2.5074 0.9402
-11.8410 9.5421 -2.5052 0.9402
-12.4808 8.6656 -2.5031 0.9403
-13.0559 7.7464 -2.5009 0.9403
-13.5636 6.7894 -2.4988 0.9404
-13.7913 6.2983 -2.4977 0.9404
-14.0014 5.7996 -2.4966 0.9404
-14.1934 5.2939 -2.4956 0.9404
-14.3673 4.7819 -2.4945 0.9405
-14.5228 4.2643 -2.4935 0.9405
-14.6596 3.7416 -2.4924 0.9405
-14.7778 3.2147 -2.4914 0.9405
-14.8771 2.6841 -2.4904 0.9406
-14.9575 2.1506 -2.4894 0.9406
-15.0188 1.6147 -2.4884 0.9406
-15.0611 1.0772 -2.4875 0.9406
-15.0843 0.5387 -2.4866 0.9406
13.3816 0.0000 -2.5152 0.9470
13.3773 0.4778 -2.5160 0.9470
13.3559 0.9553 -2.5168 0.9470
13.3174 1.4318 -2.5176 0.9469
13.2618 1.9068 -2.5183 0.9469
13.1891 2.3796 -2.5191 0.9469
13.0994 2.8496 -2.5198 0.9469
12.8696 3.7789 -2.5211 0.9469
12.7297 4.2369 -2.5217 0.9469
12.3534 5.1169 -2.5133 0.9470
11.5770 5.2870 -2.3922 0.9495
11.2773 5.6450 -2.3704 0.9500
11.0708 6.0451 -2.3709 0.9500
10.8500 6.4376 -2.3713 0.9499
10.6151 6.8219 -2.3717 0.9499
10.3665 7.1976 -2.3721 0.9499
10.1045 7.5642 -2.3725 0.9499
9.8294 7.9211 -2.3728 0.9499
8.6056 9.2431 -2.3738 0.9499
7.9253 9.8347 -2.3741 0.9499
7.5696 10.1118 -2.3742 0.9499
6.8292 10.6265 -2.3743 0.9499
6.4456 10.8635 -2.3743 0.9499
6.0537 11.0865 -2.3742 0.9499
5.6540 11.2952 -2.3742 0.9499
4.4135 11.8330 -2.3738 0.9499
2.3548 9.2260 -1.7897 0.9620
1.7961 12.4923 -2.3722 0.9499
0.9001 12.5845 -2.3714 0.9499
0.4502 12.6063 -2.3710 0.9500
-1.3473 12.5315 -2.3690 0.9500
-1.7933 12.4725 -2.3684 0.9500
-2.8684 8.6180 -1.7072 0.9637
-4.3963 11.7870 -2.3646 0.9501
-4.8128 11.6190 -2.3639 0.9501
-5.6258 11.2390 -2.3624 0.9501
-6.0214 11.0274 -2.3616 0.9501
-6.4091 10.8019 -2.3608 0.9502
-6.7882 10.5627 -2.3600 0.9502
-7.8702 9.7662 -2.3575 0.9502
-8.6574 9.9912 -2.4849 0.9476
-9.0933 9.7669 -2.5083 0.9471
-9.4334 9.4334 -2.5075 0.9472
-10.0748 8.7298 -2.5057 0.9472
-10.3761 8.3616 -2.5047 0.9472
-10.6639 7.9829 -2.5038 0.9472
-11.1978 7.1964 -2.5019 0.9473
-11.4431 6.7895 -2.5010 0.9473
-11.6738 6.3744 -2.5000 0.9473
-11.8894 5.9514 -2.4991 0.9473
-12.0897 5.5212 -2.4981 0.9473
-12.2744 5.0842 -2.4972 0.9474
-12.5965 4.1925 -2.4953 0.9474
-13.0461 2.3538 -2.4918 0.9475
-13.1173 1.8860 -2.4909 0.9475
-13.1717 1.4161 -2.4900 0.9475
-13.2303 0.4725 -2.4884 0.9475
11.8875 0.4246 -2.5144 0.9525
11.7836 1.6942 -2.5164 0.9525
11.3091 3.7640 -2.5195 0.9524
11.1700 4.1662 -2.5200 0.9524
11.0164 4.5632 -2.5205 0.9524
9.2080 6.3933 -2.3695 0.9552
8.4749 7.3436 -2.3704 0.9552
7.3459 8.4776 -2.3712 0.9552
6.3983 9.2153 -2.3714 0.9552
5.7247 9.6485 -2.3715 0.9552
5.3766 9.8465 -2.3714 0.9552
3.0866 8.2755 -1.8670 0.9645
2.7687 8.3185 -1.8532 0.9648
2.4550 8.3610 -1.8419 0.9650
1.8370 8.4445 -1.8267 0.9653
0.9212 8.5683 -1.8216 0.9654
-1.5931 11.0806 -2.3663 0.9553
-1.9872 11.0142 -2.3658 0.9553
-2.3785 10.9337 -2.3652 0.9553
-3.9064 10.4734 -2.3629 0.9553
-4.6411 10.1626 -2.3616 0.9554
-6.6832 8.9278 -2.3573 0.9554
-7.4253 9.2142 -2.5014 0.9528
-7.7675 8.9641 -2.5072 0.9527
-8.0839 8.6827 -2.5077 0.9527
-8.3859 8.3859 -2.5069 0.9527
-8.6770 8.0786 -2.5060 0.9527
-9.4814 7.0977 -2.5035 0.9527
-10.3810 5.6685 -2.5002 0.9528
-10.5732 5.2925 -2.4993 0.9528
-10.7517 4.9102 -2.4985 0.9528
-11.0673 4.1279 -2.4968 0.9529
-11.2039 3.7290 -2.4960 0.9529
-11.3261 3.3257 -2.4952 0.9529
-11.6057 2.0939 -2.4928 0.9529
-11.6694 1.6778 -2.4920 0.9529
-11.7182 1.2598 -2.4913 0.9530
-11.7712 0.4204 -2.4898 0.9530
10.6682 0.7630 -2.5137 0.9570
10.6368 1.1436 -2.5143 0.9570
10.4609 2.2756 -2.5160 0.9570
10.3752 2.6481 -2.5166 0.9570
10.1640 3.3829 -2.5176 0.9569
10.0387 3.7443 -2.5181 0.9569
9.9005 4.1009 -2.5186 0.9569
9.4101 5.1383 -2.5198 0.9569
9.2092 5.4641 -2.5167 0.9570
8.4580 5.8725 -2.4200 0.9586
7.8453 6.3222 -2.3680 0.9594
7.3757 6.8670 -2.3684 0.9594
6.3249 7.8487 -2.3690 0.9594
5.7492 8.2804 -2.3692 0.9594
4.5121 9.0141 -2.3691 0.9594
4.1874 9.1692 -2.3690 0.9594
3.8573 9.3124 -2.3689 0.9594
3.0865 8.2752 -2.0757 0.9644
2.1446 8.4025 -2.0381 0.9650
1.5309 8.4855 -2.0265 0.9652
1.2260 8.5267 -2.0246 0.9652
0.7185 10.0454 -2.3669 0.9595
-0.3593 10.0600 -2.3658 0.9595
-0.7180 10.0390 -2.3654 0.9595
-1.0757 10.0052 -2.3650 0.9595
-1.4318 9.9585 -2.3646 0.9595
-1.7860 9.8991 -2.3641 0.9595
-2.1377 9.8270 -2.3636 0.9595
-2.4866 9.7424 -2.3631 0.9595
-2.8321 9.6453 -2.3626 0.9595
-3.5114 9.4143 -2.3615 0.9596
-3.8442 9.2806 -2.3609 0.9596
-4.1720 9.1353 -2.3603 0.9596
-4.4942 8.9783 -2.3597 0.9596
-4.8106 8.8099 -2.3591 0.9596
-6.0066 8.6511 -2.4752 0.9576
-6.3882 8.5336 -2.5053 0.9571
-6.6972 8.3107 -2.5085 0.9571
-6.9875 8.0640 -2.5078 0.9571
-7.2688 7.8072 -2.5070 0.9571
-8.0546 6.9793 -2.5048 0.9572
-8.7466 6.0728 -2.5025 0.9572
-8.9550 5.7550 -2.5018 0.9572
-9.1520 5.4301 -2.5010 0.9572
-9.3371 5.0985 -2.5003 0.9572
-9.5103 4.7605 -2.4995 0.9572
-9.8198 4.0675 -2.4980 0.9573
-10.0789 3.3546 -2.4965 0.9573
-10.1892 2.9918 -2.4958 0.9573
-10.4417 1.8839 -2.4937 0.9573
-10.5437 1.1335 -2.4923 0.9574
-10.5745 0.7563 -2.4916 0.9574
9.6956 0.3463 -2.5120 0.9607
9.6505 1.0376 -2.5131 0.9607
9.6094 1.3816 -2.5136 0.9607
9.3224 2.7373 -2.5156 0.9606
9.2205 3.0689 -2.5161 0.9606
9.1067 3.3966 -2.5165 0.9606
8.8440 4.0389 -2.5174 0.9606
8.5358 4.6609 -2.5181 0.9606
8.3652 4.9633 -2.5184 0.9606
8.1837 5.2594 -2.5188 0.9606
7.9885 5.5465 -2.5180 0.9606
7.7742 5.8197 -2.5144 0.9607
7.4962 6.0408 -2.4927 0.9610
7.0778 6.1329 -2.4248 0.9620
6.4638 6.4638 -2.3668 0.9629
6.2293 6.6908 -2.3670 0.9629
5.7367 7.1188 -2.3672 0.9629
5.2145 7.5103 -2.3673 0.9629
4.3818 8.0247 -2.3673 0.9629
4.0925 8.1758 -2.3673 0.9629
3.7980 8.3164 -2.3672 0.9629
3.4986 8.4464 -2.3671 0.9629
3.0442 8.1617 -2.2554 0.9646
2.7306 8.2042 -2.2388 0.9649
2.4212 8.2460 -2.2252 0.9651
2.1154 8.2880 -2.2147 0.9653
1.8133 8.3357 -2.2087 0.9654
1.5121 8.3807 -2.2049 0.9654
1.2110 8.4231 -2.2033 0.9654
0.6079 8.5002 -2.2065 0.9654
0.3260 9.1282 -2.3650 0.9630
-0.0000 9.1328 -2.3646 0.9630
-0.3259 9.1256 -2.3643 0.9630
-1.6202 8.9803 -2.3627 0.9630
-1.9393 8.9151 -2.3622 0.9630
-2.2559 8.8384 -2.3618 0.9630
-2.5694 8.7505 -2.3613 0.9630
-2.8375 8.5252 -2.3264 0.9636
-3.1858 8.5413 -2.3603 0.9630
-4.9348 8.3171 -2.5040 0.9608
-5.5268 7.9602 -2.5091 0.9607
-5.8060 7.7558 -2.5085 0.9608
-6.0775 7.5417 -2.5078 0.9608
-6.5966 7.0852 -2.5065 0.9608
-6.8434 6.8435 -2.5058 0.9608
-7.5297 6.0678 -2.5038 0.9608
-7.9390 5.5121 -2.5024 0.9609
-8.1284 5.2238 -2.5017 0.9609
-8.3074 4.9290 -2.5011 0.9609
-8.4757 4.6281 -2.5004 0.9609
-8.6332 4.3214 -2.4997 0.9609
-8.7795 4.0095 -2.4990 0.9609
-8.9146 3.6925 -2.4983 0.9609
-9.2508 2.7163 -2.4963 0.9609
-9.3394 2.3837 -2.4957 0.9610
-9.4161 2.0483 -2.4950 0.9610
-9.5738 1.0293 -2.4931 0.9610
-9.6021 0.6867 -2.4925 0.9610
8.8682 0.0000 -2.5105 0.9638
8.8644 0.3166 -2.5111 0.9638
8.8229 0.9486 -2.5121 0.9638
8.7361 1.5762 -2.5131 0.9638
8.6759 1.8873 -2.5135 0.9638
8.6046 2.1962 -2.5140 0.9638
8.4288 2.8054 -2.5148 0.9637
7.9485 3.9787 -2.5163 0.9637
7.6463 4.5368 -2.5170 0.9637
7.4804 4.8074 -2.5173 0.9637
7.3048 5.0718 -2.5175 0.9637
6.9257 5.5811 -2.5180 0.9637
5.9104 6.3482 -2.4555 0.9646
5.5655 6.4230 -2.4059 0.9653
5.2433 6.5066 -2.3656 0.9659
5.0119 6.6951 -2.3676 0.9658
4.7660 6.8644 -2.3657 0.9659
4.2642 7.1870 -2.3658 0.9659
4.0050 7.3346 -2.3657 0.9659
3.1977 7.7200 -2.3656 0.9659
2.9200 7.8289 -2.3655 0.9659
2.6386 7.9277 -2.3653 0.9659
1.7757 8.1626 -2.3648 0.9659
1.4831 8.2201 -2.3646 0.9659
1.1886 8.2670 -2.3644 0.9659
0.5957 8.3289 -2.3639 0.9659
-1.1874 8.2583 -2.3619 0.9659
-1.4811 8.2093 -2.3615 0.9659
-1.7729 8.1498 -2.3611 0.9659
-2.0623 8.0799 -2.3607 0.9659
-3.3543 8.0980 -2.4814 0.9642
-4.2494 7.7822 -2.5101 0.9638
-5.0535 7.2784 -2.5084 0.9638
-5.3089 7.0918 -2.5078 0.9638
-5.5573 6.8962 -2.5073 0.9639
-5.7985 6.6918 -2.5067 0.9639
-6.0322 6.4790 -2.5061 0.9639
-6.2581 6.2581 -2.5054 0.9639
-6.4759 6.0292 -2.5048 0.9639
-6.6853 5.7928 -2.5042 0.9639
-7.2608 5.0412 -2.5023 0.9639
-7.7522 4.2330 -2.5004 0.9639
-7.8964 3.9526 -2.4998 0.9640
-8.1542 3.3776 -2.4986 0.9640
-8.2675 3.0836 -2.4980 0.9640
-8.4623 2.4847 -2.4967 0.9640
-8.5435 2.1806 -2.4961 0.9640
-8.6138 1.8738 -2.4955 0.9640
-8.7587 0.9416 -2.4938 0.9640
-8.7847 0.6283 -2.4932 0.9640
-8.7996 0.3143 -2.4927 0.9641
8.1177 0.8728 -2.5112 0.9664
8.0829 1.1621 -2.5117 0.9664
8.0377 1.4502 -2.5121 0.9664
7.9821 1.7364 -2.5126 0.9664
7.5528 3.1285 -2.5145 0.9664
7.4373 3.3965 -2.5148 0.9664
7.3123 3.6603 -2.5151 0.9664
7.0341 4.1736 -2.5157 0.9664
6.8814 4.4224 -2.5160 0.9663
6.7198 4.6657 -2.5162 0.9663
5.9893 5.5763 -2.5170 0.9663
5.7868 5.7868 -2.5172 0.9663
5.3529 6.1776 -2.5142 0.9664
5.1244 6.3591 -2.5119 0.9664
2.6861 7.2017 -2.3641 0.9683
2.4272 7.2926 -2.3640 0.9683
1.6334 7.5088 -2.3636 0.9684
1.3643 7.5617 -2.3634 0.9684
0.5480 7.6621 -2.3627 0.9684
0.2741 7.6759 -2.3624 0.9684
-0.0000 7.6799 -2.3622 0.9684
-0.5477 7.6583 -2.3616 0.9684
-1.1056 7.6896 -2.3895 0.9680
-2.0011 7.8403 -2.4888 0.9667
-2.2953 7.8170 -2.5059 0.9665
-2.8514 7.6448 -2.5096 0.9664
-3.1240 7.5420 -2.5109 0.9664
-3.3906 7.4243 -2.5104 0.9664
-3.6527 7.2971 -2.5099 0.9664
-3.9100 7.1607 -2.5094 0.9664
-4.1623 7.0151 -2.5089 0.9664
-5.1139 6.3460 -2.5068 0.9665
-5.3360 6.1580 -2.5062 0.9665
-5.5511 5.9624 -2.5057 0.9665
-6.1525 5.3312 -2.5040 0.9665
-6.3374 5.1070 -2.5034 0.9665
-7.2681 3.6382 -2.4999 0.9666
-7.3916 3.3756 -2.4994 0.9666
-7.5057 3.1090 -2.4988 0.9666
-7.6101 2.8384 -2.4982 0.9666
-7.9843 1.4405 -2.4955 0.9666
-8.0290 1.1544 -2.4949 0.9666
-8.0875 0.5784 -2.4939 0.9666
-8.1013 0.2893 -2.4934 0.9666
7.5485 0.0000 -2.5092 0.9687
7.5319 0.5387 -2.5100 0.9687
7.4768 1.0750 -2.5109 0.9687
7.3835 1.6062 -2.5117 0.9687
7.3226 1.8690 -2.5121 0.9686
7.2523 2.1295 -2.5125 0.9686
7.1726 2.3873 -2.5128 0.9686
7.0838 2.6421 -2.5132 0.9686
6.9859 2.8937 -2.5135 0.9686
6.7633 3.3855 -2.5141 0.9686
6.0577 4.5347 -2.5153 0.9686
5.8924 4.7484 -2.5155 0.9686
5.7196 4.9561 -2.5157 0.9686
5.5394 5.1574 -2.5158 0.9686
4.9570 5.7207 -2.5162 0.9686
4.7498 5.8942 -2.5163 0.9686
4.5366 6.0601 -2.5163 0.9686
4.0890 6.3627 -2.5141 0.9686
3.8569 6.5005 -2.5125 0.9686
3.3797 6.7517 -2.5098 0.9687
3.1346 6.8639 -2.5083 0.9687
2.8657 6.9184 -2.4892 0.9689
2.6003 6.9717 -2.4734 0.9691
2.3378 7.0239 -2.4607 0.9693
2.0774 7.0750 -2.4511 0.9694
1.8186 7.1253 -2.4444 0.9695
1.3033 7.2237 -2.4400 0.9695
0.7870 7.3201 -2.4473 0.9694
0.5270 7.3678 -2.4554 0.9693
-0.0000 7.4628 -2.4807 0.9690
-1.0740 7.4696 -2.5085 0.9687
-2.1286 7.2493 -2.5114 0.9687
-2.3856 7.1675 -2.5110 0.9687
-2.6394 7.0766 -2.5106 0.9687
-2.8898 6.9767 -2.5102 0.9687
-3.1365 6.8679 -2.5097 0.9687
-3.6171 6.6242 -2.5088 0.9687
-3.8505 6.4897 -2.5083 0.9687
-4.5195 6.0374 -2.5069 0.9687
-4.7312 5.8710 -2.5064 0.9687
-4.9367 5.6973 -2.5059 0.9687
-5.3284 5.3284 -2.5048 0.9687
-5.5140 5.1337 -2.5043 0.9687
-6.0274 4.5120 -2.5027 0.9688
-6.3312 4.0688 -2.5016 0.9688
-6.4710 3.8394 -2.5011 0.9688
-6.6025 3.6052 -2.5006 0.9688
-7.0424 2.6267 -2.4985 0.9688
-7.1302 2.3731 -2.4979 0.9688
-7.2783 1.8577 -2.4969 0.9688
-7.4307 1.0684 -2.4954 0.9689
-7.4626 0.8023 -2.4949 0.9689
-7.4980 0.2678 -2.4940 0.9689
7.0149 0.0000 -2.5086 0.9706
7.0117 0.2504 -2.5090 0.9706
6.9782 0.7502 -2.5098 0.9706
6.8044 1.7367 -2.5113 0.9706
6.4914 2.6888 -2.5126 0.9706
6.2844 3.1458 -2.5132 0.9706
5.9139 3.8006 -2.5139 0.9706
5.3144 4.6049 -2.5147 0.9706
4.9728 4.9728 -2.5149 0.9706
4.4133 5.4765 -2.5152 0.9706
4.2151 5.6307 -2.5153 0.9706
3.8027 5.9172 -2.5153 0.9706
3.3709 6.1733 -2.5153 0.9706
2.6914 6.4976 -2.5150 0.9706
1.4932 6.8642 -2.5121 0.9706
1.2472 6.9125 -2.5119 0.9706
0.7508 6.9838 -2.5119 0.9706
0.2508 7.0210 -2.5124 0.9706
-0.0000 7.0267 -2.5128 0.9706
-0.2508 7.0227 -2.5130 0.9706
-1.2471 6.9122 -2.5118 0.9706
-1.4928 6.8624 -2.5114 0.9706
-1.7366 6.8038 -2.5111 0.9706
-1.9780 6.7365 -2.5107 0.9706
-2.2169 6.6606 -2.5103 0.9706
-2.4528 6.5762 -2.5099 0.9706
-3.1402 6.2732 -2.5087 0.9706
-3.3615 6.1561 -2.5083 0.9706
-3.5785 6.0311 -2.5078 0.9706
-5.2910 4.5847 -2.5036 0.9707
-5.7474 3.9905 -2.5021 0.9707
-6.1373 3.3512 -2.5006 0.9707
-6.2518 3.1294 -2.5001 0.9707
-6.4566 2.6744 -2.4991 0.9707
-6.5466 2.4418 -2.4987 0.9708
-6.6283 2.2061 -2.4982 0.9708
-6.7662 1.7270 -2.4972 0.9708
-6.8222 1.4841 -2.4967 0.9708
6.5449 0.0000 -2.5081 0.9724
6.5417 0.2336 -2.5085 0.9723
6.5302 0.4671 -2.5089 0.9723
6.5104 0.6999 -2.5093 0.9723
6.3480 1.6202 -2.5107 0.9723
5.6393 3.3460 -2.5129 0.9723
5.3871 3.7404 -2.5133 0.9723
5.2506 3.9305 -2.5134 0.9723
4.9574 4.2956 -2.5138 0.9723
4.6388 4.6388 -2.5140 0.9723
4.4705 4.8016 -2.5141 0.9723
4.1168 5.1086 -2.5143 0.9723
3.5473 5.5197 -2.5144 0.9723
2.9369 5.8671 -2.5143 0.9723
2.5107 6.0614 -2.5142 0.9723
2.2927 6.1470 -2.5141 0.9723
2.0718 6.2246 -2.5140 0.9723
1.1646 6.4547 -2.5135 0.9723
0.9334 6.4917 -2.5133 0.9723
0.7010 6.5204 -2.5131 0.9723
0.2340 6.5526 -2.5127 0.9723
-0.0000 6.5562 -2.5125 0.9723
-0.2340 6.5514 -2.5122 0.9723
-0.9326 6.4867 -2.5114 0.9723
-1.3927 6.4020 -2.5107 0.9723
-2.0682 6.2139 -2.5097 0.9723
-2.5055 6.0488 -2.5090 0.9723
-3.1363 5.7436 -2.5078 0.9724
-3.5368 5.5034 -2.5070 0.9724
-3.9191 5.2353 -2.5061 0.9724
-4.1028 5.0912 -2.5057 0.9724
-4.2811 4.9407 -2.5053 0.9724
-4.6210 4.6210 -2.5044 0.9724
-4.9371 4.2780 -2.5035 0.9724
-5.3631 3.7237 -2.5021 0.9724
-5.4916 3.5292 -2.5016 0.9724
-5.6130 3.3304 -2.5011 0.9724
-5.7273 3.1273 -2.5007 0.9724
-5.9336 2.7098 -2.4997 0.9724
-6.0254 2.4958 -2.4993 0.9724
-6.1095 2.2787 -2.4988 0.9725
-6.1858 2.0589 -2.4984 0.9725
-6.3671 1.3851 -2.4970 0.9725
-6.4753 0.6962 -2.4958 0.9725
-6.4950 0.4645 -2.4953 0.9725
-6.5064 0.2324 -2.4949 0.9725
6.1241 0.2187 -2.5080 0.9739
6.1133 0.4372 -2.5084 0.9739
6.0682 0.8725 -2.5091 0.9739
5.9920 1.3035 -2.5097 0.9738
5.9424 1.5167 -2.5101 0.9738
5.8205 1.9372 -2.5106 0.9738
5.4878 2.7470 -2.5117 0.9738
5.3867 2.9414 -2.5119 0.9738
5.2787 3.1320 -2.5121 0.9738
5.0426 3.5012 -2.5125 0.9738
4.9148 3.6792 -2.5127 0.9738
4.7806 3.8525 -2.5128 0.9738
4.6403 4.0209 -2.5130 0.9738
4.3421 4.3421 -2.5132 0.9738
4.1845 4.4945 -2.5133 0.9738
3.8534 4.7818 -2.5134 0.9738
3.3203 5.1665 -2.5135 0.9738
2.9433 5.3902 -2.5135 0.9738
2.7490 5.4918 -2.5135 0.9738
2.3501 5.6736 -2.5134 0.9738
1.7300 5.8917 -2.5131 0.9738
1.5185 5.9494 -2.5130 0.9738
1.3051 5.9995 -2.5129 0.9738
0.8737 6.0765 -2.5125 0.9738
-0.6558 6.1001 -2.5110 0.9738
-0.8730 6.0721 -2.5107 0.9738
-1.0891 6.0364 -2.5104 0.9738
-1.5166 5.9419 -2.5098 0.9738
-1.9361 5.8171 -2.5092 0.9739
-2.7427 5.4792 -2.5078 0.9739
-2.9361 5.3770 -2.5074 0.9739
-3.1257 5.2680 -2.5070 0.9739
-3.3112 5.1523 -2.5066 0.9739
-3.4924 5.0300 -2.5062 0.9739
-3.6691 4.9014 -2.5058 0.9739
-4.0081 4.6256 -2.5050 0.9739
-4.1700 4.4789 -2.5046 0.9739
-4.4774 4.1686 -2.5037 0.9739
-4.6225 4.0054 -2.5033 0.9739
-4.7617 3.8372 -2.5029 0.9739
-4.8948 3.6642 -2.5025 0.9739
-5.4629 2.7345 -2.5003 0.9739
-5.5560 2.5374 -2.4998 0.9739
-5.7925 1.9279 -2.4986 0.9740
-5.8566 1.7197 -2.4981 0.9740
-5.9132 1.5093 -2.4977 0.9740
-5.9624 1.2970 -2.4973 0.9740
-6.0377 0.8681 -2.4965 0.9740
-6.0824 0.4350 -2.4957 0.9740
-6.0931 0.2176 -2.4953 0.9740
5.7400 0.4105 -2.5080 0.9752
5.7224 0.6152 -2.5083 0.9752
5.6975 0.8192 -2.5086 0.9752
5.6654 1.0222 -2.5089 0.9752
5.6260 1.2239 -2.5092 0.9752
5.5793 1.4240 -2.5095 0.9752
5.5256 1.6225 -2.5098 0.9752
5.4647 1.8188 -2.5101 0.9752
5.3969 2.0129 -2.5103 0.9752
5.2406 2.3933 -2.5108 0.9752
5.0573 2.7615 -2.5113 0.9752
4.9559 2.9405 -2.5115 0.9752
4.6142 3.4541 -2.5120 0.9752
4.3565 3.7749 -2.5123 0.9752
4.2192 3.9282 -2.5124 0.9752
4.0764 4.0765 -2.5125 0.9752
3.9285 4.2195 -2.5126 0.9752
3.7755 4.3572 -2.5126 0.9752
3.6177 4.4893 -2.5127 0.9752
2.9421 4.9586 -2.5128 0.9752
2.5808 5.1558 -2.5128 0.9752
2.0147 5.4017 -2.5126 0.9752
1.8206 5.4700 -2.5125 0.9752
1.2253 5.6325 -2.5122 0.9752
0.8202 5.7049 -2.5119 0.9752
0.6161 5.7302 -2.5117 0.9752
-0.0000 5.7618 -2.5111 0.9752
-0.2056 5.7577 -2.5109 0.9752
-0.4110 5.7461 -2.5106 0.9752
-0.8197 5.7010 -2.5101 0.9752
-1.6219 5.5238 -2.5090 0.9752
-1.8179 5.4618 -2.5087 0.9752
-2.0114 5.3927 -2.5084 0.9752
-2.3903 5.2341 -2.5077 0.9752
-2.5753 5.1447 -2.5074 0.9752
-2.9349 4.9465 -2.5067 0.9752
-3.2793 4.7231 -2.5059 0.9752
-3.7637 4.3435 -2.5048 0.9752
-4.3408 3.7613 -2.5032 0.9752
-4.4715 3.6034 -2.5028 0.9753
-5.1303 2.5680 -2.5003 0.9753
-5.2178 2.3829 -2.4999 0.9753
-5.2987 2.1948 -2.4995 0.9753
-5.3728 2.0040 -2.4991 0.9753
-5.5003 1.6150 -2.4983 0.9753
-5.6388 1.0173 -2.4972 0.9753
-5.6707 0.8153 -2.4968 0.9753
-5.7127 0.4086 -2.4961 0.9753
5.4159 0.0000 -2.5069 0.9764
5.4131 0.1933 -2.5073 0.9764
5.4035 0.3865 -2.5076 0.9764
5.3869 0.5792 -2.5079 0.9764
5.3635 0.7712 -2.5082 0.9764
5.3331 0.9622 -2.5085 0.9764
5.2960 1.1521 -2.5088 0.9764
5.2521 1.3405 -2.5090 0.9764
5.2014 1.5273 -2.5093 0.9764
5.1441 1.7121 -2.5096 0.9764
5.0802 1.8948 -2.5098 0.9764
5.0098 2.0751 -2.5100 0.9764
4.9330 2.2528 -2.5103 0.9764
4.8499 2.4277 -2.5105 0.9764
4.7605 2.5994 -2.5107 0.9764
4.5636 2.9328 -2.5110 0.9764
4.2247 3.4045 -2.5115 0.9764
3.8371 3.8371 -2.5118 0.9764
3.6978 3.9717 -2.5119 0.9764
3.5538 4.1013 -2.5120 0.9764
3.4052 4.2256 -2.5120 0.9764
3.2523 4.3445 -2.5121 0.9764
2.9341 4.5656 -2.5121 0.9764
2.7693 4.6674 -2.5121 0.9764
2.6009 4.7632 -2.5121 0.9764
2.2544 4.9365 -2.5120 0.9764
2.0767 5.0137 -2.5120 0.9764
1.7137 5.1488 -2.5118 0.9764
1.5288 5.2065 -2.5117 0.9764
1.3419 5.2575 -2.5116 0.9764
1.1533 5.3018 -2.5115 0.9764
0.7721 5.3700 -2.5112 0.9764
0.5799 5.3938 -2.5111 0.9764
0.3870 5.4107 -2.5109 0.9764
0.1936 5.4206 -2.5107 0.9764
-0.9625 5.3350 -2.5094 0.9764
-1.3404 5.2517 -2.5088 0.9764
-1.5268 5.1999 -2.5086 0.9764
-2.2502 4.9273 -2.5073 0.9764
-2.5953 4.7530 -2.5067 0.9764
-3.0872 4.4465 -2.5057 0.9764
-3.2435 4.3328 -2.5053 0.9764
-3.6865 3.9596 -2.5042 0.9764
-3.8249 3.8249 -2.5038 0.9764
-4.4399 3.0826 -2.5019 0.9765
-4.5464 2.9218 -2.5016 0.9765
-4.8304 2.4179 -2.5004 0.9765
-4.9129 2.2436 -2.5000 0.9765
-4.9891 2.0665 -2.4996 0.9765
-5.0589 1.8869 -2.4993 0.9765
-5.1790 1.5207 -2.4985 0.9765
-5.3096 0.9580 -2.4974 0.9765
-5.3397 0.7677 -2.4971 0.9765
-5.3629 0.5766 -2.4967 0.9765
-5.3889 0.1925 -2.4960 0.9765
5.1101 0.0000 -2.5066 0.9775
5.0983 0.3646 -2.5072 0.9775
5.0826 0.5464 -2.5075 0.9775
5.0605 0.7276 -2.5078 0.9775
4.9553 1.2648 -2.5086 0.9775
4.7931 1.7877 -2.5093 0.9775
4.7266 1.9578 -2.5095 0.9775
4.5757 2.2904 -2.5100 0.9775
4.4913 2.4525 -2.5101 0.9775
4.4012 2.6114 -2.5103 0.9775
4.2043 2.9191 -2.5106 0.9775
3.7468 3.4884 -2.5111 0.9775
3.4886 3.7470 -2.5113 0.9774
3.3527 3.8693 -2.5114 0.9774
3.2126 3.9866 -2.5114 0.9774
3.0683 4.0988 -2.5115 0.9774
2.4538 4.4938 -2.5115 0.9774
2.2918 4.5784 -2.5115 0.9774
2.1269 4.6572 -2.5114 0.9774
1.6167 4.8575 -2.5112 0.9774
1.2660 4.9601 -2.5111 0.9775
1.0881 5.0019 -2.5109 0.9775
0.9088 5.0373 -2.5108 0.9775
0.7284 5.0663 -2.5107 0.9775
0.5471 5.0887 -2.5105 0.9775
0.1826 5.1141 -2.5102 0.9775
-0.1826 5.1133 -2.5098 0.9775
-0.3650 5.1031 -2.5096 0.9775
-0.5469 5.0864 -2.5094 0.9775
-0.7280 5.0632 -2.5092 0.9775
-0.9081 5.0335 -2.5089 0.9775
-1.0871 4.9974 -2.5087 0.9775
-1.2647 4.9549 -2.5084 0.9775
-1.7865 4.7898 -2.5076 0.9775
-1.9561 4.7224 -2.5073 0.9775
-2.4488 4.4846 -2.5064 0.9775
-2.9130 4.1955 -2.5054 0.9775
-3.2040 3.9759 -2.5047 0.9775
-3.3434 3.8585 -2.5044 0.9775
-3.4785 3.7362 -2.5040 0.9775
-3.6092 3.6092 -2.5037 0.9775
-3.7352 3.4776 -2.5033 0.9775
-3.8563 3.3415 -2.5030 0.9775
-4.0837 3.0570 -2.5023 0.9775
-4.1896 2.9089 -2.5019 0.9775
-4.3852 2.6019 -2.5012 0.9775
-4.4746 2.4433 -2.5008 0.9775
-4.6362 2.1173 -2.5001 0.9775
-4.7741 1.7806 -2.4994 0.9776
-4.8339 1.6089 -2.4990 0.9776
-4.8875 1.4351 -2.4987 0.9776
-5.0109 0.9041 -2.4976 0.9776
-5.0393 0.7245 -2.4973 0.9776
-5.0613 0.5441 -2.4970 0.9776
4.8287 0.1725 -2.5066 0.9785
4.8200 0.3447 -2.5069 0.9785
4.8051 0.5166 -2.5072 0.9785
4.7842 0.6879 -2.5074 0.9785
4.7571 0.8583 -2.5077 0.9785
4.7239 1.0276 -2.5080 0.9785
4.6394 1.3623 -2.5084 0.9784
4.1607 2.4687 -2.5098 0.9784
4.0702 2.6158 -2.5100 0.9784
3.9745 2.7595 -2.5101 0.9784
3.8736 2.8998 -2.5103 0.9784
3.6572 3.1690 -2.5105 0.9784
3.5419 3.2977 -2.5106 0.9784
3.1694 3.6577 -2.5108 0.9784
2.4698 4.1626 -2.5110 0.9784
2.3196 4.2481 -2.5109 0.9784
1.8521 4.4715 -2.5108 0.9784
1.3634 4.6434 -2.5106 0.9784
0.8592 4.7620 -2.5103 0.9784
0.6886 4.7894 -2.5102 0.9784
0.5172 4.8106 -2.5100 0.9784
0.1727 4.8346 -2.5097 0.9784
-0.3450 4.8243 -2.5092 0.9784
-0.5170 4.8085 -2.5089 0.9784
-0.6882 4.7866 -2.5087 0.9784
-1.0277 4.7245 -2.5083 0.9784
-1.3619 4.6382 -2.5078 0.9785
-1.5264 4.5861 -2.5075 0.9785
-2.0072 4.3953 -2.5067 0.9785
-2.4647 4.1540 -2.5058 0.9785
-2.6111 4.0629 -2.5055 0.9785
-2.8935 3.8653 -2.5049 0.9785
-3.0293 3.7591 -2.5046 0.9785
-3.1611 3.6481 -2.5042 0.9785
-3.2889 3.5325 -2.5039 0.9785
-3.4124 3.4124 -2.5036 0.9785
-3.6462 3.1594 -2.5029 0.9785
-3.7561 3.0269 -2.5026 0.9785
-3.8612 2.8905 -2.5022 0.9785
-3.9614 2.7504 -2.5019 0.9785
-4.0565 2.6069 -2.5015 0.9785
-4.1464 2.4602 -2.5012 0.9785
-4.2310 2.3103 -2.5008 0.9785
-4.5142 1.6837 -2.4995 0.9785
-4.6216 1.3570 -2.4988 0.9785
-4.7383 0.8549 -2.4978 0.9785
-4.7861 0.5146 -2.4972 0.9785
-4.8008 0.3434 -2.4969 0.9785
4.5756 0.0000 -2.5061 0.9793
4.5649 0.3265 -2.5066 0.9793
4.5508 0.4893 -2.5069 0.9793
4.5052 0.8128 -2.5074 0.9793
4.4366 1.1324 -2.5078 0.9793
4.3453 1.4463 -2.5083 0.9793
4.1668 1.9029 -2.5089 0.9793
3.9403 2.3379 -2.5094 0.9793
3.7639 2.6133 -2.5097 0.9793
3.5682 2.8754 -2.5099 0.9793
3.3542 3.1229 -2.5101 0.9793
3.2407 3.2408 -2.5102 0.9793
2.7468 3.6693 -2.5104 0.9793
2.6141 3.7650 -2.5104 0.9793
2.0517 4.0987 -2.5104 0.9793
1.9040 4.1693 -2.5104 0.9793
1.7540 4.2345 -2.5103 0.9793
1.6017 4.2943 -2.5103 0.9793
1.4474 4.3486 -2.5102 0.9793
1.2912 4.3974 -2.5101 0.9793
0.9741 4.4779 -2.5099 0.9793
0.8136 4.5096 -2.5098 0.9793
0.3268 4.5700 -2.5094 0.9793
0.1635 4.5785 -2.5093 0.9793
-0.0000 4.5811 -2.5091 0.9793
-0.1635 4.5779 -2.5089 0.9793
-0.8131 4.5066 -2.5081 0.9793
-0.9733 4.4743 -2.5079 0.9793
-1.1323 4.4363 -2.5077 0.9793
-1.5996 4.2886 -2.5069 0.9793
-1.7514 4.2283 -2.5067 0.9793
-2.1927 4.0156 -2.5059 0.9794
-2.6084 3.7569 -2.5050 0.9794
-3.2320 3.2321 -2.5034 0.9794
-3.3449 3.1142 -2.5031 0.9794
-3.4535 2.9925 -2.5028 0.9794
-3.5577 2.8669 -2.5025 0.9794
-3.6572 2.7378 -2.5022 0.9794
-3.8422 2.4693 -2.5015 0.9794
-3.9274 2.3302 -2.5012 0.9794
-4.1524 1.8963 -2.5002 0.9794
-4.2169 1.7467 -2.4999 0.9794
-4.3296 1.4410 -2.4993 0.9794
-4.3778 1.2854 -2.4989 0.9794
-4.4884 0.8098 -2.4980 0.9794
-4.5139 0.6490 -2.4977 0.9794
-4.5559 0.1627 -2.4969 0.9794
4.3300 0.3097 -2.5063 0.9801
4.3167 0.4641 -2.5066 0.9801
4.2977 0.6179 -2.5068 0.9801
4.2734 0.7710 -2.5071 0.9801
4.2435 0.9231 -2.5073 0.9801
4.2082 1.0741 -2.5075 0.9801
4.1216 1.3718 -2.5079 0.9801
4.0138 1.6626 -2.5083 0.9801
3.8139 2.0825 -2.5088 0.9801
3.6560 2.3496 -2.5091 0.9801
3.5700 2.4787 -2.5092 0.9801
3.4794 2.6047 -2.5094 0.9801
3.3844 2.7273 -2.5095 0.9801
3.0738 3.0738 -2.5097 0.9801
2.6053 3.4802 -2.5099 0.9801
2.2183 3.7388 -2.5100 0.9801
2.0835 3.8156 -2.5100 0.9801
1.9459 3.8875 -2.5099 0.9801
1.6636 4.0163 -2.5099 0.9801
1.3728 4.1246 -2.5097 0.9801
1.2247 4.1708 -2.5097 0.9801
1.0750 4.2117 -2.5096 0.9801
0.9239 4.2472 -2.5095 0.9801
0.7717 4.2773 -2.5094 0.9801
0.6185 4.3019 -2.5093 0.9801
0.4646 4.3211 -2.5091 0.9801
0.3100 4.3346 -2.5090 0.9801
0.1551 4.3427 -2.5089 0.9801
0.0000 4.3452 -2.5087 0.9801
-0.3099 4.3335 -2.5084 0.9801
-0.6182 4.2997 -2.5080 0.9801
-1.0740 4.2080 -2.5073 0.9801
-1.2234 4.1666 -2.5071 0.9801
-1.3712 4.1199 -2.5069 0.9801
-1.8032 3.9485 -2.5061 0.9802
-1.9428 3.8812 -2.5059 0.9802
-2.2143 3.7319 -2.5054 0.9802
-2.5996 3.4727 -2.5045 0.9802
-2.7216 3.3773 -2.5042 0.9802
-2.8401 3.2776 -2.5039 0.9802
-3.0659 3.0660 -2.5033 0.9802
-3.1730 2.9542 -2.5030 0.9802
-3.3749 2.7197 -2.5024 0.9802
-3.5594 2.4714 -2.5018 0.9802
-3.9393 1.7990 -2.5003 0.9802
-4.0005 1.6571 -2.5000 0.9802
-4.1075 1.3671 -2.4994 0.9802
-4.1532 1.2195 -2.4991 0.9802
-4.2582 0.7683 -2.4982 0.9802
-4.3012 0.4624 -2.4976 0.9802
-4.3145 0.3086 -2.4973 0.9802
