ply
format ascii 1.0
element vertex 1241
property float32 x
property float32 y
property float32 z
property float32 I
end_header
-38.0261 -28.4660 8.3756 0.8245
-32.9122 -28.5186 7.6789 0.8379
-28.5634 -28.5634 7.1227 0.8487
-23.0635 -28.6201 6.4811 0.8613
-21.4373 -28.6369 6.3075 0.8648
-15.5842 -26.2658 5.3852 0.8833
-14.3710 -28.7097 5.6611 0.8777
-13.1779 -28.8556 5.5935 0.8791
-10.7222 -28.7473 5.4100 0.8828
-9.6673 -29.0455 5.3977 0.8831
-7.3462 -28.7821 5.2378 0.8863
-6.5010 -29.8846 5.3927 0.8832
-4.3497 -30.2531 5.3893 0.8833
-3.0984 -28.8197 5.1110 0.8889
-2.3609 -33.0096 5.8353 0.8742
-1.1808 -33.0622 5.8335 0.8743
1.0308 -28.8622 5.0924 0.8893
2.3579 -32.9672 5.8279 0.8744
4.1541 -28.8920 5.1468 0.8882
5.6912 -31.5441 5.6519 0.8779
7.1315 -32.7827 5.9157 0.8726
9.1555 -13.1864 2.8306 0.9369
-21.9902 -7.3190 3.5505 0.9105
-38.0261 -28.4660 7.2768 0.8251
-14.8966 -13.8692 3.1180 0.9209
-28.5634 -28.5635 6.1883 0.8492
-26.6122 -28.5835 5.9829 0.8538
-24.8988 -28.7348 5.8247 0.8574
-20.9716 -26.0241 5.1201 0.8735
-19.5724 -26.1456 5.0033 0.8762
-14.3710 -28.7097 4.9184 0.8782
-13.9159 -33.5961 5.5708 0.8632
-11.1920 -33.6264 5.4292 0.8664
-6.1011 -33.8163 5.2641 0.8702
-4.8639 -33.8294 5.2358 0.8708
-2.4214 -33.8550 5.1996 0.8717
1.0308 -28.8623 4.4244 0.8897
3.6320 -33.7820 5.2050 0.8715
4.1541 -28.8921 4.4716 0.8886
6.5892 -36.5212 5.6852 0.8606
-38.0261 -28.4660 6.1856 0.8256
-30.9835 -26.8474 5.3387 0.8476
-14.8919 -13.8648 2.6496 0.9212
-28.1983 -28.1984 5.1930 0.8514
-26.6120 -28.5833 5.0856 0.8542
-25.5931 -29.5360 5.0893 0.8542
-21.9843 -29.3675 4.7771 0.8625
-18.3226 -33.5553 4.9786 0.8571
-15.3412 -33.5926 4.8090 0.8616
-13.9766 -33.7425 4.7560 0.8630
-10.7222 -28.7473 3.9954 0.8836
-11.1958 -33.6380 4.6166 0.8667
-9.9207 -33.7867 4.5855 0.8676
-7.3462 -28.7821 3.8682 0.8871
-6.1031 -33.8275 4.4762 0.8705
1.0308 -28.8623 3.7609 0.8900
7.2905 -40.4086 5.3470 0.8474
7.1317 -32.7837 4.3690 0.8734
8.4937 -33.2779 4.4724 0.8706
-22.2602 -8.3026 2.5512 0.9088
-33.2831 -28.8400 4.7291 0.8376
-14.8872 -13.8604 2.1842 0.9214
-29.6845 -29.6845 4.5079 0.8446
-25.5945 -29.5377 4.1969 0.8545
-23.0635 -28.6201 3.9470 0.8625
-21.9856 -29.3693 3.9395 0.8628
-18.8031 -27.0816 3.5403 0.8758
-17.9052 -30.1776 3.7680 0.8683
-14.3710 -28.7097 3.4476 0.8788
-15.3467 -33.6046 3.9670 0.8619
-13.9815 -33.7543 3.9232 0.8633
-11.1996 -33.6495 3.8082 0.8670
-9.9240 -33.7980 3.7825 0.8679
-7.3462 -28.7821 3.1898 0.8874
-7.3290 -33.6907 3.7024 0.8705
-3.0984 -28.8197 3.1125 0.8899
-2.4229 -33.8771 3.6471 0.8723
-1.2104 -33.8896 3.6414 0.8725
1.0308 -28.8623 3.1013 0.8903
2.4265 -33.9268 3.6524 0.8721
3.6321 -33.7837 3.6486 0.8722
7.1318 -32.7842 3.6028 0.8737
5.1803 -20.2961 2.2493 0.9192
-30.2968 -13.8360 2.8195 0.8748
-14.8825 -13.8561 1.7213 0.9216
-26.6121 -28.5834 3.3060 0.8549
-25.5960 -29.5394 3.3087 0.8548
-23.0635 -28.6202 3.1115 0.8628
-21.9869 -29.3711 3.1058 0.8631
-18.4236 -28.6677 2.8847 0.8721
-18.3380 -33.5836 3.2392 0.8576
-14.3710 -28.7097 2.7178 0.8791
-10.7222 -28.7473 2.5973 0.8841
-11.2034 -33.6609 3.0032 0.8673
-9.8765 -33.6363 2.9676 0.8687
-7.3229 -33.6626 2.9163 0.8708
-1.2045 -33.7256 2.8568 0.8733
0.0000 -28.8517 2.4424 0.8906
3.6312 -33.7755 2.8757 0.8725
4.1541 -28.8921 2.4710 0.8894
7.2905 -40.4086 3.4759 0.8480
9.1692 -13.2061 1.3610 0.9375
15.1741 -20.2702 2.1435 0.9034
29.2593 -13.3622 2.7229 0.8789
-38.0262 -28.4660 2.9455 0.8267
-34.0133 -27.4096 2.7088 0.8394
-33.2863 -28.8427 2.7312 0.8382
-26.6120 -28.5834 2.4217 0.8551
-25.5974 -29.5410 2.4239 0.8550
-23.0636 -28.6202 2.2793 0.8630
-18.4236 -28.6677 2.1131 0.8723
-13.9313 -33.6332 2.2574 0.8642
-3.0984 -28.8197 1.7974 0.8903
4.1541 -28.8921 1.8100 0.8896
7.2905 -40.4086 2.5462 0.8483
7.1320 -32.7851 2.0806 0.8742
5.0618 -19.8319 1.2692 0.9212
15.7927 -31.5498 2.1878 0.8681
9.1726 -13.2110 0.9973 0.9376
-30.3149 -13.8443 1.3141 0.8751
-38.0262 -28.4661 1.8730 0.8268
-14.8732 -13.8475 0.8013 0.9219
-26.6121 -28.5834 1.5399 0.8553
-21.9896 -29.3747 1.4469 0.8634
-18.2169 -26.2374 1.2595 0.8800
-18.4236 -28.6677 1.3437 0.8725
-18.2983 -33.5108 1.5055 0.8583
-14.3711 -28.7098 1.2660 0.8794
-13.9313 -33.6332 1.4355 0.8644
-7.3462 -28.7821 1.1713 0.8879
-7.3313 -33.7012 1.3600 0.8710
-6.0827 -33.7141 1.3508 0.8718
-2.4140 -33.7519 1.3343 0.8733
-0.0000 -28.8517 1.1377 0.8909
4.1541 -28.8921 1.1510 0.8897
15.0131 -29.9924 1.3225 0.8744
25.0248 -20.1663 1.2673 0.8793
29.1553 -13.3148 1.2638 0.8796
-34.7645 -20.6267 0.6831 0.8507
-14.8686 -13.8432 0.3432 0.9219
-26.6121 -28.5834 0.6597 0.8554
-23.0636 -28.6202 0.6209 0.8633
-21.9909 -29.3765 0.6199 0.8635
-17.9103 -30.1863 0.5929 0.8690
-14.3711 -28.7098 0.5423 0.8795
-15.3355 -33.5801 0.6236 0.8627
-10.7222 -28.7473 0.5183 0.8845
-11.1907 -33.6228 0.5986 0.8678
-9.8765 -33.6363 0.5922 0.8691
-7.3462 -28.7821 0.5018 0.8880
-7.3229 -33.6627 0.5819 0.8713
1.0308 -28.8623 0.4878 0.8909
2.4148 -33.7630 0.5718 0.8734
4.1541 -28.8921 0.4931 0.8898
7.1322 -32.7861 0.5668 0.8744
27.5649 -31.8116 0.7110 0.8450
29.1038 -13.2912 0.5405 0.8799
40.1103 -14.9604 0.7231 0.8426
-34.7657 -20.6275 -0.2271 0.8507
-37.9843 -28.4347 -0.2671 0.8271
-15.3659 -13.3146 -0.1145 0.9219
-29.6921 -29.6922 -0.2364 0.8454
-26.6121 -28.5834 -0.2199 0.8554
-25.6016 -29.5459 -0.2201 0.8552
-21.9923 -29.3782 -0.2066 0.8635
-23.2826 -33.5333 -0.2297 0.8493
-18.2983 -33.5108 -0.2150 0.8584
-10.7222 -28.7474 -0.1727 0.8845
-9.8984 -33.7108 -0.1978 0.8689
-3.0957 -28.7941 -0.1631 0.8906
-1.2074 -33.8080 -0.1905 0.8734
0.0000 -28.8517 -0.1624 0.8910
3.6281 -33.7460 -0.1911 0.8730
7.7535 -30.3777 -0.1765 0.8821
9.1827 -13.2256 -0.0906 0.9376
29.0524 -13.2678 -0.1798 0.8801
-34.7670 -20.6282 -1.1383 0.8506
-38.0263 -28.4661 -1.3375 0.8269
-15.2819 -13.2418 -0.5694 0.9223
-26.6121 -28.5834 -1.0997 0.8553
-23.0636 -28.6202 -1.0350 0.8632
-21.9936 -29.3800 -1.0334 0.8634
-18.4237 -28.6677 -0.9596 0.8725
-18.2983 -33.5108 -1.0751 0.8583
-15.3531 -33.6186 -1.0407 0.8625
-13.9462 -33.6691 -1.0262 0.8643
-10.7222 -28.7474 -0.8639 0.8845
-11.2036 -33.6614 -0.9990 0.8677
-9.8984 -33.7109 -0.9893 0.8688
-7.3462 -28.7822 -0.8364 0.8879
-6.0766 -33.6806 -0.9637 0.8720
-1.2074 -33.8080 -0.9526 0.8734
7.1324 -32.7870 -0.9448 0.8744
7.7529 -30.3755 -0.8827 0.8821
9.1861 -13.2305 -0.4535 0.9376
27.0813 -31.2534 -1.1644 0.8475
39.1490 -13.0301 -1.1618 0.8478
-47.8044 0.0000 -2.4244 0.8258
-47.6863 -3.4106 -2.4245 0.8257
-47.5387 -5.1110 -2.4248 0.8257
-47.3325 -6.8054 -2.4251 0.8257
-47.0674 -8.4919 -2.4255 0.8257
-46.7443 -10.1686 -2.4260 0.8256
-43.9856 -11.2267 -2.3022 0.8338
-41.5728 -17.2200 -2.2820 0.8351
-30.3510 -13.8608 -1.6921 0.8749
-31.8857 -17.4109 -1.8424 0.8646
-34.7120 -20.5956 -2.0469 0.8507
-37.5997 -26.1059 -2.3214 0.8325
-15.2053 -13.1755 -1.0203 0.9226
-25.6045 -29.5492 -1.9829 0.8550
-23.0636 -28.6202 -1.8641 0.8631
-17.9142 -30.1927 -1.7804 0.8688
-18.2983 -33.5109 -1.9364 0.8582
-14.3711 -28.7098 -1.6282 0.8793
-15.3531 -33.6187 -1.8743 0.8624
-13.9462 -33.6692 -1.8482 0.8642
-9.8984 -33.7109 -1.7818 0.8687
-7.3313 -33.7013 -1.7491 0.8710
-4.8898 -34.0092 -1.7425 0.8714
-3.0984 -28.8198 -1.4700 0.8904
0.0000 -28.8517 -1.4632 0.8909
3.5678 -33.1850 -1.6926 0.8749
7.2905 -40.4087 -2.0824 0.8484
6.6516 -30.5768 -1.5869 0.8822
7.6353 -29.9146 -1.5657 0.8837
13.7780 -46.9234 -2.4801 0.8221
15.4482 -46.4145 -2.4808 0.8221
17.0978 -45.8411 -2.4812 0.8220
20.3252 -44.5060 -2.4813 0.8220
23.4387 -42.9248 -2.4803 0.8221
24.9471 -42.0461 -2.4794 0.8222
20.4714 -31.8540 -1.9203 0.8593
9.1895 -13.2354 -0.8171 0.9375
23.4640 -29.1171 -1.8964 0.8609
25.5168 -27.4069 -1.8991 0.8607
26.9752 -26.9751 -1.9347 0.8583
29.3140 -27.2923 -2.0312 0.8518
36.6503 -31.7576 -2.4594 0.8235
32.5010 -26.1909 -2.1168 0.8460
29.3324 -17.4037 -1.7297 0.8723
42.8614 -21.4549 -2.4308 0.8253
28.9978 -13.2428 -1.6167 0.8801
44.1027 -18.2679 -2.4209 0.8260
44.6914 -16.6690 -2.4190 0.8261
39.1192 -13.0201 -2.0909 0.8478
46.2649 -11.8084 -2.4215 0.8259
-33.3769 -0.0000 -2.4473 0.8747
-33.3561 -1.1913 -2.4473 0.8747
-33.0443 -4.7511 -2.4478 0.8747
-32.6299 -7.0982 -2.4485 0.8747
-32.0524 -9.4115 -2.4494 0.8746
-30.0811 -11.2197 -2.3540 0.8792
-29.0059 -12.0146 -2.3020 0.8817
-28.0925 -14.0621 -2.3035 0.8816
-22.1759 -12.1090 -1.8526 0.9036
-27.0373 -16.0420 -2.3051 0.8815
-26.4581 -17.0036 -2.3060 0.8815
-25.8691 -17.9613 -2.3091 0.8813
-21.2097 -17.0918 -1.9972 0.8965
-14.8501 -13.8260 -1.4877 0.9218
-22.4854 -22.4854 -2.3316 0.8803
-21.7091 -23.3173 -2.3360 0.8800
-13.7595 -17.0746 -1.6079 0.9158
-19.1966 -25.6436 -2.3487 0.8794
-14.3711 -28.7098 -2.3541 0.8792
-12.3984 -29.9325 -2.3755 0.8781
-10.7222 -28.7474 -2.2497 0.8842
-9.1659 -31.2161 -2.3855 0.8777
-7.3462 -28.7822 -2.1780 0.8877
-3.0984 -28.8198 -2.1253 0.8902
-2.3367 -32.6712 -2.4016 0.8769
1.0308 -28.8624 -2.1176 0.8906
2.3442 -32.7765 -2.4094 0.8765
3.5149 -32.6929 -2.4109 0.8764
4.1541 -28.8921 -2.1402 0.8895
6.9997 -32.1772 -2.4145 0.8763
7.7519 -30.3715 -2.2983 0.8819
9.2831 -31.6153 -2.4160 0.8762
10.4076 -31.2698 -2.4164 0.8762
11.5183 -30.8819 -2.4167 0.8762
12.6140 -30.4528 -2.4168 0.8762
13.6926 -29.9828 -2.4168 0.8762
14.7527 -29.4722 -2.4166 0.8762
15.7924 -28.9217 -2.4161 0.8762
7.5960 -11.8196 -1.0302 0.9452
19.7198 -26.3426 -2.4127 0.8764
20.6365 -25.6084 -2.4115 0.8764
21.5241 -24.8401 -2.4100 0.8765
22.3821 -24.0401 -2.4084 0.8766
16.9345 -16.9345 -1.7560 0.9084
24.0033 -22.3479 -2.4047 0.8767
24.7641 -21.4582 -2.4026 0.8768
23.1251 -17.3112 -2.1180 0.8906
26.8355 -18.6322 -2.3954 0.8772
19.1504 -12.3072 -1.6691 0.9127
28.6511 -15.6447 -2.3935 0.8773
28.0303 -12.8010 -2.2594 0.8837
29.8932 -12.3822 -2.3724 0.8783
32.9817 -10.9774 -2.5487 0.8699
-25.5551 -1.8277 -2.4597 0.9022
-25.2188 -4.5500 -2.4602 0.9021
-25.0431 -5.4478 -2.4605 0.9021
-24.8361 -6.3390 -2.4608 0.9021
-24.0286 -8.9622 -2.4621 0.9021
-23.6985 -9.8162 -2.4626 0.9021
-21.1588 -11.5536 -2.3145 0.9077
-20.7390 -12.3050 -2.3151 0.9076
-20.2927 -13.0414 -2.3158 0.9076
-13.0059 -12.1090 -1.7060 0.9311
-14.5611 -19.4514 -2.3327 0.9070
-13.8760 -19.9852 -2.3358 0.9069
-12.4467 -20.9779 -2.3418 0.9066
-7.8334 -17.1527 -1.8103 0.9270
-8.5741 -22.9880 -2.3555 0.9061
-6.0861 -23.8452 -2.3626 0.9058
-2.1521 -11.9281 -1.1636 0.9525
-1.7993 -16.7360 -1.6160 0.9346
-0.8826 -24.7134 -2.3741 0.9054
2.6493 -24.6423 -2.3794 0.9052
4.4041 -24.4102 -2.3813 0.9051
5.2743 -24.2453 -2.3821 0.9051
4.2848 -16.7875 -1.6634 0.9327
8.6772 -23.2644 -2.3838 0.9050
9.5024 -22.9409 -2.3839 0.9050
10.3150 -22.5866 -2.3839 0.9050
11.8976 -21.7889 -2.3834 0.9051
7.5960 -11.8196 -1.3489 0.9451
15.5546 -19.3021 -2.3799 0.9052
16.2262 -18.7260 -2.3788 0.9052
16.8756 -18.1257 -2.3776 0.9053
17.1221 -17.1221 -2.3247 0.9073
18.1197 -16.8700 -2.3768 0.9053
18.7177 -16.2190 -2.3778 0.9053
19.2921 -15.5466 -2.3787 0.9052
19.8420 -14.8536 -2.3796 0.9052
21.3374 -12.6600 -2.3819 0.9051
24.0130 -10.9663 -2.5344 0.8994
24.7850 -9.2443 -2.5396 0.8992
26.4638 -0.9452 -2.5423 0.8991
-20.7577 -0.7414 -2.4673 0.9197
-20.6534 -2.2205 -2.4675 0.9197
-19.9401 -5.8550 -2.4686 0.9197
-19.7212 -6.5638 -2.4689 0.9197
-19.4774 -7.2647 -2.4693 0.9197
-18.9163 -8.6388 -2.4702 0.9196
-18.2595 -9.9705 -2.4713 0.9196
-17.8962 -10.6183 -2.4718 0.9196
-16.1674 -11.2252 -2.3380 0.9238
-15.6569 -11.7206 -2.3232 0.9242
-15.2329 -12.2755 -2.3239 0.9242
-14.3186 -12.4071 -2.2505 0.9265
-11.7518 -15.6986 -2.3294 0.9240
-10.6102 -16.5098 -2.3312 0.9240
-10.0182 -16.8848 -2.3321 0.9240
-9.4130 -17.2387 -2.3331 0.9239
-7.9960 -17.5089 -2.2864 0.9254
-6.2294 -18.7164 -2.3432 0.9236
-5.5619 -18.9422 -2.3451 0.9236
-2.8177 -19.5977 -2.3519 0.9233
-1.2794 -11.9004 -1.4217 0.9529
-0.7079 -19.8219 -2.3561 0.9232
0.0000 -11.9374 -1.4180 0.9531
1.4170 -19.8120 -2.3594 0.9231
2.1240 -19.7563 -2.3603 0.9231
2.8288 -19.6747 -2.3611 0.9231
4.2275 -19.4336 -2.3624 0.9230
4.3610 -17.0862 -2.0947 0.9314
5.6053 -19.0898 -2.3633 0.9230
7.6155 -18.3855 -2.3639 0.9230
8.2668 -18.1018 -2.3639 0.9230
8.9071 -17.7942 -2.3637 0.9230
9.5356 -17.4632 -2.3635 0.9230
7.1366 -12.0280 -1.6613 0.9452
7.5960 -11.8196 -1.6689 0.9450
13.0590 -15.0709 -2.3688 0.9228
13.5934 -14.6004 -2.3696 0.9228
14.6103 -13.6027 -2.3712 0.9227
15.5533 -12.5337 -2.3727 0.9227
15.9955 -11.9741 -2.3734 0.9227
17.4406 -11.2084 -2.4626 0.9199
18.2988 -10.8572 -2.5275 0.9179
19.0497 -9.5356 -2.5305 0.9178
19.6893 -8.1556 -2.5315 0.9177
20.8396 -4.5334 -2.5333 0.9177
21.2097 -2.2803 -2.5339 0.9177
21.2785 -1.5219 -2.5340 0.9177
-17.4505 0.0000 -2.4726 0.9319
-17.2749 -2.4838 -2.4728 0.9319
-17.1763 -3.0989 -2.4730 0.9319
-17.0560 -3.7103 -2.4732 0.9319
-16.7512 -4.9186 -2.4737 0.9319
-15.8895 -7.2565 -2.4750 0.9319
-14.7062 -9.4511 -2.4769 0.9318
-14.3626 -9.9722 -2.4775 0.9318
-14.0008 -10.4809 -2.4780 0.9318
-13.6018 -10.9610 -2.4751 0.9319
-12.9366 -11.2097 -2.4254 0.9332
-12.0598 -11.2281 -2.3347 0.9356
-11.6259 -11.6260 -2.3296 0.9357
-11.2068 -12.0369 -2.3303 0.9357
-10.7732 -12.4329 -2.3309 0.9357
-10.3257 -12.8134 -2.3317 0.9357
-9.8649 -13.1779 -2.3324 0.9357
-9.3913 -13.5260 -2.3331 0.9356
-7.8996 -14.4671 -2.3355 0.9356
-7.3808 -14.7450 -2.3363 0.9356
-6.3147 -15.2450 -2.3380 0.9355
-5.7687 -15.4664 -2.3389 0.9355
-5.2149 -15.6683 -2.3398 0.9355
-4.6541 -15.8505 -2.3407 0.9354
-3.5142 -16.1546 -2.3425 0.9354
-2.3547 -16.3770 -2.3443 0.9353
-1.2746 -11.8558 -1.6895 0.9530
0.4243 -11.8809 -1.6845 0.9531
2.3622 -16.4294 -2.3518 0.9351
2.9483 -16.3410 -2.3527 0.9351
3.5310 -16.2318 -2.3537 0.9351
4.1097 -16.1017 -2.3546 0.9351
5.2520 -15.7796 -2.3564 0.9350
7.9849 -14.6233 -2.3607 0.9349
7.5960 -11.8196 -1.9907 0.9448
9.9739 -12.3768 -2.2522 0.9378
10.9325 -12.6167 -2.3654 0.9348
14.9860 -9.6310 -2.5240 0.9306
15.3235 -9.0919 -2.5246 0.9305
15.9393 -7.9786 -2.5256 0.9305
16.4734 -6.8235 -2.5264 0.9305
16.7089 -6.2321 -2.5268 0.9305
17.1153 -5.0255 -2.5274 0.9305
17.4337 -3.7925 -2.5279 0.9305
17.5593 -3.1680 -2.5281 0.9305
17.6624 -2.5395 -2.5283 0.9304
17.7426 -1.9075 -2.5284 0.9304
17.8345 -0.6370 -2.5286 0.9304
-15.0322 0.0000 -2.4764 0.9409
-15.0227 -0.5365 -2.4764 0.9409
-14.8806 -2.1395 -2.4766 0.9409
-14.6919 -3.1960 -2.4769 0.9409
-14.5696 -3.7187 -2.4771 0.9409
-14.4289 -4.2367 -2.4773 0.9409
-14.2699 -4.7495 -2.4776 0.9409
-14.0929 -5.2564 -2.4779 0.9408
-13.8980 -5.7568 -2.4782 0.9408
-13.4557 -6.7355 -2.4789 0.9408
-13.2088 -7.2126 -2.4793 0.9408
-12.9452 -7.6807 -2.4797 0.9408
-12.0568 -9.0256 -2.4811 0.9408
-11.3871 -9.8670 -2.4822 0.9407
-11.0302 -10.2695 -2.4827 0.9407
-10.6592 -10.6592 -2.4833 0.9407
-10.2560 -11.0157 -2.4795 0.9408
-9.7109 -11.2070 -2.4429 0.9417
-8.0845 -11.6438 -2.3352 0.9442
-5.8974 -12.9134 -2.3387 0.9441
-5.4344 -13.1198 -2.3394 0.9441
-4.9642 -13.3097 -2.3402 0.9440
-4.0047 -13.6388 -2.3417 0.9440
-3.5165 -13.7776 -2.3425 0.9440
-3.0235 -13.8989 -2.3433 0.9440
-2.0257 -14.0887 -2.3448 0.9439
-0.8478 -11.8541 -1.9578 0.9530
-0.5085 -14.2392 -2.3472 0.9439
1.5252 -14.1861 -2.3505 0.9438
2.5350 -14.0507 -2.3521 0.9438
3.0360 -13.9560 -2.3529 0.9437
3.5333 -13.8434 -2.3537 0.9437
4.0265 -13.7130 -2.3544 0.9437
4.9978 -13.3996 -2.3560 0.9437
5.4746 -13.2170 -2.3567 0.9437
5.9448 -13.0172 -2.3575 0.9436
6.4076 -12.8007 -2.3582 0.9436
6.6549 -12.1875 -2.2876 0.9453
7.0349 -11.8566 -2.2712 0.9456
8.5912 -11.4765 -2.3617 0.9435
9.0442 -11.2232 -2.3745 0.9432
10.8016 -10.8016 -2.5165 0.9400
11.1869 -10.4154 -2.5180 0.9399
11.5542 -10.0118 -2.5186 0.9399
12.5662 -8.7249 -2.5202 0.9399
13.4342 -7.3356 -2.5216 0.9398
13.9276 -6.3605 -2.5224 0.9398
14.1477 -5.8602 -2.5227 0.9398
14.3497 -5.3522 -2.5230 0.9398
14.6982 -4.3158 -2.5236 0.9398
15.1673 -2.1807 -2.5243 0.9398
15.2361 -1.6381 -2.5244 0.9398
15.2853 -1.0932 -2.5245 0.9398
15.3149 -0.5470 -2.5246 0.9398
-13.1906 0.0000 -2.4793 0.9477
-13.1157 -1.4101 -2.4794 0.9477
-12.9827 -2.3424 -2.4796 0.9477
-12.7842 -3.2630 -2.4800 0.9477
-12.6606 -3.7175 -2.4802 0.9477
-12.3655 -4.6121 -2.4806 0.9477
-11.3574 -6.7387 -2.4822 0.9477
-11.1114 -7.1409 -2.4826 0.9477
-10.8512 -7.5342 -2.4830 0.9477
-9.3501 -9.3501 -2.4854 0.9476
-9.0123 -9.6799 -2.4859 0.9476
-7.1414 -11.1122 -2.4828 0.9477
-6.6491 -11.2064 -2.4492 0.9483
-6.1240 -11.2153 -2.4018 0.9493
-3.9346 -11.8214 -2.3418 0.9506
-2.6507 -12.1849 -2.3438 0.9505
-2.1525 -11.9302 -2.2786 0.9519
-1.7757 -12.3502 -2.3452 0.9505
-0.8478 -11.8541 -2.2338 0.9528
-0.4457 -12.4805 -2.3473 0.9504
0.0000 -11.8730 -2.2317 0.9528
1.7800 -12.3800 -2.3509 0.9504
2.6602 -12.2287 -2.3523 0.9503
3.9556 -11.8847 -2.3543 0.9503
4.3785 -11.7393 -2.3550 0.9503
4.7961 -11.5788 -2.3557 0.9503
5.6207 -11.2288 -2.3602 0.9502
6.1252 -11.2175 -2.4023 0.9493
7.1973 -11.1992 -2.5022 0.9473
8.3911 -10.4127 -2.5136 0.9470
8.7594 -10.1089 -2.5142 0.9470
9.1167 -9.7920 -2.5147 0.9470
9.7962 -9.1206 -2.5158 0.9470
10.4261 -8.4018 -2.5168 0.9470
10.7213 -8.0259 -2.5173 0.9470
11.0029 -7.6395 -2.5177 0.9469
11.5236 -6.8373 -2.5186 0.9469
11.9855 -5.9995 -2.5193 0.9469
12.1936 -5.5686 -2.5196 0.9469
12.3861 -5.1305 -2.5199 0.9469
12.5627 -4.6857 -2.5202 0.9469
12.8675 -3.7782 -2.5207 0.9469
12.9952 -3.3168 -2.5209 0.9469
13.1062 -2.8511 -2.5211 0.9469
13.2004 -2.3816 -2.5212 0.9469
13.2776 -1.9090 -2.5213 0.9469
-11.7327 -0.4190 -2.4816 0.9531
-11.6733 -1.2550 -2.4817 0.9531
-11.5549 -2.0847 -2.4819 0.9531
-11.4737 -2.4960 -2.4820 0.9531
-10.6864 -4.8803 -2.4833 0.9531
-10.5066 -5.2592 -2.4836 0.9531
-10.3134 -5.6316 -2.4839 0.9531
-9.6564 -6.7046 -2.4849 0.9531
-9.4124 -7.0460 -2.4853 0.9531
-9.1564 -7.3787 -2.4857 0.9531
-8.8887 -7.7021 -2.4861 0.9531
-8.6097 -8.0159 -2.4866 0.9530
-8.3196 -8.3197 -2.4870 0.9530
-8.0189 -8.6130 -2.4875 0.9530
-7.7079 -8.8954 -2.4880 0.9530
-7.3870 -9.1668 -2.4885 0.9530
-7.0566 -9.4266 -2.4891 0.9530
-6.7171 -9.6745 -2.4896 0.9530
-6.3690 -9.9103 -2.4901 0.9530
-6.0126 -10.1336 -2.4907 0.9530
-5.2768 -10.5417 -2.4919 0.9529
-3.7160 -11.1649 -2.4873 0.9530
-2.0234 -11.2148 -2.4088 0.9545
-1.6128 -11.2173 -2.3955 0.9547
-0.4008 -11.2216 -2.3735 0.9551
0.0000 -11.2219 -2.3721 0.9552
0.8026 -11.2210 -2.3780 0.9550
2.4391 -11.2125 -2.4255 0.9542
2.8609 -11.2089 -2.4453 0.9538
3.2900 -11.2047 -2.4684 0.9534
3.7277 -11.1999 -2.4951 0.9529
5.6892 -10.4189 -2.5093 0.9526
6.4209 -9.9911 -2.5104 0.9526
7.4570 -9.2536 -2.5121 0.9526
8.1014 -8.7016 -2.5131 0.9526
8.4085 -8.4085 -2.5136 0.9525
9.2642 -7.4655 -2.5150 0.9525
9.7763 -6.7878 -2.5158 0.9525
10.0138 -6.4355 -2.5162 0.9525
10.4503 -5.7063 -2.5168 0.9525
10.8334 -4.9474 -2.5175 0.9525
11.1610 -4.1629 -2.5180 0.9525
11.3035 -3.7622 -2.5182 0.9525
11.5449 -2.9467 -2.5186 0.9525
11.6434 -2.5329 -2.5187 0.9525
-10.5068 -1.1296 -2.4836 0.9575
-10.4601 -1.5039 -2.4837 0.9575
-10.4002 -1.8764 -2.4837 0.9575
-10.2409 -2.6138 -2.4840 0.9575
-9.7676 -4.0459 -2.4847 0.9575
-9.2820 -5.0684 -2.4855 0.9575
-8.8990 -5.7190 -2.4861 0.9575
-8.6903 -6.0338 -2.4865 0.9575
-8.2401 -6.6403 -2.4872 0.9574
-7.9991 -6.9312 -2.4876 0.9574
-7.7478 -7.2135 -2.4880 0.9574
-6.9359 -8.0045 -2.4892 0.9574
-6.3496 -8.4821 -2.4902 0.9574
-6.0440 -8.7050 -2.4907 0.9574
-5.7306 -8.9170 -2.4912 0.9574
-5.0820 -9.3069 -2.4922 0.9574
-4.7475 -9.4844 -2.4927 0.9574
-4.4069 -9.6499 -2.4933 0.9573
-3.7090 -9.9441 -2.4944 0.9573
-2.2581 -10.3803 -2.4967 0.9573
-1.8866 -10.4568 -2.4973 0.9573
0.0000 -10.6383 -2.5003 0.9572
0.3798 -10.6341 -2.5009 0.9572
1.1380 -10.5850 -2.5021 0.9572
1.8911 -10.4819 -2.5033 0.9572
2.2646 -10.4102 -2.5038 0.9572
2.6353 -10.3251 -2.5044 0.9572
3.3668 -10.1155 -2.5056 0.9571
3.7265 -9.9912 -2.5062 0.9571
4.0817 -9.8540 -2.5067 0.9571
4.7763 -9.5419 -2.5078 0.9571
5.1150 -9.3674 -2.5084 0.9571
5.4472 -9.1808 -2.5089 0.9571
5.7726 -8.9823 -2.5094 0.9571
6.4012 -8.5510 -2.5104 0.9571
6.7036 -8.3187 -2.5109 0.9571
6.9976 -8.0756 -2.5114 0.9570
8.0812 -7.0024 -2.5131 0.9570
8.3273 -6.7105 -2.5135 0.9570
8.5627 -6.4100 -2.5139 0.9570
9.0007 -5.7844 -2.5145 0.9570
9.2026 -5.4602 -2.5149 0.9570
9.5709 -4.7908 -2.5155 0.9570
9.7368 -4.4467 -2.5157 0.9570
9.8903 -4.0967 -2.5160 0.9570
10.2740 -3.0167 -2.5166 0.9570
10.5394 -1.9015 -2.5170 0.9569
10.6489 -1.1449 -2.5172 0.9569
10.6832 -0.7641 -2.5172 0.9569
-9.5916 -0.3426 -2.4850 0.9611
-9.5006 -1.3660 -2.4852 0.9611
-9.4461 -1.7043 -2.4853 0.9611
-9.3013 -2.3740 -2.4855 0.9611
-9.2112 -2.7047 -2.4856 0.9611
-8.7352 -3.9892 -2.4864 0.9611
-8.5881 -4.2989 -2.4866 0.9611
-7.6927 -5.7587 -2.4880 0.9611
-7.4833 -6.0304 -2.4884 0.9611
-7.2643 -6.2945 -2.4887 0.9611
-6.5528 -7.0382 -2.4899 0.9610
-6.2984 -7.2688 -2.4903 0.9610
-5.4882 -7.9045 -2.4915 0.9610
-4.9121 -8.2789 -2.4925 0.9610
-4.3106 -8.6115 -2.4934 0.9610
-3.6867 -8.9006 -2.4944 0.9610
-3.3674 -9.0284 -2.4949 0.9610
-2.7159 -9.2494 -2.4959 0.9610
-2.3845 -9.3424 -2.4965 0.9609
-2.0500 -9.4236 -2.4970 0.9609
-1.7127 -9.4928 -2.4975 0.9609
-1.3731 -9.5499 -2.4981 0.9609
-1.0316 -9.5949 -2.4986 0.9609
0.0000 -9.6566 -2.5003 0.9609
1.0329 -9.6075 -2.5019 0.9609
1.3755 -9.5666 -2.5024 0.9609
2.3918 -9.3708 -2.5041 0.9608
3.0555 -9.1802 -2.5051 0.9608
3.7041 -8.9425 -2.5061 0.9608
4.0217 -8.8063 -2.5066 0.9608
4.3343 -8.6589 -2.5071 0.9608
4.6415 -8.5003 -2.5076 0.9608
5.2381 -8.1506 -2.5086 0.9608
5.5267 -7.9599 -2.5090 0.9608
5.8083 -7.7590 -2.5095 0.9607
6.0826 -7.5480 -2.5099 0.9607
7.0994 -6.6098 -2.5115 0.9607
7.5551 -6.0883 -2.5123 0.9607
7.7686 -5.8155 -2.5126 0.9607
7.9723 -5.5352 -2.5129 0.9607
8.1657 -5.2478 -2.5132 0.9607
8.3488 -4.9536 -2.5135 0.9607
8.6828 -4.3463 -2.5140 0.9607
9.1000 -3.3941 -2.5147 0.9607
9.4125 -2.4024 -2.5152 0.9607
9.4928 -2.0650 -2.5153 0.9607
9.5608 -1.7250 -2.5154 0.9607
-8.7827 -0.0000 -2.4863 0.9641
-8.7771 -0.3135 -2.4863 0.9641
-8.7604 -0.6266 -2.4864 0.9641
-8.7326 -0.9389 -2.4864 0.9641
-8.6938 -1.2500 -2.4865 0.9641
-8.5831 -1.8671 -2.4866 0.9641
-7.9930 -3.6503 -2.4876 0.9641
-7.7136 -4.2120 -2.4880 0.9641
-7.3950 -4.7525 -2.4885 0.9641
-7.2215 -5.0140 -2.4888 0.9641
-7.0387 -5.2691 -2.4891 0.9641
-6.6466 -5.7593 -2.4897 0.9641
-6.4376 -5.9936 -2.4900 0.9641
-6.2204 -6.2204 -2.4904 0.9641
-5.9953 -6.4394 -2.4907 0.9641
-5.2750 -7.0466 -2.4919 0.9641
-5.0210 -7.2316 -2.4923 0.9641
-4.4938 -7.5739 -2.4931 0.9641
-4.2213 -7.7308 -2.4936 0.9640
-3.9434 -7.8779 -2.4940 0.9640
-3.6604 -8.0151 -2.4944 0.9640
-3.3726 -8.1422 -2.4949 0.9640
-2.7842 -8.3651 -2.4958 0.9640
-2.1812 -8.5457 -2.4968 0.9640
-1.8751 -8.6198 -2.4973 0.9640
-1.2559 -8.7351 -2.4983 0.9640
-0.6298 -8.8059 -2.4993 0.9640
0.3153 -8.8281 -2.5008 0.9639
0.6303 -8.8129 -2.5013 0.9639
0.9447 -8.7866 -2.5018 0.9639
1.5697 -8.7002 -2.5027 0.9639
2.1872 -8.5695 -2.5037 0.9639
2.4922 -8.4876 -2.5042 0.9639
3.0925 -8.2913 -2.5052 0.9639
3.3871 -8.1772 -2.5056 0.9639
4.5196 -7.6174 -2.5074 0.9638
4.7894 -7.4525 -2.5079 0.9638
6.2700 -6.2700 -2.5102 0.9638
6.4907 -6.0430 -2.5106 0.9638
6.7031 -5.8083 -2.5109 0.9638
7.6324 -4.5285 -2.5124 0.9638
7.7899 -4.2536 -2.5126 0.9638
7.9375 -3.9732 -2.5129 0.9638
8.0750 -3.6877 -2.5131 0.9638
8.3188 -3.1027 -2.5135 0.9638
8.4248 -2.8040 -2.5136 0.9638
8.6777 -1.8877 -2.5140 0.9638
8.7398 -1.5768 -2.5141 0.9638
8.7908 -1.2639 -2.5142 0.9638
8.8306 -0.9494 -2.5143 0.9638
8.8590 -0.6336 -2.5143 0.9638
8.8761 -0.3170 -2.5144 0.9638
-8.0410 -0.8645 -2.4875 0.9667
-7.8371 -2.0003 -2.4878 0.9667
-7.7611 -2.2789 -2.4879 0.9667
-7.6753 -2.5546 -2.4881 0.9667
-7.5797 -2.8271 -2.4882 0.9667
-7.3597 -3.3611 -2.4886 0.9667
-7.1023 -3.8782 -2.4890 0.9667
-6.8088 -4.3758 -2.4894 0.9667
-5.5197 -5.9286 -2.4915 0.9667
-5.0841 -6.3090 -2.4922 0.9667
-4.6225 -6.6576 -2.4929 0.9667
-3.8861 -7.1169 -2.4941 0.9666
-3.3696 -7.3784 -2.4949 0.9666
-1.7260 -7.9344 -2.4975 0.9666
-0.5797 -8.1051 -2.4993 0.9666
-0.2901 -8.1222 -2.4998 0.9666
0.2902 -8.1252 -2.5007 0.9665
0.8694 -8.0867 -2.5016 0.9665
1.1577 -8.0520 -2.5021 0.9665
2.8459 -7.6301 -2.5048 0.9665
3.3841 -7.4101 -2.5056 0.9665
3.9054 -7.1522 -2.5065 0.9665
4.1589 -7.0094 -2.5069 0.9665
4.4071 -6.8576 -2.5073 0.9665
4.6497 -6.6969 -2.5076 0.9665
5.1172 -6.3500 -2.5084 0.9664
5.5587 -5.9705 -2.5091 0.9664
6.1674 -5.3441 -2.5100 0.9664
6.3550 -5.1212 -2.5103 0.9664
6.7056 -4.6558 -2.5109 0.9664
7.0221 -4.1664 -2.5114 0.9664
7.1670 -3.9135 -2.5116 0.9664
7.6533 -2.8545 -2.5124 0.9664
7.7508 -2.5797 -2.5126 0.9664
7.8384 -2.3016 -2.5127 0.9664
8.0874 -1.1628 -2.5131 0.9664
8.1501 -0.5829 -2.5132 0.9664
-7.4670 -0.5341 -2.4884 0.9689
-7.3676 -1.3293 -2.4886 0.9689
-7.1841 -2.1094 -2.4889 0.9689
-7.0161 -2.6169 -2.4891 0.9689
-6.9186 -2.8658 -2.4893 0.9689
-6.5741 -3.5897 -2.4898 0.9689
-6.4423 -3.8224 -2.4900 0.9689
-6.1543 -4.2730 -2.4905 0.9689
-5.8350 -4.7021 -2.4910 0.9689
-5.4859 -5.1076 -2.4915 0.9689
-5.1088 -5.4872 -2.4921 0.9689
-4.4947 -6.0042 -2.4931 0.9689
-4.2781 -6.1617 -2.4935 0.9689
-4.0561 -6.3114 -2.4938 0.9689
-3.8288 -6.4530 -2.4942 0.9689
-3.5965 -6.5866 -2.4945 0.9689
-2.6242 -7.0357 -2.4961 0.9688
-0.8036 -7.4748 -2.4990 0.9688
0.0000 -7.5217 -2.5003 0.9688
1.3366 -7.4085 -2.5024 0.9688
1.8624 -7.2967 -2.5032 0.9688
2.1220 -7.2267 -2.5036 0.9688
2.8837 -6.9619 -2.5048 0.9687
3.8475 -6.4846 -2.5064 0.9687
4.0771 -6.3440 -2.5067 0.9687
4.9411 -5.7024 -2.5081 0.9687
5.1422 -5.5231 -2.5084 0.9687
5.5244 -5.1434 -2.5090 0.9687
5.8786 -4.7373 -2.5096 0.9687
6.0445 -4.5249 -2.5099 0.9687
6.2028 -4.3067 -2.5101 0.9687
6.4955 -3.8539 -2.5106 0.9687
6.8718 -3.1383 -2.5112 0.9687
7.1693 -2.3862 -2.5116 0.9687
7.3220 -1.8688 -2.5119 0.9686
7.4372 -1.3418 -2.5121 0.9686
7.4805 -1.0755 -2.5121 0.9686
7.5143 -0.8079 -2.5122 0.9686
7.5530 -0.2698 -2.5123 0.9686
-6.9431 -0.4966 -2.4892 0.9709
-6.8023 -1.4798 -2.4895 0.9709
-6.7454 -1.7217 -2.4895 0.9709
-6.6060 -2.1987 -2.4898 0.9709
-6.5237 -2.4332 -2.4899 0.9709
-6.3342 -2.8927 -2.4902 0.9709
-6.2274 -3.1172 -2.4904 0.9708
-5.9900 -3.5540 -2.4907 0.9708
-5.4252 -4.3719 -2.4916 0.9708
-5.1006 -4.7488 -2.4922 0.9708
-4.9284 -4.9284 -2.4924 0.9708
-4.7498 -5.1017 -2.4927 0.9708
-4.3748 -5.4288 -2.4933 0.9708
-3.9774 -5.7286 -2.4939 0.9708
-3.7709 -5.8676 -2.4943 0.9708
-3.5596 -5.9993 -2.4946 0.9708
-2.8991 -6.3481 -2.4957 0.9708
-2.6710 -6.4485 -2.4960 0.9708
-2.2049 -6.6245 -2.4968 0.9708
-0.9944 -6.9161 -2.4987 0.9708
-0.7470 -6.9483 -2.4991 0.9707
-0.4986 -6.9716 -2.4995 0.9707
-0.2495 -6.9861 -2.4999 0.9707
0.0000 -6.9916 -2.5003 0.9707
0.2496 -6.9883 -2.5007 0.9707
0.9956 -6.9248 -2.5018 0.9707
1.2424 -6.8860 -2.5022 0.9707
1.7310 -6.7819 -2.5030 0.9707
2.6801 -6.4704 -2.5045 0.9707
2.9098 -6.3716 -2.5049 0.9707
3.1358 -6.2645 -2.5052 0.9707
3.3579 -6.1495 -2.5056 0.9707
3.5757 -6.0265 -2.5059 0.9707
4.3993 -5.4592 -2.5072 0.9707
4.7787 -5.1327 -2.5078 0.9706
4.9594 -4.9594 -2.5081 0.9706
5.4629 -4.4022 -2.5089 0.9706
5.7641 -4.0021 -2.5094 0.9706
5.9038 -3.7941 -2.5096 0.9706
6.1604 -3.3638 -2.5100 0.9706
6.2770 -3.1420 -2.5102 0.9706
6.3856 -2.9162 -2.5104 0.9706
6.4860 -2.6866 -2.5106 0.9706
6.7371 -1.9782 -2.5110 0.9706
6.8037 -1.7366 -2.5111 0.9706
6.9510 -0.9994 -2.5113 0.9706
7.0048 -0.5010 -2.5114 0.9706
-6.4975 0.0000 -2.4899 0.9726
-6.4933 -0.2319 -2.4899 0.9726
-6.4810 -0.4635 -2.4900 0.9726
-6.2353 -1.8309 -2.4904 0.9725
-6.1663 -2.0523 -2.4905 0.9725
-5.9125 -2.7001 -2.4909 0.9725
-5.7056 -3.1155 -2.4912 0.9725
-5.5911 -3.3174 -2.4914 0.9725
-5.4696 -3.5151 -2.4916 0.9725
-5.0638 -4.0807 -2.4922 0.9725
-4.7607 -4.4324 -2.4927 0.9725
-4.2610 -4.9175 -2.4935 0.9725
-4.0832 -5.0670 -2.4938 0.9725
-3.7122 -5.3466 -2.4944 0.9725
-3.5195 -5.4764 -2.4947 0.9725
-3.3222 -5.5992 -2.4950 0.9725
-3.1206 -5.7150 -2.4953 0.9725
-2.9150 -5.8235 -2.4956 0.9725
-2.7057 -5.9246 -2.4960 0.9725
-2.2767 -6.1042 -2.4966 0.9725
-1.6119 -6.3152 -2.4977 0.9725
-1.3856 -6.3697 -2.4981 0.9725
-1.1576 -6.4160 -2.4984 0.9725
0.0000 -6.5244 -2.5003 0.9724
0.4656 -6.5097 -2.5010 0.9724
0.6977 -6.4899 -2.5014 0.9724
1.3881 -6.3809 -2.5025 0.9724
1.6152 -6.3282 -2.5028 0.9724
2.2833 -6.1219 -2.5039 0.9724
2.7150 -5.9450 -2.5046 0.9724
2.9258 -5.8451 -2.5049 0.9724
3.1330 -5.7377 -2.5052 0.9724
3.5353 -5.5010 -2.5059 0.9724
3.7298 -5.3719 -2.5062 0.9724
3.9196 -5.2360 -2.5065 0.9724
4.6270 -4.6270 -2.5076 0.9724
4.9463 -4.2860 -2.5081 0.9724
5.0966 -4.1071 -2.5083 0.9724
5.2404 -3.9229 -2.5086 0.9723
5.3776 -3.7337 -2.5088 0.9723
5.5078 -3.5397 -2.5090 0.9723
6.2149 -2.0685 -2.5101 0.9723
6.4470 -1.1632 -2.5105 0.9723
6.4846 -0.9323 -2.5106 0.9723
6.5138 -0.7003 -2.5106 0.9723
6.5473 -0.2338 -2.5107 0.9723
-6.0815 -0.2172 -2.4906 0.9740
-6.0699 -0.4341 -2.4906 0.9740
-5.9891 -1.0805 -2.4908 0.9740
-5.9468 -1.2937 -2.4908 0.9740
-5.8971 -1.5051 -2.4909 0.9740
-5.7031 -2.1271 -2.4912 0.9740
-5.6238 -2.3295 -2.4913 0.9740
-5.4439 -2.7250 -2.4916 0.9740
-5.3435 -2.9178 -2.4918 0.9740
-5.1225 -3.2920 -2.4921 0.9740
-4.8754 -3.6496 -2.4925 0.9740
-4.7424 -3.8217 -2.4927 0.9740
-4.3079 -4.3079 -2.4934 0.9740
-4.1518 -4.4594 -2.4937 0.9740
-3.9904 -4.6052 -2.4939 0.9740
-3.8239 -4.7452 -2.4942 0.9740
-3.6525 -4.8792 -2.4945 0.9740
-3.4764 -5.0070 -2.4947 0.9740
-2.9223 -5.3518 -2.4956 0.9740
-2.7297 -5.4533 -2.4959 0.9740
-2.5337 -5.5480 -2.4962 0.9740
-2.3343 -5.6356 -2.4966 0.9740
-2.1320 -5.7161 -2.4969 0.9740
-1.0839 -6.0078 -2.4985 0.9740
-0.8689 -6.0435 -2.4989 0.9740
-0.6527 -6.0715 -2.4992 0.9740
-0.4357 -6.0917 -2.4996 0.9739
0.2181 -6.1059 -2.5006 0.9739
0.4359 -6.0951 -2.5009 0.9739
0.6533 -6.0765 -2.5013 0.9739
0.8699 -6.0502 -2.5016 0.9739
1.0854 -6.0161 -2.5020 0.9739
1.2996 -5.9743 -2.5023 0.9739
1.5122 -5.9249 -2.5027 0.9739
1.7230 -5.8679 -2.5030 0.9739
1.9316 -5.8035 -2.5033 0.9739
2.1378 -5.7316 -2.5037 0.9739
2.3413 -5.6524 -2.5040 0.9739
2.5419 -5.5659 -2.5043 0.9739
3.6695 -4.9019 -2.5061 0.9739
4.0107 -4.6286 -2.5066 0.9739
4.3316 -4.3316 -2.5071 0.9739
4.4839 -4.1746 -2.5074 0.9739
4.7711 -3.8448 -2.5078 0.9739
4.9057 -3.6724 -2.5080 0.9739
5.0341 -3.4952 -2.5082 0.9739
5.1560 -3.3136 -2.5084 0.9739
5.2714 -3.1277 -2.5086 0.9739
5.3801 -2.9377 -2.5088 0.9739
5.4818 -2.7440 -2.5090 0.9739
5.6643 -2.3462 -2.5093 0.9738
5.7447 -2.1427 -2.5094 0.9738
5.8178 -1.9363 -2.5095 0.9738
5.8834 -1.7275 -2.5096 0.9738
5.9416 -1.5165 -2.5097 0.9738
5.9921 -1.3035 -2.5098 0.9738
6.0350 -1.0888 -2.5098 0.9738
6.0975 -0.6556 -2.5099 0.9738
6.1289 -0.2189 -2.5100 0.9738
-5.7125 -0.2040 -2.4912 0.9754
-5.6835 -0.6110 -2.4912 0.9754
-5.6582 -0.8135 -2.4913 0.9754
-5.6256 -1.0150 -2.4913 0.9754
-5.5392 -1.4138 -2.4915 0.9754
-5.4246 -1.8055 -2.4916 0.9754
-4.4544 -3.5896 -2.4932 0.9753
-4.3238 -3.7466 -2.4934 0.9753
-4.1877 -3.8989 -2.4936 0.9753
-3.8996 -4.1884 -2.4941 0.9753
-3.7480 -4.3254 -2.4943 0.9753
-3.5915 -4.4568 -2.4946 0.9753
-3.4305 -4.5827 -2.4948 0.9753
-3.2651 -4.7027 -2.4951 0.9753
-3.0955 -4.8167 -2.4953 0.9753
-2.9220 -4.9247 -2.4956 0.9753
-2.3796 -5.2106 -2.4965 0.9753
-2.0023 -5.3684 -2.4971 0.9753
-1.8096 -5.4371 -2.4974 0.9753
-1.6146 -5.4989 -2.4977 0.9753
-0.4092 -5.7208 -2.4996 0.9753
0.0000 -5.7369 -2.5003 0.9753
0.4094 -5.7238 -2.5009 0.9753
1.0193 -5.6494 -2.5019 0.9753
1.8138 -5.4496 -2.5031 0.9753
2.1985 -5.3076 -2.5037 0.9752
2.3868 -5.2264 -2.5040 0.9752
2.7542 -5.0440 -2.5046 0.9752
2.9328 -4.9430 -2.5049 0.9752
3.1078 -4.8357 -2.5052 0.9752
3.2787 -4.7223 -2.5055 0.9752
3.4455 -4.6027 -2.5057 0.9752
3.6080 -4.4773 -2.5060 0.9752
4.0671 -4.0671 -2.5067 0.9752
4.4797 -3.6100 -2.5074 0.9752
4.7266 -3.2817 -2.5078 0.9752
4.9494 -2.9366 -2.5081 0.9752
5.0514 -2.7582 -2.5083 0.9752
5.1469 -2.5763 -2.5084 0.9752
5.2359 -2.3911 -2.5086 0.9752
5.6661 -1.0223 -2.5093 0.9752
5.7432 -0.4108 -2.5094 0.9752
-5.3523 -0.5754 -2.4918 0.9766
-5.2978 -0.9558 -2.4918 0.9766
-5.1084 -1.7002 -2.4921 0.9765
-5.0447 -1.8816 -2.4922 0.9765
-4.9745 -2.0605 -2.4924 0.9765
-4.7265 -2.5809 -2.4928 0.9765
-4.4244 -3.0719 -2.4932 0.9765
-4.0716 -3.5281 -2.4938 0.9765
-3.3820 -4.1968 -2.4949 0.9765
-3.2303 -4.3152 -2.4951 0.9765
-2.9148 -4.5356 -2.4956 0.9765
-2.7514 -4.6372 -2.4959 0.9765
-2.4141 -4.8227 -2.4964 0.9765
-2.2407 -4.9064 -2.4967 0.9765
-2.0643 -4.9838 -2.4970 0.9765
-1.8854 -5.0548 -2.4973 0.9765
-1.5203 -5.1777 -2.4978 0.9765
-1.3347 -5.2292 -2.4981 0.9765
-0.9585 -5.3124 -2.4987 0.9765
-0.7683 -5.3439 -2.4990 0.9765
-0.3852 -5.3864 -2.4996 0.9765
-0.1928 -5.3974 -2.5000 0.9765
0.5776 -5.3725 -2.5012 0.9765
0.9596 -5.3189 -2.5018 0.9765
1.7076 -5.1306 -2.5030 0.9764
1.8899 -5.0670 -2.5033 0.9764
2.4215 -4.8375 -2.5041 0.9764
2.5929 -4.7486 -2.5044 0.9764
2.7610 -4.6535 -2.5046 0.9764
2.9257 -4.5524 -2.5049 0.9764
3.6893 -3.9626 -2.5061 0.9764
4.0928 -3.5464 -2.5068 0.9764
4.3360 -3.2459 -2.5071 0.9764
4.5572 -2.9287 -2.5075 0.9764
4.8450 -2.4252 -2.5079 0.9764
4.9287 -2.2509 -2.5081 0.9764
5.0772 -1.8937 -2.5083 0.9764
5.2511 -1.3403 -2.5086 0.9764
5.3336 -0.9623 -2.5087 0.9764
5.3647 -0.7713 -2.5088 0.9764
-5.0775 -0.1813 -2.4922 0.9776
-5.0517 -0.5431 -2.4922 0.9776
-5.0291 -0.7231 -2.4923 0.9776
-5.0002 -0.9021 -2.4923 0.9776
-4.9234 -1.2566 -2.4924 0.9776
-4.8755 -1.4316 -2.4925 0.9776
-4.7613 -1.7759 -2.4927 0.9776
-4.6951 -1.9448 -2.4928 0.9776
-4.5448 -2.2750 -2.4930 0.9776
-4.4610 -2.4359 -2.4932 0.9776
-4.3714 -2.5937 -2.4933 0.9776
-4.1758 -2.8993 -2.4936 0.9776
-3.8427 -3.3298 -2.4942 0.9776
-3.7217 -3.4651 -2.4943 0.9776
-3.5960 -3.5960 -2.4945 0.9776
-3.1918 -3.9608 -2.4952 0.9776
-2.9016 -4.1792 -2.4957 0.9776
-2.7509 -4.2805 -2.4959 0.9776
-2.5966 -4.3764 -2.4961 0.9776
-2.4390 -4.4667 -2.4964 0.9776
-2.2783 -4.5514 -2.4966 0.9776
-2.1146 -4.6303 -2.4969 0.9776
-1.9482 -4.7033 -2.4972 0.9776
-1.7792 -4.7704 -2.4974 0.9776
-1.4347 -4.8862 -2.4980 0.9776
-1.0827 -4.9772 -2.4985 0.9776
-0.9045 -5.0132 -2.4988 0.9776
0.1819 -5.0945 -2.5005 0.9775
0.5450 -5.0697 -2.5011 0.9775
0.7257 -5.0476 -2.5014 0.9775
1.4373 -4.8951 -2.5025 0.9775
1.7833 -4.7812 -2.5031 0.9775
2.1203 -4.6427 -2.5036 0.9775
2.2849 -4.5646 -2.5039 0.9775
3.0605 -4.0884 -2.5051 0.9775
3.2048 -3.9769 -2.5053 0.9775
3.7394 -3.4815 -2.5062 0.9775
3.9789 -3.2064 -2.5066 0.9775
4.1980 -2.9148 -2.5069 0.9775
4.3958 -2.6082 -2.5072 0.9775
4.4864 -2.4498 -2.5074 0.9775
4.5712 -2.2882 -2.5075 0.9775
4.6502 -2.1237 -2.5076 0.9775
4.7903 -1.7867 -2.5079 0.9775
4.8512 -1.6146 -2.5080 0.9775
4.9059 -1.4405 -2.5080 0.9775
4.9543 -1.2645 -2.5081 0.9775
5.0322 -0.9079 -2.5082 0.9775
5.0843 -0.5466 -2.5083 0.9775
5.1006 -0.3648 -2.5084 0.9775
5.1104 -0.1825 -2.5084 0.9775
-4.8017 -0.1715 -2.4926 0.9786
-4.7926 -0.3428 -2.4927 0.9786
-4.7560 -0.6838 -2.4927 0.9786
-4.6560 -1.1884 -2.4929 0.9786
-4.6107 -1.3538 -2.4929 0.9786
-4.5596 -1.5176 -2.4930 0.9786
-4.5027 -1.6794 -2.4931 0.9786
-4.4401 -1.8391 -2.4932 0.9786
-4.3718 -1.9965 -2.4933 0.9786
-4.2186 -2.3036 -2.4936 0.9786
-4.0440 -2.5989 -2.4938 0.9786
-3.9489 -2.7418 -2.4940 0.9786
-3.8488 -2.8812 -2.4941 0.9786
-3.7437 -3.0169 -2.4943 0.9786
-3.4005 -3.4005 -2.4949 0.9786
-3.2773 -3.5200 -2.4951 0.9786
-3.0183 -3.7455 -2.4955 0.9786
-2.7439 -3.9519 -2.4959 0.9786
-2.6013 -4.0477 -2.4961 0.9786
-2.4554 -4.1384 -2.4964 0.9785
-2.3064 -4.2238 -2.4966 0.9785
-2.1543 -4.3038 -2.4968 0.9785
-1.9995 -4.3784 -2.4971 0.9785
-1.6824 -4.5108 -2.4976 0.9785
-1.3566 -4.6203 -2.4981 0.9785
-1.0238 -4.7063 -2.4986 0.9785
-0.8553 -4.7403 -2.4989 0.9785
-0.6856 -4.7684 -2.4992 0.9785
-0.5150 -4.7903 -2.4994 0.9785
-0.1720 -4.8159 -2.5000 0.9785
0.0000 -4.8195 -2.5003 0.9785
0.5153 -4.7935 -2.5011 0.9785
0.6862 -4.7725 -2.5013 0.9785
1.3590 -4.6283 -2.5024 0.9785
1.5235 -4.5773 -2.5027 0.9785
2.0046 -4.3896 -2.5034 0.9785
2.3131 -4.2362 -2.5039 0.9785
2.6099 -4.0611 -2.5044 0.9785
2.8935 -3.8653 -2.5049 0.9785
3.2910 -3.5347 -2.5055 0.9785
3.4153 -3.4153 -2.5057 0.9785
3.5353 -3.2915 -2.5059 0.9785
3.7616 -3.0313 -2.5062 0.9785
4.1558 -2.4657 -2.5069 0.9785
4.2414 -2.3160 -2.5070 0.9785
4.3215 -2.1632 -2.5071 0.9785
4.5862 -1.5264 -2.5075 0.9785
4.6379 -1.3618 -2.5076 0.9785
4.6837 -1.1954 -2.5077 0.9785
4.7235 -1.0275 -2.5078 0.9785
4.7573 -0.8583 -2.5078 0.9785
4.7849 -0.6880 -2.5079 0.9785
-4.5258 -0.4866 -2.4931 0.9795
-4.5056 -0.6478 -2.4931 0.9795
-4.4797 -0.8082 -2.4931 0.9795
-4.4108 -1.1258 -2.4933 0.9795
-4.2656 -1.5910 -2.4935 0.9795
-4.1415 -1.8914 -2.4937 0.9794
-3.9964 -2.1822 -2.4939 0.9794
-3.9162 -2.3236 -2.4940 0.9794
-3.7409 -2.5973 -2.4943 0.9794
-3.6460 -2.7294 -2.4945 0.9794
-3.5465 -2.8579 -2.4946 0.9794
-3.4424 -2.9829 -2.4948 0.9794
-3.1045 -3.3345 -2.4953 0.9794
-2.8592 -3.5480 -2.4957 0.9794
-2.7309 -3.6481 -2.4959 0.9794
-2.4642 -3.8343 -2.4963 0.9794
-2.3259 -3.9202 -2.4966 0.9794
-1.5937 -4.2728 -2.4977 0.9794
-1.4403 -4.3274 -2.4980 0.9794
-1.2851 -4.3765 -2.4982 0.9794
-1.1281 -4.4200 -2.4985 0.9794
-0.8101 -4.4901 -2.4990 0.9794
-0.6494 -4.5166 -2.4992 0.9794
-0.1629 -4.5616 -2.5000 0.9794
-0.0000 -4.5650 -2.5003 0.9794
0.1630 -4.5625 -2.5005 0.9794
0.3257 -4.5543 -2.5008 0.9794
0.4881 -4.5402 -2.5010 0.9794
0.6499 -4.5204 -2.5013 0.9794
0.8109 -4.4948 -2.5015 0.9794
0.9710 -4.4634 -2.5018 0.9794
1.1298 -4.4264 -2.5021 0.9794
1.4429 -4.3353 -2.5025 0.9794
1.5969 -4.2815 -2.5028 0.9794
1.8986 -4.1575 -2.5033 0.9794
2.1908 -4.0122 -2.5037 0.9794
2.3328 -3.9318 -2.5040 0.9794
2.4719 -3.8463 -2.5042 0.9794
2.6078 -3.7560 -2.5044 0.9794
2.8696 -3.5610 -2.5048 0.9794
2.9951 -3.4565 -2.5050 0.9794
3.3482 -3.1173 -2.5056 0.9794
3.8497 -2.4741 -2.5064 0.9793
3.9358 -2.3352 -2.5065 0.9793
4.0168 -2.1933 -2.5066 0.9793
4.0927 -2.0487 -2.5068 0.9793
4.2288 -1.7516 -2.5070 0.9793
4.3433 -1.4456 -2.5072 0.9793
4.4356 -1.1321 -2.5073 0.9793
4.5053 -0.8129 -2.5074 0.9793
4.5519 -0.4894 -2.5075 0.9793
-4.3187 0.0000 -2.4934 0.9803
-4.2749 -0.6146 -2.4935 0.9802
-4.1849 -1.0681 -2.4936 0.9802
-4.1442 -1.2169 -2.4937 0.9802
-4.0983 -1.3640 -2.4938 0.9802
-3.9908 -1.6530 -2.4939 0.9802
-3.9294 -1.7945 -2.4940 0.9802
-3.6347 -2.3359 -2.4945 0.9802
-2.9454 -3.1636 -2.4956 0.9802
-2.8308 -3.2669 -2.4958 0.9802
-2.7126 -3.3662 -2.4960 0.9802
-2.5909 -3.4611 -2.4961 0.9802
-2.3378 -3.6377 -2.4965 0.9802
-1.9361 -3.8677 -2.4972 0.9802
-1.6555 -3.9967 -2.4976 0.9802
-1.3664 -4.1054 -2.4981 0.9802
-1.2191 -4.1519 -2.4983 0.9802
-1.0703 -4.1932 -2.4986 0.9802
-0.9200 -4.2291 -2.4988 0.9802
-0.7685 -4.2597 -2.4990 0.9802
-0.3089 -4.3187 -2.4998 0.9802
0.1546 -4.3282 -2.5005 0.9802
0.3090 -4.3204 -2.5007 0.9802
0.4631 -4.3070 -2.5010 0.9802
0.6165 -4.2882 -2.5012 0.9802
0.7693 -4.2638 -2.5015 0.9802
0.9211 -4.2341 -2.5017 0.9802
1.0717 -4.1989 -2.5020 0.9802
1.6590 -4.0051 -2.5029 0.9802
1.9408 -3.8773 -2.5033 0.9802
2.0782 -3.8059 -2.5036 0.9802
2.2129 -3.7296 -2.5038 0.9802
2.3448 -3.6485 -2.5040 0.9802
2.7220 -3.3778 -2.5046 0.9802
2.8410 -3.2787 -2.5048 0.9802
2.9565 -3.1755 -2.5050 0.9802
3.0681 -3.0681 -2.5051 0.9802
3.1759 -2.9569 -2.5053 0.9802
3.2796 -2.8418 -2.5055 0.9802
3.4745 -2.6009 -2.5058 0.9802
3.5653 -2.4754 -2.5059 0.9802
3.7332 -2.2150 -2.5062 0.9802
3.8821 -1.9432 -2.5064 0.9801
4.0111 -1.6615 -2.5066 0.9801
4.0680 -1.5173 -2.5067 0.9801
4.1661 -1.2233 -2.5069 0.9801
4.2073 -1.0738 -2.5069 0.9801
4.2430 -0.9230 -2.5070 0.9801
4.2982 -0.6180 -2.5071 0.9801
