ply
format ascii 1.0
element vertex 1369
property float32 x
property float32 y
property float32 z
property float32 I
end_header
16.0272 0.5724 2.8278 0.9369
29.3270 3.1530 5.2009 0.8871
24.5354 5.3373 4.4274 0.9030
22.8233 6.7015 4.1942 0.9079
20.1635 7.5206 3.7946 0.9163
18.8080 8.5893 3.6458 0.9194
18.2950 9.1578 3.6075 0.9203
24.2119 13.2207 4.8642 0.8940
22.6063 13.4129 4.6349 0.8987
15.7273 10.1073 3.2964 0.9269
14.6718 10.1868 3.1495 0.9300
13.4258 11.6335 3.1324 0.9304
17.3618 16.1645 4.1828 0.9081
16.8118 16.8118 4.1923 0.9079
16.0327 17.2203 4.1487 0.9089
10.9327 12.6170 2.9437 0.9344
8.9883 12.9457 2.7789 0.9380
8.3600 14.0901 2.8889 0.9356
7.3411 14.6656 2.8918 0.9356
9.4029 20.5894 3.9911 0.9122
4.9959 15.0102 2.7894 0.9378
3.9306 15.4001 2.8025 0.9375
4.1575 23.0437 4.1288 0.9093
2.5083 35.0709 6.1998 0.8669
0.6279 17.5799 3.1018 0.9310
-0.6290 17.6124 3.1075 0.9309
-1.1897 16.6337 2.9405 0.9345
16.0309 0.5725 2.4574 0.9371
30.7077 2.1963 4.7163 0.8829
28.1484 4.0471 4.3565 0.8913
26.6100 4.8010 4.1423 0.8964
23.8968 6.0993 3.7782 0.9050
23.2293 6.8207 3.7088 0.9067
30.5217 10.1586 4.9279 0.8779
19.7087 7.3510 3.2224 0.9184
18.5519 9.2864 3.1782 0.9195
22.7978 13.5266 4.0610 0.8983
14.6724 10.1872 2.7364 0.9303
14.0270 10.5005 2.6843 0.9315
13.7670 11.0942 2.7086 0.9310
13.5212 11.7162 2.7408 0.9302
17.3625 16.1651 3.6342 0.9085
12.2491 12.2491 2.6538 0.9323
10.9454 12.6317 2.5605 0.9346
9.5041 12.6960 2.4295 0.9378
8.9887 12.9461 2.4144 0.9382
7.3266 14.6366 2.5075 0.9359
5.6425 15.1281 2.4735 0.9368
4.4483 15.1496 2.4188 0.9381
3.9308 15.4007 2.4349 0.9377
3.4978 16.0793 2.5209 0.9356
4.2180 23.3787 3.6393 0.9083
3.3638 23.3958 3.6210 0.9088
2.5263 35.3217 5.4249 0.8665
-2.0274 18.8575 2.9055 0.9261
-1.4729 8.1637 1.2708 0.9670
-5.1630 20.2287 3.1983 0.9190
-5.9250 20.1788 3.2218 0.9184
15.8749 -0.0000 2.0672 0.9380
16.0346 0.5727 2.0894 0.9373
31.8276 2.2764 4.1552 0.8792
24.6242 5.3567 3.2816 0.9033
24.0019 6.1261 3.2257 0.9049
32.0571 9.4128 4.3507 0.8739
19.7023 7.3486 2.7383 0.9187
19.2413 7.9700 2.7121 0.9194
17.6402 9.6323 2.6173 0.9221
22.7988 13.5271 3.4521 0.8986
13.1487 11.3934 2.2656 0.9322
17.3632 16.1657 3.0893 0.9087
16.8191 16.8191 3.0974 0.9085
16.3082 17.5163 3.1165 0.9080
8.9890 12.9466 2.0524 0.9384
8.5868 13.3613 2.0682 0.9379
11.0443 20.2262 3.0010 0.9112
10.3643 20.7052 3.0152 0.9108
6.4088 15.4723 2.1808 0.9347
5.5344 14.8382 2.0623 0.9381
4.4485 15.1501 2.0561 0.9383
3.9309 15.4012 2.0699 0.9379
3.4489 15.8546 2.1129 0.9366
2.9055 16.1044 2.1310 0.9361
2.5128 23.3726 3.0611 0.9095
1.2792 17.8849 2.3349 0.9302
0.6140 17.1903 2.2400 0.9330
0.0000 17.4763 2.2758 0.9319
-0.6291 17.6138 2.2951 0.9314
-1.2223 8.5012 1.1184 0.9659
-1.4735 8.1671 1.0807 0.9671
-1.7679 8.1271 1.0831 0.9670
-5.1721 20.2643 2.7234 0.9191
-5.9253 20.1797 2.7388 0.9187
16.0383 0.5728 1.7233 0.9375
29.9910 2.1451 3.2287 0.8861
29.4314 3.1642 3.1786 0.8877
37.5106 6.7677 4.0930 0.8578
24.6256 5.3570 2.7062 0.9036
24.0306 6.1334 2.6632 0.9050
32.0690 9.4163 3.5890 0.8742
31.2725 10.4085 3.5392 0.8758
19.2422 7.9704 2.2365 0.9196
18.6007 8.4947 2.1958 0.9210
24.9528 13.6252 3.0529 0.8919
16.2363 9.6334 2.0273 0.9269
15.5422 9.9884 1.9839 0.9284
14.6736 10.1880 1.9182 0.9307
14.0281 10.5013 1.8817 0.9319
13.6469 10.9974 1.8820 0.9319
10.7466 12.4022 1.7622 0.9361
10.0274 12.4432 1.7160 0.9377
9.5048 12.6969 1.7031 0.9382
8.1127 13.6732 1.7072 0.9380
11.1090 20.3446 2.4891 0.9110
10.3646 20.7059 2.4864 0.9111
9.6209 21.0668 2.4869 0.9110
8.6981 20.9991 2.4407 0.9126
5.5642 14.9183 1.7098 0.9380
4.9961 15.0109 1.6988 0.9383
3.9311 15.4018 1.7069 0.9381
3.4674 15.9395 1.7516 0.9365
2.9212 16.1913 1.7667 0.9360
2.5129 23.3735 2.5243 0.9098
1.2984 18.1537 1.9544 0.9294
0.6184 17.3141 1.8604 0.9327
0.0000 17.6296 1.8931 0.9315
-0.6291 17.6145 1.8927 0.9315
-1.9878 18.4890 1.9968 0.9279
-1.7687 8.1305 0.8935 0.9671
-13.3273 14.3146 2.1002 0.9243
15.8878 -0.0000 1.3449 0.9382
29.4313 3.1642 2.5058 0.8880
23.6583 6.0384 2.0669 0.9066
19.7060 7.3499 1.7804 0.9190
23.9913 13.1002 2.3140 0.8961
14.6742 10.1884 1.5123 0.9308
17.3644 16.1669 2.0084 0.9092
15.9710 17.1541 1.9841 0.9102
11.0212 20.1837 1.9467 0.9118
5.5641 14.9178 1.3478 0.9381
4.9962 15.0111 1.3392 0.9385
4.4488 15.1512 1.3367 0.9386
0.6184 17.3135 1.4666 0.9328
0.0000 17.6289 1.4923 0.9317
-1.4747 8.1740 0.7031 0.9672
-1.7694 8.1339 0.7047 0.9671
26.4526 4.7726 1.6668 0.8979
24.6284 5.3576 1.5629 0.9039
23.7888 6.0717 1.5224 0.9063
23.8535 7.0040 1.5416 0.9052
31.0272 10.3268 2.0278 0.8772
18.7022 8.5410 1.2749 0.9209
24.1393 13.1811 1.7055 0.8956
14.6748 10.1888 1.1078 0.9309
14.0292 10.5022 1.0867 0.9322
13.4055 11.6159 1.0999 0.9314
17.3651 16.1675 1.4713 0.9093
16.7715 16.7715 1.4708 0.9093
16.2117 17.4126 1.4753 0.9091
10.7459 12.4014 1.0175 0.9364
9.5054 12.6977 0.9836 0.9384
9.6519 21.1348 1.4408 0.9111
8.5873 20.7315 1.3915 0.9140
4.9963 15.0114 0.9811 0.9386
4.4489 15.1517 0.9792 0.9387
3.9313 15.4029 0.9858 0.9383
3.4672 15.9384 1.0115 0.9367
2.9210 16.1902 1.0202 0.9362
3.3468 23.2774 1.4583 0.9101
2.5131 23.3752 1.4579 0.9101
0.6183 17.3128 1.0743 0.9329
0.0000 17.6282 1.0931 0.9318
-0.6292 17.6159 1.0931 0.9318
-1.9982 18.5862 1.1592 0.9278
-1.2205 8.4885 0.5318 0.9662
-1.7701 8.1372 0.5164 0.9672
-5.9261 20.1825 1.3044 0.9192
-6.7779 9.0542 0.7013 0.9557
-35.1085 24.3763 2.6503 0.8426
-38.5447 17.6028 2.6276 0.8438
15.9005 -0.0000 0.6270 0.9383
29.4312 3.1642 1.1672 0.8883
28.8167 4.1432 1.1480 0.8900
26.4511 4.7723 1.0598 0.8980
24.6297 5.3579 0.9939 0.9040
23.7875 6.0714 0.9680 0.9064
31.5585 10.5037 1.3115 0.8753
20.1693 7.5228 0.8488 0.9174
19.2448 7.9715 0.8214 0.9200
22.8026 13.5294 1.0455 0.8993
15.6231 10.0404 0.7323 0.9284
14.6753 10.1893 0.7045 0.9310
14.0298 10.5026 0.6910 0.9322
13.4068 11.6171 0.6995 0.9314
17.3657 16.1681 0.9356 0.9094
16.7709 16.7709 0.9352 0.9094
16.2139 17.4150 0.9382 0.9091
10.0284 12.4445 0.6302 0.9380
8.9902 12.9484 0.6216 0.9388
8.6322 13.4319 0.6296 0.9381
11.0219 20.1851 0.9068 0.9120
9.6523 21.1355 0.9162 0.9112
8.5870 20.7308 0.8848 0.9141
4.9963 15.0116 0.6238 0.9386
4.4491 15.1522 0.6227 0.9387
3.9315 15.4034 0.6268 0.9383
2.5132 23.3761 0.9271 0.9102
0.6183 17.3122 0.6831 0.9330
0.0000 17.6276 0.6951 0.9319
-0.6292 17.6166 0.6951 0.9319
-1.9981 18.5854 0.7371 0.9279
-1.2199 8.4843 0.3380 0.9663
-1.4760 8.1807 0.3278 0.9673
-5.1322 20.1078 0.8183 0.9203
-6.7761 9.0519 0.4459 0.9557
-35.1062 24.3747 1.6852 0.8427
15.9069 -0.0000 0.2687 0.9383
16.0529 0.5733 0.2713 0.9378
29.4311 3.1642 0.5000 0.8883
26.4496 4.7720 0.4540 0.8981
24.6311 5.3582 0.4258 0.9041
23.7863 6.0711 0.4147 0.9065
20.1703 7.5231 0.3636 0.9175
19.2457 7.9718 0.3519 0.9200
18.7006 8.5403 0.3473 0.9210
22.8035 13.5299 0.4479 0.8994
15.6225 10.0400 0.3137 0.9284
14.6759 10.1897 0.3018 0.9310
14.0303 10.5030 0.2960 0.9323
13.6448 10.9957 0.2960 0.9323
16.7703 16.7703 0.4006 0.9095
16.2162 17.4174 0.4020 0.9092
10.7451 12.4005 0.2772 0.9365
10.0288 12.4450 0.2700 0.9381
9.5061 12.6986 0.2679 0.9385
8.9905 12.9488 0.2663 0.9389
8.6319 13.4315 0.2697 0.9381
8.1116 13.6713 0.2685 0.9384
11.0223 20.1858 0.3885 0.9121
10.3988 20.7741 0.3924 0.9112
8.5867 20.7301 0.3790 0.9141
4.9964 15.0119 0.2673 0.9387
4.4492 15.1527 0.2668 0.9388
3.9316 15.4039 0.2685 0.9384
3.3466 23.2758 0.3972 0.9102
1.3014 18.1965 0.3082 0.9296
-1.2824 17.9306 0.3037 0.9306
-1.2193 8.4801 0.1447 0.9663
-1.4766 8.1841 0.1405 0.9673
-41.1000 1.4679 0.6947 0.8483
29.4310 3.1642 -0.1667 0.8883
28.8191 4.1436 -0.1639 0.8901
24.6325 5.3584 -0.1420 0.9041
23.7850 6.0707 -0.1382 0.9065
23.8569 7.0050 -0.1400 0.9053
31.5616 10.5047 -0.1873 0.8754
20.1712 7.5235 -0.1212 0.9175
19.2466 7.9722 -0.1173 0.9200
18.6524 9.3367 -0.1174 0.9199
22.8044 13.5305 -0.1493 0.8994
14.6765 10.1901 -0.1006 0.9310
14.0309 10.5034 -0.0987 0.9323
13.4094 11.6193 -0.0999 0.9315
17.3670 16.1693 -0.1336 0.9094
16.2184 17.4198 -0.1340 0.9092
10.7447 12.4001 -0.0924 0.9365
10.0291 12.4454 -0.0900 0.9381
8.9908 12.9493 -0.0888 0.9389
8.6316 13.4310 -0.0899 0.9381
8.1113 13.6708 -0.0895 0.9384
11.0227 20.1865 -0.1295 0.9121
4.9965 15.0121 -0.0891 0.9387
4.4494 15.1533 -0.0889 0.9388
3.4668 15.9368 -0.0918 0.9368
2.9207 16.1885 -0.0926 0.9363
0.0000 17.6262 -0.0992 0.9319
-1.2825 17.9313 -0.1012 0.9306
-1.9980 18.5840 -0.1052 0.9280
-1.7723 8.1473 -0.0469 0.9672
-5.1317 20.1060 -0.1168 0.9203
-6.7726 9.0472 -0.0636 0.9558
-41.0699 1.4668 -0.2314 0.8484
16.0601 0.5736 -0.4525 0.9377
31.6168 2.2613 -0.8926 0.8809
29.4310 3.1642 -0.8335 0.8883
31.5632 10.5052 -0.9367 0.8754
20.1722 7.5238 -0.6062 0.9175
19.2475 7.9726 -0.5866 0.9200
24.1353 13.1789 -0.7743 0.8958
22.8054 13.5310 -0.7467 0.8993
15.6213 10.0392 -0.5229 0.9284
14.0314 10.5038 -0.4935 0.9323
13.6438 10.9949 -0.4934 0.9323
17.3676 16.1698 -0.6682 0.9094
16.7691 16.7691 -0.6678 0.9095
16.2208 17.4224 -0.6703 0.9091
10.7444 12.3996 -0.4620 0.9365
8.9912 12.9497 -0.4439 0.9389
8.6313 13.4306 -0.4495 0.9381
11.0231 20.1872 -0.6477 0.9121
9.6533 21.1377 -0.6543 0.9112
8.5861 20.7287 -0.6318 0.9141
5.5631 14.9153 -0.4482 0.9383
4.9966 15.0123 -0.4455 0.9386
4.4495 15.1538 -0.4447 0.9388
3.9319 15.4050 -0.4477 0.9384
3.4667 15.9362 -0.4592 0.9368
3.3463 23.2741 -0.6621 0.9102
1.3017 18.2004 -0.5138 0.9296
0.6182 17.3102 -0.4877 0.9330
0.0000 17.6256 -0.4963 0.9319
-0.6292 17.6186 -0.4964 0.9319
-1.2825 17.9320 -0.5062 0.9306
-1.9979 18.5832 -0.5263 0.9279
-5.1315 20.1051 -0.5843 0.9203
-5.9272 20.1863 -0.5924 0.9193
-12.8826 13.8369 -0.5323 0.9271
-35.1050 24.3739 -1.2034 0.8428
16.0638 0.5737 -0.8152 0.9376
29.4309 3.1642 -1.5012 0.8882
24.6352 5.3590 -1.2786 0.9040
23.7824 6.0701 -1.2448 0.9064
31.5647 10.5057 -1.6871 0.8753
18.6981 8.5391 -1.0425 0.9210
22.8063 13.5316 -1.3449 0.8992
15.6207 10.0388 -0.9417 0.9283
14.6776 10.1909 -0.9062 0.9309
13.6433 10.9945 -0.8886 0.9322
13.4121 11.6216 -0.9000 0.9314
17.3683 16.1704 -1.2035 0.9093
16.7685 16.7685 -1.2026 0.9094
10.7440 12.3992 -0.8320 0.9364
10.0298 12.4463 -0.8106 0.9380
8.9915 12.9502 -0.7995 0.9388
8.6310 13.4301 -0.8096 0.9381
9.6536 21.1384 -1.1785 0.9111
8.5858 20.7280 -1.1378 0.9141
4.9967 15.0126 -0.8024 0.9386
4.4497 15.1543 -0.8010 0.9387
3.9320 15.4056 -0.8063 0.9383
3.4666 15.9357 -0.8271 0.9368
3.3462 23.2733 -1.1924 0.9101
1.3019 18.2023 -0.9255 0.9295
0.6182 17.3095 -0.8784 0.9330
0.0000 17.6249 -0.8938 0.9318
-0.6293 17.6193 -0.8941 0.9318
-1.9978 18.5825 -0.9478 0.9279
-1.4784 8.1943 -0.4223 0.9672
-1.7738 8.1541 -0.4232 0.9671
-5.1313 20.1042 -1.0523 0.9203
-15.2343 45.7719 -2.4465 0.8243
-16.8701 45.2306 -2.4482 0.8242
-18.4872 44.6322 -2.4500 0.8241
-11.3035 22.5815 -1.2807 0.9038
-24.1602 40.7200 -2.4012 0.8273
-29.9401 34.5527 -2.3186 0.8327
-12.8827 13.8370 -0.9588 0.9271
-32.3912 32.3912 -2.3231 0.8324
-34.6883 30.0576 -2.3277 0.8321
-35.7753 28.8296 -2.3301 0.8319
-38.7724 24.9175 -2.3374 0.8314
-44.0230 22.0364 -2.4967 0.8210
-44.8294 20.4729 -2.4993 0.8209
-45.5803 18.8800 -2.5020 0.8207
-46.2747 17.2596 -2.5047 0.8205
-46.9116 15.6137 -2.5074 0.8204
-46.4624 4.9952 -2.3699 0.8293
-46.6593 3.3371 -2.3723 0.8291
-39.8029 1.4216 -2.0199 0.8526
15.9325 -0.0000 -1.1682 0.9381
31.5051 2.2533 -2.3159 0.8810
28.7512 4.1338 -2.1298 0.8900
24.6366 5.3593 -1.8487 0.9038
23.6944 6.0476 -1.7930 0.9066
23.7886 6.9850 -1.8179 0.9053
18.6972 8.5387 -1.5071 0.9209
14.0325 10.5046 -1.2852 0.9321
13.4135 11.6229 -1.3014 0.9313
17.3689 16.1710 -1.7400 0.9092
16.0693 17.2596 -1.7291 0.9098
10.0302 12.4467 -1.1721 0.9379
9.5074 12.7004 -1.1632 0.9384
10.4002 20.7769 -1.7036 0.9110
9.6539 21.1391 -1.7039 0.9110
8.5639 20.6751 -1.6408 0.9142
4.9967 15.0128 -1.1601 0.9385
4.4499 15.1548 -1.1581 0.9386
3.9322 15.4061 -1.1658 0.9382
2.9204 16.1868 -1.2060 0.9362
3.3376 23.2132 -1.7195 0.9102
1.3020 18.2043 -1.3382 0.9294
-1.2826 17.9335 -1.3183 0.9304
-1.9977 18.5818 -1.3703 0.9278
-1.2169 8.4634 -0.6269 0.9663
-1.4790 8.1977 -0.6108 0.9671
-5.1310 20.1033 -1.5213 0.9202
-5.9278 20.1882 -1.5427 0.9191
-12.8695 31.0698 -2.4658 0.8738
-13.9776 30.6068 -2.4671 0.8738
-16.1433 29.5643 -2.4698 0.8736
-17.1982 28.9860 -2.4713 0.8736
-19.2454 27.7186 -2.4742 0.8734
-6.7674 9.0402 -0.8280 0.9557
-22.1404 25.5514 -2.4790 0.8732
-23.0535 24.7613 -2.4806 0.8731
-24.7949 23.0849 -2.4840 0.8730
-26.4155 21.2870 -2.4875 0.8728
-27.1779 20.3451 -2.4892 0.8727
-29.8834 16.3176 -2.4965 0.8724
-31.0171 14.1650 -2.5002 0.8722
-31.5262 13.0586 -2.5020 0.8721
-31.9960 11.9339 -2.5039 0.8720
-32.4256 10.7922 -2.5057 0.8719
-32.8144 9.6352 -2.5076 0.8718
-33.1619 8.4641 -2.5094 0.8717
-33.7306 6.0857 -2.5131 0.8716
-34.1281 3.6691 -2.5168 0.8714
16.0711 0.5740 -1.5439 0.9374
24.1524 2.5967 -2.3321 0.9070
24.0326 3.4554 -2.3310 0.9070
23.7024 5.1561 -2.3288 0.9071
20.1751 7.5249 -2.0673 0.9171
19.2501 7.9737 -2.0004 0.9197
18.6284 8.5073 -1.9661 0.9210
18.5752 9.2981 -1.9943 0.9199
21.2201 11.5871 -2.3212 0.9074
14.6788 10.1917 -1.7156 0.9307
14.0330 10.5050 -1.6829 0.9320
13.5926 10.9536 -1.6759 0.9323
13.2904 11.5162 -1.6883 0.9318
16.7234 16.7234 -2.2706 0.9093
10.7432 12.3983 -1.5750 0.9362
10.0306 12.4472 -1.5347 0.9378
8.1102 13.6689 -1.5259 0.9381
10.4006 20.7777 -2.2307 0.9109
6.5285 15.7612 -1.6378 0.9337
5.5625 14.9137 -1.5281 0.9380
4.4500 15.1554 -1.5164 0.9385
3.9323 15.4066 -1.5265 0.9381
3.4663 15.9346 -1.5656 0.9366
3.3374 23.2123 -2.2514 0.9101
2.5137 23.3812 -2.2577 0.9098
1.2923 18.0693 -1.7392 0.9298
0.0000 17.5577 -1.6856 0.9319
-1.2827 17.9342 -1.7262 0.9303
-1.2163 8.4592 -0.8205 0.9662
-1.4796 8.2011 -0.8001 0.9671
-7.6380 22.9484 -2.3220 0.9074
-8.4553 22.6696 -2.3229 0.9074
-9.2627 22.3621 -2.3238 0.9073
-10.0590 22.0262 -2.3247 0.9073
-10.8433 21.6621 -2.3257 0.9072
-11.6145 21.2704 -2.3267 0.9072
-14.7370 21.2254 -2.4807 0.9014
-16.9463 19.5571 -2.4844 0.9012
-18.3170 18.3171 -2.4869 0.9011
-18.9691 17.6609 -2.4882 0.9011
-20.2022 16.2800 -2.4909 0.9010
-20.7817 15.5570 -2.4922 0.9009
-23.6930 10.8202 -2.5006 0.9006
-24.0777 9.9733 -2.5020 0.9006
-24.4321 9.1127 -2.5034 0.9005
-24.7559 8.2395 -2.5049 0.9005
-25.0483 7.3549 -2.5063 0.9004
-25.3092 6.4598 -2.5077 0.9004
-26.1902 0.9354 -2.5160 0.9000
15.4741 1.1067 -1.8428 0.9394
15.7168 1.6898 -1.8777 0.9383
19.4535 2.7970 -2.3346 0.9239
19.3338 3.4882 -2.3337 0.9239
19.1897 4.1744 -2.3328 0.9239
18.8293 5.5288 -2.3311 0.9240
18.3743 6.8533 -2.3295 0.9240
17.8271 8.1414 -2.3280 0.9241
15.5624 10.0013 -2.1974 0.9282
14.6794 10.1921 -2.1228 0.9305
14.0336 10.5054 -2.0824 0.9318
13.5921 10.9532 -2.0736 0.9321
14.3115 13.3244 -2.3227 0.9243
13.8243 13.8243 -2.3223 0.9243
10.7045 12.3537 -1.9417 0.9363
9.5081 12.7013 -1.8847 0.9381
8.9924 12.9515 -1.8729 0.9385
8.5986 13.3797 -1.8892 0.9379
8.0814 13.6205 -1.8813 0.9382
8.1138 17.7667 -2.3201 0.9243
5.5423 14.8595 -1.8839 0.9381
4.9969 15.0133 -1.8795 0.9383
4.4502 15.1559 -1.8763 0.9384
3.9324 15.4072 -1.8888 0.9380
3.4537 15.8763 -1.9300 0.9366
2.9101 16.1294 -1.9469 0.9361
2.7807 19.3404 -2.3210 0.9243
1.2925 18.0711 -2.1521 0.9296
-5.5181 18.7931 -2.3266 0.9241
-6.8488 18.3624 -2.3280 0.9241
-8.1466 17.8385 -2.3295 0.9240
-9.4049 17.2237 -2.3311 0.9240
-10.6173 16.5209 -2.3328 0.9239
-11.2045 16.1375 -2.3337 0.9239
-12.3368 15.3090 -2.3355 0.9239
-12.8540 13.8062 -2.2407 0.9268
-15.3474 14.2889 -2.4909 0.9190
-16.3418 13.1690 -2.4930 0.9189
-16.8088 12.5829 -2.4941 0.9189
-17.2549 11.9802 -2.4952 0.9189
-17.6794 11.3619 -2.4963 0.9188
-18.4616 10.0808 -2.4986 0.9188
-18.8182 9.4197 -2.4997 0.9187
-19.1512 8.7460 -2.5009 0.9187
-19.4600 8.0606 -2.5020 0.9187
-19.7444 7.3643 -2.5032 0.9186
-20.7854 3.7501 -2.5089 0.9184
-20.9153 3.0072 -2.5100 0.9184
-21.0187 2.2597 -2.5111 0.9184
-21.0952 1.5087 -2.5122 0.9183
-21.1448 0.7552 -2.5133 0.9183
14.9724 -0.0000 -2.1214 0.9413
15.2188 0.5435 -2.1577 0.9403
8.6186 1.5550 -1.2409 0.9652
15.9664 4.0752 -2.3348 0.9356
15.4258 5.7535 -2.3328 0.9357
14.9680 6.8356 -2.3315 0.9357
14.7107 7.3637 -2.3309 0.9357
14.1412 8.3903 -2.3298 0.9357
13.8297 8.8881 -2.3293 0.9357
13.5006 9.3734 -2.3288 0.9358
13.1549 9.8476 -2.3283 0.9358
12.4143 10.7571 -2.3275 0.9358
11.6116 11.6116 -2.3267 0.9358
10.7041 12.3532 -2.3160 0.9361
10.0313 12.4480 -2.2652 0.9375
8.9927 12.9520 -2.2341 0.9383
8.5983 13.3793 -2.2534 0.9378
8.0811 13.6200 -2.2439 0.9380
7.8640 14.4018 -2.3250 0.9359
6.8162 14.9254 -2.3249 0.9359
3.9326 15.4077 -2.2531 0.9378
1.7547 16.3210 -2.3258 0.9358
1.1712 16.3751 -2.3261 0.9358
0.5860 16.4086 -2.3264 0.9358
-1.1718 16.3846 -2.3275 0.9358
-1.7562 16.3353 -2.3279 0.9358
-1.2150 8.4508 -1.2097 0.9661
-4.6336 15.7805 -2.3303 0.9357
-5.7504 15.4175 -2.3315 0.9357
-6.2987 15.2064 -2.3321 0.9357
-7.3716 14.7265 -2.3334 0.9356
-7.8948 14.4583 -2.3341 0.9356
-8.9116 13.8667 -2.3355 0.9356
-6.7645 9.0363 -1.5994 0.9554
-10.3529 12.8471 -2.3378 0.9355
-10.8085 12.4736 -2.3386 0.9355
-11.2507 12.0841 -2.3394 0.9355
-12.8758 11.9879 -2.4927 0.9314
-13.3003 11.5248 -2.4936 0.9314
-14.0989 10.5543 -2.4954 0.9313
-14.4721 10.0481 -2.4963 0.9313
-15.1634 8.9969 -2.4982 0.9312
-15.4808 8.4532 -2.4992 0.9312
-16.0567 7.3328 -2.5011 0.9312
-16.3144 6.7577 -2.5020 0.9311
-17.2881 3.7608 -2.5068 0.9310
-17.4178 3.1425 -2.5078 0.9310
-17.5255 2.5198 -2.5087 0.9310
-17.6108 1.8934 -2.5096 0.9309
14.2137 -0.0000 -2.3416 0.9440
14.1690 1.0134 -2.3402 0.9440
14.0525 2.0204 -2.3388 0.9441
13.8649 3.0161 -2.3375 0.9441
13.7448 3.5081 -2.3369 0.9441
13.6073 3.9955 -2.3363 0.9441
13.4526 4.4775 -2.3357 0.9441
12.8878 5.8856 -2.3340 0.9442
12.6667 6.3405 -2.3335 0.9442
12.1771 7.2250 -2.3326 0.9442
11.9092 7.6536 -2.3321 0.9442
11.6263 8.0723 -2.3317 0.9442
11.0171 8.8782 -2.3309 0.9443
10.6916 9.2643 -2.3306 0.9443
10.3527 9.6387 -2.3302 0.9443
10.0007 10.0007 -2.3299 0.9443
9.2597 10.6862 -2.3294 0.9443
8.8715 11.0089 -2.3292 0.9443
8.4722 11.3175 -2.3290 0.9443
8.0622 11.6118 -2.3288 0.9443
7.2125 12.1560 -2.3285 0.9443
6.7737 12.4051 -2.3284 0.9443
6.3264 12.6386 -2.3284 0.9443
5.8712 12.8562 -2.3283 0.9443
4.9391 13.2423 -2.3283 0.9443
4.4634 13.4103 -2.3284 0.9443
3.9820 13.5615 -2.3284 0.9443
3.0047 13.8123 -2.3286 0.9443
2.5099 13.9116 -2.3288 0.9443
2.0120 13.9934 -2.3290 0.9443
1.5113 14.0575 -2.3292 0.9443
0.0000 14.1432 -2.3299 0.9443
-0.5049 14.1360 -2.3302 0.9443
-1.4815 8.2114 -1.3746 0.9667
-1.7775 8.1712 -1.3776 0.9667
-4.4733 13.4401 -2.3335 0.9442
-4.9512 13.2748 -2.3340 0.9442
-5.4231 13.0926 -2.3346 0.9442
-6.7965 12.4470 -2.3363 0.9441
-7.2384 12.1996 -2.3369 0.9441
-6.6748 8.9164 -1.8349 0.9559
-9.3024 10.7355 -2.3401 0.9440
-10.0506 10.0506 -2.3415 0.9440
-11.0742 10.3105 -2.4927 0.9405
-11.4448 9.9170 -2.4947 0.9405
-12.1308 9.0810 -2.4963 0.9404
-12.7559 8.1977 -2.4979 0.9404
-13.0446 7.7397 -2.4987 0.9404
-13.5724 6.7939 -2.5004 0.9403
-13.8108 6.3072 -2.5012 0.9403
-14.8652 3.2337 -2.5062 0.9402
-14.9760 2.7020 -2.5070 0.9402
-15.1403 1.6277 -2.5086 0.9401
-15.1936 1.0867 -2.5094 0.9401
12.4631 -0.0000 -2.3426 0.9505
12.3820 1.3312 -2.3408 0.9506
12.3235 1.7719 -2.3402 0.9506
8.6207 1.5554 -1.6465 0.9650
12.0549 3.0768 -2.3385 0.9506
11.9347 3.5043 -2.3380 0.9506
11.3049 5.1628 -2.3360 0.9507
10.9037 5.9539 -2.3351 0.9507
10.1997 7.0817 -2.3339 0.9507
9.9389 7.4401 -2.3336 0.9507
9.6656 7.7891 -2.3332 0.9507
9.0830 8.4566 -2.3326 0.9507
8.4547 9.0810 -2.3321 0.9508
8.1244 9.3761 -2.3319 0.9508
5.9435 10.8848 -2.3311 0.9508
5.1517 11.2806 -2.3310 0.9508
4.3338 11.6194 -2.3310 0.9508
3.9164 11.7668 -2.3310 0.9508
3.4940 11.8994 -2.3311 0.9508
3.0672 12.0170 -2.3311 0.9508
1.3261 12.3342 -2.3317 0.9508
-0.4429 12.4023 -2.3326 0.9507
-0.8854 12.3801 -2.3329 0.9507
-1.3269 12.3423 -2.3332 0.9507
-1.4821 8.2149 -1.5690 0.9666
-1.7783 8.1747 -1.5725 0.9665
-4.3431 11.6444 -2.3360 0.9507
-4.7569 11.4843 -2.3364 0.9507
-5.1649 11.3095 -2.3369 0.9507
-6.3484 10.6997 -2.3385 0.9506
-6.7278 10.4687 -2.3390 0.9506
-6.6522 8.8863 -2.0864 0.9558
-7.8141 9.6967 -2.3407 0.9506
-8.5695 9.2043 -2.3638 0.9501
-10.0345 8.6949 -2.4956 0.9474
-10.3413 8.3335 -2.4963 0.9474
-10.6351 7.9613 -2.4970 0.9474
-10.9155 7.5788 -2.4977 0.9474
-11.1822 7.1864 -2.4984 0.9473
-12.7833 3.7535 -2.5042 0.9472
-12.9129 3.2958 -2.5049 0.9472
-13.1226 2.3676 -2.5064 0.9472
-13.3116 0.9521 -2.5085 0.9471
-13.3408 0.4765 -2.5091 0.9471
11.0861 -0.0000 -2.3434 0.9557
11.0527 0.7905 -2.3423 0.9557
11.0149 1.1842 -2.3418 0.9557
10.9632 1.5763 -2.3412 0.9557
10.8182 2.3533 -2.3402 0.9557
10.6184 3.1178 -2.3393 0.9558
10.4982 3.4941 -2.3388 0.9558
10.0590 4.5938 -2.3375 0.9558
9.8870 4.9491 -2.3371 0.9558
9.5057 5.6400 -2.3364 0.9558
9.2969 5.9748 -2.3360 0.9558
9.0764 6.3019 -2.3357 0.9558
8.6015 6.9315 -2.3351 0.9558
8.3476 7.2332 -2.3348 0.9558
8.0832 7.5258 -2.3345 0.9559
5.6323 9.4928 -2.3332 0.9559
5.2897 9.6874 -2.3331 0.9559
4.5850 10.0397 -2.3330 0.9559
4.2237 10.1970 -2.3330 0.9559
3.8571 10.3413 -2.3330 0.9559
2.7297 10.6950 -2.3332 0.9559
1.5711 10.9272 -2.3335 0.9559
1.1802 10.9770 -2.3337 0.9559
0.7877 11.0130 -2.3339 0.9559
0.3941 11.0351 -2.3341 0.9559
-1.1808 10.9835 -2.3351 0.9558
-1.2132 8.4380 -1.8020 0.9657
-1.4828 8.2185 -1.7653 0.9664
-1.7791 8.1783 -1.7692 0.9664
-3.1144 10.6068 -2.3367 0.9558
-2.5766 7.7412 -1.7246 0.9672
-2.9555 7.9240 -1.7877 0.9660
-4.2326 10.2184 -2.3379 0.9558
-4.5955 10.0626 -2.3384 0.9558
-4.9526 9.8941 -2.3388 0.9558
-5.3037 9.7129 -2.3393 0.9558
-5.9855 9.3136 -2.3402 0.9557
-6.3155 9.0960 -2.3407 0.9557
-6.6299 8.8565 -2.3385 0.9558
-7.5428 8.7048 -2.4347 0.9540
-8.0319 8.6268 -2.4915 0.9530
-8.9253 7.7338 -2.4964 0.9529
-9.1979 7.4121 -2.4970 0.9529
-9.4589 7.0808 -2.4976 0.9528
-9.9449 6.3912 -2.4988 0.9528
-10.1693 6.0337 -2.4995 0.9528
-10.3808 5.6684 -2.5001 0.9528
-10.7643 4.9159 -2.5014 0.9528
-10.9357 4.5297 -2.5020 0.9528
-11.2367 3.7399 -2.5033 0.9527
-11.3660 3.3374 -2.5040 0.9527
-11.8335 0.8463 -2.5077 0.9527
-11.8590 0.4235 -2.5084 0.9526
10.1366 0.3620 -2.3839 0.9592
9.9440 0.7112 -2.3430 0.9599
9.6503 2.4631 -2.3407 0.9599
9.1951 3.8087 -2.3391 0.9599
9.0519 4.1338 -2.3387 0.9599
8.8972 4.4536 -2.3384 0.9599
8.7313 4.7676 -2.3380 0.9599
8.1683 5.6713 -2.3371 0.9600
7.9597 5.9586 -2.3368 0.9600
7.7411 6.2382 -2.3365 0.9600
7.2748 6.7731 -2.3361 0.9600
6.5075 7.5100 -2.3355 0.9600
6.2349 7.7370 -2.3353 0.9600
5.9544 7.9541 -2.3352 0.9600
5.3712 8.3578 -2.3349 0.9600
4.7610 8.7191 -2.3348 0.9600
4.4467 8.8833 -2.3347 0.9600
3.8016 9.1778 -2.3347 0.9600
3.4716 9.3076 -2.3347 0.9600
2.1118 9.7079 -2.3349 0.9600
1.7641 9.7775 -2.3350 0.9600
1.0622 9.8796 -2.3353 0.9600
-0.3099 8.6773 -2.0407 0.9650
-0.5712 7.9870 -1.8819 0.9676
-1.2126 8.4337 -2.0025 0.9656
-1.3026 7.2199 -1.7242 0.9703
-1.6034 7.3706 -1.7728 0.9695
-1.9137 7.4977 -1.8186 0.9687
-2.5873 7.7735 -1.9255 0.9669
-2.9556 7.9243 -1.9877 0.9658
-3.8087 9.1951 -2.3391 0.9599
-4.1352 9.0548 -2.3395 0.9599
-4.4565 8.9030 -2.3399 0.9599
-4.7723 8.7398 -2.3403 0.9599
-5.0821 8.5654 -2.3407 0.9599
-5.3856 8.3801 -2.3412 0.9599
-5.9802 7.9886 -2.3453 0.9598
-7.2348 7.7708 -2.4953 0.9573
-7.5092 7.5092 -2.4958 0.9573
-7.7741 7.2379 -2.4964 0.9573
-8.0292 6.9574 -2.4969 0.9573
-8.9456 5.7490 -2.4992 0.9572
-9.1472 5.4273 -2.4997 0.9572
-9.3372 5.0985 -2.5003 0.9572
-9.5155 4.7631 -2.5009 0.9572
-9.8356 4.0740 -2.5020 0.9572
-10.3248 2.6352 -2.5043 0.9572
-10.4146 2.2656 -2.5049 0.9572
-10.5545 1.5175 -2.5061 0.9571
-10.6043 1.1401 -2.5066 0.9571
-10.6633 0.3808 -2.5077 0.9571
9.6418 -0.0000 -2.4964 0.9609
9.6187 0.3435 -2.4920 0.9610
9.4442 0.6755 -2.4515 0.9616
8.9564 1.2877 -2.3428 0.9633
8.6236 1.5559 -2.2689 0.9644
8.8386 1.9227 -2.3420 0.9633
8.6760 2.5475 -2.3412 0.9633
8.4694 3.1589 -2.3405 0.9633
8.2201 3.7540 -2.3398 0.9633
8.0797 4.0444 -2.3394 0.9634
7.7686 4.6093 -2.3388 0.9634
7.5982 4.8831 -2.3385 0.9634
7.4182 5.1505 -2.3383 0.9634
6.3827 6.3827 -2.3371 0.9634
6.1504 6.6060 -2.3370 0.9634
5.1464 7.4123 -2.3364 0.9634
4.8784 7.5909 -2.3363 0.9634
4.6042 7.7600 -2.3362 0.9634
4.3242 7.9191 -2.3362 0.9634
4.0387 8.0683 -2.3361 0.9634
3.4528 8.3357 -2.3361 0.9634
2.8494 8.5609 -2.3361 0.9634
2.5420 8.6573 -2.3362 0.9634
2.2315 8.7428 -2.3362 0.9634
0.9647 8.9729 -2.3366 0.9634
-0.3005 8.4144 -2.1800 0.9658
-0.5744 8.0311 -2.0847 0.9673
-1.0258 7.1344 -1.8662 0.9707
-1.6034 7.3709 -1.9531 0.9693
-1.9138 7.4980 -2.0036 0.9685
-2.2410 7.6320 -2.0595 0.9677
-2.9340 7.8663 -2.1738 0.9659
-3.2858 7.9326 -2.2231 0.9651
-4.0468 8.0845 -2.3408 0.9633
-4.6147 7.7777 -2.3416 0.9633
-4.8902 7.6093 -2.3420 0.9633
-6.0460 7.5026 -2.4948 0.9610
-6.3116 7.2839 -2.4955 0.9610
-6.5688 7.0554 -2.4959 0.9610
-7.2896 6.3165 -2.4974 0.9609
-7.5119 6.0535 -2.4979 0.9609
-7.7247 5.7827 -2.4984 0.9609
-8.1209 5.2190 -2.4994 0.9609
-8.4761 4.6283 -2.5005 0.9609
-9.1728 3.0530 -2.5031 0.9608
-9.4525 2.0563 -2.5047 0.9608
-9.5218 1.7179 -2.5052 0.9608
-9.5790 1.3773 -2.5057 0.9608
-9.6568 0.6907 -2.5067 0.9608
8.8129 0.3148 -2.4965 0.9640
8.7866 0.6284 -2.4938 0.9640
8.7415 0.9398 -2.4889 0.9641
8.1450 1.4695 -2.3430 0.9662
8.0861 1.7590 -2.3427 0.9662
7.9376 2.3307 -2.3419 0.9662
7.7488 2.8902 -2.3413 0.9662
7.6397 3.1645 -2.3409 0.9662
7.5209 3.4347 -2.3406 0.9662
7.3925 3.7004 -2.3403 0.9662
7.2549 3.9614 -2.3400 0.9662
7.1080 4.2174 -2.3398 0.9662
6.7876 4.7127 -2.3393 0.9662
6.6144 4.9514 -2.3390 0.9662
5.6278 6.0447 -2.3381 0.9662
5.1816 6.4300 -2.3378 0.9663
4.7093 6.7826 -2.3375 0.9663
4.2131 7.1008 -2.3374 0.9663
3.4297 7.5101 -2.3373 0.9663
3.1595 7.6277 -2.3373 0.9663
2.6073 7.8338 -2.3373 0.9663
2.0419 8.0001 -2.3374 0.9663
1.7551 8.0682 -2.3375 0.9663
0.2948 8.2537 -2.3380 0.9662
-0.5555 7.7664 -2.2042 0.9681
-0.8033 7.4717 -2.1274 0.9692
-1.0258 7.1347 -2.0406 0.9705
-1.8990 7.4402 -2.1738 0.9686
-2.1986 7.4877 -2.2092 0.9681
-2.5385 7.6269 -2.2756 0.9671
-2.8894 7.7467 -2.3406 0.9662
-3.4356 7.5229 -2.3413 0.9662
-3.7024 7.3965 -2.3416 0.9662
-3.9647 7.2607 -2.3419 0.9662
-4.2513 7.1651 -2.3586 0.9660
-5.2820 7.0560 -2.4952 0.9640
-5.5314 6.8641 -2.4956 0.9640
-6.0091 6.4542 -2.4965 0.9640
-6.2367 6.2367 -2.4969 0.9640
-6.4565 6.0112 -2.4973 0.9640
-6.6681 5.7780 -2.4978 0.9640
-7.0660 5.2895 -2.4987 0.9640
-7.2516 5.0349 -2.4992 0.9640
-7.7527 4.2333 -2.5006 0.9639
-7.9003 3.9546 -2.5011 0.9639
-8.3892 2.7922 -2.5030 0.9639
-8.5702 2.1874 -2.5040 0.9639
-8.6445 1.8805 -2.5044 0.9639
-8.7078 1.5710 -2.5049 0.9639
-8.7599 1.2595 -2.5054 0.9639
-8.8492 0.3161 -2.5068 0.9639
8.0960 0.5790 -2.4965 0.9666
8.0666 0.8673 -2.4954 0.9666
8.0164 1.1526 -2.4910 0.9667
7.8667 1.4193 -2.4587 0.9671
7.3076 2.1457 -2.3426 0.9686
7.0336 2.9134 -2.3416 0.9686
6.9243 3.1622 -2.3414 0.9686
6.6795 3.6473 -2.3408 0.9687
6.5444 3.8830 -2.3406 0.9687
6.0900 4.5589 -2.3399 0.9687
5.7483 4.9809 -2.3395 0.9687
5.5665 5.1825 -2.3393 0.9687
5.3775 5.3776 -2.3391 0.9687
4.3362 6.2453 -2.3385 0.9687
3.8793 6.5383 -2.3384 0.9687
2.9092 7.0235 -2.3383 0.9687
1.8802 7.3664 -2.3384 0.9687
-0.2715 7.6007 -2.3393 0.9687
-0.5426 7.5867 -2.3395 0.9687
-1.2834 7.1132 -2.2232 0.9702
-1.8776 7.3566 -2.3353 0.9687
-2.4036 7.2218 -2.3411 0.9686
-3.4086 6.8096 -2.3422 0.9686
-4.8626 6.4957 -2.4957 0.9666
-5.7412 5.7412 -2.4973 0.9666
-5.9434 5.5335 -2.4977 0.9666
-6.8373 4.3941 -2.4998 0.9666
-6.9909 4.1480 -2.5003 0.9666
-7.2716 3.6399 -2.5012 0.9665
-7.5154 3.1130 -2.5020 0.9665
-7.6231 2.8433 -2.5025 0.9665
-7.7211 2.5698 -2.5029 0.9665
-7.8093 2.2930 -2.5034 0.9665
-8.0617 1.1591 -2.5051 0.9665
-8.0993 0.8708 -2.5055 0.9665
-8.1266 0.5812 -2.5060 0.9665
7.4925 0.5359 -2.4969 0.9688
7.4331 1.0687 -2.4962 0.9688
7.3808 1.3316 -2.4930 0.9689
7.3172 1.5918 -2.4892 0.9689
6.7634 1.9859 -2.3431 0.9707
6.6874 2.2258 -2.3428 0.9707
6.6029 2.4627 -2.3425 0.9707
6.5100 2.6965 -2.3423 0.9707
6.4089 2.9268 -2.3420 0.9707
5.9247 3.8076 -2.3410 0.9708
5.7845 4.0162 -2.3408 0.9708
5.4823 4.4179 -2.3404 0.9708
5.3207 4.6104 -2.3402 0.9708
4.9776 4.9776 -2.3399 0.9708
4.7965 5.1518 -2.3398 0.9708
4.6093 5.3194 -2.3397 0.9708
4.4163 5.4803 -2.3396 0.9708
4.2177 5.6342 -2.3395 0.9708
3.8047 5.9203 -2.3393 0.9708
3.1499 6.2927 -2.3391 0.9708
2.6929 6.5013 -2.3391 0.9708
2.4592 6.5933 -2.3391 0.9708
1.7404 6.8187 -2.3392 0.9708
1.4959 6.8766 -2.3393 0.9708
1.2496 6.9259 -2.3394 0.9708
1.0016 6.9663 -2.3394 0.9708
0.5021 7.0206 -2.3397 0.9708
0.0000 7.0394 -2.3399 0.9708
-1.2503 6.9301 -2.3408 0.9708
-1.4970 6.8817 -2.3410 0.9708
-1.9845 6.7587 -2.3415 0.9707
-2.2247 6.6843 -2.3417 0.9707
-2.4622 6.6013 -2.3420 0.9707
-2.9980 6.5648 -2.3990 0.9700
-3.8300 6.4552 -2.4950 0.9689
-4.0588 6.3157 -2.4955 0.9689
-5.1193 5.4985 -2.4973 0.9688
-5.3131 5.3131 -2.4977 0.9688
-5.6804 4.9221 -2.4984 0.9688
-5.8533 4.7169 -2.4988 0.9688
-6.3270 4.0661 -2.5000 0.9688
-6.4692 3.8383 -2.5004 0.9688
-6.9541 2.8805 -2.5020 0.9688
-7.1442 2.3778 -2.5029 0.9688
-7.2257 2.1217 -2.5033 0.9688
-7.2980 1.8627 -2.5037 0.9687
-7.5188 0.5378 -2.5057 0.9687
6.9852 -0.0000 -2.4980 0.9708
6.9655 0.4982 -2.4973 0.9708
6.9104 0.9936 -2.4966 0.9708
6.8696 1.2394 -2.4963 0.9708
6.8172 1.4830 -2.4949 0.9708
6.6756 1.9601 -2.4880 0.9709
6.0526 2.5071 -2.3428 0.9726
5.9586 2.7212 -2.3425 0.9726
5.8571 2.9319 -2.3423 0.9726
5.2412 3.9235 -2.3413 0.9726
4.7907 4.4603 -2.3408 0.9726
4.6282 4.6282 -2.3406 0.9726
4.2858 4.9460 -2.3404 0.9726
4.1063 5.0956 -2.3403 0.9726
2.9288 5.8511 -2.3399 0.9726
2.7181 5.9519 -2.3399 0.9726
2.2866 6.1306 -2.3399 0.9726
1.8435 6.2782 -2.3399 0.9726
1.1619 6.4398 -2.3401 0.9726
0.0000 6.5452 -2.3406 0.9726
-1.1625 6.4435 -2.3414 0.9726
-1.6195 6.3453 -2.3419 0.9726
-1.8451 6.2840 -2.3421 0.9726
-2.0685 6.2147 -2.3423 0.9726
-2.3321 6.2527 -2.3865 0.9720
-2.8922 6.3330 -2.4897 0.9709
-4.1838 5.5889 -2.4966 0.9708
-4.5731 5.2776 -2.4973 0.9708
-4.9393 4.9393 -2.4980 0.9708
-5.5952 4.1885 -2.4994 0.9707
-6.0135 3.5680 -2.5005 0.9707
-6.1380 3.3516 -2.5009 0.9707
-6.2546 3.1308 -2.5013 0.9707
-6.8419 1.4884 -2.5039 0.9707
-6.8917 1.2434 -2.5043 0.9707
-6.9649 0.7488 -2.5050 0.9707
-6.9882 0.4998 -2.5054 0.9707
6.5141 0.2326 -2.4979 0.9725
6.4793 0.6966 -2.4973 0.9725
6.3112 1.6108 -2.4961 0.9725
6.2432 1.8332 -2.4935 0.9725
6.1662 2.0523 -2.4905 0.9725
6.0693 2.2637 -2.4824 0.9726
5.8042 2.4042 -2.4075 0.9734
5.5616 2.5399 -2.3430 0.9741
5.4776 2.7419 -2.3474 0.9741
5.1417 3.3043 -2.3422 0.9742
5.0200 3.4855 -2.3420 0.9742
4.7579 3.8342 -2.3417 0.9742
4.3200 4.3200 -2.3412 0.9742
4.0004 4.6167 -2.3410 0.9742
3.6606 4.8900 -2.3408 0.9742
3.1166 5.2528 -2.3406 0.9742
2.5372 5.5557 -2.3405 0.9742
0.8693 6.0462 -2.3408 0.9742
0.6530 6.0736 -2.3409 0.9742
0.0000 6.1094 -2.3412 0.9742
-0.2181 6.1059 -2.3414 0.9742
-0.6532 6.0755 -2.3417 0.9742
-1.0851 6.0143 -2.3420 0.9742
-1.2992 5.9722 -2.3422 0.9742
-1.5116 5.9225 -2.3424 0.9742
-1.7559 5.9801 -2.3884 0.9737
-2.0283 6.0939 -2.4613 0.9729
-2.2697 6.0854 -2.4890 0.9726
-2.9149 5.8233 -2.4955 0.9725
-3.1212 5.7161 -2.4958 0.9725
-3.9048 5.2162 -2.4970 0.9725
-4.0890 5.0741 -2.4973 0.9725
-4.6097 4.6097 -2.4982 0.9725
-4.7719 4.4428 -2.4986 0.9725
-4.9281 4.2702 -2.4989 0.9725
-5.4887 3.5274 -2.5003 0.9724
-5.7279 3.1277 -2.5010 0.9724
-5.8368 2.9217 -2.5013 0.9724
-5.9382 2.7119 -2.5017 0.9724
-6.0320 2.4985 -2.5020 0.9724
-6.1182 2.2820 -2.5024 0.9724
-6.1967 2.0624 -2.5027 0.9724
-6.2672 1.8402 -2.5031 0.9724
-6.3298 1.6156 -2.5035 0.9724
-6.3843 1.3888 -2.5038 0.9724
-6.4307 1.1602 -2.5042 0.9724
-6.4689 0.9301 -2.5045 0.9724
-6.5206 0.4664 -2.5052 0.9724
6.1046 -0.0000 -2.4985 0.9740
6.0397 0.8684 -2.4973 0.9740
6.0041 1.0833 -2.4970 0.9740
5.8520 1.7183 -2.4962 0.9740
5.7855 1.9256 -2.4956 0.9740
5.7067 2.1285 -2.4928 0.9740
5.6211 2.3283 -2.4901 0.9740
5.5221 2.5218 -2.4846 0.9741
4.9231 2.9210 -2.3429 0.9756
4.8153 3.0946 -2.3427 0.9756
4.5816 3.4298 -2.3423 0.9756
4.4560 3.5909 -2.3422 0.9756
4.0459 4.0459 -2.3418 0.9756
3.8987 4.1875 -2.3417 0.9756
3.7466 4.3238 -2.3416 0.9756
3.4284 4.5798 -2.3414 0.9756
3.0927 4.8124 -2.3413 0.9756
2.9189 4.9196 -2.3412 0.9756
2.7414 5.0206 -2.3412 0.9756
1.9990 5.3595 -2.3411 0.9756
1.4147 5.5427 -2.3412 0.9756
1.2160 5.5898 -2.3413 0.9756
1.0157 5.6298 -2.3413 0.9756
0.8142 5.6626 -2.3414 0.9756
-0.4082 5.7078 -2.3420 0.9756
-0.6117 5.6900 -2.3422 0.9756
-0.8145 5.6649 -2.3423 0.9756
-2.5332 5.5468 -2.4957 0.9740
-2.7298 5.4534 -2.4960 0.9740
-2.9230 5.3531 -2.4962 0.9740
-3.2981 5.1320 -2.4967 0.9740
-3.6566 4.8847 -2.4973 0.9740
-3.9967 4.6125 -2.4979 0.9740
-4.1593 4.4674 -2.4982 0.9740
-5.0177 3.4838 -2.5001 0.9739
-5.1395 3.3029 -2.5004 0.9739
-5.2548 3.1178 -2.5007 0.9739
-5.3634 2.9286 -2.5010 0.9739
-5.4653 2.7357 -2.5014 0.9739
-5.5602 2.5392 -2.5017 0.9739
-5.6480 2.3395 -2.5020 0.9739
-5.8680 1.7230 -2.5030 0.9739
-6.1174 0.2185 -2.5053 0.9739
5.7334 -0.0000 -2.4987 0.9753
5.7291 0.2046 -2.4984 0.9753
5.6986 0.6127 -2.4979 0.9753
5.6392 1.0174 -2.4973 0.9753
5.4964 1.6139 -2.4966 0.9753
5.4348 1.8089 -2.4963 0.9753
5.3663 2.0015 -2.4961 0.9753
5.2025 2.3759 -2.4926 0.9754
4.8219 2.8610 -2.4435 0.9758
4.6179 2.9678 -2.3923 0.9763
4.4240 3.0716 -2.3472 0.9768
4.3034 3.2215 -2.3428 0.9768
4.0622 3.5199 -2.3425 0.9768
3.8003 3.8003 -2.3423 0.9768
3.2203 4.3018 -2.3419 0.9768
2.9050 4.5203 -2.3418 0.9768
2.5751 4.7159 -2.3417 0.9768
2.4051 4.8047 -2.3417 0.9768
2.2320 4.8875 -2.3417 0.9768
2.0562 4.9640 -2.3417 0.9768
1.5138 5.1555 -2.3417 0.9768
1.1422 5.2505 -2.3418 0.9768
0.3834 5.3603 -2.3421 0.9768
0.0000 5.3744 -2.3423 0.9768
-0.1918 5.3713 -2.3424 0.9768
-0.3834 5.3613 -2.3425 0.9768
-0.7932 5.5169 -2.4291 0.9760
-1.2141 5.5809 -2.4892 0.9754
-1.4138 5.5391 -2.4914 0.9754
-1.8082 5.4329 -2.4954 0.9753
-2.0012 5.3653 -2.4957 0.9753
-2.5639 5.1221 -2.4963 0.9753
-3.0977 4.8201 -2.4971 0.9753
-3.5963 4.4627 -2.4979 0.9753
-3.7537 4.3320 -2.4981 0.9753
-4.0541 4.0541 -2.4987 0.9753
-4.3340 3.7554 -2.4993 0.9753
-4.4658 3.5988 -2.4996 0.9753
-4.5920 3.4375 -2.4999 0.9753
-4.7123 3.2718 -2.5002 0.9753
-4.8267 3.1019 -2.5005 0.9753
-4.9349 2.9280 -2.5008 0.9753
-5.2216 2.3846 -2.5017 0.9753
-5.5105 1.6180 -2.5030 0.9753
-5.7327 0.4100 -2.5048 0.9752
-5.7444 0.2052 -2.5051 0.9752
5.3945 0.1927 -2.4986 0.9765
5.3836 0.3850 -2.4984 0.9765
5.3413 0.7680 -2.4978 0.9765
5.3100 0.9580 -2.4976 0.9765
5.1757 1.5197 -2.4969 0.9765
5.1177 1.7033 -2.4967 0.9765
5.0532 1.8847 -2.4964 0.9765
4.9050 2.2400 -2.4960 0.9765
4.5236 2.9071 -2.4890 0.9766
4.3985 3.0539 -2.4786 0.9767
3.7044 3.4489 -2.3428 0.9779
3.5788 3.5787 -2.3427 0.9779
3.4486 3.7040 -2.3426 0.9779
3.3141 3.8246 -2.3425 0.9779
3.1753 3.9403 -2.3424 0.9779
3.0326 4.0510 -2.3424 0.9779
2.7357 4.2568 -2.3423 0.9779
2.5820 4.3517 -2.3422 0.9779
1.9363 4.6747 -2.3421 0.9779
1.7682 4.7408 -2.3421 0.9779
1.5979 4.8010 -2.3422 0.9779
1.4256 4.8550 -2.3422 0.9779
1.2514 4.9028 -2.3422 0.9779
1.0756 4.9445 -2.3423 0.9779
0.3610 5.0478 -2.3425 0.9779
0.0000 5.1512 -2.3844 0.9776
-0.3801 5.3142 -2.4662 0.9768
-0.5746 5.3444 -2.4881 0.9766
-0.7655 5.3244 -2.4899 0.9766
-0.9558 5.2978 -2.4919 0.9766
-1.1452 5.2646 -2.4939 0.9765
-1.5190 5.1731 -2.4956 0.9765
-2.2404 4.9058 -2.4964 0.9765
-2.4143 4.8232 -2.4967 0.9765
-2.5852 4.7344 -2.4969 0.9765
-2.7527 4.6395 -2.4971 0.9765
-2.9169 4.5387 -2.4974 0.9765
-3.2339 4.3199 -2.4978 0.9765
-3.3863 4.2022 -2.4981 0.9765
-3.6782 3.9507 -2.4986 0.9765
-3.9516 3.6791 -2.4992 0.9765
-4.0808 3.5361 -2.4994 0.9765
-4.3236 3.2367 -2.5000 0.9765
-4.4369 3.0806 -2.5003 0.9765
-4.7425 2.5896 -2.5012 0.9765
-4.8324 2.4189 -2.5015 0.9765
-4.9163 2.2452 -2.5017 0.9765
-4.9939 2.0685 -2.5020 0.9765
-5.0651 1.8892 -2.5023 0.9765
-5.1299 1.7074 -2.5026 0.9765
-5.2399 1.3374 -2.5032 0.9764
-5.2849 1.1497 -2.5035 0.9764
5.0947 -0.0000 -2.4991 0.9776
5.0640 0.5444 -2.4983 0.9776
5.0408 0.7248 -2.4981 0.9776
5.0113 0.9041 -2.4978 0.9776
4.9754 1.0823 -2.4976 0.9776
4.9331 1.2591 -2.4974 0.9776
4.8846 1.4342 -2.4972 0.9776
4.7691 1.7788 -2.4968 0.9776
4.7022 1.9477 -2.4966 0.9776
4.5505 2.2778 -2.4962 0.9776
4.4660 2.4386 -2.4960 0.9776
4.2765 2.7484 -2.4936 0.9776
4.0643 3.0425 -2.4903 0.9776
3.8316 3.3201 -2.4869 0.9777
3.6603 3.4079 -2.4532 0.9780
3.4930 3.4930 -2.4231 0.9782
3.3292 3.5758 -2.3965 0.9785
3.0101 3.7354 -2.3532 0.9789
2.8622 3.8235 -2.3428 0.9789
2.7238 3.9231 -2.3427 0.9789
2.5820 4.0177 -2.3427 0.9789
2.2888 4.1916 -2.3426 0.9789
1.9839 4.3441 -2.3426 0.9789
1.8276 4.4121 -2.3426 0.9789
1.6689 4.4745 -2.3426 0.9789
1.3455 4.5823 -2.3426 0.9789
1.1811 4.6274 -2.3426 0.9789
1.0178 4.6789 -2.3488 0.9789
0.8570 4.7498 -2.3675 0.9787
0.6934 4.8225 -2.3899 0.9785
0.3555 4.9710 -2.4446 0.9780
0.0000 5.0725 -2.4882 0.9777
-0.1812 5.0721 -2.4896 0.9776
-0.3623 5.0655 -2.4911 0.9776
-0.5432 5.0527 -2.4927 0.9776
-1.0815 4.9715 -2.4957 0.9776
-1.7785 4.7683 -2.4964 0.9776
-2.1145 4.6300 -2.4968 0.9776
-2.2785 4.5520 -2.4970 0.9776
-2.7528 4.2834 -2.4976 0.9776
-2.9042 4.1828 -2.4978 0.9776
-3.3356 3.8495 -2.4986 0.9776
-3.4713 3.7284 -2.4988 0.9776
-3.7292 3.4720 -2.4993 0.9776
-3.9627 3.1933 -2.4964 0.9776
-4.8408 1.6112 -2.5026 0.9775
-4.8958 1.4375 -2.5029 0.9775
-4.9445 1.2620 -2.5031 0.9775
-5.0230 0.9062 -2.5037 0.9775
-5.0760 0.5457 -2.5042 0.9775
-5.1030 0.1823 -2.5048 0.9775
4.8140 0.1719 -2.4990 0.9785
4.7886 0.5148 -2.4985 0.9785
4.7667 0.6853 -2.4983 0.9785
4.5673 1.5201 -2.4972 0.9785
4.4466 1.8418 -2.4969 0.9785
4.3777 1.9992 -2.4967 0.9785
4.3032 2.1540 -2.4965 0.9785
4.2233 2.3061 -2.4963 0.9785
3.6303 3.1457 -2.4920 0.9786
3.5140 3.2717 -2.4908 0.9786
3.2689 3.5111 -2.4887 0.9786
3.1404 3.6242 -2.4878 0.9786
2.9955 3.7172 -2.4766 0.9787
2.8403 3.7942 -2.4588 0.9789
2.6868 3.8697 -2.4440 0.9790
2.5346 3.9440 -2.4322 0.9791
2.0829 4.1611 -2.4140 0.9792
1.6311 4.3731 -2.4213 0.9792
1.4789 4.4433 -2.4294 0.9791
1.1700 4.5842 -2.4544 0.9789
0.5129 4.7707 -2.4892 0.9786
0.1714 4.7994 -2.4914 0.9786
0.0000 4.8048 -2.4926 0.9786
-0.1716 4.8044 -2.4940 0.9786
-0.6847 4.7618 -2.4957 0.9786
-0.8542 4.7346 -2.4959 0.9786
-1.0227 4.7014 -2.4960 0.9786
-1.3557 4.6170 -2.4963 0.9785
-1.5197 4.5660 -2.4965 0.9785
-1.8418 4.4466 -2.4969 0.9785
-2.1547 4.3045 -2.4972 0.9785
-2.4567 4.1405 -2.4976 0.9785
-3.0220 3.7501 -2.4985 0.9785
-3.5263 3.2831 -2.4995 0.9785
-3.6416 3.1554 -2.4997 0.9785
-3.9592 2.7489 -2.5005 0.9785
-4.0552 2.6061 -2.5007 0.9785
-4.3119 2.1584 -2.5015 0.9785
-4.3866 2.0033 -2.5018 0.9785
-4.4558 1.8457 -2.5020 0.9785
-4.5771 1.5234 -2.5026 0.9785
-4.6751 1.1932 -2.5031 0.9785
-4.7152 1.0257 -2.5033 0.9785
-4.7493 0.8569 -2.5036 0.9785
-4.7993 0.5160 -2.5041 0.9785
-4.8151 0.3444 -2.5044 0.9785
-4.8248 0.1723 -2.5046 0.9785
4.5634 -0.0000 -2.4994 0.9794
4.5153 0.6492 -2.4985 0.9794
4.3756 1.2848 -2.4977 0.9794
4.3266 1.4400 -2.4975 0.9794
4.2721 1.5934 -2.4973 0.9794
4.1470 1.8939 -2.4970 0.9794
4.0765 2.0405 -2.4968 0.9794
4.0008 2.1846 -2.4966 0.9794
3.8343 2.4641 -2.4963 0.9794
3.7437 2.5993 -2.4962 0.9794
3.6483 2.7311 -2.4961 0.9794
3.2198 3.2198 -2.4940 0.9794
3.1017 3.3314 -2.4930 0.9795
2.7254 3.6406 -2.4908 0.9795
2.4577 3.8243 -2.4898 0.9795
2.0343 4.0639 -2.4891 0.9795
1.8879 4.1339 -2.4891 0.9795
1.5883 4.2585 -2.4894 0.9795
1.4355 4.3130 -2.4896 0.9795
0.9668 4.4443 -2.4911 0.9795
0.6477 4.5047 -2.4926 0.9795
0.0000 4.5565 -2.4956 0.9794
-0.1626 4.5538 -2.4957 0.9794
-0.3251 4.5453 -2.4958 0.9794
-0.8092 4.4852 -2.4962 0.9794
-1.1272 4.4165 -2.4965 0.9794
-1.5932 4.2715 -2.4970 0.9794
-1.8941 4.1475 -2.4973 0.9794
-2.0411 4.0776 -2.4975 0.9794
-2.1855 4.0025 -2.4977 0.9794
-2.3272 3.9222 -2.4979 0.9794
-2.4659 3.8370 -2.4981 0.9794
-2.6015 3.7468 -2.4983 0.9794
-2.9878 3.4481 -2.4989 0.9794
-3.1093 3.3396 -2.4992 0.9794
-3.2268 3.2268 -2.4994 0.9794
-3.4494 2.9889 -2.4998 0.9794
-3.6545 2.7358 -2.5003 0.9794
-3.9272 2.3301 -2.5010 0.9794
-4.0083 2.1887 -2.5013 0.9794
-4.0842 2.0444 -2.5015 0.9794
-4.2806 1.5966 -2.5023 0.9794
-4.3845 1.2874 -2.5028 0.9794
-4.4281 1.1302 -2.5030 0.9794
-4.4660 0.9715 -2.5033 0.9794
-4.4983 0.8116 -2.5035 0.9794
-4.5249 0.6506 -2.5038 0.9794
-4.5456 0.4887 -2.5040 0.9794
-4.5606 0.3262 -2.5042 0.9794
-4.5698 0.1632 -2.5045 0.9794
4.3293 -0.0000 -2.4995 0.9802
4.3262 0.1545 -2.4993 0.9802
4.3175 0.3088 -2.4991 0.9802
4.3034 0.4627 -2.4989 0.9802
4.1048 1.3662 -2.4977 0.9802
4.0531 1.5117 -2.4976 0.9802
3.9344 1.7968 -2.4972 0.9802
3.8676 1.9360 -2.4971 0.9802
3.7958 2.0726 -2.4969 0.9802
3.6378 2.3379 -2.4966 0.9802
3.5519 2.4661 -2.4965 0.9802
3.2675 2.8313 -2.4962 0.9802
2.9457 3.1640 -2.4959 0.9802
2.8309 3.2670 -2.4958 0.9802
2.7121 3.3656 -2.4955 0.9802
2.5896 3.4594 -2.4949 0.9802
2.3354 3.6339 -2.4940 0.9802
2.0698 3.7905 -2.4934 0.9803
1.7940 3.9282 -2.4933 0.9803
0.9187 4.2230 -2.4952 0.9802
0.6152 4.2786 -2.4957 0.9802
0.4621 4.2979 -2.4957 0.9802
0.1543 4.3202 -2.4959 0.9802
0.0000 4.3231 -2.4960 0.9802
-0.1543 4.3205 -2.4960 0.9802
-0.3084 4.3124 -2.4961 0.9802
-0.4622 4.2989 -2.4963 0.9802
-0.6153 4.2798 -2.4964 0.9802
-1.5115 4.0526 -2.4972 0.9802
-1.6553 3.9963 -2.4974 0.9802
-1.7970 3.9350 -2.4975 0.9802
-1.9365 3.8686 -2.4977 0.9802
-2.2078 3.7211 -2.4981 0.9802
-2.3394 3.6402 -2.4983 0.9802
-2.4681 3.5547 -2.4985 0.9802
-3.0613 3.0613 -2.4995 0.9802
-3.1689 2.9503 -2.4997 0.9802
-3.2724 2.8356 -2.5000 0.9802
-3.3719 2.7172 -2.5002 0.9802
-3.4670 2.5954 -2.5004 0.9802
-3.7256 2.2105 -2.5011 0.9802
-3.9417 1.8001 -2.5018 0.9802
-4.2006 1.0721 -2.5030 0.9802
-4.3120 0.4636 -2.5039 0.9802
-4.3349 0.1548 -2.5043 0.9802
