ply
format ascii 1.0
element vertex 1259
property float32 x
property float32 y
property float32 z
property float32 I
end_header
-15.1200 -15.1200 3.7704 0.9168
-24.1599 -32.2739 7.1086 0.8490
-22.2250 -32.0101 6.8713 0.8536
-20.4129 -31.7631 6.6575 0.8578
-17.7033 -32.4211 6.5134 0.8607
-15.6577 -34.2854 6.6460 0.8581
-12.3465 -42.0483 7.7273 0.8369
8.7366 -48.4238 8.6763 0.8188
10.4532 -48.0524 8.6711 0.8189
3.7732 -12.8505 2.3615 0.9471
25.9376 -40.3597 8.4594 0.8229
25.4066 -33.9392 7.4754 0.8418
23.9349 -25.7079 6.1935 0.8670
25.7448 -25.7449 6.4198 0.8625
27.4081 -25.5179 6.6031 0.8589
28.8261 -24.9779 6.7255 0.8565
34.8350 -24.1864 7.4777 0.8418
37.3324 -23.9921 7.8249 0.8351
44.1295 -7.9618 7.9068 0.8335
-15.1229 -15.1229 3.2764 0.9171
-30.9110 -33.2007 6.9493 0.8323
-26.2419 -32.5642 6.4069 0.8443
-22.2253 -32.0105 5.9699 0.8541
-20.5083 -31.9116 5.8112 0.8577
-16.8082 -33.5786 5.7525 0.8590
-15.7152 -34.4116 5.7954 0.8581
-14.4813 -34.9608 5.7971 0.8580
-13.2428 -35.5054 5.8052 0.8578
-12.8279 -38.5417 6.2228 0.8484
-12.3480 -42.0534 6.7143 0.8375
-11.7850 -46.1731 7.3002 0.8246
1.6350 -11.3716 1.7600 0.9546
12.2027 -47.8095 7.5589 0.8190
3.7739 -12.8528 2.0521 0.9472
25.9346 -40.3550 7.3488 0.8236
25.4040 -33.9358 6.4941 0.8424
24.2434 -27.9783 5.6714 0.8609
23.9329 -25.7057 5.3805 0.8675
25.7451 -25.7451 5.5777 0.8630
32.6672 -24.4543 6.2513 0.8478
39.7482 -23.5837 7.0803 0.8294
42.2784 -23.0857 7.3795 0.8229
24.3070 -10.0683 4.0305 0.8990
-15.1258 -15.1258 2.7856 0.9173
-28.6144 -33.0228 5.6900 0.8384
-18.7081 -31.5308 4.7743 0.8625
-18.2216 -36.4022 5.3010 0.8486
-17.7210 -38.8036 5.5550 0.8419
-12.8293 -38.5459 5.2902 0.8489
-12.4085 -42.2594 5.7354 0.8372
-11.7865 -46.1791 6.2063 0.8251
-1.7684 -49.5130 6.4517 0.8189
1.7512 -49.0332 6.3892 0.8204
3.4900 -48.7961 6.3705 0.8209
5.2208 -48.5601 6.3600 0.8212
12.1530 -47.6149 6.3992 0.8202
13.9106 -47.3752 6.4297 0.8194
4.1425 -12.4463 1.7082 0.9485
25.4211 -36.6133 5.8044 0.8354
24.5875 -30.5112 5.1028 0.8538
23.9309 -25.7036 4.5733 0.8679
25.7453 -25.7453 4.7413 0.8634
27.4087 -25.5184 4.8766 0.8598
32.6675 -24.4546 5.3139 0.8482
37.3276 -23.9890 5.7781 0.8361
24.2846 -10.0590 3.4229 0.8994
-37.8370 -17.2796 4.4667 0.8459
-15.1287 -15.1287 2.2975 0.9175
-28.9673 -33.4300 4.7500 0.8370
-26.2425 -32.5650 4.4910 0.8451
-25.0750 -33.4963 4.4931 0.8451
-22.2257 -32.0112 4.1847 0.8549
-17.7064 -32.4268 3.9673 0.8619
-14.4819 -34.9625 4.0637 0.8588
-13.2455 -35.5127 4.0700 0.8586
-12.8307 -38.5501 4.3628 0.8492
-11.7880 -46.1850 5.1184 0.8255
1.6345 -11.3681 1.2333 0.9548
8.7537 -48.5187 5.2941 0.8201
10.4098 -47.8529 5.2587 0.8212
12.2437 -47.9702 5.3163 0.8194
4.1394 -12.4370 1.4075 0.9486
25.9286 -40.3457 5.1499 0.8245
24.5852 -30.5084 4.2074 0.8542
24.2391 -27.9734 3.9746 0.8616
23.9289 -25.7014 3.7708 0.8683
31.0504 -25.0220 4.2821 0.8518
34.8281 -24.1816 4.5529 0.8432
39.7432 -23.5807 4.9624 0.8303
42.2795 -23.0863 5.1729 0.8238
24.2624 -10.0498 2.8200 0.8997
41.2864 -5.9361 4.4790 0.8455
-37.8368 -17.2795 3.5209 0.8462
-15.1316 -15.1316 1.8115 0.9177
-26.2428 -32.5654 3.5405 0.8454
-25.0767 -33.4986 3.5423 0.8454
-22.2260 -32.0115 3.2990 0.8552
-21.2216 -33.0214 3.3229 0.8542
-17.7074 -32.4287 3.1278 0.8622
-18.2290 -36.4169 3.4474 0.8492
-14.4823 -34.9633 3.2036 0.8591
-12.4087 -42.2602 3.7285 0.8379
-11.7895 -46.1909 4.0355 0.8258
1.7669 -49.4717 4.1906 0.8198
1.4946 -20.8969 1.7735 0.9193
5.2675 -48.9944 4.1714 0.8205
1.6341 -11.3657 0.9720 0.9550
25.0910 -33.5177 3.5443 0.8453
27.1753 -25.3011 3.1432 0.8615
28.8273 -24.9790 3.2290 0.8580
30.7858 -24.8087 3.3470 0.8532
32.6683 -24.4552 3.4545 0.8489
39.7408 -23.5793 3.9118 0.8307
42.2800 -23.0866 4.0779 0.8242
24.2402 -10.0406 2.2211 0.9000
-26.2431 -32.5657 2.5935 0.8457
-22.2262 -32.0118 2.4166 0.8554
-21.2231 -33.0239 2.4343 0.8544
-18.7086 -31.5317 2.2736 0.8633
-13.2482 -35.5199 2.3508 0.8590
-7.5103 -22.5649 1.4747 0.9091
-11.7910 -46.1968 2.9565 0.8261
-7.0025 -32.1902 2.0428 0.8763
-3.5588 -49.7583 3.0934 0.8188
1.4069 -19.6711 1.2229 0.9240
8.6764 -48.0901 3.0302 0.8221
10.4099 -47.8537 3.0368 0.8218
13.9110 -47.3763 3.0618 0.8205
4.1333 -12.4186 0.8116 0.9489
17.1479 -28.9013 2.0839 0.8740
25.4130 -36.6017 2.7631 0.8365
25.3854 -33.9109 2.6268 0.8439
23.9249 -25.6971 2.1772 0.8687
21.0639 -18.2520 1.7283 0.8943
13.2803 -10.7019 1.0576 0.9339
37.2351 -23.9296 2.7447 0.8375
-15.1373 -15.1373 0.8441 0.9179
-26.2434 -32.5661 1.6492 0.8458
-21.2247 -33.0263 1.5480 0.8546
-18.7088 -31.5320 1.4457 0.8635
-17.7094 -32.4324 1.4571 0.8625
-13.2495 -35.5235 1.4950 0.8592
-12.8349 -38.5627 1.6026 0.8498
-12.4089 -42.2609 1.7367 0.8384
-11.7925 -46.2027 1.8802 0.8262
13.9110 -47.3767 1.9470 0.8206
4.1303 -12.4095 0.5157 0.9490
16.0281 -29.3532 1.3187 0.8747
25.9198 -40.3320 1.8904 0.8254
24.5784 -30.4999 1.5445 0.8549
12.8612 -11.1443 0.6710 0.9341
24.1964 -10.0225 1.0327 0.9005
-37.8347 -17.2786 0.7026 0.8467
-15.1401 -15.1401 0.3617 0.9179
-26.2437 -32.5665 0.7065 0.8459
-25.0818 -33.5054 0.7069 0.8458
-22.2267 -32.0125 0.6583 0.8556
-18.7090 -31.5323 0.6193 0.8636
-17.7105 -32.4343 0.6242 0.8626
-17.9971 -35.9536 0.6792 0.8514
-14.9089 -32.6459 0.6062 0.8663
-13.2509 -35.5270 0.6405 0.8593
-12.8363 -38.5669 0.6866 0.8499
1.6331 -11.3582 0.1938 0.9551
10.4101 -47.8544 0.8273 0.8221
25.9168 -40.3275 0.8097 0.8255
25.8389 -37.2152 0.7653 0.8342
24.5761 -30.4971 0.6616 0.8550
22.8528 -24.5456 0.5665 0.8744
27.4101 -25.5197 0.6326 0.8609
13.0690 -10.5317 0.2835 0.9351
14.1326 -10.5795 0.2982 0.9318
37.5565 -24.1361 0.7541 0.8364
42.7895 -23.3649 0.8235 0.8228
-15.1430 -15.1429 -0.1206 0.9179
-28.9765 -33.4407 -0.2491 0.8378
-22.0390 -31.7422 -0.2176 0.8568
-18.7091 -31.5326 -0.2064 0.8636
-17.8632 -35.6861 -0.2247 0.8525
-13.2522 -35.5306 -0.2135 0.8593
-12.4091 -42.2616 -0.2480 0.8385
-11.7955 -46.2144 -0.2685 0.8263
1.6328 -11.3564 -0.0646 0.9551
13.9113 -47.3774 -0.2780 0.8208
24.5739 -30.4943 -0.2205 0.8550
24.2285 -27.9612 -0.2083 0.8624
22.5329 -24.2021 -0.1862 0.8761
25.7468 -25.7468 -0.2050 0.8645
27.4103 -25.5199 -0.2109 0.8609
40.4675 -22.0969 -0.2596 0.8316
41.2871 -5.9362 -0.2348 0.8463
-37.8295 -17.2762 -1.1710 0.8467
-28.9783 -33.4428 -1.2460 0.8377
-26.2443 -32.5672 -1.1777 0.8459
-25.0852 -33.5100 -1.1787 0.8458
-21.9158 -31.5648 -1.0820 0.8575
-21.2294 -33.0336 -1.1056 0.8546
-17.7125 -32.4380 -1.0407 0.8625
-17.8643 -35.6883 -1.1238 0.8524
-14.7684 -32.3383 -1.0010 0.8674
-14.4840 -34.9675 -1.0657 0.8595
-12.8390 -38.5752 -1.1448 0.8499
-11.7970 -46.2203 -1.3432 0.8262
1.6325 -11.3546 -0.3230 0.9551
10.4103 -47.8552 -1.3790 0.8220
13.9114 -47.3778 -1.3904 0.8207
4.1212 -12.3823 -0.3675 0.9491
24.2898 -37.7957 -1.2651 0.8355
25.3839 -33.9090 -1.1927 0.8441
24.2264 -27.9587 -1.0417 0.8624
15.9667 -12.8668 -0.5774 0.9212
37.5574 -24.1367 -1.2571 0.8364
38.8202 -23.0331 -1.2710 0.8347
40.4680 -22.0972 -1.2983 0.8315
-47.2182 -1.6864 -2.3962 0.8276
-47.1114 -3.3695 -2.3953 0.8276
-46.7254 -6.7181 -2.3940 0.8277
-46.4467 -8.3799 -2.3935 0.8278
-45.7195 -11.6692 -2.3930 0.8278
-45.2721 -13.2931 -2.3929 0.8278
-44.2114 -16.4900 -2.3930 0.8278
-37.7275 -17.2296 -2.1034 0.8469
-38.5099 -19.2767 -2.1840 0.8416
-25.9620 -15.4040 -1.5310 0.8861
-24.2953 -15.6136 -1.4646 0.8908
-17.4977 -14.1005 -1.1397 0.9139
-16.6619 -14.4376 -1.1181 0.9155
-28.9802 -33.4450 -2.2443 0.8376
-21.9174 -31.5670 -1.9489 0.8573
-17.7135 -32.4399 -1.8744 0.8624
-14.4843 -34.9683 -1.9195 0.8593
-12.8404 -38.5794 -2.0620 0.8497
-12.4093 -42.2623 -2.2338 0.8383
-11.6462 -45.6294 -2.3882 0.8281
-10.0338 -46.1246 -2.3939 0.8277
-6.7484 -46.9359 -2.4048 0.8270
-2.1619 -30.2267 -1.5368 0.8857
0.0000 -47.8122 -2.4248 0.8257
1.0421 -29.1785 -1.4807 0.8896
1.6323 -11.3527 -0.5817 0.9551
5.1649 -28.6269 -1.4752 0.8900
6.2595 -28.7745 -1.4934 0.8887
8.7028 -34.0972 -1.7846 0.8685
9.5754 -32.6108 -1.7237 0.8727
4.1182 -12.3732 -0.6613 0.9491
21.7757 -43.5022 -2.4671 0.8230
24.2447 -37.7255 -2.2742 0.8356
24.8514 -35.7928 -2.2098 0.8399
24.8965 -33.2578 -2.1069 0.8467
24.5090 -30.4138 -1.9809 0.8552
22.4411 -24.1034 -1.6702 0.8764
25.7473 -25.7473 -1.8466 0.8643
28.7791 -24.9372 -1.9312 0.8585
30.9995 -24.9810 -2.0190 0.8526
37.4935 -24.0956 -2.2603 0.8365
40.3624 -22.0395 -2.3322 0.8318
43.9873 -20.0884 -2.4524 0.8239
24.1094 -9.9864 -1.3234 0.9008
45.1827 -16.8523 -2.4456 0.8244
45.6858 -15.2056 -2.4419 0.8246
46.4997 -11.8684 -2.4338 0.8251
46.8480 -10.1912 -2.4314 0.8253
42.8623 -7.7332 -2.2088 0.8399
41.1170 -5.9118 -2.1067 0.8467
47.7681 -5.1356 -2.4365 0.8250
-33.0590 -1.1807 -2.4255 0.8757
-32.9877 -2.3593 -2.4249 0.8758
-32.8756 -3.5345 -2.4244 0.8758
-32.5295 -5.8690 -2.4236 0.8758
-32.2961 -7.0256 -2.4234 0.8759
-32.0225 -8.1733 -2.4232 0.8759
-31.3571 -10.4367 -2.4232 0.8759
-30.9660 -11.5497 -2.4233 0.8759
-30.0689 -13.7320 -2.4237 0.8758
-25.9043 -15.3697 -2.2085 0.8862
-24.2966 -15.6144 -2.1176 0.8906
-25.5242 -17.7218 -2.2784 0.8828
-17.4979 -14.1007 -1.6477 0.9138
-20.5230 -23.6848 -2.2979 0.8819
-18.8542 -25.1863 -2.3068 0.8815
-12.9980 -18.7206 -1.6711 0.9126
-17.0748 -26.5688 -2.3157 0.8810
-16.1460 -27.2127 -2.3201 0.8808
-15.1927 -27.8233 -2.3244 0.8806
-14.2162 -28.4003 -2.3287 0.8804
-6.8330 -31.4108 -2.3570 0.8790
-4.5890 -31.9170 -2.3643 0.8787
-2.1618 -30.2256 -2.2219 0.8856
0.0000 -25.8788 -1.8975 0.9014
2.8766 -26.7563 -1.9731 0.8977
1.6320 -11.3509 -0.8408 0.9550
4.7206 -26.1645 -1.9494 0.8989
5.6773 -26.0982 -1.9583 0.8984
7.8845 -26.8523 -2.0520 0.8938
9.3522 -25.0742 -1.9622 0.8982
13.6243 -29.8332 -2.4047 0.8767
14.6879 -29.3427 -2.4060 0.8767
15.7326 -28.8122 -2.4070 0.8766
16.7571 -28.2426 -2.4079 0.8766
17.7596 -27.6345 -2.4086 0.8766
19.6929 -26.3067 -2.4094 0.8765
20.6209 -25.5889 -2.4096 0.8765
28.1718 -16.7151 -2.4018 0.8769
24.8676 -13.5787 -2.0775 0.8926
29.2489 -14.6410 -2.3983 0.8771
23.3338 -9.6652 -1.8518 0.9037
32.0252 -6.9666 -2.4031 0.8768
34.2032 -6.1709 -2.5483 0.8699
34.5829 -4.9723 -2.5618 0.8692
34.7535 -3.7364 -2.5629 0.8692
34.8789 -2.4946 -2.5639 0.8691
-25.4349 0.0000 -2.4419 0.9028
-25.4132 -0.9076 -2.4413 0.9029
-25.1584 -3.6172 -2.4402 0.9029
-24.6218 -6.2843 -2.4396 0.9029
-24.3812 -7.1590 -2.4395 0.9029
-23.8093 -8.8804 -2.4396 0.9029
-23.1185 -10.5579 -2.4400 0.9029
-21.3731 -13.7356 -2.4391 0.9029
-19.9553 -13.8552 -2.3323 0.9070
-19.1254 -14.3171 -2.2936 0.9085
-16.6638 -14.4392 -2.1168 0.9152
-15.5387 -14.4671 -2.0383 0.9182
-14.2987 -14.2987 -1.9413 0.9220
-14.1777 -15.2279 -1.9975 0.9198
-15.0277 -18.6482 -2.2993 0.9082
-14.3590 -19.1814 -2.3003 0.9082
-13.1441 -18.9311 -2.2126 0.9115
-12.2780 -20.6934 -2.3100 0.9078
-11.5480 -21.1485 -2.3133 0.9077
-10.8009 -21.5775 -2.3166 0.9076
-6.0542 -13.2567 -1.3992 0.9431
-9.2595 -22.3544 -2.3230 0.9073
-6.6178 -17.7431 -1.8180 0.9267
-7.6614 -23.0189 -2.3291 0.9071
-6.0150 -23.5667 -2.3351 0.9069
-5.1764 -23.7957 -2.3379 0.9068
-4.3290 -23.9940 -2.3407 0.9067
-3.4739 -24.1614 -2.3435 0.9066
-2.6122 -24.2974 -2.3461 0.9065
-0.5969 -16.7127 -1.6055 0.9350
-0.0000 -24.5148 -2.3535 0.9062
0.8759 -24.5232 -2.3558 0.9061
1.7522 -24.4993 -2.3581 0.9060
2.6279 -24.4428 -2.3601 0.9059
1.6318 -11.3491 -1.1008 0.9550
4.1122 -12.3550 -1.2501 0.9490
4.7110 -12.6306 -1.2942 0.9473
12.6294 -21.2857 -2.3762 0.9053
15.5387 -19.2823 -2.3775 0.9053
16.2170 -18.7154 -2.3775 0.9053
16.8737 -18.1237 -2.3773 0.9053
17.5080 -17.5080 -2.3771 0.9053
14.3246 -11.5435 -1.7662 0.9287
14.0908 -10.5483 -1.6898 0.9317
20.8206 -13.3806 -2.3761 0.9053
23.2668 -8.6781 -2.3840 0.9050
23.5731 -7.8459 -2.3852 0.9050
25.1930 -7.3973 -2.5208 0.8999
25.6603 -6.5494 -2.5425 0.8990
26.0828 -4.7059 -2.5445 0.8990
26.2436 -3.7733 -2.5454 0.8989
26.5210 -0.9472 -2.5478 0.8988
-20.6396 0.0000 -2.4517 0.9202
-20.6229 -0.7365 -2.4513 0.9202
-20.5120 -2.2053 -2.4506 0.9203
-20.4180 -2.9357 -2.4503 0.9203
-19.0552 -7.8929 -2.4500 0.9203
-18.7627 -8.5687 -2.4502 0.9203
-18.4467 -9.2337 -2.4504 0.9203
-17.7455 -10.5289 -2.4510 0.9202
-17.3611 -11.1573 -2.4514 0.9202
-16.9549 -11.7720 -2.4519 0.9202
-16.0641 -12.9453 -2.4507 0.9203
-15.1689 -13.1439 -2.3842 0.9223
-14.1984 -13.2192 -2.3044 0.9248
-13.7215 -13.7215 -2.3051 0.9248
-12.7157 -14.6748 -2.3065 0.9248
-11.6447 -15.5556 -2.3082 0.9247
-11.0864 -15.9674 -2.3091 0.9247
-9.3277 -17.0824 -2.3120 0.9246
-8.7160 -17.4124 -2.3130 0.9246
-5.8873 -12.8914 -1.6835 0.9445
-6.6722 -17.8890 -2.2680 0.9260
-5.5064 -18.7531 -2.3217 0.9243
-4.8385 -18.9569 -2.3240 0.9242
-2.0993 -19.5266 -2.3329 0.9239
0.7033 -19.6924 -2.3407 0.9237
2.1095 -19.6208 -2.3441 0.9236
1.6315 -11.3472 -1.3618 0.9549
4.1091 -12.3459 -1.5456 0.9489
4.6909 -12.5767 -1.5945 0.9474
7.5844 -18.3104 -2.3542 0.9233
8.8772 -17.7343 -2.3558 0.9232
10.1246 -17.0641 -2.3569 0.9232
10.7291 -16.6948 -2.3573 0.9232
11.3196 -16.3033 -2.3576 0.9232
13.0052 -15.0088 -2.3590 0.9231
14.5603 -13.5562 -2.3631 0.9230
14.0925 -10.5495 -2.0911 0.9315
17.1631 -10.1833 -2.3706 0.9228
18.2979 -8.3564 -2.3895 0.9222
19.9578 -7.4439 -2.5302 0.9178
20.4535 -6.0057 -2.5322 0.9177
20.6620 -5.2737 -2.5330 0.9177
20.8440 -4.5343 -2.5339 0.9177
21.1270 -3.0376 -2.5354 0.9176
21.3008 -1.5235 -2.5367 0.9176
21.3465 -0.7624 -2.5373 0.9176
-17.3509 0.0000 -2.4584 0.9323
-17.3020 -1.2375 -2.4578 0.9323
-17.2449 -1.8540 -2.4575 0.9323
-17.1661 -2.4681 -2.4573 0.9323
-16.6372 -4.8851 -2.4568 0.9323
-16.4523 -5.4759 -2.4568 0.9323
-16.2467 -6.0597 -2.4569 0.9323
-15.7746 -7.2041 -2.4571 0.9323
-15.2232 -8.3125 -2.4576 0.9323
-14.9186 -8.8516 -2.4579 0.9323
-14.5951 -9.3797 -2.4582 0.9323
-14.2532 -9.8962 -2.4586 0.9323
-13.1211 -11.3695 -2.4600 0.9323
-11.7618 -12.6330 -2.4457 0.9326
-10.2423 -12.7100 -2.3128 0.9362
-8.8335 -13.7453 -2.3151 0.9361
-7.8361 -14.3507 -2.3167 0.9361
-6.2646 -15.1240 -2.3195 0.9360
-5.1741 -15.5455 -2.3214 0.9360
-2.9144 -16.1532 -2.3257 0.9358
-2.3371 -16.2547 -2.3268 0.9358
-1.7563 -16.3358 -2.3279 0.9358
-1.1727 -16.3962 -2.3291 0.9357
-0.5870 -16.4359 -2.3303 0.9357
0.5876 -16.4528 -2.3327 0.9357
1.6311 -11.3445 -1.6239 0.9548
7.4167 -14.8167 -2.3477 0.9353
8.4638 -14.2650 -2.3502 0.9352
8.9723 -13.9612 -2.3514 0.9352
9.4698 -13.6391 -2.3526 0.9351
10.8901 -12.5678 -2.3562 0.9350
12.9793 -10.4594 -2.3618 0.9349
14.0413 -9.0238 -2.3649 0.9348
14.8528 -8.8126 -2.4470 0.9326
15.5862 -8.5107 -2.5162 0.9308
15.9144 -7.9662 -2.5216 0.9306
16.1946 -7.3958 -2.5226 0.9306
16.4541 -6.8155 -2.5234 0.9306
16.6925 -6.2260 -2.5243 0.9306
17.5584 -3.1679 -2.5280 0.9305
17.7479 -1.9081 -2.5292 0.9304
17.8084 -1.2737 -2.5297 0.9304
17.8459 -0.6374 -2.5302 0.9304
-14.9114 -1.0665 -2.4628 0.9412
-14.8624 -1.5979 -2.4625 0.9412
-14.6038 -3.1769 -2.4621 0.9412
-14.4806 -3.6960 -2.4620 0.9412
-14.3393 -4.2104 -2.4620 0.9412
-14.1799 -4.7195 -2.4620 0.9412
-12.8573 -7.6286 -2.4629 0.9412
-12.2833 -8.5285 -2.4635 0.9412
-10.9520 -10.1967 -2.4652 0.9411
-10.5833 -10.5833 -2.4657 0.9411
-9.8058 -11.3166 -2.4668 0.9411
-8.9655 -11.9765 -2.4646 0.9412
-8.4338 -12.1470 -2.4361 0.9418
-7.7510 -12.0608 -2.3618 0.9435
-7.1844 -12.1087 -2.3195 0.9445
-6.3064 -12.5985 -2.3210 0.9445
-5.3952 -13.0253 -2.3226 0.9444
-4.4555 -13.3868 -2.3243 0.9444
-3.9764 -13.5424 -2.3251 0.9444
-1.0094 -14.1128 -2.3309 0.9443
0.5057 -14.1585 -2.3339 0.9442
1.5158 -14.0991 -2.3361 0.9441
3.0184 -13.8754 -2.3393 0.9441
2.9916 -11.7209 -1.9928 0.9521
3.4312 -11.6856 -2.0063 0.9518
3.8684 -11.6227 -2.0180 0.9516
4.7611 -11.4943 -2.0496 0.9508
5.2192 -11.4284 -2.0698 0.9503
6.3768 -12.7391 -2.3469 0.9439
8.1395 -11.7232 -2.3511 0.9438
8.5565 -11.4302 -2.3522 0.9438
8.9630 -11.1224 -2.3532 0.9437
9.3583 -10.8000 -2.3542 0.9437
9.7419 -10.4636 -2.3552 0.9437
10.8249 -9.3798 -2.3596 0.9436
12.8438 -8.2542 -2.5151 0.9400
13.6665 -6.8410 -2.5177 0.9399
14.1285 -5.8522 -2.5193 0.9399
14.8337 -3.7861 -2.5220 0.9398
15.2346 -1.6379 -2.5242 0.9398
15.2861 -1.0933 -2.5246 0.9398
15.3179 -0.5471 -2.5251 0.9398
-13.1256 0.0000 -2.4671 0.9480
-13.1158 -0.4684 -2.4668 0.9480
-13.0894 -0.9362 -2.4666 0.9480
-13.0466 -1.4027 -2.4664 0.9480
-12.8198 -2.7888 -2.4660 0.9480
-12.5877 -3.6961 -2.4659 0.9480
-12.2922 -4.5848 -2.4659 0.9480
-11.2862 -6.6964 -2.4667 0.9480
-11.0411 -7.0957 -2.4669 0.9480
-10.7821 -7.4861 -2.4672 0.9480
-10.2233 -8.2385 -2.4679 0.9480
-8.9531 -9.6163 -2.4696 0.9479
-7.8791 -10.5252 -2.4712 0.9479
-7.5002 -10.8024 -2.4718 0.9479
-6.3006 -11.5387 -2.4711 0.9479
-5.8760 -11.7388 -2.4674 0.9480
-4.3240 -11.5930 -2.3257 0.9509
-3.0630 -12.0008 -2.3280 0.9508
-2.6336 -12.1067 -2.3288 0.9508
-1.3259 -12.3323 -2.3313 0.9508
-0.8852 -12.3764 -2.3322 0.9508
0.8866 -12.3956 -2.3358 0.9507
1.3289 -12.3610 -2.3368 0.9507
2.9756 -11.6582 -2.2615 0.9522
3.4050 -11.5964 -2.2717 0.9520
3.8389 -11.5340 -2.2849 0.9517
4.7248 -11.4067 -2.3207 0.9510
5.1794 -11.3413 -2.3435 0.9505
5.5874 -11.1623 -2.3462 0.9505
6.3746 -10.7438 -2.3481 0.9504
6.7567 -10.5136 -2.3491 0.9504
7.1304 -10.2698 -2.3500 0.9504
7.8767 -9.7744 -2.3595 0.9502
8.3998 -9.6939 -2.4110 0.9491
9.4122 -9.4122 -2.5019 0.9473
9.7636 -9.0903 -2.5074 0.9472
10.0889 -8.7421 -2.5092 0.9471
10.3981 -8.3793 -2.5101 0.9471
11.2452 -7.2269 -2.5125 0.9470
11.4996 -6.8230 -2.5133 0.9470
12.1735 -5.5595 -2.5155 0.9470
12.3675 -5.1228 -2.5161 0.9470
12.5457 -4.6793 -2.5168 0.9470
12.7078 -4.2296 -2.5174 0.9469
12.8537 -3.7742 -2.5180 0.9469
13.0958 -2.8488 -2.5191 0.9469
13.1917 -2.3800 -2.5195 0.9469
13.2706 -1.9080 -2.5200 0.9469
-11.6854 0.0000 -2.4701 0.9533
-11.4954 -2.0740 -2.4691 0.9534
-11.4137 -2.4829 -2.4690 0.9534
-11.3175 -2.8886 -2.4690 0.9534
-11.2071 -3.2907 -2.4690 0.9534
-11.0825 -3.6886 -2.4690 0.9534
-10.9440 -4.0819 -2.4690 0.9534
-10.7916 -4.4700 -2.4691 0.9534
-10.6256 -4.8526 -2.4692 0.9534
-10.0480 -5.9618 -2.4697 0.9534
-9.8297 -6.3172 -2.4699 0.9534
-9.3560 -7.0038 -2.4704 0.9533
-9.1013 -7.3343 -2.4707 0.9533
-8.5573 -7.9672 -2.4715 0.9533
-6.6758 -9.6150 -2.4743 0.9533
-4.8686 -10.6607 -2.4773 0.9532
-4.0979 -10.9870 -2.4787 0.9532
-3.2988 -11.2346 -2.4750 0.9533
-1.6022 -11.1436 -2.3798 0.9550
-1.1918 -11.0851 -2.3567 0.9554
0.0000 -11.0458 -2.3349 0.9558
0.3944 -11.0426 -2.3357 0.9558
0.7886 -11.0254 -2.3365 0.9558
1.5742 -10.9488 -2.3382 0.9558
1.9647 -10.8895 -2.3390 0.9558
2.7385 -10.7294 -2.3407 0.9557
3.1208 -10.6286 -2.3415 0.9557
3.4995 -10.5143 -2.3424 0.9557
3.8739 -10.3864 -2.3432 0.9557
5.0819 -10.1524 -2.3999 0.9546
5.5072 -10.0857 -2.4290 0.9541
5.9435 -10.0173 -2.4621 0.9535
6.3781 -9.9245 -2.4937 0.9529
6.7383 -9.7050 -2.4974 0.9528
7.0916 -9.4733 -2.5014 0.9528
7.7583 -8.9536 -2.5043 0.9527
8.0756 -8.6739 -2.5051 0.9527
8.6794 -8.0808 -2.5067 0.9527
9.5021 -7.1132 -2.5090 0.9526
9.7528 -6.7715 -2.5097 0.9526
9.9911 -6.4209 -2.5105 0.9526
10.2167 -6.0619 -2.5111 0.9526
10.6287 -5.3204 -2.5124 0.9526
10.8145 -4.9388 -2.5131 0.9526
10.9865 -4.5508 -2.5137 0.9525
11.1445 -4.1567 -2.5142 0.9525
11.2882 -3.7571 -2.5148 0.9525
11.5321 -2.9434 -2.5158 0.9525
11.6319 -2.5304 -2.5163 0.9525
11.7867 -1.6947 -2.5171 0.9525
11.8415 -1.2731 -2.5175 0.9525
11.9053 -0.4252 -2.5181 0.9525
-10.5200 0.0000 -2.4724 0.9577
-10.4914 -0.7504 -2.4720 0.9577
-10.1893 -2.6007 -2.4715 0.9577
-9.9777 -3.3209 -2.4715 0.9577
-9.7158 -4.0244 -2.4716 0.9577
-9.5663 -4.3688 -2.4717 0.9577
-9.4047 -4.7077 -2.4718 0.9577
-9.2312 -5.0406 -2.4719 0.9577
-9.0461 -5.3673 -2.4721 0.9577
-8.1934 -6.6026 -2.4731 0.9577
-7.7035 -7.1722 -2.4737 0.9577
-7.4437 -7.4437 -2.4741 0.9577
-7.1744 -7.7058 -2.4745 0.9577
-6.8959 -7.9583 -2.4749 0.9577
-6.3129 -8.4330 -2.4758 0.9576
-6.0090 -8.6547 -2.4763 0.9576
-5.6975 -8.8654 -2.4768 0.9576
-5.3786 -9.0651 -2.4773 0.9576
-5.0527 -9.2533 -2.4778 0.9576
-4.7203 -9.4300 -2.4784 0.9576
-4.3818 -9.5947 -2.4790 0.9576
-4.0375 -9.7474 -2.4796 0.9576
-3.6879 -9.8878 -2.4802 0.9576
-2.6120 -10.2335 -2.4822 0.9575
-2.2457 -10.3231 -2.4829 0.9575
-1.8763 -10.3997 -2.4836 0.9575
-1.5044 -10.4631 -2.4843 0.9575
-1.1303 -10.5132 -2.4851 0.9575
-0.7545 -10.5493 -2.4857 0.9575
-0.3774 -10.5674 -2.4852 0.9575
0.3774 -10.5659 -2.4848 0.9575
1.8787 -10.4129 -2.4868 0.9575
2.2501 -10.3437 -2.4879 0.9574
2.6192 -10.2621 -2.4891 0.9574
2.9856 -10.1682 -2.4906 0.9574
3.3490 -10.0620 -2.4924 0.9574
3.7088 -9.9438 -2.4943 0.9573
5.0950 -9.3308 -2.4986 0.9573
5.4265 -9.1459 -2.4994 0.9572
5.7513 -8.9492 -2.5002 0.9572
6.3791 -8.5214 -2.5017 0.9572
7.5359 -7.5359 -2.5047 0.9572
7.8023 -7.2642 -2.5054 0.9571
8.5411 -6.3938 -2.5075 0.9571
8.9801 -5.7711 -2.5088 0.9571
9.1826 -5.4483 -2.5094 0.9571
9.3734 -5.1183 -2.5100 0.9571
9.5524 -4.7816 -2.5106 0.9571
9.7191 -4.4386 -2.5111 0.9570
10.3628 -2.6450 -2.5136 0.9570
10.4524 -2.2738 -2.5140 0.9570
10.5285 -1.8996 -2.5144 0.9570
10.5911 -1.5228 -2.5148 0.9570
10.6402 -1.1439 -2.5151 0.9570
10.6755 -0.7635 -2.5154 0.9570
-9.5568 0.0000 -2.4744 0.9613
-9.5499 -0.3411 -2.4742 0.9613
-9.5310 -0.6817 -2.4740 0.9613
-9.3353 -2.0308 -2.4736 0.9613
-9.0645 -3.0169 -2.4735 0.9613
-8.9511 -3.3386 -2.4736 0.9613
-8.8264 -3.6560 -2.4736 0.9613
-8.6906 -3.9689 -2.4737 0.9613
-8.5438 -4.2767 -2.4738 0.9613
-8.3861 -4.5792 -2.4739 0.9613
-7.2250 -6.2605 -2.4753 0.9613
-6.9978 -6.5152 -2.4756 0.9613
-6.5170 -6.9997 -2.4763 0.9613
-6.0029 -7.4491 -2.4770 0.9612
-5.7342 -7.6599 -2.4774 0.9612
-5.4581 -7.8611 -2.4779 0.9612
-4.5891 -8.4044 -2.4793 0.9612
-3.0274 -9.0958 -2.4821 0.9612
-2.7014 -9.2003 -2.4827 0.9612
-1.7038 -9.4436 -2.4846 0.9611
-1.3660 -9.5009 -2.4852 0.9611
-1.0263 -9.5461 -2.4859 0.9611
-0.6851 -9.5793 -2.4866 0.9611
-0.3429 -9.6003 -2.4873 0.9611
0.3431 -9.6057 -2.4887 0.9611
0.6859 -9.5901 -2.4894 0.9611
2.0461 -9.4058 -2.4923 0.9610
2.7135 -9.2413 -2.4938 0.9610
3.3678 -9.0296 -2.4952 0.9610
3.6891 -8.9062 -2.4960 0.9610
4.0058 -8.7715 -2.4967 0.9609
4.3176 -8.6254 -2.4974 0.9609
5.2194 -8.1215 -2.4996 0.9609
6.0627 -7.5234 -2.5017 0.9609
6.8377 -6.8377 -2.5037 0.9608
7.3118 -6.3357 -2.5050 0.9608
8.6655 -4.3376 -2.5090 0.9608
8.8166 -4.0264 -2.5095 0.9607
8.9564 -3.7099 -2.5100 0.9607
9.0848 -3.3884 -2.5105 0.9607
9.2016 -3.0626 -2.5109 0.9607
9.3066 -2.7327 -2.5114 0.9607
9.5497 -1.7230 -2.5125 0.9607
9.7022 -0.3465 -2.5137 0.9607
-8.7465 0.0000 -2.4761 0.9643
-8.6947 -0.9348 -2.4756 0.9643
-8.5440 -1.8586 -2.4753 0.9643
-8.4721 -2.1624 -2.4753 0.9643
-7.8196 -3.9142 -2.4755 0.9643
-7.5212 -4.4626 -2.4758 0.9643
-6.4043 -5.9626 -2.4771 0.9643
-6.1881 -6.1881 -2.4774 0.9643
-5.9641 -6.4059 -2.4778 0.9643
-5.7324 -6.6156 -2.4781 0.9643
-4.9947 -7.1938 -2.4792 0.9642
-3.9229 -7.8370 -2.4810 0.9642
-2.7700 -8.3225 -2.4831 0.9642
-2.4717 -8.4179 -2.4837 0.9642
-2.1702 -8.5027 -2.4842 0.9642
-0.9389 -8.7333 -2.4866 0.9641
-0.6268 -8.7635 -2.4872 0.9641
-0.3137 -8.7825 -2.4878 0.9641
0.9404 -8.7468 -2.4904 0.9641
1.5628 -8.6621 -2.4918 0.9641
1.8715 -8.6031 -2.4924 0.9641
2.1780 -8.5331 -2.4931 0.9641
4.2285 -7.7440 -2.4978 0.9640
4.5034 -7.5902 -2.4985 0.9640
4.7727 -7.4265 -2.4991 0.9640
5.2931 -7.0708 -2.5004 0.9639
6.4724 -6.0260 -2.5035 0.9639
6.6849 -5.7925 -2.5041 0.9639
6.8890 -5.5515 -2.5046 0.9639
7.0843 -5.3032 -2.5052 0.9639
7.4477 -4.7864 -2.5063 0.9639
7.6154 -4.5184 -2.5068 0.9639
7.9214 -3.9652 -2.5077 0.9638
8.0594 -3.6806 -2.5082 0.9638
8.1870 -3.3912 -2.5087 0.9638
8.6657 -1.8851 -2.5106 0.9638
8.7803 -1.2624 -2.5112 0.9638
8.8499 -0.6330 -2.5117 0.9638
8.8677 -0.3167 -2.5120 0.9638
-8.0548 0.0000 -2.4775 0.9669
-8.0333 -0.5746 -2.4772 0.9669
-8.0073 -0.8609 -2.4771 0.9669
-7.9248 -1.4298 -2.4769 0.9669
-7.8686 -1.7117 -2.4768 0.9669
-7.6403 -2.5429 -2.4767 0.9669
-7.4397 -3.0816 -2.4768 0.9669
-7.3251 -3.3453 -2.4769 0.9669
-6.6166 -4.5940 -2.4776 0.9669
-6.4489 -4.8276 -2.4778 0.9668
-6.2730 -5.0551 -2.4780 0.9668
-6.0892 -5.2763 -2.4782 0.9668
-5.8976 -5.4909 -2.4785 0.9668
-5.2788 -6.0920 -2.4794 0.9668
-5.0586 -6.2774 -2.4797 0.9668
-3.0893 -7.4582 -2.4830 0.9668
-2.2757 -7.7503 -2.4845 0.9668
-1.9980 -7.8283 -2.4850 0.9668
-0.8644 -8.0400 -2.4872 0.9667
-0.5770 -8.0676 -2.4878 0.9667
1.4385 -7.9731 -2.4919 0.9667
1.7226 -7.9186 -2.4926 0.9667
2.2842 -7.7794 -2.4938 0.9666
2.5611 -7.6949 -2.4944 0.9666
2.8348 -7.6004 -2.4950 0.9666
4.1443 -6.9849 -2.4981 0.9666
4.6343 -6.6747 -2.4993 0.9666
5.5422 -5.9527 -2.5016 0.9665
5.7524 -5.7524 -2.5022 0.9665
5.9553 -5.5446 -2.5027 0.9665
6.1508 -5.3297 -2.5033 0.9665
6.3384 -5.1078 -2.5038 0.9665
6.5180 -4.8793 -2.5043 0.9665
6.6893 -4.6445 -2.5048 0.9665
6.8522 -4.4036 -2.5053 0.9665
7.0063 -4.1570 -2.5058 0.9665
7.1515 -3.9050 -2.5062 0.9665
7.4144 -3.3861 -2.5071 0.9665
7.5318 -3.1198 -2.5075 0.9665
7.6395 -2.8494 -2.5079 0.9665
7.7375 -2.5753 -2.5082 0.9664
7.9037 -2.0173 -2.5089 0.9664
7.9717 -1.7341 -2.5093 0.9664
8.0769 -1.1613 -2.5098 0.9664
8.1140 -0.8723 -2.5101 0.9664
8.1571 -0.2913 -2.5105 0.9664
-7.4517 -0.2661 -2.4786 0.9691
-7.4370 -0.5319 -2.4784 0.9691
-7.3795 -1.0610 -2.4782 0.9691
-7.3367 -1.3237 -2.4781 0.9691
-7.2233 -1.8436 -2.4780 0.9691
-7.1528 -2.1003 -2.4780 0.9691
-7.0733 -2.3542 -2.4780 0.9691
-6.9849 -2.6052 -2.4781 0.9691
-6.7815 -3.0970 -2.4782 0.9691
-6.6669 -3.3372 -2.4782 0.9691
-6.4124 -3.8047 -2.4785 0.9691
-6.2729 -4.0313 -2.4786 0.9691
-5.9701 -4.4692 -2.4790 0.9691
-5.6371 -4.8846 -2.4794 0.9690
-5.2753 -5.2753 -2.4799 0.9690
-5.0842 -5.4608 -2.4802 0.9690
-4.6828 -5.8110 -2.4808 0.9690
-4.4730 -5.9753 -2.4811 0.9690
-4.2575 -6.1320 -2.4814 0.9690
-3.5792 -6.5549 -2.4826 0.9690
-3.3435 -6.6796 -2.4830 0.9690
-3.1035 -6.7958 -2.4834 0.9690
-2.3606 -7.0924 -2.4847 0.9690
-2.1063 -7.1735 -2.4852 0.9690
-1.5898 -7.3084 -2.4862 0.9690
-1.3282 -7.3619 -2.4867 0.9690
-0.5340 -7.4664 -2.4882 0.9689
-0.2672 -7.4823 -2.4888 0.9689
0.2673 -7.4856 -2.4899 0.9689
1.0667 -7.4192 -2.4915 0.9689
1.3311 -7.3780 -2.4921 0.9689
1.5940 -7.3275 -2.4927 0.9689
1.8549 -7.2676 -2.4932 0.9689
2.1137 -7.1984 -2.4938 0.9689
3.1194 -6.8306 -2.4961 0.9688
3.6004 -6.5937 -2.4972 0.9688
3.8343 -6.4624 -2.4978 0.9688
4.0635 -6.3229 -2.4984 0.9688
4.5062 -6.0195 -2.4995 0.9688
5.5091 -5.1292 -2.5021 0.9688
6.0293 -4.5135 -2.5035 0.9688
7.2379 -2.1253 -2.5075 0.9687
7.3101 -1.8658 -2.5078 0.9687
7.4263 -1.3399 -2.5084 0.9687
7.5044 -0.8068 -2.5089 0.9687
7.5441 -0.2694 -2.5093 0.9687
-6.9344 0.0000 -2.4798 0.9710
-6.8936 -0.7411 -2.4794 0.9710
-6.8227 -1.2309 -2.4792 0.9710
-6.7173 -1.7145 -2.4792 0.9710
-6.6518 -1.9531 -2.4791 0.9710
-6.5778 -2.1893 -2.4791 0.9710
-6.4955 -2.4227 -2.4792 0.9710
-6.1998 -3.1034 -2.4793 0.9710
-6.0853 -3.3228 -2.4794 0.9710
-5.8334 -3.7489 -2.4797 0.9710
-5.6962 -3.9549 -2.4798 0.9710
-5.4003 -4.3518 -2.4802 0.9710
-5.2420 -4.5422 -2.4804 0.9710
-5.0770 -4.7268 -2.4806 0.9710
-3.7533 -5.8403 -2.4826 0.9709
-3.1089 -6.2108 -2.4837 0.9709
-2.6587 -6.4188 -2.4845 0.9709
-2.4283 -6.5107 -2.4849 0.9709
-2.1948 -6.5943 -2.4854 0.9709
-1.7194 -6.7365 -2.4862 0.9709
-1.2349 -6.8445 -2.4872 0.9709
-0.9900 -6.8856 -2.4877 0.9709
-0.4965 -6.9414 -2.4886 0.9709
-0.2484 -6.9561 -2.4891 0.9709
0.2485 -6.9589 -2.4901 0.9709
0.4969 -6.9470 -2.4907 0.9708
0.7447 -6.9263 -2.4912 0.9708
1.9647 -6.6912 -2.4938 0.9708
2.2027 -6.6182 -2.4944 0.9708
2.4381 -6.5368 -2.4949 0.9708
2.8994 -6.3489 -2.4960 0.9708
3.1249 -6.2427 -2.4965 0.9708
3.7766 -5.8766 -2.4981 0.9708
3.9848 -5.7392 -2.4986 0.9708
4.3858 -5.4425 -2.4996 0.9707
4.7648 -5.1178 -2.5006 0.9707
4.9454 -4.9454 -2.5010 0.9707
5.1197 -4.7666 -2.5015 0.9707
5.2875 -4.5817 -2.5020 0.9707
6.0222 -3.5731 -2.5041 0.9707
6.2636 -3.1354 -2.5049 0.9707
6.3725 -2.9102 -2.5052 0.9707
6.5657 -2.4489 -2.5059 0.9707
6.6497 -2.2132 -2.5062 0.9707
6.7253 -1.9747 -2.5065 0.9707
6.7923 -1.7336 -2.5068 0.9707
6.8506 -1.4903 -2.5071 0.9707
6.9726 -0.7496 -2.5078 0.9706
7.0094 -0.2504 -2.5082 0.9706
-6.4689 -0.2310 -2.4806 0.9727
-6.4563 -0.4618 -2.4805 0.9727
-6.4064 -0.9211 -2.4803 0.9727
-6.3241 -1.3757 -2.4802 0.9727
-6.1407 -2.0438 -2.4801 0.9727
-5.9794 -2.4767 -2.4802 0.9727
-5.6809 -3.1020 -2.4804 0.9727
-5.4456 -3.4997 -2.4806 0.9727
-5.1827 -3.8797 -2.4809 0.9726
-5.0413 -4.0625 -2.4811 0.9726
-4.8934 -4.2402 -2.4813 0.9726
-4.2418 -4.8952 -2.4822 0.9726
-4.0648 -5.0441 -2.4825 0.9726
-3.8826 -5.1865 -2.4828 0.9726
-3.6954 -5.3224 -2.4831 0.9726
-3.5036 -5.4516 -2.4834 0.9726
-3.3072 -5.5740 -2.4837 0.9726
-3.1065 -5.6892 -2.4841 0.9726
-2.9019 -5.7973 -2.4844 0.9726
-2.4817 -5.9913 -2.4852 0.9726
-1.1526 -6.3883 -2.4876 0.9726
-0.9240 -6.4265 -2.4881 0.9726
-0.4633 -6.4784 -2.4890 0.9726
0.0000 -6.4974 -2.4899 0.9726
0.2320 -6.4945 -2.4904 0.9725
0.9254 -6.4363 -2.4919 0.9725
1.6091 -6.3042 -2.4933 0.9725
1.8334 -6.2440 -2.4938 0.9725
2.0555 -6.1758 -2.4943 0.9725
2.4919 -6.0159 -2.4953 0.9725
3.1225 -5.7184 -2.4968 0.9725
4.0921 -5.0780 -2.4992 0.9725
4.2715 -4.9296 -2.4997 0.9724
4.7766 -4.4472 -2.5010 0.9724
4.9331 -4.2746 -2.5014 0.9724
5.3644 -3.7246 -2.5027 0.9724
5.6182 -3.3334 -2.5034 0.9724
5.7344 -3.1312 -2.5038 0.9724
5.9448 -2.7149 -2.5045 0.9724
6.0387 -2.5013 -2.5048 0.9724
6.1249 -2.2845 -2.5051 0.9724
6.2737 -1.8421 -2.5057 0.9724
6.3905 -1.3902 -2.5062 0.9724
6.4367 -1.1613 -2.5065 0.9724
6.5042 -0.6993 -2.5069 0.9724
6.5255 -0.4667 -2.5071 0.9724
-6.0633 0.0000 -2.4816 0.9741
-6.0592 -0.2164 -2.4814 0.9741
-6.0473 -0.4325 -2.4813 0.9741
-6.0278 -0.6481 -2.4812 0.9741
-5.9659 -1.0764 -2.4811 0.9741
-5.9235 -1.2886 -2.4811 0.9741
-5.7518 -1.9144 -2.4810 0.9741
-5.6798 -2.1185 -2.4810 0.9741
-5.4211 -2.7136 -2.4812 0.9741
-5.2141 -3.0937 -2.4814 0.9741
-4.5834 -3.9715 -2.4821 0.9741
-4.1336 -4.4398 -2.4827 0.9741
-3.9729 -4.5850 -2.4830 0.9741
-3.6364 -4.8577 -2.4835 0.9741
-3.4611 -4.9850 -2.4838 0.9741
-3.2814 -5.1059 -2.4841 0.9741
-3.0974 -5.2205 -2.4844 0.9741
-2.9095 -5.3284 -2.4847 0.9741
-2.5227 -5.5238 -2.4854 0.9741
-2.3242 -5.6112 -2.4857 0.9741
-1.9186 -5.7644 -2.4865 0.9741
-1.5029 -5.8884 -2.4872 0.9741
-1.2920 -5.9392 -2.4876 0.9741
-1.0794 -5.9825 -2.4880 0.9741
-0.8653 -6.0183 -2.4885 0.9741
-0.6501 -6.0463 -2.4889 0.9741
-0.4339 -6.0667 -2.4893 0.9741
-0.0000 -6.0844 -2.4902 0.9740
0.2172 -6.0816 -2.4906 0.9740
0.4342 -6.0711 -2.4911 0.9740
0.6507 -6.0528 -2.4915 0.9740
1.9246 -5.7826 -2.4943 0.9740
2.1302 -5.7113 -2.4948 0.9740
2.3331 -5.6327 -2.4952 0.9740
2.5332 -5.5468 -2.4957 0.9740
2.7300 -5.4539 -2.4962 0.9740
2.9235 -5.3540 -2.4966 0.9740
3.2992 -5.1336 -2.4975 0.9740
3.6583 -4.8869 -2.4984 0.9740
4.6182 -4.0017 -2.5010 0.9739
5.0218 -3.4867 -2.5021 0.9739
5.3680 -2.9311 -2.5032 0.9739
5.7333 -2.1384 -2.5044 0.9739
5.8066 -1.9326 -2.5047 0.9739
5.9310 -1.5138 -2.5052 0.9739
6.0604 -0.8714 -2.5059 0.9739
6.1080 -0.4369 -2.5062 0.9739
6.1201 -0.2186 -2.5064 0.9739
-5.6958 0.0000 -2.4823 0.9755
-5.6919 -0.2033 -2.4822 0.9755
-5.6625 -0.6088 -2.4820 0.9755
-5.6043 -1.0111 -2.4819 0.9755
-5.5645 -1.2105 -2.4818 0.9755
-5.4639 -1.6044 -2.4818 0.9755
-5.3356 -1.9901 -2.4818 0.9755
-5.1802 -2.3657 -2.4819 0.9755
-4.8981 -2.9062 -2.4821 0.9755
-4.6787 -3.2485 -2.4824 0.9755
-4.4356 -3.5744 -2.4827 0.9755
-4.0290 -4.0290 -2.4832 0.9754
-3.8829 -4.1706 -2.4834 0.9754
-3.7319 -4.3069 -2.4836 0.9754
-3.5762 -4.4378 -2.4839 0.9754
-3.4159 -4.5630 -2.4841 0.9754
-3.0823 -4.7961 -2.4847 0.9754
-2.9095 -4.9037 -2.4850 0.9754
-2.7329 -5.0050 -2.4853 0.9754
-2.5529 -5.1000 -2.4856 0.9754
-2.1831 -5.2705 -2.4862 0.9754
-1.9939 -5.3458 -2.4866 0.9754
-1.4116 -5.5307 -2.4876 0.9754
-1.0138 -5.6190 -2.4884 0.9754
-0.8127 -5.6525 -2.4888 0.9754
-0.6105 -5.6788 -2.4892 0.9754
-0.4075 -5.6979 -2.4896 0.9754
-0.2039 -5.7098 -2.4900 0.9754
0.0000 -5.7144 -2.4904 0.9754
0.2040 -5.7117 -2.4908 0.9754
0.4078 -5.7017 -2.4913 0.9754
0.8138 -5.6601 -2.4921 0.9754
1.0155 -5.6284 -2.4926 0.9754
1.4149 -5.5435 -2.4934 0.9753
1.8074 -5.4304 -2.4943 0.9753
2.0004 -5.3634 -2.4947 0.9753
2.1910 -5.2895 -2.4952 0.9753
2.5636 -5.1215 -2.4960 0.9753
2.9235 -4.9272 -2.4969 0.9753
3.0980 -4.8206 -2.4973 0.9753
3.2686 -4.7077 -2.4977 0.9753
3.4351 -4.5888 -2.4982 0.9753
3.9079 -4.1974 -2.4994 0.9753
4.0558 -4.0558 -2.4998 0.9753
4.4682 -3.6007 -2.5009 0.9753
5.1356 -2.5707 -2.5029 0.9753
5.2247 -2.3860 -2.5032 0.9752
5.3071 -2.1983 -2.5035 0.9752
5.5134 -1.6189 -2.5043 0.9752
5.5682 -1.4212 -2.5045 0.9752
5.6564 -1.0205 -2.5050 0.9752
5.7157 -0.6145 -2.5053 0.9752
-5.3501 -0.3826 -2.4828 0.9766
-5.3088 -0.7633 -2.4826 0.9766
-5.2781 -0.9523 -2.4826 0.9766
-5.1459 -1.5110 -2.4825 0.9766
-4.8787 -2.2280 -2.4826 0.9766
-4.6130 -2.7370 -2.4828 0.9766
-4.4063 -3.0594 -2.4831 0.9766
-4.1773 -3.3663 -2.4833 0.9766
-4.0548 -3.5135 -2.4835 0.9766
-3.9271 -3.6562 -2.4837 0.9766
-3.6568 -3.9277 -2.4840 0.9766
-3.5146 -4.0560 -2.4843 0.9766
-3.2168 -4.2972 -2.4847 0.9766
-2.9027 -4.5167 -2.4852 0.9766
-2.7399 -4.6179 -2.4855 0.9766
-2.5736 -4.7133 -2.4858 0.9766
-2.2314 -4.8860 -2.4864 0.9766
-1.8776 -5.0341 -2.4870 0.9766
-1.5141 -5.1566 -2.4877 0.9766
-0.3837 -5.3653 -2.4898 0.9766
-0.1920 -5.3764 -2.4902 0.9766
-0.0000 -5.3807 -2.4906 0.9766
0.7662 -5.3293 -2.4922 0.9765
2.4136 -4.8218 -2.4959 0.9765
2.7523 -4.6388 -2.4967 0.9765
2.9166 -4.5383 -2.4971 0.9765
3.0772 -4.4320 -2.4975 0.9765
3.2340 -4.3201 -2.4979 0.9765
3.3866 -4.2025 -2.4983 0.9765
3.8182 -3.8182 -2.4994 0.9765
4.0820 -3.5371 -2.5001 0.9765
4.2062 -3.3896 -2.5005 0.9765
4.3251 -3.2377 -2.5008 0.9765
4.4385 -3.0817 -2.5012 0.9765
4.5462 -2.9217 -2.5015 0.9765
4.8343 -2.4199 -2.5024 0.9765
5.1316 -1.7080 -2.5034 0.9764
5.1898 -1.5239 -2.5037 0.9764
5.2413 -1.3378 -2.5039 0.9764
5.2862 -1.1499 -2.5041 0.9764
5.3556 -0.7700 -2.5045 0.9764
5.3800 -0.5784 -2.5047 0.9764
5.4082 -0.1932 -2.5050 0.9764
-5.0632 0.0000 -2.4836 0.9777
-5.0499 -0.3612 -2.4834 0.9777
-4.9050 -1.2519 -2.4832 0.9777
-4.8572 -1.4262 -2.4832 0.9777
-4.6050 -2.1030 -2.4832 0.9777
-4.5271 -2.2661 -2.4833 0.9777
-4.1591 -2.8877 -2.4837 0.9777
-4.0536 -3.0345 -2.4838 0.9777
-3.9429 -3.1774 -2.4839 0.9777
-3.8272 -3.3163 -2.4841 0.9777
-3.7067 -3.4510 -2.4842 0.9777
-3.5814 -3.5814 -2.4844 0.9777
-3.1788 -3.9446 -2.4850 0.9777
-3.0362 -4.0559 -2.4852 0.9777
-2.8898 -4.1621 -2.4855 0.9777
-2.5860 -4.3585 -2.4860 0.9777
-2.2690 -4.5329 -2.4865 0.9777
-1.9403 -4.6843 -2.4871 0.9777
-1.7721 -4.7512 -2.4874 0.9777
-1.6016 -4.8120 -2.4877 0.9777
-1.4290 -4.8667 -2.4880 0.9777
-1.0785 -4.9576 -2.4887 0.9776
0.0000 -5.0779 -2.4908 0.9776
0.1813 -5.0754 -2.4912 0.9776
0.3624 -5.0665 -2.4916 0.9776
0.5430 -5.0511 -2.4919 0.9776
0.7231 -5.0292 -2.4923 0.9776
1.7773 -4.7650 -2.4947 0.9776
1.9465 -4.6993 -2.4950 0.9776
2.2775 -4.5499 -2.4958 0.9776
2.7521 -4.2823 -2.4970 0.9776
3.0515 -4.0763 -2.4977 0.9776
3.1955 -3.9654 -2.4981 0.9776
3.4712 -3.7283 -2.4988 0.9776
3.7294 -3.4722 -2.4995 0.9776
4.0808 -3.0548 -2.5004 0.9775
4.1877 -2.9076 -2.5008 0.9775
4.3855 -2.6021 -2.5014 0.9775
4.6401 -2.1191 -2.5022 0.9775
4.8414 -1.6114 -2.5029 0.9775
4.8963 -1.4377 -2.5031 0.9775
4.9449 -1.2621 -2.5033 0.9775
4.9872 -1.0849 -2.5035 0.9775
5.0231 -0.9063 -2.5037 0.9775
5.0756 -0.5457 -2.5041 0.9775
5.0922 -0.3642 -2.5042 0.9775
5.1022 -0.1822 -2.5043 0.9775
-4.7885 0.0000 -2.4842 0.9787
-4.7760 -0.3416 -2.4840 0.9787
-4.7606 -0.5118 -2.4839 0.9787
-4.7117 -0.8501 -2.4838 0.9787
-4.6390 -1.1840 -2.4838 0.9787
-4.5427 -1.5119 -2.4837 0.9787
-4.4858 -1.6731 -2.4838 0.9787
-4.4233 -1.8322 -2.4838 0.9787
-4.3552 -1.9889 -2.4838 0.9787
-4.2815 -2.1432 -2.4839 0.9787
-4.1179 -2.4433 -2.4840 0.9787
-4.0283 -2.5888 -2.4841 0.9787
-3.9335 -2.7310 -2.4842 0.9787
-3.8337 -2.8698 -2.4843 0.9787
-3.7290 -3.0050 -2.4845 0.9787
-3.6195 -3.1364 -2.4846 0.9786
-3.1372 -3.6206 -2.4853 0.9786
-3.0062 -3.7305 -2.4855 0.9786
-2.5909 -4.0316 -2.4862 0.9786
-2.1458 -4.2867 -2.4869 0.9786
-1.9916 -4.3610 -2.4872 0.9786
-1.3513 -4.6023 -2.4883 0.9786
-1.1864 -4.6481 -2.4887 0.9786
-1.0198 -4.6881 -2.4890 0.9786
-0.8520 -4.7221 -2.4893 0.9786
-0.6830 -4.7502 -2.4896 0.9786
-0.5131 -4.7721 -2.4900 0.9786
0.1714 -4.7992 -2.4913 0.9786
0.3426 -4.7908 -2.4917 0.9786
0.5135 -4.7762 -2.4921 0.9786
0.8531 -4.7288 -2.4928 0.9786
1.3544 -4.6125 -2.4939 0.9786
1.5183 -4.5619 -2.4943 0.9786
1.8405 -4.4433 -2.4950 0.9786
1.9982 -4.3754 -2.4954 0.9786
2.4555 -4.1385 -2.4964 0.9785
2.6020 -4.0488 -2.4968 0.9785
2.7453 -3.9539 -2.4971 0.9785
2.8850 -3.8540 -2.4975 0.9785
3.0212 -3.7490 -2.4978 0.9785
3.2818 -3.5249 -2.4985 0.9785
3.5258 -3.2827 -2.4992 0.9785
3.6412 -3.1551 -2.4995 0.9785
3.7520 -3.0235 -2.4998 0.9785
3.8580 -2.8880 -2.5001 0.9785
4.0551 -2.6061 -2.5007 0.9785
4.1460 -2.4599 -2.5010 0.9785
4.3118 -2.1584 -2.5015 0.9785
4.3866 -2.0033 -2.5017 0.9785
4.5192 -1.6856 -2.5022 0.9785
4.6287 -1.3591 -2.5026 0.9785
4.6746 -1.1931 -2.5028 0.9785
4.7146 -1.0256 -2.5030 0.9785
4.7764 -0.6867 -2.5034 0.9785
4.7981 -0.5159 -2.5035 0.9785
-4.5366 0.0000 -2.4847 0.9795
-4.5247 -0.3236 -2.4845 0.9795
-4.5101 -0.4849 -2.4845 0.9795
-4.4898 -0.6455 -2.4844 0.9795
-4.4639 -0.8054 -2.4843 0.9795
-4.4322 -0.9642 -2.4843 0.9795
-4.3949 -1.1217 -2.4843 0.9795
-4.3037 -1.4324 -2.4843 0.9795
-4.2499 -1.5851 -2.4843 0.9795
-4.0563 -2.0304 -2.4844 0.9795
-3.8163 -2.4526 -2.4846 0.9795
-3.7265 -2.5874 -2.4847 0.9795
-3.6319 -2.7188 -2.4849 0.9795
-2.9721 -3.4300 -2.4858 0.9795
-2.7202 -3.6338 -2.4861 0.9795
-2.5890 -3.7289 -2.4864 0.9795
-2.4545 -3.8193 -2.4866 0.9795
-2.3168 -3.9048 -2.4868 0.9795
-2.0328 -4.0609 -2.4873 0.9795
-1.7382 -4.1965 -2.4878 0.9795
-0.9661 -4.4410 -2.4892 0.9795
-0.8071 -4.4732 -2.4895 0.9795
-0.3244 -4.5356 -2.4905 0.9795
-0.1623 -4.5448 -2.4908 0.9795
0.3246 -4.5380 -2.4918 0.9795
0.4864 -4.5241 -2.4922 0.9795
1.1259 -4.4113 -2.4935 0.9795
1.2828 -4.3689 -2.4939 0.9794
1.4382 -4.3209 -2.4942 0.9794
1.7432 -4.2085 -2.4949 0.9794
1.8926 -4.1442 -2.4953 0.9794
2.1840 -3.9997 -2.4960 0.9794
2.4645 -3.8348 -2.4966 0.9794
2.6001 -3.7449 -2.4970 0.9794
2.9867 -3.4468 -2.4980 0.9794
3.3393 -3.1090 -2.4989 0.9794
3.4485 -2.9882 -2.4992 0.9794
3.5534 -2.8635 -2.4995 0.9794
3.6538 -2.7352 -2.4998 0.9794
3.7495 -2.6033 -2.5001 0.9794
3.8404 -2.4681 -2.5003 0.9794
3.9265 -2.3297 -2.5006 0.9794
4.0835 -2.0440 -2.5011 0.9794
4.1542 -1.8972 -2.5013 0.9794
4.2197 -1.7479 -2.5016 0.9794
4.3344 -1.4426 -2.5020 0.9794
4.3834 -1.2871 -2.5022 0.9794
4.4969 -0.8113 -2.5027 0.9794
4.5438 -0.4885 -2.5030 0.9794
4.5676 -0.1631 -2.5033 0.9794
-4.2794 -0.4601 -2.4849 0.9803
-4.2355 -0.7642 -2.4848 0.9803
-4.0835 -1.3591 -2.4848 0.9803
-3.9762 -1.6470 -2.4848 0.9803
-3.9150 -1.7879 -2.4849 0.9803
-3.7776 -2.0627 -2.4850 0.9803
-3.5358 -2.4550 -2.4852 0.9803
-3.3520 -2.7012 -2.4854 0.9803
-3.1511 -2.9338 -2.4857 0.9803
-2.9341 -3.1515 -2.4860 0.9803
-2.5810 -3.4478 -2.4865 0.9803
-2.4565 -3.5380 -2.4867 0.9803
-2.3288 -3.6237 -2.4870 0.9803
-2.1982 -3.7049 -2.4872 0.9803
-2.0647 -3.7813 -2.4874 0.9803
-0.7657 -4.2439 -2.4898 0.9803
-0.6138 -4.2690 -2.4901 0.9803
-0.4611 -4.2887 -2.4904 0.9803
0.1540 -4.3129 -2.4916 0.9803
0.3079 -4.3052 -2.4919 0.9803
0.4614 -4.2920 -2.4923 0.9803
0.6144 -4.2733 -2.4926 0.9803
0.7666 -4.2492 -2.4929 0.9803
0.9179 -4.2197 -2.4932 0.9803
1.0681 -4.1848 -2.4936 0.9802
1.2170 -4.1446 -2.4939 0.9802
1.3643 -4.0990 -2.4942 0.9802
1.5099 -4.0483 -2.4946 0.9802
1.6537 -3.9923 -2.4949 0.9802
1.7954 -3.9313 -2.4952 0.9802
1.9348 -3.8652 -2.4955 0.9802
2.0718 -3.7942 -2.4959 0.9802
2.3378 -3.6377 -2.4965 0.9802
2.4664 -3.5523 -2.4968 0.9802
2.5920 -3.4625 -2.4971 0.9802
2.7143 -3.3682 -2.4975 0.9802
2.9483 -3.1667 -2.4981 0.9802
3.1675 -2.9490 -2.4986 0.9802
3.4657 -2.5944 -2.4995 0.9802
3.5565 -2.4693 -2.4997 0.9802
3.6427 -2.3411 -2.5000 0.9802
3.8732 -1.9388 -2.5007 0.9802
4.0593 -1.5141 -2.5014 0.9802
4.1989 -1.0717 -2.5019 0.9802
4.3097 -0.4633 -2.5025 0.9802
