ply
format ascii 1.0
element vertex 1354
property float32 x
property float32 y
property float32 z
property float32 I
end_header
23.9549 8.9347 4.5081 0.9014
37.7844 18.9135 7.4505 0.8423
34.6089 18.8979 6.9530 0.8520
24.7936 18.5602 5.4610 0.8818
23.6466 19.0557 5.3549 0.8840
22.0012 19.0642 5.1332 0.8885
17.7691 19.0854 4.5980 0.8995
8.2534 10.2418 2.3193 0.9480
13.2671 19.1082 4.1018 0.9098
9.5741 19.1266 3.7715 0.9168
3.9539 8.6577 1.6783 0.9621
6.5594 25.6996 4.6768 0.8979
4.1850 19.2381 3.4715 0.9231
3.3951 18.8180 3.3717 0.9253
2.7062 18.8216 3.3529 0.9257
-0.9193 25.7389 4.5414 0.9007
-2.0566 19.1291 3.3924 0.9248
-2.7103 18.8506 3.3580 0.9256
-3.4017 18.8543 3.3782 0.9251
-4.1899 19.2608 3.4756 0.9231
-6.5245 19.6028 3.6429 0.9195
-7.1984 19.2997 3.6321 0.9197
-9.6256 19.2295 3.7917 0.9164
-10.5571 19.3338 3.8842 0.9144
-11.5395 19.4489 3.9876 0.9122
-12.4133 19.3155 4.0485 0.9110
-13.3657 19.2503 4.1323 0.9092
-16.6935 19.2654 4.4949 0.9016
-10.7852 10.0413 2.5983 0.9419
23.9526 8.9339 3.9163 0.9017
45.4850 18.8405 7.5422 0.8194
36.2929 18.1669 6.2175 0.8485
34.7903 18.9970 6.0725 0.8518
27.4160 19.0353 5.1131 0.8737
21.9983 19.0616 4.4592 0.8889
14.0446 18.7614 3.5903 0.9095
14.9188 25.1442 4.4789 0.8884
13.7749 25.2268 4.4032 0.8902
3.9535 8.6569 1.4579 0.9622
6.5719 25.7485 4.0710 0.8980
4.2168 19.3841 3.0390 0.9229
3.3951 18.8175 2.9293 0.9255
2.7061 18.8212 2.9129 0.9259
1.3850 19.3649 2.9742 0.9244
0.0000 25.9394 3.9738 0.9004
-1.3972 19.5359 3.0004 0.9238
-2.0652 19.2095 2.9597 0.9248
-2.7102 18.8501 2.9174 0.9258
-3.4016 18.8538 2.9349 0.9254
-4.2021 19.3168 3.0284 0.9231
-6.5935 25.8333 4.0844 0.8977
-5.7944 19.7340 3.1508 0.9201
-8.4660 25.4361 4.1068 0.8972
-7.2429 19.4190 3.1751 0.9196
-9.5954 19.1693 3.2840 0.9169
-13.8536 25.3710 4.4284 0.8896
-19.4176 32.7267 5.8296 0.8573
-12.5260 19.4908 3.5493 0.9105
-13.3235 19.1895 3.5788 0.9098
-14.1573 18.9120 3.6191 0.9088
-15.2424 18.9146 3.7214 0.9064
-16.8236 19.4155 3.9356 0.9013
-18.0596 19.3974 4.0601 0.8983
23.9504 8.9331 3.3287 0.9020
44.0212 18.2342 6.2048 0.8251
37.0773 18.5596 5.3994 0.8460
34.7884 18.9959 5.1615 0.8522
29.5991 19.0222 4.5818 0.8677
22.2571 19.2859 3.8350 0.8880
20.1163 18.7289 3.5791 0.8951
18.0565 19.3941 3.4507 0.8986
17.0208 19.6431 3.3846 0.9005
8.2597 10.2497 1.7142 0.9483
14.0441 18.7608 3.0517 0.9098
13.2745 19.1190 3.0310 0.9104
15.2194 25.6510 3.8840 0.8866
13.8240 25.3167 3.7562 0.8902
9.6120 19.2024 2.7963 0.9170
3.9531 8.6561 1.2392 0.9623
8.4357 25.3451 3.4785 0.8979
5.7495 19.5812 2.6575 0.9210
4.2468 19.5223 2.6017 0.9226
2.7060 18.8207 2.4760 0.9262
2.0500 19.0677 2.4973 0.9256
-1.4018 19.6001 2.5589 0.9238
-2.0672 19.2279 2.5183 0.9250
-4.2147 19.3747 2.5820 0.9231
-5.7537 19.5951 2.6594 0.9209
-8.4657 25.4354 3.4909 0.8975
-7.2542 19.4492 2.7031 0.9197
-7.9362 19.1597 2.7006 0.9197
-18.8946 31.8451 4.8219 0.8613
-12.6884 19.7435 3.0562 0.9097
-14.1569 18.9114 3.0763 0.9091
-19.7008 22.7359 3.9176 0.8857
41.5160 18.9597 4.9010 0.8323
36.9636 18.5027 4.4387 0.8468
31.4645 18.6687 3.9287 0.8631
29.7032 19.0891 3.7915 0.8676
28.0166 19.4523 3.6625 0.8718
24.9839 18.7027 3.3513 0.8820
23.9369 19.2896 3.3011 0.8837
20.1155 18.7282 2.9513 0.8953
8.2629 10.2536 1.4141 0.9484
14.0437 18.7602 2.5164 0.9100
13.2890 19.1398 2.5021 0.9105
13.8235 25.3159 3.0973 0.8904
7.7844 18.7932 2.1843 0.9214
6.6520 19.9861 2.2619 0.9188
0.9385 26.2785 2.8236 0.8996
-1.3609 19.0281 2.0485 0.9261
-2.0477 19.0461 2.0570 0.9258
-2.7101 18.8491 2.0449 0.9263
-3.4014 18.8528 2.0571 0.9258
-6.7269 26.3557 2.9208 0.8963
-7.5874 25.8402 2.8919 0.8973
-7.1053 19.0500 2.1833 0.9215
-7.8897 19.0475 2.2139 0.9204
-8.6226 18.8809 2.2289 0.9199
-9.5288 19.0361 2.2859 0.9179
-19.3828 32.6679 4.0789 0.8583
-12.7892 19.9004 2.5402 0.9092
-13.4074 19.3103 2.5244 0.9098
-14.1564 18.9108 2.5366 0.9093
-10.7978 10.0531 1.5842 0.9424
45.8759 19.0024 4.2035 0.8193
37.2330 18.6375 3.5246 0.8461
31.4629 18.6678 3.0969 0.8634
29.9042 19.2183 3.0092 0.8670
36.3386 25.2304 3.7449 0.8373
24.9828 18.7019 2.6418 0.8823
18.0681 19.4066 2.2446 0.8990
14.0432 18.7596 1.9837 0.9102
13.1663 18.9632 1.9543 0.9115
15.2716 25.7388 2.5335 0.8868
9.5433 19.0651 1.8048 0.9180
3.9521 8.6539 0.8054 0.9625
7.7842 18.7927 1.7219 0.9216
7.4862 25.4956 2.2494 0.8988
3.3948 18.8160 1.6185 0.9261
2.0493 19.0609 1.6229 0.9259
1.3662 19.1022 1.6212 0.9260
0.9317 26.0880 2.2098 0.9005
-0.9323 26.1049 2.2113 0.9005
-2.0567 19.1299 1.6287 0.9257
-2.7100 18.8486 1.6120 0.9264
-6.7517 26.4530 2.3111 0.8962
-8.6224 18.8803 1.7570 0.9201
-13.9040 25.4633 2.4560 0.8901
-12.6210 19.6386 1.9762 0.9105
-14.1560 18.9102 1.9996 0.9095
-18.5901 19.9672 2.3094 0.8963
-19.0723 19.0723 2.2833 0.8974
23.9443 8.9308 1.5847 0.9027
37.2309 18.6364 2.5819 0.8463
35.4833 19.3754 2.5070 0.8504
27.1861 18.8757 2.0523 0.8758
24.9818 18.7011 1.9351 0.8824
19.0186 19.0186 1.6679 0.8978
18.2019 19.5502 1.6564 0.8985
14.0428 18.7590 1.4531 0.9104
13.8227 25.3145 1.7885 0.8908
7.7840 18.7922 1.2613 0.9217
7.1130 19.0708 1.2622 0.9217
6.6863 26.1967 1.6765 0.8973
3.3947 18.8155 1.1856 0.9262
2.7058 18.8192 1.1790 0.9266
2.0489 19.0575 1.1886 0.9261
0.9367 26.2273 1.6274 0.9002
0.0000 26.2323 1.6267 0.9002
-6.7045 26.2682 1.6811 0.8970
-7.5490 25.7097 1.6616 0.8982
-7.1400 19.1431 1.2669 0.9214
-7.9377 19.1632 1.2862 0.9202
-8.6221 18.8798 1.2870 0.9202
-9.5951 19.1686 1.3293 0.9177
-14.1555 18.9096 1.4647 0.9097
-14.2599 17.6954 1.4092 0.9129
-20.2951 23.4217 1.9218 0.8832
23.9423 8.9300 1.0076 0.9028
41.3637 18.8902 1.7930 0.8336
37.2288 18.6354 1.6416 0.8465
31.4598 18.6660 1.4425 0.8638
24.9807 18.7003 1.2304 0.8826
29.6347 25.6786 1.5462 0.8547
20.1133 18.7261 1.0836 0.8958
18.2025 19.5509 1.0533 0.8986
8.7778 10.1301 0.5285 0.9478
14.0423 18.7584 0.9239 0.9105
13.2230 19.0448 0.9142 0.9114
15.1823 25.5884 1.1732 0.8877
9.5413 19.0611 0.8405 0.9182
3.9510 8.6515 0.3750 0.9626
6.6861 26.1960 1.0660 0.8974
4.1513 19.0833 0.7701 0.9248
1.3660 19.0987 0.7550 0.9262
0.0000 26.4887 1.0445 0.8994
-0.9462 26.4937 1.0453 0.8993
-1.3667 19.1088 0.7554 0.9262
-2.0563 19.1262 0.7585 0.9259
-4.1619 19.1318 0.7720 0.9246
-6.7044 26.2675 1.0690 0.8972
-7.1393 19.1411 0.8055 0.9215
-8.6219 18.8793 0.8184 0.9203
-9.5941 19.1666 0.8452 0.9178
-19.3522 32.6165 1.4954 0.8591
-18.7138 20.1000 1.0829 0.8959
-19.2102 19.2102 1.0712 0.8970
-10.8102 10.0647 0.5824 0.9426
23.9389 8.9288 0.4316 0.9028
31.4582 18.6650 0.6179 0.8639
36.3362 25.2287 0.7472 0.8378
19.0135 19.0136 0.4542 0.8980
8.7746 10.1264 0.2263 0.9478
14.0419 18.7578 0.3958 0.9105
7.1116 19.0670 0.3437 0.9218
6.7618 20.3161 0.3617 0.9179
6.6860 26.1953 0.4567 0.8975
4.1509 19.0814 0.3299 0.9249
3.3945 18.8146 0.3229 0.9264
2.0482 19.0508 0.3237 0.9262
0.0000 26.4880 0.4474 0.8995
-0.9462 26.4930 0.4478 0.8994
-2.0561 19.1244 0.3249 0.9259
-6.7042 26.2668 0.4579 0.8972
-7.5476 25.7046 0.4525 0.8984
-8.4646 25.4320 0.4528 0.8983
-7.9360 19.1593 0.3503 0.9204
-8.6216 18.8787 0.3506 0.9203
-9.5931 19.1646 0.3620 0.9178
-13.9028 25.4610 0.4900 0.8904
-19.3504 32.6134 0.6406 0.8592
-12.7137 19.7829 0.3972 0.9102
-14.1546 18.9083 0.3990 0.9098
-20.3652 23.5027 0.5253 0.8830
-10.8143 10.0685 0.2496 0.9426
23.9355 8.9275 -0.1438 0.9029
41.3445 18.8814 -0.2559 0.8338
37.2246 18.6333 -0.2344 0.8466
29.5958 19.0201 -0.1981 0.8687
36.3355 25.2282 -0.2490 0.8378
23.8981 19.2583 -0.1728 0.8845
19.0110 19.0110 -0.1514 0.8980
18.2037 19.5521 -0.1504 0.8987
13.2200 19.0404 -0.1305 0.9114
12.4862 19.4289 -0.1300 0.9118
3.9499 8.6491 -0.0535 0.9627
7.7833 18.7906 -0.1145 0.9219
7.1109 19.0651 -0.1146 0.9218
7.5240 25.6243 -0.1504 0.8987
2.7056 18.8177 -0.1070 0.9268
-0.0000 26.4873 -0.1491 0.8995
-1.3664 19.1052 -0.1078 0.9262
-2.0559 19.1226 -0.1083 0.9260
-2.7097 18.8467 -0.1072 0.9267
-6.7040 26.2661 -0.1526 0.8972
-8.4644 25.4313 -0.1509 0.8983
-7.1378 19.1372 -0.1150 0.9215
-7.9352 19.1574 -0.1167 0.9204
-8.6214 18.8782 -0.1168 0.9203
-19.3485 32.6102 -0.2135 0.8593
-12.7152 19.7851 -0.1324 0.9102
-14.1542 18.9077 -0.1330 0.9098
-15.2388 18.9103 -0.1367 0.9074
-18.7166 20.1031 -0.1546 0.8960
23.9322 8.9262 -0.7192 0.9028
37.2225 18.6323 -1.1721 0.8466
31.4551 18.6632 -1.0298 0.8638
29.5966 19.0206 -0.9906 0.8687
23.8989 19.2589 -0.8642 0.8844
29.6376 25.6811 -1.1042 0.8548
18.2043 19.5528 -0.7522 0.8986
8.7681 10.1189 -0.3770 0.9478
8.2816 10.2769 -0.3716 0.9486
14.0410 18.7566 -0.6597 0.9105
13.2185 19.0382 -0.6526 0.9114
15.1774 25.5802 -0.8375 0.8878
9.5383 19.0552 -0.6000 0.9183
7.1102 19.0632 -0.5729 0.9218
6.7627 20.3185 -0.6030 0.9179
7.5232 25.6218 -0.7519 0.8987
4.1501 19.0778 -0.5498 0.9248
3.3944 18.8136 -0.5383 0.9264
2.0475 19.0441 -0.5393 0.9262
0.9366 26.2246 -0.7389 0.9003
-0.0000 26.4866 -0.7458 0.8994
-0.9462 26.4917 -0.7464 0.8994
-2.0557 19.1208 -0.5415 0.9259
-2.7097 18.8462 -0.5361 0.9266
-6.7038 26.2654 -0.7633 0.8972
-7.5461 25.6996 -0.7542 0.8984
-8.4641 25.4306 -0.7547 0.8983
-7.1371 19.1353 -0.5751 0.9215
-9.5911 19.1607 -0.6033 0.9178
-13.9020 25.4596 -0.8168 0.8904
-12.7166 19.7874 -0.6623 0.9102
-14.1537 18.9071 -0.6650 0.9098
-15.2383 18.9096 -0.6838 0.9074
-20.3660 23.5037 -0.8757 0.8830
-18.7181 20.1047 -0.7735 0.8959
-19.2024 19.2024 -0.7647 0.8970
-10.8226 10.0762 -0.4164 0.9425
46.4920 8.3881 -2.3959 0.8276
46.1945 10.0490 -2.3975 0.8275
32.7591 8.3613 -1.7146 0.8734
43.8071 18.1455 -2.4047 0.8270
27.2068 18.8900 -1.6797 0.8758
24.9765 18.6972 -1.5823 0.8825
20.1103 18.7234 -1.3935 0.8958
18.2049 19.5534 -1.3549 0.8985
13.2170 19.0360 -1.1753 0.9114
12.4874 19.4307 -1.1714 0.9116
13.8207 25.3108 -1.4625 0.8909
9.5374 19.0532 -1.0806 0.9182
7.1095 19.0613 -1.0317 0.9218
6.7631 20.3197 -1.0861 0.9178
3.3943 18.8131 -0.9695 0.9263
2.0471 19.0408 -0.9712 0.9262
1.3654 19.0915 -0.9707 0.9262
-0.0000 26.4860 -1.3432 0.8994
-2.7096 18.8457 -0.9656 0.9266
-4.1603 19.1245 -0.9926 0.9246
-8.4639 25.4299 -1.3592 0.8982
-8.6209 18.8772 -1.0524 0.9202
-13.9016 25.4588 -1.4711 0.8903
-19.2905 32.5123 -1.9172 0.8595
-13.3135 19.1750 -1.1839 0.9107
-15.2378 18.9090 -1.2316 0.9073
-18.7196 20.1063 -1.3932 0.8958
-19.1998 19.1998 -1.3770 0.8970
-10.8268 10.0801 -0.7502 0.9425
-37.3768 32.3872 -2.5082 0.8203
-39.5155 29.5809 -2.5033 0.8206
-40.5068 28.1244 -2.5009 0.8208
-41.4445 26.6348 -2.4985 0.8209
-42.3279 25.1143 -2.4960 0.8211
-45.2045 18.7243 -2.4814 0.8220
-47.9896 8.6583 -2.4731 0.8226
-48.2267 6.9340 -2.4709 0.8227
-48.4026 5.2038 -2.4688 0.8229
-48.5173 3.4700 -2.4668 0.8230
-48.5710 1.7347 -2.4648 0.8231
34.4928 0.0000 -2.5291 0.8708
34.4897 1.2318 -2.5305 0.8707
34.3499 3.6930 -2.5331 0.8706
34.2133 4.9192 -2.5344 0.8705
34.0324 6.1401 -2.5356 0.8705
15.3218 3.9107 -1.1594 0.9385
28.0132 9.3237 -2.1648 0.8883
29.6280 13.5306 -2.3882 0.8775
29.1358 14.5844 -2.3890 0.8775
28.6055 15.6198 -2.3897 0.8775
28.0379 16.6357 -2.3904 0.8774
27.4335 17.6305 -2.3911 0.8774
26.7933 18.6029 -2.3916 0.8774
24.9754 18.6964 -2.2875 0.8824
23.8407 19.2120 -2.2450 0.8844
24.6658 21.3730 -2.3931 0.8773
18.9444 18.9444 -1.9644 0.8981
8.7616 10.1114 -0.9810 0.9478
8.2879 10.2847 -0.9685 0.9484
13.1748 18.9753 -1.6938 0.9115
13.8203 25.3101 -2.1144 0.8908
9.5363 19.0512 -1.5621 0.9181
7.5047 25.5585 -1.9531 0.8987
6.6853 26.1925 -1.9821 0.8973
2.7054 18.8163 -1.3938 0.9266
2.0467 19.0374 -1.4039 0.9261
1.3653 19.0897 -1.4033 0.9261
0.0000 26.4853 -1.9420 0.8992
-1.3660 19.0998 -1.4040 0.9261
-2.0553 19.1172 -1.4098 0.9258
-2.7095 18.8452 -1.3960 0.9265
-13.9012 25.4581 -2.1268 0.8902
-16.4756 27.7682 -2.3674 0.8785
-12.6566 19.6940 -1.7165 0.9104
-13.2713 19.1143 -1.7062 0.9109
-14.1528 18.9059 -1.7316 0.9096
-15.2373 18.9084 -1.7805 0.9072
-18.6663 20.0491 -2.0085 0.8960
-10.8309 10.0840 -1.0851 0.9424
-25.6630 19.2111 -2.3505 0.8793
-29.8786 16.3150 -2.4961 0.8724
-31.3893 13.0019 -2.4912 0.8726
-31.8128 11.8656 -2.4895 0.8727
-32.5367 9.5537 -2.4864 0.8728
-32.8364 8.3810 -2.4848 0.8729
-33.0942 7.1992 -2.4833 0.8730
-33.3098 6.0098 -2.4818 0.8731
-33.6139 3.6139 -2.4788 0.8732
-33.7021 2.4104 -2.4774 0.8733
26.2751 0.0000 -2.5225 0.8998
26.2296 1.8760 -2.5246 0.8997
26.1563 2.8121 -2.5256 0.8997
16.4693 2.9714 -1.6067 0.9350
14.2415 4.1817 -1.4250 0.9421
24.1644 8.0427 -2.4450 0.9027
23.2040 8.6546 -2.3776 0.9053
20.3763 14.1476 -2.3815 0.9051
19.3213 15.5701 -2.3823 0.9051
17.5522 17.5522 -2.3831 0.9051
8.2911 10.2886 -1.2686 0.9483
14.0397 18.7548 -2.2492 0.9102
13.1733 18.9731 -2.2175 0.9114
12.6682 21.3512 -2.3835 0.9051
7.7825 18.7886 -1.9524 0.9215
7.0869 19.0006 -1.9469 0.9217
6.7139 20.1721 -2.0411 0.9181
4.1367 19.0162 -1.8683 0.9248
1.3611 19.0314 -1.8318 0.9262
0.0000 24.7612 -2.3772 0.9053
-1.3619 19.0423 -1.8328 0.9262
-2.0488 19.0570 -1.8401 0.9259
-2.7095 18.8447 -1.8278 0.9263
-4.1471 19.0639 -1.8730 0.9246
-6.1087 23.9335 -2.3714 0.9055
-6.9562 23.6907 -2.3704 0.9055
-7.7942 23.4177 -2.3695 0.9056
-12.5602 21.1691 -2.3631 0.9058
-13.2698 19.1121 -2.2338 0.9107
-14.1523 18.9053 -2.2672 0.9095
-15.2368 18.9078 -2.3313 0.9070
-16.7239 17.9627 -2.3562 0.9061
-10.8351 10.0878 -1.4213 0.9422
-18.5200 16.0477 -2.3526 0.9062
-20.5731 13.2216 -2.3478 0.9064
-22.2003 10.1385 -2.3431 0.9066
-22.5367 9.3351 -2.3419 0.9066
-24.3242 9.0724 -2.4924 0.9009
-24.6204 8.1945 -2.4912 0.9010
-25.1180 6.4110 -2.4888 0.9011
-25.3189 5.5078 -2.4876 0.9011
-25.4875 4.5985 -2.4864 0.9012
-25.6237 3.6841 -2.4853 0.9012
-25.8367 0.9228 -2.4820 0.9013
21.2019 0.0000 -2.5185 0.9181
21.1955 0.7570 -2.5193 0.9181
21.1619 1.5135 -2.5202 0.9181
16.5389 2.9840 -1.9963 0.9345
14.3185 3.1148 -1.7406 0.9427
14.2111 4.1728 -1.7593 0.9421
20.1706 6.7134 -2.5252 0.9179
18.1733 8.2995 -2.3732 0.9227
17.5418 9.5786 -2.3741 0.9226
16.0101 11.9850 -2.3756 0.9226
15.1177 13.0996 -2.3762 0.9226
14.6419 13.6321 -2.3764 0.9226
8.7551 10.1039 -1.5881 0.9476
8.8242 11.7878 -1.7491 0.9424
11.4123 16.4369 -2.3769 0.9226
10.8183 16.8335 -2.3769 0.9226
9.5891 17.5612 -2.3768 0.9226
8.9557 17.8913 -2.3766 0.9226
3.9471 8.6429 -1.1287 0.9624
6.9901 18.7412 -2.3760 0.9226
6.3160 18.9766 -2.3757 0.9226
4.1363 19.0143 -2.3115 0.9246
2.7052 18.8153 -2.2580 0.9263
2.0460 19.0307 -2.2736 0.9258
1.3610 19.0296 -2.2662 0.9260
0.7128 19.9591 -2.3724 0.9227
0.0000 19.9671 -2.3718 0.9227
-0.7125 19.9494 -2.3712 0.9227
-1.3618 19.0405 -2.2675 0.9260
-3.4005 18.8479 -2.2750 0.9258
-4.9283 19.3088 -2.3671 0.9229
-5.6125 19.1144 -2.3664 0.9229
-6.9571 18.6528 -2.3648 0.9229
-9.5271 17.4477 -2.3614 0.9230
-10.1400 17.0900 -2.3605 0.9231
-10.7394 16.7108 -2.3596 0.9231
-11.8949 15.8897 -2.3577 0.9232
-9.9934 10.7337 -1.7421 0.9426
-14.0125 14.0126 -2.3540 0.9233
-11.3808 9.1712 -1.7362 0.9428
-15.8389 8.6487 -2.1437 0.9299
-19.9146 6.6282 -2.4932 0.9189
-20.1305 5.9109 -2.4922 0.9190
-20.4852 4.4563 -2.4903 0.9190
-20.7354 2.9813 -2.4884 0.9191
-20.8211 2.2385 -2.4875 0.9191
-20.8803 1.4934 -2.4866 0.9191
17.7490 0.6339 -2.5165 0.9308
17.6681 1.8995 -2.5178 0.9307
17.5936 2.5296 -2.5185 0.9307
17.4965 3.1567 -2.5191 0.9307
16.8844 5.6197 -2.5214 0.9306
16.1962 7.3966 -2.5228 0.9306
15.8882 7.9531 -2.5175 0.9307
14.8016 8.0823 -2.3895 0.9341
13.0328 10.5025 -2.3716 0.9346
12.6507 10.9619 -2.3718 0.9346
12.2524 11.4074 -2.3720 0.9346
8.7086 9.3537 -1.8108 0.9497
7.4766 10.7683 -1.8575 0.9484
8.5437 14.3996 -2.3724 0.9346
7.4940 14.9712 -2.3722 0.9346
5.8495 15.6831 -2.3717 0.9346
4.7148 16.0572 -2.3712 0.9346
2.9702 16.4627 -2.3702 0.9347
1.7877 16.6270 -2.3695 0.9347
-1.7855 16.6071 -2.3666 0.9347
-3.5478 16.3091 -2.3649 0.9348
-5.8264 15.6211 -2.3623 0.9349
-6.3783 15.3987 -2.3616 0.9349
-7.4561 14.8954 -2.3602 0.9349
-7.9806 14.6153 -2.3594 0.9349
-9.9664 13.3136 -2.3564 0.9350
-10.0710 11.6225 -2.1790 0.9398
-10.0210 10.7633 -2.0837 0.9423
-9.9751 9.9751 -1.9988 0.9446
-10.6616 9.2383 -1.9988 0.9446
-11.4100 9.1947 -2.0763 0.9425
-13.6188 9.4557 -2.3491 0.9352
-14.2488 8.4542 -2.3475 0.9353
-14.5365 7.9375 -2.3467 0.9353
-16.0307 7.3210 -2.4970 0.9313
-16.2763 6.7419 -2.4962 0.9313
-16.5010 6.1545 -2.4953 0.9313
-16.8868 4.9584 -2.4937 0.9314
-17.1864 3.7387 -2.4921 0.9314
-17.3035 3.1219 -2.4913 0.9314
-17.5505 0.6268 -2.4883 0.9315
15.2590 0.0000 -2.5138 0.9400
15.2530 0.5448 -2.5144 0.9400
15.2274 1.0891 -2.5150 0.9400
15.1177 2.1736 -2.5161 0.9400
15.0337 2.7124 -2.5166 0.9399
14.9304 3.2479 -2.5171 0.9399
14.3268 5.3436 -2.5190 0.9399
14.1293 5.8525 -2.5194 0.9399
12.5289 8.0518 -2.4535 0.9414
11.8073 8.1980 -2.3680 0.9434
9.3670 9.3670 -2.1823 0.9477
8.0937 9.3406 -2.0361 0.9511
7.3382 12.3679 -2.3691 0.9434
6.8919 12.6216 -2.3691 0.9434
5.0244 13.4709 -2.3685 0.9434
4.5400 13.6405 -2.3683 0.9434
3.0549 14.0433 -2.3676 0.9434
2.5514 14.1417 -2.3673 0.9434
1.5357 14.2837 -2.3667 0.9434
1.0247 14.3273 -2.3663 0.9434
-0.0000 14.3591 -2.3655 0.9435
-1.0240 14.3173 -2.3646 0.9435
-1.5341 14.2689 -2.3642 0.9435
-3.5461 13.8934 -2.3622 0.9435
-4.0388 13.7548 -2.3616 0.9435
-5.4819 13.2345 -2.3599 0.9436
-5.9493 13.0271 -2.3593 0.9436
-8.1567 11.7479 -2.3561 0.9437
-8.9689 11.1297 -2.3547 0.9437
-9.8502 9.8502 -2.2949 0.9451
-11.7135 8.1328 -2.3492 0.9438
-13.0247 7.7279 -2.4949 0.9405
-13.3146 7.2703 -2.4991 0.9404
-13.5617 6.7885 -2.4984 0.9404
-14.1972 5.2953 -2.4962 0.9404
-14.8910 2.6866 -2.4927 0.9405
-14.9734 2.1529 -2.4921 0.9405
-15.0810 1.0786 -2.4908 0.9405
13.3373 0.9539 -2.5133 0.9470
13.2405 1.9037 -2.5143 0.9470
13.1666 2.3755 -2.5148 0.9470
13.0758 2.8445 -2.5152 0.9470
12.8439 3.7713 -2.5161 0.9470
12.5460 4.6794 -2.5168 0.9470
12.3728 5.1250 -2.5172 0.9470
11.5232 6.8370 -2.5185 0.9469
11.2730 7.2447 -2.5187 0.9469
11.0034 7.6398 -2.5178 0.9469
10.6976 8.0081 -2.5117 0.9471
9.2143 8.5789 -2.3664 0.9500
8.9027 8.9027 -2.3665 0.9500
8.5796 9.2151 -2.3666 0.9500
7.9894 9.2202 -2.2931 0.9516
7.4206 9.2084 -2.2229 0.9530
7.1813 10.3430 -2.3667 0.9500
6.8075 10.5927 -2.3667 0.9500
5.6357 11.2588 -2.3665 0.9500
3.9053 8.5514 -1.7670 0.9625
4.8177 11.6310 -2.3663 0.9501
3.5460 12.0767 -2.3658 0.9501
3.1125 12.1945 -2.3656 0.9501
1.2070 8.3945 -1.5941 0.9661
0.0000 12.5745 -2.3635 0.9501
-0.4487 12.5645 -2.3631 0.9501
-0.8968 12.5384 -2.3628 0.9501
-1.7883 12.4382 -2.3619 0.9501
-2.2307 12.3641 -2.3615 0.9502
-2.6701 12.2743 -2.3610 0.9502
-3.1059 12.1688 -2.3606 0.9502
-3.5375 12.0477 -2.3601 0.9502
-4.3861 11.7597 -2.3591 0.9502
-4.8020 11.5931 -2.3586 0.9502
-5.2116 11.4117 -2.3580 0.9502
-5.6143 11.2159 -2.3575 0.9502
-6.3971 10.7817 -2.3564 0.9503
-6.7762 10.5439 -2.3558 0.9503
-7.1464 10.2928 -2.3552 0.9503
-7.8586 9.7519 -2.3541 0.9503
-8.1996 9.4628 -2.3535 0.9503
-8.5299 9.1618 -2.3529 0.9503
-8.8492 8.8492 -2.3523 0.9503
-9.1571 8.5255 -2.3517 0.9504
-9.4531 8.1911 -2.3511 0.9504
-9.8334 7.9243 -2.3737 0.9499
-10.9214 7.5829 -2.4991 0.9473
-11.1925 7.1930 -2.5007 0.9473
-11.4392 6.7872 -2.5001 0.9473
-11.6711 6.3729 -2.4994 0.9473
-12.0897 5.5212 -2.4982 0.9473
-12.2760 5.0849 -2.4975 0.9474
-12.4465 4.6423 -2.4969 0.9474
-12.6011 4.1940 -2.4963 0.9474
-12.7396 3.7407 -2.4956 0.9474
-12.9677 2.8210 -2.4944 0.9474
-13.0570 2.3557 -2.4938 0.9474
-13.1857 1.4176 -2.4927 0.9475
-13.2249 0.9459 -2.4921 0.9475
-13.2473 0.4731 -2.4916 0.9475
11.7669 1.6918 -2.5129 0.9526
11.7010 2.1111 -2.5133 0.9526
11.1485 4.1582 -2.5151 0.9525
10.4481 5.7051 -2.5163 0.9525
10.0164 6.4372 -2.5168 0.9525
8.9867 7.7870 -2.5135 0.9525
8.0156 8.0156 -2.3962 0.9547
7.6229 8.1876 -2.3647 0.9553
6.7044 8.9560 -2.3648 0.9553
6.3804 9.1896 -2.3648 0.9553
5.7085 9.6211 -2.3647 0.9553
5.0073 10.0033 -2.3646 0.9553
3.8949 8.5286 -1.9819 0.9624
4.2805 10.3341 -2.3644 0.9553
3.9087 10.4797 -2.3643 0.9553
3.5320 10.6119 -2.3641 0.9553
3.1507 10.7304 -2.3640 0.9553
2.7655 10.8352 -2.3638 0.9553
2.3768 10.9260 -2.3636 0.9553
0.7973 11.1483 -2.3625 0.9553
-0.7969 11.1423 -2.3613 0.9554
-1.1939 11.1050 -2.3609 0.9554
-1.5893 11.0536 -2.3605 0.9554
-2.7603 10.8149 -2.3593 0.9554
-3.8984 10.4520 -2.3580 0.9554
-4.6323 10.1433 -2.3571 0.9554
-5.3419 9.7829 -2.3561 0.9555
-5.6865 9.5840 -2.3556 0.9555
-6.3529 9.1500 -2.3546 0.9555
-6.6740 8.9154 -2.3541 0.9555
-7.2897 8.4128 -2.3530 0.9555
-7.9345 7.9345 -2.3719 0.9552
-9.4756 7.0933 -2.5020 0.9528
-9.7205 6.7491 -2.5014 0.9528
-9.9529 6.3963 -2.5008 0.9528
-10.3790 5.6674 -2.4997 0.9528
-10.5723 5.2921 -2.4991 0.9528
-10.7519 4.9102 -2.4985 0.9528
-11.0698 4.1288 -2.4974 0.9528
-11.2076 3.7303 -2.4968 0.9529
-11.4402 2.9199 -2.4957 0.9529
-11.5346 2.5092 -2.4952 0.9529
-11.7646 0.8414 -2.4932 0.9529
10.6802 0.0000 -2.5101 0.9571
10.6753 0.3813 -2.5105 0.9571
10.6566 0.7622 -2.5109 0.9570
10.6243 1.1422 -2.5113 0.9570
10.5784 1.5210 -2.5117 0.9570
10.5189 1.8978 -2.5121 0.9570
10.4460 2.2724 -2.5125 0.9570
10.2601 3.0126 -2.5132 0.9570
10.0215 3.7378 -2.5138 0.9570
9.7315 4.4442 -2.5143 0.9570
9.0033 5.7861 -2.5153 0.9570
8.7917 6.1042 -2.5155 0.9570
8.0903 7.0103 -2.5159 0.9570
7.5688 7.5688 -2.5157 0.9570
6.9247 7.9916 -2.4852 0.9575
6.0259 8.0497 -2.3632 0.9595
5.4363 8.4590 -2.3632 0.9595
5.1308 8.6476 -2.3632 0.9595
3.8844 8.5057 -2.1976 0.9623
3.8474 9.2885 -2.3629 0.9595
3.5133 9.4195 -2.3628 0.9595
2.8320 9.6449 -2.3625 0.9595
2.1364 9.8209 -2.3621 0.9595
1.7844 9.8901 -2.3619 0.9595
0.7167 10.0211 -2.3612 0.9596
0.0000 10.0444 -2.3607 0.9596
-0.3585 10.0368 -2.3604 0.9596
-0.7164 10.0163 -2.3601 0.9596
-2.1333 9.8067 -2.3587 0.9596
-3.1678 9.5178 -2.3576 0.9596
-4.1649 9.1198 -2.3563 0.9596
-4.4869 8.9637 -2.3559 0.9596
-4.8031 8.7962 -2.3554 0.9597
-5.1130 8.6176 -2.3550 0.9597
-5.4163 8.4279 -2.3545 0.9597
-5.7126 8.2276 -2.3541 0.9597
-6.3969 7.9381 -2.3960 0.9590
-7.2460 7.7828 -2.4992 0.9572
-7.5304 7.5304 -2.5029 0.9572
-8.0488 6.9743 -2.5030 0.9572
-8.7427 6.0702 -2.5014 0.9572
-8.9519 5.7530 -2.5009 0.9572
-9.3356 5.0976 -2.4999 0.9572
-9.5096 4.7602 -2.4994 0.9572
-9.8210 4.0680 -2.4983 0.9573
-9.9579 3.7141 -2.4978 0.9573
-10.5075 1.5108 -2.4949 0.9573
-10.5528 1.1345 -2.4945 0.9573
-10.6031 0.3787 -2.4936 0.9573
9.6698 0.6916 -2.5101 0.9607
9.0926 3.3914 -2.5126 0.9607
8.8292 4.0322 -2.5132 0.9607
8.6805 4.3452 -2.5134 0.9607
8.3498 4.9542 -2.5138 0.9607
8.1683 5.2494 -2.5140 0.9607
7.9762 5.5380 -2.5142 0.9607
6.8679 6.8679 -2.5148 0.9607
6.6186 7.1088 -2.5148 0.9607
6.0936 7.5617 -2.5145 0.9607
5.5238 7.9558 -2.5077 0.9608
5.1328 7.9868 -2.4581 0.9615
4.0831 8.1570 -2.3618 0.9630
3.7892 8.2972 -2.3617 0.9630
3.4905 8.4269 -2.3616 0.9630
2.8802 8.6536 -2.3614 0.9630
2.5693 8.7503 -2.3613 0.9630
1.6189 8.9729 -2.3608 0.9630
1.2070 8.3949 -2.1959 0.9656
0.9745 9.0640 -2.3603 0.9630
0.6503 9.0921 -2.3601 0.9630
0.3253 9.1086 -2.3599 0.9630
-1.6171 8.9631 -2.3582 0.9631
-3.4823 8.4070 -2.3561 0.9631
-3.7795 8.2760 -2.3557 0.9631
-4.3588 7.9826 -2.3549 0.9631
-4.7155 7.9475 -2.3927 0.9625
-5.1003 7.9362 -2.4426 0.9618
-5.7892 7.7335 -2.5012 0.9609
-6.0687 7.5308 -2.5042 0.9608
-7.3056 6.3303 -2.5029 0.9608
-7.7356 5.7908 -2.5019 0.9609
-7.9359 5.5100 -2.5014 0.9609
-8.1259 5.2222 -2.5010 0.9609
-8.3056 4.9279 -2.5005 0.9609
-8.6327 4.3212 -2.4996 0.9609
-9.0402 3.3718 -2.4982 0.9609
-9.2543 2.7173 -2.4973 0.9609
-9.3437 2.3849 -2.4968 0.9609
-9.4868 1.7116 -2.4959 0.9610
-9.5402 1.3717 -2.4955 0.9610
-9.6106 0.6874 -2.4947 0.9610
-9.6274 0.3438 -2.4943 0.9610
8.8616 0.0000 -2.5087 0.9638
8.8572 0.3163 -2.5090 0.9638
8.8415 0.6324 -2.5093 0.9638
8.8144 0.9477 -2.5097 0.9638
8.7266 1.5744 -2.5103 0.9638
8.5940 2.1935 -2.5109 0.9638
8.3129 3.1006 -2.5117 0.9638
7.9360 3.9725 -2.5124 0.9638
7.7898 4.2536 -2.5126 0.9638
7.6336 4.5292 -2.5128 0.9638
7.4676 4.7991 -2.5129 0.9638
6.4984 6.0503 -2.5136 0.9638
6.2786 6.2786 -2.5136 0.9638
5.5718 6.9142 -2.5138 0.9638
5.0644 7.2941 -2.5138 0.9638
4.8008 7.4702 -2.5138 0.9638
4.5278 7.6312 -2.5120 0.9638
3.6419 7.9746 -2.4818 0.9642
3.3053 7.9797 -2.4451 0.9647
2.6586 7.9878 -2.3833 0.9656
2.3489 7.9996 -2.3602 0.9659
1.1862 8.2502 -2.3596 0.9659
0.5945 8.3124 -2.3592 0.9659
-0.8904 8.2816 -2.3580 0.9660
-1.7699 8.1360 -2.3571 0.9660
-2.0589 8.0666 -2.3568 0.9660
-2.6498 7.9615 -2.3754 0.9657
-3.2918 7.9470 -2.4351 0.9649
-3.6255 7.9387 -2.4706 0.9644
-4.2360 7.7577 -2.5022 0.9639
-4.7861 7.4474 -2.5061 0.9639
-5.3035 7.0846 -2.5053 0.9639
-5.5520 6.8897 -2.5049 0.9639
-6.0274 6.4739 -2.5041 0.9639
-6.4716 6.0253 -2.5032 0.9639
-6.6814 5.7895 -2.5028 0.9639
-7.5966 4.5073 -2.5006 0.9639
-7.7513 4.2325 -2.5002 0.9640
-8.1552 3.3780 -2.4989 0.9640
-8.2691 3.0842 -2.4985 0.9640
-8.3725 2.7867 -2.4980 0.9640
-8.4653 2.4856 -2.4976 0.9640
-8.5472 2.1816 -2.4972 0.9640
-8.6182 1.8748 -2.4968 0.9640
-8.6783 1.5657 -2.4964 0.9640
-8.7273 1.2548 -2.4960 0.9640
-8.7652 0.9424 -2.4957 0.9640
-8.7919 0.6288 -2.4953 0.9640
8.1543 0.0000 -2.5081 0.9665
8.1106 0.8720 -2.5090 0.9664
8.0753 1.1611 -2.5093 0.9664
8.0296 1.4487 -2.5096 0.9664
7.9737 1.7346 -2.5099 0.9664
7.9075 2.0183 -2.5102 0.9664
7.8313 2.2995 -2.5104 0.9664
7.7449 2.5778 -2.5107 0.9664
7.6487 2.8528 -2.5109 0.9664
7.5427 3.1243 -2.5111 0.9664
7.4270 3.3918 -2.5113 0.9664
7.1672 3.9136 -2.5117 0.9664
6.7090 4.6582 -2.5122 0.9664
6.1735 5.3494 -2.5125 0.9664
5.5668 5.9792 -2.5127 0.9664
5.1262 6.3613 -2.5128 0.9664
4.8959 6.5402 -2.5128 0.9664
4.6594 6.7108 -2.5128 0.9664
4.4169 6.8728 -2.5128 0.9664
4.1687 7.0260 -2.5128 0.9664
3.9152 7.1702 -2.5128 0.9664
3.6567 7.3052 -2.5127 0.9664
2.8521 7.6467 -2.5102 0.9664
1.4365 7.9618 -2.4884 0.9667
1.1449 7.9629 -2.4744 0.9669
0.2844 7.9628 -2.4508 0.9672
0.0000 7.9617 -2.4488 0.9672
-0.2843 7.9600 -2.4499 0.9672
-0.8552 7.9550 -2.4609 0.9671
-1.1433 7.9516 -2.4709 0.9669
-1.4339 7.9476 -2.4840 0.9668
-2.0119 7.8825 -2.5022 0.9665
-2.5711 7.7251 -2.5042 0.9665
-2.8466 7.6321 -2.5054 0.9665
-3.1189 7.5298 -2.5068 0.9665
-3.3862 7.4148 -2.5072 0.9665
-4.1577 7.0074 -2.5061 0.9665
-4.4045 6.8535 -2.5058 0.9665
-4.6456 6.6909 -2.5054 0.9665
-5.1095 6.3405 -2.5046 0.9665
-5.3318 6.1532 -2.5042 0.9665
-5.7553 5.7553 -2.5035 0.9665
-5.9561 5.5454 -2.5031 0.9665
-6.3346 5.1047 -2.5023 0.9665
-6.5117 4.8746 -2.5019 0.9665
-6.6804 4.6383 -2.5015 0.9665
-6.8406 4.3962 -2.5011 0.9665
-7.2679 3.6381 -2.4999 0.9666
-7.5066 3.1093 -2.4991 0.9666
-7.6116 2.8390 -2.4987 0.9666
-7.7069 2.5651 -2.4983 0.9666
-7.8679 2.0082 -2.4976 0.9666
-8.0689 0.8675 -2.4961 0.9666
7.5264 0.5383 -2.5082 0.9687
7.4704 1.0741 -2.5088 0.9687
7.4281 1.3402 -2.5090 0.9687
7.3151 1.8671 -2.5095 0.9687
7.2444 2.1272 -2.5098 0.9687
6.8703 3.1376 -2.5106 0.9687
6.6299 3.6202 -2.5109 0.9687
6.2060 4.3089 -2.5114 0.9687
6.0485 4.5279 -2.5115 0.9687
5.3433 5.3433 -2.5118 0.9686
5.1493 5.5307 -2.5119 0.9686
4.5287 6.0497 -2.5120 0.9686
4.3099 6.2075 -2.5120 0.9686
3.1391 6.8736 -2.5118 0.9686
2.8916 6.9811 -2.5117 0.9687
2.6405 7.0796 -2.5116 0.9687
2.1286 7.2493 -2.5114 0.9687
1.0750 7.4767 -2.5108 0.9687
0.8074 7.5096 -2.5106 0.9687
0.2695 7.5449 -2.5096 0.9687
0.0000 7.5488 -2.5093 0.9687
-1.0742 7.4715 -2.5091 0.9687
-1.8662 7.3115 -2.5083 0.9687
-2.3825 7.1581 -2.5077 0.9687
-2.8863 6.9682 -2.5071 0.9687
-3.1328 6.8599 -2.5068 0.9687
-3.6133 6.6172 -2.5061 0.9687
-3.8466 6.4831 -2.5058 0.9687
-4.5157 6.0323 -2.5048 0.9687
-4.9331 5.6931 -2.5040 0.9687
-5.5110 5.1310 -2.5030 0.9688
-5.6898 4.9303 -2.5026 0.9688
-5.8613 4.7233 -2.5022 0.9688
-6.4700 3.8389 -2.5007 0.9688
-6.6020 3.6049 -2.5004 0.9688
-6.7254 3.3665 -2.5000 0.9688
-6.8403 3.1239 -2.4996 0.9688
-7.0437 2.6272 -2.4989 0.9688
-7.2811 1.8584 -2.4979 0.9688
-7.3418 1.5971 -2.4975 0.9688
-7.3931 1.3339 -2.4972 0.9688
-7.4675 0.8028 -2.4965 0.9688
7.0073 0.2503 -2.5075 0.9707
6.9731 0.7497 -2.5080 0.9706
6.9032 1.2455 -2.5085 0.9706
6.8550 1.4912 -2.5087 0.9706
6.7980 1.7351 -2.5090 0.9706
6.7324 1.9768 -2.5092 0.9706
6.6581 2.2160 -2.5094 0.9706
6.5752 2.4524 -2.5096 0.9706
6.4840 2.6858 -2.5098 0.9706
6.3845 2.9157 -2.5100 0.9706
6.1610 3.3642 -2.5103 0.9706
6.0374 3.5821 -2.5104 0.9706
5.7670 4.0041 -2.5107 0.9706
5.4671 4.4057 -2.5109 0.9706
5.3066 4.5982 -2.5110 0.9706
5.1392 4.7848 -2.5111 0.9706
4.9653 4.9653 -2.5111 0.9706
4.7850 5.1395 -2.5112 0.9706
4.4063 5.4679 -2.5112 0.9706
4.2084 5.6217 -2.5113 0.9706
4.0050 5.7683 -2.5113 0.9706
3.1432 6.2793 -2.5111 0.9706
2.2173 6.6619 -2.5108 0.9706
1.4923 6.8598 -2.5105 0.9706
1.2464 6.9083 -2.5103 0.9706
0.5007 7.0006 -2.5098 0.9706
0.2505 7.0135 -2.5097 0.9706
-0.5005 6.9983 -2.5090 0.9706
-0.7499 6.9754 -2.5088 0.9706
-1.7343 6.7950 -2.5078 0.9706
-1.9755 6.7280 -2.5076 0.9707
-2.2142 6.6525 -2.5073 0.9707
-2.6825 6.4761 -2.5067 0.9707
-2.9116 6.3755 -2.5064 0.9707
-3.1369 6.2668 -2.5061 0.9707
-3.5751 6.0255 -2.5055 0.9707
-3.7874 5.8933 -2.5052 0.9707
-3.9948 5.7537 -2.5049 0.9707
-4.3940 5.4526 -2.5042 0.9707
-4.5852 5.2916 -2.5039 0.9707
-5.2887 4.5827 -2.5025 0.9707
-5.4482 4.3904 -2.5022 0.9707
-5.6006 4.1926 -2.5018 0.9707
-5.8838 3.7813 -2.5011 0.9707
-6.0142 3.5684 -2.5008 0.9707
-6.1369 3.3510 -2.5005 0.9707
-6.2518 3.1294 -2.5001 0.9707
-6.3586 2.9039 -2.4998 0.9707
-6.6299 2.2067 -2.4988 0.9708
-6.7036 1.9684 -2.4985 0.9708
-6.8252 1.4847 -2.4978 0.9708
-6.8730 1.2400 -2.4975 0.9708
-6.9120 0.9938 -2.4972 0.9708
-6.9422 0.7464 -2.4969 0.9708
-6.9636 0.4980 -2.4966 0.9708
6.4774 0.9313 -2.5078 0.9724
6.4407 1.1620 -2.5080 0.9724
6.3957 1.3913 -2.5083 0.9724
6.3425 1.6188 -2.5085 0.9723
6.2811 1.8443 -2.5087 0.9723
6.1345 2.2881 -2.5090 0.9723
5.9565 2.7202 -2.5094 0.9723
5.8559 2.9313 -2.5096 0.9723
5.7479 3.1386 -2.5097 0.9723
5.6325 3.3419 -2.5098 0.9723
5.5099 3.5410 -2.5100 0.9723
5.3803 3.7356 -2.5101 0.9723
5.2438 3.9254 -2.5102 0.9723
5.1005 4.1102 -2.5103 0.9723
4.6323 4.6323 -2.5105 0.9723
4.2902 4.9511 -2.5106 0.9723
4.1108 5.1012 -2.5106 0.9723
3.9261 5.2447 -2.5106 0.9723
3.7364 5.3815 -2.5106 0.9723
3.5419 5.5114 -2.5106 0.9723
3.1397 5.7499 -2.5105 0.9723
2.5069 6.0522 -2.5104 0.9723
2.2892 6.1376 -2.5103 0.9723
1.8454 6.2848 -2.5101 0.9723
1.3922 6.3998 -2.5099 0.9723
1.1628 6.4451 -2.5098 0.9723
0.9320 6.4821 -2.5096 0.9723
0.2337 6.5433 -2.5091 0.9723
-0.4670 6.5293 -2.5085 0.9723
-1.3910 6.3941 -2.5077 0.9724
-1.6181 6.3398 -2.5074 0.9724
-2.7167 5.9487 -2.5061 0.9724
-2.9269 5.8472 -2.5058 0.9724
-3.1334 5.7384 -2.5055 0.9724
-3.3358 5.6222 -2.5052 0.9724
-4.7800 4.4503 -2.5028 0.9724
-5.0840 4.0969 -2.5021 0.9724
-5.2263 3.9124 -2.5018 0.9724
-5.3619 3.7228 -2.5015 0.9724
-5.4907 3.5286 -2.5012 0.9724
-5.6124 3.3300 -2.5009 0.9724
-5.8342 2.9204 -2.5002 0.9724
-5.9339 2.7099 -2.4999 0.9724
-6.0261 2.4961 -2.4996 0.9724
-6.1106 2.2791 -2.4993 0.9724
-6.1873 2.0593 -2.4990 0.9725
-6.2561 1.8370 -2.4987 0.9725
-6.3169 1.6123 -2.4984 0.9725
-6.4143 1.1573 -2.4978 0.9725
-6.4508 0.9275 -2.4975 0.9725
6.1242 0.0000 -2.5065 0.9739
6.1097 0.4370 -2.5070 0.9739
6.0641 0.8719 -2.5074 0.9739
6.0296 1.0879 -2.5076 0.9739
5.9875 1.3025 -2.5078 0.9739
5.9376 1.5155 -2.5080 0.9739
5.8802 1.7266 -2.5082 0.9739
5.7429 2.1420 -2.5086 0.9739
5.5761 2.5465 -2.5089 0.9739
5.4820 2.7441 -2.5090 0.9739
5.3809 2.9382 -2.5092 0.9739
5.1581 3.3149 -2.5094 0.9738
4.9088 3.6747 -2.5096 0.9738
4.7747 3.8477 -2.5097 0.9738
4.6345 4.0158 -2.5098 0.9738
4.4883 4.1788 -2.5099 0.9738
4.0161 4.6349 -2.5100 0.9738
3.8482 4.7753 -2.5100 0.9738
3.6753 4.9096 -2.5100 0.9738
3.4977 5.0377 -2.5100 0.9738
3.1294 5.2743 -2.5100 0.9738
2.7451 5.4840 -2.5099 0.9738
2.5475 5.5783 -2.5099 0.9738
2.3467 5.6656 -2.5098 0.9738
1.7275 5.8834 -2.5096 0.9738
1.5164 5.9410 -2.5095 0.9738
1.3033 5.9911 -2.5094 0.9738
0.8725 6.0682 -2.5091 0.9739
0.6553 6.0951 -2.5090 0.9739
0.0000 6.1291 -2.5085 0.9739
-0.6550 6.0926 -2.5079 0.9739
-1.5149 5.9353 -2.5070 0.9739
-1.9341 5.8110 -2.5066 0.9739
-2.1401 5.7377 -2.5063 0.9739
-2.7403 5.4744 -2.5056 0.9739
-3.3087 5.1484 -2.5047 0.9739
-3.6667 4.8981 -2.5042 0.9739
-3.8388 4.7636 -2.5039 0.9739
-4.4755 4.1669 -2.5027 0.9739
-4.6208 4.0040 -2.5024 0.9739
-4.7602 3.8360 -2.5021 0.9739
-4.8935 3.6632 -2.5018 0.9739
-5.0205 3.4858 -2.5015 0.9739
-5.2552 3.1180 -2.5009 0.9739
-5.5564 2.5375 -2.5000 0.9739
-5.6427 2.3373 -2.4997 0.9739
-5.8582 1.7201 -2.4989 0.9740
-6.0407 0.8685 -2.4977 0.9740
-6.0971 0.2178 -2.4970 0.9740
5.7369 0.4103 -2.5066 0.9752
5.6940 0.8187 -2.5070 0.9752
5.6220 1.2230 -2.5074 0.9752
5.5751 1.4230 -2.5076 0.9752
5.5212 1.6212 -2.5078 0.9752
5.4602 1.8173 -2.5080 0.9752
5.1472 2.5765 -2.5086 0.9752
5.0522 2.7587 -2.5087 0.9752
4.8430 3.1124 -2.5089 0.9752
4.7290 3.2834 -2.5090 0.9752
3.9236 4.2143 -2.5094 0.9752
3.7708 4.3517 -2.5095 0.9752
3.4508 4.6097 -2.5095 0.9752
3.2840 4.7299 -2.5095 0.9752
3.1131 4.8441 -2.5095 0.9752
2.3919 5.2376 -2.5094 0.9752
2.2034 5.3195 -2.5093 0.9752
2.0121 5.3946 -2.5093 0.9752
1.6220 5.5240 -2.5091 0.9752
1.0221 5.6650 -2.5088 0.9752
0.8192 5.6976 -2.5086 0.9752
0.0000 5.7548 -2.5081 0.9752
-0.2054 5.7508 -2.5079 0.9752
-0.4105 5.7394 -2.5077 0.9752
-2.2003 5.3120 -2.5058 0.9752
-2.5731 5.1405 -2.5053 0.9752
-2.7547 5.0449 -2.5051 0.9752
-3.1069 4.8345 -2.5045 0.9752
-3.2772 4.7200 -2.5043 0.9752
-3.4432 4.5996 -2.5040 0.9752
-3.7617 4.3413 -2.5035 0.9752
-4.0609 4.0609 -2.5029 0.9753
-4.2028 3.9130 -2.5026 0.9753
-4.4703 3.6024 -2.5021 0.9753
-4.7148 3.2735 -2.5015 0.9753
-4.8281 3.1028 -2.5012 0.9753
-4.9352 2.9282 -2.5009 0.9753
-5.1304 2.5681 -2.5004 0.9753
-5.2993 2.1951 -2.4998 0.9753
-5.3737 2.0043 -2.4996 0.9753
-5.4412 1.8110 -2.4993 0.9753
-5.5554 1.4179 -2.4988 0.9753
-5.6734 0.8157 -2.4980 0.9753
5.4137 0.0000 -2.5059 0.9764
5.4008 0.3863 -2.5063 0.9764
5.3840 0.5789 -2.5065 0.9764
5.3603 0.7707 -2.5067 0.9764
5.2484 1.3396 -2.5073 0.9764
5.1976 1.5262 -2.5074 0.9764
5.0761 1.8933 -2.5078 0.9764
5.0056 2.0734 -2.5079 0.9764
4.9287 2.2508 -2.5080 0.9764
4.8454 2.4255 -2.5082 0.9764
4.7560 2.5970 -2.5083 0.9764
4.6605 2.7652 -2.5084 0.9764
4.5590 2.9299 -2.5085 0.9764
4.4517 3.0909 -2.5086 0.9764
4.3387 3.2479 -2.5087 0.9764
4.0962 3.5494 -2.5088 0.9764
3.9670 3.6934 -2.5089 0.9764
3.8327 3.8327 -2.5089 0.9764
3.6935 3.9671 -2.5090 0.9764
3.2484 4.3393 -2.5091 0.9764
3.0914 4.4525 -2.5091 0.9764
2.9305 4.5600 -2.5090 0.9764
2.0742 5.0075 -2.5089 0.9764
1.8941 5.0782 -2.5088 0.9764
1.7116 5.1424 -2.5087 0.9764
1.5269 5.2001 -2.5086 0.9764
1.3403 5.2511 -2.5086 0.9764
1.1519 5.2953 -2.5085 0.9764
0.9621 5.3328 -2.5083 0.9764
0.5792 5.3874 -2.5081 0.9764
0.3865 5.4043 -2.5080 0.9764
0.0000 5.4175 -2.5077 0.9764
-0.3864 5.4030 -2.5073 0.9764
-0.5790 5.3854 -2.5072 0.9764
-0.7708 5.3609 -2.5070 0.9764
-0.9616 5.3296 -2.5068 0.9764
-1.1511 5.2914 -2.5066 0.9764
-1.3391 5.2466 -2.5064 0.9764
-1.5254 5.1950 -2.5062 0.9764
-1.8918 5.0721 -2.5058 0.9764
-2.0714 5.0009 -2.5056 0.9764
-2.5934 4.7495 -2.5049 0.9764
-2.7610 4.6534 -2.5046 0.9764
-3.0853 4.4437 -2.5041 0.9764
-3.2417 4.3303 -2.5039 0.9764
-3.5416 4.0872 -2.5034 0.9764
-4.2088 3.3917 -2.5020 0.9765
-4.4391 3.0821 -2.5015 0.9765
-4.6467 2.7570 -2.5010 0.9765
-4.7416 2.5891 -2.5007 0.9765
-4.9897 2.0668 -2.4999 0.9765
-5.0597 1.8872 -2.4997 0.9765
-5.1804 1.5211 -2.4992 0.9765
-5.2309 1.3351 -2.4989 0.9765
-5.3656 0.5769 -2.4980 0.9765
5.1053 0.1823 -2.5059 0.9775
5.0959 0.3645 -2.5061 0.9775
5.0577 0.7272 -2.5064 0.9775
5.0289 0.9073 -2.5066 0.9775
4.9937 1.0863 -2.5068 0.9775
4.9520 1.2639 -2.5070 0.9775
4.9041 1.4400 -2.5071 0.9775
4.6503 2.1237 -2.5077 0.9775
4.4873 2.4503 -2.5079 0.9775
4.3972 2.6090 -2.5080 0.9775
4.2002 2.9163 -2.5082 0.9775
3.9817 3.2087 -2.5084 0.9775
3.8647 3.3488 -2.5084 0.9775
3.7428 3.4847 -2.5085 0.9775
3.4848 3.7430 -2.5086 0.9775
3.3490 3.8650 -2.5086 0.9775
3.2090 3.9821 -2.5086 0.9775
3.0648 4.0941 -2.5086 0.9775
2.7649 4.3023 -2.5086 0.9775
2.6096 4.3982 -2.5086 0.9775
1.7871 4.7913 -2.5084 0.9775
1.4406 4.9063 -2.5082 0.9775
1.0869 4.9962 -2.5081 0.9775
0.9078 5.0316 -2.5080 0.9775
0.7276 5.0606 -2.5079 0.9775
-0.3646 5.0979 -2.5070 0.9775
-0.9073 5.0287 -2.5065 0.9775
-1.0861 4.9927 -2.5063 0.9775
-1.2635 4.9504 -2.5061 0.9775
-1.4393 4.9018 -2.5059 0.9775
-1.6132 4.8469 -2.5057 0.9775
-1.7850 4.7858 -2.5055 0.9775
-2.4471 4.4815 -2.5047 0.9775
-2.7601 4.2948 -2.5042 0.9775
-3.0588 4.0861 -2.5037 0.9775
-3.2024 3.9740 -2.5035 0.9775
-3.3419 3.8568 -2.5033 0.9775
-3.4771 3.7347 -2.5030 0.9775
-4.0829 3.0564 -2.5018 0.9775
-4.1890 2.9085 -2.5015 0.9775
-4.4745 2.4433 -2.5008 0.9775
-4.6365 2.1174 -2.5003 0.9775
-4.7748 1.7809 -2.4998 0.9776
-4.8888 1.4355 -2.4993 0.9776
-4.9364 1.2600 -2.4991 0.9776
-4.9778 1.0829 -2.4988 0.9776
-5.0637 0.5444 -2.4982 0.9776
-5.0794 0.3633 -2.4979 0.9776
4.8295 0.0000 -2.5054 0.9785
4.8179 0.3446 -2.5058 0.9785
4.7817 0.6875 -2.5062 0.9785
4.7211 1.0270 -2.5065 0.9785
4.6818 1.1950 -2.5067 0.9785
4.6364 1.3614 -2.5068 0.9785
4.5280 1.6889 -2.5071 0.9785
4.3964 2.0078 -2.5073 0.9785
4.3221 2.1635 -2.5075 0.9785
4.2424 2.3165 -2.5076 0.9785
4.1571 2.4665 -2.5077 0.9785
3.8700 2.8971 -2.5079 0.9785
3.6537 3.1660 -2.5081 0.9785
3.5384 3.2944 -2.5081 0.9784
3.4187 3.4187 -2.5082 0.9784
3.2945 3.5386 -2.5082 0.9784
2.8974 3.8705 -2.5082 0.9784
2.6139 4.0674 -2.5082 0.9784
2.1641 4.3234 -2.5082 0.9784
2.0084 4.3978 -2.5081 0.9784
1.8501 4.4666 -2.5081 0.9784
1.6895 4.5297 -2.5080 0.9785
1.5267 4.5870 -2.5080 0.9785
1.3620 4.6384 -2.5079 0.9785
1.1955 4.6839 -2.5078 0.9785
1.0275 4.7234 -2.5077 0.9785
0.8582 4.7569 -2.5076 0.9785
0.6879 4.7843 -2.5075 0.9785
0.3448 4.8207 -2.5073 0.9785
-0.1725 4.8292 -2.5069 0.9785
-0.3447 4.8197 -2.5067 0.9785
-0.6876 4.7822 -2.5064 0.9785
-0.8578 4.7543 -2.5062 0.9785
-1.0268 4.7203 -2.5061 0.9785
-1.1946 4.6803 -2.5059 0.9785
-1.3608 4.6344 -2.5057 0.9785
-1.8479 4.4613 -2.5051 0.9785
-2.7526 3.9645 -2.5038 0.9785
-2.8921 3.8634 -2.5036 0.9785
-3.2876 3.5311 -2.5029 0.9785
-3.7553 3.0262 -2.5020 0.9785
-3.8605 2.8900 -2.5018 0.9785
-4.0561 2.6067 -2.5013 0.9785
-4.1461 2.4600 -2.5010 0.9785
-4.2309 2.3102 -2.5008 0.9785
-4.3841 2.0022 -2.5003 0.9785
-4.4524 1.8442 -2.5001 0.9785
-4.5149 1.6840 -2.4999 0.9785
-4.5718 1.5216 -2.4997 0.9785
-4.6227 1.3574 -2.4994 0.9785
-4.6678 1.1914 -2.4992 0.9785
-4.7401 0.8552 -2.4988 0.9785
-4.7672 0.6854 -2.4986 0.9785
4.5631 0.3264 -2.5056 0.9794
4.5029 0.8124 -2.5061 0.9793
4.4713 0.9727 -2.5062 0.9793
4.4340 1.1317 -2.5064 0.9793
4.3911 1.2893 -2.5065 0.9793
4.3425 1.4453 -2.5067 0.9793
4.2884 1.5995 -2.5068 0.9793
4.2287 1.7516 -2.5069 0.9793
3.9371 2.3360 -2.5074 0.9793
3.7607 2.6111 -2.5075 0.9793
3.4603 2.9983 -2.5077 0.9793
3.3511 3.1200 -2.5078 0.9793
3.2377 3.2377 -2.5078 0.9793
3.1201 3.3512 -2.5078 0.9793
2.9985 3.4605 -2.5079 0.9793
2.8731 3.5653 -2.5079 0.9793
2.7440 3.6656 -2.5079 0.9793
2.3365 3.9379 -2.5079 0.9793
2.1944 4.0188 -2.5079 0.9793
1.1322 4.4360 -2.5075 0.9793
0.9731 4.4734 -2.5074 0.9793
0.8128 4.5051 -2.5073 0.9793
0.6515 4.5311 -2.5072 0.9793
0.4893 4.5512 -2.5071 0.9793
0.3265 4.5656 -2.5070 0.9793
0.1634 4.5741 -2.5069 0.9793
-0.6512 4.5292 -2.5062 0.9793
-0.8124 4.5028 -2.5060 0.9793
-1.2888 4.3892 -2.5055 0.9794
-1.4445 4.3401 -2.5053 0.9794
-2.4717 3.8460 -2.5039 0.9794
-2.7393 3.6592 -2.5035 0.9794
-2.8679 3.5588 -2.5033 0.9794
-2.9928 3.4539 -2.5031 0.9794
-3.3440 3.1134 -2.5024 0.9794
-3.4527 2.9917 -2.5022 0.9794
-3.5569 2.8664 -2.5020 0.9794
-3.6566 2.7373 -2.5017 0.9794
-3.7517 2.6048 -2.5015 0.9794
-3.8419 2.4690 -2.5013 0.9794
-4.0075 2.1883 -2.5009 0.9794
-4.1527 1.8965 -2.5004 0.9794
-4.2174 1.7469 -2.5002 0.9794
-4.2767 1.5951 -2.5000 0.9794
-4.4215 1.1285 -2.4993 0.9794
-4.4586 0.9699 -2.4991 0.9794
-4.5157 0.6493 -2.4987 0.9794
-4.5357 0.4876 -2.4985 0.9794
-4.5498 0.3254 -2.4983 0.9794
-4.5582 0.1628 -2.4981 0.9794
4.3364 0.1549 -2.5052 0.9802
4.3284 0.3096 -2.5054 0.9802
4.2413 0.9227 -2.5060 0.9802
4.2059 1.0735 -2.5061 0.9802
4.1652 1.2230 -2.5063 0.9801
4.0112 1.6615 -2.5067 0.9801
3.9495 1.8037 -2.5068 0.9801
3.8111 2.0810 -2.5070 0.9801
3.7345 2.2158 -2.5071 0.9801
3.6531 2.3477 -2.5071 0.9801
3.2822 2.8440 -2.5074 0.9801
3.1786 2.9594 -2.5074 0.9801
3.0710 3.0710 -2.5075 0.9801
2.8442 3.2824 -2.5075 0.9801
2.6028 3.4769 -2.5076 0.9801
2.4770 3.5676 -2.5076 0.9801
2.2162 3.7352 -2.5076 0.9801
2.0815 3.8119 -2.5075 0.9801
1.9441 3.8837 -2.5075 0.9801
1.8042 3.9506 -2.5075 0.9801
1.5177 4.0691 -2.5074 0.9801
1.3715 4.1206 -2.5073 0.9801
1.0739 4.2077 -2.5072 0.9801
0.9230 4.2432 -2.5071 0.9801
0.7710 4.2733 -2.5070 0.9801
0.6179 4.2979 -2.5069 0.9801
0.4641 4.3170 -2.5068 0.9801
0.3097 4.3307 -2.5067 0.9801
0.0000 4.3413 -2.5065 0.9801
-0.3097 4.3298 -2.5062 0.9801
-0.6177 4.2962 -2.5059 0.9802
-0.9225 4.2407 -2.5056 0.9802
-1.0732 4.2048 -2.5055 0.9802
-1.3703 4.1169 -2.5051 0.9802
-1.9416 3.8789 -2.5044 0.9802
-2.4731 3.5620 -2.5036 0.9802
-2.5985 3.4712 -2.5034 0.9802
-2.7205 3.3760 -2.5032 0.9802
-2.8390 3.2764 -2.5030 0.9802
-3.0650 3.0650 -2.5026 0.9802
-3.3743 2.7191 -2.5020 0.9802
-3.4689 2.5968 -2.5017 0.9802
-3.6446 2.3423 -2.5013 0.9802
-3.7256 2.2105 -2.5011 0.9802
-3.8732 1.9388 -2.5007 0.9802
-3.9396 1.7991 -2.5005 0.9802
-4.0009 1.6572 -2.5003 0.9802
-4.0572 1.5133 -2.5001 0.9802
-4.1541 1.2198 -2.4996 0.9802
-4.1947 1.0706 -2.4994 0.9802
-4.2299 0.9202 -2.4993 0.9802
-4.2841 0.6160 -2.4989 0.9802
