ply
format ascii 1.0
element vertex 1420
property float32 x
property float32 y
property float32 z
property float32 I
end_header
39.5047 10.0830 7.1891 0.8474
33.4282 11.1260 6.2122 0.8667
29.1996 12.0949 5.5729 0.8795
27.8854 12.7348 5.4054 0.8829
26.2049 13.1172 5.1672 0.8878
23.9635 13.0851 4.8143 0.8950
23.2434 13.7910 4.7655 0.8960
20.6961 14.3696 4.4427 0.9027
19.1857 14.3622 4.2258 0.9072
17.3825 15.0620 4.0556 0.9108
16.6034 15.4583 4.0001 0.9120
15.7107 15.7107 3.9177 0.9137
13.5555 15.6439 3.6499 0.9194
5.9106 8.5128 1.8274 0.9588
6.5899 17.6683 3.3250 0.9263
6.0348 18.1317 3.3695 0.9253
3.3174 18.3871 3.2945 0.9269
1.9657 18.2840 3.2425 0.9280
0.6840 19.1515 3.3791 0.9251
-0.0000 25.8081 4.5507 0.9005
-0.9293 26.0201 4.5910 0.8996
-1.4142 19.7732 3.4955 0.9226
-2.7845 19.3668 3.4500 0.9236
-3.5246 19.5356 3.5003 0.9225
-4.3677 20.0778 3.6231 0.9199
-6.1158 20.8284 3.8277 0.9156
-6.9267 20.8114 3.8675 0.9148
-10.7484 21.4725 4.2340 0.9071
-11.9121 21.8154 4.3827 0.9040
-13.9630 21.7267 4.5539 0.9004
-15.2936 22.0270 4.7283 0.8968
-17.2251 23.0100 5.0682 0.8898
-12.9250 12.9250 3.2230 0.9284
-13.5060 12.5745 3.2538 0.9278
25.3368 4.5713 3.9441 0.9011
42.6759 9.2836 6.6906 0.8380
34.0453 11.3314 5.4968 0.8648
31.7693 11.8494 5.1944 0.8718
29.0909 12.0499 4.8237 0.8804
26.2013 13.1154 4.4887 0.8882
24.2070 13.2181 4.2252 0.8944
22.1041 14.2055 4.0252 0.8991
19.1844 14.3613 3.6712 0.9076
18.1580 14.6327 3.5725 0.9099
16.9174 15.7507 3.5410 0.9107
20.5925 20.5925 4.4614 0.8888
12.7530 15.8256 3.1136 0.9210
12.2501 16.3643 3.1315 0.9206
5.9086 8.5100 1.5871 0.9589
5.6287 8.7584 1.5949 0.9587
13.4876 22.7322 4.0493 0.8986
8.5461 17.0730 2.9249 0.9256
7.0895 17.1155 2.8380 0.9278
6.6048 17.7081 2.8953 0.9264
7.9833 23.9859 3.8727 0.9028
7.1472 24.3413 3.8864 0.9024
6.2810 24.6087 3.8908 0.9023
5.3662 24.6683 3.8674 0.9029
3.3229 18.4175 2.8670 0.9271
1.1552 8.0349 1.2436 0.9677
1.9656 18.2830 2.8170 0.9283
1.3444 18.7976 2.8870 0.9266
-0.0000 25.8874 3.9658 0.9005
-7.7997 20.9117 3.4191 0.9136
-8.5679 20.6846 3.4298 0.9134
-9.5485 20.9083 3.5212 0.9112
-10.9152 21.8057 3.7357 0.9060
-12.0443 22.0574 3.8500 0.9033
-14.1049 21.9476 3.9967 0.8998
-15.4491 22.2509 4.1498 0.8962
-18.8371 23.3754 4.5990 0.8856
-12.9210 12.9210 2.7993 0.9287
35.5624 10.4421 4.8265 0.8611
29.3002 12.1365 4.1299 0.8799
28.0099 12.7917 4.0098 0.8832
26.3867 13.2082 3.8425 0.8878
22.5595 14.4981 3.4921 0.8975
17.6107 15.2598 3.0344 0.9103
14.9815 16.0913 2.8630 0.9151
12.7523 15.8247 2.6465 0.9213
12.2526 16.3676 2.6624 0.9208
5.9066 8.5072 1.3487 0.9591
12.8064 23.4531 3.4797 0.8978
8.5830 17.1467 2.4970 0.9256
7.0891 17.1147 2.4123 0.9280
6.6149 17.7352 2.4649 0.9265
7.2576 24.7172 3.3546 0.9013
6.3940 25.0515 3.3668 0.9010
5.4177 24.9048 3.3190 0.9023
3.3202 18.4028 2.4351 0.9273
1.9655 18.2821 2.3944 0.9285
-0.0000 26.1900 3.4105 0.8997
-2.1217 19.7346 2.5847 0.9231
-4.3882 20.1723 2.6883 0.9201
-6.8981 27.0264 3.6322 0.8936
-8.0102 27.2800 3.7024 0.8916
-9.3415 28.0667 3.8520 0.8875
-9.5479 20.9070 2.9930 0.9115
-13.1591 22.1784 3.3582 0.9012
-15.4479 22.2492 3.5272 0.8965
-17.5571 23.4535 3.8151 0.8885
-18.8668 23.4122 3.9155 0.8858
-12.9171 12.9171 2.3788 0.9290
25.2837 4.5617 2.7588 0.9018
41.6365 9.0575 4.5756 0.8425
39.5055 10.0832 4.3782 0.8487
34.1132 11.3540 3.8607 0.8653
32.3588 12.0692 3.7086 0.8703
28.3870 12.9639 3.3511 0.8820
35.4273 17.7337 4.2542 0.8527
24.2034 13.2161 2.9612 0.8950
23.3379 13.8470 2.9140 0.8966
29.7621 19.1270 3.7990 0.8673
18.1576 14.6324 2.5041 0.9105
22.7551 21.1858 3.3386 0.8824
20.7298 20.7299 3.1480 0.8887
14.4972 15.5710 2.2845 0.9180
12.7516 15.8238 2.1822 0.9215
9.1892 16.8288 2.0590 0.9258
8.5090 16.9987 2.0413 0.9264
6.5066 17.4448 1.9993 0.9278
8.0363 24.1453 2.7326 0.9027
4.2011 19.3121 2.1223 0.9236
1.3326 18.6324 2.0059 0.9276
-0.0000 26.3698 2.8316 0.8993
-4.3271 19.8916 2.1859 0.9214
-5.1114 20.0263 2.2194 0.9202
-9.5469 28.6836 3.2462 0.8855
-7.8101 20.9396 2.3998 0.9140
-8.5668 20.6821 2.4039 0.9139
-9.5473 20.9057 2.4679 0.9117
-17.0666 34.0947 4.0942 0.8578
-17.6689 32.3580 3.9589 0.8622
-13.2138 22.2707 2.7807 0.9011
-14.1029 21.9445 2.8011 0.9004
-18.9920 23.5676 3.2502 0.8854
-20.2212 23.3364 3.3158 0.8832
-12.9133 12.9133 1.9610 0.9292
-13.5668 12.6311 1.9905 0.9281
25.2766 4.5604 2.1743 0.9020
43.3689 9.4343 3.7572 0.8368
29.2997 12.1363 2.6847 0.8805
28.5943 13.0586 2.6611 0.8814
24.2016 13.2151 2.3342 0.8952
30.0378 19.3042 3.0226 0.8665
18.1574 14.6322 1.9740 0.9106
14.6036 15.6854 1.8142 0.9176
12.7509 15.8230 1.7202 0.9217
12.1602 16.2442 1.7177 0.9218
13.3759 22.5440 2.2190 0.9001
9.2306 16.9047 1.6305 0.9256
6.5360 17.5238 1.5833 0.9277
7.2053 24.5389 2.1650 0.9024
6.3150 24.7418 2.1616 0.9026
5.3141 24.4286 2.1163 0.9045
1.1547 8.0314 0.6869 0.9680
1.3386 18.7159 1.5884 0.9274
-0.9221 25.8181 2.1870 0.9015
-1.4685 20.5318 1.7425 0.9207
-2.7839 19.3627 1.6560 0.9245
-3.4271 18.9954 1.6340 0.9254
-6.8973 27.0235 2.3609 0.8941
-8.0092 27.2769 2.4066 0.8922
-7.0901 21.3021 1.9005 0.9138
-7.7511 20.7815 1.8776 0.9148
-8.5663 20.6809 1.8949 0.9141
-12.5178 22.9246 2.2111 0.9005
-14.1019 21.9430 2.2080 0.9006
-14.6655 21.1223 2.1768 0.9019
-12.9094 12.9094 1.5455 0.9293
-31.6710 17.2937 3.0547 0.8651
41.2814 8.9802 2.6197 0.8442
29.2994 12.1362 1.9666 0.8806
26.0911 13.0603 1.8093 0.8896
24.1998 13.2141 1.7098 0.8954
23.0328 14.8023 1.6978 0.8961
19.1795 14.3576 1.4856 0.9084
18.1572 14.6320 1.4460 0.9108
22.5906 21.0326 1.9140 0.8836
20.7275 20.7275 1.8177 0.8892
13.5517 15.6395 1.2832 0.9204
13.4497 22.6683 1.6345 0.8998
8.5460 17.0727 1.1839 0.9263
7.7463 16.9621 1.1563 0.9280
7.0881 17.1121 1.1486 0.9285
6.5353 17.5218 1.1596 0.9278
7.9614 23.9202 1.5633 0.9039
5.4543 25.0731 1.5911 0.9023
3.2949 18.2624 1.1507 0.9283
1.1546 8.0302 0.5031 0.9680
1.3384 18.7137 1.1634 0.9276
0.6733 18.8514 1.1697 0.9272
-0.9269 25.9511 1.6103 0.9012
-1.4687 20.5344 1.2766 0.9208
-2.0951 19.4873 1.2154 0.9245
-6.8969 27.0220 1.7294 0.8943
-7.1364 21.4414 1.4013 0.9134
-8.5658 20.6796 1.3880 0.9142
-12.5997 23.0746 1.6303 0.9000
-13.0411 21.9796 1.5848 0.9026
-18.3479 24.5099 1.8985 0.8845
-18.7579 23.2772 1.8538 0.8871
-20.2178 23.3326 1.9145 0.8836
-13.6071 12.6686 1.1529 0.9282
25.2625 4.5579 1.0122 0.9023
35.9121 10.5448 1.4758 0.8609
29.2992 12.1361 1.2505 0.8808
24.1980 13.2131 1.0871 0.8955
23.0337 14.8029 1.0796 0.8962
28.5361 19.8130 1.3698 0.8702
19.1783 14.3567 0.9446 0.9086
18.1570 14.6319 0.9195 0.9109
17.3645 15.0465 0.9060 0.9121
22.9344 21.3527 1.2356 0.8821
20.7262 20.7263 1.1558 0.8893
5.8989 8.4960 0.4078 0.9594
13.4481 22.6655 1.0392 0.8999
8.5449 17.0706 0.7527 0.9264
7.7460 16.9613 0.7352 0.9281
6.5345 17.5197 0.7373 0.9279
7.3146 24.9115 1.0238 0.9013
6.4108 25.1174 1.0222 0.9014
3.2945 18.2603 0.7316 0.9284
1.3383 18.7115 0.7397 0.9277
0.6732 18.8492 0.7437 0.9273
-0.9268 25.9480 1.0238 0.9013
-2.7837 19.3607 0.7713 0.9247
-4.3520 20.0059 0.8073 0.9213
-7.1369 21.4430 0.8911 0.9135
-9.5456 20.9018 0.9061 0.9121
-12.6005 23.0761 1.0367 0.9001
-14.1000 21.9399 1.0284 0.9009
-18.7543 23.2726 1.1785 0.8872
-20.2162 23.3307 1.2173 0.8838
42.6636 9.2809 0.7375 0.8397
29.2989 12.1360 0.5357 0.8808
28.4957 13.0136 0.5292 0.8822
26.0817 13.0556 0.4927 0.8899
24.1963 13.2122 0.4657 0.8956
28.8201 20.0101 0.5927 0.8690
19.1770 14.3558 0.4047 0.9086
17.3620 15.0443 0.3881 0.9122
22.9331 21.3515 0.5293 0.8822
20.7251 20.7251 0.4951 0.8894
14.5977 15.6791 0.3619 0.9179
13.5502 15.6378 0.3495 0.9206
5.8970 8.4933 0.1747 0.9595
5.6440 8.7823 0.1763 0.9591
13.4464 22.6628 0.4451 0.8999
8.5439 17.0686 0.3224 0.9265
7.7456 16.9604 0.3150 0.9281
7.0874 17.1104 0.3128 0.9286
7.9595 23.9146 0.4258 0.9041
7.3143 24.9103 0.4385 0.9013
1.1542 8.0277 0.1370 0.9681
1.3381 18.7093 0.3168 0.9277
0.6731 18.8469 0.3186 0.9273
-0.0000 26.3134 0.4445 0.9001
-0.9266 25.9448 0.4385 0.9014
-2.0946 19.4824 0.3310 0.9246
-2.7835 19.3597 0.3304 0.9247
-3.5233 19.5283 0.3352 0.9237
-6.8962 27.0190 0.4710 0.8944
-8.0079 27.2724 0.4801 0.8925
-7.7478 20.7727 0.3745 0.9151
-8.5648 20.6772 0.3781 0.9144
-17.0217 34.0051 0.6424 0.8589
-18.7507 23.2681 0.5048 0.8873
-20.2145 23.3287 0.5214 0.8838
-12.8979 12.8979 0.3081 0.9296
-13.6475 12.7063 0.3150 0.9281
25.2484 4.5553 -0.1444 0.9025
42.6523 9.2784 -0.2458 0.8398
39.5202 10.0869 -0.2296 0.8495
31.6149 11.7918 -0.1900 0.8737
26.0770 13.0532 -0.1642 0.8899
24.1945 13.2112 -0.1552 0.8956
13.5495 15.6370 -0.1165 0.9206
12.7482 15.8196 -0.1144 0.9219
12.1540 16.2358 -0.1142 0.9221
5.8951 8.4905 -0.0582 0.9595
5.6466 8.7862 -0.0588 0.9591
13.4448 22.6600 -0.1483 0.9000
7.7452 16.9596 -0.1050 0.9281
7.9586 23.9118 -0.1419 0.9041
6.4102 25.1150 -0.1459 0.9015
5.4535 25.0694 -0.1444 0.9025
1.1540 8.0264 -0.0457 0.9681
1.9649 18.2767 -0.1035 0.9291
0.6730 18.8447 -0.1062 0.9273
-0.0000 26.3121 -0.1481 0.9001
-0.9265 25.9417 -0.1461 0.9014
-2.0943 19.4800 -0.1103 0.9246
-2.7834 19.3587 -0.1101 0.9247
-6.8958 27.0176 -0.1570 0.8945
-7.7467 20.7697 -0.1248 0.9151
-8.5643 20.6759 -0.1260 0.9144
-17.0201 34.0018 -0.2141 0.8589
-12.6021 23.0790 -0.1480 0.9002
-13.0346 21.9687 -0.1438 0.9029
-14.0980 21.9369 -0.1468 0.9009
-20.2128 23.3268 -0.1738 0.8839
39.5219 10.0874 -1.1485 0.8494
31.6084 11.7894 -0.9499 0.8737
26.0723 13.0509 -0.8210 0.8899
24.1927 13.2102 -0.7762 0.8956
23.1355 13.7269 -0.7575 0.8979
23.0366 14.8048 -0.7711 0.8962
19.1746 14.3539 -0.6744 0.9086
18.1564 14.6314 -0.6566 0.9109
17.3569 15.0398 -0.6467 0.9122
14.5938 15.6749 -0.6031 0.9179
5.6491 8.7902 -0.2942 0.9590
9.2251 16.8944 -0.5420 0.9259
6.5322 17.5135 -0.5263 0.9279
5.4532 25.0682 -0.7224 0.9024
1.1538 8.0252 -0.2283 0.9681
1.3378 18.7049 -0.5280 0.9277
0.6729 18.8425 -0.5309 0.9273
-0.9264 25.9385 -0.7308 0.9014
-2.7832 19.3577 -0.5507 0.9247
-3.5229 19.5262 -0.5587 0.9237
-4.3503 19.9982 -0.5763 0.9214
-6.8954 27.0161 -0.7851 0.8944
-8.0070 27.2693 -0.8003 0.8925
-7.1385 21.4477 -0.6365 0.9135
-7.7456 20.7668 -0.6241 0.9151
-9.5438 20.8980 -0.6469 0.9122
-14.0970 21.9353 -0.7342 0.9009
-15.4401 22.2380 -0.7623 0.8973
-18.7434 23.2591 -0.8411 0.8873
-20.2112 23.3249 -0.8690 0.8838
47.0733 1.6813 -2.3888 0.8281
46.9662 5.0494 -2.3956 0.8276
25.2344 4.5528 -1.3004 0.9024
42.5053 9.2465 -2.2060 0.8401
31.5094 11.7524 -1.7055 0.8740
29.2982 12.1357 -1.6083 0.8807
26.0676 13.0485 -1.4784 0.8898
24.1909 13.2093 -1.3978 0.8955
28.8144 20.0062 -1.7790 0.8689
19.1734 14.3530 -1.2146 0.9085
17.3543 15.0376 -1.1646 0.9121
20.7215 20.7215 -1.4862 0.8893
14.5919 15.6728 -1.0860 0.9178
13.5480 15.6352 -1.0492 0.9205
5.6516 8.7941 -0.5301 0.9590
13.4414 22.6543 -1.3359 0.8999
9.2239 16.8924 -0.9761 0.9258
7.7444 16.9579 -0.9454 0.9281
7.0863 17.1079 -0.9391 0.9285
6.5314 17.5114 -0.9478 0.9279
7.9567 23.9062 -1.2778 0.9040
7.3132 24.9066 -1.3164 0.9013
3.2930 18.2518 -0.9406 0.9284
1.1537 8.0239 -0.4111 0.9681
0.6729 18.8402 -0.9561 0.9273
-0.9263 25.9354 -1.3161 0.9013
-1.4696 20.5481 -1.0447 0.9208
-2.7831 19.3567 -0.9918 0.9247
-3.5227 19.5252 -1.0062 0.9236
-4.3498 19.9957 -1.0378 0.9213
-6.8951 27.0146 -1.4139 0.8943
-8.0066 27.2678 -1.4412 0.8924
-7.1391 21.4495 -1.1465 0.9134
-7.7445 20.7638 -1.1239 0.9151
-8.5632 20.6735 -1.1348 0.9143
-9.5432 20.8967 -1.1650 0.9121
-12.6038 23.0820 -1.3337 0.9000
-13.0303 21.9615 -1.2951 0.9028
-14.0960 21.9338 -1.3223 0.9008
-18.7397 23.2546 -1.5146 0.8873
-12.8865 12.8865 -0.9242 0.9296
-13.7084 12.7629 -0.9499 0.9277
-40.9436 28.4276 -2.5278 0.8190
-42.7380 25.3576 -2.5202 0.8195
-43.5493 23.7799 -2.5164 0.8198
-44.9970 20.5494 -2.5087 0.8203
-45.6317 18.9013 -2.5048 0.8205
-46.2065 17.2341 -2.5010 0.8208
-47.5657 12.1404 -2.4896 0.8215
-48.5185 5.2162 -2.4748 0.8225
-48.6029 3.4761 -2.4712 0.8227
34.1055 0.0000 -2.5007 0.8722
32.3603 2.3145 -2.3788 0.8780
32.2883 3.4714 -2.3811 0.8779
30.9797 10.3111 -2.3940 0.8773
29.2980 12.1356 -2.3252 0.8806
24.1892 13.2083 -2.0208 0.8954
23.0556 13.6796 -1.9657 0.8981
22.9731 14.7639 -2.0023 0.8963
20.5265 14.2518 -1.8323 0.9046
18.1560 14.6311 -1.7097 0.9107
17.4445 16.2414 -1.7476 0.9088
13.2056 15.2401 -1.4786 0.9223
12.7461 15.8170 -1.4894 0.9218
5.6542 8.7981 -0.7668 0.9589
7.7440 16.9571 -1.3669 0.9280
7.0860 17.1070 -1.3577 0.9284
6.5306 17.5093 -1.3702 0.9278
7.9377 23.8491 -1.8430 0.9041
7.3129 24.9054 -1.9032 0.9011
6.4093 25.1113 -1.9002 0.9013
5.3164 24.4390 -1.8338 0.9046
1.1535 8.0227 -0.5943 0.9680
1.9646 18.2740 -1.3476 0.9289
0.6728 18.8380 -1.3821 0.9272
-0.0000 26.3081 -1.9290 0.8999
-0.9241 25.8722 -1.8982 0.9014
-2.0935 19.4727 -1.4360 0.9245
-4.3492 19.9931 -1.5002 0.9212
-6.8947 27.0131 -2.0442 0.8942
-8.0061 27.2663 -2.0836 0.8923
-12.5659 23.0126 -1.9225 0.9002
-12.9883 21.8905 -1.8663 0.9029
-20.2079 23.3211 -2.2626 0.8836
-12.8827 12.8827 -1.3358 0.9295
-13.7288 12.7820 -1.3754 0.9275
-25.8625 19.3605 -2.3688 0.8785
-26.5097 18.4060 -2.3663 0.8786
-29.4919 17.4983 -2.5144 0.8715
-30.0660 16.4173 -2.5117 0.8716
-31.0948 14.2005 -2.5064 0.8719
-31.9608 11.9208 -2.5011 0.8721
-33.1918 7.2204 -2.4906 0.8726
-33.3936 6.0248 -2.4880 0.8728
11.4820 1.2345 -1.1087 0.9547
24.3646 4.3959 -2.3769 0.9053
23.8036 6.9894 -2.3817 0.9051
23.5541 7.8396 -2.3833 0.9051
23.2739 8.6807 -2.3848 0.9050
22.9633 9.5117 -2.3862 0.9049
22.6224 10.3313 -2.3876 0.9049
22.2520 11.1386 -2.3890 0.9048
21.8522 11.9322 -2.3903 0.9048
21.4236 12.7112 -2.3916 0.9047
20.9668 13.4746 -2.3928 0.9047
20.4824 14.2212 -2.3939 0.9047
6.4294 8.5887 -1.0300 0.9578
12.7713 21.5249 -2.4029 0.9043
9.1940 16.8375 -1.8418 0.9258
7.0856 17.1062 -1.7776 0.9283
6.5097 17.4533 -1.7884 0.9279
7.9066 23.7556 -2.4037 0.9043
7.0534 24.0216 -2.4035 0.9043
5.3158 24.4362 -2.4009 0.9044
3.2820 18.1909 -1.7746 0.9284
1.9646 18.2731 -1.7644 0.9288
1.3331 18.6395 -1.7941 0.9277
-0.0000 25.0000 -2.4001 0.9044
-0.8921 24.9764 -2.3994 0.9044
-1.4580 20.3855 -1.9621 0.9212
-3.5224 19.5231 -1.9046 0.9234
-7.7182 20.6934 -2.1204 0.9151
-8.5622 20.6710 -2.1480 0.9140
-11.1242 22.2234 -2.3859 0.9050
-11.9030 21.7987 -2.3845 0.9050
-12.6655 21.3465 -2.3830 0.9051
-14.1374 20.3618 -2.3798 0.9052
-11.9494 13.7903 -1.7518 0.9293
-16.8438 18.0915 -2.3731 0.9054
-13.7087 11.8786 -1.7414 0.9297
-20.6832 13.2923 -2.3604 0.9059
-22.9291 12.5202 -2.5081 0.9003
-23.7369 10.8403 -2.5053 0.9005
-24.0892 9.9781 -2.5032 0.9005
-24.9571 7.3281 -2.4972 0.9008
-25.1826 6.4275 -2.4952 0.9008
-25.3756 5.5201 -2.4932 0.9009
-25.6640 3.6899 -2.4892 0.9011
-25.8217 1.8468 -2.4853 0.9012
-25.8513 0.9232 -2.4834 0.9013
11.6225 0.0000 -1.3806 0.9543
10.8334 1.1647 -1.2943 0.9571
19.6475 3.5448 -2.3715 0.9227
19.3660 4.9429 -2.3742 0.9226
19.1875 5.6340 -2.3754 0.9226
18.9841 6.3185 -2.3767 0.9226
18.5034 7.6644 -2.3790 0.9225
18.2267 8.3239 -2.3802 0.9225
17.6023 9.6116 -2.3823 0.9224
17.2553 10.2381 -2.3833 0.9224
16.0807 12.0378 -2.3861 0.9223
15.6462 12.6085 -2.3869 0.9222
13.7087 14.7242 -2.3897 0.9222
12.6292 15.6719 -2.3908 0.9221
10.2770 17.3209 -2.3924 0.9221
8.5109 17.0026 -2.2586 0.9263
7.0853 17.1053 -2.1993 0.9281
6.5090 17.4513 -2.2125 0.9277
6.3620 19.1148 -2.3930 0.9221
5.6755 19.3289 -2.3929 0.9221
3.2816 18.1888 -2.1955 0.9283
1.1531 8.0202 -0.9625 0.9679
1.9645 18.2722 -2.1830 0.9286
1.3329 18.6373 -2.2195 0.9275
0.6706 18.7769 -2.2319 0.9271
-0.0000 20.1220 -2.3902 0.9221
-1.4347 20.0602 -2.3890 0.9222
-2.0866 19.4079 -2.3187 0.9244
-3.5222 19.5221 -2.3564 0.9232
-6.3357 19.0355 -2.3831 0.9224
-8.3230 18.2249 -2.3799 0.9225
-9.5927 17.5676 -2.3776 0.9225
-10.8103 16.8211 -2.3752 0.9226
-11.3977 16.4157 -2.3739 0.9227
-11.9697 15.9896 -2.3726 0.9227
-12.5257 15.5435 -2.3712 0.9227
-11.9713 13.8156 -2.1715 0.9290
-12.1034 13.0000 -2.1099 0.9310
-12.2284 12.2284 -2.0542 0.9327
-13.7441 11.9093 -2.1602 0.9294
-14.8533 11.9695 -2.2660 0.9260
-15.9133 11.9125 -2.3612 0.9231
-16.3180 11.3298 -2.3597 0.9231
-17.7344 11.3972 -2.5041 0.9186
-18.1682 10.7797 -2.5094 0.9184
-18.8664 9.4438 -2.5062 0.9185
-19.1789 8.7587 -2.5045 0.9186
-19.4666 8.0633 -2.5029 0.9186
-19.7291 7.3586 -2.5012 0.9187
-19.9661 6.6453 -2.4996 0.9187
-20.3628 5.1973 -2.4964 0.9188
-20.5220 4.4643 -2.4947 0.9189
-20.8417 2.2407 -2.4900 0.9190
-20.8953 1.4944 -2.4884 0.9191
-20.9223 0.7472 -2.4869 0.9191
11.4423 0.0000 -1.6213 0.9548
10.0553 1.0811 -1.4329 0.9600
10.4047 1.8772 -1.4980 0.9582
17.3486 3.7740 -2.5156 0.9308
16.2078 4.1368 -2.3701 0.9347
16.0570 4.7148 -2.3712 0.9346
15.8854 5.2872 -2.3722 0.9346
15.4807 6.4123 -2.3742 0.9345
14.9955 7.5062 -2.3760 0.9345
14.7234 8.0396 -2.3769 0.9345
13.7937 9.5771 -2.3793 0.9344
13.4472 10.0665 -2.3800 0.9344
13.0831 10.5431 -2.3807 0.9344
12.7020 11.0063 -2.3814 0.9344
11.8903 11.8903 -2.3826 0.9343
11.4608 12.3098 -2.3831 0.9343
10.5575 13.1011 -2.3840 0.9343
6.2833 8.3935 -1.4856 0.9585
5.8835 8.4739 -1.4617 0.9592
5.6619 8.8102 -1.4839 0.9586
7.5367 15.0563 -2.3857 0.9342
6.9948 15.3165 -2.3858 0.9342
6.4438 15.5568 -2.3858 0.9342
5.8845 15.7770 -2.3859 0.9342
5.3176 15.9768 -2.3858 0.9342
4.1639 16.3141 -2.3856 0.9342
1.1529 8.0189 -1.1479 0.9678
1.7991 16.7339 -2.3847 0.9343
0.6004 16.8147 -2.3839 0.9343
-0.0000 16.8218 -2.3835 0.9343
-1.1995 16.7717 -2.3824 0.9343
-1.7970 16.7142 -2.3819 0.9343
-3.5704 16.4127 -2.3799 0.9344
-4.1526 16.2698 -2.3792 0.9344
-5.8620 15.7165 -2.3767 0.9345
-6.9629 15.2467 -2.3749 0.9345
-7.4997 14.9825 -2.3740 0.9346
-8.0264 14.6992 -2.3730 0.9346
-8.5423 14.3972 -2.3720 0.9346
-9.0467 14.0769 -2.3709 0.9346
-9.5391 13.7389 -2.3699 0.9347
-10.0188 13.3835 -2.3688 0.9347
-10.4851 13.0112 -2.3677 0.9347
-11.3756 12.2182 -2.3654 0.9348
-11.7985 11.7985 -2.3642 0.9348
-12.2059 11.3641 -2.3630 0.9348
-12.9721 10.4536 -2.3605 0.9349
-14.1567 10.5976 -2.5056 0.9311
-14.5560 10.1064 -2.5108 0.9309
-14.8995 9.5753 -2.5095 0.9309
-15.5278 8.4788 -2.5068 0.9310
-16.9196 4.9680 -2.4985 0.9312
-17.5324 1.2539 -2.4905 0.9315
-17.5569 0.6270 -2.4892 0.9315
11.0627 0.0000 -1.8225 0.9561
10.0831 0.3601 -1.6621 0.9599
10.0497 1.0805 -1.6651 0.9599
10.1563 1.4603 -1.6903 0.9593
14.9445 3.2510 -2.5195 0.9399
14.8247 3.7838 -2.5205 0.9399
14.6540 4.3028 -2.5160 0.9400
13.8952 4.6248 -2.4125 0.9424
13.4782 5.0271 -2.3698 0.9434
13.2949 5.5069 -2.3706 0.9433
12.8768 6.4457 -2.3722 0.9433
12.1250 7.7923 -2.3744 0.9432
11.8425 8.2224 -2.3751 0.9432
11.5445 8.6421 -2.3757 0.9432
10.9038 9.4482 -2.3768 0.9432
10.5620 9.8336 -2.3774 0.9432
5.8816 8.4711 -1.6989 0.9591
7.3725 12.4256 -2.3802 0.9431
6.9248 12.6818 -2.3804 0.9431
5.1690 10.3264 -1.9024 0.9543
4.5636 13.7115 -2.3806 0.9431
3.5736 14.0011 -2.3805 0.9431
1.0303 14.4063 -2.3793 0.9431
-0.0000 14.4387 -2.3786 0.9431
-2.0532 14.2803 -2.3767 0.9432
-2.5610 14.1945 -2.3762 0.9432
-3.5652 13.9684 -2.3749 0.9432
-4.0604 13.8284 -2.3743 0.9432
-6.8936 12.6246 -2.3696 0.9434
-7.3371 12.3660 -2.3688 0.9434
-7.7709 12.0917 -2.3679 0.9434
-8.1943 11.8021 -2.3670 0.9434
-8.6069 11.4975 -2.3660 0.9434
-11.5023 9.9668 -2.5073 0.9402
-12.2003 9.1330 -2.5106 0.9401
-13.8243 6.3133 -2.5036 0.9402
-14.0342 5.8132 -2.5025 0.9403
-14.3996 4.7926 -2.5001 0.9403
-14.8085 3.2214 -2.4966 0.9404
-14.9867 2.1548 -2.4943 0.9405
-15.0472 1.6177 -2.4931 0.9405
-15.0885 1.0791 -2.4920 0.9405
10.9206 0.0000 -2.0526 0.9565
10.0169 0.3578 -1.8840 0.9600
9.9150 0.7092 -1.8684 0.9603
9.9529 1.0701 -1.8815 0.9601
10.0543 1.4456 -1.9092 0.9595
12.7200 4.2336 -2.5198 0.9469
12.1016 5.0127 -2.4620 0.9481
11.2723 5.6425 -2.3694 0.9500
11.0668 6.0429 -2.3700 0.9500
10.8469 6.4358 -2.3707 0.9500
10.3653 7.1968 -2.3718 0.9499
10.1042 7.5639 -2.3724 0.9499
9.8299 7.9214 -2.3729 0.9499
9.2434 8.6060 -2.3738 0.9499
8.9320 8.9320 -2.3743 0.9499
5.4167 7.8016 -1.7852 0.9621
4.6968 7.9160 -1.7301 0.9632
5.2527 11.5019 -2.3767 0.9498
4.8389 11.6822 -2.3767 0.9498
4.4189 11.8476 -2.3767 0.9498
3.9932 11.9976 -2.3767 0.9498
3.5623 12.1322 -2.3767 0.9498
3.1269 12.2512 -2.3766 0.9498
1.1526 8.0164 -1.5223 0.9676
0.9016 12.6065 -2.3756 0.9499
-0.0000 12.6353 -2.3749 0.9499
-0.4509 12.6253 -2.3746 0.9499
-0.9011 12.5991 -2.3742 0.9499
-1.3500 12.5566 -2.3737 0.9499
-1.7969 12.4980 -2.3733 0.9499
-1.5120 8.3806 -1.6007 0.9659
-3.9828 11.9664 -2.3705 0.9500
-5.2347 11.4625 -2.3685 0.9500
-5.6388 11.2649 -2.3678 0.9500
-6.4240 10.8271 -2.3663 0.9501
-7.1753 10.3343 -2.3647 0.9501
-7.5369 10.0682 -2.3639 0.9501
-7.8887 9.7893 -2.3631 0.9501
-8.2301 9.4980 -2.3622 0.9501
-9.4393 9.4393 -2.5091 0.9471
-9.7831 9.1084 -2.5124 0.9470
-10.3999 8.3808 -2.5105 0.9471
-10.6882 8.0010 -2.5095 0.9471
-11.2227 7.2124 -2.5075 0.9472
-11.4683 6.8045 -2.5065 0.9472
-12.4685 4.6505 -2.5013 0.9473
-12.8783 3.2870 -2.4982 0.9473
-12.9821 2.8241 -2.4972 0.9474
-13.1936 1.4184 -2.4942 0.9474
-13.2507 0.4732 -2.4922 0.9475
10.9181 0.0000 -2.3079 0.9563
10.0732 0.3598 -2.1306 0.9596
10.1451 1.4587 -2.1665 0.9590
11.5343 2.9439 -2.5163 0.9525
11.1632 4.1637 -2.5185 0.9525
11.0105 4.5607 -2.5192 0.9524
10.8341 4.9478 -2.5176 0.9525
10.6285 5.3202 -2.5124 0.9526
10.0180 5.4703 -2.4127 0.9544
9.4274 6.0586 -2.3688 0.9552
9.2071 6.3926 -2.3693 0.9552
8.9749 6.7185 -2.3698 0.9552
8.7311 7.0360 -2.3703 0.9552
8.2098 7.6436 -2.3711 0.9552
7.9330 7.9330 -2.3715 0.9552
5.4164 7.8012 -2.0075 0.9619
5.0595 7.8728 -1.9782 0.9625
4.6965 7.9156 -1.9455 0.9631
4.6647 10.2143 -2.3736 0.9551
3.9242 10.5213 -2.3737 0.9551
3.5462 10.6546 -2.3736 0.9551
3.1636 10.7741 -2.3736 0.9551
1.9935 11.0490 -2.3732 0.9551
-0.0000 11.2218 -2.3721 0.9552
-0.8003 11.1900 -2.3714 0.9552
-1.1990 11.1525 -2.3710 0.9552
-2.3830 10.9544 -2.3697 0.9552
-3.5380 10.6299 -2.3681 0.9552
-3.9142 10.4944 -2.3676 0.9552
-4.2852 10.3454 -2.3670 0.9553
-5.3622 9.8202 -2.3651 0.9553
-5.7077 9.6198 -2.3644 0.9553
-6.0457 9.4072 -2.3637 0.9553
-6.8056 9.0912 -2.4005 0.9546
-7.4179 9.2051 -2.4989 0.9528
-7.7796 8.9781 -2.5111 0.9526
-8.1008 8.7008 -2.5129 0.9526
-8.4034 8.4034 -2.5121 0.9526
-8.6950 8.0953 -2.5112 0.9526
-9.2440 7.4493 -2.5095 0.9526
-9.5006 7.1121 -2.5086 0.9526
-9.7449 6.7660 -2.5077 0.9527
-9.9766 6.4116 -2.5068 0.9527
-10.1954 6.0492 -2.5059 0.9527
-10.4011 5.6794 -2.5050 0.9527
-10.5933 5.3026 -2.5041 0.9527
-11.0872 4.1353 -2.5013 0.9528
-11.2236 3.7356 -2.5004 0.9528
-11.4531 2.9232 -2.4986 0.9528
-11.5459 2.5117 -2.4977 0.9528
-11.6240 2.0972 -2.4968 0.9529
-11.6873 1.6804 -2.4959 0.9529
-11.7690 0.8417 -2.4941 0.9529
-11.7874 0.4210 -2.4932 0.9529
10.6782 0.0000 -2.5096 0.9571
10.5822 1.5215 -2.5126 0.9570
10.5242 1.8988 -2.5134 0.9570
10.4527 2.2738 -2.5141 0.9570
10.3677 2.6462 -2.5148 0.9570
10.2694 3.0154 -2.5154 0.9570
9.8958 4.0990 -2.5174 0.9569
9.2020 5.4598 -2.5147 0.9570
8.8696 5.7002 -2.4779 0.9576
8.3805 5.8187 -2.3978 0.9589
8.0649 6.0373 -2.3677 0.9594
7.6163 6.5995 -2.3685 0.9594
7.1282 7.1282 -2.3692 0.9594
6.8701 7.3790 -2.3695 0.9594
6.4717 7.4687 -2.3226 0.9602
5.7060 7.6223 -2.2378 0.9616
5.3524 7.7090 -2.2057 0.9622
4.6963 7.9151 -2.1630 0.9629
4.5158 9.0215 -2.3711 0.9594
3.8609 9.3211 -2.3712 0.9594
3.1861 9.5727 -2.3712 0.9594
2.8424 9.6802 -2.3711 0.9594
2.4950 9.7752 -2.3710 0.9594
1.7911 9.9273 -2.3708 0.9594
0.3599 10.0777 -2.3700 0.9594
-1.0774 10.0212 -2.3688 0.9594
-2.1414 9.8438 -2.3676 0.9595
-2.4909 9.7592 -2.3672 0.9595
-3.5177 9.4312 -2.3657 0.9595
-3.8512 9.2976 -2.3652 0.9595
-4.1796 9.1521 -2.3646 0.9595
-4.5025 8.9949 -2.3641 0.9595
-4.8195 8.8263 -2.3635 0.9595
-5.1871 8.7423 -2.3891 0.9591
-5.6769 8.8335 -2.4678 0.9578
-6.0894 8.7704 -2.5094 0.9571
-6.4086 8.5609 -2.5133 0.9570
-8.0695 6.9923 -2.5095 0.9571
-8.3113 6.6977 -2.5087 0.9571
-8.7624 6.0838 -2.5071 0.9571
-8.9711 5.7653 -2.5063 0.9571
-9.1681 5.4397 -2.5054 0.9571
-9.3534 5.1073 -2.5046 0.9572
-9.5266 4.7687 -2.5038 0.9572
-9.6875 4.4241 -2.5030 0.9572
-9.9719 3.7193 -2.5013 0.9572
-10.2051 2.9965 -2.4997 0.9572
-10.4566 1.8866 -2.4972 0.9573
-10.5139 1.5117 -2.4964 0.9573
-10.5882 0.7573 -2.4948 0.9573
9.6898 0.0000 -2.5089 0.9608
9.6017 1.3805 -2.5116 0.9607
9.3169 2.7357 -2.5141 0.9607
9.2155 3.0672 -2.5147 0.9607
9.1022 3.3950 -2.5153 0.9607
8.9773 3.7185 -2.5159 0.9606
8.1826 5.2586 -2.5184 0.9606
5.9889 6.9116 -2.3679 0.9629
5.7390 7.1217 -2.3681 0.9629
4.3848 8.0302 -2.3689 0.9629
2.8896 8.6818 -2.3691 0.9629
2.2628 8.8654 -2.3690 0.9629
1.9448 8.9402 -2.3689 0.9629
1.6244 9.0035 -2.3688 0.9629
1.1392 7.9231 -2.0725 0.9675
0.9778 9.0952 -2.3685 0.9629
0.6525 9.1236 -2.3683 0.9629
-0.3264 9.1383 -2.3676 0.9629
-0.9772 9.0894 -2.3670 0.9629
-1.5119 8.3801 -2.2048 0.9654
-2.2594 8.8523 -2.3655 0.9630
-2.5735 8.7645 -2.3651 0.9630
-3.4936 8.4343 -2.3637 0.9630
-3.8596 8.4513 -2.4056 0.9623
-4.2687 8.5278 -2.4692 0.9614
-4.9513 8.3449 -2.5123 0.9607
-5.8159 7.7692 -2.5128 0.9607
-6.0880 7.5547 -2.5121 0.9607
-6.3521 7.3306 -2.5115 0.9607
-7.0935 6.6043 -2.5094 0.9607
-7.5423 6.0779 -2.5080 0.9608
-8.3208 4.9370 -2.5051 0.9608
-8.7930 4.0156 -2.5028 0.9608
-8.9280 3.6981 -2.5021 0.9609
-9.0516 3.3761 -2.5013 0.9609
-9.1636 3.0499 -2.5006 0.9609
-9.2639 2.7201 -2.4998 0.9609
-9.3522 2.3870 -2.4991 0.9609
-9.4287 2.0511 -2.4983 0.9609
-9.5855 1.0305 -2.4961 0.9609
-9.6134 0.6875 -2.4954 0.9610
8.8567 0.3163 -2.5089 0.9638
8.7787 1.2622 -2.5107 0.9638
8.6703 1.8861 -2.5119 0.9638
8.4247 2.8040 -2.5136 0.9638
8.3210 3.1036 -2.5141 0.9638
8.0816 3.6908 -2.5151 0.9637
7.8007 4.2595 -2.5161 0.9637
7.6450 4.5360 -2.5165 0.9637
7.4795 4.8068 -2.5170 0.9637
7.3043 5.0715 -2.5174 0.9637
7.1198 5.3298 -2.5177 0.9637
6.9260 5.5813 -2.5181 0.9637
6.7174 5.8207 -2.5162 0.9637
6.4983 6.0501 -2.5135 0.9638
6.2488 6.2488 -2.5017 0.9639
5.5581 6.4144 -2.4027 0.9653
5.2453 6.5090 -2.3665 0.9658
5.0100 6.6926 -2.3667 0.9658
4.7683 6.8677 -2.3669 0.9658
3.7431 7.4778 -2.3673 0.9658
2.9225 7.8354 -2.3674 0.9658
2.0680 8.1025 -2.3673 0.9658
1.7775 8.1709 -2.3672 0.9658
1.4846 8.2287 -2.3671 0.9658
0.2984 8.3540 -2.3665 0.9658
-0.2983 8.3523 -2.3660 0.9659
-1.1890 8.2696 -2.3651 0.9659
-1.7767 8.1679 -2.3664 0.9658
-2.3882 8.1333 -2.3997 0.9654
-3.0828 8.2652 -2.4973 0.9640
-3.6872 8.0738 -2.5127 0.9638
-5.3172 7.1029 -2.5118 0.9638
-5.8076 6.7023 -2.5106 0.9638
-6.6956 5.8018 -2.5081 0.9638
-7.2717 5.0488 -2.5061 0.9639
-7.4453 4.7848 -2.5054 0.9639
-7.6093 4.5148 -2.5048 0.9639
-7.7635 4.2392 -2.5041 0.9639
-8.0417 3.6725 -2.5027 0.9639
-8.2787 3.0878 -2.5013 0.9639
-8.3813 2.7896 -2.5007 0.9639
-8.4732 2.4880 -2.5000 0.9640
-8.5543 2.1833 -2.4993 0.9640
-8.6244 1.8761 -2.4986 0.9640
-8.7685 0.9427 -2.4966 0.9640
-8.8088 0.3146 -2.4953 0.9640
8.1497 0.2911 -2.5083 0.9664
8.1360 0.5819 -2.5089 0.9664
8.0326 1.4492 -2.5105 0.9664
7.9774 1.7354 -2.5111 0.9664
7.8366 2.3010 -2.5121 0.9664
7.6555 2.8554 -2.5131 0.9664
7.5501 3.1274 -2.5136 0.9664
7.4350 3.3955 -2.5140 0.9664
7.3104 3.6593 -2.5145 0.9664
7.1763 3.9186 -2.5149 0.9664
7.0330 4.1729 -2.5153 0.9664
6.8807 4.4219 -2.5157 0.9664
6.7195 4.6654 -2.5161 0.9663
6.5496 4.9029 -2.5164 0.9663
6.3712 5.1343 -2.5168 0.9663
6.1847 5.3591 -2.5171 0.9663
5.9902 5.5771 -2.5174 0.9663
5.7879 5.7879 -2.5176 0.9663
5.5760 5.9891 -2.5169 0.9663
5.3541 6.1790 -2.5148 0.9664
4.2915 6.6778 -2.4415 0.9673
4.0023 6.7456 -2.4125 0.9677
3.7193 6.8115 -2.3870 0.9680
3.1954 6.9970 -2.3659 0.9683
2.6881 7.2072 -2.3660 0.9683
2.4292 7.2985 -2.3659 0.9683
2.1671 7.3805 -2.3659 0.9683
1.9022 7.4529 -2.3659 0.9683
1.6350 7.5158 -2.3658 0.9683
0.5486 7.6703 -2.3653 0.9683
-0.5534 7.7380 -2.3861 0.9681
-1.1290 7.8525 -2.4401 0.9673
-1.4273 7.9109 -2.4725 0.9669
-2.0185 7.9083 -2.5104 0.9664
-2.5814 7.7559 -2.5142 0.9664
-2.8573 7.6607 -2.5148 0.9664
-3.3953 7.4347 -2.5139 0.9664
-3.6579 7.3075 -2.5135 0.9664
-3.9156 7.1709 -2.5130 0.9664
-4.4155 6.8706 -2.5120 0.9664
-4.6569 6.7072 -2.5115 0.9664
-4.8923 6.5353 -2.5110 0.9664
-5.1213 6.3552 -2.5104 0.9664
-5.5592 5.9710 -2.5093 0.9664
-6.3464 5.1143 -2.5070 0.9665
-6.5233 4.8833 -2.5063 0.9665
-6.6918 4.6462 -2.5057 0.9665
-6.8517 4.4033 -2.5051 0.9665
-7.0028 4.1549 -2.5045 0.9665
-7.1448 3.9014 -2.5039 0.9665
-7.5153 3.1129 -2.5020 0.9665
-7.6196 2.8420 -2.5013 0.9665
-7.7143 2.5675 -2.5007 0.9665
-7.8738 2.0097 -2.4995 0.9666
-7.9385 1.7269 -2.4988 0.9666
-7.9931 1.4421 -2.4982 0.9666
-8.0375 1.1556 -2.4976 0.9666
-8.0717 0.8678 -2.4970 0.9666
-8.0955 0.5790 -2.4964 0.9666
7.5426 0.0000 -2.5072 0.9687
7.5267 0.5383 -2.5083 0.9687
7.5042 0.8068 -2.5088 0.9687
7.4722 1.0743 -2.5093 0.9687
7.4306 1.3406 -2.5099 0.9687
7.3795 1.6053 -2.5104 0.9687
7.3189 1.8680 -2.5108 0.9687
7.1697 2.3863 -2.5118 0.9687
7.0812 2.6412 -2.5122 0.9686
6.7617 3.3847 -2.5135 0.9686
6.6376 3.6244 -2.5139 0.9686
5.7201 4.9565 -2.5159 0.9686
5.5401 5.1581 -2.5162 0.9686
5.3531 5.3531 -2.5164 0.9686
4.9584 5.7223 -2.5169 0.9686
4.5382 6.0624 -2.5172 0.9686
4.3186 6.2200 -2.5170 0.9686
3.6231 6.6352 -2.5130 0.9686
3.3825 6.7573 -2.5119 0.9686
2.8865 6.9687 -2.5073 0.9687
2.6216 7.0288 -2.4936 0.9689
2.3590 7.0878 -2.4831 0.9690
1.5792 7.2595 -2.4695 0.9692
1.3199 7.3155 -2.4710 0.9692
-0.5390 7.5366 -2.5116 0.9687
-0.8080 7.5158 -2.5127 0.9686
-1.0763 7.4857 -2.5139 0.9686
-1.3435 7.4464 -2.5152 0.9686
-1.6084 7.3938 -2.5152 0.9686
-1.8711 7.3308 -2.5149 0.9686
-2.1312 7.2583 -2.5146 0.9686
-2.3886 7.1766 -2.5142 0.9686
-2.6428 7.0857 -2.5138 0.9686
-2.8936 6.9857 -2.5134 0.9686
-3.6219 6.6330 -2.5121 0.9686
-3.8556 6.4983 -2.5117 0.9687
-4.3078 6.2044 -2.5107 0.9687
-4.7376 5.8789 -2.5097 0.9687
-5.1428 5.5237 -2.5087 0.9687
-5.3355 5.3355 -2.5082 0.9687
-5.8714 4.7315 -2.5065 0.9687
-6.1912 4.2986 -2.5054 0.9687
-6.8482 3.1275 -2.5025 0.9688
-6.9538 2.8804 -2.5019 0.9688
-7.0505 2.6297 -2.5014 0.9688
-7.2168 2.1191 -2.5002 0.9688
-7.2862 1.8597 -2.4996 0.9688
-7.3462 1.5981 -2.4990 0.9688
-7.3968 1.3345 -2.4985 0.9688
-7.4381 1.0694 -2.4979 0.9688
-7.4920 0.5358 -2.4968 0.9688
-7.5047 0.2680 -2.4962 0.9688
6.9441 0.9984 -2.5088 0.9706
6.8577 1.4918 -2.5097 0.9706
6.8013 1.7359 -2.5102 0.9706
6.6625 2.2175 -2.5110 0.9706
6.5802 2.4543 -2.5115 0.9706
6.4894 2.6880 -2.5119 0.9706
6.1677 3.3678 -2.5130 0.9706
6.0444 3.5863 -2.5134 0.9706
5.7747 4.0094 -2.5140 0.9706
5.4752 4.4122 -2.5146 0.9706
5.1476 4.7926 -2.5151 0.9706
4.9737 4.9737 -2.5154 0.9706
4.6070 5.3167 -2.5158 0.9706
4.2165 5.6326 -2.5161 0.9706
3.8044 5.9197 -2.5164 0.9705
3.5908 6.0520 -2.5165 0.9705
3.1501 6.2931 -2.5167 0.9705
2.9235 6.4016 -2.5167 0.9705
2.6932 6.5020 -2.5167 0.9705
2.4594 6.5940 -2.5167 0.9705
1.9821 6.7504 -2.5159 0.9706
1.0011 6.9629 -2.5156 0.9706
0.5019 7.0180 -2.5161 0.9706
-0.0000 7.0349 -2.5157 0.9706
-0.7518 6.9928 -2.5151 0.9706
-1.2485 6.9199 -2.5145 0.9706
-1.4945 6.8701 -2.5143 0.9706
-1.7385 6.8116 -2.5139 0.9706
-1.9803 6.7443 -2.5136 0.9706
-2.2195 6.6684 -2.5133 0.9706
-2.6888 6.4912 -2.5126 0.9706
-3.3656 6.1637 -2.5114 0.9706
-3.7955 5.9059 -2.5105 0.9706
-4.2056 5.6181 -2.5096 0.9706
-4.5940 5.3017 -2.5087 0.9706
-5.2975 4.5903 -2.5067 0.9707
-5.4569 4.3974 -2.5062 0.9707
-5.7543 3.9952 -2.5051 0.9707
-6.2589 3.1330 -2.5030 0.9707
-6.6353 2.2084 -2.5008 0.9707
-6.7085 1.9698 -2.5003 0.9707
-6.7730 1.7287 -2.4997 0.9707
-6.8761 1.2406 -2.4987 0.9708
-6.9146 0.9942 -2.4981 0.9708
-6.9442 0.7466 -2.4976 0.9708
-6.9769 0.2492 -2.4966 0.9708
6.5405 0.0000 -2.5064 0.9724
6.4787 0.9315 -2.5083 0.9724
6.4425 1.1623 -2.5087 0.9723
6.3980 1.3918 -2.5092 0.9723
6.2845 1.8453 -2.5100 0.9723
6.1388 2.2897 -2.5108 0.9723
5.8614 2.9340 -2.5119 0.9723
5.7537 3.1418 -2.5122 0.9723
5.3869 3.7402 -2.5132 0.9723
5.2506 3.9306 -2.5135 0.9723
5.1075 4.1159 -2.5137 0.9723
4.9578 4.2960 -2.5140 0.9723
4.8018 4.4706 -2.5142 0.9723
4.6396 4.6396 -2.5144 0.9723
4.2974 4.9595 -2.5148 0.9723
4.1180 5.1101 -2.5150 0.9723
3.9332 5.2541 -2.5151 0.9723
3.7433 5.3914 -2.5153 0.9723
3.3495 5.6452 -2.5155 0.9723
3.1459 5.7614 -2.5156 0.9723
2.9384 5.8701 -2.5156 0.9723
2.7270 5.9714 -2.5157 0.9723
2.5122 6.0650 -2.5157 0.9723
2.2941 6.1508 -2.5157 0.9723
1.8494 6.2987 -2.5157 0.9723
1.1655 6.4598 -2.5155 0.9723
0.9341 6.4970 -2.5154 0.9723
0.2342 6.5585 -2.5150 0.9723
-0.0000 6.5623 -2.5148 0.9723
-0.2342 6.5576 -2.5146 0.9723
-0.4681 6.5445 -2.5144 0.9723
-0.7013 6.5231 -2.5142 0.9723
-1.1646 6.4551 -2.5137 0.9723
-1.3941 6.4088 -2.5134 0.9723
-1.8474 6.2915 -2.5128 0.9723
-2.2909 6.1421 -2.5122 0.9723
-2.7225 5.9614 -2.5115 0.9723
-2.9331 5.8595 -2.5111 0.9723
-3.1399 5.7502 -2.5107 0.9723
-3.3426 5.6336 -2.5103 0.9723
-3.5410 5.5098 -2.5099 0.9723
-3.9237 5.2414 -2.5091 0.9723
-4.1076 5.0972 -2.5086 0.9723
-4.2861 4.9464 -2.5082 0.9724
-4.6264 4.6264 -2.5073 0.9724
-5.0915 4.1030 -2.5059 0.9724
-5.2337 3.9179 -2.5054 0.9724
-5.3692 3.7279 -2.5049 0.9724
-5.6192 3.3340 -2.5039 0.9724
-5.7335 3.1307 -2.5034 0.9724
-5.8404 2.9235 -2.5029 0.9724
-6.1157 2.2810 -2.5014 0.9724
-6.1920 2.0609 -2.5009 0.9724
-6.2603 1.8382 -2.5003 0.9724
-6.3207 1.6132 -2.4998 0.9724
-6.3729 1.3863 -2.4993 0.9724
-6.4171 1.1578 -2.4988 0.9725
-6.4808 0.6967 -2.4979 0.9725
-6.5114 0.2325 -2.4969 0.9725
6.1233 0.0000 -2.5061 0.9739
6.0914 0.6549 -2.5074 0.9739
6.0652 0.8720 -2.5079 0.9739
5.9895 1.3029 -2.5087 0.9739
5.9401 1.5161 -2.5091 0.9739
5.8831 1.7274 -2.5095 0.9738
5.8186 1.9366 -2.5098 0.9738
5.6672 2.3474 -2.5105 0.9738
5.4868 2.7465 -2.5112 0.9738
5.2782 3.1317 -2.5118 0.9738
5.0425 3.5010 -2.5124 0.9738
4.9148 3.6792 -2.5127 0.9738
4.6407 4.0212 -2.5132 0.9738
4.3428 4.3428 -2.5136 0.9738
3.6815 4.9179 -2.5143 0.9738
2.5525 5.5892 -2.5148 0.9738
2.3514 5.6768 -2.5148 0.9738
2.1473 5.7571 -2.5148 0.9738
1.9404 5.8300 -2.5148 0.9738
1.7311 5.8955 -2.5148 0.9738
1.5195 5.9534 -2.5147 0.9738
1.3060 6.0037 -2.5146 0.9738
0.6567 6.1082 -2.5144 0.9738
0.4382 6.1275 -2.5142 0.9738
-0.8739 6.0779 -2.5131 0.9738
-1.0901 6.0423 -2.5129 0.9738
-1.5181 5.9479 -2.5124 0.9738
-1.7292 5.8893 -2.5121 0.9738
-2.3480 5.6686 -2.5112 0.9738
-2.5485 5.5804 -2.5108 0.9738
-3.1291 5.2738 -2.5098 0.9738
-3.8453 4.7718 -2.5082 0.9739
-4.3312 4.3312 -2.5069 0.9739
-4.4822 4.1731 -2.5065 0.9739
-4.6275 4.0098 -2.5060 0.9739
-5.0269 3.4902 -2.5047 0.9739
-5.1473 3.3080 -2.5042 0.9739
-5.2611 3.1216 -2.5037 0.9739
-5.3682 2.9312 -2.5033 0.9739
-5.4683 2.7373 -2.5028 0.9739
-5.5615 2.5399 -2.5023 0.9739
-5.6475 2.3393 -2.5018 0.9739
-5.7264 2.1358 -2.5014 0.9739
-5.9185 1.5106 -2.4999 0.9739
-5.9675 1.2981 -2.4995 0.9740
-6.0089 1.0841 -2.4990 0.9740
-6.0427 0.8688 -2.4985 0.9740
-6.0870 0.4353 -2.4976 0.9740
5.7470 0.2053 -2.5062 0.9752
5.7370 0.4103 -2.5067 0.9752
5.5773 1.4235 -2.5086 0.9752
5.5237 1.6219 -2.5090 0.9752
5.4631 1.8183 -2.5093 0.9752
5.3954 2.0124 -2.5097 0.9752
5.3209 2.2041 -2.5100 0.9752
5.2395 2.3928 -2.5103 0.9752
4.8479 3.1156 -2.5115 0.9752
4.7341 3.2869 -2.5117 0.9752
4.6142 3.4542 -2.5120 0.9752
4.4884 3.6170 -2.5122 0.9752
4.2197 3.9286 -2.5127 0.9752
3.9292 4.2203 -2.5130 0.9752
3.1183 4.8522 -2.5137 0.9751
2.9432 4.9605 -2.5138 0.9751
2.7644 5.0626 -2.5138 0.9751
2.3963 5.2471 -2.5139 0.9751
2.2075 5.3293 -2.5140 0.9751
2.0158 5.4047 -2.5140 0.9751
1.6251 5.5347 -2.5139 0.9751
1.2261 5.6363 -2.5138 0.9751
0.6165 5.7344 -2.5136 0.9751
0.2058 5.7632 -2.5133 0.9752
-0.0000 5.7666 -2.5132 0.9752
-0.6163 5.7323 -2.5126 0.9752
-0.8204 5.7061 -2.5124 0.9752
-1.0235 5.6727 -2.5122 0.9752
-1.2252 5.6320 -2.5119 0.9752
-1.6235 5.5292 -2.5114 0.9752
-2.0134 5.3980 -2.5109 0.9752
-3.2827 4.7280 -2.5085 0.9752
-3.4489 4.6072 -2.5081 0.9752
-3.6106 4.4804 -2.5078 0.9752
-3.7676 4.3480 -2.5074 0.9752
-4.2088 3.9185 -2.5062 0.9752
-4.3452 3.7651 -2.5057 0.9752
-4.4761 3.6070 -2.5053 0.9752
-4.6012 3.4444 -2.5049 0.9752
-4.8335 3.1063 -2.5040 0.9752
-4.9404 2.9313 -2.5036 0.9752
-5.1351 2.5705 -2.5027 0.9753
-5.4448 1.8122 -2.5009 0.9753
-5.5050 1.6164 -2.5005 0.9753
-5.5582 1.4187 -2.5000 0.9753
-5.6044 1.2191 -2.4996 0.9753
-5.6433 1.0182 -2.4992 0.9753
-5.6996 0.6128 -2.4983 0.9753
-5.7168 0.4089 -2.4979 0.9753
5.4130 0.0000 -2.5056 0.9764
5.4008 0.3863 -2.5064 0.9764
5.3844 0.5789 -2.5067 0.9764
5.3611 0.7708 -2.5071 0.9764
5.2940 1.1517 -2.5078 0.9764
5.2503 1.3400 -2.5082 0.9764
5.1998 1.5268 -2.5085 0.9764
4.9321 2.2524 -2.5098 0.9764
4.7599 2.5991 -2.5104 0.9764
4.6646 2.7677 -2.5106 0.9764
4.4562 3.0940 -2.5111 0.9764
4.2249 3.4046 -2.5116 0.9764
3.9719 3.6979 -2.5120 0.9764
3.8376 3.8376 -2.5122 0.9764
3.6985 3.9724 -2.5123 0.9764
3.0961 4.4593 -2.5129 0.9764
2.7703 4.6691 -2.5131 0.9764
2.6020 4.7651 -2.5131 0.9764
1.7146 5.1516 -2.5132 0.9764
1.3427 5.2607 -2.5132 0.9764
1.1541 5.3052 -2.5131 0.9764
0.9639 5.3428 -2.5130 0.9764
0.5803 5.3976 -2.5129 0.9764
0.3873 5.4146 -2.5127 0.9764
0.1937 5.4247 -2.5126 0.9764
0.0000 5.4279 -2.5125 0.9764
-0.7722 5.3711 -2.5118 0.9764
-1.1532 5.3014 -2.5113 0.9764
-1.3416 5.2564 -2.5111 0.9764
-1.7128 5.1462 -2.5106 0.9764
-2.2524 4.9320 -2.5097 0.9764
-2.4267 4.8478 -2.5094 0.9764
-2.5978 4.7575 -2.5091 0.9764
-3.0903 4.4508 -2.5081 0.9764
-3.3989 4.2178 -2.5074 0.9764
-3.6901 3.9634 -2.5067 0.9764
-3.9622 3.6889 -2.5059 0.9764
-4.2139 3.3958 -2.5051 0.9764
-4.4440 3.0855 -2.5043 0.9764
-4.8347 2.4201 -2.5026 0.9765
-5.0632 1.8885 -2.5014 0.9765
-5.1832 1.5219 -2.5005 0.9765
-5.2334 1.3357 -2.5001 0.9765
-5.3136 0.9587 -2.4993 0.9765
-5.3667 0.5770 -2.4985 0.9765
-5.3830 0.3850 -2.4981 0.9765
-5.3924 0.1926 -2.4977 0.9765
5.1075 0.0000 -2.5053 0.9775
5.0960 0.3645 -2.5061 0.9775
5.0804 0.5462 -2.5064 0.9775
5.0299 0.9075 -2.5071 0.9775
4.9950 1.0866 -2.5075 0.9775
4.9537 1.2644 -2.5078 0.9775
4.9060 1.4405 -2.5081 0.9775
4.8521 1.6149 -2.5084 0.9775
4.7919 1.7873 -2.5087 0.9775
4.7257 1.9574 -2.5090 0.9775
4.6533 2.1251 -2.5093 0.9775
4.5750 2.2901 -2.5096 0.9775
4.4908 2.4522 -2.5099 0.9775
4.2042 2.9190 -2.5106 0.9775
3.9859 3.2121 -2.5110 0.9775
3.8690 3.3525 -2.5112 0.9774
3.7472 3.4888 -2.5114 0.9774
3.6205 3.6205 -2.5116 0.9774
3.3534 3.8700 -2.5119 0.9774
2.9209 4.2069 -2.5122 0.9774
2.4547 4.4955 -2.5125 0.9774
2.1278 4.6593 -2.5125 0.9774
1.9602 4.7323 -2.5126 0.9774
1.4431 4.9147 -2.5125 0.9774
1.2667 4.9630 -2.5125 0.9774
1.0888 5.0049 -2.5124 0.9774
0.9094 5.0405 -2.5124 0.9774
0.0000 5.1207 -2.5118 0.9774
-0.5473 5.0904 -2.5114 0.9774
-0.9089 5.0376 -2.5110 0.9775
-1.0880 5.0016 -2.5108 0.9775
-1.2657 4.9591 -2.5105 0.9775
-1.4418 4.9103 -2.5103 0.9775
-1.9578 4.7266 -2.5095 0.9775
-2.1250 4.6532 -2.5093 0.9775
-2.4510 4.4887 -2.5087 0.9775
-2.7643 4.3013 -2.5081 0.9775
-2.9157 4.1994 -2.5077 0.9775
-3.2070 3.9796 -2.5071 0.9775
-3.3465 3.8621 -2.5067 0.9775
-3.6125 3.6125 -2.5060 0.9775
-3.7386 3.4807 -2.5056 0.9775
-3.8599 3.3446 -2.5053 0.9775
-3.9762 3.2042 -2.5049 0.9775
-4.1934 2.9115 -2.5041 0.9775
-4.2939 2.7595 -2.5037 0.9775
-4.3890 2.6041 -2.5033 0.9775
-4.5622 2.2837 -2.5026 0.9775
-4.7120 1.9518 -2.5018 0.9775
-4.7779 1.7821 -2.5014 0.9775
-4.8377 1.6101 -2.5010 0.9775
-4.8913 1.4362 -2.5006 0.9775
-4.9387 1.2605 -2.5002 0.9775
-4.9797 1.0833 -2.4998 0.9776
-5.0427 0.7250 -2.4990 0.9776
-5.0646 0.5445 -2.4986 0.9776
-5.0801 0.3633 -2.4983 0.9776
-5.0890 0.1817 -2.4979 0.9776
4.8289 0.0000 -2.5051 0.9785
4.8032 0.5164 -2.5062 0.9785
4.7823 0.6876 -2.5065 0.9785
4.7554 0.8580 -2.5068 0.9785
4.5302 1.6897 -2.5083 0.9784
4.2454 2.3182 -2.5094 0.9784
3.8737 2.8998 -2.5103 0.9784
3.7680 3.0365 -2.5105 0.9784
3.4226 3.4226 -2.5110 0.9784
2.1673 4.3298 -2.5119 0.9784
1.8530 4.4735 -2.5119 0.9784
1.3641 4.6459 -2.5119 0.9784
1.1974 4.6915 -2.5119 0.9784
0.8597 4.7648 -2.5118 0.9784
0.6890 4.7923 -2.5117 0.9784
0.5175 4.8137 -2.5116 0.9784
0.1728 4.8379 -2.5114 0.9784
-0.0000 4.8407 -2.5113 0.9784
-0.1728 4.8374 -2.5111 0.9784
-0.3453 4.8278 -2.5110 0.9784
-0.6887 4.7903 -2.5106 0.9784
-1.3630 4.6420 -2.5098 0.9784
-1.5277 4.5899 -2.5096 0.9784
-1.6904 4.5320 -2.5093 0.9784
-1.8509 4.4684 -2.5091 0.9784
-2.3172 4.2435 -2.5083 0.9784
-2.4669 4.1577 -2.5080 0.9785
-2.6134 4.0665 -2.5077 0.9785
-2.7565 3.9701 -2.5074 0.9785
-2.8961 3.8687 -2.5071 0.9785
-3.1639 3.6513 -2.5064 0.9785
-3.4154 3.4154 -2.5057 0.9785
-3.5346 3.2908 -2.5054 0.9785
-3.6493 3.1621 -2.5051 0.9785
-3.8645 2.8929 -2.5043 0.9785
-3.9647 2.7528 -2.5040 0.9785
-4.0599 2.6091 -2.5036 0.9785
-4.2344 2.3121 -2.5029 0.9785
-4.3136 2.1592 -2.5025 0.9785
-4.3873 2.0036 -2.5021 0.9785
-4.5742 1.5224 -2.5010 0.9785
-4.7087 1.0243 -2.4999 0.9785
-4.7683 0.6856 -2.4991 0.9785
-4.8037 0.3436 -2.4984 0.9785
4.5712 0.1633 -2.5053 0.9794
4.5631 0.3264 -2.5056 0.9794
4.5293 0.6512 -2.5062 0.9793
4.4724 0.9729 -2.5068 0.9793
4.4353 1.1321 -2.5071 0.9793
4.3926 1.2898 -2.5074 0.9793
4.0960 2.0503 -2.5087 0.9793
4.0206 2.1954 -2.5090 0.9793
3.6684 2.7462 -2.5098 0.9793
3.5683 2.8756 -2.5100 0.9793
3.4637 3.0013 -2.5102 0.9793
3.3546 3.1232 -2.5104 0.9793
3.1236 3.3550 -2.5106 0.9793
2.8766 3.5696 -2.5109 0.9793
2.7474 3.6702 -2.5110 0.9793
2.6148 3.7660 -2.5111 0.9793
2.4788 3.8571 -2.5112 0.9793
2.0524 4.1002 -2.5113 0.9793
1.6024 4.2962 -2.5114 0.9793
1.1339 4.4428 -2.5113 0.9793
0.9746 4.4803 -2.5113 0.9793
0.8141 4.5122 -2.5112 0.9793
0.6525 4.5382 -2.5112 0.9793
0.3271 4.5729 -2.5110 0.9793
0.1636 4.5814 -2.5109 0.9793
-0.0000 4.5841 -2.5108 0.9793
-1.2908 4.3960 -2.5094 0.9793
-1.4468 4.3468 -2.5092 0.9793
-1.6008 4.2920 -2.5089 0.9793
-1.7528 4.2317 -2.5087 0.9793
-1.9026 4.1660 -2.5084 0.9793
-2.1945 4.0189 -2.5079 0.9793
-2.3363 3.9375 -2.5076 0.9793
-2.6106 3.7600 -2.5071 0.9793
-2.8715 3.5633 -2.5065 0.9793
-3.1176 3.3485 -2.5058 0.9794
-3.4563 2.9949 -2.5049 0.9794
-3.5606 2.8693 -2.5045 0.9794
-3.6602 2.7400 -2.5042 0.9794
-3.8453 2.4712 -2.5035 0.9794
-4.0107 2.1900 -2.5028 0.9794
-4.1555 1.8977 -2.5021 0.9794
-4.2200 1.7480 -2.5017 0.9794
-4.3808 1.2863 -2.5007 0.9794
-4.4233 1.1290 -2.5003 0.9794
-4.4601 0.9702 -2.5000 0.9794
-4.4913 0.8103 -2.4996 0.9794
-4.5167 0.6494 -2.4993 0.9794
-4.5364 0.4877 -2.4989 0.9794
-4.5503 0.3254 -2.4986 0.9794
4.3361 0.1549 -2.5051 0.9802
4.3284 0.3096 -2.5054 0.9802
4.2963 0.6177 -2.5060 0.9802
4.2720 0.7708 -2.5063 0.9801
4.2423 0.9229 -2.5066 0.9801
4.2071 1.0738 -2.5068 0.9801
4.1665 1.2234 -2.5071 0.9801
4.1207 1.3715 -2.5074 0.9801
4.0695 1.5179 -2.5076 0.9801
3.9516 1.8046 -2.5081 0.9801
3.8851 1.9447 -2.5084 0.9801
3.3845 2.7274 -2.5096 0.9801
3.2852 2.8467 -2.5097 0.9801
2.9626 3.1821 -2.5102 0.9801
2.4800 3.5719 -2.5106 0.9801
2.0842 3.8169 -2.5108 0.9801
1.9466 3.8889 -2.5108 0.9801
1.8066 3.9559 -2.5109 0.9801
1.3734 4.1264 -2.5109 0.9801
1.2252 4.1728 -2.5109 0.9801
1.0755 4.2138 -2.5108 0.9801
0.7721 4.2796 -2.5107 0.9801
0.4648 4.3235 -2.5106 0.9801
0.3102 4.3372 -2.5105 0.9801
0.1552 4.3453 -2.5104 0.9801
-0.3101 4.3364 -2.5100 0.9801
-0.4647 4.3223 -2.5099 0.9801
-0.6186 4.3027 -2.5097 0.9801
-0.7718 4.2776 -2.5095 0.9801
-1.0748 4.2110 -2.5092 0.9801
-1.2243 4.1696 -2.5090 0.9801
-2.4763 3.5665 -2.5068 0.9801
-3.2786 2.8409 -2.5047 0.9802
-3.3775 2.7218 -2.5044 0.9802
-3.4721 2.5991 -2.5040 0.9802
-3.5621 2.4732 -2.5037 0.9802
-3.9421 1.8003 -2.5021 0.9802
-4.0033 1.6582 -2.5017 0.9802
-4.1103 1.3680 -2.5010 0.9802
-4.2608 0.7687 -2.4997 0.9802
-4.2850 0.6161 -2.4994 0.9802
-4.3037 0.4627 -2.4991 0.9802
-4.3169 0.3087 -2.4987 0.9802
-4.3246 0.1544 -2.4984 0.9802
