ply
format ascii 1.0
element vertex 1428
property float32 x
property float32 y
property float32 z
property float32 I
end_header
32.9891 3.5467 5.8504 0.8739
30.3443 4.3629 5.4055 0.8829
29.1575 5.2606 5.2243 0.8866
27.8380 6.0558 5.0234 0.8907
26.4242 6.7444 4.8087 0.8951
23.9222 7.9621 4.4456 0.9027
22.8292 8.5148 4.2963 0.9058
21.8660 9.0572 4.1732 0.9083
20.7815 9.4906 4.0284 0.9114
19.4738 9.7479 3.8399 0.9153
18.2464 10.8260 3.7410 0.9174
17.7347 11.3974 3.7172 0.9179
22.2777 15.4677 4.7822 0.8957
16.0089 11.9841 3.5261 0.9220
14.8760 11.9878 3.3687 0.9253
14.2094 12.3125 3.3153 0.9265
13.8309 12.8771 3.3321 0.9261
13.3162 13.3162 3.3206 0.9264
5.3659 7.1679 1.5788 0.9643
10.1424 14.6079 3.1357 0.9303
8.8537 14.9221 3.0594 0.9320
8.4829 15.5352 3.1210 0.9306
10.0740 22.0590 4.2760 0.9062
9.2916 22.4318 4.2812 0.9061
3.2657 18.1003 3.2431 0.9280
3.6158 25.1481 4.4799 0.9020
0.8094 7.5285 1.3351 0.9697
1.8200 25.4462 4.4983 0.9016
-1.4255 19.9320 3.5235 0.9220
-2.2371 20.8077 3.6901 0.9185
-3.0941 21.5201 3.8336 0.9155
-3.9221 21.7385 3.8950 0.9142
-4.7575 21.8700 3.9465 0.9131
-5.6077 21.9707 3.9982 0.9120
-6.5921 22.4506 4.1258 0.9093
-7.7936 23.4160 4.3516 0.9046
-10.1824 24.5826 4.6917 0.8976
-14.5965 26.7316 5.3704 0.8836
-15.9713 26.9182 5.5190 0.8806
37.5173 1.3399 5.7511 0.8591
34.2674 2.4508 5.2630 0.8702
32.9873 3.5465 5.0826 0.8744
30.1590 4.3362 4.6677 0.8840
29.0407 5.2395 4.5207 0.8874
23.9199 7.9613 3.8620 0.9030
23.0720 8.6054 3.7724 0.9052
20.8630 9.5278 3.5136 0.9114
19.4731 9.7475 3.3360 0.9156
18.9839 10.3660 3.3135 0.9162
23.8141 15.3044 4.3366 0.8918
22.4512 15.5881 4.1871 0.8953
21.7733 16.2993 4.1666 0.8958
13.7837 12.8331 2.8851 0.9266
13.3616 13.3616 2.8948 0.9264
5.5595 6.8989 1.3573 0.9648
5.3688 7.1719 1.3724 0.9644
10.1951 14.6837 2.7385 0.9302
9.1905 14.3007 2.6042 0.9335
8.5161 22.8324 3.7332 0.9061
5.0466 17.1872 2.7441 0.9301
3.7835 17.3924 2.7267 0.9305
3.6281 25.2340 3.9055 0.9020
0.8093 7.5277 1.1599 0.9698
1.8335 25.6350 3.9372 0.9012
0.7027 19.6745 3.0159 0.9234
-0.6992 19.5773 3.0010 0.9238
-1.3440 18.7924 2.8862 0.9266
-2.2780 21.1888 3.2647 0.9174
-4.7955 22.0447 3.4561 0.9127
-5.6074 21.9698 3.4735 0.9123
-11.2986 24.7406 4.1666 0.8958
-14.5953 26.7293 4.6655 0.8841
-15.9525 26.8866 4.7893 0.8812
-33.8103 4.8612 5.2328 0.8709
39.2963 -0.0000 5.1172 0.8534
31.0856 4.4694 4.0896 0.8810
28.1859 6.1314 3.7562 0.8902
27.0525 6.9047 3.6357 0.8935
24.6332 7.2329 3.3432 0.9016
29.9366 12.4001 4.2196 0.8775
19.4723 9.7472 2.8356 0.9159
23.8777 15.3453 3.6961 0.8918
22.4504 15.5876 3.5591 0.8956
14.8750 11.9870 2.4877 0.9258
13.8157 12.8628 2.4581 0.9267
13.3557 13.3557 2.4596 0.9266
5.9788 6.8999 1.1889 0.9638
5.5579 6.8969 1.1534 0.9649
5.3718 7.1759 1.1673 0.9645
10.0660 14.4978 2.2984 0.9313
9.2156 14.3397 2.2197 0.9336
8.8532 14.9212 2.2593 0.9324
4.3665 17.1077 2.2992 0.9313
3.7834 17.3919 2.3178 0.9307
3.6602 25.4568 3.3491 0.9015
0.0000 19.6757 2.5622 0.9237
-0.6992 19.5766 2.5509 0.9240
-1.3452 18.8084 2.4555 0.9268
-3.0097 27.9948 3.6665 0.8926
-11.7792 35.3909 4.8572 0.8603
-10.1920 24.6058 3.4682 0.8981
-11.2981 24.7394 3.5416 0.8961
-14.6629 26.8531 3.9842 0.8839
-16.0656 27.0771 4.0999 0.8807
-12.2014 15.1410 2.5322 0.9246
-34.9625 2.5006 4.5645 0.8681
-37.5704 1.3418 4.8956 0.8593
37.8258 1.3509 4.0644 0.8588
24.6321 7.2326 2.7567 0.9019
23.9800 7.9813 2.7139 0.9033
17.9308 10.6388 2.2388 0.9195
15.7348 11.7789 2.1106 0.9240
14.8745 11.9866 2.0513 0.9260
13.7205 12.7742 2.0130 0.9274
13.0731 13.0731 1.9853 0.9283
5.5563 6.8949 0.9509 0.9650
10.1441 14.6103 1.9100 0.9309
9.2159 14.3402 1.8305 0.9337
8.8529 14.9208 1.8630 0.9326
8.4314 15.4409 1.8892 0.9317
10.3363 22.6334 2.6719 0.9047
9.5365 23.0231 2.6760 0.9046
4.3664 17.1072 1.8959 0.9314
3.7833 17.3914 1.9112 0.9309
3.2263 17.8822 1.9512 0.9295
2.6119 18.1659 1.9707 0.9288
1.8333 25.6334 2.7596 0.9018
-1.3437 18.7876 2.0226 0.9270
-3.1161 21.6734 2.3513 0.9157
-5.4737 30.3387 3.3104 0.8834
-6.5913 22.4479 2.5122 0.9102
-10.2130 24.6565 2.8658 0.8982
-12.2066 15.1474 2.0890 0.9247
39.4756 -0.0000 3.3417 0.8535
38.7948 1.3855 3.2862 0.8557
34.4223 2.4619 2.9214 0.8706
33.7649 3.6301 2.8748 0.8726
29.2661 5.2802 2.5175 0.8875
26.1040 6.6626 2.2806 0.8975
23.7199 7.8947 2.1163 0.9045
19.3729 8.8473 1.8029 0.9181
18.9237 10.3331 1.8252 0.9171
24.3554 15.6523 2.4508 0.8903
22.4489 15.5865 2.3135 0.8961
15.8097 11.8350 1.6718 0.9238
14.8740 11.9862 1.6171 0.9262
13.7863 12.8355 1.5946 0.9272
13.1363 13.1363 1.5726 0.9281
16.9886 18.2471 2.1105 0.9048
5.9193 6.8312 0.7652 0.9644
5.5546 6.8929 0.7494 0.9651
5.3777 7.1837 0.7596 0.9646
9.1609 14.2546 1.4344 0.9342
8.8527 14.9203 1.4686 0.9327
8.4306 15.4394 1.4891 0.9318
7.8605 15.7033 1.4866 0.9319
10.2043 22.3443 2.0794 0.9061
8.4379 22.6228 2.0440 0.9076
5.5951 16.8106 1.4998 0.9313
5.0222 17.1041 1.5090 0.9309
4.3662 17.1067 1.4946 0.9316
3.2416 17.9670 1.5455 0.9293
3.6250 25.2122 2.1562 0.9028
0.8089 7.5243 0.6406 0.9701
1.8333 25.6326 2.1754 0.9020
0.0000 19.5494 1.6549 0.9245
-2.2169 20.6200 1.7556 0.9201
-4.1915 29.1523 2.4932 0.8885
-4.0601 22.5037 1.9358 0.9123
-4.7550 21.8584 1.8936 0.9141
-5.6068 21.9673 1.9192 0.9130
-6.5910 22.4470 1.9804 0.9104
-9.2498 24.7996 2.2406 0.8992
-10.0632 24.2948 2.2261 0.8998
-11.7518 23.4771 2.2225 0.9000
-16.0656 27.0772 2.6652 0.8813
-11.6847 15.6089 1.6506 0.9247
-37.4752 1.3384 3.1744 0.8602
33.6181 3.6143 2.0967 0.8733
29.8406 4.2904 1.8695 0.8862
29.2660 5.2802 1.8441 0.8876
28.6445 6.2312 1.8178 0.8892
36.7467 9.3790 2.3517 0.8590
24.6299 7.2320 1.5918 0.9022
23.8352 7.9331 1.5577 0.9042
23.5366 8.7787 1.5577 0.9042
30.3007 12.5510 2.0338 0.8768
18.9214 10.3319 1.3369 0.9172
22.4481 15.5860 1.6946 0.8963
15.8080 11.8337 1.2245 0.9239
13.7848 12.8341 1.1679 0.9273
13.1349 13.1349 1.1519 0.9283
16.9881 18.2465 1.5460 0.9049
5.5530 6.8909 0.5488 0.9652
5.3806 7.1877 0.5568 0.9647
7.8598 15.7018 1.0888 0.9320
10.2593 22.4647 1.5314 0.9058
9.4654 22.8515 1.5338 0.9056
8.4673 22.7016 1.5025 0.9075
5.0217 17.1024 1.1053 0.9311
4.3661 17.1062 1.0948 0.9317
3.7830 17.3903 1.1036 0.9312
0.6928 19.3970 1.2036 0.9252
0.0000 19.5473 1.2121 0.9247
-0.6991 19.5747 1.2146 0.9245
-2.2166 20.6177 1.2859 0.9203
-4.1495 28.8607 1.8081 0.8897
-5.6066 21.9664 1.4058 0.9131
-6.5908 22.4461 1.4507 0.9105
-10.1439 24.4897 1.6437 0.8992
-11.2965 24.7360 1.6863 0.8967
-11.6813 15.6045 1.2087 0.9249
-30.9142 24.9123 2.4620 0.8529
-37.4647 1.3381 2.3247 0.8605
34.4183 2.4617 1.3606 0.8710
24.6289 7.2317 1.0121 0.9023
23.8318 7.9320 0.9904 0.9043
30.7808 12.7498 1.3137 0.8751
19.4695 9.7457 0.8585 0.9165
18.9192 10.3306 0.8500 0.9173
18.1152 10.7482 0.8306 0.9191
14.8731 11.9855 0.7532 0.9264
14.2067 12.3102 0.7412 0.9275
13.1336 13.1336 0.7324 0.9283
16.9876 18.2460 0.9830 0.9050
5.8614 6.7644 0.3529 0.9648
5.5514 6.8889 0.3489 0.9652
5.3836 7.1916 0.3542 0.9647
10.1411 14.6060 0.7011 0.9313
9.4126 14.6463 0.6865 0.9327
8.4289 15.4364 0.6935 0.9320
7.8590 15.7003 0.6923 0.9321
9.5637 23.0888 0.9854 0.9048
8.4664 22.6994 0.9553 0.9076
5.5940 16.8073 0.6985 0.9315
5.0212 17.1007 0.7028 0.9311
4.3660 17.1057 0.6961 0.9318
3.7829 17.3898 0.7017 0.9312
3.2410 17.9634 0.7197 0.9295
0.6929 19.3992 0.7654 0.9252
-0.6991 19.5740 0.7723 0.9246
-2.2164 20.6154 0.8176 0.9204
-4.1491 28.8574 1.1496 0.8898
-4.0840 22.6361 0.9070 0.9120
-6.5905 22.4452 0.9224 0.9106
-12.3076 36.9784 1.5367 0.8555
-12.9294 25.8297 1.1390 0.8908
-16.0657 27.0774 1.2415 0.8816
-37.4542 1.3377 1.4778 0.8607
33.7212 3.6254 0.5729 0.8731
30.9618 4.4517 0.5284 0.8824
29.2659 5.2801 0.5023 0.8878
36.4784 9.3105 0.6359 0.8602
24.6278 7.2314 0.4336 0.9024
23.5388 8.7795 0.4244 0.9044
19.4688 9.7454 0.3678 0.9166
18.9169 10.3294 0.3641 0.9174
18.1166 10.7491 0.3558 0.9192
23.7403 15.2569 0.4767 0.8932
22.4466 15.5850 0.4616 0.8964
14.8726 11.9851 0.3227 0.9264
14.2063 12.3098 0.3175 0.9276
5.3865 7.1955 0.1518 0.9647
7.8582 15.6987 0.2965 0.9322
9.5634 23.0881 0.4221 0.9049
8.4656 22.6972 0.4092 0.9076
5.0207 17.0990 0.3010 0.9312
4.3658 17.1052 0.2982 0.9318
0.6929 19.4016 0.3279 0.9253
-1.4252 19.9273 0.3375 0.9232
-4.1486 28.8541 0.4924 0.8899
-4.0842 22.6375 0.3886 0.9121
-4.7532 21.8501 0.3777 0.9144
-5.6062 21.9648 0.3829 0.9133
-12.3078 36.9790 0.6583 0.8556
-9.3116 24.9653 0.4501 0.8989
-10.1409 24.4824 0.4476 0.8994
-11.2955 24.7338 0.4593 0.8969
-16.0658 27.0774 0.5318 0.8817
-11.6747 15.5955 0.3291 0.9250
-37.4438 1.3373 0.6329 0.8608
33.7227 3.6256 -0.1910 0.8731
30.9566 4.4509 -0.1761 0.8824
29.2658 5.2801 -0.1674 0.8878
36.4804 9.3110 -0.2120 0.8602
24.6268 7.2311 -0.1445 0.9024
23.8251 7.9297 -0.1414 0.9044
23.5399 8.7799 -0.1414 0.9044
30.7784 12.7488 -0.1876 0.8752
18.9146 10.3282 -0.1213 0.9174
15.8028 11.8298 -0.1111 0.9241
14.8721 11.9847 -0.1075 0.9264
14.2058 12.3094 -0.1058 0.9276
5.5483 6.8850 -0.0498 0.9652
10.1391 14.6031 -0.1001 0.9314
8.8516 14.9186 -0.0977 0.9330
8.4273 15.4335 -0.0990 0.9321
7.8575 15.6972 -0.0988 0.9322
10.3652 22.6966 -0.1405 0.9050
9.5631 23.0874 -0.1407 0.9049
5.5929 16.8040 -0.0997 0.9316
3.7827 17.3888 -0.1002 0.9313
3.2403 17.9598 -0.1027 0.9296
3.6740 25.5528 -0.1453 0.9019
0.8084 7.5195 -0.0426 0.9702
0.6930 19.4040 -0.1093 0.9253
-0.6990 19.5728 -0.1103 0.9246
-1.4252 19.9266 -0.1125 0.9232
-4.1481 28.8508 -0.1641 0.8899
-4.0845 22.6390 -0.1295 0.9121
-4.7526 21.8474 -0.1259 0.9144
-5.6059 21.9639 -0.1276 0.9133
-6.5900 22.4435 -0.1317 0.9107
-9.3120 24.9666 -0.1500 0.8989
-10.1394 24.4787 -0.1492 0.8994
-11.2950 24.7326 -0.1531 0.8969
-14.8860 27.2616 -0.1749 0.8832
-16.0658 27.0775 -0.1773 0.8817
-11.6713 15.5911 -0.1097 0.9251
-12.2324 15.1794 -0.1098 0.9250
-37.4333 1.3369 -0.2109 0.8609
39.4626 -0.0000 -1.1111 0.8539
38.9870 1.3924 -1.0985 0.8555
30.9514 4.4502 -0.8805 0.8824
29.2657 5.2801 -0.8374 0.8878
28.6501 6.2324 -0.8256 0.8893
36.4824 9.3116 -1.0602 0.8601
23.8217 7.9286 -0.7069 0.9044
23.5410 8.7803 -0.7075 0.9043
30.7773 12.7483 -0.9380 0.8752
18.1195 10.7508 -0.5933 0.9191
23.7349 15.2535 -0.7944 0.8932
22.4452 15.5839 -0.7694 0.8964
15.8011 11.8286 -0.5558 0.9241
14.2054 12.3090 -0.5293 0.9275
13.7791 12.8288 -0.5301 0.9274
16.9861 18.2443 -0.7019 0.9051
5.8460 6.7466 -0.2514 0.9649
5.5467 6.8830 -0.2489 0.9652
5.3923 7.2033 -0.2534 0.9646
10.1382 14.6017 -0.5005 0.9313
7.8567 15.6957 -0.4942 0.9322
10.3649 22.6959 -0.7026 0.9050
9.5629 23.0868 -0.7036 0.9048
5.0197 17.0956 -0.5017 0.9312
4.3656 17.1042 -0.4971 0.9318
3.2400 17.9580 -0.5138 0.9296
0.8083 7.5183 -0.2129 0.9702
1.8330 25.6286 -0.7235 0.9023
0.6931 19.4063 -0.5468 0.9252
0.0000 19.5388 -0.5502 0.9248
-0.6990 19.5721 -0.5515 0.9246
-4.0848 22.6405 -0.6478 0.9121
-5.6057 21.9631 -0.6383 0.9133
-6.5897 22.4426 -0.6586 0.9106
-12.3082 36.9802 -1.0974 0.8556
-9.3125 24.9678 -0.7504 0.8989
-10.1379 24.4750 -0.7459 0.8994
-16.0658 27.0776 -0.8866 0.8816
-37.4229 1.3366 -1.0544 0.8608
39.4600 -0.0000 -2.0012 0.8538
34.4104 2.4611 -1.7496 0.8710
33.6555 3.6183 -1.7166 0.8732
30.9462 4.4494 -1.5856 0.8823
28.6515 6.2327 -1.4870 0.8892
23.8183 7.9275 -1.2731 0.9043
23.5421 8.7807 -1.2742 0.9043
30.7761 12.7478 -1.6894 0.8751
18.1209 10.7516 -1.0686 0.9191
22.4444 15.5834 -1.3857 0.8963
15.7994 11.8273 -1.0009 0.9240
14.8712 11.9839 -0.9686 0.9264
13.7776 12.8274 -0.9547 0.9274
13.1281 13.1281 -0.9416 0.9283
5.5451 6.8810 -0.4482 0.9652
5.3953 7.2072 -0.4566 0.9646
8.8511 14.9177 -0.8797 0.9329
7.8559 15.6941 -0.8901 0.9321
10.3646 22.6953 -1.2653 0.9049
5.0192 17.0940 -0.9035 0.9311
3.7825 17.3877 -0.9024 0.9312
3.2397 17.9562 -0.9253 0.9295
1.8330 25.6278 -1.3030 0.9022
0.6932 19.4087 -0.9849 0.9252
0.0000 19.5366 -0.9908 0.9247
-0.6990 19.5715 -0.9932 0.9246
-1.4251 19.9253 -1.0131 0.9231
-4.0850 22.6419 -1.1668 0.9120
-4.7514 21.8419 -1.1336 0.9144
-6.5895 22.4417 -1.1862 0.9106
-9.3130 24.9692 -1.3515 0.8988
-12.9213 25.8135 -1.4640 0.8908
-16.0659 27.0776 -1.5968 0.8815
-11.6646 15.5821 -0.9871 0.9250
-33.8701 36.3790 -2.5208 0.8195
-36.3152 33.8107 -2.5163 0.8198
-39.6148 29.6553 -2.5096 0.8202
-40.6114 28.1970 -2.5073 0.8204
-41.5543 26.7054 -2.5051 0.8205
-42.4426 25.1824 -2.5028 0.8207
-43.2751 23.6300 -2.5005 0.8208
-45.4302 18.8178 -2.4938 0.8212
-47.4779 12.1180 -2.4850 0.8218
-47.8390 10.4067 -2.4829 0.8219
-43.5862 6.2668 -2.2332 0.8383
-37.4852 2.6810 -1.9059 0.8603
-36.6282 1.3082 -1.8588 0.8635
32.3246 -0.0000 -2.3701 0.8784
32.3215 1.1541 -2.3714 0.8783
32.1906 3.4609 -2.3739 0.8782
30.8425 4.4345 -2.2847 0.8825
28.5770 6.2165 -2.1443 0.8893
26.2017 6.6876 -1.9828 0.8972
23.7353 7.8999 -1.8342 0.9045
20.6214 9.4175 -1.6622 0.9131
19.4659 9.7440 -1.5961 0.9164
18.9078 10.3244 -1.5796 0.9172
22.4437 15.5829 -2.0034 0.8962
15.7977 11.8260 -1.4469 0.9239
14.8707 11.9836 -1.4003 0.9263
13.7762 12.8261 -1.3801 0.9273
13.1268 13.1267 -1.3612 0.9282
5.8426 6.7427 -0.6542 0.9648
5.3982 7.2112 -0.6605 0.9645
8.8509 14.9173 -1.2718 0.9328
10.3643 22.6946 -1.8293 0.9048
8.4426 22.6355 -1.7714 0.9077
5.0187 17.0923 -1.3061 0.9310
4.3653 17.1031 -1.2942 0.9317
3.2393 17.9544 -1.3377 0.9294
0.6933 19.4111 -1.4242 0.9251
-1.4250 19.9246 -1.4646 0.9230
-2.2151 20.6036 -1.5194 0.9202
-4.1369 28.7726 -2.1314 0.8900
-4.0691 22.5538 -1.6804 0.9122
-4.7453 21.8137 -1.6368 0.9144
-6.5892 22.4409 -1.7149 0.9105
-12.8793 25.7295 -2.1097 0.8910
-14.8531 27.2015 -2.2724 0.8831
-17.4659 27.1775 -2.3687 0.8785
-22.7636 22.7636 -2.3604 0.8789
-25.8740 22.4199 -2.5103 0.8717
-26.6412 21.4689 -2.5087 0.8718
-27.3735 20.4916 -2.5072 0.8718
-28.0700 19.4893 -2.5056 0.8719
-30.4815 15.2579 -2.4993 0.8722
-32.2627 10.7380 -2.4932 0.8725
-32.6055 9.5738 -2.4916 0.8726
-33.1655 7.2147 -2.4886 0.8727
-33.6878 3.6218 -2.4843 0.8729
-31.7647 1.1345 -2.3305 0.8803
24.5250 2.6367 -2.3681 0.9056
24.2928 4.3829 -2.3699 0.9056
24.1297 5.2491 -2.3708 0.9055
23.9355 6.1092 -2.3716 0.9055
23.7102 6.9620 -2.3724 0.9055
23.1681 8.6412 -2.3739 0.9054
22.8724 9.5062 -2.3747 0.9053
20.6189 9.4163 -2.1762 0.9129
19.4652 9.7436 -2.0898 0.9162
20.3484 14.1282 -2.3783 0.9052
15.7458 11.7872 -1.8883 0.9240
14.2040 12.3079 -1.8044 0.9273
13.7284 12.7816 -1.8008 0.9274
13.0833 13.0833 -1.7763 0.9283
16.8965 18.1481 -2.3805 0.9052
5.8409 6.7408 -0.8563 0.9648
5.5419 6.8770 -0.8479 0.9651
5.4012 7.2151 -0.8653 0.9644
10.1015 14.5490 -1.7004 0.9313
9.4110 14.6438 -1.6712 0.9324
8.8506 14.9169 -1.6652 0.9327
8.3963 15.3766 -1.6820 0.9320
5.5729 16.7437 -1.6942 0.9315
4.3652 17.1026 -1.6946 0.9315
3.7822 17.3867 -1.7083 0.9310
0.8079 7.5148 -0.7256 0.9701
1.7672 24.7089 -2.3782 0.9053
0.6878 19.2580 -1.8500 0.9255
0.0000 19.4675 -1.8690 0.9248
-0.6989 19.5702 -1.8800 0.9243
-4.0694 22.5552 -2.2004 0.9120
-4.7348 21.7655 -2.1385 0.9144
-5.6051 21.9606 -2.1759 0.9129
-7.7982 23.4300 -2.3707 0.9055
-8.6264 23.1283 -2.3698 0.9056
-9.4428 22.7971 -2.3690 0.9056
-10.2466 22.4369 -2.3680 0.9056
-11.0365 22.0481 -2.3671 0.9057
-10.8377 15.6093 -1.8244 0.9265
-11.4076 14.1560 -1.7454 0.9295
-12.6793 14.6326 -1.8588 0.9251
-20.8953 15.6421 -2.5059 0.9004
-21.4301 14.8792 -2.5047 0.9005
-22.8650 12.4852 -2.5011 0.9006
-23.2849 11.6556 -2.4999 0.9007
-24.0343 9.9553 -2.4975 0.9007
-24.3627 9.0868 -2.4963 0.9008
-24.9256 7.3188 -2.4940 0.9009
-25.6668 3.6903 -2.4895 0.9010
19.8861 -0.0000 -2.3622 0.9230
19.7091 2.8338 -2.3652 0.9229
19.4683 4.2351 -2.3666 0.9229
19.3103 4.9287 -2.3673 0.9229
18.9197 6.2971 -2.3686 0.9228
18.4314 7.6345 -2.3698 0.9228
18.1514 8.2895 -2.3703 0.9228
17.8480 8.9341 -2.3709 0.9227
17.1722 10.1887 -2.3718 0.9227
16.8007 10.7972 -2.3723 0.9227
16.4075 11.3919 -2.3727 0.9227
14.4288 11.6274 -2.2012 0.9281
14.2036 12.3075 -2.2325 0.9271
13.0820 13.0819 -2.1976 0.9282
5.8392 6.7388 -1.0592 0.9647
5.4042 7.2191 -1.0712 0.9643
9.4107 14.6433 -2.0677 0.9323
8.3955 15.3752 -2.0809 0.9319
8.3062 18.1881 -2.3751 0.9226
6.9868 18.7324 -2.3749 0.9226
5.5723 16.7421 -2.0960 0.9314
5.0010 17.0319 -2.1086 0.9310
3.7821 17.3862 -2.1135 0.9308
0.6879 19.2603 -2.2893 0.9253
-1.4238 19.9081 -2.3708 0.9227
-3.5413 19.6280 -2.3692 0.9228
-6.9605 18.6617 -2.3659 0.9229
-7.6198 18.3958 -2.3652 0.9229
-8.9071 17.7941 -2.3637 0.9230
-10.1471 17.1021 -2.3621 0.9230
-10.7578 15.4942 -2.2406 0.9268
-11.4260 14.1788 -2.1630 0.9293
-12.5071 14.4340 -2.2687 0.9260
-13.5217 14.5233 -2.3571 0.9232
-14.0262 14.0262 -2.3562 0.9232
-15.4176 14.3543 -2.5023 0.9186
-16.4270 13.2378 -2.5060 0.9185
-16.8826 12.6381 -2.5051 0.9186
-18.1158 10.7486 -2.5022 0.9186
-19.4311 8.0486 -2.4983 0.9188
-19.6985 7.3472 -2.4974 0.9188
-20.7639 2.9854 -2.4918 0.9190
-20.8498 2.2416 -2.4909 0.9190
-20.9092 1.4955 -2.4901 0.9190
-20.9420 0.7480 -2.4892 0.9191
16.6571 -0.0000 -2.3601 0.9349
16.6238 1.1890 -2.3614 0.9349
16.5752 1.7820 -2.3621 0.9349
16.5054 2.3731 -2.3627 0.9349
16.4143 2.9615 -2.3633 0.9348
16.1690 4.1269 -2.3644 0.9348
14.0629 9.0377 -2.3686 0.9347
13.7334 9.5353 -2.3689 0.9347
13.3861 10.0207 -2.3692 0.9347
12.2424 11.3981 -2.3700 0.9347
11.8289 11.8289 -2.3703 0.9347
11.4001 12.2445 -2.3705 0.9346
5.5386 6.8730 -1.2507 0.9650
9.5435 13.7452 -2.3709 0.9346
9.0470 14.0774 -2.3710 0.9346
8.5389 14.3915 -2.3710 0.9346
7.4903 14.9638 -2.3710 0.9346
6.9513 15.2212 -2.3709 0.9346
6.4034 15.4591 -2.3709 0.9346
5.8472 15.6771 -2.3707 0.9346
5.2837 15.8749 -2.3706 0.9346
4.1371 16.2089 -2.3703 0.9347
3.5556 16.3447 -2.3700 0.9347
2.9697 16.4597 -2.3698 0.9347
2.3800 16.5526 -2.3695 0.9347
0.8077 7.5124 -1.0706 0.9699
1.1927 16.6764 -2.3689 0.9347
-0.5964 16.7005 -2.3678 0.9347
-1.7857 16.6093 -2.3669 0.9347
-1.5269 8.4630 -1.2185 0.9659
-1.8581 8.5418 -1.2386 0.9653
-6.3812 15.4056 -2.3627 0.9349
-7.9850 14.6235 -2.3608 0.9349
-8.4995 14.3252 -2.3601 0.9349
-9.0028 14.0086 -2.3594 0.9349
-9.4943 13.6744 -2.3587 0.9350
-10.4394 12.9545 -2.3573 0.9350
-10.8918 12.5698 -2.3566 0.9350
-11.9588 12.8447 -2.4866 0.9316
-12.5149 12.5149 -2.5077 0.9310
-12.9495 12.0564 -2.5069 0.9310
-13.3674 11.5829 -2.5061 0.9310
-14.8606 9.5503 -2.5029 0.9311
-15.1871 9.0109 -2.5021 0.9311
-15.4940 8.4604 -2.5013 0.9312
-15.7810 7.8994 -2.5005 0.9312
-16.0477 7.3287 -2.4997 0.9312
-16.2938 6.7491 -2.4989 0.9312
-16.7231 5.5660 -2.4973 0.9313
-16.9057 4.9640 -2.4965 0.9313
-17.0668 4.3560 -2.4957 0.9313
-17.2061 3.7429 -2.4949 0.9313
-17.3234 3.1255 -2.4942 0.9314
-17.4186 2.5044 -2.4934 0.9314
14.3117 0.5111 -2.3592 0.9436
14.2877 1.0219 -2.3598 0.9436
14.1849 2.0395 -2.3608 0.9436
14.0092 3.0475 -2.3618 0.9435
13.8944 3.5463 -2.3623 0.9435
13.7617 4.0408 -2.3628 0.9435
13.6113 4.5302 -2.3632 0.9435
13.4434 5.0141 -2.3637 0.9435
12.8368 6.4257 -2.3649 0.9435
12.6012 6.8808 -2.3652 0.9435
10.8585 9.4089 -2.3669 0.9434
10.5167 9.7914 -2.3672 0.9434
5.8358 6.7348 -1.4681 0.9645
5.5370 6.8710 -1.4537 0.9649
5.4102 7.2272 -1.4872 0.9641
8.1977 11.8069 -2.3679 0.9434
5.5004 13.2792 -2.3679 0.9434
5.0228 13.4665 -2.3678 0.9434
2.5510 14.1395 -2.3669 0.9434
0.8075 7.5111 -1.2445 0.9698
1.0247 14.3265 -2.3662 0.9434
0.5126 14.3522 -2.3659 0.9434
-0.5124 14.3482 -2.3652 0.9435
-1.0241 14.3186 -2.3649 0.9435
-1.5250 8.4524 -1.4149 0.9658
-1.8602 8.5511 -1.4416 0.9651
-3.5470 13.8970 -2.3628 0.9435
-4.0400 13.7588 -2.3623 0.9435
-4.5275 13.6031 -2.3618 0.9435
-5.4841 13.2397 -2.3608 0.9436
-6.4117 12.8089 -2.3597 0.9436
-7.3057 12.3130 -2.3586 0.9436
-7.7386 12.0415 -2.3580 0.9436
-8.1614 11.7547 -2.3574 0.9436
-9.9643 11.4994 -2.5067 0.9402
-11.1344 10.3665 -2.5062 0.9402
-11.4942 9.9598 -2.5055 0.9402
-12.1687 9.1094 -2.5041 0.9402
-12.4826 8.6669 -2.5034 0.9403
-13.0618 7.7500 -2.5020 0.9403
-13.5739 6.7946 -2.5007 0.9403
-13.8039 6.3040 -2.5000 0.9403
-14.3868 4.7884 -2.4979 0.9404
-14.5446 4.2707 -2.4972 0.9404
-14.8042 3.2205 -2.4959 0.9404
-14.9058 2.6893 -2.4952 0.9404
-14.9884 2.1550 -2.4946 0.9405
-15.0963 1.0797 -2.4933 0.9405
-15.1214 0.5401 -2.4927 0.9405
13.1744 0.9423 -2.4826 0.9477
12.4250 1.7864 -2.3594 0.9502
12.3557 2.2292 -2.3599 0.9502
12.2705 2.6693 -2.3603 0.9502
11.9211 3.9677 -2.3615 0.9501
11.7737 4.3914 -2.3619 0.9501
11.2418 5.6273 -2.3630 0.9501
11.0353 6.0257 -2.3633 0.9501
10.3316 7.1733 -2.3641 0.9501
9.7954 7.8936 -2.3646 0.9501
9.5082 8.2389 -2.3648 0.9501
8.5748 9.2100 -2.3653 0.9501
5.8340 6.7328 -1.6745 0.9644
5.5354 6.8690 -1.6581 0.9647
5.4132 7.2312 -1.6978 0.9639
6.0319 11.0466 -2.3657 0.9501
5.2283 11.4484 -2.3656 0.9501
4.8162 11.6274 -2.3656 0.9501
2.6745 12.2946 -2.3649 0.9501
0.8074 7.5099 -1.4197 0.9697
0.8973 12.5456 -2.3641 0.9501
0.4489 12.5682 -2.3638 0.9501
0.0000 12.5747 -2.3636 0.9501
-0.4488 12.5652 -2.3633 0.9501
-0.8968 12.5395 -2.3629 0.9501
-1.3436 12.4977 -2.3626 0.9501
-1.7886 12.4400 -2.3623 0.9501
-1.5251 8.4531 -1.6145 0.9656
-1.8583 8.5424 -1.6432 0.9650
-6.0122 11.0105 -2.3580 0.9502
-6.7795 10.5491 -2.3570 0.9502
-8.3724 10.3895 -2.5080 0.9471
-9.4284 9.4284 -2.5062 0.9472
-9.7566 9.0838 -2.5056 0.9472
-10.3748 8.3606 -2.5044 0.9472
-11.8975 5.9555 -2.5008 0.9473
-12.4569 4.6462 -2.4990 0.9473
-12.7505 3.7439 -2.4978 0.9474
-12.8730 3.2856 -2.4972 0.9474
-13.0685 2.3578 -2.4960 0.9474
-13.2367 0.9467 -2.4943 0.9474
11.8709 -0.0000 -2.5093 0.9526
11.7975 1.2684 -2.5081 0.9526
11.0421 1.9922 -2.3718 0.9552
10.5943 3.5261 -2.3602 0.9554
10.3186 4.2741 -2.3609 0.9554
9.9900 5.0006 -2.3615 0.9554
9.6100 5.7019 -2.3620 0.9553
9.1806 6.3742 -2.3625 0.9553
6.4814 5.6162 -1.8128 0.9655
5.5921 6.0063 -1.7347 0.9670
5.5337 6.8669 -1.8642 0.9646
5.3009 8.9342 -2.1959 0.9584
4.6455 10.1723 -2.3638 0.9553
3.1501 10.7284 -2.3635 0.9553
2.7651 10.8334 -2.3634 0.9553
2.3765 10.9245 -2.3632 0.9553
1.9849 11.0016 -2.3631 0.9553
0.7973 11.1480 -2.3625 0.9553
-0.3988 11.1658 -2.3617 0.9553
-0.7970 11.1431 -2.3615 0.9554
-1.1940 11.1062 -2.3612 0.9554
-1.5895 11.0551 -2.3608 0.9554
-1.8583 8.5426 -1.8480 0.9649
-3.1448 10.7101 -2.3595 0.9554
-3.5245 10.5893 -2.3591 0.9554
-3.8995 10.4551 -2.3587 0.9554
-4.6339 10.1467 -2.3579 0.9554
-4.9922 9.9731 -2.3575 0.9554
-5.3440 9.7868 -2.3570 0.9554
-6.4064 9.9686 -2.5048 0.9527
-7.1098 9.4975 -2.5078 0.9527
-7.4427 9.2359 -2.5073 0.9527
-7.7661 8.9625 -2.5068 0.9527
-8.0793 8.6778 -2.5063 0.9527
-8.3822 8.3822 -2.5057 0.9527
-8.6742 8.0760 -2.5052 0.9527
-9.2243 7.4334 -2.5041 0.9527
-9.7269 6.7535 -2.5031 0.9527
-10.3863 5.6713 -2.5014 0.9528
-10.5798 5.2959 -2.5009 0.9528
-10.7597 4.9138 -2.5003 0.9528
-11.5437 2.5112 -2.4972 0.9528
-11.6235 2.0971 -2.4966 0.9529
10.6735 -0.0000 -2.5085 0.9571
10.6498 0.7617 -2.5094 0.9571
10.5717 1.5200 -2.5101 0.9571
10.5013 1.8946 -2.5079 0.9571
9.8989 2.5265 -2.4010 0.9589
9.6398 2.8305 -2.3612 0.9596
9.4062 3.5083 -2.3594 0.9596
9.2761 3.8423 -2.3597 0.9596
8.4510 5.4311 -2.3610 0.9596
8.0433 6.0212 -2.3614 0.9596
7.8239 6.3049 -2.3615 0.9596
6.1796 5.7534 -1.9844 0.9659
5.8868 5.8868 -1.9566 0.9664
5.3099 6.1279 -1.9057 0.9672
5.0507 6.2675 -1.8918 0.9675
4.7830 6.3894 -1.8758 0.9677
4.5195 6.5094 -1.8624 0.9680
4.3527 6.7730 -1.8922 0.9675
4.9523 8.3467 -2.2810 0.9609
3.8465 9.2864 -2.3623 0.9595
3.1741 9.5365 -2.3622 0.9595
2.8315 9.6433 -2.3621 0.9595
2.4854 9.7378 -2.3620 0.9595
1.4300 9.9458 -2.3615 0.9596
0.0000 10.0447 -2.3607 0.9596
-1.0734 9.9840 -2.3600 0.9596
-1.4289 9.9381 -2.3597 0.9596
-1.5253 8.4541 -2.0190 0.9653
-3.1686 9.5202 -2.3581 0.9596
-3.5059 9.3996 -2.3578 0.9596
-3.8385 9.2671 -2.3574 0.9596
-4.1943 9.1842 -2.3729 0.9594
-4.7093 9.4079 -2.4726 0.9577
-5.1079 9.3544 -2.5049 0.9572
-5.4463 9.1793 -2.5085 0.9571
-6.6925 8.3049 -2.5067 0.9571
-6.9834 8.0593 -2.5063 0.9571
-7.8005 7.2625 -2.5049 0.9572
-8.0532 6.9781 -2.5044 0.9572
-8.5272 6.3834 -2.5034 0.9572
-9.1553 5.4321 -2.5019 0.9572
-9.3415 5.1009 -2.5015 0.9572
-9.8275 4.0707 -2.5000 0.9572
-10.2990 2.6287 -2.4981 0.9573
-10.5924 0.7576 -2.4958 0.9573
-10.6108 0.3790 -2.4954 0.9573
9.6813 0.3458 -2.5083 0.9608
9.6348 1.0359 -2.5090 0.9608
9.5931 1.3793 -2.5094 0.9607
9.5391 1.7210 -2.5097 0.9607
9.3861 2.3957 -2.5081 0.9608
9.2799 2.7248 -2.5042 0.9608
8.9353 2.9739 -2.4383 0.9618
8.5358 3.1837 -2.3588 0.9631
8.2877 3.7849 -2.3590 0.9631
8.1482 4.0787 -2.3593 0.9631
7.9982 4.3673 -2.3595 0.9630
7.8379 4.6504 -2.3597 0.9630
7.0985 5.7203 -2.3604 0.9630
6.1794 5.7532 -2.1860 0.9657
5.8866 5.8866 -2.1555 0.9662
5.3231 6.1432 -2.1046 0.9670
5.0505 6.2673 -2.0840 0.9673
4.3963 6.8407 -2.1054 0.9670
4.6535 7.8430 -2.3612 0.9630
4.0821 8.1550 -2.3612 0.9630
3.1868 8.5441 -2.3611 0.9630
2.8797 8.6521 -2.3610 0.9630
2.5690 8.7491 -2.3609 0.9630
2.2549 8.8348 -2.3608 0.9630
1.6188 8.9722 -2.3606 0.9630
1.2974 9.0237 -2.3604 0.9630
0.7984 7.4260 -1.9338 0.9696
0.6503 9.0920 -2.3601 0.9630
0.0000 9.1137 -2.3597 0.9630
-0.3253 9.1071 -2.3595 0.9630
-0.6500 9.0887 -2.3593 0.9631
-0.9739 9.0588 -2.3590 0.9631
-1.2965 9.0173 -2.3588 0.9631
-1.5253 8.4544 -2.2243 0.9651
-2.2522 8.8240 -2.3579 0.9631
-2.5654 8.7369 -2.3576 0.9631
-2.8752 8.6386 -2.3573 0.9631
-5.2358 8.1471 -2.5075 0.9608
-5.5224 7.9537 -2.5071 0.9608
-6.5938 7.0822 -2.5054 0.9608
-7.0798 6.5915 -2.5046 0.9608
-7.5293 6.0675 -2.5037 0.9608
-7.9402 5.5130 -2.5028 0.9608
-8.1305 5.2252 -2.5024 0.9609
-8.3103 4.9307 -2.5019 0.9609
-8.6378 4.3238 -2.5010 0.9609
-8.9211 3.6953 -2.5002 0.9609
-9.1588 3.0483 -2.4993 0.9609
-9.3497 2.3864 -2.4984 0.9609
-9.4274 2.0508 -2.4980 0.9609
8.7716 1.2612 -2.5087 0.9638
8.5897 2.1924 -2.5096 0.9638
8.5069 2.4979 -2.5099 0.9638
8.4087 2.7987 -2.5088 0.9638
8.2922 3.0928 -2.5054 0.9639
7.3125 3.9929 -2.3586 0.9660
7.1659 4.2517 -2.3588 0.9660
6.8454 4.7528 -2.3592 0.9659
6.4897 5.2298 -2.3595 0.9659
5.2424 6.0501 -2.2663 0.9673
4.9740 6.1723 -2.2441 0.9676
3.1904 7.7024 -2.3601 0.9659
2.9134 7.8112 -2.3601 0.9659
2.6327 7.9100 -2.3600 0.9659
2.3486 7.9986 -2.3599 0.9659
2.0615 8.0770 -2.3598 0.9659
1.7719 8.1451 -2.3597 0.9659
1.4799 8.2027 -2.3596 0.9659
1.1861 8.2498 -2.3595 0.9659
0.7964 7.4071 -2.1090 0.9695
0.5945 8.3123 -2.3592 0.9659
-0.5943 8.3097 -2.3584 0.9660
-0.8904 8.2824 -2.3582 0.9660
-1.1854 8.2445 -2.3580 0.9660
-1.4787 8.1961 -2.3577 0.9660
-2.0881 8.1813 -2.3903 0.9655
-2.4482 8.3377 -2.4600 0.9645
-2.7925 8.3900 -2.5033 0.9639
-3.0943 8.2960 -2.5066 0.9639
-3.6808 8.0599 -2.5084 0.9638
-5.0499 7.2732 -2.5066 0.9639
-5.5542 6.8924 -2.5059 0.9639
-6.2562 6.2563 -2.5047 0.9639
-6.6845 5.7922 -2.5039 0.9639
-7.0784 5.2989 -2.5031 0.9639
-7.4360 4.7788 -2.5023 0.9639
-7.6006 4.5096 -2.5019 0.9639
-7.9004 3.9546 -2.5011 0.9639
-8.1597 3.3799 -2.5003 0.9639
-8.3774 2.7883 -2.4995 0.9640
-8.4702 2.4871 -2.4991 0.9640
-8.6234 1.8759 -2.4983 0.9640
-8.7326 1.2556 -2.4976 0.9640
-8.7973 0.6292 -2.4968 0.9640
-8.8129 0.3147 -2.4964 0.9640
8.1505 0.0000 -2.5069 0.9665
8.1068 0.8716 -2.5079 0.9665
7.9039 2.0173 -2.5090 0.9664
7.8277 2.2984 -2.5093 0.9664
7.7414 2.5766 -2.5095 0.9664
7.6453 2.8515 -2.5098 0.9664
7.2804 3.6443 -2.5042 0.9665
6.7492 4.0045 -2.4138 0.9677
6.4620 4.1528 -2.3626 0.9684
6.1387 4.5954 -2.3586 0.9684
5.7958 5.0221 -2.3588 0.9684
5.4233 5.4233 -2.3590 0.9684
5.2264 5.6136 -2.3591 0.9684
4.8129 5.9725 -2.3593 0.9684
4.5968 6.1406 -2.3593 0.9684
4.3748 6.3009 -2.3593 0.9684
4.1471 6.4531 -2.3594 0.9684
3.9142 6.5970 -2.3594 0.9684
3.1865 6.9775 -2.3593 0.9684
2.6805 7.1868 -2.3592 0.9684
2.4222 7.2777 -2.3592 0.9684
1.3617 7.5471 -2.3588 0.9684
1.0900 7.5810 -2.3557 0.9685
0.7943 7.3880 -2.2855 0.9694
0.5470 7.6481 -2.3584 0.9684
0.2737 7.6623 -2.3582 0.9684
0.0000 7.6666 -2.3581 0.9684
-0.2736 7.6611 -2.3579 0.9684
-0.8193 7.6208 -2.3575 0.9684
-1.1093 7.7154 -2.3975 0.9679
-1.7294 7.9501 -2.5025 0.9665
-2.0143 7.8918 -2.5052 0.9665
-2.5758 7.7390 -2.5087 0.9664
-2.8500 7.6412 -2.5084 0.9664
-3.1206 7.5338 -2.5081 0.9664
-3.3871 7.4167 -2.5078 0.9665
-4.4059 6.8557 -2.5066 0.9665
-4.8824 6.5221 -2.5059 0.9665
-5.1114 6.3428 -2.5055 0.9665
-5.5493 5.9604 -2.5048 0.9665
-5.7577 5.7577 -2.5045 0.9665
-6.1519 5.3307 -2.5037 0.9665
-6.3374 5.1070 -2.5034 0.9665
-6.5146 4.8768 -2.5030 0.9665
-6.8439 4.3983 -2.5023 0.9665
-6.9955 4.1506 -2.5019 0.9665
-7.1381 3.8977 -2.5015 0.9665
-7.2716 3.6399 -2.5011 0.9665
-7.3958 3.3775 -2.5008 0.9665
-7.5105 3.1110 -2.5004 0.9666
-7.6156 2.8405 -2.5000 0.9666
-7.7110 2.5665 -2.4997 0.9666
-7.7966 2.2893 -2.4993 0.9666
-7.8722 2.0093 -2.4989 0.9666
-7.9378 1.7268 -2.4986 0.9666
-7.9932 1.4421 -2.4982 0.9666
-8.0735 0.8680 -2.4975 0.9666
-8.0982 0.5792 -2.4972 0.9666
-8.1126 0.2897 -2.4969 0.9666
7.5231 0.5381 -2.5071 0.9687
7.4999 0.8063 -2.5074 0.9687
7.4672 1.0736 -2.5077 0.9687
7.4249 1.3396 -2.5079 0.9687
7.3732 1.6039 -2.5082 0.9687
7.2414 2.1263 -2.5087 0.9687
7.1616 2.3836 -2.5089 0.9687
7.0726 2.6379 -2.5092 0.9687
6.9745 2.8889 -2.5094 0.9687
6.8675 3.1363 -2.5096 0.9687
6.7517 3.3797 -2.5098 0.9687
6.6244 3.6172 -2.5089 0.9687
6.4849 3.8477 -2.5065 0.9687
6.3378 4.0730 -2.5043 0.9687
5.3741 4.6567 -2.3637 0.9705
5.0167 5.0167 -2.3583 0.9705
4.4521 5.5247 -2.3585 0.9705
4.0468 5.8284 -2.3586 0.9705
3.8362 5.9692 -2.3586 0.9705
3.6207 6.1024 -2.3586 0.9705
3.1761 6.3451 -2.3586 0.9705
2.9476 6.4543 -2.3586 0.9705
2.7153 6.5553 -2.3586 0.9705
2.2406 6.7320 -2.3585 0.9705
1.9989 6.8075 -2.3584 0.9705
1.7546 6.8743 -2.3583 0.9705
1.2596 6.9814 -2.3581 0.9705
1.0096 7.0215 -2.3580 0.9705
0.7582 7.0527 -2.3579 0.9705
0.5060 7.0749 -2.3577 0.9705
0.2532 7.0880 -2.3576 0.9705
-0.2609 7.3061 -2.4301 0.9697
-1.0725 7.4595 -2.5051 0.9687
-1.3393 7.4232 -2.5073 0.9687
-1.6044 7.3753 -2.5089 0.9687
-1.8664 7.3127 -2.5087 0.9687
-2.3829 7.1594 -2.5082 0.9687
-3.1335 6.8615 -2.5074 0.9687
-3.8477 6.4849 -2.5065 0.9687
-4.2995 6.1924 -2.5059 0.9687
-4.5172 6.0342 -2.5056 0.9687
-4.9349 5.6952 -2.5049 0.9687
-5.1343 5.5147 -2.5046 0.9687
-5.5132 5.1330 -2.5039 0.9687
-5.8637 4.7253 -2.5033 0.9688
-6.3326 4.0697 -2.5022 0.9688
-6.7286 3.3681 -2.5012 0.9688
-6.9498 2.8787 -2.5005 0.9688
-7.0472 2.6285 -2.5002 0.9688
-7.1355 2.3749 -2.4998 0.9688
-7.2848 1.8593 -2.4991 0.9688
-7.3456 1.5979 -2.4988 0.9688
-7.4389 1.0696 -2.4982 0.9688
-7.4714 0.8033 -2.4979 0.9688
-7.4944 0.5360 -2.4975 0.9688
7.0045 0.2502 -2.5065 0.9707
6.9398 0.9978 -2.5073 0.9707
6.9005 1.2450 -2.5075 0.9707
6.7954 1.7344 -2.5080 0.9706
6.5728 2.4515 -2.5086 0.9706
6.4816 2.6848 -2.5088 0.9706
6.1588 3.3630 -2.5094 0.9706
6.0353 3.5809 -2.5096 0.9706
5.7632 4.0015 -2.5090 0.9706
5.6126 4.2015 -2.5072 0.9707
5.4552 4.3961 -2.5054 0.9707
5.2914 4.5850 -2.5038 0.9707
4.8706 4.8706 -2.4632 0.9712
3.7626 5.4190 -2.3592 0.9724
2.7391 5.9979 -2.3580 0.9724
2.5233 6.0917 -2.3579 0.9724
2.0822 6.2559 -2.3578 0.9724
1.6380 6.4178 -2.3686 0.9723
1.4181 6.5187 -2.3857 0.9721
1.1945 6.6206 -2.4058 0.9718
0.9667 6.7238 -2.4292 0.9716
0.7342 6.8287 -2.4560 0.9712
0.4960 6.9354 -2.4865 0.9709
0.0000 7.0033 -2.5044 0.9707
-0.7500 6.9760 -2.5090 0.9706
-0.9984 6.9442 -2.5088 0.9706
-1.2455 6.9036 -2.5086 0.9706
-1.4910 6.8542 -2.5084 0.9706
-1.9758 6.7291 -2.5080 0.9706
-3.5760 6.0271 -2.5062 0.9707
-3.7885 5.8950 -2.5059 0.9707
-3.9960 5.7553 -2.5056 0.9707
-4.1984 5.6084 -2.5053 0.9707
-4.3954 5.4543 -2.5050 0.9707
-4.5867 5.2933 -2.5047 0.9707
-4.7721 5.1256 -2.5044 0.9707
-4.9514 4.9514 -2.5041 0.9707
-5.1243 4.7709 -2.5038 0.9707
-5.2907 4.5844 -2.5035 0.9707
-5.4503 4.3921 -2.5031 0.9707
-5.6028 4.1942 -2.5028 0.9707
-5.8863 3.7829 -2.5022 0.9707
-6.0168 3.5699 -2.5019 0.9707
-6.1396 3.3525 -2.5015 0.9707
-6.2545 3.1308 -2.5012 0.9707
-6.4603 2.6759 -2.5006 0.9707
-6.5508 2.4433 -2.5003 0.9707
-6.6330 2.2077 -2.5000 0.9707
-6.7719 1.7284 -2.4993 0.9707
-6.8285 1.4854 -2.4990 0.9708
-6.9154 0.9943 -2.4984 0.9708
-6.9456 0.7467 -2.4981 0.9708
-6.9796 0.2493 -2.4975 0.9708
6.5237 0.4666 -2.5064 0.9724
6.3402 1.6182 -2.5076 0.9724
6.2096 2.0668 -2.5080 0.9724
6.1324 2.2873 -2.5082 0.9724
6.0473 2.5049 -2.5084 0.9724
5.7460 3.1376 -2.5089 0.9723
5.6308 3.3409 -2.5090 0.9723
5.5082 3.5399 -2.5092 0.9723
5.2422 3.9243 -2.5094 0.9723
5.0990 4.1091 -2.5096 0.9723
4.9493 4.2886 -2.5097 0.9723
4.6269 4.6269 -2.5076 0.9724
4.4568 4.7869 -2.5064 0.9724
4.2813 4.9409 -2.5054 0.9724
4.1007 5.0887 -2.5045 0.9724
3.5304 5.4935 -2.5024 0.9724
3.3197 5.5950 -2.4931 0.9725
2.9008 5.7950 -2.4835 0.9726
2.6918 5.8942 -2.4832 0.9726
2.2721 6.0916 -2.4915 0.9725
2.0603 6.1903 -2.5002 0.9724
1.6155 6.3294 -2.5033 0.9724
1.3889 6.3848 -2.5040 0.9724
1.1605 6.4325 -2.5048 0.9724
0.9306 6.4723 -2.5058 0.9724
0.6993 6.5042 -2.5069 0.9724
0.2337 6.5435 -2.5092 0.9723
-0.4670 6.5297 -2.5087 0.9723
-0.6997 6.5085 -2.5085 0.9723
-1.3911 6.3949 -2.5080 0.9724
-2.0662 6.2080 -2.5073 0.9724
-2.2863 6.1298 -2.5071 0.9724
-2.5034 6.0437 -2.5069 0.9724
-3.1341 5.7397 -2.5061 0.9724
-3.7286 5.3701 -2.5053 0.9724
-4.2798 4.9392 -2.5045 0.9724
-4.4529 4.7827 -2.5042 0.9724
-4.7816 4.4518 -2.5036 0.9724
-4.9369 4.2778 -2.5033 0.9724
-5.2282 3.9138 -2.5028 0.9724
-5.3640 3.7243 -2.5025 0.9724
-5.8366 2.9216 -2.5013 0.9724
-6.0287 2.4972 -2.5007 0.9724
-6.3198 1.6130 -2.4995 0.9724
-6.4538 0.9279 -2.4986 0.9725
-6.4821 0.6969 -2.4984 0.9725
-6.5021 0.4650 -2.4981 0.9725
-6.5139 0.2326 -2.4978 0.9725
6.1188 0.2185 -2.5059 0.9739
6.0620 0.8716 -2.5065 0.9739
5.8133 1.9349 -2.5076 0.9739
5.7410 2.1413 -2.5078 0.9739
5.4803 2.7433 -2.5083 0.9739
5.0353 3.4960 -2.5088 0.9739
4.9075 3.6737 -2.5089 0.9739
4.7734 3.8467 -2.5091 0.9739
4.6333 4.0148 -2.5092 0.9739
4.4872 4.1777 -2.5092 0.9738
4.3354 4.3354 -2.5093 0.9738
4.0152 4.6338 -2.5094 0.9738
3.6746 4.9087 -2.5095 0.9738
3.1273 5.2707 -2.5083 0.9739
2.7428 5.4795 -2.5079 0.9739
2.5455 5.5738 -2.5078 0.9739
1.3032 5.9908 -2.5092 0.9738
0.8725 6.0681 -2.5090 0.9739
0.6553 6.0951 -2.5089 0.9739
0.4373 6.1143 -2.5088 0.9739
0.2188 6.1257 -2.5087 0.9739
0.0000 6.1293 -2.5086 0.9739
-0.2188 6.1250 -2.5084 0.9739
-0.4372 6.1129 -2.5083 0.9739
-0.6551 6.0930 -2.5081 0.9739
-0.8721 6.0654 -2.5079 0.9739
-1.3023 5.9869 -2.5076 0.9739
-1.7259 5.8778 -2.5072 0.9739
-1.9344 5.8119 -2.5070 0.9739
-2.3437 5.6582 -2.5065 0.9739
-2.5439 5.5704 -2.5063 0.9739
-2.7409 5.4755 -2.5061 0.9739
-2.9343 5.3737 -2.5058 0.9739
-3.3095 5.1497 -2.5054 0.9739
-3.4909 5.0278 -2.5051 0.9739
-3.8398 4.7650 -2.5046 0.9739
-4.1691 4.4779 -2.5041 0.9739
-4.3258 4.3258 -2.5038 0.9739
-4.4770 4.1682 -2.5035 0.9739
-4.6224 4.0053 -2.5032 0.9739
-5.4651 2.7356 -2.5013 0.9739
-5.5586 2.5385 -2.5010 0.9739
-5.7243 2.1350 -2.5005 0.9739
-5.8607 1.7209 -2.4999 0.9739
-5.9177 1.5104 -2.4996 0.9739
-6.0091 1.0842 -2.4991 0.9740
-6.0434 0.8689 -2.4988 0.9740
5.7487 0.0000 -2.5054 0.9752
5.7456 0.2052 -2.5056 0.9752
5.7351 0.4102 -2.5058 0.9752
5.7173 0.6147 -2.5060 0.9752
5.6922 0.8184 -2.5063 0.9752
5.6598 1.0211 -2.5065 0.9752
5.5734 1.4225 -2.5069 0.9752
5.3157 2.2018 -2.5076 0.9752
4.9494 2.9366 -2.5081 0.9752
4.8417 3.1116 -2.5083 0.9752
4.3503 3.7696 -2.5087 0.9752
4.0706 4.0706 -2.5089 0.9752
3.7700 4.3508 -2.5090 0.9752
3.6124 4.4827 -2.5090 0.9752
3.4501 4.6088 -2.5091 0.9752
3.2835 4.7291 -2.5091 0.9752
2.5770 5.1483 -2.5091 0.9752
2.3916 5.2369 -2.5091 0.9752
2.2032 5.3189 -2.5091 0.9752
2.0119 5.3941 -2.5090 0.9752
1.8180 5.4623 -2.5090 0.9752
1.6219 5.5236 -2.5089 0.9752
1.4237 5.5778 -2.5089 0.9752
1.0221 5.6648 -2.5087 0.9752
0.8192 5.6975 -2.5086 0.9752
-0.2054 5.7511 -2.5080 0.9752
-0.4105 5.7397 -2.5079 0.9752
-0.6151 5.7211 -2.5077 0.9752
-0.8188 5.6951 -2.5076 0.9752
-1.8164 5.4573 -2.5067 0.9752
-2.0098 5.3885 -2.5065 0.9752
-2.2007 5.3129 -2.5062 0.9752
-2.3887 5.2306 -2.5060 0.9752
-2.5737 5.1415 -2.5058 0.9752
-2.7553 5.0459 -2.5056 0.9752
-2.9334 4.9439 -2.5054 0.9752
-3.1077 4.8356 -2.5051 0.9752
-3.2780 4.7212 -2.5049 0.9752
-3.4441 4.6007 -2.5047 0.9752
-3.6057 4.4745 -2.5044 0.9752
-3.7628 4.3425 -2.5042 0.9752
-4.0622 4.0622 -2.5037 0.9752
-4.3407 3.7613 -2.5031 0.9753
-4.9370 2.9292 -2.5018 0.9753
-5.2202 2.3840 -2.5011 0.9753
-5.3014 2.1959 -2.5008 0.9753
-5.4434 1.8117 -2.5003 0.9753
-5.6041 1.2191 -2.4995 0.9753
-5.6435 1.0182 -2.4993 0.9753
-5.7007 0.6129 -2.4988 0.9753
5.3992 0.3862 -2.5056 0.9764
5.3824 0.5787 -2.5058 0.9764
5.3587 0.7705 -2.5060 0.9764
5.1961 1.5257 -2.5067 0.9764
5.0747 1.8928 -2.5071 0.9764
5.0042 2.0728 -2.5072 0.9764
4.8441 2.4248 -2.5075 0.9764
4.7548 2.5963 -2.5076 0.9764
4.5579 2.9292 -2.5079 0.9764
4.3377 3.2471 -2.5081 0.9764
3.9661 3.6926 -2.5084 0.9764
3.4006 4.2198 -2.5086 0.9764
3.2478 4.3386 -2.5086 0.9764
2.5974 4.7567 -2.5087 0.9764
2.4259 4.8464 -2.5087 0.9764
2.2514 4.9299 -2.5087 0.9764
1.1519 5.2951 -2.5084 0.9764
0.9621 5.3327 -2.5083 0.9764
0.7711 5.3635 -2.5082 0.9764
0.5792 5.3874 -2.5081 0.9764
0.3865 5.4044 -2.5080 0.9764
0.1934 5.4145 -2.5079 0.9764
0.0000 5.4177 -2.5078 0.9764
-0.1934 5.4140 -2.5076 0.9764
-0.7708 5.3614 -2.5072 0.9764
-0.9617 5.3301 -2.5071 0.9764
-1.5256 5.1957 -2.5065 0.9764
-1.7100 5.1376 -2.5064 0.9764
-2.0718 5.0017 -2.5060 0.9764
-2.2488 4.9242 -2.5058 0.9764
-2.5939 4.7504 -2.5054 0.9764
-3.0861 4.4448 -2.5047 0.9764
-3.2424 4.3314 -2.5045 0.9764
-3.5425 4.0883 -2.5040 0.9764
-3.9581 3.6852 -2.5033 0.9764
-4.0867 3.5412 -2.5031 0.9764
-4.2101 3.3927 -2.5028 0.9764
-4.4406 3.0831 -2.5023 0.9765
-4.5473 2.9224 -2.5021 0.9765
-4.7433 2.5900 -2.5016 0.9765
-4.8322 2.4188 -2.5013 0.9765
-4.9150 2.2446 -2.5011 0.9765
-4.9915 2.0675 -2.5008 0.9765
-5.0616 1.8879 -2.5006 0.9765
-5.1252 1.7058 -2.5004 0.9765
-5.2767 1.1479 -2.4996 0.9765
-5.3442 0.7684 -2.4992 0.9765
-5.3677 0.5771 -2.4989 0.9765
5.1067 0.0000 -2.5050 0.9775
5.0945 0.3644 -2.5054 0.9775
5.0787 0.5460 -2.5056 0.9775
5.0563 0.7270 -2.5057 0.9775
5.0275 0.9071 -2.5059 0.9775
4.9028 1.4396 -2.5064 0.9775
4.7882 1.7859 -2.5068 0.9775
4.7217 1.9558 -2.5069 0.9775
4.6491 2.1232 -2.5070 0.9775
4.5706 2.2879 -2.5072 0.9775
4.3962 2.6084 -2.5074 0.9775
4.3005 2.7637 -2.5075 0.9775
4.0927 3.0637 -2.5077 0.9775
3.9809 3.2080 -2.5078 0.9775
3.8640 3.3481 -2.5079 0.9775
3.7421 3.4840 -2.5080 0.9775
3.2085 3.9814 -2.5082 0.9775
3.0644 4.0935 -2.5082 0.9775
2.9163 4.2003 -2.5083 0.9775
2.7646 4.3017 -2.5083 0.9775
2.4506 4.4880 -2.5083 0.9775
1.9568 4.7242 -2.5082 0.9775
1.6148 4.8516 -2.5082 0.9775
1.4405 4.9060 -2.5081 0.9775
1.2645 4.9542 -2.5081 0.9775
0.5465 5.0831 -2.5077 0.9775
0.0000 5.1117 -2.5074 0.9775
-0.3646 5.0982 -2.5072 0.9775
-0.5463 5.0817 -2.5070 0.9775
-1.0862 4.9933 -2.5066 0.9775
-1.2637 4.9510 -2.5064 0.9775
-1.7853 4.7866 -2.5059 0.9775
-1.9549 4.7195 -2.5057 0.9775
-2.2862 4.5673 -2.5054 0.9775
-2.4476 4.4824 -2.5052 0.9775
-3.0596 4.0871 -2.5043 0.9775
-3.2032 3.9750 -2.5041 0.9775
-3.4780 3.7357 -2.5037 0.9775
-3.6088 3.6088 -2.5034 0.9775
-3.8564 3.3416 -2.5030 0.9775
-4.3863 2.6025 -2.5018 0.9775
-4.4760 2.4441 -2.5016 0.9775
-4.7765 1.7816 -2.5007 0.9775
-4.8905 1.4360 -2.5002 0.9775
-4.9796 1.0833 -2.4998 0.9776
-5.0147 0.9047 -2.4995 0.9776
-5.0433 0.7251 -2.4993 0.9776
-5.0656 0.5446 -2.4991 0.9776
-5.0906 0.1818 -2.4987 0.9776
4.8282 0.0000 -2.5048 0.9785
4.8255 0.1723 -2.5050 0.9785
4.7805 0.6873 -2.5055 0.9785
4.7199 1.0268 -2.5059 0.9785
4.6352 1.3610 -2.5062 0.9785
4.5840 1.5257 -2.5063 0.9785
4.4640 1.8490 -2.5066 0.9785
4.3211 2.1630 -2.5069 0.9785
4.2414 2.3160 -2.5070 0.9785
4.0657 2.6129 -2.5072 0.9785
3.9700 2.7564 -2.5073 0.9785
3.8693 2.8965 -2.5074 0.9785
3.5378 3.2938 -2.5076 0.9785
3.0333 3.7641 -2.5079 0.9785
2.8970 3.8700 -2.5079 0.9785
2.6136 4.0669 -2.5079 0.9785
2.4668 4.1576 -2.5079 0.9785
2.3168 4.2430 -2.5079 0.9785
2.0082 4.3974 -2.5079 0.9785
1.8500 4.4662 -2.5079 0.9785
1.6894 4.5294 -2.5078 0.9785
0.8582 4.7568 -2.5076 0.9785
0.6879 4.7843 -2.5075 0.9785
0.3448 4.8208 -2.5073 0.9785
0.1725 4.8298 -2.5072 0.9785
0.0000 4.8327 -2.5071 0.9785
-0.1725 4.8294 -2.5070 0.9785
-0.8578 4.7547 -2.5065 0.9785
-1.0269 4.7208 -2.5063 0.9785
-1.5254 4.5831 -2.5059 0.9785
-1.6879 4.5254 -2.5057 0.9785
-2.0062 4.3929 -2.5053 0.9785
-2.3141 4.2380 -2.5050 0.9785
-2.4637 4.1523 -2.5048 0.9785
-2.6101 4.0614 -2.5046 0.9785
-2.7532 3.9654 -2.5044 0.9785
-3.4121 3.4121 -2.5034 0.9785
-3.6462 3.1595 -2.5029 0.9785
-3.9620 2.7509 -2.5023 0.9785
-4.0573 2.6075 -2.5020 0.9785
-4.2322 2.3110 -2.5016 0.9785
-4.3855 2.0028 -2.5012 0.9785
-4.4538 1.8448 -2.5009 0.9785
-4.5733 1.5221 -2.5005 0.9785
-4.6243 1.3578 -2.5003 0.9785
-4.7418 0.8555 -2.4996 0.9785
-4.7899 0.5150 -2.4992 0.9785
-4.8049 0.3437 -2.4990 0.9785
-4.8137 0.1719 -2.4988 0.9785
4.5730 0.0000 -2.5046 0.9794
4.5704 0.1632 -2.5048 0.9794
4.5019 0.8122 -2.5055 0.9794
4.4703 0.9725 -2.5056 0.9794
4.4330 1.1315 -2.5058 0.9794
4.3415 1.4450 -2.5061 0.9793
4.2874 1.5991 -2.5062 0.9793
4.1628 1.9011 -2.5065 0.9793
3.8506 2.4746 -2.5069 0.9793
3.7599 2.6106 -2.5070 0.9793
3.6645 2.7432 -2.5071 0.9793
3.4597 2.9978 -2.5073 0.9793
3.3505 3.1195 -2.5073 0.9793
3.1196 3.3507 -2.5074 0.9793
2.9981 3.4600 -2.5075 0.9793
2.8727 3.5648 -2.5075 0.9793
2.6111 3.7607 -2.5076 0.9793
2.4753 3.8516 -2.5076 0.9793
2.3362 3.9375 -2.5076 0.9793
2.0494 4.0941 -2.5076 0.9793
1.9019 4.1646 -2.5076 0.9793
1.7520 4.2298 -2.5076 0.9793
1.5999 4.2896 -2.5075 0.9793
1.4458 4.3439 -2.5075 0.9793
1.2898 4.3927 -2.5074 0.9793
0.8128 4.5050 -2.5073 0.9793
0.6515 4.5310 -2.5072 0.9793
0.3265 4.5657 -2.5070 0.9793
0.0000 4.5770 -2.5068 0.9793
-0.1634 4.5739 -2.5067 0.9793
-0.6513 4.5295 -2.5064 0.9793
-1.1315 4.4333 -2.5059 0.9793
-1.2890 4.3898 -2.5058 0.9794
-1.5986 4.2861 -2.5055 0.9794
-1.7505 4.2260 -2.5053 0.9794
-1.9001 4.1606 -2.5051 0.9794
-2.1917 4.0138 -2.5048 0.9794
-2.3334 3.9328 -2.5046 0.9794
-2.7398 3.6600 -2.5041 0.9794
-2.8685 3.5596 -2.5039 0.9794
-3.2318 3.2318 -2.5033 0.9794
-3.3448 3.1142 -2.5031 0.9794
-3.4536 2.9925 -2.5029 0.9794
-3.5579 2.8671 -2.5026 0.9794
-3.6576 2.7381 -2.5024 0.9794
-3.8430 2.4698 -2.5020 0.9794
-4.4601 0.9702 -2.5000 0.9794
-4.5514 0.3255 -2.4992 0.9794
4.3379 0.0000 -2.5045 0.9802
4.3274 0.3095 -2.5048 0.9802
4.3139 0.4638 -2.5050 0.9802
4.2704 0.7705 -2.5053 0.9802
4.2404 0.9224 -2.5054 0.9802
4.2050 1.0733 -2.5056 0.9802
4.1643 1.2227 -2.5057 0.9802
4.1182 1.3707 -2.5059 0.9802
4.0103 1.6611 -2.5061 0.9802
3.8820 1.9432 -2.5064 0.9801
3.7338 2.2153 -2.5066 0.9801
3.4759 2.6020 -2.5068 0.9801
3.2816 2.8435 -2.5070 0.9801
3.1781 2.9589 -2.5070 0.9801
2.9591 3.1783 -2.5071 0.9801
2.7249 3.3814 -2.5072 0.9801
2.3479 3.6534 -2.5073 0.9801
2.2160 3.7348 -2.5073 0.9801
2.0813 3.8116 -2.5073 0.9801
1.6619 4.0121 -2.5073 0.9801
1.0739 4.2075 -2.5071 0.9801
0.9230 4.2431 -2.5070 0.9801
0.4641 4.3171 -2.5068 0.9801
0.3097 4.3308 -2.5067 0.9801
0.1550 4.3389 -2.5067 0.9801
-0.1549 4.3386 -2.5065 0.9801
-0.4640 4.3161 -2.5062 0.9801
-0.6177 4.2965 -2.5061 0.9802
-0.7707 4.2715 -2.5060 0.9802
-0.9226 4.2411 -2.5059 0.9802
-1.5164 4.0657 -2.5053 0.9802
-1.6605 4.0087 -2.5051 0.9802
-1.8024 3.9467 -2.5050 0.9802
-1.9420 3.8796 -2.5048 0.9802
-2.4736 3.5627 -2.5041 0.9802
-2.7211 3.3767 -2.5038 0.9802
-2.8397 3.2772 -2.5036 0.9802
-2.9546 3.1735 -2.5034 0.9802
-3.0658 3.0658 -2.5032 0.9802
-3.5600 2.4718 -2.5022 0.9802
-3.8029 2.0766 -2.5016 0.9802
-4.0021 1.6577 -2.5010 0.9802
-4.0584 1.5137 -2.5008 0.9802
-4.1554 1.2202 -2.5004 0.9802
-4.1960 1.0710 -2.5002 0.9802
-4.2312 0.9205 -2.5000 0.9802
-4.2855 0.6162 -2.4997 0.9802
-4.3179 0.3088 -2.4993 0.9802
-4.3259 0.1545 -2.4991 0.9802
