ply
format ascii 1.0
element vertex 1253
property float32 x
property float32 y
property float32 z
property float32 I
end_header
-46.3971 -11.8421 8.4433 0.8233
-36.7883 -27.5394 8.1030 0.8297
-27.8736 -27.8736 6.9507 0.8521
-26.0160 -27.9432 6.7320 0.8564
-24.2696 -28.0087 6.5348 0.8603
-9.3616 -11.6171 2.6307 0.9412
-21.0572 -28.1292 6.1957 0.8670
-19.5650 -28.1790 6.0489 0.8699
-18.1438 -28.2323 5.9175 0.8726
-16.7813 -28.2833 5.7989 0.8750
-6.5194 -13.0241 2.5682 0.9426
-12.9815 -28.4255 5.5101 0.8808
-12.1548 -29.3443 5.6005 0.8790
-11.4273 -30.6378 5.7658 0.8756
-9.5344 -32.4713 5.9673 0.8716
-8.4017 -32.9176 5.9903 0.8711
30.0927 -34.7288 8.1027 0.8297
12.6658 -13.6040 3.2775 0.9273
32.3060 -30.0779 7.7831 0.8359
34.8038 -30.1576 8.1202 0.8294
-46.4425 -11.8537 7.3428 0.8237
-31.2161 -12.9301 5.1761 0.8722
-39.5165 -27.4368 7.3698 0.8231
-34.2901 -27.6327 6.7464 0.8368
-29.8581 -27.7989 6.2497 0.8478
-26.0158 -27.9430 5.8488 0.8568
-19.5649 -28.1788 5.2553 0.8704
-18.7685 -29.2043 5.3182 0.8689
-7.0055 -12.8297 2.2393 0.9426
-6.5056 -12.9966 2.2265 0.9429
-12.9814 -28.4254 4.7872 0.8812
-8.4610 -38.8945 6.0978 0.8512
29.9993 -37.2268 7.3242 0.8241
30.0924 -34.7285 7.0396 0.8303
12.6523 -13.5895 2.8444 0.9276
30.0561 -30.0561 6.5116 0.8420
32.3090 -30.0807 6.7627 0.8364
34.8069 -30.1603 7.0555 0.8300
37.5401 -30.2517 7.3859 0.8228
-46.4790 -11.8631 6.2466 0.8241
-31.2047 -12.9254 4.3983 0.8726
-36.7876 -27.5388 5.9841 0.8308
-31.9891 -27.7187 5.5119 0.8430
-27.8731 -27.8731 5.1331 0.8530
-27.2565 -29.2756 5.2088 0.8510
-9.3601 -11.6152 1.9425 0.9416
-24.6154 -32.8823 5.3488 0.8473
-19.5647 -28.1786 4.4672 0.8708
-21.2158 -33.0125 5.1101 0.8536
-12.1522 -29.3381 4.1352 0.8798
-13.3333 -35.7479 4.9684 0.8574
-13.3948 -40.2449 5.5234 0.8427
0.0000 -49.0335 6.3852 0.8205
1.7536 -49.0993 6.3978 0.8202
3.5164 -49.1655 6.4187 0.8197
5.2930 -49.2321 6.4480 0.8189
30.0922 -34.7282 5.9839 0.8308
12.6389 -13.5751 2.4153 0.9279
37.5398 -30.2514 6.2782 0.8233
-41.6893 -24.7355 5.2053 0.8228
-38.4347 -26.6857 5.0244 0.8284
-37.4778 -28.0556 5.0271 0.8283
-34.5937 -27.8773 4.7708 0.8363
-31.0931 -28.9487 4.5619 0.8429
-24.2691 -28.0080 3.9796 0.8615
-9.3594 -11.6143 1.6017 0.9418
-21.2237 -33.0247 4.2154 0.8539
-16.7809 -28.2827 3.5314 0.8761
-7.0157 -12.8484 1.5720 0.9428
-12.1509 -29.3350 3.4096 0.8801
-13.3332 -35.7477 4.0970 0.8577
-13.4070 -40.2814 4.5588 0.8430
-8.4010 -32.9147 3.6477 0.8723
-8.7177 -40.0749 4.4040 0.8479
-3.5314 -49.3751 5.3155 0.8194
1.7692 -49.5358 5.3226 0.8192
29.9988 -37.2262 5.1337 0.8250
12.6350 -13.5710 1.9911 0.9281
34.8131 -30.1657 4.9465 0.8308
37.5394 -30.2511 5.1770 0.8237
-39.5153 -27.4360 4.0723 0.8244
-31.9885 -27.7182 3.5831 0.8437
-31.0900 -28.9459 3.5959 0.8432
-27.8726 -27.8726 3.3368 0.8536
-7.0208 -12.8577 1.2401 0.9429
-12.9812 -28.4248 2.6453 0.8821
-12.1497 -29.3319 2.6876 0.8803
-9.5333 -32.4675 2.8645 0.8730
-8.4007 -32.9137 2.8756 0.8725
-8.7177 -40.0746 3.4718 0.8482
-8.8328 -48.9569 4.2112 0.8190
-3.5313 -49.3748 4.1904 0.8198
0.0000 -49.4691 4.1877 0.8199
1.7692 -49.5355 4.1960 0.8196
29.7323 -39.7177 4.1999 0.8194
29.9986 -37.2259 4.0471 0.8254
12.6377 -13.5738 1.5700 0.9283
34.8162 -30.1684 3.8998 0.8312
37.5390 -30.2508 4.0812 0.8240
-38.3817 -6.9248 2.4185 0.8553
-46.5257 -11.8750 2.9776 0.8249
-39.5149 -27.4357 2.9830 0.8247
-34.5873 -27.8723 2.7545 0.8369
-31.0870 -28.9431 2.6339 0.8435
-27.2479 -29.2663 2.4796 0.8519
-19.5643 -28.1779 2.1272 0.8716
-21.2115 -33.0058 2.4329 0.8545
-16.7807 -28.2823 2.0392 0.8765
-7.0259 -12.8669 0.9091 0.9429
-12.9811 -28.4246 1.9377 0.8823
-12.8615 -38.6426 2.5255 0.8494
-8.4005 -32.9128 2.1064 0.8727
-8.8284 -48.9328 3.0833 0.8193
-2.2982 -21.3761 1.3332 0.9174
-1.7489 -48.9670 3.0384 0.8217
0.0000 -49.0326 3.0405 0.8216
1.7536 -49.0984 3.0465 0.8213
5.2929 -49.2312 3.0704 0.8200
7.0881 -49.2986 3.0885 0.8191
29.7320 -39.7174 3.0765 0.8197
32.3208 -30.0918 2.7384 0.8378
-46.5411 -11.8789 1.8940 0.8251
-31.1596 -12.9067 1.3299 0.8737
-42.1121 -24.9863 1.9308 0.8220
-39.5145 -27.4354 1.8968 0.8248
-34.5842 -27.8697 1.7514 0.8371
-31.9880 -27.7177 1.6690 0.8441
-24.6403 -32.9156 1.6213 0.8482
-7.0309 -12.8762 0.5785 0.9430
-12.1471 -29.3257 1.2516 0.8807
-13.2419 -35.5028 1.4941 0.8593
-12.8614 -38.6424 1.6059 0.8496
-9.5328 -32.4656 1.3342 0.8733
-8.4002 -32.9118 1.3393 0.8729
-8.7176 -40.0741 1.6171 0.8486
-8.8241 -48.9089 1.9597 0.8196
5.2929 -49.2309 1.9524 0.8202
29.7318 -39.7171 1.9563 0.8199
29.9981 -37.2253 1.8851 0.8258
30.0912 -34.7270 1.8119 0.8320
12.6429 -13.5795 0.7316 0.9284
30.0703 -30.0703 1.6768 0.8435
32.3238 -30.0945 1.7414 0.8380
34.8223 -30.1737 1.8168 0.8316
22.0989 -13.1119 1.0132 0.9022
-46.5565 -11.8828 0.8116 0.8251
-31.1484 -12.9021 0.5695 0.8738
-34.5811 -27.8672 0.7502 0.8372
-31.9876 -27.7175 0.7150 0.8442
-31.0810 -28.9374 0.7173 0.8438
-27.8719 -27.8719 0.6658 0.8541
-27.2422 -29.2602 0.6753 0.8522
-24.2683 -28.0071 0.6260 0.8622
-24.6120 -32.8777 0.6937 0.8485
-19.5640 -28.1775 0.5794 0.8718
-20.9226 -32.5562 0.6537 0.8566
-7.0360 -12.8855 0.2480 0.9430
-12.1458 -29.3227 0.5361 0.8808
-12.4986 -33.5101 0.6041 0.8667
-12.8613 -38.6421 0.6879 0.8497
-8.7175 -40.0738 0.6928 0.8487
5.2928 -49.2306 0.8364 0.8203
12.6455 -13.5823 0.3135 0.9284
28.7488 -28.7488 0.6868 0.8499
32.3267 -30.0972 0.7461 0.8380
34.8254 -30.1764 0.7784 0.8316
37.5378 -30.2499 0.8143 0.8246
22.1130 -13.1202 0.4343 0.9022
-39.5137 -27.4348 -0.2708 0.8250
-34.5779 -27.8647 -0.2500 0.8372
-24.2681 -28.0069 -0.2086 0.8622
-24.6399 -32.9151 -0.2315 0.8483
-19.5639 -28.1773 -0.1932 0.8718
-20.9592 -32.6131 -0.2183 0.8564
-16.7803 -28.2817 -0.1852 0.8767
-8.3998 -32.9099 -0.1912 0.8730
-8.7175 -40.0736 -0.2309 0.8487
-8.8155 -48.8612 -0.2795 0.8199
5.2928 -49.2303 -0.2788 0.8203
29.7313 -39.7165 -0.2793 0.8200
29.9976 -37.2247 -0.2692 0.8259
12.6482 -13.5851 -0.1045 0.9284
32.3296 -30.1000 -0.2487 0.8380
24.1075 -15.4930 -0.1613 0.8917
-46.5874 -11.8907 -1.3539 0.8250
-39.5132 -27.4345 -1.3545 0.8249
-31.0749 -28.9318 -1.1955 0.8437
-27.8714 -27.8714 -1.1099 0.8541
-24.2679 -28.0067 -1.0435 0.8622
-19.5637 -28.1771 -0.9659 0.8717
-16.5287 -27.8577 -0.9121 0.8784
-6.4875 -12.9604 -0.4081 0.9437
-12.9807 -28.4239 -0.8799 0.8825
-8.8804 -30.2440 -0.8876 0.8815
5.2928 -49.2300 -1.3942 0.8203
29.9973 -37.2244 -1.3461 0.8259
30.0904 -34.7262 -1.2938 0.8320
32.3326 -30.1027 -1.2440 0.8380
34.8315 -30.1817 -1.2978 0.8316
24.1085 -15.4936 -0.8070 0.8917
22.8357 -13.5490 -0.7477 0.8992
-48.1489 -10.4742 -2.4989 0.8209
-45.6745 -11.6577 -2.3906 0.8280
-31.1150 -12.8882 -1.7080 0.8738
-44.2958 -22.1729 -2.5122 0.8200
-42.7290 -25.3523 -2.5197 0.8196
-41.8519 -26.8966 -2.5230 0.8193
-39.5129 -27.4343 -2.4395 0.8248
-34.5716 -27.8596 -2.2517 0.8371
-31.9868 -27.7167 -2.1465 0.8441
-31.0719 -28.9290 -2.1530 0.8436
-27.2336 -29.2509 -2.0268 0.8521
-9.3511 -11.6040 -0.7558 0.9421
-24.6396 -32.9146 -2.0851 0.8482
-19.5636 -28.1769 -1.7396 0.8716
-20.9560 -32.6082 -1.9658 0.8562
-16.3396 -27.5389 -1.6239 0.8796
-7.0512 -12.9133 -0.7462 0.9428
-6.4882 -12.9618 -0.7351 0.9436
-12.9807 -28.4237 -1.5847 0.8824
-8.7174 -40.0731 -2.0798 0.8485
-3.4988 -48.9194 -2.4872 0.8217
-1.7465 -48.9012 -2.4816 0.8220
1.7381 -48.6645 -2.4696 0.8228
5.2752 -36.6899 -1.8798 0.8620
5.7524 -31.8834 -1.6430 0.8783
9.2266 -27.7215 -1.4817 0.8896
10.1895 -27.3190 -1.4787 0.8898
14.3132 -28.5940 -1.6217 0.8798
17.4162 -31.8953 -1.8430 0.8645
26.4250 -38.0593 -2.3498 0.8306
27.6695 -36.9622 -2.3415 0.8312
28.7404 -28.7404 -2.0613 0.8498
34.1612 -29.6008 -2.2924 0.8344
35.9317 -26.8981 -2.2763 0.8355
24.0350 -15.4464 -1.4489 0.8919
33.1287 -18.0896 -1.9142 0.8597
32.2486 -14.7274 -1.7979 0.8676
41.1483 -15.3475 -2.2272 0.8387
41.6376 -13.8583 -2.2255 0.8388
42.7007 -12.5381 -2.2570 0.8367
45.2125 -11.5398 -2.3664 0.8295
45.8717 -8.2761 -2.3639 0.8297
46.1180 -6.6308 -2.3629 0.8298
-35.6131 0.0000 -2.6112 0.8669
-35.5922 -1.2712 -2.6114 0.8669
-35.4088 -3.8069 -2.6112 0.8669
-35.0371 -6.3214 -2.6105 0.8669
-31.6877 -10.5467 -2.4487 0.8746
-29.2361 -10.9045 -2.2879 0.8824
-30.3340 -13.8531 -2.4451 0.8748
-29.8025 -14.9181 -2.4437 0.8749
-29.2323 -15.9621 -2.4421 0.8750
-28.6473 -16.9972 -2.4424 0.8749
-16.9385 -11.7606 -1.5120 0.9206
-15.7246 -11.7713 -1.4402 0.9242
-25.2614 -21.8892 -2.4508 0.8745
-23.6531 -23.6532 -2.4527 0.8744
-22.7992 -24.4881 -2.4532 0.8744
-9.3498 -11.6024 -1.0926 0.9420
-7.9779 -11.4903 -1.0257 0.9454
-16.3702 -27.5905 -2.3523 0.8793
-6.4889 -12.9631 -1.0629 0.9435
-12.1408 -29.3105 -2.3262 0.8805
-8.2204 -32.2073 -2.4372 0.8752
-5.8879 -32.6344 -2.4315 0.8755
-4.7132 -32.7812 -2.4283 0.8756
-3.5353 -32.8835 -2.4250 0.8758
-2.3560 -32.9412 -2.4215 0.8759
-1.1769 -32.9539 -2.4178 0.8761
2.3407 -32.7273 -2.4058 0.8767
3.5011 -32.5646 -2.4015 0.8769
9.1361 -27.4496 -2.1212 0.8904
10.3748 -25.0471 -1.9878 0.8970
14.3112 -28.5902 -2.3443 0.8796
15.8519 -26.7169 -2.2778 0.8829
12.9683 -17.3237 -1.5867 0.9169
13.7260 -17.0329 -1.6039 0.9160
18.7547 -21.6440 -2.0999 0.8915
19.2533 -17.9255 -1.9288 0.8999
23.6112 -20.4592 -2.2907 0.8822
24.2670 -19.5556 -2.2851 0.8825
24.0655 -15.4659 -2.0975 0.8916
22.8306 -13.5460 -1.9465 0.8990
27.1700 -14.8359 -2.2698 0.8832
27.6620 -13.8466 -2.2681 0.8833
30.8013 -11.4883 -2.4104 0.8765
31.1746 -10.3759 -2.4091 0.8765
31.5094 -9.2520 -2.4079 0.8766
32.0619 -6.9747 -2.4058 0.8767
32.2791 -5.8238 -2.4050 0.8767
32.4566 -4.6666 -2.4043 0.8768
32.6920 -2.3382 -2.4032 0.8768
-26.9227 -0.0000 -2.5847 0.8975
-26.9066 -0.9610 -2.5848 0.8975
-26.8551 -1.9207 -2.5848 0.8975
-26.7683 -2.8779 -2.5847 0.8975
-26.6462 -3.8312 -2.5845 0.8975
-26.2972 -5.7206 -2.5837 0.8975
-26.0708 -6.6542 -2.5832 0.8975
-25.8102 -7.5786 -2.5825 0.8975
-25.5158 -8.4925 -2.5818 0.8976
-25.1881 -9.3947 -2.5809 0.8976
-24.7762 -10.2626 -2.5746 0.8978
-22.9643 -10.4874 -2.4237 0.9035
-22.5497 -11.2876 -2.4210 0.9036
-22.1217 -12.0794 -2.4198 0.9037
-15.6714 -11.7315 -1.8794 0.9244
-18.9784 -16.4449 -2.4109 0.9040
-17.7579 -17.7579 -2.4110 0.9040
-16.4504 -18.9848 -2.4117 0.9040
-8.5844 -11.4675 -1.3752 0.9441
-10.4176 -22.8114 -2.4076 0.9041
-9.5917 -23.1565 -2.4063 0.9042
-5.5011 -16.5282 -1.6724 0.9324
-4.9747 -16.9424 -1.6952 0.9315
-5.3085 -24.4029 -2.3976 0.9045
-4.4301 -24.5545 -2.3954 0.9046
-3.5474 -24.6731 -2.3931 0.9047
-2.6618 -24.7584 -2.3906 0.9048
-0.8868 -24.8297 -2.3853 0.9050
2.6424 -24.5776 -2.3732 0.9054
4.3766 -24.2576 -2.3664 0.9057
2.6713 -12.2796 -1.2065 0.9508
6.9129 -23.5433 -2.3557 0.9061
7.0102 -16.9242 -1.7587 0.9290
10.1264 -22.1738 -2.3403 0.9067
11.6421 -21.3210 -2.3322 0.9070
11.8400 -14.6926 -1.8116 0.9270
12.6587 -13.5964 -1.7835 0.9281
19.6161 -13.6197 -2.2927 0.9085
20.5112 -12.1698 -2.2897 0.9086
21.4778 -11.7278 -2.3494 0.9063
23.0605 -10.5314 -2.4339 0.9031
24.0211 -7.9950 -2.4305 0.9033
24.2819 -7.1298 -2.4296 0.9033
24.7124 -5.3759 -2.4280 0.9034
24.8818 -4.4892 -2.4273 0.9034
25.1280 -2.7015 -2.4263 0.9034
25.2045 -1.8027 -2.4259 0.9034
25.2499 -0.9018 -2.4257 0.9035
-21.6232 -0.0000 -2.5685 0.9166
-21.6102 -0.7718 -2.5686 0.9166
-21.4993 -2.3114 -2.5685 0.9166
-21.1225 -4.5949 -2.5677 0.9166
-20.9415 -5.3450 -2.5673 0.9166
-20.4979 -6.8224 -2.5662 0.9167
-20.2360 -7.5476 -2.5655 0.9167
-19.9477 -8.2626 -2.5647 0.9167
-19.6336 -8.9664 -2.5639 0.9167
-19.2941 -9.6579 -2.5630 0.9168
-18.9033 -10.3220 -2.5584 0.9169
-15.7345 -12.6797 -2.4004 0.9218
-14.7728 -13.7540 -2.3976 0.9219
-13.1926 -15.2251 -2.3930 0.9221
-10.2471 -17.2706 -2.3854 0.9223
-7.0666 -12.9415 -1.7515 0.9423
-6.4902 -12.9658 -1.7223 0.9433
-7.6746 -18.5281 -2.3822 0.9224
-7.0051 -18.7813 -2.3811 0.9224
-5.6411 -19.2119 -2.3785 0.9225
-3.5479 -19.6648 -2.3736 0.9227
-2.8416 -19.7635 -2.3718 0.9227
-0.7108 -19.9020 -2.3656 0.9229
-0.0000 -19.8956 -2.3633 0.9230
1.2097 -16.9131 -2.0142 0.9340
2.1201 -19.7199 -2.3559 0.9232
2.8195 -19.6097 -2.3533 0.9233
3.5135 -19.4741 -2.3506 0.9234
2.6716 -12.2813 -1.4930 0.9506
7.5156 -18.1444 -2.3329 0.9239
8.1474 -17.8404 -2.3297 0.9240
8.7669 -17.5140 -2.3265 0.9241
9.3782 -17.1749 -2.3245 0.9242
9.9772 -16.8156 -2.3226 0.9243
10.5626 -16.4357 -2.3207 0.9243
10.4886 -12.1045 -1.9025 0.9375
11.8986 -12.7800 -2.0742 0.9321
12.6979 -12.6979 -2.1331 0.9302
15.5329 -11.6278 -2.3048 0.9248
17.3552 -11.1535 -2.4506 0.9203
17.7388 -10.5249 -2.4501 0.9203
18.0944 -9.8803 -2.4489 0.9203
19.5221 -6.4976 -2.4440 0.9205
20.0878 -4.3698 -2.4420 0.9205
20.3400 -2.9245 -2.4410 0.9206
20.4282 -2.1963 -2.4406 0.9206
20.4910 -1.4655 -2.4403 0.9206
-18.0510 0.0000 -2.5576 0.9297
-18.0400 -0.6443 -2.5577 0.9297
-18.0055 -1.2878 -2.5577 0.9297
-17.9475 -1.9296 -2.5576 0.9297
-17.8662 -2.5688 -2.5575 0.9297
-17.7616 -3.2046 -2.5573 0.9297
-17.4833 -4.4624 -2.5566 0.9297
-17.3100 -5.0827 -2.5562 0.9297
-16.8962 -6.3020 -2.5551 0.9297
-16.3950 -7.4873 -2.5538 0.9298
-15.4855 -9.1880 -2.5513 0.9298
-14.7760 -10.2591 -2.5488 0.9299
-14.2848 -10.6935 -2.5283 0.9304
-13.3252 -10.7381 -2.4248 0.9332
-11.9205 -11.9206 -2.3886 0.9342
-11.4813 -12.3318 -2.3874 0.9342
-9.2638 -11.4957 -2.0919 0.9421
-7.9777 -11.4901 -1.9820 0.9451
-7.7793 -12.1049 -2.0388 0.9435
-7.2026 -12.1393 -2.0000 0.9446
-6.6372 -12.1551 -1.9623 0.9456
-6.1092 -12.2046 -1.9338 0.9464
-5.8471 -15.6767 -2.3707 0.9346
-5.2800 -15.8640 -2.3690 0.9347
-4.7070 -16.0307 -2.3673 0.9347
-4.1288 -16.1766 -2.3655 0.9348
-3.5462 -16.3015 -2.3638 0.9348
-2.9599 -16.4054 -2.3620 0.9349
-2.3706 -16.4881 -2.3602 0.9349
-1.7793 -16.5496 -2.3584 0.9350
-0.5932 -16.6089 -2.3548 0.9351
1.1829 -16.5389 -2.3494 0.9352
2.9373 -16.2803 -2.3440 0.9354
2.6719 -12.2822 -1.7810 0.9505
4.0850 -16.0050 -2.3404 0.9354
4.6502 -15.8371 -2.3387 0.9355
5.2086 -15.6495 -2.3369 0.9355
6.8367 -14.9704 -2.3319 0.9357
7.3615 -14.7065 -2.3302 0.9357
8.8733 -13.8071 -2.3255 0.9358
9.3543 -13.4727 -2.3240 0.9359
9.8229 -13.1219 -2.3225 0.9359
10.2786 -12.7550 -2.3210 0.9360
10.4537 -12.0642 -2.2618 0.9375
11.1490 -11.9748 -2.3182 0.9360
11.5626 -11.5626 -2.3169 0.9361
12.2461 -11.4015 -2.3707 0.9346
13.1086 -11.3587 -2.4576 0.9323
13.5351 -10.9073 -2.4630 0.9322
13.9089 -10.4121 -2.4618 0.9322
15.5033 -7.7604 -2.4565 0.9324
16.0062 -6.6300 -2.4548 0.9324
16.2276 -6.0526 -2.4540 0.9324
16.6089 -4.8768 -2.4527 0.9325
16.7684 -4.2799 -2.4521 0.9325
17.0242 -3.0715 -2.4511 0.9325
17.1949 -1.8487 -2.4504 0.9325
17.2798 -0.6172 -2.4499 0.9325
-15.4777 0.0000 -2.5498 0.9392
-15.4682 -0.5524 -2.5498 0.9392
-15.4386 -1.1042 -2.5498 0.9392
-15.2299 -2.7478 -2.5495 0.9392
-15.1206 -3.2893 -2.5492 0.9392
-14.8435 -4.3585 -2.5485 0.9392
-14.4896 -5.4043 -2.5476 0.9392
-14.2844 -5.9168 -2.5471 0.9392
-13.8190 -6.9173 -2.5458 0.9393
-13.5596 -7.4041 -2.5451 0.9393
-13.2826 -7.8810 -2.5443 0.9393
-12.6781 -8.8026 -2.5426 0.9393
-12.0088 -9.6773 -2.5407 0.9394
-11.6511 -10.0957 -2.5397 0.9394
-10.7890 -10.7890 -2.5136 0.9400
-10.0759 -10.8223 -2.4359 0.9418
-7.7124 -12.0007 -2.3500 0.9438
-7.1406 -12.0348 -2.3053 0.9448
-6.5895 -12.0677 -2.2651 0.9458
-5.5758 -12.2093 -2.2112 0.9470
-5.0229 -13.4669 -2.3678 0.9434
-4.5362 -13.6292 -2.3664 0.9434
-4.0444 -13.7738 -2.3649 0.9435
-3.5479 -13.9006 -2.3634 0.9435
-3.0476 -14.0095 -2.3619 0.9435
-2.0377 -14.1728 -2.3588 0.9436
-1.5296 -14.2272 -2.3573 0.9436
-0.5101 -14.2813 -2.3542 0.9437
2.6721 -12.2833 -2.0709 0.9503
4.0023 -13.6307 -2.3403 0.9440
4.4834 -13.4706 -2.3388 0.9441
5.4262 -13.0999 -2.3359 0.9441
5.8866 -12.8900 -2.3344 0.9442
6.7830 -12.4222 -2.3316 0.9442
7.6431 -11.8928 -2.3289 0.9443
8.0581 -11.6059 -2.3276 0.9443
9.8059 -11.3166 -2.4668 0.9411
10.6099 -10.6100 -2.4719 0.9410
10.9766 -10.2196 -2.4707 0.9410
11.3292 -9.8168 -2.4695 0.9410
11.9902 -8.9758 -2.4674 0.9411
12.2979 -8.5386 -2.4664 0.9411
12.5899 -8.0910 -2.4654 0.9411
13.1255 -7.1671 -2.4636 0.9412
13.9950 -5.2199 -2.4607 0.9412
14.1689 -4.7159 -2.4601 0.9413
14.4630 -3.6915 -2.4590 0.9413
14.5829 -3.1723 -2.4586 0.9413
14.6845 -2.6494 -2.4582 0.9413
14.7677 -2.1233 -2.4578 0.9413
-13.5340 -0.0000 -2.5439 0.9464
-13.5256 -0.4831 -2.5439 0.9464
-13.3175 -2.4027 -2.5436 0.9464
-13.1096 -3.3460 -2.5431 0.9464
-12.8340 -4.2716 -2.5424 0.9464
-12.6713 -4.7261 -2.5420 0.9464
-12.2970 -5.6158 -2.5410 0.9465
-10.5054 -8.4658 -2.5360 0.9466
-8.8183 -10.1769 -2.5311 0.9467
-8.0445 -10.7462 -2.5231 0.9468
-7.5536 -10.8793 -2.4894 0.9475
-7.0074 -10.9037 -2.4362 0.9486
-5.2339 -11.4606 -2.3681 0.9500
-4.8190 -11.6340 -2.3669 0.9500
-3.9725 -11.9354 -2.3644 0.9501
-3.5420 -12.0629 -2.3631 0.9501
-2.6694 -12.2712 -2.3605 0.9502
-2.2285 -12.3517 -2.3591 0.9502
-1.3401 -12.4650 -2.3564 0.9503
-0.8939 -12.4977 -2.3551 0.9503
0.0000 -12.5151 -2.3523 0.9503
0.4464 -12.4999 -2.3510 0.9504
0.8918 -12.4687 -2.3496 0.9504
1.3355 -12.4217 -2.3483 0.9504
3.5097 -11.9530 -2.3415 0.9506
5.6300 -11.2472 -2.3641 0.9501
6.6764 -11.2524 -2.4593 0.9481
7.5277 -10.8420 -2.4809 0.9477
7.9074 -10.5630 -2.4801 0.9477
8.2754 -10.2692 -2.4789 0.9477
8.6327 -9.9627 -2.4778 0.9478
8.9788 -9.6439 -2.4767 0.9478
10.5271 -7.8805 -2.4717 0.9479
11.0547 -7.1045 -2.4700 0.9479
11.5261 -6.2937 -2.4684 0.9480
11.7400 -5.8766 -2.4677 0.9480
12.1229 -5.0215 -2.4664 0.9480
12.4445 -4.1419 -2.4652 0.9480
12.5819 -3.6944 -2.4648 0.9480
12.8091 -2.7865 -2.4639 0.9480
12.8986 -2.3272 -2.4636 0.9481
13.0288 -1.4007 -2.4630 0.9481
13.0695 -0.9347 -2.4628 0.9481
13.0937 -0.4677 -2.4627 0.9481
-12.0051 -0.4288 -2.5393 0.9521
-11.9821 -0.8570 -2.5393 0.9521
-11.6363 -2.9700 -2.5385 0.9521
-11.5216 -3.3831 -2.5383 0.9521
-11.3920 -3.7916 -2.5379 0.9521
-11.2478 -4.1952 -2.5375 0.9521
-11.0890 -4.5932 -2.5371 0.9521
-10.7290 -5.3705 -2.5361 0.9521
-9.5929 -7.1811 -2.5330 0.9522
-9.3277 -7.5167 -2.5322 0.9522
-8.7621 -8.1578 -2.5306 0.9522
-8.4624 -8.4624 -2.5297 0.9522
-8.1521 -8.7560 -2.5288 0.9523
-7.1612 -9.5662 -2.5259 0.9523
-6.8124 -9.8118 -2.5249 0.9523
-4.5382 -10.9561 -2.5067 0.9527
-4.0930 -10.9737 -2.4757 0.9532
-3.2317 -11.0060 -2.4247 0.9542
-2.8129 -11.0209 -2.4043 0.9546
-2.4005 -11.0350 -2.3871 0.9549
-1.5906 -11.0628 -2.3625 0.9553
-1.1913 -11.0808 -2.3558 0.9555
-0.0000 -11.1275 -2.3521 0.9555
0.7957 -11.1253 -2.3577 0.9554
1.1971 -11.1342 -2.3671 0.9552
1.6021 -11.1427 -2.3796 0.9550
2.4273 -11.1582 -2.4138 0.9544
2.8498 -11.1653 -2.4358 0.9540
3.2804 -11.1720 -2.4612 0.9535
4.8922 -10.7123 -2.4893 0.9530
6.3551 -9.8888 -2.4847 0.9531
6.7011 -9.6514 -2.4836 0.9531
7.6847 -8.8686 -2.4805 0.9532
7.9932 -8.5853 -2.4795 0.9532
8.5788 -7.9871 -2.4776 0.9532
9.1202 -7.3495 -2.4759 0.9532
9.6150 -6.6758 -2.4743 0.9533
10.0608 -5.9693 -2.4728 0.9533
10.7970 -4.4723 -2.4703 0.9533
10.9475 -4.0832 -2.4698 0.9534
11.0841 -3.6892 -2.4693 0.9534
11.3152 -2.8880 -2.4685 0.9534
11.4893 -2.0729 -2.4678 0.9534
11.6057 -1.2477 -2.4673 0.9534
11.6420 -0.8327 -2.4672 0.9534
11.6636 -0.4166 -2.4670 0.9534
-10.7882 -0.0000 -2.5355 0.9566
-10.6780 -1.5353 -2.5354 0.9566
-10.5400 -2.2929 -2.5351 0.9566
-10.4506 -2.6674 -2.5349 0.9566
-10.3477 -3.0384 -2.5346 0.9567
-10.2315 -3.4054 -2.5343 0.9567
-10.1020 -3.7679 -2.5340 0.9567
-9.9596 -4.1254 -2.5336 0.9567
-9.4565 -5.1636 -2.5322 0.9567
-9.2642 -5.4967 -2.5317 0.9567
-6.7398 -8.3636 -2.5245 0.9568
-6.4347 -8.5958 -2.5236 0.9568
-6.1216 -8.8168 -2.5226 0.9569
-5.4729 -9.2240 -2.5207 0.9569
-4.7971 -9.5833 -2.5187 0.9569
-4.0978 -9.8929 -2.5166 0.9570
-3.0129 -10.2610 -2.5134 0.9570
-0.7607 -10.6360 -2.5061 0.9571
0.0000 -10.6535 -2.5038 0.9572
0.3801 -10.6433 -2.5030 0.9572
1.5136 -10.5273 -2.4996 0.9572
1.8875 -10.4618 -2.4985 0.9573
2.2587 -10.3830 -2.4973 0.9573
2.6266 -10.2911 -2.4962 0.9573
2.9909 -10.1862 -2.4950 0.9573
3.3511 -10.0684 -2.4939 0.9573
3.7067 -9.9380 -2.4928 0.9574
4.0572 -9.7951 -2.4917 0.9574
4.7416 -9.4725 -2.4896 0.9574
5.4008 -9.1025 -2.4875 0.9574
5.7199 -8.9004 -2.4865 0.9575
6.9178 -7.9835 -2.4827 0.9575
7.1957 -7.7288 -2.4818 0.9575
7.4644 -7.4644 -2.4810 0.9576
8.4400 -6.3181 -2.4778 0.9576
8.6576 -6.0111 -2.4771 0.9576
8.8642 -5.6967 -2.4764 0.9576
9.2433 -5.0472 -2.4752 0.9576
9.4154 -4.7130 -2.4746 0.9577
9.7235 -4.0276 -2.4735 0.9577
9.9824 -3.3225 -2.4726 0.9577
10.2759 -2.2354 -2.4716 0.9577
10.3480 -1.8670 -2.4713 0.9577
10.4070 -1.4963 -2.4710 0.9577
10.4529 -1.1238 -2.4708 0.9577
10.4857 -0.7499 -2.4707 0.9577
10.5053 -0.3752 -2.4706 0.9577
-9.7807 -0.0000 -2.5324 0.9604
-9.7746 -0.3491 -2.5324 0.9604
-9.6245 -1.7365 -2.5322 0.9604
-9.4748 -2.4183 -2.5319 0.9604
-9.2764 -3.0875 -2.5314 0.9604
-9.1591 -3.4162 -2.5310 0.9604
-8.7376 -4.3737 -2.5299 0.9604
-8.5744 -4.6820 -2.5295 0.9604
-8.2153 -5.2796 -2.5285 0.9605
-8.0198 -5.5683 -2.5279 0.9605
-7.5986 -6.1233 -2.5267 0.9605
-7.3733 -6.3890 -2.5261 0.9605
-5.8364 -7.7965 -2.5216 0.9606
-5.2618 -8.1875 -2.5199 0.9606
-4.9645 -8.3672 -2.5190 0.9606
-4.3518 -8.6937 -2.5172 0.9606
-4.0372 -8.8402 -2.5163 0.9606
-3.3937 -9.0987 -2.5144 0.9607
-2.3987 -9.3982 -2.5114 0.9607
-2.0609 -9.4740 -2.5104 0.9607
-1.3787 -9.5890 -2.5083 0.9608
-1.0351 -9.6281 -2.5072 0.9608
-0.6905 -9.6548 -2.5062 0.9608
0.3450 -9.6611 -2.5030 0.9608
0.6894 -9.6386 -2.5020 0.9609
1.0325 -9.6038 -2.5009 0.9609
2.3848 -9.3435 -2.4968 0.9609
3.0428 -9.1421 -2.4947 0.9610
3.6843 -8.8946 -2.4927 0.9610
3.9978 -8.7540 -2.4917 0.9610
4.3061 -8.6024 -2.4908 0.9610
5.1951 -8.0838 -2.4880 0.9611
5.7545 -7.6871 -2.4862 0.9611
6.0231 -7.4742 -2.4854 0.9611
6.2839 -7.2521 -2.4845 0.9611
6.5367 -7.0209 -2.4837 0.9611
7.0165 -6.5326 -2.4822 0.9612
7.2431 -6.2761 -2.4815 0.9612
8.2316 -4.8840 -2.4782 0.9612
8.3988 -4.5861 -2.4777 0.9612
8.7009 -3.9736 -2.4766 0.9612
8.8356 -3.6598 -2.4762 0.9613
8.9590 -3.3415 -2.4757 0.9613
9.0711 -3.0192 -2.4754 0.9613
9.3382 -2.0314 -2.4744 0.9613
9.4038 -1.6967 -2.4741 0.9613
9.4576 -1.3598 -2.4739 0.9613
9.5292 -0.6816 -2.4736 0.9613
9.5471 -0.3410 -2.4735 0.9613
-8.9308 -0.3190 -2.5299 0.9635
-8.8852 -0.9553 -2.5298 0.9635
-8.7310 -1.8993 -2.5295 0.9635
-8.6571 -2.2096 -2.5293 0.9635
-8.5720 -2.5170 -2.5291 0.9635
-8.4759 -2.8210 -2.5289 0.9635
-8.3688 -3.1214 -2.5286 0.9635
-8.2511 -3.4177 -2.5283 0.9636
-7.9840 -3.9965 -2.5276 0.9636
-7.8350 -4.2782 -2.5271 0.9636
-7.6759 -4.5543 -2.5267 0.9636
-7.5071 -4.8245 -2.5262 0.9636
-7.1408 -5.3456 -2.5252 0.9636
-6.3014 -6.3014 -2.5228 0.9636
-5.3345 -7.1261 -2.5200 0.9637
-4.8096 -7.4839 -2.5184 0.9637
-4.5380 -7.6483 -2.5176 0.9637
-4.2607 -7.8029 -2.5168 0.9637
-3.9781 -7.9473 -2.5160 0.9637
-2.8027 -8.4208 -2.5124 0.9638
-2.4995 -8.5124 -2.5115 0.9638
-2.1932 -8.5930 -2.5106 0.9638
-1.5735 -8.7211 -2.5087 0.9638
-1.2607 -8.7684 -2.5078 0.9638
0.9444 -8.7842 -2.5011 0.9639
1.5674 -8.6878 -2.4992 0.9640
1.8758 -8.6230 -2.4982 0.9640
3.3708 -8.1378 -2.4936 0.9640
3.6578 -8.0094 -2.4927 0.9641
3.9399 -7.8710 -2.4918 0.9641
4.4883 -7.5646 -2.4901 0.9641
4.7538 -7.3971 -2.4892 0.9641
5.2660 -7.0346 -2.4876 0.9641
5.5120 -6.8400 -2.4868 0.9641
5.7508 -6.6368 -2.4861 0.9642
5.9823 -6.4254 -2.4853 0.9642
6.6293 -5.7443 -2.4832 0.9642
6.8283 -5.5026 -2.4826 0.9642
7.0186 -5.2541 -2.4820 0.9642
7.2000 -4.9990 -2.4814 0.9642
7.3721 -4.7378 -2.4808 0.9642
7.5349 -4.4706 -2.4803 0.9642
7.6881 -4.1980 -2.4798 0.9642
7.8315 -3.9202 -2.4793 0.9642
8.3042 -2.7639 -2.4777 0.9643
8.3965 -2.4654 -2.4773 0.9643
8.4781 -2.1639 -2.4770 0.9643
8.6091 -1.5533 -2.4765 0.9643
8.6584 -1.2449 -2.4763 0.9643
8.7241 -0.6240 -2.4760 0.9643
-8.1970 -0.5863 -2.5277 0.9662
-8.1340 -1.1695 -2.5276 0.9662
-7.8829 -2.3146 -2.5270 0.9662
-7.7946 -2.5943 -2.5268 0.9662
-7.5880 -3.1431 -2.5262 0.9662
-7.0594 -4.1886 -2.5248 0.9662
-6.9043 -4.4371 -2.5243 0.9662
-6.7403 -4.6798 -2.5239 0.9662
-6.0006 -5.5868 -2.5218 0.9663
-5.7960 -5.7960 -2.5212 0.9663
-5.5841 -5.9977 -2.5205 0.9663
-5.3651 -6.1917 -2.5199 0.9663
-5.1393 -6.3775 -2.5193 0.9663
-4.6687 -6.7242 -2.5179 0.9663
-4.4245 -6.8846 -2.5172 0.9663
-3.9197 -7.1785 -2.5157 0.9664
-3.6599 -7.3116 -2.5149 0.9664
-3.3955 -7.4352 -2.5141 0.9664
-3.1270 -7.5492 -2.5133 0.9664
-2.5788 -7.7480 -2.5117 0.9664
-2.2998 -7.8325 -2.5108 0.9664
-1.7340 -7.9712 -2.5091 0.9664
-1.1601 -8.0690 -2.5074 0.9665
-0.8711 -8.1025 -2.5065 0.9665
-0.5811 -8.1255 -2.5056 0.9665
0.0000 -8.1405 -2.5039 0.9665
0.2904 -8.1324 -2.5030 0.9665
0.5803 -8.1140 -2.5021 0.9665
0.8693 -8.0853 -2.5012 0.9665
1.1569 -8.0463 -2.5003 0.9666
3.8826 -7.1105 -2.4918 0.9667
4.1326 -6.9652 -2.4911 0.9667
4.3773 -6.8111 -2.4903 0.9667
4.6162 -6.6485 -2.4895 0.9667
4.8491 -6.4776 -2.4888 0.9667
5.0757 -6.2986 -2.4881 0.9667
5.2958 -6.1117 -2.4874 0.9667
5.7152 -5.7152 -2.4860 0.9667
6.1053 -5.2903 -2.4848 0.9668
6.4641 -4.8390 -2.4836 0.9668
6.9400 -4.1177 -2.4820 0.9668
7.4502 -3.0860 -2.4803 0.9668
7.5545 -2.8177 -2.4800 0.9668
7.6492 -2.5459 -2.4796 0.9668
7.7342 -2.2710 -2.4793 0.9668
7.8749 -1.7131 -2.4788 0.9668
7.9303 -1.4308 -2.4786 0.9668
8.0515 -0.2876 -2.4780 0.9668
-7.5936 -0.2712 -2.5258 0.9685
-7.5791 -0.5421 -2.5258 0.9685
-7.5548 -0.8122 -2.5257 0.9685
-7.5208 -1.0813 -2.5257 0.9685
-7.4772 -1.3490 -2.5256 0.9685
-7.4239 -1.6150 -2.5255 0.9685
-7.3611 -1.8788 -2.5253 0.9685
-7.1163 -2.6543 -2.5247 0.9685
-6.7895 -3.3986 -2.5238 0.9685
-6.6629 -3.6382 -2.5235 0.9685
-6.3844 -4.1030 -2.5227 0.9685
-5.1642 -5.5468 -2.5192 0.9686
-4.7531 -5.8983 -2.5180 0.9686
-4.5384 -6.0627 -2.5174 0.9686
-3.8613 -6.5079 -2.5154 0.9686
-3.3853 -6.7630 -2.5140 0.9686
-3.1408 -6.8775 -2.5132 0.9686
-1.8670 -7.3148 -2.5094 0.9687
-1.3395 -7.4246 -2.5078 0.9687
-1.0733 -7.4653 -2.5070 0.9687
-0.8059 -7.4964 -2.5062 0.9687
-0.2689 -7.5299 -2.5046 0.9687
0.0000 -7.5322 -2.5038 0.9687
0.2688 -7.5250 -2.5029 0.9688
0.5370 -7.5081 -2.5021 0.9688
1.0705 -7.4458 -2.5005 0.9688
1.3352 -7.4004 -2.4997 0.9688
1.5980 -7.3457 -2.4988 0.9688
1.8585 -7.2816 -2.4980 0.9688
2.1166 -7.2083 -2.4972 0.9688
2.3717 -7.1259 -2.4965 0.9688
2.8723 -6.9343 -2.4949 0.9689
3.5938 -6.5815 -2.4926 0.9689
3.8253 -6.4472 -2.4919 0.9689
4.0518 -6.3047 -2.4912 0.9689
4.2731 -6.1544 -2.4905 0.9689
4.6987 -5.8307 -2.4891 0.9689
5.4752 -5.0976 -2.4867 0.9690
5.9847 -4.4801 -2.4850 0.9690
6.6789 -3.3432 -2.4827 0.9690
6.9949 -2.6090 -2.4816 0.9690
7.2313 -1.8457 -2.4808 0.9690
7.2919 -1.5863 -2.4806 0.9690
7.3433 -1.3249 -2.4804 0.9690
7.4182 -0.7975 -2.4800 0.9690
7.4416 -0.5322 -2.4799 0.9690
7.4556 -0.2663 -2.4798 0.9690
-7.0539 -0.2519 -2.5241 0.9705
-7.0404 -0.5035 -2.5241 0.9705
-7.0178 -0.7545 -2.5241 0.9705
-6.9457 -1.2532 -2.5240 0.9705
-6.7709 -1.9881 -2.5235 0.9705
-6.6951 -2.2283 -2.5233 0.9705
-6.6107 -2.4657 -2.5231 0.9705
-6.4167 -2.9304 -2.5226 0.9705
-6.0643 -3.5981 -2.5216 0.9705
-5.9311 -3.8117 -2.5213 0.9705
-5.3247 -4.6139 -2.5195 0.9705
-5.1556 -4.8000 -2.5191 0.9705
-4.7981 -5.1535 -2.5180 0.9705
-4.6101 -5.3203 -2.5175 0.9705
-3.8024 -5.9167 -2.5151 0.9706
-3.3689 -6.1697 -2.5138 0.9706
-3.1457 -6.2844 -2.5132 0.9706
-2.4539 -6.5792 -2.5111 0.9706
-0.7491 -6.9674 -2.5059 0.9707
-0.4998 -6.9876 -2.5052 0.9707
-0.2500 -6.9988 -2.5044 0.9707
0.2498 -6.9946 -2.5029 0.9707
0.4992 -6.9791 -2.5021 0.9707
1.4855 -6.8287 -2.4991 0.9707
1.7278 -6.7693 -2.4984 0.9708
1.9677 -6.7013 -2.4976 0.9708
2.2050 -6.6249 -2.4969 0.9708
2.4393 -6.5401 -2.4962 0.9708
2.8980 -6.3457 -2.4947 0.9708
3.1218 -6.2365 -2.4940 0.9708
3.3415 -6.1194 -2.4933 0.9708
3.7675 -5.8623 -2.4920 0.9708
4.3692 -5.4218 -2.4901 0.9709
4.5588 -5.2611 -2.4895 0.9709
4.9202 -4.9202 -2.4883 0.9709
5.0916 -4.7404 -2.4878 0.9709
5.2564 -4.5547 -2.4872 0.9709
5.4145 -4.3633 -2.4867 0.9709
5.7098 -3.9644 -2.4858 0.9709
6.0977 -3.3296 -2.4845 0.9709
6.3178 -2.8852 -2.4837 0.9709
6.4159 -2.6575 -2.4834 0.9709
6.5058 -2.4266 -2.4831 0.9709
6.6609 -1.9558 -2.4825 0.9709
6.8301 -1.2323 -2.4819 0.9709
6.8692 -0.9876 -2.4818 0.9709
6.8998 -0.7418 -2.4816 0.9710
-6.5828 -0.0000 -2.5226 0.9722
-6.5787 -0.2350 -2.5227 0.9722
-6.3774 -1.6277 -2.5223 0.9722
-6.2442 -2.0783 -2.5219 0.9722
-6.1655 -2.2996 -2.5217 0.9722
-5.9846 -2.7331 -2.5213 0.9722
-5.8826 -2.9446 -2.5210 0.9722
-5.7731 -3.1523 -2.5207 0.9722
-5.1179 -4.1243 -2.5188 0.9722
-4.9666 -4.3036 -2.5184 0.9722
-4.8089 -4.4773 -2.5179 0.9722
-3.9336 -5.2547 -2.5154 0.9723
-3.1428 -5.7556 -2.5131 0.9723
-2.7228 -5.9622 -2.5118 0.9723
-2.2894 -6.1381 -2.5105 0.9723
-2.0683 -6.2143 -2.5099 0.9723
-1.1616 -6.4383 -2.5071 0.9724
-0.9308 -6.4739 -2.5064 0.9724
-0.4663 -6.5201 -2.5050 0.9724
0.0000 -6.5331 -2.5036 0.9724
0.4658 -6.5127 -2.5022 0.9724
0.6978 -6.4901 -2.5015 0.9724
0.9287 -6.4592 -2.5007 0.9724
1.6125 -6.3176 -2.4986 0.9725
1.8364 -6.2543 -2.4979 0.9725
2.2767 -6.1040 -2.4966 0.9725
2.4924 -6.0172 -2.4959 0.9725
3.1189 -5.7119 -2.4939 0.9725
3.7088 -5.3417 -2.4921 0.9725
4.0785 -5.0612 -2.4909 0.9725
4.2556 -4.9113 -2.4904 0.9725
4.4272 -4.7552 -2.4898 0.9726
4.7532 -4.4254 -2.4888 0.9726
4.9071 -4.2521 -2.4883 0.9726
5.0548 -4.0734 -2.4878 0.9726
5.4584 -3.5079 -2.4865 0.9726
5.5792 -3.3103 -2.4861 0.9726
5.6929 -3.1086 -2.4857 0.9726
5.8985 -2.6938 -2.4850 0.9726
5.9902 -2.4812 -2.4847 0.9726
6.1505 -2.0471 -2.4841 0.9726
6.2191 -1.8261 -2.4839 0.9726
6.3324 -1.3775 -2.4835 0.9726
6.3771 -1.1506 -2.4833 0.9726
6.4422 -0.6926 -2.4830 0.9726
6.4626 -0.4622 -2.4829 0.9726
6.4748 -0.2313 -2.4828 0.9726
-6.1567 -0.2199 -2.5214 0.9737
-6.1449 -0.4395 -2.5214 0.9737
-5.8438 -1.9450 -2.5207 0.9737
-5.6892 -2.3565 -2.5203 0.9737
-5.5055 -2.7559 -2.5198 0.9737
-5.4030 -2.9503 -2.5195 0.9737
-5.0547 -3.5096 -2.5185 0.9738
-4.3478 -4.3478 -2.5165 0.9738
-4.0250 -4.6452 -2.5156 0.9738
-3.8559 -4.7849 -2.5151 0.9738
-3.6819 -4.9185 -2.5146 0.9738
-3.5033 -5.0457 -2.5140 0.9738
-3.3203 -5.1665 -2.5135 0.9738
-3.1331 -5.2805 -2.5130 0.9738
-2.7471 -5.4881 -2.5118 0.9738
-2.3475 -5.6674 -2.5106 0.9738
-2.1432 -5.7461 -2.5100 0.9738
-1.7270 -5.8815 -2.5088 0.9739
-1.5155 -5.9379 -2.5081 0.9739
-1.0875 -6.0277 -2.5068 0.9739
-0.6544 -6.0868 -2.5055 0.9739
-0.2184 -6.1147 -2.5042 0.9739
0.4361 -6.0981 -2.5022 0.9739
0.6534 -6.0771 -2.5015 0.9739
0.8696 -6.0483 -2.5009 0.9739
1.2982 -5.9677 -2.4995 0.9739
1.7197 -5.8568 -2.4982 0.9740
1.9272 -5.7902 -2.4976 0.9740
2.3341 -5.6351 -2.4963 0.9740
2.5331 -5.5468 -2.4957 0.9740
2.7288 -5.4515 -2.4951 0.9740
2.9210 -5.3494 -2.4945 0.9740
3.1093 -5.2405 -2.4939 0.9740
3.2936 -5.1250 -2.4933 0.9740
3.4736 -5.0030 -2.4928 0.9740
4.1467 -4.4539 -2.4906 0.9740
4.4521 -4.1451 -2.4896 0.9741
4.7348 -3.8155 -2.4887 0.9741
5.4326 -2.7194 -2.4864 0.9741
5.7616 -1.9177 -2.4853 0.9741
5.9740 -1.0778 -2.4845 0.9741
6.0084 -0.8639 -2.4844 0.9741
6.0542 -0.4330 -2.4842 0.9741
-5.7791 -0.2064 -2.5202 0.9751
-5.7680 -0.4125 -2.5202 0.9751
-5.7496 -0.6182 -2.5202 0.9751
-5.6501 -1.2291 -2.5200 0.9751
-5.6024 -1.4299 -2.5199 0.9751
-5.4164 -2.0202 -2.5194 0.9751
-5.3404 -2.2121 -2.5192 0.9751
-5.2576 -2.4011 -2.5190 0.9751
-5.1680 -2.5869 -2.5187 0.9751
-4.9692 -2.9484 -2.5182 0.9751
-4.8602 -3.1235 -2.5179 0.9751
-4.7451 -3.2946 -2.5176 0.9751
-4.6238 -3.4613 -2.5172 0.9751
-4.4967 -3.6237 -2.5169 0.9751
-4.3638 -3.7813 -2.5165 0.9751
-4.2254 -3.9340 -2.5161 0.9751
-4.0816 -4.0816 -2.5157 0.9751
-3.9327 -4.2240 -2.5152 0.9751
-3.7787 -4.3609 -2.5148 0.9751
-3.2890 -4.7371 -2.5133 0.9752
-3.1172 -4.8505 -2.5128 0.9752
-2.9415 -4.9577 -2.5123 0.9752
-2.7621 -5.0584 -2.5118 0.9752
-2.5792 -5.1527 -2.5112 0.9752
-2.0123 -5.3952 -2.5096 0.9752
-1.6215 -5.5225 -2.5084 0.9752
-1.4231 -5.5755 -2.5078 0.9752
-1.2229 -5.6214 -2.5072 0.9752
-0.0000 -5.7443 -2.5035 0.9752
0.2050 -5.7392 -2.5028 0.9753
0.4096 -5.7268 -2.5022 0.9753
0.6136 -5.7071 -2.5016 0.9753
0.8167 -5.6802 -2.5010 0.9753
1.2192 -5.6046 -2.4997 0.9753
2.0025 -5.3689 -2.4973 0.9753
2.1923 -5.2927 -2.4967 0.9753
2.3793 -5.2099 -2.4961 0.9753
2.5631 -5.1205 -2.4955 0.9753
4.0414 -4.0414 -2.4909 0.9754
4.1823 -3.8939 -2.4904 0.9754
4.3179 -3.7415 -2.4900 0.9754
4.4479 -3.5844 -2.4896 0.9754
4.5723 -3.4228 -2.4891 0.9754
4.6908 -3.2569 -2.4888 0.9754
4.8033 -3.0869 -2.4884 0.9754
4.9097 -2.9131 -2.4880 0.9754
5.1037 -2.5547 -2.4874 0.9754
5.1910 -2.3707 -2.4871 0.9754
5.2718 -2.1836 -2.4868 0.9754
5.3458 -1.9939 -2.4866 0.9754
5.5733 -1.2124 -2.4857 0.9754
5.6449 -0.8116 -2.4855 0.9754
5.6880 -0.4068 -2.4853 0.9754
-5.4285 -0.3883 -2.5192 0.9763
-5.4111 -0.5818 -2.5192 0.9763
-5.3175 -1.1568 -2.5190 0.9763
-5.2726 -1.3458 -2.5189 0.9763
-5.1626 -1.7183 -2.5186 0.9763
-5.0977 -1.9013 -2.5184 0.9763
-5.0262 -2.0819 -2.5182 0.9763
-4.9482 -2.2598 -2.5180 0.9763
-4.8640 -2.4347 -2.5178 0.9763
-4.6769 -2.7750 -2.5173 0.9763
-4.5744 -2.9398 -2.5170 0.9763
-4.4660 -3.1008 -2.5167 0.9763
-4.3519 -3.2578 -2.5164 0.9763
-4.1073 -3.5590 -2.5157 0.9763
-3.9771 -3.7028 -2.5153 0.9763
-3.7016 -3.9758 -2.5145 0.9763
-3.0959 -4.4590 -2.5127 0.9764
-2.9342 -4.5658 -2.5122 0.9764
-2.7689 -4.6667 -2.5117 0.9764
-2.4279 -4.8504 -2.5107 0.9764
-1.7115 -5.1421 -2.5086 0.9764
-1.3397 -5.2488 -2.5075 0.9764
-0.9614 -5.3286 -2.5063 0.9764
-0.1931 -5.4061 -2.5040 0.9764
-0.0000 -5.4083 -2.5034 0.9764
0.3856 -5.3920 -2.5022 0.9765
0.5777 -5.3735 -2.5016 0.9765
0.9591 -5.3161 -2.5005 0.9765
1.1480 -5.2773 -2.4999 0.9765
1.7043 -5.1208 -2.4982 0.9765
1.8856 -5.0555 -2.4976 0.9765
2.2405 -4.9060 -2.4965 0.9765
2.5836 -4.7316 -2.4954 0.9765
2.9134 -4.5333 -2.4944 0.9765
3.0727 -4.4256 -2.4939 0.9765
3.3793 -4.1934 -2.4929 0.9765
3.6685 -3.9402 -2.4920 0.9765
3.8061 -3.8061 -2.4915 0.9766
4.0666 -3.5237 -2.4907 0.9766
4.1891 -3.3758 -2.4903 0.9766
4.3062 -3.2236 -2.4899 0.9766
4.8070 -2.4062 -2.4883 0.9766
4.9653 -2.0567 -2.4877 0.9766
5.0984 -1.6969 -2.4873 0.9766
5.2057 -1.3287 -2.4869 0.9766
5.3170 -0.7645 -2.4865 0.9766
5.3576 -0.3832 -2.4863 0.9766
5.3677 -0.1917 -2.4862 0.9766
-5.0520 -0.9115 -2.5181 0.9774
-5.0161 -1.0912 -2.5180 0.9774
-4.8700 -1.6209 -2.5177 0.9774
-4.8087 -1.7936 -2.5175 0.9774
-4.6678 -2.1317 -2.5171 0.9774
-4.5884 -2.2968 -2.5169 0.9774
-4.5030 -2.4588 -2.5167 0.9774
-4.3153 -2.7733 -2.5162 0.9774
-4.2130 -2.9252 -2.5159 0.9774
-3.7519 -3.4931 -2.5146 0.9774
-3.6243 -3.6243 -2.5142 0.9774
-3.4921 -3.7508 -2.5138 0.9774
-3.3555 -3.8724 -2.5134 0.9774
-3.0696 -4.1006 -2.5126 0.9774
-2.9208 -4.2068 -2.5121 0.9774
-2.6123 -4.4028 -2.5112 0.9774
-2.4530 -4.4924 -2.5108 0.9775
-2.2907 -4.5762 -2.5103 0.9775
-1.7873 -4.7920 -2.5088 0.9775
-1.4403 -4.9053 -2.5077 0.9775
-1.2641 -4.9525 -2.5072 0.9775
-1.0862 -4.9934 -2.5067 0.9775
-0.5459 -5.0776 -2.5050 0.9775
-0.3642 -5.0927 -2.5045 0.9775
-0.1822 -5.1013 -2.5039 0.9775
0.1821 -5.0991 -2.5028 0.9775
0.9051 -5.0168 -2.5006 0.9775
1.4353 -4.8881 -2.4990 0.9776
1.6085 -4.8327 -2.4984 0.9776
1.9483 -4.7037 -2.4974 0.9776
2.1145 -4.6302 -2.4968 0.9776
2.2780 -4.5508 -2.4963 0.9776
2.4385 -4.4657 -2.4958 0.9776
2.9002 -4.1770 -2.4944 0.9776
3.0468 -4.0701 -2.4939 0.9776
3.1896 -3.9580 -2.4935 0.9776
3.5925 -3.5925 -2.4922 0.9776
3.7179 -3.4615 -2.4918 0.9776
3.8385 -3.3260 -2.4914 0.9776
3.9541 -3.1864 -2.4910 0.9776
4.0648 -3.0428 -2.4906 0.9776
4.1702 -2.8954 -2.4903 0.9776
4.5376 -2.2714 -2.4891 0.9776
4.6153 -2.1077 -2.4888 0.9776
4.6871 -1.9415 -2.4886 0.9777
4.8665 -1.4290 -2.4879 0.9777
4.9554 -1.0780 -2.4876 0.9777
5.0416 -0.5420 -2.4873 0.9777
5.0671 -0.1810 -2.4871 0.9777
-4.8494 -0.1732 -2.5174 0.9784
-4.8247 -0.5187 -2.5174 0.9784
-4.6032 -1.5321 -2.5168 0.9784
-4.4122 -2.0150 -2.5163 0.9784
-4.3371 -2.1710 -2.5161 0.9784
-3.7741 -3.0414 -2.5146 0.9784
-3.6627 -3.1738 -2.5142 0.9784
-3.5466 -3.3020 -2.5139 0.9784
-3.4260 -3.4260 -2.5136 0.9784
-3.3011 -3.5456 -2.5132 0.9784
-3.0388 -3.7709 -2.5124 0.9784
-2.9018 -3.8764 -2.5120 0.9784
-2.6170 -4.0722 -2.5112 0.9784
-2.4696 -4.1622 -2.5108 0.9784
-2.3190 -4.2470 -2.5103 0.9784
-2.0094 -4.4000 -2.5094 0.9784
-1.8507 -4.4681 -2.5089 0.9784
-1.0270 -4.7210 -2.5064 0.9785
-0.5161 -4.8008 -2.5049 0.9785
-0.3444 -4.8151 -2.5044 0.9785
-0.1723 -4.8233 -2.5038 0.9785
0.0000 -4.8254 -2.5033 0.9785
0.3441 -4.8111 -2.5023 0.9785
0.5155 -4.7947 -2.5017 0.9785
0.6862 -4.7723 -2.5012 0.9785
1.0244 -4.7092 -2.5002 0.9785
1.3572 -4.6222 -2.4991 0.9785
1.6828 -4.5118 -2.4981 0.9785
1.8424 -4.4480 -2.4976 0.9785
1.9996 -4.3785 -2.4972 0.9785
2.1542 -4.3035 -2.4967 0.9785
2.4548 -4.1373 -2.4957 0.9786
2.6004 -4.0463 -2.4953 0.9786
2.7427 -3.9502 -2.4948 0.9786
3.1476 -3.6325 -2.4935 0.9786
3.5162 -3.2737 -2.4923 0.9786
3.6303 -3.1456 -2.4920 0.9786
3.8444 -2.8778 -2.4913 0.9786
3.9441 -2.7385 -2.4910 0.9786
4.0388 -2.5956 -2.4906 0.9786
4.2917 -2.1483 -2.4898 0.9786
4.6871 -1.0196 -2.4884 0.9786
4.7202 -0.8516 -2.4883 0.9786
4.7474 -0.6826 -2.4882 0.9786
-4.5685 -0.4912 -2.5166 0.9793
-4.5479 -0.6539 -2.5165 0.9793
-4.4895 -0.9766 -2.5164 0.9793
-4.4080 -1.2943 -2.5162 0.9793
-4.3588 -1.4508 -2.5161 0.9793
-4.1780 -1.9080 -2.5156 0.9793
-3.9491 -2.3431 -2.5150 0.9793
-3.7711 -2.6183 -2.5145 0.9793
-3.6748 -2.7510 -2.5142 0.9793
-3.5739 -2.8800 -2.5139 0.9793
-3.4684 -3.0054 -2.5136 0.9793
-3.3585 -3.1269 -2.5133 0.9793
-3.2443 -3.2444 -2.5130 0.9793
-3.0038 -3.4666 -2.5123 0.9793
-2.8777 -3.5710 -2.5119 0.9793
-2.6148 -3.7661 -2.5111 0.9793
-2.1962 -4.0220 -2.5099 0.9793
-2.0509 -4.0972 -2.5095 0.9793
-1.9030 -4.1670 -2.5090 0.9793
-1.6003 -4.2906 -2.5081 0.9793
-1.1319 -4.4346 -2.5067 0.9793
-0.6510 -4.5276 -2.5053 0.9794
-0.3262 -4.5607 -2.5043 0.9794
-0.0000 -4.5705 -2.5033 0.9794
0.1631 -4.5667 -2.5028 0.9794
0.3259 -4.5570 -2.5023 0.9794
0.6499 -4.5204 -2.5013 0.9794
1.1288 -4.4224 -2.4998 0.9794
1.4408 -4.3289 -2.4988 0.9794
1.5941 -4.2739 -2.4984 0.9794
1.8942 -4.1478 -2.4974 0.9794
2.0407 -4.0768 -2.4970 0.9794
2.1845 -4.0006 -2.4965 0.9794
2.7297 -3.6465 -2.4948 0.9794
2.8577 -3.5462 -2.4944 0.9794
2.9820 -3.4414 -2.4940 0.9794
3.1024 -3.3322 -2.4936 0.9794
3.4393 -2.9802 -2.4925 0.9795
3.7367 -2.5945 -2.4916 0.9795
3.8265 -2.4592 -2.4913 0.9795
3.9114 -2.3207 -2.4910 0.9795
3.9913 -2.1794 -2.4907 0.9795
4.0661 -2.0354 -2.4905 0.9795
4.1358 -1.8888 -2.4902 0.9795
4.2593 -1.5886 -2.4898 0.9795
4.4409 -0.9661 -2.4892 0.9795
4.4723 -0.8069 -2.4890 0.9795
4.4981 -0.6467 -2.4889 0.9795
4.5324 -0.3242 -2.4888 0.9795
-4.3576 0.0000 -2.5159 0.9801
-4.3132 -0.6202 -2.5158 0.9801
-4.2882 -0.7737 -2.5158 0.9801
-4.2577 -0.9262 -2.5157 0.9801
-4.2218 -1.0776 -2.5156 0.9801
-4.0247 -1.6671 -2.5151 0.9801
-3.9624 -1.8096 -2.5149 0.9801
-3.8226 -2.0873 -2.5146 0.9801
-3.7453 -2.2222 -2.5143 0.9801
-3.6633 -2.3543 -2.5141 0.9801
-3.5766 -2.4833 -2.5139 0.9801
-3.4853 -2.6091 -2.5136 0.9801
-3.2896 -2.8504 -2.5130 0.9801
-3.1854 -2.9657 -2.5127 0.9801
-2.6064 -3.4818 -2.5111 0.9801
-2.4801 -3.5721 -2.5107 0.9801
-2.2183 -3.7387 -2.5099 0.9801
-1.9453 -3.8862 -2.5091 0.9801
-1.6625 -4.0137 -2.5083 0.9801
-1.5180 -4.0698 -2.5078 0.9801
-1.2233 -4.1663 -2.5070 0.9801
-0.9227 -4.2414 -2.5060 0.9802
-0.7705 -4.2709 -2.5056 0.9802
-0.4637 -4.3133 -2.5047 0.9802
0.1547 -4.3322 -2.5028 0.9802
0.3092 -4.3231 -2.5023 0.9802
0.4632 -4.3085 -2.5018 0.9802
0.6166 -4.2884 -2.5014 0.9802
0.7691 -4.2628 -2.5009 0.9802
1.2197 -4.1539 -2.4995 0.9802
1.6558 -3.9975 -2.4981 0.9802
2.0726 -3.7956 -2.4968 0.9802
2.3373 -3.6369 -2.4960 0.9802
2.4652 -3.5506 -2.4956 0.9802
2.7114 -3.3646 -2.4948 0.9802
2.8293 -3.2652 -2.4944 0.9802
2.9436 -3.1617 -2.4941 0.9802
3.2634 -2.8277 -2.4930 0.9803
3.3618 -2.7091 -2.4927 0.9803
3.5457 -2.4618 -2.4921 0.9803
4.0416 -1.5075 -2.4905 0.9803
4.1788 -1.0666 -2.4900 0.9803
4.2140 -0.9167 -2.4898 0.9803
4.2438 -0.7657 -2.4897 0.9803
4.2683 -0.6137 -2.4896 0.9803
4.3091 -0.1539 -2.4894 0.9803
