ply
format ascii 1.0
element vertex 1444
property float32 x
property float32 y
property float32 z
property float32 I
end_header
39.3894 -0.0000 6.9454 0.8522
35.4579 1.2664 6.2562 0.8658
15.5170 1.1098 2.7431 0.9388
29.5655 4.2509 5.2668 0.8857
26.8468 4.8437 4.8102 0.8951
25.9044 5.6352 4.6745 0.8979
24.7508 6.3172 4.5041 0.9014
23.3474 6.8554 4.2906 0.9059
20.1563 8.3490 3.8469 0.9152
19.5311 8.9195 3.7860 0.9165
15.1580 10.5244 3.2538 0.9278
14.8389 11.1083 3.2684 0.9275
19.1923 15.4661 4.3462 0.9047
18.2942 15.8520 4.2683 0.9064
17.6998 16.4791 4.2642 0.9064
10.6507 10.6507 2.6559 0.9407
11.0254 11.8421 2.8530 0.9364
10.4685 12.0813 2.8187 0.9371
10.1785 12.6307 2.8603 0.9362
12.8798 18.5504 3.9821 0.9124
6.4465 14.1159 2.7363 0.9389
4.5300 15.4277 2.8352 0.9368
4.8071 22.0977 3.9875 0.9122
3.2108 22.3312 3.9781 0.9124
1.1727 16.3962 2.8985 0.9354
0.0000 16.5780 2.9232 0.9349
-0.6220 17.4156 3.0728 0.9317
-1.7495 24.4618 4.3243 0.9052
-2.6683 24.8189 4.4015 0.9036
-8.5559 20.6558 3.9423 0.9132
-9.4285 20.6455 4.0020 0.9119
-12.0446 22.0580 4.4315 0.9030
-13.4970 22.7480 4.6640 0.8981
-16.7710 24.1549 5.1851 0.8874
-20.3220 25.2181 5.7108 0.8767
-26.1467 28.0835 6.7658 0.8557
-27.1772 13.6039 5.3589 0.8839
36.4321 1.3012 5.5848 0.8628
15.5123 1.1095 2.3825 0.9390
31.1352 3.3474 4.7972 0.8810
29.5624 4.2504 4.5754 0.8862
27.1773 4.9033 4.2306 0.8943
23.9929 7.0449 3.8307 0.9038
20.2929 8.4056 3.3649 0.9150
27.1732 12.4096 4.5763 0.8861
25.8917 12.9604 4.4356 0.8894
17.5430 9.5792 3.0620 0.9223
16.2072 9.6162 2.8870 0.9266
18.2944 15.8522 3.7084 0.9067
17.7208 16.4986 3.7092 0.9067
9.8183 13.1157 2.5099 0.9359
12.8795 18.5500 3.4596 0.9127
11.6710 19.6704 3.5039 0.9116
10.9176 19.9941 3.4899 0.9119
7.0740 14.1320 2.4210 0.9380
6.4466 14.1161 2.3773 0.9391
5.8297 14.0742 2.3337 0.9402
5.3295 14.2890 2.3363 0.9402
4.9527 14.8805 2.4026 0.9385
5.6777 22.2449 3.5170 0.9113
3.4729 15.9645 2.5029 0.9360
4.0284 22.3279 3.4757 0.9123
1.1727 16.3966 2.5183 0.9356
0.5832 16.3277 2.5029 0.9360
-1.7495 24.4621 3.7570 0.9055
-1.9633 18.2617 2.8137 0.9284
-3.3598 18.6224 2.8989 0.9263
-4.0623 18.6741 2.9277 0.9256
-4.7523 18.6194 2.9438 0.9252
-2.4740 8.4257 1.3453 0.9651
-10.6963 28.6780 4.6889 0.8835
-9.4286 20.6458 3.4770 0.9122
-10.5712 21.1186 3.6179 0.9089
-13.5391 22.8190 4.0648 0.8982
-14.7161 22.8988 4.1699 0.8957
-7.6176 8.7912 1.7821 0.9540
-25.5772 27.4719 5.7502 0.8591
-21.0443 15.7536 4.0271 0.8991
-26.4282 15.6806 4.7077 0.8831
36.4320 1.3012 4.7472 0.8632
31.3460 3.3700 4.1054 0.8806
29.9494 4.3061 3.9401 0.8851
21.1721 6.2167 2.8734 0.9148
20.8041 7.7595 2.8914 0.9143
20.3661 8.4359 2.8706 0.9149
26.1600 13.0948 3.8095 0.8887
17.6339 9.6288 2.6163 0.9222
19.1928 15.4665 3.2098 0.9054
18.2946 15.8524 3.1523 0.9070
12.3359 11.4852 2.1948 0.9343
11.0256 11.8423 2.1070 0.9368
9.5056 12.6979 2.0655 0.9380
12.3350 19.1935 2.9710 0.9121
11.7401 19.7869 2.9961 0.9114
10.9822 20.1124 2.9841 0.9117
4.8912 14.6955 2.0169 0.9394
4.3762 14.9041 2.0228 0.9393
5.7113 22.3765 3.0073 0.9111
4.9082 22.5626 3.0068 0.9111
4.0401 22.3926 2.9631 0.9123
1.1658 16.3003 2.1281 0.9362
-3.7826 26.3086 3.4612 0.8983
-2.4710 8.4154 1.1421 0.9652
-2.7812 8.3563 1.1469 0.9651
-10.7371 28.7872 4.0009 0.8834
-9.4287 20.6460 2.9556 0.9125
-10.1836 20.3442 2.9626 0.9123
-17.0833 31.2857 4.6418 0.8661
-14.7164 22.8992 3.5447 0.8960
-16.9538 24.4182 3.8710 0.8870
-25.4020 27.2837 4.8544 0.8604
39.5495 -0.0000 4.2469 0.8529
36.4296 1.3011 3.9144 0.8636
27.1783 4.9035 2.9656 0.8948
25.4758 6.5023 2.8233 0.8996
21.1736 6.2171 2.3696 0.9150
20.8039 7.7594 2.3843 0.9145
17.2134 9.3992 2.1060 0.9241
14.9002 11.1541 1.9987 0.9279
19.1930 15.4667 2.6469 0.9056
12.4035 11.5480 1.8198 0.9341
11.0257 11.8425 1.7375 0.9370
10.4689 12.0817 1.7167 0.9377
10.1091 12.5446 1.7300 0.9372
9.5582 12.7683 1.7127 0.9379
12.8896 18.5646 2.4269 0.9131
12.3573 19.2283 2.4544 0.9121
11.7402 19.7871 2.4706 0.9116
6.9544 13.8931 1.6683 0.9394
6.4493 14.1220 1.6671 0.9395
5.8298 14.0744 1.6359 0.9406
5.3296 14.2893 1.6377 0.9405
4.4002 14.9858 1.6771 0.9391
5.7113 22.3768 2.4799 0.9113
2.4138 16.7881 1.8213 0.9340
1.7347 16.1348 1.7426 0.9368
-1.7496 24.4626 2.6335 0.9060
-2.6726 24.8591 2.6848 0.9043
-4.0313 18.5315 2.0365 0.9265
-2.4680 8.4051 0.9407 0.9654
-2.7804 8.3536 0.9454 0.9652
-14.7167 22.8996 2.9230 0.8963
-22.6532 32.6269 4.2652 0.8523
-7.6169 8.7904 1.2490 0.9543
-21.0673 15.7708 2.8259 0.8995
41.3613 -0.0000 3.5013 0.8470
30.8267 4.4322 2.6364 0.8825
25.2704 6.4499 2.2078 0.9006
21.1642 6.2144 1.8672 0.9153
20.8036 7.7593 1.8796 0.9147
20.3839 9.3090 1.8970 0.9140
15.0184 10.4274 1.5477 0.9292
18.2950 15.8527 2.0492 0.9074
10.1084 12.5438 1.3637 0.9374
9.5576 12.7675 1.3501 0.9380
12.0902 18.8128 1.8931 0.9141
11.6457 19.6278 1.9320 0.9125
10.8939 19.9507 1.9243 0.9128
6.9540 13.8923 1.3151 0.9395
4.9175 14.7747 1.3182 0.9394
4.4000 14.9850 1.3221 0.9392
5.6654 22.1966 1.9392 0.9121
4.8713 22.3930 1.9400 0.9121
4.0221 22.2928 1.9176 0.9131
1.7346 16.1338 1.3736 0.9369
1.1722 16.3888 1.3909 0.9362
0.5832 16.3283 1.3831 0.9365
0.0000 16.5788 1.4034 0.9356
-0.6123 17.1438 1.4522 0.9335
-1.7496 24.4629 2.0761 0.9062
-2.6726 24.8594 2.1166 0.9045
-2.7592 19.1904 1.6412 0.9251
-3.3003 18.2921 1.5735 0.9281
-4.0535 18.6337 1.6143 0.9263
-2.4650 8.3950 0.7407 0.9655
-2.7795 8.3510 0.7451 0.9653
-9.4289 20.6465 1.9214 0.9129
-13.0382 23.8777 2.3030 0.8965
-14.7169 22.9000 2.3044 0.8965
-17.4173 25.0857 2.5852 0.8846
-19.0221 25.4106 2.6870 0.8804
-7.6163 8.7897 0.9845 0.9544
-25.7157 27.6206 3.1947 0.8594
42.5008 -0.0000 2.6355 0.8434
35.9736 1.2848 2.2322 0.8657
15.4941 1.1082 0.9633 0.9396
31.2823 3.3632 1.9510 0.8815
26.1059 5.6790 1.6567 0.8985
25.4019 6.4834 1.6257 0.9003
21.1702 6.2161 1.3682 0.9154
20.8034 7.7593 1.3768 0.9149
20.3848 9.3094 1.3897 0.9141
26.4808 13.2554 1.8363 0.8881
17.3048 9.4491 1.2226 0.9240
15.5493 9.9929 1.1462 0.9286
15.0215 11.2450 1.1636 0.9276
18.2952 15.8529 1.5011 0.9075
12.4019 11.5466 1.0508 0.9343
11.0260 11.8427 1.0034 0.9372
10.1078 12.5430 0.9989 0.9375
12.0895 18.8116 1.3866 0.9143
10.9459 20.0459 1.4163 0.9125
6.9536 13.8915 0.9633 0.9396
4.3997 14.9841 0.9684 0.9393
4.9001 22.5256 1.4295 0.9118
4.0218 22.2914 1.4046 0.9132
2.4145 16.7931 1.0521 0.9343
1.7345 16.1328 1.0062 0.9370
0.5832 16.3284 1.0132 0.9366
0.0000 16.5789 1.0281 0.9357
-0.6122 17.1427 1.0637 0.9336
-1.7496 24.4632 1.5208 0.9064
-2.7594 19.1920 1.2023 0.9252
-3.3000 18.2908 1.1525 0.9282
-4.0532 18.6323 1.1824 0.9264
-2.4620 8.3848 0.5419 0.9656
-2.7786 8.3483 0.5456 0.9654
-8.5016 20.5248 1.3776 0.9148
-9.4290 20.6467 1.4075 0.9130
-10.1789 20.3349 1.4101 0.9129
-17.0707 31.2627 2.2088 0.8670
-13.5894 22.9037 1.6515 0.8988
-14.7172 22.9004 1.6880 0.8966
-20.4326 25.3554 2.0193 0.8777
15.4896 1.1078 0.6123 0.9397
30.7335 4.4188 1.2243 0.8831
26.1032 5.6784 1.0533 0.8986
33.1974 9.7476 1.3643 0.8707
19.9941 8.2818 0.8533 0.9170
26.7819 13.4061 1.1810 0.8870
15.5491 9.9928 0.7288 0.9287
15.0163 10.4260 0.7208 0.9294
12.4011 11.5458 0.6681 0.9344
11.8126 11.8126 0.6587 0.9353
10.4692 12.0821 0.6304 0.9380
10.1072 12.5423 0.6352 0.9376
9.5565 12.7660 0.6288 0.9382
12.0888 18.8105 0.8817 0.9144
11.0178 20.1777 0.9065 0.9121
6.4482 14.1196 0.6121 0.9398
5.8300 14.0749 0.6007 0.9408
5.7298 22.4491 0.9136 0.9114
4.9002 22.5258 0.9090 0.9118
4.0216 22.2901 0.8931 0.9133
2.4149 16.7957 0.6691 0.9343
1.7344 16.1319 0.6398 0.9371
1.1720 16.3868 0.6478 0.9364
0.0000 16.5791 0.6537 0.9358
-2.6727 24.8599 0.9859 0.9048
-4.0529 18.6310 0.7518 0.9265
-2.2407 8.7788 0.3573 0.9644
-2.7777 8.3457 0.3468 0.9654
-8.0017 21.4533 0.9028 0.9124
-10.5720 21.1202 0.9313 0.9098
-14.7174 22.9008 1.0734 0.8968
-16.6929 24.0424 1.1541 0.8894
-18.8346 25.1602 1.2393 0.8818
-20.4331 25.3559 1.2841 0.8778
-25.7169 27.6219 1.4881 0.8598
41.5825 -0.0000 0.7024 0.8467
15.4851 1.1075 0.2622 0.9398
30.7345 4.4190 0.5245 0.8832
27.1803 4.9039 0.4665 0.8954
26.1005 5.6778 0.4512 0.8987
25.4038 6.4839 0.4429 0.9004
33.1943 9.7467 0.5844 0.8707
19.9925 8.2811 0.3655 0.9171
20.3866 9.3102 0.3786 0.9142
15.0231 11.2462 0.3170 0.9277
11.0262 11.8430 0.2733 0.9373
10.4693 12.0822 0.2701 0.9380
9.5559 12.7652 0.2694 0.9382
12.0881 18.8094 0.3777 0.9144
11.7783 19.8513 0.3899 0.9118
6.4478 14.1187 0.2622 0.9398
4.9167 14.7722 0.2630 0.9396
4.3992 14.9823 0.2638 0.9394
5.7299 22.4494 0.3914 0.9115
4.9002 22.5260 0.3894 0.9119
1.7342 16.1309 0.2741 0.9372
1.1719 16.3858 0.2775 0.9364
0.5832 16.3288 0.2760 0.9367
0.0000 16.5793 0.2801 0.9358
-2.6727 24.8602 0.4224 0.9048
-8.0022 21.4548 0.3868 0.9125
-8.5002 20.5212 0.3752 0.9150
-10.5722 21.1206 0.3989 0.9098
-20.4335 25.3564 0.5500 0.8779
-7.6139 8.7869 0.1964 0.9546
-25.7176 27.6226 0.6375 0.8599
15.6117 0.5576 -0.0880 0.9394
31.3442 3.3698 -0.1775 0.8815
27.1808 4.9040 -0.1555 0.8954
26.0979 5.6772 -0.1504 0.8987
25.4047 6.4842 -0.1476 0.9004
21.7469 7.2381 -0.1290 0.9124
20.8026 7.7590 -0.1250 0.9150
19.9908 8.2805 -0.1218 0.9171
26.7826 13.4064 -0.1686 0.8871
17.3010 9.4471 -0.1110 0.9242
15.0142 10.4245 -0.1029 0.9295
18.2958 15.8534 -0.1363 0.9077
12.3995 11.5444 -0.0954 0.9345
11.8111 11.8111 -0.0940 0.9354
11.0263 11.8431 -0.0911 0.9373
10.4694 12.0823 -0.0900 0.9381
10.1060 12.5408 -0.0907 0.9376
12.8451 18.5005 -0.1268 0.9138
6.9524 13.8890 -0.0874 0.9398
6.4474 14.1179 -0.0874 0.9398
5.8301 14.0751 -0.0858 0.9409
5.7299 22.4496 -0.1304 0.9115
4.0211 22.2874 -0.1275 0.9134
2.4156 16.8007 -0.0956 0.9344
1.1719 16.3848 -0.0925 0.9364
0.0000 16.5795 -0.0933 0.9358
-2.6728 24.8605 -0.1408 0.9048
-3.2993 18.2869 -0.1046 0.9284
-2.4532 8.3548 -0.0490 0.9658
-2.7760 8.3405 -0.0495 0.9654
-8.0028 21.4562 -0.1289 0.9125
-8.4994 20.5195 -0.1250 0.9150
-9.4293 20.6474 -0.1278 0.9132
-17.1340 31.3785 -0.2013 0.8667
-13.5919 22.9079 -0.1500 0.8989
-16.6893 24.0372 -0.1648 0.8895
-20.4339 25.3570 -0.1834 0.8779
-21.1243 15.8135 -0.1486 0.8998
15.5905 0.5568 -0.4393 0.9395
31.3439 3.3698 -0.8877 0.8815
30.7365 4.4193 -0.8744 0.8832
27.1812 4.9040 -0.7777 0.8954
21.7472 7.2382 -0.6454 0.9124
20.8024 7.7589 -0.6252 0.9150
26.7829 13.4066 -0.8434 0.8871
16.2088 9.6171 -0.5307 0.9274
15.0131 10.4238 -0.5146 0.9295
19.1943 15.4677 -0.6941 0.9061
12.3987 11.5436 -0.4770 0.9345
11.8104 11.8104 -0.4703 0.9353
10.4695 12.0825 -0.4502 0.9380
10.1054 12.5400 -0.4535 0.9376
9.5548 12.7636 -0.4489 0.9382
12.8444 18.4994 -0.6342 0.9138
12.0866 18.8072 -0.6295 0.9144
11.7785 19.8517 -0.6500 0.9118
6.4471 14.1171 -0.4370 0.9398
5.3300 14.2902 -0.4295 0.9408
4.9161 14.7704 -0.4383 0.9396
5.7300 22.4498 -0.6524 0.9115
4.9003 22.5265 -0.6491 0.9119
2.4160 16.8034 -0.4780 0.9343
1.7340 16.1289 -0.4568 0.9371
0.5832 16.3291 -0.4601 0.9367
0.0000 16.5797 -0.4669 0.9358
-2.6728 24.8608 -0.7041 0.9048
-2.7603 19.1986 -0.5462 0.9253
-4.0520 18.6269 -0.5368 0.9266
-2.4503 8.3448 -0.2449 0.9658
-2.7751 8.3379 -0.2474 0.9654
-9.4295 20.6477 -0.6391 0.9132
-10.5725 21.1212 -0.6651 0.9098
-17.1323 31.3755 -1.0066 0.8667
-13.5927 22.9093 -0.7501 0.8989
-14.7182 22.9021 -0.7666 0.8968
-16.6875 24.0347 -0.8239 0.8895
-18.8379 25.1645 -0.8851 0.8818
-20.4344 25.3575 -0.9170 0.8778
15.4716 1.1065 -0.7866 0.9398
30.7376 4.4194 -1.5749 0.8830
27.1817 4.9041 -1.4008 0.8953
20.8022 7.7588 -1.1260 0.9149
20.3894 9.3115 -1.1368 0.9141
26.7833 13.4068 -1.5190 0.8870
16.2090 9.6173 -0.9558 0.9273
15.0256 11.2480 -0.9519 0.9276
19.1945 15.4679 -1.2502 0.9060
12.3979 11.5429 -0.8591 0.9344
11.8097 11.8097 -0.8470 0.9353
11.0266 11.8434 -0.8206 0.9372
9.5542 12.7629 -0.8085 0.9381
11.7787 19.8519 -1.1706 0.9117
6.9515 13.8874 -0.7876 0.9397
6.4467 14.1163 -0.7870 0.9397
5.8302 14.0754 -0.7726 0.9408
5.3300 14.2903 -0.7735 0.9407
4.3984 14.9797 -0.7918 0.9394
5.7300 22.4501 -1.1750 0.9114
4.9004 22.5267 -1.1691 0.9118
4.0206 22.2847 -1.1484 0.9133
2.4164 16.8061 -0.8611 0.9343
1.7339 16.1279 -0.8226 0.9371
1.1717 16.3827 -0.8330 0.9363
0.5832 16.3293 -0.8287 0.9367
-0.6121 17.1372 -0.8697 0.9336
-1.7497 24.4645 -1.2439 0.9064
-2.7606 19.2003 -0.9837 0.9253
-3.2988 18.2843 -0.9422 0.9283
-4.0517 18.6256 -0.9667 0.9265
-2.1809 8.5445 -0.4472 0.9653
-2.4473 8.3348 -0.4405 0.9658
-10.5727 21.1215 -1.1979 0.9097
-13.5936 22.9107 -1.3510 0.8988
-18.8390 25.1660 -1.5943 0.8817
-20.4348 25.3580 -1.6516 0.8777
-25.7195 27.6247 -1.9142 0.8597
-20.5719 16.5779 -1.3399 0.8996
-40.1378 27.8682 -2.4781 0.8223
-41.1175 26.4246 -2.4787 0.8222
-42.0456 24.9468 -2.4794 0.8222
-42.9212 23.4368 -2.4801 0.8221
-44.5098 20.3269 -2.4815 0.8220
-47.4889 12.1208 -2.4856 0.8218
-47.9081 10.4217 -2.4864 0.8217
-48.5644 6.9825 -2.4882 0.8216
-48.7983 5.2464 -2.4890 0.8215
-45.9943 3.2896 -2.3385 0.8314
32.1007 -0.0000 -2.3537 0.8792
15.5482 0.5553 -1.1408 0.9395
31.3135 3.3665 -2.3092 0.8813
30.6723 4.4100 -2.2721 0.8831
25.9884 5.6534 -1.9501 0.8988
30.7319 9.0237 -2.3485 0.8794
19.9858 8.2784 -1.5861 0.9169
20.3173 9.2786 -1.6377 0.9143
26.7836 13.4069 -2.1961 0.8868
16.2092 9.6174 -1.3819 0.9272
15.0111 10.4223 -1.3399 0.9293
15.0265 11.2487 -1.3763 0.9275
11.0267 11.8435 -1.1865 0.9372
10.1042 12.5385 -1.1807 0.9375
11.0184 20.1787 -1.6857 0.9119
6.4463 14.1155 -1.1378 0.9397
5.8303 14.0756 -1.1171 0.9407
4.9155 14.7687 -1.1413 0.9395
2.4168 16.8089 -1.2451 0.9342
1.7338 16.1269 -1.1893 0.9370
1.1716 16.3817 -1.2042 0.9363
0.0000 16.5800 -1.2157 0.9357
-0.6120 17.1361 -1.2573 0.9335
-1.7497 24.4648 -1.7984 0.9063
-2.7608 19.2020 -1.4224 0.9251
-4.0514 18.6242 -1.3975 0.9264
-8.4662 20.4393 -1.6221 0.9151
-10.5728 21.1219 -1.7319 0.9096
-14.7188 22.9029 -1.9962 0.8966
-19.9487 24.7548 -2.3311 0.8803
-7.6106 8.7831 -0.8521 0.9545
-23.2799 21.6744 -2.3322 0.8802
-19.4811 16.8805 -1.8900 0.9018
-20.1273 15.0672 -1.8435 0.9041
-25.8467 16.6107 -2.2528 0.8841
-30.8576 14.0922 -2.4873 0.8728
-31.3476 12.9846 -2.4879 0.8728
-32.2084 10.7200 -2.4890 0.8727
-32.5780 9.5658 -2.4895 0.8727
-32.9065 8.3989 -2.4901 0.8727
-33.1934 7.2208 -2.4907 0.8726
-33.4382 6.0329 -2.4913 0.8726
-33.9176 2.4258 -2.4933 0.8725
-33.9916 1.2140 -2.4939 0.8725
24.5029 -0.0000 -2.3524 0.9062
24.0881 4.3460 -2.3499 0.9063
23.9125 5.2018 -2.3494 0.9063
23.7065 6.0507 -2.3489 0.9064
23.4704 6.8915 -2.3484 0.9064
21.7482 7.2385 -2.2005 0.9120
20.8017 7.7586 -2.1314 0.9146
19.9115 8.2476 -2.0691 0.9170
21.8504 10.9375 -2.3459 0.9065
17.2327 9.4098 -1.8850 0.9241
16.2094 9.6175 -1.8095 0.9271
15.5476 9.9919 -1.7743 0.9284
14.9547 10.3832 -1.7479 0.9295
19.0025 15.3132 -2.3430 0.9066
12.3519 11.5000 -1.6202 0.9344
11.8082 11.8082 -1.6032 0.9351
11.0268 11.8436 -1.5536 0.9370
10.4698 12.0828 -1.5349 0.9378
10.1035 12.5377 -1.5459 0.9373
9.5530 12.7613 -1.5304 0.9380
12.8079 18.4469 -2.1560 0.9137
11.7789 19.8523 -2.2161 0.9114
11.0185 20.1789 -2.2073 0.9118
5.7395 13.8564 -1.4399 0.9415
5.3301 14.2906 -1.4643 0.9406
4.9152 14.7679 -1.4943 0.9394
4.3979 14.9779 -1.4987 0.9392
4.0095 22.2233 -2.1680 0.9133
2.3900 16.6228 -1.6123 0.9347
1.7337 16.1259 -1.5571 0.9369
0.5832 16.3297 -1.5687 0.9364
-0.6097 17.0725 -1.6401 0.9337
-1.7347 24.2541 -2.3345 0.9069
-2.5992 24.1757 -2.3344 0.9069
-3.2864 18.2151 -1.7770 0.9283
-4.0356 18.5513 -1.8227 0.9265
-2.4415 8.3149 -0.8320 0.9658
-2.7725 8.3300 -0.8429 0.9653
-7.9774 21.3884 -2.1916 0.9124
-8.4655 20.4376 -2.1238 0.9149
-10.5730 21.1222 -2.2677 0.9094
-12.4079 20.9125 -2.3345 0.9069
-15.2618 18.9387 -2.3351 0.9069
-7.6098 8.7822 -1.1156 0.9544
-17.2034 17.2034 -2.3357 0.9069
-17.8083 16.5801 -2.3360 0.9069
-19.9962 13.8836 -2.3371 0.9068
-21.6760 13.9304 -2.4737 0.9016
-22.2989 13.2306 -2.4893 0.9011
-22.7602 12.4280 -2.4896 0.9010
-23.1928 11.6095 -2.4900 0.9010
-24.3129 9.0682 -2.4912 0.9010
-24.6252 8.1961 -2.4917 0.9010
-24.9065 7.3132 -2.4921 0.9009
-25.1563 6.4207 -2.4925 0.9009
-25.5598 4.6115 -2.4935 0.9009
-25.7130 3.6970 -2.4940 0.9009
-25.8337 2.7774 -2.4945 0.9009
-25.9215 1.8539 -2.4949 0.9008
19.4657 3.5120 -2.3496 0.9234
19.3246 4.2038 -2.3492 0.9234
19.1589 4.8900 -2.3488 0.9234
18.5168 6.9064 -2.3475 0.9235
18.2553 7.5616 -2.3471 0.9235
17.9706 8.2069 -2.3467 0.9235
17.2314 9.4091 -2.3321 0.9240
16.2097 9.6176 -2.2389 0.9269
15.5474 9.9917 -2.1953 0.9283
14.9537 10.3825 -2.1625 0.9293
14.9412 11.1849 -2.2170 0.9276
15.3647 12.3817 -2.3440 0.9236
14.9106 12.9201 -2.3436 0.9236
12.3511 11.4993 -2.0046 0.9343
11.7633 11.7633 -1.9761 0.9352
11.0269 11.8437 -1.9222 0.9369
10.0650 12.4899 -1.9054 0.9374
11.2405 16.1894 -2.3412 0.9237
10.6541 16.5780 -2.3408 0.9237
9.4418 17.2914 -2.3402 0.9237
6.9249 13.8341 -1.8377 0.9396
5.3302 14.2907 -1.8118 0.9404
4.8965 14.7117 -1.8418 0.9395
4.8686 19.0749 -2.3385 0.9238
3.4948 19.3703 -2.3381 0.9238
1.7272 16.0656 -1.9194 0.9370
-1.4036 19.6247 -2.3371 0.9238
-2.1031 19.5613 -2.3370 0.9238
-2.7468 19.1046 -2.2927 0.9252
-4.0353 18.5499 -2.2550 0.9264
-2.1729 8.5134 -1.0437 0.9652
-2.7716 8.3274 -1.0425 0.9653
-8.1725 17.8953 -2.3369 0.9238
-9.4289 17.2677 -2.3370 0.9238
-11.7925 15.7530 -2.3375 0.9238
-12.3480 15.3230 -2.3376 0.9238
-13.9183 13.9183 -2.3381 0.9238
-14.4074 13.4138 -2.3383 0.9238
-15.3304 12.3540 -2.3387 0.9238
-15.7632 11.8002 -2.3390 0.9237
-17.1852 11.9319 -2.4852 0.9192
-17.6423 11.3380 -2.4911 0.9190
-18.0377 10.7023 -2.4914 0.9190
-18.7598 9.3905 -2.4920 0.9190
-19.0855 8.7161 -2.4923 0.9190
-19.3870 8.0304 -2.4926 0.9189
-19.9160 6.6287 -2.4933 0.9189
-20.3440 5.1925 -2.4941 0.9189
-20.5194 4.4637 -2.4944 0.9189
-20.6688 3.7291 -2.4948 0.9189
-20.7920 2.9894 -2.4952 0.9189
-20.9590 1.4990 -2.4960 0.9188
14.8935 -0.0000 -2.1103 0.9416
14.4546 0.5162 -2.0494 0.9432
14.9202 1.6041 -2.1262 0.9412
16.3177 2.9440 -2.3494 0.9352
16.1998 3.5241 -2.3490 0.9352
16.0614 4.0994 -2.3487 0.9352
15.9025 4.6694 -2.3483 0.9352
15.5244 5.7903 -2.3477 0.9353
15.3056 6.3398 -2.3473 0.9353
14.5339 7.9361 -2.3463 0.9353
14.2393 8.4486 -2.3460 0.9353
13.9267 8.9502 -2.3456 0.9353
13.5965 9.4402 -2.3453 0.9353
13.2491 9.9181 -2.3450 0.9353
12.1080 11.2729 -2.3440 0.9354
11.6965 11.6965 -2.3437 0.9354
7.9200 14.5043 -2.3415 0.9354
5.3302 14.2909 -2.1611 0.9402
4.8962 14.7108 -2.1968 0.9393
4.3815 14.9221 -2.2036 0.9391
4.0843 16.0022 -2.3400 0.9355
2.3499 16.3438 -2.3395 0.9355
1.7271 16.0646 -2.2893 0.9368
1.1669 16.3160 -2.3177 0.9361
0.5832 16.3300 -2.3153 0.9361
0.0000 16.5083 -2.3391 0.9355
-0.5892 16.4972 -2.3390 0.9355
-1.1776 16.4650 -2.3389 0.9355
-1.7645 16.4120 -2.3388 0.9355
-3.5085 16.1284 -2.3387 0.9355
-2.1703 8.5030 -1.2434 0.9652
-2.4356 8.2949 -1.2249 0.9657
-2.7708 8.3248 -1.2431 0.9652
-5.7681 15.4648 -2.3386 0.9355
-6.3164 15.2492 -2.3387 0.9355
-7.3885 14.7603 -2.3388 0.9355
-7.9108 14.4876 -2.3388 0.9355
-8.9248 13.8873 -2.3390 0.9355
-9.8936 13.2164 -2.3392 0.9355
-10.3596 12.8555 -2.3393 0.9355
-11.2516 12.0851 -2.3396 0.9355
-11.6766 11.6766 -2.3397 0.9355
-12.0867 11.2532 -2.3399 0.9355
-12.4816 10.8154 -2.3401 0.9355
-15.1309 8.9776 -2.4928 0.9314
-15.7360 7.8769 -2.4934 0.9314
-16.2613 6.7357 -2.4939 0.9314
-16.4933 6.1517 -2.4942 0.9314
-17.0625 4.3549 -2.4951 0.9313
-17.3341 3.1274 -2.4957 0.9313
-17.4370 2.5071 -2.4960 0.9313
-17.5761 1.2571 -2.4967 0.9313
-17.6122 0.6290 -2.4970 0.9313
14.2581 0.5092 -2.3504 0.9438
14.0336 2.5319 -2.3492 0.9438
13.6774 4.0160 -2.3483 0.9439
13.3527 4.9803 -2.3477 0.9439
12.9601 5.9187 -2.3471 0.9439
12.5017 6.8265 -2.3466 0.9439
11.9800 7.6991 -2.3460 0.9439
11.3975 8.5320 -2.3454 0.9439
10.7573 9.3212 -2.3449 0.9439
8.9264 11.0770 -2.3436 0.9440
8.5245 11.3874 -2.3434 0.9440
7.6889 11.9641 -2.3429 0.9440
7.2563 12.2298 -2.3427 0.9440
6.3642 12.7140 -2.3422 0.9440
5.9058 12.9320 -2.3420 0.9440
5.4401 13.1334 -2.3419 0.9440
4.4886 13.4860 -2.3415 0.9440
3.5146 13.7700 -2.3412 0.9440
2.5230 13.9839 -2.3409 0.9440
2.0221 14.0642 -2.3408 0.9440
-2.0215 14.0601 -2.3401 0.9440
-2.5220 13.9787 -2.3400 0.9440
-3.0193 13.8796 -2.3400 0.9440
-2.1676 8.4925 -1.4439 0.9651
-2.7699 8.3221 -1.4449 0.9651
-4.9638 13.3086 -2.3400 0.9440
-5.4357 13.1231 -2.3400 0.9440
-6.3583 12.7023 -2.3401 0.9440
-7.2486 12.2169 -2.3402 0.9440
-7.6803 11.9508 -2.3403 0.9440
-8.5139 11.3733 -2.3404 0.9440
-8.9148 11.0626 -2.3406 0.9440
-7.5226 8.6815 -1.8924 0.9545
-9.6823 10.3995 -2.3408 0.9440
-10.0479 10.0479 -2.3409 0.9440
-11.7708 9.4855 -2.4904 0.9406
-12.1161 9.0700 -2.4933 0.9405
-12.7342 8.1838 -2.4937 0.9405
-13.0193 7.7247 -2.4939 0.9405
-13.5396 6.7774 -2.4943 0.9405
-13.7741 6.2904 -2.4946 0.9405
-14.1905 5.2928 -2.4950 0.9404
-14.3718 4.7834 -2.4953 0.9404
-14.6795 3.7467 -2.4958 0.9404
-14.9127 2.6905 -2.4964 0.9404
-15.0009 2.1568 -2.4966 0.9404
-15.0701 1.6202 -2.4969 0.9404
-15.1200 1.0814 -2.4972 0.9404
-15.1508 0.5411 -2.4975 0.9404
12.4952 0.4463 -2.3501 0.9504
10.6876 1.1490 -2.0204 0.9572
12.1068 3.0901 -2.3486 0.9504
11.5388 4.7795 -2.3475 0.9504
11.3596 5.1877 -2.3473 0.9504
11.1660 5.5893 -2.3470 0.9504
10.7365 6.3702 -2.3465 0.9505
9.7165 7.8301 -2.3455 0.9505
9.1313 8.5016 -2.3451 0.9505
8.1679 9.4262 -2.3444 0.9505
7.8255 9.7109 -2.3442 0.9505
7.4733 9.9831 -2.3440 0.9505
6.7409 10.4890 -2.3435 0.9505
5.9744 10.9413 -2.3432 0.9505
5.5797 11.1468 -2.3430 0.9505
5.1779 11.3380 -2.3428 0.9505
3.5107 11.9562 -2.3422 0.9505
3.0815 12.0732 -2.3420 0.9506
1.7730 12.3315 -2.3417 0.9506
1.3317 12.3864 -2.3416 0.9506
0.8887 12.4255 -2.3415 0.9506
0.4446 12.4488 -2.3414 0.9506
-0.4446 12.4480 -2.3412 0.9506
-0.9994 9.2955 -1.7573 0.9627
-1.7725 12.3283 -2.3411 0.9506
-2.6474 12.1701 -2.3410 0.9506
-2.1649 8.4820 -1.6454 0.9650
-2.7690 8.3194 -1.6481 0.9649
-4.3525 11.6694 -2.3410 0.9506
-4.7662 11.5067 -2.3410 0.9506
-4.0881 8.1668 -1.7166 0.9635
-5.9692 10.9318 -2.3411 0.9506
-6.7342 10.4787 -2.3412 0.9506
-7.4995 8.6549 -2.1525 0.9545
-8.4894 9.1183 -2.3417 0.9506
-8.8099 8.8099 -2.3418 0.9506
-9.5224 8.8657 -2.4455 0.9484
-10.3317 8.3258 -2.4940 0.9474
-10.6229 7.9522 -2.4942 0.9474
-10.9007 7.5685 -2.4943 0.9474
-11.8704 5.9419 -2.4951 0.9474
-12.2660 5.0808 -2.4955 0.9474
-12.4406 4.6401 -2.4957 0.9474
-12.5995 4.1935 -2.4959 0.9474
-12.9791 2.8234 -2.4966 0.9474
-13.1501 1.8907 -2.4971 0.9474
-13.2541 0.9479 -2.4976 0.9474
11.1098 0.3968 -2.3499 0.9556
10.6481 1.1448 -2.2638 0.9572
11.0006 1.5817 -2.3492 0.9556
10.8576 2.3619 -2.3488 0.9556
10.6594 3.1299 -2.3483 0.9556
10.4069 3.8816 -2.3478 0.9556
10.1015 4.6132 -2.3474 0.9556
9.7448 5.3210 -2.3469 0.9556
9.5477 5.6649 -2.3467 0.9556
9.1175 6.3304 -2.3463 0.9556
8.8850 6.6512 -2.3460 0.9556
8.6411 6.9634 -2.3458 0.9556
8.3863 7.2668 -2.3456 0.9556
7.8451 7.8451 -2.3452 0.9557
6.9598 8.6366 -2.3446 0.9557
5.9953 9.3289 -2.3441 0.9557
4.9627 9.9142 -2.3436 0.9557
4.2422 10.2417 -2.3433 0.9557
3.8738 10.3859 -2.3431 0.9557
3.5004 10.5170 -2.3430 0.9557
3.1226 10.6346 -2.3428 0.9557
2.7409 10.7387 -2.3427 0.9557
2.3557 10.8292 -2.3426 0.9557
1.9676 10.9059 -2.3425 0.9557
1.5771 10.9687 -2.3424 0.9557
1.1845 11.0175 -2.3423 0.9557
0.0000 11.0799 -2.3421 0.9557
-0.7904 11.0511 -2.3419 0.9557
-0.9994 9.2957 -1.9762 0.9625
-2.1622 8.4714 -1.8481 0.9649
-2.4267 8.2646 -1.8207 0.9654
-3.5963 9.6420 -2.1753 0.9588
-3.5793 7.8375 -1.8213 0.9654
-3.9958 7.9825 -1.8869 0.9642
-5.3097 9.7239 -2.3419 0.9557
-5.9901 9.3208 -2.3420 0.9557
-6.6402 8.8703 -2.3422 0.9557
-8.3205 8.3205 -2.4873 0.9530
-8.9190 7.7283 -2.4946 0.9529
-9.4486 7.0731 -2.4949 0.9529
-9.6956 6.7318 -2.4950 0.9529
-9.9303 6.3819 -2.4952 0.9529
-10.5577 5.2848 -2.4957 0.9529
-10.7404 4.9050 -2.4959 0.9529
-11.2058 3.7296 -2.4964 0.9529
-11.4451 2.9212 -2.4968 0.9529
-11.5431 2.5110 -2.4970 0.9529
-11.6264 2.0976 -2.4973 0.9528
-11.7485 1.2631 -2.4977 0.9528
-11.7871 0.8430 -2.4979 0.9528
9.9787 0.7137 -2.3512 0.9597
9.9388 1.0685 -2.3493 0.9598
9.8356 1.7745 -2.3489 0.9598
9.6822 2.4712 -2.3485 0.9598
9.5870 2.8150 -2.3483 0.9598
9.4796 3.1551 -2.3481 0.9598
9.3601 3.4911 -2.3479 0.9598
8.5878 5.0954 -2.3469 0.9598
8.3997 5.3982 -2.3467 0.9598
7.9919 5.9826 -2.3463 0.9598
7.7726 6.2636 -2.3461 0.9598
7.5435 6.5365 -2.3459 0.9598
7.3048 6.8010 -2.3457 0.9598
7.0568 7.0568 -2.3455 0.9598
6.7999 7.3037 -2.3453 0.9598
5.6897 8.1947 -2.3446 0.9598
5.3932 8.3919 -2.3445 0.9598
5.0899 8.5785 -2.3443 0.9598
3.4848 9.3432 -2.3436 0.9599
2.1193 9.7421 -2.3432 0.9599
1.7701 9.8111 -2.3431 0.9599
1.4188 9.8677 -2.3430 0.9599
1.0656 9.9117 -2.3429 0.9599
0.3558 9.9618 -2.3427 0.9599
-0.3558 9.9613 -2.3426 0.9599
-0.7111 9.9420 -2.3426 0.9599
-0.9897 9.2055 -2.1760 0.9627
-1.2472 8.6744 -2.0597 0.9646
-1.4660 8.1257 -1.9406 0.9666
-2.7993 7.5053 -1.8826 0.9676
-3.1806 7.6786 -1.9533 0.9664
-4.0091 8.0091 -2.1050 0.9639
-5.0861 8.5722 -2.3426 0.9599
-5.9737 7.9800 -2.3428 0.9599
-6.2549 7.7619 -2.3428 0.9599
-6.6557 7.6811 -2.3887 0.9591
-8.0236 6.9525 -2.4952 0.9573
-8.2670 6.6620 -2.4953 0.9573
-8.5000 6.3630 -2.4954 0.9573
-8.7221 6.0559 -2.4956 0.9573
-8.9332 5.7410 -2.4957 0.9573
-9.1330 5.4189 -2.4958 0.9573
-9.4975 4.7541 -2.4961 0.9573
-9.6617 4.4124 -2.4963 0.9573
-9.9532 3.7124 -2.4966 0.9573
-10.1942 2.9933 -2.4970 0.9573
-10.3833 2.2587 -2.4974 0.9573
-10.4581 1.8868 -2.4976 0.9573
9.6635 -0.0000 -2.5021 0.9609
9.6169 0.6878 -2.4963 0.9609
8.9276 1.6107 -2.3488 0.9632
8.8637 1.9282 -2.3487 0.9632
8.6048 2.8639 -2.3481 0.9632
8.4964 3.1690 -2.3479 0.9632
8.2474 3.7664 -2.3475 0.9632
8.1070 4.0581 -2.3473 0.9632
7.6250 4.9003 -2.3468 0.9632
7.4447 5.1689 -2.3466 0.9632
7.2549 5.4309 -2.3464 0.9632
6.6313 6.1740 -2.3459 0.9633
6.4063 6.4063 -2.3458 0.9633
5.6836 7.0529 -2.3453 0.9633
5.4279 7.2508 -2.3451 0.9633
5.1653 7.4394 -2.3450 0.9633
4.8962 7.6186 -2.3448 0.9633
4.3397 7.9475 -2.3445 0.9633
4.0530 8.0969 -2.3444 0.9633
3.4647 8.3645 -2.3442 0.9633
3.1638 8.4824 -2.3440 0.9633
2.5504 8.6857 -2.3438 0.9633
1.9241 8.8448 -2.3436 0.9633
1.2881 8.9589 -2.3435 0.9633
0.6457 9.0274 -2.3433 0.9633
-0.3230 9.0440 -2.3431 0.9633
-0.9673 8.9976 -2.3431 0.9633
-2.1318 7.2603 -1.9592 0.9692
-2.8087 7.5303 -2.0809 0.9673
-3.1806 7.6787 -2.1520 0.9662
-3.9297 7.8506 -2.2731 0.9644
-4.3369 7.9425 -2.3431 0.9633
-4.6177 7.7828 -2.3431 0.9633
-4.8927 7.6132 -2.3432 0.9633
-5.9389 7.3697 -2.4506 0.9616
-6.5673 7.0538 -2.4954 0.9610
-6.8151 6.8151 -2.4955 0.9610
-7.0543 6.5678 -2.4956 0.9610
-7.2845 6.3121 -2.4957 0.9610
-7.5055 6.0483 -2.4958 0.9610
-7.7170 5.7769 -2.4959 0.9610
-8.1102 5.2121 -2.4961 0.9609
-8.2915 4.9196 -2.4963 0.9609
-8.6223 4.3160 -2.4965 0.9609
-8.7714 4.0058 -2.4967 0.9609
-9.0359 3.3702 -2.4970 0.9609
-9.1510 3.0458 -2.4972 0.9609
-9.4261 2.0505 -2.4977 0.9609
-9.4939 1.7129 -2.4978 0.9609
-9.5497 1.3730 -2.4980 0.9609
-9.5933 1.0314 -2.4982 0.9609
-9.6247 0.6884 -2.4984 0.9609
8.8378 0.0000 -2.5019 0.9639
8.1892 1.4775 -2.3557 0.9660
8.1067 1.7635 -2.3486 0.9661
8.0380 2.0516 -2.3484 0.9661
7.9591 2.3370 -2.3483 0.9661
7.8700 2.6194 -2.3481 0.9661
7.7709 2.8984 -2.3479 0.9661
7.6620 3.1737 -2.3478 0.9661
7.5432 3.4449 -2.3476 0.9661
7.4150 3.7117 -2.3474 0.9661
7.2772 3.9737 -2.3472 0.9661
7.1302 4.2306 -2.3471 0.9661
6.6358 4.9675 -2.3466 0.9661
6.4538 5.2008 -2.3464 0.9661
6.2636 5.4275 -2.3463 0.9661
5.4261 6.2620 -2.3457 0.9661
5.1988 6.4513 -2.3455 0.9661
4.9649 6.6324 -2.3454 0.9661
4.7248 6.8049 -2.3452 0.9661
4.4786 6.9688 -2.3451 0.9661
3.7074 7.4065 -2.3447 0.9662
2.6151 7.8572 -2.3443 0.9662
2.3329 7.9453 -2.3442 0.9662
1.7601 8.0908 -2.3440 0.9662
1.1783 8.1952 -2.3439 0.9662
0.5906 8.2579 -2.3437 0.9662
0.2955 8.2735 -2.3437 0.9662
0.0000 8.2786 -2.3436 0.9662
-0.2955 8.2732 -2.3436 0.9662
-0.5906 8.2572 -2.3435 0.9662
-0.8849 8.2307 -2.3435 0.9662
-1.8244 7.1478 -2.0884 0.9698
-2.7531 7.3812 -2.2302 0.9678
-3.1177 7.5267 -2.3063 0.9667
-3.4388 7.5299 -2.3434 0.9662
-3.9673 7.2656 -2.3435 0.9662
-4.7964 6.9082 -2.3808 0.9656
-5.2683 7.0376 -2.4887 0.9641
-5.5262 6.8576 -2.4932 0.9640
-6.0075 6.4525 -2.4958 0.9640
-6.2342 6.2342 -2.4959 0.9640
-7.0590 5.2843 -2.4963 0.9640
-7.2435 5.0292 -2.4964 0.9640
-7.5845 4.5001 -2.4966 0.9640
-7.8870 3.9480 -2.4969 0.9640
-8.2652 3.0828 -2.4973 0.9640
-8.3705 2.7860 -2.4974 0.9640
-8.4651 2.4856 -2.4976 0.9640
-8.5490 2.1820 -2.4977 0.9640
-8.8209 0.3150 -2.4987 0.9640
8.1339 0.0000 -2.5018 0.9665
8.1281 0.2903 -2.5016 0.9665
8.0857 0.8693 -2.5013 0.9665
8.0423 1.1563 -2.4991 0.9666
7.9825 1.4402 -2.4949 0.9666
7.3980 1.8882 -2.3484 0.9686
7.3254 2.1509 -2.3483 0.9686
7.1524 2.6677 -2.3480 0.9686
6.9429 3.1707 -2.3476 0.9686
6.8248 3.4163 -2.3475 0.9686
6.2676 4.3516 -2.3469 0.9686
5.5831 5.1980 -2.3463 0.9686
5.3937 5.3937 -2.3461 0.9686
4.9945 5.7640 -2.3459 0.9686
4.7854 5.9383 -2.3457 0.9686
3.4127 6.8177 -2.3450 0.9686
3.1670 6.9348 -2.3449 0.9686
2.6640 7.1425 -2.3447 0.9686
2.4073 7.2327 -2.3446 0.9686
1.6202 7.4478 -2.3444 0.9686
1.3533 7.5006 -2.3443 0.9686
1.0847 7.5439 -2.3442 0.9686
0.8147 7.5776 -2.3441 0.9686
-0.2720 7.6158 -2.3439 0.9686
-0.8146 7.5767 -2.3439 0.9686
-1.0845 7.5427 -2.3438 0.9686
-1.3530 7.4992 -2.3438 0.9686
-1.6198 7.4460 -2.3438 0.9686
-1.7955 7.0347 -2.2331 0.9701
-2.9161 7.0401 -2.3438 0.9686
-3.1656 6.9316 -2.3438 0.9686
-3.4110 6.8143 -2.3438 0.9686
-3.6521 6.6883 -2.3439 0.9686
-3.8885 6.5538 -2.3439 0.9686
-4.6186 6.6520 -2.4908 0.9667
-4.8610 6.4936 -2.4949 0.9666
-5.5301 5.9397 -2.4962 0.9666
-5.7387 5.7387 -2.4962 0.9666
-5.9401 5.5304 -2.4963 0.9666
-6.1339 5.3151 -2.4964 0.9666
-6.3199 5.0929 -2.4965 0.9666
-6.4980 4.8642 -2.4966 0.9666
-6.8290 4.3887 -2.4968 0.9666
-6.9816 4.1424 -2.4969 0.9666
-7.3854 3.3728 -2.4973 0.9666
-7.6080 2.8376 -2.4975 0.9666
-7.7049 2.5644 -2.4977 0.9666
-7.7919 2.2879 -2.4978 0.9666
-7.9932 1.4421 -2.4982 0.9666
7.5208 0.2686 -2.5015 0.9688
7.5060 0.5368 -2.5014 0.9688
7.4816 0.8044 -2.5012 0.9688
7.2551 1.8517 -2.4890 0.9689
6.8978 2.0254 -2.3897 0.9702
6.7025 2.2308 -2.3481 0.9707
6.6182 2.4685 -2.3480 0.9707
6.4245 2.9339 -2.3477 0.9707
6.1980 3.3844 -2.3474 0.9707
6.0729 3.6032 -2.3472 0.9707
5.9401 3.8174 -2.3471 0.9707
5.7997 4.0268 -2.3470 0.9707
5.3351 4.6229 -2.3466 0.9707
4.8095 5.1658 -2.3462 0.9707
4.6219 5.3339 -2.3460 0.9707
4.2291 5.6494 -2.3458 0.9707
4.0246 5.7965 -2.3457 0.9707
3.6005 6.0683 -2.3455 0.9707
3.3814 6.1926 -2.3454 0.9707
2.9308 6.4175 -2.3452 0.9707
2.6998 6.5178 -2.3451 0.9707
2.4653 6.6097 -2.3450 0.9707
1.9873 6.7683 -2.3448 0.9707
1.7444 6.8347 -2.3447 0.9707
1.2523 6.9413 -2.3446 0.9707
1.0038 6.9814 -2.3445 0.9707
0.0000 7.0525 -2.3443 0.9707
-0.2517 7.0479 -2.3443 0.9707
-0.5031 7.0343 -2.3442 0.9707
-1.0036 6.9804 -2.3442 0.9707
-1.2521 6.9400 -2.3441 0.9707
-1.4990 6.8909 -2.3441 0.9707
-1.7440 6.8329 -2.3441 0.9707
-1.9868 6.7663 -2.3441 0.9707
-2.2270 6.6911 -2.3441 0.9707
-3.1567 6.3062 -2.3442 0.9707
-3.8212 6.4402 -2.4892 0.9689
-4.9181 5.6758 -2.4964 0.9688
-5.3108 5.3108 -2.4966 0.9688
-5.4971 5.1180 -2.4966 0.9688
-5.6765 4.9187 -2.4967 0.9688
-5.8486 4.7131 -2.4968 0.9688
-6.0133 4.5015 -2.4969 0.9688
-6.3196 4.0614 -2.4971 0.9688
-6.5938 3.6005 -2.4973 0.9688
-6.9418 2.8754 -2.4976 0.9688
-7.1300 2.3731 -2.4979 0.9688
-7.2105 2.1172 -2.4980 0.9688
-7.2819 1.8586 -2.4981 0.9688
-7.3967 1.3345 -2.4984 0.9688
6.9954 -0.0000 -2.5016 0.9707
6.9905 0.2497 -2.5015 0.9707
6.9541 0.7477 -2.5012 0.9707
6.9226 0.9953 -2.5010 0.9707
6.8332 1.4865 -2.5008 0.9707
6.5249 2.1717 -2.4592 0.9712
5.9718 2.7272 -2.3477 0.9725
5.8703 2.9385 -2.3476 0.9725
5.7614 3.1459 -2.3474 0.9725
5.6451 3.3494 -2.3473 0.9725
5.5216 3.5485 -2.3472 0.9725
5.2538 3.9330 -2.3469 0.9725
5.1098 4.1178 -2.3468 0.9725
4.9593 4.2973 -2.3467 0.9725
4.8025 4.4713 -2.3466 0.9725
4.4709 4.8021 -2.3463 0.9725
4.2964 4.9583 -2.3462 0.9725
3.9314 5.2517 -2.3460 0.9725
3.5464 5.5183 -2.3458 0.9725
2.9358 5.8650 -2.3455 0.9725
2.5097 6.0590 -2.3453 0.9725
2.0709 6.2222 -2.3451 0.9725
1.3938 6.4073 -2.3449 0.9725
1.1642 6.4528 -2.3448 0.9725
0.7009 6.5191 -2.3447 0.9725
0.2340 6.5522 -2.3446 0.9725
-0.2340 6.5520 -2.3445 0.9725
-0.9330 6.4892 -2.3445 0.9725
-2.2910 6.1425 -2.3444 0.9725
-2.5088 6.0568 -2.3444 0.9725
-2.7726 6.0712 -2.3868 0.9720
-3.0970 6.1871 -2.4743 0.9710
-3.7743 5.8729 -2.4965 0.9708
-3.9816 5.7346 -2.4965 0.9708
-4.1838 5.5889 -2.4966 0.9708
-4.5720 5.2764 -2.4967 0.9708
-5.4370 4.3814 -2.4970 0.9708
-5.5901 4.1847 -2.4971 0.9708
-5.7361 3.9826 -2.4972 0.9708
-6.0060 3.5636 -2.4974 0.9708
-6.1296 3.3470 -2.4975 0.9708
-6.3533 2.9015 -2.4977 0.9708
-6.5447 2.4410 -2.4979 0.9708
-6.7028 1.9681 -2.4982 0.9708
-6.8268 1.4851 -2.4984 0.9708
-6.8758 1.2405 -2.4985 0.9708
-6.9475 0.7469 -2.4988 0.9708
-6.9701 0.4985 -2.4989 0.9708
6.5232 0.2330 -2.5014 0.9724
6.5104 0.4656 -2.5013 0.9724
6.4893 0.6977 -2.5011 0.9724
6.4599 0.9288 -2.5010 0.9724
6.3226 1.6137 -2.5006 0.9724
6.2587 1.8377 -2.4997 0.9724
5.6330 2.5725 -2.3731 0.9738
5.4781 2.7421 -2.3476 0.9741
5.3764 2.9358 -2.3475 0.9741
5.2680 3.1256 -2.3474 0.9741
3.6689 4.9010 -2.3461 0.9741
3.3096 5.1498 -2.3459 0.9741
3.1236 5.2645 -2.3458 0.9741
2.7398 5.4735 -2.3456 0.9741
2.3422 5.6546 -2.3455 0.9741
2.1388 5.7344 -2.3454 0.9741
1.5134 5.9296 -2.3452 0.9741
1.3008 5.9797 -2.3451 0.9741
0.8709 6.0569 -2.3450 0.9741
0.6541 6.0840 -2.3449 0.9741
0.0000 6.1188 -2.3448 0.9741
-0.4365 6.1030 -2.3447 0.9741
-1.0863 6.0212 -2.3447 0.9741
-1.3005 5.9786 -2.3447 0.9741
-1.5131 5.9283 -2.3447 0.9741
-1.7237 5.8705 -2.3447 0.9741
-1.9322 5.8052 -2.3447 0.9741
-2.1734 5.8270 -2.3833 0.9737
-2.4548 5.9264 -2.4582 0.9729
-2.7000 5.9122 -2.4908 0.9725
-2.9126 5.8187 -2.4936 0.9725
-3.3245 5.6031 -2.4967 0.9725
-3.7159 5.3519 -2.4968 0.9725
-3.9046 5.2159 -2.4968 0.9725
-4.0883 5.0733 -2.4969 0.9725
-4.7692 4.4403 -2.4971 0.9725
-5.3532 3.7168 -2.4974 0.9725
-5.4826 3.5235 -2.4975 0.9725
-5.7204 3.1236 -2.4977 0.9725
-5.8285 2.9175 -2.4978 0.9725
-6.1854 2.0587 -2.4982 0.9725
-6.4166 1.1577 -2.4987 0.9725
-6.4542 0.9280 -2.4988 0.9725
-6.4835 0.6970 -2.4989 0.9725
-6.5046 0.4652 -2.4990 0.9725
-6.5174 0.2328 -2.4992 0.9725
6.1119 -0.0000 -2.5015 0.9739
6.0957 0.4360 -2.5012 0.9739
5.9200 1.5110 -2.5006 0.9739
5.8620 1.7212 -2.5005 0.9739
5.6339 2.3336 -2.4958 0.9740
5.5413 2.5306 -2.4932 0.9740
5.1136 2.7922 -2.3846 0.9751
4.8248 3.1007 -2.3473 0.9755
4.3336 3.7551 -2.3469 0.9755
4.1966 3.9072 -2.3468 0.9755
3.7544 4.3328 -2.3464 0.9755
3.4355 4.5893 -2.3463 0.9755
3.0991 4.8223 -2.3461 0.9755
2.9249 4.9296 -2.3460 0.9755
2.1932 5.2950 -2.3456 0.9755
2.0028 5.3697 -2.3456 0.9755
1.6145 5.4986 -2.3454 0.9755
1.4172 5.5525 -2.3454 0.9755
1.2181 5.5994 -2.3453 0.9755
0.8155 5.6718 -2.3452 0.9755
0.4088 5.7153 -2.3451 0.9755
0.2045 5.7262 -2.3451 0.9755
0.0000 5.7297 -2.3450 0.9755
-0.4087 5.7150 -2.3450 0.9755
-0.8154 5.6711 -2.3449 0.9755
-1.8962 5.6971 -2.4574 0.9744
-2.3311 5.6277 -2.4931 0.9740
-2.7308 5.4555 -2.4969 0.9740
-3.6563 4.8843 -2.4971 0.9740
-3.9956 4.6112 -2.4972 0.9740
-4.1577 4.4657 -2.4972 0.9740
-4.3146 4.3146 -2.4973 0.9740
-4.4659 4.1579 -2.4973 0.9740
-4.6116 3.9960 -2.4974 0.9740
-4.8852 3.6570 -2.4975 0.9740
-5.0128 3.4804 -2.4976 0.9740
-5.2486 3.1142 -2.4978 0.9740
-5.3566 2.9249 -2.4979 0.9740
-5.4578 2.7320 -2.4980 0.9740
-5.5520 2.5355 -2.4981 0.9740
-5.6392 2.3358 -2.4981 0.9740
-5.7192 2.1332 -2.4982 0.9740
-5.7919 1.9277 -2.4983 0.9740
-5.8573 1.7199 -2.4985 0.9740
-5.9152 1.5098 -2.4986 0.9740
-5.9656 1.2977 -2.4987 0.9740
-6.0435 0.8689 -2.4989 0.9740
-6.0710 0.6527 -2.4990 0.9740
-6.1026 0.2180 -2.4992 0.9740
5.7395 0.0000 -2.5014 0.9753
5.7356 0.2048 -2.5013 0.9753
5.7244 0.4094 -2.5012 0.9753
5.7059 0.6134 -2.5010 0.9753
5.6470 1.0188 -2.5008 0.9753
5.6068 1.2197 -2.5007 0.9753
5.5594 1.4190 -2.5006 0.9753
5.2999 2.1953 -2.5001 0.9753
5.2133 2.3808 -2.4978 0.9753
4.8607 2.8840 -2.4632 0.9756
4.6466 2.9862 -2.4072 0.9762
4.4413 3.0837 -2.3564 0.9767
4.1933 3.3792 -2.3471 0.9768
4.0698 3.5265 -2.3469 0.9768
3.5259 4.0692 -2.3466 0.9768
3.3783 4.1922 -2.3465 0.9768
3.2264 4.3100 -2.3464 0.9768
3.0704 4.4222 -2.3463 0.9768
2.9105 4.5288 -2.3462 0.9768
2.7469 4.6297 -2.3461 0.9768
2.5798 4.7246 -2.3460 0.9768
2.4095 4.8135 -2.3460 0.9768
2.2361 4.8963 -2.3459 0.9768
1.8810 5.0430 -2.3457 0.9768
1.5163 5.1641 -2.3456 0.9768
0.9555 5.2962 -2.3454 0.9768
0.5753 5.3506 -2.3453 0.9768
0.3839 5.3677 -2.3453 0.9768
0.1921 5.3779 -2.3453 0.9768
-0.5752 5.3502 -2.3451 0.9768
-0.7658 5.3262 -2.3451 0.9768
-1.4016 5.4915 -2.4700 0.9756
-1.6102 5.4839 -2.4909 0.9754
-2.0008 5.3645 -2.4953 0.9753
-2.5647 5.1237 -2.4971 0.9753
-2.7460 5.0289 -2.4972 0.9753
-3.0978 4.8203 -2.4972 0.9753
-3.5955 4.4618 -2.4973 0.9753
-3.7526 4.3307 -2.4974 0.9753
-3.9048 4.1941 -2.4974 0.9753
-4.0521 4.0521 -2.4975 0.9753
-4.3311 3.7529 -2.4976 0.9753
-4.7078 3.2687 -2.4978 0.9753
-4.8216 3.0987 -2.4979 0.9753
-5.1257 2.5657 -2.4981 0.9753
-5.4395 1.8104 -2.4985 0.9753
-5.5552 1.4179 -2.4987 0.9753
-5.6025 1.2188 -2.4988 0.9753
-5.6427 1.0180 -2.4989 0.9753
-5.6757 0.8160 -2.4990 0.9753
5.4001 0.1929 -2.5012 0.9765
5.3896 0.3855 -2.5011 0.9765
5.3721 0.5776 -2.5010 0.9765
5.1252 1.7058 -2.5003 0.9765
4.9129 2.2436 -2.5000 0.9765
4.8290 2.4172 -2.4997 0.9765
4.4175 3.0671 -2.4893 0.9766
4.0323 3.2494 -2.3971 0.9774
3.7109 3.4549 -2.3469 0.9779
3.5850 3.5850 -2.3468 0.9779
3.4547 3.7106 -2.3467 0.9779
3.3199 3.8314 -2.3467 0.9779
3.1809 3.9473 -2.3466 0.9779
3.0379 4.0581 -2.3465 0.9779
2.8910 4.1638 -2.3464 0.9779
2.2687 4.5323 -2.3461 0.9779
2.1054 4.6102 -2.3460 0.9779
1.4277 4.8624 -2.3458 0.9779
1.0772 4.9516 -2.3456 0.9779
0.7211 5.0157 -2.3456 0.9779
0.3615 5.0542 -2.3455 0.9779
0.0000 5.0669 -2.3454 0.9779
-0.1808 5.0636 -2.3454 0.9779
-0.7519 5.2296 -2.4456 0.9770
-1.5188 5.1725 -2.4954 0.9765
-1.7038 5.1189 -2.4973 0.9765
-2.0646 4.9844 -2.4973 0.9765
-2.2412 4.9075 -2.4973 0.9765
-2.9169 4.5388 -2.4974 0.9765
-3.0771 4.4319 -2.4974 0.9765
-3.2334 4.3193 -2.4975 0.9765
-3.5334 4.0777 -2.4975 0.9765
-3.8154 3.8154 -2.4976 0.9765
-4.0780 3.5338 -2.4978 0.9765
-4.2017 3.3859 -2.4978 0.9765
-4.3200 3.2339 -2.4979 0.9765
-4.4328 3.0777 -2.4979 0.9765
-4.7368 2.5865 -2.4982 0.9765
-4.8262 2.4158 -2.4982 0.9765
-4.9096 2.2421 -2.4983 0.9765
-5.0573 1.8863 -2.4985 0.9765
-5.1216 1.7046 -2.4986 0.9765
-5.1794 1.5208 -2.4987 0.9765
-5.2306 1.3350 -2.4988 0.9765
-5.3129 0.9585 -2.4990 0.9765
-5.3439 0.7683 -2.4991 0.9765
-5.3682 0.5771 -2.4992 0.9765
-5.3856 0.3851 -2.4993 0.9765
5.0694 0.5450 -2.5010 0.9775
5.0465 0.7256 -2.5009 0.9775
5.0172 0.9052 -2.5008 0.9775
4.9394 1.2607 -2.5006 0.9775
4.8910 1.4361 -2.5004 0.9775
4.5574 2.2812 -2.4999 0.9775
4.4729 2.4424 -2.4998 0.9776
4.1798 2.9021 -2.4960 0.9776
3.4805 3.4805 -2.4144 0.9783
3.0018 3.7250 -2.3467 0.9789
2.8668 3.8296 -2.3466 0.9789
2.7282 3.9294 -2.3465 0.9789
1.8303 4.4187 -2.3461 0.9789
1.3474 4.5887 -2.3459 0.9789
1.0165 4.6729 -2.3458 0.9789
0.8491 4.7061 -2.3457 0.9789
0.5112 4.7546 -2.3457 0.9789
0.0000 4.9265 -2.4166 0.9783
-0.1783 4.9930 -2.4507 0.9780
-0.5429 5.0496 -2.4912 0.9776
-0.9028 5.0040 -2.4942 0.9776
-1.0816 4.9719 -2.4959 0.9776
-1.2591 4.9333 -2.4975 0.9776
-1.4344 4.8852 -2.4975 0.9776
-1.7793 4.7704 -2.4975 0.9776
-1.9484 4.7039 -2.4975 0.9776
-2.2790 4.5529 -2.4975 0.9776
-2.4401 4.4687 -2.4975 0.9776
-2.5981 4.3788 -2.4975 0.9776
-3.1950 3.9647 -2.4977 0.9776
-3.3345 3.8482 -2.4977 0.9776
-3.4698 3.7268 -2.4977 0.9776
-3.6007 3.6007 -2.4978 0.9776
-3.7270 3.4699 -2.4978 0.9776
-3.9652 3.1953 -2.4980 0.9776
-4.0768 3.0519 -2.4980 0.9776
-4.2844 2.7534 -2.4981 0.9776
-4.3800 2.5988 -2.4982 0.9776
-4.4701 2.4409 -2.4983 0.9776
-4.5545 2.2798 -2.4984 0.9776
-4.7059 1.9492 -2.4985 0.9776
-4.8333 1.6087 -2.4987 0.9776
-4.8878 1.4352 -2.4988 0.9776
-4.9360 1.2598 -2.4989 0.9776
-4.9780 1.0829 -2.4990 0.9776
-5.0430 0.7251 -2.4991 0.9776
-5.0823 0.3635 -2.4993 0.9776
4.8214 -0.0000 -2.5012 0.9785
4.8181 0.1721 -2.5011 0.9785
4.8087 0.3439 -2.5010 0.9785
4.7716 0.6860 -2.5008 0.9785
4.7101 1.0246 -2.5006 0.9785
4.6703 1.1920 -2.5005 0.9785
4.6246 1.3579 -2.5004 0.9785
4.4524 1.8443 -2.5001 0.9785
4.3836 2.0019 -2.5000 0.9785
4.3092 2.1570 -2.4999 0.9785
3.8553 2.8861 -2.4984 0.9785
3.6355 3.1501 -2.4955 0.9786
3.5189 3.2762 -2.4943 0.9786
3.2732 3.5157 -2.4920 0.9786
2.9716 3.6875 -2.4568 0.9789
2.1976 4.0246 -2.3789 0.9795
2.0467 4.0887 -2.3720 0.9796
1.5953 4.2771 -2.3682 0.9796
0.9842 4.5242 -2.4019 0.9794
0.8274 4.5862 -2.4176 0.9792
0.6683 4.6482 -2.4362 0.9791
0.3414 4.7732 -2.4826 0.9787
-0.3430 4.7954 -2.4941 0.9786
-0.8548 4.7379 -2.4976 0.9785
-1.0234 4.7044 -2.4976 0.9785
-1.3564 4.6194 -2.4976 0.9785
-2.0000 4.3794 -2.4976 0.9785
-2.1550 4.3052 -2.4977 0.9785
-2.3074 4.2256 -2.4977 0.9785
-2.4567 4.1406 -2.4977 0.9785
-2.8854 3.8544 -2.4978 0.9785
-3.0211 3.7490 -2.4978 0.9785
-3.4047 3.4047 -2.4979 0.9785
-3.6391 3.1533 -2.4980 0.9785
-3.7494 3.0215 -2.4981 0.9785
-3.8550 2.8858 -2.4981 0.9785
-3.9556 2.7464 -2.4982 0.9785
-4.1417 2.4574 -2.4983 0.9785
-4.3810 2.0007 -2.4985 0.9785
-4.5702 1.5211 -2.4988 0.9785
-4.6217 1.3571 -2.4989 0.9785
-4.7408 0.8553 -2.4991 0.9785
-4.7685 0.6856 -2.4992 0.9785
-4.7901 0.5150 -2.4993 0.9785
-4.8150 0.1720 -2.4995 0.9785
4.5636 0.1630 -2.5011 0.9794
4.5400 0.4881 -2.5009 0.9794
4.4933 0.8107 -2.5007 0.9794
4.4613 0.9705 -2.5006 0.9794
4.4237 1.1291 -2.5005 0.9794
4.3804 1.2862 -2.5004 0.9794
4.0060 2.1874 -2.4999 0.9794
3.8394 2.4675 -2.4997 0.9794
3.6534 2.7349 -2.4995 0.9794
3.5533 2.8634 -2.4994 0.9794
3.3383 3.1080 -2.4981 0.9794
3.2237 3.2237 -2.4970 0.9794
3.1053 3.3354 -2.4960 0.9794
2.8574 3.5458 -2.4942 0.9794
2.5956 3.7384 -2.4927 0.9795
2.3213 3.9124 -2.4916 0.9795
1.2813 4.3637 -2.4909 0.9795
1.1248 4.4071 -2.4912 0.9795
0.9670 4.4451 -2.4916 0.9795
0.8079 4.4777 -2.4920 0.9795
0.6477 4.5047 -2.4926 0.9795
0.1626 4.5523 -2.4949 0.9794
0.0000 4.5569 -2.4958 0.9794
-0.1627 4.5559 -2.4969 0.9794
-1.1278 4.4188 -2.4978 0.9794
-1.2848 4.3757 -2.4978 0.9794
-1.7452 4.2133 -2.4978 0.9794
-1.8945 4.1483 -2.4978 0.9794
-2.0414 4.0781 -2.4978 0.9794
-2.1856 4.0027 -2.4978 0.9794
-2.3271 3.9221 -2.4978 0.9794
-2.4657 3.8366 -2.4979 0.9794
-2.6010 3.7462 -2.4979 0.9794
-2.7331 3.6510 -2.4979 0.9794
-2.8617 3.5512 -2.4980 0.9794
-3.1079 3.3381 -2.4980 0.9794
-3.3382 3.1080 -2.4981 0.9794
-3.4471 2.9869 -2.4982 0.9794
-3.6515 2.7335 -2.4983 0.9794
-3.7469 2.6015 -2.4983 0.9794
-3.8374 2.4662 -2.4984 0.9794
-3.9231 2.3277 -2.4984 0.9794
-4.0038 2.1862 -2.4985 0.9794
-4.0794 2.0420 -2.4986 0.9794
-4.3778 1.2854 -2.4989 0.9794
-4.4905 0.8102 -2.4992 0.9794
-4.5519 0.3256 -2.4994 0.9794
-4.5608 0.1629 -2.4995 0.9794
4.3292 0.1546 -2.5011 0.9802
4.3208 0.3090 -2.5010 0.9802
4.3068 0.4630 -2.5009 0.9802
4.2874 0.6164 -2.5008 0.9802
4.2625 0.7690 -2.5007 0.9802
4.2322 0.9207 -2.5006 0.9802
4.1965 1.0711 -2.5005 0.9802
4.1555 1.2202 -2.5004 0.9802
4.0575 1.5134 -2.5003 0.9802
4.0008 1.6572 -2.5002 0.9802
3.7237 2.2094 -2.4998 0.9802
3.6423 2.3408 -2.4997 0.9802
3.1683 2.9498 -2.4993 0.9802
2.9496 3.1681 -2.4992 0.9802
2.8342 3.2709 -2.4988 0.9802
2.3373 3.6369 -2.4960 0.9802
1.6535 3.9918 -2.4946 0.9802
1.5099 4.0483 -2.4946 0.9802
1.3645 4.0997 -2.4946 0.9802
1.0688 4.1874 -2.4951 0.9802
0.9188 4.2235 -2.4955 0.9802
0.7676 4.2544 -2.4959 0.9802
0.1544 4.3240 -2.4980 0.9802
-0.3087 4.3156 -2.4980 0.9802
-0.7682 4.2578 -2.4979 0.9802
-0.9197 4.2276 -2.4979 0.9802
-1.7973 3.9355 -2.4979 0.9802
-2.3392 3.6398 -2.4980 0.9802
-2.4676 3.5540 -2.4980 0.9802
-2.5929 3.4637 -2.4980 0.9802
-2.8335 3.2700 -2.4981 0.9802
-2.9484 3.1669 -2.4981 0.9802
-3.0596 3.0596 -2.4982 0.9802
-3.6405 2.3396 -2.4985 0.9802
-3.7218 2.2082 -2.4985 0.9802
-3.8701 1.9372 -2.4987 0.9802
-4.0553 1.5125 -2.4989 0.9802
-4.1068 1.3669 -2.4989 0.9802
-4.1941 1.0705 -2.4991 0.9802
-4.2298 0.9201 -2.4992 0.9802
-4.2601 0.7686 -2.4993 0.9802
-4.2849 0.6161 -2.4993 0.9802
-4.3043 0.4628 -2.4994 0.9802
