ply
format ascii 1.0
element vertex 1254
property float32 x
property float32 y
property float32 z
property float32 I
end_header
-40.7763 -13.5716 7.5777 0.8398
-34.1013 -17.0699 6.7242 0.8565
-32.7025 -21.0166 6.8545 0.8539
-32.2854 -22.4162 6.9304 0.8524
-32.8068 -26.4374 7.4292 0.8427
-34.6728 -30.0441 8.0896 0.8300
-0.0000 -46.5512 8.2082 0.8277
8.7441 -40.1958 7.2534 0.8461
12.5172 -42.6298 7.8341 0.8349
16.5739 -44.4363 8.3625 0.8248
43.5835 -4.6857 7.7292 0.8369
18.1399 -0.6479 3.2006 0.9289
-46.8237 -10.1859 7.3409 0.8237
-44.6087 -11.3857 7.0529 0.8300
-38.8584 -14.4934 6.3535 0.8455
-37.1822 -15.4014 6.1654 0.8497
-34.1016 -17.0700 5.8421 0.8570
-32.2857 -22.4164 6.0213 0.8530
-31.3392 -23.4602 5.9972 0.8535
-3.9537 -15.4904 2.4491 0.9374
1.5463 -43.2956 6.6369 0.8392
5.5290 -38.4548 5.9516 0.8545
8.7441 -40.1961 6.3018 0.8467
10.6182 -41.6016 6.5774 0.8405
14.3976 -43.2580 6.9843 0.8315
16.5740 -44.4367 7.2655 0.8254
30.6764 -10.2101 4.9529 0.8774
41.4795 -4.4595 6.3911 0.8447
-44.6091 -11.3858 5.9953 0.8305
-38.3455 -15.8833 5.4048 0.8458
-35.8802 -16.3860 5.1366 0.8529
-33.0011 -18.0199 4.8964 0.8593
-31.3395 -23.4605 5.0979 0.8539
1.5463 -43.2944 5.6414 0.8397
7.1687 -39.7337 5.2577 0.8497
8.7442 -40.1965 5.3568 0.8471
10.6183 -41.6020 5.5911 0.8410
14.3978 -43.2584 5.9370 0.8320
16.5742 -44.4372 6.1760 0.8259
13.9627 -25.5708 3.7940 0.8891
43.6328 -4.6910 5.7146 0.8378
39.2654 -2.8083 5.1262 0.8532
-46.8246 -10.1861 5.1457 0.8247
-46.6206 -11.8992 5.1667 0.8240
-39.3786 -14.6875 4.5131 0.8444
-43.1684 -17.8810 5.0174 0.8286
-33.0017 -18.0203 4.0377 0.8596
-36.3626 -21.5749 4.5403 0.8436
-37.0009 -23.7791 4.7230 0.8378
-34.6767 -30.0475 4.9271 0.8314
1.5462 -43.2933 4.6519 0.8401
2.9348 -41.0341 4.4176 0.8475
8.7443 -40.1968 4.4173 0.8475
14.3979 -43.2588 4.8957 0.8324
16.5743 -44.4376 5.0929 0.8263
48.5790 -6.9846 5.2701 0.8208
43.6311 -4.6908 4.7122 0.8382
18.0639 -0.6452 1.9410 0.9299
-46.8251 -10.1862 4.0566 0.8250
-46.6214 -11.8994 4.0731 0.8244
-20.9307 -6.1458 1.8467 0.9162
-47.2012 -15.7100 4.2112 0.8190
-39.3794 -14.6877 3.5579 0.8447
-43.1867 -17.8885 3.9571 0.8289
-35.8818 -16.3867 3.3393 0.8536
-33.0023 -18.0206 3.1831 0.8599
-37.0267 -23.7956 3.7259 0.8380
-31.3401 -23.4609 3.3140 0.8546
-19.5468 -15.7518 2.1251 0.9041
-34.6780 -30.0487 3.8843 0.8318
-3.9560 -15.4996 1.3541 0.9378
-0.0000 -46.5525 3.9408 0.8295
4.1396 -38.5036 3.2782 0.8560
5.5291 -38.4557 3.2889 0.8556
7.1126 -39.4225 3.3911 0.8515
10.5351 -41.2762 3.6062 0.8428
14.3980 -43.2592 3.8595 0.8328
16.5745 -44.4380 4.0149 0.8266
13.9376 -25.5249 2.4619 0.8898
30.0806 -32.3088 3.7369 0.8376
18.0389 -0.6443 1.5280 0.9301
-46.6222 -11.8996 2.9837 0.8246
-47.0457 -15.6583 3.0747 0.8198
-39.3802 -14.6880 2.6063 0.8450
-39.4343 -19.7395 2.7346 0.8380
-33.0029 -18.0209 2.3317 0.8601
-36.2113 -21.4852 2.6110 0.8447
-36.7431 -23.6134 2.7084 0.8394
-31.3405 -23.4612 2.4277 0.8548
-34.6793 -30.0498 2.8455 0.8320
-24.7214 -24.7214 2.1680 0.8693
-3.9568 -15.5027 0.9921 0.9379
-1.7722 -49.6196 3.0789 0.8196
-0.0000 -46.3474 2.8740 0.8305
1.5461 -43.2910 2.6862 0.8406
2.9610 -41.3997 2.5738 0.8468
4.1395 -38.5027 2.4013 0.8562
8.7444 -40.1974 2.5509 0.8480
10.5349 -41.2755 2.6416 0.8431
6.3247 -19.0027 1.2419 0.9229
30.0772 -32.3052 2.7371 0.8379
44.0581 -4.7368 2.7478 0.8373
-46.0027 -1.6430 1.8151 0.8317
-46.6231 -11.8998 1.8973 0.8248
-20.9374 -6.1478 0.8604 0.9164
-47.0490 -15.6594 1.9552 0.8200
-29.4566 -10.9867 1.2397 0.8817
-43.0432 -17.8291 1.8371 0.8299
-33.0035 -18.0213 1.4827 0.8603
-36.8116 -23.6574 1.7254 0.8393
-23.8021 -25.5653 1.3773 0.8695
-3.4516 -15.8668 0.6403 0.9371
1.5703 -43.9663 1.7347 0.8385
2.9609 -41.3987 1.6366 0.8469
4.2340 -19.4634 0.7854 0.9234
4.9075 -19.2273 0.7825 0.9236
5.6364 -19.1959 0.7889 0.9230
7.0636 -21.2227 0.8820 0.9144
16.7574 -44.9282 1.8908 0.8253
48.5764 -6.9842 1.9351 0.8216
39.4586 -2.8222 1.5599 0.8535
18.0208 -0.6436 0.7110 0.9304
-46.6239 -11.9000 0.8128 0.8249
-42.3945 -17.5604 0.7751 0.8323
-35.8841 -16.3878 0.6664 0.8540
-39.0145 -19.5293 0.7370 0.8398
-33.0041 -18.0216 0.6352 0.8603
-36.2118 -21.4855 0.7112 0.8450
-36.7451 -23.6146 0.7378 0.8397
-32.2877 -22.4178 0.6640 0.8545
-31.3411 -23.4617 0.6613 0.8550
-34.6818 -30.0520 0.7752 0.8323
-3.4326 -15.7796 0.2728 0.9374
1.5702 -43.9652 0.7431 0.8386
3.9112 -36.3798 0.6181 0.8638
5.5292 -38.4566 0.6563 0.8560
4.9075 -19.2272 0.3352 0.9237
5.8355 -19.8740 0.3499 0.9205
14.5570 -43.7368 0.7786 0.8316
19.1112 -46.1385 0.8436 0.8189
13.9005 -25.4569 0.4899 0.8904
43.5766 -4.6850 0.7403 0.8392
39.4581 -2.8221 0.6682 0.8536
-46.0197 -1.6436 -0.2594 0.8318
-46.8269 -10.1866 -0.2698 0.8256
-46.6247 -11.9002 -0.2709 0.8249
-47.0637 -15.6643 -0.2793 0.8200
-39.3825 -14.6889 -0.2366 0.8452
-42.4554 -17.5856 -0.2587 0.8321
-39.0755 -19.5598 -0.2460 0.8396
-33.0047 -18.0219 -0.2117 0.8603
-36.2869 -21.5300 -0.2376 0.8447
-32.2881 -22.4180 -0.2213 0.8545
-31.3414 -23.4619 -0.2204 0.8550
-32.8085 -26.4388 -0.2371 0.8449
-34.6831 -30.0531 -0.2584 0.8323
-3.9591 -15.5118 -0.0901 0.9380
-3.4139 -15.6935 -0.0904 0.9378
-1.6658 -46.6412 -0.2628 0.8297
-0.0000 -46.5538 -0.2621 0.8301
2.9608 -41.3967 -0.2337 0.8470
3.8834 -36.1206 -0.2045 0.8647
5.1006 -19.9838 -0.1161 0.9208
16.7577 -44.9291 -0.2700 0.8255
30.0635 -32.2905 -0.2484 0.8382
43.5780 -4.6851 -0.2468 0.8392
18.0102 -0.6432 -0.1015 0.9304
-46.0203 -1.6436 -1.2967 0.8317
-20.9475 -6.1507 -0.6147 0.9163
-39.3833 -14.6892 -1.1836 0.8452
-35.8857 -16.3885 -1.1108 0.8540
-32.2884 -22.4183 -1.1068 0.8545
-32.8088 -26.4390 -1.1865 0.8448
3.8733 -36.0265 -1.0203 0.8650
7.1691 -39.7359 -1.1369 0.8508
5.1005 -19.9837 -0.5807 0.9208
5.8243 -19.8357 -0.5821 0.9206
16.7578 -44.9295 -1.3503 0.8254
20.5888 -45.0832 -1.3956 0.8201
13.8759 -25.4119 -0.8153 0.8906
30.0594 -32.2861 -1.2421 0.8382
39.4569 -2.8220 -1.1139 0.8536
18.0049 -0.6431 -0.5073 0.9304
-45.9568 -4.9409 -2.3441 0.8310
-32.5622 -4.6817 -1.6683 0.8766
-21.5435 -4.6865 -1.1181 0.9155
-45.1923 -11.5346 -2.3654 0.8296
-20.9508 -6.1517 -1.1074 0.9163
-39.3841 -14.6895 -2.1317 0.8451
-39.0768 -19.5604 -2.2162 0.8394
-33.0059 -18.0226 -1.9071 0.8602
-36.7481 -23.6166 -2.2153 0.8395
-31.3421 -23.4624 -1.9855 0.8549
-32.8090 -26.4392 -2.1369 0.8447
-34.6857 -30.0553 -2.3276 0.8321
-32.6458 -35.0640 -2.4296 0.8254
-14.3779 -26.3312 -1.5215 0.8868
-10.3296 -27.6946 -1.4990 0.8884
-9.5157 -28.5901 -1.5281 0.8863
-3.3963 -15.6124 -0.8103 0.9380
-6.8535 -47.6670 -2.4422 0.8246
-3.4315 -47.9784 -2.4394 0.8248
1.5666 -43.8639 -2.2259 0.8388
3.8525 -35.8336 -1.8277 0.8656
5.5205 -38.3962 -1.9673 0.8561
7.1579 -39.6735 -2.0445 0.8509
14.5344 -43.6690 -2.3341 0.8317
16.5735 -44.4353 -2.4051 0.8270
18.1185 -43.7420 -2.4011 0.8273
13.2769 -29.0723 -1.6208 0.8798
13.8636 -25.3894 -1.4671 0.8906
26.6981 -38.4526 -2.3740 0.8290
27.9952 -37.3972 -2.3691 0.8294
29.3179 -36.3814 -2.3696 0.8293
33.0708 -33.0709 -2.3719 0.8292
36.4584 -33.9440 -2.5263 0.8191
37.6574 -32.6304 -2.5270 0.8191
40.9616 -28.4402 -2.5290 0.8190
41.9604 -26.9663 -2.5295 0.8189
42.9054 -25.4570 -2.5301 0.8189
43.7957 -23.9143 -2.5306 0.8188
44.3265 -18.3606 -2.4332 0.8252
35.3258 -11.7576 -1.8881 0.8615
39.4563 -2.8220 -2.0061 0.8535
-28.3353 -1.0120 -2.0789 0.8925
-20.9747 -6.1587 -1.6028 0.9161
-29.9933 -11.1869 -2.3472 0.8795
-29.1969 -13.3338 -2.3535 0.8792
-21.2223 -10.6232 -1.7401 0.9092
-28.2418 -15.4212 -2.3593 0.8789
-27.7062 -16.4389 -2.3621 0.8788
-27.1328 -17.4372 -2.3648 0.8787
-25.8743 -19.3693 -2.3698 0.8784
-23.7223 -22.0862 -2.3765 0.8781
-22.9377 -22.9377 -2.3785 0.8780
-19.4929 -26.0395 -2.3850 0.8777
-18.5607 -26.7325 -2.3862 0.8776
-14.3779 -26.3311 -2.1997 0.8866
-10.3893 -25.0821 -1.9906 0.8968
-10.3238 -27.6791 -2.1661 0.8883
-9.5158 -28.5904 -2.2094 0.8862
-3.4816 -32.3834 -2.3881 0.8775
-2.3226 -32.4733 -2.3871 0.8776
2.3172 -32.3986 -2.3816 0.8779
5.0986 -19.9762 -1.5117 0.9206
12.3258 -29.7570 -2.3616 0.8788
13.3659 -29.2673 -2.3591 0.8789
12.8730 -25.7171 -2.1087 0.8911
12.4045 -22.7171 -1.8978 0.9014
17.4136 -27.0961 -2.3616 0.8788
18.3742 -26.4639 -2.3622 0.8788
19.3118 -25.7976 -2.3628 0.8788
21.4787 -26.6534 -2.5099 0.8717
22.4805 -25.9438 -2.5171 0.8714
23.3973 -25.1305 -2.5176 0.8713
24.2846 -24.2846 -2.5181 0.8713
25.1411 -23.4072 -2.5187 0.8713
25.9656 -22.4993 -2.5192 0.8713
28.2371 -19.6053 -2.5205 0.8712
28.9235 -18.5880 -2.5209 0.8712
29.5729 -17.5464 -2.5213 0.8712
30.7994 -10.2510 -2.3801 0.8779
31.3175 -7.9933 -2.3699 0.8784
20.9909 -4.5663 -1.5751 0.9174
32.2445 -2.3062 -2.3703 0.8784
17.9944 -0.6427 -1.3202 0.9303
-25.8690 -0.9239 -2.4851 0.9012
-25.1758 -1.8006 -2.4232 0.9035
-24.1742 -2.5990 -2.3342 0.9069
-24.0671 -3.4603 -2.3343 0.9069
-22.2769 -4.0192 -2.1732 0.9131
-22.4754 -9.3096 -2.3355 0.9069
-22.1311 -10.1070 -2.3358 0.9069
-21.3855 -11.6773 -2.3393 0.9067
-20.5341 -13.1965 -2.3434 0.9066
-19.5720 -14.6514 -2.3472 0.9064
-12.2660 -9.8845 -1.5124 0.9387
-17.9316 -16.6949 -2.3521 0.9062
-16.7152 -17.9534 -2.3550 0.9061
-16.0724 -18.5485 -2.3563 0.9061
-14.7220 -19.6663 -2.3585 0.9060
-14.0165 -20.1876 -2.3595 0.9060
-12.5492 -21.1506 -2.3611 0.9059
-11.7895 -21.5909 -2.3617 0.9059
-11.0139 -22.0029 -2.3623 0.9059
-9.4188 -22.7391 -2.3629 0.9058
-8.6018 -23.0624 -2.3631 0.9058
-6.9347 -23.6173 -2.3631 0.9058
-3.9623 -15.5240 -1.5382 0.9376
-3.3912 -15.5889 -1.5316 0.9379
-4.3687 -24.2140 -2.3622 0.9059
-3.5009 -24.3489 -2.3617 0.9059
-0.8772 -24.5600 -2.3594 0.9060
-0.0000 -24.5656 -2.3584 0.9060
0.8020 -22.4544 -2.1571 0.9137
1.7508 -24.4795 -2.3562 0.9061
2.6220 -24.3881 -2.3549 0.9061
5.0986 -19.9761 -1.9793 0.9205
5.8221 -19.8282 -1.9840 0.9203
7.7477 -23.2781 -2.3553 0.9061
10.1982 -22.3310 -2.3569 0.9061
11.7702 -21.5555 -2.3579 0.9060
13.1937 -22.2368 -2.4823 0.9013
14.1437 -22.0080 -2.5116 0.9002
14.9231 -21.4933 -2.5121 0.9002
15.6836 -20.9509 -2.5125 0.9002
16.4244 -20.3814 -2.5130 0.9002
18.5184 -18.5184 -2.5143 0.9001
19.1705 -17.8484 -2.5147 0.9001
20.9776 -15.7037 -2.5157 0.9001
22.0500 -14.1707 -2.5164 0.9000
22.5443 -13.3761 -2.5167 0.9000
23.4460 -11.7362 -2.5172 0.9000
24.8854 -8.2827 -2.5180 0.9000
25.1165 -7.3749 -2.5131 0.9002
23.8696 -6.0923 -2.3651 0.9057
20.9908 -4.5663 -2.0624 0.9173
24.3865 -3.5063 -2.3653 0.9057
18.9291 -2.0351 -1.8278 0.9264
24.5752 -1.7577 -2.3654 0.9057
17.9891 -0.6425 -1.7281 0.9302
-20.9354 -0.7477 -2.4884 0.9191
-20.8298 -2.2394 -2.4885 0.9191
-19.2890 -4.9232 -2.3647 0.9229
-18.8828 -5.5445 -2.3377 0.9238
-18.6741 -6.2153 -2.3379 0.9238
-18.1859 -7.5329 -2.3382 0.9238
-17.9070 -8.1779 -2.3384 0.9238
-17.6053 -8.8126 -2.3386 0.9238
-16.9352 -10.0481 -2.3391 0.9237
-15.7695 -11.8049 -2.3399 0.9237
-12.2671 -9.8854 -1.8714 0.9385
-14.4229 -13.4282 -2.3408 0.9237
-13.9364 -13.9364 -2.3412 0.9237
-13.4320 -14.4270 -2.3415 0.9237
-11.8183 -15.7874 -2.3426 0.9236
-10.6679 -16.5996 -2.3439 0.9236
-8.8382 -17.6565 -2.3454 0.9235
-8.2035 -17.9632 -2.3458 0.9235
-4.9142 -13.1754 -1.6704 0.9449
-4.2167 -14.3608 -1.7779 0.9415
-2.7232 -15.0938 -1.8219 0.9401
-2.2095 -15.3673 -1.8442 0.9394
-2.1138 -19.6610 -2.3489 0.9234
-0.7061 -19.7693 -2.3498 0.9234
0.7063 -19.7769 -2.3507 0.9234
2.8179 -19.5993 -2.3521 0.9233
4.8996 -19.1965 -2.3534 0.9233
5.5827 -19.0129 -2.3538 0.9233
6.2589 -18.8049 -2.3542 0.9233
8.7711 -19.2060 -2.5081 0.9185
9.4526 -18.8839 -2.5085 0.9185
10.7792 -18.1674 -2.5093 0.9184
11.4226 -17.7739 -2.5097 0.9184
12.0516 -17.3576 -2.5101 0.9184
12.6654 -16.9189 -2.5105 0.9184
13.2631 -16.4585 -2.5108 0.9184
14.4074 -15.4747 -2.5115 0.9184
15.9851 -13.8512 -2.5125 0.9183
17.3799 -12.0671 -2.5133 0.9183
18.1999 -10.7985 -2.5138 0.9183
18.5754 -10.1429 -2.5140 0.9183
18.9271 -9.4742 -2.5142 0.9183
19.2546 -8.7933 -2.5144 0.9183
19.8354 -7.3982 -2.5147 0.9183
20.0879 -6.6859 -2.5149 0.9183
20.3147 -5.9649 -2.5150 0.9183
20.5155 -5.2363 -2.5151 0.9182
19.8355 -4.3150 -2.4113 0.9215
19.6843 -2.8302 -2.3623 0.9230
18.2197 -1.9588 -2.1767 0.9288
17.2174 -0.6149 -2.0465 0.9330
-17.5775 0.0000 -2.4905 0.9315
-17.4777 -1.8791 -2.4907 0.9314
-17.4000 -2.5017 -2.4907 0.9314
-17.1785 -3.7369 -2.4909 0.9314
-16.8697 -4.9534 -2.4912 0.9314
-16.4510 -6.1359 -2.4878 0.9315
-16.0154 -6.6338 -2.4562 0.9324
-14.7706 -7.3937 -2.3404 0.9354
-13.8993 -8.9325 -2.3410 0.9354
-13.5729 -9.4238 -2.3412 0.9354
-12.2683 -9.8864 -2.2325 0.9383
-12.4917 -10.8241 -2.3420 0.9354
-10.8293 -12.4977 -2.3431 0.9354
-9.9127 -13.2418 -2.3437 0.9354
-9.4351 -13.5891 -2.3440 0.9354
-8.4439 -14.2315 -2.3447 0.9353
-6.8773 -15.0592 -2.3457 0.9353
-6.3364 -15.2974 -2.3461 0.9353
-4.9025 -13.1442 -1.9877 0.9449
-5.2305 -15.7153 -2.3468 0.9353
-4.2498 -14.4735 -2.1373 0.9409
-3.2254 -14.8267 -2.1499 0.9405
-2.7232 -15.0939 -2.1732 0.9399
-2.2040 -15.3289 -2.1943 0.9394
-1.7722 -16.4837 -2.3490 0.9352
-0.5919 -16.5734 -2.3498 0.9352
0.5921 -16.5788 -2.3505 0.9352
2.3620 -16.4284 -2.3517 0.9351
3.7198 -17.0997 -2.4795 0.9317
4.9820 -16.9671 -2.5056 0.9311
6.1816 -16.5735 -2.5063 0.9310
7.3503 -16.0949 -2.5070 0.9310
8.4822 -15.5339 -2.5077 0.9310
9.0324 -15.2234 -2.5081 0.9310
9.5713 -14.8933 -2.5084 0.9310
10.0981 -14.5440 -2.5087 0.9310
11.5992 -13.3862 -2.5097 0.9309
12.5274 -12.5274 -2.5102 0.9309
13.7989 -11.1199 -2.5110 0.9309
14.1883 -10.6213 -2.5112 0.9309
14.5597 -10.1090 -2.5114 0.9309
14.9124 -9.5836 -2.5116 0.9309
15.2462 -9.0460 -2.5118 0.9309
15.8549 -7.9364 -2.5122 0.9309
17.1845 -4.3861 -2.5129 0.9309
4.5714 -0.8248 -0.6582 0.9814
16.4881 -2.3706 -2.3602 0.9349
16.6473 -0.5946 -2.3602 0.9349
-15.1276 0.0000 -2.4921 0.9405
-15.1181 -0.5400 -2.4921 0.9405
-14.9747 -2.1530 -2.4923 0.9405
-14.7839 -3.2160 -2.4924 0.9405
-14.5180 -4.2629 -2.4926 0.9405
-14.1783 -5.2882 -2.4929 0.9405
-13.9813 -5.7913 -2.4930 0.9405
-13.5343 -6.7748 -2.4934 0.9405
-13.0168 -7.7233 -2.4934 0.9405
-12.7121 -8.1696 -2.4894 0.9406
-12.3432 -8.5700 -2.4755 0.9409
-11.3238 -9.1253 -2.3958 0.9427
-10.8362 -9.3896 -2.3621 0.9435
-10.4105 -9.6925 -2.3433 0.9440
-8.9290 -11.0801 -2.3443 0.9439
-8.5288 -11.3931 -2.3445 0.9439
-7.6961 -11.9753 -2.3451 0.9439
-6.8238 -12.4969 -2.3457 0.9439
-6.3742 -12.7341 -2.3459 0.9439
-5.9164 -12.9551 -2.3462 0.9439
-5.4510 -13.1598 -2.3466 0.9439
-4.8945 -13.1226 -2.3073 0.9448
-4.4995 -13.5187 -2.3472 0.9439
-3.0298 -13.9278 -2.3481 0.9439
-2.5311 -14.0290 -2.3484 0.9438
-2.0291 -14.1124 -2.3488 0.9438
-1.0397 -14.5371 -2.4010 0.9426
0.0000 -15.0814 -2.4845 0.9407
1.0839 -15.1550 -2.5030 0.9403
1.6244 -15.1087 -2.5033 0.9403
2.1629 -15.0432 -2.5037 0.9402
3.2314 -14.8546 -2.5044 0.9402
4.2840 -14.5900 -2.5050 0.9402
4.8027 -14.4297 -2.5054 0.9402
5.3153 -14.2509 -2.5057 0.9402
5.8213 -14.0539 -2.5060 0.9402
6.8108 -13.6062 -2.5066 0.9402
7.7659 -13.0887 -2.5072 0.9402
9.1236 -12.1877 -2.5080 0.9401
9.5538 -11.8555 -2.5083 0.9401
10.3773 -11.1460 -2.5088 0.9401
12.1967 -9.1304 -2.5099 0.9401
12.5158 -8.6898 -2.5101 0.9401
13.3756 -7.3036 -2.5106 0.9401
13.6286 -6.8220 -2.5107 0.9401
14.0820 -5.8329 -2.5110 0.9401
14.2818 -5.3268 -2.5111 0.9401
14.4634 -4.8139 -2.5112 0.9401
14.6265 -4.2947 -2.5113 0.9401
14.7709 -3.7701 -2.5114 0.9401
15.0811 -2.1683 -2.5100 0.9401
14.7935 -1.5905 -2.4511 0.9415
14.3090 -0.5110 -2.3588 0.9436
-13.2567 -0.4735 -2.4933 0.9474
-13.2315 -0.9463 -2.4934 0.9474
-13.1895 -1.4180 -2.4934 0.9474
-13.0554 -2.3554 -2.4935 0.9474
-12.8549 -3.2810 -2.4937 0.9474
-12.4321 -4.6369 -2.4940 0.9474
-12.2593 -5.0780 -2.4941 0.9474
-11.8671 -5.9403 -2.4944 0.9474
-11.4146 -6.7726 -2.4947 0.9474
-10.9039 -7.5707 -2.4951 0.9474
-10.6275 -7.9557 -2.4953 0.9474
-9.7186 -9.0484 -2.4959 0.9474
-9.3903 -9.3903 -2.4961 0.9474
-9.0500 -9.7204 -2.4963 0.9474
-8.6952 -10.0348 -2.4957 0.9474
-7.9494 -10.6192 -2.4933 0.9474
-6.7642 -11.4004 -2.4916 0.9475
-5.5084 -12.0616 -2.4923 0.9475
-4.6373 -12.4331 -2.4942 0.9474
-4.1929 -12.5976 -2.4956 0.9474
-3.7430 -12.7475 -2.4972 0.9474
-2.8277 -12.9989 -2.5004 0.9473
-1.4225 -13.2315 -2.5013 0.9473
-0.9495 -13.2754 -2.5016 0.9473
-0.0000 -13.3126 -2.5022 0.9473
0.4752 -13.3057 -2.5025 0.9473
0.9499 -13.2819 -2.5028 0.9472
1.4236 -13.2411 -2.5031 0.9472
2.3651 -13.1089 -2.5037 0.9472
3.7542 -12.7855 -2.5046 0.9472
4.2086 -12.6448 -2.5049 0.9472
5.1011 -12.3151 -2.5055 0.9472
5.5380 -12.1265 -2.5057 0.9472
5.9679 -11.9224 -2.5060 0.9472
6.3903 -11.7030 -2.5063 0.9472
6.8046 -11.4686 -2.5065 0.9472
7.2104 -11.2196 -2.5068 0.9472
7.6070 -10.9561 -2.5070 0.9472
7.9939 -10.6786 -2.5073 0.9472
8.3708 -10.3875 -2.5075 0.9472
9.0921 -9.7656 -2.5079 0.9471
9.7672 -9.0935 -2.5083 0.9471
10.9650 -7.6131 -2.5091 0.9471
11.2304 -7.2174 -2.5092 0.9471
12.3366 -5.1100 -2.5098 0.9471
12.5116 -4.6666 -2.5099 0.9471
12.6706 -4.2172 -2.5100 0.9471
4.6137 -0.6633 -0.8761 0.9812
-11.7998 0.0000 -2.4942 0.9529
-11.6803 -1.6794 -2.4944 0.9529
-11.6132 -2.0952 -2.4944 0.9529
-11.4348 -2.9186 -2.4946 0.9529
-11.3237 -3.3249 -2.4947 0.9529
-11.1983 -3.7271 -2.4948 0.9529
-11.0585 -4.1246 -2.4949 0.9529
-10.5558 -5.2839 -2.4952 0.9529
-10.3611 -5.6576 -2.4954 0.9529
-10.1531 -6.0241 -2.4955 0.9529
-9.9322 -6.3831 -2.4957 0.9529
-9.6987 -6.7339 -2.4958 0.9529
-9.4528 -7.0763 -2.4960 0.9529
-8.9252 -7.7337 -2.4963 0.9529
-8.6441 -8.0480 -2.4965 0.9529
-8.3520 -8.3520 -2.4967 0.9529
-7.7362 -8.9281 -2.4971 0.9528
-7.0808 -9.4589 -2.4976 0.9528
-6.7393 -9.7065 -2.4978 0.9528
-6.0308 -10.1644 -2.4983 0.9528
-4.9112 -10.7540 -2.4990 0.9528
-4.5247 -10.9236 -2.4993 0.9528
-2.9253 -11.4611 -2.5003 0.9528
-2.5146 -11.5594 -2.5006 0.9528
-2.1006 -11.6430 -2.5008 0.9528
-1.2650 -11.7658 -2.5014 0.9528
-0.4225 -11.8286 -2.5019 0.9528
0.8447 -11.8098 -2.5027 0.9527
1.2658 -11.7734 -2.5030 0.9527
1.6854 -11.7220 -2.5033 0.9527
2.1029 -11.6556 -2.5035 0.9527
2.9296 -11.4782 -2.5041 0.9527
3.3378 -11.3675 -2.5043 0.9527
4.1411 -11.1027 -2.5048 0.9527
4.5352 -10.9489 -2.5051 0.9527
5.6812 -10.4043 -2.5058 0.9527
6.0495 -10.1958 -2.5060 0.9527
7.1065 -9.4932 -2.5067 0.9527
7.4415 -9.2343 -2.5069 0.9527
7.7669 -8.9635 -2.5071 0.9527
8.3879 -8.3879 -2.5074 0.9527
9.7470 -6.7675 -2.5082 0.9526
9.9829 -6.4156 -2.5084 0.9526
10.2061 -6.0556 -2.5085 0.9526
10.4162 -5.6877 -2.5086 0.9526
10.6131 -5.3125 -2.5088 0.9526
10.7964 -4.9305 -2.5089 0.9526
11.2627 -3.7486 -2.5091 0.9526
11.3896 -3.3443 -2.5092 0.9526
4.3845 -1.1191 -0.9565 0.9817
4.4779 -0.8079 -0.9618 0.9816
4.5901 -0.6600 -0.9802 0.9812
11.8034 -1.2690 -2.5094 0.9526
11.8412 -0.8469 -2.5094 0.9526
11.8570 -0.4235 -2.5079 0.9527
-10.6160 0.0000 -2.4950 0.9573
-10.6093 -0.3789 -2.4950 0.9573
-10.5891 -0.7573 -2.4950 0.9573
-10.5084 -1.5109 -2.4951 0.9573
-10.4480 -1.8850 -2.4952 0.9573
-10.3743 -2.2568 -2.4952 0.9573
-10.2874 -2.6257 -2.4953 0.9573
-10.0746 -3.3531 -2.4955 0.9573
-9.9488 -3.7107 -2.4956 0.9573
-9.8104 -4.0636 -2.4957 0.9573
-9.6596 -4.4114 -2.4958 0.9573
-9.3212 -5.0897 -2.4960 0.9573
-9.1340 -5.4195 -2.4961 0.9573
-8.9353 -5.7423 -2.4963 0.9573
-8.2718 -6.6658 -2.4967 0.9573
-8.0291 -6.9573 -2.4969 0.9573
-7.2409 -7.7773 -2.4974 0.9573
-6.3696 -8.5088 -2.4980 0.9573
-6.0623 -8.7314 -2.4982 0.9573
-5.4249 -9.1432 -2.4986 0.9573
-4.7596 -9.5086 -2.4991 0.9572
-4.4176 -9.6732 -2.4993 0.9572
-3.7170 -9.9656 -2.4997 0.9572
-2.9971 -10.2073 -2.5002 0.9572
-2.6311 -10.3087 -2.5005 0.9572
-2.2617 -10.3971 -2.5007 0.9572
-1.8894 -10.4722 -2.5009 0.9572
-1.5146 -10.5339 -2.5012 0.9572
-1.1377 -10.5823 -2.5014 0.9572
-0.3800 -10.6386 -2.5019 0.9572
-0.0000 -10.6464 -2.5022 0.9572
0.7597 -10.6213 -2.5026 0.9572
1.5157 -10.5421 -2.5031 0.9572
1.8912 -10.4823 -2.5034 0.9572
3.0017 -10.2229 -2.5041 0.9572
3.3650 -10.1102 -2.5043 0.9572
4.0784 -9.8461 -2.5047 0.9572
5.1088 -9.3562 -2.5054 0.9571
5.4400 -9.1686 -2.5056 0.9571
5.7642 -8.9693 -2.5058 0.9571
6.0812 -8.7585 -2.5060 0.9571
6.6915 -8.3036 -2.5063 0.9571
7.2678 -7.8062 -2.5067 0.9571
7.5423 -7.5423 -2.5069 0.9571
8.3069 -6.6941 -2.5073 0.9571
8.5410 -6.3937 -2.5075 0.9571
8.7642 -6.0851 -2.5076 0.9571
8.9763 -5.7687 -2.5077 0.9571
9.5427 -4.7767 -2.5081 0.9571
9.8599 -4.0841 -2.5082 0.9571
10.6127 -1.1410 -2.5086 0.9571
10.6467 -0.7615 -2.5086 0.9571
10.6671 -0.3810 -2.5086 0.9571
-9.6387 0.0000 -2.4956 0.9610
-9.6143 -0.6876 -2.4957 0.9610
-9.4861 -1.7115 -2.4958 0.9610
-9.4192 -2.0490 -2.4958 0.9610
-9.2495 -2.7159 -2.4960 0.9610
-9.1469 -3.0444 -2.4960 0.9610
-8.9071 -3.6894 -2.4962 0.9609
-8.6219 -4.3158 -2.4964 0.9609
-8.2928 -4.9203 -2.4967 0.9609
-8.1123 -5.2135 -2.4968 0.9609
-7.9215 -5.5000 -2.4969 0.9609
-6.8211 -6.8211 -2.4977 0.9609
-6.3180 -7.2913 -2.4980 0.9609
-6.0541 -7.5127 -2.4982 0.9609
-5.7826 -7.7246 -2.4984 0.9609
-4.6258 -8.4715 -2.4991 0.9609
-4.0103 -8.7813 -2.4995 0.9609
-3.6946 -8.9196 -2.4997 0.9609
-3.0494 -9.1620 -2.5001 0.9609
-2.3884 -9.3578 -2.5006 0.9609
-1.0327 -9.6058 -2.5015 0.9609
-0.3449 -9.6567 -2.5019 0.9609
0.0000 -9.6637 -2.5021 0.9609
1.0333 -9.6109 -2.5028 0.9608
1.7166 -9.5144 -2.5032 0.9608
2.0552 -9.4478 -2.5034 0.9608
3.0542 -9.1763 -2.5041 0.9608
4.0185 -8.7994 -2.5047 0.9608
4.6368 -8.4916 -2.5050 0.9608
4.9372 -8.3213 -2.5052 0.9608
5.2315 -8.1404 -2.5054 0.9608
5.7997 -7.7475 -2.5058 0.9608
6.0729 -7.5360 -2.5059 0.9608
6.3385 -7.3150 -2.5061 0.9608
6.8450 -6.8450 -2.5064 0.9608
7.0854 -6.5967 -2.5065 0.9608
7.5387 -6.0751 -2.5068 0.9608
7.9537 -5.5223 -2.5071 0.9608
8.3281 -4.9413 -2.5073 0.9608
8.6601 -4.3349 -2.5075 0.9608
8.8096 -4.0232 -2.5076 0.9608
8.9478 -3.7063 -2.5076 0.9608
9.0747 -3.3847 -2.5077 0.9608
9.1899 -3.0587 -2.5078 0.9608
9.2934 -2.7288 -2.5078 0.9608
4.2958 -0.9345 -1.1383 0.9820
9.6309 -1.0354 -2.5080 0.9608
9.6617 -0.6910 -2.5080 0.9608
-8.8174 0.0000 -2.4961 0.9640
-8.8118 -0.3147 -2.4962 0.9640
-8.7951 -0.6290 -2.4962 0.9640
-8.6778 -1.5656 -2.4963 0.9640
-8.5444 -2.1808 -2.4964 0.9640
-8.4613 -2.4845 -2.4965 0.9640
-8.3675 -2.7850 -2.4965 0.9640
-8.2630 -3.0819 -2.4966 0.9640
-7.8871 -3.9480 -2.4969 0.9640
-7.7414 -4.2271 -2.4970 0.9640
-7.5860 -4.5010 -2.4971 0.9640
-7.2462 -5.0311 -2.4973 0.9640
-7.0624 -5.2868 -2.4975 0.9640
-6.6680 -5.7778 -2.4977 0.9640
-6.0132 -6.4586 -2.4982 0.9640
-5.5378 -6.8720 -2.4985 0.9640
-5.2894 -7.0658 -2.4986 0.9640
-4.7725 -7.4261 -2.4990 0.9640
-3.9522 -7.8954 -2.4995 0.9640
-3.6681 -8.0321 -2.4997 0.9640
-3.3794 -8.1585 -2.4999 0.9640
-3.0862 -8.2745 -2.5001 0.9640
-2.7892 -8.3801 -2.5003 0.9639
-2.4885 -8.4749 -2.5005 0.9639
-2.1846 -8.5590 -2.5007 0.9639
-1.2574 -8.7456 -2.5013 0.9639
-0.0000 -8.8384 -2.5021 0.9639
0.6306 -8.8173 -2.5025 0.9639
1.5699 -8.7014 -2.5031 0.9639
2.1870 -8.5686 -2.5035 0.9639
2.4916 -8.4857 -2.5037 0.9639
3.6750 -8.0471 -2.5044 0.9639
4.5151 -7.6098 -2.5049 0.9639
4.7842 -7.4443 -2.5051 0.9639
5.3037 -7.0849 -2.5054 0.9639
5.5535 -6.8915 -2.5056 0.9639
6.0317 -6.4785 -2.5059 0.9639
6.4792 -6.0324 -2.5061 0.9639
7.0880 -5.3060 -2.5065 0.9639
7.2732 -5.0498 -2.5066 0.9639
7.7722 -4.2439 -2.5069 0.9639
7.9190 -3.9640 -2.5070 0.9639
8.0557 -3.6789 -2.5071 0.9639
8.1821 -3.3891 -2.5071 0.9639
8.4981 -2.4953 -2.5073 0.9639
4.6942 -0.5047 -1.3365 0.9806
8.8348 -0.6319 -2.5075 0.9638
8.8517 -0.3161 -2.5075 0.9638
-8.0964 -0.5791 -2.4966 0.9666
-7.9884 -1.4413 -2.4967 0.9666
-7.8655 -2.0076 -2.4968 0.9666
-7.7026 -2.5637 -2.4969 0.9666
-7.5006 -3.1068 -2.4971 0.9666
-7.3852 -3.3727 -2.4972 0.9666
-7.2603 -3.6343 -2.4973 0.9666
-7.1263 -3.8912 -2.4974 0.9666
-6.6703 -4.6313 -2.4977 0.9666
-6.1379 -5.3185 -2.4980 0.9666
-5.9445 -5.5345 -2.4982 0.9666
-5.3197 -6.1393 -2.4986 0.9666
-5.0975 -6.3256 -2.4987 0.9666
-4.8688 -6.5039 -2.4989 0.9666
-4.6338 -6.6740 -2.4991 0.9666
-4.3929 -6.8356 -2.4992 0.9666
-4.1464 -6.9884 -2.4994 0.9666
-3.8946 -7.1325 -2.4995 0.9666
-3.3763 -7.3931 -2.4999 0.9666
-3.1105 -7.5095 -2.5001 0.9666
-2.8407 -7.6162 -2.5002 0.9666
-2.5672 -7.7133 -2.5004 0.9666
-2.2905 -7.8006 -2.5006 0.9665
-1.4438 -8.0025 -2.5011 0.9665
-0.8694 -8.0863 -2.5015 0.9665
-0.2903 -8.1289 -2.5019 0.9665
0.2904 -8.1301 -2.5022 0.9665
0.5804 -8.1152 -2.5024 0.9665
1.1580 -8.0543 -2.5028 0.9665
1.4449 -8.0084 -2.5030 0.9665
1.7299 -7.9523 -2.5032 0.9665
2.0128 -7.8861 -2.5033 0.9665
2.2931 -7.8098 -2.5035 0.9665
2.5706 -7.7235 -2.5037 0.9665
2.8448 -7.6273 -2.5039 0.9665
3.1155 -7.5214 -2.5040 0.9665
3.3822 -7.4059 -2.5042 0.9665
3.6446 -7.2810 -2.5044 0.9665
4.1552 -7.0033 -2.5047 0.9665
4.6448 -6.6898 -2.5050 0.9665
4.8809 -6.5202 -2.5051 0.9665
5.1108 -6.3421 -2.5053 0.9665
5.3342 -6.1560 -2.5054 0.9665
5.7604 -5.7604 -2.5057 0.9665
5.9626 -5.5514 -2.5058 0.9665
6.1572 -5.3353 -2.5059 0.9665
6.3440 -5.1124 -2.5060 0.9665
6.5227 -4.8829 -2.5061 0.9665
7.0081 -4.1581 -2.5064 0.9665
7.1523 -3.9055 -2.5065 0.9665
7.2874 -3.6478 -2.5066 0.9665
7.6361 -2.8481 -2.5068 0.9665
7.7331 -2.5738 -2.5068 0.9665
4.3380 -1.1072 -1.3770 0.9814
4.3361 -0.9433 -1.3649 0.9816
4.3470 -0.7843 -1.3586 0.9817
4.7072 -0.5061 -1.4562 0.9804
8.1300 -0.5815 -2.5070 0.9665
-7.5119 0.0000 -2.4970 0.9688
-7.5071 -0.2681 -2.4970 0.9688
-7.4928 -0.5359 -2.4970 0.9688
-7.4690 -0.8030 -2.4970 0.9688
-7.4356 -1.0691 -2.4971 0.9688
-7.3929 -1.3338 -2.4971 0.9688
-7.3407 -1.5969 -2.4971 0.9688
-7.2083 -2.1166 -2.4972 0.9688
-7.1284 -2.3725 -2.4973 0.9688
-6.8345 -3.1212 -2.4975 0.9688
-6.5949 -3.6011 -2.4977 0.9688
-5.5011 -5.1217 -2.4984 0.9688
-5.3151 -5.3151 -2.4986 0.9688
-5.1222 -5.5017 -2.4987 0.9688
-4.7172 -5.8537 -2.4990 0.9688
-4.2881 -6.1760 -2.4993 0.9688
-4.0651 -6.3255 -2.4994 0.9688
-3.8370 -6.4670 -2.4996 0.9688
-3.1243 -6.8413 -2.5000 0.9688
-2.8783 -6.9489 -2.5002 0.9688
-2.6287 -7.0477 -2.5003 0.9688
-1.0709 -7.4484 -2.5014 0.9688
-0.2686 -7.5218 -2.5019 0.9688
0.8048 -7.4855 -2.5026 0.9688
1.0715 -7.4525 -2.5027 0.9688
1.3369 -7.4100 -2.5029 0.9688
1.8624 -7.2967 -2.5032 0.9688
2.6322 -7.0572 -2.5037 0.9687
2.8826 -6.9592 -2.5039 0.9687
3.6106 -6.6124 -2.5043 0.9687
3.8446 -6.4797 -2.5045 0.9687
4.0736 -6.3387 -2.5046 0.9687
4.2975 -6.1896 -2.5047 0.9687
4.5159 -6.0326 -2.5049 0.9687
4.7286 -5.8678 -2.5050 0.9687
4.9353 -5.6956 -2.5051 0.9687
5.5166 -5.1362 -2.5055 0.9687
5.6967 -4.9362 -2.5056 0.9687
5.8695 -4.7299 -2.5057 0.9687
6.0348 -4.5176 -2.5058 0.9687
6.1924 -4.2995 -2.5059 0.9687
6.6172 -3.6133 -2.5061 0.9687
7.0648 -2.6350 -2.5064 0.9687
7.1544 -2.3812 -2.5064 0.9687
4.3705 -1.1155 -1.4994 0.9812
4.6006 -0.6615 -1.5450 0.9806
7.4976 -0.8061 -2.5066 0.9687
7.5216 -0.5380 -2.5066 0.9687
7.5360 -0.2692 -2.5066 0.9687
-6.9834 0.0000 -2.4973 0.9708
-6.9790 -0.2493 -2.4973 0.9708
-6.9657 -0.4982 -2.4973 0.9708
-6.9435 -0.7465 -2.4974 0.9708
-6.8242 -1.4845 -2.4975 0.9708
-6.7670 -1.7272 -2.4975 0.9708
-6.7012 -1.9677 -2.4976 0.9708
-6.4529 -2.6729 -2.4978 0.9708
-6.3536 -2.9016 -2.4978 0.9708
-6.2462 -3.1266 -2.4979 0.9708
-6.1308 -3.3477 -2.4980 0.9708
-6.0076 -3.5645 -2.4981 0.9708
-5.7385 -3.9843 -2.4983 0.9708
-4.7617 -5.1144 -2.4989 0.9708
-4.5763 -5.2814 -2.4990 0.9707
-4.3851 -5.4416 -2.4992 0.9707
-4.1883 -5.5949 -2.4993 0.9707
-3.9862 -5.7412 -2.4994 0.9707
-3.7789 -5.8801 -2.4996 0.9707
-3.5668 -6.0116 -2.4997 0.9707
-3.1293 -6.2515 -2.5000 0.9707
-2.4435 -6.5513 -2.5004 0.9707
-1.9702 -6.7098 -2.5008 0.9707
-1.4867 -6.8341 -2.5011 0.9707
-0.9955 -6.9236 -2.5014 0.9707
-0.7478 -6.9552 -2.5015 0.9707
0.4992 -6.9796 -2.5023 0.9707
0.7480 -6.9578 -2.5025 0.9707
0.9960 -6.9271 -2.5027 0.9707
1.2427 -6.8876 -2.5028 0.9707
2.6793 -6.4684 -2.5037 0.9707
3.1343 -6.2615 -2.5040 0.9707
3.3559 -6.1459 -2.5041 0.9707
4.1973 -5.6069 -2.5047 0.9707
4.3950 -5.4538 -2.5048 0.9707
4.5870 -5.2937 -2.5049 0.9707
4.7733 -5.1269 -2.5050 0.9707
4.9534 -4.9535 -2.5051 0.9707
5.4552 -4.3961 -2.5054 0.9707
5.7553 -3.9960 -2.5056 0.9707
5.8945 -3.7882 -2.5057 0.9707
6.4743 -2.6817 -2.5060 0.9707
6.5660 -2.4490 -2.5061 0.9707
6.7242 -1.9744 -2.5062 0.9707
4.4182 -1.1277 -1.6306 0.9808
4.4589 -0.8045 -1.6203 0.9809
6.9683 -0.7492 -2.5063 0.9707
-6.5175 0.0000 -2.4976 0.9725
-6.5009 -0.4650 -2.4976 0.9725
-6.4803 -0.6967 -2.4977 0.9725
-6.4142 -1.1572 -2.4977 0.9725
-6.1847 -2.0584 -2.4979 0.9725
-6.0223 -2.4946 -2.4980 0.9725
-5.9296 -2.7080 -2.4981 0.9725
-5.6067 -3.3266 -2.4983 0.9725
-5.4846 -3.5247 -2.4984 0.9725
-5.3555 -3.7184 -2.4985 0.9725
-4.7725 -4.4434 -2.4989 0.9725
-4.6111 -4.6111 -2.4990 0.9725
-4.4438 -4.7729 -2.4991 0.9725
-4.2708 -4.9288 -2.4992 0.9725
-3.9087 -5.2214 -2.4995 0.9724
-3.7200 -5.3578 -2.4996 0.9724
-2.9203 -5.8339 -2.5001 0.9724
-2.7103 -5.9348 -2.5003 0.9724
-2.4969 -6.0281 -2.5004 0.9724
-2.2803 -6.1137 -2.5005 0.9724
-2.0607 -6.1915 -2.5007 0.9724
-1.6140 -6.3235 -2.5010 0.9724
-1.1589 -6.4233 -2.5013 0.9724
-0.9289 -6.4609 -2.5014 0.9724
-0.4657 -6.5115 -2.5017 0.9724
0.0000 -6.5289 -2.5020 0.9724
0.6980 -6.4927 -2.5025 0.9724
1.1596 -6.4271 -2.5027 0.9724
1.8403 -6.2674 -2.5032 0.9724
2.0629 -6.1981 -2.5033 0.9724
2.2829 -6.1208 -2.5035 0.9724
2.7141 -5.9430 -2.5037 0.9724
2.9246 -5.8427 -2.5039 0.9724
3.1315 -5.7348 -2.5040 0.9724
3.3343 -5.6197 -2.5041 0.9724
3.5329 -5.4974 -2.5042 0.9724
3.7271 -5.3680 -2.5044 0.9724
4.1009 -5.0889 -2.5046 0.9724
4.2801 -4.9395 -2.5047 0.9724
4.7842 -4.4543 -2.5050 0.9724
5.6228 -3.3362 -2.5055 0.9724
5.7385 -3.1334 -2.5056 0.9724
5.8468 -2.9267 -2.5056 0.9724
6.1265 -2.2851 -2.5058 0.9724
4.4291 -1.1304 -1.7517 0.9806
4.5807 -0.6586 -1.7735 0.9804
6.5018 -0.6990 -2.5060 0.9724
6.5226 -0.4665 -2.5060 0.9724
-6.1032 0.0000 -2.4979 0.9740
-6.0683 -0.6524 -2.4979 0.9740
-6.0065 -1.0837 -2.4980 0.9740
-5.9640 -1.2974 -2.4980 0.9740
-5.9140 -1.5095 -2.4981 0.9740
-5.8565 -1.7196 -2.4981 0.9740
-5.5526 -2.5358 -2.4983 0.9740
-5.4587 -2.7324 -2.4984 0.9740
-5.3579 -2.9256 -2.4985 0.9740
-5.2502 -3.1151 -2.4985 0.9740
-5.1358 -3.3006 -2.4986 0.9740
-5.0149 -3.4819 -2.4987 0.9740
-4.8876 -3.6588 -2.4988 0.9740
-4.7541 -3.8311 -2.4989 0.9740
-3.9991 -4.6153 -2.4994 0.9740
-3.6600 -4.8892 -2.4996 0.9739
-3.4834 -5.0170 -2.4997 0.9739
-3.3022 -5.1384 -2.4998 0.9739
-2.7345 -5.4627 -2.5002 0.9739
-2.5379 -5.5571 -2.5004 0.9739
-2.3380 -5.6445 -2.5005 0.9739
-1.9296 -5.7975 -2.5007 0.9739
-1.7215 -5.8630 -2.5009 0.9739
-0.4361 -6.0970 -2.5017 0.9739
-0.2182 -6.1090 -2.5019 0.9739
-0.0000 -6.1132 -2.5020 0.9739
0.2182 -6.1097 -2.5021 0.9739
0.4362 -6.0983 -2.5023 0.9739
0.8702 -6.0524 -2.5025 0.9739
1.2999 -5.9755 -2.5028 0.9739
1.5124 -5.9256 -2.5030 0.9739
1.9315 -5.8032 -2.5032 0.9739
2.1375 -5.7309 -2.5033 0.9739
2.7383 -5.4704 -2.5037 0.9739
2.9319 -5.3694 -2.5038 0.9739
3.1218 -5.2616 -2.5040 0.9739
3.3078 -5.1471 -2.5041 0.9739
3.4896 -5.0259 -2.5042 0.9739
4.1700 -4.4789 -2.5046 0.9739
4.7657 -3.8404 -2.5050 0.9739
5.0278 -3.4909 -2.5051 0.9739
5.1494 -3.3093 -2.5052 0.9739
5.2643 -3.1235 -2.5053 0.9739
5.4740 -2.7401 -2.5054 0.9739
5.6558 -2.3427 -2.5055 0.9739
5.8087 -1.9333 -2.5056 0.9739
5.8741 -1.7248 -2.5056 0.9739
4.4084 -0.9590 -1.8464 0.9807
6.1184 -0.2185 -2.5057 0.9739
-5.7320 0.0000 -2.4981 0.9753
-5.7175 -0.4089 -2.4981 0.9753
-5.6993 -0.6127 -2.4982 0.9753
-5.6738 -0.8158 -2.4982 0.9753
-5.4392 -1.8104 -2.4984 0.9753
-5.1267 -2.5662 -2.4986 0.9753
-5.0320 -2.7477 -2.4987 0.9753
-4.7099 -3.2701 -2.4989 0.9753
-4.4649 -3.5980 -2.4991 0.9753
-4.3338 -3.7552 -2.4991 0.9753
-4.1971 -3.9077 -2.4992 0.9753
-4.0551 -4.0551 -2.4993 0.9753
-3.9080 -4.1975 -2.4994 0.9753
-3.7558 -4.3344 -2.4995 0.9753
-3.4373 -4.5917 -2.4997 0.9753
-3.2714 -4.7117 -2.4999 0.9753
-2.5680 -5.1302 -2.5003 0.9753
-2.3834 -5.2189 -2.5004 0.9753
-2.0052 -5.3762 -2.5007 0.9753
-1.8121 -5.4446 -2.5008 0.9753
-1.6167 -5.5061 -2.5009 0.9753
-1.4192 -5.5605 -2.5011 0.9753
-1.0191 -5.6482 -2.5013 0.9753
-0.4095 -5.7257 -2.5017 0.9753
-0.2049 -5.7369 -2.5019 0.9753
0.0000 -5.7409 -2.5020 0.9753
0.2049 -5.7375 -2.5021 0.9753
0.4096 -5.7269 -2.5022 0.9753
0.6138 -5.7089 -2.5024 0.9753
0.8172 -5.6836 -2.5025 0.9753
1.2207 -5.6114 -2.5028 0.9753
2.0073 -5.3817 -2.5033 0.9752
2.3863 -5.2253 -2.5035 0.9752
2.5714 -5.1370 -2.5036 0.9752
2.7532 -5.0422 -2.5037 0.9752
2.9316 -4.9409 -2.5038 0.9752
3.1062 -4.8333 -2.5039 0.9752
3.4434 -4.5998 -2.5041 0.9752
3.7630 -4.3428 -2.5043 0.9752
3.9158 -4.2058 -2.5044 0.9752
4.3434 -3.7636 -2.5047 0.9752
4.4751 -3.6062 -2.5048 0.9752
4.6011 -3.4443 -2.5048 0.9752
4.8353 -3.1075 -2.5050 0.9752
5.0450 -2.7548 -2.5051 0.9752
5.2288 -2.3879 -2.5052 0.9752
5.4544 -1.8154 -2.5053 0.9752
5.5158 -1.6196 -2.5054 0.9752
4.6158 -0.6637 -2.0323 0.9799
5.7452 -0.2052 -2.5055 0.9752
-5.3973 0.0000 -2.4983 0.9765
-5.3425 -0.7681 -2.4984 0.9765
-5.2300 -1.3349 -2.4985 0.9765
-5.1791 -1.5207 -2.4985 0.9765
-5.1216 -1.7046 -2.4986 0.9765
-4.7381 -2.5872 -2.4988 0.9765
-4.5417 -2.9188 -2.4990 0.9765
-4.4347 -3.0791 -2.4991 0.9765
-3.9519 -3.6794 -2.4994 0.9765
-3.8182 -3.8182 -2.4995 0.9765
-3.3886 -4.2050 -2.4998 0.9765
-3.2365 -4.3234 -2.4999 0.9765
-3.0802 -4.4364 -2.5000 0.9765
-2.5887 -4.7408 -2.5003 0.9765
-2.2441 -4.9139 -2.5005 0.9765
-2.0674 -4.9911 -2.5006 0.9765
-1.5222 -5.1842 -2.5010 0.9765
-0.9595 -5.3180 -2.5014 0.9765
-0.5777 -5.3734 -2.5016 0.9765
-0.1929 -5.4015 -2.5018 0.9765
0.1929 -5.4020 -2.5021 0.9765
0.7694 -5.3512 -2.5025 0.9765
0.9599 -5.3206 -2.5026 0.9765
1.1493 -5.2832 -2.5027 0.9765
1.7077 -5.1308 -2.5031 0.9764
2.5921 -4.7471 -2.5036 0.9764
2.7600 -4.6517 -2.5037 0.9764
3.9599 -3.6868 -2.5044 0.9764
4.3317 -3.2427 -2.5047 0.9764
4.4448 -3.0861 -2.5047 0.9764
4.5522 -2.9256 -2.5048 0.9764
4.6539 -2.7613 -2.5049 0.9764
4.7496 -2.5935 -2.5049 0.9764
4.8392 -2.4223 -2.5050 0.9764
4.9999 -2.0710 -2.5051 0.9764
5.1350 -1.7091 -2.5051 0.9764
4.4211 -0.9617 -2.0943 0.9803
4.4989 -0.8117 -2.1161 0.9801
5.3812 -0.5785 -2.5052 0.9764
5.3985 -0.3861 -2.5052 0.9764
5.4088 -0.1932 -2.5052 0.9764
-5.0936 0.0000 -2.4985 0.9776
-5.0807 -0.3634 -2.4985 0.9776
-5.0645 -0.5445 -2.4986 0.9776
-4.8876 -1.4351 -2.4987 0.9776
-4.8334 -1.6087 -2.4987 0.9776
-4.7065 -1.9495 -2.4988 0.9776
-4.2861 -2.7545 -2.4991 0.9776
-4.1851 -2.9058 -2.4992 0.9776
-4.0789 -3.0534 -2.4993 0.9776
-3.8509 -3.3368 -2.4994 0.9776
-3.7295 -3.4722 -2.4995 0.9776
-3.4725 -3.7297 -2.4997 0.9776
-3.3373 -3.8514 -2.4998 0.9776
-2.7556 -4.2878 -2.5002 0.9775
-2.6009 -4.3836 -2.5003 0.9775
-2.4429 -4.4739 -2.5004 0.9775
-2.2818 -4.5584 -2.5005 0.9775
-2.1177 -4.6371 -2.5006 0.9775
-1.9509 -4.7100 -2.5007 0.9775
-1.6101 -4.8376 -2.5009 0.9775
-1.4365 -4.8922 -2.5010 0.9775
-1.2610 -4.9405 -2.5011 0.9775
-0.9054 -5.0184 -2.5014 0.9775
-0.7258 -5.0477 -2.5015 0.9775
-0.5452 -5.0707 -2.5016 0.9775
-0.3638 -5.0871 -2.5017 0.9775
-0.1820 -5.0971 -2.5018 0.9775
-0.0000 -5.1006 -2.5020 0.9775
0.5453 -5.0721 -2.5023 0.9775
1.4375 -4.8958 -2.5029 0.9775
1.6114 -4.8416 -2.5030 0.9775
2.1200 -4.6422 -2.5033 0.9775
2.4460 -4.4794 -2.5035 0.9775
3.2030 -3.9747 -2.5040 0.9775
3.6099 -3.6099 -2.5042 0.9775
3.9755 -3.2036 -2.5044 0.9775
4.3914 -2.6055 -2.5047 0.9775
4.4817 -2.4472 -2.5047 0.9775
4.7846 -1.7846 -2.5049 0.9775
4.8999 -1.4387 -2.5050 0.9775
4.6617 -0.6702 -2.3102 0.9792
5.0939 -0.3643 -2.5051 0.9775
5.1036 -0.1823 -2.5051 0.9775
-4.8165 0.0000 -2.4987 0.9785
-4.8135 -0.1719 -2.4987 0.9785
-4.8043 -0.3436 -2.4987 0.9785
-4.7676 -0.6855 -2.4988 0.9785
-4.7401 -0.8552 -2.4988 0.9785
-4.7066 -1.0239 -2.4988 0.9785
-4.6672 -1.1912 -2.4988 0.9785
-4.6217 -1.3571 -2.4989 0.9785
-4.5133 -1.6834 -2.4990 0.9785
-4.3077 -2.1563 -2.4991 0.9785
-4.2281 -2.3087 -2.4992 0.9785
-4.0528 -2.6046 -2.4993 0.9785
-3.7515 -3.0232 -2.4995 0.9785
-3.6413 -3.1552 -2.4996 0.9785
-3.5265 -3.2833 -2.4996 0.9785
-3.4072 -3.4072 -2.4997 0.9785
-3.2835 -3.5267 -2.4998 0.9785
-3.1556 -3.6418 -2.4999 0.9785
-2.8880 -3.8579 -2.5001 0.9785
-2.7486 -3.9587 -2.5002 0.9785
-2.6056 -4.0544 -2.5003 0.9785
-2.3099 -4.2303 -2.5005 0.9785
-2.1575 -4.3102 -2.5006 0.9785
-2.0024 -4.3847 -2.5007 0.9785
-1.8447 -4.4535 -2.5008 0.9785
-1.1923 -4.6715 -2.5012 0.9785
-0.6862 -4.7728 -2.5015 0.9785
-0.3440 -4.8101 -2.5017 0.9785
-0.1721 -4.8195 -2.5018 0.9785
0.0000 -4.8228 -2.5020 0.9785
0.1721 -4.8199 -2.5021 0.9785
1.0254 -4.7138 -2.5026 0.9785
1.1931 -4.6744 -2.5027 0.9785
1.5236 -4.5777 -2.5029 0.9785
1.6861 -4.5206 -2.5030 0.9785
2.1599 -4.3150 -2.5033 0.9785
2.4624 -4.1502 -2.5035 0.9785
2.7524 -3.9643 -2.5037 0.9785
2.8923 -3.8636 -2.5038 0.9785
3.1607 -3.6477 -2.5039 0.9785
3.6481 -3.1611 -2.5042 0.9785
3.8645 -2.8930 -2.5044 0.9785
4.0612 -2.6100 -2.5045 0.9785
4.3172 -2.1611 -2.5046 0.9785
4.4606 -1.8476 -2.5047 0.9785
4.5811 -1.5247 -2.5048 0.9785
4.6327 -1.3603 -2.5048 0.9785
4.6783 -1.1941 -2.5048 0.9785
4.4776 -0.9740 -2.3772 0.9796
4.5906 -0.8282 -2.4200 0.9792
4.7027 -0.6762 -2.4648 0.9788
4.8161 -0.3445 -2.5049 0.9785
4.8253 -0.1723 -2.5049 0.9785
-4.5364 -0.4877 -2.4989 0.9794
-4.5161 -0.6493 -2.4989 0.9794
-4.4901 -0.8101 -2.4989 0.9794
-4.4584 -0.9699 -2.4990 0.9794
-4.4210 -1.1284 -2.4990 0.9794
-4.0051 -2.1869 -2.4993 0.9794
-3.6534 -2.7349 -2.4995 0.9794
-3.5536 -2.8636 -2.4996 0.9794
-3.4492 -2.9887 -2.4997 0.9794
-3.3404 -3.1100 -2.4998 0.9794
-2.8642 -3.5542 -2.5001 0.9794
-2.4681 -3.8404 -2.5003 0.9794
-2.0437 -4.0827 -2.5006 0.9794
-1.8967 -4.1532 -2.5007 0.9794
-1.7473 -4.2184 -2.5008 0.9794
-1.5957 -4.2783 -2.5009 0.9794
-1.4421 -4.3327 -2.5010 0.9794
-1.2865 -4.3816 -2.5011 0.9794
-0.6500 -4.5208 -2.5015 0.9794
-0.4882 -4.5413 -2.5016 0.9794
-0.3259 -4.5560 -2.5017 0.9794
0.1631 -4.5653 -2.5020 0.9794
0.3259 -4.5568 -2.5021 0.9794
0.6502 -4.5223 -2.5024 0.9794
1.4431 -4.3359 -2.5029 0.9794
1.5970 -4.2818 -2.5030 0.9794
2.0458 -4.0870 -2.5032 0.9794
2.1904 -4.0115 -2.5033 0.9794
2.4712 -3.8453 -2.5035 0.9794
2.6070 -3.7548 -2.5036 0.9794
2.7394 -3.6594 -2.5037 0.9794
3.3461 -3.1154 -2.5040 0.9794
3.4553 -2.9940 -2.5041 0.9794
3.6602 -2.7400 -2.5042 0.9794
3.7558 -2.6077 -2.5043 0.9794
3.9324 -2.3332 -2.5044 0.9794
4.0133 -2.1914 -2.5044 0.9794
4.1595 -1.8996 -2.5045 0.9794
4.2247 -1.7499 -2.5045 0.9794
4.3389 -1.4441 -2.5046 0.9794
-4.3257 -0.1545 -2.4990 0.9802
-4.2845 -0.6160 -2.4991 0.9802
-4.2297 -0.9201 -2.4991 0.9802
-4.1942 -1.0705 -2.4991 0.9802
-4.1072 -1.3670 -2.4992 0.9802
-4.0559 -1.5128 -2.4992 0.9802
-3.7996 -2.0747 -2.4994 0.9802
-3.7232 -2.2091 -2.4995 0.9802
-3.5563 -2.4692 -2.4996 0.9802
-3.3712 -2.7167 -2.4997 0.9802
-3.2722 -2.8354 -2.4998 0.9802
-2.8357 -3.2726 -2.5001 0.9802
-2.5952 -3.4668 -2.5002 0.9802
-2.4699 -3.5573 -2.5003 0.9802
-2.0757 -3.8014 -2.5006 0.9802
-1.9388 -3.8732 -2.5007 0.9802
-1.7994 -3.9400 -2.5008 0.9802
-1.2205 -4.1566 -2.5011 0.9802
-0.9209 -4.2334 -2.5013 0.9802
-0.7693 -4.2638 -2.5014 0.9802
-0.4632 -4.3081 -2.5016 0.9802
-0.3091 -4.3221 -2.5017 0.9802
-0.0000 -4.3335 -2.5019 0.9802
0.1547 -4.3309 -2.5020 0.9802
0.4633 -4.3092 -2.5022 0.9802
0.6168 -4.2900 -2.5023 0.9802
0.9214 -4.2354 -2.5025 0.9802
1.3690 -4.1131 -2.5028 0.9802
1.5150 -4.0618 -2.5029 0.9802
1.6590 -4.0053 -2.5030 0.9802
1.9407 -3.8770 -2.5032 0.9802
2.0779 -3.8054 -2.5032 0.9802
2.2125 -3.7289 -2.5033 0.9802
2.8398 -3.2774 -2.5037 0.9802
2.9551 -3.1740 -2.5038 0.9802
3.0666 -3.0666 -2.5039 0.9802
3.1742 -2.9552 -2.5039 0.9802
3.3771 -2.7214 -2.5040 0.9802
3.4721 -2.5992 -2.5041 0.9802
3.6488 -2.3450 -2.5042 0.9802
3.7303 -2.2133 -2.5042 0.9802
3.8788 -1.9416 -2.5043 0.9802
3.9457 -1.8019 -2.5044 0.9802
4.0076 -1.6600 -2.5044 0.9802
4.0643 -1.5159 -2.5044 0.9802
4.1159 -1.3699 -2.5045 0.9802
4.1622 -1.2221 -2.5045 0.9802
4.2032 -1.0728 -2.5045 0.9802
4.2939 -0.6174 -2.5046 0.9802
4.3132 -0.4637 -2.5046 0.9802
4.3353 -0.1548 -2.5046 0.9802
