ply
format ascii 1.0
element vertex 1224
property float32 x
property float32 y
property float32 z
property float32 I
end_header
-46.4197 -1.6579 8.1903 0.8281
-23.1145 -9.5744 4.4115 0.9034
-41.8504 -19.1125 8.1125 0.8296
-37.7745 -20.6264 7.5889 0.8396
-36.3746 -21.5821 7.4578 0.8422
-34.2833 -22.0326 7.1858 0.8474
-33.4149 -25.0140 7.3600 0.8441
-4.7297 -16.1078 2.9601 0.9341
4.5976 -42.7639 7.5839 0.8397
5.6284 -39.1462 6.9735 0.8516
6.7011 -37.1417 6.6548 0.8579
8.2882 -38.1003 6.8752 0.8535
9.7723 -38.2873 6.9675 0.8517
11.5438 -39.3146 7.2249 0.8467
15.1677 -40.6663 7.6531 0.8384
19.0688 -41.7549 8.0939 0.8299
21.3450 -42.6418 8.4083 0.8239
-41.8507 -19.1126 7.0482 0.8301
-35.9263 -21.3161 6.3996 0.8445
-33.4724 -23.2403 6.2426 0.8480
-33.0821 -24.7649 6.3307 0.8460
-31.5370 -27.3270 6.3927 0.8446
-31.4111 -29.2448 6.5747 0.8406
3.3104 -46.2863 7.1089 0.8288
5.6284 -39.1464 6.0587 0.8521
6.7011 -37.1419 5.7818 0.8584
9.7723 -38.2875 6.0535 0.8522
11.5438 -39.3148 6.2771 0.8472
13.1874 -39.6219 6.3972 0.8445
16.9715 -40.9728 6.7940 0.8357
21.3455 -42.6430 7.3054 0.8245
-39.7490 -19.8970 5.7884 0.8359
-36.0745 -21.4040 5.4623 0.8443
-32.5586 -26.2374 5.4451 0.8448
-32.6991 -32.6992 6.0219 0.8298
-4.7226 -16.0838 2.1829 0.9346
3.3104 -46.2865 6.0429 0.8293
5.6284 -39.1466 5.1501 0.8525
15.1679 -40.6668 5.6520 0.8394
16.9716 -40.9731 5.7752 0.8362
21.3461 -42.6442 6.2100 0.8250
23.7184 -43.4371 6.4448 0.8190
-23.0403 -9.5436 2.6780 0.9045
-43.4539 -23.7276 5.3165 0.8194
-35.6150 -26.6610 4.7773 0.8361
-32.8600 -30.5937 4.8211 0.8348
-34.2104 -34.2104 5.1952 0.8231
3.3105 -46.2868 4.9830 0.8297
5.6285 -39.1468 4.2469 0.8529
6.7012 -37.1424 4.0528 0.8591
9.7724 -38.2880 4.2432 0.8530
11.5440 -39.3153 4.4000 0.8480
15.1680 -40.6671 4.6608 0.8398
16.9717 -40.9734 4.7623 0.8366
19.0692 -41.7557 4.9293 0.8314
32.6579 -30.4056 4.7914 0.8357
28.8120 -5.1983 3.1438 0.8889
-46.4170 -1.6578 3.9318 0.8299
-23.0159 -9.5335 2.1089 0.9048
-40.2318 -20.1386 3.8086 0.8348
-39.3417 -25.2834 3.9588 0.8288
-33.4703 -23.2388 3.4493 0.8491
-36.7936 -29.6502 4.0001 0.8272
-31.5368 -27.3268 3.5325 0.8458
-34.2106 -34.2106 4.0956 0.8235
-4.7157 -16.0601 1.4169 0.9350
-1.8313 -25.6046 2.1730 0.9021
1.7756 -49.7168 4.2114 0.8190
4.5487 -42.3095 3.6023 0.8430
5.6285 -39.1470 3.3480 0.8532
6.7013 -37.1426 3.1950 0.8594
13.1887 -39.6257 3.5353 0.8457
15.0537 -40.3606 3.6465 0.8412
16.9718 -40.9736 3.7543 0.8369
19.0693 -41.7560 3.8860 0.8317
21.3473 -42.6465 4.0371 0.8258
23.7197 -43.4394 4.1897 0.8198
-29.8469 -14.9403 2.0697 0.8748
-43.4914 -23.7481 3.0728 0.8199
-36.6936 -21.7713 2.6457 0.8428
-33.4696 -23.2383 2.5267 0.8493
-31.5367 -27.3267 2.5876 0.8460
-34.2107 -34.2108 3.0001 0.8237
-23.8220 -27.4921 2.2558 0.8643
-10.4838 -22.9564 1.5650 0.9038
-1.8315 -25.6080 1.5920 0.9022
5.6285 -39.1472 2.4525 0.8534
8.2884 -38.1013 2.4179 0.8553
6.0299 -20.5359 1.3272 0.9178
6.0544 -18.1905 1.1888 0.9260
15.1218 -40.5432 2.6833 0.8408
19.0694 -41.7563 2.8466 0.8320
23.7203 -43.4405 3.0692 0.8201
32.5441 -30.2996 2.7574 0.8368
28.8084 -5.1976 1.8153 0.8893
-46.3892 -1.6568 1.8303 0.8304
-40.2295 -20.1374 1.7739 0.8352
-29.1229 -15.9023 1.3084 0.8756
-36.6925 -21.7707 1.6823 0.8430
-39.2958 -25.2539 1.8419 0.8295
-33.4689 -23.2379 1.6066 0.8495
-32.8605 -30.5942 1.7704 0.8355
-12.1237 -32.5047 1.3679 0.8703
-4.7088 -16.0367 0.6590 0.9353
-1.8315 -25.6085 1.0124 0.9023
4.6082 -42.8627 1.6999 0.8415
5.6283 -39.1459 1.5594 0.8536
5.4143 -21.2130 0.8633 0.9161
11.5442 -39.3160 1.6157 0.8487
6.7215 -20.1949 0.8393 0.9183
15.1683 -40.6678 1.7115 0.8405
21.5105 -42.9726 1.8949 0.8250
17.2401 -31.5728 1.4185 0.8659
-46.4189 -1.6578 0.7846 0.8304
-22.9436 -9.5036 0.4195 0.9054
-36.6913 -21.7700 0.7207 0.8431
-39.2012 -25.1931 0.7871 0.8299
-31.5366 -27.3266 0.7049 0.8463
-6.3821 -13.9748 0.2595 0.9404
-12.1237 -32.5049 0.5860 0.8704
-4.7054 -16.0251 0.2821 0.9354
5.6285 -39.1475 0.6681 0.8537
6.7014 -37.1432 0.6375 0.8599
5.6117 -19.1116 0.3365 0.9234
13.1899 -39.6294 0.7055 0.8461
17.1517 -41.4079 0.7571 0.8359
19.2714 -42.1986 0.7836 0.8306
21.5107 -42.9728 0.8118 0.8251
32.4701 -30.2307 0.7494 0.8374
-40.2271 -20.1362 -0.2533 0.8353
-36.6902 -21.7693 -0.2402 0.8431
-39.2700 -25.2373 -0.2628 0.8297
-32.8608 -30.5945 -0.2528 0.8356
-34.2113 -34.2113 -0.2724 0.8240
-6.3788 -13.9676 -0.0865 0.9404
-12.1238 -32.5051 -0.1953 0.8704
-4.7020 -16.0135 -0.0940 0.9354
-1.8316 -25.6094 -0.1446 0.9024
3.3106 -46.2880 -0.2613 0.8306
5.6288 -39.1491 -0.2227 0.8537
8.2886 -38.1019 -0.2195 0.8556
4.8768 -19.1073 -0.1110 0.9242
5.5390 -18.8641 -0.1107 0.9244
15.1685 -40.6683 -0.2444 0.8406
17.1518 -41.4081 -0.2523 0.8359
19.2716 -42.1989 -0.2612 0.8306
22.8156 -41.7838 -0.2680 0.8266
25.2947 -42.6319 -0.2791 0.8201
32.4454 -30.2077 -0.2496 0.8375
28.7985 -5.1958 -0.1648 0.8895
-22.8958 -9.4837 -0.6978 0.9056
-40.2260 -20.1357 -1.2666 0.8353
-36.6890 -21.7686 -1.2012 0.8431
-39.2690 -25.2367 -1.3144 0.8296
-33.4668 -23.2364 -1.1472 0.8496
-35.0670 -26.2508 -1.2334 0.8392
-30.7415 -24.7730 -1.1117 0.8539
-31.5364 -27.3265 -1.1750 0.8462
-12.1238 -32.5052 -0.9769 0.8704
1.6116 -45.1254 -1.2714 0.8347
4.6088 -42.8684 -1.2140 0.8415
6.7014 -37.1436 -1.0628 0.8598
8.2886 -38.1021 -1.0980 0.8555
4.8769 -19.1076 -0.5553 0.9241
13.1907 -39.6319 -1.1761 0.8461
19.2717 -42.1991 -1.3063 0.8306
32.4207 -30.1847 -1.2473 0.8376
28.7953 -5.1952 -0.8239 0.8895
-46.2920 0.0000 -2.3477 0.8308
-45.4446 -1.6230 -2.3062 0.8335
-46.8302 -3.3494 -2.3810 0.8286
-46.6619 -5.0166 -2.3801 0.8286
-32.3476 -4.6509 -1.6574 0.8773
-41.1606 -7.4262 -2.1211 0.8458
-46.1157 -10.0319 -2.3934 0.8278
-35.0367 -8.9426 -1.8338 0.8652
-24.6877 -7.2490 -1.3049 0.9021
-40.2248 -20.1351 -2.2813 0.8351
-36.9575 -20.1803 -2.1355 0.8448
-33.4661 -23.2359 -2.0662 0.8494
-34.9738 -26.1810 -2.2156 0.8395
-31.5364 -27.3264 -2.1162 0.8461
-32.8612 -30.5948 -2.2770 0.8354
-34.0396 -34.0395 -2.4413 0.8246
-32.8187 -35.2497 -2.4425 0.8246
-30.2391 -37.5244 -2.4440 0.8245
-28.8860 -38.5872 -2.4445 0.8244
-6.3738 -13.9567 -0.7781 0.9404
-10.6150 -28.4600 -1.5404 0.8855
-5.3637 -29.7288 -1.5320 0.8860
-6.8065 -47.3401 -2.4255 0.8257
-1.7003 -47.6059 -2.4158 0.8263
1.6118 -45.1303 -2.2902 0.8345
4.5971 -42.7598 -2.1810 0.8418
8.2761 -38.0446 -1.9745 0.8556
5.5392 -18.8647 -0.9971 0.9243
15.1309 -40.5675 -2.1958 0.8408
20.7556 -41.4645 -2.3516 0.8305
23.5504 -39.6920 -2.3406 0.8312
18.5712 -28.8973 -1.7420 0.8715
27.4581 -36.6798 -2.3237 0.8323
29.8563 -34.4560 -2.3122 0.8331
31.7488 -29.5591 -2.1999 0.8405
34.1521 -29.5930 -2.2918 0.8344
39.7835 -27.6222 -2.4562 0.8237
40.7440 -26.1846 -2.4562 0.8237
41.6535 -24.7142 -2.4563 0.8237
42.5110 -23.2128 -2.4564 0.8237
43.3153 -21.6821 -2.4565 0.8237
45.3998 -16.9333 -2.4574 0.8236
44.1145 -11.2596 -2.3090 0.8333
33.2143 -7.2253 -1.7238 0.8727
28.7923 -5.1947 -1.4838 0.8894
45.0977 -6.4841 -2.3106 0.8332
45.4716 -3.2522 -2.3119 0.8331
45.5732 -1.6277 -2.3127 0.8331
-34.3400 -2.4560 -2.5243 0.8710
-33.1178 -3.5605 -2.4423 0.8749
-31.7902 -5.7356 -2.3686 0.8785
-31.5554 -6.8645 -2.3678 0.8785
-31.2801 -7.9838 -2.3671 0.8786
-24.6879 -7.2490 -1.8866 0.9019
-22.9020 -9.4863 -1.8176 0.9054
-22.9193 -13.5987 -1.9540 0.8986
-27.2829 -17.5337 -2.3779 0.8780
-25.9975 -19.4614 -2.3811 0.8779
-23.0078 -23.0078 -2.3858 0.8777
-21.3199 -24.6044 -2.3871 0.8776
-20.4321 -25.3547 -2.3876 0.8776
-18.5748 -26.7528 -2.3880 0.8775
-15.7880 -26.6092 -2.2686 0.8833
-15.6051 -28.5786 -2.3875 0.8776
-6.3726 -13.9540 -1.1248 0.9403
-11.6315 -28.0810 -2.2286 0.8852
-10.6151 -28.4601 -2.2272 0.8853
-6.8975 -31.7071 -2.3792 0.8780
-5.7572 -31.9099 -2.3775 0.8781
-1.1533 -32.2913 -2.3692 0.8785
2.2977 -32.1268 -2.3616 0.8788
3.4390 -31.9870 -2.3589 0.8789
4.5729 -31.8053 -2.3560 0.8791
5.6980 -31.5819 -2.3530 0.8792
6.8127 -31.3175 -2.3500 0.8794
4.8746 -19.0983 -1.4452 0.9240
12.1780 -29.4002 -2.3333 0.8802
13.1993 -28.9025 -2.3297 0.8803
13.4945 -26.9585 -2.2105 0.8861
13.0317 -23.8657 -1.9938 0.8967
15.7516 -22.6866 -2.0251 0.8951
18.9679 -25.3383 -2.3207 0.8808
20.7219 -23.9143 -2.3201 0.8808
22.1677 -23.8098 -2.3853 0.8777
25.4561 -22.0578 -2.4697 0.8736
26.9628 -20.1841 -2.4695 0.8736
28.3335 -18.2089 -2.4695 0.8736
29.5617 -16.1419 -2.4696 0.8736
30.1204 -15.0772 -2.4697 0.8736
31.5668 -11.7738 -2.4703 0.8736
31.9703 -10.6407 -2.4706 0.8736
32.6564 -8.3350 -2.4712 0.8736
30.9327 -6.7290 -2.3211 0.8808
28.6690 -5.1725 -2.1360 0.8897
31.4917 -3.3857 -2.3223 0.8807
31.5990 -2.2600 -2.3228 0.8807
31.6665 -1.1310 -2.3233 0.8807
-25.7989 -4.6546 -2.5168 0.9000
-25.6102 -5.5712 -2.5162 0.9000
-22.2408 -10.1570 -2.3474 0.9064
-21.9686 -10.9967 -2.3586 0.9060
-21.5558 -11.7704 -2.3579 0.9060
-20.1556 -13.9943 -2.3557 0.9061
-16.8629 -15.6999 -2.2120 0.9116
-15.4164 -19.1306 -2.3588 0.9060
-14.7252 -19.6706 -2.3590 0.9060
-11.2994 -17.5821 -2.0065 0.9194
-6.3713 -13.9513 -1.4725 0.9402
-9.3967 -22.6856 -2.3574 0.9060
-8.5784 -22.9995 -2.3567 0.9061
-4.6884 -15.9671 -1.5976 0.9353
-2.6149 -24.3218 -2.3485 0.9064
-1.7439 -24.3830 -2.3469 0.9064
-0.8719 -24.4120 -2.3452 0.9065
0.8705 -24.3737 -2.3415 0.9066
4.3148 -23.9155 -2.3331 0.9070
4.8746 -19.0986 -1.8923 0.9238
7.6655 -23.0312 -2.3304 0.9071
8.4810 -22.7384 -2.3299 0.9071
9.2854 -22.4170 -2.3295 0.9071
11.6226 -21.2851 -2.3283 0.9071
13.1439 -20.4523 -2.3340 0.9069
15.4675 -20.6621 -2.4779 0.9015
16.8988 -19.5022 -2.4774 0.9015
17.5826 -18.8850 -2.4772 0.9015
18.2442 -18.2442 -2.4770 0.9015
18.8826 -17.5803 -2.4769 0.9015
19.4971 -16.8944 -2.4768 0.9015
20.0870 -16.1871 -2.4767 0.9015
21.1898 -14.7124 -2.4766 0.9015
22.1857 -13.1634 -2.4766 0.9015
22.6419 -12.3634 -2.4767 0.9015
23.0696 -11.5478 -2.4768 0.9015
23.4681 -10.7175 -2.4769 0.9015
24.1761 -9.0172 -2.4772 0.9015
24.7621 -7.2708 -2.4776 0.9015
25.0084 -6.3830 -2.4779 0.9015
25.2233 -5.4870 -2.4782 0.9015
24.2431 -4.3739 -2.3650 0.9058
24.0012 -3.4508 -2.3279 0.9072
24.1126 -2.5924 -2.3283 0.9071
24.1936 -1.7304 -2.3286 0.9071
24.2441 -0.8659 -2.3290 0.9071
-21.1615 -0.7558 -2.5153 0.9182
-21.1176 -1.5104 -2.5149 0.9183
-20.8240 -3.7571 -2.5135 0.9183
-20.6727 -4.4971 -2.5131 0.9183
-20.2910 -5.9580 -2.5120 0.9183
-20.0611 -6.6770 -2.5115 0.9184
-19.8058 -7.3872 -2.5110 0.9184
-19.5126 -8.0824 -2.5088 0.9184
-18.9676 -8.6622 -2.4769 0.9194
-18.0206 -9.0205 -2.3938 0.9220
-17.0527 -10.1178 -2.3553 0.9232
-16.6766 -10.7174 -2.3548 0.9233
-16.2793 -11.3030 -2.3542 0.9233
-15.8615 -11.8738 -2.3536 0.9233
-13.6770 -11.8512 -2.1497 0.9297
-14.4900 -13.4907 -2.3517 0.9233
-13.4836 -14.4824 -2.3505 0.9234
-12.4094 -15.3991 -2.3492 0.9234
-10.6835 -16.6239 -2.3473 0.9235
-9.4652 -17.3343 -2.3460 0.9235
-7.5520 -18.2321 -2.3442 0.9236
-3.9415 -15.4426 -1.8932 0.9378
-3.4021 -15.6394 -1.9012 0.9376
-2.8035 -19.4985 -2.3400 0.9237
-1.4046 -19.6395 -2.3389 0.9238
-0.7026 -19.6725 -2.3383 0.9238
-0.0000 -19.6806 -2.3378 0.9238
1.4034 -19.6219 -2.3368 0.9238
2.1024 -19.5552 -2.3363 0.9238
2.7985 -19.4637 -2.3358 0.9238
3.4907 -19.3476 -2.3353 0.9239
4.1783 -19.2071 -2.3349 0.9239
5.5358 -18.8533 -2.3340 0.9239
7.6137 -18.3811 -2.3633 0.9230
8.5460 -18.7132 -2.4437 0.9205
9.3494 -18.6777 -2.4811 0.9193
10.0184 -18.3473 -2.4831 0.9192
11.9182 -17.1655 -2.4823 0.9193
15.7858 -13.6785 -2.4812 0.9193
16.2635 -13.1060 -2.4811 0.9193
16.7206 -12.5169 -2.4810 0.9193
17.5708 -11.2921 -2.4810 0.9193
18.3321 -10.0101 -2.4811 0.9193
19.5735 -7.3005 -2.4815 0.9193
20.0473 -5.8864 -2.4819 0.9193
20.2463 -5.1676 -2.4821 0.9193
20.4198 -4.4420 -2.4823 0.9193
20.5674 -3.7108 -2.4826 0.9193
20.3163 -2.9210 -2.4381 0.9206
19.5841 -1.4007 -2.3323 0.9240
19.6243 -0.7009 -2.3326 0.9239
-17.7231 -0.6330 -2.5128 0.9309
-17.6279 -1.8952 -2.5121 0.9309
-17.5464 -2.5228 -2.5117 0.9309
-17.3162 -3.7669 -2.5109 0.9309
-16.9976 -4.9909 -2.5101 0.9309
-16.8057 -5.5935 -2.5096 0.9309
-15.5307 -8.4804 -2.5072 0.9310
-14.8800 -9.5628 -2.5062 0.9310
-14.5007 -10.0680 -2.5013 0.9312
-12.1444 -11.3068 -2.3511 0.9352
-10.4023 -12.9085 -2.3490 0.9352
-9.9327 -13.2685 -2.3484 0.9352
-9.4507 -13.6115 -2.3479 0.9352
-7.9361 -14.5339 -2.3463 0.9353
-7.4106 -14.8045 -2.3458 0.9353
-6.3157 -13.8295 -2.1542 0.9404
-6.3328 -15.2887 -2.3447 0.9353
-5.7818 -15.5015 -2.3442 0.9353
-4.9810 -14.9656 -2.2348 0.9383
-4.4511 -15.1589 -2.2385 0.9382
-3.9186 -15.3531 -2.2451 0.9380
-3.3824 -15.5487 -2.2546 0.9377
-2.9344 -16.2643 -2.3417 0.9354
-1.7659 -16.4255 -2.3407 0.9354
0.0000 -16.5105 -2.3394 0.9355
0.5892 -16.4970 -2.3389 0.9355
2.3612 -16.4227 -2.3509 0.9352
3.0047 -16.6537 -2.3977 0.9339
5.5438 -16.6565 -2.4873 0.9315
6.1340 -16.4458 -2.4870 0.9315
6.7162 -16.2143 -2.4867 0.9316
7.8539 -15.6902 -2.4861 0.9316
8.9514 -15.0867 -2.4856 0.9316
10.5101 -14.0398 -2.4849 0.9316
11.4833 -13.2525 -2.4846 0.9316
11.9484 -12.8334 -2.4845 0.9316
12.3982 -12.3982 -2.4843 0.9316
13.2501 -11.4813 -2.4842 0.9316
14.0349 -10.5064 -2.4841 0.9316
14.4008 -9.9987 -2.4840 0.9316
15.9486 -7.2835 -2.4842 0.9316
16.1990 -6.7099 -2.4843 0.9316
16.4290 -6.1277 -2.4845 0.9316
16.8263 -4.9406 -2.4848 0.9316
16.9931 -4.3372 -2.4849 0.9316
17.2621 -3.1144 -2.4853 0.9316
17.3638 -2.4965 -2.4856 0.9316
16.4358 -1.1755 -2.3347 0.9356
16.4692 -0.5882 -2.3350 0.9356
-15.2437 0.0000 -2.5112 0.9401
-15.2014 -1.0872 -2.5107 0.9401
-15.0813 -2.1684 -2.5100 0.9401
-14.8841 -3.2378 -2.5094 0.9401
-14.6110 -4.2902 -2.5086 0.9401
-13.8429 -6.3219 -2.5070 0.9402
-13.3521 -7.2908 -2.5062 0.9402
-12.7935 -8.2219 -2.5053 0.9402
-12.4896 -8.6717 -2.5048 0.9402
-12.1699 -9.1103 -2.5044 0.9402
-10.3492 -11.1158 -2.5020 0.9403
-9.9412 -11.4728 -2.5008 0.9403
-9.5126 -11.8044 -2.4975 0.9404
-8.5992 -12.3852 -2.4839 0.9407
-8.0804 -12.5734 -2.4622 0.9412
-7.5697 -12.7581 -2.4439 0.9416
-5.5833 -13.4792 -2.4035 0.9426
-4.6049 -13.8356 -2.4022 0.9426
-3.1260 -14.3699 -2.4226 0.9421
-2.6250 -14.5497 -2.4356 0.9418
0.0000 -15.1203 -2.4909 0.9405
1.0789 -15.0852 -2.4915 0.9405
2.1517 -14.9653 -2.4907 0.9405
4.2573 -14.4990 -2.4894 0.9406
6.2745 -13.7393 -2.4883 0.9406
7.7051 -12.9862 -2.4876 0.9406
9.8850 -11.4079 -2.4867 0.9406
10.6727 -10.6727 -2.4865 0.9406
11.0465 -10.2846 -2.4864 0.9406
12.0818 -9.0443 -2.4863 0.9407
12.9794 -7.7010 -2.4863 0.9407
13.4962 -6.7557 -2.4863 0.9407
13.7291 -6.2698 -2.4864 0.9406
13.9446 -5.7760 -2.4865 0.9406
14.3224 -4.7669 -2.4867 0.9406
14.4842 -4.2529 -2.4868 0.9406
-13.3162 -0.9524 -2.5093 0.9471
-13.2723 -1.4269 -2.5090 0.9471
-13.2114 -1.8995 -2.5088 0.9471
-13.1337 -2.3696 -2.5085 0.9471
-12.8003 -3.7585 -2.5075 0.9472
-12.6563 -4.2124 -2.5072 0.9472
-12.4962 -4.6608 -2.5069 0.9472
-12.3201 -5.1032 -2.5065 0.9472
-12.1284 -5.5388 -2.5061 0.9472
-11.2099 -7.2041 -2.5046 0.9472
-9.7447 -9.0727 -2.5026 0.9473
-9.4131 -9.4131 -2.5022 0.9473
-8.7147 -10.0573 -2.5013 0.9473
-8.3487 -10.3602 -2.5009 0.9473
-7.5858 -10.9256 -2.5000 0.9473
-7.1898 -11.1875 -2.4996 0.9473
-6.3712 -11.6679 -2.4988 0.9473
-5.9496 -11.8859 -2.4983 0.9473
-4.6427 -12.4475 -2.4971 0.9474
-4.1947 -12.6031 -2.4967 0.9474
-3.2839 -12.8661 -2.4958 0.9474
-1.8888 -13.1372 -2.4947 0.9474
-1.4185 -13.1942 -2.4943 0.9474
0.0000 -13.2644 -2.4932 0.9474
0.4734 -13.2541 -2.4928 0.9475
0.9461 -13.2270 -2.4925 0.9475
1.4173 -13.1830 -2.4922 0.9475
1.8867 -13.1223 -2.4918 0.9475
2.3536 -13.0450 -2.4915 0.9475
2.8173 -12.9511 -2.4912 0.9475
4.1842 -12.5715 -2.4904 0.9475
5.5025 -12.0487 -2.4897 0.9475
6.7572 -11.3887 -2.4891 0.9475
7.1589 -11.1395 -2.4889 0.9475
7.9344 -10.5991 -2.4886 0.9475
8.3072 -10.3086 -2.4884 0.9475
8.6694 -10.0050 -2.4883 0.9475
9.0206 -9.6888 -2.4882 0.9475
9.3603 -9.3603 -2.4881 0.9475
10.0037 -8.6682 -2.4880 0.9476
10.3065 -8.3055 -2.4880 0.9476
10.5963 -7.9323 -2.4879 0.9476
10.8726 -7.5490 -2.4879 0.9476
11.1351 -7.1561 -2.4879 0.9476
11.6174 -6.3436 -2.4880 0.9476
11.8367 -5.9250 -2.4880 0.9476
12.0409 -5.4989 -2.4881 0.9475
12.5611 -4.1807 -2.4883 0.9475
13.1077 -1.8846 -2.4891 0.9475
13.2134 -0.4719 -2.4852 0.9476
-11.8683 0.0000 -2.5087 0.9526
-11.8597 -0.4236 -2.5085 0.9526
-11.7431 -1.6884 -2.5078 0.9527
-11.6741 -2.1062 -2.5075 0.9527
-11.5902 -2.5213 -2.5072 0.9527
-11.3783 -3.3410 -2.5067 0.9527
-11.2504 -3.7445 -2.5064 0.9527
-11.1083 -4.1432 -2.5061 0.9527
-10.7817 -4.9238 -2.5054 0.9527
-10.5976 -5.3048 -2.5051 0.9527
-10.4002 -5.6789 -2.5048 0.9527
-9.9658 -6.4046 -2.5041 0.9527
-9.2201 -7.4300 -2.5030 0.9527
-8.9477 -7.7533 -2.5026 0.9527
-8.0641 -8.6615 -2.5015 0.9528
-7.7486 -8.9424 -2.5012 0.9528
-7.4234 -9.2119 -2.5008 0.9528
-6.3933 -9.9481 -2.4996 0.9528
-6.0332 -10.1684 -2.4993 0.9528
-5.2908 -10.5697 -2.4985 0.9528
-4.9094 -10.7502 -2.4981 0.9528
-4.5219 -10.9169 -2.4978 0.9528
-4.1288 -11.0697 -2.4974 0.9528
-3.7305 -11.2084 -2.4970 0.9529
-1.6800 -11.6844 -2.4952 0.9529
-0.8419 -11.7713 -2.4946 0.9529
-0.4212 -11.7923 -2.4942 0.9529
-0.0000 -11.7983 -2.4939 0.9529
0.4211 -11.7893 -2.4936 0.9529
1.2607 -11.7264 -2.4930 0.9529
2.0936 -11.6040 -2.4925 0.9529
2.9155 -11.4227 -2.4919 0.9529
3.7222 -11.1834 -2.4914 0.9530
4.1186 -11.0424 -2.4912 0.9530
4.5097 -10.8874 -2.4910 0.9530
5.2741 -10.5363 -2.4906 0.9530
5.6464 -10.3406 -2.4904 0.9530
6.0115 -10.1318 -2.4903 0.9530
6.3689 -9.9101 -2.4901 0.9530
6.7181 -9.6759 -2.4900 0.9530
7.3905 -9.1711 -2.4897 0.9530
8.3276 -8.3276 -2.4894 0.9530
8.6193 -8.0248 -2.4894 0.9530
9.1695 -7.3892 -2.4893 0.9530
9.4273 -7.0572 -2.4892 0.9530
9.6731 -6.7161 -2.4892 0.9530
10.1276 -6.0090 -2.4892 0.9530
10.3358 -5.6438 -2.4893 0.9530
10.5308 -5.2713 -2.4893 0.9530
11.0348 -4.1158 -2.4895 0.9530
11.4130 -2.9130 -2.4898 0.9530
11.5103 -2.5039 -2.4900 0.9530
11.7526 -0.8406 -2.4906 0.9530
11.7760 -0.4206 -2.4908 0.9530
-10.6416 -0.7611 -2.5074 0.9571
-10.6068 -1.1403 -2.5072 0.9571
-10.5583 -1.5181 -2.5070 0.9571
-10.4965 -1.8938 -2.5067 0.9571
-10.2308 -3.0040 -2.5060 0.9571
-9.9883 -3.7254 -2.5054 0.9571
-9.8478 -4.0791 -2.5052 0.9571
-9.5295 -4.7701 -2.5046 0.9572
-9.1627 -5.4365 -2.5040 0.9572
-8.9617 -5.7594 -2.5037 0.9572
-8.5258 -6.3824 -2.5030 0.9572
-8.0467 -6.9725 -2.5024 0.9572
-7.5268 -7.5268 -2.5017 0.9572
-6.9688 -8.0424 -2.5010 0.9572
-6.6764 -8.2849 -2.5007 0.9572
-5.7501 -8.9474 -2.4997 0.9572
-5.4264 -9.1457 -2.4993 0.9572
-4.4159 -9.6694 -2.4983 0.9573
-3.7138 -9.9571 -2.4976 0.9573
-2.9932 -10.1940 -2.4970 0.9573
-2.6271 -10.2930 -2.4966 0.9573
-2.2578 -10.3789 -2.4963 0.9573
-1.8857 -10.4515 -2.4960 0.9573
-1.5112 -10.5109 -2.4957 0.9573
-0.3789 -10.6084 -2.4948 0.9573
0.3788 -10.6060 -2.4942 0.9573
1.5099 -10.5014 -2.4934 0.9573
1.8835 -10.4397 -2.4932 0.9573
2.2547 -10.3649 -2.4930 0.9574
2.6230 -10.2768 -2.4927 0.9574
3.3489 -10.0617 -2.4923 0.9574
4.0575 -9.7956 -2.4919 0.9574
4.4042 -9.6439 -2.4917 0.9574
4.7453 -9.4799 -2.4915 0.9574
6.0447 -8.7060 -2.4909 0.9574
7.2210 -7.7559 -2.4905 0.9574
7.7555 -7.2206 -2.4904 0.9574
8.4825 -6.3499 -2.4903 0.9574
8.7037 -6.0431 -2.4903 0.9574
8.9138 -5.7286 -2.4903 0.9574
9.6388 -4.4019 -2.4904 0.9574
9.7901 -4.0552 -2.4905 0.9574
10.2690 -2.6210 -2.4908 0.9574
10.4309 -1.8819 -2.4911 0.9574
-9.6760 -0.3456 -2.5069 0.9608
-9.6253 -1.0348 -2.5065 0.9608
-9.2845 -2.7262 -2.5054 0.9608
-9.0646 -3.3809 -2.5049 0.9608
-8.9372 -3.7019 -2.5047 0.9608
-8.6485 -4.3291 -2.5041 0.9608
-8.4876 -4.6346 -2.5039 0.9608
-8.3158 -4.9340 -2.5036 0.9608
-8.1335 -5.2271 -2.5033 0.9608
-7.7381 -5.7927 -2.5027 0.9608
-7.5255 -6.0645 -2.5024 0.9609
-7.3034 -6.3284 -2.5021 0.9609
-6.8317 -6.8317 -2.5015 0.9609
-6.3254 -7.2999 -2.5009 0.9609
-5.7870 -7.7306 -2.5003 0.9609
-5.2195 -8.1217 -2.4997 0.9609
-4.9257 -8.3018 -2.4994 0.9609
-4.3198 -8.6299 -2.4987 0.9609
-3.6923 -8.9139 -2.4981 0.9609
-3.3713 -9.0389 -2.4978 0.9609
-2.3850 -9.3442 -2.4969 0.9609
-2.0497 -9.4223 -2.4966 0.9609
-1.7119 -9.4883 -2.4964 0.9609
-1.3720 -9.5423 -2.4961 0.9609
-0.6876 -9.6138 -2.4955 0.9610
-0.3440 -9.6311 -2.4953 0.9610
-0.0000 -9.6363 -2.4950 0.9610
0.3439 -9.6292 -2.4948 0.9610
0.6873 -9.6098 -2.4945 0.9610
2.0472 -9.4107 -2.4936 0.9610
2.7129 -9.2392 -2.4932 0.9610
3.3645 -9.0207 -2.4928 0.9610
3.6841 -8.8942 -2.4926 0.9610
4.3087 -8.6076 -2.4923 0.9610
4.6129 -8.4479 -2.4921 0.9610
5.2032 -8.0964 -2.4919 0.9610
5.7670 -7.7039 -2.4917 0.9610
6.0381 -7.4928 -2.4916 0.9610
6.3015 -7.2723 -2.4915 0.9610
6.8038 -6.8038 -2.4913 0.9610
7.0422 -6.5565 -2.4913 0.9610
7.7024 -5.7659 -2.4912 0.9610
8.2746 -4.9096 -2.4912 0.9610
8.4446 -4.6111 -2.4912 0.9610
8.6040 -4.3068 -2.4912 0.9610
8.8896 -3.6822 -2.4913 0.9610
9.1302 -3.0388 -2.4915 0.9610
9.3244 -2.3799 -2.4917 0.9610
9.4713 -1.7088 -2.4919 0.9610
9.5701 -1.0289 -2.4921 0.9610
9.6013 -0.6867 -2.4923 0.9610
-8.8538 0.0000 -2.5065 0.9639
-8.8476 -0.3160 -2.5063 0.9639
-8.7612 -1.2597 -2.5058 0.9639
-8.7100 -1.5715 -2.5056 0.9639
-8.6477 -1.8812 -2.5054 0.9639
-8.5743 -2.1885 -2.5052 0.9639
-8.4900 -2.4929 -2.5049 0.9639
-8.3949 -2.7941 -2.5047 0.9639
-8.2891 -3.0917 -2.5045 0.9639
-8.0459 -3.6744 -2.5040 0.9639
-7.7617 -4.2382 -2.5035 0.9639
-7.4380 -4.7801 -2.5030 0.9639
-7.2619 -5.0421 -2.5027 0.9639
-7.0766 -5.2975 -2.5025 0.9639
-6.4677 -6.0216 -2.5017 0.9639
-6.0203 -6.4662 -2.5011 0.9639
-5.5424 -6.8777 -2.5005 0.9639
-5.2928 -7.0703 -2.5003 0.9639
-4.5051 -7.5930 -2.4994 0.9640
-3.9511 -7.8932 -2.4988 0.9640
-3.6664 -8.0283 -2.4986 0.9640
-3.0837 -8.2676 -2.4980 0.9640
-2.7863 -8.3715 -2.4977 0.9640
-1.8748 -8.6186 -2.4969 0.9640
-1.5659 -8.6791 -2.4967 0.9640
-1.2550 -8.7285 -2.4964 0.9640
-0.6290 -8.7941 -2.4959 0.9640
0.9420 -8.7619 -2.4947 0.9640
1.5644 -8.6709 -2.4943 0.9640
1.8728 -8.6089 -2.4941 0.9640
2.1787 -8.5359 -2.4939 0.9640
2.7816 -8.3575 -2.4936 0.9640
4.7602 -7.4070 -2.4926 0.9641
5.9986 -6.4430 -2.4921 0.9641
6.2246 -6.2246 -2.4920 0.9641
6.6526 -5.7645 -2.4920 0.9641
6.8540 -5.5233 -2.4919 0.9641
7.4051 -4.7589 -2.4919 0.9641
7.5702 -4.4916 -2.4919 0.9641
8.2481 -3.0764 -2.4921 0.9641
8.4471 -2.4802 -2.4923 0.9641
8.5305 -2.1773 -2.4923 0.9641
8.6031 -1.8715 -2.4924 0.9641
8.7836 -0.6282 -2.4929 0.9641
8.8010 -0.3143 -2.4931 0.9641
-8.1416 -0.2908 -2.5058 0.9665
-8.1255 -0.5811 -2.5056 0.9665
-8.0991 -0.8707 -2.5055 0.9665
-7.8904 -2.0139 -2.5047 0.9665
-7.8129 -2.2941 -2.5045 0.9665
-7.7254 -2.5713 -2.5043 0.9665
-7.5210 -3.1153 -2.5039 0.9665
-7.4044 -3.3815 -2.5037 0.9665
-7.1430 -3.9004 -2.5032 0.9665
-6.9986 -4.1524 -2.5030 0.9665
-6.6832 -4.6402 -2.5025 0.9665
-6.5127 -4.8753 -2.5023 0.9665
-6.3339 -5.1042 -2.5020 0.9665
-6.1471 -5.3265 -2.5018 0.9665
-5.7502 -5.7503 -2.5013 0.9665
-5.3243 -6.1446 -2.5007 0.9665
-4.8714 -6.5074 -2.5002 0.9666
-4.6355 -6.6764 -2.5000 0.9666
-4.3938 -6.8369 -2.4997 0.9666
-4.1465 -6.9886 -2.4994 0.9666
-2.5647 -7.7056 -2.4979 0.9666
-2.2878 -7.7914 -2.4976 0.9666
-2.0080 -7.8673 -2.4974 0.9666
-1.7258 -7.9332 -2.4971 0.9666
-1.1552 -8.0346 -2.4967 0.9666
0.0000 -8.1142 -2.4958 0.9666
0.5788 -8.0922 -2.4953 0.9666
1.1544 -8.0290 -2.4949 0.9666
1.4401 -7.9821 -2.4948 0.9666
1.7240 -7.9250 -2.4946 0.9666
2.5607 -7.6937 -2.4941 0.9666
2.8335 -7.5970 -2.4939 0.9666
3.3679 -7.3746 -2.4936 0.9666
3.6287 -7.2493 -2.4935 0.9666
5.3074 -6.1250 -2.4928 0.9667
5.5225 -5.9315 -2.4927 0.9667
5.7305 -5.7305 -2.4927 0.9667
6.1245 -5.3069 -2.4926 0.9667
6.3100 -5.0849 -2.4926 0.9667
6.8173 -4.3812 -2.4925 0.9667
6.9693 -4.1351 -2.4925 0.9667
7.2467 -3.6274 -2.4926 0.9667
7.3717 -3.3665 -2.4926 0.9667
7.5934 -2.8322 -2.4927 0.9667
7.8533 -2.0044 -2.4929 0.9666
7.9769 -1.4392 -2.4931 0.9666
8.1021 -0.2894 -2.4936 0.9666
-7.5173 -0.5376 -2.5052 0.9687
-7.4929 -0.8056 -2.5050 0.9687
-7.3624 -1.6016 -2.5045 0.9687
-7.1474 -2.3789 -2.5040 0.9687
-7.0574 -2.6323 -2.5038 0.9687
-6.9584 -2.8823 -2.5036 0.9688
-6.3334 -4.0702 -2.5025 0.9688
-6.1835 -4.2933 -2.5023 0.9688
-5.8604 -4.7226 -2.5019 0.9688
-5.5076 -5.1277 -2.5014 0.9688
-4.9265 -5.6855 -2.5007 0.9688
-4.5075 -6.0213 -2.5002 0.9688
-4.2893 -6.1777 -2.4999 0.9688
-3.8369 -6.4667 -2.4995 0.9688
-3.6033 -6.5989 -2.4992 0.9688
-3.1227 -6.8378 -2.4987 0.9688
-2.8764 -6.9443 -2.4985 0.9688
-2.6265 -7.0419 -2.4983 0.9688
-2.1170 -7.2099 -2.4978 0.9688
-1.5970 -7.3413 -2.4973 0.9688
-1.3338 -7.3929 -2.4971 0.9688
-0.2680 -7.5049 -2.4963 0.9688
0.0000 -7.5091 -2.4961 0.9688
1.0683 -7.4304 -2.4953 0.9689
1.3328 -7.3870 -2.4951 0.9689
1.5955 -7.3342 -2.4950 0.9689
1.8561 -7.2721 -2.4948 0.9689
2.3699 -7.1203 -2.4945 0.9689
2.6223 -7.0308 -2.4943 0.9689
3.3584 -6.7091 -2.4940 0.9689
3.8281 -6.4519 -2.4937 0.9689
4.2783 -6.1619 -2.4935 0.9689
4.4953 -6.0050 -2.4935 0.9689
4.9120 -5.6687 -2.4933 0.9689
5.1111 -5.4897 -2.4933 0.9689
5.4895 -5.1109 -2.4932 0.9689
5.6683 -4.9116 -2.4931 0.9689
6.0041 -4.4946 -2.4931 0.9689
6.1607 -4.2775 -2.4931 0.9689
6.3095 -4.0549 -2.4931 0.9689
6.8226 -3.1158 -2.4932 0.9689
7.2682 -1.8551 -2.4935 0.9689
7.4257 -1.0676 -2.4937 0.9689
7.4594 -0.8020 -2.4938 0.9689
7.4836 -0.5352 -2.4940 0.9689
-7.0051 0.0000 -2.5051 0.9707
-7.0003 -0.2500 -2.5049 0.9707
-6.9638 -0.7487 -2.5047 0.9707
-6.7847 -1.7317 -2.5040 0.9707
-6.2588 -3.1329 -2.5029 0.9707
-6.0184 -3.5709 -2.5025 0.9707
-5.8866 -3.7831 -2.5023 0.9707
-5.6008 -4.1927 -2.5019 0.9707
-5.2865 -4.5808 -2.5015 0.9707
-4.7653 -5.1183 -2.5008 0.9707
-4.5792 -5.2847 -2.5006 0.9707
-3.9870 -5.7423 -2.4999 0.9707
-3.1280 -6.2491 -2.4990 0.9707
-1.9679 -6.7022 -2.4979 0.9708
-1.7273 -6.7676 -2.4977 0.9708
-1.2399 -6.8724 -2.4973 0.9708
0.0000 -6.9807 -2.4963 0.9708
0.2491 -6.9757 -2.4961 0.9708
0.7460 -6.9392 -2.4958 0.9708
0.9932 -6.9076 -2.4956 0.9708
1.2390 -6.8673 -2.4955 0.9708
1.4832 -6.8183 -2.4953 0.9708
1.7255 -6.7606 -2.4952 0.9708
2.2032 -6.6195 -2.4949 0.9708
2.8977 -6.3451 -2.4945 0.9708
3.1222 -6.2374 -2.4944 0.9708
3.9775 -5.7287 -2.4940 0.9708
4.3758 -5.4300 -2.4938 0.9708
4.9308 -4.9308 -2.4937 0.9708
5.1036 -4.7516 -2.4936 0.9708
5.5821 -4.1787 -2.4936 0.9708
5.7277 -3.9768 -2.4935 0.9708
5.8659 -3.7698 -2.4935 0.9708
5.9968 -3.5581 -2.4936 0.9708
6.1200 -3.3418 -2.4936 0.9708
6.2354 -3.1212 -2.4936 0.9708
6.3429 -2.8967 -2.4936 0.9708
6.5337 -2.4369 -2.4937 0.9708
6.6166 -2.2022 -2.4938 0.9708
6.7572 -1.7247 -2.4939 0.9708
6.8147 -1.4824 -2.4940 0.9708
6.8635 -1.2383 -2.4941 0.9708
6.9036 -0.9926 -2.4942 0.9708
6.9574 -0.4976 -2.4944 0.9708
6.9710 -0.2490 -2.4945 0.9708
-6.5315 -0.2333 -2.5046 0.9724
-6.4976 -0.6986 -2.5043 0.9724
-6.4682 -0.9301 -2.5042 0.9724
-6.1984 -2.0630 -2.5034 0.9724
-6.1204 -2.2828 -2.5033 0.9724
-5.7316 -3.1297 -2.5026 0.9724
-5.6158 -3.3320 -2.5024 0.9724
-5.3629 -3.7236 -2.5020 0.9724
-5.2262 -3.9123 -2.5018 0.9724
-4.9330 -4.2745 -2.5014 0.9724
-4.7769 -4.4475 -2.5012 0.9724
-4.4467 -4.7761 -2.5008 0.9724
-3.9097 -5.2228 -2.5001 0.9724
-3.7205 -5.3585 -2.4999 0.9724
-3.5266 -5.4875 -2.4997 0.9724
-3.1256 -5.7241 -2.4993 0.9724
-2.9191 -5.8315 -2.4991 0.9725
-2.7088 -5.9315 -2.4989 0.9725
-2.0588 -6.1856 -2.4983 0.9725
-1.6120 -6.3157 -2.4979 0.9725
-1.1571 -6.4136 -2.4975 0.9725
-0.9274 -6.4503 -2.4973 0.9725
-0.2325 -6.5110 -2.4967 0.9725
-0.0000 -6.5147 -2.4966 0.9725
0.2325 -6.5101 -2.4964 0.9725
0.9269 -6.4467 -2.4959 0.9725
1.1563 -6.4091 -2.4958 0.9725
1.8345 -6.2477 -2.4953 0.9725
2.0562 -6.1780 -2.4952 0.9725
2.4915 -6.0149 -2.4949 0.9725
2.9140 -5.8214 -2.4947 0.9725
3.1198 -5.7134 -2.4946 0.9725
3.7122 -5.3466 -2.4944 0.9725
3.9006 -5.2106 -2.4943 0.9725
4.0840 -5.0679 -2.4942 0.9725
4.7633 -4.4348 -2.4940 0.9725
4.9185 -4.2619 -2.4940 0.9725
5.2099 -3.9001 -2.4940 0.9725
5.3458 -3.7116 -2.4940 0.9725
5.4748 -3.5185 -2.4940 0.9725
5.5969 -3.3208 -2.4940 0.9725
5.9200 -2.7036 -2.4940 0.9725
6.0128 -2.4906 -2.4941 0.9725
6.0980 -2.2744 -2.4941 0.9725
6.1754 -2.0554 -2.4942 0.9725
6.3066 -1.6097 -2.4943 0.9725
6.3603 -1.3836 -2.4944 0.9725
6.4058 -1.1557 -2.4944 0.9725
6.4432 -0.9264 -2.4945 0.9725
-6.0832 -0.6540 -2.5041 0.9739
-5.9775 -1.3003 -2.5036 0.9739
-5.8688 -1.7232 -2.5034 0.9739
-5.7302 -2.1373 -2.5030 0.9739
-5.6499 -2.3403 -2.5029 0.9739
-5.5624 -2.5403 -2.5027 0.9739
-5.2579 -3.1197 -2.5022 0.9739
-4.8932 -3.6630 -2.5017 0.9739
-4.6188 -4.0022 -2.5013 0.9739
-4.3208 -4.3208 -2.5009 0.9739
-4.1635 -4.4719 -2.5007 0.9739
-3.3021 -5.1381 -2.4997 0.9739
-2.9266 -5.3598 -2.4993 0.9740
-2.5364 -5.5540 -2.4989 0.9740
-2.3364 -5.6406 -2.4988 0.9740
-2.1334 -5.7199 -2.4986 0.9740
-1.5094 -5.9139 -2.4980 0.9740
-1.2973 -5.9635 -2.4978 0.9740
-1.0835 -6.0056 -2.4976 0.9740
-0.8684 -6.0400 -2.4975 0.9740
-0.6522 -6.0667 -2.4973 0.9740
-0.4353 -6.0858 -2.4971 0.9740
-0.2178 -6.0970 -2.4969 0.9740
0.0000 -6.1005 -2.4968 0.9740
0.4351 -6.0842 -2.4965 0.9740
0.6520 -6.0644 -2.4963 0.9740
1.9255 -5.7853 -2.4955 0.9740
2.5326 -5.5456 -2.4952 0.9740
3.1105 -5.2425 -2.4949 0.9740
3.4764 -5.0069 -2.4947 0.9740
3.8245 -4.7459 -2.4946 0.9740
3.9914 -4.6063 -2.4945 0.9740
4.3097 -4.3097 -2.4944 0.9740
4.4607 -4.1530 -2.4944 0.9740
4.7455 -3.8242 -2.4944 0.9740
4.8789 -3.6523 -2.4943 0.9740
5.0062 -3.4758 -2.4943 0.9740
5.3491 -2.9208 -2.4944 0.9740
5.7106 -2.1299 -2.4945 0.9740
5.8482 -1.7172 -2.4946 0.9740
6.0338 -0.8675 -2.4949 0.9740
6.0611 -0.6516 -2.4950 0.9740
6.0807 -0.4349 -2.4951 0.9740
6.0926 -0.2176 -2.4952 0.9740
-5.7121 -0.6141 -2.5038 0.9752
-5.6863 -0.8176 -2.5037 0.9752
-5.6129 -1.2210 -2.5034 0.9752
-5.5655 -1.4205 -2.5033 0.9752
-5.4493 -1.8137 -2.5030 0.9753
-5.3808 -2.0069 -2.5028 0.9753
-5.3054 -2.1976 -2.5027 0.9753
-5.1345 -2.5701 -2.5024 0.9753
-4.9374 -2.9295 -2.5021 0.9753
-4.8294 -3.1036 -2.5019 0.9753
-4.3373 -3.7583 -2.5012 0.9753
-4.2001 -3.9104 -2.5010 0.9753
-3.4378 -4.5924 -2.5001 0.9753
-2.9266 -4.9325 -2.4995 0.9753
-2.1942 -5.2972 -2.4988 0.9753
-1.8104 -5.4394 -2.4985 0.9753
-0.8156 -5.6725 -2.4976 0.9753
-0.6126 -5.6976 -2.4974 0.9753
0.0000 -5.7294 -2.4970 0.9753
0.2045 -5.7254 -2.4968 0.9753
0.4087 -5.7141 -2.4967 0.9753
0.6123 -5.6955 -2.4965 0.9753
0.8152 -5.6697 -2.4964 0.9753
1.0170 -5.6367 -2.4962 0.9753
1.2175 -5.5965 -2.4961 0.9753
1.4164 -5.5492 -2.4960 0.9753
1.6134 -5.4949 -2.4959 0.9753
1.8085 -5.4336 -2.4958 0.9753
2.0012 -5.3653 -2.4956 0.9753
2.5629 -5.1200 -2.4953 0.9753
2.9214 -4.9238 -2.4952 0.9753
3.0952 -4.8163 -2.4951 0.9753
3.4307 -4.5829 -2.4950 0.9753
3.5920 -4.4575 -2.4949 0.9753
3.9007 -4.1897 -2.4948 0.9753
4.0477 -4.0477 -2.4948 0.9753
4.1896 -3.9006 -2.4947 0.9753
4.3261 -3.7486 -2.4947 0.9753
4.7019 -3.2646 -2.4947 0.9753
4.8154 -3.0947 -2.4947 0.9753
4.9228 -2.9209 -2.4947 0.9753
5.1187 -2.5623 -2.4947 0.9753
5.2070 -2.3779 -2.4947 0.9753
5.2886 -2.1906 -2.4948 0.9753
5.3635 -2.0005 -2.4948 0.9753
5.5941 -1.2169 -2.4950 0.9753
5.6670 -0.8148 -2.4952 0.9753
5.6927 -0.6120 -2.4953 0.9753
5.7111 -0.4085 -2.4953 0.9753
-5.4093 0.0000 -2.5039 0.9764
-5.4056 -0.1931 -2.5038 0.9764
-5.3776 -0.5782 -2.5036 0.9764
-5.3533 -0.7697 -2.5034 0.9764
-5.2842 -1.1495 -2.5032 0.9764
-5.1303 -1.7075 -2.5028 0.9764
-5.0658 -1.8894 -2.5027 0.9765
-4.9948 -2.0689 -2.5025 0.9765
-4.8339 -2.4197 -2.5022 0.9765
-4.7442 -2.5905 -2.5021 0.9765
-4.5467 -2.9220 -2.5018 0.9765
-4.2075 -3.3906 -2.5013 0.9765
-3.9544 -3.6817 -2.5009 0.9765
-3.8202 -3.8202 -2.5008 0.9765
-3.5375 -4.0824 -2.5004 0.9765
-3.2368 -4.3238 -2.5001 0.9765
-3.0802 -4.4363 -2.4999 0.9765
-2.9196 -4.5431 -2.4997 0.9765
-2.7554 -4.6441 -2.4996 0.9765
-1.8864 -5.0578 -2.4987 0.9765
-1.7046 -5.1215 -2.4985 0.9765
-1.1471 -5.2733 -2.4980 0.9765
-0.9581 -5.3106 -2.4979 0.9765
-0.7679 -5.3411 -2.4977 0.9765
-0.5768 -5.3648 -2.4976 0.9765
-0.1926 -5.3916 -2.4973 0.9765
0.0000 -5.3947 -2.4971 0.9765
0.1925 -5.3910 -2.4970 0.9765
0.5766 -5.3629 -2.4967 0.9765
0.7676 -5.3386 -2.4966 0.9765
1.3337 -5.2252 -2.4962 0.9765
1.7029 -5.1163 -2.4960 0.9765
2.0634 -4.9814 -2.4958 0.9765
2.2398 -4.9044 -2.4957 0.9765
3.0745 -4.4281 -2.4953 0.9765
3.2305 -4.3154 -2.4952 0.9765
3.3824 -4.1973 -2.4952 0.9765
3.6731 -3.9452 -2.4951 0.9765
4.0736 -3.5298 -2.4950 0.9765
4.1969 -3.3821 -2.4950 0.9765
4.5344 -2.9141 -2.4950 0.9765
4.6355 -2.7504 -2.4950 0.9765
4.7308 -2.5832 -2.4950 0.9765
5.2232 -1.3331 -2.4952 0.9765
5.3053 -0.9572 -2.4954 0.9765
5.3777 -0.3846 -2.4956 0.9765
5.3882 -0.1924 -2.4957 0.9765
-5.1040 0.0000 -2.5036 0.9775
-5.0513 -0.7263 -2.5032 0.9775
-5.0219 -0.9060 -2.5031 0.9775
-4.9440 -1.2619 -2.5029 0.9775
-4.8956 -1.4375 -2.5028 0.9775
-4.7801 -1.7829 -2.5025 0.9775
-4.7131 -1.9522 -2.5024 0.9775
-4.6402 -2.1191 -2.5022 0.9775
-4.5613 -2.2832 -2.5021 0.9775
-4.2904 -2.7572 -2.5017 0.9775
-4.1890 -2.9085 -2.5015 0.9775
-4.0822 -3.0559 -2.5014 0.9775
-3.8533 -3.3389 -2.5010 0.9775
-3.7315 -3.4741 -2.5009 0.9775
-3.6049 -3.6049 -2.5007 0.9775
-3.4737 -3.7310 -2.5006 0.9775
-3.3381 -3.8524 -2.5004 0.9775
-3.1983 -3.9688 -2.5002 0.9775
-2.9066 -4.1863 -2.4999 0.9775
-2.7551 -4.2871 -2.4997 0.9776
-1.9495 -4.7066 -2.4989 0.9776
-1.7802 -4.7729 -2.4988 0.9776
-1.0825 -4.9764 -2.4981 0.9776
-0.5443 -5.0627 -2.4977 0.9776
-0.3632 -5.0786 -2.4976 0.9776
-0.0000 -5.0910 -2.4973 0.9776
0.3632 -5.0775 -2.4970 0.9776
0.5441 -5.0611 -2.4969 0.9776
0.7244 -5.0382 -2.4968 0.9776
1.0819 -4.9732 -2.4965 0.9776
1.4338 -4.8829 -2.4963 0.9776
1.7783 -4.7678 -2.4961 0.9776
1.9473 -4.7011 -2.4960 0.9776
2.1138 -4.6285 -2.4959 0.9776
2.2775 -4.5499 -2.4958 0.9776
2.5962 -4.3756 -2.4957 0.9776
2.7506 -4.2800 -2.4956 0.9776
3.1921 -3.9612 -2.4955 0.9776
3.3314 -3.8447 -2.4954 0.9776
3.5971 -3.5971 -2.4953 0.9776
3.7232 -3.4664 -2.4953 0.9776
3.8445 -3.3313 -2.4953 0.9776
4.1785 -2.9012 -2.4952 0.9776
4.4647 -2.4379 -2.4953 0.9776
4.5489 -2.2770 -2.4953 0.9776
4.7664 -1.7778 -2.4954 0.9776
4.8812 -1.4333 -2.4955 0.9776
4.9294 -1.2582 -2.4955 0.9776
5.0068 -0.9033 -2.4956 0.9776
5.0752 -0.3630 -2.4958 0.9776
5.0850 -0.1816 -2.4959 0.9776
-4.7480 -0.8566 -2.5030 0.9785
-4.7142 -1.0255 -2.5028 0.9785
-4.5769 -1.5234 -2.5025 0.9785
-4.1472 -2.4607 -2.5017 0.9785
-4.0565 -2.6070 -2.5016 0.9785
-3.9607 -2.7499 -2.5014 0.9785
-3.7445 -3.0175 -2.4948 0.9786
-3.2844 -3.5277 -2.5005 0.9785
-3.1562 -3.6425 -2.5004 0.9785
-2.8880 -3.8579 -2.5001 0.9785
-2.6051 -4.0536 -2.4997 0.9785
-2.4586 -4.1437 -2.4996 0.9785
-2.1565 -4.3080 -2.4993 0.9785
-1.8434 -4.4504 -2.4990 0.9785
-1.1910 -4.6663 -2.4984 0.9785
-1.0236 -4.7056 -2.4982 0.9785
-0.6853 -4.7660 -2.4980 0.9785
-0.0000 -4.8140 -2.4974 0.9785
0.1718 -4.8107 -2.4973 0.9785
0.5145 -4.7857 -2.4970 0.9785
1.0230 -4.7027 -2.4967 0.9785
1.1902 -4.6630 -2.4966 0.9785
1.6816 -4.5085 -2.4963 0.9785
1.8414 -4.4454 -2.4962 0.9786
1.9988 -4.3767 -2.4961 0.9786
2.1537 -4.3025 -2.4961 0.9786
2.3058 -4.2227 -2.4960 0.9786
2.6010 -4.0473 -2.4959 0.9786
3.2780 -3.5208 -2.4956 0.9786
3.4015 -3.4015 -2.4956 0.9786
3.5207 -3.2779 -2.4955 0.9786
3.8509 -2.8827 -2.4955 0.9786
3.9513 -2.7434 -2.4955 0.9786
4.1369 -2.4546 -2.4955 0.9786
4.2219 -2.3054 -2.4955 0.9786
4.3016 -2.1532 -2.4955 0.9786
4.5072 -1.6811 -2.4956 0.9786
4.5644 -1.5192 -2.4956 0.9786
2.1910 -0.6433 -1.1846 0.9898
2.2088 -0.5638 -1.1826 0.9898
2.0099 -0.2890 -1.0534 0.9909
4.7991 -0.3432 -2.4961 0.9786
4.8085 -0.1717 -2.4961 0.9786
-4.5438 -0.4885 -2.5030 0.9794
-4.5233 -0.6503 -2.5029 0.9794
-4.4970 -0.8113 -2.5028 0.9794
-4.4650 -0.9713 -2.5027 0.9794
-4.4273 -1.1300 -2.5026 0.9794
-4.3839 -1.2872 -2.5025 0.9794
-4.3350 -1.4428 -2.5023 0.9794
-4.2805 -1.5966 -2.5022 0.9794
-4.1553 -1.8977 -2.5020 0.9794
-4.0847 -2.0447 -2.5019 0.9794
-3.8422 -2.4692 -2.5015 0.9794
-3.7514 -2.6046 -2.5013 0.9794
-3.6558 -2.7367 -2.5012 0.9794
-3.5516 -2.8621 -2.4983 0.9794
-3.3418 -3.1113 -2.5008 0.9794
-3.2284 -3.2284 -2.5006 0.9794
-2.9895 -3.4501 -2.5003 0.9794
-2.6031 -3.7492 -2.4999 0.9794
-2.4675 -3.8395 -2.4998 0.9794
-2.1871 -4.0053 -2.4995 0.9794
-2.0426 -4.0806 -2.4993 0.9794
-1.7461 -4.2154 -2.4990 0.9794
-1.5944 -4.2748 -2.4989 0.9794
-1.4407 -4.3287 -2.4987 0.9794
-1.2853 -4.3772 -2.4986 0.9794
-1.1281 -4.4200 -2.4985 0.9794
-0.8099 -4.4887 -2.4982 0.9794
-0.4875 -4.5346 -2.4979 0.9794
-0.3253 -4.5489 -2.4978 0.9794
-0.1628 -4.5573 -2.4977 0.9794
-0.0000 -4.5600 -2.4975 0.9794
0.1627 -4.5569 -2.4974 0.9794
0.3253 -4.5480 -2.4973 0.9794
0.4874 -4.5333 -2.4972 0.9794
0.6488 -4.5128 -2.4971 0.9794
0.8095 -4.4865 -2.4970 0.9794
0.9690 -4.4546 -2.4969 0.9794
1.1274 -4.4170 -2.4968 0.9794
1.2843 -4.3738 -2.4967 0.9794
1.4395 -4.3250 -2.4966 0.9794
1.5929 -4.2707 -2.4965 0.9794
1.7443 -4.2110 -2.4964 0.9794
1.8934 -4.1459 -2.4963 0.9794
2.3255 -3.9195 -2.4961 0.9794
2.5991 -3.7434 -2.4960 0.9794
2.7310 -3.6482 -2.4960 0.9794
2.9842 -3.4439 -2.4959 0.9794
3.1052 -3.3352 -2.4958 0.9794
3.2222 -3.2222 -2.4958 0.9794
3.3351 -3.1051 -2.4958 0.9794
3.4438 -2.9840 -2.4958 0.9794
3.7430 -2.5988 -2.4957 0.9794
3.8333 -2.4635 -2.4957 0.9794
3.9993 -2.1838 -2.4957 0.9794
4.0748 -2.0397 -2.4958 0.9794
4.1450 -1.8930 -2.4958 0.9794
4.2100 -1.7438 -2.4958 0.9794
4.2696 -1.5925 -2.4958 0.9794
2.0035 -0.6668 -1.1565 0.9904
2.0044 -0.5885 -1.1441 0.9905
1.9119 -0.4880 -1.0807 0.9910
1.9066 -0.4148 -1.0687 0.9911
4.5549 -0.1627 -2.4963 0.9794
-4.3354 0.0000 -2.5031 0.9802
-4.3325 -0.1547 -2.5030 0.9802
-4.2658 -0.7696 -2.5026 0.9802
-4.2355 -0.9214 -2.5025 0.9802
-4.1997 -1.0719 -2.5024 0.9802
-4.1586 -1.2211 -2.5023 0.9802
-4.0605 -1.5145 -2.5021 0.9802
-3.8029 -2.0766 -2.5016 0.9802
-3.6447 -2.3423 -2.5014 0.9802
-3.5586 -2.4708 -2.5013 0.9802
-3.4680 -2.5961 -2.5011 0.9802
-3.3730 -2.7181 -2.5010 0.9802
-3.1701 -2.9515 -2.5007 0.9802
-3.0626 -3.0626 -2.5006 0.9802
-2.9512 -3.1698 -2.5004 0.9802
-2.7172 -3.3718 -2.5002 0.9802
-2.4695 -3.5567 -2.4999 0.9802
-2.3408 -3.6424 -2.4998 0.9802
-1.9377 -3.8711 -2.4993 0.9802
-1.5126 -4.0554 -2.4989 0.9802
-1.3668 -4.1066 -2.4988 0.9802
-1.2193 -4.1525 -2.4987 0.9802
-0.9198 -4.2285 -2.4984 0.9802
-0.7683 -4.2584 -2.4983 0.9802
-0.6158 -4.2829 -2.4981 0.9802
0.3086 -4.3147 -2.4974 0.9802
0.4624 -4.3007 -2.4973 0.9802
0.6156 -4.2813 -2.4972 0.9802
1.5112 -4.0517 -2.4967 0.9802
1.6548 -3.9951 -2.4966 0.9802
1.9355 -3.8666 -2.4964 0.9802
2.2063 -3.7185 -2.4963 0.9802
2.4658 -3.5515 -2.4962 0.9802
2.5910 -3.4611 -2.4962 0.9802
2.7128 -3.3664 -2.4961 0.9802
2.8312 -3.2673 -2.4961 0.9802
3.0570 -3.0570 -2.4960 0.9802
3.2672 -2.8310 -2.4960 0.9802
3.3662 -2.7126 -2.4959 0.9802
3.6368 -2.3372 -2.4959 0.9802
3.7179 -2.2059 -2.4959 0.9802
3.9941 -1.6544 -2.4960 0.9802
1.9507 -0.7276 -1.2020 0.9904
1.9208 -0.6393 -1.1688 0.9907
1.8241 -0.5356 -1.0976 0.9913
1.8632 -0.3361 -1.0931 0.9913
1.8895 -0.2717 -1.1021 0.9912
1.9287 -0.2074 -1.1200 0.9911
4.3129 -0.3085 -2.4964 0.9802
4.3213 -0.1543 -2.4965 0.9802
