ply
format ascii 1.0
element vertex 1281
property float32 x
property float32 y
property float32 z
property float32 I
end_header
-19.2525 -7.1808 3.6232 0.9199
-37.5620 -18.8022 7.4066 0.8431
-16.9042 -9.2304 3.3961 0.9248
-33.8345 -20.0750 6.9370 0.8523
-32.1414 -20.6560 6.7368 0.8563
-29.0229 -21.7262 6.3926 0.8631
-27.5764 -22.2225 6.2448 0.8660
-26.0418 -26.0419 6.4939 0.8611
-27.1776 -36.3051 7.9965 0.8318
10.9868 -43.0458 7.8335 0.8349
12.7716 -38.3727 7.1311 0.8485
19.1029 -38.1627 7.5251 0.8409
21.2556 -38.9267 7.8204 0.8351
26.0590 -40.5485 8.4990 0.8222
20.7950 -22.3354 5.3809 0.8834
18.9763 -18.9763 4.7320 0.8967
39.1187 -29.2839 8.6163 0.8200
-19.2512 -7.1803 3.1471 0.9202
-37.5629 -18.8027 6.4351 0.8437
-16.9070 -9.2319 2.9510 0.9250
-32.1421 -20.6565 5.8532 0.8567
-27.5770 -22.2229 5.4257 0.8665
-27.0155 -23.4091 5.4762 0.8653
-24.3710 -28.1256 5.7012 0.8602
9.9417 -45.7014 7.1649 0.8276
12.7719 -38.3735 6.1957 0.8490
13.5200 -36.2485 5.9267 0.8551
15.3168 -36.9780 6.1316 0.8505
17.3143 -37.9130 6.3851 0.8448
19.1034 -38.1636 6.5380 0.8414
23.6047 -39.7837 7.0867 0.8293
26.0597 -40.5497 7.3841 0.8228
-46.8842 -15.6045 6.4346 0.8193
-19.2499 -7.1798 2.6757 0.9205
-39.8011 -18.1765 5.6978 0.8382
-16.9098 -9.2334 2.5089 0.9252
-33.8361 -20.0759 5.1234 0.8532
-30.5425 -21.2061 4.8419 0.8607
-33.7577 -25.2707 5.4912 0.8436
-27.0156 -23.4092 4.6550 0.8657
-28.9286 -26.9335 5.1471 0.8526
-25.3089 -27.1837 4.8366 0.8609
-24.3708 -28.1254 4.8462 0.8606
-25.6356 -31.8119 5.3203 0.8481
-27.1770 -36.3042 5.9055 0.8328
1.7056 -15.8645 2.0778 0.9377
10.9873 -43.0476 5.7854 0.8359
12.7722 -38.3744 5.2667 0.8495
21.2558 -38.9271 5.7756 0.8362
26.0604 -40.5508 6.2770 0.8233
34.7608 -3.7372 4.5527 0.8685
-45.4268 -13.3385 5.0839 0.8266
-45.5655 -15.1656 5.1568 0.8243
-41.8476 -17.3338 4.8639 0.8334
-41.4582 -18.9333 4.8941 0.8325
-16.9125 -9.2349 2.0692 0.9254
-33.8368 -20.0763 4.2249 0.8536
-30.5432 -21.2066 3.9928 0.8611
-27.5781 -22.2239 3.8033 0.8672
-27.0157 -23.4092 3.8386 0.8661
-25.3093 -27.1842 3.9884 0.8612
-25.6354 -31.8116 4.3871 0.8484
1.1120 -15.5472 1.6737 0.9392
1.6786 -15.6133 1.6861 0.9388
11.9624 -40.7401 4.5594 0.8430
12.7725 -38.3752 4.3430 0.8498
15.3170 -36.9784 4.2980 0.8513
17.3151 -37.9148 4.4758 0.8456
21.2559 -38.9273 4.7626 0.8366
23.6049 -39.7840 4.9673 0.8302
26.0612 -40.5520 5.1763 0.8237
-19.2473 -7.1789 1.7392 0.9208
-41.8487 -17.3343 3.8345 0.8337
-41.4580 -18.9332 3.8582 0.8328
-37.5657 -18.8040 3.5562 0.8448
-16.9152 -9.2364 1.6315 0.9256
-33.8376 -20.0768 3.3307 0.8539
-27.5787 -22.2243 2.9983 0.8675
-28.9510 -26.9544 3.3485 0.8532
-30.3107 -30.3107 3.6287 0.8419
-25.3097 -27.1846 3.1442 0.8615
-28.5264 -38.1068 4.0296 0.8261
-4.7028 -21.6183 1.8729 0.9150
1.1122 -15.5502 1.3197 0.9393
1.6682 -15.5163 1.3211 0.9393
8.8302 -48.9425 4.2100 0.8190
9.9419 -45.7023 3.9593 0.8288
10.9877 -43.0494 3.7611 0.8366
11.8626 -40.4003 3.5644 0.8445
12.6666 -38.0570 3.3954 0.8513
15.3122 -36.9669 3.3872 0.8516
17.1739 -37.6055 3.4997 0.8471
39.2101 -29.3523 4.1462 0.8215
34.7789 -3.7391 2.9611 0.8690
-19.2460 -7.1784 1.2735 0.9210
-37.5666 -18.8045 2.6051 0.8450
-16.9179 -9.2379 1.1953 0.9257
-33.8384 -20.0773 2.4399 0.8541
-30.5445 -21.2075 2.3059 0.8615
-27.5793 -22.2248 2.1964 0.8677
-27.0159 -23.4094 2.2167 0.8665
-28.9560 -26.9590 2.4533 0.8534
-25.3101 -27.1850 2.3033 0.8617
-24.3701 -28.1246 2.3077 0.8614
-25.6348 -31.8109 2.5334 0.8490
-4.0502 -22.4488 1.4145 0.9126
1.1124 -15.5533 0.9669 0.9394
8.8302 -48.9428 3.0840 0.8193
9.9420 -45.7026 2.9003 0.8291
10.9733 -42.9927 2.7515 0.8371
12.7730 -38.3769 2.5081 0.8504
15.3171 -36.9788 2.4820 0.8518
14.1142 -28.1965 1.9553 0.8813
23.6043 -39.7830 2.8685 0.8308
20.6276 -22.1556 1.8770 0.8858
34.7730 -3.7385 2.1687 0.8692
-32.7510 -10.9006 1.3611 0.8709
-19.2433 -7.1774 0.8098 0.9211
-41.8508 -17.3352 1.7862 0.8342
-41.4576 -18.9331 1.7971 0.8332
-37.5675 -18.8050 1.6565 0.8452
-16.9206 -9.2393 0.7602 0.9257
-33.8392 -20.0777 1.5515 0.8543
-23.6690 -15.2112 1.1092 0.8935
-33.7957 -25.2991 1.6646 0.8445
-28.9565 -26.9595 1.5600 0.8535
-30.3251 -30.3251 1.6911 0.8423
-24.3699 -28.1244 1.4674 0.8616
-25.6346 -31.8106 1.6109 0.8491
-28.5274 -38.1081 1.8770 0.8265
-17.1822 -26.7360 1.2532 0.8805
-4.7266 -21.7279 0.8768 0.9148
1.1126 -15.5563 0.6150 0.9395
1.6655 -15.4919 0.6144 0.9395
9.9421 -45.7029 1.8443 0.8293
13.5215 -36.2525 1.5257 0.8565
15.3172 -36.9790 1.5783 0.8519
10.5029 -17.7017 0.8116 0.9209
34.7671 -3.7378 1.3788 0.8694
-19.2404 -7.1763 0.3469 0.9211
-41.4574 -18.9330 0.7698 0.8333
-30.5458 -21.2084 0.6282 0.8618
-27.5804 -22.2257 0.5984 0.8679
-27.0161 -23.4096 0.6038 0.8667
-28.5532 -26.5840 0.6590 0.8555
-24.8747 -24.8747 0.5942 0.8687
-28.5279 -38.1088 0.8041 0.8266
-4.7267 -21.7283 0.3757 0.9149
-5.8646 -32.5053 0.5579 0.8762
1.6642 -15.4797 0.2630 0.9396
9.9421 -45.7032 0.7901 0.8293
10.9884 -43.0521 0.7505 0.8371
13.5218 -36.2533 0.6536 0.8566
21.4861 -39.3488 0.7573 0.8358
10.5031 -17.7020 0.3477 0.9210
11.6555 -18.1364 0.3642 0.9174
23.5549 -31.4657 0.6639 0.8545
34.7624 -3.7373 0.5906 0.8695
-40.5482 -1.4482 -0.2284 0.8502
-19.2382 -7.1755 -0.1156 0.9212
-41.4572 -18.9329 -0.2566 0.8333
-37.5693 -18.8059 -0.2365 0.8453
-16.9260 -9.2423 -0.1086 0.9258
-23.6698 -15.2117 -0.1584 0.8936
-30.5203 -21.1907 -0.2092 0.8619
-27.5810 -22.2261 -0.1994 0.8679
-28.4459 -26.4841 -0.2188 0.8560
-24.7112 -24.7112 -0.1968 0.8695
-24.3694 -28.1238 -0.2095 0.8617
-25.6341 -31.8100 -0.2300 0.8492
-28.5284 -38.1095 -0.2680 0.8266
1.1130 -15.5624 -0.0878 0.9395
1.6629 -15.4676 -0.0876 0.9397
8.3834 -46.4659 -0.2658 0.8279
9.9422 -45.7035 -0.2633 0.8294
10.9886 -43.0530 -0.2502 0.8372
11.9637 -40.7444 -0.2391 0.8438
13.5221 -36.2541 -0.2179 0.8566
17.3172 -37.9193 -0.2347 0.8464
14.1148 -28.1978 -0.1775 0.8815
21.4866 -39.3499 -0.2524 0.8358
27.8515 -40.1138 -0.2749 0.8226
-40.4927 -1.4462 -1.1409 0.8503
-37.5702 -18.8063 -1.1830 0.8452
-16.9287 -9.2438 -0.5431 0.9257
-33.8414 -20.0791 -1.1080 0.8543
-30.4903 -21.1698 -1.0452 0.8620
-27.0163 -23.4097 -1.0066 0.8667
-28.4391 -26.4778 -1.0941 0.8560
-24.7138 -24.7138 -0.9841 0.8695
-25.3116 -27.1866 -1.0459 0.8619
-24.3692 -28.1236 -1.0478 0.8616
-25.6338 -31.8097 -1.1503 0.8492
-28.5289 -38.1102 -1.3405 0.8265
-5.8648 -32.5064 -0.9301 0.8762
12.7741 -38.3802 -1.1390 0.8506
12.8435 -34.4350 -1.0349 0.8632
17.3176 -37.9202 -1.1738 0.8464
21.4872 -39.3509 -1.2625 0.8358
11.6340 -18.1029 -0.6059 0.9175
27.8516 -40.1140 -1.3751 0.8225
20.5201 -22.0401 -0.8479 0.8865
-39.9759 -2.8591 -2.0325 0.8517
-45.9575 -4.9409 -2.3441 0.8310
-34.8083 -7.5721 -1.8066 0.8670
-44.7608 -13.1430 -2.3658 0.8296
-44.3392 -14.7575 -2.3699 0.8293
-19.2336 -7.1738 -1.0411 0.9211
-17.9601 -7.4393 -0.9859 0.9251
-41.4568 -18.9327 -2.3113 0.8332
-37.5711 -18.8068 -2.1308 0.8451
-16.9314 -9.2452 -0.9783 0.9256
-33.8422 -20.0795 -1.9957 0.8542
-30.4901 -21.1697 -1.8825 0.8619
-32.9469 -24.6637 -2.0872 0.8480
-27.5821 -22.2270 -1.7965 0.8677
-24.4655 -24.4656 -1.7547 0.8706
-25.3120 -27.1870 -1.8838 0.8618
-24.3690 -28.1233 -1.8872 0.8615
-27.2045 -39.1820 -2.4191 0.8261
-22.8867 -41.9139 -2.4219 0.8259
-21.3808 -42.7134 -2.4224 0.8259
-19.8455 -43.4555 -2.4227 0.8259
-11.8658 -28.6465 -1.5725 0.8832
-4.4060 -30.6441 -1.5701 0.8834
-3.1234 -29.0516 -1.4818 0.8896
1.0412 -29.1524 -1.4794 0.8897
1.1135 -15.5685 -0.7916 0.9394
1.6603 -15.4434 -0.7877 0.9397
8.4035 -46.5775 -2.4003 0.8273
10.0486 -46.1923 -2.3974 0.8275
10.9744 -42.9972 -2.2505 0.8372
12.7547 -38.3217 -2.0483 0.8506
12.7876 -34.2849 -1.8557 0.8637
15.2888 -36.9104 -2.0261 0.8521
10.9166 -18.3989 -1.0850 0.9179
11.6442 -18.1187 -1.0923 0.9174
19.2488 -25.7133 -1.6289 0.8793
30.2722 -34.9360 -2.3444 0.8310
33.6372 -31.3173 -2.3308 0.8319
35.7885 -28.8402 -2.3310 0.8319
36.8124 -27.5574 -2.3321 0.8318
41.1956 -26.4749 -2.4834 0.8219
44.6724 -20.4012 -2.4906 0.8214
46.0626 -17.1805 -2.4932 0.8213
46.6715 -15.5338 -2.4946 0.8212
47.2216 -13.8655 -2.4959 0.8211
47.7121 -12.1778 -2.4973 0.8210
48.1426 -10.4728 -2.4986 0.8209
45.5810 -8.2237 -2.3489 0.8307
39.2165 -5.6385 -2.0093 0.8533
34.6430 -3.7245 -1.7670 0.8697
46.2541 -3.3081 -2.3517 0.8305
46.3682 -1.6560 -2.3530 0.8304
-33.9872 -1.2139 -2.4936 0.8725
-31.8918 -2.2810 -2.3443 0.8796
-31.6246 -4.5469 -2.3426 0.8797
-30.9242 -7.8929 -2.3401 0.8798
-29.0482 -9.6682 -2.2448 0.8845
-19.2313 -7.1729 -1.5050 0.9210
-29.1463 -13.3106 -2.3494 0.8794
-22.7680 -11.3969 -1.8669 0.9029
-27.6381 -16.3985 -2.3563 0.8791
-17.4728 -14.0805 -1.6454 0.9139
-24.3871 -21.1315 -2.3660 0.8786
-22.0297 -23.6616 -2.3705 0.8784
-21.1822 -24.4456 -2.3717 0.8783
-20.3057 -25.1979 -2.3728 0.8783
-19.4018 -25.9178 -2.3738 0.8782
-17.5159 -27.2553 -2.3755 0.8781
-14.5114 -28.9900 -2.3770 0.8781
-11.8673 -28.6502 -2.2738 0.8830
-4.7270 -21.7296 -1.6305 0.9147
-2.0960 -29.3064 -2.1543 0.8888
-1.1068 -30.9905 -2.2737 0.8830
1.1533 -32.2915 -2.3692 0.8785
1.6590 -15.4313 -1.1380 0.9397
6.2135 -21.1611 -1.6171 0.9153
13.2980 -29.1185 -2.3471 0.8795
14.0041 -27.9765 -2.2939 0.8821
12.6691 -23.2018 -1.9383 0.8994
10.9022 -18.3746 -1.5666 0.9179
19.9603 -24.7693 -2.3324 0.8802
19.5612 -22.5748 -2.1902 0.8871
21.1723 -21.1723 -2.1954 0.8868
23.3094 -21.7017 -2.3352 0.8801
27.1732 -20.3416 -2.4888 0.8727
28.5743 -18.3636 -2.4905 0.8726
29.8322 -16.2896 -2.4922 0.8726
30.4054 -15.2199 -2.4931 0.8725
30.9404 -14.1300 -2.4940 0.8725
31.8929 -11.8954 -2.4958 0.8724
32.3091 -10.7535 -2.4967 0.8723
32.6845 -9.5970 -2.4977 0.8723
31.8686 -3.4262 -2.3501 0.8794
31.9827 -2.2874 -2.3510 0.8793
-26.0290 0.0000 -2.4989 0.9007
-26.0050 -0.9288 -2.4982 0.9007
-25.8579 -2.7800 -2.4968 0.9008
-25.7350 -3.7001 -2.4961 0.9008
-24.8976 -4.4920 -2.4289 0.9033
-23.6400 -6.0338 -2.3423 0.9066
-19.0890 -7.1198 -1.9559 0.9214
-16.9115 -8.4653 -1.8156 0.9268
-16.9368 -9.2482 -1.8526 0.9254
-16.0151 -9.5022 -1.7878 0.9279
-16.4285 -10.5580 -1.8748 0.9245
-19.5346 -14.6234 -2.3427 0.9066
-16.8534 -13.5814 -2.0780 0.9167
-18.4625 -15.9978 -2.3453 0.9065
-17.8889 -16.6552 -2.3465 0.9065
-17.2913 -17.2913 -2.3477 0.9064
-16.6705 -17.9054 -2.3487 0.9064
-16.0273 -18.4965 -2.3497 0.9063
-15.3625 -19.0637 -2.3505 0.9063
-13.2480 -20.6142 -2.3525 0.9062
-12.5064 -21.0784 -2.3530 0.9062
-11.7481 -21.5149 -2.3534 0.9062
-7.7432 -23.2645 -2.3540 0.9062
-4.7093 -21.6483 -2.1269 0.9148
-4.3512 -24.1169 -2.3527 0.9062
-3.4868 -24.2513 -2.3522 0.9062
-1.7468 -24.4238 -2.3508 0.9063
0.6840 -19.1523 -1.8399 0.9259
1.1139 -15.5746 -1.4991 0.9392
1.6577 -15.4192 -1.4889 0.9396
3.4753 -24.1711 -2.3444 0.9065
4.3333 -24.0177 -2.3430 0.9066
6.0280 -23.6175 -2.3401 0.9067
7.6868 -23.0951 -2.3368 0.9068
8.4999 -22.7891 -2.3351 0.9069
9.3007 -22.4539 -2.3333 0.9070
10.0969 -22.1092 -2.3335 0.9069
11.6522 -21.3395 -2.3342 0.9069
10.9036 -18.3771 -2.0515 0.9177
11.6304 -18.0972 -2.0653 0.9172
14.5814 -19.4785 -2.3360 0.9069
15.2705 -18.9495 -2.3364 0.9068
17.3474 -18.6324 -2.4441 0.9028
18.3355 -18.3355 -2.4894 0.9010
20.2048 -16.2821 -2.4912 0.9010
21.3256 -14.8066 -2.4925 0.9009
21.8461 -14.0397 -2.4931 0.9009
22.8042 -12.4520 -2.4944 0.9009
23.2404 -11.6333 -2.4951 0.9008
23.6473 -10.7994 -2.4958 0.9008
24.0244 -9.9512 -2.4965 0.9008
24.3711 -9.0899 -2.4972 0.9008
24.6869 -8.2166 -2.4979 0.9007
25.4456 -5.5354 -2.5000 0.9006
25.6344 -4.6250 -2.5008 0.9006
25.7906 -3.7081 -2.5015 0.9006
25.9140 -2.7860 -2.5022 0.9006
-21.0415 0.0000 -2.4994 0.9187
-20.9783 -1.5004 -2.4983 0.9188
-20.5328 -4.4666 -2.4960 0.9188
-20.3558 -5.1955 -2.4955 0.9189
-20.1126 -5.9056 -2.4900 0.9190
-18.4746 -6.8907 -2.3422 0.9236
-18.0128 -7.4611 -2.3160 0.9245
-17.6725 -8.0708 -2.3078 0.9247
-16.7795 -8.3993 -2.2289 0.9272
-16.0704 -8.7751 -2.1750 0.9289
-15.9321 -9.4530 -2.2006 0.9281
-16.3029 -10.4773 -2.3020 0.9249
-16.1751 -11.2306 -2.3391 0.9237
-12.8817 -14.8663 -2.3366 0.9238
-11.7929 -15.7534 -2.3375 0.9238
-7.8481 -11.3033 -1.6346 0.9461
-10.6436 -16.5617 -2.3385 0.9238
-10.0474 -16.9339 -2.3389 0.9237
-9.4378 -17.2841 -2.3392 0.9237
-7.5378 -18.1978 -2.3397 0.9237
-6.8835 -18.4554 -2.3398 0.9237
-6.2203 -18.6890 -2.3397 0.9237
-4.8705 -19.0825 -2.3394 0.9237
-4.1858 -19.2419 -2.3391 0.9237
-3.4958 -19.3762 -2.3388 0.9238
-1.4037 -19.6259 -2.3372 0.9238
-0.7021 -19.6579 -2.3366 0.9238
0.5406 -15.1352 -1.7990 0.9408
2.1217 -14.7566 -1.7709 0.9417
2.7020 -14.9762 -1.8077 0.9405
5.5392 -18.8649 -2.3355 0.9239
8.1712 -17.8924 -2.3365 0.9238
8.8057 -17.5916 -2.3368 0.9238
9.4292 -17.2684 -2.3371 0.9238
10.0410 -16.9232 -2.3375 0.9238
10.6402 -16.5565 -2.3378 0.9238
11.5616 -16.6519 -2.4080 0.9216
13.1554 -16.3248 -2.4904 0.9190
14.8329 -14.8329 -2.4918 0.9190
15.3558 -14.2967 -2.4922 0.9190
16.3429 -13.1700 -2.4932 0.9189
17.2479 -11.9754 -2.4942 0.9189
17.6680 -11.3546 -2.4947 0.9189
18.0659 -10.7190 -2.4953 0.9189
18.4409 -10.0695 -2.4958 0.9188
19.1207 -8.7321 -2.4969 0.9188
19.7039 -7.3492 -2.4980 0.9188
19.9582 -6.6427 -2.4986 0.9188
20.1872 -5.9275 -2.4992 0.9187
21.0604 -0.7522 -2.5033 0.9186
-17.6281 -0.6296 -2.4993 0.9312
-17.3459 -3.1296 -2.4974 0.9313
-17.2200 -3.7460 -2.4970 0.9313
-17.0722 -4.3574 -2.4965 0.9313
-16.9028 -4.9631 -2.4960 0.9313
-16.7119 -5.5622 -2.4956 0.9313
-16.2669 -6.7380 -2.4947 0.9313
-14.5433 -7.9413 -2.3478 0.9352
-14.2120 -8.4324 -2.3415 0.9354
-13.8999 -8.9329 -2.3411 0.9354
-13.5702 -9.4220 -2.3408 0.9354
-12.8599 -10.3631 -2.3401 0.9355
-12.0847 -11.2512 -2.3395 0.9355
-11.2486 -12.0818 -2.3390 0.9355
-10.3558 -12.8508 -2.3385 0.9355
-9.8896 -13.2109 -2.3382 0.9355
-7.8485 -11.3039 -1.9499 0.9459
-8.9203 -13.8803 -2.3378 0.9355
-6.3120 -15.2385 -2.3370 0.9355
-5.7638 -15.4534 -2.3369 0.9355
-5.2084 -15.6487 -2.3368 0.9355
-4.0785 -15.9794 -2.3367 0.9355
-2.3469 -16.3233 -2.3366 0.9355
-1.7628 -16.3967 -2.3366 0.9355
-1.1765 -16.4493 -2.3366 0.9355
3.5066 -16.1196 -2.3374 0.9355
4.0800 -15.9852 -2.3376 0.9355
4.6483 -15.8307 -2.3377 0.9355
5.2108 -15.6560 -2.3379 0.9355
6.3156 -15.2471 -2.3384 0.9355
6.8755 -15.0553 -2.3451 0.9353
8.4071 -15.3965 -2.4856 0.9316
8.9707 -15.1192 -2.4909 0.9314
10.0290 -14.4444 -2.4916 0.9314
11.0369 -13.6959 -2.4922 0.9314
11.5203 -13.2952 -2.4926 0.9314
11.9893 -12.8774 -2.4930 0.9314
12.8814 -11.9930 -2.4937 0.9314
13.3034 -11.5275 -2.4942 0.9314
14.0966 -10.5526 -2.4950 0.9313
14.4668 -10.0445 -2.4954 0.9313
14.8187 -9.5234 -2.4959 0.9313
15.1518 -8.9900 -2.4963 0.9313
15.4659 -8.4450 -2.4968 0.9313
16.0349 -7.3229 -2.4977 0.9313
16.2891 -6.7472 -2.4981 0.9312
16.5227 -6.1626 -2.4986 0.9312
16.9267 -4.9701 -2.4996 0.9312
17.0967 -4.3637 -2.5001 0.9312
17.2449 -3.7514 -2.5006 0.9312
17.3712 -3.1341 -2.5010 0.9312
17.4754 -2.5126 -2.5015 0.9312
17.6170 -1.2600 -2.5025 0.9311
-15.1758 0.0000 -2.5001 0.9403
-15.0115 -2.1583 -2.4984 0.9404
-14.8145 -3.2227 -2.4976 0.9404
-14.6877 -3.7488 -2.4972 0.9404
-14.5423 -4.2700 -2.4968 0.9404
-14.3784 -4.7856 -2.4964 0.9404
-14.1964 -5.2950 -2.4961 0.9404
-13.9963 -5.7975 -2.4957 0.9404
-13.5432 -6.7792 -2.4950 0.9404
-13.2907 -7.2573 -2.4947 0.9405
-12.3975 -8.6077 -2.4864 0.9406
-11.8002 -8.8335 -2.4283 0.9420
-10.7401 -9.3064 -2.3411 0.9440
-10.0467 -10.0467 -2.3406 0.9440
-9.6808 -10.3979 -2.3404 0.9440
-9.3026 -10.7358 -2.3402 0.9440
-8.9127 -11.0600 -2.3400 0.9440
-8.5115 -11.3701 -2.3398 0.9440
-7.8489 -11.3045 -2.2672 0.9457
-7.6775 -11.9465 -2.3394 0.9441
-6.3553 -12.6963 -2.3390 0.9441
-5.8978 -12.9144 -2.3389 0.9441
-3.9993 -13.6203 -2.3385 0.9441
-3.5105 -13.7541 -2.3385 0.9441
-3.0173 -13.8704 -2.3384 0.9441
-2.0201 -14.0501 -2.3384 0.9441
-1.0126 -14.1585 -2.3384 0.9441
-0.5066 -14.1859 -2.3385 0.9441
0.0000 -14.1952 -2.3385 0.9441
0.5067 -14.1865 -2.3386 0.9441
1.0127 -14.1598 -2.3386 0.9441
1.5175 -14.1152 -2.3387 0.9441
2.5209 -13.9722 -2.3389 0.9441
3.5512 -13.9136 -2.3656 0.9434
6.2832 -13.7583 -2.4917 0.9405
6.7709 -13.5265 -2.4919 0.9405
7.2501 -13.2775 -2.4922 0.9405
8.1805 -12.7291 -2.4927 0.9405
8.6306 -12.4304 -2.4930 0.9405
9.0698 -12.1158 -2.4933 0.9405
9.4976 -11.7858 -2.4936 0.9405
10.3168 -11.0810 -2.4942 0.9405
10.7072 -10.7071 -2.4945 0.9405
11.4469 -9.9187 -2.4952 0.9404
11.7953 -9.5052 -2.4956 0.9404
12.1288 -9.0795 -2.4959 0.9404
12.7494 -8.1935 -2.4967 0.9404
13.0357 -7.7345 -2.4970 0.9404
13.5586 -6.7869 -2.4978 0.9404
14.0127 -5.8042 -2.4986 0.9404
14.3958 -4.7914 -2.4995 0.9403
14.5601 -4.2752 -2.4999 0.9403
14.8329 -3.2267 -2.5007 0.9403
15.1005 -1.6235 -2.5020 0.9403
15.1513 -1.0836 -2.5024 0.9403
15.1829 -0.5423 -2.5028 0.9403
-13.2642 -0.9487 -2.4995 0.9473
-13.2200 -1.4213 -2.4992 0.9473
-13.1590 -1.8920 -2.4988 0.9473
-13.0812 -2.3601 -2.4985 0.9473
-12.9868 -2.8251 -2.4981 0.9473
-12.8759 -3.2864 -2.4978 0.9474
-12.7487 -3.7434 -2.4974 0.9474
-12.2707 -5.0827 -2.4964 0.9474
-12.0799 -5.5167 -2.4961 0.9474
-11.6528 -6.3629 -2.4955 0.9474
-11.4169 -6.7740 -2.4952 0.9474
-10.9021 -7.5695 -2.4947 0.9474
-10.3322 -8.3262 -2.4941 0.9474
-10.0274 -8.6888 -2.4939 0.9474
-9.3674 -9.3674 -2.4900 0.9475
-9.0148 -9.6826 -2.4866 0.9476
-8.1055 -10.0583 -2.4280 0.9488
-7.6475 -10.2158 -2.3986 0.9494
-6.7602 -10.5191 -2.3503 0.9504
-5.9674 -10.9284 -2.3404 0.9506
-5.5732 -11.1339 -2.3403 0.9506
-5.1720 -11.3252 -2.3402 0.9506
-4.7643 -11.5021 -2.3401 0.9506
-3.9314 -11.8119 -2.3399 0.9506
-2.2102 -12.2504 -2.3398 0.9506
-1.7716 -12.3214 -2.3398 0.9506
-1.3306 -12.3768 -2.3398 0.9506
0.0000 -12.7212 -2.3911 0.9495
1.8837 -13.1013 -2.4878 0.9476
2.8182 -12.9549 -2.4920 0.9475
3.2789 -12.8467 -2.4921 0.9475
5.0751 -12.2525 -2.4927 0.9475
5.5096 -12.0644 -2.4929 0.9475
6.3573 -11.6426 -2.4933 0.9474
8.3275 -10.3339 -2.4946 0.9474
9.0455 -9.7156 -2.4951 0.9474
9.3876 -9.3876 -2.4954 0.9474
9.7179 -9.0477 -2.4957 0.9474
10.0358 -8.6961 -2.4960 0.9474
10.6333 -7.9600 -2.4966 0.9474
10.9121 -7.5764 -2.4969 0.9474
11.6642 -6.3691 -2.4980 0.9473
11.8857 -5.9496 -2.4983 0.9473
12.2833 -5.0879 -2.4990 0.9473
12.7623 -3.7474 -2.5001 0.9473
12.8898 -3.2899 -2.5005 0.9473
13.0010 -2.8282 -2.5008 0.9473
13.0956 -2.3627 -2.5012 0.9473
13.1735 -1.8941 -2.5016 0.9473
13.2347 -1.4229 -2.5019 0.9473
13.3064 -0.4752 -2.5027 0.9473
-11.8290 0.0000 -2.5004 0.9528
-11.7566 -1.2640 -2.4994 0.9528
-11.7025 -1.6826 -2.4991 0.9528
-11.6336 -2.0989 -2.4988 0.9528
-11.5498 -2.5125 -2.4985 0.9528
-11.3384 -3.3293 -2.4979 0.9528
-11.2110 -3.7314 -2.4976 0.9528
-11.0694 -4.1287 -2.4973 0.9528
-10.7442 -4.9067 -2.4967 0.9529
-10.3646 -5.6595 -2.4962 0.9529
-10.1549 -6.0252 -2.4959 0.9529
-9.9324 -6.3831 -2.4957 0.9529
-9.6972 -6.7329 -2.4954 0.9529
-9.4499 -7.0741 -2.4952 0.9529
-6.7276 -9.6896 -2.4935 0.9529
-6.3771 -9.9230 -2.4933 0.9529
-6.0186 -10.1437 -2.4932 0.9529
-4.1171 -11.0383 -2.4903 0.9530
-3.7201 -11.1772 -2.4901 0.9530
-3.3188 -11.3029 -2.4901 0.9530
-2.9136 -11.4154 -2.4903 0.9530
-1.2604 -11.7239 -2.4925 0.9529
0.0000 -11.7918 -2.4926 0.9529
0.4209 -11.7845 -2.4926 0.9529
1.2606 -11.7251 -2.4927 0.9529
1.6783 -11.6731 -2.4928 0.9529
2.0940 -11.6061 -2.4929 0.9529
3.3231 -11.3174 -2.4933 0.9529
4.1225 -11.0528 -2.4936 0.9529
5.2814 -10.5509 -2.4941 0.9529
8.0457 -8.6417 -2.4958 0.9529
8.3499 -8.3499 -2.4961 0.9529
8.9262 -7.7346 -2.4966 0.9529
9.1976 -7.4119 -2.4969 0.9529
9.4573 -7.0797 -2.4972 0.9528
9.7051 -6.7384 -2.4975 0.9528
10.5704 -5.2912 -2.4987 0.9528
10.7539 -4.9111 -2.4990 0.9528
11.0797 -4.1325 -2.4996 0.9528
11.2215 -3.7349 -2.4999 0.9528
11.3492 -3.3324 -2.5003 0.9528
11.4624 -2.9256 -2.5006 0.9528
11.5610 -2.5149 -2.5009 0.9528
11.6449 -2.1010 -2.5012 0.9528
11.8074 -0.8445 -2.5022 0.9528
11.8316 -0.4226 -2.5026 0.9527
-10.6395 0.0000 -2.5005 0.9572
-10.6315 -0.3797 -2.5002 0.9572
-10.5263 -1.5135 -2.4994 0.9572
-10.4644 -1.8880 -2.4991 0.9572
-10.3008 -2.6291 -2.4985 0.9573
-10.1993 -2.9948 -2.4983 0.9573
-10.0848 -3.3565 -2.4980 0.9573
-9.5006 -4.7557 -2.4970 0.9573
-8.7239 -6.0571 -2.4961 0.9573
-7.7706 -7.2347 -2.4953 0.9573
-6.9512 -8.0222 -2.4947 0.9573
-6.6601 -8.2646 -2.4946 0.9573
-6.3605 -8.4966 -2.4944 0.9573
-5.7375 -8.9277 -2.4942 0.9573
-5.4149 -9.1264 -2.4940 0.9573
-4.0604 -9.8026 -2.4937 0.9573
-3.7078 -9.9410 -2.4936 0.9573
-3.3506 -10.0668 -2.4935 0.9573
-2.9891 -10.1798 -2.4935 0.9573
-2.2552 -10.3668 -2.4934 0.9573
-1.8837 -10.4406 -2.4934 0.9573
-1.5098 -10.5012 -2.4934 0.9573
-1.1341 -10.5484 -2.4934 0.9573
-0.3787 -10.6025 -2.4934 0.9573
0.3787 -10.6029 -2.4935 0.9573
1.8840 -10.4422 -2.4938 0.9573
3.3515 -10.0696 -2.4942 0.9573
3.7090 -9.9441 -2.4944 0.9573
4.0618 -9.8060 -2.4945 0.9573
4.4094 -9.6553 -2.4947 0.9573
4.7516 -9.4924 -2.4948 0.9573
5.0877 -9.3174 -2.4950 0.9573
6.0559 -8.7221 -2.4956 0.9573
6.3639 -8.5011 -2.4958 0.9573
7.2380 -7.7742 -2.4964 0.9573
8.0298 -6.9579 -2.4971 0.9573
8.2739 -6.6675 -2.4974 0.9573
8.5075 -6.3686 -2.4976 0.9573
8.7303 -6.0615 -2.4979 0.9573
8.9420 -5.7467 -2.4982 0.9573
9.5082 -4.7595 -2.4990 0.9573
9.6731 -4.4175 -2.4993 0.9572
9.8257 -4.0700 -2.4995 0.9572
9.9659 -3.7171 -2.4998 0.9572
10.2080 -2.9973 -2.5004 0.9572
10.3097 -2.6314 -2.5007 0.9572
10.4736 -1.8896 -2.5013 0.9572
10.5356 -1.5148 -2.5016 0.9572
10.5842 -1.1379 -2.5019 0.9572
10.6410 -0.3800 -2.5025 0.9572
-9.6580 0.0000 -2.5006 0.9609
-9.6314 -0.6888 -2.5001 0.9609
-9.5557 -1.3739 -2.4996 0.9609
-9.4996 -1.7139 -2.4993 0.9609
-9.3512 -2.3868 -2.4988 0.9609
-9.2592 -2.7187 -2.4986 0.9609
-9.1554 -3.0472 -2.4983 0.9609
-9.0399 -3.3717 -2.4981 0.9609
-8.4650 -4.6222 -2.4972 0.9609
-8.2939 -4.9210 -2.4970 0.9609
-8.1123 -5.2135 -2.4968 0.9609
-7.7185 -5.7780 -2.4964 0.9609
-7.2856 -6.3130 -2.4960 0.9610
-7.0551 -6.5685 -2.4958 0.9610
-6.3113 -7.2837 -2.4954 0.9610
-6.0470 -7.5039 -2.4952 0.9610
-5.7750 -7.7145 -2.4951 0.9610
-5.4957 -7.9153 -2.4950 0.9610
-5.2094 -8.1060 -2.4948 0.9610
-4.6175 -8.4563 -2.4946 0.9610
-4.0022 -8.7636 -2.4945 0.9610
-3.6867 -8.9006 -2.4944 0.9610
-3.0422 -9.1405 -2.4943 0.9610
-1.7104 -9.4799 -2.4942 0.9610
-1.0297 -9.5778 -2.4942 0.9610
-0.0000 -9.6332 -2.4942 0.9610
1.0298 -9.5786 -2.4944 0.9610
2.7146 -9.2452 -2.4948 0.9610
4.3141 -8.6186 -2.4955 0.9610
4.6193 -8.4596 -2.4956 0.9610
5.4982 -7.9190 -2.4961 0.9609
6.0501 -7.5077 -2.4965 0.9609
6.3147 -7.2875 -2.4967 0.9609
7.0593 -6.5724 -2.4973 0.9609
7.5115 -6.0531 -2.4978 0.9609
7.7235 -5.7817 -2.4980 0.9609
7.9257 -5.5029 -2.4982 0.9609
8.4710 -4.6255 -2.4990 0.9609
8.6315 -4.3206 -2.4992 0.9609
8.7812 -4.0102 -2.4995 0.9609
8.9196 -3.6946 -2.4997 0.9609
9.0468 -3.3743 -2.5000 0.9609
9.1624 -3.0495 -2.5003 0.9609
9.4389 -2.0533 -2.5010 0.9609
9.5072 -1.7153 -2.5013 0.9609
9.5633 -1.3750 -2.5016 0.9609
9.6074 -1.0329 -2.5019 0.9609
-8.8093 -0.6301 -2.5002 0.9640
-8.7403 -1.2567 -2.4998 0.9640
-8.6891 -1.5677 -2.4995 0.9640
-8.6268 -1.8766 -2.4993 0.9640
-8.5535 -2.1831 -2.4991 0.9640
-8.3745 -2.7873 -2.4986 0.9640
-8.1529 -3.3770 -2.4982 0.9640
-7.8899 -3.9494 -2.4978 0.9640
-7.7433 -4.2281 -2.4976 0.9640
-7.5868 -4.5015 -2.4974 0.9640
-7.2453 -5.0305 -2.4970 0.9640
-7.0606 -5.2855 -2.4968 0.9640
-6.6647 -5.7750 -2.4965 0.9640
-6.0081 -6.4531 -2.4960 0.9640
-5.5318 -6.8646 -2.4958 0.9640
-5.0275 -7.2410 -2.4955 0.9640
-4.7657 -7.4155 -2.4954 0.9640
-4.2242 -7.7360 -2.4952 0.9640
-3.6613 -8.0172 -2.4951 0.9640
-3.3727 -8.1425 -2.4950 0.9640
-2.1795 -8.5390 -2.4948 0.9640
-1.8733 -8.6113 -2.4948 0.9640
-1.2542 -8.7229 -2.4948 0.9640
-0.6287 -8.7902 -2.4948 0.9640
0.0000 -8.8128 -2.4949 0.9640
0.3146 -8.8073 -2.4949 0.9640
0.9421 -8.7628 -2.4950 0.9640
2.1799 -8.5406 -2.4953 0.9640
2.4834 -8.4577 -2.4954 0.9640
2.7838 -8.3640 -2.4955 0.9640
3.0807 -8.2597 -2.4956 0.9640
3.3737 -8.1448 -2.4957 0.9640
3.6624 -8.0196 -2.4958 0.9640
3.9466 -7.8842 -2.4960 0.9640
4.7676 -7.4185 -2.4964 0.9640
5.2854 -7.0604 -2.4968 0.9640
5.7764 -6.6663 -2.4971 0.9640
6.0111 -6.4564 -2.4973 0.9640
6.2382 -6.2382 -2.4975 0.9640
7.4254 -4.7720 -2.4987 0.9640
7.7483 -4.2309 -2.4992 0.9640
8.1585 -3.3793 -2.4999 0.9640
8.3803 -2.7892 -2.5004 0.9639
8.6330 -1.8780 -2.5011 0.9639
8.6954 -1.5688 -2.5013 0.9639
8.7467 -1.2576 -2.5016 0.9639
8.7869 -0.9447 -2.5018 0.9639
8.8159 -0.6305 -2.5021 0.9639
-8.1306 0.0000 -2.5008 0.9665
-8.0818 -0.8689 -2.5001 0.9666
-8.0450 -1.1567 -2.4999 0.9666
-7.7085 -2.5656 -2.4989 0.9666
-7.6114 -2.8389 -2.4987 0.9666
-6.9838 -4.1437 -2.4977 0.9666
-6.6695 -4.6307 -2.4974 0.9666
-5.7396 -5.7396 -2.4966 0.9666
-5.0924 -6.3193 -2.4962 0.9666
-4.8634 -6.4967 -2.4961 0.9666
-4.1406 -6.9785 -2.4958 0.9666
-3.8887 -7.1216 -2.4957 0.9666
-3.6319 -7.2557 -2.4957 0.9666
-3.3706 -7.3805 -2.4956 0.9666
-2.0064 -7.8610 -2.4954 0.9666
-1.1546 -8.0303 -2.4953 0.9666
-0.8672 -8.0664 -2.4953 0.9666
-0.2896 -8.1078 -2.4954 0.9666
0.5788 -8.0926 -2.4955 0.9666
0.8673 -8.0669 -2.4955 0.9666
1.1547 -8.0310 -2.4956 0.9666
1.4406 -7.9849 -2.4956 0.9666
2.0067 -7.8623 -2.4958 0.9666
2.5627 -7.6996 -2.4960 0.9666
3.3715 -7.3826 -2.4963 0.9666
3.8900 -7.1240 -2.4966 0.9666
4.1420 -6.9810 -2.4967 0.9666
4.3888 -6.8291 -2.4968 0.9666
4.6300 -6.6685 -2.4970 0.9666
4.8654 -6.4994 -2.4971 0.9666
5.0946 -6.3220 -2.4973 0.9666
5.3173 -6.1365 -2.4975 0.9666
5.5333 -5.9432 -2.4976 0.9666
5.7424 -5.7424 -2.4978 0.9666
6.1383 -5.3189 -2.4982 0.9666
6.3247 -5.0968 -2.4984 0.9666
6.8349 -4.3925 -2.4990 0.9666
6.9879 -4.1461 -2.4992 0.9666
7.3929 -3.3763 -2.4998 0.9666
7.7135 -2.5673 -2.5005 0.9666
7.8009 -2.2906 -2.5007 0.9665
7.8784 -2.0108 -2.5009 0.9665
7.9459 -1.7285 -2.5011 0.9665
-7.5031 -0.5366 -2.5004 0.9688
-7.4786 -0.8040 -2.5002 0.9688
-7.3480 -1.5985 -2.4996 0.9688
-7.2857 -1.8596 -2.4994 0.9688
-7.0436 -2.6271 -2.4989 0.9688
-6.7210 -3.3643 -2.4983 0.9688
-6.5961 -3.6018 -2.4982 0.9688
-6.4630 -3.8347 -2.4980 0.9688
-6.1721 -4.2854 -2.4977 0.9688
-5.4982 -5.1190 -2.4971 0.9688
-5.3117 -5.3117 -2.4970 0.9688
-5.1185 -5.4976 -2.4969 0.9688
-4.9188 -5.6766 -2.4968 0.9688
-4.7128 -5.8482 -2.4966 0.9688
-4.5009 -6.0125 -2.4965 0.9688
-4.0602 -6.3178 -2.4963 0.9688
-3.8320 -6.4584 -2.4963 0.9688
-3.5989 -6.5909 -2.4962 0.9688
-3.3613 -6.7150 -2.4961 0.9688
-3.1194 -6.8305 -2.4961 0.9688
-2.6240 -7.0353 -2.4959 0.9688
-2.3712 -7.1244 -2.4959 0.9688
-2.1154 -7.2044 -2.4959 0.9688
-1.0685 -7.4319 -2.4958 0.9688
-0.5356 -7.4892 -2.4958 0.9688
-0.2680 -7.5036 -2.4958 0.9688
0.0000 -7.5085 -2.4959 0.9688
0.2680 -7.5038 -2.4959 0.9688
0.8027 -7.4658 -2.4960 0.9688
1.0686 -7.4325 -2.4960 0.9688
1.3333 -7.3898 -2.4961 0.9688
2.1158 -7.2056 -2.4963 0.9688
2.3717 -7.1258 -2.4964 0.9688
2.6246 -7.0369 -2.4965 0.9688
3.8332 -6.4605 -2.4971 0.9688
4.2848 -6.1713 -2.4973 0.9688
4.9208 -5.6789 -2.4978 0.9688
5.1207 -5.5000 -2.4979 0.9688
5.3141 -5.3141 -2.4981 0.9688
5.5007 -5.1214 -2.4983 0.9688
6.1753 -4.2876 -2.4990 0.9688
6.4665 -3.8367 -2.4994 0.9688
7.4055 -1.3361 -2.5014 0.9688
7.4832 -0.8045 -2.5018 0.9688
7.5078 -0.5370 -2.5020 0.9688
-6.9935 0.0000 -2.5009 0.9707
-6.9746 -0.4988 -2.5005 0.9707
-6.9518 -0.7474 -2.5003 0.9707
-6.9202 -0.9950 -2.5002 0.9707
-6.8797 -1.2412 -2.5000 0.9707
-6.8305 -1.4859 -2.4998 0.9707
-6.7727 -1.7286 -2.4996 0.9707
-6.7062 -1.9691 -2.4994 0.9707
-6.6312 -2.2071 -2.4992 0.9707
-6.4559 -2.6741 -2.4989 0.9708
-6.3559 -2.9027 -2.4987 0.9708
-6.1319 -3.3483 -2.4984 0.9708
-5.7378 -3.9838 -2.4980 0.9708
-5.4384 -4.3825 -2.4977 0.9708
-4.9380 -4.9380 -2.4973 0.9708
-4.7584 -5.1109 -2.4972 0.9708
-4.5728 -5.2772 -2.4971 0.9708
-3.9820 -5.7351 -2.4968 0.9708
-3.7746 -5.8734 -2.4967 0.9708
-3.5625 -6.0042 -2.4966 0.9708
-3.3458 -6.1273 -2.4966 0.9708
-3.1249 -6.2427 -2.4965 0.9708
-2.6714 -6.4494 -2.4964 0.9708
-1.4838 -6.8208 -2.4962 0.9708
-0.7462 -6.9403 -2.4962 0.9708
-0.2491 -6.9759 -2.4962 0.9708
0.2491 -6.9761 -2.4963 0.9708
0.7462 -6.9408 -2.4964 0.9708
1.7266 -6.7646 -2.4966 0.9708
1.9670 -6.6988 -2.4967 0.9708
2.2049 -6.6246 -2.4968 0.9708
2.4400 -6.5419 -2.4969 0.9708
2.9007 -6.3517 -2.4971 0.9708
3.1257 -6.2443 -2.4972 0.9708
3.5635 -6.0060 -2.4974 0.9708
3.7758 -5.8753 -2.4975 0.9708
4.1858 -5.5915 -2.4978 0.9708
4.3829 -5.4389 -2.4979 0.9708
4.7603 -5.1129 -2.4982 0.9708
5.1136 -4.7609 -2.4985 0.9708
5.2806 -4.5756 -2.4987 0.9708
5.4409 -4.3845 -2.4988 0.9708
5.7406 -3.9858 -2.4992 0.9707
5.8796 -3.7786 -2.4993 0.9707
6.1350 -3.3500 -2.4997 0.9707
6.5513 -2.4435 -2.5004 0.9707
6.6348 -2.2083 -2.5006 0.9707
6.7099 -1.9702 -2.5008 0.9707
6.8837 -1.2420 -2.5014 0.9707
6.9242 -0.9955 -2.5016 0.9707
6.9786 -0.4991 -2.5020 0.9707
-6.5086 -0.4655 -2.5006 0.9724
-6.4874 -0.6975 -2.5004 0.9724
-6.4202 -1.1583 -2.5001 0.9724
-6.3204 -1.6132 -2.4997 0.9724
-6.2584 -1.8376 -2.4996 0.9724
-5.9316 -2.7089 -2.4989 0.9725
-5.8308 -2.9187 -2.4988 0.9725
-5.7226 -3.1248 -2.4986 0.9725
-5.4845 -3.5247 -2.4984 0.9725
-5.2185 -3.9065 -2.4981 0.9725
-4.6085 -4.6085 -2.4976 0.9725
-4.2677 -4.9252 -2.4974 0.9725
-4.0890 -5.0741 -2.4973 0.9725
-3.9051 -5.2167 -2.4972 0.9725
-3.7163 -5.3525 -2.4971 0.9725
-3.5228 -5.4816 -2.4970 0.9725
-3.1226 -5.7186 -2.4969 0.9725
-2.9164 -5.8263 -2.4968 0.9725
-2.2768 -6.1043 -2.4967 0.9725
-1.3848 -6.3659 -2.4966 0.9725
-1.1567 -6.4113 -2.4966 0.9725
-0.9271 -6.4485 -2.4966 0.9725
-0.6964 -6.4774 -2.4966 0.9725
0.0000 -6.5149 -2.4966 0.9725
0.2325 -6.5108 -2.4966 0.9725
1.8357 -6.2520 -2.4970 0.9725
2.4938 -6.0205 -2.4973 0.9725
2.7072 -5.9279 -2.4974 0.9725
2.9172 -5.8277 -2.4975 0.9725
3.1234 -5.7201 -2.4976 0.9725
3.3257 -5.6053 -2.4977 0.9725
3.7175 -5.3542 -2.4979 0.9725
4.2692 -4.9269 -2.4983 0.9725
4.4426 -4.7717 -2.4984 0.9725
4.7722 -4.4431 -2.4987 0.9725
5.2208 -3.9082 -2.4992 0.9725
5.3573 -3.7196 -2.4993 0.9724
5.4870 -3.5263 -2.4995 0.9724
5.8337 -2.9201 -2.5000 0.9724
6.0280 -2.4969 -2.5004 0.9724
6.1137 -2.2803 -2.5005 0.9724
6.2617 -1.8386 -2.5009 0.9724
6.3237 -1.6140 -2.5011 0.9724
6.3778 -1.3874 -2.5012 0.9724
6.4237 -1.1590 -2.5014 0.9724
6.4614 -0.9290 -2.5016 0.9724
6.4910 -0.6978 -2.5018 0.9724
6.5122 -0.4658 -2.5020 0.9724
-6.1108 0.0000 -2.5010 0.9739
-6.1065 -0.2181 -2.5008 0.9739
-6.0944 -0.4359 -2.5007 0.9739
-6.0746 -0.6531 -2.5005 0.9739
-6.0470 -0.8694 -2.5003 0.9739
-5.9183 -1.5105 -2.4999 0.9739
-5.7947 -1.9287 -2.4995 0.9739
-5.7219 -2.1341 -2.4994 0.9740
-5.4600 -2.7331 -2.4990 0.9740
-5.0144 -3.4816 -2.4984 0.9740
-4.8867 -3.6581 -2.4983 0.9740
-4.7528 -3.8300 -2.4982 0.9740
-4.6128 -3.9971 -2.4981 0.9740
-4.4670 -4.1590 -2.4980 0.9740
-4.1586 -4.4667 -2.4978 0.9740
-3.9964 -4.6121 -2.4977 0.9740
-3.8291 -4.7516 -2.4976 0.9740
-3.4801 -5.0123 -2.4974 0.9740
-3.2989 -5.1332 -2.4973 0.9740
-2.7311 -5.4560 -2.4972 0.9740
-2.5346 -5.5499 -2.4971 0.9740
-2.3348 -5.6367 -2.4971 0.9740
-1.7188 -5.8538 -2.4970 0.9740
-1.5088 -5.9114 -2.4969 0.9740
-0.8682 -6.0387 -2.4969 0.9740
-0.2178 -6.0970 -2.4969 0.9740
0.2178 -6.0971 -2.4970 0.9740
0.4352 -6.0855 -2.4970 0.9740
1.2970 -5.9620 -2.4972 0.9740
1.7191 -5.8546 -2.4973 0.9740
2.1325 -5.7174 -2.4975 0.9740
2.7317 -5.4573 -2.4977 0.9740
2.9249 -5.3565 -2.4978 0.9740
3.1143 -5.2489 -2.4979 0.9740
3.2998 -5.1346 -2.4980 0.9740
3.4812 -5.0138 -2.4981 0.9740
3.6581 -4.8866 -2.4983 0.9740
3.8303 -4.7531 -2.4984 0.9740
4.3171 -4.3171 -2.4988 0.9740
4.4687 -4.1605 -2.4989 0.9740
4.6146 -3.9986 -2.4990 0.9740
5.0165 -3.4830 -2.4995 0.9740
5.1379 -3.3020 -2.4996 0.9739
5.2528 -3.1167 -2.4998 0.9739
5.6444 -2.3380 -2.5004 0.9739
5.7975 -1.9296 -2.5008 0.9739
5.8631 -1.7216 -2.5009 0.9739
5.9212 -1.5113 -2.5011 0.9739
6.0148 -1.0852 -2.5014 0.9739
6.0501 -0.8699 -2.5016 0.9739
6.0777 -0.6534 -2.5018 0.9739
6.1096 -0.2182 -2.5021 0.9739
-5.7387 0.0000 -2.5010 0.9753
-5.7347 -0.2048 -2.5009 0.9753
-5.7048 -0.6133 -2.5006 0.9753
-5.6789 -0.8165 -2.5004 0.9753
-5.5581 -1.4186 -2.5000 0.9753
-5.5036 -1.6160 -2.4998 0.9753
-5.3737 -2.0043 -2.4995 0.9753
-5.2164 -2.3823 -2.4993 0.9753
-5.1278 -2.5668 -2.4991 0.9753
-5.0327 -2.7480 -2.4990 0.9753
-4.8233 -3.0998 -2.4987 0.9753
-4.5895 -3.4356 -2.4985 0.9753
-4.3323 -3.7540 -2.4983 0.9753
-4.1954 -3.9060 -2.4982 0.9753
-3.7534 -4.3316 -2.4979 0.9753
-3.2685 -4.7076 -2.4977 0.9753
-3.0983 -4.8211 -2.4976 0.9753
-2.9242 -4.9285 -2.4975 0.9753
-2.5650 -5.1243 -2.4974 0.9753
-2.3805 -5.2125 -2.4974 0.9753
-1.0174 -5.6389 -2.4972 0.9753
-0.2045 -5.7263 -2.4972 0.9753
0.0000 -5.7300 -2.4972 0.9753
0.6125 -5.6974 -2.4973 0.9753
1.0174 -5.6394 -2.4974 0.9753
1.2181 -5.5996 -2.4975 0.9753
1.6146 -5.4987 -2.4976 0.9753
2.0028 -5.3698 -2.4977 0.9753
2.3809 -5.2135 -2.4979 0.9753
2.5656 -5.1254 -2.4980 0.9753
2.7470 -5.0308 -2.4981 0.9753
2.9249 -4.9297 -2.4982 0.9753
3.2694 -4.7089 -2.4984 0.9753
3.4356 -4.5894 -2.4985 0.9753
3.5973 -4.4640 -2.4986 0.9753
3.7546 -4.3330 -2.4987 0.9753
3.9070 -4.1964 -2.4988 0.9753
4.1969 -3.9074 -2.4991 0.9753
4.5912 -3.4369 -2.4995 0.9753
4.7112 -3.2711 -2.4996 0.9753
4.9332 -2.9270 -2.4999 0.9753
5.2187 -2.3833 -2.5004 0.9753
5.3008 -2.1956 -2.5005 0.9753
5.4446 -1.8121 -2.5008 0.9753
5.6816 -0.8169 -2.5016 0.9753
5.7075 -0.6136 -2.5018 0.9753
5.7261 -0.4095 -2.5019 0.9753
-5.3995 -0.1928 -2.5009 0.9765
-5.3888 -0.3854 -2.5008 0.9765
-5.3713 -0.5775 -2.5006 0.9765
-5.3470 -0.7688 -2.5005 0.9765
-5.2779 -1.1481 -2.5002 0.9765
-5.2333 -1.3357 -2.5001 0.9765
-5.1241 -1.7055 -2.4998 0.9765
-4.9117 -2.2431 -2.4994 0.9765
-4.7387 -2.5875 -2.4992 0.9765
-4.5416 -2.9187 -2.4989 0.9765
-4.3214 -3.2350 -2.4987 0.9765
-3.8164 -3.8164 -2.4983 0.9765
-3.6776 -3.9501 -2.4982 0.9765
-3.5342 -4.0787 -2.4981 0.9765
-3.3863 -4.2021 -2.4980 0.9765
-3.2340 -4.3202 -2.4980 0.9765
-2.2415 -4.9082 -2.4976 0.9765
-1.5201 -5.1769 -2.4975 0.9765
-1.3343 -5.2279 -2.4975 0.9765
-0.7678 -5.3405 -2.4974 0.9765
-0.5767 -5.3645 -2.4974 0.9765
-0.1926 -5.3920 -2.4975 0.9765
0.0000 -5.3955 -2.4975 0.9765
0.1926 -5.3921 -2.4975 0.9765
0.3849 -5.3818 -2.4975 0.9765
0.7679 -5.3408 -2.4976 0.9765
0.9580 -5.3101 -2.4977 0.9765
1.3345 -5.2284 -2.4978 0.9765
1.5203 -5.1776 -2.4978 0.9765
1.7042 -5.1202 -2.4979 0.9765
1.8859 -5.0562 -2.4979 0.9765
2.0652 -4.9858 -2.4980 0.9765
2.2419 -4.9091 -2.4981 0.9765
2.4158 -4.8261 -2.4982 0.9765
3.0785 -4.4338 -2.4985 0.9765
3.3872 -4.2033 -2.4988 0.9765
3.6788 -3.9513 -2.4990 0.9765
3.9517 -3.6791 -2.4992 0.9765
4.0807 -3.5359 -2.4993 0.9765
4.2045 -3.3882 -2.4995 0.9765
4.3230 -3.2361 -2.4996 0.9765
4.5433 -2.9198 -2.4999 0.9765
4.6449 -2.7559 -2.5000 0.9765
4.8302 -2.4178 -2.5003 0.9765
4.9137 -2.2440 -2.5004 0.9765
4.9909 -2.0673 -2.5006 0.9765
5.0618 -1.8880 -2.5007 0.9765
5.1263 -1.7062 -2.5009 0.9765
5.2356 -1.3363 -2.5012 0.9765
5.2803 -1.1486 -2.5013 0.9765
5.3182 -0.9595 -2.5015 0.9765
-5.0989 0.0000 -2.5011 0.9775
-5.0953 -0.1820 -2.5010 0.9775
-5.0853 -0.3637 -2.5008 0.9775
-5.0165 -0.9051 -2.5004 0.9775
-4.9807 -1.0835 -2.5003 0.9775
-4.9386 -1.2605 -2.5002 0.9775
-4.8356 -1.6094 -2.4999 0.9775
-4.7748 -1.7809 -2.4998 0.9776
-4.6351 -2.1168 -2.4995 0.9776
-4.5564 -2.2808 -2.4994 0.9776
-4.4719 -2.4419 -2.4993 0.9776
-4.1847 -2.9055 -2.4990 0.9776
-4.0782 -3.0529 -2.4989 0.9776
-3.9665 -3.1964 -2.4988 0.9776
-3.8497 -3.3358 -2.4987 0.9776
-3.7280 -3.4709 -2.4986 0.9776
-3.6017 -3.6017 -2.4985 0.9776
-3.4707 -3.7278 -2.4984 0.9776
-2.9045 -4.1833 -2.4981 0.9776
-2.1154 -4.6320 -2.4979 0.9776
-1.7795 -4.7710 -2.4978 0.9776
-1.2593 -4.9337 -2.4977 0.9776
-1.0824 -4.9755 -2.4977 0.9776
-0.7246 -5.0400 -2.4977 0.9776
-0.5443 -5.0627 -2.4977 0.9776
-0.3632 -5.0789 -2.4977 0.9776
0.0000 -5.0919 -2.4977 0.9776
0.3633 -5.0791 -2.4978 0.9776
0.5443 -5.0629 -2.4978 0.9776
0.7247 -5.0404 -2.4978 0.9776
0.9041 -5.0114 -2.4979 0.9776
1.2594 -4.9343 -2.4980 0.9776
1.4347 -4.8863 -2.4980 0.9776
1.7798 -4.7717 -2.4982 0.9776
2.1158 -4.6329 -2.4983 0.9776
2.2798 -4.5545 -2.4984 0.9776
2.4410 -4.4704 -2.4985 0.9776
2.7539 -4.2852 -2.4986 0.9776
2.9052 -4.1843 -2.4987 0.9776
3.0528 -4.0781 -2.4988 0.9776
3.1966 -3.9667 -2.4989 0.9776
3.3363 -3.8502 -2.4990 0.9776
3.4717 -3.7289 -2.4991 0.9776
3.6028 -3.6027 -2.4992 0.9776
3.7292 -3.4720 -2.4994 0.9776
4.1862 -2.9065 -2.4998 0.9776
4.3833 -2.6007 -2.5001 0.9775
4.7098 -1.9509 -2.5006 0.9775
4.8922 -1.4365 -2.5010 0.9775
5.0975 -0.1821 -2.5020 0.9775
-4.8212 0.0000 -2.5011 0.9785
-4.8179 -0.1721 -2.5010 0.9785
-4.8084 -0.3439 -2.5009 0.9785
-4.7711 -0.6860 -2.5006 0.9785
-4.7434 -0.8558 -2.5005 0.9785
-4.7096 -1.0245 -2.5004 0.9785
-4.6698 -1.1919 -2.5002 0.9785
-4.6240 -1.3577 -2.5001 0.9785
-4.2286 -2.3090 -2.4994 0.9785
-4.1433 -2.4583 -2.4993 0.9785
-4.0527 -2.6045 -2.4992 0.9785
-3.8563 -2.8868 -2.4990 0.9785
-3.6403 -3.1543 -2.4988 0.9785
-3.5252 -3.2821 -2.4987 0.9785
-3.2819 -3.5250 -2.4986 0.9785
-3.1539 -3.6398 -2.4985 0.9785
-3.0219 -3.7499 -2.4984 0.9785
-2.8860 -3.8553 -2.4984 0.9785
-2.7465 -3.9558 -2.4983 0.9785
-2.3078 -4.2264 -2.4981 0.9785
-2.1554 -4.3060 -2.4981 0.9785
-1.5206 -4.5687 -2.4980 0.9785
-0.8549 -4.7385 -2.4979 0.9785
-0.6852 -4.7659 -2.4979 0.9785
-0.5147 -4.7874 -2.4979 0.9785
-0.1719 -4.8119 -2.4979 0.9785
0.0000 -4.8150 -2.4979 0.9785
0.1719 -4.8120 -2.4980 0.9785
0.3435 -4.8028 -2.4980 0.9785
0.5147 -4.7876 -2.4980 0.9785
0.6853 -4.7662 -2.4980 0.9785
1.0236 -4.7053 -2.4981 0.9785
1.3567 -4.6205 -2.4982 0.9785
2.0007 -4.3808 -2.4985 0.9785
2.4577 -4.1423 -2.4987 0.9785
2.6041 -4.0520 -2.4988 0.9785
2.7472 -3.9567 -2.4989 0.9785
3.0226 -3.7509 -2.4991 0.9785
3.1547 -3.6407 -2.4992 0.9785
3.5263 -3.2831 -2.4995 0.9785
4.3100 -2.1574 -2.5004 0.9785
4.3845 -2.0023 -2.5006 0.9785
4.5166 -1.6846 -2.5008 0.9785
4.5741 -1.5224 -2.5009 0.9785
4.7452 -0.8561 -2.5015 0.9785
4.7730 -0.6863 -2.5016 0.9785
4.7947 -0.5155 -2.5017 0.9785
4.8198 -0.1721 -2.5020 0.9785
-4.5635 -0.1630 -2.5010 0.9794
-4.5545 -0.3257 -2.5009 0.9794
-4.5398 -0.4881 -2.5008 0.9794
-4.4610 -0.9704 -2.5004 0.9794
-4.3800 -1.2861 -2.5002 0.9794
-4.3311 -1.4415 -2.5001 0.9794
-4.2168 -1.7467 -2.4999 0.9794
-4.0811 -2.0429 -2.4996 0.9794
-3.9247 -2.3286 -2.4994 0.9794
-3.8389 -2.4671 -2.4993 0.9794
-3.6528 -2.7345 -2.4992 0.9794
-3.3393 -3.1090 -2.4989 0.9794
-3.2261 -3.2261 -2.4988 0.9794
-3.1088 -3.3391 -2.4987 0.9794
-2.9875 -3.4478 -2.4987 0.9794
-2.8625 -3.5521 -2.4986 0.9794
-2.7338 -3.6519 -2.4985 0.9794
-2.6017 -3.7471 -2.4985 0.9794
-2.0418 -4.0789 -2.4983 0.9794
-1.5940 -4.2736 -2.4982 0.9794
-1.4404 -4.3277 -2.4982 0.9794
-1.2850 -4.3764 -2.4981 0.9794
-1.1280 -4.4194 -2.4981 0.9794
-0.8098 -4.4886 -2.4981 0.9794
-0.4876 -4.5349 -2.4981 0.9794
-0.3254 -4.5494 -2.4981 0.9794
0.4876 -4.5351 -2.4982 0.9794
0.6491 -4.5149 -2.4982 0.9794
1.1281 -4.4198 -2.4984 0.9794
1.2852 -4.3768 -2.4984 0.9794
1.5942 -4.2742 -2.4985 0.9794
1.7458 -4.2147 -2.4986 0.9794
2.6022 -3.7479 -2.4990 0.9794
2.7344 -3.6528 -2.4991 0.9794
3.5538 -2.8639 -2.4998 0.9794
3.9260 -2.3294 -2.5003 0.9794
4.2183 -1.7473 -2.5007 0.9794
4.2782 -1.5957 -2.5009 0.9794
4.4626 -0.9708 -2.5014 0.9794
4.5210 -0.6500 -2.5016 0.9794
4.5652 -0.1630 -2.5020 0.9794
-4.3322 0.0000 -2.5012 0.9802
-4.3292 -0.1546 -2.5011 0.9802
-4.3207 -0.3090 -2.5010 0.9802
-4.2624 -0.7690 -2.5006 0.9802
-3.9386 -1.7987 -2.4998 0.9802
-3.7999 -2.0749 -2.4996 0.9802
-3.7233 -2.2091 -2.4996 0.9802
-3.6419 -2.3405 -2.4995 0.9802
-3.4654 -2.5942 -2.4993 0.9802
-3.3705 -2.7161 -2.4992 0.9802
-3.2713 -2.8346 -2.4991 0.9802
-2.8343 -3.2710 -2.4988 0.9802
-2.7157 -3.3699 -2.4988 0.9802
-2.5936 -3.4646 -2.4987 0.9802
-2.4682 -3.5549 -2.4986 0.9802
-2.0740 -3.7982 -2.4985 0.9802
-1.9370 -3.8697 -2.4985 0.9802
-1.7977 -3.9363 -2.4984 0.9802
-1.3665 -4.1058 -2.4983 0.9802
-1.2191 -4.1519 -2.4983 0.9802
-1.0701 -4.1928 -2.4983 0.9802
-0.7683 -4.2584 -2.4983 0.9802
-0.6158 -4.2831 -2.4983 0.9802
-0.3087 -4.3161 -2.4983 0.9802
0.0000 -4.3272 -2.4983 0.9802
0.4626 -4.3025 -2.4984 0.9802
0.6158 -4.2833 -2.4984 0.9802
0.7683 -4.2587 -2.4984 0.9802
0.9199 -4.2286 -2.4985 0.9802
1.0702 -4.1931 -2.4985 0.9802
1.3667 -4.1063 -2.4986 0.9802
1.6562 -3.9985 -2.4987 0.9802
2.0743 -3.7988 -2.4989 0.9802
2.3402 -3.6414 -2.4991 0.9802
2.4687 -3.5557 -2.4992 0.9802
2.5942 -3.4654 -2.4992 0.9802
2.9500 -3.1686 -2.4995 0.9802
3.1688 -2.9503 -2.4997 0.9802
3.2722 -2.8354 -2.4998 0.9802
3.3715 -2.7169 -2.4999 0.9802
3.4665 -2.5950 -2.5000 0.9802
3.5570 -2.4697 -2.5001 0.9802
3.8011 -2.0756 -2.5004 0.9802
3.8730 -1.9387 -2.5006 0.9802
4.1102 -1.3680 -2.5010 0.9802
4.1566 -1.2205 -2.5011 0.9802
4.1977 -1.0714 -2.5013 0.9802
4.2888 -0.6166 -2.5016 0.9802
4.3083 -0.4632 -2.5017 0.9802
4.3223 -0.3091 -2.5019 0.9802
4.3308 -0.1547 -2.5020 0.9802
