ply
format ascii 1.0
element vertex 1397
property float32 x
property float32 y
property float32 z
property float32 I
end_header
12.6412 0.0000 2.2292 0.9500
29.2190 2.0898 5.1653 0.8878
28.1249 3.0237 4.9877 0.8915
25.4938 4.5996 4.5678 0.9001
18.0744 8.2543 3.5036 0.9225
17.7607 8.8904 3.5021 0.9225
17.3619 9.4803 3.4880 0.9228
22.2716 13.2144 4.5663 0.9002
21.4103 13.7595 4.4876 0.9018
15.0344 10.4386 3.2273 0.9284
13.9890 10.4721 3.0812 0.9315
15.3051 17.6630 4.1210 0.9094
7.8259 14.3320 2.8793 0.9358
10.2410 20.4590 4.0342 0.9113
8.8009 21.2473 4.0552 0.9108
8.0411 21.5589 4.0572 0.9108
5.3149 15.9686 2.9676 0.9339
4.6914 15.9776 2.9362 0.9346
4.0531 15.8798 2.8898 0.9356
3.3077 15.2052 2.7438 0.9388
-3.7920 21.0175 3.7658 0.9169
-4.5961 21.1282 3.8126 0.9159
-5.4760 21.4547 3.9043 0.9140
-6.3203 21.5248 3.9556 0.9129
-8.6621 23.2241 4.3706 0.9042
-9.8797 23.8516 4.5522 0.9005
-10.8627 23.7860 4.6108 0.8992
-12.7111 25.3935 5.0072 0.8911
-5.0639 9.2739 1.8631 0.9580
-20.2262 29.1313 6.2533 0.8658
-17.4720 17.4720 4.3569 0.9045
-23.3665 17.4920 5.1467 0.8882
-43.8131 4.7104 7.7699 0.8361
12.6396 0.0000 1.9361 0.9501
31.8564 1.1378 4.8833 0.8790
26.9695 3.8776 4.1741 0.8956
25.6260 4.6234 3.9891 0.9000
22.3509 6.5628 3.5686 0.9100
29.5715 9.8423 4.7745 0.8815
20.6565 7.7045 3.3774 0.9146
18.8693 7.8159 3.1288 0.9207
18.0747 8.2545 3.0440 0.9227
23.8523 13.0244 4.1633 0.8959
21.5237 13.8324 3.9195 0.9016
13.1131 11.3625 2.6581 0.9322
12.6938 11.8184 2.6570 0.9322
16.5433 16.5432 3.5841 0.9097
14.8808 18.4659 3.6331 0.9085
8.6112 13.3993 2.4401 0.9376
8.1116 13.6713 2.4353 0.9377
7.8430 14.3635 2.5071 0.9359
9.7167 21.2766 3.5833 0.9097
6.4225 15.5054 2.5710 0.9343
8.0623 21.6158 3.5343 0.9109
5.3335 16.0245 2.5873 0.9339
4.6957 15.9922 2.5533 0.9348
2.6343 24.5025 3.7753 0.9051
0.9086 25.4408 3.8999 0.9021
-0.3000 8.4001 1.2877 0.9666
-2.1181 19.7008 3.0354 0.9229
-5.1751 28.6840 4.4652 0.8887
-6.3204 21.5252 3.4367 0.9132
-7.5484 22.6792 3.6617 0.9078
-8.8252 23.6612 3.8687 0.9029
-9.8958 23.8906 3.9615 0.9006
-10.9909 24.0668 4.0532 0.8985
-15.7121 26.4813 4.7171 0.8828
28.2335 3.0354 3.6978 0.8918
27.3552 3.9331 3.5988 0.8945
23.7410 5.1645 3.1639 0.9066
23.0821 5.8914 3.1021 0.9084
18.8696 7.8161 2.6597 0.9209
18.0750 8.2546 2.5876 0.9230
17.8521 8.9361 2.5997 0.9226
24.3649 13.3042 3.6150 0.8941
13.9894 10.4724 2.2756 0.9319
16.5435 16.5435 3.0466 0.9099
16.0679 17.2582 3.0706 0.9093
10.2486 12.7178 2.1269 0.9362
8.1117 13.6715 2.0701 0.9379
9.0309 21.8026 3.0731 0.9092
4.0532 15.8802 2.1342 0.9360
3.3007 15.1729 2.0220 0.9393
2.4354 16.9385 2.2284 0.9333
1.7587 24.5900 3.2103 0.9053
0.9118 25.5283 3.3264 0.9021
-0.0000 8.4037 1.0943 0.9667
-2.1217 19.7346 2.5847 0.9231
-5.2682 29.1998 3.8638 0.8872
-4.6690 21.4632 2.8603 0.9152
-6.8217 20.4959 2.8129 0.9166
-12.1375 32.5420 4.5228 0.8693
-10.9912 24.0673 3.4454 0.8988
-18.2548 28.4051 4.3969 0.8727
-39.5777 8.6096 5.2744 0.8493
-43.7431 4.7029 5.7291 0.8374
32.4610 1.1594 3.4879 0.8775
28.2339 3.0355 3.0493 0.8920
27.6495 3.9754 2.9996 0.8937
23.4471 4.2303 2.5584 0.9086
23.7414 5.1646 2.6090 0.9069
23.1401 5.9062 2.5645 0.9084
21.6730 7.2135 2.4528 0.9122
18.0754 8.2548 2.1338 0.9232
17.5173 8.7686 2.1035 0.9242
17.6094 9.6155 2.1545 0.9225
21.5243 13.8328 2.7475 0.9022
13.9896 10.4725 1.8765 0.9321
13.3963 10.7954 1.8475 0.9331
12.4705 11.6104 1.8296 0.9338
16.0847 17.2761 2.5347 0.9094
15.6423 18.0522 2.5650 0.9084
14.9666 18.5725 2.5613 0.9085
9.1138 13.1263 1.7160 0.9377
10.5107 20.9976 2.5215 0.9099
9.7727 21.3993 2.5262 0.9097
4.0532 15.8805 1.7599 0.9362
2.6360 24.5186 2.6480 0.9056
1.7587 24.5903 2.6473 0.9056
0.0000 8.3922 0.9012 0.9668
-0.2999 8.3955 0.9021 0.9668
-1.3459 18.8188 2.0259 0.9269
-2.0914 19.4526 2.1009 0.9243
-5.3452 29.6268 3.2327 0.8859
-5.4837 21.4850 2.3811 0.9147
-6.3206 21.5260 2.4091 0.9137
-6.8216 20.4956 2.3196 0.9168
-12.1056 32.4564 3.7198 0.8699
-9.9980 24.1373 2.8055 0.9002
-10.9914 24.0678 2.8412 0.8990
-5.0631 9.2725 1.1343 0.9584
-18.8513 29.3332 3.7442 0.8691
-17.4989 17.4989 2.6574 0.9052
-43.7303 4.7015 4.7229 0.8378
32.6860 1.1674 2.7687 0.8770
28.2343 3.0355 2.4039 0.8923
27.4677 3.9493 2.3491 0.8946
23.4640 4.2334 2.0184 0.9087
22.4528 6.5927 1.9809 0.9103
30.4623 10.1388 2.7178 0.8791
20.0599 7.4820 1.8124 0.9176
18.0757 8.2549 1.6822 0.9233
17.6110 8.8154 1.6672 0.9240
22.6453 13.4361 2.2290 0.8997
21.5246 13.8330 2.1660 0.9024
14.8589 10.3167 1.5313 0.9300
13.9898 10.4726 1.4793 0.9323
13.0506 11.3084 1.4618 0.9330
15.9250 17.1046 1.9784 0.9105
14.7647 18.3219 1.9919 0.9099
9.7892 13.0769 1.3828 0.9365
8.6116 13.3998 1.3484 0.9381
7.7469 14.1873 1.3684 0.9372
10.3689 20.7144 1.9609 0.9112
9.6409 21.1106 1.9646 0.9110
8.9092 21.5088 1.9708 0.9108
5.1832 15.5731 1.3894 0.9362
3.2944 15.1439 1.3120 0.9397
2.4531 17.0616 1.4592 0.9331
-1.3460 18.8191 1.5972 0.9271
-4.0707 28.3126 2.4214 0.8915
-5.3453 29.6273 2.5485 0.8862
-5.4573 21.3815 1.8680 0.9152
-6.8235 20.5013 1.8291 0.9169
-9.1790 24.6099 2.2235 0.8999
-10.9916 24.0683 2.2399 0.8992
-5.0626 9.2715 0.8942 0.9585
-17.5078 17.5078 2.0960 0.9054
12.6310 0.0000 0.7833 0.9506
32.4981 1.1607 2.0165 0.8778
28.2347 3.0356 1.7609 0.8924
23.7423 5.1648 1.5067 0.9072
23.0272 5.8773 1.4737 0.9092
20.0584 7.4814 1.3275 0.9178
17.6098 8.8148 1.2212 0.9241
17.7349 9.6840 1.2530 0.9222
22.7434 13.4943 1.6399 0.8994
13.9900 10.4728 1.0837 0.9324
15.6093 18.0140 1.4781 0.9089
14.8497 18.4274 1.4675 0.9095
9.7887 13.0761 1.0129 0.9366
7.7464 14.1866 1.0023 0.9373
8.9605 21.6326 1.4520 0.9104
8.0188 21.4993 1.4229 0.9121
4.0533 15.8809 1.0164 0.9364
3.0246 16.7640 1.0563 0.9340
2.4530 17.0606 1.0688 0.9333
1.7588 24.5910 1.5288 0.9059
-4.0352 28.0658 1.7583 0.8926
-5.3035 29.3956 1.8523 0.8872
-4.6286 21.2774 1.3503 0.9164
-5.4569 21.3798 1.3683 0.9154
-6.3208 21.5268 1.3912 0.9140
-6.8105 20.4621 1.3373 0.9172
-9.8366 23.7476 1.5939 0.9021
-10.9919 24.0688 1.6408 0.8994
-5.0620 9.2704 0.6550 0.9586
-15.8491 26.7122 1.9261 0.8830
-16.7687 26.0925 1.9233 0.8831
-17.5167 17.5167 1.5361 0.9055
12.6275 0.0000 0.4979 0.9507
29.8861 2.1375 1.1814 0.8870
27.6337 3.9731 1.1008 0.8943
35.6831 6.4379 1.4297 0.8649
22.5746 6.6285 0.9277 0.9101
20.0570 7.4809 0.8441 0.9179
18.8708 7.8166 0.8054 0.9215
18.0764 8.2552 0.7836 0.9235
17.6086 8.8142 0.7764 0.9242
17.7364 9.6848 0.7968 0.9223
22.7420 13.4934 1.0427 0.8996
21.5252 13.8334 1.0089 0.9026
14.8570 10.3154 0.7132 0.9302
13.3968 10.7959 0.6784 0.9334
12.4682 11.6083 0.6717 0.9341
15.0138 18.6310 0.9435 0.9087
7.7460 14.1858 0.6373 0.9373
10.5438 21.0638 0.9288 0.9100
4.6597 15.8695 0.6522 0.9359
4.0534 15.8811 0.6463 0.9365
3.0244 16.7631 0.6717 0.9341
2.4528 17.0596 0.6796 0.9333
0.6819 19.0926 0.7533 0.9264
0.0000 8.3582 0.3296 0.9671
-1.3460 18.8196 0.7440 0.9273
-4.0350 28.0638 1.1180 0.8927
-5.3622 29.7205 1.1908 0.8861
-4.6288 21.2783 0.8587 0.9165
-5.4564 21.3782 0.8700 0.9155
-9.2289 24.7436 1.0413 0.8997
-9.8357 23.7454 1.0135 0.9022
-12.6551 25.2817 1.1148 0.8930
-15.8494 26.7128 1.2247 0.8831
-19.5159 30.3674 1.4234 0.8655
-43.6924 4.6974 1.7328 0.8387
32.6009 1.1644 0.5510 0.8777
29.8832 2.1373 0.5061 0.8870
27.6355 3.9734 0.4716 0.8943
35.6798 6.4373 0.6124 0.8650
23.0233 5.8764 0.4014 0.9093
30.5588 10.1709 0.5440 0.8791
20.0555 7.4803 0.3616 0.9179
18.8712 7.8167 0.3450 0.9215
18.0767 8.2554 0.3357 0.9236
13.9904 10.4731 0.2952 0.9325
13.0483 11.3064 0.2916 0.9333
12.4675 11.6076 0.2877 0.9341
9.1142 13.1270 0.2699 0.9381
8.6119 13.4003 0.2691 0.9383
8.1122 13.6723 0.2685 0.9384
7.7456 14.1850 0.2730 0.9374
9.8037 21.4670 0.3986 0.9099
9.0596 21.8719 0.3999 0.9096
8.0179 21.4969 0.3876 0.9123
5.1823 15.5704 0.2772 0.9365
4.6595 15.8686 0.2794 0.9360
4.0535 15.8813 0.2769 0.9365
3.5181 16.1726 0.2796 0.9359
3.0242 16.7621 0.2877 0.9341
2.6276 24.4404 0.4152 0.9063
1.7588 24.5917 0.4165 0.9061
-0.2995 8.3863 0.1418 0.9670
-1.3460 18.8199 0.3187 0.9273
-2.1018 19.5492 0.3321 0.9244
-4.0347 28.0619 0.4789 0.8928
-4.6290 21.2792 0.3679 0.9166
-6.3210 21.5275 0.3790 0.9142
-9.2293 24.7446 0.4461 0.8997
-9.8348 23.7432 0.4341 0.9023
-10.9923 24.0698 0.4470 0.8996
-5.0609 9.2683 0.1784 0.9586
-15.8498 26.7135 0.5247 0.8831
-20.5328 29.5728 0.6081 0.8659
-17.5343 17.5344 0.4189 0.9056
12.6238 0.0000 -0.0711 0.9508
29.8802 2.1371 -0.1687 0.8871
35.6765 6.4368 -0.2041 0.8650
23.7437 5.1651 -0.1368 0.9074
18.0771 8.2555 -0.1119 0.9236
17.6061 8.8130 -0.1109 0.9243
21.5258 13.8338 -0.1441 0.9027
14.8552 10.3142 -0.1018 0.9302
13.9906 10.4732 -0.0984 0.9325
13.3972 10.7962 -0.0969 0.9335
13.0475 11.3057 -0.0972 0.9333
12.4667 11.6069 -0.0959 0.9341
15.6098 18.0147 -0.1342 0.9091
9.7870 13.0740 -0.0919 0.9368
9.1143 13.1271 -0.0900 0.9381
8.6120 13.4005 -0.0897 0.9383
8.1123 13.6725 -0.0895 0.9384
7.7452 14.1842 -0.0910 0.9374
9.8038 21.4673 -0.1329 0.9099
8.0175 21.4956 -0.1292 0.9123
5.1820 15.5695 -0.0924 0.9365
4.6592 15.8678 -0.0931 0.9360
4.0535 15.8815 -0.0923 0.9365
3.5182 16.1728 -0.0932 0.9359
3.0240 16.7611 -0.0959 0.9341
0.3048 8.5332 -0.0481 0.9664
-0.0000 8.3358 -0.0469 0.9672
-1.3460 18.8202 -0.1062 0.9273
-4.0344 28.0600 -0.1596 0.8928
-5.3623 29.7214 -0.1700 0.8862
-4.6292 21.2801 -0.1226 0.9166
-7.4768 22.4640 -0.1333 0.9096
-9.2296 24.7456 -0.1487 0.8997
-12.6527 25.2768 -0.1591 0.8931
-15.8502 26.7141 -0.1749 0.8832
-19.5172 30.3694 -0.2032 0.8655
-20.5301 29.5690 -0.2027 0.8659
-17.5432 17.5432 -0.1397 0.9055
-43.6672 4.6947 -0.2473 0.8389
32.6047 1.1645 -0.9187 0.8776
29.8772 2.1369 -0.8434 0.8870
35.6733 6.4362 -1.0207 0.8650
23.7441 5.1652 -0.6842 0.9073
30.5598 10.1713 -0.9069 0.8791
20.0526 7.4792 -0.6026 0.9179
18.8718 7.8169 -0.5752 0.9215
18.0774 8.2557 -0.5596 0.9236
17.6049 8.8124 -0.5544 0.9242
17.7409 9.6872 -0.5691 0.9223
22.7376 13.4909 -0.7445 0.8996
13.3974 10.7963 -0.4845 0.9335
12.4660 11.6062 -0.4796 0.9341
15.6100 18.0149 -0.6712 0.9090
15.0144 18.6317 -0.6738 0.9087
9.7865 13.0732 -0.4598 0.9367
9.1144 13.1273 -0.4500 0.9381
8.1124 13.6727 -0.4477 0.9384
10.5442 21.0646 -0.6633 0.9100
9.0599 21.8725 -0.6666 0.9096
8.0170 21.4944 -0.6460 0.9123
5.1817 15.5686 -0.4620 0.9364
4.6589 15.8668 -0.4656 0.9360
3.5182 16.1730 -0.4660 0.9359
3.0239 16.7601 -0.4795 0.9341
2.4524 17.0566 -0.4852 0.9334
1.7589 24.5923 -0.6942 0.9061
0.3043 8.5215 -0.2401 0.9665
-0.2994 8.3818 -0.2362 0.9670
-4.0341 28.0581 -0.7982 0.8928
-7.4761 22.4622 -0.6666 0.9096
-9.8330 23.7389 -0.7235 0.9023
-10.9928 24.0708 -0.7451 0.8995
-15.8506 26.7148 -0.8747 0.8831
-19.5179 30.3704 -1.0165 0.8655
-20.5275 29.5652 -1.0135 0.8659
-43.6547 4.6934 -1.2363 0.8389
32.5373 1.1621 -1.6512 0.8777
28.2365 3.0358 -1.4402 0.8925
27.6406 3.9741 -1.4162 0.8942
23.7446 5.1653 -1.2323 0.9073
22.5811 6.6304 -1.1935 0.9100
18.8721 7.8171 -1.0359 0.9214
18.0777 8.2558 -1.0079 0.9235
17.6037 8.8118 -0.9984 0.9242
22.7362 13.4900 -1.3407 0.8995
21.5264 13.8342 -1.2977 0.9026
14.8534 10.3129 -0.9170 0.9301
13.9910 10.4735 -0.8863 0.9324
13.0459 11.3043 -0.8754 0.9332
16.5452 16.5452 -1.1866 0.9105
8.6122 13.4008 -0.8079 0.9382
9.0600 21.8727 -1.2007 0.9095
5.1814 15.5677 -0.8321 0.9364
4.6587 15.8659 -0.8386 0.9359
3.5183 16.1732 -0.8394 0.9359
1.7589 24.5927 -1.2504 0.9060
0.0000 8.3135 -0.4216 0.9673
-2.1013 19.5453 -0.9969 0.9243
-4.0338 28.0561 -1.4375 0.8927
-5.4548 21.3716 -1.1186 0.9154
-9.2303 24.7474 -1.3395 0.8996
-10.9930 24.0713 -1.3421 0.8994
-15.8510 26.7154 -1.5754 0.8830
-20.4498 29.4533 -1.8184 0.8662
-31.1019 38.5951 -2.5138 0.8199
-32.4756 37.4788 -2.5150 0.8199
-33.8090 36.3134 -2.5162 0.8198
-17.5609 17.5609 -1.2595 0.9053
-37.5497 32.5370 -2.5198 0.8196
-38.7045 31.1901 -2.5209 0.8195
-40.8668 28.3743 -2.5231 0.8193
-42.8224 25.4077 -2.5252 0.8192
-43.7195 23.8727 -2.5262 0.8191
-46.0724 19.0838 -2.5290 0.8190
-46.7405 17.4333 -2.5299 0.8189
-47.8962 14.0636 -2.5316 0.8188
-48.3824 12.3488 -2.5323 0.8187
-48.7456 10.6039 -2.5299 0.8189
-46.1764 8.3311 -2.3796 0.8287
-46.8360 3.3498 -2.3813 0.8286
-46.9809 1.6779 -2.3841 0.8284
31.7217 1.1329 -2.3274 0.8805
29.7680 2.1291 -2.1882 0.8872
28.1333 3.0246 -2.0747 0.8927
25.2805 4.5611 -1.8836 0.9021
30.1032 10.0193 -2.3263 0.8805
18.8724 7.8172 -1.4978 0.9213
18.0780 8.2560 -1.4572 0.9234
17.6024 8.8111 -1.4433 0.9241
17.7441 9.6890 -1.4824 0.9221
14.8525 10.3122 -1.3258 0.9300
13.9912 10.4737 -1.2815 0.9323
13.3978 10.7966 -1.2616 0.9333
16.5454 16.5454 -1.7156 0.9104
15.6104 18.0154 -1.7478 0.9088
9.7854 13.0717 -1.1973 0.9366
9.1147 13.1276 -1.1718 0.9379
8.6123 13.4010 -1.1680 0.9381
8.1126 13.6730 -1.1657 0.9382
10.5445 21.0651 -1.7272 0.9098
9.0601 21.8730 -1.7359 0.9094
7.9960 21.4380 -1.6777 0.9123
5.1811 15.5669 -1.2030 0.9363
4.0537 15.8821 -1.2018 0.9364
3.5183 16.1735 -1.2136 0.9358
3.0235 16.7582 -1.2486 0.9340
2.4521 17.0545 -1.2633 0.9332
2.6202 24.3711 -1.7972 0.9064
1.7589 24.5930 -1.8078 0.9058
0.3035 8.4982 -0.6235 0.9665
-0.0000 8.3024 -0.6088 0.9672
-1.3461 18.8210 -1.3835 0.9271
-2.1012 19.5440 -1.4413 0.9242
-4.0234 27.9837 -2.0729 0.8928
-4.6299 21.2832 -1.5970 0.9163
-5.4344 21.2918 -1.6112 0.9156
-6.3215 21.5290 -1.6452 0.9139
-7.4493 22.3815 -1.7296 0.9097
-9.2056 24.6812 -1.9315 0.8997
-9.7967 23.6514 -1.8771 0.9024
-10.9932 24.0718 -1.9404 0.8993
-5.0586 9.2642 -0.7739 0.9585
-17.3641 27.0191 -2.3549 0.8791
-18.3239 26.3914 -2.3558 0.8791
-19.2608 25.7294 -2.3566 0.8791
-20.1738 25.0341 -2.3574 0.8790
-16.8360 16.8360 -1.7458 0.9089
-18.2543 16.9953 -1.8287 0.9048
-27.4544 20.5521 -2.5146 0.8715
-28.1923 19.5742 -2.5165 0.8714
-28.8814 18.5609 -2.5172 0.8714
-30.1488 16.4625 -2.5187 0.8713
-30.7253 15.3800 -2.5193 0.8713
-31.2628 14.2772 -2.5200 0.8712
-32.2173 12.0164 -2.5212 0.8712
-32.6332 10.8613 -2.5218 0.8711
-33.0073 9.6918 -2.5223 0.8711
-33.6283 7.3154 -2.5234 0.8711
-33.9154 2.4257 -2.4931 0.8725
24.2330 1.7332 -2.3324 0.9070
24.1540 2.5968 -2.3323 0.9070
23.9046 4.3129 -2.3320 0.9070
23.7345 5.1631 -2.3319 0.9070
22.9294 5.8524 -2.2719 0.9093
18.0784 8.2561 -1.9080 0.9232
20.8908 12.3951 -2.3321 0.9070
20.4362 13.1335 -2.3322 0.9070
13.9913 10.4738 -1.6779 0.9322
13.3979 10.7967 -1.6519 0.9332
16.5456 16.5456 -2.2464 0.9103
15.0150 18.6324 -2.2973 0.9083
9.7848 13.0710 -1.5675 0.9365
8.1127 13.6732 -1.5264 0.9381
7.7434 14.1810 -1.5512 0.9371
10.5446 21.0654 -2.2616 0.9097
9.0602 21.8733 -2.2730 0.9092
7.9955 21.4368 -2.1965 0.9122
4.6581 15.8641 -1.5873 0.9357
2.4435 16.9947 -1.6484 0.9333
2.6074 24.2525 -2.3418 0.9066
1.7406 24.3362 -2.3424 0.9066
0.3031 8.4865 -0.8153 0.9665
0.0000 8.2913 -0.7960 0.9672
-0.2991 8.3749 -0.8045 0.9669
-1.3461 18.8213 -1.8115 0.9270
-3.4777 24.1877 -2.3460 0.9065
-4.3399 24.0546 -2.3466 0.9064
-5.4340 21.2901 -2.1095 0.9155
-6.3216 21.5294 -2.1542 0.9138
-7.4487 22.3796 -2.2644 0.9096
-8.5536 22.9332 -2.3499 0.9063
-10.1734 22.2767 -2.3511 0.9063
-5.0581 9.2632 -1.0133 0.9585
-7.2887 10.4978 -1.2269 0.9499
-15.3955 19.1046 -2.3556 0.9061
-17.9758 16.7361 -2.3579 0.9060
-18.5662 16.0877 -2.3585 0.9060
-22.9891 12.5530 -2.5147 0.9001
-23.4273 11.7269 -2.5152 0.9001
-23.8356 10.8853 -2.5157 0.9001
-25.6310 5.5757 -2.5182 0.9000
-25.8174 4.6580 -2.5186 0.8999
-25.9706 3.7340 -2.5189 0.8999
-26.0907 2.8050 -2.5193 0.8999
-26.1772 1.8722 -2.5196 0.8999
12.6146 0.0000 -1.4984 0.9505
17.0280 0.6082 -2.0240 0.9337
19.6131 1.4028 -2.3357 0.9238
19.4611 2.7981 -2.3355 0.9239
19.2105 4.1790 -2.3353 0.9239
18.8626 5.5385 -2.3352 0.9239
17.5378 8.7788 -2.3297 0.9240
17.2552 9.4221 -2.3353 0.9239
16.9086 10.0323 -2.3354 0.9239
13.3981 10.7969 -2.0440 0.9330
12.9961 11.2612 -2.0427 0.9331
13.9089 13.9089 -2.3365 0.9238
10.2619 12.7343 -1.9427 0.9362
9.7496 13.0240 -1.9325 0.9366
8.8439 12.7377 -1.8420 0.9394
8.6125 13.4014 -1.8923 0.9378
7.7156 14.1300 -1.9124 0.9372
8.8145 17.6091 -2.3391 0.9237
6.8850 18.4593 -2.3403 0.9237
4.0538 15.8825 -1.9471 0.9361
3.0123 16.6959 -2.0153 0.9339
0.3027 8.4748 -1.0073 0.9664
-0.0000 8.2801 -0.9836 0.9672
-0.2990 8.3726 -0.9952 0.9668
-1.3461 18.8216 -2.2414 0.9268
-2.0935 19.4720 -2.3263 0.9241
-2.8117 19.5539 -2.3467 0.9235
-3.5085 19.4462 -2.3472 0.9235
-4.8890 19.1548 -2.3483 0.9235
-5.5707 18.9722 -2.3488 0.9234
-7.5719 18.2802 -2.3503 0.9234
-8.2214 18.0023 -2.3509 0.9234
-5.0575 9.2621 -1.2535 0.9584
-11.8756 15.8640 -2.3539 0.9233
-12.9826 14.9827 -2.3549 0.9232
-14.0240 14.0241 -2.3559 0.9232
-14.6206 13.6122 -2.3729 0.9227
-16.9187 12.6652 -2.5104 0.9184
-18.9151 9.4682 -2.5126 0.9183
-19.2440 8.7884 -2.5130 0.9183
-19.5484 8.0972 -2.5134 0.9183
-19.8279 7.3954 -2.5138 0.9183
-20.0821 6.6839 -2.5141 0.9183
-20.6894 4.5007 -2.5151 0.9182
-20.9625 3.0140 -2.5157 0.9182
-21.0588 2.2641 -2.5159 0.9182
-21.1705 0.7561 -2.5164 0.9182
12.4808 0.0000 -1.7684 0.9508
16.4586 1.1772 -2.3380 0.9355
16.3312 2.3481 -2.3378 0.9355
16.2365 2.9294 -2.3377 0.9355
15.4572 5.7653 -2.3375 0.9355
15.2417 6.3133 -2.3375 0.9355
15.0068 6.8534 -2.3375 0.9355
14.7529 7.3848 -2.3376 0.9355
14.4803 7.9068 -2.3376 0.9355
13.5537 9.4105 -2.3379 0.9355
12.0794 11.2463 -2.3385 0.9355
11.6711 11.6711 -2.3387 0.9355
11.2481 12.0813 -2.3388 0.9355
10.8106 12.4761 -2.3390 0.9355
10.2613 12.7335 -2.3171 0.9361
8.8449 12.7390 -2.1974 0.9393
8.1129 13.6735 -2.2527 0.9378
7.7151 14.1292 -2.2810 0.9370
7.3951 14.7734 -2.3408 0.9354
6.8639 15.0299 -2.3411 0.9354
6.3240 15.2674 -2.3415 0.9354
5.7758 15.4855 -2.3418 0.9354
4.6409 15.8053 -2.3340 0.9356
4.0538 15.8827 -2.3226 0.9359
2.3543 16.3744 -2.3439 0.9354
1.1805 16.5061 -2.3447 0.9353
-0.0000 8.2689 -1.1716 0.9671
-1.1814 16.5176 -2.3463 0.9353
-2.9418 16.3056 -2.3476 0.9353
-5.2363 15.7325 -2.3494 0.9352
-5.7956 15.5385 -2.3498 0.9352
-6.3477 15.3246 -2.3502 0.9352
-6.8919 15.0910 -2.3507 0.9352
-7.4275 14.8382 -2.3511 0.9352
-8.9760 13.9669 -2.3524 0.9351
-7.2738 10.4763 -1.8071 0.9498
-10.4232 12.9343 -2.3537 0.9351
-10.8801 12.5563 -2.3541 0.9351
-12.4193 12.4193 -2.4886 0.9315
-12.9542 12.0608 -2.5078 0.9310
-13.3786 11.5926 -2.5082 0.9310
-14.9015 9.5766 -2.5098 0.9309
-15.2361 9.0400 -2.5102 0.9309
-16.1217 7.3625 -2.5112 0.9309
-16.8226 5.5991 -2.5121 0.9309
-17.0136 4.9957 -2.5124 0.9309
-17.5584 2.5245 -2.5134 0.9308
-17.6966 1.2657 -2.5138 0.9308
12.4392 0.0000 -2.0492 0.9508
14.1656 1.0132 -2.3396 0.9441
14.0562 2.0210 -2.3394 0.9441
13.9747 2.5213 -2.3393 0.9441
13.8755 3.0184 -2.3393 0.9441
13.7586 3.5117 -2.3393 0.9441
13.6244 4.0005 -2.3392 0.9441
13.4728 4.4842 -2.3392 0.9441
13.3041 4.9622 -2.3392 0.9441
11.6654 8.0995 -2.3396 0.9441
11.3694 8.5110 -2.3397 0.9441
10.3962 9.6792 -2.3400 0.9440
10.0447 10.0447 -2.3402 0.9440
9.3039 10.7373 -2.3405 0.9440
7.6838 11.9563 -2.3413 0.9440
6.8127 12.4765 -2.3418 0.9440
5.9065 12.9335 -2.3423 0.9440
5.4418 13.1376 -2.3426 0.9440
4.0077 13.6491 -2.3435 0.9440
2.5268 14.0049 -2.3444 0.9439
2.0256 14.0881 -2.3447 0.9439
1.0157 14.2008 -2.3454 0.9439
0.3018 8.4513 -1.3932 0.9663
0.0000 8.2577 -1.3604 0.9671
-0.2989 8.3680 -1.3794 0.9666
-1.0163 14.2093 -2.3468 0.9439
-1.5230 14.1662 -2.3472 0.9439
-3.0300 13.9288 -2.3483 0.9439
-3.5258 13.8139 -2.3487 0.9438
-4.9846 13.3643 -2.3498 0.9438
-5.4593 13.1800 -2.3502 0.9438
-5.9272 12.9788 -2.3505 0.9438
-7.7188 12.0107 -2.3520 0.9438
-8.5587 11.4330 -2.3527 0.9437
-8.9626 11.1219 -2.3531 0.9437
-9.3911 10.8379 -2.3625 0.9435
-10.3478 11.1143 -2.5017 0.9403
-10.7592 10.7592 -2.5066 0.9402
-11.8527 9.5515 -2.5077 0.9402
-12.1877 9.1236 -2.5080 0.9401
-13.0982 7.7715 -2.5090 0.9401
-13.3688 7.2999 -2.5093 0.9401
-13.6225 6.8189 -2.5096 0.9401
-13.8588 6.3291 -2.5099 0.9401
-14.0774 5.8310 -2.5102 0.9401
-14.2781 5.3254 -2.5104 0.9401
-14.4605 4.8129 -2.5107 0.9401
-14.8963 3.2405 -2.5114 0.9401
-15.0919 2.1699 -2.5118 0.9401
-15.1608 1.6300 -2.5120 0.9401
-15.2104 1.0879 -2.5121 0.9401
-15.2405 0.5443 -2.5123 0.9400
12.3977 0.0000 -2.3303 0.9508
12.4221 0.8885 -2.3408 0.9506
12.2548 2.2110 -2.3406 0.9506
11.9477 3.5082 -2.3405 0.9506
11.8148 3.9323 -2.3405 0.9506
11.3269 5.1728 -2.3405 0.9506
11.1352 5.5739 -2.3406 0.9506
10.9294 5.9679 -2.3406 0.9506
9.9700 7.4635 -2.3409 0.9506
9.1164 8.4877 -2.3412 0.9506
8.8081 8.8081 -2.3414 0.9506
8.4887 9.1175 -2.3415 0.9506
8.1584 9.4153 -2.3417 0.9506
7.8177 9.7011 -2.3418 0.9506
7.4670 9.9747 -2.3420 0.9506
6.3595 10.7184 -2.3426 0.9505
5.5797 11.1469 -2.3430 0.9505
4.7712 11.5188 -2.3435 0.9505
4.3575 11.6830 -2.3437 0.9505
0.8904 12.4492 -2.3459 0.9505
-3.0904 12.1079 -2.3488 0.9504
-3.5211 11.9916 -2.3491 0.9504
-4.3688 11.7131 -2.3498 0.9504
-4.7847 11.5514 -2.3501 0.9504
-7.5001 10.0189 -2.3524 0.9503
-8.2133 10.1921 -2.4603 0.9481
-8.7226 10.0664 -2.5036 0.9472
-9.0841 9.7570 -2.5057 0.9472
-9.4277 9.4277 -2.5060 0.9472
-10.0788 8.7333 -2.5067 0.9472
-10.6787 7.9940 -2.5073 0.9472
-12.1418 5.5450 -2.5089 0.9471
-12.5088 4.6655 -2.5094 0.9471
-13.0498 2.8388 -2.5102 0.9471
-13.1437 2.3714 -2.5104 0.9471
-13.2812 1.4279 -2.5107 0.9471
-13.3245 0.9530 -2.5109 0.9471
10.9653 1.5766 -2.3417 0.9557
10.7333 2.7395 -2.3415 0.9557
10.5104 3.4982 -2.3415 0.9557
10.3788 3.8711 -2.3415 0.9557
10.2341 4.2391 -2.3415 0.9557
10.0763 4.6017 -2.3415 0.9557
9.7226 5.3090 -2.3416 0.9557
9.3196 5.9893 -2.3417 0.9557
8.8691 6.6393 -2.3419 0.9557
8.6268 6.9519 -2.3419 0.9557
8.1096 7.5503 -2.3422 0.9557
7.5511 8.1105 -2.3424 0.9557
7.2572 8.3753 -2.3425 0.9557
6.9541 8.6295 -2.3427 0.9557
6.3216 9.1049 -2.3430 0.9557
5.3134 9.7307 -2.3435 0.9557
4.6065 10.0867 -2.3439 0.9557
3.8758 10.3915 -2.3444 0.9557
3.5028 10.5243 -2.3446 0.9557
1.6777 9.2987 -1.9973 0.9621
1.1864 11.0353 -2.3461 0.9556
-1.1873 11.0430 -2.3477 0.9556
-1.5808 10.9950 -2.3480 0.9556
-2.7481 10.7669 -2.3489 0.9556
-3.8847 10.4154 -2.3498 0.9556
-4.2545 10.2714 -2.3500 0.9556
-4.6190 10.1142 -2.3503 0.9556
-4.9708 9.1034 -2.1925 0.9585
-6.0144 9.3585 -2.3515 0.9555
-6.4305 9.2616 -2.3833 0.9549
-7.7606 8.9562 -2.5050 0.9527
-9.2326 7.4401 -2.5064 0.9527
-9.4933 7.1066 -2.5067 0.9527
-10.4122 5.6855 -2.5077 0.9527
-11.2610 3.7480 -2.5087 0.9526
-11.3885 3.3440 -2.5089 0.9526
-11.5014 2.9356 -2.5091 0.9526
-11.5997 2.5233 -2.5093 0.9526
-11.8668 0.4238 -2.5100 0.9526
10.5926 0.0000 -2.4895 0.9574
10.2682 0.3667 -2.4148 0.9587
9.9101 1.0654 -2.3425 0.9599
9.8655 1.4184 -2.3425 0.9599
9.4563 3.1474 -2.3423 0.9599
9.0658 4.1402 -2.3423 0.9599
8.7476 4.7765 -2.3424 0.9599
8.5717 5.0858 -2.3425 0.9599
8.3849 5.3886 -2.3425 0.9599
8.1874 5.6846 -2.3426 0.9599
7.9796 5.9734 -2.3426 0.9599
6.7936 7.2968 -2.3431 0.9599
6.2564 7.7637 -2.3434 0.9599
4.7801 8.7541 -2.3442 0.9598
4.4650 8.9198 -2.3443 0.9598
3.8178 9.2171 -2.3447 0.9598
1.6469 9.1283 -2.1800 0.9626
0.6462 9.0356 -2.1290 0.9635
0.3006 8.4156 -1.9791 0.9660
-0.0000 7.3437 -1.7259 0.9703
-0.8387 7.8008 -1.8439 0.9683
-1.1406 7.9330 -1.8836 0.9676
-2.1243 9.7651 -2.3487 0.9598
-2.8161 9.5908 -2.3492 0.9598
-3.4939 9.3676 -2.3497 0.9598
-4.4767 8.9434 -2.3505 0.9597
-4.7936 8.7789 -2.3508 0.9597
-5.1045 8.6032 -2.3511 0.9597
-6.9790 8.0542 -2.5047 0.9572
-7.2628 7.8008 -2.5050 0.9572
-8.3023 6.6904 -2.5060 0.9571
-8.7601 6.0823 -2.5064 0.9571
-8.9724 5.7662 -2.5066 0.9571
-9.3625 5.1123 -2.5071 0.9571
-9.5398 4.7753 -2.5073 0.9571
-9.8578 4.0832 -2.5077 0.9571
-10.1254 3.3701 -2.5080 0.9571
-10.2399 3.0067 -2.5082 0.9571
-10.3414 2.6395 -2.5084 0.9571
-10.4297 2.2688 -2.5085 0.9571
-10.6142 1.1411 -2.5089 0.9571
-10.6695 0.3811 -2.5092 0.9571
9.6218 0.3436 -2.4929 0.9610
8.9576 1.2879 -2.3431 0.9633
8.9058 1.6068 -2.3431 0.9633
8.7682 2.2380 -2.3430 0.9633
8.6827 2.5495 -2.3430 0.9633
8.2315 3.7592 -2.3430 0.9633
8.0922 4.0507 -2.3430 0.9633
7.9426 4.3370 -2.3431 0.9633
7.4339 5.1615 -2.3432 0.9633
7.2451 5.4236 -2.3433 0.9633
7.0472 5.6790 -2.3434 0.9633
6.8402 5.9271 -2.3434 0.9633
6.4005 6.4005 -2.3436 0.9633
5.4255 7.2476 -2.3441 0.9633
4.8952 7.6171 -2.3444 0.9633
4.6205 7.7875 -2.3445 0.9633
4.3399 7.9479 -2.3447 0.9633
4.0537 8.0983 -2.3448 0.9633
3.7624 8.2385 -2.3450 0.9633
3.1655 8.4871 -2.3453 0.9633
2.5524 8.6927 -2.3457 0.9633
2.2407 8.7790 -2.3459 0.9633
1.9261 8.8541 -2.3461 0.9633
1.6090 8.9180 -2.3463 0.9632
1.1981 8.3331 -2.1798 0.9658
0.8278 7.6995 -2.0050 0.9685
0.5064 7.0807 -1.8380 0.9711
0.2586 7.2404 -1.8759 0.9705
0.0000 7.3725 -1.9089 0.9700
-0.2682 7.5095 -1.9456 0.9694
-0.5473 7.6521 -1.9863 0.9688
-0.8387 7.8009 -2.0314 0.9681
-1.9283 8.8642 -2.3488 0.9632
-2.5563 8.7058 -2.3493 0.9632
-2.8657 8.6099 -2.3495 0.9632
-3.4733 8.3853 -2.3500 0.9632
-4.0635 8.1178 -2.3505 0.9632
-5.5150 7.9430 -2.5037 0.9608
-6.0687 7.5308 -2.5042 0.9608
-6.3343 7.3101 -2.5044 0.9608
-6.5918 7.0801 -2.5047 0.9608
-6.8409 6.8409 -2.5049 0.9608
-7.0814 6.5930 -2.5051 0.9608
-7.9503 5.5200 -2.5060 0.9608
-8.3252 4.9396 -2.5064 0.9608
-8.6577 4.3337 -2.5068 0.9608
-8.8075 4.0223 -2.5070 0.9608
-8.9461 3.7056 -2.5071 0.9608
-9.1889 3.0583 -2.5075 0.9608
-9.2927 2.7286 -2.5076 0.9608
-9.6321 1.0356 -2.5083 0.9608
-9.6633 0.6911 -2.5084 0.9608
8.8160 0.0000 -2.4958 0.9640
8.7505 0.9408 -2.4915 0.9641
8.2331 1.4854 -2.3684 0.9658
8.0214 2.0473 -2.3436 0.9662
7.9431 2.3323 -2.3436 0.9662
7.7565 2.8930 -2.3436 0.9662
7.6483 3.1680 -2.3436 0.9662
7.5304 3.4390 -2.3436 0.9662
7.1199 4.2244 -2.3437 0.9662
6.6280 4.9616 -2.3438 0.9662
5.8552 5.8552 -2.3441 0.9662
5.6427 6.0607 -2.3442 0.9662
5.4230 6.2585 -2.3443 0.9662
4.7236 6.8033 -2.3447 0.9662
4.4781 6.9680 -2.3448 0.9662
3.9700 7.2705 -2.3451 0.9661
2.6169 7.8626 -2.3459 0.9661
2.3348 7.9515 -2.3461 0.9661
2.0496 8.0304 -2.3462 0.9661
1.7618 8.0991 -2.3464 0.9661
1.1731 8.1592 -2.3336 0.9663
0.2586 7.2405 -2.0511 0.9703
-0.2682 7.5096 -2.1273 0.9692
-0.8254 7.6777 -2.1860 0.9684
-2.0521 8.0402 -2.3491 0.9661
-2.6210 7.8747 -2.3495 0.9661
-2.9006 7.7769 -2.3497 0.9661
-3.1767 7.6691 -2.3500 0.9661
-3.5230 7.7143 -2.4008 0.9654
-4.2323 7.7509 -2.5000 0.9640
-4.5118 7.6042 -2.5031 0.9639
-4.7808 7.4390 -2.5033 0.9639
-5.0437 7.2643 -2.5035 0.9639
-5.3002 7.0803 -2.5038 0.9639
-5.7928 6.6853 -2.5042 0.9639
-6.0283 6.4748 -2.5044 0.9639
-6.2561 6.2561 -2.5046 0.9639
-6.4759 6.0293 -2.5049 0.9639
-6.6875 5.7948 -2.5051 0.9639
-7.2704 5.0479 -2.5056 0.9639
-7.6131 4.5171 -2.5060 0.9639
-7.7700 4.2427 -2.5062 0.9639
-8.0540 3.6781 -2.5065 0.9639
-8.4975 2.4951 -2.5071 0.9639
-8.5816 2.1903 -2.5073 0.9639
-8.6548 1.8827 -2.5074 0.9638
-8.8076 0.9469 -2.5077 0.9638
-8.8362 0.6320 -2.5078 0.9638
-8.8534 0.3162 -2.5079 0.9638
8.1104 0.2897 -2.4962 0.9666
8.0279 1.1542 -2.4946 0.9666
7.9695 1.4379 -2.4908 0.9667
7.8077 1.6985 -2.4576 0.9671
7.4631 1.9048 -2.3691 0.9683
7.2310 2.4067 -2.3441 0.9686
7.1405 2.6633 -2.3441 0.9686
7.0409 2.9164 -2.3441 0.9686
6.5544 3.8889 -2.3442 0.9686
6.2605 4.3468 -2.3442 0.9686
6.1015 4.5676 -2.3443 0.9686
5.9348 4.7826 -2.3444 0.9686
5.5788 5.1941 -2.3445 0.9686
5.3901 5.3901 -2.3446 0.9686
4.1222 6.4143 -2.3452 0.9686
3.6545 6.6928 -2.3455 0.9686
3.4135 6.8194 -2.3456 0.9686
2.6655 7.1465 -2.3460 0.9686
2.1492 7.3194 -2.3463 0.9686
1.0860 7.5530 -2.3470 0.9686
0.7983 7.4254 -2.2971 0.9692
-0.0000 7.2403 -2.2270 0.9702
-0.5375 7.5149 -2.3173 0.9690
-0.8161 7.5912 -2.3483 0.9686
-1.0867 7.5578 -2.3485 0.9686
-1.6233 7.4623 -2.3489 0.9685
-1.8888 7.4002 -2.3491 0.9685
-2.1519 7.3287 -2.3493 0.9685
-2.7189 7.2897 -2.3930 0.9680
-3.0935 7.4684 -2.4864 0.9667
-4.1524 6.9986 -2.5030 0.9665
-5.1079 6.3385 -2.5038 0.9665
-5.5479 5.9589 -2.5042 0.9665
-6.1545 5.3329 -2.5048 0.9665
-6.8528 4.4040 -2.5055 0.9665
-7.0061 4.1569 -2.5057 0.9665
-7.2857 3.6470 -2.5060 0.9665
-7.8197 2.2961 -2.5067 0.9665
-7.8971 2.0156 -2.5068 0.9665
-7.9644 1.7325 -2.5070 0.9665
-8.0684 1.1601 -2.5072 0.9665
-8.1050 0.8714 -2.5073 0.9665
-8.1312 0.5816 -2.5074 0.9665
7.5109 0.0000 -2.4967 0.9688
7.4914 0.5358 -2.4965 0.9688
7.4673 0.8028 -2.4965 0.9688
7.3908 1.3334 -2.4964 0.9688
7.0976 2.0841 -2.4589 0.9693
6.5162 2.6991 -2.3445 0.9707
6.3071 3.1571 -2.3445 0.9707
6.1905 3.3802 -2.3445 0.9707
6.0660 3.5991 -2.3446 0.9707
5.9337 3.8134 -2.3446 0.9707
5.6468 4.2271 -2.3447 0.9707
5.4925 4.4261 -2.3448 0.9707
5.3311 4.6194 -2.3448 0.9707
4.9883 4.9883 -2.3450 0.9707
4.8072 5.1633 -2.3450 0.9707
4.4270 5.4936 -2.3452 0.9707
4.2283 5.6483 -2.3453 0.9707
4.0242 5.7959 -2.3454 0.9707
3.8149 5.9361 -2.3455 0.9707
2.9319 6.4199 -2.3460 0.9707
2.4667 6.6135 -2.3463 0.9707
2.2292 6.6978 -2.3464 0.9707
1.7460 6.8406 -2.3467 0.9707
1.5008 6.8990 -2.3469 0.9707
1.2537 6.9487 -2.3471 0.9707
0.7549 7.0214 -2.3474 0.9707
0.4996 6.9852 -2.3279 0.9709
0.2521 7.0583 -2.3477 0.9707
-0.2521 7.0594 -2.3481 0.9707
-1.0055 6.9936 -2.3486 0.9707
-1.2546 6.9538 -2.3488 0.9707
-1.5021 6.9051 -2.3490 0.9707
-2.0336 6.9257 -2.3993 0.9700
-2.3563 7.0796 -2.4802 0.9690
-2.8788 6.9500 -2.5005 0.9688
-3.6083 6.6081 -2.5027 0.9688
-4.0712 6.3349 -2.5031 0.9688
-4.5134 6.0292 -2.5035 0.9688
-4.7261 5.8647 -2.5037 0.9687
-4.9328 5.6927 -2.5039 0.9687
-5.1332 5.5134 -2.5040 0.9687
-5.3271 5.3271 -2.5042 0.9687
-5.5142 5.1339 -2.5044 0.9687
-5.6944 4.9342 -2.5046 0.9687
-5.8673 4.7281 -2.5048 0.9687
-6.0327 4.5160 -2.5049 0.9687
-6.1904 4.2981 -2.5051 0.9687
-6.3403 4.0747 -2.5052 0.9687
-6.6156 3.6124 -2.5056 0.9687
-6.7407 3.3742 -2.5057 0.9687
-6.8573 3.1316 -2.5058 0.9687
-7.0640 2.6347 -2.5061 0.9687
-7.3062 1.8648 -2.5065 0.9687
-7.4212 1.3389 -2.5067 0.9687
-7.4984 0.8062 -2.5069 0.9687
-7.5226 0.5380 -2.5070 0.9687
-7.5373 0.2692 -2.5070 0.9687
6.9110 0.9937 -2.4968 0.9708
6.7649 1.7267 -2.4967 0.9708
6.6918 1.9649 -2.4941 0.9708
6.6099 2.2000 -2.4912 0.9708
6.4774 2.4159 -2.4722 0.9711
6.2122 2.5732 -2.4046 0.9718
5.9663 2.7247 -2.3455 0.9725
5.8635 2.9351 -2.3449 0.9725
5.7551 3.1425 -2.3449 0.9725
5.5164 3.5452 -2.3450 0.9725
5.2496 3.9298 -2.3450 0.9725
5.1061 4.1148 -2.3451 0.9725
4.9561 4.2945 -2.3452 0.9725
4.6374 4.6374 -2.3453 0.9725
4.1155 5.1071 -2.3455 0.9725
3.5465 5.5184 -2.3458 0.9725
3.3474 5.6418 -2.3459 0.9725
2.5109 6.0620 -2.3464 0.9725
2.0723 6.2263 -2.3467 0.9725
1.8489 6.2967 -2.3468 0.9725
1.6231 6.3591 -2.3470 0.9725
1.3951 6.4133 -2.3471 0.9725
0.9342 6.4974 -2.3474 0.9725
0.7017 6.5270 -2.3475 0.9725
-0.7020 6.5297 -2.3485 0.9725
-0.9347 6.5009 -2.3487 0.9725
-1.1694 6.4814 -2.3552 0.9724
-1.9668 6.6984 -2.4965 0.9708
-2.6776 6.4642 -2.5021 0.9707
-2.9068 6.3650 -2.5023 0.9707
-3.1323 6.2576 -2.5025 0.9707
-3.5713 6.0191 -2.5028 0.9707
-3.7841 5.8882 -2.5030 0.9707
-3.9922 5.7498 -2.5032 0.9707
-4.1952 5.6041 -2.5034 0.9707
-4.5849 5.2912 -2.5037 0.9707
-5.4533 4.3946 -2.5046 0.9707
-5.6071 4.1974 -2.5047 0.9707
-5.7536 3.9948 -2.5049 0.9707
-5.8929 3.7871 -2.5050 0.9707
-6.0247 3.5746 -2.5052 0.9707
-6.2650 3.1360 -2.5054 0.9707
-6.3733 2.9106 -2.5056 0.9707
-6.4735 2.6814 -2.5057 0.9707
-6.6489 2.2130 -2.5059 0.9707
-6.7904 1.7331 -2.5061 0.9707
-6.8482 1.4897 -2.5062 0.9707
-6.8973 1.2444 -2.5063 0.9707
-6.9376 0.9975 -2.5064 0.9707
-6.9690 0.7492 -2.5065 0.9707
-6.9915 0.5000 -2.5066 0.9707
-7.0051 0.2502 -2.5067 0.9707
6.5125 0.2326 -2.4973 0.9725
6.4791 0.6966 -2.4972 0.9725
6.4127 1.1570 -2.4971 0.9725
6.3672 1.3851 -2.4971 0.9725
6.3137 1.6115 -2.4971 0.9725
6.0990 2.2748 -2.4945 0.9725
5.9099 2.6990 -2.4898 0.9726
5.2632 3.1228 -2.3452 0.9741
5.0271 3.4904 -2.3453 0.9741
4.6255 4.0080 -2.3455 0.9741
4.4796 4.1707 -2.3455 0.9741
4.1709 4.4799 -2.3457 0.9741
4.0085 4.6260 -2.3457 0.9741
3.8410 4.7663 -2.3458 0.9741
3.4914 5.0286 -2.3460 0.9741
3.1240 5.2653 -2.3462 0.9741
2.7407 5.4752 -2.3464 0.9741
2.1400 5.7377 -2.3467 0.9741
1.9340 5.8107 -2.3469 0.9741
1.5147 5.9345 -2.3471 0.9741
0.8718 6.0635 -2.3475 0.9741
0.6549 6.0911 -2.3477 0.9741
0.0000 6.1274 -2.3481 0.9741
-0.4372 6.1126 -2.3484 0.9741
-0.6675 6.2086 -2.3930 0.9736
-0.9093 6.3241 -2.4484 0.9730
-2.0616 6.1942 -2.5017 0.9724
-2.2816 6.1171 -2.5019 0.9724
-2.9230 5.8393 -2.5024 0.9724
-3.1297 5.7317 -2.5026 0.9724
-3.3325 5.6167 -2.5028 0.9724
-3.5311 5.4945 -2.5029 0.9724
-3.7252 5.3654 -2.5031 0.9724
-4.0991 5.0866 -2.5034 0.9724
-4.2783 4.9374 -2.5036 0.9724
-4.4521 4.7818 -2.5038 0.9724
-4.6202 4.6202 -2.5039 0.9724
-5.0885 4.1006 -2.5044 0.9724
-5.2319 3.9166 -2.5045 0.9724
-5.4986 3.5337 -2.5048 0.9724
-5.6216 3.3354 -2.5049 0.9724
-5.7373 3.1328 -2.5051 0.9724
-5.9468 2.7158 -2.5053 0.9724
-6.0402 2.5019 -2.5054 0.9724
-6.1259 2.2849 -2.5055 0.9724
-6.2739 1.8422 -2.5058 0.9724
-6.5234 0.4666 -2.5063 0.9724
6.0868 0.4353 -2.4975 0.9740
6.0673 0.6523 -2.4975 0.9740
6.0401 0.8684 -2.4975 0.9740
5.7897 1.9270 -2.4974 0.9740
5.7172 2.1324 -2.4974 0.9740
5.2157 3.0946 -2.4821 0.9741
5.0056 3.2169 -2.4353 0.9746
4.8016 3.3338 -2.3924 0.9751
4.6039 3.4465 -2.3537 0.9755
4.4626 3.5962 -2.3457 0.9755
4.1949 3.9056 -2.3458 0.9755
3.9058 4.1951 -2.3459 0.9755
3.7537 4.3320 -2.3460 0.9755
3.5968 4.4633 -2.3461 0.9755
3.0994 4.8228 -2.3463 0.9755
2.7477 5.0320 -2.3465 0.9755
2.5664 5.1271 -2.3466 0.9755
2.3819 5.2157 -2.3467 0.9755
2.0040 5.3728 -2.3469 0.9755
1.6157 5.5026 -2.3472 0.9755
1.4184 5.5571 -2.3473 0.9755
1.0184 5.6447 -2.3476 0.9755
0.8163 5.6778 -2.3477 0.9755
0.4093 5.7222 -2.3480 0.9755
0.2058 5.7611 -2.3594 0.9754
-0.2129 5.9605 -2.4410 0.9746
-1.0843 6.0100 -2.4994 0.9740
-1.7220 5.8647 -2.5016 0.9739
-1.9304 5.7998 -2.5018 0.9739
-2.7368 5.4675 -2.5024 0.9739
-2.9304 5.3667 -2.5026 0.9739
-4.0057 4.6228 -2.5035 0.9739
-4.1684 4.4772 -2.5036 0.9739
-4.6239 4.0066 -2.5041 0.9739
-4.7642 3.8393 -2.5042 0.9739
-4.8985 3.6670 -2.5043 0.9739
-5.1482 3.3085 -2.5046 0.9739
-5.4731 2.7397 -2.5050 0.9739
-5.7354 2.1392 -2.5053 0.9739
-5.8083 1.9332 -2.5054 0.9739
-5.8739 1.7247 -2.5055 0.9739
-5.9824 1.3014 -2.5057 0.9739
-6.0603 0.8713 -2.5059 0.9739
-6.0878 0.6545 -2.5059 0.9739
-6.1193 0.2185 -2.5061 0.9739
5.7315 0.0000 -2.4979 0.9753
5.6984 0.6126 -2.4978 0.9753
5.6728 0.8156 -2.4977 0.9753
5.6400 1.0176 -2.4977 0.9753
5.6001 1.2182 -2.4977 0.9753
5.4988 1.6146 -2.4977 0.9753
5.4377 1.8098 -2.4976 0.9753
5.0282 2.7456 -2.4968 0.9753
4.9235 2.9213 -2.4950 0.9753
4.8129 3.0931 -2.4934 0.9753
4.5745 3.4244 -2.4904 0.9754
3.5254 4.0685 -2.3462 0.9768
3.2264 4.3100 -2.3464 0.9768
2.9109 4.5295 -2.3465 0.9768
2.7475 4.6306 -2.3466 0.9768
2.5806 4.7259 -2.3467 0.9768
2.2370 4.8984 -2.3469 0.9768
1.8854 5.0551 -2.3513 0.9767
1.7008 5.1102 -2.3472 0.9768
1.1466 5.2710 -2.3509 0.9767
-0.0000 5.7238 -2.4945 0.9753
-0.6132 5.7037 -2.5001 0.9753
-1.2200 5.6082 -2.5013 0.9753
-1.4195 5.5614 -2.5015 0.9753
-2.0062 5.3788 -2.5019 0.9753
-2.5701 5.1344 -2.5024 0.9753
-2.7519 5.0397 -2.5025 0.9753
-2.9302 4.9386 -2.5027 0.9753
-3.2755 4.7175 -2.5030 0.9753
-3.6041 4.4724 -2.5033 0.9752
-3.7616 4.3411 -2.5034 0.9752
-3.9144 4.2043 -2.5035 0.9752
-4.3421 3.7624 -2.5039 0.9752
-4.4738 3.6052 -2.5041 0.9752
-4.5999 3.4434 -2.5042 0.9752
-4.7201 3.2772 -2.5043 0.9752
-4.8343 3.1068 -2.5044 0.9752
-4.9424 2.9324 -2.5046 0.9752
-5.0441 2.7543 -2.5047 0.9752
-5.1394 2.5726 -2.5048 0.9752
-5.2282 2.3876 -2.5049 0.9752
-5.3103 2.1996 -2.5050 0.9752
-5.3856 2.0087 -2.5051 0.9752
-5.4541 1.8153 -2.5052 0.9752
-5.5156 1.6195 -2.5053 0.9752
-5.5701 1.4217 -2.5054 0.9752
-5.6175 1.2220 -2.5055 0.9752
-5.6577 1.0208 -2.5055 0.9752
-5.7165 0.6146 -2.5057 0.9752
5.3969 0.0000 -2.4981 0.9765
5.3933 0.1926 -2.4981 0.9765
5.3829 0.3850 -2.4980 0.9765
5.3657 0.5769 -2.4980 0.9765
5.3416 0.7680 -2.4980 0.9765
5.3107 0.9582 -2.4979 0.9765
5.2731 1.1471 -2.4979 0.9765
4.9856 2.0651 -2.4979 0.9765
4.7364 2.5862 -2.4979 0.9765
4.4309 3.0764 -2.4969 0.9765
4.1958 3.3812 -2.4943 0.9765
3.3127 4.1108 -2.4438 0.9770
2.8152 4.3806 -2.4103 0.9773
1.9929 4.8113 -2.4106 0.9773
1.6583 4.9824 -2.4307 0.9771
1.4882 5.0685 -2.4452 0.9770
1.3158 5.1552 -2.4627 0.9768
0.7668 5.3330 -2.4939 0.9765
0.0000 5.3998 -2.4995 0.9765
-0.5775 5.3719 -2.5009 0.9765
-0.9594 5.3177 -2.5012 0.9765
-1.3365 5.2363 -2.5015 0.9765
-1.5226 5.1855 -2.5016 0.9765
-1.7068 5.1282 -2.5018 0.9765
-1.8889 5.0643 -2.5019 0.9765
-2.2456 4.9171 -2.5022 0.9765
-2.4198 4.8342 -2.5023 0.9765
-2.7588 4.6497 -2.5026 0.9765
-3.0838 4.4416 -2.5029 0.9764
-3.3932 4.2107 -2.5032 0.9764
-3.5415 4.0871 -2.5033 0.9764
-3.8245 3.8245 -2.5036 0.9764
-3.9587 3.6857 -2.5037 0.9764
-4.0880 3.5422 -2.5038 0.9764
-4.2120 3.3942 -2.5039 0.9764
-4.3307 3.2419 -2.5041 0.9764
-4.4438 3.0854 -2.5042 0.9764
-4.7488 2.5931 -2.5045 0.9764
-4.9994 2.0708 -2.5048 0.9764
-5.1927 1.5247 -2.5051 0.9764
-5.2440 1.3384 -2.5052 0.9764
-5.3264 0.9610 -2.5053 0.9764
-5.3817 0.5786 -2.5055 0.9764
-5.3990 0.3861 -2.5055 0.9764
-5.4095 0.1932 -2.5056 0.9764
5.0932 0.0000 -2.4983 0.9776
5.0899 0.1818 -2.4983 0.9776
5.0801 0.3633 -2.4983 0.9776
4.9346 1.2595 -2.4981 0.9776
4.8321 1.6083 -2.4981 0.9776
4.7717 1.7797 -2.4981 0.9776
4.7051 1.9489 -2.4981 0.9776
4.2845 2.7535 -2.4982 0.9776
4.0772 3.0522 -2.4983 0.9776
3.7257 3.4687 -2.4970 0.9776
3.5982 3.5983 -2.4961 0.9776
3.4665 3.7232 -2.4954 0.9776
3.0466 4.0697 -2.4937 0.9776
2.8990 4.1753 -2.4934 0.9776
2.7479 4.2757 -2.4931 0.9776
2.1115 4.6235 -2.4933 0.9776
1.9454 4.6965 -2.4936 0.9776
1.6060 4.8252 -2.4945 0.9776
1.0819 4.9736 -2.4967 0.9776
0.9041 5.0110 -2.4977 0.9776
0.0000 5.0978 -2.5006 0.9775
-0.1820 5.0948 -2.5007 0.9775
-0.3637 5.0853 -2.5008 0.9775
-0.5450 5.0694 -2.5010 0.9775
-0.9054 5.0181 -2.5012 0.9775
-1.0840 4.9829 -2.5014 0.9775
-1.2612 4.9413 -2.5015 0.9775
-1.4368 4.8934 -2.5016 0.9775
-1.7824 4.7789 -2.5019 0.9775
-2.1191 4.6401 -2.5022 0.9775
-2.4449 4.4775 -2.5024 0.9775
-2.6033 4.3877 -2.5026 0.9775
-2.9100 4.1912 -2.5028 0.9775
-3.0579 4.0849 -2.5030 0.9775
-3.2019 3.9733 -2.5031 0.9775
-3.3419 3.8567 -2.5032 0.9775
-3.6088 3.6088 -2.5035 0.9775
-3.9745 3.2028 -2.5038 0.9775
-4.0865 3.0591 -2.5039 0.9775
-4.2947 2.7600 -2.5042 0.9775
-4.3906 2.6051 -2.5043 0.9775
-4.4810 2.4468 -2.5044 0.9775
-4.5656 2.2854 -2.5045 0.9775
-4.6445 2.1211 -2.5046 0.9775
-4.7843 1.7845 -2.5047 0.9775
-4.8451 1.6126 -2.5048 0.9775
-5.0259 0.9068 -2.5051 0.9775
-5.0552 0.7268 -2.5052 0.9775
-5.0781 0.5459 -2.5053 0.9775
-5.0944 0.3644 -2.5053 0.9775
-5.1043 0.1823 -2.5054 0.9775
4.8162 -0.0000 -2.4985 0.9785
4.8130 0.1719 -2.4985 0.9785
4.8038 0.3436 -2.4985 0.9785
4.7669 0.6854 -2.4984 0.9785
4.5693 1.5208 -2.4983 0.9785
4.5121 1.6829 -2.4983 0.9785
4.4492 1.8429 -2.4983 0.9785
4.3806 2.0006 -2.4983 0.9785
4.1417 2.4574 -2.4984 0.9785
3.2821 3.5252 -2.4987 0.9785
2.8860 3.8553 -2.4983 0.9785
2.7462 3.9553 -2.4980 0.9785
2.6031 4.0504 -2.4978 0.9785
2.4567 4.1406 -2.4977 0.9785
2.3073 4.2256 -2.4977 0.9785
2.1551 4.3054 -2.4977 0.9785
1.5213 4.5708 -2.4991 0.9785
1.1917 4.6691 -2.4999 0.9785
1.0243 4.7088 -2.5000 0.9785
0.8557 4.7426 -2.5001 0.9785
0.5152 4.7920 -2.5003 0.9785
0.3438 4.8075 -2.5004 0.9785
-0.1721 4.8174 -2.5008 0.9785
-0.3439 4.8085 -2.5009 0.9785
-0.5153 4.7934 -2.5010 0.9785
-1.0249 4.7115 -2.5014 0.9785
-1.3586 4.6269 -2.5017 0.9785
-1.6854 4.5186 -2.5019 0.9785
-1.8457 4.4558 -2.5020 0.9785
-2.0036 4.3873 -2.5022 0.9785
-2.1590 4.3132 -2.5023 0.9785
-2.3117 4.2336 -2.5024 0.9785
-2.4615 4.1486 -2.5025 0.9785
-3.2880 3.5316 -2.5033 0.9785
-3.4122 3.4122 -2.5034 0.9785
-3.6472 3.1603 -2.5036 0.9785
-4.0605 2.6096 -2.5040 0.9785
-4.1513 2.4631 -2.5041 0.9785
-4.2367 2.3134 -2.5042 0.9785
-4.4602 1.8475 -2.5045 0.9785
-4.5234 1.6872 -2.5046 0.9785
-4.6783 1.1941 -2.5048 0.9785
-4.7181 1.0264 -2.5049 0.9785
-4.7518 0.8573 -2.5050 0.9785
-4.8011 0.5162 -2.5051 0.9785
-4.8166 0.3445 -2.5051 0.9785
-4.8259 0.1724 -2.5052 0.9785
4.5592 0.1628 -2.4987 0.9794
4.5504 0.3254 -2.4986 0.9794
4.5358 0.4876 -2.4986 0.9794
4.4894 0.8100 -2.4986 0.9794
4.4576 0.9697 -2.4985 0.9794
4.4201 1.1282 -2.4985 0.9794
4.3770 1.2852 -2.4985 0.9794
4.3283 1.4406 -2.4985 0.9794
4.1496 1.8950 -2.4985 0.9794
4.0038 2.1863 -2.4985 0.9794
3.8377 2.4664 -2.4986 0.9794
3.5523 2.8626 -2.4987 0.9794
3.2261 3.2261 -2.4988 0.9794
2.9878 3.4482 -2.4989 0.9794
2.7344 3.6527 -2.4991 0.9794
2.4670 3.8387 -2.4992 0.9794
2.3285 3.9244 -2.4993 0.9794
1.8958 4.1512 -2.4995 0.9794
1.7465 4.2164 -2.4996 0.9794
1.4414 4.3306 -2.4998 0.9794
1.1288 4.4227 -2.5000 0.9794
0.8105 4.4923 -2.5002 0.9794
0.4880 4.5391 -2.5004 0.9794
0.3257 4.5538 -2.5005 0.9794
0.1630 4.5627 -2.5006 0.9794
0.0000 4.5658 -2.5007 0.9794
-0.3258 4.5546 -2.5010 0.9794
-0.9708 4.4627 -2.5014 0.9794
-1.4425 4.3340 -2.5018 0.9794
-1.8978 4.1556 -2.5021 0.9794
-2.4704 3.8439 -2.5026 0.9794
-2.9928 3.4539 -2.5031 0.9794
-3.3453 3.1146 -2.5034 0.9794
-3.4545 2.9933 -2.5035 0.9794
-3.5593 2.8682 -2.5036 0.9794
-3.8459 2.4716 -2.5039 0.9794
-4.0128 2.1911 -2.5041 0.9794
-4.0886 2.0466 -2.5042 0.9794
-4.1591 1.8994 -2.5043 0.9794
-4.2843 1.5980 -2.5044 0.9794
-4.3877 1.2883 -2.5046 0.9794
-4.4686 0.9721 -2.5047 0.9794
-4.5619 0.3263 -2.5050 0.9794
4.3282 0.0000 -2.4989 0.9802
4.3253 0.1545 -2.4988 0.9802
4.3032 0.4626 -2.4988 0.9802
4.2839 0.6159 -2.4987 0.9802
4.2592 0.7684 -2.4987 0.9802
4.1934 1.0703 -2.4987 0.9802
4.1525 1.2193 -2.4987 0.9802
4.1064 1.3667 -2.4987 0.9802
4.0550 1.5124 -2.4987 0.9802
3.9368 1.7979 -2.4987 0.9802
3.8701 1.9372 -2.4987 0.9802
3.7985 2.0741 -2.4987 0.9802
3.7221 2.2084 -2.4987 0.9802
3.5551 2.4684 -2.4988 0.9802
3.4648 2.5937 -2.4988 0.9802
3.3701 2.7158 -2.4989 0.9802
3.2710 2.8344 -2.4989 0.9802
2.9495 3.1680 -2.4990 0.9802
2.7161 3.3705 -2.4991 0.9802
2.4688 3.5558 -2.4993 0.9802
2.2090 3.7231 -2.4994 0.9802
2.0748 3.7997 -2.4995 0.9802
1.9379 3.8714 -2.4996 0.9802
1.6569 4.0001 -2.4997 0.9802
1.3674 4.1084 -2.4999 0.9802
1.0709 4.1958 -2.5001 0.9802
0.9205 4.2315 -2.5002 0.9802
0.6163 4.2867 -2.5004 0.9802
0.4630 4.3061 -2.5005 0.9802
0.3090 4.3201 -2.5006 0.9802
0.1546 4.3285 -2.5007 0.9802
0.0000 4.3315 -2.5008 0.9802
-1.0715 4.1982 -2.5016 0.9802
-1.2208 4.1575 -2.5017 0.9802
-1.8003 3.9422 -2.5021 0.9802
-1.9400 3.8756 -2.5022 0.9802
-2.2117 3.7276 -2.5025 0.9802
-2.4722 3.5607 -2.5027 0.9802
-2.5979 3.4703 -2.5028 0.9802
-2.7202 3.3755 -2.5029 0.9802
-2.9543 3.1732 -2.5031 0.9802
-3.2770 2.8395 -2.5034 0.9802
-3.4715 2.5987 -2.5036 0.9802
-3.5622 2.4732 -2.5037 0.9802
-3.7298 2.2130 -2.5039 0.9802
-3.8065 2.0785 -2.5040 0.9802
-3.8784 1.9414 -2.5041 0.9802
-3.9454 1.8018 -2.5042 0.9802
-4.1157 1.3698 -2.5044 0.9802
-4.1621 1.2221 -2.5045 0.9802
-4.2032 1.0728 -2.5045 0.9802
-4.2941 0.6174 -2.5047 0.9802
-4.3274 0.3095 -2.5048 0.9802
