ply
format ascii 1.0
element vertex 1376
property float32 x
property float32 y
property float32 z
property float32 I
end_header
35.5891 14.7415 6.7924 0.8552
32.1209 14.6692 6.2265 0.8664
30.0316 15.0328 5.9218 0.8725
26.6772 15.8283 5.4696 0.8816
24.3610 15.6559 5.1061 0.8890
21.8524 16.3585 4.8132 0.8951
19.9069 16.0420 4.5080 0.9014
15.8992 17.0770 4.1142 0.9096
14.8408 17.1272 3.9960 0.9121
12.1592 17.5125 3.7593 0.9170
9.7400 17.8375 3.5836 0.9208
8.7371 17.4545 3.4418 0.9238
7.4127 17.8959 3.4155 0.9243
7.2118 24.5613 4.5136 0.9013
6.2795 24.6030 4.4772 0.9020
4.0347 18.5472 3.3469 0.9258
1.7189 9.5273 1.7070 0.9614
1.3740 9.5561 1.7023 0.9615
1.3352 18.6684 3.3001 0.9268
-0.0000 25.2939 4.4600 0.9024
-1.3795 19.2872 3.4095 0.9245
-2.6903 18.7117 3.3333 0.9261
-4.9879 19.5424 3.5563 0.9213
-7.3310 19.6552 3.6990 0.9183
-8.1418 19.6561 3.7515 0.9172
-9.9378 19.8532 3.9147 0.9138
-10.9500 20.0535 4.0288 0.9114
-11.9610 20.1591 4.1332 0.9092
-13.9250 20.0558 4.3053 0.9056
-16.5903 20.5873 4.6621 0.8982
-17.9713 20.7400 4.8389 0.8945
-24.7995 21.4889 5.7861 0.8752
-26.2719 21.1712 5.9494 0.8719
-22.9998 10.5037 4.4593 0.9024
42.1429 14.0265 6.8042 0.8355
21.3104 7.9484 3.4843 0.9121
35.6998 14.7873 5.9196 0.8552
25.9200 15.3791 4.6171 0.8852
24.3243 15.6323 4.4295 0.8896
18.8589 16.3413 3.8228 0.9040
18.0558 16.8105 3.7793 0.9050
17.2160 17.2160 3.7298 0.9062
20.9647 22.5177 4.7132 0.8829
14.8612 17.1507 3.4765 0.9123
13.6317 16.9159 3.3281 0.9158
12.9743 17.3317 3.3166 0.9161
12.2492 17.6423 3.2903 0.9168
15.0115 23.3584 4.2536 0.8937
13.9297 23.4773 4.1820 0.8954
13.0593 23.9164 4.1745 0.8956
8.7369 17.4541 2.9902 0.9241
8.0076 17.5343 2.9530 0.9250
7.4124 17.8951 2.9673 0.9246
6.7886 18.2009 2.9759 0.9244
8.1323 24.4336 3.9450 0.9010
6.3521 24.8874 3.9348 0.9013
1.3747 9.5614 1.4798 0.9617
0.9090 25.4509 3.9014 0.9021
-0.9111 25.5094 3.9104 0.9019
-1.8278 25.5557 3.9250 0.9015
-2.6903 18.7112 2.8959 0.9264
-3.3898 18.7882 2.9247 0.9257
-7.3865 19.8040 3.2380 0.9180
-8.1413 19.6548 3.2591 0.9175
-8.8371 19.3504 3.2589 0.9175
-14.4214 26.4109 4.6099 0.8854
-13.9253 20.0562 3.7405 0.9059
-15.0235 20.0691 3.8405 0.9035
-18.0231 20.7998 4.2162 0.8946
-19.4611 20.9027 4.3752 0.8909
-22.8488 21.2730 4.7825 0.8813
-24.7985 21.4880 5.0268 0.8757
-26.3467 21.2316 5.1836 0.8720
41.4057 13.7811 5.6827 0.8386
21.3040 7.9460 2.9609 0.9124
35.6992 14.7871 5.0318 0.8557
33.1076 15.1197 4.7396 0.8635
30.0645 15.0492 4.3781 0.8732
28.6415 15.6395 4.2495 0.8767
23.4620 16.2900 3.7195 0.8912
29.5315 22.1070 4.8038 0.8617
22.9053 22.9053 4.2182 0.8775
21.4116 22.9977 4.0918 0.8810
13.8870 16.0265 2.7615 0.9180
13.9294 23.4768 3.5548 0.8957
8.0075 17.5339 2.5101 0.9252
6.8013 18.2349 2.5344 0.9245
5.4692 18.6262 2.5279 0.9247
6.4656 25.3321 3.4045 0.8999
1.9566 18.1995 2.3836 0.9288
0.9217 25.8072 3.3628 0.9011
-0.0000 26.0434 3.3914 0.9003
-0.9174 25.6866 3.3471 0.9015
-2.0557 19.1202 2.5042 0.9254
-2.6902 18.7108 2.4616 0.9266
-4.1941 19.2798 2.5693 0.9235
-6.6899 26.2109 3.5226 0.8966
-8.1299 19.6273 2.7665 0.9179
-13.9256 20.0566 3.1796 0.9062
-18.2742 21.0895 3.6339 0.8935
-19.4596 20.9011 3.7188 0.8912
-20.6891 20.6891 3.8101 0.8887
-23.0188 21.4312 4.0956 0.8809
-24.7948 21.4848 4.2723 0.8760
-26.3740 21.2535 4.4108 0.8723
-22.9919 10.5001 3.2915 0.9031
45.7807 4.9220 4.9443 0.8309
46.4840 13.6489 5.2023 0.8229
41.2290 13.7223 4.6660 0.8396
21.2977 7.9436 2.4409 0.9126
33.4879 15.2934 3.9532 0.8623
30.1611 15.0976 3.6219 0.8731
28.9772 15.8228 3.5453 0.8756
25.2780 14.9981 3.1562 0.8885
24.4665 15.7236 3.1230 0.8896
23.6446 16.4167 3.0910 0.8907
20.1067 16.2030 2.7729 0.9013
18.2043 16.9488 2.6709 0.9048
23.3408 23.3408 3.5445 0.8756
13.6310 16.9150 2.3327 0.9163
12.8395 17.1516 2.3006 0.9174
11.9606 17.2266 2.2520 0.9191
15.0108 23.3572 2.9814 0.8943
7.3249 24.9462 2.7919 0.9007
6.4655 25.3315 2.8073 0.9002
1.3766 9.5741 1.0387 0.9618
0.6616 18.5256 1.9906 0.9281
-2.0247 18.8322 2.0339 0.9266
-2.6902 18.7104 2.0298 0.9268
-3.3896 18.7874 2.0500 0.9261
-4.1491 19.0732 2.0960 0.9245
-4.8848 19.1386 2.1210 0.9236
-8.6401 25.9593 2.9379 0.8958
-7.2167 19.3488 2.2175 0.9203
-8.0571 19.4516 2.2608 0.9188
-9.9862 19.9499 2.3957 0.9142
-16.5315 27.8623 3.4789 0.8778
-13.1534 20.4671 2.6125 0.9068
-18.5050 21.3559 3.0344 0.8925
-19.4059 20.8434 3.0581 0.8917
-25.3078 23.5624 3.7131 0.8701
-22.9882 10.4984 2.7137 0.9033
41.5850 13.8408 3.7101 0.8387
21.2914 7.9413 1.9237 0.9128
35.7848 14.8226 3.2789 0.8560
29.2381 15.9653 2.8200 0.8748
24.4656 15.7231 2.4619 0.8898
23.7215 16.4702 2.4447 0.8905
22.3471 16.7289 2.3631 0.8940
20.1060 16.2025 2.1859 0.9015
17.8687 16.6364 2.0667 0.9066
21.5999 23.1999 2.6834 0.8805
12.0955 17.4209 1.7953 0.9184
15.0104 23.3567 2.3503 0.8945
8.7363 17.4529 1.6522 0.9246
6.6964 17.9536 1.6221 0.9260
8.0951 24.3220 2.1700 0.9022
7.1662 24.4059 2.1532 0.9029
6.3862 25.0208 2.1860 0.9015
1.3775 9.5805 0.8194 0.9619
1.9566 18.1987 1.5494 0.9292
1.3267 18.5503 1.5743 0.9281
0.9151 25.6228 2.1704 0.9022
0.0000 25.7234 2.1776 0.9019
-0.9034 25.2937 2.1425 0.9034
-1.4334 20.0409 1.7009 0.9225
-2.0339 18.9179 1.6107 0.9265
-2.6901 18.7100 1.6001 0.9269
-3.3895 18.7869 1.6160 0.9262
-4.1677 19.1588 1.6598 0.9243
-8.6399 25.9587 2.3160 0.8960
-7.2677 19.4854 1.7605 0.9199
-8.1170 19.5961 1.7955 0.9184
-12.6815 21.3735 2.1038 0.9050
-12.8620 20.0136 2.0139 0.9089
-20.2146 20.2146 2.4200 0.8916
-17.7559 11.4110 1.7867 0.9188
45.7111 4.9145 2.8509 0.8317
41.5828 13.8401 2.7177 0.8389
25.2856 15.0027 1.8232 0.8888
24.4648 15.7225 1.8034 0.8900
30.0145 22.4686 2.3249 0.8605
20.1054 16.2020 1.6012 0.9017
17.8918 17.8919 1.5690 0.9036
21.2862 22.8630 1.9371 0.8823
13.8756 16.0133 1.3139 0.9186
9.6253 17.6274 1.2454 0.9227
8.7361 17.4525 1.2103 0.9248
7.4094 17.8878 1.2006 0.9253
7.1903 24.4881 1.5826 0.9028
6.4193 25.1504 1.6096 0.9012
3.9698 18.2489 1.1581 0.9279
1.9565 18.1983 1.1350 0.9293
0.9199 25.7555 1.5981 0.9019
-0.9064 25.3788 1.5747 0.9032
-2.0337 18.9161 1.1798 0.9266
-2.6900 18.7095 1.1721 0.9270
-4.9065 19.2235 1.2303 0.9236
-8.6397 25.9580 1.6965 0.8962
-12.9212 20.1058 1.4820 0.9087
-13.9263 20.0577 1.5142 0.9068
-15.0217 20.0667 1.5544 0.9044
-19.3989 20.8358 1.7653 0.8922
-17.7635 11.4159 1.3094 0.9189
46.3553 13.6111 1.9050 0.8242
41.5807 13.8394 1.7280 0.8391
21.2789 7.9366 0.8955 0.9131
34.9118 15.9437 1.5134 0.8576
30.1575 15.0958 1.3298 0.8737
26.5699 15.7647 1.2182 0.8837
29.8871 22.3732 1.4721 0.8612
18.8560 16.3388 0.9838 0.9049
17.8926 17.8926 0.9978 0.9037
21.3551 22.9371 1.2357 0.8821
14.7896 17.0681 0.8905 0.9136
15.0097 23.3555 1.0947 0.8948
13.9280 23.4745 1.0763 0.8965
9.6243 17.6257 0.7919 0.9228
8.7359 17.4521 0.7695 0.9248
8.0067 17.5323 0.7600 0.9257
8.1218 24.4020 1.0141 0.9022
1.7161 9.5115 0.3811 0.9620
1.3793 9.5931 0.3822 0.9619
1.9565 18.1979 0.7217 0.9294
0.9290 26.0125 1.0264 0.9010
0.0000 26.1147 1.0297 0.9007
-0.9063 25.3765 1.0013 0.9033
-1.4340 20.0500 0.7926 0.9227
-2.0335 18.9144 0.7501 0.9267
-2.6900 18.7091 0.7453 0.9271
-3.3894 18.7861 0.7527 0.9264
-4.9060 19.2217 0.7822 0.9237
-7.5878 25.8417 1.0620 0.8978
-8.6395 25.9574 1.0787 0.8963
-7.2662 19.4814 0.8199 0.9201
-8.1153 19.5920 0.8362 0.9186
-8.8539 19.3874 0.8404 0.9182
-9.9039 19.7855 0.8724 0.9152
-16.5768 27.9387 1.2810 0.8781
-18.5420 21.3986 1.1165 0.8928
-24.6966 21.3997 1.2885 0.8774
-26.4583 21.3214 1.3399 0.8728
46.4479 13.6383 0.8177 0.8239
41.5785 13.8386 0.7402 0.8392
34.9128 15.9442 0.6483 0.8577
29.1838 15.9356 0.5617 0.8754
26.5660 15.7624 0.5218 0.8838
24.4631 15.7215 0.4912 0.8902
23.4661 16.2928 0.4826 0.8920
29.8882 22.3740 0.6307 0.8613
18.8555 16.3383 0.4215 0.9050
17.8933 17.8933 0.4275 0.9037
14.7880 17.0663 0.3815 0.9136
12.0979 17.4244 0.3583 0.9186
15.0093 23.3549 0.4690 0.8949
13.9277 23.4739 0.4610 0.8966
8.7357 17.4516 0.3297 0.9249
7.4080 17.8844 0.3270 0.9255
7.1890 24.4836 0.4310 0.9030
1.3264 18.5453 0.3141 0.9283
-0.0000 26.1141 0.4411 0.9008
-0.9062 25.3741 0.4289 0.9034
-2.0333 18.9126 0.3213 0.9267
-2.6899 18.7087 0.3193 0.9272
-3.3893 18.7856 0.3224 0.9265
-7.5876 25.8411 0.4549 0.8979
-7.2654 19.4794 0.3512 0.9202
-9.9029 19.7834 0.3737 0.9153
-14.5273 26.6046 0.5120 0.8858
-13.9269 20.0585 0.4125 0.9069
-19.3934 20.8300 0.4808 0.8924
-20.6855 20.6855 0.4941 0.8896
-25.0726 23.3434 0.5787 0.8719
-26.4572 21.3205 0.5740 0.8729
-17.7788 11.4257 0.3570 0.9189
-22.9758 10.4927 0.4267 0.9039
45.6078 4.9034 -0.2583 0.8324
35.6614 14.7714 -0.2173 0.8569
30.1550 15.0946 -0.1899 0.8738
23.4671 16.2935 -0.1608 0.8920
29.8893 22.3749 -0.2102 0.8613
18.8549 16.3379 -0.1405 0.9050
13.6292 16.9128 -0.1223 0.9168
12.9297 17.2721 -0.1215 0.9173
12.0988 17.4255 -0.1194 0.9186
15.0089 23.3544 -0.1563 0.8949
13.9274 23.4734 -0.1537 0.8966
9.6225 17.6223 -0.1130 0.9228
8.0064 17.5315 -0.1085 0.9258
7.4073 17.8828 -0.1090 0.9255
6.6939 17.9469 -0.1078 0.9262
8.1203 24.3975 -0.1448 0.9023
6.4830 25.4003 -0.1476 0.9005
2.1354 9.8162 -0.0566 0.9606
1.7151 9.5064 -0.0544 0.9621
1.3811 9.6056 -0.0546 0.9619
1.3263 18.5437 -0.1047 0.9283
0.9290 26.0113 -0.1465 0.9011
-0.0000 26.1135 -0.1470 0.9008
-0.9062 25.3718 -0.1429 0.9034
-2.0331 18.9109 -0.1071 0.9267
-8.6390 25.9562 -0.1540 0.8963
-7.2647 19.4774 -0.1170 0.9202
-8.1136 19.5879 -0.1194 0.9187
-8.8535 19.3864 -0.1200 0.9183
-9.9018 19.7813 -0.1245 0.9153
-14.5269 26.6039 -0.1706 0.8858
-13.9271 20.0589 -0.1375 0.9069
-15.0204 20.0649 -0.1411 0.9046
-18.5444 21.4013 -0.1594 0.8929
-19.3906 20.8270 -0.1602 0.8924
-20.6847 20.6847 -0.1647 0.8896
-24.6885 21.3927 -0.1839 0.8775
-26.4561 21.3197 -0.1913 0.8729
-22.9725 10.4912 -0.1422 0.9039
21.2602 7.9296 -0.6389 0.9132
35.6545 14.7686 -1.0867 0.8569
30.1538 15.0940 -0.9495 0.8738
29.1857 15.9366 -0.9363 0.8754
26.5583 15.7577 -0.8696 0.8838
23.4680 16.2942 -0.8045 0.8920
20.1029 16.2000 -0.7270 0.9018
18.8543 16.3374 -0.7025 0.9050
17.8948 17.8948 -0.7126 0.9037
12.0996 17.4267 -0.5974 0.9186
15.0086 23.3538 -0.7817 0.8949
13.9271 23.4728 -0.7685 0.8965
9.6215 17.6206 -0.5653 0.9228
8.0062 17.5311 -0.5427 0.9258
7.4066 17.8811 -0.5450 0.9255
7.1877 24.4791 -0.7184 0.9029
1.3820 9.6119 -0.2734 0.9619
1.3261 18.5420 -0.5234 0.9283
0.0000 26.1130 -0.7353 0.9008
-0.9061 25.3695 -0.7148 0.9034
-1.4350 20.0636 -0.5664 0.9227
-2.0329 18.9091 -0.5355 0.9267
-3.3892 18.7848 -0.5375 0.9265
-7.2639 19.4754 -0.5853 0.9202
-12.9151 20.0963 -0.6726 0.9088
-19.3879 20.8241 -0.8012 0.8924
-25.0691 23.3402 -0.9645 0.8719
-24.6845 21.3892 -0.9197 0.8775
-17.7940 11.4355 -0.5956 0.9188
-22.9691 10.4896 -0.7110 0.9039
46.8608 3.3516 -2.3826 0.8285
46.5575 6.6940 -2.3854 0.8283
46.3150 8.3562 -2.3867 0.8282
45.2272 13.2799 -2.3905 0.8280
35.5319 14.7178 -1.9504 0.8572
34.8576 15.9190 -1.9434 0.8577
29.1225 15.9021 -1.6828 0.8756
26.5544 15.7554 -1.5659 0.8837
24.4605 15.7198 -1.4745 0.8901
23.4690 16.2948 -1.4490 0.8919
29.8257 22.3272 -1.8895 0.8614
18.8538 16.3369 -1.2652 0.9049
17.8955 17.8955 -1.2835 0.9036
21.3457 22.9269 -1.5886 0.8821
14.7832 17.0607 -1.1449 0.9136
12.9270 17.2685 -1.0940 0.9172
9.6206 17.6189 -1.0181 0.9227
7.4059 17.8794 -0.9814 0.9254
6.6926 17.9436 -0.9712 0.9262
7.1870 24.4768 -1.2937 0.9029
2.1229 9.7590 -0.5065 0.9608
1.7142 9.5012 -0.4896 0.9621
1.9563 18.1963 -0.9281 0.9293
1.3260 18.5403 -0.9427 0.9283
0.9290 26.0102 -1.3199 0.9010
-1.4353 20.0682 -1.0203 0.9226
-2.6897 18.7074 -0.9585 0.9271
-4.1654 19.1480 -0.9938 0.9245
-8.1119 19.5839 -1.0750 0.9186
-9.8997 19.7772 -1.1216 0.9152
-14.5261 26.6025 -1.5371 0.8857
-13.9276 20.0596 -1.2385 0.9068
-15.0195 20.0637 -1.2710 0.9045
-29.2385 36.2828 -2.3632 0.8298
-18.5467 21.4040 -1.4363 0.8928
-19.3852 20.8211 -1.4427 0.8923
-20.6833 20.6833 -1.4834 0.8894
-24.6046 21.3200 -1.6511 0.8777
-26.4539 21.3179 -1.7230 0.8728
-39.5053 29.5733 -2.5027 0.8207
-40.5039 28.1223 -2.5007 0.8208
-42.3409 25.1220 -2.4968 0.8210
-45.3453 18.7827 -2.4891 0.8215
-45.9521 17.1393 -2.4872 0.8217
-47.7834 10.3946 -2.4800 0.8221
-48.0899 8.6764 -2.4782 0.8222
-48.3354 6.9496 -2.4765 0.8224
-48.5196 5.2164 -2.4748 0.8225
34.4194 0.0000 -2.5237 0.8711
34.4126 1.2291 -2.5248 0.8710
34.3614 2.4576 -2.5259 0.8710
32.0500 4.6081 -2.3741 0.8782
31.1136 9.1358 -2.3776 0.8780
21.2477 7.9250 -1.6628 0.9131
28.5101 15.5677 -2.3818 0.8778
24.4597 15.7193 -2.1319 0.8899
23.4056 16.2508 -2.0892 0.8920
26.0254 19.4824 -2.3837 0.8778
18.8532 16.3364 -1.8291 0.9048
17.8360 17.8361 -1.8495 0.9038
21.2953 22.8728 -2.2914 0.8822
14.7361 17.0063 -1.6499 0.9137
13.6281 16.9115 -1.5925 0.9166
15.0078 23.3527 -2.0354 0.8946
9.6197 17.6171 -1.4718 0.9227
7.4052 17.8777 -1.4188 0.9253
8.0989 24.3333 -1.8804 0.9023
7.1705 24.4203 -1.8661 0.9030
6.4826 25.3986 -1.9220 0.9002
2.1168 9.7306 -0.7302 0.9608
1.3838 9.6246 -0.7130 0.9618
1.9563 18.1959 -1.3418 0.9292
0.0000 26.1118 -1.9146 0.9006
-1.4356 20.0727 -1.4755 0.9225
-3.3890 18.7839 -1.3995 0.9263
-4.1650 19.1462 -1.4367 0.9244
-4.9037 19.2125 -1.4539 0.9236
-7.5869 25.8386 -1.9745 0.8976
-8.1111 19.5818 -1.5541 0.9185
-8.8528 19.3849 -1.5626 0.9181
-9.8987 19.7751 -1.6215 0.9151
-12.8731 20.0310 -1.7459 0.9089
-13.9279 20.0600 -1.7906 0.9067
-15.0190 20.0630 -1.8376 0.9044
-20.1864 25.0497 -2.3589 0.8789
-18.4975 21.3472 -2.0711 0.8929
-19.3204 20.7516 -2.0789 0.8925
-24.9696 20.1218 -2.3513 0.8793
-25.6580 19.2073 -2.3500 0.8794
-17.8093 11.4453 -1.5522 0.9186
-27.5195 16.3281 -2.3462 0.8796
-28.0697 15.3272 -2.3450 0.8796
-28.5836 14.3079 -2.3437 0.8797
-29.5003 12.2194 -2.3412 0.8798
-32.2261 10.7259 -2.4903 0.8726
-32.5717 9.5639 -2.4891 0.8727
-33.3575 6.0184 -2.4853 0.8729
-33.5349 4.8216 -2.4841 0.8729
26.2321 0.0000 -2.5184 0.9000
26.2242 0.9366 -2.5193 0.8999
26.1825 1.8726 -2.5201 0.8999
26.1073 2.8068 -2.5209 0.8999
25.9984 3.7380 -2.5216 0.8998
20.4282 6.7992 -2.0670 0.9171
20.5212 7.6540 -2.1027 0.9158
20.6176 8.5401 -2.1425 0.9142
22.4845 10.2683 -2.3731 0.9054
22.1081 11.0666 -2.3736 0.9054
21.2700 12.6201 -2.3744 0.9054
20.8094 13.3734 -2.3748 0.9054
19.8079 14.8280 -2.3755 0.9054
18.7038 16.2069 -2.3760 0.9053
17.8811 16.6479 -2.3455 0.9065
16.8680 18.1176 -2.3765 0.9053
14.7345 17.0045 -2.1601 0.9136
13.6278 16.9111 -2.0851 0.9164
12.8832 17.2100 -2.0639 0.9172
13.3843 20.8264 -2.3767 0.9053
12.6321 21.2903 -2.3767 0.9053
9.5900 17.5628 -1.9211 0.9227
8.5208 17.0225 -1.8275 0.9264
8.0056 17.5298 -1.8501 0.9255
7.3809 17.8190 -1.8517 0.9254
7.8141 23.4776 -2.3755 0.9054
6.1176 23.9686 -2.3749 0.9054
1.7133 9.4960 -0.9264 0.9620
1.3847 9.6310 -0.9341 0.9617
1.9562 18.1955 -1.7569 0.9291
1.3217 18.4796 -1.7787 0.9283
-0.0000 24.7028 -2.3716 0.9055
-0.8815 24.6809 -2.3710 0.9055
-2.0261 18.8455 -1.8197 0.9267
-2.6896 18.7066 -1.8144 0.9269
-6.9436 23.6477 -2.3661 0.9057
-7.7806 23.3771 -2.3654 0.9057
-7.2399 19.4109 -1.9889 0.9201
-9.8671 19.7119 -2.1163 0.9152
-11.7867 21.5857 -2.3612 0.9059
-12.5449 21.1433 -2.3603 0.9059
-14.7160 19.6582 -2.3575 0.9060
-16.0681 18.5436 -2.3556 0.9061
-17.3359 17.3359 -2.3537 0.9062
-19.0662 15.3645 -2.3508 0.9063
-16.7892 12.5682 -2.0134 0.9192
-16.8300 11.6853 -1.9670 0.9210
-16.8690 10.8410 -1.9251 0.9226
-17.9619 10.6573 -2.0051 0.9195
-21.4470 11.7110 -2.3460 0.9065
-23.9375 9.9152 -2.4875 0.9011
-24.6380 8.2003 -2.4929 0.9009
-24.9053 7.3129 -2.4920 0.9010
-25.3441 5.5133 -2.4901 0.9010
-25.6536 3.6886 -2.4882 0.9011
-25.7597 2.7694 -2.4873 0.9011
21.1660 0.7560 -2.5158 0.9182
21.0690 2.2652 -2.5171 0.9182
20.9799 3.0165 -2.5177 0.9182
20.8639 3.7643 -2.5183 0.9181
20.7210 4.5076 -2.5189 0.9181
8.6495 2.2077 -1.0604 0.9647
8.7881 2.5804 -1.0880 0.9638
18.9082 6.2933 -2.3672 0.9229
18.4180 7.6290 -2.3681 0.9228
17.1556 10.1789 -2.3695 0.9228
16.7835 10.7861 -2.3699 0.9228
15.9749 11.9587 -2.3704 0.9228
15.0838 13.0702 -2.3708 0.9228
12.5266 15.5445 -2.3714 0.9227
11.9640 15.9820 -2.3714 0.9227
11.3859 16.3988 -2.3714 0.9227
10.7932 16.7946 -2.3714 0.9227
10.1867 17.1688 -2.3714 0.9227
6.3020 18.9344 -2.3704 0.9228
5.6216 19.1453 -2.3702 0.9228
2.1044 9.6740 -1.1760 0.9609
1.7128 9.4934 -1.1459 0.9619
1.3856 9.6374 -1.1566 0.9615
1.9562 18.1951 -2.1738 0.9289
1.3216 18.4780 -2.2005 0.9281
0.7114 19.9200 -2.3677 0.9228
-0.7112 19.9122 -2.3668 0.9229
-2.0259 18.8438 -2.2513 0.9265
-2.6895 18.7062 -2.2449 0.9267
-6.2802 18.8690 -2.3623 0.9230
-6.9478 18.6277 -2.3616 0.9230
-8.2542 18.0743 -2.3603 0.9231
-9.5170 17.4290 -2.3589 0.9231
-10.1299 17.0730 -2.3581 0.9231
-5.6004 8.7145 -1.2305 0.9591
-5.9569 8.5795 -1.2407 0.9588
-12.4409 15.4382 -2.3552 0.9232
-12.9797 14.9794 -2.3544 0.9233
-13.5017 14.5018 -2.3536 0.9233
-14.0061 14.0061 -2.3529 0.9233
-14.4923 13.4928 -2.3521 0.9233
-14.9597 12.9626 -2.3513 0.9234
-16.6300 10.6874 -2.3482 0.9235
-18.7491 9.3851 -2.4906 0.9190
-19.1213 8.7324 -2.4970 0.9188
-19.4145 8.0418 -2.4962 0.9188
-19.6828 7.3413 -2.4954 0.9189
-19.9259 6.6320 -2.4946 0.9189
-20.1435 5.9147 -2.4938 0.9189
-20.3355 5.1903 -2.4930 0.9189
-20.8421 2.2407 -2.4900 0.9190
17.7355 0.0000 -2.5129 0.9309
17.7282 0.6332 -2.5135 0.9308
17.6454 1.8971 -2.5146 0.9308
17.5701 2.5262 -2.5151 0.9308
17.3520 3.7747 -2.5161 0.9308
8.7409 2.2310 -1.2782 0.9642
8.7067 2.5565 -1.2857 0.9640
15.4209 6.3876 -2.3650 0.9348
15.1853 6.9349 -2.3653 0.9348
14.6557 8.0026 -2.3660 0.9348
14.3624 8.5216 -2.3662 0.9348
12.6269 10.9412 -2.3673 0.9347
11.3867 12.2302 -2.3677 0.9347
10.0148 13.3781 -2.3678 0.9347
9.5309 13.7271 -2.3678 0.9347
9.0348 14.0584 -2.3678 0.9347
8.5271 14.3716 -2.3678 0.9347
7.4796 14.9423 -2.3676 0.9347
6.9412 15.1990 -2.3675 0.9347
6.3939 15.4362 -2.3673 0.9347
5.8384 15.6535 -2.3672 0.9347
5.2756 15.8507 -2.3670 0.9347
2.0983 9.6457 -1.3987 0.9609
1.3866 9.6438 -1.3805 0.9614
-1.1900 16.6386 -2.3635 0.9348
-4.1213 16.1469 -2.3612 0.9349
-4.6939 15.9860 -2.3607 0.9349
-5.8197 15.6033 -2.3596 0.9349
-7.4489 14.8811 -2.3579 0.9350
-7.9733 14.6021 -2.3573 0.9350
-8.4873 14.3045 -2.3567 0.9350
-9.9599 13.3048 -2.3548 0.9351
-11.3158 12.1540 -2.3529 0.9351
-12.5398 10.8657 -2.3510 0.9352
-12.9160 10.4084 -2.3503 0.9352
-13.9453 8.9621 -2.3488 0.9352
-15.7679 7.8928 -2.4984 0.9312
-16.0351 7.3230 -2.4977 0.9313
-16.5077 6.1570 -2.4964 0.9313
-16.7124 5.5624 -2.4957 0.9313
-17.4120 2.5035 -2.4925 0.9314
15.2374 0.5442 -2.5118 0.9401
15.2111 1.0879 -2.5123 0.9401
15.1002 2.1711 -2.5132 0.9400
8.7457 2.5680 -1.5016 0.9637
14.4863 4.8215 -2.5152 0.9400
12.8286 6.4215 -2.3634 0.9435
11.7887 8.1851 -2.3643 0.9435
11.4900 8.6013 -2.3645 0.9435
10.8485 9.4003 -2.3648 0.9435
10.5066 9.7820 -2.3649 0.9435
10.1512 10.1512 -2.3650 0.9435
9.4018 10.8502 -2.3651 0.9435
8.6040 11.4936 -2.3652 0.9435
8.1883 11.7934 -2.3652 0.9435
7.7621 12.0780 -2.3652 0.9435
6.8804 12.6005 -2.3651 0.9435
6.4260 12.8376 -2.3650 0.9435
5.0162 13.4489 -2.3647 0.9435
3.5490 13.9049 -2.3641 0.9435
1.3875 9.6503 -1.6061 0.9612
-1.5321 14.2505 -2.3611 0.9436
-2.0394 14.1844 -2.3608 0.9436
-4.0344 13.7400 -2.3591 0.9436
-4.5214 13.5846 -2.3586 0.9436
-5.0024 13.4119 -2.3581 0.9436
-5.4768 13.2221 -2.3577 0.9436
-6.4034 12.7924 -2.3567 0.9437
-6.8544 12.5529 -2.3562 0.9437
-7.2965 12.2976 -2.3557 0.9437
-5.5805 8.6835 -1.7004 0.9590
-8.9642 11.1239 -2.3535 0.9437
-9.3534 10.7944 -2.3530 0.9437
-10.0948 10.0948 -2.3519 0.9438
-10.4462 9.7258 -2.3513 0.9438
-10.7841 9.3445 -2.3507 0.9438
-12.7696 8.2065 -2.5006 0.9403
-14.0071 5.8020 -2.4976 0.9404
-14.6768 3.7460 -2.4954 0.9404
-15.0475 1.6178 -2.4932 0.9405
-15.0925 1.0794 -2.4927 0.9405
-15.1184 0.5399 -2.4922 0.9405
13.3543 -0.0000 -2.5101 0.9471
13.3481 0.4767 -2.5105 0.9471
13.2844 1.4282 -2.5113 0.9471
13.2270 1.9018 -2.5117 0.9471
13.0615 2.8414 -2.5125 0.9470
8.7961 2.5828 -1.7231 0.9634
12.3574 5.1186 -2.5141 0.9470
12.1681 5.5570 -2.5143 0.9470
11.9570 5.9853 -2.5133 0.9470
10.0624 7.5326 -2.3626 0.9501
9.7877 7.8874 -2.3627 0.9501
9.5005 8.2322 -2.3628 0.9501
8.8897 8.8897 -2.3630 0.9501
8.2333 9.5018 -2.3632 0.9501
7.8891 9.7898 -2.3632 0.9501
6.7974 10.5770 -2.3632 0.9501
6.0253 11.0346 -2.3631 0.9501
5.6275 11.2423 -2.3631 0.9501
5.2224 11.4355 -2.3630 0.9501
4.3929 11.7778 -2.3627 0.9501
2.9139 8.7550 -1.7343 0.9631
3.5411 12.0597 -2.3624 0.9501
3.1081 12.1775 -2.3623 0.9501
2.0860 9.5891 -1.8445 0.9608
1.7114 9.4855 -1.8117 0.9615
1.3885 9.6569 -1.8338 0.9611
0.8962 12.5300 -2.3612 0.9502
0.4483 12.5526 -2.3609 0.9502
0.0000 12.5591 -2.3606 0.9502
-0.4482 12.5495 -2.3603 0.9502
-1.3420 12.4821 -2.3597 0.9502
-2.2284 12.3510 -2.3590 0.9502
-2.6674 12.2617 -2.3586 0.9502
-3.5342 12.0363 -2.3579 0.9502
-3.9608 11.9004 -2.3575 0.9502
-3.1541 8.4564 -1.6964 0.9639
-5.2075 11.4028 -2.3562 0.9503
-5.5807 8.6837 -1.9402 0.9589
-5.9571 8.5799 -1.9633 0.9584
-7.8550 9.7474 -2.3530 0.9503
-9.1547 8.5233 -2.3510 0.9504
-10.9309 7.5895 -2.5013 0.9473
-11.1925 7.1930 -2.5007 0.9473
-12.0921 5.5223 -2.4986 0.9473
-12.2790 5.0861 -2.4981 0.9473
-12.4501 4.6437 -2.4976 0.9474
-12.7445 3.7421 -2.4966 0.9474
-12.8674 3.2842 -2.4961 0.9474
-13.0639 2.3570 -2.4951 0.9474
-13.1938 1.4185 -2.4942 0.9474
-13.2336 0.9465 -2.4938 0.9474
-13.2567 0.4735 -2.4933 0.9474
11.8702 0.0000 -2.5091 0.9526
11.8645 0.4237 -2.5095 0.9526
11.8435 0.8471 -2.5099 0.9526
11.2763 3.7531 -2.5121 0.9526
10.9821 4.5489 -2.5127 0.9526
10.6316 5.3218 -2.5131 0.9526
10.4358 5.6984 -2.5134 0.9526
10.2266 6.0677 -2.5136 0.9525
9.9843 6.4165 -2.5087 0.9526
9.5474 6.6289 -2.4569 0.9536
8.6978 7.0091 -2.3612 0.9554
7.6129 8.1769 -2.3616 0.9554
6.3720 9.1774 -2.3617 0.9553
6.0403 9.3990 -2.3617 0.9553
5.3543 9.8056 -2.3616 0.9554
4.2750 10.3208 -2.3614 0.9554
2.5392 8.6477 -1.9051 0.9638
2.2141 8.6748 -1.8925 0.9641
1.8971 8.7210 -1.8866 0.9642
1.2615 8.7742 -1.8738 0.9644
0.9462 8.8005 -1.8710 0.9645
0.6313 8.8268 -1.8706 0.9645
0.3984 11.1557 -2.3596 0.9554
-0.3983 11.1533 -2.3591 0.9554
-1.1927 11.0938 -2.3585 0.9554
-1.5877 11.0427 -2.3582 0.9554
-1.9806 10.9776 -2.3579 0.9554
-2.3708 10.8984 -2.3576 0.9554
-2.7579 10.8053 -2.3572 0.9554
-3.1413 10.6984 -2.3569 0.9554
-3.1467 8.4367 -1.9034 0.9639
-4.9870 9.9628 -2.3550 0.9555
-5.6831 9.5784 -2.3542 0.9555
-5.5809 8.6840 -2.1820 0.9587
-5.9572 8.5800 -2.2079 0.9582
-6.9835 8.6660 -2.3526 0.9555
-7.2870 8.4097 -2.3522 0.9555
-7.7558 8.3303 -2.4059 0.9545
-8.6605 8.0632 -2.5013 0.9528
-8.9479 7.7534 -2.5027 0.9527
-9.2172 7.4277 -2.5022 0.9528
-9.4746 7.0926 -2.5017 0.9528
-9.7199 6.7487 -2.5013 0.9528
-10.1728 6.0358 -2.5003 0.9528
-10.3798 5.6678 -2.4999 0.9528
-10.5735 5.2927 -2.4994 0.9528
-11.2110 3.7314 -2.4976 0.9528
-11.5395 2.5103 -2.4963 0.9529
-11.6198 2.0964 -2.4958 0.9529
-11.7358 1.2617 -2.4950 0.9529
-11.7715 0.8419 -2.4946 0.9529
10.6159 1.1413 -2.5094 0.9571
10.4368 2.2704 -2.5103 0.9571
10.0116 3.7341 -2.5113 0.9570
9.5576 4.7842 -2.5120 0.9570
9.3815 5.1227 -2.5122 0.9570
9.1933 5.4546 -2.5123 0.9570
8.9934 5.7797 -2.5125 0.9570
7.8533 6.8049 -2.4422 0.9582
7.1013 7.1013 -2.3603 0.9596
6.8434 7.3504 -2.3603 0.9596
6.5769 7.5901 -2.3604 0.9596
5.7279 8.2498 -2.3604 0.9596
5.4298 8.4489 -2.3604 0.9596
3.8430 9.2777 -2.3601 0.9596
3.5092 9.4086 -2.3600 0.9596
1.2615 8.7740 -2.0833 0.9642
0.3582 10.0290 -2.3586 0.9596
-0.3581 10.0270 -2.3581 0.9596
-1.0723 9.9738 -2.3576 0.9596
-1.7807 9.8696 -2.3570 0.9596
-2.8244 9.6190 -2.3561 0.9596
-3.1655 9.5108 -2.3558 0.9596
-3.8348 9.2581 -2.3551 0.9597
-4.8004 8.7913 -2.3541 0.9597
-5.7100 8.2239 -2.3530 0.9597
-6.1150 8.1687 -2.3982 0.9589
-6.6107 8.2034 -2.4761 0.9576
-7.5319 7.5319 -2.5034 0.9572
-8.5214 6.3790 -2.5017 0.9572
-8.7422 6.0698 -2.5013 0.9572
-8.9518 5.7529 -2.5009 0.9572
-9.5106 4.7607 -2.4996 0.9572
-9.6729 4.4175 -2.4992 0.9572
-9.8228 4.0687 -2.4988 0.9573
-10.1965 2.9940 -2.4976 0.9573
-10.5123 1.5114 -2.4960 0.9573
9.6631 0.6911 -2.5083 0.9608
9.5913 1.3790 -2.5089 0.9608
9.4705 2.0602 -2.5094 0.9607
8.8639 2.6027 -2.3919 0.9625
9.0844 3.3883 -2.5104 0.9607
8.9584 3.7107 -2.5106 0.9607
8.6722 4.3410 -2.5110 0.9607
8.3415 4.9493 -2.5113 0.9607
7.7660 5.8135 -2.5117 0.9607
7.0919 6.6028 -2.5089 0.9608
6.0564 6.9894 -2.3946 0.9625
5.1970 7.4852 -2.3594 0.9630
4.9266 7.6659 -2.3594 0.9630
4.3670 7.9976 -2.3593 0.9630
3.7852 8.2883 -2.3592 0.9631
3.1840 8.5367 -2.3590 0.9631
2.5108 8.5510 -2.3075 0.9638
2.1894 8.5779 -2.2922 0.9641
0.6229 8.7088 -2.2606 0.9646
-0.6494 9.0803 -2.3570 0.9631
-1.9343 8.8916 -2.3560 0.9631
-2.2501 8.8159 -2.3558 0.9631
-2.5630 8.7289 -2.3555 0.9631
-2.8726 8.6308 -2.3552 0.9631
-3.1301 8.3922 -2.3191 0.9637
-3.4801 8.4018 -2.3546 0.9631
-4.0696 8.1299 -2.3540 0.9631
-4.3698 8.0026 -2.3608 0.9630
-4.7649 8.0309 -2.4178 0.9622
-5.5070 7.9317 -2.5001 0.9609
-5.7944 7.7404 -2.5035 0.9608
-6.0691 7.5313 -2.5043 0.9608
-6.3331 7.3088 -2.5040 0.9608
-6.5889 7.0770 -2.5036 0.9608
-7.0749 6.5869 -2.5028 0.9608
-7.3044 6.3293 -2.5025 0.9609
-7.5245 6.0636 -2.5021 0.9609
-7.7349 5.7903 -2.5017 0.9609
-8.1258 5.2221 -2.5009 0.9609
-8.3057 4.9280 -2.5005 0.9609
-8.4751 4.6277 -2.5002 0.9609
-8.7809 4.0101 -2.4994 0.9609
-9.0419 3.3725 -2.4987 0.9609
-9.1552 3.0471 -2.4983 0.9609
-9.4244 2.0502 -2.4972 0.9609
-9.6322 0.3440 -2.4955 0.9610
8.8085 0.9470 -2.5080 0.9638
8.7203 1.5733 -2.5085 0.9638
8.6594 1.8837 -2.5088 0.9638
8.5045 2.4972 -2.5092 0.9638
8.0651 3.6832 -2.5100 0.9638
7.9290 3.9690 -2.5102 0.9638
7.6266 4.5251 -2.5105 0.9638
7.2851 5.0582 -2.5107 0.9638
7.1003 5.3152 -2.5109 0.9638
6.7035 5.8086 -2.5110 0.9638
6.2724 6.2724 -2.5112 0.9638
5.5539 6.8920 -2.5058 0.9639
3.4607 7.5778 -2.3583 0.9660
3.1879 7.6963 -2.3583 0.9660
2.9111 7.8049 -2.3582 0.9660
1.7704 8.1382 -2.3578 0.9660
1.1851 8.2428 -2.3575 0.9660
0.2972 8.3205 -2.3570 0.9660
0.0000 8.3251 -2.3568 0.9660
-0.2971 8.3191 -2.3566 0.9660
-0.5938 8.3025 -2.3564 0.9660
-0.8897 8.2752 -2.3562 0.9660
-1.4775 8.1891 -2.3557 0.9660
-1.7686 8.1303 -2.3555 0.9660
-2.3436 7.9817 -2.3550 0.9660
-2.9304 7.8568 -2.3739 0.9657
-3.2649 7.8823 -2.4153 0.9652
-4.2350 7.7558 -2.5016 0.9639
-4.7841 7.4443 -2.5051 0.9639
-5.5503 6.8875 -2.5041 0.9639
-5.7918 6.6841 -2.5038 0.9639
-6.0258 6.4722 -2.5034 0.9639
-6.4704 6.0242 -2.5027 0.9639
-6.6804 5.7886 -2.5024 0.9639
-7.0743 5.2958 -2.5017 0.9639
-8.1563 3.3785 -2.4992 0.9640
-8.2706 3.0848 -2.4989 0.9640
-8.4673 2.4862 -2.4982 0.9640
-8.6209 1.8754 -2.4976 0.9640
-8.6812 1.5663 -2.4973 0.9640
-8.7686 0.9427 -2.4966 0.9640
-8.7956 0.6291 -2.4963 0.9640
8.1499 0.0000 -2.5067 0.9665
8.1455 0.2909 -2.5070 0.9665
8.1056 0.8715 -2.5075 0.9665
8.0701 1.1603 -2.5077 0.9665
7.1612 3.9103 -2.5096 0.9664
7.0175 4.1637 -2.5098 0.9664
6.7032 4.6541 -2.5100 0.9664
6.3546 5.1209 -2.5102 0.9664
5.7713 5.7713 -2.5104 0.9664
5.3450 6.1685 -2.5105 0.9664
4.6534 6.7022 -2.5096 0.9664
3.9005 7.1432 -2.5033 0.9665
3.3054 7.2379 -2.4474 0.9672
3.0115 7.2705 -2.4205 0.9676
1.8953 7.4257 -2.3572 0.9684
1.0905 7.5845 -2.3568 0.9684
0.5466 7.6420 -2.3565 0.9684
0.2734 7.6561 -2.3564 0.9684
-0.8223 7.6487 -2.3661 0.9683
-1.1032 7.6732 -2.3844 0.9681
-1.6798 7.7218 -2.4306 0.9675
-2.2816 7.7704 -2.4909 0.9667
-2.5674 7.7138 -2.5006 0.9665
-2.8431 7.6225 -2.5023 0.9665
-3.6465 7.2848 -2.5057 0.9665
-3.9038 7.1492 -2.5054 0.9665
-4.6439 6.6885 -2.5045 0.9665
-5.1080 6.3386 -2.5039 0.9665
-5.3303 6.1515 -2.5036 0.9665
-5.9551 5.5444 -2.5026 0.9665
-6.6801 4.6381 -2.5013 0.9665
-6.8405 4.3961 -2.5010 0.9665
-7.1348 3.8959 -2.5004 0.9666
-7.3927 3.3761 -2.4997 0.9666
-7.7941 2.2885 -2.4985 0.9666
-7.8698 2.0087 -2.4982 0.9666
-7.9356 1.7263 -2.4979 0.9666
-8.0968 0.5791 -2.4967 0.9666
7.5400 0.0000 -2.5063 0.9687
7.4989 0.8062 -2.5070 0.9687
7.4235 1.3394 -2.5075 0.9687
7.3716 1.6036 -2.5077 0.9687
7.2395 2.1257 -2.5081 0.9687
7.0705 2.6371 -2.5084 0.9687
6.9723 2.8880 -2.5086 0.9687
6.8652 3.1352 -2.5087 0.9687
6.7493 3.3785 -2.5089 0.9687
6.6248 3.6174 -2.5090 0.9687
6.3504 4.0812 -2.5093 0.9687
6.2010 4.3054 -2.5094 0.9687
6.0436 4.5242 -2.5095 0.9687
5.5258 5.1447 -2.5097 0.9687
5.3388 5.3388 -2.5097 0.9687
4.7377 5.8792 -2.5098 0.9687
4.5249 6.0445 -2.5098 0.9687
4.3063 6.2022 -2.5098 0.9687
3.8528 6.4935 -2.5098 0.9687
3.3796 6.7516 -2.5097 0.9687
2.8862 6.9680 -2.5070 0.9687
2.3795 7.1492 -2.5046 0.9687
2.1220 7.2267 -2.5036 0.9688
1.8620 7.2954 -2.5028 0.9688
1.6000 7.3552 -2.5021 0.9688
1.3362 7.4059 -2.5015 0.9688
1.0696 7.4392 -2.4982 0.9688
0.8026 7.4650 -2.4957 0.9688
0.5358 7.4909 -2.4964 0.9688
0.2685 7.5164 -2.5001 0.9688
-1.3375 7.4135 -2.5041 0.9687
-1.8647 7.3058 -2.5063 0.9687
-2.8849 6.9648 -2.5059 0.9687
-3.1314 6.8567 -2.5056 0.9687
-3.6118 6.6144 -2.5051 0.9687
-3.8451 6.4806 -2.5048 0.9687
-4.5143 6.0304 -2.5040 0.9687
-4.9319 5.6917 -2.5034 0.9688
-5.3241 5.3241 -2.5028 0.9688
-5.5101 5.1301 -2.5025 0.9688
-5.6890 4.9296 -2.5022 0.9688
-6.0248 4.5101 -2.5016 0.9688
-6.3297 4.0678 -2.5010 0.9688
-6.4700 3.8388 -2.5007 0.9688
-6.6022 3.6051 -2.5005 0.9688
-6.7258 3.3667 -2.5002 0.9688
-7.0447 2.6275 -2.4993 0.9688
-7.4699 0.8031 -2.4974 0.9688
-7.4931 0.5359 -2.4971 0.9688
-7.5067 0.2681 -2.4968 0.9688
7.0077 -0.0000 -2.5060 0.9707
6.9693 0.7493 -2.5066 0.9707
6.9387 0.9976 -2.5068 0.9707
6.8509 1.4903 -2.5072 0.9707
6.7281 1.9756 -2.5076 0.9707
6.6537 2.2146 -2.5078 0.9706
6.3801 2.9137 -2.5082 0.9706
6.1566 3.3617 -2.5085 0.9706
5.9016 3.7927 -2.5087 0.9706
5.7627 4.0011 -2.5088 0.9706
5.4629 4.4023 -2.5090 0.9706
5.3025 4.5946 -2.5090 0.9706
4.9614 4.9614 -2.5092 0.9706
4.7812 5.1354 -2.5092 0.9706
4.5950 5.3029 -2.5092 0.9706
3.5804 6.0345 -2.5092 0.9706
3.3627 6.1584 -2.5092 0.9706
3.1407 6.2744 -2.5092 0.9706
2.9147 6.3823 -2.5091 0.9706
2.4519 6.5737 -2.5090 0.9706
2.2156 6.6568 -2.5089 0.9706
1.7349 6.7974 -2.5087 0.9706
1.2455 6.9032 -2.5085 0.9706
0.7498 6.9738 -2.5082 0.9706
-0.0000 7.0127 -2.5078 0.9706
-0.7495 6.9711 -2.5073 0.9707
-0.9977 6.9394 -2.5071 0.9707
-1.4900 6.8494 -2.5067 0.9707
-1.7334 6.7913 -2.5065 0.9707
-2.4488 6.5654 -2.5058 0.9707
-2.6813 6.4732 -2.5056 0.9707
-3.3569 6.1477 -2.5048 0.9707
-3.5738 6.0233 -2.5046 0.9707
-3.9936 5.7518 -2.5041 0.9707
-4.3928 5.4511 -2.5035 0.9707
-4.5841 5.2903 -2.5033 0.9707
-4.7695 5.1228 -2.5030 0.9707
-5.1216 4.7684 -2.5025 0.9707
-5.2880 4.5821 -2.5022 0.9707
-5.4476 4.3899 -2.5019 0.9707
-5.6002 4.1922 -2.5016 0.9707
-5.7456 3.9892 -2.5014 0.9707
-6.3591 2.9041 -2.5000 0.9707
-6.4580 2.6750 -2.4997 0.9707
-6.5486 2.4425 -2.4994 0.9707
-6.7048 1.9687 -2.4989 0.9708
-6.8267 1.4851 -2.4984 0.9708
-6.9139 0.9941 -2.4979 0.9708
-6.9443 0.7466 -2.4976 0.9708
-6.9659 0.4982 -2.4974 0.9708
-6.9786 0.2492 -2.4972 0.9708
6.5385 0.0000 -2.5057 0.9724
6.5349 0.2334 -2.5059 0.9724
6.5229 0.4665 -2.5061 0.9724
6.3388 1.6179 -2.5070 0.9724
6.2774 1.8432 -2.5072 0.9724
6.1307 2.2866 -2.5075 0.9724
6.0455 2.5041 -2.5076 0.9724
5.7440 3.1365 -2.5080 0.9724
5.6287 3.3397 -2.5081 0.9724
5.5061 3.5386 -2.5082 0.9724
5.2400 3.9226 -2.5084 0.9724
5.0968 4.1073 -2.5085 0.9723
4.7911 4.4606 -2.5086 0.9723
4.2870 4.9474 -2.5087 0.9723
3.7336 5.3774 -2.5087 0.9723
3.3404 5.6300 -2.5087 0.9723
2.9302 5.8538 -2.5086 0.9723
2.7194 5.9546 -2.5086 0.9723
2.5050 6.0477 -2.5085 0.9723
2.2875 6.1331 -2.5085 0.9723
2.0671 6.2107 -2.5084 0.9724
1.6187 6.3419 -2.5082 0.9724
1.1620 6.4407 -2.5080 0.9724
0.6995 6.5065 -2.5078 0.9724
0.2335 6.5392 -2.5075 0.9724
-0.4667 6.5254 -2.5071 0.9724
-1.1613 6.4368 -2.5065 0.9724
-1.3902 6.3908 -2.5063 0.9724
-1.6173 6.3366 -2.5061 0.9724
-1.8423 6.2743 -2.5059 0.9724
-2.5018 6.0399 -2.5053 0.9724
-3.1323 5.7363 -2.5046 0.9724
-3.3347 5.6203 -2.5044 0.9724
-3.5328 5.4972 -2.5041 0.9724
-3.7264 5.3671 -2.5039 0.9724
-3.9152 5.2301 -2.5037 0.9724
-4.0990 5.0865 -2.5034 0.9724
-4.4505 4.7802 -2.5029 0.9724
-5.0834 4.0965 -2.5019 0.9724
-5.2259 3.9120 -2.5016 0.9724
-5.6124 3.3300 -2.5008 0.9724
-5.7271 3.1272 -2.5006 0.9724
-5.9343 2.7101 -2.5001 0.9724
-6.0267 2.4963 -2.4998 0.9724
-6.1113 2.2794 -2.4996 0.9724
-6.4158 1.1575 -2.4984 0.9725
-6.4525 0.9277 -2.4981 0.9725
-6.4809 0.6968 -2.4979 0.9725
6.0611 0.8715 -2.5062 0.9739
5.7395 2.1407 -2.5071 0.9739
5.0333 3.4947 -2.5079 0.9739
4.7715 3.8451 -2.5080 0.9739
4.6313 4.0131 -2.5081 0.9739
4.4852 4.1759 -2.5081 0.9739
4.0133 4.6316 -2.5082 0.9739
3.8455 4.7719 -2.5083 0.9739
3.6727 4.9062 -2.5083 0.9739
3.4953 5.0341 -2.5083 0.9739
2.9370 5.3788 -2.5082 0.9739
2.5458 5.5745 -2.5081 0.9739
1.9352 5.8142 -2.5080 0.9739
1.5154 5.9371 -2.5078 0.9739
1.3024 5.9872 -2.5077 0.9739
1.0879 6.0296 -2.5076 0.9739
0.8719 6.0643 -2.5075 0.9739
0.4370 6.1105 -2.5073 0.9739
0.2186 6.1219 -2.5071 0.9739
-0.0000 6.1255 -2.5070 0.9739
-0.6547 6.0892 -2.5065 0.9739
-1.3016 5.9832 -2.5060 0.9739
-1.5142 5.9325 -2.5058 0.9739
-1.7248 5.8742 -2.5057 0.9739
-2.1391 5.7353 -2.5053 0.9739
-2.7393 5.4724 -2.5046 0.9739
-2.9326 5.3707 -2.5044 0.9739
-3.3077 5.1469 -2.5040 0.9739
-3.4890 5.0251 -2.5037 0.9739
-3.6658 4.8969 -2.5035 0.9739
-3.8378 4.7625 -2.5033 0.9739
-4.0050 4.6220 -2.5030 0.9739
-4.1670 4.4757 -2.5028 0.9739
-4.3237 4.3237 -2.5026 0.9739
-4.4748 4.1662 -2.5023 0.9739
-4.8931 3.6630 -2.5016 0.9739
-5.0203 3.4856 -2.5014 0.9739
-5.5567 2.5377 -2.5002 0.9739
-5.6432 2.3375 -2.4999 0.9739
-5.8591 1.7204 -2.4992 0.9740
-6.0078 1.0839 -2.4986 0.9740
-6.0989 0.2178 -2.4977 0.9740
5.7482 0.0000 -2.5052 0.9752
5.7450 0.2052 -2.5054 0.9752
5.7344 0.4101 -2.5055 0.9752
5.6913 0.8183 -2.5059 0.9752
5.6588 1.0210 -2.5060 0.9752
5.5183 1.6203 -2.5065 0.9752
5.3892 2.0101 -2.5068 0.9752
5.3143 2.2012 -2.5069 0.9752
5.1442 2.5750 -2.5071 0.9752
4.8400 3.1105 -2.5074 0.9752
4.4802 3.6104 -2.5076 0.9752
4.3486 3.7680 -2.5077 0.9752
4.2114 3.9209 -2.5077 0.9752
3.9210 4.2115 -2.5078 0.9752
3.7683 4.3488 -2.5078 0.9752
3.4485 4.6066 -2.5079 0.9752
3.2818 4.7268 -2.5079 0.9752
3.1110 4.8409 -2.5078 0.9752
2.7577 5.0504 -2.5078 0.9752
1.8170 5.4593 -2.5076 0.9752
1.4228 5.5747 -2.5074 0.9752
1.2229 5.6217 -2.5073 0.9752
1.0215 5.6615 -2.5072 0.9752
0.4104 5.7375 -2.5069 0.9752
0.2053 5.7483 -2.5068 0.9752
-0.2053 5.7477 -2.5065 0.9752
-0.8184 5.6918 -2.5061 0.9752
-1.0209 5.6586 -2.5059 0.9752
-1.2222 5.6181 -2.5057 0.9752
-2.1995 5.3100 -2.5048 0.9752
-2.3874 5.2277 -2.5046 0.9752
-2.9318 4.9413 -2.5040 0.9752
-3.1060 4.8331 -2.5038 0.9752
-3.2763 4.7188 -2.5036 0.9752
-3.4423 4.5984 -2.5034 0.9752
-3.6040 4.4722 -2.5032 0.9752
-3.9131 4.2030 -2.5027 0.9753
-4.4698 3.6020 -2.5018 0.9753
-4.5951 3.4399 -2.5016 0.9753
-4.9352 2.9282 -2.5009 0.9753
-5.0361 2.7499 -2.5007 0.9753
-5.2997 2.1952 -2.5000 0.9753
-5.3742 2.0045 -2.4998 0.9753
-5.5563 1.4182 -2.4991 0.9753
-5.6029 1.2188 -2.4989 0.9753
-5.6423 1.0180 -2.4987 0.9753
-5.6997 0.6128 -2.4983 0.9753
-5.7175 0.4089 -2.4981 0.9753
-5.7280 0.2046 -2.4979 0.9753
5.4116 -0.0000 -2.5050 0.9764
5.3817 0.5786 -2.5055 0.9764
5.3579 0.7704 -2.5056 0.9764
5.3274 0.9612 -2.5058 0.9764
5.2900 1.1508 -2.5059 0.9764
5.2458 1.3389 -2.5061 0.9764
5.1375 1.7099 -2.5063 0.9764
5.0029 2.0723 -2.5066 0.9764
4.9260 2.2496 -2.5067 0.9764
4.5563 2.9282 -2.5071 0.9764
4.2176 3.3987 -2.5073 0.9764
3.5474 4.0939 -2.5075 0.9764
3.3990 4.2179 -2.5075 0.9764
3.0895 4.4497 -2.5075 0.9764
1.8929 5.0751 -2.5073 0.9764
1.5260 5.1969 -2.5071 0.9764
0.7707 5.3605 -2.5068 0.9764
0.5789 5.3844 -2.5067 0.9764
0.0000 5.4146 -2.5064 0.9764
-0.1933 5.4109 -2.5062 0.9764
-0.5787 5.3827 -2.5060 0.9764
-0.7704 5.3583 -2.5058 0.9764
-1.1506 5.2891 -2.5055 0.9764
-1.5248 5.1928 -2.5052 0.9764
-1.7090 5.1348 -2.5050 0.9764
-2.0707 4.9991 -2.5046 0.9764
-2.4217 4.8379 -2.5043 0.9764
-2.7602 4.6521 -2.5039 0.9764
-2.9243 4.5502 -2.5037 0.9764
-3.0846 4.4426 -2.5035 0.9764
-3.5409 4.0864 -2.5029 0.9764
-3.6842 3.9571 -2.5027 0.9765
-4.2084 3.3914 -2.5018 0.9765
-4.4389 3.0820 -2.5014 0.9765
-4.6466 2.7570 -2.5009 0.9765
-4.8306 2.4180 -2.5005 0.9765
-4.9900 2.0669 -2.5001 0.9765
-5.0602 1.8873 -2.4999 0.9765
-5.1239 1.7054 -2.4997 0.9765
-5.1811 1.5213 -2.4995 0.9765
-5.2316 1.3353 -2.4993 0.9765
-5.3835 0.3850 -2.4983 0.9765
-5.3935 0.1926 -2.4981 0.9765
5.1034 0.1823 -2.5049 0.9775
5.0267 0.9069 -2.5055 0.9775
4.9914 1.0858 -2.5057 0.9775
4.9497 1.2633 -2.5058 0.9775
4.8475 1.6134 -2.5061 0.9775
4.4849 2.4490 -2.5066 0.9775
4.3948 2.6076 -2.5067 0.9775
4.1978 2.9146 -2.5068 0.9775
4.0912 3.0627 -2.5069 0.9775
3.9794 3.2068 -2.5069 0.9775
3.8625 3.3469 -2.5070 0.9775
3.6140 3.6140 -2.5071 0.9775
3.3471 3.8627 -2.5071 0.9775
3.2071 3.9797 -2.5071 0.9775
2.9150 4.1984 -2.5071 0.9775
2.6080 4.3956 -2.5071 0.9775
2.4495 4.4859 -2.5071 0.9775
2.1232 4.6491 -2.5070 0.9775
1.9558 4.7218 -2.5070 0.9775
1.7860 4.7885 -2.5069 0.9775
1.4398 4.9035 -2.5068 0.9775
1.0862 4.9934 -2.5067 0.9775
-0.0000 5.1090 -2.5061 0.9775
-0.3644 5.0955 -2.5058 0.9775
-0.5460 5.0789 -2.5057 0.9775
-0.7269 5.0559 -2.5056 0.9775
-0.9069 5.0265 -2.5054 0.9775
-1.0856 4.9906 -2.5053 0.9775
-1.2630 4.9484 -2.5051 0.9775
-1.4387 4.8998 -2.5050 0.9775
-1.6126 4.8451 -2.5048 0.9775
-1.7844 4.7841 -2.5046 0.9775
-1.9539 4.7170 -2.5045 0.9775
-2.2851 4.5650 -2.5041 0.9775
-2.4464 4.4802 -2.5039 0.9775
-2.6045 4.3897 -2.5037 0.9775
-2.7593 4.2936 -2.5036 0.9775
-2.9106 4.1921 -2.5034 0.9775
-3.2018 3.9731 -2.5030 0.9775
-3.3413 3.8560 -2.5028 0.9775
-3.6073 3.6073 -2.5024 0.9775
-3.7334 3.4760 -2.5022 0.9775
-3.8548 3.3402 -2.5020 0.9775
-3.9713 3.2002 -2.5018 0.9775
-4.1888 2.9083 -2.5014 0.9775
-4.2896 2.7567 -2.5012 0.9775
-4.4746 2.4433 -2.5008 0.9775
-4.7090 1.9505 -2.5002 0.9775
-4.9371 1.2601 -2.4994 0.9776
-5.0137 0.9046 -2.4990 0.9776
-5.0424 0.7250 -2.4989 0.9776
-5.0806 0.3634 -2.4985 0.9776
4.8010 0.5162 -2.5050 0.9785
4.7798 0.6872 -2.5052 0.9785
4.7525 0.8574 -2.5053 0.9785
4.7191 1.0266 -2.5054 0.9785
4.6797 1.1944 -2.5056 0.9785
4.3200 2.1624 -2.5062 0.9785
3.8680 2.8955 -2.5066 0.9785
3.6517 3.1642 -2.5067 0.9785
3.4168 3.4168 -2.5068 0.9785
2.8958 3.8683 -2.5068 0.9785
2.7559 3.9692 -2.5068 0.9785
2.6125 4.0651 -2.5068 0.9785
2.3158 4.2410 -2.5068 0.9785
2.1629 4.3209 -2.5068 0.9785
1.8491 4.4641 -2.5067 0.9785
1.6885 4.5272 -2.5066 0.9785
1.3612 4.6359 -2.5065 0.9785
1.0270 4.7209 -2.5064 0.9785
0.8578 4.7544 -2.5063 0.9785
0.6875 4.7818 -2.5062 0.9785
0.5164 4.8031 -2.5061 0.9785
0.3446 4.8183 -2.5060 0.9785
-0.1724 4.8269 -2.5057 0.9785
-0.5163 4.8019 -2.5055 0.9785
-0.6873 4.7801 -2.5053 0.9785
-1.1941 4.6785 -2.5049 0.9785
-1.3603 4.6326 -2.5048 0.9785
-1.8473 4.4598 -2.5043 0.9785
-2.1605 4.3161 -2.5040 0.9785
-2.3130 4.2360 -2.5038 0.9785
-2.7520 3.9636 -2.5033 0.9785
-3.1592 3.6459 -2.5027 0.9785
-3.2871 3.5306 -2.5025 0.9785
-3.4107 3.4107 -2.5023 0.9785
-3.5300 3.2866 -2.5021 0.9785
-4.1461 2.4600 -2.5010 0.9785
-4.3104 2.1576 -2.5006 0.9785
-4.3843 2.0022 -2.5004 0.9785
-4.4526 1.8443 -2.5002 0.9785
-4.5153 1.6841 -2.5001 0.9785
-4.5722 1.5218 -2.4999 0.9785
-4.7076 1.0241 -2.4993 0.9785
-4.7680 0.6855 -2.4990 0.9785
-4.7891 0.5149 -2.4988 0.9785
-4.8042 0.3436 -2.4987 0.9785
4.5614 0.3262 -2.5047 0.9794
4.5012 0.8121 -2.5051 0.9794
4.1618 1.9006 -2.5059 0.9794
3.7588 2.6097 -2.5062 0.9793
3.4585 2.9968 -2.5064 0.9793
3.3493 3.1183 -2.5064 0.9793
3.2360 3.2360 -2.5065 0.9793
3.1184 3.3494 -2.5065 0.9793
2.9969 3.4586 -2.5065 0.9793
2.8716 3.5634 -2.5065 0.9793
2.6101 3.7592 -2.5065 0.9793
2.4742 3.8500 -2.5065 0.9793
2.3352 3.9358 -2.5065 0.9793
2.1932 4.0166 -2.5065 0.9793
2.0484 4.0923 -2.5065 0.9793
1.5992 4.2876 -2.5064 0.9793
1.2892 4.3906 -2.5063 0.9793
0.9726 4.4711 -2.5061 0.9793
0.8124 4.5029 -2.5061 0.9793
0.4891 4.5490 -2.5059 0.9793
0.1633 4.5720 -2.5057 0.9794
0.0000 4.5747 -2.5056 0.9794
-0.3263 4.5627 -2.5054 0.9794
-0.8121 4.5010 -2.5050 0.9794
-1.1310 4.4311 -2.5047 0.9794
-1.2883 4.3877 -2.5046 0.9794
-1.4440 4.3386 -2.5044 0.9794
-1.7497 4.2241 -2.5041 0.9794
-2.0463 4.0880 -2.5038 0.9794
-2.6065 3.7541 -2.5032 0.9794
-2.7387 3.6585 -2.5030 0.9794
-2.9923 3.4533 -2.5026 0.9794
-3.3436 3.1130 -2.5021 0.9794
-3.4523 2.9914 -2.5019 0.9794
-3.5566 2.8661 -2.5018 0.9794
-3.6564 2.7371 -2.5016 0.9794
-3.7515 2.6047 -2.5014 0.9794
-3.9272 2.3301 -2.5010 0.9794
-4.0075 2.1883 -2.5008 0.9794
-4.0828 2.0437 -2.5007 0.9794
-4.2176 1.7470 -2.5003 0.9794
-4.2770 1.5952 -2.5001 0.9794
-4.3309 1.4415 -2.5000 0.9794
-4.3793 1.2859 -2.4998 0.9794
-4.4592 0.9700 -2.4995 0.9794
-4.5165 0.6494 -2.4991 0.9794
-4.5507 0.3255 -2.4988 0.9794
4.3375 0.0000 -2.5043 0.9802
4.3350 0.1548 -2.5044 0.9802
4.3269 0.3095 -2.5045 0.9802
4.1635 1.2225 -2.5053 0.9802
4.0094 1.6607 -2.5056 0.9802
3.9477 1.8029 -2.5056 0.9802
3.8810 1.9427 -2.5057 0.9802
3.8093 2.0800 -2.5058 0.9802
3.4748 2.6012 -2.5061 0.9802
3.3798 2.7237 -2.5061 0.9802
3.2805 2.8426 -2.5061 0.9802
3.1770 2.9579 -2.5062 0.9802
3.0695 3.0695 -2.5062 0.9801
2.8427 3.2807 -2.5063 0.9801
2.6015 3.4752 -2.5063 0.9801
2.4758 3.5658 -2.5063 0.9801
2.2151 3.7333 -2.5063 0.9801
1.8033 3.9486 -2.5062 0.9802
1.6611 4.0104 -2.5062 0.9802
1.5169 4.0670 -2.5061 0.9802
1.2229 4.1647 -2.5060 0.9802
1.0734 4.2056 -2.5060 0.9802
0.7706 4.2712 -2.5058 0.9802
0.1549 4.3369 -2.5055 0.9802
0.0000 4.3394 -2.5054 0.9802
-0.3095 4.3280 -2.5052 0.9802
-0.6175 4.2945 -2.5049 0.9802
-1.0728 4.2033 -2.5046 0.9802
-1.2221 4.1621 -2.5044 0.9802
-1.3698 4.1156 -2.5043 0.9802
-1.9411 3.8779 -2.5037 0.9802
-2.0782 3.8059 -2.5036 0.9802
-2.2125 3.7290 -2.5034 0.9802
-2.3441 3.6475 -2.5032 0.9802
-2.5980 3.4705 -2.5029 0.9802
-2.7200 3.3753 -2.5028 0.9802
-2.8386 3.2759 -2.5026 0.9802
-2.9535 3.1723 -2.5024 0.9802
-3.0646 3.0646 -2.5022 0.9802
-3.2750 2.8378 -2.5019 0.9802
-3.3740 2.7189 -2.5017 0.9802
-3.4686 2.5966 -2.5016 0.9802
-3.6445 2.3422 -2.5012 0.9802
-3.8732 1.9388 -2.5007 0.9802
-3.9397 1.7992 -2.5005 0.9802
-4.0011 1.6573 -2.5004 0.9802
-4.1086 1.3675 -2.5000 0.9802
-4.1545 1.2199 -2.4999 0.9802
-4.1951 1.0707 -2.4997 0.9802
-4.2304 0.9203 -2.4996 0.9802
-4.2603 0.7686 -2.4994 0.9802
-4.3173 0.3088 -2.4989 0.9802
