ply
format ascii 1.0
element vertex 1208
property float32 x
property float32 y
property float32 z
property float32 I
end_header
-42.8566 -15.9847 8.0653 0.8305
-38.5621 -17.6108 7.4751 0.8418
-17.5079 -8.7638 3.4522 0.9236
-34.8285 -19.0178 6.9971 0.8511
-31.5334 -20.2653 6.6094 0.8588
-30.0154 -20.8400 6.4431 0.8621
-28.5699 -21.3871 6.2928 0.8651
-27.1483 -25.2760 6.5405 0.8601
-28.6413 -35.5416 8.0486 0.8308
-0.9582 -13.3979 2.3686 0.9469
0.5547 -15.5314 2.7404 0.9388
10.4633 -40.9950 7.4602 0.8421
13.9519 -37.4064 7.0396 0.8503
19.8395 -39.6343 7.8152 0.8352
24.5806 -41.4283 8.4940 0.8223
17.7494 -20.4839 4.7800 0.8958
-45.4339 -15.1218 7.3356 0.8238
-42.8578 -15.9851 7.0074 0.8310
-40.6289 -16.8290 6.7369 0.8370
-38.5631 -17.6112 6.4946 0.8424
-34.8293 -19.0182 6.0793 0.8516
-28.5705 -21.3876 5.4674 0.8655
-27.8208 -24.1068 5.6394 0.8616
-27.2522 -25.3727 5.7042 0.8601
-25.5942 -27.4901 5.7540 0.8590
-26.9698 -31.1249 6.3092 0.8465
-28.6417 -35.5422 6.9928 0.8313
0.5543 -15.5191 2.3789 0.9391
8.2678 -45.8252 7.1335 0.8283
9.4540 -43.4593 6.8134 0.8353
10.4633 -40.9946 6.4815 0.8426
11.3495 -38.6531 6.1714 0.8496
12.2339 -36.7570 5.9347 0.8549
13.9522 -37.4073 6.1162 0.8508
19.8400 -39.6354 6.7901 0.8358
22.1120 -40.4951 7.0682 0.8297
24.5813 -41.4295 7.3798 0.8229
17.7473 -20.4815 4.1514 0.8961
-45.2777 -15.0699 6.2141 0.8249
-42.8590 -15.9856 5.9567 0.8315
-38.5640 -17.6116 5.5207 0.8428
-17.4915 -8.7556 2.5472 0.9241
-34.8301 -19.0187 5.1677 0.8521
-31.5348 -20.2662 4.8814 0.8597
-34.8879 -24.2231 5.5308 0.8425
-28.5711 -21.3880 4.6476 0.8659
-28.0512 -22.6051 4.6913 0.8647
-30.0676 -26.0537 5.1809 0.8517
-31.5141 -29.3407 5.6071 0.8406
-25.5945 -27.4904 4.8912 0.8594
-26.9702 -31.1252 5.3631 0.8469
-28.6421 -35.5427 5.9442 0.8318
-0.9582 -13.3969 1.7490 0.9473
0.5538 -15.5069 2.0206 0.9393
8.2677 -45.8248 6.0637 0.8288
9.4542 -43.4602 5.7917 0.8358
11.3495 -38.6528 5.2459 0.8500
12.2342 -36.7579 5.0448 0.8553
13.9525 -37.4082 5.1991 0.8512
15.9620 -38.5358 5.4316 0.8451
19.8405 -39.6364 5.7720 0.8363
22.1126 -40.4962 6.0084 0.8302
24.5820 -41.4307 6.2733 0.8234
17.7457 -20.4796 3.5288 0.8965
-46.4070 -11.8447 5.1430 0.8247
-46.2634 -13.5841 5.1776 0.8237
-45.5078 -15.1465 5.1503 0.8245
-42.8601 -15.9860 4.9121 0.8319
-42.2909 -17.5175 4.9155 0.8318
-17.4944 -8.7571 2.1008 0.9243
-38.6739 -22.9463 4.8288 0.8345
-35.0372 -24.3268 4.5803 0.8423
-28.5717 -21.3885 3.8325 0.8662
-25.5948 -27.4908 4.0334 0.8598
-26.9706 -31.1257 4.4225 0.8473
0.5534 -15.4947 1.6649 0.9395
8.2676 -45.8244 5.0001 0.8292
12.2344 -36.7587 4.1601 0.8557
13.9528 -37.4090 4.2874 0.8516
15.9624 -38.5367 4.4791 0.8455
19.8411 -39.6374 4.7598 0.8367
22.1132 -40.4973 4.9548 0.8306
24.5827 -41.4319 5.1732 0.8238
37.8970 -30.5393 5.2262 0.8222
-45.5081 -15.1465 4.0602 0.8249
-42.8612 -15.9864 3.8725 0.8322
-38.6908 -22.9563 3.8084 0.8348
-31.5362 -20.2671 3.1734 0.8603
-35.0517 -24.3368 3.6123 0.8426
-28.5723 -21.3889 3.0213 0.8665
-31.5607 -29.3840 3.6504 0.8410
-25.5951 -27.4911 3.1797 0.8600
8.2676 -45.8240 3.9418 0.8295
9.4546 -43.4620 3.7652 0.8365
11.2337 -38.2585 3.3754 0.8521
12.2347 -36.7595 3.2796 0.8560
13.9532 -37.4099 3.3800 0.8519
15.8329 -38.2239 3.5024 0.8470
19.8416 -39.6384 3.7524 0.8370
24.5834 -41.4330 4.0783 0.8242
17.7436 -20.4772 2.2936 0.8969
37.9186 -30.5567 4.1224 0.8224
-45.5084 -15.1466 2.9742 0.8251
-42.2914 -17.5177 2.8386 0.8324
-17.5002 -8.7600 1.2136 0.9246
-24.4357 -14.4984 1.7619 0.8924
-31.5369 -20.2675 2.3246 0.8605
-28.5729 -21.3894 2.2133 0.8667
-31.5127 -29.3394 2.6699 0.8415
-26.4387 -26.4387 2.3186 0.8608
-14.7273 -16.9962 1.3946 0.9138
-0.9580 -13.3947 0.8327 0.9476
0.5525 -15.4707 0.9599 0.9398
3.6122 -25.1232 1.5739 0.9033
8.2675 -45.8236 2.8874 0.8298
11.3492 -38.6518 2.4980 0.8509
12.2350 -36.7603 2.4025 0.8562
10.2439 -18.7604 1.3255 0.9179
17.7425 -20.4760 1.6800 0.8971
37.9401 -30.5740 3.0216 0.8226
-38.5679 -17.6134 1.6719 0.8439
-17.5031 -8.7614 0.7718 0.9246
-34.8333 -19.0204 1.5650 0.8531
-24.4448 -14.5038 1.1209 0.8925
-28.5735 -21.3898 1.4074 0.8669
-31.5769 -29.3991 1.7012 0.8414
-26.9716 -31.1269 1.6240 0.8480
-30.0089 -37.2388 1.8858 0.8258
-18.0310 -28.0569 1.3151 0.8750
-6.9378 -31.8923 1.2870 0.8775
-0.9579 -13.3935 0.5295 0.9477
3.6123 -25.1238 1.0008 0.9034
8.2674 -45.8232 1.8360 0.8299
11.3491 -38.6515 1.5884 0.8511
12.2353 -36.7612 1.5277 0.8563
13.9538 -37.4116 1.5745 0.8523
13.4155 -29.3759 1.2734 0.8787
9.1228 -18.2251 0.8036 0.9217
22.3145 -32.1390 1.5428 0.8550
17.7413 -20.4746 1.0683 0.8972
-45.5089 -15.1468 0.8102 0.8254
-42.8646 -15.9877 0.7728 0.8327
-38.5688 -17.6138 0.7162 0.8440
-17.5060 -8.7628 0.3307 0.9247
-31.5383 -20.2684 0.6333 0.8607
-33.9816 -23.5938 0.6988 0.8475
-29.6941 -25.7301 0.6637 0.8545
-25.9140 -24.1268 0.5981 0.8679
-25.5960 -27.4921 0.6345 0.8605
-0.9578 -13.3922 0.2268 0.9477
0.5517 -15.4469 0.2611 0.9400
8.2673 -45.8228 0.7865 0.8300
10.4628 -40.9927 0.7146 0.8443
11.3490 -38.6513 0.6805 0.8512
13.9541 -37.4125 0.6745 0.8524
17.9429 -39.2894 0.7296 0.8413
20.0698 -40.0945 0.7574 0.8358
10.2219 -18.7200 0.3603 0.9182
-45.5092 -15.1469 -0.2700 0.8254
-42.2922 -17.5180 -0.2577 0.8327
-38.5697 -17.6142 -0.2387 0.8440
-17.5088 -8.7643 -0.1102 0.9247
-31.5121 -20.2516 -0.2109 0.8608
-28.5747 -21.3907 -0.2010 0.8669
-29.4856 -25.5494 -0.2197 0.8555
-26.4401 -26.4401 -0.2105 0.8611
-25.5963 -27.4924 -0.2115 0.8605
-30.0100 -37.2401 -0.2693 0.8259
-0.9577 -13.3910 -0.0756 0.9477
3.6124 -25.1251 -0.1427 0.9034
8.2673 -45.8224 -0.2621 0.8301
10.4627 -40.9924 -0.2382 0.8443
11.3489 -38.6510 -0.2268 0.8512
12.2358 -36.7628 -0.2181 0.8564
13.9544 -37.4133 -0.2248 0.8524
17.9433 -39.2904 -0.2432 0.8413
10.2027 -18.6849 -0.1199 0.9184
17.7359 -20.4684 -0.1525 0.8973
-38.5707 -17.6146 -1.1940 0.8439
-34.8357 -19.0217 -1.1176 0.8531
-24.4462 -14.5046 -0.8004 0.8925
-31.4425 -20.2068 -1.0524 0.8611
-28.5752 -21.3911 -1.0051 0.8669
-28.0538 -22.6071 -1.0145 0.8657
-25.7669 -23.9899 -0.9913 0.8686
-26.4406 -26.4406 -1.0529 0.8610
-6.8393 -31.4400 -0.9060 0.8792
9.4556 -43.4665 -1.2526 0.8369
11.3488 -38.6507 -1.1342 0.8511
20.0709 -40.0965 -1.2626 0.8357
10.9307 -18.4226 -0.6032 0.9179
26.2966 -40.9183 -1.3696 0.8231
17.7333 -20.4653 -0.7625 0.8973
-39.6419 0.0000 -2.0104 0.8532
-45.7833 -3.2745 -2.3278 0.8321
-27.0474 -3.8888 -1.3858 0.8963
-45.2068 -9.8342 -2.3462 0.8309
-44.1412 -14.6916 -2.3593 0.8300
-18.5142 -6.9054 -1.0021 0.9239
-42.2927 -17.5182 -2.3216 0.8325
-24.4467 -14.5049 -1.4416 0.8924
-34.0329 -23.6295 -2.1012 0.8471
-28.0541 -22.6074 -1.8272 0.8656
-29.4491 -25.5178 -1.9762 0.8555
-25.4949 -23.7366 -1.7666 0.8698
-26.4411 -26.4411 -1.8964 0.8609
-25.5969 -27.4931 -1.9050 0.8603
-26.9730 -31.1285 -2.0889 0.8479
-29.8314 -37.0185 -2.4111 0.8266
-25.7590 -40.0817 -2.4163 0.8263
-21.3585 -42.6688 -2.4199 0.8260
-19.8290 -43.4194 -2.4207 0.8260
-18.2711 -44.1104 -2.4213 0.8259
-10.8237 -29.0193 -1.5707 0.8833
-9.3054 -27.9583 -1.4944 0.8887
-3.1714 -29.4979 -1.5046 0.8880
-1.7012 -47.6314 -2.4171 0.8262
0.5511 -15.4314 -0.7831 0.9400
3.3932 -47.4438 -2.4122 0.8265
3.6126 -25.1263 -1.2874 0.9033
9.4432 -43.4095 -2.2530 0.8370
10.4411 -40.9079 -2.1411 0.8444
11.3255 -38.5713 -2.0387 0.8513
15.9389 -38.4801 -2.1123 0.8464
17.9149 -39.2280 -2.1871 0.8414
10.9308 -18.4228 -1.0864 0.9178
25.2718 -39.3237 -2.3706 0.8293
18.1928 -26.2026 -1.6177 0.8801
27.9184 -37.2947 -2.3626 0.8298
17.7306 -20.4622 -1.3731 0.8972
31.5752 -33.9142 -2.3500 0.8306
32.7047 -32.7047 -2.3456 0.8309
34.9556 -30.2892 -2.3457 0.8309
37.0687 -27.7493 -2.3483 0.8307
40.4530 -28.0870 -2.4976 0.8210
41.5239 -26.6858 -2.5032 0.8206
44.9990 -20.5504 -2.5088 0.8203
45.7290 -18.9416 -2.5102 0.8202
46.4012 -17.3066 -2.5116 0.8201
47.0148 -15.6480 -2.5129 0.8200
47.5687 -13.9675 -2.5143 0.8199
48.0624 -12.2672 -2.5156 0.8198
45.5668 -9.9125 -2.3649 0.8296
38.7844 -6.9975 -1.9987 0.8540
46.5841 -3.3318 -2.3685 0.8294
46.6956 -1.6677 -2.3696 0.8293
-33.9049 0.0000 -2.4860 0.8729
-31.6310 -3.4007 -2.3326 0.8802
-26.8891 -3.8661 -1.9918 0.8968
-25.7696 -4.6493 -1.9200 0.9003
-31.0606 -6.7568 -2.3307 0.8803
-29.6960 -8.7195 -2.2693 0.8833
-30.2068 -10.0538 -2.3343 0.8801
-17.5174 -8.7686 -1.4363 0.9244
-26.9911 -17.3461 -2.3525 0.8793
-17.8641 -12.4033 -1.5946 0.9165
-18.1475 -13.5850 -1.6621 0.9131
-25.0515 -20.1878 -2.3590 0.8789
-24.3349 -21.0863 -2.3610 0.8788
-22.8037 -22.8037 -2.3646 0.8787
-21.9903 -23.6192 -2.3662 0.8786
-18.4477 -26.5697 -2.3717 0.8783
-17.4952 -27.2230 -2.3727 0.8783
-16.5188 -27.8410 -2.3736 0.8782
-15.5201 -28.4229 -2.3745 0.8782
-13.4601 -29.4734 -2.3757 0.8781
-12.4016 -29.9402 -2.3762 0.8781
-9.4456 -25.3246 -1.9818 0.8973
-9.3055 -27.9586 -2.1606 0.8885
-3.1714 -29.4988 -2.1754 0.8878
-0.9575 -13.3873 -0.9841 0.9476
3.4537 -32.1245 -2.3690 0.8785
6.8544 -31.5093 -2.3644 0.8787
6.2578 -21.3121 -1.6286 0.9148
12.2887 -29.6675 -2.3545 0.8792
13.0180 -28.5054 -2.2977 0.8819
11.8128 -23.5990 -1.9350 0.8996
10.1981 -18.6765 -1.5603 0.9182
10.9309 -18.4230 -1.5707 0.9177
17.2716 -26.8751 -2.3424 0.8797
19.1375 -25.5648 -2.3415 0.8798
17.6266 -20.3421 -1.9736 0.8977
22.6149 -22.6149 -2.3450 0.8796
23.5360 -21.9128 -2.3579 0.8790
25.7455 -22.3086 -2.4978 0.8723
27.3037 -20.4393 -2.5008 0.8722
28.0266 -19.4593 -2.5017 0.8721
28.7145 -18.4537 -2.5027 0.8721
29.3662 -17.4238 -2.5037 0.8720
29.9809 -16.3708 -2.5046 0.8720
31.5953 -13.0872 -2.5075 0.8718
32.0544 -11.9557 -2.5085 0.8718
32.8500 -9.6456 -2.5103 0.8717
33.7292 -6.0854 -2.5130 0.8716
31.8720 -4.5825 -2.3610 0.8788
32.0263 -3.4432 -2.3618 0.8788
32.1395 -2.2987 -2.3626 0.8788
32.2118 -1.1504 -2.3633 0.8787
-25.9324 0.0000 -2.4896 0.9010
-25.8542 -1.8491 -2.4885 0.9011
-25.7660 -2.7701 -2.4879 0.9011
-23.9408 -4.3194 -2.3355 0.9069
-23.5623 -6.0139 -2.3346 0.9069
-23.3283 -6.8498 -2.3342 0.9069
-19.6500 -6.5401 -1.9883 0.9201
-18.5152 -6.9058 -1.8972 0.9237
-17.0961 -10.1436 -1.9085 0.9232
-19.9933 -13.8816 -2.3368 0.9068
-18.4316 -15.9711 -2.3414 0.9066
-17.2654 -17.2654 -2.3441 0.9065
-16.0061 -18.4720 -2.3465 0.9065
-11.8602 -14.7176 -1.8146 0.9269
-13.9572 -20.1022 -2.3495 0.9063
-12.4957 -21.0603 -2.3510 0.9063
-11.7392 -21.4987 -2.3516 0.9063
-10.9668 -21.9090 -2.3522 0.9062
-10.1796 -22.2903 -2.3526 0.9062
-9.3790 -22.6428 -2.3529 0.9062
-6.9063 -23.5208 -2.3534 0.9062
-6.0624 -23.7521 -2.3534 0.9062
-4.3517 -24.1201 -2.3530 0.9062
-2.6191 -24.3613 -2.3523 0.9062
-0.9574 -13.3860 -1.2884 0.9475
0.5513 -15.4372 -1.4830 0.9398
1.7453 -24.4021 -2.3487 0.9064
4.3378 -24.0426 -2.3455 0.9065
5.1904 -23.8598 -2.3442 0.9065
7.6973 -23.1266 -2.3400 0.9067
8.5121 -22.8219 -2.3385 0.9068
9.3234 -22.5086 -2.3390 0.9067
10.1234 -22.1671 -2.3396 0.9067
10.9109 -21.7972 -2.3402 0.9067
10.1995 -18.6789 -2.0432 0.9180
13.1890 -20.5224 -2.3420 0.9066
13.9169 -20.0441 -2.3427 0.9066
14.6275 -19.5401 -2.3433 0.9066
16.7387 -19.3175 -2.4540 0.9024
17.7251 -19.0381 -2.4973 0.9008
18.3986 -18.3986 -2.4980 0.9007
19.6758 -17.0492 -2.4995 0.9007
20.2778 -16.3409 -2.5002 0.9006
20.8543 -15.6113 -2.5009 0.9006
21.9278 -14.0921 -2.5024 0.9006
22.8907 -12.4993 -2.5039 0.9005
23.3291 -11.6777 -2.5046 0.9005
23.7380 -10.8408 -2.5054 0.9004
24.7821 -8.2483 -2.5075 0.9004
25.0678 -7.3606 -2.5082 0.9003
25.3216 -6.4630 -2.5089 0.9003
24.5666 -0.8774 -2.3600 0.9059
-20.9782 0.0000 -2.4919 0.9190
-20.7493 -2.9833 -2.4901 0.9190
-20.6262 -3.7214 -2.4897 0.9190
-20.2924 -5.1793 -2.4877 0.9191
-18.6731 -6.2150 -2.3377 0.9238
-17.3313 -7.9149 -2.2632 0.9261
-16.5033 -8.2609 -2.1922 0.9284
-16.1444 -11.2093 -2.3346 0.9239
-14.8506 -12.8681 -2.3342 0.9239
-13.3882 -14.3799 -2.3339 0.9239
-11.2156 -16.1535 -2.3360 0.9238
-9.4316 -17.2726 -2.3377 0.9238
-7.5346 -18.1901 -2.3388 0.9238
-6.8812 -18.4491 -2.3390 0.9237
-4.8700 -19.0805 -2.3392 0.9237
-4.1857 -19.2414 -2.3391 0.9237
-3.4960 -19.3771 -2.3389 0.9238
-2.8019 -19.4873 -2.3386 0.9238
-0.9573 -13.3848 -1.5940 0.9474
-0.0000 -19.6726 -2.3368 0.9238
0.5514 -15.4401 -1.8352 0.9397
1.6103 -14.9782 -1.7895 0.9411
2.1800 -15.1625 -1.8196 0.9402
3.4952 -19.3726 -2.3383 0.9238
4.8700 -19.0806 -2.3392 0.9237
5.5490 -18.8981 -2.3396 0.9237
7.5417 -18.2072 -2.3410 0.9237
9.4506 -17.3075 -2.3424 0.9236
11.0273 -17.1589 -2.4229 0.9211
12.5943 -16.8240 -2.4964 0.9188
14.8741 -14.8741 -2.4987 0.9188
16.8555 -12.6179 -2.5011 0.9187
18.1207 -10.7515 -2.5028 0.9186
18.8505 -9.4359 -2.5040 0.9186
19.1798 -8.7591 -2.5046 0.9186
20.4538 -5.2205 -2.5075 0.9185
21.0783 -1.5075 -2.5102 0.9184
-17.5840 -0.6280 -2.4931 0.9314
-17.5477 -1.2550 -2.4927 0.9314
-17.1805 -3.7374 -2.4912 0.9314
-17.0339 -4.3476 -2.4909 0.9314
-16.8657 -4.9522 -2.4906 0.9314
-16.6762 -5.5504 -2.4903 0.9315
-16.4656 -6.1413 -2.4900 0.9315
-15.0446 -7.5308 -2.3838 0.9343
-14.4884 -7.9112 -2.3389 0.9355
-14.1871 -8.4176 -2.3374 0.9355
-13.8765 -8.9179 -2.3372 0.9355
-13.5484 -9.4068 -2.3370 0.9355
-12.8413 -10.3481 -2.3367 0.9355
-12.0691 -11.2368 -2.3365 0.9356
-11.6600 -11.6600 -2.3364 0.9356
-10.7978 -12.4614 -2.3363 0.9356
-8.3464 -11.1495 -1.9734 0.9453
-7.9023 -14.4720 -2.3363 0.9356
-7.3809 -14.7452 -2.3364 0.9356
-6.3107 -15.2353 -2.3365 0.9355
-5.7631 -15.4516 -2.3367 0.9355
-5.2083 -15.6483 -2.3368 0.9355
-4.6467 -15.8252 -2.3369 0.9355
-4.0792 -15.9820 -2.3371 0.9355
-2.9291 -16.2348 -2.3374 0.9355
-1.7638 -16.4054 -2.3379 0.9355
-0.9518 -13.3083 -1.8905 0.9475
-0.0000 -14.5034 -2.0550 0.9431
0.5205 -14.5750 -2.0664 0.9428
2.1800 -15.1623 -2.1704 0.9400
4.0857 -16.0075 -2.3408 0.9354
4.6551 -15.8539 -2.3412 0.9354
7.1659 -15.6911 -2.4441 0.9327
10.0498 -14.4744 -2.4967 0.9313
11.0609 -13.7258 -2.4977 0.9313
12.4721 -12.4721 -2.4991 0.9312
12.9119 -12.0214 -2.4996 0.9312
13.3353 -11.5551 -2.5001 0.9312
13.7420 -11.0740 -2.5006 0.9312
14.5028 -10.0695 -2.5016 0.9312
14.8560 -9.5474 -2.5021 0.9311
16.5655 -6.1786 -2.5051 0.9311
16.7787 -5.5845 -2.5056 0.9311
17.2893 -3.7611 -2.5070 0.9310
17.4158 -3.1421 -2.5075 0.9310
17.6018 -1.8924 -2.5084 0.9310
6.7692 -0.2418 -0.9597 0.9730
-14.9805 -2.1539 -2.4933 0.9405
-14.8923 -2.6869 -2.4930 0.9405
-14.7851 -3.2163 -2.4927 0.9405
-14.6593 -3.7416 -2.4924 0.9405
-14.5148 -4.2619 -2.4921 0.9405
-14.1709 -5.2855 -2.4916 0.9405
-13.2699 -7.2459 -2.4907 0.9405
-9.6714 -10.3878 -2.3381 0.9441
-8.9054 -11.0509 -2.3381 0.9441
-8.3468 -11.1501 -2.2945 0.9451
-8.0943 -11.6579 -2.3380 0.9441
-6.8019 -12.4568 -2.3381 0.9441
-6.3531 -12.6919 -2.3382 0.9441
-4.9605 -13.2997 -2.3384 0.9441
-3.0180 -13.8733 -2.3389 0.9441
0.0000 -14.2049 -2.3401 0.9440
1.0136 -14.1716 -2.3406 0.9440
1.5189 -14.1280 -2.3408 0.9440
3.0795 -14.1563 -2.3866 0.9430
4.2547 -14.4901 -2.4879 0.9406
4.7797 -14.3608 -2.4934 0.9405
5.2921 -14.1887 -2.4947 0.9405
6.2927 -13.7791 -2.4955 0.9404
7.2618 -13.2991 -2.4962 0.9404
8.1947 -12.7511 -2.4970 0.9404
9.9324 -11.4626 -2.4986 0.9404
11.1064 -10.3404 -2.4999 0.9403
13.0641 -7.7513 -2.5025 0.9403
13.8249 -6.3136 -2.5038 0.9402
14.5924 -4.2847 -2.5054 0.9402
14.7384 -3.7618 -2.5058 0.9402
14.8657 -3.2338 -2.5062 0.9402
14.9740 -2.7016 -2.5066 0.9402
15.1332 -1.6270 -2.5074 0.9402
-13.2764 0.0000 -2.4954 0.9474
-13.2663 -0.4738 -2.4951 0.9474
-13.1956 -1.4187 -2.4946 0.9474
-13.1351 -1.8885 -2.4943 0.9474
-13.0579 -2.3559 -2.4940 0.9474
-12.8540 -3.2808 -2.4935 0.9474
-12.7275 -3.7371 -2.4933 0.9474
-12.5849 -4.1886 -2.4930 0.9474
-12.4262 -4.6348 -2.4928 0.9475
-11.6366 -6.3541 -2.4921 0.9475
-11.4017 -6.7650 -2.4919 0.9475
-10.3208 -8.3170 -2.4914 0.9475
-10.0170 -8.6797 -2.4913 0.9475
-9.6982 -9.0294 -2.4906 0.9475
-8.1105 -10.0645 -2.4295 0.9488
-7.6614 -10.2344 -2.4030 0.9493
-7.2209 -10.4000 -2.3798 0.9498
-6.3625 -10.7235 -2.3437 0.9505
-5.9651 -10.9242 -2.3395 0.9506
-5.5715 -11.1304 -2.3395 0.9506
-4.7635 -11.5001 -2.3397 0.9506
-4.3502 -11.6633 -2.3398 0.9506
-3.9313 -11.8116 -2.3399 0.9506
-3.5073 -11.9449 -2.3400 0.9506
-3.0815 -12.0732 -2.3420 0.9506
-2.2108 -12.2535 -2.3404 0.9506
-1.3467 -12.5265 -2.3681 0.9500
-0.0000 -13.0064 -2.4447 0.9484
0.9443 -13.2034 -2.4881 0.9475
1.4169 -13.1792 -2.4914 0.9475
1.8882 -13.1329 -2.4939 0.9474
2.3560 -13.0586 -2.4941 0.9474
2.8209 -12.9676 -2.4944 0.9474
3.7397 -12.7362 -2.4950 0.9474
4.1924 -12.5961 -2.4953 0.9474
5.0815 -12.2680 -2.4959 0.9474
5.9453 -11.8773 -2.4965 0.9474
6.3663 -11.6591 -2.4969 0.9474
7.5793 -10.9163 -2.4979 0.9473
7.9652 -10.6403 -2.4983 0.9473
8.3412 -10.3508 -2.4986 0.9473
9.0610 -9.7322 -2.4994 0.9473
9.7351 -9.0637 -2.5001 0.9473
10.0539 -8.7117 -2.5005 0.9473
10.9324 -7.5905 -2.5016 0.9473
11.9086 -5.9610 -2.5031 0.9472
12.3071 -5.0978 -2.5039 0.9472
12.4831 -4.6559 -2.5042 0.9472
12.6431 -4.2080 -2.5046 0.9472
12.7871 -3.7546 -2.5049 0.9472
12.9148 -3.2963 -2.5053 0.9472
13.2597 -1.4256 -2.5067 0.9472
13.3039 -0.9515 -2.5070 0.9472
13.3311 -0.4761 -2.5073 0.9472
-11.7999 -0.4214 -2.4958 0.9529
-11.7761 -0.8422 -2.4956 0.9529
-11.7373 -1.2619 -2.4953 0.9529
-11.6836 -1.6798 -2.4951 0.9529
-11.6151 -2.0956 -2.4948 0.9529
-11.3215 -3.3243 -2.4942 0.9529
-11.1948 -3.7260 -2.4940 0.9529
-11.0538 -4.1228 -2.4938 0.9529
-10.7300 -4.9002 -2.4934 0.9529
-10.3517 -5.6525 -2.4931 0.9529
-10.1428 -6.0180 -2.4930 0.9529
-9.9210 -6.3759 -2.4928 0.9529
-9.1815 -7.3989 -2.4925 0.9529
-8.6297 -8.0345 -2.4924 0.9529
-8.3372 -8.3372 -2.4923 0.9529
-8.0341 -8.6293 -2.4922 0.9529
-7.7209 -8.9104 -2.4922 0.9529
-7.0655 -9.4383 -2.4922 0.9529
-6.0161 -10.1396 -2.4922 0.9529
-5.6504 -10.3480 -2.4922 0.9529
-4.8980 -10.7252 -2.4923 0.9529
-4.1201 -11.0465 -2.4921 0.9529
-3.3223 -11.3146 -2.4926 0.9529
-2.5069 -11.5239 -2.4929 0.9529
1.6796 -11.6819 -2.4947 0.9529
2.0957 -11.6156 -2.4949 0.9529
2.9196 -11.4387 -2.4954 0.9529
3.3263 -11.3284 -2.4957 0.9529
3.7289 -11.2037 -2.4960 0.9529
4.1269 -11.0646 -2.4962 0.9529
4.9068 -10.7445 -2.4968 0.9529
6.0294 -10.1620 -2.4977 0.9528
7.0838 -9.4628 -2.4986 0.9528
8.0579 -8.6548 -2.4996 0.9528
8.3627 -8.3627 -2.4999 0.9528
8.6570 -8.0600 -2.5003 0.9528
8.9404 -7.7469 -2.5006 0.9528
9.2124 -7.4239 -2.5009 0.9528
9.4728 -7.0913 -2.5013 0.9528
9.7212 -6.7495 -2.5016 0.9528
10.3912 -5.6740 -2.5026 0.9527
10.5885 -5.3002 -2.5029 0.9527
10.7723 -4.9196 -2.5033 0.9527
11.3687 -3.3381 -2.5046 0.9527
11.8271 -0.8459 -2.5064 0.9527
11.8511 -0.4233 -2.5067 0.9527
-10.6152 -0.3791 -2.4964 0.9573
-10.4494 -1.8853 -2.4955 0.9573
-9.3135 -5.0856 -2.4940 0.9573
-8.9261 -5.7365 -2.4937 0.9573
-8.2608 -6.6570 -2.4934 0.9573
-8.0177 -6.9474 -2.4933 0.9573
-7.7644 -7.2289 -2.4933 0.9573
-7.2286 -7.7641 -2.4932 0.9573
-6.6562 -8.2598 -2.4931 0.9573
-6.0499 -8.7135 -2.4931 0.9573
-5.7351 -8.9239 -2.4931 0.9573
-5.0839 -9.3105 -2.4931 0.9573
-3.3505 -10.0665 -2.4935 0.9573
-2.2555 -10.3682 -2.4938 0.9573
-1.8841 -10.4426 -2.4939 0.9573
-1.1344 -10.5516 -2.4942 0.9573
-0.3788 -10.6069 -2.4945 0.9573
-0.0000 -10.6144 -2.4946 0.9573
0.3789 -10.6084 -2.4948 0.9573
0.7573 -10.5889 -2.4950 0.9573
1.1349 -10.5560 -2.4952 0.9573
1.5110 -10.5096 -2.4954 0.9573
3.3546 -10.0788 -2.4965 0.9573
4.4140 -9.6654 -2.4973 0.9573
4.7567 -9.5027 -2.4975 0.9573
5.7471 -8.9427 -2.4984 0.9573
6.3719 -8.5119 -2.4989 0.9573
6.6724 -8.2800 -2.4992 0.9572
6.9645 -8.0375 -2.4995 0.9572
7.5219 -7.5219 -2.5001 0.9572
8.0413 -6.9678 -2.5007 0.9572
8.7432 -6.0705 -2.5016 0.9572
9.3454 -5.1030 -2.5025 0.9572
9.8409 -4.0762 -2.5034 0.9572
9.9812 -3.7228 -2.5037 0.9572
10.1089 -3.3646 -2.5040 0.9572
10.4142 -2.2655 -2.5048 0.9572
10.5516 -1.5171 -2.5054 0.9571
10.6002 -1.1396 -2.5056 0.9571
-9.6374 -0.3442 -2.4969 0.9609
-9.5867 -1.0307 -2.4965 0.9609
-9.5430 -1.3721 -2.4963 0.9609
-9.4872 -1.7117 -2.4961 0.9609
-9.4194 -2.0491 -2.4959 0.9610
-9.3395 -2.3838 -2.4957 0.9610
-9.1444 -3.0436 -2.4954 0.9610
-8.9029 -3.6877 -2.4950 0.9610
-8.1047 -5.2086 -2.4944 0.9610
-7.9133 -5.4943 -2.4943 0.9610
-7.7119 -5.7730 -2.4942 0.9610
-7.2800 -6.3081 -2.4941 0.9610
-6.8111 -6.8111 -2.4940 0.9610
-6.5635 -7.0497 -2.4939 0.9610
-5.2074 -8.1029 -2.4939 0.9610
-4.6162 -8.4539 -2.4939 0.9610
-4.0014 -8.7619 -2.4940 0.9610
-3.6862 -8.8994 -2.4941 0.9610
-2.7141 -9.2433 -2.4943 0.9610
-2.3825 -9.3346 -2.4944 0.9610
-1.7107 -9.4816 -2.4946 0.9610
-1.3712 -9.5370 -2.4947 0.9610
-0.6874 -9.6116 -2.4950 0.9610
-0.3440 -9.6306 -2.4951 0.9610
1.3719 -9.5418 -2.4960 0.9610
2.7168 -9.2525 -2.4968 0.9609
3.0455 -9.1504 -2.4970 0.9609
3.3705 -9.0367 -2.4972 0.9609
4.3184 -8.6270 -2.4979 0.9609
4.6240 -8.4682 -2.4981 0.9609
4.9238 -8.2986 -2.4984 0.9609
6.0572 -7.5165 -2.4994 0.9609
6.3223 -7.2963 -2.4997 0.9609
6.5794 -7.0667 -2.5000 0.9609
7.5213 -6.0611 -2.5010 0.9609
7.7337 -5.7894 -2.5013 0.9609
7.9363 -5.5103 -2.5016 0.9609
8.6435 -4.3266 -2.5027 0.9608
8.7934 -4.0158 -2.5029 0.9608
9.0594 -3.3790 -2.5035 0.9608
9.1752 -3.0538 -2.5037 0.9608
9.2793 -2.7247 -2.5040 0.9608
9.3716 -2.3920 -2.5043 0.9608
9.4520 -2.0562 -2.5045 0.9608
9.5203 -1.7177 -2.5048 0.9608
9.5765 -1.3769 -2.5050 0.9608
9.6205 -1.0343 -2.5053 0.9608
9.6522 -0.6903 -2.5055 0.9608
-8.8221 0.0000 -2.4975 0.9640
-8.8158 -0.3149 -2.4973 0.9640
-8.7982 -0.6293 -2.4971 0.9640
-8.7695 -0.9428 -2.4969 0.9640
-8.6786 -1.5658 -2.4965 0.9640
-8.5437 -2.1806 -2.4962 0.9640
-7.8822 -3.9456 -2.4953 0.9640
-7.7360 -4.2242 -2.4952 0.9640
-7.5800 -4.4974 -2.4951 0.9640
-7.4144 -4.7649 -2.4950 0.9640
-7.2393 -5.0263 -2.4949 0.9640
-6.6600 -5.7709 -2.4947 0.9640
-6.4496 -6.0048 -2.4947 0.9640
-5.5291 -6.8612 -2.4945 0.9640
-5.2806 -7.0541 -2.4945 0.9640
-4.4964 -7.5782 -2.4945 0.9640
-3.3723 -8.1415 -2.4947 0.9640
-3.0797 -8.2569 -2.4948 0.9640
-2.4829 -8.4560 -2.4949 0.9640
-2.1796 -8.5395 -2.4950 0.9640
-0.9423 -8.7643 -2.4954 0.9640
-0.6289 -8.7928 -2.4955 0.9640
-0.3147 -8.8101 -2.4957 0.9640
0.3147 -8.8111 -2.4959 0.9640
0.6290 -8.7948 -2.4961 0.9640
1.2550 -8.7287 -2.4964 0.9640
1.8748 -8.6181 -2.4968 0.9640
2.4852 -8.4637 -2.4972 0.9640
2.7859 -8.3703 -2.4974 0.9640
3.3765 -8.1516 -2.4978 0.9640
3.6656 -8.0265 -2.4980 0.9640
4.2296 -7.7459 -2.4984 0.9640
4.7723 -7.4258 -2.4989 0.9640
5.0348 -7.2514 -2.4991 0.9640
5.2909 -7.0678 -2.4994 0.9640
5.5403 -6.8751 -2.4996 0.9640
6.2453 -6.2453 -2.5003 0.9639
6.4649 -6.0190 -2.5006 0.9639
6.6763 -5.7850 -2.5008 0.9639
6.8792 -5.5436 -2.5011 0.9639
7.7580 -4.2362 -2.5023 0.9639
8.2852 -3.0902 -2.5033 0.9639
8.4862 -2.4918 -2.5038 0.9639
8.5705 -2.1875 -2.5040 0.9639
8.6439 -1.8804 -2.5043 0.9639
8.7063 -1.5708 -2.5045 0.9639
8.7576 -1.2592 -2.5047 0.9639
8.8444 -0.3159 -2.5054 0.9639
-8.0990 -0.5792 -2.4974 0.9666
-8.0726 -0.8679 -2.4973 0.9666
-7.9890 -1.4414 -2.4969 0.9666
-7.9320 -1.7255 -2.4968 0.9666
-7.7878 -2.2867 -2.4965 0.9666
-7.7007 -2.5631 -2.4963 0.9666
-7.6040 -2.8361 -2.4962 0.9666
-7.4975 -3.1056 -2.4961 0.9666
-6.8255 -4.3865 -2.4955 0.9666
-6.6644 -4.6272 -2.4955 0.9666
-6.4948 -4.8619 -2.4954 0.9666
-6.3170 -5.0905 -2.4953 0.9666
-6.1311 -5.3126 -2.4953 0.9666
-5.0901 -6.3164 -2.4951 0.9666
-4.8614 -6.4940 -2.4951 0.9666
-4.3857 -6.8243 -2.4951 0.9666
-4.1393 -6.9765 -2.4951 0.9666
-3.6312 -7.2542 -2.4951 0.9666
-3.3700 -7.3793 -2.4952 0.9666
-2.8351 -7.6012 -2.4953 0.9666
-2.5621 -7.6977 -2.4954 0.9666
-1.7247 -7.9282 -2.4956 0.9666
-0.8674 -8.0681 -2.4959 0.9666
-0.2897 -8.1102 -2.4961 0.9666
1.4414 -7.9893 -2.4970 0.9666
2.2876 -7.7910 -2.4975 0.9666
2.5645 -7.7050 -2.4977 0.9666
3.3742 -7.3884 -2.4983 0.9666
3.6360 -7.2638 -2.4985 0.9666
3.8933 -7.1300 -2.4987 0.9666
4.1456 -6.9871 -2.4989 0.9666
4.3927 -6.8353 -2.4991 0.9666
4.8700 -6.5056 -2.4995 0.9666
5.9504 -5.5400 -2.5007 0.9665
6.1449 -5.3246 -2.5009 0.9665
6.5103 -4.8736 -2.5013 0.9665
6.6807 -4.6385 -2.5016 0.9665
6.8426 -4.3975 -2.5018 0.9665
7.2755 -3.6419 -2.5025 0.9665
7.6252 -2.8441 -2.5032 0.9665
7.7225 -2.5703 -2.5034 0.9665
7.8876 -2.0132 -2.5038 0.9665
7.9551 -1.7305 -2.5040 0.9665
8.0125 -1.4456 -2.5043 0.9665
8.0596 -1.1588 -2.5045 0.9665
8.0965 -0.8705 -2.5047 0.9665
8.1231 -0.5810 -2.5049 0.9665
-7.5152 0.0000 -2.4981 0.9688
-7.3933 -1.3339 -2.4973 0.9688
-7.3406 -1.5969 -2.4971 0.9688
-7.2785 -1.8577 -2.4970 0.9688
-6.9386 -2.8741 -2.4965 0.9688
-6.8313 -3.1198 -2.4964 0.9688
-6.7154 -3.3615 -2.4963 0.9688
-6.5908 -3.5989 -2.4962 0.9688
-6.4580 -3.8317 -2.4961 0.9688
-6.3169 -4.0596 -2.4960 0.9688
-6.1678 -4.2824 -2.4959 0.9688
-6.0108 -4.4996 -2.4958 0.9688
-5.8462 -4.7112 -2.4958 0.9688
-5.6742 -4.9168 -2.4957 0.9688
-4.9165 -5.6739 -2.4956 0.9688
-4.2817 -6.1669 -2.4956 0.9688
-4.0589 -6.3158 -2.4956 0.9688
-2.8732 -6.9365 -2.4957 0.9688
-2.3711 -7.1241 -2.4958 0.9688
-2.1154 -7.2044 -2.4959 0.9688
-1.8570 -7.2755 -2.4959 0.9688
-0.5358 -7.4910 -2.4964 0.9688
0.5359 -7.4925 -2.4969 0.9688
1.0691 -7.4360 -2.4972 0.9688
1.3339 -7.3935 -2.4973 0.9688
2.1170 -7.2100 -2.4978 0.9688
4.0649 -6.3252 -2.4993 0.9688
4.2885 -6.1766 -2.4995 0.9688
4.5066 -6.0200 -2.4997 0.9688
4.7189 -5.8558 -2.4999 0.9688
5.3192 -5.3192 -2.5005 0.9688
5.5061 -5.1264 -2.5007 0.9688
5.6860 -4.9270 -2.5009 0.9688
5.8588 -4.7213 -2.5011 0.9688
6.0241 -4.5096 -2.5014 0.9688
6.1817 -4.2921 -2.5016 0.9688
6.7319 -3.3698 -2.5024 0.9688
6.9563 -2.8814 -2.5028 0.9688
7.1453 -2.3782 -2.5033 0.9688
7.2980 -1.8627 -2.5037 0.9688
7.3604 -1.6012 -2.5039 0.9687
7.4134 -1.3375 -2.5041 0.9687
7.4911 -0.8054 -2.5044 0.9687
-6.9449 -0.7467 -2.4979 0.9708
-6.9134 -0.9940 -2.4977 0.9708
-6.7002 -1.9673 -2.4972 0.9708
-6.5421 -2.4401 -2.4969 0.9708
-6.2430 -3.1250 -2.4966 0.9708
-6.1273 -3.3458 -2.4965 0.9708
-6.0038 -3.5622 -2.4965 0.9708
-5.8726 -3.7741 -2.4964 0.9708
-5.4351 -4.3799 -2.4962 0.9708
-5.2752 -4.5710 -2.4961 0.9708
-4.9355 -4.9355 -2.4961 0.9708
-4.5708 -5.2749 -2.4960 0.9708
-4.1828 -5.5875 -2.4960 0.9708
-3.9807 -5.7332 -2.4960 0.9708
-3.5615 -6.0026 -2.4960 0.9708
-3.3450 -6.1260 -2.4960 0.9708
-2.4393 -6.5401 -2.4962 0.9708
-2.2044 -6.6231 -2.4962 0.9708
-1.4839 -6.8214 -2.4964 0.9708
-1.2395 -6.8702 -2.4965 0.9708
-0.9935 -6.9103 -2.4966 0.9708
0.0000 -6.9825 -2.4970 0.9708
0.2492 -6.9784 -2.4971 0.9708
0.4982 -6.9654 -2.4972 0.9708
0.9939 -6.9128 -2.4975 0.9708
2.2062 -6.6285 -2.4982 0.9708
2.9026 -6.3559 -2.4987 0.9708
3.7787 -5.8798 -2.4994 0.9707
3.9865 -5.7416 -2.4996 0.9707
4.1892 -5.5961 -2.4998 0.9707
4.3866 -5.4434 -2.5000 0.9707
4.9445 -4.9445 -2.5006 0.9707
5.8853 -3.7822 -2.5018 0.9707
6.0170 -3.5701 -2.5020 0.9707
6.1411 -3.3533 -2.5022 0.9707
6.2573 -3.1322 -2.5024 0.9707
6.4659 -2.6782 -2.5027 0.9707
6.6415 -2.2105 -2.5031 0.9707
6.7833 -1.7313 -2.5035 0.9707
6.8412 -1.4882 -2.5037 0.9707
6.8905 -1.2432 -2.5039 0.9707
6.9310 -0.9965 -2.5041 0.9707
6.9992 -0.2500 -2.5046 0.9707
-6.5025 -0.4651 -2.4982 0.9725
-6.4520 -0.9277 -2.4980 0.9725
-6.3688 -1.3854 -2.4977 0.9725
-6.3149 -1.6118 -2.4976 0.9725
-6.2531 -1.8361 -2.4975 0.9725
-6.1833 -2.0580 -2.4974 0.9725
-6.1057 -2.2773 -2.4972 0.9725
-5.8266 -2.9166 -2.4970 0.9725
-5.7186 -3.1226 -2.4969 0.9725
-5.6033 -3.3246 -2.4968 0.9725
-5.4809 -3.5224 -2.4967 0.9725
-5.3515 -3.7156 -2.4967 0.9725
-4.9234 -4.2661 -2.4965 0.9725
-4.7679 -4.4391 -2.4965 0.9725
-4.6063 -4.6063 -2.4964 0.9725
-3.5218 -5.4801 -2.4964 0.9725
-3.3240 -5.6023 -2.4964 0.9725
-2.4930 -6.0186 -2.4965 0.9725
-2.0574 -6.1814 -2.4966 0.9725
-1.8355 -6.2510 -2.4966 0.9725
-1.6112 -6.3127 -2.4967 0.9725
-0.9273 -6.4493 -2.4969 0.9725
-0.4649 -6.4995 -2.4971 0.9725
-0.2326 -6.5122 -2.4972 0.9725
-0.0000 -6.5166 -2.4973 0.9725
0.4649 -6.5006 -2.4975 0.9725
0.6967 -6.4802 -2.4976 0.9725
1.1573 -6.4146 -2.4979 0.9725
1.3856 -6.3696 -2.4980 0.9725
2.0589 -6.1860 -2.4985 0.9725
2.2785 -6.1090 -2.4986 0.9725
2.9190 -5.8315 -2.4991 0.9725
3.3281 -5.6092 -2.4994 0.9724
3.9094 -5.2223 -2.4999 0.9724
4.7762 -4.4468 -2.5008 0.9724
5.0820 -4.0954 -2.5012 0.9724
5.4919 -3.5295 -2.5017 0.9724
5.6148 -3.3314 -2.5019 0.9724
5.9401 -2.7127 -2.5025 0.9724
6.1973 -2.0627 -2.5030 0.9724
6.4673 -0.9299 -2.5039 0.9724
-6.0890 -0.4355 -2.4985 0.9740
-6.0693 -0.6525 -2.4983 0.9740
-5.9639 -1.2974 -2.4979 0.9740
-5.9135 -1.5093 -2.4978 0.9740
-5.7903 -1.9272 -2.4976 0.9740
-5.7175 -2.1325 -2.4975 0.9740
-5.4562 -2.7312 -2.4973 0.9740
-5.2472 -3.1133 -2.4971 0.9740
-5.1326 -3.2985 -2.4970 0.9740
-5.0115 -3.4795 -2.4970 0.9740
-4.8840 -3.6561 -2.4969 0.9740
-4.4649 -4.1570 -2.4968 0.9740
-4.1569 -4.4648 -2.4967 0.9740
-3.8277 -4.7499 -2.4967 0.9740
-3.2980 -5.1319 -2.4967 0.9740
-3.1128 -5.2463 -2.4967 0.9740
-2.9236 -5.3541 -2.4967 0.9740
-2.5342 -5.5492 -2.4968 0.9740
-2.3346 -5.6362 -2.4968 0.9740
-2.1320 -5.7160 -2.4968 0.9740
-1.9266 -5.7885 -2.4969 0.9740
-1.7188 -5.8537 -2.4969 0.9740
-0.8683 -6.0394 -2.4972 0.9740
-0.6522 -6.0668 -2.4973 0.9740
-0.4353 -6.0864 -2.4974 0.9740
-0.0000 -6.1024 -2.4976 0.9740
0.2178 -6.0988 -2.4977 0.9740
0.8686 -6.0414 -2.4980 0.9740
1.0837 -6.0068 -2.4981 0.9740
1.5097 -5.9148 -2.4984 0.9740
2.1336 -5.7204 -2.4988 0.9740
2.5366 -5.5543 -2.4991 0.9740
2.7334 -5.4606 -2.4992 0.9740
2.9267 -5.3599 -2.4994 0.9740
3.1163 -5.2523 -2.4995 0.9739
3.8331 -4.7566 -2.5002 0.9739
4.0007 -4.6171 -2.5004 0.9739
4.4722 -4.1638 -2.5009 0.9739
4.6183 -4.0018 -2.5010 0.9739
4.8927 -3.6626 -2.5014 0.9739
5.0207 -3.4859 -2.5016 0.9739
5.1422 -3.3047 -2.5017 0.9739
5.2573 -3.1193 -2.5019 0.9739
5.4672 -2.7367 -2.5023 0.9739
5.5617 -2.5400 -2.5024 0.9739
5.7295 -2.1370 -2.5028 0.9739
5.9263 -1.5126 -2.5033 0.9739
6.0199 -1.0861 -2.5036 0.9739
6.1026 -0.4365 -2.5040 0.9739
6.1147 -0.2184 -2.5042 0.9739
-5.7299 -0.2046 -2.4988 0.9753
-5.6743 -0.8158 -2.4984 0.9753
-5.6413 -1.0178 -2.4983 0.9753
-5.6011 -1.2184 -2.4982 0.9753
-5.4995 -1.6148 -2.4980 0.9753
-5.3699 -2.0029 -2.4978 0.9753
-5.2948 -2.1932 -2.4977 0.9753
-5.1245 -2.5651 -2.4975 0.9753
-4.7068 -3.2680 -2.4972 0.9753
-4.4615 -3.5953 -2.4971 0.9753
-4.3302 -3.7522 -2.4971 0.9753
-4.1935 -3.9043 -2.4971 0.9753
-3.7520 -4.3300 -2.4970 0.9753
-3.4335 -4.5866 -2.4970 0.9753
-2.9236 -4.9274 -2.4970 0.9753
-2.5646 -5.1235 -2.4970 0.9753
-2.0023 -5.3685 -2.4971 0.9753
-1.2180 -5.5993 -2.4973 0.9753
-1.0174 -5.6393 -2.4974 0.9753
-0.6126 -5.6979 -2.4975 0.9753
0.6127 -5.6992 -2.4981 0.9753
1.0178 -5.6414 -2.4983 0.9753
1.6153 -5.5011 -2.4987 0.9753
2.0038 -5.3724 -2.4990 0.9753
2.1944 -5.2978 -2.4991 0.9753
2.3822 -5.2164 -2.4992 0.9753
2.5670 -5.1283 -2.4994 0.9753
2.7486 -5.0337 -2.4995 0.9753
2.9267 -4.9327 -2.4997 0.9753
3.1011 -4.8254 -2.4998 0.9753
3.2715 -4.7119 -2.5000 0.9753
3.9098 -4.1994 -2.5006 0.9753
4.5947 -3.4396 -2.5014 0.9753
4.8290 -3.1034 -2.5017 0.9753
4.9371 -2.9293 -2.5019 0.9753
5.1341 -2.5700 -2.5022 0.9753
5.3051 -2.1974 -2.5025 0.9753
5.4490 -1.8136 -2.5028 0.9753
5.5106 -1.6181 -2.5030 0.9753
5.5652 -1.4204 -2.5032 0.9753
5.6127 -1.2210 -2.5033 0.9752
5.6530 -1.0199 -2.5035 0.9752
5.6861 -0.8175 -2.5036 0.9752
5.7120 -0.6141 -2.5037 0.9752
-5.3952 -0.1927 -2.4989 0.9765
-5.3672 -0.5770 -2.4987 0.9765
-5.3118 -0.9584 -2.4985 0.9765
-5.2295 -1.3348 -2.4983 0.9765
-5.1783 -1.5205 -2.4982 0.9765
-5.0563 -1.8859 -2.4980 0.9765
-4.8253 -2.4154 -2.4977 0.9765
-4.7359 -2.5860 -2.4977 0.9765
-4.4320 -3.0772 -2.4975 0.9765
-4.3192 -3.2333 -2.4974 0.9765
-4.0774 -3.5331 -2.4974 0.9765
-3.8149 -3.8149 -2.4973 0.9765
-3.6763 -3.9486 -2.4973 0.9765
-3.5330 -4.0773 -2.4973 0.9765
-3.3852 -4.2007 -2.4972 0.9765
-3.2331 -4.3189 -2.4972 0.9765
-3.0769 -4.4315 -2.4972 0.9765
-2.5855 -4.7351 -2.4973 0.9765
-2.4149 -4.8244 -2.4973 0.9765
-2.0646 -4.9845 -2.4973 0.9765
-1.8854 -5.0551 -2.4974 0.9765
-1.7039 -5.1192 -2.4974 0.9765
-1.3344 -5.2279 -2.4975 0.9765
-1.1469 -5.2724 -2.4976 0.9765
-0.9580 -5.3101 -2.4976 0.9765
-0.7679 -5.3410 -2.4977 0.9765
-0.5768 -5.3652 -2.4978 0.9765
-0.0000 -5.3966 -2.4980 0.9765
0.1926 -5.3934 -2.4981 0.9765
0.9584 -5.3119 -2.4985 0.9765
1.1474 -5.2746 -2.4986 0.9765
1.8867 -5.0586 -2.4991 0.9765
2.2430 -4.9116 -2.4994 0.9765
2.7557 -4.6444 -2.4998 0.9765
2.9198 -4.5434 -2.4999 0.9765
3.2369 -4.3240 -2.5002 0.9765
3.3894 -4.2060 -2.5003 0.9765
3.5375 -4.0825 -2.5005 0.9765
4.0835 -3.5384 -2.5011 0.9765
4.2075 -3.3906 -2.5013 0.9765
4.5466 -2.9219 -2.5017 0.9765
4.6483 -2.7580 -2.5019 0.9765
4.7441 -2.5905 -2.5020 0.9765
4.8338 -2.4196 -2.5022 0.9765
4.9174 -2.2457 -2.5023 0.9765
5.1882 -1.5234 -2.5029 0.9764
5.2842 -1.1495 -2.5032 0.9764
5.3777 -0.5782 -2.5036 0.9764
5.4058 -0.1931 -2.5039 0.9764
-5.0422 -0.7250 -2.4987 0.9776
-4.8869 -1.4349 -2.4984 0.9776
-4.7718 -1.7798 -2.4982 0.9776
-4.7051 -1.9489 -2.4981 0.9776
-4.6324 -2.1155 -2.4980 0.9776
-4.5538 -2.2795 -2.4980 0.9776
-4.1826 -2.9040 -2.4977 0.9776
-3.9647 -3.1949 -2.4976 0.9776
-3.8480 -3.3343 -2.4976 0.9776
-3.4695 -3.7265 -2.4975 0.9776
-3.3342 -3.8479 -2.4975 0.9776
-3.1947 -3.9644 -2.4975 0.9776
-2.9038 -4.1822 -2.4975 0.9776
-2.2791 -4.5530 -2.4975 0.9776
-2.1151 -4.6315 -2.4975 0.9776
-1.9485 -4.7041 -2.4976 0.9776
-1.7794 -4.7707 -2.4976 0.9776
-1.4346 -4.8856 -2.4977 0.9776
-0.9041 -5.0113 -2.4979 0.9776
-0.3633 -5.0797 -2.4981 0.9776
-0.1818 -5.0896 -2.4981 0.9776
0.3633 -5.0803 -2.4984 0.9776
0.5445 -5.0643 -2.4985 0.9776
0.7249 -5.0419 -2.4986 0.9776
0.9044 -5.0130 -2.4987 0.9776
1.0828 -4.9777 -2.4988 0.9776
1.6089 -4.8341 -2.4991 0.9776
1.9499 -4.7074 -2.4994 0.9776
2.1168 -4.6351 -2.4995 0.9776
2.2810 -4.5568 -2.4996 0.9776
2.4423 -4.4727 -2.4997 0.9776
2.6005 -4.3829 -2.4999 0.9776
2.7554 -4.2875 -2.5000 0.9775
2.9069 -4.1867 -2.5001 0.9775
3.0546 -4.0805 -2.5003 0.9775
3.1985 -3.9691 -2.5004 0.9775
3.4739 -3.7312 -2.5007 0.9775
3.7316 -3.4743 -2.5010 0.9775
3.8535 -3.3391 -2.5011 0.9775
3.9704 -3.1996 -2.5013 0.9775
4.0823 -3.0560 -2.5014 0.9775
4.1891 -2.9085 -2.5016 0.9775
4.2904 -2.7573 -2.5017 0.9775
4.4767 -2.4445 -2.5020 0.9775
4.6402 -2.1191 -2.5023 0.9775
4.7801 -1.7829 -2.5026 0.9775
4.9442 -1.2619 -2.5030 0.9775
4.9863 -1.0847 -2.5031 0.9775
5.0221 -0.9061 -2.5032 0.9775
5.0745 -0.5456 -2.5035 0.9775
-4.8144 -0.1719 -2.4992 0.9785
-4.8050 -0.3437 -2.4991 0.9785
-4.7895 -0.5149 -2.4990 0.9785
-4.7064 -1.0238 -2.4987 0.9785
-4.6211 -1.3569 -2.4985 0.9785
-4.5122 -1.6830 -2.4984 0.9785
-4.4491 -1.8429 -2.4983 0.9785
-4.3061 -2.1555 -2.4982 0.9785
-4.0507 -2.6032 -2.4980 0.9785
-3.9551 -2.7461 -2.4979 0.9785
-3.2808 -3.5238 -2.4977 0.9785
-3.0210 -3.7488 -2.4977 0.9785
-2.7459 -3.9548 -2.4977 0.9785
-2.4567 -4.1406 -2.4977 0.9785
-2.0001 -4.3796 -2.4978 0.9785
-1.8425 -4.4482 -2.4978 0.9785
-1.1908 -4.6655 -2.4979 0.9785
-0.6853 -4.7664 -2.4981 0.9785
-0.5148 -4.7879 -2.4982 0.9785
-0.1719 -4.8127 -2.4983 0.9785
0.1719 -4.8130 -2.4985 0.9785
0.3436 -4.8040 -2.4986 0.9785
0.6855 -4.7676 -2.4987 0.9785
0.8552 -4.7402 -2.4988 0.9785
1.0239 -4.7069 -2.4989 0.9785
1.3572 -4.6222 -2.4991 0.9785
1.5214 -4.5710 -2.4993 0.9785
1.8438 -4.4513 -2.4995 0.9785
2.1568 -4.3088 -2.4997 0.9785
2.3093 -4.2293 -2.4998 0.9785
2.4590 -4.1443 -2.5000 0.9785
2.7486 -3.9588 -2.5002 0.9785
2.8883 -3.8583 -2.5003 0.9785
3.0243 -3.7530 -2.5005 0.9785
3.1565 -3.6428 -2.5006 0.9785
3.4087 -3.4087 -2.5009 0.9785
3.6436 -3.1572 -2.5011 0.9785
3.9609 -2.7501 -2.5016 0.9785
4.2329 -2.3113 -2.5020 0.9785
4.3874 -2.0037 -2.5022 0.9785
4.4564 -1.8459 -2.5024 0.9785
4.5772 -1.5234 -2.5026 0.9785
4.7146 -1.0256 -2.5030 0.9785
4.7762 -0.6867 -2.5033 0.9785
4.8135 -0.3443 -2.5035 0.9785
4.8229 -0.1723 -2.5036 0.9785
-4.5604 -0.1629 -2.4993 0.9794
-4.5515 -0.3255 -2.4992 0.9794
-4.5368 -0.4878 -2.4991 0.9794
-4.5163 -0.6493 -2.4990 0.9794
-4.4582 -0.9698 -2.4989 0.9794
-4.3773 -1.2853 -2.4987 0.9794
-4.3285 -1.4407 -2.4986 0.9794
-4.2742 -1.5942 -2.4985 0.9794
-4.1494 -1.8949 -2.4984 0.9794
-4.0034 -2.1860 -2.4983 0.9794
-3.9227 -2.3275 -2.4982 0.9794
-3.8371 -2.4659 -2.4982 0.9794
-3.7466 -2.6013 -2.4981 0.9794
-3.6513 -2.7333 -2.4981 0.9794
-3.4469 -2.9867 -2.4980 0.9794
-3.2250 -3.2250 -2.4980 0.9794
-3.1078 -3.3380 -2.4979 0.9794
-2.8617 -3.5511 -2.4979 0.9794
-2.4657 -3.8367 -2.4979 0.9794
-2.3272 -3.9223 -2.4979 0.9794
-2.0415 -4.0783 -2.4979 0.9794
-1.8946 -4.1486 -2.4980 0.9794
-1.7454 -4.2137 -2.4980 0.9794
-1.5939 -4.2733 -2.4980 0.9794
-0.9696 -4.4570 -2.4982 0.9794
-0.8099 -4.4888 -2.4982 0.9794
-0.6492 -4.5150 -2.4983 0.9794
-0.1628 -4.5589 -2.4985 0.9794
0.1628 -4.5591 -2.4986 0.9794
0.3255 -4.5506 -2.4987 0.9794
0.6493 -4.5160 -2.4989 0.9794
0.8101 -4.4902 -2.4990 0.9794
1.5948 -4.2758 -2.4995 0.9794
1.7465 -4.2164 -2.4996 0.9794
1.8959 -4.1515 -2.4997 0.9794
2.1875 -4.0061 -2.4999 0.9794
2.3292 -3.9256 -2.5000 0.9794
3.3421 -3.1116 -2.5010 0.9794
3.4512 -2.9905 -2.5012 0.9794
3.5560 -2.8656 -2.5013 0.9794
3.6562 -2.7370 -2.5014 0.9794
3.7517 -2.6049 -2.5016 0.9794
3.8425 -2.4694 -2.5017 0.9794
3.9284 -2.3308 -2.5018 0.9794
4.0093 -2.1892 -2.5019 0.9794
4.0851 -2.0448 -2.5021 0.9794
4.1557 -1.8978 -2.5022 0.9794
4.2809 -1.5967 -2.5024 0.9794
4.3354 -1.4430 -2.5026 0.9794
4.3843 -1.2874 -2.5027 0.9794
4.4654 -0.9714 -2.5029 0.9794
4.5238 -0.6504 -2.5032 0.9794
-4.3264 -0.1545 -2.4994 0.9802
-4.3180 -0.3088 -2.4993 0.9802
-4.2846 -0.6160 -2.4992 0.9802
-4.2597 -0.7685 -2.4991 0.9802
-4.2295 -0.9201 -2.4990 0.9802
-4.1065 -1.3668 -2.4988 0.9802
-4.0550 -1.5124 -2.4987 0.9802
-3.9365 -1.7978 -2.4986 0.9802
-3.6403 -2.3395 -2.4983 0.9802
-3.2701 -2.8336 -2.4982 0.9802
-3.1669 -2.9484 -2.4982 0.9802
-2.8335 -3.2700 -2.4981 0.9802
-2.7149 -3.3690 -2.4981 0.9802
-2.5930 -3.4638 -2.4981 0.9802
-2.4677 -3.5541 -2.4981 0.9802
-2.0736 -3.7976 -2.4981 0.9802
-1.7975 -3.9359 -2.4981 0.9802
-1.3665 -4.1056 -2.4982 0.9802
-1.2191 -4.1519 -2.4983 0.9802
-0.9198 -4.2284 -2.4984 0.9802
-0.7683 -4.2586 -2.4984 0.9802
-0.6159 -4.2834 -2.4985 0.9802
-0.4626 -4.3028 -2.4985 0.9802
-0.1545 -4.3250 -2.4986 0.9802
-0.0000 -4.3279 -2.4987 0.9802
0.4627 -4.3035 -2.4989 0.9802
0.6160 -4.2844 -2.4990 0.9802
0.9201 -4.2298 -2.4992 0.9802
1.0706 -4.1944 -2.4993 0.9802
1.3672 -4.1077 -2.4995 0.9802
2.8364 -3.2734 -2.5007 0.9802
2.9516 -3.1702 -2.5008 0.9802
3.2740 -2.8370 -2.5012 0.9802
3.4684 -2.5964 -2.5014 0.9802
3.8753 -1.9398 -2.5020 0.9802
4.0042 -1.6586 -2.5023 0.9802
4.0610 -1.5147 -2.5024 0.9802
4.2360 -0.9215 -2.5029 0.9802
4.2664 -0.7697 -2.5030 0.9802
4.3248 -0.3093 -2.5033 0.9802
