ply
format ascii 1.0
element vertex 1276
property float32 x
property float32 y
property float32 z
property float32 I
end_header
-15.8708 -21.2009 4.6697 0.8980
-23.9741 -40.4062 8.2844 0.8263
-21.5614 -39.4868 7.9330 0.8330
-15.3803 -37.1313 7.0867 0.8494
-13.5956 -36.4512 6.8598 0.8538
-10.3385 -35.2098 6.4705 0.8615
-7.4172 -34.0964 6.1527 0.8679
-6.0582 -33.5785 6.0164 0.8706
-3.5054 -32.6054 5.7823 0.8753
-2.3096 -32.2925 5.7086 0.8768
-1.1373 -31.8456 5.6188 0.8786
1.1066 -30.9840 5.4668 0.8817
4.2613 -29.6380 5.2797 0.8855
6.5578 -30.1459 5.4398 0.8822
8.6695 -29.5257 5.4260 0.8825
11.5690 -31.0177 5.8373 0.8742
6.4998 -11.9036 2.3914 0.9464
6.9655 -11.7397 2.4070 0.9461
25.0556 -5.4505 4.5213 0.9011
-23.9759 -40.4091 7.1981 0.8268
-19.3436 -38.6437 6.6203 0.8396
-15.3812 -37.1336 6.1574 0.8499
-12.3788 -33.1888 5.4265 0.8665
-11.9747 -35.9781 5.8089 0.8577
-8.8820 -34.7993 5.5020 0.8647
-7.5487 -34.7008 5.4403 0.8661
-6.0908 -33.7591 5.2552 0.8704
-5.3303 -37.0730 5.7378 0.8594
-3.5056 -32.6071 5.0240 0.8757
-1.3213 -36.9966 5.6713 0.8609
0.0000 -31.2707 4.7905 0.8811
2.5410 -35.5274 5.4565 0.8658
12.7939 -30.8871 5.1216 0.8735
6.5028 -11.9090 2.0787 0.9466
6.9672 -11.7426 2.0917 0.9462
-15.8318 -21.1488 3.4402 0.8989
-26.6179 -41.4183 6.4113 0.8199
-23.9775 -40.4120 6.1191 0.8273
-19.6332 -35.9556 5.3347 0.8477
-15.2987 -36.9344 5.2059 0.8511
-13.5971 -36.4551 5.0667 0.8547
-12.5220 -37.6226 5.1635 0.8522
-6.0908 -33.7593 4.4672 0.8708
-3.5058 -32.6087 4.2708 0.8761
-2.3447 -32.7835 4.2800 0.8758
-1.3218 -37.0115 4.8227 0.8612
0.0000 -31.2722 4.0723 0.8815
1.1086 -31.0391 4.0445 0.8822
3.7857 -35.2119 4.6118 0.8669
4.2617 -29.6407 3.8995 0.8862
7.2721 -28.4918 3.8292 0.8882
8.6703 -29.5283 4.0075 0.8833
6.5058 -11.9145 1.7677 0.9467
6.9689 -11.7455 1.7785 0.9464
25.0967 -5.4595 3.3445 0.9016
-15.8125 -21.1231 2.8334 0.8993
-26.8848 -38.7216 5.0619 0.8273
-25.6716 -39.9459 5.0989 0.8261
-21.5656 -39.4945 4.8320 0.8344
-19.9259 -39.8069 4.7801 0.8360
-17.2929 -37.8661 4.4701 0.8458
-18.0278 -43.5230 5.0586 0.8274
-13.5978 -36.4573 4.1783 0.8551
-12.5221 -37.6228 4.2579 0.8526
-9.2551 -36.2613 4.0186 0.8602
-3.5059 -32.6103 3.5219 0.8764
-2.3447 -32.7837 3.5294 0.8761
0.0000 -31.2736 3.3582 0.8818
2.5429 -35.5548 3.8277 0.8664
3.7871 -35.2253 3.8044 0.8672
4.2619 -29.6420 3.2157 0.8865
6.1658 -34.1749 3.7290 0.8696
7.2724 -28.4931 3.1577 0.8884
8.6707 -29.5295 3.3048 0.8835
3.8822 -11.6642 1.3201 0.9517
6.5088 -11.9199 1.4584 0.9468
25.1171 -5.4639 2.7602 0.9018
-15.7934 -21.0976 2.2309 0.8996
-21.5671 -39.4972 3.8095 0.8347
-19.9260 -39.8071 3.7684 0.8364
-17.2940 -37.8685 3.5241 0.8461
-12.5221 -37.6230 3.3567 0.8528
-9.2552 -36.2615 3.1680 0.8605
-6.0909 -33.7597 2.9040 0.8714
-3.5061 -32.6119 2.7766 0.8766
-2.3447 -32.7839 2.7823 0.8764
0.0000 -31.2751 2.6475 0.8820
2.5410 -35.5281 3.0152 0.8668
3.7693 -35.0597 2.9850 0.8680
6.1609 -34.1478 2.9374 0.8700
7.2727 -28.4943 2.4895 0.8886
8.6710 -29.5308 2.6054 0.8838
3.8821 -11.6638 1.0406 0.9519
11.5953 -31.0882 2.8088 0.8753
12.7956 -30.8913 2.8305 0.8744
6.9723 -11.7512 1.1567 0.9466
25.1374 -5.4683 2.1777 0.9019
-23.4626 -21.8445 1.9879 0.8794
-20.9682 -38.4003 2.7131 0.8392
-19.9260 -39.8073 2.7604 0.8366
-14.1573 -34.1788 2.2941 0.8622
-13.5994 -36.4615 2.4131 0.8556
-8.6678 -39.8451 2.5286 0.8492
-5.5479 -38.5868 2.4172 0.8554
-2.6231 -24.3987 1.5217 0.9063
-2.3447 -32.7842 2.0381 0.8766
-1.3230 -37.0446 2.2986 0.8620
3.7738 -35.1011 2.1892 0.8681
6.1682 -34.1880 2.1542 0.8700
7.3400 -33.7412 2.1412 0.8708
5.0339 -19.7225 1.2622 0.9217
8.6714 -29.5320 1.9086 0.8840
3.8818 -11.6630 0.7622 0.9519
12.7962 -30.8927 2.0735 0.8746
6.5146 -11.9307 0.8429 0.9470
6.9740 -11.7541 0.8475 0.9467
16.0508 -17.2398 1.4607 0.9099
47.7077 -14.0082 3.0833 0.8193
-30.5755 -26.4938 1.5953 0.8505
-24.0814 -40.5871 1.8609 0.8279
-13.4220 -26.8138 1.1824 0.8869
-17.2961 -37.8732 1.6417 0.8465
-14.1099 -34.0642 1.4539 0.8628
-10.3419 -35.2215 1.4475 0.8633
-9.2553 -36.2619 1.4757 0.8609
-3.5065 -32.6151 1.2935 0.8769
-2.3448 -32.7844 1.2960 0.8767
0.0000 -31.2780 1.2333 0.8823
3.7739 -35.1027 1.3921 0.8682
7.3403 -33.7427 1.3616 0.8709
8.6718 -29.5333 1.2137 0.8841
3.8816 -11.6622 0.4847 0.9520
6.9757 -11.7569 0.5390 0.9467
23.1235 -35.9808 1.6865 0.8426
25.1780 -5.4771 1.0160 0.9020
36.2048 -1.2930 1.4285 0.8650
-15.7532 -21.0438 0.4440 0.9002
-24.0815 -40.5873 0.7972 0.8280
-21.5714 -39.5051 0.7603 0.8352
-17.9559 -43.3493 0.7926 0.8289
-13.6010 -36.4657 0.6574 0.8558
-12.5223 -37.6235 0.6698 0.8533
-9.2553 -36.2621 0.6322 0.8609
-8.6588 -39.8040 0.6881 0.8496
-6.0910 -33.7603 0.5795 0.8718
0.0000 -31.2795 0.5284 0.8824
1.1086 -31.0405 0.5247 0.8832
2.5414 -35.5330 0.6017 0.8672
4.2626 -29.6473 0.5059 0.8871
6.1617 -34.1523 0.5862 0.8704
7.2737 -28.4980 0.4968 0.8890
8.6721 -29.5345 0.5200 0.8841
10.7800 -28.9023 0.5211 0.8839
6.5205 -11.9414 0.2298 0.9470
6.9774 -11.7597 0.2310 0.9468
25.1983 -5.4816 0.4356 0.9020
-15.7484 -21.0374 -0.1480 0.9002
-17.2982 -37.8778 -0.2344 0.8466
-13.6018 -36.4678 -0.2191 0.8558
-10.3431 -35.2253 -0.2067 0.8634
-9.2554 -36.2623 -0.2107 0.8610
-5.5486 -38.5916 -0.2194 0.8556
-3.5068 -32.6182 -0.1847 0.8770
-2.3448 -32.7848 -0.1851 0.8768
-1.3232 -37.0498 -0.2087 0.8622
0.0000 -31.2809 -0.1761 0.8824
1.1086 -31.0408 -0.1749 0.8832
3.7791 -35.1507 -0.1990 0.8681
4.2591 -29.6226 -0.1685 0.8872
7.2740 -28.4993 -0.1656 0.8890
8.6725 -29.5358 -0.1733 0.8841
3.8811 -11.6607 -0.0692 0.9520
10.7834 -28.9114 -0.1737 0.8839
12.7979 -30.8968 -0.1883 0.8748
6.5234 -11.9468 -0.0766 0.9470
6.9791 -11.7626 -0.0770 0.9468
25.2186 -5.4860 -0.1453 0.9019
34.5080 -1.2324 -0.1944 0.8710
-30.5176 -26.4436 -1.1370 0.8508
-15.7436 -21.0310 -0.7397 0.9002
-24.0817 -40.5875 -1.3289 0.8279
-21.5743 -39.5104 -1.2676 0.8352
-10.3436 -35.2272 -1.0338 0.8634
-6.0911 -33.7607 -0.9660 0.8717
-5.5488 -38.5932 -1.0978 0.8555
-3.5070 -32.6198 -0.9238 0.8770
-2.3448 -32.7851 -0.9255 0.8768
-1.3233 -37.0516 -1.0440 0.8621
0.0000 -31.2823 -0.8808 0.8823
1.1086 -31.0411 -0.8746 0.8831
2.5445 -35.5765 -1.0043 0.8670
7.3490 -33.7827 -0.9735 0.8708
7.2743 -28.5005 -0.8282 0.8890
8.6729 -29.5370 -0.8668 0.8841
12.7985 -30.8982 -0.9417 0.8747
6.5264 -11.9521 -0.3835 0.9470
6.9808 -11.7654 -0.3852 0.9467
47.7070 -14.0080 -1.4000 0.8196
25.3712 -4.5775 -0.7259 0.9020
40.8522 -2.9218 -1.1532 0.8488
34.5623 -1.2344 -0.9738 0.8708
-46.4018 -4.9887 -2.3668 0.8295
-43.1622 -6.2058 -2.2114 0.8398
-45.8039 -8.2639 -2.3604 0.8299
-47.8886 -12.2228 -2.5065 0.8204
-46.7675 -15.5657 -2.4997 0.8209
-44.6549 -20.3932 -2.4896 0.8215
-43.8399 -21.9446 -2.4863 0.8217
-42.0517 -24.9504 -2.4797 0.8221
-41.0809 -26.4012 -2.4765 0.8224
-36.6212 -27.4143 -2.3199 0.8326
-29.7041 -25.7387 -1.9933 0.8543
-29.1439 -27.1339 -2.0194 0.8526
-30.7217 -30.7217 -2.2034 0.8403
-31.0844 -33.3870 -2.3134 0.8330
-28.6940 -35.6071 -2.3191 0.8326
-15.7388 -21.0246 -1.3319 0.9002
-24.8108 -38.6063 -2.3273 0.8321
-23.4436 -39.5121 -2.3300 0.8319
-21.5758 -39.5130 -2.2832 0.8350
-19.9264 -39.8080 -2.2576 0.8367
-17.3004 -37.8825 -2.1120 0.8464
-17.6565 -42.6265 -2.3399 0.8313
-12.5225 -37.6240 -2.0110 0.8532
-10.3442 -35.2291 -1.8620 0.8632
-9.2555 -36.2626 -1.8980 0.8608
-6.0911 -33.7608 -1.7398 0.8716
-5.5491 -38.5948 -1.9774 0.8554
-3.5071 -32.6214 -1.6639 0.8769
1.1087 -31.0414 -1.5752 0.8830
2.5446 -35.5781 -1.8089 0.8669
7.3493 -33.7842 -1.7534 0.8707
11.7112 -28.2732 -1.5520 0.8846
19.4034 -42.4874 -2.3688 0.8294
20.9071 -41.7671 -2.3687 0.8294
6.5293 -11.9575 -0.6909 0.9469
26.6251 -38.3474 -2.3676 0.8295
29.2775 -36.3311 -2.3663 0.8295
32.9567 -32.9567 -2.3637 0.8297
25.5200 -22.1132 -1.7125 0.8735
28.2921 -18.1823 -1.7056 0.8740
29.8394 -17.7045 -1.7596 0.8703
42.1213 -19.2362 -2.3484 0.8307
42.7443 -17.7053 -2.3463 0.8309
43.3103 -16.1539 -2.3443 0.8310
43.8187 -14.5842 -2.3421 0.8311
44.2692 -12.9986 -2.3399 0.8313
44.9938 -9.7878 -2.3352 0.8316
45.6366 -4.9065 -2.3278 0.8321
40.7552 -2.9148 -2.0721 0.8490
34.5073 -1.2324 -1.7511 0.8708
-34.0972 -3.6658 -2.5145 0.8715
-33.9131 -4.8760 -2.5122 0.8716
-33.6861 -6.0776 -2.5098 0.8717
-32.7512 -9.6166 -2.5028 0.8721
-31.9218 -11.9062 -2.4981 0.8723
-29.7919 -16.2676 -2.4888 0.8727
-29.1657 -17.3048 -2.4866 0.8728
-27.8070 -19.3068 -2.4821 0.8730
-25.4870 -22.0846 -2.4727 0.8735
-23.1891 -21.5898 -2.3231 0.8807
-21.5545 -23.1512 -2.3193 0.8809
-14.8572 -21.3985 -1.9101 0.9008
-17.0582 -26.5431 -2.3134 0.8811
-16.1124 -27.1560 -2.3152 0.8810
-15.1443 -27.7347 -2.3170 0.8810
-14.1552 -28.2785 -2.3187 0.8809
-12.7708 -27.9642 -2.2541 0.8840
-10.0140 -30.0873 -2.3250 0.8806
-5.6435 -31.2800 -2.3306 0.8803
-3.4011 -31.6351 -2.3329 0.8802
-1.1367 -31.8264 -2.3351 0.8801
0.0000 -31.2853 -2.2939 0.8821
2.2745 -31.8017 -2.3377 0.8800
3.4092 -31.7106 -2.3385 0.8799
4.2634 -29.6526 -2.1966 0.8868
5.6659 -31.4040 -2.3398 0.8799
3.8803 -11.6584 -0.9009 0.9519
5.0255 -11.0043 -0.8870 0.9526
14.2969 -28.5616 -2.3419 0.8798
6.5322 -11.9629 -0.9994 0.9468
6.9841 -11.7711 -1.0036 0.9466
17.2650 -26.8648 -2.3415 0.8798
18.2107 -26.2283 -2.3412 0.8798
19.1319 -25.5572 -2.3408 0.8798
21.7401 -23.3505 -2.3393 0.8799
22.5535 -22.5535 -2.3386 0.8799
23.3365 -21.7271 -2.3379 0.8800
24.8098 -19.9930 -2.3363 0.8800
26.1521 -18.1577 -2.3344 0.8801
26.7711 -17.2048 -2.3333 0.8802
15.1961 -7.6066 -1.2460 0.9341
29.3230 -12.1460 -2.3272 0.8805
27.2336 -7.9965 -2.0811 0.8924
25.5565 -3.6745 -1.8931 0.9016
-26.2154 0.0000 -2.5168 0.9000
-25.0114 -7.3440 -2.5026 0.9006
-24.3888 -9.0966 -2.4990 0.9007
-24.0315 -9.9542 -2.4972 0.9008
-22.3074 -13.2356 -2.4902 0.9010
-21.8057 -14.0137 -2.4885 0.9011
-21.2771 -14.7730 -2.4868 0.9011
-20.7223 -15.5125 -2.4851 0.9012
-20.1420 -16.2315 -2.4835 0.9013
-19.5370 -16.9290 -2.4818 0.9013
-18.9082 -17.6041 -2.4802 0.9014
-14.4962 -19.3647 -2.3223 0.9074
-12.3229 -20.7692 -2.3185 0.9075
-11.5678 -21.1849 -2.3173 0.9076
-9.2238 -22.2682 -2.3140 0.9077
-4.3811 -14.9205 -1.4929 0.9394
-2.5529 -14.1499 -1.3804 0.9439
-2.1051 -19.5807 -1.8907 0.9239
-1.7253 -24.1231 -2.3219 0.9074
-0.8635 -24.1775 -2.3226 0.9074
0.8640 -24.1923 -2.3241 0.9073
1.7274 -24.1527 -2.3247 0.9073
3.1221 -17.3046 -1.6882 0.9318
5.9943 -23.4855 -2.3270 0.9072
6.8296 -23.2596 -2.3273 0.9072
10.8539 -21.6833 -2.3279 0.9072
6.5352 -11.9683 -1.3092 0.9467
6.9858 -11.7740 -1.3144 0.9465
13.8261 -19.9133 -2.3274 0.9072
14.5263 -19.4049 -2.3271 0.9072
15.2076 -18.8715 -2.3268 0.9072
14.8479 -17.1353 -2.1767 0.9129
17.1279 -17.1279 -2.3255 0.9073
15.3792 -12.3933 -1.8962 0.9237
19.3706 -14.5006 -2.3230 0.9073
19.8694 -13.7956 -2.3223 0.9074
20.3421 -13.0731 -2.3215 0.9074
20.7884 -12.3343 -2.3206 0.9074
15.1981 -7.6076 -1.6317 0.9340
21.9718 -10.0342 -2.3190 0.9075
22.3280 -9.2485 -2.3202 0.9075
23.2283 -6.8204 -2.3242 0.9073
23.4710 -5.9906 -2.3256 0.9072
23.6843 -5.1522 -2.3270 0.9072
22.5455 -4.0677 -2.1994 0.9121
-21.1638 -0.0000 -2.5140 0.9183
-21.1385 -0.7550 -2.5126 0.9183
-21.0069 -2.2585 -2.5097 0.9184
-20.7684 -3.7470 -2.5068 0.9185
-19.1192 -8.7314 -2.4967 0.9188
-18.7846 -9.4029 -2.4953 0.9189
-18.4266 -10.0617 -2.4939 0.9189
-17.6421 -11.3379 -2.4911 0.9190
-17.2166 -11.9537 -2.4897 0.9190
-16.3023 -13.1373 -2.4870 0.9191
-15.3075 -14.2518 -2.4844 0.9192
-14.7815 -14.7815 -2.4831 0.9192
-13.6757 -15.7826 -2.4807 0.9193
-12.5031 -16.7021 -2.4783 0.9194
-11.8027 -16.9992 -2.4583 0.9200
-10.6478 -16.5683 -2.3395 0.9237
-9.9851 -16.8291 -2.3244 0.9242
-9.3742 -17.1676 -2.3235 0.9242
-7.4767 -18.0503 -2.3208 0.9243
-6.8252 -18.2991 -2.3200 0.9243
-6.1656 -18.5248 -2.3192 0.9244
-4.3817 -14.9227 -1.8474 0.9393
-2.0005 -13.9139 -1.6698 0.9449
-0.6956 -19.4767 -2.3150 0.9245
1.3913 -19.4533 -2.3167 0.9244
2.0852 -19.3951 -2.3171 0.9244
2.7766 -19.3119 -2.3176 0.9244
3.8798 -11.6568 -1.4593 0.9517
4.6379 -11.1968 -1.4396 0.9524
5.0429 -11.0424 -1.4420 0.9523
8.7399 -17.4600 -2.3193 0.9244
6.9875 -11.7769 -1.6266 0.9463
12.2469 -15.1974 -2.3184 0.9244
13.2961 -14.2810 -2.3178 0.9244
14.2779 -13.2932 -2.3173 0.9244
14.7476 -12.7789 -2.3180 0.9244
15.1991 -12.2482 -2.3187 0.9244
15.6317 -11.7017 -2.3195 0.9244
16.0449 -11.1402 -2.3203 0.9243
15.2000 -7.6085 -2.0191 0.9338
17.8028 -8.1303 -2.3248 0.9242
18.0896 -7.4930 -2.3258 0.9242
19.0724 -4.8679 -2.3382 0.9238
20.1956 -4.3933 -2.4551 0.9201
20.8878 -1.4939 -2.4875 0.9191
-17.7291 0.0000 -2.5120 0.9309
-17.6673 -1.2636 -2.5097 0.9309
-17.6025 -1.8925 -2.5085 0.9310
-17.5154 -2.5183 -2.5073 0.9310
-17.4060 -3.1404 -2.5061 0.9310
-17.2744 -3.7578 -2.5048 0.9311
-17.1210 -4.3699 -2.5036 0.9311
-16.9459 -4.9758 -2.5024 0.9311
-16.2932 -6.7489 -2.4988 0.9312
-15.4562 -8.4397 -2.4952 0.9313
-14.8008 -9.5119 -2.4928 0.9314
-14.0716 -10.5338 -2.4906 0.9315
-13.6804 -11.0244 -2.4894 0.9315
-11.9515 -12.8368 -2.4851 0.9316
-10.9963 -13.6456 -2.4831 0.9316
-10.4981 -14.0239 -2.4821 0.9317
-9.9870 -14.3841 -2.4812 0.9317
-8.9289 -15.0489 -2.4793 0.9317
-7.7042 -15.3911 -2.4387 0.9328
-6.8907 -15.0885 -2.3503 0.9352
-5.7338 -15.3728 -2.3247 0.9359
-3.7032 -14.5091 -2.1217 0.9413
-3.1285 -14.3817 -2.0854 0.9423
-2.0006 -13.9144 -1.9918 0.9448
-1.7509 -16.2857 -2.3208 0.9360
-1.1683 -16.3349 -2.3204 0.9360
-0.5844 -16.3635 -2.3200 0.9360
0.0000 -16.3715 -2.3197 0.9360
0.5843 -16.3589 -2.3194 0.9360
1.7494 -16.2720 -2.3189 0.9360
2.9054 -16.1034 -2.3185 0.9360
4.0465 -15.8539 -2.3183 0.9360
4.6097 -15.6991 -2.3183 0.9360
3.8609 -11.6002 -1.7323 0.9518
5.7251 -11.4373 -1.8122 0.9496
6.1605 -11.2821 -1.8213 0.9494
6.6009 -11.1253 -1.8329 0.9491
10.2765 -12.7523 -2.3205 0.9360
10.7271 -12.3797 -2.3210 0.9360
11.9968 -11.1694 -2.3225 0.9359
13.8084 -8.8741 -2.3257 0.9358
14.1208 -8.3783 -2.3264 0.9358
14.4156 -7.8715 -2.3272 0.9358
16.1298 -6.0161 -2.4392 0.9328
16.9899 -4.3364 -2.4845 0.9316
17.3783 -2.4986 -2.4876 0.9315
17.4641 -1.8776 -2.4887 0.9315
17.5694 -0.6275 -2.4910 0.9314
-15.2241 -0.5437 -2.5096 0.9401
-15.1888 -1.0863 -2.5086 0.9401
-15.0603 -2.1653 -2.5065 0.9402
-14.8551 -3.2315 -2.5044 0.9402
-14.5745 -4.2795 -2.5024 0.9403
-14.4065 -4.7949 -2.5013 0.9403
-14.0160 -5.8056 -2.4992 0.9404
-12.4312 -8.6312 -2.4931 0.9405
-11.0593 -10.2966 -2.4893 0.9406
-10.6808 -10.6808 -2.4884 0.9406
-9.4677 -11.7488 -2.4857 0.9407
-9.0393 -12.0751 -2.4849 0.9407
-8.5997 -12.3860 -2.4841 0.9407
-7.6894 -12.9597 -2.4825 0.9407
-5.7601 -13.9062 -2.4797 0.9408
-5.2539 -14.0861 -2.4767 0.9409
-4.7316 -14.2161 -2.4683 0.9411
-4.1059 -13.9833 -2.4009 0.9426
-3.0014 -13.7972 -2.3261 0.9444
-1.5085 -14.0313 -2.3248 0.9444
-1.0066 -14.0740 -2.3245 0.9444
-0.5035 -14.0990 -2.3241 0.9444
0.5034 -14.0956 -2.3236 0.9444
1.0061 -14.0672 -2.3233 0.9444
2.0068 -13.9574 -2.3230 0.9444
2.9971 -13.7774 -2.3228 0.9444
4.2341 -11.3519 -1.9960 0.9521
5.7253 -11.4378 -2.1071 0.9495
6.1608 -11.2826 -2.1177 0.9492
6.6012 -11.1258 -2.1312 0.9489
7.0479 -10.9667 -2.1476 0.9485
7.5020 -10.8049 -2.1670 0.9481
8.8541 -10.9872 -2.3246 0.9444
9.2421 -10.6659 -2.3250 0.9444
9.6185 -10.3311 -2.3254 0.9444
11.3121 -8.4681 -2.3279 0.9443
13.1530 -7.1821 -2.4688 0.9411
13.7090 -6.2607 -2.4828 0.9407
14.1297 -5.2701 -2.4844 0.9407
14.3136 -4.7640 -2.4852 0.9407
14.7563 -3.2100 -2.4878 0.9406
14.8670 -2.6823 -2.4887 0.9406
15.0856 -1.0789 -2.4915 0.9405
15.1204 -0.5400 -2.4925 0.9405
-13.3383 -0.4764 -2.5087 0.9471
-13.0183 -2.8319 -2.5042 0.9472
-12.9042 -3.2936 -2.5032 0.9472
-12.0923 -5.5223 -2.4987 0.9473
-11.8831 -5.9483 -2.4978 0.9474
-11.4204 -6.7760 -2.4960 0.9474
-11.1673 -7.1768 -2.4951 0.9474
-10.9002 -7.5682 -2.4942 0.9474
-10.3254 -8.3208 -2.4925 0.9475
-9.3675 -9.3675 -2.4900 0.9475
-8.6699 -10.0056 -2.4885 0.9475
-8.3048 -10.3056 -2.4877 0.9476
-7.9293 -10.5923 -2.4870 0.9476
-7.1493 -11.1246 -2.4856 0.9476
-6.3341 -11.6000 -2.4842 0.9476
-5.9145 -11.8157 -2.4836 0.9476
-5.4877 -12.0163 -2.4830 0.9477
-4.6143 -12.3715 -2.4818 0.9477
-4.1689 -12.5256 -2.4813 0.9477
-3.7184 -12.6638 -2.4808 0.9477
-1.3876 -12.9065 -2.4399 0.9485
-0.9102 -12.7270 -2.3983 0.9494
0.4418 -12.3712 -2.3268 0.9509
0.8830 -12.3465 -2.3266 0.9509
1.3230 -12.3062 -2.3264 0.9509
2.6306 -12.0925 -2.3261 0.9509
3.0604 -11.9906 -2.3260 0.9509
3.4864 -11.8736 -2.3260 0.9509
3.8435 -11.5480 -2.2876 0.9517
4.2471 -11.3869 -2.2843 0.9517
5.5400 -11.0675 -2.3263 0.9509
6.3163 -10.6456 -2.3267 0.9509
6.6929 -10.4143 -2.3269 0.9509
7.4204 -9.9125 -2.3274 0.9509
10.2504 -8.2603 -2.4744 0.9478
10.5567 -7.9026 -2.4786 0.9477
10.8470 -7.5312 -2.4820 0.9477
11.1114 -7.1409 -2.4826 0.9477
11.5982 -6.3331 -2.4838 0.9476
11.8199 -5.9166 -2.4845 0.9476
12.2185 -5.0611 -2.4858 0.9476
12.3949 -4.6231 -2.4865 0.9476
12.7006 -3.7292 -2.4880 0.9476
12.9424 -2.8154 -2.4896 0.9475
13.0388 -2.3525 -2.4904 0.9475
13.1187 -1.8862 -2.4912 0.9475
-11.7326 -1.6869 -2.5055 0.9527
-11.5749 -2.5180 -2.5039 0.9527
-11.3584 -3.3351 -2.5023 0.9528
-11.2284 -3.7372 -2.5015 0.9528
-11.0843 -4.1342 -2.5007 0.9528
-10.7541 -4.9113 -2.4990 0.9528
-10.3697 -5.6623 -2.4974 0.9528
-10.1578 -6.0269 -2.4967 0.9529
-9.4465 -7.0718 -2.4943 0.9529
-9.1853 -7.4020 -2.4936 0.9529
-8.3341 -8.3341 -2.4914 0.9530
-7.7140 -8.9024 -2.4900 0.9530
-5.6368 -10.3230 -2.4862 0.9531
-4.8838 -10.6940 -2.4851 0.9531
-4.1068 -11.0107 -2.4841 0.9531
-3.7104 -11.1481 -2.4836 0.9531
-2.4962 -11.4749 -2.4823 0.9531
-2.0847 -11.5549 -2.4819 0.9531
-1.6707 -11.6203 -2.4816 0.9531
-1.2548 -11.6710 -2.4812 0.9531
-0.4189 -11.7281 -2.4807 0.9532
0.0000 -11.7344 -2.4804 0.9532
1.2520 -11.6449 -2.4757 0.9532
2.0768 -11.5109 -2.4725 0.9533
3.6381 -10.9309 -2.4352 0.9540
4.0211 -10.7808 -2.4322 0.9540
4.4033 -10.6305 -2.4322 0.9540
5.1695 -10.3274 -2.4412 0.9539
5.5554 -10.1739 -2.4503 0.9537
6.3254 -9.8424 -2.4731 0.9533
6.6770 -9.6166 -2.4747 0.9533
7.0212 -9.3792 -2.4765 0.9532
7.3577 -9.1304 -2.4786 0.9532
8.0001 -8.5928 -2.4817 0.9531
8.8770 -7.6920 -2.4829 0.9531
9.4065 -7.0416 -2.4838 0.9531
10.1115 -5.9995 -2.4853 0.9531
10.3215 -5.6360 -2.4858 0.9531
10.7023 -4.8876 -2.4870 0.9530
11.1719 -3.7184 -2.4889 0.9530
11.3005 -3.3181 -2.4896 0.9530
11.4149 -2.9135 -2.4902 0.9530
11.5148 -2.5049 -2.4909 0.9530
11.6002 -2.0929 -2.4916 0.9530
11.6709 -1.6780 -2.4924 0.9529
11.7268 -1.2608 -2.4931 0.9529
11.7679 -0.8417 -2.4939 0.9529
11.7940 -0.4212 -2.4946 0.9529
-10.6715 0.0000 -2.5080 0.9571
-10.6617 -0.3808 -2.5073 0.9571
-10.6383 -0.7609 -2.5066 0.9571
-10.6013 -1.1398 -2.5059 0.9571
-10.3192 -2.6338 -2.5030 0.9572
-10.0991 -3.3613 -2.5015 0.9572
-9.9698 -3.7185 -2.5008 0.9572
-9.8278 -4.0708 -2.5001 0.9572
-9.5069 -4.7588 -2.4986 0.9573
-9.3283 -5.0936 -2.4979 0.9573
-9.1379 -5.4218 -2.4972 0.9573
-8.9360 -5.7429 -2.4965 0.9573
-8.7229 -6.0565 -2.4958 0.9573
-7.7638 -7.2284 -2.4931 0.9573
-7.2247 -7.7598 -2.4918 0.9574
-6.3491 -8.4814 -2.4900 0.9574
-6.0409 -8.7006 -2.4894 0.9574
-5.7253 -8.9087 -2.4888 0.9574
-4.3955 -9.6248 -2.4868 0.9575
-4.0484 -9.7737 -2.4863 0.9575
-2.9789 -10.1452 -2.4850 0.9575
-2.6145 -10.2435 -2.4846 0.9575
-2.2469 -10.3287 -2.4843 0.9575
-1.8765 -10.4009 -2.4839 0.9575
-1.5039 -10.4599 -2.4836 0.9575
-1.1295 -10.5057 -2.4833 0.9575
-0.7537 -10.5382 -2.4830 0.9575
0.0000 -10.5631 -2.4826 0.9575
0.3770 -10.5555 -2.4824 0.9575
0.7534 -10.5346 -2.4822 0.9575
1.1289 -10.5004 -2.4820 0.9575
1.5029 -10.4529 -2.4819 0.9575
1.8749 -10.3921 -2.4818 0.9575
2.6114 -10.2314 -2.4817 0.9575
2.9749 -10.1316 -2.4817 0.9575
4.0410 -9.7559 -2.4818 0.9575
4.7271 -9.4435 -2.4820 0.9575
5.0614 -9.2692 -2.4821 0.9575
5.3894 -9.0833 -2.4823 0.9575
5.7105 -8.8858 -2.4824 0.9575
6.0246 -8.6770 -2.4826 0.9575
6.3310 -8.4573 -2.4829 0.9575
7.4737 -7.4737 -2.4840 0.9575
7.9901 -6.9235 -2.4848 0.9575
8.2335 -6.6349 -2.4852 0.9575
8.4664 -6.3379 -2.4856 0.9575
8.6888 -6.0327 -2.4860 0.9575
8.9002 -5.7198 -2.4865 0.9575
9.6315 -4.3985 -2.4885 0.9574
9.7845 -4.0529 -2.4891 0.9574
9.9252 -3.7019 -2.4896 0.9574
10.0533 -3.3461 -2.4902 0.9574
10.3611 -2.2539 -2.4920 0.9574
10.4376 -1.8832 -2.4927 0.9574
10.5009 -1.5098 -2.4933 0.9573
-9.6845 0.0000 -2.5075 0.9608
-9.6759 -0.3456 -2.5068 0.9608
-9.6549 -0.6905 -2.5062 0.9608
-9.5760 -1.3768 -2.5049 0.9608
-9.5182 -1.7173 -2.5042 0.9608
-9.2728 -2.7227 -2.5022 0.9609
-9.0501 -3.3755 -2.5009 0.9609
-8.9215 -3.6954 -2.5003 0.9609
-8.7816 -4.0104 -2.4996 0.9609
-8.2961 -4.9223 -2.4976 0.9609
-8.1130 -5.2139 -2.4970 0.9609
-7.9197 -5.4988 -2.4964 0.9609
-7.5035 -6.0467 -2.4951 0.9610
-7.2812 -6.3092 -2.4945 0.9610
-7.0496 -6.5635 -2.4939 0.9610
-6.8093 -6.8093 -2.4933 0.9610
-6.5604 -7.0464 -2.4927 0.9610
-6.3033 -7.2744 -2.4922 0.9610
-5.7657 -7.7021 -2.4911 0.9610
-5.4860 -7.9014 -2.4906 0.9610
-5.1994 -8.0905 -2.4901 0.9610
-4.9064 -8.2692 -2.4896 0.9610
-4.6072 -8.4375 -2.4891 0.9611
-4.3023 -8.5949 -2.4886 0.9611
-3.3572 -9.0010 -2.4873 0.9611
-3.0333 -9.1136 -2.4869 0.9611
-2.3747 -9.3041 -2.4862 0.9611
-2.0409 -9.3817 -2.4859 0.9611
-1.3660 -9.5011 -2.4853 0.9611
-0.6846 -9.5723 -2.4848 0.9611
-0.3425 -9.5898 -2.4846 0.9611
0.3424 -9.5883 -2.4842 0.9611
0.6844 -9.5694 -2.4840 0.9611
1.0255 -9.5383 -2.4839 0.9611
1.7032 -9.4401 -2.4837 0.9611
2.3722 -9.2942 -2.4836 0.9611
2.7024 -9.2035 -2.4836 0.9611
3.3521 -8.9874 -2.4836 0.9611
3.9849 -8.7258 -2.4837 0.9611
4.2940 -8.5783 -2.4838 0.9611
4.8956 -8.2510 -2.4841 0.9611
5.1873 -8.0716 -2.4842 0.9611
6.5411 -7.0256 -2.4854 0.9611
7.0273 -6.5427 -2.4860 0.9611
7.8916 -5.4792 -2.4875 0.9611
8.0835 -5.1949 -2.4879 0.9611
8.2652 -4.9040 -2.4883 0.9611
8.5972 -4.3034 -2.4893 0.9611
8.7470 -3.9946 -2.4897 0.9610
9.0133 -3.3618 -2.4908 0.9610
9.2342 -2.7114 -2.4918 0.9610
9.4776 -1.7099 -2.4935 0.9610
-8.8558 -0.0000 -2.5070 0.9639
-8.8481 -0.3160 -2.5064 0.9639
-8.8291 -0.6315 -2.5058 0.9639
-8.7048 -1.5705 -2.5040 0.9639
-8.5664 -2.1864 -2.5028 0.9639
-8.0323 -3.6682 -2.4998 0.9640
-7.8944 -3.9517 -2.4992 0.9640
-7.7465 -4.2299 -2.4986 0.9640
-7.5888 -4.5026 -2.4980 0.9640
-7.2448 -5.0302 -2.4968 0.9640
-7.0591 -5.2843 -2.4963 0.9640
-6.6611 -5.7719 -2.4952 0.9640
-6.4494 -6.0046 -2.4946 0.9640
-6.2296 -6.2296 -2.4941 0.9640
-5.7669 -6.6554 -2.4930 0.9641
-5.5246 -6.8556 -2.4925 0.9641
-5.2753 -7.0470 -2.4920 0.9641
-4.4893 -7.5663 -2.4906 0.9641
-4.2156 -7.7204 -2.4902 0.9641
-3.6529 -7.9988 -2.4894 0.9641
-3.0720 -8.2365 -2.4886 0.9641
-2.4759 -8.4323 -2.4879 0.9641
-0.9389 -8.7329 -2.4865 0.9641
1.5587 -8.6394 -2.4852 0.9642
1.8660 -8.5780 -2.4852 0.9642
2.1710 -8.5058 -2.4851 0.9642
3.0678 -8.2251 -2.4851 0.9642
3.3595 -8.1105 -2.4852 0.9642
3.6469 -7.9856 -2.4853 0.9642
4.2077 -7.7057 -2.4855 0.9642
4.4802 -7.5510 -2.4856 0.9642
5.2628 -7.0303 -2.4861 0.9642
5.7520 -6.6382 -2.4866 0.9641
5.9859 -6.4293 -2.4868 0.9641
6.8432 -5.5146 -2.4880 0.9641
7.2213 -5.0138 -2.4887 0.9641
7.3967 -4.7536 -2.4891 0.9641
7.5629 -4.4873 -2.4895 0.9641
7.7195 -4.2152 -2.4899 0.9641
8.0034 -3.6550 -2.4908 0.9641
8.2468 -3.0759 -2.4917 0.9641
8.3530 -2.7801 -2.4922 0.9641
8.4486 -2.4807 -2.4927 0.9641
8.5335 -2.1780 -2.4932 0.9640
8.6076 -1.8725 -2.4937 0.9640
8.6708 -1.5644 -2.4943 0.9640
8.7230 -1.2542 -2.4948 0.9640
-8.1426 -0.2908 -2.5061 0.9665
-8.0976 -0.8706 -2.5050 0.9665
-8.0113 -1.4454 -2.5039 0.9665
-7.9528 -1.7300 -2.5033 0.9665
-7.8842 -2.0123 -2.5028 0.9665
-7.8057 -2.2920 -2.5022 0.9665
-7.7172 -2.5685 -2.5016 0.9665
-7.5109 -3.1111 -2.5005 0.9665
-7.3934 -3.3765 -2.5000 0.9666
-7.2666 -3.6374 -2.4994 0.9666
-6.9855 -4.1447 -2.4983 0.9666
-6.6692 -4.6305 -2.4973 0.9666
-6.3192 -5.0923 -2.4962 0.9666
-6.1322 -5.3136 -2.4957 0.9666
-5.9374 -5.5279 -2.4952 0.9666
-5.3094 -6.1273 -2.4937 0.9666
-5.0863 -6.3118 -2.4933 0.9666
-4.8569 -6.4881 -2.4928 0.9667
-4.6214 -6.6561 -2.4924 0.9667
-4.3802 -6.8157 -2.4919 0.9667
-3.6247 -7.2413 -2.4907 0.9667
-2.8287 -7.5840 -2.4897 0.9667
-2.5559 -7.6791 -2.4893 0.9667
-2.0010 -7.8400 -2.4887 0.9667
-1.7197 -7.9055 -2.4884 0.9667
-1.4363 -7.9610 -2.4882 0.9667
-1.1511 -8.0064 -2.4879 0.9667
-0.8646 -8.0417 -2.4877 0.9667
-0.5769 -8.0667 -2.4875 0.9667
0.0000 -8.0862 -2.4871 0.9667
0.2886 -8.0805 -2.4870 0.9667
0.8642 -8.0385 -2.4867 0.9667
1.1505 -8.0023 -2.4866 0.9667
1.4354 -7.9559 -2.4866 0.9667
1.7184 -7.8994 -2.4865 0.9667
2.2775 -7.7565 -2.4865 0.9667
2.5529 -7.6703 -2.4865 0.9667
2.8251 -7.5744 -2.4865 0.9667
3.0937 -7.4688 -2.4865 0.9667
4.1257 -6.9536 -2.4869 0.9667
4.3715 -6.8023 -2.4870 0.9667
4.6118 -6.6423 -2.4872 0.9667
5.0747 -6.2973 -2.4876 0.9667
5.7204 -5.7204 -2.4883 0.9667
5.9216 -5.5132 -2.4885 0.9667
6.1153 -5.2989 -2.4888 0.9667
6.3013 -5.0779 -2.4891 0.9667
7.1077 -3.8811 -2.4909 0.9667
7.4856 -3.1006 -2.4921 0.9667
7.5928 -2.8320 -2.4925 0.9667
7.6904 -2.5596 -2.4930 0.9666
7.7783 -2.2839 -2.4934 0.9666
7.8563 -2.0052 -2.4939 0.9666
7.9244 -1.7239 -2.4944 0.9666
8.0304 -1.1546 -2.4954 0.9666
8.1129 -0.2897 -2.4969 0.9666
-7.5398 0.0000 -2.5063 0.9687
-7.5335 -0.2691 -2.5058 0.9687
-7.4921 -0.8055 -2.5048 0.9687
-7.4571 -1.0722 -2.5043 0.9687
-7.4125 -1.3374 -2.5037 0.9687
-7.2226 -2.1208 -2.5022 0.9688
-7.1408 -2.3767 -2.5017 0.9688
-6.8416 -3.1245 -2.5001 0.9688
-6.5986 -3.6031 -2.4991 0.9688
-6.4645 -3.8356 -2.4986 0.9688
-6.0139 -4.5019 -2.4971 0.9688
-5.6752 -4.9176 -2.4962 0.9688
-5.4951 -5.1161 -2.4957 0.9688
-5.3080 -5.3080 -2.4952 0.9689
-4.9140 -5.6711 -2.4944 0.9689
-4.7077 -5.8419 -2.4939 0.9689
-4.2775 -6.1608 -2.4931 0.9689
-4.0542 -6.3085 -2.4927 0.9689
-3.8259 -6.4482 -2.4923 0.9689
-3.5928 -6.5797 -2.4919 0.9689
-3.3551 -6.7027 -2.4916 0.9689
-2.8677 -6.9231 -2.4909 0.9689
-2.1104 -7.1874 -2.4900 0.9689
-1.3296 -7.3695 -2.4892 0.9689
-1.0656 -7.4116 -2.4890 0.9689
-0.8003 -7.4442 -2.4888 0.9689
0.0000 -7.4856 -2.4882 0.9689
0.2672 -7.4804 -2.4881 0.9689
1.0651 -7.4080 -2.4878 0.9689
2.3633 -7.1007 -2.4876 0.9689
2.6153 -7.0119 -2.4876 0.9689
2.8640 -6.9142 -2.4877 0.9689
3.1090 -6.8077 -2.4877 0.9689
3.3501 -6.6926 -2.4878 0.9689
3.5870 -6.5690 -2.4879 0.9689
3.8193 -6.4371 -2.4880 0.9689
4.2693 -6.1489 -2.4883 0.9689
4.6977 -5.8295 -2.4886 0.9689
5.1025 -5.4804 -2.4891 0.9689
5.4815 -5.1035 -2.4895 0.9689
5.6608 -4.9051 -2.4898 0.9689
5.9976 -4.4898 -2.4904 0.9689
6.1549 -4.2734 -2.4907 0.9689
6.3043 -4.0515 -2.4910 0.9689
6.4457 -3.8244 -2.4914 0.9689
6.5791 -3.5924 -2.4917 0.9689
6.7041 -3.3558 -2.4921 0.9689
6.8206 -3.1149 -2.4924 0.9689
7.2713 -1.8559 -2.4945 0.9689
7.3342 -1.5955 -2.4950 0.9689
7.4321 -1.0686 -2.4959 0.9688
7.4669 -0.8028 -2.4963 0.9688
7.4922 -0.5358 -2.4968 0.9688
-6.9636 -0.7487 -2.5046 0.9707
-6.8898 -1.2431 -2.5036 0.9707
-6.7136 -1.9713 -2.5022 0.9707
-6.2509 -3.1290 -2.4998 0.9707
-5.8773 -3.7771 -2.4984 0.9708
-5.7377 -3.9838 -2.4979 0.9708
-4.9349 -4.9349 -2.4957 0.9708
-4.5687 -5.2726 -2.4949 0.9708
-3.1196 -6.2322 -2.4923 0.9708
-2.8948 -6.3388 -2.4920 0.9708
-2.1999 -6.6095 -2.4911 0.9708
-1.9623 -6.6831 -2.4908 0.9708
0.0000 -6.9607 -2.4892 0.9709
0.4965 -6.9423 -2.4890 0.9709
1.7210 -6.7430 -2.4886 0.9709
2.1977 -6.6030 -2.4886 0.9709
2.4320 -6.5204 -2.4886 0.9709
2.8911 -6.3305 -2.4887 0.9709
3.3355 -6.1085 -2.4889 0.9709
3.5516 -5.9858 -2.4890 0.9709
3.9699 -5.7178 -2.4893 0.9709
4.3683 -5.4207 -2.4896 0.9709
4.5593 -5.2618 -2.4898 0.9709
4.9239 -4.9239 -2.4902 0.9709
5.0970 -4.7455 -2.4904 0.9708
5.4237 -4.3706 -2.4909 0.9708
5.7229 -3.9735 -2.4915 0.9708
6.1172 -3.3402 -2.4924 0.9708
6.2334 -3.1202 -2.4928 0.9708
6.6179 -2.2026 -2.4942 0.9708
6.6934 -1.9653 -2.4946 0.9708
6.7603 -1.7255 -2.4950 0.9708
6.8187 -1.4833 -2.4955 0.9708
6.8685 -1.2392 -2.4959 0.9708
6.9418 -0.7463 -2.4967 0.9708
6.9799 -0.2493 -2.4976 0.9708
-6.4978 -0.6986 -2.5044 0.9724
-6.4291 -1.1599 -2.5035 0.9724
-6.3824 -1.3884 -2.5031 0.9724
-6.3277 -1.6150 -2.5026 0.9724
-6.2649 -1.8395 -2.5022 0.9724
-6.1941 -2.0616 -2.5017 0.9724
-6.1155 -2.2810 -2.5013 0.9724
-6.0291 -2.4973 -2.5008 0.9724
-5.9351 -2.7105 -2.5004 0.9724
-5.8335 -2.9201 -2.4999 0.9724
-5.7246 -3.1259 -2.4995 0.9724
-5.4851 -3.5250 -2.4986 0.9725
-5.3548 -3.7179 -2.4982 0.9725
-5.2178 -3.9060 -2.4978 0.9725
-5.0743 -4.0891 -2.4974 0.9725
-4.6058 -4.6058 -2.4961 0.9725
-4.2642 -4.9211 -2.4954 0.9725
-4.0852 -5.0695 -2.4950 0.9725
-3.9011 -5.2113 -2.4946 0.9725
-3.7121 -5.3464 -2.4943 0.9725
-3.5184 -5.4748 -2.4939 0.9725
-3.3203 -5.5961 -2.4936 0.9725
-2.9119 -5.8172 -2.4930 0.9725
-2.2726 -6.0930 -2.4921 0.9725
-1.6078 -6.2991 -2.4913 0.9725
-1.3818 -6.3519 -2.4911 0.9725
-1.1541 -6.3967 -2.4909 0.9725
-0.9250 -6.4333 -2.4907 0.9725
-0.6947 -6.4617 -2.4905 0.9725
-0.4636 -6.4820 -2.4903 0.9725
-0.2319 -6.4940 -2.4902 0.9725
0.0000 -6.4978 -2.4901 0.9725
0.2319 -6.4933 -2.4899 0.9726
1.3809 -6.3480 -2.4896 0.9726
1.8302 -6.2332 -2.4895 0.9726
2.0515 -6.1639 -2.4895 0.9726
2.2703 -6.0868 -2.4895 0.9726
2.4861 -6.0020 -2.4896 0.9726
2.6988 -5.9095 -2.4896 0.9726
2.9081 -5.8096 -2.4897 0.9726
3.1137 -5.7023 -2.4898 0.9726
3.3154 -5.5877 -2.4899 0.9726
3.5128 -5.4661 -2.4900 0.9726
3.8943 -5.2021 -2.4903 0.9725
4.5963 -4.5963 -2.4910 0.9725
4.7578 -4.4297 -2.4912 0.9725
4.9134 -4.2575 -2.4914 0.9725
5.4716 -3.5164 -2.4925 0.9725
5.7098 -3.1178 -2.4931 0.9725
5.8182 -2.9124 -2.4934 0.9725
5.9193 -2.7032 -2.4937 0.9725
6.0128 -2.4906 -2.4941 0.9725
6.0987 -2.2747 -2.4944 0.9725
6.2473 -1.8344 -2.4951 0.9725
6.4105 -1.1566 -2.4963 0.9725
6.5142 -0.2327 -2.4979 0.9725
-6.1218 0.0000 -2.5055 0.9739
-6.1169 -0.2185 -2.5051 0.9739
-6.0837 -0.6541 -2.5043 0.9739
-6.0555 -0.8706 -2.5038 0.9739
-5.9247 -1.5122 -2.5026 0.9739
-5.8660 -1.7224 -2.5022 0.9739
-5.7998 -1.9304 -2.5017 0.9739
-5.6454 -2.3384 -2.5009 0.9739
-5.4624 -2.7343 -2.5001 0.9739
-5.3605 -2.9270 -2.4997 0.9739
-5.0144 -3.4816 -2.4984 0.9740
-4.6114 -3.9958 -2.4973 0.9740
-4.1559 -4.4638 -2.4961 0.9740
-3.9934 -4.6086 -2.4958 0.9740
-3.8258 -4.7476 -2.4954 0.9740
-3.1096 -5.2409 -2.4941 0.9740
-2.5307 -5.5414 -2.4932 0.9740
-2.3310 -5.6275 -2.4930 0.9740
-2.1284 -5.7066 -2.4927 0.9740
-1.9232 -5.7783 -2.4925 0.9740
-1.2942 -5.9492 -2.4918 0.9740
-0.8663 -6.0254 -2.4914 0.9740
-0.6507 -6.0521 -2.4912 0.9740
-0.2172 -6.0824 -2.4909 0.9740
0.0000 -6.0859 -2.4908 0.9740
0.4341 -6.0699 -2.4906 0.9740
1.0804 -5.9882 -2.4904 0.9740
1.7143 -5.8382 -2.4903 0.9740
1.9215 -5.7733 -2.4903 0.9740
2.1264 -5.7011 -2.4903 0.9740
2.3286 -5.6216 -2.4904 0.9740
2.9164 -5.3409 -2.4905 0.9740
3.1052 -5.2336 -2.4906 0.9740
3.2902 -5.1197 -2.4907 0.9740
3.8192 -4.7394 -2.4911 0.9740
3.9862 -4.6003 -2.4913 0.9740
4.1482 -4.4554 -2.4915 0.9740
4.3049 -4.3049 -2.4917 0.9740
4.4562 -4.1488 -2.4919 0.9740
4.6018 -3.9875 -2.4921 0.9740
4.7416 -3.8210 -2.4923 0.9740
4.8754 -3.6497 -2.4926 0.9740
5.3475 -2.9200 -2.4936 0.9740
5.7115 -2.1303 -2.4949 0.9740
5.8506 -1.7179 -2.4956 0.9740
5.9090 -1.5082 -2.4959 0.9740
6.0671 -0.6523 -2.4974 0.9740
6.0874 -0.4354 -2.4978 0.9740
6.1001 -0.2179 -2.4982 0.9740
-5.7485 0.0000 -2.5053 0.9752
-5.7129 -0.6142 -2.5041 0.9752
-5.6528 -1.0199 -2.5033 0.9752
-5.5638 -1.4201 -2.5026 0.9753
-5.4466 -1.8129 -2.5018 0.9753
-5.3776 -2.0057 -2.5014 0.9753
-5.3018 -2.1961 -2.5010 0.9753
-5.2192 -2.3835 -2.5006 0.9753
-5.1300 -2.5679 -2.5002 0.9753
-5.0343 -2.7489 -2.4998 0.9753
-4.9322 -2.9264 -2.4994 0.9753
-4.7094 -3.2698 -2.4987 0.9753
-4.3310 -3.7528 -2.4976 0.9753
-4.1937 -3.9045 -2.4972 0.9753
-4.0511 -4.0511 -2.4969 0.9753
-3.4315 -4.5840 -2.4955 0.9753
-3.0950 -4.8159 -2.4949 0.9753
-2.9208 -4.9227 -2.4946 0.9753
-2.5616 -5.1174 -2.4940 0.9753
-2.1895 -5.2860 -2.4935 0.9753
-1.9993 -5.3602 -2.4933 0.9753
-1.8065 -5.4277 -2.4930 0.9753
-1.4144 -5.5418 -2.4926 0.9754
-1.2157 -5.5883 -2.4924 0.9754
-1.0153 -5.6277 -2.4922 0.9754
-0.8138 -5.6599 -2.4921 0.9754
-0.4079 -5.7029 -2.4918 0.9754
0.0000 -5.7169 -2.4915 0.9754
0.2040 -5.7130 -2.4914 0.9754
0.4078 -5.7018 -2.4913 0.9754
0.6110 -5.6834 -2.4912 0.9754
1.6103 -5.4842 -2.4910 0.9754
1.8050 -5.4233 -2.4910 0.9754
1.9975 -5.3554 -2.4910 0.9754
2.3745 -5.1994 -2.4911 0.9754
2.5586 -5.1115 -2.4912 0.9754
2.7395 -5.0170 -2.4912 0.9754
3.0907 -4.8092 -2.4914 0.9754
3.4262 -4.5769 -2.4917 0.9754
3.5876 -4.4519 -2.4918 0.9754
4.3226 -3.7455 -2.4927 0.9754
4.4539 -3.5892 -2.4929 0.9754
4.5796 -3.4282 -2.4931 0.9753
4.8134 -3.0934 -2.4936 0.9753
4.9213 -2.9199 -2.4939 0.9753
5.2069 -2.3779 -2.4947 0.9753
5.2891 -2.1908 -2.4950 0.9753
5.3646 -2.0009 -2.4953 0.9753
5.4333 -1.8084 -2.4956 0.9753
5.4951 -1.6135 -2.4960 0.9753
5.5499 -1.4165 -2.4963 0.9753
5.6384 -1.0173 -2.4970 0.9753
5.6719 -0.8155 -2.4973 0.9753
5.7173 -0.4089 -2.4981 0.9753
5.7291 -0.2046 -2.4984 0.9753
-5.4119 0.0000 -2.5051 0.9764
-5.3966 -0.3860 -2.5044 0.9764
-5.3537 -0.7697 -2.5036 0.9764
-5.2384 -1.3370 -2.5025 0.9765
-5.1866 -1.5229 -2.5022 0.9765
-5.1282 -1.7068 -2.5018 0.9765
-5.0632 -1.8885 -2.5014 0.9765
-4.8302 -2.4178 -2.5003 0.9765
-4.7401 -2.5883 -2.4999 0.9765
-4.4344 -3.0789 -2.4989 0.9765
-4.3211 -3.2347 -2.4985 0.9765
-3.5319 -4.0760 -2.4965 0.9765
-3.3838 -4.1990 -2.4962 0.9765
-3.2313 -4.3166 -2.4959 0.9765
-3.0748 -4.4286 -2.4956 0.9765
-2.5830 -4.7304 -2.4948 0.9765
-2.2385 -4.9016 -2.4943 0.9765
-1.7012 -5.1113 -2.4936 0.9765
-1.3320 -5.2188 -2.4932 0.9765
-1.1448 -5.2627 -2.4930 0.9765
-0.9562 -5.2998 -2.4928 0.9765
-0.1922 -5.3807 -2.4922 0.9765
-0.0000 -5.3839 -2.4921 0.9765
0.1922 -5.3802 -2.4920 0.9765
0.3841 -5.3698 -2.4919 0.9766
0.5754 -5.3525 -2.4918 0.9766
1.1442 -5.2600 -2.4917 0.9766
1.3312 -5.2157 -2.4917 0.9766
1.6999 -5.1074 -2.4917 0.9766
2.2362 -4.8966 -2.4917 0.9766
2.7471 -4.6299 -2.4920 0.9766
2.9107 -4.5291 -2.4920 0.9765
3.0706 -4.4225 -2.4922 0.9765
3.5263 -4.0696 -2.4925 0.9765
3.9419 -3.6700 -2.4930 0.9765
4.0707 -3.5273 -2.4932 0.9765
4.3127 -3.2284 -2.4937 0.9765
4.5328 -2.9131 -2.4941 0.9765
4.6344 -2.7497 -2.4944 0.9765
4.8197 -2.4126 -2.4949 0.9765
4.9033 -2.2393 -2.4951 0.9765
4.9807 -2.0631 -2.4954 0.9765
5.1164 -1.7029 -2.4960 0.9765
5.1745 -1.5194 -2.4963 0.9765
5.2710 -1.1467 -2.4970 0.9765
5.3093 -0.9579 -2.4973 0.9765
5.3835 -0.3850 -2.4983 0.9765
5.3945 -0.1927 -2.4986 0.9765
-5.1066 0.0000 -2.5049 0.9775
-5.1027 -0.1822 -2.5046 0.9775
-5.0753 -0.5456 -2.5039 0.9775
-4.9858 -1.0846 -2.5028 0.9775
-4.9432 -1.2617 -2.5025 0.9775
-4.6374 -2.1178 -2.5007 0.9775
-4.5582 -2.2817 -2.5004 0.9775
-4.4733 -2.4426 -2.5001 0.9775
-4.3826 -2.6003 -2.4997 0.9776
-4.0779 -3.0527 -2.4987 0.9776
-3.9658 -3.1959 -2.4984 0.9776
-3.7268 -3.4698 -2.4977 0.9776
-3.1935 -3.9629 -2.4965 0.9776
-2.9020 -4.1797 -2.4960 0.9776
-2.5959 -4.3751 -2.4954 0.9776
-2.4378 -4.4646 -2.4952 0.9776
-2.1127 -4.6262 -2.4947 0.9776
-1.6057 -4.8243 -2.4940 0.9776
-1.4323 -4.8781 -2.4939 0.9776
-1.2572 -4.9258 -2.4937 0.9776
-1.0805 -4.9672 -2.4935 0.9776
-0.7233 -5.0309 -2.4932 0.9776
-0.1814 -5.0786 -2.4928 0.9776
0.1814 -5.0782 -2.4926 0.9776
0.5431 -5.0520 -2.4924 0.9776
0.7231 -5.0293 -2.4924 0.9776
0.9021 -5.0002 -2.4923 0.9776
1.0800 -4.9647 -2.4923 0.9776
1.6045 -4.8208 -2.4922 0.9776
1.7756 -4.7605 -2.4923 0.9776
1.9444 -4.6941 -2.4923 0.9776
2.1107 -4.6218 -2.4923 0.9776
2.2744 -4.5436 -2.4924 0.9776
2.4352 -4.4597 -2.4924 0.9776
2.5929 -4.3700 -2.4925 0.9776
2.8982 -4.1742 -2.4927 0.9776
3.0455 -4.0683 -2.4928 0.9776
3.1889 -3.9572 -2.4929 0.9776
3.7206 -3.4640 -2.4936 0.9776
3.9588 -3.1902 -2.4939 0.9776
4.1770 -2.9001 -2.4943 0.9776
4.3740 -2.5952 -2.4948 0.9776
4.5489 -2.2770 -2.4953 0.9776
4.7677 -1.7783 -2.4961 0.9776
4.9322 -1.2589 -2.4969 0.9776
5.0637 -0.5444 -2.4982 0.9776
5.0806 -0.3634 -2.4985 0.9776
-4.8245 -0.1723 -2.5044 0.9785
-4.7987 -0.5159 -2.5038 0.9785
-4.7142 -1.0255 -2.5028 0.9785
-4.6278 -1.3588 -2.5021 0.9785
-4.5757 -1.5229 -2.5018 0.9785
-4.3849 -2.0025 -2.5008 0.9785
-4.2298 -2.3097 -2.5002 0.9785
-4.0532 -2.6048 -2.4995 0.9785
-3.8561 -2.8866 -2.4989 0.9785
-3.5241 -3.2811 -2.4980 0.9785
-3.1521 -3.6377 -2.4971 0.9785
-2.8839 -3.8525 -2.4966 0.9785
-2.7443 -3.9526 -2.4963 0.9786
-2.4549 -4.1374 -2.4958 0.9786
-1.9980 -4.3749 -2.4951 0.9786
-1.8404 -4.4431 -2.4949 0.9786
-1.5185 -4.5623 -2.4945 0.9786
-1.1890 -4.6583 -2.4941 0.9786
-1.0219 -4.6975 -2.4940 0.9786
-0.6841 -4.7578 -2.4937 0.9786
-0.1715 -4.8030 -2.4933 0.9786
0.0000 -4.8059 -2.4932 0.9786
0.3428 -4.7933 -2.4930 0.9786
0.6839 -4.7564 -2.4929 0.9786
1.0214 -4.6953 -2.4928 0.9786
1.3537 -4.6104 -2.4928 0.9786
1.5174 -4.5592 -2.4928 0.9786
1.8389 -4.4394 -2.4928 0.9786
1.9962 -4.3710 -2.4929 0.9786
2.3030 -4.2176 -2.4930 0.9786
2.7409 -3.9477 -2.4932 0.9786
2.8802 -3.8475 -2.4933 0.9786
3.3992 -3.3992 -2.4939 0.9786
3.5186 -3.2759 -2.4940 0.9786
3.6335 -3.1484 -2.4942 0.9786
3.7438 -3.0170 -2.4944 0.9786
3.8494 -2.8816 -2.4946 0.9786
4.0458 -2.6001 -2.4950 0.9786
4.1364 -2.4543 -2.4952 0.9786
4.3018 -2.1533 -2.4956 0.9786
4.3763 -1.9986 -2.4959 0.9786
4.4453 -1.8413 -2.4961 0.9786
4.5087 -1.6816 -2.4964 0.9785
4.6181 -1.3560 -2.4969 0.9785
4.7042 -1.0233 -2.4975 0.9785
4.7663 -0.6853 -2.4981 0.9785
4.7883 -0.5148 -2.4984 0.9785
-4.5695 -0.1632 -2.5043 0.9794
-4.5242 -0.6505 -2.5034 0.9794
-4.4975 -0.8114 -2.5031 0.9794
-4.2793 -1.5961 -2.5015 0.9794
-4.1535 -1.8968 -2.5009 0.9794
-4.0066 -2.1878 -2.5003 0.9794
-3.8394 -2.4674 -2.4997 0.9794
-3.7484 -2.6026 -2.4994 0.9794
-3.4475 -2.9873 -2.4985 0.9794
-3.3383 -3.1081 -2.4982 0.9794
-3.2249 -3.2249 -2.4979 0.9794
-2.5997 -3.7443 -2.4966 0.9794
-2.0396 -4.0746 -2.4957 0.9794
-1.8927 -4.1445 -2.4955 0.9794
-1.5920 -4.2683 -2.4951 0.9794
-1.4385 -4.3221 -2.4949 0.9794
-1.2832 -4.3703 -2.4947 0.9794
-0.9681 -4.4502 -2.4944 0.9794
-0.6481 -4.5074 -2.4941 0.9794
-0.4867 -4.5274 -2.4940 0.9794
-0.3248 -4.5417 -2.4938 0.9794
0.0000 -4.5529 -2.4936 0.9794
0.3248 -4.5410 -2.4935 0.9795
0.6479 -4.5061 -2.4934 0.9795
0.8083 -4.4800 -2.4933 0.9795
0.9677 -4.4482 -2.4933 0.9795
1.2825 -4.3678 -2.4933 0.9795
1.5908 -4.2652 -2.4933 0.9795
1.7421 -4.2058 -2.4933 0.9795
1.8911 -4.1410 -2.4933 0.9795
2.0377 -4.0709 -2.4934 0.9795
2.4614 -3.8301 -2.4936 0.9795
2.7286 -3.6450 -2.4938 0.9794
3.1031 -3.3329 -2.4941 0.9794
3.2202 -3.2202 -2.4943 0.9794
3.3333 -3.1034 -2.4944 0.9794
3.4422 -2.9827 -2.4946 0.9794
3.5467 -2.8581 -2.4948 0.9794
3.6467 -2.7299 -2.4949 0.9794
3.9185 -2.3250 -2.4955 0.9794
3.9994 -2.1838 -2.4958 0.9794
4.0751 -2.0399 -2.4960 0.9794
4.1457 -1.8933 -2.4962 0.9794
4.4182 -1.1277 -2.4975 0.9794
4.4562 -0.9694 -2.4977 0.9794
4.4884 -0.8098 -2.4980 0.9794
4.5150 -0.6492 -2.4983 0.9794
4.5358 -0.4877 -2.4986 0.9794
4.5508 -0.3255 -2.4989 0.9794
-4.3258 -0.3094 -2.5039 0.9802
-4.3115 -0.4635 -2.5036 0.9802
-4.2665 -0.7698 -2.5030 0.9802
-4.2358 -0.9214 -2.5027 0.9802
-4.1997 -1.0719 -2.5024 0.9802
-4.1115 -1.3684 -2.5018 0.9802
-4.0596 -1.5142 -2.5015 0.9802
-4.0025 -1.6579 -2.5012 0.9802
-3.7241 -2.2096 -2.5001 0.9802
-3.6424 -2.3408 -2.4998 0.9802
-3.2707 -2.8341 -2.4987 0.9802
-3.1671 -2.9487 -2.4984 0.9802
-2.9481 -3.1665 -2.4979 0.9802
-2.8329 -3.2694 -2.4976 0.9802
-2.7141 -3.3681 -2.4974 0.9802
-2.4665 -3.5524 -2.4969 0.9802
-2.2064 -3.7186 -2.4964 0.9802
-2.0721 -3.7947 -2.4962 0.9802
-1.9351 -3.8659 -2.4960 0.9802
-1.7958 -3.9322 -2.4958 0.9802
-1.6542 -3.9935 -2.4956 0.9802
-1.5105 -4.0497 -2.4954 0.9802
-1.2175 -4.1466 -2.4951 0.9802
-1.0687 -4.1871 -2.4949 0.9802
-0.9185 -4.2223 -2.4948 0.9802
-0.7672 -4.2522 -2.4946 0.9802
0.3082 -4.3086 -2.4939 0.9802
0.4617 -4.2947 -2.4939 0.9802
0.6147 -4.2754 -2.4938 0.9802
0.9181 -4.2206 -2.4937 0.9802
1.0682 -4.1851 -2.4937 0.9802
1.2169 -4.1443 -2.4937 0.9802
1.3640 -4.0982 -2.4937 0.9802
1.5094 -4.0469 -2.4937 0.9802
1.6529 -3.9905 -2.4937 0.9802
1.9335 -3.8625 -2.4938 0.9802
2.0701 -3.7912 -2.4939 0.9802
2.2042 -3.7150 -2.4939 0.9802
2.3354 -3.6340 -2.4940 0.9802
2.4638 -3.5485 -2.4941 0.9802
2.5889 -3.4584 -2.4942 0.9802
3.0553 -3.0553 -2.4947 0.9802
3.2659 -2.8299 -2.4950 0.9802
3.3651 -2.7117 -2.4951 0.9802
3.4599 -2.5901 -2.4953 0.9802
3.5504 -2.4651 -2.4955 0.9802
3.7178 -2.2059 -2.4959 0.9802
3.7945 -2.0719 -2.4961 0.9802
3.8664 -1.9354 -2.4963 0.9802
3.9953 -1.6549 -2.4967 0.9802
4.1039 -1.3659 -2.4972 0.9802
4.2277 -0.9197 -2.4980 0.9802
4.2835 -0.6159 -2.4985 0.9802
4.3174 -0.3088 -2.4990 0.9802
4.3262 -0.1545 -2.4993 0.9802
