ply
format ascii 1.0
element vertex 1372
property float32 x
property float32 y
property float32 z
property float32 I
end_header
34.2696 11.4060 6.3686 0.8636
33.0351 12.3215 6.2170 0.8666
22.5272 14.4773 4.7217 0.8969
18.8359 15.1789 4.2655 0.9064
17.8149 15.4367 4.1565 0.9087
15.7125 15.7125 3.9181 0.9137
14.5649 15.6438 3.7689 0.9168
13.6984 15.8088 3.6884 0.9185
13.1264 16.2889 3.6887 0.9185
12.4496 16.6307 3.6631 0.9191
15.2706 21.9938 4.7212 0.8970
9.1094 16.6826 3.3516 0.9257
8.4167 16.8145 3.3155 0.9265
7.8586 17.2079 3.3357 0.9260
8.8589 23.7516 4.4699 0.9022
7.9620 23.9219 4.4456 0.9027
4.6158 18.0845 3.2910 0.9270
2.0817 9.5696 1.7268 0.9610
1.6767 9.2935 1.6652 0.9624
1.3565 9.4350 1.6808 0.9620
1.9859 18.4715 3.2758 0.9273
1.3614 19.0353 3.3650 0.9254
0.9024 25.2664 4.4580 0.9024
-0.0000 25.4391 4.4856 0.9018
-3.5111 19.4606 3.4868 0.9228
-4.3406 19.9535 3.6006 0.9204
-5.1746 20.2739 3.6894 0.9185
-6.6852 20.0858 3.7327 0.9176
-8.2826 19.9959 3.8163 0.9158
-9.3866 20.5536 3.9842 0.9123
-10.4424 20.8613 4.1135 0.9096
-11.4697 21.0051 4.2200 0.9074
-12.5538 21.1583 4.3380 0.9049
-16.3869 21.8904 4.8216 0.8949
-17.8680 22.1728 5.0211 0.8908
-19.0305 21.9623 5.1241 0.8887
40.2358 10.2696 6.3615 0.8453
35.8678 11.9380 5.7911 0.8582
33.3114 12.4245 5.4465 0.8660
24.9522 13.6249 4.3553 0.8913
22.6192 14.5365 4.1190 0.8969
19.6132 14.6822 3.7532 0.9056
18.7798 15.1338 3.6949 0.9070
15.9006 15.9006 3.4449 0.9130
14.5645 15.6434 3.2743 0.9171
13.6980 15.8084 3.2045 0.9188
13.1727 16.3463 3.2161 0.9186
12.7223 16.9951 3.2522 0.9177
14.5652 22.6639 4.1272 0.8967
10.0940 17.0125 3.0304 0.9231
8.4165 16.8140 2.8805 0.9267
7.3289 17.6936 2.9339 0.9254
8.8583 23.7501 3.8832 0.9025
7.1366 24.3052 3.8806 0.9026
4.6225 18.1109 2.8634 0.9272
2.0764 9.5450 1.4964 0.9612
1.9906 18.5158 2.8529 0.9274
1.8109 25.3203 3.8888 0.9024
0.9083 25.4334 3.8987 0.9021
-3.5197 19.5081 3.0368 0.9229
-5.7730 26.5380 4.1606 0.8959
-6.7312 26.3725 4.1696 0.8957
-7.9120 26.9458 4.3022 0.8926
-8.0631 19.4661 3.2278 0.9183
-14.0769 28.1221 4.8177 0.8805
-15.0151 21.6259 4.0332 0.8989
-17.8656 22.1699 4.3618 0.8912
-21.2376 22.8108 4.7746 0.8815
-23.1816 23.1816 5.0223 0.8758
-17.3781 13.0091 3.3255 0.9159
45.7519 9.9527 6.0972 0.8279
35.8660 11.9374 4.9224 0.8586
33.3086 12.4235 4.6294 0.8664
27.2300 13.6304 3.9654 0.8844
19.6125 14.6817 3.1903 0.9059
18.8997 15.2304 3.1608 0.9067
22.6276 21.0671 4.0260 0.8828
13.6976 15.8079 2.7238 0.9191
13.2105 16.3933 2.7416 0.9186
16.6260 22.2098 3.6128 0.8941
11.7149 16.8726 2.6748 0.9205
10.1272 17.0685 2.5845 0.9231
8.4163 16.8136 2.4485 0.9270
7.8992 17.2968 2.4762 0.9262
8.8800 23.8082 3.3089 0.9026
6.0126 18.0651 2.4793 0.9261
7.2677 24.7517 3.3593 0.9012
2.0711 9.5208 1.2688 0.9615
1.6758 9.2884 1.2291 0.9626
1.3586 9.4491 1.2431 0.9622
1.9931 18.5382 2.4280 0.9275
1.8441 25.7848 3.3663 0.9010
-0.0000 25.5270 3.3241 0.9022
-1.3672 19.1165 2.4957 0.9256
-2.7225 18.9354 2.4911 0.9257
-3.5225 19.5241 2.5835 0.9231
-7.8928 26.8803 3.6482 0.8931
-7.4304 19.9215 2.7688 0.9178
-9.5979 21.0164 3.0087 0.9110
-14.0863 28.1408 4.0980 0.8808
-13.4874 20.9867 3.2486 0.9043
-15.1529 21.8243 3.4598 0.8984
-16.8537 22.5139 3.6623 0.8928
-17.9117 22.2270 3.7173 0.8912
-21.2811 22.8574 4.0669 0.8816
-23.1965 23.1966 4.2719 0.8761
-24.7913 23.0815 4.4109 0.8723
-17.3734 13.0056 2.8261 0.9162
46.0011 10.0069 5.0552 0.8275
41.4961 10.5912 4.5988 0.8417
21.1346 6.2057 2.3653 0.9152
35.8611 11.9357 4.0585 0.8589
30.4582 12.6162 3.5401 0.8758
29.4560 13.4521 3.4773 0.8779
25.6352 12.8321 3.0784 0.8911
25.0059 13.6543 3.0594 0.8917
24.2263 14.3742 3.0249 0.8929
29.0122 20.1436 3.7927 0.8675
19.6119 14.6812 2.6307 0.9061
21.0749 21.0749 3.2005 0.8870
13.6972 15.8075 2.2460 0.9193
12.7129 16.9825 2.2780 0.9182
15.3848 22.1584 2.8967 0.8972
14.5992 22.7168 2.8997 0.8971
9.9229 16.7241 2.0882 0.9247
9.1087 16.6813 2.0409 0.9264
8.4161 16.8132 2.0190 0.9271
7.8231 17.1302 2.0222 0.9270
7.1431 17.2450 2.0044 0.9277
8.8858 23.8236 2.7304 0.9028
8.1801 24.5772 2.7815 0.9010
7.2676 24.7510 2.7700 0.9014
4.5296 17.7467 1.9668 0.9290
1.6753 9.2858 1.0132 0.9628
1.9611 18.2412 1.9701 0.9289
1.8441 25.7841 2.7758 0.9012
0.9271 25.9588 2.7893 0.9008
-0.0000 25.5918 2.7481 0.9022
-0.6820 19.0944 2.0517 0.9260
-2.0214 18.8013 2.0306 0.9267
-2.7224 18.9349 2.0542 0.9259
-3.4787 19.2812 2.1039 0.9242
-4.2217 19.4067 2.1327 0.9232
-6.7308 26.3711 2.9226 0.8963
-7.9376 27.0331 3.0254 0.8928
-8.0804 19.5079 2.2674 0.9186
-15.8450 29.0180 3.5503 0.8755
-22.6184 32.5767 4.2586 0.8525
-22.9225 30.6210 4.1074 0.8574
-17.9977 22.3337 3.0800 0.8910
-19.4428 20.8830 3.0639 0.8916
-23.4489 23.4489 3.5610 0.8751
-17.3687 13.0021 2.3298 0.9164
25.6254 12.8272 2.4259 0.8913
25.0049 13.6537 2.4118 0.8919
30.9295 19.8772 3.1123 0.8628
21.0313 14.6023 2.1674 0.9023
19.6112 14.6808 2.0738 0.9063
23.3036 21.6964 2.6953 0.8800
15.7057 15.7057 1.8802 0.9147
13.6969 15.8070 1.7706 0.9195
12.8750 17.1990 1.8187 0.9174
15.3844 22.1578 2.2835 0.8974
14.4485 22.4824 2.2623 0.8983
9.1084 16.6809 1.6089 0.9265
7.8590 17.2087 1.6015 0.9269
8.8059 23.6095 2.1331 0.9038
8.0789 24.2732 2.1656 0.9024
7.1777 24.4449 2.1567 0.9028
2.0607 9.4730 0.8207 0.9618
1.6749 9.2832 0.7985 0.9628
1.9701 18.3245 1.5602 0.9287
-0.0000 25.2845 2.1404 0.9035
-1.3560 18.9594 1.6091 0.9265
-3.4945 19.3688 1.6661 0.9240
-6.7306 26.3704 2.3039 0.8965
-6.1901 21.0817 1.8600 0.9156
-7.4309 19.9229 1.8001 0.9182
-9.3532 20.4806 1.9060 0.9136
-11.8312 21.6672 2.0898 0.9057
-12.4507 20.9846 2.0655 0.9067
-18.0288 22.3723 2.4323 0.8911
-19.1129 22.0575 2.4707 0.8894
-23.6306 23.6306 2.8290 0.8745
-24.8651 23.1502 2.8760 0.8725
-17.3641 12.9986 1.8362 0.9166
21.1218 6.2019 1.3651 0.9156
29.5231 13.4828 2.0126 0.8780
30.6609 19.7046 2.2601 0.8641
21.1347 14.6741 1.5955 0.9020
18.7678 15.1240 1.4947 0.9079
18.4653 16.0003 1.5151 0.9067
15.7039 15.7040 1.3772 0.9148
13.6965 15.8066 1.2970 0.9196
12.8755 17.1996 1.3323 0.9175
14.5285 22.6069 1.6664 0.8979
9.9671 16.7987 1.2112 0.9247
8.4157 16.8123 1.1658 0.9274
7.1754 17.3231 1.1627 0.9276
8.8356 23.6891 1.5678 0.9036
8.1211 24.4000 1.5947 0.9021
1.6744 9.2807 0.5848 0.9629
1.3616 9.4701 0.5933 0.9624
1.8308 25.5982 1.5914 0.9023
0.9204 25.7716 1.5991 0.9018
-2.7223 18.9339 1.1862 0.9262
-3.4942 19.3669 1.2203 0.9242
-5.7583 26.4703 1.6798 0.8971
-6.7304 26.3696 1.6876 0.8967
-7.4311 19.9236 1.3186 0.9183
-8.0687 19.4795 1.3075 0.9190
-9.3521 20.4783 1.3960 0.9137
-11.8902 21.7752 1.5385 0.9054
-17.4004 23.2442 1.8005 0.8901
-17.7960 22.0835 1.7587 0.8926
-19.1122 22.0566 1.8098 0.8896
-24.8640 23.1492 2.1066 0.8727
-17.3595 12.9951 1.3447 0.9168
21.1154 6.2001 0.8678 0.9157
35.7375 11.8946 1.4852 0.8600
27.0487 13.5396 1.1927 0.8860
23.9126 14.1881 1.0964 0.8947
21.1320 14.6722 1.0144 0.9021
18.4658 16.0007 0.9634 0.9068
15.7022 15.7022 0.8756 0.9149
14.5624 15.6411 0.8427 0.9180
13.0600 16.2064 0.8207 0.9201
15.3836 22.1566 1.0636 0.8976
7.8575 17.2054 0.7458 0.9271
8.2028 24.6454 1.0242 0.9012
4.5495 17.8246 0.7254 0.9290
2.0505 9.4260 0.3804 0.9621
1.6740 9.2781 0.3718 0.9630
1.3626 9.4770 0.3775 0.9624
0.9297 26.0308 1.0271 0.9010
-0.6981 19.5462 0.7712 0.9247
-2.0212 18.7999 0.7456 0.9271
-3.4938 19.3650 0.7759 0.9243
-6.7303 26.3689 1.0731 0.8968
-6.1915 21.0865 0.8666 0.9158
-6.6421 19.9563 0.8293 0.9193
-7.4314 19.9243 0.8385 0.9184
-9.3511 20.4760 0.8876 0.9138
-12.5070 21.0793 0.9665 0.9065
-14.9588 21.5448 1.0342 0.9003
-17.4017 23.2460 1.1450 0.8903
-17.7934 22.0803 1.1182 0.8927
-17.3549 12.9917 0.8548 0.9169
45.5685 1.6275 0.7702 0.8333
46.7191 10.1631 0.8076 0.8259
35.7305 11.8923 0.6361 0.8601
35.3446 13.1829 0.6372 0.8599
25.0021 13.6522 0.4812 0.8923
23.9134 14.1885 0.4697 0.8947
30.8058 19.7977 0.6186 0.8637
21.1293 14.6704 0.4345 0.9022
18.4663 16.0012 0.4127 0.9069
15.7005 15.7005 0.3751 0.9150
14.5620 15.6407 0.3610 0.9181
13.6957 15.8057 0.3533 0.9197
15.3832 22.1561 0.4556 0.8977
9.1077 16.6796 0.3210 0.9268
8.8339 23.6847 0.4270 0.9038
8.2026 24.6448 0.4388 0.9013
7.2875 24.8191 0.4369 0.9017
1.3636 9.4840 0.1619 0.9624
1.9695 18.3194 0.3112 0.9289
0.9297 26.0302 0.4400 0.9010
-0.0000 25.3652 0.4285 0.9035
-0.6983 19.5501 0.3304 0.9247
-1.3556 18.9539 0.3210 0.9268
-3.4935 19.3631 0.3324 0.9243
-5.7571 26.4650 0.4575 0.8973
-6.1923 21.0889 0.3713 0.9158
-8.2809 19.9919 0.3655 0.9171
-14.0316 28.0316 0.5295 0.8821
-11.8921 21.7787 0.4192 0.9055
-12.5054 21.0767 0.4140 0.9066
-17.4030 23.2477 0.4905 0.8903
-17.7908 22.0770 0.4789 0.8928
-19.1107 22.0549 0.4930 0.8898
-21.1458 22.7121 0.5242 0.8833
-23.4955 23.4956 0.5613 0.8755
-24.8618 23.1471 0.5738 0.8729
45.3845 1.6210 -0.2557 0.8339
46.7201 10.1633 -0.2692 0.8259
35.7236 11.8900 -0.2120 0.8602
30.4515 12.6134 -0.1856 0.8765
29.6210 13.5275 -0.1833 0.8779
27.0406 13.5356 -0.1702 0.8861
23.9142 14.1890 -0.1566 0.8947
21.1266 14.6685 -0.1448 0.9022
19.6087 14.6789 -0.1379 0.9067
18.7609 15.1185 -0.1357 0.9081
18.4668 16.0016 -0.1376 0.9069
22.6113 21.0519 -0.1739 0.8838
15.6987 15.6987 -0.1250 0.9150
15.3828 22.1555 -0.1519 0.8977
9.9642 16.7937 -0.1099 0.9249
7.8560 17.2022 -0.1065 0.9271
8.8331 23.6825 -0.1423 0.9038
8.2024 24.6442 -0.1462 0.9013
4.5486 17.8213 -0.1036 0.9291
1.6730 9.2731 -0.0531 0.9630
-0.0000 25.3628 -0.1428 0.9035
-1.3555 18.9521 -0.1070 0.9268
-2.0211 18.7990 -0.1065 0.9272
-2.7221 18.9325 -0.1077 0.9263
-3.4932 19.3612 -0.1108 0.9243
-5.7565 26.4623 -0.1525 0.8973
-9.3490 20.4715 -0.1267 0.9139
-14.0300 28.0284 -0.1765 0.8822
-11.8930 21.7805 -0.1397 0.9055
-12.5038 21.0741 -0.1380 0.9066
-13.4847 20.9825 -0.1404 0.9050
-19.1100 22.0540 -0.1643 0.8898
-21.1426 22.7087 -0.1747 0.8833
-23.4972 23.4972 -0.1871 0.8755
-24.8606 23.1461 -0.1912 0.8730
-17.3457 12.9848 -0.1220 0.9170
45.2019 1.6144 -1.2736 0.8344
46.7214 10.1636 -1.3463 0.8259
21.0964 6.1945 -0.6191 0.9158
35.7166 11.8877 -1.0599 0.8602
18.4673 16.0021 -0.6881 0.9068
22.6088 21.0495 -0.8698 0.8837
14.5612 15.6398 -0.6017 0.9180
13.6949 15.8048 -0.5889 0.9197
7.8552 17.2006 -0.5324 0.9271
7.2872 24.8179 -0.7283 0.9017
4.5482 17.8197 -0.5178 0.9290
1.3656 9.4979 -0.2702 0.9623
-0.0000 25.3603 -0.7141 0.9035
-1.3554 18.9502 -0.5350 0.9268
-6.1937 21.0937 -0.6190 0.9158
-6.6400 19.9499 -0.5920 0.9193
-12.5023 21.0714 -0.6899 0.9066
-13.4842 20.9818 -0.7023 0.9050
-19.1092 22.0532 -0.8216 0.8898
-23.4990 23.4990 -0.9358 0.8755
-17.3411 12.9814 -0.6099 0.9170
47.1778 3.3743 -2.3987 0.8274
47.0546 5.0589 -2.4001 0.8273
41.6882 10.6403 -2.1820 0.8417
35.5944 11.8470 -1.9025 0.8605
35.2874 13.1616 -1.9100 0.8600
27.0325 13.5315 -1.5331 0.8860
30.7394 19.7550 -1.8531 0.8639
21.1212 14.6648 -1.3040 0.9021
19.6074 14.6779 -1.2421 0.9066
18.7563 15.1148 -1.2216 0.9080
18.4679 16.0026 -1.2393 0.9068
15.6953 15.6953 -1.1257 0.9149
13.0545 16.1996 -1.0551 0.9201
12.8781 17.2032 -1.0898 0.9175
15.3820 22.1543 -1.3678 0.8976
9.1071 16.6783 -0.9637 0.9267
7.8545 17.1989 -0.9589 0.9271
1.6721 9.2680 -0.4776 0.9630
1.3666 9.5049 -0.4870 0.9623
1.9690 18.3144 -0.9342 0.9289
1.8490 25.8532 -1.3145 0.9014
0.9296 26.0283 -1.3208 0.9009
-0.6987 19.5619 -0.9927 0.9246
-1.3552 18.9484 -0.9634 0.9267
-2.0210 18.7980 -0.9588 0.9271
-2.7220 18.9315 -0.9700 0.9263
-3.4925 19.3574 -0.9976 0.9242
-6.1944 21.0962 -1.1150 0.9157
-6.6393 19.9477 -1.0662 0.9192
-9.3469 20.4669 -1.1411 0.9138
-11.8950 21.7841 -1.2587 0.9054
-13.4838 20.9812 -1.2648 0.9049
-14.9511 21.5337 -1.3295 0.9003
-17.7830 22.0673 -1.4373 0.8927
-37.1596 32.1989 -2.4936 0.8212
-17.3365 12.9779 -1.0983 0.9169
-42.0938 24.9754 -2.4822 0.8220
-42.9205 23.4364 -2.4800 0.8221
-43.6914 21.8703 -2.4779 0.8223
-44.4060 20.2795 -2.4757 0.8224
-45.0633 18.6659 -2.4736 0.8225
-45.6629 17.0313 -2.4716 0.8227
-46.2039 15.3781 -2.4696 0.8228
-46.6861 13.7083 -2.4676 0.8229
-47.1087 12.0238 -2.4657 0.8231
-47.4717 10.3268 -2.4638 0.8232
33.4003 1.1929 -2.4505 0.8746
31.8073 6.9192 -2.3867 0.8776
31.5501 8.0527 -2.3875 0.8776
30.5340 11.3886 -2.3895 0.8775
23.8496 14.1507 -2.0333 0.8947
21.0538 14.6179 -1.8793 0.9023
19.6067 14.6774 -1.7958 0.9064
15.6935 15.6935 -1.6273 0.9148
14.5604 15.6389 -1.5667 0.9179
12.8787 17.2039 -1.5757 0.9174
9.9612 16.7888 -1.4314 0.9247
9.1068 16.6779 -1.3933 0.9266
8.4144 16.8098 -1.3783 0.9274
7.8537 17.1973 -1.3862 0.9270
7.1714 17.3132 -1.3740 0.9276
7.2868 24.8167 -1.8964 0.9015
4.5473 17.8164 -1.3482 0.9289
1.6717 9.2655 -0.6903 0.9629
1.3676 9.5120 -0.7046 0.9622
1.9688 18.3127 -1.3505 0.9288
1.8490 25.8525 -1.9004 0.9013
-3.4921 19.3555 -1.4421 0.9241
-5.7414 26.3928 -1.9804 0.8973
-6.6385 19.9456 -1.5413 0.9191
-8.2800 19.9896 -1.5864 0.9169
-9.3173 20.4020 -1.6445 0.9140
-13.9942 27.9570 -2.2923 0.8822
-12.4597 20.9996 -1.7904 0.9067
-14.9037 21.4653 -1.9161 0.9005
-21.0701 22.6309 -2.2672 0.8834
-17.3319 12.9745 -1.5874 0.9168
-26.2106 18.1983 -2.3396 0.8799
-27.4077 16.2618 -2.3367 0.8800
-30.8112 14.0710 -2.4836 0.8730
-31.6996 11.8233 -2.4807 0.8731
-32.0832 10.6783 -2.4793 0.8732
-32.9871 7.1759 -2.4753 0.8734
26.3248 0.0000 -2.5273 0.8996
26.3167 0.9399 -2.5281 0.8996
26.2747 1.8792 -2.5289 0.8996
25.3614 2.7267 -2.4488 0.9026
8.3069 1.8071 -0.8162 0.9664
20.1810 5.1509 -1.9996 0.9197
20.3362 5.9712 -2.0348 0.9184
22.9057 9.4879 -2.3802 0.9052
22.5561 10.3010 -2.3806 0.9052
21.7697 11.8872 -2.3813 0.9051
21.3339 12.6580 -2.3815 0.9051
18.1609 16.9084 -2.3822 0.9051
14.5599 15.6385 -2.0514 0.9177
13.0110 16.1457 -1.9907 0.9201
12.8074 17.1087 -2.0518 0.9177
9.9295 16.7354 -1.8682 0.9248
8.8474 16.2027 -1.7723 0.9285
8.4142 16.8094 -1.8047 0.9272
7.1489 17.2589 -1.7935 0.9277
7.8220 23.5014 -2.3779 0.9053
1.7633 24.6545 -2.3730 0.9054
0.8819 24.6930 -2.3722 0.9055
-2.0209 18.7971 -1.8150 0.9268
-2.7218 18.9306 -1.8361 0.9260
-3.4809 19.2931 -1.8821 0.9242
-5.2376 24.0771 -2.3656 0.9057
-6.0910 23.8644 -2.3645 0.9058
-6.1640 20.9926 -2.1005 0.9158
-6.6173 19.8819 -2.0117 0.9192
-7.4330 19.9285 -2.0420 0.9181
-8.2797 19.9890 -2.0772 0.9167
-9.3163 20.3997 -2.1530 0.9138
-10.9940 21.9633 -2.3580 0.9060
-11.7653 21.5466 -2.3569 0.9061
-12.4581 20.9970 -2.3439 0.9066
-13.9806 20.1359 -2.3534 0.9062
-16.0292 18.4986 -2.3499 0.9063
-16.6710 17.9059 -2.3488 0.9064
-17.8881 16.6544 -2.3464 0.9065
-16.5348 13.3245 -2.0387 0.9182
-17.0945 11.8689 -1.9979 0.9198
-18.8015 12.0830 -2.1457 0.9141
-20.9585 12.4352 -2.3396 0.9067
-23.9295 9.9119 -2.4866 0.9012
-24.8197 7.2877 -2.4834 0.9013
-25.2556 5.4940 -2.4814 0.9014
-25.6686 2.7596 -2.4785 0.9015
-25.7415 1.8406 -2.4776 0.9015
21.1284 2.2716 -2.5242 0.9180
21.0388 3.0249 -2.5248 0.9179
8.1343 1.4676 -0.9818 0.9673
8.2387 1.7922 -1.0015 0.9666
19.1687 5.6284 -2.3731 0.9227
17.8776 8.9489 -2.3748 0.9226
17.5486 9.5823 -2.3750 0.9226
16.8231 10.8115 -2.3754 0.9226
16.4274 11.4058 -2.3756 0.9226
15.5731 12.5496 -2.3758 0.9226
15.1155 13.0977 -2.3758 0.9226
14.6384 13.6289 -2.3758 0.9226
14.1425 14.1425 -2.3758 0.9226
13.6283 14.6379 -2.3757 0.9226
13.0967 15.1144 -2.3756 0.9226
12.5481 15.5713 -2.3755 0.9226
11.9835 16.0081 -2.3753 0.9226
11.4036 16.4243 -2.3751 0.9226
10.8090 16.8192 -2.3749 0.9226
5.6255 19.1588 -2.3719 0.9227
4.5326 17.7585 -2.1771 0.9288
1.6708 9.2604 -1.1178 0.9628
1.3696 9.5261 -1.1432 0.9620
1.4224 19.8875 -2.3684 0.9228
-0.6895 19.3050 -2.2946 0.9251
-4.9167 19.2634 -2.3616 0.9230
-6.9401 18.6070 -2.3590 0.9231
-7.5969 18.3406 -2.3581 0.9231
-8.8792 17.7383 -2.3563 0.9232
-10.1141 17.0464 -2.3545 0.9233
-11.8642 15.8487 -2.3517 0.9234
-13.9765 13.9765 -2.3479 0.9235
-14.4607 13.4634 -2.3470 0.9235
-15.3721 12.3876 -2.3451 0.9236
-15.7982 11.8264 -2.3442 0.9236
-18.7544 9.3878 -2.4913 0.9190
-19.0705 8.7092 -2.4904 0.9190
-19.8708 6.6136 -2.4877 0.9191
-20.4433 4.4472 -2.4852 0.9192
-20.5824 3.7135 -2.4844 0.9192
-20.8426 1.4907 -2.4821 0.9193
-20.8766 0.7456 -2.4814 0.9193
17.7775 0.0000 -2.5189 0.9307
17.7399 1.2688 -2.5200 0.9307
17.6870 1.9016 -2.5205 0.9307
17.6113 2.5321 -2.5210 0.9306
8.0719 1.4563 -1.1622 0.9674
16.9484 4.3258 -2.4784 0.9318
16.0437 4.7109 -2.3692 0.9347
15.8676 5.2813 -2.3695 0.9347
15.6711 5.8450 -2.3698 0.9347
14.9614 7.4891 -2.3706 0.9346
14.3913 8.5388 -2.3710 0.9346
14.0782 9.0475 -2.3711 0.9346
12.6490 10.9604 -2.3715 0.9346
12.2497 11.4049 -2.3715 0.9346
11.4045 12.2493 -2.3714 0.9346
10.5008 13.0307 -2.3712 0.9346
9.0458 14.0755 -2.3707 0.9346
8.0170 14.6821 -2.3702 0.9347
6.9475 15.2129 -2.3696 0.9347
6.3992 15.4490 -2.3693 0.9347
5.8428 15.6652 -2.3690 0.9347
5.2791 15.8613 -2.3686 0.9347
2.0106 9.2425 -1.3402 0.9625
1.1909 16.6507 -2.3653 0.9348
-0.0000 16.6852 -2.3641 0.9348
-1.1897 16.6341 -2.3629 0.9348
-2.3720 16.4978 -2.3616 0.9349
-2.9585 16.3980 -2.3609 0.9349
-3.5409 16.2773 -2.3603 0.9349
-4.6903 15.9737 -2.3588 0.9350
-5.2558 15.7912 -2.3581 0.9350
-7.9634 14.5839 -2.3544 0.9351
-8.4761 14.2857 -2.3536 0.9351
-9.4674 13.6356 -2.3520 0.9351
-9.9447 13.2845 -2.3513 0.9352
-12.1250 11.2888 -2.3473 0.9353
-12.5160 10.8452 -2.3465 0.9353
-14.4113 10.0059 -2.4858 0.9316
-14.8152 9.5212 -2.4953 0.9313
-15.1408 8.9834 -2.4945 0.9313
-15.4468 8.4346 -2.4937 0.9314
-15.7331 7.8754 -2.4929 0.9314
-16.2448 6.7288 -2.4914 0.9314
-16.4697 6.1429 -2.4906 0.9314
-17.1567 3.7322 -2.4878 0.9315
-17.4437 1.8754 -2.4858 0.9316
-17.4952 1.2513 -2.4852 0.9316
15.2683 0.5453 -2.5169 0.9399
15.2419 1.0901 -2.5174 0.9399
15.1960 1.6337 -2.5178 0.9399
8.1360 1.4679 -1.3619 0.9670
14.4269 4.8018 -2.5049 0.9402
12.8516 6.4330 -2.3676 0.9434
12.6147 6.8882 -2.3678 0.9434
10.8647 9.4143 -2.3683 0.9434
10.1654 10.1654 -2.3683 0.9434
8.1973 11.8064 -2.3678 0.9434
7.7702 12.0906 -2.3677 0.9434
7.3331 12.3593 -2.3675 0.9434
6.4315 12.8485 -2.3670 0.9434
5.9681 13.0684 -2.3668 0.9434
5.0194 13.4575 -2.3662 0.9434
3.5505 13.9108 -2.3651 0.9435
2.0056 9.2197 -1.5544 0.9625
1.5336 14.2644 -2.3635 0.9435
0.7514 10.5059 -1.7352 0.9582
0.5118 14.3317 -2.3625 0.9435
-0.0000 14.3379 -2.3620 0.9435
-0.5116 14.3256 -2.3615 0.9435
-1.0224 14.2950 -2.3610 0.9436
-2.5428 14.0938 -2.3593 0.9436
-3.0435 13.9905 -2.3587 0.9436
-3.5400 13.8695 -2.3581 0.9436
-4.9983 13.4010 -2.3562 0.9437
-5.9384 13.0032 -2.3550 0.9437
-6.8471 12.5394 -2.3536 0.9437
-5.7336 8.9217 -1.7471 0.9579
-8.1413 11.7257 -2.3516 0.9438
-8.5522 11.4244 -2.3510 0.9438
-8.9519 11.1086 -2.3503 0.9438
-9.3400 10.7789 -2.3496 0.9438
-9.7160 10.4357 -2.3489 0.9438
-10.4297 9.7104 -2.3476 0.9439
-13.0273 7.7294 -2.4954 0.9404
-13.5382 6.7767 -2.4941 0.9405
-13.9797 5.7906 -2.4928 0.9405
-14.3498 4.7761 -2.4915 0.9405
-14.7674 3.2124 -2.4897 0.9406
-14.9521 2.1498 -2.4885 0.9406
-15.0160 1.6144 -2.4880 0.9406
-15.0609 1.0772 -2.4875 0.9406
13.3780 0.0000 -2.5145 0.9470
13.3078 1.4307 -2.5158 0.9470
13.2502 1.9051 -2.5161 0.9470
8.2486 1.7944 -1.5867 0.9662
12.9757 3.3118 -2.5171 0.9470
12.8507 3.7733 -2.5174 0.9469
12.5514 4.6814 -2.5179 0.9469
11.6931 5.3400 -2.4162 0.9490
11.2529 5.6328 -2.3653 0.9501
10.8237 6.4220 -2.3656 0.9501
10.3389 7.1784 -2.3658 0.9501
10.0764 7.5431 -2.3658 0.9501
9.8009 7.8981 -2.3659 0.9501
9.5129 8.2429 -2.3659 0.9501
9.2126 8.5772 -2.3659 0.9501
8.9005 8.9005 -2.3659 0.9501
8.5770 9.2124 -2.3659 0.9501
7.5423 10.0754 -2.3656 0.9501
6.0301 11.0433 -2.3650 0.9501
5.6316 11.2505 -2.3648 0.9501
4.8137 11.6213 -2.3643 0.9501
4.3953 11.7844 -2.3641 0.9501
2.9162 8.7619 -1.7357 0.9631
2.0010 9.1984 -1.7694 0.9624
1.6694 9.2526 -1.7672 0.9625
1.3728 9.5477 -1.8131 0.9615
0.4483 12.5523 -2.3608 0.9502
-0.0000 12.5580 -2.3604 0.9502
-0.8955 12.5211 -2.3595 0.9502
-1.3416 12.4787 -2.3590 0.9502
-2.2275 12.3460 -2.3580 0.9502
-3.5321 12.0291 -2.3565 0.9503
-3.9583 11.8926 -2.3559 0.9503
-4.7943 11.5745 -2.3548 0.9503
-5.2031 11.3933 -2.3542 0.9503
-5.9997 10.9877 -2.3531 0.9503
-7.1346 10.2757 -2.3513 0.9504
-7.8455 9.7356 -2.3501 0.9504
-8.1859 9.4470 -2.3495 0.9504
-8.5157 9.1465 -2.3490 0.9504
-10.3507 8.3411 -2.4986 0.9473
-10.6392 7.9644 -2.4980 0.9473
-11.4212 6.7765 -2.4962 0.9474
-11.6530 6.3630 -2.4956 0.9474
-11.8698 5.9416 -2.4950 0.9474
-12.4284 4.6355 -2.4932 0.9474
-12.9504 2.8172 -2.4911 0.9475
-13.1132 1.8854 -2.4901 0.9475
-13.1696 1.4159 -2.4896 0.9475
-13.2322 0.4726 -2.4887 0.9475
11.8889 0.0000 -2.5131 0.9526
11.8831 0.4244 -2.5134 0.9525
11.8621 0.8484 -2.5138 0.9525
11.7745 1.6929 -2.5145 0.9525
8.1911 1.4778 -1.7594 0.9665
11.5301 2.9429 -2.5154 0.9525
11.2930 3.7587 -2.5159 0.9525
11.1526 4.1597 -2.5161 0.9525
10.6284 5.3202 -2.5124 0.9526
9.6589 5.7309 -2.3740 0.9551
9.4077 6.0459 -2.3638 0.9553
9.1862 6.3781 -2.3639 0.9553
8.9529 6.7021 -2.3640 0.9553
8.4522 7.3239 -2.3641 0.9553
8.1854 7.6209 -2.3641 0.9553
7.9082 7.9082 -2.3640 0.9553
7.6208 8.1853 -2.3640 0.9553
7.0170 8.7076 -2.3639 0.9553
6.7015 8.9522 -2.3638 0.9553
6.0452 9.4065 -2.3635 0.9553
5.7052 9.6156 -2.3634 0.9553
5.0040 9.9967 -2.3630 0.9553
4.2773 10.3263 -2.3626 0.9553
2.7679 8.3163 -1.8527 0.9648
1.5367 8.5176 -1.8295 0.9652
-0.0000 11.1607 -2.3592 0.9554
-0.3983 11.1517 -2.3588 0.9554
-1.1924 11.0910 -2.3579 0.9554
-1.5872 11.0393 -2.3575 0.9554
-1.9798 10.9735 -2.3570 0.9554
-3.1397 10.6927 -2.3556 0.9555
-3.5186 10.5717 -2.3552 0.9555
-4.2620 10.2894 -2.3542 0.9555
-4.9830 9.9549 -2.3532 0.9555
-5.6780 9.5698 -2.3521 0.9555
-6.3435 9.1363 -2.3511 0.9555
-6.6640 8.9021 -2.3506 0.9556
-7.6177 8.7912 -2.4589 0.9536
-8.0500 8.6463 -2.4971 0.9528
-9.2051 7.4179 -2.4989 0.9528
-9.4619 7.0831 -2.4984 0.9528
-9.9387 6.3872 -2.4973 0.9528
-10.1581 6.0271 -2.4967 0.9529
-10.3646 5.6595 -2.4962 0.9529
-10.9034 4.5163 -2.4946 0.9529
-11.3169 3.3230 -2.4932 0.9529
-11.4262 2.9164 -2.4927 0.9529
-11.5209 2.5062 -2.4922 0.9529
-11.6661 1.6773 -2.4913 0.9530
-11.7166 1.2596 -2.4909 0.9530
-11.7728 0.4204 -2.4901 0.9530
10.6878 0.0000 -2.5119 0.9570
10.6825 0.3815 -2.5122 0.9570
10.6307 1.1429 -2.5129 0.9570
10.5844 1.5218 -2.5132 0.9570
8.2025 1.4799 -1.9589 0.9663
8.2647 1.7979 -1.9878 0.9658
10.3643 2.6453 -2.5139 0.9570
10.2642 3.0139 -2.5142 0.9570
9.7338 4.4453 -2.5149 0.9570
9.3929 5.1289 -2.5152 0.9570
8.5368 5.9272 -2.4425 0.9582
7.8271 6.3075 -2.3625 0.9595
7.5971 6.5829 -2.3625 0.9595
7.3573 6.8499 -2.3625 0.9595
6.5827 7.5968 -2.3625 0.9595
6.0236 8.0465 -2.3623 0.9595
5.4337 8.4550 -2.3621 0.9595
5.1282 8.6431 -2.3620 0.9595
4.1740 9.1398 -2.3615 0.9596
3.8448 9.2822 -2.3613 0.9596
3.5107 9.4126 -2.3611 0.9596
2.7679 8.3161 -2.0599 0.9646
2.4568 8.3670 -2.0495 0.9648
1.5367 8.5174 -2.0341 0.9651
1.2318 8.5672 -2.0342 0.9651
0.6199 8.6672 -2.0422 0.9649
0.3582 10.0288 -2.3585 0.9596
-0.0000 10.0337 -2.3581 0.9596
-0.3581 10.0258 -2.3578 0.9596
-0.7156 10.0050 -2.3574 0.9596
-2.1307 9.7948 -2.3558 0.9596
-2.9280 8.7973 -2.1791 0.9626
-4.1594 9.1079 -2.3532 0.9597
-5.8929 8.4873 -2.4284 0.9584
-6.6749 8.2830 -2.5001 0.9572
-7.7859 7.2489 -2.5002 0.9572
-8.0380 6.9650 -2.4997 0.9572
-8.2798 6.6723 -2.4992 0.9572
-8.5110 6.3713 -2.4987 0.9573
-8.7313 6.0622 -2.4982 0.9573
-8.9403 5.7456 -2.4977 0.9573
-9.6596 4.4114 -2.4958 0.9573
-9.8091 4.0631 -2.4953 0.9573
-9.9461 3.7097 -2.4949 0.9573
-10.3657 2.2549 -2.4931 0.9573
-10.4968 1.5092 -2.4923 0.9574
-10.5423 1.1334 -2.4920 0.9574
-10.5745 0.7563 -2.4916 0.9574
9.6034 1.3808 -2.5121 0.9607
9.4034 2.4001 -2.5128 0.9607
9.3126 2.7344 -2.5130 0.9607
9.0951 3.3923 -2.5134 0.9607
8.6819 4.3459 -2.5138 0.9607
8.5217 4.6532 -2.5139 0.9607
8.3505 4.9546 -2.5140 0.9607
7.9763 5.5380 -2.5142 0.9607
7.7626 5.8110 -2.5106 0.9607
7.5390 6.0753 -2.5069 0.9608
7.1304 6.1785 -2.4429 0.9618
6.7264 6.2625 -2.3795 0.9627
6.2144 6.6747 -2.3613 0.9630
5.2006 7.4903 -2.3610 0.9630
4.6525 7.8415 -2.3608 0.9630
4.3695 8.0021 -2.3606 0.9630
3.7870 8.2923 -2.3603 0.9630
3.1852 8.5400 -2.3599 0.9630
2.4232 8.2528 -2.2270 0.9651
1.5157 8.4011 -2.2103 0.9653
1.2150 8.4503 -2.2104 0.9653
0.9138 8.4995 -2.2134 0.9653
-1.2950 9.0066 -2.3559 0.9631
-1.9336 8.8885 -2.3552 0.9631
-2.2492 8.8124 -2.3548 0.9631
-2.5619 8.7251 -2.3544 0.9631
-2.8712 8.6266 -2.3541 0.9631
-3.4781 8.3969 -2.3532 0.9631
-3.7750 8.2660 -2.3528 0.9631
-4.0924 8.1756 -2.3672 0.9629
-4.4975 8.2365 -2.4298 0.9620
-5.2196 8.1219 -2.4997 0.9609
-5.5135 7.9409 -2.5030 0.9608
-6.0637 7.5246 -2.5021 0.9609
-6.5826 7.0702 -2.5012 0.9609
-6.8295 6.8295 -2.5007 0.9609
-7.0676 6.5802 -2.5003 0.9609
-7.5163 6.0570 -2.4994 0.9609
-8.1164 5.2161 -2.4980 0.9609
-8.2959 4.9222 -2.4976 0.9609
-8.6229 4.3163 -2.4967 0.9609
-8.7700 4.0051 -2.4963 0.9609
-8.9059 3.6889 -2.4959 0.9610
-9.4119 2.0474 -2.4939 0.9610
-9.5312 1.3704 -2.4932 0.9610
-9.5727 1.0292 -2.4928 0.9610
-9.6021 0.6867 -2.4925 0.9610
-9.6192 0.3435 -2.4922 0.9610
8.8667 0.0000 -2.5101 0.9638
8.8620 0.3165 -2.5104 0.9638
8.8460 0.6327 -2.5106 0.9638
8.8187 0.9481 -2.5109 0.9638
8.2788 1.4937 -2.3815 0.9656
8.3097 1.8077 -2.4074 0.9653
8.5139 2.4999 -2.5120 0.9638
8.3150 3.1013 -2.5123 0.9638
8.1995 3.3964 -2.5125 0.9638
7.9372 3.9731 -2.5127 0.9638
7.6341 4.5295 -2.5129 0.9638
7.2919 5.0629 -2.5131 0.9638
7.1067 5.3200 -2.5131 0.9638
6.9124 5.5704 -2.5132 0.9638
6.7080 5.8125 -2.5127 0.9638
5.9443 6.3847 -2.4696 0.9644
5.5936 6.4554 -2.4181 0.9651
5.2564 6.5228 -2.3715 0.9658
4.9960 6.6739 -2.3601 0.9659
4.7544 6.8477 -2.3600 0.9659
4.5068 7.0127 -2.3599 0.9659
3.9947 7.3157 -2.3596 0.9659
3.7308 7.4531 -2.3595 0.9659
3.4622 7.5811 -2.3594 0.9659
2.9121 7.8076 -2.3590 0.9660
2.6314 7.9060 -2.3588 0.9660
2.3473 7.9942 -2.3586 0.9660
1.7707 8.1397 -2.3582 0.9660
1.4789 8.1969 -2.3580 0.9660
1.1853 8.2436 -2.3577 0.9660
0.5940 8.3053 -2.3572 0.9660
-0.2971 8.3182 -2.3563 0.9660
-0.8895 8.2736 -2.3557 0.9660
-1.1841 8.2354 -2.3554 0.9660
-2.0567 8.0582 -2.3543 0.9660
-2.3427 7.9784 -2.3540 0.9660
-2.6343 7.9149 -2.3615 0.9659
-2.9715 7.9668 -2.4071 0.9653
-3.9540 7.8991 -2.5007 0.9639
-4.2381 7.7615 -2.5034 0.9639
-4.5129 7.6061 -2.5037 0.9639
-5.0424 7.2624 -2.5029 0.9639
-5.5457 6.8818 -2.5020 0.9639
-5.7869 6.6784 -2.5016 0.9639
-6.0205 6.4665 -2.5012 0.9639
-6.6739 5.7830 -2.5000 0.9640
-7.2503 5.0339 -2.4987 0.9640
-8.0224 3.6637 -2.4967 0.9640
-8.5392 2.1795 -2.4949 0.9640
-8.6103 1.8731 -2.4945 0.9640
-8.6705 1.5643 -2.4942 0.9640
-8.7197 1.2537 -2.4939 0.9640
-8.7578 0.9415 -2.4936 0.9640
-8.8005 0.3143 -2.4929 0.9641
8.1585 0.0000 -2.5094 0.9664
8.1142 0.8724 -2.5101 0.9664
8.0786 1.1615 -2.5104 0.9664
7.9765 1.7352 -2.5108 0.9664
7.6504 2.8535 -2.5115 0.9664
7.3027 3.6555 -2.5118 0.9664
7.1678 3.9139 -2.5119 0.9664
6.7089 4.6581 -2.5121 0.9664
6.1728 5.3488 -2.5122 0.9664
5.7755 5.7755 -2.5122 0.9664
5.3436 6.1668 -2.5098 0.9664
4.8809 6.5201 -2.5051 0.9665
4.2913 6.6773 -2.4414 0.9673
3.9960 6.7348 -2.4087 0.9678
3.1854 6.9752 -2.3585 0.9684
2.9360 7.0881 -2.3598 0.9684
2.6794 7.1837 -2.3582 0.9684
1.8957 7.4272 -2.3577 0.9684
1.0906 7.5852 -2.3570 0.9684
0.2734 7.6559 -2.3563 0.9684
-0.0000 7.6599 -2.3560 0.9685
-0.5463 7.6386 -2.3555 0.9685
-0.8185 7.6133 -2.3552 0.9685
-1.3862 7.6833 -2.4014 0.9679
-1.9852 7.7780 -2.4690 0.9670
-2.2890 7.7956 -2.4990 0.9666
-2.5677 7.7146 -2.5008 0.9665
-3.6445 7.2807 -2.5043 0.9665
-5.1041 6.3339 -2.5020 0.9665
-5.3261 6.1467 -2.5016 0.9665
-5.5413 5.9517 -2.5012 0.9665
-5.7493 5.7493 -2.5008 0.9665
-6.6736 4.6336 -2.4989 0.9666
-7.2608 3.6345 -2.4974 0.9666
-7.3849 3.3726 -2.4971 0.9666
-7.4995 3.1064 -2.4967 0.9666
-7.6999 2.5628 -2.4961 0.9666
-7.8610 2.0064 -2.4954 0.9666
-7.9821 1.4401 -2.4948 0.9666
-8.0275 1.1542 -2.4945 0.9666
-8.0626 0.8668 -2.4942 0.9666
7.5474 0.0000 -2.5088 0.9687
7.5295 0.5385 -2.5093 0.9687
7.5062 0.8070 -2.5095 0.9687
7.4307 1.3406 -2.5099 0.9687
7.3786 1.6051 -2.5101 0.9687
7.3172 1.8676 -2.5102 0.9687
7.1662 2.3851 -2.5106 0.9687
6.9785 2.8906 -2.5108 0.9687
6.8712 3.1380 -2.5109 0.9687
6.6304 3.6205 -2.5111 0.9687
6.4971 3.8549 -2.5112 0.9687
5.7099 4.9477 -2.5114 0.9687
5.5297 5.1483 -2.5114 0.9687
5.3424 5.3424 -2.5114 0.9687
4.9475 5.7097 -2.5113 0.9687
4.5274 6.0479 -2.5112 0.9687
4.3085 6.2054 -2.5112 0.9687
4.0813 6.3506 -2.5093 0.9687
3.3726 6.7377 -2.5046 0.9687
2.8648 6.9164 -2.4885 0.9689
1.2991 7.2002 -2.4320 0.9696
1.0417 7.2451 -2.4331 0.9696
0.7837 7.2895 -2.4370 0.9696
-0.2667 7.4673 -2.4838 0.9690
-0.5366 7.5021 -2.5001 0.9688
-1.6015 7.3621 -2.5044 0.9687
-2.1238 7.2329 -2.5057 0.9687
-2.3803 7.1515 -2.5054 0.9687
-2.8836 6.9616 -2.5047 0.9687
-3.1298 6.8533 -2.5044 0.9687
-3.8429 6.4768 -2.5034 0.9688
-4.0710 6.3346 -2.5030 0.9688
-4.2939 6.1844 -2.5027 0.9688
-4.5113 6.0264 -2.5023 0.9688
-4.7228 5.8607 -2.5019 0.9688
-5.5057 5.1260 -2.5005 0.9688
-6.4640 3.8353 -2.4984 0.9688
-6.5959 3.6016 -2.4981 0.9688
-6.8342 3.1211 -2.4974 0.9688
-6.9403 2.8748 -2.4971 0.9688
-7.0376 2.6249 -2.4968 0.9688
-7.2051 2.1156 -2.4961 0.9688
-7.2752 1.8569 -2.4958 0.9688
-7.3874 1.3328 -2.4953 0.9689
-7.4294 1.0682 -2.4950 0.9689
-7.4851 0.5353 -2.4944 0.9689
-7.4987 0.2678 -2.4942 0.9689
7.0102 0.2504 -2.5085 0.9706
6.9756 0.7500 -2.5089 0.9706
6.9449 0.9985 -2.5091 0.9706
6.9054 1.2459 -2.5093 0.9706
6.5764 2.4529 -2.5100 0.9706
6.1614 3.3644 -2.5104 0.9706
6.0376 3.5823 -2.5105 0.9706
5.7669 4.0040 -2.5106 0.9706
5.6204 4.2074 -2.5107 0.9706
5.4667 4.4053 -2.5107 0.9706
5.3060 4.5977 -2.5107 0.9706
4.9645 4.9645 -2.5107 0.9706
4.7841 5.1385 -2.5107 0.9706
4.4052 5.4665 -2.5106 0.9706
4.2071 5.6201 -2.5105 0.9706
3.7953 5.9056 -2.5104 0.9706
3.3640 6.1608 -2.5102 0.9706
3.1419 6.2766 -2.5101 0.9706
1.4898 6.8487 -2.5064 0.9707
-0.2503 7.0070 -2.5073 0.9707
-0.7493 6.9699 -2.5069 0.9707
-1.9738 6.7223 -2.5054 0.9707
-2.4478 6.5628 -2.5048 0.9707
-2.6801 6.4704 -2.5045 0.9707
-3.3551 6.1445 -2.5035 0.9707
-3.7840 5.8879 -2.5029 0.9707
-4.1932 5.6015 -2.5022 0.9707
-4.3899 5.4476 -2.5019 0.9707
-5.2839 4.5785 -2.5002 0.9707
-5.4432 4.3864 -2.4999 0.9707
-5.7408 3.9859 -2.4993 0.9707
-5.8786 3.7780 -2.4989 0.9708
-6.1316 3.3481 -2.4983 0.9708
-6.2464 3.1267 -2.4980 0.9708
-6.3533 2.9014 -2.4977 0.9708
-6.5425 2.4402 -2.4971 0.9708
-6.6246 2.2049 -2.4968 0.9708
-6.7635 1.7263 -2.4962 0.9708
-6.8680 1.2391 -2.4957 0.9708
-6.9071 0.9931 -2.4954 0.9708
-6.9374 0.7458 -2.4952 0.9708
-6.9590 0.4977 -2.4949 0.9708
-6.9716 0.2490 -2.4947 0.9708
6.5404 0.2336 -2.5080 0.9724
6.5081 0.6997 -2.5084 0.9724
5.9571 2.7205 -2.5097 0.9723
5.7482 3.1388 -2.5098 0.9723
5.5099 3.5410 -2.5100 0.9723
5.2435 3.9252 -2.5100 0.9723
5.1001 4.1099 -2.5101 0.9723
4.9502 4.2893 -2.5101 0.9723
4.6315 4.6315 -2.5101 0.9723
4.4632 4.7939 -2.5100 0.9723
4.1098 5.0999 -2.5100 0.9723
3.9250 5.2432 -2.5099 0.9723
3.5408 5.5096 -2.5098 0.9723
3.3418 5.6322 -2.5097 0.9723
2.9312 5.8558 -2.5095 0.9723
2.7202 5.9564 -2.5094 0.9723
2.2881 6.1346 -2.5091 0.9723
2.0676 6.2120 -2.5090 0.9723
1.8444 6.2815 -2.5088 0.9723
0.6995 6.5067 -2.5079 0.9724
0.4668 6.5270 -2.5077 0.9724
-0.6992 6.5031 -2.5065 0.9724
-0.9307 6.4734 -2.5062 0.9724
-1.3899 6.3892 -2.5057 0.9724
-1.8417 6.2723 -2.5052 0.9724
-2.0642 6.2019 -2.5049 0.9724
-2.5008 6.0375 -2.5043 0.9724
-3.1307 5.7335 -2.5034 0.9724
-3.5309 5.4942 -2.5028 0.9724
-3.7243 5.3640 -2.5025 0.9724
-4.0965 5.0834 -2.5019 0.9724
-4.4476 4.7770 -2.5012 0.9724
-4.6147 4.6147 -2.5009 0.9724
-4.9309 4.2727 -2.5003 0.9724
-5.0796 4.0934 -2.5000 0.9724
-5.2219 3.9090 -2.4997 0.9724
-5.4861 3.5257 -2.4991 0.9725
-5.6078 3.3273 -2.4988 0.9725
-5.7223 3.1246 -2.4985 0.9725
-6.0214 2.4942 -2.4976 0.9725
-6.1059 2.2774 -2.4974 0.9725
-6.1827 2.0578 -2.4971 0.9725
-6.3124 1.6111 -2.4966 0.9725
-6.4099 1.1565 -2.4961 0.9725
-6.5069 0.2324 -2.4951 0.9725
6.1264 0.0000 -2.5074 0.9739
6.1230 0.2187 -2.5076 0.9739
6.1117 0.4371 -2.5078 0.9739
6.0658 0.8721 -2.5081 0.9739
5.9889 1.3028 -2.5084 0.9739
5.7437 2.1423 -2.5089 0.9739
5.4824 2.7443 -2.5092 0.9739
5.3811 2.9383 -2.5093 0.9738
5.1580 3.3149 -2.5094 0.9738
4.6340 4.0154 -2.5095 0.9738
4.3357 4.3357 -2.5095 0.9738
4.0153 4.6339 -2.5095 0.9738
3.3146 5.1577 -2.5092 0.9738
3.1283 5.2725 -2.5092 0.9739
2.9380 5.3806 -2.5091 0.9739
2.5465 5.5760 -2.5089 0.9739
1.7267 5.8804 -2.5083 0.9739
1.0880 6.0301 -2.5078 0.9739
0.8720 6.0647 -2.5076 0.9739
0.4370 6.1105 -2.5073 0.9739
0.2186 6.1217 -2.5071 0.9739
-0.0000 6.1251 -2.5068 0.9739
-0.2186 6.1206 -2.5066 0.9739
-0.4369 6.1084 -2.5064 0.9739
-0.6546 6.0883 -2.5062 0.9739
-0.8714 6.0605 -2.5059 0.9739
-1.0870 6.0250 -2.5057 0.9739
-1.5138 5.9309 -2.5052 0.9739
-1.7243 5.8724 -2.5049 0.9739
-2.5414 5.5649 -2.5038 0.9739
-2.7381 5.4700 -2.5036 0.9739
-3.3060 5.1442 -2.5027 0.9739
-4.0026 4.6192 -2.5015 0.9739
-4.1644 4.4729 -2.5013 0.9739
-4.3209 4.3209 -2.5010 0.9739
-4.6171 4.0007 -2.5004 0.9739
-4.7564 3.8329 -2.5001 0.9739
-4.8896 3.6603 -2.4998 0.9739
-5.0166 3.4831 -2.4995 0.9739
-5.1371 3.3014 -2.4992 0.9740
-5.2511 3.1156 -2.4990 0.9740
-5.3584 2.9259 -2.4987 0.9740
-5.5522 2.5356 -2.4981 0.9740
-5.7178 2.1326 -2.4976 0.9740
-5.7897 1.9270 -2.4974 0.9740
-5.8542 1.7189 -2.4971 0.9740
-5.9607 1.2967 -2.4966 0.9740
-6.0369 0.8680 -2.4962 0.9740
5.7386 0.4104 -2.5074 0.9752
5.7207 0.6150 -2.5075 0.9752
5.6629 1.0217 -2.5078 0.9752
5.3929 2.0114 -2.5085 0.9752
5.3179 2.2027 -2.5086 0.9752
5.2360 2.3912 -2.5087 0.9752
4.9508 2.9375 -2.5089 0.9752
4.8429 3.1124 -2.5089 0.9752
4.7288 3.2833 -2.5090 0.9752
4.4827 3.6124 -2.5090 0.9752
4.2136 3.9230 -2.5090 0.9752
4.0708 4.0708 -2.5090 0.9752
3.9229 4.2135 -2.5090 0.9752
3.6122 4.4825 -2.5089 0.9752
3.1122 4.8426 -2.5088 0.9752
2.7586 5.0520 -2.5086 0.9752
2.5764 5.1470 -2.5085 0.9752
2.0112 5.3922 -2.5082 0.9752
1.8174 5.4603 -2.5080 0.9752
1.2231 5.6223 -2.5076 0.9752
1.0215 5.6620 -2.5074 0.9752
0.4104 5.7375 -2.5069 0.9752
0.2053 5.7481 -2.5067 0.9752
-0.6146 5.7169 -2.5059 0.9752
-0.8182 5.6908 -2.5056 0.9752
-1.0207 5.6574 -2.5054 0.9752
-1.2219 5.6169 -2.5052 0.9752
-2.1987 5.3081 -2.5039 0.9752
-2.3865 5.2257 -2.5037 0.9752
-2.7526 5.0410 -2.5032 0.9753
-2.9305 4.9390 -2.5029 0.9753
-3.2746 4.7164 -2.5023 0.9753
-3.7588 4.3379 -2.5015 0.9753
-4.0578 4.0578 -2.5010 0.9753
-4.5920 3.4375 -2.4999 0.9753
-4.7113 3.2711 -2.4996 0.9753
-4.8245 3.1005 -2.4994 0.9753
-5.0324 2.7479 -2.4988 0.9753
-5.3700 2.0029 -2.4978 0.9753
-5.4376 1.8098 -2.4976 0.9753
-5.6950 0.6123 -2.4963 0.9753
-5.7128 0.4086 -2.4961 0.9753
5.4154 0.0000 -2.5067 0.9764
5.4123 0.1933 -2.5069 0.9764
5.4023 0.3864 -2.5070 0.9764
5.2935 1.1515 -2.5076 0.9764
5.1984 1.5264 -2.5078 0.9764
4.9290 2.2510 -2.5082 0.9764
4.6605 2.7652 -2.5084 0.9764
4.4515 3.0908 -2.5085 0.9764
4.0957 3.5490 -2.5086 0.9764
3.9664 3.6929 -2.5086 0.9764
3.2476 4.3382 -2.5084 0.9764
3.0906 4.4513 -2.5084 0.9764
2.7650 4.6602 -2.5083 0.9764
2.4254 4.8452 -2.5081 0.9764
2.2508 4.9285 -2.5080 0.9764
2.0734 5.0055 -2.5079 0.9764
1.7108 5.1402 -2.5076 0.9764
1.5262 5.1977 -2.5075 0.9764
1.3396 5.2486 -2.5074 0.9764
0.7708 5.3607 -2.5069 0.9764
0.5789 5.3845 -2.5067 0.9764
0.3863 5.4013 -2.5066 0.9764
-0.0000 5.4143 -2.5062 0.9764
-0.3862 5.3997 -2.5058 0.9764
-0.5786 5.3820 -2.5056 0.9764
-0.7703 5.3575 -2.5054 0.9764
-0.9609 5.3261 -2.5052 0.9764
-1.1503 5.2879 -2.5050 0.9764
-1.8905 5.0685 -2.5040 0.9764
-2.2468 4.9198 -2.5035 0.9764
-2.4207 4.8360 -2.5033 0.9764
-2.5915 4.7460 -2.5030 0.9764
-2.7590 4.6501 -2.5028 0.9764
-2.9229 4.5482 -2.5025 0.9765
-3.0831 4.4405 -2.5023 0.9765
-3.3913 4.2084 -2.5018 0.9765
-3.8206 3.8206 -2.5010 0.9765
-3.9541 3.6814 -2.5007 0.9765
-4.0825 3.5375 -2.5005 0.9765
-4.3236 3.2366 -2.5000 0.9765
-4.4360 3.0799 -2.4997 0.9765
-4.6434 2.7551 -2.4992 0.9765
-4.7384 2.5873 -2.4990 0.9765
-4.8272 2.4163 -2.4988 0.9765
-5.0564 1.8860 -2.4981 0.9765
-5.1201 1.7041 -2.4978 0.9765
-5.2277 1.3343 -2.4974 0.9765
-5.3087 0.9578 -2.4970 0.9765
-5.3626 0.5765 -2.4966 0.9765
-5.3893 0.1925 -2.4962 0.9765
5.0813 0.5463 -2.5068 0.9775
5.0588 0.7273 -2.5070 0.9775
5.0299 0.9075 -2.5071 0.9775
4.9528 1.2641 -2.5074 0.9775
4.9048 1.4402 -2.5075 0.9775
4.6506 2.1238 -2.5078 0.9775
4.3014 2.7643 -2.5081 0.9775
4.2000 2.9161 -2.5081 0.9775
4.0933 3.0642 -2.5081 0.9775
3.8643 3.3485 -2.5082 0.9775
3.7423 3.4843 -2.5082 0.9775
3.6156 3.6156 -2.5082 0.9775
3.3484 3.8642 -2.5081 0.9775
3.0641 4.0932 -2.5080 0.9775
2.9160 4.1998 -2.5080 0.9775
2.7642 4.3011 -2.5079 0.9775
2.6088 4.3969 -2.5079 0.9775
2.2884 4.5715 -2.5077 0.9775
2.1236 4.6501 -2.5076 0.9775
1.9562 4.7228 -2.5075 0.9775
1.7864 4.7894 -2.5074 0.9775
1.6142 4.8499 -2.5073 0.9775
1.2640 4.9522 -2.5070 0.9775
1.0863 4.9939 -2.5069 0.9775
0.9074 5.0292 -2.5068 0.9775
0.5462 5.0804 -2.5064 0.9775
0.1824 5.1058 -2.5061 0.9775
-0.0000 5.1087 -2.5059 0.9775
-0.1823 5.1051 -2.5057 0.9775
-1.0854 4.9896 -2.5048 0.9775
-1.6121 4.8437 -2.5041 0.9775
-1.9532 4.7155 -2.5036 0.9775
-2.7582 4.2918 -2.5025 0.9775
-2.9093 4.1902 -2.5022 0.9775
-3.0567 4.0833 -2.5020 0.9775
-3.2002 3.9712 -2.5018 0.9775
-3.4747 3.7321 -2.5013 0.9775
-3.7313 3.4740 -2.5008 0.9775
-4.3820 2.6000 -2.4994 0.9776
-4.4716 2.4417 -2.4991 0.9776
-4.7057 1.9492 -2.4985 0.9776
-4.8320 1.6082 -2.4980 0.9776
-4.9336 1.2592 -2.4976 0.9776
-4.9750 1.0822 -2.4974 0.9776
-5.0387 0.7245 -2.4970 0.9776
-5.0610 0.5441 -2.4968 0.9776
-5.0768 0.3631 -2.4967 0.9776
-5.0862 0.1816 -2.4965 0.9776
4.8308 0.0000 -2.5061 0.9785
4.8190 0.3447 -2.5064 0.9785
4.8039 0.5165 -2.5065 0.9785
4.7219 1.0272 -2.5069 0.9785
4.4654 1.8496 -2.5074 0.9785
4.3966 2.0079 -2.5075 0.9785
4.3223 2.1636 -2.5076 0.9785
4.2424 2.3165 -2.5076 0.9785
4.1571 2.4665 -2.5077 0.9785
4.0665 2.6134 -2.5077 0.9785
3.8698 2.8969 -2.5078 0.9785
3.1656 3.6532 -2.5077 0.9785
2.7568 3.9705 -2.5076 0.9785
2.6132 4.0663 -2.5076 0.9785
1.8494 4.4650 -2.5072 0.9785
1.6888 4.5279 -2.5071 0.9785
1.3614 4.6365 -2.5068 0.9785
1.1950 4.6819 -2.5067 0.9785
1.0271 4.7213 -2.5066 0.9785
0.8578 4.7547 -2.5065 0.9785
0.6875 4.7820 -2.5063 0.9785
0.5164 4.8032 -2.5062 0.9785
0.3446 4.8183 -2.5060 0.9785
0.0000 4.8300 -2.5057 0.9785
-0.1724 4.8265 -2.5055 0.9785
-0.3445 4.8170 -2.5053 0.9785
-0.5162 4.8012 -2.5051 0.9785
-0.6872 4.7794 -2.5050 0.9785
-1.1938 4.6775 -2.5044 0.9785
-1.3599 4.6315 -2.5042 0.9785
-1.6866 4.5219 -2.5037 0.9785
-1.8468 4.4585 -2.5035 0.9785
-2.0045 4.3893 -2.5033 0.9785
-2.1597 4.3146 -2.5031 0.9785
-2.7508 3.9619 -2.5022 0.9785
-2.8902 3.8608 -2.5020 0.9785
-3.0259 3.7549 -2.5017 0.9785
-3.1577 3.6441 -2.5015 0.9785
-3.2854 3.5288 -2.5013 0.9785
-3.4090 3.4090 -2.5010 0.9785
-3.5281 3.2848 -2.5008 0.9785
-3.6428 3.1565 -2.5006 0.9785
-3.7528 3.0242 -2.5004 0.9785
-3.9583 2.7483 -2.4999 0.9785
-4.0535 2.6050 -2.4997 0.9785
-4.1435 2.4585 -2.4995 0.9785
-4.3815 2.0009 -2.4988 0.9785
-4.5123 1.6830 -2.4984 0.9785
-4.5691 1.5207 -2.4982 0.9785
-4.6201 1.3566 -2.4980 0.9785
-4.6652 1.1907 -2.4978 0.9785
-4.7044 1.0234 -2.4976 0.9785
-4.7376 0.8548 -2.4974 0.9785
-4.7647 0.6851 -2.4973 0.9785
-4.7858 0.5145 -2.4971 0.9785
-4.8008 0.3434 -2.4969 0.9785
4.5296 0.6513 -2.5064 0.9793
4.5037 0.8126 -2.5065 0.9793
4.4720 0.9728 -2.5066 0.9793
4.4346 1.1319 -2.5067 0.9793
4.3916 1.2895 -2.5068 0.9793
4.3429 1.4455 -2.5069 0.9793
4.2887 1.5996 -2.5070 0.9793
4.0935 2.0491 -2.5072 0.9793
3.9370 2.3360 -2.5073 0.9793
3.8512 2.4750 -2.5074 0.9793
3.6649 2.7435 -2.5074 0.9793
3.5647 2.8726 -2.5074 0.9793
3.4599 2.9980 -2.5074 0.9793
3.2372 3.2372 -2.5074 0.9793
2.7434 3.6648 -2.5073 0.9793
2.1938 4.0176 -2.5071 0.9793
2.0489 4.0932 -2.5070 0.9793
1.9014 4.1636 -2.5070 0.9793
1.5995 4.2883 -2.5068 0.9793
1.2893 4.3911 -2.5066 0.9793
0.9727 4.4715 -2.5063 0.9793
0.3264 4.5634 -2.5058 0.9794
-0.3263 4.5622 -2.5051 0.9794
-0.6508 4.5267 -2.5048 0.9794
-0.8119 4.5002 -2.5046 0.9794
-0.9720 4.4680 -2.5044 0.9794
-1.1307 4.4302 -2.5042 0.9794
-1.4437 4.3375 -2.5038 0.9794
-1.8986 4.1573 -2.5032 0.9794
-2.0456 4.0866 -2.5030 0.9794
-2.1900 4.0106 -2.5028 0.9794
-2.3315 3.9296 -2.5026 0.9794
-3.1119 3.3424 -2.5013 0.9794
-3.5547 2.8646 -2.5004 0.9794
-3.6544 2.7356 -2.5002 0.9794
-3.8396 2.4675 -2.4998 0.9794
-3.9249 2.3287 -2.4996 0.9794
-4.0051 2.1870 -2.4994 0.9794
-4.1503 1.8954 -2.4990 0.9794
-4.2743 1.5942 -2.4986 0.9794
-4.3281 1.4405 -2.4984 0.9794
-4.3764 1.2850 -2.4982 0.9794
-4.4192 1.1279 -2.4980 0.9794
-4.4878 0.8097 -2.4976 0.9794
-4.5135 0.6489 -2.4975 0.9794
-4.5477 0.3253 -2.4972 0.9794
-4.5561 0.1627 -2.4970 0.9794
4.3399 0.0000 -2.5056 0.9802
4.2966 0.6178 -2.5061 0.9802
4.2720 0.7708 -2.5063 0.9801
4.2419 0.9228 -2.5064 0.9801
4.2065 1.0736 -2.5065 0.9801
4.1656 1.2231 -2.5066 0.9801
4.1194 1.3711 -2.5066 0.9801
4.0680 1.5173 -2.5067 0.9801
4.0114 1.6616 -2.5068 0.9801
3.9496 1.8037 -2.5069 0.9801
3.8111 2.0810 -2.5070 0.9801
3.7344 2.2157 -2.5070 0.9801
3.6530 2.3477 -2.5071 0.9801
3.2818 2.8437 -2.5071 0.9801
2.6022 3.4762 -2.5070 0.9801
2.4765 3.5668 -2.5070 0.9801
2.3475 3.6528 -2.5069 0.9801
2.2156 3.7342 -2.5069 0.9801
1.9435 3.8825 -2.5067 0.9801
1.8036 3.9493 -2.5067 0.9801
1.6614 4.0110 -2.5066 0.9801
1.5172 4.0676 -2.5065 0.9801
0.7707 4.2714 -2.5059 0.9802
0.6177 4.2960 -2.5058 0.9802
-0.3095 4.3276 -2.5049 0.9802
-0.9220 4.2383 -2.5042 0.9802
-1.0726 4.2024 -2.5041 0.9802
-1.3695 4.1146 -2.5037 0.9802
-1.5153 4.0628 -2.5035 0.9802
-1.8010 3.9437 -2.5031 0.9802
-1.9405 3.8766 -2.5029 0.9802
-2.0775 3.8046 -2.5027 0.9802
-2.2118 3.7277 -2.5025 0.9802
-2.3432 3.6461 -2.5023 0.9802
-2.5969 3.4691 -2.5019 0.9802
-2.7189 3.3739 -2.5017 0.9802
-2.8373 3.2744 -2.5015 0.9802
-2.9521 3.1708 -2.5013 0.9802
-3.0632 3.0632 -2.5011 0.9802
-3.1703 2.9516 -2.5009 0.9802
-3.2734 2.8364 -2.5007 0.9802
-3.5569 2.4696 -2.5001 0.9802
-3.6425 2.3409 -2.4999 0.9802
-3.8710 1.9377 -2.4993 0.9802
-3.9987 1.6563 -2.4989 0.9802
-4.0550 1.5124 -2.4987 0.9802
-4.2278 0.9197 -2.4980 0.9802
-4.2576 0.7682 -2.4978 0.9802
-4.3010 0.4624 -2.4975 0.9802
