ply
format ascii 1.0
element vertex 1237
property float32 x
property float32 y
property float32 z
property float32 I
end_header
-32.3840 -34.7828 8.3798 0.8245
-25.1080 -33.5404 7.3876 0.8435
-23.0425 -33.1876 7.1241 0.8487
-14.4890 -31.7265 6.1500 0.8679
-13.0389 -31.4788 6.0079 0.8708
-11.6728 -31.2960 5.8897 0.8731
-10.3227 -31.0146 5.7637 0.8757
-9.0843 -30.9384 5.6856 0.8772
-7.8424 -30.7262 5.5915 0.8791
-4.4084 -30.6611 5.4620 0.8818
-3.2029 -29.7913 5.2833 0.8854
-2.1221 -29.6710 5.2452 0.8862
-1.1057 -30.9596 5.4625 0.8818
-0.0000 -33.5654 5.9185 0.8726
2.2132 -30.9446 5.4703 0.8816
4.6591 -32.4048 5.7726 0.8755
5.8840 -32.6128 5.8434 0.8741
3.2160 -12.6001 2.2930 0.9486
43.0223 -6.1857 7.6640 0.8382
-20.5306 -17.7898 4.1617 0.8959
-32.4961 -34.9032 7.3056 0.8245
-23.0445 -33.1904 6.1900 0.8492
-19.4041 -32.7039 5.8256 0.8574
-14.4901 -31.7288 5.3436 0.8684
-13.4091 -32.3723 5.3678 0.8678
-10.3234 -31.0167 5.0079 0.8761
-9.1280 -35.7631 5.6543 0.8613
-5.7177 -31.6913 4.9333 0.8778
-5.0419 -35.0673 5.4273 0.8664
-0.0000 -34.3448 5.2614 0.8702
4.6594 -32.4069 5.0156 0.8759
5.8844 -32.6149 5.0771 0.8745
3.2175 -12.6062 1.9931 0.9487
-20.5245 -17.7846 3.5365 0.8962
-32.3904 -34.7897 6.1899 0.8255
-27.0552 -31.2234 5.3800 0.8465
-24.8590 -30.8482 5.1591 0.8523
-22.9299 -33.0253 5.2355 0.8503
-20.5228 -34.5893 5.2374 0.8502
-17.6183 -32.2656 4.7872 0.8622
-17.9831 -35.9256 5.2316 0.8504
-10.3240 -31.0188 4.2571 0.8765
-9.5055 -32.3729 4.3936 0.8728
-9.1318 -35.7782 4.8084 0.8616
-6.6096 -30.3837 4.0491 0.8821
-5.7179 -31.6925 4.1937 0.8782
-2.1223 -29.6740 3.8740 0.8869
1.0395 -29.1054 3.7925 0.8892
3.1716 -44.3441 5.7893 0.8358
4.6597 -32.4089 4.2637 0.8763
3.2191 -12.6122 1.6950 0.9488
43.4271 -21.7381 6.3240 0.8221
20.1709 -8.3551 2.8429 0.9157
-20.5184 -17.7793 2.9154 0.8965
-34.9965 -32.5829 5.1346 0.8250
-33.9391 -33.9391 5.1540 0.8244
-29.7578 -34.3424 4.8796 0.8329
-27.0635 -38.9789 5.0956 0.8262
-20.5232 -34.5900 4.3189 0.8506
-18.8094 -37.5763 4.5123 0.8445
-13.4097 -32.3737 3.7628 0.8685
-13.6360 -36.5595 4.1900 0.8547
-5.7181 -31.6936 3.4583 0.8785
-3.2035 -29.7969 3.2181 0.8864
-2.1224 -29.6756 3.1948 0.8872
1.0396 -29.1074 3.1276 0.8894
4.6600 -32.4109 3.5161 0.8766
5.8851 -32.6190 3.5592 0.8752
3.2206 -12.6182 1.3984 0.9490
43.4314 -21.7402 5.2154 0.8225
-28.8344 -13.1682 2.6834 0.8805
-28.2514 -35.0579 3.8114 0.8347
-25.1166 -33.5519 3.5479 0.8451
-21.9623 -31.6317 3.2598 0.8568
-20.5236 -34.5906 3.4048 0.8509
-17.6210 -32.2704 3.1125 0.8628
-18.8183 -37.5941 3.5589 0.8447
-14.4932 -31.7356 2.9534 0.8693
-13.6420 -36.5756 3.3046 0.8550
-10.3254 -31.0229 2.7678 0.8770
-9.5060 -32.3747 2.8563 0.8733
-9.1395 -35.8081 3.1284 0.8621
-5.7183 -31.6947 2.7264 0.8787
-5.0422 -35.0693 2.9992 0.8674
-3.2037 -29.7987 2.5371 0.8866
-2.1226 -29.6770 2.5187 0.8874
-0.0000 -34.2067 2.8957 0.8717
1.0396 -29.1093 2.4658 0.8896
5.8855 -32.6211 2.8060 0.8754
14.0140 -47.7274 4.2108 0.8190
19.6375 -18.2832 2.2713 0.8979
20.1470 -17.4575 2.2567 0.8985
43.6125 -23.8142 4.2065 0.8192
20.1668 -8.3534 1.8482 0.9161
42.7488 -6.1464 3.6560 0.8408
-32.4987 -34.9061 2.9574 0.8260
-28.2519 -35.0584 2.7920 0.8349
-25.1188 -33.5548 2.5992 0.8454
-21.1253 -32.8716 2.4230 0.8550
-20.5239 -34.5912 2.4942 0.8511
-17.6223 -32.2728 2.2802 0.8630
-18.7271 -37.4120 2.5943 0.8456
-13.6444 -36.5820 2.4211 0.8552
-9.5063 -32.3756 2.0924 0.8735
-5.7185 -31.6958 1.9972 0.8789
-5.0483 -35.1116 2.1997 0.8675
-3.2039 -29.8005 1.8586 0.8868
-1.2307 -34.4585 2.1381 0.8709
1.0397 -29.1113 1.8063 0.8898
1.5263 -21.3400 1.3267 0.9178
4.6606 -32.4150 2.0307 0.8770
10.5445 -48.4724 3.0761 0.8197
3.2236 -12.6301 0.8083 0.9491
15.6339 -46.9723 3.0699 0.8200
17.4066 -46.6689 3.0887 0.8190
12.1757 -29.3948 1.9730 0.8803
43.3349 -23.6626 3.0617 0.8205
20.1649 -8.3526 1.3534 0.9162
42.7153 -6.1416 2.6760 0.8412
-29.7661 -34.3519 1.7923 0.8336
-28.2523 -35.0590 1.7754 0.8351
-20.5243 -34.5919 1.5860 0.8513
-17.6236 -32.2752 1.4500 0.8631
-18.7500 -37.4576 1.6517 0.8456
-14.4952 -31.7401 1.3759 0.8696
-10.3268 -31.0271 1.2894 0.8773
-9.1409 -35.8139 1.4575 0.8625
-3.2041 -29.8023 1.1819 0.8869
-0.0000 -34.2500 1.3505 0.8719
1.0398 -29.1132 1.1487 0.8899
3.2435 -45.3501 1.7928 0.8336
3.2251 -12.6360 0.5142 0.9491
11.1938 -30.0117 1.2630 0.8797
43.6111 -23.8135 1.9593 0.8196
20.1631 -8.3518 0.8606 0.9163
-32.4997 -34.9071 0.8056 0.8263
-28.2528 -35.0595 0.7606 0.8352
-25.1231 -33.5605 0.7081 0.8456
-21.1286 -32.8768 0.6602 0.8553
-14.4962 -31.7423 0.5895 0.8697
-10.3275 -31.0291 0.5524 0.8774
-9.5068 -32.3773 0.5700 0.8737
-9.0681 -35.5285 0.6194 0.8636
-0.0000 -34.2128 0.5779 0.8721
1.0398 -29.1152 0.4921 0.8900
3.2267 -12.6420 0.2204 0.9491
41.5386 -20.7928 0.7847 0.8304
20.1607 -8.3509 0.3686 0.9164
33.9480 -9.9680 0.5977 0.8680
31.4334 -8.0229 0.5480 0.8783
-32.5002 -34.9077 -0.2685 0.8263
-29.7715 -34.3582 -0.2560 0.8337
-27.0186 -38.9141 -0.2667 0.8274
-21.1303 -32.8794 -0.2200 0.8553
-17.6262 -32.2800 -0.2071 0.8632
-13.4111 -32.3773 -0.1973 0.8692
-9.5071 -32.3782 -0.1900 0.8737
-9.1421 -35.8185 -0.2081 0.8625
-6.6048 -30.3617 -0.1749 0.8831
-4.9235 -34.2439 -0.1948 0.8708
-3.2045 -29.8059 -0.1688 0.8870
-1.2312 -34.4723 -0.1942 0.8711
1.0399 -29.1171 -0.1640 0.8900
3.2443 -45.3610 -0.2560 0.8337
5.8870 -32.6292 -0.1867 0.8758
43.6098 -23.8128 -0.2798 0.8198
42.6154 -6.1272 -0.2424 0.8418
-32.5007 -34.9082 -1.3430 0.8262
-29.7743 -34.3613 -1.2802 0.8337
-28.2536 -35.0606 -1.2679 0.8351
-25.1273 -33.5661 -1.1806 0.8455
-20.5254 -34.5938 -1.1326 0.8513
-18.7740 -37.5057 -1.1810 0.8455
-13.6481 -36.5919 -1.0997 0.8553
-9.5073 -32.3791 -0.9502 0.8737
-9.1427 -35.8208 -1.0410 0.8625
-6.6125 -30.3971 -0.8759 0.8830
-4.9239 -34.2464 -0.9742 0.8707
-3.1531 -29.3281 -0.8306 0.8887
4.2955 -29.8758 -0.8499 0.8862
32.6025 -7.0922 -0.9395 0.8750
42.5823 -6.1224 -1.2114 0.8419
-48.9473 -3.5008 -2.4887 0.8216
-48.7018 -5.2360 -2.4841 0.8219
-48.0300 -8.6655 -2.4751 0.8224
-47.6049 -10.3558 -2.4707 0.8227
-44.6240 -18.4839 -2.4495 0.8241
-41.1952 -18.8132 -2.2967 0.8341
-34.8704 -20.6895 -2.0563 0.8501
-36.9961 -25.6869 -2.2841 0.8349
-30.8057 -23.0608 -1.9515 0.8572
-33.0869 -30.8050 -2.2926 0.8344
-30.8618 -33.1479 -2.2969 0.8341
-25.1294 -33.5690 -2.1266 0.8454
-20.5258 -34.5944 -2.0400 0.8512
-18.7339 -37.4255 -2.1225 0.8457
-14.4993 -31.7490 -1.7701 0.8695
-13.4117 -32.3788 -1.7774 0.8690
-13.6333 -36.5523 -1.9785 0.8553
-10.3295 -31.0352 -1.6588 0.8772
-9.1433 -35.8231 -1.8750 0.8624
-6.6129 -30.3991 -1.5777 0.8828
-3.1206 -29.0255 -1.4805 0.8897
-2.1232 -29.6858 -1.5093 0.8876
-1.2314 -34.4764 -1.7496 0.8709
4.9250 -45.8093 -2.3366 0.8315
4.2466 -29.5355 -1.5133 0.8874
9.8049 -45.0723 -2.3393 0.8313
3.2312 -12.6598 -0.6626 0.9490
17.6754 -42.6722 -2.3424 0.8311
19.1907 -42.0218 -2.3428 0.8311
22.1452 -40.5559 -2.3434 0.8310
19.6874 -33.1813 -1.9567 0.8568
19.5082 -28.0972 -1.7347 0.8720
20.2985 -25.1890 -1.6406 0.8785
21.9998 -23.6295 -1.6373 0.8787
36.9493 -27.6600 -2.3407 0.8312
38.8038 -24.9377 -2.3393 0.8313
39.6549 -23.5283 -2.3384 0.8314
43.6304 -14.5216 -2.3320 0.8318
41.8273 -6.0139 -2.1431 0.8443
46.1144 -3.2982 -2.3446 0.8310
-34.0835 0.0000 -2.4991 0.8722
-34.0182 -1.2149 -2.4959 0.8724
-33.9100 -2.4253 -2.4927 0.8725
-33.7589 -3.6295 -2.4895 0.8727
-33.3302 -6.0134 -2.4833 0.8730
-33.0532 -7.1903 -2.4802 0.8731
-31.5411 -11.7642 -2.4683 0.8737
-31.0649 -12.8675 -2.4654 0.8738
-29.9998 -15.0168 -2.4598 0.8741
-25.7712 -17.8932 -2.3004 0.8818
-22.0329 -16.4936 -2.0180 0.8955
-19.8325 -17.1850 -1.9241 0.9001
-19.6964 -18.3380 -1.9732 0.8977
-22.0987 -22.0987 -2.2915 0.8822
-19.4417 -20.8818 -2.0920 0.8919
-20.4916 -23.6485 -2.2944 0.8821
-18.7754 -25.0810 -2.2972 0.8819
-13.5615 -19.5322 -1.7435 0.9090
-12.8366 -19.9741 -1.7409 0.9092
-8.1699 -13.7696 -1.1740 0.9378
-15.0504 -27.5627 -2.3026 0.8817
-14.0650 -28.0983 -2.3039 0.8816
-10.9987 -29.4885 -2.3077 0.8814
-9.9443 -29.8779 -2.3089 0.8814
-8.8761 -30.2292 -2.3100 0.8813
-6.6133 -30.4010 -2.2812 0.8827
-5.6018 -31.0486 -2.3133 0.8811
-4.4920 -31.2427 -2.3143 0.8811
-3.1266 -29.0820 -2.1446 0.8893
-2.1233 -29.6873 -2.1823 0.8875
-1.1280 -31.5824 -2.3172 0.8810
1.0401 -29.1230 -2.1367 0.8897
1.2520 -11.6457 -0.8588 0.9541
1.6643 -11.5751 -0.8574 0.9542
5.6221 -31.1611 -2.3217 0.8807
6.7325 -30.9487 -2.3223 0.8807
10.0084 -30.0705 -2.3238 0.8806
12.0756 -29.1531 -2.3137 0.8811
13.1713 -28.8412 -2.3248 0.8806
15.1983 -27.8336 -2.3252 0.8806
17.1470 -26.6813 -2.3255 0.8806
22.7190 -21.1521 -2.2760 0.8829
23.9591 -20.7607 -2.3245 0.8806
25.3707 -18.9923 -2.3237 0.8806
22.6783 -8.4586 -1.7747 0.9075
30.0950 -10.0166 -2.3256 0.8805
31.1084 -6.7672 -2.3343 0.8801
31.4079 -5.6666 -2.3401 0.8799
33.6303 -4.8353 -2.4912 0.8726
33.9840 -2.4306 -2.4981 0.8723
34.0928 -1.2176 -2.5013 0.8721
-26.0375 0.0000 -2.4997 0.9007
-25.8128 -2.7751 -2.4924 0.9009
-25.6725 -3.6911 -2.4900 0.9010
-25.4999 -4.6007 -2.4876 0.9011
-25.2955 -5.5027 -2.4853 0.9012
-24.7921 -7.2796 -2.4806 0.9014
-23.4195 -10.6953 -2.4718 0.9017
-23.0030 -11.5145 -2.4696 0.9018
-21.5869 -13.8731 -2.4635 0.9020
-21.0614 -14.6232 -2.4616 0.9021
-19.9373 -14.9249 -2.3910 0.9048
-16.9664 -16.9664 -2.3035 0.9081
-13.6439 -19.6510 -2.2967 0.9083
-12.9313 -20.1214 -2.2963 0.9084
-7.2637 -13.3025 -1.4551 0.9409
-6.8131 -13.6108 -1.4613 0.9407
-5.9948 -13.1268 -1.3854 0.9437
-5.6013 -13.5227 -1.4052 0.9429
-6.9170 -18.5453 -1.9002 0.9235
-7.5758 -22.7616 -2.3031 0.9081
-6.7612 -23.0264 -2.3040 0.9081
-4.2657 -23.6431 -2.3065 0.9080
-2.5698 -23.9030 -2.3080 0.9079
-0.6153 -17.2275 -1.6550 0.9331
0.8591 -24.0537 -2.3107 0.9078
0.8409 -11.7580 -1.1317 0.9537
4.2775 -23.7088 -2.3129 0.9077
5.1220 -23.5457 -2.3134 0.9077
3.7469 -12.7608 -1.2768 0.9480
5.3330 -16.0230 -1.6212 0.9344
8.4261 -22.5912 -2.3148 0.9077
10.0185 -21.9374 -2.3153 0.9076
11.5596 -21.1698 -2.3157 0.9076
12.3084 -20.7448 -2.3158 0.9076
13.0415 -20.2929 -2.3159 0.9076
12.0315 -14.9302 -1.8409 0.9258
15.7963 -18.2299 -2.3158 0.9076
16.4360 -17.6535 -2.3157 0.9076
12.5639 -10.1246 -1.5491 0.9372
19.3002 -14.4480 -2.3146 0.9077
20.7720 -12.3246 -2.3188 0.9075
21.2168 -11.5852 -2.3208 0.9074
21.6356 -10.8300 -2.3228 0.9074
21.6845 -9.9030 -2.2886 0.9087
22.5114 -8.3963 -2.3066 0.9080
23.0401 -7.6685 -2.3313 0.9070
25.0764 -6.4004 -2.4846 0.9012
25.3366 -5.5116 -2.4893 0.9011
25.5418 -4.6082 -2.4917 0.9010
25.8556 -2.7798 -2.4966 0.9008
26.0389 -0.9300 -2.5015 0.9006
-21.0473 0.0000 -2.5001 0.9187
-20.8774 -2.2445 -2.4942 0.9189
-20.2828 -5.1769 -2.4865 0.9191
-20.0700 -5.8931 -2.4847 0.9192
-19.8321 -6.6008 -2.4828 0.9193
-18.9718 -8.6641 -2.4775 0.9194
-17.4983 -11.2455 -2.4708 0.9196
-16.6306 -12.4495 -2.4677 0.9197
-15.6814 -13.5881 -2.4648 0.9198
-15.0692 -14.0300 -2.4457 0.9204
-13.8270 -13.8270 -2.3228 0.9243
-12.7342 -14.6960 -2.3099 0.9247
-11.6424 -15.5524 -2.3077 0.9247
-11.0751 -15.9511 -2.3067 0.9248
-5.9605 -13.0517 -1.7044 0.9438
-5.5879 -13.4905 -1.7345 0.9429
-6.1166 -18.3773 -2.3007 0.9249
-4.7905 -18.7690 -2.3010 0.9249
-2.7591 -19.1899 -2.3029 0.9249
-2.0730 -19.2813 -2.3035 0.9249
-1.3838 -19.3479 -2.3041 0.9248
-0.6373 -17.8439 -2.1210 0.9306
-0.0000 -19.4066 -2.3052 0.9248
0.6928 -19.3985 -2.3057 0.9248
0.8410 -11.7587 -1.4003 0.9536
1.6702 -11.6168 -1.3941 0.9538
3.2358 -12.6778 -1.5542 0.9487
7.4396 -17.9608 -2.3093 0.9247
8.0766 -17.6853 -2.3095 0.9247
8.7033 -17.3869 -2.3096 0.9247
9.3188 -17.0662 -2.3098 0.9247
9.9224 -16.7234 -2.3099 0.9247
11.0906 -15.9736 -2.3099 0.9247
12.2059 -15.1465 -2.3107 0.9246
14.7423 -12.7743 -2.3171 0.9244
12.5652 -10.1256 -1.9169 0.9371
17.8393 -8.1470 -2.3296 0.9240
18.9072 -7.8316 -2.4310 0.9209
19.5855 -7.3050 -2.4830 0.9192
20.0959 -5.9007 -2.4879 0.9191
20.4971 -4.4589 -2.4917 0.9190
20.7954 -2.9900 -2.4956 0.9189
20.9054 -2.2476 -2.4976 0.9188
20.9888 -1.5012 -2.4995 0.9187
21.0457 -0.7517 -2.5015 0.9187
-17.6471 0.0000 -2.5004 0.9312
-17.6241 -0.6294 -2.4987 0.9312
-17.5112 -1.8827 -2.4954 0.9313
-17.3097 -3.1230 -2.4922 0.9314
-17.1761 -3.7364 -2.4906 0.9314
-17.0209 -4.3443 -2.4890 0.9315
-16.4283 -6.1274 -2.4844 0.9316
-16.1893 -6.7058 -2.4828 0.9317
-15.6512 -7.8344 -2.4799 0.9317
-15.3528 -8.3833 -2.4785 0.9318
-15.0353 -8.9209 -2.4771 0.9318
-14.6993 -9.4467 -2.4757 0.9318
-14.3451 -9.9600 -2.4744 0.9319
-13.9731 -10.4602 -2.4731 0.9319
-13.1782 -11.4190 -2.4707 0.9320
-10.6668 -13.2367 -2.4087 0.9336
-9.8064 -13.0998 -2.3186 0.9360
-8.8246 -13.7314 -2.3127 0.9362
-8.1348 -13.7104 -2.2588 0.9376
-5.9635 -13.0582 -2.0340 0.9437
-5.5881 -13.4908 -2.0690 0.9427
-3.4616 -15.9128 -2.3074 0.9363
-2.3172 -16.1161 -2.3070 0.9363
-1.7404 -16.1876 -2.3068 0.9363
0.8410 -11.7594 -1.6704 0.9535
1.2566 -11.6883 -1.6656 0.9536
3.4624 -15.9166 -2.3080 0.9363
3.0642 -12.0054 -1.7556 0.9512
6.2401 -15.0650 -2.3104 0.9362
7.3032 -14.5899 -2.3118 0.9362
9.3183 -13.4208 -2.3150 0.9361
10.7129 -12.3633 -2.3179 0.9360
11.1524 -11.9785 -2.3190 0.9360
12.3870 -10.7334 -2.3223 0.9359
13.1349 -9.8326 -2.3248 0.9359
13.4848 -9.3626 -2.3260 0.9358
14.5749 -8.6477 -2.4012 0.9338
15.3335 -8.3727 -2.4754 0.9319
15.6669 -7.8423 -2.4824 0.9317
15.9465 -7.2825 -2.4839 0.9316
16.4457 -6.1339 -2.4870 0.9315
16.6646 -5.5465 -2.4885 0.9315
16.8627 -4.9513 -2.4901 0.9315
17.0396 -4.3491 -2.4917 0.9314
17.5309 -1.8848 -2.4983 0.9312
17.5987 -1.2587 -2.4999 0.9312
17.6441 -0.6302 -2.5016 0.9312
-15.1791 0.0000 -2.5006 0.9403
-15.0665 -1.6198 -2.4963 0.9404
-14.8958 -2.6875 -2.4935 0.9405
-14.7822 -3.2157 -2.4922 0.9405
-14.6499 -3.7392 -2.4908 0.9405
-14.3304 -4.7696 -2.4881 0.9406
-14.1435 -5.2753 -2.4868 0.9406
-13.2219 -7.2197 -2.4817 0.9408
-12.3569 -8.5795 -2.4782 0.9408
-10.6148 -10.6148 -2.4730 0.9410
-8.9833 -12.0003 -2.4695 0.9410
-8.5466 -12.3094 -2.4687 0.9411
-5.8388 -12.7852 -2.3155 0.9446
-5.3776 -12.9827 -2.3150 0.9446
-4.4361 -13.3284 -2.3141 0.9446
-3.4730 -13.6071 -2.3135 0.9447
-2.4929 -13.8173 -2.3130 0.9447
-1.5007 -13.9582 -2.3127 0.9447
-0.5011 -14.0291 -2.3126 0.9447
0.0000 -14.0381 -2.3126 0.9447
0.8411 -11.7601 -1.9423 0.9533
1.2567 -11.6890 -1.9367 0.9535
1.6704 -11.6182 -1.9336 0.9535
3.9551 -11.8832 -2.0632 0.9505
4.9115 -13.1683 -2.3153 0.9446
5.3796 -12.9875 -2.3158 0.9446
5.8411 -12.7903 -2.3164 0.9446
6.7423 -12.3476 -2.3176 0.9446
7.1808 -12.1026 -2.3183 0.9445
11.4378 -9.2172 -2.4199 0.9422
12.0184 -8.9969 -2.4732 0.9410
13.4895 -6.7524 -2.4851 0.9407
13.7290 -6.2698 -2.4864 0.9406
14.1564 -5.2801 -2.4890 0.9406
14.5128 -4.2613 -2.4918 0.9405
14.6637 -3.7427 -2.4931 0.9405
14.7962 -3.2188 -2.4945 0.9405
14.9100 -2.6901 -2.4959 0.9404
15.1379 -1.0827 -2.5002 0.9403
-13.3046 0.0000 -2.5007 0.9473
-13.2895 -0.4746 -2.4995 0.9473
-13.2575 -0.9482 -2.4983 0.9473
-13.0608 -2.3564 -2.4946 0.9474
-12.9621 -2.8197 -2.4933 0.9474
-12.7157 -3.7337 -2.4910 0.9475
-12.2267 -5.0645 -2.4875 0.9476
-10.8429 -7.5283 -2.4811 0.9477
-10.5631 -7.9074 -2.4801 0.9477
-9.6466 -8.9813 -2.4774 0.9478
-9.3166 -9.3166 -2.4765 0.9478
-8.6226 -9.9511 -2.4749 0.9478
-8.2594 -10.2493 -2.4741 0.9478
-7.1106 -11.0643 -2.4721 0.9479
-6.7095 -11.3083 -2.4715 0.9479
-3.0497 -11.9487 -2.3179 0.9510
-2.6210 -12.0487 -2.3177 0.9511
-1.7546 -12.2033 -2.3173 0.9511
-1.3178 -12.2575 -2.3172 0.9511
-0.8795 -12.2964 -2.3171 0.9511
-0.4400 -12.3198 -2.3171 0.9511
0.8411 -11.7608 -2.2162 0.9531
1.6705 -11.6189 -2.2063 0.9533
2.1722 -12.0394 -2.2995 0.9514
2.6050 -11.9752 -2.3035 0.9513
3.4755 -11.8364 -2.3187 0.9510
3.8964 -11.7067 -2.3191 0.9510
4.7234 -11.4032 -2.3199 0.9510
5.1284 -11.2297 -2.3204 0.9510
7.4534 -9.9566 -2.3377 0.9506
7.9452 -9.8594 -2.3800 0.9498
8.9554 -9.6188 -2.4702 0.9479
9.3114 -9.3114 -2.4751 0.9478
9.9709 -8.6399 -2.4799 0.9477
10.5703 -7.9128 -2.4818 0.9477
10.8504 -7.5336 -2.4828 0.9477
11.1171 -7.1445 -2.4839 0.9476
11.3699 -6.7461 -2.4850 0.9476
11.6086 -6.3387 -2.4860 0.9476
12.0420 -5.4994 -2.4883 0.9475
12.5786 -4.1866 -2.4918 0.9475
12.7261 -3.7367 -2.4930 0.9474
12.8576 -3.2817 -2.4942 0.9474
13.1542 -1.8913 -2.4979 0.9473
-11.8312 0.0000 -2.5009 0.9528
-11.8184 -0.4221 -2.4998 0.9528
-11.7477 -1.2630 -2.4975 0.9528
-11.6175 -2.0960 -2.4954 0.9529
-11.4286 -2.9170 -2.4932 0.9529
-11.3124 -3.3216 -2.4922 0.9529
-11.0374 -4.1167 -2.4901 0.9530
-10.8790 -4.5062 -2.4891 0.9530
-10.7069 -4.8897 -2.4881 0.9530
-10.5214 -5.2667 -2.4871 0.9530
-9.8870 -6.3540 -2.4843 0.9531
-9.6504 -6.7004 -2.4834 0.9531
-9.4018 -7.0381 -2.4825 0.9531
-9.1415 -7.3667 -2.4817 0.9531
-8.5871 -7.9949 -2.4801 0.9532
-8.2937 -8.2937 -2.4793 0.9532
-7.9901 -8.5819 -2.4786 0.9532
-7.6765 -8.8591 -2.4779 0.9532
-7.3534 -9.1250 -2.4772 0.9532
-7.0212 -9.3792 -2.4765 0.9532
-5.9742 -10.0689 -2.4748 0.9533
-5.2385 -10.4653 -2.4738 0.9533
-4.8608 -10.6437 -2.4734 0.9533
-3.6936 -11.0974 -2.4723 0.9533
-2.4832 -11.4150 -2.4693 0.9534
-2.0720 -11.4844 -2.4668 0.9534
-0.8185 -11.4437 -2.4252 0.9542
-0.4062 -11.3725 -2.4054 0.9545
0.4011 -11.2313 -2.3756 0.9551
0.7983 -11.1610 -2.3652 0.9553
1.5845 -11.0203 -2.3534 0.9555
1.9755 -10.9496 -2.3519 0.9555
3.5478 -10.6596 -2.3747 0.9551
4.3525 -10.5079 -2.4042 0.9546
4.7631 -10.4296 -2.4236 0.9542
5.1806 -10.3495 -2.4464 0.9538
6.6827 -9.6250 -2.4768 0.9532
7.0243 -9.3834 -2.4777 0.9532
7.3569 -9.1293 -2.4784 0.9532
7.6803 -8.8635 -2.4791 0.9532
8.5918 -7.9993 -2.4814 0.9531
9.1469 -7.3710 -2.4831 0.9531
9.4074 -7.0424 -2.4840 0.9531
10.1178 -6.0032 -2.4868 0.9530
10.5286 -5.2702 -2.4888 0.9530
10.8866 -4.5094 -2.4908 0.9530
11.0452 -4.1197 -2.4918 0.9529
11.3206 -3.3240 -2.4940 0.9529
11.6262 -2.0976 -2.4972 0.9528
11.7566 -1.2640 -2.4994 0.9528
11.7995 -0.8439 -2.5005 0.9528
-10.6413 0.0000 -2.5010 0.9572
-10.6303 -0.3797 -2.5000 0.9572
-10.5163 -1.5120 -2.4970 0.9573
-10.4515 -1.8857 -2.4960 0.9573
-10.3735 -2.2566 -2.4950 0.9573
-10.2824 -2.6244 -2.4941 0.9573
-10.1783 -2.9886 -2.4931 0.9573
-10.0613 -3.3487 -2.4922 0.9574
-9.9317 -3.7043 -2.4913 0.9574
-9.7896 -4.0550 -2.4903 0.9574
-9.6351 -4.4002 -2.4894 0.9574
-8.8986 -5.7188 -2.4860 0.9575
-8.6860 -6.0308 -2.4852 0.9575
-8.4626 -6.3350 -2.4844 0.9575
-7.9843 -6.9184 -2.4829 0.9575
-7.7300 -7.1969 -2.4822 0.9575
-7.4661 -7.4662 -2.4815 0.9575
-6.9109 -7.9756 -2.4802 0.9576
-6.0145 -8.6625 -2.4785 0.9576
-5.7003 -8.8698 -2.4780 0.9576
-5.0511 -9.2503 -2.4770 0.9576
-4.3769 -9.5839 -2.4762 0.9576
-4.0314 -9.7326 -2.4758 0.9576
-2.9668 -10.1041 -2.4750 0.9577
-2.2381 -10.2883 -2.4745 0.9577
1.4984 -10.4215 -2.4745 0.9577
1.8695 -10.3622 -2.4747 0.9577
2.6045 -10.2043 -2.4751 0.9576
3.6818 -9.8713 -2.4761 0.9576
4.3781 -9.5866 -2.4769 0.9576
5.0527 -9.2533 -2.4778 0.9576
5.3809 -9.0690 -2.4784 0.9576
5.7024 -8.8731 -2.4789 0.9576
6.0168 -8.6659 -2.4795 0.9576
6.6230 -8.2187 -2.4807 0.9576
6.9139 -7.9791 -2.4813 0.9575
7.7339 -7.2005 -2.4835 0.9575
7.9884 -6.9220 -2.4842 0.9575
8.6909 -6.0342 -2.4866 0.9575
8.9037 -5.7221 -2.4875 0.9574
9.1054 -5.4025 -2.4883 0.9574
9.6411 -4.4030 -2.4910 0.9574
9.7958 -4.0575 -2.4919 0.9574
9.9381 -3.7067 -2.4928 0.9574
10.0679 -3.3509 -2.4938 0.9573
10.1850 -2.9906 -2.4948 0.9573
10.2892 -2.6262 -2.4957 0.9573
10.3804 -2.2581 -2.4967 0.9573
10.5234 -1.5130 -2.4987 0.9573
10.5749 -1.1369 -2.4997 0.9572
10.6130 -0.7591 -2.5007 0.9572
-9.6596 0.0000 -2.5010 0.9609
-9.5938 -1.0314 -2.4983 0.9609
-9.5475 -1.3727 -2.4974 0.9609
-9.2419 -2.7137 -2.4939 0.9610
-9.1361 -3.0408 -2.4931 0.9610
-8.7499 -3.9960 -2.4906 0.9610
-8.0821 -5.1941 -2.4875 0.9611
-7.8893 -5.4776 -2.4868 0.9611
-7.6865 -5.7540 -2.4860 0.9611
-7.4742 -6.0231 -2.4853 0.9611
-6.7822 -6.7822 -2.4834 0.9611
-5.4641 -7.8699 -2.4806 0.9612
-4.5891 -8.4043 -2.4793 0.9612
-4.2855 -8.5614 -2.4789 0.9612
-3.9767 -8.7077 -2.4786 0.9612
-2.6957 -9.1807 -2.4774 0.9612
-1.6985 -9.4143 -2.4769 0.9612
-1.3614 -9.4684 -2.4768 0.9612
-0.6824 -9.5409 -2.4766 0.9612
-0.3414 -9.5591 -2.4766 0.9612
0.3414 -9.5593 -2.4767 0.9612
1.0226 -9.5113 -2.4768 0.9612
1.3615 -9.4693 -2.4770 0.9612
2.0338 -9.3494 -2.4773 0.9612
2.6962 -9.1823 -2.4778 0.9612
3.9777 -8.7099 -2.4792 0.9612
4.8885 -8.2392 -2.4805 0.9612
5.1805 -8.0610 -2.4810 0.9612
5.4661 -7.8726 -2.4815 0.9612
5.7448 -7.6742 -2.4821 0.9612
6.0165 -7.4660 -2.4826 0.9612
6.2806 -7.2482 -2.4832 0.9611
6.7852 -6.7852 -2.4845 0.9611
7.2558 -6.2872 -2.4858 0.9611
7.4778 -6.0259 -2.4865 0.9611
7.6903 -5.7569 -2.4873 0.9611
8.0863 -5.1968 -2.4888 0.9611
8.2692 -4.9064 -2.4896 0.9610
8.4418 -4.6096 -2.4903 0.9610
8.8950 -3.6844 -2.4928 0.9610
9.0239 -3.3657 -2.4937 0.9610
9.2474 -2.7153 -2.4954 0.9610
9.4242 -2.0501 -2.4972 0.9609
9.5533 -1.3736 -2.4990 0.9609
-8.8349 0.0000 -2.5011 0.9639
-8.8264 -0.3152 -2.5003 0.9639
-8.7756 -0.9435 -2.4986 0.9640
-8.6803 -1.5661 -2.4970 0.9640
-8.6160 -1.8743 -2.4962 0.9640
-8.5409 -2.1799 -2.4954 0.9640
-8.4550 -2.4826 -2.4946 0.9640
-8.3584 -2.7819 -2.4938 0.9640
-8.2512 -3.0775 -2.4930 0.9641
-8.1336 -3.3691 -2.4923 0.9641
-7.8679 -3.9384 -2.4908 0.9641
-7.7201 -4.2155 -2.4901 0.9641
-7.3956 -4.7528 -2.4887 0.9641
-7.0339 -5.2655 -2.4874 0.9641
-6.2069 -6.2069 -2.4850 0.9642
-5.9801 -6.4231 -2.4844 0.9642
-5.7458 -6.6310 -2.4839 0.9642
-5.5043 -6.8305 -2.4834 0.9642
-5.2560 -7.0212 -2.4829 0.9642
-4.7400 -7.3756 -2.4820 0.9642
-4.4730 -7.5389 -2.4816 0.9642
-3.9226 -7.8365 -2.4809 0.9642
-3.3527 -8.0943 -2.4802 0.9642
-3.0614 -8.2079 -2.4799 0.9642
-2.7662 -8.3111 -2.4797 0.9642
-1.8615 -8.5571 -2.4791 0.9642
-1.5548 -8.6177 -2.4790 0.9643
0.0000 -8.7559 -2.4787 0.9643
0.3125 -8.7505 -2.4788 0.9643
0.9360 -8.7065 -2.4790 0.9643
1.2463 -8.6680 -2.4791 0.9642
1.5550 -8.6185 -2.4792 0.9642
1.8617 -8.5582 -2.4794 0.9642
2.1662 -8.4870 -2.4796 0.9642
3.3535 -8.0960 -2.4808 0.9642
3.9236 -7.8384 -2.4815 0.9642
4.7415 -7.3779 -2.4828 0.9642
5.0028 -7.2053 -2.4832 0.9642
5.2578 -7.0236 -2.4837 0.9642
5.5063 -6.8329 -2.4843 0.9642
7.2226 -5.0147 -2.4892 0.9641
7.5662 -4.4893 -2.4906 0.9641
7.7239 -4.2176 -2.4913 0.9641
8.4596 -2.4840 -2.4960 0.9640
8.5456 -2.1811 -2.4968 0.9640
8.7384 -1.2564 -2.4992 0.9640
8.7805 -0.9440 -2.5000 0.9640
-8.1318 0.0000 -2.5012 0.9665
-8.0778 -0.8685 -2.4989 0.9666
-8.0392 -1.1559 -2.4981 0.9666
-7.9316 -1.7254 -2.4966 0.9666
-7.8626 -2.0068 -2.4959 0.9666
-7.7837 -2.2855 -2.4952 0.9666
-7.6949 -2.5611 -2.4945 0.9666
-7.3709 -3.3662 -2.4924 0.9667
-7.2441 -3.6261 -2.4917 0.9667
-7.1082 -3.8813 -2.4910 0.9667
-6.9633 -4.1315 -2.4904 0.9667
-6.6475 -4.6154 -2.4891 0.9667
-6.4769 -4.8486 -2.4885 0.9667
-6.1117 -5.2958 -2.4874 0.9667
-5.5071 -5.9150 -2.4858 0.9667
-5.0691 -6.2904 -2.4848 0.9668
-4.1196 -6.9432 -2.4832 0.9668
-3.8686 -7.0848 -2.4828 0.9668
-3.6128 -7.2174 -2.4825 0.9668
-3.3525 -7.3409 -2.4822 0.9668
-2.5478 -7.6548 -2.4814 0.9668
-2.2727 -7.7403 -2.4812 0.9668
-1.7145 -7.8816 -2.4809 0.9668
-1.4321 -7.9374 -2.4808 0.9668
-1.1478 -7.9831 -2.4807 0.9668
-0.0000 -8.0648 -2.4806 0.9668
0.2879 -8.0598 -2.4806 0.9668
1.4322 -7.9381 -2.4810 0.9668
2.2731 -7.7414 -2.4816 0.9668
2.8201 -7.5611 -2.4821 0.9668
3.3532 -7.3425 -2.4827 0.9668
3.6136 -7.2191 -2.4831 0.9668
3.8696 -7.0866 -2.4835 0.9668
4.6072 -6.6357 -2.4847 0.9668
4.8420 -6.4682 -2.4852 0.9668
5.9197 -5.5115 -2.4878 0.9667
6.1141 -5.2979 -2.4883 0.9667
6.3008 -5.0775 -2.4889 0.9667
6.6503 -4.6174 -2.4902 0.9667
6.8126 -4.3782 -2.4908 0.9667
7.1114 -3.8831 -2.4922 0.9667
7.2475 -3.6278 -2.4928 0.9667
7.3744 -3.3678 -2.4935 0.9666
7.4920 -3.1033 -2.4942 0.9666
7.6988 -2.5624 -2.4957 0.9666
7.8666 -2.0079 -2.4972 0.9666
7.9356 -1.7263 -2.4979 0.9666
7.9946 -1.4424 -2.4987 0.9666
8.0434 -1.1565 -2.4994 0.9666
8.1103 -0.5801 -2.5009 0.9665
8.1284 -0.2903 -2.5017 0.9665
-7.5012 -0.5365 -2.4998 0.9688
-7.4396 -1.0697 -2.4984 0.9688
-7.3946 -1.3341 -2.4977 0.9688
-7.3403 -1.5968 -2.4970 0.9688
-7.2766 -1.8573 -2.4963 0.9688
-7.2038 -2.1152 -2.4957 0.9688
-7.1218 -2.3704 -2.4950 0.9689
-6.7051 -3.3563 -2.4924 0.9689
-6.1533 -4.2723 -2.4901 0.9689
-5.9956 -4.4882 -2.4895 0.9689
-5.8303 -4.6983 -2.4890 0.9689
-5.6577 -4.9024 -2.4884 0.9689
-5.4780 -5.1002 -2.4879 0.9689
-5.2914 -5.2914 -2.4874 0.9689
-4.6929 -5.8235 -2.4861 0.9690
-4.4813 -5.9863 -2.4857 0.9690
-4.2641 -6.1415 -2.4853 0.9690
-3.5817 -6.5594 -2.4842 0.9690
-3.3449 -6.6822 -2.4839 0.9690
-2.8590 -6.9023 -2.4834 0.9690
-2.3589 -7.0874 -2.4830 0.9690
-1.3259 -7.3492 -2.4823 0.9690
-0.2665 -7.4624 -2.4821 0.9690
0.2665 -7.4626 -2.4822 0.9690
0.5327 -7.4485 -2.4822 0.9690
1.0628 -7.3921 -2.4824 0.9690
1.8472 -7.2375 -2.4829 0.9690
2.1046 -7.1675 -2.4831 0.9690
2.8596 -6.9036 -2.4839 0.9690
3.5825 -6.5609 -2.4848 0.9690
4.0426 -6.2905 -2.4856 0.9690
4.2653 -6.1432 -2.4860 0.9690
4.6943 -5.8253 -2.4868 0.9690
4.9002 -5.6551 -2.4873 0.9690
5.0999 -5.4777 -2.4878 0.9689
5.2932 -5.2932 -2.4883 0.9689
5.4799 -5.1020 -2.4888 0.9689
5.8325 -4.7001 -2.4899 0.9689
5.9979 -4.4899 -2.4905 0.9689
6.8253 -3.1170 -2.4942 0.9689
6.9340 -2.8722 -2.4948 0.9689
7.2071 -2.1162 -2.4968 0.9688
7.2800 -1.8581 -2.4975 0.9688
7.3982 -1.3348 -2.4989 0.9688
7.5048 -0.5368 -2.5010 0.9688
7.5213 -0.2686 -2.5017 0.9688
-6.9881 -0.2496 -2.5006 0.9707
-6.9729 -0.4987 -2.4999 0.9707
-6.9489 -0.7471 -2.4993 0.9707
-6.9160 -0.9944 -2.4986 0.9708
-6.7649 -1.7266 -2.4967 0.9708
-6.6973 -1.9665 -2.4961 0.9708
-6.5367 -2.4381 -2.4949 0.9708
-6.1174 -3.3404 -2.4925 0.9708
-5.7216 -3.9725 -2.4909 0.9708
-5.4214 -4.3688 -2.4899 0.9709
-5.2609 -4.5586 -2.4894 0.9709
-5.0939 -4.7426 -2.4889 0.9709
-4.9205 -4.9205 -2.4885 0.9709
-4.5554 -5.2572 -2.4876 0.9709
-4.3641 -5.4155 -2.4872 0.9709
-4.1674 -5.5670 -2.4868 0.9709
-3.1107 -6.2144 -2.4852 0.9709
-2.8866 -6.3208 -2.4849 0.9709
-2.6589 -6.4192 -2.4847 0.9709
-2.4279 -6.5094 -2.4845 0.9709
-2.1938 -6.5914 -2.4843 0.9709
-1.9570 -6.6651 -2.4841 0.9709
-1.7178 -6.7303 -2.4839 0.9709
-1.2332 -6.8350 -2.4837 0.9709
-0.9884 -6.8744 -2.4836 0.9709
-0.7424 -6.9052 -2.4836 0.9709
-0.4954 -6.9271 -2.4835 0.9709
-0.2479 -6.9404 -2.4835 0.9709
-0.0000 -6.9448 -2.4835 0.9709
0.2479 -6.9405 -2.4835 0.9709
0.7424 -6.9055 -2.4837 0.9709
0.9885 -6.8749 -2.4838 0.9709
1.4765 -6.7876 -2.4841 0.9709
1.7180 -6.7310 -2.4842 0.9709
2.4283 -6.5105 -2.4849 0.9709
2.8872 -6.3220 -2.4854 0.9709
3.5478 -5.9795 -2.4863 0.9709
3.9665 -5.7128 -2.4871 0.9709
4.1685 -5.5685 -2.4875 0.9709
4.5567 -5.2587 -2.4883 0.9709
4.7423 -5.0936 -2.4888 0.9709
5.0956 -4.7442 -2.4897 0.9709
5.4232 -4.3703 -2.4907 0.9708
5.7237 -3.9740 -2.4918 0.9708
5.8632 -3.7680 -2.4924 0.9708
6.2367 -3.1219 -2.4941 0.9708
6.3456 -2.8980 -2.4947 0.9708
6.4466 -2.6703 -2.4953 0.9708
6.6240 -2.2047 -2.4965 0.9708
6.7001 -1.9673 -2.4972 0.9708
6.7678 -1.7274 -2.4978 0.9708
6.8774 -1.2408 -2.4991 0.9707
6.9520 -0.7474 -2.5004 0.9707
6.9761 -0.4989 -2.5011 0.9707
-6.5073 -0.4654 -2.5001 0.9724
-6.4849 -0.6972 -2.4995 0.9724
-6.2506 -1.8354 -2.4965 0.9725
-6.1010 -2.2755 -2.4953 0.9725
-6.0145 -2.4913 -2.4948 0.9725
-5.8189 -2.9127 -2.4937 0.9725
-5.5939 -3.3190 -2.4926 0.9725
-5.4708 -3.5158 -2.4921 0.9725
-5.3407 -3.7081 -2.4916 0.9725
-5.0607 -4.0781 -2.4907 0.9725
-4.9110 -4.2554 -2.4902 0.9725
-4.7551 -4.4272 -2.4898 0.9726
-4.0740 -5.0556 -2.4882 0.9726
-3.8904 -5.1970 -2.4878 0.9726
-3.7020 -5.3319 -2.4875 0.9726
-3.5088 -5.4599 -2.4871 0.9726
-2.9041 -5.8017 -2.4863 0.9726
-2.4824 -5.9929 -2.4858 0.9726
-2.0482 -6.1538 -2.4854 0.9726
-1.8271 -6.2226 -2.4853 0.9726
-1.3784 -6.3364 -2.4850 0.9726
-1.1513 -6.3813 -2.4849 0.9726
-0.9228 -6.4181 -2.4848 0.9726
-0.6931 -6.4468 -2.4848 0.9726
-0.4626 -6.4674 -2.4847 0.9726
-0.2314 -6.4797 -2.4847 0.9726
-0.0000 -6.4839 -2.4847 0.9726
0.2314 -6.4798 -2.4848 0.9726
0.4626 -6.4675 -2.4848 0.9726
1.1514 -6.3818 -2.4851 0.9726
1.8273 -6.2233 -2.4856 0.9726
2.2670 -6.0781 -2.4860 0.9726
2.6954 -5.9021 -2.4865 0.9726
3.3120 -5.5821 -2.4874 0.9726
3.5096 -5.4611 -2.4877 0.9726
3.7028 -5.3331 -2.4881 0.9726
4.5946 -4.5946 -2.4901 0.9725
4.7565 -4.4285 -2.4905 0.9725
5.0623 -4.0795 -2.4915 0.9725
5.2057 -3.8970 -2.4920 0.9725
5.3426 -3.7094 -2.4925 0.9725
5.4727 -3.5171 -2.4930 0.9725
5.9227 -2.7048 -2.4952 0.9725
6.0168 -2.4923 -2.4957 0.9725
6.1822 -2.0576 -2.4969 0.9725
6.3162 -1.6121 -2.4981 0.9725
6.3712 -1.3860 -2.4987 0.9725
6.4182 -1.1580 -2.4993 0.9724
6.4570 -0.9284 -2.4999 0.9724
6.4876 -0.6975 -2.5005 0.9724
-6.1116 0.0000 -2.5013 0.9739
-6.1063 -0.2181 -2.5008 0.9739
-6.0932 -0.4358 -2.5002 0.9739
-6.0076 -1.0839 -2.4985 0.9740
-5.9124 -1.5090 -2.4974 0.9740
-5.8535 -1.7187 -2.4968 0.9740
-5.6326 -2.3331 -2.4952 0.9740
-5.5446 -2.5321 -2.4947 0.9740
-5.4496 -2.7279 -2.4942 0.9740
-5.0020 -3.4730 -2.4923 0.9740
-4.5997 -3.9856 -2.4909 0.9740
-4.4537 -4.1466 -2.4905 0.9740
-4.1453 -4.4524 -2.4898 0.9741
-3.9831 -4.5968 -2.4894 0.9741
-3.6441 -4.8679 -2.4887 0.9741
-3.4675 -4.9942 -2.4884 0.9741
-3.1017 -5.2276 -2.4878 0.9741
-2.9128 -5.3344 -2.4875 0.9741
-1.7115 -5.8289 -2.4863 0.9741
-0.8644 -6.0121 -2.4859 0.9741
-0.4333 -6.0582 -2.4858 0.9741
-0.0000 -6.0737 -2.4858 0.9741
0.2168 -6.0699 -2.4858 0.9741
0.4333 -6.0584 -2.4859 0.9741
1.0786 -5.9780 -2.4862 0.9741
1.2913 -5.9360 -2.4863 0.9741
1.5024 -5.8865 -2.4864 0.9741
1.7117 -5.8295 -2.4866 0.9741
2.3256 -5.6145 -2.4872 0.9741
2.7208 -5.4354 -2.4877 0.9741
3.6449 -4.8690 -2.4893 0.9741
3.9842 -4.5980 -2.4900 0.9740
4.3034 -4.3034 -2.4908 0.9740
4.4550 -4.1478 -2.4912 0.9740
4.7413 -3.8207 -2.4921 0.9740
5.0036 -3.4741 -2.4931 0.9740
5.2408 -3.1095 -2.4940 0.9740
5.5466 -2.5330 -2.4956 0.9740
5.6346 -2.3339 -2.4961 0.9740
5.8557 -1.7194 -2.4978 0.9740
5.9146 -1.5096 -2.4983 0.9740
5.9661 -1.2978 -2.4989 0.9740
-5.7395 0.0000 -2.5014 0.9753
-5.7224 -0.4093 -2.5003 0.9753
-5.7029 -0.6131 -2.4997 0.9753
-5.5529 -1.4173 -2.4976 0.9753
-5.4354 -1.8091 -2.4966 0.9753
-5.3663 -2.0015 -2.4961 0.9753
-5.2904 -2.1914 -2.4956 0.9753
-5.2078 -2.3783 -2.4951 0.9753
-5.1186 -2.5622 -2.4947 0.9753
-5.0230 -2.7428 -2.4942 0.9753
-4.9210 -2.9197 -2.4937 0.9753
-4.8128 -3.0930 -2.4933 0.9753
-4.5783 -3.4272 -2.4924 0.9754
-4.4523 -3.5879 -2.4920 0.9754
-4.3207 -3.7439 -2.4916 0.9754
-3.7417 -4.3182 -2.4901 0.9754
-3.5847 -4.4484 -2.4898 0.9754
-3.4232 -4.5729 -2.4895 0.9754
-3.2574 -4.6916 -2.4892 0.9754
-2.9138 -4.9109 -2.4886 0.9754
-2.7364 -5.0113 -2.4884 0.9754
-1.9947 -5.3479 -2.4876 0.9754
-1.8024 -5.4154 -2.4874 0.9754
-1.6079 -5.4759 -2.4873 0.9754
-1.2130 -5.5762 -2.4870 0.9754
-1.0132 -5.6157 -2.4869 0.9754
-0.4071 -5.6915 -2.4868 0.9754
-0.2037 -5.7024 -2.4868 0.9754
0.2037 -5.7025 -2.4868 0.9754
0.4071 -5.6917 -2.4869 0.9754
0.8121 -5.6484 -2.4870 0.9754
1.0133 -5.6161 -2.4871 0.9754
1.2131 -5.5766 -2.4872 0.9754
1.4115 -5.5301 -2.4874 0.9754
1.9949 -5.3486 -2.4879 0.9754
2.1848 -5.2745 -2.4881 0.9754
2.3718 -5.1936 -2.4883 0.9754
2.5560 -5.1061 -2.4886 0.9754
2.9143 -4.9119 -2.4891 0.9754
3.4239 -4.5739 -2.4900 0.9754
3.5855 -4.4494 -2.4904 0.9754
3.8950 -4.1835 -2.4911 0.9754
4.1848 -3.8962 -2.4919 0.9754
4.3219 -3.7449 -2.4923 0.9754
4.4536 -3.5889 -2.4927 0.9754
4.8142 -3.0939 -2.4941 0.9753
5.0246 -2.7436 -2.4950 0.9753
5.2096 -2.3791 -2.4960 0.9753
5.2922 -2.1921 -2.4965 0.9753
5.3682 -2.0022 -2.4970 0.9753
5.4373 -1.8097 -2.4975 0.9753
5.4996 -1.6148 -2.4980 0.9753
5.6031 -1.2189 -2.4991 0.9753
5.6782 -0.8164 -2.5001 0.9753
5.7050 -0.6133 -2.5007 0.9753
5.7245 -0.4094 -2.5012 0.9753
-5.4039 0.0000 -2.5014 0.9765
-5.3994 -0.1928 -2.5009 0.9765
-5.3879 -0.3854 -2.5004 0.9765
-5.3446 -0.7684 -2.4994 0.9765
-5.2740 -1.1473 -2.4984 0.9765
-5.1767 -1.5200 -2.4974 0.9765
-4.9040 -2.2396 -2.4955 0.9765
-4.8201 -2.4128 -2.4951 0.9765
-4.6341 -2.7495 -2.4942 0.9765
-4.4247 -3.0721 -2.4934 0.9765
-4.3115 -3.2275 -2.4930 0.9765
-3.9400 -3.6683 -2.4918 0.9766
-3.6672 -3.9389 -2.4911 0.9766
-3.5239 -4.0667 -2.4908 0.9766
-2.7442 -4.6252 -2.4894 0.9766
-2.2335 -4.8907 -2.4888 0.9766
-2.0574 -4.9670 -2.4886 0.9766
-1.6976 -5.1004 -2.4882 0.9766
-1.5144 -5.1575 -2.4881 0.9766
-1.3293 -5.2080 -2.4880 0.9766
-0.0000 -5.3742 -2.4877 0.9766
0.3834 -5.3607 -2.4877 0.9766
0.5745 -5.3437 -2.4878 0.9766
0.7649 -5.3200 -2.4879 0.9766
1.5145 -5.1580 -2.4883 0.9766
1.6978 -5.1010 -2.4885 0.9766
1.8789 -5.0375 -2.4887 0.9766
2.0577 -4.9676 -2.4889 0.9766
2.2338 -4.8914 -2.4891 0.9766
2.4072 -4.8090 -2.4893 0.9766
2.7447 -4.6260 -2.4898 0.9766
2.9084 -4.5256 -2.4901 0.9766
3.0685 -4.4194 -2.4904 0.9766
3.2246 -4.3076 -2.4907 0.9766
3.3768 -4.1903 -2.4910 0.9766
3.5247 -4.0677 -2.4914 0.9766
3.6681 -3.9398 -2.4917 0.9766
3.9410 -3.6692 -2.4925 0.9765
4.8216 -2.4135 -2.4958 0.9765
5.0548 -1.8854 -2.4973 0.9765
5.1785 -1.5205 -2.4982 0.9765
5.2758 -1.1477 -2.4992 0.9765
5.3145 -0.9588 -2.4997 0.9765
5.3464 -0.7687 -2.5002 0.9765
-5.0952 -0.1820 -2.5009 0.9775
-5.0845 -0.3637 -2.5005 0.9775
-5.0437 -0.7252 -2.4995 0.9776
-4.9773 -1.0827 -2.4986 0.9776
-4.8304 -1.6077 -2.4972 0.9776
-4.6284 -2.1137 -2.4959 0.9776
-4.5492 -2.2772 -2.4955 0.9776
-4.4643 -2.4377 -2.4950 0.9776
-4.3737 -2.5951 -2.4946 0.9776
-4.2776 -2.7491 -2.4942 0.9776
-4.1761 -2.8996 -2.4938 0.9776
-4.0694 -3.0463 -2.4935 0.9776
-3.8406 -3.3279 -2.4927 0.9776
-3.7188 -3.4624 -2.4924 0.9776
-3.1866 -3.9544 -2.4911 0.9776
-3.0431 -4.0651 -2.4909 0.9776
-2.8958 -4.1707 -2.4906 0.9776
-2.2719 -4.5387 -2.4897 0.9776
-1.9420 -4.6885 -2.4893 0.9776
-1.0784 -4.9576 -2.4887 0.9776
-0.9008 -4.9927 -2.4886 0.9777
-0.7220 -5.0216 -2.4885 0.9777
-0.5423 -5.0441 -2.4885 0.9777
-0.0000 -5.0731 -2.4885 0.9777
0.1811 -5.0699 -2.4885 0.9777
0.3619 -5.0602 -2.4885 0.9777
0.5423 -5.0442 -2.4886 0.9777
0.7220 -5.0218 -2.4886 0.9776
0.9008 -4.9930 -2.4887 0.9776
1.6026 -4.8150 -2.4893 0.9776
1.7735 -4.7551 -2.4894 0.9776
1.9423 -4.6891 -2.4896 0.9776
2.1086 -4.6172 -2.4898 0.9776
2.5908 -4.3665 -2.4905 0.9776
2.7453 -4.2717 -2.4908 0.9776
2.8963 -4.1715 -2.4911 0.9776
3.0437 -4.0659 -2.4913 0.9776
3.1873 -3.9552 -2.4917 0.9776
3.3268 -3.8394 -2.4920 0.9776
3.7197 -3.4632 -2.4930 0.9776
3.9585 -3.1899 -2.4937 0.9776
4.0704 -3.0471 -2.4941 0.9776
4.5505 -2.2778 -2.4962 0.9776
4.6298 -2.1143 -2.4966 0.9776
4.7031 -1.9481 -2.4971 0.9776
4.8871 -1.4350 -2.4984 0.9776
4.9361 -1.2599 -2.4989 0.9776
4.9789 -1.0831 -2.4994 0.9776
5.0153 -0.9049 -2.4998 0.9776
5.0862 -0.3638 -2.5013 0.9775
-4.8218 0.0000 -2.5014 0.9785
-4.8178 -0.1721 -2.5010 0.9785
-4.7915 -0.5151 -2.5001 0.9785
-4.7692 -0.6857 -2.4996 0.9785
-4.7065 -1.0238 -2.4987 0.9785
-4.5677 -1.5203 -2.4974 0.9785
-4.4461 -1.8417 -2.4966 0.9785
-4.3769 -1.9988 -2.4962 0.9786
-4.0453 -2.5998 -2.4946 0.9786
-3.8484 -2.8809 -2.4939 0.9786
-3.7426 -3.0160 -2.4936 0.9786
-3.5170 -3.2744 -2.4929 0.9786
-2.4499 -4.1291 -2.4907 0.9786
-2.1487 -4.2926 -2.4903 0.9786
-1.9940 -4.3663 -2.4902 0.9786
-1.8368 -4.4344 -2.4900 0.9786
-1.6772 -4.4968 -2.4898 0.9786
-1.5156 -4.5536 -2.4897 0.9786
-1.1867 -4.6496 -2.4895 0.9786
-1.0200 -4.6889 -2.4894 0.9786
-0.8520 -4.7221 -2.4893 0.9786
-0.5129 -4.7707 -2.4892 0.9786
-0.1713 -4.7951 -2.4892 0.9786
0.1713 -4.7951 -2.4892 0.9786
0.5129 -4.7709 -2.4893 0.9786
0.6829 -4.7497 -2.4894 0.9786
1.0201 -4.6892 -2.4895 0.9786
1.5157 -4.5540 -2.4899 0.9786
1.6774 -4.4973 -2.4901 0.9786
1.9943 -4.3668 -2.4905 0.9786
2.1490 -4.2932 -2.4907 0.9786
2.3011 -4.2141 -2.4909 0.9786
2.5964 -4.0400 -2.4914 0.9786
2.8786 -3.8453 -2.4919 0.9786
3.1463 -3.6310 -2.4925 0.9786
3.2743 -3.5169 -2.4928 0.9786
3.6329 -3.1480 -2.4938 0.9786
3.7435 -3.0167 -2.4942 0.9786
3.8494 -2.8816 -2.4945 0.9786
3.9504 -2.7428 -2.4949 0.9786
4.0464 -2.6004 -2.4953 0.9786
4.1373 -2.4548 -2.4957 0.9786
4.2229 -2.3059 -2.4961 0.9786
4.3781 -1.9994 -2.4969 0.9785
4.4474 -1.8422 -2.4973 0.9785
4.5691 -1.5207 -2.4982 0.9785
4.6675 -1.1913 -2.4991 0.9785
4.8092 -0.3440 -2.5013 0.9785
-4.5540 -0.3257 -2.5006 0.9794
-4.5387 -0.4880 -2.5002 0.9794
-4.5176 -0.6495 -2.4997 0.9794
-4.4908 -0.8102 -2.4993 0.9794
-4.4582 -0.9698 -2.4989 0.9794
-4.4201 -1.1282 -2.4985 0.9794
-4.3269 -1.4401 -2.4977 0.9794
-4.2721 -1.5934 -2.4973 0.9794
-4.1462 -1.8935 -2.4965 0.9794
-4.0754 -2.0400 -2.4961 0.9794
-3.9994 -2.1838 -2.4957 0.9794
-3.8323 -2.4628 -2.4950 0.9794
-3.1014 -3.3311 -2.4928 0.9795
-2.9802 -3.4393 -2.4925 0.9795
-2.8552 -3.5431 -2.4923 0.9795
-2.3210 -3.9119 -2.4913 0.9795
-2.0357 -4.0669 -2.4909 0.9795
-1.8892 -4.1367 -2.4908 0.9795
-1.7402 -4.2012 -2.4906 0.9795
-1.4359 -4.3142 -2.4903 0.9795
-1.2809 -4.3625 -2.4902 0.9795
-1.1244 -4.4052 -2.4901 0.9795
-0.9664 -4.4424 -2.4900 0.9795
-0.8072 -4.4740 -2.4900 0.9795
-0.4859 -4.5200 -2.4899 0.9795
0.1623 -4.5431 -2.4899 0.9795
0.4860 -4.5201 -2.4899 0.9795
0.9664 -4.4427 -2.4902 0.9795
1.2810 -4.3628 -2.4904 0.9795
1.7404 -4.2017 -2.4909 0.9795
1.8894 -4.1372 -2.4911 0.9795
2.0360 -4.0674 -2.4913 0.9795
2.1801 -3.9925 -2.4915 0.9795
2.3214 -3.9125 -2.4917 0.9795
2.4598 -3.8275 -2.4919 0.9795
2.5951 -3.7377 -2.4922 0.9795
2.7271 -3.6430 -2.4924 0.9795
2.9807 -3.4400 -2.4930 0.9795
3.1020 -3.3318 -2.4933 0.9795
3.3326 -3.1028 -2.4939 0.9794
3.5464 -2.8579 -2.4946 0.9794
3.8332 -2.4635 -2.4956 0.9794
3.9193 -2.3254 -2.4960 0.9794
4.0764 -2.0405 -2.4968 0.9794
4.2732 -1.5938 -2.4980 0.9794
4.3281 -1.4405 -2.4984 0.9794
4.4921 -0.8105 -2.5000 0.9794
4.5400 -0.4881 -2.5009 0.9794
4.5648 -0.1630 -2.5018 0.9794
-4.3202 -0.3090 -2.5007 0.9802
-4.3058 -0.4629 -2.5003 0.9802
-4.2858 -0.6162 -2.4998 0.9802
-4.1934 -1.0703 -2.4987 0.9802
-4.1519 -1.2191 -2.4983 0.9802
-3.9959 -1.6552 -2.4971 0.9802
-3.9337 -1.7965 -2.4968 0.9802
-3.8665 -1.9355 -2.4964 0.9802
-3.7945 -2.0719 -2.4961 0.9802
-3.7176 -2.2057 -2.4957 0.9802
-3.6360 -2.3367 -2.4954 0.9802
-3.4591 -2.5895 -2.4947 0.9802
-3.3641 -2.7109 -2.4944 0.9802
-3.0539 -3.0539 -2.4935 0.9802
-2.7091 -3.3618 -2.4927 0.9803
-2.5872 -3.4561 -2.4925 0.9803
-2.3336 -3.6312 -2.4921 0.9803
-2.2023 -3.7118 -2.4919 0.9803
-2.0683 -3.7878 -2.4917 0.9803
-1.9316 -3.8589 -2.4915 0.9803
-1.7926 -3.9252 -2.4913 0.9803
-1.5078 -4.0426 -2.4910 0.9803
-1.2155 -4.1395 -2.4908 0.9803
-0.9170 -4.2153 -2.4906 0.9803
-0.6139 -4.2698 -2.4905 0.9803
-0.4611 -4.2889 -2.4905 0.9803
-0.1540 -4.3108 -2.4904 0.9803
0.0000 -4.3136 -2.4905 0.9803
0.1540 -4.3109 -2.4905 0.9803
0.3077 -4.3027 -2.4905 0.9803
0.4611 -4.2890 -2.4906 0.9803
0.7660 -4.2455 -2.4907 0.9803
1.0670 -4.1803 -2.4909 0.9803
1.6514 -3.9868 -2.4914 0.9803
1.9319 -3.8594 -2.4918 0.9803
2.0686 -3.7883 -2.4920 0.9803
2.2027 -3.7124 -2.4922 0.9803
2.3340 -3.6317 -2.4924 0.9803
2.4623 -3.5464 -2.4927 0.9803
2.5876 -3.4566 -2.4929 0.9803
2.8282 -3.2639 -2.4934 0.9803
2.9432 -3.1612 -2.4937 0.9802
3.0545 -3.0545 -2.4940 0.9802
3.1620 -2.9439 -2.4943 0.9802
3.3648 -2.7115 -2.4949 0.9802
3.5506 -2.4652 -2.4956 0.9802
3.6368 -2.3373 -2.4960 0.9802
3.8675 -1.9359 -2.4970 0.9802
3.9347 -1.7969 -2.4974 0.9802
3.9970 -1.6556 -2.4978 0.9802
4.1945 -1.0706 -2.4993 0.9802
4.2307 -0.9203 -2.4997 0.9802
4.2870 -0.6164 -2.5005 0.9802
4.3069 -0.4631 -2.5009 0.9802
4.3214 -0.3091 -2.5013 0.9802
