ply
format ascii 1.0
element vertex 1247
property float32 x
property float32 y
property float32 z
property float32 I
end_header
-38.1529 -24.5194 7.9969 0.8318
-34.1533 -25.5669 7.5226 0.8409
-28.7770 -26.7923 6.9329 0.8524
-27.1805 -27.1805 6.7778 0.8554
-24.1816 -27.9071 6.5111 0.8607
-23.1160 -30.8794 6.8015 0.8550
-22.3345 -32.1679 6.9052 0.8529
-21.2072 -32.9991 6.9166 0.8527
1.7704 -16.4675 2.9204 0.9349
3.3333 -18.4751 3.3103 0.9266
15.3842 -46.2221 8.5898 0.8205
16.2441 -43.5521 8.1962 0.8280
17.3269 -37.9407 7.3546 0.8442
23.3874 -39.4173 8.0816 0.8301
23.5148 -23.5147 5.8637 0.8737
44.8465 -4.8215 7.9532 0.8326
-42.8211 -23.3822 7.4742 0.8208
-40.8987 -24.2663 7.2853 0.8249
-38.1501 -24.5176 6.9472 0.8323
-36.0481 -25.0287 6.7229 0.8373
-34.0751 -25.5083 6.5207 0.8418
-32.2151 -25.9606 6.3382 0.8458
-28.7751 -26.7906 6.0230 0.8529
-25.6503 -27.5504 5.7666 0.8587
-23.8745 -29.6265 5.8289 0.8573
-23.1152 -30.8783 5.9090 0.8555
-22.3337 -32.1667 5.9991 0.8535
17.3257 -37.9381 6.3893 0.8447
19.3839 -38.7241 6.6341 0.8393
23.3856 -39.4144 7.0209 0.8307
25.6911 -39.9760 7.2798 0.8251
28.1763 -40.5815 7.5684 0.8188
21.2046 -21.2046 4.5940 0.8857
44.8905 -4.8262 6.9166 0.8330
-40.3972 -23.9688 6.1168 0.8274
-38.1473 -24.5158 5.9050 0.8328
-36.1922 -25.1287 5.7376 0.8372
-34.2114 -25.6103 5.5650 0.8417
-32.3439 -26.0644 5.4092 0.8457
-30.8251 -26.7101 5.3114 0.8483
-27.1865 -27.1865 5.0067 0.8563
-29.2650 -31.4328 5.5926 0.8409
-24.1787 -27.9038 4.8080 0.8616
-21.2052 -32.9959 5.1076 0.8537
-21.6748 -36.5310 5.5314 0.8425
-23.0632 -42.2372 6.2667 0.8236
3.3342 -18.4803 2.4454 0.9270
16.2437 -43.5510 6.0529 0.8290
17.3246 -37.9355 5.4308 0.8452
21.4570 -39.2956 5.8303 0.8348
23.3839 -39.4114 5.9676 0.8312
25.6891 -39.9730 6.1876 0.8256
28.1740 -40.5783 6.4329 0.8193
-39.4925 -8.5911 4.3400 0.8499
-44.4314 -20.2912 5.2451 0.8216
-42.9820 -21.5153 5.1614 0.8242
-42.8144 -23.3785 5.2382 0.8218
-34.8842 -26.1140 4.6792 0.8392
-27.1869 -27.1869 4.1286 0.8567
-24.1773 -27.9021 3.9645 0.8620
-26.4034 -35.2708 4.7311 0.8376
-22.5953 -32.5434 4.2542 0.8527
-21.6754 -36.5320 4.5614 0.8429
1.7699 -16.4621 1.7779 0.9356
3.3347 -18.4829 2.0168 0.9272
15.3813 -46.2133 5.2301 0.8221
16.2435 -43.5504 4.9912 0.8294
25.6871 -39.9699 5.1019 0.8260
21.1984 -21.1984 3.2190 0.8864
-39.4382 -8.5793 3.4166 0.8504
-42.8110 -23.3766 4.1292 0.8222
-34.8846 -26.1143 3.6889 0.8395
-37.0186 -29.8315 4.0246 0.8263
-31.1344 -26.9781 3.4874 0.8476
-15.2262 -14.1761 1.7611 0.9199
-29.4851 -31.6692 3.6629 0.8405
-24.1758 -27.9005 3.1252 0.8623
-26.4255 -35.3004 3.7328 0.8378
-2.7323 -25.4138 2.1637 0.9025
-1.7374 -24.2916 2.0616 0.9069
16.2433 -43.5498 3.9347 0.8298
16.6852 -40.2815 3.6909 0.8394
17.3222 -37.9304 3.5299 0.8459
21.4540 -39.2900 3.7896 0.8355
23.3804 -39.4056 3.8788 0.8320
25.6851 -39.9669 4.0217 0.8264
28.1695 -40.5718 4.1812 0.8201
21.1962 -21.1962 2.5373 0.8866
44.9461 -4.8322 3.8267 0.8340
-45.1960 -1.6142 2.8044 0.8342
-39.3843 -8.5675 2.4994 0.8508
-42.8077 -23.3748 3.0245 0.8224
-38.5134 -24.7511 2.8389 0.8324
-34.8850 -26.1146 2.7022 0.8398
-37.0311 -29.8416 2.9492 0.8265
-31.1347 -26.9784 2.5547 0.8478
-27.1877 -27.1877 2.3842 0.8572
-29.4618 -31.6443 2.6811 0.8409
-26.1498 -32.4500 2.5843 0.8462
-26.3858 -35.2474 2.7303 0.8382
-22.5905 -32.5366 2.4562 0.8532
-21.2021 -32.9912 2.4318 0.8546
-21.6765 -36.5338 2.6342 0.8435
-23.8899 -43.7510 3.0911 0.8189
-13.6489 -32.9514 2.2117 0.8668
-1.7279 -24.1591 1.5019 0.9075
1.7695 -16.4584 1.0265 0.9358
16.0890 -43.1361 2.8549 0.8315
16.6850 -40.2810 2.7036 0.8397
19.2726 -38.5018 2.6699 0.8415
13.9869 -20.1450 1.5208 0.9064
-39.3306 -8.5558 1.5871 0.8512
-42.8043 -23.3730 1.9231 0.8226
-37.0076 -29.8227 1.8743 0.8267
-31.1351 -26.9788 1.6245 0.8480
-15.1847 -14.1375 0.8181 0.9203
-27.1880 -27.1880 1.5161 0.8573
-26.1752 -32.4815 1.6449 0.8462
-26.3379 -35.1833 1.7330 0.8387
-22.5882 -32.5332 1.5617 0.8534
-21.2012 -32.9897 1.5463 0.8547
-21.6770 -36.5347 1.6751 0.8436
-12.6479 -23.1629 1.0406 0.8997
-15.0113 -32.8703 1.4249 0.8653
-1.7303 -24.1931 0.9564 0.9075
1.7692 -16.4557 0.6526 0.9359
3.3361 -18.4906 0.7409 0.9275
15.5044 -46.5831 1.9359 0.8216
16.2428 -43.5487 1.8327 0.8302
16.6847 -40.2805 1.7191 0.8398
17.3199 -37.9254 1.6440 0.8463
19.3828 -38.7219 1.7075 0.8408
16.4713 -30.1650 1.3552 0.8715
18.1730 -30.6289 1.4043 0.8671
13.5978 -19.5845 0.9401 0.9090
21.1917 -21.1917 1.1816 0.8869
44.9752 -4.8353 1.7836 0.8344
-39.2772 -8.5442 0.6790 0.8515
-42.8010 -23.3712 0.8238 0.8228
-38.5142 -24.7516 0.7733 0.8326
-36.9893 -29.8079 0.8025 0.8269
-31.1355 -26.9791 0.6959 0.8480
-24.1715 -27.8955 0.6235 0.8627
-26.1469 -32.4463 0.7039 0.8464
-26.3374 -35.1827 0.7424 0.8388
-21.6776 -36.5356 0.7176 0.8437
-23.8873 -43.7463 0.8419 0.8192
1.7689 -16.4530 0.2795 0.9359
3.3365 -18.4932 0.3174 0.9276
15.5042 -46.5825 0.8293 0.8217
17.3188 -37.9229 0.7042 0.8464
19.3826 -38.7215 0.7315 0.8409
13.7125 -23.1112 0.4539 0.8981
21.1884 -21.1883 0.5062 0.8870
-39.2240 -8.5327 -0.2260 0.8517
-42.7977 -23.3694 -0.2745 0.8228
-38.5147 -24.7519 -0.2578 0.8327
-34.8862 -26.1155 -0.2454 0.8400
-31.1359 -26.9795 -0.2319 0.8481
-15.1436 -14.0992 -0.1165 0.9206
-27.1888 -27.1888 -0.2165 0.8574
-26.3369 -35.1820 -0.2474 0.8388
-21.0255 -30.2825 -0.2076 0.8629
-21.1992 -32.9866 -0.2208 0.8548
-21.6781 -36.5365 -0.2392 0.8437
-23.8860 -43.7439 -0.2806 0.8193
1.7686 -16.4504 -0.0932 0.9360
3.3370 -18.4958 -0.1058 0.9276
15.5040 -46.5819 -0.2764 0.8217
16.6843 -40.2795 -0.2455 0.8400
21.4479 -39.2789 -0.2520 0.8361
13.6396 -21.2237 -0.1420 0.9040
13.9641 -20.1122 -0.1379 0.9067
-39.1710 -8.5211 -1.1288 0.8518
-42.7944 -23.3675 -1.3729 0.8227
-37.0059 -29.8213 -1.3380 0.8268
-27.1892 -27.1892 -1.0827 0.8574
-29.4850 -31.6692 -1.2184 0.8410
-26.1956 -32.5068 -1.1755 0.8462
-26.3364 -35.1814 -1.2376 0.8387
-21.0252 -30.2822 -1.0381 0.8628
-23.8847 -43.7415 -1.4033 0.8192
15.5037 -46.5812 -1.3824 0.8216
16.2422 -43.5470 -1.3087 0.8303
16.5525 -36.2450 -1.1220 0.8526
19.3822 -38.7206 -1.2193 0.8409
21.4464 -39.2761 -1.2601 0.8360
23.6169 -39.8042 -1.3032 0.8309
13.7325 -21.3681 -0.7152 0.9034
13.9635 -20.1113 -0.6894 0.9067
-49.5613 -0.0000 -2.5135 0.8200
-49.6111 -1.7719 -2.5176 0.8197
-49.5400 -3.5432 -2.5188 0.8196
-38.3791 -8.3489 -1.9919 0.8544
-38.8476 -9.9153 -2.0333 0.8517
-45.3946 -13.3291 -2.3993 0.8274
-45.0711 -15.0011 -2.4090 0.8268
-26.7519 -9.9780 -1.4480 0.8919
-25.1196 -10.4049 -1.3789 0.8968
-43.7163 -19.9646 -2.4373 0.8249
-43.1369 -21.5928 -2.4464 0.8243
-42.4939 -23.2035 -2.4554 0.8237
-41.7865 -24.7933 -2.4641 0.8232
-16.3042 -12.2051 -1.0329 0.9217
-31.1367 -26.9801 -2.0894 0.8479
-15.1026 -14.0611 -1.0465 0.9207
-27.1896 -27.1896 -1.9501 0.8573
-29.4588 -31.6410 -2.1925 0.8410
-24.1673 -27.8906 -1.8716 0.8626
-26.3359 -35.1808 -2.2288 0.8386
-20.8526 -30.0335 -1.8543 0.8638
-21.6792 -36.5383 -2.1546 0.8435
-5.9613 -33.0412 -1.7027 0.8742
-4.5819 -31.8678 -1.6328 0.8790
-2.2307 -31.1889 -1.5858 0.8823
-1.1174 -31.2859 -1.5877 0.8822
0.0000 -31.5689 -1.6010 0.8812
1.1550 -32.3384 -1.6411 0.8784
2.4219 -33.8629 -1.7217 0.8729
4.5982 -31.9810 -1.6386 0.8786
3.3379 -18.5009 -0.9534 0.9275
3.9971 -18.3746 -0.9536 0.9275
13.6186 -46.3805 -2.4515 0.8240
16.4709 -36.0663 -2.0108 0.8532
13.6615 -21.2577 -1.2815 0.9037
29.1948 -38.9997 -2.4706 0.8227
23.0487 -26.5996 -1.7850 0.8685
32.8456 -35.2786 -2.4445 0.8244
21.1778 -21.1778 -1.5189 0.8870
38.9305 -27.0299 -2.4036 0.8271
46.7720 -17.4450 -2.5316 0.8188
47.7423 -14.0184 -2.5234 0.8193
43.6949 -4.6977 -2.2287 0.8386
-34.2310 -0.0000 -2.5099 0.8717
-34.2212 -2.4476 -2.5156 0.8714
-34.1505 -3.6716 -2.5184 0.8713
-34.0357 -4.8936 -2.5212 0.8712
-33.8769 -6.1121 -2.5240 0.8710
-31.5143 -8.0436 -2.3848 0.8777
-30.8082 -10.2540 -2.3808 0.8779
-26.5598 -9.9063 -2.0785 0.8925
-23.9364 -10.9314 -1.9294 0.8998
-29.1537 -14.5934 -2.3905 0.8774
-27.6102 -17.7440 -2.4065 0.8767
-17.2410 -11.9707 -1.5390 0.9193
-16.3036 -12.2048 -1.4933 0.9216
-15.0822 -14.0420 -1.5111 0.9207
-15.3191 -17.6792 -1.7152 0.9104
-14.4858 -17.9758 -1.6927 0.9116
-17.1300 -28.8711 -2.4615 0.8740
-16.1057 -29.4954 -2.4641 0.8739
-15.0571 -30.0803 -2.4664 0.8738
-13.9857 -30.6244 -2.4685 0.8737
-12.8930 -31.1264 -2.4703 0.8736
-11.7810 -31.5861 -2.4718 0.8735
-10.6516 -32.0028 -2.4731 0.8735
-8.3470 -32.7034 -2.4748 0.8734
-7.1755 -32.9854 -2.4751 0.8734
-4.5816 -31.8661 -2.3605 0.8789
-3.3665 -31.3131 -2.3092 0.8813
-1.0413 -29.1557 -2.1391 0.8896
0.0000 -29.4872 -2.1621 0.8885
1.1549 -32.3365 -2.3725 0.8783
2.4015 -33.5778 -2.4683 0.8737
3.3130 -23.0424 -1.7069 0.9109
3.3384 -18.5035 -1.3786 0.9274
8.2805 -32.4425 -2.4550 0.8743
8.9660 -24.0386 -1.8812 0.9022
13.7996 -30.2170 -2.4357 0.8753
15.8597 -29.0449 -2.4264 0.8757
16.8521 -28.4027 -2.4215 0.8759
21.0592 -21.0592 -2.1837 0.8874
29.1275 -18.7191 -2.5387 0.8703
29.7462 -17.6492 -2.5361 0.8705
30.8638 -15.4493 -2.5307 0.8707
32.2325 -12.0221 -2.5224 0.8711
33.2209 -8.4791 -2.5139 0.8715
33.6646 -6.0738 -2.5082 0.8718
31.8704 -3.4264 -2.3503 0.8794
31.9609 -1.1415 -2.3449 0.8796
-26.1237 -0.0000 -2.5080 0.9003
-26.1297 -0.9332 -2.5102 0.9003
-25.9469 -3.7306 -2.5166 0.9000
-25.4633 -6.4991 -2.5230 0.8998
-25.2358 -7.4099 -2.5250 0.8997
-22.5399 -10.2936 -2.3789 0.9052
-22.1748 -11.0999 -2.3807 0.9052
-21.7805 -11.8931 -2.3825 0.9051
-20.9063 -13.4357 -2.3859 0.9050
-17.2398 -11.9698 -2.0149 0.9191
-16.3031 -12.2044 -1.9552 0.9214
-15.9910 -12.8864 -1.9717 0.9208
-15.1518 -13.1291 -1.9248 0.9226
-14.4153 -14.4153 -1.9572 0.9213
-17.0219 -18.2829 -2.3982 0.9045
-14.6851 -18.2231 -2.2469 0.9102
-15.0230 -20.0685 -2.4067 0.9042
-13.5800 -21.1309 -2.4115 0.9040
-12.8284 -21.6211 -2.4136 0.9039
-11.2703 -22.5152 -2.4173 0.9038
-8.7619 -19.1858 -2.0249 0.9187
-9.6467 -23.2892 -2.4201 0.9037
-5.6806 -15.2302 -1.5606 0.9368
-7.9675 -23.9384 -2.4222 0.9036
-6.2426 -24.4584 -2.4234 0.9035
-4.4826 -24.8456 -2.4238 0.9035
-2.6983 -25.0982 -2.4234 0.9035
-0.9005 -25.2139 -2.4222 0.9036
1.7674 -16.4396 -1.5874 0.9357
3.9902 -18.3427 -1.8022 0.9273
7.0624 -24.0522 -2.4066 0.9042
8.7443 -23.4444 -2.4022 0.9043
9.5716 -23.1079 -2.4013 0.9044
11.1857 -22.3462 -2.3991 0.9045
12.7386 -21.4698 -2.3967 0.9046
13.4895 -20.9901 -2.3954 0.9046
15.6285 -19.3938 -2.3912 0.9048
16.7705 -19.3542 -2.4586 0.9022
18.7161 -18.7161 -2.5411 0.8991
19.9756 -17.3089 -2.5375 0.8992
21.1283 -15.8164 -2.5338 0.8994
22.1686 -14.2469 -2.5299 0.8995
22.6451 -13.4360 -2.5279 0.8996
23.5079 -11.7672 -2.5238 0.8998
23.8932 -10.9117 -2.5218 0.8998
24.2472 -10.0435 -2.5196 0.8999
24.8598 -8.2741 -2.5154 0.9001
25.5358 -5.5550 -2.5089 0.9003
25.6955 -4.6360 -2.5067 0.9004
24.5343 -1.7547 -2.3614 0.9059
24.4214 -0.8722 -2.3461 0.9065
-21.1051 -0.7538 -2.5086 0.9184
-20.8405 -3.7600 -2.5155 0.9182
-20.7070 -4.5045 -2.5172 0.9182
-20.5467 -5.2442 -2.5189 0.9181
-20.3599 -5.9782 -2.5206 0.9181
-20.1467 -6.7055 -2.5222 0.9180
-19.9073 -7.4250 -2.5238 0.9180
-19.3510 -8.8373 -2.5270 0.9179
-18.6937 -10.2076 -2.5300 0.9178
-18.3001 -10.8579 -2.5276 0.9179
-15.0523 -13.0429 -2.3659 0.9229
-14.2038 -14.2038 -2.3861 0.9223
-12.6200 -15.6606 -2.3891 0.9222
-12.0576 -16.1071 -2.3900 0.9222
-10.8854 -16.9380 -2.3917 0.9221
-10.2771 -17.3212 -2.3924 0.9221
-9.0203 -18.0203 -2.3938 0.9220
-8.3734 -18.3352 -2.3943 0.9220
-7.7153 -18.6265 -2.3949 0.9220
-5.6807 -15.2304 -1.9309 0.9366
-6.3692 -19.1364 -2.3957 0.9220
-5.6829 -19.3543 -2.3961 0.9220
-4.9891 -19.5472 -2.3964 0.9220
-4.2887 -19.7147 -2.3966 0.9219
-2.8716 -19.9726 -2.3969 0.9219
-2.1570 -20.0628 -2.3969 0.9219
-1.4395 -20.1268 -2.3969 0.9219
0.0000 -20.1764 -2.3967 0.9219
0.7201 -20.1618 -2.3965 0.9219
1.7584 -16.3555 -1.9540 0.9359
2.6464 -18.4064 -2.2089 0.9278
3.1351 -17.3766 -2.0974 0.9313
5.6765 -19.3325 -2.3934 0.9220
6.3612 -19.1123 -2.3927 0.9221
7.0371 -18.8673 -2.3920 0.9221
8.3595 -18.3048 -2.3904 0.9221
9.6367 -17.6483 -2.3885 0.9222
13.4040 -16.6333 -2.5375 0.9175
15.6013 -14.5254 -2.5321 0.9177
16.1006 -13.9512 -2.5306 0.9178
16.5786 -13.3598 -2.5291 0.9178
17.0346 -12.7519 -2.5276 0.9179
17.4682 -12.1284 -2.5261 0.9179
17.8787 -11.4900 -2.5245 0.9180
18.2658 -10.8376 -2.5229 0.9180
18.9676 -9.4945 -2.5196 0.9181
19.2816 -8.8056 -2.5179 0.9182
20.0714 -6.6804 -2.5128 0.9183
20.4684 -5.2243 -2.5093 0.9184
20.8657 -3.0000 -2.5040 0.9186
20.2680 -0.7239 -2.4091 0.9216
-17.6869 -0.0000 -2.5060 0.9310
-17.6860 -0.6317 -2.5075 0.9310
-17.6625 -1.2633 -2.5090 0.9310
-17.6163 -1.8940 -2.5104 0.9309
-17.3426 -3.7727 -2.5147 0.9308
-17.0483 -5.0058 -2.5175 0.9307
-16.8680 -5.6142 -2.5189 0.9307
-16.6658 -6.2160 -2.5203 0.9307
-16.4420 -6.8105 -2.5216 0.9306
-16.1968 -7.3969 -2.5229 0.9306
-15.6436 -8.5421 -2.5254 0.9305
-15.3361 -9.0994 -2.5267 0.9305
-14.6616 -10.1798 -2.5290 0.9304
-14.2953 -10.7013 -2.5302 0.9304
-13.0587 -12.1581 -2.5281 0.9305
-12.4526 -12.4526 -2.4952 0.9313
-10.0806 -13.4662 -2.3834 0.9343
-9.0996 -14.1592 -2.3848 0.9343
-7.5394 -15.0617 -2.3865 0.9342
-6.4482 -15.5672 -2.3874 0.9342
-5.6808 -15.2309 -2.3033 0.9364
-5.3228 -15.9925 -2.3882 0.9342
-2.3997 -16.6900 -2.3891 0.9341
-1.8024 -16.7653 -2.3892 0.9341
-1.2029 -16.8189 -2.3891 0.9341
-0.6018 -16.8506 -2.3891 0.9341
0.6018 -16.8486 -2.3888 0.9342
1.7540 -16.3150 -2.3250 0.9359
6.2456 -16.7452 -2.5323 0.9303
7.4414 -16.2944 -2.5381 0.9302
8.0158 -16.0134 -2.5373 0.9302
9.1316 -15.3904 -2.5356 0.9303
9.6716 -15.0492 -2.5347 0.9303
10.7122 -14.3098 -2.5327 0.9303
11.6960 -13.4979 -2.5306 0.9304
13.0540 -12.1537 -2.5272 0.9305
13.8743 -11.1806 -2.5247 0.9305
14.6217 -10.1520 -2.5221 0.9306
14.9669 -9.6186 -2.5208 0.9306
15.8835 -7.9507 -2.5167 0.9308
16.1481 -7.3746 -2.5153 0.9308
16.3918 -6.7897 -2.5139 0.9308
16.6143 -6.1968 -2.5125 0.9309
16.9944 -4.9900 -2.5096 0.9309
17.4905 -2.5148 -2.5037 0.9311
17.5588 -1.8878 -2.5022 0.9311
17.6279 -0.6296 -2.4993 0.9312
-15.2087 -0.0000 -2.5055 0.9402
-15.1852 -1.0861 -2.5080 0.9401
-14.7873 -3.7742 -2.5141 0.9400
-14.3193 -5.3408 -2.5177 0.9399
-13.6846 -6.8500 -2.5210 0.9398
-13.4371 -7.3372 -2.5221 0.9398
-12.5911 -8.7422 -2.5252 0.9398
-10.8583 -10.8583 -2.5297 0.9396
-10.4671 -11.2425 -2.5305 0.9396
-8.7704 -12.6318 -2.5334 0.9396
-8.3160 -12.9399 -2.5340 0.9395
-6.3348 -13.8712 -2.5121 0.9401
-5.7985 -13.9989 -2.4962 0.9404
-4.7423 -14.2482 -2.4738 0.9409
-4.2195 -14.3702 -2.4673 0.9411
-3.6986 -14.4911 -2.4638 0.9412
-2.1345 -14.8461 -2.4709 0.9410
0.0000 -15.3196 -2.5237 0.9398
1.6455 -15.3053 -2.5359 0.9395
3.8066 -14.9143 -2.5357 0.9395
4.3358 -14.7662 -2.5353 0.9395
4.8591 -14.5991 -2.5348 0.9395
6.8806 -13.7457 -2.5323 0.9396
7.3648 -13.4875 -2.5316 0.9396
7.8391 -13.2122 -2.5308 0.9396
8.3031 -12.9199 -2.5301 0.9396
10.0434 -11.5907 -2.5266 0.9397
10.4467 -11.2206 -2.5256 0.9397
10.8364 -10.8363 -2.5246 0.9398
11.2117 -10.4385 -2.5236 0.9398
11.9179 -9.6040 -2.5215 0.9398
12.8592 -8.2641 -2.5182 0.9399
13.4036 -7.3189 -2.5158 0.9400
13.6498 -6.8326 -2.5146 0.9400
13.8783 -6.3380 -2.5134 0.9400
14.6103 -4.2900 -2.5085 0.9401
8.2985 -2.1181 -1.4109 0.9659
15.1017 -1.6236 -2.5022 0.9403
15.1637 -0.5416 -2.4997 0.9403
-13.2149 -1.9000 -2.5094 0.9471
-13.1443 -2.3715 -2.5105 0.9471
-13.0568 -2.8404 -2.5116 0.9471
-12.8317 -3.7677 -2.5137 0.9470
-12.6942 -4.2251 -2.5147 0.9470
-12.5404 -4.6774 -2.5157 0.9470
-12.3704 -5.1240 -2.5167 0.9470
-11.7653 -6.4243 -2.5196 0.9469
-11.5327 -6.8427 -2.5205 0.9469
-10.7463 -8.0446 -2.5231 0.9468
-10.4557 -8.4257 -2.5240 0.9468
-10.1515 -8.7963 -2.5248 0.9468
-9.8340 -9.1558 -2.5255 0.9468
-9.5037 -9.5037 -2.5262 0.9468
-9.1610 -9.8396 -2.5269 0.9468
-8.8063 -10.1630 -2.5276 0.9467
-8.0628 -10.7706 -2.5289 0.9467
-7.6750 -11.0541 -2.5294 0.9467
-4.2552 -12.7849 -2.5327 0.9466
-3.3329 -13.0580 -2.5331 0.9466
-2.8648 -13.1695 -2.5332 0.9466
-2.3931 -13.2639 -2.5333 0.9466
-1.4408 -13.4013 -2.5334 0.9466
-0.9615 -13.4441 -2.5334 0.9466
-0.4811 -13.4696 -2.5334 0.9466
0.0000 -13.4777 -2.5333 0.9466
2.3920 -13.2580 -2.5322 0.9466
3.3308 -13.0499 -2.5315 0.9467
3.7939 -12.9207 -2.5311 0.9467
5.5896 -12.2395 -2.5291 0.9467
6.4454 -11.8039 -2.5279 0.9467
7.6640 -11.0383 -2.5258 0.9468
8.4268 -10.4571 -2.5243 0.9468
9.1454 -9.8229 -2.5227 0.9468
9.4869 -9.4869 -2.5218 0.9469
10.1324 -8.7797 -2.5200 0.9469
10.7248 -8.0285 -2.5181 0.9469
11.0003 -7.6376 -2.5171 0.9470
11.2615 -7.2373 -2.5161 0.9470
11.7396 -6.4103 -2.5141 0.9470
11.9559 -5.9847 -2.5131 0.9470
12.1568 -5.5518 -2.5120 0.9471
12.5112 -4.6664 -2.5099 0.9471
12.8011 -3.7587 -2.5077 0.9471
8.2822 -2.1139 -1.6066 0.9658
13.1825 -1.8953 -2.5033 0.9472
13.2358 -1.4230 -2.5022 0.9473
-11.8492 -0.0000 -2.5047 0.9527
-11.8463 -0.4231 -2.5057 0.9527
-11.8283 -0.8460 -2.5066 0.9527
-11.7951 -1.2681 -2.5076 0.9527
-11.7469 -1.6890 -2.5086 0.9526
-11.6836 -2.1079 -2.5095 0.9526
-11.2814 -3.7548 -2.5133 0.9526
-10.9927 -4.5533 -2.5151 0.9525
-10.8269 -4.9445 -2.5159 0.9525
-10.6471 -5.3296 -2.5168 0.9525
-10.4536 -5.7081 -2.5176 0.9525
-10.2465 -6.0795 -2.5185 0.9525
-10.0262 -6.4434 -2.5192 0.9524
-9.7928 -6.7993 -2.5200 0.9524
-9.5467 -7.1466 -2.5208 0.9524
-9.2882 -7.4849 -2.5215 0.9524
-8.7354 -8.1329 -2.5229 0.9524
-8.4417 -8.4417 -2.5235 0.9524
-7.8217 -9.0268 -2.5247 0.9523
-7.4962 -9.3023 -2.5253 0.9523
-7.1610 -9.5659 -2.5258 0.9523
-6.8163 -9.8174 -2.5264 0.9523
-5.3534 -10.6947 -2.5281 0.9523
-4.9689 -10.8805 -2.5284 0.9523
-4.5780 -11.0522 -2.5287 0.9523
-2.9595 -11.5953 -2.5296 0.9523
-2.5439 -11.6942 -2.5297 0.9522
-2.1250 -11.7780 -2.5298 0.9522
-1.2794 -11.9000 -2.5299 0.9522
-0.8538 -11.9380 -2.5299 0.9522
-0.4272 -11.9606 -2.5299 0.9522
0.0000 -11.9679 -2.5298 0.9522
0.8537 -11.9361 -2.5295 0.9523
1.7027 -11.8428 -2.5291 0.9523
2.1241 -11.7733 -2.5288 0.9523
2.5427 -11.6886 -2.5285 0.9523
2.9579 -11.5889 -2.5282 0.9523
3.3692 -11.4743 -2.5278 0.9523
4.1778 -11.2011 -2.5270 0.9523
6.0939 -10.2707 -2.5244 0.9523
6.8077 -9.8050 -2.5232 0.9524
7.1514 -9.5532 -2.5225 0.9524
7.4858 -9.2893 -2.5218 0.9524
7.8104 -9.0137 -2.5211 0.9524
8.1247 -8.7266 -2.5203 0.9524
9.0026 -7.8008 -2.5180 0.9525
9.5298 -7.1339 -2.5163 0.9525
10.2270 -6.0680 -2.5137 0.9525
10.6261 -5.3190 -2.5118 0.9526
10.8051 -4.9345 -2.5109 0.9526
10.9702 -4.5440 -2.5099 0.9526
11.1212 -4.1480 -2.5090 0.9526
11.2578 -3.7470 -2.5080 0.9526
11.3800 -3.3415 -2.5070 0.9527
8.1519 -1.7733 -1.7634 0.9665
11.6582 -2.1034 -2.5041 0.9527
11.7693 -1.2653 -2.5021 0.9528
11.8202 -0.4222 -2.5002 0.9528
-10.6560 -0.0000 -2.5044 0.9572
-10.6530 -0.3805 -2.5053 0.9571
-10.6363 -0.7607 -2.5062 0.9571
-10.2526 -3.0104 -2.5113 0.9570
-10.1419 -3.3756 -2.5121 0.9570
-10.0182 -3.7366 -2.5129 0.9570
-9.8816 -4.0931 -2.5137 0.9570
-9.5703 -4.7906 -2.5153 0.9570
-9.3960 -5.1306 -2.5160 0.9570
-9.0113 -5.7912 -2.5175 0.9569
-8.5798 -6.4228 -2.5189 0.9569
-8.1039 -7.0221 -2.5201 0.9569
-7.5859 -7.5859 -2.5213 0.9569
-7.3119 -7.8535 -2.5219 0.9569
-7.0284 -8.1112 -2.5224 0.9569
-6.7358 -8.3586 -2.5229 0.9568
-6.4344 -8.5953 -2.5234 0.9568
-4.8098 -9.6087 -2.5254 0.9568
-3.7563 -10.0711 -2.5262 0.9568
-3.3948 -10.1997 -2.5264 0.9568
-2.6588 -10.4173 -2.5268 0.9568
-2.2854 -10.5060 -2.5269 0.9568
-1.5302 -10.6429 -2.5270 0.9568
-0.7671 -10.7250 -2.5271 0.9568
-0.3838 -10.7453 -2.5270 0.9568
0.0000 -10.7519 -2.5269 0.9568
1.1491 -10.6885 -2.5265 0.9568
1.5298 -10.6398 -2.5263 0.9568
2.2845 -10.5015 -2.5258 0.9568
3.0271 -10.3093 -2.5252 0.9568
5.1441 -9.4207 -2.5226 0.9569
6.1176 -8.8111 -2.5210 0.9569
6.4267 -8.5850 -2.5204 0.9569
7.3020 -7.8429 -2.5185 0.9569
7.8385 -7.2979 -2.5171 0.9569
8.5661 -6.4125 -2.5148 0.9570
8.9962 -5.7815 -2.5133 0.9570
9.5533 -4.7820 -2.5108 0.9571
10.1228 -3.3692 -2.5074 0.9571
7.8250 -1.7022 -1.8821 0.9676
10.4845 -1.8916 -2.5039 0.9572
10.5416 -1.5156 -2.5030 0.9572
10.5852 -1.1380 -2.5021 0.9572
-9.6717 -0.0000 -2.5042 0.9608
-9.6686 -0.3453 -2.5050 0.9608
-9.6532 -0.6904 -2.5058 0.9608
-9.6255 -1.0349 -2.5066 0.9608
-9.5331 -1.7200 -2.5081 0.9608
-9.3919 -2.3971 -2.5097 0.9607
-9.3032 -2.7317 -2.5104 0.9607
-9.0899 -3.3904 -2.5119 0.9607
-8.9657 -3.7137 -2.5127 0.9607
-8.8300 -4.0325 -2.5134 0.9607
-8.3551 -4.9573 -2.5154 0.9607
-8.1749 -5.2537 -2.5160 0.9606
-7.9842 -5.5435 -2.5167 0.9606
-7.5720 -6.1019 -2.5179 0.9606
-7.3511 -6.3697 -2.5185 0.9606
-6.6322 -7.1235 -2.5200 0.9606
-6.3750 -7.3571 -2.5205 0.9606
-5.8359 -7.7959 -2.5214 0.9606
-5.5549 -8.0006 -2.5218 0.9606
-4.9714 -8.3789 -2.5226 0.9605
-4.6698 -8.5522 -2.5229 0.9605
-4.3621 -8.7144 -2.5232 0.9605
-3.7301 -9.0053 -2.5237 0.9605
-3.0787 -9.2500 -2.5242 0.9605
-2.7468 -9.3546 -2.5243 0.9605
-2.0726 -9.5277 -2.5246 0.9605
-1.7313 -9.5959 -2.5247 0.9605
-1.3877 -9.6517 -2.5247 0.9605
-1.0423 -9.6952 -2.5247 0.9605
-0.6956 -9.7262 -2.5247 0.9605
-0.3480 -9.7447 -2.5247 0.9605
0.3480 -9.7440 -2.5245 0.9605
2.7454 -9.3498 -2.5230 0.9605
3.4045 -9.1277 -2.5224 0.9605
4.0457 -8.8589 -2.5216 0.9606
4.6658 -8.5447 -2.5207 0.9606
4.9668 -8.3712 -2.5202 0.9606
5.8296 -7.7875 -2.5187 0.9606
6.1025 -7.5727 -2.5181 0.9606
6.3674 -7.3484 -2.5175 0.9606
7.1112 -6.6207 -2.5157 0.9606
7.7719 -5.8180 -2.5137 0.9607
8.1625 -5.2457 -2.5122 0.9607
8.8155 -4.0259 -2.5092 0.9607
8.9508 -3.7075 -2.5085 0.9608
9.1867 -3.0576 -2.5069 0.9608
7.7937 -1.6954 -2.0651 0.9676
9.5162 -1.7169 -2.5037 0.9608
9.6083 -1.0330 -2.5021 0.9609
9.6359 -0.6892 -2.5013 0.9609
-8.8451 -0.0000 -2.5040 0.9639
-8.8420 -0.3158 -2.5047 0.9639
-8.8277 -0.6314 -2.5054 0.9639
-8.6579 -1.8834 -2.5083 0.9638
-8.5876 -2.1919 -2.5090 0.9638
-8.4139 -2.8004 -2.5104 0.9638
-8.3109 -3.0998 -2.5111 0.9638
-8.1971 -3.3954 -2.5117 0.9638
-7.9380 -3.9735 -2.5130 0.9638
-7.6381 -4.5319 -2.5142 0.9638
-7.1148 -5.3260 -2.5160 0.9637
-6.5087 -6.0598 -2.5175 0.9637
-6.2895 -6.2895 -2.5180 0.9637
-6.0621 -6.5112 -2.5185 0.9637
-5.8269 -6.7246 -2.5189 0.9637
-5.5841 -6.9294 -2.5193 0.9637
-5.0771 -7.3124 -2.5201 0.9637
-4.8135 -7.4900 -2.5205 0.9637
-4.5437 -7.6580 -2.5208 0.9637
-4.2680 -7.8162 -2.5211 0.9637
-3.9867 -7.9645 -2.5214 0.9637
-3.4090 -8.2302 -2.5219 0.9636
-3.1134 -8.3473 -2.5221 0.9636
-2.2036 -8.6338 -2.5225 0.9636
-1.8942 -8.7073 -2.5226 0.9636
-1.5822 -8.7696 -2.5227 0.9636
-1.2682 -8.8206 -2.5227 0.9636
-0.9526 -8.8604 -2.5228 0.9636
0.0000 -8.9111 -2.5227 0.9636
0.3181 -8.9051 -2.5226 0.9636
0.6357 -8.8876 -2.5225 0.9636
0.9524 -8.8588 -2.5223 0.9636
1.2679 -8.8186 -2.5221 0.9636
1.5817 -8.7670 -2.5220 0.9636
1.8935 -8.7042 -2.5217 0.9636
2.8122 -8.4492 -2.5209 0.9637
4.2646 -7.8100 -2.5191 0.9637
4.5399 -7.6515 -2.5187 0.9637
4.8092 -7.4833 -2.5182 0.9637
5.0723 -7.3055 -2.5177 0.9637
6.2821 -6.2821 -2.5151 0.9637
6.5008 -6.0525 -2.5145 0.9637
6.9127 -5.5706 -2.5133 0.9638
7.1054 -5.3190 -2.5126 0.9638
7.4628 -4.7961 -2.5113 0.9638
7.6272 -4.5255 -2.5107 0.9638
8.1846 -3.3902 -2.5079 0.9638
8.4008 -2.7961 -2.5065 0.9639
8.4928 -2.4937 -2.5057 0.9639
8.5739 -2.1884 -2.5050 0.9639
8.3103 -1.8078 -2.4076 0.9653
8.7030 -1.5702 -2.5035 0.9639
8.7510 -1.2582 -2.5028 0.9639
8.8275 -0.3153 -2.5006 0.9639
-8.1003 -0.8709 -2.5058 0.9665
-8.0218 -1.4473 -2.5072 0.9665
-7.9671 -1.7331 -2.5078 0.9665
-7.5422 -3.1241 -2.5109 0.9664
-7.4276 -3.3921 -2.5115 0.9664
-7.3035 -3.6559 -2.5121 0.9664
-7.1700 -3.9151 -2.5127 0.9664
-6.8755 -4.4186 -2.5138 0.9664
-6.7148 -4.6622 -2.5143 0.9664
-6.5454 -4.8999 -2.5148 0.9664
-5.7858 -5.7858 -2.5167 0.9663
-5.1367 -6.3743 -2.5179 0.9663
-4.4277 -6.8896 -2.5190 0.9663
-4.1795 -7.0441 -2.5193 0.9663
-3.6671 -7.3259 -2.5198 0.9663
-3.4036 -7.4528 -2.5201 0.9663
-3.1357 -7.5702 -2.5203 0.9663
-2.8637 -7.6778 -2.5205 0.9663
-2.3089 -7.8635 -2.5208 0.9663
-1.7422 -8.0089 -2.5210 0.9663
-1.1665 -8.1131 -2.5211 0.9663
-0.8762 -8.1496 -2.5211 0.9663
-0.2925 -8.1912 -2.5210 0.9663
0.5847 -8.1748 -2.5208 0.9663
1.4549 -8.0640 -2.5203 0.9663
2.0261 -7.9383 -2.5199 0.9663
2.3079 -7.8601 -2.5197 0.9663
2.5867 -7.7719 -2.5194 0.9663
3.1338 -7.5658 -2.5188 0.9663
3.6646 -7.3209 -2.5181 0.9663
3.9230 -7.1844 -2.5177 0.9663
4.1762 -7.0387 -2.5173 0.9663
4.4241 -6.8840 -2.5169 0.9663
4.6661 -6.7205 -2.5165 0.9663
5.5708 -5.9835 -2.5145 0.9664
5.7796 -5.7796 -2.5140 0.9664
6.1745 -5.3502 -2.5129 0.9664
6.7064 -4.6564 -2.5112 0.9664
7.0181 -4.1640 -2.5100 0.9664
7.1605 -3.9099 -2.5094 0.9664
7.4174 -3.3874 -2.5081 0.9665
7.6362 -2.8481 -2.5068 0.9665
7.8157 -2.2949 -2.5054 0.9665
7.9553 -1.7306 -2.5041 0.9665
8.0881 -0.8696 -2.5021 0.9665
8.1251 -0.2902 -2.5007 0.9665
-7.5291 -0.2689 -2.5043 0.9687
-7.5165 -0.5376 -2.5049 0.9687
-7.4944 -0.8057 -2.5055 0.9687
-7.4215 -1.3390 -2.5068 0.9687
-7.1621 -2.3838 -2.5091 0.9687
-6.6324 -3.6216 -2.5119 0.9686
-6.3597 -4.0871 -2.5129 0.9686
-6.0542 -4.5321 -2.5139 0.9686
-5.8897 -4.7462 -2.5143 0.9686
-5.7176 -4.9543 -2.5148 0.9686
-5.3513 -5.3513 -2.5156 0.9686
-5.1577 -5.5398 -2.5160 0.9686
-4.9574 -5.7212 -2.5164 0.9686
-4.7508 -5.8953 -2.5167 0.9686
-4.5379 -6.0620 -2.5171 0.9686
-4.3192 -6.2209 -2.5174 0.9686
-3.8653 -6.5146 -2.5180 0.9686
-3.3914 -6.7751 -2.5185 0.9686
-3.1477 -6.8924 -2.5187 0.9686
-2.6483 -7.1005 -2.5191 0.9686
-2.3934 -7.1909 -2.5192 0.9686
-1.8744 -7.3440 -2.5194 0.9686
-1.6112 -7.4065 -2.5195 0.9686
-1.3458 -7.4594 -2.5196 0.9686
-1.0787 -7.5028 -2.5196 0.9686
-0.2705 -7.5751 -2.5196 0.9686
0.5407 -7.5600 -2.5194 0.9686
1.3455 -7.4576 -2.5190 0.9686
1.6107 -7.4043 -2.5188 0.9686
2.1344 -7.2692 -2.5183 0.9686
2.3923 -7.1877 -2.5181 0.9686
2.8983 -6.9972 -2.5175 0.9686
3.1458 -6.8884 -2.5172 0.9686
4.0918 -6.3670 -2.5158 0.9686
4.3157 -6.2159 -2.5154 0.9686
5.1528 -5.5345 -2.5136 0.9686
5.3460 -5.3460 -2.5131 0.9686
5.8832 -4.7410 -2.5116 0.9687
6.2038 -4.3074 -2.5105 0.9687
6.4924 -3.8521 -2.5094 0.9687
7.1526 -2.3806 -2.5058 0.9687
7.2312 -2.1233 -2.5052 0.9687
7.3006 -1.8634 -2.5046 0.9687
7.4112 -1.3371 -2.5033 0.9688
7.4524 -1.0715 -2.5027 0.9688
7.5185 -0.2685 -2.5008 0.9688
-6.9862 -0.4997 -2.5047 0.9707
-6.9360 -0.9972 -2.5059 0.9707
-6.8975 -1.2444 -2.5064 0.9707
-6.8502 -1.4902 -2.5070 0.9707
-6.7294 -1.9759 -2.5081 0.9706
-6.6560 -2.2154 -2.5086 0.9706
-6.3851 -2.9160 -2.5102 0.9706
-6.2782 -3.1426 -2.5107 0.9706
-6.1632 -3.3654 -2.5112 0.9706
-5.9097 -3.7979 -2.5121 0.9706
-5.7714 -4.0072 -2.5126 0.9706
-5.6257 -4.2113 -2.5130 0.9706
-5.3127 -4.6035 -2.5139 0.9706
-4.7923 -5.1473 -2.5150 0.9706
-4.6062 -5.3158 -2.5154 0.9706
-4.0131 -5.7799 -2.5163 0.9706
-3.8046 -5.9201 -2.5166 0.9705
-3.3733 -6.1777 -2.5171 0.9705
-3.1509 -6.2947 -2.5173 0.9705
-2.6942 -6.5045 -2.5177 0.9705
-1.9838 -6.7563 -2.5181 0.9705
-1.0022 -6.9706 -2.5184 0.9705
-0.7528 -7.0020 -2.5184 0.9705
-0.5024 -7.0244 -2.5184 0.9705
0.2513 -7.0374 -2.5182 0.9705
1.2501 -6.9287 -2.5178 0.9705
1.4965 -6.8792 -2.5176 0.9705
1.9831 -6.7538 -2.5172 0.9705
2.2227 -6.6781 -2.5169 0.9705
2.6929 -6.5012 -2.5164 0.9705
3.1491 -6.2910 -2.5158 0.9706
3.3712 -6.1738 -2.5155 0.9706
3.8019 -5.9159 -2.5148 0.9706
4.0101 -5.7756 -2.5144 0.9706
4.2130 -5.6279 -2.5140 0.9706
4.4105 -5.4731 -2.5136 0.9706
4.7881 -5.1428 -2.5128 0.9706
5.1409 -4.7863 -2.5119 0.9706
5.3074 -4.5989 -2.5114 0.9706
5.4671 -4.4057 -2.5109 0.9706
5.6198 -4.2069 -2.5104 0.9706
5.7652 -4.0029 -2.5099 0.9706
6.0336 -3.5799 -2.5088 0.9706
6.4760 -2.6824 -2.5067 0.9707
6.6478 -2.2126 -2.5055 0.9707
6.7210 -1.9735 -2.5049 0.9707
6.8415 -1.4883 -2.5038 0.9707
6.8887 -1.2429 -2.5032 0.9707
6.9270 -0.9960 -2.5026 0.9707
6.9772 -0.4990 -2.5015 0.9707
6.9889 -0.2496 -2.5009 0.9707
-6.5327 -0.0000 -2.5034 0.9724
-6.4995 -0.6988 -2.5051 0.9724
-6.4358 -1.1611 -2.5061 0.9724
-6.3916 -1.3904 -2.5066 0.9724
-6.3392 -1.6180 -2.5072 0.9724
-6.2101 -2.0669 -2.5082 0.9724
-6.1336 -2.2877 -2.5087 0.9723
-5.9570 -2.7205 -2.5096 0.9723
-5.8572 -2.9319 -2.5101 0.9723
-5.2482 -3.9287 -2.5123 0.9723
-5.1054 -4.1142 -2.5127 0.9723
-4.9561 -4.2945 -2.5131 0.9723
-3.7434 -5.3916 -2.5153 0.9723
-3.5490 -5.5223 -2.5156 0.9723
-3.1466 -5.7625 -2.5161 0.9723
-2.9391 -5.8716 -2.5163 0.9723
-2.5131 -6.0672 -2.5166 0.9723
-1.8504 -6.3020 -2.5170 0.9723
-1.3962 -6.4184 -2.5172 0.9723
-1.1663 -6.4643 -2.5172 0.9723
-0.7022 -6.5312 -2.5173 0.9723
-0.4686 -6.5521 -2.5173 0.9723
-0.2345 -6.5645 -2.5173 0.9723
0.9347 -6.5008 -2.5168 0.9723
1.1660 -6.4629 -2.5167 0.9723
1.3959 -6.4168 -2.5165 0.9723
1.6239 -6.3624 -2.5163 0.9723
2.0733 -6.2293 -2.5159 0.9723
2.2941 -6.1508 -2.5157 0.9723
2.7265 -5.9702 -2.5152 0.9723
2.9375 -5.8684 -2.5149 0.9723
3.3478 -5.6425 -2.5143 0.9723
3.5466 -5.5187 -2.5139 0.9723
3.9302 -5.2501 -2.5132 0.9723
4.2934 -4.9548 -2.5125 0.9723
4.4668 -4.7977 -2.5120 0.9723
4.6344 -4.6344 -2.5116 0.9723
5.1006 -4.1103 -2.5103 0.9723
5.2430 -3.9249 -2.5098 0.9723
5.9504 -2.7175 -2.5069 0.9724
6.0424 -2.5028 -2.5063 0.9724
6.1266 -2.2851 -2.5058 0.9724
6.2029 -2.0645 -2.5053 0.9724
6.2713 -1.8414 -2.5047 0.9724
6.3317 -1.6161 -2.5042 0.9724
6.3840 -1.3887 -2.5037 0.9724
6.4281 -1.1597 -2.5031 0.9724
6.4640 -0.9294 -2.5026 0.9724
6.4916 -0.6979 -2.5020 0.9724
6.5220 -0.2329 -2.5009 0.9724
-6.1165 0.0000 -2.5033 0.9739
-6.1034 -0.4365 -2.5044 0.9739
-6.0852 -0.6542 -2.5049 0.9739
-6.0254 -1.0871 -2.5059 0.9739
-5.9839 -1.3017 -2.5063 0.9739
-5.9348 -1.5148 -2.5068 0.9739
-5.8781 -1.7260 -2.5073 0.9739
-5.6630 -2.3457 -2.5087 0.9739
-5.4832 -2.7447 -2.5096 0.9738
-5.3827 -2.9392 -2.5100 0.9738
-5.2752 -3.1299 -2.5104 0.9738
-5.0401 -3.4994 -2.5112 0.9738
-4.7790 -3.8512 -2.5120 0.9738
-4.3418 -4.3418 -2.5130 0.9738
-4.0220 -4.6416 -2.5137 0.9738
-3.8542 -4.7828 -2.5139 0.9738
-3.6814 -4.9178 -2.5142 0.9738
-3.5039 -5.0466 -2.5145 0.9738
-3.1356 -5.2847 -2.5149 0.9738
-2.9452 -5.3937 -2.5152 0.9738
-2.7510 -5.4958 -2.5154 0.9738
-2.5533 -5.5909 -2.5155 0.9738
-2.3522 -5.6788 -2.5157 0.9738
-2.1482 -5.7594 -2.5158 0.9738
-1.9413 -5.8327 -2.5159 0.9738
-1.7320 -5.8986 -2.5161 0.9738
-1.5204 -5.9568 -2.5161 0.9738
-1.0916 -6.0504 -2.5163 0.9738
-0.6572 -6.1130 -2.5163 0.9738
-0.4386 -6.1325 -2.5163 0.9738
0.0000 -6.1480 -2.5162 0.9738
0.2194 -6.1439 -2.5162 0.9738
0.4386 -6.1320 -2.5161 0.9738
1.0914 -6.0492 -2.5157 0.9738
1.5200 -5.9551 -2.5154 0.9738
2.1473 -5.7572 -2.5148 0.9738
2.5520 -5.5882 -2.5143 0.9738
2.9436 -5.3907 -2.5138 0.9738
3.3085 -5.1482 -2.5046 0.9739
3.5016 -5.0433 -2.5128 0.9738
3.6789 -4.9145 -2.5125 0.9738
4.7748 -3.8478 -2.5098 0.9738
4.9082 -3.6743 -2.5093 0.9738
5.0354 -3.4961 -2.5089 0.9739
5.2700 -3.1269 -2.5080 0.9739
5.8075 -1.9329 -2.5051 0.9739
5.9282 -1.5131 -2.5041 0.9739
6.0186 -1.0859 -2.5030 0.9739
6.0783 -0.6535 -2.5020 0.9739
6.0965 -0.4360 -2.5015 0.9739
-5.7438 -0.0000 -2.5033 0.9752
-5.7413 -0.2051 -2.5037 0.9752
-5.7142 -0.6143 -2.5047 0.9752
-5.6897 -0.8180 -2.5051 0.9752
-5.6579 -1.0208 -2.5056 0.9752
-5.5727 -1.4223 -2.5065 0.9752
-5.3173 -2.2025 -2.5083 0.9752
-5.2361 -2.3913 -2.5087 0.9752
-4.6124 -3.4528 -2.5110 0.9752
-4.3556 -3.7741 -2.5117 0.9752
-4.2186 -3.9277 -2.5120 0.9752
-4.0763 -4.0763 -2.5124 0.9752
-3.9286 -4.2197 -2.5127 0.9752
-3.7760 -4.3577 -2.5129 0.9752
-3.6184 -4.4902 -2.5132 0.9752
-3.2895 -4.7378 -2.5137 0.9751
-2.7649 -5.0636 -2.5143 0.9751
-2.3970 -5.2486 -2.5147 0.9751
-2.2082 -5.3312 -2.5148 0.9751
-2.0167 -5.4069 -2.5150 0.9751
-1.8225 -5.4756 -2.5151 0.9751
-1.6259 -5.5374 -2.5152 0.9751
-1.0248 -5.6799 -2.5154 0.9751
-0.8214 -5.7130 -2.5154 0.9751
-0.4117 -5.7570 -2.5154 0.9751
0.8213 -5.7121 -2.5150 0.9751
1.0246 -5.6789 -2.5149 0.9751
1.2265 -5.6384 -2.5148 0.9751
1.6254 -5.5357 -2.5144 0.9751
2.0159 -5.4048 -2.5140 0.9751
2.2073 -5.3290 -2.5138 0.9751
2.3959 -5.2463 -2.5136 0.9751
2.9352 -4.9470 -2.5069 0.9752
3.2875 -4.7349 -2.5122 0.9752
3.4540 -4.6140 -2.5119 0.9752
3.7733 -4.3546 -2.5112 0.9752
4.2153 -3.9246 -2.5101 0.9752
4.3520 -3.7711 -2.5097 0.9752
4.8412 -3.1113 -2.5080 0.9752
4.9483 -2.9360 -2.5076 0.9752
5.1434 -2.5746 -2.5067 0.9752
5.2310 -2.3889 -2.5063 0.9752
5.3120 -2.2003 -2.5058 0.9752
5.4534 -1.8151 -2.5049 0.9752
5.5669 -1.4209 -2.5039 0.9752
5.6519 -1.0197 -2.5030 0.9753
5.6836 -0.8172 -2.5025 0.9753
5.7081 -0.6137 -2.5020 0.9753
5.7253 -0.4095 -2.5015 0.9753
5.7351 -0.2048 -2.5011 0.9753
-5.3565 -0.7702 -2.5050 0.9764
-5.3266 -0.9610 -2.5054 0.9764
-5.2898 -1.1507 -2.5058 0.9764
-5.2462 -1.3390 -2.5063 0.9764
-4.9292 -2.2511 -2.5083 0.9764
-4.7575 -2.5978 -2.5091 0.9764
-4.6624 -2.7663 -2.5094 0.9764
-4.5614 -2.9314 -2.5098 0.9764
-4.4544 -3.0928 -2.5102 0.9764
-4.3418 -3.2502 -2.5105 0.9764
-4.2236 -3.4036 -2.5108 0.9764
-4.0999 -3.5526 -2.5111 0.9764
-3.8370 -3.8370 -2.5117 0.9764
-3.6980 -3.9719 -2.5120 0.9764
-3.4059 -4.2265 -2.5125 0.9764
-2.9354 -4.5676 -2.5132 0.9764
-2.7707 -4.6698 -2.5134 0.9764
-2.6025 -4.7661 -2.5136 0.9763
-2.2561 -4.9402 -2.5139 0.9763
-2.0785 -5.0179 -2.5141 0.9763
-1.8981 -5.0891 -2.5142 0.9763
-0.9645 -5.3461 -2.5146 0.9763
-0.7731 -5.3772 -2.5146 0.9763
-0.5807 -5.4014 -2.5146 0.9763
-0.1939 -5.4290 -2.5146 0.9763
0.1939 -5.4288 -2.5145 0.9763
0.3875 -5.4183 -2.5144 0.9763
0.9644 -5.3451 -2.5141 0.9763
1.8975 -5.0873 -2.5133 0.9764
2.0777 -5.0160 -2.5131 0.9764
2.4298 -4.8541 -2.5127 0.9764
2.6012 -4.7638 -2.5124 0.9764
2.7693 -4.6674 -2.5121 0.9764
2.9338 -4.5651 -2.5119 0.9764
3.0945 -4.4570 -2.5116 0.9764
3.2512 -4.3431 -2.5113 0.9764
3.4038 -4.2238 -2.5110 0.9764
3.8342 -3.8342 -2.5100 0.9764
3.9681 -3.6944 -2.5096 0.9764
4.0968 -3.5499 -2.5092 0.9764
4.2203 -3.4009 -2.5089 0.9764
4.3383 -3.2476 -2.5085 0.9764
4.7533 -2.5955 -2.5069 0.9764
4.9246 -2.2490 -2.5060 0.9764
5.1342 -1.7088 -2.5047 0.9764
5.1910 -1.5242 -2.5043 0.9764
5.2411 -1.3377 -2.5038 0.9764
5.2846 -1.1496 -2.5034 0.9764
5.3213 -0.9601 -2.5029 0.9764
5.3743 -0.5778 -2.5020 0.9765
5.3905 -0.3855 -2.5016 0.9765
5.3999 -0.1929 -2.5011 0.9765
-5.1006 -0.1822 -2.5035 0.9775
-5.0917 -0.3642 -2.5040 0.9775
-5.0763 -0.5458 -2.5044 0.9775
-4.9913 -1.0858 -2.5056 0.9775
-4.9502 -1.2635 -2.5060 0.9775
-4.7890 -1.7862 -2.5072 0.9775
-4.7229 -1.9563 -2.5076 0.9775
-4.6508 -2.1239 -2.5079 0.9775
-4.5727 -2.2889 -2.5083 0.9775
-4.4887 -2.4510 -2.5087 0.9775
-4.3990 -2.6100 -2.5090 0.9775
-4.3036 -2.7658 -2.5094 0.9775
-4.2027 -2.9180 -2.5097 0.9775
-3.9848 -3.2112 -2.5103 0.9775
-3.8681 -3.3517 -2.5106 0.9775
-3.7464 -3.4881 -2.5109 0.9775
-3.6200 -3.6200 -2.5112 0.9774
-3.4888 -3.7473 -2.5115 0.9774
-3.3532 -3.8698 -2.5117 0.9774
-2.7693 -4.3091 -2.5126 0.9774
-2.4552 -4.4964 -2.5130 0.9774
-2.1284 -4.6606 -2.5133 0.9774
-1.7907 -4.8011 -2.5135 0.9774
-1.2674 -4.9655 -2.5138 0.9774
-1.0894 -5.0077 -2.5138 0.9774
-0.9099 -5.0434 -2.5139 0.9774
-0.5478 -5.0956 -2.5139 0.9774
-0.3656 -5.1119 -2.5139 0.9774
-0.1829 -5.1216 -2.5139 0.9774
0.0000 -5.1248 -2.5138 0.9774
0.1829 -5.1215 -2.5138 0.9774
1.2671 -4.9643 -2.5132 0.9774
1.4434 -4.9156 -2.5130 0.9774
1.6178 -4.8606 -2.5129 0.9774
2.1276 -4.6588 -2.5123 0.9774
2.2923 -4.5795 -2.5120 0.9774
2.9195 -4.2049 -2.5110 0.9775
3.2113 -3.9850 -2.5104 0.9775
3.7438 -3.4856 -2.5092 0.9775
4.3001 -2.7635 -2.5074 0.9775
4.3954 -2.6079 -2.5070 0.9775
4.5688 -2.2870 -2.5062 0.9775
4.7188 -1.9546 -2.5054 0.9775
4.7847 -1.7846 -2.5050 0.9775
4.9867 -1.0848 -2.5033 0.9775
5.0214 -0.9060 -2.5029 0.9775
5.0496 -0.7260 -2.5024 0.9775
-4.8249 0.0000 -2.5030 0.9785
-4.8141 -0.3443 -2.5038 0.9785
-4.7191 -1.0266 -2.5054 0.9785
-4.6801 -1.1945 -2.5058 0.9785
-4.5844 -1.5258 -2.5065 0.9785
-4.5276 -1.6887 -2.5069 0.9785
-4.3969 -2.0080 -2.5076 0.9785
-4.2436 -2.3172 -2.5083 0.9784
-3.9731 -2.7586 -2.5093 0.9784
-3.6567 -3.1686 -2.5101 0.9784
-3.5417 -3.2974 -2.5104 0.9784
-3.2981 -3.5424 -2.5109 0.9784
-3.1699 -3.6582 -2.5112 0.9784
-2.3209 -4.2504 -2.5124 0.9784
-2.1679 -4.3308 -2.5125 0.9784
-2.0120 -4.4057 -2.5126 0.9784
-1.8536 -4.4749 -2.5128 0.9784
-1.5297 -4.5961 -2.5130 0.9784
-1.3648 -4.6479 -2.5131 0.9784
-1.1980 -4.6938 -2.5131 0.9784
-0.8602 -4.7675 -2.5132 0.9784
-0.6894 -4.7952 -2.5132 0.9784
0.6894 -4.7946 -2.5129 0.9784
0.8600 -4.7667 -2.5128 0.9784
1.0296 -4.7328 -2.5127 0.9784
1.3644 -4.6468 -2.5124 0.9784
1.6922 -4.5370 -2.5121 0.9784
2.1670 -4.3291 -2.5115 0.9784
2.3199 -4.2486 -2.5113 0.9784
2.4698 -4.1627 -2.5110 0.9784
2.7600 -3.9751 -2.5105 0.9784
2.8998 -3.8736 -2.5103 0.9784
3.0359 -3.7673 -2.5100 0.9784
3.6543 -3.1664 -2.5084 0.9784
3.7644 -3.0336 -2.5081 0.9784
3.8698 -2.8969 -2.5078 0.9785
3.9702 -2.7565 -2.5074 0.9785
4.0654 -2.6127 -2.5071 0.9785
4.1555 -2.4656 -2.5067 0.9785
4.2402 -2.3153 -2.5063 0.9785
4.4614 -1.8480 -2.5052 0.9785
4.5804 -1.5245 -2.5044 0.9785
4.6761 -1.1935 -2.5036 0.9785
4.7478 -0.8566 -2.5028 0.9785
4.7952 -0.5155 -2.5020 0.9785
-4.5677 -0.1631 -2.5034 0.9794
-4.5262 -0.6508 -2.5045 0.9794
-4.2881 -1.5994 -2.5066 0.9793
-4.1642 -1.9017 -2.5073 0.9793
-3.9385 -2.3369 -2.5083 0.9793
-3.8531 -2.4762 -2.5086 0.9793
-3.5675 -2.8749 -2.5094 0.9793
-3.4630 -3.0007 -2.5097 0.9793
-3.2408 -3.2408 -2.5102 0.9793
-2.8766 -3.5696 -2.5109 0.9793
-2.7476 -3.6703 -2.5111 0.9793
-2.4791 -3.8575 -2.5115 0.9793
-2.3400 -3.9438 -2.5116 0.9793
-2.1979 -4.0251 -2.5118 0.9793
-1.4486 -4.3524 -2.5124 0.9793
-1.2924 -4.4015 -2.5125 0.9793
-1.1345 -4.4449 -2.5125 0.9793
-0.4904 -4.5613 -2.5126 0.9793
-0.1637 -4.5846 -2.5126 0.9793
0.8144 -4.5140 -2.5122 0.9793
0.9750 -4.4818 -2.5121 0.9793
1.1343 -4.4440 -2.5120 0.9793
1.4482 -4.3512 -2.5117 0.9793
1.6025 -4.2965 -2.5115 0.9793
1.7547 -4.2362 -2.5114 0.9793
2.1970 -4.0234 -2.5108 0.9793
3.3520 -3.1208 -2.5084 0.9793
3.4608 -2.9988 -2.5081 0.9793
3.5652 -2.8730 -2.5078 0.9793
3.9357 -2.3351 -2.5064 0.9793
4.0159 -2.1929 -2.5061 0.9793
4.0911 -2.0478 -2.5057 0.9794
4.1610 -1.9002 -2.5054 0.9794
4.2255 -1.7503 -2.5050 0.9794
4.3864 -1.2880 -2.5039 0.9794
4.4970 -0.8113 -2.5028 0.9794
4.5224 -0.6502 -2.5024 0.9794
-4.3352 -0.0000 -2.5029 0.9802
-4.3122 -0.4636 -2.5040 0.9802
-4.2935 -0.6173 -2.5044 0.9802
-4.2397 -0.9223 -2.5051 0.9802
-4.1185 -1.3708 -2.5061 0.9802
-4.0675 -1.5171 -2.5064 0.9801
-4.0113 -1.6615 -2.5067 0.9801
-3.8835 -1.9439 -2.5073 0.9801
-3.7358 -2.2166 -2.5079 0.9801
-3.6547 -2.3488 -2.5082 0.9801
-3.4786 -2.6041 -2.5088 0.9801
-3.3838 -2.7269 -2.5091 0.9801
-3.2847 -2.8462 -2.5093 0.9801
-3.1813 -2.9619 -2.5096 0.9801
-3.0739 -3.0739 -2.5098 0.9801
-2.9624 -3.1819 -2.5100 0.9801
-2.6060 -3.4812 -2.5106 0.9801
-1.9471 -3.8898 -2.5114 0.9801
-1.8071 -3.9570 -2.5116 0.9801
-1.5203 -4.0762 -2.5118 0.9801
-1.3739 -4.1280 -2.5118 0.9801
-0.9249 -4.2515 -2.5120 0.9801
-0.7725 -4.2819 -2.5121 0.9801
-0.4651 -4.3261 -2.5121 0.9801
-0.1553 -4.3483 -2.5121 0.9801
0.0000 -4.3510 -2.5120 0.9801
0.1553 -4.3481 -2.5120 0.9801
0.3104 -4.3397 -2.5119 0.9801
0.6191 -4.3063 -2.5118 0.9801
0.9247 -4.2508 -2.5116 0.9801
1.0758 -4.2149 -2.5115 0.9801
1.5199 -4.0750 -2.5111 0.9801
1.8065 -3.9557 -2.5107 0.9801
1.9464 -3.8884 -2.5105 0.9801
2.0838 -3.8161 -2.5103 0.9801
2.2185 -3.7390 -2.5101 0.9801
2.3503 -3.6571 -2.5099 0.9801
2.7270 -3.3840 -2.5092 0.9801
2.9608 -3.1801 -2.5086 0.9801
3.1794 -2.9602 -2.5081 0.9801
3.2827 -2.8444 -2.5078 0.9801
3.3817 -2.7251 -2.5075 0.9801
3.6523 -2.3472 -2.5065 0.9801
3.7332 -2.2150 -2.5062 0.9801
3.8094 -2.0801 -2.5059 0.9802
3.8807 -1.9425 -2.5055 0.9802
3.9470 -1.8025 -2.5052 0.9802
4.0083 -1.6603 -2.5049 0.9802
4.1610 -1.2218 -2.5038 0.9802
4.2660 -0.7697 -2.5027 0.9802
4.2901 -0.6168 -2.5024 0.9802
4.3219 -0.3091 -2.5016 0.9802
4.3296 -0.1546 -2.5013 0.9802
