ply
format ascii 1.0
element vertex 1443
property float32 x
property float32 y
property float32 z
property float32 I
end_header
35.2154 6.3536 6.3097 0.8647
33.5687 7.3024 6.0575 0.8698
27.8586 9.2722 5.1772 0.8876
25.4460 10.5401 4.8565 0.8942
22.3019 11.1635 4.3976 0.9037
21.6567 11.8255 4.3509 0.9046
20.6350 12.2433 4.2307 0.9071
9.3630 6.5008 2.0099 0.9548
9.2470 6.9222 2.0367 0.9542
16.7448 13.4938 3.7919 0.9164
13.6233 14.6325 3.5252 0.9220
11.9079 14.7768 3.3463 0.9258
11.4112 15.2436 3.3575 0.9256
13.5148 21.0295 4.4078 0.9035
12.8927 21.7294 4.4551 0.9025
8.2816 16.5446 3.2623 0.9276
7.4417 16.2951 3.1587 0.9298
6.8351 16.5014 3.1494 0.9300
6.2313 16.7068 3.1441 0.9301
5.7647 17.3201 3.2187 0.9285
6.1279 24.0091 4.3692 0.9043
2.6406 18.3654 3.2716 0.9274
0.0000 19.4161 3.4236 0.9242
-0.9442 26.4368 4.6645 0.8981
-2.1646 20.1339 3.5706 0.9210
-2.8911 20.1085 3.5821 0.9208
-3.6189 20.0581 3.5939 0.9205
-5.3792 21.0756 3.8353 0.9154
-6.3253 21.5418 3.9588 0.9128
-7.2339 21.7343 4.0390 0.9112
-8.1973 21.9779 4.1361 0.9091
-10.1599 22.2470 4.3125 0.9054
-11.5760 23.1259 4.5601 0.9003
-12.8684 23.5667 4.7346 0.8967
-14.2603 24.0345 4.9277 0.8927
-8.7599 12.6167 2.7083 0.9395
36.8804 6.6540 5.7411 0.8593
32.2424 8.2294 5.0977 0.8740
25.5361 10.5774 4.2343 0.8942
23.6308 10.7918 3.9797 0.9002
22.3968 11.2111 3.8369 0.9036
21.7181 11.8590 3.7908 0.9047
20.9824 12.4494 3.7376 0.9060
9.2508 6.9250 1.7703 0.9543
16.7686 13.5130 3.2992 0.9165
16.2109 14.0468 3.2860 0.9169
20.2591 18.8619 4.2405 0.8940
19.2163 19.2163 4.1632 0.8959
13.7196 14.7359 3.0844 0.9218
12.0972 13.9610 2.8300 0.9280
11.4635 15.3134 2.9304 0.9255
13.7649 21.4186 3.9004 0.9021
12.1370 22.2273 3.8797 0.9026
8.3111 16.6034 2.8444 0.9276
6.2309 16.7056 2.7314 0.9304
7.0244 23.9230 3.8196 0.9040
5.3082 24.4016 3.8256 0.9039
2.6413 18.3703 2.8432 0.9276
1.9525 18.1609 2.7982 0.9288
-1.8877 26.3933 4.0536 0.8985
-2.1893 20.3636 3.1376 0.9205
-2.9073 20.2208 3.1296 0.9207
-3.6186 20.0566 3.1222 0.9208
-4.4226 20.3302 3.1873 0.9193
-5.4297 21.2733 3.3634 0.9150
-10.1276 34.4916 5.5070 0.8646
-7.3324 22.0304 3.5570 0.9103
-8.2009 21.9875 3.5950 0.9094
-11.6276 23.2290 3.9795 0.9002
-15.4038 23.9687 4.3648 0.8911
-9.4088 12.5687 2.4052 0.9384
48.7753 1.7420 6.3556 0.8213
46.6402 3.3358 6.0890 0.8281
42.8869 4.6108 5.6170 0.8403
38.7427 5.5704 5.0970 0.8539
36.8754 6.6531 4.8795 0.8597
33.5174 7.2913 4.4667 0.8708
27.9794 9.3124 3.8400 0.8879
27.0357 10.0838 3.7575 0.8901
23.6285 10.7908 3.3826 0.9005
22.3947 11.2100 3.2612 0.9039
21.8591 11.9360 3.2432 0.9044
28.0408 16.6374 4.2459 0.8768
9.2546 6.9279 1.5054 0.9544
16.3358 14.1550 2.8148 0.9165
19.2148 19.2148 3.5386 0.8962
13.8198 14.8435 2.6410 0.9214
11.9062 14.7747 2.4709 0.9263
11.0051 15.8503 2.5128 0.9251
13.7665 21.4210 3.3158 0.9024
9.7062 16.3590 2.4770 0.9261
8.3079 16.5971 2.4169 0.9279
6.8342 16.4992 2.3256 0.9305
6.2305 16.7045 2.3217 0.9306
5.7897 17.3952 2.3874 0.9287
7.1262 24.2698 3.2939 0.9030
5.3606 24.6425 3.2840 0.9033
4.4277 24.5409 3.2473 0.9043
2.6480 18.4174 2.4230 0.9277
0.6784 18.9938 2.4750 0.9262
-0.9440 26.4309 3.4440 0.8988
-1.8875 26.3914 3.4455 0.8988
-2.9120 20.2533 2.6645 0.9208
-4.4222 20.3286 2.7091 0.9195
-7.1972 28.1982 3.7897 0.8892
-7.4685 22.4393 3.0797 0.9090
-8.2273 22.0584 3.0658 0.9094
-9.0765 21.9127 3.0886 0.9088
-9.6130 21.0496 3.0134 0.9109
-13.4155 26.8008 3.9028 0.8861
-14.2609 24.0355 3.6394 0.8934
-15.4814 24.0895 3.7289 0.8909
-8.7535 12.6075 1.9987 0.9400
42.8784 4.6099 4.6309 0.8407
38.9136 5.5949 4.2215 0.8537
37.1394 6.7007 4.0525 0.8591
33.7637 7.3448 3.7104 0.8702
32.4652 8.2863 3.5979 0.8739
27.9764 9.3114 3.1662 0.8881
23.1329 10.5645 2.7308 0.9028
21.9230 11.9708 2.6822 0.9044
26.7522 17.1926 3.4148 0.8799
20.2560 18.8590 2.9719 0.8946
19.2134 19.2134 2.9177 0.8965
13.7680 21.4234 2.7346 0.9026
12.3573 22.6306 2.7688 0.9015
6.2300 16.7034 1.9143 0.9308
5.6888 17.0922 1.9344 0.9301
7.1636 24.3969 2.7304 0.9028
3.3778 18.7217 2.0428 0.9263
1.9522 18.1584 1.9611 0.9292
1.2513 17.4951 1.8835 0.9319
-0.9447 26.4523 2.8423 0.8990
-2.8709 19.9674 2.1662 0.9221
-4.4219 20.3271 2.2338 0.9197
-7.1966 28.1960 3.1248 0.8895
-6.4047 21.8125 2.4411 0.9126
-11.1155 33.3968 3.7796 0.8680
-9.0757 21.9108 2.5467 0.9090
-15.4797 24.0869 3.0746 0.8912
-8.7504 12.6029 1.6475 0.9401
38.9080 5.5941 3.3275 0.8540
31.2969 9.1896 2.7612 0.8773
27.2687 10.1707 2.4637 0.8897
26.1083 10.8144 2.3922 0.8928
23.1405 10.5679 2.1535 0.9029
21.7932 12.9305 2.1451 0.9033
19.3489 12.4348 1.9470 0.9118
9.2622 6.9336 0.9794 0.9546
16.6847 13.4454 1.8139 0.9176
16.2745 14.1019 1.8229 0.9172
20.2545 18.8576 2.3427 0.8949
19.2120 19.2120 2.3000 0.8967
11.9045 14.7726 1.6061 0.9267
10.7317 15.4566 1.5929 0.9272
12.8062 21.5837 2.1245 0.9042
12.2023 22.3468 2.1554 0.9028
6.8333 16.4970 1.5116 0.9308
7.0737 24.0909 2.1255 0.9041
3.4510 19.1276 1.6453 0.9249
2.6203 18.2245 1.5586 0.9288
1.9521 18.1572 1.5459 0.9293
1.2498 17.4740 1.4830 0.9321
0.6748 18.8936 1.6004 0.9269
-0.9364 26.2201 2.2210 0.9000
-1.8873 26.3876 2.2395 0.8992
-2.1863 20.3359 1.7314 0.9212
-2.8902 20.1020 1.7192 0.9217
-3.6178 20.0520 1.7249 0.9215
-4.4215 20.3255 1.7608 0.9199
-10.1658 34.6215 3.0545 0.8652
-7.4446 22.3675 1.9956 0.9097
-9.0749 21.9089 2.0075 0.9092
-9.6117 21.0466 1.9587 0.9113
-14.2620 24.0374 2.3660 0.8939
-15.4781 24.0844 2.4236 0.8914
-8.7472 12.5984 1.2984 0.9403
38.9023 5.5933 2.4371 0.8543
32.2567 8.2331 2.0644 0.8751
26.9340 10.0458 1.7826 0.8912
34.8868 14.4506 2.3416 0.8596
22.3885 11.2069 1.5525 0.9045
26.4039 16.9688 1.9463 0.8818
9.3643 6.5018 0.7069 0.9553
16.6820 13.4432 1.3285 0.9177
16.2769 14.1040 1.3355 0.9173
20.2530 18.8562 1.7159 0.8950
13.5144 14.5155 1.2298 0.9236
11.4078 15.2390 1.1804 0.9265
10.7302 15.4544 1.1667 0.9274
13.7378 21.3764 1.5757 0.9032
12.2662 22.4638 1.5871 0.9025
8.1741 16.3297 1.1324 0.9294
7.4393 16.2897 1.1105 0.9307
6.8328 16.4959 1.1072 0.9309
6.2292 16.7012 1.1053 0.9311
6.2553 24.5080 1.5685 0.9036
5.3950 24.8006 1.5739 0.9033
3.4511 19.1283 1.2053 0.9251
1.9520 18.1560 1.1323 0.9294
1.3141 18.3729 1.1422 0.9288
0.0000 19.1056 1.1847 0.9263
-0.9416 26.3650 1.6359 0.8997
-1.8871 26.3857 1.6404 0.8994
-2.8898 20.0990 1.2592 0.9218
-3.6175 20.0505 1.2634 0.9216
-4.4212 20.3239 1.2898 0.9200
-10.1653 34.6199 2.2374 0.8654
-7.4846 22.4877 1.4697 0.9094
-9.0741 21.9069 1.4704 0.9093
-14.2127 23.9543 1.7272 0.8944
-8.7441 12.5939 0.9507 0.9404
-9.4351 12.6038 0.9763 0.9389
44.7752 3.2024 1.7700 0.8355
38.8967 5.5925 1.5495 0.8544
33.6676 6.0743 1.3490 0.8720
40.6984 11.9501 1.6725 0.8438
27.9672 9.3084 1.1622 0.8887
34.5072 14.2934 1.4728 0.8611
28.8251 17.1028 1.3216 0.8744
9.3681 6.5044 0.4497 0.9554
16.6794 13.4411 0.8447 0.9178
12.5948 14.5352 0.7584 0.9259
11.9028 14.7705 0.7480 0.9269
11.4061 15.2368 0.7505 0.9266
12.8488 21.6555 0.9929 0.9041
8.1730 16.3275 0.7200 0.9295
6.8324 16.4948 0.7040 0.9310
5.3947 24.7989 1.0007 0.9034
1.9518 18.1547 0.7200 0.9295
1.3140 18.3717 0.7263 0.9289
0.0000 19.1029 0.7532 0.9264
-0.9415 26.3612 1.0401 0.8998
-1.8870 26.3838 1.0430 0.8995
-2.1865 20.3374 0.8065 0.9214
-2.8894 20.0959 0.8006 0.9219
-4.4209 20.3224 0.8201 0.9201
-10.1649 34.6183 1.4227 0.8655
-8.1636 21.8876 0.9211 0.9107
-9.0734 21.9050 0.9349 0.9095
-13.2461 24.2585 1.0898 0.8953
-14.2098 23.9493 1.0981 0.8945
-15.4748 24.0793 1.1286 0.8917
-8.7410 12.5894 0.6043 0.9405
43.1973 4.6442 0.7339 0.8405
38.8911 5.5917 0.6637 0.8545
34.5000 14.2904 0.6308 0.8612
21.5533 11.7690 0.4148 0.9064
9.8421 6.3251 0.1976 0.9543
9.3718 6.5070 0.1927 0.9554
9.2736 6.9421 0.1957 0.9547
16.6767 13.4389 0.3618 0.9179
20.2500 18.8534 0.4674 0.8952
19.2078 19.2078 0.4588 0.8970
10.7272 15.4500 0.3177 0.9275
12.3895 22.6897 0.4367 0.9017
6.3182 24.7545 0.4316 0.9028
5.3943 24.7973 0.4287 0.9035
3.4515 19.1304 0.3284 0.9252
2.6192 18.2171 0.3109 0.9290
1.9517 18.1535 0.3084 0.9296
1.3139 18.3704 0.3111 0.9290
-2.8889 20.0929 0.3429 0.9220
-3.6170 20.0475 0.3441 0.9217
-4.4205 20.3208 0.3513 0.9202
-5.3389 20.9177 0.3647 0.9173
-10.1644 34.6167 0.6094 0.8656
-7.4848 22.4882 0.4004 0.9095
-8.1622 21.8837 0.3945 0.9108
-15.4732 24.0767 0.4834 0.8918
-8.7379 12.5850 0.2588 0.9405
43.2007 4.6446 -0.2446 0.8405
38.8854 5.5909 -0.2212 0.8546
37.9392 6.8450 -0.2170 0.8571
33.7422 7.3402 -0.1944 0.8710
32.3667 8.2611 -0.1881 0.8749
40.7010 11.9509 -0.2388 0.8439
21.5493 11.7668 -0.1382 0.9065
28.8202 17.0998 -0.1887 0.8745
9.8381 6.3225 -0.0658 0.9543
16.2840 14.1102 -0.1213 0.9174
20.2484 18.8520 -0.1558 0.8952
19.2064 19.2064 -0.1529 0.8970
13.5085 14.5092 -0.1116 0.9238
12.5931 14.5332 -0.1083 0.9260
11.4029 15.2325 -0.1071 0.9267
10.7256 15.4479 -0.1059 0.9275
13.7321 21.3675 -0.1430 0.9034
12.8453 21.6495 -0.1417 0.9042
6.8315 16.4927 -0.1005 0.9311
6.2280 16.6979 -0.1003 0.9312
5.7120 17.1617 -0.1018 0.9302
7.1818 24.4591 -0.1435 0.9031
6.3178 24.7529 -0.1438 0.9029
5.3940 24.7957 -0.1429 0.9035
3.4517 19.1315 -0.1095 0.9252
1.9516 18.1523 -0.1028 0.9296
0.6744 18.8830 -0.1064 0.9272
-0.9412 26.3537 -0.1485 0.8999
-1.8867 26.3801 -0.1489 0.8996
-2.1866 20.3390 -0.1152 0.9214
-4.4202 20.3193 -0.1171 0.9202
-10.1639 34.6151 -0.2031 0.8656
-9.0718 21.9012 -0.1335 0.9095
-10.1711 22.2716 -0.1379 0.9067
-14.2038 23.9393 -0.1567 0.8946
-15.4716 24.0742 -0.1611 0.8918
-8.7348 12.5805 -0.0862 0.9406
-9.4547 12.6299 -0.0888 0.9388
-20.9178 16.8567 -0.1513 0.8981
28.5845 0.0000 -0.8049 0.8919
48.8466 3.4936 -1.3789 0.8220
43.2041 4.6449 -1.2235 0.8404
32.3695 8.2618 -0.9407 0.8749
40.7024 11.9513 -1.1945 0.8439
27.9581 9.3054 -0.8297 0.8888
26.9441 10.0496 -0.8097 0.8913
34.4856 14.2844 -1.0511 0.8613
23.6126 10.7835 -0.7309 0.9013
28.8177 17.0983 -0.9435 0.8745
9.3793 6.5122 -0.3215 0.9553
16.2864 14.1122 -0.6068 0.9174
19.2050 19.2050 -0.7648 0.8970
12.5922 14.5321 -0.5414 0.9259
11.4013 15.2303 -0.5357 0.9267
13.7302 21.3646 -0.7151 0.9034
12.8435 21.6466 -0.7087 0.9042
12.3879 22.6867 -0.7278 0.9017
8.1697 16.3209 -0.5139 0.9296
6.8310 16.4916 -0.5026 0.9311
6.2276 16.6968 -0.5018 0.9312
3.4519 19.1326 -0.5474 0.9252
2.6185 18.2121 -0.5181 0.9290
1.9515 18.1511 -0.5140 0.9296
1.3137 18.3680 -0.5185 0.9290
0.0000 19.0948 -0.5377 0.9264
-2.1867 20.3397 -0.5760 0.9214
-2.8880 20.0869 -0.5714 0.9220
-3.6164 20.0445 -0.5735 0.9217
-4.4198 20.3177 -0.5855 0.9202
-5.3372 20.9111 -0.6077 0.9173
-10.1702 22.2696 -0.6894 0.9067
-13.2469 24.2599 -0.7783 0.8953
-14.2009 23.9343 -0.7836 0.8946
-8.7317 12.5760 -0.4311 0.9406
-9.4612 12.6387 -0.4445 0.9388
28.5403 0.0000 -1.4474 0.8920
46.2420 1.6515 -2.3466 0.8308
43.1437 4.6384 -2.2006 0.8405
37.8771 6.8338 -1.9519 0.8571
33.7336 7.3383 -1.7508 0.8709
40.7037 11.9517 -2.1514 0.8437
34.3993 14.2487 -1.8883 0.8615
23.6104 10.7825 -1.3163 0.9013
21.5413 11.7624 -1.2447 0.9064
28.8152 17.0969 -1.6992 0.8744
9.3831 6.5148 -0.5793 0.9553
9.3082 6.9680 -0.5898 0.9545
16.6686 13.4324 -1.0857 0.9178
20.2454 18.8492 -1.4028 0.8951
19.2036 19.2036 -1.3773 0.8969
13.5046 14.5050 -1.0051 0.9237
12.5913 14.5311 -0.9751 0.9259
11.3997 15.2282 -0.9647 0.9266
13.7283 21.3616 -1.2878 0.9033
12.8417 21.6436 -1.2763 0.9041
8.1686 16.3187 -0.9255 0.9295
5.7104 17.1571 -0.9170 0.9301
7.1809 24.4559 -1.2926 0.9030
6.3170 24.7497 -1.2954 0.9028
3.4521 19.1336 -0.9860 0.9251
2.6182 18.2097 -0.9330 0.9290
1.9513 18.1499 -0.9258 0.9295
1.3136 18.3667 -0.9338 0.9289
0.6742 18.8778 -0.9580 0.9271
-1.8865 26.3763 -1.3411 0.8995
-2.1868 20.3405 -1.0375 0.9213
-2.8876 20.0838 -1.0290 0.9219
-4.4195 20.3162 -1.0544 0.9201
-5.3364 20.9077 -1.0943 0.9172
-10.1630 34.6119 -1.8294 0.8655
-7.4851 22.4892 -1.2020 0.9094
-8.1579 21.8723 -1.1839 0.9107
-9.0702 21.8974 -1.2020 0.9094
-14.1979 23.9293 -1.4111 0.8945
-15.4683 24.0691 -1.4510 0.8917
-8.7286 12.5716 -0.7762 0.9405
-9.4678 12.6474 -0.8012 0.9387
-39.5349 29.5954 -2.5045 0.8205
-40.1473 27.8748 -2.4787 0.8222
-41.0321 26.3697 -2.4736 0.8225
-42.2438 25.0644 -2.4911 0.8214
-46.5691 1.6632 -2.3632 0.8297
27.4679 0.0000 -2.0140 0.8957
27.8042 0.9930 -2.0400 0.8944
31.9844 2.2876 -2.3512 0.8793
31.8369 4.5775 -2.3584 0.8790
31.5252 6.8579 -2.3656 0.8786
30.0193 8.8145 -2.2940 0.8821
27.9521 9.3033 -2.1600 0.8886
30.0302 12.4389 -2.3833 0.8778
23.6081 10.7815 -1.9030 0.9011
22.3761 11.2007 -1.8347 0.9045
21.4703 11.7237 -1.7936 0.9065
9.8259 6.3147 -0.8564 0.9542
16.6659 13.4302 -1.5694 0.9177
20.2439 18.8478 -2.0281 0.8950
13.5027 14.5029 -1.4529 0.9236
12.5904 14.5301 -1.4097 0.9258
12.3862 22.6837 -1.8950 0.9015
6.2268 16.6946 -1.3065 0.9310
5.7097 17.1548 -1.3257 0.9301
6.3166 24.7480 -1.8727 0.9026
2.6178 18.2072 -1.3487 0.9289
0.6741 18.8752 -1.3849 0.9270
0.0000 19.0894 -1.3997 0.9263
-1.8863 26.3744 -1.9388 0.8994
-2.1869 20.3415 -1.5001 0.9212
-2.8872 20.0808 -1.4875 0.9219
-3.6159 20.0415 -1.4932 0.9216
-4.4192 20.3146 -1.5244 0.9200
-9.4210 32.0850 -2.4519 0.8745
-8.1304 21.7986 -1.7059 0.9109
-14.9309 29.8282 -2.4458 0.8748
-13.2074 24.1875 -2.0206 0.8954
-15.4667 24.0666 -2.0976 0.8916
-9.4743 12.6562 -1.1592 0.9386
-24.0427 25.8237 -2.5871 0.8680
-20.6959 16.6779 -1.9489 0.8989
-29.4455 18.9235 -2.5664 0.8690
-30.0635 17.8375 -2.5631 0.8692
-31.1767 15.6059 -2.5563 0.8695
-31.6705 14.4634 -2.5528 0.8697
-33.2172 9.7534 -2.5384 0.8704
-33.4949 8.5491 -2.5347 0.8705
-33.7287 7.3372 -2.5309 0.8707
-34.2225 2.4476 -2.5157 0.8714
-34.2358 1.2227 -2.5118 0.8716
24.4294 0.0000 -2.3453 0.9065
24.4423 0.8730 -2.3481 0.9064
24.4240 1.7468 -2.3508 0.9063
24.0385 5.2292 -2.3618 0.9059
23.8641 6.0910 -2.3645 0.9058
23.4223 7.7957 -2.3699 0.9056
22.5302 10.2892 -2.3779 0.9053
22.1729 11.0990 -2.3805 0.9052
9.8219 6.3121 -1.1209 0.9542
9.3445 6.9952 -1.1206 0.9542
16.6097 13.3849 -2.0479 0.9179
18.2947 17.0330 -2.3998 0.9044
17.6911 17.6911 -2.4019 0.9044
13.4586 14.4555 -1.8962 0.9237
12.5895 14.5290 -1.8457 0.9257
11.8979 14.7643 -1.8204 0.9266
8.1409 16.2634 -1.7461 0.9295
6.8297 16.4883 -1.7134 0.9308
6.2264 16.6935 -1.7105 0.9309
5.6909 17.0984 -1.7301 0.9301
7.1143 24.2290 -2.4243 0.9035
6.2474 24.4769 -2.4252 0.9035
2.6092 18.1470 -1.7601 0.9290
1.9510 18.1474 -1.7523 0.9293
1.3134 18.3642 -1.7676 0.9287
0.6719 18.8118 -1.8072 0.9271
-2.1707 20.1904 -1.9495 0.9216
-2.8775 20.0133 -1.9411 0.9220
-7.1220 24.2552 -2.4269 0.9034
-8.1290 21.7947 -2.2332 0.9108
-9.0686 21.8935 -2.2751 0.9092
-10.1674 22.2636 -2.3498 0.9063
-11.2942 22.5629 -2.4224 0.9036
-12.0863 22.1344 -2.4212 0.9036
-12.8617 21.6773 -2.4199 0.9037
-13.6195 21.1923 -2.4185 0.9037
-15.7763 19.5771 -2.4138 0.9039
-16.4532 18.9880 -2.4121 0.9040
-17.1076 18.3749 -2.4103 0.9040
-22.8285 13.5448 -2.5484 0.8988
-23.2743 12.7087 -2.5459 0.8989
-23.6889 11.8578 -2.5433 0.8990
-24.7422 9.2283 -2.5352 0.8993
-25.0285 8.3303 -2.5325 0.8994
-26.0498 2.8006 -2.5153 0.9001
-26.1225 0.9329 -2.5095 0.9003
21.0191 0.0000 -2.4968 0.9188
20.1120 0.7183 -2.3905 0.9221
19.7381 1.4117 -2.3506 0.9234
19.6241 2.8215 -2.3550 0.9232
19.4092 4.2222 -2.3595 0.9231
19.0940 5.6065 -2.3639 0.9230
18.6796 6.9671 -2.3682 0.9228
18.4356 7.6363 -2.3703 0.9228
18.1676 8.2968 -2.3724 0.9227
17.8755 8.9479 -2.3745 0.9226
17.5601 9.5885 -2.3766 0.9226
9.3945 6.5227 -1.3585 0.9550
15.6427 12.6057 -2.3864 0.9223
15.1945 13.1661 -2.3882 0.9222
14.2375 14.2375 -2.3917 0.9221
12.5886 14.5280 -2.2835 0.9255
11.8970 14.7633 -2.2522 0.9265
9.6974 17.7595 -2.4036 0.9217
6.8292 16.4872 -2.1198 0.9306
6.2259 16.6924 -2.1163 0.9308
5.7151 19.4638 -2.4096 0.9215
3.4006 18.8482 -2.2751 0.9258
2.6088 18.1445 -2.1775 0.9288
1.9509 18.1462 -2.1679 0.9291
0.0000 19.0254 -2.2600 0.9262
-0.7252 20.3044 -2.4134 0.9214
-1.4494 20.2656 -2.4134 0.9214
-2.1708 20.1912 -2.4123 0.9215
-3.6067 19.9906 -2.4129 0.9214
-4.3173 19.8465 -2.4126 0.9214
-5.7200 19.4807 -2.4117 0.9215
-7.0916 19.0134 -2.4105 0.9215
-7.7634 18.7425 -2.4098 0.9215
-8.4246 18.4473 -2.4090 0.9216
-9.0743 18.1282 -2.4081 0.9216
-7.5651 13.8544 -1.8751 0.9384
-10.9460 17.0324 -2.4050 0.9217
-8.7202 12.5594 -1.8162 0.9403
-9.4876 12.6739 -1.8806 0.9382
-14.7589 13.7411 -2.3954 0.9220
-15.2297 13.1966 -2.3937 0.9220
-15.6800 12.6358 -2.3921 0.9221
-17.1168 12.8135 -2.5398 0.9175
-18.3849 10.9083 -2.5393 0.9175
-19.3979 8.8587 -2.5331 0.9177
-19.6849 8.1538 -2.5309 0.9178
-19.9461 7.4395 -2.5288 0.9178
-20.1812 6.7169 -2.5265 0.9179
-20.5721 5.2507 -2.5220 0.9180
-20.8561 3.7628 -2.5174 0.9182
-21.1004 0.7536 -2.5080 0.9185
17.6355 0.0000 -2.4988 0.9312
17.5978 1.2586 -2.4998 0.9312
16.4459 2.3646 -2.3542 0.9351
16.2609 3.5373 -2.3579 0.9350
15.8264 5.2675 -2.3634 0.9348
15.6402 5.8335 -2.3652 0.9348
15.4337 6.3929 -2.3670 0.9347
10.8408 5.9195 -1.7501 0.9513
14.4089 8.5492 -2.3739 0.9346
9.8137 6.3069 -1.6529 0.9540
9.3815 7.0229 -1.6604 0.9538
12.3114 11.4623 -2.3834 0.9343
11.9017 11.9017 -2.3848 0.9343
9.6258 13.8637 -2.3914 0.9341
9.1292 14.2053 -2.3926 0.9341
8.6204 14.5288 -2.3937 0.9340
8.0999 14.8338 -2.3947 0.9340
7.0266 15.3861 -2.3966 0.9339
6.4753 15.6328 -2.3975 0.9339
5.9152 15.8593 -2.3983 0.9339
4.1896 16.4148 -2.4004 0.9338
3.6019 16.5576 -2.4009 0.9338
3.0092 16.6790 -2.4014 0.9338
2.4124 16.7787 -2.4018 0.9338
0.0000 16.9583 -2.4028 0.9338
-1.2098 16.9156 -2.4029 0.9338
-3.6039 16.5667 -2.4022 0.9338
-4.7751 16.2624 -2.4015 0.9338
-5.3514 16.0784 -2.4010 0.9338
-5.9205 15.8736 -2.4005 0.9338
-6.4817 15.6482 -2.3999 0.9339
-7.5771 15.1371 -2.3985 0.9339
-7.5345 13.7984 -2.2276 0.9385
-7.7911 13.1312 -2.1634 0.9402
-9.5226 11.8169 -2.1503 0.9405
-10.3268 11.9178 -2.2344 0.9383
-11.4961 12.3477 -2.3904 0.9341
-11.9232 11.9232 -2.3892 0.9341
-13.9562 11.2466 -2.5396 0.9301
-14.3401 10.7348 -2.5381 0.9302
-14.7049 10.2098 -2.5365 0.9302
-15.3759 9.1229 -2.5332 0.9303
-15.6812 8.5626 -2.5315 0.9304
-16.4720 6.8230 -2.5262 0.9305
-17.0693 5.0120 -2.5206 0.9307
-17.2244 4.3962 -2.5187 0.9307
-17.5550 2.5240 -2.5129 0.9309
-17.6202 1.8944 -2.5110 0.9309
-17.6627 1.2632 -2.5090 0.9310
-17.6826 0.6315 -2.5070 0.9310
15.1713 0.5418 -2.5009 0.9403
15.1525 1.0837 -2.5026 0.9403
15.1145 1.6250 -2.5043 0.9402
15.0348 2.1617 -2.5023 0.9403
13.8708 3.5403 -2.3583 0.9436
13.7447 4.0358 -2.3599 0.9436
13.4395 5.0127 -2.3630 0.9435
13.0645 5.9664 -2.3661 0.9434
10.5653 5.2886 -1.9464 0.9532
9.4822 5.6260 -1.8163 0.9563
9.4022 6.5280 -1.8856 0.9547
10.2151 10.2151 -2.3799 0.9431
9.8489 10.5785 -2.3811 0.9431
8.6740 11.5871 -2.3844 0.9430
7.8319 12.1867 -2.3865 0.9430
6.9479 12.7241 -2.3883 0.9429
6.4916 12.9686 -2.3892 0.9429
5.5535 13.4073 -2.3907 0.9429
4.5854 13.7770 -2.3920 0.9428
2.0811 7.0875 -1.2169 0.9705
3.5926 14.0756 -2.3931 0.9428
1.5539 14.4529 -2.3947 0.9428
1.0371 14.5006 -2.3949 0.9428
-1.0373 14.5029 -2.3953 0.9428
-1.5542 14.4563 -2.3952 0.9428
-3.0900 14.2043 -2.3947 0.9428
-4.0943 13.9440 -2.3941 0.9428
-4.5886 13.7866 -2.3937 0.9428
-5.0768 13.6114 -2.3932 0.9428
-5.5582 13.4187 -2.3927 0.9428
-6.4980 12.9814 -2.3915 0.9428
-7.4032 12.4774 -2.3901 0.9429
-7.8412 12.2012 -2.3893 0.9429
-8.0753 11.6306 -2.3326 0.9442
-8.5589 11.4333 -2.3528 0.9437
-9.4833 10.9444 -2.3857 0.9430
-9.8637 10.5943 -2.3846 0.9430
-10.8616 10.8616 -2.5305 0.9396
-11.9782 9.6527 -2.5343 0.9395
-12.3088 9.2142 -2.5330 0.9396
-12.9207 8.3036 -2.5302 0.9396
-13.2014 7.8328 -2.5288 0.9397
-13.4648 7.3524 -2.5273 0.9397
-13.7106 6.8630 -2.5258 0.9397
-13.9384 6.3655 -2.5243 0.9398
-14.1481 5.8603 -2.5228 0.9398
-14.5119 4.8300 -2.5196 0.9399
-14.6657 4.3062 -2.5180 0.9399
-14.8004 3.7776 -2.5164 0.9400
-15.1471 1.6285 -2.5097 0.9401
-15.1854 1.0861 -2.5080 0.9401
-15.2041 0.5430 -2.5063 0.9402
13.2981 0.0000 -2.4995 0.9473
13.2976 0.4749 -2.5010 0.9473
13.2456 1.4240 -2.5040 0.9472
13.1942 1.8970 -2.5055 0.9472
13.1258 2.3682 -2.5070 0.9472
12.0402 3.5353 -2.3586 0.9502
11.7709 4.3903 -2.3614 0.9502
11.4406 5.2248 -2.3640 0.9501
10.0041 5.4626 -2.1424 0.9547
8.9911 5.7782 -2.0089 0.9574
8.4126 6.2976 -1.9752 0.9581
8.9115 8.2969 -2.2886 0.9517
8.2856 9.5621 -2.3782 0.9498
7.9423 9.8558 -2.3791 0.9498
7.5885 10.1370 -2.3801 0.9498
7.2246 10.4054 -2.3810 0.9497
6.8511 10.6605 -2.3819 0.9497
6.4684 10.9020 -2.3827 0.9497
5.2709 11.5417 -2.3849 0.9497
4.8569 11.7257 -2.3856 0.9497
4.0100 12.0481 -2.3867 0.9496
3.5782 12.1862 -2.3872 0.9496
2.7007 12.4149 -2.3881 0.9496
2.2562 12.5053 -2.3885 0.9496
1.8087 12.5795 -2.3888 0.9496
1.3587 12.6374 -2.3890 0.9496
0.9068 12.6790 -2.3892 0.9496
0.4537 12.7041 -2.3894 0.9496
0.0000 12.7128 -2.3895 0.9496
-0.4538 12.7050 -2.3896 0.9496
-0.9069 12.6807 -2.3896 0.9496
-1.3589 12.6400 -2.3895 0.9496
-2.2570 12.5096 -2.3893 0.9496
-3.1431 12.3144 -2.3888 0.9496
-3.5801 12.1928 -2.3885 0.9496
-4.0124 12.0555 -2.3882 0.9496
-5.2751 11.5509 -2.3868 0.9496
-5.6827 11.3527 -2.3863 0.9496
-9.1874 9.8680 -2.5342 0.9466
-9.5308 9.5308 -2.5334 0.9466
-9.8609 9.1808 -2.5324 0.9466
-10.4816 8.4466 -2.5302 0.9467
-11.0473 7.6703 -2.5279 0.9467
-11.3086 7.2676 -2.5267 0.9468
-12.3874 5.1310 -2.5202 0.9469
-12.7079 4.2296 -2.5174 0.9469
-13.0650 2.8421 -2.5131 0.9470
-13.2191 1.9006 -2.5102 0.9471
-13.2707 1.4267 -2.5087 0.9471
-13.3053 0.9516 -2.5073 0.9472
-13.3229 0.4758 -2.5058 0.9472
11.8261 0.0000 -2.4998 0.9528
11.7770 1.2662 -2.5038 0.9527
11.7305 1.6866 -2.5051 0.9527
11.6690 2.1053 -2.5064 0.9527
11.5925 2.5218 -2.5077 0.9527
11.3786 3.3411 -2.5067 0.9527
11.0907 3.6913 -2.4708 0.9533
9.3440 5.5440 -2.2966 0.9566
8.8609 5.6945 -2.2265 0.9579
8.5286 5.9215 -2.1947 0.9584
8.3348 6.2394 -2.2008 0.9583
8.4483 6.8081 -2.2935 0.9566
8.4778 7.3460 -2.3712 0.9552
7.9386 7.9386 -2.3731 0.9551
7.3577 8.4913 -2.3750 0.9551
7.0526 8.7517 -2.3758 0.9551
6.4147 9.2389 -2.3775 0.9551
6.0828 9.4650 -2.3783 0.9550
5.3953 9.8808 -2.3797 0.9550
5.0406 10.0698 -2.3803 0.9550
4.6792 10.2460 -2.3810 0.9550
4.3115 10.4090 -2.3815 0.9550
2.0811 7.0877 -1.5614 0.9703
1.8528 7.2592 -1.5836 0.9698
1.6053 11.1652 -2.3844 0.9549
0.8048 11.2533 -2.3848 0.9549
-0.4027 11.2762 -2.3851 0.9549
-0.8049 11.2547 -2.3851 0.9549
-1.6057 11.1680 -2.3850 0.9549
-2.7897 10.9299 -2.3844 0.9549
-3.1777 10.8221 -2.3842 0.9549
-3.5614 10.7004 -2.3838 0.9549
-4.3144 10.4158 -2.3831 0.9550
-4.6825 10.2532 -2.3826 0.9550
-5.0444 10.0775 -2.3822 0.9550
-5.7479 9.6875 -2.3811 0.9550
-6.0884 9.4738 -2.3805 0.9550
-6.5900 9.4914 -2.4425 0.9539
-7.5164 9.3273 -2.5321 0.9522
-8.7565 8.1526 -2.5290 0.9523
-9.0385 7.8319 -2.5280 0.9523
-9.5666 7.1615 -2.5260 0.9523
-9.8121 6.8127 -2.5250 0.9523
-10.0447 6.4553 -2.5239 0.9524
-10.6629 5.3374 -2.5205 0.9524
-11.1564 4.1611 -2.5169 0.9525
-11.2922 3.7584 -2.5157 0.9525
-11.4135 3.3513 -2.5144 0.9525
-11.5200 2.9403 -2.5132 0.9526
-11.6117 2.5260 -2.5119 0.9526
-11.7502 1.6894 -2.5093 0.9526
-11.8448 0.4230 -2.5053 0.9527
10.6373 0.0000 -2.5000 0.9572
10.6203 0.7596 -2.5024 0.9572
10.5915 1.1387 -2.5036 0.9572
10.4932 1.8932 -2.5060 0.9571
10.1359 3.3736 -2.5107 0.9571
8.9877 4.4990 -2.3622 0.9595
8.8253 4.8190 -2.3632 0.9595
8.4662 5.4409 -2.3652 0.9595
8.2700 5.7420 -2.3662 0.9595
8.0631 6.0360 -2.3672 0.9595
6.8761 7.3855 -2.3716 0.9594
4.7619 6.3612 -1.8675 0.9679
5.7625 8.2996 -2.3747 0.9593
5.1587 8.6945 -2.3760 0.9593
4.8463 8.8754 -2.3766 0.9593
4.5276 9.0449 -2.3772 0.9593
3.5371 9.4833 -2.3788 0.9593
2.0811 7.0874 -1.7360 0.9701
2.1529 9.8965 -2.3803 0.9592
1.7985 9.9683 -2.3806 0.9592
0.0000 10.1328 -2.3814 0.9592
-0.3617 10.1265 -2.3815 0.9592
-0.7229 10.1072 -2.3815 0.9592
-1.4420 10.0293 -2.3814 0.9592
-2.5053 9.8158 -2.3809 0.9592
-3.1985 9.6099 -2.3804 0.9592
-3.5390 9.4884 -2.3800 0.9592
-3.8748 9.3546 -2.3797 0.9592
-4.2055 9.2088 -2.3793 0.9593
-4.5307 9.0512 -2.3789 0.9593
-4.8812 8.9393 -2.3937 0.9590
-5.3932 9.0897 -2.4840 0.9575
-6.1412 8.8449 -2.5307 0.9567
-6.7529 8.3798 -2.5293 0.9567
-7.0457 8.1311 -2.5286 0.9568
-7.3292 7.8721 -2.5279 0.9568
-7.8671 7.3245 -2.5262 0.9568
-8.3638 6.7400 -2.5245 0.9568
-9.2239 5.4728 -2.5207 0.9569
-9.4096 5.1380 -2.5197 0.9569
-9.5830 4.7969 -2.5186 0.9569
-9.7440 4.4499 -2.5176 0.9569
-9.8924 4.0976 -2.5165 0.9570
-10.0280 3.7402 -2.5154 0.9570
-10.4394 2.2709 -2.5109 0.9571
9.6543 0.3448 -2.5013 0.9609
9.6400 0.6895 -2.5023 0.9609
9.5234 1.7182 -2.5056 0.9608
9.4600 2.0579 -2.5067 0.9608
9.3846 2.3953 -2.5077 0.9608
9.2970 2.7299 -2.5088 0.9608
9.1975 3.0612 -2.5098 0.9607
9.0862 3.3890 -2.5109 0.9607
8.9631 3.7127 -2.5119 0.9607
8.8236 4.0296 -2.5116 0.9607
8.6634 4.3366 -2.5084 0.9608
8.3700 4.5703 -2.4692 0.9614
7.9557 4.7203 -2.3952 0.9625
7.5020 5.2087 -2.3647 0.9630
7.3140 5.4752 -2.3655 0.9630
6.6938 6.2321 -2.3680 0.9629
6.4692 6.4692 -2.3688 0.9629
5.9950 6.9186 -2.3703 0.9629
5.2256 7.5263 -2.3723 0.9628
4.3944 8.0478 -2.3741 0.9628
4.1053 8.2013 -2.3747 0.9628
3.8108 8.3444 -2.3752 0.9628
3.2070 8.5983 -2.3761 0.9628
2.8985 8.7087 -2.3765 0.9628
1.8529 7.2598 -1.9399 0.9695
1.6305 9.0373 -2.3777 0.9628
0.6553 9.1620 -2.3783 0.9628
0.0000 9.1862 -2.3785 0.9628
-0.6553 9.1630 -2.3785 0.9628
-0.9820 9.1336 -2.3785 0.9628
-1.6309 9.0396 -2.3783 0.9628
-1.9524 8.9751 -2.3782 0.9628
-2.2713 8.8990 -2.3780 0.9628
-2.5873 8.8114 -2.3778 0.9628
-3.2085 8.6025 -2.3772 0.9628
-3.5195 8.4969 -2.3813 0.9627
-3.9351 8.6166 -2.4526 0.9616
-4.3615 8.7131 -2.5228 0.9605
-5.2799 8.2156 -2.5286 0.9605
-5.5685 8.0201 -2.5280 0.9605
-5.8498 7.8145 -2.5274 0.9605
-6.3892 7.3735 -2.5261 0.9605
-7.3649 6.3817 -2.5232 0.9605
-7.5856 6.1129 -2.5224 0.9605
-7.7964 5.8363 -2.5216 0.9606
-7.9970 5.5524 -2.5207 0.9606
-8.1872 5.2616 -2.5198 0.9606
-8.6933 4.3515 -2.5171 0.9606
-9.3094 2.7335 -2.5121 0.9607
-9.4728 2.0607 -2.5100 0.9607
-9.5363 1.7205 -2.5090 0.9608
-9.5876 1.3785 -2.5079 0.9608
-9.6533 0.6904 -2.5058 0.9608
8.8322 0.0000 -2.5003 0.9639
8.8300 0.3154 -2.5013 0.9639
8.7561 1.2589 -2.5043 0.9639
8.6508 1.8819 -2.5063 0.9639
8.5011 2.4961 -2.5082 0.9638
8.4098 2.7991 -2.5092 0.9638
8.0716 3.6862 -2.5120 0.9638
7.7937 4.2557 -2.5138 0.9638
7.4561 4.7918 -2.5091 0.9638
7.1555 4.9681 -2.4661 0.9644
6.5048 5.2419 -2.3650 0.9659
5.9127 5.9127 -2.3672 0.9658
5.6995 6.1217 -2.3679 0.9658
5.4790 6.3231 -2.3685 0.9658
4.7376 6.3287 -2.2380 0.9677
4.6191 6.6527 -2.2928 0.9669
4.5280 7.0457 -2.3710 0.9658
4.2746 7.2044 -2.3715 0.9658
4.0156 7.3540 -2.3720 0.9658
3.4821 7.6248 -2.3730 0.9658
3.2083 7.7456 -2.3734 0.9657
2.9303 7.8565 -2.3738 0.9657
2.0810 7.0874 -2.0911 0.9698
1.1942 8.3058 -2.3755 0.9657
0.8970 8.3437 -2.3757 0.9657
0.5987 8.3709 -2.3758 0.9657
0.2996 8.3873 -2.3759 0.9657
-0.2996 8.3877 -2.3760 0.9657
-0.5987 8.3717 -2.3760 0.9657
-1.1944 8.3073 -2.3759 0.9657
-1.7838 8.2002 -2.3757 0.9657
-2.0752 8.1307 -2.3755 0.9657
-2.3836 8.1179 -2.3951 0.9654
-3.1076 8.3317 -2.5174 0.9637
-3.4117 8.2365 -2.5238 0.9636
-4.2783 7.8351 -2.5272 0.9636
-4.5544 7.6761 -2.5268 0.9636
-5.0884 7.3287 -2.5258 0.9636
-5.3456 7.1409 -2.5252 0.9636
-5.5958 6.9440 -2.5246 0.9636
-5.8387 6.7382 -2.5240 0.9636
-6.3013 6.3013 -2.5228 0.9636
-6.7311 5.8325 -2.5214 0.9637
-7.1258 5.3343 -2.5199 0.9637
-7.6479 4.5377 -2.5175 0.9637
-7.9468 3.9779 -2.5158 0.9637
-8.0809 3.6904 -2.5149 0.9637
-8.3176 3.1023 -2.5131 0.9638
-8.4199 2.8024 -2.5122 0.9638
-8.7199 1.5732 -2.5084 0.9638
-8.8030 0.9464 -2.5064 0.9639
-8.8277 0.6314 -2.5055 0.9639
-8.8412 0.3157 -2.5045 0.9639
8.1295 0.0000 -2.5005 0.9666
8.1273 0.2903 -2.5014 0.9665
8.0917 0.8700 -2.5032 0.9665
8.0585 1.1586 -2.5041 0.9665
7.8228 2.2970 -2.5077 0.9665
7.7386 2.5756 -2.5086 0.9664
7.5404 3.1233 -2.5103 0.9664
7.4266 3.3916 -2.5112 0.9664
7.0285 4.1702 -2.5137 0.9664
6.8774 4.4199 -2.5145 0.9664
6.7160 4.6630 -2.5148 0.9664
6.3561 5.1221 -2.5108 0.9664
6.1203 5.3033 -2.4909 0.9667
5.8143 5.4133 -2.4435 0.9673
5.2426 5.6309 -2.3664 0.9683
5.0396 5.8160 -2.3670 0.9683
3.4500 6.8923 -2.3707 0.9683
3.2024 7.0123 -2.3711 0.9683
2.4356 7.3178 -2.3722 0.9682
2.0810 7.0873 -2.2719 0.9696
1.8529 7.2596 -2.3045 0.9691
1.6400 7.5388 -2.3730 0.9682
1.3700 7.5933 -2.3732 0.9682
0.8249 7.6728 -2.3736 0.9682
0.0000 7.7179 -2.3739 0.9682
-0.2755 7.7131 -2.3739 0.9682
-1.1069 7.6988 -2.3923 0.9680
-2.5926 7.7896 -2.5251 0.9662
-3.6754 7.3425 -2.5256 0.9662
-3.9346 7.2056 -2.5252 0.9662
-4.1886 7.0594 -2.5248 0.9662
-4.4371 6.9042 -2.5243 0.9662
-4.6798 6.7402 -2.5238 0.9662
-4.9164 6.5676 -2.5233 0.9662
-5.1466 6.3866 -2.5228 0.9663
-5.7958 5.7958 -2.5211 0.9663
-5.9975 5.5839 -2.5205 0.9663
-6.3772 5.1391 -2.5191 0.9663
-6.5548 4.9069 -2.5184 0.9663
-7.0356 4.1744 -2.5162 0.9663
-7.1779 3.9194 -2.5155 0.9664
-7.3109 3.6596 -2.5147 0.9664
-7.6527 2.8543 -2.5122 0.9664
-7.7471 2.5785 -2.5114 0.9664
-7.9059 2.0179 -2.5096 0.9664
-8.0240 1.4477 -2.5079 0.9665
-8.1011 0.8710 -2.5061 0.9665
-8.1241 0.5810 -2.5052 0.9665
-8.1367 0.2906 -2.5043 0.9665
7.5085 0.5370 -2.5022 0.9688
7.4156 1.3379 -2.5048 0.9687
7.3655 1.6023 -2.5056 0.9687
7.2373 2.1250 -2.5073 0.9687
7.1592 2.3828 -2.5081 0.9687
7.0718 2.6377 -2.5089 0.9687
6.8700 3.1374 -2.5105 0.9687
6.7558 3.3817 -2.5113 0.9687
6.6328 3.6218 -2.5121 0.9686
6.5013 3.8574 -2.5128 0.9686
6.3614 4.0882 -2.5136 0.9686
6.2132 4.3139 -2.5143 0.9686
5.8929 4.7488 -2.5157 0.9686
5.7212 4.9575 -2.5164 0.9686
5.5372 5.1553 -2.5148 0.9686
5.1497 5.5311 -2.5121 0.9686
4.9318 5.6916 -2.5034 0.9688
4.6630 5.7865 -2.4703 0.9692
4.4006 5.8785 -2.4409 0.9695
3.8916 6.0554 -2.3927 0.9701
3.6443 6.1421 -2.3740 0.9703
3.4151 6.2542 -2.3687 0.9704
3.1902 6.3732 -2.3691 0.9704
2.9612 6.4841 -2.3695 0.9704
2.4918 6.6808 -2.3702 0.9704
2.2521 6.7664 -2.3705 0.9704
1.7667 6.9217 -2.3746 0.9703
1.2667 7.0209 -2.3715 0.9704
0.7627 7.0946 -2.3719 0.9704
0.0000 7.3264 -2.4353 0.9696
-0.2646 7.4077 -2.4639 0.9692
-0.5357 7.4904 -2.4962 0.9688
-1.3474 7.4680 -2.5225 0.9685
-2.1402 7.2888 -2.5251 0.9685
-2.3988 7.2071 -2.5249 0.9685
-2.6542 7.1163 -2.5247 0.9685
-3.1544 6.9072 -2.5241 0.9685
-3.6382 6.6628 -2.5234 0.9685
-3.8731 6.5277 -2.5230 0.9685
-4.1029 6.3843 -2.5226 0.9685
-5.1663 5.5490 -2.5202 0.9685
-5.8979 4.7528 -2.5178 0.9686
-6.0622 4.5382 -2.5172 0.9686
-6.2187 4.3177 -2.5165 0.9686
-6.7623 3.3850 -2.5137 0.9686
-7.0790 2.6403 -2.5114 0.9687
-7.1665 2.3852 -2.5107 0.9687
-7.2447 2.1272 -2.5099 0.9687
-7.3733 1.6040 -2.5082 0.9687
-7.4234 1.3393 -2.5074 0.9687
-7.4640 1.0732 -2.5066 0.9687
-7.4951 0.8058 -2.5058 0.9687
-7.5166 0.5376 -2.5049 0.9687
-7.5284 0.2689 -2.5041 0.9687
6.9927 -0.0000 -2.5007 0.9707
6.8924 1.2435 -2.5046 0.9707
6.8458 1.4892 -2.5053 0.9707
6.6535 2.2145 -2.5077 0.9707
6.5722 2.4513 -2.5084 0.9706
6.4824 2.6851 -2.5092 0.9706
6.2780 3.1425 -2.5106 0.9706
6.0413 3.5844 -2.5120 0.9706
5.9111 3.7988 -2.5127 0.9706
4.9761 4.9761 -2.5166 0.9705
4.6106 5.3209 -2.5177 0.9705
4.4160 5.4799 -2.5168 0.9705
4.2161 5.6321 -2.5159 0.9706
3.8015 5.9152 -2.5145 0.9706
3.3686 6.1690 -2.5136 0.9706
2.9040 6.3589 -2.4999 0.9707
1.9591 6.6721 -2.4867 0.9709
1.7226 6.7490 -2.4909 0.9708
1.4849 6.8258 -2.4980 0.9708
1.2453 6.9025 -2.5082 0.9706
0.7524 6.9984 -2.5171 0.9705
0.2514 7.0404 -2.5193 0.9705
0.0000 7.0484 -2.5206 0.9705
-0.7545 7.0176 -2.5240 0.9705
-1.5001 6.8961 -2.5238 0.9705
-1.9880 6.7707 -2.5235 0.9705
-3.1571 6.3070 -2.5222 0.9705
-3.3797 6.1895 -2.5219 0.9705
-3.5980 6.0641 -2.5215 0.9705
-4.0202 5.7901 -2.5208 0.9705
-4.4214 5.4867 -2.5199 0.9705
-4.7998 5.1553 -2.5189 0.9705
-4.9797 4.9797 -2.5184 0.9705
-5.1531 4.7977 -2.5178 0.9705
-5.3199 4.6097 -2.5173 0.9705
-6.1690 3.3685 -2.5136 0.9706
-6.3901 2.9183 -2.5122 0.9706
-6.4884 2.6876 -2.5115 0.9706
-6.6598 2.2166 -2.5100 0.9706
-6.7327 1.9769 -2.5093 0.9706
-6.8524 1.4906 -2.5078 0.9706
-6.8992 1.2447 -2.5070 0.9707
-6.9371 0.9974 -2.5063 0.9707
-6.9661 0.7489 -2.5055 0.9707
-6.9975 0.2499 -2.5039 0.9707
6.5256 0.0000 -2.5007 0.9724
6.5234 0.2330 -2.5015 0.9724
6.5128 0.4658 -2.5022 0.9724
6.4668 0.9298 -2.5037 0.9724
6.3877 1.3896 -2.5051 0.9724
6.3358 1.6171 -2.5058 0.9724
6.2759 1.8428 -2.5066 0.9724
6.0480 2.5052 -2.5087 0.9723
5.9564 2.7202 -2.5094 0.9723
5.7502 3.1399 -2.5107 0.9723
5.6360 3.3440 -2.5114 0.9723
5.5145 3.5439 -2.5120 0.9723
5.1078 4.1161 -2.5139 0.9723
4.6418 4.6418 -2.5156 0.9723
4.3006 4.9632 -2.5167 0.9723
4.1216 5.1145 -2.5172 0.9723
3.9371 5.2594 -2.5177 0.9722
3.7476 5.3976 -2.5181 0.9722
3.5532 5.5289 -2.5186 0.9722
3.3542 5.6531 -2.5190 0.9722
3.1508 5.7702 -2.5194 0.9722
2.9431 5.8795 -2.5196 0.9722
2.7312 5.9804 -2.5195 0.9722
2.0764 6.2387 -2.5197 0.9722
1.8527 6.3096 -2.5200 0.9722
1.6265 6.3727 -2.5204 0.9722
0.9366 6.5145 -2.5221 0.9722
0.7036 6.5441 -2.5223 0.9722
0.4696 6.5653 -2.5224 0.9722
0.2349 6.5781 -2.5225 0.9722
0.0000 6.5825 -2.5225 0.9722
-0.7036 6.5448 -2.5225 0.9722
-0.9368 6.5153 -2.5225 0.9722
-1.1687 6.4776 -2.5224 0.9722
-1.3991 6.4315 -2.5223 0.9722
-1.6277 6.3771 -2.5222 0.9722
-2.0782 6.2439 -2.5218 0.9722
-2.5179 6.0787 -2.5214 0.9722
-2.7329 5.9843 -2.5211 0.9722
-3.1522 5.7728 -2.5205 0.9722
-3.3558 5.6558 -2.5202 0.9722
-3.7496 5.4005 -2.5195 0.9722
-4.1240 5.1175 -2.5187 0.9722
-5.1116 4.1191 -2.5157 0.9723
-5.2542 3.9332 -2.5152 0.9723
-5.5188 3.5467 -2.5140 0.9723
-5.8620 2.9343 -2.5121 0.9723
-5.9614 2.7225 -2.5115 0.9723
-6.1372 2.2891 -2.5102 0.9723
-6.2815 1.8444 -2.5088 0.9723
-6.3415 1.6186 -2.5081 0.9724
-6.3935 1.3908 -2.5074 0.9724
-6.4372 1.1614 -2.5067 0.9724
-6.5000 0.6988 -2.5053 0.9724
-6.5189 0.4662 -2.5045 0.9724
-6.5295 0.2332 -2.5038 0.9724
6.1081 0.2181 -2.5015 0.9739
6.0981 0.4361 -2.5022 0.9739
6.0803 0.6537 -2.5029 0.9739
5.9805 1.3010 -2.5049 0.9739
5.9318 1.5140 -2.5056 0.9739
5.8118 1.9344 -2.5069 0.9739
5.6620 2.3453 -2.5082 0.9739
5.2759 3.1303 -2.5108 0.9738
5.1621 3.3175 -2.5114 0.9738
5.0416 3.5004 -2.5120 0.9738
4.9145 3.6790 -2.5125 0.9738
4.4961 4.1860 -2.5142 0.9738
4.1877 4.4979 -2.5152 0.9738
4.0253 4.6454 -2.5157 0.9738
3.8577 4.7871 -2.5162 0.9738
3.6850 4.9226 -2.5167 0.9738
3.5076 5.0518 -2.5171 0.9738
3.3256 5.1747 -2.5175 0.9738
3.1392 5.2909 -2.5179 0.9738
2.9488 5.4004 -2.5183 0.9738
2.7546 5.5030 -2.5186 0.9738
2.5568 5.5985 -2.5190 0.9737
1.7348 5.9080 -2.5201 0.9737
1.5229 5.9667 -2.5203 0.9737
0.4394 6.1441 -2.5211 0.9737
-0.4395 6.1445 -2.5212 0.9737
-0.6585 6.1249 -2.5212 0.9737
-0.8767 6.0973 -2.5212 0.9737
-1.5232 5.9680 -2.5209 0.9737
-1.9449 5.8434 -2.5205 0.9737
-2.1520 5.7698 -2.5204 0.9737
-2.3564 5.6888 -2.5201 0.9737
-3.3272 5.1771 -2.5187 0.9738
-4.1902 4.5006 -2.5167 0.9738
-4.4990 4.1887 -2.5158 0.9738
-4.6447 4.0247 -2.5153 0.9738
-4.9180 3.6816 -2.5143 0.9738
-5.0452 3.5029 -2.5138 0.9738
-5.3871 2.9416 -2.5121 0.9738
-5.7453 2.1429 -2.5096 0.9738
-5.8166 1.9360 -2.5090 0.9739
-5.8805 1.7267 -2.5084 0.9739
-5.9369 1.5153 -2.5077 0.9739
-6.0600 0.8713 -2.5057 0.9739
5.7099 0.6139 -2.5028 0.9753
5.6858 0.8175 -2.5034 0.9752
5.6544 1.0202 -2.5041 0.9752
5.6159 1.2217 -2.5047 0.9752
5.5701 1.4217 -2.5054 0.9752
5.5172 1.6200 -2.5060 0.9752
5.4572 1.8163 -2.5066 0.9752
5.3902 2.0105 -2.5072 0.9752
5.3163 2.2021 -2.5079 0.9752
5.2356 2.3910 -2.5085 0.9752
4.9535 2.9391 -2.5102 0.9752
4.6140 3.4540 -2.5119 0.9752
4.4888 3.6173 -2.5124 0.9752
4.3577 3.7760 -2.5130 0.9752
4.2210 3.9299 -2.5135 0.9751
4.0788 4.0788 -2.5139 0.9751
3.7789 4.3611 -2.5149 0.9751
3.6215 4.4940 -2.5153 0.9751
3.2927 4.7424 -2.5162 0.9751
2.4001 5.2554 -2.5179 0.9751
2.0195 5.4144 -2.5185 0.9751
1.2288 5.6487 -2.5194 0.9751
1.0265 5.6893 -2.5195 0.9751
0.6180 5.7486 -2.5198 0.9751
0.4125 5.7673 -2.5199 0.9751
-0.6181 5.7492 -2.5200 0.9751
-0.8229 5.7233 -2.5200 0.9751
-1.2290 5.6497 -2.5198 0.9751
-1.4298 5.6020 -2.5197 0.9751
-1.6288 5.5471 -2.5196 0.9751
-2.0201 5.4160 -2.5192 0.9751
-2.2119 5.3400 -2.5190 0.9751
-2.7692 5.0715 -2.5183 0.9751
-3.4610 4.6234 -2.5170 0.9751
-3.6233 4.4963 -2.5166 0.9751
-3.7809 4.3634 -2.5162 0.9751
-3.9336 4.2250 -2.5158 0.9751
-4.6171 3.4563 -2.5136 0.9751
-4.8499 3.1168 -2.5125 0.9752
-4.9570 2.9411 -2.5120 0.9752
-5.2395 2.3928 -2.5103 0.9752
-5.4615 1.8177 -2.5086 0.9752
-5.5215 1.6213 -2.5080 0.9752
-5.5745 1.4228 -2.5074 0.9752
-5.7145 0.6144 -2.5048 0.9752
-5.7409 0.2050 -2.5036 0.9752
5.3918 0.3856 -2.5021 0.9765
5.3759 0.5780 -2.5028 0.9764
5.3531 0.7697 -2.5034 0.9764
5.1941 1.5251 -2.5058 0.9764
5.1375 1.7099 -2.5063 0.9764
5.0744 1.8927 -2.5069 0.9764
4.9287 2.2509 -2.5081 0.9764
4.8463 2.4259 -2.5086 0.9764
4.7577 2.5979 -2.5092 0.9764
4.6629 2.7667 -2.5097 0.9764
4.5622 2.9320 -2.5103 0.9764
4.4556 3.0936 -2.5108 0.9764
4.3432 3.2513 -2.5113 0.9764
4.2252 3.4049 -2.5118 0.9764
3.9731 3.6991 -2.5128 0.9764
3.8392 3.8392 -2.5132 0.9764
3.5568 4.1048 -2.5141 0.9763
3.4086 4.2298 -2.5145 0.9763
3.2560 4.3495 -2.5149 0.9763
3.0992 4.4636 -2.5153 0.9763
2.9383 4.5721 -2.5157 0.9763
2.7736 4.6747 -2.5160 0.9763
2.6053 4.7713 -2.5164 0.9763
2.4337 4.8619 -2.5167 0.9763
2.2589 4.9462 -2.5170 0.9763
2.0811 5.0243 -2.5173 0.9763
1.9007 5.0958 -2.5175 0.9763
1.7177 5.1609 -2.5178 0.9763
1.5326 5.2194 -2.5180 0.9763
1.3454 5.2712 -2.5182 0.9763
1.1565 5.3162 -2.5183 0.9763
0.9660 5.3544 -2.5185 0.9763
0.3882 5.4277 -2.5188 0.9763
0.1942 5.4383 -2.5189 0.9763
0.0000 5.4418 -2.5189 0.9763
-0.3882 5.4280 -2.5190 0.9763
-0.5817 5.4107 -2.5190 0.9763
-0.7744 5.3864 -2.5189 0.9763
-1.3456 5.2722 -2.5187 0.9763
-1.7181 5.1622 -2.5184 0.9763
-1.9012 5.0972 -2.5182 0.9763
-2.0817 5.0257 -2.5180 0.9763
-2.7747 4.6765 -2.5170 0.9763
-2.9395 4.5740 -2.5168 0.9763
-3.2575 4.3515 -2.5161 0.9763
-3.5586 4.1069 -2.5154 0.9763
-4.1042 3.5563 -2.5138 0.9763
-4.4584 3.0955 -2.5124 0.9764
-4.5652 2.9339 -2.5119 0.9764
-4.6661 2.7685 -2.5114 0.9764
-4.9322 2.2524 -2.5098 0.9764
-5.1413 1.7112 -2.5082 0.9764
-5.3572 0.7702 -2.5053 0.9764
-5.3959 0.3859 -2.5041 0.9764
-5.4050 0.1930 -2.5035 0.9764
5.0965 0.1820 -2.5016 0.9775
5.0880 0.3639 -2.5021 0.9775
5.0233 0.9063 -2.5038 0.9775
4.9889 1.0853 -2.5044 0.9775
4.9481 1.2629 -2.5050 0.9775
4.9010 1.4391 -2.5055 0.9775
4.7879 1.7858 -2.5066 0.9775
4.7222 1.9560 -2.5072 0.9775
4.6503 2.1237 -2.5077 0.9775
4.5726 2.2889 -2.5083 0.9775
4.3043 2.7662 -2.5098 0.9775
4.2037 2.9187 -2.5103 0.9775
4.0976 3.0674 -2.5108 0.9775
3.7483 3.4898 -2.5122 0.9774
3.6220 3.6220 -2.5126 0.9774
3.3555 3.8724 -2.5134 0.9774
3.2156 3.9904 -2.5138 0.9774
3.0716 4.1032 -2.5142 0.9774
2.9236 4.2108 -2.5146 0.9774
2.4577 4.5010 -2.5156 0.9774
2.2958 4.5864 -2.5159 0.9774
2.1309 4.6659 -2.5161 0.9774
1.4457 4.9235 -2.5171 0.9774
1.0909 5.0148 -2.5174 0.9774
0.9113 5.0508 -2.5176 0.9774
0.7305 5.0804 -2.5177 0.9774
0.3662 5.1200 -2.5179 0.9774
-0.1832 5.1300 -2.5180 0.9774
-0.3662 5.1202 -2.5180 0.9774
-0.5487 5.1038 -2.5180 0.9774
-1.2693 4.9733 -2.5177 0.9774
-1.4460 4.9245 -2.5176 0.9774
-1.9637 4.7408 -2.5171 0.9774
-2.1315 4.6674 -2.5169 0.9774
-2.2965 4.5879 -2.5167 0.9774
-2.4586 4.5026 -2.5164 0.9774
-2.6175 4.4115 -2.5162 0.9774
-2.7730 4.3148 -2.5159 0.9774
-2.9249 4.2126 -2.5156 0.9774
-3.0730 4.1050 -2.5153 0.9774
-3.2171 3.9922 -2.5150 0.9774
-3.3571 3.8743 -2.5146 0.9774
-3.4927 3.7515 -2.5143 0.9774
-3.6239 3.6239 -2.5139 0.9774
-3.8719 3.3550 -2.5131 0.9774
-4.2062 2.9204 -2.5118 0.9774
-4.4022 2.6119 -2.5109 0.9775
-4.4918 2.4527 -2.5104 0.9775
-4.5755 2.2904 -2.5099 0.9775
-4.6534 2.1252 -2.5094 0.9775
-4.8509 1.6145 -2.5078 0.9775
-4.9044 1.4401 -2.5073 0.9775
-4.9925 1.0860 -2.5062 0.9775
-5.0269 0.9069 -2.5056 0.9775
-5.0550 0.7268 -2.5051 0.9775
-5.0766 0.5458 -2.5045 0.9775
-5.0917 0.3642 -2.5040 0.9775
-5.1002 0.1822 -2.5034 0.9775
4.8210 0.0000 -2.5010 0.9785
4.7965 0.5157 -2.5027 0.9785
4.7761 0.6867 -2.5032 0.9785
4.6337 1.3606 -2.5053 0.9785
4.5267 1.6884 -2.5064 0.9785
4.3965 2.0078 -2.5074 0.9785
4.1592 2.4677 -2.5089 0.9784
4.0692 2.6151 -2.5094 0.9784
3.8737 2.8998 -2.5103 0.9784
3.5434 3.2990 -2.5116 0.9784
3.4239 3.4239 -2.5120 0.9784
3.3001 3.5445 -2.5124 0.9784
3.0397 3.7721 -2.5132 0.9784
2.9036 3.8787 -2.5135 0.9784
2.7636 3.9804 -2.5139 0.9784
2.6202 4.0770 -2.5142 0.9784
2.3232 4.2546 -2.5148 0.9784
2.1701 4.3353 -2.5151 0.9784
1.6947 4.5438 -2.5158 0.9784
1.5316 4.6017 -2.5160 0.9784
1.0311 4.7401 -2.5166 0.9784
0.8613 4.7741 -2.5167 0.9784
0.5186 4.8238 -2.5169 0.9784
0.3461 4.8394 -2.5170 0.9784
0.1732 4.8488 -2.5171 0.9784
-0.1732 4.8489 -2.5171 0.9784
-0.3461 4.8396 -2.5171 0.9784
-0.5186 4.8242 -2.5171 0.9784
-0.6905 4.8025 -2.5171 0.9784
-1.1998 4.7008 -2.5168 0.9784
-1.5319 4.6027 -2.5166 0.9784
-1.6951 4.5448 -2.5164 0.9784
-2.1708 4.3366 -2.5159 0.9784
-3.0410 3.7737 -2.5143 0.9784
-3.3016 3.5462 -2.5136 0.9784
-3.4256 3.4256 -2.5132 0.9784
-3.6602 3.1715 -2.5125 0.9784
-3.7704 3.0384 -2.5121 0.9784
-3.9763 2.7608 -2.5113 0.9784
-4.0716 2.6166 -2.5108 0.9784
-4.1616 2.4692 -2.5104 0.9784
-4.3256 2.1652 -2.5095 0.9784
-4.3993 2.0091 -2.5090 0.9784
-4.5296 1.6895 -2.5080 0.9785
-4.6367 1.3615 -2.5070 0.9785
-4.6814 1.1949 -2.5065 0.9785
-4.7201 1.0268 -2.5060 0.9785
4.5645 0.1630 -2.5016 0.9794
4.5567 0.3259 -2.5021 0.9794
4.4676 0.9719 -2.5041 0.9794
3.9389 2.3371 -2.5085 0.9793
3.8537 2.4766 -2.5090 0.9793
3.7635 2.6131 -2.5094 0.9793
3.6685 2.7462 -2.5098 0.9793
3.5687 2.8759 -2.5103 0.9793
3.4644 3.0019 -2.5107 0.9793
3.3556 3.1241 -2.5111 0.9793
3.2424 3.2424 -2.5115 0.9793
3.1251 3.3566 -2.5119 0.9793
2.8785 3.5720 -2.5126 0.9793
2.7495 3.6730 -2.5129 0.9793
2.6170 3.7692 -2.5132 0.9793
2.4811 3.8607 -2.5136 0.9793
2.0549 4.1052 -2.5144 0.9793
1.9073 4.1763 -2.5146 0.9793
1.7572 4.2422 -2.5149 0.9793
1.6048 4.3025 -2.5151 0.9793
1.4503 4.3574 -2.5153 0.9793
1.1359 4.4504 -2.5156 0.9793
0.8156 4.5206 -2.5159 0.9793
0.6538 4.5470 -2.5160 0.9793
0.3277 4.5824 -2.5162 0.9793
0.0000 4.5943 -2.5163 0.9793
-0.6538 4.5474 -2.5163 0.9793
-1.1361 4.4511 -2.5160 0.9793
-1.6051 4.3035 -2.5157 0.9793
-1.9078 4.1775 -2.5153 0.9793
-2.4820 3.8621 -2.5144 0.9793
-2.7506 3.6744 -2.5139 0.9793
-3.0050 3.4680 -2.5133 0.9793
-3.1265 3.3581 -2.5130 0.9793
-3.4661 3.0034 -2.5119 0.9793
-3.6704 2.7476 -2.5112 0.9793
-3.7655 2.6144 -2.5108 0.9793
-3.8558 2.4780 -2.5104 0.9793
-4.0214 2.1958 -2.5095 0.9793
-4.0965 2.0506 -2.5091 0.9793
-4.1663 1.9027 -2.5086 0.9793
-4.3914 1.2894 -2.5067 0.9793
-4.5461 0.4887 -2.5042 0.9794
-4.5597 0.3261 -2.5037 0.9794
4.3321 0.0000 -2.5011 0.9802
4.3302 0.1547 -2.5016 0.9802
4.3227 0.3092 -2.5021 0.9802
4.3098 0.4633 -2.5026 0.9802
4.2674 0.7699 -2.5036 0.9802
4.1175 1.3704 -2.5055 0.9802
4.0667 1.5168 -2.5059 0.9802
4.0107 1.6613 -2.5064 0.9801
3.8834 1.9439 -2.5073 0.9801
3.8122 2.0816 -2.5077 0.9801
3.7362 2.2168 -2.5082 0.9801
3.5697 2.4785 -2.5090 0.9801
3.2859 2.8472 -2.5102 0.9801
3.1827 2.9631 -2.5106 0.9801
2.8489 3.2878 -2.5117 0.9801
2.3532 3.6616 -2.5129 0.9801
2.2212 3.7437 -2.5132 0.9801
2.0864 3.8210 -2.5135 0.9801
1.9489 3.8934 -2.5137 0.9801
1.8089 3.9609 -2.5140 0.9801
1.6665 4.0232 -2.5142 0.9801
1.5219 4.0805 -2.5144 0.9801
1.3754 4.1325 -2.5146 0.9801
1.2271 4.1793 -2.5148 0.9801
0.9260 4.2567 -2.5151 0.9801
0.6200 4.3123 -2.5153 0.9801
0.1555 4.3542 -2.5155 0.9801
-0.1555 4.3543 -2.5156 0.9801
-0.3108 4.3460 -2.5156 0.9801
-0.6201 4.3127 -2.5155 0.9801
-0.7736 4.2877 -2.5155 0.9801
-1.0774 4.2213 -2.5153 0.9801
-1.5223 4.0814 -2.5150 0.9801
-1.6669 4.0242 -2.5148 0.9801
-2.0870 3.8221 -2.5142 0.9801
-2.3540 3.6628 -2.5138 0.9801
-2.4830 3.5761 -2.5135 0.9801
-2.6087 3.4849 -2.5133 0.9801
-2.7312 3.3892 -2.5130 0.9801
-2.8500 3.2891 -2.5127 0.9801
-2.9653 3.1849 -2.5124 0.9801
-3.0767 3.0767 -2.5121 0.9801
-3.1841 2.9645 -2.5118 0.9801
-3.3865 2.7290 -2.5111 0.9801
-3.4813 2.6060 -2.5107 0.9801
-3.6572 2.3503 -2.5099 0.9801
-3.7381 2.2179 -2.5095 0.9801
-3.8856 1.9450 -2.5087 0.9801
-4.0691 1.5177 -2.5074 0.9801
-4.2057 1.0734 -2.5060 0.9802
-4.2406 0.9225 -2.5055 0.9802
-4.2700 0.7704 -2.5051 0.9802
-4.2939 0.6174 -2.5046 0.9802
-4.3254 0.3093 -2.5036 0.9802
