ply
format ascii 1.0
element vertex 1462
property float32 x
property float32 y
property float32 z
property float32 I
end_header
35.1295 2.5125 6.2101 0.8667
30.6431 4.4058 5.4588 0.8818
27.9114 5.0358 5.0010 0.8912
25.4102 6.4856 4.6241 0.8990
23.4671 6.8906 4.3125 0.9054
21.5580 8.0407 4.0570 0.9108
19.6907 8.9924 3.8169 0.9158
17.1907 9.3868 3.4536 0.9235
16.2397 10.4366 3.4038 0.9246
20.2342 15.1471 4.4568 0.9024
11.3285 12.1677 2.9314 0.9347
11.0403 12.7412 2.9727 0.9338
4.4684 5.5449 1.2557 0.9715
3.6625 5.6989 1.1945 0.9729
6.7722 13.5291 2.6677 0.9404
6.3870 13.9855 2.7110 0.9395
4.4831 15.2682 2.8059 0.9374
3.4110 15.6802 2.8295 0.9369
2.8080 15.5636 2.7886 0.9378
2.2061 15.3436 2.7333 0.9390
0.5923 16.5843 2.9261 0.9348
0.0000 23.6371 4.1679 0.9085
-0.6218 17.4109 3.0720 0.9317
-1.7129 23.9502 4.2339 0.9071
-0.8159 5.6748 1.0109 0.9770
-4.7582 18.6424 3.3925 0.9248
-6.5689 19.7363 3.6677 0.9190
-7.3111 19.6019 3.6890 0.9185
-8.1972 19.7897 3.7770 0.9167
-9.0487 19.8139 3.8408 0.9153
-10.3923 20.7613 4.0938 0.9100
-11.6262 21.2918 4.2775 0.9062
-13.8821 21.6009 4.5276 0.9010
-15.3551 22.1156 4.7474 0.8964
-17.6689 23.6029 5.1988 0.8871
-19.1417 23.7535 5.3791 0.8835
-14.1846 12.2910 3.3095 0.9266
40.8059 -0.0000 6.2512 0.8478
38.1812 1.3636 5.8529 0.8568
32.8459 3.5313 5.0608 0.8749
23.4689 6.8911 3.7471 0.9058
21.6696 8.0823 3.5430 0.9107
29.1236 12.0634 4.8292 0.8802
17.3241 7.9117 2.9176 0.9258
21.6984 15.0655 4.0467 0.8986
20.3054 15.2005 3.8857 0.9024
12.8335 11.1203 2.6014 0.9336
12.2102 11.3681 2.5558 0.9347
11.6410 11.6410 2.5220 0.9356
3.6646 5.7023 1.0384 0.9729
7.8651 13.2559 2.3613 0.9395
7.2781 13.3288 2.3265 0.9404
6.3337 13.8689 2.3357 0.9402
5.8228 14.0576 2.3310 0.9403
7.1658 21.5296 3.4761 0.9123
6.3720 21.7009 3.4648 0.9125
3.2759 15.0592 2.3609 0.9395
1.6725 15.5564 2.3969 0.9386
0.5929 16.6006 2.5447 0.9350
0.0000 23.6720 3.6264 0.9087
-1.7130 23.9514 3.6786 0.9074
-1.9133 17.7963 2.7420 0.9301
-0.8157 5.6732 0.8780 0.9771
-4.7806 18.7303 2.9614 0.9248
-9.0494 19.8153 3.3372 0.9156
-10.6470 21.2700 3.6439 0.9082
-11.8498 21.7013 3.7878 0.9048
-12.8897 21.7244 3.8698 0.9028
-15.8991 22.8992 4.2707 0.8933
-19.0733 23.6685 4.6567 0.8843
-14.1925 12.2979 2.8769 0.9268
41.7294 -0.0000 5.4340 0.8451
35.3670 2.5295 4.6173 0.8667
30.9672 4.4524 4.0740 0.8814
28.0669 5.0638 3.7139 0.8913
27.0847 5.8919 3.6095 0.8942
22.2443 7.4036 3.0529 0.9098
21.8064 8.1334 3.0307 0.9104
17.6980 8.8590 2.5773 0.9233
16.3837 10.5292 2.5361 0.9244
22.0593 15.3160 3.4971 0.8973
20.3066 15.2013 3.3032 0.9027
12.8342 11.1209 2.2114 0.9338
12.2109 11.3687 2.1726 0.9349
10.8170 12.4835 2.1510 0.9355
4.4165 5.4805 0.9166 0.9720
3.9867 5.3256 0.8663 0.9735
3.7563 5.4101 0.8577 0.9738
3.6668 5.7056 0.8832 0.9730
7.8920 13.3013 2.0140 0.9395
7.2784 13.3294 1.9777 0.9406
6.7728 13.5304 1.9703 0.9408
7.1661 21.5306 2.9550 0.9125
6.4102 21.8310 2.9629 0.9123
3.2878 15.1140 2.0142 0.9395
2.2063 15.3451 2.0188 0.9394
1.6726 15.5571 2.0375 0.9388
0.0000 23.7332 3.0906 0.9087
-0.8431 23.6071 3.0761 0.9091
-0.8154 5.6716 0.7462 0.9772
-3.7225 17.1121 2.2805 0.9318
-4.8404 18.9644 2.5487 0.9241
-7.9258 26.9929 3.6634 0.8927
-7.3978 19.8343 2.7567 0.9182
-8.1977 19.7911 2.7896 0.9172
-9.0500 19.8167 2.8369 0.9159
-15.8591 31.6826 4.6137 0.8668
-16.2529 29.7650 4.4162 0.8721
-13.9985 21.7821 3.3718 0.9008
-17.8667 23.8672 3.8824 0.8867
-19.2221 23.8532 3.9892 0.8838
-14.2004 12.3047 2.4468 0.9270
-26.6221 17.1090 4.1209 0.8802
35.8887 2.5668 3.8636 0.8652
32.7215 3.5179 3.5339 0.8760
28.0602 4.0345 3.0441 0.8922
28.0694 5.0643 3.0628 0.8916
27.2057 5.9182 2.9897 0.8940
35.6546 9.1003 3.9514 0.8624
22.2436 7.4034 2.5174 0.9100
21.8449 8.1477 2.5036 0.9105
29.3834 12.1710 3.4152 0.8799
17.7008 8.8604 2.1256 0.9235
20.3077 15.2021 2.7240 0.9030
13.7272 11.0621 1.8931 0.9315
12.8349 11.1215 1.8237 0.9340
12.2115 11.3693 1.7917 0.9351
11.2282 12.0599 1.7694 0.9359
4.3912 5.4492 0.7515 0.9722
3.7555 5.4090 0.7071 0.9739
3.6689 5.7089 0.7287 0.9731
7.9356 13.3748 1.6700 0.9394
7.2788 13.3301 1.6309 0.9407
6.3904 13.9931 1.6519 0.9400
5.8760 14.1858 1.6488 0.9401
5.4274 21.2643 2.3566 0.9155
3.3063 15.1989 1.6703 0.9393
2.2064 15.3458 1.6648 0.9395
1.6727 15.5579 1.6803 0.9390
0.5818 16.2901 1.7504 0.9365
-0.8432 23.6083 2.5367 0.9093
-1.7132 23.9540 2.5788 0.9079
-0.8152 5.6700 0.6151 0.9772
-3.1529 17.4751 1.9068 0.9311
-3.7226 17.1125 1.8805 0.9320
-4.6674 18.2868 2.0266 0.9269
-8.1037 27.5988 3.0887 0.8907
-6.7751 20.3558 2.3037 0.9173
-9.0506 19.8180 2.3395 0.9161
-15.9925 31.9490 3.8365 0.8661
-13.9997 21.7839 2.7806 0.9011
-18.0862 24.1604 3.2408 0.8857
-19.2239 23.8555 3.2899 0.8840
-14.2082 12.3115 2.0188 0.9272
42.5538 -0.0000 3.6023 0.8430
38.2756 1.3670 3.2422 0.8575
32.8719 3.5341 2.7987 0.8757
28.0460 4.0324 2.3986 0.8925
26.6027 5.7871 2.3047 0.8965
23.4743 6.8927 2.0711 0.9065
22.2429 7.4032 1.9845 0.9102
17.3212 7.9104 1.6120 0.9264
17.1949 9.3891 1.6585 0.9244
16.6798 9.8966 1.6418 0.9251
16.2441 10.4395 1.6346 0.9254
13.7269 11.0618 1.4924 0.9317
12.2122 11.3699 1.4125 0.9352
11.0123 12.7089 1.4235 0.9347
3.9850 5.3233 0.5629 0.9737
3.6710 5.7122 0.5748 0.9731
7.9355 13.3745 1.3165 0.9395
5.8758 14.1855 1.2998 0.9402
7.1086 21.3579 1.9055 0.9136
6.3588 21.6559 1.9106 0.9134
3.3062 15.1985 1.3167 0.9395
2.7819 15.4191 1.3263 0.9390
2.2065 15.3466 1.3125 0.9397
1.6727 15.5587 1.3247 0.9391
1.1282 15.7750 1.3388 0.9385
0.5818 16.2898 1.3799 0.9367
0.0000 23.4830 1.9879 0.9100
-0.8432 23.6095 1.9999 0.9095
-1.8853 17.5358 1.4930 0.9316
-3.1530 17.4761 1.5033 0.9312
-3.7263 17.1295 1.4840 0.9320
-7.2553 19.4523 1.7575 0.9200
-8.1980 19.7917 1.8135 0.9176
-9.0512 19.8194 1.8444 0.9163
-12.7512 21.4909 2.1154 0.9046
-14.0008 21.7857 2.1922 0.9013
-14.5160 20.9071 2.1546 0.9029
-18.1424 24.2355 2.5628 0.8856
-19.2258 23.8577 2.5938 0.8843
38.7576 -0.0000 2.4034 0.8561
38.1833 1.3637 2.3693 0.8580
23.4761 6.8932 1.5172 0.9066
22.2422 7.4029 1.4536 0.9103
21.4339 7.9944 1.4186 0.9124
28.3139 12.9305 1.9302 0.8827
18.0668 9.0436 1.2528 0.9222
16.2445 10.4397 1.1974 0.9255
21.5865 14.9877 1.6296 0.9000
13.7265 11.0615 1.0932 0.9318
12.8363 11.1227 1.0532 0.9342
12.2128 11.3705 1.0347 0.9353
11.2277 12.0594 1.0217 0.9361
11.0128 12.7094 1.0428 0.9348
4.3419 5.3880 0.4291 0.9726
3.9841 5.3222 0.4123 0.9737
3.7539 5.4067 0.4082 0.9740
7.9353 13.3742 0.9643 0.9396
7.2795 13.3313 0.9419 0.9409
5.8757 14.1852 0.9521 0.9403
7.9456 21.3030 1.4099 0.9129
6.4318 21.9046 1.4157 0.9126
1.1283 15.7758 0.9808 0.9386
0.5818 16.2894 1.0108 0.9368
0.0000 23.5748 1.4619 0.9098
-1.7134 23.9565 1.4894 0.9082
-3.1532 17.4771 1.1013 0.9313
-7.8346 26.6821 1.7244 0.8945
-9.0518 19.8207 1.3512 0.9164
-12.2366 22.4097 1.5833 0.9027
-12.8243 21.6142 1.5585 0.9042
-18.0430 24.1027 1.8670 0.8863
-43.3998 4.6659 2.7067 0.8395
-44.0389 3.1497 2.7378 0.8378
32.7340 3.5193 1.2982 0.8765
32.3731 4.6546 1.2896 0.8773
28.0769 5.0656 1.1250 0.8921
26.8557 5.8421 1.0837 0.8958
23.4779 6.8937 0.9648 0.9067
22.2415 7.4027 0.9243 0.9104
21.4332 7.9942 0.9020 0.9125
21.8193 9.0378 0.9312 0.9098
28.6395 13.0792 1.2415 0.8816
18.0679 9.0441 0.7967 0.9223
16.2448 10.4399 0.7614 0.9256
21.5859 14.9873 1.0362 0.9001
20.3111 15.2047 1.0004 0.9034
12.8369 11.1233 0.6698 0.9343
11.6375 11.6375 0.6490 0.9362
11.2274 12.0591 0.6497 0.9362
11.0132 12.7099 0.6631 0.9349
4.3178 5.3580 0.2713 0.9728
7.9351 13.3739 0.6132 0.9396
6.7741 13.5329 0.5967 0.9412
6.3900 13.9922 0.6065 0.9403
5.8756 14.1849 0.6054 0.9404
7.9460 21.3040 0.8966 0.9130
7.1906 21.6042 0.8978 0.9129
6.4321 21.9056 0.9002 0.9127
2.7818 15.4184 0.6178 0.9392
1.1284 15.7766 0.6237 0.9386
-1.7135 23.9577 0.9471 0.9083
-1.8858 17.5407 0.6956 0.9318
-0.8145 5.6652 0.2257 0.9773
-3.1534 17.4780 0.7003 0.9314
-3.8635 17.7602 0.7167 0.9298
-4.6927 18.3860 0.7482 0.9269
-7.8343 26.6814 1.0965 0.8947
-6.8314 20.5251 0.8530 0.9170
-8.1975 19.7904 0.8447 0.9178
-9.0524 19.8221 0.8593 0.9165
-10.3190 20.6148 0.9090 0.9118
-12.2376 22.4115 1.0069 0.9028
-12.8239 21.6135 0.9910 0.9043
-14.0030 21.7892 1.0213 0.9015
-15.8337 22.8048 1.0947 0.8948
-18.0443 24.1044 1.1873 0.8864
-14.2316 12.3317 0.7425 0.9274
38.1652 1.3631 0.6451 0.8583
32.7325 3.5191 0.5561 0.8766
26.8546 5.8419 0.4642 0.8959
23.4797 6.8942 0.4134 0.9067
22.2408 7.4025 0.3960 0.9105
21.4325 7.9939 0.3864 0.9126
28.6414 13.0801 0.5319 0.8816
18.0690 9.0447 0.3413 0.9223
16.2451 10.4401 0.3262 0.9257
20.3122 15.2055 0.4286 0.9035
12.8376 11.1239 0.2869 0.9343
12.2141 11.3717 0.2819 0.9354
11.2272 12.0589 0.2783 0.9362
4.2939 5.3284 0.1156 0.9730
3.7524 5.4044 0.1111 0.9740
3.6773 5.7220 0.1149 0.9732
7.9349 13.3736 0.2627 0.9397
7.2801 13.3326 0.2566 0.9410
6.7744 13.5336 0.2556 0.9413
6.3899 13.9919 0.2598 0.9403
7.9463 21.3050 0.3841 0.9130
7.1909 21.6052 0.3846 0.9129
5.4619 21.3994 0.3731 0.9154
2.7817 15.4180 0.2646 0.9392
1.6730 15.5609 0.2644 0.9393
0.5818 16.2887 0.2753 0.9369
0.0000 23.5737 0.3982 0.9100
-0.8433 23.6131 0.3991 0.9098
-1.7136 23.9589 0.4058 0.9084
-3.1536 17.4790 0.3000 0.9314
-4.6926 18.3856 0.3205 0.9269
-7.8341 26.6807 0.4697 0.8947
-8.1972 19.7898 0.3618 0.9179
-10.3187 20.6141 0.3894 0.9119
-12.2386 22.4133 0.4314 0.9029
-12.8234 21.6126 0.4245 0.9044
-14.0042 21.7909 0.4375 0.9016
-18.0456 24.1061 0.5086 0.8865
-19.2313 23.8645 0.5177 0.8846
42.8192 -0.0000 -0.2411 0.8426
38.1632 1.3630 -0.2150 0.8583
32.3743 4.6547 -0.1842 0.8774
28.0819 5.0665 -0.1606 0.8921
22.2401 7.4022 -0.1320 0.9105
21.8204 9.0383 -0.1330 0.9099
28.6432 13.0809 -0.1773 0.8817
17.1991 9.3914 -0.1103 0.9246
16.6781 9.8956 -0.1092 0.9254
16.2455 10.4403 -0.1087 0.9257
21.5848 14.9866 -0.1479 0.9002
12.8383 11.1244 -0.0956 0.9343
12.2147 11.3723 -0.0940 0.9354
11.6360 11.6361 -0.0926 0.9363
11.2269 12.0586 -0.0928 0.9362
11.0141 12.7109 -0.0947 0.9349
4.2704 5.2992 -0.0383 0.9731
3.9816 5.3188 -0.0374 0.9738
3.7516 5.4033 -0.0370 0.9740
7.9348 13.3733 -0.0875 0.9397
7.2805 13.3332 -0.0855 0.9410
6.7747 13.5342 -0.0852 0.9413
6.3898 13.9916 -0.0866 0.9403
5.8753 14.1843 -0.0864 0.9404
7.1912 21.6062 -0.1282 0.9129
5.4617 21.3989 -0.1243 0.9154
3.3059 15.1971 -0.0876 0.9397
2.2069 15.3495 -0.0873 0.9399
1.1285 15.7781 -0.0891 0.9387
0.5817 16.2883 -0.0918 0.9369
-0.8434 23.6143 -0.1330 0.9098
-1.7137 23.9602 -0.1352 0.9084
-1.8864 17.5458 -0.0994 0.9318
-7.8339 26.6800 -0.1565 0.8947
-7.2582 19.4599 -0.1170 0.9203
-9.0537 19.8248 -0.1227 0.9165
-10.3184 20.6135 -0.1298 0.9119
-14.0053 21.7927 -0.1458 0.9016
-18.0468 24.1078 -0.1696 0.8865
-14.2471 12.3452 -0.1061 0.9274
42.8198 -0.0000 -1.2057 0.8425
38.1611 1.3629 -1.0752 0.8583
37.7326 2.6987 -1.0652 0.8595
32.3750 4.6548 -0.9210 0.8773
28.0844 5.0670 -0.8036 0.8921
27.1240 6.9230 -0.7882 0.8940
22.2394 7.4020 -0.6600 0.9105
21.4311 7.9934 -0.6441 0.9125
21.8209 9.0385 -0.6650 0.9098
28.6451 13.0818 -0.8867 0.8816
18.0713 9.0458 -0.5690 0.9223
16.6776 9.8953 -0.5460 0.9253
16.2459 10.4406 -0.5438 0.9256
21.5842 14.9862 -0.7399 0.9002
20.3144 15.2072 -0.7145 0.9034
13.7252 11.0604 -0.4963 0.9319
12.2153 11.3729 -0.4699 0.9354
3.9808 5.3177 -0.1870 0.9738
3.7508 5.4022 -0.1852 0.9740
7.2808 13.3338 -0.4278 0.9410
5.8752 14.1840 -0.4323 0.9404
7.9471 21.3069 -0.6403 0.9130
7.1916 21.6072 -0.6412 0.9129
3.3059 15.1968 -0.4379 0.9397
1.1285 15.7789 -0.4454 0.9387
0.5817 16.2880 -0.4589 0.9369
0.0000 23.5725 -0.6638 0.9100
-0.8434 23.6155 -0.6654 0.9098
-1.7137 23.9614 -0.6764 0.9083
-0.8139 5.6607 -0.1610 0.9774
-3.1539 17.4809 -0.5002 0.9314
-3.8641 17.7632 -0.5119 0.9298
-4.6924 18.3846 -0.5343 0.9269
-7.8337 26.6793 -0.7829 0.8947
-8.1967 19.7886 -0.6031 0.9179
-10.3180 20.6129 -0.6491 0.9119
-12.2406 22.4170 -0.7192 0.9028
-14.0064 21.7944 -0.7295 0.9015
-15.8319 22.8023 -0.7816 0.8949
38.0077 1.3574 -1.9288 0.8587
32.6000 3.5049 -1.6628 0.8769
28.0868 5.0674 -1.4474 0.8920
26.8515 5.8412 -1.3936 0.8958
27.1247 6.9232 -1.4197 0.8939
22.2387 7.4018 -1.1887 0.9104
21.8215 9.0387 -1.1978 0.9097
17.2012 9.3926 -0.9939 0.9245
16.6771 9.8950 -0.9834 0.9253
16.2463 10.4409 -0.9794 0.9256
20.3155 15.2080 -1.2870 0.9034
13.7248 11.0601 -0.8939 0.9318
12.8397 11.1256 -0.8616 0.9342
12.2159 11.3735 -0.8465 0.9353
11.0149 12.7119 -0.8530 0.9349
4.2240 5.2417 -0.3414 0.9734
3.7500 5.4011 -0.3335 0.9740
3.6836 5.7318 -0.3455 0.9731
7.2812 13.3345 -0.7705 0.9410
6.7754 13.5355 -0.7676 0.9412
6.3895 13.9911 -0.7800 0.9403
7.9475 21.3079 -1.1533 0.9129
5.4615 21.3979 -1.1200 0.9153
3.3058 15.1964 -0.7887 0.9396
2.2071 15.3510 -0.7865 0.9398
0.5817 16.2876 -0.8265 0.9368
0.0000 23.5720 -1.1954 0.9099
-1.7138 23.9627 -1.2184 0.9083
-1.8869 17.5509 -0.8952 0.9317
-0.8138 5.6600 -0.2900 0.9774
-6.8341 20.5331 -1.0975 0.9170
-7.2596 19.4638 -1.0535 0.9202
-9.0549 19.8274 -1.1054 0.9164
-10.3177 20.6122 -1.1690 0.9118
-12.2416 22.4189 -1.2954 0.9028
-15.8313 22.8014 -1.4078 0.8948
-14.1202 13.1463 -0.9784 0.9256
-14.2627 12.3587 -0.9571 0.9272
-40.3560 25.9353 -2.4328 0.8252
-41.3085 24.5095 -2.4359 0.8250
-43.0655 21.5570 -2.4424 0.8246
-43.8677 20.0337 -2.4457 0.8244
-45.9547 15.2952 -2.4563 0.8237
-47.0693 12.0137 -2.4636 0.8232
-48.3078 6.9456 -2.4751 0.8224
-48.6018 5.2252 -2.4790 0.8222
-48.7957 3.4899 -2.4810 0.8221
32.1405 -0.0000 -2.3566 0.8791
31.9861 2.2877 -2.3513 0.8793
31.8479 3.4240 -2.3486 0.8794
31.6696 4.5534 -2.3460 0.8796
28.0893 5.0679 -2.0928 0.8918
26.7503 5.8192 -2.0073 0.8960
27.0596 6.9065 -2.0477 0.8940
21.3510 7.9635 -1.6708 0.9127
28.6488 13.0835 -2.3093 0.8813
17.2022 9.3931 -1.4371 0.9244
16.6767 9.8947 -1.4218 0.9252
20.3166 15.2088 -1.8608 0.9032
12.2166 11.3741 -1.2239 0.9352
11.0154 12.7125 -1.2334 0.9348
4.2139 5.2291 -0.4924 0.9734
3.7492 5.3999 -0.4820 0.9740
7.2815 13.3351 -1.1140 0.9409
6.7757 13.5361 -1.1099 0.9411
6.3894 13.9908 -1.1277 0.9402
3.3057 15.1961 -1.1403 0.9395
2.7815 15.4166 -1.1486 0.9391
-0.8435 23.6179 -1.7328 0.9096
-1.7139 23.9639 -1.7616 0.9081
-0.8137 5.6594 -0.4192 0.9773
-4.6921 18.3836 -1.3911 0.9267
-7.8135 26.6105 -2.0335 0.8947
-7.2603 19.4657 -1.5233 0.9201
-8.1642 19.7101 -1.5643 0.9180
-9.0555 19.8288 -1.5983 0.9163
-10.2806 20.5380 -1.6840 0.9120
-12.2082 22.3576 -1.8678 0.9029
-14.0087 21.7979 -1.8999 0.9013
-18.0091 24.0573 -2.2034 0.8865
-20.4561 23.6075 -2.2904 0.8822
-13.9437 12.9820 -1.3969 0.9264
-24.4102 19.6710 -2.2986 0.8818
-25.7937 17.9089 -2.3024 0.8817
-28.1519 18.0921 -2.4537 0.8744
-31.0615 12.8661 -2.4651 0.8739
-31.5323 11.7610 -2.4676 0.8737
-31.9645 10.6388 -2.4701 0.8736
-32.3572 9.5009 -2.4727 0.8735
-33.0222 7.1835 -2.4779 0.8732
-33.2933 6.0068 -2.4806 0.8731
-33.5230 4.8199 -2.4833 0.8730
-33.7106 3.6242 -2.4860 0.8729
-33.8560 2.4214 -2.4887 0.8727
-33.9587 1.2128 -2.4915 0.8726
24.5295 -0.0000 -2.3549 0.9061
24.4926 0.8747 -2.3529 0.9062
24.4246 1.7469 -2.3509 0.9063
24.1959 3.4788 -2.3468 0.9064
23.8450 5.1872 -2.3428 0.9066
23.6245 6.0298 -2.3408 0.9067
22.2373 7.4013 -2.2500 0.9101
21.3503 7.9633 -2.1877 0.9125
17.2033 9.3937 -1.8818 0.9243
19.8667 13.7937 -2.3220 0.9074
19.3475 14.4833 -2.3202 0.9075
13.6743 11.0195 -1.6860 0.9319
12.4070 10.7507 -1.5761 0.9362
4.2130 5.2280 -0.6446 0.9734
3.6879 5.7384 -0.6549 0.9730
7.9341 13.3721 -1.4928 0.9394
6.3892 13.9905 -1.4766 0.9401
5.8748 14.1831 -1.4738 0.9402
7.9482 21.3099 -2.1835 0.9127
2.2074 15.3525 -1.4891 0.9396
1.6734 15.5647 -1.5029 0.9390
1.1287 15.7812 -1.5190 0.9384
0.0000 23.5090 -2.2570 0.9099
-0.8436 23.6191 -2.2690 0.9094
-1.8732 17.4231 -1.6823 0.9320
-0.8136 5.6587 -0.5488 0.9773
-3.1544 17.4838 -1.7056 0.9311
-4.6748 18.3157 -1.8148 0.9269
-6.8093 20.4587 -2.0701 0.9170
-9.0561 19.8301 -2.0929 0.9161
-12.2201 20.5959 -2.2992 0.9083
-13.6689 19.6870 -2.3010 0.9082
-14.3690 19.1948 -2.3019 0.9081
-15.0518 18.6782 -2.3030 0.9081
-13.2762 12.3606 -1.7415 0.9297
-13.4729 11.6743 -1.7115 0.9309
-14.3165 11.5369 -1.7652 0.9288
-19.7934 13.7428 -2.3134 0.9077
-22.0303 13.0712 -2.4593 0.9022
-23.0069 11.5164 -2.4700 0.9018
-23.4204 10.6957 -2.4719 0.9017
-23.8051 9.8604 -2.4737 0.9016
-24.4856 8.1496 -2.4775 0.9015
-25.8888 1.8516 -2.4918 0.9010
19.8164 0.0000 -2.3539 0.9233
19.7900 0.7068 -2.3523 0.9233
19.1074 4.8769 -2.3425 0.9236
18.9082 5.5519 -2.3408 0.9237
18.4389 6.8774 -2.3377 0.9238
17.5633 8.7915 -2.3330 0.9239
17.2043 9.3943 -2.3284 0.9241
16.6124 9.8566 -2.2945 0.9251
16.1588 10.3846 -2.2816 0.9255
16.0929 11.1735 -2.3272 0.9241
12.2179 11.3752 -1.9830 0.9350
11.6325 11.6325 -1.9541 0.9359
11.1837 12.0121 -1.9496 0.9360
10.8832 12.5599 -1.9741 0.9352
3.9774 5.3132 -0.7884 0.9736
3.7488 5.3993 -0.7808 0.9739
3.6900 5.7418 -0.8107 0.9729
7.2822 13.3364 -1.8050 0.9406
6.7763 13.5374 -1.7983 0.9408
6.3646 13.9365 -1.8199 0.9402
6.7926 18.2116 -2.3089 0.9247
6.1365 18.4371 -2.3082 0.9247
5.4730 18.6394 -2.3076 0.9247
4.8031 18.8183 -2.3070 0.9247
3.2936 15.1404 -1.8405 0.9395
2.7709 15.3580 -1.8538 0.9391
1.6735 15.5655 -1.8596 0.9389
1.1287 15.7820 -1.8795 0.9383
0.5795 16.2265 -1.9287 0.9367
-0.6924 19.3880 -2.3045 0.9248
-1.3840 19.3504 -2.3044 0.9248
-1.8734 17.4256 -2.0818 0.9318
-3.1546 17.4848 -2.1105 0.9309
-3.8650 17.7672 -2.1598 0.9294
-5.4674 18.6204 -2.3052 0.9248
-6.1294 18.4160 -2.3055 0.9248
-7.4303 17.9382 -2.3064 0.9248
-8.0675 17.6654 -2.3069 0.9248
-8.6949 17.3703 -2.3074 0.9247
-9.3118 17.0533 -2.3080 0.9247
-9.9173 16.7148 -2.3087 0.9247
-10.5108 16.3551 -2.3094 0.9247
-11.0915 15.9748 -2.3101 0.9247
-12.2116 15.1537 -2.3118 0.9246
-12.7497 14.7139 -2.3127 0.9246
-12.7266 13.6693 -2.2185 0.9275
-12.9581 12.9581 -2.1768 0.9288
-13.2556 12.3414 -2.1514 0.9296
-13.4941 11.6927 -2.1210 0.9306
-14.1157 11.3751 -2.1534 0.9296
-16.0447 11.1401 -2.3202 0.9243
-17.9062 10.6243 -2.4732 0.9196
-18.2843 9.9840 -2.4746 0.9195
-18.6399 9.3305 -2.4761 0.9195
-18.9723 8.6643 -2.4775 0.9194
-19.2812 7.9865 -2.4790 0.9194
-19.8265 6.5989 -2.4821 0.9193
-20.2729 5.1743 -2.4853 0.9192
-20.4581 4.4504 -2.4870 0.9191
-20.6177 3.7198 -2.4886 0.9191
-20.8587 2.2425 -2.4920 0.9190
-20.9398 1.4976 -2.4937 0.9189
-20.9944 0.7498 -2.4954 0.9189
16.6082 -0.0000 -2.3532 0.9351
16.4841 1.7722 -2.3491 0.9352
16.4007 2.3581 -2.3477 0.9353
16.0267 4.0906 -2.3436 0.9354
15.8613 4.6573 -2.3423 0.9354
15.6760 5.2175 -2.3409 0.9354
15.4710 5.7704 -2.3396 0.9355
15.2466 6.3154 -2.3383 0.9355
15.0032 6.8517 -2.3370 0.9355
14.7410 7.3788 -2.3357 0.9356
14.4605 7.8960 -2.3344 0.9356
14.1619 8.4026 -2.3332 0.9356
13.8457 8.8981 -2.3320 0.9357
12.7960 10.3116 -2.3285 0.9358
12.0164 11.1876 -2.3263 0.9358
11.6041 11.6041 -2.3252 0.9359
4.2112 5.2258 -0.9509 0.9733
3.9766 5.3120 -0.9402 0.9735
3.6922 5.7451 -0.9676 0.9728
7.9037 13.3210 -2.1947 0.9393
7.2825 13.3370 -2.1531 0.9405
5.8528 14.1300 -2.1670 0.9401
5.7106 15.3107 -2.3153 0.9361
5.1592 15.5010 -2.3148 0.9361
4.0385 15.8228 -2.3138 0.9362
3.2935 15.1401 -2.1954 0.9393
1.6735 15.5662 -2.2183 0.9387
1.1288 15.7828 -2.2420 0.9381
0.5795 16.2261 -2.3005 0.9365
-0.5823 16.3046 -2.3117 0.9362
-1.7439 16.2211 -2.3116 0.9362
-0.8134 5.6573 -0.8098 0.9772
-4.0355 15.8108 -2.3120 0.9362
-5.1543 15.4861 -2.3126 0.9362
-5.7045 15.2944 -2.3129 0.9362
-7.3106 14.6048 -2.3141 0.9361
-8.3377 14.0525 -2.3152 0.9361
-8.8362 13.7494 -2.3158 0.9361
-9.3239 13.4290 -2.3164 0.9361
-9.8001 13.0915 -2.3171 0.9361
-11.5791 11.5790 -2.3202 0.9360
-12.3851 10.7318 -2.3220 0.9359
-13.1563 9.8487 -2.3286 0.9358
-15.9305 7.2752 -2.4814 0.9317
-16.1882 6.7054 -2.4827 0.9317
-16.4258 6.1265 -2.4840 0.9316
-16.6428 5.5392 -2.4853 0.9316
-16.8389 4.9444 -2.4866 0.9316
-17.0140 4.3425 -2.4880 0.9315
-17.4098 2.5031 -2.4922 0.9314
-17.4981 1.8812 -2.4936 0.9314
-17.5642 1.2562 -2.4950 0.9313
14.2651 0.5095 -2.3515 0.9438
14.2306 1.0178 -2.3503 0.9438
14.0191 2.5293 -2.3468 0.9439
13.7891 3.5195 -2.3444 0.9439
13.4896 4.4898 -2.3421 0.9440
13.3143 4.9660 -2.3410 0.9440
13.1222 5.4354 -2.3399 0.9440
12.9137 5.8975 -2.3387 0.9441
12.6890 6.3516 -2.3376 0.9441
12.1923 7.2340 -2.3355 0.9441
11.9210 7.6611 -2.3344 0.9442
10.6910 9.2638 -2.3304 0.9443
10.3494 9.6357 -2.3295 0.9443
9.9950 9.9950 -2.3286 0.9443
9.6282 10.3415 -2.3277 0.9443
9.2496 10.6746 -2.3269 0.9443
6.3085 12.6027 -2.3217 0.9445
5.3907 13.0142 -2.3206 0.9445
4.4466 13.3598 -2.3196 0.9445
3.9661 13.5074 -2.3191 0.9445
3.4809 13.6379 -2.3187 0.9445
2.9914 13.7513 -2.3184 0.9445
2.4983 13.8473 -2.3180 0.9446
1.5038 13.9870 -2.3175 0.9446
0.5020 14.0563 -2.3171 0.9446
0.0000 14.0643 -2.3170 0.9446
-0.5020 14.0550 -2.3169 0.9446
-1.0033 14.0279 -2.3168 0.9446
-1.5033 13.9831 -2.3168 0.9446
-3.9632 13.4974 -2.3174 0.9446
-4.4429 13.3487 -2.3177 0.9446
-3.4936 6.3980 -1.2009 0.9709
-8.4453 11.2816 -2.3216 0.9445
-9.2337 10.6562 -2.3229 0.9444
-9.9764 9.9764 -2.3243 0.9444
-10.6698 9.2454 -2.3258 0.9444
-12.0228 9.0002 -2.4741 0.9409
-12.3616 8.5828 -2.4792 0.9408
-13.2241 7.2209 -2.4821 0.9407
-13.4790 6.7471 -2.4832 0.9407
-13.9381 5.7733 -2.4853 0.9407
-14.1416 5.2745 -2.4864 0.9406
-14.3274 4.7686 -2.4876 0.9406
-14.6447 3.7378 -2.4899 0.9406
-14.7758 3.2143 -2.4911 0.9405
-14.9819 2.1541 -2.4935 0.9405
-15.0567 1.6187 -2.4947 0.9405
-15.1123 1.0808 -2.4960 0.9404
12.5149 -0.0000 -2.3523 0.9503
12.3657 1.7779 -2.3482 0.9504
12.2889 2.2172 -2.3471 0.9504
12.1966 2.6532 -2.3461 0.9505
12.0888 3.0855 -2.3451 0.9505
11.9658 3.5135 -2.3441 0.9505
11.8277 3.9366 -2.3430 0.9505
11.6746 4.3544 -2.3420 0.9506
11.3247 5.1718 -2.3401 0.9506
11.1283 5.5704 -2.3391 0.9506
10.6939 6.3450 -2.3372 0.9507
10.4565 6.7200 -2.3363 0.9507
9.6673 7.7904 -2.3336 0.9507
4.2093 5.2235 -1.2609 0.9731
6.3153 10.6439 -2.3263 0.9509
5.9299 10.8598 -2.3257 0.9509
5.5372 11.0619 -2.3251 0.9509
5.1377 11.2500 -2.3246 0.9509
4.3203 11.5831 -2.3237 0.9509
2.6261 12.0722 -2.3222 0.9510
2.1933 12.1567 -2.3219 0.9510
1.7578 12.2259 -2.3216 0.9510
1.3202 12.2797 -2.3214 0.9510
0.8810 12.3180 -2.3212 0.9510
-0.8808 12.3160 -2.3208 0.9510
-2.1924 12.1518 -2.3209 0.9510
-2.6249 12.0663 -2.3210 0.9510
-3.0540 11.9656 -2.3212 0.9510
-3.4794 11.8499 -2.3213 0.9510
-3.9005 11.7192 -2.3216 0.9510
-3.6165 6.6231 -1.4184 0.9698
-7.0531 10.1584 -2.3245 0.9509
-8.1043 9.3528 -2.3261 0.9509
-8.4351 9.0600 -2.3267 0.9509
-9.0650 8.4398 -2.3280 0.9508
-10.2612 8.2690 -2.4770 0.9478
-10.5673 7.9106 -2.4811 0.9477
-10.8465 7.5309 -2.4819 0.9477
-11.1122 7.1414 -2.4828 0.9477
-11.3639 6.7425 -2.4837 0.9476
-11.6015 6.3349 -2.4845 0.9476
-12.4039 4.6264 -2.4883 0.9475
-12.5661 4.1824 -2.4893 0.9475
-12.7125 3.7327 -2.4903 0.9475
-12.8429 3.2780 -2.4914 0.9475
-12.9572 2.8186 -2.4924 0.9475
-13.0550 2.3554 -2.4935 0.9474
-13.2491 0.9476 -2.4967 0.9474
11.0899 0.7932 -2.3502 0.9556
10.9964 1.5810 -2.3483 0.9556
10.8471 2.3596 -2.3465 0.9556
10.7518 2.7442 -2.3456 0.9556
10.2361 4.2399 -2.3420 0.9557
10.0745 4.6009 -2.3411 0.9557
9.7135 5.3040 -2.3394 0.9558
9.5146 5.6453 -2.3386 0.9558
9.3038 5.9792 -2.3378 0.9558
9.0814 6.3053 -2.3369 0.9558
8.8475 6.6232 -2.3362 0.9558
8.6027 6.9325 -2.3354 0.9558
8.3471 7.2328 -2.3346 0.9558
8.0811 7.5237 -2.3339 0.9559
4.2084 5.2223 -1.4177 0.9730
3.7573 5.4116 -1.3926 0.9734
3.6987 5.7553 -1.4461 0.9724
3.8930 7.1294 -1.7170 0.9673
3.6207 7.2333 -1.7098 0.9675
4.5739 10.0154 -2.3274 0.9560
3.4752 10.4414 -2.3261 0.9560
2.7207 10.6596 -2.3255 0.9560
1.9529 10.8240 -2.3249 0.9560
1.5651 10.8857 -2.3247 0.9560
1.1755 10.9337 -2.3245 0.9560
0.7844 10.9679 -2.3243 0.9560
0.0000 10.9949 -2.3241 0.9560
-0.3924 10.9875 -2.3240 0.9560
-0.7843 10.9663 -2.3240 0.9560
-1.9522 10.8200 -2.3241 0.9560
-2.3372 10.7439 -2.3242 0.9560
-3.0981 10.5511 -2.3244 0.9560
-3.4730 10.4346 -2.3246 0.9560
-4.2094 10.1623 -2.3251 0.9560
-4.5700 10.0068 -2.3254 0.9560
-3.2336 6.4598 -1.5270 0.9709
-3.4945 6.3997 -1.5413 0.9706
-5.6159 9.4651 -2.3264 0.9560
-6.9111 8.5761 -2.3282 0.9560
-7.5087 8.0649 -2.3292 0.9559
-8.8649 7.6814 -2.4795 0.9532
-9.1453 7.3697 -2.4827 0.9531
-9.4051 7.0406 -2.4834 0.9531
-9.8893 6.3555 -2.4849 0.9531
-10.3241 5.6374 -2.4864 0.9530
-10.8784 4.5060 -2.4889 0.9530
-11.0362 4.1163 -2.4898 0.9530
-11.3098 3.3209 -2.4916 0.9530
-11.4253 2.9161 -2.4925 0.9529
-11.6129 2.0952 -2.4944 0.9529
-11.7417 1.2624 -2.4963 0.9529
-11.7839 0.8428 -2.4972 0.9528
10.6547 -0.0000 -2.5041 0.9572
9.9387 1.0685 -2.3493 0.9598
9.8302 1.7736 -2.3476 0.9598
9.7572 2.1225 -2.3468 0.9598
9.4645 3.1501 -2.3443 0.9598
9.3428 3.4847 -2.3435 0.9599
9.0643 4.1395 -2.3420 0.9599
8.7402 4.7725 -2.3404 0.9599
8.3721 5.3804 -2.3389 0.9599
7.7420 6.2389 -2.3368 0.9600
7.0247 7.0247 -2.3348 0.9600
6.7677 7.2690 -2.3342 0.9600
6.5023 7.5040 -2.3336 0.9600
3.9731 5.3074 -1.5582 0.9731
3.7010 5.7588 -1.6089 0.9723
4.7521 8.7029 -2.3304 0.9601
3.4628 9.2841 -2.3288 0.9601
3.1288 9.4004 -2.3285 0.9601
2.4495 9.5972 -2.3279 0.9601
2.1052 9.6774 -2.3276 0.9601
1.7583 9.7454 -2.3274 0.9601
1.0584 9.8444 -2.3270 0.9601
0.0000 9.8996 -2.3266 0.9601
-1.0582 9.8424 -2.3265 0.9601
-1.7577 9.7422 -2.3266 0.9601
-2.1044 9.6736 -2.3267 0.9601
-3.1269 9.3949 -2.3271 0.9601
-4.1145 9.0095 -2.3278 0.9601
-5.0560 8.5214 -2.3287 0.9601
-5.3578 8.3368 -2.3291 0.9601
-6.4944 7.4949 -2.3308 0.9601
-7.4476 7.4476 -2.4754 0.9576
-7.7281 7.1951 -2.4816 0.9575
-7.9876 6.9213 -2.4840 0.9575
-8.4652 6.3370 -2.4852 0.9575
-8.9005 5.7200 -2.4866 0.9575
-9.2912 5.0734 -2.4880 0.9574
-9.4691 4.7399 -2.4887 0.9574
-9.6352 4.4002 -2.4895 0.9574
-9.7891 4.0548 -2.4902 0.9574
-10.0598 3.3482 -2.4918 0.9574
-10.2798 2.6237 -2.4934 0.9573
-10.3703 2.2559 -2.4943 0.9573
-10.5120 1.5114 -2.4960 0.9573
-10.6244 0.3794 -2.4986 0.9573
9.6613 0.3450 -2.5031 0.9608
9.6240 0.6883 -2.4982 0.9609
8.6921 2.5522 -2.3456 0.9633
8.5928 2.8600 -2.3448 0.9633
7.9364 4.3336 -2.3413 0.9633
7.6026 4.8859 -2.3399 0.9633
7.4213 5.1527 -2.3393 0.9634
7.2307 5.4128 -2.3386 0.9634
7.0310 5.6659 -2.3380 0.9634
6.6054 6.1499 -2.3368 0.9634
6.3801 6.3801 -2.3362 0.9634
5.7100 6.1330 -2.1696 0.9660
3.9722 5.3062 -1.7162 0.9730
3.7617 5.4179 -1.7078 0.9731
4.5971 7.7480 -2.3326 0.9635
4.3168 7.9057 -2.3322 0.9635
3.1458 8.4342 -2.3307 0.9635
2.8424 8.5399 -2.3304 0.9635
1.9126 8.7919 -2.3296 0.9635
1.5974 8.8537 -2.3294 0.9635
0.3210 8.9887 -2.3288 0.9635
0.0000 8.9941 -2.3287 0.9635
-0.3210 8.9881 -2.3287 0.9635
-0.9614 8.9422 -2.3286 0.9635
-0.8129 5.6539 -1.4789 0.9767
-1.5969 8.8511 -2.3287 0.9635
-2.2244 8.7153 -2.3289 0.9635
-2.5342 8.6308 -2.3290 0.9635
-3.1439 8.4292 -2.3293 0.9635
-3.4431 8.3124 -2.3296 0.9635
-3.7380 8.1850 -2.3298 0.9635
-3.4953 6.4011 -1.8884 0.9703
-4.5931 7.7413 -2.3306 0.9635
-4.8672 7.5735 -2.3310 0.9635
-5.6516 7.0132 -2.3321 0.9635
-5.9923 6.9155 -2.3692 0.9629
-6.5215 7.0046 -2.4780 0.9612
-7.4766 6.0251 -2.4862 0.9611
-7.6887 5.7557 -2.4867 0.9611
-7.8911 5.4789 -2.4873 0.9611
-8.0837 5.1950 -2.4880 0.9611
-8.2660 4.9045 -2.4886 0.9611
-8.8895 3.6821 -2.4913 0.9610
-9.0178 3.3635 -2.4920 0.9610
-9.1348 3.0403 -2.4927 0.9610
-9.2402 2.7132 -2.4935 0.9610
-9.3340 2.3823 -2.4942 0.9610
-9.5898 1.0310 -2.4973 0.9609
8.8359 0.3156 -2.5030 0.9639
8.7753 0.9434 -2.4985 0.9640
8.0316 2.0499 -2.3466 0.9661
7.7598 2.8942 -2.3446 0.9662
7.6494 3.1685 -2.3439 0.9662
7.3998 3.7040 -2.3426 0.9662
7.2609 3.9647 -2.3420 0.9662
6.7901 4.7145 -2.3401 0.9662
6.6159 4.9526 -2.3395 0.9662
6.4333 5.1843 -2.3390 0.9662
4.3658 4.3658 -1.7479 0.9747
4.1294 4.4353 -1.7155 0.9751
4.8321 5.5766 -2.0889 0.9698
4.2056 5.2188 -1.8974 0.9725
3.7055 5.7659 -1.9403 0.9719
3.6975 6.7715 -2.1841 0.9684
3.1532 7.6126 -2.3326 0.9663
2.8791 7.7192 -2.3323 0.9663
2.0368 7.9801 -2.3315 0.9663
1.1718 8.1500 -2.3309 0.9663
0.0000 8.2323 -2.3305 0.9664
-0.2938 8.2268 -2.3304 0.9664
-0.5873 8.2110 -2.3304 0.9664
-0.8799 8.1848 -2.3304 0.9664
-0.8128 5.6532 -1.6168 0.9765
-1.4617 8.1014 -2.3305 0.9664
-1.7499 8.0443 -2.3305 0.9664
-3.4212 7.4914 -2.3315 0.9663
-3.2340 6.4606 -2.0453 0.9704
-4.6998 6.7690 -2.3329 0.9663
-4.9391 6.5979 -2.3332 0.9663
-6.2095 6.2095 -2.4860 0.9642
-6.4284 5.9851 -2.4865 0.9641
-7.0357 5.2669 -2.4880 0.9641
-7.5635 4.4877 -2.4897 0.9641
-7.8682 3.9385 -2.4909 0.9641
-8.0058 3.6561 -2.4915 0.9641
-8.3573 2.7816 -2.4935 0.9640
-8.4535 2.4822 -2.4942 0.9640
-8.5391 2.1795 -2.4948 0.9640
-8.7305 1.2552 -2.4969 0.9640
-8.7722 0.9431 -2.4977 0.9640
8.1396 -0.0000 -2.5036 0.9665
8.1144 0.5803 -2.5022 0.9665
8.0864 0.8694 -2.5015 0.9665
8.0419 1.1563 -2.4990 0.9666
7.6820 1.6711 -2.4181 0.9676
7.3930 1.8869 -2.3468 0.9686
7.2357 2.4083 -2.3456 0.9686
7.1433 2.6643 -2.3450 0.9686
6.9314 3.1655 -2.3438 0.9686
6.8123 3.4100 -2.3432 0.9686
6.5484 3.8854 -2.3420 0.9686
6.4040 4.1156 -2.3414 0.9686
6.2516 4.3405 -2.3409 0.9687
6.0913 4.5598 -2.3403 0.9687
5.9233 4.7733 -2.3398 0.9687
4.8386 4.1926 -1.9692 0.9736
4.5980 4.2809 -1.9323 0.9741
3.9239 4.5284 -1.8430 0.9752
3.3025 4.7565 -1.7811 0.9761
3.1037 4.8295 -1.7658 0.9763
2.9081 4.9013 -1.7529 0.9764
3.1527 6.9033 -2.3343 0.9687
2.9039 7.0106 -2.3340 0.9687
2.6515 7.1089 -2.3337 0.9687
2.1371 7.2783 -2.3332 0.9688
1.8758 7.3493 -2.3330 0.9688
0.8106 7.5392 -2.3323 0.9688
0.5409 7.5630 -2.3322 0.9688
0.2706 7.5772 -2.3321 0.9688
-0.2706 7.5768 -2.3320 0.9688
-0.5409 7.5623 -2.3319 0.9688
-0.7948 5.5279 -1.7177 0.9769
-1.6117 7.4087 -2.3320 0.9688
-1.8751 7.3467 -2.3321 0.9688
-3.4962 6.4029 -2.2438 0.9699
-4.1023 6.3834 -2.3339 0.9687
-4.3692 6.2928 -2.3563 0.9684
-5.2939 6.1094 -2.4865 0.9667
-5.5094 5.9175 -2.4868 0.9667
-5.7181 5.7181 -2.4873 0.9667
-6.1136 5.2975 -2.4882 0.9667
-6.3000 5.0769 -2.4886 0.9667
-6.8107 4.3770 -2.4901 0.9667
-6.9641 4.1320 -2.4907 0.9667
-7.3709 3.3662 -2.4924 0.9667
-7.4881 3.1017 -2.4929 0.9666
-7.5959 2.8331 -2.4935 0.9666
-7.6940 2.5608 -2.4941 0.9666
-7.9297 1.7250 -2.4960 0.9666
-8.0367 1.1555 -2.4973 0.9666
-8.0749 0.8681 -2.4980 0.9666
-8.1029 0.5795 -2.4987 0.9666
-8.1206 0.2900 -2.4993 0.9666
7.5246 0.2687 -2.5028 0.9688
7.3999 1.3351 -2.4995 0.9688
7.3347 1.5956 -2.4951 0.9689
7.2087 1.8399 -2.4730 0.9691
6.8284 2.0050 -2.3656 0.9704
6.6961 2.2287 -2.3459 0.9707
6.5169 2.6994 -2.3447 0.9707
6.3048 3.1559 -2.3436 0.9707
5.9272 3.8092 -2.3420 0.9707
5.7862 4.0175 -2.3415 0.9707
4.5983 4.2812 -2.0884 0.9739
4.3663 4.3663 -2.0526 0.9743
3.7121 4.6064 -1.9665 0.9754
3.5052 4.6824 -1.9443 0.9756
3.3027 4.7568 -1.9249 0.9759
3.1039 4.8298 -1.9084 0.9761
2.9083 4.9016 -1.8945 0.9763
2.9217 5.8369 -2.1697 0.9729
2.9186 6.3909 -2.3354 0.9708
2.2180 6.6640 -2.3346 0.9708
1.9785 6.7382 -2.3344 0.9708
0.9991 6.9491 -2.3337 0.9708
-0.2505 7.0148 -2.3333 0.9708
-0.5007 7.0014 -2.3332 0.9708
-0.7920 5.5083 -1.8498 0.9768
-1.7360 6.8018 -2.3334 0.9708
-1.9778 6.7358 -2.3335 0.9708
-2.2171 6.6612 -2.3336 0.9708
-2.4536 6.5782 -2.3338 0.9708
-2.6870 6.4869 -2.3339 0.9708
-3.1434 6.2797 -2.3343 0.9708
-3.3659 6.1641 -2.3345 0.9708
-3.9274 6.1112 -2.4147 0.9698
-4.2559 6.1297 -2.4805 0.9690
-5.1002 5.4780 -2.4880 0.9689
-5.6593 4.9038 -2.4892 0.9689
-5.8318 4.6995 -2.4896 0.9689
-5.9969 4.4892 -2.4901 0.9689
-6.1544 4.2731 -2.4905 0.9689
-6.4461 3.8246 -2.4915 0.9689
-6.8223 3.1156 -2.4931 0.9689
-7.3387 1.5964 -2.4965 0.9688
-7.3927 1.3338 -2.4971 0.9688
-7.4374 1.0693 -2.4977 0.9688
-7.4727 0.8034 -2.4983 0.9688
7.0002 0.0000 -2.5033 0.9707
6.9941 0.2498 -2.5027 0.9707
6.9791 0.4992 -2.5021 0.9707
6.9552 0.7478 -2.5016 0.9707
6.9225 0.9953 -2.5010 0.9707
6.1456 2.2922 -2.3456 0.9725
6.0585 2.5095 -2.3451 0.9725
5.9638 2.7236 -2.3446 0.9725
5.7518 3.1407 -2.3436 0.9725
5.3798 3.7352 -2.3421 0.9726
3.9243 4.5289 -2.1430 0.9749
3.7123 4.6067 -2.1157 0.9752
2.7153 4.9728 -2.0261 0.9762
2.7170 5.4278 -2.1706 0.9745
2.7141 5.9430 -2.3364 0.9726
2.4999 6.0354 -2.3361 0.9726
1.8399 6.2662 -2.3355 0.9726
-1.3876 6.3789 -2.3345 0.9726
-1.6145 6.3255 -2.3346 0.9726
-1.8393 6.2641 -2.3347 0.9726
-2.2817 6.1175 -2.3349 0.9726
-2.4988 6.0326 -2.3350 0.9726
-2.9232 5.8398 -2.3354 0.9726
-3.1849 5.8327 -2.3765 0.9722
-3.9654 5.7112 -2.4864 0.9709
-4.5572 5.2593 -2.4886 0.9709
-4.9221 4.9221 -2.4893 0.9709
-5.4226 4.3698 -2.4905 0.9708
-5.5761 4.1742 -2.4909 0.9708
-5.9936 3.5561 -2.4922 0.9708
-6.1178 3.3406 -2.4927 0.9708
-6.2344 3.1207 -2.4932 0.9708
-6.3430 2.8968 -2.4937 0.9708
-6.5362 2.4379 -2.4947 0.9708
-6.6963 1.9662 -2.4957 0.9708
-6.7637 1.7263 -2.4963 0.9708
-6.8225 1.4841 -2.4968 0.9708
-6.9705 0.4985 -2.4991 0.9707
-6.9855 0.2495 -2.4997 0.9707
6.5321 -0.0000 -2.5032 0.9724
6.4904 0.6978 -2.5016 0.9724
6.4600 0.9288 -2.5010 0.9724
6.4213 1.1585 -2.5005 0.9724
6.3745 1.3867 -2.5000 0.9724
6.2520 1.8357 -2.4970 0.9725
6.0765 2.2664 -2.4853 0.9726
5.7820 2.3950 -2.3983 0.9735
5.4706 2.7384 -2.3444 0.9741
5.3683 2.9313 -2.3440 0.9741
5.1435 3.3055 -2.3430 0.9741
5.0213 3.4863 -2.3426 0.9742
4.8928 3.6627 -2.3422 0.9742
4.7580 3.8343 -2.3417 0.9742
4.2749 4.2749 -2.3168 0.9744
4.0551 4.3555 -2.2805 0.9748
3.6344 4.5100 -2.2196 0.9755
3.4318 4.5843 -2.1945 0.9758
3.2413 4.6683 -2.1779 0.9759
2.7155 4.9730 -2.1714 0.9760
2.5336 5.5479 -2.3373 0.9742
2.1310 5.7134 -2.3368 0.9742
1.7177 5.8498 -2.3364 0.9742
1.5077 5.9069 -2.3362 0.9742
0.8674 6.0331 -2.3358 0.9742
0.4348 6.0791 -2.3356 0.9742
0.0000 6.0943 -2.3354 0.9742
-0.2175 6.0903 -2.3354 0.9742
-0.4347 6.0786 -2.3354 0.9742
-0.7865 5.4702 -2.1178 0.9766
-1.0024 5.5558 -2.1634 0.9761
-1.2955 5.9551 -2.3355 0.9742
-1.5072 5.9053 -2.3356 0.9742
-1.7171 5.8479 -2.3356 0.9742
-1.9248 5.7832 -2.3357 0.9742
-2.1301 5.7111 -2.3359 0.9742
-2.3327 5.6318 -2.3360 0.9742
-2.5546 5.5938 -2.3566 0.9740
-3.3088 5.5768 -2.4850 0.9726
-3.8921 5.1992 -2.4889 0.9726
-4.0757 5.0576 -2.4892 0.9726
-4.4272 4.7551 -2.4898 0.9726
-4.7565 4.4284 -2.4905 0.9725
-5.3416 3.7087 -2.4920 0.9725
-5.5944 3.3193 -2.4929 0.9725
-5.9204 2.7038 -2.4942 0.9725
-6.0143 2.4912 -2.4947 0.9725
-6.4141 1.1572 -2.4977 0.9725
-6.4527 0.9277 -2.4982 0.9725
6.1160 -0.0000 -2.5031 0.9739
6.1108 0.2182 -2.5026 0.9739
6.0488 0.8697 -2.5011 0.9739
6.0127 1.0848 -2.5006 0.9739
5.9689 1.2985 -2.5001 0.9739
5.9176 1.5104 -2.4996 0.9739
5.6246 2.3298 -2.4917 0.9740
5.4731 2.4995 -2.4625 0.9743
5.2199 2.6129 -2.3891 0.9751
5.0273 2.7451 -2.3443 0.9755
4.7025 3.2650 -2.3430 0.9756
4.5822 3.4302 -2.3426 0.9756
4.3243 3.7471 -2.3418 0.9756
4.1872 3.8984 -2.3415 0.9756
4.0447 4.0447 -2.3411 0.9756
3.7447 4.3216 -2.3404 0.9756
3.4259 4.5765 -2.3397 0.9756
3.2337 4.6574 -2.3206 0.9758
2.6584 4.8686 -2.2703 0.9763
2.5496 5.0934 -2.3312 0.9757
2.1859 5.2773 -2.3378 0.9756
1.8036 5.4188 -2.3374 0.9756
1.4122 5.5329 -2.3371 0.9756
1.2137 5.5794 -2.3369 0.9756
0.8125 5.6511 -2.3367 0.9756
0.6103 5.6763 -2.3365 0.9756
0.2038 5.7050 -2.3364 0.9756
-0.2037 5.7048 -2.3363 0.9756
-0.4072 5.6938 -2.3363 0.9756
-1.0004 5.5448 -2.3060 0.9759
-1.2134 5.5781 -2.3364 0.9756
-1.8030 5.4170 -2.3366 0.9756
-3.4690 4.9963 -2.4894 0.9741
-3.6455 4.8698 -2.4897 0.9741
-3.8174 4.7371 -2.4900 0.9740
-3.9845 4.5984 -2.4902 0.9740
-4.1466 4.4538 -2.4905 0.9740
-4.3035 4.3035 -2.4909 0.9740
-4.6007 3.9866 -2.4915 0.9740
-4.7408 3.8203 -2.4919 0.9740
-4.8748 3.6493 -2.4922 0.9740
-5.0027 3.4735 -2.4926 0.9740
-5.1243 3.2932 -2.4930 0.9740
-5.2394 3.1087 -2.4934 0.9740
-5.4497 2.7279 -2.4943 0.9740
-5.6324 2.3330 -2.4951 0.9740
-5.9115 1.5088 -2.4970 0.9740
-6.0064 1.0837 -2.4979 0.9740
-6.0914 0.4357 -2.4994 0.9740
-6.1043 0.2180 -2.4999 0.9739
5.7386 0.2050 -2.5026 0.9753
5.7265 0.4096 -2.5021 0.9753
5.7071 0.6136 -2.5016 0.9753
5.6805 0.8167 -2.5011 0.9753
5.6056 1.2194 -2.5002 0.9753
5.5575 1.4185 -2.4997 0.9753
5.5023 1.6156 -2.4992 0.9753
5.4401 1.8106 -2.4988 0.9753
5.3710 2.0033 -2.4983 0.9753
5.2915 2.1918 -2.4961 0.9753
5.1101 2.5579 -2.4905 0.9754
4.9457 2.7006 -2.4558 0.9757
4.5243 2.9076 -2.3438 0.9768
4.4169 3.0667 -2.3434 0.9768
4.1855 3.3729 -2.3427 0.9768
3.7992 3.7992 -2.3416 0.9768
3.3699 4.1818 -2.3406 0.9768
2.7391 4.6166 -2.3395 0.9768
2.4023 4.7992 -2.3390 0.9769
2.2293 4.8814 -2.3387 0.9769
2.0534 4.9574 -2.3385 0.9769
1.8750 5.0271 -2.3383 0.9769
1.6943 5.0904 -2.3381 0.9769
0.5733 5.3324 -2.3373 0.9769
0.3826 5.3493 -2.3373 0.9769
-0.1914 5.3592 -2.3371 0.9769
-0.3826 5.3489 -2.3371 0.9769
-0.5732 5.3318 -2.3371 0.9769
-1.1399 5.2402 -2.3372 0.9769
-1.3263 5.1963 -2.3372 0.9769
-1.5259 5.1968 -2.3605 0.9766
-2.5565 5.1072 -2.4891 0.9754
-2.9151 4.9131 -2.4897 0.9754
-3.0888 4.8063 -2.4900 0.9754
-3.2587 4.6935 -2.4902 0.9754
-3.4245 4.5746 -2.4904 0.9754
-3.8951 4.1837 -2.4912 0.9754
-4.1847 3.8961 -2.4918 0.9754
-4.5790 3.4278 -2.4928 0.9754
-4.8133 3.0933 -2.4935 0.9753
-4.9214 2.9200 -2.4939 0.9753
-5.0232 2.7429 -2.4943 0.9753
-5.1187 2.5623 -2.4947 0.9753
-5.2902 2.1913 -2.4955 0.9753
-5.3660 2.0014 -2.4960 0.9753
-5.4349 1.8089 -2.4964 0.9753
-5.4970 1.6141 -2.4968 0.9753
-5.6001 1.2182 -2.4977 0.9753
-5.7328 0.2047 -2.5000 0.9753
5.4073 -0.0000 -2.5030 0.9764
5.4029 0.1930 -2.5025 0.9765
5.3734 0.5777 -2.5016 0.9765
5.3484 0.7690 -2.5012 0.9765
5.2328 1.3356 -2.4998 0.9765
5.0574 1.8863 -2.4985 0.9765
4.9078 2.2413 -2.4974 0.9765
4.8197 2.4125 -2.4948 0.9765
4.7257 2.5804 -2.4923 0.9765
4.6261 2.7448 -2.4899 0.9766
4.2713 2.9656 -2.4069 0.9773
3.8250 3.3143 -2.3427 0.9779
3.7037 3.4483 -2.3424 0.9779
3.4473 3.7027 -2.3417 0.9779
3.3125 3.8228 -2.3414 0.9780
2.7334 4.2533 -2.3403 0.9780
2.5796 4.3477 -2.3401 0.9780
2.4225 4.4365 -2.3398 0.9780
2.2624 4.5197 -2.3396 0.9780
1.7659 4.7345 -2.3390 0.9780
1.4234 4.8477 -2.3386 0.9780
1.2494 4.8951 -2.3385 0.9780
0.8969 4.9712 -2.3382 0.9780
0.7189 4.9998 -2.3381 0.9780
0.5399 5.0221 -2.3381 0.9780
0.3603 5.0380 -2.3380 0.9780
0.1803 5.0475 -2.3379 0.9780
0.0000 5.0506 -2.3379 0.9780
-0.3603 5.0377 -2.3378 0.9780
-1.3006 5.0955 -2.4343 0.9771
-1.5108 5.1453 -2.4822 0.9766
-2.2346 4.8931 -2.4899 0.9766
-2.7454 4.6271 -2.4904 0.9766
-2.9090 4.5265 -2.4906 0.9766
-3.0690 4.4202 -2.4909 0.9766
-3.2251 4.3082 -2.4911 0.9766
-3.8070 3.8070 -2.4921 0.9765
-3.9409 3.6691 -2.4924 0.9765
-4.0698 3.5265 -2.4927 0.9765
-4.6344 2.7497 -2.4944 0.9765
-4.7303 2.5829 -2.4947 0.9765
-4.8202 2.4128 -2.4951 0.9765
-4.9816 2.0634 -2.4959 0.9765
-5.1178 1.7034 -2.4967 0.9765
-5.1761 1.5199 -2.4971 0.9765
-5.2280 1.3344 -2.4975 0.9765
-5.2732 1.1471 -2.4980 0.9765
-5.3117 0.9583 -2.4984 0.9765
-5.3684 0.5772 -2.4993 0.9765
-5.3865 0.3852 -2.4997 0.9765
-5.3978 0.1928 -2.5001 0.9765
5.1025 0.0000 -2.5029 0.9775
5.0984 0.1821 -2.5025 0.9775
5.0878 0.3639 -2.5020 0.9775
5.0707 0.5452 -2.5016 0.9775
5.0471 0.7257 -2.5012 0.9775
5.0172 0.9052 -2.5008 0.9775
4.9808 1.0835 -2.5004 0.9775
4.8892 1.4356 -2.4995 0.9776
4.8340 1.6089 -2.4991 0.9776
4.7728 1.7801 -2.4987 0.9776
4.5529 2.2790 -2.4975 0.9776
4.4667 2.4390 -2.4964 0.9776
4.3728 2.5945 -2.4941 0.9776
4.2737 2.7465 -2.4919 0.9776
3.2537 3.4947 -2.3422 0.9790
3.1265 3.6082 -2.3419 0.9790
2.9954 3.7170 -2.3416 0.9790
2.7219 3.9203 -2.3411 0.9790
1.5061 4.5252 -2.3394 0.9790
1.0136 4.6594 -2.3390 0.9790
0.8466 4.6924 -2.3389 0.9790
0.5096 4.7404 -2.3387 0.9790
-0.0001 4.7778 -2.3436 0.9789
-0.3401 4.7552 -2.3385 0.9790
-0.7000 4.8684 -2.4126 0.9783
-0.8899 4.9326 -2.4586 0.9779
-1.0761 4.9468 -2.4833 0.9777
-1.2529 4.9087 -2.4850 0.9777
-1.6023 4.8141 -2.4888 0.9776
-1.7742 4.7568 -2.4904 0.9776
-1.9429 4.6907 -2.4905 0.9776
-2.4337 4.4569 -2.4909 0.9776
-2.5914 4.3675 -2.4911 0.9776
-2.7458 4.2726 -2.4913 0.9776
-3.0441 4.0665 -2.4917 0.9776
-3.1876 3.9556 -2.4919 0.9776
-3.4623 3.7188 -2.4924 0.9776
-3.5932 3.5932 -2.4927 0.9776
-4.0699 3.0467 -2.4938 0.9776
-4.1766 2.8999 -2.4941 0.9776
-4.2780 2.7493 -2.4945 0.9776
-4.3740 2.5952 -2.4948 0.9776
-4.4645 2.4378 -2.4951 0.9776
-4.9339 1.2593 -2.4978 0.9776
-5.0427 0.7250 -2.4990 0.9776
-5.0662 0.5447 -2.4994 0.9776
4.8245 -0.0000 -2.5028 0.9785
4.8206 0.1722 -2.5024 0.9785
4.8106 0.3441 -2.5020 0.9785
4.7945 0.5155 -2.5016 0.9785
4.7097 1.0245 -2.5004 0.9785
4.6694 1.1918 -2.5000 0.9785
4.6231 1.3575 -2.4996 0.9785
4.4495 1.8430 -2.4985 0.9785
4.3802 2.0004 -2.4981 0.9785
4.3053 2.1551 -2.4977 0.9785
4.2251 2.3071 -2.4974 0.9785
4.1394 2.4560 -2.4970 0.9785
4.0473 2.6011 -2.4959 0.9786
3.8455 2.8787 -2.4920 0.9786
3.7376 3.0119 -2.4902 0.9786
3.6252 3.1413 -2.4885 0.9786
3.4898 3.2491 -2.4736 0.9787
3.3208 3.3208 -2.4363 0.9791
2.5742 3.7075 -2.3415 0.9799
2.4400 3.7967 -2.3413 0.9799
2.3027 3.8810 -2.3411 0.9799
2.0196 4.0346 -2.3407 0.9799
1.8741 4.1038 -2.3405 0.9799
1.5764 4.2264 -2.3401 0.9799
0.9596 4.4110 -2.3419 0.9799
0.4820 4.4834 -2.3393 0.9799
0.3217 4.4976 -2.3392 0.9799
0.0000 4.6036 -2.3883 0.9795
-0.1665 4.6615 -2.4199 0.9792
-0.5117 4.7595 -2.4834 0.9787
-1.3527 4.6068 -2.4908 0.9786
-1.8376 4.4363 -2.4911 0.9786
-2.1496 4.2944 -2.4913 0.9786
-2.3016 4.2152 -2.4915 0.9786
-2.4508 4.1306 -2.4917 0.9786
-2.5968 4.0408 -2.4918 0.9786
-2.7396 3.9458 -2.4920 0.9786
-2.8789 3.8458 -2.4922 0.9786
-3.0146 3.7409 -2.4924 0.9786
-3.2744 3.5170 -2.4929 0.9786
-3.3982 3.3982 -2.4932 0.9786
-3.8489 2.8813 -2.4942 0.9786
-4.0457 2.6000 -2.4949 0.9786
-4.3768 1.9988 -2.4962 0.9786
-4.6194 1.3564 -2.4976 0.9785
-4.6656 1.1908 -2.4980 0.9785
-4.7058 1.0237 -2.4984 0.9785
-4.7401 0.8552 -2.4987 0.9785
-4.7905 0.5150 -2.4995 0.9785
-4.8165 0.1720 -2.5003 0.9785
4.5696 -0.0000 -2.5028 0.9794
4.5660 0.1631 -2.5024 0.9794
4.5566 0.3259 -2.5020 0.9794
4.5413 0.4882 -2.5016 0.9794
4.4229 1.1289 -2.5001 0.9794
4.3792 1.2858 -2.4998 0.9794
4.3299 1.4411 -2.4994 0.9794
4.2148 1.7458 -2.4986 0.9794
4.1492 1.8949 -2.4983 0.9794
4.0023 2.1854 -2.4976 0.9794
3.7442 2.5997 -2.4966 0.9794
3.6480 2.7308 -2.4958 0.9794
3.2141 3.2141 -2.4896 0.9795
2.6704 3.5673 -2.4406 0.9799
2.3710 3.6894 -2.4020 0.9802
1.7903 3.9203 -2.3604 0.9805
1.6469 3.9759 -2.3571 0.9806
1.5035 4.0311 -2.3564 0.9806
1.3599 4.0858 -2.3585 0.9806
1.2157 4.1402 -2.3634 0.9805
1.0706 4.1946 -2.3711 0.9805
0.7764 4.3032 -2.3950 0.9803
0.4744 4.4126 -2.4307 0.9800
0.3195 4.4678 -2.4533 0.9798
0.0000 4.5360 -2.4844 0.9795
-0.1620 4.5349 -2.4854 0.9795
-0.3239 4.5282 -2.4865 0.9795
-0.4855 4.5159 -2.4876 0.9795
-0.6467 4.4980 -2.4889 0.9795
-0.9669 4.4446 -2.4913 0.9795
-1.1249 4.4073 -2.4913 0.9795
-1.2815 4.3645 -2.4914 0.9795
-1.5897 4.2623 -2.4915 0.9795
-1.7409 4.2030 -2.4916 0.9795
-1.8899 4.1383 -2.4918 0.9795
-2.0365 4.0685 -2.4919 0.9795
-2.3219 3.9133 -2.4922 0.9795
-2.4602 3.8282 -2.4924 0.9795
-2.5955 3.7382 -2.4925 0.9795
-2.7275 3.6434 -2.4927 0.9795
-3.4415 2.9821 -2.4941 0.9794
-3.6463 2.7296 -2.4946 0.9794
-3.7418 2.5980 -2.4949 0.9794
-3.8326 2.4631 -2.4952 0.9794
-3.9995 2.1839 -2.4958 0.9794
-4.2117 1.7445 -2.4968 0.9794
-4.2718 1.5933 -2.4971 0.9794
-4.3266 1.4400 -2.4975 0.9794
-4.4195 1.1280 -2.4982 0.9794
-4.4576 0.9697 -2.4985 0.9794
-4.4900 0.8101 -2.4989 0.9794
-4.5377 0.4878 -2.4996 0.9794
-4.5529 0.3256 -2.5000 0.9794
-4.5623 0.1629 -2.5004 0.9794
4.3315 0.1547 -2.5024 0.9802
4.3226 0.3092 -2.5020 0.9802
4.2629 0.7691 -2.5009 0.9802
4.2321 0.9206 -2.5006 0.9802
4.1960 1.0710 -2.5002 0.9802
4.1545 1.2199 -2.4999 0.9802
4.1077 1.3672 -2.4995 0.9802
4.0557 1.5127 -2.4992 0.9802
3.7202 2.2073 -2.4975 0.9802
3.6386 2.3384 -2.4971 0.9802
3.4616 2.5913 -2.4965 0.9802
3.3665 2.7129 -2.4962 0.9802
3.0538 3.0538 -2.4934 0.9803
2.9414 3.1593 -2.4922 0.9803
2.8254 3.2607 -2.4910 0.9803
2.4578 3.5399 -2.4881 0.9803
2.1977 3.7040 -2.4866 0.9803
1.9246 3.8448 -2.4824 0.9803
1.6388 3.9564 -2.4724 0.9804
1.4961 4.0113 -2.4718 0.9804
1.0644 4.1701 -2.4848 0.9803
0.9149 4.2058 -2.4850 0.9803
0.7643 4.2364 -2.4854 0.9803
0.6127 4.2617 -2.4858 0.9803
0.1538 4.3060 -2.4877 0.9803
0.0000 4.3102 -2.4885 0.9803
-0.1539 4.3091 -2.4894 0.9803
-0.7663 4.2473 -2.4918 0.9803
-1.0674 4.1819 -2.4918 0.9803
-1.2160 4.1413 -2.4919 0.9803
-1.3631 4.0954 -2.4920 0.9803
-1.5084 4.0442 -2.4921 0.9803
-1.6519 3.9880 -2.4922 0.9803
-1.7932 3.9267 -2.4923 0.9803
-2.2031 3.7131 -2.4927 0.9803
-2.9433 3.1613 -2.4938 0.9802
-3.0545 3.0545 -2.4940 0.9802
-3.1619 2.9438 -2.4943 0.9802
-3.3645 2.7113 -2.4947 0.9802
-3.4595 2.5898 -2.4950 0.9802
-3.5501 2.4649 -2.4953 0.9802
-3.7946 2.0720 -2.4961 0.9802
-3.9337 1.7965 -2.4967 0.9802
-3.9958 1.6551 -2.4971 0.9802
-4.0529 1.5116 -2.4974 0.9802
-4.1048 1.3662 -2.4977 0.9802
-4.2597 0.7685 -2.4991 0.9802
-4.2850 0.6161 -2.4994 0.9802
-4.3049 0.4628 -2.4998 0.9802
-4.3282 0.1546 -2.5005 0.9802
