ply
format ascii 1.0
element vertex 1662
property float32 x
property float32 y
property float32 z
property float32 I
end_header
12.3914 4.6389 2.3329 0.9477
33.1457 13.7813 6.3295 0.8643
30.9533 14.1904 6.0041 0.8708
29.1360 14.6420 5.7497 0.8760
24.6480 14.6851 5.0590 0.8900
21.1048 14.7180 4.5369 0.9008
17.1732 14.9539 4.0152 0.9117
14.3634 14.4404 3.5913 0.9206
13.3781 14.4499 3.4722 0.9231
12.1843 15.2141 3.4369 0.9239
15.8575 21.3232 4.6856 0.8977
14.3926 20.8750 4.4709 0.9021
8.5888 13.4649 2.8161 0.9372
8.5322 14.4964 2.9660 0.9340
7.8508 14.5030 2.9079 0.9352
8.6204 21.0497 4.0108 0.9117
7.0044 21.3473 3.9615 0.9128
6.2310 21.5692 3.9587 0.9128
3.7495 14.9709 2.7213 0.9392
3.0946 14.5487 2.6227 0.9414
0.6607 21.6701 3.8228 0.9157
-1.6593 21.5103 3.8041 0.9161
-1.7176 15.1610 2.6904 0.9399
-3.9245 14.9880 2.7319 0.9390
-2.7690 5.9558 1.1581 0.9737
-8.1377 14.6566 2.9560 0.9342
-14.8761 21.0905 4.5508 0.9005
-16.4506 21.6340 4.7922 0.8955
-12.5970 15.3895 3.5067 0.9224
-13.2826 15.0903 3.5448 0.9216
-13.9159 14.7121 3.5708 0.9210
-17.8021 15.1700 4.1241 0.9094
-20.0384 14.7364 4.3859 0.9039
-25.3545 14.7412 5.1714 0.8877
-31.1055 15.2176 6.1059 0.8688
-32.4286 14.4494 6.2600 0.8657
-22.5029 6.3707 4.1238 0.9094
43.1274 14.4066 6.9657 0.8319
12.3907 4.6386 2.0268 0.9479
30.9740 14.1999 5.2199 0.8712
29.1360 14.6420 4.9954 0.8764
22.9077 14.7849 4.1768 0.8955
21.0928 14.7096 3.9394 0.9012
22.7155 21.2573 4.7660 0.8817
13.3781 14.4499 3.0167 0.9234
12.8401 14.9058 3.0139 0.9235
12.3937 15.4757 3.0373 0.9229
15.8854 21.3606 4.0780 0.8979
14.4742 20.9935 3.9064 0.9020
7.3925 14.9083 2.5492 0.9349
7.0517 21.4914 3.4651 0.9125
6.3455 21.9657 3.5026 0.9116
3.6790 14.6891 2.3198 0.9406
2.5547 14.5539 2.2637 0.9420
2.0211 14.5590 2.2517 0.9423
1.5072 14.7074 2.2649 0.9419
-0.0824 15.4168 2.3618 0.9395
-0.9076 22.0354 3.3786 0.9146
-1.6689 14.7317 2.2712 0.9418
-7.3548 21.6319 3.5002 0.9117
-5.8570 15.3943 2.5232 0.9355
-2.6103 6.1846 1.0284 0.9732
-2.7682 5.9541 1.0059 0.9738
-3.0300 5.9499 1.0229 0.9733
-8.1377 14.6566 2.5682 0.9344
-15.0075 21.2768 3.9887 0.9000
-13.9159 14.7121 3.1023 0.9213
-18.9935 15.0452 3.7120 0.9066
-20.0860 14.7714 3.8195 0.9040
-22.3013 15.2008 4.1346 0.8965
-23.9389 15.0905 4.3351 0.8918
-22.3630 6.3310 3.5605 0.9102
42.1863 14.0922 5.7919 0.8358
35.0785 14.5849 4.9471 0.8579
30.9666 14.1965 4.4361 0.8716
26.1327 14.3273 3.8809 0.8867
23.3950 15.0994 3.6259 0.8938
19.1414 14.3945 3.1188 0.9079
24.3923 21.2400 4.2118 0.8777
22.8787 21.4100 4.0804 0.8813
14.3634 14.4404 2.6523 0.9211
13.3781 14.4499 2.5643 0.9236
17.4999 21.8515 3.6456 0.8932
7.8508 14.5030 2.1475 0.9356
6.5566 16.0101 2.2529 0.9326
7.7553 21.0580 2.9222 0.9135
7.0850 21.5927 2.9593 0.9124
3.6919 14.7408 1.9789 0.9405
3.0946 14.5487 1.9369 0.9418
1.5137 14.7709 1.9335 0.9419
-0.1184 22.1618 2.8860 0.9145
-1.6730 21.6882 2.8327 0.9160
-2.7248 14.6046 1.9346 0.9418
-3.8801 14.8183 1.9947 0.9401
-2.6065 6.1756 0.8729 0.9733
-8.8428 14.6634 2.2298 0.9333
-15.0075 21.2768 3.3906 0.9003
-16.8725 22.1888 3.6299 0.8936
-17.9934 21.9821 3.6992 0.8917
-14.3675 14.1390 2.6250 0.9219
-18.4756 15.7439 3.1610 0.9067
-19.1313 15.1543 3.1782 0.9062
-20.0860 14.7714 3.2468 0.9043
-22.9900 15.6702 3.6231 0.8938
-28.5588 15.2627 4.2167 0.8776
-22.3500 6.3274 3.0248 0.9106
31.1467 14.2791 3.6793 0.8712
26.1328 14.3273 3.2002 0.8870
24.6091 14.6620 3.0760 0.8912
19.1414 14.3945 2.5718 0.9081
18.4650 14.9505 2.5512 0.9088
15.5626 14.5635 2.2887 0.9178
13.3781 14.4499 2.1145 0.9238
12.6169 14.6467 2.0759 0.9252
12.3196 15.3831 2.1163 0.9238
16.3634 22.0035 2.9445 0.8956
7.8508 14.5030 1.7709 0.9358
6.6823 14.7840 1.7422 0.9368
7.7553 21.0580 2.4097 0.9137
0.6754 22.1542 2.3801 0.9147
-0.9131 22.1695 2.3826 0.9146
-1.6420 21.2864 2.2926 0.9177
-1.6846 14.8699 1.6070 0.9416
-2.2289 14.8860 1.6163 0.9412
-2.7248 14.6046 1.5953 0.9420
-4.4763 14.8962 1.6702 0.9393
-8.0698 21.2101 2.4369 0.9127
-8.1376 14.6566 1.8002 0.9348
-8.8428 14.6634 1.8387 0.9334
-10.4837 14.8631 1.9531 0.9294
-16.9751 22.3238 3.0115 0.8933
-13.9159 14.7121 2.1746 0.9218
-22.9900 15.6702 2.9877 0.8941
-31.1023 15.2160 3.7181 0.8700
-22.3440 6.3257 2.4936 0.9108
41.5915 6.0006 3.5573 0.8448
42.4215 14.1708 3.7862 0.8357
12.3887 4.6379 1.1197 0.9483
31.4490 13.0758 2.8832 0.8722
29.7281 14.9396 2.8165 0.8750
24.6718 14.6993 2.4311 0.8911
20.0222 13.9630 2.0664 0.9067
18.0178 14.5884 1.9625 0.9111
18.0112 15.6836 2.0217 0.9086
13.3781 14.4499 1.6670 0.9240
12.3975 15.4803 1.6789 0.9235
14.4742 20.9935 2.1586 0.9027
8.5322 14.4964 1.4239 0.9347
7.8508 14.5030 1.3961 0.9359
6.6818 14.7829 1.3733 0.9370
7.7553 21.0580 1.8997 0.9139
7.0022 21.3407 1.9013 0.9138
3.0946 14.5487 1.2591 0.9420
2.5547 14.5539 1.2509 0.9424
2.0211 14.5590 1.2443 0.9427
1.5211 14.8430 1.2631 0.9419
0.9852 14.8375 1.2588 0.9421
0.6698 21.9704 1.8607 0.9155
-0.1174 21.9779 1.8605 0.9156
-0.9055 21.9855 1.8627 0.9155
-1.6845 14.8689 1.2667 0.9417
-2.2288 14.8849 1.2741 0.9414
-2.7248 14.6046 1.2577 0.9421
-3.2712 14.6098 1.2674 0.9417
-7.3026 21.4784 1.9204 0.9130
-8.0698 21.2101 1.9211 0.9129
-2.5989 6.1577 0.5658 0.9735
-3.0274 5.9449 0.5647 0.9736
-8.1377 14.6566 1.4191 0.9349
-8.8428 14.6634 1.4495 0.9336
-9.7656 14.9548 1.5120 0.9308
-16.9751 22.3238 2.3741 0.8935
-12.8024 15.6404 1.7110 0.9221
-13.1876 14.9824 1.6896 0.9230
-13.9159 14.7121 1.7143 0.9219
-24.2246 22.1887 2.7809 0.8765
-18.4287 15.7040 2.0496 0.9074
-18.8760 14.9521 2.0385 0.9079
-20.0859 14.7714 2.1106 0.9048
-21.8872 14.9185 2.2423 0.8991
-24.4753 15.4286 2.4492 0.8903
-25.4959 14.8234 2.4966 0.8883
-22.3381 6.3240 1.9653 0.9110
41.4479 5.9799 2.5968 0.8455
42.4215 14.1708 2.7735 0.8359
12.3873 4.6374 0.8202 0.9484
24.5507 14.6271 1.7721 0.8918
20.0126 13.9563 1.5129 0.9068
19.1414 14.3945 1.4852 0.9085
18.1231 14.6736 1.4460 0.9108
18.0933 15.7550 1.4877 0.9083
14.3634 14.4404 1.2630 0.9216
13.3781 14.4499 1.2211 0.9241
15.8032 21.2502 1.6422 0.8993
9.4199 14.7678 1.0862 0.9322
8.5322 14.4964 1.0431 0.9348
7.8508 14.5030 1.0226 0.9360
8.6204 21.0497 1.4105 0.9129
7.7553 21.0580 1.3915 0.9140
3.7123 14.8222 0.9475 0.9406
2.5547 14.5539 0.9163 0.9425
2.0211 14.5590 0.9115 0.9428
0.6776 22.2273 1.3790 0.9147
-0.1188 22.2349 1.3788 0.9147
-2.2286 14.8839 0.9332 0.9415
-8.0698 21.2101 1.4072 0.9131
-2.7652 5.9475 0.4067 0.9741
-3.0266 5.9432 0.4136 0.9736
-8.1376 14.6566 1.0395 0.9350
-8.8428 14.6634 1.0618 0.9337
-13.1863 14.9810 1.2376 0.9231
-13.9159 14.7121 1.2558 0.9220
-24.0678 22.0451 2.0239 0.8774
-18.5070 15.7707 1.5078 0.9072
-20.0860 14.7714 1.5461 0.9049
-30.6086 20.8631 2.2970 0.8620
-24.2044 15.2579 1.7742 0.8917
-30.7988 15.0675 2.1261 0.8716
-22.3321 6.3223 1.4392 0.9112
42.4215 14.1708 1.7636 0.8361
12.3860 4.6369 0.5215 0.9484
24.5473 14.6252 1.1267 0.8919
23.8160 15.3711 1.1177 0.8927
21.0113 14.6528 1.0101 0.9025
19.1414 14.3945 0.9444 0.9086
14.3634 14.4404 0.8031 0.9217
12.6880 14.7293 0.7666 0.9251
14.4742 20.9935 1.0055 0.9030
7.3325 14.7874 0.6508 0.9361
6.6808 14.7806 0.6396 0.9371
8.6204 21.0497 0.8969 0.9130
7.7553 21.0580 0.8849 0.9141
7.0012 21.3376 0.8855 0.9140
4.2768 14.8045 0.6076 0.9402
3.0946 14.5487 0.5865 0.9422
2.5547 14.5539 0.5826 0.9426
0.9850 14.8355 0.5863 0.9422
-0.1188 22.2349 0.8768 0.9148
-0.9161 22.2426 0.8778 0.9147
-1.6525 21.4221 0.8472 0.9176
-1.6842 14.8668 0.5900 0.9419
-2.2285 14.8829 0.5934 0.9415
-2.7248 14.6046 0.5858 0.9423
-3.2712 14.6098 0.5903 0.9418
-3.9012 14.8989 0.6073 0.9402
-2.5915 6.1400 0.2628 0.9737
-2.7644 5.9459 0.2586 0.9741
-3.0258 5.9416 0.2629 0.9737
-8.8428 14.6634 0.6752 0.9337
-12.8038 15.6421 0.7971 0.9223
-13.1851 14.9796 0.7869 0.9232
-24.1550 22.1249 1.2916 0.8771
-18.5079 15.7715 0.9588 0.9072
-18.9839 15.0376 0.9550 0.9076
-20.0860 14.7714 0.9831 0.9050
-30.2164 16.1486 1.3509 0.8718
-22.3262 6.3206 0.9149 0.9113
41.2790 5.9555 0.7045 0.8463
35.2100 14.6396 0.6441 0.8585
26.1327 14.3273 0.5034 0.8876
19.1414 14.3945 0.4046 0.9086
18.1191 14.6704 0.3938 0.9109
14.3634 14.4404 0.3440 0.9217
13.3781 14.4499 0.3326 0.9242
15.8006 21.2466 0.4473 0.8995
14.4742 20.9935 0.4307 0.9030
4.2765 14.8035 0.2603 0.9402
3.7118 14.8202 0.2581 0.9407
3.0946 14.5487 0.2513 0.9422
2.5547 14.5539 0.2496 0.9426
2.0211 14.5590 0.2483 0.9429
0.9850 14.8344 0.2511 0.9423
0.6776 22.2273 0.3756 0.9149
-0.1188 22.2349 0.3756 0.9149
-2.2283 14.8818 0.2542 0.9416
-2.7248 14.6046 0.2510 0.9423
-3.2712 14.6098 0.2529 0.9419
-3.9009 14.8978 0.2601 0.9403
-4.4750 14.8919 0.2627 0.9397
-2.5878 6.1313 0.1124 0.9737
-2.7637 5.9442 0.1107 0.9741
-8.8428 14.6634 0.2892 0.9338
-9.7632 14.9512 0.3016 0.9311
-12.8045 15.6430 0.3415 0.9223
-13.9159 14.7121 0.3421 0.9222
-18.9818 15.0359 0.4090 0.9077
-30.6086 20.8631 0.6257 0.8623
-24.2067 15.2593 0.4834 0.8918
-25.4959 14.8234 0.4982 0.8887
-30.2176 16.1492 0.5788 0.8719
-30.9749 15.1537 0.5825 0.8711
41.2488 5.9512 -0.2346 0.8464
42.4215 14.1708 -0.2518 0.8362
12.3833 4.6359 -0.0744 0.9485
35.2116 14.6403 -0.2147 0.8585
31.1467 14.2791 -0.1929 0.8719
26.1327 14.3273 -0.1678 0.8876
24.5407 14.6212 -0.1608 0.8920
23.8180 15.3724 -0.1596 0.8928
19.1414 14.3945 -0.1348 0.9086
18.1171 14.6688 -0.1312 0.9110
18.0960 15.7574 -0.1351 0.9085
14.4742 20.9935 -0.1436 0.9030
9.4177 14.7643 -0.0986 0.9323
7.8508 14.5030 -0.0928 0.9362
7.3314 14.7851 -0.0929 0.9361
8.6204 21.0497 -0.1281 0.9130
7.7553 21.0580 -0.1264 0.9141
7.0002 21.3345 -0.1264 0.9141
4.2762 14.8024 -0.0867 0.9402
3.0946 14.5487 -0.0837 0.9422
2.5547 14.5539 -0.0832 0.9426
2.0211 14.5590 -0.0828 0.9429
1.5207 14.8390 -0.0840 0.9421
0.9849 14.8334 -0.0837 0.9423
0.6776 22.2273 -0.1252 0.9149
-0.1188 22.2349 -0.1252 0.9149
-0.9161 22.2426 -0.1253 0.9148
-2.2282 14.8808 -0.0847 0.9416
-2.7248 14.6046 -0.0836 0.9423
-3.2712 14.6098 -0.0843 0.9419
-3.9006 14.8968 -0.0867 0.9403
-4.4747 14.8909 -0.0875 0.9397
-7.3005 21.4722 -0.1277 0.9133
-2.5841 6.1226 -0.0374 0.9738
-3.0241 5.9383 -0.0375 0.9737
-8.8428 14.6634 -0.0964 0.9338
-9.7625 14.9500 -0.1005 0.9311
-17.0311 22.3974 -0.1584 0.8936
-12.8052 15.6438 -0.1138 0.9223
-18.5096 15.7729 -0.1369 0.9073
-18.9796 15.0342 -0.1363 0.9077
-30.6086 20.8631 -0.2086 0.8623
-24.2079 15.2600 -0.1611 0.8918
-30.9699 15.1512 -0.1941 0.8712
-22.3145 6.3173 -0.1306 0.9114
41.2186 5.9468 -1.1726 0.8465
42.4215 14.1708 -1.2594 0.8361
31.1467 14.2791 -0.9648 0.8719
26.1327 14.3273 -0.8392 0.8876
24.5374 14.6192 -0.8042 0.8920
23.8191 15.3731 -0.7983 0.8928
13.3781 14.4498 -0.5545 0.9242
12.6845 14.7252 -0.5473 0.9252
12.4010 15.4848 -0.5586 0.9237
15.7979 21.2431 -0.7454 0.8995
7.8508 14.5030 -0.4644 0.9361
7.3309 14.7840 -0.4647 0.9361
8.6204 21.0497 -0.6405 0.9130
4.2759 14.8014 -0.4338 0.9402
3.7113 14.8181 -0.4301 0.9407
2.5547 14.5539 -0.4161 0.9426
2.0211 14.5590 -0.4139 0.9429
1.5205 14.8379 -0.4200 0.9421
0.9848 14.8324 -0.4186 0.9423
-0.9161 22.2426 -0.6268 0.9148
-1.6839 14.8637 -0.4212 0.9419
-2.2280 14.8798 -0.4237 0.9416
-2.7248 14.6046 -0.4183 0.9423
-3.2712 14.6098 -0.4216 0.9418
-3.9003 14.8957 -0.4336 0.9402
-8.0698 21.2101 -0.6390 0.9132
-2.5804 6.1139 -0.1869 0.9738
-2.7621 5.9410 -0.1845 0.9741
-8.1376 14.6566 -0.4721 0.9351
-8.8428 14.6634 -0.4821 0.9338
-15.0075 21.2768 -0.7331 0.9011
-12.8059 15.6447 -0.5693 0.9223
-13.1814 14.9754 -0.5618 0.9233
-13.9159 14.7121 -0.5702 0.9222
-14.9601 14.7222 -0.5910 0.9194
-18.5105 15.7737 -0.6848 0.9073
-25.4959 14.8234 -0.8304 0.8887
-30.2203 16.1507 -0.9648 0.8719
-30.9648 15.1487 -0.9706 0.8711
-22.3086 6.3156 -0.6529 0.9114
49.2896 1.7664 -2.5013 0.8207
37.2333 4.0167 -1.8992 0.8607
40.4608 5.8375 -2.0732 0.8490
44.8724 11.4937 -2.3491 0.8307
42.4215 14.1708 -2.2682 0.8360
29.4547 14.8022 -1.6718 0.8763
24.5341 14.6173 -1.4483 0.8919
19.1414 14.3945 -1.2146 0.9085
18.1131 14.6655 -1.1819 0.9109
15.6973 14.6896 -1.0903 0.9175
14.3634 14.4404 -1.0329 0.9217
14.4742 20.9935 -1.2932 0.9029
9.4162 14.7620 -0.8880 0.9323
7.3303 14.7829 -0.8368 0.9360
8.6204 21.0497 -1.1536 0.9129
7.7553 21.0580 -1.1381 0.9140
6.9992 21.3314 -1.1386 0.9140
1.5204 14.8369 -0.7564 0.9420
0.6777 22.2273 -1.1278 0.9148
-0.1188 22.2349 -1.1276 0.9148
-0.9161 22.2426 -1.1290 0.9147
-1.6520 21.4162 -1.0893 0.9176
-1.6838 14.8627 -0.7586 0.9419
-3.2712 14.6098 -0.7593 0.9418
-3.9001 14.8947 -0.7808 0.9402
-4.4740 14.8887 -0.7884 0.9396
-7.2994 21.4690 -1.1500 0.9132
-2.4258 6.3759 -0.3460 0.9730
-2.5767 6.1052 -0.3361 0.9738
-2.7614 5.9394 -0.3322 0.9741
-3.0224 5.9350 -0.3378 0.9737
-8.1377 14.6566 -0.8502 0.9351
-8.8428 14.6634 -0.8684 0.9337
-17.0311 22.3974 -1.4270 0.8934
-12.8066 15.6455 -1.0254 0.9222
-13.1802 14.9740 -1.0117 0.9232
-18.9753 15.0307 -1.2276 0.9076
-24.2103 15.2616 -1.4514 0.8917
-30.1662 16.1218 -1.7346 0.8720
-30.8343 15.0849 -1.7408 0.8715
-45.7558 18.4533 -2.5021 0.8207
-48.3115 10.0067 -2.5021 0.8207
-48.6389 8.2701 -2.5021 0.8207
-49.1061 4.7673 -2.5021 0.8207
-49.2453 3.0055 -2.5021 0.8207
-49.3214 1.2399 -2.5021 0.8207
-49.3340 -0.5273 -2.5021 0.8207
-49.2835 -2.2938 -2.5021 0.8207
-48.7527 -7.5665 -2.5021 0.8207
-48.4504 -9.3077 -2.5021 0.8207
-47.6596 -12.7518 -2.5020 0.8207
-47.1722 -14.4505 -2.5020 0.8207
-38.6859 -16.5719 -2.1344 0.8449
-38.7916 -18.2881 -2.1750 0.8422
-41.1753 -21.2464 -2.3498 0.8306
-40.4826 -22.7606 -2.3553 0.8303
34.1153 0.0000 -2.5014 0.8721
31.7115 4.5752 -2.3492 0.8794
31.5274 5.7080 -2.3492 0.8794
29.5851 12.3014 -2.3493 0.8794
29.1256 13.3525 -2.3493 0.8794
28.6287 14.3871 -2.3493 0.8794
26.1327 14.3273 -2.1852 0.8873
24.4322 14.5566 -2.0853 0.8922
23.7642 15.3376 -2.0738 0.8928
20.9204 14.5894 -1.8701 0.9028
19.1414 14.3945 -1.7561 0.9084
18.0422 14.6081 -1.7021 0.9111
13.3781 14.4498 -1.4438 0.9241
12.4025 15.4866 -1.4548 0.9235
14.4742 20.9935 -1.8697 0.9028
9.4154 14.7608 -1.2837 0.9322
7.8508 14.5030 -1.2092 0.9360
7.3297 14.7817 -1.2098 0.9360
6.6783 14.7750 -1.1889 0.9370
7.7553 21.0580 -1.6454 0.9139
4.2753 14.7993 -1.1295 0.9401
3.0946 14.5487 -1.0906 0.9421
2.5547 14.5539 -1.0834 0.9425
2.0211 14.5590 -1.0777 0.9428
0.6776 22.2273 -1.6305 0.9147
-1.6837 14.8617 -1.0967 0.9418
-2.7248 14.6046 -1.0893 0.9422
-3.2712 14.6098 -1.0977 0.9417
-4.4737 14.8877 -1.1398 0.9396
-7.2795 21.4106 -1.6581 0.9133
-2.4223 6.3665 -0.4995 0.9730
-2.5731 6.0965 -0.4852 0.9738
-2.7606 5.9378 -0.4801 0.9741
-3.0216 5.9333 -0.4882 0.9736
-8.1376 14.6566 -1.2292 0.9350
-9.7601 14.9464 -1.3089 0.9309
-17.0311 22.3974 -2.0631 0.8933
-12.8074 15.6464 -1.4826 0.9221
-13.9159 14.7121 -1.4848 0.9220
-23.6314 21.6454 -2.3497 0.8794
-26.4803 18.0492 -2.3497 0.8794
-28.2636 15.1049 -2.3497 0.8794
-28.7864 14.0830 -2.3497 0.8794
-29.2723 13.0431 -2.3497 0.8794
-30.5025 9.8282 -2.3497 0.8794
-27.4130 4.6611 -2.0388 0.8945
-31.7654 4.2369 -2.3497 0.8794
-34.1120 0.8576 -2.5020 0.8721
-34.1208 -0.3647 -2.5020 0.8721
-34.0858 -1.5864 -2.5020 0.8721
-34.0071 -2.8062 -2.5019 0.8721
-33.5098 -6.4375 -2.5019 0.8721
-33.2577 -7.6334 -2.5019 0.8721
-32.9629 -8.8196 -2.5019 0.8721
-32.6259 -9.9944 -2.5019 0.8721
-32.2469 -11.1565 -2.5019 0.8721
-31.8266 -12.3041 -2.5019 0.8721
-31.3655 -13.4360 -2.5019 0.8721
-30.8641 -14.5507 -2.5019 0.8721
-29.2959 -15.1167 -2.4171 0.8761
25.9889 1.8651 -2.5015 0.9006
25.3865 3.6626 -2.4625 0.9021
23.9076 5.2190 -2.3493 0.9063
23.7053 6.0719 -2.3493 0.9063
23.4727 6.9170 -2.3493 0.9063
23.2100 7.7532 -2.3493 0.9063
12.3778 4.6338 -1.2689 0.9483
17.4044 7.2364 -1.8096 0.9271
22.2446 10.1980 -2.3493 0.9063
21.4576 11.7642 -2.3493 0.9063
20.5606 13.2700 -2.3493 0.9063
19.1414 14.3945 -2.2993 0.9082
18.0448 15.7128 -2.2971 0.9083
14.3634 14.4404 -1.9554 0.9214
12.3473 15.4177 -1.8963 0.9237
14.6033 19.6367 -2.3494 0.9063
8.5322 14.4964 -1.6149 0.9346
7.3292 14.7806 -1.5839 0.9359
8.6204 21.0497 -2.1838 0.9126
3.0946 14.5487 -1.4280 0.9420
2.5547 14.5538 -1.4186 0.9424
2.0211 14.5590 -1.4111 0.9426
0.6777 22.2273 -2.1349 0.9145
-1.6474 21.3565 -2.0564 0.9175
-1.6835 14.8606 -1.4358 0.9417
-2.2275 14.8767 -1.4442 0.9413
-3.2712 14.6098 -1.4373 0.9416
-3.8995 14.8926 -1.4780 0.9400
-7.2790 21.4090 -2.1709 0.9131
-2.4187 6.3572 -0.6530 0.9730
-2.5694 6.0878 -0.6344 0.9738
-2.7599 5.9361 -0.6285 0.9740
-8.1376 14.6566 -1.6094 0.9349
-9.7216 14.8875 -1.7070 0.9310
-14.8138 19.4815 -2.3496 0.9063
-13.9159 14.7121 -1.9442 0.9218
-18.0477 16.5309 -2.3497 0.9063
-18.4573 15.7283 -2.3281 0.9072
-18.8965 14.9683 -2.3143 0.9077
-21.5853 11.5358 -2.3497 0.9063
-21.9846 10.7554 -2.3497 0.9063
-21.5375 6.0974 -2.1490 0.9140
-21.4925 5.2610 -2.1243 0.9149
-23.8382 4.9376 -2.3372 0.9068
-25.9381 2.5181 -2.5019 0.9006
-26.0116 1.5875 -2.5019 0.9006
-26.0318 -1.2116 -2.5019 0.9006
-25.5920 -4.9164 -2.5019 0.9006
-25.1743 -6.7356 -2.5019 0.9006
-24.9169 -7.6329 -2.5019 0.9006
-22.7154 -12.7714 -2.5018 0.9006
19.1594 4.9075 -2.3493 0.9234
16.0266 6.6635 -2.0617 0.9325
16.9910 10.1232 -2.3494 0.9234
16.2229 11.3135 -2.3494 0.9234
14.9159 12.9883 -2.3494 0.9234
14.4412 13.5142 -2.3494 0.9234
13.3781 14.4498 -2.3391 0.9237
12.6310 14.6631 -2.2989 0.9250
12.3480 15.4186 -2.3465 0.9235
11.8028 15.8709 -2.3494 0.9234
9.3777 14.7017 -2.0714 0.9322
8.5322 14.4964 -1.9981 0.9345
7.8508 14.5030 -1.9590 0.9357
6.6522 14.7173 -1.9185 0.9370
7.4957 18.3035 -2.3495 0.9234
6.8354 18.5602 -2.3495 0.9234
4.2588 14.7421 -1.8228 0.9401
3.6959 14.7566 -1.8070 0.9406
2.9863 14.0396 -1.7050 0.9438
2.0211 14.5590 -1.7460 0.9425
0.9809 14.7729 -1.7587 0.9421
0.6027 19.7702 -2.3495 0.9234
-0.1057 19.7791 -2.3495 0.9234
-1.6770 14.8030 -1.7696 0.9418
-2.2186 14.8169 -1.7797 0.9414
-6.3671 18.7270 -2.3496 0.9234
-2.4152 6.3479 -0.8068 0.9730
-2.5657 6.0791 -0.7838 0.9738
-8.1376 14.6566 -1.9914 0.9347
-9.7208 14.8863 -2.1119 0.9309
-10.4963 14.8810 -2.1631 0.9293
-11.9727 15.7451 -2.3496 0.9234
-12.5289 15.3063 -2.3496 0.9234
-13.5925 14.3702 -2.3496 0.9234
-14.0984 13.8742 -2.3496 0.9234
-14.5863 13.3604 -2.3496 0.9234
-15.0554 12.8294 -2.3496 0.9234
-15.5053 12.2820 -2.3496 0.9234
-16.7332 10.5482 -2.3496 0.9234
-17.1002 9.9421 -2.3496 0.9234
-17.7681 8.6926 -2.3496 0.9234
-18.3447 7.3984 -2.3496 0.9234
-18.5979 6.7367 -2.3496 0.9234
-18.8273 6.0663 -2.3496 0.9234
-19.0325 5.3882 -2.3496 0.9234
-19.2132 4.7031 -2.3496 0.9234
-21.0227 1.2830 -2.5019 0.9187
-21.0606 -0.2251 -2.5018 0.9187
-20.8126 -3.2301 -2.5018 0.9187
-20.6835 -3.9734 -2.5018 0.9187
-20.1380 -6.1690 -2.5018 0.9187
-19.9041 -6.8862 -2.5018 0.9187
-19.6447 -7.5946 -2.5018 0.9187
-19.3601 -8.2933 -2.5018 0.9187
-19.0506 -8.9813 -2.5018 0.9187
-18.7167 -9.6578 -2.5018 0.9187
-18.3588 -10.3219 -2.5018 0.9187
17.6551 0.0000 -2.5015 0.9312
17.6438 0.6323 -2.5015 0.9312
17.6098 1.2638 -2.5015 0.9312
17.4742 2.5211 -2.5015 0.9312
17.3727 3.1453 -2.5015 0.9312
15.9049 4.6869 -2.3494 0.9352
15.7268 5.2535 -2.3494 0.9352
14.5394 7.9713 -2.3494 0.9352
14.2446 8.4869 -2.3494 0.9352
13.9316 8.9916 -2.3494 0.9352
13.6006 9.4848 -2.3494 0.9352
12.8869 10.4340 -2.3494 0.9352
12.1070 11.3298 -2.3494 0.9352
9.8950 13.3055 -2.3494 0.9352
6.6517 14.7162 -2.2882 0.9368
4.2585 14.7410 -2.1741 0.9399
3.6956 14.7556 -2.1553 0.9404
2.0211 14.5590 -2.0826 0.9423
0.9808 14.7719 -2.0976 0.9419
-0.6824 16.5681 -2.3495 0.9352
-1.6769 14.8019 -2.1107 0.9416
-2.2184 14.8159 -2.1227 0.9413
-2.7248 14.6046 -2.1050 0.9417
-3.2712 14.6098 -2.1213 0.9413
-5.3379 15.6998 -2.3495 0.9352
-3.0190 5.9283 -0.9426 0.9735
-10.9564 12.4476 -2.3496 0.9352
-11.3952 12.0472 -2.3496 0.9352
-11.8194 11.6314 -2.3496 0.9352
-12.9988 10.2966 -2.3496 0.9352
-13.7025 9.3398 -2.3496 0.9352
-14.0282 8.8430 -2.3496 0.9352
-14.8958 7.2874 -2.3496 0.9352
-10.0553 4.4804 -1.5598 0.9565
-15.3792 6.2025 -2.3496 0.9352
-15.7838 5.0857 -2.3496 0.9352
-15.9558 4.5171 -2.3496 0.9352
-16.1073 3.9428 -2.3496 0.9352
-17.2645 3.5760 -2.4981 0.9312
-17.5745 1.7061 -2.5018 0.9312
-17.6243 1.0756 -2.5018 0.9312
-17.6515 0.4438 -2.5018 0.9312
-17.6561 -0.1887 -2.5018 0.9312
-17.6380 -0.8209 -2.5018 0.9312
-17.5973 -1.4521 -2.5018 0.9312
-16.8826 -5.1717 -2.5018 0.9312
-16.4691 -6.3669 -2.5018 0.9312
-16.2305 -6.9526 -2.5018 0.9312
-15.9710 -7.5295 -2.5018 0.9312
-15.6911 -8.0966 -2.5018 0.9312
-15.3911 -8.6533 -2.5018 0.9312
15.0294 2.1684 -2.5016 0.9403
14.9421 2.7052 -2.5016 0.9403
13.6796 4.0311 -2.3494 0.9438
12.2536 4.5873 -2.1555 0.9483
12.9638 5.9432 -2.3494 0.9438
12.7427 6.4037 -2.3494 0.9438
12.5052 6.8560 -2.3494 0.9438
11.6977 8.1577 -2.3494 0.9438
11.0838 8.9742 -2.3494 0.9438
10.4130 9.7446 -2.3494 0.9438
9.6888 10.4650 -2.3494 0.9438
9.3078 10.8053 -2.3494 0.9438
8.5105 11.4439 -2.3494 0.9438
7.6695 12.0237 -2.3494 0.9438
6.3357 12.7771 -2.3495 0.9438
4.9287 13.3830 -2.3495 0.9438
4.4463 13.5509 -2.3495 0.9438
3.9581 13.7015 -2.3495 0.9438
3.4649 13.8345 -2.3495 0.9438
2.9672 13.9497 -2.3495 0.9438
1.9611 14.1264 -2.3495 0.9438
1.4539 14.1876 -2.3495 0.9438
0.9449 14.2306 -2.3495 0.9438
-0.0762 14.2618 -2.3495 0.9438
-1.6055 14.1714 -2.3495 0.9438
-2.1120 14.1048 -2.3495 0.9438
-3.1162 13.9175 -2.3495 0.9438
-4.5910 13.5030 -2.3495 0.9438
-2.4080 6.3291 -1.1156 0.9729
-2.5584 6.0616 -1.0839 0.9737
-6.9232 12.4692 -2.3496 0.9438
-7.3653 12.2133 -2.3496 0.9438
-8.6328 11.3529 -2.3496 0.9438
-9.0339 11.0365 -2.3496 0.9438
-9.4234 10.7059 -2.3496 0.9438
-10.8556 9.2506 -2.3496 0.9438
-11.1799 8.8559 -2.3496 0.9438
-11.7852 8.0329 -2.3496 0.9438
-12.3300 7.1687 -2.3496 0.9438
-12.5788 6.7225 -2.3496 0.9438
-10.0553 4.4804 -1.8135 0.9564
-13.2273 5.3346 -2.3496 0.9438
-13.5752 4.3741 -2.3496 0.9438
-14.8708 3.0802 -2.5018 0.9403
-15.0531 2.0078 -2.5018 0.9403
-15.1817 0.3817 -2.5018 0.9403
-15.1856 -0.1623 -2.5018 0.9403
-15.1700 -0.7060 -2.5018 0.9403
-15.0805 -1.7901 -2.5018 0.9403
-15.0068 -2.3291 -2.5018 0.9403
-14.9137 -2.8650 -2.5018 0.9403
-14.6703 -3.9252 -2.5018 0.9403
-14.5203 -4.4481 -2.5018 0.9403
-13.9595 -5.9798 -2.5018 0.9403
-13.7363 -6.4759 -2.5018 0.9403
13.3090 0.0000 -2.5016 0.9473
13.3005 0.4767 -2.5016 0.9473
13.2749 0.9527 -2.5016 0.9473
13.2323 1.4275 -2.5016 0.9473
13.1727 1.9005 -2.5016 0.9473
13.0028 2.8385 -2.5016 0.9473
12.7302 3.7514 -2.4945 0.9474
11.8554 3.9603 -2.3494 0.9504
11.3623 5.2090 -2.3494 0.9504
11.1685 5.6126 -2.3494 0.9504
10.9603 6.0090 -2.3494 0.9504
10.7381 6.3977 -2.3494 0.9504
10.5021 6.7781 -2.3494 0.9504
10.2526 7.1499 -2.3494 0.9504
9.9900 7.5125 -2.3494 0.9504
9.7145 7.8655 -2.3494 0.9504
8.8149 8.8621 -2.3494 0.9504
7.8135 9.7565 -2.3494 0.9504
7.4591 10.0301 -2.3494 0.9504
6.7220 10.5383 -2.3494 0.9504
5.9504 10.9925 -2.3495 0.9504
4.3198 11.7296 -2.3495 0.9504
3.8970 11.8768 -2.3495 0.9504
3.4691 12.0087 -2.3495 0.9504
3.0368 12.1253 -2.3495 0.9504
2.6006 12.2263 -2.3495 0.9504
2.1611 12.3116 -2.3495 0.9504
1.7188 12.3811 -2.3495 0.9504
1.2743 12.4348 -2.3495 0.9504
0.8281 12.4725 -2.3495 0.9504
-0.0668 12.4998 -2.3495 0.9504
-0.5144 12.4894 -2.3495 0.9504
-0.9614 12.4630 -2.3495 0.9504
-1.4071 12.4206 -2.3495 0.9504
-1.8510 12.3622 -2.3495 0.9504
-2.2926 12.2880 -2.3495 0.9504
-2.7312 12.1980 -2.3495 0.9504
-2.4044 6.3196 -1.2709 0.9729
-2.5547 6.0528 -1.2349 0.9736
-3.0173 5.9250 -1.2498 0.9733
-6.0678 10.9287 -2.3495 0.9504
-6.8346 10.4663 -2.3496 0.9504
-7.2050 10.2149 -2.3496 0.9504
-7.5662 9.9503 -2.3496 0.9504
-7.9178 9.6729 -2.3496 0.9504
-8.2591 9.3832 -2.3496 0.9504
-8.5899 9.0814 -2.3496 0.9504
-8.9096 8.7679 -2.3496 0.9504
-9.7987 7.7617 -2.3496 0.9504
-10.0703 7.4058 -2.3496 0.9504
-10.5747 6.6660 -2.3496 0.9504
-11.0247 5.8919 -2.3496 0.9504
-11.2287 5.4933 -2.3496 0.9504
-10.0554 4.4804 -2.0692 0.9562
-11.5931 4.6755 -2.3496 0.9504
-11.7531 4.2573 -2.3496 0.9504
-11.9178 3.8400 -2.3535 0.9503
-12.7844 3.6193 -2.4974 0.9474
-12.9285 3.1647 -2.5018 0.9473
-13.1218 2.2311 -2.5018 0.9473
-13.1933 1.7597 -2.5018 0.9473
-13.2479 1.2861 -2.5018 0.9473
-13.2854 0.8108 -2.5018 0.9473
-13.3059 0.3345 -2.5018 0.9473
-13.3094 -0.1423 -2.5018 0.9473
-13.2958 -0.6188 -2.5018 0.9473
-13.2651 -1.0946 -2.5018 0.9473
-13.1527 -2.0413 -2.5018 0.9473
-13.0711 -2.5110 -2.5018 0.9473
-12.8578 -3.4402 -2.5018 0.9473
-12.7264 -3.8985 -2.5018 0.9473
-12.2348 -5.2410 -2.5018 0.9473
-12.0392 -5.6758 -2.5018 0.9473
11.8345 0.0000 -2.5016 0.9528
11.8270 0.4238 -2.5016 0.9528
11.1952 3.7397 -2.4950 0.9529
10.4091 3.8968 -2.3494 0.9556
9.7460 5.3433 -2.3494 0.9556
9.5484 5.6889 -2.3494 0.9556
8.6382 6.9941 -2.3494 0.9556
7.5510 8.1559 -2.3494 0.9556
7.2541 8.4211 -2.3494 0.9556
6.9479 8.6756 -2.3494 0.9556
6.6327 8.9188 -2.3494 0.9556
5.9773 9.3707 -2.3494 0.9556
4.9377 9.9578 -2.3495 0.9556
4.5780 10.1283 -2.3495 0.9556
3.4652 10.5609 -2.3495 0.9556
3.0848 10.6783 -2.3495 0.9556
2.7004 10.7819 -2.3495 0.9556
2.3125 10.8717 -2.3495 0.9556
1.5284 11.0094 -2.3495 0.9556
1.1331 11.0571 -2.3495 0.9556
0.7364 11.0906 -2.3495 0.9556
0.3387 11.1099 -2.3495 0.9556
-0.0594 11.1149 -2.3495 0.9556
-0.8549 11.0822 -2.3495 0.9556
-1.2512 11.0444 -2.3495 0.9556
-2.4286 10.8466 -2.3495 0.9556
-2.8155 10.7527 -2.3495 0.9556
-3.5780 10.5236 -2.3495 0.9556
-2.4008 6.3101 -1.4271 0.9728
-2.7560 5.9278 -1.3818 0.9736
-6.0773 9.3067 -2.3495 0.9556
-7.0405 8.6012 -2.3496 0.9556
-7.3440 8.3435 -2.3496 0.9556
-7.6382 8.0752 -2.3496 0.9556
-8.1966 7.5077 -2.3496 0.9556
-8.4602 7.2094 -2.3496 0.9556
-8.7130 6.9018 -2.3496 0.9556
-8.9546 6.5853 -2.3496 0.9556
-9.4030 5.9274 -2.3496 0.9556
-7.5634 4.3974 -1.8493 0.9649
-10.0555 4.4805 -2.3270 0.9560
-10.3086 4.1575 -2.3496 0.9556
-11.3879 3.2240 -2.5018 0.9528
-11.4960 2.8140 -2.5018 0.9528
-11.6680 1.9839 -2.5018 0.9528
-11.7801 1.1436 -2.5018 0.9528
-11.7954 -0.9733 -2.5018 0.9528
-11.7529 -1.3951 -2.5018 0.9528
-11.6954 -1.8151 -2.5018 0.9528
-11.6229 -2.2328 -2.5018 0.9528
-11.5355 -2.6477 -2.5018 0.9528
-11.4332 -3.0591 -2.5018 0.9528
-11.3163 -3.4666 -2.5018 0.9528
-10.8792 -4.6603 -2.5018 0.9528
10.5826 1.1417 -2.5016 0.9572
10.3992 2.2701 -2.5016 0.9572
10.3112 2.6411 -2.5016 0.9572
9.9441 3.7227 -2.4955 0.9573
8.9321 4.4887 -2.3494 0.9598
8.7656 4.8057 -2.3494 0.9598
8.5879 5.1166 -2.3494 0.9598
8.1996 5.7182 -2.3494 0.9598
7.7693 6.2905 -2.3494 0.9598
7.2991 6.8305 -2.3494 0.9598
7.0498 7.0875 -2.3494 0.9598
6.7914 7.3355 -2.3494 0.9598
6.2489 7.8028 -2.3494 0.9598
5.9655 8.0216 -2.3494 0.9598
5.6744 8.2301 -2.3494 0.9598
5.3760 8.4281 -2.3495 0.9598
5.0707 8.6152 -2.3495 0.9598
4.1174 9.1094 -2.3495 0.9598
3.4548 9.3808 -2.3495 0.9598
2.7745 9.6041 -2.3495 0.9598
2.0799 9.7780 -2.3495 0.9598
1.3746 9.9019 -2.3495 0.9598
1.0191 9.9448 -2.3495 0.9598
0.6623 9.9749 -2.3495 0.9598
-0.0534 9.9967 -2.3495 0.9598
-0.4114 9.9884 -2.3495 0.9598
-1.4804 9.8867 -2.3495 0.9598
-1.8335 9.8274 -2.3495 0.9598
-2.5323 9.6709 -2.3495 0.9598
-2.8770 9.5740 -2.3495 0.9598
-2.3972 6.3006 -1.5843 0.9727
-2.5472 6.0351 -1.5395 0.9734
-2.7552 5.9262 -1.5360 0.9735
-4.8528 8.7402 -2.3495 0.9598
-5.1627 8.5608 -2.3495 0.9598
-6.0511 7.9577 -2.3495 0.9598
-6.3322 7.7359 -2.3495 0.9598
-6.6052 7.5042 -2.3495 0.9598
-7.1254 7.0121 -2.3495 0.9598
-7.8365 6.2074 -2.3496 0.9598
-8.0537 5.9228 -2.3496 0.9598
-8.2607 5.6306 -2.3496 0.9598
-7.3918 4.6596 -2.0536 0.9647
-7.5285 4.3771 -2.0467 0.9648
-9.1317 4.0689 -2.3496 0.9598
-9.4947 3.8292 -2.4061 0.9588
-9.9910 3.6190 -2.4974 0.9573
-10.1318 3.2646 -2.5018 0.9572
-10.3395 2.5309 -2.5018 0.9572
-10.5513 1.4074 -2.5018 0.9572
-10.6250 0.6484 -2.5018 0.9572
-10.6414 0.2675 -2.5018 0.9572
-10.6333 -0.4949 -2.5018 0.9572
-10.6087 -0.8754 -2.5018 0.9572
-10.5705 -1.2548 -2.5018 0.9572
-10.5188 -1.6325 -2.5018 0.9572
-10.2830 -2.7513 -2.5018 0.9572
-10.1779 -3.1178 -2.5018 0.9572
-10.0597 -3.4804 -2.5018 0.9572
-9.9286 -3.8384 -2.5018 0.9572
-9.7847 -4.1915 -2.5018 0.9572
-9.6283 -4.5392 -2.5018 0.9572
9.6618 0.0000 -2.5016 0.9609
9.6060 1.0363 -2.5016 0.9609
9.5628 1.3797 -2.5016 0.9609
9.5072 1.7212 -2.5016 0.9609
9.4395 2.0606 -2.5016 0.9609
9.3596 2.3974 -2.5016 0.9609
9.1640 3.0612 -2.5016 0.9609
9.0475 3.3871 -2.5013 0.9609
8.9015 3.7011 -2.4960 0.9610
8.3899 3.8463 -2.3897 0.9626
8.1078 4.0745 -2.3494 0.9632
7.4429 5.1905 -2.3494 0.9632
7.2522 5.4537 -2.3494 0.9632
7.0523 5.7100 -2.3494 0.9632
6.8433 5.9589 -2.3494 0.9632
6.6255 6.2001 -2.3494 0.9632
6.3992 6.4335 -2.3494 0.9632
6.1647 6.6585 -2.3494 0.9632
5.1507 7.4706 -2.3495 0.9632
4.6027 7.8201 -2.3495 0.9632
4.0312 8.1296 -2.3495 0.9632
3.7374 8.2687 -2.3495 0.9632
3.4389 8.3973 -2.3495 0.9632
3.1360 8.5151 -2.3495 0.9632
2.8290 8.6219 -2.3495 0.9632
1.5688 8.9376 -2.3495 0.9632
1.2478 8.9881 -2.3495 0.9632
0.6012 9.0543 -2.3495 0.9632
-0.6979 9.0474 -2.3495 0.9632
-1.0215 9.0166 -2.3495 0.9632
-2.3935 6.2909 -1.7427 0.9726
-3.0147 5.9198 -1.7200 0.9729
-4.0919 7.3698 -2.1826 0.9658
-4.6862 7.7708 -2.3495 0.9632
-4.9615 7.5979 -2.3495 0.9632
-5.2304 7.4154 -2.3495 0.9632
-5.9956 6.8116 -2.3495 0.9632
-6.2357 6.5925 -2.3495 0.9632
-6.6917 6.1293 -2.3495 0.9632
-6.9069 5.8857 -2.3495 0.9632
-7.1132 5.6345 -2.3495 0.9632
-7.3105 5.3762 -2.3495 0.9632
-7.4983 5.1109 -2.3495 0.9632
-7.3667 4.6438 -2.2547 0.9647
-8.0033 4.2772 -2.3496 0.9632
-8.1662 3.9951 -2.3538 0.9631
-8.5842 3.8249 -2.4333 0.9619
-8.9462 3.6080 -2.4976 0.9609
-9.3853 2.2974 -2.5018 0.9609
-9.4615 1.9598 -2.5018 0.9609
-9.5256 1.6197 -2.5018 0.9609
-9.5775 1.2775 -2.5018 0.9609
-9.6171 0.9336 -2.5018 0.9609
-9.5950 -1.1390 -2.5018 0.9609
-8.7397 -4.1203 -2.5017 0.9609
-8.5866 -4.4307 -2.5017 0.9609
-8.4224 -4.7353 -2.5017 0.9609
8.8310 0.3165 -2.5016 0.9639
8.8140 0.6325 -2.5016 0.9639
8.6954 1.5743 -2.5016 0.9639
8.5604 2.1927 -2.5016 0.9639
8.2758 3.0982 -2.5016 0.9639
8.0168 3.6753 -2.4966 0.9640
7.6553 3.8471 -2.4254 0.9650
7.2772 3.9897 -2.3494 0.9661
6.6329 4.9880 -2.3494 0.9661
6.4501 5.2224 -2.3494 0.9661
6.2589 5.4500 -2.3494 0.9661
6.0597 5.6707 -2.3494 0.9661
5.8527 5.8841 -2.3494 0.9661
5.1879 6.4779 -2.3494 0.9661
4.9525 6.6595 -2.3495 0.9661
4.2097 7.1523 -2.3495 0.9661
2.5874 7.8857 -2.3495 0.9661
2.3034 7.9733 -2.3495 0.9661
1.7267 8.1177 -2.3495 0.9661
1.4349 8.1743 -2.3495 0.9661
1.1412 8.2205 -2.3495 0.9661
0.5498 8.2811 -2.3495 0.9661
-0.6383 8.2748 -2.3495 0.9661
-0.9343 8.2466 -2.3495 0.9661
-1.2290 8.2079 -2.3495 0.9661
-1.6249 7.2569 -2.1053 0.9696
-1.6062 6.1343 -1.7951 0.9740
-2.4963 7.3420 -2.1953 0.9683
-2.5396 6.0171 -1.8489 0.9732
-2.7536 5.9227 -1.8490 0.9732
-3.0138 5.9180 -1.8801 0.9728
-4.0063 6.6434 -2.1962 0.9683
-5.4836 6.2299 -2.3495 0.9661
-5.9155 5.8214 -2.3495 0.9661
-6.3170 5.3830 -2.3495 0.9661
-6.5058 5.1534 -2.3495 0.9661
-6.6862 4.9171 -2.3495 0.9661
-7.0210 4.4259 -2.3495 0.9661
-7.8091 3.8204 -2.4611 0.9645
-8.1958 3.3054 -2.5018 0.9639
-8.3089 3.0097 -2.5018 0.9639
-8.4114 2.7102 -2.5018 0.9639
-8.5838 2.1012 -2.5018 0.9639
-8.7122 1.4813 -2.5018 0.9639
-8.7596 1.1684 -2.5018 0.9639
-8.7959 0.8539 -2.5018 0.9639
-8.8277 -0.4109 -2.5018 0.9639
-8.8073 -0.7268 -2.5018 0.9639
-8.7756 -1.0417 -2.5017 0.9639
-8.7326 -1.3553 -2.5017 0.9639
-8.6785 -1.6672 -2.5017 0.9639
-8.6132 -1.9769 -2.5017 0.9639
-8.5369 -2.2841 -2.5017 0.9639
-8.4496 -2.5884 -2.5017 0.9639
-8.3515 -2.8894 -2.5017 0.9639
-8.1232 -3.4797 -2.5017 0.9639
-7.9934 -3.7684 -2.5017 0.9639
-7.8533 -4.0523 -2.5017 0.9639
-7.7031 -4.3309 -2.5017 0.9639
8.1333 -0.0000 -2.5016 0.9665
8.1280 0.2913 -2.5016 0.9665
8.0499 1.1614 -2.5016 0.9665
8.0032 1.4490 -2.5016 0.9665
7.8789 2.0181 -2.5016 0.9665
7.7143 2.5769 -2.5016 0.9665
7.5100 3.1225 -2.5016 0.9665
7.0166 3.8468 -2.4612 0.9671
6.5621 3.9097 -2.3494 0.9685
6.1049 4.5909 -2.3494 0.9685
5.9366 4.8066 -2.3494 0.9685
5.7606 5.0162 -2.3494 0.9685
5.5773 5.2193 -2.3494 0.9685
4.7749 5.9622 -2.3495 0.9685
4.5583 6.1294 -2.3495 0.9685
4.3358 6.2887 -2.3495 0.9685
3.3934 6.8434 -2.3495 0.9685
3.1462 6.9606 -2.3495 0.9685
2.8949 7.0688 -2.3495 0.9685
2.1200 7.3385 -2.3495 0.9685
1.8558 7.4098 -2.3495 0.9685
1.3206 7.5236 -2.3495 0.9685
1.0504 7.5661 -2.3495 0.9685
0.5061 7.6219 -2.3495 0.9685
0.2328 7.6351 -2.3495 0.9685
-0.0408 7.6386 -2.3495 0.9685
-0.5875 7.6161 -2.3495 0.9685
-1.4010 7.5091 -2.3495 0.9685
-1.5504 6.9244 -2.1825 0.9707
-1.6062 6.1343 -1.9504 0.9738
-2.2003 6.4715 -2.1024 0.9718
-2.3861 6.2714 -2.0638 0.9723
-2.6373 5.1788 -1.7875 0.9760
-2.8732 5.1749 -1.8206 0.9755
-3.1183 5.1708 -1.8573 0.9750
-3.3611 5.1471 -1.8908 0.9746
-3.6411 5.1621 -1.9430 0.9739
-5.0471 5.7340 -2.3495 0.9685
-5.4446 5.3580 -2.3495 0.9685
-5.6330 5.1596 -2.3495 0.9685
-6.1539 4.5256 -2.3495 0.9685
-6.4621 4.0735 -2.3495 0.9685
-6.6131 3.8449 -2.3529 0.9685
-7.1395 3.8156 -2.4899 0.9667
-7.4295 3.3104 -2.5017 0.9665
-7.5433 3.0422 -2.5017 0.9665
-7.6474 2.7701 -2.5017 0.9665
-7.9004 1.9339 -2.5017 0.9665
-8.0186 1.3634 -2.5017 0.9665
-8.1332 -0.0869 -2.5017 0.9665
-8.0770 -0.9588 -2.5017 0.9665
-8.0375 -1.2474 -2.5017 0.9665
-7.9876 -1.5345 -2.5017 0.9665
-7.9275 -1.8196 -2.5017 0.9665
-7.8573 -2.1023 -2.5017 0.9665
-7.7769 -2.3823 -2.5017 0.9665
-7.6866 -2.6593 -2.5017 0.9665
-7.4766 -3.2027 -2.5017 0.9665
-7.3570 -3.4684 -2.5017 0.9665
-7.0899 -3.9862 -2.5017 0.9665
7.5210 0.2695 -2.5016 0.9688
7.4487 1.0747 -2.5016 0.9688
7.4054 1.3407 -2.5016 0.9688
7.3527 1.6051 -2.5016 0.9688
7.2189 2.1273 -2.5016 0.9688
7.1381 2.3845 -2.5016 0.9688
6.8412 3.1363 -2.5016 0.9688
6.4458 3.8404 -2.4941 0.9689
5.7975 4.0430 -2.3494 0.9706
4.9845 5.0112 -2.3494 0.9706
4.8018 5.1865 -2.3495 0.9706
4.6130 5.3551 -2.3495 0.9706
4.4182 5.5169 -2.3495 0.9706
4.2178 5.6716 -2.3495 0.9706
3.8010 5.9590 -2.3495 0.9706
3.5852 6.0913 -2.3495 0.9706
3.1400 6.3323 -2.3495 0.9706
2.9112 6.4407 -2.3495 0.9706
2.6786 6.5408 -2.3495 0.9706
2.4427 6.6326 -2.3495 0.9706
0.9719 7.0010 -2.3495 0.9706
-0.2909 7.0622 -2.3495 0.9706
-0.5436 7.0472 -2.3495 0.9706
-1.2963 6.9483 -2.3495 0.9706
-1.6062 6.1343 -2.1078 0.9736
-1.7657 5.1933 -1.8233 0.9771
-1.9746 5.1898 -1.8458 0.9769
-2.1889 5.1863 -1.8712 0.9766
-2.4005 5.1631 -1.8927 0.9763
-2.6373 5.1788 -1.9318 0.9758
-2.8732 5.1749 -1.9675 0.9754
-3.3738 5.1666 -2.0511 0.9743
-4.8571 5.1350 -2.3495 0.9706
-5.0379 4.9578 -2.3495 0.9706
-5.5406 4.3888 -2.3495 0.9706
-5.6942 4.1876 -2.3495 0.9706
-6.4885 3.7724 -2.4948 0.9689
-6.6297 3.5431 -2.4987 0.9688
-6.7605 3.3074 -2.5017 0.9688
-6.8746 3.0632 -2.5017 0.9688
-7.1635 2.3081 -2.5017 0.9688
-7.3103 1.7895 -2.5017 0.9688
-7.3697 1.5265 -2.5017 0.9688
-7.4197 1.2616 -2.5017 0.9688
-7.4601 0.9950 -2.5017 0.9688
-7.4910 0.7272 -2.5017 0.9688
-7.5238 0.1891 -2.5017 0.9688
-7.5257 -0.0804 -2.5017 0.9688
-7.4737 -0.8872 -2.5017 0.9688
-7.3354 -1.6836 -2.5017 0.9688
-7.2704 -1.9453 -2.5017 0.9688
-7.1125 -2.4607 -2.5017 0.9688
-7.0198 -2.7139 -2.5017 0.9688
-6.9181 -2.9635 -2.5017 0.9688
-6.8075 -3.2094 -2.5017 0.9688
-6.6882 -3.4511 -2.5017 0.9688
6.9955 -0.0000 -2.5016 0.9707
6.9910 0.2505 -2.5016 0.9707
6.9775 0.5007 -2.5016 0.9707
6.9551 0.7503 -2.5016 0.9707
6.8836 1.2462 -2.5016 0.9707
6.8345 1.4920 -2.5016 0.9707
6.7767 1.7358 -2.5016 0.9707
6.5514 2.4526 -2.5016 0.9707
6.3591 2.9153 -2.5016 0.9707
6.2506 3.1412 -2.5016 0.9707
6.1341 3.3630 -2.5016 0.9707
6.0025 3.5762 -2.4986 0.9708
5.8623 3.7836 -2.4951 0.9708
5.5419 3.8648 -2.4162 0.9717
5.2509 3.9487 -2.3494 0.9725
5.1061 4.1342 -2.3494 0.9725
4.9547 4.3144 -2.3494 0.9725
4.7971 4.4891 -2.3494 0.9725
4.6332 4.6580 -2.3495 0.9725
2.9187 5.8861 -2.3495 0.9725
2.7060 5.9868 -2.3495 0.9725
2.4899 6.0799 -2.3495 0.9725
2.2705 6.1652 -2.3495 0.9725
1.8234 6.3119 -2.3495 0.9725
1.5962 6.3731 -2.3495 0.9725
1.3669 6.4262 -2.3495 0.9725
0.9034 6.5076 -2.3495 0.9725
0.6698 6.5358 -2.3495 0.9725
0.4353 6.5556 -2.3495 0.9725
0.2002 6.5670 -2.3495 0.9725
-0.0351 6.5699 -2.3495 0.9725
-0.2704 6.5645 -2.3495 0.9725
-0.5053 6.5506 -2.3495 0.9725
-0.7396 6.5283 -2.3495 0.9725
-1.2050 6.4586 -2.3495 0.9725
-1.4355 6.4113 -2.3495 0.9725
-1.5459 5.9041 -2.1825 0.9744
-1.5611 5.1952 -1.9399 0.9772
-1.7657 5.1933 -1.9616 0.9770
-2.4095 5.1826 -2.0439 0.9760
-2.8732 5.1749 -2.1167 0.9752
-3.1183 5.1708 -2.1593 0.9747
-3.3369 5.1101 -2.1825 0.9744
-3.8332 5.0410 -2.2647 0.9735
-4.6829 4.6084 -2.3495 0.9725
-5.1502 4.0795 -2.3495 0.9725
-5.2929 3.8925 -2.3495 0.9725
-5.6159 3.8278 -2.4304 0.9715
-5.9038 3.7216 -2.4957 0.9708
-6.1699 3.2974 -2.5017 0.9707
-6.2841 3.0743 -2.5017 0.9707
-6.3901 2.8473 -2.5017 0.9707
-6.4880 2.6166 -2.5017 0.9707
-6.6587 2.1455 -2.5017 0.9707
-6.7312 1.9056 -2.5017 0.9707
-6.9630 0.6760 -2.5017 0.9707
-6.9828 0.4262 -2.5017 0.9707
-6.9936 0.1758 -2.5017 0.9707
-6.9954 -0.0748 -2.5017 0.9707
-6.9470 -0.8246 -2.5017 0.9707
-6.9130 -1.0729 -2.5017 0.9707
-6.8701 -1.3198 -2.5017 0.9707
-6.4306 -2.7547 -2.5017 0.9707
-6.2169 -3.2079 -2.5017 0.9707
-6.0980 -3.4285 -2.5017 0.9707
5.2093 0.0000 -1.9963 0.9779
6.5112 0.4673 -2.5016 0.9724
6.4903 0.7002 -2.5016 0.9724
6.4611 0.9322 -2.5016 0.9724
6.4235 1.1630 -2.5016 0.9724
6.2617 1.8452 -2.5016 0.9724
6.1916 2.0683 -2.5016 0.9724
5.9341 2.7205 -2.5016 0.9724
5.8329 2.9312 -2.5016 0.9724
5.7241 3.1383 -2.5016 0.9724
5.6081 3.3412 -2.5016 0.9724
5.1316 3.8590 -2.4605 0.9729
4.6236 4.0261 -2.3495 0.9741
4.3236 4.3467 -2.3495 0.9741
4.0013 4.6451 -2.3495 0.9741
3.8324 4.7854 -2.3495 0.9741
3.6586 4.9196 -2.3495 0.9741
3.4800 5.0475 -2.3495 0.9741
3.2970 5.1689 -2.3495 0.9741
2.9186 5.3916 -2.3495 0.9741
2.7236 5.4927 -2.3495 0.9741
2.3235 5.6736 -2.3495 0.9741
1.9114 5.8253 -2.3495 0.9741
1.7015 5.8901 -2.3495 0.9741
1.4895 5.9472 -2.3495 0.9741
1.2756 5.9968 -2.3495 0.9741
0.8430 6.0727 -2.3495 0.9741
0.6250 6.0990 -2.3495 0.9741
0.4062 6.1175 -2.3495 0.9741
0.1868 6.1281 -2.3495 0.9741
-0.4715 6.1128 -2.3495 0.9741
-0.6902 6.0920 -2.3495 0.9741
-0.9079 6.0634 -2.3495 0.9741
-1.1245 6.0270 -2.3495 0.9741
-1.5611 5.1952 -2.0788 0.9770
-1.7657 5.1933 -2.1020 0.9768
-1.9746 5.1898 -2.1279 0.9765
-2.1889 5.1863 -2.1572 0.9762
-2.4011 5.1644 -2.1825 0.9759
-2.5866 5.0793 -2.1843 0.9759
-2.8083 5.0580 -2.2171 0.9755
-3.0479 5.0541 -2.2617 0.9750
-3.7110 4.8803 -2.3495 0.9741
-3.8834 4.7443 -2.3495 0.9741
-4.0509 4.6022 -2.3495 0.9741
-4.2131 4.4542 -2.3495 0.9741
-4.5211 4.1411 -2.3495 0.9741
-4.6665 3.9766 -2.3495 0.9741
-4.8476 3.8399 -2.3699 0.9739
-5.5183 3.4786 -2.4998 0.9724
-5.6437 3.2812 -2.5017 0.9724
-6.0544 2.4417 -2.5017 0.9724
-6.2136 2.0021 -2.5017 0.9724
-6.3410 1.5522 -2.5017 0.9724
-6.4359 1.0943 -2.5017 0.9724
-6.4709 0.8631 -2.5017 0.9724
-6.5262 0.1641 -2.5017 0.9724
-6.5279 -0.0698 -2.5017 0.9724
-6.4827 -0.7695 -2.5017 0.9724
-6.4510 -1.0012 -2.5017 0.9724
-6.3064 -1.6873 -2.5017 0.9724
-6.0008 -2.5706 -2.5017 0.9724
-5.6905 -3.1994 -2.5017 0.9724
4.7636 -0.0000 -1.9496 0.9796
6.0771 0.6556 -2.5016 0.9739
6.0497 0.8728 -2.5016 0.9739
5.9717 1.3036 -2.5016 0.9739
5.9212 1.5167 -2.5016 0.9739
5.8631 1.7277 -2.5016 0.9739
5.7975 1.9366 -2.5016 0.9739
5.6440 2.3466 -2.5016 0.9739
5.5563 2.5473 -2.5016 0.9739
5.2510 3.1285 -2.5016 0.9739
5.1356 3.3146 -2.5016 0.9739
5.0106 3.4942 -2.5001 0.9739
4.8765 3.6672 -2.4972 0.9740
4.4465 3.8719 -2.4131 0.9748
4.0483 4.0700 -2.3495 0.9755
3.7466 4.3493 -2.3495 0.9755
3.5884 4.4807 -2.3495 0.9755
3.4256 4.6064 -2.3495 0.9755
3.2585 4.7261 -2.3495 0.9755
3.0871 4.8398 -2.3495 0.9755
2.3644 5.2310 -2.3495 0.9755
1.9839 5.3869 -2.3495 0.9755
1.7897 5.4545 -2.3495 0.9755
1.5932 5.5151 -2.3495 0.9755
-0.0307 5.7405 -2.3495 0.9755
-0.2362 5.7358 -2.3495 0.9755
-0.4415 5.7236 -2.3495 0.9755
-0.6462 5.7041 -2.3495 0.9755
-1.2543 5.6019 -2.3495 0.9755
-1.4541 5.5534 -2.3495 0.9755
-1.5347 5.1071 -2.1825 0.9772
-1.7271 5.0798 -2.1959 0.9771
-2.1395 5.0691 -2.2519 0.9765
-2.5778 5.0619 -2.3249 0.9757
-3.4748 4.5696 -2.3495 0.9755
-3.6362 4.4422 -2.3495 0.9755
-4.2333 3.8775 -2.3495 0.9755
-4.4966 3.8317 -2.4179 0.9748
-4.7779 3.7847 -2.4947 0.9740
-5.0483 3.4410 -2.5005 0.9739
-5.1709 3.2596 -2.5017 0.9739
-5.2843 3.0723 -2.5017 0.9739
-5.5834 2.4878 -2.5017 0.9739
-5.6689 2.2863 -2.5017 0.9739
-5.7472 2.0818 -2.5017 0.9739
-5.8180 1.8746 -2.5017 0.9739
-6.0589 0.8081 -2.5017 0.9739
-6.0840 0.5906 -2.5017 0.9739
-6.1122 -0.0653 -2.5017 0.9739
-6.0919 -0.5027 -2.5017 0.9739
-6.0700 -0.7205 -2.5017 0.9739
-6.0403 -0.9375 -2.5017 0.9739
-6.0028 -1.1532 -2.5017 0.9739
-5.9577 -1.3674 -2.5017 0.9739
-5.8445 -1.7904 -2.5017 0.9739
-5.7766 -1.9985 -2.5017 0.9739
-5.6187 -2.4069 -2.5017 0.9739
-5.5289 -2.6066 -2.5017 0.9739
4.7431 0.0000 -2.0671 0.9795
5.7254 0.4109 -2.5016 0.9753
5.7070 0.6157 -2.5016 0.9753
5.6813 0.8197 -2.5016 0.9753
5.6483 1.0226 -2.5016 0.9753
5.4444 1.8187 -2.5016 0.9753
5.3758 2.0125 -2.5016 0.9753
5.1289 2.5775 -2.5016 0.9753
5.0333 2.7595 -2.5016 0.9753
4.7083 3.2834 -2.5016 0.9753
4.5864 3.4490 -2.5009 0.9753
4.3186 3.7605 -2.4957 0.9753
4.1280 3.8630 -2.4639 0.9756
3.3699 4.2079 -2.3495 0.9768
2.7345 4.6459 -2.3495 0.9768
2.5664 4.7409 -2.3495 0.9768
2.2204 4.9125 -2.3495 0.9768
2.0431 4.9888 -2.3495 0.9768
1.6807 5.1223 -2.3495 0.9768
1.3097 5.2295 -2.3495 0.9768
0.7413 5.3398 -2.3495 0.9768
0.3572 5.3792 -2.3495 0.9768
0.1643 5.3885 -2.3495 0.9768
-0.4146 5.3750 -2.3495 0.9768
-0.9887 5.2996 -2.3495 0.9768
-1.1779 5.2608 -2.3495 0.9768
-1.3656 5.2152 -2.3495 0.9768
-1.7258 5.0760 -2.3366 0.9769
-2.2728 4.8885 -2.3495 0.9768
-2.4464 4.8040 -2.3495 0.9768
-2.6169 4.7133 -2.3495 0.9768
-2.7840 4.6165 -2.3495 0.9768
-2.9476 4.5139 -2.3495 0.9768
-3.2631 4.2913 -2.3495 0.9768
-3.4147 4.1717 -2.3495 0.9768
-3.5620 4.0467 -2.3495 0.9768
-4.3589 3.7144 -2.4959 0.9753
-4.4938 3.5596 -2.4985 0.9753
-4.8560 3.0611 -2.5017 0.9753
-5.0627 2.7056 -2.5017 0.9753
-5.1563 2.5226 -2.5017 0.9753
-5.2434 2.3363 -2.5017 0.9753
-5.3237 2.1470 -2.5017 0.9753
-5.4637 1.7605 -2.5017 0.9753
-5.6210 1.1643 -2.5017 0.9753
-5.7135 0.5547 -2.5017 0.9753
-5.7297 0.3497 -2.5017 0.9753
-5.7385 0.1443 -2.5017 0.9753
-5.6372 -1.0830 -2.5017 0.9753
-5.5948 -1.2841 -2.5017 0.9753
-5.5452 -1.4837 -2.5017 0.9753
-5.4886 -1.6813 -2.5017 0.9753
-5.4248 -1.8768 -2.5017 0.9753
-5.3541 -2.0699 -2.5017 0.9753
-5.2766 -2.2603 -2.5017 0.9753
-5.1922 -2.4478 -2.5017 0.9753
-5.1012 -2.6322 -2.5017 0.9753
-5.0037 -2.8132 -2.5017 0.9753
5.4010 0.1935 -2.5016 0.9765
5.3733 0.5797 -2.5016 0.9765
5.2801 1.1526 -2.5016 0.9765
5.0614 1.8948 -2.5016 0.9765
4.9128 2.2523 -2.5016 0.9765
4.6429 2.7662 -2.5016 0.9765
4.5408 2.9307 -2.5016 0.9765
4.4330 3.0915 -2.5017 0.9765
4.3194 3.2482 -2.5017 0.9765
4.2003 3.4008 -2.5017 0.9765
3.9387 3.6858 -2.4969 0.9765
3.8006 3.8210 -2.4946 0.9765
3.3411 3.8787 -2.3696 0.9777
2.8811 4.1787 -2.3495 0.9779
2.7296 4.2793 -2.3495 0.9779
2.4163 4.4637 -2.3495 0.9779
2.2549 4.5473 -2.3495 0.9779
1.9236 4.6971 -2.3495 0.9779
1.7541 4.7630 -2.3495 0.9779
1.5824 4.8227 -2.3495 0.9779
1.4087 4.8763 -2.3495 0.9779
1.0560 4.9647 -2.3495 0.9779
0.8775 4.9993 -2.3495 0.9779
0.5174 5.0493 -2.3495 0.9779
0.3363 5.0646 -2.3495 0.9779
-0.0271 5.0757 -2.3495 0.9779
-0.2089 5.0715 -2.3495 0.9779
-0.7516 5.0198 -2.3495 0.9779
-1.6339 4.8056 -2.3495 0.9779
-1.9737 4.6763 -2.3495 0.9779
-2.1399 4.6026 -2.3495 0.9779
-2.3034 4.5231 -2.3495 0.9779
-2.4639 4.4377 -2.3495 0.9779
-3.0723 4.0404 -2.3495 0.9779
-3.2151 3.9277 -2.3495 0.9779
-3.3832 3.8437 -2.3702 0.9777
-3.8414 3.7803 -2.4948 0.9765
-3.9780 3.6437 -2.4971 0.9765
-4.2365 3.3558 -2.5017 0.9765
-4.4659 3.0440 -2.5017 0.9765
-4.8548 2.3751 -2.5017 0.9765
-4.9367 2.1997 -2.5017 0.9765
-5.1442 1.6575 -2.5017 0.9765
-5.2003 1.4722 -2.5017 0.9765
-5.3282 0.9059 -2.5017 0.9765
-5.3572 0.7145 -2.5017 0.9765
-5.3793 0.5222 -2.5017 0.9765
-5.4043 -0.0578 -2.5017 0.9765
-5.3988 -0.2513 -2.5017 0.9765
-5.3863 -0.4445 -2.5017 0.9765
-5.3407 -0.8289 -2.5017 0.9765
-5.3076 -1.0196 -2.5017 0.9765
-5.2677 -1.2091 -2.5017 0.9765
-5.1676 -1.5830 -2.5017 0.9765
5.0967 0.1826 -2.5016 0.9775
5.0869 0.3651 -2.5016 0.9775
5.0705 0.5470 -2.5016 0.9775
5.0184 0.9085 -2.5016 0.9775
4.9826 1.0877 -2.5016 0.9775
4.9405 1.2654 -2.5016 0.9775
4.7762 1.7880 -2.5016 0.9775
4.4720 2.4518 -2.5016 0.9775
4.2850 2.7656 -2.5017 0.9775
4.1832 2.9173 -2.5017 0.9775
3.9637 3.2092 -2.5017 0.9775
3.8462 3.3491 -2.5017 0.9775
3.4571 3.7340 -2.4961 0.9776
3.3185 3.8523 -2.4941 0.9776
3.0968 3.8669 -2.4301 0.9782
2.8836 3.8775 -2.3703 0.9787
2.7188 3.9433 -2.3495 0.9789
2.4295 4.1278 -2.3495 0.9789
2.2801 4.2122 -2.3495 0.9789
1.9728 4.3646 -2.3495 0.9789
1.8152 4.4324 -2.3495 0.9789
1.6553 4.4946 -2.3495 0.9789
0.8281 4.7176 -2.3495 0.9789
0.6586 4.7442 -2.3495 0.9789
0.4883 4.7648 -2.3495 0.9789
0.3173 4.7792 -2.3495 0.9789
0.1460 4.7875 -2.3495 0.9789
-0.1971 4.7857 -2.3495 0.9789
-0.3684 4.7756 -2.3495 0.9789
-0.5392 4.7593 -2.3495 0.9789
-1.0465 4.6740 -2.3495 0.9789
-1.5418 4.5348 -2.3495 0.9789
-1.7033 4.4767 -2.3495 0.9789
-1.8625 4.4128 -2.3495 0.9789
-2.0193 4.3433 -2.3495 0.9789
-2.3251 4.1876 -2.3495 0.9789
-2.4735 4.1017 -2.3495 0.9789
-3.7590 3.4431 -2.5005 0.9775
-3.8818 3.3079 -2.5017 0.9775
-3.9978 3.1668 -2.5017 0.9775
-4.1087 3.0216 -2.5017 0.9775
-4.2143 2.8725 -2.5017 0.9775
-4.3144 2.7197 -2.5017 0.9775
-4.4980 2.4039 -2.5017 0.9775
-4.5812 2.2413 -2.5017 0.9775
-4.7299 1.9076 -2.5017 0.9775
-4.7952 1.7370 -2.5017 0.9775
-4.9941 1.0345 -2.5017 0.9775
-5.0906 0.3107 -2.5017 0.9775
-5.0985 0.1282 -2.5017 0.9775
-5.0645 -0.6012 -2.5017 0.9775
-4.9268 -1.3182 -2.5017 0.9775
-4.7570 -1.8390 -2.5017 0.9775
-4.6131 -2.1748 -2.5017 0.9775
-4.5323 -2.3387 -2.5017 0.9775
-4.4456 -2.4995 -2.5017 0.9775
4.8191 0.1727 -2.5016 0.9785
4.8098 0.3452 -2.5016 0.9785
4.7728 0.6886 -2.5016 0.9785
4.7450 0.8591 -2.5016 0.9785
4.7112 1.0285 -2.5016 0.9785
4.5737 1.5278 -2.5016 0.9785
4.5161 1.6907 -2.5016 0.9785
4.4526 1.8513 -2.5016 0.9785
4.1427 2.4682 -2.5017 0.9785
3.9554 2.7584 -2.5017 0.9785
3.7478 3.0344 -2.5017 0.9785
3.4004 3.4186 -2.5014 0.9785
3.1421 3.6476 -2.4976 0.9785
3.0072 3.7550 -2.4957 0.9786
2.8668 3.8549 -2.4922 0.9786
2.4711 3.8741 -2.3838 0.9795
2.1559 3.9827 -2.3495 0.9798
2.0119 4.0574 -2.3495 0.9798
1.7163 4.1910 -2.3495 0.9798
1.1003 4.3932 -2.3495 0.9798
0.9422 4.4298 -2.3495 0.9798
0.7830 4.4607 -2.3495 0.9798
0.4617 4.5053 -2.3495 0.9798
0.3000 4.5189 -2.3495 0.9798
-0.0242 4.5288 -2.3495 0.9798
-0.1864 4.5250 -2.3495 0.9798
-1.7610 4.1725 -2.3495 0.9798
-1.9093 4.1067 -2.3495 0.9798
-2.0552 4.0357 -2.3495 0.9798
-2.3388 3.8783 -2.3495 0.9798
-2.5113 3.8457 -2.3828 0.9795
-2.7051 3.8351 -2.4347 0.9791
-2.9074 3.8235 -2.4919 0.9786
-3.5560 3.2572 -2.5017 0.9785
-3.8849 2.8570 -2.5017 0.9785
-4.0794 2.5716 -2.5017 0.9785
-4.4723 1.8037 -2.5017 0.9785
-4.5340 1.6423 -2.5017 0.9785
-4.6400 1.3136 -2.5017 0.9785
-4.7221 0.9781 -2.5017 0.9785
-4.7541 0.8083 -2.5017 0.9785
-4.7800 0.6376 -2.5017 0.9785
-4.8134 0.2938 -2.5017 0.9785
-4.8171 -0.2242 -2.5017 0.9785
-4.7887 -0.5684 -2.5017 0.9785
-4.7653 -0.7396 -2.5017 0.9785
-4.7357 -0.9098 -2.5017 0.9785
-4.7001 -1.0788 -2.5017 0.9785
-4.5573 -1.5767 -2.5017 0.9785
-4.4979 -1.7389 -2.5017 0.9785
-4.4327 -1.8988 -2.5017 0.9785
-4.2035 -2.3633 -2.5017 0.9785
4.5646 0.1636 -2.5016 0.9794
4.5207 0.6522 -2.5016 0.9794
4.4945 0.8137 -2.5016 0.9794
4.4624 0.9741 -2.5016 0.9794
4.4247 1.1333 -2.5016 0.9794
4.3813 1.2911 -2.5016 0.9794
4.3322 1.4471 -2.5016 0.9794
4.2776 1.6014 -2.5016 0.9794
4.2175 1.7536 -2.5017 0.9794
4.1520 1.9035 -2.5017 0.9794
3.9239 2.3378 -2.5017 0.9794
3.7465 2.6127 -2.5017 0.9794
3.5499 2.8742 -2.5017 0.9794
3.3350 3.1209 -2.5017 0.9794
3.2211 3.2384 -2.5017 0.9794
2.9799 3.4594 -2.5007 0.9794
2.7210 3.6588 -2.4974 0.9794
2.5866 3.7516 -2.4958 0.9794
2.4491 3.8395 -2.4943 0.9794
2.2723 3.8607 -2.4536 0.9798
1.7668 3.9089 -2.3495 0.9806
1.4848 4.0318 -2.3532 0.9806
1.1905 4.1212 -2.3495 0.9806
1.0422 4.1612 -2.3495 0.9806
0.5899 4.2489 -2.3495 0.9806
0.4373 4.2673 -2.3495 0.9806
0.2842 4.2803 -2.3495 0.9806
0.1307 4.2877 -2.3495 0.9806
-0.1765 4.2861 -2.3495 0.9806
-0.3299 4.2770 -2.3495 0.9806
-0.4829 4.2624 -2.3495 0.9806
-0.7868 4.2170 -2.3495 0.9806
-0.9373 4.1861 -2.3495 0.9806
-1.0866 4.1498 -2.3495 0.9806
-1.2345 4.1082 -2.3495 0.9806
-1.3809 4.0614 -2.3495 0.9806
-1.8085 3.8899 -2.3495 0.9806
-1.9615 3.8517 -2.3674 0.9805
-2.1338 3.8431 -2.4076 0.9802
-2.3120 3.8338 -2.4521 0.9798
-2.4900 3.8131 -2.4943 0.9794
-2.7599 3.6296 -2.4974 0.9794
-2.8901 3.5308 -2.4990 0.9794
-3.1388 3.3183 -2.5017 0.9794
-3.3682 3.0852 -2.5017 0.9794
-3.4766 2.9626 -2.5017 0.9794
-3.5804 2.8362 -2.5017 0.9794
-3.7743 2.5726 -2.5017 0.9794
-3.8640 2.4358 -2.5017 0.9794
-4.0284 2.1529 -2.5017 0.9794
-4.1030 2.0073 -2.5017 0.9794
-4.2946 1.5556 -2.5017 0.9794
-4.3475 1.4008 -2.5017 0.9794
-4.3949 1.2442 -2.5017 0.9794
-4.5463 0.4414 -2.5017 0.9794
-4.5592 0.2782 -2.5017 0.9794
-4.5662 0.1148 -2.5017 0.9794
-4.5674 -0.0488 -2.5017 0.9794
-4.5522 -0.3756 -2.5017 0.9794
-4.5358 -0.5384 -2.5017 0.9794
-4.4519 -1.0218 -2.5017 0.9794
-4.4124 -1.1806 -2.5017 0.9794
-4.3673 -1.3379 -2.5017 0.9794
-4.3166 -1.4934 -2.5017 0.9794
-4.2603 -1.6470 -2.5017 0.9794
-4.1986 -1.7986 -2.5017 0.9794
-4.0591 -2.0945 -2.5017 0.9794
4.3330 -0.0000 -2.5016 0.9802
4.3219 0.3102 -2.5016 0.9802
4.3080 0.4647 -2.5016 0.9802
4.2886 0.6187 -2.5016 0.9802
4.2637 0.7719 -2.5016 0.9802
4.2333 0.9241 -2.5016 0.9802
4.1563 1.2248 -2.5016 0.9802
4.1098 1.3728 -2.5017 0.9802
4.0009 1.6635 -2.5017 0.9802
3.9388 1.8057 -2.5017 0.9802
3.8716 1.9456 -2.5017 0.9802
3.7224 2.2178 -2.5017 0.9802
3.6406 2.3497 -2.5017 0.9802
3.4631 2.6042 -2.5017 0.9802
3.3676 2.7266 -2.5017 0.9802
3.2678 2.8455 -2.5017 0.9802
3.1638 2.9607 -2.5017 0.9802
2.7086 3.3821 -2.5017 0.9802
2.3264 3.6471 -2.4975 0.9802
1.9112 3.8543 -2.4838 0.9803
1.7450 3.8607 -2.4461 0.9806
1.1294 3.9095 -2.3495 0.9814
0.9887 3.9475 -2.3495 0.9814
0.8467 3.9804 -2.3495 0.9814
0.7036 4.0081 -2.3495 0.9814
0.5596 4.0308 -2.3495 0.9814
0.4149 4.0482 -2.3495 0.9814
0.2696 4.0605 -2.3495 0.9814
-0.0217 4.0694 -2.3495 0.9814
-0.3130 4.0574 -2.3495 0.9814
-0.4581 4.0436 -2.3495 0.9814
-0.7464 4.0004 -2.3495 0.9814
-0.8892 3.9711 -2.3495 0.9814
-1.6232 3.8459 -2.4101 0.9809
-2.0977 3.7781 -2.4949 0.9802
-2.2327 3.7024 -2.4962 0.9802
-2.3652 3.6220 -2.4975 0.9802
-2.4948 3.5370 -2.4990 0.9802
-3.0884 3.0393 -2.5017 0.9802
-3.2981 2.8104 -2.5017 0.9802
-3.4908 2.5671 -2.5017 0.9802
-3.5805 2.4405 -2.5017 0.9802
-3.6656 2.3107 -2.5017 0.9802
-3.7460 2.1779 -2.5017 0.9802
-3.8216 2.0424 -2.5017 0.9802
-4.0186 1.6207 -2.5017 0.9802
-4.0741 1.4757 -2.5017 0.9802
-4.1243 1.3289 -2.5017 0.9802
-4.1692 1.1803 -2.5017 0.9802
-4.2088 1.0303 -2.5017 0.9802
-4.2718 0.7263 -2.5017 0.9802
-4.2951 0.5729 -2.5017 0.9802
-4.3128 0.4187 -2.5017 0.9802
-4.3317 0.1089 -2.5017 0.9802
-4.3184 -0.3563 -2.5017 0.9802
-4.2553 -0.8175 -2.5017 0.9802
-4.1859 -1.1200 -2.5017 0.9802
-4.0949 -1.4167 -2.5017 0.9802
-4.0416 -1.5625 -2.5017 0.9802
-3.9830 -1.7062 -2.5017 0.9802
-3.8507 -1.9869 -2.5017 0.9802
-3.7770 -2.1236 -2.5017 0.9802
