ply
format ascii 1.0
element vertex 1246
property float32 x
property float32 y
property float32 z
property float32 I
end_header
-46.1218 -11.7719 8.3932 0.8242
-40.1240 -14.9655 7.5510 0.8403
-38.7438 -16.0482 7.3944 0.8434
-35.0585 -17.5490 6.9130 0.8528
-28.2616 -21.1563 6.2249 0.8664
-27.3920 -23.7353 6.3909 0.8631
-26.9732 -25.1129 6.4983 0.8610
-26.4920 -26.4920 6.6061 0.8588
-28.0168 -32.3332 7.5438 0.8405
14.6045 -43.8795 8.1544 0.8287
16.8024 -45.0490 8.4779 0.8226
23.7714 -4.2888 4.2592 0.9065
42.3342 -4.5514 7.5077 0.8412
39.1129 -2.7974 6.9143 0.8528
35.1054 -1.2538 6.1940 0.8670
-46.5690 -11.8860 7.3628 0.8233
-41.8585 -13.9319 6.7583 0.8365
-38.2574 -15.8467 6.3437 0.8457
-17.2018 -7.8558 2.8970 0.9263
-35.0573 -17.5484 6.0058 0.8533
-32.2955 -19.1618 5.7528 0.8590
-15.5220 -9.9754 2.8266 0.9281
-28.3792 -21.2444 5.4307 0.8664
-27.0817 -25.2140 5.6685 0.8609
-26.4914 -26.4914 5.7394 0.8593
0.6061 -16.9700 2.6013 0.9336
6.9008 -47.9961 7.4283 0.8218
8.2809 -45.8981 7.1449 0.8280
12.5651 -42.7929 6.8324 0.8349
14.6039 -43.8777 7.0844 0.8293
16.8017 -45.0471 7.3653 0.8232
46.3979 -6.6710 7.1810 0.8272
40.6331 -4.3685 6.2606 0.8476
-48.2977 -10.5065 6.4365 0.8192
-45.9841 -11.7367 6.1801 0.8258
-40.1667 -14.9814 5.5825 0.8412
-17.1998 -7.8549 2.4624 0.9266
-33.5705 -18.3309 4.9809 0.8570
-37.0792 -22.0001 5.6144 0.8404
-15.5325 -9.9821 2.4043 0.9282
-30.7162 -21.3267 4.8695 0.8600
-32.5868 -24.3942 5.3008 0.8486
-27.3303 -22.0241 4.5707 0.8680
-26.4908 -26.4908 4.8785 0.8597
-25.5824 -27.4774 4.8889 0.8595
-28.3696 -32.7403 5.6414 0.8397
6.9005 -47.9944 6.3141 0.8223
8.2806 -45.8965 6.0732 0.8285
9.5104 -43.7186 5.8262 0.8349
10.6637 -41.7799 5.6150 0.8404
12.5646 -42.7912 5.8076 0.8354
45.1752 -6.4952 5.9432 0.8319
42.5888 -4.5788 5.5779 0.8413
35.2226 -1.2580 4.5896 0.8675
-49.1801 -7.0710 5.3354 0.8188
-46.6498 -8.4165 5.0902 0.8264
-43.8434 -12.8736 4.9067 0.8321
-46.5084 -15.4795 5.2635 0.8210
-40.5307 -15.1172 4.6451 0.8403
-44.2681 -18.3365 5.1452 0.8247
-17.1978 -7.8540 2.0301 0.9268
-40.4211 -20.2333 4.8539 0.8337
-37.0914 -22.0073 4.6313 0.8407
-29.8502 -25.8654 4.2413 0.8531
-26.4902 -26.4902 4.0228 0.8601
0.6060 -16.9671 1.8231 0.9340
6.9003 -47.9928 5.2065 0.8228
8.2803 -45.8949 5.0078 0.8289
10.6633 -41.7783 4.6300 0.8407
12.5641 -42.7896 4.7888 0.8358
45.3322 -6.5178 4.9179 0.8317
42.5872 -4.5786 4.5994 0.8417
39.2591 -2.8079 4.2265 0.8536
35.6470 -1.2732 3.8303 0.8663
-48.2932 -10.5055 4.1838 0.8200
-47.2735 -12.0658 4.1301 0.8221
-44.2850 -18.3435 4.0577 0.8250
-17.1958 -7.8531 1.6003 0.9269
-33.5682 -18.3296 3.2377 0.8577
-37.1041 -22.0149 3.6522 0.8410
-32.6081 -24.4102 3.4481 0.8492
-29.8597 -25.8736 3.3446 0.8533
-26.4896 -26.4896 3.1713 0.8604
-29.1760 -33.6709 3.7715 0.8362
-13.8905 -20.0061 2.0618 0.9069
0.6059 -16.9656 1.4372 0.9341
8.2800 -45.8933 3.9477 0.8293
10.6629 -41.7767 3.6499 0.8411
14.6021 -43.8724 3.9142 0.8306
43.5639 -4.6836 3.7090 0.8387
39.3730 -2.8160 3.3415 0.8535
-47.2742 -12.0660 3.0255 0.8224
-44.1393 -18.2831 2.9626 0.8257
-17.1938 -7.8521 1.1725 0.9270
-40.4066 -20.2261 2.8020 0.8344
-33.5671 -18.3290 2.3716 0.8579
-27.3304 -22.0242 2.1766 0.8688
-29.8324 -25.8499 2.4478 0.8537
-25.5806 -27.4755 2.3279 0.8603
-29.1752 -33.6699 2.7627 0.8365
0.6059 -16.9640 1.0526 0.9342
2.0800 -19.3469 1.2066 0.9250
6.8998 -47.9895 3.0064 0.8234
9.4410 -43.3995 2.7542 0.8369
12.5632 -42.7863 2.7652 0.8363
23.5909 -4.2563 1.4865 0.9084
35.6515 -1.2733 2.2122 0.8668
-43.8382 -12.8721 1.8016 0.8329
-31.6114 -10.5213 1.3137 0.8751
-44.1395 -18.2832 1.8839 0.8259
-17.1906 -7.8507 0.7452 0.9271
-33.5660 -18.3284 1.5080 0.8580
-15.5742 -10.0089 0.7300 0.9286
-15.3153 -10.6336 0.7352 0.9281
-32.6129 -24.4137 1.6064 0.8495
-27.3304 -22.0242 1.3840 0.8689
-29.8629 -25.8763 1.5581 0.8537
-32.4438 -30.2062 1.7479 0.8374
-26.4884 -26.4884 1.4771 0.8607
-25.5801 -27.4749 1.4802 0.8605
-6.2585 -24.5205 0.9979 0.9037
-7.5323 -34.6255 1.3973 0.8678
0.6058 -16.9615 0.6692 0.9343
2.8584 -39.9655 1.5799 0.8518
4.2989 -29.8995 1.1911 0.8861
8.2794 -45.8900 1.8387 0.8297
12.5627 -42.7846 1.7583 0.8365
14.6010 -43.8689 1.8231 0.8310
45.5791 -6.5533 1.8157 0.8317
40.1050 -4.3118 1.5905 0.8509
39.1057 -2.7969 1.5459 0.8548
35.6537 -1.2734 1.4068 0.8669
-47.2755 -12.0664 0.8242 0.8227
-40.5333 -15.1181 0.7308 0.8411
-44.0915 -18.2633 0.8062 0.8262
-17.1873 -7.8492 0.3192 0.9272
-15.5846 -10.0156 0.3129 0.9286
-27.3304 -22.0243 0.5929 0.8690
-32.3580 -30.1264 0.7468 0.8379
-25.5795 -27.4743 0.6341 0.8606
-29.1735 -33.6680 0.7525 0.8368
0.6057 -16.9590 0.2867 0.9344
2.0762 -19.3117 0.3281 0.9252
6.8994 -47.9862 0.8189 0.8237
8.2792 -45.8884 0.7877 0.8298
16.7975 -45.0358 0.8119 0.8251
11.4102 -22.7948 0.4306 0.9030
20.0284 -28.8463 0.5932 0.8689
23.5544 -4.2497 0.4043 0.9087
45.5828 -6.5538 0.7779 0.8317
44.1461 -4.7462 0.7500 0.8373
39.1016 -2.7966 0.6622 0.8549
-48.2850 -10.5037 -0.2782 0.8206
-43.8348 -12.8711 -0.2572 0.8330
-17.1848 -7.8480 -0.1064 0.9272
-33.5638 -18.3272 -0.2153 0.8582
-36.7842 -21.8251 -0.2408 0.8427
-15.5950 -10.0223 -0.1044 0.9285
-15.2652 -10.5988 -0.1046 0.9284
-32.6109 -24.4122 -0.2293 0.8496
-29.1727 -33.6671 -0.2508 0.8368
-7.4304 -34.1570 -0.1968 0.8695
0.6056 -16.9565 -0.0955 0.9344
8.2789 -45.8868 -0.2625 0.8298
9.5083 -43.7091 -0.2518 0.8362
12.5617 -42.7813 -0.2510 0.8366
10.8095 -23.6695 -0.1465 0.9011
11.7483 -23.4701 -0.1478 0.9003
44.1475 -4.7464 -0.2500 0.8373
39.0975 -2.7963 -0.2207 0.8549
-48.2829 -10.5033 -1.3913 0.8206
-47.2769 -12.0667 -1.3739 0.8226
-44.1778 -18.2991 -1.3464 0.8258
-40.3783 -20.2120 -1.2714 0.8347
-32.6099 -24.4115 -1.1470 0.8496
-27.3305 -22.0243 -0.9883 0.8690
-29.2767 -25.3684 -1.0908 0.8564
-29.1719 -33.6661 -1.2543 0.8367
0.6055 -16.9540 -0.4777 0.9344
6.8989 -47.9830 -1.3650 0.8237
8.2786 -45.8852 -1.3129 0.8298
9.5080 -43.7076 -1.2595 0.8361
10.1501 -39.7678 -1.1557 0.8485
12.5612 -42.7797 -1.2554 0.8366
16.7961 -45.0321 -1.3533 0.8250
19.9625 -28.7514 -0.9856 0.8693
44.1488 -4.7465 -1.2503 0.8372
-46.6871 -1.6675 -2.3692 0.8294
-46.7578 -5.0270 -2.3849 0.8283
-45.4508 -15.1274 -2.4293 0.8254
-16.0117 -8.7431 -0.9252 0.9295
-15.6159 -10.0357 -0.9414 0.9284
-15.2153 -10.5642 -0.9394 0.9285
-32.5747 -24.3851 -2.0636 0.8496
-29.1896 -25.2929 -1.9588 0.8567
-24.6308 -24.6308 -1.7665 0.8698
-22.2454 -44.4406 -2.5204 0.8195
-20.6491 -45.2152 -2.5209 0.8195
-15.0515 -36.3376 -1.9947 0.8543
-11.9729 -32.1006 -1.7375 0.8718
-10.1886 -30.6119 -1.6362 0.8788
-7.6922 -30.1378 -1.5774 0.8829
-5.5539 -30.7834 -1.5864 0.8822
-4.5328 -31.5265 -1.6153 0.8802
-1.1636 -32.5783 -1.6532 0.8776
0.6054 -16.9516 -0.8602 0.9343
3.5061 -49.0220 -2.4925 0.8213
6.9688 -48.4693 -2.4834 0.8219
14.5759 -43.7935 -2.3407 0.8312
18.4385 -44.5146 -2.4435 0.8245
10.8046 -23.6587 -1.3190 0.9011
11.7441 -23.4617 -1.3306 0.9003
19.9296 -28.7041 -1.7722 0.8694
29.6052 -36.7379 -2.3928 0.8278
30.8766 -35.6335 -2.3912 0.8279
32.1062 -34.4845 -2.3895 0.8280
42.8750 -25.4389 -2.5283 0.8190
44.5037 -22.2770 -2.5239 0.8193
45.8143 -18.9769 -2.5149 0.8199
44.1908 -14.7081 -2.3620 0.8298
44.6471 -13.1096 -2.3598 0.8300
23.5351 -4.2462 -1.2128 0.9087
45.5938 -6.5554 -2.3360 0.8315
44.0880 -4.7400 -2.2488 0.8373
38.9447 -2.7854 -1.9801 0.8552
-32.1137 0.0000 -2.3546 0.8792
-32.0723 -2.2939 -2.3576 0.8790
-31.9899 -3.4393 -2.3591 0.8789
-25.2000 -3.6232 -1.8667 0.9029
-31.3124 -7.9920 -2.3695 0.8784
-31.0697 -9.1229 -2.3743 0.8782
-30.7848 -10.2461 -2.3789 0.8780
-30.4572 -11.3599 -2.3835 0.8778
-30.0878 -12.4628 -2.3879 0.8776
-17.1772 -7.8446 -1.3846 0.9271
-21.2739 -11.6164 -1.7772 0.9074
-28.1978 -16.7305 -2.4041 0.8768
-15.1904 -10.5469 -1.3559 0.9285
-26.3611 -19.7337 -2.4144 0.8763
-24.9486 -21.6181 -2.4205 0.8760
-23.3932 -23.3931 -2.4257 0.8757
-21.7042 -25.0480 -2.4301 0.8755
-19.8915 -26.5719 -2.4337 0.8754
-18.9420 -27.2817 -2.4352 0.8753
-15.9374 -29.1872 -2.4383 0.8751
-8.8719 -30.2148 -2.3089 0.8814
-6.5896 -30.2920 -2.2730 0.8831
-5.1789 -28.7048 -2.1387 0.8896
-0.0000 -33.0913 -2.4263 0.8757
2.0687 -19.2416 -1.4190 0.9253
5.8406 -32.3726 -2.4119 0.8764
6.9824 -32.0979 -2.4085 0.8766
9.2263 -31.4218 -2.4012 0.8769
10.3250 -31.0218 -2.3973 0.8771
11.7438 -23.4611 -1.9237 0.9001
16.5868 -27.9556 -2.3834 0.8778
17.5670 -27.3348 -2.3825 0.8778
18.1618 -26.1580 -2.3350 0.8801
21.6714 -26.8925 -2.5324 0.8706
23.5222 -25.2647 -2.5311 0.8707
24.3969 -24.3969 -2.5298 0.8708
26.8227 -21.6151 -2.5258 0.8710
28.2649 -19.6247 -2.5230 0.8711
28.9308 -18.5927 -2.5216 0.8712
29.5588 -17.5381 -2.5201 0.8712
30.1482 -16.4622 -2.5186 0.8713
32.1040 -11.9742 -2.5123 0.8716
30.8396 -9.0553 -2.3567 0.8791
23.5287 -4.2450 -1.7530 0.9086
31.7339 -4.5627 -2.3507 0.8793
31.9379 -2.2843 -2.3477 0.8795
31.9789 -1.1421 -2.3463 0.8796
-26.1020 0.0000 -2.5059 0.9004
-26.0979 -0.9321 -2.5071 0.9004
-26.0596 -1.8638 -2.5082 0.9003
-22.7873 -4.9571 -2.2389 0.9105
-23.8312 -6.0826 -2.3613 0.9059
-23.6096 -6.9324 -2.3623 0.9059
-23.3575 -7.7741 -2.3634 0.9058
-17.0921 -7.8057 -1.8039 0.9273
-21.6582 -11.8262 -2.3691 0.9056
-15.6369 -10.0492 -1.7845 0.9280
-19.8428 -14.8541 -2.3796 0.9052
-17.5885 -17.5885 -2.3880 0.9049
-16.9618 -18.2183 -2.3897 0.9048
-16.3115 -18.8245 -2.3913 0.9048
-13.8451 -19.9408 -2.3306 0.9071
-13.4930 -20.9955 -2.3960 0.9046
-11.9678 -21.9173 -2.3974 0.9045
-11.1800 -22.3347 -2.3979 0.9045
-9.5598 -23.0793 -2.3983 0.9045
-5.0648 -19.8438 -1.9662 0.9210
-3.5496 -24.6877 -2.3945 0.9046
-2.6648 -24.7862 -2.3933 0.9047
-0.8887 -24.8831 -2.3904 0.9048
0.6052 -16.9466 -1.6280 0.9341
1.7722 -24.7787 -2.3850 0.9050
2.0668 -19.2241 -1.8562 0.9252
5.2703 -24.2270 -2.3803 0.9052
6.1306 -24.0195 -2.3799 0.9052
6.9827 -23.7809 -2.3795 0.9052
7.8255 -23.5118 -2.3790 0.9052
12.1716 -22.2906 -2.4383 0.9030
14.2386 -22.1558 -2.5284 0.8996
15.0156 -21.6266 -2.5276 0.8996
15.7727 -21.0698 -2.5268 0.8996
16.5090 -20.4864 -2.5259 0.8997
18.5837 -18.5838 -2.5231 0.8998
21.5439 -14.9582 -2.5180 0.9000
22.0545 -14.1736 -2.5169 0.9000
22.5363 -13.3714 -2.5158 0.9001
22.9889 -12.5529 -2.5146 0.9001
24.1655 -10.0097 -2.5112 0.9002
24.4959 -9.1365 -2.5100 0.9003
18.9709 -3.4227 -1.8507 0.9255
23.1147 -3.3234 -2.2419 0.9104
-21.0896 0.0000 -2.5051 0.9186
-21.0843 -0.7530 -2.5061 0.9185
-21.0522 -1.5057 -2.5071 0.9185
-20.9931 -2.2570 -2.5081 0.9185
-20.9072 -3.0060 -2.5090 0.9184
-20.7944 -3.7517 -2.5100 0.9184
-20.6550 -4.4932 -2.5109 0.9184
-20.4348 -5.2157 -2.5052 0.9186
-18.6275 -6.9477 -2.3616 0.9230
-17.0343 -7.7793 -2.2245 0.9273
-17.4726 -9.5408 -2.3648 0.9229
-15.5504 -9.2265 -2.1478 0.9298
-14.9129 -9.5839 -2.1057 0.9311
-14.2991 -9.9281 -2.0678 0.9323
-14.1091 -14.1091 -2.3702 0.9228
-13.5998 -14.6072 -2.3707 0.9228
-12.5287 -15.5471 -2.3718 0.9227
-11.3921 -16.4078 -2.3727 0.9227
-10.8012 -16.8070 -2.3732 0.9227
-10.1961 -17.1846 -2.3736 0.9227
-8.9469 -17.8735 -2.3743 0.9226
-6.3406 -13.8840 -1.8131 0.9404
-7.6508 -18.4707 -2.3748 0.9226
-6.9874 -18.7339 -2.3751 0.9226
-6.3148 -18.9730 -2.3753 0.9226
-2.8464 -19.7972 -2.3758 0.9226
-2.1380 -19.8863 -2.3758 0.9226
-1.4268 -19.9497 -2.3758 0.9226
-0.0000 -19.9993 -2.3756 0.9226
1.9715 -18.3374 -2.1908 0.9284
2.6748 -18.6034 -2.2326 0.9271
4.2489 -19.5319 -2.3744 0.9226
4.9427 -19.3652 -2.3741 0.9226
7.3519 -19.7111 -2.4990 0.9187
8.1368 -19.6441 -2.5257 0.9179
8.8325 -19.3406 -2.5256 0.9179
9.5152 -19.0090 -2.5251 0.9179
10.1853 -18.6531 -2.5245 0.9180
10.8421 -18.2733 -2.5239 0.9180
11.4846 -17.8703 -2.5233 0.9180
12.1120 -17.4445 -2.5227 0.9180
13.3183 -16.5270 -2.5213 0.9181
14.9953 -14.9953 -2.5190 0.9181
15.5160 -14.4460 -2.5182 0.9181
16.4963 -13.2936 -2.5166 0.9182
16.9545 -12.6920 -2.5158 0.9182
17.3907 -12.0746 -2.5149 0.9183
17.8044 -11.4422 -2.5140 0.9183
10.4356 -4.7658 -1.3628 0.9548
19.5172 -8.0843 -2.5094 0.9184
20.0288 -6.6662 -2.5075 0.9185
18.9316 -3.4156 -2.2851 0.9254
19.6652 -2.1142 -2.3494 0.9234
19.7204 -1.4104 -2.3485 0.9234
19.7504 -0.7054 -2.3476 0.9235
-17.6768 -0.0000 -2.5046 0.9311
-17.5927 -1.8914 -2.5071 0.9310
-17.5196 -2.5189 -2.5079 0.9310
-17.3062 -3.7647 -2.5094 0.9309
-17.0040 -4.9928 -2.5110 0.9309
-16.8200 -5.5982 -2.5117 0.9309
-16.6144 -6.1968 -2.5125 0.9309
-16.1067 -7.3557 -2.5089 0.9310
-15.5882 -7.8029 -2.4699 0.9320
-14.3424 -8.5098 -2.3629 0.9348
-14.0332 -9.0186 -2.3636 0.9348
-13.3607 -10.0017 -2.3647 0.9348
-12.9982 -10.4747 -2.3653 0.9348
-12.2233 -11.3803 -2.3663 0.9348
-10.9434 -12.6293 -2.3678 0.9347
-10.4875 -13.0142 -2.3682 0.9347
-10.0180 -13.3825 -2.3686 0.9347
-9.5355 -13.7338 -2.3690 0.9347
-6.3411 -13.8850 -2.1628 0.9402
-5.8477 -15.6783 -2.3709 0.9346
-5.2848 -15.8782 -2.3711 0.9346
-4.1390 -16.2165 -2.3714 0.9346
-3.5577 -16.3546 -2.3715 0.9346
-2.3820 -16.5674 -2.3716 0.9346
-1.7892 -16.6419 -2.3716 0.9346
-0.0000 -16.7367 -2.3714 0.9346
1.8074 -16.8116 -2.3958 0.9340
2.4647 -17.1425 -2.4539 0.9324
5.6232 -16.8950 -2.5229 0.9306
6.2217 -16.6811 -2.5226 0.9306
6.8121 -16.4458 -2.5222 0.9306
7.3935 -16.1895 -2.5218 0.9306
9.0766 -15.2978 -2.5203 0.9307
9.6148 -14.9610 -2.5198 0.9307
10.1405 -14.6051 -2.5193 0.9307
10.6530 -14.2307 -2.5187 0.9307
12.1044 -13.0010 -2.5169 0.9308
12.5575 -12.5575 -2.5163 0.9308
12.9942 -12.0981 -2.5156 0.9308
13.4142 -11.6234 -2.5149 0.9308
14.5674 -10.1143 -2.5128 0.9309
14.9147 -9.5851 -2.5120 0.9309
15.5511 -8.4916 -2.5105 0.9309
16.5805 -6.1842 -2.5074 0.9310
16.7852 -5.5867 -2.5066 0.9310
16.9684 -4.9824 -2.5057 0.9310
17.2365 -3.7496 -2.4993 0.9312
16.4184 -2.3606 -2.3502 0.9352
16.5603 -0.5915 -2.3479 0.9352
-15.2012 0.0000 -2.5042 0.9402
-15.1958 -0.5427 -2.5049 0.9402
-15.1710 -1.0851 -2.5056 0.9402
-15.0633 -2.1658 -2.5070 0.9402
-14.8784 -3.2366 -2.5084 0.9401
-14.7574 -3.7666 -2.5091 0.9401
-14.6174 -4.2921 -2.5097 0.9401
-14.2813 -5.3267 -2.5110 0.9401
-13.8718 -6.3350 -2.5122 0.9401
-13.3908 -7.3120 -2.5134 0.9400
-13.1243 -7.7870 -2.5140 0.9400
-12.8409 -8.2523 -2.5146 0.9400
-12.5409 -8.7073 -2.5151 0.9400
-12.2167 -9.1453 -2.5140 0.9400
-11.8679 -9.5638 -2.5109 0.9401
-9.9828 -10.7223 -2.4134 0.9423
-9.0410 -11.2192 -2.3737 0.9433
-8.6067 -11.4971 -2.3659 0.9434
-8.1919 -11.7986 -2.3663 0.9434
-7.3312 -12.3561 -2.3669 0.9434
-5.5002 -13.2788 -2.3678 0.9434
-4.5396 -13.6392 -2.3681 0.9434
-4.0544 -13.8080 -2.3708 0.9433
-2.6208 -14.5261 -2.4316 0.9419
-2.1243 -14.7746 -2.4590 0.9413
-1.6158 -15.0288 -2.4901 0.9406
-1.0892 -15.2286 -2.5152 0.9400
1.0919 -15.2672 -2.5215 0.9398
2.1780 -15.1485 -2.5212 0.9398
3.2526 -14.9520 -2.5208 0.9399
4.3101 -14.6789 -2.5203 0.9399
5.3450 -14.3305 -2.5197 0.9399
5.8523 -14.1287 -2.5193 0.9399
6.3519 -13.9088 -2.5190 0.9399
8.2613 -12.8548 -2.5173 0.9399
8.7132 -12.5494 -2.5168 0.9399
9.5825 -11.8912 -2.5158 0.9400
9.9988 -11.5392 -2.5153 0.9400
10.4020 -11.1726 -2.5148 0.9400
11.1676 -10.3974 -2.5137 0.9400
11.8753 -9.5697 -2.5125 0.9400
12.2063 -9.1375 -2.5119 0.9401
12.5215 -8.6939 -2.5112 0.9401
13.3688 -7.2999 -2.5093 0.9401
10.3946 -4.7470 -1.8825 0.9547
10.1198 -4.1918 -1.8045 0.9566
14.5911 -4.2843 -2.5052 0.9402
14.7306 -3.7598 -2.5045 0.9402
14.8512 -3.2307 -2.5038 0.9402
14.9395 -2.6954 -2.5009 0.9403
14.2215 -1.0172 -2.3488 0.9438
14.2447 -0.5088 -2.3482 0.9439
-13.3217 -0.0000 -2.5039 0.9472
-13.3164 -0.4756 -2.5046 0.9472
-13.2942 -0.9508 -2.5052 0.9472
-13.1259 -2.3682 -2.5070 0.9472
-13.0361 -2.8358 -2.5076 0.9471
-12.9296 -3.3001 -2.5082 0.9471
-12.6670 -4.2160 -2.5093 0.9471
-12.5113 -4.6665 -2.5099 0.9471
-12.3395 -5.1112 -2.5104 0.9471
-12.1518 -5.5495 -2.5110 0.9471
-11.7298 -6.4049 -2.5120 0.9471
-11.4960 -6.8209 -2.5125 0.9470
-11.2474 -7.2283 -2.5130 0.9470
-10.7071 -8.0152 -2.5139 0.9470
-10.4160 -8.3938 -2.5144 0.9470
-10.1115 -8.7617 -2.5148 0.9470
-9.7940 -9.1185 -2.5152 0.9470
-9.1213 -9.7970 -2.5160 0.9470
-8.7671 -10.1178 -2.5164 0.9470
-8.0251 -10.7203 -2.5170 0.9470
-7.6383 -11.0012 -2.5173 0.9469
-7.2416 -11.2681 -2.5176 0.9469
-6.8355 -11.5206 -2.5179 0.9469
-5.9973 -11.9811 -2.5184 0.9469
-5.5663 -12.1885 -2.5186 0.9469
-4.2323 -12.7161 -2.5190 0.9469
-3.7759 -12.8597 -2.5192 0.9469
-3.3147 -12.9867 -2.5193 0.9469
-2.3799 -13.1908 -2.5194 0.9469
-1.4328 -13.3271 -2.5194 0.9469
-0.9562 -13.3696 -2.5194 0.9469
-0.4784 -13.3950 -2.5193 0.9469
0.9561 -13.3681 -2.5191 0.9469
2.8481 -13.0926 -2.5184 0.9469
3.3133 -12.9815 -2.5182 0.9469
3.7742 -12.8537 -2.5180 0.9469
4.6805 -12.5491 -2.5175 0.9469
5.9929 -11.9723 -2.5165 0.9470
8.7576 -10.1069 -2.5137 0.9470
9.7822 -9.1075 -2.5122 0.9471
10.0990 -8.7508 -2.5117 0.9471
10.6930 -8.0047 -2.5106 0.9471
11.4797 -6.8113 -2.5090 0.9471
11.7129 -6.3957 -2.5084 0.9471
10.5283 -4.3610 -2.1420 0.9547
12.6473 -4.2094 -2.5054 0.9472
13.1764 -1.8945 -2.5021 0.9473
12.4651 -0.8915 -2.3489 0.9504
12.4859 -0.4459 -2.3484 0.9504
-11.8447 0.0000 -2.5037 0.9527
-11.8196 -0.8454 -2.5048 0.9527
-11.6690 -2.1053 -2.5064 0.9527
-11.5889 -2.5210 -2.5070 0.9527
-11.2599 -3.7477 -2.5085 0.9526
-11.1212 -4.1480 -2.5090 0.9526
-10.6202 -5.3161 -2.5104 0.9526
-10.4256 -5.6928 -2.5109 0.9526
-10.2175 -6.0623 -2.5113 0.9526
-9.9964 -6.4243 -2.5118 0.9526
-8.9861 -7.7865 -2.5134 0.9526
-8.7038 -8.1035 -2.5137 0.9525
-7.4658 -9.2645 -2.5151 0.9525
-5.7051 -10.4482 -2.5163 0.9525
-5.3290 -10.6460 -2.5165 0.9525
-4.9460 -10.8302 -2.5167 0.9525
-4.5566 -11.0005 -2.5169 0.9525
-4.1613 -11.1567 -2.5170 0.9525
-2.9452 -11.5390 -2.5173 0.9525
-1.6949 -11.7884 -2.5174 0.9525
-1.2731 -11.8414 -2.5175 0.9525
-0.8496 -11.8792 -2.5174 0.9525
-0.0000 -11.9091 -2.5173 0.9525
0.4250 -11.9012 -2.5173 0.9525
1.2729 -11.8395 -2.5171 0.9525
1.6946 -11.7859 -2.5169 0.9525
2.5307 -11.6335 -2.5166 0.9525
3.7588 -11.2935 -2.5160 0.9525
4.1591 -11.1510 -2.5157 0.9525
4.5540 -10.9943 -2.5155 0.9525
5.7011 -10.4408 -2.5146 0.9525
6.0693 -10.2293 -2.5142 0.9525
6.4297 -10.0048 -2.5139 0.9525
7.4590 -9.2560 -2.5128 0.9526
8.4014 -8.4015 -2.5115 0.9526
9.2464 -7.4512 -2.5101 0.9526
9.7506 -6.7700 -2.5092 0.9526
10.2047 -6.0547 -2.5082 0.9526
10.6063 -5.3091 -2.5072 0.9527
11.2443 -3.7425 -2.5050 0.9527
11.3683 -3.3380 -2.5045 0.9527
11.4777 -2.9295 -2.5039 0.9527
11.5724 -2.5174 -2.5034 0.9527
11.7674 -1.2651 -2.5017 0.9528
11.7792 -0.8425 -2.4962 0.9529
11.3239 -0.4044 -2.3952 0.9547
-10.6293 -0.7602 -2.5045 0.9572
-10.5975 -1.1394 -2.5050 0.9571
-10.5521 -1.5172 -2.5055 0.9571
-10.4932 -1.8932 -2.5060 0.9571
-10.4209 -2.2669 -2.5064 0.9571
-10.3353 -2.6379 -2.5069 0.9571
-10.2365 -3.0057 -2.5074 0.9571
-10.1245 -3.3698 -2.5078 0.9571
-9.9996 -3.7296 -2.5083 0.9571
-9.7114 -4.4350 -2.5091 0.9571
-9.5485 -4.7796 -2.5096 0.9571
-9.3734 -5.1182 -2.5100 0.9571
-9.1862 -5.4504 -2.5104 0.9571
-8.9872 -5.7757 -2.5108 0.9571
-8.7766 -6.0937 -2.5112 0.9570
-8.0784 -7.0000 -2.5122 0.9570
-7.8244 -7.2848 -2.5126 0.9570
-5.7842 -9.0004 -2.5145 0.9570
-5.4597 -9.2019 -2.5147 0.9570
-5.1282 -9.3916 -2.5149 0.9570
-4.7901 -9.5694 -2.5150 0.9570
-4.4458 -9.7349 -2.5152 0.9570
-3.7404 -10.0283 -2.5155 0.9570
-3.0157 -10.2704 -2.5157 0.9570
-2.6472 -10.3718 -2.5158 0.9570
-2.2754 -10.4599 -2.5158 0.9570
-0.7637 -10.6775 -2.5159 0.9570
-0.0000 -10.7044 -2.5158 0.9570
0.3821 -10.6973 -2.5157 0.9570
1.1441 -10.6420 -2.5155 0.9570
1.5232 -10.5939 -2.5154 0.9570
1.9002 -10.5322 -2.5153 0.9570
2.6464 -10.3684 -2.5149 0.9570
3.0145 -10.2666 -2.5148 0.9570
3.3788 -10.1516 -2.5145 0.9570
3.7386 -10.0237 -2.5143 0.9570
4.0936 -9.8829 -2.5141 0.9570
4.4433 -9.7295 -2.5138 0.9570
4.7872 -9.5637 -2.5136 0.9570
6.0966 -8.7808 -2.5123 0.9570
6.7057 -8.3212 -2.5117 0.9570
6.9974 -8.0754 -2.5113 0.9570
7.5534 -7.5534 -2.5105 0.9571
8.0704 -6.9930 -2.5097 0.9571
8.3134 -6.6994 -2.5093 0.9571
8.5458 -6.3973 -2.5089 0.9571
8.7672 -6.0872 -2.5084 0.9571
9.3626 -5.1123 -2.5071 0.9571
9.9873 -3.7251 -2.5052 0.9571
10.1119 -3.3656 -2.5047 0.9572
10.2236 -3.0019 -2.5042 0.9572
10.4076 -2.2640 -2.5032 0.9572
10.5384 -1.5152 -2.5022 0.9572
10.5837 -1.1379 -2.5017 0.9572
10.6216 -0.3794 -2.4979 0.9573
-9.6687 0.0000 -2.5034 0.9608
-9.6475 -0.6900 -2.5043 0.9608
-9.5770 -1.3770 -2.5052 0.9608
-9.1881 -3.0581 -2.5073 0.9608
-8.5058 -4.6445 -2.5092 0.9607
-8.3358 -4.9459 -2.5096 0.9607
-8.1551 -5.2410 -2.5100 0.9607
-7.7626 -5.8110 -2.5106 0.9607
-7.5512 -6.0851 -2.5110 0.9607
-6.6114 -7.1011 -2.5121 0.9607
-6.3544 -7.3334 -2.5124 0.9607
-5.5356 -7.9728 -2.5131 0.9607
-4.9535 -8.3487 -2.5135 0.9607
-4.6527 -8.5208 -2.5137 0.9607
-4.3459 -8.6820 -2.5138 0.9607
-3.7159 -8.9709 -2.5141 0.9607
-3.3935 -9.0982 -2.5142 0.9607
-1.3821 -9.6130 -2.5146 0.9607
2.0638 -9.4873 -2.5139 0.9607
2.4010 -9.4070 -2.5137 0.9607
2.7350 -9.3147 -2.5136 0.9607
3.0655 -9.2105 -2.5134 0.9607
3.3920 -9.0945 -2.5132 0.9607
4.0315 -8.8277 -2.5127 0.9607
4.6501 -8.5159 -2.5122 0.9607
6.0846 -7.5506 -2.5108 0.9607
6.3494 -7.3276 -2.5104 0.9607
6.8541 -6.8541 -2.5097 0.9607
7.3235 -6.3458 -2.5090 0.9608
7.5441 -6.0795 -2.5086 0.9608
7.9561 -5.5241 -2.5078 0.9608
8.1469 -5.2357 -2.5074 0.9608
8.3273 -4.9408 -2.5070 0.9608
8.4969 -4.6397 -2.5066 0.9608
8.6556 -4.3327 -2.5062 0.9608
9.3689 -2.3913 -2.5036 0.9608
9.4466 -2.0550 -2.5031 0.9608
9.6527 -0.3448 -2.5009 0.9609
-8.8383 -0.3157 -2.5037 0.9639
-8.8229 -0.6310 -2.5041 0.9639
-8.7962 -0.9457 -2.5045 0.9639
-8.7582 -1.2592 -2.5049 0.9639
-8.5774 -2.1893 -2.5061 0.9639
-8.1835 -3.3897 -2.5076 0.9638
-8.0584 -3.6802 -2.5079 0.9638
-7.9230 -3.9660 -2.5083 0.9638
-7.7775 -4.2468 -2.5086 0.9638
-7.6220 -4.5223 -2.5089 0.9638
-7.4566 -4.7921 -2.5093 0.9638
-6.9042 -5.5638 -2.5102 0.9638
-6.7020 -5.8073 -2.5105 0.9638
-6.4911 -6.0435 -2.5107 0.9638
-6.2720 -6.2719 -2.5110 0.9638
-5.0610 -7.2892 -2.5121 0.9638
-4.7979 -7.4657 -2.5123 0.9638
-4.5287 -7.6328 -2.5125 0.9638
-2.5013 -8.5185 -2.5133 0.9638
-1.2636 -8.7883 -2.5135 0.9638
-0.0000 -8.8784 -2.5134 0.9638
0.3169 -8.8725 -2.5134 0.9638
0.6333 -8.8553 -2.5133 0.9638
1.2634 -8.7869 -2.5131 0.9638
1.5761 -8.7358 -2.5130 0.9638
2.5005 -8.5159 -2.5126 0.9638
2.8026 -8.4206 -2.5124 0.9638
3.1012 -8.3146 -2.5122 0.9638
3.9712 -7.9335 -2.5116 0.9638
4.5262 -7.6285 -2.5111 0.9638
4.7951 -7.4613 -2.5108 0.9638
5.0578 -7.2846 -2.5106 0.9638
5.3140 -7.0987 -2.5103 0.9638
5.5633 -6.9037 -2.5100 0.9638
6.6964 -5.8025 -2.5084 0.9638
6.8983 -5.5590 -2.5080 0.9638
7.2752 -5.0513 -2.5073 0.9638
7.4498 -4.7877 -2.5070 0.9639
8.2895 -3.0918 -2.5046 0.9639
8.3933 -2.7936 -2.5042 0.9639
8.6396 -1.8794 -2.5030 0.9639
8.6997 -1.5696 -2.5026 0.9639
8.7866 -0.9447 -2.5018 0.9639
8.8133 -0.6304 -2.5014 0.9639
8.8287 -0.3153 -2.5009 0.9639
-8.1383 0.0000 -2.5031 0.9665
-8.1343 -0.2905 -2.5035 0.9665
-8.0953 -0.8703 -2.5043 0.9665
-8.0602 -1.1589 -2.5046 0.9665
-8.0149 -1.4460 -2.5050 0.9665
-7.6362 -2.8481 -2.5068 0.9665
-7.5306 -3.1193 -2.5071 0.9665
-7.4155 -3.3865 -2.5074 0.9665
-7.1568 -3.9079 -2.5081 0.9665
-6.7005 -4.6522 -2.5090 0.9664
-6.5309 -4.8889 -2.5092 0.9664
-6.3529 -5.1195 -2.5095 0.9664
-6.1668 -5.3435 -2.5098 0.9664
-5.7710 -5.7710 -2.5103 0.9664
-5.5618 -5.9738 -2.5105 0.9664
-5.1224 -6.3565 -2.5109 0.9664
-4.4145 -6.8692 -2.5115 0.9664
-4.1668 -7.0228 -2.5116 0.9664
-3.6556 -7.3030 -2.5119 0.9664
-3.3928 -7.4292 -2.5121 0.9664
-2.8544 -7.6529 -2.5123 0.9664
-2.5795 -7.7502 -2.5123 0.9664
-2.0201 -7.9148 -2.5125 0.9664
-1.4504 -8.0390 -2.5125 0.9664
-1.1626 -8.0857 -2.5126 0.9664
-0.2916 -8.1635 -2.5125 0.9664
-0.0000 -8.1686 -2.5125 0.9664
0.5827 -8.1474 -2.5124 0.9664
1.4501 -8.0376 -2.5121 0.9664
2.5787 -7.7477 -2.5115 0.9664
2.8534 -7.6502 -2.5114 0.9664
3.3914 -7.4260 -2.5110 0.9664
3.9118 -7.1640 -2.5106 0.9664
4.4121 -6.8654 -2.5101 0.9664
4.8842 -6.5245 -2.5068 0.9665
5.5580 -5.9697 -2.5088 0.9664
5.7669 -5.7669 -2.5085 0.9664
6.1621 -5.3395 -2.5079 0.9665
6.3479 -5.1155 -2.5076 0.9665
6.5256 -4.8850 -2.5072 0.9665
6.8556 -4.4059 -2.5066 0.9665
7.0076 -4.1578 -2.5062 0.9665
7.4087 -3.3834 -2.5051 0.9665
7.5237 -3.1164 -2.5048 0.9665
7.6290 -2.8455 -2.5044 0.9665
7.7245 -2.5710 -2.5040 0.9665
7.8859 -2.0128 -2.5033 0.9665
7.9515 -1.7297 -2.5029 0.9665
8.0070 -1.4446 -2.5025 0.9665
8.1118 -0.5802 -2.5014 0.9665
-7.5264 -0.2688 -2.5034 0.9688
-7.5130 -0.5373 -2.5037 0.9687
-7.4576 -1.0723 -2.5044 0.9687
-7.4156 -1.3379 -2.5048 0.9687
-7.3641 -1.6020 -2.5051 0.9687
-7.3032 -1.8640 -2.5054 0.9687
-7.0648 -2.6350 -2.5064 0.9687
-6.8605 -3.1331 -2.5070 0.9687
-6.7451 -3.3763 -2.5073 0.9687
-6.4885 -3.8498 -2.5079 0.9687
-6.1987 -4.3038 -2.5084 0.9687
-6.0418 -4.5228 -2.5087 0.9687
-5.3386 -5.3386 -2.5096 0.9687
-4.9450 -5.7068 -2.5101 0.9687
-4.7385 -5.8801 -2.5103 0.9687
-4.0836 -6.3543 -2.5108 0.9687
-3.8545 -6.4964 -2.5109 0.9687
-3.3816 -6.7555 -2.5112 0.9687
-2.8913 -6.9801 -2.5114 0.9687
-2.3861 -7.1691 -2.5116 0.9687
-2.1287 -7.2499 -2.5116 0.9687
-1.8687 -7.3214 -2.5117 0.9687
-1.6062 -7.3835 -2.5117 0.9687
-1.3416 -7.4362 -2.5117 0.9687
-1.0754 -7.4794 -2.5118 0.9687
-0.8077 -7.5130 -2.5118 0.9687
-0.2697 -7.5514 -2.5117 0.9687
0.2697 -7.5512 -2.5117 0.9687
0.5390 -7.5365 -2.5116 0.9687
0.8076 -7.5123 -2.5115 0.9687
1.0752 -7.4784 -2.5114 0.9687
1.3414 -7.4350 -2.5113 0.9687
1.6059 -7.3821 -2.5112 0.9687
1.8682 -7.3197 -2.5111 0.9687
2.3854 -7.1670 -2.5108 0.9687
3.1372 -6.8695 -2.5103 0.9687
3.6187 -6.6272 -2.5099 0.9687
4.9420 -5.7033 -2.5085 0.9687
5.1418 -5.5227 -2.5083 0.9687
5.3351 -5.3351 -2.5080 0.9687
5.7008 -4.9398 -2.5074 0.9687
6.4833 -3.8467 -2.5059 0.9687
6.6156 -3.6124 -2.5056 0.9687
6.7395 -3.3736 -2.5052 0.9687
7.1471 -2.3788 -2.5039 0.9687
7.2265 -2.1219 -2.5035 0.9688
7.3574 -1.6005 -2.5028 0.9688
7.4507 -1.0713 -2.5021 0.9688
7.4832 -0.8045 -2.5018 0.9688
7.5061 -0.5369 -2.5014 0.9688
-6.9992 0.0000 -2.5030 0.9707
-6.9957 -0.2499 -2.5033 0.9707
-6.9832 -0.4995 -2.5036 0.9707
-6.9618 -0.7485 -2.5039 0.9707
-6.9315 -0.9966 -2.5043 0.9707
-6.7225 -1.9739 -2.5055 0.9707
-6.6485 -2.2128 -2.5058 0.9707
-6.5661 -2.4490 -2.5061 0.9707
-6.4752 -2.6821 -2.5064 0.9707
-6.3761 -2.9119 -2.5067 0.9707
-6.0302 -3.5779 -2.5075 0.9707
-5.7608 -3.9998 -2.5080 0.9706
-5.6149 -4.2033 -2.5082 0.9706
-5.4618 -4.4014 -2.5084 0.9706
-5.3017 -4.5940 -2.5087 0.9706
-4.7814 -5.1356 -2.5093 0.9706
-4.4035 -5.4644 -2.5097 0.9706
-4.2060 -5.6185 -2.5098 0.9706
-3.7949 -5.9050 -2.5101 0.9706
-3.5819 -6.0370 -2.5103 0.9706
-2.9165 -6.3862 -2.5106 0.9706
-2.4536 -6.5785 -2.5108 0.9706
-2.2173 -6.6620 -2.5109 0.9706
-1.7365 -6.8035 -2.5110 0.9706
-0.9993 -6.9504 -2.5111 0.9706
-0.2506 -7.0173 -2.5110 0.9706
1.4923 -6.8600 -2.5106 0.9706
1.7361 -6.8021 -2.5105 0.9706
2.2167 -6.6602 -2.5102 0.9706
2.6859 -6.4843 -2.5099 0.9706
3.1412 -6.2753 -2.5096 0.9706
3.3629 -6.1588 -2.5094 0.9706
3.7931 -5.9022 -2.5090 0.9706
4.0010 -5.7626 -2.5088 0.9706
4.2038 -5.6156 -2.5085 0.9706
4.5928 -5.3004 -2.5081 0.9706
4.7786 -5.1326 -2.5078 0.9706
5.1316 -4.7777 -2.5073 0.9707
5.2982 -4.5910 -2.5070 0.9707
5.4581 -4.3985 -2.5068 0.9707
5.7567 -3.9970 -2.5062 0.9707
6.2639 -3.1355 -2.5050 0.9707
6.3711 -2.9096 -2.5047 0.9707
6.6431 -2.2110 -2.5037 0.9707
6.7169 -1.9723 -2.5034 0.9707
6.8866 -1.2425 -2.5024 0.9707
6.9772 -0.4990 -2.5015 0.9707
6.9896 -0.2496 -2.5011 0.9707
-6.5162 -0.4661 -2.5035 0.9724
-6.4962 -0.6984 -2.5038 0.9724
-6.3866 -1.3893 -2.5047 0.9724
-6.2726 -1.8418 -2.5053 0.9724
-6.1266 -2.2851 -2.5058 0.9724
-6.0418 -2.5026 -2.5061 0.9724
-5.7414 -3.1350 -2.5068 0.9724
-5.6264 -3.3383 -2.5071 0.9724
-5.5042 -3.5373 -2.5073 0.9724
-5.3749 -3.7319 -2.5076 0.9724
-4.9465 -4.2862 -2.5082 0.9724
-4.6288 -4.6288 -2.5086 0.9723
-4.4610 -4.7915 -2.5088 0.9723
-4.1084 -5.0982 -2.5091 0.9723
-3.9241 -5.2419 -2.5093 0.9723
-3.7347 -5.3790 -2.5094 0.9723
-3.5405 -5.5091 -2.5096 0.9723
-2.9317 -5.8569 -2.5099 0.9723
-2.7209 -5.9580 -2.5100 0.9723
-2.5066 -6.0515 -2.5101 0.9723
-1.3925 -6.4012 -2.5104 0.9723
-1.1631 -6.4469 -2.5104 0.9723
-0.9323 -6.4843 -2.5105 0.9723
-0.4673 -6.5343 -2.5104 0.9723
-0.0000 -6.5508 -2.5104 0.9723
0.4673 -6.5339 -2.5103 0.9723
0.9322 -6.4836 -2.5102 0.9723
1.1630 -6.4459 -2.5101 0.9723
1.3922 -6.4001 -2.5100 0.9723
2.0681 -6.2137 -2.5096 0.9723
2.2885 -6.1356 -2.5095 0.9723
2.5059 -6.0497 -2.5094 0.9723
2.9307 -5.8548 -2.5090 0.9723
3.3404 -5.6300 -2.5087 0.9723
3.5390 -5.5067 -2.5085 0.9723
3.7330 -5.3765 -2.5083 0.9724
4.6262 -4.6262 -2.5072 0.9724
4.7879 -4.4577 -2.5069 0.9724
5.0927 -4.1040 -2.5064 0.9724
5.3714 -3.7294 -2.5059 0.9724
5.5004 -3.5349 -2.5056 0.9724
5.6225 -3.3360 -2.5054 0.9724
5.8448 -2.9257 -2.5048 0.9724
6.0373 -2.5007 -2.5042 0.9724
6.1988 -2.0632 -2.5036 0.9724
6.2677 -1.8404 -2.5033 0.9724
6.3287 -1.6153 -2.5030 0.9724
6.4262 -1.1594 -2.5024 0.9724
6.4627 -0.9292 -2.5021 0.9724
6.5110 -0.4657 -2.5015 0.9724
6.5227 -0.2330 -2.5012 0.9724
-6.1153 -0.0000 -2.5028 0.9739
-6.1121 -0.2183 -2.5031 0.9739
-6.1011 -0.4364 -2.5034 0.9739
-6.0215 -1.0864 -2.5042 0.9739
-5.9795 -1.3008 -2.5045 0.9739
-5.9299 -1.5135 -2.5048 0.9739
-5.8081 -1.9331 -2.5053 0.9739
-5.6565 -2.3430 -2.5058 0.9739
-5.5698 -2.5437 -2.5061 0.9739
-5.2675 -3.1253 -2.5068 0.9739
-5.1530 -3.3117 -2.5070 0.9739
-4.9045 -3.6715 -2.5074 0.9739
-4.6308 -4.0126 -2.5078 0.9739
-3.8461 -4.7727 -2.5087 0.9739
-3.6735 -4.9073 -2.5088 0.9739
-3.3145 -5.1574 -2.5091 0.9739
-2.9384 -5.3812 -2.5093 0.9738
-2.7445 -5.4829 -2.5094 0.9738
-2.5472 -5.5775 -2.5095 0.9738
-2.3466 -5.6651 -2.5096 0.9738
-2.1429 -5.7454 -2.5097 0.9738
-1.9365 -5.8184 -2.5097 0.9738
-1.7277 -5.8839 -2.5098 0.9738
-1.3036 -5.9923 -2.5099 0.9738
-0.8728 -6.0701 -2.5099 0.9738
-0.4375 -6.1169 -2.5099 0.9738
-0.2189 -6.1286 -2.5099 0.9738
-0.0000 -6.1324 -2.5099 0.9738
0.2189 -6.1284 -2.5098 0.9738
0.6555 -6.0969 -2.5097 0.9738
0.8727 -6.0695 -2.5096 0.9738
1.3033 -5.9914 -2.5095 0.9738
1.5163 -5.9408 -2.5094 0.9738
1.9361 -5.8170 -2.5091 0.9739
2.1423 -5.7439 -2.5090 0.9739
2.5464 -5.5758 -2.5087 0.9739
2.7436 -5.4810 -2.5086 0.9739
2.9373 -5.3792 -2.5084 0.9739
3.1272 -5.2706 -2.5083 0.9739
3.6719 -4.9051 -2.5077 0.9739
4.9015 -3.6693 -2.5059 0.9739
5.0289 -3.4916 -2.5057 0.9739
5.3716 -2.9331 -2.5049 0.9739
5.4723 -2.7392 -2.5046 0.9739
5.7319 -2.1379 -2.5038 0.9739
5.9751 -1.2998 -2.5027 0.9739
6.0170 -1.0856 -2.5024 0.9739
6.0965 -0.4360 -2.5015 0.9739
-5.7397 -0.2050 -2.5030 0.9753
-5.6867 -0.8176 -2.5038 0.9752
-5.5684 -1.4212 -2.5046 0.9752
-5.4539 -1.8152 -2.5051 0.9752
-5.3115 -2.2001 -2.5056 0.9752
-5.2301 -2.3885 -2.5058 0.9752
-5.1420 -2.5739 -2.5060 0.9752
-5.0473 -2.7560 -2.5062 0.9752
-4.9461 -2.9347 -2.5065 0.9752
-4.8386 -3.1096 -2.5067 0.9752
-4.7249 -3.2806 -2.5069 0.9752
-4.6052 -3.4474 -2.5071 0.9752
-4.3482 -3.7677 -2.5075 0.9752
-3.4492 -4.6076 -2.5084 0.9752
-3.2827 -4.7281 -2.5085 0.9752
-3.1121 -4.8424 -2.5087 0.9752
-2.9374 -4.9507 -2.5088 0.9752
-2.3916 -5.2369 -2.5091 0.9752
-1.8183 -5.4630 -2.5093 0.9752
-1.6221 -5.5245 -2.5093 0.9752
-1.2239 -5.6263 -2.5094 0.9752
-0.8194 -5.6994 -2.5094 0.9752
-0.6155 -5.7250 -2.5094 0.9752
-0.4108 -5.7433 -2.5094 0.9752
-0.2055 -5.7542 -2.5094 0.9752
0.2055 -5.7541 -2.5093 0.9752
0.8194 -5.6988 -2.5092 0.9752
1.0222 -5.6657 -2.5091 0.9752
1.2237 -5.6255 -2.5090 0.9752
1.6218 -5.5234 -2.5088 0.9752
2.2026 -5.3176 -2.5085 0.9752
2.3909 -5.2353 -2.5083 0.9752
3.1108 -4.8406 -2.5077 0.9752
3.4478 -4.6057 -2.5073 0.9752
3.6097 -4.4793 -2.5072 0.9752
3.7670 -4.3473 -2.5070 0.9752
3.9194 -4.2098 -2.5068 0.9752
4.2090 -3.9188 -2.5063 0.9752
4.3458 -3.7657 -2.5061 0.9752
4.4771 -3.6079 -2.5059 0.9752
4.7222 -3.2787 -2.5054 0.9752
4.8357 -3.1077 -2.5052 0.9752
4.9431 -2.9329 -2.5049 0.9752
5.1387 -2.5723 -2.5044 0.9752
5.5109 -1.6182 -2.5031 0.9753
5.5646 -1.4203 -2.5029 0.9753
5.6827 -0.8171 -2.5021 0.9753
5.7253 -0.4095 -2.5015 0.9753
-5.4068 0.0000 -2.5027 0.9764
-5.3774 -0.5781 -2.5035 0.9764
-5.2864 -1.1500 -2.5042 0.9764
-5.2424 -1.3381 -2.5044 0.9764
-5.1346 -1.7090 -2.5049 0.9764
-5.0708 -1.8913 -2.5051 0.9764
-5.0005 -2.0713 -2.5054 0.9764
-4.9238 -2.2486 -2.5056 0.9764
-4.8408 -2.4231 -2.5058 0.9764
-4.6564 -2.7628 -2.5062 0.9764
-4.4481 -3.0884 -2.5066 0.9764
-4.2171 -3.3983 -2.5070 0.9764
-4.0934 -3.5469 -2.5071 0.9764
-3.8304 -3.8304 -2.5075 0.9764
-3.6915 -3.9649 -2.5076 0.9764
-3.5478 -4.0944 -2.5078 0.9764
-3.3996 -4.2186 -2.5079 0.9764
-3.0903 -4.4509 -2.5081 0.9764
-2.5971 -4.7563 -2.5085 0.9764
-2.4258 -4.8462 -2.5086 0.9764
-2.2514 -4.9298 -2.5086 0.9764
-2.0740 -5.0072 -2.5087 0.9764
-1.8941 -5.0781 -2.5088 0.9764
-1.7116 -5.1426 -2.5088 0.9764
-0.9624 -5.3342 -2.5090 0.9764
-0.7714 -5.3651 -2.5090 0.9764
-0.5794 -5.3893 -2.5090 0.9764
-0.1935 -5.4168 -2.5090 0.9764
-0.0000 -5.4202 -2.5089 0.9764
0.1934 -5.4167 -2.5089 0.9764
0.7713 -5.3646 -2.5087 0.9764
0.9623 -5.3335 -2.5087 0.9764
1.1520 -5.2956 -2.5086 0.9764
1.5267 -5.1996 -2.5084 0.9764
1.7113 -5.1415 -2.5083 0.9764
1.8936 -5.0770 -2.5082 0.9764
2.0735 -5.0059 -2.5081 0.9764
2.2507 -4.9285 -2.5079 0.9764
2.4251 -4.8447 -2.5078 0.9764
2.7642 -4.6588 -2.5075 0.9764
2.9285 -4.5569 -2.5074 0.9764
3.0891 -4.4492 -2.5072 0.9764
3.3982 -4.2169 -2.5068 0.9764
3.5463 -4.0926 -2.5067 0.9764
3.6898 -3.9631 -2.5065 0.9764
3.9625 -3.6892 -2.5061 0.9764
4.2149 -3.3966 -2.5057 0.9764
4.3331 -3.2437 -2.5054 0.9764
4.4457 -3.0867 -2.5052 0.9764
4.5526 -2.9258 -2.5050 0.9764
4.6537 -2.7612 -2.5048 0.9764
4.7488 -2.5931 -2.5045 0.9764
4.9208 -2.2473 -2.5041 0.9764
4.9974 -2.0700 -2.5038 0.9764
5.0676 -1.8901 -2.5036 0.9764
5.1885 -1.5235 -2.5031 0.9764
5.2391 -1.3372 -2.5028 0.9764
5.2829 -1.1492 -2.5026 0.9765
5.3200 -0.9598 -2.5023 0.9765
5.3905 -0.3855 -2.5016 0.9765
-5.0993 -0.1821 -2.5029 0.9775
-5.0900 -0.3641 -2.5032 0.9775
-5.0520 -0.7264 -2.5036 0.9775
-4.9882 -1.0851 -2.5041 0.9775
-4.9468 -1.2626 -2.5043 0.9775
-4.8990 -1.4385 -2.5045 0.9775
-4.7847 -1.7846 -2.5049 0.9775
-4.7184 -1.9544 -2.5052 0.9775
-4.4835 -2.4482 -2.5058 0.9775
-4.2981 -2.7622 -2.5061 0.9775
-4.0906 -3.0622 -2.5065 0.9775
-3.9790 -3.2065 -2.5067 0.9775
-3.8623 -3.3467 -2.5068 0.9775
-3.6141 -3.6141 -2.5071 0.9775
-3.4830 -3.7410 -2.5073 0.9775
-3.3475 -3.8632 -2.5074 0.9775
-3.2076 -3.9804 -2.5076 0.9775
-3.0637 -4.0926 -2.5077 0.9775
-2.6090 -4.3972 -2.5080 0.9775
-0.9080 -5.0328 -2.5086 0.9775
-0.7278 -5.0620 -2.5086 0.9775
-0.5467 -5.0848 -2.5086 0.9775
-0.3648 -5.1010 -2.5086 0.9775
-0.0000 -5.1140 -2.5085 0.9775
0.5466 -5.0844 -2.5084 0.9775
1.2645 -4.9543 -2.5081 0.9775
1.4405 -4.9059 -2.5080 0.9775
1.6146 -4.8512 -2.5079 0.9775
1.9564 -4.7232 -2.5077 0.9775
2.4497 -4.4863 -2.5073 0.9775
2.6081 -4.3958 -2.5072 0.9775
2.7632 -4.2996 -2.5070 0.9775
2.9147 -4.1980 -2.5069 0.9775
3.2064 -3.9788 -2.5066 0.9775
3.4815 -3.7394 -2.5062 0.9775
3.6125 -3.6125 -2.5060 0.9775
3.9771 -3.2049 -2.5054 0.9775
4.1949 -2.9126 -2.5050 0.9775
4.3912 -2.6054 -2.5046 0.9775
4.4810 -2.4468 -2.5044 0.9775
4.6433 -2.1205 -2.5039 0.9775
4.8420 -1.6116 -2.5032 0.9775
4.9438 -1.2618 -2.5028 0.9775
5.0202 -0.9058 -2.5023 0.9775
5.0489 -0.7259 -2.5021 0.9775
5.0868 -0.3638 -2.5016 0.9775
5.0961 -0.1820 -2.5013 0.9775
-4.8215 -0.1722 -2.5029 0.9785
-4.8127 -0.3442 -2.5031 0.9785
-4.7977 -0.5158 -2.5033 0.9785
-4.7767 -0.6868 -2.5035 0.9785
-4.7495 -0.8569 -2.5037 0.9785
-4.7163 -1.0260 -2.5040 0.9785
-4.6319 -1.3600 -2.5044 0.9785
-4.5808 -1.5246 -2.5046 0.9785
-4.5238 -1.6873 -2.5048 0.9785
-4.1539 -2.4646 -2.5057 0.9785
-3.9681 -2.7551 -2.5061 0.9785
-3.8675 -2.8951 -2.5062 0.9785
-3.6515 -3.1641 -2.5066 0.9785
-3.5365 -3.2926 -2.5067 0.9785
-3.4169 -3.4169 -2.5069 0.9785
-3.2929 -3.5369 -2.5070 0.9785
-3.1648 -3.6523 -2.5071 0.9785
-2.4665 -4.1571 -2.5077 0.9785
-2.3167 -4.2427 -2.5078 0.9785
-2.1638 -4.3228 -2.5078 0.9785
-2.0082 -4.3974 -2.5079 0.9785
-1.6895 -4.5297 -2.5080 0.9785
-1.0277 -4.7243 -2.5082 0.9784
-0.3449 -4.8225 -2.5082 0.9784
-0.1726 -4.8317 -2.5082 0.9784
0.1726 -4.8316 -2.5081 0.9784
0.3449 -4.8223 -2.5081 0.9784
0.5168 -4.8068 -2.5081 0.9785
0.6880 -4.7852 -2.5080 0.9785
1.1955 -4.6839 -2.5078 0.9785
2.0077 -4.3963 -2.5073 0.9785
2.1633 -4.3216 -2.5072 0.9785
2.3160 -4.2415 -2.5070 0.9785
2.4658 -4.1559 -2.5069 0.9785
2.6124 -4.0650 -2.5068 0.9785
2.8954 -3.8678 -2.5065 0.9785
3.0314 -3.7617 -2.5063 0.9785
3.1635 -3.6509 -2.5061 0.9785
3.2916 -3.5354 -2.5060 0.9785
3.6499 -3.1626 -2.5054 0.9785
3.8656 -2.8938 -2.5051 0.9785
4.3162 -2.1606 -2.5040 0.9785
4.4586 -1.8468 -2.5036 0.9785
4.6744 -1.1931 -2.5027 0.9785
4.7136 -1.0254 -2.5025 0.9785
4.7739 -0.6864 -2.5021 0.9785
4.7949 -0.5155 -2.5018 0.9785
-4.5693 0.0000 -2.5026 0.9794
-4.4985 -0.8116 -2.5036 0.9794
-4.4671 -0.9717 -2.5038 0.9794
-4.1603 -1.9000 -2.5050 0.9794
-3.9342 -2.3343 -2.5055 0.9794
-3.6629 -2.7420 -2.5060 0.9793
-3.4583 -2.9967 -2.5063 0.9793
-3.2361 -3.2361 -2.5066 0.9793
-3.1187 -3.3497 -2.5067 0.9793
-2.8721 -3.5640 -2.5070 0.9793
-2.6107 -3.7602 -2.5072 0.9793
-2.4749 -3.8511 -2.5073 0.9793
-1.9019 -4.1646 -2.5076 0.9793
-1.7521 -4.2300 -2.5077 0.9793
-1.4459 -4.3444 -2.5078 0.9793
-1.2900 -4.3933 -2.5078 0.9793
-1.1324 -4.4366 -2.5078 0.9793
-0.9733 -4.4742 -2.5079 0.9793
-0.8130 -4.5061 -2.5079 0.9793
-0.6516 -4.5323 -2.5079 0.9793
-0.3267 -4.5672 -2.5079 0.9793
-0.1634 -4.5759 -2.5079 0.9793
-0.0000 -4.5788 -2.5078 0.9793
0.3266 -4.5670 -2.5078 0.9793
0.4894 -4.5524 -2.5077 0.9793
0.6516 -4.5319 -2.5077 0.9793
0.8129 -4.5057 -2.5076 0.9793
0.9732 -4.4737 -2.5075 0.9793
1.1322 -4.4360 -2.5075 0.9793
1.5997 -4.2891 -2.5072 0.9793
1.9015 -4.1637 -2.5070 0.9793
2.1935 -4.0170 -2.5068 0.9793
2.3353 -3.9360 -2.5066 0.9793
2.9962 -3.4578 -2.5059 0.9793
3.2348 -3.2348 -2.5056 0.9794
3.4569 -2.9954 -2.5052 0.9794
3.7564 -2.6081 -2.5047 0.9794
3.9323 -2.3332 -2.5043 0.9794
4.0128 -2.1912 -2.5041 0.9794
4.2230 -1.7492 -2.5035 0.9794
4.2824 -1.5973 -2.5033 0.9794
4.4960 -0.8112 -2.5023 0.9794
4.5217 -0.6501 -2.5020 0.9794
4.5417 -0.4883 -2.5018 0.9794
4.5558 -0.3258 -2.5016 0.9794
4.5642 -0.1630 -2.5014 0.9794
-4.3346 0.0000 -2.5026 0.9802
-4.3322 -0.1547 -2.5028 0.9802
-4.2918 -0.6171 -2.5034 0.9802
-4.2674 -0.7699 -2.5036 0.9802
-4.2022 -1.0726 -2.5039 0.9802
-4.1616 -1.2219 -2.5041 0.9802
-4.1156 -1.3698 -2.5043 0.9802
-4.0080 -1.6602 -2.5047 0.9802
-3.6508 -2.3462 -2.5055 0.9802
-3.5649 -2.4752 -2.5057 0.9802
-3.4745 -2.6010 -2.5058 0.9802
-3.3796 -2.7235 -2.5059 0.9802
-3.2805 -2.8425 -2.5061 0.9802
-3.1771 -2.9580 -2.5062 0.9801
-3.0696 -3.0696 -2.5064 0.9801
-2.9583 -3.1774 -2.5065 0.9801
-2.7243 -3.3807 -2.5067 0.9801
-2.6020 -3.4759 -2.5068 0.9801
-2.3476 -3.6529 -2.5070 0.9801
-1.8041 -3.9503 -2.5073 0.9801
-1.5177 -4.0691 -2.5074 0.9801
-1.2236 -4.1672 -2.5075 0.9801
-0.4643 -4.3183 -2.5076 0.9801
-0.3099 -4.3322 -2.5076 0.9801
-0.0000 -4.3432 -2.5075 0.9801
0.1550 -4.3404 -2.5075 0.9801
0.3098 -4.3320 -2.5075 0.9801
0.7711 -4.2738 -2.5073 0.9801
0.9231 -4.2435 -2.5073 0.9801
1.3713 -4.1201 -2.5070 0.9801
1.6616 -4.0115 -2.5068 0.9801
1.9434 -3.8824 -2.5066 0.9801
2.0806 -3.8104 -2.5065 0.9801
2.3469 -3.6519 -2.5063 0.9801
2.7234 -3.3795 -2.5059 0.9802
2.9572 -3.1762 -2.5056 0.9802
3.1758 -2.9568 -2.5052 0.9802
3.2791 -2.8414 -2.5051 0.9802
3.4730 -2.5999 -2.5047 0.9802
3.5633 -2.4741 -2.5046 0.9802
3.6491 -2.3451 -2.5044 0.9802
3.8780 -1.9412 -2.5038 0.9802
4.1135 -1.3691 -2.5030 0.9802
4.3085 -0.4632 -2.5018 0.9802
4.3219 -0.3091 -2.5016 0.9802
4.3298 -0.1546 -2.5014 0.9802
