ply
format ascii 1.0
element vertex 1357
property float32 x
property float32 y
property float32 z
property float32 I
end_header
29.1760 25.2812 6.8072 0.8549
25.6997 23.9273 6.1915 0.8671
24.2842 24.2842 6.0556 0.8698
22.3357 23.9902 5.7797 0.8753
10.8283 12.4965 2.9156 0.9350
18.7425 23.2581 5.2669 0.8857
17.1711 22.9379 5.0523 0.8901
15.2845 22.0139 4.7255 0.8969
13.1194 22.1115 4.5335 0.9008
11.9108 21.8131 4.3823 0.9040
9.6120 21.0472 4.0799 0.9103
8.6357 20.8484 3.9790 0.9124
7.8216 20.9705 3.9465 0.9131
6.1546 20.9608 3.8520 0.9151
4.4246 20.3398 3.6703 0.9189
2.8793 20.0259 3.5674 0.9211
1.4413 20.1523 3.5625 0.9212
0.7196 20.1488 3.5550 0.9214
-0.6923 19.3846 3.4202 0.9242
-1.3458 18.8166 3.3263 0.9262
-2.0085 18.6817 3.3131 0.9265
-2.7156 18.8872 3.3646 0.9254
-5.4435 25.0237 4.5155 0.9012
-7.2404 24.6587 4.5315 0.9009
-6.1179 18.3813 3.4159 0.9243
-6.7181 18.0119 3.3897 0.9249
-7.2931 17.6071 3.3604 0.9255
-7.9774 17.4680 3.3861 0.9250
-8.8579 17.6958 3.4893 0.9228
-9.7515 17.8585 3.5878 0.9207
-11.8595 17.0809 3.6666 0.9190
-7.8537 8.4355 2.0323 0.9543
-8.2067 8.2067 2.0465 0.9540
-17.1685 15.9844 4.1362 0.9091
-18.1688 15.7434 4.2390 0.9070
39.4402 27.3838 7.3556 0.8234
35.4771 26.5578 6.7890 0.8358
29.3279 25.4128 5.9449 0.8547
26.0024 24.2091 5.4426 0.8661
24.4110 24.4110 5.2886 0.8696
22.3334 23.9877 5.0209 0.8758
10.8321 12.5009 2.5340 0.9353
18.7400 23.2549 4.5753 0.8862
17.1289 22.8815 4.3787 0.8908
14.1385 21.9999 4.0062 0.8996
13.1475 22.1588 3.9472 0.9010
10.9242 21.8238 3.7387 0.9060
9.6112 21.0456 3.5444 0.9106
8.6351 20.8469 3.4568 0.9127
7.8757 21.1155 3.4524 0.9128
6.2510 21.2891 3.3991 0.9141
7.0347 27.5616 4.3576 0.8913
2.1583 20.0747 3.0931 0.9215
1.8711 26.1607 4.0179 0.8993
0.0000 26.2093 4.0151 0.8994
-1.3457 18.8154 2.8898 0.9265
-5.4646 25.1203 3.9383 0.9012
-6.3875 25.0262 3.9568 0.9008
-7.2551 24.7085 3.9450 0.9010
-6.1654 18.5240 2.9908 0.9240
-7.2926 17.6060 2.9194 0.9258
-7.9769 17.4669 2.9417 0.9252
-12.8380 23.5110 4.1037 0.8973
-13.8347 23.3171 4.1535 0.8961
-21.2643 33.0880 6.0254 0.8529
-11.9210 17.1695 3.2021 0.9189
-12.9371 16.0540 3.1585 0.9200
-14.0608 16.2271 3.2893 0.9168
-7.8565 8.4385 1.7663 0.9544
-17.3352 16.1396 3.6285 0.9086
-18.1666 15.7414 3.6825 0.9073
26.4422 14.4385 3.9232 0.8856
24.4070 24.4070 4.4948 0.8700
22.2588 23.9077 4.2537 0.8765
10.8358 12.5052 2.1547 0.9354
13.2342 22.3050 3.3774 0.9007
16.0499 29.3932 4.3611 0.8736
14.5622 29.0915 4.2364 0.8770
9.4400 20.6707 2.9592 0.9124
9.3405 28.0635 3.8516 0.8875
6.2508 21.2883 2.8892 0.9144
7.0340 27.5589 3.7038 0.8916
4.4320 20.3734 2.7151 0.9193
0.0000 26.6911 3.4757 0.8979
-0.6973 19.5242 2.5441 0.9242
-3.4234 18.9747 2.5108 0.9252
-5.5602 25.5601 3.4063 0.8999
-4.8208 18.8876 2.5384 0.9244
-7.3034 24.8730 3.3757 0.9007
-6.1905 18.5995 2.5527 0.9240
-6.7523 18.1037 2.5161 0.9250
-7.9764 17.4658 2.5004 0.9255
-8.9206 17.8212 2.5952 0.9228
-12.9292 23.6781 3.5131 0.8969
-21.3437 33.2114 5.1409 0.8528
-12.4939 16.6899 2.7148 0.9193
-14.0599 16.2259 2.7958 0.9170
-7.8592 8.4414 1.5019 0.9545
-8.2095 8.2095 1.5119 0.9542
29.3822 25.4598 4.1748 0.8552
26.2375 24.4280 3.8495 0.8657
24.4767 24.4767 3.7171 0.8700
29.4656 31.6483 4.6434 0.8403
18.9174 23.4751 3.2374 0.8858
15.4332 22.2280 2.9058 0.8969
16.3767 29.9917 3.6694 0.8716
8.6338 20.8438 2.4227 0.9132
7.9140 21.2183 2.4318 0.9129
5.1748 20.2748 2.2469 0.9193
4.3797 20.1331 2.2125 0.9205
3.5749 19.8142 2.1620 0.9222
2.8557 19.8620 2.1547 0.9224
0.9464 26.4979 2.8472 0.8988
-0.6837 19.1435 2.0570 0.9258
-5.5884 25.6895 2.8231 0.8996
-7.3951 25.1853 2.8186 0.8998
-6.0091 18.0545 2.0433 0.9263
-6.6880 17.9312 2.0550 0.9259
-7.9759 17.4647 2.0617 0.9257
-8.7617 17.5037 2.1019 0.9243
-13.0375 23.8765 2.9212 0.8963
-7.8620 8.4443 1.2389 0.9546
-18.2108 15.7798 2.5875 0.9076
-18.9103 15.2389 2.6079 0.9069
26.4352 14.4347 2.5497 0.8861
39.7797 27.6195 4.0996 0.8233
35.7173 26.7376 3.7769 0.8360
31.6875 25.5353 3.4450 0.8493
29.7804 25.8049 3.3358 0.8537
26.2345 24.4252 3.0343 0.8660
18.9607 23.5288 2.5580 0.8858
17.5059 23.3851 2.4728 0.8893
13.0169 21.9387 2.1595 0.9027
8.0492 27.4129 2.4185 0.8916
2.1285 19.7979 1.6856 0.9232
1.8707 26.1558 2.2198 0.9001
0.9324 26.1048 2.2113 0.9005
0.0000 26.8246 2.2708 0.8979
-1.3455 18.8120 1.5966 0.9271
-2.0080 18.6772 1.5902 0.9274
-5.4905 25.2394 2.1866 0.9015
-6.7174 18.0101 1.6272 0.9257
-7.2913 17.6027 1.6129 0.9264
-7.9754 17.4636 1.6252 0.9258
-8.8001 17.5805 1.6643 0.9241
-12.7317 23.3164 2.2489 0.8988
-21.4662 33.4020 3.3611 0.8527
-12.4948 16.6911 1.7650 0.9197
-12.9406 16.0584 1.7458 0.9205
-8.2122 8.2122 0.9831 0.9544
-18.9088 15.2377 2.0557 0.9071
26.4325 14.4332 1.8675 0.8863
40.9287 28.4173 3.0897 0.8190
35.9105 26.8822 2.7816 0.8355
29.9466 25.9489 2.4572 0.8532
23.2742 31.0906 2.4083 0.8559
15.4305 22.2241 1.6777 0.8972
14.1372 21.9980 1.6215 0.9005
13.0987 22.0767 1.5918 0.9022
16.2783 29.8116 2.1063 0.8727
8.6325 20.8408 1.3988 0.9136
7.8158 20.9548 1.3869 0.9143
8.0486 27.4111 1.7715 0.8918
3.5744 19.8116 1.2484 0.9225
2.1282 19.7953 1.2346 0.9233
-2.0079 18.6761 1.1648 0.9275
-2.7069 18.8273 1.1795 0.9266
-3.3700 18.6787 1.1770 0.9268
-5.5486 25.5067 1.6187 0.9007
-6.4627 25.3208 1.6205 0.9006
-7.3801 25.1342 1.6244 0.9003
-6.0350 18.1322 1.1850 0.9263
-7.2908 17.6016 1.1814 0.9265
-7.9749 17.4625 1.1904 0.9259
-8.7990 17.5782 1.2190 0.9242
-21.4671 33.4034 2.4622 0.8529
-11.7806 16.9673 1.2809 0.9206
-12.4952 16.6917 1.2929 0.9198
-14.0569 16.2226 1.3311 0.9176
-18.1046 15.6878 1.4855 0.9085
-18.9074 15.2365 1.5058 0.9073
29.8282 25.8463 1.5563 0.8539
24.3014 24.3014 1.3551 0.8715
10.8507 12.5224 0.6534 0.9358
18.6959 23.2002 1.1749 0.8876
23.0013 30.7261 1.5134 0.8576
10.7880 21.5516 0.9503 0.9080
9.6076 21.0378 0.9119 0.9116
7.8146 20.9517 0.8817 0.9144
7.3054 21.9491 0.9121 0.9116
3.5742 19.8104 0.7937 0.9226
2.1279 19.7926 0.7849 0.9234
0.9373 26.2424 1.0354 0.9002
0.0000 26.8959 1.0605 0.8979
-2.0078 18.6749 0.7406 0.9276
-3.3696 18.6763 0.7483 0.9268
-6.5260 25.5686 1.0405 0.8998
-6.0342 18.1299 0.7534 0.9264
-6.7157 18.0054 0.7577 0.9260
-7.9744 17.4615 0.7569 0.9260
-13.7997 23.2582 1.0664 0.8974
-21.4680 33.4048 1.5657 0.8530
-11.7789 16.9649 0.8144 0.9206
-12.4957 16.6923 0.8221 0.9199
-14.0560 16.2215 0.8464 0.9177
-8.2150 8.2150 0.4581 0.9546
-18.1017 15.6852 0.9445 0.9086
-18.9059 15.2354 0.9574 0.9074
26.4258 14.4296 0.5086 0.8865
35.5015 26.5761 0.7491 0.8374
31.6751 25.5254 0.6872 0.8498
26.2255 24.4168 0.6053 0.8665
24.2974 24.2974 0.5804 0.8716
18.6966 23.2011 0.5033 0.8876
15.4278 22.2203 0.4569 0.8974
14.1366 21.9970 0.4417 0.9007
10.7862 21.5482 0.4070 0.9081
8.6313 20.8378 0.3810 0.9137
7.3057 21.9500 0.3908 0.9116
8.0475 27.4074 0.4825 0.8920
4.4088 20.2669 0.3504 0.9204
2.8693 19.9562 0.3406 0.9225
2.1276 19.7899 0.3362 0.9235
0.9371 26.2389 0.4435 0.9003
-2.7063 18.8225 0.3212 0.9267
-3.3691 18.6739 0.3205 0.9269
-12.8865 23.5998 0.4542 0.8980
-21.4688 33.4062 0.6708 0.8531
-12.4961 16.6929 0.3522 0.9200
-13.2097 16.3922 0.3556 0.9192
-14.0550 16.2204 0.3626 0.9177
-7.8727 8.4559 0.1952 0.9548
-8.2163 8.2163 0.1963 0.9546
-17.5749 16.3628 0.4056 0.9084
40.9598 28.4389 -0.2808 0.8192
29.8300 25.8478 -0.2222 0.8539
24.2982 24.2983 -0.1935 0.8716
29.6178 31.8117 -0.2447 0.8404
18.6974 23.2020 -0.1678 0.8876
14.1363 21.9965 -0.1472 0.9007
9.6062 21.0347 -0.1302 0.9117
7.8122 20.9453 -0.1259 0.9145
7.3060 21.9509 -0.1303 0.9116
8.0470 27.4055 -0.1608 0.8920
5.2095 20.4105 -0.1186 0.9192
4.4082 20.2641 -0.1168 0.9204
2.1274 19.7872 -0.1120 0.9235
1.8702 26.1493 -0.1476 0.9004
0.0000 26.8927 -0.1514 0.8980
-0.6864 19.2177 -0.1083 0.9260
-1.3451 18.8074 -0.1062 0.9274
-2.0075 18.6727 -0.1057 0.9276
-5.6023 25.7533 -0.1484 0.8999
-6.5252 25.5656 -0.1486 0.8998
-7.3787 25.1297 -0.1475 0.9005
-6.7139 18.0007 -0.1082 0.9260
-7.2895 17.5984 -0.1072 0.9266
-13.7960 23.2519 -0.1522 0.8975
-21.4697 33.4076 -0.2236 0.8531
-12.4966 16.6935 -0.1174 0.9200
-18.9030 15.2330 -0.1367 0.9075
26.4173 14.4249 -0.8475 0.8865
26.2195 24.4112 -1.0087 0.8664
24.2991 24.2991 -0.9676 0.8715
29.6172 31.8111 -1.2239 0.8404
10.8618 12.5352 -0.4670 0.9358
15.4252 22.2165 -0.7616 0.8974
14.1360 21.9961 -0.7362 0.9007
13.1011 22.0806 -0.7229 0.9024
16.5177 30.2499 -0.9705 0.8712
10.7828 21.5412 -0.6783 0.9081
9.6055 21.0331 -0.6511 0.9116
8.6301 20.8348 -0.6350 0.9137
7.3063 21.9518 -0.6515 0.9116
8.0464 27.4037 -0.8042 0.8920
4.4076 20.2613 -0.5839 0.9204
3.5735 19.8066 -0.5667 0.9226
2.8685 19.9508 -0.5675 0.9225
2.1271 19.7846 -0.5603 0.9235
1.8701 26.1477 -0.7381 0.9004
-2.7056 18.8177 -0.5353 0.9267
-3.3683 18.6691 -0.5342 0.9269
-6.0319 18.1228 -0.5378 0.9264
-6.7130 17.9984 -0.5409 0.9260
-8.7944 17.5689 -0.5532 0.9244
-13.7941 23.2487 -0.7612 0.8975
-13.2079 16.3900 -0.5927 0.9192
-14.0531 16.2181 -0.6043 0.9177
-17.5785 16.3662 -0.6763 0.9084
-18.0928 15.6775 -0.6741 0.9086
-18.9015 15.2318 -0.6835 0.9074
49.5220 1.7687 -2.5131 0.8200
49.4592 5.3174 -2.5227 0.8194
49.1410 8.8660 -2.5324 0.8187
43.2101 19.7334 -2.4091 0.8267
42.5520 21.3000 -2.4133 0.8265
41.0626 24.3636 -2.4214 0.8259
39.3470 27.3191 -2.4293 0.8254
35.4403 26.5303 -2.2451 0.8375
31.6627 25.5154 -2.0622 0.8497
10.8655 12.5394 -0.8415 0.9357
13.1017 22.0816 -1.3021 0.9023
8.6294 20.8333 -1.1436 0.9136
7.8098 20.9389 -1.1334 0.9144
7.3066 21.9527 -1.1734 0.9115
3.5733 19.8053 -1.0206 0.9226
2.8681 19.9481 -1.0221 0.9225
0.0000 26.8894 -1.3637 0.8979
-3.3678 18.6667 -0.9620 0.9268
-5.6016 25.7502 -1.3364 0.8998
-6.5244 25.5625 -1.3379 0.8997
-6.0311 18.1205 -0.9685 0.9264
-6.7122 17.9960 -0.9741 0.9260
-7.2886 17.5963 -0.9659 0.9266
-7.9724 17.4572 -0.9733 0.9260
-12.4974 16.6947 -1.0576 0.9199
-7.8808 8.4646 -0.5865 0.9547
-45.3021 18.7648 -2.4867 0.8217
-44.8843 16.7410 -2.4294 0.8254
-45.3821 11.5831 -2.3753 0.8290
-45.6794 9.9370 -2.3708 0.8293
-45.9168 8.2843 -2.3662 0.8295
-46.2714 3.3094 -2.3526 0.8304
34.2050 1.2216 -2.5096 0.8717
34.1849 2.4450 -2.5129 0.8716
34.1211 3.6684 -2.5162 0.8714
34.0133 4.8904 -2.5196 0.8713
33.8613 6.1093 -2.5229 0.8711
33.1424 9.7315 -2.5327 0.8706
32.4452 12.1014 -2.5390 0.8703
32.0321 13.2681 -2.5422 0.8702
29.1879 14.6104 -2.3933 0.8773
26.3073 14.3649 -2.1977 0.8867
28.1363 16.6940 -2.3988 0.8770
27.5534 17.7075 -2.4015 0.8769
10.8692 12.5437 -1.2170 0.9356
18.6521 23.1459 -2.1796 0.8876
19.8152 26.4700 -2.4244 0.8758
15.0231 21.6374 -1.9314 0.8997
10.7481 21.4721 -1.7606 0.9082
8.6288 20.8318 -1.6533 0.9135
8.0454 27.4000 -2.0938 0.8918
4.4064 20.2557 -1.5199 0.9202
3.5730 19.8040 -1.4755 0.9225
2.1265 19.7792 -1.4586 0.9233
0.9346 26.1668 -1.9198 0.9003
0.0000 26.8878 -1.9715 0.8978
-0.6861 19.2102 -1.4094 0.9258
-1.3449 18.8040 -1.3823 0.9272
-2.0072 18.6693 -1.3768 0.9275
-2.7049 18.8129 -1.3936 0.9266
-3.3674 18.6643 -1.3906 0.9268
-6.5240 25.5610 -1.9343 0.8996
-6.7113 17.9937 -1.4081 0.9259
-7.2882 17.5952 -1.3964 0.9265
-12.7908 23.4247 -1.9569 0.8985
-13.2061 16.3878 -1.5432 0.9191
-14.0512 16.2159 -1.5732 0.9175
-8.2218 8.2218 -0.8525 0.9544
-29.2490 18.7972 -2.5493 0.8698
-30.9785 15.5067 -2.5401 0.8703
-31.4731 14.3733 -2.5369 0.8704
-31.9257 13.2241 -2.5337 0.8706
-32.3361 12.0608 -2.5305 0.8707
-33.0286 9.6981 -2.5240 0.8710
-33.8934 4.8732 -2.5107 0.8717
-34.0639 2.4363 -2.5040 0.8720
-34.0838 1.2173 -2.5007 0.8722
26.1043 0.9323 -2.5077 0.9004
26.0808 1.8653 -2.5103 0.9003
25.9335 3.7287 -2.5153 0.9001
25.6525 5.5804 -2.5204 0.8999
25.2384 7.4107 -2.5253 0.8997
24.9819 8.3148 -2.5277 0.8996
24.3710 10.0948 -2.5325 0.8994
23.6320 11.8293 -2.5372 0.8992
23.1819 12.6583 -2.5358 0.8993
21.3828 12.6870 -2.3870 0.9049
20.4576 14.2040 -2.3910 0.9048
18.8665 16.3479 -2.3967 0.9046
10.8730 12.5480 -1.5940 0.9355
15.0205 20.0651 -2.4063 0.9042
14.3029 20.6001 -2.4077 0.9041
13.5658 21.1088 -2.4090 0.9041
12.8102 21.5904 -2.4102 0.9040
7.7840 20.8696 -2.1384 0.9144
7.2739 21.8544 -2.2113 0.9116
7.0912 24.1502 -2.4164 0.9038
4.3922 20.1909 -1.9838 0.9203
3.5728 19.8027 -1.9319 0.9223
2.8584 19.8803 -1.9282 0.9225
1.7971 25.1262 -2.4184 0.9037
0.8991 25.1745 -2.4184 0.9037
0.0000 25.1897 -2.4183 0.9037
-1.3448 18.8029 -1.8098 0.9270
-2.0070 18.6682 -1.8026 0.9273
-5.3493 24.5903 -2.4160 0.9038
-7.0856 24.1313 -2.4145 0.9039
-6.0118 18.0625 -1.8276 0.9264
-6.6898 17.9360 -1.8378 0.9260
-7.2877 17.5941 -1.8283 0.9263
-12.0211 22.0150 -2.4081 0.9041
-12.7921 21.5599 -2.4068 0.9042
-11.7421 18.2711 -2.0851 0.9164
-13.2052 16.3867 -2.0205 0.9189
-14.0502 16.2148 -2.0598 0.9174
-7.8862 8.4704 -1.1111 0.9546
-17.5050 16.2977 -2.2962 0.9084
-19.9098 14.9043 -2.3877 0.9049
-21.3323 12.6571 -2.3814 0.9051
-21.7505 11.8767 -2.3792 0.9052
-22.5000 10.2754 -2.3747 0.9054
-22.8305 9.4567 -2.3724 0.9055
-23.1311 8.6274 -2.3701 0.9056
-24.9172 8.2932 -2.5212 0.8999
-25.1724 7.3913 -2.5187 0.8999
-25.3948 6.4816 -2.5162 0.9000
-25.8638 3.7187 -2.5086 0.9003
-25.9537 2.7903 -2.5060 0.9004
-26.0103 1.8603 -2.5035 0.9005
21.0884 0.7532 -2.5066 0.9185
21.0653 1.5066 -2.5087 0.9184
21.0152 2.2594 -2.5107 0.9184
20.3614 5.9787 -2.5208 0.9181
20.1507 6.7068 -2.5227 0.9180
19.3622 8.8424 -2.5284 0.9178
18.3454 10.8849 -2.5339 0.9177
17.9372 11.5275 -2.5327 0.9177
16.6520 11.5617 -2.4081 0.9216
16.0701 12.0299 -2.3845 0.9223
15.1899 13.1621 -2.3875 0.9222
11.8824 11.8824 -1.9961 0.9346
10.1846 11.7536 -1.8474 0.9393
10.0258 12.4412 -1.8980 0.9377
9.8579 13.1686 -1.9540 0.9359
10.9113 16.9783 -2.3973 0.9219
9.6798 17.7273 -2.3992 0.9219
4.2467 9.2989 -1.2143 0.9597
7.7370 18.6787 -2.4016 0.9218
3.5726 19.8014 -2.3901 0.9221
2.8580 19.8776 -2.3855 0.9223
0.0000 20.2452 -2.4048 0.9217
-2.6958 18.7495 -2.2501 0.9265
-5.6965 19.4005 -2.4018 0.9218
-6.0110 18.0602 -2.2610 0.9262
-7.2873 17.5931 -2.2620 0.9262
-7.9709 17.4540 -2.2793 0.9256
-8.7634 17.5070 -2.3256 0.9242
-9.6695 17.7083 -2.3967 0.9219
-10.2907 17.3441 -2.3956 0.9220
-10.8981 16.9578 -2.3945 0.9220
-13.1725 15.2018 -2.3894 0.9222
-7.8890 8.4734 -1.3752 0.9544
-8.2245 8.2246 -1.3816 0.9542
-14.6952 13.6817 -2.3850 0.9223
-15.1644 13.1400 -2.3835 0.9224
-15.6133 12.5821 -2.3819 0.9224
-16.0416 12.0086 -2.3803 0.9225
-16.4485 11.4204 -2.3786 0.9225
-17.1965 10.2032 -2.3752 0.9226
-18.1477 8.2878 -2.3699 0.9228
-18.4177 7.6288 -2.3680 0.9228
-18.6637 6.9611 -2.3662 0.9229
-19.0823 5.6031 -2.3624 0.9230
-20.5019 5.2328 -2.5134 0.9183
-20.6589 4.4941 -2.5114 0.9184
-20.9694 2.2545 -2.5052 0.9186
-21.0422 0.7515 -2.5011 0.9187
17.6732 0.0000 -2.5041 0.9311
17.6741 0.6312 -2.5058 0.9310
17.6524 1.2625 -2.5075 0.9310
17.6081 1.8931 -2.5093 0.9310
17.5412 2.5221 -2.5110 0.9309
17.4323 3.1451 -2.5099 0.9309
16.6702 6.2177 -2.5209 0.9306
16.2045 7.4004 -2.5241 0.9306
15.6542 8.5479 -2.5272 0.9305
14.6761 10.1898 -2.5315 0.9304
14.2975 10.7029 -2.5305 0.9304
12.3066 11.4579 -2.3825 0.9343
6.9758 10.0471 -1.7331 0.9518
9.1176 14.1872 -2.3895 0.9341
4.3683 9.5652 -1.4899 0.9584
5.3359 16.0318 -2.3940 0.9340
4.7611 16.2149 -2.3945 0.9340
3.5932 16.5179 -2.3951 0.9340
3.0017 16.6373 -2.3954 0.9340
2.4062 16.7352 -2.3956 0.9340
1.2063 16.8656 -2.3958 0.9340
0.6035 16.8980 -2.3958 0.9340
-1.2061 16.8633 -2.3955 0.9340
-2.4055 16.7307 -2.3949 0.9340
-4.1780 16.3694 -2.3937 0.9340
-5.3327 16.0223 -2.3926 0.9341
-5.8996 15.8176 -2.3920 0.9341
-6.4586 15.5925 -2.3913 0.9341
-7.0088 15.3472 -2.3906 0.9341
-7.5496 15.0823 -2.3898 0.9341
-8.0803 14.7980 -2.3889 0.9342
-8.6001 14.4947 -2.3880 0.9342
-9.1084 14.1729 -2.3871 0.9342
-9.6044 13.8330 -2.3861 0.9342
-10.0877 13.4755 -2.3851 0.9343
-11.0131 12.7098 -2.3828 0.9343
-8.2259 8.2259 -1.6483 0.9541
-9.4055 8.1499 -1.7634 0.9510
-13.4202 10.0462 -2.3753 0.9345
-14.0861 9.0526 -2.3725 0.9346
-15.6290 5.8293 -2.3635 0.9348
-15.8166 5.2643 -2.3619 0.9349
-15.9837 4.6932 -2.3603 0.9349
-17.4202 3.1429 -2.5081 0.9310
-17.5093 2.5175 -2.5064 0.9310
-17.5759 1.8896 -2.5047 0.9311
-17.6416 0.6301 -2.5012 0.9312
15.1977 0.5428 -2.5053 0.9402
14.7866 3.7740 -2.5140 0.9400
14.6508 4.3019 -2.5154 0.9400
14.4960 4.8247 -2.5169 0.9399
14.1303 5.8530 -2.5196 0.9399
13.4449 7.3415 -2.5236 0.9398
12.8997 8.2902 -2.5261 0.9397
12.6017 8.7495 -2.5273 0.9397
12.2871 9.1980 -2.5285 0.9397
9.0708 11.2562 -2.3815 0.9431
7.3860 12.4483 -2.3845 0.9430
6.9388 12.7075 -2.3852 0.9430
5.5446 13.3858 -2.3868 0.9430
5.0643 13.5778 -2.3873 0.9429
1.5503 14.4195 -2.3891 0.9429
1.0346 14.4660 -2.3892 0.9429
0.5177 14.4938 -2.3892 0.9429
0.0000 14.5028 -2.3892 0.9429
-0.5176 14.4929 -2.3891 0.9429
-1.5500 14.4170 -2.3887 0.9429
-2.5740 14.2665 -2.3882 0.9429
-3.5840 14.0421 -2.3875 0.9429
-4.5749 13.7453 -2.3865 0.9430
-5.5412 13.3775 -2.3854 0.9430
-6.0135 13.1678 -2.3847 0.9430
-6.4778 12.9410 -2.3841 0.9430
-7.8165 12.1627 -2.3818 0.9431
-8.2427 11.8717 -2.3809 0.9431
-6.8506 7.9060 -1.7234 0.9585
-7.2254 7.7606 -1.7468 0.9579
-8.1024 7.5436 -1.8237 0.9561
-11.5249 8.6274 -2.3716 0.9433
-11.8195 8.2065 -2.3705 0.9433
-12.3621 7.3348 -2.3680 0.9434
-12.6451 5.7748 -2.2901 0.9452
-13.2512 5.4888 -2.3629 0.9435
-13.5600 5.0576 -2.3842 0.9430
-14.4342 4.8042 -2.5061 0.9402
-15.1143 1.6250 -2.5043 0.9402
-15.1537 1.0838 -2.5028 0.9403
-15.1738 0.5419 -2.5013 0.9403
13.3179 0.4757 -2.5048 0.9472
13.2993 0.9512 -2.5061 0.9472
13.2637 1.4260 -2.5074 0.9472
13.1416 2.3710 -2.5100 0.9471
13.0552 2.8400 -2.5112 0.9471
12.8321 3.7678 -2.5138 0.9470
12.5428 4.6782 -2.5162 0.9470
12.1886 5.5664 -2.5186 0.9469
11.9876 6.0006 -2.5197 0.9469
11.7712 6.4275 -2.5209 0.9469
11.5393 6.8466 -2.5220 0.9469
11.2925 7.2572 -2.5231 0.9468
11.0309 7.6589 -2.5241 0.9468
10.7549 8.0510 -2.5252 0.9468
10.4649 8.4331 -2.5262 0.9468
9.8440 9.1651 -2.5281 0.9467
9.5141 9.5141 -2.5290 0.9467
9.1481 9.8258 -2.5234 0.9468
8.4668 9.7712 -2.4302 0.9487
6.9287 9.9793 -2.2835 0.9518
6.4616 10.8904 -2.3802 0.9498
5.6708 11.3288 -2.3813 0.9497
4.2463 9.2981 -1.9213 0.9593
4.8501 11.7091 -2.3822 0.9497
4.4298 11.8767 -2.3826 0.9497
4.0037 12.0291 -2.3829 0.9497
3.5722 12.1660 -2.3833 0.9497
3.1361 12.2871 -2.3835 0.9497
2.6958 12.3924 -2.3838 0.9497
2.2519 12.4817 -2.3840 0.9497
0.9049 12.6525 -2.3842 0.9497
0.4528 12.6767 -2.3842 0.9497
-1.3557 12.6099 -2.3838 0.9497
-2.2514 12.4786 -2.3834 0.9497
-2.6950 12.3887 -2.3831 0.9497
-3.5708 12.1611 -2.3823 0.9497
-4.0019 12.0238 -2.3819 0.9497
-4.8475 11.7028 -2.3809 0.9498
-5.6672 11.3217 -2.3798 0.9498
-6.4569 10.8826 -2.3785 0.9498
-6.8392 10.6421 -2.3777 0.9498
-7.2400 7.7763 -1.9971 0.9577
-8.1018 7.5430 -2.0807 0.9559
-9.0439 7.2881 -2.1832 0.9538
-10.3479 7.1847 -2.3679 0.9500
-10.5930 6.8077 -2.3668 0.9500
-11.2443 5.6285 -2.3635 0.9501
-12.3355 5.1095 -2.5096 0.9471
-12.5264 4.6721 -2.5129 0.9470
-13.0375 2.8361 -2.5078 0.9471
-13.1930 1.8969 -2.5053 0.9472
-13.2454 1.4240 -2.5040 0.9472
11.8408 0.4229 -2.5045 0.9527
11.7912 1.2677 -2.5068 0.9527
11.7438 1.6885 -2.5079 0.9527
11.6814 2.1076 -2.5091 0.9526
11.6039 2.5243 -2.5102 0.9526
11.5115 2.9381 -2.5113 0.9526
11.1460 4.1573 -2.5146 0.9525
10.9952 4.5544 -2.5157 0.9525
10.4582 5.7106 -2.5187 0.9525
10.0319 6.4471 -2.5207 0.9524
9.7991 6.8036 -2.5216 0.9524
9.5535 7.1516 -2.5226 0.9524
9.2954 7.4907 -2.5234 0.9524
7.8302 9.0365 -2.5275 0.9523
7.4941 9.2996 -2.5246 0.9523
7.0827 9.4614 -2.4982 0.9528
6.4937 9.3527 -2.4068 0.9545
5.7374 9.6699 -2.3767 0.9551
4.2462 9.2978 -2.1606 0.9591
4.3061 10.3959 -2.3785 0.9550
3.9329 10.5445 -2.3789 0.9550
3.1714 10.8009 -2.3795 0.9550
2.7842 10.9084 -2.3797 0.9550
2.3933 11.0017 -2.3799 0.9550
1.9992 11.0809 -2.3801 0.9550
1.6025 11.1458 -2.3802 0.9550
0.8034 11.2323 -2.3804 0.9550
-0.4019 11.2534 -2.3803 0.9550
-1.2036 11.1948 -2.3800 0.9550
-1.6022 11.1438 -2.3798 0.9550
-2.3926 10.9988 -2.3793 0.9550
-3.1703 10.7971 -2.3786 0.9550
-3.5531 10.6754 -2.3783 0.9550
-3.9312 10.5399 -2.3778 0.9551
-4.3040 10.3909 -2.3774 0.9551
-4.6712 10.2285 -2.3769 0.9551
-5.3865 9.8647 -2.3758 0.9551
-6.0734 9.4505 -2.3746 0.9551
-6.4051 9.2251 -2.3739 0.9551
-6.7283 8.9880 -2.3733 0.9551
-6.8712 8.5266 -2.3147 0.9562
-7.9998 7.4480 -2.3104 0.9563
-8.7215 7.0282 -2.3676 0.9552
-9.1936 6.3832 -2.3658 0.9553
-9.4118 6.0486 -2.3649 0.9553
-9.8519 5.8454 -2.4215 0.9542
-10.4164 5.6878 -2.5087 0.9526
-10.8180 4.9404 -2.5139 0.9525
-11.4978 2.9346 -2.5083 0.9526
-11.5899 2.5212 -2.5072 0.9527
10.6508 0.0000 -2.5032 0.9572
10.6484 0.3803 -2.5042 0.9572
10.6325 0.7605 -2.5053 0.9571
10.6029 1.1399 -2.5063 0.9571
10.5598 1.5183 -2.5073 0.9571
10.5032 1.8950 -2.5083 0.9571
10.3495 2.6416 -2.5104 0.9571
10.2527 3.0105 -2.5113 0.9570
10.0196 3.7371 -2.5133 0.9570
9.8836 4.0939 -2.5143 0.9570
9.5734 4.7921 -2.5161 0.9570
9.2137 5.4668 -2.5179 0.9569
9.0159 5.7942 -2.5188 0.9569
7.3186 7.8607 -2.5242 0.9568
4.9222 9.0144 -2.4139 0.9587
4.1983 9.1931 -2.3752 0.9593
3.8681 9.3385 -2.3756 0.9593
3.1929 9.5931 -2.3762 0.9593
2.8487 9.7020 -2.3764 0.9593
2.1497 9.8821 -2.3768 0.9593
1.7957 9.9532 -2.3770 0.9593
1.4394 10.0114 -2.3771 0.9593
1.0812 10.0567 -2.3772 0.9593
0.3610 10.1084 -2.3772 0.9593
-0.3610 10.1080 -2.3771 0.9593
-0.7215 10.0883 -2.3770 0.9593
-1.0811 10.0555 -2.3769 0.9593
-2.1492 9.8798 -2.3763 0.9593
-2.5002 9.7956 -2.3760 0.9593
-4.5208 9.0314 -2.3737 0.9593
-5.4566 8.4907 -2.3721 0.9594
-5.7548 8.2884 -2.3715 0.9594
-6.3280 7.8526 -2.3702 0.9594
-6.6024 7.6196 -2.3695 0.9594
-6.8681 7.3769 -2.3688 0.9594
-7.6101 6.5942 -2.3666 0.9595
-7.8380 6.3163 -2.3658 0.9595
-8.2627 6.1853 -2.4257 0.9585
-8.9939 5.7800 -2.5126 0.9570
-9.2049 5.4616 -2.5155 0.9570
-9.5639 4.7874 -2.5136 0.9570
-9.7250 4.4413 -2.5127 0.9570
-10.0092 3.7332 -2.5107 0.9571
-10.1320 3.3723 -2.5097 0.9571
-10.2418 3.0073 -2.5087 0.9571
-10.3384 2.6387 -2.5077 0.9571
-10.4217 2.2671 -2.5066 0.9571
-10.4917 1.8929 -2.5056 0.9571
-10.5482 1.5166 -2.5046 0.9572
-10.5912 1.1387 -2.5035 0.9572
-10.6207 0.7596 -2.5025 0.9572
-10.6367 0.3799 -2.5015 0.9572
9.6649 0.3452 -2.5040 0.9608
9.6500 0.6902 -2.5049 0.9608
9.5316 1.7197 -2.5077 0.9608
9.4676 2.0595 -2.5087 0.9608
9.3914 2.3970 -2.5096 0.9607
9.2031 3.0631 -2.5114 0.9607
8.9673 3.7144 -2.5131 0.9607
8.8320 4.0335 -2.5140 0.9607
8.6853 4.3476 -2.5148 0.9607
8.1787 5.2561 -2.5172 0.9606
7.9883 5.5464 -2.5180 0.9606
7.7876 5.8297 -2.5187 0.9606
7.5767 6.1057 -2.5194 0.9606
7.3560 6.3740 -2.5202 0.9606
7.1257 6.6343 -2.5208 0.9606
6.6377 7.1294 -2.5221 0.9606
6.3805 7.3635 -2.5227 0.9605
6.1150 7.5883 -2.5233 0.9605
5.8416 7.8034 -2.5239 0.9605
4.9769 8.3881 -2.5253 0.9605
4.6727 8.5575 -2.5245 0.9605
4.3587 8.7077 -2.5213 0.9606
4.0204 8.8034 -2.5058 0.9608
3.2283 8.6554 -2.3919 0.9625
2.8952 8.6987 -2.3737 0.9628
2.2677 8.8846 -2.3741 0.9628
1.9492 8.9606 -2.3743 0.9628
1.6283 9.0249 -2.3744 0.9628
0.6543 9.1481 -2.3746 0.9628
0.0000 9.1714 -2.3746 0.9628
-0.3273 9.1653 -2.3746 0.9628
-0.6542 9.1474 -2.3745 0.9628
-1.9488 8.9586 -2.3738 0.9628
-2.2671 8.8824 -2.3735 0.9628
-2.8943 8.6959 -2.3730 0.9628
-3.2023 8.5858 -2.3726 0.9628
-4.0997 8.1902 -2.3714 0.9629
-4.6717 7.8737 -2.3705 0.9629
-5.2192 7.5171 -2.3694 0.9629
-5.4829 7.3243 -2.3689 0.9629
-5.9884 6.9110 -2.3677 0.9629
-6.2296 6.6910 -2.3670 0.9629
-6.9416 6.4628 -2.4557 0.9616
-7.7807 5.8245 -2.5165 0.9606
-7.9817 5.5418 -2.5159 0.9606
-8.1717 5.2517 -2.5151 0.9607
-8.3512 4.9550 -2.5142 0.9607
-8.5199 4.6522 -2.5134 0.9607
-8.6775 4.3437 -2.5125 0.9607
-9.2942 2.7290 -2.5080 0.9608
-9.3823 2.3947 -2.5071 0.9608
-9.4583 2.0575 -2.5062 0.9608
-9.5738 1.3765 -2.5043 0.9608
-9.6132 1.0335 -2.5034 0.9608
-9.6552 0.3448 -2.5015 0.9609
8.8414 0.0000 -2.5030 0.9639
8.8250 0.6312 -2.5047 0.9639
8.7998 0.9461 -2.5055 0.9639
8.7158 1.5725 -2.5072 0.9639
8.6570 1.8832 -2.5081 0.9638
8.4144 2.8006 -2.5105 0.9638
8.1984 3.3959 -2.5121 0.9638
7.7955 4.2567 -2.5144 0.9637
7.4763 4.8048 -2.5159 0.9637
7.3021 5.0699 -2.5166 0.9637
7.1184 5.3288 -2.5173 0.9637
6.9255 5.5809 -2.5179 0.9637
6.7236 5.8261 -2.5186 0.9637
6.5130 6.0638 -2.5192 0.9637
6.0666 6.5160 -2.5204 0.9637
5.5887 6.9352 -2.5215 0.9636
5.3387 7.1317 -2.5220 0.9636
5.0817 7.3191 -2.5224 0.9636
4.8181 7.4971 -2.5229 0.9636
4.5482 7.6656 -2.5233 0.9636
4.2724 7.8243 -2.5237 0.9636
3.9910 7.9730 -2.5241 0.9636
3.7044 8.1114 -2.5244 0.9636
3.1129 8.3460 -2.5217 0.9636
2.8103 8.4435 -2.5192 0.9637
2.1468 8.4110 -2.4574 0.9646
1.8159 8.3475 -2.4184 0.9651
1.4949 8.2854 -2.3834 0.9656
1.1926 8.2949 -2.3724 0.9658
0.5979 8.3592 -2.3725 0.9658
-0.5978 8.3587 -2.3723 0.9658
-1.1925 8.2939 -2.3721 0.9658
-1.4876 8.2454 -2.3719 0.9658
-2.0717 8.1168 -2.3715 0.9658
-2.6449 7.9465 -2.3709 0.9658
-2.9264 7.8460 -2.3706 0.9658
-3.4777 7.6150 -2.3699 0.9658
-3.7466 7.4848 -2.3695 0.9658
-4.0107 7.3450 -2.3691 0.9658
-4.2695 7.1959 -2.3687 0.9658
-4.8130 6.9320 -2.3890 0.9655
-5.1328 6.8566 -2.4247 0.9650
-5.8028 6.6968 -2.5085 0.9638
-6.0502 6.4983 -2.5135 0.9638
-6.5086 6.0597 -2.5175 0.9637
-6.9205 5.5769 -2.5161 0.9637
-7.1132 5.3249 -2.5154 0.9637
-7.2966 5.0661 -2.5147 0.9637
-7.4705 4.8010 -2.5139 0.9638
-7.7892 4.2532 -2.5124 0.9638
-7.9336 3.9713 -2.5116 0.9638
-8.0677 3.6844 -2.5108 0.9638
-8.3046 3.0975 -2.5092 0.9638
-8.4071 2.7982 -2.5083 0.9638
-8.5795 2.1898 -2.5067 0.9639
-8.7079 1.5711 -2.5050 0.9639
-8.7555 1.2589 -2.5041 0.9639
-8.7918 0.9452 -2.5032 0.9639
-8.8169 0.6306 -2.5024 0.9639
-8.8307 0.3154 -2.5015 0.9639
8.1373 0.0000 -2.5029 0.9665
8.1217 0.5809 -2.5044 0.9665
8.0983 0.8707 -2.5052 0.9665
8.0646 1.1595 -2.5060 0.9665
8.0206 1.4471 -2.5068 0.9665
7.9663 1.7330 -2.5076 0.9665
7.7424 2.5769 -2.5098 0.9664
7.5433 3.1245 -2.5113 0.9664
7.4291 3.3927 -2.5120 0.9664
7.3053 3.6568 -2.5127 0.9664
7.1721 3.9163 -2.5134 0.9664
7.0296 4.1709 -2.5141 0.9664
6.1851 5.3594 -2.5172 0.9663
5.5804 5.9938 -2.5189 0.9663
5.3640 6.1904 -2.5194 0.9663
4.6741 6.7320 -2.5208 0.9663
4.4316 6.8957 -2.5212 0.9663
4.1833 7.0505 -2.5216 0.9663
3.9295 7.1964 -2.5219 0.9663
3.4070 7.4603 -2.5226 0.9663
3.1389 7.5781 -2.5229 0.9663
2.8668 7.6860 -2.5231 0.9663
2.3115 7.8723 -2.5236 0.9662
1.7424 8.0099 -2.5213 0.9663
0.8738 8.1271 -2.5141 0.9664
0.2861 8.0105 -2.4654 0.9670
-0.2820 7.8955 -2.4300 0.9675
-1.1105 7.7237 -2.4001 0.9679
-2.4729 7.4299 -2.4085 0.9678
-2.7484 7.3689 -2.4190 0.9676
-3.0265 7.3066 -2.4325 0.9674
-3.5931 7.1781 -2.4690 0.9670
-3.8832 7.1115 -2.4922 0.9667
-4.1693 7.0269 -2.5131 0.9664
-4.6645 6.7181 -2.5156 0.9664
-5.1379 6.3757 -2.5185 0.9663
-5.3610 6.1869 -2.5180 0.9663
-5.7861 5.7861 -2.5168 0.9663
-6.1811 5.3560 -2.5156 0.9664
-6.3667 5.1306 -2.5150 0.9664
-6.5441 4.8988 -2.5143 0.9664
-6.8732 4.4171 -2.5130 0.9664
-7.5374 3.1221 -2.5093 0.9664
-7.6417 2.8502 -2.5086 0.9664
-7.7362 2.5748 -2.5078 0.9665
-7.8208 2.2964 -2.5070 0.9665
-8.0579 1.1586 -2.5039 0.9665
-8.0915 0.8699 -2.5031 0.9665
-8.1278 0.2903 -2.5015 0.9665
7.5293 0.0000 -2.5028 0.9688
7.5267 0.2688 -2.5035 0.9688
7.5145 0.5375 -2.5042 0.9687
7.4614 1.0728 -2.5057 0.9687
7.4204 1.3388 -2.5064 0.9687
7.3700 1.6033 -2.5071 0.9687
7.3102 1.8658 -2.5078 0.9687
7.1624 2.3839 -2.5092 0.9687
7.0747 2.6387 -2.5099 0.9687
6.6341 3.6225 -2.5125 0.9686
6.5022 3.8579 -2.5132 0.9686
6.2134 4.3140 -2.5144 0.9686
5.8925 4.7485 -2.5155 0.9686
5.7205 4.9568 -2.5161 0.9686
5.5411 5.1589 -2.5166 0.9686
5.3545 5.3545 -2.5171 0.9686
5.1610 5.5433 -2.5176 0.9686
4.9608 5.7250 -2.5181 0.9686
4.7541 5.8995 -2.5185 0.9686
4.3226 6.2257 -2.5194 0.9686
4.0982 6.3770 -2.5197 0.9686
3.8686 6.5201 -2.5201 0.9685
3.3944 6.7812 -2.5207 0.9685
2.6509 7.1075 -2.5215 0.9685
2.3958 7.1981 -2.5218 0.9685
2.1375 7.2796 -2.5219 0.9685
1.6129 7.4144 -2.5222 0.9685
0.5414 7.5694 -2.5225 0.9685
0.0000 7.5834 -2.5208 0.9685
-0.2706 7.5759 -2.5199 0.9686
-1.3448 7.4536 -2.5176 0.9686
-2.6470 7.0968 -2.5178 0.9686
-3.8670 6.5175 -2.5191 0.9686
-4.3206 6.2229 -2.5182 0.9686
-4.5391 6.0636 -2.5178 0.9686
-4.7518 5.8966 -2.5173 0.9686
-5.1582 5.5403 -2.5162 0.9686
-5.8889 4.7456 -2.5140 0.9686
-6.2094 4.3113 -2.5128 0.9686
-6.8672 3.1361 -2.5095 0.9687
-6.9728 2.8882 -2.5088 0.9687
-7.4147 1.3378 -2.5045 0.9687
-7.4556 1.0720 -2.5038 0.9687
-7.4869 0.8049 -2.5030 0.9688
6.9959 0.2499 -2.5034 0.9707
6.9845 0.4996 -2.5041 0.9707
6.9348 0.9971 -2.5054 0.9707
6.8966 1.2443 -2.5061 0.9707
6.8496 1.4900 -2.5068 0.9707
6.6563 2.2154 -2.5087 0.9706
6.5746 2.4522 -2.5093 0.9706
6.3861 2.9164 -2.5106 0.9706
6.2794 3.1433 -2.5112 0.9706
6.1647 3.3662 -2.5118 0.9706
6.0420 3.5849 -2.5124 0.9706
5.9116 3.7991 -2.5129 0.9706
5.6279 4.2130 -2.5140 0.9706
5.1484 4.7934 -2.5156 0.9706
4.9750 4.9750 -2.5160 0.9706
4.7951 5.1503 -2.5165 0.9705
4.6091 5.3191 -2.5169 0.9705
4.4170 5.4812 -2.5173 0.9705
4.2192 5.6362 -2.5177 0.9705
4.0160 5.7841 -2.5181 0.9705
3.5941 6.0575 -2.5188 0.9705
3.3760 6.1827 -2.5191 0.9705
3.1535 6.3000 -2.5194 0.9705
2.6966 6.5102 -2.5199 0.9705
2.2257 6.6871 -2.5203 0.9705
1.4984 6.8880 -2.5208 0.9705
1.2516 6.9373 -2.5209 0.9705
0.5029 7.0318 -2.5211 0.9705
0.2516 7.0453 -2.5211 0.9705
-0.2516 7.0451 -2.5210 0.9705
-0.5029 7.0315 -2.5209 0.9705
-1.0031 6.9771 -2.5207 0.9705
-1.2515 6.9364 -2.5206 0.9705
-1.7429 6.8285 -2.5202 0.9705
-1.9853 6.7614 -2.5200 0.9705
-2.2252 6.6856 -2.5198 0.9705
-2.4621 6.6012 -2.5195 0.9705
-2.9261 6.4072 -2.5189 0.9705
-3.1525 6.2979 -2.5186 0.9705
-3.3748 6.1805 -2.5182 0.9705
-3.5927 6.0552 -2.5179 0.9705
-3.8060 5.9222 -2.5175 0.9705
-4.4150 5.4786 -2.5162 0.9706
-4.6068 5.3166 -2.5157 0.9706
-4.9724 4.9724 -2.5147 0.9706
-5.1457 4.7908 -2.5142 0.9706
-5.6246 4.2106 -2.5126 0.9706
-5.9079 3.7968 -2.5114 0.9706
-6.0382 3.5827 -2.5108 0.9706
-6.3819 2.9145 -2.5089 0.9706
-6.4802 2.6842 -2.5083 0.9706
-6.5701 2.4505 -2.5076 0.9707
-6.6517 2.2139 -2.5070 0.9707
-6.7247 1.9746 -2.5063 0.9707
-6.7890 1.7328 -2.5056 0.9707
-6.8447 1.4890 -2.5050 0.9707
-6.8917 1.2434 -2.5043 0.9707
-6.9298 0.9964 -2.5036 0.9707
-6.9590 0.7482 -2.5029 0.9707
-6.9794 0.4992 -2.5023 0.9707
-6.9909 0.2497 -2.5016 0.9707
6.4707 0.9304 -2.5052 0.9724
6.4350 1.1610 -2.5058 0.9724
6.1340 2.2879 -2.5088 0.9723
5.9579 2.7209 -2.5100 0.9723
5.8583 2.9325 -2.5106 0.9723
5.6366 3.3444 -2.5117 0.9723
5.5148 3.5442 -2.5122 0.9723
5.3859 3.7395 -2.5127 0.9723
5.2501 3.9302 -2.5132 0.9723
5.1075 4.1158 -2.5137 0.9723
4.9582 4.2963 -2.5142 0.9723
4.8026 4.4714 -2.5146 0.9723
4.4729 4.8042 -2.5155 0.9723
4.2993 4.9616 -2.5159 0.9723
4.1201 5.1127 -2.5163 0.9723
3.9356 5.2573 -2.5167 0.9723
3.1489 5.7668 -2.5179 0.9722
2.9414 5.8762 -2.5182 0.9722
1.8521 6.3077 -2.5193 0.9722
1.3975 6.4244 -2.5195 0.9722
1.1674 6.4704 -2.5196 0.9722
0.7029 6.5375 -2.5197 0.9722
0.2347 6.5711 -2.5198 0.9722
-0.2347 6.5709 -2.5197 0.9722
-0.4690 6.5582 -2.5196 0.9722
-0.7028 6.5370 -2.5195 0.9722
-0.9356 6.5075 -2.5194 0.9722
-1.3973 6.4234 -2.5191 0.9722
-1.6256 6.3690 -2.5190 0.9722
-1.8517 6.3064 -2.5188 0.9722
-2.2965 6.1571 -2.5183 0.9722
-2.5145 6.0706 -2.5180 0.9722
-2.7293 5.9763 -2.5178 0.9722
-3.1479 5.7649 -2.5171 0.9723
-3.3512 5.6481 -2.5168 0.9723
-3.5501 5.5241 -2.5164 0.9723
-3.7445 5.3931 -2.5160 0.9723
-4.2974 4.9594 -2.5148 0.9723
-4.6385 4.6385 -2.5139 0.9723
-5.5117 3.5422 -2.5107 0.9723
-5.8547 2.9307 -2.5090 0.9723
-5.9542 2.7192 -2.5084 0.9723
-6.0460 2.5044 -2.5078 0.9724
-6.1301 2.2864 -2.5072 0.9724
-6.3347 1.6168 -2.5054 0.9724
-6.3868 1.3894 -2.5048 0.9724
-6.4307 1.1602 -2.5041 0.9724
-6.4937 0.6982 -2.5029 0.9724
-6.5237 0.2330 -2.5016 0.9724
6.1020 0.4364 -2.5038 0.9739
6.0840 0.6541 -2.5044 0.9739
6.0582 0.8710 -2.5050 0.9739
6.0246 1.0870 -2.5056 0.9739
5.9345 1.5147 -2.5067 0.9739
5.8780 1.7259 -2.5073 0.9739
5.8139 1.9351 -2.5078 0.9739
5.7424 2.1418 -2.5084 0.9739
5.6636 2.3459 -2.5089 0.9739
5.3837 2.9398 -2.5105 0.9738
5.1624 3.3177 -2.5115 0.9738
4.7808 3.8526 -2.5129 0.9738
4.4954 4.1853 -2.5138 0.9738
4.3438 4.3438 -2.5142 0.9738
4.1867 4.4968 -2.5146 0.9738
3.8564 4.7855 -2.5154 0.9738
3.6836 4.9207 -2.5157 0.9738
3.5061 5.0497 -2.5160 0.9738
3.3240 5.1723 -2.5163 0.9738
2.1499 5.7640 -2.5178 0.9738
1.9429 5.8375 -2.5180 0.9738
1.5217 5.9619 -2.5183 0.9738
1.3080 6.0126 -2.5184 0.9738
1.0926 6.0557 -2.5185 0.9738
0.8758 6.0910 -2.5185 0.9738
0.6578 6.1185 -2.5186 0.9738
0.4390 6.1381 -2.5186 0.9738
0.2196 6.1499 -2.5186 0.9738
-0.2196 6.1498 -2.5186 0.9738
-0.4390 6.1379 -2.5185 0.9738
-1.0924 6.0550 -2.5182 0.9738
-1.3078 6.0118 -2.5180 0.9738
-1.7331 5.9024 -2.5177 0.9738
-2.5545 5.5936 -2.5167 0.9738
-2.9463 5.3958 -2.5161 0.9738
-3.3229 5.1705 -2.5155 0.9738
-4.0224 4.6421 -2.5139 0.9738
-4.6389 4.0196 -2.5122 0.9738
-4.9119 3.6770 -2.5112 0.9738
-5.1596 3.3159 -2.5102 0.9738
-5.2736 3.1290 -2.5097 0.9738
-5.5742 2.5457 -2.5080 0.9739
-5.8104 1.9339 -2.5063 0.9739
-5.9308 1.5138 -2.5052 0.9739
-6.0209 1.0863 -2.5040 0.9739
-6.0982 0.4362 -2.5022 0.9739
5.7398 0.2050 -2.5031 0.9753
5.7301 0.4098 -2.5037 0.9752
5.7131 0.6142 -2.5042 0.9752
5.6888 0.8179 -2.5048 0.9752
5.6572 1.0207 -2.5053 0.9752
5.5724 1.4223 -2.5064 0.9752
5.4591 1.8170 -2.5075 0.9752
5.3919 2.0111 -2.5080 0.9752
5.2368 2.3916 -2.5090 0.9752
5.1491 2.5775 -2.5095 0.9752
4.9540 2.9393 -2.5105 0.9752
4.6139 3.4539 -2.5118 0.9752
3.7778 4.3599 -2.5142 0.9751
3.6203 4.4925 -2.5145 0.9751
3.2914 4.7405 -2.5152 0.9751
3.1205 4.8556 -2.5155 0.9751
2.5844 5.1629 -2.5162 0.9751
2.2098 5.3350 -2.5166 0.9751
1.8239 5.4798 -2.5170 0.9751
1.6272 5.5417 -2.5171 0.9751
1.4284 5.5965 -2.5173 0.9751
1.0256 5.6846 -2.5174 0.9751
0.6175 5.7435 -2.5176 0.9751
0.2062 5.7730 -2.5176 0.9751
-0.2062 5.7729 -2.5175 0.9751
-0.6175 5.7432 -2.5174 0.9751
-0.8220 5.7173 -2.5173 0.9751
-1.0255 5.6840 -2.5172 0.9751
-1.4282 5.5957 -2.5169 0.9751
-1.6269 5.5408 -2.5167 0.9751
-1.8235 5.4788 -2.5165 0.9751
-2.0177 5.4097 -2.5163 0.9751
-2.2093 5.3338 -2.5161 0.9751
-2.3980 5.2510 -2.5158 0.9751
-2.5837 5.1615 -2.5155 0.9751
-2.7659 5.0654 -2.5153 0.9751
-2.9446 4.9629 -2.5150 0.9751
-3.1195 4.8540 -2.5146 0.9751
-3.6189 4.4908 -2.5136 0.9751
-3.7764 4.3581 -2.5132 0.9752
-4.2185 3.9276 -2.5120 0.9752
-4.4864 3.6153 -2.5111 0.9752
-4.6117 3.4523 -2.5106 0.9752
-4.7311 3.2849 -2.5101 0.9752
-4.8444 3.1133 -2.5097 0.9752
-5.3148 2.2015 -2.5071 0.9752
-5.6151 1.2215 -2.5044 0.9752
-5.6539 1.0201 -2.5038 0.9752
-5.6854 0.8175 -2.5033 0.9752
-5.7097 0.6139 -2.5027 0.9753
-5.7364 0.2049 -2.5016 0.9753
5.4063 0.0000 -2.5025 0.9765
5.3948 0.3858 -2.5036 0.9764
5.3787 0.5783 -2.5041 0.9764
5.2460 1.3390 -2.5061 0.9764
5.1959 1.5257 -2.5066 0.9764
5.1392 1.7105 -2.5071 0.9764
5.0758 1.8932 -2.5076 0.9764
5.0060 2.0735 -2.5081 0.9764
4.7583 2.5982 -2.5095 0.9764
4.6634 2.7669 -2.5100 0.9764
4.5624 2.9321 -2.5104 0.9764
4.4556 3.0936 -2.5108 0.9764
4.3431 3.2512 -2.5112 0.9764
4.2250 3.4047 -2.5116 0.9764
4.1014 3.5539 -2.5120 0.9764
3.9725 3.6985 -2.5124 0.9764
3.8385 3.8385 -2.5128 0.9764
3.5559 4.1037 -2.5135 0.9764
3.2549 4.3480 -2.5141 0.9763
2.9371 4.5702 -2.5147 0.9763
2.7724 4.6726 -2.5149 0.9763
2.4324 4.8593 -2.5154 0.9763
2.0799 5.0213 -2.5158 0.9763
1.7166 5.1575 -2.5161 0.9763
1.5315 5.2158 -2.5162 0.9763
1.3444 5.2674 -2.5163 0.9763
0.5812 5.4057 -2.5166 0.9763
-0.1940 5.4333 -2.5166 0.9763
-0.7737 5.3810 -2.5164 0.9763
-1.3442 5.2666 -2.5160 0.9763
-1.5312 5.2150 -2.5158 0.9763
-1.7163 5.1566 -2.5156 0.9763
-2.0794 5.0202 -2.5152 0.9763
-2.2571 4.9423 -2.5150 0.9763
-2.4318 4.8581 -2.5147 0.9763
-2.9362 4.5688 -2.5139 0.9763
-3.2538 4.3466 -2.5132 0.9764
-3.4064 4.2271 -2.5129 0.9764
-4.0996 3.5524 -2.5110 0.9764
-4.3411 3.2497 -2.5101 0.9764
-4.4536 3.0922 -2.5097 0.9764
-4.5603 2.9307 -2.5092 0.9764
-4.7559 2.5970 -2.5083 0.9764
-4.9272 2.2502 -2.5073 0.9764
-5.0034 2.0725 -2.5068 0.9764
-5.0731 1.8922 -2.5063 0.9764
-5.1364 1.7096 -2.5058 0.9764
-5.2431 1.3382 -2.5048 0.9764
-5.3918 0.3856 -2.5022 0.9765
5.1016 -0.0000 -2.5025 0.9775
5.0754 0.5457 -2.5039 0.9775
5.0537 0.7266 -2.5044 0.9775
5.0255 0.9067 -2.5049 0.9775
4.9909 1.0857 -2.5054 0.9775
4.9026 1.4395 -2.5064 0.9775
4.8490 1.6139 -2.5068 0.9775
4.4894 2.4514 -2.5091 0.9775
4.3998 2.6105 -2.5095 0.9775
4.3045 2.7664 -2.5099 0.9775
3.8694 3.3529 -2.5115 0.9774
3.7478 3.4893 -2.5118 0.9774
3.2147 3.9892 -2.5131 0.9774
2.7708 4.3114 -2.5139 0.9774
2.4566 4.4989 -2.5144 0.9774
2.1297 4.6635 -2.5148 0.9774
1.9621 4.7369 -2.5150 0.9774
1.6193 4.8654 -2.5153 0.9774
0.1831 5.1256 -2.5158 0.9774
-0.1831 5.1255 -2.5158 0.9774
-0.3659 5.1156 -2.5157 0.9774
-0.5482 5.0991 -2.5156 0.9774
-0.7298 5.0761 -2.5156 0.9774
-0.9105 5.0466 -2.5155 0.9774
-1.2681 4.9683 -2.5152 0.9774
-1.4445 4.9196 -2.5150 0.9774
-1.7915 4.8033 -2.5147 0.9774
-1.9617 4.7359 -2.5145 0.9774
-2.1293 4.6625 -2.5142 0.9774
-2.6147 4.4068 -2.5135 0.9774
-2.7700 4.3102 -2.5132 0.9774
-3.0697 4.1006 -2.5126 0.9774
-3.2136 3.9879 -2.5123 0.9774
-3.3535 3.8701 -2.5119 0.9774
-3.4890 3.7474 -2.5116 0.9774
-3.7463 3.4880 -2.5108 0.9775
-3.9844 3.2108 -2.5100 0.9775
-4.2019 2.9174 -2.5092 0.9775
-4.3026 2.7651 -2.5088 0.9775
-4.3978 2.6093 -2.5083 0.9775
-4.4873 2.4503 -2.5079 0.9775
-4.7209 1.9555 -2.5065 0.9775
-4.7868 1.7854 -2.5061 0.9775
-4.8466 1.6131 -2.5056 0.9775
-4.9883 1.0851 -2.5041 0.9775
-5.0229 0.9062 -2.5036 0.9775
-5.0967 0.1820 -2.5016 0.9775
4.8215 0.1722 -2.5029 0.9785
4.8132 0.3442 -2.5034 0.9785
4.7515 0.8573 -2.5048 0.9785
4.5278 1.6888 -2.5070 0.9785
4.4654 1.8496 -2.5074 0.9785
4.3235 2.1642 -2.5083 0.9784
4.2442 2.3175 -2.5087 0.9784
3.9740 2.7592 -2.5098 0.9784
3.8736 2.8997 -2.5102 0.9784
3.6579 3.1696 -2.5109 0.9784
3.5429 3.2986 -2.5113 0.9784
3.1712 3.6597 -2.5122 0.9784
3.0389 3.7710 -2.5125 0.9784
2.9027 3.8775 -2.5128 0.9784
2.7627 3.9790 -2.5130 0.9784
2.6192 4.0755 -2.5133 0.9784
2.4723 4.1668 -2.5135 0.9784
2.1691 4.3333 -2.5139 0.9784
2.0132 4.4082 -2.5141 0.9784
1.8547 4.4776 -2.5143 0.9784
1.6938 4.5412 -2.5144 0.9784
1.5307 4.5990 -2.5145 0.9784
1.0304 4.7369 -2.5149 0.9784
0.6899 4.7985 -2.5150 0.9784
0.1730 4.8449 -2.5150 0.9784
0.0000 4.8480 -2.5150 0.9784
-0.5182 4.8199 -2.5149 0.9784
-1.3654 4.6503 -2.5143 0.9784
-2.0127 4.4073 -2.5136 0.9784
-2.1686 4.3323 -2.5133 0.9784
-2.7619 3.9779 -2.5123 0.9784
-3.0379 3.7698 -2.5117 0.9784
-3.1701 3.6585 -2.5114 0.9784
-3.2983 3.5426 -2.5110 0.9784
-3.4221 3.4221 -2.5107 0.9784
-3.5416 3.2973 -2.5103 0.9784
-3.6565 3.1684 -2.5100 0.9784
-3.7667 3.0354 -2.5096 0.9784
-3.9724 2.7581 -2.5088 0.9784
-4.0676 2.6141 -2.5084 0.9784
-4.1577 2.4669 -2.5080 0.9785
-4.2423 2.3165 -2.5076 0.9785
-4.3953 2.0073 -2.5067 0.9785
-4.4633 1.8488 -2.5063 0.9785
-4.5822 1.5251 -2.5054 0.9785
-4.6329 1.3603 -2.5049 0.9785
-4.7963 0.5157 -2.5026 0.9785
-4.8108 0.3441 -2.5021 0.9785
4.5451 0.4887 -2.5037 0.9794
4.5003 0.8119 -2.5046 0.9794
4.3419 1.4451 -2.5063 0.9793
4.2882 1.5994 -2.5067 0.9793
3.9392 2.3372 -2.5087 0.9793
3.7635 2.6131 -2.5094 0.9793
3.6684 2.7461 -2.5098 0.9793
3.5685 2.8757 -2.5101 0.9793
3.4640 3.0016 -2.5104 0.9793
3.2419 3.2419 -2.5111 0.9793
3.1245 3.3559 -2.5114 0.9793
2.8777 3.5711 -2.5119 0.9793
2.3411 3.9458 -2.5129 0.9793
1.4495 4.3550 -2.5139 0.9793
1.2932 4.4041 -2.5140 0.9793
1.1352 4.4477 -2.5141 0.9793
0.9758 4.4855 -2.5142 0.9793
0.8151 4.5176 -2.5142 0.9793
0.6533 4.5439 -2.5143 0.9793
0.3275 4.5790 -2.5143 0.9793
0.1639 4.5878 -2.5143 0.9793
-0.3275 4.5788 -2.5143 0.9793
-0.4907 4.5641 -2.5142 0.9793
-0.6533 4.5436 -2.5141 0.9793
-0.8150 4.5172 -2.5140 0.9793
-1.1351 4.4471 -2.5138 0.9793
-1.4493 4.3543 -2.5135 0.9793
-1.9060 4.1735 -2.5129 0.9793
-2.0536 4.1025 -2.5127 0.9793
-2.6155 3.7670 -2.5117 0.9793
-3.1235 3.3548 -2.5105 0.9793
-3.4628 3.0005 -2.5095 0.9793
-3.7620 2.6120 -2.5084 0.9793
-4.0929 2.0488 -2.5069 0.9793
-4.1627 1.9011 -2.5064 0.9793
-4.2272 1.7510 -2.5060 0.9793
-4.2863 1.5987 -2.5056 0.9794
-4.3879 1.2884 -2.5047 0.9794
-4.4304 1.1308 -2.5043 0.9794
-4.5430 0.4884 -2.5025 0.9794
-4.5567 0.3259 -2.5021 0.9794
-4.5646 0.1630 -2.5017 0.9794
4.3322 0.1547 -2.5028 0.9802
4.3246 0.3093 -2.5032 0.9802
4.2689 0.7702 -2.5045 0.9802
4.2394 0.9222 -2.5049 0.9802
4.2045 1.0731 -2.5053 0.9802
4.1642 1.2227 -2.5057 0.9802
4.0115 1.6616 -2.5069 0.9801
3.9502 1.8040 -2.5072 0.9801
3.5697 2.4785 -2.5090 0.9801
3.4794 2.6047 -2.5094 0.9801
3.3847 2.7275 -2.5097 0.9801
3.2856 2.8470 -2.5100 0.9801
3.0748 3.0748 -2.5106 0.9801
2.9635 3.1830 -2.5109 0.9801
2.8483 3.2871 -2.5111 0.9801
2.7294 3.3870 -2.5114 0.9801
2.6070 3.4826 -2.5116 0.9801
1.9481 3.8917 -2.5127 0.9801
1.3747 4.1303 -2.5132 0.9801
1.2265 4.1769 -2.5134 0.9801
1.0766 4.2182 -2.5135 0.9801
0.7730 4.2845 -2.5136 0.9801
0.6196 4.3094 -2.5136 0.9801
0.4654 4.3289 -2.5137 0.9801
0.1554 4.3511 -2.5137 0.9801
-0.3106 4.3426 -2.5136 0.9801
-0.4654 4.3287 -2.5136 0.9801
-0.6196 4.3092 -2.5135 0.9801
-1.0765 4.2177 -2.5132 0.9801
-1.2263 4.1764 -2.5130 0.9801
-1.3745 4.1297 -2.5129 0.9801
-1.5209 4.0778 -2.5127 0.9801
-1.6654 4.0206 -2.5126 0.9801
-1.9477 3.8910 -2.5122 0.9801
-2.2199 3.7414 -2.5117 0.9801
-2.4807 3.5728 -2.5112 0.9801
-3.0739 3.0739 -2.5098 0.9801
-3.2845 2.8460 -2.5091 0.9801
-3.4782 2.6037 -2.5085 0.9801
-3.8111 2.0810 -2.5070 0.9801
-3.8823 1.9434 -2.5066 0.9801
-4.1168 1.3702 -2.5050 0.9802
-4.2026 1.0727 -2.5042 0.9802
-4.2375 0.9218 -2.5038 0.9802
-4.2911 0.6170 -2.5029 0.9802
-4.3227 0.3092 -2.5021 0.9802
