ply
format ascii 1.0
element vertex 1253
property float32 x
property float32 y
property float32 z
property float32 I
end_header
-44.4995 -11.3578 8.0980 0.8298
-39.3908 -14.6920 7.4131 0.8430
-32.8113 -17.9163 6.5918 0.8591
-31.4680 -18.6708 6.4518 0.8619
-15.0215 -9.6537 3.1485 0.9300
-27.7393 -20.7654 6.1099 0.8687
-26.2318 -26.2317 6.5413 0.8601
-26.1215 -28.0564 6.7593 0.8558
-29.4595 -33.9981 7.9322 0.8330
2.0897 -19.4367 3.4470 0.9237
8.1213 -45.0137 8.0653 0.8305
9.3258 -42.8698 7.7359 0.8368
10.8071 -42.3420 7.7054 0.8374
12.8473 -43.7536 8.0407 0.8309
14.9912 -45.0415 8.3704 0.8246
24.5151 -4.4230 4.3925 0.9038
44.2400 -6.3607 7.8809 0.8340
36.0114 -2.5756 6.3660 0.8636
-44.4985 -11.3575 7.0355 0.8304
-42.5012 -12.4795 6.7858 0.8359
-40.6385 -13.5258 6.5614 0.8409
-38.8930 -14.5063 6.3591 0.8454
-37.2497 -15.4294 6.1766 0.8495
-35.6963 -16.3020 6.0117 0.8532
-31.6004 -18.7494 5.6290 0.8618
-15.0235 -9.6550 2.7358 0.9303
-29.0598 -20.1766 5.4196 0.8666
-27.3731 -22.0587 5.3856 0.8674
-26.9506 -25.0919 5.6411 0.8616
-26.1216 -28.0566 5.8726 0.8563
6.8081 -47.3511 7.3285 0.8240
8.1213 -45.0136 7.0072 0.8310
9.3257 -42.8698 6.7210 0.8373
10.8069 -42.3411 6.6944 0.8379
12.8472 -43.7536 6.9858 0.8315
14.9912 -45.0414 7.2722 0.8252
44.1869 -6.3531 6.8388 0.8347
39.7979 -4.2787 6.1319 0.8505
35.0605 -1.2522 5.3745 0.8676
-44.4974 -11.3573 5.9803 0.8309
-40.6377 -13.5255 5.5773 0.8413
-39.0560 -14.5672 5.4282 0.8452
-37.2490 -15.4291 5.2503 0.8499
-34.2212 -17.1299 4.9834 0.8570
-33.8875 -18.5040 5.0279 0.8558
-36.3212 -21.5504 5.4996 0.8434
-15.0255 -9.6563 2.3258 0.9305
-27.7437 -20.7687 4.5130 0.8695
-31.1005 -26.9488 5.3588 0.8470
-26.2310 -26.2310 4.8307 0.8610
-27.5630 -29.6047 5.2674 0.8495
2.0857 -19.4003 2.5409 0.9243
6.8080 -47.3510 6.2295 0.8245
9.3257 -42.8697 5.7131 0.8378
14.9912 -45.0414 6.1817 0.8257
17.2222 -46.1744 6.4175 0.8197
45.7131 -17.0501 6.3534 0.8214
47.3724 -8.5469 6.2685 0.8235
44.4925 -6.3971 5.8534 0.8342
37.9371 -2.7133 4.9528 0.8578
-46.9911 -8.4781 5.1275 0.8252
-43.9898 -12.9166 4.9231 0.8316
-40.6368 -13.5252 4.5990 0.8417
-45.0540 -16.8043 5.1635 0.8241
-41.3556 -18.8865 4.8820 0.8328
-34.2206 -17.1296 4.1093 0.8573
-33.8876 -18.5040 4.1461 0.8561
-36.3342 -21.5581 4.5367 0.8437
-33.4151 -23.2006 4.3683 0.8490
-27.7432 -20.7683 3.7214 0.8699
-27.3728 -22.0584 3.7750 0.8681
-33.4815 -31.1724 4.9123 0.8319
-29.4600 -33.9986 4.8307 0.8345
14.9912 -45.0413 5.0975 0.8262
17.2221 -46.1743 5.2919 0.8202
36.9526 -13.7826 4.2351 0.8533
48.7680 -8.7987 5.3213 0.8193
44.4941 -6.3973 4.8270 0.8346
40.0761 -4.3086 4.3283 0.8503
35.1607 -1.2558 3.7780 0.8680
-46.6474 -10.1476 4.0412 0.8256
-40.6359 -13.5249 3.6255 0.8420
-45.0722 -16.8111 4.0722 0.8244
-41.3713 -18.8937 3.8501 0.8331
-34.2199 -17.1293 3.2395 0.8576
-33.8876 -18.5040 3.2685 0.8564
-36.3470 -21.5657 3.5777 0.8440
-15.0359 -9.6630 1.5130 0.9308
-33.4265 -23.2085 3.4448 0.8493
-31.3344 -27.1514 3.5098 0.8467
-33.5171 -31.2055 3.8766 0.8321
-26.2302 -26.2302 3.1402 0.8616
10.8062 -42.3383 3.6990 0.8391
17.2221 -46.1743 4.1719 0.8205
48.9899 -8.8387 4.2141 0.8189
39.4890 -2.8243 3.3514 0.8531
-46.6997 -8.4256 2.9426 0.8268
-46.6463 -10.1473 2.9602 0.8259
-44.4944 -11.3565 2.8476 0.8319
-43.9900 -12.9167 2.8430 0.8322
-44.9235 -16.7556 2.9732 0.8252
-34.2193 -17.1289 2.3729 0.8578
-33.8877 -18.5041 2.3942 0.8566
-33.3974 -23.1882 2.5212 0.8496
-27.3724 -22.0581 2.1799 0.8686
-33.4568 -31.1494 2.8347 0.8326
-27.5616 -29.6033 2.5082 0.8504
-6.2276 -24.3994 1.5615 0.9040
2.0800 -19.3468 1.2066 0.9250
6.8080 -47.3508 2.9664 0.8255
9.3257 -42.8694 2.7205 0.8388
10.8060 -42.3374 2.7095 0.8394
12.7912 -43.5629 2.8154 0.8336
36.9482 -13.7809 2.4454 0.8538
40.2713 -5.7901 2.5229 0.8495
40.0793 -4.3090 2.4997 0.8508
39.9797 -2.8594 2.4855 0.8516
35.0534 -1.2519 2.1751 0.8689
-45.2923 -8.1716 1.8148 0.8317
-44.4934 -11.3562 1.8107 0.8321
-44.9245 -16.7560 1.8906 0.8254
-37.2460 -15.4278 1.5897 0.8510
-34.2186 -17.1286 1.5089 0.8580
-33.8878 -18.5041 1.5224 0.8568
-36.3549 -21.5704 1.6669 0.8443
-15.0561 -9.6760 0.7057 0.9309
-33.4321 -23.2124 1.6049 0.8497
-27.7418 -20.7672 1.3664 0.8705
-27.3723 -22.0580 1.3862 0.8687
-31.1799 -27.0176 1.6268 0.8478
-6.2332 -24.4214 0.9938 0.9040
2.9348 -41.0335 1.6221 0.8482
2.0781 -19.3292 0.7666 0.9251
4.0803 -28.3788 1.1305 0.8916
12.8908 -43.9018 1.8042 0.8326
15.0078 -45.0913 1.8739 0.8268
17.2982 -46.3781 1.9518 0.8202
11.5201 -23.0141 1.0148 0.9021
40.2722 -5.7903 1.6043 0.8497
35.1605 -1.2558 1.3873 0.8686
-44.4924 -11.3560 0.7757 0.8322
-40.6334 -13.5241 0.7234 0.8425
-44.8761 -16.7379 0.8091 0.8256
-37.2453 -15.4275 0.6810 0.8511
-36.3158 -21.5472 0.7133 0.8446
-27.7413 -20.7669 0.5854 0.8705
-27.3721 -22.0579 0.5938 0.8688
-31.0935 -26.9427 0.6950 0.8482
-25.6189 -23.8520 0.5913 0.8693
-26.2291 -26.2291 0.6266 0.8621
-27.5607 -29.6023 0.6832 0.8506
-29.4607 -33.9995 0.7599 0.8353
-23.7216 -36.9115 0.7412 0.8390
-7.4732 -34.3540 0.5939 0.8688
2.0762 -19.3116 0.3281 0.9252
17.2977 -46.3770 0.8361 0.8204
11.8832 -23.7397 0.4484 0.8992
40.0825 -4.3093 0.6810 0.8511
-40.6325 -13.5238 -0.2411 0.8426
-41.2713 -18.8480 -0.2554 0.8340
-36.3536 -21.5696 -0.2380 0.8444
-15.0763 -9.6890 -0.1009 0.9308
-33.4309 -23.2115 -0.2291 0.8498
-27.7408 -20.7665 -0.1951 0.8706
-27.3719 -22.0577 -0.1979 0.8688
-29.4609 -33.9996 -0.2533 0.8353
-23.7211 -36.9108 -0.2471 0.8390
-7.4732 -34.3539 -0.1979 0.8688
2.0743 -19.2940 -0.1093 0.9253
6.8882 -47.9086 -0.2725 0.8240
8.2170 -45.5436 -0.2606 0.8310
10.8053 -42.3346 -0.2460 0.8397
10.9245 -23.9213 -0.1481 0.9002
36.9385 -13.7773 -0.2220 0.8541
44.2862 -6.3674 -0.2519 0.8361
40.0840 -4.3095 -0.2270 0.8511
35.1604 -1.2558 -0.1981 0.8687
-44.4904 -11.3555 -1.2929 0.8322
-43.9903 -12.9168 -1.2910 0.8324
-44.9659 -16.7714 -1.3514 0.8253
-33.8880 -18.5042 -1.0872 0.8568
-36.3529 -21.5692 -1.1902 0.8444
-15.0865 -9.6955 -0.5050 0.9308
-15.0082 -10.4204 -0.5145 0.9295
-27.7404 -20.7662 -0.9757 0.8705
-25.5112 -23.7518 -0.9815 0.8698
-26.2283 -26.2283 -1.0444 0.8621
-29.4611 -33.9999 -1.2668 0.8352
2.0724 -19.2765 -0.5459 0.9254
6.8882 -47.9086 -1.3629 0.8239
8.2169 -45.5435 -1.3031 0.8309
10.8050 -42.3337 -1.2302 0.8396
12.8899 -43.8989 -1.2883 0.8327
17.2939 -46.3666 -1.3934 0.8203
36.9346 -13.7759 -1.1100 0.8541
40.0856 -4.3097 -1.1353 0.8510
-46.8901 -1.6747 -2.3795 0.8287
-46.9324 -3.3567 -2.3862 0.8282
-46.9121 -5.0436 -2.3928 0.8278
-32.1251 -4.6189 -1.6460 0.8781
-46.6815 -8.4222 -2.4056 0.8270
-46.4695 -10.1088 -2.4118 0.8266
-44.4894 -11.3552 -2.3286 0.8320
-37.2431 -15.4266 -2.0444 0.8509
-15.6955 -7.8566 -0.8901 0.9321
-40.7849 -24.1988 -2.4051 0.8270
-15.0966 -9.7020 -0.9101 0.9306
-14.9821 -10.4023 -0.9250 0.9296
-27.3716 -22.0574 -1.7827 0.8687
-28.9677 -25.1007 -1.9439 0.8577
-25.2106 -23.4720 -1.7469 0.8711
-27.5594 -29.6009 -2.0511 0.8505
-30.7886 -38.2063 -2.4884 0.8216
-29.4211 -39.3020 -2.4898 0.8215
-28.0115 -40.3443 -2.4908 0.8214
-23.6700 -36.8312 -2.2203 0.8392
-25.0746 -42.2610 -2.4921 0.8213
-23.5517 -43.1318 -2.4922 0.8213
-21.9962 -43.9429 -2.4921 0.8213
-13.5815 -29.7393 -1.6580 0.8773
-6.5664 -30.1853 -1.5666 0.8836
-2.7628 -38.6290 -1.9640 0.8563
-1.1522 -32.2604 -1.6371 0.8787
1.7310 -48.4676 -2.4596 0.8235
6.8637 -47.7383 -2.4459 0.8243
8.2031 -45.4666 -2.3430 0.8311
15.0633 -45.2580 -2.4190 0.8261
16.6285 -44.5825 -2.4131 0.8265
21.1344 -42.2212 -2.3945 0.8277
17.8594 -32.7071 -1.8899 0.8614
26.6299 -38.3543 -2.3680 0.8294
27.9475 -37.3335 -2.3651 0.8296
35.0200 -35.0200 -2.5117 0.8201
37.4254 -32.4293 -2.5114 0.8201
39.6058 -29.6485 -2.5090 0.8202
41.5800 -26.7218 -2.5066 0.8204
43.3381 -23.6644 -2.5042 0.8206
44.8720 -20.4923 -2.5017 0.8207
36.8500 -13.7443 -1.9946 0.8543
43.8939 -14.6093 -2.3461 0.8309
44.3659 -13.0270 -2.3450 0.8309
44.7811 -11.4297 -2.3438 0.8310
45.4392 -8.1981 -2.3416 0.8312
44.1833 -6.3526 -2.2638 0.8363
-32.1752 -0.0000 -2.3592 0.8789
-32.1645 -1.1488 -2.3599 0.8789
-32.0196 -3.4425 -2.3613 0.8788
-22.7354 -4.1019 -1.6939 0.9115
-30.7892 -10.2476 -2.3793 0.8780
-30.4501 -11.3573 -2.3829 0.8778
-16.4154 -7.4967 -1.3232 0.9302
-15.7375 -7.8776 -1.2904 0.9318
-28.6813 -15.6612 -2.3961 0.8772
-28.1381 -16.6951 -2.3990 0.8770
-14.9560 -10.3841 -1.3350 0.9296
-26.2763 -19.6702 -2.4067 0.8767
-24.8504 -21.5330 -2.4110 0.8764
-23.2849 -23.2849 -2.4145 0.8763
-22.4529 -24.1161 -2.4160 0.8762
-20.6957 -25.6818 -2.4184 0.8761
-18.8238 -27.1115 -2.4200 0.8760
-16.8474 -28.3948 -2.4209 0.8760
-14.7794 -29.5256 -2.4209 0.8760
-12.6315 -30.4951 -2.4202 0.8760
-7.6584 -30.0055 -2.2706 0.8832
-5.5487 -30.7546 -2.2914 0.8822
-4.5445 -31.6075 -2.3414 0.8798
-3.5130 -32.6759 -2.4097 0.8765
-2.3424 -32.7506 -2.4075 0.8766
-1.1522 -32.2599 -2.3669 0.8786
2.3323 -32.6090 -2.3971 0.8771
2.0687 -19.2415 -1.4190 0.9253
10.2209 -30.7089 -2.3731 0.8783
12.3439 -29.8008 -2.3651 0.8786
14.4297 -28.8269 -2.3637 0.8787
16.4405 -27.7090 -2.3624 0.8788
20.3046 -27.1238 -2.4843 0.8729
21.5008 -26.6808 -2.5125 0.8716
22.4325 -25.8885 -2.5117 0.8716
25.0476 -23.3201 -2.5093 0.8717
25.8556 -22.4040 -2.5085 0.8718
26.6301 -21.4599 -2.5077 0.8718
28.7427 -18.4718 -2.5052 0.8719
29.3739 -17.4283 -2.5043 0.8720
29.9671 -16.3633 -2.5035 0.8720
30.5217 -15.2781 -2.5026 0.8721
31.6082 -11.7892 -2.4735 0.8735
30.3743 -10.1095 -2.3472 0.8795
30.7055 -9.0159 -2.3464 0.8795
24.1185 -5.2467 -1.8098 0.9057
31.4621 -5.6764 -2.3441 0.8797
23.9737 -3.4469 -1.7759 0.9074
31.8580 -2.2785 -2.3419 0.8798
-26.1402 0.0000 -2.5096 0.9003
-26.1296 -0.9332 -2.5102 0.9003
-25.4981 -1.8237 -2.4542 0.9024
-24.4261 -2.6261 -2.3585 0.9060
-23.8707 -3.4321 -2.3153 0.9076
-24.0209 -5.2254 -2.3601 0.9059
-23.8239 -6.0807 -2.3605 0.9059
-23.5964 -6.9285 -2.3610 0.9059
-23.3385 -7.7678 -2.3615 0.9059
-23.0507 -8.5975 -2.3619 0.9059
-22.7332 -9.4164 -2.3623 0.9059
-16.4151 -7.4965 -1.7325 0.9301
-15.7372 -7.8775 -1.6896 0.9317
-21.6320 -11.8120 -2.3662 0.9057
-19.7968 -14.8197 -2.3741 0.9054
-15.8500 -13.7341 -2.0135 0.9192
-17.5291 -17.5291 -2.3800 0.9052
-16.2482 -18.7515 -2.3820 0.9051
-14.8787 -19.8756 -2.3836 0.9050
-6.3542 -13.9139 -1.4685 0.9404
-9.5041 -22.9449 -2.3843 0.9050
-7.8394 -23.5536 -2.3832 0.9051
-6.9915 -23.8110 -2.3825 0.9051
-4.4039 -20.2444 -1.9890 0.9201
-4.4005 -24.3902 -2.3794 0.9052
-3.5252 -24.5180 -2.3781 0.9053
-2.6462 -24.6131 -2.3766 0.9053
-0.8823 -24.7045 -2.3733 0.9054
2.0668 -19.2240 -1.8562 0.9252
3.4539 -19.1437 -1.8676 0.9248
5.2327 -24.0545 -2.3634 0.9058
6.9332 -23.6121 -2.3626 0.9058
9.4123 -22.7233 -2.3613 0.9059
10.2154 -22.3686 -2.3608 0.9059
12.3768 -22.6664 -2.4794 0.9014
16.4046 -20.3569 -2.5100 0.9003
17.8066 -19.1257 -2.5088 0.9003
21.4332 -14.8814 -2.5050 0.9005
22.4287 -13.3076 -2.5038 0.9005
22.8835 -12.4954 -2.5031 0.9005
23.7044 -10.8254 -2.5018 0.9006
24.6778 -8.2136 -2.4970 0.9008
23.4586 -6.8881 -2.3472 0.9064
22.9772 -4.9984 -2.2575 0.9098
23.4111 -4.2238 -2.2839 0.9088
24.2785 -2.6102 -2.3443 0.9065
24.3503 -1.7416 -2.3437 0.9066
24.3911 -0.8711 -2.3432 0.9066
-21.1146 -0.0000 -2.5081 0.9185
-21.1051 -0.7538 -2.5086 0.9184
-21.0052 -2.2583 -2.5095 0.9184
-20.5940 -4.4800 -2.5035 0.9186
-19.6788 -5.0227 -2.4125 0.9214
-18.8446 -6.2721 -2.3592 0.9231
-18.6115 -6.9417 -2.3596 0.9231
-18.3545 -7.6027 -2.3599 0.9231
-16.4148 -7.4964 -2.1436 0.9299
-15.7369 -7.8773 -2.0904 0.9316
-17.4436 -9.5249 -2.3608 0.9231
-15.4837 -12.4776 -2.3621 0.9230
-14.5566 -13.5527 -2.3625 0.9230
-13.0272 -15.0342 -2.3630 0.9230
-10.1528 -17.1117 -2.3635 0.9230
-9.5358 -17.4635 -2.3635 0.9230
-8.9065 -17.7929 -2.3635 0.9230
-7.6144 -18.3829 -2.3635 0.9230
-6.9534 -18.6427 -2.3635 0.9230
-5.6054 -19.0903 -2.3634 0.9230
-3.5322 -19.5777 -2.3631 0.9230
-2.8310 -19.6902 -2.3630 0.9230
-0.7099 -19.8757 -2.3625 0.9230
0.0000 -19.8867 -2.3623 0.9230
1.3252 -18.5289 -2.2066 0.9279
1.9700 -18.3240 -2.1892 0.9285
2.6755 -18.6084 -2.2331 0.9271
3.4328 -19.0265 -2.2966 0.9251
4.2245 -19.4197 -2.3607 0.9231
8.0923 -19.5366 -2.5119 0.9183
8.7831 -19.2323 -2.5115 0.9184
9.4624 -18.9035 -2.5111 0.9184
10.1294 -18.5506 -2.5107 0.9184
10.7832 -18.1742 -2.5102 0.9184
11.4230 -17.7746 -2.5098 0.9184
13.8262 -15.9563 -2.5079 0.9185
14.3841 -15.4496 -2.5075 0.9185
14.9235 -14.9235 -2.5070 0.9185
16.8818 -12.6376 -2.5050 0.9186
17.7331 -11.3964 -2.5039 0.9186
18.1248 -10.7539 -2.5034 0.9186
18.4932 -10.0981 -2.5029 0.9186
19.9715 -6.6472 -2.5003 0.9187
19.3045 -4.1994 -2.3467 0.9235
19.5471 -2.8104 -2.3458 0.9235
19.6310 -2.1106 -2.3453 0.9235
19.6900 -1.4083 -2.3449 0.9236
-17.6945 -0.0000 -2.5071 0.9310
-17.6860 -0.6317 -2.5075 0.9310
-17.6549 -1.2627 -2.5079 0.9310
-17.6013 -1.8923 -2.5083 0.9310
-17.5251 -2.5197 -2.5087 0.9310
-17.4265 -3.1441 -2.5090 0.9310
-17.1626 -4.3805 -2.5097 0.9309
-16.9976 -4.9910 -2.5101 0.9309
-16.6011 -6.1919 -2.5105 0.9309
-15.7260 -7.1818 -2.4496 0.9325
-14.3202 -8.4965 -2.3593 0.9349
-13.6801 -9.4983 -2.3597 0.9349
-13.3335 -9.9814 -2.3599 0.9349
-12.9698 -10.4517 -2.3601 0.9349
-11.7807 -11.7807 -2.3606 0.9349
-11.3534 -12.1944 -2.3607 0.9349
-10.4555 -12.9745 -2.3610 0.9349
-9.5040 -13.6883 -2.3611 0.9349
-9.0096 -14.0192 -2.3612 0.9349
-8.5037 -14.3322 -2.3613 0.9349
-7.9868 -14.6267 -2.3613 0.9349
-7.4597 -14.9026 -2.3613 0.9349
-5.8239 -15.6144 -2.3613 0.9349
-5.2628 -15.8121 -2.3612 0.9349
-4.6949 -15.9895 -2.3612 0.9349
-4.1211 -16.1464 -2.3611 0.9349
-3.5421 -16.2826 -2.3610 0.9349
-2.9585 -16.3980 -2.3609 0.9349
-2.3712 -16.4923 -2.3608 0.9349
-1.7810 -16.5656 -2.3607 0.9349
-0.5946 -16.6484 -2.3604 0.9349
1.1882 -16.6127 -2.3599 0.9349
3.1398 -17.4027 -2.5056 0.9311
3.7681 -17.3217 -2.5117 0.9309
4.3836 -17.1746 -2.5115 0.9309
4.9932 -17.0053 -2.5112 0.9309
5.5963 -16.8143 -2.5109 0.9309
7.3588 -16.1135 -2.5099 0.9309
7.9282 -15.8385 -2.5096 0.9309
9.5717 -14.8939 -2.5085 0.9310
10.0957 -14.5406 -2.5081 0.9310
10.6066 -14.1688 -2.5078 0.9310
11.1039 -13.7790 -2.5074 0.9310
11.5868 -13.3718 -2.5070 0.9310
12.0547 -12.9477 -2.5066 0.9310
12.5071 -12.5071 -2.5062 0.9310
12.9434 -12.0507 -2.5057 0.9310
13.3630 -11.5791 -2.5053 0.9311
13.7655 -11.0929 -2.5049 0.9311
14.1502 -10.5927 -2.5045 0.9311
15.7924 -7.9051 -2.5023 0.9311
16.3105 -6.7560 -2.5014 0.9312
16.5383 -6.1685 -2.5010 0.9312
16.9304 -4.9712 -2.5001 0.9312
17.0941 -4.3630 -2.4997 0.9312
16.3000 -2.9408 -2.3468 0.9353
16.4628 -1.7699 -2.3460 0.9353
16.5417 -0.5908 -2.3453 0.9353
-15.2143 0.0000 -2.5064 0.9402
-15.2067 -0.5431 -2.5067 0.9402
-15.1796 -1.0857 -2.5071 0.9402
-14.9823 -2.7031 -2.5080 0.9401
-14.8781 -3.2365 -2.5083 0.9401
-14.6127 -4.2907 -2.5089 0.9401
-14.2725 -5.3234 -2.5095 0.9401
-14.0749 -5.8300 -2.5097 0.9401
-13.6258 -6.8206 -2.5102 0.9401
-13.3749 -7.3032 -2.5105 0.9401
-13.1069 -7.7767 -2.5107 0.9401
-12.5017 -8.6801 -2.5073 0.9402
-11.6678 -9.4025 -2.4686 0.9411
-11.1726 -9.6811 -2.4354 0.9418
-10.2168 -10.2167 -2.3803 0.9431
-9.7584 -10.4813 -2.3592 0.9436
-7.7437 -12.0494 -2.3596 0.9436
-7.3088 -12.3184 -2.3596 0.9436
-6.8646 -12.5716 -2.3597 0.9436
-5.9503 -13.0294 -2.3597 0.9436
-5.0056 -13.4205 -2.3597 0.9436
-4.5233 -13.5904 -2.3596 0.9436
-4.0353 -13.7429 -2.3596 0.9436
-3.5430 -13.8815 -2.3601 0.9436
-3.0729 -14.1257 -2.3815 0.9431
-2.1047 -14.6385 -2.4363 0.9418
-1.6024 -14.9041 -2.4694 0.9410
-0.5434 -15.2135 -2.5079 0.9402
3.2392 -14.8902 -2.5104 0.9401
4.2924 -14.6184 -2.5099 0.9401
4.8109 -14.4544 -2.5096 0.9401
5.8285 -14.0713 -2.5091 0.9401
6.3264 -13.8528 -2.5088 0.9401
7.2967 -13.3630 -2.5082 0.9401
8.2294 -12.8052 -2.5076 0.9402
8.6801 -12.5017 -2.5073 0.9402
9.9628 -11.4976 -2.5063 0.9402
10.7546 -10.7546 -2.5056 0.9402
11.1300 -10.3624 -2.5052 0.9402
11.4911 -9.9571 -2.5049 0.9402
12.1686 -9.1093 -2.5041 0.9402
12.4842 -8.6679 -2.5037 0.9402
12.7837 -8.2156 -2.5034 0.9403
13.3332 -7.2805 -2.5026 0.9403
14.2251 -5.3057 -2.5011 0.9403
14.4032 -4.7938 -2.5007 0.9403
14.7041 -3.7530 -2.5000 0.9403
14.8266 -3.2253 -2.4996 0.9403
14.9099 -2.6900 -2.4959 0.9404
14.3436 -2.0623 -2.3873 0.9429
-13.3317 0.0000 -2.5058 0.9472
-13.3248 -0.4759 -2.5061 0.9472
-13.1274 -2.3684 -2.5073 0.9472
-12.9277 -3.2996 -2.5078 0.9471
-12.6619 -4.2143 -2.5083 0.9471
-12.5046 -4.6640 -2.5085 0.9471
-12.1422 -5.5451 -2.5090 0.9471
-10.3989 -8.3800 -2.5103 0.9471
-8.7479 -10.0956 -2.5109 0.9471
-8.0059 -10.6946 -2.5110 0.9471
-7.6193 -10.9738 -2.5111 0.9471
-7.2229 -11.2390 -2.5111 0.9471
-5.5501 -12.1530 -2.5112 0.9471
-5.1128 -12.3433 -2.5112 0.9471
-4.2191 -12.6763 -2.5112 0.9471
-3.7639 -12.8186 -2.5111 0.9471
-2.8397 -13.0538 -2.5110 0.9471
-2.3719 -13.1464 -2.5109 0.9471
-1.4279 -13.2811 -2.5107 0.9471
-0.9529 -13.3230 -2.5106 0.9471
-0.0000 -13.3557 -2.5104 0.9471
0.4767 -13.3464 -2.5102 0.9471
0.9527 -13.3201 -2.5100 0.9471
1.4274 -13.2767 -2.5099 0.9471
3.7606 -12.8073 -2.5089 0.9471
5.9719 -11.9304 -2.5077 0.9471
6.8064 -11.4716 -2.5072 0.9472
7.6057 -10.9543 -2.5066 0.9472
7.9909 -10.6746 -2.5063 0.9472
8.3659 -10.3814 -2.5060 0.9472
8.7300 -10.0750 -2.5057 0.9472
9.0830 -9.7558 -2.5054 0.9472
10.6641 -7.9831 -2.5038 0.9472
11.2035 -7.2001 -2.5032 0.9472
11.6856 -6.3808 -2.5025 0.9473
11.9043 -5.9589 -2.5022 0.9473
10.5622 -4.3750 -2.1489 0.9545
12.6245 -4.2018 -2.5009 0.9473
12.7648 -3.7481 -2.5006 0.9473
12.9963 -2.8272 -2.4999 0.9473
13.0872 -2.3612 -2.4996 0.9473
13.1420 -1.4129 -2.4844 0.9476
12.4530 -0.8907 -2.3467 0.9505
12.4754 -0.4456 -2.3464 0.9505
-11.8463 -0.4231 -2.5057 0.9527
-11.8249 -0.8457 -2.5059 0.9527
-11.4924 -2.9333 -2.5071 0.9527
-11.3814 -3.3419 -2.5074 0.9527
-11.2559 -3.7463 -2.5076 0.9527
-11.1159 -4.1460 -2.5078 0.9527
-10.9618 -4.5405 -2.5080 0.9526
-10.6115 -5.3118 -2.5084 0.9526
-9.5029 -7.1138 -2.5092 0.9526
-9.2434 -7.4488 -2.5093 0.9526
-8.6893 -8.0900 -2.5096 0.9526
-8.3954 -8.3953 -2.5097 0.9526
-8.0907 -8.6900 -2.5098 0.9526
-7.1161 -9.5059 -2.5100 0.9526
-6.7724 -9.7541 -2.5101 0.9526
-4.5444 -10.9712 -2.5102 0.9526
-4.1499 -11.1264 -2.5102 0.9526
-3.3455 -11.3938 -2.5101 0.9526
-2.9367 -11.5057 -2.5100 0.9526
-2.5241 -11.6029 -2.5100 0.9526
-1.6898 -11.7527 -2.5098 0.9526
-1.2692 -11.8051 -2.5097 0.9526
0.0000 -11.8716 -2.5094 0.9526
0.8468 -11.8401 -2.5091 0.9526
1.2688 -11.8016 -2.5090 0.9526
1.6891 -11.7481 -2.5088 0.9526
2.5226 -11.5961 -2.5085 0.9526
2.9346 -11.4978 -2.5083 0.9526
3.3429 -11.3849 -2.5081 0.9526
4.9275 -10.7897 -2.5073 0.9527
6.4104 -9.9748 -2.5063 0.9527
6.7617 -9.7387 -2.5061 0.9527
7.7615 -8.9573 -2.5053 0.9527
8.0754 -8.6736 -2.5050 0.9527
8.6717 -8.0736 -2.5045 0.9527
9.2235 -7.4328 -2.5039 0.9527
9.7280 -6.7543 -2.5034 0.9527
10.1827 -6.0417 -2.5028 0.9527
10.5203 -4.3576 -2.4070 0.9545
11.0871 -4.1353 -2.5013 0.9528
11.2264 -3.7365 -2.5010 0.9528
11.4617 -2.9254 -2.5004 0.9528
11.6385 -2.0998 -2.4999 0.9528
11.7560 -1.2639 -2.4993 0.9528
11.7696 -0.8418 -2.4942 0.9529
11.3516 -0.4054 -2.4010 0.9546
-10.6588 -0.0000 -2.5051 0.9571
-10.5542 -1.5175 -2.5060 0.9571
-10.4208 -2.2669 -2.5064 0.9571
-10.3341 -2.6376 -2.5066 0.9571
-10.2342 -3.0050 -2.5068 0.9571
-10.1213 -3.3687 -2.5070 0.9571
-9.9953 -3.7281 -2.5072 0.9571
-9.8566 -4.0827 -2.5074 0.9571
-9.3656 -5.1140 -2.5079 0.9571
-9.1777 -5.4454 -2.5081 0.9571
-6.6989 -8.3129 -2.5091 0.9571
-6.3981 -8.5469 -2.5092 0.9571
-6.0891 -8.7700 -2.5092 0.9571
-5.4481 -9.1823 -2.5093 0.9571
-4.7792 -9.5477 -2.5094 0.9571
-4.0859 -9.8643 -2.5093 0.9571
-3.0080 -10.2442 -2.5093 0.9571
-0.7615 -10.6478 -2.5089 0.9571
0.0000 -10.6741 -2.5087 0.9571
0.3810 -10.6668 -2.5085 0.9571
1.5188 -10.5633 -2.5081 0.9571
1.8947 -10.5017 -2.5080 0.9571
2.2682 -10.4268 -2.5078 0.9571
2.6387 -10.3385 -2.5077 0.9571
3.0059 -10.2370 -2.5075 0.9571
3.3691 -10.1225 -2.5073 0.9571
3.7280 -9.9951 -2.5071 0.9571
4.0820 -9.8549 -2.5070 0.9571
4.7739 -9.5370 -2.5066 0.9571
5.4412 -9.1706 -2.5061 0.9571
5.7645 -8.9698 -2.5059 0.9571
6.9798 -8.0551 -2.5050 0.9571
7.2621 -7.8001 -2.5047 0.9572
7.5352 -7.5352 -2.5045 0.9572
8.5274 -6.3835 -2.5035 0.9572
8.7489 -6.0745 -2.5032 0.9572
8.9592 -5.7577 -2.5029 0.9572
9.3451 -5.1028 -2.5024 0.9572
9.5203 -4.7655 -2.5022 0.9572
9.8340 -4.0734 -2.5016 0.9572
10.0974 -3.3607 -2.5011 0.9572
10.3955 -2.2614 -2.5003 0.9572
10.4685 -1.8887 -2.5001 0.9572
10.5282 -1.5137 -2.4998 0.9572
10.5745 -1.1369 -2.4996 0.9572
10.6073 -0.7586 -2.4993 0.9572
10.6167 -0.3792 -2.4968 0.9573
-9.6740 0.0000 -2.5048 0.9608
-9.6687 -0.3453 -2.5050 0.9608
-9.5242 -1.7184 -2.5058 0.9608
-9.3788 -2.3938 -2.5062 0.9608
-9.1855 -3.0572 -2.5066 0.9608
-9.0711 -3.3834 -2.5067 0.9608
-8.6591 -4.3345 -2.5072 0.9608
-8.4994 -4.6410 -2.5073 0.9608
-8.1475 -5.2361 -2.5076 0.9608
-7.9559 -5.5239 -2.5077 0.9608
-7.5422 -6.0779 -2.5080 0.9608
-7.3208 -6.3435 -2.5081 0.9608
-5.8061 -7.7560 -2.5085 0.9608
-5.2382 -8.1507 -2.5086 0.9608
-4.9440 -8.3326 -2.5086 0.9608
-4.3370 -8.6642 -2.5087 0.9608
-4.0250 -8.8135 -2.5087 0.9608
-3.3859 -9.0781 -2.5086 0.9608
-2.3960 -9.3877 -2.5086 0.9608
-2.0594 -9.4670 -2.5085 0.9608
-1.3787 -9.5893 -2.5084 0.9608
-1.0356 -9.6322 -2.5083 0.9608
-0.6911 -9.6627 -2.5082 0.9608
0.3457 -9.6800 -2.5079 0.9608
0.6910 -9.6611 -2.5078 0.9608
1.0353 -9.6298 -2.5077 0.9608
2.3947 -9.3824 -2.5071 0.9608
3.0576 -9.1865 -2.5068 0.9608
3.7046 -8.9437 -2.5065 0.9608
4.0212 -8.8052 -2.5063 0.9608
4.3326 -8.6554 -2.5061 0.9608
5.2318 -8.1408 -2.5055 0.9608
5.7982 -7.7455 -2.5051 0.9608
6.0705 -7.5330 -2.5049 0.9608
6.3349 -7.3109 -2.5047 0.9608
6.5912 -7.0795 -2.5045 0.9608
7.0782 -6.5901 -2.5040 0.9608
7.3083 -6.3326 -2.5038 0.9608
8.3126 -4.9321 -2.5026 0.9608
8.4826 -4.6318 -2.5024 0.9609
8.7897 -4.0141 -2.5019 0.9609
8.9265 -3.6975 -2.5017 0.9609
9.0519 -3.3762 -2.5014 0.9609
9.1658 -3.0507 -2.5012 0.9609
9.4367 -2.0528 -2.5005 0.9609
9.5031 -1.7145 -2.5002 0.9609
9.5573 -1.3741 -2.5000 0.9609
9.6293 -0.6887 -2.4996 0.9609
9.6469 -0.3445 -2.4993 0.9609
-8.8421 -0.3158 -2.5047 0.9639
-8.7984 -0.9459 -2.5051 0.9639
-8.6487 -1.8814 -2.5057 0.9639
-8.5767 -2.1891 -2.5058 0.9639
-8.4936 -2.4940 -2.5060 0.9639
-8.3997 -2.7957 -2.5062 0.9639
-8.2951 -3.0939 -2.5063 0.9639
-8.1799 -3.3882 -2.5065 0.9639
-7.9183 -3.9636 -2.5068 0.9639
-7.7722 -4.2439 -2.5069 0.9639
-7.6161 -4.5189 -2.5070 0.9639
-7.4503 -4.7880 -2.5071 0.9639
-7.0904 -5.3078 -2.5074 0.9638
-6.2638 -6.2637 -2.5077 0.9638
-5.3091 -7.0921 -2.5080 0.9638
-4.7898 -7.4530 -2.5080 0.9638
-4.5207 -7.6193 -2.5081 0.9638
-4.2459 -7.7758 -2.5081 0.9638
-3.9657 -7.9225 -2.5081 0.9638
-2.7978 -8.4061 -2.5081 0.9638
-2.4960 -8.5005 -2.5080 0.9638
-2.1909 -8.5840 -2.5080 0.9638
-1.5729 -8.7181 -2.5079 0.9638
-1.2607 -8.7685 -2.5078 0.9638
0.9467 -8.8057 -2.5072 0.9639
1.5723 -8.7149 -2.5070 0.9639
1.8823 -8.6528 -2.5068 0.9639
3.3877 -8.1787 -2.5061 0.9639
3.6772 -8.0521 -2.5059 0.9639
3.9620 -7.9151 -2.5058 0.9639
4.5160 -7.6112 -2.5054 0.9639
4.7844 -7.4447 -2.5052 0.9639
5.3025 -7.0833 -2.5049 0.9639
5.5515 -6.8890 -2.5047 0.9639
5.7934 -6.6859 -2.5045 0.9639
6.0279 -6.4744 -2.5043 0.9639
6.6837 -5.7915 -2.5036 0.9639
6.8856 -5.5488 -2.5034 0.9639
7.0787 -5.2990 -2.5032 0.9639
7.2627 -5.0426 -2.5030 0.9639
7.4374 -4.7797 -2.5028 0.9639
7.6026 -4.5108 -2.5026 0.9639
7.7581 -4.2362 -2.5023 0.9639
7.9036 -3.9563 -2.5021 0.9639
8.3833 -2.7902 -2.5012 0.9639
8.4768 -2.4890 -2.5010 0.9639
8.5595 -2.1847 -2.5008 0.9639
8.6921 -1.5682 -2.5004 0.9639
8.7418 -1.2569 -2.5002 0.9640
8.8077 -0.6299 -2.4998 0.9640
-8.1225 -0.5809 -2.5047 0.9665
-8.0615 -1.1591 -2.5050 0.9665
-7.8165 -2.2951 -2.5057 0.9665
-7.7300 -2.5728 -2.5058 0.9665
-7.5276 -3.1181 -2.5061 0.9665
-7.0087 -4.1584 -2.5066 0.9665
-6.8561 -4.4061 -2.5067 0.9665
-6.6947 -4.6483 -2.5068 0.9665
-5.9659 -5.5545 -2.5072 0.9665
-5.7640 -5.7640 -2.5073 0.9665
-5.5548 -5.9663 -2.5073 0.9665
-5.3384 -6.1609 -2.5074 0.9665
-5.1152 -6.3476 -2.5074 0.9665
-4.6495 -6.6966 -2.5075 0.9665
-4.4076 -6.8584 -2.5075 0.9665
-3.9072 -7.1554 -2.5076 0.9665
-3.6493 -7.2904 -2.5076 0.9665
-3.3868 -7.4160 -2.5076 0.9665
-3.1199 -7.5321 -2.5076 0.9665
-2.5746 -7.7354 -2.5076 0.9665
-2.2968 -7.8223 -2.5075 0.9665
-1.7329 -7.9660 -2.5075 0.9665
-1.1601 -8.0690 -2.5074 0.9665
-0.8714 -8.1050 -2.5073 0.9665
-0.5815 -8.1308 -2.5072 0.9665
0.0000 -8.1510 -2.5071 0.9665
0.2909 -8.1455 -2.5070 0.9665
0.5814 -8.1296 -2.5069 0.9665
0.8712 -8.1034 -2.5068 0.9665
1.1598 -8.0668 -2.5067 0.9665
3.9036 -7.1489 -2.5053 0.9665
4.1560 -7.0046 -2.5051 0.9665
4.4031 -6.8513 -2.5050 0.9665
4.6445 -6.6893 -2.5048 0.9665
4.8799 -6.5188 -2.5046 0.9665
5.0952 -6.3228 -2.4976 0.9666
5.3318 -6.1532 -2.5043 0.9665
5.7563 -5.7563 -2.5039 0.9665
6.1513 -5.3302 -2.5035 0.9665
6.5149 -4.8770 -2.5031 0.9665
6.9972 -4.1516 -2.5025 0.9665
7.5144 -3.1126 -2.5017 0.9665
7.6201 -2.8422 -2.5015 0.9665
7.7161 -2.5682 -2.5013 0.9665
7.8022 -2.2909 -2.5011 0.9665
7.9445 -1.7282 -2.5007 0.9665
8.0005 -1.4434 -2.5005 0.9666
8.1220 -0.2901 -2.4998 0.9666
-7.5291 -0.2689 -2.5043 0.9687
-7.5152 -0.5375 -2.5045 0.9687
-7.4917 -0.8055 -2.5046 0.9687
-7.4587 -1.0724 -2.5048 0.9687
-7.4161 -1.3380 -2.5050 0.9687
-7.3641 -1.6020 -2.5051 0.9687
-7.3026 -1.8639 -2.5053 0.9687
-7.0627 -2.6343 -2.5057 0.9687
-6.7417 -3.3746 -2.5060 0.9687
-6.6172 -3.6133 -2.5062 0.9687
-6.3431 -4.0765 -2.5064 0.9687
-5.1391 -5.5198 -2.5069 0.9687
-4.7324 -5.8726 -2.5070 0.9687
-4.5199 -6.0378 -2.5071 0.9687
-3.8487 -6.4866 -2.5072 0.9687
-3.3762 -6.7447 -2.5072 0.9687
-3.1333 -6.8609 -2.5072 0.9687
-1.8652 -7.3080 -2.5071 0.9687
-1.3391 -7.4222 -2.5070 0.9687
-1.0733 -7.4651 -2.5070 0.9687
-0.8062 -7.4985 -2.5069 0.9687
-0.2692 -7.5365 -2.5068 0.9687
0.0000 -7.5411 -2.5067 0.9687
0.2692 -7.5360 -2.5066 0.9687
0.5379 -7.5213 -2.5065 0.9687
1.0730 -7.4632 -2.5063 0.9687
1.3387 -7.4199 -2.5062 0.9687
1.6026 -7.3670 -2.5061 0.9687
1.8644 -7.3048 -2.5060 0.9687
2.1239 -7.2332 -2.5059 0.9687
2.3806 -7.1525 -2.5057 0.9687
2.8844 -6.9637 -2.5055 0.9687
3.6117 -6.6143 -2.5051 0.9687
3.8452 -6.4808 -2.5049 0.9687
4.0738 -6.3390 -2.5047 0.9687
4.2972 -6.1892 -2.5046 0.9687
4.7272 -5.8661 -2.5043 0.9687
5.5124 -5.1322 -2.5036 0.9688
6.0281 -4.5126 -2.5030 0.9688
6.7310 -3.3693 -2.5021 0.9688
7.0511 -2.6299 -2.5015 0.9688
7.2902 -1.8607 -2.5010 0.9688
7.3514 -1.5992 -2.5008 0.9688
7.4033 -1.3357 -2.5006 0.9688
7.4786 -0.8040 -2.5003 0.9688
7.5020 -0.5366 -2.5001 0.9688
7.5159 -0.2684 -2.4999 0.9688
-6.9980 -0.2499 -2.5041 0.9707
-6.9851 -0.4996 -2.5043 0.9707
-6.9632 -0.7486 -2.5045 0.9707
-6.8929 -1.2436 -2.5047 0.9707
-6.7215 -1.9736 -2.5052 0.9707
-6.6472 -2.2124 -2.5053 0.9707
-6.5643 -2.4484 -2.5054 0.9707
-6.3735 -2.9107 -2.5056 0.9707
-6.0266 -3.5757 -2.5060 0.9707
-5.8954 -3.7887 -2.5061 0.9707
-5.2969 -4.5898 -2.5064 0.9707
-5.1298 -4.7760 -2.5064 0.9707
-4.7762 -5.1300 -2.5066 0.9707
-4.5902 -5.2974 -2.5066 0.9707
-3.7898 -5.8970 -2.5068 0.9707
-3.3595 -6.1525 -2.5068 0.9707
-3.1378 -6.2685 -2.5068 0.9707
-2.4497 -6.5679 -2.5068 0.9707
-0.7493 -6.9691 -2.5065 0.9707
-0.5000 -6.9912 -2.5065 0.9707
-0.2502 -7.0044 -2.5064 0.9707
0.2501 -7.0040 -2.5063 0.9707
0.5000 -6.9904 -2.5062 0.9707
1.4895 -6.8470 -2.5058 0.9707
1.7328 -6.7892 -2.5057 0.9707
1.9740 -6.7227 -2.5056 0.9707
2.2126 -6.6477 -2.5055 0.9707
2.4483 -6.5642 -2.5054 0.9707
2.9101 -6.3721 -2.5051 0.9707
3.1355 -6.2639 -2.5050 0.9707
3.3569 -6.1476 -2.5048 0.9707
3.7864 -5.8918 -2.5045 0.9707
4.3938 -5.4523 -2.5041 0.9707
4.5853 -5.2917 -2.5039 0.9707
4.9505 -4.9505 -2.5036 0.9707
5.1237 -4.7703 -2.5034 0.9707
5.2903 -4.5841 -2.5033 0.9707
5.4502 -4.3920 -2.5031 0.9707
5.7488 -3.9915 -2.5028 0.9707
6.1413 -3.3534 -2.5023 0.9707
6.3640 -2.9063 -2.5019 0.9707
6.4633 -2.6772 -2.5017 0.9707
6.5542 -2.4446 -2.5016 0.9707
6.7110 -1.9705 -2.5012 0.9707
6.8818 -1.2416 -2.5007 0.9707
6.9213 -0.9951 -2.5005 0.9707
6.9519 -0.7474 -2.5004 0.9707
-6.5338 0.0000 -2.5039 0.9724
-6.5300 -0.2332 -2.5040 0.9724
-6.3332 -1.6165 -2.5048 0.9724
-6.2024 -2.0643 -2.5051 0.9724
-6.1250 -2.2845 -2.5052 0.9724
-5.9470 -2.7159 -2.5054 0.9724
-5.8465 -2.9265 -2.5055 0.9724
-5.7385 -3.1335 -2.5056 0.9724
-5.0918 -4.1033 -2.5060 0.9724
-4.9423 -4.2825 -2.5061 0.9724
-4.7864 -4.4563 -2.5061 0.9724
-3.9195 -5.2358 -2.5064 0.9724
-3.1346 -5.7405 -2.5065 0.9724
-2.7171 -5.9496 -2.5065 0.9724
-2.2857 -6.1282 -2.5065 0.9724
-2.0655 -6.2058 -2.5065 0.9724
-1.1612 -6.4363 -2.5063 0.9724
-0.9308 -6.4735 -2.5063 0.9724
-0.4665 -6.5232 -2.5062 0.9724
-0.0000 -6.5395 -2.5061 0.9724
0.4665 -6.5225 -2.5059 0.9724
0.6990 -6.5015 -2.5058 0.9724
0.9305 -6.4721 -2.5057 0.9724
1.6169 -6.3348 -2.5055 0.9724
1.8419 -6.2728 -2.5054 0.9724
2.2845 -6.1249 -2.5051 0.9724
2.5015 -6.0392 -2.5050 0.9724
3.1323 -5.7363 -2.5046 0.9724
3.7269 -5.3678 -2.5042 0.9724
4.0999 -5.0877 -2.5039 0.9724
4.2786 -4.9378 -2.5038 0.9724
4.4519 -4.7816 -2.5037 0.9724
4.7810 -4.4513 -2.5033 0.9724
4.9366 -4.2776 -2.5032 0.9724
5.0858 -4.0984 -2.5030 0.9724
5.4937 -3.5306 -2.5026 0.9724
5.6159 -3.3320 -2.5024 0.9724
5.7308 -3.1293 -2.5022 0.9724
5.9387 -2.7121 -2.5019 0.9724
6.0313 -2.4983 -2.5018 0.9724
6.1934 -2.0614 -2.5014 0.9724
6.2626 -1.8389 -2.5013 0.9724
6.3770 -1.3872 -2.5010 0.9724
6.4221 -1.1587 -2.5008 0.9724
6.4876 -0.6975 -2.5005 0.9724
6.5079 -0.4655 -2.5003 0.9724
6.5200 -0.2329 -2.5002 0.9724
-6.1139 -0.2184 -2.5039 0.9739
-6.1026 -0.4365 -2.5040 0.9739
-5.8070 -1.9328 -2.5049 0.9739
-5.6548 -2.3423 -2.5051 0.9739
-5.4738 -2.7400 -2.5053 0.9739
-5.3727 -2.9337 -2.5054 0.9739
-5.0288 -3.4916 -2.5056 0.9739
-4.3295 -4.3295 -2.5059 0.9739
-4.0098 -4.6275 -2.5060 0.9739
-3.8421 -4.7678 -2.5061 0.9739
-3.6695 -4.9019 -2.5061 0.9739
-3.4923 -5.0298 -2.5061 0.9739
-3.3106 -5.1513 -2.5062 0.9739
-3.1246 -5.2662 -2.5062 0.9739
-2.7410 -5.4758 -2.5062 0.9739
-2.3434 -5.6574 -2.5062 0.9739
-2.1399 -5.7374 -2.5062 0.9739
-1.7252 -5.8753 -2.5061 0.9739
-1.5143 -5.9331 -2.5061 0.9739
-1.0872 -6.0259 -2.5061 0.9739
-0.6545 -6.0879 -2.5060 0.9739
-0.2185 -6.1188 -2.5059 0.9739
0.4368 -6.1066 -2.5057 0.9739
0.6544 -6.0869 -2.5056 0.9739
0.8712 -6.0595 -2.5055 0.9739
1.3012 -5.9815 -2.5053 0.9739
1.7245 -5.8730 -2.5051 0.9739
1.9329 -5.8074 -2.5050 0.9739
2.3421 -5.6543 -2.5048 0.9739
2.5423 -5.5668 -2.5047 0.9739
2.7392 -5.4723 -2.5046 0.9739
2.9327 -5.3708 -2.5045 0.9739
3.1223 -5.2624 -2.5043 0.9739
3.3080 -5.1473 -2.5042 0.9739
3.4894 -5.0257 -2.5041 0.9739
4.1682 -4.4770 -2.5035 0.9739
4.4765 -4.1678 -2.5033 0.9739
4.7619 -3.8374 -2.5030 0.9739
5.4668 -2.7365 -2.5021 0.9739
5.7992 -1.9301 -2.5015 0.9739
6.0134 -1.0849 -2.5009 0.9739
6.0479 -0.8696 -2.5007 0.9739
6.0939 -0.4358 -2.5004 0.9739
-5.7413 -0.2051 -2.5038 0.9752
-5.7306 -0.4099 -2.5039 0.9752
-5.7126 -0.6142 -2.5040 0.9752
-5.6150 -1.2215 -2.5044 0.9752
-5.5681 -1.4212 -2.5045 0.9752
-5.3850 -2.0085 -2.5048 0.9752
-5.3100 -2.1995 -2.5049 0.9752
-5.2284 -2.3877 -2.5050 0.9752
-5.1400 -2.5729 -2.5051 0.9752
-4.9437 -2.9332 -2.5052 0.9752
-4.8360 -3.1079 -2.5053 0.9752
-4.7221 -3.2786 -2.5054 0.9752
-4.6022 -3.4452 -2.5055 0.9752
-4.4764 -3.6073 -2.5055 0.9752
-4.3449 -3.7649 -2.5056 0.9752
-4.2079 -3.9177 -2.5056 0.9752
-4.0654 -4.0654 -2.5057 0.9752
-3.9178 -4.2080 -2.5057 0.9752
-3.7652 -4.3453 -2.5058 0.9752
-3.2793 -4.7230 -2.5059 0.9752
-3.1086 -4.8371 -2.5059 0.9752
-2.9340 -4.9450 -2.5059 0.9752
-2.7557 -5.0466 -2.5059 0.9752
-2.5738 -5.1418 -2.5059 0.9752
-2.0094 -5.3874 -2.5059 0.9752
-1.6199 -5.5170 -2.5059 0.9752
-1.4220 -5.5712 -2.5059 0.9752
-1.2222 -5.6183 -2.5058 0.9752
-0.0000 -5.7491 -2.5056 0.9752
0.2052 -5.7453 -2.5055 0.9752
0.4101 -5.7342 -2.5054 0.9752
0.6145 -5.7157 -2.5054 0.9752
0.8181 -5.6900 -2.5053 0.9752
1.2219 -5.6167 -2.5051 0.9752
2.0085 -5.3849 -2.5047 0.9752
2.1993 -5.3095 -2.5046 0.9752
2.3873 -5.2274 -2.5045 0.9752
2.5722 -5.1387 -2.5044 0.9752
4.0616 -4.0616 -2.5033 0.9752
4.2037 -3.9138 -2.5032 0.9752
4.3405 -3.7611 -2.5030 0.9753
4.4718 -3.6036 -2.5029 0.9753
4.5973 -3.4415 -2.5028 0.9753
4.7169 -3.2750 -2.5026 0.9753
4.8305 -3.1044 -2.5025 0.9753
4.9380 -2.9298 -2.5023 0.9753
5.1338 -2.5698 -2.5021 0.9753
5.2220 -2.3848 -2.5019 0.9753
5.3035 -2.1968 -2.5018 0.9753
5.3782 -2.0060 -2.5016 0.9753
5.6077 -1.2199 -2.5011 0.9753
5.6798 -0.8166 -2.5008 0.9753
5.7229 -0.4093 -2.5005 0.9753
-5.3953 -0.3859 -2.5038 0.9764
-5.3783 -0.5782 -2.5039 0.9764
-5.2864 -1.1500 -2.5042 0.9764
-5.2422 -1.3380 -2.5043 0.9764
-5.1338 -1.7087 -2.5045 0.9764
-5.0697 -1.8909 -2.5046 0.9764
-4.9992 -2.0707 -2.5047 0.9764
-4.9223 -2.2479 -2.5048 0.9764
-4.8391 -2.4223 -2.5049 0.9764
-4.6542 -2.7615 -2.5050 0.9764
-4.5528 -2.9259 -2.5051 0.9764
-4.4456 -3.0867 -2.5052 0.9764
-4.3327 -3.2434 -2.5053 0.9764
-4.0905 -3.5444 -2.5054 0.9764
-3.9615 -3.6883 -2.5054 0.9764
-3.6884 -3.9616 -2.5055 0.9764
-3.0872 -4.4464 -2.5056 0.9764
-2.9266 -4.5538 -2.5057 0.9764
-2.7622 -4.6554 -2.5057 0.9764
-2.4231 -4.8406 -2.5057 0.9764
-1.7095 -5.1362 -2.5057 0.9764
-1.3387 -5.2449 -2.5056 0.9764
-0.9611 -5.3269 -2.5056 0.9764
-0.1932 -5.4091 -2.5054 0.9764
-0.0000 -5.4125 -2.5053 0.9764
0.3861 -5.3984 -2.5052 0.9764
0.5785 -5.3810 -2.5052 0.9764
0.9609 -5.3258 -2.5050 0.9764
1.1503 -5.2879 -2.5049 0.9764
1.7088 -5.1341 -2.5047 0.9764
1.8909 -5.0696 -2.5046 0.9764
2.2476 -4.9215 -2.5044 0.9764
2.5927 -4.7482 -2.5042 0.9764
2.9246 -4.5507 -2.5040 0.9764
3.0850 -4.4432 -2.5038 0.9764
3.3938 -4.2114 -2.5036 0.9764
3.6852 -3.9582 -2.5034 0.9764
3.8240 -3.8240 -2.5032 0.9764
4.0866 -3.5410 -2.5030 0.9764
4.2102 -3.3928 -2.5028 0.9764
4.3283 -3.2402 -2.5027 0.9765
4.8336 -2.4195 -2.5021 0.9765
4.9934 -2.0683 -2.5018 0.9765
5.1276 -1.7066 -2.5015 0.9765
5.2358 -1.3363 -2.5013 0.9765
5.3478 -0.7689 -2.5009 0.9765
5.3885 -0.3854 -2.5006 0.9765
5.3985 -0.1928 -2.5005 0.9765
-5.0236 -0.9064 -2.5040 0.9775
-4.9883 -1.0851 -2.5041 0.9775
-4.8442 -1.6123 -2.5044 0.9775
-4.7838 -1.7843 -2.5045 0.9775
-4.6446 -2.1211 -2.5046 0.9775
-4.5661 -2.2856 -2.5047 0.9775
-4.4818 -2.4472 -2.5048 0.9775
-4.2960 -2.7609 -2.5049 0.9775
-4.1948 -2.9125 -2.5050 0.9775
-3.7380 -3.4802 -2.5052 0.9775
-3.6114 -3.6114 -2.5053 0.9775
-3.4803 -3.7381 -2.5053 0.9775
-3.3447 -3.8600 -2.5054 0.9775
-3.0609 -4.0889 -2.5054 0.9775
-2.9130 -4.1956 -2.5054 0.9775
-2.6063 -4.3927 -2.5055 0.9775
-2.4479 -4.4830 -2.5055 0.9775
-2.2863 -4.5675 -2.5055 0.9775
-1.7850 -4.7857 -2.5055 0.9775
-1.4390 -4.9008 -2.5054 0.9775
-1.2632 -4.9490 -2.5054 0.9775
-1.0857 -4.9909 -2.5054 0.9775
-0.5460 -5.0781 -2.5053 0.9775
-0.3644 -5.0943 -2.5053 0.9775
-0.1823 -5.1040 -2.5052 0.9775
0.1823 -5.1037 -2.5051 0.9775
0.9067 -5.0253 -2.5048 0.9775
1.4385 -4.8992 -2.5046 0.9775
1.6124 -4.8445 -2.5045 0.9775
1.9538 -4.7168 -2.5043 0.9775
2.1208 -4.6439 -2.5042 0.9775
2.2851 -4.5651 -2.5041 0.9775
2.4465 -4.4804 -2.5040 0.9775
2.9110 -4.1927 -2.5037 0.9775
3.0587 -4.0859 -2.5036 0.9775
3.2024 -3.9740 -2.5035 0.9775
3.6084 -3.6084 -2.5032 0.9775
3.7347 -3.4771 -2.5030 0.9775
3.8562 -3.3415 -2.5029 0.9775
3.9729 -3.2015 -2.5028 0.9775
4.0844 -3.0575 -2.5027 0.9775
4.1907 -2.9097 -2.5025 0.9775
4.5612 -2.2832 -2.5020 0.9775
4.6396 -2.1188 -2.5019 0.9775
4.7120 -1.9518 -2.5018 0.9775
4.8929 -1.4367 -2.5014 0.9775
4.9825 -1.0839 -2.5012 0.9775
5.0690 -0.5450 -2.5008 0.9775
5.0945 -0.1820 -2.5006 0.9775
-4.8226 -0.1722 -2.5035 0.9785
-4.7984 -0.5159 -2.5037 0.9785
-4.5802 -1.5244 -2.5042 0.9785
-4.3914 -2.0055 -2.5045 0.9785
-4.3171 -2.1610 -2.5046 0.9785
-3.7597 -3.0298 -2.5049 0.9785
-3.6492 -3.1621 -2.5050 0.9785
-3.5341 -3.2904 -2.5050 0.9785
-3.4145 -3.4145 -2.5051 0.9785
-3.2905 -3.5342 -2.5051 0.9785
-3.0301 -3.7601 -2.5052 0.9785
-2.8940 -3.8659 -2.5052 0.9785
-2.6108 -4.0625 -2.5053 0.9785
-2.4642 -4.1532 -2.5053 0.9785
-2.3144 -4.2385 -2.5053 0.9785
-2.0061 -4.3928 -2.5053 0.9785
-1.8481 -4.4616 -2.5053 0.9785
-1.0265 -4.7187 -2.5052 0.9785
-0.5162 -4.8012 -2.5051 0.9785
-0.3445 -4.8165 -2.5051 0.9785
-0.1723 -4.8256 -2.5050 0.9785
0.0000 -4.8286 -2.5050 0.9785
0.3445 -4.8161 -2.5049 0.9785
0.5161 -4.8006 -2.5048 0.9785
0.6871 -4.7790 -2.5048 0.9785
1.0262 -4.7176 -2.5046 0.9785
1.3601 -4.6320 -2.5045 0.9785
1.6870 -4.5229 -2.5043 0.9785
1.8473 -4.4597 -2.5042 0.9785
2.0052 -4.3907 -2.5041 0.9785
2.1605 -4.3162 -2.5040 0.9785
2.4628 -4.1508 -2.5038 0.9785
2.6092 -4.0601 -2.5037 0.9785
2.7524 -3.9642 -2.5036 0.9785
3.1600 -3.6468 -2.5033 0.9785
3.5312 -3.2877 -2.5030 0.9785
3.6461 -3.1594 -2.5029 0.9785
3.8619 -2.8910 -2.5026 0.9785
3.9624 -2.7512 -2.5025 0.9785
4.0579 -2.6078 -2.5024 0.9785
4.3128 -2.1588 -2.5020 0.9785
4.7112 -1.0248 -2.5012 0.9785
4.7445 -0.8560 -2.5011 0.9785
4.7718 -0.6861 -2.5010 0.9785
-4.5449 -0.4886 -2.5036 0.9794
-4.5247 -0.6505 -2.5037 0.9794
-4.4671 -0.9718 -2.5039 0.9794
-4.3867 -1.2881 -2.5040 0.9794
-4.3381 -1.4438 -2.5041 0.9794
-4.1593 -1.8995 -2.5044 0.9794
-3.9327 -2.3334 -2.5046 0.9794
-3.7564 -2.6081 -2.5047 0.9794
-3.6610 -2.7406 -2.5047 0.9794
-3.5609 -2.8696 -2.5048 0.9794
-3.4563 -2.9949 -2.5048 0.9794
-3.3473 -3.1164 -2.5049 0.9794
-3.2339 -3.2340 -2.5049 0.9794
-2.9951 -3.4565 -2.5050 0.9794
-2.8698 -3.5613 -2.5050 0.9794
-2.6085 -3.7570 -2.5051 0.9794
-2.1920 -4.0144 -2.5051 0.9794
-2.0473 -4.0901 -2.5051 0.9794
-1.9000 -4.1605 -2.5051 0.9794
-1.5984 -4.2855 -2.5051 0.9794
-1.1311 -4.4317 -2.5051 0.9794
-0.6509 -4.5271 -2.5050 0.9794
-0.3263 -4.5618 -2.5049 0.9794
0.0000 -4.5733 -2.5048 0.9794
0.1632 -4.5703 -2.5048 0.9794
0.3262 -4.5615 -2.5047 0.9794
0.6508 -4.5264 -2.5046 0.9794
1.1308 -4.4305 -2.5044 0.9794
1.4439 -4.3383 -2.5043 0.9794
1.5978 -4.2839 -2.5042 0.9794
1.8992 -4.1587 -2.5040 0.9794
2.0464 -4.0881 -2.5039 0.9794
2.1909 -4.0123 -2.5038 0.9794
2.7392 -3.6591 -2.5034 0.9794
2.8679 -3.5589 -2.5033 0.9794
2.9930 -3.4541 -2.5032 0.9794
3.1142 -3.3449 -2.5031 0.9794
3.4535 -2.9925 -2.5028 0.9794
3.7531 -2.6058 -2.5025 0.9794
3.8436 -2.4701 -2.5024 0.9794
3.9291 -2.3312 -2.5023 0.9794
4.0096 -2.1894 -2.5021 0.9794
4.0850 -2.0448 -2.5020 0.9794
4.1552 -1.8976 -2.5019 0.9794
4.2796 -1.5962 -2.5017 0.9794
4.4624 -0.9707 -2.5012 0.9794
4.4940 -0.8108 -2.5011 0.9794
4.5199 -0.6499 -2.5010 0.9794
4.5544 -0.3257 -2.5008 0.9794
-4.3357 0.0000 -2.5032 0.9802
-4.2922 -0.6171 -2.5036 0.9802
-4.2676 -0.7700 -2.5037 0.9802
-4.2375 -0.9218 -2.5038 0.9802
-4.2021 -1.0725 -2.5038 0.9802
-4.0072 -1.6598 -2.5042 0.9802
-3.9455 -1.8018 -2.5042 0.9802
-3.8071 -2.0788 -2.5044 0.9802
-3.7306 -2.2134 -2.5044 0.9802
-3.6493 -2.3452 -2.5045 0.9802
-3.5633 -2.4741 -2.5045 0.9802
-3.4728 -2.5997 -2.5046 0.9802
-3.2786 -2.8409 -2.5047 0.9802
-3.1752 -2.9562 -2.5047 0.9802
-2.6000 -3.4732 -2.5049 0.9802
-2.4744 -3.5638 -2.5049 0.9802
-2.2139 -3.7313 -2.5049 0.9802
-1.9421 -3.8798 -2.5050 0.9802
-1.6603 -4.0084 -2.5050 0.9802
-1.5162 -4.0651 -2.5049 0.9802
-1.2223 -4.1629 -2.5049 0.9802
-0.9222 -4.2394 -2.5049 0.9802
-0.7703 -4.2696 -2.5049 0.9802
-0.4638 -4.3136 -2.5048 0.9802
0.1548 -4.3354 -2.5046 0.9802
0.3095 -4.3270 -2.5046 0.9802
0.4637 -4.3131 -2.5045 0.9802
0.6173 -4.2937 -2.5045 0.9802
0.7702 -4.2688 -2.5044 0.9802
1.2220 -4.1617 -2.5042 0.9802
1.6597 -4.0069 -2.5040 0.9802
2.0783 -3.8061 -2.5037 0.9802
2.3444 -3.6479 -2.5036 0.9802
2.4730 -3.5618 -2.5035 0.9802
2.7206 -3.3760 -2.5033 0.9802
2.8392 -3.2766 -2.5032 0.9802
2.9543 -3.1731 -2.5031 0.9802
3.2761 -2.8388 -2.5028 0.9802
3.3752 -2.7199 -2.5027 0.9802
3.5604 -2.4720 -2.5025 0.9802
4.0599 -1.5143 -2.5017 0.9802
4.1979 -1.0715 -2.5014 0.9802
4.2333 -0.9209 -2.5013 0.9802
4.2633 -0.7692 -2.5012 0.9802
4.2879 -0.6165 -2.5011 0.9802
4.3287 -0.1546 -2.5008 0.9802
