ply
format ascii 1.0
element vertex 1277
property float32 x
property float32 y
property float32 z
property float32 I
end_header
-39.0554 -29.2365 8.6023 0.8202
-33.3745 -28.9191 7.7867 0.8358
-31.4687 -29.2984 7.5814 0.8398
-28.9085 -28.9085 7.2087 0.8470
-26.9103 -28.9037 6.9634 0.8518
-25.0413 -28.8992 6.7426 0.8561
-20.0567 -28.8871 6.2009 0.8669
-17.1353 -28.8800 5.9212 0.8725
-15.8408 -29.0103 5.8282 0.8744
-14.5199 -29.0070 5.7197 0.8766
-13.1817 -28.8640 5.5951 0.8791
-12.0101 -28.9950 5.5338 0.8803
-8.6906 -29.5976 5.4392 0.8822
-7.6300 -29.8939 5.4401 0.8822
-3.4585 -32.1687 5.7049 0.8769
36.9242 -29.7554 8.3617 0.8248
38.2739 -28.6515 8.4302 0.8235
16.7360 -11.6200 3.5926 0.9206
39.6676 -13.2026 7.3717 0.8438
-39.1939 -29.3402 7.5003 0.8203
-33.3769 -28.9212 6.7657 0.8363
-31.0576 -28.9157 6.5007 0.8422
-26.9120 -28.9056 6.0503 0.8523
-25.0429 -28.9010 5.8584 0.8566
-21.6287 -28.8926 5.5290 0.8641
-20.2336 -29.1419 5.4349 0.8663
-19.1868 -29.8552 5.4367 0.8662
-13.1824 -28.8655 4.8613 0.8795
-13.9814 -33.7542 5.5970 0.8626
-12.5887 -33.7515 5.5185 0.8644
-9.6044 -28.8565 4.6591 0.8842
-8.7988 -29.9659 4.7844 0.8813
-8.6125 -33.7436 5.3350 0.8686
-7.3694 -33.8766 5.3111 0.8691
-5.3378 -29.5853 4.6055 0.8855
-5.3393 -37.1359 5.7475 0.8591
-4.0110 -37.3076 5.7482 0.8591
-0.4651 -13.0224 1.9962 0.9486
39.5971 -13.1792 6.3932 0.8446
-25.1598 -13.7383 3.7329 0.8908
-25.0444 -28.9028 4.9802 0.8570
-20.3813 -29.3547 4.6536 0.8658
-21.7093 -33.7804 5.2290 0.8505
-17.1372 -28.8832 4.3734 0.8733
-16.5308 -30.2739 4.4917 0.8701
-13.1831 -28.8670 4.1325 0.8798
-13.9870 -33.7675 4.7595 0.8629
-8.7986 -29.9652 4.0668 0.8816
-8.6158 -33.7565 4.5367 0.8689
-6.0838 -42.3134 5.5668 0.8416
-4.7470 -44.1538 5.7829 0.8360
-0.9377 -13.1109 1.7117 0.9484
-0.4652 -13.0252 1.6972 0.9488
3.4991 -48.9244 6.3873 0.8205
5.2594 -48.9197 6.4071 0.8200
7.0329 -48.9150 6.4352 0.8193
39.5269 -13.1558 5.4248 0.8453
-25.1281 -13.7210 3.0744 0.8912
-40.9658 -26.3271 5.2291 0.8221
-38.7310 -28.9936 5.1952 0.8231
-35.9017 -28.9314 4.9512 0.8307
-35.4597 -30.7260 5.0383 0.8280
-24.2274 -30.0643 4.1461 0.8561
-21.6313 -28.8960 3.8760 0.8648
-17.1381 -28.8847 3.6066 0.8736
-16.5306 -30.2735 3.7039 0.8704
-16.9126 -33.7872 4.0573 0.8590
-13.1838 -28.8685 3.4079 0.8801
-12.5985 -33.7779 3.8712 0.8650
-8.6191 -33.7695 3.7425 0.8692
-7.3750 -33.9024 3.7256 0.8697
-0.9382 -13.1177 1.4122 0.9485
1.7645 -49.4053 5.3086 0.8196
8.8248 -48.9125 5.3371 0.8188
37.1193 -32.1641 5.2741 0.8207
36.9251 -29.7561 5.0923 0.8263
38.2830 -28.6583 5.1351 0.8250
16.7251 -11.6124 2.1871 0.9214
39.4561 -13.1322 4.4654 0.8460
-25.0966 -13.7038 2.4206 0.8916
-35.9044 -28.9336 3.9035 0.8310
-35.4594 -30.7258 3.9719 0.8283
-31.8547 -29.6578 3.6844 0.8397
-27.7655 -29.8222 3.4493 0.8491
-25.0475 -28.9064 3.2379 0.8577
-21.6326 -28.8977 3.0558 0.8651
-21.7281 -33.8097 3.4022 0.8510
-16.5304 -30.2731 2.9199 0.8707
-16.9196 -33.8011 3.1998 0.8592
-13.1845 -28.8700 2.6867 0.8804
-12.6035 -33.7912 3.0530 0.8652
-8.7982 -29.9639 2.6436 0.8822
-7.3397 -33.7402 2.9230 0.8706
-0.9387 -13.1244 1.1139 0.9486
3.5334 -49.4029 4.1928 0.8197
8.8252 -48.9149 4.2076 0.8191
37.1220 -32.1664 4.1581 0.8210
36.9254 -29.7563 4.0145 0.8267
-25.0653 -13.6867 1.7709 0.8919
-35.9071 -28.9357 2.8596 0.8313
-31.8545 -29.6576 2.6989 0.8399
-27.7652 -29.8219 2.5267 0.8493
-25.0491 -28.9082 2.3720 0.8579
-20.3806 -29.3537 2.2160 0.8666
-17.1400 -28.8879 2.0829 0.8740
-16.5302 -30.2727 2.1389 0.8709
-16.9218 -33.8055 2.3443 0.8594
-13.1851 -28.8715 1.9682 0.8806
-13.9715 -33.7302 2.2640 0.8639
-12.5990 -33.7793 2.2358 0.8655
-8.7980 -29.9632 1.9365 0.8824
-8.6228 -33.7839 2.1621 0.8696
-7.3485 -33.7806 2.1437 0.8706
-3.8504 -21.3413 1.3447 0.9168
-5.6155 -39.0564 2.4468 0.8537
-0.9392 -13.1311 0.8163 0.9486
3.4996 -48.9313 3.0420 0.8215
5.2602 -48.9266 3.0514 0.8210
8.8256 -48.9172 3.0823 0.8194
16.0827 -21.4840 1.6642 0.8980
37.0278 -32.0848 3.0382 0.8217
36.9257 -29.7566 2.9407 0.8269
39.3178 -13.0862 2.5696 0.8470
-35.4822 -26.5616 1.7477 0.8374
-35.4588 -30.7252 1.8501 0.8288
-28.5923 -26.6204 1.5404 0.8552
-28.9198 -28.9198 1.6127 0.8490
-25.0506 -28.9100 1.5084 0.8580
-24.2266 -30.0634 1.5224 0.8568
-20.3804 -29.3533 1.4091 0.8667
-21.7347 -33.8198 1.5852 0.8514
-17.1409 -28.8894 1.3246 0.8742
-16.5299 -30.2724 1.3600 0.8710
-13.1858 -28.8730 1.2516 0.8807
-13.9724 -33.7324 1.4397 0.8640
-12.5992 -33.7799 1.4216 0.8656
-9.6067 -28.8636 1.1995 0.8853
-8.7978 -29.9625 1.2313 0.8825
-8.6232 -33.7855 1.3749 0.8697
-7.3489 -33.7822 1.3632 0.8708
5.2604 -48.9289 1.9404 0.8212
36.9260 -29.7568 1.8699 0.8271
38.2919 -28.6649 1.8861 0.8257
35.1648 -20.8643 1.6123 0.8490
30.7465 -14.0415 1.3328 0.8734
39.2877 -13.0762 1.6327 0.8473
-40.8051 -13.5812 0.7265 0.8419
-39.5503 -29.6069 0.8345 0.8207
-35.9124 -28.9400 0.7791 0.8315
-35.4585 -30.7250 0.7925 0.8289
-28.9217 -28.9217 0.6909 0.8491
-27.7647 -29.8214 0.6883 0.8496
-24.2264 -30.0631 0.6522 0.8569
-20.3802 -29.3531 0.6036 0.8668
-17.1418 -28.8910 0.5675 0.8742
-13.1865 -28.8745 0.5362 0.8807
-13.8557 -33.4506 0.6116 0.8652
-9.6072 -28.8650 0.5139 0.8854
-8.6138 -33.7484 0.5884 0.8699
-7.3408 -33.7450 0.5833 0.8710
-5.3384 -29.5887 0.5079 0.8867
-5.6160 -39.0601 0.6666 0.8540
-0.9401 -13.1445 0.2226 0.9486
5.2607 -48.9312 0.8313 0.8213
18.2015 -30.6770 0.6025 0.8670
37.2764 -32.3002 0.8332 0.8209
38.2949 -28.6672 0.8080 0.8258
16.7170 -11.6068 0.3438 0.9218
35.1662 -20.8651 0.6903 0.8491
29.8780 -14.9559 0.5644 0.8749
29.5714 -13.5048 0.5491 0.8780
28.9158 -11.9773 0.5287 0.8823
39.2577 -13.0662 0.6989 0.8474
-40.7772 -13.5719 -0.2420 0.8421
-24.9724 -13.6359 -0.1602 0.8924
-39.5500 -29.6067 -0.2782 0.8207
-31.8536 -29.6568 -0.2450 0.8402
-28.9236 -28.9236 -0.2303 0.8491
-24.2261 -30.0628 -0.2174 0.8569
-21.6376 -28.9045 -0.2033 0.8655
-20.3799 -29.3527 -0.2012 0.8668
-21.7371 -33.8235 -0.2264 0.8514
-16.5295 -30.2716 -0.1942 0.8711
-16.9245 -33.8108 -0.2129 0.8596
-7.3574 -33.8214 -0.1949 0.8707
-0.9406 -13.1512 -0.0742 0.9486
-0.4658 -13.0413 -0.0735 0.9491
8.8269 -48.9241 -0.2799 0.8197
18.2025 -30.6787 -0.2008 0.8670
36.9266 -29.7573 -0.2670 0.8272
16.7144 -11.6050 -0.1146 0.9218
29.4491 -12.1982 -0.1795 0.8803
39.2278 -13.0562 -0.2328 0.8476
-24.9416 -13.6191 -0.8002 0.8925
-39.5496 -29.6065 -1.3911 0.8206
-35.9178 -28.9443 -1.2989 0.8314
-28.9255 -28.9255 -1.1518 0.8490
-25.0553 -28.9153 -1.0773 0.8580
-24.2259 -30.0625 -1.0871 0.8568
-21.6389 -28.9061 -1.0167 0.8655
-21.7383 -33.8254 -1.1322 0.8514
-17.1437 -28.8941 -0.9460 0.8742
-16.5293 -30.2711 -0.9711 0.8711
-13.1879 -28.8774 -0.8939 0.8807
-13.8862 -33.5243 -1.0217 0.8648
-9.4623 -28.4296 -0.8437 0.8870
-8.6337 -33.8264 -0.9830 0.8696
-5.3386 -29.5899 -0.8466 0.8866
-5.6165 -39.0637 -1.1113 0.8539
-0.4659 -13.0440 -0.3675 0.9491
18.2035 -30.6803 -1.0045 0.8670
38.3008 -28.6716 -1.3472 0.8258
35.1690 -20.8667 -1.1515 0.8490
-49.6129 0.0000 -2.5161 0.8198
-49.5090 -1.7682 -2.5124 0.8200
-49.3421 -3.5290 -2.5087 0.8203
-45.8537 -11.7035 -2.4000 0.8273
-39.5950 -14.7682 -2.1432 0.8443
-41.7396 -19.0618 -2.3271 0.8321
-41.0752 -20.5608 -2.3295 0.8320
-24.9108 -13.6023 -1.4394 0.8925
-38.7573 -24.9078 -2.3364 0.8315
-36.9491 -27.6597 -2.3407 0.8312
-35.9204 -28.9465 -2.3396 0.8313
-34.9415 -30.2771 -2.3447 0.8310
-28.9274 -28.9274 -2.0747 0.8489
-27.7639 -29.8206 -2.0663 0.8494
-21.6401 -28.9078 -1.8313 0.8653
-20.3795 -29.3521 -1.8122 0.8667
-17.1446 -28.8957 -1.7040 0.8741
-16.5291 -30.2707 -1.7491 0.8710
-16.9262 -33.8143 -1.9177 0.8595
-13.1885 -28.8789 -1.6101 0.8806
-13.8865 -33.5249 -1.8403 0.8647
-12.2789 -32.9211 -1.7819 0.8687
-8.7970 -29.9599 -1.5835 0.8824
-8.6341 -33.8280 -1.7706 0.8695
-7.3581 -33.8246 -1.7555 0.8705
-5.6168 -39.0656 -2.0016 0.8538
-4.9834 -46.3526 -2.3643 0.8297
-0.9415 -13.1646 -0.6693 0.9485
4.9775 -46.2975 -2.3615 0.8299
6.6245 -46.0739 -2.3606 0.8299
8.2615 -45.7904 -2.3597 0.8300
9.8865 -45.4475 -2.3587 0.8300
11.4969 -45.0442 -2.3576 0.8301
13.0906 -44.5822 -2.3564 0.8302
16.2197 -43.4866 -2.3538 0.8304
12.8029 -30.9089 -1.6967 0.8746
13.3582 -29.2504 -1.6308 0.8792
28.9244 -35.8930 -2.3378 0.8314
35.6834 -28.7556 -2.3241 0.8323
16.7092 -11.6014 -1.0316 0.9218
40.0042 -21.8439 -2.3115 0.8331
29.4412 -12.1949 -1.6161 0.8802
44.2090 -11.2837 -2.3139 0.8330
47.5190 -10.3371 -2.4663 0.8230
48.2843 -6.9422 -2.4739 0.8225
48.5691 -5.2217 -2.4773 0.8223
48.7935 -3.4898 -2.4808 0.8221
-34.2558 0.0000 -2.5117 0.8716
-34.0995 -2.4389 -2.5066 0.8719
-33.7701 -4.8554 -2.5016 0.8721
-32.9578 -8.4120 -2.4940 0.8725
-32.6040 -9.5734 -2.4915 0.8726
-29.3969 -12.1766 -2.3330 0.8802
-24.1642 -13.1947 -2.0187 0.8955
-24.2222 -14.3717 -2.0651 0.8932
-26.6420 -17.1218 -2.3221 0.8807
-26.0089 -18.0583 -2.3216 0.8807
-25.3635 -18.9868 -2.3231 0.8807
-24.6844 -19.8919 -2.3244 0.8806
-23.9724 -20.7722 -2.3258 0.8805
-18.2941 -17.0324 -1.8327 0.9046
-12.0768 -12.0768 -1.2523 0.9338
-19.9531 -24.7603 -2.3316 0.8803
-12.4001 -17.8595 -1.5942 0.9165
-15.2678 -27.9608 -2.3359 0.8801
-12.2005 -29.4546 -2.3376 0.8800
-11.1436 -29.8772 -2.3381 0.8799
-8.7968 -29.9592 -2.2894 0.8823
-0.9420 -13.1713 -0.9682 0.9484
-0.4661 -13.0494 -0.9574 0.9490
0.0000 -31.8958 -2.3387 0.8799
3.4078 -31.6967 -2.3375 0.8800
4.5359 -31.5479 -2.3369 0.8800
5.6576 -31.3577 -2.3363 0.8800
6.7712 -31.1264 -2.3356 0.8801
8.9687 -30.5446 -2.3341 0.8801
11.1164 -29.8043 -2.3324 0.8802
13.2031 -28.9107 -2.3304 0.8803
12.9871 -25.9449 -2.1274 0.8901
14.9821 -27.4377 -2.2922 0.8822
15.9969 -26.9614 -2.2986 0.8818
17.1096 -24.6425 -2.1997 0.8866
21.5497 -23.1460 -2.3188 0.8809
19.4797 -16.8792 -1.8899 0.9018
24.5567 -19.7890 -2.3124 0.8812
16.7066 -11.5996 -1.4913 0.9217
27.6601 -15.1035 -2.3107 0.8813
29.6274 -11.0504 -2.3185 0.8809
31.9100 -10.6207 -2.4659 0.8738
32.7122 -8.3493 -2.4754 0.8734
33.0202 -7.1831 -2.4777 0.8733
33.2870 -6.0056 -2.4801 0.8731
33.5123 -4.8183 -2.4825 0.8730
33.6956 -3.6227 -2.4849 0.8729
33.8366 -2.4200 -2.4873 0.8728
33.9350 -1.2120 -2.4898 0.8727
-26.1381 0.0000 -2.5094 0.9003
-26.1014 -0.9322 -2.5075 0.9004
-26.0314 -1.8618 -2.5055 0.9004
-25.9283 -2.7876 -2.5036 0.9005
-25.7923 -3.7084 -2.5017 0.9006
-25.6237 -4.6230 -2.4997 0.9007
-25.4228 -5.5304 -2.4978 0.9007
-25.1898 -6.4293 -2.4959 0.9008
-23.9459 -9.9187 -2.4883 0.9011
-22.7599 -11.3928 -2.4435 0.9028
-21.3177 -11.6404 -2.3318 0.9070
-18.8473 -15.1881 -2.3238 0.9073
-18.2813 -15.8408 -2.3223 0.9074
-17.6930 -16.4728 -2.3209 0.9074
-12.0774 -12.0774 -1.6397 0.9337
-11.0282 -11.8451 -1.5538 0.9370
-9.6020 -11.9154 -1.4691 0.9404
-14.4887 -19.3546 -2.3211 0.9074
-11.8520 -17.0701 -1.9951 0.9199
-13.0786 -20.3507 -2.3224 0.9074
-11.5992 -21.2424 -2.3236 0.9073
-10.8360 -21.6476 -2.3241 0.9073
-10.0584 -22.0248 -2.3246 0.9073
-9.2675 -22.3737 -2.3250 0.9073
-8.4642 -22.6935 -2.3253 0.9073
-5.0425 -17.1732 -1.7183 0.9306
-2.5539 -11.7402 -1.1535 0.9529
-2.1180 -11.7391 -1.1452 0.9532
-0.4662 -13.0521 -1.2539 0.9489
0.0000 -24.2260 -2.3258 0.9072
1.2008 -16.7896 -1.6160 0.9346
2.5886 -24.0779 -2.3249 0.9073
3.4458 -23.9662 -2.3245 0.9073
8.4490 -22.6527 -2.3211 0.9074
6.9326 -16.7368 -1.7392 0.9298
11.5709 -21.1906 -2.3179 0.9075
12.3152 -20.7562 -2.3170 0.9076
13.6363 -16.9216 -2.0864 0.9164
15.7708 -18.2005 -2.3121 0.9078
16.4026 -17.6176 -2.3110 0.9078
17.6174 -16.4024 -2.3109 0.9078
18.0311 -13.4979 -2.1624 0.9135
16.6146 -11.5357 -1.9419 0.9219
18.8550 -12.1174 -2.1518 0.9139
20.2446 -12.0117 -2.2599 0.9097
23.8159 -9.8649 -2.4748 0.9016
25.2764 -5.4985 -2.4834 0.9013
25.7760 -2.7712 -2.4889 0.9011
25.8779 -1.8508 -2.4908 0.9010
-21.0867 -0.7531 -2.5064 0.9185
-20.9531 -2.2527 -2.5033 0.9186
-20.8463 -2.9972 -2.5017 0.9187
-20.5537 -4.4712 -2.4986 0.9188
-20.3683 -5.1987 -2.4970 0.9188
-19.0635 -8.7060 -2.4894 0.9190
-17.5414 -11.2732 -2.4769 0.9194
-15.7027 -11.7549 -2.3300 0.9240
-15.2650 -12.3013 -2.3288 0.9241
-11.0661 -11.8858 -1.9291 0.9367
-12.8063 -14.7793 -2.3229 0.9242
-10.5543 -16.4228 -2.3189 0.9244
-9.3486 -17.1208 -2.3171 0.9244
-8.7292 -17.4387 -2.3165 0.9245
-5.4975 -18.7228 -2.3179 0.9244
-2.5541 -11.7408 -1.4273 0.9528
-2.0862 -19.4041 -2.3182 0.9244
0.0000 -19.5133 -2.3179 0.9244
0.5218 -14.6114 -1.7367 0.9428
1.3918 -19.4600 -2.3175 0.9244
2.7758 -19.3063 -2.3169 0.9244
3.4626 -19.1920 -2.3165 0.9245
4.1447 -19.0529 -2.3162 0.9245
4.8212 -18.8893 -2.3157 0.9245
5.4912 -18.7014 -2.3152 0.9245
6.1538 -18.4893 -2.3147 0.9245
7.0088 -16.9207 -2.1755 0.9289
8.0889 -17.7121 -2.3130 0.9246
8.7134 -17.4072 -2.3123 0.9246
9.3275 -17.0820 -2.3119 0.9246
10.5274 -16.3809 -2.3130 0.9246
11.1083 -15.9990 -2.3136 0.9245
12.7666 -14.7335 -2.3158 0.9245
13.7949 -13.7950 -2.3174 0.9244
14.2840 -13.2988 -2.3183 0.9244
16.0583 -11.1495 -2.3222 0.9243
16.8902 -10.8547 -2.3849 0.9223
17.8901 -10.6147 -2.4710 0.9196
18.2956 -9.9902 -2.4761 0.9195
18.9810 -8.6683 -2.4787 0.9194
19.2885 -7.9896 -2.4800 0.9193
19.5720 -7.3000 -2.4813 0.9193
20.0652 -5.8917 -2.4841 0.9192
20.6158 -3.7195 -2.4884 0.9191
20.7477 -2.9831 -2.4899 0.9190
20.8535 -2.2420 -2.4914 0.9190
20.9859 -0.7495 -2.4944 0.9189
-17.6730 -0.6312 -2.5057 0.9310
-17.5646 -1.8884 -2.5031 0.9311
-17.2350 -3.7493 -2.4991 0.9312
-17.0813 -4.3598 -2.4978 0.9313
-16.9061 -4.9641 -2.4965 0.9313
-16.7095 -5.5615 -2.4952 0.9313
-16.2536 -6.7325 -2.4927 0.9314
-15.9949 -7.3046 -2.4915 0.9314
-15.1002 -8.9594 -2.4878 0.9315
-14.7638 -9.4881 -2.4866 0.9316
-14.4089 -10.0043 -2.4854 0.9316
-14.0362 -10.5074 -2.4843 0.9316
-13.6307 -10.9843 -2.4804 0.9317
-13.0016 -11.2660 -2.4376 0.9329
-11.6235 -11.6235 -2.3291 0.9357
-9.8357 -13.1389 -2.3255 0.9358
-8.3662 -14.1004 -2.3231 0.9359
-6.8048 -14.9005 -2.3210 0.9360
-5.1691 -15.5307 -2.3192 0.9360
-2.5542 -11.7414 -1.7025 0.9526
-2.3273 -16.1867 -2.3171 0.9361
-0.9435 -13.1917 -1.8739 0.9480
0.0000 -16.3461 -2.3161 0.9361
1.7471 -16.2504 -2.3158 0.9361
2.9019 -16.0844 -2.3158 0.9361
3.4743 -15.9711 -2.3159 0.9361
4.0423 -15.8376 -2.3160 0.9361
6.2575 -15.1069 -2.3168 0.9361
6.7936 -14.8760 -2.3172 0.9361
7.3214 -14.6263 -2.3175 0.9361
7.8402 -14.3582 -2.3179 0.9360
8.3492 -14.0719 -2.3184 0.9360
8.8480 -13.7678 -2.3189 0.9360
9.3359 -13.4462 -2.3194 0.9360
9.0410 -12.0773 -2.1376 0.9409
11.1664 -11.9935 -2.3219 0.9359
12.0010 -11.1733 -2.3233 0.9359
13.5257 -10.8997 -2.4613 0.9322
13.9885 -10.4717 -2.4759 0.9318
15.3638 -8.3893 -2.4803 0.9317
15.9368 -7.2781 -2.4824 0.9317
16.1936 -6.7076 -2.4835 0.9316
16.4302 -6.1281 -2.4846 0.9316
17.1676 -3.7346 -2.4894 0.9315
17.4075 -2.5028 -2.4918 0.9314
17.4946 -1.8809 -2.4931 0.9314
17.6022 -0.6287 -2.4956 0.9313
-15.2136 0.0000 -2.5063 0.9402
-15.1971 -0.5428 -2.5052 0.9402
-15.1612 -1.0843 -2.5040 0.9402
-15.1061 -1.6241 -2.5029 0.9403
-15.0317 -2.1612 -2.5018 0.9403
-14.8259 -3.2252 -2.4995 0.9403
-14.6947 -3.7506 -2.4984 0.9404
-14.5450 -4.2708 -2.4973 0.9404
-14.3769 -4.7851 -2.4962 0.9404
-14.1907 -5.2929 -2.4951 0.9404
-13.7650 -6.2863 -2.4929 0.9405
-13.2702 -7.2461 -2.4908 0.9405
-12.7089 -8.1675 -2.4887 0.9406
-11.7491 -9.4680 -2.4858 0.9407
-11.0354 -10.2744 -2.4839 0.9407
-10.6578 -10.6578 -2.4830 0.9407
-10.2506 -11.0099 -2.4782 0.9408
-9.7234 -11.2214 -2.4461 0.9416
-7.6382 -11.8852 -2.3274 0.9443
-7.2071 -12.1468 -2.3268 0.9444
-6.7671 -12.3930 -2.3261 0.9444
-6.3188 -12.6233 -2.3255 0.9444
-5.8628 -12.8377 -2.3250 0.9444
-4.4540 -13.3820 -2.3234 0.9444
-3.0676 -12.0188 -2.0434 0.9510
-2.1183 -11.7407 -1.9654 0.9528
-2.0056 -13.9490 -2.3216 0.9445
-1.3280 -12.3524 -2.0466 0.9509
0.0000 -12.3782 -2.0392 0.9511
1.5057 -14.0050 -2.3205 0.9445
3.4837 -13.6491 -2.3206 0.9445
3.9689 -13.5169 -2.3208 0.9445
4.4492 -13.3676 -2.3209 0.9445
4.9239 -13.2014 -2.3211 0.9445
5.3925 -13.0186 -2.3214 0.9445
5.8544 -12.8194 -2.3217 0.9445
7.1945 -12.1256 -2.3227 0.9444
7.6241 -11.8632 -2.3231 0.9444
8.4543 -11.2937 -2.3241 0.9444
10.2002 -10.9558 -2.4660 0.9411
11.3698 -9.8520 -2.4784 0.9408
12.0511 -9.0213 -2.4799 0.9408
12.6722 -8.1440 -2.4816 0.9408
13.4845 -6.7499 -2.4842 0.9407
13.9422 -5.7750 -2.4861 0.9407
14.1450 -5.2758 -2.4870 0.9406
14.4970 -4.2567 -2.4890 0.9406
14.6457 -3.7381 -2.4901 0.9406
14.7760 -3.2143 -2.4911 0.9405
14.9804 -2.1539 -2.4932 0.9405
15.0542 -1.6185 -2.4943 0.9405
15.1447 -0.5409 -2.4965 0.9404
-13.2868 -0.9503 -2.5038 0.9472
-13.2392 -1.4234 -2.5028 0.9472
-13.0935 -2.3623 -2.5008 0.9473
-12.9957 -2.8271 -2.4998 0.9473
-12.8815 -3.2878 -2.4988 0.9473
-12.4417 -4.6405 -2.4959 0.9474
-12.2635 -5.0797 -2.4950 0.9474
-11.8609 -5.9371 -2.4931 0.9474
-11.6371 -6.3544 -2.4922 0.9475
-11.3987 -6.7632 -2.4913 0.9475
-10.8795 -7.5537 -2.4895 0.9475
-10.5992 -7.9345 -2.4886 0.9475
-10.3058 -8.3049 -2.4878 0.9476
-8.6538 -9.9870 -2.4838 0.9476
-6.1066 -11.1834 -2.3950 0.9495
-5.1451 -11.2663 -2.3280 0.9508
-4.7388 -11.4404 -2.3275 0.9508
-3.9091 -11.7450 -2.3267 0.9509
-3.0187 -11.8272 -2.2943 0.9515
-2.1184 -11.7413 -2.2425 0.9526
0.0000 -12.2708 -2.3064 0.9513
0.4386 -12.2794 -2.3095 0.9512
0.8821 -12.3332 -2.3241 0.9509
2.1954 -12.1681 -2.3241 0.9509
2.6283 -12.0823 -2.3241 0.9509
3.0580 -11.9812 -2.3242 0.9509
3.4839 -11.8650 -2.3243 0.9509
3.9054 -11.7339 -2.3245 0.9509
4.3221 -11.5879 -2.3246 0.9509
7.0688 -10.9992 -2.4576 0.9482
7.5038 -10.8076 -2.4730 0.9479
7.8996 -10.5526 -2.4777 0.9478
8.6367 -9.9673 -2.4789 0.9477
9.3300 -9.3300 -2.4801 0.9477
10.8526 -7.5351 -2.4833 0.9476
11.1179 -7.1450 -2.4841 0.9476
11.8289 -5.9211 -2.4864 0.9476
12.8438 -3.2782 -2.4915 0.9475
13.0546 -2.3553 -2.4934 0.9474
13.2772 -0.4742 -2.4972 0.9474
-11.8137 -0.8449 -2.5036 0.9527
-11.7719 -1.2656 -2.5027 0.9527
-11.7151 -1.6844 -2.5018 0.9528
-11.5570 -2.5141 -2.5001 0.9528
-11.4559 -2.9239 -2.4992 0.9528
-11.3403 -3.3298 -2.4983 0.9528
-11.2104 -3.7312 -2.4974 0.9528
-11.0663 -4.1275 -2.4966 0.9529
-10.9082 -4.5183 -2.4957 0.9529
-10.5510 -5.2814 -2.4941 0.9529
-10.1407 -6.0167 -2.4924 0.9529
-9.4305 -7.0596 -2.4901 0.9530
-9.1697 -7.3894 -2.4893 0.9530
-8.8975 -7.7097 -2.4886 0.9530
-8.3201 -8.3201 -2.4872 0.9530
-7.7012 -8.8876 -2.4858 0.9531
-7.3771 -9.1545 -2.4852 0.9531
-7.0439 -9.4096 -2.4846 0.9531
-6.7020 -9.6527 -2.4840 0.9531
-6.3517 -9.8834 -2.4834 0.9531
-5.6280 -10.3069 -2.4823 0.9531
-5.2555 -10.4991 -2.4818 0.9531
-4.0930 -10.9738 -2.4757 0.9532
-2.0082 -11.1304 -2.3907 0.9548
-1.5999 -11.1277 -2.3764 0.9551
0.0000 -11.1118 -2.3488 0.9556
0.3967 -11.1065 -2.3492 0.9556
0.7939 -11.1007 -2.3525 0.9555
1.5941 -11.0874 -2.3678 0.9552
1.9990 -11.0799 -2.3799 0.9550
3.2456 -11.0535 -2.4351 0.9540
3.6755 -11.0432 -2.4602 0.9535
4.0867 -10.9569 -2.4719 0.9533
4.8683 -10.6600 -2.4772 0.9532
5.6208 -10.2937 -2.4791 0.9532
7.3648 -9.1391 -2.4810 0.9531
8.3043 -8.3043 -2.4825 0.9531
8.5973 -8.0044 -2.4830 0.9531
9.4103 -7.0444 -2.4847 0.9531
9.6581 -6.7058 -2.4854 0.9531
9.8939 -6.3584 -2.4860 0.9531
10.1173 -6.0029 -2.4867 0.9530
10.3279 -5.6395 -2.4874 0.9530
11.4261 -2.9163 -2.4927 0.9529
11.5267 -2.5075 -2.4935 0.9529
11.7404 -1.2622 -2.4960 0.9529
11.7820 -0.8427 -2.4968 0.9529
11.8087 -0.4217 -2.4977 0.9528
-10.6584 0.0000 -2.5050 0.9571
-10.6246 -0.7599 -2.5034 0.9572
-10.5874 -1.1383 -2.5026 0.9572
-10.3952 -2.2613 -2.5002 0.9572
-9.8133 -4.0648 -2.4964 0.9573
-9.6590 -4.4111 -2.4956 0.9573
-9.4925 -4.7516 -2.4949 0.9573
-9.3141 -5.0859 -2.4941 0.9573
-9.1240 -5.4135 -2.4934 0.9573
-8.0067 -6.9379 -2.4899 0.9574
-7.7520 -7.2173 -2.4893 0.9574
-7.2137 -7.7481 -2.4880 0.9574
-6.9309 -7.9987 -2.4874 0.9574
-6.6395 -8.2391 -2.4869 0.9575
-6.3397 -8.4689 -2.4863 0.9575
-6.0321 -8.6879 -2.4858 0.9575
-5.7170 -8.8958 -2.4852 0.9575
-3.6915 -9.8972 -2.4826 0.9575
-2.6113 -10.2310 -2.4816 0.9575
-2.2442 -10.3165 -2.4813 0.9575
-1.8744 -10.3890 -2.4811 0.9575
-0.7529 -10.5273 -2.4805 0.9576
-0.3767 -10.5468 -2.4803 0.9576
1.5017 -10.4447 -2.4800 0.9576
1.8736 -10.3846 -2.4800 0.9576
2.2431 -10.3113 -2.4801 0.9576
2.6098 -10.2249 -2.4801 0.9576
2.9732 -10.1257 -2.4802 0.9576
3.3329 -10.0136 -2.4804 0.9576
4.0393 -9.7517 -2.4807 0.9576
5.3881 -9.0812 -2.4817 0.9575
6.3306 -8.4567 -2.4827 0.9575
6.9200 -7.9861 -2.4835 0.9575
7.4748 -7.4748 -2.4844 0.9575
7.7383 -7.2046 -2.4849 0.9575
8.9043 -5.7224 -2.4876 0.9574
9.1051 -5.4023 -2.4882 0.9574
9.2944 -5.0751 -2.4888 0.9574
9.7914 -4.0557 -2.4908 0.9574
9.9326 -3.7047 -2.4915 0.9574
10.0613 -3.3487 -2.4922 0.9574
10.1773 -2.9883 -2.4929 0.9574
10.2805 -2.6239 -2.4936 0.9573
10.3706 -2.2560 -2.4943 0.9573
10.4476 -1.8850 -2.4951 0.9573
10.5114 -1.5113 -2.4958 0.9573
10.5619 -1.1355 -2.4966 0.9573
10.5989 -0.7580 -2.4974 0.9573
-9.6648 -0.3452 -2.5040 0.9608
-9.6100 -1.0332 -2.5026 0.9609
-9.5064 -1.7151 -2.5011 0.9609
-9.4364 -2.0528 -2.5004 0.9609
-9.1551 -3.0471 -2.4983 0.9609
-9.0380 -3.3710 -2.4976 0.9609
-8.9094 -3.6904 -2.4969 0.9609
-8.7696 -4.0049 -2.4962 0.9609
-8.4570 -4.6179 -2.4948 0.9610
-8.2846 -4.9155 -2.4942 0.9610
-8.1017 -5.2067 -2.4935 0.9610
-7.7057 -5.7684 -2.4923 0.9610
-7.4931 -6.0383 -2.4916 0.9610
-7.0398 -6.5543 -2.4904 0.9610
-6.7999 -6.7999 -2.4899 0.9610
-6.5514 -7.0366 -2.4893 0.9611
-6.2947 -7.2644 -2.4888 0.9611
-6.0301 -7.4829 -2.4882 0.9611
-5.7580 -7.6918 -2.4877 0.9611
-4.6013 -8.4267 -2.4859 0.9611
-4.2969 -8.5841 -2.4855 0.9611
-3.6724 -8.8661 -2.4847 0.9611
-3.3532 -8.9903 -2.4844 0.9611
-3.0298 -9.1030 -2.4841 0.9611
-2.0387 -9.3716 -2.4832 0.9611
-1.0249 -9.5334 -2.4826 0.9612
-0.6840 -9.5633 -2.4824 0.9612
-0.3422 -9.5811 -2.4823 0.9612
0.0000 -9.5868 -2.4822 0.9612
0.3422 -9.5804 -2.4821 0.9612
0.6839 -9.5618 -2.4821 0.9612
1.3642 -9.4885 -2.4820 0.9612
2.0377 -9.3672 -2.4821 0.9612
2.3708 -9.2888 -2.4821 0.9612
3.3506 -8.9834 -2.4825 0.9612
3.6694 -8.8587 -2.4826 0.9612
4.2927 -8.5757 -2.4831 0.9611
4.5965 -8.4178 -2.4833 0.9611
4.8945 -8.2493 -2.4836 0.9611
6.5416 -7.0262 -2.4856 0.9611
7.0286 -6.5438 -2.4865 0.9611
7.4803 -6.0280 -2.4874 0.9611
7.6922 -5.7583 -2.4879 0.9611
8.7521 -3.9970 -2.4912 0.9610
8.8914 -3.6829 -2.4918 0.9610
9.3346 -2.3825 -2.4944 0.9610
9.4162 -2.0484 -2.4950 0.9610
9.5435 -1.3721 -2.4964 0.9609
9.6224 -0.6882 -2.4978 0.9609
-8.8196 -0.6308 -2.5032 0.9639
-8.7892 -0.9449 -2.5025 0.9639
-8.6948 -1.5687 -2.5012 0.9639
-8.4707 -2.4872 -2.4992 0.9640
-8.3744 -2.7873 -2.4986 0.9640
-8.2674 -3.0836 -2.4979 0.9640
-8.1500 -3.3758 -2.4973 0.9640
-7.8845 -3.9467 -2.4961 0.9640
-7.7367 -4.2245 -2.4954 0.9640
-6.8556 -5.5246 -2.4925 0.9641
-6.6526 -5.7645 -2.4920 0.9641
-6.4412 -5.9970 -2.4914 0.9641
-5.5177 -6.8471 -2.4894 0.9641
-5.0134 -7.2206 -2.4885 0.9641
-3.9322 -7.8555 -2.4869 0.9641
-3.3608 -8.1137 -2.4862 0.9641
-3.0687 -8.2275 -2.4859 0.9642
-1.5583 -8.6371 -2.4846 0.9642
-1.2489 -8.6866 -2.4844 0.9642
-0.9380 -8.7250 -2.4842 0.9642
-0.6260 -8.7525 -2.4841 0.9642
-0.3132 -8.7688 -2.4840 0.9642
0.0000 -8.7740 -2.4839 0.9642
0.9378 -8.7232 -2.4837 0.9642
1.5578 -8.6341 -2.4837 0.9642
1.8650 -8.5731 -2.4838 0.9642
2.4720 -8.4187 -2.4839 0.9642
2.7710 -8.3255 -2.4840 0.9642
3.0665 -8.2217 -2.4841 0.9642
3.9287 -7.8484 -2.4847 0.9642
4.2067 -7.7039 -2.4849 0.9642
4.4794 -7.5496 -2.4851 0.9642
4.7465 -7.3857 -2.4854 0.9642
5.0076 -7.2124 -2.4857 0.9642
5.5108 -6.8385 -2.4863 0.9641
5.9863 -6.4297 -2.4870 0.9641
6.4318 -5.9882 -2.4878 0.9641
6.6425 -5.7558 -2.4882 0.9641
6.8449 -5.5160 -2.4886 0.9641
7.0387 -5.2691 -2.4891 0.9641
7.3995 -4.7554 -2.4900 0.9641
7.5661 -4.4892 -2.4905 0.9641
7.8703 -3.9396 -2.4916 0.9641
8.0077 -3.6570 -2.4921 0.9641
8.1349 -3.3696 -2.4927 0.9641
8.3584 -2.7819 -2.4938 0.9640
8.4544 -2.4824 -2.4944 0.9640
8.5396 -2.1796 -2.4950 0.9640
8.6141 -1.8739 -2.4956 0.9640
8.6776 -1.5656 -2.4962 0.9640
8.8020 -0.6295 -2.4981 0.9640
8.8211 -0.3150 -2.4988 0.9640
-8.1172 -0.5806 -2.5031 0.9665
-7.8757 -2.0101 -2.5000 0.9666
-7.7970 -2.2894 -2.4994 0.9666
-7.7085 -2.5656 -2.4989 0.9666
-7.6102 -2.8385 -2.4983 0.9666
-7.3849 -3.3726 -2.4971 0.9666
-7.2582 -3.6332 -2.4965 0.9666
-7.1223 -3.8890 -2.4960 0.9666
-6.8236 -4.3853 -2.4949 0.9666
-6.6613 -4.6250 -2.4943 0.9666
-6.4906 -4.8588 -2.4938 0.9666
-6.1249 -5.3073 -2.4928 0.9667
-5.9304 -5.5214 -2.4923 0.9667
-5.7285 -5.7285 -2.4918 0.9667
-5.5193 -5.9281 -2.4913 0.9667
-5.0805 -6.3045 -2.4904 0.9667
-4.8514 -6.4807 -2.4900 0.9667
-4.6162 -6.6486 -2.4896 0.9667
-4.1289 -6.9588 -2.4888 0.9667
-3.3599 -7.3572 -2.4877 0.9667
-1.9992 -7.8326 -2.4864 0.9667
-1.7182 -7.8983 -2.4862 0.9667
0.0000 -8.0802 -2.4853 0.9668
0.5764 -8.0592 -2.4852 0.9668
0.8637 -8.0334 -2.4851 0.9668
1.1499 -7.9975 -2.4851 0.9668
1.4346 -7.9514 -2.4852 0.9668
1.9982 -7.8290 -2.4852 0.9668
3.3574 -7.3516 -2.4858 0.9667
3.6179 -7.2276 -2.4860 0.9667
3.8739 -7.0945 -2.4862 0.9667
4.1250 -6.9523 -2.4864 0.9667
4.3709 -6.8013 -2.4867 0.9667
4.8460 -6.4735 -2.4872 0.9667
5.0746 -6.2972 -2.4875 0.9667
5.2968 -6.1129 -2.4878 0.9667
5.7210 -5.7210 -2.4885 0.9667
5.9224 -5.5140 -2.4889 0.9667
6.1164 -5.2999 -2.4893 0.9667
6.6512 -4.6180 -2.4905 0.9667
6.8130 -4.3785 -2.4910 0.9667
6.9663 -4.1333 -2.4914 0.9667
7.2462 -3.6272 -2.4924 0.9667
7.3725 -3.3669 -2.4929 0.9667
7.4895 -3.1023 -2.4934 0.9666
7.7832 -2.2854 -2.4950 0.9666
7.9883 -1.4412 -2.4967 0.9666
8.0365 -1.1555 -2.4973 0.9666
8.0745 -0.8681 -2.4979 0.9666
-7.5268 -0.2688 -2.5035 0.9688
-7.4851 -0.8047 -2.5024 0.9688
-7.4499 -1.0711 -2.5019 0.9688
-7.3512 -1.5992 -2.5007 0.9688
-7.2879 -1.8601 -2.5002 0.9688
-7.2152 -2.1186 -2.4996 0.9688
-7.1334 -2.3742 -2.4991 0.9688
-6.9429 -2.8758 -2.4980 0.9688
-6.8343 -3.1211 -2.4975 0.9688
-5.8418 -4.7076 -2.4939 0.9689
-5.6690 -4.9122 -2.4934 0.9689
-4.9088 -5.6650 -2.4917 0.9689
-4.7027 -5.8356 -2.4913 0.9689
-4.0500 -6.3020 -2.4901 0.9689
-3.3518 -6.6961 -2.4891 0.9689
-2.8649 -6.9165 -2.4885 0.9689
-1.8507 -7.2510 -2.4875 0.9689
-1.5906 -7.3118 -2.4873 0.9690
-1.0648 -7.4056 -2.4870 0.9690
0.2670 -7.4755 -2.4865 0.9690
0.5336 -7.4610 -2.4864 0.9690
1.0645 -7.4038 -2.4864 0.9690
1.5900 -7.3092 -2.4864 0.9690
1.8499 -7.2479 -2.4865 0.9690
2.8630 -6.9120 -2.4869 0.9690
3.3493 -6.6910 -2.4872 0.9690
3.8187 -6.4360 -2.4876 0.9689
4.0463 -6.2962 -2.4878 0.9689
4.2689 -6.1483 -2.4881 0.9689
4.9033 -5.6587 -2.4889 0.9689
5.2958 -5.2958 -2.4895 0.9689
5.6617 -4.9059 -2.4902 0.9689
6.1566 -4.2746 -2.4914 0.9689
6.3062 -4.0528 -2.4918 0.9689
6.5816 -3.5938 -2.4927 0.9689
6.7069 -3.3572 -2.4931 0.9689
6.9319 -2.8713 -2.4941 0.9689
7.1219 -2.3704 -2.4950 0.9689
7.2034 -2.1151 -2.4955 0.9688
7.2758 -1.8570 -2.4960 0.9688
7.3389 -1.5965 -2.4966 0.9688
7.4373 -1.0693 -2.4976 0.9688
-7.0019 0.0000 -2.5039 0.9707
-6.9960 -0.2499 -2.5034 0.9707
-6.9575 -0.7480 -2.5024 0.9707
-6.9249 -0.9956 -2.5019 0.9707
-6.7072 -1.9694 -2.4998 0.9707
-6.2447 -3.1258 -2.4973 0.9708
-6.1279 -3.3461 -2.4968 0.9708
-6.0034 -3.5620 -2.4963 0.9708
-5.4314 -4.3769 -2.4945 0.9708
-5.2708 -4.5671 -2.4940 0.9708
-5.1035 -4.7515 -2.4936 0.9708
-4.7500 -5.1018 -2.4928 0.9708
-4.3726 -5.4260 -2.4920 0.9708
-4.1755 -5.5778 -2.4916 0.9708
-3.3374 -6.1120 -2.4903 0.9709
-2.8922 -6.3330 -2.4897 0.9709
-2.6640 -6.4315 -2.4895 0.9709
-2.4325 -6.5218 -2.4892 0.9709
-2.1980 -6.6039 -2.4890 0.9709
-1.2354 -6.8473 -2.4882 0.9709
-0.9901 -6.8866 -2.4880 0.9709
0.0000 -6.9563 -2.4876 0.9709
0.2483 -6.9517 -2.4876 0.9709
0.7436 -6.9160 -2.4875 0.9709
0.9899 -6.8851 -2.4875 0.9709
1.4786 -6.7970 -2.4875 0.9709
1.9598 -6.6746 -2.4876 0.9709
2.4312 -6.5182 -2.4878 0.9709
2.8903 -6.3288 -2.4881 0.9709
3.1145 -6.2220 -2.4882 0.9709
3.3349 -6.1073 -2.4884 0.9709
4.1715 -5.5725 -2.4893 0.9709
4.5594 -5.2618 -2.4898 0.9709
4.7449 -5.0963 -2.4901 0.9709
5.2644 -4.5617 -2.4910 0.9708
5.4247 -4.3715 -2.4914 0.9708
5.5780 -4.1757 -2.4917 0.9708
5.7244 -3.9745 -2.4921 0.9708
6.1194 -3.3414 -2.4933 0.9708
6.2358 -3.1214 -2.4937 0.9708
6.4448 -2.6695 -2.4946 0.9708
6.6969 -1.9664 -2.4960 0.9708
6.8228 -1.4842 -2.4969 0.9708
6.8728 -1.2400 -2.4974 0.9708
6.9465 -0.7468 -2.4984 0.9708
6.9701 -0.4985 -2.4989 0.9708
6.9849 -0.2495 -2.4994 0.9707
-6.5336 0.0000 -2.5038 0.9724
-6.5282 -0.2331 -2.5033 0.9724
-6.5145 -0.4659 -2.5028 0.9724
-6.4621 -0.9291 -2.5019 0.9724
-6.4236 -1.1589 -2.5014 0.9724
-6.2593 -1.8379 -2.4999 0.9724
-6.1885 -2.0597 -2.4995 0.9724
-6.0235 -2.4950 -2.4985 0.9725
-5.9295 -2.7079 -2.4981 0.9725
-5.6030 -3.3244 -2.4967 0.9725
-5.0694 -4.0852 -2.4950 0.9725
-4.7635 -4.4350 -2.4942 0.9725
-4.6015 -4.6015 -2.4938 0.9725
-4.4336 -4.7620 -2.4934 0.9725
-4.0814 -5.0647 -2.4927 0.9725
-3.7087 -5.3415 -2.4920 0.9725
-3.1153 -5.7053 -2.4911 0.9725
-2.9094 -5.8122 -2.4908 0.9725
-2.6998 -5.9117 -2.4905 0.9725
-2.4868 -6.0037 -2.4903 0.9725
-2.2707 -6.0880 -2.4900 0.9725
-1.8303 -6.2335 -2.4896 0.9726
-1.3808 -6.3472 -2.4893 0.9726
-0.9243 -6.4288 -2.4890 0.9726
-0.4633 -6.4777 -2.4887 0.9726
-0.2318 -6.4899 -2.4886 0.9726
0.0000 -6.4939 -2.4886 0.9726
0.2318 -6.4896 -2.4885 0.9726
0.4632 -6.4771 -2.4885 0.9726
1.3803 -6.3452 -2.4885 0.9726
1.6059 -6.2920 -2.4885 0.9726
1.8295 -6.2309 -2.4886 0.9726
2.0508 -6.1618 -2.4887 0.9726
3.1131 -5.7012 -2.4893 0.9726
3.3149 -5.5869 -2.4895 0.9726
3.5124 -5.4654 -2.4897 0.9726
3.7056 -5.3370 -2.4899 0.9726
3.8940 -5.2018 -2.4901 0.9725
4.2561 -4.9118 -2.4906 0.9725
4.4291 -4.7572 -2.4909 0.9725
4.5966 -4.5966 -2.4912 0.9725
4.9141 -4.2580 -2.4918 0.9725
5.2067 -3.8977 -2.4924 0.9725
5.3432 -3.7099 -2.4928 0.9725
5.4730 -3.5173 -2.4931 0.9725
5.5959 -3.3202 -2.4935 0.9725
5.7117 -3.1188 -2.4939 0.9725
5.8203 -2.9134 -2.4943 0.9725
5.9215 -2.7043 -2.4947 0.9725
6.0153 -2.4916 -2.4951 0.9725
6.2504 -1.8353 -2.4964 0.9725
6.3130 -1.6113 -2.4968 0.9725
6.4828 -0.6970 -2.4987 0.9725
6.5048 -0.4652 -2.4991 0.9725
-6.1174 0.0000 -2.5037 0.9739
-6.1124 -0.2183 -2.5032 0.9739
-6.0996 -0.4362 -2.5028 0.9739
-6.0507 -0.8700 -2.5019 0.9739
-6.0147 -1.0852 -2.5014 0.9739
-5.9711 -1.2989 -2.5010 0.9739
-5.8611 -1.7210 -2.5001 0.9739
-5.3557 -2.9244 -2.4974 0.9740
-5.2470 -3.1132 -2.4970 0.9740
-4.8818 -3.6544 -2.4958 0.9740
-4.7475 -3.8258 -2.4954 0.9740
-4.6072 -3.9922 -2.4950 0.9740
-4.4611 -4.1534 -2.4947 0.9740
-4.3094 -4.3094 -2.4943 0.9740
-4.1523 -4.4598 -2.4939 0.9740
-3.9899 -4.6046 -2.4936 0.9740
-3.6503 -4.8762 -2.4929 0.9740
-3.2923 -5.1229 -2.4923 0.9740
-2.7249 -5.4437 -2.4915 0.9740
-2.5286 -5.5369 -2.4913 0.9740
-2.3292 -5.6231 -2.4910 0.9740
-1.5047 -5.8955 -2.4902 0.9740
-1.0802 -5.9871 -2.4899 0.9740
-0.6503 -6.0483 -2.4897 0.9741
-0.4339 -6.0674 -2.4896 0.9741
-0.2171 -6.0788 -2.4895 0.9741
0.6502 -6.0474 -2.4893 0.9741
0.8656 -6.0203 -2.4893 0.9741
1.2929 -5.9433 -2.4893 0.9741
1.5042 -5.8935 -2.4894 0.9741
1.7137 -5.8362 -2.4894 0.9741
2.1258 -5.6994 -2.4896 0.9741
2.7232 -5.4403 -2.4900 0.9740
2.9158 -5.3400 -2.4901 0.9740
3.2898 -5.1191 -2.4905 0.9740
3.4707 -4.9988 -2.4907 0.9740
4.3052 -4.3052 -2.4918 0.9740
4.4566 -4.1492 -2.4921 0.9740
4.6024 -3.9880 -2.4924 0.9740
4.8764 -3.6504 -2.4930 0.9740
5.0042 -3.4745 -2.4934 0.9740
5.2408 -3.1095 -2.4940 0.9740
5.3492 -2.9209 -2.4944 0.9740
5.4508 -2.7285 -2.4948 0.9740
5.5456 -2.5326 -2.4951 0.9740
5.6333 -2.3334 -2.4955 0.9740
5.7873 -1.9262 -2.4963 0.9740
5.9119 -1.5089 -2.4971 0.9740
6.0706 -0.6526 -2.4989 0.9740
6.0911 -0.4356 -2.4993 0.9740
6.1039 -0.2180 -2.4998 0.9739
-5.7446 0.0000 -2.5036 0.9752
-5.7087 -0.6137 -2.5023 0.9753
-5.6822 -0.8170 -2.5019 0.9753
-5.6485 -1.0191 -2.5015 0.9753
-5.5595 -1.4190 -2.5006 0.9753
-5.4423 -1.8114 -2.4998 0.9753
-5.3733 -2.0041 -2.4993 0.9753
-4.7055 -3.2671 -2.4966 0.9753
-4.5852 -3.4324 -2.4962 0.9753
-4.4591 -3.5933 -2.4958 0.9753
-4.1902 -3.9012 -2.4951 0.9753
-3.9001 -4.1890 -2.4944 0.9753
-3.5904 -4.4555 -2.4938 0.9753
-3.2627 -4.6991 -2.4932 0.9753
-2.7408 -5.0193 -2.4924 0.9754
-2.3752 -5.2011 -2.4919 0.9754
-1.9978 -5.3563 -2.4915 0.9754
-1.2149 -5.5846 -2.4908 0.9754
-0.8133 -5.6564 -2.4905 0.9754
-0.6108 -5.6816 -2.4904 0.9754
-0.4076 -5.6996 -2.4903 0.9754
-0.2039 -5.7103 -2.4902 0.9754
0.2039 -5.7100 -2.4901 0.9754
0.4076 -5.6990 -2.4901 0.9754
0.6108 -5.6808 -2.4901 0.9754
0.8131 -5.6554 -2.4901 0.9754
1.0145 -5.6228 -2.4901 0.9754
1.6098 -5.4824 -2.4902 0.9754
1.8045 -5.4216 -2.4903 0.9754
1.9969 -5.3539 -2.4903 0.9754
2.1868 -5.2794 -2.4904 0.9754
2.5581 -5.1105 -2.4907 0.9754
3.4260 -4.5766 -2.4915 0.9754
3.5875 -4.4518 -2.4917 0.9754
3.7445 -4.3213 -2.4920 0.9754
3.8967 -4.1853 -2.4922 0.9754
4.1862 -3.8975 -2.4927 0.9754
4.3231 -3.7460 -2.4930 0.9753
4.7004 -3.2636 -2.4939 0.9753
4.8145 -3.0941 -2.4942 0.9753
5.0243 -2.7435 -2.4949 0.9753
5.1197 -2.5628 -2.4952 0.9753
5.2910 -2.1916 -2.4959 0.9753
5.3667 -2.0017 -2.4963 0.9753
5.4355 -1.8091 -2.4967 0.9753
5.6004 -1.2183 -2.4978 0.9753
5.6412 -1.0178 -2.4982 0.9753
5.7205 -0.4091 -2.4995 0.9753
5.7324 -0.2047 -2.4999 0.9753
-5.4084 0.0000 -2.5035 0.9764
-5.4041 -0.1930 -2.5031 0.9764
-5.3500 -0.7692 -2.5019 0.9765
-5.3182 -0.9595 -2.5015 0.9765
-5.2798 -1.1485 -2.5011 0.9765
-5.1243 -1.7055 -2.4999 0.9765
-5.0594 -1.8870 -2.4995 0.9765
-4.9103 -2.2425 -2.4987 0.9765
-4.8264 -2.4159 -2.4983 0.9765
-4.7364 -2.5863 -2.4980 0.9765
-4.5385 -2.9167 -2.4972 0.9765
-4.3176 -3.2321 -2.4965 0.9765
-4.1989 -3.3837 -2.4962 0.9765
-3.8117 -3.8116 -2.4952 0.9765
-3.3811 -4.1957 -2.4943 0.9765
-3.2288 -4.3132 -2.4940 0.9765
-3.0725 -4.4252 -2.4937 0.9765
-2.9123 -4.5316 -2.4934 0.9765
-2.7484 -4.6322 -2.4932 0.9765
-2.5811 -4.7269 -2.4929 0.9765
-2.4105 -4.8155 -2.4927 0.9765
-2.0605 -4.9744 -2.4923 0.9765
-1.8814 -5.0444 -2.4921 0.9765
-1.7001 -5.1079 -2.4919 0.9766
-1.5166 -5.1650 -2.4917 0.9766
-1.3312 -5.2155 -2.4916 0.9766
-0.7659 -5.3271 -2.4912 0.9766
-0.5753 -5.3508 -2.4911 0.9766
-0.1921 -5.3779 -2.4909 0.9766
0.7658 -5.3262 -2.4908 0.9766
1.6994 -5.1059 -2.4909 0.9766
1.8806 -5.0422 -2.4910 0.9766
2.4092 -4.8129 -2.4913 0.9766
2.5796 -4.7241 -2.4915 0.9766
2.7467 -4.6293 -2.4916 0.9766
3.2265 -4.3101 -2.4921 0.9765
3.3785 -4.1925 -2.4923 0.9765
3.8083 -3.8083 -2.4930 0.9765
3.9422 -3.6704 -2.4933 0.9765
4.0711 -3.5277 -2.4935 0.9765
4.1949 -3.3805 -2.4938 0.9765
4.6355 -2.7504 -2.4950 0.9765
4.9048 -2.2400 -2.4959 0.9765
5.1183 -1.7035 -2.4970 0.9765
5.2283 -1.3344 -2.4977 0.9765
5.2734 -1.1472 -2.4981 0.9765
5.3863 -0.3852 -2.4996 0.9765
5.3975 -0.1928 -2.5000 0.9765
-5.1035 0.0000 -2.5034 0.9775
-5.0485 -0.7259 -2.5019 0.9775
-4.9398 -1.2608 -2.5008 0.9775
-4.8909 -1.4361 -2.5004 0.9775
-4.8358 -1.6095 -2.5000 0.9775
-4.7073 -1.9498 -2.4993 0.9776
-4.6340 -2.1163 -2.4989 0.9776
-4.5548 -2.2800 -2.4985 0.9776
-4.0748 -3.0504 -2.4968 0.9776
-3.7240 -3.4672 -2.4959 0.9776
-3.5974 -3.5974 -2.4956 0.9776
-3.3309 -3.8440 -2.4950 0.9776
-3.1912 -3.9600 -2.4947 0.9776
-2.7487 -4.2771 -2.4939 0.9776
-2.5941 -4.3721 -2.4937 0.9776
-2.2751 -4.5452 -2.4932 0.9776
-2.1113 -4.6231 -2.4930 0.9776
-1.7758 -4.7612 -2.4926 0.9776
-1.2565 -4.9228 -2.4922 0.9776
-1.0799 -4.9642 -2.4920 0.9776
-0.9020 -4.9994 -2.4919 0.9776
-0.7229 -5.0281 -2.4918 0.9776
-0.5430 -5.0506 -2.4917 0.9776
-0.3624 -5.0665 -2.4916 0.9776
0.1813 -5.0759 -2.4914 0.9776
0.3623 -5.0661 -2.4914 0.9776
0.5429 -5.0499 -2.4914 0.9776
0.7228 -5.0273 -2.4914 0.9776
0.9018 -4.9983 -2.4914 0.9776
1.0796 -4.9630 -2.4914 0.9776
1.2561 -4.9214 -2.4914 0.9776
1.6041 -4.8195 -2.4916 0.9776
1.9439 -4.6930 -2.4917 0.9776
2.5925 -4.3695 -2.4922 0.9776
2.8980 -4.1739 -2.4925 0.9776
3.0454 -4.0681 -2.4927 0.9776
3.1888 -3.9571 -2.4929 0.9776
3.3283 -3.8411 -2.4931 0.9776
3.5945 -3.5945 -2.4935 0.9776
3.7208 -3.4642 -2.4937 0.9776
3.8425 -3.3295 -2.4940 0.9776
3.9593 -3.1906 -2.4942 0.9776
4.0711 -3.0476 -2.4945 0.9776
4.1777 -2.9006 -2.4948 0.9776
4.2791 -2.7500 -2.4951 0.9776
4.3750 -2.5958 -2.4953 0.9776
4.7694 -1.7789 -2.4969 0.9776
4.9342 -1.2594 -2.4979 0.9776
4.9767 -1.0826 -2.4983 0.9776
5.0129 -0.9044 -2.4986 0.9776
5.0831 -0.3635 -2.4997 0.9776
-4.8117 -0.3441 -2.5026 0.9785
-4.7736 -0.6863 -2.5019 0.9785
-4.7453 -0.8561 -2.5015 0.9785
-4.6708 -1.1922 -2.5008 0.9785
-4.6247 -1.3579 -2.5005 0.9785
-4.5726 -1.5219 -2.5001 0.9785
-4.5147 -1.6839 -2.4998 0.9785
-4.4511 -1.8437 -2.4994 0.9785
-4.3819 -2.0011 -2.4991 0.9785
-4.3071 -2.1560 -2.4987 0.9785
-4.2268 -2.3080 -2.4984 0.9785
-4.1412 -2.4571 -2.4981 0.9785
-4.0503 -2.6030 -2.4977 0.9785
-3.8533 -2.8846 -2.4971 0.9785
-3.7475 -3.0199 -2.4968 0.9785
-3.5216 -3.2787 -2.4962 0.9786
-3.4020 -3.4020 -2.4959 0.9786
-3.2780 -3.5208 -2.4956 0.9786
-3.0178 -3.7449 -2.4951 0.9786
-2.8819 -3.8498 -2.4948 0.9786
-2.7424 -3.9499 -2.4946 0.9786
-2.1516 -4.2984 -2.4937 0.9786
-1.8392 -4.4403 -2.4933 0.9786
-1.6794 -4.5028 -2.4931 0.9786
-1.5176 -4.5596 -2.4930 0.9786
-1.1883 -4.6557 -2.4927 0.9786
-1.0213 -4.6949 -2.4926 0.9786
-0.6837 -4.7553 -2.4923 0.9786
-0.3427 -4.7917 -2.4922 0.9786
-0.1715 -4.8007 -2.4921 0.9786
0.0000 -4.8037 -2.4920 0.9786
0.1714 -4.8005 -2.4920 0.9786
0.3427 -4.7913 -2.4920 0.9786
0.5135 -4.7760 -2.4920 0.9786
0.6836 -4.7546 -2.4920 0.9786
1.0211 -4.6938 -2.4920 0.9786
1.9958 -4.3701 -2.4924 0.9786
2.1506 -4.2963 -2.4925 0.9786
2.5979 -4.0424 -2.4929 0.9786
2.7407 -3.9474 -2.4930 0.9786
3.2756 -3.5182 -2.4938 0.9786
3.3993 -3.3993 -2.4940 0.9786
3.5188 -3.2761 -2.4942 0.9786
3.8500 -2.8820 -2.4949 0.9786
4.1373 -2.4548 -2.4957 0.9786
4.2228 -2.3058 -2.4960 0.9786
4.3029 -2.1539 -2.4963 0.9786
4.4466 -1.8418 -2.4969 0.9785
4.5101 -1.6822 -2.4972 0.9785
4.5678 -1.5203 -2.4975 0.9785
4.7684 -0.6856 -2.4992 0.9785
4.7905 -0.5150 -2.4995 0.9785
-4.5576 -0.3260 -2.5026 0.9794
-4.4948 -0.8109 -2.5016 0.9794
-4.4243 -1.1292 -2.5009 0.9794
-4.3313 -1.4416 -2.5002 0.9794
-4.1507 -1.8956 -2.4992 0.9794
-3.5499 -2.8607 -2.4971 0.9794
-3.4452 -2.9853 -2.4968 0.9794
-3.2227 -3.2227 -2.4962 0.9794
-3.1053 -3.3353 -2.4960 0.9794
-2.5980 -3.7418 -2.4950 0.9794
-2.3240 -3.9170 -2.4945 0.9794
-2.1826 -3.9971 -2.4943 0.9794
-2.0384 -4.0721 -2.4941 0.9794
-1.8916 -4.1420 -2.4939 0.9794
-1.5911 -4.2658 -2.4936 0.9795
-1.4377 -4.3196 -2.4935 0.9795
-1.2825 -4.3679 -2.4933 0.9795
-1.1258 -4.4106 -2.4932 0.9795
-0.9676 -4.4478 -2.4931 0.9795
-0.8082 -4.4793 -2.4929 0.9795
-0.6477 -4.5051 -2.4928 0.9795
-0.3247 -4.5396 -2.4927 0.9795
-0.1624 -4.5481 -2.4926 0.9795
0.0000 -4.5509 -2.4926 0.9795
0.1624 -4.5480 -2.4925 0.9795
0.3247 -4.5392 -2.4925 0.9795
0.4865 -4.5247 -2.4925 0.9795
0.6476 -4.5045 -2.4925 0.9795
0.8080 -4.4785 -2.4925 0.9795
0.9673 -4.4468 -2.4925 0.9795
1.2822 -4.3666 -2.4926 0.9795
1.5905 -4.2642 -2.4927 0.9795
2.0374 -4.0702 -2.4930 0.9795
2.8570 -3.5453 -2.4938 0.9794
2.9820 -3.4413 -2.4940 0.9794
3.2204 -3.2204 -2.4944 0.9794
3.3335 -3.1036 -2.4946 0.9794
3.4425 -2.9829 -2.4948 0.9794
3.5471 -2.8584 -2.4950 0.9794
3.6472 -2.7302 -2.4953 0.9794
3.8334 -2.4636 -2.4958 0.9794
3.9193 -2.3254 -2.4960 0.9794
4.0761 -2.0404 -2.4966 0.9794
4.1468 -1.8938 -2.4969 0.9794
4.2122 -1.7448 -2.4971 0.9794
4.2723 -1.5935 -2.4974 0.9794
4.3270 -1.4402 -2.4977 0.9794
4.3762 -1.2850 -2.4980 0.9794
4.4198 -1.1281 -2.4984 0.9794
4.4578 -0.9697 -2.4987 0.9794
4.5622 -0.1629 -2.5003 0.9794
-4.3356 0.0000 -2.5032 0.9802
-4.3235 -0.3092 -2.5025 0.9802
-4.3091 -0.4633 -2.5022 0.9802
-4.2893 -0.6167 -2.5019 0.9802
-4.2333 -0.9209 -2.5012 0.9802
-4.1557 -1.2202 -2.5006 0.9802
-4.1090 -1.3676 -2.5003 0.9802
-4.0000 -1.6568 -2.4997 0.9802
-3.8706 -1.9375 -2.4991 0.9802
-3.7217 -2.2082 -2.4985 0.9802
-2.9462 -3.1645 -2.4963 0.9802
-2.7124 -3.3659 -2.4958 0.9802
-2.5903 -3.4603 -2.4956 0.9802
-1.9340 -3.8636 -2.4945 0.9802
-1.6532 -3.9912 -2.4942 0.9802
-1.3641 -4.0985 -2.4939 0.9802
-1.2169 -4.1443 -2.4938 0.9802
-0.9180 -4.2202 -2.4935 0.9802
-0.7668 -4.2501 -2.4934 0.9803
-0.6146 -4.2746 -2.4933 0.9803
-0.4616 -4.2937 -2.4932 0.9803
-0.3081 -4.3073 -2.4932 0.9803
0.0000 -4.3181 -2.4930 0.9803
0.3080 -4.3070 -2.4930 0.9803
1.0679 -4.1839 -2.4930 0.9803
1.7940 -3.9283 -2.4933 0.9803
1.9331 -3.8619 -2.4934 0.9803
2.0698 -3.7906 -2.4935 0.9802
2.2039 -3.7145 -2.4937 0.9802
2.4636 -3.5482 -2.4939 0.9802
2.5888 -3.4582 -2.4941 0.9802
2.8293 -3.2652 -2.4944 0.9802
3.0555 -3.0555 -2.4948 0.9802
3.1628 -2.9447 -2.4950 0.9802
3.3654 -2.7120 -2.4954 0.9802
3.6370 -2.3374 -2.4961 0.9802
3.9343 -1.7967 -2.4971 0.9802
3.9963 -1.6553 -2.4974 0.9802
4.1518 -1.2191 -2.4982 0.9802
4.1932 -1.0702 -2.4985 0.9802
4.2851 -0.6161 -2.4994 0.9802
4.3192 -0.3089 -2.5001 0.9802
