ply
format ascii 1.0
element vertex 1228
property float32 x
property float32 y
property float32 z
property float32 I
end_header
-35.1157 -32.6939 8.4600 0.8229
-32.6792 -32.6793 8.1490 0.8289
-30.4455 -32.7007 7.8782 0.8340
-14.9069 -17.2035 4.0138 0.9117
-26.7032 -33.1367 7.5039 0.8413
-24.5175 -32.7515 7.2138 0.8469
-22.7515 -32.7684 7.0341 0.8504
-21.0694 -32.7846 6.8717 0.8536
-20.0130 -33.7301 6.9156 0.8527
-19.1300 -35.0340 7.0384 0.8503
-18.0760 -36.1114 7.1206 0.8487
-16.0689 -43.0825 8.1078 0.8296
2.2664 -15.7632 2.8081 0.9374
4.4033 -17.2521 3.1395 0.9302
22.1172 -40.5046 8.1374 0.8291
23.0077 -33.1374 7.1133 0.8489
26.9384 -33.4285 7.5700 0.8400
29.0617 -33.5389 7.8251 0.8351
30.9228 -33.2134 8.0017 0.8317
33.2356 -33.2356 8.2878 0.8262
-30.4455 -32.7007 6.8447 0.8346
-14.8891 -17.1829 3.4831 0.9121
-26.3784 -32.7336 6.4402 0.8436
-24.5174 -32.7515 6.2674 0.8474
-19.1300 -35.0340 6.1150 0.8508
-16.0268 -38.6921 6.4158 0.8441
-16.0689 -43.0825 7.0441 0.8302
2.2662 -15.7621 2.4395 0.9376
4.3999 -17.2387 2.7255 0.9305
22.0909 -44.1321 7.5605 0.8190
22.4785 -37.8855 6.7486 0.8367
22.1748 -34.5047 6.2834 0.8471
23.0077 -33.1374 6.1801 0.8494
24.8193 -33.1548 6.3446 0.8457
29.0617 -33.5389 6.7985 0.8356
33.2357 -33.2356 7.2005 0.8268
-37.6900 -12.5445 5.1727 0.8519
-32.6792 -32.6793 6.0182 0.8299
-30.4454 -32.7007 5.8182 0.8351
-14.8714 -17.1625 2.9573 0.9125
-26.4855 -32.8665 5.4966 0.8434
-24.5174 -32.7515 5.3276 0.8479
-16.1635 -39.0222 5.5002 0.8433
-16.0689 -43.0825 5.9878 0.8307
22.1172 -40.5046 6.0096 0.8301
22.4785 -37.8855 5.7365 0.8372
22.1748 -34.5047 5.3411 0.8475
24.8193 -33.1548 5.3932 0.8461
26.9384 -33.4285 5.5906 0.8410
30.9228 -33.2134 5.9094 0.8327
33.2356 -33.2356 6.1207 0.8273
-35.1157 -32.6939 5.1521 0.8245
-31.2762 -33.5930 4.9287 0.8314
-24.5174 -32.7515 4.3932 0.8482
-20.0130 -33.7301 4.2115 0.8540
-20.5807 -37.6907 4.6114 0.8413
-20.9457 -41.8443 5.0248 0.8284
-16.7536 -40.4469 4.7011 0.8385
-16.5267 -44.3100 5.0783 0.8267
2.2660 -15.7603 1.7098 0.9380
4.3932 -17.2123 1.9075 0.9310
22.0909 -44.1321 5.2995 0.8199
22.1172 -40.5046 4.9556 0.8306
22.1748 -34.5047 4.4044 0.8479
24.8193 -33.1548 4.4473 0.8465
29.0617 -33.5390 4.7654 0.8365
33.2357 -33.2356 5.0472 0.8277
35.7232 -33.2595 5.2412 0.8217
-31.2762 -33.5930 3.8855 0.8317
-27.4321 -34.0412 3.7009 0.8390
-23.5460 -33.9127 3.4949 0.8473
-20.5882 -37.7045 3.6366 0.8416
-16.8533 -36.9036 3.4344 0.8497
-16.7537 -40.4469 3.7060 0.8388
2.2659 -15.7594 1.3478 0.9381
22.0909 -44.1321 4.1778 0.8203
22.1172 -40.5046 3.9067 0.8309
22.4785 -37.8855 3.7291 0.8379
22.1748 -34.5047 3.4721 0.8482
24.8193 -33.1548 3.5059 0.8468
26.8106 -33.2699 3.6171 0.8424
29.0617 -33.5390 3.7568 0.8368
30.9228 -33.2134 3.8415 0.8335
33.2357 -33.2356 3.9789 0.8281
35.7232 -33.2595 4.1318 0.8221
25.2447 -17.5277 2.6016 0.8839
-35.1157 -32.6939 2.9752 0.8251
-14.8443 -17.1312 1.4056 0.9132
-27.4321 -34.0412 2.7110 0.8393
-24.1904 -37.6410 2.7746 0.8358
-20.0130 -33.7301 2.4321 0.8545
-20.5725 -37.6757 2.6619 0.8419
-16.8533 -36.9036 2.5157 0.8499
2.2657 -15.7583 0.9872 0.9382
22.0909 -44.1321 3.0604 0.8205
22.1172 -40.5047 2.8618 0.8311
22.1748 -34.5047 2.5434 0.8484
23.0077 -33.1374 2.5016 0.8507
24.8193 -33.1548 2.5682 0.8471
14.6777 -15.7650 1.3357 0.9173
15.6364 -15.6363 1.3712 0.9152
-31.2761 -33.5929 1.8098 0.8322
-14.8464 -17.1337 0.8939 0.9132
-24.5175 -32.7515 1.6132 0.8489
-23.5460 -33.9126 1.6279 0.8477
-20.0130 -33.7300 1.5465 0.8547
-20.9765 -41.9058 1.8478 0.8289
-16.8533 -36.9036 1.5997 0.8501
-16.5268 -44.3100 1.8648 0.8275
4.3832 -17.1732 0.6989 0.9315
14.7203 -44.2274 1.8380 0.8298
9.6122 -25.7713 1.0846 0.8957
22.1748 -34.5047 1.6173 0.8486
24.8193 -33.1548 1.6331 0.8472
13.4778 -16.7249 0.8470 0.9176
29.0617 -33.5390 1.7499 0.8372
15.5814 -15.5814 0.8689 0.9156
24.9988 -17.3570 1.2000 0.8853
-31.2761 -33.5929 0.7753 0.8323
-14.8486 -17.1362 0.3830 0.9133
-27.4321 -34.0412 0.7385 0.8395
-24.1904 -37.6410 0.7558 0.8361
-20.0130 -33.7300 0.6625 0.8548
-20.4288 -37.4125 0.7200 0.8432
-17.2399 -34.4410 0.6506 0.8572
-16.8533 -36.9036 0.6853 0.8502
-16.5268 -44.3100 0.7988 0.8276
22.4785 -37.8855 0.7441 0.8384
22.1749 -34.5047 0.6928 0.8487
23.0077 -33.1374 0.6814 0.8510
13.4840 -16.7327 0.3630 0.9176
15.2039 -16.3301 0.3769 0.9146
33.5824 -33.5824 0.8022 0.8270
36.0959 -33.6065 0.8331 0.8209
24.9611 -17.3308 0.5133 0.8855
-31.2761 -33.5929 -0.2584 0.8323
-27.4321 -34.0412 -0.2461 0.8396
-24.4984 -32.7260 -0.2302 0.8491
-23.5460 -33.9126 -0.2325 0.8478
-24.2151 -37.6795 -0.2522 0.8360
-17.0825 -34.1266 -0.2149 0.8584
-16.7537 -40.4469 -0.2465 0.8394
4.3766 -17.1473 -0.0997 0.9317
21.6747 -43.3007 -0.2726 0.8239
24.8193 -33.1548 -0.2332 0.8473
26.9384 -33.4286 -0.2417 0.8422
14.5875 -16.8348 -0.1254 0.9148
15.2039 -16.3301 -0.1256 0.9146
36.0959 -33.6065 -0.2777 0.8210
-31.2761 -33.5929 -1.2924 0.8322
-14.8529 -17.1412 -0.6386 0.9132
-27.4320 -34.0411 -1.2310 0.8395
-23.5459 -33.9126 -1.1625 0.8477
-20.0129 -33.7300 -1.1044 0.8548
2.5002 -34.9576 -0.9868 0.8691
4.3733 -17.1345 -0.4979 0.9317
22.1172 -40.5047 -1.2995 0.8314
20.6061 -32.0637 -1.0732 0.8585
26.9384 -33.4286 -1.2089 0.8422
36.0959 -33.6065 -1.3887 0.8209
37.3223 -32.3399 -1.3906 0.8207
24.8859 -17.2786 -0.8531 0.8858
-49.3368 0.0000 -2.5021 0.8207
-49.3054 -1.7610 -2.5021 0.8207
-49.2109 -3.5196 -2.5021 0.8207
-48.5525 -8.7598 -2.5021 0.8207
-48.2089 -10.4872 -2.5020 0.8207
-47.8036 -12.2012 -2.5020 0.8207
-45.4518 -15.1278 -2.4294 0.8254
-39.5207 -16.3700 -2.1694 0.8425
-38.7553 -17.6990 -2.1607 0.8431
-41.4329 -20.7398 -2.3498 0.8306
-39.1130 -21.3573 -2.2600 0.8365
-24.5960 -15.8069 -1.4827 0.8895
-38.3856 -26.6516 -2.3699 0.8293
-37.4935 -28.0672 -2.3752 0.8290
-16.8787 -15.7146 -1.1696 0.9118
-33.3958 -33.3959 -2.3952 0.8277
-14.8551 -17.1437 -1.1504 0.9132
-20.0129 -33.7300 -1.9890 0.8546
-16.7536 -40.4470 -2.2202 0.8392
-16.5268 -44.3100 -2.3984 0.8274
-15.1981 -45.6630 -2.4407 0.8247
-11.9200 -46.7022 -2.4444 0.8244
-6.8703 -47.7841 -2.4483 0.8242
-3.4459 -48.1794 -2.4496 0.8241
-1.1812 -33.0734 -1.6784 0.8759
-0.0000 -31.8376 -1.6146 0.8803
1.1149 -31.2170 -1.5842 0.8824
2.2067 -30.8535 -1.5687 0.8835
3.3182 -30.8642 -1.5743 0.8831
2.2644 -15.7493 -0.8069 0.9383
5.7033 -31.6115 -1.6290 0.8793
7.2244 -33.2101 -1.7236 0.8727
21.4363 -42.8243 -2.4287 0.8255
20.5560 -31.9857 -1.9282 0.8587
24.7819 -33.1048 -2.0972 0.8474
34.4677 -32.0906 -2.3883 0.8281
24.8485 -17.2526 -1.5341 0.8859
39.1900 -25.1859 -2.3625 0.8298
39.9710 -23.7159 -2.3571 0.8302
40.6957 -22.2215 -2.3515 0.8305
42.1347 -19.2423 -2.3491 0.8307
46.4388 -15.4563 -2.4821 0.8220
48.1940 -10.4840 -2.5013 0.8207
48.5375 -8.7571 -2.5013 0.8207
-34.1228 0.0000 -2.5020 0.8721
-34.1010 -1.2179 -2.5020 0.8721
-34.0357 -2.4343 -2.5019 0.8721
-33.3427 -7.2533 -2.5019 0.8721
-31.0385 -14.1748 -2.5019 0.8721
-28.1261 -15.3580 -2.3497 0.8794
-26.7122 -15.8491 -2.2774 0.8829
-24.9520 -20.1076 -2.3496 0.8794
-24.2183 -20.9853 -2.3496 0.8794
-16.8787 -15.7146 -1.6909 0.9117
-19.3433 -25.8396 -2.3667 0.8786
-18.4291 -26.5429 -2.3693 0.8784
-13.4281 -20.8945 -1.8211 0.9052
-15.5323 -28.4454 -2.3764 0.8781
-7.7393 -20.7500 -1.6238 0.9150
-9.1705 -31.2318 -2.3867 0.8776
-5.7869 -32.0744 -2.3897 0.8775
-4.6398 -32.2704 -2.3905 0.8774
-1.1642 -32.5974 -2.3916 0.8774
1.1149 -31.2170 -2.2904 0.8822
3.3182 -30.8642 -2.2761 0.8829
2.2641 -15.7475 -1.1665 0.9382
5.7033 -31.6115 -2.3552 0.8791
6.9248 -31.8330 -2.3887 0.8775
4.3738 -17.1363 -1.2968 0.9315
12.4302 -30.0093 -2.3816 0.8779
11.3247 -20.7396 -1.7326 0.9096
19.3364 -25.8304 -2.3658 0.8786
22.7024 -22.7024 -2.3541 0.8792
23.4662 -21.8479 -2.3509 0.8793
24.2144 -20.9819 -2.3493 0.8794
24.9478 -20.1042 -2.3492 0.8794
23.9336 -16.6174 -2.1364 0.8897
31.0324 -14.1720 -2.5014 0.8721
31.9643 -11.9221 -2.5014 0.8721
32.3694 -10.7736 -2.5014 0.8721
33.3356 -7.2517 -2.5014 0.8721
33.9198 -3.6468 -2.5014 0.8721
-26.0600 0.0000 -2.5019 0.9006
-25.9936 -1.8591 -2.5019 0.9006
-25.6459 -4.6270 -2.5019 0.9006
-25.2503 -6.4448 -2.5019 0.9006
-24.7262 -8.2297 -2.5019 0.9006
-24.4166 -9.1069 -2.5019 0.9006
-23.7047 -10.8256 -2.5019 0.9006
-21.3773 -14.8425 -2.4985 0.9007
-18.4961 -16.0269 -2.3496 0.9063
-15.2298 -16.3580 -2.1457 0.9141
-13.9933 -17.3646 -2.1410 0.9143
-13.9433 -18.6261 -2.2337 0.9107
-13.2313 -20.5882 -2.3496 0.9063
-12.4879 -21.0473 -2.3495 0.9063
-11.7327 -21.4868 -2.3503 0.9063
-10.9656 -21.9064 -2.3519 0.9062
-10.1830 -22.2977 -2.3534 0.9062
-9.3860 -22.6599 -2.3547 0.9061
-5.3949 -16.2089 -1.6401 0.9337
-5.2247 -24.0175 -2.3597 0.9060
-3.4998 -24.3414 -2.3609 0.9059
-2.6292 -24.4552 -2.3613 0.9059
-1.5083 -21.0885 -2.0298 0.9186
-0.7561 -21.1690 -2.0336 0.9184
-0.0000 -24.6022 -2.3619 0.9059
0.8781 -24.5860 -2.3619 0.9059
1.7549 -24.5370 -2.3617 0.9059
2.6292 -24.4555 -2.3614 0.9059
2.2639 -15.7457 -1.5272 0.9381
4.3653 -24.1955 -2.3604 0.9059
5.8223 -17.4933 -1.7700 0.9286
10.1821 -22.2957 -2.3531 0.9062
10.9645 -21.9042 -2.3517 0.9063
11.7313 -21.4844 -2.3501 0.9063
12.4869 -21.0455 -2.3493 0.9063
13.2301 -20.5864 -2.3493 0.9063
13.9564 -20.1010 -2.3493 0.9063
17.3035 -17.3034 -2.3493 0.9063
17.9100 -16.6748 -2.3493 0.9063
20.3092 -15.2033 -2.4356 0.9031
21.9195 -14.0868 -2.5015 0.9006
22.4083 -13.2955 -2.5015 0.9006
23.2997 -11.6630 -2.5015 0.9006
23.7011 -10.8239 -2.5015 0.9006
24.4129 -9.1055 -2.5015 0.9006
24.7223 -8.2284 -2.5015 0.9006
25.2463 -6.4437 -2.5015 0.9006
25.7904 -3.7081 -2.5015 0.9006
-20.8474 -2.9974 -2.5018 0.9187
-20.5804 -4.4770 -2.5018 0.9187
-19.9838 -6.6513 -2.5018 0.9187
-19.4584 -8.0599 -2.5018 0.9187
-19.1583 -8.7493 -2.5018 0.9187
-16.8605 -12.6216 -2.5018 0.9187
-16.3992 -13.2153 -2.5018 0.9187
-15.9171 -13.7922 -2.5018 0.9187
-14.0569 -15.0981 -2.4504 0.9203
-11.2808 -16.2474 -2.3495 0.9234
-10.6937 -16.6397 -2.3495 0.9234
-10.0929 -17.0107 -2.3495 0.9234
-8.8536 -17.6873 -2.3495 0.9234
-8.2167 -17.9920 -2.3495 0.9234
-1.4110 -19.7285 -2.3495 0.9234
-0.7059 -19.7663 -2.3495 0.9234
-0.0000 -19.7788 -2.3494 0.9234
4.8011 -16.3510 -2.0243 0.9337
5.4426 -16.3525 -2.0472 0.9329
6.9118 -18.5314 -2.3494 0.9234
7.5688 -18.2728 -2.3494 0.9234
8.8531 -17.6863 -2.3494 0.9234
9.4787 -17.3590 -2.3494 0.9234
10.6929 -16.6384 -2.3494 0.9234
11.8526 -15.8332 -2.3494 0.9234
12.4101 -15.4000 -2.3494 0.9234
13.1203 -15.1417 -2.3799 0.9225
14.0932 -15.1372 -2.4568 0.9201
14.8725 -14.8725 -2.4984 0.9188
16.3975 -13.2139 -2.5015 0.9187
16.8587 -12.6203 -2.5015 0.9187
17.7160 -11.3854 -2.5015 0.9187
18.1111 -10.7458 -2.5015 0.9187
19.7312 -7.3594 -2.5015 0.9187
20.4048 -5.2080 -2.5015 0.9187
20.7243 -3.7391 -2.5015 0.9187
20.8446 -2.9970 -2.5015 0.9187
21.0456 -0.7516 -2.5015 0.9187
-17.6571 0.0000 -2.5018 0.9312
-17.4774 -2.5129 -2.5018 0.9312
-17.1085 -4.3667 -2.5018 0.9312
-16.7534 -5.5761 -2.5018 0.9312
-16.3129 -6.7570 -2.5018 0.9312
-16.0613 -7.3350 -2.5018 0.9312
-14.8539 -9.5460 -2.5018 0.9312
-14.5037 -10.0701 -2.5018 0.9312
-14.1350 -10.5813 -2.5018 0.9312
-12.9228 -12.0316 -2.5018 0.9312
-12.4851 -12.4852 -2.5018 0.9312
-12.0315 -12.9228 -2.5018 0.9312
-11.5626 -13.3440 -2.5018 0.9312
-9.5331 -14.8338 -2.4984 0.9312
-8.9518 -15.0875 -2.4857 0.9316
-8.2430 -15.0959 -2.4370 0.9329
-7.5602 -15.1035 -2.3931 0.9340
-6.9017 -15.1127 -2.3540 0.9351
-5.7948 -15.5366 -2.3495 0.9352
-5.2366 -15.7335 -2.3495 0.9352
-4.6717 -15.9103 -2.3495 0.9352
-4.1008 -16.0669 -2.3495 0.9352
-2.3598 -16.4131 -2.3495 0.9352
-1.1829 -16.5396 -2.3495 0.9352
-0.5918 -16.5712 -2.3495 0.9352
0.0000 -16.5817 -2.3495 0.9352
1.7725 -16.4866 -2.3494 0.9352
2.2479 -15.6346 -2.2380 0.9382
3.5247 -16.2026 -2.3494 0.9352
4.1007 -16.0665 -2.3494 0.9352
4.6715 -15.9098 -2.3494 0.9352
5.7946 -15.5360 -2.3494 0.9352
6.3454 -15.3192 -2.3494 0.9352
7.5505 -15.0840 -2.3901 0.9341
8.9477 -15.0805 -2.4845 0.9316
9.5324 -14.8328 -2.4982 0.9312
10.0693 -14.5025 -2.5016 0.9312
10.5805 -14.1338 -2.5016 0.9312
11.5618 -13.3430 -2.5016 0.9312
12.0306 -12.9218 -2.5016 0.9312
14.1337 -10.5804 -2.5016 0.9312
14.5023 -10.0692 -2.5015 0.9312
14.8525 -9.5451 -2.5015 0.9312
15.1837 -9.0089 -2.5015 0.9312
16.0597 -7.3342 -2.5015 0.9312
16.3112 -6.7563 -2.5015 0.9312
16.5419 -6.1698 -2.5015 0.9312
17.1067 -4.3662 -2.5015 0.9312
17.3746 -3.1347 -2.5015 0.9312
17.4754 -2.5126 -2.5015 0.9312
17.6101 -1.2595 -2.5015 0.9312
-15.1865 0.0000 -2.5018 0.9403
-15.1768 -0.5420 -2.5018 0.9403
-15.1477 -1.0834 -2.5018 0.9403
-15.0994 -1.6234 -2.5018 0.9403
-14.9451 -2.6964 -2.5018 0.9403
-14.7146 -3.7557 -2.5018 0.9403
-14.5712 -4.2785 -2.5018 0.9403
-14.2288 -5.3071 -2.5018 0.9403
-14.0303 -5.8116 -2.5018 0.9403
-13.8140 -6.3086 -2.5018 0.9403
-13.3287 -7.2780 -2.5018 0.9403
-11.4769 -9.9448 -2.5018 0.9403
-11.1147 -10.3481 -2.5018 0.9403
-10.3481 -11.1146 -2.5017 0.9403
-9.9448 -11.4769 -2.5017 0.9403
-9.5288 -11.8245 -2.5017 0.9403
-9.1006 -12.1571 -2.5017 0.9403
-8.6609 -12.4741 -2.5017 0.9403
-7.7489 -13.0601 -2.5017 0.9403
-7.2778 -13.3284 -2.5017 0.9403
-6.7975 -13.5796 -2.5017 0.9403
-6.3084 -13.8136 -2.5017 0.9403
-3.7536 -14.7065 -2.5004 0.9403
-3.2238 -14.8195 -2.4984 0.9404
-2.6910 -14.9151 -2.4968 0.9404
-2.1557 -14.9934 -2.4954 0.9404
-0.5380 -15.0646 -2.4833 0.9407
1.0766 -15.0535 -2.4862 0.9407
2.1554 -14.9908 -2.4950 0.9405
4.2782 -14.5703 -2.5016 0.9403
5.3067 -14.2279 -2.5016 0.9403
5.8112 -14.0294 -2.5016 0.9403
7.2775 -13.3278 -2.5016 0.9403
7.7486 -13.0595 -2.5016 0.9403
8.6604 -12.4734 -2.5016 0.9403
9.1001 -12.1563 -2.5016 0.9403
9.9441 -11.4761 -2.5016 0.9403
10.7375 -10.7375 -2.5016 0.9403
11.4761 -9.9441 -2.5016 0.9403
11.8237 -9.5281 -2.5016 0.9403
12.7744 -8.2096 -2.5016 0.9403
14.0291 -5.8110 -2.5016 0.9403
14.2275 -5.3066 -2.5016 0.9403
14.4079 -4.7954 -2.5016 0.9403
14.8379 -3.2278 -2.5016 0.9403
15.0304 -2.1611 -2.5016 0.9403
15.0980 -1.6232 -2.5016 0.9403
15.1463 -1.0833 -2.5016 0.9403
15.1753 -0.5420 -2.5016 0.9403
-13.3101 0.0000 -2.5018 0.9473
-13.2762 -0.9495 -2.5018 0.9473
-13.2339 -1.4228 -2.5018 0.9473
-13.1747 -1.8942 -2.5018 0.9473
-13.0986 -2.3633 -2.5018 0.9473
-12.2969 -5.0935 -2.5018 0.9473
-11.9022 -5.9578 -2.5018 0.9473
-11.4468 -6.7917 -2.5018 0.9473
-11.1971 -7.1959 -2.5018 0.9473
-10.9331 -7.5910 -2.5018 0.9473
-10.0590 -8.7162 -2.5017 0.9473
-9.7415 -9.0696 -2.5017 0.9473
-9.4115 -9.4115 -2.5017 0.9473
-9.0696 -9.7414 -2.5017 0.9473
-8.7161 -10.0589 -2.5017 0.9473
-8.3515 -10.3636 -2.5017 0.9473
-7.5909 -10.9330 -2.5017 0.9473
-6.7916 -11.4466 -2.5017 0.9473
-6.3787 -11.6817 -2.5017 0.9473
-5.9577 -11.9019 -2.5017 0.9473
-5.5290 -12.1069 -2.5017 0.9473
-3.7498 -12.7705 -2.5017 0.9473
-2.8292 -13.0054 -2.5017 0.9473
-1.8941 -13.1741 -2.5017 0.9473
-1.4227 -13.2333 -2.5017 0.9473
-0.4750 -13.3010 -2.5017 0.9473
0.4750 -13.3010 -2.5017 0.9473
1.4227 -13.2332 -2.5016 0.9473
1.8941 -13.1739 -2.5016 0.9473
2.3631 -13.0979 -2.5016 0.9473
3.2915 -12.8959 -2.5016 0.9473
4.2031 -12.6282 -2.5016 0.9473
4.6511 -12.4701 -2.5016 0.9473
5.5289 -12.1065 -2.5016 0.9473
6.3784 -11.6812 -2.5016 0.9473
6.7913 -11.4461 -2.5016 0.9473
7.1955 -11.1964 -2.5016 0.9473
7.5905 -10.9324 -2.5016 0.9473
7.9759 -10.6545 -2.5016 0.9473
8.3511 -10.3631 -2.5016 0.9473
10.0583 -8.7156 -2.5016 0.9473
10.3630 -8.3510 -2.5016 0.9473
11.4460 -6.7912 -2.5016 0.9473
11.6811 -6.3783 -2.5016 0.9473
11.9013 -5.9573 -2.5016 0.9473
12.4699 -4.6510 -2.5016 0.9473
12.7699 -3.7496 -2.5016 0.9473
13.0976 -2.3631 -2.5016 0.9473
13.1735 -1.8941 -2.5016 0.9473
13.2328 -1.4227 -2.5016 0.9473
13.3005 -0.4750 -2.5016 0.9473
-11.8354 0.0000 -2.5018 0.9528
-11.8279 -0.4224 -2.5018 0.9528
-11.5649 -2.5158 -2.5018 0.9528
-11.3560 -3.3344 -2.5018 0.9528
-11.2297 -3.7376 -2.5018 0.9528
-10.9345 -4.5292 -2.5018 0.9528
-10.5835 -5.2977 -2.5018 0.9528
-10.1786 -6.0392 -2.5018 0.9528
-9.9565 -6.3987 -2.5018 0.9528
-9.7218 -6.7500 -2.5017 0.9528
-9.4747 -7.0926 -2.5017 0.9528
-8.3688 -8.3688 -2.5017 0.9528
-7.4262 -9.2154 -2.5017 0.9528
-6.7499 -9.7217 -2.5017 0.9528
-6.0391 -10.1784 -2.5017 0.9528
-4.9165 -10.7656 -2.5017 0.9528
-4.1359 -11.0889 -2.5017 0.9528
-3.7375 -11.2294 -2.5017 0.9528
-3.3343 -11.3556 -2.5017 0.9528
-2.5157 -11.5645 -2.5017 0.9528
-1.6843 -11.7145 -2.5017 0.9528
-1.2651 -11.7671 -2.5017 0.9528
-0.8443 -11.8048 -2.5017 0.9528
0.4224 -11.8274 -2.5017 0.9528
2.5157 -11.5644 -2.5016 0.9528
4.1358 -11.0886 -2.5016 0.9528
4.5290 -10.9339 -2.5016 0.9528
4.9163 -10.7652 -2.5016 0.9528
5.2974 -10.5829 -2.5016 0.9528
5.6718 -10.3871 -2.5016 0.9528
6.0389 -10.1780 -2.5016 0.9528
7.4259 -9.2150 -2.5016 0.9528
7.7500 -8.9440 -2.5016 0.9528
8.9440 -7.7500 -2.5016 0.9528
9.2149 -7.4258 -2.5016 0.9528
9.4741 -7.0922 -2.5016 0.9528
9.9559 -6.3983 -2.5016 0.9528
10.1779 -6.0388 -2.5016 0.9528
10.3870 -5.6717 -2.5016 0.9528
11.0884 -4.1358 -2.5016 0.9528
11.2289 -3.7373 -2.5016 0.9528
11.4669 -2.9268 -2.5016 0.9528
11.5641 -2.5156 -2.5016 0.9528
11.7141 -1.6842 -2.5016 0.9528
11.7667 -1.2651 -2.5016 0.9528
11.8044 -0.8443 -2.5016 0.9528
11.8270 -0.4224 -2.5016 0.9528
-10.6380 -0.3799 -2.5018 0.9572
-10.5364 -1.5149 -2.5018 0.9572
-10.4015 -2.2627 -2.5018 0.9572
-10.2135 -2.9990 -2.5018 0.9572
-9.8344 -4.0735 -2.5018 0.9572
-9.5188 -4.7648 -2.5017 0.9572
-8.7437 -6.0709 -2.5017 0.9572
-8.0447 -6.9708 -2.5017 0.9572
-7.7907 -7.2534 -2.5017 0.9572
-7.5269 -7.5269 -2.5017 0.9572
-7.2534 -7.7907 -2.5017 0.9572
-6.9707 -8.0447 -2.5017 0.9572
-6.0708 -8.7437 -2.5017 0.9572
-5.7549 -8.9548 -2.5017 0.9572
-5.1014 -9.3425 -2.5017 0.9572
-4.7647 -9.5186 -2.5017 0.9572
-4.4219 -9.6826 -2.5017 0.9572
-4.0735 -9.8342 -2.5017 0.9572
-2.9989 -10.2133 -2.5017 0.9572
-2.6324 -10.3138 -2.5017 0.9572
-2.2626 -10.4012 -2.5017 0.9572
-1.1378 -10.5834 -2.5017 0.9572
-0.3799 -10.6376 -2.5017 0.9572
1.5148 -10.5359 -2.5017 0.9572
1.8899 -10.4751 -2.5016 0.9572
2.2626 -10.4010 -2.5016 0.9572
3.3614 -10.0995 -2.5016 0.9572
4.7645 -9.5183 -2.5016 0.9572
5.1012 -9.3422 -2.5016 0.9572
5.4314 -9.1541 -2.5016 0.9572
6.0706 -8.7433 -2.5016 0.9572
6.6789 -8.2880 -2.5016 0.9572
6.9704 -8.0443 -2.5016 0.9572
7.2531 -7.7904 -2.5016 0.9572
7.5265 -7.5265 -2.5016 0.9572
7.7903 -7.2531 -2.5016 0.9572
8.0443 -6.9704 -2.5016 0.9572
8.2879 -6.6788 -2.5016 0.9572
8.5210 -6.3788 -2.5016 0.9572
8.7433 -6.0706 -2.5016 0.9572
8.9544 -5.7546 -2.5016 0.9572
9.1540 -5.4314 -2.5016 0.9572
9.3421 -5.1012 -2.5016 0.9572
9.5182 -4.7645 -2.5016 0.9572
9.8338 -4.0733 -2.5016 0.9572
9.9729 -3.7197 -2.5016 0.9572
10.3134 -2.6323 -2.5016 0.9572
10.5831 -1.1378 -2.5016 0.9572
5.3424 -0.3821 -1.2588 0.9782
-9.6377 -0.6893 -2.5018 0.9609
-9.6070 -1.0329 -2.5018 0.9609
-9.5640 -1.3751 -2.5018 0.9609
-9.5088 -1.7156 -2.5018 0.9609
-9.3622 -2.3896 -2.5018 0.9609
-9.1679 -3.0514 -2.5017 0.9609
-9.0531 -3.3766 -2.5017 0.9609
-8.9268 -3.6976 -2.5017 0.9609
-8.7891 -4.0139 -2.5017 0.9609
-8.6403 -4.3250 -2.5017 0.9609
-8.1284 -5.2238 -2.5017 0.9609
-7.9368 -5.5106 -2.5017 0.9609
-7.7350 -5.7904 -2.5017 0.9609
-7.3022 -6.3274 -2.5017 0.9609
-6.5840 -7.0717 -2.5017 0.9609
-6.0627 -7.5234 -2.5017 0.9609
-5.5106 -7.9367 -2.5017 0.9609
-4.9303 -8.3096 -2.5017 0.9609
-4.3249 -8.6401 -2.5017 0.9609
-4.0138 -8.7890 -2.5017 0.9609
-3.6975 -8.9266 -2.5017 0.9609
-3.3766 -9.0529 -2.5017 0.9609
-3.0513 -9.1676 -2.5017 0.9609
-2.0538 -9.4413 -2.5017 0.9609
-1.3751 -9.5637 -2.5017 0.9609
-0.3449 -9.6559 -2.5017 0.9609
-0.0000 -9.6620 -2.5017 0.9609
1.0328 -9.6066 -2.5017 0.9609
1.3750 -9.5636 -2.5017 0.9609
1.7155 -9.5084 -2.5017 0.9609
2.0538 -9.4411 -2.5016 0.9609
2.3895 -9.3618 -2.5016 0.9609
3.0512 -9.1675 -2.5016 0.9609
3.6974 -8.9264 -2.5016 0.9609
4.0137 -8.7888 -2.5016 0.9609
4.3248 -8.6399 -2.5016 0.9609
4.9302 -8.3093 -2.5016 0.9609
5.2236 -8.1281 -2.5016 0.9609
6.0625 -7.5231 -2.5016 0.9609
6.3272 -7.3019 -2.5016 0.9609
6.8319 -6.8319 -2.5016 0.9609
7.3019 -6.3271 -2.5016 0.9609
7.5231 -6.0625 -2.5016 0.9609
8.3093 -4.9301 -2.5016 0.9609
8.4799 -4.6304 -2.5016 0.9609
8.6398 -4.3248 -2.5016 0.9609
8.9263 -3.6974 -2.5016 0.9609
9.1673 -3.0512 -2.5016 0.9609
9.2704 -2.7220 -2.5016 0.9609
9.3616 -2.3894 -2.5016 0.9609
9.4410 -2.0538 -2.5016 0.9609
9.5634 -1.3750 -2.5016 0.9609
5.3397 -0.5741 -1.3905 0.9781
-8.8147 -0.6304 -2.5018 0.9639
-8.6968 -1.5691 -2.5017 0.9639
-8.6352 -1.8785 -2.5017 0.9639
-8.5627 -2.1855 -2.5017 0.9639
-8.4792 -2.4897 -2.5017 0.9639
-8.3849 -2.7908 -2.5017 0.9639
-8.2800 -3.0883 -2.5017 0.9639
-7.9024 -3.9557 -2.5017 0.9639
-7.2590 -5.0400 -2.5017 0.9639
-7.0745 -5.2959 -2.5017 0.9639
-6.6786 -5.7871 -2.5017 0.9639
-6.4678 -6.0218 -2.5017 0.9639
-6.0217 -6.4678 -2.5017 0.9639
-5.5450 -6.8809 -2.5017 0.9639
-5.2959 -7.0744 -2.5017 0.9639
-4.7777 -7.4342 -2.5017 0.9639
-4.5093 -7.6000 -2.5017 0.9639
-4.2351 -7.7561 -2.5017 0.9639
-3.3818 -8.1643 -2.5017 0.9639
-3.0882 -8.2798 -2.5017 0.9639
-2.7907 -8.3848 -2.5017 0.9639
-1.5690 -8.6965 -2.5017 0.9639
-1.2576 -8.7470 -2.5017 0.9639
-0.9446 -8.7863 -2.5017 0.9639
-0.6304 -8.8144 -2.5017 0.9639
-0.3154 -8.8313 -2.5017 0.9639
-0.0000 -8.8369 -2.5017 0.9639
0.9446 -8.7863 -2.5017 0.9639
1.2576 -8.7469 -2.5017 0.9639
1.5690 -8.6965 -2.5017 0.9639
1.8784 -8.6349 -2.5017 0.9639
2.7907 -8.3846 -2.5016 0.9639
3.0882 -8.2797 -2.5016 0.9639
3.9555 -7.9021 -2.5016 0.9639
4.2350 -7.7559 -2.5016 0.9639
4.5091 -7.5998 -2.5016 0.9639
5.0398 -7.2587 -2.5016 0.9639
5.2957 -7.0742 -2.5016 0.9639
5.7868 -6.6784 -2.5016 0.9639
6.0215 -6.4676 -2.5016 0.9639
6.6784 -5.7868 -2.5016 0.9639
6.8807 -5.5448 -2.5016 0.9639
7.0742 -5.2957 -2.5016 0.9639
7.2587 -5.0398 -2.5016 0.9639
7.4339 -4.7775 -2.5016 0.9639
7.5997 -4.5091 -2.5016 0.9639
7.7558 -4.2350 -2.5016 0.9639
7.9020 -3.9555 -2.5016 0.9639
8.1641 -3.3817 -2.5016 0.9639
8.2795 -3.0881 -2.5016 0.9639
8.3845 -2.7906 -2.5016 0.9639
8.4788 -2.4896 -2.5016 0.9639
8.5622 -2.1854 -2.5016 0.9639
5.3297 -0.5730 -1.5175 0.9780
5.3221 -0.3806 -1.5105 0.9781
5.3269 -0.1903 -1.5090 0.9781
-8.1285 -0.2903 -2.5017 0.9665
-8.0509 -1.1575 -2.5017 0.9665
-7.8810 -2.0115 -2.5017 0.9665
-7.7174 -2.5686 -2.5017 0.9665
-7.5145 -3.1126 -2.5017 0.9665
-7.3986 -3.3788 -2.5017 0.9665
-7.2733 -3.6408 -2.5017 0.9665
-7.1387 -3.8980 -2.5017 0.9665
-6.5113 -4.8743 -2.5017 0.9665
-6.3332 -5.1036 -2.5017 0.9665
-6.1470 -5.3264 -2.5017 0.9665
-5.5424 -5.9529 -2.5017 0.9665
-5.1036 -6.3331 -2.5017 0.9665
-4.1503 -6.9950 -2.5017 0.9665
-3.3788 -7.3985 -2.5017 0.9665
-2.8424 -7.6207 -2.5017 0.9665
-2.5686 -7.7173 -2.5017 0.9665
-2.2915 -7.8040 -2.5017 0.9665
-1.7289 -7.9476 -2.5017 0.9665
-1.1575 -8.0507 -2.5017 0.9665
-0.8694 -8.0869 -2.5017 0.9665
-0.5802 -8.1127 -2.5017 0.9665
-0.2903 -8.1283 -2.5017 0.9665
0.8694 -8.0868 -2.5017 0.9665
1.1575 -8.0506 -2.5017 0.9665
1.4441 -8.0042 -2.5017 0.9665
1.7289 -7.9475 -2.5017 0.9665
2.5685 -7.7172 -2.5016 0.9665
2.8423 -7.6206 -2.5016 0.9665
3.1125 -7.5142 -2.5016 0.9665
3.3787 -7.3984 -2.5016 0.9665
3.6406 -7.2730 -2.5016 0.9665
3.8979 -7.1385 -2.5016 0.9665
4.1502 -6.9948 -2.5016 0.9665
4.3972 -6.8422 -2.5016 0.9665
4.6386 -6.6809 -2.5016 0.9665
4.8741 -6.5111 -2.5016 0.9665
5.1034 -6.3329 -2.5016 0.9665
5.5422 -5.9527 -2.5016 0.9665
5.9527 -5.5422 -2.5016 0.9665
6.1467 -5.3262 -2.5016 0.9665
6.3329 -5.1034 -2.5016 0.9665
6.6808 -4.6386 -2.5016 0.9665
7.1384 -3.8979 -2.5016 0.9665
7.7170 -2.5685 -2.5016 0.9665
8.0040 -1.4441 -2.5016 0.9665
8.0505 -1.1575 -2.5016 0.9665
8.0867 -0.8694 -2.5016 0.9665
5.3146 -0.1898 -1.6357 0.9780
-7.5262 -0.0000 -2.5017 0.9688
-7.5070 -0.5369 -2.5017 0.9688
-7.4496 -1.0711 -2.5017 0.9688
-7.4066 -1.3363 -2.5017 0.9688
-7.2924 -1.8613 -2.5017 0.9688
-7.2213 -2.1204 -2.5017 0.9688
-7.0516 -2.6301 -2.5017 0.9688
-6.9532 -2.8801 -2.5017 0.9688
-6.8460 -3.1265 -2.5017 0.9688
-6.3314 -4.0689 -2.5017 0.9688
-5.8601 -4.7224 -2.5017 0.9688
-5.6878 -4.9285 -2.5017 0.9688
-5.5083 -5.1284 -2.5017 0.9688
-5.3217 -5.3218 -2.5017 0.9688
-5.1284 -5.5083 -2.5017 0.9688
-4.9285 -5.6878 -2.5017 0.9688
-4.7224 -5.8601 -2.5017 0.9688
-4.2923 -6.1821 -2.5017 0.9688
-4.0689 -6.3313 -2.5017 0.9688
-3.6068 -6.6055 -2.5017 0.9688
-3.3688 -6.7300 -2.5017 0.9688
-3.1264 -6.8459 -2.5017 0.9688
-2.6301 -7.0515 -2.5017 0.9688
-2.1203 -7.2212 -2.5017 0.9688
-1.8612 -7.2922 -2.5017 0.9688
-1.5998 -7.3540 -2.5017 0.9688
-0.8045 -7.4829 -2.5017 0.9688
-0.2686 -7.5212 -2.5017 0.9688
0.0000 -7.5260 -2.5017 0.9688
0.2686 -7.5212 -2.5017 0.9688
0.5369 -7.5068 -2.5017 0.9688
1.0711 -7.4493 -2.5017 0.9688
1.3363 -7.4063 -2.5017 0.9688
1.8612 -7.2921 -2.5017 0.9688
2.1203 -7.2211 -2.5017 0.9688
3.1264 -6.8458 -2.5016 0.9688
3.8402 -6.4724 -2.5016 0.9688
4.0688 -6.3312 -2.5016 0.9688
4.5101 -6.0248 -2.5016 0.9688
4.9284 -5.6877 -2.5016 0.9688
5.1282 -5.5081 -2.5016 0.9688
5.5081 -5.1283 -2.5016 0.9688
5.8599 -4.7222 -2.5016 0.9688
6.1819 -4.2922 -2.5016 0.9688
6.8457 -3.1263 -2.5016 0.9688
7.2210 -2.1203 -2.5016 0.9688
7.4062 -1.3362 -2.5016 0.9688
7.4492 -1.0710 -2.5016 0.9688
7.4827 -0.8045 -2.5016 0.9688
-6.9958 -0.0000 -2.5017 0.9707
-6.9913 -0.2497 -2.5017 0.9707
-6.9779 -0.4991 -2.5017 0.9707
-6.8359 -1.4871 -2.5017 0.9707
-6.7784 -1.7301 -2.5017 0.9707
-6.7124 -1.9709 -2.5017 0.9707
-6.6377 -2.2093 -2.5017 0.9707
-6.5547 -2.4448 -2.5017 0.9707
-6.4632 -2.6772 -2.5017 0.9707
-6.3635 -2.9061 -2.5017 0.9707
-6.0164 -3.5697 -2.5017 0.9707
-5.8852 -3.7822 -2.5017 0.9707
-5.7464 -3.9898 -2.5017 0.9707
-5.6004 -4.1924 -2.5017 0.9707
-5.2870 -4.5812 -2.5017 0.9707
-5.1201 -4.7670 -2.5017 0.9707
-4.9467 -4.9467 -2.5017 0.9707
-3.9898 -5.7464 -2.5017 0.9707
-3.7821 -5.8851 -2.5017 0.9707
-3.5697 -6.0164 -2.5017 0.9707
-3.3527 -6.1399 -2.5017 0.9707
-3.1314 -6.2557 -2.5017 0.9707
-2.9061 -6.3635 -2.5017 0.9707
-2.6771 -6.4631 -2.5017 0.9707
-1.7301 -6.7783 -2.5017 0.9707
-1.2421 -6.8845 -2.5017 0.9707
-0.9956 -6.9244 -2.5017 0.9707
-0.7478 -6.9555 -2.5017 0.9707
-0.4991 -6.9778 -2.5017 0.9707
-0.0000 -6.9956 -2.5017 0.9707
0.4991 -6.9777 -2.5017 0.9707
0.7478 -6.9555 -2.5017 0.9707
0.9956 -6.9244 -2.5017 0.9707
1.2421 -6.8844 -2.5017 0.9707
1.4870 -6.8357 -2.5017 0.9707
1.7300 -6.7782 -2.5017 0.9707
1.9709 -6.7122 -2.5017 0.9707
2.2092 -6.6375 -2.5017 0.9707
2.6771 -6.4630 -2.5016 0.9707
4.9466 -4.9466 -2.5016 0.9707
5.1199 -4.7669 -2.5016 0.9707
5.2868 -4.5811 -2.5016 0.9707
5.4470 -4.3894 -2.5016 0.9707
5.6002 -4.1922 -2.5016 0.9707
6.0162 -3.5696 -2.5016 0.9707
6.2555 -3.1313 -2.5016 0.9707
6.4630 -2.6770 -2.5016 0.9707
6.6375 -2.2092 -2.5016 0.9707
6.7782 -1.7300 -2.5016 0.9707
6.8843 -1.2421 -2.5016 0.9707
6.9242 -0.9956 -2.5016 0.9707
6.9554 -0.7478 -2.5016 0.9707
5.2890 -0.3783 -1.8962 0.9777
-6.5282 0.0000 -2.5017 0.9724
-6.5116 -0.4657 -2.5017 0.9724
-6.4618 -0.9291 -2.5017 0.9724
-6.4245 -1.1591 -2.5017 0.9724
-6.3254 -1.6145 -2.5017 0.9724
-6.1166 -2.2814 -2.5017 0.9724
-5.9383 -2.7119 -2.5017 0.9724
-5.8377 -2.9221 -2.5017 0.9724
-5.7297 -3.1286 -2.5017 0.9724
-5.2261 -3.9122 -2.5017 0.9724
-5.0831 -4.0962 -2.5017 0.9724
-4.6161 -4.6161 -2.5017 0.9724
-4.4484 -4.7779 -2.5017 0.9724
-4.2750 -4.9337 -2.5017 0.9724
-4.0962 -5.0831 -2.5017 0.9724
-3.9122 -5.2261 -2.5017 0.9724
-3.7231 -5.3624 -2.5017 0.9724
-3.5294 -5.4918 -2.5017 0.9724
-3.1286 -5.7296 -2.5017 0.9724
-2.2813 -6.1165 -2.5017 0.9724
-2.0616 -6.1940 -2.5017 0.9724
-1.1591 -6.4244 -2.5017 0.9724
-0.6978 -6.4907 -2.5017 0.9724
-0.4657 -6.5114 -2.5017 0.9724
0.4657 -6.5114 -2.5017 0.9724
0.6978 -6.4906 -2.5017 0.9724
0.9290 -6.4616 -2.5017 0.9724
1.1591 -6.4243 -2.5017 0.9724
1.3876 -6.3788 -2.5017 0.9724
1.6144 -6.3253 -2.5017 0.9724
1.8392 -6.2636 -2.5017 0.9724
2.0615 -6.1940 -2.5017 0.9724
2.4982 -6.0311 -2.5017 0.9724
2.7118 -5.9381 -2.5016 0.9724
2.9220 -5.8375 -2.5016 0.9724
3.5293 -5.4917 -2.5016 0.9724
3.7231 -5.3622 -2.5016 0.9724
3.9121 -5.2259 -2.5016 0.9724
4.6160 -4.6160 -2.5016 0.9724
4.7778 -4.4483 -2.5016 0.9724
4.9335 -4.2749 -2.5016 0.9724
5.0829 -4.0961 -2.5016 0.9724
5.2259 -3.9121 -2.5016 0.9724
5.3622 -3.7230 -2.5016 0.9724
5.6141 -3.3310 -2.5016 0.9724
5.7294 -3.1285 -2.5016 0.9724
5.8375 -2.9220 -2.5016 0.9724
5.9380 -2.7118 -2.5016 0.9724
6.0310 -2.4981 -2.5016 0.9724
6.2635 -1.8391 -2.5016 0.9724
6.3252 -1.6144 -2.5016 0.9724
6.3788 -1.3876 -2.5016 0.9724
6.4242 -1.1591 -2.5016 0.9724
5.0515 -0.5431 -1.9470 0.9785
5.0828 -0.1815 -1.9491 0.9784
-6.1126 -0.0000 -2.5017 0.9739
-6.1087 -0.2182 -2.5017 0.9739
-6.0970 -0.4361 -2.5017 0.9739
-6.0155 -1.0853 -2.5017 0.9739
-5.9227 -1.5117 -2.5017 0.9739
-5.8650 -1.7221 -2.5017 0.9739
-5.7272 -2.1361 -2.5017 0.9739
-5.5602 -2.5393 -2.5017 0.9739
-5.3649 -2.9294 -2.5017 0.9739
-5.1422 -3.3047 -2.5017 0.9739
-5.0210 -3.4861 -2.5017 0.9739
-4.7595 -3.8354 -2.5017 0.9739
-4.4737 -4.1652 -2.5017 0.9739
-4.3222 -4.3222 -2.5017 0.9739
-4.1652 -4.4737 -2.5017 0.9739
-4.0029 -4.6196 -2.5017 0.9739
-3.6631 -4.8933 -2.5017 0.9739
-3.4861 -5.0210 -2.5017 0.9739
-3.3047 -5.1422 -2.5017 0.9739
-2.3391 -5.6472 -2.5017 0.9739
-2.1361 -5.7271 -2.5017 0.9739
-1.9303 -5.7997 -2.5017 0.9739
-1.5117 -5.9226 -2.5017 0.9739
-1.2993 -5.9728 -2.5017 0.9739
-1.0853 -6.0154 -2.5017 0.9739
-0.8699 -6.0502 -2.5017 0.9739
-0.6534 -6.0774 -2.5017 0.9739
-0.0000 -6.1125 -2.5017 0.9739
0.4361 -6.0969 -2.5017 0.9739
0.8699 -6.0502 -2.5017 0.9739
1.0853 -6.0153 -2.5017 0.9739
1.2993 -5.9727 -2.5017 0.9739
1.7221 -5.8648 -2.5017 0.9739
1.9303 -5.7996 -2.5017 0.9739
2.5392 -5.5600 -2.5017 0.9739
2.7360 -5.4659 -2.5017 0.9739
2.9294 -5.3647 -2.5016 0.9739
3.3046 -5.1421 -2.5016 0.9739
3.6630 -4.8932 -2.5016 0.9739
4.1651 -4.4736 -2.5016 0.9739
4.4736 -4.1651 -2.5016 0.9739
4.7593 -3.8353 -2.5016 0.9739
4.8932 -3.6630 -2.5016 0.9739
5.1420 -3.3046 -2.5016 0.9739
5.2567 -3.1190 -2.5016 0.9739
5.3647 -2.9293 -2.5016 0.9739
5.4658 -2.7360 -2.5016 0.9739
5.7270 -2.1360 -2.5016 0.9739
5.9727 -1.2993 -2.5016 0.9739
4.7578 -0.1699 -1.9485 0.9796
-5.7367 -0.2049 -2.5017 0.9753
-5.7074 -0.6136 -2.5017 0.9753
-5.6491 -1.0192 -2.5017 0.9753
-5.5620 -1.4196 -2.5017 0.9753
-5.3784 -2.0060 -2.5017 0.9753
-5.3033 -2.1967 -2.5017 0.9753
-5.0381 -2.7510 -2.5017 0.9753
-4.8290 -3.1034 -2.5017 0.9753
-4.7152 -3.2738 -2.5017 0.9753
-4.5953 -3.4400 -2.5017 0.9753
-4.2013 -3.9115 -2.5017 0.9753
-3.6018 -4.4696 -2.5017 0.9753
-3.2738 -4.7152 -2.5017 0.9753
-2.9291 -4.9367 -2.5017 0.9753
-2.5694 -5.1331 -2.5017 0.9753
-2.1967 -5.3033 -2.5017 0.9753
-2.0060 -5.3783 -2.5017 0.9753
-1.2202 -5.6090 -2.5017 0.9753
-1.0192 -5.6490 -2.5017 0.9753
-0.8169 -5.6818 -2.5017 0.9753
-0.4095 -5.7256 -2.5017 0.9753
0.2049 -5.7365 -2.5017 0.9753
2.0060 -5.3782 -2.5017 0.9753
2.3845 -5.2214 -2.5017 0.9753
2.7510 -5.0380 -2.5017 0.9753
2.9290 -4.9366 -2.5016 0.9753
3.1034 -4.8289 -2.5016 0.9753
3.7590 -4.3381 -2.5016 0.9753
4.0589 -4.0589 -2.5016 0.9753
4.3381 -3.7590 -2.5016 0.9753
4.7150 -3.2737 -2.5016 0.9753
4.8289 -3.1033 -2.5016 0.9753
4.9366 -2.9290 -2.5016 0.9753
5.1330 -2.5694 -2.5016 0.9753
5.2214 -2.3845 -2.5016 0.9753
5.3032 -2.1967 -2.5016 0.9753
5.5076 -1.6172 -2.5016 0.9753
5.6089 -1.2202 -2.5016 0.9753
4.7369 -0.6811 -2.0857 0.9793
-5.3909 -0.3856 -2.5017 0.9765
-5.3737 -0.5777 -2.5017 0.9765
-5.3496 -0.7692 -2.5017 0.9765
-5.2811 -1.1488 -2.5017 0.9765
-5.2367 -1.3366 -2.5017 0.9765
-5.1280 -1.7068 -2.5017 0.9765
-4.9932 -2.0683 -2.5017 0.9765
-4.9162 -2.2452 -2.5017 0.9765
-4.8329 -2.4192 -2.5017 0.9765
-4.7435 -2.5902 -2.5017 0.9765
-4.4395 -3.0824 -2.5017 0.9765
-4.0845 -3.5393 -2.5017 0.9765
-3.9556 -3.6828 -2.5017 0.9765
-3.6828 -3.9556 -2.5017 0.9765
-3.0824 -4.4394 -2.5017 0.9765
-2.7578 -4.6480 -2.5017 0.9765
-2.5901 -4.7435 -2.5017 0.9765
-2.4192 -4.8329 -2.5017 0.9765
-2.2451 -4.9162 -2.5017 0.9765
-1.3366 -5.2367 -2.5017 0.9765
-0.9596 -5.3187 -2.5017 0.9765
-0.7691 -5.3495 -2.5017 0.9765
-0.1929 -5.4011 -2.5017 0.9765
0.1929 -5.4011 -2.5017 0.9765
0.7691 -5.3495 -2.5017 0.9765
0.9596 -5.3186 -2.5017 0.9765
1.1488 -5.2810 -2.5017 0.9765
1.7067 -5.1279 -2.5017 0.9765
1.8887 -5.0637 -2.5017 0.9765
2.0682 -4.9931 -2.5017 0.9765
2.4191 -4.8328 -2.5017 0.9765
2.9219 -4.5465 -2.5017 0.9765
3.0823 -4.4394 -2.5016 0.9765
3.5392 -4.0844 -2.5016 0.9765
3.6827 -3.9555 -2.5016 0.9765
3.8215 -3.8215 -2.5016 0.9765
4.0844 -3.5392 -2.5016 0.9765
4.3265 -3.2388 -2.5016 0.9765
4.4393 -3.0823 -2.5016 0.9765
4.5465 -2.9219 -2.5016 0.9765
4.7434 -2.5901 -2.5016 0.9765
4.8328 -2.4191 -2.5016 0.9765
4.9161 -2.2451 -2.5016 0.9765
4.9931 -2.0682 -2.5016 0.9765
5.0637 -1.8887 -2.5016 0.9765
5.1855 -1.5226 -2.5016 0.9765
5.2809 -1.1488 -2.5016 0.9765
5.3186 -0.9596 -2.5016 0.9765
4.7160 -0.6781 -2.2054 0.9792
5.3735 -0.5777 -2.5016 0.9765
5.4010 -0.1929 -2.5016 0.9765
-5.1001 -0.0000 -2.5017 0.9775
-5.0969 -0.1820 -2.5017 0.9775
-5.0709 -0.5452 -2.5017 0.9775
-5.0482 -0.7258 -2.5017 0.9775
-4.8391 -1.6106 -2.5017 0.9775
-4.7785 -1.7823 -2.5017 0.9775
-4.6392 -2.1187 -2.5017 0.9775
-4.5606 -2.2829 -2.5017 0.9775
-4.4762 -2.4442 -2.5017 0.9775
-4.2905 -2.7573 -2.5017 0.9775
-4.1893 -2.9087 -2.5017 0.9775
-3.9711 -3.2001 -2.5017 0.9775
-3.6063 -3.6063 -2.5017 0.9775
-3.4753 -3.7327 -2.5017 0.9775
-3.3398 -3.8544 -2.5017 0.9775
-3.2001 -3.9711 -2.5017 0.9775
-3.0563 -4.0828 -2.5017 0.9775
-2.9087 -4.1893 -2.5017 0.9775
-2.6024 -4.3861 -2.5017 0.9775
-2.4442 -4.4762 -2.5017 0.9775
-2.2829 -4.5606 -2.5017 0.9775
-2.1186 -4.6392 -2.5017 0.9775
-1.7823 -4.7785 -2.5017 0.9775
-1.2613 -4.9416 -2.5017 0.9775
-0.9055 -5.0190 -2.5017 0.9775
-0.7258 -5.0481 -2.5017 0.9775
-0.3638 -5.0870 -2.5017 0.9775
-0.1820 -5.0968 -2.5017 0.9775
0.1820 -5.0968 -2.5017 0.9775
0.3638 -5.0870 -2.5017 0.9775
0.7258 -5.0481 -2.5017 0.9775
0.9055 -5.0190 -2.5017 0.9775
1.2613 -4.9416 -2.5017 0.9775
1.7823 -4.7784 -2.5017 0.9775
1.9517 -4.7118 -2.5017 0.9775
2.7572 -4.2904 -2.5017 0.9775
2.9086 -4.1892 -2.5017 0.9775
3.0563 -4.0827 -2.5017 0.9775
3.3398 -3.8543 -2.5016 0.9775
3.9710 -3.2001 -2.5016 0.9775
4.0827 -3.0563 -2.5016 0.9775
4.1892 -2.9086 -2.5016 0.9775
4.3860 -2.6023 -2.5016 0.9775
4.4761 -2.4441 -2.5016 0.9775
4.6391 -2.1186 -2.5016 0.9775
4.7117 -1.9517 -2.5016 0.9775
4.7784 -1.7823 -2.5016 0.9775
4.8390 -1.6106 -2.5016 0.9775
4.9415 -1.2613 -2.5016 0.9775
4.9834 -1.0841 -2.5016 0.9775
5.0189 -0.9055 -2.5016 0.9775
5.0869 -0.3638 -2.5016 0.9775
5.0967 -0.1820 -2.5016 0.9775
-4.8100 -0.3440 -2.5017 0.9785
-4.7947 -0.5155 -2.5017 0.9785
-4.7121 -1.0251 -2.5017 0.9785
-4.6725 -1.1926 -2.5017 0.9785
-4.6270 -1.3586 -2.5017 0.9785
-4.5183 -1.6852 -2.5017 0.9785
-4.3122 -2.1586 -2.5017 0.9785
-4.1472 -2.4607 -2.5017 0.9785
-3.7548 -3.0258 -2.5017 0.9785
-3.6444 -3.1579 -2.5017 0.9785
-3.0258 -3.7548 -2.5017 0.9785
-2.8899 -3.8604 -2.5017 0.9785
-2.7503 -3.9611 -2.5017 0.9785
-2.3111 -4.2324 -2.5017 0.9785
-2.1585 -4.3122 -2.5017 0.9785
-1.8454 -4.4552 -2.5017 0.9785
-1.6852 -4.5182 -2.5017 0.9785
-1.5229 -4.5755 -2.5017 0.9785
-1.1926 -4.6725 -2.5017 0.9785
-0.8562 -4.7456 -2.5017 0.9785
-0.6863 -4.7732 -2.5017 0.9785
0.0000 -4.8222 -2.5017 0.9785
0.1721 -4.8192 -2.5017 0.9785
0.3440 -4.8099 -2.5017 0.9785
0.5155 -4.7946 -2.5017 0.9785
0.6863 -4.7731 -2.5017 0.9785
0.8562 -4.7456 -2.5017 0.9785
1.0250 -4.7120 -2.5017 0.9785
1.1912 -4.6672 -2.4989 0.9785
1.3586 -4.6269 -2.5017 0.9785
2.1585 -4.3121 -2.5017 0.9785
2.3110 -4.2323 -2.5017 0.9785
2.6071 -4.0567 -2.5017 0.9785
2.7502 -3.9610 -2.5017 0.9785
2.8898 -3.8604 -2.5017 0.9785
3.0258 -3.7548 -2.5017 0.9785
3.1579 -3.6444 -2.5016 0.9785
3.5293 -3.2859 -2.5016 0.9785
4.1471 -2.4606 -2.5016 0.9785
4.3121 -2.1585 -2.5016 0.9785
4.3864 -2.0032 -2.5016 0.9785
4.4551 -1.8454 -2.5016 0.9785
4.5754 -1.5229 -2.5016 0.9785
4.6268 -1.3586 -2.5016 0.9785
4.6724 -1.1926 -2.5016 0.9785
4.7455 -0.8562 -2.5016 0.9785
4.7165 -0.6781 -2.4720 0.9788
4.8191 -0.1721 -2.5016 0.9785
-4.5677 -0.0000 -2.5017 0.9794
-4.5212 -0.6500 -2.5017 0.9794
-4.4633 -0.9709 -2.5017 0.9794
-4.4258 -1.1296 -2.5017 0.9794
-4.3339 -1.4425 -2.5017 0.9794
-4.2796 -1.5962 -2.5017 0.9794
-4.0089 -2.1890 -2.5017 0.9794
-3.9282 -2.3307 -2.5017 0.9794
-3.8425 -2.4695 -2.5017 0.9794
-3.7519 -2.6050 -2.5017 0.9794
-3.4520 -2.9912 -2.5017 0.9794
-3.2298 -3.2298 -2.5017 0.9794
-3.1125 -3.3430 -2.5017 0.9794
-2.9912 -3.4520 -2.5017 0.9794
-2.3307 -3.9282 -2.5017 0.9794
-2.1890 -4.0089 -2.5017 0.9794
-2.0445 -4.0845 -2.5017 0.9794
-1.8974 -4.1548 -2.5017 0.9794
-1.1296 -4.4257 -2.5017 0.9794
-0.9709 -4.4632 -2.5017 0.9794
-0.6500 -4.5211 -2.5017 0.9794
-0.1630 -4.5647 -2.5017 0.9794
0.1630 -4.5647 -2.5017 0.9794
0.3258 -4.5559 -2.5017 0.9794
0.4882 -4.5414 -2.5017 0.9794
1.2868 -4.3825 -2.5017 0.9794
1.7479 -4.2199 -2.5017 0.9794
1.8974 -4.1548 -2.5017 0.9794
2.0445 -4.0844 -2.5017 0.9794
2.3307 -3.9281 -2.5017 0.9794
2.4694 -3.8425 -2.5017 0.9794
2.6050 -3.7519 -2.5017 0.9794
2.7372 -3.6565 -2.5017 0.9794
2.8660 -3.5565 -2.5017 0.9794
3.4519 -2.9911 -2.5016 0.9794
3.7519 -2.6050 -2.5016 0.9794
3.8424 -2.4694 -2.5016 0.9794
3.9281 -2.3307 -2.5016 0.9794
4.0088 -2.1890 -2.5016 0.9794
4.1548 -1.8974 -2.5016 0.9794
4.2198 -1.7479 -2.5016 0.9794
4.3825 -1.2868 -2.5016 0.9794
4.4256 -1.1296 -2.5016 0.9794
4.4631 -0.9709 -2.5016 0.9794
4.4949 -0.8110 -2.5016 0.9794
4.5559 -0.3258 -2.5016 0.9794
-4.3331 0.0000 -2.5017 0.9802
-4.3303 -0.1547 -2.5017 0.9802
-4.3221 -0.3091 -2.5017 0.9802
-4.2642 -0.7694 -2.5017 0.9802
-4.1985 -1.0716 -2.5017 0.9802
-4.1576 -1.2208 -2.5017 0.9802
-4.0033 -1.6582 -2.5017 0.9802
-3.8748 -1.9396 -2.5017 0.9802
-3.7265 -2.2110 -2.5017 0.9802
-3.6452 -2.3426 -2.5017 0.9802
-3.5593 -2.4713 -2.5017 0.9802
-3.3739 -2.7189 -2.5017 0.9802
-3.0639 -3.0639 -2.5017 0.9802
-2.9526 -3.1713 -2.5017 0.9802
-2.8376 -3.2747 -2.5017 0.9802
-2.2110 -3.7265 -2.5017 0.9802
-1.9395 -3.8747 -2.5017 0.9802
-1.8000 -3.9415 -2.5017 0.9802
-1.6582 -4.0032 -2.5017 0.9802
-1.5142 -4.0598 -2.5017 0.9802
-1.3684 -4.1113 -2.5017 0.9802
-1.2208 -4.1575 -2.5017 0.9802
-1.0716 -4.1985 -2.5017 0.9802
-0.9211 -4.2340 -2.5017 0.9802
-0.7693 -4.2642 -2.5017 0.9802
-0.3091 -4.3220 -2.5017 0.9802
-0.1547 -4.3303 -2.5017 0.9802
0.0000 -4.3330 -2.5017 0.9802
0.3091 -4.3220 -2.5017 0.9802
0.7674 -4.2532 -2.4952 0.9802
1.0716 -4.1984 -2.5017 0.9802
1.2208 -4.1575 -2.5017 0.9802
1.3684 -4.1113 -2.5017 0.9802
1.5142 -4.0598 -2.5017 0.9802
2.0766 -3.8030 -2.5017 0.9802
2.3426 -3.6451 -2.5017 0.9802
2.4712 -3.5592 -2.5017 0.9802
2.7188 -3.3739 -2.5017 0.9802
3.0639 -3.0639 -2.5017 0.9802
3.1713 -2.9526 -2.5017 0.9802
3.2747 -2.8375 -2.5017 0.9802
3.8030 -2.0766 -2.5016 0.9802
3.9414 -1.8000 -2.5016 0.9802
4.0031 -1.6582 -2.5016 0.9802
4.0598 -1.5142 -2.5016 0.9802
4.1112 -1.3684 -2.5016 0.9802
4.1984 -1.0716 -2.5016 0.9802
4.3082 -0.4632 -2.5016 0.9802
4.3219 -0.3091 -2.5016 0.9802
