ply
format ascii 1.0
element vertex 1285
property float32 x
property float32 y
property float32 z
property float32 I
end_header
-31.9832 -31.9832 7.9755 0.8322
-29.7987 -32.0060 7.7108 0.8373
-24.0045 -32.0663 7.0629 0.8499
-13.3283 -32.1774 6.1412 0.8681
-12.0067 -32.1912 6.0581 0.8697
-9.4600 -32.2177 5.9207 0.8725
-8.2264 -32.2306 5.8653 0.8736
-7.0141 -32.2432 5.8183 0.8746
-5.8436 -32.3889 5.8032 0.8749
-4.6586 -32.4013 5.7720 0.8755
-1.1583 -32.4319 5.7223 0.8765
-0.0000 -32.4440 5.7207 0.8765
2.3222 -32.4682 5.7396 0.8762
3.4920 -32.4803 5.7602 0.8757
7.9189 -36.4024 6.5688 0.8596
9.7876 -16.4960 3.3821 0.9250
29.0750 -17.2510 5.9612 0.8717
-32.5360 -12.1353 5.3197 0.8689
-29.7987 -32.0060 6.6992 0.8378
-14.7146 -16.9816 3.4423 0.9131
-25.8254 -32.0473 6.3052 0.8466
-18.9593 -29.5013 5.3723 0.8677
-17.5128 -29.5163 5.2577 0.8703
-15.2345 -30.4348 5.2139 0.8713
-13.5812 -32.7879 5.4368 0.8662
-12.4023 -33.2518 5.4368 0.8662
-10.7187 -32.2046 5.1997 0.8717
-10.5353 -35.8798 5.7286 0.8596
-7.0141 -32.2432 5.0550 0.8750
-6.6395 -36.8004 5.7286 0.8596
-2.6584 -37.1691 5.7086 0.8600
-0.0000 -37.1968 5.6983 0.8603
1.1544 -32.3221 4.9547 0.8773
2.6623 -37.2243 5.7171 0.8598
3.9973 -37.1803 5.7286 0.8596
6.3768 -35.3442 5.5020 0.8647
-34.3262 -31.9588 6.1074 0.8276
-31.9832 -31.9832 5.8900 0.8332
-27.3850 -29.4136 5.2334 0.8503
-25.0689 -31.1086 5.2026 0.8512
-23.9426 -31.9836 5.2026 0.8512
-22.2765 -32.0843 5.0864 0.8542
-21.5983 -33.6076 5.2022 0.8512
-17.5461 -32.1332 4.7676 0.8627
-15.3023 -36.9430 5.2071 0.8510
-10.7187 -32.2046 4.4199 0.8720
-10.8915 -37.0929 5.0342 0.8556
-9.5057 -37.2429 5.0053 0.8564
-6.7005 -37.1383 4.9143 0.8588
-5.3611 -37.2875 4.9055 0.8590
-1.3332 -37.3300 4.8642 0.8601
-0.0000 -37.2085 4.8453 0.8606
1.1544 -32.3221 4.2117 0.8777
2.6729 -37.3715 4.8790 0.8597
4.0044 -37.2462 4.8782 0.8598
4.6650 -32.4458 4.2686 0.8761
9.7952 -16.5089 2.4997 0.9255
29.1210 -17.2783 4.4094 0.8723
-21.9290 -13.0111 2.7381 0.9025
-34.3260 -31.9586 5.0362 0.8281
-29.7987 -32.0060 4.6958 0.8387
-14.6806 -16.9424 2.4073 0.9138
-25.8251 -32.0471 4.4196 0.8474
-19.0562 -32.1176 4.0102 0.8605
-18.5302 -37.0188 4.4453 0.8466
-7.0141 -32.2432 3.5433 0.8757
-2.6601 -37.1933 4.0041 0.8607
-1.3337 -37.3421 4.0124 0.8604
2.6737 -37.3836 4.0246 0.8600
4.6650 -32.4458 3.5199 0.8765
7.4038 -41.0366 4.4777 0.8456
9.7990 -16.5153 2.0621 0.9257
29.1439 -17.2919 3.6389 0.8726
47.2338 -13.8691 5.2862 0.8203
-37.0841 -32.1336 4.1538 0.8212
-32.9318 -32.9318 3.9425 0.8295
-22.2765 -32.0843 3.3065 0.8549
-23.8502 -37.1117 3.7344 0.8377
-17.5461 -32.1332 3.0993 0.8633
-14.6884 -32.1633 2.9932 0.8677
-15.3544 -37.0689 3.3965 0.8512
-10.7187 -32.2046 2.8732 0.8726
-9.5120 -37.2677 3.2560 0.8569
-5.3451 -37.1762 3.1794 0.8600
-3.4705 -32.2801 2.7483 0.8778
-2.6610 -37.2053 3.1576 0.8609
1.1544 -32.3221 2.7379 0.8782
2.6649 -37.2598 3.1622 0.8607
4.6650 -32.4458 2.7749 0.8767
29.1667 -17.3054 2.8709 0.8727
-32.9318 -32.9318 2.8880 0.8297
-29.7987 -32.0060 2.7117 0.8392
-25.8251 -32.0471 2.5522 0.8479
-25.2434 -33.7213 2.6121 0.8447
-23.7459 -36.9493 2.7236 0.8386
-14.6885 -32.1633 2.1926 0.8679
-13.8343 -37.0911 2.4548 0.8533
-9.4785 -37.1365 2.3767 0.8576
-7.0141 -32.2432 2.0462 0.8761
-4.4014 -24.3954 1.5372 0.9054
-1.3294 -37.2213 2.3096 0.8613
-0.0000 -37.2351 2.3090 0.8614
4.6650 -32.4458 2.0327 0.8769
7.4038 -41.0366 2.5858 0.8461
7.9189 -36.4024 2.3101 0.8613
15.4495 -33.8296 2.3062 0.8615
9.8066 -16.5281 1.1917 0.9259
29.1894 -17.3189 2.1047 0.8728
-37.0841 -32.1336 1.9349 0.8217
-14.6305 -16.8845 0.8809 0.9144
-25.8252 -32.0471 1.6229 0.8481
-25.2434 -33.7213 1.6610 0.8448
-23.7706 -36.9877 1.7337 0.8386
-18.5419 -37.0421 1.6334 0.8472
-14.6884 -32.1633 1.3942 0.8680
-10.7187 -32.2046 1.3383 0.8730
-10.8999 -37.1217 1.5255 0.8565
-7.0141 -32.2432 1.3011 0.8763
-4.4014 -24.3954 0.9774 0.9055
-2.6611 -37.2075 1.4709 0.8613
2.6651 -37.2629 1.4731 0.8611
4.6650 -32.4459 1.2925 0.8770
7.4038 -41.0365 1.6442 0.8463
7.9189 -36.4024 1.4690 0.8615
14.5223 -35.0600 1.4964 0.8591
9.8103 -16.5344 0.7581 0.9259
25.3941 -23.6427 1.3681 0.8703
35.5432 -24.6781 1.7062 0.8410
-14.4056 -24.2794 0.4769 0.8932
-17.5461 -32.1332 0.6184 0.8638
-18.5227 -37.0036 0.6990 0.8474
-14.6884 -32.1633 0.5973 0.8681
-10.8886 -37.0831 0.6528 0.8567
-4.4014 -24.3954 0.4188 0.9056
-2.6584 -37.1688 0.6295 0.8615
-1.2840 -35.9505 0.6077 0.8660
-0.0000 -36.5533 0.6175 0.8640
2.6623 -37.2242 0.6304 0.8613
7.4038 -41.0365 0.7044 0.8464
7.4002 -34.0180 0.5881 0.8700
9.8141 -16.5408 0.3249 0.9259
29.2349 -17.3459 0.5742 0.8728
38.7854 -16.0654 0.7091 0.8454
-30.4317 -16.6170 -0.1952 0.8705
-37.0841 -32.1336 -0.2763 0.8218
-34.3260 -31.9586 -0.2641 0.8289
-32.9318 -32.9318 -0.2622 0.8300
-29.7987 -32.0060 -0.2462 0.8395
-14.5974 -16.8463 -0.1255 0.9147
-25.8251 -32.0471 -0.2317 0.8482
-25.2434 -33.7213 -0.2372 0.8449
-22.2765 -32.0843 -0.2199 0.8554
-18.5419 -37.0421 -0.2332 0.8473
-15.3266 -37.0016 -0.2255 0.8520
-10.8999 -37.1217 -0.2178 0.8566
-9.4877 -37.1724 -0.2160 0.8577
-5.3544 -37.2406 -0.2118 0.8603
-3.4671 -32.2484 -0.1826 0.8783
-2.6611 -37.2075 -0.2100 0.8614
-0.0000 -36.6794 -0.2065 0.8635
1.1544 -32.3221 -0.1821 0.8786
2.6651 -37.2629 -0.2103 0.8612
4.0007 -37.2118 -0.2107 0.8610
7.4038 -41.0366 -0.2348 0.8464
7.3847 -33.9467 -0.1956 0.8703
29.2576 -17.3593 -0.1915 0.8728
-30.4157 -16.6082 -0.9758 0.8705
-37.0841 -32.1336 -1.3817 0.8217
-32.9318 -32.9318 -1.3114 0.8300
-29.7987 -32.0060 -1.2313 0.8395
-14.5809 -16.8273 -0.6270 0.9148
-25.8251 -32.0471 -1.1589 0.8482
-23.7935 -37.0235 -1.2392 0.8385
-14.4056 -24.2794 -0.7949 0.8932
-17.5461 -32.1332 -1.0309 0.8637
-9.4877 -37.1724 -1.0802 0.8577
-5.3544 -37.2406 -1.0594 0.8602
-2.6611 -37.2075 -1.0504 0.8613
-1.3309 -37.2649 -1.0500 0.8614
-0.0000 -36.6794 -1.0328 0.8635
2.6651 -37.2629 -1.0519 0.8611
4.0007 -37.2118 -1.0538 0.8609
7.4038 -41.0365 -1.1742 0.8463
7.3770 -33.9114 -0.9772 0.8703
28.2216 -37.6997 -1.3260 0.8282
28.3604 -35.1931 -1.2727 0.8345
28.6096 -33.0172 -1.2302 0.8396
41.0056 -18.7266 -1.2693 0.8349
39.5943 -16.4005 -1.2067 0.8424
-48.2278 0.0000 -2.4458 0.8244
-48.1971 -1.7214 -2.4458 0.8244
-48.1049 -3.4405 -2.4458 0.8244
-47.7369 -6.8636 -2.4458 0.8244
-47.4615 -8.5630 -2.4458 0.8244
-46.7297 -11.9271 -2.4458 0.8244
-41.7840 -17.3075 -2.2936 0.8343
-40.4428 -20.2443 -2.2936 0.8343
-29.1527 -17.2971 -1.7191 0.8730
-36.5977 -27.3967 -2.3185 0.8327
-34.7009 -30.0685 -2.3286 0.8320
-33.6759 -31.3534 -2.3335 0.8317
-32.6013 -32.6013 -2.3382 0.8314
-14.5645 -16.8083 -1.1279 0.9148
-23.7458 -36.9493 -2.2275 0.8387
-14.6884 -32.1633 -1.7932 0.8680
-13.8199 -37.0526 -2.0055 0.8535
-10.7187 -32.2046 -1.7213 0.8729
-10.8999 -37.1217 -1.9621 0.8565
-7.0141 -32.2432 -1.6734 0.8762
-5.3544 -37.2406 -1.9080 0.8601
-3.4705 -32.2801 -1.6465 0.8781
-1.3296 -37.2288 -1.8892 0.8614
2.6651 -37.2629 -1.8946 0.8610
4.6650 -32.4458 -1.6624 0.8770
7.4038 -41.0365 -2.1147 0.8462
7.3329 -33.7084 -1.7495 0.8710
14.8338 -44.5683 -2.3822 0.8285
17.9390 -43.3086 -2.3773 0.8288
7.6278 -15.2384 -0.8642 0.9340
8.3248 -15.2457 -0.8809 0.9328
23.2756 -33.5233 -2.0697 0.8492
22.6096 -30.2029 -1.9134 0.8598
26.5482 -30.6383 -2.0560 0.8501
28.4409 -28.4409 -2.0398 0.8512
23.4486 -20.3183 -1.5735 0.8831
29.8440 -20.7211 -1.8426 0.8646
29.3032 -17.3864 -1.7280 0.8724
39.7449 -21.7023 -2.2965 0.8341
40.4428 -20.2442 -2.2936 0.8343
44.4504 -14.7945 -2.3759 0.8289
46.2742 -13.5874 -2.4458 0.8244
47.1257 -10.2515 -2.4458 0.8244
47.4615 -8.5630 -2.4458 0.8244
47.7369 -6.8635 -2.4458 0.8244
47.9515 -5.1553 -2.4458 0.8244
-33.2724 -2.3797 -2.4458 0.8748
-33.1663 -3.5658 -2.4458 0.8748
-33.0179 -4.7473 -2.4458 0.8748
-32.3213 -8.2495 -2.4458 0.8748
-31.6504 -10.5343 -2.4458 0.8748
-31.2542 -11.6572 -2.4458 0.8748
-30.8183 -12.7653 -2.4458 0.8748
-26.3158 -16.9122 -2.2936 0.8821
-25.0423 -18.7464 -2.2936 0.8821
-24.3572 -19.6283 -2.2936 0.8821
-21.3905 -22.9750 -2.3017 0.8817
-19.7463 -24.5037 -2.3074 0.8814
-13.4691 -20.9583 -1.8267 0.9049
-14.3707 -24.2206 -2.0650 0.8932
-15.1621 -27.7673 -2.3197 0.8808
-14.1739 -28.3160 -2.3218 0.8807
-12.1369 -29.3011 -2.3254 0.8806
-7.5843 -20.3341 -1.5913 0.9166
-8.9523 -30.4888 -2.3299 0.8803
-4.4014 -24.3954 -1.8176 0.9054
-1.6739 -15.5697 -1.1482 0.9391
-1.5301 -21.3940 -1.5727 0.9176
-1.1365 -31.8226 -2.3348 0.8801
1.1365 -31.8226 -2.3348 0.8801
2.2714 -31.7577 -2.3345 0.8801
4.5293 -31.5016 -2.3335 0.8802
4.6589 -21.4167 -1.6070 0.9158
5.3522 -20.9696 -1.5868 0.9169
8.9515 -30.4859 -2.3297 0.8804
11.0899 -29.7332 -2.3268 0.8805
9.8292 -16.5662 -1.4124 0.9257
17.0691 -26.5600 -2.3149 0.8811
17.9873 -25.9066 -2.3125 0.8812
19.7448 -24.5018 -2.3073 0.8814
17.6742 -20.3971 -1.9789 0.8974
22.9132 -21.3330 -2.2955 0.8820
23.6411 -20.4851 -2.2936 0.8821
25.0422 -18.7464 -2.2936 0.8821
25.6954 -17.8406 -2.2936 0.8821
26.3158 -16.9121 -2.2936 0.8821
26.9027 -15.9621 -2.2936 0.8821
29.2569 -14.6449 -2.3989 0.8770
30.8182 -12.7653 -2.4458 0.8748
31.6504 -10.5343 -2.4458 0.8748
32.3212 -8.2495 -2.4458 0.8748
32.8274 -5.9227 -2.4458 0.8748
33.0179 -4.7473 -2.4458 0.8748
33.2724 -2.3797 -2.4458 0.8748
33.3362 -1.1906 -2.4458 0.8748
-25.4762 0.0000 -2.4458 0.9027
-25.4112 -1.8174 -2.4458 0.9027
-25.3302 -2.7233 -2.4458 0.9027
-25.2168 -3.6256 -2.4458 0.9027
-24.8939 -5.4154 -2.4458 0.9027
-24.1724 -8.0454 -2.4458 0.9027
-23.8699 -8.9030 -2.4458 0.9027
-23.1739 -10.5832 -2.4458 0.9027
-22.7814 -11.4036 -2.4458 0.9027
-22.3599 -12.2094 -2.4458 0.9027
-21.9098 -12.9997 -2.4458 0.9027
-21.4319 -13.7735 -2.4458 0.9027
-19.6076 -14.6780 -2.3514 0.9063
-18.6024 -14.9907 -2.2936 0.9085
-18.0555 -15.6452 -2.2936 0.9085
-15.7861 -15.7861 -2.1433 0.9142
-14.8074 -15.9043 -2.0862 0.9164
-13.8338 -15.9651 -2.0281 0.9186
-13.7621 -17.0778 -2.1057 0.9156
-14.3172 -19.1256 -2.2936 0.9085
-13.6255 -19.6244 -2.2936 0.9085
-9.9395 -21.7645 -2.2971 0.9083
-8.3708 -22.4430 -2.2996 0.9082
-5.9315 -23.2393 -2.3026 0.9081
-1.6607 -15.4465 -1.4915 0.9395
-0.5479 -15.3406 -1.4737 0.9402
-0.0000 -24.0145 -2.3055 0.9080
0.5486 -15.3618 -1.4758 0.9401
2.5664 -23.8712 -2.3050 0.9080
4.2611 -23.6175 -2.3040 0.9081
4.5129 -20.7453 -2.0382 0.9182
6.7545 -23.0037 -2.3017 0.9082
7.5680 -22.7382 -2.3007 0.9082
8.3707 -22.4427 -2.2996 0.9082
9.1615 -22.1179 -2.2984 0.9083
7.1003 -15.5475 -1.6409 0.9336
8.3471 -15.2866 -1.6721 0.9324
10.2471 -15.9448 -1.8196 0.9267
14.9907 -18.6024 -2.2936 0.9085
16.2796 -17.4856 -2.2936 0.9085
16.8934 -16.8934 -2.2936 0.9085
18.6024 -14.9907 -2.2936 0.9085
20.8846 -14.5005 -2.4409 0.9029
21.4319 -13.7734 -2.4458 0.9027
22.3599 -12.2094 -2.4458 0.9027
23.5369 -9.7493 -2.4458 0.9027
23.8699 -8.9030 -2.4458 0.9027
24.4442 -7.1775 -2.4458 0.9027
24.8939 -5.4154 -2.4458 0.9027
25.2168 -3.6256 -2.4458 0.9027
25.3302 -2.7233 -2.4458 0.9027
-20.5772 -0.7349 -2.4458 0.9204
-19.9507 -5.0921 -2.4458 0.9204
-19.2921 -7.1956 -2.4458 0.9204
-19.0230 -7.8796 -2.4458 0.9204
-17.3217 -11.1320 -2.4458 0.9204
-16.9133 -11.7431 -2.4458 0.9204
-16.4834 -12.3393 -2.4458 0.9204
-15.0699 -14.0306 -2.4458 0.9204
-12.7253 -14.6858 -2.3083 0.9247
-12.1158 -15.0348 -2.2936 0.9252
-11.5715 -15.4577 -2.2936 0.9252
-9.2538 -16.9471 -2.2936 0.9252
-8.6430 -17.2666 -2.2936 0.9252
-8.0212 -17.5641 -2.2936 0.9252
-7.3892 -17.8392 -2.2936 0.9252
-6.7478 -18.0916 -2.2936 0.9252
-5.4400 -18.5269 -2.2936 0.9252
-4.7753 -18.7092 -2.2936 0.9252
-4.1044 -18.8677 -2.2936 0.9252
-3.4284 -19.0022 -2.2936 0.9252
-2.7480 -19.1125 -2.2936 0.9252
-1.6609 -15.4486 -1.8457 0.9393
-0.5470 -15.3154 -1.8204 0.9401
-0.0000 -19.3090 -2.2936 0.9252
0.5478 -15.3370 -1.8230 0.9401
1.3775 -19.2598 -2.2936 0.9252
2.0640 -19.1984 -2.2936 0.9252
2.7480 -19.1125 -2.2936 0.9252
3.4284 -19.0022 -2.2936 0.9252
4.7752 -18.7092 -2.2936 0.9252
6.0978 -18.3209 -2.2936 0.9252
7.3892 -17.8392 -2.2936 0.9252
7.6483 -15.2793 -2.0296 0.9335
8.3471 -15.2866 -2.0689 0.9322
9.3797 -15.8087 -2.1835 0.9286
10.1763 -15.8346 -2.2359 0.9270
11.0124 -15.8608 -2.2936 0.9252
12.7254 -14.6858 -2.3083 0.9247
14.5277 -14.5277 -2.4405 0.9206
15.0699 -14.0306 -2.4458 0.9204
15.5611 -13.4838 -2.4458 0.9204
16.4834 -12.3393 -2.4458 0.9204
17.3217 -11.1320 -2.4458 0.9204
17.7080 -10.5066 -2.4458 0.9204
18.0717 -9.8679 -2.4458 0.9204
18.4124 -9.2166 -2.4458 0.9204
18.7296 -8.5535 -2.4458 0.9204
19.2921 -7.1956 -2.4458 0.9204
19.5366 -6.5024 -2.4458 0.9204
19.9507 -5.0921 -2.4458 0.9204
20.2631 -3.6559 -2.4458 0.9204
20.3807 -2.9303 -2.4458 0.9204
-17.2620 0.0000 -2.4458 0.9326
-17.2510 -0.6161 -2.4458 0.9326
-17.2180 -1.2315 -2.4458 0.9326
-17.1631 -1.8452 -2.4458 0.9326
-17.0863 -2.4566 -2.4458 0.9326
-16.7258 -4.2690 -2.4458 0.9326
-16.3786 -5.4513 -2.4458 0.9326
-16.1736 -6.0324 -2.4458 0.9326
-15.9480 -6.6059 -2.4458 0.9326
-15.1505 -8.2728 -2.4458 0.9326
-14.5217 -9.3325 -2.4458 0.9326
-13.8189 -10.3447 -2.4458 0.9326
-13.4409 -10.8314 -2.4458 0.9326
-13.0457 -11.3042 -2.4458 0.9326
-12.2061 -12.2061 -2.4458 0.9326
-11.7626 -12.6339 -2.4458 0.9326
-11.3042 -13.0457 -2.4458 0.9326
-10.8314 -13.4409 -2.4458 0.9326
-10.3447 -13.8189 -2.4458 0.9326
-9.8449 -14.1793 -2.4458 0.9326
-9.3143 -14.4934 -2.4411 0.9328
-8.7017 -14.6658 -2.4162 0.9334
-8.0129 -14.6746 -2.3690 0.9347
-7.3495 -14.6825 -2.3264 0.9358
-6.7246 -14.7249 -2.2936 0.9367
-6.1948 -14.9556 -2.2936 0.9367
-5.1121 -15.3594 -2.2936 0.9367
-4.5606 -15.5321 -2.2936 0.9367
-4.0034 -15.6850 -2.2936 0.9367
-3.4410 -15.8179 -2.2936 0.9367
-2.8742 -15.9306 -2.2936 0.9367
-1.6610 -15.4496 -2.2017 0.9392
-1.1548 -16.1465 -2.2936 0.9367
-0.0000 -16.1878 -2.2936 0.9367
1.1548 -16.1466 -2.2936 0.9367
2.8742 -15.9306 -2.2936 0.9367
3.4410 -15.8179 -2.2936 0.9367
4.0033 -15.6850 -2.2936 0.9367
5.1121 -15.3594 -2.2936 0.9367
5.6570 -15.1671 -2.2936 0.9367
7.3495 -14.6825 -2.3264 0.9358
8.7016 -14.6658 -2.4162 0.9334
9.3143 -14.4934 -2.4411 0.9328
10.3447 -13.8189 -2.4458 0.9326
10.8313 -13.4409 -2.4458 0.9326
11.3042 -13.0457 -2.4458 0.9326
12.2061 -12.2061 -2.4458 0.9326
12.6339 -11.7626 -2.4458 0.9326
13.0457 -11.3042 -2.4458 0.9326
13.8189 -10.3447 -2.4458 0.9326
14.1793 -9.8449 -2.4458 0.9326
15.1505 -8.2728 -2.4458 0.9326
15.4361 -7.7268 -2.4458 0.9326
16.7258 -4.2690 -2.4458 0.9326
16.9877 -3.0649 -2.4458 0.9326
17.1631 -1.8452 -2.4458 0.9326
17.2180 -1.2315 -2.4458 0.9326
-14.8467 0.0000 -2.4458 0.9416
-14.8373 -0.5299 -2.4458 0.9416
-14.8089 -1.0592 -2.4458 0.9416
-14.6956 -2.1129 -2.4458 0.9416
-14.6108 -2.6361 -2.4458 0.9416
-14.2453 -4.1828 -2.4458 0.9416
-14.0870 -4.6886 -2.4458 0.9416
-13.7166 -5.6816 -2.4458 0.9416
-13.5051 -6.1676 -2.4458 0.9416
-13.2763 -6.6456 -2.4458 0.9416
-13.0307 -7.1153 -2.4458 0.9416
-12.7684 -7.5758 -2.4458 0.9416
-12.4899 -8.0268 -2.4458 0.9416
-12.1954 -8.4674 -2.4458 0.9416
-10.8662 -10.1168 -2.4458 0.9416
-10.4982 -10.4982 -2.4458 0.9416
-10.1168 -10.8662 -2.4458 0.9416
-9.7225 -11.2204 -2.4458 0.9416
-9.3159 -11.5603 -2.4458 0.9416
-8.0268 -12.4899 -2.4458 0.9416
-7.1153 -13.0307 -2.4458 0.9416
-4.6886 -14.0870 -2.4458 0.9416
-4.1819 -14.2423 -2.4453 0.9416
-3.6677 -14.3698 -2.4432 0.9417
-2.6295 -14.5742 -2.4397 0.9417
-0.5238 -14.6656 -2.4175 0.9422
0.0000 -14.6659 -2.4160 0.9423
0.5238 -14.6656 -2.4175 0.9422
2.1065 -14.6509 -2.4384 0.9418
2.6295 -14.5742 -2.4397 0.9417
3.1500 -14.4805 -2.4413 0.9417
4.1819 -14.2423 -2.4453 0.9416
4.6886 -14.0870 -2.4458 0.9416
5.6816 -13.7166 -2.4458 0.9416
7.1153 -13.0307 -2.4458 0.9416
7.5758 -12.7684 -2.4458 0.9416
8.0267 -12.4899 -2.4458 0.9416
8.4674 -12.1954 -2.4458 0.9416
8.8973 -11.8854 -2.4458 0.9416
10.8662 -10.1168 -2.4458 0.9416
11.2204 -9.7225 -2.4458 0.9416
11.5603 -9.3159 -2.4458 0.9416
11.8854 -8.8973 -2.4458 0.9416
12.1954 -8.4674 -2.4458 0.9416
12.4899 -8.0268 -2.4458 0.9416
12.7684 -7.5758 -2.4458 0.9416
13.0307 -7.1153 -2.4458 0.9416
13.5051 -6.1676 -2.4458 0.9416
13.9106 -5.1884 -2.4458 0.9416
14.0870 -4.6886 -2.4458 0.9416
14.2453 -4.1828 -2.4458 0.9416
14.5074 -3.1559 -2.4458 0.9416
14.6108 -2.6361 -2.4458 0.9416
14.6956 -2.1129 -2.4458 0.9416
14.8089 -1.0592 -2.4458 0.9416
-13.0125 0.0000 -2.4458 0.9484
-13.0042 -0.4644 -2.4458 0.9484
-12.9793 -0.9283 -2.4458 0.9484
-12.8057 -2.3104 -2.4458 0.9484
-12.7151 -2.7660 -2.4458 0.9484
-12.1920 -4.5474 -2.4458 0.9484
-12.0220 -4.9797 -2.4458 0.9484
-11.8366 -5.4056 -2.4458 0.9484
-11.1909 -6.6399 -2.4458 0.9484
-10.9468 -7.0351 -2.4458 0.9484
-10.6887 -7.4213 -2.4458 0.9484
-10.4170 -7.7981 -2.4458 0.9484
-10.1321 -8.1649 -2.4458 0.9484
-9.8342 -8.5214 -2.4458 0.9484
-6.6399 -11.1909 -2.4458 0.9484
-5.8246 -11.6361 -2.4458 0.9484
-5.4056 -11.8366 -2.4458 0.9484
-4.9797 -12.0220 -2.4458 0.9484
-4.5474 -12.1920 -2.4458 0.9484
-4.1093 -12.3466 -2.4458 0.9484
-3.6660 -12.4854 -2.4458 0.9484
-2.7660 -12.7151 -2.4458 0.9484
-0.4644 -13.0042 -2.4458 0.9484
-0.0000 -13.0125 -2.4458 0.9484
1.8519 -12.8800 -2.4458 0.9484
2.7660 -12.7151 -2.4458 0.9484
3.6660 -12.4854 -2.4458 0.9484
4.1093 -12.3466 -2.4458 0.9484
5.4056 -11.8366 -2.4458 0.9484
5.8246 -11.6361 -2.4458 0.9484
6.2362 -11.4208 -2.4458 0.9484
6.6399 -11.1909 -2.4458 0.9484
7.0351 -10.9468 -2.4458 0.9484
7.4213 -10.6887 -2.4458 0.9484
8.1649 -10.1321 -2.4458 0.9484
8.5214 -9.8342 -2.4458 0.9484
9.5238 -8.8669 -2.4458 0.9484
9.8342 -8.5214 -2.4458 0.9484
10.1321 -8.1649 -2.4458 0.9484
10.6887 -7.4213 -2.4458 0.9484
10.9468 -7.0351 -2.4458 0.9484
11.1909 -6.6399 -2.4458 0.9484
11.6361 -5.8246 -2.4458 0.9484
12.3466 -4.1093 -2.4458 0.9484
12.4854 -3.6661 -2.4458 0.9484
12.7151 -2.7660 -2.4458 0.9484
12.8800 -1.8519 -2.4458 0.9484
13.0042 -0.4644 -2.4458 0.9484
-11.5634 -0.4130 -2.4458 0.9538
-11.5413 -0.8255 -2.4458 0.9538
-11.3870 -2.0544 -2.4458 0.9538
-11.1021 -3.2599 -2.4458 0.9538
-10.9787 -3.6541 -2.4458 0.9538
-10.5252 -4.8067 -2.4458 0.9538
-9.9511 -5.9043 -2.4458 0.9538
-9.0095 -7.2603 -2.4458 0.9538
-8.7446 -7.5773 -2.4458 0.9538
-8.4686 -7.8846 -2.4458 0.9538
-8.1818 -8.1818 -2.4458 0.9538
-7.8846 -8.4686 -2.4458 0.9538
-7.5773 -8.7446 -2.4458 0.9538
-7.2603 -9.0095 -2.4458 0.9538
-6.9341 -9.2629 -2.4458 0.9538
-5.5453 -10.1555 -2.4458 0.9538
-4.4280 -10.6900 -2.4458 0.9538
-4.0436 -10.8413 -2.4458 0.9538
-3.6541 -10.9787 -2.4458 0.9538
-3.2599 -11.1021 -2.4458 0.9538
-2.0544 -11.3870 -2.4458 0.9538
-1.2369 -11.5045 -2.4458 0.9538
-0.8255 -11.5413 -2.4458 0.9538
0.0000 -11.5708 -2.4458 0.9538
0.8255 -11.5413 -2.4458 0.9538
2.0544 -11.3870 -2.4458 0.9538
2.8615 -11.2114 -2.4458 0.9538
3.2599 -11.1021 -2.4458 0.9538
3.6541 -10.9787 -2.4458 0.9538
4.0436 -10.8413 -2.4458 0.9538
4.8067 -10.5252 -2.4458 0.9538
5.1793 -10.3469 -2.4458 0.9538
8.4686 -7.8846 -2.4458 0.9538
8.7446 -7.5773 -2.4458 0.9538
9.2629 -6.9341 -2.4458 0.9538
9.7340 -6.2557 -2.4458 0.9538
10.1555 -5.5453 -2.4458 0.9538
10.5252 -4.8067 -2.4458 0.9538
10.9787 -3.6541 -2.4458 0.9538
11.2114 -2.8615 -2.4458 0.9538
11.3870 -2.0544 -2.4458 0.9538
11.5413 -0.8255 -2.4458 0.9538
-10.4068 -0.0000 -2.4458 0.9581
-10.4002 -0.3714 -2.4458 0.9581
-10.3803 -0.7424 -2.4458 0.9581
-10.3472 -1.1124 -2.4458 0.9581
-10.3009 -1.4811 -2.4458 0.9581
-10.2415 -1.8478 -2.4458 0.9581
-10.1690 -2.2121 -2.4458 0.9581
-9.6146 -3.9825 -2.4458 0.9581
-9.4664 -4.3231 -2.4458 0.9581
-9.3060 -4.6583 -2.4458 0.9581
-9.1338 -4.9875 -2.4458 0.9581
-8.9500 -5.3103 -2.4458 0.9581
-8.3311 -6.2366 -2.4458 0.9581
-8.1032 -6.5299 -2.4458 0.9581
-7.8649 -6.8150 -2.4458 0.9581
-6.5299 -8.1032 -2.4458 0.9581
-6.2366 -8.3311 -2.4458 0.9581
-5.6263 -8.7548 -2.4458 0.9581
-5.3103 -8.9500 -2.4458 0.9581
-4.9874 -9.1338 -2.4458 0.9581
-4.3231 -9.4664 -2.4458 0.9581
-3.9825 -9.6146 -2.4458 0.9581
-3.6368 -9.7506 -2.4458 0.9581
-2.9319 -9.9853 -2.4458 0.9581
-2.5737 -10.0835 -2.4458 0.9581
-2.2121 -10.1690 -2.4458 0.9581
-1.8478 -10.2415 -2.4458 0.9581
-1.4810 -10.3009 -2.4458 0.9581
-0.7424 -10.3803 -2.4458 0.9581
-0.3714 -10.4002 -2.4458 0.9581
-0.0000 -10.4068 -2.4458 0.9581
0.3714 -10.4002 -2.4458 0.9581
1.1124 -10.3472 -2.4458 0.9581
1.4810 -10.3009 -2.4458 0.9581
2.2121 -10.1690 -2.4458 0.9581
2.5737 -10.0835 -2.4458 0.9581
2.9319 -9.9853 -2.4458 0.9581
3.2865 -9.8742 -2.4458 0.9581
4.6583 -9.3060 -2.4458 0.9581
5.3103 -8.9500 -2.4458 0.9581
5.6263 -8.7548 -2.4458 0.9581
5.9352 -8.5484 -2.4458 0.9581
6.2366 -8.3311 -2.4458 0.9581
6.5299 -8.1032 -2.4458 0.9581
8.1032 -6.5299 -2.4458 0.9581
8.5484 -5.9352 -2.4458 0.9581
8.9500 -5.3103 -2.4458 0.9581
9.4664 -4.3231 -2.4458 0.9581
9.7507 -3.6368 -2.4458 0.9581
9.8742 -3.2865 -2.4458 0.9581
10.0835 -2.5737 -2.4458 0.9581
10.1690 -2.2121 -2.4458 0.9581
10.2414 -1.8478 -2.4458 0.9581
10.3803 -0.7424 -2.4458 0.9581
-9.4464 0.0000 -2.4458 0.9617
-9.4223 -0.6739 -2.4458 0.9617
-9.3923 -1.0098 -2.4458 0.9617
-9.1530 -2.3362 -2.4458 0.9617
-8.9630 -2.9832 -2.4458 0.9617
-8.8508 -3.3012 -2.4458 0.9617
-8.6972 -3.6025 -2.4374 0.9618
-8.4472 -4.2284 -2.4458 0.9617
-7.3554 -5.9273 -2.4458 0.9617
-7.1391 -6.1861 -2.4458 0.9617
-6.6796 -6.6796 -2.4458 0.9617
-5.3875 -7.7595 -2.4458 0.9617
-4.8202 -8.1240 -2.4458 0.9617
-4.5272 -8.2909 -2.4458 0.9617
-4.2284 -8.4472 -2.4458 0.9617
-3.6150 -8.7273 -2.4458 0.9617
-3.3012 -8.8508 -2.4458 0.9617
-2.6614 -9.0637 -2.4458 0.9617
-2.3362 -9.1530 -2.4458 0.9617
-0.6739 -9.4223 -2.4458 0.9617
-0.3372 -9.4404 -2.4458 0.9617
0.3372 -9.4404 -2.4458 0.9617
0.6739 -9.4223 -2.4458 0.9617
1.0098 -9.3923 -2.4458 0.9617
1.6772 -9.2963 -2.4458 0.9617
2.0080 -9.2305 -2.4458 0.9617
2.3362 -9.1530 -2.4458 0.9617
2.9832 -8.9630 -2.4458 0.9617
3.6150 -8.7273 -2.4458 0.9617
4.5272 -8.2909 -2.4458 0.9617
4.8202 -8.1240 -2.4458 0.9617
5.1071 -7.9468 -2.4458 0.9617
5.3875 -7.7595 -2.4458 0.9617
6.4369 -6.9138 -2.4458 0.9617
6.6796 -6.6796 -2.4458 0.9617
6.9138 -6.4369 -2.4458 0.9617
7.1391 -6.1861 -2.4458 0.9617
8.1240 -4.8202 -2.4458 0.9617
8.2909 -4.5272 -2.4458 0.9617
8.7273 -3.6150 -2.4458 0.9617
8.8508 -3.3012 -2.4458 0.9617
8.9630 -2.9832 -2.4458 0.9617
9.0637 -2.6614 -2.4458 0.9617
9.2305 -2.0080 -2.4458 0.9617
9.2963 -1.6773 -2.4458 0.9617
-8.6342 -0.3084 -2.4458 0.9647
-8.5024 -1.5340 -2.4458 0.9647
-7.9820 -3.3063 -2.4458 0.9647
-7.8589 -3.5891 -2.4458 0.9647
-7.4303 -4.4086 -2.4458 0.9647
-7.0968 -4.9274 -2.4458 0.9647
-6.7272 -5.4211 -2.4458 0.9647
-6.5295 -5.6578 -2.4458 0.9647
-5.8872 -6.3233 -2.4458 0.9647
-5.6578 -6.5295 -2.4458 0.9647
-5.4211 -6.7272 -2.4458 0.9647
-5.1776 -6.9164 -2.4458 0.9647
-4.9274 -7.0968 -2.4458 0.9647
-4.6710 -7.2682 -2.4458 0.9647
-4.4086 -7.4303 -2.4458 0.9647
-4.1406 -7.5829 -2.4458 0.9647
-3.8673 -7.7258 -2.4458 0.9647
-3.5891 -7.8589 -2.4458 0.9647
-3.3063 -7.9820 -2.4458 0.9647
-3.0193 -8.0950 -2.4458 0.9647
-1.8365 -8.4422 -2.4458 0.9647
-1.5340 -8.5024 -2.4458 0.9647
-1.2296 -8.5518 -2.4458 0.9647
-0.9235 -8.5902 -2.4458 0.9647
-0.3084 -8.6342 -2.4458 0.9647
-0.0000 -8.6397 -2.4458 0.9647
0.6163 -8.6177 -2.4458 0.9647
1.5340 -8.5024 -2.4458 0.9647
1.8365 -8.4423 -2.4458 0.9647
2.1367 -8.3713 -2.4458 0.9647
2.7284 -8.1976 -2.4458 0.9647
3.0193 -8.0950 -2.4458 0.9647
3.3063 -7.9820 -2.4458 0.9647
3.8673 -7.7258 -2.4458 0.9647
4.4086 -7.4303 -2.4458 0.9647
4.6710 -7.2682 -2.4458 0.9647
5.1776 -6.9164 -2.4458 0.9647
5.6578 -6.5294 -2.4458 0.9647
5.8872 -6.3234 -2.4458 0.9647
7.0968 -4.9274 -2.4458 0.9647
7.2682 -4.6710 -2.4458 0.9647
7.4303 -4.4086 -2.4458 0.9647
7.7258 -3.8673 -2.4458 0.9647
7.8589 -3.5891 -2.4458 0.9647
7.9820 -3.3063 -2.4458 0.9647
8.1976 -2.7284 -2.4458 0.9647
8.5024 -1.5340 -2.4458 0.9647
8.5518 -1.2296 -2.4458 0.9647
8.5902 -0.9235 -2.4458 0.9647
8.6177 -0.6164 -2.4458 0.9647
-7.9469 -0.2838 -2.4458 0.9673
-7.9064 -0.8500 -2.4458 0.9673
-7.8710 -1.1317 -2.4458 0.9673
-7.8256 -1.4119 -2.4458 0.9673
-7.7702 -1.6903 -2.4458 0.9673
-7.7049 -1.9666 -2.4458 0.9673
-7.4505 -2.7789 -2.4458 0.9673
-7.3466 -3.0431 -2.4458 0.9673
-7.1108 -3.5594 -2.4458 0.9673
-6.6896 -4.2991 -2.4458 0.9673
-6.5319 -4.5352 -2.4458 0.9673
-6.3658 -4.7654 -2.4458 0.9673
-6.1917 -4.9896 -2.4458 0.9673
-6.0097 -5.2074 -2.4458 0.9673
-5.8200 -5.4186 -2.4458 0.9673
-5.6229 -5.6229 -2.4458 0.9673
-5.4186 -5.8200 -2.4458 0.9673
-5.2074 -6.0097 -2.4458 0.9673
-4.9896 -6.1917 -2.4458 0.9673
-4.7654 -6.3658 -2.4458 0.9673
-4.5352 -6.5319 -2.4458 0.9673
-4.2991 -6.6896 -2.4458 0.9673
-4.0576 -6.8388 -2.4458 0.9673
-3.5594 -7.1108 -2.4458 0.9673
-3.0431 -7.3466 -2.4458 0.9673
-2.7789 -7.4505 -2.4458 0.9673
-2.2403 -7.6298 -2.4458 0.9673
-1.6903 -7.7702 -2.4458 0.9673
-1.4119 -7.8256 -2.4458 0.9673
-1.1317 -7.8710 -2.4458 0.9673
-0.8500 -7.9064 -2.4458 0.9673
-0.5673 -7.9317 -2.4458 0.9673
-0.2838 -7.9468 -2.4458 0.9673
-0.0000 -7.9519 -2.4458 0.9673
0.2838 -7.9469 -2.4458 0.9673
0.5673 -7.9317 -2.4458 0.9673
1.9666 -7.7049 -2.4458 0.9673
3.0431 -7.3466 -2.4458 0.9673
3.3033 -7.2333 -2.4458 0.9673
3.5594 -7.1108 -2.4458 0.9673
3.8109 -6.9792 -2.4458 0.9673
4.2991 -6.6896 -2.4458 0.9673
4.9896 -6.1917 -2.4458 0.9673
5.2074 -6.0097 -2.4458 0.9673
5.4186 -5.8200 -2.4458 0.9673
5.8200 -5.4186 -2.4458 0.9673
6.3658 -4.7654 -2.4458 0.9673
6.8388 -4.0576 -2.4458 0.9673
6.9792 -3.8109 -2.4458 0.9673
7.2333 -3.3033 -2.4458 0.9673
7.3466 -3.0431 -2.4458 0.9673
7.4505 -2.7789 -2.4458 0.9673
7.6298 -2.2403 -2.4458 0.9673
7.8256 -1.4119 -2.4458 0.9673
7.9064 -0.8500 -2.4458 0.9673
-7.3580 0.0000 -2.4458 0.9695
-7.3533 -0.2626 -2.4458 0.9695
-7.1898 -1.5641 -2.4458 0.9695
-7.0599 -2.0730 -2.4458 0.9695
-6.9815 -2.3237 -2.4458 0.9695
-6.5797 -3.2936 -2.4458 0.9695
-6.4580 -3.5263 -2.4458 0.9695
-6.3280 -3.7546 -2.4458 0.9695
-6.1899 -3.9780 -2.4458 0.9695
-6.0440 -4.1964 -2.4458 0.9695
-5.8904 -4.4095 -2.4458 0.9695
-5.5608 -4.8185 -2.4458 0.9695
-5.3853 -5.0139 -2.4458 0.9695
-5.2029 -5.2029 -2.4458 0.9695
-4.1964 -6.0440 -2.4458 0.9695
-3.7546 -6.3280 -2.4458 0.9695
-3.5263 -6.4580 -2.4458 0.9695
-3.0566 -6.6931 -2.4458 0.9695
-2.8158 -6.7979 -2.4458 0.9695
-2.3237 -6.9815 -2.4458 0.9695
-1.0472 -7.2831 -2.4458 0.9695
-0.2626 -7.3533 -2.4458 0.9695
0.2626 -7.3533 -2.4458 0.9695
0.5249 -7.3392 -2.4458 0.9695
2.3236 -6.9815 -2.4458 0.9695
2.5714 -6.8941 -2.4458 0.9695
2.8158 -6.7979 -2.4458 0.9695
3.0566 -6.6931 -2.4458 0.9695
3.2936 -6.5797 -2.4458 0.9695
3.7546 -6.3280 -2.4458 0.9695
3.9780 -6.1899 -2.4458 0.9695
4.1964 -6.0440 -2.4458 0.9695
4.4095 -5.8904 -2.4458 0.9695
4.6169 -5.7292 -2.4458 0.9695
5.2029 -5.2029 -2.4458 0.9695
5.3853 -5.0139 -2.4458 0.9695
5.5608 -4.8185 -2.4458 0.9695
6.1899 -3.9780 -2.4458 0.9695
6.4580 -3.5263 -2.4458 0.9695
6.6931 -3.0566 -2.4458 0.9695
6.7979 -2.8158 -2.4458 0.9695
6.9815 -2.3237 -2.4458 0.9695
7.0599 -2.0730 -2.4458 0.9695
7.1898 -1.5641 -2.4458 0.9695
7.2411 -1.3064 -2.4458 0.9695
7.2831 -1.0472 -2.4458 0.9695
7.3392 -0.5249 -2.4458 0.9695
-6.8395 0.0000 -2.4458 0.9714
-6.8351 -0.2441 -2.4458 0.9714
-6.8220 -0.4879 -2.4458 0.9714
-6.8003 -0.7311 -2.4458 0.9714
-6.7698 -0.9734 -2.4458 0.9714
-6.7308 -1.2144 -2.4458 0.9714
-6.6270 -1.6915 -2.4458 0.9714
-6.4895 -2.1599 -2.4458 0.9714
-6.2214 -2.8412 -2.4458 0.9714
-5.8820 -3.4900 -2.4458 0.9714
-5.4753 -4.0987 -2.4458 0.9714
-5.3255 -4.2915 -2.4458 0.9714
-5.0058 -4.6605 -2.4458 0.9714
-4.8362 -4.8362 -2.4458 0.9714
-4.6605 -5.0058 -2.4458 0.9714
-4.0987 -5.4753 -2.4458 0.9714
-3.9007 -5.6181 -2.4458 0.9714
-3.6977 -5.7537 -2.4458 0.9714
-3.2778 -6.0028 -2.4458 0.9714
-2.8412 -6.2214 -2.4458 0.9714
-2.6173 -6.3188 -2.4458 0.9714
-2.3901 -6.4082 -2.4458 0.9714
-2.1599 -6.4895 -2.4458 0.9714
-1.9269 -6.5624 -2.4458 0.9714
-1.6914 -6.6270 -2.4458 0.9714
-1.4538 -6.6832 -2.4458 0.9714
-1.2144 -6.7308 -2.4458 0.9714
-0.9734 -6.7698 -2.4458 0.9714
-0.4879 -6.8220 -2.4458 0.9714
0.4879 -6.8220 -2.4458 0.9714
0.7311 -6.8003 -2.4458 0.9714
0.9734 -6.7698 -2.4458 0.9714
1.2144 -6.7308 -2.4458 0.9714
1.4538 -6.6832 -2.4458 0.9714
1.6914 -6.6270 -2.4458 0.9714
1.9269 -6.5624 -2.4458 0.9714
2.1599 -6.4895 -2.4458 0.9714
2.3901 -6.4082 -2.4458 0.9714
2.6173 -6.3188 -2.4458 0.9714
2.8412 -6.2214 -2.4458 0.9714
3.0615 -6.1160 -2.4458 0.9714
3.2778 -6.0028 -2.4458 0.9714
3.4900 -5.8820 -2.4458 0.9714
3.6977 -5.7537 -2.4458 0.9714
4.0987 -5.4753 -2.4458 0.9714
4.4789 -5.1689 -2.4458 0.9714
4.6605 -5.0058 -2.4458 0.9714
5.1689 -4.4789 -2.4458 0.9714
5.3255 -4.2915 -2.4458 0.9714
5.4753 -4.0987 -2.4458 0.9714
5.6181 -3.9007 -2.4458 0.9714
6.0028 -3.2778 -2.4458 0.9714
6.2214 -2.8412 -2.4458 0.9714
6.3188 -2.6173 -2.4458 0.9714
6.4894 -2.1599 -2.4458 0.9714
6.6831 -1.4538 -2.4458 0.9714
6.7308 -1.2144 -2.4458 0.9714
6.8003 -0.7311 -2.4458 0.9714
6.8351 -0.2441 -2.4458 0.9714
-6.3824 0.0000 -2.4458 0.9730
-6.3661 -0.4553 -2.4458 0.9730
-6.3174 -0.9083 -2.4458 0.9730
-6.2365 -1.3567 -2.4458 0.9730
-6.1841 -1.5784 -2.4458 0.9730
-6.1238 -1.7981 -2.4458 0.9730
-6.0558 -2.0155 -2.4458 0.9730
-5.7073 -2.8569 -2.4458 0.9730
-5.6017 -3.0587 -2.4458 0.9730
-5.3692 -3.4506 -2.4458 0.9730
-5.2426 -3.6400 -2.4458 0.9730
-4.8235 -4.1796 -2.4458 0.9730
-4.6712 -4.3491 -2.4458 0.9730
-4.3491 -4.6712 -2.4458 0.9730
-4.0047 -4.9696 -2.4458 0.9730
-3.6400 -5.2426 -2.4458 0.9730
-3.2567 -5.4889 -2.4458 0.9730
-2.6513 -5.8056 -2.4458 0.9730
-2.4424 -5.8965 -2.4458 0.9730
-1.7981 -6.1238 -2.4458 0.9730
-1.5784 -6.1841 -2.4458 0.9730
-1.3567 -6.2365 -2.4458 0.9730
-0.4553 -6.3661 -2.4458 0.9730
-0.2278 -6.3783 -2.4458 0.9730
0.9083 -6.3174 -2.4458 0.9730
1.1332 -6.2810 -2.4458 0.9730
1.7981 -6.1238 -2.4458 0.9730
2.2304 -5.9800 -2.4458 0.9730
2.4424 -5.8965 -2.4458 0.9730
2.8569 -5.7073 -2.4458 0.9730
3.2567 -5.4889 -2.4458 0.9730
3.4506 -5.3692 -2.4458 0.9730
3.8248 -5.1093 -2.4458 0.9730
4.6712 -4.3491 -2.4458 0.9730
4.9696 -4.0047 -2.4458 0.9730
5.1093 -3.8248 -2.4458 0.9730
5.4889 -3.2567 -2.4458 0.9730
5.7073 -2.8569 -2.4458 0.9730
5.8056 -2.6513 -2.4458 0.9730
5.9800 -2.2304 -2.4458 0.9730
6.1238 -1.7981 -2.4458 0.9730
6.1841 -1.5784 -2.4458 0.9730
6.2365 -1.3567 -2.4458 0.9730
6.2810 -1.1332 -2.4458 0.9730
6.3174 -0.9083 -2.4458 0.9730
6.3661 -0.4553 -2.4458 0.9730
6.3783 -0.2278 -2.4458 0.9730
-5.9760 0.0000 -2.4458 0.9745
-5.9722 -0.2133 -2.4458 0.9745
-5.8811 -1.0611 -2.4458 0.9745
-5.8395 -1.2703 -2.4458 0.9745
-5.7904 -1.4779 -2.4458 0.9745
-5.6702 -1.8872 -2.4458 0.9745
-5.5211 -2.2869 -2.4458 0.9745
-5.2450 -2.8640 -2.4458 0.9745
-5.1395 -3.0494 -2.4458 0.9745
-5.0273 -3.2309 -2.4458 0.9745
-4.7841 -3.5813 -2.4458 0.9745
-4.3738 -4.0722 -2.4458 0.9745
-3.4083 -4.9088 -2.4458 0.9745
-2.4825 -5.4360 -2.4458 0.9745
-1.8872 -5.6702 -2.4458 0.9745
-1.6836 -5.7340 -2.4458 0.9745
-1.4779 -5.7904 -2.4458 0.9745
-1.0611 -5.8811 -2.4458 0.9745
-0.8505 -5.9152 -2.4458 0.9745
-0.4263 -5.9608 -2.4458 0.9745
-0.0000 -5.9760 -2.4458 0.9745
0.4263 -5.9608 -2.4458 0.9745
0.6388 -5.9418 -2.4458 0.9745
1.0611 -5.8811 -2.4458 0.9745
1.2703 -5.8395 -2.4458 0.9745
1.6836 -5.7340 -2.4458 0.9745
1.8872 -5.6702 -2.4458 0.9745
2.0884 -5.5992 -2.4458 0.9745
2.8640 -5.2450 -2.4458 0.9745
3.7498 -4.6532 -2.4458 0.9745
4.0722 -4.3738 -2.4458 0.9745
4.2257 -4.2257 -2.4458 0.9745
4.3738 -4.0722 -2.4458 0.9745
4.5164 -3.9135 -2.4458 0.9745
4.6532 -3.7498 -2.4458 0.9745
5.1395 -3.0494 -2.4458 0.9745
5.3439 -2.6750 -2.4458 0.9745
5.4360 -2.4825 -2.4458 0.9745
5.6702 -1.8872 -2.4458 0.9745
5.7904 -1.4779 -2.4458 0.9745
5.8395 -1.2703 -2.4458 0.9745
5.8811 -1.0611 -2.4458 0.9745
5.9152 -0.8505 -2.4458 0.9745
5.9608 -0.4263 -2.4458 0.9745
-5.6121 0.0000 -2.4458 0.9758
-5.6085 -0.2003 -2.4458 0.9758
-5.5799 -0.5999 -2.4458 0.9758
-5.5550 -0.7987 -2.4458 0.9758
-5.4378 -1.3879 -2.4458 0.9758
-5.1849 -2.1477 -2.4458 0.9758
-5.0185 -2.5121 -2.4458 0.9758
-4.8265 -2.8637 -2.4458 0.9758
-4.7212 -3.0341 -2.4458 0.9758
-4.2413 -3.6751 -2.4458 0.9758
-4.1075 -3.8242 -2.4458 0.9758
-3.9683 -3.9683 -2.4458 0.9758
-3.8242 -4.1074 -2.4458 0.9758
-3.6751 -4.2413 -2.4458 0.9758
-3.5214 -4.3698 -2.4458 0.9758
-3.3632 -4.4927 -2.4458 0.9758
-3.2007 -4.6099 -2.4458 0.9758
-3.0341 -4.7212 -2.4458 0.9758
-2.5121 -5.0185 -2.4458 0.9758
-2.1477 -5.1849 -2.4458 0.9758
-1.9612 -5.2582 -2.4458 0.9758
-1.7723 -5.3249 -2.4458 0.9758
-1.3879 -5.4377 -2.4458 0.9758
-0.9964 -5.5229 -2.4458 0.9758
-0.7987 -5.5550 -2.4458 0.9758
-0.5999 -5.5799 -2.4458 0.9758
-0.4004 -5.5978 -2.4458 0.9758
-0.2003 -5.6085 -2.4458 0.9758
0.2003 -5.6085 -2.4458 0.9758
0.9964 -5.5229 -2.4458 0.9758
1.1929 -5.4838 -2.4458 0.9758
1.5811 -5.3848 -2.4458 0.9758
1.9612 -5.2582 -2.4458 0.9758
2.3313 -5.1049 -2.4458 0.9758
2.5121 -5.0185 -2.4458 0.9758
2.6896 -4.9256 -2.4458 0.9758
2.8637 -4.8265 -2.4458 0.9758
3.0341 -4.7212 -2.4458 0.9758
3.2007 -4.6099 -2.4458 0.9758
3.3632 -4.4927 -2.4458 0.9758
3.6751 -4.2413 -2.4458 0.9758
3.8242 -4.1074 -2.4458 0.9758
3.9683 -3.9683 -2.4458 0.9758
4.2413 -3.6751 -2.4458 0.9758
4.7212 -3.0341 -2.4458 0.9758
4.9256 -2.6896 -2.4458 0.9758
5.0185 -2.5121 -2.4458 0.9758
5.1849 -2.1476 -2.4458 0.9758
5.3847 -1.5811 -2.4458 0.9758
5.4377 -1.3879 -2.4458 0.9758
5.5550 -0.7987 -2.4458 0.9758
5.5978 -0.4004 -2.4458 0.9758
-5.2839 0.0000 -2.4458 0.9770
-5.2704 -0.3770 -2.4458 0.9770
-5.2536 -0.5648 -2.4458 0.9770
-5.1999 -0.9382 -2.4458 0.9770
-5.1631 -1.1232 -2.4458 0.9770
-5.1198 -1.3067 -2.4458 0.9770
-5.0699 -1.4887 -2.4458 0.9770
-5.0135 -1.6687 -2.4458 0.9770
-4.7250 -2.3652 -2.4458 0.9770
-4.6376 -2.5323 -2.4458 0.9770
-4.4451 -2.8567 -2.4458 0.9770
-4.3403 -3.0135 -2.4458 0.9770
-4.1143 -3.3155 -2.4458 0.9770
-3.7363 -3.7363 -2.4458 0.9770
-3.4602 -3.9933 -2.4458 0.9770
-3.3155 -4.1143 -2.4458 0.9770
-3.0135 -4.3403 -2.4458 0.9770
-1.8465 -4.9507 -2.4458 0.9770
-1.4886 -5.0699 -2.4458 0.9770
-1.3068 -5.1198 -2.4458 0.9770
-1.1232 -5.1631 -2.4458 0.9770
-0.5648 -5.2536 -2.4458 0.9770
-0.3770 -5.2704 -2.4458 0.9770
-0.1886 -5.2805 -2.4458 0.9770
0.3769 -5.2704 -2.4458 0.9770
0.5648 -5.2536 -2.4458 0.9770
0.7520 -5.2301 -2.4458 0.9770
0.9382 -5.1999 -2.4458 0.9770
1.6687 -5.0135 -2.4458 0.9770
2.1950 -4.8064 -2.4458 0.9770
2.3652 -4.7250 -2.4458 0.9770
2.5323 -4.6376 -2.4458 0.9770
3.1665 -4.2300 -2.4458 0.9770
3.3155 -4.1143 -2.4458 0.9770
3.6005 -3.8673 -2.4458 0.9770
3.8673 -3.6006 -2.4458 0.9770
4.1143 -3.3155 -2.4458 0.9770
4.3403 -3.0135 -2.4458 0.9770
4.4451 -2.8567 -2.4458 0.9770
4.8064 -2.1950 -2.4458 0.9770
4.9507 -1.8465 -2.4458 0.9770
5.0135 -1.6687 -2.4458 0.9770
5.1198 -1.3067 -2.4458 0.9770
5.1999 -0.9382 -2.4458 0.9770
5.2301 -0.7520 -2.4458 0.9770
5.2536 -0.5648 -2.4458 0.9770
5.2704 -0.3770 -2.4458 0.9770
5.2805 -0.1886 -2.4458 0.9770
-4.9070 -0.8853 -2.4458 0.9780
-4.8722 -1.0599 -2.4458 0.9780
-4.8313 -1.2331 -2.4458 0.9780
-4.7842 -1.4048 -2.4458 0.9780
-4.6066 -1.9081 -2.4458 0.9780
-4.4588 -2.2319 -2.4458 0.9780
-3.8824 -3.1287 -2.4458 0.9780
-3.7683 -3.2653 -2.4458 0.9780
-3.6494 -3.3977 -2.4458 0.9780
-3.5258 -3.5258 -2.4458 0.9780
-2.9881 -3.9916 -2.4458 0.9780
-2.5443 -4.2882 -2.4458 0.9780
-2.3896 -4.3763 -2.4458 0.9780
-2.2319 -4.4588 -2.4458 0.9780
-2.0713 -4.5356 -2.4458 0.9780
-1.9081 -4.6066 -2.4458 0.9780
-1.0599 -4.8722 -2.4458 0.9780
-0.7096 -4.9354 -2.4458 0.9780
-0.3557 -4.9735 -2.4458 0.9780
-0.1780 -4.9830 -2.4458 0.9780
0.1780 -4.9830 -2.4458 0.9780
0.5330 -4.9576 -2.4458 0.9780
0.7096 -4.9354 -2.4458 0.9780
0.8853 -4.9070 -2.4458 0.9780
1.5746 -4.7310 -2.4458 0.9780
1.7425 -4.6718 -2.4458 0.9780
2.0713 -4.5356 -2.4458 0.9780
2.2319 -4.4588 -2.4458 0.9780
2.8437 -4.0958 -2.4458 0.9780
3.2653 -3.7683 -2.4458 0.9780
3.5258 -3.5258 -2.4458 0.9780
3.6494 -3.3977 -2.4458 0.9780
3.8824 -3.1287 -2.4458 0.9780
3.9916 -2.9881 -2.4458 0.9780
4.0957 -2.8437 -2.4458 0.9780
4.1946 -2.6957 -2.4458 0.9780
4.2882 -2.5443 -2.4458 0.9780
4.4588 -2.2319 -2.4458 0.9780
4.6718 -1.7425 -2.4458 0.9780
4.7310 -1.5746 -2.4458 0.9780
4.8313 -1.2331 -2.4458 0.9780
4.9070 -0.8853 -2.4458 0.9780
4.9576 -0.5330 -2.4458 0.9780
-4.7146 0.0000 -2.4458 0.9790
-4.7116 -0.1683 -2.4458 0.9790
-4.7026 -0.3363 -2.4458 0.9790
-4.6876 -0.5040 -2.4458 0.9790
-4.6666 -0.6710 -2.4458 0.9790
-4.6397 -0.8371 -2.4458 0.9790
-4.6069 -1.0022 -2.4458 0.9790
-4.5682 -1.1660 -2.4458 0.9790
-4.5236 -1.3283 -2.4458 0.9790
-4.4733 -1.4889 -2.4458 0.9790
-4.2159 -2.1103 -2.4458 0.9790
-4.1379 -2.2595 -2.4458 0.9790
-3.9662 -2.5489 -2.4458 0.9790
-3.8727 -2.6888 -2.4458 0.9790
-3.6710 -2.9583 -2.4458 0.9790
-3.4506 -3.2126 -2.4458 0.9790
-3.3337 -3.3337 -2.4458 0.9790
-3.2126 -3.4506 -2.4458 0.9790
-3.0874 -3.5631 -2.4458 0.9790
-2.9583 -3.6710 -2.4458 0.9790
-2.6888 -3.8727 -2.4458 0.9790
-2.5489 -3.9662 -2.4458 0.9790
-2.2595 -4.1379 -2.4458 0.9790
-2.1103 -4.2159 -2.4458 0.9790
-1.4889 -4.4733 -2.4458 0.9790
-1.3283 -4.5236 -2.4458 0.9790
-1.1660 -4.5682 -2.4458 0.9790
-0.5040 -4.6876 -2.4458 0.9790
-0.3363 -4.7026 -2.4458 0.9790
-0.0000 -4.7146 -2.4458 0.9790
0.3363 -4.7026 -2.4458 0.9790
0.6710 -4.6666 -2.4458 0.9790
0.8371 -4.6397 -2.4458 0.9790
1.4889 -4.4733 -2.4458 0.9790
1.6476 -4.4173 -2.4458 0.9790
1.8042 -4.3557 -2.4458 0.9790
2.2595 -4.1379 -2.4458 0.9790
2.4057 -4.0546 -2.4458 0.9790
2.5489 -3.9662 -2.4458 0.9790
2.6888 -3.8727 -2.4458 0.9790
2.9583 -3.6710 -2.4458 0.9790
3.3337 -3.3337 -2.4458 0.9790
3.4506 -3.2126 -2.4458 0.9790
3.5631 -3.0874 -2.4458 0.9790
3.9662 -2.5489 -2.4458 0.9790
4.0546 -2.4057 -2.4458 0.9790
4.2159 -2.1103 -2.4458 0.9790
4.4173 -1.6476 -2.4458 0.9790
4.5236 -1.3283 -2.4458 0.9790
4.5682 -1.1660 -2.4458 0.9790
4.6069 -1.0022 -2.4458 0.9790
4.6666 -0.6710 -2.4458 0.9790
4.7026 -0.3363 -2.4458 0.9790
-4.4656 0.0000 -2.4458 0.9798
-4.4542 -0.3186 -2.4458 0.9798
-4.4400 -0.4774 -2.4458 0.9798
-4.3636 -0.9492 -2.4458 0.9798
-4.2371 -1.4102 -2.4458 0.9798
-4.1841 -1.5606 -2.4458 0.9798
-4.1257 -1.7089 -2.4458 0.9798
-4.0621 -1.8551 -2.4458 0.9798
-3.9933 -1.9989 -2.4458 0.9798
-3.9194 -2.1402 -2.4458 0.9798
-3.8405 -2.2787 -2.4458 0.9798
-3.7567 -2.4143 -2.4458 0.9798
-3.5749 -2.6762 -2.4458 0.9798
-3.4771 -2.8020 -2.4458 0.9798
-3.1577 -3.1577 -2.4458 0.9798
-2.8020 -3.4771 -2.4458 0.9798
-2.5469 -3.6682 -2.4458 0.9798
-2.4143 -3.7567 -2.4458 0.9798
-2.2787 -3.8405 -2.4458 0.9798
-1.8551 -4.0621 -2.4458 0.9798
-1.4102 -4.2371 -2.4458 0.9798
-1.1044 -4.3269 -2.4458 0.9798
-0.4774 -4.4400 -2.4458 0.9798
-0.1594 -4.4628 -2.4458 0.9798
-0.0000 -4.4656 -2.4458 0.9798
0.1594 -4.4628 -2.4458 0.9798
0.4774 -4.4400 -2.4458 0.9798
0.6355 -4.4202 -2.4458 0.9798
0.7929 -4.3947 -2.4458 0.9798
1.1044 -4.3269 -2.4458 0.9798
1.7089 -4.1257 -2.4458 0.9798
2.2787 -3.8405 -2.4458 0.9798
2.5468 -3.6682 -2.4458 0.9798
2.6761 -3.5749 -2.4458 0.9798
2.8020 -3.4771 -2.4458 0.9798
3.0430 -3.2684 -2.4458 0.9798
3.1577 -3.1577 -2.4458 0.9798
3.4771 -2.8020 -2.4458 0.9798
3.5749 -2.6761 -2.4458 0.9798
3.6682 -2.5469 -2.4458 0.9798
3.7567 -2.4143 -2.4458 0.9798
3.9933 -1.9989 -2.4458 0.9798
4.0621 -1.8551 -2.4458 0.9798
4.1257 -1.7089 -2.4458 0.9798
4.2371 -1.4102 -2.4458 0.9798
4.3269 -1.1044 -2.4458 0.9798
4.3636 -0.9492 -2.4458 0.9798
4.3947 -0.7929 -2.4458 0.9798
4.4202 -0.6355 -2.4458 0.9798
4.4400 -0.4774 -2.4458 0.9798
4.4628 -0.1594 -2.4458 0.9798
-4.2363 0.0000 -2.4458 0.9806
-4.2120 -0.4528 -2.4458 0.9806
-3.8535 -1.7598 -2.4458 0.9806
-3.7882 -1.8963 -2.4458 0.9806
-3.6433 -2.1617 -2.4458 0.9806
-3.5638 -2.2903 -2.4458 0.9806
-3.4798 -2.4161 -2.4458 0.9806
-3.3914 -2.5387 -2.4458 0.9806
-3.2986 -2.6582 -2.4458 0.9806
-3.1005 -2.8867 -2.4458 0.9806
-2.9955 -2.9955 -2.4458 0.9806
-2.7742 -3.2016 -2.4458 0.9806
-2.5387 -3.3913 -2.4458 0.9806
-2.4161 -3.4798 -2.4458 0.9806
-1.7598 -3.8535 -2.4458 0.9806
-1.6212 -3.9138 -2.4458 0.9806
-1.4804 -3.9692 -2.4458 0.9806
-1.3378 -4.0195 -2.4458 0.9806
-1.0477 -4.1047 -2.4458 0.9806
-0.4528 -4.2120 -2.4458 0.9806
-0.3022 -4.2255 -2.4458 0.9806
-0.1512 -4.2336 -2.4458 0.9806
0.0000 -4.2363 -2.4458 0.9806
0.1512 -4.2336 -2.4458 0.9806
0.4528 -4.2120 -2.4458 0.9806
1.6212 -3.9138 -2.4458 0.9806
1.7598 -3.8535 -2.4458 0.9806
1.8962 -3.7882 -2.4458 0.9806
2.0302 -3.7181 -2.4458 0.9806
2.6582 -3.2986 -2.4458 0.9806
2.7742 -3.2016 -2.4458 0.9806
2.9955 -2.9955 -2.4458 0.9806
3.1005 -2.8867 -2.4458 0.9806
3.2016 -2.7742 -2.4458 0.9806
3.2986 -2.6582 -2.4458 0.9806
3.5638 -2.2903 -2.4458 0.9806
3.6433 -2.1617 -2.4458 0.9806
3.7181 -2.0302 -2.4458 0.9806
3.8535 -1.7598 -2.4458 0.9806
3.9138 -1.6212 -2.4458 0.9806
4.0195 -1.3378 -2.4458 0.9806
4.0647 -1.1935 -2.4458 0.9806
4.1047 -1.0477 -2.4458 0.9806
4.1395 -0.9005 -2.4458 0.9806
4.1690 -0.7522 -2.4458 0.9806
4.1932 -0.6029 -2.4458 0.9806
4.2120 -0.4528 -2.4458 0.9806
4.2336 -0.1512 -2.4458 0.9806
