ply
format ascii 1.0
element vertex 1377
property float32 x
property float32 y
property float32 z
property float32 I
end_header
33.6174 19.9461 6.8925 0.8532
27.9555 19.4098 6.0010 0.8709
24.5593 19.7911 5.5616 0.8798
22.2756 19.3019 5.1972 0.8872
11.1965 10.4243 2.6975 0.9398
10.8354 10.8354 2.7020 0.9397
15.7476 19.5416 4.4253 0.9031
13.5782 19.5563 4.1980 0.9078
12.5056 19.4591 4.0786 0.9103
11.3170 19.0737 3.9106 0.9139
10.4009 19.0479 3.8268 0.9156
6.4287 19.3152 3.5895 0.9206
4.8217 18.8911 3.4378 0.9239
4.1785 19.2083 3.4661 0.9233
3.5007 19.4029 3.4765 0.9230
3.7040 25.7617 4.5892 0.8997
2.7668 25.7350 4.5639 0.9002
1.3978 19.5443 3.4550 0.9235
0.6853 19.1889 3.3857 0.9250
-0.0000 18.7561 3.3072 0.9266
-1.3632 19.0596 3.3693 0.9253
-6.1852 18.5835 3.4535 0.9235
-7.0499 18.9015 3.5571 0.9213
-7.8721 19.0050 3.6272 0.9198
-8.8009 19.2714 3.7356 0.9175
-10.3141 18.8888 3.7948 0.9163
-11.8419 18.4263 3.8622 0.9149
-14.0117 18.7174 4.1227 0.9094
33.0413 19.6043 5.8856 0.8560
31.0794 19.9736 5.6596 0.8611
28.0318 19.4629 5.2279 0.8710
26.5092 19.8445 5.0729 0.8746
22.1604 19.2021 4.4920 0.8881
10.8415 10.8415 2.3488 0.9398
15.7459 19.5395 3.8443 0.9034
14.7299 19.6769 3.7654 0.9053
13.8116 19.8925 3.7099 0.9066
10.4003 19.0468 3.3245 0.9159
10.6084 25.6111 4.2467 0.8939
9.6703 25.9271 4.2392 0.8941
5.5527 18.9107 3.0193 0.9233
4.8214 18.8901 2.9866 0.9241
4.1888 19.2554 3.0188 0.9234
3.5364 19.6009 3.0512 0.9226
1.8520 25.8946 3.9770 0.9003
-0.6692 18.7364 2.8721 0.9269
-2.0825 19.3700 2.9845 0.9242
-4.6158 25.5834 3.9825 0.9001
-4.8854 19.1407 3.0262 0.9232
-5.5366 18.8558 3.0106 0.9236
-7.9912 19.2925 3.1990 0.9190
-11.4200 25.0064 4.2114 0.8947
-17.5068 34.9742 5.9916 0.8536
-11.8412 18.4252 3.3553 0.9152
-11.7868 16.9763 3.1661 0.9198
-14.1680 18.9262 3.6218 0.9088
-8.0463 9.9848 1.9645 0.9494
-8.2592 9.5316 1.9321 0.9502
31.0385 11.5768 4.3139 0.8749
31.0764 19.9716 4.8104 0.8616
24.6689 19.8795 4.1257 0.8800
22.3686 19.3825 3.8543 0.8875
18.6515 20.0332 3.5644 0.8955
14.8902 19.8909 3.2356 0.9046
11.0503 18.6243 2.8200 0.9164
9.7377 19.4534 2.8329 0.9160
11.8663 25.9837 3.7198 0.8912
9.6471 25.8649 3.5948 0.8946
6.4855 19.4859 2.6743 0.9205
5.5524 18.9097 2.5664 0.9236
4.8212 18.8892 2.5386 0.9244
4.1938 19.2785 2.5692 0.9235
3.5572 19.7162 2.6089 0.9224
3.7151 25.8390 3.3994 0.9001
1.8877 26.3941 3.4458 0.8988
0.6883 19.2730 2.5113 0.9252
0.0000 18.7542 2.4422 0.9271
-0.6692 18.7355 2.4413 0.9272
-2.0914 19.4528 2.5478 0.9241
-5.5470 25.4991 3.3982 0.9001
-5.5365 18.8554 2.5590 0.9238
-6.1846 18.5816 2.5502 0.9240
-7.0563 18.9187 2.6294 0.9218
-10.5423 25.4515 3.5874 0.8948
-17.2579 18.5363 3.2980 0.9029
46.7778 8.4397 5.1042 0.8259
44.3458 20.2521 5.2350 0.8219
39.3007 19.6725 4.7194 0.8379
36.8664 20.1306 4.5105 0.8445
33.1776 19.6852 4.1425 0.8562
31.3268 20.1325 3.9987 0.8609
28.1481 19.5436 3.6797 0.8712
10.8537 10.8537 1.6483 0.9401
24.7435 26.5765 3.8992 0.8641
14.9824 20.0142 2.6846 0.9043
16.5649 25.7754 3.2901 0.8840
11.9076 26.0741 3.0781 0.8911
9.6880 25.9745 2.9769 0.8945
1.8876 26.3928 2.8413 0.8990
0.0000 18.7533 2.0138 0.9273
-0.6691 18.7346 2.0130 0.9274
-4.7044 26.0745 2.8451 0.8989
-5.5514 25.5192 2.8044 0.9003
-4.8008 18.8092 2.0845 0.9249
-5.5214 18.8042 2.1045 0.9242
-6.9978 18.7617 2.1502 0.9226
-11.4197 25.0057 2.9519 0.8953
-17.5044 34.9694 4.1992 0.8544
-11.1512 18.7943 2.3467 0.9158
-11.8398 18.4231 2.3516 0.9157
-8.0388 9.9756 1.3757 0.9498
-8.2649 9.5382 1.3553 0.9505
-17.2578 18.5362 2.7195 0.9031
-27.9000 9.2860 3.1576 0.8884
31.0223 11.5707 2.8028 0.8755
44.4342 20.2924 4.1352 0.8219
37.4535 20.4511 3.6124 0.8426
31.9089 20.5067 3.2109 0.8588
28.1456 19.5419 2.9005 0.8715
10.8597 10.8597 1.3000 0.9402
16.6534 19.2190 2.1528 0.9030
15.6252 19.3897 2.1080 0.9049
14.8216 19.7993 2.0937 0.9055
18.6500 26.8611 2.7682 0.8770
12.3956 19.2879 1.9409 0.9121
10.3986 19.0435 1.8368 0.9166
10.6067 25.6069 2.3463 0.8947
9.6954 25.9944 2.3486 0.8946
6.3938 19.2104 1.7139 0.9219
4.8207 18.8872 1.6501 0.9247
3.4884 19.3350 1.6632 0.9242
2.7907 25.9575 2.2100 0.9005
-0.6691 18.7336 1.5869 0.9275
-2.0393 18.9682 1.6150 0.9263
-5.5048 25.3054 2.1923 0.9013
-5.5362 18.8547 1.6635 0.9241
-7.7902 18.8072 1.7233 0.9215
-11.1127 18.7295 1.8436 0.9163
-12.7704 18.3928 1.8955 0.9140
-13.8843 18.5473 1.9613 0.9112
-8.0351 9.9710 1.0840 0.9499
-17.1996 18.4737 2.1367 0.9036
-18.2405 18.2406 2.1837 0.9016
44.4344 20.2925 3.0291 0.8222
39.6833 19.8640 2.7518 0.8371
33.1709 19.6812 2.3918 0.8568
32.1106 20.6362 2.3669 0.8582
26.2778 19.6713 2.0355 0.8767
10.8657 10.8657 0.9529 0.9403
18.1851 19.5322 1.6549 0.8986
16.6523 19.2177 1.5769 0.9031
15.6945 19.4757 1.5510 0.9046
14.9081 19.9149 1.5426 0.9051
18.0519 25.9997 1.9628 0.8809
11.0477 18.6200 1.3426 0.9169
9.6606 19.2995 1.3383 0.9171
9.6456 25.8608 1.7115 0.8953
4.8204 18.8862 1.2087 0.9249
3.4894 19.3406 1.2187 0.9243
3.6935 25.6890 1.6094 0.9012
2.8203 26.2322 1.6360 0.8997
0.6803 19.0481 1.1819 0.9265
0.0000 18.7514 1.1628 0.9276
-2.0391 18.9660 1.1829 0.9264
-3.7452 26.0487 1.6319 0.8999
-5.5340 25.4396 1.6144 0.9009
-4.8215 18.8904 1.2090 0.9248
-5.5361 18.8543 1.2185 0.9243
-7.7892 18.8048 1.2622 0.9217
-10.2413 18.7556 1.3251 0.9179
-11.1112 18.7269 1.3503 0.9164
-13.9445 18.6276 1.4429 0.9110
-45.3959 4.8806 2.8312 0.8328
-45.3367 3.2425 2.8185 0.8335
31.0062 11.5647 1.3049 0.8759
39.6786 19.8617 1.7497 0.8373
34.0126 18.5723 1.5281 0.8563
33.1675 19.6792 1.5207 0.8569
32.0286 20.5836 1.5012 0.8586
26.3953 19.7593 1.3001 0.8763
22.3616 19.3764 1.1667 0.8883
11.1648 10.3948 0.6015 0.9408
18.1821 19.5290 1.0521 0.8987
16.6512 19.2165 1.0026 0.9032
15.6920 19.4727 0.9861 0.9047
14.9092 19.9164 0.9810 0.9052
12.4474 19.3685 0.9078 0.9120
10.3974 19.0414 0.8555 0.9168
9.6593 19.2969 0.8509 0.9172
10.6055 25.6041 1.0928 0.8950
9.6443 25.8575 1.0882 0.8954
6.3923 19.2057 0.7981 0.9222
5.5512 18.9057 0.7769 0.9242
4.1652 19.1471 0.7726 0.9246
3.6931 25.6860 1.0232 0.9013
1.8926 26.4621 1.0461 0.8992
0.6802 19.0459 0.7515 0.9265
-0.6690 18.7318 0.7391 0.9277
-2.0388 18.9637 0.7521 0.9265
-3.7819 26.3035 1.0478 0.8991
-4.6947 26.0209 1.0426 0.8996
-4.8209 18.8881 0.7687 0.9249
-5.5360 18.8539 0.7748 0.9244
-11.4193 25.0047 1.0839 0.8958
-10.2422 18.7573 0.8427 0.9180
-13.9425 18.6250 0.9174 0.9111
-8.0278 9.9619 0.5045 0.9501
-8.2734 9.5480 0.4982 0.9507
-18.2381 18.2381 1.0170 0.9019
30.9982 11.5617 0.5589 0.8760
44.4020 20.2777 0.8245 0.8226
39.6740 19.8594 0.7494 0.8374
37.7381 20.6066 0.7263 0.8420
33.1642 19.6772 0.6514 0.8570
32.0301 20.5845 0.6431 0.8587
22.3599 19.3749 0.4998 0.8884
11.1596 10.3899 0.2576 0.9408
10.8777 10.8777 0.2599 0.9403
18.1792 19.5259 0.4506 0.8988
15.6896 19.4696 0.4224 0.9048
14.9104 19.9179 0.4203 0.9053
9.6580 19.2943 0.3645 0.9173
9.1895 20.1223 0.3737 0.9153
10.6050 25.6027 0.4681 0.8951
9.6431 25.8542 0.4661 0.8955
5.5509 18.9048 0.3328 0.9242
4.1647 19.1448 0.3310 0.9246
1.8925 26.4608 0.4481 0.8993
-3.7817 26.3022 0.4489 0.8991
-5.5327 25.4335 0.4397 0.9011
-5.5359 18.8535 0.3319 0.9244
-6.1830 18.5768 0.3307 0.9247
-7.0257 18.8365 0.3396 0.9227
-7.7872 18.8001 0.3437 0.9218
-11.4191 25.0044 0.4643 0.8959
-17.4295 34.8199 0.6577 0.8558
-11.1082 18.7219 0.3677 0.9166
-11.8371 18.4189 0.3698 0.9161
-8.0242 9.9574 0.2160 0.9501
-8.2762 9.5513 0.2135 0.9507
-17.2572 18.5356 0.4278 0.9036
-18.2369 18.2369 0.4357 0.9020
30.9902 11.5588 -0.1862 0.8761
44.3881 20.2714 -0.2747 0.8227
37.7401 20.6077 -0.2421 0.8420
33.1609 19.6752 -0.2171 0.8571
32.0315 20.5854 -0.2144 0.8587
26.3842 19.7510 -0.1856 0.8765
32.8401 26.4643 -0.2375 0.8448
22.3581 19.3734 -0.1666 0.8884
11.1544 10.3851 -0.0858 0.9409
10.8837 10.8837 -0.0867 0.9403
18.1763 19.5227 -0.1502 0.8988
15.6871 19.4666 -0.1408 0.9048
14.9115 19.9195 -0.1401 0.9053
18.1040 26.0748 -0.1787 0.8808
11.3117 19.0648 -0.1248 0.9151
9.6567 19.2917 -0.1215 0.9173
9.1903 20.1240 -0.1246 0.9153
10.6044 25.6014 -0.1560 0.8951
6.3907 19.2009 -0.1139 0.9222
5.5506 18.9038 -0.1109 0.9242
4.1642 19.1425 -0.1103 0.9246
3.4926 19.3579 -0.1107 0.9243
2.8476 26.4862 -0.1500 0.8989
1.8924 26.4595 -0.1494 0.8993
-0.0000 18.7487 -0.1056 0.9277
-0.6689 18.7300 -0.1055 0.9278
-1.3583 18.9918 -0.1072 0.9267
-3.7815 26.3009 -0.1496 0.8992
-4.6942 26.0183 -0.1488 0.8996
-5.5321 25.4305 -0.1465 0.9011
-4.8198 18.8836 -0.1097 0.9250
-5.5358 18.8531 -0.1106 0.9244
-7.7863 18.7977 -0.1146 0.9218
-11.4190 25.0041 -0.1548 0.8959
-11.8364 18.4178 -0.1233 0.9162
-12.7674 18.3885 -0.1260 0.9143
-13.9385 18.6197 -0.1310 0.9112
-8.2791 9.5545 -0.0712 0.9507
-17.2571 18.5354 -0.1426 0.9037
-20.9544 9.5695 -0.1297 0.9120
44.3741 20.2650 -1.3736 0.8227
37.7420 20.6087 -1.2108 0.8419
33.1575 19.6733 -1.0856 0.8570
28.1330 19.5331 -0.9644 0.8719
26.3787 19.7469 -0.9279 0.8765
32.8404 26.4644 -1.1876 0.8447
11.1492 10.3803 -0.4289 0.9409
10.8897 10.8897 -0.4336 0.9402
15.6847 19.4635 -0.7039 0.9048
14.9127 19.9210 -0.7007 0.9052
18.1014 26.0710 -0.8937 0.8807
12.4422 19.3604 -0.6480 0.9120
11.3110 19.0637 -0.6242 0.9151
10.3956 19.0381 -0.6108 0.9169
9.6554 19.2891 -0.6074 0.9173
9.6407 25.8476 -0.7768 0.8955
6.3899 19.1986 -0.5697 0.9222
5.5504 18.9028 -0.5547 0.9242
4.8194 18.8824 -0.5487 0.9250
4.1637 19.1402 -0.5516 0.9246
3.6918 25.6767 -0.7304 0.9014
2.8474 26.4849 -0.7501 0.8989
1.8923 26.4582 -0.7469 0.8993
-0.6689 18.7290 -0.5277 0.9277
-1.3582 18.9896 -0.5361 0.9266
-4.6940 26.0170 -0.7444 0.8996
-5.5314 25.4275 -0.7327 0.9011
-5.5357 18.8527 -0.5533 0.9244
-7.0239 18.8319 -0.5659 0.9227
-7.7853 18.7954 -0.5728 0.9218
-11.4188 25.0037 -0.7740 0.8958
-17.4233 34.8073 -1.0960 0.8558
-12.7666 18.3874 -0.6303 0.9143
-8.0169 9.9483 -0.3598 0.9502
-8.2819 9.5578 -0.3561 0.9507
-17.2570 18.5353 -0.7131 0.9036
49.0538 0.0000 -2.4877 0.8216
49.0784 3.5102 -2.4953 0.8211
48.9969 5.2677 -2.4992 0.8209
48.8529 7.0240 -2.5030 0.8206
48.6459 8.7767 -2.5069 0.8204
45.4333 9.8834 -2.3580 0.8301
45.1210 11.5165 -2.3616 0.8299
44.7497 13.1397 -2.3653 0.8296
31.9782 20.5512 -1.9278 0.8588
10.8957 10.8957 -0.7814 0.9402
16.6467 19.2114 -1.2891 0.9032
15.6822 19.4605 -1.2675 0.9047
14.9139 19.9226 -1.2621 0.9051
18.0988 26.0673 -1.6094 0.8806
12.4404 19.3577 -1.1670 0.9120
11.3103 19.0626 -1.1241 0.9151
10.6033 25.5986 -1.4052 0.8950
6.3891 19.1962 -1.0260 0.9222
5.5501 18.9018 -0.9991 0.9241
4.1632 19.1379 -0.9933 0.9246
1.8922 26.4569 -1.3452 0.8992
0.6799 19.0370 -0.9661 0.9265
-0.6689 18.7281 -0.9504 0.9277
-2.0379 18.9548 -0.9668 0.9265
-4.6938 26.0157 -1.3407 0.8995
-4.8186 18.8790 -0.9881 0.9249
-5.5356 18.8523 -0.9964 0.9243
-11.4187 25.0034 -1.3940 0.8958
-12.7659 18.3863 -1.1352 0.9143
-13.9346 18.6144 -1.1792 0.9111
-8.0132 9.9438 -0.6477 0.9501
-17.2568 18.5351 -1.2844 0.9035
-18.2332 18.2332 -1.3077 0.9019
-43.1048 23.5370 -2.4907 0.8214
-43.0425 21.5455 -2.4411 0.8247
-43.1362 19.6996 -2.4049 0.8270
-43.7528 18.1230 -2.4017 0.8272
-45.9482 9.9954 -2.3847 0.8283
-45.5550 8.2190 -2.3476 0.8308
-46.9477 6.7501 -2.4054 0.8270
-49.5594 5.3282 -2.5279 0.8190
-49.6621 1.7737 -2.5202 0.8195
33.9010 3.6448 -2.5000 0.8722
33.7852 4.8576 -2.5027 0.8721
30.4875 10.1472 -2.3560 0.8791
28.9378 14.4852 -2.3728 0.8783
28.4311 15.5245 -2.3752 0.8782
27.8866 16.5459 -2.3775 0.8781
27.3051 17.5480 -2.3799 0.8779
26.6873 18.5293 -2.3822 0.8778
26.0337 19.4886 -2.3844 0.8777
22.3529 19.3689 -2.1687 0.8881
11.1388 10.3706 -1.1159 0.9408
10.9017 10.9017 -1.1304 0.9400
16.6456 19.2101 -1.8637 0.9031
14.8555 19.8446 -1.8176 0.9054
18.0575 26.0078 -2.3215 0.8807
12.4026 19.2987 -1.6820 0.9121
9.6163 25.7824 -2.0176 0.8955
6.3883 19.1938 -1.4832 0.9221
5.5498 18.9009 -1.4444 0.9240
4.8190 18.8805 -1.4287 0.9248
2.8471 26.4823 -1.9529 0.8987
1.8921 26.4556 -1.9447 0.8991
0.0000 18.7459 -1.3745 0.9276
-1.3578 18.9852 -1.3956 0.9265
-2.0376 18.9526 -1.3977 0.9264
-3.7809 26.2970 -1.9480 0.8989
-4.6935 26.0144 -1.9382 0.8994
-5.5174 25.3632 -1.9032 0.9011
-4.8180 18.8767 -1.4285 0.9248
-6.1817 18.5730 -1.4353 0.9245
-11.4185 25.0031 -2.0154 0.8956
-14.7611 29.4889 -2.4179 0.8761
-10.2470 18.7660 -1.5677 0.9178
-11.8344 18.4146 -1.6050 0.9160
-12.7651 18.3853 -1.6411 0.9141
-8.0096 9.9393 -0.9360 0.9501
-8.2875 9.5643 -0.9279 0.9505
-24.0080 22.3523 -2.4052 0.8767
-26.3776 22.8563 -2.5591 0.8694
-27.1566 21.8842 -2.5573 0.8695
-23.4250 17.5358 -2.1455 0.8893
-28.6042 19.8602 -2.5533 0.8696
-29.8986 17.7397 -2.5491 0.8699
-32.4263 12.0944 -2.5376 0.8704
-32.8057 10.9188 -2.5351 0.8705
-33.8902 6.1145 -2.5250 0.8710
-34.0517 4.8959 -2.5224 0.8711
-34.1693 3.6736 -2.5198 0.8712
-34.2428 2.4491 -2.5172 0.8714
25.9578 1.8566 -2.4984 0.9007
25.8960 2.7841 -2.5005 0.9006
25.8011 3.7097 -2.5025 0.9006
25.6731 4.6320 -2.5045 0.9005
19.8057 4.3085 -1.9459 0.9218
25.3184 6.4622 -2.5086 0.9003
25.0919 7.3677 -2.5106 0.9002
24.8329 8.2652 -2.5127 0.9002
22.7453 9.4214 -2.3636 0.9058
21.2386 12.6014 -2.3709 0.9055
20.7909 13.3615 -2.3727 0.9055
20.3157 14.1055 -2.3744 0.9054
19.8136 14.8323 -2.3762 0.9053
11.1424 10.3740 -1.4616 0.9407
16.9227 18.1763 -2.3842 0.9050
16.2734 18.7805 -2.3857 0.9050
14.8566 19.8461 -2.3800 0.9052
11.3090 19.0603 -2.1278 0.9148
10.3938 19.0349 -2.0821 0.9165
9.5545 23.0667 -2.3970 0.9045
6.3684 19.1341 -1.9360 0.9222
2.6755 24.8857 -2.4029 0.9043
0.6777 18.9753 -1.8229 0.9265
-0.6688 18.7263 -1.7990 0.9275
-2.0314 18.8946 -1.8244 0.9265
-3.5644 24.7908 -2.4045 0.9043
-4.4469 24.6473 -2.4045 0.9043
-4.8031 18.8183 -1.8646 0.9249
-6.1814 18.5720 -1.8792 0.9244
-7.7597 18.7335 -1.9467 0.9218
-13.8905 18.5555 -2.2253 0.9111
-8.0059 9.9348 -1.2249 0.9500
-16.9937 18.2525 -2.3942 0.9046
-18.2342 16.9766 -2.3918 0.9047
-18.8183 16.3061 -2.3905 0.9048
-19.3775 15.6154 -2.3892 0.9048
-19.9110 14.9052 -2.3878 0.9049
-20.8980 13.4304 -2.3849 0.9050
-21.3505 12.6678 -2.3834 0.9051
-22.1703 11.0976 -2.3802 0.9052
-24.3552 10.0883 -2.5309 0.8995
-24.9766 8.3130 -2.5272 0.8996
-25.2386 7.4107 -2.5253 0.8997
-25.4678 6.5003 -2.5234 0.8998
-25.6639 5.5828 -2.5215 0.8998
-26.0523 2.8009 -2.5156 0.9001
-26.1439 0.9337 -2.5115 0.9002
21.0113 0.0000 -2.4959 0.9188
21.0117 0.7504 -2.4975 0.9188
20.9852 1.5009 -2.4991 0.9187
20.9320 2.2504 -2.5008 0.9187
20.7454 3.7429 -2.5040 0.9186
20.6121 4.4839 -2.5057 0.9185
19.5518 8.0986 -2.5138 0.9183
18.8234 8.5964 -2.4581 0.9200
17.1358 10.1672 -2.3668 0.9229
16.3865 11.3774 -2.3697 0.9228
15.9793 11.9620 -2.3710 0.9227
11.1466 10.3778 -1.8091 0.9405
10.9139 10.9139 -1.8334 0.9397
10.1956 10.9508 -1.7773 0.9415
10.1540 11.7183 -1.8418 0.9395
12.5715 15.6003 -2.3799 0.9225
10.8468 16.8779 -2.3832 0.9224
10.2418 17.2616 -2.3842 0.9223
9.6231 17.6233 -2.3852 0.9223
8.9914 17.9625 -2.3861 0.9223
8.3476 18.2786 -2.3869 0.9222
7.6925 18.5713 -2.3878 0.9222
7.0270 18.8402 -2.3885 0.9222
6.3520 19.0848 -2.3893 0.9222
5.5492 18.8989 -2.3397 0.9237
4.1489 19.0724 -2.3185 0.9244
3.4354 19.0410 -2.2983 0.9250
2.8659 19.9332 -2.3921 0.9221
2.1530 20.0261 -2.3925 0.9221
1.4371 20.0932 -2.3929 0.9221
0.6776 18.9731 -2.2552 0.9264
-4.8025 18.8160 -2.3067 0.9248
-6.1811 18.5711 -2.3250 0.9242
-6.9989 18.7649 -2.3790 0.9225
-7.7071 18.6066 -2.3923 0.9221
-8.3648 18.3163 -2.3919 0.9221
-9.6460 17.6653 -2.3908 0.9221
-10.8759 16.9232 -2.3896 0.9222
-8.0023 9.9302 -1.5149 0.9499
-15.1588 13.1352 -2.3826 0.9224
-16.0425 12.0093 -2.3804 0.9225
-16.4530 11.4235 -2.3793 0.9225
-16.8418 10.8235 -2.3781 0.9225
-17.8740 8.9471 -2.3743 0.9226
-18.1718 8.2988 -2.3730 0.9227
-19.5972 8.1174 -2.5197 0.9181
-19.9071 7.4249 -2.5238 0.9180
-20.1475 6.7057 -2.5223 0.9180
-20.3618 5.9788 -2.5208 0.9181
-20.7110 4.5054 -2.5177 0.9182
-20.8455 3.7610 -2.5161 0.9182
-20.9532 3.0126 -2.5145 0.9183
-21.0340 2.2614 -2.5129 0.9183
-21.0877 1.5082 -2.5113 0.9184
17.5963 1.2585 -2.4996 0.9312
17.5498 1.8868 -2.5009 0.9312
16.9825 4.9865 -2.5078 0.9310
16.6015 6.1921 -2.5106 0.9309
16.1348 7.3685 -2.5132 0.9308
14.3490 8.5137 -2.3640 0.9348
12.8042 9.5851 -2.2662 0.9374
10.2345 10.2345 -2.0508 0.9432
10.1541 11.7184 -2.1970 0.9393
10.5176 13.0515 -2.3750 0.9345
9.5672 13.7794 -2.3768 0.9345
9.0726 14.1173 -2.3777 0.9345
3.8573 8.4463 -1.3156 0.9632
6.4322 15.5287 -2.3815 0.9343
5.3108 15.9564 -2.3828 0.9343
4.7390 16.1397 -2.3834 0.9343
4.1609 16.3021 -2.3839 0.9343
3.5771 16.4434 -2.3844 0.9343
2.9884 16.5636 -2.3848 0.9343
0.6011 16.8293 -2.3860 0.9342
-0.0000 16.8414 -2.3863 0.9342
-1.2016 16.8004 -2.3865 0.9342
-1.8005 16.7472 -2.3866 0.9342
-2.9906 16.5759 -2.3865 0.9342
-3.5802 16.4580 -2.3865 0.9342
-4.7446 16.1585 -2.3861 0.9342
-5.8840 15.7756 -2.3856 0.9342
-7.5331 15.0493 -2.3845 0.9343
-9.0929 14.1489 -2.3830 0.9343
-7.3042 10.5201 -1.8146 0.9496
-10.0740 13.4573 -2.3818 0.9343
-8.2961 9.5742 -1.7950 0.9501
-8.7660 8.7660 -1.7565 0.9512
-9.3821 8.7351 -1.8163 0.9495
-16.4411 6.8101 -2.5215 0.9306
-17.3455 3.7733 -2.5151 0.9308
-17.6214 1.8945 -2.5112 0.9309
-17.6925 0.6319 -2.5084 0.9310
15.1362 1.0826 -2.4999 0.9403
15.0347 2.1617 -2.5023 0.9403
14.8562 3.2318 -2.5046 0.9402
14.7384 3.7618 -2.5058 0.9402
14.6016 4.2874 -2.5070 0.9402
14.4460 4.8081 -2.5082 0.9401
14.2718 5.3231 -2.5093 0.9401
13.8685 6.3335 -2.5117 0.9401
13.6397 6.8276 -2.5128 0.9400
13.3933 7.3133 -2.5139 0.9400
12.8181 8.2377 -2.5101 0.9401
10.1585 9.4579 -2.2865 0.9453
10.1225 10.1225 -2.3583 0.9436
9.8020 10.5281 -2.3697 0.9434
9.0324 11.2086 -2.3714 0.9433
6.6344 8.8626 -1.8238 0.9561
7.7902 12.1218 -2.3738 0.9433
7.3548 12.3959 -2.3745 0.9432
6.9097 12.6542 -2.3752 0.9432
3.8575 8.4467 -1.5297 0.9631
5.5218 13.3308 -2.3770 0.9432
5.0436 13.5225 -2.3776 0.9432
4.0678 13.8537 -2.3786 0.9431
2.5649 14.2164 -2.3798 0.9431
1.0309 14.4145 -2.3807 0.9431
0.5158 14.4433 -2.3809 0.9431
-0.0000 14.4536 -2.3811 0.9431
-0.5159 14.4452 -2.3812 0.9431
-1.0312 14.4181 -2.3813 0.9431
-3.5746 14.0050 -2.3811 0.9431
-5.0499 13.5394 -2.3806 0.9431
-6.0015 13.1414 -2.3800 0.9431
-6.4657 12.9169 -2.3796 0.9431
-6.9215 12.6758 -2.3792 0.9431
-7.2713 11.3144 -2.2156 0.9469
-7.2246 9.6510 -1.9860 0.9523
-7.1779 8.9073 -1.8845 0.9547
-7.7021 8.8887 -1.9376 0.9534
-8.7889 8.7889 -2.0476 0.9509
-11.8221 8.2082 -2.3710 0.9433
-12.1032 7.7782 -2.3701 0.9433
-12.4373 7.3794 -2.3824 0.9431
-13.3945 7.3140 -2.5141 0.9400
-13.6830 6.8492 -2.5208 0.9399
-14.7889 3.7746 -2.5144 0.9400
-14.9075 3.2429 -2.5133 0.9400
-15.1481 1.6286 -2.5099 0.9401
-15.1895 1.0864 -2.5087 0.9401
-15.2115 0.5433 -2.5075 0.9402
13.2676 0.9489 -2.5002 0.9473
13.2307 1.4225 -2.5012 0.9473
13.1770 1.8946 -2.5022 0.9473
13.1064 2.3647 -2.5033 0.9472
13.0191 2.8321 -2.5043 0.9472
12.9150 3.2964 -2.5053 0.9472
12.7944 3.7568 -2.5064 0.9472
12.6574 4.2128 -2.5074 0.9472
12.1493 5.5484 -2.5104 0.9471
11.7317 6.4060 -2.5124 0.9471
11.2535 7.2322 -2.5144 0.9470
10.9923 7.6321 -2.5153 0.9470
9.5085 8.2392 -2.3648 0.9501
9.2116 8.5763 -2.3657 0.9501
8.5820 9.2177 -2.3672 0.9500
8.2501 9.5212 -2.3680 0.9500
6.0480 11.0760 -2.3720 0.9499
3.8575 8.4468 -1.7454 0.9629
4.8326 11.6671 -2.3736 0.9499
4.4140 11.8346 -2.3741 0.9499
3.5598 12.1237 -2.3750 0.9499
2.6867 12.3507 -2.3757 0.9499
2.2445 12.4404 -2.3761 0.9499
1.7993 12.5141 -2.3763 0.9498
1.3516 12.5717 -2.3766 0.9498
-0.0000 12.6471 -2.3772 0.9498
-0.9023 12.6159 -2.3774 0.9498
-2.2457 12.4473 -2.3774 0.9498
-3.1278 12.2545 -2.3772 0.9498
-4.4189 11.8474 -2.3767 0.9498
-5.2517 11.4995 -2.3762 0.9498
-6.0570 11.0925 -2.3755 0.9499
-7.1680 10.3238 -2.3623 0.9501
-7.0899 9.4710 -2.2237 0.9530
-7.1775 8.9067 -2.1500 0.9545
-7.6805 8.8638 -2.2045 0.9534
-9.8168 7.9109 -2.3697 0.9500
-10.0899 7.5532 -2.3690 0.9500
-10.7058 7.4331 -2.4497 0.9483
-11.2610 7.2370 -2.5160 0.9470
-11.5308 6.8415 -2.5201 0.9469
-11.7637 6.4235 -2.5193 0.9469
-11.9814 5.9974 -2.5184 0.9469
-12.3700 5.1238 -2.5166 0.9470
-12.5404 4.6773 -2.5157 0.9470
-12.8325 3.7680 -2.5138 0.9470
-12.9538 3.3063 -2.5129 0.9470
-13.0585 2.8407 -2.5119 0.9471
-13.1463 2.3719 -2.5109 0.9471
-13.3085 0.9518 -2.5079 0.9471
-13.3285 0.4760 -2.5068 0.9472
11.7986 0.8439 -2.5004 0.9528
11.7653 1.2649 -2.5013 0.9528
11.7170 1.6847 -2.5022 0.9528
11.4824 2.9307 -2.5050 0.9527
11.3747 3.3399 -2.5059 0.9527
11.2523 3.7451 -2.5068 0.9527
11.1155 4.1459 -2.5077 0.9527
10.9644 4.5416 -2.5086 0.9526
10.7992 4.9318 -2.5095 0.9526
10.4271 5.6936 -2.5113 0.9526
10.0012 6.4274 -2.5130 0.9526
9.7687 6.7825 -2.5138 0.9525
9.2659 7.4669 -2.5154 0.9525
8.9924 7.7919 -2.5151 0.9525
8.1585 8.1585 -2.4389 0.9539
7.6249 8.1897 -2.3653 0.9553
7.3298 8.4590 -2.3660 0.9553
6.5906 8.8040 -2.3247 0.9560
6.0576 9.4259 -2.3684 0.9552
5.7187 9.6383 -2.3690 0.9552
5.3723 9.8385 -2.3695 0.9552
4.2539 8.4981 -2.0088 0.9619
3.8576 8.4469 -1.9629 0.9627
3.9205 10.5113 -2.3714 0.9552
2.7758 10.8753 -2.3725 0.9551
2.3861 10.9689 -2.3728 0.9551
1.9934 11.0484 -2.3731 0.9551
1.5979 11.1137 -2.3734 0.9551
0.8011 11.2014 -2.3738 0.9551
0.4008 11.2236 -2.3740 0.9551
-0.0000 11.2314 -2.3741 0.9551
-0.4009 11.2247 -2.3742 0.9551
-0.8013 11.2036 -2.3743 0.9551
-1.2007 11.1680 -2.3743 0.9551
-1.5985 11.1181 -2.3743 0.9551
-1.9943 11.0538 -2.3743 0.9551
-2.7777 10.8827 -2.3741 0.9551
-3.5465 10.6556 -2.3739 0.9551
-3.9243 10.5215 -2.3737 0.9551
-4.2969 10.3738 -2.3735 0.9551
-6.0667 9.4400 -2.3720 0.9552
-6.3987 9.2159 -2.3716 0.9552
-7.3431 8.4744 -2.3702 0.9552
-7.9255 7.9255 -2.3692 0.9552
-8.2014 7.6358 -2.3687 0.9552
-9.5366 7.1390 -2.5181 0.9525
-10.0244 6.4423 -2.5188 0.9525
-10.2450 6.0787 -2.5181 0.9525
-10.6462 5.3291 -2.5166 0.9525
-10.8262 4.9442 -2.5158 0.9525
-11.2817 3.7549 -2.5134 0.9526
-11.5131 2.9385 -2.5116 0.9526
-11.6066 2.5249 -2.5108 0.9526
-11.7488 1.6892 -2.5090 0.9526
-11.7974 1.2684 -2.5081 0.9526
-11.8309 0.8462 -2.5072 0.9527
-11.8493 0.4232 -2.5063 0.9527
10.6291 0.3796 -2.4997 0.9572
10.5820 1.1377 -2.5013 0.9572
10.4808 1.8910 -2.5030 0.9572
10.2288 3.0034 -2.5055 0.9571
10.1184 3.3677 -2.5063 0.9571
9.7098 4.4343 -2.5087 0.9571
9.5484 4.7796 -2.5095 0.9571
9.3746 5.1189 -2.5103 0.9571
9.1888 5.4520 -2.5111 0.9570
8.9911 5.7782 -2.5119 0.9570
8.7817 6.0973 -2.5126 0.9570
8.5610 6.4087 -2.5134 0.9570
8.0867 7.0071 -2.5148 0.9570
7.8336 7.2933 -2.5155 0.9570
7.2889 7.8289 -2.5140 0.9570
6.9946 8.0721 -2.5103 0.9571
6.5233 8.0949 -2.4434 0.9582
6.0560 8.0898 -2.3750 0.9593
5.4439 8.4709 -2.3665 0.9595
5.1392 8.6616 -2.3670 0.9595
4.8277 8.8413 -2.3675 0.9595
4.2540 8.4984 -2.2336 0.9617
3.5228 9.4451 -2.3692 0.9594
3.1840 9.5663 -2.3696 0.9594
2.4941 9.7717 -2.3702 0.9594
1.7910 9.9270 -2.3707 0.9594
1.4357 9.9856 -2.3710 0.9594
1.0785 10.0313 -2.3712 0.9594
0.3602 10.0841 -2.3715 0.9594
0.0000 10.0910 -2.3716 0.9594
-0.7199 10.0659 -2.3718 0.9594
-1.0788 10.0340 -2.3718 0.9594
-2.8429 9.6820 -2.3716 0.9594
-3.1865 9.5738 -2.3714 0.9594
-3.5259 9.4533 -2.3713 0.9594
-3.8608 9.3207 -2.3711 0.9594
-4.1906 9.1761 -2.3708 0.9594
-4.8335 8.8519 -2.3703 0.9594
-5.4512 8.4823 -2.3697 0.9594
-6.5986 7.6152 -2.3682 0.9594
-7.5436 7.5436 -2.5073 0.9571
-7.8364 7.2959 -2.5164 0.9570
-8.1018 7.0203 -2.5195 0.9569
-8.5781 6.4215 -2.5183 0.9569
-9.2084 5.4636 -2.5165 0.9570
-9.3950 5.1301 -2.5158 0.9570
-9.5696 4.7902 -2.5151 0.9570
-9.7317 4.4443 -2.5144 0.9570
-10.2531 3.0106 -2.5114 0.9570
-10.4353 2.2701 -2.5099 0.9571
-10.6385 0.7609 -2.5067 0.9571
-10.6554 0.3806 -2.5059 0.9571
9.6523 0.0000 -2.4991 0.9609
9.6056 1.0327 -2.5014 0.9609
9.4487 2.0555 -2.5037 0.9608
9.2836 2.7259 -2.5052 0.9608
9.1831 3.0564 -2.5059 0.9608
8.9469 3.7059 -2.5074 0.9608
8.3380 4.9472 -2.5103 0.9607
8.1583 5.2431 -2.5109 0.9607
7.9682 5.5324 -2.5116 0.9607
7.5572 6.0900 -2.5130 0.9607
6.6201 7.1105 -2.5154 0.9607
6.3636 7.3439 -2.5160 0.9606
6.0987 7.5681 -2.5166 0.9606
5.8194 7.7738 -2.5143 0.9607
5.1652 8.0372 -2.4736 0.9613
4.7658 8.0323 -2.4182 0.9621
3.4985 8.4461 -2.3670 0.9629
2.8879 8.6767 -2.3677 0.9629
1.9445 8.9388 -2.3686 0.9629
1.6244 9.0034 -2.3688 0.9629
0.9781 9.0979 -2.3692 0.9629
0.3266 9.1456 -2.3695 0.9629
0.0000 9.1519 -2.3696 0.9629
-0.3267 9.1464 -2.3697 0.9629
-0.6529 9.1291 -2.3697 0.9629
-1.3025 9.0594 -2.3698 0.9629
-2.2634 8.8677 -2.3696 0.9629
-2.5783 8.7809 -2.3695 0.9629
-2.8899 8.6829 -2.3694 0.9629
-4.3839 8.0284 -2.3684 0.9629
-4.9443 7.6934 -2.3679 0.9629
-5.7057 7.6219 -2.4652 0.9614
-7.5704 6.1006 -2.5174 0.9606
-7.7817 5.8253 -2.5168 0.9606
-7.9829 5.5426 -2.5163 0.9606
-8.1738 5.2530 -2.5157 0.9606
-8.8295 4.0323 -2.5132 0.9607
-9.0899 3.3904 -2.5119 0.9607
-9.2027 3.0629 -2.5112 0.9607
-9.3036 2.7318 -2.5106 0.9607
-9.6270 1.0350 -2.5070 0.9608
-9.6706 0.3454 -2.5055 0.9608
8.8256 0.3152 -2.5001 0.9640
8.8112 0.6302 -2.5008 0.9639
8.7855 0.9446 -2.5014 0.9639
8.7486 1.2579 -2.5021 0.9639
8.4899 2.4929 -2.5049 0.9639
8.2949 3.0938 -2.5062 0.9639
8.0573 3.6797 -2.5076 0.9638
7.9230 3.9660 -2.5082 0.9638
7.7784 4.2473 -2.5089 0.9638
7.4594 4.7938 -2.5102 0.9638
7.2853 5.0583 -2.5108 0.9638
7.1019 5.3164 -2.5114 0.9638
6.7077 5.8122 -2.5126 0.9638
6.4974 6.0493 -2.5132 0.9638
6.2788 6.2788 -2.5137 0.9638
5.8173 6.7136 -2.5148 0.9637
5.5752 6.9184 -2.5153 0.9637
5.3257 7.1143 -2.5158 0.9637
5.0694 7.3013 -2.5163 0.9637
4.8064 7.4789 -2.5168 0.9637
4.5346 7.6426 -2.5157 0.9637
3.9707 7.9325 -2.5112 0.9638
3.6430 7.9771 -2.4826 0.9642
2.9710 7.9656 -2.4067 0.9653
2.6491 7.9593 -2.3747 0.9657
2.3551 8.0206 -2.3664 0.9658
2.0675 8.1005 -2.3667 0.9658
1.4847 8.2289 -2.3671 0.9658
1.1901 8.2773 -2.3673 0.9658
0.2985 8.3586 -2.3678 0.9658
-0.5967 8.3434 -2.3680 0.9658
-1.1904 8.2797 -2.3680 0.9658
-1.7780 8.1735 -2.3680 0.9658
-2.3564 8.0253 -2.3678 0.9658
-2.9227 7.8359 -2.3676 0.9658
-3.2054 7.7386 -2.3712 0.9658
-4.5289 7.6331 -2.5126 0.9638
-4.8028 7.4733 -2.5149 0.9637
-5.0713 7.3041 -2.5173 0.9637
-5.8252 6.7226 -2.5182 0.9637
-6.2879 6.2879 -2.5174 0.9637
-6.7181 5.8213 -2.5165 0.9637
-6.9203 5.5767 -2.5160 0.9637
-7.7924 4.2550 -2.5134 0.9638
-8.0724 3.6865 -2.5123 0.9638
-8.1969 3.3953 -2.5117 0.9638
-8.4141 2.8005 -2.5105 0.9638
-8.5066 2.4978 -2.5098 0.9638
-8.5881 2.1920 -2.5092 0.9638
-8.6587 1.8836 -2.5085 0.9638
-8.7181 1.5729 -2.5079 0.9638
-8.8034 0.9465 -2.5065 0.9639
-8.8292 0.6315 -2.5059 0.9639
-8.8437 0.3159 -2.5052 0.9639
8.1101 0.5800 -2.5008 0.9665
8.0862 0.8694 -2.5015 0.9665
8.0077 1.4448 -2.5028 0.9665
7.9530 1.7301 -2.5034 0.9665
7.7283 2.5723 -2.5053 0.9665
7.5289 3.1186 -2.5065 0.9665
7.1576 3.9083 -2.5083 0.9664
7.0152 4.1623 -2.5089 0.9664
6.8637 4.4111 -2.5095 0.9664
6.5345 4.8917 -2.5107 0.9664
6.3572 5.1229 -2.5112 0.9664
6.1716 5.3477 -2.5117 0.9664
5.7768 5.7768 -2.5128 0.9664
5.3521 6.1766 -2.5138 0.9664
5.1291 6.3649 -2.5143 0.9664
4.8996 6.5451 -2.5147 0.9664
4.1740 7.0349 -2.5160 0.9663
3.9208 7.1805 -2.5164 0.9663
3.6626 7.3170 -2.5167 0.9663
3.3996 7.4440 -2.5171 0.9663
2.5806 7.7534 -2.5134 0.9664
2.0188 7.9096 -2.5108 0.9664
1.4244 7.8949 -2.4675 0.9670
1.1340 7.8869 -2.4508 0.9672
0.8470 7.8784 -2.4372 0.9674
0.5628 7.8695 -2.4267 0.9675
0.2807 7.8601 -2.4191 0.9676
-0.0000 7.8502 -2.4146 0.9677
-1.6922 7.7789 -2.4486 0.9672
-1.9818 7.7648 -2.4648 0.9670
-3.3979 7.4404 -2.5159 0.9663
-4.1780 7.0417 -2.5184 0.9663
-4.6687 6.7242 -2.5179 0.9663
-6.7139 4.6615 -2.5140 0.9664
-6.8747 4.4181 -2.5135 0.9664
-7.1695 3.9148 -2.5125 0.9664
-7.4273 3.3919 -2.5114 0.9664
-7.5420 3.1240 -2.5109 0.9664
-7.7422 2.5769 -2.5098 0.9664
-7.9026 2.0170 -2.5086 0.9664
-7.9677 1.7333 -2.5080 0.9665
-8.0225 1.4474 -2.5074 0.9665
-8.0671 1.1599 -2.5068 0.9665
-8.1014 0.8710 -2.5062 0.9665
7.5202 0.0000 -2.4998 0.9688
7.5172 0.2685 -2.5003 0.9688
7.5046 0.5367 -2.5009 0.9688
7.4824 0.8044 -2.5015 0.9688
7.4507 1.0712 -2.5021 0.9688
7.4094 1.3368 -2.5027 0.9688
7.3587 1.6008 -2.5033 0.9688
7.2986 1.8629 -2.5039 0.9687
7.2291 2.1227 -2.5044 0.9687
6.9656 2.8853 -2.5062 0.9687
6.7451 3.3763 -2.5073 0.9687
6.6217 3.6157 -2.5079 0.9687
6.4899 3.8506 -2.5084 0.9687
6.3497 4.0807 -2.5089 0.9687
6.2013 4.3056 -2.5095 0.9687
5.5298 5.1485 -2.5115 0.9687
5.3436 5.3436 -2.5120 0.9686
5.1504 5.5319 -2.5124 0.9686
4.5319 6.0539 -2.5138 0.9686
4.3136 6.2129 -2.5142 0.9686
3.8606 6.5067 -2.5149 0.9686
3.6264 6.6413 -2.5153 0.9686
3.3875 6.7675 -2.5156 0.9686
3.1442 6.8849 -2.5160 0.9686
2.8969 6.9936 -2.5163 0.9686
1.8729 7.3378 -2.5173 0.9686
1.6099 7.4006 -2.5175 0.9686
1.3447 7.4529 -2.5174 0.9686
0.2701 7.5624 -2.5154 0.9686
-0.8090 7.5244 -2.5156 0.9686
-1.0772 7.4918 -2.5159 0.9686
-1.3442 7.4502 -2.5165 0.9686
-2.1344 7.2692 -2.5183 0.9686
-2.3924 7.1881 -2.5182 0.9686
-3.1465 6.8900 -2.5178 0.9686
-3.3902 6.7728 -2.5176 0.9686
-3.6295 6.6469 -2.5174 0.9686
-3.8641 6.5126 -2.5172 0.9686
-4.0937 6.3699 -2.5169 0.9686
-4.3180 6.2191 -2.5167 0.9686
-4.5367 6.0603 -2.5164 0.9686
-4.7495 5.8938 -2.5161 0.9686
-5.3502 5.3502 -2.5151 0.9686
-5.7165 4.9534 -2.5143 0.9686
-5.8888 4.7455 -2.5139 0.9686
-6.0534 4.5315 -2.5135 0.9686
-6.2102 4.3118 -2.5131 0.9686
-6.3590 4.0867 -2.5126 0.9686
-6.4996 3.8564 -2.5122 0.9686
-6.6319 3.6213 -2.5117 0.9687
-6.7556 3.3816 -2.5112 0.9687
-6.8707 3.1377 -2.5107 0.9687
-7.0741 2.6385 -2.5097 0.9687
-7.3109 1.8660 -2.5081 0.9687
6.9552 0.7478 -2.5015 0.9707
6.8398 1.4879 -2.5032 0.9707
6.7839 1.7315 -2.5037 0.9707
6.5641 2.4483 -2.5053 0.9707
6.3754 2.9116 -2.5064 0.9707
6.2688 3.1379 -2.5069 0.9707
6.1540 3.3604 -2.5074 0.9707
5.9010 3.7924 -2.5085 0.9706
5.7630 4.0014 -2.5089 0.9706
5.3053 4.5971 -2.5104 0.9706
4.9656 4.9656 -2.5113 0.9706
4.7860 5.1406 -2.5117 0.9706
4.6003 5.3090 -2.5121 0.9706
4.0083 5.7730 -2.5133 0.9706
3.1476 6.2881 -2.5147 0.9706
2.2216 6.6750 -2.5158 0.9706
1.9822 6.7507 -2.5160 0.9706
1.4958 6.8760 -2.5164 0.9705
1.0016 6.9661 -2.5168 0.9705
0.5021 7.0206 -2.5170 0.9705
-0.0000 7.0390 -2.5172 0.9705
-0.2512 7.0347 -2.5173 0.9705
-0.7525 6.9990 -2.5173 0.9705
-1.2499 6.9275 -2.5173 0.9705
-1.9831 6.7538 -2.5172 0.9705
-2.2228 6.6784 -2.5171 0.9705
-2.4596 6.5945 -2.5170 0.9705
-3.1499 6.2927 -2.5165 0.9705
-3.5902 6.0510 -2.5161 0.9706
-4.0120 5.7784 -2.5156 0.9706
-5.1449 4.7901 -2.5138 0.9706
-5.7707 4.0067 -2.5123 0.9706
-5.9091 3.7975 -2.5119 0.9706
-6.1628 3.3652 -2.5110 0.9706
-6.4837 2.6856 -2.5096 0.9706
-6.5741 2.4520 -2.5092 0.9706
-6.7945 1.7342 -2.5077 0.9707
-6.8981 1.2446 -2.5066 0.9707
-6.9367 0.9973 -2.5061 0.9707
-6.9872 0.4997 -2.5050 0.9707
6.5238 0.0000 -2.5001 0.9724
6.5210 0.2329 -2.5006 0.9724
6.5098 0.4656 -2.5011 0.9724
6.4904 0.6978 -2.5016 0.9724
6.4627 0.9292 -2.5021 0.9724
6.3825 1.3884 -2.5031 0.9724
6.3302 1.6157 -2.5036 0.9724
6.1249 2.2845 -2.5051 0.9724
6.0406 2.5021 -2.5056 0.9724
5.8490 2.9278 -2.5066 0.9724
5.7419 3.1353 -2.5071 0.9724
5.0987 4.1088 -2.5094 0.9723
4.9496 4.2889 -2.5098 0.9723
4.7942 4.4636 -2.5102 0.9723
4.6326 4.6326 -2.5106 0.9723
4.4650 4.7958 -2.5110 0.9723
4.1128 5.1036 -2.5118 0.9723
3.5451 5.5163 -2.5129 0.9723
3.3464 5.6401 -2.5132 0.9723
2.9362 5.8659 -2.5138 0.9723
2.5108 6.0617 -2.5144 0.9723
2.2931 6.1481 -2.5146 0.9723
1.8490 6.2971 -2.5151 0.9723
0.9343 6.4980 -2.5158 0.9723
0.2343 6.5615 -2.5161 0.9723
-2.7270 5.9714 -2.5157 0.9723
-3.1457 5.7609 -2.5153 0.9723
-3.5481 5.5209 -2.5149 0.9723
-3.7425 5.3902 -2.5147 0.9723
-3.9321 5.2527 -2.5145 0.9723
-4.2959 4.9578 -2.5139 0.9723
-4.4696 4.8007 -2.5136 0.9723
-4.6376 4.6376 -2.5133 0.9723
-4.9553 4.2938 -2.5127 0.9723
-5.2475 3.9282 -2.5120 0.9723
-5.5127 3.5428 -2.5112 0.9723
-5.6348 3.3433 -2.5108 0.9723
-5.8570 2.9318 -2.5100 0.9723
-6.1336 2.2877 -2.5087 0.9723
-6.3920 1.3905 -2.5068 0.9724
-6.4363 1.1612 -2.5063 0.9724
-6.4724 0.9306 -2.5058 0.9724
-6.5002 0.6988 -2.5053 0.9724
-6.5197 0.4663 -2.5048 0.9724
-6.5309 0.2333 -2.5043 0.9724
6.1088 0.0000 -2.5002 0.9739
6.1060 0.2181 -2.5006 0.9739
6.0955 0.4360 -2.5011 0.9739
5.9760 1.3000 -2.5030 0.9739
5.8702 1.7237 -2.5040 0.9739
5.8061 1.9325 -2.5044 0.9739
5.7345 2.1389 -2.5049 0.9739
5.6555 2.3426 -2.5054 0.9739
5.5693 2.5434 -2.5058 0.9739
5.3756 2.9353 -2.5067 0.9739
5.0337 3.4950 -2.5081 0.9739
4.7731 3.8465 -2.5089 0.9739
4.4880 4.1785 -2.5097 0.9738
4.3367 4.3367 -2.5101 0.9738
3.8499 4.7775 -2.5112 0.9738
3.6775 4.9125 -2.5115 0.9738
3.5003 5.0413 -2.5119 0.9738
3.3185 5.1637 -2.5122 0.9738
2.9424 5.3886 -2.5128 0.9738
2.7485 5.4908 -2.5130 0.9738
2.5510 5.5859 -2.5133 0.9738
1.9398 5.8283 -2.5140 0.9738
1.7307 5.8943 -2.5142 0.9738
1.5193 5.9527 -2.5144 0.9738
1.3060 6.0036 -2.5146 0.9738
1.0910 6.0467 -2.5147 0.9738
0.0000 6.1457 -2.5153 0.9738
-0.6570 6.1107 -2.5154 0.9738
-1.0912 6.0483 -2.5154 0.9738
-1.3064 6.0054 -2.5153 0.9738
-1.5199 5.9548 -2.5153 0.9738
-1.7314 5.8966 -2.5152 0.9738
-2.1475 5.7577 -2.5150 0.9738
-2.3515 5.6771 -2.5149 0.9738
-2.5525 5.5893 -2.5148 0.9738
-2.7502 5.4943 -2.5146 0.9738
-2.9444 5.3922 -2.5145 0.9738
-3.3211 5.1677 -2.5141 0.9738
-3.5031 5.0454 -2.5139 0.9738
-3.6806 4.9167 -2.5137 0.9738
-3.8534 4.7818 -2.5134 0.9738
-4.3411 4.3410 -2.5126 0.9738
-4.4927 4.1828 -2.5123 0.9738
-4.6385 4.0193 -2.5120 0.9738
-4.9122 3.6772 -2.5113 0.9738
-5.1605 3.3165 -2.5106 0.9738
-5.3824 2.9390 -2.5099 0.9738
-5.4830 2.7446 -2.5095 0.9738
-5.5765 2.5467 -2.5091 0.9739
-5.8139 1.9350 -2.5078 0.9739
-5.8782 1.7260 -2.5074 0.9739
-5.9351 1.5148 -2.5069 0.9739
-5.9843 1.3018 -2.5065 0.9739
-6.0258 1.0872 -2.5060 0.9739
-6.0597 0.8712 -2.5056 0.9739
-6.1041 0.4366 -2.5047 0.9739
5.7370 0.0000 -2.5003 0.9753
5.7072 0.6136 -2.5016 0.9753
5.6827 0.8170 -2.5021 0.9753
5.6509 1.0195 -2.5025 0.9753
5.6119 1.2208 -2.5030 0.9753
5.5125 1.6186 -2.5039 0.9752
5.3849 2.0085 -2.5047 0.9752
4.9469 2.9351 -2.5069 0.9752
4.8398 3.1103 -2.5073 0.9752
4.7264 3.2816 -2.5077 0.9752
4.6070 3.4488 -2.5081 0.9752
4.4817 3.6116 -2.5085 0.9752
4.3506 3.7698 -2.5089 0.9752
4.2139 3.9233 -2.5092 0.9752
4.0718 4.0718 -2.5096 0.9752
3.9244 4.2151 -2.5099 0.9752
3.7720 4.3531 -2.5103 0.9752
3.1156 4.8480 -2.5115 0.9752
2.9409 4.9567 -2.5118 0.9752
2.5804 5.1550 -2.5124 0.9752
2.2065 5.3269 -2.5129 0.9752
2.0151 5.4028 -2.5131 0.9752
1.4264 5.5885 -2.5136 0.9751
1.0242 5.6767 -2.5140 0.9751
0.8210 5.7099 -2.5141 0.9751
0.2059 5.7657 -2.5144 0.9751
0.0000 5.7695 -2.5144 0.9751
-0.4116 5.7550 -2.5145 0.9751
-1.0244 5.6781 -2.5145 0.9751
-1.2264 5.6378 -2.5145 0.9751
-1.4269 5.5903 -2.5145 0.9751
-1.6254 5.5357 -2.5144 0.9751
-1.8219 5.4740 -2.5143 0.9751
-2.0161 5.4053 -2.5142 0.9751
-2.2076 5.3297 -2.5141 0.9751
-2.3963 5.2472 -2.5140 0.9751
-3.1179 4.8515 -2.5134 0.9752
-3.4555 4.6160 -2.5129 0.9752
-4.2180 3.9271 -2.5117 0.9752
-4.3550 3.7736 -2.5114 0.9752
-4.4864 3.6153 -2.5111 0.9752
-4.7316 3.2852 -2.5104 0.9752
-4.9526 2.9385 -2.5097 0.9752
-5.1481 2.5770 -2.5090 0.9752
-5.2360 2.3912 -2.5086 0.9752
-5.3172 2.2025 -2.5083 0.9752
-5.5195 1.6207 -2.5071 0.9752
-5.6192 1.2224 -2.5062 0.9752
-5.6902 0.8181 -2.5054 0.9752
-5.7147 0.6144 -2.5049 0.9752
-5.7320 0.4100 -2.5045 0.9752
-5.7420 0.2051 -2.5040 0.9752
5.3204 0.9599 -2.5025 0.9765
5.2836 1.1494 -2.5029 0.9764
5.2401 1.3375 -2.5033 0.9764
4.9234 2.2485 -2.5054 0.9764
4.8408 2.4231 -2.5058 0.9764
4.2190 3.3999 -2.5081 0.9764
3.8330 3.8330 -2.5091 0.9764
3.6942 3.9679 -2.5095 0.9764
3.5507 4.0977 -2.5098 0.9764
3.2501 4.3417 -2.5104 0.9764
3.0934 4.4554 -2.5107 0.9764
2.9328 4.5635 -2.5110 0.9764
2.7683 4.6658 -2.5113 0.9764
2.6003 4.7621 -2.5115 0.9764
2.2544 4.9364 -2.5120 0.9764
2.0769 5.0142 -2.5122 0.9764
1.7142 5.1504 -2.5126 0.9764
1.5294 5.2087 -2.5128 0.9764
1.3426 5.2603 -2.5130 0.9764
0.3874 5.4164 -2.5136 0.9763
0.1938 5.4269 -2.5136 0.9763
-0.1938 5.4272 -2.5138 0.9763
-0.5805 5.3996 -2.5138 0.9763
-1.3430 5.2619 -2.5137 0.9763
-1.5299 5.2105 -2.5137 0.9763
-1.8976 5.0877 -2.5135 0.9763
-2.0779 5.0166 -2.5134 0.9764
-2.2556 4.9390 -2.5133 0.9764
-3.2526 4.3449 -2.5123 0.9764
-3.4053 4.2257 -2.5121 0.9764
-3.5536 4.1011 -2.5119 0.9764
-4.0994 3.5522 -2.5108 0.9764
-4.3414 3.2499 -2.5102 0.9764
-4.4541 3.0925 -2.5099 0.9764
-4.6621 2.7662 -2.5093 0.9764
-4.7572 2.5976 -2.5090 0.9764
-4.9291 2.2510 -2.5082 0.9764
-5.1961 1.5257 -2.5068 0.9764
-5.3269 0.9611 -2.5056 0.9764
-5.3570 0.7702 -2.5052 0.9764
-5.4059 0.1931 -2.5039 0.9764
5.0975 0.0000 -2.5005 0.9775
5.0951 0.1820 -2.5009 0.9775
5.0862 0.3638 -2.5013 0.9775
5.0489 0.7259 -2.5021 0.9775
4.9447 1.2621 -2.5032 0.9775
4.8973 1.4380 -2.5036 0.9775
4.8436 1.6121 -2.5040 0.9775
4.5677 2.2864 -2.5056 0.9775
4.2990 2.7628 -2.5067 0.9775
3.9807 3.2079 -2.5077 0.9775
3.7427 3.4846 -2.5084 0.9775
3.3500 3.8662 -2.5094 0.9775
3.0664 4.0962 -2.5099 0.9775
2.7670 4.3055 -2.5105 0.9775
2.4533 4.4928 -2.5110 0.9775
2.2915 4.5779 -2.5112 0.9774
2.1269 4.6572 -2.5114 0.9774
1.6172 4.8590 -2.5120 0.9774
1.2666 4.9626 -2.5123 0.9774
0.9095 5.0409 -2.5126 0.9774
0.7290 5.0704 -2.5127 0.9774
-0.0000 5.1232 -2.5130 0.9774
-0.3655 5.1103 -2.5131 0.9774
-0.7291 5.0712 -2.5131 0.9774
-1.4434 4.9156 -2.5130 0.9774
-1.7902 4.7998 -2.5129 0.9774
-2.1279 4.6595 -2.5127 0.9774
-2.2928 4.5804 -2.5125 0.9774
-2.6134 4.4046 -2.5122 0.9774
-2.7687 4.3083 -2.5121 0.9774
-3.3526 3.8692 -2.5113 0.9774
-3.4883 3.7467 -2.5111 0.9775
-3.6195 3.6195 -2.5108 0.9775
-3.7460 3.4876 -2.5106 0.9775
-3.9844 3.2108 -2.5101 0.9775
-4.3987 2.6099 -2.5089 0.9775
-4.5725 2.2888 -2.5082 0.9775
-4.6507 2.1239 -2.5079 0.9775
-4.7890 1.7862 -2.5072 0.9775
-4.8490 1.6139 -2.5068 0.9775
-4.9028 1.4396 -2.5065 0.9775
-4.9504 1.2635 -2.5061 0.9775
-5.0767 0.5458 -2.5046 0.9775
-5.0922 0.3642 -2.5042 0.9775
4.8177 0.1721 -2.5009 0.9785
4.7946 0.5155 -2.5017 0.9785
4.7739 0.6864 -2.5020 0.9785
4.7470 0.8565 -2.5024 0.9785
4.7141 1.0255 -2.5028 0.9785
4.4605 1.8476 -2.5047 0.9785
4.3185 2.1617 -2.5054 0.9785
4.2392 2.3148 -2.5057 0.9785
4.1545 2.4650 -2.5061 0.9785
3.9691 2.7558 -2.5068 0.9785
3.8688 2.8961 -2.5071 0.9785
3.6532 3.1656 -2.5077 0.9785
3.5384 3.2943 -2.5081 0.9785
3.4189 3.4189 -2.5084 0.9784
3.1671 3.6550 -2.5089 0.9784
2.1663 4.3277 -2.5107 0.9784
1.8523 4.4719 -2.5111 0.9784
1.6917 4.5355 -2.5113 0.9784
1.3640 4.6453 -2.5116 0.9784
-0.5177 4.8154 -2.5125 0.9784
-0.6893 4.7939 -2.5125 0.9784
-0.8599 4.7662 -2.5125 0.9784
-1.3644 4.6468 -2.5124 0.9784
-1.6923 4.5373 -2.5123 0.9784
-1.8531 4.4739 -2.5122 0.9784
-2.0116 4.4047 -2.5121 0.9784
-2.4705 4.1638 -2.5117 0.9784
-2.6174 4.0727 -2.5115 0.9784
-2.7609 3.9764 -2.5114 0.9784
-2.9008 3.8751 -2.5112 0.9784
-3.0371 3.7688 -2.5110 0.9784
-3.1694 3.6577 -2.5108 0.9784
-3.2976 3.5419 -2.5106 0.9784
-3.4217 3.4217 -2.5104 0.9784
-3.7667 3.0354 -2.5096 0.9784
-3.8722 2.8987 -2.5093 0.9784
-4.0683 2.6145 -2.5088 0.9784
-4.1585 2.4674 -2.5085 0.9784
-4.3968 2.0080 -2.5076 0.9785
-4.4651 1.8495 -2.5072 0.9785
-4.5277 1.6887 -2.5069 0.9785
-4.6353 1.3611 -2.5062 0.9785
-4.6803 1.1946 -2.5059 0.9785
-4.8146 0.3443 -2.5041 0.9785
-4.8231 0.1723 -2.5037 0.9785
4.5553 0.3258 -2.5013 0.9794
4.5414 0.4883 -2.5017 0.9794
4.4651 0.9713 -2.5028 0.9794
4.4282 1.1302 -2.5031 0.9794
4.3857 1.2878 -2.5035 0.9794
4.3375 1.4437 -2.5038 0.9794
4.2838 1.5978 -2.5042 0.9794
3.9347 2.3346 -2.5059 0.9794
3.8494 2.4739 -2.5062 0.9793
3.3511 3.1200 -2.5077 0.9793
3.2380 3.2379 -2.5080 0.9793
2.9994 3.4615 -2.5086 0.9793
2.8742 3.5667 -2.5088 0.9793
2.7454 3.6674 -2.5091 0.9793
2.4772 3.8546 -2.5096 0.9793
2.3383 3.9409 -2.5098 0.9793
2.0515 4.0984 -2.5102 0.9793
1.7542 4.2350 -2.5106 0.9793
1.4478 4.3499 -2.5110 0.9793
1.1339 4.4426 -2.5112 0.9793
0.8142 4.5126 -2.5115 0.9793
0.6526 4.5390 -2.5116 0.9793
0.4902 4.5596 -2.5117 0.9793
0.1637 4.5832 -2.5118 0.9793
-0.1637 4.5834 -2.5119 0.9793
-0.3272 4.5747 -2.5120 0.9793
-0.4903 4.5601 -2.5120 0.9793
-0.6527 4.5397 -2.5120 0.9793
-0.8143 4.5135 -2.5120 0.9793
-0.9749 4.4815 -2.5119 0.9793
-1.4483 4.3514 -2.5118 0.9793
-1.9049 4.1712 -2.5115 0.9793
-2.3395 3.9431 -2.5112 0.9793
-2.6146 3.7657 -2.5109 0.9793
-2.7471 3.6697 -2.5107 0.9793
-2.8761 3.5691 -2.5105 0.9793
-3.0015 3.4639 -2.5103 0.9793
-3.1229 3.3543 -2.5101 0.9793
-3.2404 3.2404 -2.5099 0.9793
-3.4627 3.0004 -2.5094 0.9793
-3.5672 2.8746 -2.5092 0.9793
-3.8529 2.4761 -2.5084 0.9793
-3.9383 2.3367 -2.5081 0.9793
-4.0188 2.1944 -2.5079 0.9793
-4.0941 2.0493 -2.5076 0.9793
-4.3419 1.4451 -2.5063 0.9793
-4.3901 1.2891 -2.5060 0.9793
-4.4328 1.1314 -2.5057 0.9794
-4.5010 0.8121 -2.5050 0.9794
-4.5265 0.6508 -2.5047 0.9794
-4.5601 0.3261 -2.5040 0.9794
-4.5682 0.1632 -2.5036 0.9794
4.3291 0.1546 -2.5010 0.9802
4.3214 0.3091 -2.5014 0.9802
4.3082 0.4632 -2.5017 0.9802
4.2895 0.6168 -2.5020 0.9802
4.2654 0.7696 -2.5024 0.9802
4.2358 0.9214 -2.5027 0.9802
4.2007 1.0722 -2.5030 0.9802
4.1604 1.2216 -2.5034 0.9802
4.1146 1.3695 -2.5037 0.9802
4.0075 1.6600 -2.5044 0.9802
3.8799 1.9421 -2.5050 0.9802
3.5658 2.4758 -2.5063 0.9801
3.4756 2.6018 -2.5066 0.9801
3.1786 2.9594 -2.5074 0.9801
3.0713 3.0713 -2.5077 0.9801
2.9600 3.1793 -2.5080 0.9801
2.8450 3.2833 -2.5082 0.9801
2.7262 3.3831 -2.5085 0.9801
2.6040 3.4785 -2.5087 0.9801
2.4784 3.5696 -2.5090 0.9801
1.9458 3.8873 -2.5098 0.9801
1.8060 3.9546 -2.5100 0.9801
1.6638 4.0168 -2.5102 0.9801
1.5195 4.0739 -2.5103 0.9801
1.3732 4.1258 -2.5105 0.9801
0.9244 4.2496 -2.5109 0.9801
0.6190 4.3051 -2.5111 0.9801
0.4649 4.3246 -2.5112 0.9801
0.1553 4.3470 -2.5113 0.9801
-0.3103 4.3389 -2.5114 0.9801
-0.4650 4.3250 -2.5115 0.9801
-0.7723 4.2808 -2.5114 0.9801
-1.0757 4.2147 -2.5114 0.9801
-1.2255 4.1736 -2.5113 0.9801
-2.0842 3.8169 -2.5108 0.9801
-2.4798 3.5717 -2.5104 0.9801
-2.6056 3.4806 -2.5102 0.9801
-2.7280 3.3852 -2.5101 0.9801
-3.1810 2.9616 -2.5093 0.9801
-3.2844 2.8459 -2.5091 0.9801
-3.3835 2.7266 -2.5088 0.9801
-3.5687 2.4778 -2.5083 0.9801
-3.6545 2.3486 -2.5081 0.9801
-3.7356 2.2165 -2.5078 0.9801
-3.8834 1.9439 -2.5073 0.9801
-3.9498 1.8038 -2.5070 0.9801
-4.0112 1.6615 -2.5067 0.9801
-4.0675 1.5171 -2.5064 0.9801
-4.1644 1.2228 -2.5058 0.9802
-4.2938 0.6174 -2.5045 0.9802
-4.3258 0.3094 -2.5039 0.9802
