ply
format ascii 1.0
element vertex 1259
property float32 x
property float32 y
property float32 z
property float32 I
end_header
-40.9518 -13.6301 7.6104 0.8392
-34.1823 -17.1105 6.7402 0.8562
-32.5096 -20.8926 6.8140 0.8547
-32.0716 -22.2677 6.8845 0.8533
-32.6273 -26.2927 7.3886 0.8435
-33.6460 -29.1544 7.8501 0.8346
-35.9319 -33.4538 8.6567 0.8192
-0.0000 -47.1670 8.3168 0.8257
8.4860 -39.0095 7.0393 0.8503
12.1167 -41.2657 7.5834 0.8397
15.9925 -42.8777 8.0693 0.8304
18.2389 -44.0326 8.4038 0.8240
14.6403 -24.6750 5.0591 0.8900
39.7911 -11.6837 7.3124 0.8450
47.9721 -5.1575 8.5075 0.8220
39.7535 -1.4198 7.0141 0.8508
-48.0022 -10.4422 7.5257 0.8197
-45.0773 -11.5053 7.1270 0.8284
-39.0933 -14.5810 6.3919 0.8446
-37.3588 -15.4745 6.1947 0.8491
-34.1828 -17.1107 5.8560 0.8567
-32.0716 -22.2677 5.9813 0.8539
-31.2147 -23.3670 5.9733 0.8540
-3.8531 -15.0965 2.3868 0.9389
1.6004 -44.8113 6.8692 0.8341
5.3787 -37.4095 5.7899 0.8582
8.4861 -39.0100 6.1159 0.8508
10.2876 -40.3063 6.3726 0.8451
13.9143 -41.8058 6.7498 0.8367
15.9928 -42.8784 7.0107 0.8309
18.2392 -44.0332 7.3014 0.8246
14.6172 -24.6360 4.3885 0.8905
31.7408 -34.0920 7.1359 0.8282
39.8200 -11.6922 6.3577 0.8454
47.9708 -5.1574 7.3912 0.8226
-45.0779 -11.5054 6.0583 0.8289
-38.1810 -15.8151 5.3816 0.8465
-35.7266 -16.3158 5.1145 0.8535
-32.7376 -17.8761 4.8573 0.8603
-31.2149 -23.3671 5.0776 0.8545
-3.3614 -15.4519 2.0592 0.9382
1.6005 -44.8123 5.8392 0.8345
6.9602 -38.5780 5.1048 0.8537
8.4862 -39.0104 5.1988 0.8513
10.2877 -40.3069 5.4171 0.8455
13.9145 -41.8063 5.7377 0.8372
15.9930 -42.8790 5.9595 0.8314
14.5943 -24.5974 3.7245 0.8910
31.7173 -34.0668 6.0613 0.8288
48.9958 -5.2676 6.4171 0.8197
43.2171 -3.0910 5.6421 0.8396
-46.2431 -11.8029 5.1249 0.8253
-39.0943 -14.5814 4.4805 0.8455
-43.4480 -17.9968 5.0499 0.8276
-32.7373 -17.8759 4.0053 0.8607
-36.4346 -21.6176 4.5492 0.8433
-36.3023 -23.3301 4.6338 0.8406
-34.4769 -29.8744 4.8987 0.8323
-35.9330 -33.4548 5.2721 0.8208
-3.3434 -15.3696 1.6890 0.9387
1.6005 -44.8132 4.8152 0.8349
2.9693 -41.5155 4.4694 0.8458
8.4863 -39.0109 4.2870 0.8516
13.9147 -41.8069 4.7314 0.8376
15.9932 -42.8796 4.9143 0.8318
18.2397 -44.0345 5.1181 0.8255
14.5716 -24.5592 3.0665 0.8915
47.9683 -5.1571 5.1806 0.8236
39.1817 -1.3994 4.2101 0.8541
-46.2425 -11.8027 4.0400 0.8257
-20.9088 -6.1394 1.8447 0.9162
-39.0948 -14.5816 3.5322 0.8458
-43.4669 -18.0046 3.9828 0.8279
-35.7275 -16.3162 3.3249 0.8541
-32.7371 -17.8758 3.1575 0.8609
-36.3249 -23.3446 3.6553 0.8409
-31.2152 -23.3674 3.3008 0.8551
-19.3756 -15.6138 2.1065 0.9049
-34.4773 -29.8747 3.8619 0.8327
-3.8559 -15.1071 1.3199 0.9393
-3.3258 -15.2885 1.3245 0.9391
-0.0000 -47.1714 3.9932 0.8275
4.2144 -39.1998 3.3375 0.8536
5.3789 -37.4108 3.1995 0.8592
6.9115 -38.3082 3.2952 0.8553
10.2114 -40.0079 3.4953 0.8473
13.9149 -41.8075 3.7300 0.8379
15.9935 -42.8802 3.8742 0.8322
18.2400 -44.0352 4.0348 0.8259
20.6471 -45.2108 4.2074 0.8191
31.6686 -34.0144 3.9341 0.8298
39.1808 -1.3994 3.3189 0.8544
-46.2419 -11.8025 2.9594 0.8259
-39.0953 -14.5818 2.5874 0.8460
-39.5957 -19.8202 2.7458 0.8374
-32.7368 -17.8756 2.3129 0.8612
-36.2820 -21.5271 2.6161 0.8444
-36.0485 -23.1670 2.6572 0.8422
-31.2154 -23.3675 2.4180 0.8553
-34.4776 -29.8750 2.8289 0.8329
-3.8568 -15.1107 0.9671 0.9394
-0.0000 -47.1725 2.9252 0.8277
1.5825 -44.3099 2.7494 0.8372
2.9693 -41.5164 2.5810 0.8464
4.2310 -39.3542 2.4544 0.8533
8.5811 -39.4469 2.5033 0.8506
10.2933 -40.3288 2.5810 0.8464
13.9151 -41.8080 2.7323 0.8381
31.6444 -33.9885 2.8797 0.8302
48.9920 -5.2672 3.0555 0.8208
-46.2412 -11.8024 1.8818 0.8261
-20.9152 -6.1412 0.8595 0.9164
-39.0958 -14.5820 1.6453 0.8462
-43.3222 -17.9447 1.8490 0.8289
-32.7365 -17.8755 1.4707 0.8613
-36.1129 -23.2083 1.6927 0.8421
-3.3019 -15.1784 0.6125 0.9397
1.6006 -44.8161 1.7683 0.8357
2.9693 -41.5169 1.6412 0.8465
8.5812 -39.4474 1.5918 0.8508
4.7637 -18.6641 0.7595 0.9258
12.1176 -41.2689 1.6960 0.8418
13.9152 -41.8086 1.7375 0.8383
7.7365 -20.7423 0.8729 0.9152
14.5045 -24.4461 1.1208 0.8924
43.5923 -3.1178 1.7233 0.8395
39.1791 -1.3993 1.5458 0.8548
-46.2406 -11.8022 0.8062 0.8262
-42.2624 -17.5057 0.7727 0.8328
-35.7287 -16.3168 0.6635 0.8546
-38.7935 -19.4187 0.7328 0.8407
-32.7362 -17.8753 0.6300 0.8614
-36.2828 -21.5276 0.7126 0.8447
-36.0470 -23.1660 0.7238 0.8425
-30.4882 -21.1684 0.6270 0.8620
-31.2157 -23.3678 0.6587 0.8556
-34.4783 -29.8756 0.7706 0.8332
-35.9344 -33.4561 0.8293 0.8217
-3.2994 -15.1672 0.2622 0.9398
1.6006 -44.8171 0.7575 0.8358
4.2311 -39.3551 0.6686 0.8536
5.3790 -37.4121 0.6385 0.8597
4.7711 -18.6930 0.3259 0.9257
5.6754 -19.3287 0.3403 0.9226
13.9154 -41.8091 0.7443 0.8384
18.2408 -44.0371 0.8051 0.8264
47.9633 -5.1566 0.8149 0.8245
43.5946 -3.1180 0.7383 0.8396
-37.2562 -6.7217 -0.2131 0.8595
-46.2399 -11.8021 -0.2687 0.8262
-39.0968 -14.5823 -0.2349 0.8463
-42.3176 -17.5285 -0.2579 0.8326
-38.8474 -19.4456 -0.2446 0.8405
-32.7360 -17.8752 -0.2100 0.8614
-36.3590 -21.5728 -0.2380 0.8444
-30.2913 -21.0317 -0.2076 0.8629
-31.2159 -23.3679 -0.2195 0.8556
-32.7742 -26.4112 -0.2370 0.8450
-34.4787 -29.8759 -0.2569 0.8332
-35.9348 -33.4564 -0.2764 0.8217
-3.8595 -15.1212 -0.0879 0.9395
-3.2970 -15.1559 -0.0873 0.9398
-1.7138 -47.9859 -0.2703 0.8253
-0.0000 -46.0880 -0.2595 0.8316
2.9694 -41.5178 -0.2344 0.8466
4.2312 -39.3555 -0.2229 0.8536
10.2937 -40.3303 -0.2343 0.8466
15.9944 -42.8826 -0.2577 0.8327
14.4604 -24.3717 -0.1596 0.8928
31.6275 -33.9703 -0.2613 0.8306
48.9882 -5.2668 -0.2774 0.8211
39.1774 -1.3993 -0.2207 0.8549
-37.2554 -6.7216 -1.0660 0.8594
-20.9247 -6.1440 -0.6141 0.9164
-39.0973 -14.5825 -1.1750 0.8462
-35.7296 -16.3172 -1.1060 0.8546
-30.2777 -21.0223 -1.0379 0.8629
-32.7746 -26.4114 -1.1852 0.8450
4.2312 -39.3560 -1.1146 0.8535
6.9610 -38.5826 -1.1039 0.8548
10.2938 -40.3308 -1.1720 0.8466
5.6644 -19.2912 -0.5661 0.9227
15.9946 -42.8832 -1.2888 0.8326
19.8243 -43.4092 -1.3437 0.8262
24.8905 -38.7304 -1.2964 0.8317
31.6503 -33.9949 -1.3079 0.8304
43.5996 -3.1183 -1.2308 0.8395
39.1765 -1.3992 -1.1038 0.8548
-46.6724 -5.0178 -2.3806 0.8286
-32.5838 -4.6848 -1.6695 0.8765
-21.6414 -4.7078 -1.1232 0.9151
-45.8059 -11.6912 -2.3975 0.8275
-20.9278 -6.1450 -1.1061 0.9163
-39.0978 -14.5827 -2.1162 0.8461
-38.8473 -19.4456 -2.2031 0.8403
-32.7354 -17.8749 -1.8915 0.8612
-34.6716 -22.2820 -2.0901 0.8478
-31.2162 -23.3681 -1.9775 0.8554
-32.7749 -26.4117 -2.1347 0.8449
-34.4794 -29.8766 -2.3137 0.8330
-32.7462 -35.1718 -2.4371 0.8249
-14.2964 -26.1818 -1.5128 0.8874
-10.2740 -27.5456 -1.4910 0.8889
-9.3202 -28.0026 -1.4967 0.8885
-3.2921 -15.1334 -0.7854 0.9399
-6.7918 -47.2380 -2.4203 0.8260
-3.3963 -47.4870 -2.4144 0.8264
1.5721 -44.0171 -2.2337 0.8383
4.2249 -39.2972 -2.0044 0.8536
5.0976 -35.4549 -1.8166 0.8664
6.9467 -38.5029 -1.9842 0.8550
6.3654 -19.1251 -1.0222 0.9224
15.9713 -42.8209 -2.3178 0.8327
17.8199 -43.0209 -2.3615 0.8299
13.1242 -28.7378 -1.6022 0.8811
22.1756 -40.6117 -2.3466 0.8308
26.2156 -37.7576 -2.3311 0.8319
27.4844 -36.7149 -2.3259 0.8322
28.7365 -35.6598 -2.3226 0.8324
32.3988 -32.3988 -2.3237 0.8323
34.8850 -32.4792 -2.4172 0.8262
36.8847 -31.9608 -2.4751 0.8224
40.1168 -27.8536 -2.4768 0.8223
41.0957 -26.4106 -2.4774 0.8223
42.0233 -24.9336 -2.4781 0.8223
42.8982 -23.4242 -2.4788 0.8222
45.1967 -18.7211 -2.4810 0.8221
43.6215 -14.5186 -2.3316 0.8318
43.5390 -3.1140 -2.2137 0.8396
-28.4343 -1.0155 -2.0862 0.8922
-20.9310 -6.1459 -1.5995 0.9162
-30.2412 -11.2794 -2.3666 0.8786
-29.4139 -13.4329 -2.3709 0.8784
-21.1414 -10.5826 -1.7335 0.9095
-28.4272 -15.5224 -2.3748 0.8782
-27.8754 -16.5392 -2.3766 0.8781
-27.2861 -17.5357 -2.3782 0.8780
-25.9963 -19.4606 -2.3810 0.8779
-23.7998 -22.1584 -2.3843 0.8777
-23.0015 -23.0015 -2.3851 0.8777
-19.5082 -26.0599 -2.3868 0.8776
-18.5661 -26.7402 -2.3869 0.8776
-14.2966 -26.1823 -2.1873 0.8872
-10.2211 -24.6760 -1.9584 0.8984
-10.1212 -27.1361 -2.1236 0.8903
-9.3202 -28.0027 -2.1640 0.8884
-3.4595 -32.1780 -2.3730 0.8783
-2.3068 -32.2537 -2.3709 0.8784
2.2979 -32.1288 -2.3618 0.8788
6.2278 -24.4005 -1.8465 0.9039
12.1891 -29.4272 -2.3354 0.8801
12.9413 -28.3375 -2.2842 0.8825
14.2240 -28.4160 -2.3300 0.8803
13.4261 -24.5881 -2.0541 0.8937
15.2555 -23.7381 -2.0690 0.8930
18.1269 -26.1077 -2.3304 0.8803
19.0487 -25.4461 -2.3306 0.8803
20.0060 -24.8259 -2.3378 0.8800
22.1461 -25.5580 -2.4796 0.8732
23.0695 -24.7784 -2.4823 0.8730
23.9420 -23.9420 -2.4826 0.8730
24.7844 -23.0751 -2.4829 0.8730
25.5958 -22.1789 -2.4833 0.8730
27.8329 -19.3248 -2.4844 0.8729
28.5099 -18.3222 -2.4849 0.8729
29.1509 -17.2961 -2.4853 0.8729
32.2020 -10.7178 -2.4885 0.8727
30.8987 -7.8864 -2.3382 0.8799
31.1682 -6.7802 -2.3388 0.8799
31.8493 -2.2779 -2.3412 0.8798
31.9191 -1.1400 -2.3419 0.8798
-26.0899 -0.9318 -2.5063 0.9004
-25.2918 -1.8089 -2.4343 0.9031
-24.3729 -2.6204 -2.3534 0.9062
-24.2584 -3.4878 -2.3529 0.9062
-22.2511 -4.0145 -2.1707 0.9131
-22.6060 -9.3637 -2.3491 0.9064
-22.2523 -10.1623 -2.3486 0.9064
-21.4948 -11.7370 -2.3512 0.9063
-20.6249 -13.2548 -2.3537 0.9062
-19.6446 -14.7058 -2.3559 0.9061
-12.0254 -9.6906 -1.4827 0.9398
-17.9786 -16.7386 -2.3583 0.9060
-16.7465 -17.9870 -2.3594 0.9060
-16.0965 -18.5763 -2.3598 0.9059
-14.7330 -19.6810 -2.3602 0.9059
-14.0216 -20.1949 -2.3603 0.9059
-12.5444 -21.1424 -2.3602 0.9059
-11.7806 -21.5745 -2.3599 0.9059
-11.0014 -21.9780 -2.3596 0.9060
-9.4012 -22.6965 -2.3585 0.9060
-8.5826 -23.0108 -2.3578 0.9060
-6.9142 -23.5475 -2.3561 0.9061
-3.8631 -15.1353 -1.4996 0.9392
-3.2872 -15.1109 -1.4846 0.9397
-4.3513 -24.1174 -2.3528 0.9062
-3.4857 -24.2437 -2.3515 0.9063
-0.8726 -24.4305 -2.3469 0.9064
-0.0000 -24.4286 -2.3453 0.9065
0.7695 -21.5440 -2.0697 0.9170
1.7400 -24.3288 -2.3416 0.9066
2.6051 -24.2312 -2.3397 0.9067
6.0138 -23.5620 -2.3346 0.9069
5.6618 -19.2822 -1.9293 0.9224
6.3656 -19.1256 -1.9352 0.9222
10.1015 -22.1192 -2.3345 0.9069
11.6543 -21.3433 -2.3346 0.9069
12.4107 -20.9172 -2.3350 0.9069
13.9201 -21.6602 -2.4719 0.9017
14.7693 -21.2719 -2.4862 0.9012
15.5201 -20.7324 -2.4863 0.9012
16.2512 -20.1666 -2.4865 0.9012
18.3184 -18.3184 -2.4871 0.9011
18.9624 -17.6546 -2.4874 0.9011
20.7479 -15.5317 -2.4882 0.9011
21.8087 -14.0156 -2.4888 0.9011
22.2982 -13.2301 -2.4892 0.9011
23.1921 -11.6091 -2.4899 0.9010
24.6246 -8.1959 -2.4916 0.9010
24.9059 -7.3130 -2.4920 0.9009
25.1159 -6.4104 -2.4885 0.9011
23.8300 -5.1839 -2.3413 0.9067
24.1486 -3.4720 -2.3422 0.9066
24.2621 -2.6084 -2.3427 0.9066
18.7067 -1.3379 -1.8005 0.9274
24.3965 -0.8713 -2.3437 0.9066
-21.0830 -0.7530 -2.5060 0.9185
-20.9680 -2.2543 -2.5051 0.9186
-19.1852 -4.8967 -2.3520 0.9233
-18.9862 -5.5748 -2.3505 0.9234
-18.7716 -6.2478 -2.3501 0.9234
-18.2712 -7.5682 -2.3492 0.9234
-17.9861 -8.2140 -2.3488 0.9234
-17.6782 -8.8491 -2.3483 0.9235
-16.9957 -10.0840 -2.3475 0.9235
-15.8117 -11.8365 -2.3462 0.9235
-12.0259 -9.6911 -1.8346 0.9397
-14.4483 -13.4518 -2.3449 0.9236
-13.9566 -13.9565 -2.3445 0.9236
-13.4473 -14.4434 -2.3441 0.9236
-11.8260 -15.7977 -2.3441 0.9236
-10.5521 -16.4194 -2.3184 0.9244
-8.8312 -17.6425 -2.3436 0.9236
-8.1946 -17.9437 -2.3432 0.9236
-6.8907 -18.4746 -2.3422 0.9236
-4.1871 -14.2599 -1.7654 0.9419
-2.6335 -14.5965 -1.7618 0.9420
-2.1316 -14.8258 -1.7792 0.9414
-2.1046 -19.5754 -2.3387 0.9238
-0.7026 -19.6726 -2.3383 0.9238
0.7025 -19.6700 -2.3380 0.9238
2.8007 -19.4793 -2.3377 0.9238
4.8664 -19.0665 -2.3374 0.9238
5.5438 -18.8803 -2.3374 0.9238
6.2141 -18.6702 -2.3374 0.9238
8.6513 -18.9436 -2.4738 0.9195
9.3786 -18.7361 -2.4888 0.9191
10.6919 -18.0202 -2.4890 0.9191
11.3286 -17.6277 -2.4891 0.9191
11.9511 -17.2128 -2.4892 0.9191
12.5584 -16.7761 -2.4893 0.9191
13.1499 -16.3181 -2.4894 0.9190
14.2824 -15.3403 -2.4897 0.9190
15.8441 -13.7290 -2.4903 0.9190
17.2259 -11.9601 -2.4910 0.9190
18.0392 -10.7031 -2.4916 0.9190
18.4118 -10.0536 -2.4919 0.9190
18.7613 -9.3912 -2.4922 0.9190
19.0870 -8.7167 -2.4925 0.9190
19.6655 -7.3349 -2.4932 0.9189
19.9176 -6.6292 -2.4935 0.9189
20.1444 -5.9149 -2.4939 0.9189
20.3458 -5.1929 -2.4943 0.9189
20.5213 -4.4641 -2.4947 0.9189
19.5290 -2.8079 -2.3436 0.9236
19.6200 -2.1094 -2.3440 0.9236
17.2213 -0.6151 -2.0470 0.9329
-17.6841 0.0000 -2.5056 0.9310
-17.5749 -1.8895 -2.5045 0.9311
-17.4936 -2.5152 -2.5041 0.9311
-17.2643 -3.7556 -2.5034 0.9311
-16.9471 -4.9761 -2.5026 0.9311
-16.4990 -6.1538 -2.4950 0.9313
-15.8322 -6.5579 -2.4281 0.9331
-14.8219 -7.4193 -2.3485 0.9352
-13.9374 -8.9570 -2.3474 0.9353
-13.6068 -9.4474 -2.3471 0.9353
-12.0265 -9.6916 -2.1885 0.9395
-12.5134 -10.8429 -2.3460 0.9353
-10.8367 -12.5063 -2.3447 0.9353
-9.9143 -13.2439 -2.3441 0.9353
-9.4340 -13.5876 -2.3438 0.9354
-8.4386 -14.2224 -2.3432 0.9354
-6.8675 -15.0377 -2.3424 0.9354
-6.3257 -15.2716 -2.3421 0.9354
-4.7542 -12.7464 -1.9276 0.9465
-5.2191 -15.6807 -2.3416 0.9354
-4.1551 -14.1511 -2.0897 0.9422
-3.1220 -14.3517 -2.0810 0.9424
-2.6339 -14.5986 -2.1019 0.9418
-2.1352 -14.8509 -2.1259 0.9412
-1.7657 -16.4234 -2.3404 0.9354
-0.5895 -16.5054 -2.3401 0.9355
0.5894 -16.5036 -2.3399 0.9355
2.3499 -16.3439 -2.3396 0.9355
3.5540 -16.3377 -2.3690 0.9347
4.9436 -16.8362 -2.4862 0.9316
6.1435 -16.4714 -2.4909 0.9314
7.3030 -15.9913 -2.4909 0.9314
8.4254 -15.4300 -2.4910 0.9314
8.9710 -15.1198 -2.4910 0.9314
9.5052 -14.7904 -2.4911 0.9314
10.0274 -14.4422 -2.4912 0.9314
11.5154 -13.2894 -2.4915 0.9314
12.4355 -12.4355 -2.4918 0.9314
13.6965 -11.0373 -2.4923 0.9314
14.0828 -10.5423 -2.4926 0.9314
14.4514 -10.0338 -2.4928 0.9314
14.8016 -9.5125 -2.4930 0.9314
15.1332 -8.9789 -2.4932 0.9314
15.7383 -7.8781 -2.4937 0.9314
17.0652 -4.3556 -2.4955 0.9313
17.3370 -3.1279 -2.4961 0.9313
17.4189 -2.5045 -2.4934 0.9314
16.5438 -0.5909 -2.3456 0.9353
-15.2065 0.0000 -2.5051 0.9402
-15.1949 -0.5427 -2.5048 0.9402
-15.0439 -2.1630 -2.5038 0.9402
-14.8474 -3.2298 -2.5031 0.9403
-14.5753 -4.2797 -2.5025 0.9403
-14.2290 -5.3071 -2.5018 0.9403
-14.0286 -5.8108 -2.5015 0.9403
-13.5747 -6.7950 -2.5008 0.9403
-13.0295 -7.7308 -2.4959 0.9404
-12.6628 -8.1379 -2.4797 0.9408
-12.1243 -8.4181 -2.4316 0.9419
-11.1064 -8.9501 -2.3498 0.9438
-10.7648 -9.3277 -2.3465 0.9439
-10.4237 -9.7048 -2.3462 0.9439
-8.9322 -11.0841 -2.3451 0.9439
-8.5299 -11.3946 -2.3448 0.9439
-7.6936 -11.9714 -2.3443 0.9439
-6.8185 -12.4871 -2.3438 0.9440
-6.3678 -12.7213 -2.3436 0.9440
-5.9092 -12.9392 -2.3434 0.9440
-5.4430 -13.1406 -2.3431 0.9440
-4.7429 -12.7162 -2.2358 0.9465
-4.4909 -13.4931 -2.3427 0.9440
-3.0221 -13.8926 -2.3422 0.9440
-2.5242 -13.9906 -2.3420 0.9440
-2.0231 -14.0708 -2.3419 0.9440
-1.0140 -14.1776 -2.3416 0.9440
-0.0000 -14.5014 -2.3890 0.9429
1.0754 -15.0362 -2.4834 0.9407
1.6153 -15.0248 -2.4894 0.9406
2.1533 -14.9766 -2.4926 0.9405
3.2161 -14.7841 -2.4925 0.9405
4.2624 -14.5166 -2.4924 0.9405
4.7778 -14.3551 -2.4924 0.9405
5.2871 -14.1754 -2.4924 0.9405
5.7897 -13.9776 -2.4924 0.9405
6.7722 -13.5292 -2.4924 0.9405
7.7204 -13.0121 -2.4925 0.9405
9.0679 -12.1133 -2.4927 0.9405
9.4949 -11.7824 -2.4928 0.9405
10.3122 -11.0761 -2.4931 0.9405
12.1186 -9.0719 -2.4938 0.9405
12.4356 -8.6342 -2.4940 0.9405
13.2906 -7.2572 -2.4946 0.9405
13.5423 -6.7788 -2.4948 0.9405
13.9941 -5.7965 -2.4953 0.9404
14.1934 -5.2939 -2.4956 0.9404
14.3748 -4.7844 -2.4958 0.9404
14.5380 -4.2687 -2.4961 0.9404
14.6827 -3.7475 -2.4964 0.9404
15.0042 -2.1573 -2.4972 0.9404
15.0734 -1.6206 -2.4975 0.9404
14.2324 -0.5083 -2.3461 0.9439
-13.3156 -0.4756 -2.5044 0.9472
-13.2887 -0.9504 -2.5041 0.9472
-13.2448 -1.4240 -2.5038 0.9472
-13.1064 -2.3646 -2.5033 0.9472
-12.9013 -3.2929 -2.5027 0.9472
-12.4710 -4.6514 -2.5018 0.9473
-12.2956 -5.0930 -2.5015 0.9473
-11.8982 -5.9558 -2.5009 0.9473
-11.4403 -6.7878 -2.5003 0.9473
-10.9244 -7.5850 -2.4998 0.9473
-10.6455 -7.9691 -2.4995 0.9473
-9.7294 -9.0584 -2.4986 0.9473
-9.3920 -9.3920 -2.4965 0.9474
-9.0418 -9.7116 -2.4941 0.9474
-8.6817 -10.0192 -2.4919 0.9475
-7.8802 -10.5267 -2.4716 0.9479
-6.6199 -11.1573 -2.4385 0.9486
-5.3769 -11.7737 -2.4328 0.9487
-4.5453 -12.1864 -2.4447 0.9484
-4.1258 -12.3960 -2.4556 0.9482
-3.7018 -12.6073 -2.4697 0.9479
-2.8148 -12.9393 -2.4890 0.9475
-1.4186 -13.1949 -2.4944 0.9474
-0.9467 -13.2365 -2.4943 0.9474
-0.0000 -13.2691 -2.4941 0.9474
0.4736 -13.2601 -2.4940 0.9474
0.9465 -13.2343 -2.4939 0.9474
1.4183 -13.1917 -2.4938 0.9474
2.3556 -13.0562 -2.4937 0.9474
3.7376 -12.7290 -2.4936 0.9474
4.1895 -12.5874 -2.4935 0.9474
5.0768 -12.2564 -2.4935 0.9474
5.5110 -12.0675 -2.4936 0.9474
5.9383 -11.8632 -2.4936 0.9474
6.3580 -11.6439 -2.4936 0.9474
6.7697 -11.4097 -2.4937 0.9474
7.1728 -11.1611 -2.4937 0.9474
7.5668 -10.8982 -2.4938 0.9474
7.9512 -10.6215 -2.4939 0.9474
8.3255 -10.3313 -2.4939 0.9474
9.0420 -9.7119 -2.4941 0.9474
9.7128 -9.0429 -2.4944 0.9474
10.9034 -7.5704 -2.4950 0.9474
11.1675 -7.1769 -2.4951 0.9474
12.2691 -5.0820 -2.4961 0.9474
12.4437 -4.6413 -2.4963 0.9474
12.6026 -4.1945 -2.4966 0.9474
13.1535 -1.8912 -2.4978 0.9474
-11.8477 0.0000 -2.5044 0.9527
-11.7224 -1.6854 -2.5034 0.9527
-11.6536 -2.1025 -2.5031 0.9527
-11.4715 -2.9279 -2.5026 0.9527
-11.3585 -3.3352 -2.5023 0.9528
-11.2311 -3.7381 -2.5021 0.9528
-11.0893 -4.1361 -2.5018 0.9528
-10.5803 -5.2961 -2.5010 0.9528
-10.3835 -5.6698 -2.5008 0.9528
-10.1735 -6.0362 -2.5005 0.9528
-9.9505 -6.3948 -2.5002 0.9528
-9.7149 -6.7452 -2.5000 0.9528
-9.4670 -7.0869 -2.4997 0.9528
-8.9356 -7.7427 -2.4992 0.9528
-8.6527 -8.0559 -2.4990 0.9528
-8.3588 -8.3588 -2.4988 0.9528
-7.7398 -8.9321 -2.4983 0.9528
-7.0815 -9.4598 -2.4978 0.9528
-6.7388 -9.7057 -2.4976 0.9528
-6.0282 -10.1600 -2.4972 0.9528
-4.9065 -10.7437 -2.4966 0.9529
-4.5196 -10.9112 -2.4964 0.9529
-2.9200 -11.4403 -2.4958 0.9529
-2.5096 -11.5365 -2.4956 0.9529
-2.0961 -11.6181 -2.4955 0.9529
-1.2619 -11.7369 -2.4952 0.9529
-0.4213 -11.7959 -2.4950 0.9529
0.8420 -11.7721 -2.4948 0.9529
1.2616 -11.7343 -2.4947 0.9529
1.6795 -11.6815 -2.4946 0.9529
2.0954 -11.6138 -2.4946 0.9529
2.9185 -11.4344 -2.4945 0.9529
3.3247 -11.3229 -2.4945 0.9529
4.1239 -11.0567 -2.4944 0.9529
4.5160 -10.9025 -2.4944 0.9529
5.6557 -10.3576 -2.4945 0.9529
6.0218 -10.1493 -2.4946 0.9529
7.0727 -9.4481 -2.4947 0.9529
7.4057 -9.1899 -2.4948 0.9529
7.7292 -8.9200 -2.4949 0.9529
8.3465 -8.3465 -2.4951 0.9529
9.6983 -6.7337 -2.4957 0.9529
9.9331 -6.3836 -2.4959 0.9529
10.1553 -6.0254 -2.4960 0.9529
10.3645 -5.6595 -2.4962 0.9529
10.5607 -5.2863 -2.4964 0.9529
10.7434 -4.9064 -2.4965 0.9529
11.2089 -3.7307 -2.4971 0.9528
11.3359 -3.3285 -2.4973 0.9528
11.4484 -2.9220 -2.4975 0.9528
11.6297 -2.0982 -2.4980 0.9528
11.6983 -1.6820 -2.4982 0.9528
4.3520 -0.4679 -0.9252 0.9823
4.2860 -0.3065 -0.9083 0.9826
4.3539 -0.1555 -0.9209 0.9823
-10.6547 0.0000 -2.5041 0.9572
-10.6470 -0.3803 -2.5039 0.9572
-10.6256 -0.7600 -2.5036 0.9572
-10.5424 -1.5158 -2.5032 0.9572
-10.4807 -1.8909 -2.5030 0.9572
-10.4055 -2.2636 -2.5027 0.9572
-10.3171 -2.6333 -2.5025 0.9572
-10.1011 -3.3620 -2.5020 0.9572
-9.9737 -3.7200 -2.5018 0.9572
-9.8337 -4.0732 -2.5016 0.9572
-9.6811 -4.4212 -2.5013 0.9572
-9.3393 -5.0996 -2.5009 0.9572
-9.1505 -5.4292 -2.5006 0.9572
-8.9500 -5.7518 -2.5004 0.9572
-8.2817 -6.6738 -2.4997 0.9572
-8.0375 -6.9645 -2.4995 0.9572
-7.2451 -7.7817 -2.4988 0.9573
-6.3702 -8.5095 -2.4982 0.9573
-6.0619 -8.7308 -2.4980 0.9573
-5.4228 -9.1396 -2.4977 0.9573
-4.7563 -9.5018 -2.4973 0.9573
-4.4138 -9.6649 -2.4971 0.9573
-3.7126 -9.9538 -2.4968 0.9573
-2.9927 -10.1921 -2.4965 0.9573
-2.6268 -10.2919 -2.4964 0.9573
-2.2577 -10.3785 -2.4962 0.9573
-1.8857 -10.4520 -2.4961 0.9573
-1.5114 -10.5121 -2.4960 0.9573
-1.1352 -10.5589 -2.4959 0.9573
-0.3790 -10.6122 -2.4957 0.9573
-0.0000 -10.6186 -2.4956 0.9573
0.7575 -10.5909 -2.4955 0.9573
1.5110 -10.5093 -2.4953 0.9573
1.8851 -10.4485 -2.4953 0.9573
2.9911 -10.1868 -2.4952 0.9573
3.3528 -10.0735 -2.4952 0.9573
4.0628 -9.8086 -2.4952 0.9573
5.0882 -9.3183 -2.4952 0.9573
5.4176 -9.1309 -2.4953 0.9573
5.7402 -8.9319 -2.4953 0.9573
6.0554 -8.7215 -2.4954 0.9573
6.6625 -8.2677 -2.4955 0.9573
7.2358 -7.7718 -2.4957 0.9573
7.5089 -7.5089 -2.4958 0.9573
8.2696 -6.6641 -2.4961 0.9573
8.5026 -6.3650 -2.4962 0.9573
8.7248 -6.0577 -2.4963 0.9573
8.9360 -5.7428 -2.4965 0.9573
9.5003 -4.7555 -2.4969 0.9573
9.8167 -4.0662 -2.4972 0.9573
4.1904 -0.4505 -0.9905 0.9828
4.2330 -0.3027 -0.9974 0.9827
4.3538 -0.1555 -1.0239 0.9823
-9.6706 0.0000 -2.5039 0.9608
-9.6444 -0.6898 -2.5035 0.9608
-9.5130 -1.7163 -2.5029 0.9608
-9.4449 -2.0546 -2.5026 0.9608
-9.2727 -2.7227 -2.5022 0.9609
-9.1688 -3.0517 -2.5020 0.9609
-8.9262 -3.6974 -2.5016 0.9609
-8.6382 -4.3240 -2.5011 0.9609
-8.3063 -4.9284 -2.5007 0.9609
-8.1245 -5.2213 -2.5005 0.9609
-7.9323 -5.5075 -2.5003 0.9609
-6.8256 -6.8256 -2.4993 0.9609
-6.3203 -7.2940 -2.4989 0.9609
-6.0555 -7.5144 -2.4987 0.9609
-5.7830 -7.7252 -2.4986 0.9609
-4.6235 -8.4673 -2.4979 0.9609
-4.0071 -8.7744 -2.4976 0.9609
-3.6912 -8.9113 -2.4974 0.9609
-3.0457 -9.1509 -2.4971 0.9609
-2.3849 -9.3439 -2.4969 0.9609
-1.0307 -9.5865 -2.4964 0.9609
-0.3441 -9.6349 -2.4962 0.9609
-0.0000 -9.6408 -2.4962 0.9609
1.0305 -9.5848 -2.4960 0.9610
1.7116 -9.4865 -2.4959 0.9610
2.0490 -9.4192 -2.4958 0.9610
3.0441 -9.1460 -2.4958 0.9610
4.0043 -8.7682 -2.4958 0.9610
4.6197 -8.4604 -2.4958 0.9610
4.9188 -8.2902 -2.4959 0.9610
5.2117 -8.1095 -2.4959 0.9610
5.7771 -7.7174 -2.4960 0.9610
6.0491 -7.5064 -2.4961 0.9609
6.3133 -7.2859 -2.4961 0.9609
6.8174 -6.8174 -2.4963 0.9609
7.0567 -6.5700 -2.4964 0.9609
7.5080 -6.0503 -2.4966 0.9609
7.9212 -5.4998 -2.4968 0.9609
8.2942 -4.9212 -2.4971 0.9609
8.6251 -4.3174 -2.4974 0.9609
8.7742 -4.0071 -2.4975 0.9609
8.9122 -3.6916 -2.4977 0.9609
9.0389 -3.3713 -2.4978 0.9609
9.1540 -3.0467 -2.4980 0.9609
9.2576 -2.7183 -2.4981 0.9609
9.4292 -2.0512 -2.4985 0.9609
4.1458 -0.4457 -1.0796 0.9829
4.1775 -0.2988 -1.0844 0.9828
-8.8441 0.0000 -2.5037 0.9639
-8.8378 -0.3156 -2.5035 0.9639
-8.8202 -0.6308 -2.5033 0.9639
-8.7003 -1.5697 -2.5028 0.9639
-8.5648 -2.1860 -2.5024 0.9639
-8.4807 -2.4902 -2.5022 0.9639
-8.3857 -2.7910 -2.5020 0.9639
-8.2801 -3.0883 -2.5018 0.9639
-7.9007 -3.9548 -2.5012 0.9639
-7.7539 -4.2340 -2.5010 0.9639
-7.5973 -4.5077 -2.5008 0.9639
-7.2552 -5.0374 -2.5004 0.9639
-7.0703 -5.2928 -2.5002 0.9639
-6.6737 -5.7828 -2.4999 0.9640
-6.0160 -6.4617 -2.4993 0.9640
-5.5390 -6.8734 -2.4990 0.9640
-5.2897 -7.0663 -2.4988 0.9640
-4.7716 -7.4247 -2.4985 0.9640
-3.9498 -7.8908 -2.4981 0.9640
-3.6655 -8.0263 -2.4979 0.9640
-3.3765 -8.1515 -2.4978 0.9640
-3.0832 -8.2664 -2.4976 0.9640
-2.7861 -8.3708 -2.4975 0.9640
-2.4854 -8.4645 -2.4974 0.9640
-2.1816 -8.5474 -2.4973 0.9640
-1.2553 -8.7306 -2.4970 0.9640
-0.0000 -8.8192 -2.4966 0.9640
0.6291 -8.7963 -2.4965 0.9640
1.5657 -8.6781 -2.4964 0.9640
2.1808 -8.5441 -2.4963 0.9640
2.4843 -8.4608 -2.4963 0.9640
3.6631 -8.0211 -2.4963 0.9640
4.4997 -7.5838 -2.4964 0.9640
4.7675 -7.4185 -2.4964 0.9640
5.2848 -7.0597 -2.4965 0.9640
5.5336 -6.8667 -2.4966 0.9640
6.0097 -6.4548 -2.4967 0.9640
6.4552 -6.0100 -2.4969 0.9640
7.0615 -5.2862 -2.4971 0.9640
7.2460 -5.0310 -2.4972 0.9640
7.7434 -4.2282 -2.4976 0.9640
7.8898 -3.9493 -2.4977 0.9640
8.0261 -3.6654 -2.4979 0.9640
8.1523 -3.3768 -2.4980 0.9640
8.4680 -2.4864 -2.4985 0.9640
4.1954 -0.4511 -1.1945 0.9826
4.3084 -0.3081 -1.2228 0.9822
4.3009 -0.1536 -1.2183 0.9823
-8.1177 -0.5806 -2.5032 0.9665
-8.0074 -1.4447 -2.5027 0.9665
-7.8828 -2.0120 -2.5023 0.9665
-7.7181 -2.5688 -2.5020 0.9665
-7.5141 -3.1125 -2.5016 0.9665
-7.3977 -3.3784 -2.5014 0.9665
-7.2719 -3.6400 -2.5012 0.9665
-7.1368 -3.8970 -2.5011 0.9665
-6.6779 -4.6366 -2.5005 0.9665
-6.1428 -5.3228 -2.5000 0.9666
-5.9485 -5.5383 -2.4999 0.9666
-5.3214 -6.1412 -2.4994 0.9666
-5.0985 -6.3268 -2.4992 0.9666
-4.8691 -6.5043 -2.4991 0.9666
-4.6336 -6.6736 -2.4989 0.9666
-4.3922 -6.8343 -2.4988 0.9666
-4.1452 -6.9863 -2.4986 0.9666
-3.8930 -7.1294 -2.4985 0.9666
-3.3741 -7.3882 -2.4982 0.9666
-3.1081 -7.5036 -2.4981 0.9666
-2.8381 -7.6094 -2.4980 0.9666
-2.5646 -7.7055 -2.4979 0.9666
-2.2879 -7.7917 -2.4977 0.9666
-1.4417 -7.9907 -2.4974 0.9666
-0.8679 -8.0726 -2.4973 0.9666
-0.2898 -8.1135 -2.4971 0.9666
0.2898 -8.1131 -2.4970 0.9666
0.5791 -8.0974 -2.4969 0.9666
1.1553 -8.0351 -2.4968 0.9666
1.4413 -7.9887 -2.4968 0.9666
1.7255 -7.9320 -2.4968 0.9666
2.0075 -7.8653 -2.4968 0.9666
2.2869 -7.7886 -2.4967 0.9666
2.5635 -7.7020 -2.4967 0.9666
2.8367 -7.6056 -2.4967 0.9666
3.1064 -7.4995 -2.4967 0.9666
3.3721 -7.3838 -2.4967 0.9666
3.6335 -7.2588 -2.4968 0.9666
4.1422 -6.9813 -2.4968 0.9666
4.6298 -6.6682 -2.4969 0.9666
4.8649 -6.4988 -2.4969 0.9666
5.0939 -6.3211 -2.4970 0.9666
5.3164 -6.1354 -2.4970 0.9666
5.7409 -5.7409 -2.4972 0.9666
5.9423 -5.5325 -2.4972 0.9666
6.1362 -5.3170 -2.4973 0.9666
6.3222 -5.0948 -2.4974 0.9666
6.5003 -4.8661 -2.4975 0.9666
6.9841 -4.1439 -2.4978 0.9666
7.1279 -3.8921 -2.4979 0.9666
7.2626 -3.6354 -2.4980 0.9666
7.6108 -2.8387 -2.4984 0.9666
7.7077 -2.5654 -2.4986 0.9666
7.8719 -2.0092 -2.4989 0.9666
7.9391 -1.7270 -2.4990 0.9666
7.9962 -1.4427 -2.4992 0.9666
4.1860 -0.4500 -1.2949 0.9825
4.2182 -0.3017 -1.3007 0.9825
-7.5312 0.0000 -2.5034 0.9688
-7.5259 -0.2688 -2.5033 0.9688
-7.5111 -0.5372 -2.5031 0.9688
-7.4866 -0.8049 -2.5029 0.9688
-7.4526 -1.0715 -2.5028 0.9688
-7.4092 -1.3368 -2.5026 0.9688
-7.3562 -1.6002 -2.5024 0.9688
-7.2224 -2.1207 -2.5021 0.9688
-7.1416 -2.3770 -2.5019 0.9688
-6.8452 -3.1261 -2.5014 0.9688
-6.6039 -3.6060 -2.5011 0.9688
-5.5045 -5.1249 -2.5000 0.9688
-5.3178 -5.3178 -2.4998 0.9688
-5.1243 -5.5039 -2.4997 0.9688
-4.7180 -5.8547 -2.4994 0.9688
-4.2878 -6.1757 -2.4991 0.9688
-4.0645 -6.3244 -2.4990 0.9688
-3.8359 -6.4651 -2.4989 0.9688
-3.1224 -6.8371 -2.4985 0.9688
-2.8763 -6.9439 -2.4984 0.9688
-2.6265 -7.0418 -2.4983 0.9688
-1.0693 -7.4375 -2.4977 0.9688
-0.2682 -7.5085 -2.4975 0.9688
0.8031 -7.4696 -2.4973 0.9688
1.0691 -7.4361 -2.4972 0.9688
1.3339 -7.3931 -2.4972 0.9688
1.8578 -7.2789 -2.4971 0.9688
2.6252 -7.0386 -2.4971 0.9688
2.8748 -6.9404 -2.4971 0.9688
3.6003 -6.5934 -2.4971 0.9688
3.8334 -6.4608 -2.4972 0.9688
4.0616 -6.3199 -2.4972 0.9688
4.2846 -6.1710 -2.4972 0.9688
4.5022 -6.0143 -2.4973 0.9688
4.7141 -5.8498 -2.4973 0.9688
4.9200 -5.6780 -2.4974 0.9688
5.4992 -5.1199 -2.4976 0.9688
5.6786 -4.9205 -2.4977 0.9688
5.8508 -4.7149 -2.4977 0.9688
6.0156 -4.5032 -2.4978 0.9688
6.1727 -4.2858 -2.4979 0.9688
6.5963 -3.6018 -2.4982 0.9688
7.0430 -2.6269 -2.4987 0.9688
7.1327 -2.3740 -2.4988 0.9688
7.2846 -1.8593 -2.4991 0.9688
7.4429 -1.0701 -2.4995 0.9688
4.2217 -0.4539 -1.4114 0.9823
4.1840 -0.2992 -1.3943 0.9825
4.2143 -0.1505 -1.4017 0.9824
-7.0001 0.0000 -2.5033 0.9707
-6.9953 -0.2498 -2.5031 0.9707
-6.9815 -0.4993 -2.5030 0.9707
-6.9588 -0.7481 -2.5029 0.9707
-6.8377 -1.4874 -2.5024 0.9707
-6.7798 -1.7304 -2.5022 0.9707
-6.7133 -1.9712 -2.5021 0.9707
-6.4630 -2.6770 -2.5016 0.9707
-6.3629 -2.9058 -2.5015 0.9707
-6.2547 -3.1309 -2.5013 0.9707
-6.1386 -3.3519 -2.5012 0.9707
-6.0147 -3.5687 -2.5010 0.9707
-5.7441 -3.9882 -2.5007 0.9707
-4.7634 -5.1163 -2.4998 0.9707
-4.5775 -5.2827 -2.4997 0.9707
-4.3858 -5.4425 -2.4996 0.9707
-4.1886 -5.5952 -2.4994 0.9707
-3.9860 -5.7409 -2.4993 0.9707
-3.7783 -5.8792 -2.4992 0.9707
-3.5659 -6.0100 -2.4991 0.9707
-3.1278 -6.2485 -2.4988 0.9708
-2.4416 -6.5462 -2.4985 0.9708
-1.9682 -6.7032 -2.4983 0.9708
-1.4849 -6.8260 -2.4981 0.9708
-0.9941 -6.9141 -2.4980 0.9708
-0.7467 -6.9450 -2.4979 0.9708
0.4982 -6.9664 -2.4976 0.9708
0.7466 -6.9441 -2.4976 0.9708
0.9939 -6.9129 -2.4975 0.9708
1.2400 -6.8730 -2.4975 0.9708
2.6726 -6.4521 -2.4974 0.9708
3.1261 -6.2451 -2.4974 0.9708
3.3470 -6.1296 -2.4975 0.9708
4.1855 -5.5911 -2.4976 0.9708
4.3824 -5.4383 -2.4976 0.9708
4.5738 -5.2785 -2.4977 0.9708
4.7594 -5.1120 -2.4977 0.9708
4.9390 -4.9390 -2.4978 0.9708
5.4391 -4.3831 -2.4980 0.9708
5.7383 -3.9842 -2.4982 0.9708
5.8771 -3.7770 -2.4983 0.9708
6.4556 -2.6740 -2.4988 0.9708
6.5472 -2.4420 -2.4989 0.9708
6.7054 -1.9689 -2.4991 0.9707
6.7718 -1.7284 -2.4993 0.9707
6.8785 -1.2410 -2.4995 0.9707
4.2900 -0.4612 -1.5430 0.9818
-6.5320 0.0000 -2.5032 0.9724
-6.5147 -0.4659 -2.5029 0.9724
-6.4935 -0.6981 -2.5028 0.9724
-6.4265 -1.1594 -2.5025 0.9724
-6.1946 -2.0618 -2.5019 0.9724
-6.0310 -2.4981 -2.5016 0.9724
-5.9377 -2.7117 -2.5015 0.9724
-5.6129 -3.3303 -2.5011 0.9724
-5.4901 -3.5283 -2.5009 0.9724
-5.3604 -3.7218 -2.5008 0.9724
-4.7751 -4.4458 -2.5002 0.9724
-4.6131 -4.6131 -2.5001 0.9724
-4.4453 -4.7746 -2.5000 0.9724
-4.2718 -4.9300 -2.4998 0.9724
-3.9089 -5.2216 -2.4996 0.9724
-3.7198 -5.3576 -2.4995 0.9724
-2.9190 -5.8314 -2.4990 0.9725
-2.7089 -5.9316 -2.4989 0.9725
-2.4953 -6.0242 -2.4988 0.9725
-2.2786 -6.1092 -2.4987 0.9725
-2.0590 -6.1864 -2.4986 0.9725
-1.6123 -6.3171 -2.4984 0.9725
-1.1575 -6.4157 -2.4983 0.9725
-0.9278 -6.4527 -2.4982 0.9725
-0.4650 -6.5021 -2.4981 0.9725
-0.0000 -6.5184 -2.4980 0.9725
0.6968 -6.4807 -2.4978 0.9725
1.1573 -6.4144 -2.4978 0.9725
1.8363 -6.2538 -2.4977 0.9725
2.0583 -6.1842 -2.4977 0.9725
2.2777 -6.1068 -2.4977 0.9725
2.7076 -5.9288 -2.4977 0.9725
2.9175 -5.8284 -2.4977 0.9725
3.1237 -5.7206 -2.4978 0.9725
3.3259 -5.6055 -2.4978 0.9725
3.5239 -5.4833 -2.4978 0.9725
3.7174 -5.3541 -2.4978 0.9725
4.0900 -5.0754 -2.4979 0.9725
4.2686 -4.9263 -2.4980 0.9725
4.7711 -4.4420 -2.4981 0.9725
5.6073 -3.3270 -2.4986 0.9725
5.7227 -3.1248 -2.4987 0.9725
5.8308 -2.9187 -2.4988 0.9725
6.1102 -2.2790 -2.4991 0.9725
6.3196 -1.6130 -2.4994 0.9724
6.4568 -0.9283 -2.4998 0.9724
4.2617 -0.4582 -1.6426 0.9818
4.2856 -0.3065 -1.6465 0.9818
-6.1159 0.0000 -2.5031 0.9739
-6.0800 -0.6537 -2.5027 0.9739
-6.0172 -1.0856 -2.5024 0.9739
-5.9743 -1.2996 -2.5023 0.9739
-5.9238 -1.5120 -2.5022 0.9739
-5.8657 -1.7223 -2.5020 0.9739
-5.5597 -2.5390 -2.5015 0.9739
-5.4652 -2.7357 -2.5014 0.9739
-5.3638 -2.9289 -2.5012 0.9739
-5.2556 -3.1183 -2.5011 0.9739
-5.1407 -3.3037 -2.5010 0.9739
-5.0192 -3.4849 -2.5008 0.9739
-4.8914 -3.6617 -2.5007 0.9739
-4.7573 -3.8337 -2.5006 0.9739
-4.0001 -4.6163 -2.5000 0.9739
-3.6602 -4.8895 -2.4997 0.9739
-3.4832 -5.0168 -2.4996 0.9739
-3.3018 -5.1377 -2.4995 0.9739
-2.7333 -5.4605 -2.4992 0.9740
-2.5366 -5.5543 -2.4991 0.9740
-2.3366 -5.6411 -2.4990 0.9740
-1.9281 -5.7930 -2.4988 0.9740
-1.7201 -5.8580 -2.4987 0.9740
-0.4355 -6.0887 -2.4983 0.9740
-0.2179 -6.1002 -2.4983 0.9740
-0.0000 -6.1040 -2.4982 0.9740
0.2179 -6.1000 -2.4982 0.9740
0.4354 -6.0882 -2.4981 0.9740
0.8686 -6.0415 -2.4981 0.9740
1.2974 -5.9640 -2.4980 0.9740
1.5094 -5.9139 -2.4980 0.9740
1.9275 -5.7911 -2.4980 0.9740
2.1329 -5.7186 -2.4980 0.9740
2.7320 -5.4579 -2.4980 0.9740
2.9251 -5.3569 -2.4980 0.9740
3.1145 -5.2491 -2.4980 0.9740
3.2999 -5.1347 -2.4981 0.9740
3.4811 -5.0137 -2.4981 0.9740
4.1594 -4.4675 -2.4983 0.9740
4.7533 -3.8305 -2.4985 0.9740
5.0148 -3.4818 -2.4986 0.9740
5.1360 -3.3007 -2.4987 0.9740
5.2507 -3.1154 -2.4988 0.9740
5.4600 -2.7331 -2.4990 0.9740
5.6415 -2.3368 -2.4992 0.9740
5.7943 -1.9285 -2.4994 0.9740
5.8597 -1.7206 -2.4995 0.9740
5.9680 -1.2983 -2.4997 0.9739
4.3965 -0.1570 -1.8005 0.9812
-5.7433 0.0000 -2.5030 0.9753
-5.7281 -0.4097 -2.5028 0.9753
-5.7095 -0.6138 -2.5027 0.9753
-5.6837 -0.8172 -2.5025 0.9753
-5.4469 -1.8129 -2.5019 0.9753
-5.1325 -2.5691 -2.5014 0.9753
-5.0372 -2.7505 -2.5013 0.9753
-4.7136 -3.2727 -2.5009 0.9753
-4.4677 -3.6003 -2.5007 0.9753
-4.3362 -3.7573 -2.5005 0.9753
-4.1991 -3.9095 -2.5004 0.9753
-4.0567 -4.0567 -2.5003 0.9753
-3.9091 -4.1987 -2.5002 0.9753
-3.7566 -4.3354 -2.5001 0.9753
-3.4375 -4.5919 -2.4999 0.9753
-3.2712 -4.7115 -2.4997 0.9753
-2.5670 -5.1283 -2.4993 0.9753
-2.3823 -5.2164 -2.4993 0.9753
-2.0039 -5.3727 -2.4991 0.9753
-1.8108 -5.4406 -2.4990 0.9753
-1.6154 -5.5016 -2.4989 0.9753
-1.4180 -5.5556 -2.4988 0.9753
-1.0180 -5.6423 -2.4987 0.9753
-0.4090 -5.7184 -2.4985 0.9753
-0.2046 -5.7292 -2.4985 0.9753
-0.0000 -5.7328 -2.4984 0.9753
0.2046 -5.7290 -2.4984 0.9753
0.4090 -5.7180 -2.4984 0.9753
0.6128 -5.6997 -2.4983 0.9753
0.8158 -5.6741 -2.4983 0.9753
1.2185 -5.6013 -2.4982 0.9753
2.0032 -5.3708 -2.4982 0.9753
2.3813 -5.2142 -2.4982 0.9753
2.5659 -5.1259 -2.4982 0.9753
2.7472 -5.0311 -2.4982 0.9753
2.9250 -4.9299 -2.4983 0.9753
3.0992 -4.8224 -2.4983 0.9753
3.4354 -4.5891 -2.4983 0.9753
3.7541 -4.3325 -2.4984 0.9753
3.9065 -4.1958 -2.4985 0.9753
4.3329 -3.7544 -2.4986 0.9753
4.4642 -3.5975 -2.4987 0.9753
4.5899 -3.4360 -2.4988 0.9753
4.8236 -3.0999 -2.4989 0.9753
5.0328 -2.7481 -2.4991 0.9753
5.2164 -2.3822 -2.4992 0.9753
5.4417 -1.8112 -2.4995 0.9753
5.5031 -1.6159 -2.4996 0.9753
5.6780 -0.8164 -2.5000 0.9753
4.4034 -0.1573 -1.9203 0.9810
-5.4073 0.0000 -2.5029 0.9764
-5.3512 -0.7694 -2.5025 0.9765
-5.2376 -1.3368 -2.5021 0.9765
-5.1863 -1.5228 -2.5020 0.9765
-5.1284 -1.7069 -2.5019 0.9765
-4.7427 -2.5897 -2.5013 0.9765
-4.5455 -2.9212 -2.5011 0.9765
-4.4381 -3.0814 -2.5009 0.9765
-3.9537 -3.6810 -2.5005 0.9765
-3.8196 -3.8196 -2.5004 0.9765
-3.3890 -4.2055 -2.5001 0.9765
-3.2366 -4.3236 -2.5000 0.9765
-3.0801 -4.4362 -2.4999 0.9765
-2.5879 -4.7395 -2.4996 0.9765
-2.2431 -4.9117 -2.4994 0.9765
-2.0663 -4.9884 -2.4993 0.9765
-1.5211 -5.1802 -2.4991 0.9765
-0.9585 -5.3127 -2.4989 0.9765
-0.5771 -5.3673 -2.4988 0.9765
-0.1927 -5.3946 -2.4987 0.9765
0.1927 -5.3944 -2.4986 0.9765
0.7682 -5.3427 -2.4985 0.9765
0.9584 -5.3118 -2.4985 0.9765
1.1473 -5.2742 -2.4984 0.9765
1.7045 -5.1213 -2.4984 0.9765
2.5868 -4.7373 -2.4984 0.9765
2.7542 -4.6420 -2.4985 0.9765
3.9509 -3.6784 -2.4988 0.9765
4.3218 -3.2353 -2.4989 0.9765
4.4346 -3.0790 -2.4990 0.9765
4.5418 -2.9189 -2.4991 0.9765
4.6432 -2.7550 -2.4991 0.9765
4.7388 -2.5876 -2.4992 0.9765
4.8283 -2.4169 -2.4993 0.9765
4.9887 -2.0664 -2.4995 0.9765
5.1238 -1.7054 -2.4996 0.9765
5.2773 -1.1480 -2.4999 0.9765
5.3152 -0.9590 -2.5000 0.9765
4.2949 -0.4617 -1.9995 0.9811
4.2931 -0.3071 -1.9923 0.9812
4.4116 -0.1576 -2.0434 0.9807
-5.1025 0.0000 -2.5029 0.9775
-5.0890 -0.3640 -2.5027 0.9775
-5.0726 -0.5454 -2.5026 0.9775
-4.8941 -1.4370 -2.5020 0.9775
-4.8394 -1.6107 -2.5019 0.9775
-4.7118 -1.9517 -2.5017 0.9775
-4.2894 -2.7566 -2.5011 0.9775
-4.1881 -2.9079 -2.5010 0.9775
-4.0815 -3.0554 -2.5009 0.9775
-3.8528 -3.3384 -2.5007 0.9775
-3.7310 -3.4737 -2.5006 0.9775
-3.4734 -3.7307 -2.5004 0.9775
-3.3379 -3.8521 -2.5003 0.9775
-2.7553 -4.2873 -2.4999 0.9776
-2.6004 -4.3828 -2.4998 0.9776
-2.4422 -4.4726 -2.4997 0.9776
-2.2810 -4.5568 -2.4996 0.9776
-2.1168 -4.6352 -2.4995 0.9776
-1.9500 -4.7076 -2.4995 0.9776
-1.6091 -4.8344 -2.4993 0.9776
-1.4354 -4.8887 -2.4992 0.9776
-1.2600 -4.9366 -2.4992 0.9776
-0.9046 -5.0137 -2.4990 0.9776
-0.7250 -5.0427 -2.4990 0.9776
-0.5446 -5.0652 -2.4989 0.9776
-0.3634 -5.0814 -2.4989 0.9776
-0.1818 -5.0910 -2.4988 0.9776
-0.0000 -5.0942 -2.4988 0.9776
0.5445 -5.0648 -2.4987 0.9776
1.4351 -4.8874 -2.4986 0.9776
1.6086 -4.8331 -2.4986 0.9776
2.1160 -4.6334 -2.4986 0.9776
2.4412 -4.4707 -2.4986 0.9776
3.1964 -3.9664 -2.4988 0.9776
3.6022 -3.6022 -2.4989 0.9776
3.9669 -3.1967 -2.4990 0.9776
4.3819 -2.5999 -2.4993 0.9776
4.4720 -2.4419 -2.4994 0.9776
4.7746 -1.7808 -2.4997 0.9776
4.8898 -1.4358 -2.4998 0.9776
5.0452 -0.7254 -2.5002 0.9775
4.2972 -0.3073 -2.1133 0.9810
4.4205 -0.1579 -2.1697 0.9805
-4.8244 0.0000 -2.5028 0.9785
-4.8212 -0.1722 -2.5027 0.9785
-4.8117 -0.3441 -2.5026 0.9785
-4.7745 -0.6865 -2.5024 0.9785
-4.7468 -0.8564 -2.5023 0.9785
-4.7130 -1.0252 -2.5022 0.9785
-4.6732 -1.1928 -2.5021 0.9785
-4.6275 -1.3587 -2.5020 0.9785
-4.5184 -1.6853 -2.5018 0.9785
-4.3118 -2.1583 -2.5015 0.9785
-4.2318 -2.3107 -2.5013 0.9785
-4.0558 -2.6065 -2.5011 0.9785
-3.7535 -3.0248 -2.5008 0.9785
-3.6430 -3.1567 -2.5007 0.9785
-3.5279 -3.2846 -2.5006 0.9785
-3.4083 -3.4083 -2.5005 0.9785
-3.2843 -3.5276 -2.5004 0.9785
-3.1562 -3.6425 -2.5003 0.9785
-2.8881 -3.8580 -2.5002 0.9785
-2.7485 -3.9585 -2.5001 0.9785
-2.6053 -4.0540 -2.5000 0.9785
-2.3093 -4.2292 -2.4998 0.9785
-2.1568 -4.3088 -2.4997 0.9785
-2.0016 -4.3829 -2.4997 0.9785
-1.8438 -4.4514 -2.4996 0.9785
-1.1914 -4.6680 -2.4993 0.9785
-0.6856 -4.7683 -2.4991 0.9785
-0.3436 -4.8049 -2.4990 0.9785
-0.1719 -4.8140 -2.4990 0.9785
-0.0000 -4.8170 -2.4990 0.9785
0.1719 -4.8139 -2.4989 0.9785
1.0239 -4.7066 -2.4988 0.9785
1.1912 -4.6671 -2.4988 0.9785
1.5211 -4.5702 -2.4988 0.9785
1.6832 -4.5129 -2.4988 0.9785
2.1560 -4.3072 -2.4988 0.9785
2.4578 -4.1424 -2.4988 0.9785
2.7471 -3.9566 -2.4989 0.9785
2.8866 -3.8561 -2.4989 0.9785
3.1545 -3.6404 -2.4990 0.9785
3.6407 -3.1547 -2.4991 0.9785
3.8566 -2.8870 -2.4992 0.9785
4.0530 -2.6047 -2.4994 0.9785
4.3085 -2.1567 -2.4996 0.9785
4.4517 -1.8439 -2.4997 0.9785
4.5722 -1.5218 -2.4999 0.9785
4.6237 -1.3576 -2.4999 0.9785
4.6694 -1.1918 -2.5000 0.9785
4.7091 -1.0244 -2.5001 0.9785
4.7428 -0.8557 -2.5002 0.9785
4.7705 -0.6859 -2.5003 0.9785
4.3401 -0.3104 -2.2573 0.9806
4.4399 -0.1586 -2.3048 0.9802
-4.5428 -0.4884 -2.5025 0.9794
-4.5223 -0.6502 -2.5024 0.9794
-4.4961 -0.8112 -2.5023 0.9794
-4.4641 -0.9711 -2.5022 0.9794
-4.4264 -1.1298 -2.5021 0.9794
-4.0084 -2.1887 -2.5014 0.9794
-3.6555 -2.7365 -2.5010 0.9794
-3.5554 -2.8651 -2.5009 0.9794
-3.4507 -2.9901 -2.5008 0.9794
-3.3417 -3.1112 -2.5007 0.9794
-2.8645 -3.5546 -2.5003 0.9794
-2.4678 -3.8400 -2.5001 0.9794
-2.0430 -4.0814 -2.4998 0.9794
-1.8960 -4.1516 -2.4998 0.9794
-1.7466 -4.2165 -2.4997 0.9794
-1.5949 -4.2761 -2.4996 0.9794
-1.4412 -4.3302 -2.4996 0.9794
-1.2857 -4.3787 -2.4995 0.9794
-0.6494 -4.5168 -2.4993 0.9794
-0.4878 -4.5370 -2.4992 0.9794
-0.3255 -4.5514 -2.4992 0.9794
0.1629 -4.5599 -2.4991 0.9794
0.3255 -4.5511 -2.4990 0.9794
0.6493 -4.5162 -2.4990 0.9794
1.4409 -4.3291 -2.4989 0.9794
1.5944 -4.2749 -2.4989 0.9794
2.0423 -4.0800 -2.4989 0.9794
2.1866 -4.0045 -2.4990 0.9794
2.4668 -3.8384 -2.4990 0.9794
2.6022 -3.7479 -2.4990 0.9794
2.7344 -3.6527 -2.4990 0.9794
3.3397 -3.1094 -2.4992 0.9794
3.4486 -2.9882 -2.4993 0.9794
3.6531 -2.7347 -2.4994 0.9794
3.7485 -2.6026 -2.4994 0.9794
3.9248 -2.3287 -2.4995 0.9794
4.0055 -2.1872 -2.4996 0.9794
4.1516 -1.8960 -2.4997 0.9794
4.2167 -1.7466 -2.4998 0.9794
4.3309 -1.4415 -2.5000 0.9794
-4.3319 -0.1547 -2.5026 0.9802
-4.2901 -0.6168 -2.5023 0.9802
-4.2348 -0.9212 -2.5022 0.9802
-4.1991 -1.0718 -2.5021 0.9802
-4.1116 -1.3685 -2.5019 0.9802
-4.0600 -1.5143 -2.5018 0.9802
-3.8026 -2.0764 -2.5014 0.9802
-3.7259 -2.2107 -2.5013 0.9802
-3.5584 -2.4707 -2.5011 0.9802
-3.3729 -2.7180 -2.5009 0.9802
-3.2736 -2.8366 -2.5008 0.9802
-2.8362 -3.2731 -2.5005 0.9802
-2.5953 -3.4669 -2.5003 0.9802
-2.4698 -3.5572 -2.5002 0.9802
-2.0752 -3.8005 -2.5000 0.9802
-1.9382 -3.8720 -2.4999 0.9802
-1.7987 -3.9386 -2.4999 0.9802
-1.2198 -4.1541 -2.4996 0.9802
-0.9203 -4.2303 -2.4995 0.9802
-0.7687 -4.2604 -2.4995 0.9802
-0.4628 -4.3042 -2.4994 0.9802
-0.3088 -4.3179 -2.4993 0.9802
0.0000 -4.3288 -2.4992 0.9802
0.1545 -4.3260 -2.4992 0.9802
0.4627 -4.3039 -2.4992 0.9802
0.6160 -4.2846 -2.4991 0.9802
0.9201 -4.2296 -2.4991 0.9802
1.3669 -4.1070 -2.4991 0.9802
1.5127 -4.0556 -2.4991 0.9802
1.6565 -3.9990 -2.4991 0.9802
1.9375 -3.8707 -2.4991 0.9802
2.0745 -3.7991 -2.4991 0.9802
2.2087 -3.7227 -2.4991 0.9802
2.8348 -3.2715 -2.4992 0.9802
2.9498 -3.1683 -2.4993 0.9802
3.0610 -3.0610 -2.4993 0.9802
3.1684 -2.9499 -2.4993 0.9802
3.3709 -2.7164 -2.4994 0.9802
3.4657 -2.5944 -2.4995 0.9802
3.6421 -2.3407 -2.4996 0.9802
3.7235 -2.2092 -2.4997 0.9802
3.8718 -1.9381 -2.4998 0.9802
3.9386 -1.7987 -2.4998 0.9802
4.0004 -1.6570 -2.4999 0.9802
4.0571 -1.5132 -2.5000 0.9802
4.1086 -1.3675 -2.5001 0.9802
4.1549 -1.2200 -2.5001 0.9802
4.1960 -1.0710 -2.5002 0.9802
4.2868 -0.6164 -2.5005 0.9802
4.3062 -0.4630 -2.5005 0.9802
4.3286 -0.1546 -2.5007 0.9802
