ply
format ascii 1.0
element vertex 1257
property float32 x
property float32 y
property float32 z
property float32 I
end_header
-26.2606 -35.0801 7.7267 0.8370
-24.3155 -35.0210 7.5176 0.8410
-21.9522 -34.1582 7.1596 0.8480
-18.2152 -33.3586 6.7018 0.8569
-16.5161 -32.9950 6.5061 0.8608
-14.9115 -32.6516 6.3293 0.8643
-13.3899 -32.3260 6.1696 0.8675
-10.5574 -31.7198 5.8947 0.8730
-9.2731 -31.5815 5.8038 0.8749
-7.9906 -31.3070 5.6972 0.8770
-5.5532 -30.7793 5.5148 0.8807
-2.1393 -29.9115 5.2877 0.8853
1.0439 -29.2281 5.1570 0.8880
2.2004 -30.7663 5.4388 0.8822
3.3907 -31.5386 5.5932 0.8791
4.6523 -32.3572 5.7641 0.8757
5.8563 -32.4594 5.8159 0.8746
21.8325 -9.0433 4.1668 0.9085
-28.6896 -35.6017 7.0045 0.8311
-21.9534 -34.1602 6.2206 0.8485
-14.9814 -32.8046 5.5247 0.8642
-9.2710 -36.3234 5.7429 0.8592
-3.7915 -35.2658 5.4337 0.8663
-1.2401 -34.7219 5.3226 0.8688
-0.0000 -34.5948 5.2997 0.8694
1.0439 -29.2293 4.4806 0.8884
2.6734 -37.3797 5.7410 0.8593
4.0054 -37.2561 5.7403 0.8593
5.8566 -32.4609 5.0531 0.8750
43.5563 -21.8027 7.4619 0.8211
21.8510 -9.0510 3.6232 0.9087
42.2440 -4.5417 6.5088 0.8420
-23.8782 -31.8975 5.1886 0.8515
-22.8401 -32.8960 5.2150 0.8508
-21.6559 -33.6973 5.2161 0.8508
-20.2975 -34.2096 5.1799 0.8518
-16.8130 -33.5881 4.8912 0.8594
-17.2191 -37.7046 5.3977 0.8460
-13.3912 -32.3292 4.5568 0.8684
-5.1130 -35.5620 4.6785 0.8651
-2.1395 -29.9140 3.9054 0.8861
-1.2406 -34.7350 4.5261 0.8692
1.0439 -29.2305 3.8089 0.8887
4.7407 -44.0952 5.7752 0.8362
4.6874 -32.6017 4.2891 0.8756
5.8568 -32.4624 4.2955 0.8754
12.1503 -47.6043 6.3978 0.8202
13.8163 -47.0541 6.3861 0.8205
43.5554 -21.8023 6.3427 0.8216
43.7926 -19.9994 6.2692 0.8235
21.8693 -9.0586 3.0825 0.9089
42.1679 -4.5335 5.5228 0.8428
-32.2262 -34.6134 5.0784 0.8267
-31.7834 -36.6800 5.2117 0.8226
-27.5990 -36.8680 4.9453 0.8309
-24.3080 -35.0102 4.5768 0.8424
-20.2980 -34.2104 4.2715 0.8521
-21.3974 -39.1864 4.7944 0.8356
-16.8134 -33.5890 4.0335 0.8598
-17.5184 -38.3599 4.5284 0.8440
-13.3918 -32.3307 3.7578 0.8687
-9.3310 -31.7783 3.5565 0.8753
-6.7225 -30.9029 3.3960 0.8805
-5.1150 -35.5758 3.8595 0.8654
-2.1396 -29.9152 3.2206 0.8863
-1.2411 -34.7480 3.7337 0.8695
-0.0000 -21.7328 2.3337 0.9163
4.6875 -32.6025 3.5369 0.8759
3.2435 -12.7080 1.4084 0.9486
15.5574 -46.7424 5.2900 0.8202
10.0571 -18.4183 2.2534 0.9190
43.5544 -21.8018 5.2302 0.8221
43.7955 -20.0008 5.1700 0.8239
-24.3085 -35.0110 3.6081 0.8427
-21.9569 -34.1656 3.4380 0.8496
-20.2985 -34.2113 3.3675 0.8524
-16.8139 -33.5898 3.1798 0.8600
-14.0362 -37.6324 3.4001 0.8511
-6.7228 -30.9042 2.6773 0.8808
-5.5792 -30.9236 2.6600 0.8815
-5.1170 -35.5895 3.0437 0.8656
-3.7915 -35.2664 3.0026 0.8673
-0.0000 -34.4545 2.9167 0.8708
2.5428 -35.5527 3.0173 0.8667
5.8574 -32.4653 2.7926 0.8760
2.7610 -12.6922 1.0996 0.9492
43.6362 -23.8272 4.2087 0.8191
43.5534 -21.8013 4.1230 0.8224
43.7984 -20.0021 4.0760 0.8242
21.9057 -9.0737 2.0072 0.9092
-45.0312 -3.2207 2.7995 0.8345
-24.3091 -35.0117 2.6431 0.8430
-21.3623 -33.2404 2.4502 0.8535
-21.3056 -39.0183 2.7568 0.8368
-17.4411 -38.1908 2.6035 0.8451
-13.9830 -37.4899 2.4812 0.8518
-10.5598 -31.7271 2.0735 0.8746
-9.3316 -31.7805 2.0539 0.8757
-6.7231 -30.9055 1.9613 0.8809
1.5365 -21.4837 1.3356 0.9173
4.6878 -32.6042 2.0426 0.8763
5.8576 -32.4667 2.0458 0.8762
3.2450 -12.7137 0.8137 0.9488
13.8180 -47.0597 3.0414 0.8215
17.2761 -46.3190 3.0655 0.8203
19.0303 -45.9433 3.0837 0.8193
30.6613 -15.3480 2.1262 0.8716
43.8013 -20.0034 2.9860 0.8245
21.9239 -9.0812 1.4715 0.9093
41.9931 -4.5147 2.6190 0.8443
-45.6919 0.0001 1.8017 0.8328
-21.0777 -18.2639 1.0997 0.8944
-28.9803 -33.4450 1.7450 0.8377
-19.0705 -25.4752 1.2548 0.8804
-18.0933 -26.0593 1.2509 0.8807
-20.2995 -34.2129 1.5686 0.8528
-16.8147 -33.5915 1.4812 0.8604
-17.4621 -38.2366 1.6575 0.8451
-13.3938 -32.3354 1.3801 0.8693
-10.5603 -31.7286 1.3186 0.8747
-9.3319 -31.7815 1.3061 0.8758
-5.1175 -35.5929 1.4179 0.8659
-3.7962 -35.3099 1.4003 0.8675
-1.2416 -34.7627 1.3716 0.8700
1.0441 -29.2352 1.1535 0.8895
4.6879 -32.6050 1.2989 0.8765
5.8579 -32.4682 1.3009 0.8763
2.7636 -12.7040 0.5126 0.9493
3.2457 -12.7165 0.5175 0.9488
15.5506 -46.7221 1.9415 0.8211
14.4134 -38.6437 1.6263 0.8478
13.2916 -29.1045 1.2616 0.8798
43.8042 -20.0047 1.8988 0.8247
21.9421 -9.0887 0.9365 0.9093
41.9600 -4.5112 1.6641 0.8446
-36.2548 -21.5109 0.7121 0.8448
-21.0518 -18.2415 0.4705 0.8945
-31.8158 -36.7174 0.8207 0.8234
-28.7002 -35.6147 0.7726 0.8328
-24.3101 -35.0133 0.7200 0.8432
-21.9606 -34.1713 0.6861 0.8500
-20.2999 -34.2137 0.6720 0.8529
-21.3078 -39.0224 0.7510 0.8371
-16.8151 -33.5924 0.6346 0.8605
-17.4429 -38.1945 0.7093 0.8454
-13.9683 -37.4504 0.6752 0.8522
-10.5608 -31.7300 0.5649 0.8748
-5.1118 -35.5535 0.6067 0.8662
-2.1399 -29.9202 0.5067 0.8869
-1.2402 -34.7243 0.5869 0.8702
5.8582 -32.4696 0.5573 0.8763
2.7649 -12.7100 0.2197 0.9493
3.2464 -12.7194 0.2217 0.9488
14.4528 -38.7495 0.6987 0.8475
24.5863 -26.4076 0.6095 0.8656
43.5507 -21.7999 0.8227 0.8230
33.2663 -8.4907 0.5799 0.8717
41.9271 -4.5076 0.7123 0.8448
-36.2295 -21.4960 -0.2372 0.8449
-31.8164 -36.7181 -0.2735 0.8234
-21.9618 -34.1732 -0.2287 0.8500
-16.8156 -33.5932 -0.2115 0.8605
-13.3950 -32.3384 -0.1971 0.8693
-13.9999 -37.5352 -0.2255 0.8519
-10.5613 -31.7314 -0.1883 0.8748
-9.3325 -31.7836 -0.1865 0.8759
-9.3147 -36.4948 -0.2121 0.8601
-3.7982 -35.3284 -0.2001 0.8675
-2.1399 -29.9198 -0.1689 0.8869
-0.0000 -34.5364 -0.1944 0.8710
2.3875 -33.3822 -0.1884 0.8747
15.5461 -46.7085 -0.2770 0.8213
14.4537 -38.7520 -0.2329 0.8475
43.5498 -21.7995 -0.2742 0.8230
21.9783 -9.1037 -0.1339 0.9092
32.0289 -5.7787 -0.1832 0.8779
41.8942 -4.5041 -0.2372 0.8449
-21.0003 -18.1969 -0.7824 0.8948
-28.7038 -35.6192 -1.2881 0.8327
-24.3112 -35.0148 -1.2003 0.8432
-16.8160 -33.5941 -1.0578 0.8604
-13.3957 -32.3400 -0.9857 0.8693
-10.5617 -31.7329 -0.9417 0.8747
-9.3328 -31.7847 -0.9328 0.8759
-9.3151 -36.4964 -1.0606 0.8601
-6.7242 -30.9109 -0.8907 0.8811
-5.5804 -30.9301 -0.8850 0.8818
-3.7984 -35.3299 -1.0005 0.8675
2.3934 -33.4635 -0.9447 0.8744
3.2479 -12.7250 -0.3698 0.9488
24.5885 -26.4100 -1.0161 0.8655
21.9965 -9.1113 -0.6704 0.9091
41.8614 -4.5006 -1.1855 0.8450
-48.7639 -3.4876 -2.4793 0.8222
-48.5470 -5.2193 -2.4762 0.8224
-48.2695 -6.9401 -2.4731 0.8226
-47.9320 -8.6478 -2.4701 0.8228
-47.5350 -10.3406 -2.4671 0.8230
-47.0792 -12.0162 -2.4641 0.8232
-45.9947 -15.3085 -2.4584 0.8235
-35.2386 -20.9080 -2.0780 0.8486
-25.3002 -23.5553 -1.7531 0.8707
-31.0349 -33.3338 -2.3098 0.8333
-29.8694 -34.4711 -2.3132 0.8330
-28.6619 -35.5673 -2.3166 0.8328
-19.0734 -25.4791 -1.6141 0.8803
-20.3014 -34.2161 -2.0177 0.8527
-21.3111 -39.0284 -2.2551 0.8369
-16.8164 -33.5949 -1.9053 0.8603
-17.4454 -38.2001 -2.1298 0.8452
-13.3963 -32.3415 -1.7753 0.8692
-13.9702 -37.4556 -2.0274 0.8521
-1.2418 -34.7683 -1.7644 0.8699
-0.0000 -34.5391 -1.7516 0.8708
1.0443 -29.2398 -1.4838 0.8894
2.3681 -33.1101 -1.6834 0.8755
2.7688 -12.7278 -0.6606 0.9492
14.8329 -44.5659 -2.3820 0.8285
14.4244 -38.6733 -2.0933 0.8476
17.9851 -43.4198 -2.3834 0.8284
19.5281 -42.7606 -2.3840 0.8284
21.0453 -42.0432 -2.3844 0.8284
20.0375 -28.8595 -1.7818 0.8687
19.7039 -26.3213 -1.6675 0.8766
20.1353 -24.9864 -1.6274 0.8794
21.5602 -23.1573 -1.6046 0.8810
22.5418 -22.5418 -1.6167 0.8801
23.8051 -22.1634 -1.6495 0.8779
25.5660 -22.1531 -1.7156 0.8733
30.9744 -24.9608 -2.0174 0.8527
29.6992 -20.6205 -1.8336 0.8652
39.3956 -25.3179 -2.3749 0.8290
41.5745 -18.9865 -2.3179 0.8327
22.0148 -9.1188 -1.2084 0.9090
44.1789 -14.7042 -2.3613 0.8299
32.7928 -7.1336 -1.7020 0.8742
32.0191 -5.7769 -1.6500 0.8778
41.0998 -4.4187 -2.0964 0.8474
46.3886 -3.3178 -2.3586 0.8301
46.5387 -1.6622 -2.3617 0.8298
-33.8216 -2.4189 -2.4862 0.8728
-33.0192 -7.1829 -2.4777 0.8733
-30.5919 -13.9708 -2.4659 0.8738
-30.0517 -15.0428 -2.4641 0.8739
-29.4746 -16.0944 -2.4623 0.8740
-27.2016 -17.4814 -2.3708 0.8784
-25.1822 -18.8511 -2.3064 0.8815
-21.6783 -17.4695 -2.0414 0.8943
-22.1928 -22.1928 -2.3012 0.8817
-21.3919 -22.9766 -2.3018 0.8817
-18.8704 -25.2079 -2.3088 0.8814
-17.9763 -25.8908 -2.3111 0.8812
-13.0983 -20.3813 -1.7764 0.9074
-16.1144 -27.1593 -2.3155 0.8810
-15.1489 -27.7432 -2.3177 0.8809
-14.1621 -28.2923 -2.3198 0.8808
-13.1551 -28.8057 -2.3219 0.8807
-10.0262 -30.1239 -2.3279 0.8804
-7.8642 -30.8119 -2.3316 0.8803
-5.5809 -30.9327 -2.3047 0.8816
-4.5354 -31.5446 -2.3367 0.8800
-0.0000 -31.9491 -2.3426 0.8797
1.2533 -11.6578 -0.8597 0.9541
4.3236 -30.0708 -2.2275 0.8853
5.6864 -31.5175 -2.3482 0.8795
2.7701 -12.7337 -0.9555 0.9491
9.0321 -30.7604 -2.3506 0.8793
11.2093 -30.0534 -2.3519 0.8793
12.2774 -29.6403 -2.3523 0.8793
14.3644 -28.6965 -2.3530 0.8792
16.3774 -27.6028 -2.3533 0.8792
17.1967 -26.7587 -2.3322 0.8802
20.1354 -24.9866 -2.3529 0.8792
22.5426 -22.5426 -2.3375 0.8800
23.4689 -21.8503 -2.3511 0.8793
24.2270 -20.9928 -2.3505 0.8794
17.4840 -13.0883 -1.6014 0.9161
26.3041 -18.2633 -2.3480 0.8795
21.9718 -10.0342 -1.7711 0.9077
22.4230 -8.3634 -1.7547 0.9085
30.6593 -9.0024 -2.3429 0.8797
30.9892 -7.9095 -2.3450 0.8796
31.2804 -6.8046 -2.3472 0.8795
31.7440 -4.5641 -2.3515 0.8793
33.9155 -3.6463 -2.5011 0.8721
34.1233 -2.4406 -2.5084 0.8718
-25.7688 -2.7704 -2.4882 0.9011
-25.6365 -3.6860 -2.4865 0.9012
-24.4967 -8.1533 -2.4787 0.9015
-23.8243 -9.8683 -2.4757 0.9016
-23.0334 -11.5297 -2.4729 0.9017
-22.5949 -12.3377 -2.4715 0.9017
-20.5674 -15.3965 -2.4665 0.9019
-19.5455 -15.7507 -2.4099 0.9041
-18.2189 -15.7867 -2.3144 0.9077
-16.4070 -17.6224 -2.3116 0.9078
-15.7619 -18.1902 -2.3108 0.9078
-14.4145 -19.2555 -2.3092 0.9079
-13.7140 -19.7519 -2.3085 0.9079
-10.7768 -21.5294 -2.3114 0.9078
-6.1518 -13.4707 -1.4217 0.9422
-7.0894 -19.0075 -1.9476 0.9217
-7.6233 -22.9043 -2.3175 0.9076
-6.8051 -23.1761 -2.3190 0.9075
-5.1405 -23.6304 -2.3217 0.9074
-4.2962 -23.8121 -2.3230 0.9073
-1.2439 -17.3912 -1.6739 0.9323
-0.6275 -17.5701 -1.6879 0.9318
0.4242 -11.8763 -1.1409 0.9534
1.2576 -11.6978 -1.1295 0.9538
3.4573 -24.0458 -2.3323 0.9070
4.3147 -23.9147 -2.3330 0.9070
2.7714 -12.7397 -1.2517 0.9490
4.7241 -16.0887 -1.6098 0.9348
8.5023 -22.7956 -2.3358 0.9069
9.3120 -22.4811 -2.3361 0.9068
10.8945 -21.7644 -2.3367 0.9068
13.8823 -19.9944 -2.3369 0.9068
11.0440 -14.7531 -1.7693 0.9286
11.7400 -14.5684 -1.7963 0.9276
16.5807 -17.8089 -2.3361 0.9069
17.2032 -17.2031 -2.3357 0.9069
17.8030 -16.5752 -2.3353 0.9069
18.3795 -15.9259 -2.3348 0.9069
12.0957 -9.7473 -1.4914 0.9395
19.9609 -13.8591 -2.3330 0.9070
20.9030 -12.4023 -2.3334 0.9069
21.7631 -10.8938 -2.3365 0.9068
21.2621 -9.7101 -2.2441 0.9103
21.0590 -8.7229 -2.1883 0.9125
21.1440 -7.8863 -2.1665 0.9133
23.6782 -6.0435 -2.3461 0.9065
25.3839 -5.5219 -2.4940 0.9009
25.6426 -4.6265 -2.5016 0.9006
25.8094 -3.7108 -2.5033 0.9005
26.0447 -1.8628 -2.5068 0.9004
26.1128 -0.9326 -2.5085 0.9003
-20.9265 -1.4967 -2.4921 0.9190
-20.8484 -2.2414 -2.4908 0.9190
-20.7440 -2.9825 -2.4894 0.9190
-20.6134 -3.7191 -2.4881 0.9191
-20.4568 -4.4501 -2.4868 0.9191
-19.8338 -6.6013 -2.4830 0.9192
-19.2937 -7.9917 -2.4807 0.9193
-18.9873 -8.6712 -2.4795 0.9194
-18.3039 -9.9947 -2.4773 0.9194
-17.9278 -10.6371 -2.4762 0.9195
-17.1093 -11.8792 -2.4742 0.9195
-16.6679 -12.4774 -2.4732 0.9196
-16.2059 -13.0595 -2.4723 0.9196
-15.2222 -14.1724 -2.4706 0.9196
-12.2416 -15.1908 -2.3174 0.9244
-11.1211 -16.0174 -2.3163 0.9245
-9.9458 -16.7628 -2.3153 0.9245
-7.4776 -13.6942 -1.8534 0.9391
-8.7215 -17.4234 -2.3145 0.9245
-6.8064 -18.2488 -2.3136 0.9245
-5.4864 -18.6848 -2.3132 0.9246
-4.8165 -18.8708 -2.3135 0.9245
-3.4612 -19.1839 -2.3156 0.9245
-2.7754 -19.3036 -2.3166 0.9244
-1.2866 -17.9885 -2.1422 0.9299
-0.6969 -19.5130 -2.3193 0.9244
0.4242 -11.8768 -1.4117 0.9533
3.4732 -19.2509 -2.3237 0.9242
2.7727 -12.7458 -1.5494 0.9488
4.8380 -16.4767 -2.0398 0.9332
6.8427 -18.3459 -2.3259 0.9242
9.3873 -17.1916 -2.3267 0.9241
10.5903 -16.4788 -2.3268 0.9241
11.1561 -14.9028 -2.2113 0.9278
12.2898 -15.2507 -2.3266 0.9241
14.3533 -13.3634 -2.3295 0.9240
15.7223 -11.7696 -2.3329 0.9239
16.5388 -10.6288 -2.3353 0.9239
17.2730 -9.4318 -2.3377 0.9238
18.2118 -7.5436 -2.3415 0.9237
20.1726 -5.9232 -2.4974 0.9188
20.3826 -5.2023 -2.4988 0.9188
20.5668 -4.4740 -2.5002 0.9187
20.8571 -2.9988 -2.5030 0.9186
20.9627 -2.2537 -2.5044 0.9186
-17.6158 0.0000 -2.4960 0.9313
-17.5965 -0.6284 -2.4948 0.9313
-17.5547 -1.2555 -2.4937 0.9314
-17.4908 -1.8804 -2.4925 0.9314
-17.4047 -2.5024 -2.4914 0.9314
-17.0151 -4.3428 -2.4881 0.9315
-16.6479 -5.5409 -2.4860 0.9316
-14.3692 -9.9767 -2.4786 0.9318
-13.9994 -10.4798 -2.4778 0.9318
-13.2080 -11.4448 -2.4763 0.9318
-11.8991 -12.7805 -2.4742 0.9319
-11.4325 -13.1938 -2.4736 0.9319
-10.9353 -13.5699 -2.4693 0.9320
-10.2194 -13.6515 -2.4162 0.9334
-8.3578 -14.0864 -2.3208 0.9360
-7.4780 -13.6950 -2.2109 0.9389
-7.3294 -14.6423 -2.3201 0.9360
-6.1268 -13.4158 -2.0897 0.9422
-5.7204 -15.3369 -2.3193 0.9360
-5.1689 -15.5301 -2.3191 0.9360
-4.0474 -15.8577 -2.3189 0.9360
-2.9057 -16.1054 -2.3188 0.9360
-2.3291 -16.1990 -2.3188 0.9360
-1.7494 -16.2722 -2.3189 0.9360
-0.5842 -16.3571 -2.3191 0.9360
1.2577 -11.6987 -1.6671 0.9536
1.9134 -13.3081 -1.9050 0.9471
2.9081 -16.1185 -2.3207 0.9360
2.7740 -12.7518 -1.8491 0.9486
3.2515 -12.7393 -1.8629 0.9483
5.7295 -15.3614 -2.3230 0.9359
7.8657 -14.4049 -2.3255 0.9358
8.3773 -14.1192 -2.3262 0.9358
8.8787 -13.8155 -2.3269 0.9358
10.3150 -12.8002 -2.3292 0.9357
10.7692 -12.4283 -2.3301 0.9357
11.2100 -12.0404 -2.3309 0.9357
12.0497 -11.2187 -2.3327 0.9357
12.0988 -9.7498 -2.2016 0.9392
13.8790 -8.9195 -2.3376 0.9355
14.7258 -8.0409 -2.3773 0.9345
15.6173 -7.8175 -2.4746 0.9319
16.0032 -7.3084 -2.4927 0.9314
16.7206 -5.5652 -2.4969 0.9313
16.9165 -4.9671 -2.4981 0.9313
17.0911 -4.3622 -2.4993 0.9312
17.2440 -3.7512 -2.5004 0.9312
17.3751 -3.1348 -2.5016 0.9312
17.4842 -2.5139 -2.5028 0.9311
17.6357 -1.2613 -2.5052 0.9311
17.6778 -0.6314 -2.5063 0.9310
-15.1559 0.0000 -2.4968 0.9404
-15.1403 -0.5407 -2.4958 0.9404
-15.1053 -1.0803 -2.4948 0.9405
-14.9781 -2.1535 -2.4929 0.9405
-14.7751 -3.2141 -2.4910 0.9405
-14.3311 -4.7698 -2.4882 0.9406
-14.1468 -5.2765 -2.4874 0.9406
-13.9446 -5.7760 -2.4865 0.9406
-13.4880 -6.7516 -2.4848 0.9407
-13.2342 -7.2264 -2.4840 0.9407
-12.6772 -8.1471 -2.4825 0.9407
-12.0568 -9.0256 -2.4811 0.9408
-11.3762 -9.8575 -2.4798 0.9408
-10.6388 -10.6388 -2.4786 0.9408
-9.0090 -12.0346 -2.4765 0.9409
-8.1248 -12.6424 -2.4757 0.9409
-6.4098 -12.8052 -2.3590 0.9436
-5.3978 -13.0315 -2.3237 0.9444
-4.9289 -13.2148 -2.3235 0.9444
-4.4538 -13.3814 -2.3233 0.9444
-3.9731 -13.5312 -2.3232 0.9444
-2.9975 -13.7793 -2.3231 0.9444
-2.5037 -13.8774 -2.3231 0.9444
-1.0060 -14.0664 -2.3232 0.9444
-0.5034 -14.0940 -2.3233 0.9444
-0.0000 -12.0308 -1.9819 0.9524
0.4242 -11.8777 -1.9580 0.9530
2.6208 -12.0478 -2.0312 0.9512
3.0539 -11.9651 -2.0343 0.9512
5.4059 -13.0511 -2.3272 0.9443
6.3261 -12.6380 -2.3282 0.9443
7.6467 -11.8985 -2.3300 0.9443
8.0688 -11.6212 -2.3307 0.9443
8.4809 -11.3291 -2.3314 0.9442
8.8825 -11.0225 -2.3321 0.9442
9.6523 -10.3673 -2.3335 0.9442
10.0194 -10.0194 -2.3343 0.9442
10.3741 -9.6587 -2.3351 0.9442
12.7071 -8.1663 -2.4884 0.9406
13.0079 -7.7180 -2.4917 0.9405
13.5357 -6.7755 -2.4936 0.9405
13.7744 -6.2905 -2.4946 0.9405
13.9956 -5.7972 -2.4956 0.9404
14.7018 -3.7524 -2.4996 0.9403
14.8324 -3.2266 -2.5006 0.9403
14.9442 -2.6962 -2.5016 0.9403
15.1107 -1.6246 -2.5037 0.9402
-13.2868 0.0000 -2.4974 0.9474
-13.2737 -0.4741 -2.4965 0.9474
-13.2437 -0.9472 -2.4957 0.9474
-13.1969 -1.4188 -2.4948 0.9474
-13.1334 -1.8883 -2.4939 0.9474
-13.0532 -2.3551 -2.4931 0.9474
-12.9566 -2.8185 -2.4923 0.9475
-12.8435 -3.2781 -2.4915 0.9475
-12.7143 -3.7333 -2.4907 0.9475
-12.2310 -5.0663 -2.4884 0.9475
-11.8315 -5.9224 -2.4869 0.9476
-11.3726 -6.7477 -2.4855 0.9476
-10.8566 -7.5379 -2.4842 0.9476
-10.5780 -7.9186 -2.4836 0.9476
-10.2862 -8.2891 -2.4830 0.9477
-9.9815 -8.6490 -2.4825 0.9477
-9.6643 -8.9978 -2.4819 0.9477
-8.9942 -9.6604 -2.4809 0.9477
-7.9058 -10.5609 -2.4796 0.9477
-7.5227 -10.8347 -2.4792 0.9477
-7.1302 -11.0947 -2.4789 0.9477
-6.7287 -11.3407 -2.4786 0.9477
-6.3189 -11.5722 -2.4783 0.9478
-5.9012 -11.7891 -2.4780 0.9478
-5.4762 -11.9911 -2.4778 0.9478
-4.0833 -12.2684 -2.4304 0.9487
-2.6308 -12.0938 -2.3263 0.9509
-2.1975 -12.1799 -2.3263 0.9509
-1.7614 -12.2506 -2.3263 0.9509
-1.3230 -12.3059 -2.3264 0.9509
-0.8830 -12.3456 -2.3264 0.9509
-0.0000 -12.0114 -2.2577 0.9523
2.1695 -12.0248 -2.2967 0.9515
2.5980 -11.9428 -2.2973 0.9515
3.0273 -11.8608 -2.3008 0.9514
3.8926 -11.6954 -2.3168 0.9511
4.3311 -11.6120 -2.3295 0.9508
5.5508 -11.0890 -2.3308 0.9508
6.3305 -10.6695 -2.3319 0.9508
6.7089 -10.4392 -2.3324 0.9507
7.0789 -10.1956 -2.3330 0.9507
7.4402 -9.9390 -2.3336 0.9507
7.7922 -9.6696 -2.3342 0.9507
10.0049 -8.6693 -2.4883 0.9475
11.1540 -7.1682 -2.4921 0.9475
11.8682 -5.9408 -2.4946 0.9474
12.2703 -5.0825 -2.4964 0.9474
12.6104 -4.1971 -2.4981 0.9473
13.0006 -2.8281 -2.5008 0.9473
13.0979 -2.3631 -2.5016 0.9473
13.1786 -1.8948 -2.5025 0.9473
13.3199 -0.4757 -2.5052 0.9472
-11.8058 -0.4216 -2.4971 0.9529
-11.7796 -0.8425 -2.4963 0.9529
-11.6824 -1.6797 -2.4948 0.9529
-11.5259 -2.5073 -2.4933 0.9529
-11.3112 -3.3213 -2.4919 0.9529
-11.0393 -4.1174 -2.4905 0.9530
-10.8824 -4.5076 -2.4898 0.9530
-10.7117 -4.8919 -2.4892 0.9530
-10.3302 -5.6407 -2.4879 0.9530
-9.8968 -6.3603 -2.4867 0.9530
-9.6613 -6.7079 -2.4862 0.9531
-8.3083 -8.3083 -2.4837 0.9531
-7.6918 -8.8768 -2.4828 0.9531
-7.3689 -9.1443 -2.4824 0.9531
-6.3466 -9.8755 -2.4814 0.9531
-4.1002 -10.9930 -2.4801 0.9532
-3.7050 -11.1318 -2.4799 0.9532
-3.3052 -11.2565 -2.4798 0.9532
-2.4933 -11.4616 -2.4794 0.9532
-2.0804 -11.5308 -2.4767 0.9532
-1.6659 -11.5863 -2.4743 0.9533
-1.2496 -11.6233 -2.4711 0.9533
-0.4087 -11.4436 -2.4205 0.9543
0.7997 -11.1813 -2.3695 0.9552
1.1928 -11.0949 -2.3588 0.9554
1.5828 -11.0087 -2.3509 0.9555
2.3572 -10.8358 -2.3440 0.9557
3.9098 -10.4826 -2.3649 0.9553
4.3043 -10.3914 -2.3775 0.9551
5.1078 -10.2042 -2.4121 0.9544
5.5191 -10.1075 -2.4343 0.9540
5.9382 -10.0084 -2.4599 0.9535
7.0444 -9.4102 -2.4847 0.9531
7.7073 -8.8947 -2.4878 0.9530
8.3264 -8.3264 -2.4891 0.9530
8.6205 -8.0260 -2.4897 0.9530
8.9039 -7.7153 -2.4904 0.9530
9.1761 -7.3946 -2.4911 0.9530
9.4368 -7.0643 -2.4918 0.9529
9.9224 -6.3768 -2.4932 0.9529
10.1467 -6.0203 -2.4939 0.9529
10.3582 -5.6560 -2.4947 0.9529
10.5567 -5.2843 -2.4954 0.9529
10.7418 -4.9056 -2.4962 0.9529
11.6468 -2.1013 -2.5017 0.9528
11.7181 -1.6848 -2.5025 0.9528
11.8423 -0.4230 -2.5048 0.9527
-10.5969 -0.7579 -2.4969 0.9573
-10.5602 -1.1353 -2.4962 0.9573
-10.5100 -1.5111 -2.4955 0.9573
-10.2801 -2.6238 -2.4935 0.9573
-9.9332 -3.7049 -2.4916 0.9574
-9.7923 -4.0561 -2.4910 0.9574
-9.6390 -4.4020 -2.4904 0.9574
-9.4736 -4.7421 -2.4899 0.9574
-8.4721 -6.3421 -2.4872 0.9574
-8.2388 -6.6392 -2.4868 0.9575
-7.9951 -6.9278 -2.4863 0.9575
-7.4779 -7.4779 -2.4855 0.9575
-7.2051 -7.7389 -2.4851 0.9575
-6.9233 -7.9899 -2.4847 0.9575
-6.3339 -8.4611 -2.4840 0.9575
-6.0271 -8.6808 -2.4837 0.9575
-5.7128 -8.8893 -2.4834 0.9575
-5.3913 -9.0866 -2.4832 0.9575
-5.0631 -9.2724 -2.4829 0.9575
-4.7285 -9.4464 -2.4827 0.9575
-4.0420 -9.7582 -2.4824 0.9575
-3.6909 -9.8957 -2.4822 0.9575
-3.3352 -10.0207 -2.4821 0.9575
-2.6117 -10.2325 -2.4820 0.9575
-2.2448 -10.3190 -2.4819 0.9575
-1.8750 -10.3925 -2.4819 0.9575
-1.5029 -10.4528 -2.4819 0.9575
-1.1289 -10.5000 -2.4820 0.9575
1.1292 -10.5031 -2.4827 0.9575
1.8759 -10.3976 -2.4831 0.9575
2.2461 -10.3251 -2.4834 0.9575
2.9776 -10.1409 -2.4840 0.9575
3.3381 -10.0295 -2.4843 0.9575
3.6945 -9.9053 -2.4846 0.9575
4.0463 -9.7686 -2.4850 0.9575
4.3930 -9.6194 -2.4854 0.9575
4.7344 -9.4581 -2.4858 0.9575
5.0698 -9.2847 -2.4862 0.9575
5.3989 -9.0994 -2.4867 0.9575
6.0367 -8.6945 -2.4876 0.9574
6.9358 -8.0044 -2.4892 0.9574
7.7571 -7.2221 -2.4909 0.9574
8.4909 -6.3562 -2.4928 0.9574
8.7146 -6.0507 -2.4934 0.9573
9.1288 -5.4164 -2.4947 0.9573
9.3188 -5.0885 -2.4954 0.9573
9.6634 -4.4131 -2.4967 0.9573
9.8174 -4.0665 -2.4974 0.9573
9.9591 -3.7146 -2.4981 0.9573
10.0882 -3.3577 -2.4988 0.9573
10.3078 -2.6309 -2.5002 0.9572
10.3981 -2.2620 -2.5010 0.9572
10.5390 -1.5153 -2.5024 0.9572
10.6497 -0.3804 -2.5045 0.9572
-9.6501 0.0000 -2.4986 0.9609
-9.6415 -0.3443 -2.4979 0.9609
-9.6206 -0.6881 -2.4973 0.9609
-9.4849 -1.7113 -2.4955 0.9610
-9.3342 -2.3824 -2.4943 0.9610
-8.2706 -4.9072 -2.4900 0.9610
-8.0886 -5.1982 -2.4895 0.9611
-7.8964 -5.4826 -2.4890 0.9611
-7.4826 -6.0298 -2.4881 0.9611
-7.0311 -6.5461 -2.4873 0.9611
-6.5442 -7.0290 -2.4866 0.9611
-6.2883 -7.2571 -2.4863 0.9611
-5.4746 -7.8849 -2.4854 0.9611
-5.1891 -8.0744 -2.4851 0.9611
-4.8971 -8.2537 -2.4849 0.9611
-4.5990 -8.4225 -2.4847 0.9611
-4.2951 -8.5806 -2.4845 0.9611
-3.9859 -8.7278 -2.4843 0.9611
-3.6716 -8.8640 -2.4841 0.9611
-3.0296 -9.1025 -2.4839 0.9611
-2.7027 -9.2045 -2.4838 0.9611
-2.3724 -9.2949 -2.4838 0.9611
-2.0391 -9.3735 -2.4837 0.9611
-1.3652 -9.4951 -2.4837 0.9611
-1.0254 -9.5379 -2.4838 0.9611
-0.6844 -9.5686 -2.4838 0.9611
-0.3424 -9.5873 -2.4839 0.9611
3.0320 -9.1097 -2.4859 0.9611
3.6751 -8.8725 -2.4865 0.9611
3.9900 -8.7369 -2.4869 0.9611
4.6046 -8.4326 -2.4876 0.9611
5.4824 -7.8962 -2.4889 0.9611
5.7618 -7.6969 -2.4894 0.9611
6.2987 -7.2690 -2.4904 0.9610
7.2752 -6.3040 -2.4925 0.9610
7.7098 -5.7715 -2.4936 0.9610
8.1057 -5.2092 -2.4948 0.9610
8.7732 -4.0066 -2.4972 0.9609
8.9128 -3.6918 -2.4978 0.9609
9.0412 -3.3722 -2.4985 0.9609
9.5085 -1.7155 -2.5017 0.9609
9.5662 -1.3754 -2.5023 0.9609
9.6116 -1.0334 -2.5030 0.9608
9.6659 -0.3452 -2.5043 0.9608
-8.8269 0.0000 -2.4988 0.9640
-8.8193 -0.3150 -2.4983 0.9640
-8.8004 -0.6294 -2.4977 0.9640
-8.7291 -1.2550 -2.4966 0.9640
-8.6768 -1.5655 -2.4960 0.9640
-8.6135 -1.8738 -2.4955 0.9640
-8.0084 -3.6573 -2.4924 0.9641
-7.7242 -4.2177 -2.4914 0.9641
-7.5673 -4.4899 -2.4910 0.9641
-7.4010 -4.7563 -2.4905 0.9641
-7.2253 -5.0166 -2.4901 0.9641
-6.8468 -5.5175 -2.4893 0.9641
-6.6445 -5.7574 -2.4889 0.9641
-6.4338 -5.9901 -2.4886 0.9641
-5.7543 -6.6409 -2.4876 0.9641
-5.5130 -6.8412 -2.4873 0.9641
-5.2647 -7.0329 -2.4870 0.9641
-5.0098 -7.2156 -2.4868 0.9641
-4.7487 -7.3891 -2.4865 0.9641
-4.2087 -7.7077 -2.4861 0.9642
-3.6477 -7.9873 -2.4858 0.9642
-2.7726 -8.3303 -2.4854 0.9642
-2.4734 -8.4236 -2.4854 0.9642
-2.1711 -8.5064 -2.4853 0.9642
-1.5587 -8.6394 -2.4853 0.9642
-0.3134 -8.7739 -2.4854 0.9642
-0.0000 -8.7798 -2.4855 0.9642
0.3134 -8.7746 -2.4856 0.9642
1.2498 -8.6924 -2.4861 0.9642
1.8670 -8.5825 -2.4865 0.9641
2.1724 -8.5112 -2.4867 0.9641
3.0707 -8.2329 -2.4875 0.9641
3.3630 -8.1191 -2.4878 0.9641
3.9347 -7.8606 -2.4885 0.9641
4.4868 -7.5621 -2.4892 0.9641
5.0164 -7.2250 -2.4900 0.9641
5.2720 -7.0426 -2.4904 0.9641
6.2251 -6.2251 -2.4923 0.9641
6.6560 -5.7675 -2.4932 0.9640
6.8590 -5.5274 -2.4938 0.9640
7.0534 -5.2801 -2.4943 0.9640
7.4153 -4.7655 -2.4953 0.9640
7.8875 -3.9482 -2.4970 0.9640
8.1528 -3.3770 -2.4982 0.9640
8.2700 -3.0846 -2.4987 0.9640
8.4730 -2.4879 -2.4999 0.9640
8.6330 -1.8780 -2.5011 0.9639
8.7491 -1.2579 -2.5023 0.9639
8.7905 -0.9451 -2.5029 0.9639
-8.1250 0.0000 -2.4991 0.9666
-8.1181 -0.2899 -2.4985 0.9666
-8.0733 -0.8680 -2.4975 0.9666
-8.0355 -1.1553 -2.4970 0.9666
-7.9875 -1.4411 -2.4965 0.9666
-7.6950 -2.5612 -2.4945 0.9666
-7.3731 -3.3672 -2.4931 0.9666
-7.2469 -3.6276 -2.4927 0.9667
-7.1116 -3.8832 -2.4922 0.9667
-6.9673 -4.1339 -2.4918 0.9667
-6.8142 -4.3792 -2.4914 0.9667
-6.4825 -4.8527 -2.4906 0.9667
-6.3042 -5.0802 -2.4903 0.9667
-5.9241 -5.5155 -2.4896 0.9667
-5.5142 -5.9226 -2.4890 0.9667
-5.0765 -6.2995 -2.4884 0.9667
-4.6132 -6.6443 -2.4879 0.9667
-4.1268 -6.9553 -2.4875 0.9667
-3.6196 -7.2310 -2.4872 0.9667
-3.0942 -7.4700 -2.4869 0.9667
-2.8255 -7.5753 -2.4868 0.9667
-2.2777 -7.7571 -2.4866 0.9667
-1.7184 -7.8996 -2.4866 0.9667
-1.4354 -7.9558 -2.4866 0.9667
-0.5767 -8.0640 -2.4866 0.9667
-0.2886 -8.0796 -2.4867 0.9667
-0.0000 -8.0850 -2.4868 0.9667
0.2886 -8.0802 -2.4869 0.9667
0.8644 -8.0399 -2.4872 0.9667
1.1509 -8.0044 -2.4873 0.9667
2.0004 -7.8374 -2.4879 0.9667
2.2790 -7.7617 -2.4881 0.9667
2.8275 -7.5809 -2.4886 0.9667
3.3619 -7.3616 -2.4892 0.9667
3.8796 -7.1049 -2.4899 0.9667
4.1312 -6.9628 -2.4902 0.9667
4.3778 -6.8119 -2.4906 0.9667
5.0832 -6.3079 -2.4917 0.9667
5.3060 -6.1235 -2.4921 0.9667
5.9333 -5.5241 -2.4935 0.9666
7.1249 -3.8905 -2.4969 0.9666
7.2607 -3.6344 -2.4974 0.9666
7.7106 -2.5663 -2.4995 0.9666
7.9459 -1.7285 -2.5011 0.9665
8.0042 -1.4441 -2.5017 0.9665
8.0524 -1.1578 -2.5022 0.9665
8.1180 -0.5806 -2.5033 0.9665
-7.5188 0.0000 -2.4993 0.9688
-7.4966 -0.5362 -2.4983 0.9688
-7.4364 -1.0692 -2.4973 0.9688
-7.2754 -1.8569 -2.4959 0.9688
-7.1219 -2.3704 -2.4950 0.9689
-7.0315 -2.6226 -2.4946 0.9689
-6.5823 -3.5942 -2.4929 0.9689
-6.3072 -4.0534 -2.4922 0.9689
-6.0003 -4.4917 -2.4915 0.9689
-5.4836 -5.1054 -2.4905 0.9689
-5.2973 -5.2973 -2.4902 0.9689
-4.6992 -5.8313 -2.4894 0.9689
-4.0478 -6.2986 -2.4888 0.9689
-3.3507 -6.6938 -2.4883 0.9689
-2.8643 -6.9151 -2.4880 0.9689
-2.6156 -7.0127 -2.4879 0.9689
-1.8508 -7.2515 -2.4877 0.9689
-1.3288 -7.3650 -2.4877 0.9689
-0.8000 -7.4411 -2.4877 0.9689
-0.5339 -7.4650 -2.4878 0.9689
0.8002 -7.4427 -2.4882 0.9689
1.3292 -7.3675 -2.4885 0.9689
1.8517 -7.2550 -2.4889 0.9689
2.1097 -7.1849 -2.4891 0.9689
2.3650 -7.1057 -2.4894 0.9689
2.6174 -7.0175 -2.4896 0.9689
2.8665 -6.9203 -2.4899 0.9689
3.1120 -6.8143 -2.4902 0.9689
3.5911 -6.5765 -2.4908 0.9689
4.2752 -6.1575 -2.4917 0.9689
4.4929 -6.0018 -2.4921 0.9689
5.6714 -4.9143 -2.4945 0.9689
5.8443 -4.7096 -2.4949 0.9689
6.3176 -4.0601 -2.4963 0.9688
6.9448 -2.8766 -2.4987 0.9688
7.2168 -2.1190 -2.5002 0.9688
7.4509 -1.0713 -2.5022 0.9688
7.5114 -0.5372 -2.5032 0.9688
-6.9894 0.0000 -2.4994 0.9707
-6.9836 -0.2494 -2.4990 0.9708
-6.9690 -0.4984 -2.4985 0.9708
-6.9132 -0.9940 -2.4976 0.9708
-6.7638 -1.7264 -2.4963 0.9708
-6.5373 -2.4383 -2.4951 0.9708
-6.4450 -2.6696 -2.4947 0.9708
-6.3447 -2.8975 -2.4943 0.9708
-6.2363 -3.1217 -2.4939 0.9708
-6.1200 -3.3418 -2.4936 0.9708
-5.9959 -3.5575 -2.4932 0.9708
-5.5790 -4.1764 -2.4922 0.9708
-5.2656 -4.5626 -2.4916 0.9708
-5.0988 -4.7471 -2.4913 0.9708
-4.5607 -5.2633 -2.4905 0.9708
-4.3695 -5.4223 -2.4903 0.9709
-4.1728 -5.5743 -2.4901 0.9709
-3.9709 -5.7192 -2.4899 0.9709
-3.5523 -5.9870 -2.4895 0.9709
-3.3361 -6.1096 -2.4893 0.9709
-2.1978 -6.6035 -2.4888 0.9709
-1.9607 -6.6775 -2.4887 0.9709
-1.7211 -6.7431 -2.4887 0.9709
-1.4793 -6.8002 -2.4887 0.9709
-1.2356 -6.8487 -2.4887 0.9709
-0.9904 -6.8884 -2.4887 0.9709
-0.7439 -6.9194 -2.4887 0.9709
-0.2484 -6.9551 -2.4888 0.9709
-0.0000 -6.9598 -2.4889 0.9709
0.4965 -6.9426 -2.4891 0.9709
1.4799 -6.8028 -2.4896 0.9709
1.9617 -6.6810 -2.4900 0.9709
2.4338 -6.5252 -2.4905 0.9708
2.6654 -6.4348 -2.4907 0.9708
3.5556 -5.9926 -2.4918 0.9708
3.7677 -5.8626 -2.4921 0.9708
4.3745 -5.4285 -2.4931 0.9708
4.5661 -5.2696 -2.4935 0.9708
4.9319 -4.9319 -2.4942 0.9708
5.4334 -4.3785 -2.4954 0.9708
5.8733 -3.7745 -2.4967 0.9708
6.0053 -3.5631 -2.4971 0.9708
6.3552 -2.9023 -2.4984 0.9708
6.4559 -2.6741 -2.4989 0.9708
6.5485 -2.4425 -2.4994 0.9707
6.6327 -2.2076 -2.4998 0.9707
6.7758 -1.7294 -2.5008 0.9707
6.8345 -1.4868 -2.5012 0.9707
6.9582 -0.7481 -2.5026 0.9707
-6.5174 -0.2328 -2.4992 0.9725
-6.3127 -1.6112 -2.4967 0.9725
-6.1015 -2.2757 -2.4955 0.9725
-5.8207 -2.9136 -2.4944 0.9725
-5.7122 -3.1191 -2.4941 0.9725
-5.4737 -3.5177 -2.4934 0.9725
-5.3440 -3.7104 -2.4931 0.9725
-5.2075 -3.8983 -2.4928 0.9725
-5.0644 -4.0812 -2.4925 0.9725
-4.7593 -4.4311 -2.4920 0.9725
-4.4302 -4.7584 -2.4915 0.9725
-4.2572 -4.9130 -2.4913 0.9725
-4.0788 -5.0614 -2.4910 0.9725
-3.7067 -5.3387 -2.4907 0.9725
-2.9085 -5.8104 -2.4900 0.9725
-2.4863 -6.0026 -2.4898 0.9726
-2.0517 -6.1643 -2.4897 0.9726
-1.8303 -6.2334 -2.4896 0.9726
-1.6066 -6.2947 -2.4896 0.9726
-1.3809 -6.3480 -2.4895 0.9726
-1.1535 -6.3932 -2.4895 0.9726
-0.9245 -6.4303 -2.4895 0.9726
-0.6944 -6.4592 -2.4896 0.9726
0.2319 -6.4930 -2.4898 0.9726
1.6073 -6.2973 -2.4906 0.9725
2.2718 -6.0909 -2.4912 0.9725
2.7010 -5.9144 -2.4917 0.9725
2.9107 -5.8148 -2.4919 0.9725
3.3188 -5.5936 -2.4925 0.9725
3.5168 -5.4722 -2.4928 0.9725
3.7103 -5.3439 -2.4931 0.9725
3.8992 -5.2087 -2.4934 0.9725
4.7653 -4.4366 -2.4951 0.9725
5.0712 -4.0866 -2.4958 0.9725
5.2146 -3.9036 -2.4962 0.9725
5.3514 -3.7156 -2.4966 0.9725
5.6047 -3.3254 -2.4974 0.9725
5.7207 -3.1238 -2.4978 0.9725
5.8296 -2.9181 -2.4982 0.9725
5.9310 -2.7086 -2.4987 0.9725
6.0249 -2.4956 -2.4991 0.9725
6.2604 -1.8382 -2.5004 0.9724
6.3778 -1.3874 -2.5013 0.9724
6.4244 -1.1591 -2.5017 0.9724
6.4628 -0.9292 -2.5021 0.9724
6.4930 -0.6981 -2.5026 0.9724
6.5149 -0.4660 -2.5030 0.9724
-6.1077 0.0000 -2.4997 0.9739
-6.0902 -0.4356 -2.4989 0.9740
-6.0698 -0.6526 -2.4985 0.9740
-5.7871 -1.9262 -2.4963 0.9740
-5.7139 -2.1312 -2.4959 0.9740
-5.5458 -2.5327 -2.4952 0.9740
-5.3496 -2.9211 -2.4946 0.9740
-4.4574 -4.1500 -2.4926 0.9740
-4.3061 -4.3061 -2.4924 0.9740
-4.1493 -4.4566 -2.4921 0.9740
-3.9872 -4.6015 -2.4919 0.9740
-3.2908 -5.1206 -2.4912 0.9740
-2.9168 -5.3417 -2.4909 0.9740
-2.7241 -5.4421 -2.4908 0.9740
-2.3288 -5.6221 -2.4906 0.9740
-2.1265 -5.7015 -2.4905 0.9740
-1.9216 -5.7736 -2.4904 0.9740
-1.7143 -5.8384 -2.4904 0.9740
-1.2934 -5.9456 -2.4903 0.9740
-0.6504 -6.0499 -2.4903 0.9740
-0.2172 -6.0811 -2.4904 0.9740
0.2172 -6.0814 -2.4906 0.9740
0.6505 -6.0509 -2.4908 0.9740
1.0807 -5.9897 -2.4910 0.9740
1.2938 -5.9477 -2.4912 0.9740
1.9226 -5.7765 -2.4917 0.9740
2.3302 -5.6255 -2.4921 0.9740
2.5297 -5.5393 -2.4923 0.9740
2.7261 -5.4460 -2.4926 0.9740
2.9190 -5.3458 -2.4928 0.9740
3.1083 -5.2387 -2.4931 0.9740
3.4748 -5.0047 -2.4936 0.9740
3.6517 -4.8781 -2.4939 0.9740
3.8239 -4.7452 -2.4942 0.9740
3.9914 -4.6063 -2.4945 0.9740
4.3109 -4.3109 -2.4952 0.9740
4.4627 -4.1549 -2.4955 0.9740
4.6087 -3.9935 -2.4959 0.9740
4.7490 -3.8270 -2.4962 0.9740
4.8833 -3.6556 -2.4966 0.9740
5.3571 -2.9252 -2.4981 0.9740
5.4589 -2.7325 -2.4985 0.9740
5.5538 -2.5363 -2.4989 0.9740
5.8620 -1.7212 -2.5005 0.9739
5.9207 -1.5112 -2.5009 0.9739
5.9718 -1.2991 -2.5013 0.9739
6.0513 -0.8700 -2.5021 0.9739
6.0795 -0.6536 -2.5025 0.9739
6.0999 -0.4363 -2.5029 0.9739
6.1126 -0.2183 -2.5033 0.9739
-5.7315 -0.2047 -2.4995 0.9753
-5.7197 -0.4091 -2.4991 0.9753
-5.7006 -0.6129 -2.4987 0.9753
-5.6407 -1.0177 -2.4980 0.9753
-5.6000 -1.2182 -2.4977 0.9753
-5.5522 -1.4171 -2.4973 0.9753
-5.4973 -1.6142 -2.4970 0.9753
-5.2911 -2.1917 -2.4960 0.9753
-5.2089 -2.3788 -2.4956 0.9753
-5.0246 -2.7437 -2.4950 0.9753
-4.9229 -2.9209 -2.4947 0.9753
-4.8150 -3.0944 -2.4944 0.9753
-4.1869 -3.8982 -2.4932 0.9753
-3.5883 -4.4529 -2.4923 0.9754
-3.4269 -4.5778 -2.4922 0.9754
-3.2611 -4.6969 -2.4920 0.9754
-2.9174 -4.9169 -2.4917 0.9754
-2.7399 -5.0177 -2.4916 0.9754
-2.1875 -5.2812 -2.4913 0.9754
-1.9976 -5.3557 -2.4912 0.9754
-1.8051 -5.4235 -2.4911 0.9754
-1.2150 -5.5851 -2.4910 0.9754
-0.8134 -5.6575 -2.4910 0.9754
-0.6110 -5.6830 -2.4910 0.9754
-0.4078 -5.7013 -2.4911 0.9754
0.2040 -5.7126 -2.4912 0.9754
0.4078 -5.7019 -2.4913 0.9754
0.6111 -5.6839 -2.4914 0.9754
0.8136 -5.6588 -2.4915 0.9754
1.0151 -5.6264 -2.4917 0.9754
1.2153 -5.5869 -2.4918 0.9754
1.4141 -5.5403 -2.4920 0.9754
1.8060 -5.4260 -2.4923 0.9754
1.9986 -5.3585 -2.4925 0.9754
2.1888 -5.2842 -2.4927 0.9754
2.3762 -5.2031 -2.4929 0.9754
2.5606 -5.1155 -2.4931 0.9753
2.7418 -5.0213 -2.4933 0.9753
3.0937 -4.8139 -2.4938 0.9753
3.2639 -4.7009 -2.4941 0.9753
4.0490 -4.0490 -2.4956 0.9753
4.1915 -3.9024 -2.4959 0.9753
4.3287 -3.7508 -2.4962 0.9753
4.4604 -3.5944 -2.4965 0.9753
4.5865 -3.4334 -2.4969 0.9753
4.7067 -3.2679 -2.4972 0.9753
4.9293 -2.9247 -2.4979 0.9753
5.0313 -2.7473 -2.4983 0.9753
5.1269 -2.5663 -2.4987 0.9753
5.2160 -2.3820 -2.4990 0.9753
5.2984 -2.1947 -2.4994 0.9753
5.3742 -2.0045 -2.4998 0.9753
5.4432 -1.8117 -2.5002 0.9753
5.5052 -1.6165 -2.5005 0.9753
5.5602 -1.4192 -2.5009 0.9753
5.6490 -1.0192 -2.5017 0.9753
5.6827 -0.8170 -2.5021 0.9753
5.7091 -0.6138 -2.5025 0.9753
5.7283 -0.4097 -2.5029 0.9753
5.7401 -0.2050 -2.5032 0.9752
-5.4008 0.0000 -2.5000 0.9765
-5.3856 -0.3852 -2.4993 0.9765
-5.3429 -0.7682 -2.4986 0.9765
-5.3113 -0.9583 -2.4982 0.9765
-5.2730 -1.1471 -2.4979 0.9765
-5.2280 -1.3344 -2.4976 0.9765
-5.1764 -1.5199 -2.4972 0.9765
-5.0535 -1.8849 -2.4966 0.9765
-4.9050 -2.2400 -2.4960 0.9765
-4.7316 -2.5836 -2.4954 0.9765
-4.6358 -2.7506 -2.4951 0.9765
-4.5342 -2.9140 -2.4949 0.9765
-4.3139 -3.2293 -2.4944 0.9765
-3.8090 -3.8090 -2.4934 0.9765
-3.6703 -3.9422 -2.4932 0.9765
-3.5270 -4.0704 -2.4931 0.9765
-3.3792 -4.1934 -2.4929 0.9765
-3.2272 -4.3110 -2.4927 0.9765
-2.9111 -4.5297 -2.4924 0.9765
-2.7474 -4.6305 -2.4923 0.9765
-2.5803 -4.7254 -2.4922 0.9765
-2.0601 -4.9736 -2.4919 0.9766
-1.3312 -5.2157 -2.4917 0.9766
-1.1442 -5.2598 -2.4916 0.9766
-0.9557 -5.2973 -2.4916 0.9766
-0.7661 -5.3280 -2.4916 0.9766
-0.5754 -5.3520 -2.4917 0.9766
-0.1921 -5.3796 -2.4917 0.9766
-0.0000 -5.3832 -2.4918 0.9766
0.3841 -5.3698 -2.4919 0.9766
0.5755 -5.3528 -2.4920 0.9765
0.7662 -5.3291 -2.4921 0.9765
1.3317 -5.2175 -2.4925 0.9765
1.5172 -5.1670 -2.4927 0.9765
1.8822 -5.0463 -2.4930 0.9765
2.2377 -4.8999 -2.4934 0.9765
2.4114 -4.8173 -2.4936 0.9765
2.7494 -4.6338 -2.4941 0.9765
2.9133 -4.5332 -2.4943 0.9765
3.0736 -4.4268 -2.4946 0.9765
3.2299 -4.3147 -2.4948 0.9765
3.3822 -4.1971 -2.4951 0.9765
3.8128 -3.8128 -2.4959 0.9765
3.9469 -3.6747 -2.4962 0.9765
4.0761 -3.5320 -2.4965 0.9765
4.3188 -3.2330 -2.4972 0.9765
4.4320 -3.0772 -2.4975 0.9765
4.5396 -2.9174 -2.4978 0.9765
4.7374 -2.5868 -2.4985 0.9765
4.8274 -2.4164 -2.4988 0.9765
4.9113 -2.2429 -2.4992 0.9765
4.9889 -2.0665 -2.4995 0.9765
5.0602 -1.8873 -2.4999 0.9765
5.1834 -1.5220 -2.5006 0.9765
5.3503 -0.7693 -2.5021 0.9765
5.3931 -0.3857 -2.5028 0.9764
5.4043 -0.1930 -2.5031 0.9764
-5.0928 -0.1819 -2.4997 0.9776
-5.0655 -0.5446 -2.4991 0.9776
-5.0422 -0.7250 -2.4987 0.9776
-4.8852 -1.4344 -2.4975 0.9776
-4.8303 -1.6077 -2.4972 0.9776
-4.7693 -1.7789 -2.4969 0.9776
-4.7022 -1.9477 -2.4966 0.9776
-4.6292 -2.1141 -2.4963 0.9776
-4.5503 -2.2777 -2.4960 0.9776
-4.4656 -2.4384 -2.4958 0.9776
-4.1781 -2.9009 -2.4950 0.9776
-3.9598 -3.1910 -2.4945 0.9776
-3.0460 -4.0690 -2.4932 0.9776
-2.7476 -4.2754 -2.4929 0.9776
-2.5932 -4.3705 -2.4928 0.9776
-2.4354 -4.4601 -2.4927 0.9776
-2.2746 -4.5440 -2.4926 0.9776
-2.1108 -4.6221 -2.4925 0.9776
-1.9445 -4.6944 -2.4924 0.9776
-1.6045 -4.8209 -2.4923 0.9776
-1.0800 -4.9646 -2.4922 0.9776
-0.9021 -5.0000 -2.4922 0.9776
-0.5431 -5.0516 -2.4922 0.9776
0.7232 -5.0299 -2.4927 0.9776
1.4320 -4.8768 -2.4932 0.9776
1.6052 -4.8229 -2.4933 0.9776
1.7765 -4.7629 -2.4935 0.9776
1.9455 -4.6968 -2.4937 0.9776
2.2759 -4.5467 -2.4941 0.9776
2.5949 -4.3735 -2.4945 0.9776
2.7496 -4.2785 -2.4947 0.9776
2.9008 -4.1780 -2.4950 0.9776
3.1921 -3.9612 -2.4955 0.9776
3.4673 -3.7242 -2.4960 0.9776
3.7250 -3.4681 -2.4965 0.9776
3.9639 -3.1943 -2.4971 0.9776
4.0758 -3.0511 -2.4974 0.9776
4.4708 -2.4413 -2.4987 0.9776
4.6348 -2.1166 -2.4993 0.9776
4.7080 -1.9501 -2.4997 0.9776
4.8364 -1.6097 -2.5003 0.9775
4.9403 -1.2609 -2.5010 0.9775
5.0722 -0.5453 -2.5024 0.9775
-4.7679 -0.6855 -2.4989 0.9785
-4.6656 -1.1908 -2.4980 0.9785
-4.6196 -1.3564 -2.4977 0.9785
-4.5677 -1.5203 -2.4974 0.9785
-4.5100 -1.6822 -2.4971 0.9785
-4.4466 -1.8418 -2.4969 0.9785
-4.3776 -1.9992 -2.4966 0.9785
-4.3030 -2.1539 -2.4963 0.9785
-4.2229 -2.3059 -2.4961 0.9786
-4.1375 -2.4549 -2.4958 0.9786
-4.0469 -2.6008 -2.4956 0.9786
-3.8503 -2.8823 -2.4951 0.9786
-3.6343 -3.1491 -2.4947 0.9786
-3.5193 -3.2766 -2.4945 0.9786
-3.0163 -3.7430 -2.4938 0.9786
-2.8806 -3.8481 -2.4937 0.9786
-2.4524 -4.1333 -2.4933 0.9786
-2.3032 -4.2180 -2.4932 0.9786
-1.9963 -4.3712 -2.4930 0.9786
-1.8389 -4.4396 -2.4929 0.9786
-1.6793 -4.5023 -2.4929 0.9786
-1.5175 -4.5592 -2.4928 0.9786
-1.1883 -4.6558 -2.4927 0.9786
-1.0214 -4.6952 -2.4927 0.9786
-0.8531 -4.7286 -2.4927 0.9786
-0.1715 -4.8021 -2.4928 0.9786
0.3428 -4.7932 -2.4930 0.9786
0.5137 -4.7781 -2.4931 0.9786
0.6839 -4.7569 -2.4932 0.9786
0.8533 -4.7297 -2.4933 0.9786
1.1887 -4.6572 -2.4935 0.9786
1.5181 -4.5610 -2.4938 0.9786
1.6800 -4.5042 -2.4940 0.9786
2.1523 -4.2998 -2.4945 0.9786
2.4540 -4.1359 -2.4949 0.9786
2.6002 -4.0461 -2.4951 0.9786
2.8828 -3.8510 -2.4956 0.9786
3.0187 -3.7460 -2.4958 0.9786
3.4029 -3.4029 -2.4966 0.9785
3.6377 -3.1521 -2.4971 0.9785
3.8542 -2.8852 -2.4977 0.9785
3.9552 -2.7461 -2.4980 0.9785
4.0512 -2.6035 -2.4982 0.9785
4.2276 -2.3084 -2.4988 0.9785
4.3826 -2.0015 -2.4995 0.9785
4.5732 -1.5221 -2.5004 0.9785
4.6713 -1.1923 -2.5011 0.9785
4.7115 -1.0249 -2.5014 0.9785
4.7738 -0.6864 -2.5020 0.9785
4.8217 -0.1722 -2.5030 0.9785
-4.5615 -0.1629 -2.4999 0.9794
-4.5372 -0.4878 -2.4993 0.9794
-4.5163 -0.6494 -2.4991 0.9794
-4.4898 -0.8100 -2.4988 0.9794
-4.4195 -1.1280 -2.4982 0.9794
-4.3269 -1.4401 -2.4977 0.9794
-4.2723 -1.5935 -2.4974 0.9794
-4.0762 -2.0404 -2.4966 0.9794
-4.0004 -2.1844 -2.4964 0.9794
-3.7429 -2.5988 -2.4957 0.9794
-3.4429 -2.9833 -2.4951 0.9794
-3.3339 -3.1040 -2.4949 0.9794
-3.2208 -3.2208 -2.4947 0.9794
-3.1036 -3.3335 -2.4946 0.9794
-2.9824 -3.4419 -2.4944 0.9794
-2.8575 -3.5459 -2.4942 0.9794
-2.7290 -3.6455 -2.4941 0.9794
-2.5970 -3.7403 -2.4940 0.9794
-2.1820 -3.9960 -2.4936 0.9794
-0.9676 -4.4481 -2.4932 0.9795
-0.8082 -4.4798 -2.4932 0.9795
-0.4866 -4.5260 -2.4932 0.9795
-0.1625 -4.5493 -2.4933 0.9795
0.0000 -4.5523 -2.4933 0.9795
0.1625 -4.5495 -2.4934 0.9795
0.6479 -4.5065 -2.4936 0.9795
0.8084 -4.4807 -2.4937 0.9794
0.9679 -4.4492 -2.4938 0.9794
1.1261 -4.4120 -2.4939 0.9794
1.4381 -4.3209 -2.4942 0.9794
1.5915 -4.2671 -2.4944 0.9794
1.8921 -4.1432 -2.4947 0.9794
2.0390 -4.0733 -2.4949 0.9794
2.3247 -3.9181 -2.4953 0.9794
2.4633 -3.8329 -2.4955 0.9794
2.7309 -3.6481 -2.4959 0.9794
3.2235 -3.2235 -2.4968 0.9794
3.4460 -2.9859 -2.4973 0.9794
3.9235 -2.3279 -2.4987 0.9794
4.0046 -2.1867 -2.4990 0.9794
4.0806 -2.0426 -2.4993 0.9794
4.1513 -1.8959 -2.4996 0.9794
4.2169 -1.7467 -2.4999 0.9794
4.2770 -1.5953 -2.5002 0.9794
4.3318 -1.4418 -2.5005 0.9794
4.3810 -1.2864 -2.5008 0.9794
4.4247 -1.1293 -2.5011 0.9794
4.4627 -0.9708 -2.5014 0.9794
4.5217 -0.6501 -2.5020 0.9794
4.5577 -0.3260 -2.5026 0.9794
-4.3307 0.0000 -2.5003 0.9802
-4.1929 -1.0702 -2.4984 0.9802
-4.1050 -1.3663 -2.4979 0.9802
-3.9963 -1.6553 -2.4974 0.9802
-3.9343 -1.7967 -2.4971 0.9802
-3.7954 -2.0724 -2.4967 0.9802
-3.7187 -2.2064 -2.4964 0.9802
-3.5512 -2.4656 -2.4960 0.9802
-3.1632 -2.9450 -2.4953 0.9802
-2.9446 -3.1628 -2.4949 0.9802
-2.7112 -3.3644 -2.4946 0.9802
-2.5892 -3.4588 -2.4945 0.9802
-2.4640 -3.5488 -2.4944 0.9802
-2.2044 -3.7153 -2.4941 0.9802
-2.0703 -3.7914 -2.4940 0.9802
-1.9336 -3.8628 -2.4940 0.9802
-1.6530 -3.9906 -2.4938 0.9802
-1.2169 -4.1442 -2.4937 0.9802
-0.7669 -4.2505 -2.4936 0.9802
-0.6147 -4.2751 -2.4936 0.9802
-0.3081 -4.3082 -2.4937 0.9802
-0.1542 -4.3165 -2.4937 0.9802
0.1542 -4.3166 -2.4938 0.9802
0.4617 -4.2949 -2.4939 0.9802
0.6148 -4.2758 -2.4940 0.9802
0.7670 -4.2513 -2.4941 0.9802
1.0684 -4.1861 -2.4943 0.9802
1.9345 -3.8647 -2.4952 0.9802
2.0714 -3.7935 -2.4954 0.9802
2.4656 -3.5511 -2.4960 0.9802
2.5910 -3.4612 -2.4962 0.9802
2.8318 -3.2681 -2.4966 0.9802
2.9469 -3.1652 -2.4968 0.9802
3.1658 -2.9475 -2.4973 0.9802
3.2693 -2.8329 -2.4976 0.9802
3.3687 -2.7147 -2.4978 0.9802
3.8712 -1.9378 -2.4994 0.9802
4.2336 -0.9210 -2.5014 0.9802
4.2895 -0.6167 -2.5020 0.9802
4.3323 -0.1547 -2.5029 0.9802
