ply
format ascii 1.0
element vertex 1277
property float32 x
property float32 y
property float32 z
property float32 I
end_header
-38.7283 -28.9916 8.5303 0.8216
-35.9472 -28.9680 8.1404 0.8290
-33.4060 -28.9465 7.7941 0.8357
-31.0693 -28.9266 7.4852 0.8416
-29.0061 -29.0061 7.2331 0.8465
-20.0189 -28.8326 6.1892 0.8671
-18.5214 -28.8199 6.0407 0.8701
-17.0924 -28.8076 5.9064 0.8728
-15.7238 -28.7959 5.7851 0.8752
-13.1991 -28.9021 5.6025 0.8789
-9.7084 -29.1690 5.4207 0.8826
-7.5300 -29.5022 5.3688 0.8837
-2.7955 -12.8507 2.3189 0.9480
-5.7600 -31.9253 5.7202 0.8765
-3.5490 -33.0107 5.8542 0.8738
-3.2984 -46.1184 8.1527 0.8288
16.4285 -13.2390 3.7203 0.9179
38.1936 -28.5913 8.4125 0.8238
-33.4078 -28.9480 6.7719 0.8362
-26.8998 -28.8925 6.0475 0.8524
-25.0216 -28.8765 5.8534 0.8567
-18.7434 -29.1652 5.3111 0.8691
-15.7244 -28.7970 5.0264 0.8757
-14.8899 -29.7463 5.0960 0.8741
-11.0071 -29.5112 4.8252 0.8803
-11.1969 -33.6414 5.4316 0.8663
-8.4372 -28.7343 4.5878 0.8859
-7.5301 -29.5026 4.6645 0.8841
-2.7960 -12.8530 2.0151 0.9482
-6.6341 -36.7700 5.7239 0.8597
-4.6903 -32.6220 5.0489 0.8751
-3.5491 -33.0118 5.0864 0.8743
-3.2983 -46.1164 7.0828 0.8294
35.0894 -32.6694 7.3446 0.8236
35.0697 -30.3881 7.1088 0.8288
-42.5580 -14.1646 5.8409 0.8345
-38.7326 -28.9948 6.3005 0.8227
-23.4322 -33.7488 5.3502 0.8473
-18.7432 -29.1650 4.5145 0.8695
-20.0086 -33.7227 5.1062 0.8537
-15.7249 -28.7981 4.2728 0.8760
-15.3844 -33.6873 4.8226 0.8612
-11.9124 -28.7592 4.0536 0.8820
-11.0070 -29.5109 4.1015 0.8807
-11.2012 -33.6542 4.6188 0.8667
-7.5302 -29.5030 3.9651 0.8844
-7.9319 -43.9637 5.8174 0.8351
-3.5493 -33.0128 4.3237 0.8746
1.7409 -48.7443 6.3516 0.8214
3.4852 -48.7292 6.3618 0.8211
8.7834 -48.6831 6.4419 0.8191
40.7112 -28.2663 6.4540 0.8188
-27.4284 -13.7297 3.2937 0.8839
-41.0780 -26.3992 5.2434 0.8216
-39.6175 -27.5069 5.1791 0.8236
-38.6267 -28.9156 5.1812 0.8236
-29.9704 -29.9704 4.5513 0.8432
-22.5826 -30.1669 4.0465 0.8593
-23.4425 -33.7636 4.4138 0.8476
-18.7431 -29.1648 3.7227 0.8698
-15.7255 -28.7992 3.5235 0.8763
-14.8897 -29.7459 3.5720 0.8747
-15.3905 -33.7006 3.9783 0.8615
-11.9128 -28.7602 3.3428 0.8823
-11.2054 -33.6669 3.8102 0.8670
-7.5303 -29.5034 3.2697 0.8847
-2.7970 -12.8577 1.4130 0.9484
-8.1947 -45.4199 4.9560 0.8305
-4.6906 -32.6240 3.5392 0.8758
-3.4233 -47.8638 5.1528 0.8244
3.5164 -49.1664 5.2930 0.8201
5.2843 -49.1510 5.3083 0.8197
2.9360 -20.4203 2.2153 0.9204
35.0897 -32.6697 5.1483 0.8246
35.0700 -30.3883 4.9830 0.8297
16.4820 -13.2821 2.2730 0.9184
-34.9522 -3.7578 2.9759 0.8684
-27.3928 -13.7119 2.5932 0.8843
-38.7365 -28.9978 4.0962 0.8235
-37.6635 -30.3511 4.0947 0.8235
-34.0631 -29.5159 3.8155 0.8345
-29.9702 -29.9702 3.5879 0.8435
-26.9035 -28.8964 3.3422 0.8534
-29.4266 -33.9602 3.8039 0.8349
-23.2609 -28.8651 3.1382 0.8617
-23.4527 -33.7783 3.4811 0.8478
-15.7261 -28.8002 2.7778 0.8766
-11.9133 -28.7612 2.6353 0.8825
-11.0068 -29.5103 2.6662 0.8812
-11.1967 -33.6408 3.0014 0.8673
-8.4380 -28.7373 2.5354 0.8867
-7.5304 -29.5038 2.5776 0.8849
-2.7975 -12.8600 1.1141 0.9485
-8.2084 -45.4961 3.9136 0.8306
-3.5495 -33.0148 2.8109 0.8752
1.7579 -49.2214 4.1694 0.8206
3.5166 -49.1679 4.1728 0.8205
2.9666 -20.6328 1.7646 0.9197
3.8407 -21.2874 1.8311 0.9168
10.5877 -48.6707 4.2165 0.8188
35.0702 -30.3885 3.9283 0.8300
-42.5815 -14.1725 2.7829 0.8354
-27.3575 -13.6942 1.8971 0.8846
-38.7387 -28.9994 3.0007 0.8237
-37.6633 -30.3510 2.9995 0.8238
-29.2862 -33.7981 2.7732 0.8359
-16.9243 -21.0018 1.6726 0.8975
-22.5824 -30.1665 2.3367 0.8598
-15.7267 -28.8013 2.0349 0.8768
-7.9420 -21.2934 1.4093 0.9129
-6.9585 -20.9069 1.3664 0.9155
-8.4383 -28.7383 1.8573 0.8869
-2.7980 -12.8623 0.8162 0.9486
-8.1844 -45.3629 2.8584 0.8313
-4.6909 -32.6260 2.0440 0.8763
-3.5496 -33.0158 2.0591 0.8754
-1.7737 -49.6634 3.0816 0.8194
1.7411 -48.7491 3.0249 0.8224
3.4855 -48.7339 3.0297 0.8222
2.8115 -19.5544 1.2250 0.9239
10.5880 -48.6723 3.0888 0.8190
34.8617 -34.8617 3.0572 0.8207
34.8210 -30.1726 2.8571 0.8314
40.7104 -28.2658 3.0733 0.8199
-30.6987 -26.6006 1.6017 0.8499
-29.3213 -33.8385 1.7655 0.8359
-22.5822 -30.1663 1.4859 0.8600
-19.9851 -33.6831 1.5444 0.8549
-15.7273 -28.8024 1.2940 0.8769
-14.8894 -29.7452 1.3116 0.8753
-15.3986 -33.7182 1.4616 0.8621
-8.4386 -28.7392 1.1811 0.8870
-7.5306 -29.5046 1.2007 0.8852
-2.7985 -12.8646 0.5191 0.9487
-4.6910 -32.6269 1.2997 0.8764
-3.4236 -47.8684 1.8923 0.8252
2.2515 -31.4794 1.2444 0.8813
2.9823 -20.7422 0.8264 0.9195
10.5884 -48.6739 1.9642 0.8192
15.4867 -30.9386 1.3642 0.8707
35.1114 -35.1114 1.9579 0.8197
16.9111 -12.6595 0.8330 0.9189
26.1772 -11.9547 1.1347 0.8912
26.7703 -11.0886 1.1426 0.8905
-42.5970 -14.1777 0.7584 0.8356
-27.2875 -13.6591 0.5155 0.8851
-38.7428 -29.0025 0.8175 0.8240
-34.0626 -29.5154 0.7613 0.8350
-31.0796 -28.9362 0.7173 0.8438
-29.2887 -33.8010 0.7555 0.8362
-18.7426 -29.1641 0.5856 0.8705
-19.9862 -33.6849 0.6615 0.8550
-15.3814 -33.6805 0.6255 0.8623
-11.9145 -28.7642 0.5259 0.8829
-11.0064 -29.5095 0.5320 0.8816
-11.1979 -33.6442 0.5990 0.8677
-8.4389 -28.7402 0.5060 0.8871
-7.5307 -29.5049 0.5144 0.8853
-2.7990 -12.8669 0.2224 0.9487
-4.3476 -30.2387 0.5160 0.8850
-3.5498 -33.0177 0.5609 0.8756
-3.4237 -47.8700 0.8107 0.8253
16.5528 -13.3391 0.3591 0.9185
-42.6048 -14.1802 -0.2528 0.8356
-37.6628 -30.3506 -0.2723 0.8241
-31.0811 -28.9375 -0.2391 0.8438
-26.9083 -28.9015 -0.2223 0.8539
-23.2648 -28.8699 -0.2087 0.8622
-23.4612 -33.7906 -0.2316 0.8483
-15.7110 -28.7726 -0.1846 0.8771
-14.8891 -29.7447 -0.1872 0.8754
-11.0063 -29.5091 -0.1773 0.8816
-11.2112 -33.6842 -0.1999 0.8676
-8.1629 -45.2436 -0.2588 0.8320
-4.3314 -30.1260 -0.1714 0.8854
-3.5499 -33.0187 -0.1870 0.8756
10.5891 -48.6771 -0.2805 0.8193
15.4870 -30.9390 -0.1948 0.8708
35.1118 -35.1118 -0.2796 0.8199
16.5705 -13.3533 -0.1198 0.9184
25.5870 -12.8079 -0.1611 0.8919
26.7301 -12.2072 -0.1654 0.8891
-42.6126 -14.1828 -1.2646 0.8355
-38.7471 -29.0057 -1.3629 0.8239
-37.6626 -30.3504 -1.3620 0.8240
-29.3565 -33.8792 -1.2623 0.8358
-19.9883 -33.6884 -1.1029 0.8549
-14.8890 -29.7445 -0.9366 0.8754
-15.4002 -33.7218 -1.0439 0.8621
-11.7328 -28.3256 -0.8633 0.8845
-7.5309 -29.5057 -0.8575 0.8853
-2.8000 -12.8715 -0.3709 0.9487
-8.1631 -45.2447 -1.2946 0.8320
-4.3368 -30.1631 -0.8581 0.8852
-3.5500 -33.0197 -0.9351 0.8756
-3.4239 -47.8731 -1.3514 0.8253
10.5894 -48.6787 -1.4027 0.8193
15.4871 -30.9393 -0.9742 0.8707
16.8535 -12.6164 -0.5928 0.9192
-49.4997 0.0000 -2.5103 0.8202
-49.4183 -1.7650 -2.5078 0.8203
-49.2740 -3.5242 -2.5053 0.8205
-49.0671 -5.2753 -2.5027 0.8207
-48.0764 -10.4584 -2.4952 0.8211
-43.6938 -12.8297 -2.3094 0.8333
-43.1230 -16.0841 -2.3341 0.8317
-42.4801 -17.5958 -2.3318 0.8318
-38.7620 -17.7020 -2.1611 0.8431
-32.7956 -17.9078 -1.8950 0.8610
-38.0814 -26.4404 -2.3511 0.8305
-36.1937 -29.1667 -2.3574 0.8301
-29.9693 -29.9693 -2.1494 0.8439
-26.9107 -28.9041 -2.0028 0.8537
-22.5817 -30.1656 -1.9110 0.8599
-23.4360 -33.7543 -2.0840 0.8482
-19.9893 -33.6902 -1.9867 0.8548
-15.7296 -28.8066 -1.6645 0.8768
-15.4007 -33.7230 -1.8801 0.8620
-11.0061 -29.5086 -1.5972 0.8815
-11.2119 -33.6865 -1.8005 0.8675
-8.4397 -28.7431 -1.5192 0.8869
-2.8005 -12.8738 -0.6682 0.9486
-8.1633 -45.2458 -2.3317 0.8318
-4.2745 -29.7304 -1.5233 0.8867
-3.3691 -47.1068 -2.3951 0.8277
1.6853 -47.1873 -2.3946 0.8277
3.3678 -47.0884 -2.3941 0.8277
2.9827 -20.7449 -1.0629 0.9195
8.3743 -46.4156 -2.3919 0.8279
10.0213 -46.0670 -2.3909 0.8279
11.6523 -28.1312 -1.5442 0.8852
13.4303 -26.8303 -1.5216 0.8868
14.4436 -26.4515 -1.5284 0.8863
15.6481 -26.3735 -1.5552 0.8844
27.9895 -37.3896 -2.3686 0.8294
29.2740 -36.3268 -2.3660 0.8296
30.5169 -35.2184 -2.3633 0.8297
31.7168 -34.0663 -2.3605 0.8299
32.8723 -32.8723 -2.3576 0.8301
16.6060 -13.3820 -1.0816 0.9181
37.9336 -26.3378 -2.3420 0.8311
39.6019 -23.4969 -2.3353 0.8316
29.7541 -16.2470 -1.7193 0.8730
26.7215 -12.2033 -1.4898 0.8890
36.1391 -12.0283 -1.9316 0.8585
44.4392 -11.3424 -2.3259 0.8322
48.1498 -8.6872 -2.4813 0.8220
48.7412 -5.2402 -2.4861 0.8217
48.9453 -3.5006 -2.4886 0.8216
49.0876 -1.7530 -2.4910 0.8214
-34.1559 -1.2199 -2.5060 0.8719
-34.0668 -2.4365 -2.5042 0.8720
-33.9344 -3.6483 -2.5025 0.8721
-33.7589 -4.8538 -2.5007 0.8722
-33.5408 -6.0514 -2.4990 0.8722
-33.2803 -7.2397 -2.4972 0.8723
-32.9777 -8.4171 -2.4955 0.8724
-32.6338 -9.5822 -2.4938 0.8725
-29.4509 -12.1990 -2.3373 0.8800
-27.5131 -12.5648 -2.2177 0.8858
-26.4742 -13.2521 -2.1708 0.8880
-27.3435 -16.2236 -2.3312 0.8803
-26.1072 -18.1266 -2.3304 0.8803
-20.1552 -17.4645 -1.9554 0.8986
-23.3430 -21.7331 -2.3385 0.8799
-21.7675 -23.3799 -2.3422 0.8797
-14.4508 -16.6771 -1.6180 0.9153
-19.1838 -25.6266 -2.3472 0.8795
-18.2687 -26.3119 -2.3487 0.8794
-5.2783 -11.5579 -0.9316 0.9503
-4.7857 -11.5537 -0.9169 0.9511
-4.3077 -11.5495 -0.9038 0.9518
-10.1538 -30.5072 -2.3575 0.8790
-7.5311 -29.5065 -2.2328 0.8850
-2.8010 -12.8761 -0.9662 0.9485
-5.7142 -31.6715 -2.3597 0.8789
-1.1490 -32.1702 -2.3603 0.8789
0.0000 -32.1894 -2.3602 0.8789
1.1488 -32.1666 -2.3600 0.8789
2.9828 -20.7456 -1.5368 0.9194
6.8350 -31.4200 -2.3577 0.8790
7.9496 -31.1463 -2.3569 0.8790
10.9502 -29.3587 -2.2975 0.8819
13.4307 -26.8312 -2.2000 0.8866
14.4441 -26.4524 -2.2099 0.8861
15.6487 -26.3745 -2.2486 0.8843
18.2372 -26.2666 -2.3446 0.8796
19.1493 -25.5804 -2.3429 0.8797
20.0350 -24.8619 -2.3412 0.8798
20.8932 -24.1121 -2.3393 0.8799
16.6239 -13.3964 -1.5654 0.9179
23.6070 -16.3907 -2.1072 0.8911
27.2354 -16.1595 -2.3220 0.8807
27.8103 -15.1856 -2.3233 0.8807
28.0356 -14.0336 -2.2988 0.8818
29.7586 -11.0994 -2.3288 0.8804
31.2897 -10.4142 -2.4180 0.8761
32.4893 -9.5397 -2.4828 0.8730
33.3881 -6.0239 -2.4876 0.8728
33.9977 -1.2142 -2.4944 0.8725
-25.7857 -3.7074 -2.5010 0.9006
-25.6232 -4.6229 -2.4997 0.9007
-25.2014 -6.4323 -2.4970 0.9008
-24.9426 -7.3238 -2.4957 0.9008
-24.6524 -8.2051 -2.4944 0.9009
-24.3312 -9.0751 -2.4931 0.9009
-23.9794 -9.9326 -2.4918 0.9010
-23.5976 -10.7767 -2.4906 0.9010
-22.6258 -11.3257 -2.4291 0.9033
-20.9220 -12.4136 -2.3356 0.9069
-20.4558 -13.1461 -2.3344 0.9069
-19.4476 -14.5583 -2.3323 0.9070
-14.7488 -11.8853 -1.8185 0.9267
-13.0641 -12.1631 -1.7137 0.9308
-11.8928 -11.8927 -1.6147 0.9346
-16.5276 -17.7519 -2.3286 0.9071
-14.5587 -19.4481 -2.3323 0.9070
-13.8620 -19.9650 -2.3334 0.9069
-12.4134 -20.9217 -2.3355 0.9069
-4.3231 -11.5907 -1.1876 0.9515
-6.9334 -20.8315 -2.1078 0.9156
-6.8689 -23.3932 -2.3407 0.9067
-6.0307 -23.6281 -2.3411 0.9067
-2.8015 -12.8784 -1.2653 0.9484
-3.4718 -24.1467 -2.3420 0.9066
-1.1825 -16.5329 -1.5913 0.9356
-0.8708 -24.3821 -2.3423 0.9066
0.0000 -24.3971 -2.3422 0.9066
0.8707 -24.3802 -2.3421 0.9066
2.9753 -20.6934 -2.0071 0.9194
6.0273 -23.6146 -2.3398 0.9067
4.8039 -16.3606 -1.6370 0.9338
8.5094 -22.8147 -2.3377 0.9068
10.8870 -21.7494 -2.3350 0.9069
6.4946 -11.8939 -1.3010 0.9470
10.7232 -16.6857 -1.9042 0.9234
13.8453 -19.9410 -2.3306 0.9071
14.5404 -19.4238 -2.3294 0.9071
15.2159 -18.8817 -2.3281 0.9072
15.8708 -18.3159 -2.3267 0.9072
16.5044 -17.7270 -2.3253 0.9073
17.6105 -16.3959 -2.3100 0.9078
15.7603 -12.7004 -1.9432 0.9219
15.8232 -11.8451 -1.8976 0.9236
20.8587 -12.3760 -2.3285 0.9071
21.2962 -11.6286 -2.3295 0.9071
21.7072 -10.8658 -2.3305 0.9071
23.9013 -9.9002 -2.4837 0.9013
24.8581 -7.2990 -2.4873 0.9011
25.1151 -6.4103 -2.4885 0.9011
25.3406 -5.5125 -2.4897 0.9010
25.5340 -4.6069 -2.4910 0.9010
25.8242 -2.7764 -2.4935 0.9009
25.9204 -1.8539 -2.4948 0.9008
25.9837 -0.9280 -2.4961 0.9008
-21.0700 -0.7525 -2.5044 0.9186
-20.7127 -3.7370 -2.5001 0.9187
-20.5573 -4.4720 -2.4990 0.9187
-20.1686 -5.9221 -2.4969 0.9188
-19.6782 -7.3396 -2.4948 0.9189
-18.7577 -9.3894 -2.4917 0.9190
-18.0257 -10.6951 -2.4897 0.9190
-17.4590 -11.2203 -2.4652 0.9198
-16.1658 -11.2241 -2.3377 0.9238
-14.7506 -11.8868 -2.2502 0.9265
-13.6111 -11.7941 -2.1393 0.9300
-11.8428 -11.8428 -1.9895 0.9348
-12.8492 -14.8288 -2.3307 0.9240
-11.7514 -15.6981 -2.3293 0.9241
-9.9977 -16.8502 -2.3274 0.9241
-4.8029 -11.5953 -1.4908 0.9507
-4.3233 -11.5911 -1.4695 0.9514
-5.5261 -18.8202 -2.3300 0.9240
-1.2025 -16.8131 -2.0023 0.9344
0.0000 -19.6256 -2.3312 0.9240
2.0975 -19.5091 -2.3308 0.9240
3.4830 -19.3047 -2.3302 0.9240
4.1691 -19.1648 -2.3298 0.9240
4.8856 -16.6388 -2.0599 0.9325
6.1898 -18.5973 -2.3282 0.9241
6.8478 -18.3597 -2.3276 0.9241
8.1353 -17.8139 -2.3263 0.9241
8.7631 -17.5064 -2.3255 0.9242
6.4953 -11.8952 -1.6099 0.9469
9.9832 -16.8258 -2.3240 0.9242
10.5793 -16.4617 -2.3244 0.9242
11.1623 -16.0767 -2.3249 0.9242
11.7314 -15.6714 -2.3253 0.9242
13.3487 -14.3375 -2.3270 0.9241
13.8555 -13.8556 -2.3276 0.9241
14.3451 -13.3558 -2.3282 0.9241
15.7044 -11.7562 -2.3303 0.9240
16.1191 -11.1917 -2.3310 0.9240
16.5137 -10.6127 -2.3317 0.9240
18.3571 -10.0237 -2.4845 0.9192
18.7098 -9.3655 -2.4854 0.9192
19.0391 -8.6949 -2.4863 0.9191
19.6255 -7.3199 -2.4881 0.9191
19.8820 -6.6174 -2.4891 0.9191
20.1133 -5.9058 -2.4900 0.9190
20.4999 -4.4595 -2.4920 0.9190
20.6544 -3.7265 -2.4931 0.9189
20.7829 -2.9881 -2.4941 0.9189
20.8850 -2.2454 -2.4951 0.9189
-17.6789 0.0000 -2.5049 0.9311
-17.6212 -1.2603 -2.5031 0.9311
-17.4737 -2.5123 -2.5013 0.9312
-17.3666 -3.1333 -2.5004 0.9312
-16.9140 -4.9664 -2.4977 0.9313
-15.7359 -7.8768 -2.4933 0.9314
-15.1238 -8.9734 -2.4917 0.9314
-14.7890 -9.5043 -2.4909 0.9314
-14.0644 -10.5285 -2.4893 0.9315
-12.8589 -11.1423 -2.4108 0.9336
-10.7863 -12.4481 -2.3338 0.9356
-10.3324 -12.8218 -2.3332 0.9356
-9.8657 -13.1791 -2.3326 0.9357
-7.8825 -14.4357 -2.3305 0.9357
-7.3608 -14.7049 -2.3300 0.9357
-5.4041 -11.8334 -1.8432 0.9488
-5.1895 -15.5918 -2.3283 0.9358
-3.5823 -12.2000 -1.8016 0.9499
-3.1095 -12.1830 -1.7815 0.9505
-2.9162 -16.1633 -2.3271 0.9358
-1.7575 -12.2239 -1.7498 0.9513
-1.7553 -16.3271 -2.3267 0.9358
-0.5860 -16.4085 -2.3264 0.9358
0.0000 -16.4182 -2.3263 0.9358
2.3364 -16.2500 -2.3261 0.9358
2.9150 -16.1565 -2.3262 0.9358
4.6259 -15.7542 -2.3264 0.9358
5.1856 -15.5801 -2.3266 0.9358
7.3529 -14.6892 -2.3275 0.9358
6.4958 -11.8962 -1.9205 0.9467
8.3843 -14.1310 -2.3281 0.9358
10.7694 -12.4286 -2.3301 0.9357
11.2085 -12.0388 -2.3306 0.9357
12.0441 -11.2135 -2.3317 0.9357
12.4396 -10.7790 -2.3322 0.9357
14.0045 -10.4837 -2.4787 0.9318
14.4074 -10.0033 -2.4852 0.9316
15.0927 -8.9549 -2.4866 0.9316
16.6820 -5.5523 -2.4911 0.9314
16.8751 -4.9550 -2.4920 0.9314
17.0469 -4.3510 -2.4928 0.9314
17.5167 -1.8832 -2.4962 0.9313
17.5790 -1.2573 -2.4971 0.9313
17.6189 -0.6293 -2.4980 0.9313
-15.2028 0.0000 -2.5045 0.9402
-15.1884 -0.5425 -2.5037 0.9402
-15.1546 -1.0839 -2.5029 0.9403
-15.1016 -1.6236 -2.5022 0.9403
-14.8277 -3.2256 -2.4998 0.9403
-14.5508 -4.2725 -2.4983 0.9404
-14.3847 -4.7877 -2.4975 0.9404
-14.2003 -5.2964 -2.4968 0.9404
-13.9980 -5.7982 -2.4960 0.9404
-13.7780 -6.2922 -2.4953 0.9404
-13.5407 -6.7780 -2.4945 0.9405
-13.2863 -7.2549 -2.4938 0.9405
-13.0152 -7.7223 -2.4931 0.9405
-12.7276 -8.1796 -2.4924 0.9405
-12.4242 -8.6263 -2.4917 0.9405
-12.1051 -9.0617 -2.4910 0.9405
-11.7708 -9.4855 -2.4904 0.9406
-11.4218 -9.8970 -2.4897 0.9406
-9.6002 -11.0792 -2.4151 0.9423
-8.9284 -11.0794 -2.3441 0.9439
-8.4940 -11.3466 -2.3350 0.9442
-8.0819 -11.6401 -2.3345 0.9442
-7.6597 -11.9188 -2.3340 0.9442
-6.3383 -12.6623 -2.3327 0.9442
-5.3580 -11.7323 -2.1248 0.9491
-4.8033 -11.5961 -2.0677 0.9504
-2.6567 -12.2128 -2.0590 0.9506
-2.2045 -12.2189 -2.0454 0.9509
-1.7538 -12.1979 -2.0301 0.9513
-1.5118 -14.0619 -2.3299 0.9443
0.0000 -14.1407 -2.3295 0.9443
0.5047 -14.1313 -2.3295 0.9443
1.0087 -14.1040 -2.3294 0.9443
1.5115 -14.0588 -2.3294 0.9443
3.0058 -13.8173 -2.3295 0.9443
3.4971 -13.7016 -2.3296 0.9443
3.9841 -13.5687 -2.3297 0.9443
4.9426 -13.2516 -2.3300 0.9443
5.4128 -13.0677 -2.3301 0.9443
7.6512 -11.9056 -2.3314 0.9442
8.0724 -11.6265 -2.3317 0.9442
8.4835 -11.3327 -2.3321 0.9442
8.8840 -11.0244 -2.3325 0.9442
9.2965 -10.7288 -2.3387 0.9441
11.4040 -9.8816 -2.4859 0.9407
11.7519 -9.4703 -2.4864 0.9406
12.0851 -9.0468 -2.4869 0.9406
12.4032 -8.6117 -2.4875 0.9406
12.9921 -7.7086 -2.4887 0.9406
13.5157 -6.7655 -2.4899 0.9406
13.9714 -5.7871 -2.4913 0.9405
14.1729 -5.2862 -2.4919 0.9405
14.5220 -4.2641 -2.4933 0.9405
14.7978 -3.2191 -2.4948 0.9405
14.9076 -2.6896 -2.4955 0.9404
14.9986 -2.1565 -2.4963 0.9404
15.0706 -1.6203 -2.4970 0.9404
-13.3107 -0.4754 -2.5035 0.9472
-13.2817 -0.9499 -2.5028 0.9472
-13.2357 -1.4230 -2.5021 0.9473
-13.1729 -1.8940 -2.5014 0.9473
-12.9971 -2.8273 -2.5001 0.9473
-12.8844 -3.2886 -2.4994 0.9473
-12.4491 -4.6433 -2.4974 0.9474
-12.2722 -5.0833 -2.4967 0.9474
-11.8721 -5.9428 -2.4954 0.9474
-11.4121 -6.7711 -2.4942 0.9474
-10.3225 -8.3183 -2.4918 0.9475
-9.0256 -9.6942 -2.4896 0.9475
-8.3077 -10.3093 -2.4886 0.9475
-7.9324 -10.5964 -2.4880 0.9476
-7.0837 -11.0224 -2.4627 0.9481
-6.5396 -11.0219 -2.4089 0.9492
-6.0178 -11.0208 -2.3602 0.9502
-5.1594 -11.2976 -2.3345 0.9507
-4.3375 -11.6292 -2.3329 0.9507
-3.4974 -11.9110 -2.3333 0.9507
-2.6334 -12.1056 -2.3286 0.9508
-1.3264 -12.3375 -2.3323 0.9508
-0.4428 -12.3994 -2.3321 0.9508
0.0000 -12.4069 -2.3320 0.9508
0.4428 -12.3986 -2.3319 0.9508
0.8851 -12.3747 -2.3319 0.9508
1.7656 -12.2799 -2.3319 0.9508
2.6372 -12.1231 -2.3320 0.9508
3.4956 -11.9049 -2.3321 0.9508
4.3364 -11.6265 -2.3324 0.9507
5.1556 -11.2891 -2.3327 0.9507
5.5557 -11.0989 -2.3329 0.9507
5.9489 -10.8946 -2.3331 0.9507
6.3985 -10.7841 -2.3569 0.9502
6.9184 -10.7653 -2.4053 0.9492
7.4602 -10.7448 -2.4587 0.9482
7.9092 -10.5655 -2.4807 0.9477
8.2971 -10.2961 -2.4854 0.9476
9.0146 -9.6823 -2.4866 0.9476
9.3559 -9.3559 -2.4870 0.9476
10.0030 -8.6677 -2.4878 0.9476
10.3079 -8.3067 -2.4883 0.9475
10.5999 -7.9350 -2.4888 0.9475
11.1435 -7.1615 -2.4898 0.9475
12.4280 -4.6354 -2.4932 0.9474
12.8618 -3.2828 -2.4950 0.9474
13.0700 -2.3581 -2.4963 0.9474
13.1493 -1.8906 -2.4970 0.9474
13.2866 -0.4745 -2.4990 0.9473
-11.8352 -0.4227 -2.5033 0.9527
-11.6433 -2.1007 -2.5009 0.9528
-11.4582 -2.9245 -2.4997 0.9528
-10.9150 -4.5211 -2.4973 0.9528
-10.7442 -4.9067 -2.4967 0.9529
-10.5598 -5.2858 -2.4962 0.9529
-10.1513 -6.0230 -2.4950 0.9529
-9.9276 -6.3801 -2.4945 0.9529
-9.4431 -7.0690 -2.4934 0.9529
-8.9111 -7.7215 -2.4924 0.9529
-8.0300 -8.6249 -2.4910 0.9530
-7.3917 -9.1725 -2.4901 0.9530
-7.0584 -9.4289 -2.4897 0.9530
-6.7162 -9.6732 -2.4892 0.9530
-5.6412 -10.3311 -2.4881 0.9530
-5.2681 -10.5244 -2.4878 0.9530
-4.8830 -10.6924 -2.4847 0.9531
-4.0891 -10.9632 -2.4733 0.9533
-3.6480 -10.9605 -2.4418 0.9539
-2.7958 -10.9538 -2.3896 0.9548
-2.3820 -10.9498 -2.3687 0.9552
0.3941 -11.0342 -2.3339 0.9559
1.5713 -10.9286 -2.3338 0.9559
1.9624 -10.8769 -2.3363 0.9558
3.1829 -10.8398 -2.3881 0.9549
3.6037 -10.8274 -2.4121 0.9544
4.0334 -10.8141 -2.4397 0.9539
4.4735 -10.7999 -2.4710 0.9533
4.8743 -10.6731 -2.4802 0.9532
5.2583 -10.5047 -2.4831 0.9531
7.3842 -9.1632 -2.4876 0.9530
7.7076 -8.8950 -2.4879 0.9530
8.0213 -8.6154 -2.4882 0.9530
9.1715 -7.3908 -2.4898 0.9530
9.4310 -7.0600 -2.4902 0.9530
9.9142 -6.3715 -2.4911 0.9530
10.1372 -6.0147 -2.4916 0.9530
10.3475 -5.6501 -2.4921 0.9529
10.5446 -5.2783 -2.4926 0.9529
10.7285 -4.8995 -2.4931 0.9529
11.0554 -4.1234 -2.4941 0.9529
11.5399 -2.5104 -2.4964 0.9529
11.6950 -1.6815 -2.4975 0.9528
-10.6531 0.0000 -2.5037 0.9572
-10.5851 -1.1380 -2.5021 0.9572
-10.4724 -1.8894 -2.5010 0.9572
-10.3064 -2.6306 -2.4999 0.9572
-10.2038 -2.9961 -2.4994 0.9572
-10.0882 -3.3577 -2.4988 0.9573
-9.8188 -4.0671 -2.4978 0.9573
-9.6654 -4.4140 -2.4973 0.9573
-9.4997 -4.7552 -2.4967 0.9573
-9.3220 -5.0902 -2.4962 0.9573
-9.1326 -5.4186 -2.4957 0.9573
-8.2621 -6.6580 -2.4938 0.9573
-8.0177 -6.9474 -2.4934 0.9573
-7.7633 -7.2279 -2.4929 0.9574
-7.4991 -7.4991 -2.4925 0.9574
-6.9427 -8.0123 -2.4917 0.9574
-5.7283 -8.9134 -2.4902 0.9574
-5.0765 -9.2969 -2.4895 0.9574
-4.7408 -9.4710 -2.4892 0.9574
-4.3993 -9.6331 -2.4889 0.9574
-3.7001 -9.9203 -2.4884 0.9574
-3.3433 -10.0450 -2.4881 0.9574
-2.9824 -10.1571 -2.4879 0.9574
-2.2498 -10.3423 -2.4875 0.9574
-1.8791 -10.4153 -2.4874 0.9574
-1.5060 -10.4743 -2.4870 0.9575
0.0000 -10.5713 -2.4845 0.9575
0.3773 -10.5643 -2.4844 0.9575
0.7542 -10.5449 -2.4846 0.9575
1.1303 -10.5129 -2.4850 0.9575
1.5051 -10.4685 -2.4856 0.9575
2.6168 -10.2525 -2.4868 0.9575
2.9812 -10.1529 -2.4869 0.9575
3.3418 -10.0405 -2.4870 0.9575
4.7378 -9.4649 -2.4876 0.9574
6.0387 -8.6973 -2.4885 0.9574
6.3459 -8.4772 -2.4887 0.9574
6.6452 -8.2462 -2.4890 0.9574
6.9361 -8.0047 -2.4893 0.9574
7.2183 -7.7530 -2.4896 0.9574
8.0090 -6.9398 -2.4906 0.9574
8.2528 -6.6505 -2.4910 0.9574
8.4862 -6.3527 -2.4914 0.9574
8.9207 -5.7330 -2.4922 0.9574
9.1212 -5.4119 -2.4926 0.9574
9.4874 -4.7491 -2.4935 0.9573
9.8057 -4.0616 -2.4944 0.9573
9.9463 -3.7098 -2.4949 0.9573
10.0743 -3.3531 -2.4954 0.9573
10.1896 -2.9919 -2.4959 0.9573
10.2920 -2.6269 -2.4964 0.9573
10.4575 -1.8867 -2.4974 0.9573
10.5203 -1.5126 -2.4980 0.9573
10.5699 -1.1364 -2.4985 0.9573
-9.6612 -0.3450 -2.5031 0.9608
-9.6408 -0.6895 -2.5026 0.9609
-9.6082 -1.0330 -2.5021 0.9609
-9.5633 -1.3750 -2.5016 0.9609
-9.3560 -2.3880 -2.5001 0.9609
-9.1582 -3.0481 -2.4991 0.9609
-8.6246 -4.3172 -2.4972 0.9609
-8.4635 -4.6214 -2.4968 0.9609
-8.2916 -4.9196 -2.4963 0.9609
-7.5019 -6.0454 -2.4946 0.9610
-7.2801 -6.3082 -2.4941 0.9610
-6.8094 -6.8094 -2.4933 0.9610
-5.7676 -7.7046 -2.4919 0.9610
-5.4882 -7.9045 -2.4916 0.9610
-3.3603 -9.0092 -2.4896 0.9610
-3.0363 -9.1226 -2.4894 0.9611
-2.7085 -9.2244 -2.4892 0.9611
-2.0433 -9.3928 -2.4889 0.9611
-1.7066 -9.4592 -2.4887 0.9611
-1.3678 -9.5136 -2.4886 0.9611
-0.3430 -9.6041 -2.4883 0.9611
0.6855 -9.5852 -2.4881 0.9611
1.0272 -9.5545 -2.4881 0.9611
1.3676 -9.5118 -2.4881 0.9611
2.0427 -9.3902 -2.4882 0.9611
2.7075 -9.2210 -2.4883 0.9611
3.6782 -8.8799 -2.4886 0.9611
3.9930 -8.7435 -2.4887 0.9611
4.3028 -8.5959 -2.4889 0.9611
4.9058 -8.2683 -2.4893 0.9611
5.1982 -8.0886 -2.4895 0.9611
6.2989 -7.2693 -2.4905 0.9610
6.5551 -7.0407 -2.4907 0.9610
6.8030 -6.8030 -2.4910 0.9610
7.0424 -6.5567 -2.4913 0.9610
7.4942 -6.0392 -2.4920 0.9610
7.7061 -5.7687 -2.4924 0.9610
8.2823 -4.9141 -2.4935 0.9610
8.4537 -4.6161 -2.4939 0.9610
8.6145 -4.3121 -2.4943 0.9610
8.9032 -3.6878 -2.4951 0.9610
9.0307 -3.3683 -2.4956 0.9610
9.1468 -3.0443 -2.4960 0.9610
9.2513 -2.7164 -2.4964 0.9609
9.3441 -2.3849 -2.4969 0.9609
9.5956 -1.0316 -2.4988 0.9609
-8.8358 -0.3156 -2.5030 0.9639
-8.7467 -1.2576 -2.5016 0.9639
-8.6316 -1.8777 -2.5007 0.9639
-8.5575 -2.1842 -2.5002 0.9639
-8.3769 -2.7881 -2.4994 0.9640
-7.8894 -3.9492 -2.4976 0.9640
-7.7421 -4.2275 -2.4972 0.9640
-6.6602 -5.7711 -2.4948 0.9640
-6.2297 -6.2297 -2.4941 0.9640
-6.0025 -6.4472 -2.4937 0.9640
-5.5258 -6.8571 -2.4931 0.9641
-5.0213 -7.2321 -2.4924 0.9641
-4.7594 -7.4058 -2.4921 0.9641
-4.2180 -7.7248 -2.4916 0.9641
-3.3672 -8.1290 -2.4909 0.9641
-2.7782 -8.3472 -2.4905 0.9641
-2.4783 -8.4404 -2.4903 0.9641
-2.1753 -8.5229 -2.4901 0.9641
-1.8696 -8.5945 -2.4900 0.9641
-1.2516 -8.7051 -2.4897 0.9641
-0.6274 -8.7715 -2.4895 0.9641
-0.3139 -8.7880 -2.4894 0.9641
1.2514 -8.7036 -2.4893 0.9641
1.5613 -8.6535 -2.4893 0.9641
1.8692 -8.5924 -2.4893 0.9641
2.1747 -8.5203 -2.4894 0.9641
2.7772 -8.3440 -2.4895 0.9641
3.0733 -8.2399 -2.4896 0.9641
3.3656 -8.1253 -2.4897 0.9641
3.6537 -8.0004 -2.4899 0.9641
3.9371 -7.8654 -2.4900 0.9641
4.2156 -7.7203 -2.4902 0.9641
4.4888 -7.5655 -2.4903 0.9641
5.2731 -7.0440 -2.4910 0.9641
5.7633 -6.6512 -2.4914 0.9641
5.9976 -6.4419 -2.4917 0.9641
6.2244 -6.2244 -2.4920 0.9641
6.6541 -5.7658 -2.4925 0.9641
7.0503 -5.2778 -2.4932 0.9641
7.2351 -5.0234 -2.4935 0.9640
7.4108 -4.7627 -2.4938 0.9640
7.7339 -4.2230 -2.4946 0.9640
7.8809 -3.9449 -2.4949 0.9640
8.2613 -3.0813 -2.4961 0.9640
8.6215 -1.8755 -2.4978 0.9640
8.7363 -1.2561 -2.4986 0.9640
8.7771 -0.9436 -2.4991 0.9640
8.8252 -0.3152 -2.4999 0.9640
-8.1322 -0.2904 -2.5029 0.9665
-8.1153 -0.5804 -2.5025 0.9665
-8.0880 -0.8696 -2.5020 0.9665
-8.0505 -1.1575 -2.5016 0.9665
-8.0027 -1.4438 -2.5012 0.9665
-7.9448 -1.7283 -2.5008 0.9665
-7.8767 -2.0104 -2.5004 0.9666
-7.7987 -2.2899 -2.5000 0.9666
-7.7107 -2.5664 -2.4996 0.9666
-7.5055 -3.1089 -2.4987 0.9666
-7.1268 -3.8915 -2.4976 0.9666
-6.9823 -4.1428 -2.4972 0.9666
-6.8290 -4.3887 -2.4968 0.9666
-6.6670 -4.6290 -2.4964 0.9666
-6.4966 -4.8633 -2.4961 0.9666
-5.7352 -5.7352 -2.4947 0.9666
-5.5261 -5.9355 -2.4944 0.9666
-4.6230 -6.6583 -2.4932 0.9666
-4.3819 -6.8184 -2.4929 0.9666
-3.8835 -7.1121 -2.4924 0.9667
-3.1002 -7.4845 -2.4918 0.9667
-2.2819 -7.7713 -2.4912 0.9667
-2.0029 -7.8473 -2.4910 0.9667
-1.7214 -7.9134 -2.4909 0.9667
-1.4378 -7.9694 -2.4908 0.9667
-1.1524 -8.0152 -2.4907 0.9667
-0.8656 -8.0509 -2.4906 0.9667
0.0000 -8.0966 -2.4904 0.9667
0.5776 -8.0758 -2.4903 0.9667
1.4375 -7.9678 -2.4903 0.9667
3.6251 -7.2420 -2.4910 0.9667
4.6201 -6.6541 -2.4916 0.9667
4.8550 -6.4855 -2.4918 0.9667
5.3062 -6.1237 -2.4923 0.9667
5.5220 -5.9310 -2.4925 0.9667
5.7307 -5.7307 -2.4928 0.9667
5.9322 -5.5231 -2.4930 0.9666
6.3125 -5.0869 -2.4936 0.9666
6.4908 -4.8590 -2.4939 0.9666
6.8226 -4.3846 -2.4945 0.9666
6.9757 -4.1389 -2.4948 0.9666
7.2551 -3.6317 -2.4955 0.9666
7.3812 -3.3709 -2.4958 0.9666
7.6051 -2.8365 -2.4966 0.9666
7.7026 -2.5637 -2.4969 0.9666
7.8683 -2.0083 -2.4977 0.9666
7.9940 -1.4423 -2.4985 0.9666
8.0417 -1.1562 -2.4989 0.9666
8.0791 -0.8686 -2.4993 0.9666
8.1063 -0.5798 -2.4997 0.9666
8.1232 -0.2901 -2.5001 0.9666
-7.5090 -0.5371 -2.5024 0.9688
-7.4052 -1.3360 -2.5013 0.9688
-7.3516 -1.5992 -2.5009 0.9688
-7.2166 -2.1190 -2.5001 0.9688
-7.0449 -2.6276 -2.4994 0.9688
-6.8375 -3.1226 -2.4986 0.9688
-6.7207 -3.3641 -2.4982 0.9688
-6.4617 -3.8339 -2.4975 0.9688
-6.3199 -4.0615 -2.4972 0.9688
-6.0124 -4.5008 -2.4965 0.9688
-5.8472 -4.7119 -2.4962 0.9688
-5.6745 -4.9170 -2.4959 0.9688
-4.4965 -6.0066 -2.4941 0.9689
-3.8275 -6.4509 -2.4934 0.9689
-3.3570 -6.7063 -2.4929 0.9689
-3.1152 -6.8213 -2.4927 0.9689
-1.0667 -7.4191 -2.4915 0.9689
-0.8012 -7.4521 -2.4914 0.9689
-0.2675 -7.4899 -2.4913 0.9689
0.0000 -7.4945 -2.4912 0.9689
0.8011 -7.4513 -2.4911 0.9689
1.0665 -7.4180 -2.4911 0.9689
1.5931 -7.3231 -2.4912 0.9689
1.8535 -7.2617 -2.4912 0.9689
2.1115 -7.1911 -2.4913 0.9689
2.3669 -7.1114 -2.4914 0.9689
2.6193 -7.0226 -2.4914 0.9689
2.8684 -6.9249 -2.4915 0.9689
3.3554 -6.7033 -2.4918 0.9689
3.8255 -6.4475 -2.4921 0.9689
4.0535 -6.3073 -2.4922 0.9689
4.2763 -6.1590 -2.4924 0.9689
4.4937 -6.0029 -2.4926 0.9689
5.1110 -5.4896 -2.4932 0.9689
5.3041 -5.3041 -2.4934 0.9689
5.6701 -4.9132 -2.4939 0.9689
5.8425 -4.7082 -2.4942 0.9689
6.0075 -4.4971 -2.4945 0.9689
6.1649 -4.2803 -2.4947 0.9689
6.3144 -4.0580 -2.4950 0.9689
6.4560 -3.8305 -2.4953 0.9689
6.5895 -3.5981 -2.4956 0.9688
6.7145 -3.3611 -2.4960 0.9688
7.0382 -2.6251 -2.4970 0.9688
7.1284 -2.3725 -2.4973 0.9688
7.2815 -1.8585 -2.4980 0.9688
-6.9996 0.0000 -2.5031 0.9707
-6.9941 -0.2498 -2.5027 0.9707
-6.9797 -0.4992 -2.5024 0.9707
-6.9565 -0.7479 -2.5020 0.9707
-6.7754 -1.7293 -2.5006 0.9707
-6.5489 -2.4426 -2.4995 0.9707
-6.4567 -2.6744 -2.4992 0.9707
-6.2477 -3.1274 -2.4985 0.9708
-6.1313 -3.3479 -2.4982 0.9708
-6.0071 -3.5642 -2.4978 0.9708
-5.5895 -4.1843 -2.4969 0.9708
-5.2755 -4.5713 -2.4963 0.9708
-5.1084 -4.7561 -2.4960 0.9708
-4.7550 -5.1072 -2.4954 0.9708
-4.5692 -5.2731 -2.4952 0.9708
-4.3776 -5.4323 -2.4949 0.9708
-3.9782 -5.7296 -2.4944 0.9708
-3.7708 -5.8674 -2.4942 0.9708
-2.8964 -6.3422 -2.4933 0.9708
-1.9638 -6.6881 -2.4927 0.9708
-1.7238 -6.7536 -2.4926 0.9708
-1.2375 -6.8587 -2.4923 0.9708
-0.9918 -6.8982 -2.4922 0.9708
-0.7449 -6.9290 -2.4921 0.9708
-0.2487 -6.9641 -2.4920 0.9708
0.2487 -6.9639 -2.4919 0.9708
0.7449 -6.9283 -2.4919 0.9708
0.9917 -6.8973 -2.4919 0.9708
1.4812 -6.8091 -2.4919 0.9708
1.7234 -6.7520 -2.4920 0.9708
1.9633 -6.6863 -2.4920 0.9708
2.2007 -6.6122 -2.4921 0.9708
2.4354 -6.5296 -2.4922 0.9708
2.8953 -6.3397 -2.4924 0.9708
3.3405 -6.1176 -2.4926 0.9708
3.5569 -5.9948 -2.4927 0.9708
3.9760 -5.7265 -2.4931 0.9708
4.1781 -5.5813 -2.4932 0.9708
4.3750 -5.4291 -2.4934 0.9708
4.5664 -5.2699 -2.4936 0.9708
4.9315 -4.9315 -2.4940 0.9708
5.1048 -4.7528 -2.4943 0.9708
5.2717 -4.5680 -2.4945 0.9708
5.5853 -4.1811 -2.4950 0.9708
6.0022 -3.5613 -2.4958 0.9708
6.1262 -3.3451 -2.4961 0.9708
6.4510 -2.6721 -2.4970 0.9708
6.5431 -2.4404 -2.4973 0.9708
6.6269 -2.2056 -2.4976 0.9708
6.7691 -1.7277 -2.4983 0.9708
6.8274 -1.4852 -2.4986 0.9708
6.8770 -1.2407 -2.4990 0.9708
6.9178 -0.9946 -2.4993 0.9707
-6.5316 0.0000 -2.5030 0.9724
-6.5265 -0.2331 -2.5027 0.9724
-6.4915 -0.6979 -2.5020 0.9724
-6.4616 -0.9290 -2.5017 0.9724
-6.4235 -1.1589 -2.5013 0.9724
-6.2603 -1.8382 -2.5003 0.9724
-6.1899 -2.0602 -2.5000 0.9724
-6.1116 -2.2795 -2.4997 0.9724
-6.0256 -2.4959 -2.4994 0.9724
-5.7221 -3.1245 -2.4984 0.9725
-5.3534 -3.7169 -2.4975 0.9725
-5.2167 -3.9052 -2.4972 0.9725
-5.0734 -4.0884 -2.4969 0.9725
-4.9237 -4.2664 -2.4967 0.9725
-4.7677 -4.4389 -2.4964 0.9725
-4.6058 -4.6058 -2.4961 0.9725
-4.0858 -5.0702 -2.4954 0.9725
-3.9019 -5.2123 -2.4951 0.9725
-3.7130 -5.3478 -2.4949 0.9725
-3.5195 -5.4764 -2.4947 0.9725
-3.3215 -5.5981 -2.4945 0.9725
-3.1193 -5.7126 -2.4943 0.9725
-2.7034 -5.9197 -2.4939 0.9725
-1.8330 -6.2427 -2.4933 0.9725
-1.3829 -6.3569 -2.4931 0.9725
-0.9258 -6.4389 -2.4929 0.9725
-0.6953 -6.4676 -2.4928 0.9725
-0.4640 -6.4881 -2.4927 0.9725
0.4640 -6.4877 -2.4926 0.9725
0.6953 -6.4670 -2.4926 0.9725
1.6086 -6.3024 -2.4926 0.9725
3.1180 -5.7102 -2.4932 0.9725
3.5178 -5.4738 -2.4935 0.9725
3.7112 -5.3451 -2.4936 0.9725
4.0836 -5.0674 -2.4940 0.9725
4.2621 -4.9188 -2.4942 0.9725
4.9204 -4.2635 -2.4950 0.9725
5.0699 -4.0856 -2.4952 0.9725
5.2130 -3.9024 -2.4954 0.9725
5.3495 -3.7142 -2.4957 0.9725
5.4792 -3.5213 -2.4959 0.9725
5.6020 -3.3238 -2.4962 0.9725
5.7176 -3.1221 -2.4965 0.9725
5.9271 -2.7068 -2.4970 0.9725
6.1847 -2.0585 -2.4979 0.9725
6.2550 -1.8366 -2.4982 0.9725
6.3173 -1.6124 -2.4985 0.9725
6.3716 -1.3861 -2.4988 0.9725
6.4179 -1.1579 -2.4992 0.9725
6.4858 -0.6973 -2.4998 0.9724
6.5074 -0.4654 -2.5001 0.9724
-6.0984 -0.4362 -2.5023 0.9739
-6.0782 -0.6535 -2.5020 0.9739
-6.0503 -0.8699 -2.5017 0.9739
-6.0146 -1.0852 -2.5014 0.9739
-5.9713 -1.2990 -2.5011 0.9739
-5.7961 -1.9291 -2.5001 0.9739
-5.7228 -2.1345 -2.4998 0.9739
-5.2498 -3.1149 -2.4984 0.9740
-5.0131 -3.4807 -2.4978 0.9740
-4.7510 -3.8286 -2.4973 0.9740
-4.6108 -3.9953 -2.4970 0.9740
-4.3132 -4.3132 -2.4965 0.9740
-3.9937 -4.6090 -2.4960 0.9740
-3.8263 -4.7482 -2.4958 0.9740
-3.4773 -5.0082 -2.4954 0.9740
-3.2960 -5.1287 -2.4951 0.9740
-2.9213 -5.3500 -2.4948 0.9740
-2.3322 -5.6304 -2.4943 0.9740
-2.1296 -5.7098 -2.4941 0.9740
-1.7167 -5.8465 -2.4939 0.9740
-1.5069 -5.9038 -2.4937 0.9740
-0.6512 -6.0573 -2.4934 0.9740
0.0000 -6.0918 -2.4932 0.9740
0.2174 -6.0878 -2.4932 0.9740
1.0816 -5.9949 -2.4932 0.9740
1.7163 -5.8451 -2.4933 0.9740
1.9239 -5.7803 -2.4933 0.9740
2.1290 -5.7081 -2.4934 0.9740
2.3315 -5.6287 -2.4935 0.9740
4.1537 -4.4614 -2.4948 0.9740
4.3107 -4.3107 -2.4950 0.9740
4.4621 -4.1544 -2.4952 0.9740
4.6079 -3.9928 -2.4954 0.9740
4.7479 -3.8261 -2.4956 0.9740
4.8819 -3.6545 -2.4959 0.9740
5.1311 -3.2976 -2.4963 0.9740
5.2461 -3.1126 -2.4966 0.9740
5.4559 -2.7310 -2.4971 0.9740
5.5504 -2.5348 -2.4973 0.9740
5.7184 -2.1328 -2.4979 0.9740
5.8573 -1.7199 -2.4984 0.9740
5.9665 -1.2979 -2.4990 0.9740
6.0453 -0.8692 -2.4996 0.9739
6.0732 -0.6529 -2.4999 0.9739
6.0934 -0.4358 -2.5002 0.9739
-5.7430 0.0000 -2.5029 0.9753
-5.7081 -0.6137 -2.5020 0.9753
-5.6078 -1.2199 -2.5011 0.9753
-5.5600 -1.4191 -2.5008 0.9753
-5.5052 -1.6165 -2.5005 0.9753
-5.1278 -2.5668 -2.4991 0.9753
-4.3305 -3.7524 -2.4973 0.9753
-4.0510 -4.0510 -2.4968 0.9753
-3.9035 -4.1927 -2.4966 0.9753
-3.4321 -4.5847 -2.4959 0.9753
-3.0958 -4.8171 -2.4956 0.9753
-2.9217 -4.9242 -2.4954 0.9753
-2.7439 -5.0250 -2.4952 0.9753
-2.3781 -5.2073 -2.4949 0.9753
-2.1906 -5.2885 -2.4947 0.9753
-2.0003 -5.3630 -2.4946 0.9753
-1.8075 -5.4307 -2.4945 0.9753
-1.6125 -5.4915 -2.4943 0.9753
-0.8144 -5.6643 -2.4940 0.9753
0.2042 -5.7183 -2.4937 0.9753
0.4082 -5.7073 -2.4937 0.9753
0.8143 -5.6636 -2.4937 0.9753
1.0159 -5.6310 -2.4937 0.9753
1.2163 -5.5912 -2.4937 0.9753
1.6121 -5.4903 -2.4938 0.9753
2.5617 -5.1176 -2.4942 0.9753
3.7491 -4.3267 -2.4951 0.9753
3.9014 -4.1904 -2.4953 0.9753
4.0488 -4.0488 -2.4954 0.9753
4.1911 -3.9020 -2.4956 0.9753
4.3280 -3.7502 -2.4958 0.9753
4.5853 -3.4325 -2.4962 0.9753
5.2952 -2.1933 -2.4979 0.9753
5.3707 -2.0031 -2.4981 0.9753
5.4393 -1.8104 -2.4984 0.9753
5.6441 -1.0183 -2.4995 0.9753
5.7341 -0.2048 -2.5006 0.9753
-5.3496 -0.7692 -2.5017 0.9765
-5.2799 -1.1486 -2.5012 0.9765
-5.1834 -1.5220 -2.5006 0.9765
-4.9894 -2.0667 -2.4998 0.9765
-4.9119 -2.2432 -2.4995 0.9765
-4.7384 -2.5874 -2.4990 0.9765
-4.6426 -2.7546 -2.4988 0.9765
-4.5408 -2.9182 -2.4985 0.9765
-4.4333 -3.0781 -2.4983 0.9765
-4.3202 -3.2341 -2.4980 0.9765
-4.0777 -3.5334 -2.4976 0.9765
-3.9487 -3.6763 -2.4973 0.9765
-3.8146 -3.8146 -2.4971 0.9765
-3.5322 -4.0763 -2.4967 0.9765
-3.2318 -4.3172 -2.4963 0.9765
-3.0755 -4.4295 -2.4961 0.9765
-2.4131 -4.8208 -2.4954 0.9765
-2.2394 -4.9036 -2.4953 0.9765
-1.5184 -5.1713 -2.4948 0.9765
-1.3328 -5.2220 -2.4947 0.9765
-0.3844 -5.3749 -2.4943 0.9765
-0.1923 -5.3851 -2.4943 0.9765
-0.0000 -5.3884 -2.4942 0.9765
0.3844 -5.3746 -2.4942 0.9765
0.5760 -5.3574 -2.4942 0.9765
0.9567 -5.3027 -2.4942 0.9765
1.3326 -5.2211 -2.4942 0.9765
1.7017 -5.1129 -2.4943 0.9765
1.8832 -5.0490 -2.4944 0.9765
2.0622 -4.9787 -2.4944 0.9765
2.2387 -4.9021 -2.4945 0.9765
2.4123 -4.8192 -2.4946 0.9765
2.7502 -4.6352 -2.4948 0.9765
3.8126 -3.8126 -2.4958 0.9765
4.0755 -3.5314 -2.4962 0.9765
4.1992 -3.3840 -2.4964 0.9765
4.4307 -3.0763 -2.4968 0.9765
4.5380 -2.9164 -2.4970 0.9765
4.6396 -2.7528 -2.4972 0.9765
4.7353 -2.5857 -2.4974 0.9765
4.8251 -2.4152 -2.4976 0.9765
4.9086 -2.2417 -2.4979 0.9765
5.0570 -1.8862 -2.4983 0.9765
5.1216 -1.7046 -2.4986 0.9765
5.1797 -1.5209 -2.4988 0.9765
5.2313 -1.3352 -2.4991 0.9765
5.3143 -0.9588 -2.4996 0.9765
5.3457 -0.7686 -2.4999 0.9765
5.3703 -0.5774 -2.5002 0.9765
5.3990 -0.1928 -2.5007 0.9765
-5.1022 0.0000 -2.5028 0.9775
-5.0985 -0.1821 -2.5025 0.9775
-5.0714 -0.5452 -2.5020 0.9775
-5.0186 -0.9054 -2.5015 0.9775
-4.8915 -1.4363 -2.5007 0.9775
-4.8366 -1.6098 -2.5004 0.9775
-4.7085 -1.9503 -2.4999 0.9775
-4.6354 -2.1169 -2.4997 0.9776
-4.4717 -2.4417 -2.4992 0.9776
-4.3813 -2.5995 -2.4989 0.9776
-4.1839 -2.9049 -2.4985 0.9776
-4.0772 -3.0521 -2.4982 0.9776
-3.6001 -3.6001 -2.4974 0.9776
-3.3335 -3.8471 -2.4970 0.9776
-3.1939 -3.9633 -2.4968 0.9776
-3.0501 -4.0745 -2.4966 0.9776
-2.5966 -4.3763 -2.4961 0.9776
-2.4386 -4.4659 -2.4959 0.9776
-2.2775 -4.5498 -2.4958 0.9776
-2.1135 -4.6280 -2.4957 0.9776
-1.9469 -4.7002 -2.4955 0.9776
-1.4331 -4.8807 -2.4952 0.9776
-0.9031 -5.0054 -2.4949 0.9776
-0.5437 -5.0568 -2.4948 0.9776
-0.3628 -5.0729 -2.4947 0.9776
0.1815 -5.0824 -2.4946 0.9776
0.3628 -5.0726 -2.4946 0.9776
0.5436 -5.0564 -2.4946 0.9776
0.7238 -5.0338 -2.4946 0.9776
0.9030 -5.0048 -2.4946 0.9776
1.0810 -4.9694 -2.4946 0.9776
1.2577 -4.9277 -2.4947 0.9776
1.4328 -4.8798 -2.4947 0.9776
1.9464 -4.6990 -2.4949 0.9776
2.1129 -4.6266 -2.4949 0.9776
2.4378 -4.4644 -2.4951 0.9776
2.7503 -4.2795 -2.4953 0.9776
3.0489 -4.0728 -2.4956 0.9776
3.1925 -3.9616 -2.4957 0.9776
3.5983 -3.5983 -2.4962 0.9776
3.7247 -3.4678 -2.4963 0.9776
3.9631 -3.1937 -2.4967 0.9776
4.0749 -3.0504 -2.4969 0.9776
4.1815 -2.9033 -2.4970 0.9776
4.3787 -2.5980 -2.4974 0.9776
4.4690 -2.4402 -2.4977 0.9776
4.5536 -2.2794 -2.4979 0.9776
4.6325 -2.1156 -2.4981 0.9776
4.8334 -1.6087 -2.4988 0.9776
4.9368 -1.2600 -2.4993 0.9776
5.0949 -0.1820 -2.5008 0.9775
-4.8243 0.0000 -2.5027 0.9785
-4.8207 -0.1722 -2.5025 0.9785
-4.8110 -0.3441 -2.5022 0.9785
-4.7733 -0.6863 -2.5017 0.9785
-4.5733 -1.5222 -2.5005 0.9785
-4.5157 -1.6842 -2.5003 0.9785
-4.3085 -2.1567 -2.4996 0.9785
-4.2284 -2.3089 -2.4993 0.9785
-4.1429 -2.4581 -2.4991 0.9785
-3.9563 -2.7469 -2.4987 0.9785
-3.8554 -2.8861 -2.4984 0.9785
-3.5239 -3.2809 -2.4978 0.9785
-3.4043 -3.4043 -2.4976 0.9785
-3.2804 -3.5234 -2.4974 0.9785
-3.0202 -3.7479 -2.4971 0.9785
-2.8843 -3.8530 -2.4969 0.9785
-2.7448 -3.9532 -2.4967 0.9785
-2.6018 -4.0484 -2.4966 0.9785
-1.8411 -4.4448 -2.4959 0.9786
-0.6845 -4.7608 -2.4952 0.9786
-0.3431 -4.7973 -2.4951 0.9786
-0.1717 -4.8064 -2.4951 0.9786
0.3431 -4.7971 -2.4950 0.9786
0.5141 -4.7818 -2.4950 0.9786
0.6844 -4.7604 -2.4950 0.9786
1.0223 -4.6995 -2.4950 0.9786
1.1894 -4.6601 -2.4951 0.9786
1.3550 -4.6147 -2.4951 0.9786
1.6808 -4.5065 -2.4952 0.9786
1.8406 -4.4437 -2.4952 0.9786
1.9981 -4.3753 -2.4953 0.9786
2.3053 -4.2219 -2.4955 0.9786
2.8832 -3.8515 -2.4959 0.9786
3.1510 -3.6364 -2.4962 0.9786
3.2789 -3.5218 -2.4963 0.9785
3.4027 -3.4027 -2.4965 0.9785
3.5222 -3.2793 -2.4966 0.9785
3.6373 -3.1517 -2.4968 0.9785
3.8534 -2.8846 -2.4971 0.9785
4.2260 -2.3075 -2.4979 0.9785
4.6223 -1.3572 -2.4992 0.9785
4.6682 -1.1915 -2.4994 0.9785
4.7082 -1.0242 -2.4996 0.9785
4.7422 -0.8556 -2.4999 0.9785
4.7702 -0.6858 -2.5001 0.9785
4.7921 -0.5152 -2.5003 0.9785
4.8079 -0.3439 -2.5006 0.9785
4.8175 -0.1721 -2.5008 0.9785
-4.5694 0.0000 -2.5027 0.9794
-4.5661 -0.1631 -2.5024 0.9794
-4.5420 -0.4883 -2.5020 0.9794
-4.5212 -0.6501 -2.5017 0.9794
-4.4625 -0.9708 -2.5013 0.9794
-4.3810 -1.2864 -2.5008 0.9794
-4.3319 -1.4418 -2.5006 0.9794
-4.2773 -1.5954 -2.5004 0.9794
-4.1519 -1.8961 -2.4999 0.9794
-4.0812 -2.0429 -2.4997 0.9794
-3.9244 -2.3284 -2.4992 0.9794
-3.7476 -2.6020 -2.4988 0.9794
-3.6521 -2.7339 -2.4986 0.9794
-3.5519 -2.8623 -2.4984 0.9794
-3.2248 -3.2248 -2.4979 0.9794
-3.1074 -3.3376 -2.4977 0.9794
-2.7323 -3.6499 -2.4972 0.9794
-2.6001 -3.7449 -2.4970 0.9794
-2.4647 -3.8351 -2.4969 0.9794
-2.3261 -3.9204 -2.4967 0.9794
-2.1845 -4.0007 -2.4966 0.9794
-1.7441 -4.2106 -2.4962 0.9794
-1.4392 -4.3240 -2.4960 0.9794
-0.9686 -4.4525 -2.4957 0.9794
-0.4871 -4.5302 -2.4955 0.9794
-0.3250 -4.5446 -2.4955 0.9794
-0.0000 -4.5561 -2.4954 0.9794
0.3250 -4.5444 -2.4954 0.9794
0.6484 -4.5097 -2.4954 0.9794
0.9685 -4.4520 -2.4954 0.9794
1.1268 -4.4146 -2.4954 0.9794
1.2836 -4.3716 -2.4954 0.9794
1.4389 -4.3231 -2.4955 0.9794
1.5923 -4.2691 -2.4955 0.9794
1.7437 -4.2096 -2.4956 0.9794
1.8929 -4.1448 -2.4957 0.9794
2.1839 -3.9995 -2.4958 0.9794
2.4638 -3.8338 -2.4960 0.9794
2.5992 -3.7436 -2.4961 0.9794
3.2234 -3.2234 -2.4968 0.9794
3.5502 -2.8609 -2.4972 0.9794
3.6503 -2.7325 -2.4974 0.9794
3.7457 -2.6007 -2.4976 0.9794
4.0031 -2.1859 -2.4981 0.9794
4.2748 -1.5944 -2.4989 0.9794
4.4219 -1.1286 -2.4995 0.9794
4.4920 -0.8104 -2.5000 0.9794
4.5184 -0.6496 -2.5002 0.9794
4.5391 -0.4880 -2.5004 0.9794
4.5541 -0.3257 -2.5007 0.9794
4.5632 -0.1630 -2.5009 0.9794
-4.3347 0.0000 -2.5026 0.9802
-4.3316 -0.1547 -2.5024 0.9802
-4.2639 -0.7693 -2.5015 0.9802
-4.2334 -0.9209 -2.5013 0.9802
-4.1096 -1.3678 -2.5007 0.9802
-4.0578 -1.5135 -2.5004 0.9802
-3.9388 -1.7988 -2.5000 0.9802
-3.8718 -1.9381 -2.4998 0.9802
-3.3697 -2.7155 -2.4986 0.9802
-3.0595 -3.0595 -2.4981 0.9802
-2.9481 -3.1665 -2.4979 0.9802
-2.7144 -3.3683 -2.4976 0.9802
-2.5923 -3.4628 -2.4974 0.9802
-2.4669 -3.5529 -2.4973 0.9802
-2.3383 -3.6385 -2.4971 0.9802
-2.2069 -3.7195 -2.4970 0.9802
-2.0726 -3.7957 -2.4968 0.9802
-1.9357 -3.8670 -2.4967 0.9802
-1.5110 -4.0512 -2.4964 0.9802
-1.3654 -4.1024 -2.4963 0.9802
-0.7676 -4.2544 -2.4960 0.9802
-0.4621 -4.2982 -2.4958 0.9802
-0.3084 -4.3118 -2.4958 0.9802
-0.1543 -4.3200 -2.4958 0.9802
0.1543 -4.3199 -2.4957 0.9802
0.6152 -4.2787 -2.4957 0.9802
0.9189 -4.2239 -2.4957 0.9802
1.0690 -4.1885 -2.4957 0.9802
1.5107 -4.0504 -2.4959 0.9802
1.7959 -3.9325 -2.4960 0.9802
1.9352 -3.8660 -2.4961 0.9802
2.2062 -3.7183 -2.4962 0.9802
2.3376 -3.6374 -2.4963 0.9802
2.4660 -3.5518 -2.4964 0.9802
2.7134 -3.3671 -2.4966 0.9802
2.8320 -3.2682 -2.4968 0.9802
2.9469 -3.1652 -2.4969 0.9802
3.0582 -3.0582 -2.4970 0.9802
3.1656 -2.9473 -2.4972 0.9802
3.2690 -2.8326 -2.4973 0.9802
3.5537 -2.4674 -2.4978 0.9802
3.6397 -2.3391 -2.4979 0.9802
3.8698 -1.9371 -2.4985 0.9802
3.9987 -1.6563 -2.4989 0.9802
4.1073 -1.3670 -2.4993 0.9802
4.1538 -1.2197 -2.4995 0.9802
4.1950 -1.0707 -2.4997 0.9802
4.3062 -0.4630 -2.5005 0.9802
4.3290 -0.1546 -2.5009 0.9802
