ply
format ascii 1.0
element vertex 1448
property float32 x
property float32 y
property float32 z
property float32 I
end_header
41.4839 15.4727 7.8070 0.8354
34.9128 15.9441 6.7676 0.8557
31.4824 15.7590 6.2078 0.8668
28.0010 16.6138 5.7410 0.8761
25.4970 16.3859 5.3442 0.8842
22.7478 17.0288 5.0104 0.8910
19.3724 16.7863 4.5199 0.9011
17.4802 17.4803 4.3589 0.9045
15.2663 17.6183 4.1106 0.9097
14.0018 17.3751 3.9347 0.9134
11.7518 18.2862 3.8328 0.9155
9.8737 18.0824 3.6328 0.9197
8.8991 17.7782 3.5056 0.9224
6.9022 18.5056 3.4826 0.9229
7.2887 24.8231 4.5618 0.9003
2.4540 9.6146 1.7497 0.9605
2.6274 18.2736 3.2553 0.9278
-0.0000 25.3975 4.4783 0.9020
-0.9097 25.4704 4.4940 0.9017
-1.3643 19.0758 3.3722 0.9253
-2.6877 18.6934 3.3301 0.9262
-3.3826 18.7483 3.3592 0.9255
-4.1937 19.2779 3.4787 0.9230
-6.6161 25.9218 4.7172 0.8970
-7.2433 19.4200 3.6547 0.9193
-7.9140 19.1062 3.6465 0.9194
-8.7559 19.1726 3.7165 0.9180
-9.7792 19.5363 3.8523 0.9151
-11.7955 19.8803 4.0760 0.9104
-14.7041 19.6423 4.3264 0.9051
-17.5100 20.2076 4.7147 0.8971
-23.9005 20.7098 5.5763 0.8795
-16.9624 10.9011 3.5553 0.9214
45.4666 15.1327 7.3409 0.8237
31.7484 15.8921 5.4390 0.8662
30.1195 16.4465 5.2572 0.8703
28.0012 16.6139 4.9878 0.8766
25.3523 16.2930 4.6167 0.8852
22.7899 17.0603 4.3611 0.8912
19.5466 16.9372 3.9622 0.9006
18.6383 17.3529 3.9012 0.9021
16.6564 17.8902 3.7446 0.9058
15.2657 17.6175 3.5712 0.9100
12.6055 18.1555 3.3860 0.9144
9.9246 18.1755 3.1724 0.9196
8.8992 17.7783 3.0457 0.9227
8.1462 17.8378 3.0041 0.9237
6.9733 18.6962 3.0569 0.9224
8.2368 24.7477 3.9957 0.8998
7.3119 24.9020 3.9759 0.9003
2.6274 18.2737 2.8282 0.9280
2.0106 18.7010 2.8814 0.9267
1.3681 19.1286 2.9379 0.9253
0.9125 25.5500 3.9166 0.9017
-0.0000 25.5907 3.9204 0.9016
-0.9075 25.4099 3.8951 0.9022
-2.6877 18.6935 2.8932 0.9264
-4.2168 19.3842 3.0390 0.9229
-7.5316 25.6501 4.0953 0.8975
-7.9141 19.1062 3.1681 0.9197
-8.4127 18.4213 3.1024 0.9213
-9.8978 19.7733 3.3875 0.9144
-14.1932 25.9928 4.5369 0.8871
-12.7871 19.8970 3.6233 0.9087
-16.3218 20.2541 3.9849 0.9001
-17.5922 20.3025 4.1154 0.8970
-18.9172 20.3185 4.2529 0.8937
-20.0622 20.0623 4.3465 0.8915
-22.0896 20.5662 4.6236 0.8850
-23.9006 20.7100 4.8448 0.8799
45.4670 15.1329 6.2401 0.8242
22.3529 8.3372 3.1067 0.9083
37.3071 15.4531 5.2584 0.8497
35.1440 16.0497 5.0311 0.8557
31.5684 15.8020 4.5971 0.8673
28.1003 16.6727 4.2549 0.8765
24.3553 16.9102 3.8611 0.8873
21.3572 17.2107 3.5718 0.8953
23.5790 23.5790 4.3423 0.8741
14.4662 16.6949 2.8767 0.9147
13.3401 17.8202 2.8987 0.9141
12.7138 18.3114 2.9029 0.9140
15.3242 23.8450 3.6911 0.8920
8.8992 17.7784 2.5890 0.9229
8.1463 17.8379 2.5536 0.9239
7.5831 18.3073 2.5804 0.9232
2.4527 9.6096 1.2915 0.9608
2.0118 18.7127 2.4508 0.9269
-0.0000 25.9523 3.3795 0.9006
-2.0346 18.9249 2.4786 0.9261
-2.6877 18.6936 2.4593 0.9266
-3.3826 18.7484 2.4809 0.9260
-4.2549 19.5596 2.6066 0.9224
-8.5644 25.7318 3.5316 0.8964
-12.8427 19.9836 3.0933 0.9086
-13.5762 19.5535 3.0998 0.9084
-14.7042 19.6425 3.1952 0.9058
-24.2027 30.0337 5.0229 0.8559
-17.8614 20.6131 3.5518 0.8958
-18.9162 20.3174 3.6149 0.8941
-23.9503 20.7530 4.1268 0.8800
-25.4210 20.4855 4.2514 0.8766
45.7135 15.2149 5.1735 0.8238
22.3218 8.3256 2.5583 0.9086
37.4719 15.5214 4.3554 0.8494
35.2020 16.0762 4.1556 0.8558
31.8888 15.9624 3.8293 0.8664
25.8103 15.3139 3.2227 0.8863
25.6098 16.4584 3.2690 0.8847
18.7922 17.4962 2.7571 0.9019
22.2208 23.8669 3.5017 0.8771
14.4797 16.7105 2.3743 0.9149
14.0020 17.3754 2.3962 0.9141
15.3243 23.8451 3.0437 0.8922
9.7768 17.9050 2.1906 0.9212
8.8992 17.7785 2.1349 0.9231
8.1463 17.8379 2.1058 0.9241
7.4917 18.0866 2.1022 0.9243
6.8565 18.3831 2.1068 0.9241
7.4476 25.3641 2.8386 0.8991
3.2876 18.2217 1.9883 0.9282
2.6274 18.2739 1.9825 0.9284
1.3277 18.5635 1.9985 0.9279
0.9291 26.0134 2.7951 0.9006
-0.0000 26.0868 2.8012 0.9004
-0.9171 25.6780 2.7591 0.9018
-1.3430 18.7777 2.0215 0.9271
-2.0262 18.8461 2.0354 0.9266
-2.6877 18.6936 2.0280 0.9268
-4.1331 18.9997 2.0879 0.9248
-6.6581 26.0863 2.8910 0.8974
-7.5316 25.6503 2.8707 0.8980
-7.1726 19.2305 2.2040 0.9207
-11.0934 20.3160 2.4856 0.9111
-18.9385 20.3413 2.9844 0.8942
-25.4211 20.4857 3.5058 0.8769
-16.9850 10.9156 2.1681 0.9220
46.0529 15.3279 4.1088 0.8230
35.5715 16.2450 3.3104 0.8547
31.8890 15.9625 3.0188 0.8666
25.8279 15.3244 2.5423 0.8864
30.7723 23.0358 3.2540 0.8570
14.4951 16.7282 1.8738 0.9150
15.3244 23.8452 2.3995 0.8924
14.2007 23.9340 2.3559 0.8943
9.8208 17.9856 1.7347 0.9210
8.8993 17.7785 1.6830 0.9233
8.1463 17.8380 1.6600 0.9243
8.1908 24.6095 2.1956 0.9011
7.3755 25.1188 2.2161 0.9002
2.4515 9.6047 0.8391 0.9610
2.1146 9.7205 0.8421 0.9609
3.2876 18.2218 1.5674 0.9284
2.6274 18.2739 1.5628 0.9286
2.0006 18.6085 1.5843 0.9276
0.0000 25.7690 2.1814 0.9017
-1.3491 18.8632 1.6009 0.9269
-2.0353 18.9311 1.6118 0.9264
-3.3826 18.7486 1.6127 0.9264
-4.1518 19.0854 1.6534 0.9246
-7.5316 25.6504 2.2630 0.8982
-7.9142 19.1065 1.7507 0.9203
-9.7768 19.5316 1.8490 0.9161
-12.6400 19.6682 1.9792 0.9104
-13.5763 19.5536 2.0151 0.9089
-19.7537 19.7537 2.3649 0.8939
-24.3358 21.0871 2.7259 0.8787
-29.5174 12.2265 2.7046 0.8796
47.1020 15.6771 3.0783 0.8196
35.6784 16.2938 2.4322 0.8545
25.6101 16.4586 1.8878 0.8851
24.0893 18.0330 1.8660 0.8864
21.2030 17.0865 1.6886 0.8966
19.5470 16.9376 1.6039 0.9015
18.3959 18.3959 1.6132 0.9010
14.4876 16.7195 1.3719 0.9152
13.2620 17.7160 1.3723 0.9151
15.3244 23.8453 1.7577 0.8926
8.1464 17.8381 1.2160 0.9244
7.5253 18.1678 1.2194 0.9242
8.2183 24.6919 1.6137 0.9010
7.4333 25.3154 1.6361 0.8997
2.4509 9.6023 0.6145 0.9611
2.1159 9.7265 0.6172 0.9609
2.0005 18.6073 1.1605 0.9277
-0.0000 25.9025 1.6062 0.9014
-0.9073 25.4039 1.5763 0.9031
-2.0352 18.9299 1.1806 0.9265
-2.6878 18.6938 1.1711 0.9271
-3.3826 18.7487 1.1814 0.9265
-4.1515 19.0841 1.2111 0.9247
-6.5988 25.8537 1.6546 0.8986
-7.5317 25.6505 1.6577 0.8984
-7.2091 19.3285 1.2792 0.9207
-7.9142 19.1066 1.2824 0.9205
-8.7560 19.1730 1.3071 0.9190
-14.2981 26.1849 1.8500 0.8873
-12.3756 20.8579 1.5039 0.9074
-12.6980 19.7584 1.4564 0.9102
-14.7044 19.6428 1.5216 0.9063
-18.8582 20.2551 1.7161 0.8950
-24.0569 20.8453 1.9739 0.8802
-25.4215 20.4859 2.0245 0.8774
-16.9999 10.9252 1.2531 0.9222
-29.5147 12.2254 1.9810 0.8798
22.2297 8.2912 0.9355 0.9094
35.4034 16.1682 1.5347 0.8557
31.8895 15.9628 1.4061 0.8670
37.2680 22.1121 1.7087 0.8407
24.2535 16.8395 1.1642 0.8885
24.0906 18.0340 1.1866 0.8865
18.5688 17.2881 1.0004 0.9034
18.3970 18.3970 1.0259 0.9011
8.8994 17.7787 0.7839 0.9235
7.5248 18.1665 0.7753 0.9243
6.9904 18.7420 0.7887 0.9230
8.2177 24.6903 1.0261 0.9011
7.4333 25.3155 1.0404 0.8998
2.4502 9.5999 0.3907 0.9611
2.1172 9.7324 0.3927 0.9609
3.2876 18.2219 0.7301 0.9286
2.0004 18.6061 0.7379 0.9278
-0.0000 26.1604 1.0315 0.9006
-1.3489 18.8607 0.7456 0.9271
-2.0350 18.9286 0.7507 0.9266
-2.6878 18.6939 0.7447 0.9272
-3.3827 18.7487 0.7512 0.9266
-4.1512 19.0829 0.7701 0.9248
-6.5983 25.8519 1.0520 0.8987
-7.9142 19.1066 0.8155 0.9205
-12.3763 20.8592 0.9564 0.9075
-12.6969 19.7568 0.9260 0.9103
-13.5765 19.5538 0.9387 0.9091
-14.7045 19.6429 0.9675 0.9064
-25.0328 31.0638 1.5731 0.8524
-18.8564 20.2532 1.0912 0.8951
-25.4216 20.4861 1.2874 0.8775
-29.5119 12.2243 1.2596 0.8800
22.1993 8.2799 0.4002 0.9096
17.6562 7.3134 0.3228 0.9264
35.4050 16.1690 0.6575 0.8558
30.0062 16.3846 0.5775 0.8722
25.6104 16.4588 0.5142 0.8853
24.2509 16.8377 0.4987 0.8886
24.0919 18.0350 0.5083 0.8866
19.5472 16.9377 0.4369 0.9017
18.5671 17.2866 0.4285 0.9035
18.3981 18.3981 0.4395 0.9011
15.2171 17.5614 0.3925 0.9112
14.0022 17.3757 0.3769 0.9146
13.2600 17.7133 0.3738 0.9153
12.6782 18.2602 0.3755 0.9149
15.3246 23.8455 0.4788 0.8928
9.8188 17.9818 0.3461 0.9213
8.8994 17.7787 0.3358 0.9235
7.5243 18.1653 0.3321 0.9244
6.9916 18.7452 0.3379 0.9231
2.9330 9.9888 0.1759 0.9592
2.1184 9.7384 0.1683 0.9609
2.0002 18.6049 0.3161 0.9279
0.9317 26.0869 0.4409 0.9008
0.0000 26.1605 0.4419 0.9006
-1.3489 18.8595 0.3194 0.9271
-4.1510 19.0816 0.3299 0.9249
-7.5317 25.6507 0.4516 0.8986
-7.2081 19.3257 0.3484 0.9208
-7.9143 19.1067 0.3493 0.9206
-12.3771 20.8605 0.4097 0.9075
-12.6959 19.7552 0.3967 0.9103
-14.7046 19.6430 0.4145 0.9065
-18.1199 20.9114 0.4674 0.8952
-24.1414 20.9186 0.5396 0.8800
-17.0148 10.9347 0.3417 0.9223
-29.5111 12.2239 0.5396 0.8800
22.1690 8.2686 -0.1332 0.9097
37.2685 22.1124 -0.2440 0.8409
24.0932 18.0359 -0.1694 0.8866
21.1972 17.0818 -0.1533 0.8968
18.3993 18.3993 -0.1465 0.9011
15.2159 17.5601 -0.1308 0.9112
14.0023 17.3758 -0.1257 0.9146
12.6793 18.2617 -0.1252 0.9149
15.3246 23.8456 -0.1596 0.8928
14.2009 23.9344 -0.1567 0.8947
9.8181 17.9805 -0.1153 0.9213
8.1465 17.8383 -0.1104 0.9246
6.9928 18.7485 -0.1127 0.9231
8.2166 24.6870 -0.1465 0.9012
2.4490 9.5951 -0.0558 0.9612
2.1197 9.7443 -0.0561 0.9609
2.6274 18.2742 -0.1039 0.9288
2.0001 18.6037 -0.1053 0.9279
1.3334 18.6430 -0.1052 0.9280
-0.0000 26.1606 -0.1473 0.9006
-0.9071 25.3990 -0.1431 0.9033
-1.3488 18.8582 -0.1064 0.9272
-2.6878 18.6940 -0.1063 0.9272
-3.3827 18.7489 -0.1073 0.9266
-6.5974 25.8484 -0.1502 0.8988
-7.5318 25.6508 -0.1505 0.8986
-7.9143 19.1068 -0.1164 0.9206
-8.7562 19.1733 -0.1187 0.9191
-9.7739 19.5258 -0.1229 0.9164
-12.3779 20.8618 -0.1366 0.9075
-12.6948 19.7535 -0.1322 0.9104
-13.5766 19.5540 -0.1340 0.9092
-14.7047 19.6431 -0.1381 0.9065
-25.0356 31.0672 -0.2246 0.8525
-18.1207 20.9124 -0.1558 0.8952
-18.8527 20.2492 -0.1558 0.8952
-20.0631 20.0631 -0.1597 0.8927
-24.1426 20.9196 -0.1798 0.8800
47.1491 15.6927 -1.3992 0.8197
17.6324 7.3036 -0.5373 0.9265
31.8902 15.9631 -1.0041 0.8670
25.6107 16.4590 -0.8572 0.8853
21.1952 17.0802 -0.7665 0.8968
19.5474 16.9379 -0.7283 0.9017
18.5638 17.2835 -0.7142 0.9035
15.2147 17.5587 -0.6542 0.9112
14.0023 17.3759 -0.6284 0.9146
15.3247 23.8457 -0.7981 0.8928
6.9940 18.7517 -0.5635 0.9230
8.2161 24.6854 -0.7326 0.9011
2.4484 9.5927 -0.2788 0.9612
3.2876 18.2221 -0.5214 0.9286
2.0000 18.6025 -0.5268 0.9279
1.3333 18.6418 -0.5263 0.9279
-0.9071 25.3973 -0.7156 0.9033
-1.3487 18.8570 -0.5323 0.9271
-2.0346 18.9249 -0.5360 0.9267
-3.3827 18.7489 -0.5365 0.9266
-6.7171 20.1816 -0.5989 0.9184
-8.7562 19.1734 -0.5935 0.9191
-9.7732 19.5243 -0.6148 0.9163
-12.6938 19.7519 -0.6611 0.9103
-14.7047 19.6432 -0.6909 0.9065
-18.8509 20.2473 -0.7790 0.8952
-20.0632 20.0632 -0.7989 0.8927
-24.1438 20.9207 -0.8995 0.8800
-29.5109 12.2238 -0.8994 0.8800
43.9505 4.7252 -2.2418 0.8377
45.6264 6.5601 -2.3377 0.8314
45.4868 8.2067 -2.3441 0.8310
45.1605 9.8241 -2.3438 0.8310
22.1086 8.2461 -1.1967 0.9098
31.8904 15.9632 -1.8085 0.8669
18.5621 17.2819 -1.2862 0.9034
18.4015 18.4016 -1.3198 0.9010
15.2135 17.5573 -1.1782 0.9112
13.2569 17.7092 -1.1219 0.9152
12.6815 18.2648 -1.1277 0.9148
14.2010 23.9345 -1.4114 0.8945
9.8167 17.9780 -1.0388 0.9212
8.8995 17.7789 -1.0083 0.9235
6.9952 18.7549 -1.0151 0.9230
8.2155 24.6837 -1.3193 0.9011
2.4478 9.5903 -0.5020 0.9611
2.1223 9.7562 -0.5064 0.9608
3.2876 18.2222 -0.9390 0.9285
2.6275 18.2743 -0.9363 0.9287
0.9317 26.0872 -1.3238 0.9007
-0.0000 26.1608 -1.3267 0.9005
-1.3486 18.8557 -0.9587 0.9271
-2.0345 18.9237 -0.9652 0.9266
-6.7177 20.1834 -1.0788 0.9183
-7.2065 19.3215 -1.0458 0.9207
-7.9143 19.1070 -1.0488 0.9205
-9.7724 19.5228 -1.1072 0.9163
-14.2984 26.1855 -1.5131 0.8874
-12.6928 19.7503 -1.1906 0.9103
-13.5767 19.5542 -1.2073 0.9091
-18.1225 20.9145 -1.4035 0.8951
-18.8490 20.2453 -1.4028 0.8951
-24.0895 20.8737 -1.6165 0.8801
-25.4223 20.4866 -1.6558 0.8774
-40.5136 28.1290 -2.5013 0.8207
-43.3051 23.6463 -2.5023 0.8207
-44.1272 22.0884 -2.5026 0.8207
-29.4690 12.2065 -1.6176 0.8801
-47.8504 12.2131 -2.5045 0.8205
-48.2619 10.4987 -2.5048 0.8205
-48.6118 8.7705 -2.5051 0.8205
-48.8997 7.0307 -2.5054 0.8205
-49.1253 5.2815 -2.5057 0.8205
-49.2883 3.5251 -2.5060 0.8204
-49.3883 1.7639 -2.5063 0.8204
34.0533 1.2162 -2.4985 0.8723
33.6792 4.8424 -2.4948 0.8724
30.6912 9.0118 -2.3453 0.8796
30.3481 10.1008 -2.3452 0.8796
22.0785 8.2348 -1.7278 0.9098
28.5957 14.3140 -2.3447 0.8796
28.0653 15.3248 -2.3446 0.8796
27.4992 16.3161 -2.3445 0.8796
25.6111 16.4592 -2.2322 0.8851
24.1664 16.7790 -2.1572 0.8887
24.0395 17.9958 -2.2018 0.8865
21.1276 17.0257 -1.9895 0.8969
21.7832 23.3969 -2.3439 0.8797
14.2011 23.9346 -2.0406 0.8944
9.8160 17.9767 -1.5018 0.9211
8.6638 17.3081 -1.4192 0.9253
7.5222 18.1603 -1.4413 0.9242
8.1960 24.6249 -1.9029 0.9011
3.2877 18.2222 -1.3577 0.9284
1.3331 18.6394 -1.3702 0.9278
0.9317 26.0873 -1.9140 0.9006
-2.6878 18.6942 -1.3848 0.9270
-4.1498 19.0764 -1.4314 0.9247
-6.5812 25.7848 -1.9512 0.8988
-7.5319 25.6512 -1.9602 0.8983
-6.7183 20.1852 -1.5598 0.9182
-8.7563 19.1735 -1.5455 0.9189
-14.2985 26.1856 -2.1876 0.8872
-12.3332 20.7865 -1.7722 0.9076
-12.6531 19.6886 -1.7160 0.9104
-14.7049 19.6434 -1.7992 0.9063
-20.0905 24.9308 -2.3477 0.8795
-18.7878 20.1795 -2.0216 0.8953
-20.0634 20.0634 -2.0804 0.8924
-24.0907 20.8746 -2.3373 0.8800
-24.9438 20.1010 -2.3489 0.8794
-26.3190 18.2736 -2.3493 0.8794
-28.6619 14.3471 -2.3501 0.8794
-29.1583 13.3161 -2.3503 0.8794
-29.2993 12.1362 -2.3253 0.8806
-31.9851 11.9298 -2.5030 0.8720
-33.0857 8.4446 -2.5037 0.8720
-33.9621 3.6513 -2.5045 0.8720
-34.0735 2.4370 -2.5047 0.8720
-34.1415 1.2193 -2.5049 0.8720
26.0342 0.0000 -2.4994 0.9007
25.7634 3.7042 -2.4989 0.9007
25.6134 4.6212 -2.4987 0.9007
9.7361 2.4850 -0.9647 0.9604
9.7784 2.8712 -0.9784 0.9599
21.8770 7.2814 -2.2136 0.9115
17.5399 7.2653 -1.8227 0.9265
22.2277 10.1510 -2.3460 0.9065
21.8504 10.9375 -2.3459 0.9065
21.4453 11.7100 -2.3458 0.9065
20.0688 13.9340 -2.3456 0.9065
19.5582 14.6411 -2.3455 0.9065
18.4630 15.9983 -2.3454 0.9065
17.8799 16.6468 -2.3454 0.9065
17.2740 17.2740 -2.3453 0.9065
16.6462 17.8793 -2.3453 0.9065
15.1642 17.5005 -2.2231 0.9111
12.6121 18.1649 -2.1231 0.9150
13.2066 20.5499 -2.3452 0.9065
8.1466 17.8386 -1.8827 0.9242
7.4985 18.1029 -1.8812 0.9243
6.9093 18.5246 -1.8981 0.9236
2.8764 9.7962 -0.9802 0.9598
2.4465 9.5855 -0.9498 0.9610
2.1249 9.7682 -0.9597 0.9606
1.9934 18.5410 -1.7903 0.9278
0.0000 24.4345 -2.3458 0.9065
-1.3443 18.7963 -1.8092 0.9271
-2.6878 18.6943 -1.8132 0.9269
-4.1371 19.0178 -1.8685 0.9248
-6.0446 23.6824 -2.3465 0.9065
-6.8864 23.4528 -2.3466 0.9064
-6.6765 20.0598 -2.0297 0.9186
-7.1834 19.2595 -1.9734 0.9207
-7.9144 19.1071 -1.9855 0.9203
-8.7563 19.1736 -2.0236 0.9188
-9.7416 19.4613 -2.0894 0.9163
-14.6565 19.5788 -2.3480 0.9064
-15.3470 19.0444 -2.3481 0.9064
-16.0179 18.4857 -2.3483 0.9064
-16.6686 17.9034 -2.3484 0.9064
-17.2981 17.2981 -2.3486 0.9064
-18.4906 16.0222 -2.3489 0.9064
-16.1075 11.1836 -1.8826 0.9242
-16.1269 10.3641 -1.8404 0.9259
-17.0875 10.1385 -1.9075 0.9233
-21.8891 10.9569 -2.3500 0.9063
-22.6180 9.3687 -2.3503 0.9063
-24.3860 9.0955 -2.4987 0.9007
-24.7367 8.2332 -2.5029 0.9005
-25.0164 7.3455 -2.5031 0.9005
-25.4800 5.5429 -2.5034 0.9005
-25.6633 4.6302 -2.5036 0.9005
-25.8139 3.7115 -2.5037 0.9005
-25.9315 2.7879 -2.5039 0.9005
-26.0161 1.8607 -2.5040 0.9005
-26.0675 0.9310 -2.5042 0.9005
21.0452 0.0000 -2.4999 0.9187
20.9897 1.5012 -2.4996 0.9187
20.8273 2.9945 -2.4994 0.9187
20.5589 4.4723 -2.4992 0.9187
9.7024 2.4764 -1.1895 0.9605
18.9377 6.3031 -2.3709 0.9227
18.5111 6.9043 -2.3468 0.9235
17.4938 7.2462 -2.2492 0.9266
16.9886 10.0798 -2.3465 0.9235
16.6176 10.6795 -2.3464 0.9235
16.2254 11.2655 -2.3464 0.9235
15.3798 12.3938 -2.3463 0.9235
14.9273 12.9346 -2.3462 0.9235
13.4586 14.4555 -2.3461 0.9235
12.3928 15.3785 -2.3461 0.9235
11.8360 15.8110 -2.3461 0.9235
11.2640 16.2233 -2.3461 0.9235
10.0779 16.9853 -2.3460 0.9235
8.6650 17.3105 -2.2995 0.9250
7.4979 18.1017 -2.3274 0.9241
6.9022 18.5057 -2.3461 0.9235
2.8653 9.7582 -1.2081 0.9599
2.4459 9.5830 -1.1748 0.9609
2.1263 9.7743 -1.1882 0.9605
1.3290 18.5815 -2.2129 0.9277
0.7051 19.7415 -2.3465 0.9235
-0.0000 19.7546 -2.3466 0.9235
-1.3443 18.7951 -2.2383 0.9269
-3.3827 18.7492 -2.2631 0.9261
-4.1368 19.0165 -2.3117 0.9246
-4.8866 19.1455 -2.3471 0.9235
-6.2405 18.7496 -2.3473 0.9235
-6.9060 18.5158 -2.3474 0.9235
-7.5628 18.2583 -2.3475 0.9235
-8.2101 17.9775 -2.3476 0.9235
-11.2743 16.2380 -2.3482 0.9235
-11.8473 15.8261 -2.3483 0.9235
-12.4052 15.3939 -2.3484 0.9235
-12.9475 14.9421 -2.3486 0.9234
-13.4732 14.4713 -2.3487 0.9234
-14.4728 13.4747 -2.3489 0.9234
-14.9454 12.9502 -2.3491 0.9234
-15.3989 12.4092 -2.3492 0.9234
-15.8329 11.8523 -2.3493 0.9234
-15.9976 11.1073 -2.3134 0.9245
-16.0102 10.2891 -2.2607 0.9262
-17.7373 8.8787 -2.3562 0.9232
-19.1310 8.7368 -2.4983 0.9188
-19.4633 8.0620 -2.5025 0.9186
-19.7397 7.3625 -2.5026 0.9186
-20.2168 5.9362 -2.5029 0.9186
-20.4169 5.2111 -2.5030 0.9186
-20.5910 4.4793 -2.5031 0.9186
-20.9551 2.2529 -2.5035 0.9186
-21.0232 1.5036 -2.5036 0.9186
17.5993 1.2587 -2.5000 0.9312
17.3621 3.1325 -2.4997 0.9312
17.2386 3.7500 -2.4997 0.9312
9.7135 2.4792 -1.4204 0.9603
16.7374 5.5707 -2.4994 0.9312
16.5121 6.1587 -2.4970 0.9313
15.7960 6.5429 -2.4225 0.9333
14.5385 7.9386 -2.3470 0.9353
12.8967 10.3928 -2.3468 0.9353
12.1221 11.2861 -2.3468 0.9353
11.2858 12.1218 -2.3467 0.9353
10.3922 12.8959 -2.3467 0.9353
9.9252 13.2585 -2.3466 0.9353
7.9372 14.5360 -2.3466 0.9353
7.4134 14.8101 -2.3466 0.9353
2.8541 9.7203 -1.4354 0.9599
2.4453 9.5806 -1.4010 0.9608
2.1276 9.7804 -1.4182 0.9604
2.9409 16.3000 -2.3468 0.9353
-0.5913 16.5547 -2.3471 0.9353
-1.7709 16.4713 -2.3473 0.9353
-2.3577 16.3980 -2.3473 0.9353
-2.9416 16.3039 -2.3474 0.9353
-3.5217 16.1891 -2.3475 0.9353
-4.0974 16.0536 -2.3475 0.9353
-4.6680 15.8976 -2.3476 0.9353
-5.2326 15.7214 -2.3477 0.9353
-5.7906 15.5252 -2.3478 0.9352
-6.3413 15.3092 -2.3479 0.9352
-7.4178 14.8189 -2.3480 0.9352
-5.1565 8.6908 -1.4318 0.9600
-8.9605 13.9428 -2.3483 0.9352
-9.4528 13.6146 -2.3484 0.9352
-10.4009 12.9067 -2.3486 0.9352
-10.8554 12.5278 -2.3487 0.9352
-12.1340 11.2971 -2.3490 0.9352
-13.6207 9.4570 -2.3495 0.9352
-14.5835 8.6528 -2.4027 0.9338
-15.7914 7.9046 -2.5021 0.9311
-16.0642 7.3363 -2.5022 0.9311
-16.3165 6.7585 -2.5024 0.9311
-16.5481 6.1721 -2.5025 0.9311
-16.7586 5.5778 -2.5026 0.9311
-16.9478 4.9763 -2.5027 0.9311
-17.1154 4.3684 -2.5028 0.9311
-17.2612 3.7549 -2.5029 0.9311
-17.4866 2.5142 -2.5031 0.9311
-17.5659 1.8885 -2.5032 0.9311
-17.6229 1.2604 -2.5033 0.9311
15.1680 0.5417 -2.5004 0.9403
15.1385 1.0827 -2.5003 0.9403
15.0217 2.1598 -2.5001 0.9403
9.7786 2.4958 -1.6626 0.9599
9.7763 2.8706 -1.6785 0.9595
14.3975 4.7919 -2.4998 0.9403
14.0183 5.8065 -2.4996 0.9403
13.4278 6.7215 -2.4737 0.9409
12.5063 6.8290 -2.3474 0.9439
12.2543 7.2708 -2.3474 0.9439
11.9868 7.7034 -2.3473 0.9439
11.7040 8.1262 -2.3473 0.9439
11.4063 8.5387 -2.3473 0.9439
11.0941 8.9402 -2.3472 0.9439
10.7678 9.3304 -2.3472 0.9439
10.0746 10.0746 -2.3471 0.9439
9.3300 10.7674 -2.3471 0.9439
8.9397 11.0935 -2.3471 0.9439
7.7026 11.9854 -2.3471 0.9439
6.3773 12.7402 -2.3471 0.9439
5.9185 12.9597 -2.3471 0.9439
5.4522 13.1628 -2.3471 0.9439
4.9789 13.3491 -2.3471 0.9439
2.8430 9.6825 -1.6624 0.9599
2.4447 9.5782 -1.6285 0.9607
2.0371 11.2908 -1.8901 0.9546
1.5231 14.1670 -2.3473 0.9439
1.0165 14.2125 -2.3473 0.9439
0.5086 14.2400 -2.3474 0.9439
-0.5086 14.2406 -2.3475 0.9439
-1.0166 14.2137 -2.3475 0.9439
-1.5233 14.1687 -2.3476 0.9439
-3.5246 13.8091 -2.3478 0.9439
-4.0153 13.6749 -2.3479 0.9439
-4.5010 13.5233 -2.3480 0.9439
-4.9958 8.4200 -1.6129 0.9611
-7.7074 11.9929 -2.3485 0.9438
-8.1308 11.7106 -2.3486 0.9438
-8.5439 11.4133 -2.3487 0.9438
-9.7161 10.4358 -2.3490 0.9438
-10.0828 10.0828 -2.3490 0.9438
-10.7772 9.3385 -2.3492 0.9438
-11.1041 8.9482 -2.3493 0.9438
-11.4168 8.5465 -2.3494 0.9438
-12.7633 8.2025 -2.4994 0.9403
-13.5817 6.7985 -2.5021 0.9403
-14.0332 5.8127 -2.5023 0.9403
-14.2323 5.3084 -2.5024 0.9403
-14.4133 4.7972 -2.5025 0.9403
-14.5759 4.2799 -2.5026 0.9403
-15.1070 1.6242 -2.5031 0.9403
-15.1559 1.0840 -2.5031 0.9403
13.0907 2.3618 -2.5003 0.9473
12.6201 4.2004 -2.5000 0.9473
12.4618 4.6480 -2.5000 0.9473
12.0980 5.5250 -2.4999 0.9473
11.6726 6.3737 -2.4998 0.9473
9.7248 7.8367 -2.3475 0.9504
9.4388 8.1787 -2.3475 0.9504
9.1407 8.5103 -2.3475 0.9504
8.8311 8.8311 -2.3474 0.9504
8.5102 9.1406 -2.3474 0.9504
7.8363 9.7243 -2.3474 0.9504
5.9852 10.9611 -2.3474 0.9504
5.5902 11.1677 -2.3474 0.9504
2.4441 9.5757 -1.8576 0.9606
2.1303 9.7927 -1.8837 0.9600
1.7775 12.3625 -2.3476 0.9504
1.3351 12.4182 -2.3476 0.9504
0.4458 12.4822 -2.3477 0.9504
-0.4458 12.4827 -2.3478 0.9504
-0.8911 12.4591 -2.3478 0.9504
-1.3352 12.4196 -2.3478 0.9504
-2.6554 12.2065 -2.3480 0.9504
-2.1826 8.5514 -1.6589 0.9647
-3.5196 11.9866 -2.3481 0.9504
-4.7811 11.5426 -2.3483 0.9504
-5.1902 11.3649 -2.3484 0.9504
-5.5927 11.1728 -2.3484 0.9504
-4.9960 8.4202 -1.8403 0.9609
-6.7556 10.5119 -2.3487 0.9504
-7.1267 10.2644 -2.3487 0.9504
-7.4887 10.0038 -2.3488 0.9504
-7.8413 9.7304 -2.3489 0.9504
-8.1839 9.4447 -2.3490 0.9504
-8.8374 8.8374 -2.3491 0.9504
-10.3325 8.3265 -2.4942 0.9474
-11.4474 6.7920 -2.5019 0.9473
-12.2992 5.0945 -2.5022 0.9473
-12.4736 4.6524 -2.5023 0.9473
-12.7746 3.7510 -2.5025 0.9473
-12.9008 3.2927 -2.5026 0.9473
-13.1037 2.3642 -2.5027 0.9472
-13.1801 1.8950 -2.5028 0.9472
-13.2398 1.4234 -2.5029 0.9472
-13.3085 0.4753 -2.5031 0.9472
11.8306 0.0000 -2.5008 0.9528
11.8228 0.4223 -2.5007 0.9528
11.7619 1.2645 -2.5006 0.9528
11.5585 2.5144 -2.5004 0.9528
9.8343 2.5101 -2.1454 0.9594
9.8124 2.8812 -2.1617 0.9591
10.9273 4.5262 -2.5001 0.9528
10.3803 5.6681 -2.5000 0.9528
10.1713 6.0349 -2.5000 0.9528
9.3902 7.0294 -2.4794 0.9532
7.5681 8.1287 -2.3477 0.9556
7.2731 8.3936 -2.3477 0.9556
6.9689 8.6478 -2.3477 0.9556
6.0045 9.3432 -2.3476 0.9556
5.6672 9.5515 -2.3476 0.9556
5.3227 9.7477 -2.3476 0.9556
3.6312 8.7666 -2.0058 0.9619
3.2767 8.7852 -1.9820 0.9624
2.9301 8.8035 -1.9612 0.9628
2.5902 8.8214 -1.9434 0.9631
2.2560 8.8390 -1.9283 0.9634
1.9266 8.8563 -1.9158 0.9636
1.2740 8.8611 -1.8923 0.9641
1.1873 11.0435 -2.3478 0.9556
-0.3965 11.1007 -2.3480 0.9556
-1.5809 10.9954 -2.3481 0.9556
-2.3614 10.8550 -2.3482 0.9556
-3.1299 10.6593 -2.3483 0.9556
-3.5084 10.5411 -2.3483 0.9556
-3.8825 10.4094 -2.3484 0.9556
-4.6154 10.1064 -2.3485 0.9556
-4.9734 9.9355 -2.3486 0.9556
-5.3249 9.7519 -2.3486 0.9556
-4.9961 8.4205 -2.0696 0.9608
-6.0074 9.3477 -2.3488 0.9556
-6.3374 9.1276 -2.3488 0.9556
-6.9728 8.6527 -2.3490 0.9556
-8.2064 8.2064 -2.4532 0.9537
-8.6452 8.0490 -2.4969 0.9529
-9.2149 7.4258 -2.5016 0.9528
-9.7217 6.7499 -2.5017 0.9528
-9.9568 6.3988 -2.5018 0.9528
-10.3885 5.6726 -2.5020 0.9528
-11.0914 4.1369 -2.5023 0.9528
-11.3590 3.3353 -2.5024 0.9528
-11.4711 2.9278 -2.5025 0.9528
-11.7194 1.6850 -2.5027 0.9527
10.6409 0.0000 -2.5009 0.9572
10.6339 0.3798 -2.5008 0.9572
10.5317 1.5142 -2.5006 0.9572
9.9245 2.5331 -2.4073 0.9588
9.8497 2.8921 -2.4126 0.9587
10.0945 3.3598 -2.5004 0.9572
9.9679 3.7179 -2.5003 0.9572
9.8287 4.0712 -2.5003 0.9572
9.6770 4.4193 -2.5003 0.9572
9.1487 5.4282 -2.5002 0.9572
8.7380 6.0669 -2.5001 0.9572
8.2815 6.6736 -2.4997 0.9572
7.6764 7.1470 -2.4650 0.9578
7.1932 7.1932 -2.3908 0.9591
6.5420 7.5499 -2.3479 0.9598
6.2684 7.7786 -2.3479 0.9598
5.9867 7.9973 -2.3478 0.9598
5.6974 8.2059 -2.3478 0.9598
5.4009 8.4040 -2.3478 0.9598
5.0975 8.5914 -2.3478 0.9598
4.4716 8.9332 -2.3478 0.9598
3.5834 8.6510 -2.2007 0.9623
3.2431 8.6949 -2.1810 0.9626
2.5902 8.8214 -2.1608 0.9629
2.2560 8.8390 -2.1440 0.9632
1.0679 9.9333 -2.3480 0.9598
-0.3566 9.9847 -2.3481 0.9598
-0.7128 9.9658 -2.3482 0.9598
-1.0680 9.9342 -2.3482 0.9598
-2.1239 9.7636 -2.3483 0.9598
-2.4568 8.3670 -2.0495 0.9648
-3.4921 9.3627 -2.3485 0.9598
-3.8242 9.2323 -2.3486 0.9598
-4.7895 8.7713 -2.3487 0.9598
-4.9963 8.4208 -2.3012 0.9606
-5.4033 8.4076 -2.3489 0.9598
-5.7001 8.2096 -2.3489 0.9598
-6.0438 8.0736 -2.3703 0.9594
-6.5217 8.0929 -2.4427 0.9582
-6.9525 8.0235 -2.4952 0.9573
-7.5259 7.5259 -2.5014 0.9572
-7.7899 7.2527 -2.5015 0.9572
-8.0441 6.9702 -2.5015 0.9572
-8.7438 6.0709 -2.5017 0.9572
-8.9551 5.7551 -2.5018 0.9572
-9.6841 4.4226 -2.5021 0.9572
-9.8361 4.0742 -2.5022 0.9572
-10.3169 2.6332 -2.5024 0.9572
-10.4790 1.8906 -2.5026 0.9572
-10.5877 1.1383 -2.5027 0.9572
-10.6425 0.3801 -2.5028 0.9572
9.6529 0.3447 -2.5009 0.9609
9.6343 0.6891 -2.5009 0.9609
9.6033 1.0325 -2.5008 0.9609
9.5602 1.3745 -2.5008 0.9609
9.5048 1.7149 -2.5007 0.9609
9.4374 2.0530 -2.5007 0.9609
9.3579 2.3885 -2.5006 0.9609
9.1634 3.0499 -2.5005 0.9609
8.9222 3.6957 -2.5004 0.9609
8.6356 4.3227 -2.5004 0.9609
8.4756 4.6281 -2.5003 0.9609
8.3050 4.9276 -2.5003 0.9609
8.1237 5.2208 -2.5003 0.9609
7.9321 5.5074 -2.5003 0.9609
7.7304 5.7869 -2.5002 0.9609
7.5189 6.0591 -2.5002 0.9609
7.2977 6.3235 -2.5002 0.9609
7.0673 6.5799 -2.5002 0.9609
6.2698 7.2357 -2.4789 0.9612
5.8607 7.2727 -2.4184 0.9621
5.4703 7.3075 -2.3634 0.9630
4.9028 7.6289 -2.3480 0.9632
4.6274 7.7991 -2.3480 0.9632
4.3461 7.9593 -2.3480 0.9632
3.7672 8.2491 -2.3480 0.9632
2.8639 8.6046 -2.3481 0.9632
2.2263 8.7225 -2.3308 0.9635
1.9012 8.7396 -2.3158 0.9637
1.2614 8.7733 -2.2949 0.9640
0.9694 9.0172 -2.3482 0.9632
0.6470 9.0461 -2.3482 0.9632
-0.6470 9.0466 -2.3483 0.9632
-0.9695 9.0179 -2.3483 0.9632
-1.2908 8.9777 -2.3484 0.9632
-1.6104 8.9260 -2.3484 0.9632
-1.9280 8.8630 -2.3485 0.9632
-2.1250 8.3256 -2.2247 0.9651
-2.4457 8.3292 -2.2476 0.9648
-3.7684 8.2516 -2.3487 0.9632
-4.0606 8.1120 -2.3488 0.9632
-4.3501 7.9665 -2.3501 0.9632
-4.7336 7.9780 -2.4019 0.9624
-5.1379 7.9948 -2.4606 0.9615
-5.7835 7.7259 -2.4988 0.9609
-6.5831 7.0708 -2.5014 0.9609
-7.0711 6.5834 -2.5015 0.9609
-7.5232 6.0625 -2.5016 0.9609
-8.3102 4.9307 -2.5019 0.9609
-8.6412 4.3255 -2.5020 0.9609
-8.7903 4.0144 -2.5021 0.9609
-8.9282 3.6982 -2.5021 0.9609
-9.0548 3.3772 -2.5022 0.9609
-9.3646 2.3902 -2.5024 0.9609
-9.4442 2.0544 -2.5024 0.9609
-9.5671 1.3755 -2.5026 0.9609
-9.6103 1.0332 -2.5026 0.9608
8.8118 0.6302 -2.5009 0.9639
8.7836 0.9443 -2.5009 0.9639
8.6318 1.8777 -2.5008 0.9639
8.5592 2.1846 -2.5007 0.9639
8.4756 2.4887 -2.5007 0.9639
8.2762 3.0869 -2.5006 0.9639
8.0347 3.6693 -2.5005 0.9639
7.8985 3.9537 -2.5005 0.9639
7.4304 4.7752 -2.5004 0.9639
7.2551 5.0373 -2.5004 0.9639
7.0706 5.2930 -2.5004 0.9639
6.8772 5.5420 -2.5004 0.9639
6.4642 6.0184 -2.5003 0.9639
5.2851 7.0600 -2.4966 0.9640
5.0243 7.2363 -2.4939 0.9640
4.7143 7.3356 -2.4685 0.9644
4.3710 7.3669 -2.4250 0.9650
4.0382 7.3954 -2.3854 0.9656
3.1742 7.6633 -2.3482 0.9661
2.3369 7.9588 -2.3482 0.9661
2.0514 8.0372 -2.3482 0.9661
1.7632 8.1054 -2.3482 0.9661
1.1805 8.2106 -2.3483 0.9661
0.5918 8.2741 -2.3483 0.9661
0.0000 8.2954 -2.3484 0.9661
-0.2961 8.2902 -2.3484 0.9661
-0.8868 8.2482 -2.3485 0.9661
-1.4730 8.1642 -2.3485 0.9661
-2.9315 7.8595 -2.3747 0.9657
-4.5052 7.5931 -2.4994 0.9640
-4.7766 7.4326 -2.5012 0.9639
-5.0390 7.2575 -2.5012 0.9639
-5.2949 7.0732 -2.5013 0.9639
-5.5441 6.8798 -2.5013 0.9639
-6.4674 6.0213 -2.5015 0.9639
-6.8808 5.5449 -2.5017 0.9639
-7.2591 5.0401 -2.5018 0.9639
-7.6005 4.5096 -2.5019 0.9639
-7.9033 3.9561 -2.5020 0.9639
-8.0396 3.6716 -2.5021 0.9639
-8.1657 3.3823 -2.5021 0.9639
-8.3866 2.7913 -2.5022 0.9639
-8.8177 0.6306 -2.5026 0.9639
8.1316 0.0000 -2.5011 0.9665
8.0846 0.8692 -2.5010 0.9665
8.0483 1.1572 -2.5009 0.9665
8.0017 1.4437 -2.5009 0.9665
7.8781 2.0108 -2.5008 0.9665
7.8012 2.2906 -2.5008 0.9665
7.3954 3.3774 -2.5006 0.9665
7.2701 3.6391 -2.5006 0.9665
7.1355 3.8963 -2.5006 0.9665
6.9918 4.1484 -2.5006 0.9665
6.6779 4.6365 -2.5005 0.9666
6.5081 4.8719 -2.5005 0.9666
6.3300 5.1010 -2.5005 0.9666
6.1439 5.3237 -2.5005 0.9666
5.9499 5.5395 -2.5004 0.9666
5.7483 5.7483 -2.5004 0.9666
5.5395 5.9498 -2.5004 0.9666
5.3236 6.1437 -2.5004 0.9666
5.1009 6.3298 -2.5004 0.9666
4.8717 6.5078 -2.5004 0.9666
4.6363 6.6775 -2.5004 0.9666
4.3950 6.8388 -2.5004 0.9666
3.8908 7.1256 -2.4971 0.9666
3.0805 7.4370 -2.4759 0.9669
2.4909 7.4841 -2.4261 0.9675
1.3655 7.5683 -2.3654 0.9683
1.0910 7.5882 -2.3580 0.9684
0.8181 7.6090 -2.3539 0.9685
-0.2743 7.6795 -2.3636 0.9684
-0.8293 7.7133 -2.3861 0.9681
-1.3975 7.7458 -2.4209 0.9676
-1.9850 7.7772 -2.4688 0.9670
-2.5619 7.6973 -2.4952 0.9666
-2.8372 7.6068 -2.4971 0.9666
-3.1094 7.5068 -2.4992 0.9666
-3.3779 7.3965 -2.5010 0.9665
-3.6398 7.2714 -2.5011 0.9665
-3.8971 7.1370 -2.5011 0.9665
-4.1494 6.9935 -2.5012 0.9665
-4.3965 6.8410 -2.5012 0.9665
-4.8735 6.5102 -2.5013 0.9665
-5.1029 6.3323 -2.5014 0.9665
-5.3257 6.1462 -2.5014 0.9665
-5.5418 5.9523 -2.5015 0.9665
-5.9526 5.5420 -2.5016 0.9665
-6.1467 5.3262 -2.5016 0.9665
-6.3330 5.1035 -2.5017 0.9665
-6.5113 4.8743 -2.5017 0.9665
-6.8427 4.3975 -2.5018 0.9665
-6.9955 4.1506 -2.5019 0.9665
-7.1393 3.8984 -2.5019 0.9665
-7.3995 3.3793 -2.5020 0.9665
-7.5156 3.1131 -2.5021 0.9665
-7.6221 2.8429 -2.5022 0.9665
-7.8058 2.2920 -2.5023 0.9665
-8.0895 0.8697 -2.5025 0.9665
7.5244 -0.0000 -2.5012 0.9688
7.5195 0.2686 -2.5011 0.9688
7.5050 0.5368 -2.5011 0.9688
7.4810 0.8043 -2.5010 0.9688
7.4474 1.0708 -2.5010 0.9688
7.3518 1.5993 -2.5009 0.9688
7.2899 1.8606 -2.5009 0.9688
7.0490 2.6291 -2.5008 0.9688
6.8433 3.1252 -2.5007 0.9688
6.4698 3.8387 -2.5007 0.9688
6.3286 4.0672 -2.5006 0.9688
6.1794 4.2904 -2.5006 0.9688
5.8575 4.7202 -2.5006 0.9688
5.6852 4.9263 -2.5006 0.9688
5.5057 5.1260 -2.5005 0.9688
5.1260 5.5057 -2.5005 0.9688
4.7201 5.8573 -2.5005 0.9688
4.5080 6.0220 -2.5005 0.9688
4.0669 6.3283 -2.5005 0.9688
3.6051 6.6023 -2.5005 0.9688
3.1249 6.8427 -2.5005 0.9688
2.8787 6.9498 -2.5005 0.9688
2.3739 7.1325 -2.4988 0.9688
2.1170 7.2098 -2.4978 0.9688
1.3330 7.3885 -2.4956 0.9688
0.8024 7.4630 -2.4950 0.9689
0.2679 7.5012 -2.4950 0.9689
-0.2680 7.5031 -2.4957 0.9688
-0.8030 7.4687 -2.4969 0.9688
-1.0694 7.4378 -2.4978 0.9688
-1.5987 7.3490 -2.5000 0.9688
-1.8606 7.2900 -2.5009 0.9688
-2.3760 7.1388 -2.5010 0.9688
-3.3680 6.7285 -2.5011 0.9688
-3.8396 6.4713 -2.5012 0.9688
-4.2916 6.1811 -2.5013 0.9688
-5.1280 5.5078 -2.5015 0.9688
-5.3214 5.3214 -2.5015 0.9688
-5.5080 5.1282 -2.5016 0.9688
-5.8601 4.7223 -2.5017 0.9688
-6.1823 4.2924 -2.5018 0.9688
-6.6061 3.6072 -2.5019 0.9688
-6.7308 3.3692 -2.5020 0.9688
-6.8468 3.1268 -2.5020 0.9688
-7.0527 2.6305 -2.5021 0.9688
-7.1423 2.3772 -2.5022 0.9688
-7.2939 1.8617 -2.5023 0.9688
-7.3559 1.6002 -2.5023 0.9688
-7.4084 1.3366 -2.5024 0.9688
-7.4516 1.0714 -2.5024 0.9688
-7.4852 0.8047 -2.5025 0.9688
-7.5238 0.2687 -2.5025 0.9688
6.9943 -0.0000 -2.5012 0.9707
6.9763 0.4990 -2.5011 0.9707
6.9227 0.9953 -2.5011 0.9707
6.8827 1.2418 -2.5010 0.9707
6.7764 1.7296 -2.5010 0.9707
6.3612 2.9051 -2.5008 0.9707
5.8828 3.7807 -2.5007 0.9707
5.4449 4.3877 -2.5007 0.9707
5.2848 4.5793 -2.5007 0.9707
4.3876 5.4447 -2.5006 0.9707
4.1905 5.5978 -2.5006 0.9707
3.7805 5.8825 -2.5006 0.9707
3.5681 6.0137 -2.5006 0.9707
3.1300 6.2529 -2.5006 0.9707
2.6760 6.4603 -2.5006 0.9707
2.4437 6.5517 -2.5006 0.9707
2.2083 6.6348 -2.5006 0.9707
1.9701 6.7094 -2.5006 0.9707
1.7293 6.7755 -2.5006 0.9707
0.9952 6.9217 -2.5007 0.9707
0.4989 6.9751 -2.5007 0.9707
0.2496 6.9885 -2.5008 0.9707
0.0000 6.9931 -2.5008 0.9707
-0.2496 6.9887 -2.5008 0.9707
-0.9953 6.9222 -2.5009 0.9707
-1.2417 6.8823 -2.5009 0.9707
-1.4866 6.8337 -2.5009 0.9707
-2.6765 6.4616 -2.5011 0.9707
-2.9055 6.3621 -2.5012 0.9707
-3.1307 6.2544 -2.5012 0.9707
-3.3520 6.1388 -2.5012 0.9707
-3.7816 5.8842 -2.5013 0.9707
-4.3891 5.4465 -2.5014 0.9707
-4.5808 5.2865 -2.5015 0.9707
-4.9464 4.9464 -2.5016 0.9707
-5.2869 4.5811 -2.5017 0.9707
-5.4471 4.3896 -2.5017 0.9707
-5.6004 4.1924 -2.5017 0.9707
-5.7466 3.9899 -2.5018 0.9707
-5.8855 3.7824 -2.5018 0.9707
-6.3643 2.9065 -2.5020 0.9707
-6.4641 2.6775 -2.5021 0.9707
-6.7798 1.7304 -2.5022 0.9707
-6.8374 1.4874 -2.5023 0.9707
-6.9576 0.7480 -2.5024 0.9707
-6.9934 0.2498 -2.5025 0.9707
6.5227 0.2330 -2.5012 0.9724
6.5102 0.4656 -2.5012 0.9724
6.4602 0.9288 -2.5011 0.9724
6.3773 1.3873 -2.5011 0.9724
6.3236 1.6140 -2.5010 0.9724
6.2619 1.8387 -2.5010 0.9724
6.1922 2.0610 -2.5010 0.9724
6.1147 2.2806 -2.5009 0.9724
5.8357 2.9211 -2.5009 0.9724
5.7276 3.1275 -2.5008 0.9724
5.4898 3.5281 -2.5008 0.9724
5.3604 3.7218 -2.5008 0.9724
5.2241 3.9107 -2.5008 0.9724
5.0811 4.0946 -2.5007 0.9724
4.9317 4.2734 -2.5007 0.9724
4.4466 4.7760 -2.5007 0.9724
4.0945 5.0810 -2.5007 0.9724
3.9106 5.2239 -2.5007 0.9724
3.5279 5.4896 -2.5007 0.9724
3.1273 5.7273 -2.5007 0.9724
2.2804 6.1141 -2.5007 0.9724
2.0608 6.1916 -2.5007 0.9724
1.8385 6.2612 -2.5007 0.9724
1.6138 6.3229 -2.5007 0.9724
0.6976 6.4884 -2.5008 0.9724
0.4655 6.5092 -2.5008 0.9724
0.2329 6.5217 -2.5008 0.9724
-0.2329 6.5218 -2.5009 0.9724
-0.4656 6.5094 -2.5009 0.9724
-0.6976 6.4887 -2.5009 0.9724
-1.1588 6.4226 -2.5010 0.9724
-1.8387 6.2621 -2.5011 0.9724
-2.9216 5.8365 -2.5012 0.9724
-3.1281 5.7286 -2.5013 0.9724
-3.3306 5.6134 -2.5013 0.9724
-4.0958 5.0826 -2.5015 0.9724
-4.6159 4.6159 -2.5016 0.9724
-4.7778 4.4483 -2.5016 0.9724
-4.9336 4.2750 -2.5017 0.9724
-5.2262 3.9123 -2.5018 0.9724
-5.3626 3.7233 -2.5018 0.9724
-5.6147 3.3314 -2.5019 0.9724
-5.7301 3.1289 -2.5019 0.9724
-5.8383 2.9224 -2.5020 0.9724
-6.0321 2.4986 -2.5021 0.9724
-6.2649 1.8395 -2.5022 0.9724
-6.3267 1.6148 -2.5022 0.9724
-6.4260 1.1594 -2.5023 0.9724
-6.5134 0.4658 -2.5024 0.9724
6.0958 0.4360 -2.5012 0.9739
6.0763 0.6533 -2.5012 0.9739
6.0490 0.8697 -2.5012 0.9739
5.9212 1.5113 -2.5011 0.9739
5.7981 1.9298 -2.5010 0.9739
5.7255 2.1355 -2.5010 0.9739
5.4643 2.7352 -2.5009 0.9739
4.8916 3.6618 -2.5008 0.9739
4.7578 3.8341 -2.5008 0.9739
4.3206 4.3206 -2.5008 0.9739
4.1636 4.4721 -2.5008 0.9739
4.0014 4.6178 -2.5008 0.9739
3.4848 5.0191 -2.5008 0.9739
3.1179 5.2549 -2.5008 0.9739
2.9283 5.3628 -2.5008 0.9739
2.7350 5.4639 -2.5008 0.9739
2.5383 5.5580 -2.5008 0.9739
2.3383 5.6451 -2.5008 0.9739
1.7215 5.8628 -2.5008 0.9739
1.2988 5.9707 -2.5008 0.9739
0.6532 6.0754 -2.5009 0.9739
0.4359 6.0949 -2.5009 0.9739
0.0000 6.1106 -2.5009 0.9739
-0.2181 6.1068 -2.5009 0.9739
-0.6532 6.0757 -2.5010 0.9739
-1.2990 5.9713 -2.5011 0.9739
-1.9299 5.7984 -2.5011 0.9739
-2.1357 5.7259 -2.5012 0.9739
-2.3387 5.6461 -2.5012 0.9739
-2.5388 5.5591 -2.5012 0.9739
-2.7356 5.4650 -2.5013 0.9739
-3.6627 4.8928 -2.5015 0.9739
-4.1650 4.4735 -2.5016 0.9739
-4.3220 4.3220 -2.5016 0.9739
-4.7595 3.8355 -2.5017 0.9739
-5.2572 3.1193 -2.5019 0.9739
-5.3653 2.9297 -2.5019 0.9739
-5.4665 2.7364 -2.5020 0.9739
-5.5608 2.5395 -2.5020 0.9739
-5.7280 2.1364 -2.5021 0.9739
-5.8007 1.9307 -2.5021 0.9739
-5.8660 1.7224 -2.5022 0.9739
-5.9238 1.5120 -2.5022 0.9739
-5.9741 1.2996 -2.5022 0.9739
-6.0168 1.0855 -2.5023 0.9739
-6.0518 0.8701 -2.5023 0.9739
-6.1104 0.2182 -2.5024 0.9739
5.7394 -0.0000 -2.5013 0.9753
5.7063 0.6135 -2.5012 0.9753
5.6807 0.8168 -2.5012 0.9753
5.5064 1.6168 -2.5011 0.9753
5.3019 2.1961 -2.5010 0.9753
5.1316 2.5687 -2.5010 0.9753
4.9352 2.9282 -2.5009 0.9753
4.7137 3.2728 -2.5009 0.9753
4.5938 3.4389 -2.5009 0.9753
4.4681 3.6007 -2.5009 0.9753
4.0576 4.0576 -2.5009 0.9753
3.7578 4.3367 -2.5008 0.9753
3.6006 4.4680 -2.5008 0.9753
3.4388 4.5937 -2.5008 0.9753
2.9280 4.9350 -2.5008 0.9753
2.7500 5.0363 -2.5008 0.9753
2.5685 5.1313 -2.5008 0.9753
2.3838 5.2197 -2.5008 0.9753
2.0053 5.3765 -2.5008 0.9753
1.8122 5.4446 -2.5008 0.9753
1.2198 5.6072 -2.5009 0.9753
1.0189 5.6472 -2.5009 0.9753
0.4094 5.7239 -2.5009 0.9753
0.2048 5.7349 -2.5010 0.9753
0.0000 5.7386 -2.5010 0.9753
-0.8167 5.6804 -2.5011 0.9753
-1.0190 5.6477 -2.5011 0.9753
-1.2199 5.6077 -2.5011 0.9753
-1.4193 5.5607 -2.5011 0.9753
-2.0056 5.3773 -2.5012 0.9753
-2.3842 5.2206 -2.5013 0.9753
-2.7506 5.0374 -2.5013 0.9753
-3.1031 4.8284 -2.5014 0.9753
-3.2735 4.7147 -2.5014 0.9753
-3.4397 4.5949 -2.5015 0.9753
-3.6016 4.4693 -2.5015 0.9753
-3.9113 4.2011 -2.5016 0.9753
-4.0588 4.0589 -2.5016 0.9753
-4.3382 3.7591 -2.5017 0.9753
-4.5954 3.4401 -2.5018 0.9753
-4.7154 3.2739 -2.5018 0.9753
-4.9371 2.9293 -2.5019 0.9753
-5.0385 2.7513 -2.5019 0.9753
-5.1336 2.5697 -2.5020 0.9753
-5.3040 2.1970 -2.5020 0.9753
-5.5630 1.4199 -2.5022 0.9753
-5.6503 1.0194 -2.5023 0.9753
-5.6832 0.8171 -2.5023 0.9753
-5.7088 0.6138 -2.5023 0.9753
-5.7271 0.4096 -2.5024 0.9753
5.4039 -0.0000 -2.5014 0.9765
5.3900 0.3855 -2.5013 0.9765
5.3727 0.5776 -2.5013 0.9765
5.3486 0.7690 -2.5012 0.9765
5.2800 1.1486 -2.5012 0.9765
5.2356 1.3363 -2.5012 0.9765
5.1845 1.5223 -2.5011 0.9765
5.1268 1.7064 -2.5011 0.9765
4.9919 2.0677 -2.5011 0.9765
4.8316 2.4185 -2.5010 0.9765
4.7422 2.5894 -2.5010 0.9765
4.6467 2.7570 -2.5010 0.9765
4.4381 3.0815 -2.5010 0.9765
4.2070 3.3902 -2.5009 0.9765
4.0833 3.5382 -2.5009 0.9765
3.9544 3.6816 -2.5009 0.9765
3.8204 3.8204 -2.5009 0.9765
3.5381 4.0832 -2.5009 0.9765
3.0814 4.4380 -2.5009 0.9765
2.9210 4.5451 -2.5009 0.9765
2.5893 4.7419 -2.5009 0.9765
2.4184 4.8313 -2.5009 0.9765
1.8881 5.0622 -2.5009 0.9765
1.7062 5.1264 -2.5009 0.9765
1.5222 5.1840 -2.5009 0.9765
1.3362 5.2351 -2.5009 0.9765
1.1485 5.2795 -2.5009 0.9765
0.9593 5.3171 -2.5009 0.9765
0.7689 5.3480 -2.5010 0.9765
0.5776 5.3721 -2.5010 0.9765
0.3854 5.3893 -2.5010 0.9765
0.1928 5.3996 -2.5010 0.9765
-0.0000 5.4031 -2.5010 0.9765
-0.3855 5.3894 -2.5011 0.9765
-0.5776 5.3723 -2.5011 0.9765
-0.7690 5.3483 -2.5011 0.9765
-1.1486 5.2799 -2.5012 0.9765
-1.3363 5.2356 -2.5012 0.9765
-1.5223 5.1846 -2.5012 0.9765
-1.7064 5.1270 -2.5012 0.9765
-1.8884 5.0629 -2.5013 0.9765
-2.0679 4.9924 -2.5013 0.9765
-2.2448 4.9154 -2.5013 0.9765
-2.4188 4.8322 -2.5013 0.9765
-2.5898 4.7429 -2.5014 0.9765
-2.9216 4.5461 -2.5014 0.9765
-3.0821 4.4390 -2.5015 0.9765
-3.5391 4.0843 -2.5016 0.9765
-3.6826 3.9554 -2.5016 0.9765
-3.9555 3.6827 -2.5017 0.9765
-4.0845 3.5392 -2.5017 0.9765
-4.3267 3.2389 -2.5018 0.9765
-4.5469 2.9221 -2.5018 0.9765
-4.6484 2.7580 -2.5019 0.9765
-4.9938 2.0685 -2.5020 0.9765
-5.0645 1.8890 -2.5021 0.9765
-5.1288 1.7070 -2.5021 0.9765
-5.1865 1.5229 -2.5021 0.9765
-5.2377 1.3368 -2.5022 0.9765
-5.2821 1.1490 -2.5022 0.9765
-5.3508 0.7693 -2.5023 0.9765
-5.3749 0.5779 -2.5023 0.9765
-5.3922 0.3857 -2.5023 0.9765
-5.4026 0.1929 -2.5024 0.9765
5.0994 -0.0000 -2.5014 0.9775
5.0961 0.1820 -2.5014 0.9775
5.0863 0.3638 -2.5013 0.9775
5.0700 0.5451 -2.5013 0.9775
5.0181 0.9054 -2.5013 0.9775
4.8380 1.6102 -2.5012 0.9775
4.7774 1.7819 -2.5011 0.9775
4.7108 1.9513 -2.5011 0.9775
4.6381 2.1181 -2.5011 0.9775
4.4751 2.4436 -2.5011 0.9775
4.2893 2.7566 -2.5010 0.9775
3.9700 3.1992 -2.5010 0.9775
3.8533 3.3389 -2.5010 0.9775
3.7316 3.4743 -2.5010 0.9775
3.3388 3.8532 -2.5010 0.9775
3.0554 4.0816 -2.5009 0.9775
2.7565 4.2891 -2.5009 0.9775
2.6016 4.3848 -2.5009 0.9775
2.2822 4.5592 -2.5009 0.9775
1.9511 4.7104 -2.5009 0.9775
1.7818 4.7771 -2.5010 0.9775
1.6101 4.8376 -2.5010 0.9775
1.4364 4.8920 -2.5010 0.9775
1.2609 4.9402 -2.5010 0.9775
1.0838 4.9821 -2.5010 0.9775
-0.3637 5.0859 -2.5011 0.9775
-0.5450 5.0697 -2.5011 0.9775
-0.7257 5.0470 -2.5012 0.9775
-0.9053 5.0180 -2.5012 0.9775
-1.0839 4.9825 -2.5012 0.9775
-1.2610 4.9407 -2.5012 0.9775
-1.4366 4.8926 -2.5012 0.9775
-2.4439 4.4757 -2.5014 0.9775
-2.6021 4.3857 -2.5014 0.9775
-2.9084 4.1890 -2.5015 0.9775
-3.0561 4.0825 -2.5015 0.9775
-3.1999 3.9709 -2.5016 0.9775
-3.3397 3.8542 -2.5016 0.9775
-3.6062 3.6062 -2.5017 0.9775
-3.7327 3.4752 -2.5017 0.9775
-3.8544 3.3398 -2.5017 0.9775
-3.9712 3.2002 -2.5017 0.9775
-4.2907 2.7575 -2.5018 0.9775
-4.5611 2.2831 -2.5019 0.9775
-4.6397 2.1189 -2.5020 0.9775
-4.8398 1.6108 -2.5021 0.9775
-4.9425 1.2615 -2.5021 0.9775
-5.0720 0.5453 -2.5023 0.9775
-5.0883 0.3639 -2.5023 0.9775
4.8217 -0.0000 -2.5014 0.9785
4.8186 0.1721 -2.5014 0.9785
4.7113 1.0249 -2.5013 0.9785
4.6716 1.1924 -2.5012 0.9785
4.5746 1.5226 -2.5012 0.9785
4.5173 1.6849 -2.5012 0.9785
4.4543 1.8450 -2.5012 0.9785
4.3855 2.0028 -2.5011 0.9785
4.3112 2.1580 -2.5011 0.9785
4.2314 2.3105 -2.5011 0.9785
3.5284 3.2851 -2.5010 0.9785
3.0250 3.7538 -2.5010 0.9785
2.3104 4.2312 -2.5010 0.9785
2.0027 4.3853 -2.5010 0.9785
1.8449 4.4540 -2.5010 0.9785
1.6847 4.5170 -2.5010 0.9785
1.5225 4.5742 -2.5010 0.9785
1.1923 4.6712 -2.5010 0.9785
1.0248 4.7108 -2.5010 0.9785
0.5153 4.7934 -2.5011 0.9785
0.3439 4.8088 -2.5011 0.9785
-0.1721 4.8181 -2.5011 0.9785
-0.3439 4.8089 -2.5012 0.9785
-0.6861 4.7722 -2.5012 0.9785
-0.8560 4.7447 -2.5012 0.9785
-1.0249 4.7112 -2.5012 0.9785
-1.1924 4.6717 -2.5013 0.9785
-1.3584 4.6262 -2.5013 0.9785
-1.6850 4.5176 -2.5013 0.9785
-2.1583 4.3117 -2.5014 0.9785
-2.3108 4.2320 -2.5014 0.9785
-2.4604 4.1468 -2.5015 0.9785
-2.6069 4.0564 -2.5015 0.9785
-2.8897 3.8602 -2.5015 0.9785
-3.0257 3.7546 -2.5016 0.9785
-3.4098 3.4098 -2.5017 0.9785
-3.5294 3.2860 -2.5017 0.9785
-3.6445 3.1580 -2.5017 0.9785
-3.7549 3.0259 -2.5018 0.9785
-4.2328 2.3113 -2.5019 0.9785
-4.3870 2.0035 -2.5020 0.9785
-4.4558 1.8456 -2.5020 0.9785
-4.5762 1.5231 -2.5021 0.9785
-4.6733 1.1928 -2.5021 0.9785
-4.7466 0.8564 -2.5022 0.9785
-4.7742 0.6864 -2.5022 0.9785
-4.7957 0.5156 -2.5022 0.9785
-4.8204 0.1722 -2.5023 0.9785
4.5671 0.0000 -2.5014 0.9794
4.5642 0.1630 -2.5014 0.9794
4.5554 0.3258 -2.5014 0.9794
4.5408 0.4882 -2.5014 0.9794
4.4944 0.8109 -2.5013 0.9794
4.4625 0.9708 -2.5013 0.9794
4.1540 1.8971 -2.5012 0.9794
3.9273 2.3302 -2.5011 0.9794
3.8416 2.4689 -2.5011 0.9794
3.7511 2.6044 -2.5011 0.9794
3.5557 2.8653 -2.5011 0.9794
3.4511 2.9904 -2.5011 0.9794
3.3422 3.1117 -2.5011 0.9794
3.2290 3.2290 -2.5011 0.9794
3.1116 3.3421 -2.5011 0.9794
2.9904 3.4511 -2.5010 0.9794
2.8653 3.5556 -2.5010 0.9794
2.6043 3.7509 -2.5010 0.9794
2.0440 4.0834 -2.5010 0.9794
1.5958 4.2785 -2.5011 0.9794
1.4421 4.3328 -2.5011 0.9794
1.2865 4.3815 -2.5011 0.9794
0.9707 4.4621 -2.5011 0.9794
0.8108 4.4939 -2.5011 0.9794
0.6499 4.5200 -2.5011 0.9794
0.4881 4.5404 -2.5011 0.9794
0.0000 4.5666 -2.5012 0.9794
-0.1630 4.5637 -2.5012 0.9794
-0.3258 4.5550 -2.5012 0.9794
-0.6499 4.5203 -2.5012 0.9794
-0.8109 4.4942 -2.5012 0.9794
-0.9708 4.4625 -2.5013 0.9794
-1.2866 4.3819 -2.5013 0.9794
-1.4422 4.3332 -2.5013 0.9794
-1.5960 4.2790 -2.5014 0.9794
-1.7477 4.2194 -2.5014 0.9794
-2.6048 3.7517 -2.5015 0.9794
-2.9911 3.4519 -2.5016 0.9794
-3.1124 3.3429 -2.5016 0.9794
-3.2298 3.2298 -2.5017 0.9794
-3.3430 3.1125 -2.5017 0.9794
-3.4520 2.9912 -2.5017 0.9794
-3.5566 2.8661 -2.5018 0.9794
-3.6567 2.7374 -2.5018 0.9794
-3.7521 2.6051 -2.5018 0.9794
-3.8428 2.4696 -2.5019 0.9794
-4.0092 2.1892 -2.5019 0.9794
-4.1553 1.8977 -2.5020 0.9794
-4.2802 1.5964 -2.5020 0.9794
-4.3345 1.4427 -2.5021 0.9794
-4.4265 1.1298 -2.5021 0.9794
-4.4959 0.8111 -2.5022 0.9794
-4.5220 0.6502 -2.5022 0.9794
-4.5658 0.1631 -2.5023 0.9794
4.3299 0.1546 -2.5014 0.9802
4.3215 0.3091 -2.5014 0.9802
4.3077 0.4631 -2.5014 0.9802
4.2884 0.6166 -2.5014 0.9802
4.2636 0.7692 -2.5014 0.9802
4.2334 0.9209 -2.5013 0.9802
4.1569 1.2206 -2.5013 0.9802
4.0591 1.5140 -2.5013 0.9802
3.7257 2.2106 -2.5012 0.9802
3.5585 2.4707 -2.5011 0.9802
3.0632 3.0632 -2.5011 0.9802
2.8369 3.2739 -2.5011 0.9802
2.7182 3.3731 -2.5011 0.9802
2.0761 3.8021 -2.5011 0.9802
1.9391 3.8738 -2.5011 0.9802
1.7996 3.9405 -2.5011 0.9802
1.6578 4.0023 -2.5011 0.9802
1.3681 4.1103 -2.5011 0.9802
1.2205 4.1566 -2.5011 0.9802
0.9208 4.2331 -2.5011 0.9802
0.7692 4.2633 -2.5011 0.9802
0.4631 4.3073 -2.5012 0.9802
0.1546 4.3294 -2.5012 0.9802
-0.3091 4.3212 -2.5012 0.9802
-0.4631 4.3075 -2.5012 0.9802
-0.6166 4.2882 -2.5013 0.9802
-1.0714 4.1978 -2.5013 0.9802
-1.3682 4.1108 -2.5014 0.9802
-1.5141 4.0594 -2.5014 0.9802
-1.6580 4.0028 -2.5014 0.9802
-1.9394 3.8744 -2.5015 0.9802
-2.0764 3.8027 -2.5015 0.9802
-2.3425 3.6450 -2.5015 0.9802
-2.5966 3.4686 -2.5016 0.9802
-2.9526 3.1713 -2.5017 0.9802
-3.0639 3.0639 -2.5017 0.9802
-3.1714 2.9527 -2.5017 0.9802
-3.2748 2.8376 -2.5017 0.9802
-3.4689 2.5968 -2.5018 0.9802
-3.8034 2.0768 -2.5019 0.9802
-3.8751 1.9397 -2.5019 0.9802
-4.1119 1.3686 -2.5021 0.9802
-4.1582 1.2210 -2.5021 0.9802
-4.1992 1.0718 -2.5021 0.9802
-4.2650 0.7695 -2.5022 0.9802
-4.2898 0.6168 -2.5022 0.9802
-4.3230 0.3092 -2.5022 0.9802
