ply
format ascii 1.0
element vertex 1372
property float32 x
property float32 y
property float32 z
property float32 I
end_header
27.4305 23.7687 6.3999 0.8629
26.0341 32.3063 7.3159 0.8449
16.1547 27.2273 5.5824 0.8793
13.2027 26.3756 5.2008 0.8871
10.2705 24.7953 4.7323 0.8967
4.8934 22.4946 4.0592 0.9107
3.1535 21.9332 3.9072 0.9139
2.3076 21.4639 3.8065 0.9161
-0.0000 20.2111 3.5638 0.9212
-0.7132 19.9698 3.5235 0.9220
-2.1281 19.7937 3.5103 0.9223
-3.6980 25.7199 4.5817 0.8998
-3.3779 18.7223 3.3545 0.9256
-4.5233 17.7221 3.2251 0.9284
-8.7188 23.3761 4.3992 0.9036
-10.3357 22.6321 4.3871 0.9039
-8.3398 16.6607 3.2852 0.9271
-8.8086 16.1318 3.2409 0.9281
-9.2158 15.5325 3.1846 0.9293
-9.8054 15.2574 3.1980 0.9290
-14.1904 13.2117 3.4187 0.9243
-7.8319 6.7864 1.8273 0.9588
-17.7646 12.3342 3.8134 0.9159
-18.4181 11.8366 3.8604 0.9149
-19.0598 11.3087 3.9078 0.9139
-19.5826 10.6929 3.9342 0.9134
-20.5035 10.2633 4.0430 0.9111
33.1781 35.6358 7.4590 0.8212
29.2476 33.7535 6.8420 0.8347
23.2576 31.0685 5.9454 0.8547
9.4856 14.7599 2.6878 0.9315
13.2004 26.3710 4.5178 0.8875
11.5110 25.2055 4.2450 0.8939
10.3664 25.0268 4.1499 0.8962
8.0628 24.2250 3.9113 0.9018
6.8707 23.3994 3.7360 0.9060
4.0439 22.4138 3.4891 0.9120
1.4904 20.8394 3.2006 0.9189
-0.0000 20.2095 3.0960 0.9215
-3.7050 25.7687 3.9882 0.9000
-5.2019 17.7160 2.8286 0.9280
-5.8953 17.7124 2.8598 0.9272
-10.4261 22.8300 3.8449 0.9034
-8.4233 16.8277 2.8828 0.9267
-8.8233 16.1586 2.8204 0.9282
-9.2155 15.5319 2.7667 0.9295
-9.8050 15.2569 2.7783 0.9292
-15.3672 20.5281 3.9283 0.9014
-16.9338 19.5426 3.9614 0.9006
-27.6062 29.6511 6.2063 0.8488
-14.1899 13.2112 2.9701 0.9245
-7.8165 6.2989 1.5379 0.9602
-21.3032 14.7910 3.9730 0.9004
-18.7558 12.0536 3.4155 0.9137
-19.1529 11.3639 3.4117 0.9138
-31.0650 14.1869 5.2318 0.8709
27.4183 23.7582 4.7244 0.8639
32.2304 34.6179 6.1593 0.8263
20.5976 29.6662 4.7030 0.8644
9.4891 14.7653 2.2856 0.9316
16.2736 27.4277 4.1530 0.8793
14.7956 27.0962 4.0202 0.8829
11.5104 25.2042 3.6082 0.8943
8.1922 24.6138 3.3781 0.9006
6.4348 21.9151 2.9743 0.9120
5.7462 22.5137 3.0257 0.9105
3.0635 28.4953 3.7321 0.8908
0.7203 20.1679 2.6280 0.9218
-0.0000 20.1430 2.6230 0.9220
-3.4051 18.8731 2.4974 0.9256
-4.5230 17.7209 2.3816 0.9289
-5.2017 17.7154 2.4043 0.9282
-7.1969 17.3749 2.4490 0.9269
-10.6161 23.2461 3.3279 0.9021
-11.2284 22.4315 3.2666 0.9038
-8.8275 16.1663 2.3986 0.9284
-10.6370 15.3202 2.4287 0.9275
-16.2155 20.1222 3.3653 0.9010
-16.9326 19.5412 3.3671 0.9010
-28.7235 30.8512 5.4891 0.8436
-13.8759 13.8759 2.5554 0.9239
-7.8208 6.7767 1.3476 0.9591
-8.2014 6.1395 1.3341 0.9595
-21.5154 14.9384 3.4109 0.8997
-19.2327 11.4113 2.9121 0.9137
-19.5809 10.6920 2.9052 0.9139
-20.5017 10.2624 2.9855 0.9117
29.4049 33.9351 4.8217 0.8347
25.8532 32.0819 4.4244 0.8473
23.3212 31.1535 4.1788 0.8551
20.7195 29.8418 3.9011 0.8640
9.4925 14.7707 1.8854 0.9318
16.2726 27.4260 3.4244 0.8796
11.5098 25.2029 2.9752 0.8945
6.4292 21.8959 2.4505 0.9123
4.1102 22.7815 2.4858 0.9111
2.2609 21.0297 2.2712 0.9184
1.4796 20.6879 2.2272 0.9199
0.7202 20.1671 2.1670 0.9220
-0.7039 19.7091 2.1177 0.9237
-1.4866 20.7848 2.2376 0.9196
-2.8026 26.0678 2.8153 0.8999
-3.7593 26.1464 2.8365 0.8992
-4.5228 17.7203 1.9638 0.9291
-5.1792 17.6386 1.9740 0.9287
-5.7733 17.3461 1.9631 0.9291
-8.8545 23.7397 2.7207 0.9031
-10.6158 23.2453 2.7441 0.9023
-10.5151 15.1446 1.9798 0.9285
-16.3860 20.3337 2.8042 0.9003
-13.5434 14.5466 2.1342 0.9232
-13.6670 13.6670 2.0755 0.9252
-14.1888 13.2102 2.0817 0.9250
-7.8153 6.7720 1.1104 0.9593
-7.8222 6.3035 1.0788 0.9604
-8.2030 6.1407 1.1003 0.9596
-19.2562 11.4252 2.4043 0.9139
-19.5801 10.6915 2.3956 0.9142
-20.5009 10.2620 2.4618 0.9119
33.1630 35.6196 4.1198 0.8225
29.6940 34.2687 3.8385 0.8336
9.4960 14.7760 1.4869 0.9319
16.2716 27.4244 2.6994 0.8798
13.5307 27.0309 2.5589 0.8857
10.2671 24.7870 2.2712 0.8979
11.1111 33.3836 2.9784 0.8683
6.4402 21.9334 1.9351 0.9123
1.4905 20.8405 1.7687 0.9195
0.7202 20.1663 1.7082 0.9222
-0.7072 19.8012 1.6773 0.9235
-1.8731 26.1893 2.2227 0.9000
-2.7878 25.9301 2.2077 0.9006
-3.6684 25.5141 2.1820 0.9017
-3.3509 18.5727 1.5976 0.9270
-3.9162 18.0027 1.5596 0.9287
-4.5227 17.7197 1.5481 0.9292
-5.2029 17.7194 1.5633 0.9285
-5.8000 17.4262 1.5547 0.9289
-9.6667 23.3374 2.1383 0.9036
-10.4837 22.9562 2.1364 0.9037
-8.7650 16.0519 1.5482 0.9292
-10.5631 15.2138 1.5679 0.9283
-11.1670 14.9173 1.5774 0.9279
-15.9659 19.8125 2.1540 0.9029
-16.8264 19.4186 2.1751 0.9020
-13.7304 13.7304 1.6438 0.9250
-14.1883 13.2098 1.6411 0.9251
-7.8098 6.7672 0.8748 0.9594
-7.8250 6.3058 0.8507 0.9605
-21.3034 14.7912 2.1954 0.9011
-19.1051 12.2781 1.9225 0.9129
-18.9918 11.2684 1.8694 0.9152
-20.5000 10.2615 1.9406 0.9121
-19.2798 1.3789 1.6363 0.9253
27.3963 23.7390 2.2479 0.8648
25.9296 32.1767 2.5625 0.8474
14.0461 28.0606 1.9459 0.8818
10.3452 24.9756 1.6763 0.8973
9.3111 24.9640 1.6522 0.8987
10.9728 32.9680 2.1546 0.8700
6.4394 21.9305 1.4173 0.9125
4.8761 22.4151 1.4225 0.9122
4.0898 22.6682 1.4284 0.9118
4.2182 29.3380 1.8380 0.8880
1.4904 20.8381 1.2955 0.9197
-0.0000 20.1463 1.2493 0.9224
-0.7071 19.7990 1.2285 0.9237
-1.8730 26.1884 1.6281 0.9001
-2.8030 26.0717 1.6260 0.9002
-3.7173 25.8540 1.6197 0.9006
-3.3505 18.5707 1.1702 0.9272
-5.2024 17.7176 1.1451 0.9287
-5.7994 17.4244 1.1388 0.9290
-8.6926 23.3057 1.5424 0.9051
-9.7173 23.4597 1.5746 0.9032
-10.5387 23.0764 1.5731 0.9033
-8.7641 16.0502 1.1340 0.9293
-9.8037 15.2548 1.1245 0.9299
-16.8934 19.4960 1.5997 0.9018
-13.7020 14.7170 1.2469 0.9226
-14.1878 13.2093 1.2021 0.9253
-21.4115 14.8662 1.6164 0.9008
-19.2289 12.3577 1.4174 0.9125
-18.9895 11.2670 1.3692 0.9153
-19.5784 10.6906 1.3833 0.9145
-20.4991 10.2611 1.4215 0.9122
35.1206 2.5119 1.3884 0.8685
27.3890 23.7327 1.4290 0.8650
32.9918 35.4357 1.9091 0.8238
24.5444 32.7875 1.6150 0.8488
9.5028 14.7867 0.6931 0.9321
16.2697 27.4211 1.2572 0.8802
14.7479 27.0088 1.2134 0.8841
4.8755 22.4123 0.9044 0.9123
4.0900 22.6696 0.9083 0.9119
4.2177 29.3345 1.1686 0.8881
-2.8027 26.0689 1.0338 0.9004
-3.7177 25.8575 1.0301 0.9007
-3.9160 18.0014 0.7264 0.9289
-5.2018 17.7158 0.7280 0.9288
-8.1657 16.3130 0.7193 0.9296
-8.7632 16.0486 0.7210 0.9294
-9.2140 15.5293 0.7120 0.9303
-10.5610 15.2106 0.7302 0.9286
-16.2328 20.1437 1.0201 0.9016
-13.7036 14.7187 0.7930 0.9227
-13.7275 13.7275 0.7655 0.9252
-14.1873 13.2088 0.7643 0.9253
-7.8307 6.3104 0.3966 0.9605
-8.2078 6.1442 0.4043 0.9598
-21.4116 14.8663 1.0278 0.9009
-19.2303 12.3586 0.9014 0.9126
-18.9871 11.2656 0.8705 0.9154
-19.5776 10.6902 0.8796 0.9146
-20.4982 10.2607 0.9039 0.9123
35.0187 2.5046 0.5930 0.8690
33.1310 35.5853 0.8213 0.8232
25.9293 32.1763 0.6980 0.8476
24.5452 32.7886 0.6919 0.8489
9.5062 14.7920 0.2970 0.9321
16.2687 27.4195 0.5385 0.8803
14.7453 27.0040 0.5197 0.8842
11.5074 25.1977 0.4679 0.8951
10.3420 24.9679 0.4565 0.8975
6.8504 23.3303 0.4107 0.9073
5.7450 22.5088 0.3924 0.9113
4.2172 29.3310 0.5005 0.8882
3.0630 28.4897 0.4840 0.8917
1.4900 20.8333 0.3528 0.9198
-0.0000 20.1418 0.3402 0.9226
-0.7070 19.7946 0.3346 0.9238
-1.8729 26.1865 0.4435 0.9003
-3.3498 18.5668 0.3187 0.9273
-4.5222 17.7179 0.3089 0.9295
-9.8151 23.6958 0.4332 0.9025
-10.6447 23.3087 0.4328 0.9026
-9.2137 15.5288 0.3050 0.9303
-11.1635 14.9127 0.3147 0.9282
-13.7260 13.7260 0.3279 0.9253
-14.1868 13.2083 0.3274 0.9254
-7.7936 6.7532 0.1742 0.9596
-7.8335 6.3127 0.1699 0.9606
-8.2093 6.1454 0.1732 0.9598
-18.9847 11.2641 0.3729 0.9155
-19.5768 10.6897 0.3768 0.9146
-20.4974 10.2602 0.3872 0.9124
-19.2311 1.3754 0.3257 0.9258
35.7689 2.5583 -0.2019 0.8664
25.9291 32.1761 -0.2327 0.8476
20.6835 29.7899 -0.2042 0.8650
9.5097 14.7974 -0.0990 0.9321
5.7448 22.5078 -0.1308 0.9113
4.2167 29.3275 -0.1668 0.8882
3.0628 28.4886 -0.1613 0.8917
1.4898 20.8309 -0.1176 0.9199
0.7201 20.1633 -0.1136 0.9225
-1.8728 26.1856 -0.1478 0.9003
-3.7188 25.8650 -0.1471 0.9008
-3.9157 18.0002 -0.1037 0.9290
-5.2008 17.7122 -0.1039 0.9288
-8.6899 23.2986 -0.1400 0.9053
-9.8148 23.6950 -0.1444 0.9025
-8.7614 16.0454 -0.1029 0.9295
-9.2134 15.5283 -0.1017 0.9303
-16.2405 20.1532 -0.1457 0.9016
-13.7068 14.7222 -0.1133 0.9227
-7.8364 6.3150 -0.0567 0.9605
-19.2334 12.3605 -0.1287 0.9126
-20.4965 10.2598 -0.1290 0.9124
-19.2298 1.3753 -0.1085 0.9258
42.1312 0.0001 -1.1863 0.8449
35.9434 1.2838 -1.0127 0.8660
19.6339 12.6180 -0.6572 0.9108
27.3672 23.7138 -1.0196 0.8651
30.0063 34.6292 -1.2902 0.8325
25.9289 32.1758 -1.1636 0.8476
20.6792 29.7837 -1.0210 0.8649
9.5131 14.8027 -0.4955 0.9320
17.8727 35.7051 -1.1243 0.8523
11.5062 25.1951 -0.7799 0.8951
10.3389 24.9603 -0.7607 0.8975
11.1404 33.4714 -0.9933 0.8683
3.0627 28.4875 -0.8068 0.8917
-0.0000 20.1372 -0.5670 0.9226
-0.7068 19.7902 -0.5576 0.9238
-2.8018 26.0605 -0.7380 0.9004
-3.7194 25.8689 -0.7359 0.9007
-3.9156 17.9996 -0.5187 0.9289
-5.2002 17.7104 -0.5197 0.9288
-8.6890 23.2962 -0.7001 0.9053
-9.8145 23.6942 -0.7221 0.9025
-8.1632 16.3081 -0.5135 0.9296
-9.8024 15.2528 -0.5105 0.9300
-16.2446 20.1583 -0.7290 0.9016
-13.7086 14.7240 -0.5665 0.9227
-13.7230 13.7230 -0.5465 0.9253
-7.8392 6.3172 -0.2835 0.9605
-8.2125 6.1478 -0.2889 0.9598
-21.4121 14.8666 -0.7340 0.9009
-19.2349 12.3615 -0.6438 0.9126
-19.5752 10.6889 -0.6280 0.9146
-20.4956 10.2594 -0.6454 0.9124
-19.2746 1.3785 -0.5441 0.9256
42.1014 0.0001 -2.1351 0.8448
35.7707 2.5584 -1.8187 0.8662
45.4919 8.2077 -2.3443 0.8310
47.7924 12.1983 -2.5015 0.8207
47.3767 13.9111 -2.5041 0.8206
46.3615 17.2920 -2.5094 0.8202
45.7630 18.9557 -2.5121 0.8201
44.3870 22.2186 -2.5173 0.8197
43.6110 23.8135 -2.5199 0.8195
42.7772 25.3809 -2.5225 0.8194
19.5120 12.5396 -1.1763 0.9113
38.4500 26.6964 -2.3739 0.8290
37.5102 28.0798 -2.3763 0.8289
27.9785 22.5465 -1.8223 0.8660
27.3599 23.7075 -1.8360 0.8650
33.2598 33.2598 -2.3854 0.8283
32.0810 34.4574 -2.3876 0.8281
25.9133 32.1564 -2.0944 0.8476
24.5103 32.7420 -2.0742 0.8489
20.6063 29.6788 -1.8324 0.8653
9.5165 14.8080 -0.8927 0.9319
16.2658 27.4146 -1.6166 0.8801
17.8265 35.6129 -2.0197 0.8526
11.2819 24.7040 -1.3773 0.8969
11.1398 33.4699 -1.7889 0.8682
5.7443 22.5059 -1.1779 0.9112
4.8729 22.4007 -1.1626 0.9123
4.0910 22.6752 -1.1685 0.9118
4.2156 29.3205 -1.5023 0.8881
3.0626 28.4864 -1.4530 0.8916
0.7201 20.1618 -1.0231 0.9224
-0.0000 20.1350 -1.0211 0.9225
-1.8727 26.1837 -1.3313 0.9002
-3.7199 25.8728 -1.3256 0.9006
-3.3488 18.5610 -0.9565 0.9272
-3.9154 17.9990 -0.9342 0.9289
-5.1997 17.7085 -0.9360 0.9287
-5.7964 17.4155 -0.9308 0.9291
-10.6437 23.3063 -1.2994 0.9025
-8.7597 16.0421 -0.9269 0.9294
-10.5566 15.2044 -0.9387 0.9285
-11.1600 14.9080 -0.9444 0.9281
-16.2487 20.1634 -1.3133 0.9015
-13.7103 14.7259 -1.0204 0.9226
-13.7215 13.7215 -0.9841 0.9252
-7.7775 6.7392 -0.5219 0.9596
-19.2364 12.3625 -1.1596 0.9125
-18.9776 11.2599 -1.1191 0.9154
-19.5744 10.6884 -1.1311 0.9145
-20.4948 10.2589 -1.1623 0.9123
-47.8186 10.4023 -2.4818 0.8220
-46.9084 8.4632 -2.4173 0.8262
-46.3971 6.6709 -2.3772 0.8288
-46.5593 5.0056 -2.3748 0.8290
31.8835 1.1388 -2.3393 0.8799
32.4699 2.3223 -2.3868 0.8776
33.8240 3.6365 -2.4943 0.8725
33.6971 4.8449 -2.4961 0.8724
33.5271 6.0490 -2.4980 0.8723
33.3140 7.2471 -2.4998 0.8722
32.4196 10.7903 -2.5053 0.8719
31.1483 14.2250 -2.5108 0.8717
30.6429 15.3388 -2.5126 0.8716
30.0974 16.4345 -2.5144 0.8715
29.5127 17.5107 -2.5162 0.8714
28.2277 19.5989 -2.5197 0.8712
27.4947 20.5823 -2.5183 0.8713
25.1643 20.2787 -2.3696 0.8784
24.4408 21.1781 -2.3712 0.8784
22.0796 23.7152 -2.3758 0.8781
21.2322 24.5033 -2.3773 0.8781
19.4532 25.9865 -2.3801 0.8779
16.2649 27.4130 -2.3372 0.8800
14.6890 26.9009 -2.2473 0.8843
14.0663 28.1008 -2.3041 0.8816
11.2819 24.7040 -1.9913 0.8968
10.3018 24.8707 -1.9738 0.8977
9.2841 24.8916 -1.9479 0.8989
4.8567 22.3261 -1.6753 0.9124
4.2056 29.2503 -2.1668 0.8882
3.0625 28.4852 -2.1006 0.8915
1.4893 20.8237 -1.5307 0.9197
0.7200 20.1610 -1.4792 0.9223
-0.0000 20.1327 -1.4762 0.9224
-5.7958 17.4137 -1.3457 0.9290
-8.6677 23.2390 -1.8186 0.9053
-10.6433 23.3055 -1.8786 0.9023
-8.1616 16.3047 -1.3369 0.9295
-8.7588 16.0404 -1.3400 0.9293
-9.8017 15.2517 -1.3293 0.9299
-10.5556 15.2029 -1.3571 0.9285
-16.8426 19.4373 -1.8858 0.9020
-13.7200 13.7200 -1.4227 0.9251
-14.1847 13.2064 -1.4210 0.9252
-7.8449 6.3218 -0.7387 0.9604
-8.2156 6.1501 -0.7525 0.9597
-21.3569 14.8284 -1.9064 0.9010
-18.9752 11.2585 -1.6178 0.9153
-20.4939 10.2585 -1.6804 0.9122
-31.4473 14.3614 -2.5349 0.8705
-33.0910 9.7164 -2.5287 0.8708
-34.0473 4.8953 -2.5221 0.8711
-19.2733 1.3785 -1.4168 0.9254
25.9577 0.0000 -2.4921 0.9009
25.9552 0.9270 -2.4934 0.9009
25.9197 1.8538 -2.4948 0.9008
25.8512 2.7793 -2.4961 0.9008
25.6154 4.6215 -2.4989 0.9007
25.4483 5.5359 -2.5003 0.9006
25.0165 7.3455 -2.5031 0.9005
22.9595 12.5369 -2.5114 0.9002
19.5963 12.5938 -2.2363 0.9106
21.5225 14.9433 -2.5155 0.9001
18.0472 16.8026 -2.3673 0.9057
17.4445 17.4445 -2.3685 0.9056
16.8189 18.0647 -2.3696 0.9056
16.1710 18.6624 -2.3707 0.9055
15.5017 19.2365 -2.3718 0.9055
10.8583 14.5049 -1.7395 0.9298
9.5234 14.8188 -1.6911 0.9317
9.2332 15.5617 -1.7372 0.9299
10.2923 22.5369 -2.3786 0.9052
8.6642 23.2296 -2.3802 0.9052
7.8320 23.5315 -2.3810 0.9051
6.8245 23.2423 -2.3256 0.9072
5.7438 22.5039 -2.2297 0.9109
4.8561 22.3232 -2.1933 0.9123
4.0722 22.5709 -2.2019 0.9120
3.5342 24.5809 -2.3842 0.9050
-0.0000 20.0650 -1.9263 0.9225
-0.7044 19.7225 -1.8947 0.9238
-2.6575 24.7179 -2.3867 0.9049
-3.5383 24.6092 -2.3869 0.9049
-3.3377 18.4995 -1.8047 0.9272
-3.9152 17.9977 -1.7683 0.9287
-4.5214 17.7149 -1.7552 0.9292
-8.6668 23.2366 -2.3809 0.9051
-9.5140 22.9687 -2.3868 0.9049
-9.8014 15.2512 -1.7405 0.9297
-15.5802 19.3338 -2.3838 0.9050
-16.2565 18.7609 -2.3833 0.9051
-13.6754 13.6754 -1.8567 0.9252
-14.1842 13.2060 -1.8606 0.9251
-7.7667 6.7299 -0.9866 0.9595
-8.2172 6.1513 -0.9854 0.9596
-20.3469 14.1271 -2.3781 0.9053
-19.1560 12.3108 -2.1861 0.9126
-18.9137 11.2220 -2.1114 0.9154
-19.5728 10.6875 -2.1410 0.9143
-22.8286 9.4559 -2.3722 0.9055
-23.6755 6.9517 -2.3689 0.9056
-23.8969 6.0993 -2.3678 0.9056
-25.8173 4.6579 -2.5186 0.8999
20.9912 0.7497 -2.4950 0.9189
20.8185 2.9933 -2.4984 0.9188
20.7077 3.7361 -2.4995 0.9187
19.7598 7.3701 -2.5051 0.9186
18.8841 9.4527 -2.5085 0.9185
18.5429 10.1252 -2.5096 0.9184
17.7888 11.4322 -2.5118 0.9183
17.3769 12.0650 -2.5129 0.9183
16.9423 12.6829 -2.5139 0.9183
16.4857 13.2851 -2.5150 0.9183
16.0076 13.8707 -2.5160 0.9182
13.0474 15.0575 -2.3667 0.9229
12.5063 15.5193 -2.3676 0.9229
8.9883 13.9860 -1.9748 0.9352
8.6731 14.6177 -2.0190 0.9338
6.2942 11.5269 -1.5601 0.9485
8.2988 18.1720 -2.3730 0.9227
7.6471 18.4618 -2.3737 0.9227
3.7614 10.0848 -1.2785 0.9576
6.3139 18.9703 -2.3749 0.9226
5.6342 19.1882 -2.3755 0.9226
4.9468 19.3815 -2.3761 0.9226
3.5530 19.6932 -2.3770 0.9226
2.8484 19.8112 -2.3775 0.9225
-2.8510 19.8295 -2.3797 0.9225
-4.5213 17.7143 -2.1717 0.9290
-5.1813 17.6459 -2.1846 0.9286
-5.7767 17.3563 -2.1729 0.9290
-7.0011 18.7706 -2.3797 0.9225
-7.6662 18.5078 -2.3796 0.9225
-8.1351 16.2518 -2.1588 0.9294
-8.7292 15.9862 -2.1636 0.9293
-9.2118 15.5257 -2.1444 0.9299
-9.8011 15.2507 -2.1534 0.9296
-10.5199 15.1515 -2.1911 0.9284
-11.1227 14.8582 -2.2047 0.9280
-12.5573 15.5827 -2.3772 0.9226
-13.1029 15.1216 -2.3768 0.9226
-13.6739 13.6738 -2.2971 0.9251
-7.8506 6.3264 -1.1977 0.9602
-16.7979 10.7953 -2.3719 0.9227
-17.8382 8.9291 -2.3696 0.9228
-18.4167 7.6285 -2.3679 0.9228
-18.6704 6.9637 -2.3670 0.9229
-18.9000 6.2905 -2.3661 0.9229
-19.1051 5.6098 -2.3652 0.9229
-19.2855 4.9223 -2.3643 0.9230
-19.7572 2.1241 -2.3604 0.9231
-19.0173 1.3601 -2.2648 0.9261
17.6107 0.0000 -2.4952 0.9313
17.6059 0.6288 -2.4962 0.9313
17.5788 1.2573 -2.4971 0.9313
17.3632 3.1327 -2.4999 0.9312
17.2468 3.7518 -2.5008 0.9312
16.9481 4.9764 -2.5027 0.9311
16.7660 5.5803 -2.5037 0.9311
16.3375 6.7672 -2.5056 0.9311
15.8249 7.9214 -2.5074 0.9310
14.9039 9.5782 -2.5102 0.9309
14.1927 10.6246 -2.5120 0.9309
13.8093 11.1283 -2.5129 0.9309
13.4079 11.6180 -2.5137 0.9308
9.5132 13.7017 -2.3634 0.9348
6.2242 11.3987 -1.8402 0.9489
7.4829 14.9489 -2.3686 0.9347
5.2841 15.8764 -2.3708 0.9346
4.7151 16.0581 -2.3713 0.9346
3.5588 16.3596 -2.3722 0.9346
2.9731 16.4790 -2.3726 0.9346
2.3834 16.5772 -2.3730 0.9346
1.7905 16.6541 -2.3733 0.9346
1.1951 16.7095 -2.3736 0.9346
0.5980 16.7435 -2.3739 0.9346
-1.1956 16.7160 -2.3745 0.9345
-1.7915 16.6637 -2.3747 0.9345
-2.3853 16.5900 -2.3748 0.9345
-2.9760 16.4949 -2.3749 0.9345
-4.1453 16.2411 -2.3750 0.9345
-5.2933 15.9037 -2.3749 0.9345
-5.8573 15.7041 -2.3748 0.9345
-6.4138 15.4843 -2.3747 0.9345
-6.9620 15.2447 -2.3746 0.9345
-7.5011 14.9854 -2.3744 0.9345
-8.0305 14.7068 -2.3742 0.9345
-9.0574 14.0935 -2.3737 0.9346
-9.5534 13.7595 -2.3734 0.9346
-7.7559 6.7205 -1.4541 0.9594
-7.8535 6.3288 -1.4291 0.9601
-14.0612 9.0366 -2.3683 0.9347
-14.6622 8.0062 -2.3670 0.9347
-14.9344 7.4756 -2.3663 0.9348
-15.1873 6.9358 -2.3657 0.9348
-15.4205 6.3874 -2.3649 0.9348
-15.6339 5.8311 -2.3642 0.9348
-16.2834 3.5422 -2.3611 0.9349
-16.5515 1.7795 -2.3587 0.9350
-16.6243 0.5937 -2.3570 0.9350
15.0799 1.6213 -2.4986 0.9404
15.0173 2.1592 -2.4994 0.9403
14.9355 2.6947 -2.5002 0.9403
14.7148 3.7557 -2.5018 0.9403
14.4187 4.7990 -2.5034 0.9403
14.0488 5.8192 -2.5051 0.9402
13.6066 6.8110 -2.5067 0.9402
12.8127 8.2342 -2.5090 0.9401
12.5144 8.6890 -2.5098 0.9401
12.2001 9.1329 -2.5106 0.9401
11.8699 9.5654 -2.5113 0.9401
11.5243 9.9859 -2.5121 0.9401
11.1638 10.3939 -2.5128 0.9400
10.7888 10.7888 -2.5135 0.9400
10.3998 11.1701 -2.5142 0.9400
9.5809 11.8891 -2.5154 0.9400
7.3252 12.3460 -2.3649 0.9435
6.1991 11.3527 -2.1309 0.9489
5.9675 13.0669 -2.3665 0.9434
5.4984 13.2743 -2.3670 0.9434
4.5391 13.6379 -2.3679 0.9434
3.5558 13.9317 -2.3687 0.9434
2.5537 14.1541 -2.3694 0.9434
2.0471 14.2381 -2.3697 0.9434
1.5378 14.3038 -2.3700 0.9433
1.0264 14.3512 -2.3702 0.9433
0.5136 14.3801 -2.3705 0.9433
-0.0000 14.3906 -2.3707 0.9433
-0.5137 14.3825 -2.3709 0.9433
-2.0485 14.2475 -2.3713 0.9433
-2.5558 14.1658 -2.3713 0.9433
-3.5600 13.9478 -2.3714 0.9433
-4.0555 13.8118 -2.3714 0.9433
-4.5458 13.6580 -2.3714 0.9433
-5.0303 13.4867 -2.3713 0.9433
-5.5082 13.2981 -2.3712 0.9433
-5.9791 13.0923 -2.3711 0.9433
-6.4421 12.8698 -2.3709 0.9433
-6.8969 12.6307 -2.3708 0.9433
-7.3427 12.3755 -2.3706 0.9433
-7.7790 12.1043 -2.3703 0.9433
-7.7504 6.7158 -1.6894 0.9593
-7.8564 6.3311 -1.6622 0.9599
-8.2220 6.1549 -1.6920 0.9592
-11.7983 8.1917 -2.3662 0.9434
-12.0805 7.7637 -2.3657 0.9434
-12.5978 6.8789 -2.3646 0.9435
-12.8322 6.4233 -2.3640 0.9435
-13.0500 5.9597 -2.3634 0.9435
-13.4349 5.0110 -2.3622 0.9435
-13.7506 4.0375 -2.3609 0.9436
-13.9956 3.0445 -2.3595 0.9436
-14.2281 1.5297 -2.3574 0.9436
-15.1919 0.5426 -2.5043 0.9402
13.2794 0.4743 -2.4976 0.9474
13.2577 0.9482 -2.4983 0.9473
13.1637 1.8927 -2.4997 0.9473
13.0914 2.3620 -2.5004 0.9473
13.0025 2.8285 -2.5011 0.9473
12.8969 3.2918 -2.5018 0.9473
12.7749 3.7510 -2.5025 0.9473
12.6365 4.2058 -2.5033 0.9472
12.3112 5.0995 -2.5047 0.9472
12.1248 5.5372 -2.5054 0.9472
11.7054 6.3917 -2.5068 0.9472
11.4730 6.8073 -2.5075 0.9472
11.2258 7.2144 -2.5082 0.9471
10.9641 7.6125 -2.5089 0.9471
10.3986 8.3798 -2.5102 0.9471
8.0169 10.7094 -2.5145 0.9470
7.6291 10.9880 -2.5143 0.9470
7.2143 11.2257 -2.5081 0.9471
6.0263 11.0364 -2.3635 0.9501
5.6296 11.2466 -2.3640 0.9501
3.5463 12.0777 -2.3660 0.9501
2.2359 12.3926 -2.3669 0.9500
1.7923 12.4660 -2.3672 0.9500
-0.0000 12.5988 -2.3681 0.9500
-0.4497 12.5917 -2.3682 0.9500
-0.8989 12.5683 -2.3684 0.9500
-2.2375 12.4016 -2.3687 0.9500
-2.6788 12.3141 -2.3687 0.9500
-3.1166 12.2107 -2.3687 0.9500
-3.5504 12.0917 -2.3687 0.9500
-3.9797 11.9571 -2.3687 0.9500
-4.8223 11.6420 -2.3685 0.9500
-5.2345 11.4620 -2.3684 0.9500
-6.0382 11.0580 -2.3682 0.9500
-6.8106 10.5974 -2.3678 0.9500
-7.1838 10.3466 -2.3676 0.9500
-8.2458 9.5162 -2.3668 0.9500
-7.5324 5.6387 -1.7685 0.9624
-7.8619 5.4586 -1.7990 0.9618
-8.2034 5.2720 -1.8329 0.9611
-8.5585 5.0780 -1.8705 0.9603
-11.0328 6.0244 -2.3627 0.9501
-11.4295 5.2197 -2.3617 0.9501
-11.6059 4.8073 -2.3612 0.9502
-11.7674 4.3890 -2.3606 0.9502
-11.9137 3.9653 -2.3601 0.9502
-12.0447 3.5367 -2.3595 0.9502
-11.6111 2.9636 -2.2524 0.9524
-12.5292 1.8014 -2.3792 0.9498
-13.3081 0.9518 -2.5078 0.9471
11.8104 0.4218 -2.4981 0.9528
11.7561 1.2639 -2.4993 0.9528
11.6418 2.1004 -2.5006 0.9528
11.3592 3.3354 -2.5025 0.9528
10.9459 4.5340 -2.5044 0.9527
10.7798 4.9230 -2.5050 0.9527
10.4063 5.6823 -2.5063 0.9527
10.1994 6.0516 -2.5069 0.9527
9.7464 6.7671 -2.5081 0.9526
8.9735 7.7756 -2.5098 0.9526
8.6922 8.0927 -2.5104 0.9526
8.3997 8.3997 -2.5110 0.9526
8.0963 8.6960 -2.5115 0.9526
7.7824 8.9814 -2.5121 0.9526
7.4584 9.2554 -2.5126 0.9526
6.7819 9.7678 -2.5136 0.9525
5.6879 10.4166 -2.5087 0.9526
4.2783 10.3287 -2.3632 0.9553
3.7617 10.0855 -2.2753 0.9569
2.7663 10.8384 -2.3645 0.9553
1.5925 11.0757 -2.3653 0.9553
1.1962 11.1266 -2.3655 0.9553
0.7984 11.1632 -2.3657 0.9553
-1.1967 11.1309 -2.3664 0.9553
-1.5933 11.0815 -2.3665 0.9553
-2.3799 10.9400 -2.3666 0.9553
-2.7688 10.8482 -2.3666 0.9553
-3.1543 10.7424 -2.3666 0.9553
-4.6505 10.1831 -2.3664 0.9553
-5.0107 10.0102 -2.3662 0.9553
-5.7114 9.6260 -2.3659 0.9553
-6.0509 9.4153 -2.3658 0.9553
-6.3825 9.1926 -2.3656 0.9553
-6.7060 8.9581 -2.3654 0.9553
-7.0207 8.7122 -2.3651 0.9553
-7.3264 8.4551 -2.3649 0.9553
-7.4936 8.0487 -2.3246 0.9560
-7.1209 7.1209 -2.1287 0.9597
-6.9035 5.9819 -1.9309 0.9633
-7.2131 5.8127 -1.9582 0.9628
-7.5321 5.6384 -1.9888 0.9623
-7.8616 5.4584 -2.0231 0.9616
-8.2031 5.2718 -2.0612 0.9609
-9.9874 4.9993 -2.3609 0.9554
-10.1575 4.6388 -2.3604 0.9554
-10.3145 4.2724 -2.3599 0.9554
-10.5886 3.5242 -2.3589 0.9554
-11.7984 1.2685 -2.5083 0.9526
-11.8532 0.4233 -2.5071 0.9527
10.6284 0.0000 -2.4979 0.9573
10.6060 0.7586 -2.4990 0.9572
10.5296 1.5139 -2.5002 0.9572
10.4713 1.8892 -2.5007 0.9572
10.2163 2.9998 -2.5024 0.9572
9.8438 4.0775 -2.5041 0.9572
9.1715 5.4417 -2.5064 0.9571
7.2790 7.8182 -2.5106 0.9571
6.7053 8.3207 -2.5115 0.9570
6.0968 8.7810 -2.5124 0.9570
5.7805 8.9946 -2.5128 0.9570
4.7882 9.5656 -2.5140 0.9570
4.4361 9.7137 -2.5098 0.9571
4.0257 9.7190 -2.4724 0.9577
3.1744 9.5375 -2.3624 0.9595
2.8323 9.6459 -2.3627 0.9595
1.7855 9.8966 -2.3635 0.9595
1.4313 9.9549 -2.3637 0.9595
1.0752 10.0005 -2.3639 0.9595
0.7176 10.0333 -2.3641 0.9595
0.3590 10.0532 -2.3642 0.9595
-0.3591 10.0544 -2.3645 0.9595
-1.4320 9.9596 -2.3648 0.9595
-2.1389 9.8324 -2.3649 0.9595
-2.4885 9.7498 -2.3649 0.9595
-2.8349 9.6548 -2.3649 0.9595
-3.1777 9.5473 -2.3649 0.9595
-4.1797 9.1522 -2.3647 0.9595
-4.5035 8.9968 -2.3646 0.9595
-5.1333 8.6517 -2.3643 0.9595
-5.4384 8.4624 -2.3642 0.9595
-5.7366 8.2622 -2.3640 0.9595
-6.0273 8.0516 -2.3638 0.9595
-6.5851 7.5996 -2.3633 0.9595
-6.8253 6.8253 -2.2686 0.9611
-6.5791 6.1253 -2.1126 0.9637
-7.2129 5.8125 -2.1771 0.9627
-7.4735 5.5946 -2.1941 0.9624
-8.4401 5.0077 -2.3065 0.9605
-8.8138 4.8127 -2.3601 0.9596
-9.4023 3.5069 -2.3585 0.9596
-9.6126 3.1994 -2.3810 0.9592
-10.0767 2.9588 -2.4682 0.9578
-10.3279 2.6360 -2.5051 0.9571
-10.5048 1.8953 -2.5087 0.9571
-10.6585 0.3807 -2.5066 0.9571
9.5585 1.3743 -2.5003 0.9609
9.4400 2.0536 -2.5014 0.9609
9.2733 2.7229 -2.5024 0.9609
9.1721 3.0528 -2.5029 0.9608
9.0592 3.3789 -2.5034 0.9608
8.9346 3.7009 -2.5039 0.9608
8.1438 5.2337 -2.5065 0.9608
7.7527 5.8036 -2.5074 0.9608
6.8530 6.8530 -2.5093 0.9607
6.3489 7.3270 -2.5102 0.9607
5.8119 7.7638 -2.5110 0.9607
5.2449 8.1613 -2.5118 0.9607
4.9510 8.3445 -2.5122 0.9607
4.6507 8.5171 -2.5126 0.9607
4.0324 8.8296 -2.5133 0.9607
3.7151 8.9691 -2.5136 0.9607
3.3893 9.0871 -2.5112 0.9607
2.6635 9.0710 -2.4478 0.9617
2.2709 8.8973 -2.3775 0.9628
1.9391 8.9141 -2.3620 0.9630
1.6199 8.9784 -2.3622 0.9630
1.2985 9.0313 -2.3624 0.9630
0.3257 9.1203 -2.3629 0.9630
-0.9757 9.0755 -2.3633 0.9630
-1.2991 9.0351 -2.3634 0.9630
-1.6207 8.9832 -2.3635 0.9630
-1.9404 8.9197 -2.3635 0.9630
-3.1899 8.5526 -2.3634 0.9630
-3.4931 8.4330 -2.3634 0.9630
-4.0855 8.1618 -2.3632 0.9630
-4.6569 7.8487 -2.3630 0.9630
-5.2043 7.4956 -2.3627 0.9630
-5.4681 7.3045 -2.3625 0.9630
-6.2159 6.6764 -2.3619 0.9630
-7.8373 4.6501 -2.3595 0.9630
-7.9971 4.3668 -2.3592 0.9631
-8.1466 4.0779 -2.3588 0.9631
-9.1878 3.0580 -2.5072 0.9608
-9.2996 2.7306 -2.5095 0.9607
-9.4673 2.0595 -2.5086 0.9608
-9.5330 1.7199 -2.5081 0.9608
-9.6567 0.6907 -2.5067 0.9608
-9.6732 0.3455 -2.5062 0.9608
8.8261 0.0000 -2.4986 0.9640
8.8221 0.3151 -2.4991 0.9640
8.7428 1.2570 -2.5005 0.9639
8.6940 1.5686 -2.5009 0.9639
8.5631 2.1856 -2.5019 0.9639
8.4813 2.4903 -2.5024 0.9639
8.3886 2.7920 -2.5028 0.9639
8.1711 3.3846 -2.5038 0.9639
7.7668 4.2410 -2.5052 0.9639
7.6119 4.5164 -2.5056 0.9639
7.0893 5.3070 -2.5070 0.9639
6.6950 5.8013 -2.5078 0.9638
6.2662 6.2662 -2.5087 0.9638
6.0395 6.4869 -2.5091 0.9638
5.5631 6.9034 -2.5099 0.9638
5.3140 7.0986 -2.5103 0.9638
4.7954 7.4618 -2.5110 0.9638
3.9719 7.9348 -2.5120 0.9638
3.6866 8.0725 -2.5123 0.9638
3.3965 8.1999 -2.5126 0.9638
2.8035 8.4232 -2.5131 0.9638
2.5008 8.5169 -2.5129 0.9638
1.8822 8.6523 -2.5067 0.9639
1.5391 8.5306 -2.4540 0.9646
1.2052 8.3823 -2.3974 0.9654
0.8917 8.2939 -2.3615 0.9659
0.5951 8.3210 -2.3616 0.9659
-0.0000 8.3432 -2.3619 0.9659
-0.2978 8.3383 -2.3620 0.9659
-0.5953 8.3226 -2.3621 0.9659
-0.8920 8.2964 -2.3622 0.9659
-1.1875 8.2594 -2.3622 0.9659
-1.4816 8.2119 -2.3623 0.9659
-1.7738 8.1539 -2.3623 0.9659
-2.0637 8.0854 -2.3623 0.9659
-2.3510 8.0066 -2.3623 0.9659
-2.9161 7.8183 -2.3623 0.9659
-3.4662 7.5900 -2.3621 0.9659
-5.8963 5.8963 -2.3606 0.9659
-6.3006 5.4595 -2.3601 0.9659
-6.6725 4.9950 -2.3596 0.9659
-7.0101 4.5051 -2.3590 0.9660
-8.3062 3.0980 -2.5096 0.9638
-8.4101 2.7992 -2.5093 0.9638
-8.5033 2.4968 -2.5089 0.9638
-8.5856 2.1913 -2.5084 0.9638
-8.7171 1.5727 -2.5076 0.9638
-8.7662 1.2604 -2.5072 0.9639
-8.8040 0.9465 -2.5067 0.9639
-8.8306 0.6316 -2.5063 0.9639
8.1243 0.0000 -2.4989 0.9666
8.1205 0.2900 -2.4993 0.9666
8.1064 0.5798 -2.4997 0.9666
8.0472 1.1570 -2.5006 0.9665
8.0021 1.4438 -2.5010 0.9665
7.8815 2.0116 -2.5019 0.9665
7.8060 2.2921 -2.5023 0.9665
7.7206 2.5697 -2.5028 0.9665
7.6253 2.8441 -2.5032 0.9665
7.1478 3.9030 -2.5049 0.9665
7.0051 4.1563 -2.5053 0.9665
6.8535 4.4045 -2.5058 0.9665
6.6930 4.6470 -2.5062 0.9665
6.5239 4.8838 -2.5066 0.9665
6.3465 5.1143 -2.5070 0.9665
6.1609 5.3384 -2.5074 0.9665
5.7661 5.7661 -2.5082 0.9664
5.3417 6.1646 -2.5089 0.9664
5.1189 6.3522 -2.5093 0.9664
4.8896 6.5318 -2.5096 0.9664
4.6540 6.7031 -2.5099 0.9664
4.4124 6.8658 -2.5103 0.9664
3.9123 7.1649 -2.5109 0.9664
3.6545 7.3008 -2.5112 0.9664
3.1251 7.5446 -2.5117 0.9664
2.8541 7.6521 -2.5120 0.9664
2.3014 7.8377 -2.5125 0.9664
1.4502 8.0379 -2.5122 0.9664
0.5766 8.0625 -2.4862 0.9667
0.2833 7.9312 -2.4410 0.9673
-0.0000 7.8039 -2.4003 0.9679
-0.2745 7.6832 -2.3647 0.9683
-0.8206 7.6327 -2.3612 0.9684
-1.8986 7.4386 -2.3613 0.9684
-2.1629 7.3661 -2.3613 0.9684
-2.9378 7.0924 -2.3612 0.9684
-3.1890 6.9828 -2.3611 0.9684
-3.4360 6.8643 -2.3611 0.9684
-4.5991 6.1436 -2.3605 0.9684
-4.8151 5.9751 -2.3603 0.9684
-5.4249 5.4249 -2.3597 0.9684
-6.0720 4.8931 -2.3986 0.9679
-6.3483 4.7523 -2.4391 0.9674
-7.0100 4.1592 -2.5071 0.9665
-7.1609 3.9101 -2.5095 0.9664
-7.4223 3.3896 -2.5097 0.9664
-7.8247 2.2975 -2.5083 0.9664
-8.0670 1.1599 -2.5067 0.9665
-8.1019 0.8710 -2.5063 0.9665
-8.1265 0.5812 -2.5059 0.9665
-8.1407 0.2907 -2.5055 0.9665
7.5182 0.0000 -2.4991 0.9688
7.5014 0.5365 -2.4999 0.9688
7.4787 0.8040 -2.5003 0.9688
7.4047 1.3360 -2.5011 0.9688
7.3534 1.5996 -2.5015 0.9688
7.2229 2.1208 -2.5023 0.9688
6.6134 3.6112 -2.5047 0.9687
6.4813 3.8455 -2.5051 0.9687
6.3409 4.0750 -2.5055 0.9687
6.1923 4.2994 -2.5059 0.9687
6.0358 4.5184 -2.5062 0.9687
5.6998 4.9389 -2.5070 0.9687
5.5207 5.1399 -2.5073 0.9687
5.3345 5.3345 -2.5077 0.9687
4.9417 5.7030 -2.5084 0.9687
4.5234 6.0426 -2.5090 0.9687
4.3054 6.2009 -2.5093 0.9687
4.0818 6.3514 -2.5096 0.9687
3.6191 6.6280 -2.5102 0.9687
3.3806 6.7537 -2.5105 0.9687
2.8908 6.9790 -2.5110 0.9687
2.3860 7.1688 -2.5115 0.9687
1.0757 7.4814 -2.5124 0.9686
0.8080 7.5155 -2.5126 0.9686
0.5393 7.5400 -2.5127 0.9686
-0.0000 7.5477 -2.5089 0.9687
-0.5377 7.5185 -2.5056 0.9687
-0.7963 7.4064 -2.4761 0.9691
-1.0483 7.2913 -2.4486 0.9694
-1.2950 7.1780 -2.4245 0.9697
-1.5372 7.0662 -2.4038 0.9700
-1.7753 6.9556 -2.3862 0.9702
-2.2438 6.7417 -2.3618 0.9705
-2.4815 6.6532 -2.3604 0.9705
-2.9497 6.4590 -2.3603 0.9705
-3.6229 6.1060 -2.3600 0.9705
-3.8406 5.9762 -2.3614 0.9705
-4.0683 5.8595 -2.3712 0.9704
-4.3007 5.7451 -2.3855 0.9702
-4.5359 5.6287 -2.4029 0.9700
-5.2645 5.2645 -2.4748 0.9691
-5.5134 5.1331 -2.5040 0.9687
-6.0420 4.5230 -2.5088 0.9687
-6.2041 4.3076 -2.5106 0.9687
-6.4941 3.8531 -2.5101 0.9687
-6.7509 3.3792 -2.5095 0.9687
-6.8663 3.1357 -2.5092 0.9687
-6.9730 2.8883 -2.5088 0.9687
-7.1594 2.3829 -2.5082 0.9687
-7.2389 2.1255 -2.5078 0.9687
-7.3700 1.6032 -2.5071 0.9687
-7.5319 0.2690 -2.5052 0.9687
6.9855 0.2495 -2.4997 0.9707
6.9219 0.9952 -2.5008 0.9707
6.8830 1.2418 -2.5012 0.9707
6.8353 1.4869 -2.5015 0.9707
6.7789 1.7302 -2.5019 0.9707
6.7138 1.9714 -2.5023 0.9707
6.4675 2.6790 -2.5034 0.9707
6.3687 2.9085 -2.5038 0.9707
6.0240 3.5742 -2.5049 0.9707
5.8934 3.7875 -2.5052 0.9707
5.6098 4.1994 -2.5059 0.9707
5.4571 4.3976 -2.5063 0.9707
4.5926 5.3001 -2.5079 0.9706
4.4010 5.4613 -2.5082 0.9706
3.7933 5.9025 -2.5091 0.9706
3.5806 6.0348 -2.5094 0.9706
2.4534 6.5779 -2.5106 0.9706
2.2173 6.6618 -2.5108 0.9706
1.9782 6.7373 -2.5110 0.9706
1.4928 6.8622 -2.5114 0.9706
1.2470 6.9116 -2.5115 0.9706
0.9996 6.9521 -2.5117 0.9706
0.2507 7.0202 -2.5121 0.9706
-0.0000 7.0250 -2.5122 0.9706
-0.2508 7.0208 -2.5123 0.9706
-0.5012 7.0075 -2.5124 0.9706
-0.9990 6.9482 -2.5103 0.9706
-1.2458 6.9050 -2.5091 0.9706
-1.9747 6.7253 -2.5066 0.9707
-2.4485 6.5645 -2.5055 0.9707
-2.6808 6.4721 -2.5052 0.9707
-2.9099 6.3718 -2.5050 0.9707
-3.1354 6.2637 -2.5049 0.9707
-4.2004 5.6111 -2.5065 0.9707
-4.7810 5.1352 -2.5091 0.9706
-5.1389 4.7845 -2.5109 0.9706
-5.3060 4.5976 -2.5107 0.9706
-5.4662 4.4049 -2.5105 0.9706
-5.6194 4.2067 -2.5102 0.9706
-5.7654 4.0030 -2.5100 0.9706
-5.9041 3.7943 -2.5097 0.9706
-6.0351 3.5808 -2.5095 0.9706
-6.1584 3.3627 -2.5092 0.9706
-6.2738 3.1404 -2.5089 0.9706
-6.3812 2.9142 -2.5086 0.9706
-6.4803 2.6842 -2.5084 0.9706
-6.5712 2.4509 -2.5080 0.9706
-6.6537 2.2146 -2.5077 0.9706
-6.7276 1.9754 -2.5074 0.9707
-6.7930 1.7338 -2.5071 0.9707
-6.8496 1.4900 -2.5068 0.9707
-6.8975 1.2444 -2.5064 0.9707
-7.0005 0.2500 -2.5050 0.9707
6.4876 0.6975 -2.5005 0.9724
6.1963 2.0623 -2.5026 0.9724
6.1196 2.2825 -2.5030 0.9724
6.0351 2.4998 -2.5033 0.9724
5.8430 2.9248 -2.5040 0.9724
5.4991 3.5341 -2.5050 0.9724
5.3702 3.7286 -2.5053 0.9724
5.2343 3.9184 -2.5057 0.9724
4.7873 4.4571 -2.5066 0.9724
4.6257 4.6257 -2.5069 0.9724
4.4582 4.7885 -2.5072 0.9724
3.7331 5.3766 -2.5084 0.9724
3.5391 5.5070 -2.5086 0.9723
3.1379 5.7466 -2.5091 0.9723
2.5063 6.0508 -2.5098 0.9723
1.6202 6.3478 -2.5106 0.9723
1.3927 6.4020 -2.5107 0.9723
0.9325 6.4858 -2.5110 0.9723
0.4675 6.5365 -2.5113 0.9723
0.2339 6.5493 -2.5114 0.9723
-0.0000 6.5537 -2.5115 0.9723
-0.4676 6.5374 -2.5117 0.9723
-1.1638 6.4503 -2.5118 0.9723
-1.8466 6.2890 -2.5118 0.9723
-2.0699 6.2191 -2.5118 0.9723
-2.2905 6.1412 -2.5118 0.9723
-2.5082 6.0554 -2.5117 0.9723
-2.7227 5.9619 -2.5117 0.9723
-3.1409 5.7521 -2.5115 0.9723
-3.5430 5.5130 -2.5113 0.9723
-3.7373 5.3828 -2.5112 0.9723
-3.9269 5.2457 -2.5111 0.9723
-4.4643 4.7950 -2.5106 0.9723
-4.6323 4.6323 -2.5105 0.9723
-5.2427 3.9246 -2.5097 0.9723
-5.3790 3.7347 -2.5095 0.9723
-5.6306 3.3408 -2.5090 0.9723
-5.7457 3.1374 -2.5087 0.9723
-5.8534 2.9300 -2.5085 0.9723
-5.9536 2.7189 -2.5082 0.9724
-6.0462 2.5044 -2.5079 0.9724
-6.1311 2.2868 -2.5076 0.9724
-6.2080 2.0662 -2.5073 0.9724
-6.2771 1.8431 -2.5071 0.9724
-6.4358 1.1611 -2.5061 0.9724
-6.4723 0.9306 -2.5058 0.9724
-6.5205 0.4664 -2.5051 0.9724
6.1044 0.2180 -2.5000 0.9739
6.0935 0.4358 -2.5003 0.9739
6.0484 0.8696 -2.5009 0.9739
5.9725 1.2992 -2.5016 0.9739
5.9231 1.5118 -2.5019 0.9739
5.8662 1.7225 -2.5022 0.9739
5.8017 1.9310 -2.5026 0.9739
5.7298 2.1371 -2.5029 0.9739
5.5642 2.5411 -2.5035 0.9739
5.4707 2.7384 -2.5039 0.9739
5.2627 3.1225 -2.5045 0.9739
5.1486 3.3088 -2.5048 0.9739
5.0278 3.4909 -2.5051 0.9739
4.3307 4.3307 -2.5066 0.9739
3.8442 4.7704 -2.5074 0.9739
3.4948 5.0335 -2.5080 0.9739
3.3133 5.1555 -2.5082 0.9739
2.7439 5.4817 -2.5089 0.9739
2.5467 5.5766 -2.5091 0.9739
2.3463 5.6644 -2.5093 0.9738
1.9365 5.8182 -2.5097 0.9738
1.7277 5.8841 -2.5099 0.9738
1.3037 5.9931 -2.5102 0.9738
1.0890 6.0362 -2.5103 0.9738
0.6557 6.0991 -2.5106 0.9738
0.2190 6.1308 -2.5108 0.9738
-0.0000 6.1350 -2.5109 0.9738
-0.2190 6.1313 -2.5110 0.9738
-0.4377 6.1197 -2.5110 0.9738
-0.6559 6.1003 -2.5111 0.9738
-0.8732 6.0731 -2.5111 0.9738
-1.0894 6.0382 -2.5112 0.9738
-1.3042 5.9955 -2.5112 0.9738
-2.3480 5.6685 -2.5111 0.9738
-2.7462 5.4863 -2.5110 0.9738
-2.9402 5.3846 -2.5109 0.9738
-3.4986 5.0389 -2.5106 0.9738
-3.6760 4.9106 -2.5105 0.9738
-3.8487 4.7760 -2.5104 0.9738
-4.0165 4.6353 -2.5102 0.9738
-4.1792 4.4887 -2.5101 0.9738
-4.6341 4.0155 -2.5096 0.9738
-4.7741 3.8472 -2.5094 0.9738
-4.9080 3.6741 -2.5092 0.9739
-5.0356 3.4962 -2.5090 0.9739
-5.4798 2.7430 -2.5081 0.9739
-5.6604 2.3446 -2.5075 0.9739
-5.7399 2.1409 -2.5073 0.9739
-5.8767 1.7256 -2.5067 0.9739
-6.0254 1.0871 -2.5059 0.9739
-6.0861 0.6543 -2.5052 0.9739
-6.1048 0.4366 -2.5049 0.9739
-6.1158 0.2184 -2.5046 0.9739
5.7359 0.0000 -2.4998 0.9753
5.7329 0.2048 -2.5001 0.9753
5.7226 0.4093 -2.5004 0.9753
5.7051 0.6134 -2.5007 0.9753
5.6481 1.0190 -2.5013 0.9753
5.4483 1.8134 -2.5025 0.9753
5.3808 2.0069 -2.5028 0.9753
5.1373 2.5716 -2.5038 0.9752
5.0428 2.7536 -2.5041 0.9752
4.8347 3.1071 -2.5046 0.9752
4.7213 3.2780 -2.5049 0.9752
4.4764 3.6073 -2.5055 0.9752
4.2086 3.9183 -2.5061 0.9752
4.0665 4.0665 -2.5063 0.9752
3.6096 4.4793 -2.5071 0.9752
1.6222 5.5247 -2.5094 0.9752
0.6157 5.7264 -2.5101 0.9752
-0.0000 5.7601 -2.5103 0.9752
-0.2056 5.7566 -2.5104 0.9752
-0.4109 5.7457 -2.5105 0.9752
-0.6158 5.7275 -2.5105 0.9752
-0.8198 5.7020 -2.5106 0.9752
-1.0228 5.6692 -2.5106 0.9752
-1.2245 5.6291 -2.5106 0.9752
-1.4247 5.5818 -2.5106 0.9752
-2.0131 5.3974 -2.5106 0.9752
-3.7712 4.3521 -2.5097 0.9752
-4.0715 4.0715 -2.5094 0.9752
-4.2140 3.9234 -2.5093 0.9752
-4.3511 3.7702 -2.5091 0.9752
-4.9494 2.9366 -2.5081 0.9752
-5.0506 2.7578 -2.5079 0.9752
-5.1454 2.5756 -2.5077 0.9752
-5.2335 2.3901 -2.5074 0.9752
-5.3150 2.2015 -2.5072 0.9752
-5.3896 2.0102 -2.5070 0.9752
-5.5182 1.6203 -2.5064 0.9752
-5.5613 1.4194 -2.5014 0.9753
-5.6185 1.2222 -2.5059 0.9752
-5.6579 1.0208 -2.5056 0.9752
-5.6901 0.8181 -2.5053 0.9752
5.4007 0.0000 -2.4999 0.9765
5.3882 0.3854 -2.5005 0.9765
5.3179 0.9595 -2.5013 0.9765
5.2809 1.1488 -2.5016 0.9765
5.1296 1.7073 -2.5025 0.9765
4.9959 2.0694 -2.5031 0.9764
4.9194 2.2466 -2.5034 0.9764
4.7477 2.5924 -2.5039 0.9764
4.6527 2.7606 -2.5042 0.9764
4.3324 3.2432 -2.5050 0.9764
4.2143 3.3961 -2.5053 0.9764
3.9621 3.6888 -2.5058 0.9764
3.8283 3.8283 -2.5061 0.9764
3.5461 4.0925 -2.5066 0.9764
3.0892 4.4493 -2.5073 0.9764
2.7644 4.6592 -2.5077 0.9764
2.5966 4.7552 -2.5079 0.9764
2.4254 4.8453 -2.5081 0.9764
1.7116 5.1426 -2.5088 0.9764
1.1523 5.2970 -2.5092 0.9764
0.5795 5.3906 -2.5096 0.9764
0.3868 5.4080 -2.5097 0.9764
-0.0000 5.4222 -2.5099 0.9764
-0.1935 5.4189 -2.5099 0.9764
-0.5797 5.3915 -2.5100 0.9764
-1.1527 5.2988 -2.5101 0.9764
-1.3411 5.2543 -2.5101 0.9764
-1.7125 5.1452 -2.5101 0.9764
-1.8950 5.0808 -2.5101 0.9764
-2.4272 4.8489 -2.5099 0.9764
-2.5986 4.7590 -2.5099 0.9764
-2.7667 4.6631 -2.5098 0.9764
-3.2490 4.3401 -2.5095 0.9764
-3.5500 4.0969 -2.5093 0.9764
-3.8328 3.8328 -2.5090 0.9764
-4.0959 3.5492 -2.5087 0.9764
-4.2197 3.4005 -2.5085 0.9764
-4.3381 3.2475 -2.5084 0.9764
-4.6593 2.7645 -2.5078 0.9764
-5.0036 2.0725 -2.5069 0.9764
-5.0739 1.8925 -2.5067 0.9764
-5.1377 1.7100 -2.5064 0.9764
-5.1949 1.5254 -2.5062 0.9764
-5.2455 1.3388 -2.5059 0.9764
-5.2894 1.1506 -2.5057 0.9764
-5.3804 0.5785 -2.5049 0.9764
-5.3971 0.3860 -2.5046 0.9764
-5.4068 0.1931 -2.5043 0.9764
5.0967 0.0000 -2.5000 0.9775
5.0939 0.1819 -2.5003 0.9775
5.0848 0.3637 -2.5006 0.9775
4.8944 1.4371 -2.5022 0.9775
4.8406 1.6111 -2.5025 0.9775
4.7805 1.7830 -2.5027 0.9775
4.5640 2.2846 -2.5036 0.9775
4.2950 2.7602 -2.5043 0.9775
4.1942 2.9121 -2.5046 0.9775
4.0880 3.0602 -2.5049 0.9775
3.7385 3.4807 -2.5056 0.9775
3.6123 3.6123 -2.5058 0.9775
3.4814 3.7392 -2.5061 0.9775
3.0625 4.0911 -2.5068 0.9775
2.9148 4.1981 -2.5070 0.9775
2.6083 4.3961 -2.5074 0.9775
2.4499 4.4867 -2.5076 0.9775
1.7870 4.7910 -2.5083 0.9775
1.4408 4.9069 -2.5086 0.9775
0.9082 5.0336 -2.5089 0.9775
0.7279 5.0630 -2.5091 0.9775
-0.3650 5.1030 -2.5095 0.9775
-0.7281 5.0641 -2.5096 0.9775
-0.9084 5.0350 -2.5096 0.9775
-1.2653 4.9574 -2.5097 0.9775
-1.4414 4.9090 -2.5097 0.9775
-2.2900 4.5748 -2.5095 0.9775
-2.4518 4.4901 -2.5094 0.9775
-2.9174 4.2019 -2.5092 0.9775
-3.0654 4.0949 -2.5091 0.9775
-3.3494 3.8654 -2.5089 0.9775
-3.6163 3.6163 -2.5086 0.9775
-3.7428 3.4847 -2.5085 0.9775
-3.8646 3.3487 -2.5083 0.9775
-4.1995 2.9158 -2.5078 0.9775
-4.3006 2.7638 -2.5076 0.9775
-4.3962 2.6084 -2.5074 0.9775
-4.6487 2.1230 -2.5068 0.9775
-4.7211 1.9556 -2.5066 0.9775
-4.7875 1.7856 -2.5064 0.9775
-4.8477 1.6135 -2.5062 0.9775
-5.0547 0.7268 -2.5050 0.9775
-5.0927 0.3642 -2.5044 0.9775
-5.1019 0.1822 -2.5042 0.9775
4.8193 0.0000 -2.5001 0.9785
4.8167 0.1720 -2.5004 0.9785
4.8080 0.3439 -2.5006 0.9785
4.7931 0.5153 -2.5009 0.9785
4.7721 0.6861 -2.5011 0.9785
4.7120 1.0250 -2.5017 0.9785
4.6729 1.1927 -2.5019 0.9785
4.6278 1.3589 -2.5022 0.9785
4.5769 1.5233 -2.5024 0.9785
4.5200 1.6859 -2.5027 0.9785
4.4574 1.8463 -2.5030 0.9785
4.3892 2.0045 -2.5032 0.9785
4.2358 2.3129 -2.5037 0.9785
4.1510 2.4629 -2.5040 0.9785
4.0608 2.6097 -2.5042 0.9785
3.9655 2.7533 -2.5045 0.9785
3.6495 3.1623 -2.5052 0.9785
3.5346 3.2909 -2.5054 0.9785
3.0314 3.7617 -2.5063 0.9785
2.8954 3.8678 -2.5065 0.9785
2.6125 4.0652 -2.5069 0.9785
2.1635 4.3221 -2.5074 0.9785
1.8499 4.4660 -2.5078 0.9785
1.6894 4.5295 -2.5079 0.9785
1.5267 4.5871 -2.5081 0.9785
1.0278 4.7248 -2.5084 0.9784
0.8586 4.7587 -2.5086 0.9784
0.6882 4.7865 -2.5087 0.9784
0.3450 4.8238 -2.5089 0.9784
-0.0000 4.8364 -2.5090 0.9784
-0.1726 4.8334 -2.5091 0.9784
-0.6883 4.7875 -2.5092 0.9784
-1.1962 4.6866 -2.5092 0.9784
-1.5275 4.5893 -2.5092 0.9784
-1.8509 4.4685 -2.5092 0.9784
-2.1649 4.3249 -2.5091 0.9784
-2.3178 4.2448 -2.5090 0.9784
-3.0342 3.7652 -2.5086 0.9784
-3.2948 3.5388 -2.5084 0.9784
-3.5385 3.2944 -2.5081 0.9784
-3.6536 3.1658 -2.5080 0.9785
-3.9703 2.7566 -2.5075 0.9785
-4.0659 2.6130 -2.5073 0.9785
-4.1563 2.4660 -2.5071 0.9785
-4.4635 1.8488 -2.5064 0.9785
-4.5263 1.6882 -2.5062 0.9785
-4.7188 1.0265 -2.5053 0.9785
-4.7791 0.6871 -2.5048 0.9785
4.5649 0.0000 -2.5002 0.9794
4.5625 0.1630 -2.5005 0.9794
4.5401 0.4881 -2.5009 0.9794
4.5202 0.6499 -2.5012 0.9794
4.4946 0.8109 -2.5014 0.9794
4.4261 1.1297 -2.5019 0.9794
4.3351 1.4429 -2.5024 0.9794
4.1573 1.8986 -2.5031 0.9794
4.0872 2.0459 -2.5034 0.9794
3.8462 2.4718 -2.5041 0.9794
3.6607 2.7404 -2.5046 0.9794
3.2346 3.2346 -2.5054 0.9794
2.9961 3.4577 -2.5059 0.9794
2.7422 3.6632 -2.5063 0.9793
2.4743 3.8501 -2.5066 0.9793
2.3355 3.9362 -2.5068 0.9793
1.7520 4.2296 -2.5075 0.9793
1.4459 4.3443 -2.5077 0.9793
1.2900 4.3934 -2.5079 0.9793
0.4896 4.5536 -2.5084 0.9793
0.3267 4.5683 -2.5085 0.9793
-0.0000 4.5803 -2.5086 0.9793
-0.3268 4.5688 -2.5087 0.9793
-0.8133 4.5079 -2.5088 0.9793
-1.2905 4.3951 -2.5089 0.9793
-1.4466 4.3462 -2.5088 0.9793
-1.7529 4.2319 -2.5088 0.9793
-1.9028 4.1666 -2.5088 0.9793
-2.4762 3.8530 -2.5085 0.9793
-2.6120 3.7620 -2.5084 0.9793
-2.8736 3.5659 -2.5083 0.9793
-3.3512 3.1200 -2.5078 0.9793
-3.7602 2.6107 -2.5072 0.9793
-3.8507 2.4747 -2.5070 0.9793
-4.0923 2.0485 -2.5065 0.9793
-4.1625 1.9010 -2.5063 0.9793
-4.2274 1.7510 -2.5061 0.9793
-4.2869 1.5989 -2.5059 0.9793
-4.3409 1.4448 -2.5057 0.9794
-4.4693 0.9722 -2.5051 0.9794
-4.5007 0.8120 -2.5049 0.9794
-4.5265 0.6508 -2.5046 0.9794
-4.5605 0.3262 -2.5042 0.9794
-4.5688 0.1632 -2.5040 0.9794
4.3204 0.3090 -2.5008 0.9802
4.1583 1.2210 -2.5022 0.9802
3.8058 2.0781 -2.5035 0.9802
3.6485 2.3448 -2.5040 0.9802
3.4726 2.5995 -2.5044 0.9802
3.3779 2.7221 -2.5046 0.9802
3.1756 2.9566 -2.5051 0.9802
3.0683 3.0683 -2.5053 0.9802
2.3470 3.6520 -2.5064 0.9801
2.2153 3.7337 -2.5066 0.9801
1.9436 3.8828 -2.5069 0.9801
1.8039 3.9499 -2.5070 0.9801
1.6618 4.0120 -2.5072 0.9801
1.3715 4.1208 -2.5074 0.9801
1.2236 4.1673 -2.5076 0.9801
1.0742 4.2085 -2.5077 0.9801
0.9233 4.2444 -2.5078 0.9801
0.7712 4.2748 -2.5079 0.9801
0.6182 4.2998 -2.5080 0.9801
0.4644 4.3192 -2.5081 0.9801
0.3099 4.3332 -2.5082 0.9801
0.1551 4.3416 -2.5082 0.9801
-0.0000 4.3445 -2.5083 0.9801
-0.1551 4.3418 -2.5083 0.9801
-0.3099 4.3336 -2.5084 0.9801
-0.6183 4.3006 -2.5085 0.9801
-0.9236 4.2456 -2.5085 0.9801
-1.0745 4.2099 -2.5085 0.9801
-1.2241 4.1689 -2.5085 0.9801
-1.3721 4.1225 -2.5085 0.9801
-1.5184 4.0709 -2.5085 0.9801
-1.8049 3.9521 -2.5084 0.9801
-1.9447 3.8851 -2.5084 0.9801
-2.2168 3.7363 -2.5083 0.9801
-2.3487 3.6547 -2.5082 0.9801
-2.9597 3.1790 -2.5077 0.9801
-3.0712 3.0712 -2.5076 0.9801
-3.2821 2.8440 -2.5074 0.9801
-3.3814 2.7249 -2.5072 0.9801
-4.0100 1.6610 -2.5059 0.9802
-4.0664 1.5167 -2.5057 0.9802
-4.1176 1.3705 -2.5055 0.9802
-4.2042 1.0731 -2.5051 0.9802
-4.2395 0.9223 -2.5049 0.9802
-4.2694 0.7703 -2.5047 0.9802
-4.3261 0.3094 -2.5041 0.9802
