ply
format ascii 1.0
element vertex 1280
property float32 x
property float32 y
property float32 z
property float32 I
end_header
-26.4709 -9.8731 4.9816 0.8916
-28.4682 -13.0010 5.5184 0.8806
-28.0536 -28.0537 6.9956 0.8512
-26.1596 -28.0973 6.7692 0.8556
-22.7064 -28.1770 6.3808 0.8633
-21.1204 -28.2136 6.2143 0.8666
-18.1754 -28.2815 5.9278 0.8724
-16.7954 -28.3071 5.8037 0.8749
-14.2657 -28.4993 5.6196 0.8786
-10.7354 -28.7828 5.4167 0.8827
-9.4768 -28.4732 5.2914 0.8852
-7.9495 -31.1457 5.6679 0.8776
-5.8891 -32.6413 5.8485 0.8740
33.0991 -33.0991 8.2537 0.8269
15.4245 -13.3654 3.5988 0.9204
36.6841 -29.5619 8.3073 0.8258
-43.5611 -12.7907 6.9551 0.8322
-37.1953 -27.8440 7.1178 0.8286
-34.6259 -27.9033 6.8125 0.8353
-32.2649 -27.9578 6.5403 0.8413
-30.0828 -28.0081 6.2967 0.8468
-26.1606 -28.0985 5.8814 0.8561
-24.3830 -28.1395 5.7040 0.8601
-22.8130 -28.3093 5.5697 0.8632
-21.1212 -28.2147 5.3993 0.8671
-16.7960 -28.3081 5.0425 0.8753
-13.7796 -33.2668 5.5162 0.8644
-9.4771 -28.4742 4.5973 0.8856
-3.7610 -12.8088 2.0451 0.9474
-5.8893 -32.6422 5.0813 0.8744
33.0445 -35.4924 7.4290 0.8218
33.0995 -33.0995 7.1710 0.8274
33.4872 -31.1777 7.0093 0.8310
15.4272 -13.3677 3.1272 0.9207
36.6844 -29.5622 7.2175 0.8264
-43.5745 -12.7946 5.9139 0.8326
-28.3928 -12.9666 4.0647 0.8817
-31.4694 -25.3596 5.2630 0.8496
-29.3236 -25.4091 5.0527 0.8551
-28.0561 -28.0561 5.1668 0.8521
-24.3840 -28.1407 4.8488 0.8605
-21.2729 -33.1012 5.1239 0.8532
-16.7966 -28.3091 4.2865 0.8757
-13.7848 -33.2796 4.6908 0.8648
-12.4243 -33.3108 4.6297 0.8664
-5.8895 -32.6431 4.3194 0.8748
-5.2043 -36.1967 4.7620 0.8629
-3.5209 -49.2293 6.4270 0.8195
1.7444 -48.8425 6.3644 0.8211
3.4962 -48.8827 6.3818 0.8206
7.0399 -48.9638 6.4417 0.8191
33.0449 -35.4928 6.3150 0.8223
33.0998 -33.0998 6.0957 0.8279
33.4875 -31.1780 5.9582 0.8315
36.6848 -29.5624 6.1351 0.8269
-38.5731 -28.8754 5.1741 0.8238
-35.5964 -28.6854 4.9091 0.8320
-32.2677 -27.9601 4.5848 0.8422
-31.5217 -29.3477 4.6248 0.8409
-28.0573 -28.0573 4.2608 0.8525
-24.3849 -28.1418 3.9986 0.8609
-26.6904 -33.1209 4.5677 0.8427
-21.1228 -28.2168 3.7849 0.8678
-20.2816 -29.2111 3.8187 0.8667
-21.2817 -33.1150 4.2270 0.8535
-18.1958 -33.3232 4.0770 0.8584
-12.9690 -28.3981 3.3524 0.8820
-13.7901 -33.2922 3.8695 0.8650
-12.4290 -33.3234 3.8191 0.8667
-3.7623 -12.8133 1.4340 0.9477
-10.3007 -47.3513 5.2036 0.8229
-5.2045 -36.1978 3.9269 0.8632
3.5275 -49.3209 5.3097 0.8196
33.0453 -35.4931 5.2075 0.8228
33.1002 -33.1002 5.0266 0.8284
33.4878 -31.1783 4.9132 0.8319
15.4324 -13.3723 2.1927 0.9211
36.6852 -29.5627 5.0592 0.8273
39.4421 -29.5260 5.2906 0.8202
-43.5901 -12.7992 3.8458 0.8333
-32.3843 -26.0969 3.5208 0.8462
-32.2692 -27.9614 3.6145 0.8425
-31.5213 -29.3474 3.6458 0.8412
-28.0585 -28.0585 3.3591 0.8527
-18.2819 -19.6362 2.2712 0.8979
-26.7024 -33.1356 3.6024 0.8430
-16.7978 -28.3111 2.7867 0.8762
-16.6379 -33.2383 3.1465 0.8614
-3.7630 -12.8155 1.1307 0.9478
-10.1326 -39.6991 3.4684 0.8483
-10.3010 -47.3528 4.1023 0.8232
-5.8898 -32.6448 2.8081 0.8753
0.7628 -21.3576 1.8091 0.9178
10.7937 -21.5631 2.0413 0.9077
33.0456 -35.4935 4.1053 0.8231
33.1005 -33.1005 3.9627 0.8287
15.4350 -13.3745 1.7289 0.9213
36.6855 -29.5630 3.9884 0.8277
-28.2820 -12.9159 1.9280 0.8828
-39.2196 -29.3594 3.0380 0.8217
-31.8680 -25.6809 2.5379 0.8487
-32.2706 -27.9627 2.6478 0.8427
-31.5210 -29.3471 2.6706 0.8415
-28.0597 -28.0597 2.4607 0.8530
-30.6142 -32.8820 2.7860 0.8352
-26.5727 -32.9748 2.6261 0.8439
-21.1244 -28.2190 2.1859 0.8683
-21.2944 -33.1347 2.4424 0.8540
-18.1326 -33.2073 2.3462 0.8593
-16.6151 -33.1929 2.3018 0.8618
-12.9698 -28.4000 1.9361 0.8824
-8.0991 -19.5530 1.3124 0.9187
-12.4344 -33.3380 2.2064 0.8671
-10.2737 -47.2275 2.9971 0.8239
-3.5213 -49.2348 3.0609 0.8205
0.0000 -48.8071 3.0265 0.8223
5.2603 -48.9276 3.0515 0.8210
7.0406 -48.9684 3.0678 0.8202
8.8423 -49.0097 3.0882 0.8191
12.2876 -48.1422 3.0810 0.8194
11.5487 -21.1499 1.4943 0.9079
33.2461 -30.9533 2.8168 0.8336
15.4376 -13.3768 1.2667 0.9214
39.4463 -29.5291 3.0555 0.8208
-28.2647 -12.9080 1.2252 0.8830
-40.0196 -27.7861 1.9211 0.8228
-39.2192 -29.3591 1.9318 0.8219
-32.2721 -27.9639 1.6838 0.8429
-28.0609 -28.0609 1.5648 0.8531
-30.6508 -32.9212 1.7736 0.8352
-21.1252 -28.2200 1.3900 0.8684
-20.2807 -29.2098 1.4022 0.8673
-21.2952 -33.1359 1.5531 0.8541
-16.7990 -28.3131 1.2981 0.8765
-18.1332 -33.2085 1.4919 0.8594
-16.6165 -33.1956 1.4638 0.8619
-13.7966 -33.3079 1.4216 0.8656
-9.4786 -28.4788 1.1835 0.8868
-3.7643 -12.8200 0.5268 0.9479
2.2597 -31.5949 1.2490 0.8809
33.3816 -35.8544 1.9317 0.8219
37.0022 -29.8182 1.8738 0.8268
25.1857 -12.6070 1.1106 0.8934
-43.6134 -12.8060 0.7678 0.8337
-28.2563 -12.9042 0.5247 0.8831
-39.9377 -25.6664 0.8019 0.8270
-40.0217 -27.7876 0.8230 0.8229
-32.2736 -27.9652 0.7213 0.8430
-30.6167 -32.8847 0.7590 0.8355
-24.3889 -28.1463 0.6291 0.8616
-26.5748 -32.9773 0.7154 0.8441
-20.2805 -29.2094 0.6007 0.8674
-16.7996 -28.3141 0.5562 0.8766
-17.8147 -32.6253 0.6279 0.8618
-16.2161 -32.3957 0.6120 0.8651
-13.7778 -33.2626 0.6082 0.8659
-12.4209 -33.3018 0.6004 0.8675
-9.4790 -28.4797 0.5070 0.8868
-3.7649 -12.8222 0.2257 0.9479
-5.2051 -36.2023 0.6178 0.8639
14.0314 -30.7245 0.5706 0.8736
33.3819 -35.8548 0.8275 0.8220
33.4891 -31.1795 0.7729 0.8327
37.0040 -29.8197 0.8028 0.8269
39.9237 -29.8866 0.8424 0.8191
25.9029 -12.9660 0.4893 0.8906
-43.6211 -12.8083 -0.2560 0.8337
-28.2480 -12.9004 -0.1748 0.8832
-40.0238 -27.7890 -0.2743 0.8229
-35.5946 -28.6840 -0.2574 0.8329
-32.2751 -27.9665 -0.2404 0.8430
-24.3898 -28.1474 -0.2097 0.8616
-20.2802 -29.2090 -0.2002 0.8674
-16.7851 -28.2898 -0.1852 0.8767
-16.2970 -32.5573 -0.2050 0.8645
-12.9595 -28.3775 -0.1756 0.8827
-13.7975 -33.3101 -0.2030 0.8657
-5.8904 -32.6483 -0.1868 0.8757
-5.2053 -36.2034 -0.2059 0.8639
14.0319 -30.7256 -0.1902 0.8736
33.4895 -31.1798 -0.2576 0.8327
15.4454 -13.3835 -0.1151 0.9215
25.8647 -12.9469 -0.1628 0.8907
-28.2396 -12.8966 -0.8742 0.8832
-40.0259 -27.7905 -1.3721 0.8228
-35.5943 -28.6837 -1.2872 0.8328
-31.5196 -29.3458 -1.2126 0.8417
-30.6545 -32.9253 -1.2667 0.8353
-26.6360 -33.0533 -1.1953 0.8438
-21.2975 -33.1395 -1.1092 0.8542
-16.8007 -28.3161 -0.9271 0.8766
-17.8502 -32.6902 -1.0488 0.8615
-16.2983 -32.5600 -1.0253 0.8644
-13.7979 -33.3112 -1.0153 0.8656
-9.8734 -38.6837 -1.1242 0.8523
-5.8906 -32.6492 -0.9342 0.8757
-5.2054 -36.2045 -1.0299 0.8638
31.3552 -38.9095 -1.4071 0.8188
33.4381 -33.4381 -1.3315 0.8276
39.9280 -29.8897 -1.4044 0.8191
25.8655 -12.9473 -0.8145 0.8907
36.2001 -13.5019 -1.0879 0.8568
-49.6382 0.0000 -2.5174 0.8197
-49.4154 -3.5343 -2.5125 0.8200
-49.2093 -5.2906 -2.5100 0.8202
-47.4453 -10.3211 -2.4624 0.8233
-42.8343 -12.5773 -2.2640 0.8363
-43.8434 -14.5925 -2.3434 0.8310
-42.6844 -17.6805 -2.3431 0.8311
-28.2313 -12.8928 -1.5740 0.8831
-34.1241 -17.0813 -1.9353 0.8583
-27.3667 -16.2375 -1.6138 0.8803
-37.3469 -27.9574 -2.3659 0.8296
-31.5193 -29.3455 -2.1840 0.8416
-28.0656 -28.0656 -2.0129 0.8530
-30.6205 -32.8887 -2.2789 0.8353
-24.3918 -28.1496 -1.8890 0.8614
-21.1284 -28.2243 -1.7880 0.8683
-21.2737 -33.1025 -1.9956 0.8542
-17.8503 -32.6905 -1.8889 0.8614
-13.7984 -33.3123 -1.8286 0.8655
-12.4498 -33.3791 -1.8067 0.8670
-6.4286 -29.5520 -1.5338 0.8859
-5.2056 -36.2056 -1.8550 0.8637
-5.0569 -47.0357 -2.3991 0.8274
-3.3743 -47.1794 -2.3988 0.8274
1.6870 -47.2334 -2.3969 0.8275
5.0481 -46.9544 -2.3950 0.8277
10.0216 -46.0685 -2.3910 0.8279
9.3730 -36.7231 -1.9221 0.8592
9.0525 -30.8301 -1.6295 0.8792
9.7172 -29.1954 -1.5605 0.8841
13.4426 -26.8549 -1.5230 0.8867
16.2597 -27.4042 -1.6160 0.8802
20.5106 -31.9150 -1.9240 0.8590
26.6105 -38.3265 -2.3663 0.8295
30.4385 -35.1279 -2.3572 0.8301
32.7772 -32.7772 -2.3508 0.8306
15.4506 -13.3880 -1.0368 0.9214
35.9369 -28.9598 -2.3406 0.8312
36.8919 -27.6170 -2.3371 0.8315
28.7622 -17.0654 -1.6961 0.8746
25.8563 -12.9427 -1.4664 0.8906
35.1486 -13.1098 -1.9025 0.8605
43.8653 -12.8800 -2.3185 0.8327
46.1631 -11.7825 -2.4162 0.8263
47.6485 -10.3653 -2.4730 0.8226
48.6155 -5.2267 -2.4797 0.8221
48.8165 -3.4914 -2.4820 0.8220
48.9560 -1.7485 -2.4844 0.8218
-34.2679 0.0000 -2.5126 0.8716
-34.0026 -3.6557 -2.5075 0.8718
-33.3486 -7.2545 -2.5024 0.8721
-32.7015 -9.6021 -2.4990 0.8722
-31.6124 -10.5216 -2.4429 0.8749
-29.9499 -11.1707 -2.3438 0.8797
-28.3013 -11.7228 -2.2461 0.8844
-26.8049 -17.2265 -2.3363 0.8800
-26.1963 -18.1884 -2.3384 0.8799
-15.3901 -11.5209 -1.4096 0.9258
-22.6410 -22.6410 -2.3477 0.8795
-15.1979 -16.3237 -1.6353 0.9144
-19.2380 -25.6989 -2.3538 0.8792
-16.4056 -27.6501 -2.3574 0.8790
-5.2185 -11.4269 -0.9211 0.9509
-12.3219 -29.7477 -2.3609 0.8789
-4.3088 -12.9459 -1.0004 0.9467
-6.5228 -29.9851 -2.2500 0.8842
-4.5866 -31.9008 -2.3631 0.8787
-2.2989 -32.1422 -2.3628 0.8788
-1.1500 -32.2001 -2.3625 0.8788
3.4410 -32.0064 -2.3603 0.8789
6.7681 -31.1124 -2.3346 0.8801
9.0506 -30.8233 -2.3554 0.8791
10.5200 -28.2051 -2.2072 0.8863
16.2604 -27.4054 -2.3365 0.8800
17.2777 -26.8845 -2.3432 0.8797
19.1198 -25.5411 -2.3393 0.8799
22.4781 -22.4781 -2.3308 0.8803
23.2434 -21.6404 -2.3286 0.8804
24.6784 -19.8871 -2.3239 0.8806
25.3462 -18.9740 -2.3215 0.8807
26.5966 -17.0926 -2.3181 0.8809
27.2028 -16.1402 -2.3192 0.8809
27.7753 -15.1664 -2.3204 0.8808
28.3135 -14.1727 -2.3216 0.8807
29.2839 -12.1298 -2.3241 0.8806
30.6306 -11.4246 -2.3970 0.8771
32.7770 -8.3659 -2.4803 0.8731
33.0749 -7.1950 -2.4818 0.8731
33.5457 -4.8231 -2.4849 0.8729
33.7180 -3.6251 -2.4865 0.8728
-26.1452 0.0000 -2.5101 0.9003
-26.1152 -0.9327 -2.5088 0.9003
-26.0518 -1.8633 -2.5075 0.9004
-25.9552 -2.7905 -2.5062 0.9004
-25.4685 -5.5403 -2.5023 0.9006
-24.0177 -9.9485 -2.4958 0.9008
-20.9550 -12.4332 -2.3392 0.9067
-19.9952 -13.8829 -2.3370 0.9068
-15.3916 -11.5220 -1.8458 0.9256
-13.8906 -20.0063 -2.3383 0.9068
-13.1728 -20.4973 -2.3392 0.9067
-12.4373 -20.9620 -2.3400 0.9067
-9.3380 -22.5439 -2.3426 0.9066
-6.0383 -23.6578 -2.3441 0.9065
-2.3687 -16.4744 -1.5979 0.9353
-1.7419 -24.3548 -2.3442 0.9065
-0.8714 -24.3993 -2.3439 0.9066
-0.0000 -24.4119 -2.3437 0.9066
0.8712 -24.3927 -2.3433 0.9066
1.7410 -24.3416 -2.3429 0.9066
2.6080 -24.2583 -2.3423 0.9066
4.3297 -23.9978 -2.3411 0.9067
3.5939 -16.5211 -1.6232 0.9343
6.8632 -23.3737 -2.3387 0.9067
7.6899 -23.1044 -2.3378 0.9068
8.5060 -22.8056 -2.3368 0.9068
9.3104 -22.4774 -2.3357 0.9069
5.5267 -12.1018 -1.2773 0.9479
10.8796 -21.7347 -2.3335 0.9069
11.4623 -20.9916 -2.2962 0.9084
9.9357 -16.7457 -1.8694 0.9247
14.5235 -19.4012 -2.3267 0.9072
15.8496 -18.2914 -2.3236 0.9073
14.7323 -13.7162 -1.9325 0.9223
13.4846 -11.6845 -1.7130 0.9308
16.5543 -12.3924 -1.9853 0.9203
19.8901 -13.8099 -2.3247 0.9073
20.3775 -13.0958 -2.3255 0.9073
20.8396 -12.3647 -2.3264 0.9072
23.8754 -9.8895 -2.4810 0.9014
24.2235 -9.0349 -2.4821 0.9013
24.8283 -7.2902 -2.4843 0.9012
25.0841 -6.4023 -2.4854 0.9012
25.6612 -3.6895 -2.4889 0.9011
25.8844 -1.8513 -2.4914 0.9010
25.9470 -0.9267 -2.4926 0.9009
-21.1179 0.0000 -2.5085 0.9185
-21.0957 -0.7534 -2.5075 0.9185
-21.0466 -1.5053 -2.5064 0.9185
-20.8681 -3.0004 -2.5043 0.9186
-20.7389 -3.7417 -2.5033 0.9186
-20.4020 -5.2073 -2.5012 0.9187
-19.4207 -8.0443 -2.4970 0.9188
-18.4269 -10.0618 -2.4939 0.9189
-16.6857 -10.7233 -2.3560 0.9232
-16.1773 -11.2321 -2.3394 0.9237
-14.1298 -11.3865 -2.1556 0.9295
-13.1775 -11.4184 -2.0712 0.9322
-13.3904 -14.3823 -2.3342 0.9239
-12.8641 -14.8460 -2.3334 0.9239
-12.3219 -15.2906 -2.3327 0.9239
-11.1926 -16.1204 -2.3312 0.9240
-9.2746 -16.9852 -2.2988 0.9250
-5.2372 -11.4679 -1.4976 0.9505
-4.3140 -12.9614 -1.6227 0.9465
-3.4871 -19.3275 -2.3329 0.9239
-1.4010 -19.5883 -2.3328 0.9239
-0.7009 -19.6245 -2.3326 0.9239
0.0000 -19.6351 -2.3324 0.9240
0.7007 -19.6202 -2.3321 0.9240
2.0980 -19.5139 -2.3313 0.9240
4.8491 -18.9987 -2.3291 0.9241
6.8456 -18.3539 -2.3269 0.9241
7.4936 -18.0913 -2.3261 0.9242
5.5274 -12.1032 -1.5805 0.9478
8.7583 -17.4968 -2.3242 0.9242
9.3737 -17.1667 -2.3234 0.9242
11.1596 -16.0728 -2.3243 0.9242
11.7280 -15.6668 -2.3247 0.9242
12.2819 -15.2409 -2.3251 0.9242
13.8492 -13.8492 -2.3265 0.9241
14.3379 -13.3491 -2.3270 0.9241
15.2389 -12.2803 -2.3248 0.9242
17.2886 -11.1107 -2.4412 0.9206
18.3430 -10.0160 -2.4826 0.9193
18.6947 -9.3579 -2.4833 0.9192
19.3275 -8.0057 -2.4850 0.9192
19.6077 -7.3133 -2.4859 0.9192
19.8633 -6.6111 -2.4867 0.9191
20.4789 -4.4549 -2.4895 0.9190
20.8621 -2.2429 -2.4924 0.9190
-17.6968 0.0000 -2.5074 0.9310
-17.6794 -0.6314 -2.5066 0.9310
-17.6394 -1.2616 -2.5057 0.9310
-17.4922 -2.5150 -2.5039 0.9311
-17.3851 -3.1366 -2.5031 0.9311
-17.2560 -3.7538 -2.5022 0.9311
-17.1050 -4.3658 -2.5013 0.9312
-16.9323 -4.9718 -2.5004 0.9312
-16.7381 -5.5710 -2.4995 0.9312
-16.5228 -6.1627 -2.4987 0.9312
-16.2867 -6.7462 -2.4978 0.9313
-16.0299 -7.3206 -2.4969 0.9313
-15.4563 -8.4398 -2.4952 0.9313
-15.1401 -8.9830 -2.4944 0.9313
-14.8049 -9.5145 -2.4935 0.9314
-14.4511 -10.0336 -2.4927 0.9314
-13.3420 -10.7516 -2.4278 0.9331
-12.0775 -11.2446 -2.3381 0.9355
-11.6650 -11.6650 -2.3374 0.9355
-11.2379 -12.0703 -2.3367 0.9355
-10.7968 -12.4602 -2.3361 0.9356
-9.3954 -13.5319 -2.3342 0.9356
-8.9041 -13.8551 -2.3336 0.9356
-6.3823 -11.6883 -1.8869 0.9476
-5.7349 -11.4569 -1.8153 0.9496
-3.0989 -12.1416 -1.7755 0.9506
-2.9179 -16.1730 -2.3285 0.9358
-1.7563 -16.3358 -2.3279 0.9358
-1.1720 -16.3863 -2.3277 0.9358
-0.5863 -16.4162 -2.3275 0.9358
0.0000 -16.4253 -2.3273 0.9358
0.5862 -16.4136 -2.3271 0.9358
1.1716 -16.3813 -2.3270 0.9358
2.3371 -16.2546 -2.3268 0.9358
3.4906 -16.0460 -2.3267 0.9358
4.0611 -15.9112 -2.3267 0.9358
4.6265 -15.7564 -2.3268 0.9358
5.1861 -15.5816 -2.3268 0.9358
6.2850 -15.1734 -2.3270 0.9358
7.8728 -14.4180 -2.3276 0.9358
8.3833 -14.1292 -2.3278 0.9358
8.8832 -13.8226 -2.3281 0.9358
9.8492 -13.1571 -2.3287 0.9358
11.6291 -11.6291 -2.3302 0.9357
12.0391 -11.2088 -2.3307 0.9357
13.6093 -10.9671 -2.4765 0.9318
15.3972 -8.4075 -2.4857 0.9316
15.6917 -7.8547 -2.4863 0.9316
15.9664 -7.2916 -2.4870 0.9315
16.6689 -5.5479 -2.4892 0.9315
-15.2018 -0.5429 -2.5059 0.9402
-15.1682 -1.0848 -2.5052 0.9402
-15.1152 -1.6251 -2.5044 0.9402
-15.0431 -2.1629 -2.5037 0.9402
-14.9517 -2.6976 -2.5029 0.9403
-14.8414 -3.2286 -2.5021 0.9403
-14.7122 -3.7551 -2.5014 0.9403
-14.5644 -4.2765 -2.5006 0.9403
-14.3981 -4.7922 -2.4999 0.9403
-14.2136 -5.3014 -2.4991 0.9404
-14.0112 -5.8036 -2.4984 0.9404
-13.7910 -6.2981 -2.4976 0.9404
-13.5534 -6.7843 -2.4969 0.9404
-13.2987 -7.2616 -2.4961 0.9404
-12.4356 -8.6342 -2.4940 0.9405
-12.1161 -9.0700 -2.4933 0.9405
-11.7814 -9.4941 -2.4926 0.9405
-11.4319 -9.9058 -2.4919 0.9405
-9.3704 -10.8140 -2.3573 0.9436
-8.9028 -11.0478 -2.3374 0.9441
-7.6657 -11.9280 -2.3358 0.9441
-7.2335 -12.1915 -2.3353 0.9442
-6.3500 -11.6291 -2.1828 0.9477
-5.7351 -11.4573 -2.1107 0.9494
-4.9926 -12.0532 -2.1492 0.9485
-4.5137 -12.1018 -2.1278 0.9490
-2.7601 -12.6878 -2.1391 0.9487
-2.5128 -13.9277 -2.3315 0.9442
-1.5125 -14.0684 -2.3310 0.9443
-1.0093 -14.1121 -2.3308 0.9443
1.0091 -14.1084 -2.3301 0.9443
3.0063 -13.8198 -2.3299 0.9443
4.9429 -13.2523 -2.3301 0.9443
5.4130 -13.0680 -2.3302 0.9443
6.3322 -12.6501 -2.3305 0.9443
8.0710 -11.6245 -2.3313 0.9442
9.5579 -11.0304 -2.4044 0.9425
11.0378 -10.2766 -2.4845 0.9407
11.7471 -9.4664 -2.4854 0.9407
12.0797 -9.0428 -2.4858 0.9407
12.3973 -8.6076 -2.4863 0.9407
12.6993 -8.1613 -2.4868 0.9406
12.9853 -7.7045 -2.4874 0.9406
13.2549 -7.2377 -2.4879 0.9406
13.5079 -6.7616 -2.4885 0.9406
13.9626 -5.7835 -2.4897 0.9406
14.1637 -5.2828 -2.4903 0.9406
14.5119 -4.2611 -2.4916 0.9405
14.6587 -3.7414 -2.4923 0.9405
14.7869 -3.2167 -2.4930 0.9405
14.8964 -2.6876 -2.4936 0.9405
14.9871 -2.1548 -2.4943 0.9405
15.0587 -1.6190 -2.4951 0.9404
-13.2921 -0.9507 -2.5048 0.9472
-13.1834 -1.8955 -2.5034 0.9472
-13.1039 -2.3642 -2.5028 0.9472
-12.6206 -4.2005 -2.5001 0.9473
-12.4594 -4.6471 -2.4995 0.9473
-12.0897 -5.5212 -2.4982 0.9473
-11.1695 -7.1782 -2.4956 0.9474
-10.9035 -7.5704 -2.4950 0.9474
-10.6237 -7.9528 -2.4944 0.9474
-10.3306 -8.3250 -2.4938 0.9474
-9.7059 -9.0365 -2.4926 0.9475
-9.3750 -9.3750 -2.4920 0.9475
-7.9263 -10.5883 -2.4860 0.9476
-6.9616 -10.8324 -2.4203 0.9489
-5.5637 -11.1148 -2.3363 0.9507
-5.1626 -11.3045 -2.3359 0.9507
-4.3416 -11.6404 -2.3352 0.9507
-3.9229 -11.7863 -2.3348 0.9507
-3.4992 -11.9172 -2.3345 0.9507
-3.0712 -12.0330 -2.3342 0.9507
-2.6395 -12.1336 -2.3340 0.9507
-2.2045 -12.2187 -2.3337 0.9507
-0.8855 -12.3810 -2.3331 0.9507
-0.4430 -12.4038 -2.3329 0.9507
0.8853 -12.3781 -2.3325 0.9507
1.7660 -12.2827 -2.3324 0.9507
2.2032 -12.2116 -2.3324 0.9507
2.6377 -12.1251 -2.3323 0.9508
3.9188 -11.7741 -2.3324 0.9507
4.3367 -11.6271 -2.3325 0.9507
5.5555 -11.0985 -2.3328 0.9507
6.0094 -11.0054 -2.3569 0.9502
7.0686 -10.9990 -2.4575 0.9482
7.9215 -10.5819 -2.4846 0.9476
9.6825 -9.0148 -2.4866 0.9476
9.9997 -8.6648 -2.4870 0.9476
10.3042 -8.3037 -2.4874 0.9476
11.3892 -6.7575 -2.4892 0.9475
12.0536 -5.5047 -2.4907 0.9475
12.4209 -4.6328 -2.4918 0.9475
12.7256 -3.7366 -2.4929 0.9475
12.8538 -3.2807 -2.4935 0.9474
12.9658 -2.8205 -2.4941 0.9474
13.2028 -1.4195 -2.4959 0.9474
13.2484 -0.9475 -2.4965 0.9474
-11.8537 0.0000 -2.5056 0.9527
-11.8180 -0.8452 -2.5045 0.9527
-11.7220 -1.6854 -2.5033 0.9527
-11.6517 -2.1022 -2.5027 0.9527
-11.5665 -2.5161 -2.5021 0.9528
-11.0802 -4.1327 -2.4997 0.9528
-10.9231 -4.5245 -2.4992 0.9528
-10.7521 -4.9103 -2.4986 0.9528
-10.3697 -5.6623 -2.4974 0.9528
-10.1586 -6.0274 -2.4969 0.9529
-9.9348 -6.3847 -2.4963 0.9529
-9.6985 -6.7338 -2.4957 0.9529
-9.1894 -7.4053 -2.4947 0.9529
-8.6341 -8.0386 -2.4936 0.9529
-8.0354 -8.6307 -2.4926 0.9529
-7.3964 -9.1784 -2.4917 0.9530
-6.7204 -9.6792 -2.4908 0.9530
-6.3696 -9.9112 -2.4904 0.9530
-6.0107 -10.1306 -2.4900 0.9530
-5.6444 -10.3370 -2.4896 0.9530
-5.2665 -10.5211 -2.4870 0.9530
-4.8815 -10.6890 -2.4839 0.9531
-3.1957 -10.8834 -2.3977 0.9547
-2.7801 -10.8925 -2.3763 0.9551
-1.5723 -10.9353 -2.3353 0.9558
-1.1809 -10.9836 -2.3351 0.9558
-0.7880 -11.0180 -2.3349 0.9558
1.5751 -10.9553 -2.3396 0.9558
1.9767 -10.9559 -2.3532 0.9555
2.3837 -10.9578 -2.3704 0.9552
2.7972 -10.9592 -2.3908 0.9548
3.2182 -10.9601 -2.4145 0.9544
3.6480 -10.9604 -2.4418 0.9539
4.0879 -10.9602 -2.4727 0.9533
4.4902 -10.8403 -2.4802 0.9532
4.8797 -10.6851 -2.4830 0.9531
5.6365 -10.3225 -2.4861 0.9531
7.0505 -9.4183 -2.4869 0.9530
7.7060 -8.8932 -2.4874 0.9530
8.0194 -8.6135 -2.4877 0.9530
8.6156 -8.0215 -2.4883 0.9530
8.8977 -7.7099 -2.4886 0.9530
10.1331 -6.0122 -2.4906 0.9530
10.7235 -4.8973 -2.4919 0.9529
10.8935 -4.5122 -2.4924 0.9529
11.0498 -4.1214 -2.4929 0.9529
11.1921 -3.7251 -2.4934 0.9529
11.3202 -3.3239 -2.4939 0.9529
11.4340 -2.9184 -2.4944 0.9529
11.5334 -2.5089 -2.4949 0.9529
11.6181 -2.0961 -2.4955 0.9529
11.7432 -1.2625 -2.4966 0.9529
11.7834 -0.8428 -2.4971 0.9528
11.8087 -0.4217 -2.4977 0.9528
-10.6596 0.0000 -2.5053 0.9571
-10.5919 -1.1387 -2.5037 0.9572
-10.4792 -1.8907 -2.5026 0.9572
-10.4028 -2.2630 -2.5021 0.9572
-10.3132 -2.6323 -2.5016 0.9572
-10.0949 -3.3599 -2.5005 0.9572
-9.9664 -3.7173 -2.5000 0.9572
-9.8253 -4.0698 -2.4994 0.9572
-9.6718 -4.4169 -2.4989 0.9573
-9.5060 -4.7584 -2.4984 0.9573
-9.1386 -5.4222 -2.4974 0.9573
-8.9374 -5.7437 -2.4969 0.9573
-8.7250 -6.0579 -2.4964 0.9573
-8.5015 -6.3642 -2.4959 0.9573
-8.0228 -6.9518 -2.4949 0.9573
-7.5037 -7.5037 -2.4940 0.9573
-6.9468 -8.0170 -2.4931 0.9573
-6.6551 -8.2585 -2.4927 0.9574
-6.3551 -8.4894 -2.4923 0.9574
-5.7315 -8.9183 -2.4915 0.9574
-5.0791 -9.3017 -2.4908 0.9574
-4.0541 -9.7875 -2.4898 0.9574
-3.7018 -9.9248 -2.4895 0.9574
-2.9836 -10.1614 -2.4890 0.9574
-1.8798 -10.4192 -2.4883 0.9574
-0.3775 -10.5694 -2.4856 0.9575
0.0000 -10.5756 -2.4855 0.9575
2.2495 -10.3406 -2.4871 0.9574
3.3420 -10.0411 -2.4872 0.9574
4.7377 -9.4647 -2.4875 0.9574
5.4014 -9.1036 -2.4878 0.9574
6.0380 -8.6963 -2.4882 0.9574
7.4897 -7.4897 -2.4894 0.9574
7.7532 -7.2185 -2.4897 0.9574
8.2505 -6.6486 -2.4903 0.9574
8.7061 -6.0448 -2.4910 0.9574
8.9176 -5.7310 -2.4913 0.9574
9.8014 -4.0599 -2.4934 0.9573
9.9418 -3.7081 -2.4938 0.9573
10.1847 -2.9905 -2.4947 0.9573
10.3760 -2.2572 -2.4956 0.9573
10.5147 -1.5118 -2.4966 0.9573
10.6001 -0.7581 -2.4976 0.9573
10.6225 -0.3794 -2.4981 0.9573
-9.6747 0.0000 -2.5050 0.9608
-9.6464 -0.6899 -2.5040 0.9608
-9.6138 -1.0336 -2.5035 0.9608
-9.5689 -1.3758 -2.5030 0.9608
-9.5119 -1.7161 -2.5026 0.9609
-9.1637 -3.0500 -2.5006 0.9609
-9.0473 -3.3745 -2.5001 0.9609
-8.6298 -4.3198 -2.4987 0.9609
-8.4686 -4.6242 -2.4983 0.9609
-8.2966 -4.9226 -2.4978 0.9609
-8.1141 -5.2146 -2.4973 0.9609
-7.9214 -5.4999 -2.4969 0.9609
-7.7187 -5.7781 -2.4964 0.9609
-7.5062 -6.0489 -2.4960 0.9610
-7.2843 -6.3119 -2.4956 0.9610
-6.5646 -7.0509 -2.4943 0.9610
-3.9970 -8.7522 -2.4912 0.9610
-3.0375 -9.1263 -2.4904 0.9610
-2.0440 -9.3962 -2.4897 0.9610
-1.0277 -9.5588 -2.4892 0.9611
-0.6858 -9.5888 -2.4890 0.9611
-0.3431 -9.6066 -2.4889 0.9611
0.6857 -9.5871 -2.4886 0.9611
1.0274 -9.5563 -2.4886 0.9611
1.7065 -9.4584 -2.4885 0.9611
2.0430 -9.3914 -2.4885 0.9611
2.3769 -9.3125 -2.4885 0.9611
2.7078 -9.2218 -2.4885 0.9611
3.0352 -9.1194 -2.4885 0.9611
3.9930 -8.7435 -2.4887 0.9611
4.9055 -8.2678 -2.4891 0.9611
5.1978 -8.0879 -2.4893 0.9611
5.4835 -7.8978 -2.4894 0.9611
5.7624 -7.6976 -2.4896 0.9610
6.0339 -7.4877 -2.4898 0.9610
6.2979 -7.2682 -2.4901 0.9610
6.5539 -7.0394 -2.4903 0.9610
7.4923 -6.0376 -2.4914 0.9610
7.7039 -5.7671 -2.4917 0.9610
8.2795 -4.9125 -2.4927 0.9610
8.4508 -4.6145 -2.4930 0.9610
8.6114 -4.3105 -2.4934 0.9610
8.8997 -3.6864 -2.4941 0.9610
9.0270 -3.3669 -2.4945 0.9610
9.1429 -3.0430 -2.4949 0.9610
9.2473 -2.7153 -2.4954 0.9610
9.3399 -2.3839 -2.4958 0.9610
9.4206 -2.0493 -2.4962 0.9609
9.5462 -1.3725 -2.4971 0.9609
9.5909 -1.0311 -2.4976 0.9609
9.6436 -0.3444 -2.4985 0.9609
-8.8220 -0.6310 -2.5038 0.9639
-8.7923 -0.9453 -2.5034 0.9639
-8.6994 -1.5696 -2.5025 0.9639
-8.4773 -2.4892 -2.5012 0.9639
-8.2752 -3.0865 -2.5003 0.9639
-7.8937 -3.9513 -2.4990 0.9640
-7.7464 -4.2298 -2.4986 0.9640
-7.5892 -4.5029 -2.4981 0.9640
-7.4224 -4.7701 -2.4977 0.9640
-6.6637 -5.7741 -2.4961 0.9640
-6.2329 -6.2329 -2.4954 0.9640
-5.5285 -6.8605 -2.4943 0.9640
-5.2794 -7.0525 -2.4939 0.9640
-4.4936 -7.5735 -2.4930 0.9641
-3.9409 -7.8729 -2.4924 0.9641
-3.3685 -8.1323 -2.4919 0.9641
-3.0758 -8.2465 -2.4916 0.9641
-2.7792 -8.3502 -2.4914 0.9641
-2.4792 -8.4434 -2.4912 0.9641
-2.1761 -8.5258 -2.4910 0.9641
-1.8702 -8.5973 -2.4908 0.9641
-1.2520 -8.7077 -2.4904 0.9641
-0.6275 -8.7738 -2.4901 0.9641
0.0000 -8.7954 -2.4899 0.9641
0.6274 -8.7724 -2.4898 0.9641
0.9401 -8.7442 -2.4897 0.9641
1.2516 -8.7050 -2.4897 0.9641
1.5615 -8.6546 -2.4896 0.9641
2.1749 -8.5212 -2.4896 0.9641
3.3657 -8.1255 -2.4898 0.9641
3.6537 -8.0004 -2.4899 0.9641
3.9371 -7.8652 -2.4900 0.9641
4.2155 -7.7201 -2.4901 0.9641
4.4886 -7.5650 -2.4902 0.9641
4.7560 -7.4004 -2.4903 0.9641
5.9966 -6.4408 -2.4913 0.9641
6.4420 -5.9977 -2.4917 0.9641
6.6527 -5.7646 -2.4920 0.9641
6.8549 -5.5240 -2.4923 0.9641
7.0485 -5.2764 -2.4925 0.9641
7.2332 -5.0221 -2.4928 0.9641
7.4087 -4.7613 -2.4931 0.9641
7.7315 -4.2217 -2.4938 0.9640
8.0152 -3.6604 -2.4945 0.9640
8.5441 -2.1807 -2.4963 0.9640
8.6178 -1.8747 -2.4967 0.9640
8.8027 -0.6296 -2.4984 0.9640
-8.1426 0.0000 -2.5045 0.9665
-8.1361 -0.2906 -2.5041 0.9665
-8.1192 -0.5807 -2.5037 0.9665
-8.0545 -1.1581 -2.5029 0.9665
-8.0067 -1.4446 -2.5025 0.9665
-7.5094 -3.1105 -2.5000 0.9666
-7.3924 -3.3760 -2.4996 0.9666
-6.8324 -4.3909 -2.4981 0.9666
-6.6703 -4.6313 -2.4977 0.9666
-6.3211 -5.0938 -2.4969 0.9666
-6.1343 -5.3154 -2.4966 0.9666
-5.9399 -5.5302 -2.4962 0.9666
-5.5287 -5.9382 -2.4955 0.9666
-5.0896 -6.3159 -2.4949 0.9666
-4.6250 -6.6612 -2.4943 0.9666
-4.1370 -6.9726 -2.4937 0.9666
-3.8851 -7.1150 -2.4934 0.9666
-3.3669 -7.3725 -2.4929 0.9667
-3.1013 -7.4873 -2.4927 0.9667
-2.8319 -7.5925 -2.4924 0.9667
-2.5588 -7.6881 -2.4922 0.9667
-2.2826 -7.7739 -2.4920 0.9667
-2.0035 -7.8498 -2.4918 0.9667
-1.7220 -7.9157 -2.4917 0.9667
-1.1527 -8.0174 -2.4913 0.9667
-0.8658 -8.0530 -2.4912 0.9667
-0.2891 -8.0935 -2.4910 0.9667
0.2890 -8.0929 -2.4908 0.9667
0.5777 -8.0772 -2.4907 0.9667
2.0025 -7.8459 -2.4906 0.9667
2.8299 -7.5872 -2.4907 0.9667
3.0989 -7.4815 -2.4908 0.9667
3.8813 -7.1081 -2.4910 0.9667
4.1328 -6.9654 -2.4911 0.9667
4.3790 -6.8138 -2.4913 0.9667
4.8545 -6.4849 -2.4916 0.9667
5.0832 -6.3079 -2.4917 0.9667
5.3055 -6.1229 -2.4919 0.9667
5.9311 -5.5221 -2.4926 0.9667
6.1250 -5.3074 -2.4928 0.9667
6.4893 -4.8579 -2.4933 0.9666
6.6593 -4.6236 -2.4936 0.9666
6.8209 -4.3835 -2.4938 0.9666
6.9738 -4.1377 -2.4941 0.9666
7.1179 -3.8866 -2.4944 0.9666
7.2530 -3.6306 -2.4947 0.9666
7.4954 -3.1047 -2.4954 0.9666
7.6025 -2.8356 -2.4957 0.9666
7.8653 -2.0075 -2.4968 0.9666
7.9908 -1.4417 -2.4975 0.9666
8.0758 -0.8682 -2.4983 0.9666
8.1029 -0.5795 -2.4986 0.9666
-7.5279 -0.2689 -2.5039 0.9687
-7.4873 -0.8050 -2.5032 0.9688
-7.4527 -1.0715 -2.5028 0.9688
-7.3551 -1.6000 -2.5020 0.9688
-7.2922 -1.8612 -2.5017 0.9688
-7.2200 -2.1200 -2.5013 0.9688
-7.0483 -2.6289 -2.5005 0.9688
-6.1729 -4.2859 -2.4980 0.9688
-5.3103 -5.3103 -2.4963 0.9688
-4.9167 -5.6742 -2.4957 0.9688
-4.7105 -5.8454 -2.4954 0.9689
-4.4983 -6.0091 -2.4951 0.9689
-4.2805 -6.1651 -2.4948 0.9689
-3.8290 -6.4534 -2.4943 0.9689
-2.6211 -7.0274 -2.4932 0.9689
-2.1128 -7.1954 -2.4928 0.9689
-1.8545 -7.2657 -2.4926 0.9689
-1.5938 -7.3268 -2.4924 0.9689
-1.3312 -7.3786 -2.4923 0.9689
-0.8014 -7.4539 -2.4920 0.9689
-0.5348 -7.4774 -2.4919 0.9689
-0.2676 -7.4914 -2.4918 0.9689
0.2675 -7.4909 -2.4916 0.9689
0.5347 -7.4764 -2.4916 0.9689
0.8012 -7.4524 -2.4915 0.9689
1.8536 -7.2624 -2.4914 0.9689
2.6194 -7.0229 -2.4915 0.9689
3.1139 -6.8184 -2.4917 0.9689
4.4933 -6.0024 -2.4923 0.9689
4.7050 -5.8385 -2.4925 0.9689
5.3033 -5.3033 -2.4930 0.9689
5.4897 -5.1111 -2.4933 0.9689
5.6691 -4.9123 -2.4935 0.9689
6.0062 -4.4962 -2.4939 0.9689
6.1635 -4.2794 -2.4942 0.9689
6.3129 -4.0571 -2.4944 0.9689
6.5877 -3.5972 -2.4950 0.9689
6.9369 -2.8734 -2.4959 0.9688
7.0360 -2.6243 -2.4962 0.9688
7.2071 -2.1162 -2.4968 0.9688
7.3417 -1.5971 -2.4975 0.9688
7.3950 -1.3342 -2.4978 0.9688
7.4389 -1.0696 -2.4982 0.9688
7.4734 -0.8035 -2.4985 0.9688
-6.9827 -0.4994 -2.5034 0.9707
-6.8367 -1.4872 -2.5020 0.9707
-6.4595 -2.6756 -2.5003 0.9707
-6.3590 -2.9041 -2.5000 0.9707
-6.1340 -3.3494 -2.4993 0.9707
-6.0097 -3.5657 -2.4989 0.9708
-5.5919 -4.1861 -2.4980 0.9708
-3.5599 -5.9999 -2.4948 0.9708
-3.1222 -6.2374 -2.4944 0.9708
-2.6688 -6.4432 -2.4940 0.9708
-2.4370 -6.5338 -2.4938 0.9708
-2.2021 -6.6161 -2.4936 0.9708
-1.9644 -6.6900 -2.4934 0.9708
-1.2378 -6.8604 -2.4929 0.9708
-0.9921 -6.8999 -2.4928 0.9708
-0.7451 -6.9306 -2.4927 0.9708
-0.2488 -6.9655 -2.4925 0.9708
-0.0000 -6.9697 -2.4924 0.9708
0.9918 -6.8982 -2.4922 0.9708
1.2374 -6.8583 -2.4922 0.9708
1.7235 -6.7526 -2.4922 0.9708
2.2009 -6.6125 -2.4922 0.9708
2.4355 -6.5299 -2.4923 0.9708
2.6671 -6.4389 -2.4923 0.9708
2.8953 -6.3398 -2.4924 0.9708
3.1198 -6.2326 -2.4925 0.9708
3.3404 -6.1175 -2.4925 0.9708
3.9757 -5.7261 -2.4929 0.9708
4.1778 -5.5809 -2.4930 0.9708
4.5658 -5.2693 -2.4933 0.9708
5.1040 -4.7520 -2.4939 0.9708
5.4310 -4.3765 -2.4943 0.9708
5.7304 -3.9787 -2.4947 0.9708
6.1247 -3.3443 -2.4955 0.9708
6.2408 -3.1239 -2.4957 0.9708
6.3490 -2.8995 -2.4960 0.9708
6.4492 -2.6713 -2.4963 0.9708
6.5412 -2.4397 -2.4966 0.9708
6.6249 -2.2050 -2.4969 0.9708
6.7002 -1.9673 -2.4972 0.9708
6.7669 -1.7272 -2.4975 0.9708
6.8251 -1.4847 -2.4978 0.9708
6.9154 -0.9943 -2.4984 0.9708
6.9474 -0.7469 -2.4988 0.9708
6.9849 -0.2495 -2.4994 0.9707
-6.5158 -0.4660 -2.5033 0.9724
-6.4642 -0.9294 -2.5027 0.9724
-6.4261 -1.1594 -2.5024 0.9724
-5.8331 -2.9198 -2.4998 0.9724
-5.6085 -3.3277 -2.4991 0.9725
-5.4855 -3.5253 -2.4988 0.9725
-5.0754 -4.0900 -2.4979 0.9725
-4.9256 -4.2681 -2.4976 0.9725
-4.4397 -4.7686 -2.4968 0.9725
-3.9033 -5.2142 -2.4960 0.9725
-3.7143 -5.3497 -2.4958 0.9725
-3.1204 -5.7145 -2.4951 0.9725
-2.4910 -6.0138 -2.4945 0.9725
-2.0554 -6.1754 -2.4941 0.9725
-1.8335 -6.2444 -2.4940 0.9725
-0.2322 -6.5016 -2.4931 0.9725
-0.0000 -6.5056 -2.4931 0.9725
0.4641 -6.4887 -2.4929 0.9725
0.9258 -6.4388 -2.4929 0.9725
1.1550 -6.4016 -2.4928 0.9725
1.3827 -6.3563 -2.4928 0.9725
1.8327 -6.2415 -2.4928 0.9725
2.4895 -6.0101 -2.4930 0.9725
3.3199 -5.5954 -2.4933 0.9725
3.7109 -5.3447 -2.4935 0.9725
4.4348 -4.7633 -2.4941 0.9725
4.6023 -4.6023 -2.4942 0.9725
4.9196 -4.2629 -2.4946 0.9725
5.0690 -4.0849 -2.4948 0.9725
5.2120 -3.9017 -2.4950 0.9725
5.3484 -3.7135 -2.4952 0.9725
5.4781 -3.5205 -2.4954 0.9725
5.6007 -3.3231 -2.4957 0.9725
5.7163 -3.1214 -2.4959 0.9725
6.0191 -2.4932 -2.4967 0.9725
6.1049 -2.2770 -2.4969 0.9725
6.1830 -2.0579 -2.4972 0.9725
6.3154 -1.6119 -2.4978 0.9725
6.3697 -1.3856 -2.4981 0.9725
6.4159 -1.1576 -2.4984 0.9725
6.4539 -0.9279 -2.4987 0.9725
6.4837 -0.6971 -2.4990 0.9725
-6.1178 0.0000 -2.5038 0.9739
-6.1131 -0.2183 -2.5035 0.9739
-6.1007 -0.4363 -2.5032 0.9739
-6.0526 -0.8702 -2.5026 0.9739
-5.9227 -1.5117 -2.5017 0.9739
-5.8642 -1.7219 -2.5014 0.9739
-5.4620 -2.7341 -2.4999 0.9739
-5.1367 -3.3011 -2.4990 0.9740
-4.8870 -3.6583 -2.4985 0.9740
-4.7528 -3.8300 -2.4982 0.9740
-4.6125 -3.9968 -2.4979 0.9740
-4.4665 -4.1584 -2.4976 0.9740
-4.3147 -4.3148 -2.4974 0.9740
-4.1576 -4.4655 -2.4971 0.9740
-3.9951 -4.6106 -2.4969 0.9740
-3.4784 -5.0099 -2.4962 0.9740
-2.5326 -5.5456 -2.4951 0.9740
-2.3329 -5.6320 -2.4950 0.9740
-2.1302 -5.7113 -2.4948 0.9740
-1.2954 -5.9549 -2.4942 0.9740
-1.0820 -5.9971 -2.4941 0.9740
-0.8672 -6.0316 -2.4940 0.9740
-0.4347 -6.0776 -2.4938 0.9740
0.2175 -6.0887 -2.4936 0.9740
0.4346 -6.0770 -2.4935 0.9740
0.6512 -6.0575 -2.4935 0.9740
1.0817 -5.9955 -2.4934 0.9740
1.2950 -5.9530 -2.4934 0.9740
1.9240 -5.7806 -2.4934 0.9740
2.3315 -5.6288 -2.4935 0.9740
2.7273 -5.4484 -2.4936 0.9740
3.2944 -5.1262 -2.4939 0.9740
3.4754 -5.0055 -2.4940 0.9740
3.6520 -4.8785 -2.4941 0.9740
4.1533 -4.4609 -2.4946 0.9740
4.3101 -4.3101 -2.4947 0.9740
4.4615 -4.1538 -2.4949 0.9740
4.6073 -3.9922 -2.4951 0.9740
4.8811 -3.6539 -2.4954 0.9740
5.2450 -3.1120 -2.4961 0.9740
5.3532 -2.9231 -2.4963 0.9740
5.4547 -2.7304 -2.4965 0.9740
5.6366 -2.3348 -2.4970 0.9740
5.7900 -1.9271 -2.4975 0.9740
5.8557 -1.7194 -2.4978 0.9740
5.9140 -1.5095 -2.4980 0.9740
6.0079 -1.0840 -2.4986 0.9740
6.0713 -0.6527 -2.4992 0.9740
6.0915 -0.4357 -2.4995 0.9740
-5.7449 0.0000 -2.5037 0.9752
-5.7101 -0.6139 -2.5029 0.9753
-5.6098 -1.2203 -2.5020 0.9753
-5.5620 -1.4196 -2.5017 0.9753
-5.4453 -1.8124 -2.5012 0.9753
-5.3766 -2.0054 -2.5009 0.9753
-5.3010 -2.1957 -2.5006 0.9753
-5.2186 -2.3833 -2.5003 0.9753
-5.1297 -2.5677 -2.5000 0.9753
-5.0342 -2.7489 -2.4998 0.9753
-4.7100 -3.2702 -2.4989 0.9753
-4.5898 -3.4358 -2.4987 0.9753
-4.3321 -3.7538 -2.4982 0.9753
-3.9048 -4.1941 -2.4974 0.9753
-3.7523 -4.3304 -2.4972 0.9753
-3.5950 -4.4611 -2.4970 0.9753
-3.2670 -4.7054 -2.4965 0.9753
-3.0967 -4.8186 -2.4963 0.9753
-2.9225 -4.9257 -2.4961 0.9753
-2.1912 -5.2899 -2.4954 0.9753
-2.0008 -5.3644 -2.4952 0.9753
-1.8080 -5.4321 -2.4951 0.9753
-1.4157 -5.5466 -2.4948 0.9753
-1.2168 -5.5933 -2.4947 0.9753
-0.8146 -5.6654 -2.4945 0.9753
-0.6118 -5.6906 -2.4944 0.9753
-0.4083 -5.7086 -2.4943 0.9753
-0.2043 -5.7194 -2.4942 0.9753
0.0000 -5.7229 -2.4941 0.9753
0.4082 -5.7080 -2.4940 0.9753
0.6117 -5.6897 -2.4940 0.9753
0.8144 -5.6642 -2.4939 0.9753
1.0160 -5.6315 -2.4939 0.9753
1.2164 -5.5916 -2.4939 0.9753
1.6122 -5.4906 -2.4939 0.9753
1.9998 -5.3618 -2.4940 0.9753
2.5617 -5.1176 -2.4942 0.9753
3.2644 -4.7016 -2.4945 0.9753
3.4303 -4.5823 -2.4946 0.9753
3.7488 -4.3263 -2.4949 0.9753
3.9010 -4.1900 -2.4950 0.9753
4.0484 -4.0483 -2.4952 0.9753
4.1905 -3.9015 -2.4953 0.9753
4.3274 -3.7497 -2.4955 0.9753
4.4588 -3.5931 -2.4956 0.9753
4.7045 -3.2664 -2.4960 0.9753
4.8184 -3.0966 -2.4962 0.9753
5.2940 -2.1928 -2.4973 0.9753
5.3694 -2.0027 -2.4975 0.9753
5.4997 -1.6148 -2.4980 0.9753
5.5544 -1.4177 -2.4983 0.9753
5.6759 -0.8161 -2.4991 0.9753
5.7020 -0.6130 -2.4993 0.9753
5.7324 -0.2047 -2.4999 0.9753
-5.4088 0.0000 -2.5036 0.9764
-5.4047 -0.1930 -2.5034 0.9764
-5.3938 -0.3858 -2.5031 0.9764
-5.2817 -1.1490 -2.5020 0.9765
-5.2368 -1.3366 -2.5017 0.9765
-4.9911 -2.0674 -2.5007 0.9765
-4.6442 -2.7555 -2.4996 0.9765
-4.5424 -2.9192 -2.4994 0.9765
-4.4348 -3.0792 -2.4991 0.9765
-4.3217 -3.2352 -2.4989 0.9765
-4.2031 -3.3870 -2.4986 0.9765
-3.9500 -3.6775 -2.4981 0.9765
-3.8158 -3.8158 -2.4979 0.9765
-3.6769 -3.9492 -2.4977 0.9765
-3.3852 -4.2008 -2.4973 0.9765
-2.7520 -4.6383 -2.4965 0.9765
-2.5845 -4.7332 -2.4963 0.9765
-2.4138 -4.8221 -2.4961 0.9765
-2.2399 -4.9049 -2.4959 0.9765
-1.8841 -5.0515 -2.4956 0.9765
-1.7025 -5.1153 -2.4955 0.9765
-1.3331 -5.2231 -2.4952 0.9765
-0.9570 -5.3044 -2.4950 0.9765
-0.7671 -5.3350 -2.4949 0.9765
-0.5761 -5.3588 -2.4948 0.9765
0.1923 -5.3856 -2.4945 0.9765
0.3844 -5.3752 -2.4945 0.9765
0.5760 -5.3580 -2.4944 0.9765
0.7669 -5.3340 -2.4944 0.9765
0.9568 -5.3032 -2.4944 0.9765
1.3327 -5.2214 -2.4944 0.9765
1.5182 -5.1705 -2.4944 0.9765
1.7018 -5.1131 -2.4944 0.9765
1.8832 -5.0492 -2.4945 0.9765
2.2387 -4.9021 -2.4945 0.9765
2.4123 -4.8192 -2.4946 0.9765
2.5829 -4.7302 -2.4947 0.9765
3.0740 -4.4274 -2.4949 0.9765
3.2302 -4.3151 -2.4950 0.9765
3.3823 -4.1972 -2.4952 0.9765
3.6735 -3.9456 -2.4954 0.9765
3.9461 -3.6739 -2.4957 0.9765
4.1987 -3.3835 -2.4960 0.9765
4.4300 -3.0758 -2.4964 0.9765
4.9077 -2.2413 -2.4974 0.9765
4.9850 -2.0648 -2.4976 0.9765
5.0559 -1.8858 -2.4978 0.9765
5.1205 -1.7043 -2.4980 0.9765
5.2748 -1.1475 -2.4987 0.9765
5.3443 -0.7684 -2.4992 0.9765
5.3975 -0.1928 -2.5000 0.9765
-5.1038 -0.0000 -2.5035 0.9775
-5.1000 -0.1821 -2.5033 0.9775
-5.0898 -0.3640 -2.5030 0.9775
-5.0202 -0.9057 -2.5023 0.9775
-4.9418 -1.2613 -2.5018 0.9775
-4.8931 -1.4367 -2.5015 0.9775
-4.8382 -1.6103 -2.5012 0.9775
-4.7772 -1.7818 -2.5010 0.9775
-4.7100 -1.9510 -2.5007 0.9775
-4.6369 -2.1176 -2.5005 0.9775
-4.4732 -2.4425 -2.5000 0.9775
-4.3827 -2.6004 -2.4998 0.9776
-4.2867 -2.7549 -2.4995 0.9776
-3.9665 -3.1964 -2.4988 0.9776
-3.8496 -3.3357 -2.4986 0.9776
-3.7277 -3.4706 -2.4984 0.9776
-3.6012 -3.6012 -2.4981 0.9776
-3.3345 -3.8482 -2.4977 0.9776
-3.0510 -4.0757 -2.4973 0.9776
-2.9034 -4.1816 -2.4971 0.9776
-2.2781 -4.5510 -2.4964 0.9776
-1.7782 -4.7676 -2.4960 0.9776
-1.4334 -4.8818 -2.4957 0.9776
-1.0814 -4.9711 -2.4955 0.9776
-0.7240 -5.0352 -2.4953 0.9776
-0.3629 -5.0737 -2.4951 0.9776
-0.1815 -5.0833 -2.4951 0.9776
0.3628 -5.0732 -2.4949 0.9776
0.7238 -5.0343 -2.4948 0.9776
0.9030 -5.0052 -2.4948 0.9776
1.0811 -4.9698 -2.4948 0.9776
1.2578 -4.9280 -2.4948 0.9776
1.4329 -4.8800 -2.4948 0.9776
1.6062 -4.8258 -2.4948 0.9776
1.7774 -4.7655 -2.4949 0.9776
1.9464 -4.6991 -2.4949 0.9776
2.2768 -4.5484 -2.4950 0.9776
2.5956 -4.3747 -2.4952 0.9776
2.7502 -4.2794 -2.4952 0.9776
2.9013 -4.1786 -2.4953 0.9776
3.0487 -4.0726 -2.4954 0.9776
3.4670 -3.7239 -2.4958 0.9776
3.5979 -3.5979 -2.4959 0.9776
3.7243 -3.4674 -2.4960 0.9776
3.9626 -3.1933 -2.4964 0.9776
4.0743 -3.0500 -2.4965 0.9776
4.1809 -2.9028 -2.4967 0.9776
4.3779 -2.5976 -2.4970 0.9776
4.4682 -2.4398 -2.4972 0.9776
4.5528 -2.2790 -2.4974 0.9776
4.7045 -1.9487 -2.4978 0.9776
4.7715 -1.7797 -2.4980 0.9776
4.8324 -1.6084 -2.4982 0.9776
4.8872 -1.4350 -2.4985 0.9776
4.9780 -1.0829 -2.4989 0.9776
5.0139 -0.9046 -2.4992 0.9776
5.0666 -0.5447 -2.4996 0.9776
5.0834 -0.3636 -2.4999 0.9776
5.0936 -0.1819 -2.5001 0.9775
-4.8257 0.0000 -2.5034 0.9785
-4.7966 -0.5157 -2.5027 0.9785
-4.7747 -0.6865 -2.5025 0.9785
-4.7467 -0.8564 -2.5023 0.9785
-4.6266 -1.3585 -2.5015 0.9785
-4.5171 -1.6848 -2.5010 0.9785
-4.3845 -2.0023 -2.5006 0.9785
-4.3099 -2.1574 -2.5003 0.9785
-4.1442 -2.4589 -2.4999 0.9785
-4.0534 -2.6050 -2.4996 0.9785
-3.6402 -3.1542 -2.4988 0.9785
-3.4053 -3.4053 -2.4983 0.9785
-3.0211 -3.7489 -2.4978 0.9785
-2.8851 -3.8541 -2.4976 0.9785
-2.6024 -4.0495 -2.4972 0.9785
-2.4561 -4.1395 -2.4970 0.9785
-2.1542 -4.3036 -2.4967 0.9785
-1.8415 -4.4458 -2.4964 0.9785
-1.6816 -4.5085 -2.4963 0.9785
-1.5195 -4.5654 -2.4962 0.9786
-1.3555 -4.6165 -2.4961 0.9786
-1.1898 -4.6617 -2.4959 0.9786
-1.0226 -4.7010 -2.4958 0.9786
-0.5142 -4.7829 -2.4956 0.9786
-0.1717 -4.8071 -2.4954 0.9786
0.0000 -4.8101 -2.4954 0.9786
0.1717 -4.8069 -2.4953 0.9786
1.1895 -4.6604 -2.4952 0.9786
1.3551 -4.6150 -2.4952 0.9786
1.5189 -4.5637 -2.4952 0.9786
1.6809 -4.5066 -2.4953 0.9786
1.9982 -4.3754 -2.4953 0.9786
2.1531 -4.3013 -2.4954 0.9786
2.3053 -4.2218 -2.4955 0.9786
2.8831 -3.8513 -2.4958 0.9786
3.0188 -3.7461 -2.4959 0.9786
3.1507 -3.6361 -2.4960 0.9786
3.2786 -3.5215 -2.4961 0.9786
3.5219 -3.2790 -2.4964 0.9785
3.9536 -2.7451 -2.4970 0.9785
4.2253 -2.3072 -2.4975 0.9785
4.3798 -2.0002 -2.4979 0.9785
4.4487 -1.8427 -2.4980 0.9785
4.6213 -1.3569 -2.4987 0.9785
4.6672 -1.1912 -2.4989 0.9785
4.7411 -0.8554 -2.4993 0.9785
4.7691 -0.6857 -2.4995 0.9785
4.8164 -0.1720 -2.5002 0.9785
-4.5707 -0.0000 -2.5034 0.9794
-4.5673 -0.1631 -2.5031 0.9794
-4.5582 -0.3260 -2.5029 0.9794
-4.4960 -0.8112 -2.5022 0.9794
-4.3823 -1.2868 -2.5015 0.9794
-4.3332 -1.4422 -2.5013 0.9794
-4.1531 -1.8967 -2.5006 0.9794
-4.0824 -2.0435 -2.5004 0.9794
-3.7487 -2.6028 -2.4996 0.9794
-3.3390 -3.1088 -2.4987 0.9794
-2.9869 -3.4471 -2.4982 0.9794
-2.8618 -3.5513 -2.4980 0.9794
-2.4653 -3.8360 -2.4975 0.9794
-2.3266 -3.9213 -2.4973 0.9794
-2.1850 -4.0016 -2.4972 0.9794
-2.0407 -4.0768 -2.4970 0.9794
-1.8938 -4.1468 -2.4969 0.9794
-1.7445 -4.2115 -2.4967 0.9794
-1.5930 -4.2709 -2.4966 0.9794
-1.4394 -4.3248 -2.4965 0.9794
-1.2841 -4.3733 -2.4964 0.9794
-1.1271 -4.4161 -2.4963 0.9794
-0.9688 -4.4533 -2.4962 0.9794
-0.8092 -4.4849 -2.4961 0.9794
-0.4871 -4.5309 -2.4959 0.9794
-0.3251 -4.5453 -2.4958 0.9794
-0.1626 -4.5539 -2.4958 0.9794
0.0000 -4.5567 -2.4957 0.9794
0.1626 -4.5537 -2.4957 0.9794
0.4871 -4.5304 -2.4956 0.9794
0.6485 -4.5101 -2.4956 0.9794
0.8090 -4.4840 -2.4956 0.9794
0.9685 -4.4523 -2.4956 0.9794
1.1268 -4.4149 -2.4956 0.9794
1.2837 -4.3719 -2.4956 0.9794
1.5923 -4.2692 -2.4956 0.9794
1.7437 -4.2097 -2.4956 0.9794
1.8929 -4.1449 -2.4957 0.9794
2.0397 -4.0747 -2.4957 0.9794
2.1839 -3.9994 -2.4958 0.9794
2.4638 -3.8337 -2.4959 0.9794
2.5991 -3.7434 -2.4960 0.9794
3.4452 -2.9853 -2.4968 0.9794
3.5498 -2.8606 -2.4969 0.9794
3.6498 -2.7322 -2.4971 0.9794
3.7452 -2.6004 -2.4972 0.9794
3.8359 -2.4652 -2.4974 0.9794
3.9217 -2.3268 -2.4975 0.9794
4.0783 -2.0414 -2.4979 0.9794
4.1488 -1.8947 -2.4981 0.9794
4.2141 -1.7455 -2.4983 0.9794
4.2741 -1.5941 -2.4984 0.9794
4.4210 -1.1284 -2.4990 0.9794
4.4910 -0.8103 -2.4994 0.9794
4.5174 -0.6495 -2.4997 0.9794
4.5381 -0.4879 -2.4999 0.9794
4.5530 -0.3256 -2.5001 0.9794
4.5622 -0.1629 -2.5003 0.9794
-4.3358 0.0000 -2.5033 0.9802
-4.3327 -0.1547 -2.5031 0.9802
-4.3241 -0.3093 -2.5029 0.9802
-4.3099 -0.4634 -2.5027 0.9802
-4.2902 -0.6168 -2.5024 0.9802
-4.2651 -0.7695 -2.5022 0.9802
-4.2346 -0.9212 -2.5020 0.9802
-4.1986 -1.0716 -2.5018 0.9802
-4.1573 -1.2207 -2.5016 0.9802
-4.1108 -1.3682 -2.5014 0.9802
-4.0020 -1.6577 -2.5009 0.9802
-3.8009 -2.0755 -2.5003 0.9802
-3.7241 -2.2096 -2.5001 0.9802
-3.3706 -2.7162 -2.4993 0.9802
-3.2713 -2.8346 -2.4991 0.9802
-3.0603 -3.0603 -2.4987 0.9802
-2.7150 -3.3692 -2.4982 0.9802
-2.5929 -3.4637 -2.4980 0.9802
-2.4674 -3.5538 -2.4979 0.9802
-2.3389 -3.6394 -2.4977 0.9802
-1.9361 -3.8679 -2.4973 0.9802
-1.7967 -3.9343 -2.4971 0.9802
-1.5113 -4.0520 -2.4969 0.9802
-1.3657 -4.1032 -2.4968 0.9802
-0.4622 -4.2988 -2.4962 0.9802
-0.3084 -4.3124 -2.4961 0.9802
-0.1543 -4.3206 -2.4961 0.9802
0.1543 -4.3204 -2.4960 0.9802
0.6152 -4.2790 -2.4959 0.9802
0.7676 -4.2543 -2.4959 0.9802
1.3652 -4.1018 -2.4959 0.9802
1.6544 -3.9941 -2.4960 0.9802
1.7959 -3.9325 -2.4960 0.9802
2.2062 -3.7183 -2.4962 0.9802
2.3375 -3.6373 -2.4962 0.9802
2.7132 -3.3669 -2.4965 0.9802
2.8318 -3.2680 -2.4966 0.9802
3.1653 -2.9470 -2.4969 0.9802
3.5533 -2.4671 -2.4975 0.9802
3.7207 -2.2076 -2.4978 0.9802
3.7973 -2.0735 -2.4979 0.9802
3.8692 -1.9368 -2.4981 0.9802
4.0549 -1.5124 -2.4986 0.9802
4.1066 -1.3668 -2.4988 0.9802
4.1530 -1.2194 -2.4990 0.9802
4.1943 -1.0705 -2.4992 0.9802
4.2301 -0.9202 -2.4994 0.9802
4.2606 -0.7687 -2.4996 0.9802
4.2857 -0.6162 -2.4998 0.9802
4.3053 -0.4629 -2.5000 0.9802
4.3194 -0.3089 -2.5002 0.9802
