ply
format ascii 1.0
element vertex 1263
property float32 x
property float32 y
property float32 z
property float32 I
end_header
-19.3939 -19.3939 4.8361 0.8946
-30.4559 -37.7935 8.5585 0.8211
-27.7682 -37.0939 8.1703 0.8284
-21.0273 -35.4395 7.2661 0.8459
-19.0100 -34.8142 6.9942 0.8512
-15.4794 -33.8951 6.5704 0.8595
-9.4951 -32.3372 5.9426 0.8721
-6.9186 -31.8043 5.7391 0.8762
-4.4609 -31.0264 5.5271 0.8805
-3.3179 -30.8608 5.4729 0.8816
-2.1989 -30.7447 5.4350 0.8823
-1.0764 -30.1387 5.3176 0.8847
-0.0000 -29.8583 5.2648 0.8858
2.1989 -30.7452 5.4351 0.8823
3.1223 -29.0422 5.1504 0.8881
5.6820 -31.4934 5.6428 0.8781
8.2041 -32.1434 5.8495 0.8739
4.1313 -12.4126 2.3067 0.9483
44.3244 -18.3598 8.4595 0.8229
22.9112 -7.6256 4.2577 0.9066
-19.3696 -19.3696 4.1964 0.8951
-30.4579 -37.7960 7.4362 0.8217
-27.7700 -37.0963 7.0989 0.8290
-25.3122 -36.4565 6.7991 0.8356
-20.9581 -35.3230 6.2921 0.8469
-19.0110 -34.8161 6.0770 0.8517
-17.1905 -34.3421 5.8833 0.8561
-11.0381 -33.1642 5.3546 0.8681
-10.5484 -35.9247 5.7358 0.8594
-8.1656 -31.9924 5.0582 0.8749
-7.1450 -32.8449 5.1493 0.8728
-4.4611 -31.0277 4.8022 0.8809
-3.4252 -31.8591 4.9088 0.8784
-1.0765 -30.1399 4.6202 0.8851
5.3306 -37.0754 5.7381 0.8594
6.6501 -36.8592 5.7378 0.8594
6.9704 -32.0423 5.0235 0.8757
8.2045 -32.1448 5.0823 0.8744
4.1323 -12.4154 2.0046 0.9484
22.8815 -7.6157 3.6944 0.9070
-30.4599 -37.7985 6.3215 0.8222
-27.7717 -37.0986 6.0347 0.8295
-25.4307 -36.6271 5.8065 0.8354
-20.9650 -32.6223 5.0497 0.8552
-20.4032 -34.3877 5.2069 0.8510
-14.5214 -35.0579 4.9414 0.8581
-12.3383 -33.0803 4.5976 0.8673
-11.0383 -33.1648 4.5517 0.8685
-8.1659 -31.9938 4.2998 0.8753
-6.6112 -36.6438 4.8488 0.8605
-4.4613 -31.0291 4.0822 0.8812
-3.4253 -31.8600 4.1728 0.8787
-1.0765 -30.1411 3.9275 0.8854
-0.0000 -29.8608 3.8885 0.8865
1.2359 -34.6045 4.5091 0.8696
3.1226 -29.0445 3.8040 0.8888
7.8713 -43.6280 5.7730 0.8363
4.1332 -12.4183 1.7043 0.9486
44.3233 -18.3593 6.2474 0.8241
22.8522 -7.6060 3.1363 0.9074
-25.6421 -36.9317 4.8280 0.8345
-23.0535 -35.8720 4.5789 0.8424
-15.4817 -33.9003 4.0019 0.8608
-12.3389 -33.0819 3.7914 0.8676
-11.0385 -33.1654 3.7534 0.8688
-11.1065 -37.8251 4.2332 0.8533
-8.1663 -31.9953 3.5458 0.8756
-6.6139 -36.6585 4.0000 0.8608
-4.4615 -31.0304 3.3664 0.8815
-3.4254 -31.8609 3.4410 0.8790
-2.5463 -35.6014 3.8327 0.8662
-1.0766 -30.1424 3.2388 0.8857
-0.0000 -29.8620 3.2066 0.8868
6.2701 -43.6093 4.7310 0.8376
3.8115 -12.9808 1.4527 0.9470
44.8795 -20.4958 5.2980 0.8200
44.3228 -18.3591 5.1516 0.8245
22.8558 -7.6072 2.5867 0.9076
-19.3197 -19.3197 2.3129 0.8961
-23.0548 -35.8740 3.6099 0.8427
-14.5219 -35.0590 3.2124 0.8587
-12.3395 -33.0834 2.9891 0.8678
-11.0387 -33.1659 2.9590 0.8691
-6.6165 -36.6731 3.1546 0.8611
-4.4617 -31.0317 2.6539 0.8817
2.4512 -34.2731 2.9087 0.8712
3.1229 -29.0468 2.4731 0.8893
6.2885 -43.7377 3.7406 0.8375
6.9713 -32.0464 2.7763 0.8766
8.2055 -32.1489 2.8087 0.8753
3.7923 -12.9155 1.1395 0.9474
17.3806 -46.5992 4.2102 0.8190
20.7554 -16.7258 2.2565 0.8985
44.8790 -20.4955 4.1766 0.8203
44.3223 -18.3589 4.0611 0.8248
-19.3141 -19.3141 1.6938 0.8963
-30.4659 -37.8059 3.0108 0.8232
-19.2835 -32.5005 2.3434 0.8595
-17.9628 -35.8850 2.4885 0.8514
-14.5222 -35.0596 2.3532 0.8589
-12.3401 -33.0850 2.1897 0.8680
-11.0389 -33.1665 2.1676 0.8693
-11.0919 -37.7756 2.4413 0.8540
-8.1670 -31.9981 2.0478 0.8760
-3.4256 -31.8627 1.9872 0.8795
-1.0766 -30.1448 1.8705 0.8861
-0.0000 -29.8644 1.8519 0.8872
1.2340 -34.5515 2.1439 0.8706
8.2059 -32.1503 2.0576 0.8755
3.7735 -12.8512 0.8306 0.9477
4.1360 -12.4266 0.8121 0.9489
18.9325 -45.7071 3.0678 0.8201
20.6673 -45.2551 3.0851 0.8192
11.2538 -17.5113 1.2908 0.9200
22.8629 -7.6095 1.4942 0.9079
-33.6964 -36.1925 1.9499 0.8204
-25.6431 -36.9331 1.7729 0.8353
-23.0574 -35.8781 1.6817 0.8431
-19.2121 -32.3802 1.4846 0.8601
-19.0160 -34.8251 1.5646 0.8531
-17.9630 -35.8855 1.5824 0.8516
-14.5224 -35.0602 1.4964 0.8591
-8.1674 -31.9995 1.3022 0.8762
-7.1457 -32.8484 1.3255 0.8741
-4.4621 -31.0343 1.2363 0.8820
-1.0767 -30.1460 1.1894 0.8863
5.6005 -38.9524 1.5517 0.8542
6.9718 -32.0490 1.2933 0.8770
8.2062 -32.1516 1.3084 0.8756
13.2411 -28.9939 1.2568 0.8802
14.1853 -28.3385 1.2497 0.8809
30.5441 -12.6518 1.3036 0.8760
-30.4699 -37.8108 0.8203 0.8234
-21.9150 -36.9358 0.7255 0.8421
-19.0170 -34.8270 0.6703 0.8532
-15.4848 -33.9071 0.6297 0.8615
-14.5226 -35.0607 0.6410 0.8591
-12.3413 -33.0881 0.5965 0.8682
-11.0928 -37.7786 0.6651 0.8543
-7.1459 -32.8491 0.5679 0.8742
-6.6102 -36.6379 0.6289 0.8616
-4.4622 -31.0356 0.5296 0.8821
-2.4939 -34.8686 0.5905 0.8695
-1.0767 -30.1473 0.5096 0.8863
-0.0000 -29.8668 0.5045 0.8874
1.2341 -34.5543 0.5841 0.8708
3.1232 -29.0502 0.4935 0.8897
6.4649 -29.7186 0.5137 0.8854
3.7364 -12.7250 0.2240 0.9483
4.1378 -12.4321 0.2213 0.9489
14.1859 -28.3398 0.5352 0.8809
26.7005 -24.8591 0.6162 0.8642
44.8773 -20.4948 0.8334 0.8209
22.8700 -7.6119 0.4072 0.9081
-19.2973 -19.2973 -0.1536 0.8966
-30.4719 -37.8132 -0.2734 0.8234
-25.6438 -36.9340 -0.2532 0.8354
-21.9153 -36.9363 -0.2418 0.8422
-15.4856 -33.9087 -0.2099 0.8615
-11.0395 -33.1683 -0.1968 0.8695
-11.0932 -37.7801 -0.2218 0.8543
-3.4259 -31.8653 -0.1804 0.8797
-2.5151 -35.1662 -0.1985 0.8685
-1.0768 -30.1485 -0.1699 0.8863
-0.0000 -29.8679 -0.1682 0.8874
1.2341 -34.5556 -0.1947 0.8708
1.2986 -12.0791 -0.0684 0.9526
3.7284 -12.6978 -0.0745 0.9484
4.1387 -12.4348 -0.0738 0.9489
42.4863 -17.5984 -0.2589 0.8320
32.5772 -4.6839 -0.1853 0.8766
-30.4738 -37.8157 -1.3675 0.8234
-25.6441 -36.9345 -1.2661 0.8353
-15.4864 -33.9104 -1.0497 0.8614
-11.0397 -33.1688 -0.9843 0.8695
-11.0937 -37.7816 -1.1088 0.8542
-7.1462 -32.8505 -0.9466 0.8741
-2.5153 -35.1684 -0.9928 0.8684
1.2342 -34.5570 -0.9737 0.8708
2.4545 -34.3191 -0.9688 0.8714
1.2983 -12.0757 -0.3420 0.9526
5.6012 -38.9569 -1.1082 0.8543
14.1872 -28.3424 -0.8925 0.8809
26.7030 -24.8614 -1.0273 0.8642
44.8762 -20.4943 -1.3892 0.8208
42.5213 -17.6129 -1.2960 0.8318
-46.3497 0.0000 -2.3506 0.8306
-44.9085 -1.6039 -2.2789 0.8353
-46.1171 -3.2983 -2.3448 0.8310
-48.7494 -5.2411 -2.4865 0.8217
-47.4105 -12.1008 -2.4815 0.8220
-46.8925 -13.7689 -2.4785 0.8222
-45.6837 -17.0391 -2.4727 0.8226
-44.2510 -20.2088 -2.4671 0.8230
-43.4532 -21.7511 -2.4644 0.8231
-39.1637 -23.2369 -2.3095 0.8333
-34.5818 -22.2244 -2.0847 0.8482
-36.3441 -27.2068 -2.3024 0.8337
-34.3768 -29.7876 -2.3068 0.8334
-19.2861 -19.2861 -1.3832 0.8965
-31.1303 -33.4363 -2.3169 0.8328
-29.9596 -34.5752 -2.3202 0.8326
-27.4925 -36.7256 -2.3266 0.8322
-25.6444 -36.9350 -2.2804 0.8352
-21.9159 -36.9373 -2.1782 0.8420
-14.5233 -35.0624 -1.9247 0.8590
-11.0399 -33.1695 -1.7729 0.8693
-11.0941 -37.7831 -1.9971 0.8541
-8.1688 -32.0051 -1.6752 0.8761
-7.1463 -32.8512 -1.7050 0.8740
-3.4261 -31.8669 -1.6254 0.8795
-0.0000 -29.8703 -1.5149 0.8872
1.2979 -12.0722 -0.6158 0.9525
6.3551 -29.2140 -1.5162 0.8871
8.2076 -32.1570 -1.6831 0.8755
3.7319 -12.7096 -0.6718 0.9483
4.1405 -12.4404 -0.6649 0.9488
17.9728 -43.3902 -2.3818 0.8285
14.1878 -28.3436 -1.6075 0.8808
22.5101 -41.2241 -2.3820 0.8285
23.9650 -40.3908 -2.3818 0.8285
25.3881 -39.5046 -2.3815 0.8285
26.7777 -38.5672 -2.3811 0.8286
28.1303 -37.5777 -2.3805 0.8286
21.5133 -26.6964 -1.7388 0.8717
21.5640 -24.8862 -1.6700 0.8764
21.9758 -23.6037 -1.6355 0.8788
22.6520 -22.6520 -1.6246 0.8796
23.5054 -21.8843 -1.6287 0.8793
25.9235 -20.8905 -1.6884 0.8752
38.3867 -26.6524 -2.3700 0.8293
37.6063 -22.3129 -2.2176 0.8393
40.9194 -22.3436 -2.3644 0.8297
41.6546 -20.8508 -2.3624 0.8298
42.3337 -19.3331 -2.3602 0.8299
42.5432 -17.6220 -2.3353 0.8316
22.8806 -7.6154 -1.2230 0.9079
36.5657 -7.9544 -1.8978 0.8608
32.5676 -4.6825 -1.6686 0.8765
41.9623 -3.0012 -2.1335 0.8449
42.4094 -1.5147 -2.1521 0.8437
-34.1308 0.0000 -2.5025 0.8721
-34.0798 -1.2171 -2.5004 0.8722
-33.9855 -2.4307 -2.4983 0.8723
-33.8481 -3.6390 -2.4961 0.8724
-33.1809 -7.2180 -2.4898 0.8727
-32.8747 -8.3907 -2.4877 0.8728
-32.5274 -9.5509 -2.4857 0.8729
-32.1395 -10.6970 -2.4836 0.8730
-31.7116 -11.8278 -2.4816 0.8731
-30.7384 -14.0378 -2.4777 0.8733
-25.2947 -18.9354 -2.3168 0.8810
-24.5862 -19.8128 -2.3152 0.8810
-19.5356 -18.1883 -1.9571 0.8985
-18.4558 -19.8229 -1.9859 0.8971
-18.9068 -25.2565 -2.3133 0.8811
-11.4857 -21.0344 -1.7572 0.9084
-7.2912 -14.5660 -1.1943 0.9368
-10.0393 -30.1633 -2.3309 0.8803
-5.6600 -31.3720 -2.3374 0.8800
-3.4117 -31.7331 -2.3402 0.8798
-0.0000 -29.8715 -2.1902 0.8871
1.1415 -31.9606 -2.3449 0.8796
2.2824 -31.9127 -2.3459 0.8796
1.2975 -12.0686 -0.8900 0.9525
2.0931 -11.6012 -0.8644 0.9538
2.5006 -11.4951 -0.8626 0.9539
7.9250 -31.0499 -2.3496 0.8794
4.1415 -12.4431 -0.9616 0.9488
11.2044 -30.0401 -2.3508 0.8793
12.2708 -29.6243 -2.3511 0.8793
14.1101 -28.1883 -2.3113 0.8812
16.3625 -27.5775 -2.3512 0.8793
17.3351 -26.9739 -2.3510 0.8793
18.2847 -26.3351 -2.3507 0.8793
21.8286 -23.4456 -2.3488 0.8794
23.4313 -21.8153 -2.3474 0.8795
24.1860 -20.9573 -2.3465 0.8795
25.5984 -19.1627 -2.3446 0.8796
13.1611 -9.1379 -1.1748 0.9378
26.8745 -17.2712 -2.3423 0.8797
28.0074 -15.2932 -2.3398 0.8799
28.5185 -14.2753 -2.3384 0.8799
24.4987 -11.1882 -1.9748 0.8976
22.8841 -7.6166 -1.7684 0.9078
30.5325 -8.9652 -2.3332 0.8802
30.8583 -7.8761 -2.3351 0.8801
31.6026 -4.5438 -2.3410 0.8798
34.0610 -1.2165 -2.4990 0.8722
-25.7324 -3.6998 -2.4958 0.9008
-25.5675 -4.6129 -2.4942 0.9009
-25.1410 -6.4168 -2.4910 0.9010
-24.8803 -7.3055 -2.4895 0.9010
-24.5883 -8.1838 -2.4879 0.9011
-23.5296 -10.7456 -2.4834 0.9013
-22.6765 -12.3823 -2.4805 0.9014
-22.2074 -13.1763 -2.4791 0.9014
-21.1875 -14.7108 -2.4763 0.9015
-20.6380 -15.4494 -2.4750 0.9016
-20.0631 -16.1678 -2.4737 0.9016
-19.4074 -16.8166 -2.4654 0.9020
-17.0865 -17.0865 -2.3199 0.9075
-15.8099 -18.2456 -2.3178 0.9075
-15.1422 -18.7903 -2.3168 0.9076
-14.4561 -19.3110 -2.3159 0.9076
-13.7523 -19.8071 -2.3150 0.9077
-13.0318 -20.2779 -2.3141 0.9077
-12.2955 -20.7230 -2.3133 0.9077
-7.2692 -14.5220 -1.5591 0.9368
-6.4000 -14.0141 -1.4791 0.9400
-5.9454 -14.3536 -1.4915 0.9395
-5.1173 -13.7199 -1.4058 0.9429
-7.6307 -22.9266 -2.3198 0.9075
-5.6465 -19.2301 -1.9241 0.9226
-4.2992 -23.8291 -2.3246 0.9073
-3.4476 -23.9787 -2.3257 0.9072
-2.5907 -24.0972 -2.3268 0.9072
-1.7297 -24.1847 -2.3278 0.9072
-0.8658 -24.2405 -2.3287 0.9071
-0.0000 -17.4121 -1.6716 0.9324
0.6214 -17.4001 -1.6716 0.9324
1.2971 -12.0652 -1.1650 0.9524
2.1004 -11.6418 -1.1357 0.9536
2.5094 -11.5353 -1.1333 0.9537
6.0123 -23.5559 -2.3340 0.9069
3.7353 -12.7214 -1.2729 0.9481
6.4632 -15.6036 -1.6214 0.9344
10.1046 -22.1260 -2.3352 0.9069
12.4119 -20.9191 -2.3352 0.9069
13.8704 -19.9771 -2.3349 0.9069
14.5730 -19.4672 -2.3346 0.9069
12.2916 -14.1852 -1.8020 0.9274
17.1827 -17.1826 -2.3329 0.9070
18.3552 -15.9048 -2.3317 0.9070
19.4311 -14.5460 -2.3303 0.9071
21.2891 -11.6248 -2.3287 0.9071
22.0897 -10.0880 -2.3314 0.9070
22.4114 -9.2831 -2.3289 0.9071
22.1359 -8.2563 -2.2682 0.9094
20.3583 -6.7759 -2.0599 0.9174
22.6330 -6.6457 -2.2646 0.9096
23.8170 -5.1811 -2.3400 0.9067
25.4857 -4.5981 -2.4863 0.9012
25.7217 -3.6982 -2.4948 0.9008
25.8541 -2.7796 -2.4964 0.9008
25.9537 -1.8563 -2.4981 0.9007
-21.0654 0.0000 -2.5023 0.9186
-21.0408 -0.7515 -2.5010 0.9187
-20.9895 -1.5012 -2.4996 0.9187
-20.6761 -3.7304 -2.4957 0.9189
-19.8939 -6.6213 -2.4906 0.9190
-19.6351 -7.3235 -2.4893 0.9190
-19.3517 -8.0157 -2.4881 0.9191
-18.7125 -9.3668 -2.4857 0.9192
-18.3576 -10.0240 -2.4845 0.9192
-17.9799 -10.6679 -2.4834 0.9192
-16.7144 -12.5122 -2.4801 0.9193
-16.2504 -13.0954 -2.4791 0.9194
-15.2625 -14.2099 -2.4771 0.9194
-13.1299 -15.1527 -2.3816 0.9224
-12.2711 -15.2275 -2.3230 0.9242
-9.9670 -16.7984 -2.3202 0.9243
-6.3840 -13.9789 -1.8255 0.9400
-5.4948 -18.7135 -2.3168 0.9244
-4.8227 -18.8950 -2.3164 0.9245
-3.4631 -19.1945 -2.3169 0.9244
-2.7768 -19.3133 -2.3177 0.9244
-1.3929 -19.4758 -2.3194 0.9244
-0.0000 -18.0099 -2.1393 0.9300
0.6444 -18.0444 -2.1448 0.9299
1.3946 -19.4987 -2.3221 0.9243
1.2968 -12.0616 -1.4410 0.9523
2.1005 -11.6423 -1.4053 0.9535
2.5094 -11.5357 -1.4023 0.9536
3.7371 -12.7274 -1.5757 0.9480
4.1433 -12.4487 -1.5585 0.9485
8.1324 -17.8074 -2.3254 0.9242
9.3822 -17.1823 -2.3255 0.9242
9.9893 -16.8360 -2.3254 0.9242
10.5833 -16.4680 -2.3253 0.9242
11.7293 -15.6685 -2.3249 0.9242
12.2797 -15.2382 -2.3247 0.9242
12.4106 -14.3226 -2.2512 0.9265
13.8399 -13.8399 -2.3250 0.9242
14.8033 -12.8271 -2.3267 0.9241
15.2577 -12.2955 -2.3277 0.9241
13.1643 -9.1401 -1.9037 0.9375
16.5056 -10.6075 -2.3306 0.9240
16.8811 -10.0161 -2.3316 0.9240
17.8799 -8.1655 -2.3349 0.9239
18.4348 -6.8758 -2.3371 0.9238
20.0842 -5.8973 -2.4864 0.9191
20.3296 -5.1888 -2.4923 0.9190
20.5123 -4.4622 -2.4936 0.9189
20.6692 -3.7291 -2.4949 0.9189
20.9824 -1.5007 -2.4988 0.9188
-17.6598 0.0000 -2.5022 0.9311
-17.6407 -0.6300 -2.5011 0.9312
-17.5992 -1.2587 -2.5000 0.9312
-17.5353 -1.8852 -2.4989 0.9312
-17.4491 -2.5088 -2.4978 0.9313
-17.3408 -3.1286 -2.4967 0.9313
-17.2106 -3.7439 -2.4956 0.9313
-16.8852 -4.9579 -2.4934 0.9314
-16.4746 -6.1447 -2.4913 0.9314
-15.7041 -7.8609 -2.4883 0.9315
-15.4074 -8.4131 -2.4873 0.9315
-14.7567 -9.4836 -2.4854 0.9316
-14.4035 -10.0005 -2.4845 0.9316
-13.6437 -10.9947 -2.4827 0.9317
-13.2380 -11.4708 -2.4819 0.9317
-12.3779 -12.3779 -2.4803 0.9317
-11.9245 -12.8078 -2.4795 0.9317
-10.9740 -13.6179 -2.4781 0.9318
-7.2695 -14.5226 -2.3011 0.9365
-6.3843 -13.9796 -2.1775 0.9398
-3.4827 -16.0099 -2.3215 0.9360
-2.9088 -16.1225 -2.3213 0.9360
-2.3313 -16.2148 -2.3211 0.9360
-1.7510 -16.2867 -2.3210 0.9360
1.1685 -16.3378 -2.3208 0.9360
1.2845 -11.9475 -1.7026 0.9526
4.0521 -15.8759 -2.3216 0.9359
3.7388 -12.7334 -1.8803 0.9478
4.3614 -11.6933 -1.7683 0.9508
7.8610 -14.3964 -2.3241 0.9359
8.8719 -13.8050 -2.3251 0.9359
9.3612 -13.4827 -2.3257 0.9358
10.3046 -12.7872 -2.3269 0.9358
10.7574 -12.4147 -2.3275 0.9358
11.6225 -11.6225 -2.3289 0.9358
12.4300 -10.7706 -2.3304 0.9357
13.1757 -9.8632 -2.3320 0.9357
14.1700 -8.4074 -2.3345 0.9356
15.0027 -7.5098 -2.3772 0.9345
16.2297 -6.7226 -2.4890 0.9315
16.6858 -5.5536 -2.4917 0.9314
16.8805 -4.9566 -2.4928 0.9314
17.3360 -3.1278 -2.4960 0.9313
17.6357 -0.6299 -2.5004 0.9312
-15.1383 -1.0827 -2.5002 0.9403
-15.0111 -2.1583 -2.4983 0.9404
-14.8078 -3.2212 -2.4965 0.9404
-14.5295 -4.2662 -2.4946 0.9405
-13.5171 -6.7662 -2.4902 0.9406
-13.2625 -7.2419 -2.4893 0.9406
-12.4002 -8.6096 -2.4869 0.9406
-12.0813 -9.0439 -2.4861 0.9407
-11.7472 -9.4665 -2.4854 0.9407
-11.3985 -9.8768 -2.4847 0.9407
-11.0356 -10.2745 -2.4839 0.9407
-9.8661 -11.3862 -2.4820 0.9408
-8.5864 -12.3668 -2.4802 0.9408
-7.6791 -12.9424 -2.4792 0.9408
-6.7031 -13.3910 -2.4670 0.9411
-5.4138 -13.0700 -2.3305 0.9443
-3.9776 -13.5464 -2.3258 0.9444
-3.0005 -13.7929 -2.3254 0.9444
-2.5061 -13.8902 -2.3252 0.9444
-2.0086 -13.9699 -2.3250 0.9444
-1.5086 -14.0319 -2.3249 0.9444
-0.5037 -14.1029 -2.3248 0.9444
-0.0000 -14.1117 -2.3248 0.9444
1.6894 -11.7503 -1.9556 0.9530
2.1007 -11.6432 -1.9491 0.9532
3.0686 -12.0227 -2.0441 0.9509
3.5001 -11.9204 -2.0467 0.9509
4.3692 -11.7144 -2.0597 0.9506
4.8091 -11.6101 -2.0702 0.9503
6.3234 -12.6325 -2.3272 0.9443
6.7714 -12.4009 -2.3276 0.9443
7.2110 -12.1536 -2.3281 0.9443
7.6417 -11.8908 -2.3285 0.9443
8.8748 -11.0130 -2.3300 0.9443
9.2645 -10.6918 -2.3306 0.9443
9.6426 -10.3569 -2.3312 0.9442
10.3624 -9.6477 -2.3324 0.9442
11.0305 -8.8889 -2.3337 0.9442
11.3677 -8.5098 -2.3393 0.9441
11.9912 -8.3257 -2.4049 0.9425
12.6535 -8.1319 -2.4779 0.9408
12.9780 -7.7002 -2.4860 0.9407
13.2596 -7.2403 -2.4888 0.9406
13.7516 -6.2802 -2.4905 0.9406
13.9719 -5.7873 -2.4914 0.9405
14.5260 -4.2652 -2.4940 0.9405
14.6744 -3.7454 -2.4949 0.9405
14.8042 -3.2205 -2.4959 0.9404
14.9153 -2.6910 -2.4968 0.9404
15.0075 -2.1577 -2.4977 0.9404
15.0806 -1.6213 -2.4987 0.9404
15.1694 -0.5418 -2.5006 0.9403
-13.2990 -0.4750 -2.5013 0.9473
-13.2224 -1.4215 -2.4996 0.9473
-13.1588 -1.8920 -2.4988 0.9473
-12.8685 -3.2845 -2.4963 0.9474
-12.2545 -5.0760 -2.4931 0.9474
-12.0618 -5.5084 -2.4924 0.9475
-11.8539 -5.9337 -2.4916 0.9475
-11.6311 -6.3511 -2.4909 0.9475
-11.3937 -6.7602 -2.4902 0.9475
-9.6807 -9.0131 -2.4861 0.9476
-7.9177 -10.5768 -2.4834 0.9476
-5.9087 -11.8041 -2.4811 0.9477
-5.4828 -12.0057 -2.4808 0.9477
-4.6110 -12.3625 -2.4800 0.9477
-4.1593 -12.4967 -2.4756 0.9478
-3.6921 -12.5740 -2.4632 0.9481
-3.1759 -12.4432 -2.4138 0.9491
-2.6794 -12.3168 -2.3692 0.9500
-1.7627 -12.2598 -2.3281 0.9508
-1.3239 -12.3143 -2.3280 0.9508
-0.4420 -12.3767 -2.3278 0.9508
0.4420 -12.3766 -2.3278 0.9508
0.8835 -12.3532 -2.3278 0.9508
1.2793 -11.8993 -2.2495 0.9525
1.6895 -11.7508 -2.2314 0.9528
2.1007 -11.6437 -2.2239 0.9530
2.5097 -11.5371 -2.2192 0.9531
3.4698 -11.8172 -2.3149 0.9511
4.3303 -11.6100 -2.3291 0.9508
4.7425 -11.4494 -2.3294 0.9508
5.5487 -11.0849 -2.3300 0.9508
5.9417 -10.8814 -2.3303 0.9508
6.7051 -10.4333 -2.3311 0.9508
7.0745 -10.1892 -2.3315 0.9508
7.7864 -9.6623 -2.3324 0.9507
8.1366 -9.3901 -2.3354 0.9507
8.6113 -9.2492 -2.3753 0.9499
9.1062 -9.1062 -2.4206 0.9489
9.6205 -8.9570 -2.4707 0.9479
10.3026 -8.3023 -2.4870 0.9476
11.8516 -5.9325 -2.4911 0.9475
12.0595 -5.5074 -2.4919 0.9475
13.0758 -2.3591 -2.4974 0.9474
13.2195 -1.4212 -2.4991 0.9473
13.2961 -0.4749 -2.5007 0.9473
-11.8369 0.0000 -2.5021 0.9528
-11.8259 -0.4224 -2.5013 0.9528
-11.7998 -0.8439 -2.5006 0.9528
-11.7586 -1.2642 -2.4999 0.9528
-11.7025 -1.6826 -2.4991 0.9528
-11.5459 -2.5116 -2.4977 0.9528
-11.3308 -3.3270 -2.4962 0.9529
-11.0583 -4.1245 -2.4948 0.9529
-10.7300 -4.9002 -2.4934 0.9529
-10.5454 -5.2786 -2.4928 0.9529
-10.3475 -5.6502 -2.4921 0.9529
-9.9130 -6.3707 -2.4908 0.9530
-9.6769 -6.7188 -2.4902 0.9530
-9.1685 -7.3885 -2.4890 0.9530
-8.3206 -8.3206 -2.4873 0.9530
-7.3791 -9.1569 -2.4858 0.9531
-5.9967 -10.1069 -2.4841 0.9531
-5.6313 -10.3130 -2.4838 0.9531
-5.2589 -10.5059 -2.4834 0.9531
-4.8799 -10.6855 -2.4831 0.9531
-3.3081 -11.2665 -2.4820 0.9531
-2.9037 -11.3764 -2.4818 0.9531
-1.2531 -11.6551 -2.4779 0.9532
1.2101 -11.2559 -2.3930 0.9548
1.6033 -11.1514 -2.3814 0.9550
1.9931 -11.0471 -2.3728 0.9551
2.3805 -10.9430 -2.3672 0.9552
3.1518 -10.7340 -2.3647 0.9553
3.5375 -10.6286 -2.3679 0.9552
4.3140 -10.4149 -2.3829 0.9550
5.5055 -10.0827 -2.4283 0.9541
5.9141 -9.9676 -2.4499 0.9537
7.3756 -9.1526 -2.4847 0.9531
7.7017 -8.8883 -2.4860 0.9531
8.0156 -8.6094 -2.4865 0.9530
8.8956 -7.7081 -2.4881 0.9530
9.6754 -6.7177 -2.4898 0.9530
9.9114 -6.3697 -2.4904 0.9530
10.1350 -6.0134 -2.4910 0.9530
10.3458 -5.6492 -2.4917 0.9530
10.5436 -5.2777 -2.4923 0.9529
10.7281 -4.8994 -2.4930 0.9529
11.0563 -4.1238 -2.4944 0.9529
11.1996 -3.7276 -2.4950 0.9529
11.3287 -3.3264 -2.4958 0.9529
11.4435 -2.9208 -2.4965 0.9529
11.5438 -2.5112 -2.4972 0.9528
11.7564 -1.2639 -2.4994 0.9528
-10.6461 0.0000 -2.5021 0.9572
-10.6364 -0.3799 -2.5014 0.9572
-10.6132 -0.7591 -2.5007 0.9572
-10.5766 -1.1371 -2.5001 0.9572
-10.3862 -2.2594 -2.4981 0.9573
-10.0773 -3.3540 -2.4961 0.9573
-9.9487 -3.7107 -2.4955 0.9573
-9.8074 -4.0624 -2.4949 0.9573
-9.3102 -5.0838 -2.4931 0.9573
-9.1207 -5.4116 -2.4925 0.9574
-8.9197 -5.7323 -2.4919 0.9574
-8.7075 -6.0457 -2.4914 0.9574
-8.0062 -6.9374 -2.4898 0.9574
-6.9321 -8.0001 -2.4879 0.9574
-6.6410 -8.2410 -2.4874 0.9574
-6.3416 -8.4714 -2.4870 0.9575
-6.0342 -8.6910 -2.4866 0.9575
-5.7193 -8.8995 -2.4863 0.9575
-5.0685 -9.2822 -2.4856 0.9575
-4.3923 -9.6178 -2.4850 0.9575
-3.3381 -10.0292 -2.4842 0.9575
-1.1295 -10.5058 -2.4833 0.9575
-0.7538 -10.5392 -2.4833 0.9575
-0.3771 -10.5592 -2.4832 0.9575
0.7538 -10.5390 -2.4832 0.9575
1.5038 -10.4589 -2.4834 0.9575
1.8762 -10.3990 -2.4835 0.9575
2.2463 -10.3259 -2.4836 0.9575
2.6135 -10.2398 -2.4837 0.9575
2.9776 -10.1407 -2.4839 0.9575
3.6940 -9.9040 -2.4843 0.9575
4.0455 -9.7668 -2.4845 0.9575
4.3920 -9.6171 -2.4848 0.9575
4.7330 -9.4553 -2.4851 0.9575
5.0681 -9.2815 -2.4854 0.9575
5.7188 -8.8987 -2.4860 0.9575
6.0337 -8.6901 -2.4864 0.9575
6.3410 -8.4705 -2.4868 0.9575
7.4870 -7.4870 -2.4885 0.9574
7.7510 -7.2164 -2.4890 0.9574
8.0052 -6.9365 -2.4895 0.9574
8.9184 -5.7315 -2.4916 0.9574
9.3088 -5.0830 -2.4927 0.9574
9.6523 -4.4081 -2.4939 0.9573
10.0757 -3.3535 -2.4957 0.9573
10.1915 -2.9925 -2.4964 0.9573
10.3844 -2.2590 -2.4977 0.9573
10.4612 -1.8874 -2.4983 0.9573
10.6346 -0.3798 -2.5010 0.9572
-9.6635 0.0000 -2.5020 0.9609
-9.6342 -0.6890 -2.5008 0.9609
-9.6011 -1.0322 -2.5002 0.9609
-9.5558 -1.3739 -2.4996 0.9609
-9.3475 -2.3858 -2.4978 0.9609
-9.2542 -2.7173 -2.4972 0.9609
-9.1492 -3.0452 -2.4967 0.9609
-9.0326 -3.3690 -2.4961 0.9609
-8.7653 -4.0030 -2.4950 0.9610
-8.4537 -4.6161 -2.4939 0.9610
-8.2818 -4.9138 -2.4934 0.9610
-7.9069 -5.4899 -2.4923 0.9610
-7.7044 -5.7675 -2.4918 0.9610
-7.4922 -6.0376 -2.4914 0.9610
-7.2706 -6.3000 -2.4909 0.9610
-6.8002 -6.8002 -2.4900 0.9610
-6.2956 -7.2656 -2.4892 0.9611
-6.0314 -7.4845 -2.4888 0.9611
-5.7595 -7.6938 -2.4884 0.9611
-5.4804 -7.8933 -2.4880 0.9611
-5.1945 -8.0828 -2.4877 0.9611
-4.9021 -8.2620 -2.4874 0.9611
-4.6035 -8.4307 -2.4871 0.9611
-4.2992 -8.5886 -2.4868 0.9611
-3.9894 -8.7357 -2.4865 0.9611
-3.6747 -8.8716 -2.4863 0.9611
-3.0320 -9.1096 -2.4858 0.9611
-2.3740 -9.3013 -2.4855 0.9611
-1.7042 -9.4460 -2.4852 0.9611
-1.3659 -9.5004 -2.4851 0.9611
-0.3426 -9.5913 -2.4849 0.9611
0.3425 -9.5912 -2.4849 0.9611
0.6847 -9.5730 -2.4849 0.9611
1.7042 -9.4457 -2.4852 0.9611
2.3739 -9.3010 -2.4854 0.9611
3.0318 -9.1091 -2.4857 0.9611
3.6745 -8.8711 -2.4861 0.9611
4.6032 -8.4300 -2.4869 0.9611
4.9017 -8.2613 -2.4872 0.9611
5.1941 -8.0821 -2.4875 0.9611
5.7590 -7.6931 -2.4882 0.9611
6.0308 -7.4837 -2.4885 0.9611
6.2950 -7.2648 -2.4889 0.9611
6.5513 -7.0366 -2.4893 0.9611
6.7994 -6.7994 -2.4897 0.9610
7.4913 -6.0369 -2.4911 0.9610
7.7035 -5.7667 -2.4915 0.9610
8.4526 -4.6155 -2.4935 0.9610
8.7641 -4.0024 -2.4946 0.9610
9.1479 -3.0447 -2.4963 0.9609
9.3461 -2.3854 -2.4975 0.9609
9.4275 -2.0508 -2.4980 0.9609
9.4970 -1.7134 -2.4986 0.9609
9.5996 -1.0321 -2.4998 0.9609
-8.8118 -0.6302 -2.5009 0.9639
-8.6881 -1.5675 -2.4993 0.9640
-8.6248 -1.8762 -2.4987 0.9640
-8.5505 -2.1824 -2.4982 0.9640
-8.4653 -2.4856 -2.4976 0.9640
-8.3694 -2.7856 -2.4971 0.9640
-8.2629 -3.0819 -2.4966 0.9640
-8.0187 -3.6620 -2.4956 0.9640
-7.8813 -3.9451 -2.4951 0.9640
-5.2701 -7.0400 -2.4895 0.9641
-4.7532 -7.3961 -2.4889 0.9641
-4.2125 -7.7146 -2.4883 0.9641
-3.9341 -7.8592 -2.4881 0.9641
-3.6507 -7.9939 -2.4878 0.9641
-3.3627 -8.1183 -2.4876 0.9641
-2.7746 -8.3362 -2.4872 0.9641
-2.4751 -8.4293 -2.4870 0.9641
-2.1725 -8.5118 -2.4869 0.9641
-1.5596 -8.6442 -2.4866 0.9641
-0.9389 -8.7329 -2.4865 0.9641
-0.3135 -8.7773 -2.4864 0.9641
0.3135 -8.7772 -2.4864 0.9641
0.9389 -8.7327 -2.4864 0.9641
1.2500 -8.6939 -2.4865 0.9641
1.5596 -8.6440 -2.4866 0.9641
2.1724 -8.5115 -2.4868 0.9641
3.9338 -7.8587 -2.4879 0.9641
4.4853 -7.5596 -2.4884 0.9641
4.7528 -7.3956 -2.4887 0.9641
5.0144 -7.2221 -2.4890 0.9641
5.5183 -6.8478 -2.4897 0.9641
5.7600 -6.6474 -2.4900 0.9641
5.9944 -6.4385 -2.4904 0.9641
6.2214 -6.2214 -2.4908 0.9641
6.6515 -5.7635 -2.4915 0.9641
6.8541 -5.5234 -2.4920 0.9641
7.0481 -5.2762 -2.4924 0.9641
7.4092 -4.7616 -2.4933 0.9640
7.5759 -4.4950 -2.4938 0.9640
7.8803 -3.9446 -2.4947 0.9640
8.0177 -3.6615 -2.4952 0.9640
8.2618 -3.0815 -2.4962 0.9640
8.4641 -2.4853 -2.4973 0.9640
8.6236 -1.8759 -2.4984 0.9640
8.7392 -1.2565 -2.4995 0.9640
8.7804 -0.9440 -2.5000 0.9640
8.8105 -0.6301 -2.5006 0.9639
-8.1346 0.0000 -2.5020 0.9665
-8.1277 -0.2903 -2.5015 0.9665
-8.1105 -0.5801 -2.5010 0.9665
-8.0452 -1.1567 -2.5000 0.9666
-7.9390 -1.7270 -2.4990 0.9666
-7.7043 -2.5642 -2.4975 0.9666
-7.4989 -3.1061 -2.4965 0.9666
-7.2555 -3.6318 -2.4956 0.9666
-7.1199 -3.8878 -2.4951 0.9666
-6.8220 -4.3842 -2.4943 0.9666
-6.1246 -5.3070 -2.4926 0.9667
-5.7287 -5.7287 -2.4919 0.9667
-5.5197 -5.9286 -2.4915 0.9667
-5.3039 -6.1210 -2.4912 0.9667
-5.0814 -6.3056 -2.4908 0.9667
-4.6174 -6.6504 -2.4902 0.9667
-4.1303 -6.9613 -2.4897 0.9667
-3.0964 -7.4754 -2.4887 0.9667
-2.2791 -7.7620 -2.4882 0.9667
-2.0005 -7.8379 -2.4881 0.9667
-1.4361 -7.9599 -2.4878 0.9667
-0.8646 -8.0416 -2.4877 0.9667
-0.5770 -8.0672 -2.4876 0.9667
-0.2887 -8.0825 -2.4876 0.9667
0.5770 -8.0671 -2.4876 0.9667
0.8646 -8.0415 -2.4876 0.9667
1.4361 -7.9598 -2.4878 0.9667
2.2790 -7.7617 -2.4881 0.9667
2.5548 -7.6758 -2.4883 0.9667
2.8273 -7.5803 -2.4884 0.9667
3.3614 -7.3604 -2.4888 0.9667
3.6222 -7.2363 -2.4890 0.9667
3.8786 -7.1031 -2.4892 0.9667
4.3763 -6.8097 -2.4897 0.9667
4.8521 -6.4816 -2.4903 0.9667
5.0809 -6.3051 -2.4906 0.9667
5.5193 -5.9281 -2.4913 0.9667
5.7281 -5.7281 -2.4916 0.9667
6.3105 -5.0853 -2.4928 0.9667
6.6593 -4.6236 -2.4936 0.9666
6.9746 -4.1382 -2.4944 0.9666
7.1191 -3.8873 -2.4948 0.9666
7.3809 -3.3708 -2.4958 0.9666
7.4979 -3.1057 -2.4962 0.9666
7.8697 -2.0086 -2.4981 0.9666
7.9961 -1.4427 -2.4991 0.9666
8.0441 -1.1566 -2.4996 0.9666
8.1095 -0.5800 -2.5007 0.9665
8.1266 -0.2902 -2.5012 0.9665
-7.5270 0.0000 -2.5020 0.9688
-7.5207 -0.2686 -2.5015 0.9688
-7.4447 -1.0704 -2.5001 0.9688
-7.4004 -1.3352 -2.4996 0.9688
-7.2836 -1.8590 -2.4987 0.9688
-6.3139 -4.0577 -2.4948 0.9689
-6.0065 -4.4964 -2.4940 0.9689
-5.6687 -4.9120 -2.4933 0.9689
-4.9093 -5.6657 -2.4920 0.9689
-4.4915 -6.0000 -2.4914 0.9689
-4.0512 -6.3038 -2.4908 0.9689
-2.3650 -7.1057 -2.4894 0.9689
-1.8519 -7.2555 -2.4891 0.9689
-0.8003 -7.4441 -2.4887 0.9689
-0.2672 -7.4820 -2.4887 0.9689
0.5341 -7.4678 -2.4887 0.9689
0.8003 -7.4440 -2.4887 0.9689
1.3294 -7.3683 -2.4888 0.9689
1.5916 -7.3165 -2.4889 0.9689
2.3649 -7.1054 -2.4893 0.9689
2.6172 -7.0169 -2.4894 0.9689
3.3530 -6.6984 -2.4900 0.9689
3.8230 -6.4433 -2.4904 0.9689
4.9089 -5.6652 -2.4918 0.9689
5.6682 -4.9115 -2.4931 0.9689
5.8407 -4.7068 -2.4934 0.9689
6.0059 -4.4960 -2.4938 0.9689
6.1635 -4.2794 -2.4942 0.9689
6.3133 -4.0573 -2.4946 0.9689
6.9391 -2.8743 -2.4966 0.9688
7.0385 -2.6252 -2.4971 0.9688
7.1290 -2.3727 -2.4975 0.9688
7.2104 -2.1172 -2.4980 0.9688
7.2827 -1.8588 -2.4984 0.9688
7.4438 -1.0703 -2.4998 0.9688
7.5040 -0.5367 -2.5008 0.9688
7.5198 -0.2686 -2.5012 0.9688
-6.9965 0.0000 -2.5020 0.9707
-6.9908 -0.2497 -2.5016 0.9707
-6.9762 -0.4989 -2.5011 0.9707
-6.9527 -0.7475 -2.5007 0.9707
-6.9204 -0.9950 -2.5002 0.9707
-6.8793 -1.2412 -2.4998 0.9707
-6.8294 -1.4856 -2.4994 0.9707
-6.7709 -1.7282 -2.4989 0.9708
-6.7037 -1.9684 -2.4985 0.9708
-6.4517 -2.6724 -2.4973 0.9708
-6.2426 -3.1248 -2.4965 0.9708
-6.0019 -3.5611 -2.4957 0.9708
-5.4309 -4.3765 -2.4942 0.9708
-5.2705 -4.5669 -2.4939 0.9708
-4.9300 -4.9300 -2.4933 0.9708
-4.3732 -5.4268 -2.4924 0.9708
-4.1763 -5.5788 -2.4921 0.9708
-3.7669 -5.8613 -2.4916 0.9708
-3.5549 -5.9915 -2.4914 0.9708
-3.3385 -6.1140 -2.4911 0.9708
-3.1179 -6.2287 -2.4909 0.9708
-2.6652 -6.4344 -2.4906 0.9708
-2.1991 -6.6073 -2.4902 0.9709
-0.9908 -6.8913 -2.4897 0.9709
-0.7442 -6.9221 -2.4897 0.9709
-0.4967 -6.9441 -2.4896 0.9709
-0.2485 -6.9573 -2.4896 0.9709
0.4966 -6.9441 -2.4896 0.9709
0.9908 -6.8912 -2.4897 0.9709
1.7219 -6.7464 -2.4899 0.9709
1.9617 -6.6810 -2.4900 0.9709
2.1990 -6.6070 -2.4902 0.9709
2.4336 -6.5247 -2.4903 0.9709
2.6651 -6.4341 -2.4904 0.9708
3.1177 -6.2284 -2.4908 0.9708
3.5547 -5.9911 -2.4912 0.9708
3.7666 -5.8610 -2.4914 0.9708
3.9738 -5.7233 -2.4917 0.9708
4.1760 -5.5784 -2.4919 0.9708
4.3729 -5.4264 -2.4922 0.9708
4.5643 -5.2675 -2.4925 0.9708
4.7499 -5.1018 -2.4928 0.9708
4.9296 -4.9296 -2.4931 0.9708
5.2700 -4.5665 -2.4937 0.9708
5.4304 -4.3761 -2.4940 0.9708
5.8696 -3.7721 -2.4951 0.9708
6.5434 -2.4405 -2.4974 0.9708
6.6274 -2.2058 -2.4978 0.9708
6.7030 -1.9682 -2.4982 0.9708
6.8287 -1.4855 -2.4991 0.9707
6.8785 -1.2410 -2.4995 0.9707
6.9519 -0.7474 -2.5004 0.9707
6.9754 -0.4989 -2.5008 0.9707
6.9900 -0.2496 -2.5013 0.9707
-6.5289 0.0000 -2.5020 0.9724
-6.4883 -0.6976 -2.5008 0.9724
-6.3189 -1.6128 -2.4991 0.9725
-6.1858 -2.0588 -2.4983 0.9725
-6.1074 -2.2779 -2.4980 0.9725
-5.8262 -2.9164 -2.4968 0.9725
-5.6017 -3.3237 -2.4961 0.9725
-5.3489 -3.7138 -2.4954 0.9725
-5.2122 -3.9018 -2.4951 0.9725
-4.7634 -4.4349 -2.4941 0.9725
-4.6016 -4.6016 -2.4938 0.9725
-4.2606 -4.9170 -2.4933 0.9725
-3.8982 -5.2073 -2.4927 0.9725
-3.5161 -5.4711 -2.4923 0.9725
-3.3183 -5.5926 -2.4921 0.9725
-3.1163 -5.7070 -2.4918 0.9725
-2.9104 -5.8142 -2.4917 0.9725
-2.7008 -5.9139 -2.4915 0.9725
-2.4878 -6.0062 -2.4913 0.9725
-2.0528 -6.1676 -2.4910 0.9725
-1.6074 -6.2977 -2.4908 0.9725
-1.3815 -6.3508 -2.4907 0.9725
-1.1539 -6.3959 -2.4906 0.9725
-0.6947 -6.4616 -2.4905 0.9725
-0.2320 -6.4945 -2.4904 0.9725
-0.0000 -6.4986 -2.4904 0.9725
0.9249 -6.4327 -2.4905 0.9725
1.1539 -6.3958 -2.4905 0.9725
1.6074 -6.2976 -2.4907 0.9725
2.2716 -6.0905 -2.4911 0.9725
2.7007 -5.9137 -2.4914 0.9725
3.1161 -5.7068 -2.4917 0.9725
3.7092 -5.3423 -2.4924 0.9725
3.8979 -5.2070 -2.4926 0.9725
4.0817 -5.0651 -2.4928 0.9725
4.4336 -4.7620 -2.4934 0.9725
4.7631 -4.4346 -2.4939 0.9725
4.9189 -4.2623 -2.4942 0.9725
5.0685 -4.0845 -2.4945 0.9725
5.3484 -3.7135 -2.4952 0.9725
5.6012 -3.3234 -2.4959 0.9725
5.9269 -2.7067 -2.4970 0.9725
6.0207 -2.4938 -2.4973 0.9725
6.1068 -2.2777 -2.4977 0.9725
6.1851 -2.0586 -2.4981 0.9725
6.2556 -1.8368 -2.4985 0.9725
6.3182 -1.6126 -2.4989 0.9725
6.4575 -0.9285 -2.5001 0.9724
6.4876 -0.6975 -2.5005 0.9724
6.5230 -0.2330 -2.5013 0.9724
-6.1084 -0.2181 -2.5016 0.9739
-6.0754 -0.6532 -2.5008 0.9739
-6.0473 -0.8695 -2.5004 0.9739
-5.9680 -1.2983 -2.4997 0.9739
-5.9170 -1.5102 -2.4993 0.9740
-5.8584 -1.7202 -2.4989 0.9740
-5.7925 -1.9279 -2.4986 0.9740
-5.6385 -2.3356 -2.4978 0.9740
-5.3543 -2.9237 -2.4968 0.9740
-5.0091 -3.4779 -2.4958 0.9740
-4.8812 -3.6540 -2.4955 0.9740
-4.3095 -4.3095 -2.4943 0.9740
-4.1525 -4.4601 -2.4941 0.9740
-3.9902 -4.6050 -2.4938 0.9740
-3.8229 -4.7440 -2.4936 0.9740
-3.6508 -4.8769 -2.4933 0.9740
-3.1078 -5.2379 -2.4927 0.9740
-2.9186 -5.3450 -2.4925 0.9740
-2.7258 -5.4454 -2.4923 0.9740
-2.1277 -5.7045 -2.4918 0.9740
-1.9226 -5.7765 -2.4917 0.9740
-1.5055 -5.8984 -2.4915 0.9740
-1.2940 -5.9482 -2.4914 0.9740
-0.4342 -6.0712 -2.4911 0.9740
-0.2172 -6.0828 -2.4911 0.9740
-0.0000 -6.0866 -2.4911 0.9740
0.2172 -6.0828 -2.4911 0.9740
0.4342 -6.0712 -2.4911 0.9740
1.5055 -5.8983 -2.4914 0.9740
1.7151 -5.8410 -2.4915 0.9740
1.9226 -5.7763 -2.4916 0.9740
2.5294 -5.5386 -2.4920 0.9740
2.7257 -5.4452 -2.4922 0.9740
2.9185 -5.3448 -2.4924 0.9740
3.1076 -5.2376 -2.4925 0.9740
3.6506 -4.8767 -2.4932 0.9740
4.3092 -4.3092 -2.4942 0.9740
4.4607 -4.1531 -2.4944 0.9740
4.6066 -3.9917 -2.4947 0.9740
4.7467 -3.8252 -2.4950 0.9740
4.8808 -3.6537 -2.4953 0.9740
5.1303 -3.2971 -2.4959 0.9740
5.4555 -2.7308 -2.4969 0.9740
5.5503 -2.5347 -2.4973 0.9740
5.6380 -2.3353 -2.4976 0.9740
5.7186 -2.1329 -2.4980 0.9740
5.9674 -1.2981 -2.4994 0.9740
6.0109 -1.0845 -2.4998 0.9739
6.1077 -0.2181 -2.5013 0.9739
-5.7364 -0.2049 -2.5016 0.9753
-5.7246 -0.4094 -2.5012 0.9753
-5.6792 -0.8165 -2.5005 0.9753
-5.6456 -1.0186 -2.5002 0.9753
-5.5570 -1.4183 -2.4995 0.9753
-5.5020 -1.6155 -2.4991 0.9753
-5.2133 -2.3808 -2.4978 0.9753
-4.7048 -3.2666 -2.4962 0.9753
-4.1901 -3.9011 -2.4951 0.9753
-3.9003 -4.1892 -2.4945 0.9753
-3.7479 -4.3254 -2.4943 0.9753
-3.4292 -4.5809 -2.4938 0.9753
-3.2632 -4.6999 -2.4936 0.9753
-3.0931 -4.8130 -2.4934 0.9753
-2.9192 -4.9200 -2.4932 0.9753
-2.7415 -5.0207 -2.4930 0.9753
-2.5604 -5.1150 -2.4929 0.9754
-2.1887 -5.2840 -2.4926 0.9754
-0.8137 -5.6595 -2.4919 0.9754
-0.4079 -5.7030 -2.4918 0.9754
-0.2041 -5.7138 -2.4918 0.9754
-0.0000 -5.7175 -2.4918 0.9754
1.0152 -5.6269 -2.4919 0.9754
1.8059 -5.4259 -2.4922 0.9754
1.9985 -5.3583 -2.4924 0.9754
2.5603 -5.1148 -2.4928 0.9754
2.7414 -5.0205 -2.4929 0.9753
3.0930 -4.8128 -2.4933 0.9753
3.4290 -4.5806 -2.4937 0.9753
3.5906 -4.4557 -2.4939 0.9753
3.7477 -4.3251 -2.4941 0.9753
3.9001 -4.1890 -2.4944 0.9753
4.0475 -4.0475 -2.4946 0.9753
4.3268 -3.7492 -2.4951 0.9753
4.4584 -3.5928 -2.4954 0.9753
4.8186 -3.0967 -2.4963 0.9753
4.9266 -2.9231 -2.4966 0.9753
5.0284 -2.7457 -2.4969 0.9753
5.2129 -2.3806 -2.4975 0.9753
5.2952 -2.1933 -2.4979 0.9753
5.5015 -1.6154 -2.4989 0.9753
5.6043 -1.2191 -2.4996 0.9753
5.7359 -0.2048 -2.5014 0.9753
-5.3899 -0.3855 -2.5013 0.9765
-5.3720 -0.5775 -2.5009 0.9765
-5.3472 -0.7688 -2.5006 0.9765
-5.2773 -1.1480 -2.4999 0.9765
-5.1224 -1.7049 -2.4989 0.9765
-4.9089 -2.2418 -2.4980 0.9765
-4.6395 -2.7527 -2.4971 0.9765
-4.5377 -2.9162 -2.4968 0.9765
-4.1986 -3.3834 -2.4960 0.9765
-3.9457 -3.6736 -2.4955 0.9765
-3.6729 -3.9449 -2.4950 0.9765
-3.5294 -4.0731 -2.4947 0.9765
-3.3815 -4.1961 -2.4945 0.9765
-3.2293 -4.3138 -2.4943 0.9765
-3.0730 -4.4260 -2.4941 0.9765
-2.7490 -4.6332 -2.4937 0.9765
-2.4112 -4.8169 -2.4934 0.9765
-2.0611 -4.9760 -2.4931 0.9765
-1.8821 -5.0462 -2.4930 0.9765
-1.3318 -5.2178 -2.4927 0.9765
-0.9561 -5.2992 -2.4925 0.9765
-0.5756 -5.3537 -2.4924 0.9765
-0.3841 -5.3707 -2.4924 0.9765
-0.0000 -5.3844 -2.4924 0.9765
0.5756 -5.3536 -2.4924 0.9765
0.9561 -5.2991 -2.4925 0.9765
1.1446 -5.2618 -2.4925 0.9765
1.5172 -5.1670 -2.4927 0.9765
1.8821 -5.0460 -2.4929 0.9765
2.0611 -4.9759 -2.4930 0.9765
2.5816 -4.7279 -2.4935 0.9765
2.7489 -4.6330 -2.4936 0.9765
2.9127 -4.5323 -2.4938 0.9765
3.0728 -4.4257 -2.4940 0.9765
3.3813 -4.1959 -2.4944 0.9765
3.5292 -4.0729 -2.4946 0.9765
3.6726 -3.9447 -2.4948 0.9765
3.8115 -3.8115 -2.4951 0.9765
4.6391 -2.7525 -2.4969 0.9765
4.7349 -2.5855 -2.4972 0.9765
5.0572 -1.8862 -2.4984 0.9765
5.1219 -1.7048 -2.4987 0.9765
5.1802 -1.5210 -2.4991 0.9765
5.2319 -1.3354 -2.4994 0.9765
5.2769 -1.1479 -2.4997 0.9765
5.3152 -0.9590 -2.5001 0.9765
5.3715 -0.5775 -2.5007 0.9765
5.4005 -0.1929 -2.5014 0.9765
-5.1006 0.0000 -2.5020 0.9775
-5.0863 -0.3638 -2.5013 0.9775
-5.0694 -0.5450 -2.5010 0.9775
-5.0461 -0.7255 -2.5007 0.9775
-5.0163 -0.9050 -2.5004 0.9775
-4.9377 -1.2603 -2.4997 0.9776
-4.8341 -1.6089 -2.4991 0.9776
-4.7730 -1.7802 -2.4988 0.9776
-4.5537 -2.2794 -2.4979 0.9776
-4.4689 -2.4402 -2.4976 0.9776
-4.3785 -2.5979 -2.4974 0.9776
-4.1811 -2.9030 -2.4968 0.9776
-3.9625 -3.1932 -2.4963 0.9776
-3.7239 -3.4671 -2.4958 0.9776
-3.5975 -3.5975 -2.4956 0.9776
-3.4665 -3.7232 -2.4954 0.9776
-3.3311 -3.8443 -2.4951 0.9776
-3.0478 -4.0714 -2.4947 0.9776
-2.5946 -4.3730 -2.4942 0.9776
-2.4367 -4.4625 -2.4940 0.9776
-1.9454 -4.6966 -2.4936 0.9776
-1.7764 -4.7628 -2.4935 0.9776
-1.6052 -4.8230 -2.4934 0.9776
-1.4320 -4.8770 -2.4933 0.9776
-1.0804 -4.9664 -2.4931 0.9776
-0.9024 -5.0017 -2.4930 0.9776
-0.7233 -5.0306 -2.4930 0.9776
-0.3626 -5.0692 -2.4929 0.9776
0.1814 -5.0789 -2.4929 0.9776
0.5433 -5.0531 -2.4929 0.9776
0.7233 -5.0305 -2.4930 0.9776
0.9024 -5.0016 -2.4930 0.9776
1.0804 -4.9663 -2.4931 0.9776
1.2570 -4.9247 -2.4931 0.9776
1.7764 -4.7627 -2.4934 0.9776
2.2757 -4.5462 -2.4938 0.9776
2.4366 -4.4623 -2.4939 0.9776
2.7491 -4.2777 -2.4942 0.9776
3.5973 -3.5972 -2.4954 0.9776
3.7237 -3.4669 -2.4957 0.9776
3.8454 -3.3321 -2.4959 0.9776
4.1808 -2.9028 -2.4966 0.9776
4.2822 -2.7520 -2.4969 0.9776
4.3782 -2.5977 -2.4972 0.9776
4.7055 -1.9491 -2.4983 0.9776
4.7726 -1.7801 -2.4986 0.9776
4.8337 -1.6088 -2.4989 0.9776
4.9374 -1.2602 -2.4995 0.9776
5.0159 -0.9050 -2.5002 0.9775
5.0457 -0.7255 -2.5005 0.9775
5.0690 -0.5450 -2.5008 0.9775
-4.8228 0.0000 -2.5019 0.9785
-4.8191 -0.1721 -2.5016 0.9785
-4.8093 -0.3440 -2.5013 0.9785
-4.7714 -0.6860 -2.5007 0.9785
-4.6690 -1.1917 -2.4998 0.9785
-4.6230 -1.3574 -2.4996 0.9785
-4.5710 -1.5214 -2.4993 0.9785
-4.5133 -1.6834 -2.4990 0.9785
-4.4498 -1.8432 -2.4987 0.9785
-4.3807 -2.0006 -2.4984 0.9785
-4.3061 -2.1555 -2.4981 0.9785
-4.1404 -2.4566 -2.4976 0.9785
-3.8529 -2.8843 -2.4968 0.9785
-3.4020 -3.4020 -2.4959 0.9786
-3.2781 -3.5209 -2.4957 0.9786
-3.1501 -3.6354 -2.4955 0.9786
-2.7428 -3.9504 -2.4949 0.9786
-2.4537 -4.1355 -2.4946 0.9786
-2.3044 -4.2202 -2.4945 0.9786
-2.1522 -4.2995 -2.4943 0.9786
-1.9972 -4.3733 -2.4942 0.9786
-1.3543 -4.6122 -2.4937 0.9786
-1.1887 -4.6575 -2.4937 0.9786
-0.8534 -4.7301 -2.4935 0.9786
-0.3429 -4.7940 -2.4934 0.9786
-0.1715 -4.8032 -2.4934 0.9786
-0.0000 -4.8062 -2.4934 0.9786
0.1715 -4.8032 -2.4934 0.9786
0.6840 -4.7574 -2.4934 0.9786
0.8534 -4.7301 -2.4935 0.9786
1.1887 -4.6574 -2.4936 0.9786
1.3542 -4.6121 -2.4937 0.9786
1.5180 -4.5610 -2.4938 0.9786
1.6799 -4.5041 -2.4939 0.9786
1.8397 -4.4415 -2.4940 0.9786
2.3043 -4.2200 -2.4944 0.9786
2.7427 -3.9502 -2.4948 0.9786
3.0180 -3.7451 -2.4952 0.9786
3.7469 -3.0195 -2.4964 0.9785
3.8527 -2.8841 -2.4967 0.9785
4.0494 -2.6024 -2.4972 0.9785
4.3058 -2.1553 -2.4980 0.9785
4.3804 -2.0005 -2.4982 0.9785
4.4495 -1.8431 -2.4985 0.9785
4.5130 -1.6833 -2.4988 0.9785
4.5707 -1.5213 -2.4991 0.9785
4.7930 -0.5153 -2.5008 0.9785
-4.5403 -0.4881 -2.5011 0.9794
-4.4929 -0.8106 -2.5005 0.9794
-4.4606 -0.9703 -2.5002 0.9794
-4.3790 -1.2858 -2.4997 0.9794
-4.3299 -1.4411 -2.4994 0.9794
-4.2151 -1.7460 -2.4989 0.9794
-4.0790 -2.0418 -2.4983 0.9794
-3.9221 -2.3271 -2.4978 0.9794
-3.8362 -2.4654 -2.4976 0.9794
-3.7454 -2.6005 -2.4973 0.9794
-3.6498 -2.7322 -2.4971 0.9794
-3.5497 -2.8605 -2.4969 0.9794
-3.1054 -3.3354 -2.4960 0.9794
-2.9841 -3.4439 -2.4958 0.9794
-2.8591 -3.5479 -2.4957 0.9794
-2.7305 -3.6475 -2.4955 0.9794
-2.5984 -3.7423 -2.4953 0.9794
-2.4630 -3.8325 -2.4951 0.9794
-2.3245 -3.9177 -2.4950 0.9794
-2.1830 -3.9979 -2.4948 0.9794
-1.7429 -4.2077 -2.4945 0.9794
-1.5915 -4.2671 -2.4944 0.9794
-1.4382 -4.3210 -2.4943 0.9794
-1.2830 -4.3694 -2.4942 0.9794
-1.1262 -4.4123 -2.4941 0.9794
-0.4867 -4.5272 -2.4939 0.9794
-0.0000 -4.5532 -2.4938 0.9794
0.1625 -4.5503 -2.4938 0.9794
1.1261 -4.4122 -2.4940 0.9794
1.4381 -4.3209 -2.4942 0.9794
1.5915 -4.2670 -2.4943 0.9794
1.7428 -4.2076 -2.4944 0.9794
1.8920 -4.1429 -2.4945 0.9794
2.0388 -4.0729 -2.4946 0.9794
2.1829 -3.9978 -2.4948 0.9794
2.3244 -3.9175 -2.4949 0.9794
2.4629 -3.8323 -2.4950 0.9794
2.7303 -3.6473 -2.4954 0.9794
2.9840 -3.4437 -2.4957 0.9794
3.2226 -3.2226 -2.4961 0.9794
3.7452 -2.6003 -2.4972 0.9794
3.8360 -2.4652 -2.4974 0.9794
3.9219 -2.3270 -2.4977 0.9794
4.1494 -1.8950 -2.4984 0.9794
4.2148 -1.7458 -2.4987 0.9794
4.4223 -1.1287 -2.4998 0.9794
4.4926 -0.8106 -2.5003 0.9794
4.5400 -0.4881 -2.5009 0.9794
-4.3335 0.0000 -2.5019 0.9802
-4.3303 -0.1546 -2.5017 0.9802
-4.3215 -0.3091 -2.5014 0.9802
-4.3072 -0.4631 -2.5011 0.9802
-4.2623 -0.7690 -2.5006 0.9802
-4.2317 -0.9205 -2.5003 0.9802
-4.1957 -1.0709 -2.5000 0.9802
-4.1078 -1.3672 -2.4995 0.9802
-3.9989 -1.6564 -2.4990 0.9802
-3.8698 -1.9371 -2.4985 0.9802
-3.7210 -2.2078 -2.4980 0.9802
-3.6395 -2.3390 -2.4978 0.9802
-3.5534 -2.4672 -2.4976 0.9802
-3.4628 -2.5922 -2.4973 0.9802
-3.2685 -2.8321 -2.4969 0.9802
-2.7126 -3.3662 -2.4960 0.9802
-2.4653 -3.5506 -2.4956 0.9802
-2.3368 -3.6362 -2.4955 0.9802
-2.2054 -3.7170 -2.4953 0.9802
-1.9344 -3.8645 -2.4951 0.9802
-1.7952 -3.9309 -2.4950 0.9802
-1.5100 -4.0486 -2.4947 0.9802
-1.2173 -4.1457 -2.4946 0.9802
-1.0685 -4.1864 -2.4945 0.9802
-0.7671 -4.2517 -2.4944 0.9802
-0.4618 -4.2955 -2.4943 0.9802
-0.3082 -4.3092 -2.4943 0.9802
-0.1542 -4.3174 -2.4942 0.9802
-0.0000 -4.3201 -2.4942 0.9802
0.3082 -4.3092 -2.4942 0.9802
0.4618 -4.2954 -2.4943 0.9802
0.7671 -4.2517 -2.4943 0.9802
1.0685 -4.1863 -2.4944 0.9802
1.5100 -4.0485 -2.4947 0.9802
1.6536 -3.9922 -2.4948 0.9802
2.0712 -3.7930 -2.4951 0.9802
2.3367 -3.6360 -2.4954 0.9802
2.4652 -3.5505 -2.4955 0.9802
2.8311 -3.2673 -2.4960 0.9802
2.9462 -3.1644 -2.4962 0.9802
3.0574 -3.0575 -2.4964 0.9802
3.1649 -2.9466 -2.4966 0.9802
3.2683 -2.8320 -2.4968 0.9802
3.3676 -2.7138 -2.4970 0.9802
3.4626 -2.5921 -2.4972 0.9802
3.6393 -2.3388 -2.4977 0.9802
3.7976 -2.0737 -2.4981 0.9802
3.8696 -1.9370 -2.4984 0.9802
3.9366 -1.7978 -2.4986 0.9802
4.1075 -1.3671 -2.4994 0.9802
4.2620 -0.7690 -2.5004 0.9802
4.3212 -0.3091 -2.5012 0.9802
