ply
format ascii 1.0
element vertex 1440
property float32 x
property float32 y
property float32 z
property float32 I
end_header
16.6200 7.5901 3.2217 0.9285
30.2016 16.4914 6.0675 0.8696
26.7282 17.1772 5.6022 0.8789
23.2262 17.3869 5.1158 0.8888
16.5881 17.8169 4.2924 0.9059
15.5368 17.9304 4.1834 0.9081
14.4337 17.9111 4.0560 0.9108
11.6492 18.1264 3.7993 0.9162
9.2380 18.4552 3.6391 0.9196
8.3198 18.2178 3.5314 0.9219
5.5332 18.8444 3.4631 0.9233
5.4288 24.9557 4.5033 0.9015
3.4055 18.8752 3.3819 0.9251
1.3930 9.6888 1.7260 0.9610
0.6703 18.7681 3.3114 0.9266
0.0000 19.1035 3.3685 0.9253
-0.9048 25.3345 4.4700 0.9022
-1.8202 25.4496 4.4989 0.9016
-2.7361 19.0300 3.3900 0.9249
-4.8663 19.0659 3.4696 0.9232
-8.4616 25.4230 4.7245 0.8969
-7.3235 19.6352 3.6952 0.9184
-8.0309 19.3884 3.7004 0.9183
-8.8150 19.3022 3.7416 0.9174
-9.5115 19.0017 3.7468 0.9173
-10.4049 19.0551 3.8282 0.9156
-12.6371 19.6637 4.1215 0.9094
-13.6058 19.5961 4.2065 0.9076
-14.7112 19.6519 4.3286 0.9051
-15.5867 19.3420 4.3801 0.9040
-17.1584 19.8019 4.6201 0.8990
-18.5119 19.8832 4.7902 0.8955
-19.9707 19.9707 4.9800 0.8916
-23.2712 20.1646 5.4295 0.8824
-26.6374 19.9405 5.8672 0.8736
-18.0109 10.6864 3.6927 0.9185
43.2333 16.1252 7.0688 0.8297
21.2993 8.8225 3.5318 0.9109
16.6193 7.5898 2.7989 0.9287
24.2394 16.8297 4.5206 0.8874
23.2248 17.3858 4.4444 0.8892
20.2417 17.5396 4.1031 0.8973
18.6030 17.3200 3.8938 0.9023
17.7151 17.7151 3.8380 0.9036
11.7192 18.2354 3.3207 0.9160
14.5201 24.4723 4.3593 0.8912
13.2182 24.2074 4.2253 0.8944
8.3619 18.3099 3.0836 0.9218
7.4507 17.9876 2.9826 0.9242
6.1684 18.5330 2.9923 0.9240
7.2135 24.5668 3.9224 0.9016
5.4843 25.2109 3.9525 0.9009
1.0497 9.7633 1.5043 0.9610
0.6715 18.8008 2.8820 0.9267
0.0000 25.5114 3.9082 0.9019
-1.8266 25.5386 3.9224 0.9016
-2.7420 25.5047 3.9297 0.9014
-2.7440 19.0846 2.9537 0.9249
-4.8509 19.0058 3.0049 0.9237
-8.7936 19.2553 3.2428 0.9179
-9.5117 19.0020 3.2553 0.9176
-9.6704 17.7101 3.0912 0.9216
-15.2636 25.7255 4.5825 0.8860
-13.7084 19.7439 3.6822 0.9073
-15.6063 19.3662 3.8102 0.9043
-21.0898 19.6353 4.4143 0.8899
-23.2711 20.1645 4.7172 0.8828
-25.1635 20.2780 4.9508 0.8774
45.7753 15.2355 6.2824 0.8232
42.4003 15.8145 5.8929 0.8331
33.5065 16.7722 4.8794 0.8597
26.8496 17.2552 4.1561 0.8792
24.4425 16.9707 3.8749 0.8869
23.2367 17.3948 3.7798 0.8895
20.5095 17.7716 3.5339 0.8963
18.6033 17.3203 3.3099 0.9026
20.8890 24.1072 4.1538 0.8793
13.2502 16.4425 2.7499 0.9183
13.2076 17.6433 2.8700 0.9149
12.3846 17.8373 2.8278 0.9161
11.7536 18.2889 2.8310 0.9160
14.5197 24.4717 3.7054 0.8916
10.1394 18.5689 2.7551 0.9182
12.3297 24.6316 3.5870 0.8948
6.1794 18.5660 2.5481 0.9241
7.2136 24.5671 3.3342 0.9019
5.5606 25.5616 3.4065 0.8999
1.3924 9.6841 1.2740 0.9613
1.0504 9.7703 1.2796 0.9611
0.0000 25.8942 3.3720 0.9008
-0.9316 26.0842 3.3989 0.9001
-2.7483 19.1146 2.5147 0.9251
-4.0628 18.6765 2.4890 0.9258
-4.8752 19.1008 2.5671 0.9236
-7.6352 26.0029 3.5291 0.8964
-9.5367 25.5688 3.5537 0.8958
-8.1446 19.6628 2.7715 0.9177
-8.8300 19.3350 2.7680 0.9178
-9.5118 19.0023 2.7672 0.9179
-9.6704 17.7100 2.6276 0.9218
-16.9801 26.4215 4.0899 0.8810
-14.7110 19.6516 3.1966 0.9057
-15.6065 19.3665 3.2389 0.9045
-19.9520 19.9520 3.6744 0.8924
-23.3721 20.2520 4.0272 0.8827
-25.1883 20.2980 4.2125 0.8777
46.7797 15.5698 5.2942 0.8201
42.1606 15.7251 4.8319 0.8344
21.2410 8.7983 2.4688 0.9117
33.6887 16.8634 4.0455 0.8594
23.3313 17.4656 3.1296 0.8894
29.2723 23.5891 4.0369 0.8596
27.6644 23.9714 3.9307 0.8631
18.6037 17.3206 2.7295 0.9028
22.7966 24.4853 3.5924 0.8741
13.2504 16.4427 2.2676 0.9186
12.3848 17.8375 2.3318 0.9163
11.4902 17.8790 2.2822 0.9181
14.5579 24.5361 3.0636 0.8916
13.2186 24.2081 2.9618 0.8950
8.2840 18.1394 2.1414 0.9229
7.4509 17.9881 2.0907 0.9247
6.4291 25.1890 2.7915 0.9007
5.5895 25.6945 2.8236 0.8996
1.3920 9.6818 1.0503 0.9614
1.0512 9.7772 1.0559 0.9612
0.6640 18.5928 1.9978 0.9279
-0.9316 26.0845 2.8028 0.9003
-1.8600 26.0058 2.7997 0.9004
-2.7013 18.7879 2.0382 0.9265
-3.3621 18.6349 2.0333 0.9267
-4.0629 18.6768 2.0524 0.9260
-4.8305 18.9257 2.0974 0.9244
-5.5655 18.9542 2.1213 0.9236
-8.6055 25.8554 2.9261 0.8962
-8.7239 19.1026 2.2551 0.9190
-9.5120 19.0025 2.2819 0.9181
-17.3065 26.9293 3.4374 0.8792
-14.6673 19.5932 2.6282 0.9062
-15.6068 19.3669 2.6709 0.9048
-21.1541 19.6951 3.1037 0.8902
-26.4311 22.9026 3.7555 0.8688
-17.9945 10.6766 2.2468 0.9193
46.9446 15.6246 4.1883 0.8199
16.6172 7.5888 1.5464 0.9293
30.4252 16.6134 2.9345 0.8701
28.9696 17.1885 2.8515 0.8735
24.6509 15.8422 2.4805 0.8890
29.3795 23.6755 3.1941 0.8594
18.6040 17.3209 2.1518 0.9030
21.4428 24.7463 2.7719 0.8768
13.2080 17.6439 1.8657 0.9153
11.5776 18.0151 1.8128 0.9176
14.5730 24.5614 2.4176 0.8917
7.4510 17.9883 1.6482 0.9248
6.1063 18.3464 1.6368 0.9253
7.2137 24.5678 2.1675 0.9023
5.5214 25.3814 2.1989 0.9010
1.8155 10.0624 0.8656 0.9598
1.3917 9.6794 0.8278 0.9615
1.0519 9.7841 0.8330 0.9613
1.3128 18.3555 1.5578 0.9288
0.6670 18.6768 1.5821 0.9277
0.0000 18.7034 1.5833 0.9277
-0.9203 25.7667 2.1826 0.9017
-2.7269 25.3637 2.1595 0.9027
-3.3622 18.6351 1.6030 0.9268
-4.0629 18.6770 1.6180 0.9261
-9.5370 25.5696 2.3102 0.8962
-8.0113 19.3410 1.7722 0.9194
-8.7889 19.2450 1.7910 0.9186
-15.3784 25.9188 2.5512 0.8860
-17.3964 27.0694 2.7239 0.8788
-13.6254 19.6243 2.0224 0.9086
-14.6054 19.5105 2.0631 0.9068
-15.6071 19.3672 2.1055 0.9050
-17.0122 19.6331 2.1991 0.9010
-25.8484 27.7631 3.2112 0.8588
-20.0569 20.0569 2.4011 0.8924
-25.6093 20.6373 2.7842 0.8763
-26.7575 20.0304 2.8295 0.8744
-17.9898 10.6738 1.7708 0.9195
46.9462 15.6252 3.0682 0.8201
16.6165 7.5885 1.1328 0.9294
34.3292 17.1840 2.3806 0.8574
24.6520 15.8429 1.8171 0.8892
24.4441 16.9718 1.8453 0.8876
22.8601 18.4219 1.8205 0.8890
20.1973 17.5011 1.6572 0.8984
18.6043 17.3212 1.5763 0.9031
17.1586 18.4296 1.5615 0.9040
20.7488 23.9454 1.9648 0.8808
14.3848 17.8504 1.4216 0.9122
13.2082 17.6441 1.3667 0.9155
12.3851 17.8379 1.3466 0.9166
14.4869 24.4165 1.7605 0.8925
13.2190 24.2088 1.7104 0.8953
7.4511 17.9886 1.2074 0.9249
6.7256 18.0320 1.1934 0.9258
7.2138 24.5681 1.5878 0.9025
1.3128 18.3558 1.1412 0.9289
0.6670 18.6758 1.1588 0.9278
-0.0000 18.7024 1.1597 0.9278
-1.8564 25.9563 1.6137 0.9010
-3.3622 18.6354 1.1742 0.9269
-5.5904 19.0391 1.2305 0.9236
-8.7883 19.2437 1.3119 0.9187
-10.4057 19.0565 1.3464 0.9167
-15.3786 25.9192 1.8689 0.8862
-14.6723 19.5999 1.5182 0.9065
-19.3699 20.8047 1.7627 0.8923
-21.1549 19.6959 1.7924 0.8906
-25.3301 20.4123 2.0173 0.8778
-17.9978 10.6786 1.2977 0.9196
46.9479 15.6257 1.9511 0.8203
43.2326 16.1249 1.8194 0.8313
21.1552 8.7628 0.9029 0.9124
16.6148 7.5877 0.7202 0.9295
34.2383 17.1385 1.5097 0.8579
35.5878 22.8709 1.6680 0.8442
24.4446 16.9722 1.1734 0.8877
23.1435 17.3250 1.1399 0.8907
20.1958 17.4997 1.0537 0.8985
17.6570 17.6570 0.9846 0.9049
17.1597 18.4308 0.9930 0.9041
20.8169 24.0240 1.2534 0.8805
14.3838 17.8492 0.9039 0.9123
14.4861 24.4150 1.1194 0.8926
12.2852 24.5428 1.0822 0.8960
8.3203 18.2189 0.7898 0.9230
7.4512 17.9888 0.7678 0.9250
6.7257 18.0322 0.7589 0.9259
6.1056 18.3443 0.7623 0.9255
7.2139 24.5684 1.0096 0.9026
1.8044 10.0008 0.4007 0.9601
1.3128 18.3560 0.7256 0.9290
-1.8565 25.9566 1.0261 0.9011
-2.7359 25.4473 1.0092 0.9026
-2.7133 18.8715 0.7518 0.9265
-3.3622 18.6356 0.7467 0.9270
-4.0631 18.6775 0.7537 0.9263
-4.8516 19.0085 0.7736 0.9245
-5.5901 19.0380 0.7824 0.9236
-8.5872 25.8005 1.0722 0.8969
-8.0126 19.3442 0.8256 0.9196
-8.7878 19.2425 0.8341 0.9188
-9.5124 19.0034 0.8380 0.9184
-10.4058 19.0568 0.8561 0.9168
-15.3788 25.9196 1.1884 0.8863
-17.4459 27.1464 1.2724 0.8788
-13.7107 19.7471 0.9479 0.9083
-14.6712 19.5984 0.9653 0.9066
-17.0913 19.7244 1.0291 0.9008
-25.4147 20.4805 1.2870 0.8775
46.9495 15.6263 0.8359 0.8204
43.2270 16.1228 0.7793 0.8315
16.6130 7.5869 0.3085 0.9295
34.2400 17.1394 0.6468 0.8580
35.5886 22.8714 0.7146 0.8443
23.1415 17.3235 0.4883 0.8908
20.1942 17.4984 0.4514 0.8986
18.6050 17.3219 0.4294 0.9033
17.1608 18.4320 0.4254 0.9042
14.3829 17.8481 0.3872 0.9124
12.3854 17.8383 0.3668 0.9168
11.5754 18.0116 0.3617 0.9179
14.4852 24.4135 0.4795 0.8926
13.2194 24.2095 0.4659 0.8955
12.2845 24.5413 0.4636 0.8960
8.3198 18.2179 0.3383 0.9230
6.7258 18.0325 0.3251 0.9259
6.1052 18.3433 0.3266 0.9256
6.3532 24.8914 0.4339 0.9023
1.7989 9.9705 0.1711 0.9603
1.0541 9.8048 0.1666 0.9613
0.6669 18.6737 0.3156 0.9280
0.0000 18.7003 0.3159 0.9279
-0.9343 26.1593 0.4422 0.9006
-1.8565 25.9570 0.4396 0.9011
-3.3623 18.6359 0.3199 0.9270
-4.8514 19.0074 0.3314 0.9245
-5.5897 19.0369 0.3351 0.9237
-8.0133 19.3458 0.3537 0.9196
-9.5126 19.0037 0.3590 0.9185
-10.4060 19.0571 0.3668 0.9168
-15.3791 25.9201 0.5091 0.8864
-17.4462 27.1468 0.5451 0.8789
-14.6701 19.5970 0.4135 0.9067
-15.6079 19.3682 0.4202 0.9053
-21.1558 19.6967 0.4883 0.8908
-25.4157 20.4813 0.5514 0.8776
46.9512 15.6268 -0.2786 0.8204
21.0986 8.7393 -0.1286 0.9127
16.6113 7.5861 -0.1030 0.9296
30.4282 16.6151 -0.1952 0.8705
28.6337 16.9892 -0.1874 0.8753
35.5894 22.8720 -0.2382 0.8443
24.4456 16.9729 -0.1675 0.8878
20.1926 17.4970 -0.1504 0.8986
18.6053 17.3222 -0.1431 0.9033
17.6544 17.6544 -0.1406 0.9050
17.1619 18.4332 -0.1418 0.9042
20.8140 24.0207 -0.1789 0.8806
14.3819 17.8469 -0.1290 0.9124
13.2089 17.6450 -0.1241 0.9156
12.3855 17.8385 -0.1223 0.9168
14.4843 24.4120 -0.1598 0.8927
13.2196 24.2099 -0.1553 0.8955
12.2838 24.5399 -0.1545 0.8960
8.3193 18.2168 -0.1128 0.9230
7.4514 17.9893 -0.1096 0.9251
6.1049 18.3422 -0.1088 0.9256
6.3528 24.8900 -0.1446 0.9023
5.6056 25.7685 -0.1485 0.8999
1.3904 9.6702 -0.0550 0.9617
1.3129 18.3565 -0.1036 0.9290
0.6669 18.6727 -0.1052 0.9280
-0.9343 26.1596 -0.1474 0.9006
-1.8565 25.9573 -0.1465 0.9011
-2.7356 25.4445 -0.1441 0.9027
-5.5894 19.0358 -0.1117 0.9237
-9.5375 25.5710 -0.1537 0.8966
-8.7867 19.2401 -0.1191 0.9189
-9.5127 19.0040 -0.1197 0.9185
-17.4465 27.1473 -0.1817 0.8789
-14.6691 19.5956 -0.1378 0.9067
-21.1562 19.6971 -0.1627 0.8908
-18.0220 10.6929 -0.1180 0.9196
46.9528 15.6274 -1.3935 0.8204
43.2157 16.1186 -1.2987 0.8315
21.0704 8.7277 -0.6422 0.9128
16.6096 7.5853 -0.5141 0.9295
34.2436 17.1411 -1.0783 0.8579
28.6308 16.9874 -0.9374 0.8753
35.5902 22.8725 -1.1913 0.8443
24.4461 16.9732 -0.8380 0.8877
23.1374 17.3204 -0.8138 0.8908
22.8656 18.4263 -0.8269 0.8891
18.6057 17.3225 -0.7158 0.9033
13.2091 17.6452 -0.6207 0.9156
12.3857 17.8387 -0.6115 0.9168
13.2198 24.2102 -0.7767 0.8955
7.4515 17.9896 -0.5483 0.9250
6.7259 18.0330 -0.5419 0.9259
6.1045 18.3412 -0.5443 0.9256
5.6057 25.7688 -0.7426 0.8998
1.3129 18.3567 -0.5182 0.9290
0.6669 18.6717 -0.5261 0.9280
-0.0000 18.6982 -0.5265 0.9279
-0.9343 26.1600 -0.7371 0.9006
-1.8565 25.9577 -0.7328 0.9011
-2.7129 18.8683 -0.5368 0.9266
-3.3624 18.6364 -0.5332 0.9270
-4.0632 18.6783 -0.5382 0.9264
-4.8508 19.0053 -0.5523 0.9245
-5.5891 19.0346 -0.5586 0.9237
-8.0147 19.3492 -0.5897 0.9196
-9.5128 19.0043 -0.5984 0.9185
-10.4063 19.0577 -0.6114 0.9168
-17.4468 27.1477 -0.9087 0.8789
-13.7130 19.7505 -0.6770 0.9083
-17.0874 19.7199 -0.7347 0.9009
-19.3732 20.8083 -0.8005 0.8925
-19.8973 19.8973 -0.7923 0.8935
-21.1567 19.6975 -0.8140 0.8908
-26.7607 20.0328 -0.9413 0.8748
-18.0300 10.6977 -0.5903 0.9195
48.9913 1.7497 -2.4861 0.8217
46.3433 4.9824 -2.3638 0.8297
36.4864 6.5829 -1.8803 0.8620
44.9067 9.7689 -2.3307 0.8319
25.4377 6.4926 -1.3314 0.9002
43.5631 14.4992 -2.3284 0.8320
21.0423 8.7160 -1.1551 0.9128
30.4297 16.6159 -1.7583 0.8703
28.5402 16.9337 -1.6830 0.8755
35.5910 22.8730 -2.1456 0.8441
23.1354 17.3189 -1.4656 0.8907
22.8670 18.4274 -1.4894 0.8890
20.1895 17.4943 -1.3548 0.8985
18.6060 17.3228 -1.2893 0.9032
20.7659 23.9652 -1.6082 0.8807
14.3800 17.8445 -1.1622 0.9123
12.3858 17.8389 -1.1014 0.9167
11.5731 18.0081 -1.0856 0.9178
13.2200 24.2106 -1.3989 0.8954
12.2823 24.5369 -1.3916 0.8959
8.3184 18.2147 -1.0155 0.9229
6.7260 18.0332 -0.9761 0.9258
6.3521 24.8872 -1.3026 0.9022
5.6057 25.7691 -1.3374 0.8998
1.3897 9.6656 -0.4952 0.9616
0.6668 18.6707 -0.9475 0.9279
0.0000 18.6972 -0.9482 0.9279
-1.8565 25.9580 -1.3198 0.9010
-2.7353 25.4416 -1.2977 0.9026
-2.7127 18.8672 -0.9667 0.9265
-8.5852 25.7944 -1.3787 0.8968
-9.5378 25.5718 -1.3841 0.8965
-8.7856 19.2377 -1.0725 0.9188
-9.5130 19.0046 -1.0778 0.9184
-10.4065 19.0580 -1.1012 0.9167
-13.7138 19.7517 -1.2195 0.9082
-21.1571 19.6979 -1.4660 0.8907
-37.1824 32.2187 -2.4951 0.8211
-41.4625 26.6463 -2.4995 0.8209
-18.0381 10.7025 -1.0637 0.9194
-44.1327 22.0912 -2.5029 0.8206
-44.9132 20.5112 -2.5040 0.8206
-46.9112 15.6135 -2.5074 0.8204
-47.9477 12.2379 -2.5096 0.8202
-49.0443 7.0515 -2.5128 0.8200
-49.2855 5.2987 -2.5139 0.8199
-49.4639 3.5377 -2.5149 0.8199
33.9824 0.0000 -2.4917 0.8726
33.8777 2.4230 -2.4903 0.8726
33.7610 3.6297 -2.4897 0.8727
33.6015 4.8312 -2.4891 0.8727
32.2737 5.8228 -2.4046 0.8768
31.1382 6.7737 -2.3365 0.8800
25.4410 6.4934 -1.9252 0.9000
29.8312 11.1264 -2.3345 0.8801
16.6061 7.5837 -1.3386 0.9294
27.9232 15.2473 -2.3327 0.8802
27.3568 16.2315 -2.3324 0.8802
23.0619 17.2639 -2.1123 0.8909
18.6063 17.3231 -1.8640 0.9031
20.7645 23.9636 -2.3249 0.8806
14.3358 17.7896 -1.6752 0.9124
12.3859 17.8392 -1.5924 0.9166
13.2202 24.2109 -2.0226 0.8953
12.2535 24.4794 -2.0072 0.8960
8.3179 18.2136 -1.4681 0.9228
5.6058 25.7695 -1.9337 0.8996
1.7773 9.8507 -0.7339 0.9606
-0.9343 26.1607 -1.9194 0.9003
-1.8566 25.9584 -1.9082 0.9009
-2.7126 18.8662 -1.3975 0.9264
-4.8502 19.0031 -1.4380 0.9244
-5.5884 19.0324 -1.4544 0.9235
-9.5379 25.5721 -2.0012 0.8963
-8.0161 19.3525 -1.5359 0.9194
-8.7850 19.2365 -1.5506 0.9187
-9.5131 19.0048 -1.5583 0.9183
-10.4066 19.0583 -1.5922 0.9166
-17.2532 26.8464 -2.3399 0.8799
-14.6190 19.5287 -1.7886 0.9068
-17.0350 19.6594 -1.9073 0.9009
-21.1575 19.6984 -2.1196 0.8905
-24.9134 20.0765 -2.3460 0.8796
-26.2982 18.2592 -2.3475 0.8795
-26.9415 17.3142 -2.3482 0.8795
-23.1584 9.5925 -1.8379 0.9044
-30.0621 11.2126 -2.3525 0.8793
-32.4250 10.7921 -2.5057 0.8719
-32.7995 9.6308 -2.5065 0.8719
-33.4232 7.2708 -2.5080 0.8718
-33.6714 6.0750 -2.5087 0.8718
-33.8767 4.8708 -2.5095 0.8717
-34.0389 3.6596 -2.5102 0.8717
-34.1577 2.4430 -2.5109 0.8717
-34.2328 1.2226 -2.5116 0.8716
25.9787 0.0000 -2.4941 0.9009
25.9568 0.9271 -2.4936 0.9009
25.9020 1.8526 -2.4931 0.9009
25.6938 3.6942 -2.4921 0.9009
25.3554 5.5157 -2.4912 0.9010
24.6014 6.2791 -2.4376 0.9030
23.1110 7.6921 -2.3384 0.9068
20.9415 7.8107 -2.1458 0.9141
21.3625 11.6648 -2.3367 0.9068
19.9861 13.8766 -2.3359 0.9069
19.4761 14.5796 -2.3357 0.9069
18.9415 15.2640 -2.3354 0.9069
18.3830 15.9289 -2.3352 0.9069
14.3348 17.7884 -2.1933 0.9123
11.5366 17.9514 -2.0486 0.9178
11.4162 19.2409 -2.1479 0.9140
8.2916 18.1562 -1.9162 0.9229
7.4518 17.9903 -1.8695 0.9247
6.7262 18.0337 -1.8478 0.9256
1.3890 9.6610 -0.9370 0.9615
1.0578 9.8394 -0.9501 0.9610
1.3129 18.3574 -1.7669 0.9287
0.0000 18.6398 -1.7895 0.9278
-0.8686 24.3203 -2.3364 0.9068
-2.6020 24.2025 -2.3369 0.9068
-2.7041 18.8076 -1.8242 0.9265
-3.3625 18.6371 -1.8181 0.9267
-4.8349 18.9428 -1.8769 0.9244
-7.6943 23.1175 -2.3391 0.9067
-8.7569 19.1748 -2.0238 0.9188
-12.4464 20.9773 -2.3417 0.9066
-13.6597 19.6738 -2.2994 0.9082
-14.6179 19.5273 -2.3418 0.9066
-15.3180 19.0085 -2.3437 0.9066
-17.8833 16.6499 -2.3458 0.9065
-18.4704 16.0047 -2.3463 0.9065
-19.0343 15.3388 -2.3469 0.9064
-17.2075 11.9474 -2.0112 0.9193
-17.2012 10.2059 -1.9202 0.9228
-19.6234 9.8227 -2.1068 0.9156
-22.2732 10.1718 -2.3508 0.9063
-22.6275 9.3726 -2.3513 0.9063
-24.7553 8.2394 -2.5048 0.9005
-26.0653 1.8642 -2.5088 0.9003
21.0091 0.0000 -2.4956 0.9189
20.9922 0.7498 -2.4952 0.9189
20.3344 5.1900 -2.4929 0.9189
20.1334 5.9117 -2.4925 0.9189
18.4596 6.8851 -2.3403 0.9237
17.6116 8.8158 -2.3395 0.9237
17.2839 9.4377 -2.3392 0.9237
16.9343 10.0476 -2.3390 0.9237
16.5633 10.6446 -2.3388 0.9238
16.1714 11.2280 -2.3385 0.9238
14.4046 13.4112 -2.3379 0.9238
13.9159 13.9159 -2.3377 0.9238
13.4097 14.4030 -2.3376 0.9238
12.8865 14.8718 -2.3375 0.9238
11.7919 15.7521 -2.3373 0.9238
11.2219 16.1626 -2.3373 0.9238
10.6376 16.5525 -2.3372 0.9238
9.4295 17.2689 -2.3372 0.9238
8.8072 17.5946 -2.3372 0.9238
8.1737 17.8979 -2.3372 0.9238
6.7263 18.0339 -2.2863 0.9254
6.0845 18.2809 -2.2886 0.9253
5.5439 18.8809 -2.3375 0.9238
4.8667 19.0676 -2.3376 0.9238
4.1832 19.2300 -2.3377 0.9238
1.7666 9.7914 -1.1819 0.9607
1.0586 9.8464 -1.1764 0.9609
1.3130 18.3577 -2.1862 0.9285
0.6647 18.6098 -2.2120 0.9277
-0.7028 19.6776 -2.3389 0.9237
-1.4048 19.6419 -2.3391 0.9237
-2.1052 19.5813 -2.3394 0.9237
-3.3626 18.6374 -2.2496 0.9266
-4.0634 18.6793 -2.2707 0.9259
-5.5519 18.9081 -2.3408 0.9237
-6.2240 18.7002 -2.3411 0.9237
-7.5444 18.2138 -2.3418 0.9237
-8.1909 17.9356 -2.3422 0.9236
-8.8272 17.6346 -2.3425 0.9236
-9.4525 17.3110 -2.3429 0.9236
-10.0660 16.9653 -2.3433 0.9236
-10.6669 16.5980 -2.3437 0.9236
-5.8508 8.4267 -1.2186 0.9595
-12.3864 15.3706 -2.3449 0.9236
-12.9294 14.9213 -2.3453 0.9236
-13.4562 14.4529 -2.3457 0.9235
-13.9660 13.9660 -2.3461 0.9235
-14.4582 13.4611 -2.3466 0.9235
-14.9323 12.9389 -2.3470 0.9235
-15.3875 12.4000 -2.3474 0.9235
-16.2390 11.2749 -2.3483 0.9235
-17.0085 10.0916 -2.3492 0.9234
-17.3612 9.4799 -2.3497 0.9234
-17.6919 8.8559 -2.3501 0.9234
-18.7207 8.5495 -2.4447 0.9204
-19.4699 8.0647 -2.5033 0.9186
-20.0033 6.6577 -2.5043 0.9186
-20.4349 5.2157 -2.5052 0.9186
-20.6119 4.4838 -2.5057 0.9185
-20.7626 3.7460 -2.5061 0.9185
-20.9845 2.2561 -2.5070 0.9185
-21.0554 1.5059 -2.5075 0.9185
-21.0994 0.7536 -2.5079 0.9185
17.6204 0.0000 -2.4966 0.9313
17.5122 1.8828 -2.4956 0.9313
17.4315 2.5063 -2.4953 0.9313
17.0575 4.3537 -2.4943 0.9313
9.3270 2.7387 -1.3773 0.9615
9.3179 3.1013 -1.3915 0.9611
16.4888 6.1500 -2.4935 0.9314
16.2142 6.7161 -2.4867 0.9316
15.0541 6.8750 -2.3449 0.9353
14.7752 7.3960 -2.3411 0.9354
14.5005 7.9179 -2.3409 0.9354
14.2075 8.4297 -2.3407 0.9354
13.8964 8.9307 -2.3405 0.9354
12.8595 10.3628 -2.3400 0.9355
12.0861 11.2525 -2.3398 0.9355
11.6762 11.6762 -2.3397 0.9355
10.3600 12.8559 -2.3394 0.9355
9.8943 13.2172 -2.3393 0.9355
8.9258 13.8888 -2.3392 0.9355
8.4243 14.1984 -2.3392 0.9355
7.9121 14.4900 -2.3392 0.9355
6.3180 15.2531 -2.3393 0.9355
5.7697 15.4692 -2.3393 0.9355
5.2140 15.6657 -2.3394 0.9355
4.0834 15.9988 -2.3395 0.9355
3.5100 16.1350 -2.3396 0.9355
1.0594 9.8535 -1.4042 0.9608
1.1782 16.4739 -2.3401 0.9355
0.5895 16.5066 -2.3403 0.9354
-0.5896 16.5091 -2.3407 0.9354
-1.7662 16.4278 -2.3411 0.9354
-2.3516 16.3558 -2.3413 0.9354
-4.0877 16.0156 -2.3420 0.9354
-5.2210 15.6867 -2.3425 0.9354
-5.7783 15.4922 -2.3428 0.9354
-7.4040 14.7914 -2.3437 0.9354
-8.4426 14.2293 -2.3443 0.9353
-8.9464 13.9208 -2.3446 0.9353
-5.8474 8.4218 -1.4527 0.9594
-6.2863 8.3976 -1.4863 0.9585
-11.7114 11.7114 -2.3467 0.9353
-12.5209 10.8494 -2.3474 0.9353
-13.2672 9.9317 -2.3482 0.9352
-16.0670 7.3375 -2.5027 0.9311
-16.3213 6.7605 -2.5031 0.9311
-16.5548 6.1746 -2.5035 0.9311
-16.7673 5.5807 -2.5039 0.9311
-16.9585 4.9795 -2.5043 0.9311
-17.1281 4.3717 -2.5047 0.9311
-17.5054 2.5169 -2.5058 0.9310
-17.5867 1.8908 -2.5062 0.9310
-17.6456 1.2620 -2.5066 0.9310
15.1480 0.5410 -2.4971 0.9404
15.1172 1.0812 -2.4968 0.9404
14.9100 2.6901 -2.4959 0.9404
14.6771 3.7461 -2.4954 0.9404
9.2975 3.0945 -1.6143 0.9611
14.1884 5.2920 -2.4947 0.9405
13.9893 5.7945 -2.4945 0.9405
13.7724 6.2896 -2.4942 0.9405
13.5127 6.7640 -2.4894 0.9406
12.2262 7.2541 -2.3420 0.9440
11.9586 7.6854 -2.3418 0.9440
10.7407 9.3069 -2.3413 0.9440
10.4012 9.6838 -2.3412 0.9440
10.0485 10.0485 -2.3411 0.9440
9.6831 10.4004 -2.3410 0.9440
9.3054 10.7390 -2.3409 0.9440
6.3599 12.7056 -2.3407 0.9440
5.4374 13.1271 -2.3407 0.9440
4.4873 13.4821 -2.3408 0.9440
4.0033 13.6340 -2.3409 0.9440
3.5142 13.7686 -2.3410 0.9440
3.0207 13.8858 -2.3410 0.9440
1.7559 9.7322 -1.6292 0.9607
1.0601 9.8606 -1.6338 0.9606
0.4064 11.3778 -1.8756 0.9549
0.0000 14.2150 -2.3418 0.9440
-0.5074 14.2069 -2.3419 0.9440
-1.0142 14.1807 -2.3421 0.9440
-1.5198 14.1366 -2.3423 0.9440
-4.0074 13.6481 -2.3433 0.9440
-4.4925 13.4977 -2.3435 0.9440
-6.8213 12.4923 -2.3448 0.9439
-6.2878 8.3996 -1.7285 0.9584
-9.3278 10.7648 -2.3465 0.9439
-10.0746 10.0746 -2.3471 0.9439
-10.7705 9.3327 -2.3478 0.9439
-11.4119 8.5429 -2.3484 0.9438
-11.8426 8.2225 -2.3751 0.9432
-13.3293 7.2783 -2.5019 0.9403
-13.5825 6.7989 -2.5022 0.9403
-14.0368 5.8142 -2.5029 0.9403
-14.2373 5.3102 -2.5033 0.9403
-14.4197 4.7993 -2.5036 0.9403
-14.7294 3.7594 -2.5043 0.9402
-14.8561 3.2318 -2.5046 0.9402
-15.0528 2.1643 -2.5053 0.9402
-15.1224 1.6258 -2.5056 0.9402
-15.1727 1.0852 -2.5059 0.9402
13.2896 0.0000 -2.4979 0.9473
13.1490 1.8905 -2.4969 0.9474
13.0719 2.3584 -2.4967 0.9474
12.9781 2.8232 -2.4964 0.9474
12.8679 3.2843 -2.4962 0.9474
9.0444 2.6557 -1.7718 0.9624
9.2771 3.0877 -1.8378 0.9610
8.8660 3.3069 -1.7786 0.9622
12.0754 5.5147 -2.4952 0.9474
11.8701 5.9417 -2.4950 0.9474
11.4028 6.7656 -2.4922 0.9475
11.0348 7.0916 -2.4655 0.9480
9.7036 7.8197 -2.3424 0.9505
7.8181 9.7016 -2.3419 0.9506
6.3575 10.7149 -2.3418 0.9506
5.9709 10.9350 -2.3418 0.9506
5.5769 11.1411 -2.3418 0.9506
5.1757 11.3332 -2.3418 0.9506
4.3541 11.6738 -2.3419 0.9506
2.4605 11.3107 -2.1757 0.9540
1.7505 9.7025 -1.8531 0.9607
1.3877 9.6516 -1.8328 0.9611
1.0609 9.8678 -1.8654 0.9604
0.8891 12.4309 -2.3425 0.9505
-0.8893 12.4338 -2.3430 0.9505
-2.2138 12.2701 -2.3435 0.9505
-2.6505 12.1842 -2.3437 0.9505
-3.0839 12.0828 -2.3439 0.9505
-3.5135 11.9660 -2.3441 0.9505
-3.9387 11.8340 -2.3443 0.9505
-5.9801 10.9518 -2.3454 0.9505
-5.8484 8.4234 -1.9275 0.9591
-8.1767 9.4365 -2.3469 0.9505
-8.5093 9.1396 -2.3472 0.9504
-9.1418 8.5113 -2.3477 0.9504
-10.0820 8.1246 -2.4338 0.9487
-10.6313 7.9585 -2.4962 0.9474
-10.9298 7.5887 -2.5010 0.9473
-11.1950 7.1946 -2.5013 0.9473
-11.4460 6.7912 -2.5016 0.9473
-11.6826 6.3792 -2.5019 0.9473
-12.4775 4.6539 -2.5031 0.9472
-12.6372 4.2061 -2.5034 0.9472
-12.7808 3.7528 -2.5037 0.9472
-12.9081 3.2946 -2.5040 0.9472
-13.0190 2.8321 -2.5043 0.9472
-13.1133 2.3659 -2.5046 0.9472
-13.2956 0.9509 -2.5054 0.9472
11.7870 0.8430 -2.4979 0.9528
11.6948 1.6815 -2.4975 0.9528
11.5431 2.5110 -2.4970 0.9529
11.4452 2.9212 -2.4968 0.9529
10.9098 4.5190 -2.4961 0.9529
10.7408 4.9052 -2.4959 0.9529
10.3622 5.6582 -2.4956 0.9529
10.1531 6.0241 -2.4955 0.9529
9.9311 6.3823 -2.4954 0.9529
9.6952 6.7315 -2.4949 0.9529
9.4284 7.0580 -2.4895 0.9530
8.9535 7.2152 -2.4306 0.9541
8.3858 7.2663 -2.3455 0.9556
8.1127 7.5532 -2.3431 0.9557
6.9545 8.6299 -2.3428 0.9557
6.3209 9.1038 -2.3427 0.9557
5.9919 9.3235 -2.3427 0.9557
5.3114 9.7271 -2.3427 0.9557
4.9608 9.9105 -2.3427 0.9557
4.6040 10.0813 -2.3427 0.9557
3.5001 10.5161 -2.3428 0.9557
2.2655 8.8760 -1.9364 0.9632
1.6054 8.8981 -1.9112 0.9637
1.2809 8.9090 -1.9025 0.9639
0.9569 8.9002 -1.8922 0.9641
0.6373 8.9109 -1.8884 0.9641
0.0000 11.0868 -2.3435 0.9557
-0.3957 11.0803 -2.3436 0.9557
-0.7910 11.0597 -2.3438 0.9557
-1.9691 10.9138 -2.3442 0.9557
-2.3575 10.8373 -2.3444 0.9557
-3.1251 10.6431 -2.3447 0.9557
-3.5033 10.5256 -2.3449 0.9557
-3.4586 8.3499 -1.9104 0.9637
-4.6094 10.0933 -2.3455 0.9556
-4.9672 9.9232 -2.3457 0.9556
-5.3187 9.7404 -2.3459 0.9556
-5.6635 9.5453 -2.3461 0.9556
-6.9669 8.6454 -2.3470 0.9556
-7.5675 8.1280 -2.3475 0.9556
-8.9314 7.7391 -2.4981 0.9528
-9.2111 7.4228 -2.5006 0.9528
-9.4712 7.0900 -2.5008 0.9528
-9.9550 6.3977 -2.5014 0.9528
-10.3883 5.6724 -2.5019 0.9528
-10.9386 4.5309 -2.5027 0.9527
-11.0946 4.1381 -2.5030 0.9527
-11.3639 3.3368 -2.5035 0.9527
-11.4770 2.9293 -2.5038 0.9527
-11.6591 2.1035 -2.5043 0.9527
-11.7819 1.2667 -2.5048 0.9527
-11.8207 0.8454 -2.5050 0.9527
10.6318 0.0000 -2.4987 0.9573
10.5683 1.1362 -2.4981 0.9573
10.4587 1.8870 -2.4977 0.9573
10.3839 2.2589 -2.4975 0.9573
10.0808 3.3552 -2.4970 0.9573
9.9540 3.7127 -2.4969 0.9573
9.6626 4.4128 -2.4965 0.9573
9.3222 5.0903 -2.4963 0.9573
8.9344 5.7418 -2.4960 0.9573
8.2684 6.6631 -2.4957 0.9573
7.2992 7.2992 -2.4261 0.9585
6.8289 7.3348 -2.3553 0.9597
6.5300 7.5360 -2.3435 0.9599
5.9755 7.9823 -2.3435 0.9599
5.3907 8.3881 -2.3434 0.9599
4.7785 8.7512 -2.3434 0.9599
3.4846 9.3425 -2.3434 0.9599
3.1489 9.4610 -2.3435 0.9599
2.2655 8.8761 -2.1530 0.9631
1.9333 8.8872 -2.1376 0.9633
1.6054 8.8982 -2.1251 0.9635
0.9590 8.9199 -2.1085 0.9638
0.0000 9.9741 -2.3441 0.9598
-1.0663 9.9185 -2.3445 0.9598
-1.7714 9.8182 -2.3448 0.9598
-2.1208 9.7494 -2.3449 0.9598
-3.1515 9.4687 -2.3454 0.9598
-4.1465 9.0796 -2.3459 0.9598
-5.0945 8.5864 -2.3465 0.9598
-5.3982 8.3998 -2.3467 0.9598
-6.8970 7.9596 -2.4753 0.9576
-7.5217 7.5217 -2.5000 0.9572
-7.7861 7.2491 -2.5002 0.9572
-8.0406 6.9672 -2.5005 0.9572
-8.5188 6.3771 -2.5009 0.9572
-8.9537 5.7542 -2.5014 0.9572
-9.3432 5.1018 -2.5019 0.9572
-9.5203 4.7655 -2.5022 0.9572
-9.6853 4.4231 -2.5024 0.9572
-9.8379 4.0750 -2.5026 0.9572
-10.1055 3.3634 -2.5031 0.9572
-10.3216 2.6344 -2.5036 0.9572
-10.4101 2.2646 -2.5038 0.9572
-10.5470 1.5164 -2.5043 0.9572
-10.6516 0.3804 -2.5050 0.9572
9.6449 0.3445 -2.4988 0.9609
9.6258 0.6885 -2.4986 0.9609
9.2556 2.7177 -2.4976 0.9609
9.1522 3.0461 -2.4975 0.9609
8.4636 4.6215 -2.4968 0.9609
8.1116 5.2130 -2.4966 0.9609
7.9201 5.4990 -2.4965 0.9609
7.7184 5.7779 -2.4964 0.9609
7.5070 6.0496 -2.4963 0.9609
7.0559 6.5693 -2.4961 0.9609
6.8167 6.8167 -2.4961 0.9609
6.5612 7.0472 -2.4931 0.9610
5.5312 7.3888 -2.3898 0.9626
5.1632 7.4364 -2.3440 0.9633
4.6195 7.7857 -2.3440 0.9633
4.3386 7.9456 -2.3440 0.9633
3.1638 8.4824 -2.3440 0.9633
2.8590 8.5900 -2.3441 0.9633
1.9078 8.7702 -2.3239 0.9636
1.5843 8.7811 -2.3103 0.9638
0.3151 8.8236 -2.2860 0.9642
0.0000 9.0556 -2.3447 0.9633
-0.3232 9.0502 -2.3448 0.9633
-0.9681 9.0050 -2.3450 0.9633
-1.2890 8.9651 -2.3451 0.9633
-1.6082 8.9139 -2.3452 0.9633
-2.2403 8.7774 -2.3455 0.9633
-2.5523 8.6924 -2.3456 0.9633
-3.1462 8.4354 -2.3311 0.9635
-3.4416 8.3089 -2.3286 0.9635
-3.7644 8.2429 -2.3463 0.9632
-4.3435 7.9545 -2.3466 0.9632
-4.6690 7.8691 -2.3691 0.9629
-5.0631 7.8783 -2.4247 0.9620
-6.0555 7.5144 -2.4987 0.9609
-6.3225 7.2965 -2.4998 0.9609
-6.5794 7.0668 -2.5000 0.9609
-7.5207 6.0606 -2.5008 0.9609
-7.7329 5.7888 -2.5010 0.9609
-7.9353 5.5096 -2.5013 0.9609
-8.1276 5.2233 -2.5015 0.9609
-8.3096 4.9303 -2.5017 0.9609
-8.9298 3.6988 -2.5026 0.9609
-9.0569 3.3780 -2.5028 0.9608
-9.1725 3.0529 -2.5030 0.9608
-9.2764 2.7238 -2.5032 0.9608
-9.3685 2.3912 -2.5034 0.9608
-9.6167 1.0339 -2.5043 0.9608
8.8222 0.3151 -2.4991 0.9640
8.7761 0.9435 -2.4988 0.9640
8.5503 2.1823 -2.4981 0.9640
8.2667 3.0833 -2.4977 0.9640
8.1509 3.3762 -2.4976 0.9640
7.8885 3.9487 -2.4973 0.9640
7.7422 4.2276 -2.4972 0.9640
7.2451 5.0303 -2.4969 0.9640
7.0607 5.2855 -2.4968 0.9640
6.8673 5.5340 -2.4968 0.9640
6.2359 6.2359 -2.4966 0.9640
6.0092 6.4543 -2.4965 0.9640
5.7749 6.6646 -2.4965 0.9640
5.5332 6.8663 -2.4964 0.9640
4.7532 7.3961 -2.4889 0.9641
4.0683 7.4505 -2.4031 0.9653
3.1718 7.6574 -2.3464 0.9661
2.8942 7.7596 -2.3445 0.9662
2.0482 8.0249 -2.3446 0.9662
1.1788 8.1984 -2.3448 0.9662
0.0000 8.2838 -2.3451 0.9661
-0.2957 8.2789 -2.3452 0.9661
-0.5910 8.2634 -2.3453 0.9661
-0.8856 8.2374 -2.3454 0.9661
-1.1791 8.2009 -2.3455 0.9661
-1.4711 8.1540 -2.3456 0.9661
-1.7613 8.0967 -2.3457 0.9661
-3.5637 7.8035 -2.4286 0.9650
-3.9106 7.8124 -2.4732 0.9643
-5.0353 7.2522 -2.4994 0.9640
-5.2913 7.0684 -2.4996 0.9640
-6.2453 6.2453 -2.5003 0.9639
-6.4647 6.0189 -2.5005 0.9639
-7.0727 5.2946 -2.5011 0.9639
-7.6000 4.5093 -2.5017 0.9639
-7.9036 3.9562 -2.5021 0.9639
-8.0404 3.6719 -2.5023 0.9639
-8.3889 2.7921 -2.5029 0.9639
-8.4839 2.4911 -2.5031 0.9639
-8.5680 2.1869 -2.5033 0.9639
-8.7547 1.2587 -2.5039 0.9639
-8.7947 0.9455 -2.5041 0.9639
8.1263 -0.0000 -2.4995 0.9666
8.1046 0.5797 -2.4992 0.9666
8.0782 0.8685 -2.4990 0.9666
8.0416 1.1562 -2.4989 0.9666
7.9377 1.7267 -2.4986 0.9666
7.8706 2.0089 -2.4984 0.9666
7.7064 2.5649 -2.4982 0.9666
7.6096 2.8382 -2.4981 0.9666
7.3870 3.3735 -2.4978 0.9666
7.2616 3.6349 -2.4977 0.9666
6.9832 4.1433 -2.4975 0.9666
6.8306 4.3898 -2.4974 0.9666
6.6694 4.6306 -2.4973 0.9666
6.4996 4.8656 -2.4972 0.9666
6.3216 5.0943 -2.4972 0.9666
6.1356 5.3165 -2.4971 0.9666
5.9418 5.5320 -2.4970 0.9666
5.3161 6.1351 -2.4969 0.9666
4.6297 6.6680 -2.4968 0.9666
4.3887 6.8289 -2.4968 0.9666
4.1421 6.9812 -2.4968 0.9666
3.3641 7.3664 -2.4908 0.9667
3.0970 7.4769 -2.4892 0.9667
2.7957 7.4957 -2.4606 0.9671
2.2110 7.5300 -2.4138 0.9677
1.9260 7.5459 -2.3954 0.9679
0.8175 7.6043 -2.3524 0.9685
0.5450 7.6196 -2.3496 0.9685
0.2726 7.6331 -2.3493 0.9685
-0.2734 7.6550 -2.3560 0.9685
-0.5483 7.6667 -2.3641 0.9683
-1.1055 7.6893 -2.3894 0.9680
-1.6773 7.7105 -2.4271 0.9675
-1.9706 7.7206 -2.4508 0.9672
-3.8940 7.1313 -2.4991 0.9666
-4.3933 6.8362 -2.4994 0.9666
-4.6348 6.6754 -2.4996 0.9666
-5.3229 6.1430 -2.5001 0.9666
-5.5392 5.9495 -2.5003 0.9666
-5.7484 5.7484 -2.5005 0.9666
-6.1447 5.3244 -2.5008 0.9665
-6.3313 5.1021 -2.5010 0.9665
-6.8419 4.3970 -2.5015 0.9665
-6.9950 4.1503 -2.5017 0.9665
-7.4003 3.3796 -2.5023 0.9665
-7.5167 3.1135 -2.5025 0.9665
-7.6236 2.8435 -2.5027 0.9665
-7.7208 2.5697 -2.5028 0.9665
-7.9530 1.7301 -2.5034 0.9665
-8.0573 1.1585 -2.5037 0.9665
-8.0941 0.8702 -2.5039 0.9665
-8.1205 0.5808 -2.5041 0.9665
-8.1366 0.2906 -2.5042 0.9665
7.5147 0.2684 -2.4995 0.9688
7.3983 1.3348 -2.4990 0.9688
7.3456 1.5979 -2.4988 0.9688
7.2835 1.8590 -2.4987 0.9688
7.2122 2.1177 -2.4986 0.9688
7.1317 2.3736 -2.4985 0.9688
6.9435 2.8761 -2.4982 0.9688
6.7201 3.3638 -2.4980 0.9688
6.3213 4.0625 -2.4978 0.9688
6.1721 4.2854 -2.4977 0.9688
5.4988 5.1196 -2.4974 0.9688
5.3125 5.3125 -2.4974 0.9688
4.7139 5.8496 -2.4972 0.9688
4.5021 6.0141 -2.4972 0.9688
4.2845 6.1709 -2.4972 0.9688
4.0615 6.3198 -2.4972 0.9688
3.8333 6.4608 -2.4972 0.9688
3.3627 6.7178 -2.4972 0.9688
3.1208 6.8335 -2.4972 0.9688
2.3714 7.1249 -2.4961 0.9688
2.1147 7.2019 -2.4950 0.9689
1.0670 7.4215 -2.4923 0.9689
-0.2676 7.4936 -2.4925 0.9689
-0.5350 7.4808 -2.4930 0.9689
-1.0680 7.4281 -2.4946 0.9689
-1.8585 7.2815 -2.4980 0.9688
-2.1177 7.2121 -2.4985 0.9688
-2.3738 7.1322 -2.4987 0.9688
-2.6270 7.0433 -2.4988 0.9688
-2.8769 6.9454 -2.4989 0.9688
-3.3654 6.7232 -2.4992 0.9688
-3.6034 6.5992 -2.4993 0.9688
-4.0655 6.3261 -2.4996 0.9688
-4.2890 6.1773 -2.4998 0.9688
-5.1257 5.5054 -2.5004 0.9688
-5.6860 4.9269 -2.5009 0.9688
-5.8586 4.7212 -2.5011 0.9688
-6.0238 4.5094 -2.5012 0.9688
-6.1813 4.2918 -2.5014 0.9688
-6.4726 3.8404 -2.5017 0.9688
-6.8475 3.1271 -2.5023 0.9688
-7.3587 1.6008 -2.5033 0.9688
-7.4116 1.3372 -2.5034 0.9688
-7.4551 1.0719 -2.5036 0.9688
-7.4891 0.8052 -2.5038 0.9687
6.9904 0.0000 -2.4998 0.9707
6.9856 0.2495 -2.4997 0.9707
6.9719 0.4986 -2.4996 0.9707
6.9493 0.7471 -2.4994 0.9707
6.9178 0.9946 -2.4993 0.9707
6.5464 2.4417 -2.4986 0.9708
6.4549 2.6737 -2.4985 0.9708
6.3551 2.9023 -2.4984 0.9708
6.1314 3.3480 -2.4982 0.9708
5.7378 3.9838 -2.4980 0.9708
4.5737 5.2783 -2.4976 0.9708
4.3823 5.4381 -2.4976 0.9708
3.3470 6.1296 -2.4975 0.9708
3.1261 6.2452 -2.4975 0.9708
2.9012 6.3528 -2.4975 0.9708
2.6726 6.4523 -2.4975 0.9708
1.9677 6.7013 -2.4976 0.9708
-1.4852 6.8272 -2.4986 0.9708
-1.7280 6.7701 -2.4987 0.9708
-1.9686 6.7044 -2.4988 0.9708
-2.4421 6.5475 -2.4990 0.9708
-2.6744 6.4565 -2.4991 0.9707
-3.1285 6.2499 -2.4994 0.9707
-3.3497 6.1346 -2.4995 0.9707
-3.9870 5.7423 -2.4999 0.9707
-4.5787 5.2841 -2.5004 0.9707
-4.9446 4.9446 -2.5007 0.9707
-5.4459 4.3886 -2.5011 0.9707
-5.5994 4.1917 -2.5013 0.9707
-6.0165 3.5698 -2.5018 0.9707
-6.1405 3.3530 -2.5019 0.9707
-6.2567 3.1318 -2.5021 0.9707
-6.3649 2.9067 -2.5022 0.9707
-6.5568 2.4456 -2.5026 0.9707
-6.7154 1.9718 -2.5029 0.9707
-6.7820 1.7310 -2.5030 0.9707
-6.8398 1.4879 -2.5032 0.9707
-6.9836 0.4995 -2.5038 0.9707
-6.9974 0.2499 -2.5039 0.9707
6.5236 -0.0000 -2.5000 0.9724
6.4853 0.6972 -2.4996 0.9724
6.4559 0.9282 -2.4995 0.9724
6.4184 1.1580 -2.4994 0.9724
6.3727 1.3863 -2.4992 0.9724
6.2570 1.8372 -2.4990 0.9725
6.1095 2.2787 -2.4988 0.9725
6.0240 2.4952 -2.4987 0.9725
5.8303 2.9184 -2.4985 0.9725
5.7222 3.1246 -2.4985 0.9725
5.4844 3.5246 -2.4983 0.9725
5.3549 3.7180 -2.4982 0.9725
5.2187 3.9067 -2.4982 0.9725
5.0758 4.0903 -2.4981 0.9725
4.6092 4.6092 -2.4980 0.9725
4.4417 4.7707 -2.4979 0.9725
4.0899 5.0753 -2.4979 0.9725
3.9061 5.2180 -2.4978 0.9725
3.7174 5.3540 -2.4978 0.9725
3.1237 5.7207 -2.4978 0.9725
2.7077 5.9289 -2.4978 0.9725
2.2778 6.1071 -2.4978 0.9725
1.8364 6.2541 -2.4979 0.9725
1.6120 6.3158 -2.4979 0.9725
0.9277 6.4522 -2.4980 0.9725
0.4651 6.5023 -2.4982 0.9725
0.0000 6.5192 -2.4983 0.9725
-0.2327 6.5153 -2.4984 0.9725
-0.4651 6.5030 -2.4984 0.9725
-0.9279 6.4537 -2.4986 0.9725
-1.1577 6.4167 -2.4987 0.9725
-1.3860 6.3715 -2.4988 0.9725
-1.6126 6.3182 -2.4989 0.9725
-1.8372 6.2569 -2.4990 0.9725
-2.0594 6.1876 -2.4991 0.9725
-2.2791 6.1104 -2.4992 0.9725
-2.4958 6.0255 -2.4993 0.9724
-2.7094 5.9328 -2.4994 0.9724
-3.3286 5.6100 -2.4998 0.9724
-3.9098 5.2229 -2.5002 0.9724
-4.0940 5.0803 -2.5003 0.9724
-4.4465 4.7758 -2.5006 0.9724
-4.7764 4.4469 -2.5009 0.9724
-5.3619 3.7228 -2.5015 0.9724
-5.6145 3.3312 -2.5018 0.9724
-5.9394 2.7124 -2.5022 0.9724
-6.0328 2.4989 -2.5024 0.9724
-6.4284 1.1598 -2.5032 0.9724
-6.4660 0.9297 -2.5034 0.9724
6.1086 0.0000 -2.5001 0.9739
6.1044 0.2180 -2.5000 0.9739
6.0453 0.8692 -2.4996 0.9739
6.0101 1.0844 -2.4995 0.9739
5.9674 1.2981 -2.4994 0.9740
5.9170 1.5102 -2.4993 0.9740
5.6410 2.3366 -2.4989 0.9740
5.5538 2.5363 -2.4988 0.9740
5.4595 2.7328 -2.4988 0.9740
5.3584 2.9259 -2.4987 0.9740
5.0145 3.4816 -2.4985 0.9740
4.8869 3.6583 -2.4984 0.9740
4.6133 3.9974 -2.4983 0.9740
4.4676 4.1594 -2.4983 0.9740
4.3162 4.3162 -2.4982 0.9740
3.9972 4.6130 -2.4981 0.9740
3.6578 4.8863 -2.4981 0.9740
3.4811 5.0137 -2.4981 0.9740
2.9251 5.3570 -2.4981 0.9740
2.7321 5.4580 -2.4981 0.9740
2.3358 5.6390 -2.4981 0.9740
1.9276 5.7914 -2.4981 0.9740
1.5095 5.9143 -2.4982 0.9740
1.2975 5.9645 -2.4982 0.9740
0.8687 6.0421 -2.4983 0.9740
0.6525 6.0693 -2.4983 0.9740
0.2179 6.1007 -2.4985 0.9740
-0.2179 6.1010 -2.4986 0.9740
-0.4355 6.0895 -2.4987 0.9740
-1.0841 6.0087 -2.4989 0.9740
-1.2979 5.9663 -2.4990 0.9740
-1.9285 5.7941 -2.4993 0.9740
-3.4840 5.0179 -2.5002 0.9739
-3.6611 4.8906 -2.5003 0.9739
-3.8335 4.7570 -2.5004 0.9739
-4.0010 4.6174 -2.5006 0.9739
-4.1635 4.4719 -2.5007 0.9739
-4.3207 4.3207 -2.5008 0.9739
-4.6184 4.0019 -2.5011 0.9739
-4.7586 3.8347 -2.5012 0.9739
-4.8927 3.6626 -2.5014 0.9739
-5.0206 3.4858 -2.5015 0.9739
-5.1421 3.3046 -2.5016 0.9739
-5.2570 3.1191 -2.5018 0.9739
-5.4668 2.7365 -2.5021 0.9739
-5.6487 2.3398 -2.5023 0.9739
-5.9255 1.5124 -2.5029 0.9739
-6.0189 1.0859 -2.5032 0.9739
-6.1014 0.4364 -2.5035 0.9739
-6.1134 0.2183 -2.5037 0.9739
5.7329 0.2048 -2.5001 0.9753
5.7217 0.4092 -2.5000 0.9753
5.7032 0.6132 -2.4999 0.9753
5.6774 0.8163 -2.4998 0.9753
5.6043 1.2191 -2.4996 0.9753
5.5570 1.4183 -2.4995 0.9753
5.5026 1.6157 -2.4994 0.9753
5.4412 1.8110 -2.4993 0.9753
5.3729 2.0040 -2.4992 0.9753
5.2978 2.1944 -2.4991 0.9753
5.1274 2.5666 -2.4990 0.9753
5.0324 2.7479 -2.4989 0.9753
4.8233 3.0998 -2.4987 0.9753
4.7095 3.2698 -2.4987 0.9753
4.4640 3.5973 -2.4986 0.9753
4.0537 4.0537 -2.4984 0.9753
3.5970 4.4636 -2.4984 0.9753
2.9251 4.9300 -2.4983 0.9753
2.5659 5.1261 -2.4983 0.9753
2.3813 5.2144 -2.4983 0.9753
2.1937 5.2961 -2.4983 0.9753
2.0033 5.3711 -2.4983 0.9753
1.8103 5.4392 -2.4983 0.9753
0.6128 5.7002 -2.4986 0.9753
0.4090 5.7186 -2.4986 0.9753
-0.2046 5.7299 -2.4988 0.9753
-0.4090 5.7191 -2.4989 0.9753
-0.6129 5.7010 -2.4989 0.9753
-1.2189 5.6034 -2.4992 0.9753
-1.4182 5.5565 -2.4993 0.9753
-1.6157 5.5025 -2.4993 0.9753
-2.5675 5.1293 -2.4998 0.9753
-2.9272 4.9335 -2.5001 0.9753
-3.1015 4.8261 -2.5002 0.9753
-3.2720 4.7125 -2.5003 0.9753
-3.4382 4.5929 -2.5004 0.9753
-3.9101 4.1997 -2.5008 0.9753
-4.2001 3.9104 -2.5010 0.9753
-4.5948 3.4396 -2.5014 0.9753
-4.8289 3.1034 -2.5017 0.9753
-4.9369 2.9292 -2.5018 0.9753
-5.0386 2.7513 -2.5019 0.9753
-5.1338 2.5698 -2.5021 0.9753
-5.3046 2.1972 -2.5023 0.9753
-5.3799 2.0066 -2.5024 0.9753
-5.4484 1.8134 -2.5026 0.9753
-5.5099 1.6179 -2.5027 0.9753
-5.6119 1.2208 -2.5030 0.9753
-5.7409 0.2050 -2.5036 0.9752
5.4016 -0.0000 -2.5003 0.9765
5.3979 0.1928 -2.5002 0.9765
5.3700 0.5773 -2.5000 0.9765
5.3457 0.7686 -2.4999 0.9765
5.2323 1.3355 -2.4996 0.9765
5.0591 1.8869 -2.4994 0.9765
4.9113 2.2429 -2.4992 0.9765
4.8279 2.4167 -2.4991 0.9765
4.7385 2.5874 -2.4991 0.9765
4.6430 2.7548 -2.4990 0.9765
4.4344 3.0789 -2.4989 0.9765
4.0797 3.5350 -2.4987 0.9765
3.9508 3.6783 -2.4987 0.9765
3.6782 3.9507 -2.4986 0.9765
3.5348 4.0794 -2.4986 0.9765
2.9182 4.5408 -2.4985 0.9765
2.7543 4.6421 -2.4985 0.9765
2.5868 4.7374 -2.4985 0.9765
2.4161 4.8267 -2.4985 0.9765
1.8863 5.0574 -2.4985 0.9765
1.5207 5.1792 -2.4986 0.9765
1.3349 5.2302 -2.4986 0.9765
0.9584 5.3123 -2.4987 0.9765
0.7682 5.3432 -2.4987 0.9765
0.5770 5.3673 -2.4988 0.9765
0.3851 5.3846 -2.4988 0.9765
0.1927 5.3950 -2.4989 0.9765
0.0000 5.3986 -2.4989 0.9765
-0.3851 5.3851 -2.4990 0.9765
-1.3354 5.2319 -2.4994 0.9765
-1.5213 5.1811 -2.4995 0.9765
-2.2435 4.9126 -2.4999 0.9765
-2.7561 4.6452 -2.5002 0.9765
-2.9203 4.5440 -2.5003 0.9765
-3.0807 4.4371 -2.5004 0.9765
-3.2373 4.3245 -2.5005 0.9765
-3.8205 3.8205 -2.5010 0.9765
-3.9546 3.6819 -2.5011 0.9765
-4.0837 3.5385 -2.5012 0.9765
-4.6482 2.7579 -2.5018 0.9765
-4.7439 2.5904 -2.5019 0.9765
-4.8336 2.4195 -2.5020 0.9765
-4.9944 2.0687 -2.5023 0.9765
-5.1297 1.7073 -2.5025 0.9765
-5.1876 1.5232 -2.5027 0.9765
-5.2390 1.3372 -2.5028 0.9764
-5.2836 1.1494 -2.5029 0.9764
-5.3215 0.9601 -2.5030 0.9764
-5.3769 0.5781 -2.5032 0.9764
-5.3944 0.3858 -2.5034 0.9764
-5.4050 0.1930 -2.5035 0.9764
5.0974 0.0000 -2.5004 0.9775
5.0940 0.1819 -2.5003 0.9775
5.0840 0.3636 -2.5002 0.9775
5.0676 0.5448 -2.5001 0.9775
5.0447 0.7253 -2.5000 0.9775
5.0155 0.9049 -2.4999 0.9775
4.9798 1.0833 -2.4998 0.9776
4.8895 1.4357 -2.4997 0.9776
4.8350 1.6092 -2.4996 0.9776
4.7743 1.7807 -2.4995 0.9776
4.5562 2.2807 -2.4993 0.9776
4.4718 2.4418 -2.4992 0.9776
4.3817 2.5998 -2.4992 0.9776
4.2860 2.7544 -2.4991 0.9776
3.4712 3.7284 -2.4988 0.9776
3.3359 3.8499 -2.4988 0.9776
3.1964 3.9664 -2.4988 0.9776
2.9052 4.1843 -2.4987 0.9776
1.6087 4.8333 -2.4987 0.9776
1.0829 4.9778 -2.4988 0.9776
0.9045 5.0133 -2.4989 0.9776
0.5446 5.0652 -2.4989 0.9776
0.0000 5.0947 -2.4991 0.9776
-0.3635 5.0820 -2.4992 0.9776
-0.7251 5.0434 -2.4993 0.9776
-0.9047 5.0144 -2.4994 0.9776
-1.0831 4.9791 -2.4995 0.9776
-1.2602 4.9374 -2.4996 0.9776
-1.6093 4.8352 -2.4997 0.9776
-1.7809 4.7749 -2.4998 0.9776
-1.9503 4.7084 -2.4999 0.9775
-2.4427 4.4735 -2.5002 0.9775
-2.6009 4.3836 -2.5003 0.9775
-2.7558 4.2882 -2.5004 0.9775
-3.0550 4.0810 -2.5006 0.9775
-3.1988 3.9695 -2.5007 0.9775
-3.4742 3.7315 -2.5009 0.9775
-3.6053 3.6053 -2.5010 0.9775
-4.0824 3.0561 -2.5015 0.9775
-4.1891 2.9085 -2.5016 0.9775
-4.2904 2.7573 -2.5017 0.9775
-4.3863 2.6025 -2.5018 0.9775
-4.4766 2.4444 -2.5019 0.9775
-4.9437 1.2618 -2.5027 0.9775
-5.0509 0.7262 -2.5031 0.9775
-5.0738 0.5455 -2.5032 0.9775
4.8199 0.0000 -2.5005 0.9785
4.8167 0.1720 -2.5004 0.9785
4.8073 0.3438 -2.5003 0.9785
4.7918 0.5152 -2.5002 0.9785
4.7088 1.0243 -2.4999 0.9785
4.6691 1.1917 -2.4999 0.9785
4.6234 1.3576 -2.4998 0.9785
4.4514 1.8438 -2.4996 0.9785
4.3826 2.0015 -2.4995 0.9785
4.3083 2.1566 -2.4994 0.9785
4.2285 2.3089 -2.4994 0.9785
4.1433 2.4583 -2.4993 0.9785
4.0528 2.6046 -2.4993 0.9785
3.8565 2.8869 -2.4992 0.9785
3.7509 3.0227 -2.4991 0.9785
3.6406 3.1546 -2.4991 0.9785
3.5256 3.2825 -2.4990 0.9785
3.4062 3.4062 -2.4990 0.9785
2.7472 3.9567 -2.4989 0.9785
2.6042 4.0522 -2.4989 0.9785
2.4579 4.1425 -2.4989 0.9785
2.1561 4.3073 -2.4989 0.9785
2.0010 4.3816 -2.4989 0.9785
1.6833 4.5132 -2.4989 0.9785
1.0239 4.7070 -2.4990 0.9785
0.5149 4.7897 -2.4991 0.9785
0.3437 4.8051 -2.4991 0.9785
0.0000 4.8175 -2.4992 0.9785
-0.1720 4.8146 -2.4993 0.9785
-0.5150 4.7903 -2.4994 0.9785
-1.3575 4.6234 -2.4998 0.9785
-1.8442 4.4522 -2.5000 0.9785
-2.1572 4.3096 -2.5002 0.9785
-2.3098 4.2300 -2.5003 0.9785
-2.4594 4.1450 -2.5004 0.9785
-2.6058 4.0547 -2.5005 0.9785
-2.7490 3.9593 -2.5006 0.9785
-2.8887 3.8588 -2.5007 0.9785
-3.0247 3.7534 -2.5008 0.9785
-3.2850 3.5284 -2.5010 0.9785
-3.4090 3.4090 -2.5011 0.9785
-3.8601 2.8896 -2.5015 0.9785
-4.0568 2.6071 -2.5017 0.9785
-4.3873 2.0036 -2.5021 0.9785
-4.6286 1.3591 -2.5026 0.9785
-4.6743 1.1931 -2.5027 0.9785
-4.7141 1.0255 -2.5028 0.9785
-4.7479 0.8566 -2.5029 0.9785
-4.7973 0.5158 -2.5031 0.9785
-4.8223 0.1722 -2.5033 0.9785
4.5655 0.0000 -2.5006 0.9794
4.5625 0.1629 -2.5005 0.9794
4.5536 0.3257 -2.5004 0.9794
4.5389 0.4880 -2.5003 0.9794
4.4227 1.1288 -2.5000 0.9794
4.3794 1.2859 -2.4999 0.9794
4.3306 1.4414 -2.4998 0.9794
4.2165 1.7465 -2.4997 0.9794
4.1514 1.8959 -2.4996 0.9794
4.0054 2.1871 -2.4995 0.9794
3.7484 2.6026 -2.4994 0.9794
3.6531 2.7346 -2.4993 0.9794
3.2265 3.2265 -2.4992 0.9794
2.7344 3.6527 -2.4991 0.9794
2.4668 3.8384 -2.4990 0.9794
1.8954 4.1504 -2.4990 0.9794
1.7461 4.2155 -2.4991 0.9794
1.5945 4.2751 -2.4991 0.9794
1.4409 4.3293 -2.4991 0.9794
1.2855 4.3780 -2.4991 0.9794
1.1284 4.4212 -2.4991 0.9794
0.8102 4.4905 -2.4992 0.9794
0.4878 4.5370 -2.4993 0.9794
0.3255 4.5516 -2.4993 0.9794
0.0000 4.5634 -2.4994 0.9794
-0.1629 4.5606 -2.4994 0.9794
-0.3256 4.5520 -2.4995 0.9794
-0.4878 4.5375 -2.4995 0.9794
-0.6495 4.5173 -2.4996 0.9794
-0.9702 4.4597 -2.4997 0.9794
-1.1287 4.4224 -2.4998 0.9794
-1.2859 4.3794 -2.4999 0.9794
-1.5952 4.2768 -2.5000 0.9794
-1.7468 4.2172 -2.5001 0.9794
-1.8963 4.1523 -2.5002 0.9794
-2.0434 4.0821 -2.5003 0.9794
-2.3296 3.9262 -2.5004 0.9794
-2.4683 3.8407 -2.5005 0.9794
-2.6039 3.7503 -2.5006 0.9794
-2.7362 3.6551 -2.5007 0.9794
-3.4514 2.9907 -2.5013 0.9794
-3.6563 2.7371 -2.5015 0.9794
-3.7518 2.6049 -2.5016 0.9794
-3.8426 2.4695 -2.5017 0.9794
-4.0093 2.1892 -2.5019 0.9794
-4.2208 1.7483 -2.5022 0.9794
-4.2807 1.5966 -2.5023 0.9794
-4.3352 1.4429 -2.5024 0.9794
-4.4274 1.1300 -2.5027 0.9794
-4.4651 0.9713 -2.5028 0.9794
-4.4971 0.8114 -2.5029 0.9794
-4.5439 0.4885 -2.5030 0.9794
-4.5586 0.3260 -2.5031 0.9794
-4.5675 0.1631 -2.5032 0.9794
4.3283 0.1546 -2.5005 0.9802
4.3199 0.3090 -2.5005 0.9802
4.2617 0.7689 -2.5002 0.9802
4.2314 0.9205 -2.5001 0.9802
4.1957 1.0709 -2.5001 0.9802
4.1547 1.2199 -2.5000 0.9802
4.1084 1.3674 -2.4999 0.9802
4.0569 1.5131 -2.4999 0.9802
3.7233 2.2092 -2.4996 0.9802
3.6420 2.3406 -2.4995 0.9802
3.4657 2.5944 -2.4994 0.9802
3.3708 2.7164 -2.4994 0.9802
3.0610 3.0610 -2.4993 0.9802
2.9498 3.1683 -2.4993 0.9802
2.8348 3.2715 -2.4993 0.9802
2.4688 3.5557 -2.4992 0.9802
2.2088 3.7228 -2.4992 0.9802
1.9376 3.8708 -2.4992 0.9802
1.6565 3.9992 -2.4992 0.9802
1.5127 4.0558 -2.4992 0.9802
1.0706 4.1944 -2.4993 0.9802
0.9202 4.2300 -2.4993 0.9802
0.7686 4.2602 -2.4993 0.9802
0.6161 4.2849 -2.4994 0.9802
0.1545 4.3264 -2.4995 0.9802
0.0000 4.3293 -2.4995 0.9802
-0.1545 4.3266 -2.4996 0.9802
-0.7688 4.2610 -2.4998 0.9802
-1.0708 4.1955 -2.4999 0.9802
-1.2199 4.1547 -2.5000 0.9802
-1.3675 4.1086 -2.5001 0.9802
-1.5133 4.0573 -2.5001 0.9802
-1.6572 4.0008 -2.5002 0.9802
-1.7990 3.9393 -2.5003 0.9802
-2.2100 3.7248 -2.5005 0.9802
-2.9519 3.1705 -2.5011 0.9802
-3.0633 3.0633 -2.5012 0.9802
-3.1708 2.9521 -2.5012 0.9802
-3.3736 2.7186 -2.5014 0.9802
-3.4686 2.5965 -2.5015 0.9802
-3.5592 2.4712 -2.5016 0.9802
-3.8034 2.0768 -2.5019 0.9802
-3.9422 1.8003 -2.5021 0.9802
-4.0041 1.6585 -2.5022 0.9802
-4.0609 1.5146 -2.5023 0.9802
-4.1125 1.3688 -2.5024 0.9802
-4.2661 0.7697 -2.5028 0.9802
-4.2910 0.6170 -2.5029 0.9802
-4.3105 0.4634 -2.5030 0.9802
-4.3329 0.1547 -2.5032 0.9802
