ply
format ascii 1.0
element vertex 1268
property float32 x
property float32 y
property float32 z
property float32 I
end_header
-36.8728 -29.7140 8.3500 0.8250
-34.2038 -29.6377 7.9802 0.8321
-31.7581 -29.5679 7.6511 0.8384
-25.4649 -29.3881 6.8566 0.8539
-23.6403 -29.3359 6.6432 0.8581
-21.9238 -29.2868 6.4507 0.8619
-18.7634 -29.1964 6.1196 0.8685
-15.8977 -29.1144 5.8491 0.8739
-14.5512 -29.0697 5.7321 0.8763
-4.9384 -11.9223 2.2754 0.9489
-10.8024 -28.9623 5.4505 0.8820
-9.7111 -29.1773 5.4222 0.8826
-6.5067 -29.9108 5.3974 0.8831
-4.6262 -32.1758 5.7318 0.8763
-3.5208 -32.7486 5.8077 0.8748
16.9224 -12.6680 3.7273 0.9177
39.9967 -27.7702 8.5857 0.8206
-26.6767 -14.5666 4.6563 0.8843
-31.7597 -29.5694 6.6477 0.8390
-29.5049 -29.5049 6.3922 0.8446
-27.4143 -29.4451 6.1632 0.8498
-21.9247 -29.2881 5.6047 0.8624
-20.3974 -29.3779 5.4790 0.8653
-18.7641 -29.1976 5.3170 0.8690
-14.5518 -29.0708 4.9803 0.8767
-13.9552 -30.5578 5.1463 0.8729
-10.8028 -28.9633 4.7356 0.8824
-7.3671 -28.8640 4.5635 0.8864
-6.5068 -29.9114 4.6894 0.8835
-2.3148 -12.8301 1.9972 0.9486
-3.5210 -32.7496 5.0460 0.8752
-2.4106 -33.7044 5.1765 0.8722
35.6210 -28.7052 7.0083 0.8310
39.9987 -27.7716 7.4597 0.8211
-26.6688 -14.5623 3.9568 0.8846
-25.5356 -29.4696 5.0778 0.8545
-17.8201 -30.0341 4.5477 0.8686
-18.6119 -34.0850 5.0572 0.8550
-13.9552 -30.5577 4.3745 0.8733
-10.8031 -28.9644 4.0256 0.8828
-10.0770 -30.2765 4.1553 0.8792
-9.9370 -33.8422 4.5930 0.8674
-3.5211 -32.7506 4.2894 0.8756
0.0000 -49.2419 6.4123 0.8199
1.7398 -48.7147 6.3477 0.8215
5.2266 -48.6145 6.3671 0.8210
36.0342 -33.5491 6.4113 0.8199
35.8382 -31.0540 6.1752 0.8259
-26.6609 -14.5580 3.2619 0.8850
-36.8785 -29.7186 5.0859 0.8265
-34.2092 -29.6424 4.8607 0.8335
-33.1257 -30.8411 4.8601 0.8335
-29.0256 -31.1757 4.5740 0.8425
-27.7929 -34.4889 4.7563 0.8368
-21.9266 -29.2905 3.9289 0.8631
-23.8706 -34.3803 4.4944 0.8450
-18.7656 -29.1999 3.7272 0.8697
-17.8200 -30.0340 3.7501 0.8689
-9.9406 -33.8547 3.7888 0.8677
-7.3676 -28.8660 3.1990 0.8871
-6.5071 -29.9125 3.2872 0.8841
-6.8908 -47.9266 5.1993 0.8230
-2.4105 -33.7038 3.6284 0.8729
1.7568 -49.1900 5.2855 0.8204
3.5145 -49.1395 5.2902 0.8202
5.2735 -49.0507 5.2975 0.8200
3.6673 -20.3262 2.2179 0.9203
36.0359 -33.5506 5.2871 0.8203
35.6211 -28.7053 4.9125 0.8319
40.0032 -27.7747 5.2295 0.8221
-26.6531 -14.5537 2.5707 0.8852
-37.3426 -27.9543 3.9488 0.8292
-36.8805 -29.7202 4.0096 0.8268
-34.2110 -29.6439 3.8320 0.8338
-30.0599 -27.9868 3.4768 0.8480
-29.5089 -29.5089 3.5327 0.8458
-29.0255 -31.1757 3.6059 0.8428
-25.5355 -29.4695 3.3009 0.8551
-27.8059 -34.5051 3.7513 0.8370
-21.9275 -29.2918 3.0974 0.8634
-18.7664 -29.2011 2.9384 0.8699
-17.8200 -30.0340 2.9563 0.8692
-18.6272 -34.1132 3.2902 0.8555
-13.9552 -30.5576 2.8438 0.8738
-10.8039 -28.9664 2.6171 0.8833
-10.0770 -30.2764 2.7012 0.8798
-6.1768 -21.0363 1.8560 0.9158
-7.3679 -28.8670 2.5220 0.8873
-2.3161 -12.8371 1.1042 0.9490
-2.4105 -33.7035 2.8604 0.8732
3.5146 -49.1411 4.1706 0.8206
7.0453 -49.0014 4.1908 0.8198
3.7097 -20.5616 1.7687 0.9195
4.6057 -21.1721 1.8342 0.9167
14.4677 -20.8374 2.1474 0.9032
35.8417 -31.0570 4.0147 0.8266
16.9336 -12.6763 1.7906 0.9186
40.0054 -27.7762 4.1228 0.8224
-26.6453 -14.5494 1.8826 0.8854
-36.8825 -29.7218 2.9373 0.8271
-30.2113 -28.1278 2.5597 0.8475
-25.5355 -29.4695 2.4180 0.8553
-21.9284 -29.2930 2.2690 0.8636
-18.7672 -29.2022 2.1525 0.8701
-17.8200 -30.0339 2.1656 0.8694
-18.6302 -34.1187 2.4106 0.8557
-14.5540 -29.0751 2.0162 0.8778
-13.9551 -30.5575 2.0831 0.8740
-4.9317 -11.9061 0.7991 0.9497
-7.1365 -21.4418 1.4013 0.9134
-6.1775 -21.0385 1.3597 0.9159
-5.4497 -21.3517 1.3665 0.9155
-6.5073 -29.9136 1.8983 0.8845
-3.5214 -32.7537 2.0428 0.8763
-2.4105 -33.7034 2.0953 0.8734
0.0000 -49.2470 3.0538 0.8209
1.7400 -48.7195 3.0230 0.8225
3.4809 -48.6695 3.0257 0.8224
6.9831 -48.5688 3.0427 0.8215
35.7833 -31.0065 2.9361 0.8272
23.6424 -19.0522 1.8829 0.8854
16.9363 -12.6784 1.3119 0.9187
39.6653 -27.5401 2.9944 0.8240
-26.6375 -14.5452 1.1967 0.8856
-36.8845 -29.7234 1.8678 0.8273
-25.2674 -21.8943 1.3183 0.8747
-29.0926 -27.0862 1.5674 0.8529
-29.5117 -29.5117 1.6457 0.8461
-29.0255 -31.1756 1.6796 0.8432
-25.5354 -29.4695 1.5376 0.8555
-23.7929 -34.2682 1.6450 0.8462
-18.7679 -29.2034 1.3688 0.8703
-17.8200 -30.0339 1.3770 0.8695
-18.6309 -34.1200 1.5329 0.8559
-14.5545 -29.0762 1.2821 0.8780
-13.9551 -30.5575 1.3246 0.8742
-10.0769 -30.2763 1.2582 0.8801
-7.3684 -28.8689 1.1748 0.8876
-6.5074 -29.9142 1.2071 0.8847
-3.5215 -32.7548 1.2990 0.8764
3.7289 -20.6677 0.8281 0.9194
15.6828 -47.1192 1.9582 0.8197
16.5696 -30.3451 1.3633 0.8707
36.1059 -33.6157 1.9452 0.8208
23.6203 -19.0344 1.1962 0.8856
40.0098 -27.7793 1.9206 0.8228
33.5378 -19.8989 1.5377 0.8555
29.1318 -13.3040 1.2628 0.8797
-26.6298 -14.5410 0.5125 0.8857
-33.1255 -30.8410 0.7645 0.8344
-29.5131 -29.5131 0.7050 0.8462
-29.0254 -31.1756 0.7195 0.8433
-18.6102 -34.0819 0.6559 0.8561
-14.5550 -29.0773 0.5493 0.8780
-4.9299 -11.9018 0.2176 0.9498
-10.8051 -28.9695 0.5223 0.8837
-10.0769 -30.2762 0.5390 0.8802
-6.8846 -47.8837 0.8172 0.8240
16.3625 -29.9657 0.5767 0.8723
36.1059 -33.6158 0.8333 0.8209
36.0372 -31.2265 0.8055 0.8263
35.6212 -28.7054 0.7728 0.8328
28.2175 -14.1247 0.5330 0.8814
28.0228 -12.7976 0.5204 0.8840
-36.8885 -29.7266 -0.2667 0.8274
-29.0254 -31.1755 -0.2398 0.8433
-25.5354 -29.4694 -0.2195 0.8556
-27.7377 -34.4204 -0.2489 0.8379
-21.9312 -29.2966 -0.2060 0.8638
-18.7694 -29.2057 -0.1955 0.8703
-17.8199 -30.0338 -0.1966 0.8696
-18.6323 -34.1226 -0.2189 0.8560
-9.9364 -33.8404 -0.1985 0.8684
-7.3689 -28.8709 -0.1678 0.8876
-2.3178 -12.8464 -0.0735 0.9491
-6.8973 -47.9715 -0.2729 0.8238
-2.4104 -33.7024 -0.1902 0.8736
3.7292 -20.6693 -0.1182 0.9194
36.0373 -31.2265 -0.2685 0.8263
40.0142 -27.7823 -0.2743 0.8230
-26.6143 -14.5325 -0.8538 0.8857
-36.8905 -29.7282 -1.3341 0.8273
-33.1255 -30.8409 -1.2744 0.8343
-29.0254 -31.1755 -1.1994 0.8433
-25.5353 -29.4694 -1.0980 0.8555
-27.7389 -34.4219 -1.2448 0.8379
-21.9321 -29.2979 -1.0305 0.8638
-17.8199 -30.0338 -0.9833 0.8696
-14.5561 -29.0795 -0.9157 0.8780
-13.9550 -30.5573 -0.9459 0.8742
-4.9281 -11.8974 -0.3626 0.9498
-10.0768 -30.2761 -0.8985 0.8801
-7.3691 -28.8719 -0.8390 0.8876
-6.8975 -47.9729 -1.3647 0.8237
-3.2701 -30.4165 -0.8614 0.8848
3.7293 -20.6701 -0.5914 0.9194
16.3626 -29.9658 -0.9614 0.8723
36.1060 -33.6159 -1.3891 0.8209
27.5522 -11.4125 -0.8397 0.8875
-48.9738 -5.2653 -2.4980 0.8210
-47.9848 -10.4385 -2.4904 0.8215
-47.5342 -12.1324 -2.4879 0.8216
-44.1635 -12.9676 -2.3343 0.8316
-41.1698 -15.3556 -2.2284 0.8386
-42.4007 -17.5630 -2.3275 0.8321
-26.6066 -14.5283 -1.5374 0.8857
-26.4422 -18.3592 -1.6325 0.8790
-36.0863 -29.0802 -2.3504 0.8306
-33.1254 -30.8409 -2.2953 0.8342
-29.0254 -31.1755 -2.1602 0.8432
-25.5353 -29.4693 -1.9775 0.8554
-27.6784 -34.3469 -2.2371 0.8381
-21.9330 -29.2991 -1.8561 0.8637
-18.7709 -29.2080 -1.7608 0.8702
-17.8198 -30.0337 -1.7711 0.8695
-18.6274 -34.1136 -1.9712 0.8558
-13.9550 -30.5573 -1.7037 0.8741
-10.0768 -30.2760 -1.6182 0.8800
-9.9369 -33.8421 -1.7886 0.8683
-7.3694 -28.8729 -1.5112 0.8875
-1.9345 -13.4549 -0.6894 0.9470
-2.4104 -33.7020 -1.7135 0.8734
0.0000 -47.2025 -2.3938 0.8277
1.6847 -47.1718 -2.3938 0.8277
3.3672 -47.0795 -2.3937 0.8278
13.2762 -45.2146 -2.3898 0.8280
11.9469 -35.8947 -1.9186 0.8594
11.4818 -30.7840 -1.6662 0.8767
12.6714 -27.7465 -1.5469 0.8850
14.4520 -26.4669 -1.5293 0.8862
15.4650 -26.0649 -1.5370 0.8857
18.3061 -26.3658 -1.6278 0.8794
31.7812 -34.1354 -2.3653 0.8296
32.9422 -32.9423 -2.3626 0.8298
34.0572 -31.7084 -2.3599 0.8300
35.1247 -30.4358 -2.3570 0.8302
17.6164 -12.2313 -1.0876 0.9177
40.4682 -22.0973 -2.3383 0.8314
48.2334 -8.7023 -2.4856 0.8218
48.5613 -6.9821 -2.4881 0.8216
48.8283 -5.2496 -2.4906 0.8214
-34.0221 -2.4333 -2.5009 0.8721
-33.7143 -4.8474 -2.4974 0.8723
-32.9341 -8.4059 -2.4922 0.8726
-24.9883 -12.5082 -2.0489 0.8940
-25.8935 -14.1389 -2.1632 0.8884
-26.6972 -17.1573 -2.3269 0.8805
-26.0521 -18.0883 -2.3255 0.8806
-25.4140 -19.0247 -2.3277 0.8804
-24.7417 -19.9381 -2.3298 0.8803
-14.2683 -12.3635 -1.3843 0.9271
-13.1083 -12.2043 -1.3132 0.9307
-21.7273 -23.3368 -2.3379 0.8800
-13.0189 -17.3912 -1.5929 0.9166
-18.2393 -26.2696 -2.3449 0.8796
-16.3401 -27.5400 -2.3480 0.8795
-14.3501 -28.6679 -2.3506 0.8793
-13.3248 -29.1773 -2.3519 0.8793
-4.9263 -11.8930 -0.9439 0.9497
-3.8658 -11.6148 -0.8976 0.9521
-7.3696 -28.8738 -2.1849 0.8873
-1.9252 -13.3898 -0.9919 0.9472
-1.1485 -32.1580 -2.3594 0.8789
3.7296 -20.6717 -1.5402 0.9192
6.8364 -31.4262 -2.3581 0.8790
7.9519 -31.1551 -2.3576 0.8790
10.1481 -30.4902 -2.3562 0.8791
11.2259 -30.0979 -2.3553 0.8791
13.5142 -26.9980 -2.2137 0.8860
15.4655 -26.0657 -2.2223 0.8855
16.6748 -24.0163 -2.1438 0.8894
19.1719 -25.6106 -2.3457 0.8796
21.7531 -23.3645 -2.3407 0.8798
22.5558 -22.5558 -2.3389 0.8799
17.0228 -12.7431 -1.5591 0.9183
17.5960 -12.2171 -1.5707 0.9177
26.6962 -17.1566 -2.3268 0.8805
27.2658 -16.1775 -2.3246 0.8806
27.8373 -15.2003 -2.3256 0.8806
28.3792 -14.2056 -2.3270 0.8805
28.4521 -11.7852 -2.2581 0.8838
30.1880 -10.0475 -2.3328 0.8802
32.4709 -9.5343 -2.4814 0.8731
32.8682 -8.3891 -2.4872 0.8728
33.4281 -6.0311 -2.4906 0.8726
33.6452 -4.8375 -2.4923 0.8726
33.8198 -3.6360 -2.4940 0.8725
33.9517 -2.4283 -2.4958 0.8724
34.0406 -1.2158 -2.4975 0.8723
-26.0498 -0.9304 -2.5025 0.9006
-25.9861 -1.8586 -2.5012 0.9006
-25.8892 -2.7834 -2.4998 0.9007
-25.7596 -3.7037 -2.4985 0.9007
-25.5972 -4.6183 -2.4971 0.9008
-25.4026 -5.5260 -2.4958 0.9008
-25.1759 -6.4258 -2.4945 0.9009
-24.9174 -7.3164 -2.4932 0.9009
-24.6276 -8.1969 -2.4919 0.9010
-23.9555 -9.9227 -2.4893 0.9011
-23.1261 -11.5761 -2.4828 0.9013
-20.9019 -12.4017 -2.3333 0.9070
-18.8899 -15.2225 -2.3291 0.9071
-12.9228 -12.0316 -1.6951 0.9315
-12.4963 -12.4963 -1.6966 0.9314
-11.3279 -12.1671 -1.5960 0.9354
-15.2158 -18.8816 -2.3281 0.9072
-14.5402 -19.4235 -2.3294 0.9071
-13.8450 -19.9406 -2.3306 0.9071
-13.1311 -20.4325 -2.3318 0.9070
-12.3995 -20.8982 -2.3329 0.9070
-11.6510 -21.3371 -2.3340 0.9069
-10.8866 -21.7487 -2.3350 0.9069
-4.3526 -11.6699 -1.1958 0.9512
-3.8796 -11.6563 -1.1794 0.9518
-6.8638 -23.3760 -2.3390 0.9067
-5.1812 -23.8176 -2.3401 0.9067
-1.9159 -13.3251 -1.2924 0.9473
-2.6068 -24.2466 -2.3412 0.9067
-1.1873 -16.6001 -1.5978 0.9353
-0.5894 -16.5034 -1.5854 0.9358
0.0000 -24.3913 -2.3417 0.9066
0.8706 -24.3760 -2.3417 0.9066
2.6072 -24.2501 -2.3415 0.9066
3.7183 -20.6092 -2.0105 0.9193
6.8664 -23.3847 -2.3398 0.9067
11.6588 -21.3516 -2.3355 0.9069
13.1416 -20.4487 -2.3336 0.9069
14.5532 -19.4408 -2.3314 0.9070
15.2302 -18.8995 -2.3303 0.9071
15.8866 -18.3342 -2.3290 0.9071
16.5217 -17.7456 -2.3277 0.9072
17.1347 -17.1346 -2.3264 0.9072
18.3050 -15.8614 -2.3253 0.9073
16.3600 -13.1837 -2.0172 0.9190
16.5704 -11.5050 -1.9367 0.9221
17.8316 -11.4597 -2.0350 0.9184
20.8736 -12.3849 -2.3302 0.9071
21.3120 -11.6372 -2.3312 0.9070
23.8628 -9.8843 -2.4797 0.9014
24.5907 -8.1846 -2.4882 0.9011
24.8796 -7.3053 -2.4894 0.9010
25.1373 -6.4159 -2.4907 0.9010
25.3634 -5.5175 -2.4920 0.9010
25.8485 -2.7790 -2.4959 0.9008
26.0086 -0.9289 -2.4985 0.9007
-21.0035 -1.5022 -2.5013 0.9187
-20.5404 -4.4683 -2.4970 0.9188
-20.3591 -5.1964 -2.4959 0.9188
-19.9197 -6.6299 -2.4938 0.9189
-19.6622 -7.3336 -2.4928 0.9189
-17.5900 -11.3044 -2.4837 0.9192
-11.2827 -12.1185 -1.9668 0.9355
-12.8408 -14.8191 -2.3292 0.9241
-11.1737 -16.0932 -2.3272 0.9241
-9.9921 -16.8408 -2.3261 0.9242
-8.7625 -17.5054 -2.3254 0.9242
-4.9244 -11.8887 -1.5286 0.9495
-4.3528 -11.6703 -1.4796 0.9511
-3.8797 -11.6567 -1.4593 0.9517
-5.5228 -18.8090 -2.3286 0.9241
-4.8490 -18.9981 -2.3291 0.9241
-4.1685 -19.1625 -2.3295 0.9240
-2.3212 -12.8657 -1.5529 0.9487
-2.0971 -19.5061 -2.3304 0.9240
-1.3997 -19.5701 -2.3306 0.9240
-0.5993 -16.7801 -1.9945 0.9346
0.0000 -19.6218 -2.3308 0.9240
0.7004 -19.6095 -2.3308 0.9240
1.3998 -19.5717 -2.3308 0.9240
2.0974 -19.5084 -2.3307 0.9240
4.1696 -19.1672 -2.3300 0.9240
4.8504 -19.0035 -2.3297 0.9240
5.5246 -18.8152 -2.3293 0.9240
6.8501 -18.3657 -2.3284 0.9241
8.1388 -17.8215 -2.3273 0.9241
8.7672 -17.5147 -2.3266 0.9241
9.3840 -17.1855 -2.3259 0.9242
11.7352 -15.6764 -2.3261 0.9242
12.2903 -15.2513 -2.3267 0.9241
12.8301 -14.8068 -2.3273 0.9241
13.8614 -13.8614 -2.3286 0.9241
15.2777 -12.3115 -2.3307 0.9240
14.8223 -11.0958 -2.1994 0.9281
16.1278 -11.1977 -2.3322 0.9240
17.1954 -10.2025 -2.3750 0.9226
18.3288 -10.0083 -2.4806 0.9193
18.7214 -9.3713 -2.4869 0.9191
19.3571 -8.0179 -2.4888 0.9191
20.1274 -5.9099 -2.4918 0.9190
20.3339 -5.1899 -2.4928 0.9189
20.5147 -4.4627 -2.4939 0.9189
20.6696 -3.7292 -2.4949 0.9189
20.7984 -2.9904 -2.4960 0.9188
20.9008 -2.2471 -2.4970 0.9188
21.0260 -0.7509 -2.4992 0.9187
-17.6669 0.0000 -2.5032 0.9311
-17.6493 -0.6303 -2.5023 0.9311
-17.4616 -2.5106 -2.4996 0.9312
-17.3546 -3.1311 -2.4987 0.9312
-17.0747 -4.3581 -2.4969 0.9313
-16.4936 -6.1518 -2.4942 0.9314
-16.2579 -6.7342 -2.4934 0.9314
-15.4294 -8.4251 -2.4909 0.9314
-15.1139 -8.9675 -2.4900 0.9315
-14.7795 -9.4982 -2.4893 0.9315
-14.4265 -10.0165 -2.4885 0.9315
-12.2235 -11.3805 -2.3664 0.9348
-11.6465 -11.6465 -2.3337 0.9356
-10.3269 -12.8149 -2.3319 0.9357
-9.8606 -13.1722 -2.3314 0.9357
-9.3820 -13.5127 -2.3308 0.9357
-7.8789 -14.4292 -2.3294 0.9357
-7.3575 -14.6985 -2.3290 0.9358
-6.8270 -14.9492 -2.3286 0.9358
-4.3529 -11.6707 -1.7649 0.9509
-3.1262 -12.2482 -1.7911 0.9502
-2.6586 -12.2217 -1.7722 0.9507
-1.8974 -13.1967 -1.8891 0.9476
-1.7550 -16.3235 -2.3262 0.9358
-0.5859 -16.4056 -2.3260 0.9358
0.0000 -16.4156 -2.3259 0.9358
1.7548 -16.3216 -2.3259 0.9358
2.9148 -16.1559 -2.3261 0.9358
4.6260 -15.7548 -2.3265 0.9358
5.1859 -15.5810 -2.3267 0.9358
6.8240 -14.9425 -2.3275 0.9358
6.9909 -11.7826 -1.9412 0.9462
8.8867 -13.8279 -2.3290 0.9358
9.8543 -13.1638 -2.3299 0.9357
12.0486 -11.2177 -2.3325 0.9357
12.4445 -10.7832 -2.3331 0.9356
12.8811 -10.3803 -2.3440 0.9354
14.3983 -9.9969 -2.4836 0.9316
14.7662 -9.4897 -2.4870 0.9315
15.1000 -8.9592 -2.4878 0.9315
15.4149 -8.4172 -2.4885 0.9315
15.9861 -7.3006 -2.4901 0.9315
16.2418 -6.7276 -2.4909 0.9314
16.8849 -4.9579 -2.4934 0.9314
17.0570 -4.3535 -2.4943 0.9314
17.2075 -3.7433 -2.4951 0.9313
17.5902 -1.2581 -2.4987 0.9312
17.6303 -0.6297 -2.4996 0.9312
-15.1794 -0.5421 -2.5022 0.9403
-15.0204 -2.1596 -2.4999 0.9403
-14.8188 -3.2236 -2.4983 0.9404
-14.6898 -3.7493 -2.4976 0.9404
-14.5421 -4.2700 -2.4968 0.9404
-14.3761 -4.7848 -2.4960 0.9404
-13.9898 -5.7948 -2.4946 0.9405
-12.4173 -8.6215 -2.4903 0.9406
-10.2718 -11.0327 -2.4833 0.9407
-9.7634 -11.2676 -2.4561 0.9413
-8.0784 -11.6350 -2.3335 0.9442
-7.6565 -11.9137 -2.3330 0.9442
-6.7847 -12.4253 -2.3322 0.9442
-4.3531 -11.6711 -2.0521 0.9508
-2.2088 -12.2425 -2.0494 0.9508
-1.7598 -12.2395 -2.0371 0.9511
-1.3156 -12.2365 -2.0274 0.9513
-1.0087 -14.1036 -2.3293 0.9443
-0.5047 -14.1301 -2.3293 0.9443
1.0086 -14.1026 -2.3292 0.9443
2.0122 -13.9952 -2.3293 0.9443
2.5105 -13.9149 -2.3293 0.9443
3.4972 -13.7018 -2.3296 0.9443
4.4664 -13.4193 -2.3299 0.9443
4.9429 -13.2525 -2.3301 0.9443
5.8770 -12.8688 -2.3306 0.9443
6.3333 -12.6523 -2.3309 0.9443
7.6527 -11.9078 -2.3319 0.9442
8.0741 -11.6289 -2.3322 0.9442
8.4855 -11.3353 -2.3326 0.9442
8.8862 -11.0271 -2.3330 0.9442
9.7883 -10.5134 -2.3664 0.9434
11.0247 -10.2644 -2.4815 0.9408
11.7561 -9.4737 -2.4873 0.9406
13.2680 -7.2449 -2.4904 0.9406
13.7585 -6.2833 -2.4917 0.9405
14.1797 -5.2887 -2.4931 0.9405
14.3635 -4.7806 -2.4939 0.9405
14.5293 -4.2662 -2.4946 0.9405
14.8055 -3.2207 -2.4961 0.9404
15.0066 -2.1576 -2.4976 0.9404
15.1317 -1.0822 -2.4992 0.9404
15.1654 -0.5416 -2.4999 0.9403
-13.3039 -0.4751 -2.5022 0.9473
-13.2748 -0.9494 -2.5015 0.9473
-13.1660 -1.8930 -2.5001 0.9473
-12.6036 -4.1949 -2.4968 0.9474
-12.4426 -4.6409 -2.4961 0.9474
-12.2659 -5.0807 -2.4955 0.9474
-11.6436 -6.3579 -2.4936 0.9474
-11.4065 -6.7678 -2.4929 0.9474
-11.1550 -7.1689 -2.4923 0.9475
-9.6940 -9.0254 -2.4896 0.9475
-9.3637 -9.3637 -2.4890 0.9475
-8.6685 -10.0040 -2.4881 0.9475
-7.9298 -10.5930 -2.4871 0.9476
-7.5387 -10.8577 -2.4845 0.9476
-7.1327 -11.0987 -2.4798 0.9477
-5.1578 -11.2940 -2.3337 0.9507
-4.3379 -11.6304 -2.3332 0.9507
-3.8925 -11.6950 -2.3168 0.9511
-3.4965 -11.9079 -2.3327 0.9507
-1.3040 -12.1289 -2.2929 0.9516
-0.4428 -12.3977 -2.3318 0.9508
0.4428 -12.3973 -2.3317 0.9508
1.3261 -12.3343 -2.3317 0.9508
1.7655 -12.2793 -2.3318 0.9508
2.2027 -12.2089 -2.3318 0.9508
2.6372 -12.1229 -2.3319 0.9508
3.0684 -12.0217 -2.3320 0.9508
4.3367 -11.6272 -2.3325 0.9507
4.7494 -11.4660 -2.3327 0.9507
5.5563 -11.1002 -2.3332 0.9507
6.3356 -10.6780 -2.3337 0.9507
7.3612 -10.6021 -2.4260 0.9488
7.9026 -10.5567 -2.4786 0.9477
8.2899 -10.2872 -2.4833 0.9476
8.6639 -9.9987 -2.4867 0.9476
10.0060 -8.6702 -2.4886 0.9475
10.3111 -8.3092 -2.4891 0.9475
11.1474 -7.1640 -2.4907 0.9475
11.3986 -6.7631 -2.4912 0.9475
11.8575 -5.9354 -2.4924 0.9475
12.2567 -5.0769 -2.4936 0.9474
12.4332 -4.6373 -2.4942 0.9474
12.5940 -4.1917 -2.4948 0.9474
12.7388 -3.7405 -2.4955 0.9474
12.8676 -3.2843 -2.4961 0.9474
12.9800 -2.8236 -2.4968 0.9474
13.2931 -0.4748 -2.5002 0.9473
-11.8297 -0.4225 -2.5022 0.9528
-11.7637 -1.2647 -2.5009 0.9528
-11.6378 -2.0997 -2.4997 0.9528
-11.5527 -2.5131 -2.4991 0.9528
-11.0669 -4.1277 -2.4967 0.9529
-10.9100 -4.5191 -2.4962 0.9529
-10.7393 -4.9045 -2.4956 0.9529
-10.1467 -6.0203 -2.4939 0.9529
-9.9233 -6.3773 -2.4934 0.9529
-9.1791 -7.3970 -2.4919 0.9529
-8.9075 -7.7184 -2.4914 0.9530
-8.6247 -8.0299 -2.4909 0.9530
-8.3310 -8.3310 -2.4905 0.9530
-7.7128 -8.9010 -2.4896 0.9530
-7.0558 -9.4255 -2.4888 0.9530
-6.7139 -9.6699 -2.4884 0.9530
-6.3636 -9.9019 -2.4880 0.9530
-5.2666 -10.5213 -2.4871 0.9530
-4.0993 -10.9906 -2.4795 0.9532
-3.6707 -11.0287 -2.4570 0.9536
1.9603 -10.8654 -2.3338 0.9559
2.3528 -10.8157 -2.3397 0.9558
2.7554 -10.7956 -2.3551 0.9555
3.1642 -10.7761 -2.3740 0.9551
3.5799 -10.7558 -2.3962 0.9547
4.0037 -10.7344 -2.4217 0.9542
4.4371 -10.7121 -2.4509 0.9537
4.8715 -10.6672 -2.4788 0.9532
5.2551 -10.4984 -2.4817 0.9531
5.6334 -10.3169 -2.4847 0.9531
6.0031 -10.1176 -2.4868 0.9530
6.7112 -9.6659 -2.4874 0.9530
7.7092 -8.8968 -2.4884 0.9530
8.0230 -8.6173 -2.4888 0.9530
8.6202 -8.0256 -2.4896 0.9530
8.9026 -7.7142 -2.4900 0.9530
9.4337 -7.0620 -2.4909 0.9530
9.6816 -6.7221 -2.4914 0.9530
9.9173 -6.3735 -2.4919 0.9529
10.3509 -5.6520 -2.4929 0.9529
10.7323 -4.9013 -2.4940 0.9529
11.0595 -4.1250 -2.4951 0.9529
11.5445 -2.5114 -2.4974 0.9528
11.6296 -2.0982 -2.4979 0.9528
11.7553 -1.2638 -2.4991 0.9528
11.7957 -0.8436 -2.4998 0.9528
11.8212 -0.4222 -2.5004 0.9528
-10.6487 0.0000 -2.5027 0.9572
-10.6395 -0.3800 -2.5021 0.9572
-10.5807 -1.1375 -2.5010 0.9572
-10.4680 -1.8886 -2.4999 0.9572
-10.3916 -2.2606 -2.4994 0.9572
-10.1995 -2.9948 -2.4983 0.9573
-9.9556 -3.7133 -2.4973 0.9573
-9.8147 -4.0654 -2.4967 0.9573
-9.6614 -4.4122 -2.4962 0.9573
-9.4958 -4.7533 -2.4957 0.9573
-9.1289 -5.4164 -2.4947 0.9573
-8.9280 -5.7377 -2.4942 0.9573
-8.7159 -6.0516 -2.4938 0.9573
-8.2590 -6.6555 -2.4929 0.9574
-8.0148 -6.9448 -2.4924 0.9574
-7.4964 -7.4964 -2.4916 0.9574
-7.2229 -7.7579 -2.4912 0.9574
-6.9403 -8.0096 -2.4908 0.9574
-6.6490 -8.2509 -2.4904 0.9574
-5.7266 -8.9107 -2.4894 0.9574
-5.4042 -9.1083 -2.4891 0.9574
-4.7396 -9.4685 -2.4885 0.9574
-4.3981 -9.6306 -2.4883 0.9574
-4.0512 -9.7805 -2.4880 0.9574
-3.6992 -9.9179 -2.4878 0.9574
-1.1307 -10.5172 -2.4860 0.9575
-0.3773 -10.5650 -2.4846 0.9575
0.0000 -10.5701 -2.4842 0.9575
0.3772 -10.5628 -2.4841 0.9575
0.7540 -10.5429 -2.4842 0.9575
1.5048 -10.4659 -2.4850 0.9575
1.8779 -10.4088 -2.4858 0.9575
2.2491 -10.3390 -2.4867 0.9575
2.6168 -10.2526 -2.4868 0.9575
2.9812 -10.1531 -2.4870 0.9575
4.0502 -9.7781 -2.4874 0.9574
4.3970 -9.6280 -2.4876 0.9574
4.7382 -9.4657 -2.4878 0.9574
6.0395 -8.6986 -2.4888 0.9574
6.6463 -8.2476 -2.4894 0.9574
7.7568 -7.2218 -2.4908 0.9574
8.0109 -6.9415 -2.4912 0.9574
8.2548 -6.6522 -2.4916 0.9574
8.7113 -6.0484 -2.4925 0.9574
9.3130 -5.0853 -2.4938 0.9573
9.6557 -4.4096 -2.4948 0.9573
9.8088 -4.0629 -2.4952 0.9573
9.9496 -3.7110 -2.4957 0.9573
10.0778 -3.3542 -2.4962 0.9573
10.1932 -2.9930 -2.4968 0.9573
10.2956 -2.6278 -2.4973 0.9573
10.5739 -1.1368 -2.4994 0.9572
10.6100 -0.7588 -2.5000 0.9572
-9.6656 0.0000 -2.5026 0.9608
-9.6576 -0.3449 -2.5021 0.9609
-9.6372 -0.6893 -2.5016 0.9609
-9.5596 -1.3745 -2.5006 0.9609
-9.4335 -2.0521 -2.4996 0.9609
-9.3524 -2.3871 -2.4991 0.9609
-9.1547 -3.0470 -2.4982 0.9609
-9.0384 -3.3712 -2.4977 0.9609
-8.7716 -4.0058 -2.4967 0.9609
-8.6214 -4.3156 -2.4963 0.9609
-7.9139 -5.4947 -2.4945 0.9610
-7.7115 -5.7727 -2.4941 0.9610
-7.4993 -6.0433 -2.4937 0.9610
-7.2776 -6.3061 -2.4933 0.9610
-7.0468 -6.5608 -2.4929 0.9610
-6.3024 -7.2733 -2.4918 0.9610
-6.0379 -7.4926 -2.4915 0.9610
-5.4866 -7.9023 -2.4909 0.9610
-4.6089 -8.4406 -2.4900 0.9610
-4.3043 -8.5989 -2.4898 0.9610
-3.9943 -8.7462 -2.4895 0.9611
-3.6792 -8.8824 -2.4893 0.9611
-3.3596 -9.0073 -2.4891 0.9611
-2.0429 -9.3913 -2.4884 0.9611
-1.7064 -9.4578 -2.4883 0.9611
-1.3677 -9.5122 -2.4882 0.9611
-1.0272 -9.5547 -2.4881 0.9611
0.3430 -9.6029 -2.4880 0.9611
0.6855 -9.5846 -2.4880 0.9611
1.3675 -9.5114 -2.4880 0.9611
1.7062 -9.4568 -2.4881 0.9611
2.0427 -9.3901 -2.4881 0.9611
2.7076 -9.2212 -2.4883 0.9611
3.6784 -8.8804 -2.4887 0.9611
3.9933 -8.7441 -2.4889 0.9611
4.3032 -8.5966 -2.4891 0.9611
5.1988 -8.0895 -2.4898 0.9610
5.4848 -7.8996 -2.4900 0.9610
5.7639 -7.6997 -2.4903 0.9610
6.0357 -7.4899 -2.4906 0.9610
6.3000 -7.2705 -2.4909 0.9610
6.8043 -6.8043 -2.4915 0.9610
7.7078 -5.7700 -2.4929 0.9610
7.9101 -5.4921 -2.4933 0.9610
8.2844 -4.9154 -2.4941 0.9610
8.4560 -4.6173 -2.4945 0.9610
9.1496 -3.0453 -2.4968 0.9609
9.2542 -2.7173 -2.4972 0.9609
9.3471 -2.3857 -2.4977 0.9609
9.4281 -2.0509 -2.4982 0.9609
9.4971 -1.7135 -2.4987 0.9609
-8.8328 -0.3155 -2.5021 0.9639
-8.8143 -0.6304 -2.5016 0.9639
-8.7845 -0.9444 -2.5012 0.9639
-8.6916 -1.5681 -2.5003 0.9639
-8.4696 -2.4869 -2.4989 0.9640
-8.3740 -2.7871 -2.4985 0.9640
-7.8867 -3.9478 -2.4968 0.9640
-7.7395 -4.2261 -2.4963 0.9640
-7.4159 -4.7659 -2.4955 0.9640
-7.0548 -5.2812 -2.4948 0.9640
-6.6581 -5.7693 -2.4940 0.9640
-6.4470 -6.0024 -2.4937 0.9640
-5.2755 -7.0472 -2.4921 0.9641
-5.0200 -7.2302 -2.4918 0.9641
-4.2171 -7.7230 -2.4910 0.9641
-3.9383 -7.8678 -2.4908 0.9641
-3.6547 -8.0027 -2.4906 0.9641
-3.0740 -8.2417 -2.4902 0.9641
-2.7777 -8.3456 -2.4900 0.9641
-2.4779 -8.4389 -2.4899 0.9641
-2.1750 -8.5215 -2.4897 0.9641
-1.8693 -8.5932 -2.4896 0.9641
-1.2514 -8.7040 -2.4894 0.9641
-0.9399 -8.7428 -2.4893 0.9641
-0.6273 -8.7706 -2.4892 0.9641
0.3138 -8.7870 -2.4891 0.9641
0.6273 -8.7702 -2.4891 0.9641
1.2513 -8.7033 -2.4892 0.9641
1.5612 -8.6533 -2.4892 0.9641
2.1747 -8.5204 -2.4894 0.9641
3.0734 -8.2402 -2.4897 0.9641
3.9374 -7.8659 -2.4902 0.9641
5.0185 -7.2280 -2.4910 0.9641
5.7641 -6.6522 -2.4918 0.9641
5.9986 -6.4429 -2.4921 0.9641
6.2255 -6.2255 -2.4924 0.9641
6.4445 -6.0000 -2.4927 0.9641
6.6554 -5.7669 -2.4930 0.9641
7.2367 -5.0245 -2.4941 0.9640
7.4125 -4.7637 -2.4944 0.9640
8.6240 -1.8760 -2.4985 0.9640
8.7390 -1.2565 -2.4994 0.9640
8.8095 -0.6301 -2.5003 0.9639
-8.1361 0.0000 -2.5025 0.9665
-8.1296 -0.2903 -2.5021 0.9665
-8.0479 -1.1571 -2.5008 0.9665
-7.9422 -1.7277 -2.5000 0.9666
-7.7961 -2.2892 -2.4992 0.9666
-7.7082 -2.5655 -2.4987 0.9666
-7.6105 -2.8386 -2.4983 0.9666
-6.6650 -4.6276 -2.4957 0.9666
-6.3161 -5.0898 -2.4950 0.9666
-6.1296 -5.3113 -2.4947 0.9666
-5.9353 -5.5260 -2.4943 0.9666
-4.6218 -6.6567 -2.4926 0.9667
-4.1344 -6.9681 -2.4921 0.9667
-3.8827 -7.1106 -2.4919 0.9667
-3.3650 -7.3683 -2.4915 0.9667
-3.0996 -7.4831 -2.4913 0.9667
-2.8303 -7.5884 -2.4911 0.9667
-0.8655 -8.0500 -2.4903 0.9667
-0.5776 -8.0756 -2.4902 0.9667
-0.2890 -8.0909 -2.4902 0.9667
0.0000 -8.0960 -2.4902 0.9667
0.5776 -8.0753 -2.4901 0.9667
0.8654 -8.0496 -2.4902 0.9667
1.1522 -8.0137 -2.4902 0.9667
1.7210 -7.9114 -2.4903 0.9667
2.5571 -7.6829 -2.4906 0.9667
3.0990 -7.4817 -2.4908 0.9667
3.3643 -7.3667 -2.4910 0.9667
3.6253 -7.2424 -2.4911 0.9667
4.1333 -6.9664 -2.4915 0.9667
4.3797 -6.8150 -2.4917 0.9667
5.3070 -6.1246 -2.4926 0.9667
5.5228 -5.9319 -2.4929 0.9667
5.7316 -5.7316 -2.4931 0.9666
6.1273 -5.3093 -2.4937 0.9666
6.3137 -5.0879 -2.4940 0.9666
6.9772 -4.1398 -2.4953 0.9666
7.1215 -3.8886 -2.4957 0.9666
7.2568 -3.6325 -2.4961 0.9666
7.4997 -3.1065 -2.4968 0.9666
7.7046 -2.5643 -2.4976 0.9666
7.7924 -2.2881 -2.4980 0.9666
7.9962 -1.4427 -2.4992 0.9666
8.0439 -1.1565 -2.4996 0.9666
8.0814 -0.8688 -2.5000 0.9666
8.1086 -0.5799 -2.5004 0.9666
-7.5283 0.0000 -2.5024 0.9688
-7.5068 -0.5369 -2.5017 0.9688
-7.4817 -0.8044 -2.5013 0.9688
-7.4470 -1.0707 -2.5009 0.9688
-7.4029 -1.3356 -2.5005 0.9688
-7.1331 -2.3741 -2.4990 0.9688
-6.7187 -3.3631 -2.4975 0.9688
-6.5935 -3.6003 -2.4972 0.9688
-6.4599 -3.8328 -2.4968 0.9688
-6.1683 -4.2827 -2.4961 0.9688
-5.8456 -4.7107 -2.4955 0.9689
-5.6730 -4.9157 -2.4952 0.9689
-5.4933 -5.1144 -2.4949 0.9689
-5.3066 -5.3066 -2.4946 0.9689
-5.1132 -5.4920 -2.4943 0.9689
-4.9134 -5.6704 -2.4940 0.9689
-4.4955 -6.0052 -2.4935 0.9689
-4.0548 -6.3094 -2.4931 0.9689
-3.5938 -6.5815 -2.4926 0.9689
-3.3563 -6.7050 -2.4924 0.9689
-3.1146 -6.8201 -2.4922 0.9689
-2.3673 -7.1125 -2.4918 0.9689
-2.1118 -7.1921 -2.4916 0.9689
-1.5932 -7.3238 -2.4914 0.9689
-1.0666 -7.4182 -2.4912 0.9689
-0.8011 -7.4514 -2.4912 0.9689
-0.5346 -7.4751 -2.4911 0.9689
-0.2675 -7.4893 -2.4911 0.9689
0.0000 -7.4939 -2.4910 0.9689
0.2675 -7.4891 -2.4910 0.9689
0.8011 -7.4510 -2.4910 0.9689
1.0665 -7.4178 -2.4911 0.9689
1.3306 -7.3751 -2.4911 0.9689
1.5930 -7.3231 -2.4912 0.9689
1.8534 -7.2617 -2.4912 0.9689
2.1115 -7.1912 -2.4913 0.9689
2.3669 -7.1115 -2.4914 0.9689
2.8685 -6.9252 -2.4916 0.9689
3.3556 -6.7037 -2.4919 0.9689
3.8258 -6.4481 -2.4923 0.9689
4.2767 -6.1596 -2.4926 0.9689
4.7061 -5.8399 -2.4931 0.9689
4.9120 -5.6687 -2.4933 0.9689
5.1117 -5.4903 -2.4935 0.9689
5.6710 -4.9140 -2.4943 0.9689
5.8435 -4.7090 -2.4946 0.9689
6.0085 -4.4979 -2.4949 0.9689
6.3157 -4.0588 -2.4955 0.9689
6.4573 -3.8313 -2.4958 0.9688
6.7160 -3.3618 -2.4965 0.9688
6.9406 -2.8749 -2.4972 0.9688
7.1300 -2.3731 -2.4979 0.9688
7.2113 -2.1174 -2.4983 0.9688
7.2833 -1.8590 -2.4986 0.9688
7.3461 -1.5981 -2.4990 0.9688
7.3996 -1.3350 -2.4994 0.9688
7.4436 -1.0702 -2.4998 0.9688
7.4782 -0.8040 -2.5001 0.9688
7.5033 -0.5366 -2.5005 0.9688
7.5189 -0.2685 -2.5009 0.9688
-6.9976 0.0000 -2.5024 0.9707
-6.8815 -1.2416 -2.5006 0.9707
-6.8318 -1.4862 -2.5002 0.9707
-6.7734 -1.7288 -2.4999 0.9707
-6.6310 -2.2070 -2.4992 0.9707
-6.4549 -2.6737 -2.4985 0.9708
-6.3545 -2.9020 -2.4982 0.9708
-6.2460 -3.1265 -2.4978 0.9708
-6.1296 -3.3470 -2.4975 0.9708
-6.0055 -3.5632 -2.4972 0.9708
-5.8737 -3.7748 -2.4969 0.9708
-5.7345 -3.9816 -2.4965 0.9708
-5.5881 -4.1832 -2.4962 0.9708
-5.4346 -4.3795 -2.4959 0.9708
-5.2742 -4.5701 -2.4957 0.9708
-4.7539 -5.1061 -2.4948 0.9708
-4.5682 -5.2719 -2.4946 0.9708
-4.3767 -5.4311 -2.4943 0.9708
-3.9773 -5.7284 -2.4939 0.9708
-3.7700 -5.8662 -2.4937 0.9708
-3.3414 -6.1193 -2.4933 0.9708
-2.6676 -6.4400 -2.4928 0.9708
-2.4358 -6.5308 -2.4926 0.9708
-1.9635 -6.6872 -2.4923 0.9708
-1.4813 -6.8097 -2.4921 0.9708
-1.2373 -6.8579 -2.4920 0.9708
-0.9917 -6.8975 -2.4920 0.9708
-0.7449 -6.9283 -2.4919 0.9708
-0.4971 -6.9504 -2.4919 0.9708
-0.2487 -6.9636 -2.4918 0.9708
0.0000 -6.9680 -2.4918 0.9708
0.2487 -6.9635 -2.4918 0.9708
0.7448 -6.9280 -2.4918 0.9708
2.6671 -6.4390 -2.4924 0.9708
3.3407 -6.1180 -2.4928 0.9708
3.5572 -5.9953 -2.4929 0.9708
3.9764 -5.7270 -2.4933 0.9708
4.1786 -5.5819 -2.4935 0.9708
4.7525 -5.1046 -2.4941 0.9708
4.9322 -4.9322 -2.4944 0.9708
5.2725 -4.5687 -2.4949 0.9708
5.5862 -4.1818 -2.4954 0.9708
5.7325 -3.9802 -2.4957 0.9708
5.8716 -3.7735 -2.4960 0.9708
6.1273 -3.3458 -2.4966 0.9708
6.6283 -2.2061 -2.4982 0.9708
6.7037 -1.9684 -2.4985 0.9708
6.7706 -1.7281 -2.4989 0.9708
6.8290 -1.4856 -2.4992 0.9707
6.8786 -1.2410 -2.4996 0.9707
6.9195 -0.9949 -2.4999 0.9707
-6.5299 0.0000 -2.5024 0.9724
-6.5115 -0.4657 -2.5017 0.9724
-6.4898 -0.6977 -2.5014 0.9724
-6.4599 -0.9288 -2.5010 0.9724
-6.4218 -1.1586 -2.5007 0.9724
-6.1883 -2.0597 -2.4994 0.9724
-6.0240 -2.4952 -2.4987 0.9725
-5.8292 -2.9179 -2.4981 0.9725
-5.7206 -3.1237 -2.4978 0.9725
-5.6048 -3.3255 -2.4975 0.9725
-5.3521 -3.7160 -2.4969 0.9725
-5.0722 -4.0874 -2.4963 0.9725
-4.9225 -4.2654 -2.4961 0.9725
-4.6048 -4.6048 -2.4956 0.9725
-4.4370 -4.7657 -2.4953 0.9725
-4.0850 -5.0692 -2.4948 0.9725
-3.5188 -5.4754 -2.4942 0.9725
-3.1188 -5.7116 -2.4938 0.9725
-2.9127 -5.8189 -2.4937 0.9725
-2.7030 -5.9188 -2.4935 0.9725
-2.2736 -6.0958 -2.4932 0.9725
-2.0545 -6.1728 -2.4931 0.9725
-1.8328 -6.2419 -2.4930 0.9725
-1.6088 -6.3030 -2.4929 0.9725
-1.3827 -6.3562 -2.4928 0.9725
-0.9257 -6.4383 -2.4926 0.9725
-0.4640 -6.4876 -2.4925 0.9725
0.0000 -6.5040 -2.4925 0.9725
0.2321 -6.4999 -2.4924 0.9725
0.4640 -6.4874 -2.4924 0.9725
0.6952 -6.4668 -2.4925 0.9725
0.9256 -6.4379 -2.4925 0.9725
1.1548 -6.4008 -2.4925 0.9725
1.3826 -6.3557 -2.4926 0.9725
1.6086 -6.3024 -2.4926 0.9725
1.8326 -6.2412 -2.4927 0.9725
2.4895 -6.0102 -2.4930 0.9725
2.7026 -5.9178 -2.4931 0.9725
2.9122 -5.8179 -2.4932 0.9725
3.5181 -5.4742 -2.4937 0.9725
3.7115 -5.3455 -2.4939 0.9725
3.9002 -5.2100 -2.4940 0.9725
4.4358 -4.7644 -2.4946 0.9725
4.9211 -4.2641 -2.4953 0.9725
5.0706 -4.0862 -2.4956 0.9725
5.2138 -3.9030 -2.4958 0.9725
5.3503 -3.7148 -2.4961 0.9725
5.4801 -3.5218 -2.4964 0.9725
5.6029 -3.3244 -2.4966 0.9725
5.8271 -2.9169 -2.4972 0.9725
5.9282 -2.7073 -2.4975 0.9725
6.1078 -2.2781 -2.4981 0.9725
6.1859 -2.0589 -2.4984 0.9725
6.3187 -1.6127 -2.4991 0.9725
6.4574 -0.9284 -2.5000 0.9724
6.4873 -0.6975 -2.5004 0.9724
6.5089 -0.4655 -2.5007 0.9724
-6.1141 0.0000 -2.5023 0.9739
-6.1094 -0.2182 -2.5020 0.9739
-6.0488 -0.8697 -2.5011 0.9739
-6.0131 -1.0849 -2.5008 0.9739
-5.9698 -1.2987 -2.5004 0.9739
-5.9189 -1.5107 -2.5001 0.9739
-5.8605 -1.7208 -2.4998 0.9739
-5.7947 -1.9286 -2.4995 0.9739
-5.7214 -2.1340 -2.4992 0.9740
-5.6410 -2.3366 -2.4989 0.9740
-5.4586 -2.7324 -2.4983 0.9740
-5.1335 -3.2991 -2.4975 0.9740
-5.0120 -3.4799 -2.4972 0.9740
-4.8840 -3.6561 -2.4970 0.9740
-4.7499 -3.8277 -2.4967 0.9740
-4.6098 -3.9944 -2.4964 0.9740
-4.4639 -4.1560 -2.4962 0.9740
-3.9929 -4.6081 -2.4955 0.9740
-3.4766 -5.0073 -2.4949 0.9740
-3.2954 -5.1278 -2.4947 0.9740
-2.9208 -5.3491 -2.4944 0.9740
-1.9241 -5.7811 -2.4937 0.9740
-1.7165 -5.8458 -2.4935 0.9740
-1.5067 -5.9031 -2.4934 0.9740
-1.2950 -5.9529 -2.4934 0.9740
-1.0816 -5.9952 -2.4933 0.9740
-0.8670 -6.0298 -2.4932 0.9740
1.0816 -5.9948 -2.4931 0.9740
1.2949 -5.9524 -2.4932 0.9740
2.1291 -5.7082 -2.4934 0.9740
2.3315 -5.6288 -2.4935 0.9740
2.9203 -5.3481 -2.4939 0.9740
3.1095 -5.2408 -2.4941 0.9740
3.4759 -5.0062 -2.4944 0.9740
3.6526 -4.8793 -2.4945 0.9740
4.1542 -4.4619 -2.4951 0.9740
4.6085 -3.9933 -2.4957 0.9740
5.2469 -3.1131 -2.4970 0.9740
5.4568 -2.7315 -2.4975 0.9740
5.5514 -2.5352 -2.4978 0.9740
5.6390 -2.3357 -2.4981 0.9740
5.7194 -2.1332 -2.4983 0.9740
6.0109 -1.0845 -2.4998 0.9739
6.0745 -0.6531 -2.5005 0.9739
6.0947 -0.4359 -2.5008 0.9739
-5.7373 -0.2049 -2.5020 0.9753
-5.7067 -0.6135 -2.5014 0.9753
-5.6065 -1.2196 -2.5005 0.9753
-5.5587 -1.4188 -2.5002 0.9753
-5.5039 -1.6161 -2.5000 0.9753
-5.3733 -2.0042 -2.4994 0.9753
-5.2155 -2.3818 -2.4988 0.9753
-4.9294 -2.9248 -2.4980 0.9753
-4.7072 -3.2683 -2.4975 0.9753
-4.5871 -3.4339 -2.4973 0.9753
-4.3297 -3.7517 -2.4968 0.9753
-3.7503 -4.3281 -2.4959 0.9753
-3.5932 -4.4589 -2.4957 0.9753
-3.4315 -4.5839 -2.4955 0.9753
-3.2654 -4.7031 -2.4953 0.9753
-3.0953 -4.8163 -2.4951 0.9753
-2.3777 -5.2065 -2.4945 0.9753
-2.0000 -5.3623 -2.4943 0.9753
-1.6123 -5.4909 -2.4940 0.9753
-1.4152 -5.5447 -2.4940 0.9753
-1.2164 -5.5915 -2.4939 0.9753
-1.0160 -5.6312 -2.4938 0.9753
-0.6116 -5.6891 -2.4937 0.9753
-0.2042 -5.7181 -2.4936 0.9753
-0.0000 -5.7217 -2.4936 0.9753
0.2042 -5.7180 -2.4936 0.9753
0.4082 -5.7071 -2.4936 0.9753
1.2163 -5.5911 -2.4937 0.9753
1.8071 -5.4295 -2.4939 0.9753
1.9998 -5.3617 -2.4940 0.9753
2.7430 -5.0234 -2.4944 0.9753
2.9207 -4.9225 -2.4945 0.9753
3.0947 -4.8154 -2.4947 0.9753
3.7495 -4.3271 -2.4953 0.9753
3.9018 -4.1909 -2.4955 0.9753
4.0492 -4.0492 -2.4957 0.9753
4.1915 -3.9025 -2.4959 0.9753
4.4600 -3.5941 -2.4963 0.9753
4.7059 -3.2674 -2.4968 0.9753
4.8200 -3.0976 -2.4970 0.9753
4.9279 -2.9239 -2.4973 0.9753
5.2961 -2.1937 -2.4983 0.9753
5.3716 -2.0035 -2.4986 0.9753
5.5020 -1.6155 -2.4991 0.9753
5.5568 -1.4183 -2.4994 0.9753
5.6045 -1.2192 -2.4997 0.9753
5.7237 -0.4094 -2.5008 0.9753
5.7353 -0.2048 -2.5011 0.9753
-5.4018 -0.1929 -2.5020 0.9765
-5.2788 -1.1483 -2.5006 0.9765
-5.2338 -1.3359 -2.5003 0.9765
-5.1823 -1.5217 -2.5001 0.9765
-5.0594 -1.8871 -2.4995 0.9765
-4.9109 -2.2427 -2.4990 0.9765
-4.8272 -2.4163 -2.4987 0.9765
-4.6416 -2.7540 -2.4982 0.9765
-4.5399 -2.9176 -2.4980 0.9765
-4.0770 -3.5327 -2.4971 0.9765
-3.6750 -3.9473 -2.4964 0.9765
-3.5315 -4.0756 -2.4962 0.9765
-3.2313 -4.3165 -2.4959 0.9765
-3.0750 -4.4288 -2.4957 0.9765
-2.0626 -4.9795 -2.4948 0.9765
-1.8834 -5.0497 -2.4947 0.9765
-1.1454 -5.2655 -2.4943 0.9765
-0.7669 -5.3336 -2.4942 0.9765
-0.5760 -5.3574 -2.4942 0.9765
0.3844 -5.3744 -2.4941 0.9765
0.9567 -5.3026 -2.4941 0.9765
1.7017 -5.1129 -2.4943 0.9765
1.8832 -5.0491 -2.4944 0.9765
2.4124 -4.8194 -2.4947 0.9765
2.5830 -4.7305 -2.4948 0.9765
2.9142 -4.5346 -2.4951 0.9765
3.3829 -4.1979 -2.4955 0.9765
3.8130 -3.8130 -2.4961 0.9765
3.9470 -3.6748 -2.4963 0.9765
4.4312 -3.0767 -2.4971 0.9765
4.5386 -2.9168 -2.4973 0.9765
4.8258 -2.4156 -2.4980 0.9765
4.9868 -2.0656 -2.4985 0.9765
5.0579 -1.8865 -2.4988 0.9765
5.1806 -1.5212 -2.4993 0.9765
5.2771 -1.1480 -2.4998 0.9765
5.3153 -0.9590 -2.5001 0.9765
5.3713 -0.5775 -2.5006 0.9765
5.4000 -0.1929 -2.5012 0.9765
-5.1012 0.0000 -2.5023 0.9775
-5.0175 -0.9053 -2.5009 0.9775
-4.9815 -1.0837 -2.5007 0.9775
-4.9391 -1.2606 -2.5004 0.9775
-4.7746 -1.7808 -2.4997 0.9776
-4.1831 -2.9044 -2.4980 0.9776
-3.9645 -3.1948 -2.4976 0.9776
-3.8477 -3.3340 -2.4973 0.9776
-3.7259 -3.4689 -2.4971 0.9776
-3.5994 -3.5994 -2.4969 0.9776
-3.3330 -3.8465 -2.4966 0.9776
-3.1933 -3.9627 -2.4964 0.9776
-3.0496 -4.0739 -2.4962 0.9776
-2.5962 -4.3757 -2.4957 0.9776
-2.4382 -4.4653 -2.4956 0.9776
-1.9466 -4.6996 -2.4952 0.9776
-1.7776 -4.7659 -2.4951 0.9776
-1.0811 -4.9697 -2.4948 0.9776
-0.9030 -5.0050 -2.4947 0.9776
-0.7238 -5.0339 -2.4946 0.9776
-0.5436 -5.0564 -2.4946 0.9776
-0.1815 -5.0822 -2.4945 0.9776
0.3628 -5.0724 -2.4945 0.9776
0.5436 -5.0563 -2.4945 0.9776
0.7237 -5.0337 -2.4945 0.9776
0.9029 -5.0047 -2.4946 0.9776
1.0810 -4.9694 -2.4946 0.9776
1.2577 -4.9277 -2.4946 0.9776
1.4328 -4.8798 -2.4947 0.9776
1.7774 -4.7654 -2.4948 0.9776
2.1130 -4.6268 -2.4950 0.9776
2.2769 -4.5486 -2.4951 0.9776
2.4379 -4.4646 -2.4952 0.9776
2.5958 -4.3750 -2.4953 0.9776
2.7504 -4.2798 -2.4955 0.9776
3.0491 -4.0731 -2.4957 0.9776
3.1927 -3.9619 -2.4959 0.9776
3.5986 -3.5986 -2.4964 0.9776
4.0754 -3.0508 -2.4971 0.9776
4.1820 -2.9036 -2.4974 0.9776
4.2833 -2.7527 -2.4976 0.9776
4.3792 -2.5983 -2.4978 0.9776
4.4696 -2.4406 -2.4980 0.9776
4.6332 -2.1159 -2.4985 0.9776
4.7062 -1.9494 -2.4987 0.9776
4.7732 -1.7803 -2.4989 0.9776
4.8342 -1.6090 -2.4992 0.9776
4.9376 -1.2603 -2.4997 0.9776
4.9800 -1.0833 -2.4999 0.9775
5.0456 -0.7254 -2.5004 0.9775
5.0856 -0.3637 -2.5010 0.9775
-4.8233 0.0000 -2.5022 0.9785
-4.8198 -0.1721 -2.5020 0.9785
-4.7723 -0.6862 -2.5012 0.9785
-4.7443 -0.8560 -2.5010 0.9785
-4.7103 -1.0247 -2.5007 0.9785
-4.6703 -1.1920 -2.5005 0.9785
-4.6243 -1.3578 -2.5003 0.9785
-4.5724 -1.5218 -2.5000 0.9785
-4.5148 -1.6839 -2.4998 0.9785
-4.3823 -2.0013 -2.4993 0.9785
-4.3077 -2.1563 -2.4991 0.9785
-4.2276 -2.3084 -2.4989 0.9785
-4.1421 -2.4576 -2.4986 0.9785
-4.0514 -2.6037 -2.4984 0.9785
-3.9556 -2.7464 -2.4982 0.9785
-3.7490 -3.0211 -2.4978 0.9785
-3.1518 -3.6374 -2.4968 0.9785
-2.7444 -3.9527 -2.4964 0.9785
-2.6014 -4.0479 -2.4962 0.9786
-2.4551 -4.1379 -2.4961 0.9786
-2.3057 -4.2227 -2.4959 0.9786
-2.1535 -4.3021 -2.4958 0.9786
-1.5190 -4.5640 -2.4954 0.9786
-1.0224 -4.6997 -2.4951 0.9786
-0.8539 -4.7331 -2.4951 0.9786
-0.6845 -4.7605 -2.4950 0.9786
-0.5141 -4.7818 -2.4950 0.9786
-0.1717 -4.8062 -2.4949 0.9786
0.5141 -4.7816 -2.4949 0.9786
1.1894 -4.6600 -2.4950 0.9786
1.6808 -4.5065 -2.4952 0.9786
1.8407 -4.4438 -2.4953 0.9786
2.1532 -4.3015 -2.4955 0.9786
2.3054 -4.2221 -2.4956 0.9786
2.4548 -4.1373 -2.4957 0.9786
2.6010 -4.0472 -2.4958 0.9786
2.7439 -3.9520 -2.4959 0.9786
3.2792 -3.5221 -2.4965 0.9785
3.4030 -3.4030 -2.4967 0.9785
3.5226 -3.2796 -2.4969 0.9785
3.6376 -3.1520 -2.4970 0.9785
3.8538 -2.8849 -2.4974 0.9785
4.1411 -2.4570 -2.4980 0.9785
4.2265 -2.3078 -2.4982 0.9785
4.5135 -1.6835 -2.4991 0.9785
4.5712 -1.5214 -2.4993 0.9785
4.6230 -1.3574 -2.4996 0.9785
4.6689 -1.1917 -2.4998 0.9785
4.7429 -0.8557 -2.5003 0.9785
4.8087 -0.3439 -2.5010 0.9785
-4.5686 -0.0000 -2.5022 0.9794
-4.5652 -0.1630 -2.5020 0.9794
-4.5561 -0.3259 -2.5017 0.9794
-4.5411 -0.4882 -2.5015 0.9794
-4.5204 -0.6499 -2.5013 0.9794
-4.4616 -0.9706 -2.5008 0.9794
-4.2165 -1.7465 -2.4997 0.9794
-3.7470 -2.6016 -2.4984 0.9794
-3.6514 -2.7334 -2.4982 0.9794
-3.5513 -2.8618 -2.4980 0.9794
-3.4466 -2.9865 -2.4978 0.9794
-3.3376 -3.1074 -2.4976 0.9794
-3.2243 -3.2243 -2.4975 0.9794
-2.9857 -3.4456 -2.4971 0.9794
-2.8606 -3.5498 -2.4970 0.9794
-2.7319 -3.6494 -2.4968 0.9794
-2.4643 -3.8346 -2.4965 0.9794
-2.3258 -3.9199 -2.4964 0.9794
-1.8931 -4.1454 -2.4960 0.9794
-1.5925 -4.2696 -2.4958 0.9794
-1.1268 -4.4149 -2.4956 0.9794
-0.8090 -4.4838 -2.4954 0.9794
-0.3250 -4.5444 -2.4953 0.9794
0.0000 -4.5559 -2.4953 0.9794
0.4870 -4.5298 -2.4953 0.9794
0.6484 -4.5096 -2.4953 0.9794
1.4389 -4.3231 -2.4955 0.9794
1.5923 -4.2691 -2.4956 0.9794
2.0397 -4.0749 -2.4958 0.9794
2.1840 -3.9996 -2.4959 0.9794
2.4639 -3.8340 -2.4961 0.9794
2.7315 -3.6488 -2.4964 0.9794
2.9851 -3.4450 -2.4967 0.9794
3.2237 -3.2237 -2.4970 0.9794
3.3369 -3.1068 -2.4971 0.9794
3.4459 -2.9859 -2.4973 0.9794
3.5505 -2.8612 -2.4975 0.9794
3.6506 -2.7328 -2.4976 0.9794
3.9227 -2.3275 -2.4982 0.9794
4.2154 -1.7461 -2.4990 0.9794
4.2754 -1.5946 -2.4992 0.9794
4.4225 -1.1288 -2.4999 0.9794
4.4604 -0.9703 -2.5001 0.9794
4.4926 -0.8106 -2.5004 0.9794
4.5191 -0.6497 -2.5006 0.9794
4.5640 -0.1630 -2.5013 0.9794
-4.3221 -0.3091 -2.5018 0.9802
-4.3079 -0.4632 -2.5015 0.9802
-4.2883 -0.6166 -2.5013 0.9802
-4.1967 -1.0711 -2.5006 0.9802
-4.0002 -1.6569 -2.4998 0.9802
-3.8711 -1.9377 -2.4994 0.9802
-3.7224 -2.2086 -2.4990 0.9802
-3.6409 -2.3399 -2.4988 0.9802
-3.5548 -2.4682 -2.4986 0.9802
-3.4642 -2.5933 -2.4984 0.9802
-3.2699 -2.8334 -2.4980 0.9802
-3.1665 -2.9481 -2.4978 0.9802
-2.9477 -3.1660 -2.4975 0.9802
-2.7140 -3.3678 -2.4972 0.9802
-2.4665 -3.5525 -2.4969 0.9802
-2.3380 -3.6381 -2.4968 0.9802
-1.9355 -3.8666 -2.4964 0.9802
-1.5109 -4.0508 -2.4961 0.9802
-1.3653 -4.1020 -2.4960 0.9802
-1.2180 -4.1480 -2.4960 0.9802
-1.0691 -4.1887 -2.4959 0.9802
-0.7675 -4.2541 -2.4958 0.9802
-0.4621 -4.2979 -2.4957 0.9802
-0.3084 -4.3116 -2.4957 0.9802
0.0000 -4.3225 -2.4956 0.9802
0.1543 -4.3198 -2.4956 0.9802
0.6152 -4.2786 -2.4956 0.9802
0.7675 -4.2539 -2.4957 0.9802
0.9189 -4.2239 -2.4957 0.9802
1.0690 -4.1885 -2.4957 0.9802
1.3652 -4.1017 -2.4958 0.9802
1.5107 -4.0504 -2.4959 0.9802
2.2063 -3.7185 -2.4963 0.9802
2.5915 -3.4618 -2.4967 0.9802
2.9472 -3.1655 -2.4971 0.9802
3.0584 -3.0585 -2.4972 0.9802
3.6401 -2.3394 -2.4982 0.9802
3.7216 -2.2081 -2.4984 0.9802
3.7983 -2.0740 -2.4986 0.9802
3.9372 -1.7981 -2.4990 0.9802
3.9992 -1.6565 -2.4992 0.9802
4.1078 -1.3672 -2.4996 0.9802
4.1544 -1.2198 -2.4998 0.9802
4.1956 -1.0709 -2.5000 0.9802
4.2621 -0.7690 -2.5004 0.9802
4.3068 -0.4630 -2.5009 0.9802
4.3210 -0.3090 -2.5011 0.9802
4.3296 -0.1546 -2.5013 0.9802
