ply
format ascii 1.0
element vertex 1238
property float32 x
property float32 y
property float32 z
property float32 I
end_header
-23.8711 -13.0346 4.7957 0.8954
-25.6957 -15.2460 5.2683 0.8857
-26.3366 -30.3941 7.0914 0.8493
-24.3927 -30.2694 6.8547 0.8539
-20.8590 -30.0428 6.4490 0.8620
-17.7051 -29.8404 6.1181 0.8685
-7.6214 -29.8605 5.4340 0.8823
-4.4380 -30.8668 5.4986 0.8810
-1.3890 -12.9194 2.2912 0.9486
-0.9311 -13.0182 2.3013 0.9484
-1.1771 -32.9594 5.8153 0.8746
37.8028 -30.4634 8.5606 0.8210
37.6564 -28.1892 8.2942 0.8261
18.2626 -11.7367 3.8278 0.9156
-33.1143 -30.8305 6.9312 0.8327
-30.6740 -30.6740 6.6455 0.8390
-24.3940 -30.2711 5.9557 0.8544
-22.6784 -30.2948 5.7973 0.8580
-20.8601 -30.0443 5.6032 0.8624
-16.2436 -29.7480 5.1924 0.8718
-13.5051 -29.5722 4.9804 0.8767
-12.8379 -34.4197 5.6277 0.8619
-11.4260 -34.3297 5.5428 0.8638
-8.7184 -34.1582 5.4006 0.8671
-5.2410 -29.0492 4.5220 0.8874
-5.2724 -36.6704 5.6755 0.8608
-0.9306 -13.0109 1.9983 0.9486
-1.1772 -32.9608 5.0526 0.8751
0.0000 -42.5952 6.5253 0.8417
8.7636 -48.5736 7.5613 0.8189
10.4977 -48.2571 7.5656 0.8189
37.8022 -30.4629 7.4374 0.8216
18.2409 -11.7227 3.3217 0.9160
-25.6293 -15.2066 3.8807 0.8867
-35.7798 -31.0034 6.1651 0.8262
-27.8736 -27.8736 5.1332 0.8530
-27.2198 -29.2361 5.2018 0.8512
-24.3953 -30.2727 5.0628 0.8549
-20.8611 -30.0458 4.7632 0.8628
-20.7265 -34.9327 5.2894 0.8489
-17.3797 -34.7202 5.0561 0.8550
-12.3033 -29.7029 4.1866 0.8784
-12.8430 -34.4335 4.7857 0.8622
-8.5890 -29.2514 3.9700 0.8843
-5.2412 -29.0502 3.8440 0.8877
-5.2809 -36.7294 4.8321 0.8610
-1.3905 -12.9333 1.6939 0.9489
-1.1772 -32.9621 4.2951 0.8754
5.2150 -48.5067 6.3530 0.8214
6.9581 -48.3946 6.3668 0.8210
37.8019 -30.4627 6.3220 0.8221
37.7306 -26.1968 5.9815 0.8309
35.9220 -9.1686 4.8278 0.8611
-37.7455 -30.4173 5.2054 0.8228
-35.7819 -31.0051 5.0841 0.8266
-34.9460 -32.5358 5.1272 0.8252
-31.4040 -31.4040 4.7690 0.8364
-28.4271 -30.5329 4.4797 0.8455
-27.3003 -31.5063 4.4766 0.8456
-23.7419 -31.7155 4.2542 0.8527
-19.9312 -31.0135 3.9587 0.8622
-17.3870 -34.7348 4.1711 0.8553
-13.5064 -29.5748 3.4913 0.8774
-12.3035 -29.7033 3.4524 0.8787
-8.7251 -34.1844 3.7885 0.8677
-7.4480 -34.2381 3.7625 0.8685
-5.2893 -36.7880 3.9910 0.8611
0.0000 -44.0601 4.7312 0.8376
5.2659 -48.9803 5.2899 0.8202
4.5315 -20.8309 2.2892 0.9178
37.8016 -30.4625 5.2132 0.8226
37.6553 -28.1884 5.0509 0.8276
18.1980 -11.6952 2.3229 0.9167
-33.6328 -4.8357 2.8764 0.8725
-25.5640 -15.1679 2.5163 0.8875
-35.7842 -31.0072 4.0082 0.8269
-34.9462 -32.5361 4.0420 0.8256
-31.4043 -31.4043 3.7596 0.8367
-28.4288 -30.5347 3.5317 0.8458
-27.3005 -31.5066 3.5291 0.8459
-14.8995 -21.4594 2.2115 0.9004
-19.9314 -31.0138 3.1208 0.8624
-13.5069 -29.5761 2.7524 0.8776
-12.3037 -29.7037 2.7217 0.8789
-12.8532 -34.4609 3.1135 0.8627
-11.4393 -34.3698 3.0664 0.8647
-8.7182 -34.1577 2.9842 0.8680
-5.0679 -35.2480 3.0145 0.8668
-1.1773 -32.9648 2.7923 0.8760
0.0000 -44.0619 3.7300 0.8379
5.2661 -48.9823 4.1704 0.8206
8.7896 -48.7173 4.1906 0.8198
10.4792 -48.1718 4.1733 0.8205
4.9610 -19.4369 1.6981 0.9226
37.5931 -32.5746 4.2109 0.8190
37.8013 -30.4622 4.1097 0.8229
37.6549 -28.1881 3.9818 0.8279
37.7354 -26.2002 3.8889 0.8316
18.1788 -11.6828 1.8293 0.9169
35.9361 -9.1722 3.1403 0.8617
-28.3446 -28.3446 2.4857 0.8516
-24.3992 -30.2776 2.4113 0.8557
-20.8643 -30.0503 2.2685 0.8636
-19.9316 -31.0142 2.2861 0.8626
-20.7495 -34.9714 2.5216 0.8496
-17.3976 -34.7559 2.4102 0.8558
-13.5076 -29.5774 2.0163 0.8778
-12.3038 -29.7041 1.9937 0.8791
-12.8543 -34.4638 2.2809 0.8629
-11.4404 -34.3729 2.2464 0.8649
-8.5900 -29.2551 1.8907 0.8850
-7.4211 -34.1144 2.1649 0.8694
-3.8772 -21.4897 1.3541 0.9162
-5.2643 -36.6137 2.2938 0.8622
-1.3927 -12.9540 0.8079 0.9491
-0.9313 -13.0212 0.8095 0.9490
1.7809 -49.8636 3.0940 0.8188
3.4777 -48.6243 3.0229 0.8225
8.7120 -48.2875 3.0427 0.8215
10.4796 -48.1737 3.0571 0.8207
4.9112 -19.2417 1.2314 0.9235
14.9107 -19.9183 1.5429 0.9051
37.5928 -32.5743 3.0845 0.8193
37.5395 -30.2512 2.9896 0.8243
37.3942 -27.9929 2.8966 0.8293
18.1816 -11.6846 1.3402 0.9170
35.9328 -9.1713 2.2996 0.8619
-33.8833 -23.5257 1.6265 0.8478
-35.6519 -28.7301 1.8054 0.8325
-20.7505 -34.9731 1.6035 0.8498
-16.2474 -29.7549 1.3368 0.8731
-17.3984 -34.7575 1.5326 0.8559
-7.4214 -34.1158 1.3767 0.8696
-5.2419 -29.0541 1.1641 0.8885
-5.2645 -36.6151 1.4586 0.8624
-1.3934 -12.9609 0.5140 0.9492
-1.1774 -32.9674 1.3008 0.8763
6.7670 -31.1074 1.2553 0.8803
37.8006 -30.4617 1.9143 0.8234
37.7402 -26.2035 1.8117 0.8320
27.9528 -10.4259 1.1764 0.8874
-35.7911 -31.0132 0.8000 0.8274
-27.3012 -31.5073 0.7042 0.8464
-24.4018 -30.2808 0.6569 0.8559
-19.9320 -31.0148 0.6227 0.8629
-12.8406 -34.4271 0.6207 0.8633
-11.0154 -33.0961 0.5892 0.8698
-7.4132 -34.0778 0.5891 0.8698
-4.8219 -33.5368 0.5723 0.8732
-0.9317 -13.0263 0.2206 0.9491
-1.1775 -32.9687 0.5573 0.8764
14.0782 -47.9460 0.8441 0.8188
37.8003 -30.4615 0.8200 0.8235
29.4958 -13.4703 0.5477 0.8783
27.5590 -10.2789 0.4968 0.8890
-25.4533 -15.1021 -0.1666 0.8884
-31.4053 -31.4053 -0.2501 0.8372
-27.3015 -31.5076 -0.2347 0.8464
-24.4031 -30.2824 -0.2190 0.8559
-23.7430 -31.7170 -0.2231 0.8534
-16.2489 -29.7577 -0.1909 0.8732
-17.4186 -34.7979 -0.2191 0.8559
-11.4252 -34.3271 -0.2037 0.8653
-8.5911 -29.2587 -0.1717 0.8852
-7.4300 -34.1551 -0.1968 0.8695
-5.2423 -29.0561 -0.1662 0.8886
-0.9318 -13.0289 -0.0735 0.9491
14.0788 -47.9479 -0.2814 0.8188
37.8000 -30.4612 -0.2733 0.8235
37.6537 -28.1872 -0.2648 0.8285
18.1903 -11.6902 -0.1217 0.9171
28.3719 -10.5822 -0.1705 0.8859
-43.9654 -20.0783 -1.3610 0.8241
-25.4461 -15.0979 -0.8331 0.8883
-34.9476 -32.5374 -1.3445 0.8261
-31.4055 -31.4056 -1.2506 0.8372
-28.4368 -30.5433 -1.1751 0.8462
-27.3017 -31.5079 -1.1739 0.8463
-24.4044 -30.2839 -1.0952 0.8559
-23.7432 -31.7173 -1.1156 0.8534
-20.8684 -30.0563 -1.0303 0.8638
-19.9324 -31.0154 -1.0381 0.8628
-13.5099 -29.5827 -0.9157 0.8780
-12.3045 -29.7057 -0.9054 0.8793
-8.7301 -34.2041 -0.9940 0.8683
-7.4303 -34.1565 -0.9843 0.8695
-5.2425 -29.0570 -0.8314 0.8886
-4.8143 -33.4844 -0.9525 0.8734
-0.9320 -13.0314 -0.3679 0.9491
-1.1776 -32.9713 -0.9290 0.8763
35.8364 -24.8817 -1.2285 0.8398
35.9164 -9.1671 -1.0437 0.8621
-48.9384 -3.5001 -2.4882 0.8216
-48.4477 -6.9658 -2.4823 0.8220
-48.1113 -8.6802 -2.4793 0.8222
-47.2593 -12.0622 -2.4736 0.8225
-46.7453 -13.7257 -2.4707 0.8227
-40.2825 -15.0246 -2.1804 0.8418
-41.4385 -18.9243 -2.3103 0.8332
-40.7086 -20.3773 -2.3087 0.8333
-36.3205 -19.8325 -2.0987 0.8473
-25.2171 -18.8773 -1.5975 0.8815
-35.7420 -28.8028 -2.3279 0.8321
-34.7370 -30.0998 -2.3310 0.8319
-31.4058 -31.4058 -2.2524 0.8370
-28.4385 -30.5451 -2.1165 0.8461
-24.4056 -30.2856 -1.9725 0.8557
-20.8695 -30.0578 -1.8558 0.8637
-19.9326 -31.0157 -1.8698 0.8627
-20.7305 -34.9393 -2.0603 0.8498
-17.3815 -34.7237 -1.9693 0.8560
-8.5918 -29.2611 -1.5466 0.8850
-8.7304 -34.2055 -1.7903 0.8682
-5.2426 -29.0580 -1.4974 0.8885
-4.7571 -33.0861 -1.6952 0.8747
-1.3964 -12.9884 -0.6625 0.9490
-1.1776 -32.9726 -1.6732 0.8762
5.0175 -46.6700 -2.3805 0.8286
9.9793 -45.8739 -2.3809 0.8286
13.3313 -29.1915 -1.6275 0.8794
14.6722 -26.8701 -1.5526 0.8846
16.5055 -25.6831 -1.5483 0.8849
17.6452 -25.4140 -1.5690 0.8835
21.3135 -26.4485 -1.7226 0.8728
22.6878 -24.3684 -1.6885 0.8752
24.1527 -24.1527 -1.7322 0.8721
34.0969 -31.7453 -2.3626 0.8298
37.1932 -27.8425 -2.3562 0.8302
36.0301 -25.0161 -2.2245 0.8389
39.8340 -23.6346 -2.3490 0.8307
31.6219 -14.4412 -1.7630 0.8700
29.5132 -12.2248 -1.6201 0.8799
28.3630 -10.5788 -1.5352 0.8858
43.6417 -14.5253 -2.3326 0.8318
37.8047 -11.1005 -1.9982 0.8540
35.8359 -9.1466 -1.8757 0.8623
48.7365 -7.0073 -2.4970 0.8210
49.2330 -3.5212 -2.5032 0.8206
-33.9056 -2.4250 -2.4924 0.8726
-33.7692 -3.6306 -2.4903 0.8727
-33.3692 -6.0205 -2.4862 0.8728
-33.1061 -7.2018 -2.4842 0.8729
-32.8017 -8.3721 -2.4822 0.8730
-32.4562 -9.5300 -2.4802 0.8731
-32.0704 -10.6741 -2.4783 0.8732
-31.1553 -12.9049 -2.4726 0.8735
-28.8100 -13.1571 -2.3223 0.8807
-24.7400 -14.6789 -2.1093 0.8910
-25.9266 -18.0012 -2.3143 0.8811
-25.2516 -18.9031 -2.3128 0.8812
-12.7393 -12.7394 -1.3210 0.9303
-19.9088 -24.7052 -2.3264 0.8805
-12.7910 -18.4226 -1.6445 0.9140
-17.1924 -26.7520 -2.3317 0.8803
-16.2381 -27.3679 -2.3333 0.8802
-14.2633 -28.4945 -2.3364 0.8800
-13.2452 -29.0030 -2.3378 0.8800
-12.2087 -29.4746 -2.3392 0.8799
-3.4482 -11.7434 -0.8974 0.9521
-2.9898 -11.7139 -0.8864 0.9527
-2.5419 -11.6851 -0.8768 0.9532
-5.2428 -29.0590 -2.1651 0.8883
-4.5551 -31.6814 -2.3468 0.8795
-1.3971 -12.9953 -0.9583 0.9489
-0.9324 -13.0365 -0.9583 0.9489
3.4267 -31.8733 -2.3505 0.8793
5.4675 -30.3042 -2.2578 0.8838
6.8152 -31.3288 -2.3508 0.8793
9.0320 -30.7602 -2.3506 0.8793
10.8182 -29.0048 -2.2698 0.8832
13.3098 -29.1444 -2.3492 0.8794
13.9235 -27.8157 -2.2807 0.8827
14.6726 -26.8709 -2.2448 0.8844
15.5006 -26.1249 -2.2273 0.8853
16.5061 -25.6840 -2.2386 0.8847
17.6460 -25.4151 -2.2686 0.8833
19.0218 -25.4102 -2.3273 0.8805
20.0570 -24.8892 -2.3437 0.8797
20.9227 -24.1461 -2.3426 0.8797
21.7601 -23.3720 -2.3414 0.8798
24.0928 -20.8765 -2.3375 0.8800
26.1353 -18.1460 -2.3329 0.8802
18.1990 -11.6958 -1.5862 0.9169
25.3431 -15.0368 -2.1607 0.8885
28.9184 -13.2066 -2.3310 0.8803
29.8350 -11.1279 -2.3348 0.8801
30.2379 -10.0641 -2.3367 0.8800
32.8731 -8.3904 -2.4876 0.8728
33.2407 -7.2311 -2.4943 0.8725
33.7289 -4.8495 -2.4985 0.8723
33.9092 -3.6456 -2.5006 0.8722
34.0468 -2.4351 -2.5028 0.8721
-26.0176 0.0000 -2.4978 0.9007
-25.9179 -1.8537 -2.4946 0.9009
-25.6869 -3.6932 -2.4914 0.9010
-25.3264 -5.5094 -2.4883 0.9011
-23.4930 -10.7289 -2.4795 0.9014
-23.0823 -11.5542 -2.4781 0.9015
-19.8716 -13.7971 -2.3225 0.9074
-19.3570 -14.4905 -2.3214 0.9074
-18.8186 -15.1650 -2.3203 0.9074
-18.2571 -15.8198 -2.3192 0.9075
-11.6162 -12.4767 -1.6366 0.9338
-10.1943 -12.6503 -1.5598 0.9368
-12.3159 -17.7383 -2.0732 0.9169
-13.0680 -20.3343 -2.3206 0.9074
-11.5963 -21.2370 -2.3230 0.9073
-10.8362 -21.6481 -2.3242 0.9073
-3.4605 -11.7854 -1.1792 0.9518
-3.0005 -11.7558 -1.1648 0.9524
-3.4570 -24.0442 -2.3321 0.9070
-1.3979 -13.0023 -1.2555 0.9488
-0.9326 -13.0391 -1.2550 0.9488
-0.8676 -24.2924 -2.3337 0.9069
0.0000 -16.6196 -1.5956 0.9354
1.7349 -24.2564 -2.3347 0.9069
2.5998 -24.1813 -2.3349 0.9069
3.4614 -24.0748 -2.3351 0.9069
5.1704 -23.7679 -2.3352 0.9069
6.0153 -23.5676 -2.3351 0.9069
6.6428 -16.0371 -1.6665 0.9326
11.6467 -21.3294 -2.3331 0.9070
12.3978 -20.8955 -2.3326 0.9070
8.0146 -11.5431 -1.3491 0.9451
17.1415 -17.1415 -2.3273 0.9072
18.3047 -15.8611 -2.3253 0.9073
18.8649 -15.2023 -2.3260 0.9072
17.4245 -12.0980 -2.0365 0.9183
16.0386 -10.3074 -1.8303 0.9262
18.2402 -10.8224 -2.0362 0.9183
22.4877 -9.3147 -2.3368 0.9068
24.9142 -7.3155 -2.4929 0.9009
25.1754 -6.4257 -2.4945 0.9009
25.4050 -5.5265 -2.4961 0.9008
25.6026 -4.6192 -2.4977 0.9007
26.0003 -1.8596 -2.5025 0.9006
-20.8410 -1.4906 -2.4819 0.9193
-20.8812 -2.2450 -2.4947 0.9189
-20.7771 -2.9873 -2.4934 0.9189
-20.3081 -5.1834 -2.4897 0.9190
-17.9588 -10.6555 -2.4805 0.9193
-17.1215 -11.8877 -2.4760 0.9195
-15.2460 -12.2860 -2.3259 0.9242
-14.3203 -13.3327 -2.3242 0.9242
-12.7397 -12.7397 -2.1401 0.9300
-11.7073 -15.6391 -2.3206 0.9243
-8.1049 -17.7472 -2.3176 0.9244
-7.4690 -18.0317 -2.3184 0.9244
-3.4607 -11.7859 -1.4591 0.9517
-3.0006 -11.7563 -1.4413 0.9523
-2.5511 -11.7274 -1.4256 0.9528
-3.4716 -19.2416 -2.3225 0.9243
0.0000 -19.5702 -2.3247 0.9242
2.0926 -19.4638 -2.3253 0.9242
2.7861 -19.3778 -2.3255 0.9242
3.4761 -19.2666 -2.3256 0.9242
6.1821 -18.5741 -2.3253 0.9242
6.8406 -18.3402 -2.3252 0.9242
6.7646 -16.3313 -2.0998 0.9313
8.1297 -17.8016 -2.3247 0.9242
8.7587 -17.4976 -2.3243 0.9242
9.3761 -17.1711 -2.3239 0.9242
10.5731 -16.4521 -2.3231 0.9242
13.3470 -14.3357 -2.3267 0.9241
14.3471 -13.3576 -2.3285 0.9241
14.8209 -12.8424 -2.3295 0.9240
15.2763 -12.3105 -2.3305 0.9240
16.9034 -10.0292 -2.3347 0.9239
17.5609 -9.5890 -2.3767 0.9226
18.6918 -9.3565 -2.4830 0.9192
19.3725 -8.0244 -2.4908 0.9190
20.5418 -4.4686 -2.4972 0.9188
20.6990 -3.7345 -2.4985 0.9188
20.8300 -2.9949 -2.4998 0.9187
21.0127 -1.5029 -2.5024 0.9186
21.0640 -0.7523 -2.5037 0.9186
-17.6379 0.0000 -2.4991 0.9312
-17.6189 -0.6293 -2.4980 0.9313
-17.3201 -3.1249 -2.4937 0.9314
-17.1903 -3.7395 -2.4927 0.9314
-17.0388 -4.3489 -2.4916 0.9314
-16.8658 -4.9523 -2.4906 0.9314
-16.4563 -6.1379 -2.4886 0.9315
-16.2204 -6.7187 -2.4876 0.9315
-15.9641 -7.2906 -2.4867 0.9316
-15.6878 -7.8527 -2.4857 0.9316
-15.3918 -8.4046 -2.4848 0.9316
-14.0197 -10.4950 -2.4814 0.9317
-13.6318 -10.9852 -2.4806 0.9317
-11.1908 -12.0198 -2.3269 0.9358
-10.6934 -12.3408 -2.3137 0.9362
-9.8345 -13.1374 -2.3252 0.9359
-9.3572 -13.4770 -2.3247 0.9359
-8.3686 -14.1045 -2.3237 0.9359
-7.3385 -14.6605 -2.3229 0.9359
-6.8095 -14.9108 -2.3226 0.9359
-6.2721 -15.1422 -2.3223 0.9359
-5.7269 -15.3545 -2.3220 0.9359
-3.4608 -11.7864 -1.7405 0.9516
-3.0007 -11.7568 -1.7192 0.9522
-2.5512 -11.7278 -1.7006 0.9527
-2.2179 -12.2931 -1.7699 0.9508
-1.3994 -13.0163 -1.8549 0.9485
-0.9329 -13.0443 -1.8530 0.9485
0.0000 -14.4462 -2.0469 0.9433
1.7514 -16.2905 -2.3215 0.9360
3.4839 -16.0151 -2.3222 0.9359
4.6188 -15.7302 -2.3229 0.9359
6.2772 -15.1546 -2.3242 0.9359
6.8156 -14.9240 -2.3246 0.9359
7.3455 -14.6745 -2.3252 0.9359
7.8664 -14.4063 -2.3257 0.9358
8.0145 -11.5431 -1.9911 0.9448
10.7669 -12.4257 -2.3296 0.9357
11.2072 -12.0374 -2.3303 0.9357
11.6335 -11.6335 -2.3311 0.9357
12.0454 -11.2147 -2.3319 0.9357
12.4424 -10.7814 -2.3327 0.9357
14.1634 -9.8338 -2.4431 0.9327
15.4208 -8.4204 -2.4895 0.9315
15.7179 -7.8678 -2.4905 0.9315
15.9953 -7.3048 -2.4915 0.9314
16.2526 -6.7320 -2.4926 0.9314
16.4895 -6.1502 -2.4936 0.9314
16.7056 -5.5602 -2.4947 0.9313
16.9006 -4.9625 -2.4957 0.9313
17.0744 -4.3580 -2.4968 0.9313
17.2265 -3.7474 -2.4979 0.9313
17.3569 -3.1315 -2.4990 0.9312
17.4653 -2.5111 -2.5001 0.9312
17.5515 -1.8870 -2.5012 0.9312
17.6569 -0.6306 -2.5034 0.9311
-15.1569 -0.5413 -2.4985 0.9404
-15.1223 -1.0816 -2.4976 0.9404
-14.9035 -2.6889 -2.4948 0.9405
-14.7927 -3.2179 -2.4939 0.9405
-14.6631 -3.7425 -2.4930 0.9405
-14.5151 -4.2620 -2.4921 0.9405
-14.1642 -5.2830 -2.4904 0.9406
-13.2508 -7.2355 -2.4872 0.9406
-12.9801 -7.7015 -2.4864 0.9406
-12.3903 -8.6027 -2.4849 0.9407
-10.6518 -10.6518 -2.4816 0.9408
-10.2624 -11.0226 -2.4810 0.9408
-8.6641 -11.5738 -2.3817 0.9431
-8.0600 -11.6086 -2.3281 0.9443
-7.6391 -11.8867 -2.3277 0.9443
-5.8662 -12.8451 -2.3263 0.9444
-4.9338 -13.2279 -2.3258 0.9444
-2.5513 -11.7283 -1.9773 0.9525
-1.3201 -12.2791 -2.0345 0.9512
-0.8769 -12.2604 -2.0249 0.9514
0.0000 -13.2114 -2.1764 0.9479
0.5038 -14.1048 -2.3251 0.9444
2.5067 -13.8936 -2.3258 0.9444
3.0013 -13.7968 -2.3260 0.9444
3.9789 -13.5508 -2.3266 0.9444
4.4607 -13.4021 -2.3269 0.9443
4.9369 -13.2364 -2.3273 0.9443
5.4071 -13.0540 -2.3277 0.9443
5.8707 -12.8550 -2.3281 0.9443
6.3269 -12.6396 -2.3285 0.9443
6.7754 -12.4083 -2.3290 0.9443
7.2155 -12.1612 -2.3295 0.9443
8.0145 -11.5431 -2.3150 0.9446
8.8813 -11.0211 -2.3318 0.9442
10.1666 -10.1666 -2.3686 0.9434
10.8476 -10.0994 -2.4416 0.9417
11.7553 -9.4730 -2.4871 0.9406
12.4091 -8.6158 -2.4887 0.9406
12.7129 -8.1701 -2.4895 0.9406
13.7652 -6.2863 -2.4929 0.9405
14.1888 -5.2921 -2.4947 0.9405
14.3739 -4.7841 -2.4957 0.9404
14.5409 -4.2696 -2.4966 0.9404
14.6895 -3.7493 -2.4975 0.9404
15.0963 -1.6230 -2.5013 0.9403
-13.2568 -0.9481 -2.4981 0.9473
-13.2101 -1.4202 -2.4973 0.9474
-13.1468 -1.8902 -2.4965 0.9474
-13.0667 -2.3575 -2.4957 0.9474
-12.9701 -2.8215 -2.4949 0.9474
-12.7279 -3.7372 -2.4933 0.9474
-12.5825 -4.1879 -2.4926 0.9475
-12.2444 -5.0718 -2.4911 0.9475
-12.0521 -5.5040 -2.4904 0.9475
-11.6222 -6.3462 -2.4890 0.9475
-11.1338 -7.1553 -2.4876 0.9476
-10.8686 -7.5462 -2.4870 0.9476
-10.2975 -8.2982 -2.4858 0.9476
-9.9924 -8.6585 -2.4852 0.9476
-7.5303 -10.8457 -2.4818 0.9477
-7.1321 -11.0978 -2.4796 0.9477
-6.7188 -11.3239 -2.4749 0.9478
-5.6815 -11.3501 -2.3857 0.9497
-4.3296 -11.6082 -2.3287 0.9508
-3.0105 -11.7952 -2.2881 0.9517
-2.5533 -11.7372 -2.2577 0.9523
-2.1991 -12.1889 -2.3280 0.9508
-1.7526 -12.1899 -2.3148 0.9511
-1.3085 -12.1711 -2.3009 0.9514
0.4421 -12.3782 -2.3281 0.9508
0.8837 -12.3551 -2.3282 0.9508
1.3242 -12.3164 -2.3283 0.9508
2.6338 -12.1072 -2.3289 0.9508
3.0645 -12.0068 -2.3291 0.9508
3.4915 -11.8911 -2.3294 0.9508
3.9142 -11.7604 -2.3297 0.9508
4.7446 -11.4544 -2.3304 0.9508
5.1512 -11.2795 -2.3307 0.9508
6.7092 -10.4398 -2.3326 0.9507
7.2124 -10.3878 -2.3770 0.9498
7.7398 -10.3391 -2.4275 0.9488
8.2722 -10.2652 -2.4780 0.9478
9.0137 -9.6814 -2.4863 0.9476
9.3558 -9.3558 -2.4869 0.9476
10.0046 -8.6690 -2.4882 0.9475
10.6034 -7.9376 -2.4896 0.9475
10.8830 -7.5562 -2.4903 0.9475
11.4010 -6.7645 -2.4918 0.9475
12.6019 -4.1943 -2.4964 0.9474
13.0876 -2.3613 -2.4997 0.9473
13.2315 -1.4225 -2.5013 0.9473
13.3081 -0.4753 -2.5030 0.9472
-11.8270 0.0000 -2.5000 0.9528
-11.7899 -0.8432 -2.4985 0.9528
-11.7489 -1.2631 -2.4978 0.9528
-11.6930 -1.6812 -2.4971 0.9529
-11.0500 -4.1214 -2.4929 0.9529
-10.3404 -5.6463 -2.4904 0.9530
-10.1298 -6.0103 -2.4898 0.9530
-9.9065 -6.3665 -2.4892 0.9530
-9.6708 -6.7145 -2.4886 0.9530
-9.4228 -7.0539 -2.4881 0.9530
-9.1631 -7.3841 -2.4875 0.9530
-8.0127 -8.6062 -2.4856 0.9531
-7.6990 -8.8852 -2.4851 0.9531
-7.3758 -9.1527 -2.4847 0.9531
-6.3522 -9.8843 -2.4836 0.9531
-5.9946 -10.1034 -2.4833 0.9531
-5.6295 -10.3097 -2.4830 0.9531
-5.2573 -10.5028 -2.4827 0.9531
-4.8786 -10.6827 -2.4824 0.9531
-4.4923 -10.8453 -2.4814 0.9531
-4.0973 -10.9852 -2.4783 0.9532
-3.6984 -11.1118 -2.4755 0.9532
-3.2760 -11.1570 -2.4579 0.9536
-2.8408 -11.1300 -2.4281 0.9541
-1.5886 -11.0490 -2.3595 0.9554
-1.1850 -11.0218 -2.3432 0.9557
-0.7867 -10.9999 -2.3311 0.9559
-0.3935 -11.0174 -2.3303 0.9559
0.0000 -11.0247 -2.3304 0.9559
0.3935 -11.0180 -2.3305 0.9559
1.5693 -10.9145 -2.3308 0.9559
2.3443 -10.7764 -2.3312 0.9559
3.1406 -10.6960 -2.3564 0.9554
3.9636 -10.6269 -2.3975 0.9547
4.8193 -10.5529 -2.4523 0.9537
5.6234 -10.2986 -2.4803 0.9532
5.9952 -10.1043 -2.4835 0.9531
6.3572 -9.8920 -2.4855 0.9531
6.7074 -9.6605 -2.4860 0.9531
7.3824 -9.1610 -2.4870 0.9530
7.7063 -8.8935 -2.4875 0.9530
8.0205 -8.6147 -2.4880 0.9530
8.3247 -8.3247 -2.4886 0.9530
8.6185 -8.0242 -2.4891 0.9530
9.1734 -7.3924 -2.4903 0.9530
9.4337 -7.0620 -2.4909 0.9530
9.6822 -6.7225 -2.4916 0.9530
9.9185 -6.3742 -2.4922 0.9529
10.1424 -6.0178 -2.4929 0.9529
10.3535 -5.6534 -2.4935 0.9529
10.7363 -4.9031 -2.4949 0.9529
11.5530 -2.5132 -2.4992 0.9528
11.7097 -1.6836 -2.5007 0.9528
11.7658 -1.2650 -2.5014 0.9528
-10.6380 0.0000 -2.5002 0.9572
-10.6284 -0.3796 -2.4995 0.9572
-10.6053 -0.7585 -2.4988 0.9573
-10.5687 -1.1363 -2.4982 0.9573
-10.5187 -1.5124 -2.4976 0.9573
-10.3787 -2.2577 -2.4963 0.9573
-10.2889 -2.6261 -2.4956 0.9573
-10.1861 -2.9909 -2.4950 0.9573
-10.0704 -3.3517 -2.4944 0.9573
-9.9419 -3.7081 -2.4938 0.9573
-9.8009 -4.0597 -2.4932 0.9573
-8.9144 -5.7290 -2.4905 0.9574
-8.4796 -6.3477 -2.4894 0.9574
-8.2460 -6.6451 -2.4890 0.9574
-8.0021 -6.9339 -2.4885 0.9574
-7.2113 -7.7455 -2.4872 0.9574
-6.6383 -8.2377 -2.4864 0.9575
-6.3392 -8.4681 -2.4861 0.9575
-6.0321 -8.6878 -2.4857 0.9575
-5.7174 -8.8965 -2.4854 0.9575
-5.3956 -9.0938 -2.4851 0.9575
-4.7321 -9.4535 -2.4846 0.9575
-4.0449 -9.7653 -2.4842 0.9575
-2.9773 -10.1397 -2.4837 0.9575
-2.2462 -10.3254 -2.4835 0.9575
-1.8761 -10.3987 -2.4834 0.9575
-1.1295 -10.5058 -2.4833 0.9575
-0.7537 -10.5377 -2.4829 0.9575
0.3768 -10.5515 -2.4814 0.9575
0.7532 -10.5311 -2.4814 0.9575
1.1287 -10.4984 -2.4816 0.9575
2.9784 -10.1434 -2.4846 0.9575
3.3389 -10.0317 -2.4848 0.9575
4.0469 -9.7701 -2.4854 0.9575
4.3936 -9.6207 -2.4857 0.9575
4.7348 -9.4590 -2.4860 0.9575
5.3991 -9.0998 -2.4868 0.9575
5.7214 -8.9027 -2.4872 0.9574
6.0365 -8.6942 -2.4876 0.9574
6.3441 -8.4747 -2.4880 0.9574
7.2177 -7.7523 -2.4894 0.9574
7.4913 -7.4913 -2.4899 0.9574
8.2543 -6.6518 -2.4915 0.9574
8.4884 -6.3543 -2.4920 0.9574
9.1253 -5.4143 -2.4938 0.9573
9.3150 -5.0864 -2.4944 0.9573
9.4930 -4.7518 -2.4950 0.9573
10.0828 -3.3559 -2.4975 0.9573
10.1988 -2.9946 -2.4981 0.9573
10.3919 -2.2606 -2.4994 0.9572
10.4687 -1.8888 -2.5001 0.9572
10.5824 -1.1377 -2.5014 0.9572
10.6190 -0.7595 -2.5021 0.9572
10.6422 -0.3801 -2.5028 0.9572
-9.6276 -0.6886 -2.4991 0.9609
-9.5494 -1.3730 -2.4979 0.9609
-9.4921 -1.7126 -2.4974 0.9609
-9.4228 -2.0498 -2.4968 0.9609
-9.3415 -2.3843 -2.4962 0.9609
-9.1435 -3.0432 -2.4951 0.9610
-8.6100 -4.3098 -2.4930 0.9610
-8.0951 -5.2024 -2.4915 0.9610
-7.2672 -6.2970 -2.4897 0.9610
-7.0366 -6.5513 -2.4893 0.9611
-6.7972 -6.7972 -2.4889 0.9611
-6.2932 -7.2627 -2.4882 0.9611
-6.0291 -7.4817 -2.4878 0.9611
-5.7575 -7.6911 -2.4875 0.9611
-5.4786 -7.8907 -2.4872 0.9611
-5.1929 -8.0803 -2.4869 0.9611
-4.6023 -8.4284 -2.4864 0.9611
-3.9886 -8.7337 -2.4860 0.9611
-3.6740 -8.8699 -2.4858 0.9611
-3.3549 -8.9947 -2.4856 0.9611
-1.7041 -9.4455 -2.4851 0.9611
-1.3659 -9.5001 -2.4850 0.9611
-1.0259 -9.5427 -2.4850 0.9611
-0.6847 -9.5732 -2.4850 0.9611
0.0000 -9.5979 -2.4851 0.9611
0.3426 -9.5921 -2.4851 0.9611
1.7045 -9.4474 -2.4856 0.9611
2.3745 -9.3031 -2.4860 0.9611
3.3562 -8.9984 -2.4866 0.9611
3.6757 -8.8738 -2.4869 0.9611
3.9905 -8.7380 -2.4872 0.9611
4.3004 -8.5910 -2.4875 0.9611
5.4823 -7.8960 -2.4889 0.9611
5.7615 -7.6965 -2.4893 0.9611
6.0336 -7.4872 -2.4897 0.9610
6.2980 -7.2683 -2.4901 0.9610
7.7078 -5.7700 -2.4929 0.9610
7.9105 -5.4923 -2.4934 0.9610
8.1032 -5.2076 -2.4940 0.9610
8.2857 -4.9161 -2.4945 0.9610
8.4577 -4.6182 -2.4950 0.9610
8.9089 -3.6902 -2.4967 0.9609
9.1537 -3.0466 -2.4979 0.9609
9.2588 -2.7186 -2.4985 0.9609
9.4336 -2.0522 -2.4997 0.9609
9.6059 -1.0327 -2.5015 0.9609
9.6389 -0.6894 -2.5021 0.9609
9.6597 -0.3450 -2.5027 0.9608
-8.8326 0.0000 -2.5004 0.9639
-8.7762 -0.9435 -2.4988 0.9640
-8.7351 -1.2559 -2.4983 0.9640
-8.6828 -1.5666 -2.4977 0.9640
-8.6196 -1.8751 -2.4972 0.9640
-8.5454 -2.1811 -2.4967 0.9640
-8.4603 -2.4842 -2.4962 0.9640
-8.2582 -3.0802 -2.4952 0.9640
-8.1414 -3.3723 -2.4947 0.9640
-8.0143 -3.6600 -2.4942 0.9640
-7.8771 -3.9430 -2.4937 0.9640
-7.7299 -4.2208 -2.4933 0.9640
-7.5730 -4.4932 -2.4928 0.9641
-7.4065 -4.7598 -2.4924 0.9641
-7.2306 -5.0203 -2.4919 0.9641
-6.8518 -5.5215 -2.4911 0.9641
-5.7584 -6.6456 -2.4893 0.9641
-5.5169 -6.8460 -2.4890 0.9641
-4.7518 -7.3940 -2.4882 0.9641
-4.2115 -7.7127 -2.4877 0.9641
-3.6499 -7.9922 -2.4873 0.9641
-2.1723 -8.5110 -2.4866 0.9641
-1.2500 -8.6938 -2.4865 0.9641
-0.9389 -8.7328 -2.4864 0.9641
-0.3135 -8.7776 -2.4865 0.9641
0.0000 -8.7833 -2.4865 0.9641
0.6266 -8.7614 -2.4866 0.9641
0.9390 -8.7338 -2.4867 0.9641
1.2502 -8.6951 -2.4868 0.9641
1.5598 -8.6454 -2.4870 0.9641
1.8675 -8.5848 -2.4871 0.9641
2.1729 -8.5132 -2.4873 0.9641
2.4755 -8.4309 -2.4875 0.9641
3.0712 -8.2342 -2.4879 0.9641
3.3635 -8.1202 -2.4882 0.9641
4.4869 -7.5623 -2.4893 0.9641
5.0163 -7.2249 -2.4900 0.9641
5.7625 -6.6503 -2.4911 0.9641
6.4435 -5.9992 -2.4923 0.9641
6.6547 -5.7664 -2.4928 0.9641
7.0517 -5.2788 -2.4937 0.9640
7.5800 -4.4974 -2.4951 0.9640
7.7372 -4.2248 -2.4956 0.9640
8.0222 -3.6636 -2.4966 0.9640
8.2666 -3.0833 -2.4977 0.9640
8.3731 -2.7868 -2.4982 0.9640
8.5543 -2.1834 -2.4993 0.9640
8.6287 -1.8771 -2.4998 0.9640
8.6921 -1.5682 -2.5004 0.9639
-8.1230 -0.2901 -2.5000 0.9666
-8.1058 -0.5797 -2.4995 0.9666
-8.0406 -1.1561 -2.4985 0.9666
-7.9927 -1.4420 -2.4981 0.9666
-7.7882 -2.2868 -2.4966 0.9666
-7.7002 -2.5629 -2.4962 0.9666
-7.4950 -3.1045 -2.4952 0.9666
-7.3781 -3.3695 -2.4948 0.9666
-7.1165 -3.8859 -2.4939 0.9666
-6.8189 -4.3822 -2.4931 0.9666
-6.6571 -4.6221 -2.4927 0.9667
-6.3085 -5.0837 -2.4920 0.9667
-5.5178 -5.9265 -2.4906 0.9667
-5.0797 -6.3036 -2.4900 0.9667
-4.8510 -6.4802 -2.4898 0.9667
-4.6161 -6.6485 -2.4895 0.9667
-3.6217 -7.2352 -2.4886 0.9667
-3.3609 -7.3594 -2.4885 0.9667
-2.5545 -7.6752 -2.4880 0.9667
-1.4361 -7.9595 -2.4877 0.9667
-1.1510 -8.0056 -2.4877 0.9667
-0.8646 -8.0415 -2.4877 0.9667
-0.5770 -8.0673 -2.4877 0.9667
-0.2887 -8.0828 -2.4877 0.9667
0.5770 -8.0678 -2.4878 0.9667
0.8646 -8.0424 -2.4879 0.9667
1.1512 -8.0067 -2.4880 0.9667
2.0008 -7.8391 -2.4884 0.9667
2.5553 -7.6776 -2.4888 0.9667
3.6233 -7.2384 -2.4897 0.9667
4.3778 -6.8120 -2.4906 0.9667
4.6187 -6.6522 -2.4909 0.9667
5.5215 -5.9305 -2.4923 0.9667
5.7306 -5.7306 -2.4927 0.9667
5.9324 -5.5232 -2.4931 0.9666
6.9780 -4.1403 -2.4956 0.9666
7.3848 -3.3725 -2.4970 0.9666
7.5019 -3.1074 -2.4975 0.9666
7.6095 -2.8382 -2.4980 0.9666
7.7074 -2.5653 -2.4985 0.9666
8.0005 -1.4434 -2.5005 0.9666
8.1139 -0.5803 -2.5020 0.9665
8.1311 -0.2904 -2.5025 0.9665
-7.4756 -0.8037 -2.4992 0.9688
-7.4408 -1.0698 -2.4988 0.9688
-7.2076 -2.1164 -2.4970 0.9688
-7.0359 -2.6242 -2.4961 0.9688
-6.9366 -2.8732 -2.4957 0.9688
-6.8285 -3.1185 -2.4953 0.9689
-6.5865 -3.5965 -2.4945 0.9689
-6.4529 -3.8287 -2.4941 0.9689
-6.3112 -4.0560 -2.4938 0.9689
-6.0041 -4.4946 -2.4930 0.9689
-5.6666 -4.9101 -2.4924 0.9689
-5.4870 -5.1086 -2.4921 0.9689
-5.1074 -5.4857 -2.4915 0.9689
-4.9078 -5.6639 -2.4912 0.9689
-4.2729 -6.1542 -2.4904 0.9689
-4.0502 -6.3022 -2.4902 0.9689
-3.5897 -6.5740 -2.4898 0.9689
-3.3525 -6.6975 -2.4896 0.9689
-2.8658 -6.9187 -2.4893 0.9689
-2.6169 -7.0162 -2.4892 0.9689
-1.8517 -7.2549 -2.4889 0.9689
-1.5915 -7.3162 -2.4888 0.9689
-1.3294 -7.3681 -2.4888 0.9689
0.0000 -7.4871 -2.4888 0.9689
0.5341 -7.4684 -2.4889 0.9689
1.3296 -7.3693 -2.4892 0.9689
1.8521 -7.2565 -2.4894 0.9689
2.3654 -7.1069 -2.4898 0.9689
2.8668 -6.9211 -2.4902 0.9689
3.1123 -6.8150 -2.4904 0.9689
3.3539 -6.7002 -2.4906 0.9689
3.5913 -6.5769 -2.4909 0.9689
3.8241 -6.4452 -2.4912 0.9689
4.0522 -6.3053 -2.4914 0.9689
4.7047 -5.8382 -2.4923 0.9689
6.0085 -4.4979 -2.4949 0.9689
6.1662 -4.2813 -2.4953 0.9689
6.3161 -4.0591 -2.4957 0.9688
6.4580 -3.8317 -2.4961 0.9688
6.7172 -3.3624 -2.4970 0.9688
6.8342 -3.1211 -2.4974 0.9688
7.0419 -2.6265 -2.4983 0.9688
7.1325 -2.3739 -2.4987 0.9688
7.2140 -2.1182 -2.4992 0.9688
7.2863 -1.8597 -2.4997 0.9688
7.3494 -1.5988 -2.5001 0.9688
7.4032 -1.3357 -2.5006 0.9688
7.4476 -1.0708 -2.5011 0.9688
7.4824 -0.8044 -2.5015 0.9688
7.5078 -0.5370 -2.5020 0.9688
7.5236 -0.2687 -2.5025 0.9688
-6.9727 -0.4987 -2.4999 0.9707
-6.9170 -0.9945 -2.4990 0.9708
-6.8759 -1.2406 -2.4986 0.9708
-6.8261 -1.4849 -2.4982 0.9708
-6.7677 -1.7273 -2.4977 0.9708
-6.4488 -2.6712 -2.4962 0.9708
-6.3484 -2.8992 -2.4958 0.9708
-6.1236 -3.3437 -2.4950 0.9708
-5.8678 -3.7710 -2.4943 0.9708
-5.1018 -4.7499 -2.4927 0.9708
-4.7488 -5.1006 -2.4922 0.9708
-4.1752 -5.5774 -2.4914 0.9708
-3.9731 -5.7223 -2.4912 0.9708
-3.5541 -5.9902 -2.4908 0.9708
-3.3378 -6.1128 -2.4906 0.9708
-3.1173 -6.2276 -2.4905 0.9708
-2.8929 -6.3345 -2.4903 0.9709
-2.4334 -6.5241 -2.4901 0.9709
-2.1989 -6.6065 -2.4899 0.9709
-1.4799 -6.8031 -2.4897 0.9709
-1.2361 -6.8514 -2.4897 0.9709
-0.4967 -6.9442 -2.4896 0.9709
-0.2485 -6.9575 -2.4896 0.9709
0.0000 -6.9620 -2.4897 0.9709
0.7443 -6.9226 -2.4898 0.9709
0.9909 -6.8919 -2.4899 0.9709
1.2363 -6.8525 -2.4900 0.9709
1.4802 -6.8043 -2.4902 0.9709
2.1994 -6.6083 -2.4906 0.9708
2.4341 -6.5260 -2.4908 0.9708
2.8939 -6.3368 -2.4912 0.9708
3.5557 -5.9928 -2.4919 0.9708
3.7677 -5.8627 -2.4922 0.9708
4.7516 -5.1036 -2.4936 0.9708
4.9314 -4.9314 -2.4940 0.9708
5.1049 -4.7529 -2.4943 0.9708
5.4325 -4.3778 -2.4950 0.9708
5.5861 -4.1817 -2.4954 0.9708
5.8720 -3.7737 -2.4961 0.9708
6.0039 -3.5623 -2.4965 0.9708
6.1282 -3.3462 -2.4969 0.9708
6.2447 -3.1259 -2.4973 0.9708
6.6304 -2.2068 -2.4990 0.9708
6.8318 -1.4862 -2.5002 0.9707
6.9228 -0.9954 -2.5011 0.9707
6.9552 -0.7478 -2.5016 0.9707
6.9787 -0.4991 -2.5020 0.9707
6.9932 -0.2498 -2.5024 0.9707
-6.5258 0.0000 -2.5008 0.9724
-6.5070 -0.4654 -2.5000 0.9724
-6.4852 -0.6972 -2.4996 0.9724
-6.4552 -0.9281 -2.4992 0.9725
-6.4170 -1.1577 -2.4988 0.9725
-6.2535 -1.8362 -2.4976 0.9725
-6.1831 -2.0579 -2.4973 0.9725
-6.1048 -2.2770 -2.4969 0.9725
-5.7154 -3.1208 -2.4955 0.9725
-5.5996 -3.3224 -2.4951 0.9725
-5.4767 -3.5197 -2.4948 0.9725
-5.3469 -3.7125 -2.4945 0.9725
-4.6002 -4.6002 -2.4931 0.9725
-4.2594 -4.9157 -2.4926 0.9725
-4.0809 -5.0641 -2.4923 0.9725
-3.8972 -5.2060 -2.4921 0.9725
-2.9099 -5.8132 -2.4912 0.9725
-2.4875 -6.0053 -2.4910 0.9725
-2.0525 -6.1669 -2.4907 0.9725
-1.8311 -6.2360 -2.4907 0.9725
-1.6073 -6.2972 -2.4906 0.9725
-1.3815 -6.3504 -2.4905 0.9725
-0.4636 -6.4822 -2.4904 0.9725
0.0000 -6.4988 -2.4905 0.9725
0.4636 -6.4825 -2.4906 0.9725
0.6947 -6.4620 -2.4906 0.9725
1.3817 -6.3515 -2.4909 0.9725
2.0531 -6.1685 -2.4914 0.9725
2.2721 -6.0917 -2.4915 0.9725
2.7013 -5.9149 -2.4919 0.9725
2.9109 -5.8152 -2.4921 0.9725
3.1169 -5.7081 -2.4923 0.9725
3.3189 -5.5938 -2.4926 0.9725
3.5168 -5.4723 -2.4928 0.9725
3.7103 -5.3438 -2.4931 0.9725
3.8991 -5.2085 -2.4933 0.9725
4.0829 -5.0666 -2.4936 0.9725
4.6028 -4.6028 -2.4945 0.9725
4.7647 -4.4361 -2.4948 0.9725
5.0704 -4.0860 -2.4955 0.9725
5.3504 -3.7149 -2.4961 0.9725
5.4804 -3.5220 -2.4965 0.9725
5.7194 -3.1230 -2.4972 0.9725
5.8281 -2.9173 -2.4976 0.9725
6.1093 -2.2787 -2.4988 0.9725
6.3755 -1.3869 -2.5004 0.9724
6.4603 -0.9289 -2.5012 0.9724
6.4904 -0.6978 -2.5016 0.9724
6.5122 -0.4658 -2.5020 0.9724
6.5258 -0.2331 -2.5024 0.9724
-6.1105 0.0000 -2.5009 0.9739
-6.0930 -0.4358 -2.5001 0.9739
-6.0446 -0.8691 -2.4994 0.9740
-6.0089 -1.0841 -2.4990 0.9740
-5.9655 -1.2977 -2.4986 0.9740
-5.9145 -1.5096 -2.4983 0.9740
-5.8560 -1.7195 -2.4979 0.9740
-5.7901 -1.9271 -2.4976 0.9740
-5.7168 -2.1323 -2.4972 0.9740
-5.6363 -2.3346 -2.4969 0.9740
-5.1290 -3.2962 -2.4953 0.9740
-4.8796 -3.6528 -2.4947 0.9740
-4.3083 -4.3083 -2.4936 0.9740
-4.1513 -4.4589 -2.4934 0.9740
-3.9892 -4.6038 -2.4932 0.9740
-3.6500 -4.8758 -2.4927 0.9740
-3.2923 -5.1230 -2.4924 0.9740
-3.1072 -5.2369 -2.4922 0.9740
-2.7253 -5.4445 -2.4919 0.9740
-2.5291 -5.5381 -2.4918 0.9740
-2.3298 -5.6245 -2.4916 0.9740
-1.9224 -5.7759 -2.4914 0.9740
-1.5054 -5.8980 -2.4913 0.9740
-1.0807 -5.9901 -2.4912 0.9740
-0.8662 -6.0248 -2.4912 0.9740
0.2173 -6.0831 -2.4912 0.9740
0.6507 -6.0524 -2.4914 0.9740
0.8663 -6.0255 -2.4914 0.9740
1.0809 -5.9909 -2.4915 0.9740
1.5057 -5.8991 -2.4917 0.9740
2.1280 -5.7053 -2.4922 0.9740
2.5299 -5.5398 -2.4925 0.9740
2.7262 -5.4464 -2.4927 0.9740
3.2937 -5.1251 -2.4934 0.9740
3.8238 -4.7450 -2.4941 0.9740
4.6082 -3.9930 -2.4955 0.9740
4.8825 -3.6550 -2.4962 0.9740
5.3559 -2.9245 -2.4975 0.9740
5.6402 -2.3362 -2.4986 0.9740
5.7208 -2.1338 -2.4990 0.9740
5.8602 -1.7207 -2.4997 0.9739
5.9188 -1.5107 -2.5001 0.9739
5.9698 -1.2987 -2.5004 0.9739
6.0133 -1.0849 -2.5008 0.9739
6.0976 -0.4361 -2.5020 0.9739
6.1102 -0.2182 -2.5023 0.9739
-5.7385 0.0000 -2.5009 0.9753
-5.6433 -1.0182 -2.4992 0.9753
-5.6026 -1.2188 -2.4988 0.9753
-5.4999 -1.6149 -2.4981 0.9753
-5.2937 -2.1927 -2.4972 0.9753
-5.2114 -2.3800 -2.4969 0.9753
-5.0271 -2.7450 -2.4962 0.9753
-4.3259 -3.7484 -2.4946 0.9753
-4.0467 -4.0467 -2.4941 0.9753
-3.8993 -4.1882 -2.4939 0.9753
-3.7470 -4.3243 -2.4937 0.9753
-3.4284 -4.5799 -2.4933 0.9753
-2.9186 -4.9191 -2.4928 0.9754
-2.1884 -5.2833 -2.4923 0.9754
-1.0152 -5.6268 -2.4918 0.9754
-0.8137 -5.6594 -2.4918 0.9754
-0.6112 -5.6848 -2.4918 0.9754
0.0000 -5.7176 -2.4918 0.9754
0.8138 -5.6599 -2.4921 0.9754
1.0153 -5.6275 -2.4921 0.9754
1.2156 -5.5879 -2.4922 0.9754
1.4143 -5.5412 -2.4924 0.9754
2.1890 -5.2847 -2.4929 0.9753
3.9012 -4.1902 -2.4951 0.9753
4.0487 -4.0487 -2.4954 0.9753
4.1911 -3.9020 -2.4956 0.9753
4.3282 -3.7504 -2.4959 0.9753
4.4598 -3.5939 -2.4962 0.9753
4.5858 -3.4329 -2.4965 0.9753
4.7060 -3.2674 -2.4968 0.9753
5.3728 -2.0040 -2.4991 0.9753
5.4416 -1.8112 -2.4995 0.9753
5.5036 -1.6160 -2.4998 0.9753
5.5586 -1.4187 -2.5002 0.9753
5.6064 -1.2196 -2.5005 0.9753
5.6472 -1.0189 -2.5009 0.9753
5.6808 -0.8168 -2.5012 0.9753
5.7071 -0.6136 -2.5016 0.9753
5.7262 -0.4095 -2.5020 0.9753
5.7380 -0.2049 -2.5023 0.9753
-5.3878 -0.3853 -2.5003 0.9765
-5.3452 -0.7685 -2.4996 0.9765
-5.2753 -1.1476 -2.4990 0.9765
-5.2304 -1.3350 -2.4987 0.9765
-4.9847 -2.0647 -2.4974 0.9765
-4.9072 -2.2411 -2.4971 0.9765
-4.7338 -2.5848 -2.4966 0.9765
-4.4289 -3.0750 -2.4958 0.9765
-4.0736 -3.5298 -2.4950 0.9765
-3.6720 -3.9440 -2.4944 0.9765
-3.5286 -4.0722 -2.4942 0.9765
-3.0724 -4.4251 -2.4936 0.9765
-2.9123 -4.5316 -2.4935 0.9765
-2.7485 -4.6324 -2.4933 0.9765
-2.4108 -4.8162 -2.4930 0.9765
-2.0609 -4.9754 -2.4928 0.9765
-1.8819 -5.0456 -2.4927 0.9765
0.5756 -5.3540 -2.4926 0.9765
1.5174 -5.1677 -2.4930 0.9765
1.7009 -5.1105 -2.4932 0.9765
2.0614 -4.9767 -2.4934 0.9765
2.2379 -4.9003 -2.4936 0.9765
2.7495 -4.6340 -2.4941 0.9765
2.9133 -4.5333 -2.4943 0.9765
3.2299 -4.3146 -2.4948 0.9765
3.3821 -4.1970 -2.4950 0.9765
3.8125 -3.8125 -2.4957 0.9765
4.0756 -3.5316 -2.4963 0.9765
4.3182 -3.2325 -2.4968 0.9765
4.4313 -3.0767 -2.4971 0.9765
4.5388 -2.9169 -2.4974 0.9765
4.8264 -2.4159 -2.4983 0.9765
4.9877 -2.0660 -2.4990 0.9765
5.0589 -1.8869 -2.4993 0.9765
5.1237 -1.7053 -2.4996 0.9765
5.2337 -1.3358 -2.5003 0.9765
5.2787 -1.1483 -2.5006 0.9765
5.3487 -0.7690 -2.5013 0.9765
5.4024 -0.1929 -2.5023 0.9765
-5.0145 -0.9047 -2.4995 0.9776
-4.6312 -2.1150 -2.4974 0.9776
-4.4676 -2.4395 -2.4969 0.9776
-4.3772 -2.5971 -2.4966 0.9776
-4.1799 -2.9022 -2.4961 0.9776
-4.0733 -3.0492 -2.4959 0.9776
-3.9615 -3.1924 -2.4956 0.9776
-3.8447 -3.3314 -2.4954 0.9776
-3.4657 -3.7224 -2.4948 0.9776
-3.1908 -3.9596 -2.4944 0.9776
-2.7487 -4.2771 -2.4939 0.9776
-2.5942 -4.3722 -2.4938 0.9776
-2.2754 -4.5457 -2.4935 0.9776
-2.1116 -4.6238 -2.4934 0.9776
-1.9452 -4.6961 -2.4933 0.9776
-1.7763 -4.7623 -2.4932 0.9776
-1.4319 -4.8766 -2.4931 0.9776
-1.0803 -4.9661 -2.4930 0.9776
-0.9024 -5.0015 -2.4929 0.9776
-0.3626 -5.0692 -2.4929 0.9776
0.0000 -5.0822 -2.4929 0.9776
0.3626 -5.0694 -2.4930 0.9776
0.5433 -5.0534 -2.4931 0.9776
0.7233 -5.0309 -2.4931 0.9776
0.9025 -5.0020 -2.4932 0.9776
1.0805 -4.9668 -2.4933 0.9776
1.6054 -4.8235 -2.4936 0.9776
1.9456 -4.6972 -2.4939 0.9776
2.4371 -4.4631 -2.4944 0.9776
2.7497 -4.2785 -2.4948 0.9776
2.9008 -4.1780 -2.4950 0.9776
3.0484 -4.0721 -2.4952 0.9776
3.1920 -3.9611 -2.4954 0.9776
3.4671 -3.7240 -2.4958 0.9776
3.9634 -3.1939 -2.4968 0.9776
4.0753 -3.0507 -2.4971 0.9776
4.1821 -2.9037 -2.4974 0.9776
4.2835 -2.7528 -2.4977 0.9776
4.3795 -2.5985 -2.4979 0.9776
4.4700 -2.4408 -2.4982 0.9776
4.5548 -2.2800 -2.4985 0.9776
4.7070 -1.9497 -2.4991 0.9776
4.8353 -1.6093 -2.4997 0.9776
5.0876 -0.3639 -2.5019 0.9775
-4.8210 0.0000 -2.5011 0.9785
-4.7917 -0.5152 -2.5002 0.9785
-4.7416 -0.8555 -2.4996 0.9785
-4.7075 -1.0241 -2.4993 0.9785
-4.6214 -1.3570 -2.4987 0.9785
-4.5696 -1.5209 -2.4984 0.9785
-4.5119 -1.6828 -2.4982 0.9785
-4.4484 -1.8426 -2.4979 0.9785
-4.3794 -2.0000 -2.4976 0.9785
-4.3048 -2.1548 -2.4974 0.9785
-4.1392 -2.4559 -2.4969 0.9785
-3.8519 -2.8835 -2.4962 0.9786
-3.4012 -3.4012 -2.4953 0.9786
-3.2774 -3.5202 -2.4952 0.9786
-3.1494 -3.6347 -2.4950 0.9786
-3.0175 -3.7445 -2.4948 0.9786
-2.7423 -3.9497 -2.4945 0.9786
-2.1519 -4.2989 -2.4940 0.9786
-1.9970 -4.3728 -2.4939 0.9786
-1.8396 -4.4411 -2.4938 0.9786
-0.8534 -4.7300 -2.4934 0.9786
-0.5138 -4.7787 -2.4934 0.9786
-0.3429 -4.7940 -2.4934 0.9786
-0.1715 -4.8032 -2.4934 0.9786
-0.0000 -4.8063 -2.4934 0.9786
0.6841 -4.7578 -2.4936 0.9786
0.8535 -4.7305 -2.4937 0.9786
1.6802 -4.5047 -2.4942 0.9786
1.8400 -4.4421 -2.4943 0.9786
2.1524 -4.3000 -2.4946 0.9786
2.4540 -4.1361 -2.4950 0.9786
2.7433 -3.9510 -2.4953 0.9786
3.0186 -3.7459 -2.4957 0.9786
3.2787 -3.5216 -2.4962 0.9786
3.4026 -3.4026 -2.4964 0.9785
3.5222 -3.2793 -2.4966 0.9785
3.7479 -3.0203 -2.4971 0.9785
4.0506 -2.6031 -2.4979 0.9785
4.1413 -2.4572 -2.4981 0.9785
4.3070 -2.1559 -2.4987 0.9785
4.4509 -1.8436 -2.4993 0.9785
4.6241 -1.3577 -2.5001 0.9785
4.6701 -1.1920 -2.5004 0.9785
4.7102 -1.0247 -2.5007 0.9785
4.7444 -0.8560 -2.5010 0.9785
4.7725 -0.6862 -2.5013 0.9785
4.7945 -0.5155 -2.5016 0.9785
4.8104 -0.3441 -2.5019 0.9785
-4.5665 0.0000 -2.5011 0.9794
-4.5631 -0.1630 -2.5008 0.9794
-4.5538 -0.3257 -2.5005 0.9794
-4.5180 -0.6496 -2.5000 0.9794
-4.3777 -1.2854 -2.4989 0.9794
-4.3285 -1.4407 -2.4986 0.9794
-4.2139 -1.7454 -2.4981 0.9794
-4.0778 -2.0412 -2.4976 0.9794
-3.9211 -2.3265 -2.4971 0.9794
-3.8352 -2.4647 -2.4969 0.9794
-3.6489 -2.7316 -2.4965 0.9794
-3.5488 -2.8598 -2.4963 0.9794
-3.3352 -3.1052 -2.4959 0.9794
-3.2220 -3.2220 -2.4957 0.9794
-2.9835 -3.4432 -2.4953 0.9794
-2.3241 -3.9171 -2.4946 0.9794
-2.1827 -3.9974 -2.4945 0.9794
-2.0386 -4.0725 -2.4944 0.9794
-1.8918 -4.1425 -2.4943 0.9794
-1.4380 -4.3206 -2.4940 0.9794
-1.1261 -4.4120 -2.4939 0.9794
-0.8085 -4.4810 -2.4939 0.9794
-0.6480 -4.5069 -2.4938 0.9794
-0.3248 -4.5416 -2.4938 0.9794
-0.1625 -4.5504 -2.4938 0.9794
-0.0000 -4.5533 -2.4939 0.9794
0.1625 -4.5505 -2.4939 0.9794
0.3248 -4.5418 -2.4939 0.9794
0.4867 -4.5274 -2.4940 0.9794
0.8085 -4.4814 -2.4941 0.9794
1.7431 -4.2082 -2.4947 0.9794
1.8923 -4.1435 -2.4949 0.9794
2.0391 -4.0736 -2.4950 0.9794
2.4633 -3.8330 -2.4955 0.9794
2.5987 -3.7429 -2.4957 0.9794
2.9846 -3.4445 -2.4963 0.9794
3.1059 -3.3360 -2.4965 0.9794
3.4457 -2.9857 -2.4971 0.9794
3.5504 -2.8611 -2.4974 0.9794
3.6506 -2.7328 -2.4976 0.9794
3.7461 -2.6010 -2.4978 0.9794
4.0039 -2.1863 -2.4986 0.9794
4.0798 -2.0422 -2.4989 0.9794
4.2762 -1.5949 -2.4997 0.9794
4.4939 -0.8108 -2.5011 0.9794
4.5413 -0.4882 -2.5016 0.9794
4.5564 -0.3259 -2.5019 0.9794
-4.3321 0.0000 -2.5011 0.9802
-4.3059 -0.4629 -2.5003 0.9802
-4.2610 -0.7688 -2.4998 0.9802
-4.2304 -0.9203 -2.4995 0.9802
-4.1944 -1.0706 -2.4993 0.9802
-4.0547 -1.5123 -2.4985 0.9802
-3.9978 -1.6559 -2.4983 0.9802
-3.8687 -1.9366 -2.4978 0.9802
-3.7201 -2.2072 -2.4974 0.9802
-3.4619 -2.5916 -2.4967 0.9802
-3.3670 -2.7133 -2.4966 0.9802
-3.2677 -2.8315 -2.4964 0.9802
-3.0570 -3.0570 -2.4960 0.9802
-2.9457 -3.1639 -2.4958 0.9802
-2.7121 -3.3656 -2.4955 0.9802
-2.2051 -3.7165 -2.4950 0.9802
-2.0710 -3.7927 -2.4949 0.9802
-1.9342 -3.8640 -2.4948 0.9802
-1.7950 -3.9304 -2.4947 0.9802
-1.6535 -3.9919 -2.4946 0.9802
-1.2172 -4.1454 -2.4944 0.9802
-1.0684 -4.1861 -2.4943 0.9802
-0.9183 -4.2215 -2.4943 0.9802
-0.7671 -4.2516 -2.4943 0.9802
-0.6148 -4.2762 -2.4943 0.9802
-0.4618 -4.2954 -2.4942 0.9802
-0.3082 -4.3092 -2.4942 0.9802
-0.1542 -4.3174 -2.4942 0.9802
0.0000 -4.3202 -2.4943 0.9802
0.1542 -4.3175 -2.4943 0.9802
0.4618 -4.2956 -2.4944 0.9802
0.6149 -4.2765 -2.4944 0.9802
0.7671 -4.2520 -2.4945 0.9802
1.0686 -4.1867 -2.4947 0.9802
1.2174 -4.1460 -2.4948 0.9802
1.5102 -4.0490 -2.4950 0.9802
1.7954 -3.9313 -2.4952 0.9802
1.9346 -3.8649 -2.4954 0.9802
2.3371 -3.6366 -2.4958 0.9802
2.7130 -3.3667 -2.4963 0.9802
2.8317 -3.2680 -2.4965 0.9802
3.0581 -3.0581 -2.4969 0.9802
3.1656 -2.9473 -2.4971 0.9802
3.4634 -2.5927 -2.4978 0.9802
3.6402 -2.3394 -2.4983 0.9802
3.7218 -2.2082 -2.4985 0.9802
3.7986 -2.0742 -2.4988 0.9802
3.8706 -1.9375 -2.4990 0.9802
3.9997 -1.6567 -2.4995 0.9802
4.1086 -1.3675 -2.5000 0.9802
4.1966 -1.0711 -2.5006 0.9802
4.3224 -0.3091 -2.5019 0.9802
4.3312 -0.1547 -2.5022 0.9802
