ply
format ascii 1.0
element vertex 1237
property float32 x
property float32 y
property float32 z
property float32 I
end_header
-18.5596 -19.9344 4.8026 0.8953
-28.6870 -38.3213 8.4406 0.8233
-26.0921 -37.5797 8.0669 0.8304
-15.8215 -34.6443 6.7156 0.8567
-14.1525 -34.1672 6.5210 0.8605
-12.5756 -33.7165 6.3452 0.8640
-11.0796 -33.2888 6.1863 0.8672
-9.6549 -32.8816 6.0427 0.8701
-8.2932 -32.4923 5.9129 0.8727
-4.5373 -31.5574 5.6216 0.8785
-3.3411 -31.0765 5.5112 0.8808
-2.2090 -30.8857 5.4599 0.8818
-1.1003 -30.8071 5.4356 0.8823
-0.0000 -30.1148 5.3100 0.8849
2.1994 -30.7512 5.4361 0.8823
4.1674 -28.9852 5.1634 0.8879
5.5347 -30.6768 5.4965 0.8811
6.8302 -31.3981 5.6658 0.8776
8.1305 -31.8551 5.7970 0.8750
45.5755 -16.9988 8.5770 0.8207
-18.5540 -19.9284 4.1712 0.8957
-26.0938 -37.5821 7.0090 0.8310
-21.5234 -36.2758 6.4618 0.8431
-15.8953 -34.8059 5.8618 0.8566
-14.1533 -34.1690 5.6658 0.8610
-11.0801 -33.2905 5.3750 0.8676
-9.2593 -36.2777 5.7357 0.8594
-6.0017 -33.2650 5.1783 0.8722
-5.2776 -36.7067 5.6811 0.8607
-0.0000 -30.1161 4.6136 0.8853
4.1676 -28.9865 4.4862 0.8882
6.6524 -36.8719 5.7398 0.8593
8.1309 -31.8564 5.0367 0.8754
43.3710 -1.5490 6.6484 0.8389
-18.5484 -19.9224 3.5446 0.8960
-23.7377 -34.1887 5.4200 0.8454
-20.3926 -34.3700 5.2042 0.8511
-19.0231 -34.8383 5.1689 0.8520
-17.5973 -35.1549 5.1194 0.8534
-11.0807 -33.2921 4.5691 0.8680
-9.8874 -33.6733 4.5701 0.8680
-9.6937 -37.9795 5.1043 0.8538
-6.9877 -32.1219 4.2808 0.8758
-6.0018 -33.2655 4.4018 0.8725
-2.3032 -32.2030 4.2042 0.8779
1.0664 -29.8578 3.8906 0.8865
2.4682 -34.5098 4.5054 0.8697
4.1678 -28.9878 3.8136 0.8886
8.1312 -31.8578 4.2815 0.8758
18.8964 -45.6200 6.4301 0.8194
23.6505 -6.9444 3.2098 0.9054
-31.5652 -36.4283 5.1760 0.8237
-26.0969 -37.5867 4.9136 0.8319
-21.5260 -36.2801 4.5299 0.8439
-17.5983 -35.1568 4.2217 0.8537
-14.1547 -34.1726 3.9718 0.8617
-14.7624 -39.5794 4.5361 0.8437
-6.0019 -33.2660 3.6298 0.8729
-3.3415 -31.0806 3.3567 0.8818
-2.3033 -32.2037 3.4669 0.8782
1.0664 -29.8587 3.2083 0.8867
3.6892 -34.3151 3.7060 0.8704
4.1680 -28.9891 3.1449 0.8889
8.0194 -44.4485 4.8500 0.8338
8.1316 -31.8591 3.5308 0.8761
45.5849 -17.0023 5.2244 0.8222
43.2142 -1.5434 4.6434 0.8403
-28.6947 -38.3316 4.0534 0.8251
-26.0985 -37.5890 3.8738 0.8322
-21.5272 -36.2822 3.5713 0.8442
-18.5017 -33.8834 3.2681 0.8564
-17.5992 -35.1588 3.3283 0.8540
-16.7256 -36.6240 3.4083 0.8508
-14.7690 -39.5973 3.5776 0.8440
-11.0818 -33.2954 2.9706 0.8686
-9.8876 -33.6742 2.9710 0.8686
-9.7019 -38.0116 3.3210 0.8543
-6.0019 -33.2666 2.8616 0.8731
-5.2839 -36.7508 3.1430 0.8615
-3.3416 -31.0819 2.6463 0.8821
-2.3033 -32.2043 2.7331 0.8784
-0.0000 -30.1199 2.5497 0.8861
1.0664 -29.8596 2.5293 0.8870
3.6716 -34.1511 2.9076 0.8712
8.0456 -44.5936 3.8359 0.8337
9.3767 -31.9342 2.8174 0.8749
21.5315 -16.1183 2.2768 0.8977
45.8769 -19.0028 4.2036 0.8193
45.5880 -17.0034 4.1188 0.8226
43.1359 -1.5406 3.6538 0.8409
-18.5318 -19.9046 1.6864 0.8967
-28.6966 -38.3341 2.9694 0.8254
-24.3630 -37.9095 2.7944 0.8348
-21.5285 -36.2844 2.6162 0.8444
-17.9162 -32.8111 2.3182 0.8609
-17.6002 -35.1607 2.4382 0.8542
-14.6977 -39.4061 2.6080 0.8449
-9.8878 -33.6746 2.1764 0.8688
-6.0020 -33.2672 2.0962 0.8733
-5.2845 -36.7543 2.3026 0.8617
-3.3418 -31.0833 1.9386 0.8822
-1.2705 -35.5731 2.2073 0.8671
1.0664 -29.8604 1.8528 0.8871
2.4701 -34.5364 2.1471 0.8704
3.6760 -34.1915 2.1324 0.8713
4.1684 -28.9916 1.8163 0.8892
8.1322 -31.8618 2.0391 0.8765
15.7058 -47.1883 3.0840 0.8193
4.5852 -12.2934 0.8136 0.9488
18.8987 -45.6255 3.0624 0.8204
14.3938 -28.7550 1.9940 0.8791
45.5845 -18.8817 3.0596 0.8206
45.5910 -17.0046 3.0174 0.8228
23.5591 -6.9176 1.5226 0.9063
43.0616 -1.5380 2.6720 0.8414
-21.5298 -36.2865 1.6637 0.8446
-17.8650 -32.7174 1.4699 0.8614
-17.6012 -35.1626 1.5505 0.8544
-16.7260 -36.6248 1.5876 0.8511
-11.0829 -33.2986 1.3838 0.8689
-9.7040 -38.0199 1.5472 0.8546
-3.3419 -31.0846 1.2328 0.8824
-0.0000 -30.1224 1.1877 0.8864
1.0665 -29.8613 1.1782 0.8873
2.4702 -34.5378 1.3653 0.8706
8.1326 -31.8632 1.2967 0.8767
9.3775 -31.9369 1.3125 0.8753
4.5873 -12.2990 0.5176 0.9488
14.3000 -28.5678 1.2597 0.8800
22.9686 -15.9474 1.1026 0.8941
39.5424 -21.5918 1.7765 0.8350
45.8760 -19.0024 1.9580 0.8197
-18.5208 -19.8928 0.4591 0.8970
-28.7004 -38.3392 0.8090 0.8256
-24.3634 -37.9102 0.7612 0.8350
-16.7262 -36.6252 0.6801 0.8512
-11.0834 -33.3002 0.5928 0.8690
-9.8880 -33.6755 0.5929 0.8690
-9.6934 -37.9782 0.6621 0.8549
-0.0000 -30.1236 0.5089 0.8865
1.0665 -29.8622 0.5048 0.8873
3.6721 -34.1552 0.5803 0.8716
7.4956 -29.3674 0.5120 0.8858
9.3779 -31.9383 0.5623 0.8753
4.5894 -12.3046 0.2218 0.9488
45.8756 -19.0023 0.8388 0.8198
23.4990 -6.8999 0.4137 0.9067
34.7202 -6.2642 0.5960 0.8684
33.2147 -3.5710 0.5643 0.8749
-18.5154 -19.8869 -0.1530 0.8970
-26.1052 -37.5985 -0.2577 0.8327
-24.3636 -37.9106 -0.2537 0.8351
-22.8335 -41.8164 -0.2682 0.8265
-14.1583 -34.1813 -0.2083 0.8624
-9.8882 -33.6759 -0.1976 0.8690
-9.7049 -38.0234 -0.2209 0.8547
-6.9896 -32.1307 -0.1851 0.8768
-5.2852 -36.7592 -0.2091 0.8620
-3.3386 -31.0532 -0.1758 0.8826
-1.2418 -34.7689 -0.1959 0.8701
1.0665 -29.8631 -0.1682 0.8873
2.4709 -34.5483 -0.1950 0.8706
8.0681 -44.7186 -0.2558 0.8338
4.5915 -12.3102 -0.0740 0.9488
33.1802 -3.5673 -0.1879 0.8750
42.9615 -1.5344 -0.2420 0.8420
-18.5099 -19.8811 -0.7649 0.8970
-28.7042 -38.3442 -1.3487 0.8256
-21.5335 -36.2928 -1.1883 0.8446
-17.6040 -35.1683 -1.1074 0.8544
-14.7331 -39.5009 -1.1871 0.8448
-9.8883 -33.6764 -0.9883 0.8690
-9.7054 -38.0252 -1.1050 0.8547
-6.9899 -32.1321 -0.9259 0.8767
-5.2854 -36.7607 -1.0458 0.8619
-3.3424 -31.0887 -0.8804 0.8824
4.1691 -28.9966 -0.8249 0.8894
9.3787 -31.9410 -0.9374 0.8753
43.3926 -16.1846 -1.3041 0.8308
23.4393 -6.8824 -0.6879 0.9069
33.1812 -3.5674 -0.9397 0.8750
42.9283 -1.5332 -1.2095 0.8421
-46.2694 -3.3092 -2.3525 0.8304
-46.0635 -4.9523 -2.3495 0.8306
-48.4236 -8.7365 -2.4954 0.8211
-48.0206 -10.4462 -2.4923 0.8213
-45.1243 -18.6911 -2.4770 0.8223
-44.3753 -20.2655 -2.4740 0.8225
-39.6533 -23.5274 -2.3383 0.8314
-32.9561 -22.8818 -2.0347 0.8516
-32.5118 -24.3380 -2.0596 0.8499
-28.2605 -26.3114 -1.9582 0.8567
-18.5045 -19.8752 -1.3772 0.8969
-27.4964 -36.7309 -2.3269 0.8321
-21.5348 -36.2949 -2.1403 0.8445
-17.6050 -35.1702 -1.9946 0.8543
-16.7267 -36.6264 -2.0420 0.8511
-14.1598 -34.1848 -1.8765 0.8623
-14.7014 -39.4159 -2.1335 0.8449
-11.0850 -33.3050 -1.7801 0.8688
-9.6947 -37.9835 -1.9881 0.8547
-6.9902 -32.1336 -1.6677 0.8766
-3.3425 -31.0900 -1.5858 0.8823
-2.3036 -32.2083 -1.6376 0.8787
-1.2419 -34.7725 -1.7646 0.8699
3.6767 -34.1984 -1.7443 0.8713
4.1693 -28.9979 -1.4857 0.8893
9.9573 -45.7730 -2.3756 0.8289
7.4010 -28.9966 -1.5177 0.8870
17.9435 -43.3196 -2.3779 0.8288
19.4791 -42.6534 -2.3780 0.8288
22.4707 -41.1519 -2.3778 0.8288
23.9226 -40.3194 -2.3776 0.8288
26.7278 -38.4953 -2.3767 0.8289
29.3891 -36.4696 -2.3753 0.8290
22.4819 -24.1473 -1.6732 0.8762
27.0181 -20.2256 -1.7116 0.8736
39.2051 -25.1956 -2.3634 0.8297
40.0481 -23.7616 -2.3616 0.8299
43.9400 -14.6247 -2.3486 0.8307
34.2330 -4.9220 -1.7539 0.8706
45.9286 -3.2849 -2.3352 0.8316
-34.2101 0.0000 -2.5084 0.8718
-34.1584 -1.2199 -2.5062 0.8719
-34.0633 -2.4362 -2.5040 0.8720
-33.9249 -3.6473 -2.5018 0.8721
-33.5196 -6.0476 -2.4974 0.8723
-33.2534 -7.2338 -2.4952 0.8724
-31.7764 -11.8520 -2.4867 0.8728
-31.3069 -12.9678 -2.4846 0.8729
-30.2522 -15.1432 -2.4805 0.8731
-27.7018 -19.2337 -2.4727 0.8735
-25.9936 -19.4585 -2.3808 0.8779
-23.8840 -20.6956 -2.3172 0.8810
-23.1140 -21.5198 -2.3156 0.8810
-18.5727 -18.5727 -1.9259 0.9000
-17.9243 -19.2521 -1.9287 0.8999
-17.6632 -20.3844 -1.9777 0.8975
-18.9080 -25.2581 -2.3134 0.8811
-18.0103 -25.9397 -2.3155 0.8810
-17.0877 -26.5890 -2.3175 0.8809
-16.1414 -27.2049 -2.3194 0.8808
-11.5249 -21.1062 -1.7632 0.9081
-10.6733 -21.3225 -1.7483 0.9088
-11.0978 -29.7544 -2.3285 0.8804
-10.0359 -30.1531 -2.3301 0.8803
-8.9593 -30.5125 -2.3317 0.8803
-6.7685 -31.1141 -2.3347 0.8801
-5.6570 -31.3549 -2.3361 0.8800
-4.5369 -31.5553 -2.3375 0.8800
-3.3427 -31.0913 -2.2928 0.8821
-2.2766 -31.8312 -2.3399 0.8799
-1.1396 -31.9077 -2.3410 0.8798
1.0666 -29.8657 -2.1912 0.8870
3.4184 -31.7956 -2.3448 0.8796
4.1694 -28.9992 -2.1482 0.8891
2.1082 -11.6851 -0.8706 0.9535
2.5165 -11.5683 -0.8681 0.9536
10.1129 -30.3844 -2.3480 0.8795
12.2567 -29.5903 -2.3484 0.8795
13.3056 -29.1353 -2.3485 0.8794
15.1763 -27.7933 -2.3219 0.8807
17.3129 -26.9394 -2.3480 0.8795
23.3988 -21.7851 -2.3441 0.8797
24.1525 -20.9283 -2.3432 0.8797
25.5623 -19.1357 -2.3413 0.8798
22.9764 -8.5698 -1.7980 0.9063
22.6734 -7.5464 -1.7521 0.9086
31.0749 -6.7599 -2.3318 0.8803
31.3223 -5.6512 -2.3337 0.8802
31.5305 -4.5334 -2.3357 0.8801
31.9982 -2.2886 -2.3522 0.8793
33.9835 -1.2137 -2.4933 0.8725
-26.1115 0.0000 -2.5068 0.9004
-25.9099 -2.7856 -2.5018 0.9006
-25.7767 -3.7061 -2.5001 0.9006
-25.6109 -4.6207 -2.4985 0.9007
-25.4128 -5.5282 -2.4968 0.9008
-24.9207 -7.3174 -2.4935 0.9009
-23.5649 -10.7618 -2.4871 0.9011
-23.1513 -11.5887 -2.4856 0.9012
-21.7402 -13.9716 -2.4810 0.9014
-21.2153 -14.7300 -2.4796 0.9014
-20.6641 -15.4689 -2.4781 0.9015
-17.1048 -17.1048 -2.3223 0.9074
-13.7634 -19.8231 -2.3169 0.9076
-13.0416 -20.2931 -2.3159 0.9076
-11.5516 -21.1552 -2.3141 0.9077
-10.7882 -21.5520 -2.3138 0.9077
-6.6617 -14.5870 -1.5396 0.9376
-5.8694 -14.1700 -1.4725 0.9402
-5.3735 -14.4070 -1.4762 0.9401
-4.6101 -13.8510 -1.4015 0.9430
-4.1673 -14.1926 -1.4201 0.9423
-4.2974 -23.8189 -2.3236 0.9073
-2.5894 -24.0853 -2.3256 0.9072
-0.8653 -24.2271 -2.3274 0.9072
0.6238 -17.4665 -1.6779 0.9322
1.2403 -17.3418 -1.6692 0.9325
2.1156 -11.7258 -1.1439 0.9532
2.5253 -11.6086 -1.1405 0.9534
6.8447 -23.3111 -2.3325 0.9070
7.6733 -23.0545 -2.3327 0.9070
4.5999 -12.3327 -1.2637 0.9485
7.0628 -15.4654 -1.6323 0.9340
11.6465 -21.3290 -2.3331 0.9070
12.3998 -20.8988 -2.3330 0.9070
13.1368 -20.4413 -2.3328 0.9070
15.2406 -18.9125 -2.3319 0.9070
15.9031 -18.3531 -2.3314 0.9070
12.9170 -13.8739 -1.8199 0.9267
18.8849 -15.2184 -2.3285 0.9071
19.4098 -14.5300 -2.3277 0.9072
20.8287 -12.3582 -2.3251 0.9073
21.2547 -11.6060 -2.3249 0.9073
21.6674 -10.8459 -2.3262 0.9072
22.0531 -10.0713 -2.3275 0.9072
22.7419 -8.4823 -2.3303 0.9071
22.5481 -7.5047 -2.2815 0.9089
23.4326 -5.9808 -2.3218 0.9074
23.7758 -5.1721 -2.3360 0.9069
24.5119 -4.4224 -2.3912 0.9048
25.8091 -2.7748 -2.4921 0.9009
25.9754 -0.9277 -2.4954 0.9008
-21.0958 0.0000 -2.5059 0.9185
-20.9410 -2.2514 -2.5018 0.9187
-20.3636 -5.1975 -2.4965 0.9188
-20.1544 -5.9179 -2.4951 0.9189
-19.9198 -6.6299 -2.4938 0.9189
-19.0672 -8.7077 -2.4899 0.9190
-17.5990 -11.3102 -2.4850 0.9192
-16.7316 -12.5251 -2.4827 0.9193
-15.7812 -13.6745 -2.4804 0.9193
-15.2764 -14.2229 -2.4794 0.9194
-14.7528 -14.7528 -2.4783 0.9194
-13.6146 -15.7121 -2.4696 0.9197
-11.7242 -15.6617 -2.3239 0.9242
-11.1537 -16.0644 -2.3231 0.9242
-6.6618 -14.5873 -1.9049 0.9374
-5.8541 -14.1330 -1.8171 0.9402
-4.5868 -13.7810 -1.7253 0.9432
-4.8235 -18.8983 -2.3168 0.9244
-2.7757 -19.3058 -2.3168 0.9244
-2.0856 -19.3991 -2.3176 0.9244
-1.3923 -19.4673 -2.3183 0.9244
-0.6968 -19.5103 -2.3190 0.9244
0.0000 -19.5282 -2.3197 0.9244
0.6972 -19.5208 -2.3203 0.9243
1.2835 -17.9455 -2.1371 0.9301
2.7817 -19.3471 -2.3218 0.9243
2.9333 -11.4924 -1.4089 0.9533
5.6763 -13.7038 -1.7619 0.9420
7.1938 -15.7522 -2.0570 0.9326
8.7563 -17.4928 -2.3237 0.9242
9.3749 -17.1688 -2.3236 0.9242
9.9813 -16.8226 -2.3236 0.9242
11.1544 -16.0654 -2.3232 0.9242
12.2693 -15.2253 -2.3227 0.9243
14.7860 -12.8121 -2.3240 0.9242
15.2396 -12.2808 -2.3249 0.9242
17.8560 -8.1546 -2.3318 0.9240
18.1442 -7.5156 -2.3328 0.9239
18.4096 -6.8664 -2.3340 0.9239
19.7837 -5.8090 -2.4492 0.9203
20.4837 -4.4560 -2.4901 0.9190
20.7708 -2.9864 -2.4927 0.9189
20.8751 -2.2443 -2.4940 0.9189
20.9530 -1.4986 -2.4953 0.9189
21.0043 -0.7502 -2.4966 0.9188
-17.6812 0.0000 -2.5052 0.9311
-17.6620 -0.6308 -2.5041 0.9311
-17.5561 -1.8875 -2.5018 0.9312
-17.3610 -3.1322 -2.4996 0.9312
-17.2303 -3.7482 -2.4985 0.9312
-17.0779 -4.3589 -2.4973 0.9313
-16.4922 -6.1513 -2.4940 0.9314
-16.2551 -6.7331 -2.4929 0.9314
-15.7199 -7.8688 -2.4908 0.9314
-15.4225 -8.4213 -2.4898 0.9315
-15.1059 -8.9628 -2.4887 0.9315
-14.7704 -9.4923 -2.4877 0.9315
-14.4164 -10.0095 -2.4867 0.9316
-14.0445 -10.5135 -2.4858 0.9316
-13.2486 -11.4800 -2.4839 0.9316
-10.9809 -13.6265 -2.4796 0.9317
-10.4843 -14.0054 -2.4788 0.9318
-9.3107 -14.4877 -2.4401 0.9328
-8.4556 -14.2512 -2.3479 0.9352
-6.6619 -14.5876 -2.2722 0.9373
-5.8544 -14.1338 -2.1676 0.9401
-3.4831 -16.0116 -2.3217 0.9359
-2.3314 -16.2152 -2.3212 0.9360
-1.7510 -16.2865 -2.3209 0.9360
1.1682 -16.3341 -2.3203 0.9360
1.7505 -16.2819 -2.3203 0.9360
2.5255 -11.6096 -1.6834 0.9531
2.9334 -11.4929 -1.6806 0.9532
4.8037 -11.5972 -1.7786 0.9506
7.3359 -14.6553 -2.3221 0.9359
9.3539 -13.4722 -2.3239 0.9359
10.7480 -12.4039 -2.3255 0.9358
11.1868 -12.0155 -2.3261 0.9358
12.4179 -10.7602 -2.3281 0.9358
13.1622 -9.8531 -2.3296 0.9357
13.5101 -9.3802 -2.3304 0.9357
14.1547 -8.3984 -2.3320 0.9357
14.4507 -7.8907 -2.3329 0.9356
14.7287 -7.3727 -2.3337 0.9356
15.5443 -7.0988 -2.4213 0.9333
16.4513 -6.1360 -2.4878 0.9315
16.6666 -5.5472 -2.4888 0.9315
16.8610 -4.9508 -2.4899 0.9315
17.0341 -4.3477 -2.4909 0.9314
17.5098 -1.8825 -2.4952 0.9313
17.5736 -1.2569 -2.4963 0.9313
17.6151 -0.6291 -2.4975 0.9313
-15.2045 0.0000 -2.5048 0.9402
-15.0997 -1.6234 -2.5019 0.9403
-14.9338 -2.6943 -2.4999 0.9403
-14.8224 -3.2244 -2.4989 0.9404
-14.6922 -3.7499 -2.4980 0.9404
-14.3762 -4.7849 -2.4961 0.9404
-14.1909 -5.2929 -2.4951 0.9404
-13.2737 -7.2480 -2.4915 0.9405
-12.4098 -8.6163 -2.4888 0.9406
-10.6657 -10.6657 -2.4848 0.9407
-9.0290 -12.0614 -2.4820 0.9407
-8.5906 -12.3727 -2.4814 0.9408
-6.1915 -13.5575 -2.4553 0.9414
-5.5412 -13.3776 -2.3854 0.9430
-4.4600 -13.4001 -2.3266 0.9444
-3.4917 -13.6801 -2.3259 0.9444
-2.5062 -13.8910 -2.3253 0.9444
-1.5086 -14.0318 -2.3249 0.9444
-0.5036 -14.1017 -2.3246 0.9444
-0.0000 -14.1100 -2.3245 0.9444
1.0065 -14.0733 -2.3244 0.9444
1.5082 -14.0284 -2.3243 0.9444
1.7136 -11.9186 -1.9837 0.9524
3.9433 -11.8476 -2.0570 0.9506
4.3765 -11.7340 -2.0631 0.9505
4.8130 -11.6195 -2.0719 0.9503
5.2537 -11.5039 -2.0834 0.9500
6.7674 -12.3937 -2.3263 0.9444
7.2066 -12.1461 -2.3266 0.9444
11.0210 -8.8813 -2.3317 0.9442
11.3342 -8.4847 -2.3324 0.9442
13.5013 -6.7583 -2.4873 0.9406
13.7384 -6.2741 -2.4881 0.9406
14.1606 -5.2816 -2.4898 0.9406
14.5116 -4.2610 -2.4916 0.9405
14.6597 -3.7417 -2.4925 0.9405
14.7894 -3.2172 -2.4934 0.9405
14.9003 -2.6883 -2.4943 0.9405
15.1194 -1.0814 -2.4971 0.9404
-13.3242 0.0000 -2.5044 0.9472
-13.3111 -0.4754 -2.5036 0.9472
-13.2811 -0.9499 -2.5027 0.9472
-13.0901 -2.3617 -2.5002 0.9473
-12.9931 -2.8265 -2.4993 0.9473
-12.7497 -3.7437 -2.4976 0.9474
-12.2643 -5.0800 -2.4951 0.9474
-10.8837 -7.5567 -2.4904 0.9475
-10.6039 -7.9380 -2.4897 0.9475
-9.6864 -9.0184 -2.4876 0.9476
-9.3559 -9.3558 -2.4869 0.9476
-8.6601 -9.9943 -2.4857 0.9476
-8.2959 -10.2946 -2.4851 0.9476
-7.1431 -11.1148 -2.4834 0.9476
-6.7404 -11.3603 -2.4829 0.9477
-3.2359 -12.6781 -2.4594 0.9481
-2.7271 -12.5360 -2.4114 0.9491
-1.7642 -12.2702 -2.3300 0.9508
-1.3239 -12.3143 -2.3279 0.9508
-0.8835 -12.3529 -2.3278 0.9508
-0.4420 -12.3759 -2.3277 0.9508
0.8834 -12.3511 -2.3275 0.9509
1.7099 -11.8924 -2.2583 0.9523
2.1159 -11.7277 -2.2399 0.9527
2.5257 -11.6105 -2.2334 0.9528
3.4817 -11.8576 -2.3229 0.9509
3.9093 -11.7455 -2.3268 0.9509
4.7405 -11.4445 -2.3283 0.9508
5.1464 -11.2692 -2.3286 0.9508
7.4305 -9.9260 -2.3306 0.9508
7.7815 -9.6562 -2.3310 0.9508
8.5573 -9.1912 -2.3604 0.9502
9.0397 -9.0397 -2.4029 0.9493
9.9668 -8.6363 -2.4788 0.9477
10.5870 -7.9253 -2.4857 0.9476
10.8659 -7.5443 -2.4864 0.9476
11.1311 -7.1535 -2.4870 0.9476
11.3824 -6.7535 -2.4877 0.9476
11.6194 -6.3447 -2.4884 0.9475
12.0493 -5.5027 -2.4898 0.9475
12.5799 -4.1870 -2.4920 0.9475
12.7253 -3.7365 -2.4928 0.9475
12.8546 -3.2809 -2.4936 0.9474
13.1445 -1.8899 -2.4960 0.9474
-11.8466 0.0000 -2.5041 0.9527
-11.8355 -0.4227 -2.5034 0.9527
-11.7681 -1.2652 -2.5019 0.9528
-11.6407 -2.1002 -2.5003 0.9528
-11.4544 -2.9235 -2.4988 0.9528
-11.3393 -3.3295 -2.4981 0.9528
-11.0663 -4.1275 -2.4966 0.9529
-10.9088 -4.5186 -2.4959 0.9529
-10.7374 -4.9036 -2.4952 0.9529
-10.5526 -5.2822 -2.4945 0.9529
-9.9192 -6.3747 -2.4924 0.9529
-9.6828 -6.7229 -2.4917 0.9529
-9.4342 -7.0623 -2.4911 0.9530
-9.1737 -7.3927 -2.4904 0.9530
-8.6187 -8.0243 -2.4892 0.9530
-8.3248 -8.3248 -2.4886 0.9530
-8.0205 -8.6147 -2.4880 0.9530
-7.7062 -8.8934 -2.4875 0.9530
-7.3823 -9.1608 -2.4869 0.9530
-7.0491 -9.4165 -2.4864 0.9530
-5.9987 -10.1102 -2.4850 0.9531
-5.2603 -10.5088 -2.4841 0.9531
-4.8811 -10.6882 -2.4837 0.9531
-3.7091 -11.1441 -2.4827 0.9531
-2.4958 -11.4729 -2.4819 0.9531
-2.0845 -11.5537 -2.4816 0.9531
-0.8363 -11.6927 -2.4779 0.9532
-0.4180 -11.7042 -2.4756 0.9532
0.4141 -11.5944 -2.4524 0.9537
0.8209 -11.4773 -2.4323 0.9540
1.6170 -11.2465 -2.4017 0.9546
2.0085 -11.1321 -2.3911 0.9548
3.5531 -10.6754 -2.3783 0.9550
4.3259 -10.4436 -2.3894 0.9548
4.7156 -10.3258 -2.3995 0.9547
5.1089 -10.2063 -2.4126 0.9544
6.6843 -9.6272 -2.4774 0.9532
7.0308 -9.3920 -2.4799 0.9532
7.3697 -9.1452 -2.4827 0.9531
7.6973 -8.8831 -2.4846 0.9531
8.6075 -8.0139 -2.4860 0.9531
9.1611 -7.3825 -2.4870 0.9530
9.4208 -7.0523 -2.4875 0.9530
10.1277 -6.0090 -2.4893 0.9530
10.5358 -5.2739 -2.4905 0.9530
10.8909 -4.5111 -2.4918 0.9529
11.0479 -4.1207 -2.4925 0.9529
11.3200 -3.3238 -2.4938 0.9529
11.6204 -2.0965 -2.4960 0.9529
11.7472 -1.2630 -2.4974 0.9528
11.7883 -0.8431 -2.4982 0.9528
-10.6539 0.0000 -2.5039 0.9572
-10.6442 -0.3801 -2.5032 0.9572
-10.5340 -1.5146 -2.5012 0.9572
-10.4704 -1.8890 -2.5005 0.9572
-10.3934 -2.2609 -2.4998 0.9572
-10.3033 -2.6298 -2.4991 0.9572
-10.2001 -2.9950 -2.4985 0.9573
-10.0841 -3.3563 -2.4978 0.9573
-9.9552 -3.7131 -2.4971 0.9573
-9.8137 -4.0650 -2.4965 0.9573
-9.6599 -4.4115 -2.4958 0.9573
-8.9248 -5.7356 -2.4933 0.9573
-8.7123 -6.0490 -2.4927 0.9574
-8.4888 -6.3546 -2.4921 0.9574
-8.0102 -6.9408 -2.4910 0.9574
-7.7556 -7.2207 -2.4905 0.9574
-7.4914 -7.4914 -2.4899 0.9574
-6.9350 -8.0034 -2.4889 0.9574
-6.0363 -8.6940 -2.4875 0.9574
-5.7212 -8.9023 -2.4871 0.9574
-5.0699 -9.2848 -2.4863 0.9575
-4.3933 -9.6200 -2.4855 0.9575
-4.0466 -9.7694 -2.4852 0.9575
-2.9781 -10.1424 -2.4843 0.9575
-2.2465 -10.3271 -2.4839 0.9575
1.5035 -10.4571 -2.4829 0.9575
1.8758 -10.3969 -2.4830 0.9575
2.6129 -10.2372 -2.4831 0.9575
3.6928 -9.9008 -2.4835 0.9575
4.3904 -9.6136 -2.4839 0.9575
5.0660 -9.2777 -2.4844 0.9575
5.3945 -9.0920 -2.4846 0.9575
5.7163 -8.8947 -2.4849 0.9575
6.0308 -8.6861 -2.4852 0.9575
6.6370 -8.2360 -2.4859 0.9575
6.9278 -7.9951 -2.4863 0.9575
7.7466 -7.2123 -2.4876 0.9574
8.0005 -6.9325 -2.4880 0.9574
8.7008 -6.0411 -2.4895 0.9574
8.9128 -5.7279 -2.4900 0.9574
9.1135 -5.4073 -2.4905 0.9574
9.6458 -4.4051 -2.4922 0.9574
9.7993 -4.0590 -2.4928 0.9574
9.9403 -3.7075 -2.4934 0.9573
10.0688 -3.3512 -2.4940 0.9573
10.1845 -2.9904 -2.4946 0.9573
10.2873 -2.6257 -2.4953 0.9573
10.3772 -2.2574 -2.4959 0.9573
10.5173 -1.5121 -2.4972 0.9573
10.5674 -1.1361 -2.4979 0.9573
10.6040 -0.7584 -2.4986 0.9573
-9.6700 0.0000 -2.5037 0.9608
-9.6074 -1.0329 -2.5019 0.9609
-9.5621 -1.3748 -2.5013 0.9609
-9.2600 -2.7190 -2.4988 0.9609
-9.1548 -3.0470 -2.4982 0.9609
-8.7704 -4.0053 -2.4964 0.9609
-8.1037 -5.2079 -2.4941 0.9610
-7.9109 -5.4926 -2.4936 0.9610
-7.7082 -5.7703 -2.4930 0.9610
-7.4957 -6.0404 -2.4925 0.9610
-6.8030 -6.8030 -2.4910 0.9610
-5.4822 -7.8958 -2.4888 0.9611
-4.6046 -8.4328 -2.4877 0.9611
-4.3001 -8.5906 -2.4874 0.9611
-3.9903 -8.7375 -2.4870 0.9611
-2.7050 -9.2124 -2.4859 0.9611
-1.7043 -9.4464 -2.4853 0.9611
-1.3660 -9.5006 -2.4852 0.9611
-0.6847 -9.5729 -2.4849 0.9611
-0.3425 -9.5908 -2.4848 0.9611
0.3425 -9.5903 -2.4847 0.9611
1.0258 -9.5413 -2.4847 0.9611
1.3657 -9.4987 -2.4847 0.9611
2.0399 -9.3774 -2.4848 0.9611
2.7039 -9.2086 -2.4849 0.9611
3.9879 -8.7322 -2.4855 0.9611
4.8998 -8.2582 -2.4862 0.9611
5.1920 -8.0789 -2.4865 0.9611
5.4776 -7.8893 -2.4868 0.9611
5.7564 -7.6897 -2.4871 0.9611
6.0280 -7.4803 -2.4874 0.9611
6.2921 -7.2614 -2.4877 0.9611
6.7960 -6.7961 -2.4885 0.9611
7.2659 -6.2959 -2.4893 0.9611
7.4873 -6.0336 -2.4897 0.9610
7.6992 -5.7636 -2.4901 0.9610
8.0938 -5.2016 -2.4911 0.9610
8.2759 -4.9103 -2.4916 0.9610
8.4476 -4.6127 -2.4921 0.9610
8.8979 -3.6856 -2.4936 0.9610
9.0257 -3.3664 -2.4942 0.9610
9.2471 -2.7152 -2.4953 0.9610
9.4216 -2.0495 -2.4965 0.9609
9.5483 -1.3728 -2.4977 0.9609
-8.8437 0.0000 -2.5036 0.9639
-8.8360 -0.3156 -2.5030 0.9639
-8.7870 -0.9447 -2.5019 0.9639
-8.6933 -1.5684 -2.5007 0.9639
-8.6298 -1.8773 -2.5002 0.9640
-8.5554 -2.1836 -2.4996 0.9640
-8.4701 -2.4870 -2.4991 0.9640
-8.3741 -2.7872 -2.4985 0.9640
-8.2674 -3.0836 -2.4980 0.9640
-8.1503 -3.3760 -2.4974 0.9640
-7.8854 -3.9471 -2.4963 0.9640
-7.7378 -4.2252 -2.4958 0.9640
-7.4136 -4.7645 -2.4948 0.9640
-7.0521 -5.2791 -2.4938 0.9640
-6.2244 -6.2244 -2.4920 0.9641
-5.9972 -6.4415 -2.4915 0.9641
-5.7625 -6.6503 -2.4911 0.9641
-5.5206 -6.8506 -2.4907 0.9641
-5.2717 -7.0422 -2.4903 0.9641
-4.7545 -7.3981 -2.4896 0.9641
-4.4868 -7.5621 -2.4892 0.9641
-3.9349 -7.8609 -2.4886 0.9641
-3.3633 -8.1197 -2.4880 0.9641
-3.0710 -8.2337 -2.4878 0.9641
-2.7749 -8.3373 -2.4875 0.9641
-1.8673 -8.5840 -2.4869 0.9641
-1.5597 -8.6446 -2.4867 0.9641
-0.0000 -8.7823 -2.4862 0.9641
0.3135 -8.7765 -2.4862 0.9641
0.9387 -8.7317 -2.4861 0.9642
1.2498 -8.6926 -2.4861 0.9641
1.5593 -8.6426 -2.4862 0.9641
1.8668 -8.5816 -2.4862 0.9641
2.1720 -8.5098 -2.4863 0.9641
3.3616 -8.1156 -2.4868 0.9641
3.9326 -7.8562 -2.4871 0.9641
4.7511 -7.3929 -2.4878 0.9641
5.0125 -7.2193 -2.4881 0.9641
5.2675 -7.0366 -2.4883 0.9641
5.5160 -6.8449 -2.4886 0.9641
7.2295 -5.0196 -2.4916 0.9641
7.5719 -4.4926 -2.4924 0.9641
7.7288 -4.2202 -2.4929 0.9641
8.4593 -2.4839 -2.4959 0.9640
8.5444 -2.1808 -2.4964 0.9640
8.7342 -1.2558 -2.4980 0.9640
8.7754 -0.9435 -2.4986 0.9640
-8.1392 0.0000 -2.5034 0.9665
-8.0875 -0.8695 -2.5019 0.9665
-8.0496 -1.1574 -2.5014 0.9665
-7.9433 -1.7279 -2.5003 0.9666
-7.8749 -2.0099 -2.4998 0.9666
-7.7965 -2.2893 -2.4993 0.9666
-7.7083 -2.5656 -2.4988 0.9666
-7.3854 -3.3728 -2.4973 0.9666
-7.2589 -3.6335 -2.4968 0.9666
-7.1232 -3.8896 -2.4963 0.9666
-6.9785 -4.1405 -2.4958 0.9666
-6.6629 -4.6261 -2.4949 0.9666
-6.4923 -4.8601 -2.4944 0.9666
-6.1269 -5.3090 -2.4936 0.9666
-5.5216 -5.9306 -2.4923 0.9667
-5.0829 -6.3075 -2.4916 0.9667
-4.1313 -6.9629 -2.4902 0.9667
-3.8797 -7.1051 -2.4899 0.9667
-3.6232 -7.2382 -2.4896 0.9667
-3.3621 -7.3621 -2.4894 0.9667
-2.5552 -7.6771 -2.4887 0.9667
-2.2794 -7.7628 -2.4885 0.9667
-1.7195 -7.9044 -2.4881 0.9667
-1.4362 -7.9603 -2.4879 0.9667
-1.1511 -8.0060 -2.4878 0.9667
-0.0000 -8.0872 -2.4874 0.9667
0.2886 -8.0819 -2.4874 0.9667
1.4359 -7.9586 -2.4874 0.9667
2.2786 -7.7601 -2.4876 0.9667
2.8266 -7.5784 -2.4878 0.9667
3.3604 -7.3584 -2.4881 0.9667
3.6212 -7.2342 -2.4883 0.9667
3.8774 -7.1009 -2.4885 0.9667
4.6155 -6.6475 -2.4892 0.9667
4.8503 -6.4792 -2.4894 0.9667
5.9272 -5.5185 -2.4909 0.9667
6.1213 -5.3041 -2.4913 0.9667
6.3076 -5.0830 -2.4916 0.9667
6.6562 -4.6215 -2.4924 0.9667
6.8180 -4.3817 -2.4928 0.9667
7.1156 -3.8854 -2.4936 0.9666
7.2510 -3.6296 -2.4941 0.9666
7.3772 -3.3691 -2.4945 0.9666
7.4941 -3.1042 -2.4949 0.9666
7.6993 -2.5626 -2.4959 0.9666
7.8656 -2.0076 -2.4968 0.9666
7.9338 -1.7259 -2.4973 0.9666
7.9919 -1.4419 -2.4978 0.9666
8.0399 -1.1560 -2.4983 0.9666
8.1052 -0.5797 -2.4993 0.9666
8.1224 -0.2901 -2.4999 0.9666
-7.5089 -0.5370 -2.5024 0.9688
-7.4485 -1.0709 -2.5014 0.9688
-7.4041 -1.3358 -2.5009 0.9688
-7.3503 -1.5990 -2.5004 0.9688
-7.2872 -1.8599 -2.5000 0.9688
-7.2148 -2.1185 -2.4995 0.9688
-7.1332 -2.3742 -2.4990 0.9688
-6.7178 -3.3627 -2.4972 0.9688
-6.1665 -4.2815 -2.4954 0.9689
-6.0088 -4.4981 -2.4950 0.9689
-5.8434 -4.7089 -2.4946 0.9689
-5.6707 -4.9137 -2.4942 0.9689
-5.4909 -5.1122 -2.4938 0.9689
-5.3041 -5.3041 -2.4934 0.9689
-4.7047 -5.8382 -2.4924 0.9689
-4.4927 -6.0016 -2.4920 0.9689
-4.2751 -6.1573 -2.4917 0.9689
-3.5912 -6.5767 -2.4908 0.9689
-3.3538 -6.7000 -2.4906 0.9689
-2.8667 -6.9208 -2.4901 0.9689
-2.3653 -7.1065 -2.4896 0.9689
-1.3295 -7.3688 -2.4890 0.9689
-0.2672 -7.4818 -2.4886 0.9689
0.2672 -7.4815 -2.4885 0.9689
0.5341 -7.4671 -2.4885 0.9689
1.0654 -7.4100 -2.4885 0.9689
1.8515 -7.2540 -2.4886 0.9689
2.1093 -7.1836 -2.4887 0.9689
2.8655 -6.9179 -2.4890 0.9689
3.5892 -6.5732 -2.4895 0.9689
4.0497 -6.3014 -2.4899 0.9689
4.2724 -6.1534 -2.4901 0.9689
4.7014 -5.8341 -2.4906 0.9689
4.9072 -5.6632 -2.4909 0.9689
5.1067 -5.4850 -2.4911 0.9689
5.2999 -5.2999 -2.4914 0.9689
5.4863 -5.1080 -2.4917 0.9689
5.8383 -4.7048 -2.4924 0.9689
6.0033 -4.4940 -2.4927 0.9689
6.8277 -3.1181 -2.4950 0.9689
6.9358 -2.8729 -2.4955 0.9689
7.2069 -2.1162 -2.4968 0.9688
7.2792 -1.8579 -2.4972 0.9688
7.3959 -1.3344 -2.4981 0.9688
7.5004 -0.5364 -2.4995 0.9688
7.5162 -0.2684 -2.5000 0.9688
-6.9942 -0.2498 -2.5028 0.9707
-6.9796 -0.4992 -2.5023 0.9707
-6.9561 -0.7479 -2.5019 0.9707
-6.9237 -0.9955 -2.5014 0.9707
-6.7740 -1.7290 -2.5001 0.9707
-6.7068 -1.9693 -2.4997 0.9707
-6.5469 -2.4419 -2.4988 0.9708
-6.1286 -3.3465 -2.4971 0.9708
-5.7330 -3.9805 -2.4959 0.9708
-5.4328 -4.3780 -2.4951 0.9708
-5.2723 -4.5684 -2.4947 0.9708
-5.1051 -4.7530 -2.4944 0.9708
-4.9315 -4.9315 -2.4940 0.9708
-4.5659 -5.2693 -2.4933 0.9708
-4.3743 -5.4282 -2.4930 0.9708
-4.1773 -5.5802 -2.4927 0.9708
-3.1184 -6.2298 -2.4914 0.9708
-2.8938 -6.3366 -2.4911 0.9708
-2.6656 -6.4353 -2.4909 0.9708
-2.4340 -6.5258 -2.4907 0.9708
-2.1993 -6.6080 -2.4905 0.9708
-1.9620 -6.6818 -2.4903 0.9709
-1.7221 -6.7471 -2.4902 0.9709
-1.2362 -6.8520 -2.4899 0.9709
-0.9908 -6.8914 -2.4898 0.9709
-0.7442 -6.9221 -2.4897 0.9709
-0.4967 -6.9440 -2.4896 0.9709
-0.2485 -6.9571 -2.4895 0.9709
-0.0000 -6.9614 -2.4895 0.9709
0.2485 -6.9569 -2.4894 0.9709
0.7441 -6.9214 -2.4894 0.9709
0.9907 -6.8904 -2.4894 0.9709
1.4798 -6.8024 -2.4895 0.9709
1.7216 -6.7454 -2.4895 0.9709
2.4331 -6.5234 -2.4898 0.9709
2.8926 -6.3338 -2.4900 0.9709
3.5537 -5.9895 -2.4905 0.9708
3.9726 -5.7216 -2.4909 0.9708
4.1747 -5.5767 -2.4911 0.9708
4.5627 -5.2657 -2.4916 0.9708
4.7483 -5.1000 -2.4919 0.9708
5.1012 -4.7494 -2.4925 0.9708
5.4283 -4.3744 -2.4931 0.9708
5.7280 -3.9771 -2.4937 0.9708
5.8672 -3.7706 -2.4941 0.9708
6.2393 -3.1232 -2.4951 0.9708
6.3478 -2.8989 -2.4955 0.9708
6.4482 -2.6709 -2.4959 0.9708
6.6244 -2.2048 -2.4967 0.9708
6.7000 -1.9673 -2.4971 0.9708
6.7671 -1.7272 -2.4975 0.9708
6.8754 -1.2405 -2.4984 0.9708
6.9488 -0.7471 -2.4993 0.9707
6.9723 -0.4987 -2.4997 0.9707
-6.5131 -0.4658 -2.5023 0.9724
-6.4912 -0.6979 -2.5019 0.9724
-6.2589 -1.8378 -2.4998 0.9724
-6.1099 -2.2789 -2.4990 0.9725
-6.0237 -2.4951 -2.4986 0.9725
-5.8285 -2.9175 -2.4978 0.9725
-5.6038 -3.3249 -2.4970 0.9725
-5.4807 -3.5222 -2.4966 0.9725
-5.3507 -3.7151 -2.4963 0.9725
-5.0706 -4.0861 -2.4956 0.9725
-4.9208 -4.2639 -2.4952 0.9725
-4.7649 -4.4362 -2.4949 0.9725
-4.0830 -5.0667 -2.4936 0.9725
-3.8991 -5.2086 -2.4933 0.9725
-3.7103 -5.3438 -2.4931 0.9725
-3.5168 -5.4722 -2.4928 0.9725
-2.9108 -5.8151 -2.4921 0.9725
-2.4882 -6.0069 -2.4916 0.9725
-2.0530 -6.1682 -2.4913 0.9725
-1.8314 -6.2372 -2.4911 0.9725
-1.3816 -6.3512 -2.4908 0.9725
-1.1540 -6.3961 -2.4907 0.9725
-0.9249 -6.4330 -2.4906 0.9725
-0.6947 -6.4616 -2.4905 0.9725
-0.4636 -6.4821 -2.4904 0.9725
-0.2319 -6.4943 -2.4903 0.9725
0.0000 -6.4984 -2.4903 0.9725
0.2319 -6.4941 -2.4903 0.9725
0.4636 -6.4817 -2.4902 0.9725
1.1538 -6.3950 -2.4903 0.9725
1.8309 -6.2354 -2.4904 0.9725
2.2712 -6.0894 -2.4906 0.9725
2.7001 -5.9124 -2.4908 0.9725
3.3172 -5.5909 -2.4913 0.9725
3.5149 -5.4694 -2.4915 0.9725
3.7082 -5.3408 -2.4917 0.9725
4.5997 -4.5997 -2.4928 0.9725
4.7615 -4.4331 -2.4931 0.9725
5.0667 -4.0830 -2.4937 0.9725
5.2099 -3.9001 -2.4940 0.9725
5.3464 -3.7121 -2.4943 0.9725
5.4762 -3.5193 -2.4946 0.9725
5.9246 -2.7057 -2.4960 0.9725
6.0182 -2.4928 -2.4963 0.9725
6.1826 -2.0578 -2.4971 0.9725
6.3156 -1.6120 -2.4978 0.9725
6.3701 -1.3857 -2.4982 0.9725
6.4165 -1.1577 -2.4986 0.9725
6.4548 -0.9281 -2.4990 0.9725
6.4849 -0.6972 -2.4994 0.9724
-6.1158 0.0000 -2.5031 0.9739
-6.1110 -0.2182 -2.5027 0.9739
-6.0983 -0.4362 -2.5023 0.9739
-6.0140 -1.0850 -2.5011 0.9739
-5.9194 -1.5108 -2.5003 0.9739
-5.8608 -1.7209 -2.4999 0.9739
-5.6407 -2.3364 -2.4988 0.9740
-5.5528 -2.5359 -2.4984 0.9740
-5.4580 -2.7321 -2.4981 0.9740
-5.0108 -3.4790 -2.4966 0.9740
-4.6083 -3.9931 -2.4956 0.9740
-4.4623 -4.1545 -2.4953 0.9740
-4.1535 -4.4612 -2.4947 0.9740
-3.9912 -4.6061 -2.4944 0.9740
-3.6516 -4.8780 -2.4939 0.9740
-3.4748 -5.0047 -2.4936 0.9740
-3.1083 -5.2388 -2.4931 0.9740
-2.9191 -5.3460 -2.4929 0.9740
-1.7153 -5.8417 -2.4918 0.9740
-0.8663 -6.0251 -2.4913 0.9740
-0.4342 -6.0712 -2.4911 0.9740
-0.0000 -6.0864 -2.4910 0.9740
0.2172 -6.0825 -2.4910 0.9740
0.4342 -6.0708 -2.4910 0.9740
1.0807 -5.9897 -2.4910 0.9740
1.2938 -5.9473 -2.4910 0.9740
1.5052 -5.8975 -2.4911 0.9740
1.7148 -5.8402 -2.4911 0.9740
2.3295 -5.6240 -2.4914 0.9740
2.7251 -5.4440 -2.4917 0.9740
3.6496 -4.8753 -2.4925 0.9740
3.9888 -4.6033 -2.4929 0.9740
4.3078 -4.3079 -2.4934 0.9740
4.4593 -4.1518 -2.4936 0.9740
4.7451 -3.8239 -2.4942 0.9740
5.0070 -3.4764 -2.4947 0.9740
5.2435 -3.1111 -2.4954 0.9740
5.5482 -2.5338 -2.4963 0.9740
5.6359 -2.3345 -2.4967 0.9740
5.8556 -1.7194 -2.4977 0.9740
5.9141 -1.5095 -2.4981 0.9740
5.9651 -1.2976 -2.4985 0.9740
-5.7432 0.0000 -2.5030 0.9753
-5.7269 -0.4096 -2.5023 0.9753
-5.7078 -0.6136 -2.5019 0.9753
-5.5591 -1.4189 -2.5004 0.9753
-5.4421 -1.8113 -2.4997 0.9753
-5.3733 -2.0041 -2.4993 0.9753
-5.2975 -2.1943 -2.4990 0.9753
-5.2151 -2.3817 -2.4986 0.9753
-5.1261 -2.5659 -2.4983 0.9753
-5.0305 -2.7469 -2.4979 0.9753
-4.9286 -2.9243 -2.4976 0.9753
-4.8205 -3.0979 -2.4973 0.9753
-4.5860 -3.4330 -2.4966 0.9753
-4.4600 -3.5941 -2.4963 0.9753
-4.3283 -3.7505 -2.4960 0.9753
-3.7488 -4.3264 -2.4949 0.9753
-3.5916 -4.4569 -2.4946 0.9753
-3.4299 -4.5818 -2.4944 0.9753
-3.2639 -4.7009 -2.4941 0.9753
-2.9197 -4.9208 -2.4937 0.9753
-2.7419 -5.0215 -2.4934 0.9753
-1.9988 -5.3590 -2.4927 0.9754
-1.8061 -5.4266 -2.4925 0.9754
-1.6112 -5.4873 -2.4924 0.9754
-1.2155 -5.5876 -2.4921 0.9754
-1.0153 -5.6272 -2.4920 0.9754
-0.4079 -5.7029 -2.4918 0.9754
-0.2041 -5.7137 -2.4917 0.9754
0.2041 -5.7136 -2.4917 0.9754
0.4079 -5.7026 -2.4916 0.9754
0.8136 -5.6590 -2.4916 0.9754
1.0151 -5.6264 -2.4917 0.9754
1.2153 -5.5866 -2.4917 0.9754
1.4139 -5.5398 -2.4917 0.9754
1.9982 -5.3574 -2.4920 0.9754
2.1882 -5.2828 -2.4920 0.9754
2.3755 -5.2016 -2.4922 0.9754
2.5598 -5.1138 -2.4923 0.9754
2.9184 -4.9187 -2.4926 0.9754
3.4281 -4.5795 -2.4931 0.9753
3.5897 -4.4545 -2.4933 0.9753
3.8990 -4.1878 -2.4937 0.9753
4.1886 -3.8997 -2.4941 0.9753
4.3255 -3.7481 -2.4944 0.9753
4.4570 -3.5917 -2.4946 0.9753
4.8170 -3.0957 -2.4955 0.9753
5.0267 -2.7448 -2.4961 0.9753
5.2110 -2.3798 -2.4967 0.9753
5.2933 -2.1926 -2.4970 0.9753
5.3689 -2.0025 -2.4973 0.9753
5.4377 -1.8098 -2.4976 0.9753
5.4996 -1.6148 -2.4980 0.9753
5.6023 -1.2187 -2.4987 0.9753
5.6766 -0.8162 -2.4994 0.9753
5.7029 -0.6131 -2.4997 0.9753
5.7220 -0.4092 -2.5001 0.9753
-5.4072 0.0000 -2.5029 0.9764
-5.4030 -0.1930 -2.5026 0.9765
-5.3920 -0.3856 -2.5022 0.9765
-5.3492 -0.7691 -2.5015 0.9765
-5.2793 -1.1484 -2.5008 0.9765
-5.1825 -1.5217 -2.5002 0.9765
-4.9105 -2.2426 -2.4988 0.9765
-4.8267 -2.4161 -2.4985 0.9765
-4.6409 -2.7536 -2.4979 0.9765
-4.4315 -3.0769 -2.4972 0.9765
-4.3184 -3.2327 -2.4969 0.9765
-3.9467 -3.6745 -2.4961 0.9765
-3.6737 -3.9459 -2.4955 0.9765
-3.5302 -4.0740 -2.4953 0.9765
-2.7495 -4.6340 -2.4941 0.9765
-2.2378 -4.9002 -2.4936 0.9765
-2.0614 -4.9766 -2.4934 0.9765
-1.7009 -5.1104 -2.4931 0.9765
-1.5173 -5.1675 -2.4930 0.9765
-1.3319 -5.2181 -2.4928 0.9765
-0.0000 -5.3842 -2.4923 0.9765
0.3841 -5.3704 -2.4922 0.9765
0.5755 -5.3533 -2.4922 0.9765
0.7662 -5.3293 -2.4922 0.9765
1.5170 -5.1664 -2.4924 0.9765
1.7005 -5.1090 -2.4925 0.9765
1.8818 -5.0453 -2.4925 0.9765
2.0607 -4.9751 -2.4926 0.9765
2.2371 -4.8985 -2.4927 0.9765
2.4106 -4.8158 -2.4928 0.9765
2.7483 -4.6321 -2.4931 0.9765
2.9121 -4.5313 -2.4933 0.9765
3.0721 -4.4247 -2.4934 0.9765
3.2283 -4.3126 -2.4936 0.9765
3.3805 -4.1949 -2.4938 0.9765
3.5283 -4.0719 -2.4940 0.9765
3.6717 -3.9437 -2.4942 0.9765
3.9444 -3.6723 -2.4946 0.9765
4.8232 -2.4143 -2.4967 0.9765
5.0555 -1.8856 -2.4976 0.9765
5.1784 -1.5205 -2.4982 0.9765
5.2751 -1.1475 -2.4989 0.9765
5.3134 -0.9586 -2.4992 0.9765
5.3449 -0.7685 -2.4995 0.9765
-5.0985 -0.1821 -2.5025 0.9775
-5.0881 -0.3639 -2.5022 0.9775
-5.0479 -0.7258 -2.5016 0.9775
-4.9819 -1.0838 -2.5009 0.9775
-4.8357 -1.6095 -2.4999 0.9775
-4.6342 -2.1164 -2.4990 0.9776
-4.5551 -2.2801 -2.4987 0.9776
-4.4703 -2.4410 -2.4984 0.9776
-4.3798 -2.5986 -2.4981 0.9776
-4.2837 -2.7530 -2.4978 0.9776
-4.1823 -2.9038 -2.4975 0.9776
-4.0755 -3.0509 -2.4972 0.9776
-3.8466 -3.3331 -2.4967 0.9776
-3.7248 -3.4679 -2.4964 0.9776
-3.1921 -3.9612 -2.4954 0.9776
-3.0484 -4.0722 -2.4952 0.9776
-2.9009 -4.1780 -2.4950 0.9776
-2.2760 -4.5469 -2.4942 0.9776
-1.9456 -4.6971 -2.4939 0.9776
-1.0804 -4.9666 -2.4932 0.9776
-0.9024 -5.0018 -2.4931 0.9776
-0.7233 -5.0307 -2.4930 0.9776
-0.5433 -5.0532 -2.4930 0.9776
-0.0000 -5.0820 -2.4928 0.9776
0.1814 -5.0787 -2.4928 0.9776
0.3625 -5.0689 -2.4928 0.9776
0.5432 -5.0527 -2.4928 0.9776
0.7232 -5.0301 -2.4928 0.9776
0.9023 -5.0012 -2.4928 0.9776
1.6050 -4.8222 -2.4930 0.9776
1.7761 -4.7620 -2.4931 0.9776
1.9450 -4.6957 -2.4931 0.9776
2.1115 -4.6235 -2.4932 0.9776
2.5940 -4.3719 -2.4936 0.9776
2.7485 -4.2768 -2.4937 0.9776
2.8996 -4.1762 -2.4939 0.9776
3.0470 -4.0703 -2.4941 0.9776
3.1906 -3.9593 -2.4942 0.9776
3.3301 -3.8431 -2.4944 0.9776
3.7227 -3.4660 -2.4950 0.9776
3.9612 -3.1921 -2.4955 0.9776
4.0730 -3.0490 -2.4957 0.9776
4.5520 -2.2786 -2.4970 0.9776
4.6309 -2.1149 -2.4973 0.9776
4.7040 -1.9485 -2.4975 0.9776
4.8871 -1.4350 -2.4984 0.9776
4.9358 -1.2598 -2.4987 0.9776
4.9782 -1.0829 -2.4990 0.9776
5.0143 -0.9047 -2.4993 0.9776
5.0842 -0.3636 -2.5003 0.9775
-4.8244 0.0000 -2.5028 0.9785
-4.8208 -0.1722 -2.5025 0.9785
-4.7950 -0.5155 -2.5019 0.9785
-4.7730 -0.6862 -2.5016 0.9785
-4.7107 -1.0247 -2.5010 0.9785
-4.5725 -1.5219 -2.5000 0.9785
-4.4512 -1.8437 -2.4994 0.9785
-4.3820 -2.0012 -2.4992 0.9785
-4.0508 -2.6033 -2.4980 0.9785
-3.8539 -2.8850 -2.4975 0.9785
-3.7481 -3.0204 -2.4972 0.9785
-3.5224 -3.2794 -2.4967 0.9785
-2.4541 -4.1361 -2.4950 0.9786
-2.1524 -4.3000 -2.4946 0.9786
-1.9975 -4.3738 -2.4945 0.9786
-1.8400 -4.4421 -2.4943 0.9786
-1.6801 -4.5046 -2.4942 0.9786
-1.5182 -4.5615 -2.4940 0.9786
-1.1888 -4.6577 -2.4938 0.9786
-1.0218 -4.6970 -2.4937 0.9786
-0.8534 -4.7303 -2.4936 0.9786
-0.5138 -4.7789 -2.4935 0.9786
-0.1715 -4.8031 -2.4934 0.9786
0.1715 -4.8030 -2.4933 0.9786
0.5137 -4.7785 -2.4933 0.9786
0.6840 -4.7571 -2.4933 0.9786
1.0216 -4.6963 -2.4933 0.9786
1.5179 -4.5604 -2.4935 0.9786
1.6797 -4.5035 -2.4935 0.9786
1.9969 -4.3725 -2.4937 0.9786
2.1517 -4.2986 -2.4938 0.9786
2.3039 -4.2193 -2.4939 0.9786
2.5993 -4.0446 -2.4942 0.9786
2.8815 -3.8493 -2.4945 0.9786
3.1492 -3.6344 -2.4948 0.9786
3.2772 -3.5199 -2.4950 0.9786
3.6355 -3.1502 -2.4956 0.9786
3.7460 -3.0187 -2.4958 0.9786
3.8517 -2.8833 -2.4960 0.9786
3.9525 -2.7443 -2.4963 0.9786
4.0483 -2.6017 -2.4965 0.9785
4.1390 -2.4558 -2.4967 0.9785
4.2244 -2.3067 -2.4970 0.9785
4.3791 -1.9999 -2.4975 0.9785
4.4482 -1.8425 -2.4978 0.9785
4.5693 -1.5208 -2.4983 0.9785
4.6673 -1.1912 -2.4989 0.9785
4.8075 -0.3438 -2.5004 0.9785
-4.5569 -0.3259 -2.5022 0.9794
-4.5418 -0.4883 -2.5019 0.9794
-4.5209 -0.6500 -2.5016 0.9794
-4.4943 -0.8109 -2.5013 0.9794
-4.4620 -0.9706 -2.5010 0.9794
-4.4240 -1.1292 -2.5007 0.9794
-4.3312 -1.4416 -2.5001 0.9794
-4.2765 -1.5950 -2.4999 0.9794
-4.1509 -1.8956 -2.4993 0.9794
-4.0801 -2.0424 -2.4990 0.9794
-4.0042 -2.1864 -2.4988 0.9794
-3.8372 -2.4660 -2.4982 0.9794
-3.1060 -3.3361 -2.4965 0.9794
-2.9847 -3.4445 -2.4963 0.9794
-2.8596 -3.5486 -2.4961 0.9794
-2.3248 -3.9182 -2.4953 0.9794
-2.0391 -4.0736 -2.4950 0.9794
-1.8923 -4.1435 -2.4949 0.9794
-1.7431 -4.2081 -2.4947 0.9794
-1.4383 -4.3213 -2.4945 0.9794
-1.2831 -4.3697 -2.4943 0.9794
-1.1262 -4.4125 -2.4942 0.9794
-0.9680 -4.4497 -2.4941 0.9794
-0.8085 -4.4813 -2.4940 0.9794
-0.4867 -4.5273 -2.4939 0.9794
0.1625 -4.5502 -2.4937 0.9794
0.4867 -4.5270 -2.4937 0.9794
0.9678 -4.4491 -2.4938 0.9794
1.2828 -4.3688 -2.4939 0.9794
1.7426 -4.2070 -2.4941 0.9794
1.8917 -4.1423 -2.4941 0.9794
2.0384 -4.0723 -2.4942 0.9794
2.1826 -3.9971 -2.4943 0.9794
2.3240 -3.9169 -2.4945 0.9794
2.4624 -3.8316 -2.4946 0.9794
2.5978 -3.7415 -2.4947 0.9794
2.7298 -3.6466 -2.4949 0.9794
2.9834 -3.4430 -2.4952 0.9794
3.1046 -3.3345 -2.4954 0.9794
3.3350 -3.1050 -2.4957 0.9794
3.5486 -2.8596 -2.4961 0.9794
3.8350 -2.4646 -2.4968 0.9794
3.9209 -2.3264 -2.4970 0.9794
4.0776 -2.0411 -2.4975 0.9794
4.2737 -1.5940 -2.4983 0.9794
4.3284 -1.4406 -2.4985 0.9794
4.4913 -0.8103 -2.4996 0.9794
4.5387 -0.4880 -2.5002 0.9794
4.5630 -0.1630 -2.5008 0.9794
-4.3228 -0.3092 -2.5022 0.9802
-4.3086 -0.4632 -2.5019 0.9802
-4.2888 -0.6166 -2.5016 0.9802
-4.1969 -1.0712 -2.5008 0.9802
-4.1556 -1.2202 -2.5005 0.9802
-4.0000 -1.6569 -2.4997 0.9802
-3.9379 -1.7984 -2.4994 0.9802
-3.8708 -1.9376 -2.4992 0.9802
-3.7988 -2.0743 -2.4989 0.9802
-3.7220 -2.2083 -2.4987 0.9802
-3.6404 -2.3396 -2.4984 0.9802
-3.4636 -2.5928 -2.4979 0.9802
-3.3685 -2.7145 -2.4977 0.9802
-3.0582 -3.0582 -2.4970 0.9802
-2.7131 -3.3668 -2.4964 0.9802
-2.5910 -3.4612 -2.4962 0.9802
-2.3372 -3.6367 -2.4958 0.9802
-2.2057 -3.7175 -2.4957 0.9802
-2.0715 -3.7936 -2.4955 0.9802
-1.9346 -3.8649 -2.4954 0.9802
-1.7954 -3.9313 -2.4952 0.9802
-1.5102 -4.0489 -2.4950 0.9802
-1.2174 -4.1460 -2.4947 0.9802
-0.9184 -4.2219 -2.4945 0.9802
-0.6149 -4.2764 -2.4944 0.9802
-0.4618 -4.2955 -2.4943 0.9802
-0.1542 -4.3174 -2.4942 0.9802
-0.0000 -4.3201 -2.4942 0.9802
0.1542 -4.3173 -2.4942 0.9802
0.3082 -4.3090 -2.4941 0.9802
0.4618 -4.2952 -2.4941 0.9802
0.7670 -4.2514 -2.4942 0.9802
1.0684 -4.1859 -2.4942 0.9802
1.6534 -3.9916 -2.4945 0.9802
1.9341 -3.8638 -2.4946 0.9802
2.0708 -3.7925 -2.4947 0.9802
2.2050 -3.7163 -2.4948 0.9802
2.3363 -3.6354 -2.4950 0.9802
2.4647 -3.5499 -2.4951 0.9802
2.5900 -3.4598 -2.4952 0.9802
2.8306 -3.2667 -2.4955 0.9802
2.9455 -3.1637 -2.4957 0.9802
3.0568 -3.0568 -2.4959 0.9802
3.1642 -2.9460 -2.4960 0.9802
3.3668 -2.7131 -2.4964 0.9802
3.5523 -2.4664 -2.4968 0.9802
3.6384 -2.3383 -2.4970 0.9802
3.8686 -1.9365 -2.4977 0.9802
3.9356 -1.7973 -2.4980 0.9802
3.9976 -1.6559 -2.4982 0.9802
4.1943 -1.0705 -2.4992 0.9802
4.2303 -0.9202 -2.4995 0.9802
4.2860 -0.6162 -2.5000 0.9802
4.3058 -0.4629 -2.5003 0.9802
4.3200 -0.3090 -2.5005 0.9802
