ply
format ascii 1.0
element vertex 1192
property float32 x
property float32 y
property float32 z
property float32 I
end_header
-44.6693 -11.4012 8.1289 0.8292
-33.7602 -27.2057 7.6452 0.8385
-31.9614 -27.6947 7.4570 0.8422
-23.9679 -27.6605 6.4536 0.8619
-22.3507 -27.7356 6.2808 0.8653
-19.3538 -27.8748 5.9836 0.8712
-17.9519 -27.9337 5.8549 0.8738
-14.0727 -28.1137 5.5436 0.8801
-5.2457 -12.6643 2.4170 0.9458
-4.8168 -12.9142 2.4304 0.9456
-8.2234 -32.2191 5.8632 0.8737
14.2642 -14.2642 3.5570 0.9213
37.7809 -30.4458 8.5557 0.8211
-44.7158 -11.4130 7.0698 0.8297
-29.6618 -12.2863 4.9184 0.8782
-39.3918 -27.3502 7.3465 0.8236
-36.1926 -27.0934 6.9259 0.8328
-33.7609 -27.2063 6.6423 0.8391
-27.4971 -27.4971 5.9572 0.8544
-25.6793 -27.5815 5.7732 0.8586
-20.0681 -28.9035 5.3905 0.8673
-17.9522 -27.9341 5.0869 0.8743
-4.8037 -12.8792 2.1058 0.9459
-11.7001 -35.1533 5.6757 0.8608
-8.2261 -32.2296 5.0957 0.8741
-7.1076 -32.6730 5.1224 0.8734
31.3382 -36.1662 7.3311 0.8239
31.4490 -33.7786 7.0703 0.8296
35.1113 -30.4241 7.1173 0.8286
-44.7436 -11.4201 6.0133 0.8300
-29.6218 -12.2697 4.1752 0.8787
-30.6974 -26.5994 5.2894 0.8489
-29.4754 -27.4426 5.2444 0.8501
-25.6798 -27.5820 4.9075 0.8590
-28.0390 -32.3587 5.5756 0.8414
-21.8519 -29.1908 4.7484 0.8632
-22.6451 -32.6152 5.1705 0.8520
-17.9524 -27.9346 4.3241 0.8746
-19.4413 -32.7666 4.9614 0.8575
-15.3201 -28.0567 4.1628 0.8790
-14.0731 -28.1146 4.0942 0.8809
-11.8342 -35.5561 4.8799 0.8597
-11.9611 -40.7357 5.5286 0.8426
-7.2034 -39.9259 5.2831 0.8490
-3.4854 -48.7318 6.3621 0.8211
3.5086 -49.0562 6.4045 0.8201
31.3386 -36.1667 6.2318 0.8245
14.6444 -13.6345 2.6056 0.9225
-44.7614 -11.4246 4.9606 0.8304
-40.8827 -24.2568 5.1046 0.8259
-38.4047 -26.6649 5.0205 0.8285
-33.7620 -27.2072 4.6561 0.8399
-29.4750 -27.4422 4.3245 0.8504
-25.6802 -27.5825 4.0468 0.8593
-22.6542 -32.6282 4.2654 0.8523
-19.4486 -32.7789 4.0928 0.8578
-15.3203 -28.0572 3.4327 0.8793
-14.0733 -28.1150 3.3761 0.8812
-4.7844 -12.8274 1.4701 0.9464
-11.8344 -35.5566 4.0241 0.8601
-11.9769 -40.7895 4.5649 0.8428
-3.5192 -49.2055 5.2973 0.8200
0.7563 -21.1760 2.2754 0.9183
31.3391 -36.1672 5.1389 0.8249
31.5532 -31.5532 4.7917 0.8357
14.6281 -13.6192 2.1462 0.9227
35.1122 -30.4249 4.9890 0.8295
37.7836 -30.4479 5.2107 0.8227
-29.5427 -12.2370 2.7069 0.8795
-41.7587 -26.8367 4.2020 0.8193
-33.7627 -27.2078 3.6706 0.8402
-29.4746 -27.4419 3.4091 0.8507
-25.6807 -27.5830 3.1903 0.8596
-22.3523 -27.7375 3.0156 0.8668
-21.8512 -29.1897 3.0867 0.8638
-22.6632 -32.6412 3.3639 0.8526
-19.4559 -32.7911 3.2277 0.8581
-14.0736 -28.1154 2.6616 0.8814
-15.0695 -32.9977 3.0708 0.8645
-11.7397 -35.2721 3.1469 0.8614
-11.9926 -40.8431 3.6034 0.8429
-8.2269 -32.2326 2.8161 0.8750
-7.1078 -32.6740 2.8306 0.8744
-7.2036 -39.9271 3.4345 0.8497
-5.3198 -49.4811 4.2129 0.8189
-3.5193 -49.2062 4.1761 0.8203
0.0000 -49.3312 4.1760 0.8203
3.5400 -49.4953 4.2006 0.8194
31.2201 -38.7418 4.2120 0.8189
31.4503 -33.7800 3.9071 0.8309
35.1127 -30.4253 3.9331 0.8299
-29.5036 -12.2208 1.9803 0.8799
-41.7597 -26.8374 3.0782 0.8196
-40.7601 -28.3003 3.0770 0.8197
-33.3197 -24.9428 2.5810 0.8464
-28.0394 -32.3592 2.6551 0.8423
-22.3527 -27.7380 2.2090 0.8670
-17.9533 -27.9359 2.0592 0.8754
-19.4129 -32.7186 2.3593 0.8586
-15.3208 -28.0580 1.9824 0.8797
-15.0704 -32.9996 2.2496 0.8647
-8.2271 -32.2336 2.0629 0.8752
-7.1079 -32.6743 2.0735 0.8746
-5.2657 -48.9781 3.0546 0.8208
0.0000 -48.8955 3.0320 0.8220
3.5087 -49.0582 3.0499 0.8211
7.0773 -49.2236 3.0838 0.8193
19.3415 -22.3212 1.8315 0.8884
14.5957 -13.5891 1.2366 0.9232
37.7854 -30.4493 3.0092 0.8233
-40.7596 -28.2999 1.9566 0.8198
-33.1870 -24.8434 1.6346 0.8471
-33.7641 -27.2089 1.7098 0.8406
-33.0716 -28.6567 1.7255 0.8393
-32.2054 -32.2053 1.7959 0.8333
-25.6816 -27.5840 1.4861 0.8600
-21.8504 -29.1887 1.4377 0.8642
-19.4130 -32.7189 1.5002 0.8587
-15.0706 -33.0001 1.4305 0.8648
-4.7866 -12.8333 0.5401 0.9466
-11.9974 -40.8594 1.6791 0.8433
-7.1079 -32.6746 1.3185 0.8747
-7.2038 -39.9282 1.5998 0.8501
19.3243 -22.3014 1.1636 0.8886
20.2953 -21.7987 1.1744 0.8876
31.5545 -31.5545 1.7596 0.8364
14.5797 -13.5742 0.7855 0.9234
35.4109 -30.6837 1.8476 0.8290
35.0326 -14.5110 1.4952 0.8592
-44.8321 -11.4427 0.7816 0.8310
-41.7617 -26.8386 0.8385 0.8199
-40.7591 -28.2996 0.8382 0.8200
-37.1242 -27.7908 0.7833 0.8307
-33.0712 -28.6563 0.7392 0.8394
-29.4733 -27.4407 0.6802 0.8512
-21.8500 -29.1882 0.6159 0.8643
-17.9539 -27.9368 0.5609 0.8756
-19.2992 -32.5271 0.6389 0.8596
-14.0742 -28.1167 0.5311 0.8818
-5.2681 -12.7184 0.2325 0.9464
-10.9274 -32.8314 0.5845 0.8707
-11.9558 -40.7177 0.7168 0.8439
-7.6271 -29.8827 0.5210 0.8839
31.6672 -36.5459 0.8168 0.8241
31.5549 -31.5549 0.7538 0.8365
14.5637 -13.5593 0.3361 0.9235
35.4117 -30.6844 0.7915 0.8291
38.2397 -30.8155 0.8296 0.8216
25.2888 -16.2521 0.5078 0.8867
25.2805 -14.9996 0.4965 0.8891
24.7806 -13.5312 0.4769 0.8932
-37.1237 -27.7905 -0.2611 0.8307
-33.0707 -28.6559 -0.2464 0.8394
-29.4729 -27.4403 -0.2267 0.8512
-32.2066 -32.2066 -0.2565 0.8334
-28.1032 -32.4329 -0.2416 0.8423
-22.3538 -27.7394 -0.2006 0.8672
-22.6685 -32.6488 -0.2238 0.8530
-17.9542 -27.9372 -0.1869 0.8756
-19.3440 -32.6025 -0.2134 0.8593
-15.3215 -28.0593 -0.1800 0.8800
-15.0711 -33.0011 -0.2043 0.8649
-4.7881 -12.8373 -0.0771 0.9467
-10.8361 -32.5571 -0.1932 0.8717
-11.9977 -40.8605 -0.2398 0.8434
-7.6048 -29.7952 -0.1731 0.8843
-7.1081 -32.6753 -0.1883 0.8748
-7.2040 -39.9293 -0.2284 0.8502
31.6676 -36.5464 -0.2723 0.8241
20.2961 -21.7995 -0.1677 0.8877
31.5553 -31.5554 -0.2512 0.8365
35.4125 -30.6851 -0.2638 0.8291
-44.8673 -11.4517 -1.3039 0.8309
-41.7637 -26.8399 -1.3979 0.8198
-40.7581 -28.2988 -1.3972 0.8199
-33.7662 -27.2106 -1.2211 0.8407
-33.0703 -28.6555 -1.2321 0.8394
-25.6830 -27.5855 -1.0613 0.8600
-21.8492 -29.1871 -1.0266 0.8642
-17.9544 -27.9377 -0.9351 0.8756
-5.2745 -12.7337 -0.3881 0.9463
-4.7888 -12.8393 -0.3859 0.9466
-11.9979 -40.8611 -1.1991 0.8433
-7.1081 -32.6756 -0.9416 0.8748
31.6681 -36.5469 -1.3617 0.8241
20.2964 -21.7999 -0.8387 0.8876
31.5558 -31.5558 -1.2566 0.8365
14.5318 -13.5296 -0.5591 0.9236
38.2415 -30.8169 -1.3829 0.8216
24.7435 -13.5110 -0.7938 0.8933
-49.6840 -1.7745 -2.5213 0.8195
-49.3852 -5.3095 -2.5190 0.8196
-49.1407 -7.0654 -2.5178 0.8197
-48.8134 -8.8069 -2.5155 0.8198
-43.9765 -11.2243 -2.3017 0.8338
-44.0255 -12.9271 -2.3270 0.8321
-29.3889 -12.1733 -1.6132 0.8804
-40.4055 -23.9737 -2.3827 0.8285
-39.5935 -25.4452 -2.3869 0.8282
-38.7260 -26.8879 -2.3909 0.8279
-37.1228 -27.7897 -2.3517 0.8305
-33.7669 -27.2111 -2.1993 0.8406
-29.4721 -27.4395 -2.0422 0.8511
-32.1707 -32.1707 -2.3073 0.8334
-22.3545 -27.7403 -1.8068 0.8670
-26.1994 -37.7344 -2.3297 0.8319
-17.9547 -27.9381 -1.6842 0.8755
-19.3435 -32.6017 -1.9225 0.8591
-14.0748 -28.1180 -1.5947 0.8817
-5.2777 -12.7415 -0.6994 0.9463
-4.7895 -12.8412 -0.6951 0.9466
-6.8398 -47.5718 -2.4374 0.8249
-5.1367 -47.7785 -2.4370 0.8249
0.0000 -48.0091 -2.4347 0.8251
1.7127 -47.9554 -2.4336 0.8251
3.4214 -47.8379 -2.4323 0.8252
5.1234 -47.6544 -2.4307 0.8253
6.8161 -47.4066 -2.4289 0.8255
5.4014 -29.9381 -1.5428 0.8853
10.1638 -46.7224 -2.4249 0.8257
7.6948 -30.1477 -1.5779 0.8828
9.3708 -28.1548 -1.5049 0.8879
12.4170 -27.1895 -1.5159 0.8872
20.2968 -21.8003 -1.5106 0.8875
14.5159 -13.5148 -1.0058 0.9236
35.1728 -30.4773 -2.3603 0.8299
37.9983 -26.3827 -2.3460 0.8309
27.5444 -17.7017 -1.6605 0.8771
25.2239 -14.9660 -1.4874 0.8892
41.0177 -20.5320 -2.3262 0.8322
33.9567 -14.0653 -1.8640 0.8631
43.4589 -14.4645 -2.3229 0.8324
43.9620 -12.9084 -2.3236 0.8323
47.7044 -10.3775 -2.4759 0.8224
48.0622 -8.6714 -2.4768 0.8223
-34.0866 -3.6647 -2.5137 0.8715
-33.7159 -6.0830 -2.5120 0.8716
-33.4660 -7.2801 -2.5112 0.8717
-33.1733 -8.4670 -2.5103 0.8717
-32.7718 -9.6227 -2.5043 0.8720
-30.4873 -10.1472 -2.3560 0.8791
-29.6105 -11.0441 -2.3172 0.8810
-28.6638 -13.0903 -2.3105 0.8813
-28.1506 -15.3714 -2.3517 0.8793
-27.5836 -16.3661 -2.3517 0.8793
-14.0146 -11.2937 -1.3197 0.9304
-23.6286 -21.9990 -2.3671 0.8785
-21.1986 -24.4645 -2.3735 0.8782
-20.3282 -25.2258 -2.3754 0.8782
-19.4294 -25.9547 -2.3772 0.8781
-18.5033 -26.6498 -2.3788 0.8780
-6.7047 -11.3002 -0.9634 0.9487
-14.0750 -28.1184 -2.3056 0.8815
-4.7903 -12.8432 -1.0051 0.9465
-10.2830 -30.8955 -2.3875 0.8776
-9.1756 -31.2493 -2.3880 0.8775
-7.7438 -30.3399 -2.2959 0.8820
-3.4818 -32.3854 -2.3883 0.8775
-2.3234 -32.4847 -2.3879 0.8776
-1.1622 -32.5406 -2.3875 0.8776
4.6255 -32.1707 -2.3831 0.8778
5.4010 -29.9358 -2.2304 0.8851
6.9009 -31.7228 -2.3804 0.8779
6.8974 -27.0238 -2.0450 0.8942
9.3710 -28.1553 -2.1757 0.8878
10.2899 -27.5882 -2.1590 0.8886
12.4172 -27.1899 -2.1917 0.8870
13.6861 -27.3413 -2.2419 0.8846
15.4253 -28.2493 -2.3600 0.8789
17.4023 -27.0785 -2.3601 0.8789
18.3382 -26.4121 -2.3576 0.8790
20.1290 -24.9785 -2.3521 0.8793
14.9004 -17.1960 -1.6683 0.9128
20.2337 -21.7325 -2.1772 0.8877
22.5991 -22.5991 -2.3434 0.8797
25.4478 -19.0500 -2.3308 0.8803
26.0772 -18.1057 -2.3277 0.8804
28.9013 -13.1988 -2.3296 0.8804
29.3598 -12.1612 -2.3301 0.8803
31.7017 -11.8241 -2.4809 0.8731
32.4879 -9.5393 -2.4826 0.8730
32.8155 -8.3757 -2.4832 0.8730
33.1018 -7.2009 -2.4839 0.8730
33.3464 -6.0164 -2.4845 0.8729
33.5488 -4.8236 -2.4852 0.8729
33.8264 -2.4193 -2.4866 0.8728
33.9011 -1.2108 -2.4873 0.8728
-26.1502 -0.9340 -2.5122 0.9002
-26.0939 -1.8663 -2.5115 0.9002
-26.0043 -2.7958 -2.5109 0.9002
-25.7255 -4.6414 -2.5097 0.9003
-25.0622 -7.3590 -2.5077 0.9004
-24.7770 -8.2466 -2.5070 0.9004
-24.4602 -9.1232 -2.5063 0.9004
-21.9066 -10.9657 -2.3519 0.9062
-21.4953 -11.7374 -2.3513 0.9063
-20.5918 -13.2335 -2.3500 0.9063
-15.1911 -11.3719 -1.8218 0.9266
-16.0439 -18.5157 -2.3521 0.9062
-15.3822 -19.0881 -2.3535 0.9062
-7.2657 -11.3056 -1.2902 0.9474
-11.0040 -21.9832 -2.3601 0.9059
-7.7716 -23.3499 -2.3626 0.9058
-4.2052 -16.4756 -1.6324 0.9340
-3.5778 -16.4469 -1.6159 0.9346
-4.3710 -24.2267 -2.3634 0.9058
-3.5034 -24.3667 -2.3634 0.9058
-0.8784 -24.5941 -2.3627 0.9058
0.0000 -24.6051 -2.3622 0.9059
0.8780 -24.5835 -2.3616 0.9059
1.7544 -24.5296 -2.3610 0.9059
5.2196 -23.9942 -2.3574 0.9060
6.0698 -23.7811 -2.3563 0.9061
6.9111 -23.5371 -2.3551 0.9061
7.7426 -23.2627 -2.3538 0.9062
4.5566 -12.2167 -1.2518 0.9490
10.1660 -22.2604 -2.3494 0.9063
11.7114 -21.4478 -2.3461 0.9065
12.4599 -21.0000 -2.3443 0.9065
13.9037 -20.0251 -2.3405 0.9067
15.2702 -18.9491 -2.3364 0.9068
15.1118 -17.4400 -2.2154 0.9114
12.2046 -12.2046 -1.6570 0.9330
13.6554 -12.7136 -1.7912 0.9278
19.9603 -13.8587 -2.3329 0.9070
20.4445 -13.1388 -2.3331 0.9070
20.9028 -12.4022 -2.3334 0.9070
23.9228 -9.9092 -2.4859 0.9012
24.2651 -9.0504 -2.4863 0.9012
24.8575 -7.2988 -2.4872 0.9011
25.1068 -6.4081 -2.4876 0.9011
25.5098 -4.6025 -2.4886 0.9011
25.6631 -3.6898 -2.4891 0.9011
25.7839 -2.7721 -2.4896 0.9010
25.9274 -0.9260 -2.4907 0.9010
-20.7796 -3.7491 -2.5082 0.9185
-20.6282 -4.4874 -2.5077 0.9185
-20.2469 -5.9450 -2.5066 0.9185
-20.0175 -6.6625 -2.5060 0.9185
-18.8489 -9.4351 -2.5038 0.9186
-17.4268 -10.3398 -2.4070 0.9216
-16.6424 -10.6954 -2.3499 0.9234
-15.1909 -11.3718 -2.2541 0.9264
-13.9600 -11.2497 -2.1297 0.9303
-14.9375 -12.9434 -2.3478 0.9235
-14.4627 -13.4653 -2.3473 0.9235
-13.4594 -14.4564 -2.3463 0.9235
-12.9320 -14.9243 -2.3458 0.9235
-12.3884 -15.3731 -2.3452 0.9236
-11.2554 -16.2108 -2.3443 0.9236
-7.2658 -11.3058 -1.5964 0.9473
-6.7230 -11.3310 -1.5650 0.9483
-6.2330 -13.6483 -1.7823 0.9414
-5.2873 -12.7648 -1.6412 0.9459
-4.7918 -12.8472 -1.6288 0.9463
-5.5683 -18.9640 -2.3478 0.9235
-4.8884 -19.1524 -2.3480 0.9235
-2.8132 -19.5664 -2.3481 0.9235
-1.4100 -19.7147 -2.3478 0.9235
0.7051 -19.7435 -2.3467 0.9235
2.1108 -19.6335 -2.3456 0.9235
3.5040 -19.4211 -2.3442 0.9236
4.1934 -19.2769 -2.3434 0.9236
4.8769 -19.1076 -2.3425 0.9236
6.2223 -18.6951 -2.3405 0.9237
8.1728 -17.8959 -2.3370 0.9238
9.4211 -17.2535 -2.3351 0.9239
10.0308 -16.9060 -2.3351 0.9239
11.7805 -15.7369 -2.3351 0.9239
12.8737 -14.8571 -2.3352 0.9239
13.3963 -14.3886 -2.3353 0.9239
12.1679 -12.1679 -2.0441 0.9330
15.3109 -12.3383 -2.3358 0.9238
17.5958 -11.3081 -2.4845 0.9192
18.3842 -10.0385 -2.4881 0.9191
19.3587 -8.0186 -2.4890 0.9191
20.1131 -5.9057 -2.4900 0.9190
20.4893 -4.4572 -2.4908 0.9190
20.6386 -3.7236 -2.4912 0.9190
20.8587 -2.2425 -2.4920 0.9190
20.9291 -1.4969 -2.4924 0.9190
-17.6955 -0.6320 -2.5089 0.9310
-17.5995 -1.8922 -2.5080 0.9310
-17.5178 -2.5187 -2.5076 0.9310
-16.9691 -4.9826 -2.5058 0.9310
-16.5643 -6.1782 -2.5049 0.9311
-16.3302 -6.7642 -2.5045 0.9311
-15.8002 -7.9090 -2.5035 0.9311
-15.1900 -9.0126 -2.5026 0.9311
-13.9625 -10.4522 -2.4713 0.9320
-13.0345 -10.5038 -2.3719 0.9346
-11.7141 -11.7141 -2.3473 0.9353
-10.3891 -12.8921 -2.3460 0.9353
-7.2659 -11.3060 -1.9042 0.9472
-6.7231 -11.3312 -1.8668 0.9482
-6.2384 -11.4248 -1.8444 0.9488
-5.9941 -11.9746 -1.8974 0.9473
-4.9886 -12.0435 -1.8470 0.9487
-4.5044 -12.0767 -1.8263 0.9493
-3.9927 -13.5979 -2.0080 0.9444
-3.5122 -16.1453 -2.3411 0.9354
-2.9333 -16.2582 -2.3408 0.9354
-1.1781 -16.4726 -2.3399 0.9355
-0.5894 -16.5023 -2.3397 0.9355
0.0000 -16.5111 -2.3394 0.9355
1.1777 -16.4658 -2.3390 0.9355
1.7645 -16.4118 -2.3388 0.9355
2.9303 -16.2415 -2.3384 0.9355
3.5079 -16.1254 -2.3382 0.9355
4.6487 -15.8322 -2.3380 0.9355
4.5572 -12.2184 -1.8477 0.9487
6.3136 -15.2425 -2.3376 0.9355
7.3845 -14.7524 -2.3375 0.9355
7.9062 -14.4792 -2.3375 0.9355
8.9189 -13.8780 -2.3374 0.9355
9.8863 -13.2065 -2.3374 0.9355
10.3515 -12.8454 -2.3375 0.9355
13.1542 -11.3981 -2.4662 0.9321
13.6755 -11.0204 -2.4885 0.9315
14.0662 -10.5298 -2.4896 0.9315
15.7186 -7.8681 -2.4906 0.9314
15.9909 -7.3028 -2.4908 0.9314
16.2431 -6.7281 -2.4911 0.9314
16.4746 -6.1447 -2.4914 0.9314
17.0432 -4.3500 -2.4922 0.9314
17.4175 -2.5043 -2.4933 0.9314
17.5569 -1.2557 -2.4940 0.9314
17.5932 -0.6283 -2.4944 0.9313
-15.2255 0.0000 -2.5082 0.9401
-15.0620 -2.1656 -2.5068 0.9402
-14.9729 -2.7014 -2.5064 0.9402
-14.5917 -4.2845 -2.5053 0.9402
-14.4272 -4.8018 -2.5049 0.9402
-13.8246 -6.3135 -2.5037 0.9402
-13.5883 -6.8018 -2.5033 0.9403
-13.3347 -7.2813 -2.5029 0.9403
-12.7771 -8.2114 -2.5021 0.9403
-12.4739 -8.6608 -2.5017 0.9403
-11.8204 -9.5255 -2.5009 0.9403
-11.0903 -10.3255 -2.4963 0.9404
-9.3291 -10.7664 -2.3469 0.9439
-8.9375 -11.0908 -2.3465 0.9439
-6.7232 -11.3313 -2.1706 0.9480
-6.2383 -11.4245 -2.1444 0.9486
-5.9631 -11.9127 -2.1946 0.9474
-4.9887 -12.0437 -2.1475 0.9485
-3.5167 -13.7783 -2.3426 0.9440
-3.0223 -13.8934 -2.3423 0.9440
-2.0230 -14.0705 -2.3418 0.9440
-1.5194 -14.1323 -2.3416 0.9440
-0.5072 -14.2019 -2.3411 0.9440
0.0000 -14.2096 -2.3409 0.9440
0.5071 -14.1993 -2.3407 0.9440
1.5186 -14.1248 -2.3403 0.9440
2.5220 -13.9785 -2.3400 0.9440
3.0191 -13.8788 -2.3398 0.9440
4.0011 -13.6266 -2.3396 0.9441
6.3559 -12.6976 -2.3392 0.9441
9.7810 -11.2879 -2.4605 0.9412
10.2888 -11.0509 -2.4874 0.9406
12.1065 -9.0628 -2.4913 0.9405
12.4230 -8.6254 -2.4915 0.9405
13.0083 -7.7182 -2.4918 0.9405
13.2765 -7.2495 -2.4920 0.9405
14.1780 -5.2881 -2.4928 0.9405
14.3591 -4.7792 -2.4931 0.9405
14.7924 -3.2179 -2.4939 0.9405
15.1380 -0.5407 -2.4954 0.9404
-13.3031 -0.9515 -2.5069 0.9472
-13.2590 -1.4255 -2.5065 0.9472
-13.1202 -2.3671 -2.5059 0.9472
-12.9144 -3.2962 -2.5052 0.9472
-12.3071 -5.0978 -2.5038 0.9472
-12.1156 -5.5330 -2.5035 0.9472
-11.6867 -6.3814 -2.5028 0.9472
-11.4499 -6.7935 -2.5024 0.9473
-11.1985 -7.1968 -2.5021 0.9473
-10.6535 -7.9751 -2.5014 0.9473
-10.3606 -8.3491 -2.5010 0.9473
-10.0546 -8.7124 -2.5007 0.9473
-9.0619 -9.7332 -2.4996 0.9473
-8.7075 -10.0490 -2.4993 0.9473
-7.9448 -10.6130 -2.4919 0.9475
-6.3782 -10.7498 -2.3494 0.9504
-4.3585 -11.6857 -2.3443 0.9505
-3.9382 -11.8325 -2.3440 0.9505
-3.5130 -11.9642 -2.3437 0.9505
-3.0834 -12.0807 -2.3435 0.9505
-2.6500 -12.1817 -2.3432 0.9505
-2.2133 -12.2674 -2.3430 0.9505
-1.7738 -12.3374 -2.3428 0.9505
-0.4448 -12.4530 -2.3422 0.9505
0.4447 -12.4510 -2.3418 0.9506
0.8887 -12.4263 -2.3416 0.9506
1.7727 -12.3297 -2.3413 0.9506
2.2116 -12.2579 -2.3412 0.9506
5.1729 -11.3271 -2.3406 0.9506
6.6413 -11.1933 -2.4464 0.9484
8.3194 -10.3237 -2.4921 0.9475
9.0350 -9.7042 -2.4922 0.9475
9.7048 -9.0355 -2.4923 0.9475
10.3255 -8.3208 -2.4925 0.9475
10.6164 -7.9473 -2.4926 0.9475
11.1574 -7.1705 -2.4929 0.9475
12.0676 -5.5111 -2.4936 0.9474
12.7333 -3.7388 -2.4944 0.9474
13.0638 -2.3570 -2.4951 0.9474
13.1410 -1.8894 -2.4954 0.9474
13.2452 -0.9473 -2.4959 0.9474
-11.8267 -0.8459 -2.5063 0.9527
-11.7877 -1.2673 -2.5060 0.9527
-11.7336 -1.6870 -2.5058 0.9527
-11.5806 -2.5192 -2.5052 0.9527
-11.4820 -2.9306 -2.5049 0.9527
-11.0989 -4.1397 -2.5040 0.9527
-10.5888 -5.3004 -2.5030 0.9527
-10.1811 -6.0408 -2.5024 0.9528
-9.4735 -7.0917 -2.5014 0.9528
-6.7417 -9.7098 -2.4987 0.9528
-6.0304 -10.1637 -2.4981 0.9528
-5.6605 -10.3664 -2.4966 0.9529
-4.4706 -10.7929 -2.4694 0.9534
-3.6060 -10.8342 -2.4137 0.9544
-3.1869 -10.8534 -2.3911 0.9548
-2.3688 -10.8893 -2.3556 0.9555
-1.9687 -10.9120 -2.3438 0.9557
-1.5778 -10.9741 -2.3436 0.9557
-0.3956 -11.0773 -2.3430 0.9557
1.1852 -11.0241 -2.3437 0.9557
1.5860 -11.0311 -2.3557 0.9555
4.1117 -11.0238 -2.4870 0.9530
4.5072 -10.8813 -2.4896 0.9530
6.0185 -10.1436 -2.4932 0.9529
7.0683 -9.4421 -2.4932 0.9529
8.0375 -8.6328 -2.4933 0.9529
8.3407 -8.3407 -2.4933 0.9529
8.9150 -7.7249 -2.4935 0.9529
9.1853 -7.4020 -2.4936 0.9529
9.4441 -7.0697 -2.4937 0.9529
9.6908 -6.7285 -2.4938 0.9529
10.1472 -6.0206 -2.4940 0.9529
10.3562 -5.6549 -2.4942 0.9529
10.5521 -5.2820 -2.4943 0.9529
10.7346 -4.9023 -2.4945 0.9529
10.9035 -4.5164 -2.4947 0.9529
11.3264 -3.3257 -2.4952 0.9529
11.4388 -2.9196 -2.4955 0.9529
11.5367 -2.5097 -2.4957 0.9529
11.6200 -2.0965 -2.4959 0.9529
11.6885 -1.6806 -2.4961 0.9529
11.8047 -0.4216 -2.4969 0.9529
-10.6565 -0.3806 -2.5061 0.9571
-10.6351 -0.7606 -2.5059 0.9571
-10.5516 -1.5171 -2.5054 0.9571
-10.4143 -2.2655 -2.5048 0.9572
-10.1092 -3.3647 -2.5040 0.9572
-9.6883 -4.4245 -2.5032 0.9572
-9.5232 -4.7670 -2.5029 0.9572
-9.1568 -5.4330 -2.5023 0.9572
-7.7873 -7.2503 -2.5006 0.9572
-6.9654 -8.0385 -2.4998 0.9572
-6.3728 -8.5131 -2.4993 0.9572
-5.7480 -8.9441 -2.4987 0.9573
-5.4246 -9.1427 -2.4985 0.9573
-4.7576 -9.5044 -2.4980 0.9573
-4.4149 -9.6673 -2.4977 0.9573
-2.9931 -10.1934 -2.4968 0.9573
-2.6271 -10.2929 -2.4966 0.9573
-2.2579 -10.3792 -2.4964 0.9573
-1.5108 -10.5078 -2.4950 0.9573
-1.1345 -10.5520 -2.4943 0.9573
-0.3787 -10.6029 -2.4935 0.9573
0.0000 -10.6095 -2.4935 0.9573
0.7571 -10.5849 -2.4941 0.9573
1.5107 -10.5070 -2.4948 0.9573
1.8846 -10.4459 -2.4947 0.9573
4.0612 -9.8046 -2.4942 0.9573
4.4085 -9.6532 -2.4941 0.9573
6.0522 -8.7168 -2.4940 0.9573
6.3595 -8.4953 -2.4940 0.9573
6.9495 -8.0201 -2.4941 0.9573
7.7675 -7.2318 -2.4943 0.9573
8.7188 -6.0536 -2.4946 0.9573
8.9297 -5.7388 -2.4947 0.9573
9.4935 -4.7521 -2.4951 0.9573
10.2908 -2.6266 -2.4961 0.9573
10.4536 -1.8860 -2.4965 0.9573
10.6193 -0.3793 -2.4974 0.9573
-9.6786 -0.0000 -2.5060 0.9608
-9.6716 -0.3454 -2.5057 0.9608
-9.6206 -1.0343 -2.5053 0.9608
-9.5766 -1.3769 -2.5051 0.9608
-9.5205 -1.7177 -2.5048 0.9608
-9.4522 -2.0562 -2.5046 0.9608
-9.3719 -2.3920 -2.5043 0.9608
-9.2796 -2.7247 -2.5041 0.9608
-9.1755 -3.0539 -2.5038 0.9608
-9.0598 -3.3791 -2.5036 0.9608
-8.9325 -3.7000 -2.5033 0.9608
-8.6440 -4.3269 -2.5028 0.9608
-7.9370 -5.5107 -2.5018 0.9609
-7.7344 -5.7899 -2.5015 0.9609
-7.5221 -6.0617 -2.5013 0.9609
-7.3002 -6.3256 -2.5010 0.9609
-6.3231 -7.2972 -2.5000 0.9609
-6.0580 -7.5175 -2.4998 0.9609
-5.7853 -7.7282 -2.4995 0.9609
-5.5052 -7.9290 -2.4993 0.9609
-4.3192 -8.6286 -2.4984 0.9609
-2.7174 -9.2545 -2.4973 0.9609
-2.0499 -9.4233 -2.4969 0.9609
-1.3722 -9.5442 -2.4966 0.9609
0.3440 -9.6332 -2.4958 0.9610
1.0303 -9.5832 -2.4956 0.9610
1.7112 -9.4844 -2.4953 0.9610
2.0485 -9.4170 -2.4952 0.9610
2.7149 -9.2462 -2.4951 0.9610
3.0431 -9.1431 -2.4950 0.9610
3.6875 -8.9023 -2.4949 0.9610
4.0028 -8.7649 -2.4948 0.9610
4.9166 -8.2866 -2.4948 0.9610
5.4953 -7.9147 -2.4948 0.9610
5.7743 -7.7135 -2.4948 0.9610
6.0460 -7.5026 -2.4948 0.9610
6.5660 -7.0523 -2.4949 0.9610
7.0526 -6.5662 -2.4950 0.9610
7.2827 -6.3105 -2.4950 0.9610
7.5035 -6.0467 -2.4951 0.9610
7.7148 -5.7752 -2.4952 0.9610
8.6195 -4.3146 -2.4957 0.9610
9.0329 -3.3691 -2.4962 0.9609
9.1479 -3.0447 -2.4963 0.9609
9.2514 -2.7165 -2.4965 0.9609
9.3431 -2.3847 -2.4966 0.9609
9.4229 -2.0498 -2.4968 0.9609
9.4908 -1.7123 -2.4970 0.9609
9.5902 -1.0311 -2.4974 0.9609
9.6217 -0.6882 -2.4976 0.9609
-8.8445 -0.3159 -2.5054 0.9639
-8.8269 -0.6313 -2.5052 0.9639
-8.7980 -0.9459 -2.5050 0.9639
-8.7579 -1.2592 -2.5048 0.9639
-8.7066 -1.5708 -2.5046 0.9639
-8.6442 -1.8804 -2.5044 0.9639
-8.4866 -2.4919 -2.5039 0.9639
-8.3914 -2.7929 -2.5037 0.9639
-8.1693 -3.3838 -2.5032 0.9639
-8.0426 -3.6729 -2.5030 0.9639
-7.9056 -3.9573 -2.5028 0.9639
-7.2592 -5.0402 -2.5018 0.9639
-7.0740 -5.2956 -2.5016 0.9639
-6.8799 -5.5442 -2.5013 0.9639
-6.6770 -5.7856 -2.5011 0.9639
-6.2461 -6.2461 -2.5006 0.9639
-5.2917 -7.0688 -2.4997 0.9640
-4.7731 -7.4270 -2.4993 0.9640
-4.2303 -7.7473 -2.4989 0.9640
-3.9508 -7.8927 -2.4987 0.9640
-2.4857 -8.4655 -2.4977 0.9640
-1.2553 -8.7308 -2.4970 0.9640
-0.6292 -8.7970 -2.4967 0.9640
-0.3148 -8.8134 -2.4966 0.9640
0.3147 -8.8125 -2.4963 0.9640
1.2548 -8.7271 -2.4960 0.9640
2.1803 -8.5421 -2.4957 0.9640
2.4837 -8.4586 -2.4957 0.9640
3.0806 -8.2595 -2.4955 0.9640
3.6619 -8.0184 -2.4955 0.9640
3.9457 -7.8825 -2.4954 0.9640
4.2245 -7.7365 -2.4954 0.9640
6.0067 -6.4517 -2.4955 0.9640
6.2333 -6.2333 -2.4955 0.9640
7.4171 -4.7667 -2.4959 0.9640
7.7389 -4.2257 -2.4962 0.9640
7.8851 -3.9470 -2.4963 0.9640
8.5468 -2.1814 -2.4971 0.9640
8.8014 -0.6295 -2.4980 0.9640
8.8189 -0.3150 -2.4982 0.9640
-8.1396 -0.2907 -2.5051 0.9665
-8.1234 -0.5810 -2.5050 0.9665
-8.0968 -0.8705 -2.5048 0.9665
-8.0600 -1.1589 -2.5046 0.9665
-8.0128 -1.4457 -2.5044 0.9665
-7.8880 -2.0133 -2.5040 0.9665
-7.7230 -2.5705 -2.5035 0.9665
-7.6257 -2.8442 -2.5033 0.9665
-7.5187 -3.1143 -2.5031 0.9665
-7.1408 -3.8992 -2.5025 0.9665
-6.9965 -4.1512 -2.5023 0.9665
-6.3323 -5.1029 -2.5014 0.9665
-6.1456 -5.3252 -2.5012 0.9665
-5.7491 -5.7491 -2.5007 0.9665
-4.3935 -6.8364 -2.4995 0.9666
-3.6367 -7.2652 -2.4989 0.9666
-3.3748 -7.3898 -2.4987 0.9666
-2.8386 -7.6106 -2.4984 0.9666
-2.5650 -7.7065 -2.4982 0.9666
-2.2881 -7.7927 -2.4980 0.9666
-1.1555 -8.0370 -2.4974 0.9666
-0.8679 -8.0726 -2.4973 0.9666
-0.5792 -8.0980 -2.4971 0.9666
-0.2898 -8.1131 -2.4970 0.9666
0.8677 -8.0704 -2.4966 0.9666
1.4411 -7.9873 -2.4964 0.9666
1.7252 -7.9305 -2.4963 0.9666
2.0071 -7.8637 -2.4962 0.9666
2.2864 -7.7868 -2.4962 0.9666
2.5628 -7.7001 -2.4961 0.9666
3.3711 -7.3816 -2.4960 0.9666
3.6323 -7.2565 -2.4959 0.9666
3.8890 -7.1221 -2.4959 0.9666
4.1407 -6.9788 -2.4959 0.9666
4.3871 -6.8265 -2.4959 0.9666
4.6280 -6.6656 -2.4959 0.9666
4.8630 -6.4962 -2.4959 0.9666
5.5297 -5.9393 -2.4960 0.9666
6.4971 -4.8637 -2.4963 0.9666
6.8279 -4.3881 -2.4964 0.9666
7.1241 -3.8901 -2.4966 0.9666
7.7034 -2.5640 -2.4972 0.9666
7.8676 -2.0081 -2.4975 0.9666
7.9918 -1.4419 -2.4978 0.9666
8.0387 -1.1558 -2.4980 0.9666
8.0754 -0.8682 -2.4981 0.9666
8.1017 -0.5794 -2.4983 0.9666
-7.5362 0.0000 -2.5051 0.9687
-7.5309 -0.2690 -2.5049 0.9687
-7.4915 -0.8054 -2.5046 0.9687
-7.2984 -1.8628 -2.5038 0.9687
-7.2267 -2.1220 -2.5036 0.9688
-6.9569 -2.8816 -2.5030 0.9688
-6.8491 -3.1279 -2.5028 0.9688
-6.7325 -3.3701 -2.5026 0.9688
-6.4739 -3.8412 -2.5022 0.9688
-6.3322 -4.0694 -2.5020 0.9688
-6.1824 -4.2925 -2.5018 0.9688
-6.0248 -4.5101 -2.5016 0.9688
-5.6867 -4.9276 -2.5012 0.9688
-4.7196 -5.8567 -2.5003 0.9688
-3.8370 -6.4668 -2.4995 0.9688
-3.3654 -6.7231 -2.4992 0.9688
-2.3737 -7.1317 -2.4985 0.9688
-1.3342 -7.3952 -2.4979 0.9688
-1.0694 -7.4377 -2.4978 0.9688
-0.2682 -7.5083 -2.4974 0.9688
0.2681 -7.5076 -2.4972 0.9688
1.3337 -7.3920 -2.4968 0.9688
1.8575 -7.2776 -2.4967 0.9688
2.8741 -6.9386 -2.4965 0.9688
3.5992 -6.5914 -2.4964 0.9688
4.2831 -6.1688 -2.4964 0.9688
4.9181 -5.6758 -2.4964 0.9688
5.1176 -5.4967 -2.4964 0.9688
6.0128 -4.5012 -2.4967 0.9688
6.3190 -4.0610 -2.4968 0.9688
6.5931 -3.6001 -2.4970 0.9688
6.9410 -2.8751 -2.4973 0.9688
7.0395 -2.6256 -2.4974 0.9688
7.2096 -2.1169 -2.4977 0.9688
7.3431 -1.5974 -2.4980 0.9688
7.3958 -1.3344 -2.4981 0.9688
7.4731 -0.8034 -2.4984 0.9688
7.4975 -0.5362 -2.4986 0.9688
-7.0045 -0.0000 -2.5049 0.9707
-6.9996 -0.2500 -2.5047 0.9707
-6.9630 -0.7486 -2.5044 0.9707
-6.8909 -1.2433 -2.5040 0.9707
-6.8417 -1.4883 -2.5039 0.9707
-6.7837 -1.7315 -2.5037 0.9707
-6.7171 -1.9723 -2.5035 0.9707
-6.6420 -2.2107 -2.5033 0.9707
-6.5584 -2.4462 -2.5031 0.9707
-6.3662 -2.9074 -2.5028 0.9707
-6.1417 -3.3536 -2.5024 0.9707
-5.7467 -3.9900 -2.5018 0.9707
-5.4466 -4.3892 -2.5015 0.9707
-5.1189 -4.7658 -2.5011 0.9707
-4.9451 -4.9451 -2.5009 0.9707
-4.5791 -5.2846 -2.5006 0.9707
-4.1898 -5.5970 -2.5002 0.9707
-3.7793 -5.8808 -2.4999 0.9707
-3.1284 -6.2498 -2.4994 0.9707
-2.6743 -6.4563 -2.4990 0.9707
-2.2066 -6.6298 -2.4987 0.9708
-1.7278 -6.7696 -2.4985 0.9708
-1.2404 -6.8748 -2.4982 0.9708
-0.9941 -6.9144 -2.4981 0.9708
-0.7467 -6.9451 -2.4979 0.9708
0.0000 -6.9842 -2.4976 0.9708
0.2493 -6.9795 -2.4975 0.9708
0.4982 -6.9659 -2.4974 0.9708
0.9938 -6.9121 -2.4972 0.9708
1.7268 -6.7657 -2.4970 0.9708
2.2050 -6.6250 -2.4969 0.9708
2.6719 -6.4506 -2.4968 0.9708
2.9004 -6.3510 -2.4968 0.9708
3.1252 -6.2434 -2.4968 0.9708
3.5626 -6.0045 -2.4968 0.9708
3.7747 -5.8735 -2.4968 0.9708
3.9819 -5.7350 -2.4968 0.9708
4.5722 -5.2766 -2.4968 0.9708
4.7577 -5.1101 -2.4968 0.9708
4.9371 -4.9371 -2.4969 0.9708
5.2769 -4.5725 -2.4969 0.9708
5.4369 -4.3813 -2.4970 0.9708
5.8745 -3.7753 -2.4972 0.9708
6.2451 -3.1261 -2.4975 0.9708
6.3529 -2.9013 -2.4976 0.9708
6.7687 -1.7276 -2.4981 0.9708
6.8754 -1.2404 -2.4984 0.9708
6.9156 -0.9943 -2.4985 0.9708
6.9471 -0.7469 -2.4987 0.9708
6.9698 -0.4985 -2.4988 0.9708
-6.5313 -0.2333 -2.5045 0.9724
-6.5185 -0.4662 -2.5044 0.9724
-6.4678 -0.9299 -2.5041 0.9724
-6.4301 -1.1601 -2.5039 0.9724
-6.2680 -1.8404 -2.5034 0.9724
-5.9406 -2.7130 -2.5027 0.9724
-5.6154 -3.3318 -2.5022 0.9724
-5.4925 -3.5298 -2.5020 0.9724
-5.3627 -3.7234 -2.5019 0.9724
-4.9329 -4.2744 -2.5013 0.9724
-4.0942 -5.0806 -2.5005 0.9724
-3.9100 -5.2232 -2.5003 0.9724
-3.7208 -5.3590 -2.5002 0.9724
-2.7094 -5.9327 -2.4994 0.9724
-2.4957 -6.0253 -2.4992 0.9724
-2.2790 -6.1102 -2.4991 0.9725
-2.0593 -6.1873 -2.4990 0.9725
-1.8371 -6.2565 -2.4988 0.9725
-1.3859 -6.3709 -2.4986 0.9725
-0.9278 -6.4530 -2.4983 0.9725
-0.6969 -6.4817 -2.4982 0.9725
-0.2327 -6.5143 -2.4980 0.9725
0.0000 -6.5182 -2.4979 0.9725
0.9275 -6.4510 -2.4976 0.9725
1.1571 -6.4136 -2.4975 0.9725
1.3853 -6.3680 -2.4974 0.9725
1.8360 -6.2527 -2.4973 0.9725
2.2773 -6.1056 -2.4972 0.9725
2.4937 -6.0203 -2.4972 0.9725
3.3250 -5.6040 -2.4971 0.9725
4.4403 -4.7693 -2.4972 0.9725
4.6078 -4.6078 -2.4972 0.9725
4.9249 -4.2675 -2.4973 0.9725
5.2170 -3.9054 -2.4974 0.9725
5.4826 -3.5235 -2.4975 0.9725
5.6051 -3.3256 -2.4976 0.9725
5.8284 -2.9175 -2.4978 0.9725
5.9291 -2.7077 -2.4978 0.9725
6.1076 -2.2780 -2.4980 0.9725
6.3169 -1.6123 -2.4984 0.9725
6.3708 -1.3859 -2.4985 0.9725
6.4541 -0.9279 -2.4987 0.9725
6.4834 -0.6970 -2.4989 0.9725
6.5045 -0.4652 -2.4990 0.9725
6.5173 -0.2328 -2.4992 0.9725
-6.1194 -0.0000 -2.5045 0.9739
-6.1151 -0.2184 -2.5044 0.9739
-6.0204 -1.0862 -2.5038 0.9739
-5.9774 -1.3003 -2.5036 0.9739
-5.7301 -2.1372 -2.5030 0.9739
-5.5623 -2.5402 -2.5027 0.9739
-5.4677 -2.7370 -2.5025 0.9739
-4.7591 -3.8352 -2.5015 0.9739
-4.6189 -4.0023 -2.5014 0.9739
-4.3211 -4.3211 -2.5011 0.9739
-4.1638 -4.4723 -2.5009 0.9739
-2.9272 -5.3608 -2.4998 0.9739
-2.7339 -5.4616 -2.4997 0.9739
-2.5370 -5.5554 -2.4995 0.9739
-2.1340 -5.7216 -2.4993 0.9740
-1.7203 -5.8586 -2.4990 0.9740
-1.5100 -5.9160 -2.4989 0.9740
-1.2978 -5.9659 -2.4988 0.9740
-1.0840 -6.0081 -2.4987 0.9740
-0.8688 -6.0427 -2.4986 0.9740
0.0000 -6.1039 -2.4982 0.9740
0.2179 -6.0998 -2.4981 0.9740
0.8686 -6.0410 -2.4978 0.9740
1.0836 -6.0060 -2.4978 0.9740
1.2972 -5.9633 -2.4977 0.9740
1.5092 -5.9131 -2.4977 0.9740
1.7193 -5.8553 -2.4976 0.9740
1.9271 -5.7901 -2.4976 0.9740
2.3352 -5.6377 -2.4975 0.9740
2.5349 -5.5507 -2.4975 0.9740
2.7314 -5.4567 -2.4974 0.9740
3.2990 -5.1334 -2.4974 0.9740
3.9960 -4.6117 -2.4975 0.9740
4.4663 -4.1583 -2.4975 0.9740
4.7517 -3.8292 -2.4976 0.9740
5.2488 -3.1143 -2.4979 0.9740
5.3568 -2.9250 -2.4979 0.9740
5.4579 -2.7320 -2.4980 0.9740
5.7193 -2.1332 -2.4983 0.9740
5.7920 -1.9278 -2.4984 0.9740
5.8574 -1.7199 -2.4985 0.9740
5.9657 -1.2978 -2.4987 0.9740
6.0909 -0.4356 -2.4992 0.9740
-5.7463 0.0000 -2.5043 0.9752
-5.7125 -0.6142 -2.5039 0.9752
-5.6535 -1.0200 -2.5037 0.9752
-5.6132 -1.2211 -2.5035 0.9752
-5.3810 -2.0070 -2.5029 0.9753
-5.3056 -2.1977 -2.5028 0.9753
-5.2235 -2.3855 -2.5026 0.9753
-5.1347 -2.5702 -2.5025 0.9753
-5.0394 -2.7517 -2.5023 0.9753
-4.8296 -3.1038 -2.5020 0.9753
-4.7155 -3.2740 -2.5019 0.9753
-4.5953 -3.4400 -2.5017 0.9753
-4.4694 -3.6016 -2.5016 0.9753
-4.0580 -4.0580 -2.5011 0.9753
-3.7577 -4.3367 -2.5008 0.9753
-3.4384 -4.5931 -2.5005 0.9753
-3.2721 -4.7127 -2.5004 0.9753
-3.1016 -4.8262 -2.5002 0.9753
-2.9272 -4.9335 -2.5001 0.9753
-2.0042 -5.3735 -2.4994 0.9753
-1.8110 -5.4413 -2.4993 0.9753
-1.4181 -5.5561 -2.4991 0.9753
-1.2189 -5.6030 -2.4990 0.9753
-1.0180 -5.6427 -2.4989 0.9753
-0.2046 -5.7292 -2.4985 0.9753
0.2046 -5.7288 -2.4983 0.9753
0.4089 -5.7177 -2.4982 0.9753
0.6127 -5.6993 -2.4982 0.9753
0.8157 -5.6736 -2.4981 0.9753
1.2184 -5.6007 -2.4980 0.9753
1.4175 -5.5535 -2.4979 0.9753
1.6147 -5.4993 -2.4979 0.9753
1.8100 -5.4381 -2.4978 0.9753
2.0029 -5.3699 -2.4978 0.9753
2.1932 -5.2950 -2.4978 0.9753
2.3808 -5.2132 -2.4977 0.9753
2.5653 -5.1249 -2.4977 0.9753
3.0984 -4.8213 -2.4977 0.9753
3.5961 -4.4625 -2.4977 0.9753
3.9053 -4.1946 -2.4977 0.9753
4.0526 -4.0526 -2.4978 0.9753
4.3315 -3.7533 -2.4979 0.9753
4.5884 -3.4348 -2.4979 0.9753
4.8220 -3.0989 -2.4981 0.9753
4.9296 -2.9249 -2.4981 0.9753
5.2964 -2.1938 -2.4984 0.9753
5.4398 -1.8105 -2.4986 0.9753
5.5011 -1.6153 -2.4987 0.9753
5.7203 -0.4091 -2.4994 0.9753
5.7315 -0.2047 -2.4995 0.9753
-5.4100 0.0000 -2.5042 0.9764
-5.4063 -0.1931 -2.5041 0.9764
-5.3782 -0.5782 -2.5038 0.9764
-5.2401 -1.3374 -2.5033 0.9764
-5.0662 -1.8896 -2.5029 0.9764
-4.9953 -2.0691 -2.5027 0.9764
-4.9179 -2.2460 -2.5026 0.9765
-4.5472 -2.9223 -2.5020 0.9765
-4.4398 -3.0826 -2.5019 0.9765
-4.3266 -3.2389 -2.5017 0.9765
-4.2080 -3.3911 -2.5016 0.9765
-3.9550 -3.6822 -2.5013 0.9765
-3.6818 -3.9545 -2.5010 0.9765
-3.0808 -4.4373 -2.5005 0.9765
-2.7561 -4.6452 -2.5002 0.9765
-2.5885 -4.7404 -2.5001 0.9765
-2.4175 -4.8295 -2.5000 0.9765
-2.2434 -4.9125 -2.4998 0.9765
-1.8871 -5.0596 -2.4996 0.9765
-1.7053 -5.1234 -2.4995 0.9765
-1.3353 -5.2316 -2.4993 0.9765
-1.1477 -5.2757 -2.4991 0.9765
-0.7683 -5.3437 -2.4990 0.9765
-0.3851 -5.3845 -2.4988 0.9765
0.3851 -5.3838 -2.4985 0.9765
0.5770 -5.3665 -2.4984 0.9765
0.7681 -5.3423 -2.4983 0.9765
1.8859 -5.0564 -2.4980 0.9765
2.4156 -4.8257 -2.4980 0.9765
2.9175 -4.5398 -2.4979 0.9765
3.3861 -4.2019 -2.4980 0.9765
3.5340 -4.0784 -2.4980 0.9765
3.6773 -3.9497 -2.4980 0.9765
3.8160 -3.8160 -2.4980 0.9765
3.9498 -3.6774 -2.4981 0.9765
4.2022 -3.3864 -2.4981 0.9765
4.3205 -3.2343 -2.4982 0.9765
4.5404 -2.9179 -2.4983 0.9765
4.6418 -2.7541 -2.4983 0.9765
4.9100 -2.2423 -2.4986 0.9765
5.1799 -1.5209 -2.4989 0.9765
5.2310 -1.3351 -2.4990 0.9765
5.2756 -1.1476 -2.4991 0.9765
5.3134 -0.9586 -2.4992 0.9765
5.3687 -0.5772 -2.4994 0.9765
5.3967 -0.1927 -2.4996 0.9765
-5.0914 -0.3641 -2.5038 0.9775
-5.0520 -0.7264 -2.5036 0.9775
-4.8962 -1.4377 -2.5031 0.9775
-4.8415 -1.6114 -2.5030 0.9775
-4.6408 -2.1194 -2.5026 0.9775
-4.4773 -2.4448 -2.5023 0.9775
-4.1896 -2.9089 -2.5019 0.9775
-4.0829 -3.0564 -2.5017 0.9775
-3.6056 -3.6056 -2.5012 0.9775
-3.1990 -3.9697 -2.5008 0.9775
-3.0551 -4.0812 -2.5007 0.9775
-2.7559 -4.2883 -2.5004 0.9775
-2.6010 -4.3837 -2.5003 0.9775
-2.2814 -4.5576 -2.5001 0.9775
-1.7809 -4.7747 -2.4997 0.9776
-1.6093 -4.8350 -2.4996 0.9776
-1.4356 -4.8892 -2.4995 0.9776
-1.2601 -4.9371 -2.4994 0.9776
-0.3634 -5.0815 -2.4989 0.9776
-0.1818 -5.0910 -2.4989 0.9776
0.9044 -5.0125 -2.4985 0.9776
1.0827 -4.9770 -2.4984 0.9776
1.2596 -4.9351 -2.4984 0.9776
1.9490 -4.7053 -2.4982 0.9776
2.2797 -4.5542 -2.4982 0.9776
2.4408 -4.4699 -2.4982 0.9776
2.5987 -4.3799 -2.4982 0.9776
2.9046 -4.1834 -2.4982 0.9776
3.0520 -4.0771 -2.4982 0.9776
3.1956 -3.9655 -2.4982 0.9776
3.4704 -3.7275 -2.4982 0.9776
3.7276 -3.4705 -2.4983 0.9776
3.8492 -3.3353 -2.4983 0.9776
3.9658 -3.1958 -2.4983 0.9776
4.3806 -2.5991 -2.4986 0.9776
4.7732 -1.7803 -2.4989 0.9776
4.8883 -1.4353 -2.4991 0.9776
4.9366 -1.2600 -2.4992 0.9776
5.0143 -0.9047 -2.4994 0.9776
5.0436 -0.7252 -2.4995 0.9776
5.0829 -0.3635 -2.4997 0.9776
-4.7767 -0.6868 -2.5035 0.9785
-4.7489 -0.8568 -2.5034 0.9785
-4.7150 -1.0257 -2.5033 0.9785
-4.6294 -1.3593 -2.5030 0.9785
-4.5777 -1.5236 -2.5029 0.9785
-4.5202 -1.6859 -2.5028 0.9785
-4.4569 -1.8461 -2.5027 0.9785
-4.2334 -2.3116 -2.5023 0.9785
-4.0573 -2.6075 -2.5020 0.9785
-3.8605 -2.8900 -2.5018 0.9785
-3.7547 -3.0257 -2.5016 0.9785
-3.6441 -3.1577 -2.5015 0.9785
-3.5289 -3.2856 -2.5014 0.9785
-3.4093 -3.4093 -2.5012 0.9785
-3.2852 -3.5286 -2.5011 0.9785
-3.0248 -3.7536 -2.5009 0.9785
-2.8888 -3.8590 -2.5008 0.9785
-2.6059 -4.0548 -2.5005 0.9785
-2.3098 -4.2300 -2.5003 0.9785
-2.1572 -4.3096 -2.5002 0.9785
-1.8441 -4.4521 -2.5000 0.9785
-1.0241 -4.7078 -2.4995 0.9785
-0.5150 -4.7898 -2.4992 0.9785
-0.1719 -4.8141 -2.4990 0.9785
0.0000 -4.8170 -2.4990 0.9785
0.8552 -4.7399 -2.4987 0.9785
1.0238 -4.7063 -2.4986 0.9785
1.5209 -4.5696 -2.4985 0.9785
1.6830 -4.5124 -2.4985 0.9785
1.8430 -4.4494 -2.4984 0.9785
2.1557 -4.3065 -2.4984 0.9785
2.3080 -4.2268 -2.4984 0.9785
2.4574 -4.1417 -2.4984 0.9785
2.6037 -4.0514 -2.4984 0.9785
2.8860 -3.8553 -2.4984 0.9785
3.2817 -3.5248 -2.4984 0.9785
3.6398 -3.1539 -2.4985 0.9785
3.7501 -3.0220 -2.4985 0.9785
3.8556 -2.8863 -2.4986 0.9785
3.9563 -2.7469 -2.4986 0.9785
4.2275 -2.3084 -2.4988 0.9785
4.3073 -2.1561 -2.4989 0.9785
4.3816 -2.0010 -2.4989 0.9785
4.4504 -1.8434 -2.4990 0.9785
4.5135 -1.6834 -2.4991 0.9785
4.7415 -0.8555 -2.4995 0.9785
4.7908 -0.5151 -2.4997 0.9785
4.8063 -0.3438 -2.4998 0.9785
4.8157 -0.1720 -2.4999 0.9785
-4.5716 -0.0000 -2.5039 0.9794
-4.5595 -0.3261 -2.5037 0.9794
-4.5448 -0.4886 -2.5035 0.9794
-4.4659 -0.9715 -2.5032 0.9794
-4.4282 -1.1302 -2.5031 0.9794
-4.3848 -1.2875 -2.5030 0.9794
-4.3359 -1.4431 -2.5029 0.9794
-4.2814 -1.5969 -2.5027 0.9794
-4.2215 -1.7486 -2.5026 0.9794
-4.1562 -1.8981 -2.5025 0.9794
-4.0098 -2.1895 -2.5023 0.9794
-3.6567 -2.7374 -2.5018 0.9794
-3.4517 -2.9909 -2.5015 0.9794
-3.3426 -3.1121 -2.5014 0.9794
-3.1118 -3.3423 -2.5012 0.9794
-2.9904 -3.4511 -2.5011 0.9794
-2.8652 -3.5554 -2.5009 0.9794
-2.7363 -3.6553 -2.5008 0.9794
-2.6040 -3.7504 -2.5007 0.9794
-2.4683 -3.8408 -2.5006 0.9794
-1.8963 -4.1523 -2.5002 0.9794
-1.1287 -4.4222 -2.4997 0.9794
-0.8103 -4.4911 -2.4995 0.9794
-0.6494 -4.5170 -2.4994 0.9794
-0.4878 -4.5372 -2.4993 0.9794
-0.3255 -4.5515 -2.4993 0.9794
-0.1629 -4.5601 -2.4992 0.9794
-0.0000 -4.5629 -2.4991 0.9794
0.1629 -4.5599 -2.4991 0.9794
0.4877 -4.5364 -2.4989 0.9794
0.6493 -4.5160 -2.4989 0.9794
0.8101 -4.4899 -2.4988 0.9794
0.9698 -4.4580 -2.4988 0.9794
1.2853 -4.3774 -2.4987 0.9794
1.4407 -4.3286 -2.4987 0.9794
1.5943 -4.2744 -2.4986 0.9794
1.8951 -4.1497 -2.4986 0.9794
2.1863 -4.0039 -2.4986 0.9794
2.6017 -3.7472 -2.4986 0.9794
2.7338 -3.6520 -2.4986 0.9794
2.9874 -3.4477 -2.4986 0.9794
3.1086 -3.3389 -2.4986 0.9794
3.3390 -3.1087 -2.4987 0.9794
3.4478 -2.9876 -2.4987 0.9794
3.5523 -2.8626 -2.4987 0.9794
3.6523 -2.7341 -2.4988 0.9794
3.7476 -2.6020 -2.4988 0.9794
3.8382 -2.4666 -2.4989 0.9794
3.9238 -2.3281 -2.4989 0.9794
4.2156 -1.7462 -2.4992 0.9794
4.2754 -1.5946 -2.4992 0.9794
4.3297 -1.4411 -2.4993 0.9794
4.3785 -1.2857 -2.4994 0.9794
4.4594 -0.9701 -2.4995 0.9794
4.4913 -0.8103 -2.4996 0.9794
4.5175 -0.6495 -2.4997 0.9794
-4.3113 -0.4635 -2.5035 0.9802
-4.2918 -0.6171 -2.5034 0.9802
-4.2669 -0.7698 -2.5033 0.9802
-4.2007 -1.0722 -2.5030 0.9802
-4.1596 -1.2214 -2.5029 0.9802
-4.1132 -1.3690 -2.5028 0.9802
-4.0615 -1.5149 -2.5027 0.9802
-3.8758 -1.9401 -2.5024 0.9802
-3.7271 -2.2114 -2.5021 0.9802
-3.6457 -2.3429 -2.5020 0.9802
-3.5596 -2.4714 -2.5019 0.9802
-2.9521 -3.1707 -2.5012 0.9802
-2.5959 -3.4677 -2.5009 0.9802
-2.4703 -3.5579 -2.5008 0.9802
-2.3417 -3.6437 -2.5007 0.9802
-2.2100 -3.7248 -2.5006 0.9802
-2.0756 -3.8012 -2.5005 0.9802
-1.9385 -3.8727 -2.5004 0.9802
-1.7990 -3.9392 -2.5003 0.9802
-1.6572 -4.0008 -2.5002 0.9802
-1.2199 -4.1545 -2.4999 0.9802
-1.0708 -4.1953 -2.4998 0.9802
-0.9203 -4.2307 -2.4997 0.9802
-0.7687 -4.2607 -2.4996 0.9802
-0.3088 -4.3181 -2.4994 0.9802
0.0000 -4.3289 -2.4993 0.9802
0.3088 -4.3176 -2.4992 0.9802
0.4627 -4.3038 -2.4991 0.9802
0.9201 -4.2294 -2.4990 0.9802
1.7979 -3.9369 -2.4988 0.9802
1.9373 -3.8702 -2.4988 0.9802
2.0742 -3.7986 -2.4988 0.9802
2.3399 -3.6409 -2.4987 0.9802
2.4683 -3.5551 -2.4987 0.9802
2.5936 -3.4647 -2.4987 0.9802
2.7157 -3.3699 -2.4988 0.9802
2.8342 -3.2709 -2.4988 0.9802
3.0604 -3.0604 -2.4988 0.9802
3.1677 -2.9492 -2.4988 0.9802
3.2710 -2.8343 -2.4989 0.9802
3.3701 -2.7158 -2.4989 0.9802
3.7226 -2.2087 -2.4991 0.9802
3.7991 -2.0745 -2.4991 0.9802
3.9376 -1.7982 -2.4992 0.9802
4.1539 -1.2197 -2.4995 0.9802
4.1949 -1.0707 -2.4996 0.9802
4.2306 -0.9203 -2.4997 0.9802
4.2858 -0.6162 -2.4998 0.9802
4.3191 -0.3089 -2.5000 0.9802
