ply
format ascii 1.0
element vertex 1323
property float32 x
property float32 y
property float32 z
property float32 I
end_header
-28.7572 -8.4439 5.2847 0.8854
-35.6722 -26.7039 7.8571 0.8344
-33.4248 -26.9354 7.5692 0.8400
-31.1367 -26.9801 7.2646 0.8459
-29.1111 -27.1034 7.0134 0.8508
-27.2187 -27.2186 6.7873 0.8553
-25.4421 -27.3268 6.5835 0.8593
-23.7672 -27.4288 6.3995 0.8629
-20.6740 -27.6172 6.0830 0.8693
-19.2317 -27.6989 5.9459 0.8720
-17.8549 -27.7827 5.8233 0.8745
-15.3278 -28.0708 5.6395 0.8782
-8.7227 -40.0977 7.2357 0.8465
29.8513 -34.4503 8.0377 0.8310
30.6688 -30.6688 7.6477 0.8385
33.4954 -31.1853 8.0697 0.8304
-31.1364 -26.9799 6.3115 0.8464
-29.1109 -27.1032 6.0933 0.8513
-25.5599 -27.4532 5.7463 0.8592
-23.7670 -27.4286 5.5599 0.8634
-22.2840 -27.6528 5.4406 0.8661
-19.4569 -28.0233 5.2263 0.8711
-19.9641 -31.0648 5.6570 0.8612
-16.5319 -27.8631 4.9633 0.8771
-15.5980 -28.5656 4.9860 0.8766
-12.0707 -29.1414 4.8321 0.8802
-13.0744 -35.0538 5.7314 0.8595
-9.4683 -32.2461 5.1485 0.8728
-8.3505 -32.7169 5.1727 0.8723
29.8518 -34.4508 6.9833 0.8315
30.6685 -30.6686 6.6443 0.8390
33.4950 -31.1849 7.0109 0.8309
36.0609 -31.2470 7.3097 0.8244
-41.0424 -26.3764 6.3531 0.8214
-38.2354 -26.5473 6.0615 0.8288
-32.4322 -24.2784 5.2756 0.8492
-31.1362 -26.9796 5.3650 0.8469
-30.1318 -28.0537 5.3611 0.8470
-29.6896 -31.8889 5.6738 0.8388
-23.7669 -27.4285 4.7261 0.8638
-25.9391 -32.1885 5.3832 0.8464
-20.6737 -27.6169 4.4923 0.8701
-19.4566 -28.0228 4.4425 0.8714
-16.5318 -27.8630 4.2189 0.8775
-15.5976 -28.5649 4.2382 0.8770
-6.3053 -12.5964 1.8343 0.9448
-12.8273 -28.0879 4.0210 0.8829
-12.0705 -29.1408 4.1074 0.8805
-13.3599 -35.8191 4.9783 0.8571
-13.6708 -41.0742 5.6372 0.8398
-9.4682 -32.2458 4.3763 0.8732
-8.7216 -40.0925 5.3430 0.8475
-3.4903 -48.8014 6.3712 0.8209
1.7544 -49.1209 6.4006 0.8201
29.5462 -39.4692 6.4203 0.8197
33.4947 -31.1846 5.9595 0.8314
36.0614 -31.2474 6.2136 0.8249
-40.1287 -23.8095 5.0105 0.8289
-39.8479 -25.6087 5.0864 0.8265
-38.5500 -26.7658 5.0395 0.8279
-35.6710 -26.7030 4.7848 0.8359
-34.5559 -27.8469 4.7656 0.8365
-34.1849 -31.8273 5.0155 0.8287
-27.2181 -27.2180 4.1333 0.8565
-29.8804 -32.0939 4.7087 0.8383
-26.0536 -32.3305 4.4587 0.8462
-20.6736 -27.6167 3.7044 0.8704
-20.8953 -32.5138 4.1502 0.8560
-15.5972 -28.5642 3.4948 0.8773
-6.3061 -12.5981 1.5128 0.9449
-12.8272 -28.0877 3.3157 0.8832
-12.0703 -29.1403 3.3870 0.8808
-9.4682 -32.2456 3.6088 0.8735
-8.3504 -32.7164 3.6258 0.8730
-1.7623 -49.3431 5.3019 0.8199
-0.0000 -49.4505 5.3101 0.8196
1.7700 -49.5583 5.3251 0.8191
29.8526 -34.4518 4.8951 0.8324
33.5126 -15.3047 3.9561 0.8622
-35.6707 -26.7028 3.7720 0.8362
-34.5554 -27.8465 3.7568 0.8368
-31.1357 -26.9792 3.4876 0.8476
-29.8927 -32.1071 3.7136 0.8385
-26.0637 -32.3431 3.5163 0.8464
-20.6735 -27.6165 2.9203 0.8707
-11.0170 -20.1761 1.9460 0.9118
-6.3070 -12.5998 1.1928 0.9450
-12.8271 -28.0876 2.6139 0.8834
-12.0701 -29.1398 2.6700 0.8811
-13.3885 -35.8959 3.2432 0.8574
-13.8690 -41.6698 3.7177 0.8384
-9.4681 -32.2453 2.8449 0.8738
-8.3503 -32.7161 2.8583 0.8732
-8.7204 -40.0873 3.4729 0.8482
-5.2859 -49.1664 4.1861 0.8200
-3.5241 -49.2737 4.1818 0.8201
-1.7623 -49.3429 4.1797 0.8202
8.9034 -21.4947 1.9695 0.9108
29.5472 -39.4704 4.1738 0.8204
29.7061 -36.8630 4.0077 0.8269
33.4941 -31.1841 3.8740 0.8322
38.6609 -31.1549 4.2032 0.8193
33.4801 -15.2898 3.1157 0.8626
-30.9455 -18.3608 2.2313 0.8657
-38.5871 -26.7915 2.9130 0.8284
-35.6704 -26.7025 2.7630 0.8365
-34.5549 -27.8461 2.7519 0.8371
-21.0203 -19.5706 1.7810 0.8913
-27.2177 -27.2177 2.3869 0.8570
-20.6733 -27.6163 2.1392 0.8709
-16.5315 -27.8625 2.0090 0.8782
-6.3079 -12.6015 0.8738 0.9451
-13.3044 -35.6705 2.3608 0.8585
-13.6689 -41.0686 2.6840 0.8407
-8.3502 -32.7158 2.0938 0.8734
-7.0289 -48.8872 3.0627 0.8204
-3.4903 -48.8006 3.0339 0.8219
1.7543 -49.1201 3.0479 0.8212
3.5208 -49.2278 3.0604 0.8205
5.3042 -49.3364 3.0770 0.8197
8.9033 -21.4946 1.4427 0.9110
29.5476 -39.4710 3.0574 0.8207
29.7065 -36.8635 2.9358 0.8272
29.8535 -34.4528 2.8269 0.8330
12.9741 -13.9352 1.1807 0.9265
33.2089 -30.9186 2.8136 0.8337
35.8691 -31.0807 2.9431 0.8268
28.4619 -22.9361 2.2667 0.8637
33.4541 -15.2780 2.2806 0.8630
-35.3548 -24.5473 1.6972 0.8417
-35.6702 -26.7023 1.7569 0.8366
-34.5545 -27.8458 1.7499 0.8372
-31.1352 -26.9788 1.6245 0.8480
-23.7662 -27.4277 1.4310 0.8648
-19.4551 -28.0206 1.3451 0.8724
-20.9057 -32.5299 1.5247 0.8566
-11.0743 -20.2811 0.9112 0.9116
-6.3087 -12.6032 0.5557 0.9451
-12.0697 -29.1387 1.2436 0.8814
-9.4679 -32.2447 1.3251 0.8741
-8.7193 -40.0820 1.6174 0.8486
30.0268 -37.2610 1.8869 0.8257
12.9761 -13.9373 0.7509 0.9266
33.4935 -31.1836 1.8045 0.8326
22.8010 -13.5284 1.0454 0.8993
33.4282 -15.2662 1.4491 0.8632
-35.6699 -26.7021 0.7527 0.8367
-31.1350 -26.9786 0.6959 0.8481
-29.7485 -31.9521 0.7374 0.8397
-23.7661 -27.4275 0.6130 0.8649
-25.9358 -32.1844 0.6982 0.8476
-20.6731 -27.6160 0.5827 0.8711
-19.4547 -28.0201 0.5762 0.8724
-6.3096 -12.6049 0.2381 0.9452
-12.8269 -28.0871 0.5216 0.8838
-13.3040 -35.6692 0.6431 0.8587
-13.6679 -41.0654 0.7311 0.8410
-8.8775 -30.2339 0.5323 0.8816
-8.3501 -32.7153 0.5703 0.8736
-8.7187 -40.0794 0.6929 0.8487
30.1757 -34.8247 0.7784 0.8316
12.9781 -13.9394 0.3217 0.9266
29.2234 -29.2234 0.6981 0.8476
33.4933 -31.1833 0.7730 0.8327
24.0086 -15.4294 0.4821 0.8921
33.4025 -15.2544 0.6203 0.8634
-38.5856 -26.7905 -0.2645 0.8287
-34.5535 -27.8450 -0.2498 0.8374
-27.2171 -27.2171 -0.2167 0.8573
-29.8142 -32.0228 -0.2463 0.8394
-23.7659 -27.4273 -0.2043 0.8649
-19.4543 -28.0196 -0.1920 0.8725
-20.8893 -32.5044 -0.2175 0.8568
-11.0743 -20.2810 -0.1300 0.9117
-6.0442 -13.2349 -0.0819 0.9435
-13.7590 -41.3390 -0.2453 0.8401
-8.3500 -32.7150 -0.1901 0.8737
-8.7182 -40.0768 -0.2309 0.8487
10.7181 -32.2027 -0.1911 0.8731
8.9033 -21.4944 -0.1310 0.9111
29.8671 -39.8978 -0.2806 0.8193
12.9801 -13.9416 -0.1072 0.9266
29.0563 -29.0563 -0.2314 0.8484
33.4930 -31.1831 -0.2576 0.8327
36.1758 -31.3465 -0.2695 0.8257
24.6481 -15.8404 -0.1650 0.8894
23.4258 -13.8992 -0.1534 0.8968
33.3767 -15.2426 -0.2066 0.8635
-38.5851 -26.7901 -1.3227 0.8286
-34.5531 -27.8447 -1.2495 0.8373
-34.1133 -31.7606 -1.3124 0.8298
-23.7657 -27.4272 -1.0219 0.8648
-25.9930 -32.2554 -1.1664 0.8472
-20.6728 -27.6156 -0.9713 0.8711
-19.4540 -28.0190 -0.9605 0.8724
-16.2749 -27.4299 -0.8981 0.8802
-11.0742 -20.2809 -0.6506 0.9117
-6.3113 -12.6083 -0.3970 0.9451
-8.8123 -30.0121 -0.8808 0.8824
-8.3499 -32.7147 -0.9507 0.8736
-8.7176 -40.0743 -1.1548 0.8486
8.9033 -21.4944 -0.6551 0.9111
29.8675 -39.8984 -1.4034 0.8192
30.0281 -37.2626 -1.3475 0.8257
30.1766 -34.8256 -1.2975 0.8316
29.0957 -29.0957 -1.1586 0.8482
36.1755 -31.3462 -1.3478 0.8257
23.4259 -13.8992 -0.7670 0.8967
33.3510 -15.2309 -1.0324 0.8635
-49.7796 0.0000 -2.5245 0.8192
-49.7550 -1.7770 -2.5249 0.8192
-49.5137 -5.3233 -2.5255 0.8192
-47.7730 -8.6192 -2.4619 0.8233
-45.2226 -9.8376 -2.3471 0.8308
-45.2673 -11.5538 -2.3693 0.8293
-44.8936 -13.1820 -2.3729 0.8291
-36.6113 -15.1649 -2.0097 0.8532
-42.8749 -19.5803 -2.3904 0.8280
-41.5691 -22.6985 -2.4020 0.8272
-40.8274 -24.2240 -2.4076 0.8268
-40.0272 -25.7239 -2.4130 0.8265
-38.5847 -26.7898 -2.3822 0.8285
-35.6690 -26.7015 -2.2596 0.8366
-34.5526 -27.8443 -2.2505 0.8372
-31.1343 -26.9780 -2.0893 0.8479
-34.0376 -31.6901 -2.3585 0.8301
-27.2167 -27.2167 -1.9520 0.8571
-23.7656 -27.4270 -1.8405 0.8647
-20.8886 -32.5033 -1.9594 0.8566
-11.0742 -20.2809 -1.1720 0.9116
-6.3121 -12.6100 -0.7152 0.9451
-12.0688 -29.1367 -1.5994 0.8813
-12.1102 -32.4687 -1.7574 0.8704
-9.8038 -29.4557 -1.5744 0.8831
-8.6855 -48.1403 -2.4808 0.8221
-6.9614 -48.4176 -2.4807 0.8221
-5.2281 -48.6282 -2.4804 0.8221
-3.4883 -48.7727 -2.4798 0.8221
-1.7446 -48.8482 -2.4789 0.8222
0.0000 -48.8565 -2.4777 0.8223
1.7428 -48.7984 -2.4763 0.8224
5.2120 -48.4783 -2.4727 0.8226
5.3173 -36.9826 -1.8948 0.8610
5.7475 -31.8562 -1.6416 0.8784
8.3720 -28.5123 -1.5070 0.8878
12.6747 -27.7537 -1.5473 0.8850
23.0194 -42.1568 -2.4359 0.8250
27.2324 -39.2222 -2.4216 0.8259
30.1305 -34.7725 -2.3334 0.8317
12.9841 -13.9459 -0.9663 0.9265
29.1282 -29.1283 -2.0891 0.8479
35.5100 -30.7696 -2.3829 0.8285
36.4937 -29.4085 -2.3769 0.8289
23.9526 -15.3934 -1.4440 0.8922
23.4165 -13.8937 -1.3808 0.8967
40.5975 -22.1679 -2.3458 0.8309
41.2504 -20.6484 -2.3394 0.8313
34.2110 -14.1706 -1.8779 0.8622
43.6498 -14.5280 -2.3331 0.8317
47.4405 -12.1085 -2.4830 0.8219
47.8321 -10.4053 -2.4825 0.8220
48.4333 -6.9637 -2.4815 0.8220
48.6421 -5.2296 -2.4811 0.8221
48.7894 -3.4895 -2.4806 0.8221
48.8748 -1.7456 -2.4802 0.8221
-34.2543 -2.4499 -2.5180 0.8713
-34.1478 -3.6713 -2.5182 0.8713
-33.8036 -6.0989 -2.5186 0.8713
-33.5663 -7.3019 -2.5187 0.8713
-33.2859 -8.4957 -2.5188 0.8713
-28.8537 -14.4431 -2.3659 0.8786
-28.3194 -15.4636 -2.3658 0.8786
-27.7786 -16.4818 -2.3683 0.8785
-15.8059 -10.9743 -1.4109 0.9257
-25.9731 -19.4432 -2.3789 0.8780
-17.4968 -16.2901 -1.7528 0.9086
-23.0616 -23.0616 -2.3913 0.8774
-22.2497 -23.8979 -2.3941 0.8773
-20.5321 -25.4787 -2.3993 0.8770
-7.8122 -11.2518 -1.0044 0.9465
-7.5164 -11.6958 -1.0194 0.9458
-16.1262 -27.1793 -2.3172 0.8810
-11.0741 -20.2808 -1.6943 0.9115
-6.3130 -12.6117 -1.0341 0.9450
-9.2836 -31.6170 -2.4161 0.8762
-4.6914 -32.6292 -2.4170 0.8762
-1.1760 -32.9285 -2.4159 0.8762
-0.0000 -32.9391 -2.4152 0.8762
1.1752 -32.9060 -2.4143 0.8763
3.5164 -32.7074 -2.4120 0.8764
4.6788 -32.5414 -2.4105 0.8765
8.9032 -21.4943 -1.7059 0.9109
11.5609 -25.3149 -2.0405 0.8944
14.5563 -29.0797 -2.3844 0.8777
15.6078 -28.5836 -2.3879 0.8776
17.3353 -26.9742 -2.3510 0.8793
13.2404 -17.6872 -1.6200 0.9152
13.8984 -17.2468 -1.6241 0.9150
19.5289 -18.1820 -1.9564 0.8985
24.9384 -20.0966 -2.3484 0.8795
25.5949 -19.1602 -2.3443 0.8796
23.4189 -13.8951 -1.9966 0.8965
28.0137 -15.2966 -2.3403 0.8798
28.5364 -14.2843 -2.3398 0.8799
29.0227 -13.2542 -2.3394 0.8799
30.7270 -12.7275 -2.4386 0.8751
31.8193 -11.8680 -2.4901 0.8727
32.2172 -10.7229 -2.4896 0.8727
33.1634 -7.2143 -2.4885 0.8727
33.3950 -6.0251 -2.4881 0.8728
33.5842 -4.8287 -2.4878 0.8728
33.8348 -2.4199 -2.4872 0.8728
-26.1846 -0.0000 -2.5139 0.9001
-26.1216 -1.8683 -2.5142 0.9001
-25.7766 -4.6506 -2.5146 0.9001
-24.5450 -9.1548 -2.5150 0.9001
-22.0010 -11.0129 -2.3620 0.9059
-15.7029 -10.9027 -1.8353 0.9261
-15.2342 -11.4042 -1.8270 0.9264
-18.0159 -16.7734 -2.3632 0.9058
-17.4218 -17.4218 -2.3654 0.9057
-16.8036 -18.0484 -2.3675 0.9057
-16.1622 -18.6522 -2.3694 0.9056
-15.4983 -19.2323 -2.3713 0.9055
-7.8122 -11.2517 -1.3151 0.9464
-12.6371 -21.2986 -2.3776 0.9053
-9.4948 -22.9225 -2.3820 0.9051
-8.6733 -23.2541 -2.3827 0.9051
-5.4615 -16.4092 -1.6603 0.9329
-6.1419 -24.0636 -2.3843 0.9050
-5.2796 -24.2699 -2.3845 0.9050
-2.6550 -24.6951 -2.3845 0.9050
-1.7717 -24.7714 -2.3843 0.9050
0.6157 -17.2403 -1.6562 0.9330
1.8099 -16.8350 -1.6256 0.9342
3.5279 -24.5370 -2.3799 0.9052
5.2639 -24.1976 -2.3774 0.9053
7.8055 -23.4517 -2.3729 0.9055
8.6312 -23.1413 -2.3712 0.9055
11.7965 -21.6036 -2.3631 0.9058
12.5480 -21.1485 -2.3608 0.9059
13.2815 -20.6664 -2.3585 0.9060
13.9961 -20.1582 -2.3560 0.9061
12.2480 -14.1349 -1.7956 0.9276
18.4580 -15.9939 -2.3448 0.9065
19.0139 -15.3224 -2.3444 0.9065
19.5455 -14.6316 -2.3440 0.9065
20.9876 -12.4525 -2.3429 0.9066
23.6259 -10.7896 -2.4935 0.9009
23.9927 -9.9381 -2.4932 0.9009
24.3289 -9.0742 -2.4929 0.9009
24.6341 -8.1990 -2.4925 0.9009
25.5383 -4.6076 -2.4914 0.9010
25.9243 -0.9259 -2.4905 0.9010
-21.1436 0.0000 -2.5116 0.9184
-21.1314 -0.7547 -2.5117 0.9184
-20.8129 -3.7551 -2.5122 0.9183
-20.6664 -4.4957 -2.5123 0.9183
-20.4933 -5.2306 -2.5124 0.9183
-20.2941 -5.9589 -2.5124 0.9183
-19.5416 -8.0944 -2.5125 0.9183
-19.2403 -8.7868 -2.5125 0.9183
-18.9144 -9.4679 -2.5125 0.9183
-18.4757 -10.0885 -2.5005 0.9187
-17.1563 -10.1793 -2.3696 0.9228
-16.7109 -10.7394 -2.3596 0.9231
-15.2340 -11.4040 -2.2604 0.9262
-15.4658 -12.4631 -2.3594 0.9231
-14.5360 -13.5335 -2.3592 0.9231
-14.0431 -14.0431 -2.3591 0.9231
-13.0040 -15.0074 -2.3588 0.9231
-8.3962 -11.2160 -1.6643 0.9451
-7.5161 -11.6953 -1.6514 0.9455
-10.1351 -17.0818 -2.3594 0.9231
-7.6122 -18.3774 -2.3628 0.9230
-4.9322 -16.7974 -2.0795 0.9319
-4.9232 -19.2888 -2.3647 0.9229
-4.2319 -19.4540 -2.3649 0.9229
-3.5351 -19.5935 -2.3650 0.9229
-1.4202 -19.8564 -2.3647 0.9229
-0.7104 -19.8918 -2.3644 0.9230
0.7101 -19.8837 -2.3634 0.9230
2.1256 -19.7711 -2.3621 0.9230
2.8290 -19.6758 -2.3612 0.9231
3.1388 -12.2975 -1.5076 0.9502
6.9263 -18.5701 -2.3543 0.9233
8.8541 -17.6883 -2.3496 0.9234
9.4776 -17.3570 -2.3491 0.9234
10.0896 -17.0051 -2.3488 0.9234
11.2737 -16.2372 -2.3481 0.9235
11.8443 -15.8222 -2.3477 0.9235
12.0910 -15.0041 -2.2889 0.9253
12.1490 -14.0207 -2.2037 0.9280
14.9242 -12.9319 -2.3457 0.9235
15.8116 -11.8364 -2.3462 0.9235
17.1208 -11.8872 -2.4758 0.9195
18.0714 -10.7223 -2.4960 0.9188
18.4404 -10.0692 -2.4957 0.9189
19.4044 -8.0376 -2.4949 0.9189
19.6768 -7.3391 -2.4946 0.9189
19.9241 -6.6314 -2.4944 0.9189
20.1461 -5.9154 -2.4941 0.9189
20.3425 -5.1921 -2.4939 0.9189
20.6573 -3.7270 -2.4934 0.9189
20.8672 -2.2435 -2.4930 0.9189
-17.7149 0.0000 -2.5100 0.9309
-17.6715 -1.2639 -2.5103 0.9309
-17.5377 -2.5216 -2.5105 0.9309
-16.8135 -5.5960 -2.5108 0.9309
-15.8462 -7.9321 -2.5108 0.9309
-14.9070 -9.5802 -2.5107 0.9309
-13.8053 -10.3345 -2.4434 0.9327
-12.9573 -10.4416 -2.3578 0.9350
-12.5759 -10.8971 -2.3578 0.9350
-11.7656 -11.7656 -2.3576 0.9350
-11.3376 -12.1775 -2.3575 0.9350
-8.3962 -11.2160 -1.9851 0.9450
-7.8121 -11.2516 -1.9408 0.9462
-7.5160 -11.6951 -1.9698 0.9454
-7.0673 -11.9113 -1.9624 0.9456
-6.5285 -11.9561 -1.9301 0.9465
-6.0065 -11.9995 -1.9013 0.9472
-5.4992 -12.0416 -1.8757 0.9479
-5.1975 -12.5480 -1.9244 0.9466
-5.3278 -14.2843 -2.1601 0.9403
-5.2499 -15.7733 -2.3555 0.9350
-4.1105 -16.1046 -2.3550 0.9351
-3.5327 -16.2395 -2.3548 0.9351
-2.3647 -16.4467 -2.3543 0.9351
-1.7760 -16.5189 -2.3540 0.9351
-0.5929 -16.5998 -2.3535 0.9351
0.5927 -16.5960 -2.3530 0.9351
1.1846 -16.5624 -2.3527 0.9351
1.7748 -16.5076 -2.3524 0.9351
2.3625 -16.4317 -2.3521 0.9351
2.9472 -16.3350 -2.3519 0.9351
3.5279 -16.2174 -2.3516 0.9351
3.1389 -12.2981 -1.7984 0.9500
4.6747 -15.9205 -2.3510 0.9352
5.7971 -15.5425 -2.3504 0.9352
6.8893 -15.0856 -2.3498 0.9352
7.9460 -14.5520 -2.3492 0.9352
8.9616 -13.9446 -2.3486 0.9352
11.7124 -11.7125 -2.3469 0.9353
12.5009 -11.6388 -2.4201 0.9333
13.2984 -11.5231 -2.4932 0.9314
14.1125 -10.5645 -2.4978 0.9313
15.4658 -8.4450 -2.4968 0.9313
15.7558 -7.8868 -2.4965 0.9313
16.2753 -6.7414 -2.4960 0.9313
16.5040 -6.1557 -2.4958 0.9313
16.7118 -5.5622 -2.4956 0.9313
17.0632 -4.3551 -2.4952 0.9313
17.2064 -3.7430 -2.4950 0.9313
17.3278 -3.1263 -2.4948 0.9313
17.5043 -1.8819 -2.4945 0.9313
17.5592 -1.2559 -2.4943 0.9314
17.5918 -0.6283 -2.4942 0.9314
-15.2295 0.0000 -2.5089 0.9401
-15.1919 -1.0866 -2.5091 0.9401
-15.1440 -1.6282 -2.5092 0.9401
-15.0768 -2.1677 -2.5093 0.9401
-14.9902 -2.7045 -2.5093 0.9401
-14.8845 -3.2379 -2.5094 0.9401
-14.7598 -3.7672 -2.5095 0.9401
-14.6162 -4.2917 -2.5095 0.9401
-14.2731 -5.3236 -2.5096 0.9401
-14.0741 -5.8297 -2.5096 0.9401
-13.6223 -6.8189 -2.5096 0.9401
-13.3702 -7.3007 -2.5096 0.9401
-12.8150 -8.2357 -2.5095 0.9401
-12.5127 -8.6877 -2.5095 0.9401
-12.1944 -9.1286 -2.5094 0.9401
-11.5115 -9.9747 -2.5093 0.9401
-11.1217 -10.3546 -2.5033 0.9403
-9.3666 -10.8096 -2.3563 0.9437
-8.9743 -11.1365 -2.3562 0.9437
-8.4224 -11.2511 -2.3153 0.9446
-7.7312 -12.0301 -2.3558 0.9437
-7.0060 -11.8080 -2.2619 0.9459
-5.4992 -12.0416 -2.1808 0.9477
-4.0266 -13.7132 -2.3545 0.9437
-3.5342 -13.8470 -2.3543 0.9437
-3.0375 -13.9632 -2.3541 0.9437
-2.5370 -14.0614 -2.3539 0.9437
-2.0333 -14.1418 -2.3537 0.9437
-1.5271 -14.2040 -2.3534 0.9437
-1.0190 -14.2481 -2.3532 0.9437
-0.5098 -14.2741 -2.3530 0.9437
0.0000 -14.2817 -2.3528 0.9437
2.0317 -14.1307 -2.3518 0.9438
3.0339 -13.9468 -2.3513 0.9438
3.1390 -12.2986 -2.0910 0.9498
4.9858 -13.3674 -2.3503 0.9438
5.4591 -13.1795 -2.3501 0.9438
5.9254 -12.9748 -2.3498 0.9438
6.3840 -12.7537 -2.3496 0.9438
7.2760 -12.2631 -2.3491 0.9438
7.7083 -11.9943 -2.3488 0.9438
8.5790 -11.4602 -2.3583 0.9436
9.2489 -11.4772 -2.4283 0.9420
9.9109 -11.4378 -2.4932 0.9405
10.3366 -11.1023 -2.4990 0.9404
11.1030 -10.3372 -2.4991 0.9404
11.4637 -9.9333 -2.4989 0.9404
12.4563 -8.6485 -2.4982 0.9404
13.3058 -7.2655 -2.4975 0.9404
13.7879 -6.2967 -2.4971 0.9404
14.0027 -5.8001 -2.4969 0.9404
14.5392 -4.2691 -2.4963 0.9404
14.6813 -3.7472 -2.4961 0.9404
14.8047 -3.2206 -2.4960 0.9404
14.9093 -2.6899 -2.4958 0.9404
14.9949 -2.1560 -2.4957 0.9404
15.1370 -0.5406 -2.4953 0.9404
-13.3354 -0.4763 -2.5081 0.9471
-13.3104 -0.9520 -2.5082 0.9471
-13.2683 -1.4265 -2.5083 0.9471
-13.2094 -1.8992 -2.5084 0.9471
-13.1335 -2.3696 -2.5084 0.9471
-13.0408 -2.8369 -2.5085 0.9471
-12.9315 -3.3006 -2.5085 0.9471
-12.8056 -3.7601 -2.5086 0.9471
-12.6634 -4.2148 -2.5086 0.9471
-11.7140 -6.3963 -2.5086 0.9471
-10.6838 -7.9979 -2.5085 0.9471
-10.3914 -8.3739 -2.5084 0.9471
-9.4359 -9.4359 -2.5082 0.9471
-9.0928 -9.7664 -2.5081 0.9471
-8.7381 -10.0843 -2.5080 0.9471
-8.3595 -10.3735 -2.5041 0.9472
-7.9502 -10.6203 -2.4936 0.9474
-6.0041 -10.9957 -2.3548 0.9503
-5.6075 -11.2023 -2.3547 0.9503
-4.7934 -11.5724 -2.3544 0.9503
-3.9551 -11.8833 -2.3541 0.9503
-3.5282 -12.0160 -2.3539 0.9503
-3.0969 -12.1334 -2.3537 0.9503
-2.6616 -12.2353 -2.3535 0.9503
-1.3382 -12.4468 -2.3530 0.9503
-0.8930 -12.4856 -2.3528 0.9503
-0.4467 -12.5085 -2.3526 0.9503
-0.0000 -12.5154 -2.3524 0.9503
0.4467 -12.5063 -2.3522 0.9503
1.3375 -12.4404 -2.3518 0.9504
1.7805 -12.3836 -2.3516 0.9504
2.2212 -12.3110 -2.3514 0.9504
2.6589 -12.2228 -2.3511 0.9504
3.0932 -12.1190 -2.3509 0.9504
3.5234 -11.9997 -2.3507 0.9504
4.7846 -11.5511 -2.3500 0.9504
5.1933 -11.3719 -2.3498 0.9504
6.1918 -11.3394 -2.4284 0.9488
6.7371 -11.3547 -2.4816 0.9477
7.5882 -10.9291 -2.5008 0.9473
7.9727 -10.6503 -2.5006 0.9473
8.7106 -10.0525 -2.5001 0.9473
9.0630 -9.7343 -2.4999 0.9473
9.4038 -9.4038 -2.4997 0.9473
9.7326 -9.0614 -2.4995 0.9473
10.0490 -8.7075 -2.4993 0.9473
10.9194 -7.5815 -2.4986 0.9473
11.1822 -7.1863 -2.4984 0.9473
11.6645 -6.3693 -2.4980 0.9473
11.8836 -5.9485 -2.4979 0.9473
12.4487 -4.6431 -2.4973 0.9474
12.6057 -4.1956 -2.4972 0.9474
12.7466 -3.7427 -2.4970 0.9474
12.9796 -2.8235 -2.4967 0.9474
13.0713 -2.3583 -2.4966 0.9474
13.1465 -1.8902 -2.4964 0.9474
13.2714 -0.4740 -2.4961 0.9474
-11.8547 -0.4234 -2.5075 0.9527
-11.8324 -0.8463 -2.5075 0.9527
-11.6751 -2.1064 -2.5077 0.9527
-11.5927 -2.5218 -2.5078 0.9527
-11.1163 -4.1462 -2.5079 0.9527
-10.6095 -5.3107 -2.5079 0.9527
-10.4131 -5.6860 -2.5079 0.9527
-10.2035 -6.0540 -2.5079 0.9527
-9.4975 -7.1097 -2.5078 0.9527
-8.9657 -7.7688 -2.5077 0.9527
-8.6825 -8.0837 -2.5076 0.9527
-8.3882 -8.3882 -2.5075 0.9527
-7.7679 -8.9647 -2.5074 0.9527
-7.4427 -9.2359 -2.5073 0.9527
-7.1081 -9.4953 -2.5072 0.9527
-6.4120 -9.9773 -2.5070 0.9527
-6.0515 -10.1993 -2.5069 0.9527
-5.2979 -10.5838 -2.5018 0.9528
-4.4734 -10.7997 -2.4709 0.9533
-3.6122 -10.8530 -2.4178 0.9543
-3.1941 -10.8780 -2.3965 0.9547
-2.7826 -10.9021 -2.3784 0.9550
-1.9764 -10.9546 -2.3530 0.9555
-1.5841 -11.0174 -2.3528 0.9555
-0.7939 -11.1007 -2.3525 0.9555
-0.3972 -11.1212 -2.3523 0.9555
0.3971 -11.1195 -2.3519 0.9555
0.7937 -11.0973 -2.3517 0.9555
1.1940 -11.1057 -2.3611 0.9554
1.5993 -11.1235 -2.3755 0.9551
2.0100 -11.1409 -2.3930 0.9548
2.8523 -11.1750 -2.4379 0.9539
3.2862 -11.1918 -2.4656 0.9534
3.7277 -11.2001 -2.4952 0.9529
4.5261 -10.9269 -2.5000 0.9528
4.9171 -10.7669 -2.5020 0.9528
5.2978 -10.5837 -2.5018 0.9528
5.6717 -10.3869 -2.5016 0.9528
8.0596 -8.6567 -2.5001 0.9528
8.3628 -8.3628 -2.4999 0.9528
9.2067 -7.4192 -2.4994 0.9528
9.4649 -7.0854 -2.4992 0.9528
9.9449 -6.3912 -2.4988 0.9528
10.9180 -4.5224 -2.4980 0.9528
11.3369 -3.3288 -2.4976 0.9528
11.6259 -2.0976 -2.4972 0.9528
11.6928 -1.6812 -2.4971 0.9529
11.7449 -1.2627 -2.4969 0.9529
11.7820 -0.8427 -2.4968 0.9529
11.8041 -0.4216 -2.4967 0.9529
-10.6663 0.0000 -2.5068 0.9571
-10.6598 -0.3807 -2.5069 0.9571
-10.6397 -0.7610 -2.5070 0.9571
-10.6061 -1.1403 -2.5070 0.9571
-10.5589 -1.5181 -2.5071 0.9571
-10.2360 -3.0056 -2.5073 0.9571
-9.7043 -4.4318 -2.5073 0.9571
-9.5399 -4.7753 -2.5073 0.9571
-9.3633 -5.1128 -2.5073 0.9571
-9.1748 -5.4437 -2.5073 0.9571
-8.9746 -5.7676 -2.5073 0.9571
-8.5401 -6.3930 -2.5072 0.9571
-7.2684 -7.8069 -2.5069 0.9571
-6.9850 -8.0611 -2.5068 0.9571
-6.0826 -8.7606 -2.5066 0.9571
-5.4417 -9.1715 -2.5064 0.9571
-4.7731 -9.5355 -2.5061 0.9571
-3.7259 -9.9895 -2.5058 0.9571
-3.3668 -10.1156 -2.5056 0.9571
-3.0034 -10.2288 -2.5055 0.9571
-1.8923 -10.4883 -2.5048 0.9572
-1.5163 -10.5458 -2.5040 0.9572
-1.1386 -10.5907 -2.5034 0.9572
-0.3801 -10.6425 -2.5028 0.9572
-0.0000 -10.6495 -2.5029 0.9572
0.3801 -10.6437 -2.5031 0.9572
0.7599 -10.6253 -2.5036 0.9572
1.5160 -10.5437 -2.5035 0.9572
2.2640 -10.4072 -2.5031 0.9572
3.3627 -10.1033 -2.5026 0.9572
4.0743 -9.8362 -2.5022 0.9572
4.4224 -9.6838 -2.5020 0.9572
4.7649 -9.5190 -2.5018 0.9572
5.4310 -9.1535 -2.5014 0.9572
5.7538 -8.9531 -2.5013 0.9572
6.0693 -8.7414 -2.5011 0.9572
6.3769 -8.5186 -2.5009 0.9572
7.5221 -7.5221 -2.5002 0.9572
7.7853 -7.2483 -2.5000 0.9572
8.0385 -6.9654 -2.4998 0.9572
8.2814 -6.6736 -2.4996 0.9572
8.5137 -6.3733 -2.4995 0.9572
9.1445 -5.4257 -2.4990 0.9573
9.3317 -5.0955 -2.4988 0.9573
9.5071 -4.7589 -2.4987 0.9573
9.6703 -4.4163 -2.4985 0.9573
10.0853 -3.3567 -2.4981 0.9573
10.2981 -2.6284 -2.4979 0.9573
10.3849 -2.2591 -2.4978 0.9573
10.4584 -1.8869 -2.4977 0.9573
10.5187 -1.5124 -2.4975 0.9573
10.6189 -0.3793 -2.4973 0.9573
-9.6802 -0.0000 -2.5064 0.9608
-9.6743 -0.3455 -2.5064 0.9608
-9.6255 -1.0349 -2.5066 0.9608
-9.5826 -1.3778 -2.5066 0.9608
-9.3809 -2.3943 -2.5067 0.9608
-9.2895 -2.7277 -2.5068 0.9608
-8.9449 -3.7051 -2.5068 0.9608
-8.4976 -4.6400 -2.5068 0.9608
-7.7504 -5.8019 -2.5067 0.9608
-7.5383 -6.0747 -2.5067 0.9608
-7.0855 -6.5968 -2.5066 0.9608
-6.8453 -6.8453 -2.5065 0.9608
-6.5965 -7.0851 -2.5065 0.9608
-6.3392 -7.3158 -2.5064 0.9608
-6.0739 -7.5372 -2.5063 0.9608
-5.2328 -8.1425 -2.5061 0.9608
-4.6383 -8.4944 -2.5059 0.9608
-4.0201 -8.8029 -2.5056 0.9608
-3.3816 -9.0664 -2.5054 0.9608
-2.0565 -9.4534 -2.5049 0.9608
-1.7176 -9.5202 -2.5048 0.9608
-1.3767 -9.5749 -2.5046 0.9608
-0.6900 -9.6476 -2.5043 0.9608
0.0000 -9.6710 -2.5040 0.9608
0.3452 -9.6643 -2.5038 0.9608
3.3774 -9.0553 -2.5023 0.9609
4.0143 -8.7901 -2.5020 0.9609
4.9299 -8.3089 -2.5015 0.9609
5.5093 -7.9349 -2.5012 0.9609
5.7886 -7.7327 -2.5010 0.9609
6.0606 -7.5207 -2.5008 0.9609
6.3247 -7.2991 -2.5007 0.9609
7.2972 -6.3231 -2.5000 0.9609
7.7288 -5.7857 -2.4997 0.9609
8.1208 -5.2190 -2.4994 0.9609
8.4715 -4.6258 -2.4991 0.9609
8.9160 -3.6931 -2.4987 0.9609
9.1559 -3.0474 -2.4985 0.9609
9.2584 -2.7185 -2.4984 0.9609
9.4948 -1.7131 -2.4981 0.9609
9.5495 -1.3730 -2.4980 0.9609
-8.8522 -0.0000 -2.5060 0.9639
-8.8301 -0.6315 -2.5061 0.9639
-8.7629 -1.2599 -2.5062 0.9639
-8.6510 -1.8819 -2.5063 0.9639
-8.2954 -3.0940 -2.5064 0.9639
-7.9171 -3.9630 -2.5064 0.9639
-7.6142 -4.5177 -2.5064 0.9639
-7.4480 -4.7866 -2.5064 0.9639
-6.4794 -6.0325 -2.5062 0.9639
-6.2598 -6.2598 -2.5061 0.9639
-6.0322 -6.4791 -2.5061 0.9639
-5.7970 -6.6901 -2.5060 0.9639
-5.5544 -6.8926 -2.5059 0.9639
-5.3047 -7.0862 -2.5059 0.9639
-3.9615 -7.9141 -2.5054 0.9639
-3.6764 -8.0501 -2.5053 0.9639
-3.3866 -8.1759 -2.5052 0.9639
-3.0924 -8.2912 -2.5051 0.9639
-2.1881 -8.5730 -2.5048 0.9639
-1.2590 -8.7565 -2.5044 0.9639
-0.3157 -8.8394 -2.5040 0.9639
-0.0000 -8.8446 -2.5038 0.9639
0.9453 -8.7923 -2.5034 0.9639
1.8794 -8.6394 -2.5029 0.9639
2.1864 -8.5662 -2.5028 0.9639
2.4906 -8.4822 -2.5026 0.9639
3.3824 -8.1659 -2.5022 0.9639
3.9558 -7.9028 -2.5018 0.9639
4.5090 -7.5995 -2.5015 0.9639
5.2945 -7.0726 -2.5011 0.9639
6.0191 -6.4650 -2.5006 0.9639
6.2456 -6.2457 -2.5005 0.9639
6.6745 -5.7835 -2.5002 0.9640
6.8763 -5.5413 -2.5000 0.9640
7.0693 -5.2920 -2.4999 0.9640
7.2533 -5.0360 -2.4998 0.9640
7.4280 -4.7737 -2.4996 0.9640
7.7488 -4.2312 -2.4994 0.9640
7.8945 -3.9517 -2.4992 0.9640
8.0302 -3.6673 -2.4991 0.9640
8.1556 -3.3781 -2.4990 0.9640
8.6240 -1.8760 -2.4985 0.9640
8.6851 -1.5670 -2.4984 0.9640
8.7352 -1.2559 -2.4983 0.9640
8.7742 -0.9433 -2.4982 0.9640
8.8020 -0.6295 -2.4981 0.9640
8.8186 -0.3150 -2.4981 0.9640
-8.1415 -0.2908 -2.5057 0.9665
-8.0642 -1.1595 -2.5059 0.9665
-8.0178 -1.4466 -2.5059 0.9665
-7.9612 -1.7319 -2.5060 0.9665
-7.8944 -2.0149 -2.5060 0.9665
-7.8175 -2.2954 -2.5060 0.9665
-7.7307 -2.5730 -2.5060 0.9665
-7.4114 -3.3847 -2.5061 0.9665
-7.2859 -3.6471 -2.5061 0.9665
-7.1510 -3.9048 -2.5060 0.9665
-6.8542 -4.4049 -2.5060 0.9665
-6.5223 -4.8826 -2.5060 0.9665
-6.3438 -5.1122 -2.5059 0.9665
-6.1572 -5.3353 -2.5059 0.9665
-4.8818 -6.5213 -2.5056 0.9665
-4.6458 -6.6912 -2.5055 0.9665
-4.4039 -6.8525 -2.5054 0.9665
-3.9035 -7.1488 -2.5052 0.9665
-3.6457 -7.2833 -2.5052 0.9665
-3.3833 -7.4085 -2.5051 0.9665
-3.1166 -7.5242 -2.5050 0.9665
-2.5717 -7.7268 -2.5048 0.9665
-2.2942 -7.8133 -2.5047 0.9665
-2.0138 -7.8899 -2.5045 0.9665
-1.7308 -7.9563 -2.5044 0.9665
-1.4456 -8.0127 -2.5043 0.9665
-1.1587 -8.0588 -2.5042 0.9665
-0.8703 -8.0946 -2.5041 0.9665
0.2905 -8.1344 -2.5036 0.9665
1.7297 -7.9514 -2.5029 0.9665
2.0123 -7.8841 -2.5027 0.9665
3.1131 -7.5158 -2.5021 0.9665
3.3792 -7.3994 -2.5020 0.9665
4.1501 -6.9946 -2.5016 0.9665
4.3968 -6.8416 -2.5014 0.9665
4.8732 -6.5098 -2.5011 0.9665
5.1021 -6.3313 -2.5010 0.9665
5.3245 -6.1449 -2.5009 0.9665
5.5402 -5.9506 -2.5007 0.9665
5.7487 -5.7487 -2.5006 0.9665
5.9499 -5.5396 -2.5005 0.9666
6.1435 -5.3234 -2.5003 0.9666
6.3293 -5.1005 -2.5002 0.9666
6.5070 -4.8711 -2.5001 0.9666
6.6763 -4.6355 -2.4999 0.9666
6.8372 -4.3940 -2.4998 0.9666
7.1326 -3.8947 -2.4996 0.9666
7.3916 -3.3756 -2.4994 0.9666
7.5070 -3.1095 -2.4992 0.9666
7.7091 -2.5658 -2.4990 0.9666
7.7955 -2.2890 -2.4989 0.9666
7.8719 -2.0092 -2.4988 0.9666
7.9383 -1.7269 -2.4988 0.9666
8.0408 -1.1561 -2.4986 0.9666
8.0767 -0.8683 -2.4985 0.9666
8.1023 -0.5795 -2.4984 0.9666
8.1176 -0.2899 -2.4984 0.9666
-7.5372 -0.0000 -2.5054 0.9687
-7.5183 -0.5377 -2.5055 0.9687
-7.4945 -0.8057 -2.5056 0.9687
-7.4610 -1.0727 -2.5056 0.9687
-7.3657 -1.6023 -2.5057 0.9687
-7.1524 -2.3806 -2.5057 0.9687
-7.0629 -2.6343 -2.5057 0.9687
-6.9644 -2.8848 -2.5057 0.9687
-6.8570 -3.1315 -2.5058 0.9687
-6.6161 -3.6127 -2.5057 0.9687
-6.1919 -4.2991 -2.5057 0.9687
-6.0345 -4.5173 -2.5057 0.9687
-5.8693 -4.7298 -2.5056 0.9687
-5.5168 -5.1363 -2.5056 0.9687
-5.3298 -5.3298 -2.5055 0.9687
-5.1361 -5.5166 -2.5055 0.9687
-4.9358 -5.6963 -2.5054 0.9687
-4.7293 -5.8687 -2.5054 0.9687
-4.5167 -6.0336 -2.5053 0.9687
-4.0745 -6.3401 -2.5052 0.9687
-3.8455 -6.4813 -2.5051 0.9687
-3.3731 -6.7387 -2.5049 0.9687
-3.1304 -6.8545 -2.5048 0.9687
-2.3794 -7.1491 -2.5046 0.9687
-1.6014 -7.3615 -2.5043 0.9687
-0.8052 -7.4896 -2.5039 0.9687
-0.5374 -7.5132 -2.5038 0.9687
-0.0000 -7.5317 -2.5036 0.9688
0.2688 -7.5265 -2.5034 0.9688
0.5372 -7.5117 -2.5033 0.9688
1.3369 -7.4101 -2.5029 0.9688
1.6005 -7.3573 -2.5028 0.9688
2.6307 -7.0531 -2.5023 0.9688
2.8806 -6.9544 -2.5021 0.9688
3.3690 -6.7304 -2.5019 0.9688
3.6069 -6.6055 -2.5017 0.9688
4.2917 -6.1812 -2.5013 0.9688
5.1266 -5.5063 -2.5008 0.9688
5.3196 -5.3196 -2.5007 0.9688
5.5058 -5.1261 -2.5006 0.9688
5.8569 -4.7198 -2.5003 0.9688
6.0213 -4.5075 -2.5002 0.9688
6.3270 -4.0661 -2.5000 0.9688
6.4678 -3.8375 -2.4999 0.9688
6.6003 -3.6041 -2.4998 0.9688
6.7245 -3.3660 -2.4997 0.9688
6.8400 -3.1237 -2.4995 0.9688
6.9469 -2.8775 -2.4994 0.9688
7.1339 -2.3744 -2.4993 0.9688
7.3982 -1.3348 -2.4989 0.9688
7.4410 -1.0698 -2.4988 0.9688
7.4742 -0.8036 -2.4988 0.9688
7.4979 -0.5363 -2.4987 0.9688
7.5121 -0.2683 -2.4987 0.9688
-7.0054 -0.0000 -2.5052 0.9707
-7.0010 -0.2500 -2.5052 0.9707
-6.9878 -0.4998 -2.5053 0.9707
-6.9656 -0.7489 -2.5053 0.9707
-6.9345 -0.9970 -2.5053 0.9707
-6.8946 -1.2439 -2.5054 0.9707
-6.8459 -1.4892 -2.5054 0.9707
-6.7224 -1.9739 -2.5055 0.9707
-6.6477 -2.2126 -2.5055 0.9707
-6.1492 -3.3577 -2.5055 0.9707
-6.0254 -3.5751 -2.5055 0.9707
-5.8940 -3.7878 -2.5055 0.9707
-5.7550 -3.9957 -2.5054 0.9707
-5.6086 -4.1986 -2.5054 0.9707
-5.4551 -4.3960 -2.5054 0.9707
-5.2947 -4.5879 -2.5053 0.9707
-5.1275 -4.7739 -2.5053 0.9707
-4.9537 -4.9537 -2.5053 0.9707
-4.3956 -5.4546 -2.5051 0.9707
-4.1980 -5.6078 -2.5051 0.9707
-3.9951 -5.7540 -2.5050 0.9707
-3.7870 -5.8928 -2.5049 0.9707
-3.5742 -6.0240 -2.5049 0.9707
-3.3568 -6.1475 -2.5048 0.9707
-3.1352 -6.2632 -2.5047 0.9707
-2.9095 -6.3710 -2.5046 0.9707
-2.6802 -6.4705 -2.5046 0.9707
-2.4474 -6.5618 -2.5045 0.9707
-2.2116 -6.6448 -2.5044 0.9707
-1.9729 -6.7192 -2.5043 0.9707
-1.4885 -6.8423 -2.5041 0.9707
-1.2432 -6.8908 -2.5040 0.9707
-0.9965 -6.9305 -2.5039 0.9707
-0.7484 -6.9614 -2.5038 0.9707
-0.4995 -6.9833 -2.5037 0.9707
-0.2499 -6.9964 -2.5036 0.9707
0.0000 -7.0006 -2.5035 0.9707
0.4994 -6.9821 -2.5032 0.9707
0.7482 -6.9595 -2.5031 0.9707
0.9961 -6.9280 -2.5030 0.9707
1.4877 -6.8386 -2.5027 0.9707
1.7307 -6.7809 -2.5026 0.9707
2.4453 -6.5560 -2.5023 0.9707
2.6776 -6.4643 -2.5021 0.9707
3.1316 -6.2562 -2.5019 0.9707
3.3527 -6.1401 -2.5018 0.9707
3.7818 -5.8847 -2.5015 0.9707
3.9893 -5.7457 -2.5014 0.9707
4.5799 -5.2855 -2.5010 0.9707
4.7655 -5.1185 -2.5009 0.9707
4.9449 -4.9449 -2.5008 0.9707
5.2846 -4.5791 -2.5006 0.9707
5.4444 -4.3874 -2.5004 0.9707
5.5973 -4.1901 -2.5003 0.9707
5.8814 -3.7798 -2.5001 0.9707
6.0123 -3.5673 -2.5000 0.9707
6.6317 -2.2072 -2.4995 0.9707
6.7718 -1.7284 -2.4993 0.9707
6.8290 -1.4856 -2.4992 0.9707
6.8775 -1.2408 -2.4991 0.9707
6.9172 -0.9945 -2.4991 0.9707
6.9481 -0.7470 -2.4990 0.9708
6.9701 -0.4985 -2.4989 0.9708
6.9833 -0.2494 -2.4989 0.9708
-6.5366 0.0000 -2.5050 0.9724
-6.5326 -0.2333 -2.5050 0.9724
-6.5202 -0.4663 -2.5050 0.9724
-6.4995 -0.6988 -2.5051 0.9724
-6.4333 -1.1607 -2.5051 0.9724
-6.3878 -1.3896 -2.5052 0.9724
-6.3342 -1.6167 -2.5052 0.9724
-6.2725 -1.8418 -2.5052 0.9724
-6.1252 -2.2846 -2.5052 0.9724
-5.8459 -2.9263 -2.5053 0.9724
-5.7377 -3.1330 -2.5052 0.9724
-5.3699 -3.7284 -2.5052 0.9724
-5.2333 -3.9176 -2.5052 0.9724
-5.0901 -4.1019 -2.5052 0.9724
-4.7844 -4.4544 -2.5051 0.9724
-4.4543 -4.7842 -2.5050 0.9724
-3.7278 -5.3690 -2.5048 0.9724
-3.3351 -5.6210 -2.5047 0.9724
-3.1322 -5.7363 -2.5046 0.9724
-2.7149 -5.9448 -2.5045 0.9724
-2.0637 -6.2003 -2.5042 0.9724
-1.8410 -6.2698 -2.5041 0.9724
-1.6160 -6.3313 -2.5040 0.9724
-0.2332 -6.5286 -2.5035 0.9724
-0.0000 -6.5325 -2.5034 0.9724
0.4660 -6.5152 -2.5031 0.9724
1.1596 -6.4273 -2.5028 0.9724
1.3882 -6.3815 -2.5027 0.9724
1.8398 -6.2656 -2.5025 0.9724
2.0621 -6.1957 -2.5024 0.9724
2.4986 -6.0322 -2.5021 0.9724
2.7122 -5.9389 -2.5020 0.9724
2.9223 -5.8381 -2.5019 0.9724
3.1287 -5.7298 -2.5018 0.9724
4.0954 -5.0821 -2.5012 0.9724
4.2740 -4.9324 -2.5011 0.9724
4.4471 -4.7765 -2.5010 0.9724
4.6146 -4.6146 -2.5009 0.9724
5.0807 -4.0943 -2.5005 0.9724
5.2234 -3.9102 -2.5004 0.9724
5.4886 -3.5273 -2.5002 0.9724
5.7258 -3.1265 -2.5001 0.9724
5.8336 -2.9201 -2.5000 0.9724
6.1889 -2.0599 -2.4996 0.9724
6.2583 -1.8376 -2.4995 0.9724
6.3197 -1.6130 -2.4995 0.9724
6.4183 -1.1580 -2.4993 0.9724
6.4843 -0.6971 -2.4992 0.9725
6.5049 -0.4652 -2.4991 0.9725
6.5172 -0.2328 -2.4991 0.9725
-6.1200 -0.0000 -2.5048 0.9739
-6.0852 -0.6542 -2.5049 0.9739
-6.0581 -0.8710 -2.5049 0.9739
-5.9304 -1.5137 -2.5050 0.9739
-5.8727 -1.7244 -2.5050 0.9739
-5.7348 -2.1390 -2.5050 0.9739
-5.6548 -2.3423 -2.5050 0.9739
-5.4733 -2.7397 -2.5050 0.9739
-5.3720 -2.9333 -2.5050 0.9739
-5.1490 -3.3091 -2.5050 0.9739
-5.0276 -3.4907 -2.5050 0.9739
-4.8997 -3.6679 -2.5050 0.9739
-4.6255 -4.0080 -2.5049 0.9739
-4.3277 -4.3277 -2.5049 0.9739
-4.1704 -4.4793 -2.5048 0.9739
-3.6675 -4.8991 -2.5047 0.9739
-2.9326 -5.3707 -2.5044 0.9739
-2.5419 -5.5659 -2.5043 0.9739
-2.3415 -5.6529 -2.5042 0.9739
-2.1382 -5.7327 -2.5042 0.9739
-1.9322 -5.8052 -2.5041 0.9739
-1.7237 -5.8703 -2.5040 0.9739
-1.5130 -5.9279 -2.5039 0.9739
-1.0862 -6.0203 -2.5037 0.9739
-0.6539 -6.0820 -2.5036 0.9739
-0.4364 -6.1012 -2.5035 0.9739
-0.2183 -6.1127 -2.5034 0.9739
0.2183 -6.1122 -2.5032 0.9739
0.4363 -6.1003 -2.5031 0.9739
0.6537 -6.0806 -2.5030 0.9739
0.8703 -6.0531 -2.5029 0.9739
1.7226 -5.8666 -2.5024 0.9739
1.9308 -5.8012 -2.5023 0.9739
2.1365 -5.7283 -2.5022 0.9739
2.5395 -5.5608 -2.5020 0.9739
2.7363 -5.4664 -2.5019 0.9739
2.9295 -5.3650 -2.5018 0.9739
3.3045 -5.1419 -2.5016 0.9739
3.4858 -5.0205 -2.5015 0.9739
3.6626 -4.8927 -2.5014 0.9739
3.8347 -4.7586 -2.5012 0.9739
4.1641 -4.4725 -2.5010 0.9739
4.3209 -4.3209 -2.5009 0.9739
4.4722 -4.1637 -2.5008 0.9739
4.6178 -4.0013 -2.5007 0.9739
4.8911 -3.6614 -2.5005 0.9739
5.0184 -3.4844 -2.5004 0.9739
5.3616 -2.9276 -2.5002 0.9739
5.4625 -2.7343 -2.5001 0.9739
6.0719 -0.6528 -2.4994 0.9740
-5.7469 -0.0000 -2.5046 0.9752
-5.7433 -0.2051 -2.5046 0.9752
-5.7324 -0.4100 -2.5047 0.9752
-5.7142 -0.6144 -2.5047 0.9752
-5.6887 -0.8179 -2.5047 0.9752
-5.6560 -1.0205 -2.5048 0.9752
-5.5689 -1.4214 -2.5048 0.9752
-5.4533 -1.8150 -2.5048 0.9752
-5.3851 -2.0085 -2.5049 0.9752
-5.3100 -2.1995 -2.5049 0.9752
-5.1396 -2.5727 -2.5049 0.9752
-4.8351 -3.1073 -2.5048 0.9752
-4.3435 -3.7636 -2.5047 0.9752
-4.0638 -4.0638 -2.5047 0.9752
-3.9161 -4.2062 -2.5046 0.9752
-3.6059 -4.4747 -2.5046 0.9752
-3.4439 -4.6005 -2.5045 0.9752
-3.2774 -4.7204 -2.5045 0.9752
-3.1068 -4.8342 -2.5044 0.9752
-2.5720 -5.1383 -2.5042 0.9752
-2.3869 -5.2267 -2.5042 0.9752
-2.1988 -5.3084 -2.5041 0.9752
-2.0079 -5.3833 -2.5040 0.9752
-1.6186 -5.5125 -2.5039 0.9752
-0.8175 -5.6860 -2.5035 0.9752
-0.6140 -5.7114 -2.5035 0.9752
-0.4098 -5.7295 -2.5034 0.9752
-0.0000 -5.7437 -2.5032 0.9752
0.2050 -5.7398 -2.5031 0.9753
0.6139 -5.7101 -2.5029 0.9753
0.8173 -5.6843 -2.5028 0.9753
1.0196 -5.6513 -2.5027 0.9753
1.4201 -5.5637 -2.5025 0.9753
1.6177 -5.5093 -2.5024 0.9753
2.0064 -5.3794 -2.5022 0.9753
2.3849 -5.2221 -2.5020 0.9753
2.5696 -5.1335 -2.5019 0.9753
3.1033 -4.8288 -2.5016 0.9753
3.4396 -4.5948 -2.5014 0.9753
4.1999 -3.9103 -2.5009 0.9753
4.3367 -3.7577 -2.5008 0.9753
4.7130 -3.2723 -2.5005 0.9753
4.8266 -3.1019 -2.5005 0.9753
4.9341 -2.9275 -2.5004 0.9753
5.0353 -2.7495 -2.5003 0.9753
5.1300 -2.5679 -2.5002 0.9753
5.3746 -2.0046 -2.5000 0.9753
5.5036 -1.6160 -2.4998 0.9753
5.6046 -1.2192 -2.4997 0.9753
5.6444 -1.0184 -2.4997 0.9753
5.6770 -0.8162 -2.4996 0.9753
5.7024 -0.6131 -2.4995 0.9753
-5.4105 -0.0000 -2.5044 0.9764
-5.3797 -0.5784 -2.5046 0.9764
-5.3249 -0.9607 -2.5046 0.9764
-5.2873 -1.1502 -2.5046 0.9764
-5.1918 -1.5245 -2.5047 0.9764
-5.0699 -1.8910 -2.5047 0.9764
-4.9992 -2.0707 -2.5047 0.9764
-4.9221 -2.2478 -2.5047 0.9764
-4.8387 -2.4221 -2.5047 0.9764
-4.5520 -2.9254 -2.5047 0.9764
-4.2131 -3.3952 -2.5046 0.9764
-3.9601 -3.6870 -2.5046 0.9764
-3.5431 -4.0890 -2.5045 0.9764
-3.3949 -4.2128 -2.5044 0.9764
-3.0856 -4.4441 -2.5043 0.9764
-2.9249 -4.5513 -2.5043 0.9764
-2.5927 -4.7481 -2.5042 0.9764
-2.2472 -4.9208 -2.5040 0.9764
-1.7082 -5.1324 -2.5038 0.9764
-1.5239 -5.1899 -2.5038 0.9764
-1.1497 -5.2851 -2.5036 0.9764
-0.7697 -5.3533 -2.5035 0.9764
-0.3858 -5.3942 -2.5033 0.9764
-0.1930 -5.4044 -2.5032 0.9764
0.5780 -5.3761 -2.5029 0.9764
0.9600 -5.3208 -2.5027 0.9765
1.5231 -5.1871 -2.5024 0.9765
1.7072 -5.1292 -2.5023 0.9765
2.0686 -4.9940 -2.5021 0.9765
2.2454 -4.9168 -2.5020 0.9765
2.4194 -4.8333 -2.5019 0.9765
2.5903 -4.7437 -2.5018 0.9765
2.7578 -4.6480 -2.5017 0.9765
2.9218 -4.5465 -2.5016 0.9765
3.2385 -4.3261 -2.5014 0.9765
3.6820 -3.9547 -2.5012 0.9765
3.8206 -3.8206 -2.5011 0.9765
3.9544 -3.6817 -2.5010 0.9765
4.8302 -2.4178 -2.5003 0.9765
4.9133 -2.2438 -2.5002 0.9765
5.1246 -1.7056 -2.5000 0.9765
5.2329 -1.3356 -2.4999 0.9765
5.3146 -0.9589 -2.4998 0.9765
5.3693 -0.5773 -2.4997 0.9765
-5.1022 -0.1822 -2.5043 0.9775
-5.0763 -0.5458 -2.5044 0.9775
-5.0246 -0.9065 -2.5045 0.9775
-4.9472 -1.2627 -2.5045 0.9775
-4.8990 -1.4385 -2.5045 0.9775
-4.8445 -1.6124 -2.5045 0.9775
-4.7839 -1.7843 -2.5045 0.9775
-4.7172 -1.9539 -2.5045 0.9775
-4.6445 -2.1211 -2.5045 0.9775
-4.3911 -2.6054 -2.5045 0.9775
-4.2953 -2.7604 -2.5045 0.9775
-4.0874 -3.0598 -2.5045 0.9775
-3.8586 -3.3435 -2.5044 0.9775
-3.6102 -3.6102 -2.5044 0.9775
-3.4790 -3.7367 -2.5043 0.9775
-3.3433 -3.8584 -2.5043 0.9775
-3.2034 -3.9752 -2.5043 0.9775
-2.9116 -4.1935 -2.5042 0.9775
-2.7600 -4.2946 -2.5041 0.9775
-2.4465 -4.4804 -2.5040 0.9775
-2.2850 -4.5648 -2.5040 0.9775
-1.9534 -4.7159 -2.5039 0.9775
-1.6119 -4.8430 -2.5037 0.9775
-1.2622 -4.9454 -2.5036 0.9775
-1.0849 -4.9871 -2.5035 0.9775
-0.9062 -5.0225 -2.5035 0.9775
0.0000 -5.1028 -2.5031 0.9775
0.3640 -5.0895 -2.5029 0.9775
0.7261 -5.0502 -2.5027 0.9775
1.4372 -4.8948 -2.5024 0.9775
1.6110 -4.8402 -2.5023 0.9775
1.7826 -4.7794 -2.5022 0.9775
2.1189 -4.6397 -2.5020 0.9775
2.7572 -4.2903 -2.5016 0.9775
3.4746 -3.7320 -2.5012 0.9775
3.9698 -3.1991 -2.5009 0.9775
4.0813 -3.0552 -2.5008 0.9775
4.1876 -2.9075 -2.5007 0.9775
4.2886 -2.7561 -2.5006 0.9775
4.3841 -2.6012 -2.5006 0.9775
4.5582 -2.2817 -2.5004 0.9775
4.7091 -1.9506 -2.5003 0.9775
4.8361 -1.6096 -2.5001 0.9775
5.0154 -0.9049 -2.4999 0.9775
5.0670 -0.5448 -2.4998 0.9776
5.0831 -0.3636 -2.4998 0.9776
-4.8271 -0.0000 -2.5042 0.9785
-4.7996 -0.5160 -2.5043 0.9785
-4.7782 -0.6870 -2.5043 0.9785
-4.7171 -1.0261 -2.5043 0.9785
-4.6775 -1.1939 -2.5044 0.9785
-4.6319 -1.3600 -2.5044 0.9785
-4.5804 -1.5245 -2.5044 0.9785
-4.5231 -1.6870 -2.5044 0.9785
-4.4600 -1.8474 -2.5044 0.9785
-4.3912 -2.0054 -2.5044 0.9785
-4.3169 -2.1609 -2.5044 0.9785
-4.1517 -2.4633 -2.5044 0.9785
-3.9653 -2.7532 -2.5044 0.9785
-3.7588 -3.0290 -2.5043 0.9785
-3.6482 -3.1612 -2.5043 0.9785
-3.5330 -3.2894 -2.5043 0.9785
-3.4133 -3.4133 -2.5043 0.9785
-3.2893 -3.5330 -2.5042 0.9785
-2.6095 -4.0605 -2.5040 0.9785
-2.4629 -4.1510 -2.5040 0.9785
-2.3131 -4.2362 -2.5039 0.9785
-2.0049 -4.3902 -2.5038 0.9785
-1.8469 -4.4589 -2.5038 0.9785
-1.6866 -4.5218 -2.5037 0.9785
-1.3596 -4.6304 -2.5036 0.9785
-1.1934 -4.6759 -2.5035 0.9785
-0.8568 -4.7488 -2.5034 0.9785
-0.1722 -4.8219 -2.5031 0.9785
0.3442 -4.8122 -2.5028 0.9785
0.5157 -4.7967 -2.5028 0.9785
0.6866 -4.7751 -2.5027 0.9785
0.8565 -4.7474 -2.5026 0.9785
2.0035 -4.3870 -2.5020 0.9785
2.3112 -4.2326 -2.5018 0.9785
2.6071 -4.0567 -2.5017 0.9785
2.8896 -3.8601 -2.5015 0.9785
3.1574 -3.6439 -2.5013 0.9785
3.4091 -3.4091 -2.5012 0.9785
3.6434 -3.1570 -2.5010 0.9785
3.7537 -3.0249 -2.5009 0.9785
3.8591 -2.8889 -2.5008 0.9785
4.0551 -2.6061 -2.5007 0.9785
4.2305 -2.3100 -2.5006 0.9785
4.3101 -2.1575 -2.5005 0.9785
4.4528 -1.8444 -2.5004 0.9785
4.5157 -1.6843 -2.5003 0.9785
4.5728 -1.5220 -2.5002 0.9785
4.7090 -1.0244 -2.5001 0.9785
4.7425 -0.8556 -2.5000 0.9785
4.7699 -0.6858 -2.5000 0.9785
4.7913 -0.5151 -2.4999 0.9785
4.8156 -0.1720 -2.4999 0.9785
-4.4995 -0.8118 -2.5042 0.9794
-4.4677 -0.9719 -2.5042 0.9794
-4.4302 -1.1308 -2.5042 0.9794
-4.3383 -1.4439 -2.5043 0.9794
-4.2840 -1.5979 -2.5043 0.9794
-4.0887 -2.0467 -2.5043 0.9794
-3.8464 -2.4720 -2.5043 0.9794
-3.5601 -2.8689 -2.5042 0.9794
-3.3463 -3.1155 -2.5042 0.9794
-3.1154 -3.3462 -2.5041 0.9794
-2.9940 -3.4552 -2.5041 0.9794
-2.3327 -3.9316 -2.5039 0.9794
-2.0462 -4.0879 -2.5038 0.9794
-1.8990 -4.1582 -2.5037 0.9794
-1.7493 -4.2232 -2.5037 0.9794
-1.5974 -4.2829 -2.5036 0.9794
-1.4435 -4.3371 -2.5036 0.9794
-1.2878 -4.3857 -2.5035 0.9794
-0.9716 -4.4662 -2.5034 0.9794
-0.6504 -4.5239 -2.5032 0.9794
-0.4885 -4.5441 -2.5032 0.9794
-0.1631 -4.5671 -2.5030 0.9794
-0.0000 -4.5699 -2.5029 0.9794
0.3260 -4.5580 -2.5028 0.9794
0.4885 -4.5433 -2.5027 0.9794
0.6503 -4.5228 -2.5026 0.9794
0.8113 -4.4966 -2.5026 0.9794
1.2872 -4.3837 -2.5023 0.9794
1.5965 -4.2804 -2.5022 0.9794
2.1891 -4.0091 -2.5018 0.9794
2.3308 -3.9283 -2.5018 0.9794
3.1119 -3.3425 -2.5013 0.9794
3.4511 -2.9904 -2.5011 0.9794
3.5555 -2.8652 -2.5010 0.9794
3.7506 -2.6041 -2.5008 0.9794
3.8411 -2.4685 -2.5008 0.9794
3.9266 -2.3298 -2.5007 0.9794
4.0072 -2.1881 -2.5006 0.9794
4.1529 -1.8966 -2.5005 0.9794
4.2178 -1.7471 -2.5004 0.9794
4.4922 -0.8105 -2.5001 0.9794
4.5615 -0.1629 -2.5000 0.9794
-4.3260 -0.3094 -2.5040 0.9802
-4.2683 -0.7701 -2.5041 0.9802
-4.2025 -1.0726 -2.5041 0.9802
-4.0639 -1.5157 -2.5042 0.9802
-4.0072 -1.6598 -2.5042 0.9802
-3.9454 -1.8018 -2.5042 0.9802
-3.8785 -1.9415 -2.5042 0.9802
-3.8068 -2.0787 -2.5042 0.9802
-3.6488 -2.3449 -2.5041 0.9802
-3.4721 -2.5992 -2.5041 0.9802
-3.2778 -2.8402 -2.5041 0.9802
-3.1743 -2.9554 -2.5040 0.9802
-2.9553 -3.1743 -2.5040 0.9802
-2.8401 -3.2777 -2.5040 0.9802
-2.4734 -3.5623 -2.5039 0.9802
-2.3446 -3.6483 -2.5038 0.9802
-2.2129 -3.7296 -2.5038 0.9802
-2.0783 -3.8061 -2.5037 0.9802
-1.8014 -3.9445 -2.5036 0.9802
-1.6594 -4.0062 -2.5036 0.9802
-1.5154 -4.0628 -2.5035 0.9802
-1.3694 -4.1142 -2.5035 0.9802
-0.9216 -4.2367 -2.5033 0.9802
-0.4634 -4.3107 -2.5031 0.9802
0.0000 -4.3351 -2.5029 0.9802
0.1547 -4.3323 -2.5028 0.9802
0.3092 -4.3239 -2.5028 0.9802
0.4634 -4.3099 -2.5027 0.9802
0.9213 -4.2353 -2.5025 0.9802
1.3687 -4.1122 -2.5022 0.9802
1.6584 -4.0038 -2.5021 0.9802
1.8002 -3.9420 -2.5020 0.9802
2.0767 -3.8033 -2.5018 0.9802
2.2111 -3.7266 -2.5018 0.9802
2.3426 -3.6452 -2.5017 0.9802
2.7186 -3.3736 -2.5015 0.9802
2.9522 -3.1709 -2.5013 0.9802
3.0634 -3.0634 -2.5012 0.9802
3.1707 -2.9520 -2.5012 0.9802
3.2739 -2.8369 -2.5011 0.9802
3.3730 -2.7181 -2.5010 0.9802
3.4678 -2.5960 -2.5010 0.9802
3.5581 -2.4705 -2.5009 0.9802
3.7251 -2.2102 -2.5008 0.9802
3.8731 -1.9387 -2.5006 0.9802
4.0014 -1.6574 -2.5005 0.9802
4.0579 -1.5135 -2.5005 0.9802
4.1092 -1.3677 -2.5004 0.9802
4.1553 -1.2201 -2.5004 0.9802
4.2864 -0.6163 -2.5002 0.9802
